<VTKFile type="UnstructuredGrid" version="0.1">
<UnstructuredGrid>
<Piece  NumberOfPoints="    2080" NumberOfCells="     514">
<Points>
<DataArray type="Float64" NumberOfComponents="3" format="ascii">
-92.4803 1004.06 1.0474
-88.6025 1007.42 26.8228
-73.143 981.79 28.9498
-77.3786 978.169 1.09416
-87.7306 1008.16 29.5748
-76.5831 1017.63 51.3928
-60.1692 992.75 55.2516
-72.271 982.532 31.7017
-74.9693 1018.99 53.4927
-58.2725 1033.09 68.0052
-40.4609 1009.35 73.0173
-58.5554 994.112 57.3515
-56.1701 1034.87 69.1355
-36.5966 1051.55 74.1769
-17.1193 1029.13 79.5925
-38.3586 1011.13 74.1476
-34.3391 1053.49 74.1722
-14.9538 1070.34 69.0412
6.16051 1049.31 74.0718
-14.8619 1031.07 79.5878
-12.8929 1072.16 67.9085
3.33494 1086.78 53.4074
25.7666 1067.09 57.3025
8.22142 1051.13 72.939
4.89251 1088.22 51.31
15.6243 1098.26 29.542
38.8529 1079.48 31.6307
27.3242 1068.52 55.2051
16.4596 1099.06 26.7899
20.2291 1102.6 1.00958
43.7057 1084.15 1.01862
39.6883 1080.27 28.8786
20.2292 1102.6 -1.97481
16.462 1099.05 -27.7555
39.6921 1080.26 -29.8182
43.7058 1084.15 -1.96578
15.6276 1098.26 -30.5065
4.90765 1088.18 -52.2704
27.3516 1068.49 -56.121
38.8578 1079.46 -32.5692
3.35247 1086.75 -54.3663
-12.855 1072.09 -68.8541
8.27336 1051.06 -73.8426
25.7964 1067.05 -58.217
-14.914 1070.26 -69.9855
-34.2866 1053.39 -75.1038
-14.7948 1030.98 -80.4781
6.21434 1049.23 -74.974
-36.543 1051.45 -75.1072
-56.1092 1034.77 -70.0533
-38.2804 1011.03 -75.023
-17.0511 1029.04 -80.4815
-58.2096 1032.99 -68.9214
-74.8732 1018.87 -54.3867
-58.4655 994.016 -58.2094
-40.3808 1009.25 -73.8912
-76.4867 1017.51 -52.2844
-87.64 1008.07 -30.4613
-72.213 982.458 -32.5141
-60.079 992.654 -56.1071
-88.517 1007.33 -27.707
-92.4766 1004.05 -1.93503
-77.3749 978.164 -1.88827
-73.09 981.723 -29.7598
-75.3951 975.331 1.17152
-71.1595 978.953 29.0271
-50.5019 953.313 29.6498
-54.8421 949.643 1.19794
-58.1391 989.945 55.4644
-37.2092 964.44 56.6065
-49.5835 954.087 32.5372
-70.241 979.727 31.9146
-38.3478 1006.61 73.3339
-17.0104 981.303 74.855
-35.5123 965.864 58.8102
-56.4422 991.369 57.6681
-14.898 1026.47 79.9663
6.93369 1001.42 81.6507
-14.7999 983.163 76.0424
-36.1372 1008.47 74.5213
8.49798 1046.73 74.4473
30.785 1022.01 76.0201
9.3073 1003.45 81.6477
-12.5244 1028.5 79.9633
28.2001 1064.61 57.6235
50.6369 1040.34 58.8058
32.942 1023.93 74.8329
10.655 1048.65 73.2601
41.3502 1077.08 31.8453
63.817 1053.15 32.476
52.2583 1041.86 56.602
29.8215 1066.13 55.4197
46.2338 1081.8 1.09373
68.7127 1057.99 1.11122
64.6831 1053.99 29.5845
42.2164 1077.92 28.9538
42.2204 1077.91 -29.89
64.6908 1053.96 -30.4777
68.7129 1057.99 -2.02015
46.234 1081.8 -2.03765
29.8497 1066.09 -56.3308
52.2966 1041.81 -57.4529
63.8263 1053.12 -33.3667
41.3559 1077.07 -32.779
10.7081 1048.58 -74.158
32.9992 1023.85 -75.6749
50.678 1040.29 -59.6545
28.2312 1064.57 -58.5324
-12.4564 1028.4 -80.8484
9.37679 1003.36 -82.4803
30.8438 1021.93 -76.8611
8.55278 1046.66 -75.3442
-36.0582 1008.36 -75.3917
-14.7235 983.065 -76.864
7.00429 1001.33 -82.4821
-14.8289 1026.37 -80.8501
-56.3526 991.274 -58.5212
-35.4361 965.775 -59.6219
-16.9333 981.205 -75.6753
-38.268 1006.51 -74.203
-70.1853 979.656 -32.7213
-49.5471 954.019 -33.2951
-37.1348 964.352 -57.4149
-58.0512 989.851 -56.3142
-71.108 978.886 -29.83
-75.3929 975.328 -1.9585
-54.8399 949.64 -1.93208
-50.4698 953.249 -30.4038
-52.5083 946.836 1.21989
-48.1682 950.505 29.6717
-26.662 925.519 29.7912
-31.0415 921.865 1.2429
-47.235 951.283 32.5953
-34.8607 961.635 56.6645
-13.2473 936.603 56.8693
-25.7288 926.297 32.7147
-33.1367 963.065 58.8972
-14.6348 978.505 74.9421
7.15188 953.395 75.2067
-11.5233 938.033 59.102
-12.388 980.373 76.1465
9.34557 998.633 81.7548
31.3486 973.421 82.0389
9.3987 955.263 76.4112
11.7551 1000.67 81.7518
33.2328 1019.23 76.1242
55.378 993.979 76.35
33.7581 975.462 82.0359
35.4028 1021.18 74.9216
53.0977 1037.59 58.8945
75.0306 1012.73 59.0728
57.5481 995.927 75.1474
54.7142 1039.15 56.662
66.2729 1050.45 32.5361
88.0528 1025.91 32.6752
76.6471 1014.29 56.8403
67.1353 1051.31 29.6076
71.1649 1055.31 1.13436
92.9076 1030.88 1.16826
88.9152 1026.77 29.7467
71.1656 1055.3 -2.0375
67.1435 1051.28 -30.4951
88.9337 1026.73 -30.5726
92.9083 1030.88 -2.0036
66.2834 1050.41 -33.421
54.7537 1039.1 -57.5072
76.6901 1014.23 -57.6403
88.0735 1025.87 -33.4985
53.1393 1037.54 -59.7375
35.4604 1021.1 -75.7578
57.6019 995.847 -75.9379
75.0756 1012.66 -59.8706
33.2915 1019.15 -76.9596
11.8245 1000.58 -82.5788
33.8217 975.367 -82.8169
55.4331 993.897 -77.1397
9.41575 998.539 -82.5809
-12.312 980.275 -76.9628
9.46679 955.165 -77.1823
31.413 973.325 -82.8189
-14.5587 978.407 -75.7574
-33.0616 962.977 -59.704
-11.46 937.948 -59.866
7.22008 953.298 -75.9769
-34.7879 961.549 -57.468
-47.2002 951.215 -33.3482
-25.7051 926.231 -33.4233
-13.1862 936.52 -57.63
-48.1368 950.442 -30.4206
-52.507 946.832 -1.94878
-31.0402 921.862 -1.92577
-26.6417 925.457 -30.4957
-28.6678 919.092 1.2491
-24.2882 922.746 29.7974
-3.0008 897.775 29.8346
-7.44975 894.176 1.2699
-23.3434 923.517 32.7271
-10.8619 933.824 56.8817
10.6055 908.702 56.9162
-2.05599 898.546 32.7643
-9.11769 935.241 59.1174
9.55748 950.602 75.222
31.2706 925.263 75.23
12.3497 910.119 59.1519
11.8302 952.452 76.4264
33.78 970.61 82.0542
55.7726 945.007 82.0322
33.5433 927.113 76.4344
36.2204 972.631 82.0475
57.8403 991.148 76.3615
80.2141 965.173 76.3261
58.2129 947.028 82.0255
60.0447 993.084 75.1464
77.5272 1009.88 59.0718
100.588 983.256 59.0141
82.4184 967.109 75.1109
79.1611 1011.43 56.8368
90.5668 1023.05 32.6716
114.15 995.989 32.6686
102.222 984.802 56.7791
91.4387 1023.91 29.7481
95.4311 1028.02 1.16965
119.201 1000.81 1.20281
115.022 996.845 29.7451
95.4321 1028.02 -1.99771
91.4575 1023.87 -30.5667
115.041 996.813 -30.5049
119.202 1000.81 -1.96454
90.5877 1023.01 -33.4893
79.2043 1011.37 -57.631
102.258 984.741 -57.5325
114.171 995.954 -33.4274
77.5718 1009.82 -59.8648
60.0981 993.004 -75.9321
82.4668 967.026 -75.8552
100.626 983.193 -59.7663
57.8948 991.066 -77.1464
36.2834 972.536 -82.8235
58.2703 946.933 -82.7597
80.2635 965.089 -77.0694
33.8437 970.514 -82.8293
11.8975 952.354 -77.1927
33.6037 927.016 -77.1592
55.8306 944.911 -82.7654
9.62468 950.505 -75.9875
-9.05534 935.156 -59.8766
12.4036 910.037 -59.8707
31.3309 925.167 -75.954
-10.8019 933.74 -57.6377
-23.3208 923.452 -33.431
-2.04002 898.482 -33.4273
10.657 908.621 -57.6318
-24.2685 922.685 -30.4971
-28.6669 919.089 -1.92721
-7.4489 894.173 -1.90642
-2.98772 897.715 -30.4934
-5.11765 891.387 1.27292
-0.668696 894.986 29.8376
20.0894 869.693 29.8628
15.5789 866.169 1.2937
0.289529 895.744 32.7681
12.951 905.9 56.9201
33.8757 880.4 56.9476
21.0476 870.45 32.7933
14.7187 907.293 59.1549
33.6395 922.437 75.233
54.8059 896.637 75.257
35.6433 881.793 59.1824
35.9419 924.255 76.4352
58.1712 942.15 82.033
79.6308 915.983 82.0443
57.1082 898.455 76.4592
60.6475 944.131 82.0246
82.6486 962.275 76.3253
104.469 935.668 76.3443
82.1071 917.964 82.0359
84.9063 964.152 75.1104
103.076 980.299 59.0135
125.433 953.084 59.0349
106.727 937.545 75.1295
104.772 981.786 56.7792
116.699 992.973 32.6687
139.483 965.302 32.6923
127.129 954.571 56.8005
117.608 993.795 29.7474
121.786 997.764 1.20513
144.725 969.937 1.22952
140.391 966.124 29.771
121.787 997.762 -1.9607
117.626 993.764 -30.5011
140.407 966.095 -30.4764
144.726 969.935 -1.93632
116.72 992.938 -33.422
104.807 981.725 -57.5271
127.161 954.513 -57.5014
139.5 965.27 -33.3973
103.113 980.236 -59.7609
84.9542 964.07 -75.8498
106.772 937.464 -75.8235
125.467 953.024 -59.7351
82.6976 962.191 -77.0638
60.7044 944.035 -82.754
82.1607 917.869 -82.7216
104.515 935.585 -77.0375
58.2286 942.054 -82.7615
36.0017 924.159 -77.1553
57.1634 898.361 -77.1371
79.6849 915.888 -82.7291
33.6991 922.342 -75.9525
14.7718 907.211 -59.8691
35.6911 881.713 -59.8553
54.8608 896.543 -75.9342
13.0019 905.819 -57.6311
0.304815 895.68 -33.4266
21.0589 870.388 -33.4104
33.9211 880.322 -57.6172
-0.655915 894.927 -30.4919
-5.11709 891.384 -1.90487
15.5795 866.166 -1.88408
20.0982 869.635 -30.4757
17.8483 863.341 1.29631
22.3588 866.865 29.8654
42.5106 841.179 29.8889
37.9405 837.742 1.3168
23.3298 867.606 32.7966
36.1579 877.555 56.9509
56.4778 851.629 56.9824
43.4817 841.92 32.8201
37.9489 878.918 59.1862
57.1115 893.762 75.2608
77.6866 867.485 75.3017
58.2688 852.992 59.2178
59.4448 895.54 76.4626
81.9673 913.068 82.0477
102.86 886.369 82.0889
80.0199 869.263 76.5035
84.4805 915.001 82.0389
106.842 932.706 76.3473
128.1 905.529 76.3855
105.373 888.302 82.0801
109.147 934.524 75.1332
127.853 950.063 59.0387
149.563 922.323 59.0724
130.404 907.347 75.1714
129.599 951.492 56.8039
141.952 962.223 32.6957
164.024 934.04 32.7211
151.309 923.752 56.8376
142.891 963.012 29.7738
147.225 966.825 1.23235
169.428 938.484 1.255
164.962 934.829 29.7992
147.226 966.823 -1.93395
142.906 962.984 -30.474
164.976 934.803 -30.4543
169.429 938.483 -1.9113
141.97 962.192 -33.3956
129.63 951.434 -57.4997
151.338 923.697 -57.4888
164.039 934.011 -33.3759
127.887 950.003 -59.7338
109.192 934.443 -75.8222
130.447 907.268 -75.8167
149.594 922.265 -59.723
106.888 932.623 -77.0356
84.5338 914.907 -82.7197
105.423 888.21 -82.7183
128.144 905.448 -77.03
82.021 912.974 -82.7278
59.4996 895.446 -77.1358
80.071 869.172 -77.1351
102.91 886.277 -82.7263
57.1659 893.669 -75.9334
37.9961 878.839 -59.8545
58.3123 852.915 -59.8451
77.7373 867.395 -75.9327
36.2029 877.478 -57.616
23.3407 867.544 -33.4092
43.4899 841.86 -33.3918
56.519 851.554 -57.6066
22.3674 866.808 -30.4738
17.8487 863.338 -1.88212
37.9409 837.739 -1.86163
42.5166 841.123 -30.4564
40.1413 834.87 1.31929
44.7114 838.307 29.8914
64.2336 812.21 29.914
59.6024 808.867 1.3394
45.6955 839.029 32.8234
58.6916 848.739 56.9857
78.388 822.379 57.0175
65.2176 812.932 32.8459
60.5069 850.067 59.2222
79.9247 864.56 75.3061
99.8895 837.815 75.3508
80.2033 823.708 59.254
82.2907 866.293 76.5085
105.13 883.399 82.0938
125.429 856.192 82.1432
102.256 839.548 76.5531
107.682 885.28 82.0847
130.409 902.507 76.3901
151.075 874.794 76.431
127.98 858.072 82.1341
132.757 904.267 75.1759
151.916 919.242 59.0768
172.981 890.997 59.1112
153.423 876.554 75.2168
153.704 920.618 56.8414
166.419 930.906 32.7248
187.8 902.242 32.7499
174.769 892.372 56.8757
167.383 931.663 29.802
171.849 935.318 1.2578
193.346 906.501 1.27942
188.763 902.998 29.827
171.85 935.316 -1.9092
167.396 931.636 -30.4522
188.776 902.973 -30.4341
193.346 906.499 -1.88758
166.434 930.876 -33.3748
153.733 920.562 -57.4877
174.796 892.319 -57.4795
187.813 902.214 -33.3568
151.946 919.185 -59.7227
132.799 904.188 -75.8163
153.462 876.477 -75.8152
173.009 890.941 -59.7145
130.452 902.426 -77.03
107.732 885.188 -82.7182
128.027 857.983 -82.7263
151.116 874.715 -77.0288
105.181 883.307 -82.7267
82.3414 866.203 -77.1355
102.303 839.46 -77.1396
125.476 856.102 -82.7348
79.975 864.47 -75.9326
60.5499 849.99 -59.845
80.2434 823.633 -59.8367
99.9366 837.727 -75.9367
58.7324 848.664 -57.6054
45.7034 838.969 -33.3906
65.2234 812.874 -33.373
78.4259 822.306 -57.5971
44.7173 838.251 -30.4544
40.1415 834.867 -1.85963
59.6027 808.864 -1.83952
64.2373 812.156 -30.4368
61.7326 805.95 1.3418
66.3638 809.293 29.9164
85.2469 782.783 29.938
80.553 779.539 1.36143
67.3612 809.994 32.8491
80.5316 819.442 57.0206
99.5947 792.652 57.0505
86.2444 783.484 32.8707
82.3721 820.733 59.2583
102.058 834.84 75.3551
121.399 807.637 75.3972
101.435 793.943 59.2882
104.458 836.524 76.5583
127.631 853.168 82.1484
147.313 825.472 82.1957
123.799 809.322 76.6005
130.222 854.994 82.1389
153.317 871.715 76.4359
173.364 843.493 76.4743
149.904 827.298 82.1862
155.705 873.417 75.221
175.264 887.86 59.1155
195.675 859.124 59.1472
175.753 845.195 75.2595
177.09 889.183 56.8793
190.12 899.053 32.7535
210.812 869.922 32.7775
197.501 860.448 56.9111
191.107 899.779 29.8297
195.689 903.281 1.28211
216.484 874.004 1.30286
211.799 870.648 29.8537
195.69 903.28 -1.88559
191.119 899.754 -30.4321
211.809 870.624 -30.4148
216.485 874.003 -1.86484
190.134 899.025 -33.3557
177.116 889.131 -57.4784
197.525 860.397 -57.4692
210.824 869.895 -33.3384
175.292 887.805 -59.7141
155.745 873.34 -75.8149
175.79 845.12 -75.8129
195.701 859.071 -59.7049
153.357 871.636 -77.0291
130.269 854.904 -82.7266
149.948 827.211 -82.7339
173.402 843.417 -77.0271
127.678 853.078 -82.7355
104.505 836.436 -77.1403
123.843 809.236 -77.143
147.357 825.385 -82.7428
102.105 834.753 -75.9366
82.4118 820.658 -59.8366
101.472 793.871 -59.8276
121.442 807.552 -75.9394
80.5692 819.369 -57.5958
67.3668 809.936 -33.3717
86.2481 783.427 -33.3542
99.6296 792.581 -57.5868
66.3674 809.238 -30.4348
61.7328 805.947 -1.83752
80.5531 779.536 -1.81789
85.2487 782.729 -30.4172
82.6118 776.576 1.36374
87.3057 779.82 29.9403
105.544 752.901 29.961
100.786 749.761 1.38281
88.3169 780.5 32.8736
101.667 789.668 57.0534
120.089 762.457 57.081
106.556 753.581 32.8943
103.533 790.92 59.2922
123.497 804.614 75.4012
142.2 776.968 75.4387
121.955 763.709 59.3198
125.932 806.247 76.6052
149.446 822.397 82.2004
168.493 794.233 82.2419
144.635 778.6 76.6427
152.076 824.165 82.1907
175.536 840.36 76.4788
194.943 811.654 76.5136
171.123 796.001 82.2321
177.964 842.004 75.2634
197.887 855.933 59.151
217.631 826.722 59.1789
197.372 813.298 75.2982
199.747 857.207 56.9143
213.057 866.681 32.7808
233.056 837.094 32.8033
219.491 827.996 56.9422
214.065 867.378 29.8563
218.75 870.734 1.30542
238.842 841.008 1.32534
234.063 837.791 29.8788
218.751 870.733 -1.86289
214.075 867.354 -30.4129
234.072 837.768 -30.3957
238.842 841.007 -1.84297
213.069 866.655 -33.3372
199.771 857.156 -57.468
219.513 827.948 -57.4565
233.066 837.069 -33.3199
197.912 855.88 -59.7043
178.001 841.929 -75.8123
197.406 813.226 -75.8081
217.655 826.671 -59.6928
175.574 840.284 -77.0272
152.119 824.078 -82.734
171.163 795.917 -82.7369
194.978 811.581 -77.0231
149.49 822.31 -82.7432
125.975 806.161 -77.1434
144.676 778.517 -77.1428
168.534 794.149 -82.7461
123.54 804.529 -75.939
103.57 790.848 -59.8273
121.99 763.638 -59.8171
142.241 776.885 -75.9385
101.702 789.597 -57.5855
88.3204 780.443 -33.3528
106.557 753.525 -33.3356
120.121 762.388 -57.5753
87.3075 779.767 -30.4153
82.6118 776.573 -1.81591
100.786 749.758 -1.79684
105.544 752.849 -30.398
102.773 746.754 1.38503
107.531 749.894 29.9632
125.12 722.574 29.983
120.297 719.542 1.40348
108.556 750.551 32.897
122.09 759.427 57.0837
139.863 731.804 57.1088
126.145 723.232 32.9168
123.982 760.638 59.3233
144.227 773.897 75.4422
162.281 745.821 75.4751
141.755 733.015 59.3484
146.696 775.475 76.6468
170.554 791.108 82.246
188.949 762.495 82.2819
164.751 747.4 76.6797
173.222 792.816 82.2361
197.043 808.47 76.5176
215.788 779.305 76.5485
191.617 764.203 82.272
199.509 810.055 75.3015
219.769 823.479 59.1822
238.833 793.812 59.2071
218.254 780.891 75.3325
221.661 824.704 56.9451
235.225 833.802 32.8062
254.522 803.77 32.8273
240.724 795.038 56.9699
236.251 834.471 29.8812
241.03 837.689 1.32776
260.412 807.524 1.34689
255.548 804.439 29.9023
241.03 837.688 -1.84105
236.26 834.449 -30.3937
255.557 804.418 -30.3767
260.412 807.523 -1.82192
235.236 833.777 -33.3185
221.683 824.656 -57.4551
240.744 794.991 -57.4421
254.532 803.747 -33.3015
219.792 823.428 -59.6919
199.543 809.983 -75.8072
218.285 780.821 -75.8007
238.854 793.764 -59.679
197.078 808.396 -77.0228
173.263 792.732 -82.7366
191.655 764.122 -82.7354
215.82 779.234 -77.0162
170.595 791.024 -82.7461
146.737 775.393 -77.1428
164.788 747.32 -77.1389
188.987 762.414 -82.7448
144.267 773.814 -75.9378
124.016 760.567 -59.8165
141.787 732.946 -59.8051
162.319 745.741 -75.9339
122.122 759.358 -57.5739
108.558 750.496 -33.3341
126.145 723.177 -33.3172
139.893 731.737 -57.5625
107.531 749.842 -30.3961
102.773 746.751 -1.7949
120.297 719.539 -1.77644
125.118 722.523 -30.3791
122.212 716.491 1.40559
127.035 719.523 29.9851
143.968 691.813 30.0038
139.081 688.891 1.42338
128.073 720.157 32.9193
141.791 728.73 57.1113
158.908 700.706 57.134
145.007 692.447 32.9379
143.709 729.898 59.3515
164.235 742.704 75.4782
181.631 714.213 75.5069
160.826 701.874 59.3741
166.739 744.227 76.6833
190.938 759.322 82.2855
208.667 730.278 82.3169
184.134 715.736 76.712
193.644 760.969 82.2754
217.814 776.071 76.552
235.883 746.464 76.5792
211.373 731.925 82.3069
220.316 777.597 75.3355
240.895 790.519 59.2101
259.266 760.412 59.2332
238.385 747.99 75.3627
242.816 791.697 56.9726
256.614 800.429 32.8299
275.201 769.965 32.85
261.188 761.589 56.9957
257.657 801.071 29.9046
262.521 804.156 1.34916
281.186 773.563 1.3675
276.244 770.607 29.9247
262.521 804.155 -1.82003
257.666 801.05 -30.3748
276.252 770.586 -30.3583
281.186 773.561 -1.80169
256.624 800.406 -33.3
242.836 791.651 -57.4406
261.206 761.545 -57.4274
275.21 769.942 -33.2835
240.916 790.471 -59.6779
220.347 777.528 -75.7996
238.414 747.924 -75.7908
259.286 760.365 -59.6647
217.846 776 -77.0156
193.681 760.888 -82.7348
211.407 731.847 -82.7305
235.912 746.396 -77.0069
190.975 759.241 -82.7444
166.776 744.147 -77.1385
184.169 715.658 -77.1318
208.701 730.2 -82.7401
164.272 742.625 -75.9331
143.741 729.829 -59.8043
160.855 701.807 -59.7919
181.665 714.136 -75.9264
141.821 728.663 -57.561
128.073 720.103 -33.3157
145.005 692.394 -33.299
158.935 700.641 -57.5486
127.033 719.472 -30.3772
122.212 716.488 -1.77453
139.081 688.888 -1.75675
143.965 691.763 -30.3605
140.922 685.797 1.42539
145.81 688.719 30.0058
162.082 660.629 30.0235
157.132 657.821 1.44248
146.862 689.329 32.9402
160.763 697.589 57.1362
177.216 669.177 57.1569
163.135 661.24 32.958
162.706 698.712 59.3769
183.511 711.051 75.5097
200.237 682.161 75.5348
179.16 670.301 59.3976
186.048 712.517 76.7152
210.581 727.059 82.3201
227.632 697.602 82.3472
202.774 683.626 76.7403
213.324 728.643 82.3099
237.834 743.182 76.5822
255.214 713.152 76.6064
230.375 699.186 82.3371
240.371 744.649 75.3654
261.252 757.07 59.236
278.919 726.538 59.257
257.751 714.619 75.3896
263.201 758.2 56.9981
277.215 766.576 32.8524
295.083 735.693 32.8713
280.869 727.668 57.0192
278.273 767.191 29.9268
283.215 770.147 1.36964
301.156 739.139 1.38719
296.142 736.309 29.9456
283.216 770.146 -1.79985
278.281 767.171 -30.3565
296.149 736.289 -30.3403
301.157 739.138 -1.7823
277.224 766.554 -33.2819
263.22 758.156 -57.4259
280.885 727.626 -57.4122
295.091 735.672 -33.2658
261.271 757.024 -59.6635
240.399 744.583 -75.7896
257.777 714.555 -75.7792
278.937 726.493 -59.6497
237.863 743.114 -77.006
213.358 728.565 -82.7297
230.406 699.111 -82.7226
255.24 713.086 -76.9957
210.615 726.981 -82.7394
186.083 712.44 -77.1311
202.806 683.551 -77.1223
227.664 697.526 -82.7324
183.545 710.975 -75.9254
162.735 698.646 -59.7908
179.187 670.237 -59.7778
200.268 682.087 -75.9166
160.79 697.524 -57.5471
146.86 689.276 -33.2974
163.131 661.188 -33.2812
177.241 669.114 -57.5341
145.806 688.669 -30.3586
140.922 685.795 -1.75489
157.131 657.819 -1.73779
162.077 660.581 -30.3424
158.899 654.686 1.44439
163.85 657.494 30.0254
179.456 629.038 30.0423
174.442 626.346 1.46075
164.916 658.08 32.9601
178.997 666.018 57.159
194.779 637.233 57.1778
180.522 629.623 32.9769
180.966 667.097 59.4
202.043 678.956 75.5373
218.089 649.681 75.5592
196.747 638.312 59.4188
204.613 680.363 76.743
229.471 694.338 82.35
245.832 664.485 82.3733
220.659 651.088 76.7649
232.249 695.858 82.3398
257.088 709.825 76.6091
273.766 679.389 76.6305
248.611 666.005 82.3631
259.658 711.231 75.392
280.827 723.151 59.2594
297.779 692.211 59.2785
276.336 680.796 75.4134
282.803 724.234 57.0214
297.017 732.259 32.8735
314.158 700.972 32.8912
299.755 693.294 57.0405
298.09 732.848 29.9477
303.105 735.678 1.38921
320.314 704.267 1.40601
315.231 701.561 29.9653
303.105 735.677 -1.78051
298.098 732.829 -30.3385
315.238 701.543 -30.3227
320.314 704.266 -1.76371
297.025 732.238 -33.2642
282.819 724.191 -57.4106
299.77 693.254 -57.3965
314.166 700.952 -33.2484
280.845 723.106 -59.6484
259.684 711.168 -75.7779
276.36 680.735 -75.7663
297.795 692.169 -59.6342
257.115 709.759 -76.9946
232.28 695.784 -82.7216
248.639 665.933 -82.7122
273.79 679.327 -76.983
229.502 694.263 -82.7314
204.644 680.288 -77.1214
220.688 651.016 -77.1108
245.861 664.413 -82.722
202.074 678.882 -75.9154
180.992 667.033 -59.7766
196.772 638.25 -59.7632
218.118 649.61 -75.9048
179.022 665.955 -57.5325
164.912 658.029 -33.2796
180.516 629.574 -33.2639
194.801 637.172 -57.5191
163.844 657.446 -30.3406
158.899 654.684 -1.73599
174.442 626.343 -1.71963
179.448 628.991 -30.3249
176.136 623.171 1.46256
181.149 625.863 30.0441
196.08 597.052 30.0599
191.007 594.478 1.47817
182.228 626.424 32.9788
196.485 634.033 57.1797
211.587 604.888 57.1967
197.159 597.613 32.9947
198.477 635.066 59.4209
219.82 646.435 75.5613
235.178 616.792 75.5803
213.58 605.921 59.438
222.421 647.782 76.7673
247.594 661.179 82.3756
263.255 630.948 82.3956
237.779 618.138 76.7863
250.407 662.634 82.3654
275.562 676.019 76.6328
291.527 645.198 76.6517
266.068 632.403 82.3854
278.165 677.365 75.4155
299.607 688.78 59.2807
315.834 657.451 59.2981
294.13 646.544 75.4345
301.608 689.816 57.0425
316.012 697.493 32.8932
332.417 665.818 32.9097
317.835 658.487 57.0599
317.099 698.056 29.9672
322.181 700.762 1.4079
338.649 668.963 1.42389
333.504 666.38 29.9838
322.181 700.761 -1.76197
317.105 698.038 -30.3209
333.51 666.363 -30.3056
338.65 668.962 -1.74598
316.019 697.473 -33.2468
301.623 689.775 -57.3949
317.848 658.448 -57.3806
332.423 665.798 -33.2314
299.623 688.738 -59.6328
278.188 677.304 -75.7649
294.151 646.486 -75.7523
315.848 657.41 -59.6185
275.586 675.956 -76.9818
250.435 662.563 -82.7109
266.094 632.334 -82.6997
291.549 645.138 -76.9693
247.622 661.107 -82.7208
222.45 647.71 -77.1096
237.806 618.07 -77.0977
263.281 630.879 -82.7096
219.848 646.364 -75.9035
198.502 635.004 -59.7618
213.602 605.862 -59.7482
235.204 616.724 -75.8915
196.507 633.972 -57.5175
182.222 626.374 -33.2623
197.151 597.565 -33.2472
211.607 604.83 -57.5039
181.141 625.816 -30.3232
176.135 623.168 -1.7179
191.006 594.476 -1.70229
196.071 597.007 -30.3081
192.624 591.265 1.47988
197.698 593.839 30.0616
211.949 564.689 30.0766
206.817 562.235 1.49474
198.79 594.374 32.9965
213.218 601.65 57.1985
227.633 572.16 57.2139
213.041 565.224 33.0114
215.234 602.636 59.4399
236.832 613.506 75.5822
251.493 583.51 75.5986
229.649 573.146 59.4552
239.464 614.792 76.7883
264.94 627.601 82.3976
279.891 597.009 82.4145
254.125 584.796 76.8046
267.785 628.991 82.3874
293.244 641.785 76.6537
308.486 610.596 76.6703
282.737 598.399 82.4043
295.878 643.07 75.4364
317.582 653.978 59.3
333.073 622.277 59.3158
311.119 611.881 75.453
319.606 654.966 57.0618
334.188 662.297 32.9116
349.849 630.248 32.927
335.097 623.265 57.0776
335.288 662.833 29.9855
340.434 665.416 1.42566
356.155 633.244 1.44081
350.949 630.785 30.001
340.434 665.415 -1.7443
335.295 662.816 -30.3039
350.954 630.768 -30.2891
356.155 633.243 -1.72915
334.195 662.277 -33.2298
319.62 654.927 -57.379
335.11 623.228 -57.3647
349.855 630.229 -33.215
317.596 653.937 -59.617
295.899 643.012 -75.7508
311.139 611.826 -75.7376
333.086 622.238 -59.6028
293.266 641.726 -76.9679
267.811 628.923 -82.6983
282.76 598.333 -82.6856
308.506 610.54 -76.9546
264.965 627.533 -82.7082
239.49 614.724 -77.0964
254.148 584.731 -77.0833
279.914 596.944 -82.6955
236.857 613.438 -75.8901
215.255 602.576 -59.7467
229.668 573.089 -59.733
251.516 583.445 -75.8771
213.238 601.591 -57.5023
198.782 594.327 -33.2456
213.031 565.178 -33.231
227.651 572.104 -57.4885
197.689 593.794 -30.3064
192.624 591.263 -1.70063
206.816 562.232 -1.68577
211.938 564.645 -30.2918
208.359 558.984 1.49635
213.491 561.438 30.0782
227.054 531.963 30.0921
221.866 529.63 1.51043
214.595 561.948 33.013
229.187 568.884 57.2155
242.908 539.065 57.2293
228.158 532.472 33.027
231.225 569.823 59.4569
253.069 580.187 75.6002
267.025 549.855 75.6142
244.946 540.004 59.4707
255.731 581.411 76.8063
281.497 593.624 82.4162
295.73 562.689 82.4304
269.686 551.08 76.8203
284.374 594.947 82.406
310.123 607.145 76.6721
324.633 575.606 76.6865
298.607 564.012 82.4202
312.786 608.368 75.4547
334.739 618.763 59.3175
349.486 586.708 59.3318
327.295 576.829 75.4691
336.786 619.703 57.0793
351.538 626.687 32.9286
366.445 594.281 32.943
351.533 587.648 57.0936
352.65 627.197 30.0026
357.856 629.657 1.44246
372.82 597.127 1.45683
367.558 594.792 30.017
357.856 629.656 -1.72753
352.656 627.18 -30.2874
367.563 594.776 -30.2731
372.821 597.126 -1.71317
351.544 626.668 -33.2134
336.799 619.667 -57.3631
351.544 587.613 -57.349
366.451 594.263 -33.1991
334.752 618.725 -59.6012
312.805 608.313 -75.7361
327.312 576.777 -75.7222
349.498 586.671 -59.587
310.143 607.088 -76.9532
284.397 594.882 -82.6842
298.627 563.95 -82.6702
324.65 575.553 -76.9393
281.52 593.559 -82.6941
255.754 581.346 -77.0818
269.707 551.018 -77.0679
295.75 562.627 -82.6802
253.092 580.122 -75.8756
231.245 569.766 -59.7314
244.964 539.949 -59.7176
267.046 549.794 -75.8617
229.205 568.828 -57.487
214.585 561.902 -33.2295
228.146 532.428 -33.2155
242.924 539.012 -57.4731
213.48 561.395 -30.2902
208.358 558.982 -1.68417
221.865 529.628 -1.67009
227.042 531.921 -30.2762
223.331 526.344 1.51194
228.519 528.677 30.0936
241.389 498.89 30.1066
236.147 496.679 1.52521
229.635 529.161 33.0284
244.385 535.753 57.2308
257.404 505.62 57.243
242.504 499.373 33.0414
246.444 536.644 59.4721
268.523 546.496 75.6156
281.766 515.845 75.6272
259.464 506.51 59.4843
271.212 547.658 76.8217
297.256 559.267 82.4318
310.761 528.007 82.4434
284.455 517.007 76.8333
300.163 560.522 82.4217
326.189 572.117 76.6879
339.957 540.248 76.7003
313.669 529.262 82.4332
328.879 573.278 75.4706
351.07 583.157 59.3333
365.064 550.765 59.3463
342.648 541.408 75.4829
353.138 584.048 57.0951
368.051 590.681 32.9446
382.198 557.936 32.9579
367.133 551.657 57.1081
369.175 591.165 30.0185
374.438 593.501 1.45837
388.639 560.63 1.47196
383.322 558.42 30.0319
374.438 593.5 -1.71161
369.18 591.149 -30.2716
383.327 558.405 -30.2578
388.639 560.629 -1.69803
368.056 590.664 -33.1976
353.149 584.013 -57.3474
367.142 551.624 -57.3334
382.203 557.919 -33.1838
351.081 583.12 -59.5855
328.896 573.226 -75.7206
342.663 541.359 -75.7062
365.074 550.73 -59.5715
326.206 572.064 -76.9377
300.183 560.461 -82.6687
313.687 529.204 -82.6537
339.973 540.197 -76.9233
297.276 559.206 -82.6786
271.233 547.596 -77.0663
284.474 516.948 -77.0517
310.78 527.948 -82.6636
268.544 546.435 -75.8601
246.462 536.59 -59.716
259.479 506.459 -59.7022
281.785 515.787 -75.8454
244.401 535.7 -57.4716
229.623 529.117 -33.2139
242.491 499.331 -33.2006
257.418 505.569 -57.4578
228.507 528.635 -30.2747
223.331 526.342 -1.66857
236.146 496.677 -1.6553
241.375 498.85 -30.2613
237.535 493.36 1.52661
242.777 495.57 30.108
254.946 465.486 30.1199
249.653 463.4 1.539
243.903 496.028 33.0427
258.803 502.274 57.2443
271.115 471.841 57.2549
256.072 465.944 33.0546
260.883 503.117 59.4855
283.186 512.451 75.6284
295.709 481.497 75.6376
273.195 472.684 59.4961
285.901 513.55 76.8344
312.207 524.55 82.4446
324.979 492.982 82.4535
298.424 482.596 76.8437
315.143 525.737 82.4344
341.432 536.723 76.7014
354.451 504.54 76.7116
327.914 494.169 82.4434
344.148 537.82 75.4842
366.564 547.177 59.3476
379.798 514.468 59.3592
357.168 505.638 75.4944
368.654 548.02 57.1095
383.719 554.299 32.9593
397.098 521.231 32.9717
381.888 515.31 57.1211
384.854 554.757 30.0333
390.171 556.967 1.4734
403.602 523.771 1.48625
398.234 521.688 30.0458
390.171 556.966 -1.69654
384.859 554.741 -30.2564
398.238 521.674 -30.2432
403.602 523.771 -1.68369
383.724 554.282 -33.1823
368.663 547.987 -57.3319
381.896 515.279 -57.3182
397.103 521.215 -33.1691
366.575 547.143 -59.5699
344.163 537.771 -75.7046
357.181 505.592 -75.6897
379.808 514.435 -59.5562
341.447 536.673 -76.9216
315.161 525.68 -82.6521
327.93 494.115 -82.6361
354.465 504.493 -76.9067
312.225 524.492 -82.6619
285.919 513.492 -77.05
298.44 482.541 -77.0346
324.994 492.927 -82.646
283.204 512.393 -75.8438
260.898 503.066 -59.7006
273.208 472.635 -59.6869
295.725 481.442 -75.8285
258.817 502.224 -57.4563
243.89 495.986 -33.1991
256.057 465.904 -33.1863
271.127 471.794 -57.4425
242.763 495.531 -30.2598
237.534 493.358 -1.65386
249.652 463.398 -1.64147
254.93 465.449 -30.2471
250.963 460.048 1.54029
256.256 462.135 30.1212
267.718 431.769 30.132
262.377 429.806 1.55182
257.393 462.566 33.0558
272.435 468.463 57.2561
284.032 437.747 57.265
268.855 432.2 33.0666
274.534 469.258 59.4971
297.048 478.071 75.6386
308.845 446.831 75.6451
286.131 438.541 59.506
299.789 479.106 76.8445
326.343 489.492 82.4543
338.373 457.635 82.4601
311.585 447.867 76.8511
329.306 490.611 82.4443
355.843 500.982 76.7125
368.107 468.506 76.7202
341.335 458.754 82.4501
358.584 502.016 75.4955
381.215 510.846 59.3603
393.681 477.836 59.3702
370.848 469.54 75.5032
383.323 511.639 57.1223
398.534 517.56 32.973
411.139 484.185 32.9842
395.79 478.629 57.1322
399.68 517.99 30.0471
405.048 520.073 1.48757
417.703 486.568 1.49944
412.285 484.615 30.0583
405.048 520.072 -1.68227
399.684 517.975 -30.2418
412.289 484.601 -30.2293
417.703 486.568 -1.6704
398.538 517.544 -33.1676
383.332 511.608 -57.3167
395.798 478.601 -57.3031
411.143 484.17 -33.1551
381.224 510.813 -59.5546
358.597 501.97 -75.6881
370.86 469.497 -75.6724
393.69 477.806 -59.541
355.856 500.935 -76.9049
329.321 490.557 -82.6344
341.349 458.704 -82.6171
368.119 468.462 -76.8893
326.359 489.438 -82.6442
299.805 479.052 -77.0328
311.599 447.816 -77.0165
338.387 457.584 -82.627
297.064 478.016 -75.8268
274.547 469.209 -59.6852
286.143 438.496 -59.6715
308.859 446.78 -75.8105
272.447 468.416 -57.4411
257.378 462.526 -33.1849
268.839 432.163 -33.1728
284.042 437.703 -57.4273
256.24 462.097 -30.2458
250.962 460.046 -1.64011
262.376 429.804 -1.62858
267.701 431.734 -30.2337
263.608 426.424 1.553
268.949 428.387 30.1332
279.699 397.753 30.143
274.313 395.914 1.56365
270.096 428.792 33.0676
285.274 434.339 57.2659
296.15 403.355 57.2729
280.846 398.158 33.0774
287.391 435.084 59.5067
310.104 443.374 75.6458
321.167 411.866 75.6493
298.267 404.1 59.5137
312.867 444.346 76.8516
339.655 454.115 82.4606
350.937 421.988 82.4629
323.931 412.839 76.855
342.643 455.165 82.4507
369.415 464.917 76.7208
380.916 432.167 76.7258
353.925 423.038 82.453
372.18 465.886 75.504
395.013 474.183 59.3711
406.706 440.892 59.3792
383.681 433.136 75.509
397.14 474.926 57.1333
412.489 480.481 32.9852
424.314 446.818 32.9951
408.833 441.635 57.1414
413.645 480.883 30.0595
419.062 482.837 1.50063
430.934 449.04 1.51161
425.47 447.22 30.0694
419.063 482.836 -1.66905
413.649 480.87 -30.2279
425.474 447.207 -30.216
430.935 449.039 -1.65807
412.493 480.466 -33.1536
397.147 474.897 -57.3016
408.84 441.608 -57.288
424.318 446.803 -33.1417
395.021 474.152 -59.5393
372.191 465.844 -75.6708
383.691 433.097 -75.6542
406.713 440.864 -59.5257
369.426 464.873 -76.8874
342.657 455.115 -82.6152
353.937 422.991 -82.5961
380.926 432.126 -76.8708
339.669 454.064 -82.625
312.881 444.296 -77.0146
323.943 412.792 -76.9969
350.949 421.941 -82.6059
310.118 443.324 -75.8088
287.402 435.039 -59.6697
298.277 404.059 -59.6558
321.179 411.82 -75.7911
285.284 434.295 -57.4259
270.08 428.754 -33.1714
280.828 398.123 -33.16
296.159 403.314 -57.4119
268.932 428.352 -30.2324
263.607 426.422 -1.6273
274.312 395.912 -1.61664
279.681 397.72 -30.2211
275.465 392.503 1.56471
280.851 394.342 30.144
290.883 363.454 30.1527
285.454 361.739 1.57444
282.008 394.72 33.0782
297.312 399.917 57.2737
307.462 368.681 57.2786
292.039 363.833 33.0868
299.445 400.614 59.5141
322.345 408.38 75.6497
332.67 376.622 75.6497
309.596 369.378 59.519
325.131 409.289 76.8551
352.137 418.438 82.463
362.664 386.061 82.4613
335.455 377.531 76.8551
355.148 419.419 82.4532
382.139 428.548 76.726
392.872 395.545 76.7281
365.675 387.042 82.4515
384.927 429.453 75.5096
407.951 437.209 59.3798
418.864 403.657 59.386
395.659 396.45 75.5117
410.096 437.901 57.1422
425.577 443.083 32.996
436.616 409.147 33.0048
421.009 404.349 57.1484
426.743 443.457 30.0705
432.207 445.277 1.51267
443.292 411.203 1.52294
437.782 409.521 30.0793
432.207 445.276 -1.65677
426.746 443.444 -30.2147
437.786 409.509 -30.2031
443.292 411.202 -1.64651
425.581 443.069 -33.1402
410.103 437.874 -57.2864
421.015 404.324 -57.2724
436.62 409.134 -33.1285
407.958 437.181 -59.5239
384.937 429.414 -75.6524
395.668 396.413 -75.6345
418.871 403.631 -59.5099
382.15 428.508 -76.8687
355.16 419.373 -82.5941
365.686 387 -82.5727
392.881 395.508 -76.8508
352.149 418.392 -82.6038
325.143 409.243 -76.9948
335.466 377.488 -76.9753
362.674 386.018 -82.5824
322.357 408.334 -75.7893
299.455 400.573 -59.6539
309.604 369.34 -59.6397
332.68 376.579 -75.7699
297.32 399.877 -57.4105
281.989 394.686 -33.1586
292.02 363.801 -33.1479
307.469 368.644 -57.3962
280.833 394.309 -30.2199
275.464 392.501 -1.61545
285.453 361.737 -1.60572
290.863 363.424 -30.2092
286.526 358.3 1.57537
291.955 360.016 30.1536
301.264 328.887 30.1611
295.794 327.294 1.58418
293.12 360.368 33.0874
308.543 365.216 57.2792
317.963 333.743 57.2818
302.429 329.24 33.0948
310.693 365.865 59.519
333.766 373.109 75.6497
343.347 341.118 75.6457
320.112 334.392 59.5215
336.572 373.955 76.8548
363.781 382.485 82.461
373.548 349.878 82.4545
346.152 341.964 76.8507
366.814 383.397 82.4513
394.01 391.9 76.7279
403.968 358.665 76.7265
376.581 350.79 82.4448
396.818 392.739 75.5119
420.024 399.946 59.3862
430.152 366.153 59.3901
406.776 359.505 75.5105
422.185 400.586 57.149
437.792 405.384 33.0054
448.041 371.193 33.0129
432.313 366.793 57.1529
438.967 405.728 30.0802
444.477 407.41 1.52387
454.77 373.073 1.53329
449.216 371.537 30.0877
444.477 407.409 -1.64526
438.971 405.716 -30.2018
449.219 371.525 -30.1906
454.77 373.073 -1.63584
437.796 405.371 -33.127
422.191 400.561 -57.2709
432.319 366.77 -57.2563
448.044 371.18 -33.1157
420.03 399.92 -59.508
396.827 392.703 -75.6326
406.784 359.471 -75.6129
430.158 366.129 -59.4934
394.019 391.863 -76.8485
366.824 383.355 -82.5704
376.59 350.752 -82.546
403.976 358.631 -76.8288
363.791 382.443 -82.5799
336.582 373.912 -76.9729
346.161 341.925 -76.9512
373.557 349.84 -82.5555
333.777 373.067 -75.7679
310.701 365.828 -59.6376
320.119 334.357 -59.6228
343.356 341.08 -75.7462
308.55 365.179 -57.3948
293.101 360.337 -33.1464
302.408 329.211 -33.1364
317.968 333.709 -57.3799
291.935 359.986 -30.2081
286.525 358.299 -1.6046
295.793 327.293 -1.59579
301.243 328.86 -30.198
296.786 323.83 1.58499
302.255 325.423 30.1619
310.836 294.066 30.1681
305.328 292.593 1.59284
303.428 325.749 33.0952
318.962 330.252 57.2821
327.646 298.556 57.282
312.009 294.393 33.1014
321.126 330.854 59.5212
344.361 337.58 75.6453
353.193 305.374 75.6364
329.81 299.157 59.5211
347.185 338.363 76.8498
374.581 346.278 82.4536
383.583 313.463 82.4413
356.017 306.157 76.8409
377.634 347.12 82.4441
405.021 354.996 76.7258
414.199 321.554 76.7202
386.636 314.306 82.4319
407.848 355.769 75.5104
431.224 362.417 59.39
440.562 328.404 59.391
417.026 322.327 75.5048
433.401 363.003 57.1533
449.129 367.403 33.0132
458.583 332.971 33.0193
442.739 328.989 57.1543
450.313 367.716 30.0885
455.867 369.253 1.53407
465.364 334.668 1.54265
459.768 333.285 30.0945
455.867 369.252 -1.63462
450.317 367.704 -30.1893
459.771 333.273 -30.1784
465.364 334.667 -1.62604
449.133 367.39 -33.1141
433.407 362.98 -57.2546
442.745 328.968 -57.2389
458.587 332.959 -33.1031
431.23 362.393 -59.4914
407.856 355.736 -75.6109
417.033 322.297 -75.5888
440.568 328.382 -59.4756
405.029 354.962 -76.8262
377.643 347.082 -82.5433
386.644 314.272 -82.515
414.206 321.523 -76.8041
374.59 346.239 -82.5527
347.194 338.325 -76.9484
356.025 306.123 -76.9238
383.591 313.429 -82.5244
344.37 337.542 -75.744
321.133 330.82 -59.6206
329.816 299.127 -59.605
353.201 305.34 -75.7193
318.968 330.219 -57.3785
303.408 325.721 -33.1349
311.987 294.367 -33.1255
327.651 298.527 -57.3628
302.234 325.396 -30.197
296.784 323.828 -1.59475
305.327 292.592 -1.5869
310.814 294.042 -30.1876
306.239 289.104 1.59351
311.747 290.576 30.1688
319.595 259.002 30.1736
314.053 257.647 1.60038
312.927 290.878 33.1015
328.565 295.041 57.2821
336.509 263.136 57.2791
320.776 259.303 33.1064
330.742 295.596 59.5202
354.125 301.813 75.6355
362.204 269.41 75.6213
338.686 263.691 59.5172
356.965 302.534 76.8394
384.532 309.84 82.4398
392.765 276.841 82.421
365.045 270.132 76.8251
387.603 310.615 82.4306
415.166 317.862 76.7189
423.559 284.239 76.7087
395.837 277.616 82.4118
418.011 318.568 75.5042
441.547 324.646 59.3904
450.091 290.432 59.388
426.405 284.945 75.494
443.739 325.175 57.1543
459.583 329.157 33.0193
468.24 294.5 33.0237
452.283 290.962 57.1519
460.776 329.437 30.0952
466.373 330.82 1.54328
475.071 295.999 1.551
469.433 294.78 30.0997
466.373 330.82 -1.62486
460.78 329.426 -30.1772
469.436 294.769 -30.1664
475.071 295.998 -1.61714
459.587 329.145 -33.1013
443.745 325.154 -57.2371
452.289 290.942 -57.2197
468.244 294.488 -33.0905
441.553 324.624 -59.4733
418.018 318.539 -75.5865
426.412 284.918 -75.5615
450.097 290.412 -59.4558
415.173 317.832 -76.8011
387.611 310.581 -82.512
395.844 277.586 -82.479
423.566 284.211 -76.7762
384.54 309.806 -82.5212
356.973 302.5 -76.9206
365.052 270.103 -76.8923
392.773 276.811 -82.4882
354.132 301.779 -75.7168
330.747 295.566 -59.6025
338.691 263.665 -59.5857
362.211 269.381 -75.6886
328.569 295.012 -57.3613
312.906 290.853 -33.124
320.754 259.281 -33.1152
336.513 263.111 -57.3446
311.725 290.553 -30.1866
306.238 289.103 -1.58593
314.051 257.646 -1.57907
319.573 258.982 -30.1778
314.882 254.133 1.60091
320.425 255.489 30.1742
327.538 223.705 30.1777
321.963 222.464 1.60675
321.612 255.765 33.1062
337.345 259.598 57.2789
344.547 227.496 57.2728
328.726 223.982 33.1097
339.535 260.107 59.5158
363.052 265.827 75.6199
370.376 233.247 75.6
346.737 228.005 59.5097
365.908 266.489 76.8228
393.629 273.198 82.4188
401.089 240.041 82.393
373.232 233.909 76.8029
396.717 273.906 82.4099
424.44 280.529 76.7067
432.046 246.753 76.6912
404.178 240.748 82.3841
427.302 281.167 75.4928
450.989 286.654 59.3869
458.735 252.262 59.3805
434.908 247.391 75.4773
453.195 287.125 57.1515
469.151 290.662 33.0234
477.007 255.792 33.0264
460.942 252.732 57.1451
470.352 290.908 30.1001
475.991 292.127 1.55147
483.887 257.08 1.55839
478.208 256.038 30.1031
475.991 292.126 -1.61599
470.356 290.897 -30.1652
478.212 256.028 -30.1545
483.887 257.079 -1.60906
469.155 290.651 -33.0886
453.2 287.106 -57.2177
460.947 252.715 -57.198
477.011 255.782 -33.0779
450.994 286.634 -59.4532
427.309 281.14 -75.5589
434.916 247.367 -75.5305
458.741 252.244 -59.4334
424.447 280.502 -76.7728
396.725 273.876 -82.4755
404.186 240.722 -82.4374
432.053 246.728 -76.7444
393.636 273.168 -82.4844
365.916 266.46 -76.8886
373.239 233.884 -76.8566
401.097 240.014 -82.4463
363.059 265.799 -75.6858
339.54 260.082 -59.583
346.741 227.985 -59.5651
370.383 233.223 -75.6538
337.349 259.573 -57.343
321.59 255.744 -33.1136
328.703 223.965 -33.1054
344.55 227.476 -57.3251
320.402 255.468 -30.1769
314.881 254.132 -1.57818
321.961 222.463 -1.57234
327.515 223.689 -30.1687
322.71 218.928 1.60712
328.286 220.169 30.178
334.665 188.185 30.1798
329.059 187.053 1.61192
329.48 220.422 33.1093
345.301 223.936 57.2723
351.76 191.649 57.2632
335.858 188.438 33.111
347.502 224.402 59.5078
371.141 229.644 75.5981
377.707 196.904 75.5731
353.96 192.115 59.4987
374.011 230.248 76.8
401.868 236.38 82.3901
408.553 203.091 82.3579
380.577 197.508 76.775
404.971 237.022 82.3815
432.839 243.027 76.6886
439.653 209.132 76.6665
411.657 203.733 82.3493
435.717 243.596 75.4755
459.544 248.467 59.3787
466.49 213.915 59.3674
442.531 209.701 75.4534
461.764 248.874 57.1443
477.829 251.934 33.0256
484.879 216.862 33.0267
468.709 214.323 57.1331
479.038 252.142 30.1034
484.717 253.184 1.5587
491.804 217.92 1.56477
486.088 217.069 30.1046
484.717 253.184 -1.60794
479.042 252.132 -30.1534
486.093 217.061 -30.1427
491.805 217.92 -1.60187
477.834 251.924 -33.0757
461.77 248.857 -57.1958
468.716 214.308 -57.1731
484.884 216.852 -33.065
459.55 248.45 -59.4303
435.725 243.572 -75.5274
442.54 209.68 -75.4943
466.497 213.9 -59.4076
432.846 243.003 -76.7405
404.979 236.997 -82.4335
411.665 203.711 -82.3908
439.661 209.111 -76.7075
401.876 236.354 -82.4421
374.018 230.224 -76.8524
380.585 197.489 -76.8173
408.562 203.069 -82.3995
371.148 229.62 -75.6507
347.506 224.382 -59.562
353.965 192.1 -59.5428
377.715 196.885 -75.6155
345.305 223.917 -57.3234
329.457 220.405 -33.1037
335.835 188.426 -33.0957
351.763 191.635 -57.3043
328.263 220.153 -30.1679
322.709 218.927 -1.57151
329.058 187.052 -1.56671
334.641 188.174 -30.1599
329.726 183.494 1.61206
335.331 184.626 30.18
340.985 152.447 30.1774
335.355 151.419 1.61589
336.531 184.857 33.1101
352.432 188.068 57.2623
358.152 155.605 57.2474
342.184 152.678 33.1075
354.641 188.493 59.4962
378.389 193.282 75.5707
384.198 160.401 75.5406
360.361 156.03 59.4814
381.27 193.833 76.7715
409.246 199.416 82.3543
415.153 166.025 82.318
387.079 160.952 76.7415
412.362 199.996 82.3459
440.358 205.395 76.6631
446.369 171.42 76.6307
418.269 166.605 82.3097
443.251 205.892 75.4506
467.21 210.107 59.3646
473.346 175.412 59.3455
449.262 171.918 75.4182
469.442 210.445 57.1317
485.612 212.984 33.0254
491.84 177.716 33.0234
475.578 175.751 57.1125
486.827 213.15 30.1047
492.544 214.001 1.56488
498.804 178.526 1.56978
493.056 177.882 30.1027
492.544 214.001 -1.60077
486.832 213.142 -30.1416
493.062 177.876 -30.1302
498.805 178.526 -1.59587
485.617 212.975 -33.0625
469.449 210.431 -57.1706
475.587 175.739 -57.1424
491.847 177.709 -33.051
467.217 210.092 -59.4037
443.26 205.872 -75.4905
449.272 171.9 -75.4494
473.355 175.399 -59.3756
440.367 205.374 -76.7031
412.371 199.974 -82.3864
418.28 166.586 -82.3416
446.379 171.402 -76.662
409.255 199.394 -82.3949
381.278 193.814 -76.8127
387.089 160.938 -76.774
415.164 166.007 -82.35
378.397 193.264 -75.612
354.647 188.479 -59.5393
360.368 156.023 -59.5159
384.208 160.388 -75.5734
352.436 188.054 -57.3024
336.508 184.846 -33.0938
342.162 152.673 -33.0831
358.157 155.598 -57.2789
335.308 184.615 -30.1591
329.724 183.493 -1.56585
335.353 151.419 -1.56203
340.963 152.443 -30.1484
335.945 147.84 1.61521
341.575 148.868 30.1767
346.569 116.51 30.1513
340.928 115.582 1.61819
342.778 149.078 33.1047
358.746 152.005 57.2445
363.77 119.384 57.1939
347.772 116.72 33.0793
360.961 152.393 59.4764
384.798 156.764 75.5357
389.866 123.766 75.4664
365.986 119.772 59.4258
387.686 157.265 76.7355
415.76 162.339 82.3121
420.878 128.883 82.239
392.754 124.267 76.6662
418.885 162.86 82.3036
446.985 167.675 76.6246
452.156 133.668 76.5443
424.003 129.405 82.2305
449.89 168.099 75.4127
473.974 171.593 59.34
479.231 136.763 59.2985
455.061 134.092 75.3324
476.215 171.855 57.1097
492.477 173.82 33.0206
497.786 138.351 33.003
481.472 137.025 57.0681
493.698 173.941 30.1022
499.446 174.585 1.56928
504.766 138.891 1.57219
499.007 138.471 30.0847
499.447 174.584 -1.59451
493.704 173.934 -30.1288
499.015 138.468 -30.1054
504.767 138.89 -1.5916
492.484 173.813 -33.0473
476.224 171.843 -57.1388
481.485 137.016 -57.0915
497.795 138.347 -33.024
473.983 171.58 -59.3693
449.901 168.081 -75.4431
455.076 134.076 -75.356
479.244 136.753 -59.322
446.996 167.657 -76.6551
418.896 162.842 -82.3346
424.019 129.389 -82.2541
452.171 133.652 -76.568
415.772 162.321 -82.3432
387.697 157.252 -76.7672
392.769 124.259 -76.6901
420.894 128.868 -82.2626
384.808 156.751 -75.5675
360.969 152.386 -59.51
365.998 119.775 -59.451
389.881 123.758 -75.4905
358.752 151.999 -57.2751
342.757 149.074 -33.0794
347.754 116.725 -33.0469
363.781 119.387 -57.2161
341.554 148.864 -30.1469
335.944 147.84 -1.56052
340.927 115.582 -1.55754
346.551 116.516 -30.1144
341.469 111.989 1.61256
347.109 112.917 30.1457
351.835 80.4632 29.9681
346.236 79.6324 1.61384
348.309 113.107 33.0632
364.308 115.772 57.1778
368.93 83.0685 56.8645
353.035 80.6534 32.8856
366.518 116.125 59.4026
390.398 120.119 75.4433
394.876 87.0663 75.0563
371.14 83.4223 59.0893
393.28 120.577 76.6401
421.404 125.192 82.213
425.718 91.7333 81.8091
397.758 87.5241 76.2532
424.524 125.659 82.2051
452.677 129.922 76.5189
456.838 95.8921 76.1597
428.838 92.1999 81.8013
455.579 130.265 75.3123
479.749 132.936 59.2784
483.791 97.9154 59.0694
459.74 96.2343 74.9531
481.987 133.109 57.0567
498.301 134.435 32.9915
502.216 98.7135 32.8628
486.028 98.0884 56.8477
499.518 134.505 30.0803
505.277 134.924 1.56781
509.137 98.9588 1.55871
503.433 98.7835 29.9515
505.278 134.924 -1.58763
499.526 134.502 -30.1015
503.438 98.783 -29.9812
509.137 98.9588 -1.59672
498.31 134.432 -33.0121
482 133.101 -57.0795
486.052 98.0838 -56.8554
502.222 98.7129 -32.8918
479.764 132.926 -59.3007
455.595 130.249 -75.3348
459.765 96.2205 -74.9617
483.815 97.9097 -59.0766
452.693 129.906 -76.5415
424.54 125.644 -82.2276
428.862 92.1883 -81.8131
456.862 95.878 -76.1685
421.42 125.178 -82.2356
393.296 120.568 -76.6631
397.781 87.5208 -76.2676
425.743 91.7222 -81.8211
390.414 120.112 -75.4664
366.531 116.129 -59.4269
371.161 83.4361 -59.1028
394.899 87.0642 -75.0709
364.319 115.776 -57.1991
348.292 113.114 -33.0299
353.026 80.6729 -32.8463
368.949 83.0834 -56.875
347.091 112.923 -30.1081
341.468 111.989 -1.55128
346.236 79.6331 -1.55
351.826 80.4821 -29.9245
346.9 76.08 1.5731
352.499 76.9108 29.9273
359.647 45.0429 28.6486
354.313 44.2892 1.57141
353.666 77.0831 32.7714
369.561 79.4982 56.7503
375.957 47.4121 54.4179
360.814 45.2152 31.4926
371.713 79.8194 58.9228
395.449 83.4634 74.8898
400.747 51.0272 71.9045
378.109 47.7333 56.5904
398.258 83.8786 76.062
426.218 88.0879 81.618
430.262 55.2315 78.4603
403.555 51.4424 73.0767
429.257 88.507 81.6157
457.257 92.1992 75.9742
460.061 59.057 73.1148
433.301 55.6506 78.458
460.073 92.4995 74.8062
484.124 94.1806 58.9225
485.668 61.3856 56.6439
462.877 59.3573 71.9469
486.301 94.327 56.7513
502.489 94.952 32.7663
503.098 62.4721 31.464
487.845 61.5319 54.4726
503.672 95.0081 29.916
509.376 95.1833 1.5232
509.629 62.7943 1.51173
504.281 62.5281 28.6137
509.376 95.1827 -1.56324
503.677 95.0069 -29.9477
504.276 62.5018 -28.6563
509.629 62.7937 -1.57471
502.495 94.9504 -32.795
486.325 94.3213 -56.7586
487.872 61.5068 -54.4652
503.094 62.4453 -31.5036
484.149 94.1746 -58.9281
460.099 92.4854 -74.8132
462.907 59.3443 -71.943
485.696 61.3601 -56.6346
457.282 92.1854 -75.9817
429.282 88.4957 -81.6263
433.33 55.6431 -78.4611
460.09 59.0443 -73.1115
426.243 88.0773 -81.6291
398.281 83.8758 -76.0756
403.582 51.4453 -73.086
430.291 55.2246 -78.4639
395.472 83.4623 -74.9037
371.735 79.8342 -58.9357
378.129 47.762 -56.6039
400.773 51.0317 -71.9141
369.58 79.5144 -56.7605
353.658 77.1039 -32.7318
360.801 45.2487 -31.4566
375.975 47.4422 -54.4287
352.49 76.9304 -29.8837
346.9 76.0814 -1.50919
354.312 44.2905 -1.51088
359.633 45.0752 -28.6085
355.169 40.7892 1.48851
360.503 41.543 28.5657
368.51 10.217 26.858
363.501 9.54201 1.48226
361.607 41.6987 31.258
376.75 43.8957 54.1833
383.833 12.3504 51.0291
369.614 10.3728 29.5504
378.787 44.1853 56.2413
401.425 47.4792 71.5553
407.121 15.5842 67.4148
385.87 12.64 53.087
404.083 47.8524 72.6673
430.79 51.6414 78.0509
434.829 19.3513 73.5421
409.78 15.9574 68.5268
433.667 52.023 78.0508
460.426 55.4293 72.7076
462.76 22.8708 68.501
437.706 19.7328 73.5419
463.087 55.7278 71.5975
485.878 57.7561 56.2945
486.703 25.3414 53.0455
465.421 23.1692 67.3909
487.923 57.9315 54.2341
503.175 58.8717 31.2255
502.946 26.6672 29.4592
488.747 25.5169 50.9851
504.282 58.9465 28.5286
509.63 59.2127 1.42655
509.016 27.0721 1.43546
504.053 26.7421 26.7622
509.63 59.2106 -1.48959
504.277 58.9188 -28.5712
504.046 26.6918 -26.7911
509.015 27.07 -1.48068
503.171 58.8419 -31.2645
487.948 57.9034 -54.2262
488.765 25.4714 -50.9765
502.94 26.615 -29.4844
485.906 57.7296 -56.2846
463.117 55.7138 -71.5929
465.444 23.1553 -67.3881
486.722 25.2976 -53.0349
460.456 55.4168 -72.7038
433.696 52.0156 -78.0534
437.729 19.7269 -73.544
462.783 22.8583 -68.499
430.819 51.6349 -78.0541
404.11 47.8556 -72.6762
409.799 15.9627 -68.5329
434.852 19.3462 -73.5447
401.451 47.4846 -71.5647
378.806 44.2149 -56.2545
385.88 12.6801 -53.0984
407.14 15.5917 -67.4214
376.768 43.9272 -54.1944
361.594 41.7338 -31.2223
369.598 10.4201 -29.5238
383.841 12.3925 -51.0384
360.489 41.5761 -28.5264
355.168 40.7914 -1.42878
363.5 9.54412 -1.43502
368.493 10.2624 -26.8279
364.554 6.26969 1.35308
369.563 6.94468 26.7288
380.235 -21.0027 23.7835
375.812 -21.6243 1.33174
370.572 7.08418 29.187
384.79 9.06176 50.6657
393.843 -19.1041 45.272
381.244 -20.8632 26.2416
386.654 9.31786 52.5446
407.906 12.2621 66.8723
414.589 -16.3177 59.8216
395.707 -18.848 47.1509
410.338 12.5909 67.8846
435.388 15.9848 72.8999
439.258 -13.0385 65.2257
417.022 -15.9889 60.8339
438.015 16.3299 72.8958
463.069 19.4678 67.8549
464.07 -9.7616 60.697
441.885 -12.6934 65.2216
465.493 19.7658 66.8399
486.775 21.938 52.4945
485.257 -6.98836 46.9619
466.494 -9.46362 59.682
488.634 22.1461 50.6184
502.832 23.2965 29.0924
499.63 -5.13075 26.1209
487.116 -6.78019 45.0858
503.84 23.3999 26.6358
508.803 23.7299 1.30909
505.027 -4.44887 1.32954
500.638 -5.02729 23.6643
508.803 23.7284 -1.35078
503.834 23.3503 -26.6612
500.637 -5.02901 -23.6651
505.027 -4.45043 -1.33033
502.826 23.2452 -29.1169
488.651 22.1016 -50.6089
487.116 -6.78371 -45.086
499.629 -5.13405 -26.1208
486.792 21.8951 -52.4846
465.514 19.7527 -66.8378
466.494 -9.46561 -59.6818
485.257 -6.99028 -46.9616
463.09 19.4558 -67.8529
438.036 16.3244 -72.8979
441.886 -12.6943 -65.2215
464.071 -9.76253 -60.6969
435.409 15.9798 -72.9022
410.356 12.5963 -67.8904
417.023 -15.9892 -60.834
439.259 -13.0389 -65.2258
407.923 12.2687 -66.8781
386.663 9.35713 -52.5551
395.707 -18.8469 -47.1511
414.59 -16.3168 -59.8217
384.798 9.10273 -50.6756
370.555 7.13037 -29.161
381.243 -20.8604 -26.2412
393.842 -19.1013 -45.2715
369.547 6.98943 -26.7018
364.553 6.27113 -1.30899
375.812 -21.6228 -1.33033
380.234 -21.0013 -23.7821
-84.0157 1013.57 25.327
-87.8934 1010.21 -0.448387
-83.9338 1013.49 -26.2203
-72.7805 1022.93 -48.0434
-56.117 1037.05 -62.5781
-36.5507 1053.73 -67.632
-17.1781 1070.6 -62.5137
-0.970633 1085.26 -48.0259
9.74931 1095.33 -26.2621
13.5165 1098.88 -0.48141
9.74706 1095.34 25.2989
-0.984712 1085.29 47.0669
-17.2126 1070.67 61.568
-36.5978 1053.82 66.699
-56.1714 1037.14 61.6575
-72.8682 1023.04 47.1451
382.635 -22.3855 1.31945e-05
387.058 -21.764 22.4517
399.656 -20.0048 41.4821
418.539 -17.4746 54.1528
440.776 -14.5241 58.5446
462.96 -11.5923 54.02
481.723 -9.11705 41.3
494.237 -7.4676 22.335
498.627 -6.88918 0.000239176
494.237 -7.46776 -22.3346
481.723 -9.11742 -41.2997
462.96 -11.5927 -54.0199
440.776 -14.5245 -58.5445
418.539 -17.4748 -54.1527
399.656 -20.0049 -41.4821
387.058 -21.764 -22.4517
</DataArray>
</Points>
<Cells>
<DataArray type="Int32" Name="connectivity" format="ascii">
0 1 2 3 
4 5 6 7 
8 9 10 11 
12 13 14 15 
16 17 18 19 
20 21 22 23 
24 25 26 27 
28 29 30 31 
32 33 34 35 
36 37 38 39 
40 41 42 43 
44 45 46 47 
48 49 50 51 
52 53 54 55 
56 57 58 59 
60 61 62 63 
64 65 66 67 
68 69 70 71 
72 73 74 75 
76 77 78 79 
80 81 82 83 
84 85 86 87 
88 89 90 91 
92 93 94 95 
96 97 98 99 
100 101 102 103 
104 105 106 107 
108 109 110 111 
112 113 114 115 
116 117 118 119 
120 121 122 123 
124 125 126 127 
128 129 130 131 
132 133 134 135 
136 137 138 139 
140 141 142 143 
144 145 146 147 
148 149 150 151 
152 153 154 155 
156 157 158 159 
160 161 162 163 
164 165 166 167 
168 169 170 171 
172 173 174 175 
176 177 178 179 
180 181 182 183 
184 185 186 187 
188 189 190 191 
192 193 194 195 
196 197 198 199 
200 201 202 203 
204 205 206 207 
208 209 210 211 
212 213 214 215 
216 217 218 219 
220 221 222 223 
224 225 226 227 
228 229 230 231 
232 233 234 235 
236 237 238 239 
240 241 242 243 
244 245 246 247 
248 249 250 251 
252 253 254 255 
256 257 258 259 
260 261 262 263 
264 265 266 267 
268 269 270 271 
272 273 274 275 
276 277 278 279 
280 281 282 283 
284 285 286 287 
288 289 290 291 
292 293 294 295 
296 297 298 299 
300 301 302 303 
304 305 306 307 
308 309 310 311 
312 313 314 315 
316 317 318 319 
320 321 322 323 
324 325 326 327 
328 329 330 331 
332 333 334 335 
336 337 338 339 
340 341 342 343 
344 345 346 347 
348 349 350 351 
352 353 354 355 
356 357 358 359 
360 361 362 363 
364 365 366 367 
368 369 370 371 
372 373 374 375 
376 377 378 379 
380 381 382 383 
384 385 386 387 
388 389 390 391 
392 393 394 395 
396 397 398 399 
400 401 402 403 
404 405 406 407 
408 409 410 411 
412 413 414 415 
416 417 418 419 
420 421 422 423 
424 425 426 427 
428 429 430 431 
432 433 434 435 
436 437 438 439 
440 441 442 443 
444 445 446 447 
448 449 450 451 
452 453 454 455 
456 457 458 459 
460 461 462 463 
464 465 466 467 
468 469 470 471 
472 473 474 475 
476 477 478 479 
480 481 482 483 
484 485 486 487 
488 489 490 491 
492 493 494 495 
496 497 498 499 
500 501 502 503 
504 505 506 507 
508 509 510 511 
512 513 514 515 
516 517 518 519 
520 521 522 523 
524 525 526 527 
528 529 530 531 
532 533 534 535 
536 537 538 539 
540 541 542 543 
544 545 546 547 
548 549 550 551 
552 553 554 555 
556 557 558 559 
560 561 562 563 
564 565 566 567 
568 569 570 571 
572 573 574 575 
576 577 578 579 
580 581 582 583 
584 585 586 587 
588 589 590 591 
592 593 594 595 
596 597 598 599 
600 601 602 603 
604 605 606 607 
608 609 610 611 
612 613 614 615 
616 617 618 619 
620 621 622 623 
624 625 626 627 
628 629 630 631 
632 633 634 635 
636 637 638 639 
640 641 642 643 
644 645 646 647 
648 649 650 651 
652 653 654 655 
656 657 658 659 
660 661 662 663 
664 665 666 667 
668 669 670 671 
672 673 674 675 
676 677 678 679 
680 681 682 683 
684 685 686 687 
688 689 690 691 
692 693 694 695 
696 697 698 699 
700 701 702 703 
704 705 706 707 
708 709 710 711 
712 713 714 715 
716 717 718 719 
720 721 722 723 
724 725 726 727 
728 729 730 731 
732 733 734 735 
736 737 738 739 
740 741 742 743 
744 745 746 747 
748 749 750 751 
752 753 754 755 
756 757 758 759 
760 761 762 763 
764 765 766 767 
768 769 770 771 
772 773 774 775 
776 777 778 779 
780 781 782 783 
784 785 786 787 
788 789 790 791 
792 793 794 795 
796 797 798 799 
800 801 802 803 
804 805 806 807 
808 809 810 811 
812 813 814 815 
816 817 818 819 
820 821 822 823 
824 825 826 827 
828 829 830 831 
832 833 834 835 
836 837 838 839 
840 841 842 843 
844 845 846 847 
848 849 850 851 
852 853 854 855 
856 857 858 859 
860 861 862 863 
864 865 866 867 
868 869 870 871 
872 873 874 875 
876 877 878 879 
880 881 882 883 
884 885 886 887 
888 889 890 891 
892 893 894 895 
896 897 898 899 
900 901 902 903 
904 905 906 907 
908 909 910 911 
912 913 914 915 
916 917 918 919 
920 921 922 923 
924 925 926 927 
928 929 930 931 
932 933 934 935 
936 937 938 939 
940 941 942 943 
944 945 946 947 
948 949 950 951 
952 953 954 955 
956 957 958 959 
960 961 962 963 
964 965 966 967 
968 969 970 971 
972 973 974 975 
976 977 978 979 
980 981 982 983 
984 985 986 987 
988 989 990 991 
992 993 994 995 
996 997 998 999 
1000 1001 1002 1003 
1004 1005 1006 1007 
1008 1009 1010 1011 
1012 1013 1014 1015 
1016 1017 1018 1019 
1020 1021 1022 1023 
1024 1025 1026 1027 
1028 1029 1030 1031 
1032 1033 1034 1035 
1036 1037 1038 1039 
1040 1041 1042 1043 
1044 1045 1046 1047 
1048 1049 1050 1051 
1052 1053 1054 1055 
1056 1057 1058 1059 
1060 1061 1062 1063 
1064 1065 1066 1067 
1068 1069 1070 1071 
1072 1073 1074 1075 
1076 1077 1078 1079 
1080 1081 1082 1083 
1084 1085 1086 1087 
1088 1089 1090 1091 
1092 1093 1094 1095 
1096 1097 1098 1099 
1100 1101 1102 1103 
1104 1105 1106 1107 
1108 1109 1110 1111 
1112 1113 1114 1115 
1116 1117 1118 1119 
1120 1121 1122 1123 
1124 1125 1126 1127 
1128 1129 1130 1131 
1132 1133 1134 1135 
1136 1137 1138 1139 
1140 1141 1142 1143 
1144 1145 1146 1147 
1148 1149 1150 1151 
1152 1153 1154 1155 
1156 1157 1158 1159 
1160 1161 1162 1163 
1164 1165 1166 1167 
1168 1169 1170 1171 
1172 1173 1174 1175 
1176 1177 1178 1179 
1180 1181 1182 1183 
1184 1185 1186 1187 
1188 1189 1190 1191 
1192 1193 1194 1195 
1196 1197 1198 1199 
1200 1201 1202 1203 
1204 1205 1206 1207 
1208 1209 1210 1211 
1212 1213 1214 1215 
1216 1217 1218 1219 
1220 1221 1222 1223 
1224 1225 1226 1227 
1228 1229 1230 1231 
1232 1233 1234 1235 
1236 1237 1238 1239 
1240 1241 1242 1243 
1244 1245 1246 1247 
1248 1249 1250 1251 
1252 1253 1254 1255 
1256 1257 1258 1259 
1260 1261 1262 1263 
1264 1265 1266 1267 
1268 1269 1270 1271 
1272 1273 1274 1275 
1276 1277 1278 1279 
1280 1281 1282 1283 
1284 1285 1286 1287 
1288 1289 1290 1291 
1292 1293 1294 1295 
1296 1297 1298 1299 
1300 1301 1302 1303 
1304 1305 1306 1307 
1308 1309 1310 1311 
1312 1313 1314 1315 
1316 1317 1318 1319 
1320 1321 1322 1323 
1324 1325 1326 1327 
1328 1329 1330 1331 
1332 1333 1334 1335 
1336 1337 1338 1339 
1340 1341 1342 1343 
1344 1345 1346 1347 
1348 1349 1350 1351 
1352 1353 1354 1355 
1356 1357 1358 1359 
1360 1361 1362 1363 
1364 1365 1366 1367 
1368 1369 1370 1371 
1372 1373 1374 1375 
1376 1377 1378 1379 
1380 1381 1382 1383 
1384 1385 1386 1387 
1388 1389 1390 1391 
1392 1393 1394 1395 
1396 1397 1398 1399 
1400 1401 1402 1403 
1404 1405 1406 1407 
1408 1409 1410 1411 
1412 1413 1414 1415 
1416 1417 1418 1419 
1420 1421 1422 1423 
1424 1425 1426 1427 
1428 1429 1430 1431 
1432 1433 1434 1435 
1436 1437 1438 1439 
1440 1441 1442 1443 
1444 1445 1446 1447 
1448 1449 1450 1451 
1452 1453 1454 1455 
1456 1457 1458 1459 
1460 1461 1462 1463 
1464 1465 1466 1467 
1468 1469 1470 1471 
1472 1473 1474 1475 
1476 1477 1478 1479 
1480 1481 1482 1483 
1484 1485 1486 1487 
1488 1489 1490 1491 
1492 1493 1494 1495 
1496 1497 1498 1499 
1500 1501 1502 1503 
1504 1505 1506 1507 
1508 1509 1510 1511 
1512 1513 1514 1515 
1516 1517 1518 1519 
1520 1521 1522 1523 
1524 1525 1526 1527 
1528 1529 1530 1531 
1532 1533 1534 1535 
1536 1537 1538 1539 
1540 1541 1542 1543 
1544 1545 1546 1547 
1548 1549 1550 1551 
1552 1553 1554 1555 
1556 1557 1558 1559 
1560 1561 1562 1563 
1564 1565 1566 1567 
1568 1569 1570 1571 
1572 1573 1574 1575 
1576 1577 1578 1579 
1580 1581 1582 1583 
1584 1585 1586 1587 
1588 1589 1590 1591 
1592 1593 1594 1595 
1596 1597 1598 1599 
1600 1601 1602 1603 
1604 1605 1606 1607 
1608 1609 1610 1611 
1612 1613 1614 1615 
1616 1617 1618 1619 
1620 1621 1622 1623 
1624 1625 1626 1627 
1628 1629 1630 1631 
1632 1633 1634 1635 
1636 1637 1638 1639 
1640 1641 1642 1643 
1644 1645 1646 1647 
1648 1649 1650 1651 
1652 1653 1654 1655 
1656 1657 1658 1659 
1660 1661 1662 1663 
1664 1665 1666 1667 
1668 1669 1670 1671 
1672 1673 1674 1675 
1676 1677 1678 1679 
1680 1681 1682 1683 
1684 1685 1686 1687 
1688 1689 1690 1691 
1692 1693 1694 1695 
1696 1697 1698 1699 
1700 1701 1702 1703 
1704 1705 1706 1707 
1708 1709 1710 1711 
1712 1713 1714 1715 
1716 1717 1718 1719 
1720 1721 1722 1723 
1724 1725 1726 1727 
1728 1729 1730 1731 
1732 1733 1734 1735 
1736 1737 1738 1739 
1740 1741 1742 1743 
1744 1745 1746 1747 
1748 1749 1750 1751 
1752 1753 1754 1755 
1756 1757 1758 1759 
1760 1761 1762 1763 
1764 1765 1766 1767 
1768 1769 1770 1771 
1772 1773 1774 1775 
1776 1777 1778 1779 
1780 1781 1782 1783 
1784 1785 1786 1787 
1788 1789 1790 1791 
1792 1793 1794 1795 
1796 1797 1798 1799 
1800 1801 1802 1803 
1804 1805 1806 1807 
1808 1809 1810 1811 
1812 1813 1814 1815 
1816 1817 1818 1819 
1820 1821 1822 1823 
1824 1825 1826 1827 
1828 1829 1830 1831 
1832 1833 1834 1835 
1836 1837 1838 1839 
1840 1841 1842 1843 
1844 1845 1846 1847 
1848 1849 1850 1851 
1852 1853 1854 1855 
1856 1857 1858 1859 
1860 1861 1862 1863 
1864 1865 1866 1867 
1868 1869 1870 1871 
1872 1873 1874 1875 
1876 1877 1878 1879 
1880 1881 1882 1883 
1884 1885 1886 1887 
1888 1889 1890 1891 
1892 1893 1894 1895 
1896 1897 1898 1899 
1900 1901 1902 1903 
1904 1905 1906 1907 
1908 1909 1910 1911 
1912 1913 1914 1915 
1916 1917 1918 1919 
1920 1921 1922 1923 
1924 1925 1926 1927 
1928 1929 1930 1931 
1932 1933 1934 1935 
1936 1937 1938 1939 
1940 1941 1942 1943 
1944 1945 1946 1947 
1948 1949 1950 1951 
1952 1953 1954 1955 
1956 1957 1958 1959 
1960 1961 1962 1963 
1964 1965 1966 1967 
1968 1969 1970 1971 
1972 1973 1974 1975 
1976 1977 1978 1979 
1980 1981 1982 1983 
1984 1985 1986 1987 
1988 1989 1990 1991 
1992 1993 1994 1995 
1996 1997 1998 1999 
2000 2001 2002 2003 
2004 2005 2006 2007 
2008 2009 2010 2011 
2012 2013 2014 2015 
2016 2017 2018 2019 
2020 2021 2022 2023 
2024 2025 2026 2027 
2028 2029 2030 2031 
2032 2033 2034 2035 
2036 2037 2038 2039 
2040 2041 2042 2043 
2044 2045 2046 2047 
2048 2049 2050 2051 2052 2053 2054 2055 2056 2057 2058 2059 2060 2061 2062 2063 
2064 2065 2066 2067 2068 2069 2070 2071 2072 2073 2074 2075 2076 2077 2078 2079 
</DataArray>
<DataArray type="Int32" Name="offsets" format="ascii">
4 8 12 16 20 24 28 32 36 40 44 48 52 56 60 64 68 72 76 80 84 88 92 96 100 104 108 112 116 120 124 128 132 136 140 144 148 152 156 160 164 168 172 176 180 184 188 192 196 200 204 208 212 216 220 224 228 232 236 240 244 248 252 256 260 264 268 272 276 280 284 288 292 296 300 304 308 312 316 320 324 328 332 336 340 344 348 352 356 360 364 368 372 376 380 384 388 392 396 400 404 408 412 416 420 424 428 432 436 440 444 448 452 456 460 464 468 472 476 480 484 488 492 496 500 504 508 512 516 520 524 528 532 536 540 544 548 552 556 560 564 568 572 576 580 584 588 592 596 600 604 608 612 616 620 624 628 632 636 640 644 648 652 656 660 664 668 672 676 680 684 688 692 696 700 704 708 712 716 720 724 728 732 736 740 744 748 752 756 760 764 768 772 776 780 784 788 792 796 800 804 808 812 816 820 824 828 832 836 840 844 848 852 856 860 864 868 872 876 880 884 888 892 896 900 904 908 912 916 920 924 928 932 936 940 944 948 952 956 960 964 968 972 976 980 984 988 992 996 1000 1004 1008 1012 1016 1020 1024 1028 1032 1036 1040 1044 1048 1052 1056 1060 1064 1068 1072 1076 1080 1084 1088 1092 1096 1100 1104 1108 1112 1116 1120 1124 1128 1132 1136 1140 1144 1148 1152 1156 1160 1164 1168 1172 1176 1180 1184 1188 1192 1196 1200 1204 1208 1212 1216 1220 1224 1228 1232 1236 1240 1244 1248 1252 1256 1260 1264 1268 1272 1276 1280 1284 1288 1292 1296 1300 1304 1308 1312 1316 1320 1324 1328 1332 1336 1340 1344 1348 1352 1356 1360 1364 1368 1372 1376 1380 1384 1388 1392 1396 1400 1404 1408 1412 1416 1420 1424 1428 1432 1436 1440 1444 1448 1452 1456 1460 1464 1468 1472 1476 1480 1484 1488 1492 1496 1500 1504 1508 1512 1516 1520 1524 1528 1532 1536 1540 1544 1548 1552 1556 1560 1564 1568 1572 1576 1580 1584 1588 1592 1596 1600 1604 1608 1612 1616 1620 1624 1628 1632 1636 1640 1644 1648 1652 1656 1660 1664 1668 1672 1676 1680 1684 1688 1692 1696 1700 1704 1708 1712 1716 1720 1724 1728 1732 1736 1740 1744 1748 1752 1756 1760 1764 1768 1772 1776 1780 1784 1788 1792 1796 1800 1804 1808 1812 1816 1820 1824 1828 1832 1836 1840 1844 1848 1852 1856 1860 1864 1868 1872 1876 1880 1884 1888 1892 1896 1900 1904 1908 1912 1916 1920 1924 1928 1932 1936 1940 1944 1948 1952 1956 1960 1964 1968 1972 1976 1980 1984 1988 1992 1996 2000 2004 2008 2012 2016 2020 2024 2028 2032 2036 2040 2044 2048 2064 2080 
</DataArray>
<DataArray type="UInt8" Name="types" format="ascii">
7 7 7 7 7 7 7 7 7 7 7 7 7 7 7 7 7 7 7 7 7 7 7 7 7 7 7 7 7 7 7 7 7 7 7 7 7 7 7 7 7 7 7 7 7 7 7 7 7 7 7 7 7 7 7 7 7 7 7 7 7 7 7 7 7 7 7 7 7 7 7 7 7 7 7 7 7 7 7 7 7 7 7 7 7 7 7 7 7 7 7 7 7 7 7 7 7 7 7 7 7 7 7 7 7 7 7 7 7 7 7 7 7 7 7 7 7 7 7 7 7 7 7 7 7 7 7 7 7 7 7 7 7 7 7 7 7 7 7 7 7 7 7 7 7 7 7 7 7 7 7 7 7 7 7 7 7 7 7 7 7 7 7 7 7 7 7 7 7 7 7 7 7 7 7 7 7 7 7 7 7 7 7 7 7 7 7 7 7 7 7 7 7 7 7 7 7 7 7 7 7 7 7 7 7 7 7 7 7 7 7 7 7 7 7 7 7 7 7 7 7 7 7 7 7 7 7 7 7 7 7 7 7 7 7 7 7 7 7 7 7 7 7 7 7 7 7 7 7 7 7 7 7 7 7 7 7 7 7 7 7 7 7 7 7 7 7 7 7 7 7 7 7 7 7 7 7 7 7 7 7 7 7 7 7 7 7 7 7 7 7 7 7 7 7 7 7 7 7 7 7 7 7 7 7 7 7 7 7 7 7 7 7 7 7 7 7 7 7 7 7 7 7 7 7 7 7 7 7 7 7 7 7 7 7 7 7 7 7 7 7 7 7 7 7 7 7 7 7 7 7 7 7 7 7 7 7 7 7 7 7 7 7 7 7 7 7 7 7 7 7 7 7 7 7 7 7 7 7 7 7 7 7 7 7 7 7 7 7 7 7 7 7 7 7 7 7 7 7 7 7 7 7 7 7 7 7 7 7 7 7 7 7 7 7 7 7 7 7 7 7 7 7 7 7 7 7 7 7 7 7 7 7 7 7 7 7 7 7 7 7 7 7 7 7 7 7 7 7 7 7 7 7 7 7 7 7 7 7 7 7 7 7 7 7 7 7 7 7 7 7 7 7 7 7 7 7 7 7 7 7 7 7 7 7 7 7 7 7 7 7 7 7 7 7 7 7 7 7 7 7 7 7 7 7 7 7 7 7 7 7 7 7 7 
</DataArray>
</Cells>
<CellData Scalars="cell variable 4" Vectors="cell vector">
<DataArray type="Float64" NumberOfComponents="3" Name="cell vector" format="ascii">
0.185505 0.0650659 0.980487
0.539306 0.150542 0.828544
0.794016 0.219936 0.566715
0.918679 0.313557 0.24023
0.700307 0.683976 -0.204321
0.245538 0.793307 -0.557113
-0.133456 -0.570555 0.810344
-0.0281347 -0.22435 0.974102
0.0327784 0.221223 0.974672
0.12182 0.577611 0.807171
0.241704 0.795451 0.555731
0.697133 0.687181 0.204422
0.91706 0.318637 -0.239732
0.789508 0.233183 -0.567717
-0.526558 -0.177549 0.831392
-0.192259 -0.0539971 0.979858
0.161509 0.11175 0.980524
0.462733 0.312081 0.829749
0.688048 0.468879 0.553844
0.79179 0.578636 0.195573
0.729622 0.655365 -0.195319
0.529328 0.644864 -0.551328
-0.349357 -0.438904 0.827836
-0.12401 -0.153953 0.980265
0.123884 0.154767 0.980153
0.345797 0.442867 0.82722
0.527738 0.646636 0.550777
0.729252 0.655887 0.194946
0.791159 0.579406 -0.195846
0.686517 0.470697 -0.554201
-0.460372 -0.314617 0.830105
-0.163295 -0.10883 0.980556
0.159581 0.114844 0.980482
0.455806 0.322531 0.829587
0.67998 0.481706 0.552798
0.789759 0.582052 0.193642
0.729938 0.655001 -0.195355
0.527621 0.649038 -0.548056
-0.36454 -0.425931 0.828066
-0.130232 -0.14796 0.980381
0.12986 0.14914 0.980252
0.362859 0.428155 0.827657
0.526932 0.649961 0.547625
0.729515 0.65557 0.195028
0.789116 0.582839 -0.193892
0.679309 0.482387 -0.553031
-0.454654 -0.323321 0.829912
-0.160493 -0.112538 0.9806
0.159885 0.114768 0.980441
0.456627 0.322088 0.829308
0.683784 0.477416 0.551828
0.801447 0.566297 0.192332
0.754054 0.626895 -0.195972
-0.0761573 0.928554 -0.3633
-0.588498 0.799806 -0.118239
-0.651683 0.757678 -0.0351159
-0.651886 0.757614 0.0326341
-0.589876 0.799305 0.114705
-0.0717724 0.928508 0.364311
0.753247 0.627957 0.195674
0.800806 0.567123 -0.192564
0.68348 0.477657 -0.551995
-0.455767 -0.32248 0.829629
-0.160262 -0.112806 0.980607
0.159953 0.11471 0.980437
0.45617 0.322669 0.829334
0.68301 0.478671 0.551699
0.802438 0.565079 0.191778
0.774848 0.601059 -0.195802
-0.0778 0.932582 -0.352474
-0.569262 0.814109 -0.114748
-0.630087 0.77577 -0.034226
-0.630073 0.775832 0.033047
-0.569292 0.814271 0.113443
-0.0728847 0.932506 0.353722
0.774225 0.601943 0.195551
0.802002 0.565629 -0.191981
0.682997 0.478547 -0.551822
-0.45568 -0.322593 0.829632
-0.160063 -0.112918 0.980627
0.160303 0.113777 0.980489
0.456926 0.320581 0.829727
0.684494 0.475919 0.55224
0.806201 0.559699 0.191772
0.788692 0.58281 -0.1957
-0.169931 0.940043 -0.295708
-0.559042 0.82312 -0.0997222
-0.611379 0.790734 -0.0309107
-0.61136 0.79079 0.0298395
-0.559027 0.823271 0.0985559
-0.164019 0.940453 0.297733
0.788041 0.583756 0.195499
0.80588 0.560103 -0.191941
0.684624 0.475618 -0.552338
-0.456661 -0.32022 0.830012
-0.160271 -0.11209 0.980688
0.161168 0.112009 0.98055
0.459255 0.316063 0.830174
0.688153 0.469827 0.552909
0.811531 0.551868 0.191987
0.799364 0.568 -0.195941
-0.286031 0.932989 -0.218445
-0.550961 0.830531 -0.0816099
-0.593343 0.804509 -0.026639
-0.593326 0.804555 0.0256004
-0.550953 0.830647 0.0804695
-0.281185 0.934046 0.220213
0.798774 0.56889 0.195766
0.811317 0.552131 -0.192135
0.688352 0.469437 -0.552992
-0.459117 -0.315535 0.830451
-0.161044 -0.110399 0.980753
0.162438 0.109672 0.980605
0.462768 0.309847 0.830566
0.693443 0.46126 0.553512
0.818164 0.541899 0.192232
0.80958 0.553219 -0.196286
-0.37715 0.914256 -0.147967
-0.542296 0.837742 -0.0640654
-0.575271 0.817665 -0.0220465
-0.575257 0.817703 0.021023
-0.542289 0.83783 0.0629519
-0.374013 0.915392 0.1489
0.809092 0.553989 0.196125
0.818041 0.542037 -0.192366
0.693672 0.460827 -0.553586
-0.462702 -0.309217 0.830838
-0.162243 -0.108121 0.980809
0.16399 0.106933 0.980649
0.467107 0.302405 0.83088
0.699907 0.450796 0.553997
0.825912 0.529942 0.192433
0.82045 0.536857 -0.196586
-0.428513 0.898107 -0.0988996
-0.53198 0.845352 -0.0487493
-0.556935 0.83037 -0.0175601
-0.556924 0.830399 0.0165449
-0.531971 0.84542 0.0476699
-0.426561 0.899008 0.0991496
0.820056 0.537513 0.196437
0.825853 0.529989 -0.192557
0.700146 0.450344 -0.554063
-0.467081 -0.301708 0.831148
-0.163736 -0.105428 0.980854
0.165737 0.103881 0.980683
0.472031 0.293978 0.831122
0.707239 0.438739 0.554365
0.834523 0.516221 0.192581
0.830613 0.520909 -0.196813
-0.45193 0.889495 -0.0675173
-0.519755 0.85355 -0.0361646
-0.538203 0.842706 -0.0135421
-0.538197 0.842726 0.0125293
-0.519741 0.853601 0.0351237
-0.450604 0.890177 0.0673917
0.830307 0.521449 0.196673
0.834507 0.516204 -0.192696
0.707475 0.438285 -0.554424
-0.472024 -0.293241 0.831386
-0.165432 -0.102415 0.980889
0.16761 0.100582 0.980709
0.477318 0.284783 0.831304
0.715128 0.425397 0.554644
0.843733 0.500981 0.192697
0.840041 0.505494 -0.196996
-0.462859 0.885315 -0.0444879
-0.505756 0.86228 -0.0261403
-0.519037 0.854691 -0.0101667
-0.519035 0.854704 0.00916124
-0.505741 0.862319 0.025137
-0.461952 0.885808 0.0441092
0.839808 0.505933 0.196862
0.843742 0.500925 -0.192805
0.715353 0.42495 -0.554695
-0.477317 -0.284021 0.831565
-0.167256 -0.0991543 0.980915
0.169544 0.0970975 0.980728
0.482773 0.275026 0.831439
0.723281 0.411102 0.554852
0.853299 0.484471 0.19279
0.850066 0.488389 -0.197137
-0.462466 0.886146 -0.0295003
-0.490126 0.871456 -0.0184656
-0.499479 0.866294 -0.0074122
-0.49948 0.866301 0.00642753
-0.490116 0.871482 0.0174919
-0.461817 0.886502 0.0289758
0.849869 0.488785 0.197009
0.853321 0.484393 -0.192889
0.723494 0.410666 -0.554897
-0.48277 -0.27425 0.831697
-0.169143 -0.0957088 0.980934
0.171497 0.0934616 0.980741
0.488289 0.264804 0.831536
0.731534 0.396018 0.555002
0.86302 0.466908 0.192857
0.860362 0.469976 -0.197232
-0.45501 0.89027 -0.0196259
-0.473144 0.880894 -0.0126843
-0.479542 0.877503 -0.00523328
-0.479544 0.877507 0.00427515
-0.473134 0.880912 0.0117483
-0.454541 0.890523 0.0190093
0.860197 0.470327 0.197112
0.863053 0.466809 -0.192949
0.731733 0.395599 -0.555039
-0.488276 -0.264026 0.831791
-0.171049 -0.0921152 0.980947
0.173441 0.089703 0.980751
0.493779 0.254204 0.831602
0.739752 0.380298 0.555104
0.872713 0.448508 0.192904
0.870546 0.450807 -0.19729
-0.443402 0.896232 -0.0127394
-0.455106 0.890398 -0.00829752
-0.459252 0.888299 -0.00352387
-0.459256 0.8883 0.00259756
-0.4551 0.89041 0.00739696
-0.443035 0.896423 0.0120901
0.870407 0.451123 0.197178
0.872743 0.448413 -0.192989
0.739933 0.379901 -0.555134
-0.493754 -0.253428 0.831854
-0.172947 -0.0883973 0.980956
0.17535 0.0858473 0.980756
0.49917 0.243308 0.831643
0.747815 0.36409 0.555168
0.882226 0.42948 0.192935
0.880436 0.431159 -0.197319
-0.429353 0.903105 -0.00756398
-0.436286 0.899795 -0.00485153
-0.438647 0.898657 -0.00215227
-0.438652 0.898656 0.00126593
-0.436289 0.899798 0.0039806
-0.429062 0.903249 0.0069034
0.880296 0.431492 0.197215
0.882247 0.429404 -0.193012
0.74798 0.363717 -0.555191
-0.49913 -0.242538 0.831892
-0.174812 -0.0845834 0.980962
0.177206 0.0819158 0.980759
0.504406 0.232192 0.831662
0.755631 0.347529 0.555199
0.891425 0.410038 0.192952
0.889847 0.411383 -0.197324
-0.414063 0.910243 -0.00320705
-0.41696 0.908923 -0.00189956
-0.417768 0.908553 -0.000973148
-0.417773 0.908551 0.000125125
-0.416963 0.908923 0.00107137
-0.413849 0.910342 0.00253359
0.889731 0.411679 0.197227
0.891444 0.409963 -0.193022
0.755779 0.347181 -0.555214
-0.504348 -0.231435 0.831908
-0.176624 -0.0807008 0.980964
0.178994 0.0779372 0.980758
0.509435 0.220944 0.831661
0.763119 0.330761 0.555199
0.900224 0.390339 0.192957
0.89875 0.391557 -0.197309
-0.398488 0.917173 0.00103223
-0.397338 0.917672 0.00088635
-0.396654 0.917968 0.000156289
-0.396655 0.917967 -0.000934397
-0.39736 0.917661 -0.00170041
-0.398436 0.917195 -0.00177877
0.898636 0.391865 0.197219
0.900239 0.390273 -0.19302
0.763255 0.330431 -0.555209
-0.50936 -0.2202 0.831904
-0.178367 -0.076777 0.980964
0.180699 0.0739409 0.980755
0.514221 0.209644 0.83164
0.770221 0.313917 0.555171
0.908538 0.370577 0.192953
0.907161 0.371673 -0.197275
-0.383267 0.923621 0.00561089
-0.377683 0.925927 0.00390669
-0.375348 0.926883 0.00135732
-0.375347 0.926882 -0.00209094
-0.377708 0.925913 -0.00468374
-0.383355 0.923579 -0.00641334
0.907081 0.371913 0.197194
0.908556 0.370506 -0.193007
0.770344 0.313613 -0.555174
-0.514129 -0.208917 0.831881
-0.180028 -0.0728375 0.980961
0.18231 0.0699643 0.980749
0.518733 0.198395 0.831598
0.776887 0.297149 0.555111
0.916331 0.350875 0.192935
0.915235 0.351353 -0.197221
-0.369099 0.929325 0.0110244
-0.358184 0.933621 0.00744724
-0.353888 0.935284 0.00275424
-0.353893 0.935279 -0.00346145
-0.358232 0.933597 -0.0082033
-0.369188 0.92928 -0.0117716
0.915104 0.351735 0.197147
0.916336 0.350836 -0.192982
0.776997 0.29687 -0.555107
-0.518629 -0.197671 0.831836
-0.181603 -0.0689076 0.980955
0.183823 0.0660342 0.980739
0.522953 0.187293 0.83153
0.78308 0.280619 0.555012
0.923545 0.331443 0.1929
0.922847 0.330892 -0.197139
-0.357054 0.93391 0.0180104
-0.339103 0.940674 0.0118792
-0.332316 0.943157 0.00448357
-0.332325 0.943151 -0.00515311
-0.339176 0.940638 -0.0126205
-0.357238 0.933825 -0.0187716
0.9227 0.331342 0.197073
0.923538 0.331438 -0.19294
0.783179 0.280367 -0.555001
-0.52284 -0.186565 0.831764
-0.183083 -0.0650267 0.980944
0.185238 0.0621802 0.980724
0.526872 0.17644 0.831429
0.788769 0.26452 0.554863
0.930105 0.312593 0.192846
0.929871 0.310681 -0.197022
-0.348757 0.936804 0.0276969
-0.320805 0.946979 0.0177383
-0.310683 0.95049 0.00670332
-0.310694 0.950482 -0.00734389
-0.320885 0.946939 -0.0184462
-0.349138 0.936636 -0.0285502
0.929749 0.311083 0.196964
0.930108 0.312564 -0.192878
0.788859 0.264289 -0.554845
-0.526751 -0.175708 0.831661
-0.184466 -0.0612335 0.98093
0.186553 0.0584571 0.980704
0.530479 0.165991 0.831288
0.793923 0.249094 0.554651
0.93598 0.294588 0.192766
0.936328 0.29075 -0.196862
-0.346757 0.93702 0.0418699
-0.303603 0.952458 0.0254805
-0.289023 0.957275 0.009514
-0.289042 0.957263 -0.0101424
-0.303706 0.952406 -0.0261714
-0.347309 0.936774 -0.0427922
0.936191 0.291222 0.196814
0.935989 0.294545 -0.192789
0.79401 0.248874 -0.554626
-0.530357 -0.165233 0.831517
-0.185751 -0.0575683 0.980909
0.187767 0.0549224 0.980677
0.533769 0.156118 0.831094
0.798523 0.234623 0.554358
0.941127 0.277789 0.19265
0.942148 0.271452 -0.196647
-0.355006 0.932716 0.0633315
-0.287864 0.957008 0.0356299
-0.267366 0.963508 0.0129659
-0.2674 0.963489 -0.0136184
-0.287988 0.956946 -0.0362995
-0.355761 0.932359 -0.0643432
0.942009 0.271963 0.19661
0.94114 0.277734 -0.192665
0.798609 0.23441 -0.554325
-0.533654 -0.155309 0.83132
-0.186941 -0.0540892 0.980881
0.188883 0.0516456 0.980641
0.536741 0.147048 0.830835
0.802547 0.221471 0.553958
0.94551 0.262603 0.192487
0.947341 0.252953 -0.196364
-0.379757 0.920027 0.0966119
-0.273861 0.960542 0.0485721
-0.24572 0.969191 0.017028
-0.245776 0.969164 -0.0177355
-0.274008 0.960467 -0.0492175
-0.380821 0.919463 -0.0977906
0.947197 0.253511 0.196339
0.945534 0.262512 -0.192492
0.802638 0.221243 -0.553917
-0.53664 -0.146155 0.831057
-0.188039 -0.0508759 0.980843
0.1899 0.0487172 0.980594
0.539389 0.139063 0.830494
0.805974 0.210068 0.553424
0.949104 0.249476 0.192258
0.951897 0.235526 -0.196008
-0.429154 0.891045 0.147871
-0.261693 0.962999 0.0644237
-0.224058 0.974338 0.0215488
-0.224142 0.9743 -0.0223462
-0.261847 0.962917 -0.065021
-0.430758 0.890016 -0.149397
0.951776 0.236027 0.195996
0.949152 0.249294 -0.192255
0.806076 0.2098 -0.553377
-0.539312 -0.138049 0.830714
-0.189045 -0.0480286 0.980793
0.190806 0.0462727 0.980537
0.541687 0.132552 0.830063
0.808769 0.200932 0.552738
0.95192 0.238757 0.191949
0.955863 0.219232 -0.195611
-0.505566 0.834384 0.219561
-0.250979 0.96446 0.0826206
-0.202264 0.97898 0.0262342
-0.202385 0.97893 -0.027145
-0.251131 0.964376 -0.0831428
-0.507773 0.832528 -0.221504
0.955771 0.219627 0.195615
0.951996 0.23846 -0.19194
0.808889 0.200588 -0.552686
-0.541646 -0.131352 0.830281
-0.189954 -0.045682 0.98073
0.191549 0.0445364 0.980472
0.543522 0.128106 0.829562
0.810835 0.194707 0.551938
0.953987 0.230655 0.191591
0.959327 0.203812 -0.195327
-0.590134 0.750145 0.298369
-0.24037 0.96537 0.101405
-0.17994 0.9832 0.0306455
-0.1801 0.983139 -0.031662
-0.240468 0.965309 -0.101754
-0.591876 0.748151 -0.299922
0.959297 0.203939 0.195342
0.954088 0.230245 -0.191583
0.810978 0.194253 -0.551889
-0.543538 -0.126616 0.82978
-0.19073 -0.0440535 0.980654
0.191964 0.0439053 0.980419
0.544532 0.126807 0.829099
0.811818 0.192656 0.551212
0.955307 0.2253 0.191385
0.963535 0.182735 -0.195468
0.630636 -0.69558 -0.344191
-0.223012 0.968175 0.113593
-0.154308 0.987468 0.0330972
-0.154495 0.987406 -0.0340578
-0.222962 0.968191 -0.113548
0.630702 -0.695448 0.344334
0.963544 0.182676 0.195478
0.955413 0.224848 -0.191386
0.811979 0.192054 -0.551185
-0.544639 -0.124847 0.829326
-0.191244 -0.0435191 0.980577
0.191649 0.0445864 0.98045
0.54367 0.130029 0.829165
0.810048 0.199408 0.551415
0.95322 0.233348 0.192148
0.96863 0.153173 -0.195689
-0.488932 0.831935 0.262356
-0.175024 0.979489 0.099836
-0.11378 0.993028 0.0308058
-0.113661 0.993067 -0.029997
-0.173568 0.979983 -0.0975104
-0.489928 0.831059 -0.263271
0.968773 0.152189 0.19575
0.953395 0.232642 -0.192136
0.810254 0.198423 -0.551468
-0.543967 -0.127202 0.829409
-0.191165 -0.0442938 0.980558
0.190369 0.0413722 0.98084
0.541143 0.120356 0.832273
0.809408 0.182577 0.558144
0.958049 0.205771 0.199498
0.974652 0.106141 -0.196945
0.829901 -0.0461212 -0.556001
-0.55602 0.009427 0.831115
-0.19541 0.000342845 0.980722
0.195536 -0.000661906 0.980696
0.556006 -0.0116106 0.831097
0.829827 -0.0459853 0.556122
0.97461 0.106266 0.197088
0.958104 0.205627 -0.199382
0.809607 0.181782 -0.558114
-0.54169 -0.117616 0.832309
-0.190111 -0.0411652 0.980899
0.190415 0.0380626 0.980966
0.541428 0.11108 0.833377
0.810891 0.167976 0.560571
0.961642 0.185918 0.201692
0.973767 0.11582 -0.195865
0.826437 -0.0113367 -0.562915
-0.550461 0.00568149 0.834841
-0.192835 0.000521064 0.981231
0.193186 -0.000889099 0.981162
0.550367 -0.00949666 0.834869
0.826357 -0.0109512 0.563041
0.973706 0.116126 0.19599
0.961715 0.185731 -0.201515
0.811106 0.167392 -0.560434
-0.542034 -0.108691 0.833298
-0.190136 -0.0380349 0.981021
0.184757 0.0484903 0.981587
0.522642 0.149721 0.839303
0.770886 0.262502 0.580368
0.888672 0.382927 0.252249
0.975434 0.0282395 -0.218473
0.790344 -0.168834 -0.588942
-0.536976 0.055081 0.841797
-0.188587 0.0147257 0.981946
0.18879 -0.0145207 0.98191
0.535217 -0.0663765 0.842103
0.787584 -0.179544 0.589471
0.97439 0.000135537 0.224865
0.870057 0.419216 -0.259343
0.768904 0.267186 -0.58086
-0.526322 -0.140555 0.838588
-0.185074 -0.0475891 0.981572
0.00616898 0.00643844 0.99996
0.00257188 0.000343963 0.999997
</DataArray>
<DataArray type="Float64" Name="cell vector length" format="ascii">
0.178856 0.168246 0.160842 0.126436 0.077882 0.175944 0.220661 0.201553 0.198187 0.214714 0.176982 0.0776034 0.125742 0.159043 0.185873 0.187457 0.413748 0.385855 0.348163 0.300099 0.267363 0.327553 0.416659 0.446727 0.441655 0.403099 0.325735 0.267503 0.300998 0.350858 0.405993 0.421178 0.519702 0.489864 0.442669 0.378263 0.326023 0.405922 0.517816 0.55981 0.556186 0.507479 0.404395 0.326491 0.379428 0.444831 0.505601 0.524942 0.552221 0.519115 0.46274 0.378291 0.236262 0.118502 0.266786 0.35564 0.356152 0.269049 0.118264 0.237059 0.37947 0.464525 0.533254 0.556718 0.573275 0.536162 0.469182 0.365203 0.206926 0.0920731 0.257414 0.348043 0.347724 0.256494 0.0915281 0.207896 0.366441 0.470699 0.549344 0.577302 0.58851 0.547543 0.470887 0.3509 0.177402 0.0725139 0.24701 0.335834 0.335539 0.246133 0.0717719 0.178601 0.352215 0.472226 0.560142 0.592256 0.599824 0.555813 0.471675 0.339634 0.154314 0.0640001 0.239467 0.325186 0.324936 0.238685 0.0630639 0.155634 0.340973 0.472878 0.568061 0.603405 0.608209 0.561884 0.472129 0.331088 0.137014 0.0636708 0.234286 0.316433 0.316215 0.233569 0.0626302 0.138409 0.332432 0.47324 0.573939 0.6117 0.614384 0.566289 0.472326 0.32468 0.124383 0.0667195 0.230856 0.309569 0.309374 0.230184 0.0656479 0.125827 0.326028 0.473383 0.57826 0.617832 0.618884 0.569427 0.472318 0.319926 0.116424 0.0689271 0.228424 0.304418 0.304238 0.227782 0.0678597 0.117896 0.321282 0.473351 0.58139 0.622321 0.62211 0.571609 0.472182 0.316347 0.109686 0.0721064 0.227037 0.300547 0.300378 0.226411 0.0710477 0.111176 0.317715 0.47321 0.583615 0.625557 0.624381 0.573081 0.471948 0.313611 0.104664 0.0747982 0.226186 0.297713 0.297554 0.225575 0.0737577 0.106163 0.314993 0.472985 0.585164 0.627853 0.625932 0.574026 0.471652 0.311547 0.101077 0.076789 0.225704 0.295766 0.295613 0.225102 0.075766 0.102583 0.312945 0.472706 0.586206 0.629436 0.626924 0.57457 0.471333 0.310037 0.0985706 0.078174 0.225456 0.294519 0.294371 0.224859 0.0771698 0.100079 0.311451 0.472406 0.586859 0.630466 0.627477 0.574809 0.471012 0.308975 0.0969008 0.0790638 0.225371 0.29383 0.293686 0.224778 0.0780706 0.0984181 0.310408 0.472106 0.587212 0.63106 0.627669 0.5748 0.470699 0.308285 0.0959246 0.0795376 0.22542 0.293609 0.293466 0.224823 0.0785501 0.0974496 0.309737 0.471814 0.587321 0.631294 0.627536 0.574573 0.470397 0.307924 0.095534 0.0796964 0.225625 0.29382 0.293665 0.224996 0.0786928 0.0970695 0.309396 0.471533 0.587212 0.631204 0.627078 0.574128 0.470107 0.307883 0.0955914 0.0796983 0.226024 0.294458 0.294295 0.22537 0.0786754 0.0971451 0.309374 0.471261 0.586882 0.630789 0.626255 0.573436 0.469828 0.308215 0.0963058 0.0793168 0.226546 0.295536 0.295375 0.225889 0.0782951 0.0978703 0.30972 0.470997 0.586305 0.630009 0.624979 0.572433 0.469558 0.309016 0.0978791 0.0784293 0.227209 0.29715 0.297 0.226569 0.0774208 0.0994474 0.310532 0.470741 0.585421 0.628781 0.623123 0.571024 0.469291 0.31043 0.100584 0.0769159 0.228082 0.299442 0.299299 0.227451 0.0759195 0.102146 0.311949 0.470483 0.584135 0.626975 0.620504 0.569072 0.469005 0.312642 0.104784 0.074677 0.229276 0.302601 0.302458 0.228641 0.0736823 0.106336 0.314156 0.470207 0.58232 0.624414 0.61688 0.566385 0.468668 0.315898 0.111006 0.0716862 0.230978 0.306869 0.306724 0.230332 0.0706893 0.112531 0.317396 0.469883 0.579796 0.620862 0.611928 0.562713 0.468227 0.320516 0.119968 0.0682334 0.2335 0.312536 0.312382 0.232834 0.0672384 0.121435 0.321982 0.469461 0.57633 0.616004 0.60523 0.557728 0.467607 0.32688 0.132621 0.0654923 0.237324 0.319913 0.319741 0.236616 0.0645026 0.133999 0.328292 0.46887 0.571615 0.609435 0.596217 0.550985 0.466671 0.335386 0.150123 0.0665266 0.243129 0.329321 0.32912 0.242357 0.0655722 0.151366 0.33672 0.46798 0.565235 0.6006 0.583916 0.541669 0.464933 0.345969 0.172858 0.0760192 0.252267 0.341253 0.341016 0.251408 0.0751814 0.173914 0.347196 0.466303 0.55641 0.588547 0.565388 0.526686 0.459117 0.355376 0.197343 0.097146 0.267385 0.358003 0.357799 0.266651 0.0964452 0.198065 0.356464 0.460557 0.542144 0.570378 0.524884 0.487958 0.427072 0.337356 0.180871 0.138646 0.312344 0.396629 0.397683 0.316028 0.138203 0.181684 0.338409 0.428629 0.504907 0.530503 0.498905 0.462612 0.405181 0.329372 0.271992 0.363928 0.495568 0.544123 0.538728 0.480207 0.362299 0.273002 0.330556 0.406782 0.480484 0.504829 0.463669 0.427328 0.37182 0.30715 0.271589 0.330923 0.446285 0.490689 0.483728 0.426117 0.329483 0.27114 0.308306 0.373346 0.445727 0.469769 0.211007 0.168904 0.104761 0.0406877 0.0243591 0.113181 0.255384 0.320381 0.31471 0.238108 0.113803 0.0183186 0.0410519 0.103862 0.18774 0.216763 0.0677563 0.0152124 
</DataArray>
<DataArray type="Float64" Name="cell variable 4" format="ascii">
872.107 866.565 867.379 866.157 855.665 892.388 883.974 874.23 871.433 876.04 892.042 855.489 865.369 866.295 880.965 877.178 1081.5 1063.8 1054.36 1046.96 1045.66 1071.72 1100.74 1091.25 1085.51 1082.99 1071.74 1045.55 1046.87 1054.32 1091.24 1090.88 1278.89 1257.65 1244.03 1233.16 1227.72 1265.79 1297.56 1298.28 1292.41 1278.99 1266.1 1228 1233.25 1244.11 1290.17 1289.34 1318.13 1295.89 1281.89 1272.1 1262.62 1394.54 1773.03 2032.03 2030.37 1769.75 1393.42 1262.62 1272.01 1281.91 1329.2 1328.77 1326.39 1303.98 1290.64 1284.25 1280.1 1401.11 1751.88 1994.25 1993.07 1749.49 1399.68 1279.98 1284.15 1290.68 1337.41 1337.02 1329.14 1305.33 1289.85 1282.28 1280.01 1400.75 1734.3 1959.22 1958.31 1732.36 1399.28 1279.99 1282.28 1289.96 1338.78 1339.76 1330.69 1305.56 1288.2 1279.48 1277.95 1405.12 1722.34 1930.63 1929.91 1720.71 1403.52 1277.95 1279.53 1288.32 1339.09 1341.33 1331.75 1305.64 1286.89 1277.28 1275.9 1412.97 1714.64 1908.21 1907.63 1713.24 1411.29 1275.9 1277.35 1287.01 1339.32 1342.46 1332.59 1305.7 1285.86 1275.55 1274.16 1421.22 1709.76 1891.26 1890.78 1708.53 1419.51 1274.17 1275.61 1285.98 1339.58 1343.39 1333.27 1305.72 1285.04 1274.15 1272.77 1426.17 1706.17 1878.88 1878.47 1705.08 1424.48 1272.78 1274.21 1285.16 1339.86 1344.17 1333.75 1305.68 1284.41 1273.09 1271.64 1431.78 1704.3 1869.81 1869.46 1703.3 1430.1 1271.65 1273.15 1284.52 1340.09 1344.77 1334.1 1305.59 1283.92 1272.3 1270.71 1436.18 1703.24 1863.35 1863.04 1702.32 1434.52 1270.72 1272.36 1284.03 1340.3 1345.24 1334.36 1305.47 1283.49 1271.64 1269.94 1439.33 1702.68 1858.99 1858.71 1701.83 1437.7 1269.95 1271.7 1283.6 1340.48 1345.63 1334.52 1305.31 1283.1 1271.11 1269.31 1441.5 1702.43 1856.23 1855.99 1701.65 1439.9 1269.33 1271.16 1283.2 1340.61 1345.91 1334.57 1305.09 1282.74 1270.67 1268.83 1442.9 1702.39 1854.73 1854.51 1701.67 1441.31 1268.84 1270.73 1282.84 1340.69 1346.1 1334.52 1304.83 1282.42 1270.34 1268.47 1443.67 1702.54 1854.26 1854.05 1701.84 1442.08 1268.48 1270.4 1282.52 1340.72 1346.17 1334.37 1304.53 1282.13 1270.11 1268.22 1443.95 1702.94 1854.76 1854.52 1702.21 1442.34 1268.23 1270.17 1282.24 1340.69 1346.14 1334.13 1304.19 1281.89 1269.98 1268.08 1443.99 1703.67 1856.21 1855.99 1702.95 1442.36 1268.09 1270.04 1281.99 1340.6 1346.01 1333.79 1303.83 1281.69 1269.96 1268.02 1443.4 1704.57 1858.67 1858.47 1703.9 1441.8 1268.05 1270.01 1281.79 1340.46 1345.78 1333.37 1303.42 1281.53 1270.04 1268.11 1442.05 1705.66 1862.33 1862.16 1705.03 1440.44 1268.13 1270.1 1281.64 1340.28 1345.45 1332.85 1302.99 1281.43 1270.26 1268.35 1439.65 1706.99 1867.54 1867.4 1706.42 1438.07 1268.36 1270.32 1281.55 1340.05 1345.03 1332.23 1302.53 1281.43 1270.65 1268.77 1435.95 1708.71 1874.81 1874.69 1708.19 1434.4 1268.79 1270.71 1281.54 1339.78 1344.49 1331.5 1302.06 1281.54 1271.28 1269.41 1430.7 1711.11 1884.82 1884.71 1710.6 1429.16 1269.44 1271.35 1281.66 1339.48 1343.83 1330.64 1301.59 1281.84 1272.23 1270.34 1423.8 1714.66 1898.41 1898.28 1714.13 1422.27 1270.36 1272.29 1281.96 1339.17 1343.06 1329.64 1301.13 1282.39 1273.57 1271.6 1415.72 1720.15 1916.6 1916.42 1719.53 1414.22 1271.61 1273.64 1282.53 1338.87 1342.12 1328.32 1300.62 1283.21 1275.33 1273.02 1408.19 1728.78 1940.49 1940.21 1728.01 1406.74 1273.04 1275.4 1283.35 1338.48 1340.86 1325.62 1299.12 1283.46 1276.46 1272.82 1404.47 1742.16 1971.19 1970.75 1741.15 1403.01 1272.84 1276.52 1283.57 1337.02 1338.2 1314.63 1289.23 1275.02 1268.4 1261.6 1399.89 1760.02 2009.15 2008.49 1758.86 1398.48 1261.51 1268.38 1275.06 1326.83 1327.14 1250.83 1224.84 1207.62 1195.41 1181.47 1376.51 1793.12 2060.2 2059.12 1791.16 1375.4 1181.5 1195.39 1207.56 1260.31 1262.69 1199.91 1173.65 1154.54 1139.83 1129.83 1166.73 1214.81 1222.11 1213.56 1189.39 1166.88 1130.01 1139.94 1154.6 1207.8 1211.35 1089.62 1063.63 1042.54 1027.28 1022.19 1030.43 1077.9 1079.38 1069.01 1047.48 1030.24 1020.08 1027.27 1042.89 1094.34 1100.06 752.003 741.602 737.728 741.694 755.864 779.368 837.167 859.54 853.387 818.128 781.73 752.934 742.308 736.552 760.027 757.657 622.165 745.326 
</DataArray>
<DataArray type="Float64" Name="cell variable 5" format="ascii">
0.00143734 0.00143734 0.00143734 0.00143734 0.00143734 0.00143734 0.00143734 0.00143734 0.00143734 0.00143734 0.00143734 0.00143734 0.00143734 0.00143734 0.00143734 0.00143734 0.00143734 0.00143734 0.00143734 0.00143734 0.00143734 0.00143734 0.00143734 0.00143734 0.00143734 0.00143734 0.00143734 0.00143734 0.00143734 0.00143734 0.00143734 0.00143734 0.00143734 0.00143734 0.00143734 0.00143734 0.00143734 0.00143734 0.00143734 0.00143734 0.00143734 0.00143734 0.00143734 0.00143734 0.00143734 0.00143734 0.00143734 0.00143734 0.0021723 0.00201099 0.00175068 0.0015025 0.00143734 0.00143734 0.00143734 0.00143734 0.00143734 0.00143734 0.00143734 0.00143734 0.0015025 0.00175068 0.00201099 0.0021723 0.00245785 0.00223394 0.00187237 0.00152773 0.00143734 0.00143734 0.00143734 0.00143734 0.00143734 0.00143734 0.00143734 0.00143734 0.00152773 0.00187237 0.00223394 0.00245785 0.0026233 0.0023633 0.00194296 0.00154242 0.00143734 0.00143734 0.00143734 0.00143734 0.00143734 0.00143734 0.00143734 0.00143734 0.00154242 0.00194296 0.0023633 0.0026233 0.00274372 0.00245689 0.00199439 0.00155328 0.00143734 0.00143734 0.00143734 0.00143734 0.00143734 0.00143734 0.00143734 0.00143734 0.00155328 0.00199439 0.00245689 0.00274372 0.00283762 0.00253035 0.00203431 0.00156159 0.00143734 0.00143734 0.00143734 0.00143734 0.00143734 0.00143734 0.00143734 0.00143734 0.00156159 0.00203431 0.00253035 0.00283762 0.00291332 0.00258944 0.00206657 0.0015683 0.00143734 0.00143734 0.00143734 0.00143734 0.00143734 0.00143734 0.00143734 0.00143734 0.0015683 0.00206657 0.00258944 0.00291332 0.00297529 0.00263767 0.00209308 0.00157372 0.00143734 0.00143734 0.00143734 0.00143734 0.00143734 0.00143734 0.00143734 0.00143734 0.00157372 0.00209308 0.00263767 0.00297529 0.00302544 0.00267696 0.00211448 0.0015782 0.00143734 0.00143734 0.00143734 0.00143734 0.00143734 0.00143734 0.00143734 0.00143734 0.0015782 0.00211448 0.00267696 0.00302544 0.00306568 0.00270858 0.00213173 0.00158171 0.00143734 0.00143734 0.00143734 0.00143734 0.00143734 0.00143734 0.00143734 0.00143734 0.00158171 0.00213173 0.00270858 0.00306568 0.00309698 0.00273286 0.00214483 0.00158458 0.00143734 0.00143734 0.00143734 0.00143734 0.00143734 0.00143734 0.00143734 0.00143734 0.00158458 0.00214483 0.00273286 0.00309698 0.00311998 0.00275074 0.00215473 0.0015865 0.00143734 0.00143734 0.00143734 0.00143734 0.00143734 0.00143734 0.00143734 0.00143734 0.0015865 0.00215473 0.00275074 0.00311998 0.00313531 0.00276256 0.00216112 0.0015881 0.00143734 0.00143734 0.00143734 0.00143734 0.00143734 0.00143734 0.00143734 0.00143734 0.0015881 0.00216112 0.00276256 0.00313531 0.00314266 0.00276863 0.00216431 0.00158874 0.00143734 0.00143734 0.00143734 0.00143734 0.00143734 0.00143734 0.00143734 0.00143734 0.00158874 0.00216431 0.00276863 0.00314266 0.00314266 0.00276863 0.00216431 0.00158874 0.00143734 0.00143734 0.00143734 0.00143734 0.00143734 0.00143734 0.00143734 0.00143734 0.00158874 0.00216431 0.00276863 0.00314266 0.00313531 0.00276256 0.00216112 0.0015881 0.00143734 0.00143734 0.00143734 0.00143734 0.00143734 0.00143734 0.00143734 0.00143734 0.0015881 0.00216112 0.00276256 0.00313531 0.00311998 0.00275074 0.00215473 0.0015865 0.00143734 0.00143734 0.00143734 0.00143734 0.00143734 0.00143734 0.00143734 0.00143734 0.0015865 0.00215473 0.00275074 0.00311998 0.00309698 0.00273286 0.00214483 0.00158458 0.00143734 0.00143734 0.00143734 0.00143734 0.00143734 0.00143734 0.00143734 0.00143734 0.00158458 0.00214483 0.00273286 0.00309698 0.00306568 0.00270858 0.00213173 0.00158171 0.00143734 0.00143734 0.00143734 0.00143734 0.00143734 0.00143734 0.00143734 0.00143734 0.00158171 0.00213173 0.00270858 0.00306568 0.00302544 0.00267696 0.00211448 0.0015782 0.00143734 0.00143734 0.00143734 0.00143734 0.00143734 0.00143734 0.00143734 0.00143734 0.0015782 0.00211448 0.00267696 0.00302544 0.00297529 0.00263767 0.00209308 0.00157372 0.00143734 0.00143734 0.00143734 0.00143734 0.00143734 0.00143734 0.00143734 0.00143734 0.00157372 0.00209308 0.00263767 0.00297529 0.00291332 0.00258944 0.00206657 0.0015683 0.00143734 0.00143734 0.00143734 0.00143734 0.00143734 0.00143734 0.00143734 0.00143734 0.0015683 0.00206657 0.00258944 0.00291332 0.00283762 0.00253035 0.00203431 0.00156159 0.00143734 0.00143734 0.00143734 0.00143734 0.00143734 0.00143734 0.00143734 0.00143734 0.00156159 0.00203431 0.00253035 0.00283762 0.00274372 0.00245689 0.00199439 0.00155328 0.00143734 0.00143734 0.00143734 0.00143734 0.00143734 0.00143734 0.00143734 0.00143734 0.00155328 0.00199439 0.00245689 0.00274372 0.0026233 0.0023633 0.00194296 0.00154242 0.00143734 0.00143734 0.00143734 0.00143734 0.00143734 0.00143734 0.00143734 0.00143734 0.00154242 0.00194296 0.0023633 0.0026233 0.00245785 0.00223394 0.00187237 0.00152773 0.00143734 0.00143734 0.00143734 0.00143734 0.00143734 0.00143734 0.00143734 0.00143734 0.00152773 0.00187237 0.00223394 0.00245785 0.0021723 0.00201099 0.00175068 0.0015025 0.00143734 0.00143734 0.00143734 0.00143734 0.00143734 0.00143734 0.00143734 0.00143734 0.0015025 0.00175068 0.00201099 0.0021723 0.00143734 0.00143734 0.00143734 0.00143734 0.00143734 0.00143734 0.00143734 0.00143734 0.00143734 0.00143734 0.00143734 0.00143734 0.00143734 0.00143734 0.00143734 0.00143734 0.00143734 0.00143734 0.00143734 0.00143734 0.00143734 0.00143734 0.00143734 0.00143734 0.00143734 0.00143734 0.00143734 0.00143734 0.00143734 0.00143734 0.00143734 0.00143734 0.00143734 0.00143734 0.00143734 0.00143734 0.00143734 0.00143734 0.00143734 0.00143734 0.00143734 0.00143734 0.00143734 0.00143734 0.00143734 0.00143734 0.00143734 0.00143734 0.00143734 0.00143734 
</DataArray>
<DataArray type="Float64" Name="cell variable 6" format="ascii">
1 1 1 1 1 1 1 1 1 1 1 1 1 1 1 1 1 1 1 1 1 1 1 1 1 1 1 1 1 1 1 1 1 1 1 1 1 1 1 1 1 1 1 1 1 1 1 1 1 1 1 1 1 1 1 1 1 1 1 1 1 1 1 1 1 1 1 1 1 1 1 1 1 1 1 1 1 1 1 1 1 1 1 1 1 1 1 1 1 1 1 1 1 1 1 1 1 1 1 1 1 1 1 1 1 1 1 1 1 1 1 1 1 1 1 1 1 1 1 1 1 1 1 1 1 1 1 1 1 1 1 1 1 1 1 1 1 1 1 1 1 1 1 1 1 1 1 1 1 1 1 1 1 1 1 1 1 1 1 1 1 1 1 1 1 1 1 1 1 1 1 1 1 1 1 1 1 1 1 1 1 1 1 1 1 1 1 1 1 1 1 1 1 1 1 1 1 1 1 1 1 1 1 1 1 1 1 1 1 1 1 1 1 1 1 1 1 1 1 1 1 1 1 1 1 1 1 1 1 1 1 1 1 1 1 1 1 1 1 1 1 1 1 1 1 1 1 1 1 1 1 1 1 1 1 1 1 1 1 1 1 1 1 1 1 1 1 1 1 1 1 1 1 1 1 1 1 1 1 1 1 1 1 1 1 1 1 1 1 1 1 1 1 1 1 1 1 1 1 1 1 1 1 1 1 1 1 1 1 1 1 1 1 1 1 1 1 1 1 1 1 1 1 1 1 1 1 1 1 1 1 1 1 1 1 1 1 1 1 1 1 1 1 1 1 1 1 1 1 1 1 1 1 1 1 1 1 1 1 1 1 1 1 1 1 1 1 1 1 1 1 1 1 1 1 1 1 1 1 1 1 1 1 1 1 1 1 1 1 1 1 1 1 1 1 1 1 1 1 1 1 1 1 1 1 1 1 1 1 1 1 1 1 1 1 1 1 1 1 1 1 1 1 1 1 1 1 1 1 1 1 1 1 1 1 1 1 1 1 1 1 1 1 1 1 1 1 1 1 1 1 1 1 1 1 1 1 1 1 1 1 1 1 1 1 1 1 1 1 1 1 1 1 1 1 1 1 1 1 1 1 1 1 1 1 1 1 1 1 1 1 1 1 1 1 1 1 1 1 1 1 1 1 1 1 1 1 1 1 1 1 1 1 1 
</DataArray>
<DataArray type="Float64" Name="cell variable 7" format="ascii">
0 0 0 0 0 0 0 0 0 0 0 0 0 0 0 0 0 0 0 0 0 0 0 0 0 0 0 0 0 0 0 0 0 0 0 0 0 0 0 0 0 0 0 0 0 0 0 0 0 0 0 0 0 0 0 0 0 0 0 0 0 0 0 0 0 0 0 0 0 0 0 0 0 0 0 0 0 0 0 0 0 0 0 0 0 0 0 0 0 0 0 0 0 0 0 0 0 0 0 0 0 0 0 0 0 0 0 0 0 0 0 0 0 0 0 0 0 0 0 0 0 0 0 0 0 0 0 0 0 0 0 0 0 0 0 0 0 0 0 0 0 0 0 0 0 0 0 0 0 0 0 0 0 0 0 0 0 0 0 0 0 0 0 0 0 0 0 0 0 0 0 0 0 0 0 0 0 0 0 0 0 0 0 0 0 0 0 0 0 0 0 0 0 0 0 0 0 0 0 0 0 0 0 0 0 0 0 0 0 0 0 0 0 0 0 0 0 0 0 0 0 0 0 0 0 0 0 0 0 0 0 0 0 0 0 0 0 0 0 0 0 0 0 0 0 0 0 0 0 0 0 0 0 0 0 0 0 0 0 0 0 0 0 0 0 0 0 0 0 0 0 0 0 0 0 0 0 0 0 0 0 0 0 0 0 0 0 0 0 0 0 0 0 0 0 0 0 0 0 0 0 0 0 0 0 0 0 0 0 0 0 0 0 0 0 0 0 0 0 0 0 0 0 0 0 0 0 0 0 0 0 0 0 0 0 0 0 0 0 0 0 0 0 0 0 0 0 0 0 0 0 0 0 0 0 0 0 0 0 0 0 0 0 0 0 0 0 0 0 0 0 0 0 0 0 0 0 0 0 0 0 0 0 0 0 0 0 0 0 0 0 0 0 0 0 0 0 0 0 0 0 0 0 0 0 0 0 0 0 0 0 0 0 0 0 0 0 0 0 0 0 0 0 0 0 0 0 0 0 0 0 0 0 0 0 0 0 0 0 0 0 0 0 0 0 0 0 0 0 0 0 0 0 0 0 0 0 0 0 0 0 0 0 0 0 0 0 0 0 0 0 0 0 0 0 0 0 0 0 0 0 0 0 0 0 0 0 0 0 0 0 0 0 0 0 0 0 0 0 0 0 0 0 0 0 0 0 0 0 0 0 0 1 1 
</DataArray>
<DataArray type="Float64" Name="cell variable 8" format="ascii">
11.25 33.75 56.25 78.75 101.25 123.75 146.25 168.75 191.25 213.75 236.25 258.75 281.25 303.75 326.25 348.75 11.25 33.75 56.25 78.75 101.25 123.75 146.25 168.75 191.25 213.75 236.25 258.75 281.25 303.75 326.25 348.75 11.25 33.75 56.25 78.75 101.25 123.75 146.25 168.75 191.25 213.75 236.25 258.75 281.25 303.75 326.25 348.75 11.25 33.75 56.25 78.75 101.25 123.75 146.25 168.75 191.25 213.75 236.25 258.75 281.25 303.75 326.25 348.75 11.25 33.75 56.25 78.75 101.25 123.75 146.25 168.75 191.25 213.75 236.25 258.75 281.25 303.75 326.25 348.75 11.25 33.75 56.25 78.75 101.25 123.75 146.25 168.75 191.25 213.75 236.25 258.75 281.25 303.75 326.25 348.75 11.25 33.75 56.25 78.75 101.25 123.75 146.25 168.75 191.25 213.75 236.25 258.75 281.25 303.75 326.25 348.75 11.25 33.75 56.25 78.75 101.25 123.75 146.25 168.75 191.25 213.75 236.25 258.75 281.25 303.75 326.25 348.75 11.25 33.75 56.25 78.75 101.25 123.75 146.25 168.75 191.25 213.75 236.25 258.75 281.25 303.75 326.25 348.75 11.25 33.75 56.25 78.75 101.25 123.75 146.25 168.75 191.25 213.75 236.25 258.75 281.25 303.75 326.25 348.75 11.25 33.75 56.25 78.75 101.25 123.75 146.25 168.75 191.25 213.75 236.25 258.75 281.25 303.75 326.25 348.75 11.25 33.75 56.25 78.75 101.25 123.75 146.25 168.75 191.25 213.75 236.25 258.75 281.25 303.75 326.25 348.75 11.25 33.75 56.25 78.75 101.25 123.75 146.25 168.75 191.25 213.75 236.25 258.75 281.25 303.75 326.25 348.75 11.25 33.75 56.25 78.75 101.25 123.75 146.25 168.75 191.25 213.75 236.25 258.75 281.25 303.75 326.25 348.75 11.25 33.75 56.25 78.75 101.25 123.75 146.25 168.75 191.25 213.75 236.25 258.75 281.25 303.75 326.25 348.75 11.25 33.75 56.25 78.75 101.25 123.75 146.25 168.75 191.25 213.75 236.25 258.75 281.25 303.75 326.25 348.75 11.25 33.75 56.25 78.75 101.25 123.75 146.25 168.75 191.25 213.75 236.25 258.75 281.25 303.75 326.25 348.75 11.25 33.75 56.25 78.75 101.25 123.75 146.25 168.75 191.25 213.75 236.25 258.75 281.25 303.75 326.25 348.75 11.25 33.75 56.25 78.75 101.25 123.75 146.25 168.75 191.25 213.75 236.25 258.75 281.25 303.75 326.25 348.75 11.25 33.75 56.25 78.75 101.25 123.75 146.25 168.75 191.25 213.75 236.25 258.75 281.25 303.75 326.25 348.75 11.25 33.75 56.25 78.75 101.25 123.75 146.25 168.75 191.25 213.75 236.25 258.75 281.25 303.75 326.25 348.75 11.25 33.75 56.25 78.75 101.25 123.75 146.25 168.75 191.25 213.75 236.25 258.75 281.25 303.75 326.25 348.75 11.25 33.75 56.25 78.75 101.25 123.75 146.25 168.75 191.25 213.75 236.25 258.75 281.25 303.75 326.25 348.75 11.25 33.75 56.25 78.75 101.25 123.75 146.25 168.75 191.25 213.75 236.25 258.75 281.25 303.75 326.25 348.75 11.25 33.75 56.25 78.75 101.25 123.75 146.25 168.75 191.25 213.75 236.25 258.75 281.25 303.75 326.25 348.75 11.25 33.75 56.25 78.75 101.25 123.75 146.25 168.75 191.25 213.75 236.25 258.75 281.25 303.75 326.25 348.75 11.25 33.75 56.25 78.75 101.25 123.75 146.25 168.75 191.25 213.75 236.25 258.75 281.25 303.75 326.25 348.75 11.25 33.75 56.25 78.75 101.25 123.75 146.25 168.75 191.25 213.75 236.25 258.75 281.25 303.75 326.25 348.75 11.25 33.75 56.25 78.75 101.25 123.75 146.25 168.75 191.25 213.75 236.25 258.75 281.25 303.75 326.25 348.75 11.25 33.75 56.25 78.75 101.25 123.75 146.25 168.75 191.25 213.75 236.25 258.75 281.25 303.75 326.25 348.75 11.25 33.75 56.25 78.75 101.25 123.75 146.25 168.75 191.25 213.75 236.25 258.75 281.25 303.75 326.25 348.75 11.25 33.75 56.25 78.75 101.25 123.75 146.25 168.75 191.25 213.75 236.25 258.75 281.25 303.75 326.25 348.75 0 0 
</DataArray>
</CellData>
</Piece>
</UnstructuredGrid>
</VTKFile>
