<VTKFile type="UnstructuredGrid" version="0.1">
<UnstructuredGrid>
<Piece  NumberOfPoints="    2080" NumberOfCells="     514">
<Points>
<DataArray type="Float64" NumberOfComponents="3" format="ascii">
-81.4737 1005.98 0.964332
-77.5434 1009.28 26.7367
-62.7801 983.564 28.8748
-67.0704 980.012 1.01386
-76.6599 1010 29.4891
-65.36 1019.27 51.3107
-49.635 994.302 55.1862
-61.8966 984.29 31.6272
-63.7239 1020.61 53.4117
-46.7873 1034.41 67.9358
-29.6497 1010.55 72.9669
-47.9988 995.636 57.2872
-44.6531 1036.15 69.0673
-24.7613 1052.45 74.1161
-5.9401 1029.89 79.5517
-27.5155 1012.29 74.0983
-22.4655 1054.35 74.1111
-2.7248 1070.78 68.9736
17.7502 1049.56 74.0087
-3.64427 1031.78 79.5466
-0.624087 1072.56 67.8393
15.9364 1086.78 53.322
37.7617 1066.86 57.2271
19.8509 1051.34 72.8744
17.5272 1088.18 51.2235
28.49 1097.95 29.4495
51.1435 1078.92 31.5496
39.3525 1068.26 55.1287
29.3438 1098.72 26.6969
33.1878 1102.18 0.918975
56.1069 1083.47 0.930112
51.9972 1079.69 28.7969
33.188 1102.18 -2.06521
29.3475 1098.71 -27.843
52.0031 1079.67 -29.9125
56.1071 1083.47 -2.05407
28.4949 1097.94 -30.5945
17.5447 1088.13 -52.3629
39.3829 1068.21 -56.2183
51.1504 1078.9 -32.664
15.9563 1086.73 -54.4597
-0.583681 1072.47 -68.9617
19.9061 1051.25 -73.949
37.7946 1066.81 -58.3151
-2.68247 1070.69 -70.0945
-22.4103 1054.23 -75.2166
-3.57327 1031.67 -80.606
17.8073 1049.47 -75.0818
-24.705 1052.34 -75.22
-44.5899 1036.03 -70.1561
-27.4332 1012.17 -75.1412
-5.86794 1029.77 -80.6094
-46.7223 1034.29 -69.0228
-63.6285 1020.47 -54.4747
-47.9067 995.526 -58.3095
-29.5657 1010.43 -74.0079
-65.2646 1019.14 -52.371
-76.5708 1009.91 -30.5426
-61.8381 984.21 -32.6009
-49.5427 994.193 -56.2058
-77.4594 1009.18 -27.7877
-81.4701 1005.98 -2.01819
-67.0667 980.007 -1.96866
-62.7268 983.49 -29.8461
-65.1598 977.151 1.09181
-60.8695 980.703 28.9528
-40.8343 954.724 29.5795
-45.231 951.121 1.12178
-47.6773 991.474 55.4
-27.3642 965.635 56.5435
-39.9037 955.483 32.4677
-59.9389 981.462 31.8409
-27.608 1007.78 73.2844
-6.88061 982.153 74.8023
-25.6439 967.03 58.7483
-45.957 992.869 57.6048
-3.78888 1027.2 79.9263
17.4385 1001.83 81.6088
-4.63688 983.972 75.9909
-25.3642 1009.6 74.473
20.0194 1046.96 74.3847
41.7219 1021.89 75.9553
19.8523 1003.81 81.6051
-1.37502 1029.18 79.9226
40.1297 1064.36 57.5488
62.0162 1039.74 58.7442
43.9214 1023.76 74.7666
22.2188 1048.83 73.196
53.5777 1076.49 31.7655
75.4936 1052.23 32.4014
63.6732 1041.22 56.54
41.7866 1065.83 55.3446
58.5731 1081.09 1.00611
80.4981 1056.94 1.02665
76.3794 1053.04 29.5089
54.4634 1077.31 28.8729
54.4694 1077.29 -29.9847
76.3886 1053 -30.5713
80.4984 1056.94 -2.10571
58.5734 1081.09 -2.12624
41.818 1065.79 -56.4288
63.7149 1041.16 -57.5576
75.5046 1052.19 -33.4611
53.5855 1076.47 -32.8745
22.2753 1048.74 -74.2644
43.9825 1023.67 -75.7728
62.0608 1039.68 -59.7593
40.1639 1064.3 -58.6305
-1.30297 1029.07 -80.9761
19.9262 1003.69 -82.5992
41.7848 1021.8 -76.9602
20.0776 1046.87 -75.4518
-25.281 1009.48 -75.5102
-4.55632 983.856 -76.9714
17.5135 1001.71 -82.6015
-3.71568 1027.08 -80.9784
-45.8651 992.76 -58.6216
-25.5653 966.928 -59.7164
-6.79944 982.037 -75.7813
-27.5241 1007.66 -74.32
-59.8827 981.384 -32.8083
-39.8666 955.408 -33.3793
-27.2874 965.535 -57.508
-47.5873 991.367 -56.4132
-60.8176 980.63 -29.9162
-65.1575 977.147 -2.03879
-45.2288 951.118 -2.00882
-40.8016 954.654 -30.4872
-42.9642 948.274 1.1441
-38.5674 951.877 29.6018
-17.6457 926.525 29.7251
-22.0799 922.932 1.1704
-37.6222 952.64 32.5259
-25.0827 962.792 56.6018
-4.05932 937.407 56.8076
-16.7005 927.288 32.6492
-23.3354 964.195 58.835
-4.57211 979.317 74.8891
16.6161 953.869 75.1464
-2.31207 938.809 59.0409
-2.29228 981.145 76.0942
19.7831 998.998 81.7121
41.1775 973.458 81.9776
18.8959 955.697 76.3515
22.2349 1000.99 81.7084
44.1045 1019.08 76.0585
65.6807 993.458 76.2822
43.6293 975.449 81.9739
46.3191 1020.97 74.8553
64.4139 1036.95 58.833
85.7819 1011.72 58.9993
67.8952 995.355 75.0789
66.0671 1038.47 56.6002
77.8875 1049.48 32.4617
99.0996 1024.6 32.5968
87.4351 1013.24 56.7666
78.7694 1050.32 29.5323
82.8881 1054.22 1.05006
104.061 1029.46 1.08721
99.9815 1025.44 29.6675
82.8889 1054.22 -2.12262
78.779 1050.29 -30.5882
100.001 1025.39 -30.6556
104.062 1029.46 -2.08547
77.8996 1049.44 -33.5149
66.1098 1038.41 -57.6114
87.4808 1013.16 -57.7263
99.1216 1024.55 -33.5822
64.4588 1036.89 -59.8416
46.3806 1020.88 -75.8551
67.9529 995.258 -76.0266
85.8297 1011.64 -59.9566
44.1673 1018.98 -77.0572
22.3087 1000.88 -82.6962
43.6971 975.336 -82.9092
65.7396 993.359 -77.2288
19.8577 998.885 -82.6986
-2.21216 981.029 -77.0685
18.9678 955.581 -77.274
41.2461 973.343 -82.9116
-4.49199 979.201 -75.8623
-23.2578 964.093 -59.7974
-2.24613 938.71 -59.9539
16.688 953.754 -76.0678
-25.0075 962.693 -57.5606
-37.5867 952.565 -33.4319
-16.676 927.215 -33.5044
-3.99584 937.31 -57.717
-38.5356 951.807 -30.5035
-42.9628 948.271 -2.02516
-22.0785 922.928 -1.99886
-17.6249 926.456 -30.576
-19.7707 920.12 1.17707
-15.3365 923.713 29.7317
5.37249 898.401 29.7723
0.868594 894.865 1.20106
-14.3798 924.47 32.662
-1.73859 934.589 56.8204
19.1507 909.123 56.8569
6.32924 899.158 32.7026
0.0284808 935.978 59.0561
18.9566 951.038 75.1616
40.0885 925.352 75.1662
20.9178 910.512 59.0925
21.2612 952.848 76.3656
43.5427 970.609 81.9917
64.9401 944.663 81.9576
42.393 927.162 76.3701
46.0226 972.581 81.9851
68.074 990.59 76.2934
89.7889 964.339 76.2654
67.42 946.635 81.951
70.3229 992.475 75.0775
88.2096 1008.84 58.9979
110.576 981.914 58.9336
92.0378 966.224 75.0495
89.8792 1010.34 56.7622
101.544 1021.7 32.5924
124.427 994.341 32.5902
112.246 983.421 56.6978
102.435 1022.54 29.6688
106.514 1026.56 1.08857
129.584 999.056 1.12545
125.318 995.177 29.6666
106.515 1026.56 -2.07879
102.455 1022.49 -30.6489
125.338 995.138 -30.5806
129.585 999.054 -2.04192
101.566 1021.65 -33.5713
89.925 1010.27 -57.7155
112.284 983.347 -57.6036
124.449 994.298 -33.503
88.2569 1008.76 -59.9498
70.38 992.378 -76.0198
92.0899 966.125 -75.9434
110.616 981.838 -59.8379
68.1323 990.491 -77.2344
46.0898 972.467 -82.9148
67.4816 946.52 -82.8321
89.8422 964.238 -77.158
43.6106 970.494 -82.9201
21.3324 952.733 -77.2825
42.4573 927.048 -77.2391
65.0023 944.548 -82.8375
19.0276 950.923 -76.0776
0.0934227 935.879 -59.9636
20.9745 910.416 -59.9532
40.1525 925.238 -76.0341
-1.67616 934.492 -57.7244
-14.3564 924.397 -33.5118
6.34625 899.087 -33.5051
19.2049 909.028 -57.714
-15.3161 923.645 -30.5772
-19.7698 920.117 -2.00006
0.86949 894.862 -1.97607
5.38647 898.335 -30.5705
3.13756 892.041 1.20442
7.64145 895.576 29.7757
27.8415 869.972 29.8038
23.2763 866.512 1.22849
8.61157 896.32 32.7066
21.433 906.284 56.8609
41.7974 880.473 56.8902
28.8116 870.715 32.7348
23.2231 907.65 59.0956
42.3938 922.489 75.1692
62.9914 896.379 75.1954
43.5875 881.838 59.1249
44.7268 924.269 76.3707
67.2739 941.77 81.9582
88.1456 915.306 81.9772
65.3244 898.159 76.3969
69.7861 943.705 81.9502
92.1551 961.409 76.2645
113.342 934.544 76.2841
90.6578 917.241 81.9692
94.452 963.237 75.0494
112.991 978.927 58.9334
134.687 951.458 58.964
115.639 936.372 75.0689
114.72 980.373 56.6982
126.9 991.293 32.5906
149.004 963.362 32.619
136.416 952.904 56.7288
127.827 992.096 29.6693
132.093 995.975 1.12814
154.345 967.884 1.15621
149.93 964.165 29.6978
132.094 995.973 -2.03763
127.847 992.058 -30.5763
149.947 964.129 -30.5492
154.346 967.883 -2.00956
126.922 991.252 -33.4972
114.757 980.3 -57.5977
136.451 952.834 -57.5741
149.023 963.323 -33.47
113.03 978.851 -59.8321
94.5037 963.138 -75.9376
115.688 936.274 -75.9047
134.723 951.384 -59.8085
92.2079 961.307 -77.1516
69.8473 943.59 -82.8258
90.7156 917.128 -82.7942
113.392 934.443 -77.1188
67.3355 941.654 -82.8326
44.7904 924.154 -77.2343
65.3834 898.047 -77.2115
88.2039 915.192 -82.8011
42.4571 922.376 -76.0319
23.2791 907.553 -59.9509
43.6382 881.745 -59.9323
63.0501 896.269 -76.009
21.4866 906.19 -57.7128
8.62792 896.248 -33.5039
28.8242 870.646 -33.4841
41.8457 880.381 -57.6942
7.65516 895.51 -30.5686
3.13817 892.037 -1.97413
23.2769 866.508 -1.95006
27.8514 869.907 -30.5488
25.485 863.651 1.23144
30.0502 867.112 29.8068
49.6662 841.147 29.8338
45.0427 837.772 1.25527
31.0329 867.838 32.7384
44.0186 877.596 56.8938
63.7972 851.392 56.9293
50.6488 841.873 32.7654
45.8313 878.931 59.1291
65.2352 893.472 75.1996
85.2572 866.921 75.2475
65.6099 852.727 59.1645
67.5976 895.213 76.4011
90.4187 912.359 81.9814
110.739 885.396 82.036
87.6195 868.661 76.4491
92.9651 914.249 81.9728
115.649 931.552 76.2877
136.309 904.122 76.3309
113.286 887.286 82.0273
117.988 933.323 75.0736
137.037 948.409 58.9687
158.115 920.446 59.0138
138.649 905.893 75.1167
138.813 949.799 56.7331
151.401 960.257 32.6234
172.816 931.851 32.6547
159.891 921.836 56.7783
152.355 961.026 29.7011
156.771 964.746 1.15957
178.31 936.18 1.18593
173.771 932.62 29.7324
156.772 964.744 -2.0069
152.372 960.991 -30.5465
173.785 932.587 -30.5253
178.311 936.178 -1.98054
151.419 960.218 -33.4684
138.847 949.729 -57.5725
159.922 921.767 -57.5658
172.832 931.814 -33.4472
137.073 948.336 -59.8073
118.037 933.225 -75.9036
138.695 905.797 -75.8958
158.148 920.374 -59.8006
115.699 931.451 -77.1167
93.0226 914.136 -82.7921
113.34 887.175 -82.797
136.357 904.023 -77.109
90.4767 912.246 -82.7998
67.6562 895.101 -77.2102
87.6744 868.553 -77.2097
110.794 885.285 -82.8047
65.2934 893.362 -76.0078
45.8815 878.837 -59.9311
65.6564 852.636 -59.9189
85.3117 866.813 -76.0074
44.0665 877.504 -57.6925
31.045 867.769 -33.4824
50.6584 841.805 -33.4618
63.8413 851.303 -57.6803
30.0599 867.047 -30.5464
25.4854 863.648 -1.94771
45.0431 837.769 -1.92388
49.6733 841.083 -30.5258
47.1851 834.871 1.25815
51.8086 838.245 29.8367
70.8146 811.898 29.8631
66.1325 808.618 1.2816
52.8038 838.953 32.7691
65.9521 848.472 56.933
85.1249 821.864 56.9698
71.8098 812.606 32.7955
67.788 849.773 59.1696
87.4353 863.967 75.2526
106.864 836.977 75.3049
86.9608 823.165 59.2064
89.8288 865.663 76.4552
112.948 882.398 82.0421
132.693 854.955 82.102
109.257 838.674 76.5075
115.531 884.237 82.033
138.555 901.073 76.3366
158.646 873.132 76.3868
135.275 856.794 82.093
140.934 902.788 75.1222
160.401 917.34 59.0192
180.859 888.898 59.061
161.026 874.848 75.1724
162.216 918.678 56.7829
175.141 928.693 32.6593
195.892 899.84 32.6894
182.675 890.236 56.8247
176.12 929.43 29.7357
180.659 932.99 1.18926
201.518 903.985 1.21462
196.871 900.577 29.7658
180.66 932.988 -1.97814
176.134 929.397 -30.5229
196.884 900.546 -30.5024
201.519 903.983 -1.95278
175.157 928.657 -33.4462
162.247 918.61 -57.5647
182.703 890.171 -57.5566
195.906 899.806 -33.4257
160.433 917.269 -59.8004
140.981 902.692 -75.8956
161.07 874.753 -75.8968
180.89 888.83 -59.7923
138.602 900.974 -77.1092
115.585 884.126 -82.7972
135.326 856.685 -82.8089
158.691 873.036 -77.1103
113.003 882.287 -82.8054
89.8834 865.555 -77.2104
109.308 838.567 -77.2154
132.744 854.846 -82.817
87.4895 863.859 -76.0071
67.8342 849.682 -59.9187
87.0039 823.076 -59.9087
106.914 836.872 -76.0121
65.9959 848.383 -57.6787
52.813 838.885 -33.4603
71.817 812.539 -33.4399
85.1657 821.777 -57.6687
51.8156 838.182 -30.5235
47.1854 834.868 -1.92152
66.1328 808.614 -1.89807
70.8196 811.836 -30.5031
68.2065 805.674 1.28441
72.8886 808.955 29.8659
91.2744 782.221 29.8914
86.5322 779.039 1.30737
73.8966 809.642 32.7992
87.2118 818.9 56.9734
105.769 791.89 57.0082
92.2824 782.909 32.8247
89.0717 820.164 59.2114
108.975 833.977 75.3099
127.796 806.559 75.3584
107.629 793.154 59.2462
111.4 835.625 76.5136
134.836 851.906 82.1081
153.982 824.003 82.1629
130.222 808.207 76.562
137.455 853.691 82.0989
160.826 870.029 76.3927
180.318 841.612 76.4403
156.601 825.788 82.1537
163.244 871.689 75.1775
183.078 885.739 59.0661
202.904 856.834 59.103
182.736 843.272 75.2252
184.928 887.028 56.8289
198.145 896.632 32.6936
218.232 867.342 32.722
204.755 858.123 56.8658
199.145 897.338 29.769
203.793 900.746 1.2178
223.976 871.313 1.24229
219.232 868.048 29.7973
203.793 900.745 -1.95043
199.158 897.307 -30.5001
219.244 868.019 -30.4796
223.976 871.311 -1.92594
198.16 896.598 -33.4245
184.956 886.962 -57.5554
204.781 858.06 -57.544
218.245 867.309 -33.404
183.108 885.671 -59.792
163.288 871.595 -75.8965
182.777 843.18 -75.8966
202.932 856.768 -59.7806
160.871 869.933 -77.1109
137.506 853.583 -82.8094
156.649 825.682 -82.8173
180.36 841.519 -77.111
134.887 851.797 -82.8178
111.451 835.519 -77.2162
130.27 808.104 -77.2184
154.03 823.897 -82.8257
109.025 833.872 -76.0119
89.1145 820.076 -59.9085
107.669 793.068 -59.8975
127.844 806.456 -76.0141
87.2523 818.814 -57.6672
73.9035 809.576 -33.4384
92.2875 782.843 -33.418
105.807 791.806 -57.6562
72.8935 808.893 -30.5007
68.2067 805.671 -1.89572
86.5324 779.036 -1.87275
91.2774 782.16 -30.4804
88.537 776.053 1.31008
93.2792 779.235 29.8941
111.039 752.119 29.9186
106.236 749.039 1.33248
94.3002 779.901 32.8281
107.787 788.883 57.0116
125.722 761.477 57.0433
112.06 752.785 32.8525
109.672 790.108 59.2507
129.839 803.512 75.3629
148.042 775.678 75.405
127.607 762.703 59.2824
132.298 805.11 76.5674
156.058 820.906 82.1683
174.588 792.564 82.2151
150.501 777.276 76.6095
158.714 822.634 82.1589
182.43 838.459 76.4456
201.3 809.589 76.4869
177.244 794.292 82.2058
184.885 840.062 75.2297
205.053 853.624 59.1075
224.235 824.27 59.1402
203.755 811.192 75.271
206.935 854.865 56.8696
220.412 864.084 32.7257
239.828 834.365 32.7523
226.116 825.511 56.9023
221.431 864.762 29.8003
226.175 868.027 1.2453
245.678 838.173 1.26893
240.847 835.044 29.8269
226.176 868.025 -1.92362
221.443 864.733 -30.4773
240.858 835.016 -30.4568
245.678 838.172 -1.89998
220.425 864.052 -33.4025
206.962 854.802 -57.5425
226.141 825.45 -57.5285
239.84 834.334 -33.382
205.081 853.559 -59.7799
184.925 839.971 -75.8959
203.792 811.103 -75.8911
224.26 824.207 -59.7659
182.472 838.365 -77.1111
158.761 822.529 -82.8174
177.288 794.19 -82.8187
201.338 809.498 -77.1064
156.105 820.8 -82.826
132.345 805.007 -77.2187
150.546 777.175 -77.2158
174.632 792.461 -82.8273
129.886 803.41 -76.0135
109.711 790.022 -59.897
127.644 762.618 -59.8841
148.086 775.579 -76.0107
107.825 788.798 -57.6546
94.3051 779.836 -33.4164
112.063 752.721 -33.3962
125.758 761.395 -57.6418
93.2821 779.174 -30.4781
88.5371 776.05 -1.87042
106.236 749.036 -1.84802
111.04 752.059 -30.4579
108.171 746.011 1.33507
112.974 749.091 29.9212
130.104 721.597 29.9444
125.238 718.624 1.35684
114.008 749.734 32.8556
127.671 758.427 57.0464
144.976 730.636 57.075
131.138 722.241 32.8788
129.58 759.612 59.2863
150.015 772.588 75.4089
167.589 744.351 75.4453
146.885 731.82 59.3149
152.507 774.132 76.6142
176.594 789.42 82.2198
194.491 760.656 82.2596
170.081 745.895 76.6505
179.286 791.09 82.2103
203.342 806.386 76.4914
221.571 777.083 76.5271
197.184 762.326 82.2502
205.832 807.933 75.2749
226.312 821.012 59.1441
244.835 791.227 59.1733
224.061 778.63 75.3106
228.223 822.205 56.9057
241.935 831.06 32.7557
260.674 800.923 32.7807
246.746 792.42 56.9348
242.971 831.711 29.8297
247.802 834.84 1.27177
266.619 804.575 1.29456
261.71 801.574 29.8547
247.803 834.839 -1.89768
242.982 831.683 -30.4545
261.719 801.547 -30.434
266.62 804.573 -1.87489
241.947 831.029 -33.3802
228.248 822.145 -57.5268
246.768 792.362 -57.5109
260.685 800.893 -33.3597
226.338 820.948 -59.7648
205.869 807.845 -75.89
224.096 778.544 -75.8811
244.858 791.166 -59.7489
203.381 806.296 -77.1059
179.33 790.988 -82.8182
197.225 762.227 -82.814
221.607 776.995 -77.0969
176.638 789.317 -82.827
152.551 774.032 -77.2155
170.122 745.798 -77.2082
194.532 760.557 -82.8228
150.059 772.488 -76.0097
129.617 759.528 -59.8832
146.92 731.738 -59.8686
167.63 744.254 -76.0025
127.705 758.345 -57.64
114.011 749.671 -33.3944
131.139 722.179 -33.3742
145.008 730.555 -57.6254
112.975 749.031 -30.4556
108.171 746.008 -1.84571
125.238 718.621 -1.82395
130.103 721.539 -30.4354
127.103 715.555 1.35932
131.968 718.528 29.9469
148.461 690.668 29.9689
143.534 687.803 1.38038
133.016 719.149 32.8817
146.854 727.543 57.0778
163.522 699.375 57.1037
149.509 691.289 32.9037
148.788 728.686 59.3184
169.491 741.217 75.4488
186.425 712.59 75.4804
165.456 700.518 59.3443
172.016 742.706 76.6545
196.426 757.467 82.2636
213.677 728.298 82.2979
188.949 714.079 76.6861
199.155 759.077 82.2541
223.542 773.834 76.531
241.115 744.115 76.5624
216.406 729.908 82.2884
226.066 775.324 75.314
246.84 787.921 59.1767
264.693 757.72 59.203
243.639 745.605 75.3454
248.778 789.069 56.9379
262.706 797.571 32.7837
280.759 767.028 32.8073
266.631 758.868 56.9642
263.758 798.196 29.8574
268.667 801.197 1.29724
286.793 770.529 1.31917
281.811 767.653 29.8809
268.668 801.195 -1.87261
263.768 798.169 -30.4317
281.82 767.627 -30.4115
286.793 770.528 -1.85067
262.717 797.542 -33.3579
248.8 789.011 -57.509
266.651 758.812 -57.4919
280.769 767 -33.3377
246.863 787.86 -59.7474
226.1 775.238 -75.8796
243.671 745.523 -75.868
264.714 757.662 -59.7304
223.577 773.746 -77.096
199.195 758.978 -82.8131
216.443 729.812 -82.8047
241.148 744.031 -77.0844
196.467 757.368 -82.8219
172.057 742.609 -77.2074
188.987 713.985 -77.1969
213.715 728.202 -82.8136
169.532 741.121 -76.0012
148.822 728.604 -59.8674
165.488 700.438 -59.8515
186.463 712.496 -75.9907
146.886 727.463 -57.6235
133.017 719.087 -33.3724
149.508 691.228 -33.3524
163.552 699.297 -57.6076
131.967 718.47 -30.4331
127.103 715.552 -1.82168
143.534 687.8 -1.80061
148.459 690.611 -30.4132
145.328 684.694 1.38275
150.255 687.558 29.9713
166.107 659.34 29.9923
161.119 656.587 1.40307
151.316 688.156 32.9064
165.329 696.242 57.1063
181.353 667.709 57.13
167.168 659.938 32.9274
167.287 697.342 59.3473
188.256 709.414 75.4834
204.54 680.411 75.5111
183.311 668.809 59.371
190.812 710.847 76.6895
215.54 725.066 82.3013
232.133 695.509 82.3309
207.096 681.844 76.7172
218.304 726.614 82.2918
243.013 740.822 76.5658
259.917 710.706 76.5935
234.896 697.057 82.3214
245.57 742.254 75.3485
266.623 754.369 59.2061
283.795 723.77 59.2302
262.473 712.138 75.3762
268.588 755.471 56.967
282.715 763.631 32.81
300.074 732.695 32.8322
285.76 724.872 56.991
283.782 764.231 29.8835
288.764 767.107 1.3217
306.19 736.049 1.34278
301.141 733.294 29.9056
288.765 767.106 -1.84843
283.791 764.205 -30.4093
301.149 733.269 -30.3894
306.191 736.048 -1.82735
282.725 763.603 -33.3357
268.608 755.416 -57.49
285.778 724.818 -57.4723
300.084 732.667 -33.3158
266.645 754.311 -59.7287
245.601 742.172 -75.8664
262.502 712.059 -75.8527
283.815 723.714 -59.7111
243.045 740.738 -77.0831
218.341 726.519 -82.8035
234.931 696.965 -82.7921
259.946 710.625 -77.0695
215.578 724.97 -82.8125
190.85 710.753 -77.1957
207.131 681.753 -77.1828
232.167 695.416 -82.8011
188.293 709.321 -75.9892
167.319 697.262 -59.85
183.341 668.731 -59.8334
204.574 680.321 -75.9763
165.358 696.164 -57.6057
151.315 688.095 -33.3505
167.165 659.879 -33.331
181.381 667.633 -57.5892
150.252 687.501 -30.411
145.328 684.691 -1.79839
161.119 656.585 -1.77807
166.103 659.285 -30.3915
162.841 653.439 1.40534
167.829 656.192 29.9946
183.035 627.629 30.0146
177.987 624.99 1.42485
168.903 656.766 32.9298
183.088 664.537 57.1324
198.461 635.652 57.1541
184.108 628.203 32.9498
185.07 665.592 59.3738
206.299 677.194 75.5139
221.924 647.83 75.5383
200.443 636.708 59.3955
208.886 678.57 76.7202
233.922 692.235 82.3339
249.846 662.306 82.3597
224.511 649.206 76.7446
236.72 693.721 82.3244
261.74 707.37 76.5965
277.963 676.875 76.6212
252.644 663.792 82.3502
264.328 708.744 75.3789
285.65 720.375 59.2329
302.13 689.393 59.2551
280.552 678.249 75.4036
287.639 721.432 56.9936
301.954 729.255 32.8348
318.61 697.938 32.8557
304.119 690.45 57.0158
303.034 729.829 29.908
308.084 732.584 1.34517
324.803 701.148 1.36543
319.69 698.512 29.929
308.084 732.583 -1.82516
303.042 729.804 -30.3872
319.698 698.488 -30.3678
324.803 701.147 -1.8049
301.963 729.228 -33.3138
287.658 721.379 -57.4703
304.136 690.398 -57.4524
318.619 697.912 -33.2944
285.669 720.319 -59.7093
264.357 708.665 -75.8509
280.578 678.173 -75.8358
302.148 689.339 -59.6914
261.77 707.289 -77.068
236.754 693.629 -82.7906
252.675 663.704 -82.7771
277.99 676.797 -77.0529
233.957 692.143 -82.7997
208.921 678.479 -77.1814
224.543 649.118 -77.1668
249.878 662.217 -82.7861
206.333 677.104 -75.9747
185.099 665.515 -59.8318
200.47 636.633 -59.8149
221.955 647.743 -75.9601
183.115 664.461 -57.5872
168.9 656.707 -33.3291
184.104 628.145 -33.3102
198.486 635.579 -57.5703
167.825 656.137 -30.3894
162.841 653.436 -1.77592
177.987 624.987 -1.7564
183.029 627.575 -30.3705
179.637 621.804 1.42701
184.685 624.443 30.0167
199.237 595.547 30.0357
194.132 593.023 1.44571
185.771 624.992 32.9521
200.124 632.442 57.1564
214.838 603.218 57.1763
200.323 596.096 32.971
202.129 633.452 59.3979
223.609 644.575 75.5408
238.567 614.864 75.5624
216.843 604.229 59.4179
226.227 645.892 76.7473
251.562 658.993 82.3624
266.807 628.709 82.385
241.185 616.182 76.769
254.392 660.415 82.3528
279.711 673.498 76.6238
295.244 642.64 76.6458
269.637 630.131 82.3755
282.33 674.813 75.4061
303.908 685.957 59.2576
319.686 654.609 59.2781
297.862 643.955 75.4281
305.921 686.968 57.0181
320.412 694.456 32.8581
336.357 662.774 32.8779
321.698 655.62 57.0387
321.505 695.005 29.9312
326.617 697.642 1.36769
342.622 665.84 1.38708
337.45 663.323 29.9511
326.618 697.64 -1.80276
321.513 694.982 -30.3657
337.457 663.3 -30.3468
342.622 665.839 -1.78338
320.42 694.43 -33.2924
305.937 686.917 -57.4504
321.714 655.571 -57.4325
336.364 662.749 -33.2735
303.926 685.904 -59.6896
282.356 674.738 -75.834
297.886 643.883 -75.818
319.702 654.557 -59.6717
279.738 673.42 -77.0512
254.423 660.327 -82.7754
269.666 630.047 -82.7604
295.269 642.566 -77.0352
251.593 658.904 -82.7845
226.258 645.805 -77.1652
241.214 616.098 -77.1495
266.836 628.623 -82.7694
223.641 644.488 -75.9583
202.155 633.378 -59.8131
216.868 604.157 -59.7961
238.596 614.781 -75.9427
200.149 632.369 -57.5683
185.766 624.935 -33.3083
200.316 596.041 -33.29
214.861 603.148 -57.5513
184.678 624.39 -30.3684
179.637 621.801 -1.75431
194.131 593.021 -1.73561
199.229 595.495 -30.3501
195.709 589.801 1.44776
200.814 592.325 30.0377
214.707 563.108 30.0556
209.546 560.702 1.46565
201.912 592.849 32.9731
216.428 599.972 57.1784
230.477 570.424 57.1968
215.805 563.633 32.9911
218.455 600.937 59.4201
240.179 611.572 75.5647
254.461 581.53 75.5839
232.504 571.389 59.4384
242.825 612.83 76.7713
268.447 625.357 82.3873
283.005 594.734 82.4071
257.108 582.788 76.7905
271.309 626.715 82.3778
296.916 639.224 76.6482
311.748 608.021 76.6679
285.867 596.092 82.3976
299.563 640.48 75.4304
321.386 651.133 59.2804
336.453 619.435 59.2994
314.395 609.277 75.4501
323.421 652.098 57.0409
338.079 659.252 32.8801
353.305 627.219 32.8988
338.488 620.4 57.0598
339.185 659.776 29.9532
344.356 662.294 1.38922
359.638 630.142 1.40767
354.41 627.743 29.9718
344.357 662.293 -1.78131
339.192 659.754 -30.3447
354.417 627.721 -30.3266
359.638 630.141 -1.76286
338.087 659.227 -33.2715
323.436 652.049 -57.4306
338.502 620.353 -57.4129
353.312 627.195 -33.2534
321.402 651.082 -59.6698
299.586 640.408 -75.8161
314.417 609.207 -75.7995
336.468 619.386 -59.6522
296.94 639.15 -77.0335
271.337 626.631 -82.7586
285.892 596.011 -82.7425
311.77 607.95 -77.0168
268.476 625.272 -82.7677
242.854 612.746 -77.1478
257.134 582.707 -77.1314
283.031 594.652 -82.7515
240.207 611.489 -75.9409
218.479 600.865 -59.7942
232.526 571.32 -59.7772
254.487 581.45 -75.9245
216.45 599.901 -57.5494
201.905 592.794 -33.288
215.796 563.579 -33.2704
230.497 570.356 -57.5323
200.806 592.273 -30.3481
195.708 589.799 -1.7336
209.545 560.7 -1.71571
214.697 563.058 -30.3305
211.049 557.445 1.46759
216.21 559.851 30.0576
229.438 530.328 30.0745
224.223 528.041 1.48462
217.32 560.351 32.993
231.992 567.142 57.1987
245.369 537.283 57.2155
230.547 530.827 33.0099
234.04 568.061 59.4404
255.998 578.202 75.5859
269.598 547.843 75.6029
247.417 538.202 59.4572
258.672 579.399 76.7925
284.57 591.345 82.4092
298.432 560.399 82.4265
272.272 549.041 76.8095
287.461 592.639 82.3997
313.342 604.568 76.6699
327.467 573.035 76.6874
301.323 561.693 82.417
316.017 605.763 75.4521
338.075 615.922 59.3014
352.422 583.89 59.3189
330.141 574.231 75.4696
340.131 616.84 57.0618
354.947 623.66 32.9008
369.446 591.29 32.9184
354.478 584.809 57.0794
356.065 624.158 29.9739
361.292 626.557 1.40969
375.844 594.069 1.42728
370.563 591.789 29.9914
361.293 626.556 -1.76087
356.071 624.136 -30.3246
370.569 591.768 -30.3071
375.844 594.068 -1.74328
354.954 623.636 -33.2514
340.145 616.794 -57.411
354.491 584.764 -57.3936
369.452 591.267 -33.2339
338.089 615.873 -59.6503
316.038 605.695 -75.7976
330.161 574.165 -75.7805
352.436 583.843 -59.633
313.364 604.497 -77.015
287.486 592.559 -82.7406
301.346 561.616 -82.7236
327.486 572.968 -76.9979
284.595 591.265 -82.7497
258.698 579.32 -77.1295
272.296 548.965 -77.1126
298.456 560.322 -82.7327
256.024 578.122 -75.9226
234.062 567.992 -59.7754
247.437 538.136 -59.7585
269.621 547.767 -75.9056
232.012 567.074 -57.5304
217.311 560.298 -33.2685
230.537 530.776 -33.2515
245.387 537.219 -57.5136
216.201 559.802 -30.3285
211.049 557.443 -1.71378
224.223 528.038 -1.69675
229.426 530.28 -30.3115
225.653 524.75 1.48645
230.867 527.038 30.0763
243.423 497.221 30.0921
238.157 495.053 1.50259
231.988 527.512 33.0117
246.81 533.968 57.2173
259.508 503.812 57.2325
244.543 497.695 33.0275
248.878 534.84 59.459
271.059 544.481 75.6046
283.97 513.821 75.6194
261.577 504.684 59.4742
273.759 545.618 76.8113
299.919 556.976 82.4282
313.079 525.723 82.443
286.67 514.958 76.826
302.839 558.204 82.4188
328.982 569.547 76.6892
342.391 537.702 76.7047
315.999 526.952 82.4336
331.683 570.682 75.4715
353.964 580.341 59.3208
367.585 547.993 59.3369
345.092 538.838 75.4869
356.04 581.213 57.0812
371.008 587.695 32.9203
384.772 555.006 32.9368
369.661 548.865 57.0974
372.136 588.168 29.9933
377.417 590.448 1.42918
391.232 557.639 1.4459
385.9 555.479 30.0099
377.417 590.447 -1.74138
372.142 588.147 -30.3052
385.906 555.459 -30.2883
391.232 557.638 -1.72466
371.014 587.672 -33.232
356.053 581.169 -57.3917
369.673 548.822 -57.3747
384.778 554.984 -33.2152
353.977 580.294 -59.631
331.702 570.617 -75.7786
345.109 538.775 -75.7612
367.597 547.948 -59.614
329.002 569.48 -76.996
302.862 558.128 -82.7217
316.019 526.879 -82.704
342.408 537.638 -76.9786
299.942 556.899 -82.7308
273.783 545.542 -77.1106
286.691 514.886 -77.0932
313.1 525.65 -82.7131
271.082 544.406 -75.9037
248.898 534.774 -59.7566
261.594 504.622 -59.7399
283.99 513.75 -75.8863
246.827 533.903 -57.5117
231.977 527.461 -33.2496
244.531 497.646 -33.2333
259.524 503.751 -57.495
230.856 526.99 -30.3097
225.652 524.748 -1.6949
238.157 495.051 -1.67877
243.41 497.175 -30.2934
239.512 491.731 1.5043
244.777 493.899 30.0939
256.656 463.802 30.1085
251.342 461.755 1.51945
245.909 494.347 33.0292
260.873 500.465 57.2342
272.887 470.027 57.2477
257.787 464.25 33.0439
262.961 501.29 59.4757
285.354 510.427 75.6209
297.569 479.481 75.6333
274.975 470.852 59.4893
288.079 511.502 76.8275
314.489 522.268 82.4445
326.939 490.725 82.4567
300.294 480.557 76.84
317.435 523.43 82.4351
343.827 534.18 76.7062
356.513 502.041 76.7194
329.885 491.887 82.4473
346.553 535.255 75.4886
369.046 544.41 59.3385
381.933 511.762 59.3532
359.238 503.115 75.5018
371.142 545.235 57.0991
386.252 551.376 32.9385
399.276 518.383 32.954
384.029 512.587 57.1138
387.391 551.823 30.0116
392.723 553.983 1.44768
405.795 520.869 1.46359
400.415 518.831 30.0272
392.723 553.982 -1.72283
387.397 551.803 -30.2865
400.42 518.812 -30.2703
405.795 520.868 -1.70692
386.259 551.354 -33.2133
371.153 545.193 -57.3729
384.039 512.547 -57.3562
399.282 518.362 -33.1971
369.058 544.366 -59.6121
346.57 535.193 -75.7593
359.254 503.057 -75.7415
381.944 511.72 -59.5954
343.844 534.117 -76.9766
317.455 523.358 -82.702
329.904 491.819 -82.6835
356.528 501.981 -76.9588
314.509 522.195 -82.7111
288.1 511.431 -77.0912
300.313 480.489 -77.0733
326.957 490.656 -82.6926
285.375 510.355 -75.8844
262.978 501.228 -59.738
274.99 470.793 -59.7216
297.587 479.414 -75.8665
260.889 500.404 -57.4932
245.896 494.299 -33.2315
257.773 464.204 -33.216
272.901 469.969 -57.4768
244.764 493.854 -30.2916
239.511 491.729 -1.67702
251.341 461.753 -1.66187
256.641 463.759 -30.2762
252.621 458.403 1.52105
257.935 460.45 30.1101
269.13 430.087 30.1237
263.77 428.161 1.53523
259.076 460.872 33.0453
274.176 466.649 57.2492
285.5 435.944 57.261
270.271 430.509 33.0589
276.282 467.427 59.4906
298.876 476.056 75.6347
310.389 444.841 75.6445
287.606 436.722 59.5024
301.625 477.07 76.8412
328.27 487.238 82.4579
340.004 455.422 82.4671
313.138 445.855 76.851
331.242 488.334 82.4485
357.869 498.488 76.7207
369.825 466.071 76.7314
342.976 456.518 82.4577
360.618 499.5 75.5032
383.313 508.147 59.3546
395.46 475.217 59.3676
372.574 467.084 75.514
385.427 508.924 57.1153
400.674 514.721 32.9556
412.951 481.44 32.9698
397.574 475.994 57.1283
401.823 515.142 30.0288
407.203 517.18 1.46525
419.526 483.775 1.48006
414.1 481.861 30.043
407.203 517.179 -1.70517
401.828 515.123 -30.2686
414.105 481.843 -30.2533
419.526 483.774 -1.69036
400.68 514.7 -33.1953
385.437 508.884 -57.3544
397.583 475.956 -57.338
412.957 481.42 -33.18
383.324 508.105 -59.5935
360.633 499.442 -75.7396
372.588 467.029 -75.7212
395.47 475.177 -59.5772
357.884 498.428 -76.9568
331.26 488.266 -82.6814
342.992 456.454 -82.6619
369.839 466.015 -76.9384
328.288 487.17 -82.6905
301.643 477.003 -77.0713
313.154 445.792 -77.0527
340.02 455.358 -82.671
298.894 475.989 -75.8646
276.297 467.369 -59.7196
287.619 436.667 -59.7034
310.405 444.778 -75.846
274.19 466.592 -57.475
259.062 460.827 -33.2143
270.256 430.466 -33.1996
285.512 435.89 -57.4588
257.92 460.407 -30.2745
252.62 458.401 -1.6602
263.77 428.159 -1.64602
269.114 430.047 -30.2598
264.974 424.78 1.5367
270.334 426.706 30.1251
280.841 396.09 30.1374
275.437 394.286 1.54986
271.484 427.102 33.0601
286.712 432.537 57.2623
297.34 401.58 57.2721
281.991 396.487 33.0724
288.835 433.268 59.5035
311.619 441.387 75.6455
322.424 409.918 75.6522
299.463 402.31 59.5132
314.39 442.339 76.8519
341.256 451.906 82.4679
352.269 419.835 82.4736
325.195 410.87 76.8586
344.252 452.935 82.4587
371.101 462.488 76.7324
382.321 429.813 76.7402
355.264 420.864 82.4643
373.872 463.439 75.5151
396.758 471.572 59.3688
408.159 438.377 59.3799
385.093 430.764 75.523
398.889 472.301 57.1297
414.267 477.747 32.9712
425.792 444.195 32.984
410.29 439.106 57.1408
415.425 478.142 30.0445
420.851 480.055 1.48158
432.42 446.376 1.49541
426.95 444.59 30.0574
420.851 480.054 -1.68871
415.43 478.124 -30.2516
426.954 444.572 -30.2369
432.42 446.375 -1.67488
414.272 477.727 -33.1782
398.898 472.263 -57.3362
410.299 439.071 -57.32
425.797 444.176 -33.1635
396.768 471.532 -59.5752
373.886 463.384 -75.7193
385.105 430.713 -75.7
408.168 438.34 -59.5589
371.114 462.433 -76.9363
344.268 452.872 -82.6598
355.278 420.805 -82.6388
382.333 429.761 -76.917
341.272 451.843 -82.6688
314.406 442.276 -77.0505
325.209 410.812 -77.0309
352.283 419.776 -82.6478
311.634 441.324 -75.844
288.849 433.213 -59.7014
299.475 402.259 -59.6851
322.438 409.86 -75.8244
286.724 432.484 -57.457
271.468 427.06 -33.1978
281.974 396.447 -33.1839
297.35 401.53 -57.4408
270.317 426.666 -30.2582
264.973 424.778 -1.64445
275.436 394.284 -1.63129
280.823 396.053 -30.2443
276.564 390.878 1.55119
281.967 392.682 30.1388
291.781 361.827 30.1496
286.336 360.144 1.5632
283.127 393.053 33.0735
298.475 398.145 57.2732
308.402 366.949 57.2806
292.94 362.198 33.0844
300.615 398.828 59.514
323.575 406.437 75.6529
333.668 374.731 75.6559
310.542 367.632 59.5213
326.367 407.327 76.859
353.441 416.292 82.4741
363.726 383.985 82.4756
336.46 375.622 76.862
356.459 417.254 82.4649
383.515 426.203 76.7408
393.995 393.289 76.7453
366.744 384.946 82.4664
386.308 427.091 75.5239
409.375 434.704 59.3808
420.025 401.264 59.39
396.788 394.177 75.5284
411.522 435.384 57.142
427.023 440.473 32.9852
437.792 406.666 32.9969
422.172 401.944 57.1512
428.191 440.84 30.0588
433.661 442.626 1.49679
444.472 408.687 1.50988
438.959 407.033 30.0705
433.661 442.625 -1.67328
428.195 440.823 -30.2353
438.963 407.017 -30.221
444.472 408.686 -1.66019
427.028 440.454 -33.1617
411.53 435.349 -57.3182
422.18 401.91 -57.3017
437.797 406.648 -33.1474
409.383 434.667 -59.5569
386.32 427.04 -75.698
396.798 394.129 -75.6773
420.032 401.229 -59.5404
383.528 426.151 -76.9147
356.472 417.195 -82.6364
366.756 384.892 -82.6133
394.006 393.24 -76.894
353.455 416.233 -82.6454
326.381 407.269 -77.0285
336.471 375.568 -77.0073
363.738 383.93 -82.6223
323.589 406.379 -75.8223
300.626 398.778 -59.683
310.551 367.586 -59.6666
333.679 374.678 -75.8011
298.485 398.096 -57.4391
283.109 393.013 -33.1822
292.921 362.161 -33.1692
308.41 366.904 -57.4226
281.949 392.645 -30.2428
276.563 390.876 -1.62982
286.335 360.142 -1.61781
291.761 361.793 -30.2298
287.386 356.709 1.56437
292.83 358.392 30.1508
301.946 327.31 30.1601
296.463 325.747 1.57516
293.998 358.738 33.0852
309.46 363.489 57.2814
318.682 332.069 57.286
303.114 327.655 33.0945
311.614 364.125 59.5216
334.74 371.224 75.6563
344.116 339.298 75.6547
320.836 332.705 59.5263
337.551 372.053 76.862
364.818 380.416 82.4755
374.371 347.891 82.4716
346.927 340.127 76.8604
367.857 381.31 82.4664
395.108 389.653 76.7453
404.841 356.519 76.7456
377.41 348.785 82.4626
397.92 390.478 75.5289
421.157 397.565 59.3905
431.051 363.898 59.3972
407.654 357.344 75.5292
423.32 398.195 57.1521
438.94 402.917 32.9979
448.948 368.87 33.0082
433.215 364.528 57.1588
440.116 403.256 30.0718
445.629 404.91 1.51113
455.678 370.724 1.52348
450.124 369.209 30.0821
445.629 404.909 -1.65862
440.12 403.24 -30.2195
450.128 369.193 -30.2053
455.678 370.723 -1.64628
438.944 402.899 -33.1456
423.328 398.161 -57.2999
433.222 364.496 -57.283
448.952 368.853 -33.1314
421.164 397.53 -59.5383
397.93 390.43 -75.6751
407.663 357.3 -75.6529
431.058 363.865 -59.5214
395.118 389.604 -76.8914
367.868 381.257 -82.6107
377.419 348.736 -82.5847
404.85 356.474 -76.8692
364.829 380.362 -82.6197
337.563 372 -77.0047
346.936 340.079 -76.9814
374.381 347.842 -82.5936
334.752 371.172 -75.7989
311.623 364.079 -59.6644
320.843 332.663 -59.6477
344.125 339.251 -75.7756
309.468 363.444 -57.421
293.979 358.702 -33.1675
303.093 327.622 -33.1554
318.687 332.028 -57.4043
292.811 358.358 -30.2284
287.385 356.708 -1.61645
296.462 325.745 -1.60566
301.925 327.279 -30.2163
297.435 322.288 1.57617
302.918 323.851 30.1611
311.331 292.553 30.1689
305.812 291.108 1.58576
304.093 324.171 33.0951
319.661 328.585 57.2866
328.174 296.954 57.2881
312.507 292.873 33.1029
321.829 329.174 59.5261
345.109 335.767 75.6545
353.763 303.638 75.6475
330.342 297.543 59.5276
347.938 336.535 76.8597
375.382 344.299 82.471
384.199 311.577 82.4605
356.592 304.406 76.8527
378.44 345.126 82.462
405.871 352.861 76.7451
414.855 319.53 76.7399
387.257 312.404 82.4515
408.702 353.622 75.5293
432.1 360.176 59.3973
441.235 326.303 59.4001
417.685 320.291 75.5241
434.278 360.754 57.1594
450.012 365.096 33.0088
459.258 330.825 33.0169
443.413 326.881 57.1622
451.196 365.406 30.0832
456.75 366.921 1.52454
466.039 332.503 1.5354
460.442 331.135 30.0913
456.751 366.92 -1.64477
451.2 365.39 -30.2038
460.449 331.121 -30.1905
466.039 332.503 -1.63391
450.016 365.079 -33.1295
434.285 360.723 -57.2811
443.425 326.852 -57.2627
459.265 330.81 -33.1162
432.107 360.143 -59.5192
408.711 353.577 -75.6507
417.692 320.249 -75.6294
441.247 326.272 -59.5008
405.88 352.816 -76.8665
378.449 345.078 -82.582
387.263 312.361 -82.5542
414.861 319.487 -76.8452
375.391 344.25 -82.5907
347.947 336.488 -76.9786
356.598 304.364 -76.9537
384.205 311.533 -82.5629
345.118 335.72 -75.7733
321.836 329.133 -59.6453
330.347 297.506 -59.6283
353.77 303.596 -75.7484
319.667 328.544 -57.4026
304.072 324.139 -33.1537
312.485 292.844 -33.1425
328.178 296.918 -57.3856
302.897 323.82 -30.2151
297.433 322.287 -1.60441
305.811 291.107 -1.59483
311.309 292.526 -30.2038
306.706 287.626 1.58661
312.225 289.07 30.1697
319.933 257.566 30.176
314.379 256.238 1.5951
313.408 289.366 33.1031
329.075 293.447 57.2884
336.875 261.618 57.2865
321.116 257.862 33.1094
331.256 293.99 59.5269
354.677 300.085 75.6468
362.606 267.77 75.6336
339.055 262.161 59.5251
357.521 300.793 76.8513
385.128 307.964 82.4591
393.205 275.067 82.441
365.451 268.478 76.8381
388.204 308.725 82.4503
415.802 315.851 76.7387
424.031 282.348 76.7282
396.28 275.829 82.4322
418.65 316.548 75.5237
442.199 322.559 59.3996
450.571 288.5 59.3986
426.879 283.045 75.5131
444.392 323.084 57.1624
460.237 327.028 33.0171
468.716 292.545 33.023
452.764 289.025 57.1613
461.429 327.306 30.0921
467.026 328.675 1.53623
475.545 294.035 1.54581
469.908 292.824 30.098
467.026 328.675 -1.63248
461.436 327.293 -30.1891
469.915 292.811 -30.1759
475.545 294.034 -1.6229
460.244 327.013 -33.1141
444.404 323.056 -57.2606
452.773 289.005 -57.2408
468.723 292.531 -33.1009
442.211 322.53 -59.4982
418.656 316.507 -75.6268
426.884 283.015 -75.5974
450.581 288.478 -59.4785
415.808 315.809 -76.842
388.21 308.682 -82.551
396.286 275.791 -82.5146
424.035 282.317 -76.8127
385.135 307.92 -82.5596
357.528 300.751 -76.9503
365.456 268.442 -76.9194
393.21 275.03 -82.5232
354.683 300.044 -75.7457
331.26 293.954 -59.6257
339.06 262.13 -59.6068
362.612 267.734 -75.7149
329.078 293.411 -57.3839
313.385 289.337 -33.1408
321.092 257.837 -33.1301
336.877 261.587 -57.365
312.203 289.043 -30.2027
306.704 287.625 -1.59367
314.378 256.236 -1.58518
319.91 257.543 -30.192
315.195 252.733 1.59579
320.748 254.061 30.1767
327.748 222.36 30.1813
322.163 221.143 1.60315
321.938 254.332 33.1093
337.697 258.089 57.2865
344.782 226.073 57.2812
328.937 222.631 33.1139
339.889 258.588 59.5239
363.44 264.197 75.6323
370.642 231.713 75.6127
346.974 226.572 59.5185
366.299 264.846 76.8359
394.053 271.435 82.4388
401.386 238.389 82.4127
373.501 232.362 76.8162
397.144 272.131 82.4303
424.895 278.651 76.7262
432.366 245.004 76.7102
404.478 239.085 82.4042
427.76 279.283 75.512
451.451 284.738 59.3974
459.058 250.515 59.3897
435.23 245.637 75.496
453.658 285.207 57.161
469.61 288.727 33.0226
477.322 254.046 33.0262
461.264 250.984 57.1532
470.81 288.972 30.0986
476.447 290.183 1.5464
484.198 255.33 1.5544
478.522 254.29 30.1021
476.447 290.182 -1.62154
470.816 288.96 -30.1745
478.526 254.278 -30.162
484.198 255.329 -1.61354
469.616 288.714 -33.0987
453.667 285.187 -57.2386
461.269 250.965 -57.2152
477.326 254.033 -33.0863
451.461 284.717 -59.4753
427.764 279.254 -75.5943
435.237 245.611 -75.5583
459.063 250.495 -59.4519
424.9 278.621 -76.8086
397.15 272.095 -82.5106
404.485 239.054 -82.4667
432.373 244.978 -76.7726
394.059 271.398 -82.519
366.305 264.81 -76.9153
373.508 232.333 -76.879
401.393 238.358 -82.4751
363.445 264.161 -75.7118
339.893 258.557 -59.6037
346.979 226.547 -59.5828
370.649 231.683 -75.6754
337.699 258.058 -57.3632
321.914 254.308 -33.1282
328.914 222.611 -33.1179
344.785 226.049 -57.3423
320.725 254.038 -30.1909
315.193 252.732 -1.5841
322.161 221.142 -1.57673
327.724 222.341 -30.1806
322.899 217.617 1.60365
328.485 218.833 30.1818
334.777 186.94 30.184
329.162 185.832 1.60966
329.68 219.081 33.1135
345.525 222.523 57.2808
351.895 190.331 57.2706
335.972 187.188 33.1158
347.728 222.98 59.5166
371.396 228.12 75.6107
377.871 195.486 75.5815
354.098 190.788 59.5064
374.268 228.714 76.8129
402.152 234.741 82.4094
408.743 201.573 82.369
380.743 196.079 76.7837
405.258 235.373 82.4011
433.147 241.293 76.7072
439.86 207.543 76.6768
411.848 202.205 82.3607
436.026 241.859 75.4938
459.853 246.737 59.3876
466.678 212.372 59.3723
442.738 208.11 75.4635
462.072 247.147 57.1522
478.13 250.208 33.0251
485.061 215.335 33.0255
468.897 212.781 57.1369
479.338 250.416 30.1024
485.014 251.456 1.55473
491.985 216.396 1.56134
486.269 215.543 30.1028
485.014 251.455 -1.61226
479.342 250.404 -30.1608
486.274 215.532 -30.1482
491.985 216.395 -1.60564
478.134 250.195 -33.0836
462.077 247.128 -57.2125
468.903 212.764 -57.184
485.066 215.323 -33.071
459.858 246.718 -59.448
436.032 241.834 -75.5544
442.747 208.087 -75.5106
466.684 212.354 -59.4195
433.154 241.267 -76.7677
405.266 235.343 -82.4618
411.857 202.18 -82.4084
439.868 207.52 -76.7239
402.16 234.71 -82.4701
374.275 228.685 -76.874
380.751 196.056 -76.832
408.752 201.547 -82.4168
371.402 228.092 -75.6718
347.732 222.956 -59.5792
354.104 190.77 -59.5565
377.879 195.463 -75.6298
345.528 222.499 -57.3404
329.657 219.061 -33.116
335.949 187.174 -33.106
351.899 190.314 -57.3176
328.461 218.815 -30.1796
322.898 217.616 -1.57572
329.161 185.831 -1.56971
334.754 186.927 -30.1695
329.821 182.284 1.60989
335.436 183.392 30.1842
341.033 151.314 30.1821
335.395 150.31 1.61458
336.636 183.618 33.1148
352.559 186.761 57.2697
358.22 154.402 57.254
342.233 151.539 33.1127
354.771 187.178 59.5036
378.545 191.876 75.5786
384.293 159.106 75.5424
360.432 154.819 59.4879
381.428 192.417 76.7792
409.427 197.91 82.3645
415.269 164.65 82.3125
387.176 159.648 76.743
412.545 198.483 82.3561
440.556 203.821 76.6723
446.503 169.998 76.6291
418.387 165.223 82.3042
443.448 204.32 75.4599
467.388 208.582 59.3687
473.428 174.079 59.3424
449.394 170.497 75.4167
469.618 208.925 57.1352
485.782 211.479 33.0238
491.921 176.42 33.0197
475.658 174.422 57.1089
486.997 211.647 30.1029
492.713 212.5 1.56139
498.887 177.237 1.56692
493.137 176.588 30.0988
492.713 212.499 -1.60435
487.002 211.637 -30.1469
493.143 176.579 -30.132
498.887 177.236 -1.59882
485.787 211.468 -33.068
469.624 208.908 -57.181
475.667 174.408 -57.1444
491.928 176.411 -33.0531
467.394 208.564 -59.4145
443.457 204.297 -75.5057
449.405 170.477 -75.4528
473.437 174.064 -59.378
440.565 203.798 -76.7181
412.554 198.458 -82.4026
418.399 165.202 -82.3407
446.514 169.978 -76.6652
409.436 197.885 -82.411
381.436 192.394 -76.8262
387.187 159.631 -76.7798
415.281 164.629 -82.3491
378.553 191.853 -75.6258
354.777 187.161 -59.5524
360.44 154.81 -59.5264
384.303 159.09 -75.5793
352.563 186.745 -57.3155
336.614 183.605 -33.1038
342.212 151.534 -33.0917
358.227 154.393 -57.2894
335.413 183.38 -30.1685
329.82 182.283 -1.56871
335.393 150.309 -1.56402
341.011 151.309 -30.1565
335.981 146.742 1.614
341.619 147.746 30.1815
346.591 115.498 30.157
340.945 114.595 1.61762
342.823 147.951 33.1099
358.81 150.813 57.2512
363.808 118.302 57.2037
347.795 115.703 33.0854
361.028 151.193 59.4831
384.888 155.481 75.5376
389.925 122.598 75.4742
366.026 118.682 59.4356
387.778 155.975 76.7367
415.871 160.977 82.3062
420.952 127.655 82.236
392.815 123.092 76.6733
418.997 161.494 82.2976
447.113 166.27 76.6226
452.236 132.451 76.5461
424.078 128.173 82.2274
450.016 166.698 75.4104
474.05 170.28 59.3361
479.269 135.652 59.2884
455.14 132.879 75.334
476.289 170.549 57.1056
492.551 172.547 33.0164
497.826 137.297 32.9984
481.508 135.922 57.058
493.772 172.67 30.0982
499.523 173.319 1.56637
504.811 137.847 1.56988
499.047 137.42 30.0802
499.523 173.319 -1.59727
493.779 172.662 -30.1305
499.056 137.414 -30.1055
504.812 137.846 -1.59376
492.558 172.538 -33.0489
476.298 170.535 -57.1402
481.521 135.911 -57.0857
497.836 137.291 -33.0239
474.059 170.265 -59.3708
450.027 166.678 -75.4455
455.155 132.862 -75.3612
479.283 135.641 -59.3163
447.124 166.25 -76.6577
419.009 161.474 -82.3332
424.094 128.156 -82.2544
452.252 132.434 -76.5733
415.883 160.957 -82.3417
387.789 155.959 -76.7724
392.83 123.081 -76.7001
420.968 127.639 -82.263
384.899 155.466 -75.5734
361.036 151.185 -59.5204
366.038 118.684 -59.4633
389.94 122.588 -75.5011
358.816 150.806 -57.2856
342.802 147.946 -33.0879
347.777 115.709 -33.055
363.819 118.305 -57.2284
341.597 147.742 -30.1549
335.98 146.742 -1.56243
340.944 114.595 -1.55881
346.573 115.504 -30.122
341.485 111.015 1.61202
347.131 111.918 30.1514
351.863 79.5869 29.9723
346.26 78.7841 1.61375
348.331 112.103 33.0694
364.344 114.703 57.1878
368.968 82.1175 56.8745
353.063 79.772 32.8904
366.556 115.048 59.413
390.455 118.964 75.4516
394.93 86.0274 75.0728
371.18 82.4631 59.0997
393.338 119.415 76.6483
421.476 123.978 82.2109
425.784 90.6444 81.8264
397.813 86.4782 76.2695
424.595 124.445 82.2026
452.753 128.724 76.5213
456.889 94.9111 76.1544
428.903 91.1116 81.818
455.656 129.076 75.3137
479.785 131.849 59.2682
483.836 97.058 59.0663
459.791 95.2626 74.9469
482.021 132.03 57.0464
498.339 133.405 32.9868
502.258 97.9063 32.86
486.072 97.2398 56.8444
499.557 133.478 30.0759
505.321 133.905 1.56556
509.179 98.162 1.55714
503.475 97.9792 29.949
505.321 133.905 -1.5897
499.566 133.473 -30.1015
503.481 97.9769 -29.9818
509.18 98.1619 -1.59813
498.349 133.4 -33.0117
482.035 132.02 -57.0735
486.095 97.2332 -56.8552
502.264 97.9038 -32.892
479.799 131.837 -59.2948
455.672 129.058 -75.3397
459.816 95.2474 -74.9581
483.86 97.0503 -59.0765
452.77 128.707 -76.5473
424.611 124.429 -82.2284
428.928 91.099 -81.8321
456.914 94.8957 -76.1657
421.492 123.962 -82.2368
393.354 119.405 -76.674
397.836 86.4744 -76.2858
425.809 90.6323 -81.8406
390.471 118.955 -75.4774
366.569 115.051 -59.4396
371.201 82.4771 -59.1146
394.952 86.0248 -75.0892
364.356 114.706 -57.2114
348.314 112.11 -33.038
353.055 79.7925 -32.8521
368.988 82.1325 -56.8865
347.113 111.925 -30.1156
341.484 111.016 -1.55245
346.259 78.7848 -1.55072
351.853 79.607 -29.9297
346.924 75.2468 1.57285
352.527 76.0497 29.9314
359.675 44.3345 28.6515
354.336 43.6017 1.57142
353.695 76.2173 32.7758
369.6 78.5628 56.7599
375.997 46.648 54.4228
360.843 44.5021 31.4959
371.753 78.8767 58.9329
395.503 82.4411 74.906
400.8 50.1974 71.9127
378.151 46.962 56.5958
398.312 82.8504 76.0788
426.284 87.0166 81.6357
430.326 54.3647 78.4738
403.61 50.6067 73.0855
429.323 87.4381 81.6323
457.309 91.2375 75.9686
460.117 58.2351 73.1074
433.365 54.7861 78.4704
460.124 91.548 74.8002
484.168 93.3434 58.9196
485.725 60.6803 56.653
462.932 58.5455 71.9389
486.345 93.4986 56.749
502.532 94.165 32.7645
503.151 61.8338 31.4688
487.902 60.8355 54.4824
503.715 94.2245 29.9139
509.419 94.4073 1.52201
509.68 62.1753 1.51134
504.334 61.8933 28.6182
509.419 94.4066 -1.56488
503.72 94.2215 -29.9485
504.329 61.864 -28.6619
509.68 62.1746 -1.57555
502.538 94.1615 -32.7961
486.369 93.4909 -56.7593
487.929 60.8073 -54.4761
503.147 61.8039 -31.5095
484.194 93.3354 -58.928
460.15 91.5324 -74.8095
462.962 58.5314 -71.936
485.754 60.6518 -56.6448
457.335 91.2224 -75.9786
429.349 87.4258 -81.645
433.395 54.7784 -78.4744
460.147 58.2214 -73.1051
426.309 87.0051 -81.6489
398.336 82.8472 -76.0941
403.636 50.6103 -73.0955
430.355 54.3578 -78.4783
395.526 82.4396 -74.9217
371.775 78.8918 -58.9471
378.17 46.9927 -56.61
400.826 50.2026 -71.9231
369.619 78.5793 -56.7714
353.686 76.2392 -32.737
360.83 44.5382 -31.4602
376.015 46.6802 -54.4343
352.518 76.0704 -29.8886
346.924 75.2483 -1.50966
354.335 43.6032 -1.5111
359.661 44.3694 -28.6119
355.193 40.1213 1.48825
360.533 40.8541 28.5683
368.562 9.72979 26.851
363.55 9.07062 1.4819
361.637 41.0063 31.2604
376.792 43.1522 54.1873
383.888 11.8221 51.0155
369.666 9.88207 29.5431
378.829 43.4365 56.2452
401.479 46.6719 71.5621
407.177 15.0064 67.3969
385.925 12.1064 53.0733
404.138 47.0406 72.6742
430.853 50.7987 78.0626
434.881 18.7401 73.5207
409.836 15.3751 68.5091
433.73 51.1802 78.0616
460.482 54.6291 72.6985
462.799 22.2747 68.468
437.758 19.1216 73.5197
463.142 54.9342 71.5883
485.935 57.069 56.3024
486.73 24.8289 53.0283
465.459 22.5798 67.3578
487.979 57.2529 54.2434
503.227 58.2512 31.2297
502.971 26.2237 29.4545
488.774 25.0128 50.9692
504.334 58.3303 28.5329
509.68 58.6124 1.42609
509.04 26.6523 1.43577
504.078 26.3028 26.7577
509.679 58.6101 -1.49018
504.329 58.2994 -28.5766
504.07 26.2484 -26.7859
509.04 26.65 -1.4805
503.223 58.2182 -31.2697
488.005 57.2216 -54.2363
488.791 24.9634 -50.9601
502.965 26.1671 -29.4791
485.963 57.0395 -56.2934
463.171 54.9191 -71.5846
465.48 22.5654 -67.3545
486.749 24.7814 -53.0172
460.511 54.6157 -72.6956
433.759 51.1728 -78.0649
437.78 19.1166 -73.521
462.82 22.2619 -68.4654
430.882 50.7922 -78.0665
404.164 47.0447 -72.6837
409.856 15.3821 -68.5149
434.903 18.7361 -73.5225
401.504 46.6782 -71.5722
378.848 43.4683 -56.2591
385.935 12.1502 -53.0852
407.196 15.0156 -67.4034
376.809 43.1861 -54.1992
361.623 41.0441 -31.2251
369.649 9.93351 -29.5171
383.895 11.868 -51.0253
360.518 40.8898 -28.5295
355.192 40.1236 -1.42871
363.549 9.07289 -1.43506
368.544 9.77914 -26.8215
364.602 5.83229 1.3525
369.613 6.49147 26.7216
380.237 -21.0266 23.7831
375.815 -21.6481 1.33135
370.622 6.62944 29.1792
384.843 8.56949 50.6516
393.845 -19.1294 45.2711
381.246 -20.8886 26.2407
386.707 8.82326 52.5303
407.959 11.7232 66.8539
414.592 -16.3454 59.8205
395.709 -18.8756 47.1498
410.392 12.0499 67.8663
435.437 15.415 72.8779
439.261 -13.0682 65.2247
417.024 -16.0187 60.8328
438.064 15.7597 72.8735
463.104 18.9127 67.8218
464.072 -9.79168 60.6956
441.888 -12.7235 65.2202
465.528 19.2133 66.8064
486.799 21.4625 52.4769
485.259 -7.01581 46.9601
466.496 -9.49108 59.6802
488.658 21.6745 50.6014
502.855 22.8855 29.0867
499.631 -5.15435 26.1198
487.117 -6.80379 45.0847
503.862 22.9912 26.6309
508.825 23.3407 1.30902
505.028 -4.4702 1.32921
500.639 -5.04862 23.664
508.825 23.339 -1.35011
503.855 22.9374 -26.6555
500.638 -5.05045 -23.6647
505.028 -4.47187 -1.32992
502.848 22.8299 -29.1105
488.674 21.6263 -50.5915
487.117 -6.80751 -45.0848
499.631 -5.15786 -26.1196
486.816 21.4159 -52.4664
465.548 19.1999 -66.8037
466.497 -9.49318 -59.6799
485.259 -7.01785 -46.9598
463.124 18.9005 -67.8192
438.084 15.7552 -72.8748
441.889 -12.7244 -65.22
464.073 -9.7926 -60.6954
435.457 15.411 -72.8794
410.41 12.057 -67.8718
417.025 -16.0189 -60.8329
439.262 -13.0686 -65.2247
407.977 11.7315 -66.8595
386.716 8.86613 -52.5413
395.709 -18.8744 -47.15
414.592 -16.3444 -59.8206
384.851 8.61413 -50.662
370.604 6.67959 -29.1538
381.246 -20.8855 -26.2403
393.845 -19.1264 -45.2706
369.596 6.54008 -26.6953
364.601 5.83383 -1.30887
375.815 -21.6466 -1.33002
380.237 -21.025 -23.7818
-72.8286 1015.33 25.2404
-76.7589 1012.03 -0.532031
-72.7482 1015.24 -26.3016
-61.442 1024.47 -48.13
-44.5358 1038.29 -62.6781
-24.6509 1054.6 -67.742
-4.92307 1071.05 -62.6199
11.617 1085.32 -48.1179
22.5672 1095.12 -26.3495
26.4076 1098.59 -0.571691
22.5636 1095.13 25.2062
11.6007 1085.36 46.9802
-4.95974 1071.14 61.4975
-24.7004 1054.7 66.6349
-44.5922 1038.4 61.5861
-61.5287 1024.6 47.062
382.635 -22.3855 1.31945e-05
387.058 -21.764 22.4517
399.656 -20.0048 41.4821
418.539 -17.4746 54.1528
440.776 -14.5241 58.5446
462.96 -11.5923 54.02
481.723 -9.11705 41.3
494.237 -7.4676 22.335
498.627 -6.88918 0.000239176
494.237 -7.46776 -22.3346
481.723 -9.11742 -41.2997
462.96 -11.5927 -54.0199
440.776 -14.5245 -58.5445
418.539 -17.4748 -54.1527
399.656 -20.0049 -41.4821
387.058 -21.764 -22.4517
</DataArray>
</Points>
<Cells>
<DataArray type="Int32" Name="connectivity" format="ascii">
0 1 2 3 
4 5 6 7 
8 9 10 11 
12 13 14 15 
16 17 18 19 
20 21 22 23 
24 25 26 27 
28 29 30 31 
32 33 34 35 
36 37 38 39 
40 41 42 43 
44 45 46 47 
48 49 50 51 
52 53 54 55 
56 57 58 59 
60 61 62 63 
64 65 66 67 
68 69 70 71 
72 73 74 75 
76 77 78 79 
80 81 82 83 
84 85 86 87 
88 89 90 91 
92 93 94 95 
96 97 98 99 
100 101 102 103 
104 105 106 107 
108 109 110 111 
112 113 114 115 
116 117 118 119 
120 121 122 123 
124 125 126 127 
128 129 130 131 
132 133 134 135 
136 137 138 139 
140 141 142 143 
144 145 146 147 
148 149 150 151 
152 153 154 155 
156 157 158 159 
160 161 162 163 
164 165 166 167 
168 169 170 171 
172 173 174 175 
176 177 178 179 
180 181 182 183 
184 185 186 187 
188 189 190 191 
192 193 194 195 
196 197 198 199 
200 201 202 203 
204 205 206 207 
208 209 210 211 
212 213 214 215 
216 217 218 219 
220 221 222 223 
224 225 226 227 
228 229 230 231 
232 233 234 235 
236 237 238 239 
240 241 242 243 
244 245 246 247 
248 249 250 251 
252 253 254 255 
256 257 258 259 
260 261 262 263 
264 265 266 267 
268 269 270 271 
272 273 274 275 
276 277 278 279 
280 281 282 283 
284 285 286 287 
288 289 290 291 
292 293 294 295 
296 297 298 299 
300 301 302 303 
304 305 306 307 
308 309 310 311 
312 313 314 315 
316 317 318 319 
320 321 322 323 
324 325 326 327 
328 329 330 331 
332 333 334 335 
336 337 338 339 
340 341 342 343 
344 345 346 347 
348 349 350 351 
352 353 354 355 
356 357 358 359 
360 361 362 363 
364 365 366 367 
368 369 370 371 
372 373 374 375 
376 377 378 379 
380 381 382 383 
384 385 386 387 
388 389 390 391 
392 393 394 395 
396 397 398 399 
400 401 402 403 
404 405 406 407 
408 409 410 411 
412 413 414 415 
416 417 418 419 
420 421 422 423 
424 425 426 427 
428 429 430 431 
432 433 434 435 
436 437 438 439 
440 441 442 443 
444 445 446 447 
448 449 450 451 
452 453 454 455 
456 457 458 459 
460 461 462 463 
464 465 466 467 
468 469 470 471 
472 473 474 475 
476 477 478 479 
480 481 482 483 
484 485 486 487 
488 489 490 491 
492 493 494 495 
496 497 498 499 
500 501 502 503 
504 505 506 507 
508 509 510 511 
512 513 514 515 
516 517 518 519 
520 521 522 523 
524 525 526 527 
528 529 530 531 
532 533 534 535 
536 537 538 539 
540 541 542 543 
544 545 546 547 
548 549 550 551 
552 553 554 555 
556 557 558 559 
560 561 562 563 
564 565 566 567 
568 569 570 571 
572 573 574 575 
576 577 578 579 
580 581 582 583 
584 585 586 587 
588 589 590 591 
592 593 594 595 
596 597 598 599 
600 601 602 603 
604 605 606 607 
608 609 610 611 
612 613 614 615 
616 617 618 619 
620 621 622 623 
624 625 626 627 
628 629 630 631 
632 633 634 635 
636 637 638 639 
640 641 642 643 
644 645 646 647 
648 649 650 651 
652 653 654 655 
656 657 658 659 
660 661 662 663 
664 665 666 667 
668 669 670 671 
672 673 674 675 
676 677 678 679 
680 681 682 683 
684 685 686 687 
688 689 690 691 
692 693 694 695 
696 697 698 699 
700 701 702 703 
704 705 706 707 
708 709 710 711 
712 713 714 715 
716 717 718 719 
720 721 722 723 
724 725 726 727 
728 729 730 731 
732 733 734 735 
736 737 738 739 
740 741 742 743 
744 745 746 747 
748 749 750 751 
752 753 754 755 
756 757 758 759 
760 761 762 763 
764 765 766 767 
768 769 770 771 
772 773 774 775 
776 777 778 779 
780 781 782 783 
784 785 786 787 
788 789 790 791 
792 793 794 795 
796 797 798 799 
800 801 802 803 
804 805 806 807 
808 809 810 811 
812 813 814 815 
816 817 818 819 
820 821 822 823 
824 825 826 827 
828 829 830 831 
832 833 834 835 
836 837 838 839 
840 841 842 843 
844 845 846 847 
848 849 850 851 
852 853 854 855 
856 857 858 859 
860 861 862 863 
864 865 866 867 
868 869 870 871 
872 873 874 875 
876 877 878 879 
880 881 882 883 
884 885 886 887 
888 889 890 891 
892 893 894 895 
896 897 898 899 
900 901 902 903 
904 905 906 907 
908 909 910 911 
912 913 914 915 
916 917 918 919 
920 921 922 923 
924 925 926 927 
928 929 930 931 
932 933 934 935 
936 937 938 939 
940 941 942 943 
944 945 946 947 
948 949 950 951 
952 953 954 955 
956 957 958 959 
960 961 962 963 
964 965 966 967 
968 969 970 971 
972 973 974 975 
976 977 978 979 
980 981 982 983 
984 985 986 987 
988 989 990 991 
992 993 994 995 
996 997 998 999 
1000 1001 1002 1003 
1004 1005 1006 1007 
1008 1009 1010 1011 
1012 1013 1014 1015 
1016 1017 1018 1019 
1020 1021 1022 1023 
1024 1025 1026 1027 
1028 1029 1030 1031 
1032 1033 1034 1035 
1036 1037 1038 1039 
1040 1041 1042 1043 
1044 1045 1046 1047 
1048 1049 1050 1051 
1052 1053 1054 1055 
1056 1057 1058 1059 
1060 1061 1062 1063 
1064 1065 1066 1067 
1068 1069 1070 1071 
1072 1073 1074 1075 
1076 1077 1078 1079 
1080 1081 1082 1083 
1084 1085 1086 1087 
1088 1089 1090 1091 
1092 1093 1094 1095 
1096 1097 1098 1099 
1100 1101 1102 1103 
1104 1105 1106 1107 
1108 1109 1110 1111 
1112 1113 1114 1115 
1116 1117 1118 1119 
1120 1121 1122 1123 
1124 1125 1126 1127 
1128 1129 1130 1131 
1132 1133 1134 1135 
1136 1137 1138 1139 
1140 1141 1142 1143 
1144 1145 1146 1147 
1148 1149 1150 1151 
1152 1153 1154 1155 
1156 1157 1158 1159 
1160 1161 1162 1163 
1164 1165 1166 1167 
1168 1169 1170 1171 
1172 1173 1174 1175 
1176 1177 1178 1179 
1180 1181 1182 1183 
1184 1185 1186 1187 
1188 1189 1190 1191 
1192 1193 1194 1195 
1196 1197 1198 1199 
1200 1201 1202 1203 
1204 1205 1206 1207 
1208 1209 1210 1211 
1212 1213 1214 1215 
1216 1217 1218 1219 
1220 1221 1222 1223 
1224 1225 1226 1227 
1228 1229 1230 1231 
1232 1233 1234 1235 
1236 1237 1238 1239 
1240 1241 1242 1243 
1244 1245 1246 1247 
1248 1249 1250 1251 
1252 1253 1254 1255 
1256 1257 1258 1259 
1260 1261 1262 1263 
1264 1265 1266 1267 
1268 1269 1270 1271 
1272 1273 1274 1275 
1276 1277 1278 1279 
1280 1281 1282 1283 
1284 1285 1286 1287 
1288 1289 1290 1291 
1292 1293 1294 1295 
1296 1297 1298 1299 
1300 1301 1302 1303 
1304 1305 1306 1307 
1308 1309 1310 1311 
1312 1313 1314 1315 
1316 1317 1318 1319 
1320 1321 1322 1323 
1324 1325 1326 1327 
1328 1329 1330 1331 
1332 1333 1334 1335 
1336 1337 1338 1339 
1340 1341 1342 1343 
1344 1345 1346 1347 
1348 1349 1350 1351 
1352 1353 1354 1355 
1356 1357 1358 1359 
1360 1361 1362 1363 
1364 1365 1366 1367 
1368 1369 1370 1371 
1372 1373 1374 1375 
1376 1377 1378 1379 
1380 1381 1382 1383 
1384 1385 1386 1387 
1388 1389 1390 1391 
1392 1393 1394 1395 
1396 1397 1398 1399 
1400 1401 1402 1403 
1404 1405 1406 1407 
1408 1409 1410 1411 
1412 1413 1414 1415 
1416 1417 1418 1419 
1420 1421 1422 1423 
1424 1425 1426 1427 
1428 1429 1430 1431 
1432 1433 1434 1435 
1436 1437 1438 1439 
1440 1441 1442 1443 
1444 1445 1446 1447 
1448 1449 1450 1451 
1452 1453 1454 1455 
1456 1457 1458 1459 
1460 1461 1462 1463 
1464 1465 1466 1467 
1468 1469 1470 1471 
1472 1473 1474 1475 
1476 1477 1478 1479 
1480 1481 1482 1483 
1484 1485 1486 1487 
1488 1489 1490 1491 
1492 1493 1494 1495 
1496 1497 1498 1499 
1500 1501 1502 1503 
1504 1505 1506 1507 
1508 1509 1510 1511 
1512 1513 1514 1515 
1516 1517 1518 1519 
1520 1521 1522 1523 
1524 1525 1526 1527 
1528 1529 1530 1531 
1532 1533 1534 1535 
1536 1537 1538 1539 
1540 1541 1542 1543 
1544 1545 1546 1547 
1548 1549 1550 1551 
1552 1553 1554 1555 
1556 1557 1558 1559 
1560 1561 1562 1563 
1564 1565 1566 1567 
1568 1569 1570 1571 
1572 1573 1574 1575 
1576 1577 1578 1579 
1580 1581 1582 1583 
1584 1585 1586 1587 
1588 1589 1590 1591 
1592 1593 1594 1595 
1596 1597 1598 1599 
1600 1601 1602 1603 
1604 1605 1606 1607 
1608 1609 1610 1611 
1612 1613 1614 1615 
1616 1617 1618 1619 
1620 1621 1622 1623 
1624 1625 1626 1627 
1628 1629 1630 1631 
1632 1633 1634 1635 
1636 1637 1638 1639 
1640 1641 1642 1643 
1644 1645 1646 1647 
1648 1649 1650 1651 
1652 1653 1654 1655 
1656 1657 1658 1659 
1660 1661 1662 1663 
1664 1665 1666 1667 
1668 1669 1670 1671 
1672 1673 1674 1675 
1676 1677 1678 1679 
1680 1681 1682 1683 
1684 1685 1686 1687 
1688 1689 1690 1691 
1692 1693 1694 1695 
1696 1697 1698 1699 
1700 1701 1702 1703 
1704 1705 1706 1707 
1708 1709 1710 1711 
1712 1713 1714 1715 
1716 1717 1718 1719 
1720 1721 1722 1723 
1724 1725 1726 1727 
1728 1729 1730 1731 
1732 1733 1734 1735 
1736 1737 1738 1739 
1740 1741 1742 1743 
1744 1745 1746 1747 
1748 1749 1750 1751 
1752 1753 1754 1755 
1756 1757 1758 1759 
1760 1761 1762 1763 
1764 1765 1766 1767 
1768 1769 1770 1771 
1772 1773 1774 1775 
1776 1777 1778 1779 
1780 1781 1782 1783 
1784 1785 1786 1787 
1788 1789 1790 1791 
1792 1793 1794 1795 
1796 1797 1798 1799 
1800 1801 1802 1803 
1804 1805 1806 1807 
1808 1809 1810 1811 
1812 1813 1814 1815 
1816 1817 1818 1819 
1820 1821 1822 1823 
1824 1825 1826 1827 
1828 1829 1830 1831 
1832 1833 1834 1835 
1836 1837 1838 1839 
1840 1841 1842 1843 
1844 1845 1846 1847 
1848 1849 1850 1851 
1852 1853 1854 1855 
1856 1857 1858 1859 
1860 1861 1862 1863 
1864 1865 1866 1867 
1868 1869 1870 1871 
1872 1873 1874 1875 
1876 1877 1878 1879 
1880 1881 1882 1883 
1884 1885 1886 1887 
1888 1889 1890 1891 
1892 1893 1894 1895 
1896 1897 1898 1899 
1900 1901 1902 1903 
1904 1905 1906 1907 
1908 1909 1910 1911 
1912 1913 1914 1915 
1916 1917 1918 1919 
1920 1921 1922 1923 
1924 1925 1926 1927 
1928 1929 1930 1931 
1932 1933 1934 1935 
1936 1937 1938 1939 
1940 1941 1942 1943 
1944 1945 1946 1947 
1948 1949 1950 1951 
1952 1953 1954 1955 
1956 1957 1958 1959 
1960 1961 1962 1963 
1964 1965 1966 1967 
1968 1969 1970 1971 
1972 1973 1974 1975 
1976 1977 1978 1979 
1980 1981 1982 1983 
1984 1985 1986 1987 
1988 1989 1990 1991 
1992 1993 1994 1995 
1996 1997 1998 1999 
2000 2001 2002 2003 
2004 2005 2006 2007 
2008 2009 2010 2011 
2012 2013 2014 2015 
2016 2017 2018 2019 
2020 2021 2022 2023 
2024 2025 2026 2027 
2028 2029 2030 2031 
2032 2033 2034 2035 
2036 2037 2038 2039 
2040 2041 2042 2043 
2044 2045 2046 2047 
2048 2049 2050 2051 2052 2053 2054 2055 2056 2057 2058 2059 2060 2061 2062 2063 
2064 2065 2066 2067 2068 2069 2070 2071 2072 2073 2074 2075 2076 2077 2078 2079 
</DataArray>
<DataArray type="Int32" Name="offsets" format="ascii">
4 8 12 16 20 24 28 32 36 40 44 48 52 56 60 64 68 72 76 80 84 88 92 96 100 104 108 112 116 120 124 128 132 136 140 144 148 152 156 160 164 168 172 176 180 184 188 192 196 200 204 208 212 216 220 224 228 232 236 240 244 248 252 256 260 264 268 272 276 280 284 288 292 296 300 304 308 312 316 320 324 328 332 336 340 344 348 352 356 360 364 368 372 376 380 384 388 392 396 400 404 408 412 416 420 424 428 432 436 440 444 448 452 456 460 464 468 472 476 480 484 488 492 496 500 504 508 512 516 520 524 528 532 536 540 544 548 552 556 560 564 568 572 576 580 584 588 592 596 600 604 608 612 616 620 624 628 632 636 640 644 648 652 656 660 664 668 672 676 680 684 688 692 696 700 704 708 712 716 720 724 728 732 736 740 744 748 752 756 760 764 768 772 776 780 784 788 792 796 800 804 808 812 816 820 824 828 832 836 840 844 848 852 856 860 864 868 872 876 880 884 888 892 896 900 904 908 912 916 920 924 928 932 936 940 944 948 952 956 960 964 968 972 976 980 984 988 992 996 1000 1004 1008 1012 1016 1020 1024 1028 1032 1036 1040 1044 1048 1052 1056 1060 1064 1068 1072 1076 1080 1084 1088 1092 1096 1100 1104 1108 1112 1116 1120 1124 1128 1132 1136 1140 1144 1148 1152 1156 1160 1164 1168 1172 1176 1180 1184 1188 1192 1196 1200 1204 1208 1212 1216 1220 1224 1228 1232 1236 1240 1244 1248 1252 1256 1260 1264 1268 1272 1276 1280 1284 1288 1292 1296 1300 1304 1308 1312 1316 1320 1324 1328 1332 1336 1340 1344 1348 1352 1356 1360 1364 1368 1372 1376 1380 1384 1388 1392 1396 1400 1404 1408 1412 1416 1420 1424 1428 1432 1436 1440 1444 1448 1452 1456 1460 1464 1468 1472 1476 1480 1484 1488 1492 1496 1500 1504 1508 1512 1516 1520 1524 1528 1532 1536 1540 1544 1548 1552 1556 1560 1564 1568 1572 1576 1580 1584 1588 1592 1596 1600 1604 1608 1612 1616 1620 1624 1628 1632 1636 1640 1644 1648 1652 1656 1660 1664 1668 1672 1676 1680 1684 1688 1692 1696 1700 1704 1708 1712 1716 1720 1724 1728 1732 1736 1740 1744 1748 1752 1756 1760 1764 1768 1772 1776 1780 1784 1788 1792 1796 1800 1804 1808 1812 1816 1820 1824 1828 1832 1836 1840 1844 1848 1852 1856 1860 1864 1868 1872 1876 1880 1884 1888 1892 1896 1900 1904 1908 1912 1916 1920 1924 1928 1932 1936 1940 1944 1948 1952 1956 1960 1964 1968 1972 1976 1980 1984 1988 1992 1996 2000 2004 2008 2012 2016 2020 2024 2028 2032 2036 2040 2044 2048 2064 2080 
</DataArray>
<DataArray type="UInt8" Name="types" format="ascii">
7 7 7 7 7 7 7 7 7 7 7 7 7 7 7 7 7 7 7 7 7 7 7 7 7 7 7 7 7 7 7 7 7 7 7 7 7 7 7 7 7 7 7 7 7 7 7 7 7 7 7 7 7 7 7 7 7 7 7 7 7 7 7 7 7 7 7 7 7 7 7 7 7 7 7 7 7 7 7 7 7 7 7 7 7 7 7 7 7 7 7 7 7 7 7 7 7 7 7 7 7 7 7 7 7 7 7 7 7 7 7 7 7 7 7 7 7 7 7 7 7 7 7 7 7 7 7 7 7 7 7 7 7 7 7 7 7 7 7 7 7 7 7 7 7 7 7 7 7 7 7 7 7 7 7 7 7 7 7 7 7 7 7 7 7 7 7 7 7 7 7 7 7 7 7 7 7 7 7 7 7 7 7 7 7 7 7 7 7 7 7 7 7 7 7 7 7 7 7 7 7 7 7 7 7 7 7 7 7 7 7 7 7 7 7 7 7 7 7 7 7 7 7 7 7 7 7 7 7 7 7 7 7 7 7 7 7 7 7 7 7 7 7 7 7 7 7 7 7 7 7 7 7 7 7 7 7 7 7 7 7 7 7 7 7 7 7 7 7 7 7 7 7 7 7 7 7 7 7 7 7 7 7 7 7 7 7 7 7 7 7 7 7 7 7 7 7 7 7 7 7 7 7 7 7 7 7 7 7 7 7 7 7 7 7 7 7 7 7 7 7 7 7 7 7 7 7 7 7 7 7 7 7 7 7 7 7 7 7 7 7 7 7 7 7 7 7 7 7 7 7 7 7 7 7 7 7 7 7 7 7 7 7 7 7 7 7 7 7 7 7 7 7 7 7 7 7 7 7 7 7 7 7 7 7 7 7 7 7 7 7 7 7 7 7 7 7 7 7 7 7 7 7 7 7 7 7 7 7 7 7 7 7 7 7 7 7 7 7 7 7 7 7 7 7 7 7 7 7 7 7 7 7 7 7 7 7 7 7 7 7 7 7 7 7 7 7 7 7 7 7 7 7 7 7 7 7 7 7 7 7 7 7 7 7 7 7 7 7 7 7 7 7 7 7 7 7 7 7 7 7 7 7 7 7 7 7 7 7 7 7 7 7 7 7 7 7 7 7 7 7 7 7 7 7 7 7 7 7 7 7 7 7 7 
</DataArray>
</Cells>
<CellData Scalars="cell variable 4" Vectors="cell vector">
<DataArray type="Float64" NumberOfComponents="3" Name="cell vector" format="ascii">
0.182634 0.0680919 0.98082
0.535321 0.153044 0.830668
0.793531 0.21626 0.568806
0.921951 0.303426 0.240705
0.739079 0.643488 -0.199211
0.271336 0.782953 -0.559787
-0.14252 -0.567867 0.810688
-0.0316417 -0.223903 0.974098
0.0370267 0.220211 0.974749
0.130012 0.575836 0.807162
0.266704 0.785675 0.558197
0.736224 0.646731 0.199282
0.920831 0.307094 -0.240342
0.788645 0.231039 -0.56979
-0.522544 -0.180909 0.833198
-0.190526 -0.0543112 0.980179
0.16229 0.110177 0.980573
0.465184 0.307387 0.830131
0.693206 0.460594 0.554363
0.802504 0.563571 0.195895
0.750683 0.631049 -0.195581
0.542829 0.633305 -0.551599
-0.356699 -0.432639 0.828003
-0.126348 -0.151905 0.980286
0.126238 0.152862 0.980152
0.353035 0.43698 0.827293
0.541167 0.6353 0.550938
0.750136 0.631831 0.195157
0.801636 0.564694 -0.196214
0.691662 0.462405 -0.554785
-0.463164 -0.309415 0.830507
-0.164221 -0.106839 0.980621
0.160664 0.113114 0.980506
0.458974 0.317448 0.829801
0.685315 0.473718 0.553114
0.799488 0.568581 0.193737
0.759475 0.620413 -0.195664
0.534595 0.643869 -0.547395
-0.370915 -0.420561 0.82798
-0.132451 -0.14595 0.980385
0.13207 0.147322 0.980232
0.369149 0.423081 0.827485
0.533853 0.644955 0.54684
0.758925 0.621207 0.195282
0.79879 0.569449 -0.19407
0.684688 0.474275 -0.553413
-0.457985 -0.317939 0.830159
-0.161649 -0.110508 0.980641
0.1611 0.112969 0.980451
0.460031 0.31691 0.829421
0.688859 0.469905 0.551963
0.808764 0.555844 0.192192
0.779886 0.594555 -0.195658
0.208457 0.857998 -0.469452
-0.543264 0.823701 -0.162423
-0.634699 0.771525 -0.0436672
-0.634952 0.771473 0.0407981
-0.545593 0.823121 0.157482
0.211627 0.857154 0.469576
0.779114 0.595683 0.195303
0.808149 0.556629 -0.192509
0.688612 0.469995 -0.552195
-0.459288 -0.317054 0.829778
-0.16152 -0.110753 0.980635
0.161447 0.11265 0.980431
0.46031 0.316758 0.829325
0.688825 0.470331 0.551642
0.808764 0.556048 0.191599
0.783809 0.589451 -0.195427
0.272134 0.831714 -0.483936
-0.526986 0.835563 -0.155311
-0.61344 0.788596 -0.0425164
-0.613406 0.788688 0.0412831
-0.526881 0.835862 0.15405
0.275904 0.830313 0.484208
0.783288 0.590256 0.195086
0.80839 0.556493 -0.191886
0.688865 0.470051 -0.55183
-0.459888 -0.316481 0.829664
-0.161577 -0.11064 0.980638
0.161932 0.111604 0.980471
0.461354 0.31438 0.829649
0.690372 0.467443 0.552163
0.811247 0.552361 0.19177
0.788564 0.582987 -0.195688
0.268866 0.836918 -0.476739
-0.523069 0.841955 -0.132326
-0.59542 0.802511 -0.0380888
-0.595374 0.802597 0.0369843
-0.522917 0.842227 0.131192
0.274702 0.834434 0.477764
0.78816 0.583635 0.195381
0.811016 0.552613 -0.192021
0.690552 0.466986 -0.552324
-0.461134 -0.313837 0.829977
-0.16191 -0.109716 0.980687
0.162772 0.109861 0.980528
0.463557 0.309962 0.830083
0.693712 0.461624 0.552872
0.815912 0.545329 0.192102
0.798106 0.569709 -0.196107
0.230398 0.859058 -0.457096
-0.52183 0.846549 -0.105113
-0.578248 0.815225 -0.0322056
-0.578199 0.815301 0.0311468
-0.521692 0.846773 0.103982
0.236948 0.856503 0.45854
0.797847 0.570166 0.195831
0.815811 0.545402 -0.192326
0.693959 0.461079 -0.553017
-0.463459 -0.309255 0.830402
-0.162654 -0.108059 0.980748
0.163953 0.107591 0.980583
0.466826 0.30393 0.830482
0.698699 0.453266 0.553507
0.822444 0.535324 0.192389
0.80953 0.553243 -0.196428
0.15241 0.894765 -0.419722
-0.519037 0.851039 -0.0795819
-0.561073 0.827359 -0.0259565
-0.561034 0.827419 0.0248644
-0.51891 0.851221 0.07846
0.155024 0.89427 0.41982
0.809411 0.553505 0.196178
0.822427 0.535277 -0.192594
0.698969 0.452688 -0.553638
-0.466799 -0.303119 0.830793
-0.163765 -0.10585 0.980804
0.165413 0.104915 0.980628
0.470942 0.29662 0.830801
0.704982 0.442808 0.554005
0.830422 0.522781 0.192614
0.821336 0.535477 -0.19665
0.0500958 0.929284 -0.365953
-0.512868 0.856462 -0.0586411
-0.54349 0.839172 -0.0202107
-0.543481 0.839206 0.0190111
-0.512796 0.856584 0.0574834
0.0592206 0.927474 0.369169
0.821273 0.535659 0.196418
0.830431 0.522695 -0.192807
0.705251 0.442226 -0.554127
-0.470954 -0.29574 0.831108
-0.16517 -0.103216 0.980849
0.167079 0.101917 0.980662
0.475672 0.288292 0.831038
0.712182 0.430666 0.554368
0.839343 0.508272 0.192778
0.832919 0.517213 -0.196816
-0.124006 0.955936 -0.2661
-0.503459 0.862981 -0.0423425
-0.525387 0.850725 -0.0153261
-0.525383 0.850749 0.0141116
-0.503347 0.863098 0.0412762
-0.0881347 0.954589 0.28459
0.832931 0.517278 0.196596
0.839389 0.508125 -0.192962
0.712443 0.430084 -0.554484
-0.475698 -0.287371 0.831342
-0.166783 -0.100257 0.980883
0.168881 0.0986631 0.980686
0.480778 0.279183 0.831209
0.719911 0.417271 0.554629
0.848712 0.492422 0.192897
0.844021 0.49884 -0.196942
-0.287251 0.945065 -0.156011
-0.491688 0.870269 -0.0295635
-0.506886 0.86194 -0.0111999
-0.506872 0.861963 0.0100569
-0.491549 0.870381 0.0285617
-0.261861 0.949859 0.170873
0.844063 0.498852 0.196734
0.848795 0.49221 -0.19307
0.720167 0.416686 -0.554736
-0.480806 -0.278239 0.83151
-0.168533 -0.097044 0.980907
0.170746 0.0952222 0.980703
0.486056 0.269514 0.831332
0.727875 0.40296 0.554816
0.858304 0.47547 0.192984
0.854899 0.479924 -0.197031
-0.365077 0.926569 -0.090491
-0.477616 0.878335 -0.0202509
-0.487964 0.872827 -0.00794679
-0.48795 0.872845 0.00684883
-0.47752 0.878411 0.0192206
-0.352414 0.930705 0.0979426
0.85489 0.480019 0.196839
0.85839 0.475248 -0.193145
0.728123 0.402379 -0.554913
-0.486081 -0.268555 0.831627
-0.170351 -0.093642 0.980924
0.172629 0.0916328 0.980715
0.491387 0.259393 0.831417
0.735905 0.387915 0.554947
0.867922 0.457651 0.193047
0.865467 0.460568 -0.197091
-0.3961 0.916599 -0.0543279
-0.461744 0.886909 -0.0135843
-0.468634 0.883376 -0.00549115
-0.468622 0.883388 0.00441875
-0.46167 0.886963 0.0125571
-0.389342 0.919269 0.0579471
0.865436 0.460701 0.196913
0.868009 0.457423 -0.193197
0.736136 0.387351 -0.555034
-0.491401 -0.258435 0.831707
-0.172189 -0.0900936 0.980935
0.1745 0.0879246 0.980724
0.496682 0.248913 0.831474
0.743864 0.372292 0.555036
0.877417 0.439153 0.193091
0.875638 0.440908 -0.197126
-0.405553 0.913483 -0.0327919
-0.444566 0.895703 -0.00874143
-0.448939 0.893555 -0.00364639
-0.44893 0.893563 0.00260046
-0.444511 0.89574 0.00772866
-0.401582 0.915172 0.0345299
0.875601 0.441055 0.196962
0.877491 0.438944 -0.193231
0.744076 0.371753 -0.555113
-0.496681 -0.247962 0.831759
-0.174017 -0.0864257 0.980943
0.176335 0.084124 0.980729
0.501867 0.23816 0.83151
0.751645 0.356235 0.555092
0.886674 0.420135 0.193121
0.885394 0.420966 -0.197144
-0.404419 0.914383 -0.018686
-0.426466 0.904489 -0.0050904
-0.42893 0.903335 -0.00222228
-0.428922 0.903341 0.00121795
-0.426433 0.90451 0.00409219
-0.402047 0.915415 0.0193351
0.885343 0.421145 0.196991
0.886733 0.419952 -0.19325
0.751839 0.35572 -0.555158
-0.50185 -0.23722 0.831789
-0.175809 -0.0826703 0.980947
0.178116 0.0802508 0.980732
0.506893 0.227205 0.831527
0.759167 0.339864 0.555119
0.895591 0.400768 0.193139
0.894677 0.400858 -0.197146
-0.398127 0.917293 -0.00823407
-0.407818 0.913061 -0.00203173
-0.40866 0.912686 -0.00102364
-0.408651 0.912691 6.64316e-05
-0.40778 0.91308 0.00108515
-0.396856 0.917845 0.00813739
0.894653 0.400981 0.197003
0.895651 0.400575 -0.193259
0.759345 0.339372 -0.555177
-0.506854 -0.226288 0.831801
-0.177544 -0.0788556 0.980948
0.179829 0.0763313 0.980732
0.511711 0.216134 0.831528
0.766359 0.323317 0.555122
0.904104 0.381169 0.193146
0.903534 0.380481 -0.197133
-0.390044 0.920796 0.000971399
-0.388875 0.92129 0.000836542
-0.388177 0.921585 0.000139439
-0.388156 0.921593 -0.00098115
-0.38886 0.921295 -0.00177296
-0.3903 0.920685 -0.0021245
0.903529 0.380561 0.197
0.904168 0.380963 -0.193256
0.766526 0.322837 -0.55517
-0.51165 -0.215242 0.831796
-0.179208 -0.0750092 0.980948
0.181463 0.0723918 0.98073
0.516295 0.20501 0.831511
0.773177 0.306697 0.555099
0.91214 0.36152 0.193143
0.911887 0.360018 -0.197103
-0.383478 0.923481 0.0113127
-0.370004 0.929021 0.00407889
-0.367529 0.930011 0.00141491
-0.367499 0.930021 -0.00217039
-0.369972 0.92903 -0.00494356
-0.385208 0.922731 -0.0134816
0.911948 0.359928 0.196983
0.912219 0.361266 -0.193243
0.77333 0.306239 -0.555138
-0.51621 -0.204154 0.831775
-0.180792 -0.0711506 0.980944
0.183006 0.0684671 0.980725
0.520614 0.193929 0.831476
0.779576 0.290143 0.555048
0.919672 0.341914 0.193126
0.919791 0.339342 -0.197057
-0.382025 0.923803 0.0253798
-0.351449 0.936172 0.00805988
-0.346759 0.93795 0.00295402
-0.346731 0.937958 -0.00365425
-0.351413 0.936179 -0.00885941
-0.384754 0.922588 -0.0282162
0.919866 0.3392 0.19695
0.919757 0.341635 -0.193216
0.77972 0.289698 -0.555078
-0.520511 -0.193096 0.831734
-0.182291 -0.0673029 0.980938
0.184456 0.0645828 0.980717
0.524655 0.182976 0.831418
0.78553 0.273789 0.554962
0.926654 0.322532 0.193094
0.927171 0.318667 -0.196988
-0.390192 0.919562 0.0464437
-0.3336 0.94262 0.0133523
-0.32592 0.945385 0.00493997
-0.325891 0.945391 -0.00558795
-0.333519 0.942639 -0.0140304
-0.394884 0.917332 -0.0506728
0.927318 0.318295 0.196899
0.926746 0.32222 -0.193173
0.78566 0.273371 -0.554984
-0.524534 -0.182168 0.831672
-0.183699 -0.0635005 0.980929
0.185814 0.0607681 0.980704
0.528417 0.172226 0.831332
0.791018 0.25778 0.554834
0.933023 0.303651 0.193041
0.933909 0.29841 -0.19689
-0.417195 0.905165 0.0813912
-0.317073 0.948171 0.0208806
-0.305071 0.9523 0.00756399
-0.305058 0.952298 -0.00828715
-0.316842 0.948239 -0.0212967
-0.424783 0.90103 -0.0877727
0.93421 0.29751 0.196824
0.933134 0.303266 -0.193107
0.791127 0.257422 -0.554845
-0.528275 -0.171454 0.831582
-0.185014 -0.0597653 0.980917
0.187076 0.0570982 0.980685
0.531888 0.161832 0.831207
0.796028 0.242285 0.55465
0.938803 0.285331 0.192961
0.939988 0.278756 -0.19677
-0.479567 0.865718 0.143346
-0.302298 0.952699 0.0313109
-0.284216 0.958699 0.0108022
-0.284288 0.958664 -0.0119811
-0.301961 0.952799 -0.0315233
-0.491677 0.857176 -0.153308
0.940435 0.277277 0.196722
0.938865 0.285097 -0.193009
0.7961 0.242055 -0.554648
-0.531731 -0.161059 0.831458
-0.18624 -0.0561156 0.9809
0.188237 0.0536602 0.980657
0.535056 0.152064 0.831019
0.800545 0.227613 0.554364
0.944103 0.267374 0.192821
0.945979 0.257766 -0.196672
-0.536244 0.819491 0.202179
-0.28847 0.956492 0.0436865
-0.26314 0.964651 0.0143694
-0.263482 0.964525 -0.0164076
-0.289228 0.956193 -0.0451991
-0.614706 0.742497 -0.266147
0.945894 0.258144 0.196585
0.943948 0.267879 -0.19288
0.800573 0.227483 -0.554377
-0.534902 -0.151169 0.831281
-0.187382 -0.0526333 0.980876
0.189319 0.0504501 0.980619
0.537925 0.143167 0.830747
0.804468 0.214445 0.553936
0.94855 0.251311 0.1926
0.9516 0.23625 -0.196581
-0.500752 0.844674 0.189136
-0.276923 0.959051 0.0594486
-0.242323 0.969998 0.0195642
-0.242414 0.969955 -0.0205569
-0.277627 0.958746 -0.0610734
0.687448 -0.64065 0.342027
0.951502 0.236753 0.196449
0.948552 0.251241 -0.192682
0.804528 0.214127 -0.553971
-0.537768 -0.14218 0.831018
-0.188424 -0.0495295 0.980838
0.190299 0.0476085 0.980571
0.540458 0.135472 0.830393
0.807728 0.203352 0.553374
0.952044 0.237956 0.192328
0.956704 0.214847 -0.196365
-0.573829 0.776628 0.259941
-0.269573 0.95954 0.081322
-0.222043 0.974685 0.0261831
-0.221861 0.97473 -0.0260685
-0.269371 0.959559 -0.0817659
-0.634519 0.70823 -0.30951
0.956577 0.215467 0.196301
0.952235 0.23715 -0.192375
0.807867 0.202786 -0.553379
-0.540343 -0.134354 0.83065
-0.189389 -0.0468283 0.980785
0.191138 0.0453488 0.980515
0.542608 0.129398 0.829959
0.810342 0.194698 0.552665
0.95478 0.227023 0.191981
0.96125 0.193883 -0.195979
0.691255 -0.621211 -0.369139
-0.264245 0.958552 0.106546
-0.201612 0.978931 0.0323689
-0.201697 0.978888 -0.0330991
-0.264989 0.958179 -0.108049
0.697473 -0.610783 0.3748
0.960829 0.19595 0.19599
0.954839 0.226772 -0.191984
0.810501 0.194128 -0.552632
-0.542576 -0.128 0.830197
-0.190276 -0.044572 0.980718
0.191812 0.0437173 0.980458
0.544316 0.12524 0.829479
0.812268 0.188967 0.551826
0.956617 0.219576 0.191497
0.964278 0.178741 -0.195499
0.759566 -0.47815 -0.440944
-0.259429 0.95654 0.133145
-0.180355 0.982877 0.0377463
-0.180592 0.982779 -0.0391465
-0.260018 0.956225 -0.134254
0.761298 -0.473725 0.442731
0.963997 0.180229 0.195519
0.956639 0.219477 -0.191498
0.81242 0.18841 -0.551792
-0.544352 -0.12354 0.82971
-0.191014 -0.0429981 0.980645
0.192184 0.0428501 0.980423
0.54528 0.123402 0.829121
0.813232 0.186704 0.551176
0.957335 0.21674 0.191135
0.964776 0.176227 -0.195325
0.769625 -0.44226 -0.460525
-0.247222 0.957076 0.151284
-0.155977 0.986903 0.0411554
-0.156245 0.986801 -0.0425695
-0.247394 0.956981 -0.151604
0.770635 -0.439441 0.461534
0.964629 0.177033 0.195321
0.957384 0.216509 -0.191151
0.813397 0.186009 -0.551169
-0.545399 -0.121284 0.829355
-0.191488 -0.0422714 0.980584
0.191862 0.0430558 0.980477
0.544464 0.125349 0.829365
0.811684 0.191836 0.551696
0.955187 0.225269 0.192022
0.964657 0.176757 -0.195433
0.661347 -0.641428 -0.388832
-0.195302 0.972161 0.129461
-0.115661 0.992598 0.0370449
-0.115553 0.992636 -0.0363458
-0.193185 0.973018 -0.126154
0.662256 -0.639951 0.389718
0.964677 0.176608 0.195467
0.955346 0.224589 -0.192026
0.811907 0.190682 -0.551768
-0.544754 -0.122459 0.829606
-0.19139 -0.0426738 0.980586
0.19064 0.0398836 0.980849
0.542008 0.115965 0.832334
0.810842 0.176007 0.558173
0.958957 0.201576 0.199422
0.971413 0.135004 -0.195271
0.829137 -0.0603884 -0.555774
-0.555878 0.0137256 0.831151
-0.195377 0.00147769 0.980727
0.195495 -0.00199481 0.980703
0.555851 -0.0162626 0.831123
0.829076 -0.0601263 0.555894
0.971347 0.135318 0.195384
0.959081 0.201112 -0.199294
0.811088 0.174951 -0.558147
-0.542539 -0.113217 0.832366
-0.190377 -0.0396852 0.980909
0.190718 0.0368114 0.980954
0.542329 0.107294 0.833287
0.812209 0.162333 0.560326
0.962212 0.183066 0.201581
0.97282 0.124042 -0.195539
0.826398 -0.014082 -0.56291
-0.550253 0.00984125 0.83494
-0.19279 0.00187797 0.981238
0.1931 -0.00245525 0.981176
0.550081 -0.0143914 0.834987
0.8263 -0.0138883 0.563059
0.972746 0.124449 0.195647
0.962294 0.18281 -0.201421
0.812411 0.1617 -0.560216
-0.542899 -0.104949 0.833214
-0.190422 -0.0367831 0.981013
0.186083 0.0448457 0.98151
0.526922 0.138192 0.838604
0.780464 0.238733 0.577825
0.902659 0.35257 0.246782
0.968221 -0.0683153 -0.240583
0.784521 -0.189545 -0.590423
-0.535382 0.0641783 0.842168
-0.188225 0.0172984 0.981973
0.188303 -0.0174622 0.981956
0.533387 -0.0758695 0.842462
0.784831 -0.18801 0.590501
0.970104 -0.0515257 0.237156
0.903351 0.351052 -0.246415
0.780882 0.237663 -0.577702
-0.530106 -0.130057 0.837898
-0.186047 -0.0447982 0.981519
0.00676083 0.00682246 0.999954
0.00257188 0.000343963 0.999997
</DataArray>
<DataArray type="Float64" Name="cell vector length" format="ascii">
0.171639 0.159785 0.151195 0.119906 0.073307 0.163056 0.214449 0.198386 0.194846 0.208428 0.164339 0.0730649 0.119106 0.149032 0.177666 0.180051 0.409977 0.383233 0.34828 0.304934 0.269627 0.323761 0.413238 0.445816 0.440632 0.399259 0.32183 0.269697 0.305849 0.351185 0.403722 0.417414 0.51429 0.486638 0.444403 0.387617 0.328877 0.401027 0.515205 0.558481 0.554778 0.504618 0.399445 0.329303 0.388806 0.446609 0.502618 0.519594 0.544846 0.514691 0.465253 0.393747 0.286798 0.136618 0.212629 0.307763 0.308294 0.214904 0.13697 0.287527 0.394923 0.467032 0.529096 0.54944 0.564043 0.530623 0.472377 0.384341 0.256275 0.0985478 0.202027 0.299083 0.29872 0.200973 0.0986576 0.257125 0.385557 0.473874 0.544115 0.568196 0.577893 0.541148 0.474351 0.37103 0.220452 0.0607815 0.190104 0.285222 0.284892 0.189115 0.0609907 0.221602 0.37232 0.475673 0.554098 0.581787 0.588175 0.548636 0.47487 0.359622 0.195461 0.0370307 0.182025 0.273386 0.27311 0.181163 0.0371063 0.196756 0.360954 0.476079 0.56127 0.59192 0.595698 0.553935 0.474817 0.350896 0.178416 0.0231034 0.176995 0.264062 0.263815 0.176235 0.0230474 0.179729 0.352261 0.475961 0.566409 0.599364 0.601112 0.55763 0.474526 0.344494 0.167128 0.0154793 0.173817 0.257034 0.25681 0.173094 0.0154199 0.168516 0.34589 0.475642 0.570049 0.604747 0.604948 0.560166 0.474163 0.339852 0.158817 0.0124347 0.171926 0.25194 0.251737 0.171156 0.0118651 0.160431 0.341286 0.475273 0.572602 0.608581 0.607613 0.561864 0.473802 0.336518 0.152932 0.0133485 0.171032 0.24824 0.248045 0.170276 0.0122434 0.154559 0.337994 0.474928 0.574366 0.611265 0.60944 0.56297 0.473439 0.33408 0.148746 0.0153301 0.170576 0.245627 0.245434 0.169823 0.0140969 0.150386 0.335596 0.474598 0.57557 0.613124 0.610664 0.563659 0.473088 0.3323 0.145777 0.0170938 0.170376 0.243894 0.243707 0.169635 0.0158471 0.147421 0.333847 0.474282 0.576374 0.614388 0.611444 0.564046 0.472761 0.33102 0.143702 0.0184014 0.170319 0.242825 0.242644 0.16959 0.0171716 0.145347 0.332593 0.473991 0.576883 0.615212 0.611887 0.564211 0.472464 0.330125 0.142298 0.0192776 0.170355 0.242263 0.242091 0.169639 0.0180708 0.143942 0.331722 0.473728 0.577174 0.615701 0.612062 0.564204 0.4722 0.329544 0.141429 0.0197796 0.170466 0.242116 0.241948 0.169758 0.018596 0.143073 0.331167 0.473499 0.577293 0.615922 0.611996 0.564044 0.471968 0.329248 0.14104 0.0199661 0.170681 0.242352 0.242177 0.169953 0.0187868 0.142686 0.330902 0.473307 0.577262 0.615905 0.611688 0.563728 0.471767 0.329243 0.141134 0.0198903 0.171042 0.242977 0.242797 0.170303 0.0187222 0.142787 0.33093 0.473151 0.577077 0.615646 0.6111 0.563229 0.471593 0.329566 0.141801 0.0194015 0.171462 0.244005 0.243831 0.170741 0.0182816 0.143453 0.331294 0.473033 0.576715 0.615111 0.610157 0.56249 0.471437 0.330289 0.143209 0.0183928 0.171955 0.245556 0.245391 0.171273 0.0173672 0.144851 0.332078 0.472949 0.576123 0.614224 0.608751 0.561435 0.471288 0.331506 0.145604 0.0168076 0.172611 0.247815 0.247623 0.171907 0.0158933 0.147249 0.333395 0.47288 0.575209 0.612872 0.606728 0.559968 0.471156 0.333331 0.149242 0.015036 0.173657 0.251003 0.250714 0.172722 0.0140418 0.150999 0.335385 0.472795 0.573848 0.610891 0.603834 0.557918 0.471101 0.336129 0.154955 0.0165335 0.1749 0.255244 0.254996 0.174172 0.0130086 0.156446 0.338224 0.472697 0.571896 0.608046 0.599702 0.555009 0.471123 0.340352 0.159959 0.0254008 0.178351 0.260939 0.26076 0.176125 0.01668 0.164929 0.342419 0.472664 0.569138 0.603992 0.593881 0.550864 0.471081 0.346611 0.171857 0.0292175 0.181944 0.268689 0.268383 0.180924 0.0260729 0.17362 0.34858 0.472671 0.565233 0.598287 0.585794 0.544975 0.470751 0.35542 0.18943 0.0371777 0.187819 0.278917 0.278552 0.186883 0.0367109 0.190791 0.357255 0.472415 0.559696 0.590373 0.574507 0.53646 0.469428 0.366642 0.216071 0.0598066 0.197008 0.292329 0.292041 0.196157 0.0593117 0.217198 0.368184 0.471096 0.551647 0.579329 0.557252 0.522255 0.463444 0.375625 0.248686 0.0984486 0.214848 0.311337 0.311132 0.21407 0.0979213 0.249489 0.37686 0.465095 0.538117 0.562418 0.51808 0.48427 0.430789 0.35483 0.236856 0.124691 0.261408 0.35376 0.354877 0.265247 0.124424 0.237377 0.355881 0.432503 0.501614 0.52387 0.493475 0.459909 0.408658 0.341914 0.27739 0.359901 0.490119 0.538206 0.532693 0.474456 0.357865 0.278003 0.343005 0.410432 0.478182 0.499564 0.458308 0.424303 0.373746 0.314315 0.272035 0.326644 0.438066 0.48246 0.47536 0.417513 0.324741 0.272479 0.315336 0.375501 0.443186 0.464599 0.212061 0.174164 0.116456 0.0533317 0.0225747 0.117241 0.248615 0.310516 0.304897 0.231661 0.117865 0.0235162 0.0541796 0.116124 0.193463 0.218001 0.0625012 0.0152124 
</DataArray>
<DataArray type="Float64" Name="cell variable 4" format="ascii">
866.903 860.537 860.99 857.072 845.516 884.221 883.981 869.909 866.81 875.911 884.33 845.348 856.42 858.851 874.479 872.053 1090.09 1071.49 1061.32 1054.29 1050.32 1076.03 1108.32 1100.88 1094.92 1089.92 1076.03 1050.24 1054.13 1061.42 1099.62 1099.62 1288.02 1266.2 1252.42 1242.19 1235.05 1272.33 1306.09 1306.32 1300.24 1286.93 1272.57 1235.29 1242.28 1252.55 1299.4 1298.7 1328.07 1304.63 1289.32 1278.88 1270.04 1351.68 1649.19 1892.2 1890.51 1645.73 1350.85 1269.99 1278.78 1289.37 1338.67 1338.96 1336.44 1312.78 1297.97 1290.42 1287.16 1351.67 1629.12 1855.28 1854.1 1626.72 1350.55 1287 1290.32 1298.03 1346.95 1347.33 1339.31 1314.53 1297.99 1289.3 1286.43 1343.94 1613.74 1821.94 1821.05 1611.82 1342.85 1286.38 1289.3 1298.1 1348.72 1350.2 1341.16 1315.26 1297.04 1287.1 1283.83 1340.69 1604.44 1795.58 1794.89 1602.87 1339.35 1283.8 1287.15 1297.17 1349.52 1352.07 1342.61 1315.77 1296.15 1285.14 1281.57 1341.16 1599.06 1775.6 1775.05 1597.83 1339.66 1281.58 1285.2 1296.27 1350.15 1353.57 1343.8 1316.16 1295.4 1283.52 1279.75 1343.06 1595.67 1761.01 1760.55 1594.57 1341.68 1279.75 1283.57 1295.5 1350.74 1354.84 1344.72 1316.42 1294.78 1282.29 1278.44 1345.85 1593.81 1750.68 1750.28 1592.62 1344.26 1278.39 1282.32 1294.87 1351.24 1355.87 1345.34 1316.52 1294.28 1281.4 1277.47 1349.68 1593.21 1743.31 1742.94 1592.12 1347.93 1277.43 1281.41 1294.36 1351.6 1356.6 1345.77 1316.52 1293.89 1280.72 1276.7 1353.19 1592.97 1738.19 1737.86 1591.97 1351.39 1276.67 1280.74 1293.96 1351.86 1357.15 1346.07 1316.45 1293.53 1280.16 1276.06 1355.88 1592.95 1734.84 1734.55 1592.03 1354.09 1276.02 1280.17 1293.59 1352.08 1357.57 1346.25 1316.33 1293.19 1279.7 1275.53 1357.78 1593.04 1732.8 1732.54 1592.21 1356.02 1275.5 1279.71 1293.25 1352.23 1357.87 1346.31 1316.14 1292.87 1279.32 1275.11 1359.04 1593.21 1731.74 1731.51 1592.44 1357.31 1275.07 1279.33 1292.94 1352.32 1358.05 1346.26 1315.89 1292.58 1279.02 1274.77 1359.77 1593.44 1731.48 1731.27 1592.72 1358.06 1274.73 1279.04 1292.65 1352.35 1358.12 1346.09 1315.59 1292.3 1278.81 1274.53 1360.07 1593.81 1731.96 1731.73 1593.08 1358.36 1274.49 1278.82 1292.38 1352.3 1358.07 1345.83 1315.24 1292.04 1278.67 1274.38 1360.01 1594.37 1733.17 1732.97 1593.69 1358.32 1274.33 1278.68 1292.12 1352.19 1357.91 1345.47 1314.85 1291.82 1278.6 1274.29 1359.35 1594.96 1735.17 1735 1594.37 1357.73 1274.25 1278.62 1291.89 1352.01 1357.65 1345.01 1314.41 1291.6 1278.61 1274.32 1357.96 1595.59 1738.17 1738.03 1595.1 1356.43 1274.27 1278.64 1291.69 1351.77 1357.28 1344.46 1313.94 1291.42 1278.69 1274.42 1355.57 1596.29 1742.52 1742.4 1595.9 1354.23 1274.41 1278.74 1291.49 1351.45 1356.79 1343.78 1313.45 1291.35 1278.88 1274.45 1351.99 1597.16 1748.8 1748.6 1596.81 1351 1274.66 1278.94 1291.33 1351.05 1356.16 1342.87 1312.83 1291.36 1279.39 1274.85 1346.8 1598.39 1757.57 1757.23 1597.96 1347.11 1274.79 1279.29 1291.33 1350.62 1355.34 1341.66 1312.06 1291.47 1280.38 1276.03 1346.22 1603.81 1769.51 1769 1599.53 1341.63 1275.41 1280.09 1291.49 1350.08 1354.24 1340.23 1311.26 1291.8 1281.65 1277.26 1338.56 1607.5 1785.6 1785.14 1606.48 1339.14 1277.11 1281.5 1291.78 1349.33 1352.84 1338.5 1310.34 1292.21 1283.03 1278.56 1334.46 1613.52 1807.32 1806.95 1613.16 1334.07 1278.8 1283.1 1292.2 1348.46 1351.13 1335.49 1308.27 1291.58 1283.44 1279.3 1336.25 1623.07 1835.92 1835.53 1622.45 1335.11 1279.34 1283.52 1291.66 1346.48 1348.17 1324.33 1297.85 1282.15 1274.43 1269.08 1341.31 1640.4 1872.46 1871.88 1639.35 1339.99 1268.92 1274.4 1282.21 1335.82 1336.97 1259.87 1232.95 1214.51 1201.59 1188.86 1307.03 1667.26 1922.75 1921.72 1665.36 1306.22 1188.8 1201.57 1214.5 1268.81 1271.85 1208.1 1181.73 1162.72 1148.47 1137.32 1174.44 1222.28 1229.12 1220.55 1196.84 1174.57 1137.59 1148.68 1162.84 1216.2 1219.64 1095.01 1069.08 1048.2 1031.75 1019.48 1034.38 1083.89 1085.79 1075.38 1053.37 1034.1 1019.58 1031.91 1048.59 1100.06 1105.54 760.652 750.879 748.332 752.313 758.204 791.803 845.02 863.855 857.677 825.866 793.188 758.425 752.219 746.925 769.53 766.363 620.323 745.326 
</DataArray>
<DataArray type="Float64" Name="cell variable 5" format="ascii">
0.0020154 0.0020154 0.0020154 0.0020154 0.0020154 0.0020154 0.0020154 0.0020154 0.0020154 0.0020154 0.0020154 0.0020154 0.0020154 0.0020154 0.0020154 0.0020154 0.0020154 0.0020154 0.0020154 0.0020154 0.0020154 0.0020154 0.0020154 0.0020154 0.0020154 0.0020154 0.0020154 0.0020154 0.0020154 0.0020154 0.0020154 0.0020154 0.0020154 0.0020154 0.0020154 0.0020154 0.0020154 0.0020154 0.0020154 0.0020154 0.0020154 0.0020154 0.0020154 0.0020154 0.0020154 0.0020154 0.0020154 0.0020154 0.00304595 0.00281977 0.00245476 0.00210677 0.0020154 0.0020154 0.0020154 0.0020154 0.0020154 0.0020154 0.0020154 0.0020154 0.00210677 0.00245476 0.00281977 0.00304595 0.00344634 0.00313238 0.0026254 0.00214215 0.0020154 0.0020154 0.0020154 0.0020154 0.0020154 0.0020154 0.0020154 0.0020154 0.00214215 0.0026254 0.00313238 0.00344634 0.00367833 0.00331377 0.00272438 0.00216275 0.0020154 0.0020154 0.0020154 0.0020154 0.0020154 0.0020154 0.0020154 0.0020154 0.00216275 0.00272438 0.00331377 0.00367833 0.00384718 0.003445 0.00279648 0.00217798 0.0020154 0.0020154 0.0020154 0.0020154 0.0020154 0.0020154 0.0020154 0.0020154 0.00217798 0.00279648 0.003445 0.00384718 0.00397885 0.00354801 0.00285247 0.00218962 0.0020154 0.0020154 0.0020154 0.0020154 0.0020154 0.0020154 0.0020154 0.0020154 0.00218962 0.00285247 0.00354801 0.00397885 0.004085 0.00363086 0.0028977 0.00219903 0.0020154 0.0020154 0.0020154 0.0020154 0.0020154 0.0020154 0.0020154 0.0020154 0.00219903 0.0028977 0.00363086 0.004085 0.00417188 0.00369849 0.00293487 0.00220664 0.0020154 0.0020154 0.0020154 0.0020154 0.0020154 0.0020154 0.0020154 0.0020154 0.00220664 0.00293487 0.00369849 0.00417188 0.0042422 0.00375358 0.00296488 0.00221291 0.0020154 0.0020154 0.0020154 0.0020154 0.0020154 0.0020154 0.0020154 0.0020154 0.00221291 0.00296488 0.00375358 0.0042422 0.00429863 0.00379792 0.00298907 0.00221784 0.0020154 0.0020154 0.0020154 0.0020154 0.0020154 0.0020154 0.0020154 0.0020154 0.00221784 0.00298907 0.00379792 0.00429863 0.00434252 0.00383195 0.00300743 0.00222187 0.0020154 0.0020154 0.0020154 0.0020154 0.0020154 0.0020154 0.0020154 0.0020154 0.00222187 0.00300743 0.00383195 0.00434252 0.00437477 0.00385703 0.00302131 0.00222456 0.0020154 0.0020154 0.0020154 0.0020154 0.0020154 0.0020154 0.0020154 0.0020154 0.00222456 0.00302131 0.00385703 0.00437477 0.00439627 0.0038736 0.00303027 0.0022268 0.0020154 0.0020154 0.0020154 0.0020154 0.0020154 0.0020154 0.0020154 0.0020154 0.0022268 0.00303027 0.0038736 0.00439627 0.00440657 0.00388211 0.00303475 0.00222769 0.0020154 0.0020154 0.0020154 0.0020154 0.0020154 0.0020154 0.0020154 0.0020154 0.00222769 0.00303475 0.00388211 0.00440657 0.00440657 0.00388211 0.00303475 0.00222769 0.0020154 0.0020154 0.0020154 0.0020154 0.0020154 0.0020154 0.0020154 0.0020154 0.00222769 0.00303475 0.00388211 0.00440657 0.00439627 0.0038736 0.00303027 0.0022268 0.0020154 0.0020154 0.0020154 0.0020154 0.0020154 0.0020154 0.0020154 0.0020154 0.0022268 0.00303027 0.0038736 0.00439627 0.00437477 0.00385703 0.00302131 0.00222456 0.0020154 0.0020154 0.0020154 0.0020154 0.0020154 0.0020154 0.0020154 0.0020154 0.00222456 0.00302131 0.00385703 0.00437477 0.00434252 0.00383195 0.00300743 0.00222187 0.0020154 0.0020154 0.0020154 0.0020154 0.0020154 0.0020154 0.0020154 0.0020154 0.00222187 0.00300743 0.00383195 0.00434252 0.00429863 0.00379792 0.00298907 0.00221784 0.0020154 0.0020154 0.0020154 0.0020154 0.0020154 0.0020154 0.0020154 0.0020154 0.00221784 0.00298907 0.00379792 0.00429863 0.0042422 0.00375358 0.00296488 0.00221291 0.0020154 0.0020154 0.0020154 0.0020154 0.0020154 0.0020154 0.0020154 0.0020154 0.00221291 0.00296488 0.00375358 0.0042422 0.00417188 0.00369849 0.00293487 0.00220664 0.0020154 0.0020154 0.0020154 0.0020154 0.0020154 0.0020154 0.0020154 0.0020154 0.00220664 0.00293487 0.00369849 0.00417188 0.004085 0.00363086 0.0028977 0.00219903 0.0020154 0.0020154 0.0020154 0.0020154 0.0020154 0.0020154 0.0020154 0.0020154 0.00219903 0.0028977 0.00363086 0.004085 0.00397885 0.00354801 0.00285247 0.00218962 0.0020154 0.0020154 0.0020154 0.0020154 0.0020154 0.0020154 0.0020154 0.0020154 0.00218962 0.00285247 0.00354801 0.00397885 0.00384718 0.003445 0.00279648 0.00217798 0.0020154 0.0020154 0.0020154 0.0020154 0.0020154 0.0020154 0.0020154 0.0020154 0.00217798 0.00279648 0.003445 0.00384718 0.00367833 0.00331377 0.00272438 0.00216275 0.0020154 0.0020154 0.0020154 0.0020154 0.0020154 0.0020154 0.0020154 0.0020154 0.00216275 0.00272438 0.00331377 0.00367833 0.00344634 0.00313238 0.0026254 0.00214215 0.0020154 0.0020154 0.0020154 0.0020154 0.0020154 0.0020154 0.0020154 0.0020154 0.00214215 0.0026254 0.00313238 0.00344634 0.00304595 0.00281977 0.00245476 0.00210677 0.0020154 0.0020154 0.0020154 0.0020154 0.0020154 0.0020154 0.0020154 0.0020154 0.00210677 0.00245476 0.00281977 0.00304595 0.0020154 0.0020154 0.0020154 0.0020154 0.0020154 0.0020154 0.0020154 0.0020154 0.0020154 0.0020154 0.0020154 0.0020154 0.0020154 0.0020154 0.0020154 0.0020154 0.0020154 0.0020154 0.0020154 0.0020154 0.0020154 0.0020154 0.0020154 0.0020154 0.0020154 0.0020154 0.0020154 0.0020154 0.0020154 0.0020154 0.0020154 0.0020154 0.0020154 0.0020154 0.0020154 0.0020154 0.0020154 0.0020154 0.0020154 0.0020154 0.0020154 0.0020154 0.0020154 0.0020154 0.0020154 0.0020154 0.0020154 0.0020154 0.0020154 0.0020154 
</DataArray>
<DataArray type="Float64" Name="cell variable 6" format="ascii">
1 1 1 1 1 1 1 1 1 1 1 1 1 1 1 1 1 1 1 1 1 1 1 1 1 1 1 1 1 1 1 1 1 1 1 1 1 1 1 1 1 1 1 1 1 1 1 1 1 1 1 1 1 1 1 1 1 1 1 1 1 1 1 1 1 1 1 1 1 1 1 1 1 1 1 1 1 1 1 1 1 1 1 1 1 1 1 1 1 1 1 1 1 1 1 1 1 1 1 1 1 1 1 1 1 1 1 1 1 1 1 1 1 1 1 1 1 1 1 1 1 1 1 1 1 1 1 1 1 1 1 1 1 1 1 1 1 1 1 1 1 1 1 1 1 1 1 1 1 1 1 1 1 1 1 1 1 1 1 1 1 1 1 1 1 1 1 1 1 1 1 1 1 1 1 1 1 1 1 1 1 1 1 1 1 1 1 1 1 1 1 1 1 1 1 1 1 1 1 1 1 1 1 1 1 1 1 1 1 1 1 1 1 1 1 1 1 1 1 1 1 1 1 1 1 1 1 1 1 1 1 1 1 1 1 1 1 1 1 1 1 1 1 1 1 1 1 1 1 1 1 1 1 1 1 1 1 1 1 1 1 1 1 1 1 1 1 1 1 1 1 1 1 1 1 1 1 1 1 1 1 1 1 1 1 1 1 1 1 1 1 1 1 1 1 1 1 1 1 1 1 1 1 1 1 1 1 1 1 1 1 1 1 1 1 1 1 1 1 1 1 1 1 1 1 1 1 1 1 1 1 1 1 1 1 1 1 1 1 1 1 1 1 1 1 1 1 1 1 1 1 1 1 1 1 1 1 1 1 1 1 1 1 1 1 1 1 1 1 1 1 1 1 1 1 1 1 1 1 1 1 1 1 1 1 1 1 1 1 1 1 1 1 1 1 1 1 1 1 1 1 1 1 1 1 1 1 1 1 1 1 1 1 1 1 1 1 1 1 1 1 1 1 1 1 1 1 1 1 1 1 1 1 1 1 1 1 1 1 1 1 1 1 1 1 1 1 1 1 1 1 1 1 1 1 1 1 1 1 1 1 1 1 1 1 1 1 1 1 1 1 1 1 1 1 1 1 1 1 1 1 1 1 1 1 1 1 1 1 1 1 1 1 1 1 1 1 1 1 1 1 1 1 1 1 1 1 1 1 1 1 1 1 1 
</DataArray>
<DataArray type="Float64" Name="cell variable 7" format="ascii">
0 0 0 0 0 0 0 0 0 0 0 0 0 0 0 0 0 0 0 0 0 0 0 0 0 0 0 0 0 0 0 0 0 0 0 0 0 0 0 0 0 0 0 0 0 0 0 0 0 0 0 0 0 0 0 0 0 0 0 0 0 0 0 0 0 0 0 0 0 0 0 0 0 0 0 0 0 0 0 0 0 0 0 0 0 0 0 0 0 0 0 0 0 0 0 0 0 0 0 0 0 0 0 0 0 0 0 0 0 0 0 0 0 0 0 0 0 0 0 0 0 0 0 0 0 0 0 0 0 0 0 0 0 0 0 0 0 0 0 0 0 0 0 0 0 0 0 0 0 0 0 0 0 0 0 0 0 0 0 0 0 0 0 0 0 0 0 0 0 0 0 0 0 0 0 0 0 0 0 0 0 0 0 0 0 0 0 0 0 0 0 0 0 0 0 0 0 0 0 0 0 0 0 0 0 0 0 0 0 0 0 0 0 0 0 0 0 0 0 0 0 0 0 0 0 0 0 0 0 0 0 0 0 0 0 0 0 0 0 0 0 0 0 0 0 0 0 0 0 0 0 0 0 0 0 0 0 0 0 0 0 0 0 0 0 0 0 0 0 0 0 0 0 0 0 0 0 0 0 0 0 0 0 0 0 0 0 0 0 0 0 0 0 0 0 0 0 0 0 0 0 0 0 0 0 0 0 0 0 0 0 0 0 0 0 0 0 0 0 0 0 0 0 0 0 0 0 0 0 0 0 0 0 0 0 0 0 0 0 0 0 0 0 0 0 0 0 0 0 0 0 0 0 0 0 0 0 0 0 0 0 0 0 0 0 0 0 0 0 0 0 0 0 0 0 0 0 0 0 0 0 0 0 0 0 0 0 0 0 0 0 0 0 0 0 0 0 0 0 0 0 0 0 0 0 0 0 0 0 0 0 0 0 0 0 0 0 0 0 0 0 0 0 0 0 0 0 0 0 0 0 0 0 0 0 0 0 0 0 0 0 0 0 0 0 0 0 0 0 0 0 0 0 0 0 0 0 0 0 0 0 0 0 0 0 0 0 0 0 0 0 0 0 0 0 0 0 0 0 0 0 0 0 0 0 0 0 0 0 0 0 0 0 0 0 0 0 0 0 0 0 0 0 0 0 0 0 0 0 0 0 0 1 1 
</DataArray>
<DataArray type="Float64" Name="cell variable 8" format="ascii">
11.25 33.75 56.25 78.75 101.25 123.75 146.25 168.75 191.25 213.75 236.25 258.75 281.25 303.75 326.25 348.75 11.25 33.75 56.25 78.75 101.25 123.75 146.25 168.75 191.25 213.75 236.25 258.75 281.25 303.75 326.25 348.75 11.25 33.75 56.25 78.75 101.25 123.75 146.25 168.75 191.25 213.75 236.25 258.75 281.25 303.75 326.25 348.75 11.25 33.75 56.25 78.75 101.25 123.75 146.25 168.75 191.25 213.75 236.25 258.75 281.25 303.75 326.25 348.75 11.25 33.75 56.25 78.75 101.25 123.75 146.25 168.75 191.25 213.75 236.25 258.75 281.25 303.75 326.25 348.75 11.25 33.75 56.25 78.75 101.25 123.75 146.25 168.75 191.25 213.75 236.25 258.75 281.25 303.75 326.25 348.75 11.25 33.75 56.25 78.75 101.25 123.75 146.25 168.75 191.25 213.75 236.25 258.75 281.25 303.75 326.25 348.75 11.25 33.75 56.25 78.75 101.25 123.75 146.25 168.75 191.25 213.75 236.25 258.75 281.25 303.75 326.25 348.75 11.25 33.75 56.25 78.75 101.25 123.75 146.25 168.75 191.25 213.75 236.25 258.75 281.25 303.75 326.25 348.75 11.25 33.75 56.25 78.75 101.25 123.75 146.25 168.75 191.25 213.75 236.25 258.75 281.25 303.75 326.25 348.75 11.25 33.75 56.25 78.75 101.25 123.75 146.25 168.75 191.25 213.75 236.25 258.75 281.25 303.75 326.25 348.75 11.25 33.75 56.25 78.75 101.25 123.75 146.25 168.75 191.25 213.75 236.25 258.75 281.25 303.75 326.25 348.75 11.25 33.75 56.25 78.75 101.25 123.75 146.25 168.75 191.25 213.75 236.25 258.75 281.25 303.75 326.25 348.75 11.25 33.75 56.25 78.75 101.25 123.75 146.25 168.75 191.25 213.75 236.25 258.75 281.25 303.75 326.25 348.75 11.25 33.75 56.25 78.75 101.25 123.75 146.25 168.75 191.25 213.75 236.25 258.75 281.25 303.75 326.25 348.75 11.25 33.75 56.25 78.75 101.25 123.75 146.25 168.75 191.25 213.75 236.25 258.75 281.25 303.75 326.25 348.75 11.25 33.75 56.25 78.75 101.25 123.75 146.25 168.75 191.25 213.75 236.25 258.75 281.25 303.75 326.25 348.75 11.25 33.75 56.25 78.75 101.25 123.75 146.25 168.75 191.25 213.75 236.25 258.75 281.25 303.75 326.25 348.75 11.25 33.75 56.25 78.75 101.25 123.75 146.25 168.75 191.25 213.75 236.25 258.75 281.25 303.75 326.25 348.75 11.25 33.75 56.25 78.75 101.25 123.75 146.25 168.75 191.25 213.75 236.25 258.75 281.25 303.75 326.25 348.75 11.25 33.75 56.25 78.75 101.25 123.75 146.25 168.75 191.25 213.75 236.25 258.75 281.25 303.75 326.25 348.75 11.25 33.75 56.25 78.75 101.25 123.75 146.25 168.75 191.25 213.75 236.25 258.75 281.25 303.75 326.25 348.75 11.25 33.75 56.25 78.75 101.25 123.75 146.25 168.75 191.25 213.75 236.25 258.75 281.25 303.75 326.25 348.75 11.25 33.75 56.25 78.75 101.25 123.75 146.25 168.75 191.25 213.75 236.25 258.75 281.25 303.75 326.25 348.75 11.25 33.75 56.25 78.75 101.25 123.75 146.25 168.75 191.25 213.75 236.25 258.75 281.25 303.75 326.25 348.75 11.25 33.75 56.25 78.75 101.25 123.75 146.25 168.75 191.25 213.75 236.25 258.75 281.25 303.75 326.25 348.75 11.25 33.75 56.25 78.75 101.25 123.75 146.25 168.75 191.25 213.75 236.25 258.75 281.25 303.75 326.25 348.75 11.25 33.75 56.25 78.75 101.25 123.75 146.25 168.75 191.25 213.75 236.25 258.75 281.25 303.75 326.25 348.75 11.25 33.75 56.25 78.75 101.25 123.75 146.25 168.75 191.25 213.75 236.25 258.75 281.25 303.75 326.25 348.75 11.25 33.75 56.25 78.75 101.25 123.75 146.25 168.75 191.25 213.75 236.25 258.75 281.25 303.75 326.25 348.75 11.25 33.75 56.25 78.75 101.25 123.75 146.25 168.75 191.25 213.75 236.25 258.75 281.25 303.75 326.25 348.75 11.25 33.75 56.25 78.75 101.25 123.75 146.25 168.75 191.25 213.75 236.25 258.75 281.25 303.75 326.25 348.75 0 0 
</DataArray>
</CellData>
</Piece>
</UnstructuredGrid>
</VTKFile>
