<VTKFile type="UnstructuredGrid" version="0.1">
<UnstructuredGrid>
<Piece  NumberOfPoints="    2080" NumberOfCells="     514">
<Points>
<DataArray type="Float64" NumberOfComponents="3" format="ascii">
-89.4173 1004.81 1.02476
-85.5233 1008.15 26.7995
-70.2564 982.486 28.9295
-74.5087 978.885 1.07244
-84.6478 1008.89 29.5515
-73.4544 1018.3 51.3704
-57.2308 993.381 55.2336
-69.3809 983.223 31.6815
-71.8339 1019.65 53.4706
-55.0656 1033.67 67.9858
-37.4395 1009.88 73.0029
-55.6103 994.735 57.3337
-52.9538 1035.44 69.1163
-33.2867 1052 74.1592
-13.989 1029.53 79.5801
-35.3277 1011.64 74.1335
-31.018 1053.93 74.1544
-11.5298 1070.66 69.0213
9.41038 1049.56 74.0527
-11.7203 1031.45 79.5753
-9.45744 1072.47 67.8882
6.86541 1086.98 53.3829
29.132 1067.21 57.2805
11.4827 1051.37 72.9196
8.43241 1088.4 51.2852
19.2295 1098.38 29.5158
42.3016 1079.51 31.6074
30.699 1068.63 55.1829
20.0701 1099.16 26.7635
23.8607 1102.68 0.983575
47.1855 1084.15 0.993234
43.1422 1080.29 28.8551
23.8608 1102.68 -2.00078
20.0726 1099.15 -27.7809
43.1464 1080.28 -29.8452
47.1856 1084.15 -1.99113
19.2331 1098.37 -30.532
8.44784 1088.37 -52.2967
30.7268 1068.59 -56.1483
42.3069 1079.49 -32.5963
6.88323 1086.94 -54.3928
-9.4193 1072.39 -68.8839
11.535 1051.29 -73.8714
29.1622 1067.16 -58.2444
-11.4898 1070.58 -70.0156
-30.9653 1053.83 -75.1347
-11.6528 1031.35 -80.5128
9.46458 1049.48 -75.0032
-33.2329 1051.9 -75.1381
-52.8927 1035.33 -70.0816
-35.249 1011.54 -75.0551
-13.9203 1029.43 -80.5161
-55.0027 1033.56 -68.9493
-71.7383 1019.53 -54.411
-55.5202 994.634 -58.2366
-37.3589 1009.77 -73.9229
-73.3585 1018.17 -52.3083
-84.5579 1008.8 -30.4837
-69.323 983.147 -32.5377
-57.1404 993.28 -56.1339
-85.4384 1008.06 -27.7292
-89.4136 1004.8 -1.9577
-74.505 978.88 -1.91002
-70.2035 982.416 -29.7832
-72.5454 976.04 1.14998
-68.2931 979.641 29.007
-47.8086 953.897 29.631
-52.1659 950.248 1.17753
-55.2208 990.568 55.4467
-34.4626 964.96 56.5896
-46.8865 954.667 32.5186
-67.371 980.411 31.8946
-35.3462 1007.13 73.3198
-14.1787 981.721 74.8409
-32.7587 966.376 58.7936
-53.5169 991.984 57.6506
-11.787 1026.86 79.9542
9.87644 1001.71 81.6391
-11.9583 983.569 76.0286
-33.1258 1008.97 74.5075
11.7291 1046.98 74.4284
33.8539 1022.15 76.002
12.2619 1003.72 81.6359
-9.40161 1028.87 79.951
31.5475 1064.72 57.6018
53.8299 1040.34 58.7881
36.023 1024.05 74.8144
13.8982 1048.89 73.2408
44.7815 1077.1 31.8223
67.0929 1053.07 32.4547
55.4613 1041.85 56.5842
33.1788 1066.23 55.3978
49.6965 1081.79 1.06859
72.0189 1057.87 1.08706
67.9645 1053.9 29.5629
45.6531 1077.93 28.9305
45.6575 1077.92 -29.9171
67.9724 1053.86 -30.5044
72.0191 1057.87 -2.04459
49.6967 1081.79 -2.06306
33.2075 1066.19 -56.3582
55.5001 1041.8 -57.4824
67.1024 1053.03 -33.3935
44.7876 1077.08 -32.8063
13.9517 1048.81 -74.1868
36.0807 1023.97 -75.7025
53.8715 1040.29 -59.684
31.5789 1064.68 -58.5598
-9.33309 1028.77 -80.8829
12.3319 1003.63 -82.5133
33.9132 1022.06 -76.889
11.7842 1046.9 -75.3734
-33.0461 1008.87 -75.4239
-11.8813 983.465 -76.8938
9.94764 1001.61 -82.5152
-11.7174 1026.76 -80.8849
-53.4271 991.884 -58.5485
-32.6823 966.282 -59.6478
-14.101 981.617 -75.7047
-35.2658 1007.02 -74.2348
-67.3153 980.337 -32.7449
-46.8502 954.596 -33.3178
-34.3879 964.868 -57.4404
-55.1327 990.47 -56.3411
-68.2417 979.572 -29.8534
-72.5432 976.036 -1.98021
-52.1637 950.244 -1.95266
-47.7765 953.831 -30.4263
-49.8508 947.428 1.19959
-45.4935 951.078 29.653
-24.1507 925.981 29.7736
-28.5468 922.346 1.22364
-44.5567 951.851 32.5767
-32.1328 962.144 56.6478
-10.6842 937.004 56.8532
-23.2139 926.754 32.6973
-30.4018 963.566 58.8807
-11.8218 978.911 74.928
9.79788 953.697 75.1917
-8.95321 938.426 59.0861
-9.56513 980.767 76.1326
12.2696 998.908 81.7432
34.1032 973.593 82.0242
12.0545 955.553 76.3964
14.6915 1000.93 81.7399
36.2835 1019.36 76.106
58.2701 993.991 76.3319
36.5251 975.62 82.0209
38.4662 1021.29 74.9032
56.2732 1037.58 58.8769
78.0484 1012.61 59.0531
60.4529 995.924 75.1291
57.8998 1039.13 56.6444
69.5314 1050.35 32.5149
91.1514 1025.7 32.6534
79.6751 1014.16 56.8205
70.3992 1051.21 29.5861
74.4535 1055.17 1.1103
96.0354 1030.65 1.14523
92.0192 1026.56 29.7246
74.4543 1055.17 -2.06182
70.4076 1051.17 -30.5216
92.0378 1026.52 -30.5966
96.0361 1030.65 -2.02689
69.5421 1050.31 -33.4477
57.9398 1039.08 -57.5366
79.7185 1014.09 -57.6656
91.1723 1025.66 -33.5227
56.3152 1037.53 -59.7668
38.5243 1021.21 -75.7853
60.5072 995.838 -75.9635
78.0938 1012.54 -59.8958
36.3428 1019.27 -76.9872
14.7615 1000.84 -82.6115
36.5893 975.519 -82.8444
58.3257 993.903 -77.1654
12.3404 998.808 -82.6137
-9.48856 980.663 -76.9922
12.1231 955.449 -77.2087
34.1681 973.491 -82.8466
-11.7451 978.807 -75.7865
-30.3264 963.473 -59.7296
-8.88961 938.336 -59.8902
9.86654 953.593 -76.003
-32.0597 962.053 -57.4933
-44.522 951.781 -33.3708
-23.1902 926.686 -33.445
-10.6229 936.916 -57.6539
-45.4623 951.012 -30.4429
-49.8495 947.425 -1.96925
-28.5455 922.342 -1.9452
-24.1305 925.917 -30.5171
-26.1911 919.561 1.22997
-21.795 923.197 29.7799
-0.669557 898.121 29.8181
-5.13511 894.541 1.25177
-20.8466 923.963 32.7098
-8.31694 934.213 56.8657
12.9883 908.986 56.9008
0.278852 898.888 32.748
-6.56584 935.621 59.1014
12.1853 950.892 75.207
33.7351 925.447 75.2145
14.7394 910.395 59.1365
14.4675 952.73 76.4114
36.5162 970.771 82.0392
58.3417 945.063 82.015
36.0173 927.285 76.4188
38.9682 972.777 82.0325
60.7132 991.148 76.3435
82.9035 965.083 76.3103
60.7938 947.069 82.0083
62.9303 993.07 75.128
80.5259 1009.75 59.0521
103.394 983.032 58.9932
85.1206 967.004 75.0949
82.1696 1011.29 56.8168
93.6459 1022.84 32.6497
117.034 995.682 32.6471
105.038 984.568 56.7579
94.523 1023.69 29.726
98.5392 1027.77 1.14663
122.113 1000.48 1.18097
117.911 996.532 29.7235
98.5402 1027.77 -2.02078
94.5419 1023.64 -30.5905
117.93 996.498 -30.5268
122.115 1000.47 -1.98644
93.667 1022.79 -33.513
82.2131 1011.22 -57.6559
105.074 984.502 -57.554
117.055 995.645 -33.4493
80.5708 1009.68 -59.8898
62.9842 992.983 -75.9575
85.1695 966.916 -75.8806
103.432 982.964 -59.7879
60.7682 991.06 -77.1718
39.0318 972.676 -82.8509
60.8516 946.967 -82.7827
82.9535 964.993 -77.095
36.5803 970.668 -82.8565
14.5353 952.626 -77.2187
36.0782 927.182 -77.1826
58.4002 944.96 -82.7883
12.2529 950.789 -76.0134
-6.50322 935.531 -59.9005
14.7936 910.307 -59.8932
33.7958 925.345 -75.9773
-8.25671 934.125 -57.6615
-20.824 923.895 -33.4526
0.294829 898.821 -33.4479
13.0401 908.9 -57.6541
-21.7753 923.133 -30.5185
-26.1903 919.558 -1.94656
-5.13426 894.538 -1.92476
-0.656487 898.059 -30.5137
-2.82075 891.742 1.2549
1.64481 895.321 29.8212
22.2455 869.932 29.8473
17.7186 866.427 1.27672
2.6066 896.075 32.7519
15.3161 906.173 56.9047
36.0826 880.577 56.9325
23.2073 870.685 32.7779
17.0905 907.557 59.1396
36.0861 922.61 75.2175
57.0919 896.714 75.2412
37.857 881.961 59.1674
38.3976 924.417 76.4196
60.722 942.194 82.0158
82.0157 915.935 82.0275
59.4034 898.521 76.4433
63.2092 944.161 82.0074
85.3189 962.175 76.3094
106.962 935.484 76.3285
84.5028 917.902 82.0192
87.5879 964.038 75.0944
105.861 980.066 58.9927
128.033 952.771 59.0155
109.231 937.348 75.1135
107.566 981.542 56.758
119.562 992.656 32.6472
142.155 964.904 32.6719
129.738 954.247 56.7808
120.475 993.473 29.7259
124.678 997.417 1.1834
147.425 969.508 1.20895
143.068 965.721 29.7506
124.679 997.415 -1.98246
120.494 993.439 -30.5228
143.084 965.69 -30.4969
147.425 969.507 -1.95691
119.583 992.619 -33.4438
107.602 981.477 -57.5484
129.77 954.184 -57.5218
142.173 964.87 -33.4178
105.899 979.998 -59.7824
87.6363 963.95 -75.8751
109.277 937.26 -75.8466
128.067 952.705 -59.7558
85.3684 962.084 -77.0891
63.2666 944.059 -82.7768
84.557 917.801 -82.7428
107.009 935.395 -77.0606
60.78 942.091 -82.7841
38.4579 924.314 -77.1784
59.4591 898.421 -77.1578
82.0703 915.833 -82.7501
36.1461 922.508 -75.9755
17.1439 907.47 -59.8914
37.9051 881.877 -59.8757
57.1473 896.615 -75.9549
15.3672 906.087 -57.6532
2.6219 896.008 -33.447
23.2187 870.62 -33.4296
36.1284 880.494 -57.6376
1.65759 895.259 -30.5121
-2.82019 891.738 -1.92308
17.7192 866.424 -1.90126
22.2544 869.872 -30.4947
19.9708 863.589 1.27942
24.4978 867.094 29.85
44.4978 841.321 29.8744
39.9115 837.902 1.30098
25.4723 867.83 32.7813
38.3476 877.722 56.9358
58.5141 851.71 56.9679
45.4723 842.057 32.8057
40.1451 879.076 59.1712
59.38 893.83 75.245
79.7983 867.468 75.2863
60.3116 853.064 59.2033
61.722 895.596 76.4468
84.3343 913.011 82.031
105.064 886.23 82.0731
82.1403 869.235 76.488
86.8575 914.931 82.0222
109.317 932.513 76.3315
130.404 905.26 76.37
107.587 888.15 82.0644
111.632 934.318 75.1173
130.433 949.741 59.0193
151.963 921.93 59.0544
132.718 907.065 75.1559
132.187 951.16 56.7843
144.604 961.817 32.6755
166.491 933.564 32.702
153.717 923.349 56.8194
145.547 962.601 29.7535
149.903 966.388 1.21191
171.92 937.977 1.23574
167.433 934.348 29.7801
149.904 966.386 -1.95441
145.563 962.57 -30.4944
167.447 934.319 -30.4735
171.921 937.975 -1.93059
144.622 961.783 -33.416
132.219 951.098 -57.52
153.746 923.289 -57.5083
166.506 933.532 -33.3951
130.467 949.676 -59.7543
111.677 934.231 -75.8452
132.761 906.98 -75.8377
151.994 921.867 -59.7426
109.364 932.424 -77.0585
86.9113 914.83 -82.7407
107.638 888.052 -82.738
130.448 905.173 -77.0511
84.3885 912.909 -82.7486
61.7773 895.496 -77.1563
82.1919 869.138 -77.1538
105.115 886.131 -82.7459
59.4349 893.73 -75.9539
40.1927 878.992 -59.8747
60.3555 852.982 -59.8637
79.8495 867.372 -75.9514
38.3929 877.64 -57.6361
25.4832 867.766 -33.4281
45.4806 841.995 -33.4096
58.5557 851.63 -57.6252
24.5064 867.034 -30.4926
19.9712 863.586 -1.89917
39.9119 837.899 -1.87762
44.5038 841.262 -30.474
42.0958 835.021 1.30358
46.682 838.44 29.8771
66.0578 812.265 29.9006
61.4113 808.94 1.32477
47.6694 839.157 32.8091
60.7112 848.81 56.9713
80.2592 822.373 57.0039
67.0452 812.982 32.8327
62.5327 850.13 59.2077
82.0193 864.534 75.2908
101.832 837.714 75.3362
82.0806 823.694 59.2403
84.3936 866.256 76.4931
107.317 883.252 82.0782
127.457 855.973 82.1285
104.206 839.436 76.5385
109.878 885.12 82.0691
132.694 902.23 76.3748
153.195 874.45 76.4166
130.018 857.841 82.1194
135.051 903.977 75.1605
154.296 918.842 59.059
175.188 890.535 59.0946
155.552 876.198 75.2022
156.092 920.207 56.8234
168.866 930.422 32.706
190.068 901.698 32.7322
176.984 891.9 56.8589
169.834 931.174 29.783
174.321 934.803 1.23867
195.637 905.926 1.26148
191.036 902.449 29.8093
174.322 934.801 -1.92836
169.848 931.145 -30.4713
191.048 902.422 -30.4521
195.638 905.924 -1.90554
168.881 930.39 -33.3939
156.121 920.148 -57.5071
177.01 891.843 -57.4977
190.081 901.668 -33.3747
154.327 918.78 -59.7421
135.094 903.892 -75.8372
155.592 876.114 -75.8347
175.216 890.475 -59.7328
132.738 902.143 -77.0508
109.928 885.022 -82.7377
130.065 857.745 -82.7445
153.236 874.365 -77.0483
107.368 883.153 -82.7461
84.4448 866.159 -77.154
104.254 839.341 -77.1566
127.505 855.876 -82.7529
82.0701 864.438 -75.9511
62.5761 850.049 -59.8634
82.1211 823.614 -59.8538
101.879 837.62 -75.9537
60.7524 848.73 -57.6238
47.6774 839.095 -33.4082
67.0512 812.921 -33.3895
80.2974 822.296 -57.6142
46.6879 838.381 -30.4719
42.096 835.018 -1.87548
61.4115 808.936 -1.8543
66.0617 812.207 -30.4532
63.5256 806.014 1.32729
68.1721 809.339 29.9031
86.9147 782.759 29.9258
82.2062 779.533 1.34801
69.1727 810.036 32.8359
82.3867 819.428 57.0072
101.307 792.57 57.0382
87.9153 783.456 32.8586
84.233 820.711 59.2448
103.984 834.731 75.3406
123.177 807.463 75.3838
103.153 793.853 59.2758
106.392 836.405 76.5438
129.643 852.941 82.1338
149.171 825.184 82.1821
125.585 809.136 76.5869
132.242 854.755 82.1244
155.419 871.364 76.4215
175.306 843.085 76.4614
151.77 826.997 82.1727
157.816 873.054 75.2066
177.452 887.392 59.099
197.696 858.603 59.1318
177.703 844.775 75.2465
179.285 888.705 56.8627
192.369 898.503 32.7359
212.888 869.321 32.7612
199.529 859.917 56.8955
193.36 899.224 29.8121
197.961 902.701 1.26432
218.582 873.373 1.28629
213.879 870.042 29.8373
197.961 902.699 -1.90342
193.372 899.197 -30.4499
213.89 870.016 -30.4314
218.583 873.372 -1.88144
192.382 898.473 -33.3735
179.312 888.648 -57.4965
199.553 859.861 -57.486
212.901 869.292 -33.355
177.48 887.332 -59.7323
157.856 872.971 -75.8342
177.741 844.694 -75.8312
197.722 858.545 -59.7218
155.46 871.279 -77.0484
132.289 854.659 -82.7447
151.815 826.904 -82.7508
175.345 843.003 -77.0455
129.69 852.845 -82.7534
106.439 836.311 -77.1572
125.629 809.045 -77.1587
149.216 825.09 -82.7595
104.031 834.638 -75.9534
84.2731 820.632 -59.8535
103.19 793.776 -59.8434
123.221 807.372 -75.955
82.4247 819.35 -57.6128
69.1785 809.975 -33.3881
87.9192 783.396 -33.3695
101.342 792.494 -57.6026
68.1759 809.282 -30.451
63.5257 806.011 -1.85217
82.2063 779.53 -1.83145
86.9166 782.703 -30.4324
84.2497 776.563 1.35044
88.9583 779.789 29.9283
107.062 752.808 29.9502
102.291 749.685 1.3706
89.9724 780.465 32.8616
103.364 789.579 57.0412
121.648 762.307 57.0701
108.076 753.484 32.8836
105.235 790.823 59.2798
125.259 804.432 75.3879
143.821 776.728 75.4268
123.52 763.551 59.3087
127.701 806.055 76.5918
151.288 822.102 82.187
170.187 793.885 82.2301
146.262 778.351 76.6308
153.925 823.858 82.1774
177.461 839.946 76.4661
196.712 811.193 76.5026
172.824 795.641 82.2205
179.897 841.578 75.2505
199.889 855.406 59.1358
219.473 826.151 59.1651
199.148 812.825 75.2871
201.756 856.67 56.8989
215.115 866.075 32.7646
234.948 836.445 32.7885
221.339 827.415 56.9282
216.126 866.766 29.84
220.829 870.098 1.28899
240.753 840.331 1.31018
235.958 837.137 29.8639
220.83 870.097 -1.87936
216.137 866.741 -30.4293
235.968 837.113 -30.4109
240.754 840.329 -1.85818
215.127 866.046 -33.3536
201.78 856.615 -57.4847
221.362 827.362 -57.4722
234.959 836.418 -33.3353
199.915 855.348 -59.7211
179.934 841.498 -75.8305
199.183 812.747 -75.8258
219.496 826.095 -59.7086
177.499 839.864 -77.0455
153.969 823.765 -82.7508
172.865 795.55 -82.7529
196.748 811.113 -77.0407
151.332 822.008 -82.7598
127.745 805.963 -77.159
146.304 778.262 -77.1576
170.228 793.794 -82.762
125.303 804.341 -75.9545
105.273 790.746 -59.8429
123.554 763.476 -59.8319
143.862 776.64 -75.9531
103.399 789.503 -57.6011
89.976 780.405 -33.368
108.078 753.426 -33.3497
121.681 762.234 -57.59
88.9601 779.733 -30.4303
84.2498 776.56 -1.82935
102.291 749.682 -1.8092
107.062 752.754 -30.4121
104.263 746.672 1.37293
109.035 749.794 29.9525
126.495 722.421 29.9734
121.659 719.405 1.39246
110.062 750.448 32.8864
123.634 759.271 57.0729
141.276 731.596 57.0994
127.523 723.074 32.9073
125.531 760.474 59.3124
145.832 773.651 75.4305
163.75 745.526 75.4653
143.173 732.799 59.3389
148.308 775.22 76.6351
172.232 790.754 82.2345
190.485 762.095 82.2729
166.226 747.095 76.6699
174.907 792.451 82.2246
198.796 808.003 76.5068
217.392 778.799 76.5395
193.161 763.793 82.263
201.269 809.578 75.2907
221.593 822.903 59.1687
240.503 793.199 59.1958
219.865 780.373 75.3233
223.491 824.119 56.9313
237.099 833.149 32.7915
256.237 803.083 32.8142
242.4 794.416 56.9584
238.128 833.813 29.8665
242.923 837.007 1.31274
262.144 806.808 1.33312
257.266 803.747 29.8892
242.924 837.005 -1.85613
238.138 833.789 -30.4089
257.275 803.724 -30.3909
262.145 806.807 -1.83575
237.11 833.122 -33.3338
223.513 824.066 -57.4707
242.421 794.365 -57.4574
256.247 803.057 -33.3158
221.617 822.847 -59.7076
201.303 809.499 -75.8248
219.897 780.298 -75.8176
240.524 793.146 -59.6944
198.831 807.923 -77.0404
174.948 792.361 -82.7526
193.198 763.705 -82.7515
217.425 778.722 -77.0332
172.273 790.663 -82.7619
148.349 775.131 -77.1575
166.264 747.009 -77.1532
190.524 762.008 -82.7608
145.873 773.563 -75.9525
125.566 760.399 -59.8312
143.205 732.726 -59.819
163.788 745.441 -75.9482
123.666 759.198 -57.5885
110.064 750.39 -33.3482
127.522 723.017 -33.3302
141.306 731.524 -57.5764
109.035 749.74 -30.41
104.263 746.669 -1.80714
121.659 719.402 -1.78761
126.493 722.367 -30.3921
123.56 716.348 1.39469
128.395 719.364 29.9757
145.206 691.606 29.9955
140.307 688.701 1.41352
129.437 719.994 32.9099
143.19 728.516 57.102
160.181 700.447 57.1261
146.247 692.237 32.9298
145.112 729.676 59.3422
165.69 742.404 75.4686
182.955 713.87 75.4993
162.103 701.607 59.3663
168.2 743.917 76.6738
192.459 758.918 82.2767
210.053 729.835 82.3106
185.465 715.384 76.7045
195.171 760.554 82.2667
219.402 775.56 76.5432
237.331 745.917 76.5722
212.765 731.471 82.3007
221.911 777.076 75.3266
242.549 789.902 59.1991
260.773 759.765 59.2243
239.839 747.433 75.3556
244.475 791.071 56.9613
258.312 799.738 32.8171
276.747 769.247 32.8386
262.7 760.933 56.9865
259.358 800.375 29.8916
264.236 803.437 1.33555
282.747 772.818 1.35508
277.793 769.884 29.9131
264.236 803.435 -1.83375
259.367 800.352 -30.3889
277.801 769.862 -30.3715
282.748 772.816 -1.81422
258.322 799.713 -33.3143
244.496 791.021 -57.4559
262.718 760.885 -57.4425
276.756 769.223 -33.2969
242.57 789.849 -59.6933
221.942 777.001 -75.8165
239.868 747.361 -75.8072
260.793 759.714 -59.6799
219.435 775.483 -77.0326
195.209 760.467 -82.7509
212.8 731.387 -82.7469
237.361 745.843 -77.0233
192.496 758.83 -82.7603
168.237 743.831 -77.1528
185.499 715.301 -77.146
210.087 729.75 -82.7564
165.727 742.319 -75.9473
145.144 729.603 -59.8181
162.133 701.536 -59.805
182.99 713.788 -75.9404
143.219 728.444 -57.5748
129.436 719.937 -33.3286
146.245 692.181 -33.311
160.208 700.377 -57.5617
128.393 719.311 -30.39
123.56 716.345 -1.78559
140.307 688.698 -1.76676
145.203 691.554 -30.3724
142.135 685.602 1.41565
147.034 688.508 29.9976
163.19 660.377 30.0165
158.228 657.585 1.43374
148.089 689.114 32.9322
162.022 697.324 57.1286
178.355 668.874 57.1506
164.245 660.984 32.9511
163.97 698.441 59.3693
184.822 710.704 75.5022
201.423 681.777 75.529
180.303 669.991 59.3913
187.364 712.161 76.7078
211.952 726.611 82.314
228.874 697.122 82.343
203.966 683.234 76.7346
214.701 728.185 82.3039
239.267 742.632 76.5755
256.513 712.572 76.6014
231.623 698.696 82.3329
241.809 744.089 75.3585
262.743 756.42 59.2272
280.27 725.865 59.2497
259.055 714.029 75.3845
264.697 757.542 56.9891
278.745 765.856 32.8412
296.469 734.954 32.8613
282.224 726.987 57.0117
279.806 766.467 29.9154
284.76 769.4 1.35736
302.554 738.373 1.37604
297.53 735.564 29.9355
284.76 769.399 -1.81227
279.814 766.445 -30.3696
297.537 735.543 -30.3524
302.555 738.372 -1.7936
278.754 765.832 -33.2953
264.715 757.494 -57.4409
282.241 726.94 -57.4265
296.477 734.93 -33.2781
262.762 756.369 -59.6786
241.838 744.017 -75.806
259.081 713.96 -75.7952
280.288 725.816 -59.6642
239.296 742.558 -77.0224
214.735 728.102 -82.746
231.655 698.615 -82.7387
256.54 712.501 -77.0117
211.987 726.527 -82.7556
187.399 712.078 -77.1453
203.998 683.154 -77.1361
228.906 697.04 -82.7483
184.856 710.622 -75.9393
163.999 698.371 -59.8039
180.33 669.923 -59.7902
201.455 681.698 -75.9301
162.049 697.255 -57.56
148.087 689.059 -33.3093
164.241 660.93 -33.2922
178.38 668.807 -57.5463
147.03 688.456 -30.3704
142.135 685.6 -1.7648
158.228 657.582 -1.74671
163.184 660.327 -30.3533
159.983 654.446 1.43577
164.944 657.238 30.0185
180.438 628.747 30.0364
175.415 626.07 1.45307
166.013 657.82 32.9533
180.123 665.711 57.1528
195.791 636.893 57.1728
181.506 629.329 32.9712
182.096 666.783 59.3939
203.216 678.569 75.5316
219.144 649.264 75.5548
197.763 637.965 59.4138
205.791 679.967 76.7375
230.699 693.855 82.3459
246.938 663.976 82.3706
221.719 650.662 76.7607
233.483 695.365 82.3358
258.373 709.242 76.6043
274.923 678.785 76.6273
249.722 665.486 82.3605
260.948 710.639 75.3871
282.163 722.475 59.2523
298.982 691.519 59.2727
277.498 680.182 75.4101
284.143 723.55 57.014
298.387 731.517 32.8637
315.391 700.217 32.8825
300.961 692.594 57.0344
299.463 732.102 29.9377
304.488 734.91 1.37818
321.557 703.488 1.39605
316.466 700.802 29.9565
304.488 734.909 -1.79169
299.47 732.081 -30.3505
316.473 700.782 -30.3337
321.558 703.487 -1.77382
298.395 731.494 -33.2764
284.159 723.504 -57.4248
300.977 692.55 -57.4098
315.398 700.195 -33.2596
282.181 722.426 -59.6628
260.974 710.571 -75.7938
277.522 680.116 -75.7818
298.998 691.472 -59.6478
258.399 709.171 -77.0106
233.514 695.285 -82.7376
249.75 665.409 -82.7275
274.947 678.717 -76.9985
230.731 693.774 -82.7472
205.822 679.887 -77.135
221.748 650.585 -77.1238
246.967 663.898 -82.7372
203.247 678.49 -75.9288
182.122 666.715 -59.7889
197.787 637.899 -59.7747
219.173 649.188 -75.9176
180.148 665.644 -57.5447
166.008 657.767 -33.2906
181.501 629.277 -33.274
195.813 636.828 -57.5305
164.939 657.188 -30.3514
159.983 654.443 -1.74481
175.415 626.067 -1.7275
180.431 628.698 -30.3348
177.097 622.892 1.45499
182.119 625.568 30.0383
196.945 596.729 30.0551
191.862 594.17 1.47148
183.2 626.126 32.9732
197.485 633.69 57.1748
212.478 604.518 57.1929
198.026 597.287 32.99
199.481 634.716 59.4161
220.862 646.015 75.5571
236.108 616.348 75.5772
214.474 605.545 59.4342
223.468 647.354 76.7632
248.687 660.667 82.3731
264.232 630.416 82.3942
238.714 617.687 76.7833
251.504 662.113 82.3629
276.706 675.412 76.6298
292.55 644.575 76.65
267.049 631.862 82.384
279.313 676.749 75.4124
300.796 688.086 59.275
316.896 656.747 59.2934
295.157 645.912 75.4326
302.8 689.114 57.0365
317.23 696.737 32.8846
333.505 665.056 32.9022
318.9 657.775 57.055
318.319 697.296 29.9585
323.41 699.982 1.39806
339.747 668.179 1.41506
334.594 665.614 29.976
323.41 699.981 -1.77196
318.325 697.276 -30.3318
334.6 665.595 -30.3155
339.747 668.177 -1.75496
317.237 696.715 -33.2579
302.815 689.07 -57.4081
318.914 657.733 -57.3929
333.512 665.034 -33.2416
300.812 688.04 -59.6463
279.336 676.683 -75.7802
295.178 645.85 -75.7671
316.91 656.703 -59.6311
276.73 675.344 -76.9972
251.533 662.036 -82.7262
267.075 631.788 -82.7142
292.571 644.511 -76.9841
248.715 660.59 -82.7359
223.497 647.277 -77.1226
238.74 617.613 -77.1099
264.257 630.342 -82.724
220.89 645.939 -75.9162
199.505 634.65 -59.7733
214.497 605.482 -59.7588
236.134 616.275 -75.9035
197.507 633.625 -57.5288
183.194 626.074 -33.2723
198.018 597.237 -33.2563
212.499 604.456 -57.5144
182.112 625.52 -30.333
177.096 622.889 -1.72567
191.862 594.168 -1.70917
196.936 596.682 -30.317
193.469 590.954 1.47329
198.551 593.513 30.0569
212.702 564.34 30.0727
207.562 561.9 1.48898
199.645 594.045 32.9919
214.097 601.277 57.1947
228.41 571.766 57.211
213.796 564.872 33.0077
216.116 602.257 59.4362
237.75 613.06 75.5792
252.305 583.047 75.5966
230.429 572.746 59.4524
240.386 614.338 76.7854
265.904 627.067 82.3963
280.745 596.462 82.4142
254.941 584.325 76.8028
268.754 628.448 82.3862
294.254 641.161 76.6521
309.381 609.963 76.6698
283.595 597.842 82.4041
296.891 642.438 75.4346
318.631 653.272 59.2955
334.002 621.567 59.3123
312.018 611.24 75.4523
320.658 654.254 57.057
335.263 661.534 32.9042
350.8 629.485 32.9205
336.03 622.549 57.0737
336.364 662.067 29.9779
341.518 664.631 1.41694
357.114 632.461 1.43304
351.902 630.018 29.9943
341.518 664.63 -1.75317
336.37 662.048 -30.3137
351.908 630 -30.298
357.115 632.46 -1.73707
335.269 661.513 -33.2399
320.672 654.212 -57.3912
336.042 622.509 -57.3761
350.807 629.465 -33.2241
318.645 653.228 -59.6295
296.912 642.375 -75.7655
312.037 611.18 -75.7514
334.015 621.525 -59.6144
294.276 641.097 -76.9826
268.779 628.375 -82.7128
283.618 597.772 -82.6993
309.401 609.902 -76.9686
265.929 626.994 -82.7225
240.412 614.265 -77.1084
254.965 584.255 -77.0946
280.768 596.391 -82.709
237.776 612.988 -75.902
216.138 602.194 -59.7573
230.449 572.686 -59.7427
252.328 582.978 -75.8882
214.118 601.215 -57.5127
199.637 593.995 -33.2547
213.786 564.824 -33.2393
228.428 571.707 -57.4981
198.542 593.466 -30.3153
193.468 590.951 -1.70741
207.561 561.897 -1.69173
212.691 564.295 -30.2998
209.093 558.647 1.49068
214.233 561.087 30.0744
227.703 531.593 30.0891
222.507 529.274 1.50552
215.339 561.594 33.0094
229.953 568.488 57.2127
243.578 538.653 57.2273
228.808 532.1 33.0241
231.994 569.421 59.4542
253.87 579.722 75.5983
267.727 549.378 75.6131
245.619 539.586 59.4688
256.535 580.938 76.8046
282.339 593.075 82.416
296.468 562.132 82.4311
270.392 550.594 76.8193
285.22 594.389 82.4059
311.006 606.51 76.6716
325.408 574.968 76.6868
299.349 563.446 82.421
313.672 607.726 75.4541
335.656 618.054 59.3141
350.291 586.001 59.3293
328.074 576.184 75.4693
337.706 618.987 57.0755
352.476 625.924 32.9223
367.269 593.525 32.9376
352.341 586.935 57.0907
353.59 626.431 29.996
358.802 628.874 1.4348
373.651 596.352 1.45005
368.383 594.032 30.0113
358.803 628.873 -1.73535
353.596 626.413 -30.2962
368.388 594.015 -30.2811
373.651 596.351 -1.7201
352.482 625.904 -33.2224
337.718 618.948 -57.3744
352.351 586.897 -57.3594
367.274 593.506 -33.2073
335.669 618.012 -59.6127
313.691 607.667 -75.7498
328.091 576.128 -75.7351
350.302 585.961 -59.5977
311.026 606.45 -76.967
285.243 594.32 -82.6977
299.369 563.38 -82.683
325.425 574.911 -76.9523
282.362 593.005 -82.7075
256.558 580.869 -77.093
270.412 550.528 -77.0784
296.488 562.066 -82.6928
253.893 579.653 -75.8866
232.014 569.361 -59.7411
245.637 539.529 -59.7265
267.747 549.312 -75.8719
229.971 568.429 -57.4965
215.329 561.546 -33.2376
228.797 532.054 -33.2228
243.594 538.597 -57.4818
214.223 561.042 -30.2982
209.093 558.645 -1.69004
222.507 529.272 -1.6752
227.69 531.55 -30.2834
223.963 525.987 1.5071
229.158 528.306 30.0907
241.939 498.506 30.1043
236.691 496.308 1.52106
230.275 528.787 33.0256
245.045 535.34 57.2288
257.974 505.196 57.2417
243.056 498.987 33.0392
247.107 536.226 59.4703
269.215 546.017 75.6146
282.364 515.359 75.6268
260.036 506.082 59.4832
271.907 547.172 76.8208
297.983 558.709 82.4326
311.392 527.446 82.4448
285.057 516.514 76.8331
300.894 559.957 82.4225
326.953 571.479 76.6884
340.621 539.611 76.7013
314.303 528.694 82.4347
329.646 572.632 75.4709
351.863 582.449 59.3309
365.752 550.066 59.3446
343.314 540.765 75.4839
353.934 583.335 57.0924
368.862 589.926 32.9392
382.901 557.193 32.9534
367.823 550.952 57.1061
369.987 590.407 30.013
375.255 592.727 1.45169
389.348 559.87 1.46609
384.027 557.673 30.0271
375.256 592.726 -1.71845
369.992 590.389 -30.2794
384.031 557.657 -30.2649
389.348 559.869 -1.70405
368.867 589.907 -33.2056
353.945 583.298 -57.3577
367.833 550.916 -57.3429
382.906 557.174 -33.191
351.874 582.41 -59.5961
329.663 572.576 -75.7334
343.329 540.712 -75.7181
365.762 550.028 -59.5812
326.97 571.422 -76.9506
300.914 559.891 -82.6814
314.321 528.632 -82.6656
340.636 539.557 -76.9352
298.003 558.643 -82.6911
271.927 547.106 -77.0767
285.075 516.451 -77.0612
311.41 527.384 -82.6753
269.235 545.952 -75.8702
247.124 536.169 -59.7248
260.052 506.027 -59.7102
282.383 515.297 -75.8548
245.061 535.284 -57.4802
230.263 528.741 -33.2212
243.043 498.943 -33.2071
257.988 505.143 -57.4656
229.146 528.263 -30.2818
223.962 525.984 -1.6736
236.69 496.306 -1.65964
241.925 498.465 -30.2677
238.07 492.988 1.52254
243.318 495.186 30.1058
255.405 465.094 30.1182
250.107 463.019 1.53554
244.446 495.64 33.0406
259.364 501.849 57.2431
271.592 471.411 57.2542
256.533 465.549 33.0531
261.446 502.687 59.4844
283.774 511.964 75.6281
296.211 481.009 75.6377
273.674 472.249 59.4955
286.492 513.057 76.8343
312.828 523.989 82.446
325.509 492.424 82.4553
298.929 482.101 76.8439
315.766 525.169 82.436
342.084 536.087 76.7026
355.01 503.912 76.7131
328.448 493.604 82.4453
344.803 537.178 75.4852
367.242 546.479 59.346
380.378 513.782 59.3581
357.73 505.003 75.4957
369.333 547.317 57.1075
384.411 553.557 32.9548
397.69 520.507 32.968
382.469 514.62 57.1197
385.547 554.012 30.0286
390.868 556.208 1.46762
404.198 523.032 1.48122
398.827 520.961 30.0418
390.869 556.207 -1.70247
385.552 553.996 -30.2633
398.831 520.946 -30.2493
404.199 523.031 -1.68887
384.416 553.539 -33.1894
369.342 547.281 -57.3413
382.478 514.587 -57.3266
397.695 520.489 -33.1754
367.252 546.442 -59.5795
344.818 537.125 -75.7164
357.742 504.953 -75.7003
380.387 513.747 -59.5649
342.099 536.033 -76.9334
315.784 525.108 -82.6638
328.463 493.546 -82.6469
355.024 503.861 -76.9174
312.845 523.927 -82.6735
286.51 512.995 -77.0594
298.945 482.043 -77.0431
325.525 492.366 -82.6566
283.792 511.903 -75.8531
261.461 502.633 -59.7085
273.687 472.198 -59.694
296.226 480.951 -75.8368
259.378 501.796 -57.4641
244.433 495.597 -33.2055
256.518 465.507 -33.1921
271.604 471.361 -57.4495
243.304 495.145 -30.2661
238.069 492.986 -1.65812
250.106 463.017 -1.64511
255.39 465.055 -30.2528
251.408 459.667 1.53689
256.707 461.742 30.1196
268.094 431.372 30.1309
262.748 429.421 1.54896
257.845 462.17 33.0543
272.904 468.033 57.2554
284.424 437.316 57.2646
269.232 431.801 33.0656
275.005 468.822 59.4965
297.541 477.582 75.6387
309.258 446.346 75.6455
286.525 438.105 59.5058
300.284 478.612 76.8448
326.864 488.935 82.4562
338.811 457.085 82.4621
312.001 447.375 76.8515
329.829 490.047 82.4462
356.392 500.354 76.714
368.57 467.891 76.7219
341.776 458.197 82.4521
359.136 501.382 75.4969
381.784 510.162 59.3593
394.161 477.171 59.3696
371.313 468.918 75.5047
383.895 510.951 57.121
399.116 516.838 32.9692
411.629 483.486 32.981
396.272 477.96 57.1313
400.263 517.265 30.0432
405.634 519.336 1.48262
418.196 485.857 1.49517
412.776 483.914 30.0549
405.634 519.335 -1.68736
400.267 517.25 -30.2478
412.779 483.899 -30.2345
418.196 485.856 -1.67482
399.12 516.82 -33.1738
383.903 510.918 -57.325
396.279 477.929 -57.3105
411.633 483.47 -33.1606
381.793 510.127 -59.5632
359.148 501.333 -75.6986
371.325 468.873 -75.6819
394.169 477.139 -59.5486
356.405 500.304 -76.9155
329.845 489.989 -82.645
341.79 458.144 -82.6266
368.581 467.844 -76.8988
326.88 488.877 -82.6547
300.3 478.554 -77.0412
312.014 447.321 -77.0239
338.825 457.031 -82.6363
297.557 477.525 -75.835
275.018 468.772 -59.6923
286.536 438.058 -59.6777
309.272 446.292 -75.8177
272.915 467.983 -57.448
257.83 462.129 -33.1906
269.216 431.762 -33.1779
284.434 437.269 -57.4334
256.691 461.703 -30.2513
251.407 459.665 -1.64369
262.747 429.419 -1.63162
268.077 431.336 -30.2387
263.971 426.038 1.55019
269.318 427.99 30.1321
279.999 397.358 30.1423
274.608 395.529 1.56129
270.466 428.393 33.0666
285.657 433.907 57.2657
296.464 402.927 57.2728
281.147 397.76 33.0768
287.776 434.649 59.5065
310.509 442.889 75.6462
321.5 411.389 75.6496
298.583 403.668 59.5136
313.275 443.855 76.852
340.085 453.565 82.4626
351.291 421.451 82.4647
324.266 412.355 76.8554
343.075 454.609 82.4527
369.868 464.303 76.7224
381.291 431.57 76.7274
354.281 422.495 82.4548
372.635 465.267 75.5056
395.483 473.52 59.3704
407.094 440.253 59.3787
384.058 432.534 75.5105
397.612 474.259 57.1324
412.969 479.785 32.9821
424.71 446.15 32.9925
409.223 440.993 57.1407
414.126 480.185 30.0562
419.546 482.128 1.49642
431.333 448.361 1.50799
425.867 446.551 30.0666
419.546 482.127 -1.67339
414.13 480.171 -30.2331
425.87 446.537 -30.2204
431.334 448.361 -1.66182
412.973 479.769 -33.159
397.619 474.228 -57.3089
409.229 440.964 -57.2942
424.714 446.135 -33.1463
395.491 473.487 -59.5468
372.646 465.222 -75.6801
384.068 432.492 -75.6623
407.101 440.223 -59.5322
369.88 464.256 -76.8967
343.088 454.556 -82.6246
354.292 422.446 -82.6042
381.301 431.527 -76.879
340.098 453.512 -82.6342
313.288 443.802 -77.0218
324.277 412.306 -77.0031
351.303 421.402 -82.6139
310.522 442.836 -75.8159
287.787 434.602 -59.6759
298.592 403.625 -59.6612
321.511 411.34 -75.7972
285.667 433.861 -57.4319
270.449 428.354 -33.1764
281.129 397.724 -33.1645
296.472 402.884 -57.4172
269.3 427.954 -30.2373
263.97 426.037 -1.63028
274.607 395.527 -1.61918
279.98 397.324 -30.2254
275.752 392.118 1.56239
281.144 393.947 30.1434
291.114 363.065 30.1522
285.68 361.359 1.57249
282.301 394.323 33.0776
297.618 399.49 57.2736
307.706 368.262 57.2786
292.271 363.441 33.0865
299.753 400.183 59.514
322.671 407.904 75.65
332.93 376.157 75.6497
309.841 368.955 59.519
325.458 408.807 76.8555
352.483 417.903 82.4648
362.942 385.543 82.4624
335.717 377.061 76.8552
355.496 418.878 82.455
382.506 427.953 76.7275
393.168 394.973 76.7294
365.955 386.518 82.4526
385.295 428.853 75.511
408.332 436.573 59.3792
419.171 403.05 59.3851
395.957 395.873 75.5129
410.477 437.261 57.1415
425.964 442.419 32.9933
436.928 408.517 33.0024
421.316 403.739 57.1474
427.131 442.791 30.0677
432.597 444.602 1.50909
443.606 410.563 1.51984
438.095 408.889 30.0767
432.598 444.601 -1.66046
427.134 442.777 -30.219
438.098 408.876 -30.2067
443.606 410.563 -1.64971
425.968 442.404 -33.1447
410.484 437.233 -57.2926
421.322 403.713 -57.2773
436.932 408.503 -33.1323
408.338 436.543 -59.5303
385.305 428.812 -75.6604
395.965 395.835 -75.6415
419.177 403.022 -59.515
382.516 427.911 -76.8768
355.508 418.83 -82.602
365.965 386.474 -82.579
393.176 394.934 -76.8578
352.494 417.854 -82.6115
325.469 408.758 -77.0008
335.727 377.016 -76.9803
362.952 385.498 -82.5886
322.682 407.855 -75.7952
299.763 400.14 -59.6592
309.849 368.915 -59.6442
332.94 376.113 -75.7747
297.626 399.448 -57.4157
282.283 394.288 -33.1629
292.252 363.408 -33.1518
307.712 368.223 -57.4007
281.125 393.913 -30.2241
275.751 392.117 -1.61792
285.679 361.357 -1.60783
291.094 363.034 -30.213
286.746 357.921 1.57345
292.18 359.627 30.1532
301.435 328.508 30.1609
295.961 326.923 1.58257
293.346 359.977 33.0871
308.78 364.798 57.2792
318.144 333.337 57.2818
302.6 328.858 33.0947
310.931 365.443 59.519
334.02 372.646 75.6497
343.543 340.671 75.6453
320.295 333.982 59.5216
336.827 373.487 76.8548
364.052 381.969 82.462
373.759 349.384 82.4547
346.35 341.512 76.8504
367.087 382.875 82.4524
394.299 391.33 76.7292
404.193 358.124 76.7276
376.794 350.29 82.4452
397.108 392.165 75.5131
420.323 399.342 59.3853
430.385 365.584 59.3888
407.003 358.959 75.5115
422.485 399.979 57.148
438.097 404.758 33.0029
448.279 370.605 33.0105
432.547 366.221 57.1514
439.272 405.101 30.0777
444.784 406.775 1.5208
455.009 372.479 1.53057
449.454 370.948 30.0853
444.784 406.774 -1.6484
439.275 405.088 -30.2054
449.458 370.936 -30.1935
455.009 372.478 -1.63863
438.1 404.744 -33.1306
422.49 399.953 -57.2757
432.552 366.197 -57.26
448.282 370.591 -33.1188
420.328 399.315 -59.513
397.116 392.128 -75.6395
407.01 358.926 -75.6189
430.39 365.559 -59.4973
394.307 391.291 -76.8554
367.096 382.831 -82.5766
376.802 350.251 -82.5509
404.2 358.09 -76.8348
364.061 381.924 -82.586
336.836 373.442 -76.9777
346.358 341.472 -76.9551
373.767 349.344 -82.5603
334.029 372.602 -75.7726
310.939 365.404 -59.6421
320.302 333.946 -59.6267
343.551 340.631 -75.7499
308.786 364.76 -57.3992
293.326 359.945 -33.1503
302.58 328.829 -33.1398
318.149 333.302 -57.3838
292.16 359.596 -30.2118
286.745 357.919 -1.60666
295.96 326.922 -1.59755
301.413 328.48 -30.2013
296.947 323.46 1.5834
302.421 325.044 30.1617
310.955 293.701 30.1681
305.444 292.236 1.59151
303.595 325.369 33.0951
319.138 329.848 57.2822
327.775 298.167 57.2822
312.129 294.025 33.1015
321.303 330.445 59.5212
344.551 337.135 75.6449
353.334 304.949 75.6361
329.94 298.765 59.5212
347.376 337.913 76.8494
374.786 345.785 82.4538
383.736 312.997 82.4416
356.159 305.727 76.8406
377.84 346.624 82.4444
405.24 354.458 76.7269
414.363 321.05 76.7212
386.791 313.835 82.4322
408.068 355.228 75.5114
431.451 361.852 59.3886
440.732 327.877 59.3897
417.191 321.819 75.5057
433.628 362.435 57.1517
449.36 366.82 33.0109
458.756 332.431 33.0171
442.91 328.46 57.1528
450.544 367.132 30.0861
456.099 368.663 1.53138
465.538 334.122 1.54023
459.941 332.743 30.0923
456.1 368.662 -1.63737
450.548 367.12 -30.1923
459.944 332.731 -30.181
465.538 334.121 -1.62852
449.363 366.806 -33.1171
433.633 362.411 -57.2583
442.915 328.438 -57.2422
458.76 332.418 -33.1058
431.456 361.827 -59.4951
408.075 355.194 -75.6168
417.198 321.789 -75.594
440.737 327.854 -59.479
405.247 354.424 -76.8321
377.848 346.585 -82.5482
386.798 313.8 -82.5194
414.369 321.018 -76.8093
374.794 345.746 -82.5574
347.385 337.874 -76.9522
356.166 305.692 -76.927
383.744 312.961 -82.5286
344.559 337.095 -75.7477
321.31 330.41 -59.6244
329.946 298.734 -59.6083
353.341 304.914 -75.7225
319.143 329.813 -57.3822
303.574 325.34 -33.1383
312.107 293.999 -33.1285
327.779 298.136 -57.3662
302.4 325.017 -30.2003
296.946 323.458 -1.59648
305.443 292.234 -1.58837
310.933 293.676 -30.1905
306.35 288.748 1.59221
311.861 290.213 30.1688
319.672 258.655 30.1739
314.126 257.306 1.5993
313.043 290.512 33.1016
328.689 294.654 57.2823
336.594 262.767 57.2795
320.853 258.954 33.1067
330.867 295.205 59.5204
354.26 301.389 75.6352
362.299 269.01 75.6213
338.772 263.319 59.5176
357.102 302.107 76.8391
384.679 309.376 82.44
392.869 276.406 82.4218
365.14 269.728 76.8251
387.752 310.147 82.4309
415.324 317.362 76.7199
423.672 283.774 76.7097
395.942 277.177 82.4127
418.171 318.065 75.5051
441.711 324.123 59.3892
450.208 289.952 59.3872
426.519 284.477 75.4949
443.904 324.651 57.1529
459.751 328.621 33.0171
468.358 294.011 33.0219
452.4 290.48 57.1509
460.943 328.901 30.093
466.541 330.28 1.54088
475.19 295.507 1.54886
469.551 294.29 30.0977
466.541 330.279 -1.62731
460.947 328.889 -30.1798
469.555 294.279 -30.1687
475.19 295.506 -1.61933
459.754 328.609 -33.104
443.909 324.629 -57.2404
452.405 290.46 -57.2229
468.362 293.999 -33.093
441.717 324.1 -59.4767
418.177 318.035 -75.5916
426.525 284.45 -75.5663
450.213 289.931 -59.4592
415.331 317.331 -76.8063
387.759 310.112 -82.5163
395.949 277.146 -82.4833
423.679 283.746 -76.7809
384.687 309.341 -82.5254
357.109 302.072 -76.9238
365.147 269.698 -76.8954
392.876 276.375 -82.4923
354.267 301.355 -75.72
330.872 295.175 -59.6058
338.777 263.292 -59.5888
362.305 268.98 -75.6916
328.692 294.624 -57.3646
313.021 290.487 -33.127
320.831 258.932 -33.1179
336.597 262.741 -57.3477
311.839 290.188 -30.1895
306.349 288.746 -1.58737
314.125 257.305 -1.58028
319.649 258.634 -30.1805
314.952 253.795 1.59986
320.498 255.143 30.1745
327.582 223.379 30.1783
322.003 222.144 1.60592
321.686 255.418 33.1066
337.426 259.231 57.2794
344.597 227.151 57.2738
328.77 223.655 33.1104
339.616 259.738 59.5163
363.143 265.429 75.62
370.434 232.875 75.6007
346.787 227.658 59.5107
366 266.088 76.8229
393.729 272.766 82.4196
401.155 239.639 82.3943
373.291 233.533 76.8036
396.818 273.471 82.4108
424.548 280.067 76.7078
432.118 246.329 76.6929
404.244 240.344 82.3855
427.411 280.704 75.4938
451.101 286.178 59.3862
458.809 251.831 59.3801
434.981 246.965 75.4789
453.307 286.648 57.1506
469.265 290.179 33.0216
477.081 255.359 33.0246
461.016 252.301 57.1446
470.466 290.424 30.0982
476.105 291.64 1.54935
483.961 256.644 1.55649
478.282 255.604 30.1013
476.105 291.639 -1.61814
470.469 290.413 -30.1676
478.286 255.594 -30.1565
483.961 256.644 -1.611
469.269 290.167 -33.091
453.312 286.628 -57.2209
461.021 252.284 -57.201
477.086 255.347 -33.0799
451.106 286.158 -59.4565
427.418 280.677 -75.5636
434.988 246.941 -75.5352
458.815 251.813 -59.4366
424.555 280.04 -76.7775
396.825 273.44 -82.4798
404.252 240.317 -82.4416
432.124 246.304 -76.7492
393.736 272.736 -82.4886
366.007 266.058 -76.8917
373.298 233.508 -76.8598
401.162 239.612 -82.4504
363.15 265.4 -75.6888
339.621 259.712 -59.5861
346.792 227.637 -59.5682
370.441 232.85 -75.6569
337.429 259.206 -57.3461
321.663 255.397 -33.1163
328.747 223.637 -33.108
344.6 227.13 -57.3282
320.475 255.122 -30.1795
314.951 253.794 -1.57937
322.002 222.143 -1.5733
327.558 223.363 -30.1712
322.748 218.61 1.60633
328.327 219.845 30.1787
334.684 187.883 30.1808
329.076 186.757 1.61135
329.521 220.097 33.11
345.348 223.593 57.2734
351.784 191.329 57.2652
335.878 188.135 33.1121
347.549 224.057 59.5089
371.196 229.274 75.5989
377.738 196.561 75.5758
353.985 191.793 59.5007
374.066 229.876 76.8008
401.93 235.982 82.3915
408.59 202.725 82.3615
380.608 197.163 76.7777
405.034 236.622 82.3831
432.907 242.607 76.6904
439.692 208.752 76.6709
411.693 203.366 82.353
435.786 243.175 75.4772
459.615 248.041 59.3784
466.534 213.539 59.3668
442.571 209.32 75.4577
461.835 248.448 57.1438
477.9 251.506 33.0238
484.923 216.487 33.0254
468.754 213.946 57.1321
479.109 251.714 30.1016
484.788 252.754 1.55682
491.849 217.545 1.56314
486.132 216.694 30.1032
484.788 252.754 -1.60985
479.113 251.703 -30.1554
486.136 216.685 -30.1445
491.849 217.544 -1.60353
477.904 251.495 -33.0777
461.84 248.431 -57.1988
468.76 213.931 -57.1752
484.927 216.477 -33.0668
459.621 248.023 -59.4335
435.793 243.151 -75.5321
442.58 209.299 -75.5006
466.54 213.523 -59.4099
432.914 242.583 -76.7453
405.042 236.596 -82.4378
411.702 203.343 -82.3963
439.701 208.73 -76.7138
401.938 235.956 -82.4463
374.073 229.851 -76.8557
380.616 197.143 -76.8216
408.598 202.703 -82.4048
371.203 229.25 -75.6539
347.554 224.037 -59.5652
353.99 191.778 -59.5464
377.746 196.541 -75.6197
345.352 223.573 -57.3265
329.498 220.08 -33.1063
335.855 188.123 -33.0982
351.788 191.315 -57.3078
328.303 219.829 -30.1703
322.747 218.61 -1.57246
329.075 186.756 -1.56744
334.661 187.872 -30.1622
329.741 183.201 1.61152
335.349 184.327 30.181
340.99 152.172 30.1786
335.358 151.15 1.61553
336.549 184.557 33.1112
352.455 187.751 57.2643
358.161 155.314 57.2498
342.189 152.402 33.1089
354.665 188.175 59.4983
378.418 192.942 75.5734
384.212 160.089 75.5432
360.371 155.737 59.4838
381.299 193.491 76.7742
409.28 199.054 82.358
415.171 165.697 82.32
387.093 160.638 76.7441
412.397 199.632 82.3497
440.396 205.018 76.6676
446.389 171.09 76.633
418.287 166.275 82.3117
443.289 205.516 75.4549
467.252 209.735 59.364
473.362 175.095 59.3449
449.282 171.588 75.4204
469.484 210.074 57.1307
485.653 212.615 33.0239
491.857 177.401 33.022
475.594 175.435 57.1116
486.868 212.781 30.1033
492.585 213.632 1.56327
498.822 178.211 1.56842
493.073 177.568 30.1014
492.586 213.631 -1.6024
486.873 212.773 -30.1433
493.078 177.561 -30.1314
498.822 178.211 -1.59724
485.657 212.606 -33.0642
469.49 210.06 -57.1725
475.602 175.422 -57.1439
491.863 177.394 -33.0523
467.258 209.72 -59.4059
443.297 205.496 -75.4967
449.293 171.569 -75.453
473.371 175.082 -59.3773
440.404 204.997 -76.7094
412.406 199.61 -82.3918
418.299 166.256 -82.3448
446.4 171.071 -76.6657
409.289 199.031 -82.4002
381.307 193.471 -76.817
387.103 160.623 -76.7777
415.182 165.678 -82.3532
378.426 192.923 -75.6163
354.67 188.16 -59.5429
360.378 155.73 -59.5194
384.222 160.075 -75.577
352.458 187.737 -57.3058
336.526 184.545 -33.0963
342.168 152.397 -33.0854
358.166 155.307 -57.2823
335.326 184.316 -30.1614
329.74 183.2 -1.56656
335.357 151.15 -1.56255
340.968 152.168 -30.1505
335.947 147.574 1.61488
341.579 148.596 30.178
346.569 116.265 30.1528
340.927 115.342 1.61799
342.782 148.805 33.1061
358.754 151.716 57.247
363.773 119.122 57.1969
347.772 116.473 33.0809
360.97 152.102 59.479
384.811 156.454 75.5384
389.873 123.484 75.4701
365.989 119.509 59.4289
387.7 156.955 76.7381
415.777 162.014 82.314
420.889 128.591 82.2409
392.762 123.985 76.6698
418.902 162.535 82.3055
447.004 167.349 76.6268
452.166 133.385 76.5448
424.013 129.112 82.2323
449.908 167.774 75.4148
473.989 171.282 59.3393
479.232 136.501 59.2974
455.071 133.809 75.3327
476.229 171.545 57.1088
492.492 173.511 33.0193
497.788 138.098 33.0019
481.473 136.764 57.0669
493.713 173.632 30.1009
499.462 174.276 1.56795
504.769 138.638 1.57112
499.009 138.218 30.0836
499.462 174.275 -1.59584
493.719 173.625 -30.13
499.018 138.214 -30.1064
504.769 138.638 -1.59267
492.498 173.504 -33.0486
476.238 171.532 -57.1403
481.486 136.755 -57.0922
497.797 138.093 -33.025
473.997 171.268 -59.3708
449.919 167.755 -75.4465
455.086 133.793 -75.3578
479.246 136.491 -59.3227
447.015 167.33 -76.6585
418.914 162.516 -82.3377
424.029 129.096 -82.2571
452.181 133.368 -76.5699
415.789 161.995 -82.3463
387.71 156.94 -76.7708
392.776 123.976 -76.6947
420.904 128.575 -82.2657
384.821 156.441 -75.5712
360.977 152.096 -59.5136
366.001 119.511 -59.4549
389.888 123.476 -75.4951
358.76 151.71 -57.2785
342.761 148.801 -33.0817
347.754 116.479 -33.0491
363.783 119.125 -57.2199
341.557 148.592 -30.149
335.946 147.574 -1.56104
340.926 115.342 -1.55792
346.55 116.271 -30.1165
341.468 111.753 1.61237
347.109 112.675 30.1472
351.838 80.2505 29.9694
346.238 79.4264 1.61376
348.309 112.864 33.0649
364.311 115.513 57.1809
368.934 82.8382 56.8679
353.037 80.4395 32.8871
366.521 115.865 59.4059
390.405 119.841 75.4471
394.884 86.8158 75.0623
371.145 83.1901 59.0929
393.287 120.297 76.6439
421.414 124.903 82.215
425.729 91.4735 81.8156
397.766 87.2721 76.2591
424.534 125.37 82.207
452.686 129.643 76.5194
456.843 95.6644 76.1586
428.848 91.9407 81.8075
455.589 129.988 75.3125
479.75 132.68 59.2772
483.796 97.7156 59.0692
459.745 96.0089 74.9517
481.987 132.854 57.0555
498.302 134.188 32.9905
502.22 98.5228 32.8624
486.032 97.8904 56.8475
499.52 134.258 30.0792
505.28 134.678 1.56679
509.141 98.7692 1.558
503.437 98.5932 29.9511
505.28 134.678 -1.58867
499.528 134.254 -30.1024
503.442 98.5921 -29.9822
509.141 98.7692 -1.59746
498.312 134.184 -33.013
482.001 132.845 -57.0802
486.056 97.8851 -56.8566
502.226 98.5216 -32.8928
479.765 132.67 -59.3014
455.604 129.971 -75.3365
459.77 95.9947 -74.9615
483.819 97.7092 -59.0778
452.702 129.626 -76.5434
424.55 125.355 -82.2306
428.872 91.929 -81.8203
456.867 95.6498 -76.1685
421.43 124.888 -82.2388
393.303 120.288 -76.6678
397.788 87.269 -76.2743
425.753 91.4623 -81.8285
390.42 119.833 -75.4711
366.534 115.868 -59.4309
371.166 83.2041 -59.107
394.906 86.8138 -75.0775
364.321 115.517 -57.203
348.292 112.871 -33.0322
353.029 80.4593 -32.8482
368.953 82.8532 -56.879
347.091 112.681 -30.1102
341.467 111.753 -1.55164
346.237 79.4271 -1.55026
351.828 80.2698 -29.9262
346.902 75.8777 1.57298
352.502 76.7018 29.9286
359.651 44.8705 28.6495
354.316 44.1219 1.57136
353.669 76.873 32.7728
369.566 79.2716 56.7537
375.964 47.2263 54.4199
360.818 45.0417 31.4937
371.718 79.5911 58.9264
395.457 83.2169 74.8957
400.757 50.8257 71.9082
378.116 47.5458 56.5927
398.266 83.6308 76.0681
426.228 87.8322 81.6245
430.274 55.0223 78.4655
403.565 51.2396 73.0806
429.267 88.2522 81.6219
457.262 91.9759 75.973
460.071 58.8622 73.1144
433.313 55.4423 78.4629
460.078 92.2788 74.8048
484.128 93.9855 58.9223
485.678 61.2192 56.6467
462.887 59.1651 71.9463
486.306 94.1338 56.7512
502.493 94.7662 32.7661
503.107 62.3208 31.4654
487.855 61.3675 54.4756
503.676 94.8228 29.9157
509.38 94.9989 1.5226
509.637 62.647 1.51144
504.29 62.3775 28.615
509.38 94.9982 -1.56401
503.681 94.8212 -29.9488
504.284 62.3504 -28.6583
509.637 62.6464 -1.57517
502.499 94.7639 -32.7962
486.329 94.1274 -56.76
487.881 61.3416 -54.4688
503.102 62.2932 -31.5057
484.153 93.9788 -58.9292
460.104 92.2642 -74.813
462.916 59.152 -71.9429
485.706 61.1929 -56.6381
457.288 91.9617 -75.9817
429.292 88.2408 -81.6334
433.342 55.4352 -78.4663
460.1 58.8494 -73.1116
426.253 87.8215 -81.6365
398.289 83.6282 -76.0824
403.591 51.243 -73.0902
430.303 55.0159 -78.4694
395.48 83.2159 -74.9103
371.739 79.6062 -58.9397
378.136 47.5752 -56.6065
400.782 50.8307 -71.9181
369.585 79.288 -56.7643
353.66 76.8941 -32.7336
360.805 45.0759 -31.4579
375.981 47.257 -54.4311
352.492 76.7217 -29.8854
346.902 75.8791 -1.5094
354.315 44.1233 -1.51102
359.637 44.9036 -28.6097
355.172 40.6267 1.4884
360.508 41.3753 28.5666
368.521 10.0976 26.8569
363.511 9.42665 1.48218
361.612 41.5302 31.2589
376.757 43.7147 54.1852
383.843 12.2203 51.0275
369.625 10.2525 29.5493
378.794 44.003 56.2432
401.435 47.2829 71.5587
407.131 15.4411 67.4137
385.88 12.5086 53.0856
404.093 47.655 72.6708
430.802 51.4377 78.0557
434.84 19.1997 73.5411
409.79 15.8132 68.5258
433.679 51.8194 78.0553
460.437 55.2393 72.7069
462.771 22.7256 68.4959
437.717 19.5814 73.5407
463.097 55.5396 71.5967
485.888 57.5937 56.2971
486.709 25.2181 53.0427
465.431 23.0259 67.3856
487.932 57.7712 54.237
503.184 58.7244 31.2268
502.951 26.5606 29.4585
488.754 25.3956 50.9826
504.291 58.8003 28.5298
509.638 59.0698 1.42626
509.02 26.971 1.43549
504.058 26.6364 26.7615
509.638 59.0676 -1.48997
504.285 58.7717 -28.5731
504.05 26.5852 -26.7903
509.019 26.9689 -1.48073
503.179 58.6938 -31.2664
487.958 57.7422 -54.2295
488.77 25.3493 -50.9737
502.945 26.5073 -29.4837
485.916 57.5664 -56.2877
463.126 55.5255 -71.5925
465.453 23.0124 -67.3822
486.728 25.1735 -53.0319
460.466 55.2268 -72.7035
433.708 51.8125 -78.0582
437.739 19.5767 -73.5418
462.792 22.7136 -68.4931
430.831 51.4317 -78.0592
404.119 47.6589 -72.6799
409.81 15.8198 -68.5313
434.862 19.1959 -73.5427
401.46 47.2889 -71.5684
378.813 44.0334 -56.2567
385.89 12.5501 -53.0968
407.151 15.4499 -67.4198
376.774 43.7471 -54.1966
361.598 41.566 -31.2235
369.608 10.301 -29.5228
383.851 12.2638 -51.0367
360.493 41.4091 -28.5276
355.171 40.6288 -1.42885
363.51 9.42881 -1.43507
368.503 10.1441 -26.8269
364.564 6.16261 1.35294
369.573 6.83353 26.7277
380.235 -21.0086 23.7834
375.813 -21.6301 1.33166
370.582 6.97263 29.1858
384.8 8.94049 50.664
393.843 -19.1103 45.2719
381.244 -20.8695 26.2415
386.664 9.19598 52.5429
407.916 12.1285 66.871
414.59 -16.3246 59.8214
395.707 -18.8548 47.1507
410.348 12.4568 67.8835
435.398 15.8432 72.8988
439.259 -13.0458 65.2257
417.022 -15.9963 60.8339
438.025 16.1883 72.8946
463.079 19.3326 67.8497
464.07 -9.76896 60.6969
441.886 -12.7008 65.2215
465.503 19.6312 66.8345
486.781 21.8234 52.4916
485.257 -6.99501 46.9616
466.494 -9.47027 59.6817
488.64 22.0325 50.6155
502.837 23.1975 29.0914
499.63 -5.13643 26.1207
487.116 -6.78588 45.0856
503.845 23.3015 26.635
508.807 23.6361 1.30902
505.027 -4.454 1.32947
500.638 -5.03242 23.6643
508.807 23.6345 -1.35069
503.838 23.2508 -26.6603
500.637 -5.03417 -23.665
505.027 -4.45559 -1.33025
502.83 23.1452 -29.1158
488.656 21.9872 -50.6059
487.116 -6.78944 -45.0858
499.63 -5.13978 -26.1206
486.798 21.7797 -52.4814
465.522 19.6186 -66.8316
466.495 -9.47227 -59.6814
485.258 -6.99695 -46.9613
463.099 19.321 -67.847
438.046 16.1841 -72.8956
441.887 -12.7016 -65.2213
464.071 -9.76985 -60.6967
435.418 15.8395 -72.9
410.366 12.4634 -67.8886
417.023 -15.9965 -60.8339
439.26 -13.0462 -65.2257
407.933 12.1363 -66.8762
386.673 9.23651 -52.5533
395.707 -18.8537 -47.1509
414.59 -16.3236 -59.8215
384.809 8.98272 -50.6738
370.565 7.01993 -29.1598
381.244 -20.8665 -26.241
393.843 -19.1075 -45.2714
369.557 6.87935 -26.7008
364.563 6.16408 -1.30899
375.813 -21.6286 -1.33027
380.235 -21.0071 -23.782
-80.8995 1014.27 25.3035
-84.7935 1010.93 -0.471255
-80.8183 1014.19 -26.2428
-69.6189 1023.57 -48.0674
-52.8833 1037.6 -62.6057
-33.2234 1054.17 -67.6622
-13.7479 1070.92 -62.5431
2.55466 1085.47 -48.052
13.3399 1095.47 -26.2874
17.128 1099 -0.507277
13.3374 1095.48 25.2727
2.54033 1085.51 47.0421
-13.7825 1071 61.5474
-33.2707 1054.27 66.6804
-52.9378 1037.7 61.6375
-69.7061 1023.68 47.1223
382.635 -22.3855 1.31945e-05
387.058 -21.764 22.4517
399.656 -20.0048 41.4821
418.539 -17.4746 54.1528
440.776 -14.5241 58.5446
462.96 -11.5923 54.02
481.723 -9.11705 41.3
494.237 -7.4676 22.335
498.627 -6.88918 0.000239176
494.237 -7.46776 -22.3346
481.723 -9.11742 -41.2997
462.96 -11.5927 -54.0199
440.776 -14.5245 -58.5445
418.539 -17.4748 -54.1527
399.656 -20.0049 -41.4821
387.058 -21.764 -22.4517
</DataArray>
</Points>
<Cells>
<DataArray type="Int32" Name="connectivity" format="ascii">
0 1 2 3 
4 5 6 7 
8 9 10 11 
12 13 14 15 
16 17 18 19 
20 21 22 23 
24 25 26 27 
28 29 30 31 
32 33 34 35 
36 37 38 39 
40 41 42 43 
44 45 46 47 
48 49 50 51 
52 53 54 55 
56 57 58 59 
60 61 62 63 
64 65 66 67 
68 69 70 71 
72 73 74 75 
76 77 78 79 
80 81 82 83 
84 85 86 87 
88 89 90 91 
92 93 94 95 
96 97 98 99 
100 101 102 103 
104 105 106 107 
108 109 110 111 
112 113 114 115 
116 117 118 119 
120 121 122 123 
124 125 126 127 
128 129 130 131 
132 133 134 135 
136 137 138 139 
140 141 142 143 
144 145 146 147 
148 149 150 151 
152 153 154 155 
156 157 158 159 
160 161 162 163 
164 165 166 167 
168 169 170 171 
172 173 174 175 
176 177 178 179 
180 181 182 183 
184 185 186 187 
188 189 190 191 
192 193 194 195 
196 197 198 199 
200 201 202 203 
204 205 206 207 
208 209 210 211 
212 213 214 215 
216 217 218 219 
220 221 222 223 
224 225 226 227 
228 229 230 231 
232 233 234 235 
236 237 238 239 
240 241 242 243 
244 245 246 247 
248 249 250 251 
252 253 254 255 
256 257 258 259 
260 261 262 263 
264 265 266 267 
268 269 270 271 
272 273 274 275 
276 277 278 279 
280 281 282 283 
284 285 286 287 
288 289 290 291 
292 293 294 295 
296 297 298 299 
300 301 302 303 
304 305 306 307 
308 309 310 311 
312 313 314 315 
316 317 318 319 
320 321 322 323 
324 325 326 327 
328 329 330 331 
332 333 334 335 
336 337 338 339 
340 341 342 343 
344 345 346 347 
348 349 350 351 
352 353 354 355 
356 357 358 359 
360 361 362 363 
364 365 366 367 
368 369 370 371 
372 373 374 375 
376 377 378 379 
380 381 382 383 
384 385 386 387 
388 389 390 391 
392 393 394 395 
396 397 398 399 
400 401 402 403 
404 405 406 407 
408 409 410 411 
412 413 414 415 
416 417 418 419 
420 421 422 423 
424 425 426 427 
428 429 430 431 
432 433 434 435 
436 437 438 439 
440 441 442 443 
444 445 446 447 
448 449 450 451 
452 453 454 455 
456 457 458 459 
460 461 462 463 
464 465 466 467 
468 469 470 471 
472 473 474 475 
476 477 478 479 
480 481 482 483 
484 485 486 487 
488 489 490 491 
492 493 494 495 
496 497 498 499 
500 501 502 503 
504 505 506 507 
508 509 510 511 
512 513 514 515 
516 517 518 519 
520 521 522 523 
524 525 526 527 
528 529 530 531 
532 533 534 535 
536 537 538 539 
540 541 542 543 
544 545 546 547 
548 549 550 551 
552 553 554 555 
556 557 558 559 
560 561 562 563 
564 565 566 567 
568 569 570 571 
572 573 574 575 
576 577 578 579 
580 581 582 583 
584 585 586 587 
588 589 590 591 
592 593 594 595 
596 597 598 599 
600 601 602 603 
604 605 606 607 
608 609 610 611 
612 613 614 615 
616 617 618 619 
620 621 622 623 
624 625 626 627 
628 629 630 631 
632 633 634 635 
636 637 638 639 
640 641 642 643 
644 645 646 647 
648 649 650 651 
652 653 654 655 
656 657 658 659 
660 661 662 663 
664 665 666 667 
668 669 670 671 
672 673 674 675 
676 677 678 679 
680 681 682 683 
684 685 686 687 
688 689 690 691 
692 693 694 695 
696 697 698 699 
700 701 702 703 
704 705 706 707 
708 709 710 711 
712 713 714 715 
716 717 718 719 
720 721 722 723 
724 725 726 727 
728 729 730 731 
732 733 734 735 
736 737 738 739 
740 741 742 743 
744 745 746 747 
748 749 750 751 
752 753 754 755 
756 757 758 759 
760 761 762 763 
764 765 766 767 
768 769 770 771 
772 773 774 775 
776 777 778 779 
780 781 782 783 
784 785 786 787 
788 789 790 791 
792 793 794 795 
796 797 798 799 
800 801 802 803 
804 805 806 807 
808 809 810 811 
812 813 814 815 
816 817 818 819 
820 821 822 823 
824 825 826 827 
828 829 830 831 
832 833 834 835 
836 837 838 839 
840 841 842 843 
844 845 846 847 
848 849 850 851 
852 853 854 855 
856 857 858 859 
860 861 862 863 
864 865 866 867 
868 869 870 871 
872 873 874 875 
876 877 878 879 
880 881 882 883 
884 885 886 887 
888 889 890 891 
892 893 894 895 
896 897 898 899 
900 901 902 903 
904 905 906 907 
908 909 910 911 
912 913 914 915 
916 917 918 919 
920 921 922 923 
924 925 926 927 
928 929 930 931 
932 933 934 935 
936 937 938 939 
940 941 942 943 
944 945 946 947 
948 949 950 951 
952 953 954 955 
956 957 958 959 
960 961 962 963 
964 965 966 967 
968 969 970 971 
972 973 974 975 
976 977 978 979 
980 981 982 983 
984 985 986 987 
988 989 990 991 
992 993 994 995 
996 997 998 999 
1000 1001 1002 1003 
1004 1005 1006 1007 
1008 1009 1010 1011 
1012 1013 1014 1015 
1016 1017 1018 1019 
1020 1021 1022 1023 
1024 1025 1026 1027 
1028 1029 1030 1031 
1032 1033 1034 1035 
1036 1037 1038 1039 
1040 1041 1042 1043 
1044 1045 1046 1047 
1048 1049 1050 1051 
1052 1053 1054 1055 
1056 1057 1058 1059 
1060 1061 1062 1063 
1064 1065 1066 1067 
1068 1069 1070 1071 
1072 1073 1074 1075 
1076 1077 1078 1079 
1080 1081 1082 1083 
1084 1085 1086 1087 
1088 1089 1090 1091 
1092 1093 1094 1095 
1096 1097 1098 1099 
1100 1101 1102 1103 
1104 1105 1106 1107 
1108 1109 1110 1111 
1112 1113 1114 1115 
1116 1117 1118 1119 
1120 1121 1122 1123 
1124 1125 1126 1127 
1128 1129 1130 1131 
1132 1133 1134 1135 
1136 1137 1138 1139 
1140 1141 1142 1143 
1144 1145 1146 1147 
1148 1149 1150 1151 
1152 1153 1154 1155 
1156 1157 1158 1159 
1160 1161 1162 1163 
1164 1165 1166 1167 
1168 1169 1170 1171 
1172 1173 1174 1175 
1176 1177 1178 1179 
1180 1181 1182 1183 
1184 1185 1186 1187 
1188 1189 1190 1191 
1192 1193 1194 1195 
1196 1197 1198 1199 
1200 1201 1202 1203 
1204 1205 1206 1207 
1208 1209 1210 1211 
1212 1213 1214 1215 
1216 1217 1218 1219 
1220 1221 1222 1223 
1224 1225 1226 1227 
1228 1229 1230 1231 
1232 1233 1234 1235 
1236 1237 1238 1239 
1240 1241 1242 1243 
1244 1245 1246 1247 
1248 1249 1250 1251 
1252 1253 1254 1255 
1256 1257 1258 1259 
1260 1261 1262 1263 
1264 1265 1266 1267 
1268 1269 1270 1271 
1272 1273 1274 1275 
1276 1277 1278 1279 
1280 1281 1282 1283 
1284 1285 1286 1287 
1288 1289 1290 1291 
1292 1293 1294 1295 
1296 1297 1298 1299 
1300 1301 1302 1303 
1304 1305 1306 1307 
1308 1309 1310 1311 
1312 1313 1314 1315 
1316 1317 1318 1319 
1320 1321 1322 1323 
1324 1325 1326 1327 
1328 1329 1330 1331 
1332 1333 1334 1335 
1336 1337 1338 1339 
1340 1341 1342 1343 
1344 1345 1346 1347 
1348 1349 1350 1351 
1352 1353 1354 1355 
1356 1357 1358 1359 
1360 1361 1362 1363 
1364 1365 1366 1367 
1368 1369 1370 1371 
1372 1373 1374 1375 
1376 1377 1378 1379 
1380 1381 1382 1383 
1384 1385 1386 1387 
1388 1389 1390 1391 
1392 1393 1394 1395 
1396 1397 1398 1399 
1400 1401 1402 1403 
1404 1405 1406 1407 
1408 1409 1410 1411 
1412 1413 1414 1415 
1416 1417 1418 1419 
1420 1421 1422 1423 
1424 1425 1426 1427 
1428 1429 1430 1431 
1432 1433 1434 1435 
1436 1437 1438 1439 
1440 1441 1442 1443 
1444 1445 1446 1447 
1448 1449 1450 1451 
1452 1453 1454 1455 
1456 1457 1458 1459 
1460 1461 1462 1463 
1464 1465 1466 1467 
1468 1469 1470 1471 
1472 1473 1474 1475 
1476 1477 1478 1479 
1480 1481 1482 1483 
1484 1485 1486 1487 
1488 1489 1490 1491 
1492 1493 1494 1495 
1496 1497 1498 1499 
1500 1501 1502 1503 
1504 1505 1506 1507 
1508 1509 1510 1511 
1512 1513 1514 1515 
1516 1517 1518 1519 
1520 1521 1522 1523 
1524 1525 1526 1527 
1528 1529 1530 1531 
1532 1533 1534 1535 
1536 1537 1538 1539 
1540 1541 1542 1543 
1544 1545 1546 1547 
1548 1549 1550 1551 
1552 1553 1554 1555 
1556 1557 1558 1559 
1560 1561 1562 1563 
1564 1565 1566 1567 
1568 1569 1570 1571 
1572 1573 1574 1575 
1576 1577 1578 1579 
1580 1581 1582 1583 
1584 1585 1586 1587 
1588 1589 1590 1591 
1592 1593 1594 1595 
1596 1597 1598 1599 
1600 1601 1602 1603 
1604 1605 1606 1607 
1608 1609 1610 1611 
1612 1613 1614 1615 
1616 1617 1618 1619 
1620 1621 1622 1623 
1624 1625 1626 1627 
1628 1629 1630 1631 
1632 1633 1634 1635 
1636 1637 1638 1639 
1640 1641 1642 1643 
1644 1645 1646 1647 
1648 1649 1650 1651 
1652 1653 1654 1655 
1656 1657 1658 1659 
1660 1661 1662 1663 
1664 1665 1666 1667 
1668 1669 1670 1671 
1672 1673 1674 1675 
1676 1677 1678 1679 
1680 1681 1682 1683 
1684 1685 1686 1687 
1688 1689 1690 1691 
1692 1693 1694 1695 
1696 1697 1698 1699 
1700 1701 1702 1703 
1704 1705 1706 1707 
1708 1709 1710 1711 
1712 1713 1714 1715 
1716 1717 1718 1719 
1720 1721 1722 1723 
1724 1725 1726 1727 
1728 1729 1730 1731 
1732 1733 1734 1735 
1736 1737 1738 1739 
1740 1741 1742 1743 
1744 1745 1746 1747 
1748 1749 1750 1751 
1752 1753 1754 1755 
1756 1757 1758 1759 
1760 1761 1762 1763 
1764 1765 1766 1767 
1768 1769 1770 1771 
1772 1773 1774 1775 
1776 1777 1778 1779 
1780 1781 1782 1783 
1784 1785 1786 1787 
1788 1789 1790 1791 
1792 1793 1794 1795 
1796 1797 1798 1799 
1800 1801 1802 1803 
1804 1805 1806 1807 
1808 1809 1810 1811 
1812 1813 1814 1815 
1816 1817 1818 1819 
1820 1821 1822 1823 
1824 1825 1826 1827 
1828 1829 1830 1831 
1832 1833 1834 1835 
1836 1837 1838 1839 
1840 1841 1842 1843 
1844 1845 1846 1847 
1848 1849 1850 1851 
1852 1853 1854 1855 
1856 1857 1858 1859 
1860 1861 1862 1863 
1864 1865 1866 1867 
1868 1869 1870 1871 
1872 1873 1874 1875 
1876 1877 1878 1879 
1880 1881 1882 1883 
1884 1885 1886 1887 
1888 1889 1890 1891 
1892 1893 1894 1895 
1896 1897 1898 1899 
1900 1901 1902 1903 
1904 1905 1906 1907 
1908 1909 1910 1911 
1912 1913 1914 1915 
1916 1917 1918 1919 
1920 1921 1922 1923 
1924 1925 1926 1927 
1928 1929 1930 1931 
1932 1933 1934 1935 
1936 1937 1938 1939 
1940 1941 1942 1943 
1944 1945 1946 1947 
1948 1949 1950 1951 
1952 1953 1954 1955 
1956 1957 1958 1959 
1960 1961 1962 1963 
1964 1965 1966 1967 
1968 1969 1970 1971 
1972 1973 1974 1975 
1976 1977 1978 1979 
1980 1981 1982 1983 
1984 1985 1986 1987 
1988 1989 1990 1991 
1992 1993 1994 1995 
1996 1997 1998 1999 
2000 2001 2002 2003 
2004 2005 2006 2007 
2008 2009 2010 2011 
2012 2013 2014 2015 
2016 2017 2018 2019 
2020 2021 2022 2023 
2024 2025 2026 2027 
2028 2029 2030 2031 
2032 2033 2034 2035 
2036 2037 2038 2039 
2040 2041 2042 2043 
2044 2045 2046 2047 
2048 2049 2050 2051 2052 2053 2054 2055 2056 2057 2058 2059 2060 2061 2062 2063 
2064 2065 2066 2067 2068 2069 2070 2071 2072 2073 2074 2075 2076 2077 2078 2079 
</DataArray>
<DataArray type="Int32" Name="offsets" format="ascii">
4 8 12 16 20 24 28 32 36 40 44 48 52 56 60 64 68 72 76 80 84 88 92 96 100 104 108 112 116 120 124 128 132 136 140 144 148 152 156 160 164 168 172 176 180 184 188 192 196 200 204 208 212 216 220 224 228 232 236 240 244 248 252 256 260 264 268 272 276 280 284 288 292 296 300 304 308 312 316 320 324 328 332 336 340 344 348 352 356 360 364 368 372 376 380 384 388 392 396 400 404 408 412 416 420 424 428 432 436 440 444 448 452 456 460 464 468 472 476 480 484 488 492 496 500 504 508 512 516 520 524 528 532 536 540 544 548 552 556 560 564 568 572 576 580 584 588 592 596 600 604 608 612 616 620 624 628 632 636 640 644 648 652 656 660 664 668 672 676 680 684 688 692 696 700 704 708 712 716 720 724 728 732 736 740 744 748 752 756 760 764 768 772 776 780 784 788 792 796 800 804 808 812 816 820 824 828 832 836 840 844 848 852 856 860 864 868 872 876 880 884 888 892 896 900 904 908 912 916 920 924 928 932 936 940 944 948 952 956 960 964 968 972 976 980 984 988 992 996 1000 1004 1008 1012 1016 1020 1024 1028 1032 1036 1040 1044 1048 1052 1056 1060 1064 1068 1072 1076 1080 1084 1088 1092 1096 1100 1104 1108 1112 1116 1120 1124 1128 1132 1136 1140 1144 1148 1152 1156 1160 1164 1168 1172 1176 1180 1184 1188 1192 1196 1200 1204 1208 1212 1216 1220 1224 1228 1232 1236 1240 1244 1248 1252 1256 1260 1264 1268 1272 1276 1280 1284 1288 1292 1296 1300 1304 1308 1312 1316 1320 1324 1328 1332 1336 1340 1344 1348 1352 1356 1360 1364 1368 1372 1376 1380 1384 1388 1392 1396 1400 1404 1408 1412 1416 1420 1424 1428 1432 1436 1440 1444 1448 1452 1456 1460 1464 1468 1472 1476 1480 1484 1488 1492 1496 1500 1504 1508 1512 1516 1520 1524 1528 1532 1536 1540 1544 1548 1552 1556 1560 1564 1568 1572 1576 1580 1584 1588 1592 1596 1600 1604 1608 1612 1616 1620 1624 1628 1632 1636 1640 1644 1648 1652 1656 1660 1664 1668 1672 1676 1680 1684 1688 1692 1696 1700 1704 1708 1712 1716 1720 1724 1728 1732 1736 1740 1744 1748 1752 1756 1760 1764 1768 1772 1776 1780 1784 1788 1792 1796 1800 1804 1808 1812 1816 1820 1824 1828 1832 1836 1840 1844 1848 1852 1856 1860 1864 1868 1872 1876 1880 1884 1888 1892 1896 1900 1904 1908 1912 1916 1920 1924 1928 1932 1936 1940 1944 1948 1952 1956 1960 1964 1968 1972 1976 1980 1984 1988 1992 1996 2000 2004 2008 2012 2016 2020 2024 2028 2032 2036 2040 2044 2048 2064 2080 
</DataArray>
<DataArray type="UInt8" Name="types" format="ascii">
7 7 7 7 7 7 7 7 7 7 7 7 7 7 7 7 7 7 7 7 7 7 7 7 7 7 7 7 7 7 7 7 7 7 7 7 7 7 7 7 7 7 7 7 7 7 7 7 7 7 7 7 7 7 7 7 7 7 7 7 7 7 7 7 7 7 7 7 7 7 7 7 7 7 7 7 7 7 7 7 7 7 7 7 7 7 7 7 7 7 7 7 7 7 7 7 7 7 7 7 7 7 7 7 7 7 7 7 7 7 7 7 7 7 7 7 7 7 7 7 7 7 7 7 7 7 7 7 7 7 7 7 7 7 7 7 7 7 7 7 7 7 7 7 7 7 7 7 7 7 7 7 7 7 7 7 7 7 7 7 7 7 7 7 7 7 7 7 7 7 7 7 7 7 7 7 7 7 7 7 7 7 7 7 7 7 7 7 7 7 7 7 7 7 7 7 7 7 7 7 7 7 7 7 7 7 7 7 7 7 7 7 7 7 7 7 7 7 7 7 7 7 7 7 7 7 7 7 7 7 7 7 7 7 7 7 7 7 7 7 7 7 7 7 7 7 7 7 7 7 7 7 7 7 7 7 7 7 7 7 7 7 7 7 7 7 7 7 7 7 7 7 7 7 7 7 7 7 7 7 7 7 7 7 7 7 7 7 7 7 7 7 7 7 7 7 7 7 7 7 7 7 7 7 7 7 7 7 7 7 7 7 7 7 7 7 7 7 7 7 7 7 7 7 7 7 7 7 7 7 7 7 7 7 7 7 7 7 7 7 7 7 7 7 7 7 7 7 7 7 7 7 7 7 7 7 7 7 7 7 7 7 7 7 7 7 7 7 7 7 7 7 7 7 7 7 7 7 7 7 7 7 7 7 7 7 7 7 7 7 7 7 7 7 7 7 7 7 7 7 7 7 7 7 7 7 7 7 7 7 7 7 7 7 7 7 7 7 7 7 7 7 7 7 7 7 7 7 7 7 7 7 7 7 7 7 7 7 7 7 7 7 7 7 7 7 7 7 7 7 7 7 7 7 7 7 7 7 7 7 7 7 7 7 7 7 7 7 7 7 7 7 7 7 7 7 7 7 7 7 7 7 7 7 7 7 7 7 7 7 7 7 7 7 7 7 7 7 7 7 7 7 7 7 7 7 7 7 7 7 7 7 7 7 
</DataArray>
</Cells>
<CellData Scalars="cell variable 4" Vectors="cell vector">
<DataArray type="Float64" NumberOfComponents="3" Name="cell vector" format="ascii">
0.184886 0.0655725 0.98057
0.538641 0.150236 0.829033
0.794242 0.217847 0.567206
0.920037 0.30941 0.240413
0.711748 0.672497 -0.202887
0.25124 0.79117 -0.557609
-0.135467 -0.570205 0.810256
-0.0288222 -0.224498 0.974048
0.0336839 0.221233 0.974639
0.123601 0.57752 0.806966
0.247225 0.793459 0.556149
0.708656 0.675733 0.20296
0.918551 0.314135 -0.239966
0.789709 0.231279 -0.568216
-0.525863 -0.177533 0.831835
-0.191896 -0.0538296 0.979938
0.161841 0.111179 0.980534
0.463703 0.310396 0.82984
0.689937 0.465944 0.55397
0.795266 0.57382 0.195658
0.735668 0.648542 -0.195411
0.532592 0.642135 -0.551369
-0.351023 -0.437575 0.827835
-0.124551 -0.153507 0.980267
0.124419 0.154402 0.980143
0.347435 0.441667 0.827176
0.530985 0.643981 0.550766
0.73527 0.649117 0.194999
0.794588 0.574654 -0.195967
0.688388 0.467766 -0.554362
-0.461418 -0.312791 0.830214
-0.163646 -0.108136 0.980575
0.159986 0.114241 0.980486
0.456969 0.320749 0.829638
0.681899 0.478894 0.552878
0.792965 0.577667 0.193667
0.738185 0.645652 -0.195491
0.529299 0.647859 -0.547834
-0.365939 -0.424825 0.828017
-0.13074 -0.147507 0.980382
0.130365 0.148772 0.980241
0.364228 0.427164 0.827568
0.528601 0.648838 0.547349
0.737745 0.646265 0.195126
0.792313 0.578462 -0.193961
0.681233 0.479531 -0.553147
-0.455846 -0.32145 0.829985
-0.160902 -0.111839 0.980613
0.160314 0.114159 0.980442
0.457834 0.320295 0.829337
0.685632 0.474707 0.551871
0.80415 0.56246 0.192308
0.762822 0.616198 -0.195965
0.00428246 0.917988 -0.396586
-0.57734 0.806319 -0.128561
-0.646919 0.761645 -0.0373102
-0.64713 0.761588 0.0347458
-0.578889 0.805807 0.124747
0.00863394 0.917597 0.397418
0.762045 0.617265 0.195632
0.80352 0.563265 -0.192584
0.68534 0.474893 -0.552073
-0.456991 -0.32061 0.82968
-0.160689 -0.11211 0.980617
0.160433 0.114065 0.980434
0.457516 0.320762 0.829331
0.685024 0.475794 0.551691
0.805063 0.561346 0.191738
0.780303 0.593981 -0.195738
0.0209773 0.918569 -0.394703
-0.558447 0.820114 -0.124699
-0.625409 0.779448 -0.0363988
-0.625389 0.779519 0.0352078
-0.558437 0.820317 0.123406
0.026281 0.917912 0.395913
0.779712 0.594853 0.195447
0.804647 0.561859 -0.191984
0.685023 0.47561 -0.55185
-0.457034 -0.320616 0.829654
-0.160537 -0.112192 0.980633
0.160808 0.113122 0.980482
0.458327 0.318646 0.829699
0.686522 0.47303 0.552205
0.808571 0.556277 0.191753
0.792275 0.577939 -0.19567
-0.0513844 0.934376 -0.352563
-0.549376 0.828535 -0.10824
-0.606867 0.794124 -0.0328597
-0.606839 0.794189 0.0317823
-0.549314 0.828725 0.107095
-0.0438073 0.933814 0.355068
0.791684 0.57883 0.195427
0.808277 0.556631 -0.191965
0.686664 0.472667 -0.552339
-0.458066 -0.318215 0.830009
-0.160769 -0.111357 0.98069
0.161673 0.111363 0.980541
0.460637 0.314158 0.830131
0.690096 0.467027 0.55286
0.813616 0.548792 0.19198
0.801867 0.564466 -0.195929
-0.174071 0.944232 -0.279509
-0.542805 0.835223 -0.088117
-0.58904 0.807611 -0.0282152
-0.589014 0.807666 0.0271711
-0.542751 0.835376 0.0869974
-0.166129 0.944721 0.282673
0.801375 0.565239 0.195711
0.81344 0.548986 -0.19217
0.690308 0.466571 -0.55298
-0.460501 -0.313561 0.830432
-0.161539 -0.109678 0.980753
0.162926 0.109041 0.980594
0.464089 0.307999 0.830517
0.695252 0.458596 0.553456
0.819957 0.539184 0.192226
0.811119 0.550967 -0.196269
-0.300324 0.933876 -0.194114
-0.535678 0.841644 -0.0684451
-0.571197 0.820486 -0.0231828
-0.571174 0.82053 0.0221456
-0.535621 0.841768 0.0673545
-0.294185 0.935285 0.196718
0.810804 0.551502 0.196067
0.819884 0.539232 -0.192403
0.695495 0.458095 -0.553566
-0.464023 -0.307302 0.830812
-0.162719 -0.107419 0.980808
0.164455 0.106314 0.980638
0.468359 0.300603 0.83083
0.701589 0.448243 0.553942
0.827434 0.527564 0.19243
0.82029 0.537108 -0.19657
-0.387598 0.913418 -0.124242
-0.526706 0.848501 -0.0512548
-0.553076 0.83293 -0.0182955
-0.55306 0.832963 0.0172436
-0.526646 0.848601 0.0501935
-0.383193 0.915029 0.126035
0.820243 0.53725 0.196376
0.827433 0.527505 -0.192596
0.701839 0.447726 -0.554043
-0.468329 -0.299843 0.831121
-0.164188 -0.104742 0.980852
0.166175 0.103277 0.980673
0.473203 0.292222 0.831075
0.7088 0.43627 0.554321
0.835846 0.514072 0.192594
0.829127 0.523268 -0.196821
-0.436364 0.896551 -0.0760376
-0.515534 0.85606 -0.0372291
-0.534548 0.845023 -0.0139435
-0.534537 0.845047 0.012891
-0.51547 0.856142 0.0362067
-0.432993 0.898078 0.0772891
0.829191 0.523239 0.196631
0.835888 0.513945 -0.192748
0.709047 0.43575 -0.554413
-0.473193 -0.291421 0.831362
-0.165856 -0.101744 0.980887
0.168011 0.100005 0.980699
0.47839 0.283099 0.831263
0.716555 0.423026 0.554615
0.844957 0.498902 0.192727
0.838837 0.507478 -0.197025
-0.458563 0.887516 -0.0451143
-0.502293 0.8643 -0.0262213
-0.515592 0.856773 -0.0102923
-0.515583 0.85679 0.00926693
-0.50223 0.864366 0.0252398
-0.456766 0.888431 0.0453249
0.838824 0.507569 0.196844
0.845017 0.498745 -0.192872
0.716795 0.422509 -0.554699
-0.478388 -0.282268 0.831547
-0.167646 -0.0985061 0.980914
0.169906 0.0965519 0.980719
0.483744 0.273421 0.831404
0.724591 0.408812 0.554834
0.854515 0.482308 0.192827
0.849814 0.488815 -0.197168
-0.460943 0.886981 -0.0282224
-0.487128 0.873144 -0.0180477
-0.496234 0.868158 -0.00736289
-0.496227 0.86817 0.00636848
-0.487077 0.873192 0.0170875
-0.459836 0.887563 0.0279798
0.849758 0.488982 0.196999
0.854576 0.482145 -0.192964
0.724818 0.408306 -0.55491
-0.483743 -0.272571 0.831684
-0.169497 -0.0950871 0.980933
0.171826 0.0929412 0.980733
0.489178 0.263258 0.831505
0.732759 0.393765 0.554989
0.864265 0.464583 0.192896
0.860869 0.469037 -0.197255
-0.453945 0.890845 -0.0181405
-0.470395 0.882373 -0.0121345
-0.476476 0.879172 -0.00511297
-0.476471 0.879181 0.00414922
-0.470349 0.882409 0.0112052
-0.453195 0.891236 0.0176784
0.860804 0.469221 0.197098
0.864329 0.464411 -0.193025
0.73297 0.393276 -0.555058
-0.489167 -0.262404 0.831781
-0.171372 -0.0915155 0.980947
0.173743 0.0892002 0.980743
0.494602 0.252694 0.831574
0.740911 0.378049 0.555095
0.873983 0.446011 0.192944
0.871561 0.448835 -0.197305
-0.442088 0.896897 -0.0115706
-0.45248 0.89174 -0.00782616
-0.456354 0.889792 -0.00340393
-0.456349 0.889797 0.00247401
-0.452442 0.891767 0.00692767
-0.441523 0.897183 0.0110171
0.871496 0.449023 0.19716
0.874038 0.445851 -0.193064
0.741103 0.377584 -0.555155
-0.494579 -0.251842 0.831846
-0.173245 -0.0878133 0.980956
0.17563 0.0853572 0.980749
0.499937 0.241823 0.831616
0.748916 0.361832 0.55516
0.883505 0.426825 0.192977
0.881793 0.428372 -0.197329
-0.427472 0.904002 -0.00694298
-0.433711 0.90104 -0.00457669
-0.435909 0.899989 -0.00207698
-0.435906 0.899992 0.00118876
-0.433687 0.901056 0.0037043
-0.427032 0.904214 0.00634449
0.881713 0.428598 0.197194
0.883547 0.426687 -0.193087
0.749091 0.36139 -0.555212
-0.499899 -0.240978 0.831884
-0.175088 -0.0840114 0.980962
0.177467 0.0814363 0.980752
0.505121 0.230727 0.831636
0.756675 0.34526 0.555192
0.892701 0.407232 0.192996
0.891507 0.407767 -0.197334
-0.411329 0.911481 -0.00333633
-0.414405 0.910091 -0.00187607
-0.41519 0.909734 -0.000963488
-0.415187 0.909736 0.000114652
-0.414381 0.910103 0.00104664
-0.41099 0.911636 0.00270966
0.891446 0.407961 0.197209
0.892742 0.407094 -0.193098
0.756834 0.344842 -0.555236
-0.505064 -0.229898 0.8319
-0.17688 -0.0801405 0.980964
0.179235 0.0774695 0.980751
0.510098 0.219505 0.831635
0.764104 0.32849 0.555194
0.90149 0.387384 0.193003
0.90077 0.386881 -0.197321
-0.394586 0.918859 -6.70795e-05
-0.394793 0.91877 0.000644179
-0.394241 0.919007 0.000100725
-0.394233 0.91901 -0.00087265
-0.394792 0.918769 -0.00146296
-0.394454 0.918915 -0.000664003
0.900711 0.38708 0.197205
0.901527 0.387251 -0.193096
0.76425 0.328089 -0.55523
-0.510022 -0.218692 0.831896
-0.178602 -0.0762311 0.980964
0.180921 0.0734882 0.980748
0.514833 0.208241 0.831614
0.771143 0.311656 0.555166
0.909786 0.367479 0.192998
0.909518 0.36586 -0.19729
-0.37823 0.925705 0.0035754
-0.375174 0.926948 0.0034366
-0.373108 0.927787 0.0012502
-0.373097 0.92779 -0.00197147
-0.375177 0.926943 -0.00421795
-0.378278 0.925682 -0.0043883
0.909497 0.365971 0.197184
0.909827 0.367333 -0.193082
0.771275 0.31128 -0.555194
-0.514737 -0.207448 0.831872
-0.180244 -0.0723097 0.98096
0.182512 0.0695314 0.980742
0.519292 0.197042 0.831571
0.777743 0.294917 0.555104
0.917552 0.347645 0.192978
0.917829 0.344509 -0.197238
-0.363374 0.931606 0.00837759
-0.35577 0.934549 0.00683303
-0.351833 0.936059 0.00262513
-0.351828 0.936059 -0.00331269
-0.3558 0.934531 -0.00759744
-0.363445 0.931571 -0.00914943
0.917771 0.344719 0.197141
0.917582 0.347524 -0.193054
0.777863 0.294563 -0.555124
-0.519184 -0.196253 0.831825
-0.181799 -0.0684033 0.980954
0.184006 0.0656292 0.980732
0.523457 0.186013 0.8315
0.783862 0.278451 0.555
0.924724 0.328114 0.192942
0.925637 0.322993 -0.197158
-0.351304 0.936138 0.0152221
-0.336894 0.941475 0.0112863
-0.330465 0.943808 0.00438905
-0.33046 0.943807 -0.00502126
-0.336951 0.941445 -0.0120387
-0.351618 0.936005 -0.0161114
0.92557 0.323239 0.19707
0.924743 0.328022 -0.193009
0.783971 0.278121 -0.555012
-0.523339 -0.185223 0.83175
-0.183259 -0.0645542 0.980943
0.185402 0.0618108 0.980717
0.52732 0.17526 0.831395
0.789468 0.262467 0.554843
0.931213 0.309253 0.192883
0.932797 0.30177 -0.197038
-0.344444 0.938452 0.0257969
-0.318991 0.947597 0.017456
-0.309062 0.951018 0.00672902
-0.309054 0.951017 -0.00730283
-0.319047 0.947565 -0.0181618
-0.345402 0.938064 -0.0270948
0.932735 0.302015 0.196958
0.931243 0.30913 -0.192939
0.789569 0.262155 -0.554848
-0.527194 -0.174468 0.831642
-0.18462 -0.0608019 0.980927
0.1867 0.058126 0.980696
0.530872 0.164925 0.831249
0.794536 0.247202 0.55462
0.936977 0.291387 0.192791
0.939098 0.281676 -0.196858
-0.347999 0.936472 0.0437777
-0.30244 0.952817 0.0258961
-0.287656 0.957684 0.00974982
-0.287649 0.957681 -0.0102751
-0.302487 0.952784 -0.0265313
-0.35025 0.935529 -0.0459454
0.938935 0.282267 0.196793
0.937016 0.291231 -0.192837
0.794635 0.246893 -0.554617
-0.530744 -0.164107 0.831492
-0.185886 -0.0571807 0.980906
0.187898 0.0546315 0.980668
0.534115 0.155158 0.831052
0.799058 0.232887 0.554319
0.941983 0.274861 0.192666
0.944089 0.264643 -0.196621
-0.371419 0.925352 0.0759658
-0.287613 0.957027 0.0371177
-0.266253 0.96381 0.0134339
-0.266268 0.963797 -0.0140391
-0.287614 0.957006 -0.037638
-0.373928 0.924148 -0.0782811
0.943996 0.265008 0.196577
0.942025 0.274688 -0.192703
0.79915 0.232604 -0.554306
-0.533991 -0.154297 0.831292
-0.187059 -0.0537393 0.980878
0.188997 0.0514108 0.980631
0.537038 0.146209 0.830791
0.803001 0.219917 0.553918
0.946218 0.260025 0.192506
0.948446 0.248801 -0.196337
-0.417263 0.900208 0.124569
-0.27479 0.960123 0.0515224
-0.244881 0.969391 0.0177436
-0.244958 0.969354 -0.01866
-0.274755 0.96011 -0.0519455
-0.420007 0.898588 -0.127019
0.948512 0.248572 0.196306
0.946241 0.259924 -0.192529
0.803078 0.219693 -0.553896
-0.536923 -0.145267 0.83103
-0.188138 -0.0505495 0.980841
0.189996 0.0485359 0.980584
0.539634 0.138351 0.830454
0.806338 0.208755 0.553389
0.949661 0.247329 0.192281
0.952639 0.232526 -0.195988
-0.491033 0.849168 0.194425
-0.264204 0.961961 0.0694753
-0.223607 0.974414 0.022738
-0.223846 0.974326 -0.0241033
-0.264684 0.961762 -0.070398
-0.506753 0.836969 -0.206603
0.9523 0.233952 0.195938
0.949599 0.247546 -0.192311
0.806409 0.208514 -0.553377
-0.539542 -0.13723 0.8307
-0.189127 -0.0476992 0.980793
0.190891 0.0460852 0.980529
0.54189 0.131893 0.830036
0.809063 0.199797 0.55272
0.952314 0.237158 0.191972
0.956102 0.21821 -0.195582
-0.586503 0.759217 0.28214
-0.255245 0.962678 0.0900064
-0.202153 0.978952 0.0280717
-0.202263 0.978901 -0.0290273
-0.255581 0.962505 -0.090901
-0.628472 0.710785 -0.315923
0.956153 0.218036 0.195531
0.952405 0.236755 -0.192019
0.809167 0.19937 -0.552721
-0.541819 -0.130603 0.830286
-0.190008 -0.0453977 0.980732
0.191619 0.0443596 0.980467
0.543684 0.127516 0.829546
0.811092 0.193652 0.551932
0.954362 0.229088 0.191603
0.959467 0.203181 -0.195295
0.662833 -0.658489 -0.356433
-0.245539 0.96311 0.110139
-0.179857 0.983152 0.0326159
-0.179912 0.983118 -0.0333121
-0.245448 0.963104 -0.110391
0.672649 -0.643811 0.364761
0.959541 0.202847 0.195279
0.95456 0.228241 -0.191629
0.811257 0.192999 -0.551918
-0.543681 -0.125931 0.82979
-0.190765 -0.0438169 0.980657
0.192013 0.0437229 0.980418
0.54467 0.126175 0.829105
0.812059 0.191614 0.551221
0.95557 0.224206 0.191357
0.962962 0.185762 -0.195439
0.673127 -0.635661 -0.377936
-0.229106 0.965568 0.12324
-0.154615 0.987345 0.0352765
-0.154812 0.987279 -0.0362467
-0.22931 0.965478 -0.123568
0.67398 -0.634286 0.378724
0.962851 0.186337 0.195437
0.955693 0.223673 -0.191366
0.812252 0.190819 -0.551213
-0.544782 -0.124063 0.82935
-0.191281 -0.0432232 0.980583
0.191685 0.0443315 0.980455
0.5438 0.129193 0.829211
0.810301 0.198175 0.551488
0.953429 0.232502 0.192138
0.967061 0.162823 -0.195656
-0.531124 0.795186 0.292551
-0.180399 0.977681 0.107682
-0.114334 0.992906 0.0326533
-0.114229 0.992942 -0.0319214
-0.178877 0.978225 -0.105258
-0.531849 0.794433 -0.293281
0.967115 0.162443 0.195707
0.953619 0.231723 -0.192132
0.810542 0.196987 -0.551559
-0.544108 -0.126209 0.829468
-0.191203 -0.0439085 0.980568
0.190407 0.0411279 0.980843
0.541268 0.119597 0.832301
0.809575 0.181677 0.558195
0.958007 0.205892 0.199575
0.973898 0.113446 -0.196601
0.829648 -0.0511754 -0.555936
-0.555987 0.0116845 0.831109
-0.195401 0.000992753 0.980723
0.19553 -0.00147068 0.980697
0.555975 -0.0141194 0.831079
0.829584 -0.0508886 0.556058
0.973831 0.113814 0.196722
0.95813 0.205451 -0.199441
0.809829 0.180628 -0.558167
-0.541837 -0.11671 0.832341
-0.190162 -0.0408026 0.980905
0.190462 0.0379098 0.980962
0.541608 0.110397 0.833351
0.811166 0.166871 0.560503
0.961669 0.185766 0.201702
0.973542 0.117763 -0.195825
0.826396 -0.0129871 -0.562939
-0.550434 0.00740846 0.834846
-0.19284 0.00111473 0.981229
0.193165 -0.00162916 0.981165
0.550298 -0.0116091 0.834887
0.826297 -0.0128144 0.563089
0.97347 0.118164 0.19594
0.96175 0.185524 -0.201538
0.811381 0.166211 -0.560389
-0.542229 -0.107861 0.833279
-0.190208 -0.0377059 0.98102
0.184955 0.0480032 0.981574
0.522971 0.148896 0.839244
0.768895 0.267059 0.580931
0.859569 0.438006 0.263233
0.951492 -0.166576 -0.258679
0.782154 -0.19997 -0.590124
-0.536119 0.0611331 0.841926
-0.188479 0.0159588 0.981948
0.188583 -0.0161129 0.981925
0.534278 -0.0722484 0.842216
0.782209 -0.199408 0.590243
0.955515 -0.147666 0.255315
0.859661 0.437875 -0.263152
0.769273 0.266177 -0.580834
-0.526924 -0.138925 0.838481
-0.185317 -0.0469175 0.981558
0.00627714 0.00650013 0.999959
0.00257188 0.000343963 0.999997
</DataArray>
<DataArray type="Float64" Name="cell vector length" format="ascii">
0.177304 0.166408 0.158689 0.125021 0.0765041 0.173097 0.219679 0.201155 0.19778 0.213739 0.174194 0.0762212 0.124305 0.156802 0.184087 0.185825 0.41294 0.385282 0.348218 0.301259 0.267507 0.326379 0.416002 0.446893 0.441816 0.402369 0.32453 0.267622 0.302158 0.350966 0.405525 0.42037 0.518525 0.489207 0.443188 0.380522 0.325991 0.404466 0.517398 0.56008 0.556448 0.507019 0.402919 0.326441 0.381692 0.445366 0.50501 0.523781 0.55061 0.518233 0.463554 0.382183 0.248298 0.120265 0.253507 0.34378 0.344296 0.255781 0.120209 0.249073 0.383364 0.465342 0.53244 0.555131 0.571243 0.535075 0.47032 0.370353 0.219124 0.0915191 0.243702 0.335834 0.335504 0.242756 0.0911836 0.220075 0.371588 0.471836 0.548332 0.5753 0.586152 0.546314 0.472304 0.356855 0.189921 0.0669034 0.232726 0.323174 0.322871 0.231826 0.0664261 0.191099 0.358164 0.473642 0.558996 0.589933 0.597224 0.554468 0.473253 0.346065 0.167235 0.0528522 0.224794 0.312181 0.311924 0.223993 0.052132 0.168522 0.347398 0.47446 0.566806 0.600845 0.605426 0.560425 0.473754 0.337789 0.150455 0.0485476 0.219431 0.303215 0.302988 0.218693 0.0476458 0.151797 0.339133 0.474879 0.572578 0.60896 0.611464 0.564716 0.473904 0.331447 0.138459 0.0494968 0.216005 0.29624 0.296034 0.215303 0.0485383 0.139821 0.332817 0.474989 0.576795 0.614959 0.615865 0.56775 0.473788 0.326511 0.12952 0.0520684 0.213707 0.291032 0.290841 0.213023 0.0508898 0.131134 0.327925 0.474864 0.579829 0.619352 0.619017 0.569836 0.473513 0.32265 0.12184 0.0561985 0.212528 0.287155 0.286973 0.211851 0.0550113 0.123451 0.3241 0.474599 0.581966 0.622517 0.621226 0.571219 0.473143 0.319698 0.116559 0.0593613 0.211892 0.284375 0.284201 0.211223 0.0581972 0.118166 0.321172 0.47425 0.583434 0.624752 0.622723 0.572089 0.472746 0.317519 0.112918 0.0615928 0.211587 0.282514 0.282345 0.210926 0.0604528 0.114523 0.319011 0.473876 0.584408 0.626284 0.62368 0.572587 0.472371 0.315966 0.110424 0.0631053 0.211467 0.28135 0.281186 0.210812 0.0619895 0.112028 0.317473 0.473524 0.585017 0.62728 0.624223 0.572811 0.472034 0.314898 0.108765 0.0640738 0.211462 0.280721 0.280563 0.210814 0.062978 0.110369 0.316421 0.473209 0.585357 0.627864 0.624436 0.572822 0.471741 0.314225 0.107763 0.0646105 0.211545 0.280529 0.280372 0.210897 0.0635295 0.109366 0.315764 0.472935 0.585485 0.628119 0.624353 0.572647 0.471491 0.313906 0.10734 0.0647944 0.211741 0.280736 0.280569 0.211064 0.0637042 0.108947 0.315463 0.472706 0.585426 0.628079 0.623974 0.572284 0.471287 0.313948 0.107497 0.0646788 0.212086 0.281343 0.28117 0.211388 0.0635763 0.109116 0.315521 0.472519 0.585176 0.627742 0.62325 0.571702 0.471128 0.314405 0.10834 0.0641118 0.212506 0.282366 0.282197 0.211812 0.0630161 0.109969 0.315993 0.472376 0.584704 0.627061 0.622088 0.570829 0.471012 0.315385 0.110082 0.0629545 0.21302 0.283914 0.283762 0.212357 0.061879 0.111721 0.316986 0.472275 0.583947 0.625946 0.62035 0.569562 0.470925 0.317042 0.113088 0.0610113 0.21371 0.286153 0.286013 0.213077 0.0599512 0.114747 0.318647 0.4722 0.582802 0.624259 0.617854 0.567753 0.470822 0.319538 0.11793 0.0580603 0.214723 0.289297 0.289158 0.214109 0.0570137 0.119636 0.321132 0.472113 0.58113 0.62182 0.614359 0.565213 0.470647 0.323019 0.125175 0.054294 0.216296 0.293593 0.293436 0.215675 0.0535879 0.12652 0.324593 0.471958 0.578747 0.618395 0.609554 0.561694 0.470332 0.32768 0.133653 0.0518538 0.218811 0.299361 0.29915 0.218065 0.0510307 0.13508 0.329262 0.471646 0.575402 0.613671 0.603031 0.556854 0.469766 0.333945 0.14597 0.0510747 0.222707 0.306915 0.306729 0.222122 0.0484697 0.147208 0.335441 0.471048 0.570792 0.607264 0.594224 0.550241 0.468779 0.342172 0.163093 0.0555311 0.228862 0.316622 0.31643 0.22729 0.0516704 0.165575 0.34353 0.470054 0.564519 0.598629 0.582142 0.541038 0.466905 0.35233 0.186186 0.0705767 0.238041 0.329018 0.328722 0.237223 0.069397 0.187063 0.353581 0.468253 0.555803 0.586791 0.563875 0.526157 0.460855 0.361081 0.209512 0.0963829 0.25471 0.346394 0.346135 0.253939 0.0955667 0.210222 0.362191 0.462302 0.54166 0.568889 0.523669 0.48754 0.428537 0.342158 0.194503 0.13303 0.300234 0.386051 0.387116 0.30402 0.132542 0.195043 0.343099 0.430098 0.504567 0.529326 0.497997 0.462333 0.406406 0.332827 0.27293 0.362475 0.493965 0.542778 0.537329 0.478391 0.360394 0.273479 0.333803 0.408029 0.480311 0.503966 0.462748 0.426904 0.372545 0.309086 0.269731 0.32969 0.443711 0.488297 0.481263 0.423327 0.32771 0.269941 0.309976 0.374108 0.445451 0.468905 0.211725 0.170332 0.107199 0.0418501 0.0131537 0.114177 0.252501 0.316839 0.311188 0.235354 0.114522 0.0131333 0.0424829 0.106605 0.189496 0.217599 0.066698 0.0152124 
</DataArray>
<DataArray type="Float64" Name="cell variable 4" format="ascii">
870.918 865.339 866.043 863.959 853.035 890.808 884.247 873.385 870.459 876.3 890.564 852.856 863.207 864.725 879.554 876.019 1083.67 1065.69 1056.05 1048.73 1046.67 1072.81 1102.7 1093.72 1087.95 1084.82 1072.82 1046.57 1048.62 1056.03 1093.32 1093.08 1281.18 1259.79 1246.11 1235.34 1229.22 1267.89 1299.82 1300.42 1294.51 1281.13 1268.19 1229.49 1235.43 1246.2 1292.49 1291.69 1320.57 1298.06 1283.76 1273.77 1263.98 1382.6 1741.09 1995.74 1994.07 1737.77 1381.6 1263.97 1273.68 1283.79 1331.56 1331.28 1328.8 1306.11 1292.44 1285.74 1281.41 1388.12 1719.68 1957.75 1956.57 1717.3 1386.83 1281.28 1285.63 1292.48 1339.73 1339.5 1331.52 1307.46 1291.72 1283.86 1281.31 1384.44 1701.97 1922.67 1921.77 1700.04 1383.16 1281.28 1283.87 1291.83 1341.11 1342.2 1333.05 1307.72 1290.13 1281.15 1279.26 1384.94 1690.03 1894.22 1893.5 1688.42 1383.51 1279.25 1281.19 1290.26 1341.44 1343.77 1334.14 1307.83 1288.86 1278.99 1277.28 1389.81 1682.48 1872.11 1871.52 1681.09 1388.26 1277.27 1279.05 1288.99 1341.69 1344.92 1335.03 1307.94 1287.89 1277.27 1275.61 1396.2 1677.95 1855.61 1855.12 1676.71 1394.64 1275.59 1277.33 1288.01 1342 1345.89 1335.78 1308.06 1287.17 1275.94 1274.18 1401.99 1674.96 1843.76 1843.34 1673.82 1400.15 1274.17 1275.99 1287.27 1342.35 1346.74 1336.33 1308.1 1286.63 1274.96 1272.94 1408.76 1673.76 1835.27 1834.9 1672.69 1406.94 1272.93 1275 1286.72 1342.66 1347.4 1336.74 1308.08 1286.2 1274.19 1271.93 1413.6 1673.25 1829.35 1829.01 1672.26 1411.8 1271.92 1274.23 1286.29 1342.93 1347.94 1337.05 1308 1285.8 1273.54 1271.14 1416.96 1673.1 1825.45 1825.15 1672.19 1415.2 1271.13 1273.58 1285.88 1343.15 1348.38 1337.25 1307.87 1285.42 1273 1270.51 1419.22 1673.13 1823.04 1822.77 1672.28 1417.51 1270.51 1273.03 1285.5 1343.3 1348.7 1337.32 1307.67 1285.06 1272.56 1270.02 1420.69 1673.26 1821.76 1821.52 1672.48 1418.99 1270.01 1272.6 1285.15 1343.4 1348.89 1337.27 1307.41 1284.74 1272.23 1269.65 1421.52 1673.48 1821.4 1821.17 1672.73 1419.83 1269.64 1272.27 1284.83 1343.42 1348.97 1337.1 1307.09 1284.45 1272 1269.38 1421.83 1673.85 1821.86 1821.62 1673.07 1420.13 1269.37 1272.04 1284.54 1343.38 1348.92 1336.83 1306.74 1284.19 1271.86 1269.22 1421.7 1674.44 1823.16 1822.92 1673.68 1420 1269.21 1271.9 1284.28 1343.26 1348.76 1336.45 1306.34 1283.97 1271.82 1269.14 1420.88 1675.07 1825.34 1825.13 1674.37 1419.21 1269.15 1271.86 1284.05 1343.09 1348.48 1335.97 1305.88 1283.78 1271.89 1269.22 1419.21 1675.78 1828.61 1828.45 1675.15 1417.55 1269.22 1271.93 1283.88 1342.85 1348.09 1335.37 1305.38 1283.63 1272.09 1269.48 1416.34 1676.62 1833.36 1833.23 1676.07 1414.7 1269.48 1272.13 1283.73 1342.55 1347.58 1334.67 1304.85 1283.55 1272.43 1269.96 1411.81 1677.77 1840.12 1840.03 1677.34 1410.19 1269.98 1272.48 1283.65 1342.19 1346.97 1333.87 1304.31 1283.6 1273.02 1270.68 1405.44 1679.64 1849.62 1849.54 1679.32 1404.36 1270.72 1273.1 1283.71 1341.81 1346.23 1332.97 1303.8 1283.88 1273.97 1271.65 1399.63 1682.89 1862.77 1862.64 1682.59 1398.67 1271.83 1274.06 1283.95 1341.43 1345.39 1331.96 1303.32 1284.39 1275.32 1272.98 1393.28 1688.3 1880.72 1880.47 1687.95 1392.97 1272.93 1275.33 1284.49 1341.13 1344.47 1330.66 1302.8 1285.18 1277 1274.29 1388.95 1696.96 1904.61 1904.16 1693.97 1387 1273.92 1276.91 1285.31 1340.79 1343.25 1327.95 1301.28 1285.38 1278.06 1274.14 1387.63 1709.34 1935.25 1934.69 1708.62 1388.15 1274.13 1278.02 1285.42 1339.24 1340.55 1316.93 1291.32 1276.81 1269.96 1263.3 1386.41 1729.51 1973.36 1972.68 1728.54 1385.34 1263.34 1269.93 1276.79 1328.95 1329.45 1253.07 1226.87 1209.4 1197.07 1183.07 1357.82 1761.5 2024.83 2023.78 1759.74 1356.98 1183.08 1197.04 1209.34 1262.42 1264.94 1202.04 1175.73 1156.56 1141.81 1131.2 1168.62 1216.75 1224.1 1215.54 1191.34 1168.78 1131.47 1142 1156.66 1209.96 1213.5 1091.01 1065 1043.88 1027.63 1018.03 1031.57 1079.38 1081.03 1070.65 1048.93 1031.26 1017.91 1027.79 1044.25 1095.83 1101.49 754.146 743.934 740.684 744.773 752.007 784.518 839.458 860.694 854.544 820.336 785.954 751.915 744.783 739.313 762.473 759.838 621.783 745.326 
</DataArray>
<DataArray type="Float64" Name="cell variable 5" format="ascii">
0.00156408 0.00156408 0.00156408 0.00156408 0.00156408 0.00156408 0.00156408 0.00156408 0.00156408 0.00156408 0.00156408 0.00156408 0.00156408 0.00156408 0.00156408 0.00156408 0.00156408 0.00156408 0.00156408 0.00156408 0.00156408 0.00156408 0.00156408 0.00156408 0.00156408 0.00156408 0.00156408 0.00156408 0.00156408 0.00156408 0.00156408 0.00156408 0.00156408 0.00156408 0.00156408 0.00156408 0.00156408 0.00156408 0.00156408 0.00156408 0.00156408 0.00156408 0.00156408 0.00156408 0.00156408 0.00156408 0.00156408 0.00156408 0.00236385 0.00218832 0.00190505 0.00163499 0.00156408 0.00156408 0.00156408 0.00156408 0.00156408 0.00156408 0.00156408 0.00156408 0.00163499 0.00190505 0.00218832 0.00236385 0.00267458 0.00243093 0.00203748 0.00166245 0.00156408 0.00156408 0.00156408 0.00156408 0.00156408 0.00156408 0.00156408 0.00156408 0.00166245 0.00203748 0.00243093 0.00267458 0.00285462 0.0025717 0.00211429 0.00167843 0.00156408 0.00156408 0.00156408 0.00156408 0.00156408 0.00156408 0.00156408 0.00156408 0.00167843 0.00211429 0.0025717 0.00285462 0.00298566 0.00267354 0.00217025 0.00169025 0.00156408 0.00156408 0.00156408 0.00156408 0.00156408 0.00156408 0.00156408 0.00156408 0.00169025 0.00217025 0.00267354 0.00298566 0.00308785 0.00275348 0.0022137 0.00169929 0.00156408 0.00156408 0.00156408 0.00156408 0.00156408 0.00156408 0.00156408 0.00156408 0.00169929 0.0022137 0.00275348 0.00308785 0.00317022 0.00281778 0.0022488 0.00170659 0.00156408 0.00156408 0.00156408 0.00156408 0.00156408 0.00156408 0.00156408 0.00156408 0.00170659 0.0022488 0.00281778 0.00317022 0.00323765 0.00287026 0.00227765 0.0017125 0.00156408 0.00156408 0.00156408 0.00156408 0.00156408 0.00156408 0.00156408 0.00156408 0.0017125 0.00227765 0.00287026 0.00323765 0.00329222 0.00291302 0.00230094 0.00171736 0.00156408 0.00156408 0.00156408 0.00156408 0.00156408 0.00156408 0.00156408 0.00156408 0.00171736 0.00230094 0.00291302 0.00329222 0.00333601 0.00294743 0.00231971 0.00172119 0.00156408 0.00156408 0.00156408 0.00156408 0.00156408 0.00156408 0.00156408 0.00156408 0.00172119 0.00231971 0.00294743 0.00333601 0.00337008 0.00297384 0.00233396 0.00172431 0.00156408 0.00156408 0.00156408 0.00156408 0.00156408 0.00156408 0.00156408 0.00156408 0.00172431 0.00233396 0.00297384 0.00337008 0.0033951 0.00299331 0.00234473 0.0017264 0.00156408 0.00156408 0.00156408 0.00156408 0.00156408 0.00156408 0.00156408 0.00156408 0.0017264 0.00234473 0.00299331 0.0033951 0.00341178 0.00300617 0.00235168 0.00172814 0.00156408 0.00156408 0.00156408 0.00156408 0.00156408 0.00156408 0.00156408 0.00156408 0.00172814 0.00235168 0.00300617 0.00341178 0.00341978 0.00301277 0.00235516 0.00172883 0.00156408 0.00156408 0.00156408 0.00156408 0.00156408 0.00156408 0.00156408 0.00156408 0.00172883 0.00235516 0.00301277 0.00341978 0.00341978 0.00301277 0.00235516 0.00172883 0.00156408 0.00156408 0.00156408 0.00156408 0.00156408 0.00156408 0.00156408 0.00156408 0.00172883 0.00235516 0.00301277 0.00341978 0.00341178 0.00300617 0.00235168 0.00172814 0.00156408 0.00156408 0.00156408 0.00156408 0.00156408 0.00156408 0.00156408 0.00156408 0.00172814 0.00235168 0.00300617 0.00341178 0.0033951 0.00299331 0.00234473 0.0017264 0.00156408 0.00156408 0.00156408 0.00156408 0.00156408 0.00156408 0.00156408 0.00156408 0.0017264 0.00234473 0.00299331 0.0033951 0.00337008 0.00297384 0.00233396 0.00172431 0.00156408 0.00156408 0.00156408 0.00156408 0.00156408 0.00156408 0.00156408 0.00156408 0.00172431 0.00233396 0.00297384 0.00337008 0.00333601 0.00294743 0.00231971 0.00172119 0.00156408 0.00156408 0.00156408 0.00156408 0.00156408 0.00156408 0.00156408 0.00156408 0.00172119 0.00231971 0.00294743 0.00333601 0.00329222 0.00291302 0.00230094 0.00171736 0.00156408 0.00156408 0.00156408 0.00156408 0.00156408 0.00156408 0.00156408 0.00156408 0.00171736 0.00230094 0.00291302 0.00329222 0.00323765 0.00287026 0.00227765 0.0017125 0.00156408 0.00156408 0.00156408 0.00156408 0.00156408 0.00156408 0.00156408 0.00156408 0.0017125 0.00227765 0.00287026 0.00323765 0.00317022 0.00281778 0.0022488 0.00170659 0.00156408 0.00156408 0.00156408 0.00156408 0.00156408 0.00156408 0.00156408 0.00156408 0.00170659 0.0022488 0.00281778 0.00317022 0.00308785 0.00275348 0.0022137 0.00169929 0.00156408 0.00156408 0.00156408 0.00156408 0.00156408 0.00156408 0.00156408 0.00156408 0.00169929 0.0022137 0.00275348 0.00308785 0.00298566 0.00267354 0.00217025 0.00169025 0.00156408 0.00156408 0.00156408 0.00156408 0.00156408 0.00156408 0.00156408 0.00156408 0.00169025 0.00217025 0.00267354 0.00298566 0.00285462 0.0025717 0.00211429 0.00167843 0.00156408 0.00156408 0.00156408 0.00156408 0.00156408 0.00156408 0.00156408 0.00156408 0.00167843 0.00211429 0.0025717 0.00285462 0.00267458 0.00243093 0.00203748 0.00166245 0.00156408 0.00156408 0.00156408 0.00156408 0.00156408 0.00156408 0.00156408 0.00156408 0.00166245 0.00203748 0.00243093 0.00267458 0.00236385 0.00218832 0.00190505 0.00163499 0.00156408 0.00156408 0.00156408 0.00156408 0.00156408 0.00156408 0.00156408 0.00156408 0.00163499 0.00190505 0.00218832 0.00236385 0.00156408 0.00156408 0.00156408 0.00156408 0.00156408 0.00156408 0.00156408 0.00156408 0.00156408 0.00156408 0.00156408 0.00156408 0.00156408 0.00156408 0.00156408 0.00156408 0.00156408 0.00156408 0.00156408 0.00156408 0.00156408 0.00156408 0.00156408 0.00156408 0.00156408 0.00156408 0.00156408 0.00156408 0.00156408 0.00156408 0.00156408 0.00156408 0.00156408 0.00156408 0.00156408 0.00156408 0.00156408 0.00156408 0.00156408 0.00156408 0.00156408 0.00156408 0.00156408 0.00156408 0.00156408 0.00156408 0.00156408 0.00156408 0.00156408 0.00156408 
</DataArray>
<DataArray type="Float64" Name="cell variable 6" format="ascii">
1 1 1 1 1 1 1 1 1 1 1 1 1 1 1 1 1 1 1 1 1 1 1 1 1 1 1 1 1 1 1 1 1 1 1 1 1 1 1 1 1 1 1 1 1 1 1 1 1 1 1 1 1 1 1 1 1 1 1 1 1 1 1 1 1 1 1 1 1 1 1 1 1 1 1 1 1 1 1 1 1 1 1 1 1 1 1 1 1 1 1 1 1 1 1 1 1 1 1 1 1 1 1 1 1 1 1 1 1 1 1 1 1 1 1 1 1 1 1 1 1 1 1 1 1 1 1 1 1 1 1 1 1 1 1 1 1 1 1 1 1 1 1 1 1 1 1 1 1 1 1 1 1 1 1 1 1 1 1 1 1 1 1 1 1 1 1 1 1 1 1 1 1 1 1 1 1 1 1 1 1 1 1 1 1 1 1 1 1 1 1 1 1 1 1 1 1 1 1 1 1 1 1 1 1 1 1 1 1 1 1 1 1 1 1 1 1 1 1 1 1 1 1 1 1 1 1 1 1 1 1 1 1 1 1 1 1 1 1 1 1 1 1 1 1 1 1 1 1 1 1 1 1 1 1 1 1 1 1 1 1 1 1 1 1 1 1 1 1 1 1 1 1 1 1 1 1 1 1 1 1 1 1 1 1 1 1 1 1 1 1 1 1 1 1 1 1 1 1 1 1 1 1 1 1 1 1 1 1 1 1 1 1 1 1 1 1 1 1 1 1 1 1 1 1 1 1 1 1 1 1 1 1 1 1 1 1 1 1 1 1 1 1 1 1 1 1 1 1 1 1 1 1 1 1 1 1 1 1 1 1 1 1 1 1 1 1 1 1 1 1 1 1 1 1 1 1 1 1 1 1 1 1 1 1 1 1 1 1 1 1 1 1 1 1 1 1 1 1 1 1 1 1 1 1 1 1 1 1 1 1 1 1 1 1 1 1 1 1 1 1 1 1 1 1 1 1 1 1 1 1 1 1 1 1 1 1 1 1 1 1 1 1 1 1 1 1 1 1 1 1 1 1 1 1 1 1 1 1 1 1 1 1 1 1 1 1 1 1 1 1 1 1 1 1 1 1 1 1 1 1 1 1 1 1 1 1 1 1 1 1 1 1 1 1 1 1 1 1 1 1 1 1 1 1 1 1 1 1 1 1 1 1 1 
</DataArray>
<DataArray type="Float64" Name="cell variable 7" format="ascii">
0 0 0 0 0 0 0 0 0 0 0 0 0 0 0 0 0 0 0 0 0 0 0 0 0 0 0 0 0 0 0 0 0 0 0 0 0 0 0 0 0 0 0 0 0 0 0 0 0 0 0 0 0 0 0 0 0 0 0 0 0 0 0 0 0 0 0 0 0 0 0 0 0 0 0 0 0 0 0 0 0 0 0 0 0 0 0 0 0 0 0 0 0 0 0 0 0 0 0 0 0 0 0 0 0 0 0 0 0 0 0 0 0 0 0 0 0 0 0 0 0 0 0 0 0 0 0 0 0 0 0 0 0 0 0 0 0 0 0 0 0 0 0 0 0 0 0 0 0 0 0 0 0 0 0 0 0 0 0 0 0 0 0 0 0 0 0 0 0 0 0 0 0 0 0 0 0 0 0 0 0 0 0 0 0 0 0 0 0 0 0 0 0 0 0 0 0 0 0 0 0 0 0 0 0 0 0 0 0 0 0 0 0 0 0 0 0 0 0 0 0 0 0 0 0 0 0 0 0 0 0 0 0 0 0 0 0 0 0 0 0 0 0 0 0 0 0 0 0 0 0 0 0 0 0 0 0 0 0 0 0 0 0 0 0 0 0 0 0 0 0 0 0 0 0 0 0 0 0 0 0 0 0 0 0 0 0 0 0 0 0 0 0 0 0 0 0 0 0 0 0 0 0 0 0 0 0 0 0 0 0 0 0 0 0 0 0 0 0 0 0 0 0 0 0 0 0 0 0 0 0 0 0 0 0 0 0 0 0 0 0 0 0 0 0 0 0 0 0 0 0 0 0 0 0 0 0 0 0 0 0 0 0 0 0 0 0 0 0 0 0 0 0 0 0 0 0 0 0 0 0 0 0 0 0 0 0 0 0 0 0 0 0 0 0 0 0 0 0 0 0 0 0 0 0 0 0 0 0 0 0 0 0 0 0 0 0 0 0 0 0 0 0 0 0 0 0 0 0 0 0 0 0 0 0 0 0 0 0 0 0 0 0 0 0 0 0 0 0 0 0 0 0 0 0 0 0 0 0 0 0 0 0 0 0 0 0 0 0 0 0 0 0 0 0 0 0 0 0 0 0 0 0 0 0 0 0 0 0 0 0 0 0 0 0 0 0 0 0 0 0 0 0 0 0 0 0 0 0 0 0 0 1 1 
</DataArray>
<DataArray type="Float64" Name="cell variable 8" format="ascii">
11.25 33.75 56.25 78.75 101.25 123.75 146.25 168.75 191.25 213.75 236.25 258.75 281.25 303.75 326.25 348.75 11.25 33.75 56.25 78.75 101.25 123.75 146.25 168.75 191.25 213.75 236.25 258.75 281.25 303.75 326.25 348.75 11.25 33.75 56.25 78.75 101.25 123.75 146.25 168.75 191.25 213.75 236.25 258.75 281.25 303.75 326.25 348.75 11.25 33.75 56.25 78.75 101.25 123.75 146.25 168.75 191.25 213.75 236.25 258.75 281.25 303.75 326.25 348.75 11.25 33.75 56.25 78.75 101.25 123.75 146.25 168.75 191.25 213.75 236.25 258.75 281.25 303.75 326.25 348.75 11.25 33.75 56.25 78.75 101.25 123.75 146.25 168.75 191.25 213.75 236.25 258.75 281.25 303.75 326.25 348.75 11.25 33.75 56.25 78.75 101.25 123.75 146.25 168.75 191.25 213.75 236.25 258.75 281.25 303.75 326.25 348.75 11.25 33.75 56.25 78.75 101.25 123.75 146.25 168.75 191.25 213.75 236.25 258.75 281.25 303.75 326.25 348.75 11.25 33.75 56.25 78.75 101.25 123.75 146.25 168.75 191.25 213.75 236.25 258.75 281.25 303.75 326.25 348.75 11.25 33.75 56.25 78.75 101.25 123.75 146.25 168.75 191.25 213.75 236.25 258.75 281.25 303.75 326.25 348.75 11.25 33.75 56.25 78.75 101.25 123.75 146.25 168.75 191.25 213.75 236.25 258.75 281.25 303.75 326.25 348.75 11.25 33.75 56.25 78.75 101.25 123.75 146.25 168.75 191.25 213.75 236.25 258.75 281.25 303.75 326.25 348.75 11.25 33.75 56.25 78.75 101.25 123.75 146.25 168.75 191.25 213.75 236.25 258.75 281.25 303.75 326.25 348.75 11.25 33.75 56.25 78.75 101.25 123.75 146.25 168.75 191.25 213.75 236.25 258.75 281.25 303.75 326.25 348.75 11.25 33.75 56.25 78.75 101.25 123.75 146.25 168.75 191.25 213.75 236.25 258.75 281.25 303.75 326.25 348.75 11.25 33.75 56.25 78.75 101.25 123.75 146.25 168.75 191.25 213.75 236.25 258.75 281.25 303.75 326.25 348.75 11.25 33.75 56.25 78.75 101.25 123.75 146.25 168.75 191.25 213.75 236.25 258.75 281.25 303.75 326.25 348.75 11.25 33.75 56.25 78.75 101.25 123.75 146.25 168.75 191.25 213.75 236.25 258.75 281.25 303.75 326.25 348.75 11.25 33.75 56.25 78.75 101.25 123.75 146.25 168.75 191.25 213.75 236.25 258.75 281.25 303.75 326.25 348.75 11.25 33.75 56.25 78.75 101.25 123.75 146.25 168.75 191.25 213.75 236.25 258.75 281.25 303.75 326.25 348.75 11.25 33.75 56.25 78.75 101.25 123.75 146.25 168.75 191.25 213.75 236.25 258.75 281.25 303.75 326.25 348.75 11.25 33.75 56.25 78.75 101.25 123.75 146.25 168.75 191.25 213.75 236.25 258.75 281.25 303.75 326.25 348.75 11.25 33.75 56.25 78.75 101.25 123.75 146.25 168.75 191.25 213.75 236.25 258.75 281.25 303.75 326.25 348.75 11.25 33.75 56.25 78.75 101.25 123.75 146.25 168.75 191.25 213.75 236.25 258.75 281.25 303.75 326.25 348.75 11.25 33.75 56.25 78.75 101.25 123.75 146.25 168.75 191.25 213.75 236.25 258.75 281.25 303.75 326.25 348.75 11.25 33.75 56.25 78.75 101.25 123.75 146.25 168.75 191.25 213.75 236.25 258.75 281.25 303.75 326.25 348.75 11.25 33.75 56.25 78.75 101.25 123.75 146.25 168.75 191.25 213.75 236.25 258.75 281.25 303.75 326.25 348.75 11.25 33.75 56.25 78.75 101.25 123.75 146.25 168.75 191.25 213.75 236.25 258.75 281.25 303.75 326.25 348.75 11.25 33.75 56.25 78.75 101.25 123.75 146.25 168.75 191.25 213.75 236.25 258.75 281.25 303.75 326.25 348.75 11.25 33.75 56.25 78.75 101.25 123.75 146.25 168.75 191.25 213.75 236.25 258.75 281.25 303.75 326.25 348.75 11.25 33.75 56.25 78.75 101.25 123.75 146.25 168.75 191.25 213.75 236.25 258.75 281.25 303.75 326.25 348.75 11.25 33.75 56.25 78.75 101.25 123.75 146.25 168.75 191.25 213.75 236.25 258.75 281.25 303.75 326.25 348.75 0 0 
</DataArray>
</CellData>
</Piece>
</UnstructuredGrid>
</VTKFile>
