<VTKFile type="UnstructuredGrid" version="0.1">
<UnstructuredGrid>
<Piece  NumberOfPoints="    2080" NumberOfCells="     514">
<Points>
<DataArray type="Float64" NumberOfComponents="3" format="ascii">
-103.697 1000.02 1.0565
-99.8818 1003.46 26.8335
-83.7555 978.017 28.954
-87.9268 974.316 1.10304
-99.0234 1004.22 29.5851
-88.0514 1013.9 51.4
-70.98 989.22 55.2483
-82.897 978.775 31.7056
-86.4632 1015.29 53.4989
-70.0359 1029.72 68.0013
-51.5872 1006.2 73.0015
-69.3918 990.613 57.3472
-67.9692 1031.54 69.1306
-48.7444 1048.61 74.166
-28.6539 1026.46 79.5688
-49.5205 1008.02 74.1308
-46.5285 1050.6 74.1616
-27.5216 1067.87 69.0351
-5.81639 1047.14 74.0667
-26.4381 1028.44 79.5644
-25.5024 1069.74 67.9035
-9.61961 1084.75 53.4133
13.3715 1065.39 57.3034
-3.79725 1049.01 72.935
-8.09609 1086.22 51.3165
2.40009 1096.53 29.5512
26.159 1078.09 31.6336
14.895 1066.86 55.2066
3.21675 1097.34 26.7994
6.90914 1100.96 1.01758
30.8998 1082.88 1.02655
26.9756 1078.9 28.8818
6.90916 1100.96 -1.96695
3.21817 1097.34 -27.7488
26.9781 1078.89 -29.8055
30.8999 1082.88 -1.95798
2.4024 1096.52 -30.4996
-8.08244 1086.19 -52.2604
14.9204 1066.82 -56.107
26.1623 1078.07 -32.5563
-9.60359 1084.72 -54.3558
-25.4658 1069.67 -68.8322
-3.74732 1048.94 -73.8228
13.3993 1065.35 -58.2023
-27.4831 1067.8 -69.9624
-46.4775 1050.51 -75.0759
-26.3735 1028.35 -80.4377
-5.76456 1047.07 -74.9531
-48.6922 1048.52 -75.0789
-67.9094 1031.44 -70.0307
-49.4449 1007.92 -74.9878
-28.5881 1026.37 -80.4407
-69.9742 1029.62 -68.8997
-86.366 1015.17 -54.3746
-69.3033 990.52 -58.1865
-51.5096 1006.1 -73.8569
-87.9538 1013.78 -52.2732
-98.9311 1004.13 -30.4534
-82.8391 978.703 -32.5003
-70.8911 989.127 -56.0852
-99.7946 1003.38 -27.6994
-103.693 1000.02 -1.92586
-87.9231 974.312 -1.87932
-83.7026 977.95 -29.7463
-85.873 971.511 1.18013
-81.7018 975.212 29.0311
-60.4409 949.975 29.6523
-64.7155 946.228 1.20564
-68.8803 986.448 55.4605
-47.3519 961.344 56.6019
-59.5364 950.766 32.5391
-80.7973 976.003 31.9179
-49.4055 1003.49 73.3175
-27.4758 978.589 74.8406
-45.6816 962.801 58.8046
-67.2101 987.904 57.6633
-26.3656 1023.83 79.942
-3.94679 999.189 81.627
-25.3024 980.493 76.027
-47.2321 1005.39 74.504
-3.41417 1044.61 74.4419
19.4384 1020.31 76.0127
-1.61709 1001.27 81.6245
-24.0359 1025.91 79.9396
15.8673 1062.95 57.624
38.8471 1039.1 58.796
21.5512 1022.28 74.8265
-1.30142 1046.58 73.2556
28.7166 1075.74 31.8473
51.7292 1052.22 32.4751
40.4324 1040.66 56.5923
17.4526 1064.5 55.4203
33.4872 1080.57 1.10115
56.5154 1057.17 1.11805
52.5756 1053.08 29.5843
29.563 1076.59 28.9564
29.5655 1076.58 -29.877
52.5823 1053.05 -30.4632
56.5155 1057.16 -2.01253
33.4873 1080.57 -2.02943
17.4788 1064.47 -56.316
40.4686 1040.61 -57.4294
51.7375 1052.19 -33.3515
28.7207 1075.72 -32.7653
-1.25033 1046.51 -74.1379
21.6059 1022.2 -75.654
38.886 1039.06 -59.6309
15.8963 1062.91 -58.5174
-23.9703 1025.82 -80.8078
-1.55029 1001.18 -82.4419
19.4948 1020.23 -76.8391
-3.36144 1044.54 -75.3231
-47.1557 1005.3 -75.356
-25.2285 980.398 -76.8326
-3.87891 999.099 -82.443
-26.299 1023.74 -80.8089
-67.122 987.812 -58.4979
-45.607 962.715 -59.5998
-27.4011 978.495 -75.6448
-49.3283 1003.39 -74.1683
-80.7418 975.933 -32.707
-59.5001 950.699 -33.2808
-47.2788 961.26 -57.3938
-68.7938 986.357 -56.2919
-81.6504 975.146 -29.8164
-85.8709 971.508 -1.9494
-64.7133 946.224 -1.92389
-60.4087 949.912 -30.3903
-62.3165 943.466 1.22749
-58.0419 947.214 29.6741
-35.9639 922.653 29.7925
-40.2795 918.924 1.24976
-57.1227 948.008 32.5971
-44.9382 958.586 56.6599
-22.7482 933.972 56.8652
-35.0447 923.447 32.7155
-43.2408 960.048 58.8919
-25.0349 975.836 74.9279
-2.6645 951.137 75.1972
-21.0508 935.434 59.0972
-22.8251 977.747 76.1316
-1.46954 996.444 81.7316
21.1249 971.638 82.0262
-0.454725 953.048 76.401
0.894254 998.536 81.729
21.9498 1017.57 76.1172
44.6526 992.766 76.3448
23.4887 973.731 82.0236
24.0738 1019.57 74.915
41.3697 1036.4 58.8845
63.8579 1011.97 59.0704
46.7766 994.765 75.1426
42.9496 1038 56.6522
54.2465 1049.56 32.5351
76.5892 1025.43 32.6778
65.4379 1013.57 56.8381
55.0896 1050.44 29.6073
59.0293 1054.53 1.14112
81.3379 1030.51 1.17422
77.4322 1026.31 29.7501
59.03 1054.53 -2.02998
55.0968 1050.41 -30.4807
77.4501 1026.28 -30.5634
81.3386 1030.51 -1.99688
54.2559 1049.53 -33.4058
42.987 1037.95 -57.4837
65.4792 1013.51 -57.6255
76.6092 1025.39 -33.4885
41.409 1036.35 -59.7138
24.1289 1019.5 -75.7369
46.8282 994.688 -75.92
63.9012 1011.91 -59.8556
22.006 1017.5 -76.9382
0.960918 998.446 -82.541
23.5498 973.639 -82.7907
44.7053 992.687 -77.1213
-1.40208 996.353 -82.5425
-22.7516 977.653 -76.932
-0.388875 952.953 -77.1577
21.1868 971.546 -82.7923
-24.9612 975.742 -75.7273
-43.1671 959.962 -59.6823
-20.9889 935.351 -59.8462
-2.59848 951.043 -75.953
-44.8667 958.502 -57.447
-57.088 947.941 -33.3341
-35.021 923.383 -33.4096
-22.6885 933.891 -57.6109
-58.0107 947.151 -30.4071
-62.3152 943.463 -1.94067
-40.2781 918.921 -1.9184
-35.9437 922.593 -30.4825
-37.8426 916.198 1.25582
-33.527 919.927 29.7985
-11.6728 895.361 29.8353
-16.0583 891.686 1.27596
-32.5959 920.714 32.7277
-20.2995 931.239 56.8774
1.73662 906.526 56.9124
-10.7418 896.149 32.7644
-18.5813 932.687 59.1126
-0.195032 948.39 75.2127
22.0922 923.462 75.2239
3.45475 907.975 59.1476
2.04163 950.282 76.4169
23.6212 968.873 82.0421
46.2012 943.68 82.0281
24.3288 925.355 76.4282
26.0181 970.946 82.0353
47.182 989.981 76.3565
70.1983 964.369 76.317
48.5981 945.753 82.0212
49.3405 991.967 75.1419
66.4218 1009.17 59.0696
90.1549 982.916 59.0176
72.3568 966.355 75.1023
68.0203 1010.75 56.8353
79.1716 1022.62 32.675
103.437 995.937 32.673
91.7535 984.498 56.7832
80.025 1023.49 29.7516
83.9306 1027.69 1.17579
108.384 1000.86 1.208
104.29 996.811 29.7497
83.9316 1027.69 -1.99136
80.0432 1023.46 -30.5579
104.309 996.779 -30.4988
108.385 1000.86 -1.95915
79.1919 1022.58 -33.4801
68.0619 1010.69 -57.6171
91.7881 984.439 -57.5256
103.457 995.902 -33.4211
66.4646 1009.11 -59.8502
49.3916 991.889 -75.9147
72.403 966.275 -75.835
90.1909 982.855 -59.7587
47.2342 989.902 -77.1283
26.0786 970.854 -82.7977
48.6532 945.66 -82.7431
70.2456 964.288 -77.0486
23.6824 968.78 -82.8035
2.10676 950.188 -77.169
24.3872 925.261 -77.1401
46.2569 943.586 -82.749
-0.12999 948.296 -75.9639
-18.5204 932.604 -59.8571
3.50719 907.894 -59.8529
22.1504 923.369 -75.935
-20.2408 931.158 -57.6186
-32.5734 920.65 -33.4173
-10.726 896.086 -33.4144
1.78679 906.448 -57.6144
-33.5072 919.867 -30.484
-37.8417 916.195 -1.91986
-16.0574 891.683 -1.89973
-11.6599 895.303 -30.4811
-13.664 888.941 1.27893
-9.27851 892.616 29.8383
12.0325 867.701 29.8633
7.5847 864.101 1.29904
-8.33386 893.39 32.7683
4.14451 903.768 56.9163
25.626 878.646 56.945
12.9772 868.475 32.7933
5.88665 905.192 59.1509
24.5241 920.68 75.2272
46.257 895.255 75.2537
27.3681 880.07 59.1797
26.7917 922.541 76.4294
48.6641 940.866 82.0293
70.7093 915.066 82.041
48.5246 897.116 76.4559
51.1001 942.896 82.0206
72.7003 961.512 76.3163
95.1437 935.246 76.3371
73.1453 917.096 82.0323
74.9167 963.437 75.1018
92.7149 979.998 59.017
115.725 953.115 59.0368
97.3601 937.171 75.1226
94.3774 981.521 56.7833
106.061 992.96 32.6732
129.513 965.624 32.6961
117.388 954.638 56.8032
106.951 993.801 29.752
111.045 997.854 1.21028
134.658 970.364 1.23388
130.404 966.466 29.7749
111.046 997.852 -1.95545
106.97 993.77 -30.4951
130.419 966.437 -30.4713
134.659 970.362 -1.93186
106.081 992.926 -33.416
94.4115 981.462 -57.5204
117.419 954.581 -57.4947
129.531 965.593 -33.3922
92.7504 979.937 -59.7534
74.9625 963.357 -75.8297
97.4035 937.092 -75.8066
115.758 953.056 -59.7276
72.7472 961.431 -77.0433
51.1547 942.803 -82.7379
73.1967 917.004 -82.7074
95.1881 935.166 -77.0202
48.7193 940.772 -82.7456
26.8495 922.447 -77.1367
48.5779 897.025 -77.1224
70.7612 914.974 -82.7151
24.5816 920.587 -75.9338
5.93837 905.112 -59.8517
27.4144 879.993 -59.8405
46.31 895.164 -75.9195
4.19399 903.689 -57.6139
-8.31883 893.328 -33.4139
12.9882 868.415 -33.3989
25.67 878.57 -57.6027
-9.26591 892.558 -30.4797
-13.6634 888.938 -1.89828
7.58525 864.098 -1.87818
12.0411 867.645 -30.4647
9.91457 861.314 1.3016
14.3624 864.914 29.8658
35.0511 839.575 29.889
30.5417 836.063 1.32142
15.3202 865.671 32.7967
27.9691 875.842 56.9484
48.8321 850.261 56.9806
36.0089 840.332 32.8198
29.7355 877.235 59.1836
48.6243 892.42 75.2577
69.7553 866.484 75.2996
50.5985 851.654 59.2158
50.9247 894.241 76.4594
73.1093 912.191 82.0445
94.578 885.822 82.0849
72.0556 868.304 76.5013
75.585 914.171 82.0354
97.5834 932.321 76.3402
119.447 905.457 76.3796
97.0537 887.802 82.0758
99.8502 934.186 75.1263
118.215 950.129 59.0406
140.561 922.688 59.0725
121.714 907.321 75.1656
119.93 951.595 56.8064
132.056 962.581 32.6993
154.781 934.696 32.7238
142.276 924.153 56.8383
132.978 963.389 29.7777
137.232 967.288 1.23662
160.095 939.246 1.25856
155.702 935.504 29.8021
137.233 967.286 -1.92956
132.993 963.361 -30.469
155.716 935.478 -30.4498
160.096 939.245 -1.90762
132.073 962.55 -33.3904
119.961 951.538 -57.4929
142.304 924.099 -57.4817
154.795 934.667 -33.3712
118.247 950.07 -59.7265
99.8933 934.107 -75.8054
121.754 907.244 -75.8024
140.591 922.631 -59.7153
97.6275 932.241 -77.0186
75.6361 914.08 -82.7057
97.1019 887.713 -82.7049
119.489 905.378 -77.0156
73.1608 912.099 -82.714
50.9775 894.149 -77.1213
72.1048 868.216 -77.123
94.6266 885.732 -82.7132
48.6768 892.33 -75.919
29.7813 877.158 -59.84
50.6404 851.58 -59.8326
69.8041 866.396 -75.9207
28.0126 875.766 -57.6016
15.3308 865.611 -33.3978
36.0167 840.274 -33.3814
48.8718 850.187 -57.5942
14.3708 864.857 -30.4628
9.91493 861.311 -1.87633
30.5421 836.06 -1.8565
35.0567 839.52 -30.4464
32.8011 833.228 1.32387
37.3104 836.74 29.8914
57.353 810.96 29.9134
52.7801 807.543 1.34333
38.2818 837.478 32.8231
51.105 847.407 56.9838
71.3299 821.361 57.0157
58.3243 811.698 32.8452
52.8969 848.766 59.2203
72.0537 863.595 75.3041
92.5616 837.157 75.3489
73.1218 822.72 59.2521
74.3886 865.37 76.5063
96.911 882.887 82.0899
117.773 855.976 82.1384
94.8965 838.931 76.5511
99.4276 884.814 82.0805
121.821 902.469 76.3842
143.077 875.038 76.4253
120.29 857.903 82.1289
124.134 904.273 75.1701
142.982 919.639 59.0769
164.665 891.661 59.1099
145.39 876.843 75.2112
144.742 921.05 56.842
157.246 931.593 32.7274
179.263 903.191 32.7516
166.425 893.071 56.8749
158.195 932.369 29.8048
162.588 936.11 1.26126
184.726 907.556 1.28222
180.211 903.967 29.829
162.588 936.109 -1.90557
158.208 932.342 -30.4478
180.223 903.942 -30.4302
184.726 907.555 -1.88461
157.261 931.564 -33.3701
144.77 920.996 -57.4806
166.451 893.019 -57.4723
179.276 903.164 -33.3525
143.011 919.583 -59.715
124.175 904.196 -75.8022
145.428 876.768 -75.8026
164.692 891.606 -59.7067
121.862 902.39 -77.0157
99.4755 884.725 -82.705
120.335 857.816 -82.7134
143.116 874.961 -77.0161
96.9593 882.797 -82.7137
74.4374 865.281 -77.1235
94.9421 838.845 -77.1291
117.818 855.888 -82.7221
72.1021 863.508 -75.9208
52.9384 848.691 -59.8327
73.1603 822.647 -59.8258
92.6067 837.072 -75.9263
51.1444 847.334 -57.5931
38.2893 837.42 -33.3803
58.3297 811.641 -33.3635
71.3663 821.29 -57.5862
37.316 836.686 -30.4445
32.8013 833.225 -1.8546
52.7803 807.54 -1.83513
57.3564 810.907 -30.4277
54.967 804.659 1.34568
59.5399 808.077 29.9158
78.9268 781.854 29.9368
74.288 778.538 1.3647
60.5253 808.794 32.8483
73.5309 818.457 57.0188
93.107 791.95 57.0484
79.9122 782.571 32.8693
75.3493 819.778 59.2564
94.7891 834.215 75.3532
114.658 807.288 75.395
94.9254 793.272 59.286
97.16 835.94 76.5562
120.036 852.984 82.1435
140.268 825.553 82.1899
117.029 809.013 76.598
122.595 854.854 82.1337
145.382 871.99 76.4301
166.002 844.019 76.4682
142.826 827.423 82.1801
147.739 873.734 75.2154
167.014 888.553 59.1141
188.025 860.053 59.1448
168.36 845.764 75.2535
168.815 889.91 56.8784
181.652 900.031 32.755
202.96 871.129 32.7783
189.825 861.411 56.909
182.625 900.775 29.8316
187.139 904.364 1.28483
208.556 875.315 1.30496
203.933 871.873 29.8548
187.14 904.363 -1.88266
182.636 900.75 -30.4282
203.943 871.85 -30.4113
208.557 875.314 -1.86253
181.665 900.003 -33.3514
168.84 889.859 -57.4712
189.848 861.361 -57.4622
202.971 871.103 -33.3345
167.041 888.498 -59.7065
147.777 873.66 -75.8024
168.395 845.691 -75.8012
188.049 860.001 -59.6975
145.42 871.913 -77.0165
122.639 854.767 -82.7138
142.867 827.339 -82.7215
166.039 843.945 -77.0153
120.082 852.897 -82.7229
97.2052 835.854 -77.1299
117.071 808.929 -77.1335
140.31 825.468 -82.7306
94.8339 834.13 -75.9264
75.3874 819.705 -59.8258
94.9609 793.201 -59.8178
114.7 807.205 -75.93
73.567 818.386 -57.5851
60.5304 808.737 -33.3624
79.9155 782.516 -33.3455
93.1405 791.881 -57.577
59.5432 808.023 -30.4257
54.9671 804.656 -1.83321
74.2882 778.535 -1.81419
78.9283 781.802 -30.4089
76.4017 775.605 1.36695
81.0405 778.922 29.9391
99.7659 752.263 29.9592
95.0597 749.052 1.38545
82.0403 779.617 32.8722
95.2351 788.996 57.0513
114.154 762.04 57.0784
100.766 752.958 32.8923
97.0807 790.277 59.29
116.813 804.294 75.3989
136.029 776.894 75.436
115.999 763.321 59.3171
119.221 805.966 76.6027
142.459 822.506 82.1945
162.039 794.577 82.2353
138.436 778.566 76.6397
145.059 824.317 82.1845
168.236 840.913 76.4726
188.198 812.428 76.5067
164.639 796.388 82.2253
170.635 842.598 75.2573
190.3 856.887 59.1485
210.624 827.883 59.1756
190.598 814.113 75.2914
192.137 858.194 56.9122
205.272 867.912 32.7814
225.866 838.522 32.8032
212.461 829.189 56.9393
206.266 868.627 29.8573
210.89 872.069 1.30744
231.583 842.538 1.32679
226.86 839.237 29.8791
210.89 872.067 -1.86063
206.277 868.603 -30.4094
226.87 839.215 -30.3927
231.584 842.537 -1.84127
205.283 867.886 -33.3333
192.16 858.144 -57.461
212.482 829.141 -57.4499
225.876 838.497 -33.3166
190.324 856.835 -59.6969
170.67 842.526 -75.8007
190.63 814.043 -75.797
210.646 827.832 -59.6858
168.272 840.839 -77.0155
145.101 824.233 -82.7216
164.677 796.306 -82.725
188.232 812.356 -77.0118
142.501 822.422 -82.7311
119.262 805.883 -77.134
138.475 778.485 -77.1341
162.078 794.495 -82.7345
116.855 804.212 -75.9298
97.1158 790.207 -59.8175
116.032 763.252 -59.8081
136.067 776.814 -75.9299
95.2683 788.928 -57.5758
82.0433 779.562 -33.3443
100.767 752.904 -33.3276
114.185 761.972 -57.5663
81.0418 778.87 -30.407
76.4017 775.603 -1.81228
95.0597 749.049 -1.79378
99.7655 752.212 -30.3903
97.0995 746.072 1.3876
101.806 749.283 29.9614
119.864 722.196 29.9806
115.09 719.095 1.40553
102.82 749.956 32.895
116.208 759.037 57.081
134.461 731.641 57.1056
120.878 722.869 32.9142
118.081 760.276 59.3205
138.111 773.849 75.4394
156.66 745.991 75.4718
136.333 732.88 59.3451
140.555 775.466 76.6438
164.157 791.477 82.2394
183.068 763.069 82.2747
159.105 747.608 76.6761
166.798 793.227 82.2292
190.358 809.267 76.5106
209.639 780.295 76.5408
185.708 764.819 82.2645
192.797 810.892 75.2947
212.824 824.662 59.1789
232.446 795.171 59.2032
212.079 781.92 75.3249
214.695 825.918 56.9421
228.099 835.251 32.8061
247.971 805.386 32.8266
234.317 796.428 56.9664
229.114 835.937 29.8814
233.836 839.238 1.32914
253.799 809.237 1.34775
248.985 806.072 29.902
233.837 839.237 -1.8394
229.123 835.915 -30.3908
248.994 806.051 -30.3742
253.799 809.236 -1.82079
228.11 835.227 -33.3152
214.715 825.871 -57.4485
234.336 796.382 -57.436
247.981 805.363 -33.2987
212.846 824.611 -59.6849
192.83 810.822 -75.7962
212.109 781.852 -75.7899
232.467 795.123 -59.6724
190.391 809.195 -77.0116
166.836 793.145 -82.7248
185.744 764.74 -82.724
209.67 780.225 -77.0053
164.196 791.395 -82.7345
140.594 775.385 -77.1341
159.14 747.53 -77.1308
183.103 762.99 -82.7337
138.149 773.769 -75.9294
118.114 760.208 -59.8075
136.364 732.813 -59.7968
156.696 745.913 -75.926
116.239 758.97 -57.5649
102.821 749.901 -33.3263
120.878 722.816 -33.3098
134.489 731.576 -57.5542
101.805 749.232 -30.3884
97.0994 746.069 -1.7919
115.089 719.092 -1.77397
119.862 722.146 -30.3719
117.055 716.068 1.40759
121.829 719.17 29.9826
139.214 691.667 30.0008
134.372 688.679 1.42489
122.858 719.819 32.9166
136.44 728.591 57.108
154.019 700.768 57.1301
140.243 692.316 32.9347
138.341 729.786 59.3482
158.668 742.897 75.4748
176.54 714.597 75.5031
155.919 701.963 59.3703
161.148 744.457 76.6797
185.111 759.918 82.2782
203.337 731.052 82.3091
179.02 716.157 76.7079
187.792 761.605 82.2679
211.723 777.081 76.5442
230.309 747.637 76.5709
206.018 732.739 82.2987
214.201 778.645 75.3278
234.569 791.897 59.2061
253.478 761.937 59.2286
232.788 749.201 75.3545
236.471 793.105 56.9689
250.125 802.063 32.8292
269.265 771.736 32.8488
255.381 763.145 56.9914
251.158 802.721 29.9042
255.971 805.886 1.34997
275.194 775.427 1.36785
270.297 772.394 29.9238
255.971 805.885 -1.81895
251.166 802.7 -30.3724
270.305 772.374 -30.3563
275.194 775.426 -1.80107
250.134 802.039 -33.2972
236.49 793.059 -57.4345
255.398 763.101 -57.4217
269.273 771.714 -33.2811
234.589 791.849 -59.6714
214.231 778.578 -75.7889
232.815 749.136 -75.7805
253.496 761.891 -59.6585
211.753 777.011 -77.0048
187.827 761.527 -82.7235
206.05 732.662 -82.7197
230.337 747.57 -76.9964
185.147 759.839 -82.7333
161.184 744.379 -77.1304
179.053 716.081 -77.1243
203.37 730.975 -82.7295
158.703 742.82 -75.9252
138.371 729.72 -59.7959
155.947 701.899 -59.784
176.572 714.522 -75.9191
136.469 728.526 -57.5527
122.857 719.766 -33.3083
140.241 692.264 -33.2921
154.045 700.704 -57.5408
121.827 719.12 -30.3701
117.055 716.066 -1.77212
134.372 688.676 -1.75482
139.21 691.618 -30.3538
136.262 685.607 1.42685
141.104 688.595 30.0027
157.809 660.688 30.02
152.9 657.816 1.44351
142.148 689.219 32.937
155.923 697.672 57.1324
172.819 669.436 57.1526
158.853 661.313 32.9543
157.85 698.822 59.373
178.471 711.456 75.5058
195.655 682.729 75.5305
174.746 670.587 59.3932
180.987 712.956 76.711
205.304 727.852 82.3122
222.832 698.545 82.3389
198.171 684.23 76.7357
208.024 729.474 82.3017
232.316 744.372 76.5739
250.192 714.477 76.5975
225.552 700.168 82.3284
234.831 745.876 75.3571
255.521 758.612 59.2313
273.705 728.2 59.2518
252.708 715.98 75.3808
257.454 759.77 56.9938
271.338 768.362 32.8511
289.736 737.588 32.8695
275.637 729.358 57.0144
272.387 768.992 29.9259
277.283 772.025 1.36994
295.759 741.122 1.38708
290.785 738.219 29.9442
277.284 772.024 -1.79928
272.394 768.972 -30.3545
290.792 738.2 -30.3387
295.759 741.121 -1.78213
271.346 768.339 -33.2796
257.471 759.726 -57.4202
275.653 729.316 -57.4068
289.743 737.567 -33.2638
255.539 758.565 -59.6573
234.858 745.81 -75.7793
252.732 715.918 -75.7693
273.721 728.155 -59.6439
232.343 744.306 -76.9956
208.056 729.398 -82.7188
225.581 700.094 -82.7122
250.218 714.413 -76.9856
205.337 727.775 -82.7288
181.02 712.881 -77.1237
198.201 684.157 -77.1153
222.862 698.471 -82.7222
178.504 711.381 -75.9181
157.878 698.757 -59.783
174.771 670.524 -59.7705
195.685 682.657 -75.9098
155.949 697.608 -57.5393
142.145 689.168 -33.2906
158.849 661.262 -33.2748
172.842 669.375 -57.5268
141.1 688.546 -30.352
136.262 685.604 -1.75301
152.9 657.813 -1.73635
157.804 660.641 -30.3362
154.714 654.7 1.44537
159.624 657.572 30.0219
175.642 629.275 30.0383
170.667 626.522 1.46134
160.681 658.172 32.9563
174.647 666.295 57.1546
190.852 637.662 57.173
176.7 629.875 32.9727
176.601 667.4 59.3956
197.51 679.542 75.5329
213.994 650.407 75.5544
192.805 638.767 59.4139
200.06 680.983 76.7383
224.721 695.298 82.3415
241.539 665.57 82.3644
216.545 651.848 76.7598
227.479 696.855 82.331
252.12 711.164 76.6001
269.273 680.838 76.6211
244.297 667.127 82.3539
254.67 712.606 75.3831
275.667 724.825 59.2542
293.113 693.979 59.2729
271.824 682.28 75.4041
277.628 725.935 57.0165
291.727 734.165 32.8717
309.374 702.961 32.889
295.073 695.089 57.0352
292.792 734.769 29.9462
297.765 737.672 1.38906
315.485 706.34 1.4055
310.439 703.565 29.9635
297.766 737.671 -1.78038
292.798 734.75 -30.3369
310.445 703.547 -30.3214
315.485 706.339 -1.76394
291.734 734.144 -33.2623
277.644 725.893 -57.4052
295.088 695.049 -57.3914
309.381 702.941 -33.2468
275.684 724.781 -59.6426
254.695 712.543 -75.768
271.846 682.22 -75.7567
293.128 693.937 -59.6287
252.145 711.1 -76.9846
227.508 696.782 -82.7111
244.323 667.056 -82.7021
269.296 680.777 -76.9733
224.751 695.224 -82.7212
200.09 680.91 -77.1144
216.572 651.778 -77.1042
241.566 665.499 -82.7122
197.539 679.47 -75.9086
176.626 667.337 -59.7693
192.828 638.706 -59.7563
214.021 650.338 -75.8984
174.671 666.234 -57.5252
160.677 658.121 -33.2732
176.693 629.826 -33.2579
190.873 637.603 -57.5122
159.618 657.525 -30.3345
154.714 654.698 -1.7346
170.667 626.519 -1.71862
175.635 629.229 -30.3192
172.405 623.363 1.46311
177.38 626.117 30.04
192.704 597.444 30.0555
187.665 594.812 1.47838
178.451 626.691 32.9746
192.603 634.479 57.1749
208.107 605.463 57.1915
193.775 598.018 32.9901
194.582 635.536 59.4161
215.771 647.176 75.5565
231.546 617.65 75.5751
210.086 606.52 59.4327
218.355 648.556 76.7621
243.35 662.277 82.3668
259.445 632.147 82.3864
234.13 619.029 76.7808
246.143 663.768 82.3562
271.12 677.479 76.6234
287.538 646.742 76.6419
262.239 633.637 82.3758
273.705 678.859 75.4062
294.994 690.558 59.275
311.69 659.297 59.2921
290.123 648.122 75.4248
296.981 691.619 57.0372
311.281 699.491 32.891
328.168 667.872 32.9072
313.677 660.359 57.0543
312.361 700.068 29.9654
317.407 702.842 1.40736
334.361 671.097 1.42306
329.247 668.449 29.9816
317.407 702.842 -1.76223
312.367 700.049 -30.3197
329.253 668.431 -30.3047
334.362 671.096 -1.74653
311.288 699.47 -33.2452
296.995 691.579 -57.3898
313.69 660.32 -57.3758
328.174 667.853 -33.2302
295.009 690.516 -59.6273
273.727 678.799 -75.7553
290.143 648.064 -75.743
311.703 659.257 -59.6133
271.143 677.418 -76.9721
246.17 663.697 -82.7009
262.263 633.57 -82.69
287.558 646.683 -76.9598
243.376 662.206 -82.711
218.382 648.486 -77.1031
234.155 618.961 -77.0915
259.47 632.079 -82.7001
215.798 647.107 -75.8971
194.605 635.475 -59.755
210.107 606.462 -59.7416
231.57 617.583 -75.8855
192.624 634.419 -57.5107
178.445 626.642 -33.2564
193.767 597.971 -33.2415
208.126 605.406 -57.4974
177.372 626.071 -30.3175
172.404 623.361 -1.71693
187.664 594.809 -1.70166
192.694 597.4 -30.3026
189.325 591.612 1.48006
194.364 594.245 30.0572
208.986 565.211 30.0718
203.886 562.701 1.49462
195.449 594.793 32.9918
209.781 602.238 57.1932
224.577 572.856 57.2083
210.071 565.759 33.0064
211.784 603.247 59.4346
233.244 614.376 75.577
248.3 584.475 75.593
226.58 573.866 59.4496
235.86 615.693 76.7828
261.176 628.811 82.3883
276.539 598.297 82.405
250.916 585.792 76.7988
264.004 630.234 82.3778
289.303 643.339 76.6439
304.974 612.211 76.6602
279.368 599.719 82.3944
291.92 644.655 75.4267
313.487 655.831 59.2939
329.424 624.174 59.3095
307.591 613.527 75.443
315.5 656.843 57.0561
329.991 664.357 32.909
346.107 632.341 32.9242
331.436 625.187 57.0716
331.085 664.907 29.9834
336.198 667.554 1.4248
352.379 635.411 1.43971
347.201 632.891 29.9985
336.199 667.553 -1.74488
331.09 664.889 -30.303
347.206 632.874 -30.2884
352.379 635.41 -1.72996
329.997 664.337 -33.2286
315.513 656.805 -57.3742
331.448 625.15 -57.3602
346.113 632.322 -33.214
313.501 655.791 -59.6119
291.94 644.598 -75.7416
307.61 613.472 -75.7285
329.436 624.136 -59.5978
289.323 643.28 -76.9585
264.028 630.167 -82.6886
279.389 599.655 -82.6762
304.993 612.155 -76.9454
261.2 628.743 -82.6988
235.885 615.626 -77.0902
250.938 585.727 -77.0774
276.561 598.232 -82.6864
233.268 614.31 -75.8841
211.805 603.189 -59.7402
226.599 573.81 -59.7267
248.322 584.411 -75.8714
209.8 602.181 -57.4958
195.44 594.746 -33.24
210.061 565.713 -33.2257
224.594 572.801 -57.4823
194.355 594.201 -30.301
189.324 591.61 -1.70003
203.885 562.699 -1.68546
208.975 565.168 -30.2867
205.468 559.463 1.4962
210.568 561.973 30.0734
224.481 532.593 30.0871
219.322 530.207 1.51004
211.666 562.494 33.008
226.171 569.592 57.2099
240.251 539.86 57.2234
225.579 533.114 33.0217
228.199 570.552 59.4512
249.918 581.162 75.5947
264.246 550.903 75.6083
242.278 540.82 59.4647
252.565 582.415 76.8005
278.188 594.92 82.4067
292.809 564.041 82.4206
266.893 552.157 76.8142
281.05 596.274 82.3961
306.657 608.765 76.6619
321.571 577.265 76.6761
295.671 565.395 82.4101
309.305 610.018 75.4447
331.137 620.665 59.3112
346.303 588.632 59.3253
324.219 578.518 75.4588
333.174 621.628 57.0733
347.845 628.782 32.9259
363.183 596.387 32.9401
348.34 589.594 57.0874
348.952 629.305 30.0002
354.13 631.825 1.44135
369.528 599.301 1.45553
364.29 596.909 30.0144
354.13 631.825 -1.72837
348.957 629.288 -30.2868
364.294 596.893 -30.2727
369.528 599.3 -1.71419
347.851 628.764 -33.2125
333.185 621.592 -57.3587
348.351 589.56 -57.3447
363.188 596.369 -33.1983
331.149 620.627 -59.5963
309.323 609.963 -75.727
324.235 578.466 -75.7133
346.314 588.595 -59.5823
306.675 608.71 -76.944
281.072 596.21 -82.6747
295.69 565.334 -82.661
321.587 577.212 -76.9303
278.21 594.856 -82.6849
252.587 582.351 -77.076
266.913 552.095 -77.0623
292.828 563.98 -82.6712
249.94 581.098 -75.8699
228.217 570.497 -59.7252
242.295 540.767 -59.7116
264.266 550.843 -75.8562
226.188 569.537 -57.4808
211.656 562.449 -33.2242
225.567 533.071 -33.2104
240.266 539.807 -57.4672
210.557 561.93 -30.2851
205.467 559.461 -1.6839
219.321 530.205 -1.67006
224.469 532.552 -30.2713
220.824 526.931 1.51152
225.984 529.317 30.0885
239.181 499.607 30.1013
233.965 497.347 1.52459
227.094 529.812 33.0231
241.766 536.557 57.2248
255.121 506.491 57.2368
240.291 500.102 33.0359
243.816 537.469 59.4661
265.784 547.552 75.6097
279.375 516.954 75.6211
257.171 507.403 59.4781
268.46 548.741 76.8156
294.376 560.625 82.422
308.245 529.4 82.4333
282.052 518.143 76.8269
297.27 561.91 82.4115
323.17 573.78 76.6775
337.317 541.928 76.6897
311.139 530.685 82.4228
325.848 574.968 75.4603
347.932 585.082 59.3267
362.319 552.691 59.3396
339.995 543.116 75.4724
349.991 585.995 57.0889
364.834 592.787 32.9416
379.384 560.029 32.9548
364.379 553.603 57.1017
365.953 593.283 30.0159
371.192 595.674 1.45706
385.8 562.787 1.47051
380.503 560.525 30.0291
371.192 595.674 -1.71265
365.958 593.266 -30.2712
380.508 560.509 -30.2576
385.8 562.786 -1.6992
364.839 592.769 -33.1968
350.002 585.96 -57.3431
364.388 553.57 -57.3293
379.389 560.012 -33.1832
347.943 585.046 -59.5808
325.863 574.916 -75.7118
340.01 543.067 -75.6975
362.329 552.656 -59.567
323.186 573.727 -76.9287
297.289 561.849 -82.6594
311.156 530.628 -82.6447
337.332 541.877 -76.9144
294.395 560.564 -82.6696
268.48 548.68 -77.0607
282.069 518.085 -77.0462
308.263 529.342 -82.6548
265.803 547.491 -75.8547
243.832 537.416 -59.7101
257.185 507.352 -59.6965
279.392 516.897 -75.8402
241.781 536.505 -57.4657
227.082 529.768 -33.2089
240.277 500.06 -33.1957
255.134 506.441 -57.452
225.971 529.276 -30.2698
220.824 526.929 -1.66857
233.964 497.345 -1.6555
239.166 499.568 -30.2566
235.388 494.035 1.52597
240.604 496.295 30.1027
253.077 466.27 30.1144
247.807 464.137 1.53822
241.725 496.763 33.0372
256.556 503.152 57.2381
269.179 472.769 57.2485
254.199 466.738 33.0489
258.627 504.015 59.4793
280.831 513.566 75.6223
293.678 482.647 75.6312
271.25 473.631 59.4897
283.536 514.69 76.828
309.729 525.947 82.4344
322.839 494.396 82.4431
296.383 483.771 76.837
312.653 527.162 82.424
338.831 538.405 76.6908
352.204 506.22 76.7008
325.763 495.611 82.4327
341.537 539.528 75.4737
363.861 549.103 59.3409
377.462 516.372 59.3524
354.91 507.343 75.4837
365.943 549.965 57.1031
380.948 556.391 32.9562
394.703 523.289 32.9685
379.543 517.234 57.1146
382.079 556.858 30.0306
387.375 559.121 1.47194
401.185 525.887 1.48469
395.834 523.756 30.0429
387.376 559.12 -1.69772
382.084 556.843 -30.2561
395.838 523.742 -30.243
401.185 525.886 -1.68496
380.953 556.374 -33.1817
365.952 549.932 -57.3278
379.551 517.203 -57.3141
394.707 523.273 -33.1686
363.871 549.068 -59.5654
341.551 539.479 -75.6959
354.923 507.297 -75.6811
377.47 516.34 -59.5517
338.846 538.355 -76.9128
312.67 527.105 -82.643
325.778 495.557 -82.6271
352.217 506.173 -76.8979
309.746 525.89 -82.6532
283.553 514.633 -77.0445
296.398 483.717 -77.0292
322.854 494.342 -82.6372
280.848 513.509 -75.8386
258.641 503.964 -59.6949
271.263 473.584 -59.6812
293.693 482.593 -75.8232
256.569 503.103 -57.4505
241.712 496.722 -33.1942
254.183 466.699 -33.1816
269.19 472.722 -57.4369
240.589 496.256 -30.2552
235.387 494.033 -1.65407
247.806 464.135 -1.64183
253.061 466.233 -30.2427
249.15 460.791 1.53949
254.419 462.925 30.1157
266.162 432.601 30.1265
260.842 430.595 1.55091
255.552 463.365 33.0501
270.533 469.397 57.2497
282.418 438.713 57.2584
267.295 433.042 33.0608
272.624 470.209 59.4907
295.052 479.224 75.6322
307.147 448.002 75.6385
284.509 439.525 59.4994
297.783 480.283 76.8378
324.239 490.908 82.4439
336.581 459.05 82.4496
309.878 449.062 76.8442
327.192 492.053 82.4336
353.633 502.661 76.7017
366.223 470.164 76.7094
339.534 460.194 82.4392
356.365 503.719 75.4848
378.916 512.748 59.3534
391.722 479.699 59.3633
368.955 471.221 75.4925
381.018 513.559 57.1158
396.178 519.613 32.9697
409.13 486.186 32.9809
393.823 480.51 57.1257
397.321 520.053 30.0442
402.672 522.183 1.48601
415.676 488.621 1.49785
410.273 486.625 30.0554
402.672 522.183 -1.68355
397.325 520.038 -30.2416
410.277 486.612 -30.2292
415.676 488.62 -1.67171
396.182 519.597 -33.1671
381.026 513.528 -57.3126
393.831 480.481 -57.2991
409.134 486.17 -33.1547
378.925 512.716 -59.5501
356.377 503.673 -75.6795
368.966 471.179 -75.6639
391.729 479.668 -59.5366
353.645 502.615 -76.8961
327.206 491.999 -82.6253
339.547 460.144 -82.608
366.234 470.12 -76.8806
324.254 490.854 -82.6354
297.798 480.23 -77.0274
309.891 449.011 -77.011
336.594 459 -82.6182
295.067 479.171 -75.8216
272.637 470.161 -59.6796
284.52 439.481 -59.6659
307.16 447.952 -75.8053
270.544 469.35 -57.4355
255.537 463.326 -33.1802
267.278 433.005 -33.1683
282.427 438.669 -57.4218
254.404 462.888 -30.2413
249.149 460.79 -1.64048
260.841 430.593 -1.62906
266.145 432.566 -30.2294
262.103 427.217 1.55207
267.423 429.223 30.1276
278.429 398.615 30.1373
273.061 396.737 1.56264
268.566 429.636 33.0618
283.689 435.308 57.2594
294.829 404.341 57.2662
279.572 399.029 33.0715
285.8 436.07 59.5001
308.438 444.547 75.6392
319.774 413.041 75.6425
296.939 405.103 59.507
311.193 445.541 76.8446
337.896 455.53 82.4501
349.463 423.385 82.4523
322.529 414.035 76.848
340.875 456.603 82.4398
367.564 466.573 76.71
379.364 433.785 76.715
352.442 424.458 82.442
370.322 467.563 75.4933
393.088 476.041 59.3642
405.091 442.693 59.3724
382.121 434.775 75.4984
395.21 476.8 57.1268
410.517 482.476 32.9819
422.659 448.741 32.9919
407.212 443.452 57.1349
411.67 482.887 30.0566
417.073 484.882 1.49904
429.266 451.009 1.51003
423.813 449.151 30.0665
417.073 484.882 -1.67036
411.674 482.873 -30.2278
423.816 449.138 -30.2159
429.266 451.008 -1.65937
410.521 482.461 -33.1532
395.217 476.771 -57.2976
407.219 443.425 -57.284
422.663 448.726 -33.1412
393.096 476.011 -59.5349
370.333 467.521 -75.6622
382.131 434.736 -75.6457
405.098 442.664 -59.5213
367.575 466.529 -76.8787
340.888 456.553 -82.6062
352.454 424.412 -82.5871
379.374 433.744 -76.8622
337.909 455.48 -82.6162
311.206 445.491 -77.0091
322.541 413.988 -76.9914
349.475 423.339 -82.5971
308.451 444.497 -75.8035
285.81 436.026 -59.6642
296.948 405.062 -59.6503
319.785 412.994 -75.7859
283.698 435.264 -57.4203
268.55 429.6 -33.1668
279.554 398.995 -33.1556
294.837 404.3 -57.4065
267.406 429.188 -30.2282
262.102 427.215 -1.62779
273.06 396.735 -1.61722
278.411 398.583 -30.2169
274.24 393.328 1.5637
279.608 395.207 30.1384
289.871 364.331 30.147
284.457 362.579 1.57339
280.761 395.593 33.0723
296.018 400.905 57.267
306.405 369.671 57.2719
291.024 364.718 33.0809
298.146 401.617 59.5073
320.981 409.555 75.6429
331.552 377.784 75.6428
308.533 370.383 59.5122
323.759 410.484 76.8481
350.693 419.834 82.4524
361.478 387.424 82.4506
334.33 378.712 76.848
353.697 420.836 82.4422
380.618 430.162 76.7152
391.62 397.106 76.7174
364.482 388.426 82.4405
383.399 431.086 75.4989
406.369 439.003 59.3729
417.562 405.377 59.3792
394.401 398.029 75.5011
408.509 439.709 57.1358
423.956 444.998 32.9927
435.283 410.974 33.0016
419.702 406.083 57.1421
425.119 445.379 30.0676
430.572 447.236 1.5111
441.947 413.068 1.5214
436.446 411.355 30.0765
430.573 447.236 -1.65807
425.123 445.366 -30.2146
436.45 411.342 -30.203
441.947 413.068 -1.64777
423.959 444.984 -33.1397
408.515 439.682 -57.2825
419.708 406.058 -57.2686
435.286 410.96 -33.1281
406.375 438.975 -59.5196
383.409 431.046 -75.644
394.41 397.993 -75.6262
417.568 405.351 -59.5057
380.628 430.122 -76.8601
353.708 420.79 -82.585
364.491 388.384 -82.5636
391.629 397.068 -76.8423
350.704 419.788 -82.595
323.77 410.437 -76.9892
334.34 378.67 -76.9698
361.487 387.382 -82.5736
320.992 409.509 -75.784
298.155 401.576 -59.6484
308.541 370.345 -59.6342
331.561 377.741 -75.7646
296.025 400.864 -57.405
280.743 395.559 -33.1541
291.005 364.686 -33.1435
306.412 369.633 -57.3908
279.59 395.174 -30.2157
274.239 393.326 -1.61603
284.456 362.577 -1.60634
289.851 364.301 -30.2051
285.554 359.141 1.57432
290.967 360.893 30.1479
300.481 329.763 30.1554
295.025 328.136 1.58312
292.129 361.253 33.0815
307.511 366.206 57.2725
317.141 334.721 57.275
301.643 330.123 33.089
309.655 366.869 59.5122
332.674 374.269 75.6428
342.473 342.252 75.6387
319.286 335.384 59.5148
335.473 375.133 76.8476
362.621 383.845 82.4503
372.618 351.192 82.4439
345.273 343.115 76.8435
365.648 384.776 82.4403
392.786 393.455 76.7172
402.984 360.153 76.716
375.645 352.123 82.4339
395.59 394.311 75.5013
418.751 401.659 59.3795
429.129 367.777 59.3836
405.787 361.009 75.5001
420.908 402.31 57.1427
436.488 407.201 33.0022
446.994 372.905 33.0098
431.286 368.428 57.1468
437.662 407.551 30.0774
443.163 409.265 1.52234
453.715 374.819 1.53184
448.168 373.255 30.085
443.163 409.264 -1.64651
437.665 407.539 -30.2017
448.171 373.243 -30.1904
453.715 374.818 -1.63702
436.492 407.187 -33.1265
420.914 402.285 -57.267
431.292 368.405 -57.2525
446.998 372.892 -33.1152
418.757 401.633 -59.5038
395.598 394.274 -75.6243
405.795 360.975 -75.6047
429.134 367.752 -59.4892
392.795 393.418 -76.84
365.657 384.733 -82.5613
375.653 352.084 -82.5369
402.992 360.119 -76.8204
362.63 383.803 -82.5711
335.483 375.09 -76.9674
345.281 343.077 -76.9456
372.626 351.153 -82.5468
332.683 374.227 -75.7626
309.663 366.831 -59.6322
319.292 335.35 -59.6174
342.482 342.213 -75.7408
307.517 366.169 -57.3893
292.11 361.221 -33.1421
301.623 330.094 -33.1321
317.146 334.688 -57.3745
290.948 360.863 -30.2039
285.553 359.14 -1.60522
295.024 328.135 -1.59642
300.46 329.736 -30.194
296.038 324.671 1.58393
301.494 326.298 30.1562
310.254 294.926 30.1625
304.758 293.423 1.5918
302.665 326.631 33.0893
318.163 331.229 57.2754
327.031 299.51 57.2753
311.424 295.26 33.0956
320.322 331.843 59.5144
343.51 338.711 75.6384
352.533 306.467 75.6295
329.19 300.123 59.5143
346.329 339.51 76.8426
373.674 347.587 82.443
382.877 314.714 82.431
355.352 307.265 76.8338
376.722 348.446 82.4332
404.062 356.476 76.7153
413.45 322.954 76.71
385.925 315.574 82.4212
406.885 357.263 75.5
430.227 364.031 59.3835
439.784 329.914 59.3848
416.274 323.741 75.4947
432.401 364.627 57.1471
448.109 369.103 33.0102
457.789 334.553 33.0164
441.958 330.51 57.1485
449.292 369.422 30.0858
454.839 370.985 1.53263
464.563 336.276 1.54131
458.971 334.871 30.092
454.839 370.985 -1.6358
449.295 369.41 -30.1892
458.975 334.86 -30.1782
464.564 336.275 -1.62712
448.112 369.09 -33.1136
432.406 364.604 -57.2508
441.964 330.488 -57.2352
457.792 334.54 -33.1026
430.232 364.007 -59.4871
406.893 357.23 -75.6026
416.281 323.711 -75.5807
439.789 329.892 -59.4715
404.069 356.443 -76.8178
376.731 348.408 -82.5343
385.933 315.539 -82.5061
413.457 322.924 -76.7959
373.682 347.548 -82.544
346.337 339.472 -76.9429
355.36 307.231 -76.9182
382.884 314.68 -82.5158
343.518 338.673 -75.7386
320.329 331.809 -59.6152
329.196 300.093 -59.5995
352.541 306.433 -75.7139
318.168 331.196 -57.3731
302.644 326.602 -33.1306
311.403 295.234 -33.1212
327.034 299.48 -57.3574
301.473 326.271 -30.1929
296.037 324.67 -1.59538
304.757 293.422 -1.58751
310.232 294.902 -30.1835
305.687 289.932 1.59247
311.183 291.435 30.1632
319.183 259.835 30.1681
313.651 258.452 1.59938
312.361 291.742 33.0957
327.967 295.992 57.2754
336.068 264.052 57.2724
320.362 260.142 33.1007
330.141 296.558 59.5134
353.484 302.901 75.6287
361.726 270.45 75.6145
338.242 264.618 59.5104
356.321 303.636 76.8323
383.845 311.085 82.4294
392.25 278.018 82.4111
364.563 271.185 76.8181
386.913 311.874 82.42
414.438 319.255 76.7088
423.012 285.54 76.6988
395.318 278.807 82.4016
417.281 319.972 75.4942
440.791 326.145 59.3843
449.523 291.815 59.3824
425.854 286.257 75.4843
442.981 326.682 57.1485
458.811 330.725 33.0165
467.661 295.936 33.0212
451.713 292.352 57.1466
460.003 331.01 30.0927
465.595 332.414 1.54196
474.488 297.456 1.54981
468.853 296.22 30.0975
465.595 332.414 -1.62594
460.007 330.999 -30.177
468.856 296.21 -30.1663
474.488 297.455 -1.61809
458.815 330.713 -33.1008
442.986 326.661 -57.2335
451.719 292.333 -57.2163
467.665 295.924 -33.0901
440.797 326.123 -59.4692
417.288 319.942 -75.5784
425.861 286.23 -75.5536
449.529 291.796 -59.4521
414.445 319.224 -76.7929
386.921 311.84 -82.5031
395.325 278.776 -82.4704
423.018 285.512 -76.7681
383.853 311.051 -82.5125
356.328 303.603 -76.9149
364.57 271.156 -76.8867
392.257 277.987 -82.4798
353.491 302.868 -75.7114
330.146 296.528 -59.597
338.247 264.592 -59.5802
361.733 270.421 -75.6832
327.971 295.963 -57.3559
312.339 291.717 -33.1197
320.339 260.12 -33.1109
336.071 264.027 -57.3391
311.161 291.411 -30.1826
305.686 289.931 -1.58654
313.65 258.451 -1.57964
319.161 259.814 -30.1738
314.495 254.936 1.59991
320.028 256.318 30.1687
327.266 224.499 30.1722
321.699 223.233 1.6058
321.213 256.6 33.1005
336.92 260.51 57.2722
344.25 228.365 57.2659
328.451 224.782 33.104
339.106 261.029 59.509
362.591 266.861 75.6131
370.049 234.223 75.5931
346.436 228.884 59.5028
365.444 267.535 76.8159
393.13 274.368 82.4088
400.732 241.133 82.3835
372.901 234.897 76.7959
396.216 275.087 82.3997
423.91 281.82 76.6969
431.664 247.943 76.6814
403.817 241.852 82.3744
426.77 282.467 75.4832
450.439 288.025 59.3813
458.342 253.505 59.3756
434.524 248.589 75.4677
452.644 288.501 57.1463
468.592 292.084 33.0209
476.607 257.07 33.0243
460.547 253.98 57.1406
469.792 292.332 30.098
475.427 293.568 1.55031
483.484 258.373 1.55738
477.808 257.318 30.1013
475.428 293.568 -1.61694
469.796 292.322 -30.1651
477.811 257.309 -30.1545
483.484 258.372 -1.60988
468.596 292.073 -33.0881
452.649 288.482 -57.2144
460.552 253.963 -57.1951
476.611 257.06 -33.0776
450.445 288.006 -59.4494
426.777 282.44 -75.551
434.532 248.566 -75.5224
458.348 253.487 -59.4301
423.916 281.793 -76.7647
396.223 275.057 -82.4669
403.825 241.825 -82.429
431.671 247.918 -76.7361
393.138 274.338 -82.4761
365.45 267.506 -76.883
372.908 234.872 -76.8508
400.739 241.106 -82.4382
362.598 266.833 -75.6804
339.111 261.004 -59.5774
346.441 228.863 -59.5593
370.055 234.199 -75.6482
336.923 260.486 -57.3375
321.191 256.579 -33.1093
328.428 224.764 -33.101
344.253 228.344 -57.3193
320.005 256.298 -30.1729
314.494 254.935 -1.57874
321.697 223.232 -1.57285
327.242 224.483 -30.1646
322.459 219.692 1.60616
328.025 220.959 30.1726
334.499 188.929 30.1742
328.9 187.775 1.61102
329.218 221.217 33.1035
345.016 224.8 57.2654
351.574 192.46 57.2555
335.691 189.188 33.1051
347.214 225.274 59.5008
370.826 230.614 75.5912
377.497 197.809 75.5654
353.771 192.935 59.4909
373.693 231.229 76.7929
401.524 237.464 82.3806
408.32 204.09 82.3486
380.364 198.424 76.7671
404.625 238.116 82.3718
432.472 244.207 76.6788
439.402 210.201 76.6558
411.421 204.742 82.3398
435.349 244.781 75.4659
459.166 249.696 59.3738
466.235 215.005 59.3634
442.279 210.776 75.4428
461.385 250.106 57.1399
477.445 253.196 33.0236
484.621 217.97 33.0253
468.454 215.415 57.1295
478.654 253.406 30.1017
484.33 254.46 1.55774
491.544 219.039 1.56395
485.829 218.179 30.1035
484.33 254.46 -1.60877
478.658 253.396 -30.1534
485.834 218.171 -30.143
491.544 219.039 -1.60255
477.45 253.186 -33.0754
461.391 250.09 -57.193
468.46 215.401 -57.1709
484.626 217.961 -33.065
459.172 249.679 -59.427
435.356 244.758 -75.5192
442.287 210.755 -75.4851
466.242 214.99 -59.4049
432.479 244.183 -76.7322
404.633 238.09 -82.4251
411.43 204.719 -82.3825
439.41 210.18 -76.698
401.532 237.438 -82.434
373.7 231.205 -76.8466
380.371 198.404 -76.8104
408.329 204.067 -82.3914
370.833 230.59 -75.645
347.219 225.254 -59.5561
353.777 192.92 -59.536
377.504 197.79 -75.6088
345.019 224.78 -57.3176
329.195 221.2 -33.0993
335.668 189.175 -33.091
351.577 192.446 -57.2975
328.002 220.942 -30.1637
322.457 219.692 -1.57201
328.899 187.774 -1.56715
334.476 188.918 -30.1555
329.576 184.211 1.61114
335.175 185.365 30.1743
340.893 153.134 30.1714
335.268 152.084 1.61502
336.372 185.601 33.1041
352.255 188.874 57.2544
358.044 156.353 57.2375
342.091 153.369 33.1012
354.463 189.307 59.4882
378.188 194.181 75.5627
384.071 161.231 75.529
360.252 156.786 59.4713
381.067 194.74 76.7634
409.023 200.406 82.3449
415.01 166.926 82.306
386.95 161.79 76.7297
412.138 200.993 82.3362
440.119 206.452 76.6522
446.216 172.358 76.6159
418.124 167.513 82.2973
443.011 206.953 75.44
466.966 211.182 59.3606
473.189 176.337 59.3434
449.108 172.858 75.4037
469.198 211.521 57.1283
485.365 214.075 33.0241
491.681 178.645 33.0225
475.421 176.676 57.1111
486.58 214.243 30.1036
492.295 215.102 1.56411
498.642 179.463 1.56917
492.897 178.812 30.1021
492.295 215.102 -1.60147
486.585 214.235 -30.1419
492.903 178.807 -30.1306
498.643 179.462 -1.59641
485.37 214.067 -33.0626
469.205 211.507 -57.1685
475.429 176.664 -57.1421
491.688 178.639 -33.0512
466.973 211.167 -59.4009
443.019 206.932 -75.4811
449.119 172.84 -75.4359
473.198 176.325 -59.3745
440.127 206.431 -76.6934
412.147 200.97 -82.3778
418.135 167.494 -82.3302
446.226 172.339 -76.6482
409.032 200.384 -82.3866
381.075 194.721 -76.8056
386.96 161.776 -76.7631
415.02 166.908 -82.3389
378.196 194.162 -75.605
354.468 189.293 -59.5323
360.259 156.779 -59.5067
384.081 161.217 -75.5626
352.259 188.86 -57.2955
336.35 185.589 -33.0889
342.069 153.364 -33.0778
358.05 156.346 -57.2699
335.151 185.354 -30.1546
329.575 184.21 -1.56626
335.267 152.084 -1.56238
340.871 153.129 -30.1435
335.864 148.499 1.61431
341.489 149.548 30.1707
346.516 117.13 30.1451
340.879 116.18 1.61732
342.69 149.762 33.0981
358.644 152.746 57.2345
363.707 120.064 57.1818
347.718 117.344 33.0725
360.858 153.142 59.466
384.677 157.586 75.5237
389.789 124.518 75.4501
365.921 120.459 59.4133
387.564 158.095 76.7234
415.624 163.231 82.2997
420.79 129.686 82.2244
392.676 125.027 76.6498
418.748 163.756 82.291
446.84 168.601 76.6096
452.067 134.456 76.5305
423.914 130.211 82.2157
449.744 169.023 75.3983
473.825 172.502 59.338
479.144 137.508 59.2983
454.971 134.878 75.3192
476.066 172.762 57.1085
492.327 174.732 33.0199
497.695 139.096 33.0027
481.384 137.768 57.0688
493.547 174.852 30.1016
499.293 175.503 1.56871
504.672 139.64 1.57178
498.916 139.217 30.0843
499.293 175.502 -1.59505
493.553 174.847 -30.1292
498.924 139.214 -30.1059
504.672 139.64 -1.59199
492.333 174.725 -33.0478
476.075 172.751 -57.1386
481.397 137.76 -57.0929
497.704 139.092 -33.0244
473.835 172.49 -59.3682
449.755 169.005 -75.4296
454.986 134.862 -75.3435
479.157 137.499 -59.3225
446.851 168.582 -76.641
418.759 163.737 -82.3229
423.929 130.195 -82.2399
452.082 134.439 -76.5549
415.635 163.213 -82.3317
387.575 158.081 -76.7559
392.69 125.017 -76.6744
420.805 129.671 -82.2487
384.688 157.573 -75.5564
360.866 153.135 -59.5005
365.933 120.46 -59.4393
389.803 124.509 -75.4749
358.65 152.74 -57.2659
342.669 149.758 -33.0739
347.7 117.349 -33.0411
363.717 120.066 -57.2047
341.467 149.544 -30.1419
335.863 148.499 -1.56083
340.878 116.18 -1.55783
346.498 117.135 -30.1092
341.422 112.58 1.61172
347.059 113.53 30.1395
351.793 81.0078 29.9634
346.196 80.1549 1.61302
348.258 113.725 33.0564
364.247 116.444 57.1657
368.881 83.6725 56.8534
352.992 81.2024 32.8803
366.457 116.804 59.3899
390.324 120.864 75.4267
394.817 87.7397 75.0369
371.09 84.0329 59.0777
393.205 121.327 76.6232
421.319 125.986 82.1978
425.65 92.4453 81.7864
397.698 88.2032 76.2334
424.439 126.452 82.1903
452.592 130.697 76.5051
456.782 96.514 76.1576
428.77 92.911 81.7789
455.494 131.034 75.2995
479.667 133.663 59.2786
483.735 98.4783 59.0659
459.684 96.8504 74.952
481.904 133.834 57.0573
498.215 135.161 32.9911
502.157 99.271 32.861
485.972 98.6488 56.8446
499.431 135.232 30.0799
505.188 135.655 1.56738
509.077 99.5198 1.55841
503.374 99.3412 29.9498
505.188 135.655 -1.58796
499.44 135.229 -30.1018
503.379 99.3413 -29.98
509.077 99.5198 -1.59693
498.224 135.159 -33.0124
481.917 133.826 -57.0808
485.995 98.6447 -56.8528
502.163 99.2711 -32.8905
479.681 133.655 -59.3016
455.51 131.018 -75.3226
459.709 96.8367 -74.9611
483.759 98.4731 -59.0736
452.608 130.681 -76.5284
424.455 126.437 -82.2135
428.794 92.8994 -81.7913
456.807 96.5001 -76.1669
421.335 125.971 -82.2211
393.22 121.318 -76.6469
397.72 88.1995 -76.2486
425.674 92.4341 -81.799
390.339 120.856 -75.4505
366.469 116.807 -59.4149
371.111 84.0458 -59.0919
394.84 87.7371 -75.0522
364.258 116.447 -57.1877
348.241 113.731 -33.0242
352.983 81.2205 -32.8421
368.9 83.6863 -56.8647
347.041 113.536 -30.1029
341.421 112.581 -1.55159
346.195 80.1555 -1.55028
351.783 81.0254 -29.9209
346.861 76.5941 1.57243
352.458 77.447 29.9228
359.615 45.4922 28.6449
354.284 44.7218 1.57085
353.624 77.6231 32.7665
369.513 80.0932 56.7396
375.917 47.906 54.411
360.781 45.6683 31.4886
371.664 80.4201 58.9115
395.392 84.1269 74.8707
400.698 51.5728 71.8927
378.069 48.2329 56.5829
398.199 84.5467 76.0423
426.151 88.7888 81.5953
430.205 55.8051 78.443
403.505 51.9926 73.0643
429.189 89.2059 81.5939
457.201 92.8089 75.9726
460.009 59.5937 73.1125
433.243 56.2222 78.4416
460.019 93.1027 74.8051
484.069 94.7306 58.919
485.616 61.8577 56.6332
462.827 59.8875 71.945
486.246 94.8731 56.7474
502.432 95.4953 32.7638
503.048 62.9157 31.4577
487.793 62.0002 54.4616
503.615 95.5506 29.914
509.318 95.7292 1.52265
509.58 63.2319 1.51108
504.231 62.9709 28.6078
509.318 95.7287 -1.56319
503.619 95.5501 -29.9462
504.225 62.9465 -28.6512
509.58 63.2314 -1.57475
502.437 95.4945 -32.793
486.27 94.8681 -56.7554
487.819 61.9768 -54.455
503.043 62.8908 -31.498
484.094 94.7252 -58.9251
460.044 93.0888 -74.8126
462.856 59.8752 -71.9416
485.643 61.8339 -56.6247
457.227 92.7952 -75.9807
429.214 89.1946 -81.6051
433.273 56.215 -78.4452
460.038 59.5816 -73.1097
426.176 88.7781 -81.607
398.222 84.5435 -76.0566
403.532 51.9951 -73.0741
430.234 55.7986 -78.4471
395.415 84.1252 -74.8854
371.686 80.4339 -58.9251
378.088 48.2598 -56.5969
400.724 51.5768 -71.9029
369.532 80.1083 -56.7505
353.616 77.6424 -32.7278
360.769 45.6997 -31.4533
375.935 47.9342 -54.4223
352.449 77.4653 -29.8802
346.861 76.5954 -1.5096
354.283 44.723 -1.51118
359.602 45.5225 -28.6057
355.14 41.2105 1.48819
360.471 41.981 28.5623
368.467 10.5351 26.8624
363.459 9.84747 1.48236
361.575 42.1396 31.2547
376.71 44.3772 54.1771
383.788 12.7012 51.0368
369.571 10.6936 29.5548
378.747 44.671 56.2349
401.376 48.011 71.5447
407.076 15.973 67.4234
385.824 12.9949 53.0946
404.034 48.3875 72.6565
430.734 52.2 78.0352
434.789 19.7636 73.5524
409.734 16.3495 68.5352
433.611 52.5815 78.0356
460.377 55.953 72.7065
462.732 23.2726 68.5206
437.665 20.1451 73.5528
463.038 56.2473 71.5966
485.828 58.2175 56.2848
486.681 25.6945 53.0541
465.394 23.567 67.4106
487.872 58.3885 54.2236
503.127 59.304 31.2196
502.925 26.9821 29.46
488.726 25.8655 50.9929
504.234 59.3768 28.5228
509.583 59.6378 1.42601
508.994 27.3745 1.4348
504.032 27.055 26.7632
509.583 59.6358 -1.48976
504.228 59.3509 -28.5662
504.024 27.0077 -26.793
508.993 27.3725 -1.48097
503.122 59.2762 -31.2594
487.898 58.3622 -54.2164
488.743 25.823 -50.9847
502.919 26.933 -29.4862
485.855 58.1928 -56.2756
463.067 56.2341 -71.5925
465.415 23.5542 -67.4073
486.7 25.6536 -53.0439
460.406 55.9411 -72.7032
433.64 52.5745 -78.0387
437.688 20.1404 -73.554
462.754 23.2613 -68.518
430.763 52.1939 -78.0388
404.06 48.3904 -72.6658
409.754 16.3552 -68.5407
434.811 19.7598 -73.5541
401.402 48.0159 -71.5546
378.766 44.6988 -56.2486
385.836 13.0329 -53.1055
407.095 15.9806 -67.4295
376.728 44.4069 -54.1887
361.562 42.1724 -31.2197
369.556 10.7381 -29.528
383.797 12.741 -51.0456
360.457 42.012 -28.5238
355.139 41.2125 -1.42926
363.458 9.84945 -1.43509
368.451 10.5777 -26.832
364.513 6.55366 1.35338
369.522 7.24128 26.7334
380.233 -20.9872 23.7837
375.81 -21.6087 1.33201
370.531 7.38199 29.1919
384.747 9.3895 50.6739
393.841 -19.0873 45.2726
381.242 -20.8465 26.2423
386.611 9.64741 52.5528
407.863 12.6255 66.8816
414.587 -16.2991 59.8222
395.705 -18.8294 47.1515
410.295 12.9558 67.8938
435.35 16.3699 72.911
439.256 -13.0184 65.2263
417.02 -15.9688 60.8345
437.977 16.7152 72.9072
463.044 19.8427 67.875
464.068 -9.74124 60.6979
441.884 -12.6731 65.2225
465.468 20.1391 66.8601
486.756 22.2666 52.5036
485.255 -6.96959 46.963
466.492 -9.44486 59.683
488.615 22.4725 50.627
502.813 23.5892 29.0941
499.628 -5.11421 26.1214
487.115 -6.76365 45.0864
503.821 23.6914 26.6371
508.783 24.0109 1.30876
505.026 -4.43359 1.32965
500.636 -5.01201 23.6644
508.783 24.0094 -1.35143
503.814 23.6446 -26.6635
500.636 -5.01365 -23.6653
505.026 -4.43507 -1.33053
502.807 23.5409 -29.1195
488.631 22.4309 -50.618
487.114 -6.76702 -45.0866
499.628 -5.11736 -26.1214
486.772 22.2265 -52.494
465.488 20.1271 -66.8574
466.493 -9.44674 -59.6828
485.256 -6.97141 -46.9626
463.064 19.8318 -67.8723
437.998 16.7109 -72.9084
441.885 -12.6739 -65.2223
464.069 -9.74212 -60.6977
435.37 16.3661 -72.9124
410.314 12.9615 -67.899
417.021 -15.9691 -60.8345
439.257 -13.0188 -65.2263
407.881 12.6323 -66.8868
386.621 9.68455 -52.5628
395.705 -18.8284 -47.1517
414.588 -16.2983 -59.8223
384.756 9.42826 -50.6832
370.515 7.4254 -29.1656
381.241 -20.8437 -26.2418
393.84 -19.0847 -45.2721
369.506 7.2833 -26.7061
364.513 6.55503 -1.30918
375.81 -21.6074 -1.33055
380.232 -20.9858 -23.7823
-95.4298 1009.71 25.3377
-99.2445 1006.28 -0.439284
-95.3463 1009.63 -26.2129
-84.3689 1019.29 -48.0327
-67.9771 1033.73 -62.5578
-48.7599 1050.81 -67.606
-29.7655 1068.1 -62.4925
-13.9032 1083.14 -48.0161
-3.41838 1093.48 -26.2553
0.272602 1097.1 -0.473403
-3.41978 1093.48 25.3084
-13.916 1083.17 47.0738
-29.7988 1068.17 61.5639
-48.8058 1050.9 66.6904
-68.0305 1033.82 61.6549
-84.4578 1019.39 47.1525
382.635 -22.3855 1.31945e-05
387.058 -21.764 22.4517
399.656 -20.0048 41.4821
418.539 -17.4746 54.1528
440.776 -14.5241 58.5446
462.96 -11.5923 54.02
481.723 -9.11705 41.3
494.237 -7.4676 22.335
498.627 -6.88918 0.000239176
494.237 -7.46776 -22.3346
481.723 -9.11742 -41.2997
462.96 -11.5927 -54.0199
440.776 -14.5245 -58.5445
418.539 -17.4748 -54.1527
399.656 -20.0049 -41.4821
387.058 -21.764 -22.4517
</DataArray>
</Points>
<Cells>
<DataArray type="Int32" Name="connectivity" format="ascii">
0 1 2 3 
4 5 6 7 
8 9 10 11 
12 13 14 15 
16 17 18 19 
20 21 22 23 
24 25 26 27 
28 29 30 31 
32 33 34 35 
36 37 38 39 
40 41 42 43 
44 45 46 47 
48 49 50 51 
52 53 54 55 
56 57 58 59 
60 61 62 63 
64 65 66 67 
68 69 70 71 
72 73 74 75 
76 77 78 79 
80 81 82 83 
84 85 86 87 
88 89 90 91 
92 93 94 95 
96 97 98 99 
100 101 102 103 
104 105 106 107 
108 109 110 111 
112 113 114 115 
116 117 118 119 
120 121 122 123 
124 125 126 127 
128 129 130 131 
132 133 134 135 
136 137 138 139 
140 141 142 143 
144 145 146 147 
148 149 150 151 
152 153 154 155 
156 157 158 159 
160 161 162 163 
164 165 166 167 
168 169 170 171 
172 173 174 175 
176 177 178 179 
180 181 182 183 
184 185 186 187 
188 189 190 191 
192 193 194 195 
196 197 198 199 
200 201 202 203 
204 205 206 207 
208 209 210 211 
212 213 214 215 
216 217 218 219 
220 221 222 223 
224 225 226 227 
228 229 230 231 
232 233 234 235 
236 237 238 239 
240 241 242 243 
244 245 246 247 
248 249 250 251 
252 253 254 255 
256 257 258 259 
260 261 262 263 
264 265 266 267 
268 269 270 271 
272 273 274 275 
276 277 278 279 
280 281 282 283 
284 285 286 287 
288 289 290 291 
292 293 294 295 
296 297 298 299 
300 301 302 303 
304 305 306 307 
308 309 310 311 
312 313 314 315 
316 317 318 319 
320 321 322 323 
324 325 326 327 
328 329 330 331 
332 333 334 335 
336 337 338 339 
340 341 342 343 
344 345 346 347 
348 349 350 351 
352 353 354 355 
356 357 358 359 
360 361 362 363 
364 365 366 367 
368 369 370 371 
372 373 374 375 
376 377 378 379 
380 381 382 383 
384 385 386 387 
388 389 390 391 
392 393 394 395 
396 397 398 399 
400 401 402 403 
404 405 406 407 
408 409 410 411 
412 413 414 415 
416 417 418 419 
420 421 422 423 
424 425 426 427 
428 429 430 431 
432 433 434 435 
436 437 438 439 
440 441 442 443 
444 445 446 447 
448 449 450 451 
452 453 454 455 
456 457 458 459 
460 461 462 463 
464 465 466 467 
468 469 470 471 
472 473 474 475 
476 477 478 479 
480 481 482 483 
484 485 486 487 
488 489 490 491 
492 493 494 495 
496 497 498 499 
500 501 502 503 
504 505 506 507 
508 509 510 511 
512 513 514 515 
516 517 518 519 
520 521 522 523 
524 525 526 527 
528 529 530 531 
532 533 534 535 
536 537 538 539 
540 541 542 543 
544 545 546 547 
548 549 550 551 
552 553 554 555 
556 557 558 559 
560 561 562 563 
564 565 566 567 
568 569 570 571 
572 573 574 575 
576 577 578 579 
580 581 582 583 
584 585 586 587 
588 589 590 591 
592 593 594 595 
596 597 598 599 
600 601 602 603 
604 605 606 607 
608 609 610 611 
612 613 614 615 
616 617 618 619 
620 621 622 623 
624 625 626 627 
628 629 630 631 
632 633 634 635 
636 637 638 639 
640 641 642 643 
644 645 646 647 
648 649 650 651 
652 653 654 655 
656 657 658 659 
660 661 662 663 
664 665 666 667 
668 669 670 671 
672 673 674 675 
676 677 678 679 
680 681 682 683 
684 685 686 687 
688 689 690 691 
692 693 694 695 
696 697 698 699 
700 701 702 703 
704 705 706 707 
708 709 710 711 
712 713 714 715 
716 717 718 719 
720 721 722 723 
724 725 726 727 
728 729 730 731 
732 733 734 735 
736 737 738 739 
740 741 742 743 
744 745 746 747 
748 749 750 751 
752 753 754 755 
756 757 758 759 
760 761 762 763 
764 765 766 767 
768 769 770 771 
772 773 774 775 
776 777 778 779 
780 781 782 783 
784 785 786 787 
788 789 790 791 
792 793 794 795 
796 797 798 799 
800 801 802 803 
804 805 806 807 
808 809 810 811 
812 813 814 815 
816 817 818 819 
820 821 822 823 
824 825 826 827 
828 829 830 831 
832 833 834 835 
836 837 838 839 
840 841 842 843 
844 845 846 847 
848 849 850 851 
852 853 854 855 
856 857 858 859 
860 861 862 863 
864 865 866 867 
868 869 870 871 
872 873 874 875 
876 877 878 879 
880 881 882 883 
884 885 886 887 
888 889 890 891 
892 893 894 895 
896 897 898 899 
900 901 902 903 
904 905 906 907 
908 909 910 911 
912 913 914 915 
916 917 918 919 
920 921 922 923 
924 925 926 927 
928 929 930 931 
932 933 934 935 
936 937 938 939 
940 941 942 943 
944 945 946 947 
948 949 950 951 
952 953 954 955 
956 957 958 959 
960 961 962 963 
964 965 966 967 
968 969 970 971 
972 973 974 975 
976 977 978 979 
980 981 982 983 
984 985 986 987 
988 989 990 991 
992 993 994 995 
996 997 998 999 
1000 1001 1002 1003 
1004 1005 1006 1007 
1008 1009 1010 1011 
1012 1013 1014 1015 
1016 1017 1018 1019 
1020 1021 1022 1023 
1024 1025 1026 1027 
1028 1029 1030 1031 
1032 1033 1034 1035 
1036 1037 1038 1039 
1040 1041 1042 1043 
1044 1045 1046 1047 
1048 1049 1050 1051 
1052 1053 1054 1055 
1056 1057 1058 1059 
1060 1061 1062 1063 
1064 1065 1066 1067 
1068 1069 1070 1071 
1072 1073 1074 1075 
1076 1077 1078 1079 
1080 1081 1082 1083 
1084 1085 1086 1087 
1088 1089 1090 1091 
1092 1093 1094 1095 
1096 1097 1098 1099 
1100 1101 1102 1103 
1104 1105 1106 1107 
1108 1109 1110 1111 
1112 1113 1114 1115 
1116 1117 1118 1119 
1120 1121 1122 1123 
1124 1125 1126 1127 
1128 1129 1130 1131 
1132 1133 1134 1135 
1136 1137 1138 1139 
1140 1141 1142 1143 
1144 1145 1146 1147 
1148 1149 1150 1151 
1152 1153 1154 1155 
1156 1157 1158 1159 
1160 1161 1162 1163 
1164 1165 1166 1167 
1168 1169 1170 1171 
1172 1173 1174 1175 
1176 1177 1178 1179 
1180 1181 1182 1183 
1184 1185 1186 1187 
1188 1189 1190 1191 
1192 1193 1194 1195 
1196 1197 1198 1199 
1200 1201 1202 1203 
1204 1205 1206 1207 
1208 1209 1210 1211 
1212 1213 1214 1215 
1216 1217 1218 1219 
1220 1221 1222 1223 
1224 1225 1226 1227 
1228 1229 1230 1231 
1232 1233 1234 1235 
1236 1237 1238 1239 
1240 1241 1242 1243 
1244 1245 1246 1247 
1248 1249 1250 1251 
1252 1253 1254 1255 
1256 1257 1258 1259 
1260 1261 1262 1263 
1264 1265 1266 1267 
1268 1269 1270 1271 
1272 1273 1274 1275 
1276 1277 1278 1279 
1280 1281 1282 1283 
1284 1285 1286 1287 
1288 1289 1290 1291 
1292 1293 1294 1295 
1296 1297 1298 1299 
1300 1301 1302 1303 
1304 1305 1306 1307 
1308 1309 1310 1311 
1312 1313 1314 1315 
1316 1317 1318 1319 
1320 1321 1322 1323 
1324 1325 1326 1327 
1328 1329 1330 1331 
1332 1333 1334 1335 
1336 1337 1338 1339 
1340 1341 1342 1343 
1344 1345 1346 1347 
1348 1349 1350 1351 
1352 1353 1354 1355 
1356 1357 1358 1359 
1360 1361 1362 1363 
1364 1365 1366 1367 
1368 1369 1370 1371 
1372 1373 1374 1375 
1376 1377 1378 1379 
1380 1381 1382 1383 
1384 1385 1386 1387 
1388 1389 1390 1391 
1392 1393 1394 1395 
1396 1397 1398 1399 
1400 1401 1402 1403 
1404 1405 1406 1407 
1408 1409 1410 1411 
1412 1413 1414 1415 
1416 1417 1418 1419 
1420 1421 1422 1423 
1424 1425 1426 1427 
1428 1429 1430 1431 
1432 1433 1434 1435 
1436 1437 1438 1439 
1440 1441 1442 1443 
1444 1445 1446 1447 
1448 1449 1450 1451 
1452 1453 1454 1455 
1456 1457 1458 1459 
1460 1461 1462 1463 
1464 1465 1466 1467 
1468 1469 1470 1471 
1472 1473 1474 1475 
1476 1477 1478 1479 
1480 1481 1482 1483 
1484 1485 1486 1487 
1488 1489 1490 1491 
1492 1493 1494 1495 
1496 1497 1498 1499 
1500 1501 1502 1503 
1504 1505 1506 1507 
1508 1509 1510 1511 
1512 1513 1514 1515 
1516 1517 1518 1519 
1520 1521 1522 1523 
1524 1525 1526 1527 
1528 1529 1530 1531 
1532 1533 1534 1535 
1536 1537 1538 1539 
1540 1541 1542 1543 
1544 1545 1546 1547 
1548 1549 1550 1551 
1552 1553 1554 1555 
1556 1557 1558 1559 
1560 1561 1562 1563 
1564 1565 1566 1567 
1568 1569 1570 1571 
1572 1573 1574 1575 
1576 1577 1578 1579 
1580 1581 1582 1583 
1584 1585 1586 1587 
1588 1589 1590 1591 
1592 1593 1594 1595 
1596 1597 1598 1599 
1600 1601 1602 1603 
1604 1605 1606 1607 
1608 1609 1610 1611 
1612 1613 1614 1615 
1616 1617 1618 1619 
1620 1621 1622 1623 
1624 1625 1626 1627 
1628 1629 1630 1631 
1632 1633 1634 1635 
1636 1637 1638 1639 
1640 1641 1642 1643 
1644 1645 1646 1647 
1648 1649 1650 1651 
1652 1653 1654 1655 
1656 1657 1658 1659 
1660 1661 1662 1663 
1664 1665 1666 1667 
1668 1669 1670 1671 
1672 1673 1674 1675 
1676 1677 1678 1679 
1680 1681 1682 1683 
1684 1685 1686 1687 
1688 1689 1690 1691 
1692 1693 1694 1695 
1696 1697 1698 1699 
1700 1701 1702 1703 
1704 1705 1706 1707 
1708 1709 1710 1711 
1712 1713 1714 1715 
1716 1717 1718 1719 
1720 1721 1722 1723 
1724 1725 1726 1727 
1728 1729 1730 1731 
1732 1733 1734 1735 
1736 1737 1738 1739 
1740 1741 1742 1743 
1744 1745 1746 1747 
1748 1749 1750 1751 
1752 1753 1754 1755 
1756 1757 1758 1759 
1760 1761 1762 1763 
1764 1765 1766 1767 
1768 1769 1770 1771 
1772 1773 1774 1775 
1776 1777 1778 1779 
1780 1781 1782 1783 
1784 1785 1786 1787 
1788 1789 1790 1791 
1792 1793 1794 1795 
1796 1797 1798 1799 
1800 1801 1802 1803 
1804 1805 1806 1807 
1808 1809 1810 1811 
1812 1813 1814 1815 
1816 1817 1818 1819 
1820 1821 1822 1823 
1824 1825 1826 1827 
1828 1829 1830 1831 
1832 1833 1834 1835 
1836 1837 1838 1839 
1840 1841 1842 1843 
1844 1845 1846 1847 
1848 1849 1850 1851 
1852 1853 1854 1855 
1856 1857 1858 1859 
1860 1861 1862 1863 
1864 1865 1866 1867 
1868 1869 1870 1871 
1872 1873 1874 1875 
1876 1877 1878 1879 
1880 1881 1882 1883 
1884 1885 1886 1887 
1888 1889 1890 1891 
1892 1893 1894 1895 
1896 1897 1898 1899 
1900 1901 1902 1903 
1904 1905 1906 1907 
1908 1909 1910 1911 
1912 1913 1914 1915 
1916 1917 1918 1919 
1920 1921 1922 1923 
1924 1925 1926 1927 
1928 1929 1930 1931 
1932 1933 1934 1935 
1936 1937 1938 1939 
1940 1941 1942 1943 
1944 1945 1946 1947 
1948 1949 1950 1951 
1952 1953 1954 1955 
1956 1957 1958 1959 
1960 1961 1962 1963 
1964 1965 1966 1967 
1968 1969 1970 1971 
1972 1973 1974 1975 
1976 1977 1978 1979 
1980 1981 1982 1983 
1984 1985 1986 1987 
1988 1989 1990 1991 
1992 1993 1994 1995 
1996 1997 1998 1999 
2000 2001 2002 2003 
2004 2005 2006 2007 
2008 2009 2010 2011 
2012 2013 2014 2015 
2016 2017 2018 2019 
2020 2021 2022 2023 
2024 2025 2026 2027 
2028 2029 2030 2031 
2032 2033 2034 2035 
2036 2037 2038 2039 
2040 2041 2042 2043 
2044 2045 2046 2047 
2048 2049 2050 2051 2052 2053 2054 2055 2056 2057 2058 2059 2060 2061 2062 2063 
2064 2065 2066 2067 2068 2069 2070 2071 2072 2073 2074 2075 2076 2077 2078 2079 
</DataArray>
<DataArray type="Int32" Name="offsets" format="ascii">
4 8 12 16 20 24 28 32 36 40 44 48 52 56 60 64 68 72 76 80 84 88 92 96 100 104 108 112 116 120 124 128 132 136 140 144 148 152 156 160 164 168 172 176 180 184 188 192 196 200 204 208 212 216 220 224 228 232 236 240 244 248 252 256 260 264 268 272 276 280 284 288 292 296 300 304 308 312 316 320 324 328 332 336 340 344 348 352 356 360 364 368 372 376 380 384 388 392 396 400 404 408 412 416 420 424 428 432 436 440 444 448 452 456 460 464 468 472 476 480 484 488 492 496 500 504 508 512 516 520 524 528 532 536 540 544 548 552 556 560 564 568 572 576 580 584 588 592 596 600 604 608 612 616 620 624 628 632 636 640 644 648 652 656 660 664 668 672 676 680 684 688 692 696 700 704 708 712 716 720 724 728 732 736 740 744 748 752 756 760 764 768 772 776 780 784 788 792 796 800 804 808 812 816 820 824 828 832 836 840 844 848 852 856 860 864 868 872 876 880 884 888 892 896 900 904 908 912 916 920 924 928 932 936 940 944 948 952 956 960 964 968 972 976 980 984 988 992 996 1000 1004 1008 1012 1016 1020 1024 1028 1032 1036 1040 1044 1048 1052 1056 1060 1064 1068 1072 1076 1080 1084 1088 1092 1096 1100 1104 1108 1112 1116 1120 1124 1128 1132 1136 1140 1144 1148 1152 1156 1160 1164 1168 1172 1176 1180 1184 1188 1192 1196 1200 1204 1208 1212 1216 1220 1224 1228 1232 1236 1240 1244 1248 1252 1256 1260 1264 1268 1272 1276 1280 1284 1288 1292 1296 1300 1304 1308 1312 1316 1320 1324 1328 1332 1336 1340 1344 1348 1352 1356 1360 1364 1368 1372 1376 1380 1384 1388 1392 1396 1400 1404 1408 1412 1416 1420 1424 1428 1432 1436 1440 1444 1448 1452 1456 1460 1464 1468 1472 1476 1480 1484 1488 1492 1496 1500 1504 1508 1512 1516 1520 1524 1528 1532 1536 1540 1544 1548 1552 1556 1560 1564 1568 1572 1576 1580 1584 1588 1592 1596 1600 1604 1608 1612 1616 1620 1624 1628 1632 1636 1640 1644 1648 1652 1656 1660 1664 1668 1672 1676 1680 1684 1688 1692 1696 1700 1704 1708 1712 1716 1720 1724 1728 1732 1736 1740 1744 1748 1752 1756 1760 1764 1768 1772 1776 1780 1784 1788 1792 1796 1800 1804 1808 1812 1816 1820 1824 1828 1832 1836 1840 1844 1848 1852 1856 1860 1864 1868 1872 1876 1880 1884 1888 1892 1896 1900 1904 1908 1912 1916 1920 1924 1928 1932 1936 1940 1944 1948 1952 1956 1960 1964 1968 1972 1976 1980 1984 1988 1992 1996 2000 2004 2008 2012 2016 2020 2024 2028 2032 2036 2040 2044 2048 2064 2080 
</DataArray>
<DataArray type="UInt8" Name="types" format="ascii">
7 7 7 7 7 7 7 7 7 7 7 7 7 7 7 7 7 7 7 7 7 7 7 7 7 7 7 7 7 7 7 7 7 7 7 7 7 7 7 7 7 7 7 7 7 7 7 7 7 7 7 7 7 7 7 7 7 7 7 7 7 7 7 7 7 7 7 7 7 7 7 7 7 7 7 7 7 7 7 7 7 7 7 7 7 7 7 7 7 7 7 7 7 7 7 7 7 7 7 7 7 7 7 7 7 7 7 7 7 7 7 7 7 7 7 7 7 7 7 7 7 7 7 7 7 7 7 7 7 7 7 7 7 7 7 7 7 7 7 7 7 7 7 7 7 7 7 7 7 7 7 7 7 7 7 7 7 7 7 7 7 7 7 7 7 7 7 7 7 7 7 7 7 7 7 7 7 7 7 7 7 7 7 7 7 7 7 7 7 7 7 7 7 7 7 7 7 7 7 7 7 7 7 7 7 7 7 7 7 7 7 7 7 7 7 7 7 7 7 7 7 7 7 7 7 7 7 7 7 7 7 7 7 7 7 7 7 7 7 7 7 7 7 7 7 7 7 7 7 7 7 7 7 7 7 7 7 7 7 7 7 7 7 7 7 7 7 7 7 7 7 7 7 7 7 7 7 7 7 7 7 7 7 7 7 7 7 7 7 7 7 7 7 7 7 7 7 7 7 7 7 7 7 7 7 7 7 7 7 7 7 7 7 7 7 7 7 7 7 7 7 7 7 7 7 7 7 7 7 7 7 7 7 7 7 7 7 7 7 7 7 7 7 7 7 7 7 7 7 7 7 7 7 7 7 7 7 7 7 7 7 7 7 7 7 7 7 7 7 7 7 7 7 7 7 7 7 7 7 7 7 7 7 7 7 7 7 7 7 7 7 7 7 7 7 7 7 7 7 7 7 7 7 7 7 7 7 7 7 7 7 7 7 7 7 7 7 7 7 7 7 7 7 7 7 7 7 7 7 7 7 7 7 7 7 7 7 7 7 7 7 7 7 7 7 7 7 7 7 7 7 7 7 7 7 7 7 7 7 7 7 7 7 7 7 7 7 7 7 7 7 7 7 7 7 7 7 7 7 7 7 7 7 7 7 7 7 7 7 7 7 7 7 7 7 7 7 7 7 7 7 7 7 7 7 7 7 7 7 7 7 7 7 7 
</DataArray>
</Cells>
<CellData Scalars="cell variable 4" Vectors="cell vector">
<DataArray type="Float64" NumberOfComponents="3" Name="cell vector" format="ascii">
0.187243 0.0643473 0.980204
0.540777 0.153686 0.827007
0.792717 0.228508 0.56514
0.913643 0.328266 0.239786
0.658967 0.722517 -0.20912
0.226767 0.799683 -0.555954
-0.125272 -0.571867 0.810725
-0.025579 -0.223592 0.974347
0.0296087 0.221078 0.974807
0.114418 0.578247 0.807799
0.223434 0.801536 0.554632
0.655575 0.725597 0.20912
0.911667 0.334086 -0.239269
0.788255 0.24098 -0.5662
-0.527933 -0.179727 0.830051
-0.193282 -0.0549168 0.979605
0.160123 0.114135 0.980476
0.458737 0.318782 0.829421
0.680621 0.480112 0.553397
0.779084 0.595736 0.19526
0.708439 0.678265 -0.195118
0.517041 0.654791 -0.551287
-0.342515 -0.444141 0.827902
-0.121706 -0.155679 0.980282
0.121608 0.156484 0.980165
0.339066 0.447878 0.827308
0.51552 0.656452 0.550735
0.708161 0.678677 0.194695
0.778585 0.596283 -0.195583
0.679128 0.481784 -0.553777
-0.456135 -0.321496 0.829808
-0.161822 -0.111381 0.980514
0.15793 0.11735 0.980452
0.45108 0.329629 0.829381
0.672382 0.492618 0.552476
0.777964 0.597776 0.193483
0.70265 0.684296 -0.194992
0.519504 0.655016 -0.548698
-0.358565 -0.430631 0.828244
-0.12811 -0.149697 0.980397
0.127758 0.150856 0.980265
0.356985 0.432701 0.827848
0.518847 0.655897 0.548267
0.702302 0.68476 0.194618
0.777359 0.598473 -0.193758
0.671686 0.49328 -0.552732
-0.44982 -0.330479 0.829726
-0.158806 -0.115125 0.980575
0.158153 0.117308 0.980422
0.451745 0.329259 0.829165
0.676423 0.488048 0.551599
0.791319 0.580377 0.192295
0.721264 0.664365 -0.195954
-0.299207 0.918335 -0.259106
-0.620033 0.778933 -0.0939296
-0.668454 0.743165 -0.0295806
-0.668624 0.7431 0.0272854
-0.621002 0.778509 0.0909986
-0.296271 0.919132 0.259655
0.720404 0.665403 0.195594
0.790665 0.581183 -0.19255
0.676086 0.4883 -0.551789
-0.450815 -0.329679 0.829504
-0.158514 -0.115392 0.980591
0.158072 0.117353 0.980429
0.450877 0.330163 0.829278
0.675148 0.489791 0.551616
0.792479 0.57896 0.191787
0.753891 0.627074 -0.196028
-0.321616 0.917641 -0.233447
-0.600023 0.794765 -0.0912219
-0.64664 0.762255 -0.0287037
-0.646631 0.762306 0.027532
-0.600086 0.794869 0.0898846
-0.319463 0.918374 0.233523
0.753195 0.628001 0.195734
0.792009 0.579528 -0.192015
0.675104 0.489687 -0.551761
-0.45035 -0.330096 0.829591
-0.158182 -0.115584 0.980622
0.158349 0.116454 0.980492
0.451457 0.328197 0.829743
0.676523 0.487189 0.552234
0.796885 0.572901 0.191723
0.774751 0.601174 -0.195832
-0.393689 0.902277 -0.175796
-0.5873 0.805477 -0.0792789
-0.627505 0.778184 -0.025824
-0.627492 0.77823 0.0247537
-0.587323 0.805578 0.0780768
-0.391873 0.903068 0.175795
0.773955 0.602275 0.195601
0.796522 0.573341 -0.191918
0.676627 0.486909 -0.552354
-0.451173 -0.327835 0.83004
-0.158323 -0.11478 0.980693
0.159219 0.114677 0.98056
0.453825 0.323662 0.830232
0.680346 0.48103 0.552938
0.802869 0.564425 0.191899
0.78942 0.581726 -0.195986
-0.452388 0.883377 -0.122438
-0.576105 0.814773 -0.0651739
-0.608929 0.792912 -0.0222715
-0.608917 0.79295 0.0212391
-0.576124 0.814851 0.0640209
-0.45124 0.884012 0.122085
0.788626 0.582868 0.195788
0.802615 0.564728 -0.192072
0.680523 0.480657 -0.553044
-0.453676 -0.323128 0.830521
-0.1591 -0.113075 0.980766
0.160549 0.112297 0.980619
0.457527 0.317322 0.830648
0.685962 0.47226 0.553558
0.81005 0.553991 0.192126
0.801851 0.564362 -0.196289
-0.486565 0.869665 -0.0832934
-0.56443 0.823869 -0.0515597
-0.590262 0.806999 -0.0185177
-0.590251 0.80703 0.0175082
-0.56444 0.823931 0.0504512
-0.48584 0.870127 0.0827006
0.801131 0.565447 0.196109
0.809891 0.55417 -0.192284
0.686174 0.47184 -0.553654
-0.457454 -0.316685 0.830931
-0.16036 -0.110749 0.980826
0.162197 0.10949 0.980665
0.462145 0.309685 0.830974
0.692841 0.461516 0.554052
0.818259 0.541724 0.192321
0.814046 0.546523 -0.196577
-0.500984 0.863556 -0.0573159
-0.551504 0.833231 -0.0396139
-0.571305 0.820603 -0.0148637
-0.571297 0.820626 0.013871
-0.551506 0.83328 0.0385508
-0.50048 0.863895 0.0566061
0.813413 0.547525 0.19641
0.81817 0.541806 -0.192469
0.693065 0.461075 -0.55414
-0.462112 -0.308982 0.831254
-0.161949 -0.107985 0.980873
0.164057 0.106357 0.980701
0.467384 0.301034 0.831222
0.70062 0.449156 0.554428
0.827295 0.527768 0.192468
0.824673 0.530263 -0.196812
-0.503158 0.863265 -0.040053
-0.537122 0.842981 -0.0296985
-0.551951 0.833796 -0.0115737
-0.551945 0.833813 0.010593
-0.537116 0.843021 0.0286805
-0.502767 0.863528 0.0392994
0.824154 0.531129 0.196653
0.827255 0.52778 -0.192608
0.700843 0.44871 -0.554508
-0.467371 -0.30029 0.831499
-0.163757 -0.104889 0.980909
0.166047 0.102972 0.980727
0.472998 0.2916 0.831409
0.708966 0.435501 0.554712
0.836932 0.512305 0.192584
0.834006 0.515386 -0.197006
-0.49912 0.866102 -0.0273035
-0.521351 0.853066 -0.0217161
-0.532169 0.846593 -0.00878072
-0.532166 0.846604 0.00781485
-0.52134 0.853097 0.0207406
-0.498806 0.866308 0.0265316
0.833602 0.516098 0.19685
0.836923 0.512271 -0.192716
0.70918 0.43506 -0.554785
-0.472991 -0.290833 0.831683
-0.165698 -0.10154 0.980935
0.1681 0.0993959 0.980746
0.478786 0.281589 0.831548
0.717585 0.420868 0.554924
0.846939 0.495551 0.192676
0.843979 0.498829 -0.197151
-0.48953 0.871787 -0.0186377
-0.504277 0.863402 -0.0155224
-0.511994 0.858965 -0.00647405
-0.511993 0.858972 0.00553212
-0.504268 0.863424 0.014582
-0.489271 0.871949 0.0178632
0.843648 0.499448 0.197001
0.846947 0.495489 -0.1928
0.717788 0.420437 -0.55499
-0.478776 -0.280807 0.831818
-0.167702 -0.0980001 0.980955
0.170171 0.0956642 0.98076
0.484632 0.2711 0.831647
0.726304 0.405427 0.555077
0.857111 0.477715 0.192744
0.854361 0.480791 -0.197248
-0.476229 0.87923 -0.0126695
-0.4861 0.873837 -0.0107808
-0.491439 0.8709 -0.00462237
-0.491439 0.870904 0.00370817
-0.48609 0.873853 0.0098787
-0.476021 0.879353 0.0118951
0.8541 0.481313 0.197106
0.857134 0.477626 -0.192859
0.726493 0.40501 -0.555135
-0.484613 -0.270314 0.831914
-0.169725 -0.0943079 0.980969
0.172229 0.0918069 0.980769
0.490442 0.260224 0.831715
0.734977 0.389334 0.555183
0.867263 0.459005 0.192791
0.864734 0.461849 -0.197308
-0.460575 0.887582 -0.00835159
-0.467037 0.884209 -0.00711851
-0.470526 0.882381 -0.00314515
-0.470527 0.882382 0.00226294
-0.467028 0.88422 0.00625237
-0.460397 0.88768 0.007595
0.864531 0.462287 0.197174
0.867287 0.458915 -0.192899
0.735151 0.388935 -0.555232
-0.49041 -0.259439 0.831979
-0.171737 -0.0904893 0.980978
0.174248 0.0878504 0.980775
0.496141 0.249045 0.831757
0.743483 0.372736 0.555248
0.877236 0.439631 0.192823
0.874871 0.442333 -0.197338
-0.44344 0.89629 -0.00501036
-0.447294 0.894377 -0.00419003
-0.449287 0.893385 -0.00193896
-0.44929 0.893385 0.00109485
-0.447292 0.894381 0.00335521
-0.44329 0.896368 0.00427598
0.874683 0.44276 0.197212
0.877255 0.439551 -0.192922
0.743641 0.372358 -0.55529
-0.496096 -0.248265 0.832018
-0.173712 -0.0865724 0.980984
0.17621 0.0838165 0.980778
0.501671 0.237641 0.831777
0.751725 0.355772 0.55528
0.88689 0.419808 0.192841
0.884509 0.422729 -0.197343
-0.425479 0.904966 -0.00215118
-0.427084 0.90421 -0.00165428
-0.42776 0.903892 -0.000888825
-0.427762 0.903891 8.10444e-05
-0.427083 0.904212 0.000857733
-0.425363 0.905022 0.00143306
0.884372 0.423071 0.197224
0.886909 0.419725 -0.192932
0.751869 0.355414 -0.555315
-0.501609 -0.23687 0.832034
-0.175628 -0.0825843 0.980987
0.178096 0.0797333 0.980777
0.506981 0.226095 0.831776
0.759621 0.338584 0.555281
0.896128 0.399706 0.192847
0.893607 0.403149 -0.197326
-0.407241 0.913321 0.000629291
-0.406576 0.913617 0.000752086
-0.405976 0.913884 0.000119332
-0.405976 0.913883 -0.000870562
-0.40659 0.91361 -0.00152965
-0.407196 0.91334 -0.00135789
0.893488 0.403468 0.197214
0.896145 0.399627 -0.19293
0.759753 0.338242 -0.555308
-0.506903 -0.225334 0.83203
-0.17747 -0.0785516 0.980986
0.179896 0.0756291 0.980774
0.512034 0.214491 0.831754
0.767108 0.321309 0.555253
0.904859 0.379528 0.192843
0.90221 0.383529 -0.197288
-0.38912 0.92118 0.00361255
-0.385975 0.922503 0.00333724
-0.383974 0.923343 0.00118482
-0.383974 0.923342 -0.00189831
-0.385993 0.922493 -0.00408119
-0.389137 0.92117 -0.0043425
0.902155 0.383712 0.197185
0.90488 0.379439 -0.192917
0.767228 0.320989 -0.555272
-0.511938 -0.213742 0.832006
-0.179226 -0.0745007 0.980983
0.181596 0.0715392 0.980768
0.516797 0.202924 0.831711
0.774136 0.304099 0.555191
0.913036 0.359421 0.192826
0.910568 0.363273 -0.197228
-0.371551 0.928385 0.00710345
-0.365441 0.930813 0.00633773
-0.361789 0.932257 0.00241081
-0.361794 0.932253 -0.00309757
-0.365476 0.930794 -0.00705558
-0.371556 0.928378 -0.00777351
0.910446 0.36363 0.197134
0.913048 0.359356 -0.192892
0.774245 0.3038 -0.555203
-0.516691 -0.202176 0.831959
-0.180891 -0.0704556 0.980976
0.183194 0.0674904 0.980757
0.521254 0.191491 0.831641
0.780666 0.287118 0.555089
0.920596 0.339608 0.192792
0.9185 0.342774 -0.19714
-0.355153 0.934737 0.0115199
-0.345183 0.938482 0.0100444
-0.339459 0.940613 0.00390528
-0.339467 0.940607 -0.0045593
-0.345235 0.938455 -0.0107412
-0.355183 0.934718 -0.0121586
0.918359 0.343199 0.197054
0.9206 0.339564 -0.19285
0.780765 0.286841 -0.555093
-0.521139 -0.190737 0.831885
-0.182456 -0.0664542 0.980966
0.184689 0.0635143 0.980743
0.525393 0.180298 0.831538
0.786664 0.270563 0.554938
0.927467 0.3204 0.192739
0.925835 0.322513 -0.197016
-0.340823 0.939965 0.0174712
-0.325478 0.945433 0.0148566
-0.317026 0.948399 0.0057889
-0.317036 0.948392 -0.00641876
-0.325537 0.945402 -0.0155212
-0.340917 0.939919 -0.0181108
0.925736 0.322844 0.19694
0.927483 0.320326 -0.192787
0.786756 0.270301 -0.554934
-0.525272 -0.179537 0.831779
-0.183917 -0.0625355 0.980951
0.186077 0.0596644 0.980722
0.529202 0.169496 0.831394
0.792101 0.254672 0.554723
0.933616 0.302065 0.19266
0.93262 0.302442 -0.196848
-0.329905 0.943659 0.0258794
-0.306571 0.951613 0.0211209
-0.29452 0.955611 0.00813934
-0.294538 0.9556 -0.00875743
-0.306645 0.951575 -0.021761
-0.330025 0.943601 -0.0264881
0.932507 0.302834 0.196783
0.93364 0.301967 -0.192699
0.792192 0.254417 -0.554711
-0.529081 -0.168707 0.831632
-0.185276 -0.0587408 0.980929
0.187358 0.0559989 0.980694
0.532679 0.159261 0.831198
0.796958 0.239728 0.554426
0.939004 0.284951 0.192545
0.938791 0.282861 -0.196624
-0.32439 0.945155 0.0381102
-0.288736 0.956963 0.0292184
-0.271968 0.962243 0.0109912
-0.271999 0.962227 -0.0116252
-0.288823 0.956918 -0.029828
-0.324508 0.945092 -0.0386655
0.93868 0.283266 0.196572
0.939037 0.284825 -0.192574
0.797049 0.239473 -0.554405
-0.532564 -0.158422 0.831432
-0.186533 -0.05513 0.980901
0.188534 0.052593 0.980657
0.535817 0.149829 0.830934
0.801212 0.226093 0.554023
0.943611 0.269418 0.192385
0.944415 0.263688 -0.196337
-0.32738 0.943213 0.0563158
-0.272177 0.961439 0.0394238
-0.24938 0.9683 0.0143148
-0.249429 0.968277 -0.01499
-0.272276 0.961388 -0.039996
-0.327477 0.94315 -0.0568015
0.944305 0.264112 0.196298
0.943658 0.26924 -0.192403
0.80131 0.225818 -0.553994
-0.535717 -0.148908 0.831164
-0.187692 -0.0517861 0.980862
0.189606 0.0495499 0.980609
0.538613 0.14151 0.830585
0.804841 0.214211 0.553485
0.947434 0.255818 0.192163
0.949568 0.244763 -0.195988
-0.343497 0.935412 0.0837545
-0.256963 0.965031 0.0518081
-0.226733 0.973791 0.0179874
-0.226807 0.97376 -0.0187348
-0.257059 0.964978 -0.0523209
-0.343588 0.93534 -0.0841809
0.949488 0.245089 0.195966
0.947506 0.255542 -0.192172
0.804951 0.213892 -0.553447
-0.538536 -0.140469 0.830811
-0.188753 -0.0488204 0.98081
0.190562 0.0470302 0.980548
0.541036 0.134757 0.830133
0.807804 0.204647 0.552787
0.950514 0.244351 0.191875
0.954452 0.225278 -0.195632
-0.378077 0.917391 0.124305
-0.242784 0.967838 0.0659265
-0.20392 0.978745 0.0217725
-0.204026 0.978704 -0.0226189
-0.242868 0.967787 -0.0663545
-0.378204 0.917286 -0.124695
0.954404 0.225484 0.195628
0.950614 0.243962 -0.191875
0.807934 0.204249 -0.552743
-0.540997 -0.133527 0.830357
-0.189712 -0.0463912 0.980743
0.191357 0.0452901 0.980475
0.542981 0.13027 0.829579
0.809989 0.198207 0.551935
0.952912 0.235087 0.191554
0.959562 0.202598 -0.195434
-0.430241 0.885062 0.177644
-0.228341 0.97027 0.0802296
-0.180484 0.983253 0.025272
-0.180631 0.983202 -0.0262163
-0.228396 0.970234 -0.0805132
-0.430416 0.884909 -0.177987
0.959546 0.202665 0.195442
0.953031 0.234605 -0.191552
0.810143 0.197691 -0.551894
-0.543 -0.128738 0.829805
-0.190539 -0.0447495 0.980659
0.191832 0.0446921 0.98041
0.544101 0.1291 0.829028
0.81101 0.196366 0.551092
0.954373 0.229221 0.191387
0.965607 0.171277 -0.195619
-0.470783 0.853431 0.223648
-0.208891 0.973758 0.0903361
-0.154186 0.987654 0.0276818
-0.154352 0.987603 -0.0285578
-0.208835 0.973773 -0.0903022
-0.470698 0.853465 -0.223699
0.965633 0.171128 0.195625
0.954509 0.228651 -0.191394
0.81119 0.195671 -0.551076
-0.544215 -0.127084 0.829265
-0.191112 -0.0442488 0.98057
0.191555 0.0455147 0.980426
0.54328 0.132802 0.828982
0.809111 0.204051 0.551093
0.95207 0.238031 0.192104
0.973854 0.115121 -0.195846
-0.37842 0.907091 0.18435
-0.163238 0.983202 0.0816538
-0.113189 0.993222 0.0264353
-0.113082 0.993253 -0.0257283
-0.16212 0.983532 -0.0798856
-0.379009 0.906713 -0.184999
0.973985 0.11389 0.195912
0.952303 0.237104 -0.192095
0.809348 0.202928 -0.551159
-0.543589 -0.129891 0.82924
-0.19107 -0.045159 0.980537
0.190277 0.0421889 0.980824
0.540799 0.122695 0.832155
0.80873 0.186115 0.557958
0.957668 0.20763 0.199405
0.976693 0.0825058 -0.198151
0.830343 -0.0356998 -0.556109
-0.556093 0.00361883 0.831113
-0.195435 -0.001464 0.980716
0.195562 0.00112349 0.980691
0.556083 -0.00548811 0.831108
0.830278 -0.0353262 0.556229
0.976644 0.0827402 0.198296
0.957814 0.207096 -0.199258
0.808968 0.185161 -0.55793
-0.541356 -0.119891 0.832202
-0.190016 -0.0419145 0.980886
0.190298 0.0387733 0.98096
0.541078 0.11304 0.833341
0.810436 0.170456 0.56048
0.961761 0.185615 0.2014
0.974785 0.105514 -0.196624
0.826558 -0.00792942 -0.562796
-0.550648 0.00150324 0.834736
-0.192912 -0.000893505 0.981216
0.193238 0.000495122 0.981152
0.55055 -0.00507206 0.834787
0.826458 -0.00770468 0.562946
0.974726 0.105818 0.196756
0.961844 0.185364 -0.201236
0.810623 0.169904 -0.560377
-0.541677 -0.110582 0.833281
-0.190025 -0.0386283 0.981019
0.184793 0.048751 0.981568
0.522204 0.151694 0.839221
0.767508 0.271313 0.580794
0.851579 0.452452 0.264763
0.967721 -0.0765628 -0.240114
0.786498 -0.185377 -0.589115
-0.537415 0.053358 0.841628
-0.188821 0.0134544 0.981919
0.188901 -0.0138509 0.981898
0.535819 -0.0633864 0.84195
0.787081 -0.182727 0.589164
0.970871 -0.0488561 0.234569
0.853535 0.449139 -0.264108
0.767627 0.271024 -0.580771
-0.526009 -0.142058 0.838531
-0.184975 -0.0480817 0.981566
0.00580707 0.00632991 0.999963
0.00257188 0.000343963 0.999997
</DataArray>
<DataArray type="Float64" Name="cell vector length" format="ascii">
0.183275 0.173511 0.167138 0.130219 0.0821745 0.183929 0.222886 0.202481 0.199183 0.217015 0.184806 0.0819117 0.12958 0.165571 0.190945 0.192061 0.41626 0.387784 0.348166 0.296458 0.267236 0.331513 0.418595 0.446163 0.441144 0.405352 0.329783 0.267426 0.297344 0.350697 0.407552 0.423655 0.523314 0.491958 0.441217 0.371455 0.326549 0.41076 0.519126 0.558891 0.55531 0.508972 0.409269 0.327046 0.372588 0.443319 0.507436 0.528478 0.557138 0.521882 0.460429 0.366717 0.200114 0.130919 0.305159 0.389447 0.389944 0.307367 0.130281 0.20095 0.367871 0.462187 0.53576 0.56154 0.579432 0.539538 0.465932 0.349888 0.170017 0.112486 0.296843 0.38285 0.382568 0.296033 0.111624 0.170993 0.351103 0.467436 0.552444 0.583349 0.595593 0.551311 0.466788 0.333164 0.139608 0.105377 0.28782 0.371981 0.371721 0.287049 0.104398 0.140796 0.334458 0.468114 0.563619 0.599217 0.60755 0.559849 0.467019 0.320486 0.115736 0.105752 0.281254 0.362472 0.362252 0.280567 0.104754 0.117034 0.321802 0.468206 0.571796 0.611002 0.616388 0.566129 0.467155 0.311078 0.0977091 0.109668 0.276665 0.3546 0.354407 0.276035 0.108679 0.0990757 0.312394 0.468243 0.577878 0.619745 0.622892 0.570712 0.467183 0.304092 0.0844296 0.11424 0.273559 0.348365 0.348193 0.272969 0.113268 0.0858412 0.305406 0.468211 0.582373 0.626204 0.627641 0.574003 0.46709 0.298918 0.0759376 0.117046 0.271306 0.343632 0.343473 0.270743 0.116095 0.0773722 0.300234 0.468084 0.585655 0.630941 0.631062 0.576315 0.466908 0.295026 0.0687389 0.120387 0.269988 0.340035 0.339887 0.26944 0.119453 0.0701874 0.296346 0.46789 0.588009 0.634371 0.633486 0.577893 0.466646 0.292053 0.063344 0.123077 0.269159 0.337375 0.337235 0.268624 0.122163 0.0647977 0.29338 0.467629 0.589664 0.636818 0.635152 0.578919 0.466331 0.289807 0.0594595 0.125035 0.268673 0.335526 0.335392 0.268147 0.124141 0.0609151 0.291144 0.467323 0.590787 0.638516 0.636229 0.579521 0.465994 0.288157 0.0567264 0.126392 0.268412 0.334329 0.334199 0.267892 0.125517 0.0581817 0.289504 0.466999 0.591498 0.63963 0.636837 0.579794 0.465653 0.286992 0.0548998 0.127263 0.268313 0.333658 0.333533 0.267797 0.1264 0.0563595 0.288353 0.466675 0.591888 0.640278 0.637053 0.579797 0.46532 0.286237 0.0538344 0.127726 0.268348 0.333436 0.333312 0.26783 0.126869 0.0552979 0.287612 0.466357 0.59201 0.640537 0.636915 0.579559 0.464998 0.28585 0.0534199 0.127875 0.268538 0.33363 0.333495 0.267991 0.127005 0.0548896 0.28724 0.466052 0.591893 0.640442 0.636421 0.57908 0.46469 0.285825 0.0535172 0.127854 0.268915 0.334237 0.334095 0.268346 0.126968 0.0549995 0.287228 0.465758 0.591533 0.639992 0.635531 0.57833 0.464394 0.286211 0.0543352 0.127455 0.269416 0.335267 0.335127 0.268845 0.126572 0.0558248 0.287625 0.465474 0.590903 0.639147 0.634158 0.577247 0.464108 0.287112 0.056084 0.126559 0.270057 0.336804 0.336674 0.269502 0.125691 0.0575719 0.288531 0.465198 0.589943 0.637822 0.632172 0.575732 0.463824 0.288672 0.0590422 0.125045 0.270902 0.338972 0.338847 0.270355 0.12419 0.0605179 0.29009 0.464923 0.58856 0.635889 0.629392 0.573649 0.463526 0.291082 0.0635801 0.122786 0.272047 0.341931 0.341806 0.271497 0.121934 0.0650381 0.292492 0.464635 0.586622 0.63317 0.625573 0.570808 0.463186 0.2946 0.0702243 0.119664 0.273654 0.345888 0.34576 0.273094 0.118812 0.0716482 0.295992 0.46431 0.583956 0.629426 0.620384 0.566964 0.462773 0.299562 0.0796821 0.11569 0.275985 0.351082 0.350945 0.275406 0.11484 0.0810425 0.30092 0.46392 0.580329 0.624337 0.61339 0.561793 0.462254 0.306399 0.0928656 0.111273 0.279436 0.357766 0.35761 0.278817 0.110414 0.0941283 0.307703 0.463434 0.575442 0.617477 0.603983 0.554856 0.461578 0.315619 0.110816 0.107822 0.284583 0.36619 0.366004 0.2839 0.106949 0.111936 0.316844 0.462806 0.568878 0.608253 0.591117 0.545314 0.460376 0.32749 0.133998 0.108812 0.292425 0.376802 0.376583 0.291675 0.107926 0.134923 0.328608 0.461666 0.559839 0.595643 0.571836 0.530046 0.45541 0.339171 0.157708 0.120771 0.30643 0.391858 0.39167 0.305758 0.119987 0.158363 0.340132 0.456772 0.545305 0.576732 0.530669 0.491078 0.424227 0.324231 0.140371 0.169794 0.348219 0.427676 0.428686 0.35181 0.169252 0.141023 0.325113 0.425718 0.507844 0.536207 0.504088 0.465398 0.402792 0.3203 0.270663 0.36861 0.497725 0.544399 0.539063 0.482483 0.36682 0.27138 0.321302 0.404387 0.483116 0.50994 0.469356 0.430852 0.370806 0.303455 0.270126 0.335021 0.450087 0.492755 0.485884 0.43018 0.333316 0.270673 0.304352 0.372396 0.449075 0.475378 0.214307 0.167812 0.097283 0.0351581 0.0136744 0.111015 0.256029 0.321145 0.315618 0.239047 0.111614 0.0147502 0.0357126 0.0968769 0.186996 0.220155 0.0708393 0.0152124 
</DataArray>
<DataArray type="Float64" Name="cell variable 4" format="ascii">
875.675 869.705 870.85 872.649 863.526 895.93 882.923 876.587 874.21 875.123 895.296 863.354 871.751 870.404 884.523 880.64 1075.29 1058.57 1049.72 1041.91 1042.8 1068.7 1095.1 1084.19 1078.6 1077.87 1068.73 1042.68 1041.85 1049.6 1085.39 1084.52 1272.25 1251.59 1238.2 1227 1223.82 1259.93 1291.03 1292.06 1286.35 1272.94 1260.23 1224.1 1227.09 1238.24 1283.46 1282.48 1311.06 1289.7 1276.62 1267.46 1259.5 1444.75 1871.36 2143.05 2141.42 1868.2 1443.33 1259.54 1267.38 1276.63 1322.36 1321.46 1319.39 1297.89 1285.59 1280.22 1277 1455.44 1850.84 2106.01 2104.85 1848.49 1453.76 1276.91 1280.13 1285.63 1330.66 1329.77 1322.21 1299.2 1284.6 1278 1276.86 1463.49 1833.46 2071.33 2070.44 1831.56 1461.81 1276.87 1278.01 1284.7 1331.99 1332.58 1323.76 1299.35 1282.72 1274.98 1274.85 1474.37 1821.46 2042.79 2042.08 1819.86 1472.67 1274.87 1275.04 1282.85 1332.22 1334.16 1324.81 1299.32 1281.23 1272.63 1272.85 1485.75 1813.57 2020.19 2019.61 1812.19 1484.06 1272.87 1272.7 1281.37 1332.36 1335.28 1325.6 1299.28 1280.08 1270.79 1271.14 1495.66 1808.47 2002.9 2002.42 1807.25 1493.98 1271.17 1270.87 1280.21 1332.55 1336.16 1326.22 1299.22 1279.17 1269.34 1269.76 1501.44 1804.67 1990.11 1989.7 1803.58 1499.79 1269.8 1269.42 1279.29 1332.77 1336.9 1326.65 1299.1 1278.45 1268.23 1268.64 1507.62 1802.63 1980.64 1980.29 1801.64 1505.99 1268.68 1268.31 1278.58 1332.96 1337.46 1326.95 1298.95 1277.9 1267.39 1267.72 1512.4 1801.43 1973.81 1973.5 1800.52 1510.79 1267.75 1267.47 1278.02 1333.12 1337.89 1327.17 1298.77 1277.41 1266.69 1266.95 1515.82 1800.77 1969.14 1968.87 1799.94 1514.24 1266.98 1266.77 1277.53 1333.27 1338.24 1327.29 1298.56 1276.97 1266.12 1266.32 1518.17 1800.45 1966.16 1965.92 1799.69 1516.63 1266.35 1266.2 1277.09 1333.38 1338.5 1327.32 1298.31 1276.58 1265.66 1265.82 1519.69 1800.38 1964.51 1964.29 1799.67 1518.16 1265.85 1265.74 1276.7 1333.45 1338.67 1327.25 1298.02 1276.22 1265.3 1265.44 1520.51 1800.52 1963.98 1963.78 1799.84 1518.99 1265.47 1265.38 1276.34 1333.47 1338.73 1327.09 1297.69 1275.91 1265.05 1265.18 1520.8 1800.94 1964.5 1964.27 1800.22 1519.26 1265.21 1265.12 1276.03 1333.44 1338.7 1326.84 1297.34 1275.65 1264.9 1265.02 1520.79 1801.71 1966.06 1965.83 1801 1519.24 1265.05 1264.98 1275.77 1333.35 1338.57 1326.52 1296.97 1275.44 1264.86 1264.95 1520.11 1802.67 1968.69 1968.49 1802.01 1518.59 1265 1264.93 1275.55 1333.23 1338.36 1326.12 1296.57 1275.27 1264.93 1265.02 1518.59 1803.85 1972.62 1972.45 1803.24 1517.07 1265.06 1265.01 1275.4 1333.08 1338.07 1325.63 1296.15 1275.18 1265.15 1265.24 1515.95 1805.3 1978.17 1978.03 1804.74 1514.46 1265.27 1265.23 1275.32 1332.88 1337.67 1325.05 1295.72 1275.19 1265.54 1265.62 1511.9 1807.19 1985.84 1985.72 1806.67 1510.44 1265.67 1265.63 1275.32 1332.65 1337.18 1324.36 1295.28 1275.34 1266.18 1266.22 1506.12 1809.78 1996.28 1996.16 1809.28 1504.68 1266.27 1266.27 1275.48 1332.41 1336.59 1323.56 1294.87 1275.69 1267.15 1267.07 1498.3 1813.56 2010.3 2010.16 1813.03 1496.89 1267.12 1267.24 1275.84 1332.17 1335.87 1322.6 1294.48 1276.34 1268.54 1268.17 1488.44 1819.28 2028.84 2028.64 1818.66 1487.04 1268.22 1268.63 1276.49 1331.95 1334.98 1321.29 1294.05 1277.31 1270.39 1269.29 1477.12 1828.04 2052.9 2052.6 1827.28 1475.76 1269.34 1270.47 1277.46 1331.65 1333.74 1318.56 1292.59 1277.74 1271.75 1268.93 1466.13 1841.3 2083.37 2082.9 1840.31 1464.81 1268.97 1271.82 1277.87 1330.24 1331.04 1307.56 1282.8 1269.58 1264.09 1257.67 1456.58 1860.54 2120.76 2120.06 1859.26 1455.27 1257.57 1264.05 1269.64 1320.16 1319.99 1244.24 1218.79 1202.34 1190.79 1177.43 1441.45 1892.09 2170.99 2169.89 1890.22 1440.47 1177.48 1190.75 1202.29 1254.04 1256.02 1193.84 1167.7 1148.52 1133.49 1124.99 1160.69 1208.59 1216.09 1207.57 1183.26 1160.9 1125.28 1133.67 1148.61 1201.62 1205.21 1085.54 1059.51 1038.38 1025.7 1019.89 1027.93 1073.26 1073.85 1063.53 1042.91 1027.62 1019.99 1025.72 1038.75 1090.06 1095.95 745.502 734.402 729.517 737.476 747.431 772.441 830.971 855.367 849.26 811.84 773.719 747.737 737.221 728.261 752.748 751.17 623.289 745.326 
</DataArray>
<DataArray type="Float64" Name="cell variable 5" format="ascii">
0.00111547 0.00111547 0.00111547 0.00111547 0.00111547 0.00111547 0.00111547 0.00111547 0.00111547 0.00111547 0.00111547 0.00111547 0.00111547 0.00111547 0.00111547 0.00111547 0.00111547 0.00111547 0.00111547 0.00111547 0.00111547 0.00111547 0.00111547 0.00111547 0.00111547 0.00111547 0.00111547 0.00111547 0.00111547 0.00111547 0.00111547 0.00111547 0.00111547 0.00111547 0.00111547 0.00111547 0.00111547 0.00111547 0.00111547 0.00111547 0.00111547 0.00111547 0.00111547 0.00111547 0.00111547 0.00111547 0.00111547 0.00111547 0.00168584 0.00156066 0.00135864 0.00116603 0.00111547 0.00111547 0.00111547 0.00111547 0.00111547 0.00111547 0.00111547 0.00111547 0.00116603 0.00135864 0.00156066 0.00168584 0.00190745 0.00173368 0.00145308 0.00118562 0.00111547 0.00111547 0.00111547 0.00111547 0.00111547 0.00111547 0.00111547 0.00111547 0.00118562 0.00145308 0.00173368 0.00190745 0.00203585 0.00183407 0.00150786 0.00119702 0.00111547 0.00111547 0.00111547 0.00111547 0.00111547 0.00111547 0.00111547 0.00111547 0.00119702 0.00150786 0.00183407 0.00203585 0.0021293 0.0019067 0.00154777 0.00120545 0.00111547 0.00111547 0.00111547 0.00111547 0.00111547 0.00111547 0.00111547 0.00111547 0.00120545 0.00154777 0.0019067 0.0021293 0.00220218 0.00196372 0.00157876 0.00121189 0.00111547 0.00111547 0.00111547 0.00111547 0.00111547 0.00111547 0.00111547 0.00111547 0.00121189 0.00157876 0.00196372 0.00220218 0.00226093 0.00200957 0.00160379 0.0012171 0.00111547 0.00111547 0.00111547 0.00111547 0.00111547 0.00111547 0.00111547 0.00111547 0.0012171 0.00160379 0.00200957 0.00226093 0.00230902 0.002047 0.00162437 0.00122131 0.00111547 0.00111547 0.00111547 0.00111547 0.00111547 0.00111547 0.00111547 0.00111547 0.00122131 0.00162437 0.002047 0.00230902 0.00234793 0.00207749 0.00164097 0.00122478 0.00111547 0.00111547 0.00111547 0.00111547 0.00111547 0.00111547 0.00111547 0.00111547 0.00122478 0.00164097 0.00207749 0.00234793 0.00237917 0.00210203 0.00165436 0.00122751 0.00111547 0.00111547 0.00111547 0.00111547 0.00111547 0.00111547 0.00111547 0.00111547 0.00122751 0.00165436 0.00210203 0.00237917 0.00240346 0.00212087 0.00166452 0.00122974 0.00111547 0.00111547 0.00111547 0.00111547 0.00111547 0.00111547 0.00111547 0.00111547 0.00122974 0.00166452 0.00212087 0.00240346 0.00242131 0.00213475 0.00167221 0.00123123 0.00111547 0.00111547 0.00111547 0.00111547 0.00111547 0.00111547 0.00111547 0.00111547 0.00123123 0.00167221 0.00213475 0.00242131 0.0024332 0.00214393 0.00167717 0.00123247 0.00111547 0.00111547 0.00111547 0.00111547 0.00111547 0.00111547 0.00111547 0.00111547 0.00123247 0.00167717 0.00214393 0.0024332 0.0024389 0.00214864 0.00167964 0.00123296 0.00111547 0.00111547 0.00111547 0.00111547 0.00111547 0.00111547 0.00111547 0.00111547 0.00123296 0.00167964 0.00214864 0.0024389 0.0024389 0.00214864 0.00167964 0.00123296 0.00111547 0.00111547 0.00111547 0.00111547 0.00111547 0.00111547 0.00111547 0.00111547 0.00123296 0.00167964 0.00214864 0.0024389 0.0024332 0.00214393 0.00167717 0.00123247 0.00111547 0.00111547 0.00111547 0.00111547 0.00111547 0.00111547 0.00111547 0.00111547 0.00123247 0.00167717 0.00214393 0.0024332 0.00242131 0.00213475 0.00167221 0.00123123 0.00111547 0.00111547 0.00111547 0.00111547 0.00111547 0.00111547 0.00111547 0.00111547 0.00123123 0.00167221 0.00213475 0.00242131 0.00240346 0.00212087 0.00166452 0.00122974 0.00111547 0.00111547 0.00111547 0.00111547 0.00111547 0.00111547 0.00111547 0.00111547 0.00122974 0.00166452 0.00212087 0.00240346 0.00237917 0.00210203 0.00165436 0.00122751 0.00111547 0.00111547 0.00111547 0.00111547 0.00111547 0.00111547 0.00111547 0.00111547 0.00122751 0.00165436 0.00210203 0.00237917 0.00234793 0.00207749 0.00164097 0.00122478 0.00111547 0.00111547 0.00111547 0.00111547 0.00111547 0.00111547 0.00111547 0.00111547 0.00122478 0.00164097 0.00207749 0.00234793 0.00230902 0.002047 0.00162437 0.00122131 0.00111547 0.00111547 0.00111547 0.00111547 0.00111547 0.00111547 0.00111547 0.00111547 0.00122131 0.00162437 0.002047 0.00230902 0.00226093 0.00200957 0.00160379 0.0012171 0.00111547 0.00111547 0.00111547 0.00111547 0.00111547 0.00111547 0.00111547 0.00111547 0.0012171 0.00160379 0.00200957 0.00226093 0.00220218 0.00196372 0.00157876 0.00121189 0.00111547 0.00111547 0.00111547 0.00111547 0.00111547 0.00111547 0.00111547 0.00111547 0.00121189 0.00157876 0.00196372 0.00220218 0.0021293 0.0019067 0.00154777 0.00120545 0.00111547 0.00111547 0.00111547 0.00111547 0.00111547 0.00111547 0.00111547 0.00111547 0.00120545 0.00154777 0.0019067 0.0021293 0.00203585 0.00183407 0.00150786 0.00119702 0.00111547 0.00111547 0.00111547 0.00111547 0.00111547 0.00111547 0.00111547 0.00111547 0.00119702 0.00150786 0.00183407 0.00203585 0.00190745 0.00173368 0.00145308 0.00118562 0.00111547 0.00111547 0.00111547 0.00111547 0.00111547 0.00111547 0.00111547 0.00111547 0.00118562 0.00145308 0.00173368 0.00190745 0.00168584 0.00156066 0.00135864 0.00116603 0.00111547 0.00111547 0.00111547 0.00111547 0.00111547 0.00111547 0.00111547 0.00111547 0.00116603 0.00135864 0.00156066 0.00168584 0.00111547 0.00111547 0.00111547 0.00111547 0.00111547 0.00111547 0.00111547 0.00111547 0.00111547 0.00111547 0.00111547 0.00111547 0.00111547 0.00111547 0.00111547 0.00111547 0.00111547 0.00111547 0.00111547 0.00111547 0.00111547 0.00111547 0.00111547 0.00111547 0.00111547 0.00111547 0.00111547 0.00111547 0.00111547 0.00111547 0.00111547 0.00111547 0.00111547 0.00111547 0.00111547 0.00111547 0.00111547 0.00111547 0.00111547 0.00111547 0.00111547 0.00111547 0.00111547 0.00111547 0.00111547 0.00111547 0.00111547 0.00111547 0.00111547 0.00111547 
</DataArray>
<DataArray type="Float64" Name="cell variable 6" format="ascii">
1 1 1 1 1 1 1 1 1 1 1 1 1 1 1 1 1 1 1 1 1 1 1 1 1 1 1 1 1 1 1 1 1 1 1 1 1 1 1 1 1 1 1 1 1 1 1 1 1 1 1 1 1 1 1 1 1 1 1 1 1 1 1 1 1 1 1 1 1 1 1 1 1 1 1 1 1 1 1 1 1 1 1 1 1 1 1 1 1 1 1 1 1 1 1 1 1 1 1 1 1 1 1 1 1 1 1 1 1 1 1 1 1 1 1 1 1 1 1 1 1 1 1 1 1 1 1 1 1 1 1 1 1 1 1 1 1 1 1 1 1 1 1 1 1 1 1 1 1 1 1 1 1 1 1 1 1 1 1 1 1 1 1 1 1 1 1 1 1 1 1 1 1 1 1 1 1 1 1 1 1 1 1 1 1 1 1 1 1 1 1 1 1 1 1 1 1 1 1 1 1 1 1 1 1 1 1 1 1 1 1 1 1 1 1 1 1 1 1 1 1 1 1 1 1 1 1 1 1 1 1 1 1 1 1 1 1 1 1 1 1 1 1 1 1 1 1 1 1 1 1 1 1 1 1 1 1 1 1 1 1 1 1 1 1 1 1 1 1 1 1 1 1 1 1 1 1 1 1 1 1 1 1 1 1 1 1 1 1 1 1 1 1 1 1 1 1 1 1 1 1 1 1 1 1 1 1 1 1 1 1 1 1 1 1 1 1 1 1 1 1 1 1 1 1 1 1 1 1 1 1 1 1 1 1 1 1 1 1 1 1 1 1 1 1 1 1 1 1 1 1 1 1 1 1 1 1 1 1 1 1 1 1 1 1 1 1 1 1 1 1 1 1 1 1 1 1 1 1 1 1 1 1 1 1 1 1 1 1 1 1 1 1 1 1 1 1 1 1 1 1 1 1 1 1 1 1 1 1 1 1 1 1 1 1 1 1 1 1 1 1 1 1 1 1 1 1 1 1 1 1 1 1 1 1 1 1 1 1 1 1 1 1 1 1 1 1 1 1 1 1 1 1 1 1 1 1 1 1 1 1 1 1 1 1 1 1 1 1 1 1 1 1 1 1 1 1 1 1 1 1 1 1 1 1 1 1 1 1 1 1 1 1 1 1 1 1 1 1 1 1 1 1 1 1 1 1 1 1 1 1 1 1 1 
</DataArray>
<DataArray type="Float64" Name="cell variable 7" format="ascii">
0 0 0 0 0 0 0 0 0 0 0 0 0 0 0 0 0 0 0 0 0 0 0 0 0 0 0 0 0 0 0 0 0 0 0 0 0 0 0 0 0 0 0 0 0 0 0 0 0 0 0 0 0 0 0 0 0 0 0 0 0 0 0 0 0 0 0 0 0 0 0 0 0 0 0 0 0 0 0 0 0 0 0 0 0 0 0 0 0 0 0 0 0 0 0 0 0 0 0 0 0 0 0 0 0 0 0 0 0 0 0 0 0 0 0 0 0 0 0 0 0 0 0 0 0 0 0 0 0 0 0 0 0 0 0 0 0 0 0 0 0 0 0 0 0 0 0 0 0 0 0 0 0 0 0 0 0 0 0 0 0 0 0 0 0 0 0 0 0 0 0 0 0 0 0 0 0 0 0 0 0 0 0 0 0 0 0 0 0 0 0 0 0 0 0 0 0 0 0 0 0 0 0 0 0 0 0 0 0 0 0 0 0 0 0 0 0 0 0 0 0 0 0 0 0 0 0 0 0 0 0 0 0 0 0 0 0 0 0 0 0 0 0 0 0 0 0 0 0 0 0 0 0 0 0 0 0 0 0 0 0 0 0 0 0 0 0 0 0 0 0 0 0 0 0 0 0 0 0 0 0 0 0 0 0 0 0 0 0 0 0 0 0 0 0 0 0 0 0 0 0 0 0 0 0 0 0 0 0 0 0 0 0 0 0 0 0 0 0 0 0 0 0 0 0 0 0 0 0 0 0 0 0 0 0 0 0 0 0 0 0 0 0 0 0 0 0 0 0 0 0 0 0 0 0 0 0 0 0 0 0 0 0 0 0 0 0 0 0 0 0 0 0 0 0 0 0 0 0 0 0 0 0 0 0 0 0 0 0 0 0 0 0 0 0 0 0 0 0 0 0 0 0 0 0 0 0 0 0 0 0 0 0 0 0 0 0 0 0 0 0 0 0 0 0 0 0 0 0 0 0 0 0 0 0 0 0 0 0 0 0 0 0 0 0 0 0 0 0 0 0 0 0 0 0 0 0 0 0 0 0 0 0 0 0 0 0 0 0 0 0 0 0 0 0 0 0 0 0 0 0 0 0 0 0 0 0 0 0 0 0 0 0 0 0 0 0 0 0 0 0 0 0 0 0 0 0 0 0 0 0 0 1 1 
</DataArray>
<DataArray type="Float64" Name="cell variable 8" format="ascii">
11.25 33.75 56.25 78.75 101.25 123.75 146.25 168.75 191.25 213.75 236.25 258.75 281.25 303.75 326.25 348.75 11.25 33.75 56.25 78.75 101.25 123.75 146.25 168.75 191.25 213.75 236.25 258.75 281.25 303.75 326.25 348.75 11.25 33.75 56.25 78.75 101.25 123.75 146.25 168.75 191.25 213.75 236.25 258.75 281.25 303.75 326.25 348.75 11.25 33.75 56.25 78.75 101.25 123.75 146.25 168.75 191.25 213.75 236.25 258.75 281.25 303.75 326.25 348.75 11.25 33.75 56.25 78.75 101.25 123.75 146.25 168.75 191.25 213.75 236.25 258.75 281.25 303.75 326.25 348.75 11.25 33.75 56.25 78.75 101.25 123.75 146.25 168.75 191.25 213.75 236.25 258.75 281.25 303.75 326.25 348.75 11.25 33.75 56.25 78.75 101.25 123.75 146.25 168.75 191.25 213.75 236.25 258.75 281.25 303.75 326.25 348.75 11.25 33.75 56.25 78.75 101.25 123.75 146.25 168.75 191.25 213.75 236.25 258.75 281.25 303.75 326.25 348.75 11.25 33.75 56.25 78.75 101.25 123.75 146.25 168.75 191.25 213.75 236.25 258.75 281.25 303.75 326.25 348.75 11.25 33.75 56.25 78.75 101.25 123.75 146.25 168.75 191.25 213.75 236.25 258.75 281.25 303.75 326.25 348.75 11.25 33.75 56.25 78.75 101.25 123.75 146.25 168.75 191.25 213.75 236.25 258.75 281.25 303.75 326.25 348.75 11.25 33.75 56.25 78.75 101.25 123.75 146.25 168.75 191.25 213.75 236.25 258.75 281.25 303.75 326.25 348.75 11.25 33.75 56.25 78.75 101.25 123.75 146.25 168.75 191.25 213.75 236.25 258.75 281.25 303.75 326.25 348.75 11.25 33.75 56.25 78.75 101.25 123.75 146.25 168.75 191.25 213.75 236.25 258.75 281.25 303.75 326.25 348.75 11.25 33.75 56.25 78.75 101.25 123.75 146.25 168.75 191.25 213.75 236.25 258.75 281.25 303.75 326.25 348.75 11.25 33.75 56.25 78.75 101.25 123.75 146.25 168.75 191.25 213.75 236.25 258.75 281.25 303.75 326.25 348.75 11.25 33.75 56.25 78.75 101.25 123.75 146.25 168.75 191.25 213.75 236.25 258.75 281.25 303.75 326.25 348.75 11.25 33.75 56.25 78.75 101.25 123.75 146.25 168.75 191.25 213.75 236.25 258.75 281.25 303.75 326.25 348.75 11.25 33.75 56.25 78.75 101.25 123.75 146.25 168.75 191.25 213.75 236.25 258.75 281.25 303.75 326.25 348.75 11.25 33.75 56.25 78.75 101.25 123.75 146.25 168.75 191.25 213.75 236.25 258.75 281.25 303.75 326.25 348.75 11.25 33.75 56.25 78.75 101.25 123.75 146.25 168.75 191.25 213.75 236.25 258.75 281.25 303.75 326.25 348.75 11.25 33.75 56.25 78.75 101.25 123.75 146.25 168.75 191.25 213.75 236.25 258.75 281.25 303.75 326.25 348.75 11.25 33.75 56.25 78.75 101.25 123.75 146.25 168.75 191.25 213.75 236.25 258.75 281.25 303.75 326.25 348.75 11.25 33.75 56.25 78.75 101.25 123.75 146.25 168.75 191.25 213.75 236.25 258.75 281.25 303.75 326.25 348.75 11.25 33.75 56.25 78.75 101.25 123.75 146.25 168.75 191.25 213.75 236.25 258.75 281.25 303.75 326.25 348.75 11.25 33.75 56.25 78.75 101.25 123.75 146.25 168.75 191.25 213.75 236.25 258.75 281.25 303.75 326.25 348.75 11.25 33.75 56.25 78.75 101.25 123.75 146.25 168.75 191.25 213.75 236.25 258.75 281.25 303.75 326.25 348.75 11.25 33.75 56.25 78.75 101.25 123.75 146.25 168.75 191.25 213.75 236.25 258.75 281.25 303.75 326.25 348.75 11.25 33.75 56.25 78.75 101.25 123.75 146.25 168.75 191.25 213.75 236.25 258.75 281.25 303.75 326.25 348.75 11.25 33.75 56.25 78.75 101.25 123.75 146.25 168.75 191.25 213.75 236.25 258.75 281.25 303.75 326.25 348.75 11.25 33.75 56.25 78.75 101.25 123.75 146.25 168.75 191.25 213.75 236.25 258.75 281.25 303.75 326.25 348.75 11.25 33.75 56.25 78.75 101.25 123.75 146.25 168.75 191.25 213.75 236.25 258.75 281.25 303.75 326.25 348.75 0 0 
</DataArray>
</CellData>
</Piece>
</UnstructuredGrid>
</VTKFile>
