<VTKFile type="UnstructuredGrid" version="0.1">
<UnstructuredGrid>
<Piece  NumberOfPoints="    2080" NumberOfCells="     514">
<Points>
<DataArray type="Float64" NumberOfComponents="3" format="ascii">
-79.6762 961.006 1.65981
-75.8901 964.422 27.4166
-61.5742 940.483 29.5406
-65.7073 936.792 1.67402
-75.0396 965.18 30.1699
-64.1569 974.854 52.0125
-48.9226 951.719 55.8828
-60.7237 941.241 32.2939
-62.5786 976.249 54.1182
-46.1994 990.657 68.6993
-29.6297 968.7 73.7252
-47.3443 953.113 57.9884
-44.1309 992.471 69.8372
-24.7748 1009.42 74.936
-6.61663 988.815 80.3757
-27.5612 970.514 74.8632
-22.5352 1011.38 74.9341
-3.18952 1028.31 69.792
16.5483 1009.09 74.8401
-4.37698 990.774 80.3738
-1.12468 1030.13 68.6534
15.2095 1044.57 54.0839
36.29 1026.58 57.9759
18.6132 1010.91 73.7014
16.7818 1045.98 51.9805
27.6234 1055.79 30.1833
49.5686 1038.66 32.2769
37.8622 1027.98 55.8726
28.4688 1056.56 27.4303
32.2542 1060.06 1.67495
54.4882 1043.24 1.65437
50.414 1039.43 29.5238
32.2532 1060.07 -1.30751
28.4499 1056.6 -27.0672
50.3985 1039.48 -29.1943
54.4872 1043.24 -1.32809
27.6032 1055.83 -29.8199
16.7533 1046.05 -51.6247
37.846 1028.06 -55.53
49.5518 1038.71 -31.9471
15.1814 1044.64 -53.728
-1.14618 1030.19 -68.3003
18.6013 1010.98 -73.3631
36.2741 1026.65 -57.6333
-3.21027 1028.37 -69.4396
-22.5477 1011.43 -74.586
-4.37825 990.84 -80.0459
16.5372 1009.16 -74.5024
-24.7862 1009.47 -74.5887
-44.132 992.506 -69.4948
-27.5468 970.562 -74.5446
-6.61675 988.879 -80.0486
-46.198 990.69 -68.3573
-62.5388 976.245 -53.7713
-47.3114 953.143 -57.6681
-29.6128 968.746 -73.4071
-64.1155 974.848 -51.6646
-74.9868 965.159 -29.8272
-60.7016 941.248 -31.9393
-48.8881 951.746 -55.5614
-75.8395 964.4 -27.0723
-79.6743 961.005 -1.32165
-65.7055 936.791 -1.30744
-61.5543 940.489 -29.1843
-63.8275 934.1 1.74872
-59.6944 937.792 29.6153
-39.7748 913.111 30.2168
-44.0096 909.343 1.74174
-46.9976 949.064 56.0944
-26.8096 924.586 57.2109
-38.8792 913.907 33.107
-58.7987 938.587 32.5055
-27.6243 966.113 74.0403
-7.03464 941.923 75.5122
-25.1509 926.048 59.42
-45.3389 950.526 58.3035
-4.50725 986.314 80.747
16.5632 962.459 82.3606
-4.86212 943.823 76.7063
-25.4518 968.014 75.2345
18.7709 1006.68 75.2127
40.3207 983.171 76.7188
18.9159 964.512 82.36
-2.15446 988.368 80.7465
38.6134 1024.26 58.2944
60.4843 1001.12 59.4603
42.4864 985.078 75.5258
20.9366 1008.59 74.0198
51.9627 1036.42 32.4912
73.9037 1013.65 33.1024
62.1273 1002.6 57.2529
40.2564 1025.74 56.087
56.9168 1041.05 1.72821
78.8624 1018.4 1.71127
74.7836 1014.47 30.2089
52.8426 1037.24 29.5977
52.8272 1037.28 -29.2719
74.7661 1014.5 -29.9085
78.8614 1018.41 -1.4226
56.9159 1041.05 -1.40566
40.2407 1025.82 -55.7466
62.1181 1002.67 -56.9216
73.8855 1013.68 -32.8003
51.9466 1036.47 -32.1637
20.9256 1008.66 -73.6829
42.4806 985.155 -75.2043
60.4759 1001.19 -59.1282
38.5985 1024.34 -57.9532
-2.1549 988.435 -80.4204
18.9178 964.583 -82.0501
40.3155 983.248 -76.3983
18.7605 1006.76 -74.8769
-25.4366 968.063 -74.9181
-4.84962 943.879 -76.4064
16.5661 962.529 -82.0517
-4.50653 986.38 -80.4221
-45.3064 950.558 -57.9855
-25.1299 926.086 -59.1277
-7.02086 941.977 -75.2129
-27.6079 966.16 -73.7245
-58.7788 938.595 -32.1523
-38.8766 913.914 -32.773
-26.7888 924.622 -56.9166
-46.9653 949.093 -55.7744
-59.6758 937.798 -29.2592
-63.827 934.1 -1.38238
-44.009 909.343 -1.38936
-39.7737 913.117 -29.88
-41.7473 906.635 1.76048
-37.5126 910.404 30.2355
-16.5683 886.296 30.3359
-20.8227 882.504 1.74935
-36.6045 911.209 33.1623
-24.5349 921.888 57.2662
-3.52954 897.825 57.4555
-15.6602 887.101 33.2626
-22.8525 923.366 59.5034
-4.73623 939.24 75.5955
16.387 915.209 75.8315
-1.84715 899.303 59.6927
-2.53099 941.159 76.8048
18.8943 959.795 82.459
40.1813 935.755 82.691
18.5922 917.127 77.0407
21.2833 961.866 82.4579
42.688 980.524 76.8166
64.1467 956.446 77.0093
42.5703 937.826 82.6898
44.8798 982.452 75.6088
62.8777 998.494 59.5432
84.3414 974.529 59.6729
66.3385 958.375 75.8015
64.5252 1000.01 57.3101
76.3016 1011.06 33.1596
97.5751 987.468 33.251
85.9889 976.046 57.4398
77.1772 1011.91 30.2286
81.256 1015.84 1.73094
102.464 992.403 1.72761
98.4508 988.317 30.32
81.2552 1015.84 -1.44437
77.1599 1011.94 -29.9303
98.4352 988.345 -30.0351
102.463 992.404 -1.4477
76.2838 1011.09 -32.8595
64.5165 1000.08 -56.9808
85.979 976.108 -57.1342
97.5592 987.5 -32.9643
62.8694 998.565 -59.2131
44.8742 982.529 -75.2893
66.33 958.448 -75.5054
84.3319 974.594 -59.3666
42.6828 980.601 -76.4982
21.2851 961.937 -82.15
42.5681 937.895 -82.4047
64.1386 956.52 -76.7144
18.8969 959.865 -82.1523
-2.51883 941.215 -76.507
18.5986 917.184 -76.7661
40.1799 935.824 -82.4069
-4.72325 939.295 -75.2988
-22.8323 923.404 -59.2136
-1.83432 899.34 -59.429
16.3942 915.264 -75.5579
-24.5153 921.924 -56.9746
-36.6032 911.216 -32.831
-15.6665 887.105 -32.9558
-3.51736 897.86 -57.19
-37.5121 910.41 -29.9011
-41.7475 906.635 -1.4104
-20.8229 882.505 -1.42152
-16.5754 886.299 -30.0259
-18.5153 879.837 1.75344
-14.2609 883.629 30.34
6.39567 859.672 30.3515
2.04758 855.961 1.74047
-13.3395 884.428 33.275
-1.20883 895.152 57.4679
19.6957 870.975 57.4855
7.31706 860.471 33.2865
0.496068 896.619 59.7078
18.7302 912.525 75.8465
39.9648 888.044 75.8416
21.4006 872.441 59.7253
20.9625 914.426 77.0533
42.5516 933.054 82.7035
64.1332 908.236 82.6593
42.1971 889.946 77.0483
44.9687 935.104 82.6978
66.545 953.725 77.0173
88.4647 928.572 76.9542
66.5503 910.286 82.6536
68.7659 955.636 75.8016
86.7688 971.791 59.673
109.13 946.186 59.6009
90.6856 930.483 75.7385
88.4371 973.296 57.4311
100.023 984.718 33.2423
122.889 958.651 33.2012
110.798 947.692 57.3589
100.906 985.56 30.3161
104.919 989.647 1.72368
127.979 963.429 1.71635
123.771 959.493 30.275
104.918 989.648 -1.44524
100.89 985.589 -30.0326
123.754 959.526 -30.0127
127.978 963.431 -1.45258
100.007 984.75 -32.958
88.4269 973.358 -57.1279
110.783 947.756 -57.0833
122.871 958.687 -32.938
86.759 971.855 -59.3695
68.757 955.709 -75.5084
90.6744 930.554 -75.4713
109.115 946.252 -59.3249
66.5366 953.798 -76.7251
44.9661 935.174 -82.4154
66.5452 910.355 -82.3971
88.454 928.644 -76.688
42.5497 933.123 -82.4222
20.9684 914.483 -76.7814
42.1994 890.002 -76.8031
64.1288 908.304 -82.4039
18.7368 912.58 -75.5758
0.508314 896.656 -59.4468
21.409 872.478 -59.4921
39.9678 888.099 -75.5975
-1.19726 895.187 -57.2053
-13.3464 884.432 -32.9711
7.30773 860.473 -33.0095
19.7034 871.008 -57.2505
-14.2683 883.631 -30.0328
-18.5158 879.837 -1.42842
2.04713 855.961 -1.44139
6.38582 859.672 -30.0712
4.30899 853.287 1.73993
8.65708 856.998 30.3509
28.7991 832.725 30.3425
24.3655 829.109 1.72778
9.59681 857.779 33.2871
21.9754 868.282 57.4861
42.3467 843.748 57.4767
29.7388 833.506 33.2787
23.7117 869.717 59.7253
42.2759 885.32 75.8416
62.9605 860.418 75.8278
44.0829 845.183 59.716
44.5455 887.182 77.0462
66.4816 905.472 82.6572
87.5111 880.156 82.638
65.23 862.281 77.0324
68.9371 907.481 82.6491
90.8515 925.767 76.9498
112.232 900.022 76.9235
89.9666 882.165 82.63
93.1134 927.63 75.734
111.558 943.334 59.5964
133.319 917.146 59.5841
114.493 901.886 75.7078
113.274 944.789 57.356
125.364 955.748 33.1984
147.514 929.123 33.1834
135.036 918.601 57.3438
126.282 956.556 30.2731
130.489 960.493 1.7145
152.787 933.704 1.70232
148.432 929.931 30.2581
130.488 960.495 -1.45323
126.264 956.59 -30.0133
148.41 929.965 -30.0274
152.786 933.706 -1.46541
125.346 955.785 -32.9379
113.258 944.853 -57.0832
135.018 918.668 -57.0927
147.492 929.16 -32.952
111.543 943.4 -59.3231
93.102 927.702 -75.4695
114.482 901.957 -75.4653
133.302 917.214 -59.3326
90.8407 925.838 -76.6863
68.9318 907.549 -82.3954
89.9608 882.233 -82.3994
112.22 900.094 -76.6821
66.477 905.54 -82.4046
44.5475 887.239 -76.8038
65.2308 862.337 -76.8146
87.5059 880.224 -82.4086
42.2786 885.375 -75.6004
23.7198 869.753 -59.4949
44.0894 845.218 -59.511
62.9618 860.473 -75.6112
21.9829 868.316 -57.2539
9.58724 857.78 -33.013
29.7282 833.506 -33.0293
42.3526 843.781 -57.27
8.64714 856.997 -30.0734
4.30844 853.287 -1.44368
24.3649 829.109 -1.45583
28.7881 832.723 -30.0898
26.5671 826.396 1.72666
31.0007 830.013 30.3414
50.5704 805.363 30.3325
46.0572 801.848 1.71525
31.9576 830.773 33.2779
44.5654 841.015 57.4759
64.3545 816.084 57.4704
51.5273 806.124 33.269
46.3318 842.414 59.7154
65.2093 857.649 75.8272
85.3116 832.314 75.8268
66.1208 817.483 59.7099
67.516 859.466 77.0317
89.7971 877.341 82.6372
110.258 851.545 82.6394
87.6184 834.131 77.0312
92.292 879.301 82.6286
114.557 897.158 76.9221
135.382 870.89 76.9186
112.752 853.505 82.6307
116.858 898.972 75.7066
135.684 914.231 59.583
156.86 887.515 59.5791
137.683 872.704 75.7031
137.44 915.639 57.3434
149.919 926.16 33.1829
171.415 899.04 33.1716
158.616 888.922 57.3395
150.864 926.936 30.2569
155.219 930.709 1.70111
176.837 903.434 1.68612
172.36 899.817 30.2456
155.218 930.711 -1.46732
150.842 926.97 -30.0293
172.334 899.853 -30.0478
176.836 903.436 -1.48231
149.896 926.197 -32.9545
137.423 915.705 -57.0951
158.598 888.99 -57.1132
171.388 899.08 -32.9729
135.667 914.3 -59.3339
116.847 899.043 -75.4666
137.672 872.776 -75.4851
156.843 887.584 -59.352
114.546 897.23 -76.6832
92.2861 879.369 -82.4005
112.747 853.573 -82.4251
135.371 870.962 -76.7017
89.7918 877.409 -82.4105
67.5167 859.522 -76.8165
87.6191 834.187 -76.8393
110.253 851.613 -82.435
65.2105 857.704 -75.6133
46.3382 842.449 -59.5131
66.127 817.517 -59.5312
85.313 832.368 -75.6362
44.5712 841.048 -57.2719
31.9468 830.773 -33.0312
51.5161 806.123 -33.0455
64.36 816.116 -57.29
30.9897 830.011 -30.0913
26.5665 826.396 -1.45735
46.0566 801.848 -1.46876
50.5589 805.36 -30.1055
48.1942 799.093 1.71417
52.7074 802.608 30.3314
71.6813 777.563 30.3227
67.0914 774.152 1.70343
53.6807 803.347 33.2683
66.5079 813.308 57.4698
85.6969 787.967 57.4659
72.6547 778.302 33.2596
68.3039 814.667 59.7099
87.4948 829.498 75.8268
106.999 803.729 75.8304
87.4929 789.327 59.706
89.8393 831.265 77.0317
112.478 848.68 82.6398
132.349 822.418 82.6474
109.344 805.496 77.0353
115.014 850.586 82.6309
137.643 867.971 76.9188
157.885 841.209 76.9215
134.885 824.323 82.6384
139.984 869.732 75.7029
159.161 884.543 59.5788
179.736 857.325 59.5749
160.225 842.97 75.7057
160.952 885.904 57.3392
173.75 896.022 33.1714
194.601 868.433 33.1615
181.527 858.685 57.3353
174.719 896.769 30.2444
179.196 900.386 1.68486
200.153 872.653 1.66681
195.569 869.18 30.2345
179.195 900.388 -1.48452
174.692 896.805 -30.05
195.542 869.215 -30.0678
200.151 872.655 -1.50258
173.723 896.061 -32.9754
160.934 885.972 -57.1158
181.51 858.753 -57.1334
194.573 868.472 -32.9933
159.144 884.613 -59.3542
139.973 869.804 -75.4873
160.215 843.042 -75.5115
179.72 857.394 -59.3718
137.633 868.043 -76.7043
115.009 850.654 -82.4277
134.881 824.391 -82.457
157.875 841.281 -76.7285
112.474 848.747 -82.438
89.8401 831.321 -76.8422
109.345 805.551 -76.868
132.346 822.485 -82.4673
87.4962 829.552 -75.6387
68.3102 814.701 -59.5338
87.4995 789.36 -59.5523
107.001 803.783 -75.6645
66.5135 813.339 -57.2919
53.6695 803.346 -33.0474
72.6432 778.3 -33.0605
85.7028 787.998 -57.3105
52.6959 802.605 -30.1069
48.1936 799.092 -1.47015
67.0908 774.152 -1.48089
71.6695 777.559 -30.1201
69.1616 771.353 1.70239
73.7515 774.764 30.3217
92.1172 749.319 30.3131
87.4522 746.016 1.69225
74.741 775.48 33.259
87.7833 785.146 57.4653
106.361 759.396 57.4611
93.1067 750.035 33.2504
89.6088 786.464 59.7061
109.115 800.866 75.8304
128.008 774.669 75.8329
108.187 760.714 59.7018
111.497 802.581 77.0359
134.503 819.503 82.648
153.765 792.786 82.6538
130.391 776.384 77.0384
137.08 821.352 82.6389
160.079 838.237 76.922
179.711 810.999 76.923
156.341 794.636 82.6447
162.459 839.944 75.7055
181.969 854.299 59.5747
201.923 826.597 59.5674
182.09 812.706 75.7065
183.793 855.614 57.3347
196.867 865.361 33.1609
217.067 837.309 33.1481
203.747 827.912 57.3273
197.855 866.081 30.2331
202.439 869.554 1.66538
222.732 841.367 1.64856
218.055 838.028 30.2202
202.437 869.556 -1.50465
197.828 866.116 -30.0699
218.028 838.062 -30.0841
222.731 841.369 -1.52147
196.839 865.4 -32.9954
183.776 855.681 -57.1355
203.732 827.978 -57.1504
217.039 837.346 -33.0096
181.954 854.368 -59.374
162.449 840.016 -75.5137
182.082 812.777 -75.5365
201.91 826.666 -59.3889
160.07 838.309 -76.7314
137.076 821.42 -82.4598
156.339 794.702 -82.4871
179.703 811.07 -76.7541
134.5 819.569 -82.4703
111.499 802.636 -76.871
130.393 776.438 -76.8949
153.763 792.852 -82.4975
109.117 800.92 -75.667
89.6155 786.497 -59.5548
108.194 760.746 -59.5719
128.011 774.721 -75.6909
87.7892 785.176 -57.3122
74.7296 775.478 -33.0622
93.0951 750.032 -33.0743
106.368 759.425 -57.3294
73.7397 774.76 -30.1214
69.161 771.353 -1.4822
87.4516 746.016 -1.49234
92.1052 749.314 -30.1334
89.4544 743.173 1.69125
94.1194 746.476 30.3121
111.868 720.634 30.3037
107.129 717.443 1.68165
95.1248 747.169 33.2497
108.379 756.53 57.4604
126.337 730.375 57.4553
112.874 721.328 33.2413
110.234 757.805 59.7017
130.055 771.76 75.8328
148.325 745.143 75.8326
128.192 731.651 59.6967
132.476 773.42 77.0387
155.85 789.823 82.6541
174.486 762.667 82.6561
150.746 746.803 77.0385
158.468 791.613 82.6448
181.837 807.977 76.9232
200.838 780.281 76.9211
177.103 764.457 82.6468
184.254 809.628 75.706
204.087 823.519 59.5669
223.401 795.352 59.5579
203.255 781.932 75.704
205.941 824.788 57.3264
219.262 834.186 33.1471
238.803 805.679 33.134
225.255 796.621 57.3174
220.268 834.879 30.2187
224.945 838.217 1.64708
244.571 809.583 1.63184
239.809 806.372 30.2057
224.943 838.219 -1.52326
220.241 834.913 -30.0859
239.783 806.404 -30.0988
244.569 809.585 -1.53849
219.234 834.223 -33.0114
205.927 824.855 -57.1521
225.244 796.686 -57.1654
238.776 805.714 -33.0242
204.074 823.587 -59.3908
184.246 809.699 -75.5384
203.248 782.001 -75.558
223.391 795.418 -59.4041
181.829 808.047 -76.7567
158.465 791.68 -82.4896
177.102 764.522 -82.5127
200.832 780.35 -76.7763
155.848 789.889 -82.5002
132.479 773.474 -76.8976
150.75 746.855 -76.9181
174.485 762.731 -82.5233
130.059 771.812 -75.6931
110.242 757.837 -59.5742
128.2 731.681 -59.5895
148.33 745.193 -75.7136
108.386 756.558 -57.331
95.1132 747.166 -33.0759
112.862 721.324 -33.0871
126.345 730.402 -57.3463
94.1074 746.471 -30.1346
89.4538 743.173 -1.49356
107.129 717.442 -1.50315
111.856 720.629 -30.1458
109.063 714.556 1.68069
113.801 717.748 30.3028
130.925 691.516 30.2945
126.114 688.437 1.67169
114.822 718.417 33.2406
128.286 727.465 57.4546
145.615 700.913 57.4486
131.946 692.185 33.2324
130.17 728.697 59.6963
150.303 742.189 75.8323
167.937 715.162 75.8297
147.498 702.145 59.6904
152.761 743.792 77.0385
176.501 759.656 82.6561
194.496 732.074 82.6549
170.395 716.766 77.0359
179.159 761.386 82.6467
202.893 777.209 76.921
221.245 749.072 76.9167
197.153 733.803 82.6455
205.347 778.804 75.7033
225.494 792.224 59.5572
244.149 763.609 59.5478
223.699 750.667 75.699
227.377 793.448 57.3163
240.924 802.506 33.1329
259.794 773.556 33.1206
246.033 764.833 57.3069
241.948 803.173 30.2043
246.709 806.384 1.63042
265.657 777.311 1.61673
260.817 774.223 30.1919
246.708 806.386 -1.54009
241.921 803.205 -30.1004
260.792 774.252 -30.1125
265.656 777.312 -1.55378
240.898 802.541 -33.0258
227.366 793.512 -57.1669
246.023 764.895 -57.179
259.768 773.588 -33.0379
225.483 792.29 -59.4058
205.341 778.873 -75.5597
223.695 750.733 -75.5764
244.141 763.673 -59.4179
202.887 777.278 -76.7784
179.157 761.45 -82.5149
197.153 733.865 -82.534
221.241 749.138 -76.7951
176.501 759.72 -82.5255
152.765 743.844 -76.9203
170.4 716.815 -76.9376
194.496 732.135 -82.5447
150.307 742.239 -75.7155
130.178 728.726 -59.5914
147.507 702.173 -59.6048
167.943 715.21 -75.7327
128.294 727.491 -57.3477
114.811 718.413 -33.0885
131.934 692.18 -33.0987
145.622 700.938 -57.3611
113.789 717.742 -30.147
109.062 714.556 -1.50428
126.113 688.437 -1.51329
130.912 691.51 -30.1572
127.977 685.508 1.67076
132.789 688.586 30.2936
149.279 661.972 30.2855
144.397 659.009 1.66237
133.825 689.231 33.2316
147.493 697.959 57.4479
164.184 671.017 57.4412
150.316 662.617 33.2236
149.405 699.146 59.6899
169.844 712.164 75.8292
186.834 684.735 75.825
166.096 672.204 59.6832
172.339 713.709 77.0356
196.439 729.017 82.6546
213.78 701.019 82.6512
189.329 686.281 77.0314
199.136 730.684 82.6451
223.228 745.953 76.9162
240.917 717.388 76.9106
216.476 702.686 82.6417
225.718 747.49 75.6982
246.168 760.432 59.547
264.15 731.383 59.5376
243.407 718.925 75.6925
248.08 761.611 57.3058
261.841 770.334 33.1195
280.026 740.951 33.1082
266.062 732.562 57.2964
262.88 770.976 30.1906
267.72 774.063 1.61541
285.978 744.561 1.60309
281.065 741.594 30.1793
267.718 774.065 -1.55522
262.855 771.005 -30.1139
281.041 741.62 -30.1252
285.976 744.562 -1.56754
261.815 770.366 -33.0392
248.071 761.673 -57.1804
266.055 732.621 -57.1916
280.001 740.981 -33.0506
246.16 760.495 -59.4194
225.714 747.555 -75.5779
243.404 718.987 -75.5921
264.145 731.443 -59.4306
223.224 746.019 -76.7969
199.136 730.746 -82.5358
216.478 702.745 -82.5517
240.914 717.451 -76.8111
196.44 729.078 -82.5466
172.344 713.758 -76.9394
189.335 686.327 -76.9538
213.782 701.077 -82.5624
169.85 712.211 -75.7343
149.414 699.174 -59.6064
166.105 672.229 -59.6179
186.841 684.779 -75.7487
147.501 697.984 -57.3624
133.813 689.226 -33.1
150.303 662.611 -33.1092
164.193 671.039 -57.3739
132.776 688.58 -30.1582
127.976 685.508 -1.51433
144.396 659.009 -1.52272
149.266 661.965 -30.1674
146.19 656.038 1.6615
151.072 659.001 30.2847
166.923 632.015 30.2771
161.971 629.169 1.65378
152.123 659.621 33.2228
165.992 668.021 57.4404
182.038 640.7 57.4337
167.974 632.635 33.2152
167.931 669.162 59.6826
188.669 681.693 75.8244
205.005 653.876 75.819
183.977 641.842 59.6758
191.199 683.179 77.0309
215.651 697.918 82.6507
232.326 669.519 82.6458
207.535 655.362 77.0255
218.385 699.521 82.6411
242.826 714.223 76.91
259.838 685.246 76.9035
235.061 671.122 82.6361
245.351 715.701 75.6917
266.094 728.159 59.5368
283.389 698.692 59.5277
262.363 686.724 75.6851
268.033 729.293 57.2953
281.996 737.682 33.1071
299.485 707.881 33.0967
285.328 699.826 57.2863
283.05 738.299 30.1781
287.963 741.266 1.60187
305.52 711.346 1.59079
300.538 708.498 30.1676
287.962 741.267 -1.56883
283.026 738.326 -30.1265
300.515 708.523 -30.137
305.519 711.348 -1.57991
281.972 737.711 -33.0518
268.026 729.351 -57.1928
285.323 699.881 -57.203
299.461 707.909 -33.0623
266.089 728.219 -59.4319
245.348 715.763 -75.5934
262.362 686.783 -75.6054
283.386 698.749 -59.442
242.824 714.285 -76.8126
218.387 699.579 -82.5532
235.064 671.177 -82.5662
259.837 685.305 -76.8246
215.653 697.975 -82.5639
191.206 683.225 -76.9554
207.542 655.404 -76.9673
232.33 669.573 -82.5769
188.676 681.737 -75.7501
167.941 669.187 -59.6193
183.987 641.864 -59.6293
205.012 653.916 -75.762
166 668.043 -57.3751
152.111 659.615 -33.1103
167.961 632.627 -33.1187
182.046 640.72 -57.3851
151.059 658.994 -30.1683
146.189 656.037 -1.52367
161.971 629.169 -1.53139
166.909 632.006 -30.1767
163.693 626.157 1.65297
168.644 629.003 30.2763
183.848 601.656 30.2694
178.829 598.93 1.64597
169.71 629.597 33.2145
183.774 637.663 57.4329
199.165 609.976 57.4263
184.913 602.25 33.2076
185.739 638.758 59.6752
206.767 650.792 75.8183
222.439 622.599 75.8124
201.131 611.071 59.6685
209.332 652.217 77.0249
234.123 666.375 82.6452
250.122 637.59 82.6394
225.003 624.024 77.019
236.894 667.913 82.6355
261.671 682.037 76.9028
277.995 652.665 76.8958
252.893 639.129 82.6297
264.23 683.455 75.6843
285.257 695.423 59.5269
301.853 665.554 59.5183
280.554 654.083 75.6773
287.221 696.511 57.2853
301.378 704.566 33.0957
318.158 674.362 33.0862
303.818 666.641 57.2767
302.446 705.158 30.1665
307.428 708.006 1.58968
324.273 677.683 1.57973
319.226 674.954 30.157
307.427 708.007 -1.58107
302.423 705.183 -30.1381
319.204 674.976 -30.1476
324.272 677.684 -1.59102
301.355 704.593 -33.0634
287.217 696.565 -57.2041
303.815 666.693 -57.2131
318.136 674.387 -33.0728
285.254 695.479 -59.4432
264.23 683.514 -75.6066
280.555 654.138 -75.6166
301.852 665.607 -59.4522
261.671 682.095 -76.8259
236.898 667.967 -82.5674
252.898 639.179 -82.5781
277.996 652.72 -76.8359
234.127 666.428 -82.5782
209.339 652.26 -76.9686
225.011 624.063 -76.9786
250.127 637.64 -82.5889
206.775 650.832 -75.7632
185.749 638.78 -59.6305
201.141 611.09 -59.6392
222.447 622.636 -75.7731
183.782 637.682 -57.3861
169.697 629.59 -33.1196
184.9 602.242 -33.1272
199.174 609.993 -57.3948
168.631 628.994 -30.1775
163.692 626.157 -1.53225
178.829 598.93 -1.53925
183.833 601.646 -30.185
180.479 595.879 1.64524
185.497 598.604 30.2687
200.045 570.909 30.2624
194.963 568.305 1.639
186.576 599.173 33.2068
200.828 606.899 57.4255
215.558 578.858 57.4192
201.125 571.477 33.2005
202.82 607.946 59.6678
224.127 619.474 75.8117
239.126 590.92 75.8056
217.549 579.905 59.6615
226.725 620.839 77.0183
251.843 634.404 82.6387
267.156 605.249 82.6325
241.723 592.284 77.0122
254.651 635.877 82.629
279.752 649.413 76.8951
295.377 619.662 76.8881
269.964 606.721 82.6228
282.344 650.771 75.6765
303.643 662.241 59.5175
319.529 631.986 59.5095
297.968 621.019 75.6695
305.632 663.282 57.2758
319.972 671.003 33.0852
336.034 640.41 33.0766
321.518 633.028 57.2678
321.054 671.57 30.156
326.101 674.298 1.57872
342.225 643.586 1.56983
337.116 640.977 30.1474
326.1 674.3 -1.59205
321.032 671.592 -30.1486
337.095 640.997 -30.1571
342.224 643.588 -1.60094
319.951 671.028 -33.0738
305.63 663.333 -57.2141
321.517 633.075 -57.2221
336.013 640.433 -33.0823
303.642 662.294 -59.4532
282.345 650.825 -75.6176
297.971 621.069 -75.626
319.529 632.035 -59.4612
279.754 649.467 -76.837
254.656 635.927 -82.5791
269.97 606.768 -82.5878
295.38 619.712 -76.8454
251.849 634.454 -82.5899
226.733 620.877 -76.9796
241.733 592.319 -76.9878
267.163 605.294 -82.5985
224.136 619.511 -75.7741
202.83 607.965 -59.6402
217.56 579.921 -59.6476
239.135 590.953 -75.7823
200.837 606.915 -57.3957
186.563 599.165 -33.128
201.111 571.468 -33.1346
215.567 578.872 -57.4031
185.483 598.595 -30.1858
180.478 595.878 -1.54002
194.962 568.304 -1.54626
200.031 570.898 -30.1924
196.539 565.215 1.63835
201.622 567.819 30.2617
215.508 539.788 30.2561
210.364 537.307 1.63292
202.715 568.362 33.1999
217.148 575.742 57.4185
231.207 547.361 57.4126
216.601 540.331 33.1943
219.163 576.742 59.6608
240.74 587.756 75.8049
255.057 558.855 75.7989
233.223 548.36 59.6549
243.369 589.058 77.0115
268.802 602.023 82.6319
283.42 572.513 82.6256
257.686 560.156 77.0055
271.643 603.429 82.6221
297.056 616.369 76.8874
311.972 586.254 76.8806
286.261 573.918 82.6158
299.679 617.665 75.6687
321.24 628.632 59.5087
336.405 598.008 59.5014
314.594 587.55 75.6619
323.253 629.627 57.267
337.769 637.009 33.0757
353.102 606.045 33.068
338.418 599.003 57.2597
338.863 637.551 30.1465
343.972 640.16 1.56892
359.365 609.075 1.56106
354.196 606.586 30.1387
343.971 640.161 -1.60186
338.842 637.571 -30.158
354.176 606.604 -30.1655
359.364 609.076 -1.60972
337.748 637.032 -33.0832
323.252 629.674 -57.223
338.419 599.046 -57.2299
353.082 606.065 -33.0907
321.241 628.681 -59.4621
299.682 617.715 -75.6269
314.599 587.596 -75.6337
336.408 598.053 -59.469
297.06 616.419 -76.8462
271.65 603.474 -82.5886
286.269 573.959 -82.5955
311.977 586.3 -76.8531
268.809 602.068 -82.5994
243.379 589.093 -76.9886
257.696 560.187 -76.9951
283.428 572.553 -82.6062
240.75 587.789 -75.7831
219.174 576.758 -59.6484
233.234 548.373 -59.6546
255.067 558.884 -75.7896
217.157 575.756 -57.4039
202.7 568.352 -33.1354
216.587 540.32 -33.1411
231.217 547.372 -57.4101
201.607 567.809 -30.1931
196.539 565.215 -1.54693
210.364 537.306 -1.55235
215.493 539.777 -30.1988
211.867 534.181 1.63235
217.011 536.662 30.2556
230.229 508.308 30.2507
225.026 505.952 1.62776
218.117 537.178 33.1937
232.723 544.209 57.412
246.106 515.501 57.4066
231.334 508.824 33.1888
234.762 545.159 59.6542
256.595 555.654 75.7982
270.224 526.419 75.7924
248.145 516.451 59.6488
259.255 556.892 77.0048
284.989 569.249 82.6249
298.903 539.398 82.6187
272.883 527.658 76.9989
287.862 570.586 82.6151
313.573 582.922 76.8799
327.771 552.461 76.8734
301.777 540.736 82.6089
316.225 584.156 75.6611
338.037 594.615 59.5007
352.473 563.639 59.4941
330.423 553.695 75.6546
340.072 595.562 57.2589
354.755 602.604 33.0672
369.351 571.284 33.0604
354.508 564.586 57.2524
355.862 603.119 30.1379
361.031 605.608 1.56025
375.683 574.167 1.5534
370.458 571.799 30.1311
361.03 605.609 -1.61052
355.842 603.137 -30.1663
370.439 571.816 -30.1727
375.682 574.168 -1.61737
354.735 602.624 -33.0914
340.073 595.605 -57.2306
354.511 564.626 -57.2364
369.332 571.302 -33.0979
338.039 594.659 -59.4696
316.23 584.202 -75.6344
330.43 553.736 -75.6397
352.477 563.68 -59.4754
313.578 582.968 -76.8537
287.87 570.627 -82.5962
301.786 540.772 -82.6013
327.778 552.502 -76.8591
284.997 569.289 -82.6069
259.265 556.923 -76.9958
272.894 527.684 -77.0008
298.913 539.434 -82.612
256.606 555.682 -75.7902
234.773 545.172 -59.6553
248.156 516.461 -59.6603
270.235 526.444 -75.7952
232.732 544.22 -57.4107
218.102 537.168 -33.1417
231.319 508.813 -33.1464
246.116 515.509 -57.4157
216.995 536.651 -30.1994
211.866 534.181 -1.55292
225.025 505.951 -1.55752
230.213 508.296 -30.2041
226.454 502.791 1.62728
231.657 505.147 30.2502
244.2 476.484 30.2461
238.942 474.254 1.62349
232.775 505.637 33.1883
247.546 512.313 57.406
260.246 483.292 57.4011
245.318 476.974 33.1842
249.607 513.214 59.6482
271.686 523.182 75.7918
284.618 493.629 75.7861
262.307 484.193 59.6433
274.374 524.357 76.9983
300.394 536.097 82.6181
313.598 505.923 82.612
287.307 494.804 76.9926
303.299 537.367 82.6082
329.293 549.092 76.8727
342.766 518.301 76.8665
316.503 507.192 82.6021
331.974 550.263 75.6539
354.023 560.207 59.4934
367.722 528.897 59.4876
345.447 519.472 75.6478
356.08 561.106 57.2517
370.923 567.804 33.0597
384.774 536.147 33.0539
369.779 529.796 57.2458
372.042 568.294 30.1304
377.266 570.662 1.55269
391.171 538.882 1.54684
385.893 536.637 30.1246
377.265 570.663 -1.61805
372.022 568.31 -30.1734
385.874 536.651 -30.1788
391.17 538.883 -1.62391
370.904 567.823 -33.0985
356.083 561.146 -57.237
369.784 529.832 -57.2416
384.756 536.163 -33.1039
354.027 560.248 -59.476
331.98 550.304 -75.6403
345.454 519.509 -75.6441
367.728 528.934 -59.4806
329.3 549.132 -76.8596
303.308 537.403 -82.6018
316.513 507.224 -82.6052
342.774 518.337 -76.8634
300.404 536.133 -82.6125
274.386 524.383 -77.0012
287.319 494.826 -77.0047
313.609 505.954 -82.6159
271.697 523.207 -75.7957
249.618 513.224 -59.6607
262.319 484.2 -59.6645
284.631 493.65 -75.7991
247.556 512.321 -57.4162
232.759 505.625 -33.1469
245.302 476.961 -33.1506
260.256 483.297 -57.4199
231.641 505.135 -30.2046
226.453 502.791 -1.55799
238.941 474.253 -1.56178
244.184 476.471 -30.2083
240.295 471.06 1.6231
245.553 473.29 30.2457
257.416 444.332 30.2423
252.104 442.229 1.62011
246.682 473.752 33.1837
261.61 480.071 57.4007
273.621 450.751 57.3962
258.545 444.794 33.1803
263.693 480.922 59.6427
286.004 490.358 75.7856
298.234 460.503 75.7801
275.704 451.603 59.6383
288.719 491.469 76.992
315.011 502.587 82.6114
327.498 472.105 82.6053
300.95 461.613 76.9865
317.945 503.787 82.6015
344.208 514.897 76.8659
356.949 483.793 76.86
330.431 473.305 82.5954
346.915 516.005 75.6471
369.191 525.429 59.487
382.146 493.802 59.4818
359.656 484.901 75.6412
371.268 526.28 57.2452
386.263 532.631 33.0533
399.362 500.654 33.0483
384.224 494.653 57.2401
387.393 533.095 30.124
392.671 535.34 1.54624
405.82 503.239 1.54134
400.492 501.117 30.119
392.67 535.341 -1.62448
387.374 533.109 -30.1794
400.473 501.13 -30.1837
405.819 503.24 -1.62937
386.245 532.647 -33.1044
371.273 526.316 -57.2421
384.229 494.685 -57.2455
399.344 500.668 -33.1087
369.197 525.466 -59.481
346.923 516.04 -75.6445
359.665 484.932 -75.6468
382.153 493.835 -59.4843
344.216 514.932 -76.8637
317.955 503.819 -82.6055
330.443 473.332 -82.6072
356.958 483.824 -76.866
315.022 502.618 -82.6162
288.732 491.491 -77.0049
300.963 461.631 -77.0067
327.51 472.131 -82.6179
286.016 490.379 -75.7994
263.704 480.929 -59.6648
275.716 451.607 -59.6673
298.248 460.52 -75.8012
261.62 480.076 -57.4203
246.666 473.739 -33.151
258.529 444.781 -33.1538
273.632 450.754 -57.4228
245.536 473.277 -30.2087
240.294 471.059 -1.56215
252.104 442.229 -1.56513
257.399 444.318 -30.2116
253.382 439.003 1.6198
258.693 441.106 30.2419
269.87 411.867 30.2392
264.509 409.893 1.61762
259.833 441.541 33.1799
274.909 447.498 57.3958
286.226 417.896 57.3918
271.01 412.302 33.1771
277.012 448.3 59.6378
299.542 457.199 75.7795
311.065 427.057 75.7741
288.328 418.697 59.6338
302.283 458.245 76.9859
328.831 468.737 82.6046
340.595 437.963 82.5984
313.807 428.103 76.9804
331.792 469.867 82.5947
358.31 480.355 76.8593
370.313 448.956 76.8535
343.556 439.094 82.5885
361.042 481.399 75.6407
383.532 490.301 59.4812
395.737 458.375 59.4766
373.045 450.001 75.6348
385.629 491.103 57.2395
400.768 497.103 33.0478
413.109 464.824 33.0436
397.834 459.177 57.2349
401.908 497.54 30.1185
407.237 499.662 1.54084
419.626 467.258 1.53688
414.249 465.261 30.1143
407.236 499.663 -1.62982
401.89 497.553 -30.1842
414.231 465.272 -30.1874
419.625 467.258 -1.63378
400.75 497.117 -33.1091
385.635 491.134 -57.2458
397.842 459.205 -57.2479
413.092 464.836 -33.1123
383.54 490.333 -59.4846
361.052 481.43 -75.647
373.056 450.027 -75.6475
395.746 458.404 -59.4866
358.32 480.386 -76.8661
331.805 469.894 -82.6073
343.57 439.116 -82.607
370.324 448.983 -76.8666
328.844 468.762 -82.618
302.297 458.263 -77.0068
313.821 428.117 -77.0068
340.609 437.985 -82.6176
299.556 457.216 -75.8014
277.024 448.304 -59.6674
288.341 418.699 -59.6686
311.08 427.07 -75.8014
274.92 447.501 -57.423
259.817 441.527 -33.1541
270.993 412.288 -33.156
286.237 417.896 -57.4242
258.676 441.092 -30.2118
253.381 439.002 -1.5654
264.508 409.892 -1.56757
269.852 411.853 -30.2137
265.71 406.637 1.61739
271.071 408.611 30.239
281.557 379.107 30.2369
276.149 377.262 1.61601
272.221 409.019 33.1768
287.437 414.612 57.3915
298.055 384.742 57.3877
282.708 379.514 33.1747
289.558 415.363 59.6332
312.295 423.723 75.7735
323.106 393.31 75.7678
300.176 385.493 59.6295
315.06 424.703 76.9797
341.849 434.564 82.5977
352.885 403.517 82.5908
325.871 394.291 76.9739
344.836 435.625 82.5878
371.592 445.487 76.8528
382.852 413.812 76.8467
355.872 404.578 82.5809
374.349 446.467 75.6342
397.04 454.842 59.476
408.49 422.636 59.4718
385.608 414.792 75.6281
399.155 455.595 57.2345
414.43 461.241 33.0431
426.008 428.678 33.0397
410.605 423.39 57.2303
415.58 461.652 30.1139
420.957 463.648 1.53646
432.58 430.958 1.53341
427.158 429.089 30.1104
420.956 463.649 -1.63412
415.563 461.662 -30.1877
427.141 429.097 -30.1898
432.579 430.959 -1.63717
414.413 461.253 -33.1125
399.163 455.622 -57.2481
410.614 423.413 -57.2487
425.992 428.688 -33.1146
397.05 454.87 -59.4867
374.36 446.493 -75.6476
385.621 414.814 -75.646
408.501 422.66 -59.4873
371.604 445.513 -76.8665
344.85 435.646 -82.6069
355.887 404.596 -82.6041
382.865 413.833 -76.8649
341.863 434.585 -82.6175
315.075 424.717 -77.0067
325.886 394.301 -77.0047
352.9 403.534 -82.6147
312.309 423.736 -75.8013
289.57 415.364 -59.6686
300.188 385.492 -59.6683
323.121 393.32 -75.7993
287.448 414.612 -57.4243
272.204 409.004 -33.1561
282.69 379.5 -33.157
298.066 384.74 -57.424
271.053 408.597 -30.2139
265.709 406.636 -1.56774
276.148 377.261 -1.56913
281.539 379.092 -30.2148
277.273 373.977 1.61585
282.681 375.822 30.2368
292.473 346.066 30.2353
287.021 344.351 1.61523
283.841 376.201 33.1744
299.188 381.429 57.3874
309.103 351.306 57.3838
293.633 346.445 33.173
301.327 382.129 59.6289
324.257 389.947 75.7672
334.351 359.28 75.7608
311.241 352.006 59.6253
327.045 390.862 76.9732
354.058 400.089 82.5901
364.362 368.787 82.5822
337.139 360.195 76.9668
357.069 401.079 82.5802
384.049 410.313 76.8459
394.56 378.381 76.8391
367.373 369.777 82.5723
386.828 411.229 75.6276
409.709 419.073 59.4713
420.399 386.607 59.4673
397.339 379.297 75.6208
411.842 419.777 57.2298
427.245 425.065 33.0392
438.055 392.237 33.0365
422.531 387.311 57.2259
428.404 425.449 30.1101
433.827 427.318 1.53306
444.68 394.36 1.53091
439.215 392.62 30.1073
433.826 427.318 -1.63737
428.388 425.457 -30.19
439.199 392.626 -30.1907
444.68 394.36 -1.63953
427.229 425.075 -33.1146
411.851 419.799 -57.2487
422.542 387.329 -57.2477
438.04 392.244 -33.1153
409.721 419.096 -59.4871
386.841 411.25 -75.6458
397.354 379.313 -75.6417
420.412 386.626 -59.486
384.062 410.334 -76.8645
357.084 401.096 -82.6037
367.389 369.79 -82.5982
394.575 378.397 -76.8604
354.073 400.105 -82.6143
327.06 390.872 -77.0043
337.155 360.202 -76.9998
364.378 368.799 -82.6087
324.272 389.956 -75.799
301.339 382.129 -59.6681
311.254 352.004 -59.6663
334.367 359.286 -75.7946
299.199 381.427 -57.424
283.824 376.187 -33.157
293.615 346.431 -33.1569
309.114 351.303 -57.4222
282.663 375.807 -30.2149
277.272 373.976 -1.5692
287.02 344.35 -1.56981
292.455 346.052 -30.2149
288.068 341.039 1.61514
293.52 342.753 30.2352
302.613 312.76 30.2343
297.121 311.175 1.61523
294.689 343.106 33.1727
310.158 347.966 57.3835
319.365 317.605 57.3797
303.782 313.112 33.1717
312.313 348.616 59.6247
335.423 355.889 75.7602
344.797 324.985 75.7526
321.52 318.255 59.6209
338.231 356.739 76.9659
365.454 365.331 82.5813
375.021 333.791 82.5716
347.605 325.834 76.9583
368.488 366.251 82.5714
395.675 374.854 76.8382
405.434 342.685 76.8303
378.054 334.711 82.5617
398.475 375.706 75.6202
421.534 383.016 59.4667
431.459 350.31 59.4627
408.234 343.536 75.6122
423.683 383.67 57.2255
439.207 388.596 33.0361
449.247 355.521 33.0339
433.608 350.964 57.2215
440.375 388.952 30.107
445.841 390.691 1.53063
455.923 357.481 1.52939
450.415 355.876 30.1049
445.84 390.691 -1.63958
440.36 388.957 -30.1908
450.401 355.878 -30.1901
455.922 357.481 -1.64083
439.192 388.602 -33.1152
423.694 383.688 -57.2475
433.621 350.977 -57.2445
449.233 355.524 -33.1145
421.547 383.034 -59.4856
398.489 375.721 -75.6413
408.25 343.547 -75.6341
431.475 350.324 -59.4826
395.69 374.87 -76.8597
368.504 366.263 -82.5974
378.072 334.72 -82.5884
405.451 342.696 -76.8526
365.471 365.343 -82.608
338.248 356.746 -76.9991
347.622 325.838 -76.9919
375.039 333.8 -82.5989
335.439 355.896 -75.7941
312.326 348.614 -59.6658
321.533 318.252 -59.6623
344.814 324.988 -75.7869
310.17 347.963 -57.422
294.671 343.091 -33.1567
303.764 313.098 -33.1558
319.377 317.601 -57.4184
293.501 342.739 -30.2149
288.067 341.038 -1.56979
297.12 311.174 -1.5697
302.594 312.746 -30.2139
298.09 307.837 1.6152
303.582 309.422 30.2343
311.974 279.203 30.2337
306.444 277.749 1.61591
304.759 309.746 33.1714
320.343 314.239 57.3794
328.841 283.654 57.375
313.152 279.528 33.1708
322.512 314.839 59.6201
345.789 321.568 75.7518
354.44 290.442 75.7424
331.01 284.254 59.6158
348.617 322.352 76.9572
376.033 330.31 82.5705
384.86 298.552 82.5584
357.268 291.226 76.9478
379.087 331.16 82.5606
406.467 339.133 76.8292
415.471 306.747 76.8194
387.914 299.402 82.5485
409.285 339.919 75.6115
432.511 346.694 59.462
441.669 313.769 59.4579
418.289 307.533 75.6017
434.674 347.297 57.2211
450.314 351.854 33.0335
459.581 318.549 33.0319
443.833 314.372 57.217
451.49 352.181 30.1046
456.998 353.786 1.52917
466.305 320.339 1.52898
460.758 318.876 30.1031
456.997 353.786 -1.64072
451.476 352.183 -30.19
460.744 318.874 -30.1877
466.305 320.339 -1.64091
450.3 351.856 -33.1141
434.688 347.309 -57.2441
443.849 314.379 -57.2391
459.569 318.547 -33.1118
432.526 346.707 -59.4819
409.302 339.93 -75.6334
418.308 307.539 -75.6227
441.687 313.776 -59.4768
406.484 339.143 -76.8515
379.104 331.168 -82.5873
387.933 299.407 -82.5741
415.489 306.752 -76.8408
376.051 330.318 -82.5978
348.634 322.356 -76.9907
357.286 291.228 -76.9802
384.879 298.556 -82.5846
345.806 321.572 -75.7861
322.526 314.835 -59.6615
331.024 284.25 -59.6561
354.458 290.443 -75.7756
320.355 314.235 -57.4181
304.741 309.733 -33.1554
313.133 279.515 -33.1535
328.852 283.65 -57.4127
303.563 309.408 -30.2138
298.089 307.837 -1.56958
306.443 277.748 -1.56887
311.955 279.191 -30.2119
307.335 274.387 1.61591
312.866 275.841 30.2337
320.555 245.41 30.2332
314.989 244.086 1.61711
314.051 276.138 33.1704
329.74 280.265 57.3747
337.526 249.469 57.3694
321.74 245.707 33.1699
331.923 280.813 59.6149
355.353 287.002 75.7415
363.28 255.669 75.7294
339.71 250.018 59.6096
358.198 287.721 76.9464
385.791 295.047 82.557
393.877 263.089 82.5413
366.125 256.388 76.9343
388.863 295.827 82.5471
416.42 303.172 76.818
424.667 270.591 76.8058
396.95 263.87 82.5315
419.256 303.894 75.6009
442.636 310.13 59.4571
451.027 277.008 59.4526
427.503 271.313 75.5886
444.814 310.682 57.2165
460.562 314.858 33.0314
469.057 281.341 33.0308
453.205 277.56 57.2121
461.747 315.156 30.1029
467.294 316.619 1.52883
475.829 282.951 1.53028
470.242 281.639 30.1023
467.294 316.619 -1.64062
461.734 315.153 -30.1874
470.23 281.631 -30.1839
475.829 282.951 -1.63917
460.55 314.856 -33.1111
444.83 310.687 -57.2384
453.222 277.559 -57.2315
469.046 281.333 -33.1076
442.654 310.136 -59.4758
419.275 303.899 -75.6217
427.523 271.313 -75.6072
451.046 277.008 -59.4689
416.438 303.177 -76.8393
388.882 295.831 -82.5726
396.97 263.871 -82.5548
424.687 270.592 -76.8248
385.81 295.051 -82.583
358.216 287.723 -76.9787
366.143 256.389 -76.9645
393.897 263.091 -82.5652
355.371 287.003 -75.7745
331.936 280.81 -59.655
339.723 250.014 -59.6476
363.298 255.669 -75.7604
329.751 280.26 -57.4122
314.032 276.126 -33.153
321.721 245.696 -33.1502
337.538 249.465 -57.4047
312.847 275.829 -30.2117
307.334 274.386 -1.56867
314.988 244.086 -1.56748
320.535 245.4 -30.2089
315.802 240.701 1.61714
321.368 242.025 30.2332
328.354 211.392 30.2325
322.755 210.198 1.61867
322.56 242.294 33.1695
338.347 246.056 57.369
345.422 215.062 57.3622
329.546 211.662 33.1688
340.542 246.555 59.6084
364.113 252.207 75.7283
371.315 220.683 75.7129
347.617 215.561 59.6017
366.974 252.862 76.9326
394.726 259.563 82.5395
402.072 227.427 82.5195
374.176 221.338 76.9172
397.816 260.274 82.5298
425.533 266.996 76.8041
433.023 234.245 76.7887
405.161 228.138 82.5097
428.385 267.653 75.5876
451.909 273.349 59.4516
459.531 240.055 59.4464
435.875 234.902 75.5722
454.1 273.848 57.2116
469.953 277.629 33.0303
477.676 243.916 33.0314
461.722 240.554 57.2064
471.145 277.895 30.1023
476.733 279.207 1.5303
484.497 245.33 1.5348
478.869 244.182 30.1034
476.732 279.207 -1.63867
471.133 277.886 -30.1834
478.859 244.167 -30.1802
484.497 245.329 -1.63416
469.942 277.62 -33.1068
454.118 273.846 -57.2306
461.742 240.546 -57.2225
477.667 243.9 -33.1036
451.928 273.348 -59.4676
428.405 267.653 -75.6059
435.896 234.898 -75.5879
459.552 240.047 -59.4595
425.553 266.996 -76.8228
397.836 260.275 -82.5528
405.182 228.137 -82.5302
433.044 234.241 -76.8048
394.746 259.564 -82.5632
366.992 252.862 -76.9625
374.194 221.338 -76.9444
402.092 227.426 -82.5406
364.131 252.207 -75.7589
340.556 246.552 -59.6461
347.631 215.559 -59.6365
371.333 220.683 -75.7408
338.358 246.053 -57.404
322.541 242.284 -33.1495
329.526 211.654 -33.1457
345.433 215.06 -57.3944
321.349 242.015 -30.2086
315.801 240.701 -1.56719
322.754 210.198 -1.56566
328.334 211.385 -30.2049
323.491 206.791 1.61869
329.089 207.985 30.2325
335.374 177.16 30.231
329.746 176.097 1.62041
330.288 208.227 33.1683
346.164 211.628 57.3617
352.528 180.445 57.3531
336.572 177.402 33.1668
348.371 212.078 59.6002
372.068 217.2 75.7114
378.546 185.5 75.6925
354.735 180.895 59.5916
374.943 217.792 76.9149
402.839 223.881 82.5172
409.442 191.587 82.4922
381.421 186.093 76.896
405.943 224.525 82.5075
433.805 230.632 76.7865
440.536 197.738 76.7669
412.547 192.232 82.4825
436.672 231.225 75.5709
460.328 236.378 59.445
467.179 202.938 59.4369
443.403 198.331 75.5513
462.532 236.822 57.2058
478.486 240.184 33.0307
485.438 206.289 33.0331
469.384 203.383 57.1977
479.687 240.417 30.1036
485.315 241.564 1.53506
492.309 207.488 1.54355
486.638 206.521 30.106
485.315 241.563 -1.63344
479.677 240.401 -30.1794
486.63 206.499 -30.177
492.309 207.487 -1.62495
478.478 240.168 -33.1025
462.552 236.813 -57.2215
469.404 203.367 -57.2114
485.431 206.266 -33.1001
460.349 236.369 -59.4579
436.693 231.22 -75.5863
443.426 198.322 -75.5648
467.202 202.923 -59.4478
433.826 230.627 -76.8023
405.964 224.523 -82.5278
412.569 192.228 -82.5003
440.558 197.729 -76.7808
402.86 223.879 -82.538
374.962 217.792 -76.9418
381.44 186.094 -76.9199
409.464 191.584 -82.5106
372.086 217.2 -75.739
348.384 212.076 -59.6347
354.749 180.896 -59.6227
378.565 185.501 -75.7171
346.175 211.626 -57.3935
330.268 208.22 -33.1448
336.553 177.399 -33.1398
352.54 180.446 -57.3815
329.069 207.978 -30.2045
323.49 206.791 -1.5653
329.745 176.097 -1.56358
335.354 177.157 -30.1994
330.405 172.669 1.62033
336.032 173.732 30.2309
341.63 142.725 30.2255
335.979 141.794 1.62215
337.236 173.947 33.1659
353.193 176.99 57.3522
358.855 145.629 57.338
342.833 142.94 33.1604
355.409 177.392 59.5895
379.219 181.997 75.6904
384.975 150.137 75.665
361.072 146.031 59.5753
382.106 182.529 76.893
410.128 188.024 82.4892
415.987 155.597 82.4562
387.862 150.669 76.8677
413.245 188.603 82.4796
441.235 194.11 76.7641
447.199 161.105 76.7362
419.104 156.177 82.4466
444.115 194.64 75.5492
467.891 199.246 59.4348
473.956 165.687 59.4157
450.079 161.635 75.5213
470.107 199.633 57.1963
486.161 202.54 33.0318
492.322 168.468 33.0297
476.172 166.074 57.1772
487.369 202.735 30.1063
493.04 203.702 1.5438
499.241 169.431 1.55194
493.53 168.663 30.1042
493.04 203.7 -1.62392
487.361 202.712 -30.176
493.525 168.638 -30.1668
499.241 169.43 -1.61578
486.155 202.516 -33.0984
470.128 199.617 -57.2097
476.195 166.051 -57.1893
492.319 168.442 -33.0893
467.914 199.23 -59.4455
444.137 194.63 -75.5625
450.103 161.622 -75.5333
473.981 165.665 -59.4251
441.257 194.101 -76.7778
413.267 188.6 -82.4973
419.127 156.172 -82.4623
447.223 161.093 -76.7485
410.15 188.021 -82.5074
382.126 182.53 -76.9167
387.882 150.671 -76.8882
416.009 155.594 -82.4724
379.238 181.999 -75.7147
355.423 177.394 -59.6203
361.087 146.038 -59.602
384.995 150.14 -75.6862
353.205 176.992 -57.3802
337.217 173.945 -33.1384
342.815 142.945 -33.129
358.868 145.636 -57.3619
336.012 173.73 -30.1989
330.403 172.669 -1.56306
335.978 141.795 -1.56123
341.61 142.729 -30.1895
336.565 138.348 1.62125
342.216 139.279 30.2246
347.193 108.114 30.1929
341.534 107.32 1.62318
343.423 139.467 33.1573
359.445 142.156 57.3348
364.451 110.638 57.2773
348.401 108.302 33.1256
361.668 142.511 59.5704
385.571 146.617 75.6601
390.619 114.619 75.586
366.673 110.993 59.5128
388.466 147.091 76.8616
416.591 152.019 82.4502
421.689 119.49 82.3695
393.514 115.093 76.7875
419.717 152.537 82.4408
447.812 157.465 76.7304
452.965 124.39 76.6592
424.815 120.007 82.3601
450.702 157.933 75.5162
474.579 161.984 59.4106
479.791 128.326 59.352
455.855 124.857 75.445
476.804 162.309 57.1735
492.954 164.703 33.0261
498.239 130.449 33.0038
482.016 128.651 57.1149
494.168 164.855 30.1036
499.879 165.623 1.55136
505.189 131.143 1.55723
499.452 130.601 30.0814
499.879 165.622 -1.61394
494.163 164.83 -30.165
499.457 130.573 -30.1323
505.189 131.142 -1.60807
492.951 164.677 -33.0852
476.827 162.286 -57.1852
482.042 128.623 -57.131
498.245 130.419 -33.0525
474.603 161.962 -59.4201
450.726 157.92 -75.5283
455.882 124.842 -75.4589
479.818 128.299 -59.3659
447.836 157.453 -76.7427
419.74 152.532 -82.4564
424.841 120.003 -82.3751
452.992 124.376 -76.6733
416.614 152.016 -82.4661
388.486 147.093 -76.882
393.537 115.098 -76.8046
421.714 119.486 -82.3848
385.592 146.62 -75.6809
361.683 142.518 -59.5966
366.692 111.009 -59.5335
390.642 114.625 -75.6035
359.459 142.164 -57.3583
343.405 139.472 -33.1254
348.386 108.318 -33.0888
364.468 110.655 -57.2952
342.197 139.284 -30.188
336.564 138.349 -1.55983
341.533 107.32 -1.55789
347.177 108.13 -30.1515
342.073 103.865 1.61645
347.732 104.659 30.1862
352.452 73.4526 29.9746
346.832 72.7985 1.61678
348.937 104.82 33.1067
364.987 107.156 57.2583
369.602 75.5961 56.8831
353.656 73.6132 32.8951
367.204 107.465 59.4858
391.15 111.09 75.559
395.617 79.0502 75.1011
371.82 75.9047 59.1106
394.038 111.509 76.7578
422.213 115.905 82.3398
426.517 83.3428 81.8846
398.505 79.4684 76.2999
425.333 116.365 82.3323
453.484 120.747 76.6314
457.627 87.672 76.231
429.637 83.8019 81.8771
456.371 121.15 75.4221
480.307 124.619 59.3291
484.353 90.8481 59.0577
460.515 88.0745 75.0217
482.53 124.871 57.0999
498.753 126.668 32.9889
502.711 92.1744 32.8431
486.577 91.1002 56.8286
499.965 126.77 30.0766
505.702 127.312 1.55242
509.608 92.5627 1.55051
503.923 92.2763 29.9308
505.702 127.311 -1.60257
499.97 126.742 -30.1268
503.932 92.2518 -29.9775
509.609 92.5614 -1.60449
498.759 126.639 -33.0372
482.557 124.843 -57.1156
486.608 91.0749 -56.8396
502.722 92.1484 -32.8878
480.334 124.591 -59.3429
456.398 121.134 -75.436
460.545 88.0586 -75.029
484.386 90.8233 -59.0668
453.51 120.733 -76.6452
425.359 116.36 -82.347
429.666 83.7975 -81.8866
457.657 87.6572 -76.2383
422.239 115.902 -82.3547
394.062 111.514 -76.7745
398.532 79.4775 -76.312
426.546 83.3396 -81.8943
391.174 111.097 -75.5759
367.224 107.481 -59.506
371.845 75.9317 -59.1221
395.644 79.0606 -75.1134
365.004 107.174 -57.2756
348.922 104.837 -33.0692
353.65 73.6461 -32.8535
369.626 75.6241 -56.8918
347.717 104.676 -30.1443
342.072 103.866 -1.55074
346.832 72.7998 -1.55041
352.444 73.4844 -29.9286
347.488 69.3959 1.57346
353.108 70.0501 29.9313
360.126 39.6504 28.6393
354.765 39.0196 1.5706
354.278 70.1937 32.7742
370.224 72.1767 56.7622
376.496 41.6951 54.3892
361.296 39.794 31.4822
372.382 72.454 58.935
396.179 75.5996 74.9256
401.346 44.92 71.8598
378.653 41.9725 56.562
398.994 75.9756 76.0997
427.006 79.85 81.6844
430.899 48.8542 78.4198
404.16 45.2961 73.034
430.048 80.262 81.6827
458.038 84.1321 76.0366
460.683 52.7895 73.0641
433.941 49.2662 78.4181
460.849 84.4899 74.8641
484.687 87.2635 58.9
486.216 55.8768 56.6155
463.494 53.1473 71.8915
486.85 87.4856 56.7311
502.985 88.5597 32.7457
503.61 57.5205 31.4593
488.379 56.0989 54.4466
504.166 88.6486 29.8963
509.851 88.935 1.51601
510.13 58.0172 1.51178
504.79 57.6094 28.61
509.851 88.9332 -1.57047
504.175 88.6235 -29.9434
504.788 57.5593 -28.6528
510.13 58.0153 -1.5747
502.996 88.5329 -32.7894
486.882 87.4593 -56.7412
488.409 56.0514 -54.4397
503.609 57.4687 -31.4988
484.72 87.2382 -58.9079
460.88 84.4734 -74.8701
463.525 53.1298 -71.8878
486.247 55.8303 -56.6064
458.068 84.1173 -76.0431
430.078 80.2576 -81.6915
433.97 49.2637 -78.4214
460.713 52.7737 -73.0608
427.035 79.847 -81.6937
399.021 75.985 -76.1113
404.186 45.3102 -73.0438
430.928 48.8532 -78.4236
396.207 75.6111 -74.9376
372.408 72.4822 -58.9463
378.672 42.0204 -56.5768
401.371 44.9363 -71.8701
370.248 72.2064 -56.7707
354.272 70.2284 -32.7325
361.281 39.847 -31.4468
376.512 41.7446 -54.4012
353.1 70.0827 -29.8854
347.488 69.3981 -1.50722
354.764 39.0218 -1.51008
360.11 39.7014 -28.5998
355.614 35.6986 1.48567
360.975 36.3294 28.5544
368.993 6.79368 26.7833
363.975 6.20159 1.47765
362.081 36.4658 31.2416
377.281 38.3668 54.1486
384.323 8.71524 50.8813
370.099 6.93003 29.4706
379.32 38.6267 56.2027
402.012 41.5743 71.5005
407.601 11.6874 67.2112
386.362 8.97511 52.9353
404.672 41.9204 72.6108
431.411 45.4786 77.9967
435.271 15.2603 73.3155
410.261 12.0336 68.3215
434.287 45.8541 77.996
461.029 49.3774 72.6419
463.134 18.8315 68.2816
438.147 15.6358 73.3148
463.685 49.7125 71.5325
486.406 52.442 56.2565
486.981 21.779 52.8889
465.79 19.1666 67.1722
488.443 52.6736 54.2027
503.674 54.0951 31.2154
503.2 23.5663 29.3978
489.018 22.0105 50.8351
504.78 54.2023 28.5237
510.12 54.6101 1.42548
509.271 24.138 1.4365
504.305 23.6734 26.7061
510.119 54.6066 -1.48742
504.777 54.1506 -28.5655
504.299 23.5966 -26.7297
509.271 24.1346 -1.4764
503.673 54.0404 -31.2536
488.473 52.6231 -54.1945
489.036 21.9415 -50.823
503.195 23.4863 -29.4178
486.437 52.3944 -56.2465
463.715 49.694 -71.5279
465.81 19.1506 -67.1686
487.001 21.7128 -52.8751
461.058 49.3617 -72.6382
434.316 45.8517 -77.9988
438.166 15.6338 -73.316
463.154 18.8183 -68.2789
431.44 45.4777 -78.0001
404.697 41.9348 -72.6203
410.278 12.0468 -68.3277
435.29 15.2598 -73.3173
402.037 41.5916 -71.5107
379.338 38.6757 -56.2174
386.368 9.03796 -52.9503
407.618 11.7036 -67.2181
377.297 38.4184 -54.1613
362.065 36.5208 -31.2069
370.076 7.00329 -29.4487
384.326 8.78074 -50.8942
360.959 36.3814 -28.516
355.613 35.7019 -1.42629
363.974 6.20484 -1.43431
368.969 6.8639 -26.7577
365.006 3.18832 1.34805
370.023 3.78042 26.6537
380.259 -21.1702 23.7803
375.836 -21.7918 1.32858
371.031 3.91206 29.107
385.255 5.69727 50.5177
393.866 -19.2794 45.264
381.267 -21.0386 26.2337
387.118 5.94134 52.3938
408.357 8.65364 66.6696
414.611 -16.5051 59.8108
395.729 -19.0353 47.1401
410.788 8.97127 67.6813
435.798 12.198 72.6752
439.279 -13.237 65.2143
417.042 -16.1874 60.8224
438.424 12.5404 72.6711
463.412 15.7361 67.6378
464.09 -9.96276 60.6855
441.906 -12.8946 65.2101
465.835 16.0484 66.6218
487.027 18.6607 52.3386
485.277 -7.17523 46.9494
466.514 -9.65049 59.6695
488.881 18.8924 50.4655
503.063 20.4482 29.0282
499.645 -5.29405 26.1113
487.131 -6.9435 45.0763
504.068 20.5667 26.5782
509.034 21.0313 1.30861
505.04 -4.5971 1.32654
500.65 -5.17552 23.6613
509.033 21.0291 -1.34461
504.062 20.4911 -26.5979
500.65 -5.17792 -23.6615
505.04 -4.59934 -1.32668
503.057 20.3704 -29.0474
488.899 18.8256 -50.4527
487.131 -6.94828 -45.0762
499.645 -5.29862 -26.1111
487.044 18.5961 -52.3256
465.854 16.0339 -66.6191
466.514 -9.65312 -59.6693
485.277 -7.17779 -46.9491
463.43 15.7234 -67.6352
438.443 12.5389 -72.6723
441.907 -12.8954 -65.2099
464.091 -9.96361 -60.6853
435.816 12.1972 -72.6767
410.804 8.98415 -67.687
417.043 -16.1874 -60.8225
439.28 -13.2371 -65.2143
408.372 8.66819 -66.6755
387.122 6.0025 -52.4076
395.729 -19.0335 -47.1403
414.611 -16.5034 -59.8109
385.258 5.76058 -50.5311
371.008 3.98314 -29.0856
381.266 -21.0345 -26.2334
393.865 -19.2754 -45.2638
370 3.84949 -26.6317
365.005 3.19043 -1.30829
375.836 -21.7897 -1.32775
380.258 -21.1681 -23.7795
-71.3039 970.539 25.9257
-75.09 967.123 0.168832
-71.2552 970.519 -25.5818
-60.3839 980.208 -47.4191
-44.0431 994.653 -62.0052
-24.6973 1011.61 -67.0991
-5.35985 1028.56 -61.9526
10.9677 1043.01 -47.3803
21.8176 1052.8 -25.5756
25.6209 1056.26 0.184011
21.8356 1052.76 25.9394
10.9939 1042.95 47.7366
-5.34024 1028.5 62.3061
-24.6859 1011.57 67.4482
-44.0419 994.623 62.3493
-60.4211 980.214 47.7683
382.635 -22.3855 1.31945e-05
387.058 -21.764 22.4517
399.656 -20.0048 41.4821
418.539 -17.4746 54.1528
440.776 -14.5241 58.5446
462.96 -11.5923 54.02
481.723 -9.11705 41.3
494.237 -7.4676 22.335
498.627 -6.88918 0.000239176
494.237 -7.46776 -22.3346
481.723 -9.11742 -41.2997
462.96 -11.5927 -54.0199
440.776 -14.5245 -58.5445
418.539 -17.4748 -54.1527
399.656 -20.0049 -41.4821
387.058 -21.764 -22.4517
</DataArray>
</Points>
<Cells>
<DataArray type="Int32" Name="connectivity" format="ascii">
0 1 2 3 
4 5 6 7 
8 9 10 11 
12 13 14 15 
16 17 18 19 
20 21 22 23 
24 25 26 27 
28 29 30 31 
32 33 34 35 
36 37 38 39 
40 41 42 43 
44 45 46 47 
48 49 50 51 
52 53 54 55 
56 57 58 59 
60 61 62 63 
64 65 66 67 
68 69 70 71 
72 73 74 75 
76 77 78 79 
80 81 82 83 
84 85 86 87 
88 89 90 91 
92 93 94 95 
96 97 98 99 
100 101 102 103 
104 105 106 107 
108 109 110 111 
112 113 114 115 
116 117 118 119 
120 121 122 123 
124 125 126 127 
128 129 130 131 
132 133 134 135 
136 137 138 139 
140 141 142 143 
144 145 146 147 
148 149 150 151 
152 153 154 155 
156 157 158 159 
160 161 162 163 
164 165 166 167 
168 169 170 171 
172 173 174 175 
176 177 178 179 
180 181 182 183 
184 185 186 187 
188 189 190 191 
192 193 194 195 
196 197 198 199 
200 201 202 203 
204 205 206 207 
208 209 210 211 
212 213 214 215 
216 217 218 219 
220 221 222 223 
224 225 226 227 
228 229 230 231 
232 233 234 235 
236 237 238 239 
240 241 242 243 
244 245 246 247 
248 249 250 251 
252 253 254 255 
256 257 258 259 
260 261 262 263 
264 265 266 267 
268 269 270 271 
272 273 274 275 
276 277 278 279 
280 281 282 283 
284 285 286 287 
288 289 290 291 
292 293 294 295 
296 297 298 299 
300 301 302 303 
304 305 306 307 
308 309 310 311 
312 313 314 315 
316 317 318 319 
320 321 322 323 
324 325 326 327 
328 329 330 331 
332 333 334 335 
336 337 338 339 
340 341 342 343 
344 345 346 347 
348 349 350 351 
352 353 354 355 
356 357 358 359 
360 361 362 363 
364 365 366 367 
368 369 370 371 
372 373 374 375 
376 377 378 379 
380 381 382 383 
384 385 386 387 
388 389 390 391 
392 393 394 395 
396 397 398 399 
400 401 402 403 
404 405 406 407 
408 409 410 411 
412 413 414 415 
416 417 418 419 
420 421 422 423 
424 425 426 427 
428 429 430 431 
432 433 434 435 
436 437 438 439 
440 441 442 443 
444 445 446 447 
448 449 450 451 
452 453 454 455 
456 457 458 459 
460 461 462 463 
464 465 466 467 
468 469 470 471 
472 473 474 475 
476 477 478 479 
480 481 482 483 
484 485 486 487 
488 489 490 491 
492 493 494 495 
496 497 498 499 
500 501 502 503 
504 505 506 507 
508 509 510 511 
512 513 514 515 
516 517 518 519 
520 521 522 523 
524 525 526 527 
528 529 530 531 
532 533 534 535 
536 537 538 539 
540 541 542 543 
544 545 546 547 
548 549 550 551 
552 553 554 555 
556 557 558 559 
560 561 562 563 
564 565 566 567 
568 569 570 571 
572 573 574 575 
576 577 578 579 
580 581 582 583 
584 585 586 587 
588 589 590 591 
592 593 594 595 
596 597 598 599 
600 601 602 603 
604 605 606 607 
608 609 610 611 
612 613 614 615 
616 617 618 619 
620 621 622 623 
624 625 626 627 
628 629 630 631 
632 633 634 635 
636 637 638 639 
640 641 642 643 
644 645 646 647 
648 649 650 651 
652 653 654 655 
656 657 658 659 
660 661 662 663 
664 665 666 667 
668 669 670 671 
672 673 674 675 
676 677 678 679 
680 681 682 683 
684 685 686 687 
688 689 690 691 
692 693 694 695 
696 697 698 699 
700 701 702 703 
704 705 706 707 
708 709 710 711 
712 713 714 715 
716 717 718 719 
720 721 722 723 
724 725 726 727 
728 729 730 731 
732 733 734 735 
736 737 738 739 
740 741 742 743 
744 745 746 747 
748 749 750 751 
752 753 754 755 
756 757 758 759 
760 761 762 763 
764 765 766 767 
768 769 770 771 
772 773 774 775 
776 777 778 779 
780 781 782 783 
784 785 786 787 
788 789 790 791 
792 793 794 795 
796 797 798 799 
800 801 802 803 
804 805 806 807 
808 809 810 811 
812 813 814 815 
816 817 818 819 
820 821 822 823 
824 825 826 827 
828 829 830 831 
832 833 834 835 
836 837 838 839 
840 841 842 843 
844 845 846 847 
848 849 850 851 
852 853 854 855 
856 857 858 859 
860 861 862 863 
864 865 866 867 
868 869 870 871 
872 873 874 875 
876 877 878 879 
880 881 882 883 
884 885 886 887 
888 889 890 891 
892 893 894 895 
896 897 898 899 
900 901 902 903 
904 905 906 907 
908 909 910 911 
912 913 914 915 
916 917 918 919 
920 921 922 923 
924 925 926 927 
928 929 930 931 
932 933 934 935 
936 937 938 939 
940 941 942 943 
944 945 946 947 
948 949 950 951 
952 953 954 955 
956 957 958 959 
960 961 962 963 
964 965 966 967 
968 969 970 971 
972 973 974 975 
976 977 978 979 
980 981 982 983 
984 985 986 987 
988 989 990 991 
992 993 994 995 
996 997 998 999 
1000 1001 1002 1003 
1004 1005 1006 1007 
1008 1009 1010 1011 
1012 1013 1014 1015 
1016 1017 1018 1019 
1020 1021 1022 1023 
1024 1025 1026 1027 
1028 1029 1030 1031 
1032 1033 1034 1035 
1036 1037 1038 1039 
1040 1041 1042 1043 
1044 1045 1046 1047 
1048 1049 1050 1051 
1052 1053 1054 1055 
1056 1057 1058 1059 
1060 1061 1062 1063 
1064 1065 1066 1067 
1068 1069 1070 1071 
1072 1073 1074 1075 
1076 1077 1078 1079 
1080 1081 1082 1083 
1084 1085 1086 1087 
1088 1089 1090 1091 
1092 1093 1094 1095 
1096 1097 1098 1099 
1100 1101 1102 1103 
1104 1105 1106 1107 
1108 1109 1110 1111 
1112 1113 1114 1115 
1116 1117 1118 1119 
1120 1121 1122 1123 
1124 1125 1126 1127 
1128 1129 1130 1131 
1132 1133 1134 1135 
1136 1137 1138 1139 
1140 1141 1142 1143 
1144 1145 1146 1147 
1148 1149 1150 1151 
1152 1153 1154 1155 
1156 1157 1158 1159 
1160 1161 1162 1163 
1164 1165 1166 1167 
1168 1169 1170 1171 
1172 1173 1174 1175 
1176 1177 1178 1179 
1180 1181 1182 1183 
1184 1185 1186 1187 
1188 1189 1190 1191 
1192 1193 1194 1195 
1196 1197 1198 1199 
1200 1201 1202 1203 
1204 1205 1206 1207 
1208 1209 1210 1211 
1212 1213 1214 1215 
1216 1217 1218 1219 
1220 1221 1222 1223 
1224 1225 1226 1227 
1228 1229 1230 1231 
1232 1233 1234 1235 
1236 1237 1238 1239 
1240 1241 1242 1243 
1244 1245 1246 1247 
1248 1249 1250 1251 
1252 1253 1254 1255 
1256 1257 1258 1259 
1260 1261 1262 1263 
1264 1265 1266 1267 
1268 1269 1270 1271 
1272 1273 1274 1275 
1276 1277 1278 1279 
1280 1281 1282 1283 
1284 1285 1286 1287 
1288 1289 1290 1291 
1292 1293 1294 1295 
1296 1297 1298 1299 
1300 1301 1302 1303 
1304 1305 1306 1307 
1308 1309 1310 1311 
1312 1313 1314 1315 
1316 1317 1318 1319 
1320 1321 1322 1323 
1324 1325 1326 1327 
1328 1329 1330 1331 
1332 1333 1334 1335 
1336 1337 1338 1339 
1340 1341 1342 1343 
1344 1345 1346 1347 
1348 1349 1350 1351 
1352 1353 1354 1355 
1356 1357 1358 1359 
1360 1361 1362 1363 
1364 1365 1366 1367 
1368 1369 1370 1371 
1372 1373 1374 1375 
1376 1377 1378 1379 
1380 1381 1382 1383 
1384 1385 1386 1387 
1388 1389 1390 1391 
1392 1393 1394 1395 
1396 1397 1398 1399 
1400 1401 1402 1403 
1404 1405 1406 1407 
1408 1409 1410 1411 
1412 1413 1414 1415 
1416 1417 1418 1419 
1420 1421 1422 1423 
1424 1425 1426 1427 
1428 1429 1430 1431 
1432 1433 1434 1435 
1436 1437 1438 1439 
1440 1441 1442 1443 
1444 1445 1446 1447 
1448 1449 1450 1451 
1452 1453 1454 1455 
1456 1457 1458 1459 
1460 1461 1462 1463 
1464 1465 1466 1467 
1468 1469 1470 1471 
1472 1473 1474 1475 
1476 1477 1478 1479 
1480 1481 1482 1483 
1484 1485 1486 1487 
1488 1489 1490 1491 
1492 1493 1494 1495 
1496 1497 1498 1499 
1500 1501 1502 1503 
1504 1505 1506 1507 
1508 1509 1510 1511 
1512 1513 1514 1515 
1516 1517 1518 1519 
1520 1521 1522 1523 
1524 1525 1526 1527 
1528 1529 1530 1531 
1532 1533 1534 1535 
1536 1537 1538 1539 
1540 1541 1542 1543 
1544 1545 1546 1547 
1548 1549 1550 1551 
1552 1553 1554 1555 
1556 1557 1558 1559 
1560 1561 1562 1563 
1564 1565 1566 1567 
1568 1569 1570 1571 
1572 1573 1574 1575 
1576 1577 1578 1579 
1580 1581 1582 1583 
1584 1585 1586 1587 
1588 1589 1590 1591 
1592 1593 1594 1595 
1596 1597 1598 1599 
1600 1601 1602 1603 
1604 1605 1606 1607 
1608 1609 1610 1611 
1612 1613 1614 1615 
1616 1617 1618 1619 
1620 1621 1622 1623 
1624 1625 1626 1627 
1628 1629 1630 1631 
1632 1633 1634 1635 
1636 1637 1638 1639 
1640 1641 1642 1643 
1644 1645 1646 1647 
1648 1649 1650 1651 
1652 1653 1654 1655 
1656 1657 1658 1659 
1660 1661 1662 1663 
1664 1665 1666 1667 
1668 1669 1670 1671 
1672 1673 1674 1675 
1676 1677 1678 1679 
1680 1681 1682 1683 
1684 1685 1686 1687 
1688 1689 1690 1691 
1692 1693 1694 1695 
1696 1697 1698 1699 
1700 1701 1702 1703 
1704 1705 1706 1707 
1708 1709 1710 1711 
1712 1713 1714 1715 
1716 1717 1718 1719 
1720 1721 1722 1723 
1724 1725 1726 1727 
1728 1729 1730 1731 
1732 1733 1734 1735 
1736 1737 1738 1739 
1740 1741 1742 1743 
1744 1745 1746 1747 
1748 1749 1750 1751 
1752 1753 1754 1755 
1756 1757 1758 1759 
1760 1761 1762 1763 
1764 1765 1766 1767 
1768 1769 1770 1771 
1772 1773 1774 1775 
1776 1777 1778 1779 
1780 1781 1782 1783 
1784 1785 1786 1787 
1788 1789 1790 1791 
1792 1793 1794 1795 
1796 1797 1798 1799 
1800 1801 1802 1803 
1804 1805 1806 1807 
1808 1809 1810 1811 
1812 1813 1814 1815 
1816 1817 1818 1819 
1820 1821 1822 1823 
1824 1825 1826 1827 
1828 1829 1830 1831 
1832 1833 1834 1835 
1836 1837 1838 1839 
1840 1841 1842 1843 
1844 1845 1846 1847 
1848 1849 1850 1851 
1852 1853 1854 1855 
1856 1857 1858 1859 
1860 1861 1862 1863 
1864 1865 1866 1867 
1868 1869 1870 1871 
1872 1873 1874 1875 
1876 1877 1878 1879 
1880 1881 1882 1883 
1884 1885 1886 1887 
1888 1889 1890 1891 
1892 1893 1894 1895 
1896 1897 1898 1899 
1900 1901 1902 1903 
1904 1905 1906 1907 
1908 1909 1910 1911 
1912 1913 1914 1915 
1916 1917 1918 1919 
1920 1921 1922 1923 
1924 1925 1926 1927 
1928 1929 1930 1931 
1932 1933 1934 1935 
1936 1937 1938 1939 
1940 1941 1942 1943 
1944 1945 1946 1947 
1948 1949 1950 1951 
1952 1953 1954 1955 
1956 1957 1958 1959 
1960 1961 1962 1963 
1964 1965 1966 1967 
1968 1969 1970 1971 
1972 1973 1974 1975 
1976 1977 1978 1979 
1980 1981 1982 1983 
1984 1985 1986 1987 
1988 1989 1990 1991 
1992 1993 1994 1995 
1996 1997 1998 1999 
2000 2001 2002 2003 
2004 2005 2006 2007 
2008 2009 2010 2011 
2012 2013 2014 2015 
2016 2017 2018 2019 
2020 2021 2022 2023 
2024 2025 2026 2027 
2028 2029 2030 2031 
2032 2033 2034 2035 
2036 2037 2038 2039 
2040 2041 2042 2043 
2044 2045 2046 2047 
2048 2049 2050 2051 2052 2053 2054 2055 2056 2057 2058 2059 2060 2061 2062 2063 
2064 2065 2066 2067 2068 2069 2070 2071 2072 2073 2074 2075 2076 2077 2078 2079 
</DataArray>
<DataArray type="Int32" Name="offsets" format="ascii">
4 8 12 16 20 24 28 32 36 40 44 48 52 56 60 64 68 72 76 80 84 88 92 96 100 104 108 112 116 120 124 128 132 136 140 144 148 152 156 160 164 168 172 176 180 184 188 192 196 200 204 208 212 216 220 224 228 232 236 240 244 248 252 256 260 264 268 272 276 280 284 288 292 296 300 304 308 312 316 320 324 328 332 336 340 344 348 352 356 360 364 368 372 376 380 384 388 392 396 400 404 408 412 416 420 424 428 432 436 440 444 448 452 456 460 464 468 472 476 480 484 488 492 496 500 504 508 512 516 520 524 528 532 536 540 544 548 552 556 560 564 568 572 576 580 584 588 592 596 600 604 608 612 616 620 624 628 632 636 640 644 648 652 656 660 664 668 672 676 680 684 688 692 696 700 704 708 712 716 720 724 728 732 736 740 744 748 752 756 760 764 768 772 776 780 784 788 792 796 800 804 808 812 816 820 824 828 832 836 840 844 848 852 856 860 864 868 872 876 880 884 888 892 896 900 904 908 912 916 920 924 928 932 936 940 944 948 952 956 960 964 968 972 976 980 984 988 992 996 1000 1004 1008 1012 1016 1020 1024 1028 1032 1036 1040 1044 1048 1052 1056 1060 1064 1068 1072 1076 1080 1084 1088 1092 1096 1100 1104 1108 1112 1116 1120 1124 1128 1132 1136 1140 1144 1148 1152 1156 1160 1164 1168 1172 1176 1180 1184 1188 1192 1196 1200 1204 1208 1212 1216 1220 1224 1228 1232 1236 1240 1244 1248 1252 1256 1260 1264 1268 1272 1276 1280 1284 1288 1292 1296 1300 1304 1308 1312 1316 1320 1324 1328 1332 1336 1340 1344 1348 1352 1356 1360 1364 1368 1372 1376 1380 1384 1388 1392 1396 1400 1404 1408 1412 1416 1420 1424 1428 1432 1436 1440 1444 1448 1452 1456 1460 1464 1468 1472 1476 1480 1484 1488 1492 1496 1500 1504 1508 1512 1516 1520 1524 1528 1532 1536 1540 1544 1548 1552 1556 1560 1564 1568 1572 1576 1580 1584 1588 1592 1596 1600 1604 1608 1612 1616 1620 1624 1628 1632 1636 1640 1644 1648 1652 1656 1660 1664 1668 1672 1676 1680 1684 1688 1692 1696 1700 1704 1708 1712 1716 1720 1724 1728 1732 1736 1740 1744 1748 1752 1756 1760 1764 1768 1772 1776 1780 1784 1788 1792 1796 1800 1804 1808 1812 1816 1820 1824 1828 1832 1836 1840 1844 1848 1852 1856 1860 1864 1868 1872 1876 1880 1884 1888 1892 1896 1900 1904 1908 1912 1916 1920 1924 1928 1932 1936 1940 1944 1948 1952 1956 1960 1964 1968 1972 1976 1980 1984 1988 1992 1996 2000 2004 2008 2012 2016 2020 2024 2028 2032 2036 2040 2044 2048 2064 2080 
</DataArray>
<DataArray type="UInt8" Name="types" format="ascii">
7 7 7 7 7 7 7 7 7 7 7 7 7 7 7 7 7 7 7 7 7 7 7 7 7 7 7 7 7 7 7 7 7 7 7 7 7 7 7 7 7 7 7 7 7 7 7 7 7 7 7 7 7 7 7 7 7 7 7 7 7 7 7 7 7 7 7 7 7 7 7 7 7 7 7 7 7 7 7 7 7 7 7 7 7 7 7 7 7 7 7 7 7 7 7 7 7 7 7 7 7 7 7 7 7 7 7 7 7 7 7 7 7 7 7 7 7 7 7 7 7 7 7 7 7 7 7 7 7 7 7 7 7 7 7 7 7 7 7 7 7 7 7 7 7 7 7 7 7 7 7 7 7 7 7 7 7 7 7 7 7 7 7 7 7 7 7 7 7 7 7 7 7 7 7 7 7 7 7 7 7 7 7 7 7 7 7 7 7 7 7 7 7 7 7 7 7 7 7 7 7 7 7 7 7 7 7 7 7 7 7 7 7 7 7 7 7 7 7 7 7 7 7 7 7 7 7 7 7 7 7 7 7 7 7 7 7 7 7 7 7 7 7 7 7 7 7 7 7 7 7 7 7 7 7 7 7 7 7 7 7 7 7 7 7 7 7 7 7 7 7 7 7 7 7 7 7 7 7 7 7 7 7 7 7 7 7 7 7 7 7 7 7 7 7 7 7 7 7 7 7 7 7 7 7 7 7 7 7 7 7 7 7 7 7 7 7 7 7 7 7 7 7 7 7 7 7 7 7 7 7 7 7 7 7 7 7 7 7 7 7 7 7 7 7 7 7 7 7 7 7 7 7 7 7 7 7 7 7 7 7 7 7 7 7 7 7 7 7 7 7 7 7 7 7 7 7 7 7 7 7 7 7 7 7 7 7 7 7 7 7 7 7 7 7 7 7 7 7 7 7 7 7 7 7 7 7 7 7 7 7 7 7 7 7 7 7 7 7 7 7 7 7 7 7 7 7 7 7 7 7 7 7 7 7 7 7 7 7 7 7 7 7 7 7 7 7 7 7 7 7 7 7 7 7 7 7 7 7 7 7 7 7 7 7 7 7 7 7 7 7 7 7 7 7 7 7 7 7 7 7 7 7 7 7 7 7 7 7 7 7 7 7 7 7 7 7 7 7 7 7 7 7 7 7 7 7 7 7 7 7 7 7 7 
</DataArray>
</Cells>
<CellData Scalars="cell variable 4" Vectors="cell vector">
<DataArray type="Float64" NumberOfComponents="3" Name="cell vector" format="ascii">
0.161766 0.101951 0.981549
0.493484 0.233344 0.837869
0.754694 0.312463 0.576891
0.885098 0.399044 0.239509
0.767023 0.613902 -0.186548
0.375416 0.726118 -0.576035
-0.155996 -0.549014 0.821127
-0.0271272 -0.220581 0.974991
0.0428266 0.208141 0.977161
0.138314 0.558165 0.818121
0.362173 0.732801 0.57605
0.758897 0.623116 0.189212
0.881986 0.406432 -0.238567
0.741247 0.343303 -0.576798
-0.476754 -0.264819 0.838198
-0.176091 -0.0784509 0.981243
0.151604 0.122531 0.980817
0.436095 0.343748 0.83166
0.652671 0.51426 0.556379
0.762514 0.616401 0.196526
0.738735 0.645194 -0.194926
0.581324 0.59441 -0.555643
-0.363489 -0.42274 0.83016
-0.12496 -0.151876 0.980469
0.12728 0.149023 0.980608
0.361355 0.42439 0.830251
0.579292 0.596099 0.555955
0.737087 0.646937 0.195386
0.760554 0.61894 -0.196139
0.65016 0.517575 -0.556245
-0.434535 -0.345836 0.831611
-0.15416 -0.119719 0.980766
0.151942 0.123017 0.980704
0.434293 0.34768 0.830968
0.649358 0.519995 0.554923
0.761225 0.618523 0.194846
0.744037 0.639005 -0.195143
0.576736 0.600635 -0.553727
-0.363783 -0.425754 0.828489
-0.12751 -0.150416 0.980365
0.129047 0.148489 0.980458
0.362693 0.426456 0.828606
0.575855 0.601151 0.554083
0.742752 0.640387 0.195509
0.75985 0.620305 -0.194549
0.648167 0.521743 -0.554675
-0.433251 -0.349118 0.830909
-0.152844 -0.121814 0.980714
0.153392 0.121813 0.980629
0.43763 0.344682 0.830466
0.654902 0.514291 0.553722
0.769391 0.60881 0.193357
0.75513 0.625715 -0.195599
0.566994 0.610981 -0.552467
-0.196533 -0.581958 0.789113
-0.485648 0.707415 -0.513527
-0.495231 0.712812 0.496634
0.182866 0.592275 0.78471
0.566152 0.611462 0.552798
0.753993 0.62698 0.195938
0.768386 0.610174 -0.193056
0.65427 0.515437 -0.553404
-0.436709 -0.345985 0.830409
-0.153496 -0.121234 0.980684
0.155114 0.119999 0.980581
0.441601 0.340301 0.830171
0.659985 0.508439 0.553091
0.774517 0.602532 0.192556
0.761418 0.617942 -0.195935
0.601329 0.57646 -0.55326
-0.255511 -0.539489 0.802288
-0.37996 0.659499 -0.648608
-0.367218 0.649312 0.665992
0.242542 0.550609 0.798751
0.600373 0.577166 0.553563
0.760616 0.618815 0.196294
0.77389 0.60345 -0.192202
0.659688 0.509223 -0.552724
-0.440906 -0.341344 0.830112
-0.154823 -0.119733 0.98066
0.156616 0.118034 0.980581
0.445456 0.335115 0.830221
0.665642 0.500883 0.553206
0.781892 0.592931 0.192557
0.772206 0.60433 -0.196171
0.62699 0.548132 -0.553566
-0.314139 -0.488273 0.814191
0.195402 -0.516071 0.83396
-0.158413 0.478798 0.863515
0.299968 0.502162 0.811081
0.625747 0.54925 0.553864
0.771543 0.605051 0.196555
0.781487 0.593595 -0.192155
0.665522 0.501482 -0.552808
-0.444926 -0.335961 0.830163
-0.156153 -0.117904 0.980671
0.158306 0.115589 0.980601
0.450102 0.328411 0.830394
0.672703 0.491012 0.553514
0.791036 0.580625 0.192707
0.784262 0.58853 -0.196379
0.646896 0.524075 -0.55396
-0.362972 -0.439187 0.821806
0.0188288 -0.338564 0.940755
-0.00710301 0.32467 0.945801
0.349167 0.454418 0.819504
0.645681 0.525258 0.554257
0.783716 0.589125 0.196775
0.790757 0.581148 -0.192276
0.672659 0.491539 -0.5531
-0.449685 -0.329123 0.830338
-0.157769 -0.11551 0.980697
0.160214 0.112731 0.980624
0.455472 0.32045 0.830576
0.680889 0.479244 0.553818
0.801336 0.566275 0.192855
0.796659 0.571573 -0.196568
0.663869 0.501941 -0.554376
-0.400374 -0.396966 0.825905
-0.0646673 -0.2431 0.967843
0.067441 0.239625 0.96852
0.388793 0.41112 0.824512
0.662559 0.503355 0.554661
0.796145 0.572153 0.196964
0.801129 0.566717 -0.192414
0.680888 0.479731 -0.553398
-0.45514 -0.321057 0.830524
-0.159643 -0.112662 0.980725
0.162289 0.109552 0.980643
0.461362 0.311515 0.830724
0.689838 0.465985 0.554059
0.812373 0.550286 0.192965
0.809099 0.553762 -0.19674
0.678731 0.481243 -0.554733
-0.427244 -0.363509 0.827843
-0.106869 -0.190859 0.975783
0.108961 0.188238 0.976061
0.418694 0.374919 0.827122
0.67748 0.482694 0.555002
0.808599 0.554357 0.197121
0.812192 0.550705 -0.19253
0.689858 0.466451 -0.553642
-0.461087 -0.312042 0.83068
-0.161698 -0.109476 0.980749
0.164466 0.106128 0.980657
0.467572 0.301813 0.830834
0.69924 0.451543 0.554231
0.823768 0.53305 0.19304
0.821402 0.535292 -0.196879
0.691956 0.461708 -0.554997
-0.447308 -0.336263 0.82876
-0.131968 -0.157551 0.978653
0.134536 0.154165 0.978843
0.441608 0.344514 0.828428
0.690873 0.463029 0.555247
0.820938 0.535871 0.197239
0.823601 0.533459 -0.192619
0.699266 0.452001 -0.553825
-0.467334 -0.302279 0.830799
-0.163858 -0.106037 0.980768
0.166693 0.10251 0.980666
0.473913 0.291533 0.830912
0.708815 0.436203 0.554354
0.835262 0.514834 0.193087
0.833485 0.516238 -0.196982
0.703936 0.44299 -0.555188
-0.462658 -0.313689 0.829185
-0.14794 -0.134871 0.979757
0.150818 0.130876 0.97986
0.459158 0.31918 0.829034
0.703048 0.444111 0.555417
0.833075 0.516769 0.197321
0.835113 0.515228 -0.192685
0.708845 0.436652 -0.553962
-0.473696 -0.291949 0.83089
-0.166065 -0.102405 0.980783
0.168922 0.0987435 0.980671
0.48024 0.280833 0.830965
0.718347 0.420211 0.554437
0.846664 0.49585 0.193116
0.84527 0.496677 -0.197057
0.715091 0.424572 -0.555323
-0.474563 -0.294831 0.829376
-0.158408 -0.118967 0.98018
0.161285 0.114807 0.980207
0.472563 0.298262 0.829291
0.714388 0.425481 0.555531
0.844923 0.49714 0.197374
0.846535 0.496218 -0.192733
0.718383 0.420645 -0.554061
-0.480037 -0.281206 0.830956
-0.168273 -0.098624 0.980794
0.171119 0.0948618 0.980673
0.486472 0.269793 0.830997
0.727721 0.403687 0.554489
0.857835 0.476255 0.193133
0.8567 0.476667 -0.197112
0.725554 0.406306 -0.555416
-0.484185 -0.278479 0.829466
-0.165521 -0.107388 0.980342
0.168207 0.103384 0.980315
0.483145 0.28049 0.829395
0.725008 0.407023 0.555604
0.856416 0.477055 0.197408
0.85773 0.476591 -0.192769
0.727766 0.4041 -0.554129
-0.48628 -0.270124 0.831002
-0.170446 -0.0947279 0.980803
0.173263 0.0908823 0.980673
0.492553 0.258466 0.831016
0.736852 0.386724 0.554521
0.868686 0.456159 0.19314
0.867725 0.456273 -0.197152
0.735395 0.388121 -0.555478
-0.492279 -0.263763 0.829513
-0.170563 -0.098574 0.980404
0.172977 0.0949033 0.980343
0.491825 0.26485 0.829435
0.734973 0.388679 0.555647
0.867496 0.456588 0.197428
0.868606 0.456457 -0.192795
0.736909 0.38711 -0.554177
-0.49237 -0.258755 0.831034
-0.172566 -0.090733 0.98081
0.175339 0.0868223 0.980672
0.498436 0.246903 0.831024
0.745674 0.369404 0.554536
0.879148 0.435655 0.193141
0.878302 0.435551 -0.19718
0.744674 0.369946 -0.555519
-0.499363 -0.250006 0.829538
-0.174367 -0.0914169 0.980428
0.176497 0.0881445 0.980347
0.499262 0.250508 0.829448
0.744348 0.370376 0.555668
0.878121 0.4358 0.197437
0.879092 0.435913 -0.192814
0.745744 0.369757 -0.554207
-0.498261 -0.247149 0.831056
-0.17462 -0.086657 0.980815
0.177333 0.0826972 0.98067
0.504085 0.235156 0.831024
0.754135 0.351805 0.554539
0.889166 0.414827 0.193136
0.888404 0.41455 -0.197199
0.753437 0.35172 -0.555541
-0.505804 -0.236653 0.829553
-0.177484 -0.0850869 0.980438
0.17937 0.0821808 0.980343
0.505929 0.236751 0.829449
0.753188 0.352045 0.555673
0.888263 0.414738 0.197437
0.889133 0.415042 -0.192826
0.754219 0.35212 -0.554225
-0.503918 -0.235357 0.831068
-0.176592 -0.082517 0.980819
0.179235 0.0785245 0.980668
0.509469 0.223276 0.831017
0.762193 0.334003 0.55453
0.898699 0.393754 0.193126
0.898007 0.39331 -0.197209
0.761733 0.333361 -0.555548
-0.511861 -0.223227 0.829559
-0.180284 -0.0789289 0.980443
0.182002 0.0762612 0.980336
0.512173 0.22295 0.829441
0.76154 0.333609 0.555664
0.8979 0.393442 0.19743
0.898688 0.393924 -0.192833
0.762292 0.334275 -0.55423
-0.509311 -0.223429 0.831073
-0.178474 -0.0783319 0.980822
0.181035 0.0743253 0.980664
0.514567 0.211318 0.831003
0.769815 0.316075 0.55451
0.907711 0.372518 0.193111
0.907094 0.371874 -0.197209
0.769624 0.314729 -0.555539
-0.517696 -0.209354 0.829555
-0.183039 -0.0723319 0.980441
0.184679 0.0697159 0.980323
0.518209 0.208603 0.829424
0.769473 0.314919 0.555641
0.90702 0.371945 0.197414
0.90772 0.372638 -0.192834
0.769929 0.316303 -0.554222
-0.514417 -0.211424 0.831069
-0.180258 -0.0741229 0.980823
0.182731 0.0701153 0.98066
0.519363 0.199335 0.83098
0.776975 0.298104 0.554476
0.916171 0.351208 0.19309
0.915648 0.350286 -0.1972
0.77716 0.295683 -0.555513
-0.523454 -0.194586 0.829537
-0.186022 -0.0645085 0.980426
0.187678 0.0616948 0.980291
0.524227 0.193125 0.829391
0.77705 0.295801 0.555603
0.915609 0.350283 0.197389
0.916202 0.351271 -0.192828
0.777102 0.298288 -0.554199
-0.519223 -0.199392 0.831054
-0.18194 -0.0699076 0.980822
0.184319 0.0659114 0.980654
0.523848 0.187382 0.830946
0.783655 0.280177 0.554424
0.924055 0.329925 0.19306
0.923655 0.328606 -0.19718
0.784357 0.276123 -0.555464
-0.529313 -0.178237 0.829494
-0.189549 -0.0542981 0.980369
0.191356 0.0508655 0.980202
0.530465 0.175593 0.829321
0.784302 0.276119 0.555543
0.923654 0.328502 0.197355
0.924108 0.329921 -0.192812
0.783792 0.28032 -0.554157
-0.523717 -0.187391 0.831027
-0.183515 -0.0657064 0.980818
0.185799 0.0617366 0.980646
0.528013 0.175531 0.830898
0.789836 0.262406 0.554349
0.931339 0.308791 0.193018
0.931096 0.306908 -0.197147
0.791233 0.255928 -0.555384
-0.535454 -0.159366 0.829392
-0.194022 -0.0398918 0.980186
0.196208 0.0350201 0.979937
0.537177 0.154691 0.829163
0.791254 0.255709 0.555454
0.931142 0.306666 0.197309
0.931415 0.30871 -0.192782
0.789984 0.26251 -0.554089
-0.527893 -0.175492 0.830982
-0.184983 -0.0615456 0.980813
0.187168 0.0576227 0.980636
0.531853 0.163874 0.830829
0.795502 0.244934 0.554241
0.937999 0.287968 0.192958
0.937956 0.285291 -0.197096
0.797801 0.234946 -0.55526
-0.542049 -0.136673 0.829158
-0.199999 -0.0182572 0.979626
0.203013 0.0101135 0.979124
0.544612 0.128513 0.828784
0.797925 0.234375 0.555324
0.938052 0.28487 0.197248
0.938096 0.287804 -0.192731
0.795658 0.245005 -0.553986
-0.531744 -0.163787 0.830916
-0.186341 -0.0574577 0.980804
0.188426 0.0536139 0.980623
0.535362 0.152539 0.830734
0.80064 0.227948 0.55409
0.944012 0.267658 0.192875
0.944222 0.263871 -0.197022
0.804067 0.212992 -0.555077
-0.549203 -0.108411 0.828627
-0.208288 0.015943 0.977938
0.213134 -0.0320581 0.976497
0.552913 0.0944213 0.827872
0.804314 0.211906 0.555134
0.944365 0.263248 0.197168
0.944125 0.267417 -0.192653
0.800801 0.227998 -0.553836
-0.535267 -0.152397 0.830822
-0.187589 -0.053485 0.98079
0.189572 0.0497691 0.980605
0.538534 0.141703 0.830603
0.805229 0.211714 0.553881
0.949358 0.248119 0.192762
0.949893 0.24275 -0.196917
0.810036 0.189804 -0.554813
-0.556862 -0.0723651 0.827446
-0.219982 0.0723825 0.972815
0.22883 -0.10912 0.967331
0.561859 0.0493367 0.825761
0.810393 0.18812 0.554864
0.950064 0.241962 0.197063
0.949478 0.247828 -0.192542
0.805393 0.211749 -0.553628
-0.538456 -0.141484 0.830691
-0.188729 -0.0496835 0.980772
0.190601 0.0461725 0.980581
0.541353 0.131627 0.830428
0.809244 0.196607 0.553598
0.954013 0.229694 0.192611
0.95499 0.221982 -0.19677
0.815727 0.164883 -0.554439
-0.564655 -0.0258697 0.824921
-0.236246 0.169496 0.956796
0.25089 -0.25004 0.935165
0.570447 -0.00901351 0.821285
0.816122 0.162754 0.554487
0.955156 0.221133 0.196918
0.954133 0.229381 -0.192395
0.809412 0.196616 -0.553348
-0.541299 -0.131287 0.830517
-0.189756 -0.0461409 0.980747
0.191494 0.0429423 0.980554
0.543781 0.122678 0.830212
0.81264 0.183162 0.553234
0.957944 0.212887 0.192412
0.95953 0.201634 -0.196584
0.821177 0.137168 -0.553943
-0.571693 0.0343271 0.819749
-0.25647 0.344939 0.902906
0.26801 -0.44955 0.8521
0.576792 -0.0808645 0.812879
0.821531 0.134863 0.553985
0.959675 0.200805 0.196728
0.95806 0.212547 -0.192209
0.812813 0.183113 -0.552995
-0.543759 -0.122149 0.830304
-0.190656 -0.0429896 0.980715
0.1922 0.0402117 0.980532
0.545724 0.115286 0.829997
0.815343 0.172017 0.552835
0.961094 0.198414 0.19217
0.963458 0.182143 -0.196401
0.826331 0.104633 -0.55338
-0.576053 0.111698 0.809745
-0.263912 0.625867 0.733922
0.264005 -0.667055 0.696662
0.578469 -0.165752 0.798686
0.826658 0.101937 0.553394
0.963589 0.181311 0.196528
0.961205 0.198043 -0.191999
0.815516 0.171872 -0.552624
-0.545744 -0.114475 0.830096
-0.191395 -0.0403836 0.980682
0.19262 0.0380256 0.980536
0.546985 0.109703 0.829923
0.817178 0.163709 0.552647
0.963336 0.187345 0.192057
0.966542 0.165167 -0.196257
0.830944 0.0627282 -0.552808
-0.573886 0.211566 0.791135
-0.224433 0.868919 0.441147
-0.222788 0.876423 -0.426906
0.572024 -0.265913 0.775937
0.831145 0.0604001 0.552765
0.966652 0.164431 0.196334
0.963454 0.186842 -0.191952
0.817355 0.163328 -0.552499
-0.547065 -0.108474 0.830032
-0.191901 -0.0384231 0.980662
0.192601 0.0361565 0.980611
0.547115 0.105745 0.830351
0.817438 0.159362 0.553533
0.963743 0.184074 0.193172
0.967594 0.159443 -0.195805
0.834187 -0.00936762 -0.551402
-0.538586 0.439036 0.719147
-0.146166 0.973686 0.174846
-0.143756 0.976406 -0.161136
0.523304 -0.506575 0.685226
0.834291 -0.0131369 0.551168
0.967859 0.157729 0.195885
0.963942 0.183099 -0.193108
0.817622 0.158506 -0.553507
-0.547288 -0.103968 0.830462
-0.192055 -0.0370351 0.980685
0.191861 0.033017 0.980867
0.545659 0.0967692 0.832401
0.817173 0.145013 0.557852
0.966069 0.165872 0.197984
0.970858 0.139974 -0.194531
0.828829 0.0253396 -0.558929
-0.55524 0.0104274 0.831625
-0.195113 0.0036488 0.980774
0.195088 -0.0017303 0.980784
0.555233 -0.0136459 0.831583
0.828823 0.0231793 0.55903
0.97106 0.138138 0.194833
0.966324 0.164635 -0.197773
0.817424 0.143847 -0.557787
-0.545979 -0.0950417 0.83239
-0.191368 -0.0342555 0.98092
0.192242 0.0303927 0.980877
0.546465 0.089644 0.83267
0.818463 0.134501 0.558594
0.967994 0.153182 0.198804
0.972461 0.127459 -0.195126
0.826361 0.0508286 -0.560842
-0.550332 -0.00645788 0.834921
-0.192741 -0.000167364 0.98125
0.192982 0.00130106 0.981201
0.550163 0.00244435 0.835054
0.826293 0.0499131 0.561025
0.972574 0.126072 0.195465
0.96828 0.151779 -0.198485
0.818775 0.133324 -0.558419
-0.546793 -0.0883019 0.832599
-0.191592 -0.0318977 0.980956
0.191671 0.0297019 0.98101
0.544125 0.0904867 0.834111
0.816047 0.136356 0.561671
0.96907 0.145387 0.199415
0.974621 0.0847447 -0.207202
0.816172 -0.00681672 -0.577769
-0.539024 0.0255872 0.841901
-0.188229 0.0121751 0.98205
0.188629 -0.00894131 0.982008
0.537412 -0.0352266 0.842584
0.81585 -0.00938543 0.578187
0.974666 0.0829455 0.207716
0.969507 0.143284 -0.198813
0.816907 0.133448 -0.56112
-0.545079 -0.0879181 0.833762
-0.190247 -0.0332828 0.981172
0.0190149 0.0164934 0.999683
0.00257188 0.000343963 0.999997
</DataArray>
<DataArray type="Float64" Name="cell vector length" format="ascii">
0.12104 0.102648 0.089518 0.0715106 0.0518589 0.0878644 0.144703 0.146914 0.14285 0.137976 0.090689 0.0519077 0.0701763 0.0871408 0.123174 0.129452 0.391804 0.370031 0.346386 0.323281 0.306679 0.325652 0.389319 0.422239 0.417004 0.374611 0.323875 0.306595 0.323972 0.349023 0.390177 0.398868 0.490115 0.470361 0.445229 0.416138 0.387123 0.402191 0.482618 0.529386 0.526029 0.471162 0.401063 0.387195 0.416958 0.447029 0.486061 0.495241 0.514606 0.49419 0.466035 0.429846 0.382465 0.288544 0.155683 0.0406273 0.0391677 0.148245 0.289368 0.382559 0.43044 0.467198 0.508437 0.519126 0.526599 0.50514 0.473322 0.429077 0.365903 0.267586 0.148943 0.0323194 0.0308432 0.140639 0.268118 0.366027 0.429478 0.474039 0.518645 0.530779 0.534031 0.511079 0.475302 0.423776 0.3505 0.249239 0.14223 0.0284409 0.028947 0.130461 0.249524 0.350598 0.424024 0.475709 0.524204 0.53804 0.539239 0.514927 0.475917 0.419017 0.339449 0.236039 0.138257 0.0348985 0.0348026 0.122132 0.235968 0.339412 0.419104 0.476103 0.527869 0.543168 0.542835 0.517461 0.476085 0.415455 0.331784 0.226811 0.135507 0.0424673 0.0391779 0.116009 0.226425 0.331571 0.415379 0.476107 0.530341 0.546736 0.545287 0.519107 0.476038 0.412862 0.326495 0.220494 0.134037 0.0478124 0.0422258 0.112115 0.219818 0.326078 0.412627 0.475932 0.531998 0.54919 0.546935 0.520152 0.475884 0.41098 0.322847 0.216591 0.133451 0.0513803 0.0443243 0.109917 0.215692 0.322231 0.410591 0.475667 0.533097 0.550859 0.548003 0.520766 0.475686 0.409628 0.320319 0.213625 0.132866 0.0537938 0.045836 0.108268 0.212583 0.319536 0.409098 0.475371 0.533788 0.551957 0.54869 0.521108 0.475463 0.408626 0.318526 0.211532 0.132454 0.0553412 0.0468272 0.107137 0.210399 0.317611 0.407975 0.475061 0.534218 0.55268 0.549131 0.52128 0.475229 0.407859 0.317228 0.210033 0.132104 0.0561934 0.0473223 0.106271 0.208844 0.316213 0.407109 0.474753 0.534486 0.55316 0.549402 0.521338 0.475 0.407267 0.316274 0.208932 0.131788 0.0565665 0.0474492 0.105548 0.207705 0.315185 0.40644 0.474463 0.534644 0.553472 0.549556 0.521321 0.474783 0.406807 0.315562 0.208097 0.131479 0.0566081 0.0473037 0.104895 0.206841 0.314418 0.40592 0.4742 0.534733 0.553669 0.549625 0.521255 0.474585 0.406452 0.315027 0.207444 0.131159 0.0564013 0.046943 0.104272 0.206168 0.313841 0.405523 0.473969 0.534776 0.553781 0.549622 0.52115 0.474408 0.406194 0.314637 0.206907 0.130779 0.0559696 0.0463796 0.103631 0.205625 0.31342 0.405236 0.473772 0.534783 0.553823 0.549546 0.521005 0.474253 0.406035 0.314396 0.206434 0.130288 0.0553065 0.0455568 0.102846 0.205123 0.313151 0.405061 0.473612 0.534752 0.553793 0.549379 0.520806 0.474116 0.405988 0.314342 0.206143 0.129794 0.0544067 0.0444474 0.102008 0.204772 0.313071 0.405013 0.473485 0.534672 0.553675 0.549082 0.520523 0.473991 0.406088 0.31456 0.206139 0.129328 0.0531691 0.0429342 0.101148 0.204682 0.313266 0.405129 0.47339 0.534518 0.553429 0.548589 0.520108 0.473867 0.406389 0.315178 0.20658 0.128926 0.0514347 0.0408264 0.1003 0.205012 0.31387 0.40547 0.473321 0.534243 0.552993 0.547809 0.51949 0.473729 0.406964 0.316382 0.207699 0.128661 0.0489749 0.0378523 0.0995467 0.206005 0.315084 0.406119 0.473267 0.533783 0.552276 0.546611 0.518569 0.473554 0.407922 0.318433 0.20983 0.128663 0.0455091 0.0337266 0.0990978 0.208024 0.317187 0.407191 0.473205 0.533041 0.551148 0.544805 0.517204 0.473316 0.409421 0.32169 0.213434 0.129148 0.0407862 0.0285229 0.0994103 0.211583 0.320558 0.408839 0.473106 0.531881 0.549426 0.542117 0.515187 0.472976 0.411693 0.32667 0.219131 0.130437 0.0348242 0.0237341 0.101303 0.217347 0.325708 0.411281 0.472925 0.530109 0.546844 0.538116 0.512168 0.472405 0.414993 0.334066 0.227697 0.132956 0.0287455 0.022493 0.105892 0.226084 0.333302 0.414752 0.472531 0.527399 0.542984 0.531935 0.5073 0.470906 0.419029 0.344334 0.239573 0.136839 0.027691 0.0260341 0.113992 0.238314 0.343792 0.418934 0.471226 0.522954 0.537004 0.520412 0.496999 0.464367 0.419601 0.354682 0.25153 0.138071 0.0420662 0.0416725 0.12157 0.250495 0.354257 0.419591 0.464919 0.513357 0.52581 0.484699 0.460845 0.429851 0.39073 0.339012 0.230022 0.108505 0.101629 0.102181 0.101516 0.230773 0.33874 0.390758 0.43062 0.478824 0.490752 0.462491 0.438923 0.409381 0.374737 0.339863 0.356406 0.449934 0.498041 0.49297 0.432848 0.355517 0.339887 0.374914 0.410312 0.457962 0.468893 0.424186 0.399614 0.369071 0.335417 0.310344 0.325168 0.401148 0.438039 0.430955 0.380113 0.324364 0.310619 0.33564 0.369988 0.41968 0.43096 0.198224 0.178931 0.15426 0.12569 0.112002 0.13834 0.217872 0.257883 0.252661 0.201347 0.140445 0.113086 0.125435 0.152647 0.197683 0.204049 0.029564 0.0152124 
</DataArray>
<DataArray type="Float64" Name="cell variable 4" format="ascii">
827.92 817.207 811.174 806.062 800.886 818.204 841.324 831.324 827.894 833.56 819.582 800.904 805.297 808.553 830.41 832.177 1132.13 1111.35 1098.11 1090.69 1088.25 1103.41 1143 1143.52 1137.21 1123.26 1103.76 1088.32 1090.36 1098.07 1139.6 1141.35 1337.44 1313.81 1298.14 1288.25 1283.59 1295.75 1347.41 1350.9 1344.49 1324.22 1296.05 1283.73 1288.3 1298.4 1347.59 1348.18 1387.32 1360.05 1338.59 1321.6 1308.38 1306.26 1354.55 1369.55 1366.73 1338.86 1306.2 1308.21 1321.56 1338.85 1395.05 1398.47 1398.63 1371.18 1349.91 1334.11 1322.37 1315.38 1349.34 1344.07 1343.42 1333.73 1315.24 1322.19 1334.1 1350.15 1406.48 1409.83 1402.2 1373.82 1351.23 1334.39 1321.85 1313.99 1345.92 1329.99 1331.39 1325.33 1314.06 1321.85 1334.49 1351.46 1409.26 1413.44 1404.6 1375.02 1350.79 1332.81 1319.89 1312.01 1343.62 1326.12 1326.34 1318.45 1312.19 1319.99 1332.97 1351.02 1410.63 1415.91 1406.37 1375.78 1350.18 1331.29 1318.12 1310.25 1342.52 1326.82 1322.91 1313.68 1310.54 1318.3 1331.48 1350.4 1411.63 1417.78 1407.74 1376.3 1349.57 1329.97 1316.65 1308.82 1342.26 1327.18 1320.22 1310.58 1309.14 1316.89 1330.19 1349.79 1412.44 1419.26 1408.78 1376.66 1349.05 1328.92 1315.51 1307.7 1342.19 1327.51 1318.51 1308.5 1308.01 1315.78 1329.18 1349.29 1413.12 1420.44 1409.48 1376.82 1348.64 1328.15 1314.63 1306.78 1342.14 1327.81 1317.49 1307.04 1307.09 1314.91 1328.41 1348.89 1413.6 1421.29 1409.96 1376.85 1348.33 1327.59 1313.97 1306.05 1342.11 1328.05 1316.89 1306.02 1306.35 1314.27 1327.87 1348.59 1413.96 1421.91 1410.31 1376.82 1348.03 1327.13 1313.43 1305.42 1342.07 1328.19 1316.49 1305.25 1305.72 1313.73 1327.41 1348.29 1414.25 1422.4 1410.53 1376.72 1347.74 1326.73 1312.97 1304.87 1342.03 1328.27 1316.2 1304.65 1305.18 1313.27 1327.02 1348 1414.45 1422.76 1410.63 1376.55 1347.46 1326.4 1312.59 1304.4 1341.98 1328.3 1315.96 1304.14 1304.72 1312.9 1326.69 1347.72 1414.57 1422.98 1410.59 1376.32 1347.19 1326.14 1312.28 1304 1341.94 1328.28 1315.73 1303.69 1304.32 1312.59 1326.42 1347.45 1414.62 1423.08 1410.43 1376.03 1346.93 1325.94 1312.05 1303.66 1341.88 1328.24 1315.49 1303.27 1303.98 1312.36 1326.23 1347.19 1414.58 1423.03 1410.14 1375.66 1346.68 1325.8 1311.88 1303.36 1341.83 1328.17 1315.22 1302.87 1303.69 1312.19 1326.09 1346.93 1414.44 1422.85 1409.74 1375.23 1346.42 1325.71 1311.77 1303.12 1341.77 1328.06 1314.88 1302.46 1303.44 1312.08 1326 1346.68 1414.22 1422.54 1409.21 1374.72 1346.15 1325.65 1311.71 1302.92 1341.71 1327.88 1314.42 1302.03 1303.24 1312.03 1325.95 1346.41 1413.91 1422.1 1408.53 1374.13 1345.87 1325.65 1311.73 1302.79 1341.64 1327.63 1313.8 1301.58 1303.09 1312.05 1325.95 1346.14 1413.5 1421.51 1407.7 1373.45 1345.59 1325.71 1311.84 1302.73 1341.58 1327.3 1312.96 1301.15 1303.02 1312.16 1326.03 1345.87 1412.98 1420.75 1406.66 1372.66 1345.34 1325.9 1312.07 1302.76 1341.57 1326.92 1311.99 1300.88 1303.06 1312.41 1326.22 1345.62 1412.35 1419.79 1405.39 1371.77 1345.15 1326.26 1312.48 1302.89 1341.67 1326.65 1311.43 1301.12 1303.24 1312.84 1326.57 1345.41 1411.57 1418.56 1403.77 1370.72 1345.06 1326.88 1313.14 1303.11 1342.02 1326.85 1313.23 1302.38 1303.52 1313.49 1327.17 1345.3 1410.63 1416.99 1401.55 1369.32 1344.93 1327.67 1313.96 1303.28 1342.8 1328.47 1320.45 1305.13 1303.68 1314.28 1327.93 1345.15 1409.31 1414.81 1397.53 1366.3 1343.33 1327.07 1313.46 1302.02 1343.66 1335.12 1332.96 1309.66 1302.42 1313.72 1327.28 1343.53 1406.29 1410.8 1383.83 1353.03 1330.55 1314.74 1301.74 1290.88 1338.69 1353.18 1353.35 1312.57 1290.84 1301.75 1314.87 1330.77 1392.72 1397.03 1309.56 1278.91 1254.9 1236.36 1220.88 1215.61 1289.83 1388.6 1387.19 1271.7 1215.64 1220.68 1236.32 1254.94 1316.16 1321.98 1245.72 1218.85 1200.32 1188.62 1181.82 1191.39 1254.43 1263.14 1254.91 1225.39 1191.85 1181.78 1188.5 1200.19 1254.08 1257.5 1116.18 1090.42 1070.64 1056.24 1047.58 1053.86 1105.42 1110.68 1100.49 1075.2 1054.16 1047.69 1056.12 1070.65 1121.69 1126.8 791.56 783.353 783.353 789.231 797.936 812.569 853.108 860.309 854 833.905 813.899 798.213 789.047 781.735 802.163 797.247 608.334 745.326 
</DataArray>
<DataArray type="Float64" Name="cell variable 5" format="ascii">
0.00922521 0.00922521 0.00922521 0.00922521 0.00922521 0.00922521 0.00922521 0.00922521 0.00922521 0.00922521 0.00922521 0.00922521 0.00922521 0.00922521 0.00922521 0.00922521 0.00922521 0.00922521 0.00922521 0.00922521 0.00922521 0.00922521 0.00922521 0.00922521 0.00922521 0.00922521 0.00922521 0.00922521 0.00922521 0.00922521 0.00922521 0.00922521 0.00922521 0.00922521 0.00922521 0.00922521 0.00922521 0.00922521 0.00922521 0.00922521 0.00922521 0.00922521 0.00922521 0.00922521 0.00922521 0.00922521 0.00922521 0.00922521 0.0139424 0.0129071 0.0112363 0.00964342 0.00922521 0.00922521 0.00922521 0.00922521 0.00922521 0.00922521 0.00922521 0.00922521 0.00964342 0.0112363 0.0129071 0.0139424 0.0157751 0.014338 0.0120174 0.00980537 0.00922521 0.00922521 0.00922521 0.00922521 0.00922521 0.00922521 0.00922521 0.00922521 0.00980537 0.0120174 0.014338 0.0157751 0.016837 0.0151683 0.0124704 0.00989967 0.00922521 0.00922521 0.00922521 0.00922521 0.00922521 0.00922521 0.00922521 0.00922521 0.00989967 0.0124704 0.0151683 0.016837 0.0176099 0.015769 0.0128005 0.00996937 0.00922521 0.00922521 0.00922521 0.00922521 0.00922521 0.00922521 0.00922521 0.00922521 0.00996937 0.0128005 0.015769 0.0176099 0.0182126 0.0162405 0.0130567 0.0100227 0.00922521 0.00922521 0.00922521 0.00922521 0.00922521 0.00922521 0.00922521 0.00922521 0.0100227 0.0130567 0.0162405 0.0182126 0.0186985 0.0166197 0.0132638 0.0100657 0.00922521 0.00922521 0.00922521 0.00922521 0.00922521 0.00922521 0.00922521 0.00922521 0.0100657 0.0132638 0.0166197 0.0186985 0.0190962 0.0169293 0.013434 0.0101006 0.00922521 0.00922521 0.00922521 0.00922521 0.00922521 0.00922521 0.00922521 0.00922521 0.0101006 0.013434 0.0169293 0.0190962 0.019418 0.0171814 0.0135713 0.0101293 0.00922521 0.00922521 0.00922521 0.00922521 0.00922521 0.00922521 0.00922521 0.00922521 0.0101293 0.0135713 0.0171814 0.019418 0.0196763 0.0173844 0.013682 0.0101518 0.00922521 0.00922521 0.00922521 0.00922521 0.00922521 0.00922521 0.00922521 0.00922521 0.0101518 0.013682 0.0173844 0.0196763 0.0198772 0.0175402 0.0137661 0.0101703 0.00922521 0.00922521 0.00922521 0.00922521 0.00922521 0.00922521 0.00922521 0.00922521 0.0101703 0.0137661 0.0175402 0.0198772 0.0200249 0.017655 0.0138296 0.0101826 0.00922521 0.00922521 0.00922521 0.00922521 0.00922521 0.00922521 0.00922521 0.00922521 0.0101826 0.0138296 0.017655 0.0200249 0.0201233 0.0177308 0.0138706 0.0101928 0.00922521 0.00922521 0.00922521 0.00922521 0.00922521 0.00922521 0.00922521 0.00922521 0.0101928 0.0138706 0.0177308 0.0201233 0.0201704 0.0177698 0.0138911 0.0101969 0.00922521 0.00922521 0.00922521 0.00922521 0.00922521 0.00922521 0.00922521 0.00922521 0.0101969 0.0138911 0.0177698 0.0201704 0.0201704 0.0177698 0.0138911 0.0101969 0.00922521 0.00922521 0.00922521 0.00922521 0.00922521 0.00922521 0.00922521 0.00922521 0.0101969 0.0138911 0.0177698 0.0201704 0.0201233 0.0177308 0.0138706 0.0101928 0.00922521 0.00922521 0.00922521 0.00922521 0.00922521 0.00922521 0.00922521 0.00922521 0.0101928 0.0138706 0.0177308 0.0201233 0.0200249 0.017655 0.0138296 0.0101826 0.00922521 0.00922521 0.00922521 0.00922521 0.00922521 0.00922521 0.00922521 0.00922521 0.0101826 0.0138296 0.017655 0.0200249 0.0198772 0.0175402 0.0137661 0.0101703 0.00922521 0.00922521 0.00922521 0.00922521 0.00922521 0.00922521 0.00922521 0.00922521 0.0101703 0.0137661 0.0175402 0.0198772 0.0196763 0.0173844 0.013682 0.0101518 0.00922521 0.00922521 0.00922521 0.00922521 0.00922521 0.00922521 0.00922521 0.00922521 0.0101518 0.013682 0.0173844 0.0196763 0.019418 0.0171814 0.0135713 0.0101293 0.00922521 0.00922521 0.00922521 0.00922521 0.00922521 0.00922521 0.00922521 0.00922521 0.0101293 0.0135713 0.0171814 0.019418 0.0190962 0.0169293 0.013434 0.0101006 0.00922521 0.00922521 0.00922521 0.00922521 0.00922521 0.00922521 0.00922521 0.00922521 0.0101006 0.013434 0.0169293 0.0190962 0.0186985 0.0166197 0.0132638 0.0100657 0.00922521 0.00922521 0.00922521 0.00922521 0.00922521 0.00922521 0.00922521 0.00922521 0.0100657 0.0132638 0.0166197 0.0186985 0.0182126 0.0162405 0.0130567 0.0100227 0.00922521 0.00922521 0.00922521 0.00922521 0.00922521 0.00922521 0.00922521 0.00922521 0.0100227 0.0130567 0.0162405 0.0182126 0.0176099 0.015769 0.0128005 0.00996937 0.00922521 0.00922521 0.00922521 0.00922521 0.00922521 0.00922521 0.00922521 0.00922521 0.00996937 0.0128005 0.015769 0.0176099 0.016837 0.0151683 0.0124704 0.00989967 0.00922521 0.00922521 0.00922521 0.00922521 0.00922521 0.00922521 0.00922521 0.00922521 0.00989967 0.0124704 0.0151683 0.016837 0.0157751 0.014338 0.0120174 0.00980537 0.00922521 0.00922521 0.00922521 0.00922521 0.00922521 0.00922521 0.00922521 0.00922521 0.00980537 0.0120174 0.014338 0.0157751 0.0139424 0.0129071 0.0112363 0.00964342 0.00922521 0.00922521 0.00922521 0.00922521 0.00922521 0.00922521 0.00922521 0.00922521 0.00964342 0.0112363 0.0129071 0.0139424 0.00922521 0.00922521 0.00922521 0.00922521 0.00922521 0.00922521 0.00922521 0.00922521 0.00922521 0.00922521 0.00922521 0.00922521 0.00922521 0.00922521 0.00922521 0.00922521 0.00922521 0.00922521 0.00922521 0.00922521 0.00922521 0.00922521 0.00922521 0.00922521 0.00922521 0.00922521 0.00922521 0.00922521 0.00922521 0.00922521 0.00922521 0.00922521 0.00922521 0.00922521 0.00922521 0.00922521 0.00922521 0.00922521 0.00922521 0.00922521 0.00922521 0.00922521 0.00922521 0.00922521 0.00922521 0.00922521 0.00922521 0.00922521 0.00922521 0.00922521 
</DataArray>
<DataArray type="Float64" Name="cell variable 6" format="ascii">
1 1 1 1 1 1 1 1 1 1 1 1 1 1 1 1 1 1 1 1 1 1 1 1 1 1 1 1 1 1 1 1 1 1 1 1 1 1 1 1 1 1 1 1 1 1 1 1 1 1 1 1 1 1 1 1 1 1 1 1 1 1 1 1 1 1 1 1 1 1 1 1 1 1 1 1 1 1 1 1 1 1 1 1 1 1 1 1 1 1 1 1 1 1 1 1 1 1 1 1 1 1 1 1 1 1 1 1 1 1 1 1 1 1 1 1 1 1 1 1 1 1 1 1 1 1 1 1 1 1 1 1 1 1 1 1 1 1 1 1 1 1 1 1 1 1 1 1 1 1 1 1 1 1 1 1 1 1 1 1 1 1 1 1 1 1 1 1 1 1 1 1 1 1 1 1 1 1 1 1 1 1 1 1 1 1 1 1 1 1 1 1 1 1 1 1 1 1 1 1 1 1 1 1 1 1 1 1 1 1 1 1 1 1 1 1 1 1 1 1 1 1 1 1 1 1 1 1 1 1 1 1 1 1 1 1 1 1 1 1 1 1 1 1 1 1 1 1 1 1 1 1 1 1 1 1 1 1 1 1 1 1 1 1 1 1 1 1 1 1 1 1 1 1 1 1 1 1 1 1 1 1 1 1 1 1 1 1 1 1 1 1 1 1 1 1 1 1 1 1 1 1 1 1 1 1 1 1 1 1 1 1 1 1 1 1 1 1 1 1 1 1 1 1 1 1 1 1 1 1 1 1 1 1 1 1 1 1 1 1 1 1 1 1 1 1 1 1 1 1 1 1 1 1 1 1 1 1 1 1 1 1 1 1 1 1 1 1 1 1 1 1 1 1 1 1 1 1 1 1 1 1 1 1 1 1 1 1 1 1 1 1 1 1 1 1 1 1 1 1 1 1 1 1 1 1 1 1 1 1 1 1 1 1 1 1 1 1 1 1 1 1 1 1 1 1 1 1 1 1 1 1 1 1 1 1 1 1 1 1 1 1 1 1 1 1 1 1 1 1 1 1 1 1 1 1 1 1 1 1 1 1 1 1 1 1 1 1 1 1 1 1 1 1 1 1 1 1 1 1 1 1 1 1 1 1 1 1 1 1 1 1 1 1 1 1 1 1 1 1 1 1 1 1 1 1 1 1 1 1 1 1 1 1 
</DataArray>
<DataArray type="Float64" Name="cell variable 7" format="ascii">
0 0 0 0 0 0 0 0 0 0 0 0 0 0 0 0 0 0 0 0 0 0 0 0 0 0 0 0 0 0 0 0 0 0 0 0 0 0 0 0 0 0 0 0 0 0 0 0 0 0 0 0 0 0 0 0 0 0 0 0 0 0 0 0 0 0 0 0 0 0 0 0 0 0 0 0 0 0 0 0 0 0 0 0 0 0 0 0 0 0 0 0 0 0 0 0 0 0 0 0 0 0 0 0 0 0 0 0 0 0 0 0 0 0 0 0 0 0 0 0 0 0 0 0 0 0 0 0 0 0 0 0 0 0 0 0 0 0 0 0 0 0 0 0 0 0 0 0 0 0 0 0 0 0 0 0 0 0 0 0 0 0 0 0 0 0 0 0 0 0 0 0 0 0 0 0 0 0 0 0 0 0 0 0 0 0 0 0 0 0 0 0 0 0 0 0 0 0 0 0 0 0 0 0 0 0 0 0 0 0 0 0 0 0 0 0 0 0 0 0 0 0 0 0 0 0 0 0 0 0 0 0 0 0 0 0 0 0 0 0 0 0 0 0 0 0 0 0 0 0 0 0 0 0 0 0 0 0 0 0 0 0 0 0 0 0 0 0 0 0 0 0 0 0 0 0 0 0 0 0 0 0 0 0 0 0 0 0 0 0 0 0 0 0 0 0 0 0 0 0 0 0 0 0 0 0 0 0 0 0 0 0 0 0 0 0 0 0 0 0 0 0 0 0 0 0 0 0 0 0 0 0 0 0 0 0 0 0 0 0 0 0 0 0 0 0 0 0 0 0 0 0 0 0 0 0 0 0 0 0 0 0 0 0 0 0 0 0 0 0 0 0 0 0 0 0 0 0 0 0 0 0 0 0 0 0 0 0 0 0 0 0 0 0 0 0 0 0 0 0 0 0 0 0 0 0 0 0 0 0 0 0 0 0 0 0 0 0 0 0 0 0 0 0 0 0 0 0 0 0 0 0 0 0 0 0 0 0 0 0 0 0 0 0 0 0 0 0 0 0 0 0 0 0 0 0 0 0 0 0 0 0 0 0 0 0 0 0 0 0 0 0 0 0 0 0 0 0 0 0 0 0 0 0 0 0 0 0 0 0 0 0 0 0 0 0 0 0 0 0 0 0 0 0 0 0 0 0 0 0 0 0 1 1 
</DataArray>
<DataArray type="Float64" Name="cell variable 8" format="ascii">
11.25 33.75 56.25 78.75 101.25 123.75 146.25 168.75 191.25 213.75 236.25 258.75 281.25 303.75 326.25 348.75 11.25 33.75 56.25 78.75 101.25 123.75 146.25 168.75 191.25 213.75 236.25 258.75 281.25 303.75 326.25 348.75 11.25 33.75 56.25 78.75 101.25 123.75 146.25 168.75 191.25 213.75 236.25 258.75 281.25 303.75 326.25 348.75 11.25 33.75 56.25 78.75 101.25 123.75 146.25 168.75 191.25 213.75 236.25 258.75 281.25 303.75 326.25 348.75 11.25 33.75 56.25 78.75 101.25 123.75 146.25 168.75 191.25 213.75 236.25 258.75 281.25 303.75 326.25 348.75 11.25 33.75 56.25 78.75 101.25 123.75 146.25 168.75 191.25 213.75 236.25 258.75 281.25 303.75 326.25 348.75 11.25 33.75 56.25 78.75 101.25 123.75 146.25 168.75 191.25 213.75 236.25 258.75 281.25 303.75 326.25 348.75 11.25 33.75 56.25 78.75 101.25 123.75 146.25 168.75 191.25 213.75 236.25 258.75 281.25 303.75 326.25 348.75 11.25 33.75 56.25 78.75 101.25 123.75 146.25 168.75 191.25 213.75 236.25 258.75 281.25 303.75 326.25 348.75 11.25 33.75 56.25 78.75 101.25 123.75 146.25 168.75 191.25 213.75 236.25 258.75 281.25 303.75 326.25 348.75 11.25 33.75 56.25 78.75 101.25 123.75 146.25 168.75 191.25 213.75 236.25 258.75 281.25 303.75 326.25 348.75 11.25 33.75 56.25 78.75 101.25 123.75 146.25 168.75 191.25 213.75 236.25 258.75 281.25 303.75 326.25 348.75 11.25 33.75 56.25 78.75 101.25 123.75 146.25 168.75 191.25 213.75 236.25 258.75 281.25 303.75 326.25 348.75 11.25 33.75 56.25 78.75 101.25 123.75 146.25 168.75 191.25 213.75 236.25 258.75 281.25 303.75 326.25 348.75 11.25 33.75 56.25 78.75 101.25 123.75 146.25 168.75 191.25 213.75 236.25 258.75 281.25 303.75 326.25 348.75 11.25 33.75 56.25 78.75 101.25 123.75 146.25 168.75 191.25 213.75 236.25 258.75 281.25 303.75 326.25 348.75 11.25 33.75 56.25 78.75 101.25 123.75 146.25 168.75 191.25 213.75 236.25 258.75 281.25 303.75 326.25 348.75 11.25 33.75 56.25 78.75 101.25 123.75 146.25 168.75 191.25 213.75 236.25 258.75 281.25 303.75 326.25 348.75 11.25 33.75 56.25 78.75 101.25 123.75 146.25 168.75 191.25 213.75 236.25 258.75 281.25 303.75 326.25 348.75 11.25 33.75 56.25 78.75 101.25 123.75 146.25 168.75 191.25 213.75 236.25 258.75 281.25 303.75 326.25 348.75 11.25 33.75 56.25 78.75 101.25 123.75 146.25 168.75 191.25 213.75 236.25 258.75 281.25 303.75 326.25 348.75 11.25 33.75 56.25 78.75 101.25 123.75 146.25 168.75 191.25 213.75 236.25 258.75 281.25 303.75 326.25 348.75 11.25 33.75 56.25 78.75 101.25 123.75 146.25 168.75 191.25 213.75 236.25 258.75 281.25 303.75 326.25 348.75 11.25 33.75 56.25 78.75 101.25 123.75 146.25 168.75 191.25 213.75 236.25 258.75 281.25 303.75 326.25 348.75 11.25 33.75 56.25 78.75 101.25 123.75 146.25 168.75 191.25 213.75 236.25 258.75 281.25 303.75 326.25 348.75 11.25 33.75 56.25 78.75 101.25 123.75 146.25 168.75 191.25 213.75 236.25 258.75 281.25 303.75 326.25 348.75 11.25 33.75 56.25 78.75 101.25 123.75 146.25 168.75 191.25 213.75 236.25 258.75 281.25 303.75 326.25 348.75 11.25 33.75 56.25 78.75 101.25 123.75 146.25 168.75 191.25 213.75 236.25 258.75 281.25 303.75 326.25 348.75 11.25 33.75 56.25 78.75 101.25 123.75 146.25 168.75 191.25 213.75 236.25 258.75 281.25 303.75 326.25 348.75 11.25 33.75 56.25 78.75 101.25 123.75 146.25 168.75 191.25 213.75 236.25 258.75 281.25 303.75 326.25 348.75 11.25 33.75 56.25 78.75 101.25 123.75 146.25 168.75 191.25 213.75 236.25 258.75 281.25 303.75 326.25 348.75 11.25 33.75 56.25 78.75 101.25 123.75 146.25 168.75 191.25 213.75 236.25 258.75 281.25 303.75 326.25 348.75 0 0 
</DataArray>
</CellData>
</Piece>
</UnstructuredGrid>
</VTKFile>
