<VTKFile type="UnstructuredGrid" version="0.1">
<UnstructuredGrid>
<Piece  NumberOfPoints="    2080" NumberOfCells="     514">
<Points>
<DataArray type="Float64" NumberOfComponents="3" format="ascii">
-96.0831 1002.89 1.04773
-92.2248 1006.28 26.8236
-76.5501 980.701 28.9484
-80.7658 977.054 1.09439
-91.357 1007.02 29.5755
-80.2643 1016.56 51.3924
-63.6381 991.738 55.2475
-75.6823 981.448 31.7002
-78.6585 1017.93 53.4919
-62.0463 1032.14 68.0009
-44.0286 1008.46 73.0088
-62.0323 993.11 57.347
-59.9551 1033.93 69.1309
-40.4912 1050.73 74.1701
-20.8152 1028.39 79.5812
-41.9374 1010.25 74.1387
-38.2469 1052.69 74.1654
-18.9811 1069.67 69.0357
2.32523 1048.73 74.0663
-18.5709 1030.35 79.5766
-16.9334 1071.51 67.9033
-0.814887 1086.26 53.4057
21.7986 1066.66 57.299
4.37293 1050.57 72.9339
0.731865 1087.7 51.3085
11.3886 1097.83 29.5414
34.7896 1079.15 31.6278
23.3453 1068.11 55.2018
12.218 1098.63 26.7894
15.9628 1102.2 1.00854
39.6066 1083.86 1.01744
35.619 1079.95 28.8759
15.9629 1102.2 -1.97589
12.2196 1098.63 -27.7569
35.622 1079.94 -29.8177
39.6066 1083.86 -1.96699
11.3912 1097.83 -30.5079
0.745805 1087.67 -52.2705
23.3713 1068.07 -56.1198
34.7935 1079.14 -32.5686
-0.798589 1086.22 -54.3662
-16.8968 1071.44 -68.8501
4.42321 1050.5 -73.8392
21.8269 1066.62 -58.2156
-18.9426 1069.59 -69.9811
-38.1959 1052.59 -75.0977
-18.5057 1030.25 -80.4678
2.3774 1048.66 -74.9702
-40.4391 1050.64 -75.1009
-59.8955 1033.83 -70.0488
-41.8611 1010.15 -75.0142
-20.7489 1028.3 -80.471
-61.9847 1032.03 -68.9172
-78.5627 1017.81 -54.3855
-61.9437 993.015 -58.2046
-43.9503 1008.36 -73.8826
-80.1682 1016.44 -52.2835
-91.2662 1006.93 -30.4614
-75.6248 981.375 -32.5123
-63.5491 991.643 -56.1025
-92.139 1006.19 -27.7072
-96.0794 1002.89 -1.93467
-80.7621 977.05 -1.88801
-76.4975 980.634 -29.7581
-78.7596 974.227 1.17166
-74.5439 977.873 29.0257
-53.6916 952.358 29.6478
-58.0115 948.664 1.1977
-61.5856 988.943 55.4601
-40.4625 963.562 56.602
-52.7775 953.138 32.535
-73.6298 978.653 31.9129
-41.8933 1005.73 73.3252
-20.3648 980.547 74.847
-38.7739 964.997 58.8053
-59.897 990.378 57.6635
-18.5722 1025.74 79.9548
3.44894 1000.82 81.6393
-18.1659 982.421 76.034
-39.6944 1007.6 74.5123
4.68367 1046.17 74.4417
27.1535 1021.58 76.0141
5.80873 1002.87 81.6364
-16.2124 1027.78 79.9519
24.2523 1064.2 57.6199
46.8641 1040.06 58.7987
29.2965 1023.51 74.8272
6.82665 1048.11 73.2548
37.3065 1076.77 31.8421
59.9491 1052.97 32.4718
48.4739 1041.59 56.5948
25.8622 1065.72 55.416
42.1539 1081.53 1.09237
64.8098 1057.84 1.10957
60.809 1053.81 29.5805
38.1663 1077.61 28.9508
38.1694 1077.6 -29.8894
60.8159 1053.78 -30.4767
64.81 1057.84 -2.02153
42.1541 1081.53 -2.03873
25.889 1065.69 -56.3293
48.5108 1041.54 -57.4487
59.9576 1052.93 -33.3654
37.3112 1076.76 -32.7781
6.87812 1048.03 -74.1545
29.3518 1023.44 -75.6714
46.9037 1040.01 -59.6502
24.2818 1064.16 -58.5309
-16.1463 1027.69 -80.8379
5.87624 1002.77 -82.4707
27.2105 1021.5 -76.8573
4.73678 1046.1 -75.3403
-39.6173 1007.5 -75.3827
-18.0913 982.324 -76.8566
3.51754 1000.73 -82.4723
-18.505 1025.65 -80.8395
-59.8087 990.283 -58.5162
-38.699 964.909 -59.6175
-20.2894 980.45 -75.6682
-41.8154 1005.63 -74.1943
-73.5746 978.582 -32.7193
-52.7416 953.07 -33.2932
-40.3892 963.476 -57.4108
-61.4989 988.85 -56.3095
-74.4929 977.807 -29.8283
-78.7575 974.223 -1.9582
-58.0093 948.661 -1.93216
-53.6599 952.295 -30.4022
-55.6567 945.871 1.21961
-51.3368 949.565 29.6697
-29.6461 924.711 29.7886
-34.0059 921.034 1.24228
-50.408 950.348 32.593
-38.093 960.772 56.66
-16.2935 935.87 56.8649
-28.7173 925.494 32.712
-36.3773 962.212 58.8924
-17.9681 977.763 74.9341
4.00697 952.78 75.2003
-14.5778 937.31 59.0973
-15.7329 979.644 76.1383
5.88192 998.044 81.7435
28.0758 972.958 82.0312
6.24218 954.662 76.4045
8.27704 1000.1 81.7406
29.6218 1018.81 76.1183
51.9469 993.698 76.3446
30.4709 975.015 82.0283
31.7772 1020.78 74.9158
49.3448 1037.32 58.8873
71.4566 1012.59 59.0682
54.1023 995.662 75.1422
50.9496 1038.9 56.6549
62.4248 1050.28 32.5318
84.3859 1025.87 32.6721
73.0614 1014.17 56.8357
63.2811 1051.15 29.6036
67.2819 1055.17 1.13268
89.2068 1030.87 1.16623
85.2422 1026.73 29.7438
67.2826 1055.17 -2.03892
63.2885 1051.11 -30.4941
85.26 1026.7 -30.5735
89.2075 1030.87 -2.00537
62.4345 1050.24 -33.4197
50.9877 1038.85 -57.503
73.1031 1014.11 -57.6392
84.406 1025.82 -33.4992
49.3848 1037.27 -59.7332
31.833 1020.7 -75.7544
54.1544 995.583 -75.9356
71.5002 1012.53 -59.8694
29.6787 1018.74 -76.956
8.34442 1000.01 -82.5694
30.5326 974.921 -82.8116
52.0001 993.617 -77.1372
5.9501 997.951 -82.5713
-15.6587 979.547 -76.9556
6.30851 954.565 -77.1773
28.1382 972.862 -82.8135
-17.8938 977.666 -75.7505
-36.3034 962.125 -59.6998
-14.5157 937.225 -59.8625
4.07345 952.684 -75.9722
-38.0213 960.686 -57.464
-50.3737 950.28 -33.3464
-28.694 925.429 -33.4217
-16.2336 935.787 -57.6267
-51.3059 949.502 -30.4189
-55.6554 945.868 -1.9489
-34.0045 921.03 -1.92622
-29.6263 924.65 -30.4942
-31.6117 918.276 1.24843
-27.252 921.953 29.7948
-5.78162 897.108 29.8317
-10.2109 893.485 1.26891
-26.3115 922.729 32.7243
-13.8877 933.105 56.8772
7.76316 908.11 56.9118
-4.8411 897.884 32.7613
-12.1516 934.532 59.1127
6.43317 950.002 75.2156
28.3312 924.791 75.2246
9.49923 909.537 59.1472
8.69455 951.865 76.42
30.5281 970.161 82.0467
52.7098 944.686 82.0274
30.5926 926.654 76.429
32.9548 972.198 82.0399
54.4308 990.881 76.3562
77.0112 965.018 76.3192
55.1365 946.723 82.0206
56.6206 992.833 75.1412
73.9749 1009.76 59.0672
97.2521 983.251 59.0114
79.201 966.97 75.1042
75.5974 1011.32 56.8324
86.9219 1023.02 32.6688
110.724 996.078 32.6661
98.8747 984.809 56.7766
87.7879 1023.88 29.7453
91.7525 1028.02 1.16767
115.742 1000.93 1.20043
111.59 996.939 29.7426
91.7536 1028.02 -1.99962
87.8061 1023.84 -30.5678
111.609 996.907 -30.507
115.743 1000.93 -1.96686
86.9422 1022.98 -33.4902
75.6393 1011.26 -57.6303
98.9096 984.748 -57.5342
110.745 996.043 -33.4294
74.0181 1009.7 -59.8638
56.6722 992.754 -75.93
79.2477 966.888 -75.8522
97.2883 983.189 -59.7678
54.4835 990.8 -77.144
33.0159 972.104 -82.8184
55.192 946.628 -82.7578
77.059 964.934 -77.0662
30.5899 970.066 -82.8242
8.76015 951.768 -77.188
30.6513 926.558 -77.1562
52.7659 944.589 -82.7636
6.49866 949.905 -75.9829
-12.0905 934.447 -59.8732
9.55185 909.455 -59.8679
28.3899 924.695 -75.9511
-13.8289 933.022 -57.6344
-26.2893 922.664 -33.4294
-4.82566 897.82 -33.426
7.81348 908.03 -57.6291
-27.2326 921.892 -30.4957
-31.6109 918.272 -1.92768
-10.2101 893.481 -1.90719
-5.76901 897.048 -30.4923
-7.85872 890.709 1.27191
-3.42945 894.333 29.8347
17.507 869.156 29.8598
13.016 865.608 1.29238
-2.47547 895.095 32.7651
10.1288 905.322 56.9156
31.2329 879.939 56.9435
18.461 869.919 32.7902
11.8885 906.725 59.1504
30.7205 921.978 75.2278
52.0693 896.294 75.2525
32.9926 881.342 59.1782
33.0119 923.81 76.4299
55.1291 941.842 82.0283
76.777 915.788 82.0396
54.3607 898.126 76.4547
57.5927 943.838 82.0198
79.4675 962.133 76.3185
101.488 935.631 76.3381
79.2407 917.784 82.0311
81.712 964.025 75.1037
99.7632 980.307 59.0108
122.33 953.193 59.0316
103.733 937.524 75.1233
101.448 981.805 56.7767
113.298 993.073 32.6661
136.296 965.505 32.6894
124.015 954.692 56.7974
114.2 993.902 29.7449
118.352 997.897 1.20273
141.507 970.174 1.22676
137.199 966.334 29.7681
118.353 997.896 -1.96308
114.219 993.87 -30.5032
137.214 966.305 -30.4789
141.508 970.172 -1.93905
113.318 993.039 -33.4241
101.483 981.745 -57.5289
124.046 954.634 -57.5033
136.313 965.473 -33.3998
99.7989 980.244 -59.7624
81.7583 963.943 -75.8468
103.776 937.443 -75.8217
122.363 953.133 -59.7367
79.5148 962.049 -77.0607
57.6478 943.742 -82.7523
79.2925 917.691 -82.7206
101.533 935.549 -77.0356
55.1847 941.746 -82.7599
33.0701 923.714 -77.1525
54.4143 898.032 -77.1357
76.8294 915.694 -82.7282
30.7784 921.883 -75.9496
11.9404 906.643 -59.8665
33.039 881.262 -59.8537
52.1226 896.201 -75.9328
10.1784 905.242 -57.6285
-2.46071 895.032 -33.4254
18.4717 869.857 -33.4097
31.2771 879.861 -57.6156
-3.41714 894.273 -30.4908
-7.85819 890.706 -1.90568
13.0166 865.605 -1.88521
17.5153 869.099 -30.4752
15.3049 862.793 1.29497
19.7959 866.341 29.8624
40.1208 840.762 29.8857
35.5695 837.301 1.31517
20.7628 867.087 32.7935
33.5347 877.107 56.9468
54.0296 851.287 56.9785
41.0877 841.508 32.8168
35.318 878.479 59.1821
54.3947 893.432 75.2564
75.1487 867.26 75.2975
55.8129 852.66 59.2138
56.7177 895.223 76.4581
79.134 912.886 82.043
100.212 886.288 82.0839
77.4717 869.052 76.4992
81.6354 914.834 82.0341
103.883 932.681 76.3411
125.335 905.6 76.3796
102.713 888.237 82.0749
106.175 934.513 75.127
124.773 950.183 59.0353
146.687 922.534 59.0683
127.627 907.433 75.1656
126.509 951.624 56.8008
138.79 962.438 32.6928
161.071 934.346 32.7178
148.423 923.975 56.8338
139.722 963.233 29.7709
144.031 967.073 1.22955
166.446 938.824 1.2519
162.004 935.141 29.7959
144.032 967.071 -1.93671
139.738 963.204 -30.4765
162.017 935.114 -30.457
166.447 938.822 -1.91437
138.806 962.406 -33.3981
126.539 951.566 -57.5015
148.451 923.92 -57.4906
161.086 934.316 -33.3786
124.805 950.123 -59.7355
106.219 934.433 -75.8205
127.668 907.354 -75.8159
146.717 922.476 -59.7246
103.927 932.598 -77.0338
81.6869 914.74 -82.7188
102.762 888.145 -82.7176
125.377 905.519 -77.0292
79.1859 912.791 -82.7269
56.7708 895.13 -77.1345
77.5211 868.961 -77.1346
100.261 886.196 -82.7257
54.4475 893.339 -75.9321
35.364 878.4 -59.8529
55.8551 852.583 -59.8443
75.1979 867.17 -75.9322
33.5785 877.029 -57.6144
20.7731 867.026 -33.4085
41.0953 841.449 -33.3915
54.0695 851.212 -57.6058
19.804 866.284 -30.4732
15.3053 862.79 -1.88329
35.5699 837.298 -1.86309
40.1262 840.707 -30.4563
37.7892 834.441 1.31764
42.3404 837.902 29.8882
62.0301 811.903 29.9105
57.4171 808.536 1.33747
43.3205 838.629 32.8201
56.2624 848.408 56.9817
76.1289 822.145 57.0135
63.0102 812.629 32.8424
58.0703 849.746 59.2182
77.4062 864.346 75.3019
97.5457 837.695 75.3465
77.9369 823.483 59.2499
79.7625 866.093 76.5042
102.502 883.329 82.0888
122.982 856.213 82.1378
99.902 839.442 76.5488
105.043 885.225 82.0796
127.665 902.588 76.3843
148.52 874.962 76.4252
125.522 858.108 82.1285
130.002 904.362 75.17
149.062 919.464 59.0728
170.325 891.3 59.1065
150.857 876.736 75.2109
150.841 920.85 56.8375
163.488 931.221 32.7215
185.073 902.636 32.7461
172.105 892.686 56.8713
164.448 931.984 29.7987
168.89 935.666 1.25465
190.593 906.929 1.276
186.032 903.399 29.8233
168.891 935.665 -1.91229
164.461 931.957 -30.455
186.044 903.374 -30.4371
190.594 906.928 -1.89095
163.503 931.191 -33.3775
150.868 920.795 -57.4895
172.13 892.633 -57.4813
185.086 902.608 -33.3596
149.091 919.406 -59.7243
130.042 904.284 -75.8156
150.895 876.659 -75.815
170.352 891.244 -59.7161
127.707 902.508 -77.0292
105.091 885.134 -82.7176
125.568 858.019 -82.7258
148.559 874.883 -77.0286
102.551 883.237 -82.7261
79.8116 866.002 -77.135
99.9478 839.354 -77.1397
123.027 856.123 -82.7344
77.4549 864.257 -75.9322
58.1121 849.67 -59.8442
77.9756 823.409 -59.8365
97.5912 837.608 -75.9368
56.302 848.333 -57.6046
43.3278 838.569 -33.3904
63.0155 812.571 -33.3731
76.1655 822.072 -57.5969
42.3458 837.846 -30.4543
37.7894 834.438 -1.86113
57.4173 808.533 -1.8413
62.0334 811.848 -30.437
59.5656 805.629 1.33985
64.1786 808.996 29.9129
83.2239 782.574 29.9342
78.5471 779.306 1.35923
65.1723 809.702 32.8455
78.291 819.218 57.0166
97.5191 792.515 57.0463
84.2176 783.28 32.8669
80.1245 820.518 59.2542
99.7334 834.731 75.3509
119.244 807.613 75.3928
99.3527 793.816 59.284
102.124 836.428 76.554
125.204 853.199 82.143
145.062 825.584 82.1899
121.634 809.31 76.5959
127.784 855.039 82.1334
150.782 871.892 76.43
171.014 843.747 76.4682
147.643 827.424 82.1803
153.161 873.608 75.2152
172.63 888.171 59.1108
193.233 859.507 59.1421
173.392 845.463 75.2534
174.447 889.506 56.8748
187.416 899.456 32.7497
208.306 870.394 32.7734
195.051 860.842 56.9061
188.398 900.188 29.826
192.959 903.718 1.27866
213.954 874.51 1.29916
209.288 871.126 29.8497
192.959 903.717 -1.88897
188.41 900.163 -30.4351
209.298 871.102 -30.418
213.954 874.509 -1.86847
187.429 899.428 -33.3586
174.472 889.453 -57.4802
195.074 860.791 -57.4711
208.317 870.368 -33.3414
172.656 888.116 -59.7158
153.199 873.531 -75.8148
173.428 845.388 -75.8131
193.258 859.454 -59.7066
150.821 871.814 -77.0289
127.829 854.95 -82.7261
147.685 827.338 -82.7336
171.05 843.671 -77.0273
125.249 853.11 -82.7351
102.17 836.34 -77.1404
121.677 809.224 -77.1435
145.105 825.497 -82.7426
99.7785 834.644 -75.9368
80.163 820.444 -59.8364
99.3885 793.744 -59.8278
119.286 807.528 -75.9398
78.3274 819.145 -57.5957
65.1773 809.644 -33.3719
84.2207 783.223 -33.3546
97.5528 792.445 -57.587
64.1818 808.941 -30.4351
59.5657 805.626 -1.83933
78.5472 779.304 -1.81995
83.2252 782.52 -30.4178
80.6236 776.353 1.36151
85.3003 779.62 29.9365
103.696 752.781 29.957
98.9537 749.618 1.38036
86.308 780.305 32.8698
99.6095 789.54 57.0492
118.191 762.407 57.0766
104.703 753.466 32.8903
101.469 790.801 59.2879
121.36 804.598 75.3968
140.228 777.027 75.434
120.051 763.668 59.3153
123.786 806.243 76.6006
147.214 822.518 82.1946
166.432 794.426 82.2358
142.654 778.672 76.6379
149.834 824.299 82.1847
173.205 840.623 76.4727
192.791 811.984 76.5072
169.052 796.207 82.2259
175.624 842.279 75.2573
195.465 856.324 59.1459
215.395 827.175 59.1735
195.21 813.641 75.2918
197.318 857.608 56.9093
210.572 867.161 32.7766
230.762 837.633 32.7989
217.248 828.46 56.9369
211.576 867.863 29.8522
216.241 871.247 1.30169
236.526 841.58 1.3214
231.765 838.335 29.8745
216.242 871.246 -1.86654
211.586 867.84 -30.4161
231.774 838.313 -30.399
236.526 841.579 -1.84683
210.584 867.134 -33.3402
197.341 857.557 -57.4699
217.269 828.411 -57.4585
230.772 837.608 -33.3232
195.489 856.271 -59.7061
175.66 842.205 -75.8125
195.242 813.569 -75.8085
215.418 827.124 -59.6947
173.241 840.547 -77.0274
149.876 824.213 -82.7337
169.091 796.123 -82.7368
192.824 811.91 -77.0234
147.256 822.431 -82.743
123.828 806.158 -77.1439
142.693 778.589 -77.1435
166.471 794.341 -82.7461
121.402 804.514 -75.9396
101.505 790.729 -59.8275
120.084 763.598 -59.8176
140.267 776.945 -75.9392
99.643 789.47 -57.5857
86.3109 780.248 -33.3533
104.704 753.41 -33.3363
118.222 762.338 -57.5758
85.3016 779.567 -30.4158
80.6236 776.35 -1.818
98.9537 749.615 -1.79915
103.695 752.729 -30.3988
100.958 746.619 1.38255
105.699 749.782 29.9592
123.439 722.534 29.9788
118.632 719.479 1.40082
106.721 750.444 32.893
120.209 759.386 57.0793
138.136 731.832 57.1042
124.461 723.196 32.9125
122.095 760.605 59.3188
142.272 773.964 75.4376
160.486 745.955 75.4702
140.022 733.051 59.3437
144.734 775.555 76.642
168.512 791.308 82.2399
187.072 762.758 82.2755
162.947 747.546 76.6747
171.171 793.029 82.2299
194.91 808.806 76.5112
213.826 779.7 76.5418
189.731 764.479 82.2655
197.367 810.404 75.2952
217.553 823.939 59.1769
236.796 794.325 59.2015
216.284 781.298 75.3258
219.438 825.174 56.9398
232.952 834.347 32.8017
252.433 804.365 32.8227
238.681 795.56 56.9645
233.974 835.022 29.8769
238.735 838.266 1.32379
258.303 808.15 1.34275
253.455 805.039 29.8978
238.735 838.265 -1.84493
233.983 834.999 -30.3971
253.463 805.018 -30.3803
258.303 808.149 -1.82596
232.962 834.322 -33.3218
219.459 825.126 -57.4571
238.7 795.514 -57.4443
252.442 804.341 -33.3049
217.575 823.888 -59.6938
197.4 810.332 -75.8076
216.314 781.228 -75.8012
236.816 794.276 -59.681
194.943 808.733 -77.0231
171.21 792.946 -82.7366
189.767 764.398 -82.7355
213.857 779.629 -77.0167
168.55 791.224 -82.746
144.773 775.472 -77.1435
162.983 747.465 -77.1398
187.108 762.676 -82.7449
142.311 773.882 -75.9386
122.128 760.535 -59.817
140.053 732.983 -59.8058
160.522 745.875 -75.9349
120.24 759.317 -57.5744
106.722 750.389 -33.3349
124.46 723.141 -33.3181
138.165 731.765 -57.5632
105.699 749.73 -30.3969
100.957 746.616 -1.79723
118.632 719.476 -1.77896
123.437 722.483 -30.3801
120.562 716.435 1.40291
125.37 719.49 29.9809
142.449 691.842 29.9994
137.575 688.899 1.42055
126.406 720.129 32.915
140.081 728.765 57.1066
157.346 700.802 57.1291
143.484 692.481 32.9335
141.993 729.941 59.3468
162.457 742.845 75.4733
180.005 714.411 75.5019
159.258 701.978 59.3693
164.953 744.379 76.6783
189.078 759.591 82.2791
206.966 730.6 82.3104
182.502 715.946 76.7069
191.776 761.251 82.269
215.871 776.472 76.5453
234.106 746.913 76.5723
209.664 732.26 82.3002
218.365 778.01 75.3288
238.877 791.037 59.2045
257.421 760.973 59.2275
236.6 748.452 75.3559
240.793 792.225 56.9671
254.545 801.029 32.8253
273.309 770.605 32.8452
259.336 762.16 56.99
255.584 801.676 29.9001
260.432 804.786 1.345
279.276 774.232 1.36322
274.348 771.252 29.92
260.433 804.785 -1.82409
255.593 801.655 -30.3784
274.356 771.232 -30.362
279.276 774.231 -1.80588
254.554 801.005 -33.3035
240.812 792.178 -57.4429
259.354 762.116 -57.4297
273.317 770.582 -33.287
238.897 790.989 -59.68
218.395 777.941 -75.8001
236.628 748.385 -75.7914
257.439 760.926 -59.6668
215.901 776.401 -77.0161
191.811 761.17 -82.7349
209.697 732.182 -82.7307
234.134 746.845 -77.0074
189.114 759.51 -82.7445
164.989 744.299 -77.1394
182.535 715.868 -77.1329
206.999 730.522 -82.7404
162.493 742.765 -75.934
142.024 729.873 -59.805
159.286 701.912 -59.7927
180.038 714.334 -75.9276
140.109 728.698 -57.5617
126.405 720.074 -33.3166
143.482 692.428 -33.3
157.372 700.737 -57.5494
125.368 719.439 -30.3782
120.562 716.433 -1.77707
137.575 688.897 -1.75943
142.445 691.793 -30.3616
139.432 685.812 1.42254
144.306 688.755 30.0014
160.717 660.721 30.019
155.779 657.892 1.43952
145.355 689.37 32.9357
159.217 697.691 57.1314
175.812 669.332 57.1519
161.767 661.335 32.9534
161.155 698.823 59.372
181.902 711.256 75.5046
198.775 682.414 75.5296
177.75 670.465 59.3925
184.433 712.732 76.71
208.897 727.387 82.3135
226.101 697.974 82.3406
201.305 683.891 76.735
211.633 728.983 82.3033
236.074 743.637 76.5754
253.613 713.646 76.5994
228.837 699.571 82.3303
238.604 745.115 75.3586
259.425 757.637 59.2301
277.258 727.14 59.2511
256.143 715.125 75.3826
261.369 758.776 56.9924
275.341 767.221 32.8476
293.379 736.369 32.8664
279.202 728.279 57.0134
276.397 767.841 29.9221
281.325 770.821 1.36535
299.436 739.843 1.38282
294.435 736.989 29.9409
281.325 770.82 -1.80405
276.404 767.82 -30.3601
294.442 736.97 -30.344
299.437 739.842 -1.78659
275.35 767.198 -33.2855
261.386 758.731 -57.4282
279.217 728.236 -57.4145
293.387 736.348 -33.2694
259.443 757.59 -59.6656
238.631 745.049 -75.7902
256.168 715.06 -75.7799
277.274 727.094 -59.6519
236.102 743.569 -77.0066
211.665 728.905 -82.7299
228.867 699.496 -82.7229
253.639 713.58 -76.9963
208.93 727.309 -82.7397
184.466 712.655 -77.1322
201.336 683.816 -77.1235
226.131 697.899 -82.7327
181.935 711.179 -75.9265
161.183 698.757 -59.7916
177.776 670.4 -59.7788
198.805 682.34 -75.9178
159.243 697.626 -57.5479
145.353 689.317 -33.2985
161.763 661.284 -33.2824
175.836 669.269 -57.535
144.301 688.706 -30.3598
139.432 685.81 -1.75759
155.779 657.889 -1.74061
160.711 660.672 -30.3437
157.562 654.763 1.44142
162.5 657.591 30.0209
178.238 629.183 30.0376
173.237 626.471 1.4577
163.563 658.181 32.9555
177.608 666.178 57.154
193.525 637.439 57.1727
179.301 629.773 32.9722
179.572 667.265 59.395
200.596 679.215 75.5321
216.783 649.981 75.5539
195.489 638.526 59.4137
203.16 680.632 76.7377
227.956 694.716 82.3433
244.464 664.899 82.3665
219.347 651.399 76.7595
230.728 696.248 82.333
255.504 710.323 76.6021
272.334 679.92 76.6234
247.235 666.431 82.3562
258.068 711.741 75.385
279.183 723.756 59.2535
296.293 692.843 59.2725
274.899 681.338 75.4063
281.154 724.847 57.0156
295.332 732.938 32.8686
312.634 701.674 32.8862
298.264 693.935 57.0346
296.402 733.532 29.9429
301.404 736.385 1.38483
318.776 704.996 1.40158
313.705 702.268 29.9605
301.404 736.384 -1.7848
296.409 733.512 -30.3422
313.711 702.249 -30.3265
318.776 704.995 -1.76804
295.339 732.917 -33.2678
281.17 724.805 -57.413
298.278 693.894 -57.3989
312.641 701.653 -33.252
279.2 723.711 -59.6506
258.093 711.677 -75.7786
274.921 681.276 -75.767
296.308 692.8 -59.6365
255.53 710.258 -76.9952
230.758 696.173 -82.7219
247.263 666.359 -82.7125
272.357 679.857 -76.9837
227.986 694.64 -82.7318
203.19 680.558 -77.1226
219.375 651.327 -77.1121
244.491 664.827 -82.7224
200.626 679.141 -75.9166
179.597 667.201 -59.7775
195.512 638.464 -59.7642
216.81 649.91 -75.9061
177.632 666.116 -57.5335
163.559 658.13 -33.2808
179.295 629.723 -33.2652
193.547 637.378 -57.5201
162.494 657.543 -30.3419
157.562 654.76 -1.73883
173.236 626.468 -1.72254
178.23 629.136 -30.3263
174.944 623.301 1.4595
179.945 626.012 30.0394
195.003 597.243 30.0553
189.94 594.65 1.47508
181.022 626.578 32.9741
195.246 634.244 57.1746
210.477 605.137 57.1916
196.079 597.808 32.9899
197.234 635.284 59.4158
218.528 646.74 75.556
234.02 617.13 75.575
212.465 606.178 59.4328
221.124 648.097 76.7619
246.241 661.597 82.3689
262.041 631.395 82.3888
236.616 618.488 76.7808
249.048 663.064 82.3585
274.147 676.552 76.6257
290.257 645.755 76.6446
264.848 632.861 82.3785
276.744 677.909 75.4085
298.138 689.415 59.2747
314.514 658.104 59.2921
292.854 647.112 75.4274
300.134 690.458 57.0367
314.505 698.198 32.8882
331.064 666.537 32.9048
316.511 659.148 57.054
315.59 698.765 29.9624
320.661 701.493 1.40347
337.284 669.708 1.41947
332.149 667.104 29.9789
320.661 701.492 -1.7663
315.596 698.746 -30.3247
332.155 667.086 -30.3093
337.285 669.707 -1.7503
314.512 698.177 -33.2504
300.149 690.417 -57.3973
316.524 659.109 -57.383
331.071 666.517 -33.2351
298.153 689.372 -59.635
276.766 677.848 -75.7656
292.874 647.053 -75.7531
314.528 658.063 -59.6207
274.17 676.49 -76.9825
249.075 662.992 -82.7113
264.873 632.792 -82.7001
290.278 645.695 -76.9699
246.268 661.525 -82.7212
221.152 648.025 -77.1109
236.641 618.419 -77.099
262.066 631.326 -82.71
218.555 646.669 -75.9048
197.257 635.222 -59.7629
212.487 606.118 -59.7493
234.045 617.062 -75.8929
195.267 634.183 -57.5186
181.015 626.528 -33.2636
196.071 597.76 -33.2485
210.496 605.079 -57.5049
179.938 625.966 -30.3245
174.944 623.298 -1.72082
189.939 594.648 -1.70524
194.993 597.198 -30.3094
191.571 591.441 1.47678
196.634 594.034 30.057
211.004 564.918 30.0719
205.882 562.446 1.49164
197.724 594.573 32.9917
212.121 601.902 57.1934
226.658 572.444 57.2087
212.093 565.457 33.0066
214.133 602.896 59.4347
235.688 613.849 75.5769
250.475 583.88 75.5933
228.67 573.438 59.4501
238.315 615.144 76.7829
263.74 628.052 82.3908
278.824 597.481 82.4078
253.103 585.176 76.7992
266.581 629.452 82.3805
291.989 642.345 76.6466
307.368 611.172 76.6633
281.664 598.881 82.3974
294.617 643.64 75.4293
316.278 654.633 59.294
331.912 622.943 59.3098
309.997 612.467 75.4459
318.299 655.628 57.0559
332.852 663.017 32.9066
348.658 630.976 32.9221
333.932 623.938 57.0717
333.95 663.558 29.9807
339.086 666.162 1.42125
354.953 633.995 1.43645
349.756 631.517 29.9962
339.086 666.161 -1.74861
333.956 663.54 -30.3077
349.762 631.5 -30.2928
354.954 633.995 -1.73341
332.859 662.998 -33.2335
318.312 655.589 -57.3814
333.944 623.901 -57.3671
348.664 630.957 -33.2186
316.292 654.592 -59.6192
294.638 643.582 -75.7516
310.015 612.411 -75.7383
331.924 622.903 -59.6049
292.01 642.285 -76.9685
266.605 629.383 -82.6987
281.686 598.816 -82.686
307.387 611.115 -76.9552
263.765 627.983 -82.7087
238.34 615.076 -77.0977
253.125 585.11 -77.0846
278.846 597.415 -82.6959
235.712 613.78 -75.8915
214.154 602.836 -59.7478
228.689 573.381 -59.734
250.498 583.815 -75.8784
212.141 601.844 -57.5034
197.715 594.525 -33.2469
212.083 565.411 -33.2323
226.676 572.388 -57.4896
196.625 593.989 -30.3078
191.571 591.439 -1.70358
205.881 562.443 -1.68872
210.993 564.874 -30.2932
207.437 559.199 1.49325
212.559 561.671 30.0735
226.234 532.222 30.0874
221.055 529.873 1.50737
213.661 562.184 33.0082
228.226 569.172 57.2104
242.061 539.377 57.2242
227.336 532.736 33.0222
230.26 570.117 59.4517
252.065 580.559 75.5949
266.14 550.248 75.6089
244.096 540.323 59.4655
254.722 581.793 76.8009
280.443 594.099 82.4095
294.8 563.178 82.4237
268.797 551.482 76.8149
283.316 595.431 82.3992
309.02 607.722 76.665
323.659 576.193 76.6795
297.673 564.511 82.4134
311.678 608.955 75.4476
333.593 619.43 59.3115
348.474 587.379 59.3259
326.317 577.425 75.4621
335.637 620.378 57.0734
350.363 627.415 32.9238
365.408 595.01 32.9382
350.518 588.326 57.0878
351.474 627.929 29.9978
356.671 630.408 1.43812
371.774 597.877 1.45258
366.519 595.524 30.0123
356.671 630.407 -1.73178
351.479 627.912 -30.2912
366.523 595.508 -30.2768
371.774 597.876 -1.71732
350.369 627.396 -33.217
335.649 620.34 -57.3655
350.528 588.291 -57.3512
365.413 594.991 -33.2026
333.605 619.391 -59.6034
311.696 608.899 -75.7367
326.333 577.372 -75.7228
348.485 587.341 -59.5891
309.039 607.665 -76.9537
283.337 595.366 -82.6845
297.692 564.449 -82.6705
323.675 576.139 -76.9398
280.465 594.033 -82.6944
254.744 581.727 -77.0831
268.817 551.419 -77.0691
294.82 563.116 -82.6805
252.087 580.494 -75.8769
230.279 570.06 -59.7325
244.113 540.268 -59.7186
266.16 550.186 -75.8629
228.243 569.116 -57.488
213.65 562.138 -33.2308
227.324 532.691 -33.2167
242.076 539.324 -57.4741
212.548 561.627 -30.2916
207.436 559.197 -1.68713
221.054 529.871 -1.67301
226.221 532.181 -30.2775
222.532 526.59 1.50888
227.711 528.94 30.089
240.685 499.174 30.102
235.452 496.948 1.52222
228.825 529.427 33.0237
243.55 536.068 57.2257
256.677 505.953 57.2379
241.799 499.661 33.0367
245.607 536.966 59.467
267.651 546.891 75.6103
281.005 516.254 75.622
258.734 506.851 59.4793
270.336 548.061 76.8163
296.339 559.758 82.4251
309.961 528.506 82.4368
283.691 517.424 76.828
299.242 561.023 82.4149
325.229 572.705 76.6809
339.118 540.838 76.6933
312.864 529.771 82.4265
327.915 573.874 75.4636
350.072 583.828 59.3274
364.192 551.433 59.3405
341.804 542.007 75.476
352.138 584.726 57.0893
367.028 591.409 32.9398
381.304 558.657 32.9533
366.257 552.332 57.1024
368.151 591.897 30.0139
373.406 594.25 1.45414
387.737 561.371 1.46786
382.426 559.145 30.0274
373.406 594.25 -1.71575
368.156 591.881 -30.2752
382.431 559.129 -30.2613
387.737 561.37 -1.70203
367.033 591.391 -33.201
352.148 584.691 -57.3496
366.267 552.298 -57.3355
381.309 558.64 -33.1872
350.083 583.79 -59.5875
327.931 573.821 -75.7212
341.819 541.957 -75.7067
364.201 551.398 -59.5735
325.245 572.651 -76.9382
299.262 560.961 -82.6689
312.881 529.712 -82.6539
339.133 540.786 -76.9237
296.359 559.696 -82.6789
270.356 547.999 -77.0675
283.708 517.365 -77.0528
309.979 528.447 -82.6638
267.671 546.829 -75.8614
245.624 536.911 -59.717
258.749 506.799 -59.7031
281.023 516.195 -75.8466
243.565 536.015 -57.4726
228.813 529.383 -33.2152
241.786 499.619 -33.2017
256.691 505.902 -57.4587
227.699 528.898 -30.276
222.531 526.588 -1.67148
235.451 496.946 -1.65814
240.671 499.134 -30.2625
236.851 493.631 1.52363
242.085 495.857 30.1034
254.351 465.789 30.1154
249.065 463.687 1.53613
243.21 496.318 33.038
258.088 502.609 57.2393
270.499 472.189 57.25
255.476 466.249 33.05
260.165 503.458 59.4805
282.437 512.861 75.6232
295.063 481.916 75.6325
272.576 473.038 59.4912
285.148 513.968 76.8291
311.419 525.05 82.4379
324.299 493.485 82.4469
297.775 483.023 76.8385
314.351 526.246 82.4277
340.605 537.313 76.6945
353.738 505.127 76.7048
327.231 494.681 82.4367
343.318 538.419 75.4774
365.705 547.845 59.3419
379.056 515.126 59.3536
356.451 506.233 75.4876
367.792 548.694 57.1038
382.838 555.019 32.9547
396.337 521.937 32.9673
381.143 515.975 57.1156
383.972 555.48 30.0288
389.283 557.707 1.46931
402.834 524.496 1.48234
397.472 522.398 30.0414
389.283 557.706 -1.70053
383.977 555.464 -30.2598
397.476 522.383 -30.2465
402.835 524.495 -1.6875
382.843 555.002 -33.1856
367.801 548.66 -57.334
381.151 515.943 -57.3201
396.342 521.921 -33.1723
365.715 547.81 -59.5719
343.332 538.369 -75.7051
356.463 506.186 -75.6899
379.065 515.092 -59.558
340.62 537.262 -76.922
314.368 526.188 -82.6522
327.246 494.625 -82.636
353.75 505.079 -76.9068
311.436 524.991 -82.6621
285.166 513.91 -77.0511
297.79 482.967 -77.0356
324.314 493.429 -82.646
282.454 512.803 -75.845
260.179 503.407 -59.7015
272.589 472.989 -59.6876
295.078 481.86 -75.8295
258.101 502.559 -57.4572
243.196 496.275 -33.2002
255.461 466.209 -33.1874
270.51 472.141 -57.4433
242.07 495.817 -30.2611
236.85 493.629 -1.65669
249.065 463.685 -1.64419
254.335 465.751 -30.2483
250.386 460.337 1.53744
255.671 462.439 30.1167
267.223 432.083 30.1277
261.889 430.107 1.5491
256.807 462.873 33.0512
271.83 468.813 57.2511
283.519 438.104 57.2602
268.359 432.517 33.0622
273.927 469.613 59.4922
296.414 478.49 75.6335
308.305 447.253 75.6402
285.616 438.904 59.5012
299.151 479.533 76.8393
325.674 489.995 82.4478
337.804 458.135 82.4537
311.043 448.297 76.846
328.634 491.122 82.4376
355.141 501.569 76.7058
367.509 469.083 76.7136
340.763 459.262 82.4436
357.879 502.61 75.4887
380.485 511.503 59.3547
393.059 478.478 59.3649
370.247 470.124 75.4966
382.591 512.302 57.1169
397.786 518.264 32.9685
410.502 484.87 32.9799
395.166 479.276 57.127
398.931 518.697 30.0428
404.294 520.795 1.48368
417.06 487.27 1.49577
411.647 485.303 30.0542
404.294 520.795 -1.68606
398.935 518.683 -30.245
411.651 485.289 -30.2323
417.06 487.269 -1.67398
397.79 518.248 -33.1708
382.6 512.27 -57.3186
395.173 479.247 -57.3048
410.506 484.854 -33.1581
380.493 511.47 -59.5563
357.892 502.563 -75.6883
370.258 470.08 -75.6725
393.067 478.446 -59.5425
355.153 501.521 -76.9051
328.649 491.067 -82.6343
340.776 459.211 -82.6168
367.52 469.038 -76.8892
325.689 489.94 -82.6442
299.166 479.478 -77.0337
311.056 448.245 -77.0172
337.817 458.083 -82.6267
296.429 478.435 -75.8278
273.939 469.564 -59.686
285.627 438.858 -59.6721
308.319 447.202 -75.8113
271.841 468.765 -57.4418
256.792 462.833 -33.1859
268.342 432.48 -33.1737
283.529 438.059 -57.4279
255.655 462.401 -30.2469
250.385 460.335 -1.64281
261.888 430.105 -1.63115
267.206 432.048 -30.2347
263.13 426.725 1.5503
268.464 428.702 30.1289
279.296 398.074 30.1389
273.915 396.222 1.56111
269.61 429.11 33.0632
284.77 434.697 57.2612
295.731 403.715 57.2683
280.442 398.482 33.0732
286.885 435.447 59.5019
309.575 443.797 75.6409
320.725 412.287 75.6445
297.846 404.466 59.509
312.336 444.776 76.8465
339.097 454.614 82.4543
350.469 422.479 82.4567
323.486 413.266 76.8501
342.082 455.672 82.4442
368.827 465.493 76.7143
380.424 432.728 76.7195
353.454 423.536 82.4467
371.59 466.469 75.4975
394.402 474.822 59.3657
406.194 441.511 59.3741
383.186 433.704 75.5028
396.527 475.57 57.128
411.863 481.164 32.981
423.789 447.474 32.9912
408.319 442.259 57.1364
413.019 481.569 30.0554
418.431 483.535 1.49698
430.406 449.711 1.50821
424.945 447.879 30.0656
418.432 483.535 -1.67261
413.022 481.555 -30.231
424.948 447.866 -30.2188
430.406 449.71 -1.66138
411.867 481.148 -33.1565
396.535 475.541 -57.3033
408.326 442.231 -57.2894
423.793 447.46 -33.1443
394.41 474.791 -59.5408
371.601 466.425 -75.6708
383.196 433.663 -75.654
406.201 441.481 -59.527
368.838 465.448 -76.8873
342.095 455.621 -82.6149
353.466 423.489 -82.5956
380.434 432.686 -76.8705
339.11 454.563 -82.6247
312.349 444.724 -77.0152
323.498 413.218 -76.9974
350.481 422.431 -82.6054
309.588 443.746 -75.8095
286.896 435.402 -59.6703
297.855 404.424 -59.6562
320.737 412.239 -75.7917
284.78 434.652 -57.4264
269.593 429.072 -33.1723
280.424 398.447 -33.1607
295.739 403.673 -57.4123
268.447 428.667 -30.2334
263.129 426.724 -1.62985
273.914 396.22 -1.61904
279.277 398.041 -30.2219
275.076 392.812 1.56218
280.457 394.663 30.1399
290.562 363.777 30.1488
285.138 362.049 1.5721
281.612 395.044 33.074
296.901 400.278 57.2691
307.127 369.04 57.2742
291.717 364.158 33.0828
299.033 400.98 59.5094
321.912 408.801 75.6449
332.315 377.035 75.6451
309.259 369.741 59.5145
324.695 409.716 76.8502
351.679 418.929 82.4569
362.288 386.538 82.4554
335.098 377.95 76.8504
354.688 419.916 82.4469
381.657 429.108 76.7198
392.475 396.085 76.7221
365.297 387.526 82.4454
384.442 430.018 75.5034
407.45 437.825 59.3747
418.452 404.247 59.3812
395.261 396.995 75.5057
409.593 438.521 57.1373
425.063 443.737 32.992
436.194 409.77 33.0011
420.595 404.943 57.1438
426.228 444.113 30.0667
431.689 445.945 1.5093
442.866 411.838 1.51983
437.359 410.146 30.0758
431.689 445.944 -1.66006
426.232 444.1 -30.2175
437.363 410.134 -30.2056
442.866 411.837 -1.64953
425.067 443.722 -33.1428
409.599 438.494 -57.2879
420.601 404.917 -57.2737
436.198 409.756 -33.1309
407.456 437.796 -59.5252
384.452 429.978 -75.6522
395.269 396.958 -75.6341
418.458 404.22 -59.511
381.667 429.066 -76.8684
354.699 419.869 -82.5935
365.307 387.482 -82.5719
392.484 396.046 -76.8503
351.69 418.881 -82.6032
324.707 409.668 -76.9952
335.108 377.907 -76.9756
362.298 386.495 -82.5816
321.924 408.753 -75.7898
299.042 400.938 -59.6543
309.267 369.703 -59.6398
332.325 376.992 -75.7701
296.909 400.237 -57.4109
281.593 395.01 -33.1593
291.698 364.125 -33.1484
307.134 369.001 -57.3964
280.438 394.631 -30.2207
275.075 392.81 -1.61782
285.137 362.048 -1.60791
290.542 363.746 -30.2098
286.217 358.611 1.57306
291.642 360.338 30.1497
301.016 329.206 30.1574
295.551 327.602 1.58207
292.806 360.693 33.0834
308.216 365.575 57.2748
317.703 334.095 57.2776
302.18 329.561 33.0911
310.364 366.228 59.5146
333.42 373.522 75.6451
343.07 341.519 75.6413
319.851 334.748 59.5174
336.224 374.373 76.8501
363.413 382.961 82.455
373.254 350.337 82.4488
345.874 342.37 76.8462
366.444 383.879 82.4453
393.623 392.437 76.7219
403.657 359.179 76.7208
376.285 351.255 82.439
396.429 393.282 75.506
419.621 400.533 59.3815
429.828 366.709 59.3857
406.463 360.023 75.5048
421.781 401.176 57.1444
437.379 406.004 33.0018
447.71 371.776 33.0095
431.988 367.352 57.1486
438.554 406.35 30.0767
444.061 408.041 1.52079
454.436 373.667 1.5305
448.885 372.122 30.0845
444.061 408.04 -1.64824
438.557 406.337 -30.2043
448.888 372.11 -30.1928
454.437 373.666 -1.63854
437.383 405.99 -33.1294
421.787 401.151 -57.2721
431.994 367.328 -57.2572
447.714 371.763 -33.1178
419.627 400.506 -59.5091
396.437 393.245 -75.6322
406.471 359.989 -75.6123
429.834 366.684 -59.4942
393.631 392.399 -76.848
366.454 383.835 -82.5695
376.293 351.215 -82.5449
403.664 359.144 -76.8281
363.423 382.917 -82.5792
336.233 374.329 -76.9731
345.882 342.331 -76.9511
373.262 350.297 -82.5545
333.43 373.479 -75.7681
310.371 366.189 -59.6378
319.857 334.713 -59.6228
343.079 341.48 -75.7462
308.222 365.537 -57.3949
292.786 360.661 -33.1469
302.159 329.532 -33.1367
317.708 334.06 -57.3799
291.622 360.308 -30.2087
286.216 358.609 -1.60677
295.55 327.601 -1.59776
300.995 329.179 -30.1984
296.549 324.137 1.5829
302.015 325.741 30.1582
310.652 294.377 30.1647
305.148 292.894 1.59096
303.187 326.07 33.0915
318.709 330.603 57.278
327.452 298.897 57.2781
311.824 294.706 33.0979
320.872 331.209 59.517
344.092 337.98 75.6409
352.985 305.759 75.6323
329.614 299.502 59.5171
346.914 338.768 76.8453
374.294 346.734 82.4479
383.36 313.899 82.436
355.807 306.547 76.8367
377.346 347.582 82.4383
404.717 355.507 76.7201
413.962 322.037 76.7148
386.412 314.747 82.4264
407.544 356.284 75.5047
430.909 362.97 59.3856
440.317 328.921 59.387
416.789 322.814 75.4995
433.085 363.558 57.149
448.807 367.982 33.0099
458.333 333.51 33.0163
442.493 329.509 57.1504
449.99 368.297 30.0853
455.542 369.842 1.53131
465.112 335.214 1.54019
459.516 333.825 30.0917
455.542 369.841 -1.63729
449.994 368.285 -30.1915
459.52 333.813 -30.1803
465.112 335.213 -1.62842
448.81 367.969 -33.1162
433.09 363.535 -57.2555
442.498 329.487 -57.2396
458.336 333.497 -33.1049
430.914 362.945 -59.4921
407.551 356.25 -75.6102
416.795 322.783 -75.5879
440.322 328.898 -59.4761
404.725 355.472 -76.8254
377.354 347.543 -82.5422
386.419 314.712 -82.5137
413.969 322.005 -76.8032
374.302 346.695 -82.5517
346.923 338.729 -76.9483
355.815 306.512 -76.9234
383.368 313.863 -82.5231
344.1 337.941 -75.7439
320.878 331.174 -59.6205
329.62 299.471 -59.6047
352.992 305.725 -75.719
318.714 330.569 -57.3784
303.166 326.041 -33.1352
311.803 294.68 -33.1256
327.456 298.867 -57.3625
301.993 325.714 -30.1974
296.548 324.136 -1.5967
305.147 292.893 -1.58863
310.63 294.353 -30.1878
306.065 289.404 1.59166
311.569 290.886 30.1654
319.466 259.301 30.1705
313.926 257.937 1.59875
312.749 291.19 33.098
328.376 295.381 57.2782
336.37 263.462 57.2755
320.646 259.604 33.1032
330.552 295.939 59.5163
353.922 302.196 75.6315
362.054 269.776 75.6175
338.546 264.02 59.5135
356.762 302.922 76.8352
384.315 310.274 82.4344
392.603 277.25 82.4161
364.893 270.502 76.8212
387.385 311.053 82.4251
414.936 318.342 76.7136
423.387 284.687 76.7038
395.673 278.03 82.4068
417.781 319.052 75.4989
441.309 325.159 59.3864
449.913 290.906 59.3845
426.232 285.397 75.4891
443.5 325.69 57.1504
459.34 329.691 33.0163
468.058 294.988 33.0212
452.104 291.437 57.1485
460.532 329.973 30.0923
466.128 331.362 1.54085
474.888 296.494 1.54887
469.25 295.27 30.0972
466.128 331.361 -1.62721
460.536 329.961 -30.1791
469.254 295.259 -30.168
474.888 296.493 -1.61918
459.344 329.678 -33.1031
443.505 325.669 -57.2377
452.109 291.418 -57.2202
468.062 294.977 -33.092
441.314 325.136 -59.4738
417.788 319.021 -75.5856
426.238 285.369 -75.5605
449.918 290.885 -59.4562
414.943 318.311 -76.8002
387.393 311.018 -82.5107
395.68 277.998 -82.4775
423.394 284.659 -76.7751
384.323 310.238 -82.5199
356.769 302.888 -76.9202
364.9 270.471 -76.8918
392.61 277.219 -82.4868
353.93 302.162 -75.7165
330.558 295.909 -59.6022
338.551 263.994 -59.5852
362.06 269.746 -75.6881
328.38 295.351 -57.361
312.727 291.164 -33.1241
320.623 259.582 -33.1151
336.374 263.436 -57.3441
311.547 290.862 -30.1868
306.064 289.403 -1.58764
313.925 257.936 -1.58055
319.443 259.28 -30.1778
314.76 254.422 1.5993
320.3 255.786 30.1711
327.453 223.989 30.1748
321.88 222.739 1.60536
321.487 256.065 33.103
337.212 259.922 57.2753
344.454 227.804 57.2695
328.64 224.267 33.1068
339.4 260.435 59.5122
362.907 266.191 75.6162
370.274 233.589 75.5965
346.643 228.316 59.5063
365.762 266.856 76.819
393.472 273.605 82.4139
400.977 240.42 82.3886
373.128 234.255 76.7994
396.559 274.316 82.4049
424.273 280.974 76.7019
431.926 247.163 76.6866
404.065 241.131 82.3796
427.135 281.615 75.488
450.816 287.124 59.3834
458.612 252.688 59.3775
434.788 247.804 75.4727
453.021 287.595 57.1481
468.975 291.146 33.0208
476.882 256.227 33.0242
460.818 253.16 57.1422
470.176 291.393 30.0977
475.814 292.617 1.54938
483.761 257.519 1.55661
478.082 256.474 30.101
475.814 292.616 -1.618
470.18 291.382 -30.1668
478.086 256.464 -30.1559
483.761 257.519 -1.61077
468.979 291.135 -33.0901
453.027 287.576 -57.2182
460.823 253.142 -57.1984
476.886 256.217 -33.0792
450.821 287.103 -59.4535
427.141 281.587 -75.5578
434.795 247.78 -75.5291
458.618 252.67 -59.4337
424.279 280.946 -76.7716
396.566 274.285 -82.4741
404.072 241.104 -82.4358
431.933 247.138 -76.743
393.479 273.574 -82.4831
365.769 266.826 -76.8881
373.135 234.23 -76.8559
400.985 240.393 -82.4448
362.914 266.161 -75.6853
339.405 260.409 -59.5824
346.647 228.295 -59.5643
370.28 233.564 -75.6531
337.215 259.897 -57.3425
321.464 256.043 -33.1135
328.617 224.25 -33.1051
344.457 227.783 -57.3244
320.277 255.766 -30.1769
314.759 254.421 -1.57964
321.879 222.738 -1.57358
327.43 223.972 -30.1685
322.632 219.201 1.60575
328.205 220.451 30.1752
334.614 188.449 30.1771
329.01 187.31 1.61077
329.398 220.706 33.1063
345.212 224.242 57.269
351.702 191.935 57.2597
335.807 188.704 33.1082
347.412 224.711 59.5045
371.043 229.984 75.5947
377.642 197.221 75.5696
353.901 192.404 59.4952
373.911 230.592 76.7965
401.76 236.757 82.3856
408.481 203.438 82.3538
380.51 197.828 76.7715
404.862 237.402 82.377
432.723 243.434 76.684
439.574 209.502 76.6615
411.583 204.083 82.3451
435.602 244.005 75.471
459.426 248.888 59.3757
466.41 214.29 59.3648
442.452 210.072 75.4485
461.645 249.296 57.1415
477.709 252.364 33.0235
484.798 217.24 33.0252
468.629 214.698 57.1306
478.918 252.572 30.1014
484.596 253.618 1.55697
491.723 218.301 1.56333
486.007 217.448 30.1031
484.596 253.617 -1.60963
478.922 252.562 -30.1548
486.011 217.439 -30.144
491.723 218.3 -1.60327
477.713 252.353 -33.077
461.651 249.279 -57.1962
468.636 214.683 -57.1734
484.803 217.23 -33.0662
459.432 248.87 -59.4306
435.609 243.98 -75.5259
442.46 210.051 -75.492
466.416 214.274 -59.4077
432.731 243.409 -76.739
404.87 237.375 -82.4319
411.592 204.06 -82.3891
439.582 209.48 -76.7051
401.767 236.73 -82.4406
373.918 230.567 -76.8517
380.518 197.808 -76.816
408.489 203.415 -82.3978
371.05 229.959 -75.65
347.416 224.69 -59.5612
353.907 192.389 -59.5415
377.65 197.201 -75.6143
345.215 224.222 -57.3227
329.375 220.688 -33.1033
335.784 188.692 -33.095
351.706 191.92 -57.303
328.182 220.434 -30.1676
322.631 219.201 -1.57273
329.009 187.309 -1.56771
334.59 188.438 -30.1593
329.68 183.749 1.61092
335.283 184.889 30.1772
340.957 152.69 30.1747
335.328 151.655 1.61494
336.482 185.121 33.1072
352.377 188.352 57.2588
358.119 155.868 57.2431
342.156 152.923 33.1047
354.586 188.78 59.4927
378.327 193.597 75.5671
384.159 160.691 75.5352
360.328 156.296 59.477
381.207 194.15 76.7678
409.177 199.76 82.3501
415.109 166.338 82.3118
387.039 161.245 76.7359
412.292 200.342 82.3416
440.283 205.76 76.658
446.322 171.746 76.6226
418.225 166.92 82.3033
443.176 206.259 75.4456
467.133 210.476 59.362
473.293 175.731 59.344
449.214 172.244 75.4102
469.365 210.815 57.1293
485.534 213.356 33.0239
491.787 178.033 33.0222
475.525 176.069 57.1113
486.75 213.523 30.1033
492.466 214.376 1.56348
498.75 178.845 1.56866
493.003 178.2 30.1016
492.466 214.375 -1.60215
486.755 213.514 -30.1429
493.009 178.193 -30.1312
498.751 178.844 -1.59697
485.539 213.347 -33.0637
469.372 210.8 -57.1708
475.534 176.057 -57.1433
491.794 178.026 -33.052
467.14 210.461 -59.4037
443.184 206.238 -75.488
449.225 172.226 -75.4435
473.302 175.718 -59.3762
440.292 205.739 -76.7005
412.301 200.319 -82.3844
418.235 166.901 -82.3371
446.332 171.727 -76.656
409.186 199.737 -82.393
381.215 194.13 -76.8112
387.049 161.23 -76.7703
415.12 166.319 -82.3457
378.334 193.577 -75.6106
354.592 188.765 -59.5379
360.335 156.288 -59.5132
384.169 160.677 -75.5697
352.381 188.338 -57.3009
336.459 185.109 -33.093
342.134 152.918 -33.082
358.125 155.861 -57.2762
335.26 184.878 -30.1584
329.679 183.749 -1.56682
335.327 151.655 -1.5628
340.935 152.686 -30.1473
335.92 148.074 1.61427
341.549 149.109 30.174
346.553 116.729 30.1487
340.914 115.793 1.61741
342.751 149.32 33.1017
358.715 152.265 57.2402
363.751 119.623 57.189
347.755 116.94 33.0764
360.93 152.656 59.4719
384.761 157.051 75.5302
389.843 124.028 75.4598
365.967 120.013 59.4208
387.649 157.555 76.7299
415.719 162.648 82.3058
420.852 129.162 82.2327
392.731 124.532 76.6595
418.843 163.171 82.2971
446.94 167.997 76.6164
452.129 133.94 76.5373
423.976 129.684 82.224
449.845 168.42 75.4047
473.924 171.906 59.3385
479.201 137.018 59.2978
455.033 134.363 75.3256
476.165 172.167 57.1086
492.427 174.131 33.0196
497.755 138.606 33.0024
481.442 137.279 57.0679
493.648 174.252 30.1012
499.395 174.897 1.56821
504.734 139.147 1.57137
498.976 138.726 30.084
499.395 174.897 -1.59559
493.654 174.245 -30.1299
498.984 138.723 -30.1064
504.734 139.146 -1.59242
492.434 174.124 -33.0485
476.174 172.155 -57.1398
481.455 137.27 -57.0928
497.764 138.602 -33.025
473.933 171.893 -59.3698
449.856 168.401 -75.4371
455.049 134.347 -75.3507
479.215 137.008 -59.3229
446.952 167.978 -76.6488
418.855 163.152 -82.33
423.992 129.668 -82.249
452.144 133.924 -76.5624
415.73 162.63 -82.3387
387.659 157.54 -76.7633
392.745 124.522 -76.6848
420.867 129.146 -82.2576
384.771 157.037 -75.5637
360.938 152.649 -59.5071
365.978 120.015 -59.4473
389.857 124.019 -75.4852
358.721 152.259 -57.2724
342.73 149.316 -33.0781
347.738 116.945 -33.0454
363.762 119.625 -57.2125
341.527 149.105 -30.1458
335.919 148.074 -1.56126
340.913 115.793 -1.55811
346.535 116.734 -30.1131
341.455 112.198 1.61181
347.094 113.133 30.1431
351.822 80.6546 29.9662
346.224 79.8163 1.61322
348.294 113.325 33.0604
364.29 116.007 57.173
368.914 83.2797 56.8605
353.022 80.8463 32.8835
366.5 116.363 59.3976
390.376 120.378 75.4367
394.858 87.3006 75.0496
371.124 83.6357 59.0851
393.258 120.838 76.6334
421.378 125.468 82.2065
425.697 91.9802 81.8014
397.739 87.7602 76.2463
424.498 125.934 82.1988
452.651 130.19 76.512
456.82 96.1088 76.1588
428.816 92.4464 81.7936
455.554 130.53 75.3057
479.721 133.185 59.2779
483.773 98.1099 59.068
459.723 96.4488 74.9526
481.958 133.357 57.0564
498.271 134.684 32.9909
502.197 98.9057 32.8618
486.01 98.2821 56.8465
499.488 134.754 30.0796
505.247 135.174 1.56701
509.117 99.1518 1.55814
503.414 98.9758 29.9505
505.247 135.174 -1.58841
499.497 134.75 -30.1024
503.419 98.9753 -29.9813
509.117 99.1519 -1.59728
498.281 134.68 -33.013
481.972 133.349 -57.0808
486.034 98.2773 -56.8553
502.202 98.9052 -32.8919
479.736 133.175 -59.3018
455.569 130.514 -75.3297
459.747 96.4347 -74.9623
483.797 98.1041 -59.0763
452.667 130.174 -76.536
424.514 125.918 -82.2226
428.841 92.4344 -81.8065
456.845 96.0943 -76.1687
421.394 125.453 -82.2305
393.273 120.829 -76.6577
397.762 87.7565 -76.2618
425.721 91.9687 -81.8144
390.391 120.371 -75.461
366.512 116.366 -59.4231
371.145 83.649 -59.0996
394.88 87.298 -75.0652
364.3 116.011 -57.1955
348.276 113.331 -33.0284
353.013 80.8651 -32.8452
368.933 83.294 -56.872
347.076 113.139 -30.1068
341.454 112.198 -1.55185
346.223 79.817 -1.55043
351.813 80.6729 -29.9237
346.888 76.2609 1.57255
352.487 77.0991 29.9255
359.637 45.1999 28.6472
354.304 44.4406 1.571
353.653 77.2727 32.7695
369.546 79.7062 56.7464
375.944 47.584 54.4155
360.804 45.3735 31.4912
371.698 80.0293 58.9188
395.431 83.6942 74.8832
400.731 51.2162 71.9005
378.096 47.907 56.5878
398.239 84.1109 76.0552
426.197 88.3308 81.6103
430.243 55.4297 78.4544
403.539 51.633 73.0726
429.235 88.7492 81.6083
457.239 92.4116 75.9736
460.044 59.243 73.1143
433.282 55.8482 78.4525
460.056 92.7097 74.8057
484.107 94.3708 58.9212
485.651 61.5484 56.6402
462.861 59.541 71.9464
486.284 94.5158 56.7498
502.47 95.1394 32.7651
503.082 62.6243 31.4616
487.829 61.6933 54.4688
503.653 95.1951 29.9149
509.357 95.3712 1.52256
509.613 62.9442 1.51121
504.265 62.68 28.6114
509.357 95.3706 -1.56368
503.658 95.1941 -29.9477
504.259 62.6543 -28.6549
509.613 62.9436 -1.57503
502.476 95.1379 -32.7949
486.307 94.51 -56.7583
487.854 61.6686 -54.4622
503.077 62.5981 -31.502
484.131 94.3647 -58.9278
460.081 92.6953 -74.8138
462.89 59.5281 -71.9432
485.679 61.5233 -56.6318
457.265 92.3975 -75.9821
429.26 88.7376 -81.62
433.311 55.8407 -78.4562
460.073 59.2303 -73.1116
426.222 88.3199 -81.6224
398.263 84.1077 -76.0698
403.565 51.6357 -73.0824
430.273 55.423 -78.4587
395.454 83.6925 -74.8982
371.719 80.0435 -58.9326
378.116 47.935 -56.6019
400.757 51.2206 -71.9108
369.565 79.7217 -56.7576
353.645 77.2928 -32.7308
360.791 45.4062 -31.4558
375.962 47.6132 -54.4269
352.477 77.1181 -29.8829
346.888 76.2622 -1.50966
354.303 44.4419 -1.5112
359.623 45.2315 -28.6079
355.159 40.9366 1.4882
360.493 41.6959 28.5644
368.496 10.3273 26.8594
363.487 9.64813 1.48222
361.597 41.8526 31.2568
376.737 44.0631 54.1812
383.818 12.4715 51.0317
369.6 10.484 29.5518
378.774 44.3541 56.2391
401.409 47.6633 71.5518
407.106 15.7182 67.4177
385.855 12.7625 53.0896
404.067 48.0376 72.6637
430.772 51.8344 78.0456
434.816 19.4931 73.5455
409.765 16.0925 68.5296
433.648 52.2159 78.0456
460.41 55.6107 72.7074
462.751 23.009 68.5077
437.693 19.8747 73.5456
463.071 55.9077 71.5974
485.862 57.9151 56.2911
486.695 25.4623 53.0484
465.412 23.306 67.3976
487.906 58.0889 54.2305
503.159 59.0199 31.2232
502.939 26.7744 29.4593
488.74 25.6361 50.9878
504.267 59.0941 28.5263
509.615 59.3582 1.42609
509.008 27.1747 1.43511
504.046 26.8485 26.7624
509.615 59.3561 -1.48993
504.261 59.0668 -28.5698
504.039 26.7992 -26.7918
509.008 27.1726 -1.4809
503.155 58.9908 -31.2631
487.932 58.0613 -54.2233
488.757 25.5917 -50.9793
502.933 26.7232 -29.4851
485.889 57.8891 -56.282
463.1 55.8939 -71.5934
465.434 23.2926 -67.3944
486.714 25.4195 -53.038
460.439 55.5983 -72.7042
433.678 52.2087 -78.0488
437.715 19.8697 -73.5469
462.773 22.9971 -68.5052
430.801 51.828 -78.0493
404.093 48.0408 -72.6731
409.785 16.0984 -68.5354
434.838 19.489 -73.5474
401.435 47.6685 -71.5617
378.793 44.383 -56.2529
385.866 12.8021 -53.1008
407.126 15.7261 -67.424
376.755 44.0939 -54.1929
361.584 41.8869 -31.2217
369.584 10.5304 -29.5253
383.827 12.513 -51.0408
360.479 41.7282 -28.5258
355.159 40.9387 -1.42915
363.486 9.65019 -1.43512
368.48 10.3718 -26.8293
364.54 6.36829 1.35311
369.549 7.04748 26.7303
380.234 -20.9974 23.7836
375.812 -21.6189 1.33183
370.558 7.18738 29.1886
384.776 9.17491 50.6684
393.842 -19.0983 45.2722
381.243 -20.8575 26.2418
386.64 9.43161 52.5473
407.892 12.3872 66.8754
414.589 -16.3113 59.8218
395.706 -18.8416 47.1511
410.324 12.7165 67.8877
435.375 16.1172 72.9036
439.258 -13.0316 65.2259
417.021 -15.982 60.8341
438.002 16.4624 72.8996
463.06 19.5967 67.8617
464.069 -9.7546 60.6973
441.885 -12.6864 65.2219
465.485 19.8941 66.8468
486.768 22.0504 52.4976
485.256 -6.98192 46.9623
466.493 -9.45719 59.6824
488.627 22.2578 50.6213
502.826 23.396 29.0929
499.629 -5.12511 26.1211
487.115 -6.77455 45.086
503.834 23.499 26.6362
508.796 23.8252 1.30887
505.027 -4.44368 1.32957
500.637 -5.0221 23.6644
508.796 23.8237 -1.35111
503.827 23.4503 -26.662
500.637 -5.0238 -23.6652
505.027 -4.44521 -1.33041
502.819 23.3457 -29.1178
488.644 22.2142 -50.6121
487.115 -6.77802 -45.0862
499.629 -5.12836 -26.121
486.785 22.0085 -52.4878
465.504 19.8816 -66.8442
466.494 -9.45913 -59.6821
485.257 -6.98381 -46.962
463.081 19.5852 -67.8592
438.023 16.4578 -72.901
441.886 -12.6873 -65.2217
464.07 -9.7555 -60.6972
435.396 16.1131 -72.9052
410.342 12.7225 -67.8931
417.022 -15.9823 -60.8341
439.259 -13.032 -65.2259
407.91 12.3944 -66.8809
386.65 9.47032 -52.5576
395.706 -18.8405 -47.1513
414.589 -16.3104 -59.8219
384.785 9.21528 -50.6781
370.542 7.23265 -29.1626
381.243 -20.8546 -26.2414
393.842 -19.0955 -45.2718
369.533 7.09133 -26.7033
364.54 6.3697 -1.30912
375.811 -21.6175 -1.33041
380.234 -20.9959 -23.7821
-87.6806 1012.46 25.3278
-91.539 1009.08 -0.448102
-87.5986 1012.38 -26.2206
-76.5005 1021.89 -48.0427
-59.9225 1036.11 -62.5744
-40.4661 1052.92 -67.6265
-21.2128 1069.92 -62.5099
-5.11458 1084.7 -48.0261
5.53078 1094.86 -26.2634
9.27399 1098.44 -0.482389
5.52917 1094.87 25.2985
-5.12757 1084.74 47.0656
-21.2461 1069.99 61.5631
-40.5119 1053.01 66.6929
-59.9757 1036.2 61.6537
-76.588 1021.99 47.1447
382.635 -22.3855 1.31945e-05
387.058 -21.764 22.4517
399.656 -20.0048 41.4821
418.539 -17.4746 54.1528
440.776 -14.5241 58.5446
462.96 -11.5923 54.02
481.723 -9.11705 41.3
494.237 -7.4676 22.335
498.627 -6.88918 0.000239176
494.237 -7.46776 -22.3346
481.723 -9.11742 -41.2997
462.96 -11.5927 -54.0199
440.776 -14.5245 -58.5445
418.539 -17.4748 -54.1527
399.656 -20.0049 -41.4821
387.058 -21.764 -22.4517
</DataArray>
</Points>
<Cells>
<DataArray type="Int32" Name="connectivity" format="ascii">
0 1 2 3 
4 5 6 7 
8 9 10 11 
12 13 14 15 
16 17 18 19 
20 21 22 23 
24 25 26 27 
28 29 30 31 
32 33 34 35 
36 37 38 39 
40 41 42 43 
44 45 46 47 
48 49 50 51 
52 53 54 55 
56 57 58 59 
60 61 62 63 
64 65 66 67 
68 69 70 71 
72 73 74 75 
76 77 78 79 
80 81 82 83 
84 85 86 87 
88 89 90 91 
92 93 94 95 
96 97 98 99 
100 101 102 103 
104 105 106 107 
108 109 110 111 
112 113 114 115 
116 117 118 119 
120 121 122 123 
124 125 126 127 
128 129 130 131 
132 133 134 135 
136 137 138 139 
140 141 142 143 
144 145 146 147 
148 149 150 151 
152 153 154 155 
156 157 158 159 
160 161 162 163 
164 165 166 167 
168 169 170 171 
172 173 174 175 
176 177 178 179 
180 181 182 183 
184 185 186 187 
188 189 190 191 
192 193 194 195 
196 197 198 199 
200 201 202 203 
204 205 206 207 
208 209 210 211 
212 213 214 215 
216 217 218 219 
220 221 222 223 
224 225 226 227 
228 229 230 231 
232 233 234 235 
236 237 238 239 
240 241 242 243 
244 245 246 247 
248 249 250 251 
252 253 254 255 
256 257 258 259 
260 261 262 263 
264 265 266 267 
268 269 270 271 
272 273 274 275 
276 277 278 279 
280 281 282 283 
284 285 286 287 
288 289 290 291 
292 293 294 295 
296 297 298 299 
300 301 302 303 
304 305 306 307 
308 309 310 311 
312 313 314 315 
316 317 318 319 
320 321 322 323 
324 325 326 327 
328 329 330 331 
332 333 334 335 
336 337 338 339 
340 341 342 343 
344 345 346 347 
348 349 350 351 
352 353 354 355 
356 357 358 359 
360 361 362 363 
364 365 366 367 
368 369 370 371 
372 373 374 375 
376 377 378 379 
380 381 382 383 
384 385 386 387 
388 389 390 391 
392 393 394 395 
396 397 398 399 
400 401 402 403 
404 405 406 407 
408 409 410 411 
412 413 414 415 
416 417 418 419 
420 421 422 423 
424 425 426 427 
428 429 430 431 
432 433 434 435 
436 437 438 439 
440 441 442 443 
444 445 446 447 
448 449 450 451 
452 453 454 455 
456 457 458 459 
460 461 462 463 
464 465 466 467 
468 469 470 471 
472 473 474 475 
476 477 478 479 
480 481 482 483 
484 485 486 487 
488 489 490 491 
492 493 494 495 
496 497 498 499 
500 501 502 503 
504 505 506 507 
508 509 510 511 
512 513 514 515 
516 517 518 519 
520 521 522 523 
524 525 526 527 
528 529 530 531 
532 533 534 535 
536 537 538 539 
540 541 542 543 
544 545 546 547 
548 549 550 551 
552 553 554 555 
556 557 558 559 
560 561 562 563 
564 565 566 567 
568 569 570 571 
572 573 574 575 
576 577 578 579 
580 581 582 583 
584 585 586 587 
588 589 590 591 
592 593 594 595 
596 597 598 599 
600 601 602 603 
604 605 606 607 
608 609 610 611 
612 613 614 615 
616 617 618 619 
620 621 622 623 
624 625 626 627 
628 629 630 631 
632 633 634 635 
636 637 638 639 
640 641 642 643 
644 645 646 647 
648 649 650 651 
652 653 654 655 
656 657 658 659 
660 661 662 663 
664 665 666 667 
668 669 670 671 
672 673 674 675 
676 677 678 679 
680 681 682 683 
684 685 686 687 
688 689 690 691 
692 693 694 695 
696 697 698 699 
700 701 702 703 
704 705 706 707 
708 709 710 711 
712 713 714 715 
716 717 718 719 
720 721 722 723 
724 725 726 727 
728 729 730 731 
732 733 734 735 
736 737 738 739 
740 741 742 743 
744 745 746 747 
748 749 750 751 
752 753 754 755 
756 757 758 759 
760 761 762 763 
764 765 766 767 
768 769 770 771 
772 773 774 775 
776 777 778 779 
780 781 782 783 
784 785 786 787 
788 789 790 791 
792 793 794 795 
796 797 798 799 
800 801 802 803 
804 805 806 807 
808 809 810 811 
812 813 814 815 
816 817 818 819 
820 821 822 823 
824 825 826 827 
828 829 830 831 
832 833 834 835 
836 837 838 839 
840 841 842 843 
844 845 846 847 
848 849 850 851 
852 853 854 855 
856 857 858 859 
860 861 862 863 
864 865 866 867 
868 869 870 871 
872 873 874 875 
876 877 878 879 
880 881 882 883 
884 885 886 887 
888 889 890 891 
892 893 894 895 
896 897 898 899 
900 901 902 903 
904 905 906 907 
908 909 910 911 
912 913 914 915 
916 917 918 919 
920 921 922 923 
924 925 926 927 
928 929 930 931 
932 933 934 935 
936 937 938 939 
940 941 942 943 
944 945 946 947 
948 949 950 951 
952 953 954 955 
956 957 958 959 
960 961 962 963 
964 965 966 967 
968 969 970 971 
972 973 974 975 
976 977 978 979 
980 981 982 983 
984 985 986 987 
988 989 990 991 
992 993 994 995 
996 997 998 999 
1000 1001 1002 1003 
1004 1005 1006 1007 
1008 1009 1010 1011 
1012 1013 1014 1015 
1016 1017 1018 1019 
1020 1021 1022 1023 
1024 1025 1026 1027 
1028 1029 1030 1031 
1032 1033 1034 1035 
1036 1037 1038 1039 
1040 1041 1042 1043 
1044 1045 1046 1047 
1048 1049 1050 1051 
1052 1053 1054 1055 
1056 1057 1058 1059 
1060 1061 1062 1063 
1064 1065 1066 1067 
1068 1069 1070 1071 
1072 1073 1074 1075 
1076 1077 1078 1079 
1080 1081 1082 1083 
1084 1085 1086 1087 
1088 1089 1090 1091 
1092 1093 1094 1095 
1096 1097 1098 1099 
1100 1101 1102 1103 
1104 1105 1106 1107 
1108 1109 1110 1111 
1112 1113 1114 1115 
1116 1117 1118 1119 
1120 1121 1122 1123 
1124 1125 1126 1127 
1128 1129 1130 1131 
1132 1133 1134 1135 
1136 1137 1138 1139 
1140 1141 1142 1143 
1144 1145 1146 1147 
1148 1149 1150 1151 
1152 1153 1154 1155 
1156 1157 1158 1159 
1160 1161 1162 1163 
1164 1165 1166 1167 
1168 1169 1170 1171 
1172 1173 1174 1175 
1176 1177 1178 1179 
1180 1181 1182 1183 
1184 1185 1186 1187 
1188 1189 1190 1191 
1192 1193 1194 1195 
1196 1197 1198 1199 
1200 1201 1202 1203 
1204 1205 1206 1207 
1208 1209 1210 1211 
1212 1213 1214 1215 
1216 1217 1218 1219 
1220 1221 1222 1223 
1224 1225 1226 1227 
1228 1229 1230 1231 
1232 1233 1234 1235 
1236 1237 1238 1239 
1240 1241 1242 1243 
1244 1245 1246 1247 
1248 1249 1250 1251 
1252 1253 1254 1255 
1256 1257 1258 1259 
1260 1261 1262 1263 
1264 1265 1266 1267 
1268 1269 1270 1271 
1272 1273 1274 1275 
1276 1277 1278 1279 
1280 1281 1282 1283 
1284 1285 1286 1287 
1288 1289 1290 1291 
1292 1293 1294 1295 
1296 1297 1298 1299 
1300 1301 1302 1303 
1304 1305 1306 1307 
1308 1309 1310 1311 
1312 1313 1314 1315 
1316 1317 1318 1319 
1320 1321 1322 1323 
1324 1325 1326 1327 
1328 1329 1330 1331 
1332 1333 1334 1335 
1336 1337 1338 1339 
1340 1341 1342 1343 
1344 1345 1346 1347 
1348 1349 1350 1351 
1352 1353 1354 1355 
1356 1357 1358 1359 
1360 1361 1362 1363 
1364 1365 1366 1367 
1368 1369 1370 1371 
1372 1373 1374 1375 
1376 1377 1378 1379 
1380 1381 1382 1383 
1384 1385 1386 1387 
1388 1389 1390 1391 
1392 1393 1394 1395 
1396 1397 1398 1399 
1400 1401 1402 1403 
1404 1405 1406 1407 
1408 1409 1410 1411 
1412 1413 1414 1415 
1416 1417 1418 1419 
1420 1421 1422 1423 
1424 1425 1426 1427 
1428 1429 1430 1431 
1432 1433 1434 1435 
1436 1437 1438 1439 
1440 1441 1442 1443 
1444 1445 1446 1447 
1448 1449 1450 1451 
1452 1453 1454 1455 
1456 1457 1458 1459 
1460 1461 1462 1463 
1464 1465 1466 1467 
1468 1469 1470 1471 
1472 1473 1474 1475 
1476 1477 1478 1479 
1480 1481 1482 1483 
1484 1485 1486 1487 
1488 1489 1490 1491 
1492 1493 1494 1495 
1496 1497 1498 1499 
1500 1501 1502 1503 
1504 1505 1506 1507 
1508 1509 1510 1511 
1512 1513 1514 1515 
1516 1517 1518 1519 
1520 1521 1522 1523 
1524 1525 1526 1527 
1528 1529 1530 1531 
1532 1533 1534 1535 
1536 1537 1538 1539 
1540 1541 1542 1543 
1544 1545 1546 1547 
1548 1549 1550 1551 
1552 1553 1554 1555 
1556 1557 1558 1559 
1560 1561 1562 1563 
1564 1565 1566 1567 
1568 1569 1570 1571 
1572 1573 1574 1575 
1576 1577 1578 1579 
1580 1581 1582 1583 
1584 1585 1586 1587 
1588 1589 1590 1591 
1592 1593 1594 1595 
1596 1597 1598 1599 
1600 1601 1602 1603 
1604 1605 1606 1607 
1608 1609 1610 1611 
1612 1613 1614 1615 
1616 1617 1618 1619 
1620 1621 1622 1623 
1624 1625 1626 1627 
1628 1629 1630 1631 
1632 1633 1634 1635 
1636 1637 1638 1639 
1640 1641 1642 1643 
1644 1645 1646 1647 
1648 1649 1650 1651 
1652 1653 1654 1655 
1656 1657 1658 1659 
1660 1661 1662 1663 
1664 1665 1666 1667 
1668 1669 1670 1671 
1672 1673 1674 1675 
1676 1677 1678 1679 
1680 1681 1682 1683 
1684 1685 1686 1687 
1688 1689 1690 1691 
1692 1693 1694 1695 
1696 1697 1698 1699 
1700 1701 1702 1703 
1704 1705 1706 1707 
1708 1709 1710 1711 
1712 1713 1714 1715 
1716 1717 1718 1719 
1720 1721 1722 1723 
1724 1725 1726 1727 
1728 1729 1730 1731 
1732 1733 1734 1735 
1736 1737 1738 1739 
1740 1741 1742 1743 
1744 1745 1746 1747 
1748 1749 1750 1751 
1752 1753 1754 1755 
1756 1757 1758 1759 
1760 1761 1762 1763 
1764 1765 1766 1767 
1768 1769 1770 1771 
1772 1773 1774 1775 
1776 1777 1778 1779 
1780 1781 1782 1783 
1784 1785 1786 1787 
1788 1789 1790 1791 
1792 1793 1794 1795 
1796 1797 1798 1799 
1800 1801 1802 1803 
1804 1805 1806 1807 
1808 1809 1810 1811 
1812 1813 1814 1815 
1816 1817 1818 1819 
1820 1821 1822 1823 
1824 1825 1826 1827 
1828 1829 1830 1831 
1832 1833 1834 1835 
1836 1837 1838 1839 
1840 1841 1842 1843 
1844 1845 1846 1847 
1848 1849 1850 1851 
1852 1853 1854 1855 
1856 1857 1858 1859 
1860 1861 1862 1863 
1864 1865 1866 1867 
1868 1869 1870 1871 
1872 1873 1874 1875 
1876 1877 1878 1879 
1880 1881 1882 1883 
1884 1885 1886 1887 
1888 1889 1890 1891 
1892 1893 1894 1895 
1896 1897 1898 1899 
1900 1901 1902 1903 
1904 1905 1906 1907 
1908 1909 1910 1911 
1912 1913 1914 1915 
1916 1917 1918 1919 
1920 1921 1922 1923 
1924 1925 1926 1927 
1928 1929 1930 1931 
1932 1933 1934 1935 
1936 1937 1938 1939 
1940 1941 1942 1943 
1944 1945 1946 1947 
1948 1949 1950 1951 
1952 1953 1954 1955 
1956 1957 1958 1959 
1960 1961 1962 1963 
1964 1965 1966 1967 
1968 1969 1970 1971 
1972 1973 1974 1975 
1976 1977 1978 1979 
1980 1981 1982 1983 
1984 1985 1986 1987 
1988 1989 1990 1991 
1992 1993 1994 1995 
1996 1997 1998 1999 
2000 2001 2002 2003 
2004 2005 2006 2007 
2008 2009 2010 2011 
2012 2013 2014 2015 
2016 2017 2018 2019 
2020 2021 2022 2023 
2024 2025 2026 2027 
2028 2029 2030 2031 
2032 2033 2034 2035 
2036 2037 2038 2039 
2040 2041 2042 2043 
2044 2045 2046 2047 
2048 2049 2050 2051 2052 2053 2054 2055 2056 2057 2058 2059 2060 2061 2062 2063 
2064 2065 2066 2067 2068 2069 2070 2071 2072 2073 2074 2075 2076 2077 2078 2079 
</DataArray>
<DataArray type="Int32" Name="offsets" format="ascii">
4 8 12 16 20 24 28 32 36 40 44 48 52 56 60 64 68 72 76 80 84 88 92 96 100 104 108 112 116 120 124 128 132 136 140 144 148 152 156 160 164 168 172 176 180 184 188 192 196 200 204 208 212 216 220 224 228 232 236 240 244 248 252 256 260 264 268 272 276 280 284 288 292 296 300 304 308 312 316 320 324 328 332 336 340 344 348 352 356 360 364 368 372 376 380 384 388 392 396 400 404 408 412 416 420 424 428 432 436 440 444 448 452 456 460 464 468 472 476 480 484 488 492 496 500 504 508 512 516 520 524 528 532 536 540 544 548 552 556 560 564 568 572 576 580 584 588 592 596 600 604 608 612 616 620 624 628 632 636 640 644 648 652 656 660 664 668 672 676 680 684 688 692 696 700 704 708 712 716 720 724 728 732 736 740 744 748 752 756 760 764 768 772 776 780 784 788 792 796 800 804 808 812 816 820 824 828 832 836 840 844 848 852 856 860 864 868 872 876 880 884 888 892 896 900 904 908 912 916 920 924 928 932 936 940 944 948 952 956 960 964 968 972 976 980 984 988 992 996 1000 1004 1008 1012 1016 1020 1024 1028 1032 1036 1040 1044 1048 1052 1056 1060 1064 1068 1072 1076 1080 1084 1088 1092 1096 1100 1104 1108 1112 1116 1120 1124 1128 1132 1136 1140 1144 1148 1152 1156 1160 1164 1168 1172 1176 1180 1184 1188 1192 1196 1200 1204 1208 1212 1216 1220 1224 1228 1232 1236 1240 1244 1248 1252 1256 1260 1264 1268 1272 1276 1280 1284 1288 1292 1296 1300 1304 1308 1312 1316 1320 1324 1328 1332 1336 1340 1344 1348 1352 1356 1360 1364 1368 1372 1376 1380 1384 1388 1392 1396 1400 1404 1408 1412 1416 1420 1424 1428 1432 1436 1440 1444 1448 1452 1456 1460 1464 1468 1472 1476 1480 1484 1488 1492 1496 1500 1504 1508 1512 1516 1520 1524 1528 1532 1536 1540 1544 1548 1552 1556 1560 1564 1568 1572 1576 1580 1584 1588 1592 1596 1600 1604 1608 1612 1616 1620 1624 1628 1632 1636 1640 1644 1648 1652 1656 1660 1664 1668 1672 1676 1680 1684 1688 1692 1696 1700 1704 1708 1712 1716 1720 1724 1728 1732 1736 1740 1744 1748 1752 1756 1760 1764 1768 1772 1776 1780 1784 1788 1792 1796 1800 1804 1808 1812 1816 1820 1824 1828 1832 1836 1840 1844 1848 1852 1856 1860 1864 1868 1872 1876 1880 1884 1888 1892 1896 1900 1904 1908 1912 1916 1920 1924 1928 1932 1936 1940 1944 1948 1952 1956 1960 1964 1968 1972 1976 1980 1984 1988 1992 1996 2000 2004 2008 2012 2016 2020 2024 2028 2032 2036 2040 2044 2048 2064 2080 
</DataArray>
<DataArray type="UInt8" Name="types" format="ascii">
7 7 7 7 7 7 7 7 7 7 7 7 7 7 7 7 7 7 7 7 7 7 7 7 7 7 7 7 7 7 7 7 7 7 7 7 7 7 7 7 7 7 7 7 7 7 7 7 7 7 7 7 7 7 7 7 7 7 7 7 7 7 7 7 7 7 7 7 7 7 7 7 7 7 7 7 7 7 7 7 7 7 7 7 7 7 7 7 7 7 7 7 7 7 7 7 7 7 7 7 7 7 7 7 7 7 7 7 7 7 7 7 7 7 7 7 7 7 7 7 7 7 7 7 7 7 7 7 7 7 7 7 7 7 7 7 7 7 7 7 7 7 7 7 7 7 7 7 7 7 7 7 7 7 7 7 7 7 7 7 7 7 7 7 7 7 7 7 7 7 7 7 7 7 7 7 7 7 7 7 7 7 7 7 7 7 7 7 7 7 7 7 7 7 7 7 7 7 7 7 7 7 7 7 7 7 7 7 7 7 7 7 7 7 7 7 7 7 7 7 7 7 7 7 7 7 7 7 7 7 7 7 7 7 7 7 7 7 7 7 7 7 7 7 7 7 7 7 7 7 7 7 7 7 7 7 7 7 7 7 7 7 7 7 7 7 7 7 7 7 7 7 7 7 7 7 7 7 7 7 7 7 7 7 7 7 7 7 7 7 7 7 7 7 7 7 7 7 7 7 7 7 7 7 7 7 7 7 7 7 7 7 7 7 7 7 7 7 7 7 7 7 7 7 7 7 7 7 7 7 7 7 7 7 7 7 7 7 7 7 7 7 7 7 7 7 7 7 7 7 7 7 7 7 7 7 7 7 7 7 7 7 7 7 7 7 7 7 7 7 7 7 7 7 7 7 7 7 7 7 7 7 7 7 7 7 7 7 7 7 7 7 7 7 7 7 7 7 7 7 7 7 7 7 7 7 7 7 7 7 7 7 7 7 7 7 7 7 7 7 7 7 7 7 7 7 7 7 7 7 7 7 7 7 7 7 7 7 7 7 7 7 7 7 7 7 7 7 7 7 7 7 7 7 7 7 7 7 7 7 7 7 7 7 7 7 7 7 7 7 7 7 7 7 7 7 7 7 7 7 7 7 7 7 7 7 7 7 7 7 7 7 7 7 7 7 7 7 7 7 7 7 7 7 7 7 7 7 7 7 7 7 7 7 
</DataArray>
</Cells>
<CellData Scalars="cell variable 4" Vectors="cell vector">
<DataArray type="Float64" NumberOfComponents="3" Name="cell vector" format="ascii">
0.186094 0.0647709 0.980395
0.539844 0.151411 0.828035
0.79363 0.222658 0.566193
0.91707 0.31837 0.240048
0.687491 0.696401 -0.205866
0.239386 0.795475 -0.556699
-0.130916 -0.570969 0.810466
-0.0273031 -0.224126 0.974178
0.0317321 0.221228 0.974706
0.119556 0.577802 0.807373
0.235729 0.797522 0.555329
0.68424 0.699579 0.205923
0.915326 0.323713 -0.239557
0.789131 0.235638 -0.567227
-0.527075 -0.178059 0.830956
-0.192587 -0.0542643 0.979778
0.161088 0.112505 0.980507
0.461497 0.314203 0.829637
0.685728 0.472446 0.553689
0.787765 0.584142 0.195457
0.722884 0.662807 -0.195259
0.525475 0.648014 -0.55132
-0.347258 -0.440519 0.827862
-0.123305 -0.154475 0.980272
0.123204 0.155291 0.980156
0.343744 0.444416 0.827245
0.523914 0.649754 0.550757
0.722549 0.663291 0.194855
0.78718 0.584829 -0.195762
0.684206 0.474208 -0.554066
-0.459042 -0.316798 0.830012
-0.162833 -0.109632 0.980544
0.159078 0.115635 0.980471
0.454347 0.324768 0.829515
0.677614 0.485159 0.552685
0.786019 0.587113 0.193581
0.72109 0.664761 -0.195246
0.52525 0.650758 -0.548293
-0.362727 -0.427345 0.828134
-0.129579 -0.148487 0.980388
0.129227 0.149667 0.980255
0.361091 0.429523 0.827722
0.524578 0.651672 0.547852
0.720695 0.665294 0.194889
0.785388 0.587866 -0.193854
0.676927 0.485828 -0.552938
-0.453148 -0.325573 0.829855
-0.159965 -0.113347 0.980593
0.159355 0.11557 0.980433
0.455117 0.324348 0.829257
0.681489 0.480778 0.551748
0.798235 0.57082 0.192315
0.744123 0.638645 -0.195994
-0.1566 0.931687 -0.327774
-0.599525 0.792886 -0.109093
-0.657099 0.753078 -0.033087
-0.657288 0.753014 0.030685
-0.60074 0.792413 0.105799
-0.152565 0.932023 0.32872
0.743301 0.639703 0.195662
0.797589 0.571636 -0.19257
0.681168 0.481017 -0.551935
-0.454224 -0.324743 0.829592
-0.159714 -0.113616 0.980603
0.159371 0.115551 0.980433
0.454517 0.325048 0.829312
0.68054 0.482211 0.551668
0.799283 0.569534 0.191776
0.76852 0.6091 -0.195891
-0.171427 0.935412 -0.309221
-0.580031 0.807686 -0.105863
-0.635434 0.771484 -0.0321909
-0.63542 0.771543 0.0310275
-0.580072 0.807828 0.104551
-0.167456 0.93583 0.310131
0.767878 0.609999 0.195611
0.798835 0.570086 -0.192003
0.680512 0.482087 -0.551811
-0.454006 -0.324968 0.829623
-0.15947 -0.113757 0.980627
0.159694 0.114633 0.980488
0.45521 0.323009 0.829728
0.681987 0.479512 0.552234
0.803263 0.563916 0.19175
0.784447 0.588493 -0.195752
-0.26554 0.932115 -0.246275
-0.568887 0.817257 -0.0919727
-0.616583 0.786755 -0.0290307
-0.616564 0.786808 0.0279735
-0.568884 0.81739 0.0907996
-0.261458 0.932949 0.247477
0.78376 0.589483 0.195527
0.802928 0.564326 -0.191943
0.682103 0.47921 -0.552352
-0.454931 -0.322637 0.830026
-0.159653 -0.11294 0.980691
0.16056 0.112864 0.980552
0.45755 0.318488 0.830189
0.6857 0.473396 0.552913
0.808807 0.555864 0.191952
0.796253 0.572346 -0.195964
-0.361845 0.915659 -0.175033
-0.559636 0.825304 -0.0753713
-0.598363 0.800834 -0.0250237
-0.598346 0.800878 0.0240018
-0.559635 0.825408 0.0742349
-0.358961 0.916661 0.175728
0.795613 0.573303 0.195766
0.808582 0.556134 -0.192123
0.685887 0.473003 -0.553016
-0.4574 -0.317947 0.830479
-0.160426 -0.111246 0.980759
0.161848 0.110514 0.980608
0.461123 0.312232 0.830588
0.691095 0.46476 0.553521
0.815616 0.545742 0.19219
0.807064 0.556881 -0.196295
-0.427158 0.896476 -0.117754
-0.54984 0.833161 -0.0593205
-0.58009 0.814288 -0.0207421
-0.580074 0.814324 0.0197387
-0.549835 0.833242 0.0582192
-0.42537 0.897313 0.117853
0.806523 0.557728 0.196112
0.815482 0.545886 -0.192347
0.691315 0.464322 -0.553615
-0.461047 -0.311588 0.830873
-0.161645 -0.108951 0.980816
0.16343 0.107753 0.980653
0.465551 0.304725 0.830906
0.697692 0.454204 0.554008
0.823508 0.533687 0.19239
0.818273 0.540168 -0.196591
-0.460718 0.883983 -0.0794559
-0.538549 0.841376 -0.0452883
-0.561544 0.827281 -0.0165648
-0.561531 0.827309 0.0155729
-0.538538 0.841439 0.0442263
-0.459571 0.884605 0.0791764
0.817829 0.540902 0.196421
0.823441 0.533736 -0.192537
0.697922 0.453745 -0.554094
-0.465515 -0.304014 0.831186
-0.163169 -0.106235 0.980862
0.165214 0.104675 0.980687
0.470575 0.296226 0.83115
0.705165 0.442049 0.554378
0.83225 0.519893 0.192538
0.828567 0.524155 -0.196821
-0.473987 0.87883 -0.0547165
-0.525527 0.850108 -0.03372
-0.542603 0.839891 -0.0128166
-0.542595 0.839911 0.0118305
-0.525511 0.850158 0.0326994
-0.473171 0.879299 0.0542472
0.828221 0.524762 0.196659
0.832229 0.519876 -0.192676
0.705393 0.441586 -0.554457
-0.470559 -0.295473 0.831427
-0.164901 -0.103194 0.980897
0.167123 0.101349 0.980713
0.475964 0.286955 0.831333
0.713196 0.428608 0.554659
0.841593 0.504585 0.192654
0.838004 0.508858 -0.197007
-0.477807 0.877704 -0.0365568
-0.510882 0.859303 -0.0244728
-0.523232 0.852135 -0.00965643
-0.523228 0.852149 0.00867985
-0.510862 0.859342 0.0234913
-0.477213 0.878051 0.0359678
0.837744 0.509347 0.19685
0.841599 0.504524 -0.192784
0.713415 0.428151 -0.55473
-0.475954 -0.286177 0.831607
-0.166762 -0.0999044 0.980923
0.169094 0.0978357 0.980732
0.481523 0.277117 0.831469
0.721494 0.414207 0.554868
0.851296 0.488 0.192746
0.84806 0.491861 -0.197148
-0.473146 0.880642 -0.0245337
-0.494734 0.868871 -0.0173601
-0.503472 0.863983 -0.00706705
-0.50347 0.863991 0.0061114
-0.494718 0.868899 0.0164097
-0.472696 0.880902 0.0238784
0.847845 0.49229 0.196998
0.851318 0.487914 -0.192868
0.721701 0.41376 -0.554933
-0.481512 -0.276324 0.83174
-0.168685 -0.0964283 0.980942
0.171084 0.0941699 0.980746
0.487142 0.266811 0.831567
0.729892 0.399012 0.555019
0.861157 0.470352 0.192813
0.858423 0.473502 -0.197243
-0.463048 0.88618 -0.0164694
-0.477331 0.878642 -0.0119721
-0.483332 0.875423 -0.0050084
-0.483332 0.875428 0.00407836
-0.477315 0.878663 0.0110582
-0.462708 0.88637 0.0157708
0.858252 0.473871 0.197102
0.861192 0.470242 -0.192928
0.730086 0.398579 -0.555076
-0.487122 -0.266014 0.831835
-0.170628 -0.0928026 0.980955
0.173063 0.0903807 0.980755
0.492732 0.256124 0.831634
0.738251 0.383176 0.555123
0.870994 0.451856 0.192861
0.868702 0.454344 -0.197302
-0.449659 0.893136 -0.0107615
-0.458939 0.888433 -0.00785813
-0.46284 0.886435 -0.00338409
-0.462841 0.886438 0.00248422
-0.458927 0.888447 0.00697833
-0.449384 0.893282 0.0100561
0.868566 0.454662 0.197169
0.871027 0.451747 -0.192967
0.738429 0.382762 -0.555172
-0.4927 -0.255328 0.831898
-0.172562 -0.0890522 0.980965
0.175006 0.086494 0.980761
0.498219 0.24514 0.831675
0.746452 0.366846 0.555187
0.880651 0.43272 0.192892
0.878702 0.434677 -0.197331
-0.434284 0.900753 -0.00642162
-0.439806 0.898081 -0.00460621
-0.44203 0.896998 -0.00207296
-0.442033 0.896998 0.00121034
-0.439803 0.898087 0.00375474
-0.434061 0.900865 0.00572077
0.878569 0.435001 0.197206
0.880676 0.432626 -0.19299
0.746614 0.366454 -0.555229
-0.498173 -0.244348 0.831936
-0.174462 -0.0852051 0.980971
0.176896 0.0825311 0.980763
0.503546 0.233935 0.831695
0.754401 0.350161 0.555218
0.889992 0.413159 0.192909
0.888217 0.414884 -0.197336
-0.417865 0.908505 -0.00274391
-0.420183 0.907438 -0.00181012
-0.420943 0.907087 -0.000940977
-0.420945 0.907086 0.000113651
-0.420181 0.90744 0.00099732
-0.4177 0.908583 0.00204289
0.888116 0.415157 0.197218
0.890017 0.413063 -0.193
0.754548 0.34979 -0.555252
-0.503483 -0.233153 0.831952
-0.176307 -0.0812886 0.980973
0.178714 0.0785206 0.980763
0.508663 0.222594 0.831694
0.762016 0.333262 0.555219
0.898928 0.393334 0.192915
0.897216 0.395054 -0.19732
-0.401171 0.916003 0.000834728
-0.400265 0.916399 0.000834003
-0.399613 0.916684 0.000144063
-0.399612 0.916684 -0.00090915
-0.400281 0.916391 -0.00163326
-0.401125 0.916022 -0.00158073
0.89712 0.395327 0.19721
0.89895 0.393243 -0.192998
0.762151 0.332908 -0.555246
-0.508583 -0.221823 0.831948
-0.178081 -0.0773299 0.980973
0.180448 0.0744916 0.98076
0.513532 0.211201 0.831673
0.769238 0.316284 0.555191
0.907373 0.373442 0.192911
0.905719 0.375169 -0.197285
-0.384728 0.923018 0.00469134
-0.380292 0.924859 0.0036915
-0.378083 0.925771 0.00129552
-0.378081 0.92577 -0.00202139
-0.380312 0.924847 -0.0044578
-0.384785 0.92299 -0.00546892
0.905664 0.375355 0.197184
0.907398 0.373343 -0.192985
0.76936 0.315953 -0.555211
-0.513435 -0.210443 0.831924
-0.179772 -0.0733547 0.980969
0.182086 0.0704805 0.980753
0.518122 0.199854 0.83163
0.776016 0.299381 0.555131
0.915286 0.353615 0.192893
0.913898 0.354811 -0.197229
-0.369114 0.929338 0.0092344
-0.360444 0.932754 0.00703042
-0.356389 0.934334 0.00263016
-0.356394 0.93433 -0.00333225
-0.360486 0.932732 -0.0077764
-0.369166 0.92931 -0.00995495
0.91379 0.35514 0.197136
0.9153 0.353543 -0.192959
0.776127 0.299071 -0.555142
-0.518014 -0.199096 0.831879
-0.181375 -0.0693881 0.980963
0.183626 0.0665142 0.980743
0.522415 0.188649 0.831561
0.782314 0.282712 0.555031
0.922608 0.334067 0.19286
0.921617 0.334299 -0.197145
-0.355191 0.934673 0.0150527
-0.340963 0.94001 0.0111921
-0.334573 0.94236 0.00427421
-0.334582 0.942354 -0.00494335
-0.341027 0.939978 -0.0119235
-0.355302 0.934619 -0.0157652
0.921493 0.334689 0.197061
0.922612 0.334022 -0.192917
0.782414 0.282426 -0.555035
-0.5223 -0.187886 0.831806
-0.182882 -0.0654687 0.980953
0.185066 0.0626228 0.980729
0.526403 0.177692 0.83146
0.788098 0.266474 0.554881
0.929264 0.31511 0.192806
0.928738 0.314049 -0.197026
-0.344241 0.938599 0.0230296
-0.32218 0.946532 0.0166604
-0.312682 0.949837 0.00637201
-0.312692 0.949829 -0.00701683
-0.322252 0.946495 -0.0173615
-0.344482 0.938491 -0.0237882
0.928644 0.314373 0.196951
0.929279 0.315037 -0.192854
0.788191 0.266205 -0.554878
-0.526281 -0.176921 0.831702
-0.18429 -0.0616352 0.980938
0.186404 0.0588604 0.980709
0.530073 0.167132 0.831318
0.793341 0.250906 0.554668
0.935223 0.29701 0.192726
0.935286 0.294082 -0.196863
-0.338244 0.940424 0.0345387
-0.304383 0.952251 0.0238516
-0.290748 0.956757 0.00901619
-0.290766 0.956745 -0.00965163
-0.304476 0.952204 -0.0245348
-0.338574 0.940277 -0.0353104
0.935179 0.294466 0.196799
0.935244 0.296917 -0.192765
0.793431 0.250645 -0.554657
-0.52995 -0.166333 0.831556
-0.185598 -0.0579283 0.980917
0.187638 0.055284 0.980681
0.533422 0.157144 0.831124
0.798021 0.236289 0.554374
0.940442 0.280124 0.192611
0.941192 0.274752 -0.196645
-0.34022 0.938924 0.0516907
-0.287906 0.957082 0.0332384
-0.2688 0.963118 0.0122519
-0.268833 0.9631 -0.0129109
-0.288017 0.957025 -0.0338978
-0.340629 0.938733 -0.052465
0.941084 0.275159 0.196594
0.94047 0.280011 -0.19264
0.798111 0.23603 -0.554354
-0.533306 -0.156293 0.831359
-0.18681 -0.0544058 0.980888
0.188773 0.0519642 0.980645
0.536447 0.147954 0.830864
0.802117 0.222982 0.553974
0.944892 0.264845 0.192448
0.946475 0.256181 -0.19636
-0.354972 0.931626 0.0778982
-0.273001 0.960953 0.0451713
-0.246846 0.968922 0.0160484
-0.2469 0.968896 -0.0167603
-0.273129 0.960887 -0.0458007
-0.355482 0.931365 -0.0786893
0.946365 0.256614 0.196322
0.944932 0.264687 -0.192467
0.802214 0.222705 -0.553945
-0.536346 -0.147018 0.831095
-0.187928 -0.0511477 0.98085
0.189808 0.0489948 0.980598
0.539144 0.13985 0.830522
0.805611 0.211413 0.55344
0.948556 0.25158 0.192222
0.951148 0.238537 -0.196005
-0.389394 0.913456 0.118196
-0.25976 0.963823 0.0597578
-0.224861 0.97418 0.0202609
-0.224942 0.974144 -0.0210612
-0.259888 0.963752 -0.0603321
-0.39011 0.913036 -0.119081
0.951064 0.23889 0.195983
0.948621 0.251326 -0.192231
0.80572 0.211093 -0.553404
-0.539066 -0.138792 0.830749
-0.188952 -0.048257 0.9808
0.19073 0.0465236 0.980539
0.541484 0.133247 0.830085
0.808466 0.202106 0.552753
0.951464 0.240588 0.191919
0.955321 0.221568 -0.195625
-0.448984 0.875848 0.176927
-0.247804 0.965789 0.0764496
-0.202722 0.978927 0.0245956
-0.20284 0.978879 -0.0255151
-0.247923 0.965719 -0.0769424
-0.450026 0.875097 -0.177995
0.955267 0.221807 0.19562
0.951557 0.240221 -0.191921
0.808594 0.201708 -0.552711
-0.541443 -0.132001 0.83031
-0.189877 -0.0458797 0.980735
0.19149 0.0447972 0.980472
0.543354 0.12881 0.829563
0.810578 0.195795 0.551931
0.953683 0.231926 0.19157
0.959394 0.203443 -0.195383
-0.522703 0.816071 0.246597
-0.235566 0.967372 0.0932714
-0.179942 0.983263 0.0285435
-0.180104 0.983203 -0.0295825
-0.235654 0.967317 -0.0936166
-0.523926 0.814942 -0.247733
0.959373 0.203534 0.195389
0.953795 0.231465 -0.191571
0.81073 0.195277 -0.551892
-0.543372 -0.127264 0.82979
-0.19067 -0.0442569 0.980656
0.191926 0.044171 0.980415
0.544403 0.127555 0.829069
0.811568 0.193854 0.55116
0.955009 0.226573 0.191369
0.96406 0.17986 -0.195544
-0.564866 0.77117 0.293637
-0.217576 0.97041 0.104711
-0.154216 0.987547 0.0311058
-0.154399 0.987488 -0.0320767
-0.217532 0.970421 -0.104703
-0.565529 0.770451 -0.29425
0.964085 0.179724 0.195547
0.955139 0.226016 -0.191379
0.811745 0.193156 -0.551146
-0.544514 -0.125534 0.829305
-0.191205 -0.0437367 0.980575
0.191621 0.0449027 0.980441
0.543545 0.130971 0.829099
0.809736 0.200986 0.5513
0.952832 0.234944 0.192126
0.970263 0.142356 -0.195765
-0.446056 0.864454 0.231846
-0.170623 0.980938 0.092997
-0.113583 0.993099 0.0292253
-0.113471 0.993133 -0.0284944
-0.169287 0.981366 -0.0909002
-0.446932 0.863771 -0.232705
0.970414 0.141244 0.195825
0.953061 0.23402 -0.19212
0.809971 0.199849 -0.551368
-0.543847 -0.128071 0.829354
-0.191133 -0.0445757 0.980551
0.190338 0.0416625 0.980834
0.541018 0.121188 0.832233
0.809171 0.183804 0.558084
0.957939 0.20632 0.199464
0.97543 0.0978281 -0.197397
0.830076 -0.042302 -0.556043
-0.556039 0.00714144 0.831125
-0.195418 -0.000347876 0.98072
0.195543 -1.14618e-05 0.980695
0.556024 -0.00919539 0.831115
0.830012 -0.0419355 0.556167
0.975384 0.0979955 0.19754
0.95809 0.205759 -0.199318
0.809414 0.18282 -0.558056
-0.54157 -0.11839 0.832277
-0.19007 -0.0414313 0.980896
0.190374 0.0383122 0.980964
0.541299 0.111765 0.833369
0.810718 0.168872 0.560552
0.961665 0.185888 0.201608
0.974144 0.112087 -0.196161
0.826491 -0.00991435 -0.562863
-0.550525 0.00400689 0.834809
-0.192866 -5.30133e-05 0.981225
0.19319 -0.000359195 0.981161
0.550409 -0.00781479 0.834859
0.826388 -0.00971934 0.563017
0.974086 0.112368 0.196293
0.961753 0.185614 -0.201442
0.810913 0.168287 -0.560446
-0.541894 -0.109324 0.833306
-0.19009 -0.0382206 0.981022
0.184849 0.0483732 0.981576
0.522592 0.150112 0.839264
0.770235 0.264333 0.580402
0.878967 0.402427 0.255872
0.974967 0.0112538 -0.222065
0.790079 -0.170373 -0.588854
-0.537269 0.0534804 0.841714
-0.188728 0.0138499 0.981932
0.188812 -0.014159 0.981911
0.535646 -0.0635701 0.842046
0.790586 -0.167914 0.588879
0.975353 0.0236171 0.219383
0.880471 0.399521 -0.255253
0.770368 0.264002 -0.580376
-0.526323 -0.140679 0.838567
-0.184951 -0.0479307 0.981578
0.00605888 0.00640447 0.999961
0.00257188 0.000343963 0.999997
</DataArray>
<DataArray type="Float64" Name="cell vector length" format="ascii">
0.180367 0.170041 0.162964 0.127771 0.079294 0.178693 0.221507 0.201896 0.198548 0.215579 0.179674 0.0790154 0.127095 0.161249 0.187609 0.189037 0.414571 0.386468 0.348143 0.298923 0.267292 0.328816 0.417303 0.446537 0.441478 0.40384 0.327027 0.267447 0.299817 0.350781 0.406485 0.421991 0.520889 0.490545 0.442176 0.376016 0.326155 0.40747 0.518235 0.559501 0.555889 0.507952 0.405952 0.32663 0.377168 0.444317 0.506198 0.526105 0.553838 0.520017 0.461959 0.37444 0.224242 0.119832 0.27983 0.367217 0.367725 0.282083 0.119435 0.225048 0.375608 0.463733 0.534072 0.558304 0.575301 0.537263 0.468085 0.360113 0.194723 0.0960814 0.270847 0.359975 0.35967 0.269967 0.0953845 0.195689 0.36134 0.469595 0.550354 0.579292 0.59084 0.548771 0.46951 0.345023 0.16494 0.0814346 0.260954 0.348238 0.347957 0.260117 0.0805536 0.166128 0.346326 0.47084 0.561273 0.594545 0.602363 0.557129 0.47012 0.333308 0.141603 0.0770084 0.253776 0.337992 0.337753 0.25303 0.0760145 0.142906 0.334632 0.471311 0.569275 0.6059 0.610896 0.56327 0.470476 0.324489 0.124063 0.0788498 0.248816 0.329547 0.329339 0.248134 0.077816 0.125438 0.325814 0.471571 0.575219 0.614341 0.617179 0.567735 0.470624 0.317899 0.111216 0.0827426 0.245507 0.3229 0.322715 0.244868 0.0817075 0.112636 0.319223 0.471661 0.579599 0.62058 0.621761 0.570926 0.470593 0.31301 0.103078 0.0852881 0.24314 0.317891 0.31772 0.242532 0.0842693 0.104521 0.314338 0.471601 0.582779 0.62515 0.625052 0.573153 0.470445 0.30933 0.096183 0.0885876 0.241778 0.314112 0.313952 0.241186 0.087584 0.0976405 0.310664 0.471443 0.585048 0.628451 0.627376 0.574663 0.470204 0.306516 0.0910342 0.0913058 0.240934 0.311335 0.311184 0.240357 0.0903236 0.092497 0.30786 0.471207 0.586632 0.630798 0.628965 0.575635 0.469904 0.304393 0.0873456 0.0932972 0.24045 0.309419 0.309275 0.239882 0.0923352 0.0888107 0.305748 0.470918 0.587701 0.632419 0.629987 0.5762 0.46958 0.302837 0.084762 0.094678 0.240197 0.308186 0.308047 0.239635 0.0937366 0.0862266 0.304204 0.47061 0.588373 0.633477 0.630558 0.576451 0.469253 0.301742 0.0830394 0.0955634 0.240105 0.307502 0.307367 0.239549 0.0946352 0.0845086 0.303123 0.4703 0.588738 0.634089 0.630758 0.576446 0.468934 0.301031 0.0820335 0.0960335 0.240148 0.307279 0.307146 0.23959 0.0951132 0.0835066 0.302427 0.469998 0.58885 0.63433 0.630622 0.576215 0.468626 0.300662 0.0816355 0.0961878 0.240347 0.307483 0.307339 0.239759 0.0952542 0.0831153 0.302074 0.469708 0.588736 0.634237 0.63015 0.575758 0.46833 0.300628 0.0817078 0.0961787 0.240738 0.308111 0.30796 0.240126 0.0952291 0.0832013 0.302054 0.469427 0.588395 0.633808 0.629302 0.575045 0.468046 0.30098 0.0824595 0.0957859 0.241252 0.309174 0.309024 0.240638 0.0948401 0.0839603 0.302417 0.469154 0.587797 0.633004 0.627991 0.574013 0.46777 0.301817 0.0840958 0.0948867 0.241907 0.310763 0.310625 0.241311 0.0939565 0.0855962 0.30326 0.468889 0.586884 0.63174 0.626087 0.572566 0.467496 0.303281 0.0868913 0.0933574 0.242769 0.313016 0.312884 0.242183 0.0924414 0.0883818 0.304724 0.468623 0.585562 0.629887 0.623411 0.570566 0.467203 0.30556 0.0912129 0.0910807 0.243945 0.31611 0.315979 0.243356 0.0901692 0.0926881 0.306996 0.468339 0.583701 0.62727 0.619718 0.567823 0.466859 0.308901 0.097587 0.0879792 0.245612 0.320278 0.320144 0.245013 0.0870682 0.099031 0.31032 0.468008 0.581125 0.62365 0.614686 0.564088 0.466416 0.313625 0.106728 0.0841967 0.248062 0.32579 0.325647 0.247445 0.0832878 0.108111 0.315009 0.467585 0.5776 0.618714 0.607893 0.559037 0.46581 0.320121 0.119566 0.0805251 0.251751 0.332937 0.332775 0.251093 0.0796117 0.120854 0.32145 0.467011 0.572825 0.612052 0.598758 0.552231 0.464944 0.328813 0.137181 0.079301 0.257338 0.342002 0.341808 0.25661 0.0783853 0.138326 0.330061 0.466189 0.566387 0.603098 0.586272 0.542845 0.463384 0.339794 0.160091 0.0852237 0.265915 0.353454 0.353226 0.265113 0.0843126 0.161039 0.340934 0.464692 0.557498 0.590864 0.567493 0.527769 0.45786 0.349952 0.183703 0.103195 0.281023 0.369604 0.369408 0.280294 0.102365 0.184375 0.350935 0.459243 0.543154 0.572452 0.526769 0.488962 0.426102 0.332955 0.167439 0.148116 0.324528 0.407246 0.408283 0.328187 0.147558 0.168077 0.333859 0.427619 0.505862 0.53237 0.50058 0.463494 0.404359 0.326349 0.271552 0.36555 0.496339 0.544216 0.538859 0.481032 0.363745 0.272281 0.327373 0.405985 0.481355 0.506496 0.465502 0.428433 0.37144 0.306067 0.271317 0.33231 0.447676 0.491485 0.484579 0.42765 0.330588 0.271881 0.306992 0.373076 0.446847 0.471604 0.211964 0.168376 0.102164 0.0390285 0.0217044 0.11263 0.255864 0.320987 0.315472 0.238952 0.113258 0.0229043 0.0395743 0.10179 0.187611 0.217853 0.0687935 0.0152124 
</DataArray>
<DataArray type="Float64" Name="cell variable 4" format="ascii">
873.3 867.704 868.629 868.341 858.297 893.765 883.654 875.034 872.387 875.755 893.317 858.119 867.514 867.767 882.261 878.336 1079.39 1062 1052.76 1045.25 1044.69 1070.69 1098.82 1088.82 1083.13 1081.23 1070.71 1044.57 1045.16 1052.68 1089.23 1088.72 1276.64 1255.59 1242.04 1231.06 1226.34 1263.77 1295.33 1296.16 1290.34 1276.92 1264.08 1226.62 1231.14 1242.1 1287.89 1287.02 1315.73 1293.78 1280.09 1270.52 1261.44 1408.92 1805.4 2068.71 2067.06 1802.17 1407.69 1261.45 1270.42 1280.11 1326.88 1326.29 1324.01 1301.9 1288.92 1282.87 1278.96 1416.82 1784.49 2031.19 2030.02 1782.12 1415.28 1278.85 1282.77 1288.96 1335.12 1334.56 1326.79 1303.24 1288.06 1280.8 1278.89 1419.74 1767 1996.28 1995.38 1765.08 1418.16 1278.88 1280.81 1288.16 1336.48 1337.33 1328.34 1303.45 1286.33 1277.93 1276.85 1427.02 1755.05 1967.71 1966.99 1753.44 1425.36 1276.86 1277.99 1286.45 1336.77 1338.9 1329.39 1303.49 1284.96 1275.69 1274.83 1436.56 1747.3 1945.22 1944.64 1745.91 1434.87 1274.85 1275.75 1285.09 1336.96 1340.02 1330.22 1303.51 1283.89 1273.92 1273.11 1445.6 1742.35 1928.15 1927.67 1741.13 1443.91 1273.13 1273.99 1284.02 1337.2 1340.94 1330.87 1303.51 1283.04 1272.51 1271.73 1450.93 1738.69 1915.62 1915.22 1737.61 1449.26 1271.75 1272.58 1283.16 1337.46 1341.7 1331.34 1303.44 1282.39 1271.43 1270.6 1456.77 1736.77 1906.41 1906.06 1735.79 1455.13 1270.62 1271.5 1282.5 1337.67 1342.29 1331.67 1303.33 1281.88 1270.63 1269.67 1461.32 1735.65 1899.82 1899.51 1734.75 1459.71 1269.69 1270.69 1281.99 1337.87 1342.74 1331.91 1303.19 1281.43 1269.96 1268.9 1464.57 1735.06 1895.34 1895.07 1734.24 1462.99 1268.92 1270.03 1281.54 1338.03 1343.12 1332.06 1303.01 1281.02 1269.41 1268.27 1466.81 1734.79 1892.51 1892.27 1734.04 1465.26 1268.3 1269.48 1281.13 1338.16 1343.39 1332.1 1302.79 1280.65 1268.97 1267.78 1468.25 1734.74 1890.95 1890.74 1734.04 1466.72 1267.8 1269.03 1280.76 1338.23 1343.57 1332.05 1302.52 1280.32 1268.63 1267.41 1469.03 1734.88 1890.46 1890.26 1734.21 1467.51 1267.43 1268.69 1280.43 1338.26 1343.64 1331.89 1302.21 1280.02 1268.39 1267.16 1469.32 1735.29 1890.96 1890.74 1734.58 1467.77 1267.18 1268.46 1280.14 1338.23 1343.61 1331.65 1301.87 1279.77 1268.26 1267.01 1469.33 1736.03 1892.45 1892.24 1735.34 1467.78 1267.03 1268.32 1279.88 1338.14 1343.48 1331.32 1301.5 1279.57 1268.23 1266.95 1468.71 1736.94 1894.97 1894.78 1736.31 1467.18 1266.99 1268.29 1279.68 1338.01 1343.26 1330.91 1301.09 1279.41 1268.3 1267.03 1467.29 1738.06 1898.72 1898.56 1737.47 1465.76 1267.06 1268.37 1279.53 1337.84 1342.94 1330.4 1300.66 1279.31 1268.52 1267.27 1464.8 1739.43 1904.05 1903.92 1738.9 1463.3 1267.29 1268.59 1279.44 1337.62 1342.53 1329.79 1300.22 1279.31 1268.92 1267.67 1460.95 1741.2 1911.47 1911.36 1740.72 1459.48 1267.71 1268.99 1279.43 1337.36 1342.01 1329.08 1299.76 1279.44 1269.55 1268.3 1455.47 1743.66 1921.63 1921.53 1743.2 1454.02 1268.34 1269.62 1279.56 1337.08 1341.38 1328.25 1299.31 1279.75 1270.49 1269.21 1448.14 1747.28 1935.39 1935.27 1746.79 1446.71 1269.24 1270.57 1279.88 1336.81 1340.62 1327.26 1298.88 1280.33 1271.84 1270.4 1439.18 1752.84 1953.73 1953.56 1752.26 1437.77 1270.43 1271.92 1280.47 1336.54 1339.71 1325.95 1298.4 1281.21 1273.62 1271.66 1429.78 1761.49 1977.73 1977.46 1760.77 1428.42 1271.7 1273.69 1281.35 1336.18 1338.46 1323.22 1296.9 1281.52 1274.85 1271.48 1422.38 1774.74 2008.34 2007.89 1773.78 1421.05 1271.5 1274.91 1281.64 1334.72 1335.77 1312.21 1287.02 1273.17 1266.98 1260.34 1416.59 1794.1 2046.1 2045.43 1792.84 1415.24 1260.22 1266.94 1273.22 1324.56 1324.7 1248.59 1222.79 1205.85 1193.88 1180 1396.29 1825.64 2096.85 2095.76 1823.74 1395.31 1180.02 1193.83 1205.8 1258.19 1260.42 1197.86 1171.65 1152.52 1137.69 1128.14 1164.6 1212.65 1220.06 1211.53 1187.28 1164.81 1128.44 1137.87 1152.61 1205.72 1209.27 1088.28 1062.25 1041.13 1026.84 1021.71 1029.63 1076.33 1077.51 1067.17 1045.94 1029.33 1021.82 1026.87 1041.51 1092.92 1098.72 749.858 739.196 734.934 740.372 753.433 776.929 835.092 858.198 852.073 815.947 778.225 753.785 740.101 733.643 757.627 755.539 622.541 745.326 
</DataArray>
<DataArray type="Float64" Name="cell variable 5" format="ascii">
0.00132086 0.00132086 0.00132086 0.00132086 0.00132086 0.00132086 0.00132086 0.00132086 0.00132086 0.00132086 0.00132086 0.00132086 0.00132086 0.00132086 0.00132086 0.00132086 0.00132086 0.00132086 0.00132086 0.00132086 0.00132086 0.00132086 0.00132086 0.00132086 0.00132086 0.00132086 0.00132086 0.00132086 0.00132086 0.00132086 0.00132086 0.00132086 0.00132086 0.00132086 0.00132086 0.00132086 0.00132086 0.00132086 0.00132086 0.00132086 0.00132086 0.00132086 0.00132086 0.00132086 0.00132086 0.00132086 0.00132086 0.00132086 0.00199627 0.00184804 0.00160881 0.00138074 0.00132086 0.00132086 0.00132086 0.00132086 0.00132086 0.00132086 0.00132086 0.00132086 0.00138074 0.00160881 0.00184804 0.00199627 0.00225868 0.00205292 0.00172065 0.00140393 0.00132086 0.00132086 0.00132086 0.00132086 0.00132086 0.00132086 0.00132086 0.00132086 0.00140393 0.00172065 0.00205292 0.00225868 0.00241072 0.00217179 0.00178551 0.00141743 0.00132086 0.00132086 0.00132086 0.00132086 0.00132086 0.00132086 0.00132086 0.00132086 0.00141743 0.00178551 0.00217179 0.00241072 0.00252138 0.0022578 0.00183277 0.00142741 0.00132086 0.00132086 0.00132086 0.00132086 0.00132086 0.00132086 0.00132086 0.00132086 0.00142741 0.00183277 0.0022578 0.00252138 0.00260768 0.00232531 0.00186946 0.00143504 0.00132086 0.00132086 0.00132086 0.00132086 0.00132086 0.00132086 0.00132086 0.00132086 0.00143504 0.00186946 0.00232531 0.00260768 0.00267724 0.00237961 0.00189911 0.00144121 0.00132086 0.00132086 0.00132086 0.00132086 0.00132086 0.00132086 0.00132086 0.00132086 0.00144121 0.00189911 0.00237961 0.00267724 0.00273419 0.00242393 0.00192347 0.0014462 0.00132086 0.00132086 0.00132086 0.00132086 0.00132086 0.00132086 0.00132086 0.00132086 0.0014462 0.00192347 0.00242393 0.00273419 0.00278027 0.00246004 0.00194314 0.00145031 0.00132086 0.00132086 0.00132086 0.00132086 0.00132086 0.00132086 0.00132086 0.00132086 0.00145031 0.00194314 0.00246004 0.00278027 0.00281726 0.00248909 0.00195899 0.00145354 0.00132086 0.00132086 0.00132086 0.00132086 0.00132086 0.00132086 0.00132086 0.00132086 0.00145354 0.00195899 0.00248909 0.00281726 0.00284602 0.0025114 0.00197102 0.00145618 0.00132086 0.00132086 0.00132086 0.00132086 0.00132086 0.00132086 0.00132086 0.00132086 0.00145618 0.00197102 0.0025114 0.00284602 0.00286715 0.00252784 0.00198012 0.00145794 0.00132086 0.00132086 0.00132086 0.00132086 0.00132086 0.00132086 0.00132086 0.00132086 0.00145794 0.00198012 0.00252784 0.00286715 0.00288124 0.0025387 0.00198599 0.00145941 0.00132086 0.00132086 0.00132086 0.00132086 0.00132086 0.00132086 0.00132086 0.00132086 0.00145941 0.00198599 0.0025387 0.00288124 0.002888 0.00254428 0.00198893 0.00145999 0.00132086 0.00132086 0.00132086 0.00132086 0.00132086 0.00132086 0.00132086 0.00132086 0.00145999 0.00198893 0.00254428 0.002888 0.002888 0.00254428 0.00198893 0.00145999 0.00132086 0.00132086 0.00132086 0.00132086 0.00132086 0.00132086 0.00132086 0.00132086 0.00145999 0.00198893 0.00254428 0.002888 0.00288124 0.0025387 0.00198599 0.00145941 0.00132086 0.00132086 0.00132086 0.00132086 0.00132086 0.00132086 0.00132086 0.00132086 0.00145941 0.00198599 0.0025387 0.00288124 0.00286715 0.00252784 0.00198012 0.00145794 0.00132086 0.00132086 0.00132086 0.00132086 0.00132086 0.00132086 0.00132086 0.00132086 0.00145794 0.00198012 0.00252784 0.00286715 0.00284602 0.0025114 0.00197102 0.00145618 0.00132086 0.00132086 0.00132086 0.00132086 0.00132086 0.00132086 0.00132086 0.00132086 0.00145618 0.00197102 0.0025114 0.00284602 0.00281726 0.00248909 0.00195899 0.00145354 0.00132086 0.00132086 0.00132086 0.00132086 0.00132086 0.00132086 0.00132086 0.00132086 0.00145354 0.00195899 0.00248909 0.00281726 0.00278027 0.00246004 0.00194314 0.00145031 0.00132086 0.00132086 0.00132086 0.00132086 0.00132086 0.00132086 0.00132086 0.00132086 0.00145031 0.00194314 0.00246004 0.00278027 0.00273419 0.00242393 0.00192347 0.0014462 0.00132086 0.00132086 0.00132086 0.00132086 0.00132086 0.00132086 0.00132086 0.00132086 0.0014462 0.00192347 0.00242393 0.00273419 0.00267724 0.00237961 0.00189911 0.00144121 0.00132086 0.00132086 0.00132086 0.00132086 0.00132086 0.00132086 0.00132086 0.00132086 0.00144121 0.00189911 0.00237961 0.00267724 0.00260768 0.00232531 0.00186946 0.00143504 0.00132086 0.00132086 0.00132086 0.00132086 0.00132086 0.00132086 0.00132086 0.00132086 0.00143504 0.00186946 0.00232531 0.00260768 0.00252138 0.0022578 0.00183277 0.00142741 0.00132086 0.00132086 0.00132086 0.00132086 0.00132086 0.00132086 0.00132086 0.00132086 0.00142741 0.00183277 0.0022578 0.00252138 0.00241072 0.00217179 0.00178551 0.00141743 0.00132086 0.00132086 0.00132086 0.00132086 0.00132086 0.00132086 0.00132086 0.00132086 0.00141743 0.00178551 0.00217179 0.00241072 0.00225868 0.00205292 0.00172065 0.00140393 0.00132086 0.00132086 0.00132086 0.00132086 0.00132086 0.00132086 0.00132086 0.00132086 0.00140393 0.00172065 0.00205292 0.00225868 0.00199627 0.00184804 0.00160881 0.00138074 0.00132086 0.00132086 0.00132086 0.00132086 0.00132086 0.00132086 0.00132086 0.00132086 0.00138074 0.00160881 0.00184804 0.00199627 0.00132086 0.00132086 0.00132086 0.00132086 0.00132086 0.00132086 0.00132086 0.00132086 0.00132086 0.00132086 0.00132086 0.00132086 0.00132086 0.00132086 0.00132086 0.00132086 0.00132086 0.00132086 0.00132086 0.00132086 0.00132086 0.00132086 0.00132086 0.00132086 0.00132086 0.00132086 0.00132086 0.00132086 0.00132086 0.00132086 0.00132086 0.00132086 0.00132086 0.00132086 0.00132086 0.00132086 0.00132086 0.00132086 0.00132086 0.00132086 0.00132086 0.00132086 0.00132086 0.00132086 0.00132086 0.00132086 0.00132086 0.00132086 0.00132086 0.00132086 
</DataArray>
<DataArray type="Float64" Name="cell variable 6" format="ascii">
1 1 1 1 1 1 1 1 1 1 1 1 1 1 1 1 1 1 1 1 1 1 1 1 1 1 1 1 1 1 1 1 1 1 1 1 1 1 1 1 1 1 1 1 1 1 1 1 1 1 1 1 1 1 1 1 1 1 1 1 1 1 1 1 1 1 1 1 1 1 1 1 1 1 1 1 1 1 1 1 1 1 1 1 1 1 1 1 1 1 1 1 1 1 1 1 1 1 1 1 1 1 1 1 1 1 1 1 1 1 1 1 1 1 1 1 1 1 1 1 1 1 1 1 1 1 1 1 1 1 1 1 1 1 1 1 1 1 1 1 1 1 1 1 1 1 1 1 1 1 1 1 1 1 1 1 1 1 1 1 1 1 1 1 1 1 1 1 1 1 1 1 1 1 1 1 1 1 1 1 1 1 1 1 1 1 1 1 1 1 1 1 1 1 1 1 1 1 1 1 1 1 1 1 1 1 1 1 1 1 1 1 1 1 1 1 1 1 1 1 1 1 1 1 1 1 1 1 1 1 1 1 1 1 1 1 1 1 1 1 1 1 1 1 1 1 1 1 1 1 1 1 1 1 1 1 1 1 1 1 1 1 1 1 1 1 1 1 1 1 1 1 1 1 1 1 1 1 1 1 1 1 1 1 1 1 1 1 1 1 1 1 1 1 1 1 1 1 1 1 1 1 1 1 1 1 1 1 1 1 1 1 1 1 1 1 1 1 1 1 1 1 1 1 1 1 1 1 1 1 1 1 1 1 1 1 1 1 1 1 1 1 1 1 1 1 1 1 1 1 1 1 1 1 1 1 1 1 1 1 1 1 1 1 1 1 1 1 1 1 1 1 1 1 1 1 1 1 1 1 1 1 1 1 1 1 1 1 1 1 1 1 1 1 1 1 1 1 1 1 1 1 1 1 1 1 1 1 1 1 1 1 1 1 1 1 1 1 1 1 1 1 1 1 1 1 1 1 1 1 1 1 1 1 1 1 1 1 1 1 1 1 1 1 1 1 1 1 1 1 1 1 1 1 1 1 1 1 1 1 1 1 1 1 1 1 1 1 1 1 1 1 1 1 1 1 1 1 1 1 1 1 1 1 1 1 1 1 1 1 1 1 1 1 1 1 1 1 1 1 1 1 1 1 1 1 1 1 1 1 1 1 1 1 
</DataArray>
<DataArray type="Float64" Name="cell variable 7" format="ascii">
0 0 0 0 0 0 0 0 0 0 0 0 0 0 0 0 0 0 0 0 0 0 0 0 0 0 0 0 0 0 0 0 0 0 0 0 0 0 0 0 0 0 0 0 0 0 0 0 0 0 0 0 0 0 0 0 0 0 0 0 0 0 0 0 0 0 0 0 0 0 0 0 0 0 0 0 0 0 0 0 0 0 0 0 0 0 0 0 0 0 0 0 0 0 0 0 0 0 0 0 0 0 0 0 0 0 0 0 0 0 0 0 0 0 0 0 0 0 0 0 0 0 0 0 0 0 0 0 0 0 0 0 0 0 0 0 0 0 0 0 0 0 0 0 0 0 0 0 0 0 0 0 0 0 0 0 0 0 0 0 0 0 0 0 0 0 0 0 0 0 0 0 0 0 0 0 0 0 0 0 0 0 0 0 0 0 0 0 0 0 0 0 0 0 0 0 0 0 0 0 0 0 0 0 0 0 0 0 0 0 0 0 0 0 0 0 0 0 0 0 0 0 0 0 0 0 0 0 0 0 0 0 0 0 0 0 0 0 0 0 0 0 0 0 0 0 0 0 0 0 0 0 0 0 0 0 0 0 0 0 0 0 0 0 0 0 0 0 0 0 0 0 0 0 0 0 0 0 0 0 0 0 0 0 0 0 0 0 0 0 0 0 0 0 0 0 0 0 0 0 0 0 0 0 0 0 0 0 0 0 0 0 0 0 0 0 0 0 0 0 0 0 0 0 0 0 0 0 0 0 0 0 0 0 0 0 0 0 0 0 0 0 0 0 0 0 0 0 0 0 0 0 0 0 0 0 0 0 0 0 0 0 0 0 0 0 0 0 0 0 0 0 0 0 0 0 0 0 0 0 0 0 0 0 0 0 0 0 0 0 0 0 0 0 0 0 0 0 0 0 0 0 0 0 0 0 0 0 0 0 0 0 0 0 0 0 0 0 0 0 0 0 0 0 0 0 0 0 0 0 0 0 0 0 0 0 0 0 0 0 0 0 0 0 0 0 0 0 0 0 0 0 0 0 0 0 0 0 0 0 0 0 0 0 0 0 0 0 0 0 0 0 0 0 0 0 0 0 0 0 0 0 0 0 0 0 0 0 0 0 0 0 0 0 0 0 0 0 0 0 0 0 0 0 0 0 0 0 0 0 0 0 1 1 
</DataArray>
<DataArray type="Float64" Name="cell variable 8" format="ascii">
11.25 33.75 56.25 78.75 101.25 123.75 146.25 168.75 191.25 213.75 236.25 258.75 281.25 303.75 326.25 348.75 11.25 33.75 56.25 78.75 101.25 123.75 146.25 168.75 191.25 213.75 236.25 258.75 281.25 303.75 326.25 348.75 11.25 33.75 56.25 78.75 101.25 123.75 146.25 168.75 191.25 213.75 236.25 258.75 281.25 303.75 326.25 348.75 11.25 33.75 56.25 78.75 101.25 123.75 146.25 168.75 191.25 213.75 236.25 258.75 281.25 303.75 326.25 348.75 11.25 33.75 56.25 78.75 101.25 123.75 146.25 168.75 191.25 213.75 236.25 258.75 281.25 303.75 326.25 348.75 11.25 33.75 56.25 78.75 101.25 123.75 146.25 168.75 191.25 213.75 236.25 258.75 281.25 303.75 326.25 348.75 11.25 33.75 56.25 78.75 101.25 123.75 146.25 168.75 191.25 213.75 236.25 258.75 281.25 303.75 326.25 348.75 11.25 33.75 56.25 78.75 101.25 123.75 146.25 168.75 191.25 213.75 236.25 258.75 281.25 303.75 326.25 348.75 11.25 33.75 56.25 78.75 101.25 123.75 146.25 168.75 191.25 213.75 236.25 258.75 281.25 303.75 326.25 348.75 11.25 33.75 56.25 78.75 101.25 123.75 146.25 168.75 191.25 213.75 236.25 258.75 281.25 303.75 326.25 348.75 11.25 33.75 56.25 78.75 101.25 123.75 146.25 168.75 191.25 213.75 236.25 258.75 281.25 303.75 326.25 348.75 11.25 33.75 56.25 78.75 101.25 123.75 146.25 168.75 191.25 213.75 236.25 258.75 281.25 303.75 326.25 348.75 11.25 33.75 56.25 78.75 101.25 123.75 146.25 168.75 191.25 213.75 236.25 258.75 281.25 303.75 326.25 348.75 11.25 33.75 56.25 78.75 101.25 123.75 146.25 168.75 191.25 213.75 236.25 258.75 281.25 303.75 326.25 348.75 11.25 33.75 56.25 78.75 101.25 123.75 146.25 168.75 191.25 213.75 236.25 258.75 281.25 303.75 326.25 348.75 11.25 33.75 56.25 78.75 101.25 123.75 146.25 168.75 191.25 213.75 236.25 258.75 281.25 303.75 326.25 348.75 11.25 33.75 56.25 78.75 101.25 123.75 146.25 168.75 191.25 213.75 236.25 258.75 281.25 303.75 326.25 348.75 11.25 33.75 56.25 78.75 101.25 123.75 146.25 168.75 191.25 213.75 236.25 258.75 281.25 303.75 326.25 348.75 11.25 33.75 56.25 78.75 101.25 123.75 146.25 168.75 191.25 213.75 236.25 258.75 281.25 303.75 326.25 348.75 11.25 33.75 56.25 78.75 101.25 123.75 146.25 168.75 191.25 213.75 236.25 258.75 281.25 303.75 326.25 348.75 11.25 33.75 56.25 78.75 101.25 123.75 146.25 168.75 191.25 213.75 236.25 258.75 281.25 303.75 326.25 348.75 11.25 33.75 56.25 78.75 101.25 123.75 146.25 168.75 191.25 213.75 236.25 258.75 281.25 303.75 326.25 348.75 11.25 33.75 56.25 78.75 101.25 123.75 146.25 168.75 191.25 213.75 236.25 258.75 281.25 303.75 326.25 348.75 11.25 33.75 56.25 78.75 101.25 123.75 146.25 168.75 191.25 213.75 236.25 258.75 281.25 303.75 326.25 348.75 11.25 33.75 56.25 78.75 101.25 123.75 146.25 168.75 191.25 213.75 236.25 258.75 281.25 303.75 326.25 348.75 11.25 33.75 56.25 78.75 101.25 123.75 146.25 168.75 191.25 213.75 236.25 258.75 281.25 303.75 326.25 348.75 11.25 33.75 56.25 78.75 101.25 123.75 146.25 168.75 191.25 213.75 236.25 258.75 281.25 303.75 326.25 348.75 11.25 33.75 56.25 78.75 101.25 123.75 146.25 168.75 191.25 213.75 236.25 258.75 281.25 303.75 326.25 348.75 11.25 33.75 56.25 78.75 101.25 123.75 146.25 168.75 191.25 213.75 236.25 258.75 281.25 303.75 326.25 348.75 11.25 33.75 56.25 78.75 101.25 123.75 146.25 168.75 191.25 213.75 236.25 258.75 281.25 303.75 326.25 348.75 11.25 33.75 56.25 78.75 101.25 123.75 146.25 168.75 191.25 213.75 236.25 258.75 281.25 303.75 326.25 348.75 11.25 33.75 56.25 78.75 101.25 123.75 146.25 168.75 191.25 213.75 236.25 258.75 281.25 303.75 326.25 348.75 0 0 
</DataArray>
</CellData>
</Piece>
</UnstructuredGrid>
</VTKFile>
