<VTKFile type="UnstructuredGrid" version="0.1">
<UnstructuredGrid>
<Piece  NumberOfPoints="    2080" NumberOfCells="     514">
<Points>
<DataArray type="Float64" NumberOfComponents="3" format="ascii">
-77.1959 1005.65 0.978661
-73.2508 1008.92 26.7491
-58.7572 983.233 28.8904
-63.0634 979.704 1.02722
-72.3639 1009.65 29.5017
-61.02 1018.85 51.3254
-45.5623 993.902 55.2067
-57.8703 983.954 31.643
-59.3772 1020.18 53.4269
-42.3674 1033.89 67.9572
-25.4944 1010.04 72.995
-43.9196 995.227 57.3082
-40.2232 1035.62 69.0894
-20.2295 1051.79 74.1432
-1.67025 1029.23 79.5863
-23.3503 1011.77 74.1272
-17.9211 1053.67 74.1383
1.93977 1069.97 68.9988
22.1567 1048.74 74.0385
0.638127 1031.11 79.5814
4.05426 1071.73 67.8637
20.7325 1085.81 53.3384
42.3118 1065.86 57.2465
24.2712 1050.5 72.9034
22.3351 1087.19 51.2393
33.3818 1096.85 29.462
55.8015 1077.78 31.5652
43.9145 1067.24 55.1474
34.2422 1097.61 26.7091
38.1124 1101.04 0.933497
60.805 1082.29 0.943361
56.662 1078.54 28.8123
38.1126 1101.04 -2.05049
34.2449 1097.6 -27.8261
56.6669 1078.53 -29.9011
60.8051 1082.29 -2.04062
33.3854 1096.83 -30.5778
22.3505 1087.14 -52.3496
43.9429 1067.19 -56.2098
55.8074 1077.76 -32.6528
20.7502 1085.76 -54.447
4.09161 1071.64 -68.9571
24.3234 1050.42 -73.9507
42.3426 1065.81 -58.3072
1.97899 1069.88 -70.0906
-17.8693 1053.56 -75.2148
0.706006 1031 -80.6139
22.2108 1048.65 -75.0843
-20.1765 1051.68 -75.2181
-40.1633 1035.5 -70.1493
-23.2708 1011.65 -75.1436
-1.6012 1029.12 -80.6173
-42.3056 1033.77 -69.0154
-59.2851 1020.05 -54.4612
-43.83 995.12 -58.3038
-25.4131 1009.92 -74.0097
-60.9277 1018.72 -52.357
-72.2766 1009.55 -30.5265
-57.8134 983.876 -32.5899
-45.4726 993.795 -56.1995
-73.1684 1008.83 -27.7715
-77.1924 1005.65 -2.00385
-63.0598 979.699 -1.9553
-58.7052 983.161 -29.8348
-61.1807 976.839 1.10518
-56.8745 980.368 28.9684
-37.0741 954.298 29.5947
-41.4876 950.717 1.13403
-43.6324 991.07 55.4206
-23.5523 965.144 56.5625
-36.14 955.053 32.4832
-55.9404 981.123 31.8569
-23.4801 1007.27 73.3127
-2.98361 981.555 74.8261
-21.8251 966.53 58.7679
-41.9053 992.456 57.6259
0.45378 1026.54 79.9611
21.4515 1001.09 81.6375
-0.729746 983.362 76.0154
-21.2263 1009.07 74.502
24.3992 1046.14 74.4145
45.8773 1020.98 75.9796
23.8783 1003.05 81.6338
2.88059 1028.5 79.9574
44.6541 1063.35 57.5682
66.336 1038.64 58.7649
48.0917 1022.84 74.7902
26.6135 1047.99 73.225
58.2112 1075.35 31.7814
79.9265 1051 32.417
68.0061 1040.1 56.5602
46.3242 1064.81 55.3635
63.2474 1079.9 1.01949
84.9715 1055.66 1.03873
80.8195 1051.81 29.5241
59.1043 1076.16 28.8884
59.1094 1076.14 -29.9737
80.8276 1051.77 -30.5626
84.9717 1055.66 -2.09396
63.2476 1079.9 -2.1132
46.3535 1064.76 -56.4208
68.0459 1040.04 -57.5534
79.9362 1050.96 -33.4527
58.218 1075.33 -32.8638
26.667 1047.9 -74.2664
48.1501 1022.75 -75.7722
66.3786 1038.58 -59.7555
44.6862 1063.3 -58.6229
2.94956 1028.39 -80.9842
23.9493 1002.94 -82.6037
45.9374 1020.89 -76.9604
24.4543 1046.05 -75.4546
-21.1457 1008.96 -75.5129
-0.651972 983.249 -76.9718
21.5236 1000.98 -82.606
0.52389 1026.43 -80.9865
-41.8158 992.349 -58.6163
-21.7489 966.431 -59.7119
-2.90521 981.442 -75.781
-23.3989 1007.15 -74.3222
-55.8856 981.046 -32.7976
-36.1046 954.979 -33.3706
-23.4779 965.047 -57.5029
-43.5448 990.965 -56.4073
-56.8239 980.297 -29.9052
-61.1785 976.836 -2.02567
-41.4855 950.713 -1.99681
-37.0429 954.23 -30.4781
-39.2458 947.859 1.15626
-34.8322 951.441 29.6169
-14.1265 925.986 29.7399
-18.5762 922.412 1.18131
-33.8836 952.199 32.5413
-21.2959 962.291 56.6207
-0.491598 936.81 56.8256
-13.1778 926.745 32.6643
-19.5418 963.685 58.8543
-0.700308 978.71 74.9126
20.2643 953.175 75.1657
1.26243 938.204 59.0593
1.58946 980.526 76.1179
23.7707 998.251 81.74
44.9357 972.63 81.9954
22.5541 954.991 76.371
26.2359 1000.23 81.7364
48.2349 1018.16 76.0822
69.5893 992.455 76.304
47.4009 974.607 81.9918
50.4655 1020.04 74.8785
68.7098 1035.84 58.8532
89.8688 1010.5 59.0123
71.8199 994.333 75.1003
70.377 1037.35 56.6202
82.2974 1048.24 32.477
103.301 1023.26 32.6083
91.536 1012.01 56.7793
83.1868 1049.08 29.5474
87.3387 1052.94 1.06199
108.303 1028.09 1.09792
104.191 1024.1 29.6787
87.3395 1052.93 -2.111
83.1953 1049.04 -30.5796
104.209 1024.05 -30.6456
108.303 1028.08 -2.07507
82.3083 1048.2 -33.5065
70.4179 1037.29 -57.6072
91.5798 1011.93 -57.718
103.322 1023.21 -33.5725
68.7528 1035.78 -59.8377
50.5243 1019.95 -75.8544
71.8748 994.239 -76.027
89.9147 1010.43 -59.9484
48.2949 1018.07 -77.0571
26.3067 1000.12 -82.7003
47.4658 974.496 -82.9061
69.6454 992.359 -77.2296
23.8424 998.141 -82.7027
1.66679 980.413 -77.0684
22.6233 954.878 -77.2725
45.0015 972.518 -82.9084
-0.622941 978.597 -75.862
-19.4666 963.585 -59.7928
1.32608 938.107 -59.9512
20.3336 953.062 -76.066
-21.2231 962.194 -57.5556
-33.8497 952.126 -33.4233
-13.1549 926.673 -33.4981
-0.430334 936.716 -57.714
-34.8019 951.372 -30.4946
-39.2445 947.856 -2.01331
-18.5749 922.408 -1.98826
-14.107 925.919 -30.5694
-16.2908 919.589 1.18794
-11.8411 923.163 29.7465
8.65449 897.763 29.7862
4.13435 894.247 1.21073
-10.8809 923.916 32.6772
1.80531 933.981 56.8385
22.4828 908.423 56.8746
9.6147 898.516 32.7169
3.57906 935.363 59.0744
22.581 950.333 75.1809
43.5018 924.551 75.1856
24.2566 909.804 59.1105
24.8951 952.132 76.3847
47.2767 969.772 82.0091
68.4603 943.729 81.9754
45.8159 926.35 76.3894
49.7685 971.728 82.0027
71.9569 989.577 76.3149
93.4288 963.257 76.285
70.9521 945.685 81.969
74.2215 991.444 75.0988
92.2705 1007.61 59.0108
114.379 980.613 58.9483
95.6935 965.124 75.0688
93.9541 1009.1 56.7746
105.719 1020.36 32.6036
128.337 992.913 32.6011
116.063 982.103 56.7121
106.617 1021.18 29.6798
110.729 1025.17 1.09904
133.533 997.586 1.13469
129.235 993.742 29.6773
110.73 1025.17 -2.06843
106.636 1021.14 -30.639
129.254 993.704 -30.573
133.534 997.584 -2.03279
105.74 1020.31 -33.5616
93.9981 1009.03 -57.7071
116.099 982.031 -57.5997
128.359 992.873 -33.4956
92.3158 1007.54 -59.9419
74.276 991.35 -76.0204
95.7434 965.027 -75.9447
114.417 980.539 -59.8345
72.0125 989.481 -77.2353
49.8329 971.617 -82.9118
71.0111 945.573 -82.8321
93.4799 963.159 -77.1596
47.3417 969.66 -82.9169
24.9636 952.019 -77.281
45.8776 926.238 -77.2403
68.5199 943.616 -82.8372
22.6492 950.221 -76.076
3.64174 935.266 -59.9612
24.3113 909.709 -59.9529
43.5633 924.44 -76.0354
1.86554 933.887 -57.7217
-10.859 923.845 -33.5059
9.6304 898.445 -33.5008
22.5351 908.33 -57.7134
-11.8221 923.097 -30.5709
-16.29 919.586 -1.9897
4.13518 894.244 -1.96691
8.66727 897.697 -30.5657
6.37991 891.413 1.21397
10.9001 894.929 29.7895
30.8931 869.245 29.8164
26.3109 865.805 1.23702
11.8737 895.668 32.7209
24.7419 905.575 56.8785
44.9004 879.681 56.9064
31.8668 869.984 32.7478
26.5387 906.931 59.1135
45.7839 921.678 75.1886
66.1755 895.484 75.2148
46.6973 881.038 59.1414
48.1264 923.446 76.3902
70.7708 940.825 81.9761
91.4343 914.276 81.9991
68.518 897.252 76.4164
73.2944 942.746 81.968
95.7712 960.318 76.2839
116.749 933.358 76.2988
93.958 916.197 81.991
98.0809 962.128 75.069
116.766 977.617 58.9484
138.221 950.084 58.9834
119.059 935.168 75.0838
118.508 979.047 56.7127
130.783 989.858 32.6017
152.632 961.862 32.6307
139.962 951.514 56.7476
131.715 990.653 29.68
136.013 994.497 1.13733
158.007 966.34 1.16428
153.565 962.656 29.7089
136.014 994.495 -2.02872
131.734 990.616 -30.5689
153.581 962.622 -30.5445
158.008 966.338 -2.00178
130.803 989.818 -33.4902
118.544 978.976 -57.5943
139.995 951.445 -57.5772
152.649 961.824 -33.4659
116.804 977.543 -59.8293
98.1304 962.031 -75.9395
119.106 935.072 -75.904
138.255 950.012 -59.8121
95.8218 960.219 -77.1533
73.353 942.634 -82.8258
94.0136 916.086 -82.8003
116.798 933.259 -77.1178
70.8299 940.712 -82.8328
48.1876 923.334 -77.2359
68.5749 897.142 -77.2153
91.4904 914.164 -82.8073
45.8448 921.567 -76.0333
26.5928 906.837 -59.9508
46.7463 880.946 -59.9329
66.2321 895.375 -76.0127
24.7935 905.483 -57.7124
11.8888 895.598 -33.4997
31.8782 869.915 -33.4807
44.9471 879.591 -57.6944
10.9126 894.863 -30.5639
6.38047 891.41 -1.96509
26.3115 865.802 -1.94204
30.902 869.181 -30.545
28.4969 862.936 1.23986
33.079 866.376 29.8192
52.4937 840.34 29.8455
47.853 836.987 1.26292
34.0653 867.098 32.7512
47.099 876.796 56.9099
66.6765 850.519 56.944
53.48 841.062 32.7775
48.9185 878.122 59.1454
68.3967 892.568 75.2188
88.217 865.943 75.2646
68.496 851.846 59.1796
70.7684 894.296 76.4206
93.6847 911.32 82.0033
113.801 884.282 82.0545
90.5886 867.671 76.4664
96.2421 913.196 81.9944
119.033 930.357 76.3023
139.485 902.853 76.3428
116.359 886.158 82.0456
121.384 932.111 75.0882
140.546 947.027 58.9878
161.39 919.004 59.0314
141.836 904.608 75.1288
142.332 948.402 56.7521
155.001 958.75 32.6352
176.173 930.291 32.6655
163.176 920.38 56.7957
155.962 959.511 29.7122
160.404 963.194 1.16758
181.697 934.577 1.19295
177.134 931.052 29.7426
160.405 963.193 -1.99929
155.978 959.477 -30.5421
177.148 931.02 -30.5219
181.698 934.575 -1.97392
155.019 958.712 -33.4646
142.364 948.334 -57.5759
163.206 920.313 -57.5694
176.189 930.256 -33.4444
140.58 946.955 -59.8109
121.431 932.015 -75.9028
141.881 904.513 -75.8938
161.421 918.935 -59.8044
119.081 930.258 -77.1158
96.2975 913.085 -82.7983
116.411 886.049 -82.8013
139.531 902.756 -77.1069
93.7405 911.209 -82.8062
70.8249 894.187 -77.2142
90.6419 867.564 -77.2131
113.854 884.173 -82.8092
68.4528 892.459 -76.0116
48.9671 878.03 -59.9317
68.5412 851.756 -59.9198
88.2698 865.837 -76.0105
47.1452 876.706 -57.6928
34.0764 867.029 -33.4791
53.4887 840.995 -33.4593
66.7194 850.432 -57.6809
33.0878 866.312 -30.5427
28.4973 862.933 -1.93977
47.8534 836.984 -1.91671
52.5001 840.277 -30.5229
49.9734 834.078 1.26572
54.6141 837.432 29.8483
73.4251 811.022 29.8741
68.7259 807.763 1.28864
55.6129 838.135 32.7811
68.8095 847.592 56.9476
87.7869 820.921 56.9832
74.4239 811.725 32.8069
70.6521 848.884 59.1844
90.373 862.981 75.2695
109.604 835.929 75.3194
89.6295 822.214 59.22
92.7756 864.665 76.4722
115.988 881.276 82.0603
135.532 853.77 82.1171
112.007 837.613 76.5221
118.581 883.101 82.051
141.708 899.797 76.3482
161.594 871.796 76.3972
138.125 855.595 82.1078
144.097 901.496 75.1339
163.652 915.892 59.0365
183.889 887.402 59.077
163.984 873.495 75.1829
165.475 917.216 56.8002
178.472 927.128 32.6701
198.992 898.235 32.699
185.713 888.726 56.8407
179.456 927.857 29.7459
184.02 931.382 1.19619
204.644 902.338 1.22086
199.976 898.964 29.7748
184.02 931.38 -1.97161
179.47 927.825 -30.5195
199.988 898.933 -30.4993
204.645 902.336 -1.94694
178.488 927.093 -33.4434
165.505 917.15 -57.5685
185.74 888.66 -57.5602
199.006 898.201 -33.4232
163.682 915.823 -59.8041
144.142 901.401 -75.8935
164.026 873.402 -75.8937
183.918 887.333 -59.7958
141.753 899.7 -77.1069
118.634 882.992 -82.8013
138.175 855.488 -82.8105
161.638 871.701 -77.1071
116.041 881.167 -82.8097
92.8286 864.558 -77.2136
112.057 837.508 -77.217
135.582 853.663 -82.8189
90.4256 862.875 -76.0102
70.697 848.795 -59.9195
89.6716 822.126 -59.9093
109.654 835.825 -76.0135
68.852 847.504 -57.6794
55.6213 838.067 -33.4578
74.4304 811.659 -33.4379
87.8267 820.836 -57.6691
54.6203 837.369 -30.5206
49.9737 834.075 -1.91441
68.7262 807.759 -1.89149
73.4295 810.961 -30.5007
70.7787 804.813 1.29139
75.4779 808.072 29.8769
93.6761 781.286 29.9022
88.9173 778.125 1.31401
76.4895 808.755 32.8105
89.8524 817.951 56.9868
108.221 790.888 57.0214
94.6876 781.968 32.8358
91.7188 819.207 59.2249
111.694 832.922 75.3243
130.323 805.451 75.3726
110.087 792.144 59.2595
114.128 834.558 76.5281
137.653 850.715 82.123
156.601 822.762 82.1786
132.757 807.087 76.5764
140.282 852.486 82.1137
163.752 868.687 76.4031
183.04 840.221 76.4552
159.231 824.532 82.1693
166.179 870.331 75.188
186.084 884.237 59.082
205.706 855.299 59.117
185.467 841.865 75.2401
187.942 885.513 56.8447
201.221 895.023 32.7031
221.093 865.709 32.7306
207.563 856.575 56.8797
202.225 895.723 29.7779
206.894 899.096 1.22396
226.86 869.641 1.24816
222.097 866.408 29.8054
206.894 899.095 -1.94462
202.238 895.692 -30.497
222.108 866.379 -30.4763
226.86 869.639 -1.92041
201.234 894.989 -33.4219
187.968 885.448 -57.5589
207.588 856.511 -57.5461
221.105 865.676 -33.4012
186.113 884.169 -59.7955
166.222 870.238 -75.8935
185.508 841.773 -75.8985
205.733 855.232 -59.7827
163.795 868.592 -77.1078
140.333 852.379 -82.8111
159.278 824.427 -82.8204
183.082 840.127 -77.1128
137.703 850.608 -82.8197
114.178 834.453 -77.2177
132.804 806.985 -77.2205
156.649 822.656 -82.829
111.743 832.818 -76.0133
91.7607 819.119 -59.9091
110.126 792.058 -59.8986
130.369 805.35 -76.0161
89.892 817.866 -57.6676
76.4957 808.689 -33.4364
94.6921 781.904 -33.4165
108.258 790.804 -57.6572
75.4822 808.011 -30.4984
70.7789 804.809 -1.88919
88.9175 778.121 -1.86657
93.6785 781.225 -30.4785
90.9017 775.133 1.31669
95.6605 778.294 29.9048
113.241 751.133 29.9292
108.421 748.075 1.33885
96.685 778.956 32.8391
110.218 787.875 57.0247
127.971 760.427 57.0564
114.265 751.795 32.8635
112.109 789.092 59.264
132.344 802.399 75.3771
150.362 774.524 75.4194
129.862 761.643 59.2957
134.811 803.985 76.5818
158.655 819.66 82.184
176.993 791.279 82.2317
152.829 776.109 76.6241
161.321 821.374 82.1749
185.13 837.063 76.4608
203.797 808.164 76.5063
179.658 792.993 82.2226
187.594 838.652 75.2448
207.832 852.086 59.1217
226.811 822.716 59.1533
206.261 809.753 75.2903
209.721 853.315 56.8833
223.25 862.449 32.7342
242.46 832.716 32.7602
228.7 823.945 56.9149
224.273 863.12 29.8083
229.036 866.353 1.25112
248.331 836.486 1.27496
243.483 833.388 29.8344
229.036 866.351 -1.91805
224.284 863.091 -30.4739
243.493 833.359 -30.4526
248.332 836.485 -1.89421
223.263 862.416 -33.3994
209.746 853.251 -57.5444
228.724 823.882 -57.5289
242.472 832.684 -33.3781
207.859 852.019 -59.7822
187.634 838.56 -75.898
206.299 809.663 -75.898
226.837 822.65 -59.7667
185.172 836.969 -77.1133
161.368 821.269 -82.8209
179.702 792.89 -82.8238
203.836 808.071 -77.1133
158.703 819.554 -82.8294
134.858 803.883 -77.2209
152.872 776.009 -77.2189
177.037 791.176 -82.8323
132.39 802.298 -76.0156
112.148 789.006 -59.8981
129.898 761.559 -59.8859
150.404 774.425 -76.0136
110.255 787.792 -57.6556
96.6891 778.891 -33.4149
114.267 751.731 -33.3951
128.005 760.345 -57.6433
95.6628 778.234 -30.4762
90.9018 775.13 -1.86427
108.421 748.072 -1.84211
113.241 751.074 -30.4564
110.337 745.042 1.34142
115.156 748.101 29.9318
132.114 720.573 29.9548
127.233 717.62 1.36289
116.194 748.74 32.8665
129.9 757.372 57.0595
147.031 729.547 57.0876
133.152 721.212 32.8895
131.815 758.548 59.2996
152.315 771.429 75.4233
169.71 743.161 75.4585
148.946 730.723 59.3277
154.814 772.962 76.6286
178.978 788.132 82.2363
196.691 759.343 82.2748
172.21 744.694 76.6639
181.679 789.788 82.2272
205.818 804.959 76.511
223.854 775.639 76.5467
199.392 760.999 82.2657
208.316 806.493 75.2943
228.867 819.455 59.1573
247.19 789.661 59.1869
226.352 777.173 75.3301
230.784 820.638 56.9182
244.544 829.409 32.7636
263.079 799.264 32.7888
249.107 790.844 56.9478
245.584 830.054 29.8373
250.432 833.153 1.27782
269.045 802.879 1.30155
264.119 799.908 29.8625
250.433 833.151 -1.8918
245.595 830.025 -30.4502
264.129 799.881 -30.4282
269.045 802.878 -1.86806
244.556 829.377 -33.3762
230.809 820.576 -57.527
249.13 790.782 -57.5103
263.09 799.233 -33.3543
228.892 819.39 -59.7657
208.354 806.402 -75.8969
226.387 777.084 -75.8875
247.214 789.596 -59.7489
205.857 804.866 -77.113
181.723 789.685 -82.8235
199.432 760.898 -82.8181
223.89 775.548 -77.1036
179.022 788.029 -82.832
154.857 772.862 -77.2185
172.248 744.597 -77.2106
196.731 759.242 -82.8266
152.357 771.33 -76.0126
131.85 758.465 -59.8849
148.979 730.641 -59.8705
169.749 743.065 -76.0047
129.933 757.29 -57.6415
116.196 748.677 -33.3933
133.151 721.15 -33.3736
147.061 729.466 -57.6271
115.156 748.042 -30.4541
110.337 745.039 -1.83984
127.233 717.616 -1.81837
132.112 720.514 -30.4344
129.079 714.547 1.36531
133.96 717.5 29.9572
150.291 689.613 29.9785
145.349 686.768 1.38574
135.011 718.117 32.8923
148.89 726.451 57.0903
165.394 698.258 57.1153
151.342 690.23 32.9136
150.83 727.586 59.3311
171.594 740.024 75.4619
188.359 711.376 75.4926
167.334 699.393 59.356
174.125 741.503 76.6677
198.606 756.151 82.2786
215.681 726.968 82.3114
190.89 712.855 76.6984
201.342 757.748 82.2695
225.804 772.388 76.5505
243.191 742.665 76.5801
218.418 728.565 82.3023
228.336 773.866 75.3335
249.173 786.354 59.1903
266.832 756.154 59.2163
245.722 744.143 75.3631
251.118 787.491 56.9509
265.09 795.911 32.7919
282.947 765.367 32.8174
268.776 757.291 56.9769
266.145 796.53 29.8653
271.071 799.5 1.30437
288.999 768.833 1.32842
284.002 765.986 29.8909
271.071 799.499 -1.86558
266.155 796.502 -30.4257
284.01 765.959 -30.4034
289 768.831 -1.84153
265.1 795.88 -33.3522
251.14 787.43 -57.5082
268.798 757.229 -57.4896
282.956 765.337 -33.3299
249.197 786.289 -59.7474
228.37 773.777 -75.8859
245.754 744.054 -75.8736
266.855 756.089 -59.7287
225.84 772.297 -77.1026
201.382 757.648 -82.817
218.452 728.467 -82.8082
243.223 742.574 -77.0902
198.645 756.051 -82.8257
174.163 741.405 -77.2097
190.923 712.76 -77.1996
215.715 726.869 -82.8169
171.632 739.928 -76.0034
150.861 727.504 -59.8693
167.361 699.312 -59.8542
188.391 711.282 -75.9933
148.92 726.371 -57.6253
135.01 718.054 -33.3718
151.338 690.168 -33.3526
165.42 698.18 -57.6102
133.958 717.442 -30.4322
129.079 714.544 -1.81616
145.348 686.765 -1.79573
150.286 689.556 -30.413
147.125 683.657 1.38801
152.067 686.501 29.9808
167.765 658.266 30.0005
162.762 655.532 1.40744
153.131 687.095 32.9161
167.183 695.123 57.1178
183.053 666.575 57.1386
168.829 658.859 32.9358
169.147 696.215 59.3588
190.172 708.198 75.4954
206.298 679.184 75.5173
185.016 667.667 59.3797
192.734 709.621 76.7014
217.526 723.734 82.3144
233.956 694.172 82.3345
208.861 680.607 76.7233
220.296 725.271 82.3049
245.069 739.371 76.5827
261.798 709.268 76.5941
236.726 695.709 82.325
247.631 740.793 75.3656
268.741 752.803 59.2188
285.708 722.204 59.2435
264.36 710.689 75.3769
270.711 753.894 56.9797
284.882 761.971 32.8202
302.039 731.032 32.8435
287.678 723.295 57.0044
285.952 762.564 29.8936
290.949 765.41 1.33113
308.176 734.354 1.35317
303.109 731.625 29.9168
290.949 765.409 -1.83914
285.959 762.537 -30.401
303.125 731.605 -30.381
308.177 734.353 -1.81709
284.891 761.941 -33.3278
270.733 753.833 -57.4875
287.714 723.243 -57.4691
302.056 731.009 -33.3077
268.764 752.738 -59.727
247.663 740.703 -75.8719
264.385 710.595 -75.8577
285.746 722.148 -59.7087
245.101 739.28 -77.089
220.329 725.173 -82.8069
236.75 695.613 -82.7961
261.822 709.172 -77.0748
217.559 723.636 -82.8157
192.767 709.526 -77.1985
208.886 680.514 -77.1867
233.98 694.076 -82.8049
190.203 708.105 -75.9919
169.173 696.135 -59.8528
185.038 667.588 -59.8371
206.323 679.092 -75.9802
167.208 695.045 -57.6084
153.126 687.033 -33.3508
168.822 658.799 -33.3322
183.073 666.498 -57.5927
152.062 686.444 -30.4109
147.124 683.653 -1.79359
162.762 655.529 -1.77417
167.757 658.21 -30.3923
164.467 652.382 1.4096
169.471 655.116 30.0027
184.529 626.543 30.0215
179.466 623.922 1.42855
170.547 655.686 32.938
184.771 663.402 57.1409
199.996 634.51 57.1598
185.605 627.113 32.9569
186.758 664.45 59.3819
208.039 675.967 75.5196
223.515 646.6 75.5383
201.983 635.558 59.4009
210.633 677.333 76.7255
235.728 690.898 82.3367
251.499 660.97 82.3531
226.108 647.965 76.7442
238.532 692.373 82.3265
263.604 705.932 76.5955
279.672 675.433 76.6031
254.302 662.445 82.3429
266.194 707.294 75.3789
287.543 718.81 59.2454
303.832 687.818 59.269
282.263 676.796 75.3864
289.535 719.855 57.0072
303.897 727.591 32.8463
320.354 696.275 32.8676
305.824 688.862 57.0308
304.98 728.159 29.9192
310.048 730.889 1.35564
326.565 699.455 1.37553
321.438 696.843 29.9405
310.048 730.888 -1.81491
304.996 728.14 -30.3788
321.452 696.827 -30.3604
326.566 699.454 -1.79502
303.914 727.57 -33.3058
289.572 719.803 -57.4672
305.851 688.832 -57.4516
320.37 696.257 -33.2873
287.58 718.755 -59.7065
266.219 707.202 -75.8556
282.272 676.731 -75.8252
303.859 687.784 -59.6909
263.627 705.837 -77.0727
238.555 692.278 -82.794
254.321 662.356 -82.7724
279.681 675.365 -77.0424
235.752 690.802 -82.8031
210.658 677.24 -77.185
226.13 647.876 -77.166
251.518 660.88 -82.7816
208.064 675.875 -75.9784
186.779 664.371 -59.8354
202.002 635.481 -59.8169
223.536 646.511 -75.9595
184.791 663.324 -57.5908
170.54 655.626 -33.3302
185.596 627.054 -33.3114
200.014 634.435 -57.5723
169.462 655.06 -30.3902
164.467 652.379 -1.77208
179.466 623.919 -1.75313
184.519 626.488 -30.3714
181.1 620.735 1.43064
186.163 623.357 30.0236
200.574 594.457 30.0422
195.455 591.951 1.44912
187.252 623.902 32.9591
201.642 631.299 57.1619
216.214 602.074 57.1815
201.663 595.003 32.9777
203.652 632.302 59.4031
225.184 643.344 75.5405
239.996 613.635 75.5618
218.224 603.078 59.4226
227.807 644.652 76.7464
253.198 657.656 82.3552
268.293 627.375 82.3765
242.619 614.942 76.7677
256.033 659.068 82.3447
281.403 672.056 76.6048
296.783 641.199 76.623
271.129 628.787 82.3659
284.023 673.36 75.3883
305.592 684.381 59.271
321.203 653.037 59.2904
299.403 642.503 75.4065
307.606 685.381 57.0332
322.136 692.794 32.8699
337.903 661.125 32.8888
323.216 654.037 57.0526
323.231 693.338 29.9427
328.358 695.95 1.37772
344.178 664.163 1.39518
338.999 661.669 29.9616
328.359 695.949 -1.79306
323.245 693.322 -30.3584
339.003 661.651 -30.3419
344.178 664.162 -1.77561
322.15 692.776 -33.2858
307.631 685.351 -57.45
323.226 654.002 -57.4344
337.908 661.105 -33.2692
305.618 684.349 -59.6883
284.031 673.296 -75.8227
299.416 642.445 -75.7895
321.212 653 -59.6727
281.412 671.99 -77.0393
256.052 658.981 -82.7693
271.149 628.708 -82.7452
296.796 641.138 -77.0061
253.217 657.567 -82.7792
227.828 644.563 -77.1637
242.642 614.86 -77.143
268.314 627.295 -82.7551
225.205 643.256 -75.9574
203.671 632.226 -59.8148
218.244 603.005 -59.7958
240.018 613.553 -75.9366
201.66 631.224 -57.5703
187.243 623.844 -33.3093
201.653 594.946 -33.2908
216.232 602.004 -57.5513
186.153 623.302 -30.3693
181.1 620.732 -1.75106
195.454 591.948 -1.73258
200.564 594.405 -30.3507
197.017 588.729 1.45113
202.136 591.235 30.0443
215.894 562.022 30.0619
210.72 559.632 1.46856
203.237 591.756 32.9797
217.788 598.828 57.1836
231.7 569.284 57.2018
216.995 562.542 32.9973
219.82 599.786 59.4248
241.591 610.342 75.564
255.733 580.306 75.5832
233.731 570.242 59.4431
244.243 611.591 76.7699
269.917 624.024 82.3787
284.331 593.408 82.3976
258.385 581.555 76.7891
272.784 625.372 82.368
298.438 637.784 76.6251
313.122 606.589 76.6424
287.198 594.756 82.3868
301.086 639.028 75.4085
322.886 649.562 59.2923
337.796 617.878 59.3086
315.77 607.834 75.4258
324.92 650.517 57.0545
339.607 657.605 32.8908
354.67 625.594 32.9065
339.831 618.833 57.0709
340.715 658.124 29.9635
345.894 660.619 1.39706
361.011 628.494 1.41214
355.777 626.114 29.9792
345.894 660.618 -1.77387
340.718 658.106 -30.3401
355.78 626.098 -30.3255
361.011 628.493 -1.75879
339.611 657.585 -33.2674
324.929 650.482 -57.4327
339.838 618.798 -57.4164
354.673 625.577 -33.2529
322.895 649.525 -59.6704
301.099 638.97 -75.7872
315.784 607.777 -75.7683
337.804 617.841 -59.6541
298.451 637.724 -77.0035
272.804 625.293 -82.7426
287.218 594.684 -82.7257
313.137 606.531 -76.9846
269.938 623.944 -82.7529
244.266 611.509 -77.1408
258.408 581.478 -77.1245
284.352 593.335 -82.7361
241.614 610.261 -75.9346
219.839 599.714 -59.7938
233.751 570.174 -59.7769
255.756 580.23 -75.9183
217.806 598.757 -57.5493
203.227 591.7 -33.2888
216.985 562.489 -33.2714
231.718 569.217 -57.5324
202.125 591.183 -30.3487
197.016 588.726 -1.73059
210.719 559.63 -1.71316
215.883 561.972 -30.3314
212.209 556.376 1.47045
217.383 558.765 30.0637
230.48 529.25 30.08
225.254 526.98 1.48683
218.495 559.261 32.9993
233.2 566.003 57.2037
246.445 536.154 57.2198
231.592 529.746 33.0155
235.252 566.915 59.445
257.255 576.979 75.5851
270.72 546.632 75.6011
248.497 537.066 59.4611
259.934 578.168 76.791
285.88 590.021 82.3995
299.604 559.088 82.4154
273.399 547.821 76.807
288.776 591.304 82.3887
314.7 603.138 76.6443
328.683 571.62 76.659
302.5 560.371 82.4046
317.375 604.322 75.4276
339.401 614.366 59.3104
353.6 582.356 59.3255
331.358 572.805 75.4423
341.456 615.276 57.0726
356.296 622.038 32.9082
370.641 589.699 32.9229
355.656 583.265 57.0876
357.414 622.532 29.9809
362.648 624.912 1.41381
377.045 592.458 1.42831
371.759 590.193 29.9956
362.648 624.911 -1.75718
357.417 622.516 -30.3239
371.763 590.179 -30.3094
377.045 592.457 -1.74268
356.299 622.02 -33.2512
341.463 615.241 -57.4147
355.663 583.234 -57.3998
370.645 589.682 -33.2367
339.409 614.33 -59.6523
317.389 604.266 -75.7664
331.372 572.753 -75.7504
353.609 582.322 -59.6374
314.715 603.08 -76.9827
288.796 591.232 -82.7239
302.52 560.304 -82.7075
328.698 571.566 -76.9667
285.9 589.948 -82.7343
259.956 578.092 -77.1227
273.421 547.749 -77.1063
299.625 559.02 -82.7179
257.277 576.904 -75.9165
235.272 566.847 -59.7751
248.517 537.002 -59.7586
270.742 546.561 -75.9001
233.218 565.937 -57.5306
218.485 559.208 -33.2696
231.582 529.696 -33.2531
246.463 536.091 -57.5141
217.372 558.716 -30.3295
212.208 556.374 -1.71128
225.254 526.977 -1.6949
230.469 529.203 -30.3131
226.67 523.691 1.4886
231.895 525.961 30.0818
244.326 496.158 30.0973
239.051 494.006 1.50438
233.018 526.432 33.0173
247.871 532.84 57.2216
260.442 502.699 57.2364
245.449 496.628 33.0328
249.943 533.705 59.4628
272.166 543.272 75.6027
284.946 512.629 75.6166
262.514 503.564 59.4777
274.871 544.4 76.8086
301.076 555.667 82.417
314.103 524.433 82.4312
287.651 513.757 76.8225
304.001 556.885 82.4062
330.183 568.133 76.6607
343.459 536.307 76.676
317.027 525.651 82.4204
332.884 569.258 75.444
355.127 578.809 59.3271
368.61 546.488 59.3421
346.159 537.432 75.4593
357.202 579.673 57.0893
372.187 586.106 32.9246
385.807 553.456 32.9373
370.685 547.352 57.1043
373.316 586.576 29.9971
378.601 588.841 1.42983
392.27 556.073 1.44285
386.936 553.926 30.0098
378.601 588.84 -1.74115
373.32 586.562 -30.3079
386.941 553.912 -30.2945
392.271 556.072 -1.72812
372.191 586.09 -33.2351
357.209 579.642 -57.3982
370.692 547.324 -57.3841
385.812 553.44 -33.2217
355.135 578.776 -59.6357
332.898 569.206 -75.7487
346.173 537.386 -75.7322
368.617 546.458 -59.6215
330.198 568.08 -76.9649
304.021 556.818 -82.7057
317.048 525.588 -82.6883
343.473 536.26 -76.9484
301.097 555.599 -82.716
274.894 544.329 -77.1044
287.675 513.69 -77.0865
314.125 524.369 -82.6986
272.188 543.201 -75.8983
249.964 533.642 -59.7568
262.536 503.505 -59.7398
284.97 512.563 -75.8804
247.889 532.777 -57.5123
233.008 526.382 -33.2513
245.439 496.581 -33.2352
260.461 502.641 -57.4953
231.884 525.915 -30.3113
226.669 523.688 -1.6931
239.05 494.004 -1.67732
244.315 496.114 -30.2951
240.392 490.686 1.5061
245.667 492.837 30.099
257.427 462.759 30.1142
252.105 460.728 1.52124
246.801 493.282 33.0345
261.793 499.353 57.2381
273.685 468.935 57.2539
258.561 463.203 33.0497
263.885 500.172 59.4794
286.316 509.237 75.6184
298.404 478.314 75.6362
275.776 469.754 59.4952
289.046 510.304 76.8244
315.498 520.98 82.4331
327.816 489.462 82.4548
301.133 479.38 76.8422
318.449 522.132 82.4227
344.88 532.788 76.6783
357.434 500.665 76.7094
330.767 490.614 82.4444
347.607 533.851 75.4614
370.058 542.907 59.3442
382.839 510.298 59.3566
360.161 501.728 75.4925
372.152 543.726 57.1058
387.273 549.83 32.9388
400.18 516.891 32.9519
384.933 511.117 57.1182
388.412 550.275 30.0113
393.747 552.423 1.44429
406.695 519.362 1.45814
401.319 517.336 30.0244
393.747 552.422 -1.72658
388.417 550.261 -30.2929
401.313 517.317 -30.2777
406.695 519.361 -1.71273
387.278 549.814 -33.2201
372.157 543.698 -57.3825
384.918 511.086 -57.3671
400.174 516.87 -33.2049
370.064 542.879 -59.6198
347.619 533.807 -75.7305
360.179 501.695 -75.7138
382.825 510.267 -59.6045
344.895 532.741 -76.9465
318.47 522.069 -82.6863
330.794 490.556 -82.6675
357.454 500.629 -76.9298
315.52 520.916 -82.6966
289.07 510.237 -77.0845
301.161 479.319 -77.0658
327.843 489.403 -82.6777
286.34 509.171 -75.8784
263.906 500.113 -59.7378
275.799 469.699 -59.7212
298.431 478.252 -75.8597
261.813 499.295 -57.4935
246.791 493.236 -33.2333
258.55 463.16 -33.2179
273.706 468.882 -57.4769
245.657 492.794 -30.2934
240.392 490.684 -1.67558
252.105 460.726 -1.66043
257.416 462.718 -30.2779
253.372 457.378 1.52285
258.694 459.409 30.1158
269.78 429.069 30.1296
264.413 427.159 1.53668
259.837 459.828 33.0513
274.961 465.56 57.2555
286.171 434.88 57.2694
270.922 429.488 33.0651
277.07 466.331 59.4969
299.698 474.891 75.6379
311.091 443.704 75.653
288.28 435.651 59.5108
302.45 475.897 76.8443
329.133 485.978 82.4568
340.742 454.197 82.4754
313.844 444.71 76.8594
332.108 487.064 82.4473
358.775 497.115 76.7123
370.597 464.753 76.7407
343.717 455.283 82.4658
361.527 498.118 75.4948
384.206 506.689 59.3589
396.249 473.828 59.3692
373.348 465.756 75.5231
386.32 507.461 57.1193
401.567 513.235 32.953
413.742 480.019 32.9663
398.363 474.601 57.1296
402.715 513.654 30.0259
408.091 515.68 1.45962
420.313 482.341 1.4742
414.89 480.438 30.0392
408.091 515.679 -1.71105
402.709 513.634 -30.276
414.884 480.416 -30.2601
420.313 482.34 -1.69647
401.559 513.213 -33.2031
386.304 507.429 -57.3654
398.355 474.546 -57.347
413.734 479.995 -33.1872
384.192 506.655 -59.6031
361.546 498.083 -75.7124
373.378 465.693 -75.712
396.243 473.772 -59.5847
358.797 497.079 -76.9285
332.136 487.005 -82.6662
343.745 455.224 -82.6563
370.628 464.689 -76.9281
329.161 485.919 -82.6761
302.478 475.836 -77.0641
313.87 444.652 -77.0513
340.769 454.138 -82.6661
299.725 474.83 -75.858
277.093 466.277 -59.7195
288.301 435.6 -59.7059
311.117 443.647 -75.8452
274.982 465.506 -57.4752
259.827 459.784 -33.2162
270.911 429.447 -33.2024
286.19 434.83 -57.4616
258.683 459.368 -30.2763
253.371 457.376 -1.65881
264.412 427.157 -1.64497
269.767 429.031 -30.2625
265.605 423.781 1.53811
270.971 425.691 30.131
281.378 395.104 30.1426
275.968 393.314 1.55055
272.123 426.084 33.0664
287.372 431.476 57.2707
297.897 400.549 57.2797
282.53 395.497 33.078
289.497 432.2 59.5119
312.309 440.253 75.6542
323.008 408.82 75.6596
300.022 401.273 59.5209
315.083 441.198 76.8606
341.981 450.685 82.4766
352.883 418.658 82.4815
325.782 409.765 76.866
344.979 451.705 82.4675
371.859 461.176 76.7423
382.965 428.559 76.7506
355.881 419.678 82.4724
374.633 462.119 75.5248
397.534 470.191 59.3708
408.821 437.061 59.3827
385.739 429.502 75.5331
399.666 470.915 57.131
415.045 476.333 32.9676
426.459 442.846 32.9808
410.953 437.786 57.1428
416.203 476.725 30.0407
421.626 478.628 1.47572
433.091 445.016 1.49082
427.618 443.238 30.0538
421.626 478.627 -1.69471
416.197 476.704 -30.2583
427.624 443.22 -30.2423
433.091 445.015 -1.6796
415.039 476.309 -33.185
399.66 470.86 -57.3448
410.965 437.742 -57.3273
426.466 442.825 -33.1689
397.529 470.133 -59.5836
374.663 462.054 -75.7109
385.757 429.442 -75.7111
408.834 437.015 -59.5661
371.89 461.111 -76.9276
345.007 451.646 -82.6558
355.901 419.619 -82.6457
382.983 428.499 -76.9278
342.008 450.626 -82.6648
315.108 441.14 -77.05
325.801 409.709 -77.0369
352.902 418.599 -82.6548
312.334 440.196 -75.8437
289.518 432.15 -59.7044
300.038 401.225 -59.6911
323.026 408.765 -75.8306
287.39 431.426 -57.4601
272.111 426.044 -33.2009
282.515 395.459 -33.1883
297.911 400.502 -57.4469
270.958 425.653 -30.2611
265.604 423.779 -1.6435
275.967 393.312 -1.63106
281.362 395.068 -30.2484
277.084 389.909 1.55181
282.494 391.699 30.1439
292.217 360.877 30.1542
286.767 359.208 1.56352
283.654 392.067 33.079
299.021 397.119 57.2807
308.857 365.959 57.2873
293.378 361.245 33.0893
301.163 397.796 59.5215
324.148 405.343 75.6603
334.146 373.68 75.6627
310.998 366.637 59.5282
326.943 406.226 76.8664
354.043 415.12 82.4819
364.23 382.862 82.4839
336.94 374.563 76.8689
357.064 416.074 82.473
384.147 424.954 76.7512
394.524 392.1 76.7564
367.25 383.816 82.4749
386.942 425.836 75.5341
410.024 433.395 59.3837
420.568 400.022 59.3948
397.318 392.981 75.5393
412.173 434.071 57.1442
427.679 439.131 32.9822
438.341 405.394 32.9964
422.717 400.698 57.1553
428.847 439.497 30.0554
434.32 441.274 1.4924
445.022 407.404 1.50815
439.508 405.759 30.0697
434.32 441.273 -1.67777
428.854 439.479 -30.2404
439.514 405.741 -30.2235
445.023 407.403 -1.66202
427.687 439.111 -33.167
412.185 434.028 -57.3254
422.728 400.66 -57.3091
438.347 405.373 -33.1501
410.037 433.351 -59.5646
386.96 425.777 -75.7097
397.332 392.929 -75.6905
420.58 399.982 -59.5483
384.165 424.895 -76.9264
357.083 416.015 -82.6443
367.265 383.76 -82.622
394.538 392.046 -76.9072
354.062 415.061 -82.6529
326.961 406.171 -77.0351
336.954 374.51 -77.0141
364.244 382.806 -82.6306
324.166 405.288 -75.8288
301.178 397.748 -59.6893
311.009 366.591 -59.6733
334.16 373.627 -75.8078
299.035 397.072 -57.4453
283.639 392.029 -33.1867
293.36 361.209 -33.174
308.866 365.915 -57.4292
282.478 391.663 -30.247
277.083 389.908 -1.62966
286.766 359.206 -1.61795
292.199 360.844 -30.2342
287.807 355.778 1.56469
293.257 357.447 30.1554
302.293 326.404 30.165
296.805 324.853 1.57584
294.426 357.79 33.0902
309.905 362.504 57.2881
319.045 331.125 57.2932
303.462 326.746 33.0998
312.061 363.134 59.5285
335.209 370.177 75.663
344.5 338.298 75.6625
321.201 331.756 59.5336
338.022 371 76.8689
365.311 379.299 82.4839
374.777 346.828 82.4817
347.313 339.121 76.8684
368.352 380.187 82.4751
395.625 388.47 76.7566
405.267 355.4 76.7585
377.818 347.716 82.4729
398.44 389.29 75.54
421.689 396.331 59.3955
431.488 362.735 59.4037
408.081 356.219 75.5418
423.854 396.957 57.1565
439.477 401.653 32.9976
449.388 367.681 33.0093
433.652 363.361 57.1646
440.653 401.99 30.0712
446.168 403.635 1.50962
456.118 369.526 1.52299
450.564 368.018 30.0829
446.168 403.634 -1.66026
440.659 401.972 -30.2217
450.569 368.001 -30.207
456.118 369.525 -1.6469
439.483 401.633 -33.1482
423.864 396.919 -57.3072
433.661 363.327 -57.2895
449.393 367.662 -33.1334
421.7 396.291 -59.5462
398.453 389.238 -75.6884
408.092 356.173 -75.6654
431.497 362.699 -59.5285
395.639 388.418 -76.9047
368.367 380.131 -82.6194
377.829 347.665 -82.5938
405.278 355.352 -76.8817
365.326 379.243 -82.628
338.036 370.947 -77.0115
347.324 339.072 -76.9882
374.788 346.777 -82.6023
335.222 370.125 -75.8056
312.072 363.089 -59.6711
321.21 331.714 -59.654
344.511 338.25 -75.7823
309.914 362.459 -57.4276
294.408 357.754 -33.1723
303.443 326.713 -33.1597
319.052 331.084 -57.4105
293.239 357.414 -30.2329
287.806 355.776 -1.61659
296.804 324.852 -1.60544
302.273 326.373 -30.2203
297.768 321.399 1.5769
303.257 322.949 30.1661
311.602 291.695 30.1746
306.078 290.263 1.58709
304.434 323.267 33.1004
320.016 327.646 57.2938
328.458 296.061 57.2966
312.779 292.013 33.1089
322.186 328.23 59.5336
345.485 334.772 75.6625
354.065 302.693 75.6576
330.628 296.645 59.5363
348.315 335.534 76.8679
375.779 343.242 82.4812
384.518 310.577 82.473
356.896 303.455 76.863
378.838 344.064 82.4726
406.288 351.748 76.7581
415.19 318.483 76.7551
387.578 311.399 82.4643
409.12 352.504 75.5421
432.527 359.02 59.4039
441.577 325.222 59.4084
418.022 319.24 75.5391
434.706 359.595 57.1654
450.441 363.916 33.0101
459.599 329.725 33.0193
443.756 325.797 57.1698
451.625 364.224 30.0841
457.18 365.731 1.52417
466.378 331.395 1.53579
460.783 330.033 30.0932
457.18 365.73 -1.64532
451.63 364.206 -30.2054
460.788 330.017 -30.1916
466.378 331.394 -1.6337
450.446 363.897 -33.1315
434.714 359.562 -57.2876
443.763 325.767 -57.2692
459.604 329.707 -33.1176
432.536 358.985 -59.5261
409.131 352.458 -75.663
418.032 319.199 -75.6376
441.585 325.19 -59.5077
406.299 351.701 -76.8788
378.85 344.013 -82.5909
387.588 311.353 -82.5614
415.2 318.441 -76.8535
375.79 343.191 -82.5994
348.326 335.486 -76.9853
356.905 303.412 -76.9596
384.528 310.531 -82.5699
345.496 334.724 -75.7799
322.195 328.189 -59.6516
330.635 296.608 -59.6341
354.075 302.65 -75.7542
320.023 327.605 -57.4088
304.414 323.234 -33.158
312.757 291.983 -33.1462
328.464 296.024 -57.3912
303.237 322.919 -30.219
297.767 321.398 -1.60414
306.077 290.261 -1.59395
311.581 291.668 -30.2072
306.965 286.785 1.58801
312.489 288.218 30.1755
320.139 256.762 30.1822
314.582 255.445 1.59694
313.672 288.511 33.1093
329.352 292.558 57.297
337.093 260.779 57.2964
321.323 257.055 33.116
331.534 293.098 59.5359
354.971 299.146 75.6571
362.839 266.883 75.6463
339.275 261.318 59.5352
357.818 299.848 76.8618
385.441 306.97 82.4718
393.453 274.132 82.4563
365.686 267.586 76.851
388.517 307.726 82.4633
416.129 314.811 76.7541
424.289 281.378 76.7444
396.529 274.888 82.4478
418.978 315.505 75.5388
442.533 321.487 59.4081
450.83 287.507 59.4073
427.138 282.072 75.529
444.726 322.01 57.1702
460.569 325.937 33.0196
468.972 291.539 33.0268
453.023 288.03 57.1694
461.761 326.214 30.0942
467.356 327.577 1.53673
475.799 293.024 1.54684
470.165 291.817 30.1014
467.356 327.576 -1.63223
461.766 326.198 -30.1901
470.169 291.802 -30.1773
475.799 293.023 -1.62212
460.574 325.919 -33.1156
444.733 321.979 -57.2671
453.03 288.003 -57.2465
468.977 291.523 -33.1028
442.54 321.455 -59.5051
418.987 315.464 -75.635
427.146 282.036 -75.6058
450.837 287.479 -59.4845
416.139 314.77 -76.8502
388.527 307.681 -82.5581
396.539 274.849 -82.5239
424.297 281.342 -76.8211
385.45 306.925 -82.5666
357.827 299.806 -76.9563
365.694 267.548 -76.9272
393.462 274.092 -82.5323
354.981 299.103 -75.7516
331.541 293.061 -59.6315
339.281 261.287 -59.6129
362.848 266.846 -75.7225
329.358 292.522 -57.3895
313.651 288.482 -33.1444
321.301 257.03 -33.1333
337.098 260.748 -57.3709
312.467 288.191 -30.206
306.964 286.784 -1.59274
314.581 255.444 -1.58381
320.117 256.739 -30.1949
315.391 251.946 1.59766
320.949 253.263 30.1829
327.901 221.614 30.1873
322.312 220.409 1.6052
322.139 253.532 33.116
337.909 257.256 57.2963
344.947 225.294 57.2901
329.091 221.883 33.1204
340.103 257.751 59.534
363.667 263.316 75.645
370.822 230.887 75.623
347.14 225.789 59.5277
366.528 263.96 76.8488
394.295 270.506 82.454
401.579 237.519 82.4233
373.682 231.531 76.8267
397.387 271.198 82.4455
425.146 277.688 76.7421
432.565 244.117 76.7153
404.671 238.211 82.4148
428.01 278.319 75.5278
451.703 283.754 59.4061
459.232 249.613 59.4014
435.429 244.747 75.5009
453.908 284.222 57.1692
469.857 287.731 33.0266
477.491 253.135 33.0313
461.437 250.08 57.1645
471.058 287.975 30.1021
476.692 289.182 1.54754
484.365 254.418 1.55624
478.691 253.38 30.1068
476.693 289.181 -1.62074
471.062 287.96 -30.1759
478.696 253.366 -30.1634
484.365 254.417 -1.61204
469.862 287.714 -33.1005
453.915 284.195 -57.2443
461.444 250.057 -57.2227
477.496 253.12 -33.088
451.71 283.727 -59.4812
428.019 278.283 -75.6025
435.437 244.716 -75.5591
459.238 249.589 -59.4596
425.155 277.652 -76.8168
397.396 271.16 -82.5197
404.68 238.178 -82.473
432.573 244.085 -76.7734
394.304 270.467 -82.5282
366.536 263.923 -76.923
373.691 231.5 -76.8854
401.588 237.485 -82.4815
363.676 263.279 -75.7194
340.109 257.72 -59.6097
347.146 225.763 -59.5882
370.83 230.856 -75.6817
337.914 257.225 -57.369
322.117 253.507 -33.1315
329.069 221.863 -33.1207
344.951 225.269 -57.3475
320.926 253.24 -30.1937
315.39 251.945 -1.58269
322.311 220.408 -1.57515
327.878 221.595 -30.183
323.044 216.888 1.60569
328.633 218.093 30.1878
334.888 186.257 30.1898
329.269 185.161 1.61179
329.83 218.339 33.1199
345.685 221.75 57.2896
352.017 189.614 57.2789
336.084 186.502 33.1219
347.889 222.202 59.5256
371.57 227.3 75.6209
378.007 194.722 75.5909
354.221 190.066 59.5149
374.444 227.889 76.8232
402.341 233.877 82.4198
408.892 200.766 82.3784
380.881 195.311 76.7932
405.447 234.506 82.4111
433.341 240.412 76.7115
440.014 206.713 76.6752
411.998 201.395 82.3697
436.217 240.977 75.4985
460.02 245.843 59.399
466.792 211.549 59.3864
442.891 207.278 75.4622
462.238 246.252 57.1639
478.291 249.307 33.0307
485.165 214.527 33.0322
469.009 211.958 57.1513
479.499 249.516 30.1072
485.173 250.554 1.55669
492.084 215.59 1.56397
486.373 214.735 30.1088
485.173 250.553 -1.61072
479.504 249.502 -30.162
486.378 214.723 -30.1493
492.084 215.59 -1.60344
478.296 249.293 -33.0856
462.244 246.229 -57.2203
469.017 211.938 -57.1938
485.17 214.514 -33.0729
460.027 245.819 -59.4555
436.226 240.947 -75.555
442.901 207.252 -75.5052
466.8 211.528 -59.429
433.349 240.381 -76.768
405.456 234.474 -82.4676
412.008 201.368 -82.4131
440.024 206.686 -76.7182
402.35 233.844 -82.4764
374.452 227.859 -76.8803
380.89 195.287 -76.8374
408.901 200.738 -82.4219
371.578 227.27 -75.6781
347.895 222.177 -59.5845
354.228 190.048 -59.5612
378.016 194.698 -75.6352
345.689 221.725 -57.3455
329.807 218.319 -33.1187
336.062 186.489 -33.1083
352.022 189.596 -57.3221
328.61 218.075 -30.1819
323.043 216.888 -1.57412
329.268 185.16 -1.56802
334.865 186.244 -30.1716
329.925 181.619 1.61202
335.543 182.715 30.1901
341.112 150.697 30.1879
335.471 149.706 1.61675
336.745 182.939 33.121
352.678 186.05 57.278
358.31 153.749 57.263
342.314 150.921 33.1188
354.891 186.463 59.5121
378.677 191.118 75.5881
384.394 158.405 75.5546
360.523 154.162 59.4972
381.561 191.655 76.7889
409.572 197.11 82.3741
415.382 163.905 82.3275
387.279 158.942 76.7553
412.691 197.679 82.3652
440.707 202.996 76.6708
446.618 169.228 76.6331
418.501 164.474 82.3186
443.597 203.495 75.4587
467.498 207.766 59.3828
473.513 173.35 59.3558
449.508 169.727 75.421
469.726 208.112 57.1496
485.881 210.681 33.0305
491.993 175.722 33.0265
475.741 173.697 57.1225
487.096 210.85 30.1089
492.808 211.705 1.56406
498.955 176.547 1.5697
493.208 175.892 30.1049
492.808 211.705 -1.60211
487.101 210.838 -30.148
493.215 175.882 -30.133
498.956 176.546 -1.59647
485.887 210.668 -33.0698
469.733 208.092 -57.1907
475.75 173.681 -57.1532
492 175.712 -33.0549
467.505 207.745 -59.4241
443.606 203.47 -75.5004
449.52 169.706 -75.4525
473.522 173.334 -59.3866
440.717 202.97 -76.7125
412.701 197.652 -82.4073
418.513 164.452 -82.3506
446.63 169.207 -76.6646
409.582 197.083 -82.4163
381.57 191.631 -76.8318
387.29 158.925 -76.7879
415.394 163.883 -82.3595
378.686 191.095 -75.6312
354.898 186.446 -59.5571
360.531 154.153 -59.5317
384.405 158.389 -75.5873
352.683 186.034 -57.3199
336.722 182.926 -33.1061
342.292 150.915 -33.094
358.316 153.74 -57.2945
335.521 182.703 -30.1705
329.924 181.619 -1.56701
335.47 149.706 -1.56228
341.091 150.693 -30.1585
336.054 146.145 1.61617
341.696 147.136 30.1873
346.648 114.952 30.1627
341 114.063 1.61974
342.9 147.339 33.1161
358.897 150.167 57.2603
363.873 117.717 57.2127
347.853 115.154 33.0915
361.115 150.543 59.4924
384.987 154.787 75.5498
390.001 121.961 75.4842
366.092 118.092 59.4448
387.878 155.276 76.749
415.981 160.238 82.3211
421.038 126.975 82.243
392.892 122.451 76.6833
419.108 160.752 82.3123
447.225 165.506 76.6267
452.332 131.733 76.5549
424.164 127.488 82.2342
450.127 165.936 75.4149
474.131 169.559 59.3497
479.327 135.031 59.2932
455.233 132.163 75.343
476.368 169.835 57.1188
492.621 171.86 33.0228
497.879 136.715 33.0016
481.564 135.306 57.0623
493.841 171.985 30.1042
499.588 172.64 1.56904
504.863 137.274 1.57226
499.099 136.84 30.083
499.589 172.64 -1.59483
493.848 171.976 -30.1314
499.108 136.834 -30.1038
504.863 137.274 -1.59161
492.628 171.85 -33.0502
476.378 169.819 -57.1485
481.578 135.294 -57.0856
497.888 136.708 -33.0226
474.141 169.543 -59.3796
450.139 165.915 -75.4454
455.249 132.146 -75.3659
479.341 135.018 -59.3166
447.237 165.485 -76.6573
419.12 160.73 -82.3432
424.181 127.471 -82.2569
452.348 131.715 -76.5777
415.993 160.217 -82.3521
387.889 155.259 -76.7805
392.907 122.44 -76.7061
421.054 126.958 -82.2658
384.998 154.771 -75.5814
361.124 150.534 -59.5259
366.105 118.094 -59.4687
390.016 121.952 -75.5071
358.903 150.16 -57.2907
342.879 147.334 -33.0902
347.835 115.16 -33.0573
363.884 117.719 -57.2336
341.674 147.132 -30.1569
336.053 146.145 -1.5607
340.999 114.063 -1.55714
346.63 114.958 -30.1239
341.538 110.491 1.61407
347.187 111.379 30.157
351.91 79.1165 29.9758
346.305 78.3298 1.61557
348.388 111.561 33.0754
364.408 114.124 57.1966
369.021 81.6035 56.8799
353.111 79.2985 32.8941
366.621 114.465 59.4219
390.529 118.334 75.4613
394.992 85.4596 75.0792
371.234 81.9443 59.1053
393.414 118.78 76.6578
421.559 123.304 82.2175
425.855 90.0353 81.8303
397.876 85.9056 76.2757
424.679 123.769 82.2094
452.846 128.014 76.53
456.961 94.3252 76.1614
428.974 90.5 81.8221
455.748 128.37 75.322
479.842 131.237 59.2722
483.887 96.5541 59.0652
459.863 94.6812 74.9534
482.076 131.426 57.0501
498.39 132.835 32.9894
502.306 97.4448 32.86
486.121 96.7428 56.8431
499.608 132.91 30.0785
505.371 133.345 1.56775
509.228 97.7106 1.55891
503.524 97.5201 29.9492
505.372 133.344 -1.58744
499.617 132.904 -30.0996
503.529 97.517 -29.9783
509.228 97.7104 -1.59628
498.401 132.828 -33.0099
482.09 131.415 -57.0729
486.145 96.7354 -56.8504
502.313 97.4415 -32.8886
479.857 131.225 -59.2944
455.764 128.353 -75.3437
459.888 94.6661 -74.961
483.912 96.5458 -59.072
452.862 127.996 -76.5518
424.696 123.752 -82.2309
428.999 90.4878 -81.8327
456.987 94.3098 -76.1691
421.576 123.288 -82.2393
393.43 118.771 -76.6796
397.899 85.9025 -76.2887
425.88 90.0236 -81.841
390.545 118.326 -75.4832
366.634 114.468 -59.4448
371.256 81.9592 -59.117
395.015 85.4578 -75.0922
364.42 114.128 -57.2165
348.371 111.569 -33.0402
353.102 79.3201 -32.8526
369.041 81.6195 -56.8887
347.169 111.387 -30.1176
341.538 110.492 -1.55075
346.304 78.3306 -1.54924
351.9 79.1375 -29.9299
346.968 74.8009 1.57448
352.573 75.5876 29.9347
359.709 43.9566 28.6534
354.367 43.2358 1.57264
353.741 75.7525 32.7791
369.652 78.0575 56.7649
376.038 46.2381 54.4242
360.877 44.1215 31.4977
371.806 78.3671 58.938
395.563 81.8824 74.9118
400.849 49.7476 71.9138
378.192 46.5478 56.5973
398.374 82.2877 76.0847
426.352 86.4173 81.6392
430.38 53.8855 78.4769
403.659 50.1528 73.0867
429.393 86.8381 81.6357
457.38 90.6632 75.9751
460.172 57.7642 73.1052
433.421 54.3062 78.4734
460.195 90.9782 74.8064
484.218 92.8512 58.9182
485.778 60.2738 56.6567
462.986 58.0792 71.9366
486.394 93.0123 56.7477
502.58 93.7143 32.7646
503.2 61.471 31.4712
487.954 60.435 54.4863
503.763 93.7763 29.9141
509.467 93.9668 1.5238
509.728 61.8258 1.51278
504.383 61.5329 28.6207
509.467 93.966 -1.56315
503.768 93.7725 -29.9452
504.378 61.5022 -28.6616
509.728 61.8251 -1.57417
502.586 93.7099 -32.7927
486.418 93.0039 -56.7546
487.981 60.4057 -54.4771
503.196 61.4396 -31.5091
484.244 92.8425 -58.9232
460.221 90.9628 -74.8123
463.016 58.0652 -71.9309
485.806 60.2443 -56.6457
457.406 90.6482 -75.9815
429.419 86.8262 -81.6451
433.45 54.2992 -78.4748
460.202 57.7507 -73.1002
426.378 86.4063 -81.6491
398.398 82.2852 -76.0967
403.686 50.1575 -73.0943
430.41 53.8792 -78.4787
395.587 81.8817 -74.9243
371.828 78.3832 -58.9491
378.212 46.5803 -56.6092
400.875 49.754 -71.9218
369.671 78.0749 -56.7733
353.733 75.7755 -32.7371
360.864 44.1593 -31.4598
376.056 46.2721 -54.4335
352.564 75.6094 -29.8887
346.967 74.8024 -1.50806
354.366 43.2373 -1.5099
359.695 43.9932 -28.6113
355.224 39.766 1.48923
360.566 40.4868 28.57
368.598 9.47328 26.8464
363.585 8.82268 1.4822
361.671 40.6372 31.2617
376.832 42.7538 54.1882
383.926 11.5432 51.0058
369.703 9.62359 29.5382
378.87 43.035 56.2458
401.526 46.2348 71.5624
407.217 14.6994 67.3835
385.964 11.8245 53.0634
404.186 46.6007 72.6745
430.907 50.3333 78.0647
434.919 18.4115 73.5057
409.876 15.0652 68.4956
433.783 50.7139 78.0635
460.534 54.1718 72.6953
462.83 21.9476 68.4511
437.796 18.7921 73.5045
463.194 54.4801 71.5852
485.986 56.6747 56.3054
486.755 24.5451 53.0192
465.49 22.2558 67.341
488.029 56.8633 54.247
503.275 57.8993 31.2319
502.995 25.979 29.4519
488.798 24.7337 50.9608
504.382 57.981 28.5353
509.727 58.2739 1.42742
509.064 26.4216 1.43659
504.102 26.0607 26.7552
509.726 58.2715 -1.48877
504.376 57.9487 -28.5762
504.094 26.0042 -26.7817
509.064 26.4192 -1.4796
503.271 57.8648 -31.2691
488.055 56.8309 -54.2371
488.816 24.6827 -50.95
502.989 25.9203 -29.4747
486.014 56.6442 -56.2936
463.224 54.4651 -71.5788
465.512 22.2414 -67.3365
486.774 24.496 -53.0065
460.564 54.1586 -72.6897
433.813 50.7072 -78.0643
437.818 18.7876 -73.5047
462.852 21.935 -68.4474
430.936 50.3276 -78.0661
404.212 46.6058 -72.6816
409.895 15.0732 -68.5005
434.941 18.408 -73.5065
401.552 46.2423 -71.5702
378.889 43.0686 -56.2576
385.973 11.8705 -53.0745
407.235 14.7097 -67.389
376.849 42.7895 -54.1979
361.657 40.6768 -31.2242
369.685 9.67745 -29.5114
383.933 11.5915 -51.0148
360.551 40.5243 -28.5288
355.223 39.7684 -1.4274
363.584 8.82506 -1.43444
368.579 9.52493 -26.816
364.635 5.60245 1.35265
369.648 6.25304 26.7169
380.239 -21.0391 23.7829
375.817 -21.6607 1.33113
370.657 6.39019 29.1741
384.88 8.30983 50.6418
393.847 -19.1428 45.2705
381.248 -20.902 26.2401
386.744 8.56232 52.5203
407.996 11.4372 66.8404
414.594 -16.3601 59.8197
395.711 -18.8903 47.149
410.429 11.7627 67.8527
435.472 15.109 72.8628
439.263 -13.0841 65.2239
417.026 -16.0346 60.832
438.099 15.4533 72.8582
463.133 18.6088 67.8049
464.074 -9.80802 60.6947
441.889 -12.7398 65.2194
465.557 18.9106 66.7894
486.823 21.1999 52.4676
485.261 -7.03091 46.9592
466.498 -9.50617 59.6793
488.681 21.414 50.5925
502.877 22.6593 29.0836
499.633 -5.16735 26.1191
487.119 -6.8168 45.0841
503.884 22.7663 26.6283
508.847 23.1272 1.30961
505.03 -4.48193 1.32904
500.64 -5.06034 23.6638
508.847 23.1255 -1.34906
503.877 22.7105 -26.6512
500.64 -5.06223 -23.6644
505.03 -4.48365 -1.32963
502.87 22.6018 -29.1057
488.697 21.3642 -50.581
487.119 -6.82061 -45.0841
499.633 -5.17096 -26.1189
486.84 21.1518 -52.4557
465.577 18.8972 -66.7857
466.498 -9.50831 -59.679
485.261 -7.03299 -46.9588
463.153 18.5966 -67.8013
438.119 15.4492 -72.8586
441.89 -12.7407 -65.2191
464.075 -9.80892 -60.6945
435.492 15.1055 -72.8633
410.446 11.7707 -67.8573
417.027 -16.0348 -60.832
439.263 -13.0845 -65.2238
408.014 11.4465 -66.845
386.751 8.60737 -52.5305
395.711 -18.889 -47.1491
414.594 -16.3589 -59.8197
384.887 8.35668 -50.6514
370.638 6.44266 -29.148
381.247 -20.8988 -26.2397
393.846 -19.1397 -45.27
369.63 6.30392 -26.6899
364.635 5.60405 -1.30826
375.816 -21.6591 -1.32979
380.239 -21.0375 -23.7815
-68.4923 1014.94 25.2528
-72.4374 1011.66 -0.51763
-68.4135 1014.85 -26.2852
-57.0647 1024.02 -48.1157
-40.0851 1037.75 -62.6698
-20.0984 1053.93 -67.7386
-0.250044 1070.24 -62.6144
16.4085 1084.36 -48.1044
27.4435 1094.06 -26.3326
31.3111 1097.5 -0.557009
27.4409 1094.07 25.2186
16.3943 1084.4 46.9959
-0.283921 1070.33 61.5212
-20.1448 1054.03 66.6606
-40.1385 1037.85 61.6068
-57.1484 1024.14 47.0765
382.635 -22.3855 1.31945e-05
387.058 -21.764 22.4517
399.656 -20.0048 41.4821
418.539 -17.4746 54.1528
440.776 -14.5241 58.5446
462.96 -11.5923 54.02
481.723 -9.11705 41.3
494.237 -7.4676 22.335
498.627 -6.88918 0.000239176
494.237 -7.46776 -22.3346
481.723 -9.11742 -41.2997
462.96 -11.5927 -54.0199
440.776 -14.5245 -58.5445
418.539 -17.4748 -54.1527
399.656 -20.0049 -41.4821
387.058 -21.764 -22.4517
</DataArray>
</Points>
<Cells>
<DataArray type="Int32" Name="connectivity" format="ascii">
0 1 2 3 
4 5 6 7 
8 9 10 11 
12 13 14 15 
16 17 18 19 
20 21 22 23 
24 25 26 27 
28 29 30 31 
32 33 34 35 
36 37 38 39 
40 41 42 43 
44 45 46 47 
48 49 50 51 
52 53 54 55 
56 57 58 59 
60 61 62 63 
64 65 66 67 
68 69 70 71 
72 73 74 75 
76 77 78 79 
80 81 82 83 
84 85 86 87 
88 89 90 91 
92 93 94 95 
96 97 98 99 
100 101 102 103 
104 105 106 107 
108 109 110 111 
112 113 114 115 
116 117 118 119 
120 121 122 123 
124 125 126 127 
128 129 130 131 
132 133 134 135 
136 137 138 139 
140 141 142 143 
144 145 146 147 
148 149 150 151 
152 153 154 155 
156 157 158 159 
160 161 162 163 
164 165 166 167 
168 169 170 171 
172 173 174 175 
176 177 178 179 
180 181 182 183 
184 185 186 187 
188 189 190 191 
192 193 194 195 
196 197 198 199 
200 201 202 203 
204 205 206 207 
208 209 210 211 
212 213 214 215 
216 217 218 219 
220 221 222 223 
224 225 226 227 
228 229 230 231 
232 233 234 235 
236 237 238 239 
240 241 242 243 
244 245 246 247 
248 249 250 251 
252 253 254 255 
256 257 258 259 
260 261 262 263 
264 265 266 267 
268 269 270 271 
272 273 274 275 
276 277 278 279 
280 281 282 283 
284 285 286 287 
288 289 290 291 
292 293 294 295 
296 297 298 299 
300 301 302 303 
304 305 306 307 
308 309 310 311 
312 313 314 315 
316 317 318 319 
320 321 322 323 
324 325 326 327 
328 329 330 331 
332 333 334 335 
336 337 338 339 
340 341 342 343 
344 345 346 347 
348 349 350 351 
352 353 354 355 
356 357 358 359 
360 361 362 363 
364 365 366 367 
368 369 370 371 
372 373 374 375 
376 377 378 379 
380 381 382 383 
384 385 386 387 
388 389 390 391 
392 393 394 395 
396 397 398 399 
400 401 402 403 
404 405 406 407 
408 409 410 411 
412 413 414 415 
416 417 418 419 
420 421 422 423 
424 425 426 427 
428 429 430 431 
432 433 434 435 
436 437 438 439 
440 441 442 443 
444 445 446 447 
448 449 450 451 
452 453 454 455 
456 457 458 459 
460 461 462 463 
464 465 466 467 
468 469 470 471 
472 473 474 475 
476 477 478 479 
480 481 482 483 
484 485 486 487 
488 489 490 491 
492 493 494 495 
496 497 498 499 
500 501 502 503 
504 505 506 507 
508 509 510 511 
512 513 514 515 
516 517 518 519 
520 521 522 523 
524 525 526 527 
528 529 530 531 
532 533 534 535 
536 537 538 539 
540 541 542 543 
544 545 546 547 
548 549 550 551 
552 553 554 555 
556 557 558 559 
560 561 562 563 
564 565 566 567 
568 569 570 571 
572 573 574 575 
576 577 578 579 
580 581 582 583 
584 585 586 587 
588 589 590 591 
592 593 594 595 
596 597 598 599 
600 601 602 603 
604 605 606 607 
608 609 610 611 
612 613 614 615 
616 617 618 619 
620 621 622 623 
624 625 626 627 
628 629 630 631 
632 633 634 635 
636 637 638 639 
640 641 642 643 
644 645 646 647 
648 649 650 651 
652 653 654 655 
656 657 658 659 
660 661 662 663 
664 665 666 667 
668 669 670 671 
672 673 674 675 
676 677 678 679 
680 681 682 683 
684 685 686 687 
688 689 690 691 
692 693 694 695 
696 697 698 699 
700 701 702 703 
704 705 706 707 
708 709 710 711 
712 713 714 715 
716 717 718 719 
720 721 722 723 
724 725 726 727 
728 729 730 731 
732 733 734 735 
736 737 738 739 
740 741 742 743 
744 745 746 747 
748 749 750 751 
752 753 754 755 
756 757 758 759 
760 761 762 763 
764 765 766 767 
768 769 770 771 
772 773 774 775 
776 777 778 779 
780 781 782 783 
784 785 786 787 
788 789 790 791 
792 793 794 795 
796 797 798 799 
800 801 802 803 
804 805 806 807 
808 809 810 811 
812 813 814 815 
816 817 818 819 
820 821 822 823 
824 825 826 827 
828 829 830 831 
832 833 834 835 
836 837 838 839 
840 841 842 843 
844 845 846 847 
848 849 850 851 
852 853 854 855 
856 857 858 859 
860 861 862 863 
864 865 866 867 
868 869 870 871 
872 873 874 875 
876 877 878 879 
880 881 882 883 
884 885 886 887 
888 889 890 891 
892 893 894 895 
896 897 898 899 
900 901 902 903 
904 905 906 907 
908 909 910 911 
912 913 914 915 
916 917 918 919 
920 921 922 923 
924 925 926 927 
928 929 930 931 
932 933 934 935 
936 937 938 939 
940 941 942 943 
944 945 946 947 
948 949 950 951 
952 953 954 955 
956 957 958 959 
960 961 962 963 
964 965 966 967 
968 969 970 971 
972 973 974 975 
976 977 978 979 
980 981 982 983 
984 985 986 987 
988 989 990 991 
992 993 994 995 
996 997 998 999 
1000 1001 1002 1003 
1004 1005 1006 1007 
1008 1009 1010 1011 
1012 1013 1014 1015 
1016 1017 1018 1019 
1020 1021 1022 1023 
1024 1025 1026 1027 
1028 1029 1030 1031 
1032 1033 1034 1035 
1036 1037 1038 1039 
1040 1041 1042 1043 
1044 1045 1046 1047 
1048 1049 1050 1051 
1052 1053 1054 1055 
1056 1057 1058 1059 
1060 1061 1062 1063 
1064 1065 1066 1067 
1068 1069 1070 1071 
1072 1073 1074 1075 
1076 1077 1078 1079 
1080 1081 1082 1083 
1084 1085 1086 1087 
1088 1089 1090 1091 
1092 1093 1094 1095 
1096 1097 1098 1099 
1100 1101 1102 1103 
1104 1105 1106 1107 
1108 1109 1110 1111 
1112 1113 1114 1115 
1116 1117 1118 1119 
1120 1121 1122 1123 
1124 1125 1126 1127 
1128 1129 1130 1131 
1132 1133 1134 1135 
1136 1137 1138 1139 
1140 1141 1142 1143 
1144 1145 1146 1147 
1148 1149 1150 1151 
1152 1153 1154 1155 
1156 1157 1158 1159 
1160 1161 1162 1163 
1164 1165 1166 1167 
1168 1169 1170 1171 
1172 1173 1174 1175 
1176 1177 1178 1179 
1180 1181 1182 1183 
1184 1185 1186 1187 
1188 1189 1190 1191 
1192 1193 1194 1195 
1196 1197 1198 1199 
1200 1201 1202 1203 
1204 1205 1206 1207 
1208 1209 1210 1211 
1212 1213 1214 1215 
1216 1217 1218 1219 
1220 1221 1222 1223 
1224 1225 1226 1227 
1228 1229 1230 1231 
1232 1233 1234 1235 
1236 1237 1238 1239 
1240 1241 1242 1243 
1244 1245 1246 1247 
1248 1249 1250 1251 
1252 1253 1254 1255 
1256 1257 1258 1259 
1260 1261 1262 1263 
1264 1265 1266 1267 
1268 1269 1270 1271 
1272 1273 1274 1275 
1276 1277 1278 1279 
1280 1281 1282 1283 
1284 1285 1286 1287 
1288 1289 1290 1291 
1292 1293 1294 1295 
1296 1297 1298 1299 
1300 1301 1302 1303 
1304 1305 1306 1307 
1308 1309 1310 1311 
1312 1313 1314 1315 
1316 1317 1318 1319 
1320 1321 1322 1323 
1324 1325 1326 1327 
1328 1329 1330 1331 
1332 1333 1334 1335 
1336 1337 1338 1339 
1340 1341 1342 1343 
1344 1345 1346 1347 
1348 1349 1350 1351 
1352 1353 1354 1355 
1356 1357 1358 1359 
1360 1361 1362 1363 
1364 1365 1366 1367 
1368 1369 1370 1371 
1372 1373 1374 1375 
1376 1377 1378 1379 
1380 1381 1382 1383 
1384 1385 1386 1387 
1388 1389 1390 1391 
1392 1393 1394 1395 
1396 1397 1398 1399 
1400 1401 1402 1403 
1404 1405 1406 1407 
1408 1409 1410 1411 
1412 1413 1414 1415 
1416 1417 1418 1419 
1420 1421 1422 1423 
1424 1425 1426 1427 
1428 1429 1430 1431 
1432 1433 1434 1435 
1436 1437 1438 1439 
1440 1441 1442 1443 
1444 1445 1446 1447 
1448 1449 1450 1451 
1452 1453 1454 1455 
1456 1457 1458 1459 
1460 1461 1462 1463 
1464 1465 1466 1467 
1468 1469 1470 1471 
1472 1473 1474 1475 
1476 1477 1478 1479 
1480 1481 1482 1483 
1484 1485 1486 1487 
1488 1489 1490 1491 
1492 1493 1494 1495 
1496 1497 1498 1499 
1500 1501 1502 1503 
1504 1505 1506 1507 
1508 1509 1510 1511 
1512 1513 1514 1515 
1516 1517 1518 1519 
1520 1521 1522 1523 
1524 1525 1526 1527 
1528 1529 1530 1531 
1532 1533 1534 1535 
1536 1537 1538 1539 
1540 1541 1542 1543 
1544 1545 1546 1547 
1548 1549 1550 1551 
1552 1553 1554 1555 
1556 1557 1558 1559 
1560 1561 1562 1563 
1564 1565 1566 1567 
1568 1569 1570 1571 
1572 1573 1574 1575 
1576 1577 1578 1579 
1580 1581 1582 1583 
1584 1585 1586 1587 
1588 1589 1590 1591 
1592 1593 1594 1595 
1596 1597 1598 1599 
1600 1601 1602 1603 
1604 1605 1606 1607 
1608 1609 1610 1611 
1612 1613 1614 1615 
1616 1617 1618 1619 
1620 1621 1622 1623 
1624 1625 1626 1627 
1628 1629 1630 1631 
1632 1633 1634 1635 
1636 1637 1638 1639 
1640 1641 1642 1643 
1644 1645 1646 1647 
1648 1649 1650 1651 
1652 1653 1654 1655 
1656 1657 1658 1659 
1660 1661 1662 1663 
1664 1665 1666 1667 
1668 1669 1670 1671 
1672 1673 1674 1675 
1676 1677 1678 1679 
1680 1681 1682 1683 
1684 1685 1686 1687 
1688 1689 1690 1691 
1692 1693 1694 1695 
1696 1697 1698 1699 
1700 1701 1702 1703 
1704 1705 1706 1707 
1708 1709 1710 1711 
1712 1713 1714 1715 
1716 1717 1718 1719 
1720 1721 1722 1723 
1724 1725 1726 1727 
1728 1729 1730 1731 
1732 1733 1734 1735 
1736 1737 1738 1739 
1740 1741 1742 1743 
1744 1745 1746 1747 
1748 1749 1750 1751 
1752 1753 1754 1755 
1756 1757 1758 1759 
1760 1761 1762 1763 
1764 1765 1766 1767 
1768 1769 1770 1771 
1772 1773 1774 1775 
1776 1777 1778 1779 
1780 1781 1782 1783 
1784 1785 1786 1787 
1788 1789 1790 1791 
1792 1793 1794 1795 
1796 1797 1798 1799 
1800 1801 1802 1803 
1804 1805 1806 1807 
1808 1809 1810 1811 
1812 1813 1814 1815 
1816 1817 1818 1819 
1820 1821 1822 1823 
1824 1825 1826 1827 
1828 1829 1830 1831 
1832 1833 1834 1835 
1836 1837 1838 1839 
1840 1841 1842 1843 
1844 1845 1846 1847 
1848 1849 1850 1851 
1852 1853 1854 1855 
1856 1857 1858 1859 
1860 1861 1862 1863 
1864 1865 1866 1867 
1868 1869 1870 1871 
1872 1873 1874 1875 
1876 1877 1878 1879 
1880 1881 1882 1883 
1884 1885 1886 1887 
1888 1889 1890 1891 
1892 1893 1894 1895 
1896 1897 1898 1899 
1900 1901 1902 1903 
1904 1905 1906 1907 
1908 1909 1910 1911 
1912 1913 1914 1915 
1916 1917 1918 1919 
1920 1921 1922 1923 
1924 1925 1926 1927 
1928 1929 1930 1931 
1932 1933 1934 1935 
1936 1937 1938 1939 
1940 1941 1942 1943 
1944 1945 1946 1947 
1948 1949 1950 1951 
1952 1953 1954 1955 
1956 1957 1958 1959 
1960 1961 1962 1963 
1964 1965 1966 1967 
1968 1969 1970 1971 
1972 1973 1974 1975 
1976 1977 1978 1979 
1980 1981 1982 1983 
1984 1985 1986 1987 
1988 1989 1990 1991 
1992 1993 1994 1995 
1996 1997 1998 1999 
2000 2001 2002 2003 
2004 2005 2006 2007 
2008 2009 2010 2011 
2012 2013 2014 2015 
2016 2017 2018 2019 
2020 2021 2022 2023 
2024 2025 2026 2027 
2028 2029 2030 2031 
2032 2033 2034 2035 
2036 2037 2038 2039 
2040 2041 2042 2043 
2044 2045 2046 2047 
2048 2049 2050 2051 2052 2053 2054 2055 2056 2057 2058 2059 2060 2061 2062 2063 
2064 2065 2066 2067 2068 2069 2070 2071 2072 2073 2074 2075 2076 2077 2078 2079 
</DataArray>
<DataArray type="Int32" Name="offsets" format="ascii">
4 8 12 16 20 24 28 32 36 40 44 48 52 56 60 64 68 72 76 80 84 88 92 96 100 104 108 112 116 120 124 128 132 136 140 144 148 152 156 160 164 168 172 176 180 184 188 192 196 200 204 208 212 216 220 224 228 232 236 240 244 248 252 256 260 264 268 272 276 280 284 288 292 296 300 304 308 312 316 320 324 328 332 336 340 344 348 352 356 360 364 368 372 376 380 384 388 392 396 400 404 408 412 416 420 424 428 432 436 440 444 448 452 456 460 464 468 472 476 480 484 488 492 496 500 504 508 512 516 520 524 528 532 536 540 544 548 552 556 560 564 568 572 576 580 584 588 592 596 600 604 608 612 616 620 624 628 632 636 640 644 648 652 656 660 664 668 672 676 680 684 688 692 696 700 704 708 712 716 720 724 728 732 736 740 744 748 752 756 760 764 768 772 776 780 784 788 792 796 800 804 808 812 816 820 824 828 832 836 840 844 848 852 856 860 864 868 872 876 880 884 888 892 896 900 904 908 912 916 920 924 928 932 936 940 944 948 952 956 960 964 968 972 976 980 984 988 992 996 1000 1004 1008 1012 1016 1020 1024 1028 1032 1036 1040 1044 1048 1052 1056 1060 1064 1068 1072 1076 1080 1084 1088 1092 1096 1100 1104 1108 1112 1116 1120 1124 1128 1132 1136 1140 1144 1148 1152 1156 1160 1164 1168 1172 1176 1180 1184 1188 1192 1196 1200 1204 1208 1212 1216 1220 1224 1228 1232 1236 1240 1244 1248 1252 1256 1260 1264 1268 1272 1276 1280 1284 1288 1292 1296 1300 1304 1308 1312 1316 1320 1324 1328 1332 1336 1340 1344 1348 1352 1356 1360 1364 1368 1372 1376 1380 1384 1388 1392 1396 1400 1404 1408 1412 1416 1420 1424 1428 1432 1436 1440 1444 1448 1452 1456 1460 1464 1468 1472 1476 1480 1484 1488 1492 1496 1500 1504 1508 1512 1516 1520 1524 1528 1532 1536 1540 1544 1548 1552 1556 1560 1564 1568 1572 1576 1580 1584 1588 1592 1596 1600 1604 1608 1612 1616 1620 1624 1628 1632 1636 1640 1644 1648 1652 1656 1660 1664 1668 1672 1676 1680 1684 1688 1692 1696 1700 1704 1708 1712 1716 1720 1724 1728 1732 1736 1740 1744 1748 1752 1756 1760 1764 1768 1772 1776 1780 1784 1788 1792 1796 1800 1804 1808 1812 1816 1820 1824 1828 1832 1836 1840 1844 1848 1852 1856 1860 1864 1868 1872 1876 1880 1884 1888 1892 1896 1900 1904 1908 1912 1916 1920 1924 1928 1932 1936 1940 1944 1948 1952 1956 1960 1964 1968 1972 1976 1980 1984 1988 1992 1996 2000 2004 2008 2012 2016 2020 2024 2028 2032 2036 2040 2044 2048 2064 2080 
</DataArray>
<DataArray type="UInt8" Name="types" format="ascii">
7 7 7 7 7 7 7 7 7 7 7 7 7 7 7 7 7 7 7 7 7 7 7 7 7 7 7 7 7 7 7 7 7 7 7 7 7 7 7 7 7 7 7 7 7 7 7 7 7 7 7 7 7 7 7 7 7 7 7 7 7 7 7 7 7 7 7 7 7 7 7 7 7 7 7 7 7 7 7 7 7 7 7 7 7 7 7 7 7 7 7 7 7 7 7 7 7 7 7 7 7 7 7 7 7 7 7 7 7 7 7 7 7 7 7 7 7 7 7 7 7 7 7 7 7 7 7 7 7 7 7 7 7 7 7 7 7 7 7 7 7 7 7 7 7 7 7 7 7 7 7 7 7 7 7 7 7 7 7 7 7 7 7 7 7 7 7 7 7 7 7 7 7 7 7 7 7 7 7 7 7 7 7 7 7 7 7 7 7 7 7 7 7 7 7 7 7 7 7 7 7 7 7 7 7 7 7 7 7 7 7 7 7 7 7 7 7 7 7 7 7 7 7 7 7 7 7 7 7 7 7 7 7 7 7 7 7 7 7 7 7 7 7 7 7 7 7 7 7 7 7 7 7 7 7 7 7 7 7 7 7 7 7 7 7 7 7 7 7 7 7 7 7 7 7 7 7 7 7 7 7 7 7 7 7 7 7 7 7 7 7 7 7 7 7 7 7 7 7 7 7 7 7 7 7 7 7 7 7 7 7 7 7 7 7 7 7 7 7 7 7 7 7 7 7 7 7 7 7 7 7 7 7 7 7 7 7 7 7 7 7 7 7 7 7 7 7 7 7 7 7 7 7 7 7 7 7 7 7 7 7 7 7 7 7 7 7 7 7 7 7 7 7 7 7 7 7 7 7 7 7 7 7 7 7 7 7 7 7 7 7 7 7 7 7 7 7 7 7 7 7 7 7 7 7 7 7 7 7 7 7 7 7 7 7 7 7 7 7 7 7 7 7 7 7 7 7 7 7 7 7 7 7 7 7 7 7 7 7 7 7 7 7 7 7 7 7 7 7 7 7 7 7 7 7 7 7 7 7 7 7 7 7 7 7 7 7 7 7 7 7 7 7 7 7 7 7 7 7 7 7 7 7 7 7 7 7 7 7 7 7 7 7 7 7 7 7 7 7 7 7 7 7 7 7 7 7 7 7 7 7 7 7 7 
</DataArray>
</Cells>
<CellData Scalars="cell variable 4" Vectors="cell vector">
<DataArray type="Float64" NumberOfComponents="3" Name="cell vector" format="ascii">
0.180906 0.0704799 0.980972
0.532066 0.158022 0.831826
0.791512 0.220538 0.569976
0.920847 0.306952 0.24046
0.751142 0.629931 -0.197416
0.289486 0.774751 -0.562102
-0.148988 -0.564618 0.811794
-0.0340594 -0.222652 0.974303
0.039937 0.218469 0.975026
0.135971 0.572979 0.808212
0.284301 0.777793 0.560545
0.748551 0.632983 0.197491
0.919797 0.310338 -0.240134
0.786083 0.236852 -0.570942
-0.519271 -0.186049 0.834113
-0.189241 -0.0556806 0.980351
0.162157 0.110106 0.980603
0.464938 0.307194 0.83034
0.693254 0.460197 0.554633
0.803954 0.561474 0.195971
0.756753 0.623753 -0.195594
0.551924 0.624938 -0.552116
-0.361435 -0.428117 0.8283
-0.12775 -0.150518 0.980318
0.12773 0.15135 0.980193
0.357846 0.432418 0.827624
0.550315 0.6269 0.551498
0.756115 0.624648 0.195203
0.802982 0.562758 -0.196274
0.691704 0.462024 -0.555049
-0.463009 -0.309131 0.830698
-0.164137 -0.106699 0.98065
0.160781 0.112787 0.980525
0.459281 0.31666 0.829932
0.685829 0.472755 0.5533
0.800824 0.56668 0.193791
0.766879 0.611263 -0.195587
0.542391 0.636835 -0.547953
-0.374743 -0.416927 0.828094
-0.133605 -0.144824 0.980396
0.133283 0.146112 0.980248
0.373028 0.419399 0.82762
0.541728 0.637842 0.547438
0.766262 0.61215 0.19523
0.800094 0.567598 -0.194118
0.685188 0.473341 -0.553593
-0.45832 -0.317145 0.830278
-0.161757 -0.110196 0.980659
0.161362 0.11249 0.980463
0.460678 0.315741 0.829508
0.689601 0.46866 0.552094
0.80928 0.555083 0.19222
0.781451 0.59254 -0.195529
0.310362 0.808905 -0.499348
-0.519008 0.833531 -0.18936
-0.628455 0.776357 -0.0481001
-0.628741 0.776303 0.045159
-0.522077 0.832906 0.183585
0.312699 0.808077 0.499231
0.780733 0.593599 0.195184
0.808662 0.555875 -0.192534
0.689337 0.468782 -0.552321
-0.459934 -0.315912 0.829856
-0.161751 -0.110315 0.980646
0.161843 0.112031 0.980437
0.461307 0.315177 0.829373
0.689983 0.468517 0.551739
0.809345 0.555181 0.191661
0.782578 0.591056 -0.195512
0.367881 0.777484 -0.51008
-0.50488 0.844291 -0.179632
-0.607438 0.792996 -0.0466547
-0.607397 0.793093 0.0455192
-0.504576 0.844665 0.17873
0.371155 0.775856 0.510189
0.782146 0.591737 0.195176
0.808971 0.55563 -0.19194
0.689998 0.46828 -0.55192
-0.460865 -0.314942 0.829708
-0.161932 -0.110067 0.980644
0.162361 0.110968 0.980472
0.46243 0.312729 0.829674
0.691608 0.465522 0.552239
0.812 0.551231 0.191836
0.789782 0.581274 -0.19587
0.398092 0.760395 -0.513148
-0.505081 0.849681 -0.151443
-0.589811 0.80648 -0.0413892
-0.589775 0.806562 0.0402901
-0.50472 0.85003 0.150687
0.40268 0.757639 0.513646
0.789423 0.581859 0.195577
0.81174 0.55153 -0.192074
0.691752 0.465125 -0.552393
-0.462193 -0.312216 0.829999
-0.16231 -0.1091 0.98069
0.16322 0.109216 0.980526
0.464738 0.308192 0.830082
0.695192 0.459364 0.552894
0.817106 0.54354 0.192096
0.799812 0.567257 -0.196267
0.411717 0.753586 -0.512443
-0.508139 0.853087 -0.118481
-0.572912 0.818878 -0.0347864
-0.572909 0.818932 0.0335635
-0.507926 0.853341 0.117556
0.419097 0.748629 0.513724
0.799459 0.567844 0.196003
0.816899 0.543777 -0.192308
0.695386 0.458905 -0.553032
-0.464631 -0.307493 0.830401
-0.163097 -0.107388 0.980748
0.164419 0.106944 0.980576
0.468116 0.302037 0.830446
0.700462 0.450598 0.553457
0.824186 0.532669 0.192304
0.811087 0.550882 -0.196638
0.364859 0.788833 -0.494591
-0.508236 0.856626 -0.0888164
-0.555792 0.830841 -0.0282759
-0.555815 0.830869 0.0269461
-0.508182 0.856774 0.087682
0.385705 0.775289 0.500158
0.810647 0.551618 0.196389
0.823994 0.532896 -0.192499
0.700674 0.450113 -0.553584
-0.468097 -0.301201 0.83076
-0.164256 -0.105123 0.9808
0.16589 0.104271 0.980616
0.472304 0.294657 0.830726
0.706911 0.439878 0.553881
0.832485 0.51955 0.192451
0.822815 0.533083 -0.196972
0.0510671 0.929898 -0.364255
-0.50431 0.861095 -0.0647109
-0.53842 0.842386 -0.0221289
-0.538439 0.842407 0.0208401
-0.504467 0.86111 0.0632633
0.11623 0.912125 0.393089
0.822173 0.534163 0.196727
0.832295 0.519786 -0.192634
0.707142 0.439361 -0.553997
-0.472347 -0.293715 0.831035
-0.165699 -0.102452 0.98084
0.167546 0.101289 0.980647
0.477015 0.286363 0.830935
0.714102 0.427702 0.554192
0.841525 0.504733 0.192564
0.835052 0.513601 -0.197236
-0.288188 0.943088 -0.165929
-0.495857 0.867108 -0.0474305
-0.520717 0.853566 -0.0167038
-0.5207 0.853595 0.0156951
-0.496473 0.86687 0.0452927
-0.258783 0.948402 0.183209
0.833968 0.515454 0.196988
0.841345 0.504965 -0.19274
0.714378 0.427101 -0.5543
-0.477111 -0.285331 0.831235
-0.167324 -0.0995032 0.980868
0.169318 0.0980446 0.980673
0.482005 0.277413 0.831092
0.721661 0.414515 0.55442
0.850962 0.488615 0.192662
0.848054 0.491775 -0.197388
-0.385007 0.918696 -0.0881264
-0.483097 0.874795 -0.0367587
-0.502531 0.864473 -0.0121935
-0.502343 0.864581 0.0122785
-0.484141 0.874331 0.0339643
-0.381294 0.920111 0.0895054
0.846431 0.494654 0.197157
0.851002 0.488477 -0.192835
0.72205 0.413703 -0.554521
-0.482132 -0.276344 0.831374
-0.16903 -0.0964049 0.980885
0.17117 0.0945518 0.980694
0.487168 0.267822 0.831227
0.729344 0.400547 0.554635
0.859975 0.472513 0.192806
0.859343 0.471791 -0.197341
-0.373125 0.924112 -0.0824296
-0.470546 0.881989 -0.0261122
-0.484468 0.874778 -0.00741475
-0.483772 0.875144 0.00939876
-0.469107 0.882737 0.0267369
-0.41604 0.907929 0.0507563
0.859437 0.471662 0.197237
0.860744 0.471067 -0.192912
0.729827 0.399617 -0.55467
-0.487253 -0.266905 0.831472
-0.170776 -0.0931566 0.980896
0.172981 0.0910118 0.980711
0.492362 0.257764 0.831347
0.737229 0.385537 0.554846
0.869545 0.454583 0.192989
0.869974 0.451974 -0.197141
0.636132 0.54694 -0.544236
-0.455005 0.890278 -0.0193686
-0.46544 0.885062 -0.00561454
-0.465409 0.885084 0.00466132
-0.455117 0.890249 0.0180425
-0.399235 0.915565 0.0484959
0.870225 0.451485 0.197155
0.869722 0.454228 -0.193027
0.737543 0.384973 -0.55482
-0.492458 -0.256878 0.831564
-0.172601 -0.0895981 0.980908
0.174806 0.0873497 0.980721
0.497581 0.247305 0.831416
0.745219 0.369683 0.554962
0.879393 0.435181 0.193096
0.879702 0.432788 -0.197026
0.711005 0.434961 -0.552522
-0.436876 0.899385 -0.0156865
-0.445234 0.895396 -0.00573416
-0.445839 0.895111 0.00201814
-0.437874 0.898935 0.0134965
0.670099 0.501236 0.547476
0.879981 0.432262 0.196935
0.879055 0.43582 -0.193191
0.745321 0.369441 -0.554987
-0.497613 -0.246447 0.831652
-0.17439 -0.0859287 0.98092
0.176704 0.0834347 0.980721
0.502803 0.236437 0.831437
0.752951 0.353614 0.554997
0.888232 0.416821 0.193141
0.887332 0.416933 -0.196997
0.729966 0.401439 -0.55317
-0.421066 0.90699 -0.00849156
-0.425345 0.905025 -0.00346411
-0.425384 0.905011 0.00188499
-0.41928 0.907801 0.0101231
0.733006 0.395889 0.553149
0.889305 0.412793 0.19682
0.888619 0.415931 -0.19328
0.753091 0.353204 -0.555069
-0.502682 -0.235764 0.831701
-0.176088 -0.0822816 0.98093
0.178534 0.079486 0.980718
0.507833 0.225413 0.831441
0.76033 0.337419 0.55502
0.896609 0.398468 0.193172
0.895033 0.400152 -0.196963
0.751046 0.359598 -0.553732
-0.405665 0.914022 -0.00043385
-0.405527 0.914083 -0.000752939
-0.405429 0.914127 4.12142e-05
-0.403893 0.914804 0.00207573
0.756005 0.349064 0.553724
0.896802 0.396237 0.196831
0.897156 0.39718 -0.193285
0.760531 0.336877 -0.555073
-0.507664 -0.224785 0.831714
-0.177783 -0.0784735 0.980936
0.180241 0.0756008 0.980713
0.512636 0.214279 0.831438
0.76746 0.320849 0.555032
0.904799 0.379503 0.193175
0.902137 0.383875 -0.196948
0.773466 0.308285 -0.553814
-0.390148 0.92072 0.00767355
-0.38535 0.92277 0.00101259
-0.385411 0.922741 -0.00264563
-0.388351 0.921492 -0.00595819
0.773979 0.307116 0.553748
0.904073 0.37934 0.19686
0.905133 0.378662 -0.193261
0.76757 0.320528 -0.555066
-0.512439 -0.213649 0.831721
-0.17945 -0.0745112 0.980941
0.181828 0.0718106 0.980705
0.517176 0.203236 0.831399
0.774341 0.303995 0.554963
0.913226 0.358799 0.193087
0.910269 0.364102 -0.197078
0.820088 0.16483 -0.547984
-0.370586 0.92874 0.0104102
-0.364149 0.93134 0.000806353
-0.364861 0.93105 -0.00471197
-0.371995 0.928144 -0.0129575
0.787175 0.271932 0.553542
0.910496 0.363638 0.196887
0.912832 0.359725 -0.193224
0.774319 0.30389 -0.555051
-0.516994 -0.202409 0.831714
-0.181058 -0.0704968 0.980943
0.18338 0.0679011 0.980694
0.52149 0.192239 0.83132
0.780705 0.287554 0.554808
0.920667 0.339344 0.192919
0.917817 0.344487 -0.197333
-0.371488 0.928223 0.0199881
-0.351988 0.935898 0.0141234
-0.343484 0.939153 0.00324263
-0.343434 0.939169 -0.00385592
-0.352202 0.935798 -0.0153474
0.826043 0.135282 0.54713
0.918136 0.343811 0.197026
0.920739 0.339035 -0.193117
0.78078 0.287075 -0.554952
-0.52127 -0.19138 0.831656
-0.182532 -0.0667004 0.980935
0.184821 0.0640126 0.980685
0.525471 0.181409 0.831246
0.78646 0.271672 0.554684
0.927174 0.321206 0.192807
0.925527 0.323133 -0.197448
-0.354398 0.934826 0.0223999
-0.336154 0.941563 0.0214469
-0.323743 0.946114 0.00767067
-0.322944 0.946405 -0.00504037
-0.334793 0.942064 -0.0207241
-0.37453 0.926437 -0.0379657
0.925555 0.323156 0.197276
0.927695 0.319628 -0.192926
0.786699 0.270833 -0.554756
-0.525288 -0.180545 0.831551
-0.183937 -0.0629588 0.98092
0.186078 0.0603759 0.980678
0.529073 0.170952 0.831178
0.791806 0.255906 0.554577
0.933706 0.301737 0.192738
0.933993 0.297804 -0.197407
-0.354763 0.934199 0.0376235
-0.3181 0.947699 0.0260577
-0.303263 0.952858 0.0096669
-0.303114 0.952909 -0.00930696
-0.319719 0.947063 -0.0291745
-0.356993 0.933255 -0.0398893
0.932753 0.301692 0.197369
0.933667 0.301829 -0.192783
0.791999 0.255307 -0.554578
-0.528992 -0.169922 0.831441
-0.185288 -0.0591675 0.980901
0.187254 0.0568202 0.980667
0.532421 0.160761 0.831074
0.796756 0.240443 0.554407
0.939698 0.282585 0.192648
0.941153 0.274411 -0.197303
-0.367633 0.927914 0.0618164
-0.301523 0.952881 0.033185
-0.282482 0.959199 0.0118593
-0.282544 0.95917 -0.0127096
-0.302662 0.952436 -0.035512
-0.366349 0.928446 -0.0614449
0.940381 0.277068 0.197274
0.939537 0.283088 -0.192694
0.796854 0.240128 -0.554403
-0.532347 -0.159734 0.831319
-0.186509 -0.0555736 0.98088
0.188379 0.0533635 0.980646
0.535515 0.151028 0.830912
0.801201 0.225804 0.554156
0.944946 0.264581 0.192545
0.947403 0.252118 -0.197141
-0.409073 0.906226 0.10684
-0.287944 0.956582 0.0451457
-0.261879 0.964975 0.015589
-0.261997 0.964924 -0.0167318
-0.28869 0.956276 -0.0468339
-0.408447 0.906502 -0.106886
0.946922 0.253949 0.197101
0.94482 0.265001 -0.192585
0.801273 0.225577 -0.554145
-0.535433 -0.150013 0.831148
-0.187618 -0.052201 0.980854
0.189431 0.050127 0.980614
0.538321 0.142057 0.83068
0.805076 0.212489 0.553806
0.949386 0.248277 0.192416
0.952952 0.230462 -0.196898
-0.520392 0.828904 0.205208
-0.278355 0.958388 0.0633334
-0.241576 0.970156 0.0209379
-0.241707 0.970097 -0.0221149
-0.278893 0.958143 -0.0646617
-0.521788 0.827648 -0.206727
0.95263 0.231822 0.196864
0.949322 0.2485 -0.192444
0.805155 0.212247 -0.553784
-0.53824 -0.141014 0.830911
-0.188636 -0.0490941 0.980819
0.190391 0.0472455 0.980571
0.540812 0.134192 0.83037
0.808352 0.200971 0.553333
0.953013 0.234112 0.192243
0.957771 0.209861 -0.196553
0.724748 -0.569317 -0.388096
-0.273352 0.957818 0.0886812
-0.221506 0.974771 0.0275237
-0.221665 0.974698 -0.0287935
-0.273797 0.957586 -0.0898058
0.72503 -0.568574 0.388659
0.957541 0.210923 0.196535
0.953 0.234154 -0.192257
0.808449 0.200674 -0.553299
-0.540747 -0.133058 0.830595
-0.189568 -0.046348 0.980773
0.191237 0.0448844 0.980517
0.542956 0.127882 0.829967
0.811015 0.19178 0.552698
0.955888 0.222303 0.191986
0.961912 0.190415 -0.19613
0.807247 -0.342155 -0.480918
-0.271535 0.955002 0.119334
-0.201184 0.978955 0.0342285
-0.201406 0.978856 -0.0357213
-0.271979 0.954746 -0.120366
0.807879 -0.339345 0.481846
0.961742 0.191275 0.196129
0.955909 0.222214 -0.191989
0.811132 0.191405 -0.552657
-0.542923 -0.12657 0.830189
-0.190406 -0.0441203 0.980713
0.19192 0.0432001 0.980459
0.544657 0.123619 0.829498
0.812965 0.185708 0.551906
0.957864 0.213988 0.191587
0.965149 0.173728 -0.195721
0.811934 -0.310177 -0.494524
-0.270159 0.950868 0.151209
-0.180231 0.98279 0.0405098
-0.180514 0.982667 -0.0422023
-0.270567 0.950614 -0.152073
0.812989 -0.305178 0.495898
0.965032 0.174375 0.195723
0.957916 0.213754 -0.191591
0.813105 0.185208 -0.551868
-0.544677 -0.122018 0.829722
-0.191114 -0.0425808 0.980644
0.192281 0.0423216 0.980427
0.545585 0.121846 0.82915
0.81388 0.183643 0.551248
0.958589 0.211082 0.191185
0.966851 0.164269 -0.195484
0.801463 -0.340366 -0.491739
-0.260896 0.949641 0.173539
-0.156491 0.986654 0.0450007
-0.156776 0.986538 -0.0465287
-0.261012 0.949562 -0.173795
0.802364 -0.336773 0.492743
0.966792 0.164631 0.195474
0.958675 0.210675 -0.191204
0.814045 0.182939 -0.551238
-0.545689 -0.1198 0.82938
-0.191567 -0.0418663 0.980586
0.191964 0.0423387 0.980488
0.544818 0.123277 0.829443
0.812481 0.188095 0.551811
0.956569 0.219358 0.191984
0.965912 0.169776 -0.195424
0.729896 -0.520655 -0.44291
-0.205738 0.967746 0.145395
-0.116422 0.992388 0.0401522
-0.116288 0.992436 -0.039334
-0.203088 0.968916 -0.141271
0.730813 -0.518592 0.443818
0.965983 0.169329 0.195458
0.956761 0.218516 -0.191988
0.812707 0.186906 -0.551882
-0.54509 -0.120465 0.829678
-0.191471 -0.0420962 0.980595
0.190773 0.0391734 0.980852
0.542426 0.113897 0.832347
0.811621 0.172509 0.558132
0.959716 0.198099 0.199254
0.969932 0.146664 -0.194222
0.829 -0.0595967 -0.556064
-0.555867 0.0123678 0.831179
-0.195372 0.00121194 0.980728
0.195489 -0.00166473 0.980705
0.55584 -0.0147964 0.831158
0.828939 -0.0593372 0.556183
0.969902 0.146688 0.194354
0.959872 0.197481 -0.199115
0.811878 0.171393 -0.558103
-0.542938 -0.111213 0.832376
-0.190482 -0.0391039 0.980912
0.190843 0.0362647 0.98095
0.542658 0.105819 0.833261
0.812665 0.160202 0.560278
0.962419 0.181913 0.201636
0.972245 0.129299 -0.194991
0.826609 -0.0089384 -0.562706
-0.550228 0.00815791 0.834975
-0.192777 0.00144633 0.981241
0.193086 -0.00196783 0.98118
0.550055 -0.0126401 0.835033
0.82651 -0.00874112 0.562855
0.972188 0.12953 0.19512
0.962531 0.181518 -0.201459
0.812882 0.159504 -0.560162
-0.543218 -0.103509 0.833187
-0.190518 -0.0363519 0.98101
0.186053 0.0447131 0.981522
0.52691 0.137668 0.838697
0.781954 0.234398 0.577587
0.914609 0.32447 0.241266
0.975259 0.0328548 -0.218612
0.793348 -0.153177 -0.589182
-0.536253 0.057147 0.84212
-0.188339 0.0158506 0.981976
0.18844 -0.0157582 0.981958
0.534383 -0.068248 0.842483
0.793473 -0.152264 0.589251
0.975345 0.0397217 0.217081
0.91518 0.323111 -0.240925
0.782393 0.233257 -0.577453
-0.530143 -0.129442 0.83797
-0.185944 -0.0448693 0.981535
0.00737954 0.00719888 0.999947
0.00257188 0.000343963 0.999997
</DataArray>
<DataArray type="Float64" Name="cell vector length" format="ascii">
0.16702 0.154231 0.144936 0.115414 0.0723535 0.154883 0.208379 0.194658 0.190987 0.202214 0.15629 0.0721753 0.114586 0.142704 0.172424 0.175491 0.407621 0.381464 0.347955 0.307301 0.273389 0.32303 0.41028 0.443359 0.438076 0.395979 0.321018 0.273446 0.308243 0.350927 0.402054 0.415073 0.511128 0.484447 0.444502 0.391651 0.33478 0.400116 0.511902 0.555098 0.551327 0.501099 0.398496 0.335202 0.392852 0.446719 0.500527 0.516461 0.540768 0.511847 0.465318 0.399167 0.307693 0.148515 0.185019 0.282941 0.283471 0.187255 0.149 0.308295 0.400337 0.467088 0.526372 0.545403 0.559095 0.527158 0.472348 0.390048 0.26785 0.10423 0.174073 0.273761 0.273355 0.172929 0.104564 0.268727 0.39126 0.473823 0.540783 0.563298 0.572233 0.53712 0.474109 0.377014 0.235076 0.0688086 0.161763 0.259511 0.259119 0.160645 0.0693716 0.236263 0.378306 0.475389 0.550198 0.576176 0.581946 0.544126 0.474407 0.365995 0.212139 0.0444125 0.153681 0.247667 0.247316 0.152622 0.0452009 0.213513 0.367314 0.475525 0.556863 0.585732 0.58902 0.549076 0.474255 0.357598 0.19585 0.0256375 0.149157 0.238415 0.2381 0.148074 0.0267453 0.19745 0.358902 0.475231 0.561606 0.592712 0.594098 0.552548 0.473972 0.351379 0.183301 0.0139709 0.147252 0.231429 0.231161 0.146161 0.0139431 0.185037 0.352623 0.474815 0.564965 0.597739 0.597676 0.554937 0.473677 0.346921 0.174834 0.0166635 0.145921 0.226278 0.226115 0.144977 0.0153486 0.176474 0.348012 0.474406 0.567339 0.601311 0.600094 0.556478 0.473423 0.344042 0.169115 0.022038 0.145162 0.222394 0.222472 0.144668 0.021102 0.170585 0.344857 0.474133 0.569003 0.603778 0.601672 0.557398 0.473118 0.342222 0.164947 0.0176151 0.144831 0.219741 0.219777 0.144239 0.0253324 0.166656 0.343022 0.473998 0.570127 0.605425 0.602682 0.557915 0.472787 0.341193 0.168919 0.00935336 0.141394 0.218061 0.217921 0.14395 0.0195237 0.163674 0.342004 0.473843 0.570836 0.606498 0.603264 0.55817 0.472585 0.340634 0.166776 0.0153087 0.141208 0.216849 0.216901 0.140529 0.00870224 0.16879 0.341551 0.473649 0.571249 0.607147 0.603535 0.558251 0.47244 0.340248 0.165631 0.0143685 0.14093 0.216181 0.216293 0.140705 0.0154623 0.167127 0.341401 0.473563 0.571463 0.607468 0.603617 0.558174 0.472132 0.339655 0.164788 0.0137675 0.141185 0.216174 0.215985 0.140429 0.014948 0.166487 0.341362 0.473514 0.571552 0.607594 0.603579 0.557978 0.471664 0.338819 0.164262 0.0136148 0.141834 0.216726 0.216205 0.140465 0.0149771 0.16618 0.341087 0.47329 0.571509 0.607595 0.603377 0.557689 0.471256 0.338081 0.164826 0.00488488 0.142063 0.217523 0.217068 0.14118 0.0151535 0.166093 0.340538 0.472896 0.571324 0.607435 0.602905 0.557244 0.470953 0.337542 0.157471 0.0275654 0.146352 0.218613 0.218368 0.141755 0.00666396 0.167054 0.340109 0.472572 0.571006 0.60702 0.602101 0.556558 0.47058 0.337434 0.159097 0.03569 0.147012 0.220408 0.219964 0.146169 0.0256199 0.160369 0.340006 0.472374 0.570494 0.606275 0.600852 0.555535 0.470188 0.338021 0.161168 0.0337036 0.147855 0.222809 0.222318 0.146722 0.0327936 0.162991 0.340508 0.472125 0.569679 0.605104 0.598962 0.55411 0.469984 0.339747 0.164804 0.0302054 0.148384 0.225881 0.225656 0.147759 0.0296398 0.166381 0.341871 0.471852 0.568402 0.603286 0.596198 0.552158 0.469994 0.342691 0.170139 0.0258167 0.149327 0.23004 0.229911 0.148767 0.0251956 0.171695 0.344586 0.471714 0.56652 0.600567 0.592264 0.549423 0.47011 0.347091 0.177915 0.0209929 0.150988 0.235638 0.23552 0.150374 0.0204724 0.179451 0.348838 0.471708 0.563867 0.596685 0.586759 0.545558 0.470205 0.353336 0.189734 0.0217067 0.153807 0.243199 0.243052 0.153132 0.0213424 0.191129 0.354957 0.471723 0.560152 0.591264 0.579095 0.540079 0.47011 0.36192 0.207305 0.0383945 0.158696 0.253279 0.253088 0.157909 0.0379608 0.208564 0.363408 0.471586 0.554928 0.583739 0.568296 0.532071 0.469142 0.372798 0.230409 0.0636844 0.168387 0.266752 0.26652 0.167441 0.0633917 0.23156 0.374124 0.470608 0.547321 0.573156 0.551545 0.518308 0.463418 0.381794 0.259018 0.0977091 0.18697 0.286491 0.286284 0.186036 0.0973958 0.259874 0.382909 0.464914 0.534228 0.556743 0.51264 0.480451 0.43067 0.361339 0.265504 0.122816 0.234973 0.331004 0.332135 0.238763 0.122742 0.266051 0.362321 0.43228 0.497891 0.518472 0.488278 0.456312 0.408598 0.347296 0.283754 0.358874 0.487716 0.534934 0.529377 0.471994 0.356918 0.284416 0.348354 0.410315 0.474724 0.494425 0.452466 0.420052 0.372833 0.317197 0.276295 0.326718 0.435582 0.47948 0.472342 0.414926 0.324879 0.276788 0.318216 0.37457 0.439157 0.458846 0.206612 0.171949 0.11995 0.0617801 0.0343196 0.120635 0.248665 0.309087 0.303494 0.231759 0.121404 0.0354476 0.0626075 0.119608 0.191371 0.21262 0.0586084 0.0152124 
</DataArray>
<DataArray type="Float64" Name="cell variable 4" format="ascii">
863.773 856.596 856.418 852.087 841.185 878.153 882.334 866.65 863.461 874.141 878.533 841.03 851.47 853.947 870.643 868.881 1094.46 1075.48 1064.88 1057.94 1053.75 1078.25 1111.66 1105.25 1099.16 1092.88 1078.25 1053.7 1057.78 1065.04 1103.81 1104.03 1292.96 1270.76 1256.69 1246.66 1240.1 1273.92 1309.96 1310.21 1304.02 1290.47 1274.14 1240.34 1246.76 1256.84 1304.21 1303.71 1333.71 1309.66 1293.56 1282.54 1274.28 1334.03 1593 1827.87 1826.15 1589.42 1333.35 1274.22 1282.45 1293.62 1343.97 1344.7 1342.27 1318.12 1302.64 1294.33 1290.56 1335.01 1574.88 1792.52 1791.31 1572.46 1334.02 1290.39 1294.22 1302.68 1352.56 1353.26 1345.27 1320.08 1302.99 1293.5 1289.44 1326.56 1561.06 1760.98 1760.03 1559.09 1325.76 1289.41 1293.49 1303.05 1354.54 1356.24 1347.26 1320.95 1302.12 1291.25 1286.78 1320.29 1552.75 1736.47 1735.68 1551.02 1319.69 1286.77 1291.26 1302.17 1355.45 1358.26 1348.72 1321.48 1301.28 1289.38 1284.62 1313.56 1548.85 1718.13 1717.45 1547.13 1313.21 1284.59 1289.37 1301.32 1356.12 1359.78 1349.81 1321.82 1300.58 1287.99 1283.1 1309.18 1548.3 1704.8 1704.23 1546.6 1308.02 1283.05 1287.95 1300.62 1356.67 1360.96 1350.6 1322 1300.02 1286.96 1281.93 1312.28 1547.67 1695.31 1694.89 1546.14 1310.05 1281.79 1286.89 1300.11 1357.17 1361.88 1351.12 1321.99 1299.49 1286.23 1281.42 1318.3 1547.76 1688.18 1688.06 1546.36 1315.25 1280.86 1286.18 1299.76 1357.57 1362.57 1351.61 1322.03 1299.06 1285.45 1280.67 1323.49 1547.45 1682.77 1683.05 1546.87 1320.4 1280.78 1285.76 1299.36 1357.8 1363.12 1352.13 1322.18 1298.75 1284.5 1279.19 1323 1540.27 1679.03 1679.59 1547.15 1324.85 1280.34 1285.13 1298.95 1358.07 1363.7 1352.45 1322.09 1298.36 1284.01 1278.86 1334.93 1540.54 1676.71 1677.05 1539.83 1322.44 1278.92 1284.27 1298.67 1358.45 1364.23 1352.54 1321.87 1298.05 1283.9 1279.07 1335.9 1540.84 1675.31 1675.35 1540.05 1334.78 1278.55 1283.84 1298.31 1358.56 1364.47 1352.53 1321.73 1297.85 1283.68 1278.74 1335.8 1541.04 1674.99 1674.78 1540.37 1335.73 1278.76 1283.69 1297.89 1358.43 1364.48 1352.46 1321.6 1297.72 1283.3 1277.85 1334.78 1541.31 1676.02 1675.52 1540.7 1335.87 1278.43 1283.37 1297.52 1358.3 1364.41 1352.14 1321.24 1297.54 1283.26 1277.63 1320.77 1541.86 1678.17 1677.32 1541.08 1334.79 1277.48 1282.93 1297.29 1358.24 1364.24 1351.54 1320.62 1297.26 1283.64 1278.58 1331.26 1550.95 1680.97 1679.87 1541.5 1320.48 1277.2 1282.93 1297.13 1358.02 1363.82 1350.92 1320.13 1297.1 1283.72 1278.42 1327.82 1551.34 1684.38 1683.6 1550.73 1328.12 1278.23 1283.41 1296.89 1357.54 1363.21 1350.34 1319.69 1296.92 1283.52 1277.82 1324.24 1551.64 1688.94 1688.59 1551.55 1323.9 1278.32 1283.62 1296.77 1357.2 1362.66 1349.65 1319.11 1296.69 1283.59 1278.01 1320.14 1552.11 1694.87 1694.8 1552.1 1319.15 1278 1283.67 1296.73 1356.96 1362.12 1348.79 1318.46 1296.58 1284.02 1278.56 1315.11 1552.89 1702.61 1702.64 1552.81 1313.78 1278.47 1284.05 1296.69 1356.55 1361.37 1347.72 1317.76 1296.65 1284.77 1279.4 1309.39 1554.22 1713.12 1713.16 1554.05 1307.9 1279.32 1284.8 1296.77 1356.02 1360.37 1346.41 1317.03 1296.92 1285.82 1280.38 1306.46 1556.19 1727.65 1727.64 1555.98 1304.94 1280.34 1285.86 1297.05 1355.41 1359.13 1344.67 1316.09 1297.32 1287.18 1281.59 1311.07 1559.88 1747.51 1747.39 1559.5 1309.46 1281.58 1287.23 1297.44 1354.56 1357.43 1341.45 1313.88 1296.69 1287.77 1282.27 1317.27 1569.24 1774.05 1773.75 1568.47 1315.82 1282.24 1287.8 1296.79 1352.37 1354.23 1329.96 1303.05 1286.74 1278.32 1272.54 1320.12 1584.92 1808.64 1808.07 1583.72 1318.72 1272.36 1278.27 1286.79 1341.23 1342.68 1264.68 1237.29 1218.17 1204.8 1193.22 1274.68 1609.4 1857.25 1856.2 1607.33 1273.91 1193.16 1204.74 1218.13 1273.3 1276.72 1212.05 1185.6 1166.63 1152.84 1142.68 1175.47 1225.58 1232.26 1223.7 1200.14 1175.62 1142.96 1153.03 1166.72 1220.19 1223.62 1097.27 1071.45 1050.81 1034.35 1022.2 1036.28 1086.65 1088.79 1078.37 1056.1 1036.04 1022.32 1034.52 1051.19 1102.54 1107.84 764.591 755.244 753.394 757.317 763.947 795.004 847.742 865.231 859.037 828.562 796.413 764.221 757.209 751.949 773.985 770.318 619.01 745.326 
</DataArray>
<DataArray type="Float64" Name="cell variable 5" format="ascii">
0.00238651 0.00238651 0.00238651 0.00238651 0.00238651 0.00238651 0.00238651 0.00238651 0.00238651 0.00238651 0.00238651 0.00238651 0.00238651 0.00238651 0.00238651 0.00238651 0.00238651 0.00238651 0.00238651 0.00238651 0.00238651 0.00238651 0.00238651 0.00238651 0.00238651 0.00238651 0.00238651 0.00238651 0.00238651 0.00238651 0.00238651 0.00238651 0.00238651 0.00238651 0.00238651 0.00238651 0.00238651 0.00238651 0.00238651 0.00238651 0.00238651 0.00238651 0.00238651 0.00238651 0.00238651 0.00238651 0.00238651 0.00238651 0.00360681 0.00333899 0.00290677 0.0024947 0.00238651 0.00238651 0.00238651 0.00238651 0.00238651 0.00238651 0.00238651 0.00238651 0.0024947 0.00290677 0.00333899 0.00360681 0.00408093 0.00370917 0.00310883 0.0025366 0.00238651 0.00238651 0.00238651 0.00238651 0.00238651 0.00238651 0.00238651 0.00238651 0.0025366 0.00310883 0.00370917 0.00408093 0.00435565 0.00392396 0.00322603 0.00256099 0.00238651 0.00238651 0.00238651 0.00238651 0.00238651 0.00238651 0.00238651 0.00238651 0.00256099 0.00322603 0.00392396 0.00435565 0.00455559 0.00407934 0.00331142 0.00257902 0.00238651 0.00238651 0.00238651 0.00238651 0.00238651 0.00238651 0.00238651 0.00238651 0.00257902 0.00331142 0.00407934 0.00455559 0.0047115 0.00420132 0.00337771 0.00259281 0.00238651 0.00238651 0.00238651 0.00238651 0.00238651 0.00238651 0.00238651 0.00238651 0.00259281 0.00337771 0.00420132 0.0047115 0.00483719 0.00429943 0.00343127 0.00260395 0.00238651 0.00238651 0.00238651 0.00238651 0.00238651 0.00238651 0.00238651 0.00238651 0.00260395 0.00343127 0.00429943 0.00483719 0.00494008 0.00437951 0.00347529 0.00261296 0.00238651 0.00238651 0.00238651 0.00238651 0.00238651 0.00238651 0.00238651 0.00238651 0.00261296 0.00347529 0.00437951 0.00494008 0.00502334 0.00444474 0.00351082 0.00262039 0.00238651 0.00238651 0.00238651 0.00238651 0.00238651 0.00238651 0.00238651 0.00238651 0.00262039 0.00351082 0.00444474 0.00502334 0.00509016 0.00449725 0.00353946 0.00262622 0.00238651 0.00238651 0.00238651 0.00238651 0.00238651 0.00238651 0.00238651 0.00238651 0.00262622 0.00353946 0.00449725 0.00509016 0.00514214 0.00453755 0.00356121 0.002631 0.00238651 0.00238651 0.00238651 0.00238651 0.00238651 0.00238651 0.00238651 0.00238651 0.002631 0.00356121 0.00453755 0.00514214 0.00518032 0.00456725 0.00357765 0.00263418 0.00238651 0.00238651 0.00238651 0.00238651 0.00238651 0.00238651 0.00238651 0.00238651 0.00263418 0.00357765 0.00456725 0.00518032 0.00520578 0.00458688 0.00358825 0.00263683 0.00238651 0.00238651 0.00238651 0.00238651 0.00238651 0.00238651 0.00238651 0.00238651 0.00263683 0.00358825 0.00458688 0.00520578 0.00521797 0.00459695 0.00359356 0.00263789 0.00238651 0.00238651 0.00238651 0.00238651 0.00238651 0.00238651 0.00238651 0.00238651 0.00263789 0.00359356 0.00459695 0.00521797 0.00521797 0.00459695 0.00359356 0.00263789 0.00238651 0.00238651 0.00238651 0.00238651 0.00238651 0.00238651 0.00238651 0.00238651 0.00263789 0.00359356 0.00459695 0.00521797 0.00520578 0.00458688 0.00358825 0.00263683 0.00238651 0.00238651 0.00238651 0.00238651 0.00238651 0.00238651 0.00238651 0.00238651 0.00263683 0.00358825 0.00458688 0.00520578 0.00518032 0.00456725 0.00357765 0.00263418 0.00238651 0.00238651 0.00238651 0.00238651 0.00238651 0.00238651 0.00238651 0.00238651 0.00263418 0.00357765 0.00456725 0.00518032 0.00514214 0.00453755 0.00356121 0.002631 0.00238651 0.00238651 0.00238651 0.00238651 0.00238651 0.00238651 0.00238651 0.00238651 0.002631 0.00356121 0.00453755 0.00514214 0.00509016 0.00449725 0.00353946 0.00262622 0.00238651 0.00238651 0.00238651 0.00238651 0.00238651 0.00238651 0.00238651 0.00238651 0.00262622 0.00353946 0.00449725 0.00509016 0.00502334 0.00444474 0.00351082 0.00262039 0.00238651 0.00238651 0.00238651 0.00238651 0.00238651 0.00238651 0.00238651 0.00238651 0.00262039 0.00351082 0.00444474 0.00502334 0.00494008 0.00437951 0.00347529 0.00261296 0.00238651 0.00238651 0.00238651 0.00238651 0.00238651 0.00238651 0.00238651 0.00238651 0.00261296 0.00347529 0.00437951 0.00494008 0.00483719 0.00429943 0.00343127 0.00260395 0.00238651 0.00238651 0.00238651 0.00238651 0.00238651 0.00238651 0.00238651 0.00238651 0.00260395 0.00343127 0.00429943 0.00483719 0.0047115 0.00420132 0.00337771 0.00259281 0.00238651 0.00238651 0.00238651 0.00238651 0.00238651 0.00238651 0.00238651 0.00238651 0.00259281 0.00337771 0.00420132 0.0047115 0.00455559 0.00407934 0.00331142 0.00257902 0.00238651 0.00238651 0.00238651 0.00238651 0.00238651 0.00238651 0.00238651 0.00238651 0.00257902 0.00331142 0.00407934 0.00455559 0.00435565 0.00392396 0.00322603 0.00256099 0.00238651 0.00238651 0.00238651 0.00238651 0.00238651 0.00238651 0.00238651 0.00238651 0.00256099 0.00322603 0.00392396 0.00435565 0.00408093 0.00370917 0.00310883 0.0025366 0.00238651 0.00238651 0.00238651 0.00238651 0.00238651 0.00238651 0.00238651 0.00238651 0.0025366 0.00310883 0.00370917 0.00408093 0.00360681 0.00333899 0.00290677 0.0024947 0.00238651 0.00238651 0.00238651 0.00238651 0.00238651 0.00238651 0.00238651 0.00238651 0.0024947 0.00290677 0.00333899 0.00360681 0.00238651 0.00238651 0.00238651 0.00238651 0.00238651 0.00238651 0.00238651 0.00238651 0.00238651 0.00238651 0.00238651 0.00238651 0.00238651 0.00238651 0.00238651 0.00238651 0.00238651 0.00238651 0.00238651 0.00238651 0.00238651 0.00238651 0.00238651 0.00238651 0.00238651 0.00238651 0.00238651 0.00238651 0.00238651 0.00238651 0.00238651 0.00238651 0.00238651 0.00238651 0.00238651 0.00238651 0.00238651 0.00238651 0.00238651 0.00238651 0.00238651 0.00238651 0.00238651 0.00238651 0.00238651 0.00238651 0.00238651 0.00238651 0.00238651 0.00238651 
</DataArray>
<DataArray type="Float64" Name="cell variable 6" format="ascii">
1 1 1 1 1 1 1 1 1 1 1 1 1 1 1 1 1 1 1 1 1 1 1 1 1 1 1 1 1 1 1 1 1 1 1 1 1 1 1 1 1 1 1 1 1 1 1 1 1 1 1 1 1 1 1 1 1 1 1 1 1 1 1 1 1 1 1 1 1 1 1 1 1 1 1 1 1 1 1 1 1 1 1 1 1 1 1 1 1 1 1 1 1 1 1 1 1 1 1 1 1 1 1 1 1 1 1 1 1 1 1 1 1 1 1 1 1 1 1 1 1 1 1 1 1 1 1 1 1 1 1 1 1 1 1 1 1 1 1 1 1 1 1 1 1 1 1 1 1 1 1 1 1 1 1 1 1 1 1 1 1 1 1 1 1 1 1 1 1 1 1 1 1 1 1 1 1 1 1 1 1 1 1 1 1 1 1 1 1 1 1 1 1 1 1 1 1 1 1 1 1 1 1 1 1 1 1 1 1 1 1 1 1 1 1 1 1 1 1 1 1 1 1 1 1 1 1 1 1 1 1 1 1 1 1 1 1 1 1 1 1 1 1 1 1 1 1 1 1 1 1 1 1 1 1 1 1 1 1 1 1 1 1 1 1 1 1 1 1 1 1 1 1 1 1 1 1 1 1 1 1 1 1 1 1 1 1 1 1 1 1 1 1 1 1 1 1 1 1 1 1 1 1 1 1 1 1 1 1 1 1 1 1 1 1 1 1 1 1 1 1 1 1 1 1 1 1 1 1 1 1 1 1 1 1 1 1 1 1 1 1 1 1 1 1 1 1 1 1 1 1 1 1 1 1 1 1 1 1 1 1 1 1 1 1 1 1 1 1 1 1 1 1 1 1 1 1 1 1 1 1 1 1 1 1 1 1 1 1 1 1 1 1 1 1 1 1 1 1 1 1 1 1 1 1 1 1 1 1 1 1 1 1 1 1 1 1 1 1 1 1 1 1 1 1 1 1 1 1 1 1 1 1 1 1 1 1 1 1 1 1 1 1 1 1 1 1 1 1 1 1 1 1 1 1 1 1 1 1 1 1 1 1 1 1 1 1 1 1 1 1 1 1 1 1 1 1 1 1 1 1 1 1 1 1 1 1 1 1 1 1 1 1 1 1 1 1 1 1 1 1 1 1 1 1 1 1 1 1 1 1 1 1 1 
</DataArray>
<DataArray type="Float64" Name="cell variable 7" format="ascii">
0 0 0 0 0 0 0 0 0 0 0 0 0 0 0 0 0 0 0 0 0 0 0 0 0 0 0 0 0 0 0 0 0 0 0 0 0 0 0 0 0 0 0 0 0 0 0 0 0 0 0 0 0 0 0 0 0 0 0 0 0 0 0 0 0 0 0 0 0 0 0 0 0 0 0 0 0 0 0 0 0 0 0 0 0 0 0 0 0 0 0 0 0 0 0 0 0 0 0 0 0 0 0 0 0 0 0 0 0 0 0 0 0 0 0 0 0 0 0 0 0 0 0 0 0 0 0 0 0 0 0 0 0 0 0 0 0 0 0 0 0 0 0 0 0 0 0 0 0 0 0 0 0 0 0 0 0 0 0 0 0 0 0 0 0 0 0 0 0 0 0 0 0 0 0 0 0 0 0 0 0 0 0 0 0 0 0 0 0 0 0 0 0 0 0 0 0 0 0 0 0 0 0 0 0 0 0 0 0 0 0 0 0 0 0 0 0 0 0 0 0 0 0 0 0 0 0 0 0 0 0 0 0 0 0 0 0 0 0 0 0 0 0 0 0 0 0 0 0 0 0 0 0 0 0 0 0 0 0 0 0 0 0 0 0 0 0 0 0 0 0 0 0 0 0 0 0 0 0 0 0 0 0 0 0 0 0 0 0 0 0 0 0 0 0 0 0 0 0 0 0 0 0 0 0 0 0 0 0 0 0 0 0 0 0 0 0 0 0 0 0 0 0 0 0 0 0 0 0 0 0 0 0 0 0 0 0 0 0 0 0 0 0 0 0 0 0 0 0 0 0 0 0 0 0 0 0 0 0 0 0 0 0 0 0 0 0 0 0 0 0 0 0 0 0 0 0 0 0 0 0 0 0 0 0 0 0 0 0 0 0 0 0 0 0 0 0 0 0 0 0 0 0 0 0 0 0 0 0 0 0 0 0 0 0 0 0 0 0 0 0 0 0 0 0 0 0 0 0 0 0 0 0 0 0 0 0 0 0 0 0 0 0 0 0 0 0 0 0 0 0 0 0 0 0 0 0 0 0 0 0 0 0 0 0 0 0 0 0 0 0 0 0 0 0 0 0 0 0 0 0 0 0 0 0 0 0 0 0 0 0 0 0 0 0 0 0 0 0 0 0 0 0 0 0 0 0 0 0 0 0 0 1 1 
</DataArray>
<DataArray type="Float64" Name="cell variable 8" format="ascii">
11.25 33.75 56.25 78.75 101.25 123.75 146.25 168.75 191.25 213.75 236.25 258.75 281.25 303.75 326.25 348.75 11.25 33.75 56.25 78.75 101.25 123.75 146.25 168.75 191.25 213.75 236.25 258.75 281.25 303.75 326.25 348.75 11.25 33.75 56.25 78.75 101.25 123.75 146.25 168.75 191.25 213.75 236.25 258.75 281.25 303.75 326.25 348.75 11.25 33.75 56.25 78.75 101.25 123.75 146.25 168.75 191.25 213.75 236.25 258.75 281.25 303.75 326.25 348.75 11.25 33.75 56.25 78.75 101.25 123.75 146.25 168.75 191.25 213.75 236.25 258.75 281.25 303.75 326.25 348.75 11.25 33.75 56.25 78.75 101.25 123.75 146.25 168.75 191.25 213.75 236.25 258.75 281.25 303.75 326.25 348.75 11.25 33.75 56.25 78.75 101.25 123.75 146.25 168.75 191.25 213.75 236.25 258.75 281.25 303.75 326.25 348.75 11.25 33.75 56.25 78.75 101.25 123.75 146.25 168.75 191.25 213.75 236.25 258.75 281.25 303.75 326.25 348.75 11.25 33.75 56.25 78.75 101.25 123.75 146.25 168.75 191.25 213.75 236.25 258.75 281.25 303.75 326.25 348.75 11.25 33.75 56.25 78.75 101.25 123.75 146.25 168.75 191.25 213.75 236.25 258.75 281.25 303.75 326.25 348.75 11.25 33.75 56.25 78.75 101.25 123.75 146.25 168.75 191.25 213.75 236.25 258.75 281.25 303.75 326.25 348.75 11.25 33.75 56.25 78.75 101.25 123.75 146.25 168.75 191.25 213.75 236.25 258.75 281.25 303.75 326.25 348.75 11.25 33.75 56.25 78.75 101.25 123.75 146.25 168.75 191.25 213.75 236.25 258.75 281.25 303.75 326.25 348.75 11.25 33.75 56.25 78.75 101.25 123.75 146.25 168.75 191.25 213.75 236.25 258.75 281.25 303.75 326.25 348.75 11.25 33.75 56.25 78.75 101.25 123.75 146.25 168.75 191.25 213.75 236.25 258.75 281.25 303.75 326.25 348.75 11.25 33.75 56.25 78.75 101.25 123.75 146.25 168.75 191.25 213.75 236.25 258.75 281.25 303.75 326.25 348.75 11.25 33.75 56.25 78.75 101.25 123.75 146.25 168.75 191.25 213.75 236.25 258.75 281.25 303.75 326.25 348.75 11.25 33.75 56.25 78.75 101.25 123.75 146.25 168.75 191.25 213.75 236.25 258.75 281.25 303.75 326.25 348.75 11.25 33.75 56.25 78.75 101.25 123.75 146.25 168.75 191.25 213.75 236.25 258.75 281.25 303.75 326.25 348.75 11.25 33.75 56.25 78.75 101.25 123.75 146.25 168.75 191.25 213.75 236.25 258.75 281.25 303.75 326.25 348.75 11.25 33.75 56.25 78.75 101.25 123.75 146.25 168.75 191.25 213.75 236.25 258.75 281.25 303.75 326.25 348.75 11.25 33.75 56.25 78.75 101.25 123.75 146.25 168.75 191.25 213.75 236.25 258.75 281.25 303.75 326.25 348.75 11.25 33.75 56.25 78.75 101.25 123.75 146.25 168.75 191.25 213.75 236.25 258.75 281.25 303.75 326.25 348.75 11.25 33.75 56.25 78.75 101.25 123.75 146.25 168.75 191.25 213.75 236.25 258.75 281.25 303.75 326.25 348.75 11.25 33.75 56.25 78.75 101.25 123.75 146.25 168.75 191.25 213.75 236.25 258.75 281.25 303.75 326.25 348.75 11.25 33.75 56.25 78.75 101.25 123.75 146.25 168.75 191.25 213.75 236.25 258.75 281.25 303.75 326.25 348.75 11.25 33.75 56.25 78.75 101.25 123.75 146.25 168.75 191.25 213.75 236.25 258.75 281.25 303.75 326.25 348.75 11.25 33.75 56.25 78.75 101.25 123.75 146.25 168.75 191.25 213.75 236.25 258.75 281.25 303.75 326.25 348.75 11.25 33.75 56.25 78.75 101.25 123.75 146.25 168.75 191.25 213.75 236.25 258.75 281.25 303.75 326.25 348.75 11.25 33.75 56.25 78.75 101.25 123.75 146.25 168.75 191.25 213.75 236.25 258.75 281.25 303.75 326.25 348.75 11.25 33.75 56.25 78.75 101.25 123.75 146.25 168.75 191.25 213.75 236.25 258.75 281.25 303.75 326.25 348.75 11.25 33.75 56.25 78.75 101.25 123.75 146.25 168.75 191.25 213.75 236.25 258.75 281.25 303.75 326.25 348.75 0 0 
</DataArray>
</CellData>
</Piece>
</UnstructuredGrid>
</VTKFile>
