<VTKFile type="UnstructuredGrid" version="0.1">
<UnstructuredGrid>
<Piece  NumberOfPoints="    2080" NumberOfCells="     514">
<Points>
<DataArray type="Float64" NumberOfComponents="3" format="ascii">
-69.3596 994.279 1.0751
-65.423 997.546 26.8377
-51.5311 972.329 28.9885
-55.828 968.803 1.1202
-64.5378 998.267 29.5907
-53.2113 1007.46 51.4225
-38.3599 982.993 55.32
-50.6459 973.05 31.7415
-51.5698 1008.78 53.5262
-34.5519 1022.46 68.0804
-18.2984 999.104 73.1366
-36.7183 984.317 57.4237
-32.4046 1024.18 69.2153
-12.3439 1040.29 74.2892
5.57722 1018.21 79.7557
-16.1511 1000.83 74.2715
-10.0249 1042.15 74.2853
9.97036 1058.3 69.1399
29.5411 1037.55 74.2073
7.89616 1020.08 79.7519
12.1024 1060.04 68.0022
28.9485 1073.89 53.449
49.9019 1054.36 57.3673
31.6732 1039.29 73.0697
30.5692 1075.25 51.3472
41.747 1084.7 29.557
63.5715 1066.03 31.6711
51.5226 1055.71 55.2655
42.6184 1085.45 26.8035
46.5286 1088.82 1.03796
68.6432 1070.44 1.04389
64.4428 1066.78 28.9176
46.5287 1088.82 -1.94528
42.62 1085.44 -27.7115
64.4476 1066.77 -29.8049
68.6433 1070.44 -1.93936
41.7495 1084.7 -30.4638
30.5814 1075.22 -52.2507
51.549 1055.68 -56.1269
63.5771 1066.02 -32.5573
28.9629 1073.86 -54.351
12.1353 1059.96 -68.8915
31.7209 1039.22 -73.9187
49.9305 1054.32 -58.2272
10.0049 1058.22 -70.028
-9.9781 1042.05 -75.1606
7.95935 1019.99 -80.5902
29.5905 1037.48 -75.0551
-12.2959 1040.19 -75.1632
-32.3497 1024.08 -70.0769
-16.0763 1000.73 -75.0975
5.64156 1018.12 -80.5927
-34.4952 1022.36 -68.9405
-51.4831 1008.67 -54.3651
-36.6343 984.225 -58.2306
-18.2218 999.003 -73.9611
-53.1246 1007.34 -52.2589
-64.4553 998.179 -30.422
-50.5933 972.983 -32.501
-38.2758 982.903 -56.1245
-65.3452 997.463 -27.6665
-69.3562 994.275 -1.90712
-55.8247 968.799 -1.86203
-51.4832 972.268 -29.7456
-54.0039 965.973 1.19822
-49.707 969.498 29.0665
-30.3644 943.57 29.6947
-34.769 939.983 1.2237
-36.4886 980.197 55.5347
-16.865 954.433 56.6774
-29.4321 944.325 32.5843
-48.7747 970.253 31.9562
-16.3431 996.369 73.455
3.69801 970.846 74.96
-15.1393 955.819 58.8848
-34.763 981.582 57.7421
7.6415 1015.56 80.1308
28.1819 990.322 81.7875
5.95423 972.648 76.1516
-14.0869 998.172 74.6466
31.7233 1034.98 74.5837
52.7508 1010.06 76.132
30.6188 992.275 81.7849
10.0783 1017.51 80.1282
52.1867 1051.88 57.6893
73.4907 1027.36 58.8874
54.9855 1011.88 74.94
33.958 1036.81 73.3917
65.927 1063.63 31.8881
87.2841 1039.47 32.5257
75.1821 1028.79 56.6807
53.8781 1053.31 55.4825
71.0331 1068.09 1.12049
92.3981 1044.05 1.13589
88.1898 1040.27 29.6318
66.8328 1064.42 28.9942
66.8376 1064.41 -29.8788
88.1964 1040.23 -30.4772
92.3983 1044.05 -1.99784
71.0334 1068.09 -2.01324
53.9054 1053.28 -56.3396
75.2195 1028.75 -57.4815
87.2923 1039.44 -33.3684
65.9335 1063.62 -32.77
34.007 1036.74 -74.2354
55.04 1011.81 -75.7329
73.5307 1027.31 -59.6859
52.2166 1051.85 -58.544
10.1426 1017.42 -80.9616
30.6853 992.186 -82.5689
52.8069 1009.98 -76.9241
31.7738 1034.91 -75.4266
-14.011 998.072 -75.4679
6.02732 972.553 -76.925
28.2496 990.231 -82.5704
7.70694 1015.47 -80.9632
-34.6791 981.492 -58.5446
-15.0685 955.736 -59.6481
3.77166 970.75 -75.7322
-16.2666 996.27 -74.275
-48.7241 970.188 -32.7103
-29.4009 944.262 -33.2924
-16.796 954.352 -57.4373
-36.4066 980.108 -56.3337
-49.6604 969.438 -29.8168
-54.002 965.969 -1.93326
-34.7671 939.98 -1.90778
-30.3371 943.511 -30.3989
-32.574 937.138 1.24573
-28.1693 940.725 29.7167
-7.85177 915.377 29.8409
-12.2868 911.784 1.26692
-27.223 941.487 32.6425
-14.6559 951.595 56.7356
5.74608 926.251 56.9432
-6.90544 916.138 32.7666
-12.9043 952.992 58.9709
5.93303 968.018 75.0462
26.4774 942.656 75.299
7.49768 927.647 59.1785
8.22411 969.834 76.2532
30.4518 987.508 81.889
51.1781 962.093 82.1399
28.7685 944.471 76.506
32.9262 989.475 81.8862
55.0583 1007.26 76.2333
75.9621 981.778 76.4491
53.6526 964.06 82.1371
57.3145 1009.11 75.027
75.8197 1024.58 58.9745
96.6293 999.339 59.1315
78.2184 983.627 75.2428
77.5126 1026.05 56.7408
89.6146 1036.73 32.5859
110.253 1011.87 32.7112
98.3222 1000.81 56.8978
90.5165 1037.55 29.6549
94.7247 1041.34 1.15896
115.311 1016.63 1.19095
111.154 1012.69 29.7802
94.7254 1041.34 -2.01555
90.5235 1037.52 -30.4949
111.17 1012.66 -30.5632
115.312 1016.62 -1.98356
89.6237 1036.7 -33.4233
77.551 1026 -57.5364
98.3622 1000.75 -57.654
110.27 1011.83 -33.4916
75.8601 1024.53 -59.7678
57.3694 1009.04 -75.8148
78.2691 983.551 -75.9903
96.6713 999.28 -59.8854
55.1143 1007.18 -77.0204
32.9927 989.385 -82.6652
53.7127 963.968 -82.8749
76.0139 981.7 -77.1959
30.519 987.417 -82.667
8.29673 969.738 -77.0216
28.8328 944.377 -77.2334
51.239 962 -82.8767
6.00566 967.923 -75.8137
-12.8345 952.909 -59.7296
7.55661 927.566 -59.8987
26.5417 942.562 -76.0255
-14.5884 951.514 -57.4909
-27.1933 941.424 -33.346
-6.886 916.075 -33.4299
5.80268 926.171 -57.6599
-28.1429 940.667 -30.416
-32.5728 937.135 -1.92492
-12.2857 911.781 -1.90373
-7.83555 915.318 -30.5
-10.0454 908.976 1.27365
-5.61038 912.569 29.8476
14.4816 887.322 29.8859
9.96922 883.797 1.2923
-4.65204 913.324 32.7803
7.99948 923.437 56.9569
28.2923 898.008 56.9949
15.44 888.078 32.8186
9.77136 924.821 59.1945
28.7511 939.83 75.315
49.31 914.148 75.3248
30.0642 899.392 59.2325
31.0667 941.629 76.52
53.4763 959.25 82.1539
74.3165 933.281 82.125
51.6256 915.946 76.5299
55.9768 961.198 82.1476
78.2863 978.916 76.4596
99.4172 952.65 76.4237
76.817 935.228 82.1187
80.5728 980.751 75.2435
98.9837 996.463 59.1322
120.622 969.633 59.0785
101.704 954.486 75.2077
100.694 997.921 56.8927
112.624 1008.98 32.7061
134.753 981.698 32.7014
122.332 971.09 56.839
113.534 1009.8 29.7806
117.691 1013.73 1.19136
140.003 986.298 1.22283
135.663 982.512 29.7759
117.691 1013.73 -1.97713
113.549 1009.76 -30.5568
135.679 982.484 -30.4969
140.004 986.297 -1.94567
112.642 1008.94 -33.4812
100.734 997.863 -57.6436
122.364 971.033 -57.5539
134.771 981.667 -33.4214
99.0251 996.403 -59.8819
80.6229 980.674 -75.9869
101.749 954.406 -75.9136
120.655 969.574 -59.7922
78.3375 978.837 -77.202
56.0363 961.105 -82.881
76.8708 935.135 -82.8145
99.4635 952.569 -77.1288
53.5364 959.157 -82.8864
31.1302 941.534 -77.2431
51.6823 915.852 -77.2159
74.371 933.187 -82.8199
28.8145 939.736 -76.0372
9.82935 924.74 -59.9104
30.1148 899.312 -59.9124
49.3665 914.055 -76.01
8.05513 923.357 -57.6694
-4.63356 913.262 -33.4394
15.4532 888.015 -33.4411
28.3406 897.929 -57.6714
-5.59459 912.51 -30.5024
-10.0447 908.973 -1.90615
9.9699 883.794 -1.8875
14.4921 887.264 -30.5041
12.17 880.981 1.29513
16.6824 884.506 29.8887
36.2796 858.985 29.9115
31.6984 855.543 1.314
17.6556 885.246 32.8222
30.5079 895.176 56.9985
50.2877 869.427 57.0214
37.2528 859.725 32.845
32.305 896.534 59.2354
51.5508 911.289 75.3277
71.5823 885.216 75.3476
52.0848 870.784 59.2582
53.8967 913.053 76.5305
76.5877 930.388 82.1256
96.9033 903.943 82.1416
73.9282 886.98 76.5505
79.1206 932.297 82.1173
101.721 949.72 76.4224
122.345 922.867 76.4309
99.4363 905.852 82.1333
104.047 951.505 75.207
122.965 966.652 59.0779
143.991 939.3 59.1064
124.671 924.651 75.2156
124.726 968.054 56.8397
137.147 978.663 32.7021
158.548 950.859 32.7266
145.751 940.702 56.8681
138.09 979.443 29.7782
142.431 983.229 1.22509
163.973 955.264 1.24802
159.491 951.639 29.8027
142.432 983.227 -1.94214
138.106 979.415 -30.4934
159.504 951.614 -30.4726
163.974 955.262 -1.91921
137.165 978.632 -33.417
124.758 967.998 -57.5495
145.779 940.649 -57.5341
158.562 950.831 -33.3963
122.999 966.593 -59.7871
104.092 951.425 -75.9086
124.713 924.572 -75.8749
144.02 939.243 -59.7717
101.767 949.639 -77.1231
79.174 932.204 -82.8088
99.4861 905.76 -82.7845
122.388 922.786 -77.0894
76.6415 930.294 -82.8162
53.9529 912.96 -77.2123
73.9797 886.889 -77.1939
96.9536 903.85 -82.7919
51.6067 911.196 -76.0087
32.355 896.454 -59.9111
52.1299 870.706 -59.8967
71.6336 885.125 -75.9903
30.5556 895.098 -57.671
17.6682 885.184 -33.4407
37.2622 859.663 -33.426
50.3305 869.35 -57.6566
16.6926 884.448 -30.5028
12.1704 880.978 -1.8862
31.6989 855.54 -1.86733
36.2866 858.927 -30.4882
33.841 852.693 1.31634
38.4222 856.135 29.9138
57.4574 830.276 29.9357
52.8121 826.925 1.33519
39.4091 856.857 32.8479
52.444 866.559 57.0242
71.6558 840.446 57.0519
58.4443 830.998 32.8697
54.2655 867.884 59.2614
73.763 882.316 75.3508
93.2316 855.838 75.3872
73.4773 841.771 59.2892
76.1395 884.039 76.5537
99.1146 901.001 82.1448
118.886 874.099 82.1852
95.6081 857.561 76.5901
101.681 902.865 82.1358
124.59 919.879 76.4335
144.686 892.522 76.4658
121.453 875.963 82.1762
126.954 921.612 75.2189
146.273 936.26 59.1097
166.714 908.431 59.1454
147.05 894.254 75.2512
148.074 937.612 56.872
160.871 947.769 32.7305
181.62 919.521 32.7559
168.514 909.783 56.9078
161.84 948.516 29.8055
166.322 952.141 1.25086
187.187 923.736 1.27194
182.589 920.269 29.8309
166.322 952.139 -1.91719
161.852 948.491 -30.4706
182.599 920.246 -30.454
187.188 923.735 -1.89611
160.884 947.741 -33.3953
148.101 937.559 -57.5332
168.538 909.732 -57.5274
181.631 919.496 -33.3787
146.302 936.204 -59.7703
126.995 921.533 -75.8735
147.088 894.178 -75.8651
166.739 908.377 -59.7646
124.632 919.799 -77.0874
101.731 902.773 -82.7825
121.499 875.873 -82.7834
144.725 892.443 -77.079
99.1645 900.909 -82.7908
76.1906 883.947 -77.1928
95.6557 857.471 -77.1909
118.933 874.009 -82.7917
73.8138 882.225 -75.9893
54.3101 867.806 -59.8957
73.5186 841.694 -59.886
93.2789 855.749 -75.9875
52.4865 866.482 -57.6552
39.4181 856.795 -33.4247
58.4511 830.937 -33.409
71.695 840.371 -57.6455
38.429 856.077 -30.4863
33.8413 852.69 -1.8655
52.8124 826.922 -1.84665
57.462 830.219 -30.4706
54.891 824.037 1.33747
59.5363 827.388 29.9379
77.9857 801.17 29.9591
73.2775 797.916 1.3561
60.5367 828.09 32.8726
73.7482 837.538 57.0549
92.3743 811.05 57.0834
78.9861 801.872 32.8938
75.5941 838.828 59.2931
95.3484 852.894 75.3911
114.238 826.012 75.4306
94.2202 812.34 59.3216
97.7567 854.572 76.5947
121.034 871.11 82.1898
140.24 843.768 82.2345
116.647 827.69 76.6342
123.637 872.923 82.1805
146.87 889.482 76.4701
166.405 861.658 76.5077
142.842 845.581 82.2252
149.269 891.162 75.2553
168.934 905.339 59.1495
188.785 877.053 59.1822
168.805 863.338 75.2929
170.768 906.642 56.9116
183.874 916.381 32.7597
203.99 887.711 32.7837
190.619 878.356 56.9443
184.865 917.098 29.8336
189.463 920.566 1.27468
209.68 891.749 1.29474
204.981 888.428 29.8576
189.464 920.564 -1.89429
184.875 917.076 -30.4522
204.989 888.408 -30.4362
209.68 891.748 -1.87422
183.885 916.356 -33.378
170.792 906.592 -57.5267
190.64 878.308 -57.5198
203.999 887.688 -33.362
168.959 905.286 -59.7641
149.308 891.086 -75.8647
168.84 863.264 -75.8633
188.807 877.002 -59.7572
146.909 889.404 -77.0789
123.683 872.833 -82.7832
142.885 845.494 -82.7895
166.441 861.582 -77.0775
121.081 871.02 -82.7919
97.804 854.483 -77.1912
116.691 827.603 -77.1932
140.283 843.68 -82.7982
95.3954 852.806 -75.9872
75.6351 838.751 -59.8857
94.2587 812.264 -59.8773
114.282 825.926 -75.9891
73.7871 837.463 -57.6443
60.5432 828.029 -33.4078
78.9908 801.812 -33.3918
92.4106 810.976 -57.6359
59.5409 827.331 -30.4688
54.8912 824.034 -1.84478
73.2777 797.913 -1.82615
77.9884 801.114 -30.4528
75.2908 794.989 1.35833
79.999 798.243 29.9614
97.8521 771.662 29.9817
93.081 768.509 1.37658
81.0128 798.924 32.8966
94.401 808.102 57.0863
112.432 781.239 57.1131
98.8659 772.343 32.917
96.2718 809.353 59.3254
116.29 823.026 75.4344
134.589 795.747 75.4709
114.303 782.49 59.3523
118.731 824.655 76.6387
142.324 840.733 82.239
160.943 812.968 82.2801
137.03 797.376 76.6753
144.962 842.492 82.2295
168.525 858.569 76.5121
187.474 830.303 76.5478
163.581 814.727 82.2706
170.96 860.197 75.2968
190.94 873.911 59.186
210.186 845.186 59.2147
189.909 831.931 75.3324
192.805 875.168 56.9477
206.175 884.523 32.7871
225.657 855.44 32.8094
212.051 846.443 56.9764
207.186 885.212 29.8602
211.885 888.533 1.29731
231.455 859.314 1.31656
226.667 856.129 29.8826
211.885 888.532 -1.87244
207.194 885.191 -30.4344
226.675 856.11 -30.4184
231.455 859.313 -1.85319
206.185 884.5 -33.361
192.826 875.121 -57.5188
212.07 846.398 -57.5096
225.665 855.418 -33.345
190.962 873.861 -59.7568
170.995 860.123 -75.8628
189.941 831.859 -75.8608
210.206 845.138 -59.7475
168.561 858.493 -77.0776
145.004 842.405 -82.7897
163.621 814.643 -82.7937
187.507 830.23 -77.0757
142.367 840.646 -82.7987
118.775 824.568 -77.1936
137.071 797.291 -77.1935
160.983 812.883 -82.8026
116.334 822.939 -75.9888
96.3099 809.278 -59.877
114.339 782.416 -59.8677
134.63 795.663 -75.9888
94.4371 808.028 -57.6346
81.0173 798.864 -33.3906
98.8687 772.284 -33.3746
112.466 781.166 -57.6253
80.0016 798.186 -30.451
75.2909 794.986 -1.82428
93.0811 768.506 -1.80603
97.853 771.606 -30.4349
95.0277 765.541 1.37872
99.7988 768.694 29.9838
117.049 741.754 30.0033
112.215 738.704 1.3965
100.826 769.354 32.9196
114.392 778.249 57.1157
131.821 751.016 57.1403
118.077 742.413 32.939
116.288 779.461 59.3558
136.574 792.718 75.4744
154.272 765.053 75.5064
133.717 752.228 59.3803
139.048 794.296 76.6793
162.961 809.888 82.2842
180.978 781.716 82.3198
156.745 766.631 76.7113
165.635 811.591 82.2746
189.528 827.167 76.5517
207.87 798.479 76.5831
183.652 783.419 82.3102
191.997 828.741 75.3358
212.274 841.996 59.2181
230.901 812.848 59.2433
210.339 800.053 75.3672
214.168 843.209 56.9794
227.773 852.205 32.8124
246.613 822.717 32.8331
232.794 814.061 57.0046
228.801 852.868 29.885
233.588 856.053 1.31895
252.508 826.437 1.33743
247.641 823.379 29.9057
233.589 856.052 -1.8514
228.808 852.849 -30.4166
247.647 823.361 -30.4005
252.508 826.436 -1.83292
227.781 852.184 -33.3439
214.187 843.163 -57.5084
232.811 814.017 -57.497
246.62 822.697 -33.3277
212.294 841.948 -59.7468
192.029 828.67 -75.8601
210.368 799.984 -75.8553
230.919 812.802 -59.7354
189.561 827.094 -77.0755
165.674 811.507 -82.7936
183.689 783.337 -82.7933
207.9 798.409 -77.0707
163.001 809.803 -82.8027
139.089 794.211 -77.1936
156.783 766.548 -77.1901
181.015 781.633 -82.8024
136.615 792.634 -75.9883
116.323 779.388 -59.8672
133.75 752.156 -59.8566
154.309 764.971 -75.9848
114.426 778.177 -57.624
100.829 769.295 -33.3732
118.078 742.355 -33.3573
131.852 750.945 -57.6135
99.7997 768.639 -30.4331
95.0277 765.538 -1.80418
112.215 738.701 -1.7864
117.049 741.699 -30.4171
114.095 735.697 1.39855
118.929 738.746 30.0053
135.571 711.451 30.0237
130.675 708.508 1.4158
119.97 739.384 32.9414
133.714 747.987 57.1427
150.533 720.391 57.1649
136.612 712.088 32.9599
135.634 749.158 59.3834
156.189 761.983 75.5094
173.274 733.942 75.5371
152.453 721.562 59.4056
158.695 763.507 76.7149
182.928 778.592 82.3233
200.329 750.027 82.3537
175.78 735.466 76.7426
185.638 780.238 82.3136
209.855 795.298 76.5866
227.573 766.205 76.6139
203.038 751.673 82.344
212.358 796.817 75.3702
232.92 809.612 59.2463
250.911 780.059 59.2687
230.076 767.724 75.3975
234.84 810.781 57.0072
248.659 819.437 32.8357
266.848 789.551 32.855
252.831 781.227 57.0295
249.702 820.074 29.9079
254.569 823.131 1.33966
272.831 793.125 1.35741
267.892 790.188 29.9272
254.569 823.131 -1.83114
249.708 820.056 -30.3987
267.897 790.172 -30.3826
272.831 793.124 -1.81339
248.666 819.417 -33.3263
234.857 810.738 -57.4956
252.847 781.186 -57.4828
266.854 789.533 -33.3102
232.938 809.567 -59.7344
212.387 796.749 -75.8543
230.102 767.658 -75.8467
250.927 780.015 -59.7216
209.885 795.228 -77.0703
185.674 780.156 -82.7928
203.071 751.594 -82.7885
227.601 766.137 -77.0627
182.965 778.51 -82.802
158.733 763.425 -77.1898
175.815 735.386 -77.1832
200.363 749.948 -82.7978
156.227 761.901 -75.984
135.667 749.086 -59.8558
152.484 721.492 -59.844
173.308 733.862 -75.9774
133.745 747.916 -57.612
119.97 739.325 -33.3558
136.611 712.031 -33.3399
150.561 720.322 -57.6002
118.928 738.692 -30.4153
114.095 735.694 -1.78457
130.674 708.505 -1.76732
135.569 711.397 -30.3994
132.486 705.462 1.41776
137.383 708.405 30.0257
153.411 680.762 30.043
148.452 677.928 1.43443
138.437 709.019 32.9621
152.357 717.322 57.1672
168.559 689.371 57.1871
154.465 681.376 32.9794
154.302 718.451 59.4082
175.123 730.83 75.5398
191.586 702.423 75.5638
170.504 690.501 59.4282
177.661 732.301 76.7456
202.21 746.862 82.3567
218.982 717.917 82.3826
194.124 703.893 76.7696
204.954 748.448 82.347
229.489 762.98 76.6168
246.57 733.497 76.6407
221.726 719.504 82.3729
232.024 764.444 75.4001
252.859 776.779 59.2713
270.202 746.832 59.2915
249.104 734.961 75.4239
254.805 777.903 57.0319
268.822 786.228 32.8574
286.351 755.956 32.8756
272.149 747.957 57.0521
269.88 786.84 29.9293
274.819 789.776 1.35949
292.415 759.387 1.37653
287.409 756.568 29.9475
274.82 789.775 -1.81161
269.885 786.823 -30.3808
287.414 756.552 -30.365
292.415 759.386 -1.79457
268.828 786.209 -33.3088
254.82 777.862 -57.4813
272.162 747.917 -57.4678
286.356 755.938 -33.2929
252.875 776.735 -59.7204
232.05 764.378 -75.8455
249.128 734.898 -75.8358
270.217 746.791 -59.7069
229.517 762.913 -77.0618
204.987 748.369 -82.7877
221.756 719.427 -82.7804
246.595 733.433 -77.0522
202.244 746.782 -82.7971
177.696 732.221 -77.1824
194.156 703.815 -77.1734
219.012 717.84 -82.7897
175.157 730.751 -75.9763
154.333 718.381 -59.8429
170.533 690.432 -59.8301
191.618 702.345 -75.9673
152.386 717.253 -57.5987
138.435 708.962 -33.3384
154.462 681.32 -33.3227
168.586 689.304 -57.5859
137.38 708.351 -30.3976
132.486 705.459 -1.76552
148.452 677.925 -1.74886
153.406 680.709 -30.3818
150.195 674.844 1.43629
155.154 677.677 30.0449
170.562 649.697 30.0615
165.544 646.974 1.45235
156.221 678.268 32.9815
170.315 686.264 57.1892
185.894 657.969 57.2075
171.629 650.288 32.998
172.284 687.35 59.4305
193.366 699.272 75.5661
209.199 670.51 75.5871
187.863 659.055 59.4488
195.935 700.686 76.7722
220.793 714.711 82.3852
236.926 685.402 82.4075
211.768 671.925 76.7932
223.571 716.237 82.3754
248.415 730.231 76.6432
264.846 700.375 76.6642
239.703 686.928 82.3978
250.981 731.639 75.4263
272.079 743.51 59.2939
288.763 713.186 59.3123
267.412 701.782 75.4472
274.049 744.59 57.0543
288.251 752.589 32.8777
305.11 721.943 32.8948
290.733 714.266 57.0728
289.323 753.177 29.9494
294.329 755.996 1.37849
311.251 725.235 1.39485
306.182 722.531 29.9666
294.329 755.995 -1.79283
289.328 753.161 -30.3632
306.186 722.516 -30.3477
311.251 725.234 -1.77647
288.256 752.572 -33.2914
274.062 744.551 -57.4663
290.746 714.228 -57.4524
305.115 721.926 -33.2758
272.093 743.468 -59.7056
251.004 731.576 -75.8345
267.434 701.722 -75.8232
288.776 713.146 -59.6917
248.439 730.166 -77.0511
223.601 716.161 -82.7793
239.731 686.855 -82.7696
264.869 700.313 -77.0398
220.823 714.634 -82.7887
195.967 700.609 -77.1724
211.797 671.85 -77.1616
236.954 685.328 -82.779
193.397 699.195 -75.966
172.312 687.282 -59.8289
187.889 658.989 -59.8156
209.228 670.436 -75.9553
170.342 686.196 -57.5843
156.218 678.212 -33.3211
171.625 650.233 -33.3058
185.918 657.903 -57.571
155.149 677.625 -30.3801
150.195 674.841 -1.7471
165.543 646.972 -1.73105
170.556 649.646 -30.3647
167.218 643.853 1.45413
172.236 646.576 30.0632
187.02 618.268 30.079
181.942 615.659 1.46955
173.316 647.143 32.9999
187.581 654.824 57.2094
202.529 626.196 57.2261
188.099 618.835 33.0157
189.573 655.867 59.4509
210.909 667.322 75.5892
226.103 638.219 75.6078
204.521 627.239 59.4677
213.508 668.679 76.7954
238.666 682.156 82.4098
254.15 652.497 82.4293
228.703 639.576 76.814
241.476 683.621 82.4
266.619 697.068 76.6664
282.391 666.853 76.685
256.96 653.961 82.4195
269.215 698.419 75.4493
290.566 709.822 59.3144
306.581 679.135 59.3315
284.987 668.204 75.4678
292.559 710.859 57.0747
306.936 718.536 32.8968
323.117 687.528 32.9129
308.574 680.172 57.0918
308.021 719.1 29.9684
313.09 721.804 1.3967
329.329 690.682 1.41236
324.201 688.092 29.9845
313.09 721.803 -1.77476
308.025 719.084 -30.346
324.205 688.077 -30.3309
329.329 690.681 -1.7591
306.941 718.519 -33.2743
292.572 710.821 -57.4508
308.585 680.136 -57.4368
323.121 687.512 -33.2592
290.579 709.782 -59.6902
269.236 698.359 -75.8218
285.006 668.147 -75.8095
306.593 679.097 -59.6762
266.641 697.006 -77.0386
241.504 683.548 -82.7684
256.985 653.891 -82.7572
282.411 666.794 -77.0262
238.693 682.083 -82.7778
213.537 668.605 -77.1604
228.73 639.504 -77.1484
254.175 652.426 -82.7666
210.938 667.247 -75.9539
189.599 655.8 -59.8142
204.545 627.175 -59.8007
226.13 638.147 -75.942
187.605 654.759 -57.5695
173.311 647.088 -33.3042
188.093 618.782 -33.2893
202.551 626.133 -57.556
172.23 646.525 -30.363
167.217 643.851 -1.72934
181.942 615.656 -1.71392
187.012 618.218 -30.3481
183.547 612.502 1.47125
188.624 615.111 30.0807
202.776 586.487 30.0956
197.642 583.993 1.48602
189.716 615.654 33.0174
204.146 623.016 57.2279
218.457 594.067 57.2434
203.868 587.03 33.0323
206.16 624.014 59.4696
227.742 634.994 75.6096
242.291 605.563 75.6261
220.471 595.065 59.485
230.371 636.293 76.816
255.818 649.213 82.4313
270.644 619.218 82.4484
244.92 606.863 76.8325
258.66 650.616 82.4215
284.091 663.508 76.687
299.193 632.95 76.7035
273.486 620.62 82.4386
286.715 664.801 75.4697
308.309 675.733 59.3334
323.645 644.699 59.3491
301.818 634.244 75.4863
310.325 676.725 57.0936
324.867 684.081 32.9147
340.361 652.726 32.93
325.661 645.691 57.1094
325.964 684.621 29.9863
331.092 687.211 1.4141
346.641 655.742 1.42909
341.457 653.265 30.0015
331.092 687.21 -1.75744
325.968 684.606 -30.3292
341.461 653.251 -30.3146
346.641 655.741 -1.74246
324.872 684.065 -33.2576
310.336 676.689 -57.4352
325.671 645.657 -57.4213
340.365 652.71 -33.2429
308.321 675.695 -59.6748
286.734 664.744 -75.808
301.835 634.189 -75.795
323.656 644.662 -59.6608
284.111 663.449 -77.0249
258.684 650.546 -82.7558
273.509 620.553 -82.7435
299.211 632.893 -77.0119
255.843 649.143 -82.7653
230.398 636.222 -77.1471
244.943 606.794 -77.1344
270.667 619.15 -82.753
227.768 634.922 -75.9405
206.184 623.95 -59.7993
220.493 595.003 -59.7857
242.314 605.494 -75.9279
204.167 622.952 -57.5544
189.709 615.601 -33.2877
203.859 586.979 -33.2733
218.477 594.006 -57.5408
188.616 615.062 -30.3464
183.546 612.499 -1.71228
197.641 583.99 -1.6975
202.766 586.439 -30.332
199.176 580.802 1.48763
204.31 583.296 30.0972
217.825 554.368 30.1113
212.636 551.99 1.50176
205.414 583.814 33.034
220.003 590.852 57.245
233.67 561.595 57.2592
218.928 554.886 33.0481
222.039 591.805 59.4867
243.858 602.302 75.6278
257.753 572.557 75.6426
235.706 562.548 59.501
246.515 603.543 76.8343
272.24 615.899 82.4501
286.401 585.582 82.4652
260.41 573.798 76.849
275.112 617.238 82.4403
300.819 629.568 76.7053
315.245 598.682 76.7201
289.273 586.921 82.4554
303.471 630.804 75.488
325.298 641.258 59.3509
339.947 609.892 59.3655
317.897 599.918 75.5028
327.335 642.206 57.111
342.035 649.241 32.9317
356.833 617.551 32.9461
341.983 610.84 57.1257
343.143 649.756 30.0032
348.327 652.233 1.43074
363.178 620.43 1.44505
357.941 618.067 30.0176
348.327 652.232 -1.74086
343.147 649.742 -30.313
357.945 618.053 -30.2989
363.178 620.429 -1.72655
342.039 649.225 -33.2414
327.345 642.172 -57.4197
341.992 610.807 -57.406
356.837 617.536 -33.2273
325.309 641.222 -59.6593
303.488 630.749 -75.7935
317.912 599.866 -75.7801
339.956 609.857 -59.6456
300.837 629.512 -77.0105
275.134 617.172 -82.7421
289.293 586.857 -82.7291
315.26 598.628 -76.9971
272.262 615.831 -82.7516
246.539 603.475 -77.133
260.431 573.733 -77.1198
286.421 585.517 -82.7386
243.881 602.234 -75.9264
222.06 591.743 -59.7843
235.725 562.489 -59.7708
257.774 572.492 -75.9132
220.022 590.791 -57.5393
205.405 583.764 -33.2718
218.918 554.837 -33.2578
233.688 561.537 -57.5258
204.3 583.248 -30.3304
199.175 580.8 -1.69592
212.635 551.988 -1.68179
217.813 554.322 -30.3165
214.099 548.766 1.50329
219.288 551.144 30.1128
232.159 521.924 30.1261
226.918 519.663 1.51675
220.403 551.637 33.0496
235.144 558.346 57.2607
248.162 528.794 57.2738
233.274 522.417 33.0629
237.201 559.253 59.5025
259.248 569.263 75.6441
272.482 539.217 75.6572
250.219 529.701 59.5156
261.931 570.445 76.8505
287.923 582.228 82.4667
301.411 551.604 82.4799
275.166 540.399 76.8636
290.824 583.504 82.457
316.795 595.265 76.7217
330.536 564.067 76.735
304.312 552.88 82.4701
319.474 596.442 75.5044
341.523 606.416 59.3671
355.476 574.733 59.3806
333.214 565.244 75.5177
343.58 607.319 57.1272
358.43 614.031 32.9476
372.526 582.022 32.9612
357.533 575.636 57.1408
359.55 614.522 30.0192
364.786 616.884 1.44661
378.932 584.761 1.46019
373.646 582.513 30.0327
364.786 616.884 -1.72501
359.553 614.508 -30.2973
373.649 582.5 -30.2838
378.933 584.76 -1.71143
358.434 614.015 -33.2257
343.589 607.286 -57.4045
357.541 575.605 -57.391
372.53 582.007 -33.2122
341.533 606.381 -59.6441
319.489 596.39 -75.7786
333.228 565.194 -75.765
355.485 574.7 -59.6306
316.811 595.211 -76.9956
290.843 583.44 -82.7276
304.33 552.819 -82.7141
330.55 564.015 -76.982
287.943 582.164 -82.7371
261.953 570.379 -77.1184
275.185 540.336 -77.1049
301.429 551.542 -82.7235
259.269 569.198 -75.9118
237.22 559.194 -59.7693
250.236 529.644 -59.7559
272.501 539.155 -75.8982
235.162 558.288 -57.5243
220.392 551.588 -33.2563
233.262 522.37 -33.2429
248.178 528.738 -57.511
219.276 551.098 -30.315
214.098 548.764 -1.68027
226.918 519.661 -1.66681
232.146 521.88 -30.3015
228.31 516.408 1.51819
233.551 518.668 30.1276
245.774 489.168 30.14
240.483 487.027 1.53091
234.676 519.136 33.0643
249.564 525.513 57.2752
261.927 495.678 57.2871
246.9 489.636 33.0767
251.641 526.374 59.517
273.904 535.89 75.6586
286.473 505.557 75.67
264.003 496.539 59.5288
276.613 537.012 76.865
302.859 548.217 82.4813
315.668 517.301 82.4927
289.182 506.679 76.8764
305.787 549.429 82.4715
332.01 560.616 76.7363
345.059 529.12 76.7481
318.596 518.512 82.4829
334.714 561.734 75.5191
356.976 571.223 59.382
370.227 539.239 59.3946
347.763 530.238 75.5309
359.053 572.081 57.1422
374.045 578.467 32.9627
387.432 546.154 32.9756
372.303 540.097 57.1548
375.175 578.933 30.0342
380.462 581.181 1.46166
393.897 548.753 1.47469
388.562 546.62 30.0471
380.462 581.181 -1.70994
375.178 578.92 -30.2823
388.565 546.608 -30.2692
393.897 548.752 -1.69692
374.049 578.452 -33.2107
359.06 572.05 -57.3895
372.31 540.067 -57.3763
387.436 546.14 -33.1976
356.985 571.19 -59.6291
334.728 561.684 -75.7635
347.775 530.191 -75.7497
370.234 539.207 -59.6159
332.024 560.565 -76.9805
305.804 549.368 -82.7125
318.612 518.455 -82.6986
345.072 529.072 -76.9667
302.876 548.156 -82.722
276.632 536.95 -77.1033
289.199 506.62 -77.0896
315.684 517.243 -82.708
273.923 535.828 -75.8968
251.658 526.318 -59.7544
264.018 496.485 -59.7414
286.489 505.498 -75.8831
249.579 525.457 -57.5095
234.664 519.089 -33.2415
246.886 489.591 -33.2286
261.94 495.625 -57.4964
233.537 518.624 -30.3001
228.309 516.406 -1.66535
240.482 487.024 -1.65263
245.759 489.126 -30.2873
241.802 483.741 1.53227
247.093 485.882 30.1414
258.663 456.115 30.1529
253.325 454.093 1.54423
248.229 486.325 33.078
263.256 492.367 57.2884
274.958 462.262 57.299
259.799 456.558 33.0896
265.351 493.181 59.53
287.821 502.199 75.6712
299.717 471.593 75.681
277.053 463.076 59.5407
290.554 503.261 76.8776
317.041 513.882 82.4938
329.165 482.689 82.5033
302.451 472.655 76.8873
319.995 515.029 82.4841
346.457 525.637 76.7493
358.808 493.861 76.7595
332.119 483.836 82.4936
349.185 526.696 75.5322
371.649 535.696 59.3959
384.192 503.427 59.4073
361.536 494.919 75.5423
373.744 536.509 57.1562
388.873 542.566 32.9769
401.545 509.964 32.989
386.286 504.239 57.1676
390.012 543.008 30.0485
395.347 545.14 1.47608
408.065 512.422 1.48842
402.684 510.406 30.0605
395.347 545.14 -1.6955
390.015 542.995 -30.2678
402.687 510.394 -30.2552
408.065 512.421 -1.68316
388.876 542.552 -33.1962
373.751 536.479 -57.3749
386.292 504.211 -57.362
401.548 509.951 -33.1836
371.656 535.665 -59.6144
349.197 526.649 -75.7482
361.546 494.875 -75.7342
384.198 503.397 -59.6015
346.47 525.589 -76.9651
320.01 514.972 -82.697
332.132 483.782 -82.6825
358.819 493.815 -76.9511
317.056 513.825 -82.7065
290.571 503.202 -77.0881
302.465 472.599 -77.0741
329.179 482.635 -82.692
287.837 502.14 -75.8816
265.366 493.128 -59.7399
277.066 463.026 -59.727
299.732 471.538 -75.8676
263.269 492.314 -57.495
248.215 486.28 -33.2272
259.783 456.515 -33.215
274.969 462.212 -57.4821
247.078 485.84 -30.2859
241.802 483.738 -1.65125
253.324 454.091 -1.63928
258.647 456.075 -30.2737
254.571 450.778 1.54549
259.91 452.8 30.1542
270.821 422.779 30.1648
265.438 420.878 1.55669
261.055 453.217 33.0907
276.214 458.921 57.3002
287.25 428.561 57.3095
271.967 423.196 33.1014
278.327 459.689 59.5417
300.991 468.206 75.682
312.211 437.341 75.6898
289.363 429.329 59.551
303.748 469.207 76.8883
330.462 479.241 82.5043
341.896 447.786 82.5115
314.967 438.342 76.8961
333.44 480.323 82.4946
360.13 490.348 76.7605
371.777 458.306 76.7687
344.875 448.868 82.5018
362.88 491.346 75.5434
385.536 499.854 59.4085
397.364 467.315 59.4186
374.527 459.304 75.5517
387.647 500.62 57.1689
402.906 506.345 32.9902
414.857 473.471 33.0012
399.476 468.082 57.179
404.055 506.762 30.0618
409.435 508.778 1.48971
421.43 475.785 1.50119
416.007 473.888 30.0729
409.435 508.777 -1.68181
404.057 506.75 -30.2539
416.009 473.876 -30.242
421.43 475.784 -1.67033
402.909 506.332 -33.1822
387.653 500.592 -57.3606
399.481 468.055 -57.348
414.86 473.458 -33.1704
385.542 499.824 -59.6
362.89 491.302 -75.7327
374.536 459.263 -75.7183
397.37 467.287 -59.5874
360.14 490.302 -76.9495
333.453 480.269 -82.6809
344.886 448.818 -82.6657
371.786 458.263 -76.9351
330.475 479.187 -82.6904
303.762 469.151 -77.0725
314.98 438.29 -77.0581
341.907 447.736 -82.6752
301.005 468.151 -75.8661
278.339 459.639 -59.7255
289.374 429.281 -59.7127
312.223 437.29 -75.8517
276.225 458.872 -57.4808
261.039 453.175 -33.2136
271.949 423.156 -33.202
287.259 428.514 -57.468
259.893 452.76 -30.2724
254.57 450.776 -1.63797
265.437 420.876 -1.62676
270.803 422.741 -30.2607
266.611 417.536 1.55785
271.994 419.436 30.166
282.243 389.174 30.1756
276.818 387.394 1.56825
273.149 419.828 33.1024
288.432 425.193 57.3105
298.798 394.59 57.3184
283.398 389.565 33.1121
290.562 425.914 59.5519
313.41 433.926 75.6906
323.948 402.818 75.6962
300.928 395.311 59.5597
316.188 434.866 76.8968
343.116 444.31 82.5122
353.855 412.61 82.5169
326.726 403.758 76.9024
346.118 445.327 82.5025
373.02 454.764 76.7695
383.959 422.474 76.7756
356.857 413.626 82.5072
375.792 455.703 75.5526
398.629 463.713 59.4196
409.739 430.923 59.4284
386.731 423.413 75.5587
400.757 464.433 57.1801
416.139 469.823 33.0023
427.365 436.691 33.0125
411.867 431.643 57.189
417.297 470.214 30.0741
422.72 472.111 1.50238
433.989 438.858 1.51318
428.524 437.082 30.0842
422.72 472.11 -1.66904
417.299 470.202 -30.2407
428.526 437.071 -30.2293
433.989 438.857 -1.65824
416.141 469.809 -33.169
400.763 464.407 -57.3466
411.872 431.617 -57.3341
427.368 436.678 -33.1576
398.634 463.685 -59.5859
375.801 455.661 -75.7168
386.738 423.374 -75.7018
409.744 430.896 -59.5734
373.029 454.722 -76.9334
346.129 445.277 -82.664
356.866 413.58 -82.6478
383.967 422.434 -76.9184
343.128 444.26 -82.6735
316.2 434.815 -77.0564
326.736 403.71 -77.0413
353.865 412.563 -82.6573
313.422 433.875 -75.8501
290.572 425.867 -59.7112
300.937 395.267 -59.6985
323.958 402.771 -75.835
288.441 425.147 -57.4667
273.131 419.788 -33.2006
283.379 389.529 -33.1896
298.806 394.547 -57.454
271.976 419.399 -30.2595
266.61 417.534 -1.62553
276.817 387.392 -1.61513
282.224 389.139 -30.2485
277.917 384.026 1.5693
283.343 385.805 30.1767
292.924 355.314 30.1853
287.46 353.656 1.57885
284.506 386.171 33.113
299.906 391.196 57.3192
309.598 360.365 57.3253
294.088 355.68 33.1216
302.051 391.87 59.5603
325.072 399.377 75.6968
334.924 368.04 75.6997
311.743 361.038 59.5663
327.869 400.256 76.9028
354.999 409.108 82.5173
365.038 377.179 82.5188
337.722 368.919 76.9056
358.022 410.058 82.5077
385.124 418.906 76.776
395.35 386.386 76.7795
368.061 378.129 82.5092
387.916 419.784 75.5594
410.924 427.294 59.4291
421.311 394.269 59.4363
398.142 387.263 75.5629
413.068 427.967 57.1899
428.566 433.015 33.0134
439.064 399.642 33.0225
423.455 394.942 57.1971
429.733 433.38 30.0853
435.198 435.156 1.51425
445.736 401.658 1.52434
440.231 400.007 30.0944
435.198 435.155 -1.65701
429.735 433.369 -30.2281
440.233 399.996 -30.2171
445.736 401.657 -1.64692
428.569 433.002 -33.1562
413.073 427.942 -57.3327
423.459 394.917 -57.3201
439.067 399.629 -33.1453
410.929 427.267 -59.5718
387.923 419.745 -75.7002
398.148 387.227 -75.684
421.315 394.243 -59.5592
385.132 418.867 -76.9166
358.031 410.012 -82.646
368.069 378.087 -82.6281
395.357 386.349 -76.9004
355.008 409.062 -82.6554
327.88 400.209 -77.0394
337.73 368.876 -77.0232
365.046 377.136 -82.6376
325.082 399.33 -75.8334
302.06 391.827 -59.6969
311.75 360.999 -59.6842
334.933 367.997 -75.8172
299.914 391.153 -57.4527
284.487 386.135 -33.1883
294.067 355.647 -33.178
309.604 360.326 -57.4399
283.323 385.771 -30.2473
277.916 384.024 -1.61397
287.459 353.654 -1.60442
292.903 355.283 -30.237
288.485 350.263 1.57979
293.95 351.921 30.1863
302.861 321.213 30.1937
297.359 319.676 1.58846
295.121 352.261 33.1223
310.631 356.946 57.326
319.645 325.899 57.33
304.032 321.553 33.1297
312.791 357.573 59.5666
335.972 364.574 75.7
345.135 333.024 75.6994
321.805 326.526 59.5707
338.788 365.392 76.9056
366.104 373.652 82.5188
375.44 341.511 82.5163
347.951 333.842 76.9051
369.147 374.536 82.5092
396.436 382.793 76.7796
405.945 350.06 76.7797
378.483 342.395 82.5067
399.247 383.61 75.5633
422.416 390.615 59.4368
432.076 357.373 59.4421
408.755 350.877 75.5635
424.575 391.24 57.1979
440.184 395.941 33.0233
449.951 362.341 33.0312
434.235 357.998 57.2032
441.359 396.279 30.0953
446.864 397.93 1.5253
456.669 364.2 1.53462
451.125 362.679 30.1033
446.864 397.929 -1.64573
441.361 396.268 -30.216
451.128 362.668 -30.2053
456.669 364.199 -1.6364
440.187 395.928 -33.1439
424.579 391.216 -57.3187
434.239 357.975 -57.3057
449.953 362.328 -33.1333
422.42 390.59 -59.5575
399.253 383.574 -75.6824
408.761 350.844 -75.6645
432.08 357.349 -59.5445
396.443 382.756 -76.8984
369.155 374.494 -82.6261
378.49 342.357 -82.6059
405.951 350.026 -76.8805
366.112 373.609 -82.6355
338.797 365.349 -77.0212
347.958 333.803 -77.0033
375.446 341.472 -82.6153
335.98 364.532 -75.8155
312.798 357.533 -59.6825
321.81 326.49 -59.6694
345.142 332.986 -75.7976
310.637 356.907 -57.4386
295.1 352.228 -33.1767
304.01 321.523 -33.1669
319.649 325.864 -57.4255
293.929 351.89 -30.2359
288.484 350.261 -1.60334
297.358 319.674 -1.59467
302.839 321.185 -30.2261
298.31 316.259 1.58927
303.812 317.797 30.1945
312.049 286.883 30.2007
306.512 285.465 1.59702
304.99 318.111 33.1302
320.603 322.457 57.3305
328.936 291.207 57.332
313.228 287.198 33.1364
322.776 323.037 59.5706
346.106 329.535 75.6994
354.577 297.786 75.6947
331.109 291.787 59.5722
348.94 330.292 76.9047
376.429 337.961 82.5158
385.057 305.626 82.5083
357.411 298.544 76.9
379.49 338.78 82.5064
406.952 346.445 76.7794
415.741 313.52 76.7754
388.119 306.445 82.4988
409.78 347.201 75.5636
433.101 353.697 59.4422
442.031 320.257 59.445
418.569 314.275 75.5597
435.273 354.274 57.2037
450.989 358.616 33.0317
460.022 324.804 33.0383
444.204 320.834 57.2065
452.172 358.927 30.1041
457.716 360.447 1.53544
466.787 326.498 1.54401
461.205 325.115 30.1107
457.716 360.446 -1.63524
452.175 358.915 -30.2042
461.208 325.104 -30.1938
466.787 326.497 -1.62667
450.992 358.603 -33.1318
435.277 354.251 -57.3042
444.208 320.812 -57.2903
460.025 324.792 -33.1214
433.105 353.673 -59.5427
409.786 347.168 -75.6626
418.573 314.245 -75.6422
442.035 320.234 -59.5288
406.958 346.412 -76.8782
379.497 338.742 -82.6036
388.125 306.412 -82.58
415.746 313.489 -76.8578
376.435 337.923 -82.613
348.947 330.254 -77.001
357.416 298.51 -76.9806
385.063 305.592 -82.5894
346.113 329.497 -75.7957
322.782 323.002 -59.6675
331.114 291.756 -59.6537
354.583 297.753 -75.7753
320.607 322.422 -57.4242
304.968 318.082 -33.1656
313.205 287.171 -33.1563
328.939 291.177 -57.4104
303.789 317.768 -30.2251
298.308 316.257 -1.59367
306.511 285.464 -1.58592
312.026 286.858 -30.2159
307.388 282.026 1.5977
312.925 283.444 30.2014
320.486 252.334 30.2062
314.916 251.035 1.60449
314.111 283.733 33.1367
329.819 287.743 57.3323
337.469 256.302 57.3309
321.672 252.624 33.1415
332.004 288.276 59.5717
355.472 294.276 75.6942
363.248 262.344 75.6843
339.654 256.835 59.5703
358.321 294.973 76.8989
385.968 302.056 82.5072
393.888 269.546 82.4934
366.098 263.041 76.889
389.047 302.81 82.4979
416.669 309.884 76.7745
424.734 276.788 76.7654
396.967 270.3 82.484
419.513 310.578 75.5593
442.975 316.56 59.4447
451.174 282.943 59.4442
427.578 277.482 75.5502
445.161 317.087 57.2067
460.98 321.058 33.0385
469.278 287.049 33.0435
453.36 283.47 57.2062
462.17 321.34 30.1114
467.752 322.722 1.54466
476.088 288.566 1.55241
470.468 287.331 30.1164
467.752 322.722 -1.62553
462.173 321.328 -30.1926
470.471 287.319 -30.1823
476.088 288.565 -1.61778
460.983 321.045 -33.1198
445.165 317.066 -57.2887
453.364 283.45 -57.2732
469.281 287.036 -33.1095
442.979 316.538 -59.5267
419.517 310.549 -75.6402
427.583 277.455 -75.6164
451.178 282.922 -59.5112
416.674 309.854 -76.8552
389.052 302.777 -82.5774
396.972 270.271 -82.5493
424.739 276.761 -76.8314
385.974 302.022 -82.5867
358.327 294.94 -76.9779
366.103 263.013 -76.9542
393.893 269.517 -82.5586
355.478 294.243 -75.7732
332.009 288.246 -59.6516
339.658 256.81 -59.6367
363.253 262.316 -75.7495
329.822 287.713 -57.409
314.087 283.707 -33.155
321.647 252.602 -33.1462
337.471 256.277 -57.3941
312.901 283.419 -30.215
307.387 282.025 -1.58499
314.915 251.034 -1.5782
320.461 252.314 -30.2063
315.717 247.575 1.60503
321.286 248.874 30.2068
328.17 217.577 30.21
322.57 216.395 1.61083
322.479 249.138 33.1414
338.276 252.816 57.3309
345.241 221.195 57.3263
329.362 217.841 33.1447
340.473 253.305 59.5694
364.067 258.813 75.6833
371.147 226.713 75.6676
347.438 221.683 59.5648
366.93 259.452 76.8873
394.721 265.957 82.4916
401.93 233.293 82.4703
374.011 227.352 76.8715
397.815 266.647 82.4824
425.583 273.134 76.7637
432.924 239.891 76.7486
405.024 233.984 82.4611
428.442 273.767 75.5494
452.037 279.228 59.4433
459.502 245.455 59.4382
435.783 240.524 75.5342
454.236 279.704 57.206
470.154 283.282 33.0433
477.717 249.088 33.0462
461.701 245.931 57.2008
471.352 283.533 30.1168
476.971 284.768 1.55288
484.573 250.413 1.55972
478.915 249.339 30.1198
476.971 284.767 -1.61664
471.355 283.521 -30.1812
478.919 249.327 -30.1707
484.573 250.412 -1.6098
470.157 283.27 -33.1077
454.24 279.683 -57.2714
461.706 245.912 -57.2531
477.721 249.075 -33.0972
452.041 279.208 -59.5088
428.446 273.741 -75.614
435.788 240.501 -75.5861
459.507 245.436 -59.4905
425.587 273.108 -76.8283
397.82 266.618 -82.5462
405.029 233.959 -82.5126
432.929 239.868 -76.8004
394.726 265.928 -82.5554
366.935 259.424 -76.951
374.016 227.329 -76.9233
401.935 233.269 -82.5219
364.072 258.786 -75.7471
340.476 253.28 -59.6343
347.441 221.664 -59.618
371.152 226.691 -75.7194
338.278 252.792 -57.3927
322.455 249.117 -33.1448
329.337 217.824 -33.1364
345.243 221.176 -57.3764
321.262 248.853 -30.2054
315.716 247.574 -1.57734
322.568 216.394 -1.57154
328.145 217.561 -30.197
323.295 212.914 1.61122
328.895 214.096 30.2104
335.102 182.618 30.2117
329.475 181.551 1.61601
330.093 214.336 33.1443
345.973 217.689 57.326
352.254 185.896 57.3181
336.3 182.858 33.1457
348.18 218.134 59.5633
371.889 223.164 75.666
378.273 190.91 75.6443
354.461 186.341 59.5553
374.765 223.746 76.869
402.684 229.687 82.4678
409.181 196.894 82.4386
381.149 191.492 76.8474
405.792 230.315 82.4587
433.692 236.223 76.7462
440.306 202.862 76.7242
412.289 197.521 82.4294
436.565 236.794 75.5326
460.284 241.725 59.4366
467.013 207.818 59.4244
443.179 203.433 75.5107
462.495 242.146 57.2
478.511 245.304 33.0454
485.338 210.934 33.0456
469.224 208.239 57.1879
479.716 245.52 30.1201
485.374 246.594 1.55996
492.239 212.047 1.56579
486.543 211.151 30.1203
485.375 246.594 -1.60864
479.72 245.509 -30.1695
486.548 211.139 -30.1584
492.24 212.046 -1.60281
478.516 245.291 -33.095
462.5 242.127 -57.251
469.23 208.222 -57.2279
485.343 210.921 -33.0839
460.289 241.706 -59.4876
436.57 236.771 -75.5832
443.186 203.413 -75.5507
467.019 207.801 -59.4645
433.697 236.2 -76.7968
405.797 230.291 -82.5089
412.295 197.502 -82.4695
440.313 202.842 -76.7643
402.69 229.664 -82.5181
374.77 223.724 -76.9195
381.155 191.476 -76.8877
409.187 196.874 -82.4787
371.894 223.142 -75.7166
348.183 218.115 -59.6152
354.465 186.328 -59.5972
378.279 190.894 -75.6848
345.975 217.671 -57.3748
330.069 214.32 -33.1349
336.276 182.847 -33.1264
352.257 185.884 -57.3568
328.87 214.08 -30.1962
323.294 212.913 -1.57073
329.473 181.55 -1.56593
335.077 182.608 -30.1877
330.126 178.05 1.61617
335.753 179.117 30.2119
341.297 147.464 30.2087
335.648 146.511 1.62001
336.957 179.333 33.1449
352.911 182.371 57.3173
358.515 150.415 57.3034
342.5 147.681 33.1417
355.127 182.774 59.5531
378.938 187.343 75.6421
384.627 154.952 75.6134
360.731 150.817 59.5393
381.825 187.872 76.844
409.857 193.273 82.4352
415.638 160.376 82.3965
387.514 155.48 76.8153
412.977 193.841 82.4261
440.994 199.181 76.7209
446.874 165.739 76.6894
418.758 160.943 82.3874
443.88 199.69 75.508
467.714 204.076 59.4217
473.693 170.056 59.397
449.759 166.248 75.4765
469.936 204.438 57.1861
486.05 207.133 33.0439
492.123 172.592 33.0388
475.916 170.419 57.1614
487.262 207.312 30.1202
492.958 208.208 1.56571
499.068 173.47 1.57021
493.336 172.771 30.115
492.958 208.208 -1.60159
487.267 207.3 -30.1572
493.342 172.761 -30.1433
499.068 173.47 -1.59709
486.055 207.121 -33.0811
469.942 204.422 -57.225
475.924 170.404 -57.192
492.13 172.581 -33.0672
467.72 204.059 -59.4608
443.886 199.671 -75.547
449.768 166.231 -75.5074
473.702 170.042 -59.4277
441.001 199.162 -76.7599
412.983 193.822 -82.4651
418.767 160.928 -82.4182
446.883 165.722 -76.7204
409.864 193.254 -82.4742
381.831 187.856 -76.8833
387.523 155.47 -76.846
415.648 160.361 -82.4273
378.944 187.328 -75.6815
355.131 182.762 -59.594
360.737 150.813 -59.5714
384.636 154.942 -75.6442
352.913 182.36 -57.355
336.932 179.324 -33.1246
342.477 147.679 -33.1132
358.52 150.411 -57.3324
335.729 179.107 -30.1869
330.125 178.05 -1.56508
335.646 146.511 -1.56124
341.274 147.463 -30.1754
336.23 142.992 1.61933
341.879 143.945 30.208
346.827 112.136 30.1807
341.172 111.297 1.62238
343.085 144.139 33.1388
359.1 146.873 57.3006
364.072 114.77 57.2494
348.033 112.33 33.1115
361.322 147.235 59.5345
385.218 151.37 75.6087
390.226 118.861 75.5403
366.293 115.132 59.4833
388.111 151.848 76.8092
416.236 156.744 82.3904
421.287 123.774 82.3122
393.12 119.339 76.7409
419.363 157.255 82.3815
447.479 162.05 76.6835
452.58 128.574 76.6133
424.415 124.285 82.3032
450.374 162.496 75.4709
474.309 166.305 59.3914
479.479 132.185 59.333
455.476 129.02 75.4007
476.54 166.602 57.1575
492.748 168.776 33.0349
497.983 134.056 33.0114
481.711 132.482 57.0991
493.965 168.912 30.1142
499.698 169.611 1.56936
504.952 134.671 1.57183
499.201 134.192 30.0907
499.698 169.611 -1.59547
493.972 168.902 -30.1417
499.21 134.184 -30.1132
504.952 134.671 -1.593
492.755 168.765 -33.0626
476.549 166.588 -57.1874
481.723 132.471 -57.1237
497.993 134.047 -33.0341
474.318 166.291 -59.4214
450.384 162.48 -75.5011
455.49 129.007 -75.4245
479.492 132.173 -59.3576
447.489 162.034 -76.7136
419.373 157.24 -82.4115
424.429 124.274 -82.3261
452.595 128.561 -76.637
416.245 156.729 -82.4204
388.12 151.838 -76.839
393.134 119.335 -76.763
421.302 123.763 -82.335
385.227 151.361 -75.6385
361.328 147.232 -59.5657
366.305 115.14 -59.5059
390.24 118.858 -75.5625
359.105 146.87 -57.3286
343.063 144.138 -33.1094
348.015 112.34 -33.0747
364.082 114.778 -57.2688
341.856 143.944 -30.1739
336.229 142.992 -1.5597
341.17 111.298 -1.55665
346.808 112.146 -30.1392
341.71 107.769 1.6163
347.365 108.607 30.1746
352.091 76.7408 29.9815
346.479 76.0173 1.61739
348.568 108.779 33.0943
364.607 111.218 57.2322
369.224 79.0618 56.8933
353.294 76.9119 32.9012
366.822 111.543 59.4589
390.755 115.271 75.516
395.22 82.7199 75.1063
371.439 79.3859 59.12
393.642 115.702 76.7139
421.809 120.137 82.2852
426.107 87.1524 81.8753
398.107 83.1509 76.3042
424.929 120.598 82.2775
453.095 124.887 76.5877
457.222 91.4598 76.2134
429.227 87.613 81.8676
455.989 125.266 75.3791
479.993 128.43 59.3114
484.045 94.1767 59.0773
460.117 91.8387 75.0049
482.222 128.65 57.0856
498.495 130.223 32.9979
502.432 95.2668 32.8591
486.274 94.3961 56.8515
499.709 130.31 30.0858
505.46 130.789 1.56695
509.34 95.5867 1.55845
503.647 95.3537 29.947
505.461 130.789 -1.58851
499.718 130.302 -30.1087
503.652 95.3484 -29.9774
509.34 95.5865 -1.597
498.504 130.215 -33.0201
482.235 128.639 -57.1097
486.296 94.3888 -56.8598
502.438 95.2613 -32.8888
480.007 128.418 -59.3349
456.005 125.252 -75.4018
460.14 91.8269 -75.0132
484.068 94.1686 -59.085
453.11 124.873 -76.6103
424.944 120.587 -82.2994
429.251 87.6055 -81.8785
457.245 91.4481 -76.2218
421.824 120.127 -82.3071
393.656 115.699 -76.7351
398.128 83.1534 -76.317
426.13 87.1456 -81.8863
390.769 115.269 -75.5372
366.834 111.551 -59.4805
371.46 79.4063 -59.1309
395.241 82.7237 -75.1191
364.617 111.228 -57.2508
348.55 108.79 -33.0567
353.285 76.9387 -32.8578
369.242 79.0832 -56.9011
347.346 108.618 -30.1325
341.709 107.77 -1.54995
346.478 76.0183 -1.54885
352.081 76.7668 -29.9337
347.14 72.5363 1.57542
352.753 73.2598 29.9395
359.85 42.1018 28.6534
354.498 41.4259 1.57305
353.922 73.4143 32.7838
369.851 75.5641 56.7759
376.202 44.2641 54.42
361.02 42.2562 31.4977
372.008 75.8578 58.9494
395.789 79.1918 74.9356
401.037 47.6285 71.9053
378.358 44.5578 56.5935
398.602 79.5823 76.1094
426.602 83.5839 81.6804
430.585 51.6602 78.469
403.85 48.019 73.079
429.644 84.0001 81.6778
457.638 87.847 76.0237
460.379 55.5659 73.1033
433.627 52.0764 78.4665
460.451 88.1841 74.8529
484.38 90.5221 58.9252
485.953 58.3827 56.6508
463.192 55.9029 71.9325
486.549 90.714 56.755
502.707 91.5847 32.7626
503.361 59.7954 31.4714
488.122 58.5746 54.4806
503.889 91.6592 29.9119
509.583 91.8921 1.52339
509.885 60.217 1.51294
504.542 59.8699 28.6207
509.583 91.8912 -1.56385
503.894 91.6531 -29.9442
504.537 59.8334 -28.6613
509.885 60.216 -1.57429
502.713 91.5779 -32.7918
486.572 90.7054 -56.7628
488.149 58.5413 -54.4709
503.357 59.7582 -31.5089
484.404 90.5135 -58.9312
460.476 88.1718 -74.8593
463.221 55.8904 -71.9267
485.981 58.3495 -56.6392
457.662 87.8355 -76.0307
429.668 83.9929 -81.6875
433.656 52.0731 -78.4677
460.408 55.5541 -73.0981
426.626 83.5777 -81.6906
398.624 79.5854 -76.1213
403.874 48.029 -73.0865
430.613 51.6579 -78.4707
395.81 79.1967 -74.9478
372.029 75.8793 -58.9597
378.376 44.598 -56.6053
401.061 47.6403 -71.9131
369.87 75.5872 -56.7834
353.913 73.4427 -32.7401
361.005 42.3015 -31.459
376.218 44.3059 -54.4291
352.742 73.2866 -29.8917
347.139 72.5381 -1.50688
354.497 41.4278 -1.50924
359.834 42.1455 -28.6106
355.354 38.0146 1.48885
360.706 38.6904 28.5692
368.755 8.26861 26.8209
363.739 7.64905 1.48098
361.812 38.8336 31.2593
376.994 40.8414 54.1816
384.088 10.259 50.9544
369.861 8.41174 29.511
379.033 41.1115 56.2379
401.711 44.1823 71.5497
407.377 13.3155 67.3112
386.127 10.5291 53.0107
404.372 44.5377 72.6612
431.107 48.1789 78.0512
435.068 16.9502 73.4248
410.037 13.6709 68.4226
433.984 48.5565 78.0502
460.736 52.046 72.687
462.959 20.502 68.3789
437.944 17.3278 73.4238
463.394 52.3684 71.577
486.155 54.8481 56.2953
486.846 23.2883 52.963
465.617 20.8244 67.2688
488.195 55.0588 54.2387
503.433 56.2796 31.2295
503.075 24.8996 29.4286
488.886 23.499 50.9064
504.539 56.3737 28.5347
509.882 56.7208 1.42693
509.144 25.4057 1.43669
504.181 24.9937 26.7338
509.881 56.718 -1.4881
504.534 56.3355 -28.5752
504.173 24.9284 -26.7585
509.144 25.4029 -1.47834
503.429 56.2389 -31.2662
488.221 55.022 -54.2282
488.903 23.4408 -50.8939
503.068 24.8318 -29.4496
486.183 54.8137 -56.2829
463.423 52.3546 -71.5704
465.638 20.8106 -67.2637
486.865 23.2325 -52.9486
460.765 52.0343 -72.6813
434.012 48.5534 -78.0508
437.965 17.3257 -73.4238
462.98 20.4903 -68.3747
431.135 48.1769 -78.0524
404.396 44.548 -72.6682
410.055 13.6825 -68.4274
435.088 16.9492 -73.4254
401.735 44.1952 -71.5574
379.05 41.1529 -56.2496
386.134 10.5841 -53.0228
407.395 13.3297 -67.3166
377.009 40.8852 -54.1913
361.796 38.8809 -31.2212
369.84 8.47534 -29.4854
384.093 10.3163 -50.9644
360.69 38.7351 -28.5275
355.353 38.0174 -1.42609
363.738 7.65187 -1.43397
368.734 8.32959 -26.7917
364.782 4.51788 1.35116
369.799 5.13744 26.6911
380.247 -21.0981 23.7818
375.825 -21.7197 1.33002
370.807 5.27163 29.1466
385.034 7.11893 50.59
393.854 -19.2047 45.2677
381.256 -20.9639 26.2373
386.898 7.36685 52.4675
408.148 10.1532 66.768
414.601 -16.4266 59.8158
395.718 -18.9568 47.1451
410.58 10.4744 67.7801
435.61 13.7536 72.7822
439.269 -13.155 65.2198
417.033 -16.1054 60.8279
438.237 14.0968 72.7779
463.252 17.2709 67.7329
464.081 -9.88004 60.6908
441.897 -12.8119 65.2154
465.676 17.5783 66.717
486.905 20.0422 52.4112
485.268 -7.0974 46.9548
466.505 -9.57266 59.6748
488.761 20.2654 50.5369
502.949 21.666 29.0591
499.638 -5.22467 26.1156
487.124 -6.87411 45.0805
503.955 21.7788 26.6062
508.919 22.1908 1.3091
505.034 -4.5335 1.32789
500.644 -5.11192 23.6627
508.919 22.1888 -1.34706
503.948 21.7143 -26.6272
500.644 -5.11403 -23.6631
505.034 -4.53545 -1.32827
502.942 21.5996 -29.0795
488.777 20.2086 -50.5238
487.124 -6.87835 -45.0805
499.638 -5.22869 -26.1153
486.921 19.9873 -52.3977
465.695 17.5655 -66.7128
466.505 -9.57498 -59.6745
485.268 -7.09965 -46.9544
463.271 17.2596 -67.7289
438.256 14.0949 -72.778
441.897 -12.8127 -65.2152
464.082 -9.88086 -60.6906
435.629 13.7524 -72.7825
410.596 10.4857 -67.7846
417.033 -16.1055 -60.8279
439.27 -13.1552 -65.2197
408.164 10.166 -66.7725
386.903 7.42041 -52.4787
395.718 -18.9552 -47.1453
414.601 -16.4251 -59.8159
385.039 7.17444 -50.6007
370.786 5.33346 -29.1217
381.255 -20.9603 -26.2369
393.854 -19.2012 -45.2672
369.778 5.19746 -26.6654
364.782 4.51974 -1.30772
375.824 -21.7178 -1.32886
380.247 -21.0963 -23.7806
-60.6128 1003.5 25.3421
-64.5493 1000.24 -0.420484
-60.5383 1003.43 -26.1799
-49.2076 1012.59 -48.0168
-32.2196 1026.28 -62.5923
-12.1658 1042.39 -67.6785
7.81724 1058.56 -62.5459
24.6449 1072.45 -48.0054
35.813 1081.93 -26.2186
39.7217 1085.31 -0.452366
35.8115 1081.94 25.3132
24.6336 1072.48 47.1034
7.78755 1058.63 61.6566
-12.2077 1042.48 66.802
-32.2684 1026.37 61.7282
-49.2863 1012.7 47.1739
382.635 -22.3855 1.31945e-05
387.058 -21.764 22.4517
399.656 -20.0048 41.4821
418.539 -17.4746 54.1528
440.776 -14.5241 58.5446
462.96 -11.5923 54.02
481.723 -9.11705 41.3
494.237 -7.4676 22.335
498.627 -6.88918 0.000239176
494.237 -7.46776 -22.3346
481.723 -9.11742 -41.2997
462.96 -11.5927 -54.0199
440.776 -14.5245 -58.5445
418.539 -17.4748 -54.1527
399.656 -20.0049 -41.4821
387.058 -21.764 -22.4517
</DataArray>
</Points>
<Cells>
<DataArray type="Int32" Name="connectivity" format="ascii">
0 1 2 3 
4 5 6 7 
8 9 10 11 
12 13 14 15 
16 17 18 19 
20 21 22 23 
24 25 26 27 
28 29 30 31 
32 33 34 35 
36 37 38 39 
40 41 42 43 
44 45 46 47 
48 49 50 51 
52 53 54 55 
56 57 58 59 
60 61 62 63 
64 65 66 67 
68 69 70 71 
72 73 74 75 
76 77 78 79 
80 81 82 83 
84 85 86 87 
88 89 90 91 
92 93 94 95 
96 97 98 99 
100 101 102 103 
104 105 106 107 
108 109 110 111 
112 113 114 115 
116 117 118 119 
120 121 122 123 
124 125 126 127 
128 129 130 131 
132 133 134 135 
136 137 138 139 
140 141 142 143 
144 145 146 147 
148 149 150 151 
152 153 154 155 
156 157 158 159 
160 161 162 163 
164 165 166 167 
168 169 170 171 
172 173 174 175 
176 177 178 179 
180 181 182 183 
184 185 186 187 
188 189 190 191 
192 193 194 195 
196 197 198 199 
200 201 202 203 
204 205 206 207 
208 209 210 211 
212 213 214 215 
216 217 218 219 
220 221 222 223 
224 225 226 227 
228 229 230 231 
232 233 234 235 
236 237 238 239 
240 241 242 243 
244 245 246 247 
248 249 250 251 
252 253 254 255 
256 257 258 259 
260 261 262 263 
264 265 266 267 
268 269 270 271 
272 273 274 275 
276 277 278 279 
280 281 282 283 
284 285 286 287 
288 289 290 291 
292 293 294 295 
296 297 298 299 
300 301 302 303 
304 305 306 307 
308 309 310 311 
312 313 314 315 
316 317 318 319 
320 321 322 323 
324 325 326 327 
328 329 330 331 
332 333 334 335 
336 337 338 339 
340 341 342 343 
344 345 346 347 
348 349 350 351 
352 353 354 355 
356 357 358 359 
360 361 362 363 
364 365 366 367 
368 369 370 371 
372 373 374 375 
376 377 378 379 
380 381 382 383 
384 385 386 387 
388 389 390 391 
392 393 394 395 
396 397 398 399 
400 401 402 403 
404 405 406 407 
408 409 410 411 
412 413 414 415 
416 417 418 419 
420 421 422 423 
424 425 426 427 
428 429 430 431 
432 433 434 435 
436 437 438 439 
440 441 442 443 
444 445 446 447 
448 449 450 451 
452 453 454 455 
456 457 458 459 
460 461 462 463 
464 465 466 467 
468 469 470 471 
472 473 474 475 
476 477 478 479 
480 481 482 483 
484 485 486 487 
488 489 490 491 
492 493 494 495 
496 497 498 499 
500 501 502 503 
504 505 506 507 
508 509 510 511 
512 513 514 515 
516 517 518 519 
520 521 522 523 
524 525 526 527 
528 529 530 531 
532 533 534 535 
536 537 538 539 
540 541 542 543 
544 545 546 547 
548 549 550 551 
552 553 554 555 
556 557 558 559 
560 561 562 563 
564 565 566 567 
568 569 570 571 
572 573 574 575 
576 577 578 579 
580 581 582 583 
584 585 586 587 
588 589 590 591 
592 593 594 595 
596 597 598 599 
600 601 602 603 
604 605 606 607 
608 609 610 611 
612 613 614 615 
616 617 618 619 
620 621 622 623 
624 625 626 627 
628 629 630 631 
632 633 634 635 
636 637 638 639 
640 641 642 643 
644 645 646 647 
648 649 650 651 
652 653 654 655 
656 657 658 659 
660 661 662 663 
664 665 666 667 
668 669 670 671 
672 673 674 675 
676 677 678 679 
680 681 682 683 
684 685 686 687 
688 689 690 691 
692 693 694 695 
696 697 698 699 
700 701 702 703 
704 705 706 707 
708 709 710 711 
712 713 714 715 
716 717 718 719 
720 721 722 723 
724 725 726 727 
728 729 730 731 
732 733 734 735 
736 737 738 739 
740 741 742 743 
744 745 746 747 
748 749 750 751 
752 753 754 755 
756 757 758 759 
760 761 762 763 
764 765 766 767 
768 769 770 771 
772 773 774 775 
776 777 778 779 
780 781 782 783 
784 785 786 787 
788 789 790 791 
792 793 794 795 
796 797 798 799 
800 801 802 803 
804 805 806 807 
808 809 810 811 
812 813 814 815 
816 817 818 819 
820 821 822 823 
824 825 826 827 
828 829 830 831 
832 833 834 835 
836 837 838 839 
840 841 842 843 
844 845 846 847 
848 849 850 851 
852 853 854 855 
856 857 858 859 
860 861 862 863 
864 865 866 867 
868 869 870 871 
872 873 874 875 
876 877 878 879 
880 881 882 883 
884 885 886 887 
888 889 890 891 
892 893 894 895 
896 897 898 899 
900 901 902 903 
904 905 906 907 
908 909 910 911 
912 913 914 915 
916 917 918 919 
920 921 922 923 
924 925 926 927 
928 929 930 931 
932 933 934 935 
936 937 938 939 
940 941 942 943 
944 945 946 947 
948 949 950 951 
952 953 954 955 
956 957 958 959 
960 961 962 963 
964 965 966 967 
968 969 970 971 
972 973 974 975 
976 977 978 979 
980 981 982 983 
984 985 986 987 
988 989 990 991 
992 993 994 995 
996 997 998 999 
1000 1001 1002 1003 
1004 1005 1006 1007 
1008 1009 1010 1011 
1012 1013 1014 1015 
1016 1017 1018 1019 
1020 1021 1022 1023 
1024 1025 1026 1027 
1028 1029 1030 1031 
1032 1033 1034 1035 
1036 1037 1038 1039 
1040 1041 1042 1043 
1044 1045 1046 1047 
1048 1049 1050 1051 
1052 1053 1054 1055 
1056 1057 1058 1059 
1060 1061 1062 1063 
1064 1065 1066 1067 
1068 1069 1070 1071 
1072 1073 1074 1075 
1076 1077 1078 1079 
1080 1081 1082 1083 
1084 1085 1086 1087 
1088 1089 1090 1091 
1092 1093 1094 1095 
1096 1097 1098 1099 
1100 1101 1102 1103 
1104 1105 1106 1107 
1108 1109 1110 1111 
1112 1113 1114 1115 
1116 1117 1118 1119 
1120 1121 1122 1123 
1124 1125 1126 1127 
1128 1129 1130 1131 
1132 1133 1134 1135 
1136 1137 1138 1139 
1140 1141 1142 1143 
1144 1145 1146 1147 
1148 1149 1150 1151 
1152 1153 1154 1155 
1156 1157 1158 1159 
1160 1161 1162 1163 
1164 1165 1166 1167 
1168 1169 1170 1171 
1172 1173 1174 1175 
1176 1177 1178 1179 
1180 1181 1182 1183 
1184 1185 1186 1187 
1188 1189 1190 1191 
1192 1193 1194 1195 
1196 1197 1198 1199 
1200 1201 1202 1203 
1204 1205 1206 1207 
1208 1209 1210 1211 
1212 1213 1214 1215 
1216 1217 1218 1219 
1220 1221 1222 1223 
1224 1225 1226 1227 
1228 1229 1230 1231 
1232 1233 1234 1235 
1236 1237 1238 1239 
1240 1241 1242 1243 
1244 1245 1246 1247 
1248 1249 1250 1251 
1252 1253 1254 1255 
1256 1257 1258 1259 
1260 1261 1262 1263 
1264 1265 1266 1267 
1268 1269 1270 1271 
1272 1273 1274 1275 
1276 1277 1278 1279 
1280 1281 1282 1283 
1284 1285 1286 1287 
1288 1289 1290 1291 
1292 1293 1294 1295 
1296 1297 1298 1299 
1300 1301 1302 1303 
1304 1305 1306 1307 
1308 1309 1310 1311 
1312 1313 1314 1315 
1316 1317 1318 1319 
1320 1321 1322 1323 
1324 1325 1326 1327 
1328 1329 1330 1331 
1332 1333 1334 1335 
1336 1337 1338 1339 
1340 1341 1342 1343 
1344 1345 1346 1347 
1348 1349 1350 1351 
1352 1353 1354 1355 
1356 1357 1358 1359 
1360 1361 1362 1363 
1364 1365 1366 1367 
1368 1369 1370 1371 
1372 1373 1374 1375 
1376 1377 1378 1379 
1380 1381 1382 1383 
1384 1385 1386 1387 
1388 1389 1390 1391 
1392 1393 1394 1395 
1396 1397 1398 1399 
1400 1401 1402 1403 
1404 1405 1406 1407 
1408 1409 1410 1411 
1412 1413 1414 1415 
1416 1417 1418 1419 
1420 1421 1422 1423 
1424 1425 1426 1427 
1428 1429 1430 1431 
1432 1433 1434 1435 
1436 1437 1438 1439 
1440 1441 1442 1443 
1444 1445 1446 1447 
1448 1449 1450 1451 
1452 1453 1454 1455 
1456 1457 1458 1459 
1460 1461 1462 1463 
1464 1465 1466 1467 
1468 1469 1470 1471 
1472 1473 1474 1475 
1476 1477 1478 1479 
1480 1481 1482 1483 
1484 1485 1486 1487 
1488 1489 1490 1491 
1492 1493 1494 1495 
1496 1497 1498 1499 
1500 1501 1502 1503 
1504 1505 1506 1507 
1508 1509 1510 1511 
1512 1513 1514 1515 
1516 1517 1518 1519 
1520 1521 1522 1523 
1524 1525 1526 1527 
1528 1529 1530 1531 
1532 1533 1534 1535 
1536 1537 1538 1539 
1540 1541 1542 1543 
1544 1545 1546 1547 
1548 1549 1550 1551 
1552 1553 1554 1555 
1556 1557 1558 1559 
1560 1561 1562 1563 
1564 1565 1566 1567 
1568 1569 1570 1571 
1572 1573 1574 1575 
1576 1577 1578 1579 
1580 1581 1582 1583 
1584 1585 1586 1587 
1588 1589 1590 1591 
1592 1593 1594 1595 
1596 1597 1598 1599 
1600 1601 1602 1603 
1604 1605 1606 1607 
1608 1609 1610 1611 
1612 1613 1614 1615 
1616 1617 1618 1619 
1620 1621 1622 1623 
1624 1625 1626 1627 
1628 1629 1630 1631 
1632 1633 1634 1635 
1636 1637 1638 1639 
1640 1641 1642 1643 
1644 1645 1646 1647 
1648 1649 1650 1651 
1652 1653 1654 1655 
1656 1657 1658 1659 
1660 1661 1662 1663 
1664 1665 1666 1667 
1668 1669 1670 1671 
1672 1673 1674 1675 
1676 1677 1678 1679 
1680 1681 1682 1683 
1684 1685 1686 1687 
1688 1689 1690 1691 
1692 1693 1694 1695 
1696 1697 1698 1699 
1700 1701 1702 1703 
1704 1705 1706 1707 
1708 1709 1710 1711 
1712 1713 1714 1715 
1716 1717 1718 1719 
1720 1721 1722 1723 
1724 1725 1726 1727 
1728 1729 1730 1731 
1732 1733 1734 1735 
1736 1737 1738 1739 
1740 1741 1742 1743 
1744 1745 1746 1747 
1748 1749 1750 1751 
1752 1753 1754 1755 
1756 1757 1758 1759 
1760 1761 1762 1763 
1764 1765 1766 1767 
1768 1769 1770 1771 
1772 1773 1774 1775 
1776 1777 1778 1779 
1780 1781 1782 1783 
1784 1785 1786 1787 
1788 1789 1790 1791 
1792 1793 1794 1795 
1796 1797 1798 1799 
1800 1801 1802 1803 
1804 1805 1806 1807 
1808 1809 1810 1811 
1812 1813 1814 1815 
1816 1817 1818 1819 
1820 1821 1822 1823 
1824 1825 1826 1827 
1828 1829 1830 1831 
1832 1833 1834 1835 
1836 1837 1838 1839 
1840 1841 1842 1843 
1844 1845 1846 1847 
1848 1849 1850 1851 
1852 1853 1854 1855 
1856 1857 1858 1859 
1860 1861 1862 1863 
1864 1865 1866 1867 
1868 1869 1870 1871 
1872 1873 1874 1875 
1876 1877 1878 1879 
1880 1881 1882 1883 
1884 1885 1886 1887 
1888 1889 1890 1891 
1892 1893 1894 1895 
1896 1897 1898 1899 
1900 1901 1902 1903 
1904 1905 1906 1907 
1908 1909 1910 1911 
1912 1913 1914 1915 
1916 1917 1918 1919 
1920 1921 1922 1923 
1924 1925 1926 1927 
1928 1929 1930 1931 
1932 1933 1934 1935 
1936 1937 1938 1939 
1940 1941 1942 1943 
1944 1945 1946 1947 
1948 1949 1950 1951 
1952 1953 1954 1955 
1956 1957 1958 1959 
1960 1961 1962 1963 
1964 1965 1966 1967 
1968 1969 1970 1971 
1972 1973 1974 1975 
1976 1977 1978 1979 
1980 1981 1982 1983 
1984 1985 1986 1987 
1988 1989 1990 1991 
1992 1993 1994 1995 
1996 1997 1998 1999 
2000 2001 2002 2003 
2004 2005 2006 2007 
2008 2009 2010 2011 
2012 2013 2014 2015 
2016 2017 2018 2019 
2020 2021 2022 2023 
2024 2025 2026 2027 
2028 2029 2030 2031 
2032 2033 2034 2035 
2036 2037 2038 2039 
2040 2041 2042 2043 
2044 2045 2046 2047 
2048 2049 2050 2051 2052 2053 2054 2055 2056 2057 2058 2059 2060 2061 2062 2063 
2064 2065 2066 2067 2068 2069 2070 2071 2072 2073 2074 2075 2076 2077 2078 2079 
</DataArray>
<DataArray type="Int32" Name="offsets" format="ascii">
4 8 12 16 20 24 28 32 36 40 44 48 52 56 60 64 68 72 76 80 84 88 92 96 100 104 108 112 116 120 124 128 132 136 140 144 148 152 156 160 164 168 172 176 180 184 188 192 196 200 204 208 212 216 220 224 228 232 236 240 244 248 252 256 260 264 268 272 276 280 284 288 292 296 300 304 308 312 316 320 324 328 332 336 340 344 348 352 356 360 364 368 372 376 380 384 388 392 396 400 404 408 412 416 420 424 428 432 436 440 444 448 452 456 460 464 468 472 476 480 484 488 492 496 500 504 508 512 516 520 524 528 532 536 540 544 548 552 556 560 564 568 572 576 580 584 588 592 596 600 604 608 612 616 620 624 628 632 636 640 644 648 652 656 660 664 668 672 676 680 684 688 692 696 700 704 708 712 716 720 724 728 732 736 740 744 748 752 756 760 764 768 772 776 780 784 788 792 796 800 804 808 812 816 820 824 828 832 836 840 844 848 852 856 860 864 868 872 876 880 884 888 892 896 900 904 908 912 916 920 924 928 932 936 940 944 948 952 956 960 964 968 972 976 980 984 988 992 996 1000 1004 1008 1012 1016 1020 1024 1028 1032 1036 1040 1044 1048 1052 1056 1060 1064 1068 1072 1076 1080 1084 1088 1092 1096 1100 1104 1108 1112 1116 1120 1124 1128 1132 1136 1140 1144 1148 1152 1156 1160 1164 1168 1172 1176 1180 1184 1188 1192 1196 1200 1204 1208 1212 1216 1220 1224 1228 1232 1236 1240 1244 1248 1252 1256 1260 1264 1268 1272 1276 1280 1284 1288 1292 1296 1300 1304 1308 1312 1316 1320 1324 1328 1332 1336 1340 1344 1348 1352 1356 1360 1364 1368 1372 1376 1380 1384 1388 1392 1396 1400 1404 1408 1412 1416 1420 1424 1428 1432 1436 1440 1444 1448 1452 1456 1460 1464 1468 1472 1476 1480 1484 1488 1492 1496 1500 1504 1508 1512 1516 1520 1524 1528 1532 1536 1540 1544 1548 1552 1556 1560 1564 1568 1572 1576 1580 1584 1588 1592 1596 1600 1604 1608 1612 1616 1620 1624 1628 1632 1636 1640 1644 1648 1652 1656 1660 1664 1668 1672 1676 1680 1684 1688 1692 1696 1700 1704 1708 1712 1716 1720 1724 1728 1732 1736 1740 1744 1748 1752 1756 1760 1764 1768 1772 1776 1780 1784 1788 1792 1796 1800 1804 1808 1812 1816 1820 1824 1828 1832 1836 1840 1844 1848 1852 1856 1860 1864 1868 1872 1876 1880 1884 1888 1892 1896 1900 1904 1908 1912 1916 1920 1924 1928 1932 1936 1940 1944 1948 1952 1956 1960 1964 1968 1972 1976 1980 1984 1988 1992 1996 2000 2004 2008 2012 2016 2020 2024 2028 2032 2036 2040 2044 2048 2064 2080 
</DataArray>
<DataArray type="UInt8" Name="types" format="ascii">
7 7 7 7 7 7 7 7 7 7 7 7 7 7 7 7 7 7 7 7 7 7 7 7 7 7 7 7 7 7 7 7 7 7 7 7 7 7 7 7 7 7 7 7 7 7 7 7 7 7 7 7 7 7 7 7 7 7 7 7 7 7 7 7 7 7 7 7 7 7 7 7 7 7 7 7 7 7 7 7 7 7 7 7 7 7 7 7 7 7 7 7 7 7 7 7 7 7 7 7 7 7 7 7 7 7 7 7 7 7 7 7 7 7 7 7 7 7 7 7 7 7 7 7 7 7 7 7 7 7 7 7 7 7 7 7 7 7 7 7 7 7 7 7 7 7 7 7 7 7 7 7 7 7 7 7 7 7 7 7 7 7 7 7 7 7 7 7 7 7 7 7 7 7 7 7 7 7 7 7 7 7 7 7 7 7 7 7 7 7 7 7 7 7 7 7 7 7 7 7 7 7 7 7 7 7 7 7 7 7 7 7 7 7 7 7 7 7 7 7 7 7 7 7 7 7 7 7 7 7 7 7 7 7 7 7 7 7 7 7 7 7 7 7 7 7 7 7 7 7 7 7 7 7 7 7 7 7 7 7 7 7 7 7 7 7 7 7 7 7 7 7 7 7 7 7 7 7 7 7 7 7 7 7 7 7 7 7 7 7 7 7 7 7 7 7 7 7 7 7 7 7 7 7 7 7 7 7 7 7 7 7 7 7 7 7 7 7 7 7 7 7 7 7 7 7 7 7 7 7 7 7 7 7 7 7 7 7 7 7 7 7 7 7 7 7 7 7 7 7 7 7 7 7 7 7 7 7 7 7 7 7 7 7 7 7 7 7 7 7 7 7 7 7 7 7 7 7 7 7 7 7 7 7 7 7 7 7 7 7 7 7 7 7 7 7 7 7 7 7 7 7 7 7 7 7 7 7 7 7 7 7 7 7 7 7 7 7 7 7 7 7 7 7 7 7 7 7 7 7 7 7 7 7 7 7 7 7 7 7 7 7 7 7 7 7 7 7 7 7 7 7 7 7 7 7 7 7 7 7 7 7 7 7 7 7 7 7 7 7 7 7 7 7 7 7 7 7 7 7 7 7 7 7 7 7 7 7 7 7 7 7 7 7 7 7 7 7 7 7 7 7 7 7 7 7 7 7 7 7 7 7 7 7 
</DataArray>
</Cells>
<CellData Scalars="cell variable 4" Vectors="cell vector">
<DataArray type="Float64" NumberOfComponents="3" Name="cell vector" format="ascii">
0.173256 0.0828613 0.981385
0.516673 0.186841 0.835547
0.778121 0.254947 0.574047
0.908644 0.342461 0.238926
0.771821 0.605817 -0.193074
0.357601 0.738827 -0.571189
-0.167521 -0.551637 0.817088
-0.0391377 -0.218138 0.975133
0.0472914 0.211926 0.976141
0.15114 0.562126 0.813124
0.349647 0.743632 0.569875
0.769682 0.608483 0.193229
0.907115 0.346817 -0.238453
0.770079 0.277119 -0.574616
-0.502861 -0.216305 0.836865
-0.183577 -0.0641706 0.980909
0.159516 0.113 0.980707
0.458076 0.315411 0.831073
0.684335 0.472232 0.555593
0.796731 0.571619 0.19614
0.762679 0.616532 -0.19547
0.582355 0.594414 -0.554558
-0.373464 -0.415238 0.829519
-0.130639 -0.147098 0.980457
0.130856 0.147521 0.980364
0.370176 0.419204 0.828998
0.580827 0.596309 0.554125
0.761923 0.617556 0.195189
0.795601 0.573111 -0.196374
0.682573 0.474361 -0.555946
-0.456522 -0.316922 0.831354
-0.161858 -0.109237 0.980749
0.159121 0.114491 0.980598
0.454727 0.321838 0.830448
0.679397 0.481014 0.554116
0.794799 0.57495 0.194234
0.769965 0.607393 -0.19552
0.574828 0.604519 -0.551479
-0.380492 -0.41074 0.828564
-0.134662 -0.143544 0.980439
0.134443 0.144582 0.980317
0.378843 0.413053 0.82817
0.574324 0.605309 0.551137
0.769286 0.608345 0.195233
0.79397 0.575998 -0.194518
0.678673 0.481757 -0.554358
-0.4539 -0.322261 0.830736
-0.160194 -0.111906 0.980722
0.160118 0.113744 0.980523
0.456999 0.319917 0.829943
0.683795 0.476194 0.552868
0.802543 0.56461 0.192718
0.781644 0.59223 -0.195692
0.505631 0.671059 -0.542233
-0.245445 0.833803 -0.494499
-0.613618 0.784352 -0.0909107
-0.614199 0.78433 0.0871016
-0.25836 0.837436 0.481612
0.506698 0.670455 0.541985
0.781001 0.593175 0.195399
0.801916 0.565405 -0.192997
0.683503 0.476406 -0.553047
-0.456318 -0.320121 0.830239
-0.160492 -0.111709 0.980695
0.161068 0.11275 0.980482
0.458853 0.317878 0.829704
0.685878 0.473802 0.552342
0.804438 0.562142 0.192031
0.78511 0.587579 -0.195841
0.561243 0.620615 -0.54758
-0.213774 0.836641 -0.504314
-0.593371 0.799967 -0.0892364
-0.593108 0.800144 0.0894036
-0.207829 0.835376 0.508875
0.562764 0.619401 0.547392
0.784886 0.58797 0.195565
0.804134 0.562495 -0.19227
0.685879 0.473643 -0.552478
-0.458415 -0.317749 0.829995
-0.161072 -0.111012 0.980679
0.161935 0.11136 0.980498
0.460923 0.314434 0.829868
0.688918 0.46903 0.552633
0.808825 0.555783 0.192115
0.793879 0.575576 -0.196133
0.60243 0.578252 -0.550185
-0.192506 0.840277 -0.50683
-0.576563 0.812882 -0.0824486
-0.576262 0.813053 0.0828676
-0.18462 0.838171 0.51321
0.60365 0.577148 0.550006
0.793786 0.575782 0.195905
0.808701 0.555897 -0.192306
0.689067 0.468685 -0.55274
-0.460655 -0.314068 0.830156
-0.161763 -0.109765 0.980706
0.163067 0.109369 0.980534
0.463973 0.309154 0.830152
0.693613 0.461495 0.553103
0.81529 0.546182 0.192321
0.804537 0.56048 -0.196421
0.633671 0.542177 -0.551819
-0.187875 0.848656 -0.494456
-0.561126 0.824663 -0.0711992
-0.560838 0.824822 0.071615
-0.178451 0.845975 0.502475
0.634565 0.541311 0.551643
0.804527 0.560564 0.196224
0.815282 0.546138 -0.192482
0.693826 0.461066 -0.553194
-0.46381 -0.308636 0.830436
-0.1628 -0.107852 0.980747
0.164476 0.106901 0.980571
0.46791 0.302418 0.830423
0.699685 0.451707 0.553535
0.823235 0.534063 0.192513
0.815716 0.543997 -0.196659
0.658388 0.510711 -0.552901
-0.198307 0.861768 -0.466938
-0.545913 0.835844 -0.0578157
-0.54565 0.835992 0.058165
-0.186859 0.858618 0.477345
0.659006 0.510097 0.552731
0.815758 0.543998 0.196481
0.823301 0.533909 -0.192658
0.699924 0.451239 -0.553615
-0.467811 -0.301801 0.830704
-0.164144 -0.105434 0.980786
0.166102 0.10407 0.980602
0.472509 0.294569 0.830641
0.706728 0.440178 0.553876
0.832138 0.520024 0.192669
0.826895 0.526781 -0.196842
0.678692 0.482584 -0.553616
-0.223745 0.87851 -0.422088
-0.530348 0.84662 -0.0443435
-0.530121 0.846751 0.0445589
-0.210128 0.875324 0.435493
0.679074 0.48223 0.553455
0.826955 0.526747 0.196679
0.832244 0.519806 -0.192801
0.706977 0.43969 -0.553947
-0.472447 -0.293886 0.830918
-0.165721 -0.102639 0.980817
0.167875 0.100962 0.980625
0.477552 0.285848 0.830804
0.714406 0.427278 0.554127
0.841599 0.504525 0.192786
0.837896 0.509048 -0.19698
0.69563 0.457274 -0.554075
-0.258726 0.895195 -0.362887
-0.514111 0.857115 -0.0322948
-0.513931 0.857223 0.0323037
-0.243353 0.892667 0.379373
0.695801 0.457198 0.553923
0.837949 0.509019 0.196828
0.84172 0.504275 -0.192909
0.714653 0.426783 -0.554191
-0.477509 -0.28512 0.831079
-0.167452 -0.0995567 0.980841
0.169733 0.0976398 0.980641
0.482835 0.276473 0.830923
0.722419 0.413342 0.55431
0.851328 0.487896 0.192871
0.848655 0.490862 -0.197079
0.709882 0.434451 -0.554364
-0.306554 0.908951 -0.282548
-0.497084 0.86741 -0.0225202
-0.496946 0.867494 0.0223373
-0.291627 0.908218 0.300155
0.709904 0.434595 0.554223
0.84869 0.490858 0.196935
0.85145 0.487637 -0.192986
0.722656 0.412849 -0.554368
-0.482798 -0.275716 0.831196
-0.169272 -0.0962578 0.980857
0.171624 0.0941562 0.980653
0.488196 0.266628 0.831008
0.730526 0.398658 0.554441
0.861104 0.470401 0.192932
0.859123 0.472272 -0.197147
0.722378 0.413093 -0.554548
-0.349794 0.915188 -0.200186
-0.479321 0.87751 -0.0150948
-0.479215 0.877573 0.0147683
-0.337691 0.916214 0.215679
0.722307 0.413391 0.554418
0.85914 0.472297 0.197011
0.861216 0.470151 -0.193041
0.730749 0.398176 -0.554492
-0.488159 -0.265853 0.831278
-0.171127 -0.0927961 0.980869
0.173511 0.0905461 0.980661
0.493544 0.256407 0.831065
0.738589 0.383382 0.55453
0.870769 0.452242 0.192975
0.869261 0.453322 -0.197193
0.733515 0.392815 -0.554663
-0.379791 0.915954 -0.129563
-0.46091 0.887394 -0.00970961
-0.460833 0.887439 0.00925295
-0.371365 0.917728 0.140938
0.733371 0.393255 0.554543
0.86926 0.45338 0.197064
0.870868 0.452006 -0.193078
0.738798 0.382914 -0.554576
-0.4935 -0.255622 0.831333
-0.172978 -0.0892098 0.980877
0.17537 0.0868327 0.980666
0.498808 0.245882 0.831103
0.746507 0.367639 0.554589
0.880213 0.433559 0.193004
0.879028 0.434066 -0.197223
0.743546 0.373378 -0.554732
-0.395246 0.915399 -0.0763255
-0.441965 0.897013 -0.00587738
-0.441902 0.897047 0.00537813
-0.390028 0.917014 0.08345
0.743384 0.373867 0.554621
0.879014 0.434149 0.1971
0.880299 0.433343 -0.193101
0.746699 0.367187 -0.55463
-0.498753 -0.245095 0.831369
-0.1748 -0.0855233 0.980883
0.177182 0.0830369 0.980669
0.503932 0.235121 0.831126
0.754197 0.351536 0.554626
0.889356 0.414473 0.193023
0.888397 0.414545 -0.197239
0.752706 0.354495 -0.554768
-0.399938 0.915769 -0.0376419
-0.422597 0.906312 -0.00311105
-0.422541 0.90634 0.00260453
-0.397011 0.916878 0.0414429
0.752547 0.354992 0.554665
0.888374 0.414649 0.197123
0.889429 0.414274 -0.193115
0.754374 0.351101 -0.554661
-0.503863 -0.234338 0.831389
-0.176574 -0.0817603 0.980886
0.178933 0.0791778 0.98067
0.508874 0.224186 0.831137
0.761597 0.335172 0.554644
0.898133 0.395089 0.193033
0.897345 0.394798 -0.197245
0.761198 0.335853 -0.55478
-0.398664 0.917067 -0.00742634
-0.402914 0.915237 -0.000927671
-0.402872 0.915256 0.000377968
-0.397261 0.917662 0.00890258
0.761004 0.33645 0.554684
0.897321 0.394909 0.197133
0.898203 0.394888 -0.19312
0.761763 0.334746 -0.554673
-0.508789 -0.223412 0.831397
-0.178284 -0.0779438 0.980887
0.180609 0.0752799 0.98067
0.5136 0.213138 0.831136
0.768664 0.318629 0.554645
0.9065 0.375493 0.193036
0.905852 0.374872 -0.197239
0.769135 0.31727 -0.554771
-0.39495 0.918497 0.0194138
-0.383028 0.923736 0.00119202
-0.382946 0.92377 -0.00149529
-0.395092 0.918415 -0.0204002
0.769069 0.317585 0.554683
0.905854 0.374923 0.197134
0.90656 0.375307 -0.193118
0.768811 0.318232 -0.554669
-0.513496 -0.212379 0.831395
-0.17992 -0.0740895 0.980887
0.182201 0.0713646 0.980668
0.518085 0.202038 0.831125
0.775359 0.302002 0.554629
0.914418 0.355779 0.193032
0.913917 0.354768 -0.197222
0.776766 0.298156 -0.554741
-0.39181 0.918813 0.0476137
-0.363004 0.931781 0.00347289
-0.36291 0.931817 -0.0036735
-0.39357 0.917865 -0.0512544
0.77674 0.298376 0.554659
0.913922 0.354808 0.197123
0.914468 0.355609 -0.193107
0.775492 0.301626 -0.554647
-0.517965 -0.20129 0.831381
-0.181475 -0.0702187 0.980885
0.183705 0.0674514 0.980665
0.522312 0.190949 0.831101
0.781652 0.285386 0.554594
0.921853 0.336052 0.193019
0.921527 0.33452 -0.197193
0.784228 0.278052 -0.554684
-0.391872 0.916398 0.0815488
-0.342937 0.939337 0.00631873
-0.342871 0.939359 -0.00662189
-0.395094 0.914448 -0.087671
0.78413 0.278473 0.554611
0.921516 0.334603 0.197102
0.921899 0.335888 -0.193087
0.781777 0.285018 -0.554607
-0.52218 -0.190203 0.831355
-0.182944 -0.0663513 0.980882
0.185115 0.0635665 0.980659
0.526269 0.179938 0.831061
0.787523 0.268882 0.554536
0.928778 0.316423 0.192995
0.928659 0.314202 -0.197151
0.791519 0.256765 -0.55459
-0.397077 0.909273 0.124709
-0.322961 0.946356 0.0103413
-0.322868 0.946386 -0.0104679
-0.401607 0.906076 -0.133187
0.791492 0.256986 0.554525
0.928659 0.314257 0.197068
0.928814 0.316282 -0.193056
0.787634 0.268545 -0.554542
-0.526126 -0.179197 0.831312
-0.184325 -0.0625092 0.980876
0.186432 0.0597378 0.98065
0.529947 0.169095 0.831001
0.792949 0.252629 0.554447
0.935164 0.297044 0.192958
0.935309 0.293857 -0.197091
0.798725 0.233742 -0.554439
-0.408911 0.89462 0.18013
-0.303175 0.952801 0.0159503
-0.30306 0.952838 -0.0159281
-0.414394 0.889934 -0.190515
0.79874 0.233825 0.554383
0.935319 0.293877 0.197017
0.935194 0.296918 -0.193008
0.793047 0.252323 -0.554445
-0.529795 -0.168351 0.831249
-0.185612 -0.0587242 0.980867
0.187653 0.0560092 0.980637
0.533337 0.158538 0.830913
0.797909 0.236802 0.554315
0.940987 0.278089 0.192901
0.941476 0.273515 -0.197006
0.805866 0.208433 -0.554198
-0.426024 0.870606 0.246068
-0.283664 0.958636 0.0234725
-0.283549 0.958672 -0.0234083
-0.431903 0.864379 -0.257505
0.805895 0.208439 0.554154
0.941476 0.273561 0.196945
0.941006 0.277999 -0.192939
0.797998 0.236527 -0.554305
-0.533182 -0.15777 0.831159
-0.186807 -0.0550292 0.980854
0.188777 0.0524375 0.980619
0.536433 0.14843 0.830788
0.802384 0.221641 0.554126
0.946219 0.25979 0.192818
0.947166 0.2532 -0.19689
0.812912 0.180186 -0.553811
-0.444222 0.838665 0.315131
-0.264474 0.963828 0.0330016
-0.264416 0.963837 -0.0331985
-0.450553 0.830396 -0.327786
0.812927 0.180212 0.55378
0.947113 0.253432 0.196846
0.946214 0.259792 -0.19284
0.802466 0.221391 -0.554107
-0.536284 -0.147598 0.831032
-0.187912 -0.0514729 0.980836
0.189804 0.0490824 0.980594
0.539228 0.138988 0.830611
0.806344 0.207494 0.553855
0.950819 0.242511 0.192695
0.952384 0.23294 -0.196735
0.81982 0.147922 -0.553186
-0.459335 0.803435 0.378818
-0.245603 0.968369 0.0440481
-0.246014 0.968143 -0.0466474
-0.473269 0.781266 -0.406989
0.819392 0.15015 0.553219
0.952207 0.233694 0.196695
0.950803 0.242558 -0.192716
0.806435 0.207197 -0.553834
-0.539097 -0.138039 0.830855
-0.188927 -0.0481407 0.98081
0.190733 0.0460344 0.980562
0.541712 0.130505 0.830372
0.809759 0.194815 0.553477
0.954737 0.226749 0.192518
0.957078 0.213016 -0.196535
0.826196 0.111516 -0.552236
-0.46742 0.773281 0.428433
-0.227073 0.972161 0.0577928
-0.227363 0.971973 -0.0597817
-0.490843 0.729296 -0.476655
0.825816 0.113935 0.55231
0.956961 0.213574 0.196501
0.954741 0.226713 -0.19254
0.809856 0.194474 -0.553455
-0.541603 -0.129425 0.830612
-0.189849 -0.0451509 0.980775
0.191546 0.0434249 0.980523
0.543848 0.123377 0.830065
0.812582 0.18419 0.552978
0.957926 0.213095 0.192271
0.961265 0.193491 -0.196293
0.831836 0.0685673 -0.550771
-0.467213 0.754754 0.460498
-0.208388 0.975475 0.0708745
-0.208654 0.975284 -0.0727004
-0.474648 0.740608 -0.475614
0.831503 0.0713223 0.550922
0.961177 0.193937 0.196285
0.957965 0.212917 -0.192275
0.812704 0.183747 -0.552947
-0.54378 -0.122092 0.830299
-0.19067 -0.042628 0.980728
0.192186 0.0414123 0.980484
0.545533 0.118075 0.82973
0.814726 0.176308 0.552392
0.960319 0.202353 0.191941
0.964829 0.175134 -0.196043
0.836047 0.0159258 -0.548426
-0.457164 0.753397 0.472645
-0.188648 0.978764 0.080207
-0.189323 0.978311 -0.0840491
-0.459871 0.748335 -0.478031
0.835722 0.0205005 0.548771
0.964687 0.175912 0.196045
0.960376 0.20208 -0.191943
0.814881 0.175689 -0.552361
-0.545532 -0.116459 0.829959
-0.191354 -0.0407234 0.980676
0.192517 0.040114 0.980473
0.546492 0.114988 0.829533
0.815948 0.171875 0.551986
0.961709 0.195898 0.191678
0.967338 0.160905 -0.195873
0.837181 -0.0532898 -0.544323
-0.425604 0.785959 0.448474
-0.164957 0.982813 0.0828778
-0.165582 0.982416 -0.086264
-0.427119 0.783521 -0.451291
0.837165 -0.0494581 0.544709
0.967245 0.161484 0.195856
0.961782 0.195511 -0.191704
0.816122 0.171058 -0.551982
-0.54658 -0.112925 0.829758
-0.191795 -0.039581 0.980636
0.192276 0.0394478 0.980548
0.54602 0.11437 0.829929
0.815238 0.172752 0.55276
0.960877 0.199014 0.192635
0.967463 0.160391 -0.195676
0.824667 -0.19808 -0.529801
-0.306934 0.902251 0.302876
-0.123395 0.990189 0.065564
-0.123209 0.990282 -0.0645098
-0.299297 0.908845 -0.290555
0.824941 -0.195789 0.530225
0.96751 0.160078 0.195702
0.961056 0.198143 -0.192643
0.815473 0.1714 -0.552834
-0.546268 -0.111591 0.830144
-0.191779 -0.0391975 0.980655
0.191251 0.0363704 0.980867
0.544015 0.105376 0.832432
0.814596 0.158086 0.558071
0.963448 0.179873 0.198529
0.970722 0.140797 -0.194616
0.82958 -0.0183407 -0.558086
-0.555441 0.010562 0.831489
-0.195197 0.00189532 0.980762
0.195331 -0.00270862 0.980734
0.55542 -0.0131829 0.831465
0.829531 -0.0176953 0.55818
0.970687 0.140869 0.194739
0.963637 0.179036 -0.19837
0.814914 0.156611 -0.558022
-0.544518 -0.102671 0.832442
-0.190959 -0.0363531 0.980925
0.191461 0.0335575 0.980926
0.544594 0.0974317 0.833021
0.815865 0.146152 0.559467
0.965795 0.165035 0.200011
0.972602 0.125956 -0.195399
0.826786 0.0214624 -0.562107
-0.550197 0.00134513 0.835034
-0.192741 0.000356441 0.98125
0.193047 -0.00121426 0.981189
0.550021 -0.00597446 0.835129
0.826698 0.0220756 0.562213
0.972514 0.126513 0.195476
0.965918 0.164547 -0.199817
0.816176 0.145031 -0.559306
-0.545172 -0.0950558 0.832918
-0.191169 -0.0335642 0.980983
0.188662 0.0374846 0.981326
0.536719 0.110835 0.83645
0.804756 0.171605 0.56826
0.959231 0.188794 0.210318
0.975162 0.0668187 -0.211174
0.808954 -0.0669253 -0.58405
-0.537424 0.0428856 0.842221
-0.188241 0.0143514 0.982018
0.188389 -0.0137258 0.981999
0.535575 -0.0540081 0.842759
0.808794 -0.0675555 0.584199
0.97511 0.0693271 0.210606
0.95932 0.188469 -0.2102
0.805755 0.168601 -0.567744
-0.539287 -0.104124 0.83566
-0.188872 -0.0369842 0.981305
0.0108529 0.00980868 0.999893
0.00257188 0.000343963 0.999997
</DataArray>
<DataArray type="Float64" Name="cell vector length" format="ascii">
0.146352 0.129961 0.118011 0.0946752 0.0659833 0.120854 0.178223 0.174339 0.17032 0.171279 0.122579 0.0659482 0.0939031 0.115929 0.149764 0.154942 0.398915 0.374705 0.346251 0.315118 0.291108 0.323235 0.398273 0.432321 0.426714 0.382808 0.32096 0.291138 0.316158 0.349295 0.39559 0.406368 0.499676 0.476367 0.444137 0.403987 0.362457 0.399871 0.496181 0.54138 0.537385 0.484628 0.398065 0.362834 0.405263 0.446412 0.492727 0.505079 0.52624 0.501643 0.464871 0.414726 0.346566 0.207785 0.0922328 0.167625 0.16812 0.09251 0.208612 0.347159 0.415961 0.466677 0.516531 0.531 0.541145 0.514545 0.471875 0.409707 0.318407 0.176353 0.0781448 0.155805 0.155331 0.0774789 0.177185 0.319313 0.410987 0.473399 0.528651 0.545533 0.551247 0.522342 0.473697 0.400679 0.294642 0.1504 0.0598292 0.13894 0.138501 0.0593261 0.151577 0.295893 0.402064 0.475076 0.53604 0.555437 0.558511 0.527616 0.47415 0.393064 0.27805 0.132306 0.0440998 0.125184 0.124823 0.0436735 0.133603 0.279488 0.394526 0.475463 0.541124 0.562608 0.563655 0.531205 0.47416 0.387406 0.266691 0.119776 0.0320465 0.114738 0.11443 0.0316269 0.121116 0.268234 0.388928 0.475458 0.544662 0.56772 0.567248 0.533617 0.473981 0.383318 0.25887 0.111093 0.0235185 0.107206 0.106937 0.0230492 0.112437 0.260472 0.384892 0.475298 0.547109 0.571318 0.569721 0.535205 0.473718 0.380372 0.253452 0.105519 0.0176714 0.102046 0.101802 0.0171216 0.106836 0.255078 0.381994 0.475074 0.548787 0.573821 0.571381 0.536205 0.473435 0.378274 0.249696 0.10135 0.0142372 0.0984965 0.098273 0.0135729 0.102633 0.251328 0.379936 0.474838 0.54991 0.575524 0.57248 0.536812 0.473146 0.376753 0.247051 0.0984142 0.0124746 0.0961263 0.0959185 0.0117186 0.0996537 0.248678 0.378448 0.474597 0.550654 0.576674 0.573196 0.537158 0.472863 0.375634 0.245173 0.0963408 0.0117398 0.0946636 0.094469 0.0109354 0.097534 0.246789 0.377355 0.474358 0.551141 0.577443 0.573641 0.537324 0.472598 0.374811 0.243841 0.0948676 0.0115427 0.0938462 0.0936637 0.0107229 0.0960157 0.245445 0.376553 0.474131 0.551448 0.577941 0.57389 0.537368 0.472355 0.37421 0.242905 0.0938156 0.0116095 0.0934984 0.0933238 0.0107874 0.0949248 0.244496 0.375968 0.473922 0.551626 0.578243 0.573992 0.537321 0.472137 0.373787 0.242272 0.0930737 0.0118129 0.0935136 0.0933456 0.0109938 0.0941504 0.243851 0.375561 0.473735 0.551711 0.578395 0.573964 0.5372 0.471947 0.373525 0.241897 0.0925513 0.0121648 0.09386 0.0936798 0.0113107 0.0936219 0.243473 0.375316 0.473571 0.551711 0.578415 0.573807 0.537003 0.471784 0.373424 0.241783 0.092188 0.0127209 0.0945422 0.0943537 0.0118497 0.0932539 0.243364 0.375233 0.473428 0.551625 0.578301 0.573496 0.536712 0.471647 0.373512 0.241987 0.0921301 0.0133955 0.0955601 0.0953889 0.0125624 0.0931733 0.243575 0.375338 0.47331 0.551439 0.578031 0.572977 0.536292 0.471535 0.373839 0.242619 0.0925062 0.014285 0.0970276 0.0968866 0.0135334 0.0935151 0.244216 0.375685 0.473214 0.551117 0.577552 0.572167 0.535682 0.471446 0.37449 0.243846 0.0934962 0.0156264 0.0991242 0.09901 0.0149713 0.0944889 0.245467 0.376356 0.473131 0.550597 0.576779 0.570941 0.534795 0.471376 0.375591 0.245922 0.0953839 0.0178116 0.102107 0.102021 0.0172829 0.0963922 0.247589 0.377476 0.473055 0.54979 0.575588 0.569122 0.533502 0.471319 0.377333 0.249221 0.0985787 0.0214576 0.106365 0.106257 0.021021 0.0996953 0.250954 0.37921 0.472968 0.548575 0.573805 0.566454 0.531612 0.471261 0.379994 0.254309 0.103731 0.0273722 0.112432 0.112419 0.0263085 0.104761 0.256013 0.381802 0.472864 0.546785 0.57119 0.562578 0.528852 0.471159 0.383939 0.26197 0.111647 0.0363723 0.120944 0.12024 0.0343712 0.113452 0.26359 0.385638 0.472717 0.54417 0.567392 0.556976 0.524803 0.470877 0.389575 0.273312 0.123449 0.04923 0.132617 0.132496 0.0483188 0.124431 0.274826 0.391149 0.472393 0.540333 0.561907 0.548723 0.518584 0.469735 0.396822 0.289568 0.140447 0.0663248 0.148587 0.148465 0.0657569 0.14116 0.290834 0.39822 0.471235 0.534458 0.553841 0.534836 0.506817 0.463817 0.401667 0.308878 0.161142 0.0880204 0.172506 0.172441 0.0872589 0.161276 0.309671 0.402807 0.465339 0.523309 0.540264 0.497937 0.470271 0.430676 0.377551 0.305178 0.155183 0.12915 0.227317 0.228619 0.132221 0.155355 0.305642 0.378479 0.432266 0.488268 0.503989 0.475169 0.447655 0.409646 0.362639 0.314882 0.35711 0.467811 0.514734 0.508617 0.450736 0.354503 0.315188 0.363525 0.411281 0.466604 0.481529 0.438406 0.41019 0.371921 0.328112 0.296223 0.326527 0.417039 0.456595 0.448878 0.394829 0.324035 0.296232 0.328815 0.373475 0.429938 0.445042 0.204033 0.177893 0.140929 0.0990132 0.0821864 0.133064 0.23438 0.282853 0.276827 0.216281 0.132998 0.0824497 0.0990271 0.139922 0.197009 0.20996 0.0427599 0.0152124 
</DataArray>
<DataArray type="Float64" Name="cell variable 4" format="ascii">
848.603 839.038 835.32 830.521 823.443 848.546 867.576 851.257 847.778 859.264 849.376 823.358 829.965 832.904 853.066 853.433 1112.99 1092.64 1080.37 1073.09 1070.03 1089.33 1126.37 1123.9 1117.44 1106.32 1089.39 1070.07 1072.94 1080.52 1121.46 1122.59 1314.57 1291.22 1276.14 1266.19 1260.75 1281.26 1328 1329.65 1323.19 1307.5 1281.47 1261 1266.32 1276.36 1325.39 1325.53 1358.92 1333 1314.28 1300.59 1290.3 1305.98 1407.5 1583.43 1581.63 1402.22 1305.49 1290.16 1300.52 1314.43 1368.18 1370.19 1368.49 1342.51 1324.31 1312.57 1305.05 1310.31 1392.92 1551.5 1550.32 1390.98 1309.64 1304.79 1312.46 1324.4 1377.88 1379.78 1371.77 1344.85 1325.21 1312.36 1304.18 1305.4 1378.9 1523.58 1522.7 1377.56 1305.06 1304.04 1312.31 1325.29 1380.24 1383.05 1373.95 1345.93 1324.66 1310.59 1302.01 1301.61 1367.88 1502.23 1501.57 1366.83 1301.36 1301.89 1310.56 1324.73 1381.41 1385.27 1375.57 1346.63 1324.04 1309.01 1300.19 1298.97 1359.9 1486.63 1486.12 1359.04 1298.78 1300.07 1308.97 1324.09 1382.26 1386.96 1376.85 1347.14 1323.49 1307.72 1298.75 1297.06 1354.49 1475.69 1475.3 1353.75 1296.91 1298.63 1307.66 1323.51 1382.97 1388.32 1377.83 1347.51 1323.03 1306.72 1297.64 1295.66 1350.66 1468.35 1468.04 1350.01 1295.54 1297.52 1306.65 1323.03 1383.57 1389.4 1378.5 1347.69 1322.66 1305.97 1296.79 1294.6 1348.61 1463.36 1463.11 1347.99 1294.49 1296.67 1305.89 1322.64 1384 1390.19 1378.97 1347.75 1322.37 1305.43 1296.15 1293.79 1347.64 1460.06 1459.87 1347.05 1293.69 1296.03 1305.34 1322.34 1384.32 1390.77 1379.3 1347.74 1322.1 1304.98 1295.63 1293.13 1347.33 1458.05 1457.9 1346.79 1293.03 1295.51 1304.89 1322.06 1384.57 1391.22 1379.5 1347.65 1321.83 1304.61 1295.2 1292.58 1347.36 1456.94 1456.82 1346.89 1292.48 1295.08 1304.51 1321.79 1384.75 1391.54 1379.59 1347.5 1321.57 1304.3 1294.85 1292.12 1347.55 1456.48 1456.4 1347.15 1292.02 1294.72 1304.2 1321.53 1384.85 1391.74 1379.55 1347.29 1321.32 1304.06 1294.57 1291.73 1347.84 1456.53 1456.46 1347.49 1291.62 1294.44 1303.96 1321.28 1384.89 1391.82 1379.4 1347.02 1321.08 1303.87 1294.35 1291.39 1348.27 1457.03 1456.96 1347.91 1291.28 1294.22 1303.77 1321.03 1384.84 1391.77 1379.13 1346.68 1320.84 1303.74 1294.19 1291.09 1348.88 1458 1457.95 1348.59 1290.99 1294.06 1303.62 1320.78 1384.71 1391.6 1378.76 1346.29 1320.6 1303.65 1294.09 1290.83 1349.58 1459.44 1459.43 1349.38 1290.73 1293.97 1303.54 1320.55 1384.5 1391.31 1378.28 1345.83 1320.37 1303.62 1294.06 1290.62 1350.39 1461.51 1461.55 1350.31 1290.5 1293.94 1303.52 1320.32 1384.22 1390.91 1377.67 1345.31 1320.15 1303.66 1294.1 1290.45 1351.45 1464.45 1464.56 1351.52 1290.35 1293.99 1303.56 1320.09 1383.86 1390.38 1376.91 1344.72 1319.96 1303.8 1294.25 1290.35 1353 1468.65 1468.84 1353.26 1290.29 1294.15 1303.7 1319.88 1383.4 1389.68 1375.98 1344.04 1319.81 1304.1 1294.55 1290.38 1355.44 1474.68 1474.96 1355.95 1290.44 1294.47 1303.96 1319.72 1382.85 1388.81 1374.81 1343.25 1319.75 1304.62 1295.1 1290.67 1359.39 1483.36 1483.71 1360.54 1290.57 1294.95 1304.48 1319.68 1382.21 1387.7 1373.32 1342.33 1319.79 1305.43 1295.93 1291.29 1365.42 1495.76 1494.81 1365.51 1290.96 1295.72 1305.31 1319.76 1381.42 1386.28 1371.32 1341.11 1319.85 1306.45 1296.95 1292.24 1374.11 1513.11 1513.35 1375.16 1292.07 1296.8 1306.33 1319.82 1380.29 1384.32 1367.71 1338.49 1318.69 1306.37 1296.96 1293.05 1385.76 1536.77 1536.87 1385.9 1292.73 1296.86 1306.29 1318.67 1377.68 1380.73 1355.28 1326.57 1307.45 1295.62 1286.53 1287.56 1398.33 1568.02 1567.79 1397.71 1286.66 1286.3 1295.53 1307.47 1365.49 1368.23 1286.38 1257.44 1236.07 1220.39 1207.46 1224.59 1406.85 1612.96 1612.11 1404.21 1224.03 1207.31 1220.29 1236 1294.11 1298.62 1229.43 1202.69 1183.82 1170.95 1162.63 1180.69 1240.33 1247.5 1239 1214.98 1180.9 1162.91 1171.07 1183.82 1237.72 1241.14 1107.48 1081.54 1061.1 1045.28 1035.13 1044.96 1096.44 1099.77 1089.28 1065.64 1044.8 1035.35 1045.45 1061.38 1112.9 1118.12 780.158 771.546 770.94 776.167 785.819 807.774 855.064 866.883 860.583 835.673 809.118 786.123 776.083 769.395 790.474 785.883 613.553 745.326 
</DataArray>
<DataArray type="Float64" Name="cell variable 5" format="ascii">
0.00469213 0.00469213 0.00469213 0.00469213 0.00469213 0.00469213 0.00469213 0.00469213 0.00469213 0.00469213 0.00469213 0.00469213 0.00469213 0.00469213 0.00469213 0.00469213 0.00469213 0.00469213 0.00469213 0.00469213 0.00469213 0.00469213 0.00469213 0.00469213 0.00469213 0.00469213 0.00469213 0.00469213 0.00469213 0.00469213 0.00469213 0.00469213 0.00469213 0.00469213 0.00469213 0.00469213 0.00469213 0.00469213 0.00469213 0.00469213 0.00469213 0.00469213 0.00469213 0.00469213 0.00469213 0.00469213 0.00469213 0.00469213 0.00709137 0.00656481 0.00571501 0.00490484 0.00469213 0.00469213 0.00469213 0.00469213 0.00469213 0.00469213 0.00469213 0.00469213 0.00490484 0.00571501 0.00656481 0.00709137 0.00802354 0.00729261 0.00611228 0.00498721 0.00469213 0.00469213 0.00469213 0.00469213 0.00469213 0.00469213 0.00469213 0.00469213 0.00498721 0.00611228 0.00729261 0.00802354 0.00856365 0.0077149 0.00634271 0.00503517 0.00469213 0.00469213 0.00469213 0.00469213 0.00469213 0.00469213 0.00469213 0.00469213 0.00503517 0.00634271 0.0077149 0.00856365 0.00895675 0.00802041 0.00651059 0.00507063 0.00469213 0.00469213 0.00469213 0.00469213 0.00469213 0.00469213 0.00469213 0.00469213 0.00507063 0.00651059 0.00802041 0.00895675 0.0092633 0.00826023 0.00664093 0.00509774 0.00469213 0.00469213 0.00469213 0.00469213 0.00469213 0.00469213 0.00469213 0.00469213 0.00509774 0.00664093 0.00826023 0.0092633 0.00951042 0.00845313 0.00674624 0.00511963 0.00469213 0.00469213 0.00469213 0.00469213 0.00469213 0.00469213 0.00469213 0.00469213 0.00511963 0.00674624 0.00845313 0.00951042 0.0097127 0.00861058 0.00683278 0.00513736 0.00469213 0.00469213 0.00469213 0.00469213 0.00469213 0.00469213 0.00469213 0.00469213 0.00513736 0.00683278 0.00861058 0.0097127 0.00987641 0.00873883 0.00690264 0.00515196 0.00469213 0.00469213 0.00469213 0.00469213 0.00469213 0.00469213 0.00469213 0.00469213 0.00515196 0.00690264 0.00873883 0.00987641 0.0100078 0.00884205 0.00695895 0.00516343 0.00469213 0.00469213 0.00469213 0.00469213 0.00469213 0.00469213 0.00469213 0.00469213 0.00516343 0.00695895 0.00884205 0.0100078 0.01011 0.0089213 0.0070017 0.00517281 0.00469213 0.00469213 0.00469213 0.00469213 0.00469213 0.00469213 0.00469213 0.00469213 0.00517281 0.0070017 0.0089213 0.01011 0.010185 0.00897969 0.00703402 0.00517907 0.00469213 0.00469213 0.00469213 0.00469213 0.00469213 0.00469213 0.00469213 0.00469213 0.00517907 0.00703402 0.00897969 0.010185 0.0102351 0.00901827 0.00705488 0.00518428 0.00469213 0.00469213 0.00469213 0.00469213 0.00469213 0.00469213 0.00469213 0.00469213 0.00518428 0.00705488 0.00901827 0.0102351 0.0102591 0.00903808 0.0070653 0.00518637 0.00469213 0.00469213 0.00469213 0.00469213 0.00469213 0.00469213 0.00469213 0.00469213 0.00518637 0.0070653 0.00903808 0.0102591 0.0102591 0.00903808 0.0070653 0.00518637 0.00469213 0.00469213 0.00469213 0.00469213 0.00469213 0.00469213 0.00469213 0.00469213 0.00518637 0.0070653 0.00903808 0.0102591 0.0102351 0.00901827 0.00705488 0.00518428 0.00469213 0.00469213 0.00469213 0.00469213 0.00469213 0.00469213 0.00469213 0.00469213 0.00518428 0.00705488 0.00901827 0.0102351 0.010185 0.00897969 0.00703402 0.00517907 0.00469213 0.00469213 0.00469213 0.00469213 0.00469213 0.00469213 0.00469213 0.00469213 0.00517907 0.00703402 0.00897969 0.010185 0.01011 0.0089213 0.0070017 0.00517281 0.00469213 0.00469213 0.00469213 0.00469213 0.00469213 0.00469213 0.00469213 0.00469213 0.00517281 0.0070017 0.0089213 0.01011 0.0100078 0.00884205 0.00695895 0.00516343 0.00469213 0.00469213 0.00469213 0.00469213 0.00469213 0.00469213 0.00469213 0.00469213 0.00516343 0.00695895 0.00884205 0.0100078 0.00987641 0.00873883 0.00690264 0.00515196 0.00469213 0.00469213 0.00469213 0.00469213 0.00469213 0.00469213 0.00469213 0.00469213 0.00515196 0.00690264 0.00873883 0.00987641 0.0097127 0.00861058 0.00683278 0.00513736 0.00469213 0.00469213 0.00469213 0.00469213 0.00469213 0.00469213 0.00469213 0.00469213 0.00513736 0.00683278 0.00861058 0.0097127 0.00951042 0.00845313 0.00674624 0.00511963 0.00469213 0.00469213 0.00469213 0.00469213 0.00469213 0.00469213 0.00469213 0.00469213 0.00511963 0.00674624 0.00845313 0.00951042 0.0092633 0.00826023 0.00664093 0.00509774 0.00469213 0.00469213 0.00469213 0.00469213 0.00469213 0.00469213 0.00469213 0.00469213 0.00509774 0.00664093 0.00826023 0.0092633 0.00895675 0.00802041 0.00651059 0.00507063 0.00469213 0.00469213 0.00469213 0.00469213 0.00469213 0.00469213 0.00469213 0.00469213 0.00507063 0.00651059 0.00802041 0.00895675 0.00856365 0.0077149 0.00634271 0.00503517 0.00469213 0.00469213 0.00469213 0.00469213 0.00469213 0.00469213 0.00469213 0.00469213 0.00503517 0.00634271 0.0077149 0.00856365 0.00802354 0.00729261 0.00611228 0.00498721 0.00469213 0.00469213 0.00469213 0.00469213 0.00469213 0.00469213 0.00469213 0.00469213 0.00498721 0.00611228 0.00729261 0.00802354 0.00709137 0.00656481 0.00571501 0.00490484 0.00469213 0.00469213 0.00469213 0.00469213 0.00469213 0.00469213 0.00469213 0.00469213 0.00490484 0.00571501 0.00656481 0.00709137 0.00469213 0.00469213 0.00469213 0.00469213 0.00469213 0.00469213 0.00469213 0.00469213 0.00469213 0.00469213 0.00469213 0.00469213 0.00469213 0.00469213 0.00469213 0.00469213 0.00469213 0.00469213 0.00469213 0.00469213 0.00469213 0.00469213 0.00469213 0.00469213 0.00469213 0.00469213 0.00469213 0.00469213 0.00469213 0.00469213 0.00469213 0.00469213 0.00469213 0.00469213 0.00469213 0.00469213 0.00469213 0.00469213 0.00469213 0.00469213 0.00469213 0.00469213 0.00469213 0.00469213 0.00469213 0.00469213 0.00469213 0.00469213 0.00469213 0.00469213 
</DataArray>
<DataArray type="Float64" Name="cell variable 6" format="ascii">
1 1 1 1 1 1 1 1 1 1 1 1 1 1 1 1 1 1 1 1 1 1 1 1 1 1 1 1 1 1 1 1 1 1 1 1 1 1 1 1 1 1 1 1 1 1 1 1 1 1 1 1 1 1 1 1 1 1 1 1 1 1 1 1 1 1 1 1 1 1 1 1 1 1 1 1 1 1 1 1 1 1 1 1 1 1 1 1 1 1 1 1 1 1 1 1 1 1 1 1 1 1 1 1 1 1 1 1 1 1 1 1 1 1 1 1 1 1 1 1 1 1 1 1 1 1 1 1 1 1 1 1 1 1 1 1 1 1 1 1 1 1 1 1 1 1 1 1 1 1 1 1 1 1 1 1 1 1 1 1 1 1 1 1 1 1 1 1 1 1 1 1 1 1 1 1 1 1 1 1 1 1 1 1 1 1 1 1 1 1 1 1 1 1 1 1 1 1 1 1 1 1 1 1 1 1 1 1 1 1 1 1 1 1 1 1 1 1 1 1 1 1 1 1 1 1 1 1 1 1 1 1 1 1 1 1 1 1 1 1 1 1 1 1 1 1 1 1 1 1 1 1 1 1 1 1 1 1 1 1 1 1 1 1 1 1 1 1 1 1 1 1 1 1 1 1 1 1 1 1 1 1 1 1 1 1 1 1 1 1 1 1 1 1 1 1 1 1 1 1 1 1 1 1 1 1 1 1 1 1 1 1 1 1 1 1 1 1 1 1 1 1 1 1 1 1 1 1 1 1 1 1 1 1 1 1 1 1 1 1 1 1 1 1 1 1 1 1 1 1 1 1 1 1 1 1 1 1 1 1 1 1 1 1 1 1 1 1 1 1 1 1 1 1 1 1 1 1 1 1 1 1 1 1 1 1 1 1 1 1 1 1 1 1 1 1 1 1 1 1 1 1 1 1 1 1 1 1 1 1 1 1 1 1 1 1 1 1 1 1 1 1 1 1 1 1 1 1 1 1 1 1 1 1 1 1 1 1 1 1 1 1 1 1 1 1 1 1 1 1 1 1 1 1 1 1 1 1 1 1 1 1 1 1 1 1 1 1 1 1 1 1 1 1 1 1 1 1 1 1 1 1 1 1 1 1 1 1 1 1 1 1 1 1 1 1 1 1 1 1 1 1 1 1 1 1 1 1 1 1 1 1 1 1 
</DataArray>
<DataArray type="Float64" Name="cell variable 7" format="ascii">
0 0 0 0 0 0 0 0 0 0 0 0 0 0 0 0 0 0 0 0 0 0 0 0 0 0 0 0 0 0 0 0 0 0 0 0 0 0 0 0 0 0 0 0 0 0 0 0 0 0 0 0 0 0 0 0 0 0 0 0 0 0 0 0 0 0 0 0 0 0 0 0 0 0 0 0 0 0 0 0 0 0 0 0 0 0 0 0 0 0 0 0 0 0 0 0 0 0 0 0 0 0 0 0 0 0 0 0 0 0 0 0 0 0 0 0 0 0 0 0 0 0 0 0 0 0 0 0 0 0 0 0 0 0 0 0 0 0 0 0 0 0 0 0 0 0 0 0 0 0 0 0 0 0 0 0 0 0 0 0 0 0 0 0 0 0 0 0 0 0 0 0 0 0 0 0 0 0 0 0 0 0 0 0 0 0 0 0 0 0 0 0 0 0 0 0 0 0 0 0 0 0 0 0 0 0 0 0 0 0 0 0 0 0 0 0 0 0 0 0 0 0 0 0 0 0 0 0 0 0 0 0 0 0 0 0 0 0 0 0 0 0 0 0 0 0 0 0 0 0 0 0 0 0 0 0 0 0 0 0 0 0 0 0 0 0 0 0 0 0 0 0 0 0 0 0 0 0 0 0 0 0 0 0 0 0 0 0 0 0 0 0 0 0 0 0 0 0 0 0 0 0 0 0 0 0 0 0 0 0 0 0 0 0 0 0 0 0 0 0 0 0 0 0 0 0 0 0 0 0 0 0 0 0 0 0 0 0 0 0 0 0 0 0 0 0 0 0 0 0 0 0 0 0 0 0 0 0 0 0 0 0 0 0 0 0 0 0 0 0 0 0 0 0 0 0 0 0 0 0 0 0 0 0 0 0 0 0 0 0 0 0 0 0 0 0 0 0 0 0 0 0 0 0 0 0 0 0 0 0 0 0 0 0 0 0 0 0 0 0 0 0 0 0 0 0 0 0 0 0 0 0 0 0 0 0 0 0 0 0 0 0 0 0 0 0 0 0 0 0 0 0 0 0 0 0 0 0 0 0 0 0 0 0 0 0 0 0 0 0 0 0 0 0 0 0 0 0 0 0 0 0 0 0 0 0 0 0 0 0 0 0 0 0 0 0 0 0 0 0 0 0 0 0 0 0 0 0 0 0 0 0 1 1 
</DataArray>
<DataArray type="Float64" Name="cell variable 8" format="ascii">
11.25 33.75 56.25 78.75 101.25 123.75 146.25 168.75 191.25 213.75 236.25 258.75 281.25 303.75 326.25 348.75 11.25 33.75 56.25 78.75 101.25 123.75 146.25 168.75 191.25 213.75 236.25 258.75 281.25 303.75 326.25 348.75 11.25 33.75 56.25 78.75 101.25 123.75 146.25 168.75 191.25 213.75 236.25 258.75 281.25 303.75 326.25 348.75 11.25 33.75 56.25 78.75 101.25 123.75 146.25 168.75 191.25 213.75 236.25 258.75 281.25 303.75 326.25 348.75 11.25 33.75 56.25 78.75 101.25 123.75 146.25 168.75 191.25 213.75 236.25 258.75 281.25 303.75 326.25 348.75 11.25 33.75 56.25 78.75 101.25 123.75 146.25 168.75 191.25 213.75 236.25 258.75 281.25 303.75 326.25 348.75 11.25 33.75 56.25 78.75 101.25 123.75 146.25 168.75 191.25 213.75 236.25 258.75 281.25 303.75 326.25 348.75 11.25 33.75 56.25 78.75 101.25 123.75 146.25 168.75 191.25 213.75 236.25 258.75 281.25 303.75 326.25 348.75 11.25 33.75 56.25 78.75 101.25 123.75 146.25 168.75 191.25 213.75 236.25 258.75 281.25 303.75 326.25 348.75 11.25 33.75 56.25 78.75 101.25 123.75 146.25 168.75 191.25 213.75 236.25 258.75 281.25 303.75 326.25 348.75 11.25 33.75 56.25 78.75 101.25 123.75 146.25 168.75 191.25 213.75 236.25 258.75 281.25 303.75 326.25 348.75 11.25 33.75 56.25 78.75 101.25 123.75 146.25 168.75 191.25 213.75 236.25 258.75 281.25 303.75 326.25 348.75 11.25 33.75 56.25 78.75 101.25 123.75 146.25 168.75 191.25 213.75 236.25 258.75 281.25 303.75 326.25 348.75 11.25 33.75 56.25 78.75 101.25 123.75 146.25 168.75 191.25 213.75 236.25 258.75 281.25 303.75 326.25 348.75 11.25 33.75 56.25 78.75 101.25 123.75 146.25 168.75 191.25 213.75 236.25 258.75 281.25 303.75 326.25 348.75 11.25 33.75 56.25 78.75 101.25 123.75 146.25 168.75 191.25 213.75 236.25 258.75 281.25 303.75 326.25 348.75 11.25 33.75 56.25 78.75 101.25 123.75 146.25 168.75 191.25 213.75 236.25 258.75 281.25 303.75 326.25 348.75 11.25 33.75 56.25 78.75 101.25 123.75 146.25 168.75 191.25 213.75 236.25 258.75 281.25 303.75 326.25 348.75 11.25 33.75 56.25 78.75 101.25 123.75 146.25 168.75 191.25 213.75 236.25 258.75 281.25 303.75 326.25 348.75 11.25 33.75 56.25 78.75 101.25 123.75 146.25 168.75 191.25 213.75 236.25 258.75 281.25 303.75 326.25 348.75 11.25 33.75 56.25 78.75 101.25 123.75 146.25 168.75 191.25 213.75 236.25 258.75 281.25 303.75 326.25 348.75 11.25 33.75 56.25 78.75 101.25 123.75 146.25 168.75 191.25 213.75 236.25 258.75 281.25 303.75 326.25 348.75 11.25 33.75 56.25 78.75 101.25 123.75 146.25 168.75 191.25 213.75 236.25 258.75 281.25 303.75 326.25 348.75 11.25 33.75 56.25 78.75 101.25 123.75 146.25 168.75 191.25 213.75 236.25 258.75 281.25 303.75 326.25 348.75 11.25 33.75 56.25 78.75 101.25 123.75 146.25 168.75 191.25 213.75 236.25 258.75 281.25 303.75 326.25 348.75 11.25 33.75 56.25 78.75 101.25 123.75 146.25 168.75 191.25 213.75 236.25 258.75 281.25 303.75 326.25 348.75 11.25 33.75 56.25 78.75 101.25 123.75 146.25 168.75 191.25 213.75 236.25 258.75 281.25 303.75 326.25 348.75 11.25 33.75 56.25 78.75 101.25 123.75 146.25 168.75 191.25 213.75 236.25 258.75 281.25 303.75 326.25 348.75 11.25 33.75 56.25 78.75 101.25 123.75 146.25 168.75 191.25 213.75 236.25 258.75 281.25 303.75 326.25 348.75 11.25 33.75 56.25 78.75 101.25 123.75 146.25 168.75 191.25 213.75 236.25 258.75 281.25 303.75 326.25 348.75 11.25 33.75 56.25 78.75 101.25 123.75 146.25 168.75 191.25 213.75 236.25 258.75 281.25 303.75 326.25 348.75 11.25 33.75 56.25 78.75 101.25 123.75 146.25 168.75 191.25 213.75 236.25 258.75 281.25 303.75 326.25 348.75 0 0 
</DataArray>
</CellData>
</Piece>
</UnstructuredGrid>
</VTKFile>
