<VTKFile type="UnstructuredGrid" version="0.1">
<UnstructuredGrid>
<Piece  NumberOfPoints="    2080" NumberOfCells="     514">
<Points>
<DataArray type="Float64" NumberOfComponents="3" format="ascii">
-72.4345 1003.48 1.0056
-68.4799 1006.73 26.773
-54.3058 981.145 28.9194
-58.6222 977.634 1.05361
-67.5908 1007.45 29.5258
-56.2165 1016.61 51.3527
-41.0769 991.758 55.2423
-53.4166 981.863 31.6722
-54.5688 1017.92 53.4551
-37.5001 1031.55 67.9947
-20.9457 1007.8 73.0422
-39.4292 993.076 57.3447
-35.3477 1033.27 69.128
-15.2621 1049.34 74.1897
2.97667 1026.87 79.6443
-18.7933 1009.52 74.1754
-12.942 1051.2 74.1852
7.03752 1067.36 69.0433
26.9361 1046.21 74.0957
5.29679 1028.73 79.6398
9.16602 1069.1 67.9072
25.9672 1083.02 53.3709
47.241 1063.13 57.284
29.0646 1047.95 72.9595
27.5825 1084.39 51.2707
38.72 1093.92 29.4884
60.8489 1074.9 31.597
48.8563 1064.49 55.1838
39.5878 1094.67 26.7352
43.4866 1098.07 0.963573
65.8972 1079.35 0.972612
61.7167 1075.65 28.8438
43.4868 1098.07 -2.02009
39.5906 1094.67 -27.792
61.7222 1075.64 -29.8739
65.8974 1079.35 -2.01105
38.7239 1093.91 -30.544
27.598 1084.35 -52.3216
48.8853 1064.45 -56.1876
60.8554 1074.88 -32.6259
25.9851 1082.98 -54.4202
9.20327 1069.02 -68.9424
29.1169 1047.87 -73.9492
47.2724 1063.08 -58.2862
7.07661 1067.27 -70.0771
-12.8903 1051.09 -75.2046
5.36495 1028.62 -80.6164
26.9903 1046.13 -75.0839
-15.2093 1049.23 -75.2077
-35.2879 1033.15 -70.132
-18.7136 1009.41 -75.1375
3.04601 1026.76 -80.6195
-37.4385 1031.44 -68.9971
-54.4772 1017.8 -54.4346
-39.34 992.972 -58.2867
-20.8642 1007.69 -74.0026
-56.1248 1016.48 -52.3295
-67.5043 1007.36 -30.4965
-53.3604 981.787 -32.5659
-40.9876 991.655 -56.1816
-68.3984 1006.64 -27.7413
-72.431 1003.47 -1.97684
-58.6187 977.63 -1.92884
-54.2544 981.075 -29.8106
-56.7719 974.773 1.13169
-52.4555 978.283 28.9975
-32.9218 952.167 29.6252
-37.3463 948.601 1.16011
-39.1793 988.93 55.4566
-19.3642 962.964 56.5991
-31.9854 952.918 32.5142
-51.519 979.034 31.8865
-18.9635 1005.04 73.3602
1.26965 979.291 74.8704
-17.6319 964.343 58.8053
-37.447 990.309 57.6628
5.06861 1024.18 80.0193
25.8035 998.702 81.6881
3.53182 981.087 76.0606
-16.7014 1006.83 74.5504
29.1466 1043.61 74.4719
50.3656 1018.44 76.031
28.2422 1000.65 81.6848
7.5073 1026.13 80.0161
49.5528 1060.62 57.606
71.0059 1035.87 58.8046
52.5954 1020.27 74.8405
31.3764 1045.44 73.2815
63.2297 1072.47 31.8136
84.7239 1048.08 32.4507
72.6902 1037.31 56.5991
51.237 1062.06 55.4005
68.3114 1076.96 1.04904
89.8143 1052.69 1.06767
85.6251 1048.88 29.5573
64.1309 1073.26 28.9202
64.1365 1073.25 -29.9469
85.6332 1048.84 -30.5384
89.8146 1052.69 -2.06546
68.3117 1076.96 -2.08408
51.267 1062.02 -56.3992
72.7305 1037.26 -57.5349
84.7338 1048.04 -33.4289
63.237 1072.45 -32.8375
31.43 1045.36 -74.2652
52.6542 1020.19 -75.7665
71.049 1035.82 -59.738
49.5855 1060.57 -58.6022
7.57658 1026.02 -80.9871
28.3135 1000.55 -82.6001
50.4261 1018.35 -76.9559
29.2019 1043.53 -75.4546
-16.6206 1006.72 -75.5072
3.60974 980.978 -76.9636
25.876 998.596 -82.6021
5.13903 1024.07 -80.9891
-37.358 990.206 -58.5997
-17.5562 964.247 -59.6969
1.34816 979.182 -75.772
-18.8822 1004.92 -74.3156
-51.4649 978.961 -32.7742
-31.9507 952.847 -33.3496
-19.2903 962.87 -57.4872
-39.0921 988.829 -56.3899
-52.4055 978.215 -29.8813
-56.7698 974.769 -1.99946
-37.3442 948.597 -1.97105
-32.8913 952.101 -30.4566
-35.1325 945.737 1.18234
-30.708 949.303 29.6474
-10.2411 923.786 29.7713
-14.6999 920.224 1.20677
-29.7571 950.059 32.5723
-17.1359 960.105 56.6573
3.4249 934.573 56.8634
-9.29015 924.542 32.6963
-15.377 961.493 58.8916
3.52456 976.441 74.9567
24.2393 950.867 75.2092
5.18376 935.96 59.0977
5.8223 978.248 76.1627
28.094 995.862 81.7902
49.0019 970.214 82.043
26.5371 952.673 76.4152
30.5708 997.825 81.7869
52.6942 1015.61 76.1331
73.7863 989.885 76.3521
51.4787 972.177 82.0397
54.9424 1017.47 74.9284
73.3528 1033.07 58.8924
94.2882 1007.66 59.0511
76.0344 991.742 75.1474
75.036 1034.55 56.6592
87.0697 1045.32 32.5108
107.844 1020.28 32.6404
95.9714 1009.15 56.8179
87.9672 1046.15 29.5806
92.1564 1049.96 1.09094
112.887 1025.06 1.1263
108.742 1021.11 29.7102
92.1572 1049.96 -2.08264
87.9758 1046.11 -30.5556
108.76 1021.06 -30.6211
112.888 1025.06 -2.04727
87.0807 1045.28 -33.483
75.0774 1034.5 -57.589
96.0151 1009.08 -57.7009
107.865 1020.23 -33.5486
73.3963 1033.01 -59.8199
55.0015 1017.38 -75.8485
76.0895 991.653 -76.0199
94.334 1007.59 -59.9318
52.7546 1015.52 -77.0522
30.642 997.72 -82.6964
51.5437 972.07 -82.9009
73.8425 989.793 -77.2236
28.166 995.757 -82.6985
5.89976 978.138 -77.06
26.6062 952.565 -77.2647
49.0677 970.107 -82.9031
3.60202 976.333 -75.8529
-15.3023 961.397 -59.7779
5.247 935.868 -59.9386
24.3084 950.759 -76.0576
-17.0636 960.012 -57.5401
-29.724 949.988 -33.4025
-9.26784 924.473 -33.4795
3.48572 934.482 -57.7008
-30.6783 949.237 -30.4733
-35.1312 945.734 -1.98769
-14.6986 920.22 -1.96326
-10.2222 923.722 -30.5503
-12.4412 917.395 1.21349
-7.98232 920.958 29.778
12.2725 895.514 29.8178
7.74132 892.012 1.2355
-7.01977 921.708 32.7095
5.69528 931.738 56.8766
26.1368 906.128 56.9137
13.235 896.264 32.7493
7.47393 933.114 59.1131
26.5295 948.02 75.2247
47.2195 922.177 75.2313
27.9155 907.503 59.1502
28.8515 949.81 76.429
51.3163 967.35 82.0568
72.272 941.239 82.0247
49.5415 923.966 76.4357
53.8193 969.293 82.0505
76.1268 987.001 76.3628
97.3677 960.609 76.3303
74.775 943.182 82.0184
78.4073 988.847 75.1468
96.661 1004.77 59.0505
118.483 977.735 58.9919
99.6481 962.454 75.1142
98.3607 1006.24 56.8131
110.234 1017.37 32.6356
132.555 989.891 32.6333
120.182 979.206 56.7544
111.139 1018.19 29.7111
115.285 1022.14 1.12726
137.79 994.515 1.1623
133.461 990.71 29.7089
115.286 1022.14 -2.04061
111.158 1018.15 -30.6145
133.479 990.675 -30.5499
137.791 994.513 -2.00557
110.254 1017.33 -33.5378
98.4046 1006.17 -57.6902
120.219 979.138 -57.5882
132.576 989.853 -33.4733
96.7063 1004.7 -59.9263
78.4618 988.757 -76.0143
99.6977 962.362 -75.9375
118.52 977.665 -59.8243
76.1825 986.91 -77.2292
53.8836 969.187 -82.9066
74.8336 943.075 -82.83
97.4184 960.514 -77.1524
51.3813 967.243 -82.9118
28.9198 949.701 -77.2734
49.6028 923.859 -77.2362
72.3313 941.131 -82.8352
26.5976 947.913 -76.0681
7.53619 933.021 -59.949
27.9698 907.413 -59.9433
47.2806 922.071 -76.0309
5.75508 931.648 -57.709
-6.99848 921.639 -33.4878
13.2503 896.195 -33.4843
26.1887 906.039 -57.7034
-7.96392 920.894 -30.552
-12.4404 917.392 -1.96495
7.74212 892.009 -1.94294
12.2849 895.45 -30.5485
9.96033 889.174 1.23866
14.4915 892.675 29.821
34.2493 866.955 29.8471
29.6544 863.531 1.26082
15.4678 893.411 32.7532
28.3696 903.275 56.9176
48.297 877.34 56.9443
35.2257 867.69 32.7793
30.1719 904.625 59.1532
49.4759 919.299 75.2343
69.6398 893.057 75.2587
50.0992 878.69 59.1799
51.8265 921.056 76.4364
74.5571 938.329 82.0254
94.9933 911.728 82.0459
71.9904 894.814 76.4608
77.0917 940.236 82.0172
99.6844 957.663 76.3291
120.428 930.654 76.3412
97.5279 913.634 82.0376
102.007 959.454 75.1141
120.842 974.735 58.9917
142.027 947.181 59.025
122.751 932.445 75.1262
122.596 976.147 56.7551
134.969 986.833 32.634
156.539 958.819 32.662
143.781 948.593 56.7884
135.909 987.618 29.7115
140.238 991.423 1.1649
161.95 963.248 1.19112
157.479 959.604 29.7394
140.238 991.422 -2.00161
135.927 987.584 -30.546
157.494 959.573 -30.5221
161.951 963.246 -1.97538
134.989 986.795 -33.4682
122.632 976.08 -57.5831
143.813 948.529 -57.5659
156.556 958.784 -33.4443
120.879 974.665 -59.819
102.057 959.362 -75.9321
122.797 932.353 -75.8955
142.06 947.113 -59.8018
99.7347 957.568 -77.1461
77.1498 940.129 -82.8237
97.5826 913.529 -82.7973
120.476 930.56 -77.1095
74.6158 938.221 -82.8309
51.8873 920.949 -77.2319
72.0465 894.709 -77.2112
95.0485 911.621 -82.8045
49.5364 919.193 -76.029
30.2255 904.535 -59.9415
50.1477 878.602 -59.9242
69.6955 892.953 -76.0083
28.4209 903.187 -57.7024
15.4825 893.343 -33.4834
35.2367 867.623 -33.4654
48.3431 877.253 -57.6852
14.5036 892.611 -30.5468
9.96086 889.17 -1.94123
29.655 863.528 -1.91908
34.2578 866.892 -30.5289
31.8146 860.659 1.26354
36.4095 864.083 29.8498
55.5978 838.02 29.875
50.9431 834.685 1.28556
37.3988 864.801 32.7826
50.4701 874.45 56.9476
69.8241 848.144 56.98
56.587 838.738 32.8077
52.2953 875.769 59.1837
71.8358 890.136 75.2625
91.4344 863.477 75.3052
71.6493 849.463 59.2161
74.2158 891.854 76.4646
97.2187 908.768 82.0497
117.112 881.694 82.0967
93.8143 865.195 76.5073
99.7865 910.629 82.0407
122.687 927.648 76.3443
142.906 900.116 76.3809
119.679 883.555 82.0876
125.049 929.385 75.1302
144.325 944.121 59.029
164.912 916.087 59.0703
145.268 901.853 75.1668
146.121 945.48 56.7927
158.879 955.706 32.6663
179.784 927.242 32.6954
166.708 917.446 56.834
159.846 956.458 29.7426
164.317 960.102 1.19432
185.341 931.479 1.21874
180.751 927.994 29.7718
164.318 960.1 -1.97299
159.861 956.426 -30.5197
180.764 927.965 -30.5002
185.342 931.477 -1.94858
158.896 955.671 -33.4431
146.153 945.416 -57.5647
166.737 917.385 -57.5579
179.799 927.209 -33.4235
144.358 944.054 -59.8004
125.095 929.294 -75.8941
145.311 901.764 -75.8834
164.942 916.022 -59.7935
122.734 927.555 -77.1073
99.8409 910.523 -82.7951
119.731 883.452 -82.7961
142.95 900.024 -77.0967
97.2734 908.661 -82.8033
74.2714 891.749 -77.21
93.8664 865.092 -77.208
117.163 881.59 -82.8042
71.8911 890.032 -76.0072
52.3433 875.681 -59.923
71.6937 849.377 -59.9114
91.4861 863.376 -76.0052
50.5158 874.364 -57.6836
37.4094 864.734 -33.4638
56.5953 838.672 -33.445
69.8662 848.06 -57.672
36.4179 864.02 -30.5267
31.815 860.656 -1.91691
50.9435 834.681 -1.8949
55.6038 837.959 -30.5079
53.0388 831.774 1.28822
57.6935 835.109 29.8776
76.2874 808.684 29.9021
71.5732 805.442 1.30992
58.6954 835.808 32.8111
71.9325 845.214 56.9833
90.6946 818.525 57.0165
77.2893 809.383 32.8356
73.781 846.498 59.2206
93.5662 860.512 75.3097
112.583 833.439 75.3555
92.5432 819.81 59.2538
95.9769 862.185 76.5126
119.274 878.685 82.102
138.6 851.159 82.1531
114.994 835.112 76.5584
121.877 880.496 82.0925
145.103 897.056 76.3857
164.762 869.044 76.4277
141.203 852.97 82.1436
147.502 898.74 75.1714
167.146 912.974 59.0749
187.133 884.48 59.1128
167.161 870.727 75.2134
168.978 914.283 56.8383
182.055 924.078 32.6998
202.316 895.188 32.7274
188.965 885.789 56.8761
183.044 924.799 29.7749
187.634 928.284 1.22185
207.998 899.245 1.24522
203.305 895.908 29.8026
187.635 928.283 -1.9464
183.057 924.77 -30.498
203.316 895.881 -30.4791
207.998 899.243 -1.92302
182.069 924.046 -33.4226
169.007 914.221 -57.5569
188.991 885.73 -57.5487
202.328 895.157 -33.4037
167.176 912.909 -59.793
147.545 898.65 -75.8829
167.201 870.64 -75.8793
187.16 884.418 -59.7847
145.147 896.965 -77.0964
121.928 880.393 -82.7958
141.251 852.869 -82.8022
164.803 868.955 -77.0928
119.325 878.581 -82.8045
96.0286 862.084 -77.2083
115.042 835.013 -77.2102
138.649 851.057 -82.8109
93.6175 860.411 -76.0048
73.8251 846.413 -59.9111
92.5844 819.726 -59.9009
112.631 833.341 -76.0067
71.9743 845.13 -57.6705
58.7034 835.743 -33.4436
77.2954 809.318 -33.4247
90.7337 818.443 -57.6604
57.6993 835.048 -30.5057
53.0391 831.77 -1.89271
71.5734 805.439 -1.871
76.2913 808.623 -30.4869
73.6023 802.491 1.3125
78.3165 805.732 29.9047
96.3059 778.939 29.9282
91.5314 775.797 1.33375
79.3313 806.411 32.8389
92.7366 815.554 57.0198
110.898 788.483 57.051
97.3207 779.618 32.8624
94.609 816.801 59.2582
114.649 830.431 75.36
133.071 802.952 75.4022
112.77 789.731 59.2894
117.091 832.056 76.5637
140.698 848.102 82.1583
159.436 820.141 82.2052
135.513 804.577 76.606
143.336 849.859 82.1485
166.895 865.934 76.4326
185.964 837.469 76.4724
162.075 821.899 82.1955
169.33 867.563 75.2178
189.302 881.316 59.1172
208.677 852.378 59.1506
188.399 839.098 75.2575
191.166 882.577 56.88
204.517 891.975 32.7313
224.134 862.669 32.7573
210.541 853.64 56.9134
205.526 892.667 29.8055
210.219 896.004 1.24817
229.927 866.558 1.27068
225.144 863.361 29.8315
210.219 896.002 -1.92088
205.537 892.64 -30.4769
225.153 863.335 -30.4581
229.927 866.556 -1.89837
204.529 891.945 -33.4025
191.192 882.518 -57.5475
210.564 853.583 -57.5365
224.145 862.64 -33.3837
189.329 881.254 -59.7841
169.37 867.476 -75.8787
188.436 839.013 -75.8745
208.701 852.319 -59.7731
166.936 865.845 -77.0929
143.384 849.759 -82.8022
162.119 821.801 -82.8057
186.003 837.382 -77.0887
140.746 848.001 -82.8113
117.139 831.957 -77.2106
135.559 804.48 -77.2101
159.481 820.043 -82.8148
114.697 830.332 -76.0063
94.65 816.717 -59.9006
112.808 789.649 -59.8895
133.116 802.856 -76.0059
92.7754 815.471 -57.6589
79.3371 806.347 -33.4233
97.3247 779.555 -33.4044
110.934 788.403 -57.6479
78.3203 805.672 -30.4847
73.6024 802.488 -1.86882
91.5315 775.794 -1.84757
96.3079 778.88 -30.4658
93.493 772.805 1.33624
98.2675 775.948 29.9307
115.647 748.79 29.9532
110.811 745.75 1.35694
99.2953 776.605 32.8654
112.872 785.47 57.054
130.425 758.024 57.0826
116.675 749.447 32.888
114.769 786.679 59.2933
135.07 799.9 75.4062
152.886 772.027 75.4433
132.321 759.233 59.3219
137.544 801.475 76.6106
161.467 817.039 82.2099
179.601 788.662 82.2506
155.361 773.601 76.6477
164.142 818.74 82.2
188.031 834.31 76.4768
206.49 805.414 76.5121
182.275 790.363 82.2407
190.5 835.885 75.2614
210.778 849.165 59.1545
229.526 819.8 59.1839
208.959 806.989 75.2967
212.672 850.38 56.9169
226.265 859.41 32.7608
245.232 829.695 32.785
231.42 821.016 56.9463
227.292 860.074 29.8342
232.075 863.271 1.27345
251.125 833.426 1.29514
246.259 830.359 29.8585
232.076 863.27 -1.89624
227.302 860.049 -30.4559
246.268 830.335 -30.4369
251.125 833.424 -1.87455
226.276 859.381 -33.3822
212.695 850.324 -57.5351
231.441 820.961 -57.5216
245.242 829.668 -33.3632
210.803 849.106 -59.7722
190.537 835.801 -75.8736
208.994 806.908 -75.8664
229.549 819.744 -59.7588
188.069 834.224 -77.0884
164.186 818.643 -82.8055
182.316 790.268 -82.8042
206.526 805.331 -77.0812
161.512 816.941 -82.8148
137.589 801.378 -77.2101
155.402 773.507 -77.2057
179.642 788.566 -82.8136
135.114 799.804 -76.0052
114.807 786.597 -59.8888
132.357 759.153 -59.8763
152.927 771.934 -76.0008
112.908 785.39 -57.6463
99.2991 776.542 -33.4028
116.677 749.385 -33.3841
130.458 757.946 -57.6338
98.2694 775.888 -30.4637
93.493 772.802 -1.84541
110.811 745.747 -1.82471
115.647 748.732 -30.4449
112.705 742.718 1.35933
117.54 745.758 29.9556
134.304 718.241 29.977
129.407 715.306 1.37942
118.581 746.393 32.8908
132.331 754.971 57.0854
149.268 727.157 57.1112
135.345 718.876 32.9122
134.252 756.139 59.3254
154.817 768.933 75.4468
172.015 740.677 75.479
151.189 728.325 59.3513
157.324 770.454 76.6518
181.564 785.515 82.2547
199.076 756.737 82.2895
174.522 742.199 76.684
184.273 787.159 82.2446
208.489 802.21 76.516
226.32 772.902 76.5468
201.786 758.381 82.2794
210.991 803.729 75.3001
231.558 816.541 59.1873
249.665 786.766 59.2135
228.822 774.422 75.3309
233.479 817.711 56.9493
247.291 826.39 32.788
265.601 796.276 32.8107
251.585 787.936 56.9756
248.335 827.028 29.8611
253.2 830.095 1.29774
271.584 799.856 1.31862
266.644 796.914 29.8838
253.2 830.094 -1.87244
248.343 827.004 -30.4348
266.652 796.891 -30.4159
271.584 799.855 -1.85155
247.301 826.363 -33.3616
233.5 817.657 -57.52
251.605 787.884 -57.5049
265.61 796.25 -33.3426
231.58 816.484 -59.7575
211.025 803.648 -75.8652
228.854 774.343 -75.8551
249.685 786.711 -59.7425
208.524 802.127 -77.0805
184.314 787.064 -82.8035
201.824 758.289 -82.7978
226.352 772.822 -77.0704
181.605 785.42 -82.813
157.365 770.361 -77.2052
174.561 742.107 -77.1973
199.115 756.645 -82.8073
154.858 768.84 -75.9999
134.288 756.059 -59.8754
151.222 728.247 -59.8614
172.054 740.586 -75.9919
132.365 754.892 -57.6321
118.583 746.331 -33.3824
135.345 718.815 -33.3638
149.299 727.08 -57.6182
117.54 745.7 -30.4428
112.705 742.715 -1.82258
129.407 715.303 -1.80249
134.302 718.184 -30.4242
131.232 712.235 1.3817
136.129 715.17 29.9793
152.272 687.302 29.9995
147.314 684.475 1.40111
137.183 715.783 32.9148
151.106 724.063 57.1138
167.42 695.889 57.1372
153.325 687.914 32.935
153.051 725.189 59.3544
173.877 737.541 75.4821
190.45 708.913 75.5101
169.365 697.016 59.3777
176.416 739.009 76.6875
200.97 753.548 82.293
217.849 724.385 82.3228
192.988 710.381 76.7154
203.714 755.132 82.2828
228.248 769.654 76.5502
245.437 739.951 76.5773
220.594 725.969 82.3126
230.783 771.117 75.334
251.625 783.461 59.2166
269.079 753.289 59.2404
247.972 741.414 75.361
253.572 784.587 56.9783
267.587 792.927 32.8135
285.229 762.424 32.8349
271.025 754.415 57.0021
268.646 793.54 29.8862
273.585 796.482 1.32107
291.295 765.859 1.34116
286.288 763.037 29.9076
273.585 796.481 -1.84945
268.653 793.517 -30.4138
286.295 763.015 -30.3951
291.296 765.858 -1.82937
267.596 792.901 -33.3409
253.591 784.535 -57.5031
271.043 754.365 -57.4871
285.237 762.399 -33.3222
251.645 783.407 -59.741
230.814 771.039 -75.8536
248 741.339 -75.8413
269.097 753.237 -59.725
228.28 769.574 -77.0694
203.752 755.041 -82.7967
220.628 725.881 -82.7876
245.466 739.874 -77.0571
201.008 753.456 -82.8064
176.454 738.918 -77.1964
193.024 710.293 -77.1856
217.885 724.296 -82.7972
173.915 737.451 -75.9907
153.084 725.112 -59.8602
169.396 696.94 -59.8451
190.485 708.826 -75.9799
151.137 723.986 -57.6164
137.182 715.722 -33.362
153.324 687.855 -33.3436
167.448 695.815 -57.6014
136.127 715.113 -30.4221
131.232 712.232 -1.80039
147.314 684.472 -1.78098
152.268 687.246 -30.4037
149.07 681.366 1.40329
154.027 684.192 30.0017
169.544 655.983 30.021
164.527 653.267 1.42199
155.094 684.782 32.9374
169.188 692.757 57.1396
184.873 664.235 57.1609
170.611 656.572 32.9567
171.157 693.841 59.3805
192.242 705.738 75.5128
208.179 676.752 75.5373
186.842 665.319 59.4019
194.811 707.15 76.7184
219.673 721.154 82.3259
235.908 691.621 82.3517
210.749 678.164 76.7429
222.45 722.678 82.3156
247.294 736.66 76.5803
263.828 706.579 76.6042
238.686 693.145 82.3414
249.86 738.067 75.3637
270.966 749.942 59.2431
287.755 719.389 59.2648
266.395 707.986 75.3876
272.938 751.023 57.0046
287.142 759.032 32.8374
304.107 728.152 32.8576
289.726 720.47 57.0264
288.214 759.62 29.91
293.222 762.442 1.34346
310.251 731.445 1.36276
305.18 728.74 29.9301
293.222 762.441 -1.82731
288.221 759.598 -30.3931
305.186 728.719 -30.3747
310.251 731.444 -1.808
287.15 759.007 -33.3204
272.955 750.973 -57.4853
289.742 720.422 -57.4689
304.115 728.128 -33.3021
270.985 749.89 -59.7234
249.888 737.992 -75.8397
266.421 707.914 -75.8257
287.772 719.339 -59.707
247.323 736.583 -77.0557
222.485 722.59 -82.7862
238.718 693.06 -82.7745
263.855 706.505 -77.0418
219.707 721.065 -82.796
194.847 707.062 -77.1844
210.781 678.079 -77.1717
235.94 691.535 -82.7843
192.277 705.651 -75.9784
171.187 693.765 -59.8437
186.87 665.245 -59.8281
208.211 676.667 -75.9657
169.217 692.682 -57.5995
155.092 684.723 -33.3418
170.607 656.515 -33.3239
184.899 664.163 -57.584
154.024 684.137 -30.4016
149.07 681.363 -1.77893
164.527 653.264 -1.76023
169.539 655.929 -30.3837
166.213 650.121 1.42407
171.23 652.836 30.0231
186.115 624.296 30.0414
181.04 621.693 1.44203
172.309 653.402 32.9589
186.571 661.065 57.1632
201.62 632.207 57.1828
187.194 624.862 32.9772
188.563 662.105 59.4043
209.9 673.538 75.5398
225.194 644.207 75.5615
203.612 633.247 59.4239
212.5 674.893 76.7456
237.66 688.35 82.3543
253.242 658.463 82.3769
227.793 645.562 76.7673
240.47 689.813 82.344
265.612 703.247 76.6067
281.482 672.803 76.628
256.052 659.926 82.3666
268.209 704.597 75.3901
289.569 716 59.2673
305.682 685.081 59.2873
284.079 674.153 75.4113
291.563 717.037 57.0287
305.945 724.719 32.8599
322.226 693.475 32.879
307.677 686.118 57.0488
307.03 725.282 29.9323
312.102 727.988 1.36495
328.442 696.629 1.38343
323.311 694.039 29.9514
312.102 727.987 -1.80599
307.036 725.262 -30.3727
323.317 694.019 -30.3549
328.442 696.627 -1.7875
305.952 724.695 -33.3002
291.579 716.989 -57.467
307.691 686.072 -57.4505
322.233 693.453 -33.2824
289.586 715.95 -59.7053
268.234 704.525 -75.824
284.102 674.084 -75.809
305.698 685.033 -59.6887
265.639 703.173 -77.0403
240.502 689.729 -82.773
256.081 659.845 -82.7595
281.507 672.733 -77.0252
237.691 688.265 -82.7828
212.532 674.808 -77.1702
227.823 645.48 -77.1562
253.271 658.381 -82.7694
209.932 673.454 -75.9641
188.591 662.032 -59.8265
203.638 633.176 -59.8107
225.223 644.125 -75.9501
186.597 660.993 -57.5822
172.305 653.344 -33.322
187.189 624.806 -33.3046
201.644 632.137 -57.5663
171.224 652.782 -30.3817
166.213 650.118 -1.75824
181.04 621.691 -1.74028
186.108 624.244 -30.3643
182.656 618.511 1.44401
187.731 621.114 30.0434
201.978 592.255 30.0607
196.847 589.766 1.4612
188.822 621.655 32.9793
203.248 629 57.1849
217.653 599.818 57.2029
203.07 592.797 32.9967
205.262 629.996 59.4261
226.843 640.956 75.5637
241.485 611.293 75.583
219.668 600.814 59.4442
229.472 642.253 76.7696
254.92 655.154 82.3792
269.84 624.928 82.3991
244.114 612.591 76.7889
257.762 656.555 82.3689
283.193 669.432 76.6303
298.388 638.642 76.6494
272.681 626.328 82.3888
285.818 670.725 75.4135
307.421 681.653 59.2895
322.85 650.384 59.3081
301.013 639.935 75.4326
309.438 682.645 57.0509
323.987 690.002 32.8811
339.575 658.408 32.8991
324.867 651.376 57.0695
325.084 690.541 29.9534
330.216 693.131 1.38549
345.86 661.423 1.40318
340.672 658.948 29.9714
330.216 693.13 -1.78555
325.09 690.521 -30.3529
340.678 658.928 -30.3357
345.86 661.422 -1.76787
323.994 689.98 -33.2805
309.452 682.6 -57.4486
324.88 651.332 -57.4322
339.581 658.387 -33.2633
307.437 681.605 -59.687
285.841 670.656 -75.8072
301.034 639.869 -75.7916
322.864 650.338 -59.6705
283.217 669.362 -77.0236
257.791 656.474 -82.7579
272.707 626.25 -82.7433
298.41 638.575 -77.0079
254.949 655.073 -82.7678
229.502 642.172 -77.1546
244.141 612.512 -77.1397
269.866 624.849 -82.7532
226.873 640.875 -75.9484
205.287 629.925 -59.809
219.691 600.746 -59.7932
241.512 611.215 -75.9335
203.271 628.93 -57.5645
188.816 621.6 -33.3028
203.062 592.743 -33.286
217.675 599.751 -57.5487
187.723 621.062 -30.3624
182.655 618.508 -1.73836
196.847 589.764 -1.72117
201.969 592.205 -30.3456
198.392 586.549 1.46308
203.523 589.038 30.0626
217.127 559.872 30.0791
211.942 557.5 1.4795
204.626 589.555 32.9986
219.209 596.577 57.2048
232.966 567.084 57.2215
218.23 560.389 33.015
221.245 597.528 59.4462
243.062 608.007 75.585
257.045 578.027 75.6022
235.001 568.035 59.4628
245.719 609.246 76.7909
271.445 621.582 82.4011
285.693 591.031 82.4186
259.702 579.266 76.8081
274.317 622.92 82.3908
300.024 635.234 76.6514
314.536 604.114 76.6686
288.565 592.369 82.4083
302.676 636.469 75.4346
324.513 646.917 59.3101
339.249 615.314 59.3273
317.189 605.348 75.4518
326.551 647.865 57.0715
341.259 654.897 32.9011
356.146 622.967 32.9181
341.287 616.261 57.0887
342.368 655.412 29.9734
347.556 657.887 1.40512
362.496 625.842 1.42199
357.255 623.482 29.9904
347.556 657.886 -1.76598
342.374 655.393 -30.3338
357.26 623.464 -30.3171
362.496 625.841 -1.74912
341.265 654.876 -33.2614
326.564 647.821 -57.4304
341.298 616.22 -57.4142
356.152 622.947 -33.2448
324.527 646.872 -59.6687
302.697 636.403 -75.7898
317.208 605.285 -75.7738
339.261 615.27 -59.6525
300.045 635.167 -77.0062
274.343 622.843 -82.7416
288.588 592.295 -82.7262
314.556 604.049 -76.9902
271.471 621.504 -82.7515
245.746 609.168 -77.1381
259.726 579.191 -77.1226
285.717 590.956 -82.7361
243.089 607.929 -75.9318
221.268 597.46 -59.7915
235.022 567.97 -59.7757
257.069 577.953 -75.9164
219.231 596.51 -57.5469
204.618 589.501 -33.2842
218.221 560.338 -33.268
232.985 567.02 -57.5312
203.514 588.988 -30.3437
198.391 586.547 -1.71932
211.941 557.497 -1.70291
217.116 559.824 -30.3275
213.414 554.249 1.48127
218.6 556.622 30.0808
231.555 527.162 30.0963
226.318 524.907 1.4969
219.714 557.114 33.0168
234.45 563.809 57.2233
247.55 534.018 57.2385
232.669 527.654 33.0323
236.506 564.714 59.4646
258.549 574.706 75.604
271.866 544.423 75.6192
249.606 534.924 59.4799
261.233 575.886 76.81
287.224 587.651 82.4204
300.794 556.791 82.4358
274.549 545.603 76.8252
290.125 588.925 82.4101
316.096 600.67 76.6704
329.918 569.234 76.6857
303.695 558.065 82.4254
318.775 601.846 75.4536
340.835 611.811 59.3291
354.869 579.889 59.345
332.597 570.41 75.4689
342.893 612.714 57.0905
357.752 619.42 32.92
371.931 587.169 32.9359
356.927 580.791 57.1064
358.872 619.91 29.9922
364.113 622.27 1.42382
378.342 589.904 1.43982
373.051 587.66 30.0082
364.114 622.27 -1.7473
358.877 619.892 -30.3153
373.055 587.642 -30.2994
378.343 589.903 -1.73131
357.758 619.4 -33.243
342.905 612.672 -57.4124
356.938 580.752 -57.3965
371.936 587.15 -33.227
340.847 611.768 -59.6508
318.794 601.783 -75.772
332.614 570.351 -75.7558
354.881 579.847 -59.6349
316.115 600.606 -76.9884
290.148 588.851 -82.7244
303.716 557.994 -82.7085
329.935 569.173 -76.9723
287.248 587.577 -82.7344
261.257 575.811 -77.1209
274.571 545.532 -77.1051
300.815 556.72 -82.7185
258.573 574.632 -75.9147
236.526 564.649 -59.774
249.625 534.861 -59.7585
271.887 544.353 -75.8989
234.468 563.745 -57.5294
219.704 557.063 -33.2663
232.658 527.605 -33.2507
247.567 533.957 -57.5139
218.589 556.574 -30.3257
213.414 554.247 -1.70113
226.317 524.904 -1.68551
231.542 527.116 -30.3101
227.718 521.624 1.49857
232.955 523.88 30.098
245.256 494.138 30.1125
239.969 492.001 1.51333
234.08 524.347 33.0339
248.961 530.711 57.2402
261.4 500.636 57.254
246.381 494.605 33.0484
251.037 531.57 59.4815
273.296 541.07 75.6208
285.941 510.498 75.6342
263.476 501.495 59.4954
276.005 542.19 76.8268
302.25 553.377 82.4373
315.135 522.223 82.4505
288.65 511.618 76.8401
305.178 554.587 82.427
331.401 565.757 76.6873
344.525 534.022 76.7009
318.063 523.433 82.4402
334.106 566.873 75.4706
356.378 576.352 59.3467
369.704 544.127 59.3614
347.23 535.139 75.4841
358.455 577.209 57.1082
373.458 583.587 32.9377
386.922 551.031 32.9527
371.782 544.983 57.1228
374.589 584.053 30.0099
379.881 586.297 1.44155
393.392 553.624 1.45681
388.052 551.496 30.025
379.881 586.296 -1.72957
374.594 584.035 -30.2976
388.056 551.479 -30.2823
393.392 553.623 -1.71431
373.464 583.568 -33.2253
358.466 577.17 -57.3948
371.791 544.946 -57.3793
386.926 551.012 -33.21
356.389 576.311 -59.6331
334.122 566.814 -75.754
347.244 535.083 -75.7377
369.714 544.087 -59.6176
331.418 565.696 -76.9705
305.199 554.517 -82.7067
318.081 523.366 -82.6902
344.541 533.965 -76.9541
302.271 553.307 -82.7167
276.027 542.119 -77.1034
288.669 511.551 -77.0873
315.153 522.156 -82.7002
273.318 540.999 -75.8972
251.055 531.508 -59.7567
263.492 501.436 -59.7415
285.959 510.431 -75.8811
248.978 530.65 -57.5122
234.069 524.298 -33.249
246.367 494.558 -33.2341
261.415 500.578 -57.4969
232.943 523.833 -30.3084
227.717 521.622 -1.68382
239.968 491.999 -1.66907
245.242 494.094 -30.2936
241.296 488.688 1.5149
246.583 490.825 30.114
258.224 460.815 30.1274
252.89 458.797 1.52875
247.718 491.267 33.0499
262.738 497.298 57.2555
274.509 466.952 57.2679
259.359 461.257 33.0633
264.832 498.111 59.4968
287.297 507.113 75.6356
299.263 476.267 75.6469
276.604 467.765 59.5092
290.03 508.173 76.8415
316.515 518.778 82.4519
328.709 487.345 82.4629
301.996 477.327 76.8528
319.469 519.923 82.4416
345.932 530.513 76.7022
358.352 498.496 76.7139
331.663 488.49 82.4525
348.66 531.57 75.4856
371.134 540.557 59.3629
383.746 508.045 59.3762
361.08 499.552 75.4973
373.23 541.368 57.1244
388.37 547.415 32.9543
401.112 514.568 32.9684
385.842 508.856 57.1378
389.511 547.856 30.0266
394.851 549.984 1.45843
407.639 517.018 1.47283
402.253 515.009 30.0407
394.851 549.983 -1.71265
389.515 547.839 -30.2806
402.257 514.993 -30.266
407.639 517.018 -1.69826
388.375 547.397 -33.2083
373.239 541.331 -57.3776
385.85 508.821 -57.3625
401.117 514.55 -33.1936
371.144 540.518 -59.6159
348.674 531.514 -75.7359
361.093 499.5 -75.7195
383.755 508.008 -59.6008
345.947 530.456 -76.9523
319.487 519.857 -82.6884
331.679 488.428 -82.6715
358.365 498.441 -76.9358
316.533 518.712 -82.6984
290.049 508.107 -77.0855
302.013 477.264 -77.0692
328.725 487.282 -82.6815
287.315 507.047 -75.8794
264.848 498.052 -59.7397
276.618 467.709 -59.7248
299.279 476.205 -75.8631
262.752 497.24 -57.4953
247.705 491.22 -33.2324
259.344 461.213 -33.2183
274.522 466.897 -57.4803
246.569 490.781 -30.292
241.296 488.686 -1.66746
252.889 458.795 -1.65361
258.208 460.774 -30.2778
254.144 455.455 1.53021
259.478 457.473 30.1289
270.453 427.208 30.1413
265.075 425.31 1.54316
260.622 457.89 33.0646
275.773 463.584 57.2693
286.872 432.981 57.2801
271.598 427.624 33.077
277.885 464.351 59.5104
300.544 472.853 75.6481
311.827 441.748 75.6572
288.985 433.748 59.5212
303.3 473.853 76.8539
330.013 483.871 82.464
341.509 452.176 82.4724
314.583 442.747 76.863
332.991 484.95 82.4537
359.68 494.956 76.7151
371.39 462.672 76.7247
344.488 453.255 82.4621
362.431 495.952 75.4986
385.097 504.445 59.3775
396.989 471.662 59.3894
374.141 463.669 75.5082
387.21 505.21 57.1392
402.481 510.922 32.9698
414.497 477.8 32.9827
399.102 472.427 57.151
403.631 511.337 30.0422
409.017 513.347 1.47433
421.077 480.104 1.48773
415.647 478.215 30.0551
409.017 513.346 -1.69668
403.635 511.321 -30.2644
415.65 478.2 -30.2506
421.077 480.104 -1.68329
402.485 510.904 -33.192
387.219 505.175 -57.3609
399.11 472.394 -57.3461
414.501 477.783 -33.1781
385.106 504.408 -59.599
362.443 495.9 -75.7177
374.152 463.62 -75.701
396.997 471.627 -59.5843
359.693 494.902 -76.9339
333.007 484.888 -82.6696
344.502 453.197 -82.6519
371.401 462.622 -76.9172
330.029 483.808 -82.6796
303.316 473.79 -77.0673
314.597 442.689 -77.0506
341.523 452.117 -82.6619
300.56 472.791 -75.8613
277.899 464.295 -59.723
288.997 433.696 -59.7083
311.841 441.69 -75.8446
275.785 463.53 -57.4787
260.607 457.846 -33.2167
271.581 427.583 -33.2033
286.883 432.93 -57.464
259.462 457.432 -30.2763
254.143 455.453 -1.65209
265.074 425.308 -1.63914
270.436 427.169 -30.2629
266.255 421.94 1.5445
271.633 423.838 30.1426
281.939 393.33 30.1538
276.518 391.552 1.55651
272.787 424.229 33.0782
288.061 429.586 57.2813
298.484 398.74 57.2904
283.093 393.721 33.0894
290.19 430.306 59.5222
313.032 438.306 75.6581
323.626 406.957 75.6646
300.613 399.46 59.5313
315.81 439.245 76.8638
342.736 448.673 82.4732
353.53 416.732 82.4788
326.404 407.895 76.8703
345.738 449.687 82.463
372.64 459.104 76.7256
383.634 426.572 76.7329
356.532 417.746 82.4686
375.412 460.04 75.5093
398.26 468.033 59.3904
409.427 434.997 59.4006
386.406 427.508 75.5167
400.39 468.751 57.1523
415.784 474.124 32.9839
427.069 440.743 32.9957
411.557 435.715 57.1625
416.944 474.514 30.0564
422.373 476.403 1.4891
433.7 442.898 1.50163
428.228 441.132 30.0682
422.374 476.402 -1.68179
416.947 474.499 -30.2491
428.232 441.118 -30.2358
433.7 442.898 -1.66926
415.788 474.107 -33.1765
400.397 468.718 -57.3445
411.563 435.684 -57.33
427.073 440.726 -33.1633
398.268 467.999 -59.5825
375.423 459.991 -75.6992
386.416 427.463 -75.682
409.434 434.965 -59.568
372.651 459.054 -76.9152
345.751 449.629 -82.65
356.544 417.693 -82.6312
383.644 426.525 -76.898
342.75 448.615 -82.66
315.824 439.187 -77.0486
326.416 407.841 -77.0311
353.542 416.678 -82.6412
313.046 438.248 -75.8428
290.202 430.254 -59.7065
300.623 399.412 -59.6919
323.639 406.903 -75.8253
288.072 429.535 -57.4624
272.77 424.188 -33.2017
283.074 393.683 -33.1891
298.493 398.693 -57.4478
271.616 423.799 -30.2615
266.254 421.938 -1.63771
276.517 391.55 -1.62571
281.92 393.294 -30.2488
277.624 388.156 1.55772
283.044 389.934 30.1551
292.676 359.196 30.1651
287.216 357.538 1.56874
284.207 390.3 33.0904
299.598 395.319 57.2914
309.339 364.243 57.2986
293.838 359.562 33.1005
301.742 395.992 59.532
324.756 403.489 75.6653
334.657 371.911 75.6688
311.483 364.916 59.5391
327.553 404.366 76.8708
354.68 413.203 82.4793
364.767 381.034 82.4813
337.454 372.788 76.8742
357.703 414.151 82.4691
384.805 422.977 76.7335
395.079 390.215 76.7381
367.79 381.982 82.4712
387.597 423.853 75.5175
410.618 431.341 59.4015
421.055 398.07 59.4098
397.871 391.09 75.5221
412.764 432.012 57.1636
428.276 437.04 32.9967
438.826 403.415 33.0072
423.201 398.741 57.1719
429.444 437.403 30.0694
434.916 439.169 1.50288
445.506 405.417 1.51452
439.994 403.778 30.0799
434.916 439.168 -1.66783
429.447 437.388 -30.2344
439.997 403.764 -30.2217
445.506 405.416 -1.65619
428.28 437.023 -33.1617
412.77 431.981 -57.3284
423.206 398.712 -57.3138
438.829 403.399 -33.149
410.625 431.309 -59.5662
387.607 423.807 -75.6802
397.88 391.048 -75.662
421.061 398.04 -59.5516
384.815 422.931 -76.8959
357.714 414.098 -82.6292
367.8 381.933 -82.6088
395.088 390.172 -76.8777
354.692 413.15 -82.6391
327.565 404.313 -77.029
337.464 372.739 -77.0104
364.777 380.984 -82.6187
324.768 403.436 -75.8235
301.752 395.944 -59.69
311.492 364.872 -59.6753
334.667 371.862 -75.8048
299.606 395.272 -57.4462
284.188 390.262 -33.1875
293.819 359.526 -33.1756
309.346 364.2 -57.4315
283.025 389.898 -30.2475
277.623 388.155 -1.62437
287.215 357.536 -1.61335
292.656 359.163 -30.2356
288.246 354.117 1.56983
293.706 355.775 30.1662
302.66 324.819 30.1749
297.162 323.28 1.57984
294.877 356.116 33.1013
310.377 360.797 57.2994
319.433 329.506 57.3041
303.83 325.159 33.11
312.536 361.423 59.5395
335.71 368.418 75.6691
344.914 336.627 75.6688
321.591 330.132 59.5443
338.525 369.235 76.8743
365.838 377.48 82.4814
375.215 345.1 82.479
347.73 337.444 76.8739
368.881 378.363 82.4713
396.17 386.596 76.7383
405.72 353.622 76.7394
378.258 345.983 82.469
398.982 387.409 75.5227
422.165 394.389 59.4103
431.869 360.901 59.4164
408.531 354.436 75.5238
424.326 395.012 57.1728
439.951 399.686 33.0081
449.762 365.833 33.0172
434.029 361.523 57.1788
441.127 400.022 30.081
446.639 401.661 1.51562
456.49 367.674 1.52634
450.939 366.169 30.0902
446.639 401.66 -1.65482
441.13 400.008 -30.2204
450.942 366.155 -30.2081
456.49 367.674 -1.6441
439.954 399.67 -33.1474
424.332 394.983 -57.3121
434.034 361.496 -57.2971
449.766 365.817 -33.1352
422.171 394.359 -59.5497
398.99 387.368 -75.6601
408.539 354.397 -75.6403
431.874 360.873 -59.5346
396.179 386.553 -76.8755
368.891 378.314 -82.6065
378.266 345.939 -82.5836
405.728 353.582 -76.8557
365.848 377.431 -82.6164
338.536 369.186 -77.008
347.738 337.4 -76.9875
375.223 345.056 -82.5935
335.72 368.37 -75.8028
312.544 361.38 -59.6733
321.599 330.093 -59.6582
344.923 336.583 -75.7823
310.384 360.754 -57.43
294.857 356.081 -33.1741
303.809 325.127 -33.1629
319.438 329.467 -57.4149
293.686 355.742 -30.2343
288.245 354.116 -1.6121
297.161 323.279 -1.60209
302.638 324.789 -30.2231
298.117 319.836 1.58079
303.614 321.375 30.1759
311.886 290.211 30.1832
306.354 288.791 1.58974
304.792 321.69 33.1106
320.395 326.036 57.3047
328.763 294.541 57.3067
313.064 290.526 33.1179
322.567 326.616 59.5442
345.89 333.111 75.6687
354.394 301.123 75.6636
330.934 295.122 59.5462
348.722 333.868 76.8735
376.207 341.524 82.4785
384.869 308.953 82.4705
357.227 301.88 76.8683
379.269 342.341 82.4686
406.731 349.98 76.739
415.553 316.816 76.7357
387.93 309.77 82.4606
409.56 350.732 75.5239
432.898 357.198 59.4166
441.864 323.512 59.4198
418.382 317.568 75.5206
435.073 357.771 57.1794
450.806 362.08 33.0178
459.877 328.013 33.0254
444.039 324.085 57.1826
451.99 362.388 30.0911
457.541 363.893 1.52728
466.651 329.686 1.5371
461.061 328.321 30.0987
457.542 363.893 -1.64277
451.993 362.374 -30.2068
461.064 328.308 -30.1949
466.651 329.685 -1.63295
450.809 362.065 -33.1335
435.078 357.744 -57.2954
444.044 324.06 -57.2794
459.88 327.998 -33.1216
432.903 357.17 -59.5325
409.568 350.694 -75.6382
418.388 317.533 -75.6159
441.869 323.486 -59.5165
406.739 349.941 -76.8532
379.277 342.298 -82.5811
387.938 309.731 -82.5546
415.56 316.78 -76.8309
376.216 341.48 -82.5909
348.731 333.825 -76.9849
357.234 301.842 -76.9616
384.877 308.913 -82.5644
345.898 333.068 -75.7801
322.574 326.577 -59.6561
330.94 295.087 -59.6403
354.401 301.085 -75.7568
320.401 325.998 -57.4134
304.771 321.658 -33.1614
313.042 290.498 -33.1508
328.767 294.508 -57.3976
303.593 321.345 -30.222
298.116 319.834 -1.60093
306.353 288.789 -1.59198
311.864 290.185 -30.2114
307.233 285.324 1.59054
312.765 286.744 30.184
320.352 255.383 30.1897
314.788 254.079 1.59839
313.95 287.034 33.1182
329.649 291.05 57.307
337.325 259.364 57.3057
321.537 255.674 33.1239
331.833 291.584 59.5457
355.292 297.586 75.663
363.094 265.417 75.652
339.509 259.899 59.5444
358.141 298.284 76.8672
385.783 305.356 82.4694
393.727 272.614 82.4544
365.942 266.115 76.8562
388.861 306.108 82.4596
416.484 313.154 76.7347
424.575 279.822 76.7258
396.806 273.366 82.4446
419.329 313.844 75.5203
442.812 319.788 59.4194
451.039 285.925 59.4189
427.42 280.512 75.5114
445 320.31 57.1828
460.838 324.238 33.0256
469.167 289.971 33.0314
453.227 286.447 57.1823
462.03 324.516 30.0995
467.62 325.881 1.53786
475.987 291.463 1.54673
470.359 290.249 30.1052
467.62 325.88 -1.63166
462.033 324.503 -30.1936
470.362 290.236 -30.1818
475.988 291.462 -1.62279
460.841 324.224 -33.1198
445.005 320.285 -57.2775
453.232 286.423 -57.2597
469.17 289.957 -33.108
442.817 319.762 -59.5142
419.336 313.81 -75.6136
427.426 280.481 -75.5878
451.044 285.901 -59.4964
416.491 313.119 -76.8279
388.869 306.07 -82.5516
396.813 273.332 -82.5201
424.581 279.79 -76.8021
385.791 305.317 -82.5613
358.148 298.245 -76.9585
365.949 266.082 -76.9315
393.734 272.58 -82.5298
355.3 297.548 -75.7544
331.839 291.551 -59.6379
339.514 259.87 -59.6208
363.1 265.384 -75.7274
329.653 291.016 -57.396
313.928 287.007 -33.1493
321.514 255.65 -33.1393
337.328 259.336 -57.3789
312.743 286.718 -30.2103
307.232 285.322 -1.5909
314.786 254.077 -1.58305
320.329 255.361 -30.2004
315.591 250.59 1.59903
321.155 251.895 30.1903
328.056 220.344 30.1943
322.46 219.153 1.60575
322.347 252.161 33.1239
338.134 255.851 57.3056
345.117 223.985 57.3007
329.247 220.61 33.1279
340.33 256.342 59.5433
363.915 261.86 75.6509
371.012 229.526 75.6332
347.313 224.476 59.5383
366.777 262.5 76.8542
394.562 268.999 82.4524
401.787 236.108 82.4291
373.874 230.166 76.8365
397.656 269.687 82.4429
425.425 276.142 76.7241
432.783 242.668 76.7087
404.881 236.796 82.4195
428.286 276.77 75.5105
451.905 282.183 59.418
459.39 248.163 59.4123
435.643 243.295 75.4951
454.106 282.652 57.182
470.045 286.177 33.0312
477.632 251.721 33.0348
461.592 248.632 57.1763
471.245 286.423 30.1058
476.874 287.636 1.5473
484.499 253.016 1.55517
478.831 251.967 30.1095
476.874 287.635 -1.62151
471.248 286.41 -30.1806
478.835 251.955 -30.1687
484.499 253.016 -1.61364
470.049 286.163 -33.106
454.111 282.629 -57.2577
461.597 248.611 -57.2369
477.636 251.708 -33.0941
451.91 282.159 -59.4937
428.292 276.74 -75.5851
435.65 243.269 -75.555
459.396 248.141 -59.4728
425.432 276.112 -76.7987
397.663 269.653 -82.5167
404.888 236.767 -82.4791
432.79 242.64 -76.7686
394.569 268.965 -82.5262
366.784 262.467 -76.9279
373.881 230.139 -76.8963
401.794 236.079 -82.4887
363.921 261.828 -75.7246
340.335 256.313 -59.6181
347.317 224.453 -59.5995
371.018 229.499 -75.693
338.137 255.823 -57.3773
322.324 252.137 -33.1376
329.224 220.591 -33.1282
345.12 223.963 -57.3587
321.132 251.873 -30.1994
315.589 250.589 -1.58205
322.459 219.152 -1.57533
328.032 220.327 -30.1899
323.187 215.643 1.60621
328.783 216.835 30.1948
334.998 185.101 30.1968
329.375 184.019 1.61177
329.98 217.077 33.1275
345.85 220.452 57.3003
352.14 188.415 57.2917
336.196 185.343 33.1295
348.056 220.9 59.5366
371.755 225.95 75.6315
378.147 193.468 75.6071
354.346 188.863 59.5279
374.63 226.534 76.8337
402.543 232.477 82.4263
409.046 199.463 82.3941
381.022 194.052 76.8094
405.65 233.102 82.417
433.552 238.974 76.7062
440.175 205.389 76.6836
412.154 200.089 82.3848
436.427 239.539 75.4933
460.174 244.406 59.4106
466.916 210.251 59.3974
443.049 205.953 75.4707
462.388 244.819 57.1755
478.428 247.908 33.034
485.269 213.275 33.0348
469.129 210.663 57.1623
479.635 248.12 30.1098
485.303 249.168 1.55551
492.183 214.354 1.56229
486.476 213.486 30.1107
485.303 249.168 -1.61236
479.639 248.107 -30.1674
486.481 213.474 -30.155
492.183 214.353 -1.60558
478.432 247.895 -33.0917
462.393 244.798 -57.2344
469.136 210.645 -57.2084
485.275 213.262 -33.0793
460.18 244.385 -59.4696
436.434 239.512 -75.5517
443.057 205.93 -75.5168
466.922 210.232 -59.4436
433.559 238.947 -76.7645
405.657 233.074 -82.4751
412.162 200.065 -82.4309
440.182 205.365 -76.7296
402.55 232.448 -82.4844
374.637 226.508 -76.892
381.029 194.031 -76.8559
409.054 199.439 -82.4403
371.761 225.924 -75.6899
348.061 220.878 -59.5964
354.351 188.848 -59.5761
378.154 193.447 -75.6537
345.853 220.431 -57.357
329.957 217.059 -33.1264
336.172 185.331 -33.117
352.144 188.4 -57.3367
328.759 216.817 -30.189
323.186 215.642 -1.57441
329.374 184.019 -1.56884
334.975 185.089 -30.1796
330.027 180.49 1.61198
335.65 181.571 30.197
341.193 149.659 30.1945
335.547 148.685 1.61645
336.852 181.791 33.1286
352.797 184.863 57.2908
358.401 152.663 57.2765
342.395 149.879 33.1262
355.012 185.27 59.5255
378.812 189.875 75.6047
384.5 157.26 75.5735
360.616 153.071 59.5112
381.698 190.406 76.8057
409.722 195.818 82.3904
415.501 162.71 82.3483
387.386 157.791 76.7744
412.842 196.384 82.3812
440.863 201.684 76.6801
446.741 168.027 76.6477
418.621 163.277 82.3392
443.751 202.185 75.4678
467.617 206.482 59.3945
473.602 172.21 59.3689
449.629 168.528 75.4355
469.842 206.834 57.1606
485.982 209.445 33.0331
492.064 174.637 33.0287
475.828 172.562 57.135
487.196 209.617 30.1107
492.903 210.486 1.56232
499.019 175.478 1.56773
493.278 174.809 30.1063
492.903 210.485 -1.60426
487.201 209.606 -30.1537
493.284 174.799 -30.1388
499.02 175.478 -1.59885
485.988 209.433 -33.0762
469.849 206.815 -57.2054
475.836 172.546 -57.1697
492.07 174.626 -33.0613
467.623 206.464 -59.4394
443.759 202.162 -75.5127
449.639 168.508 -75.4707
473.611 172.194 -59.4038
440.871 201.661 -76.7249
412.85 196.36 -82.4262
418.631 163.257 -82.3744
446.751 168.008 -76.6829
409.73 195.794 -82.4353
381.706 190.386 -76.851
387.396 157.776 -76.8098
415.512 162.691 -82.3836
378.82 189.855 -75.6501
355.017 185.255 -59.5725
360.623 153.064 -59.5481
384.51 157.245 -75.609
352.801 184.849 -57.3347
336.829 181.779 -33.115
342.373 149.875 -33.1031
358.407 152.657 -57.3103
335.626 181.56 -30.1787
330.025 180.489 -1.56789
335.546 148.685 -1.56342
341.17 149.656 -30.1668
336.129 145.137 1.61585
341.774 146.111 30.1939
346.715 114.038 30.1684
341.063 113.169 1.61939
342.98 146.309 33.1234
358.986 149.093 57.2737
363.949 116.747 57.225
347.92 114.236 33.0979
361.206 149.463 59.5064
385.09 153.652 75.5687
390.09 120.924 75.5025
366.169 117.117 59.4577
387.983 154.135 76.7683
416.098 159.054 82.3421
421.139 125.886 82.2647
392.982 121.408 76.7021
419.225 159.565 82.3332
447.345 164.316 76.6417
452.436 130.644 76.5728
424.266 126.397 82.2558
450.244 164.751 75.4298
474.218 168.433 59.3631
479.391 134.054 59.306
455.335 131.079 75.3608
476.453 168.716 57.1312
492.688 170.791 33.0249
497.925 135.801 33.0032
481.626 134.336 57.0741
493.908 170.92 30.1056
499.65 171.589 1.56703
504.904 136.379 1.57029
499.145 135.93 30.0839
499.65 171.589 -1.59718
493.914 170.91 -30.1371
499.154 135.923 -30.1089
504.904 136.379 -1.59392
492.696 170.781 -33.0567
476.461 168.701 -57.1651
481.639 134.324 -57.1014
497.935 135.794 -33.0284
474.227 168.418 -59.3971
450.255 164.732 -75.464
455.35 131.062 -75.3874
479.404 134.041 -59.3334
447.356 164.297 -76.676
419.236 159.546 -82.3674
424.281 126.382 -82.2817
452.451 130.628 -76.5993
416.109 159.036 -82.3764
387.993 154.121 -76.8026
392.997 121.4 -76.7276
421.154 125.871 -82.2907
385.1 153.638 -75.6031
361.213 149.457 -59.5423
366.181 117.121 -59.484
390.104 120.917 -75.5282
358.992 149.088 -57.3066
342.958 146.306 -33.0993
347.902 114.244 -33.0655
363.96 116.752 -57.2483
341.752 146.108 -30.1652
336.128 145.137 -1.56184
341.062 113.169 -1.55829
346.696 114.045 -30.1314
341.6 109.61 1.6136
347.252 110.478 30.1626
351.972 78.3351 29.9772
346.364 77.5725 1.61521
348.454 110.656 33.0814
364.483 113.167 57.2086
369.092 80.7579 56.8846
353.174 78.5128 32.8961
366.697 113.501 59.4344
390.617 117.309 75.4792
395.074 84.5355 75.0889
371.306 81.0919 59.1104
393.503 117.748 76.6762
421.659 122.226 82.2389
425.948 89.051 81.8462
397.959 84.9749 76.2859
424.779 122.689 82.2309
452.949 126.936 76.5479
457.06 93.3416 76.1806
429.068 89.5131 81.8382
455.848 127.299 75.3398
479.905 130.274 59.285
483.948 95.7481 59.0698
459.959 93.7054 74.9725
482.136 130.474 57.0616
498.436 131.939 32.9906
502.354 96.7091 32.8585
486.18 95.9478 56.8464
499.652 132.018 30.0793
505.411 132.467 1.56569
509.271 96.9931 1.55727
503.571 96.7884 29.9471
505.412 132.467 -1.58961
499.661 132.011 -30.1045
503.576 96.7846 -29.9797
509.271 96.993 -1.59803
498.446 131.932 -33.0153
482.15 130.463 -57.0882
486.203 95.9404 -56.8569
502.361 96.7051 -32.8904
479.919 130.262 -59.3111
455.864 127.283 -75.3651
459.983 93.6913 -74.983
483.972 95.7398 -59.0798
452.964 126.919 -76.5733
424.795 122.674 -82.2557
429.092 89.5021 -81.8514
457.084 93.3273 -76.1912
421.675 122.212 -82.2638
393.518 117.74 -76.7007
397.982 84.9734 -76.3011
425.972 89.0406 -81.8595
390.633 117.302 -75.5038
366.71 113.506 -59.4596
371.327 81.1085 -59.124
395.096 84.5352 -75.1041
364.494 113.173 -57.2308
348.436 110.665 -33.0481
353.165 78.5362 -32.856
369.111 80.7756 -56.8952
347.234 110.487 -30.1248
341.599 109.611 -1.55176
346.363 77.5734 -1.55014
351.962 78.3579 -29.9327
347.026 74.0582 1.57385
352.634 74.8208 29.9359
359.755 43.3354 28.6533
354.408 42.6319 1.57213
353.803 74.9817 32.7803
369.721 77.2267 56.7688
376.093 45.57 54.4233
360.923 43.4962 31.4977
371.876 77.5301 58.942
395.644 80.9737 74.9205
400.914 49.0214 71.9118
378.248 45.8734 56.5965
398.456 81.3729 76.0937
426.444 85.4489 81.654
430.453 53.1146 78.4756
403.725 49.4206 73.085
429.485 85.8675 81.6509
457.477 89.696 75.9933
460.247 56.9987 73.1057
433.495 53.5331 78.4725
460.291 90.0189 74.8238
484.28 92.0615 58.9212
485.843 59.6227 56.656
463.061 57.3216 71.9363
486.453 92.2339 56.7508
502.628 92.9952 32.7628
503.26 60.8968 31.4711
488.017 59.795 54.4855
503.811 93.0616 29.9121
509.511 93.2663 1.52224
509.787 61.275 1.51182
504.443 60.9632 28.6204
509.511 93.2655 -1.56487
503.816 93.0571 -29.9465
504.437 60.9304 -28.6633
509.787 61.2742 -1.5753
502.635 92.99 -32.7942
486.477 92.2253 -56.7607
488.044 59.7641 -54.4781
503.256 60.8633 -31.5109
484.305 92.0528 -58.9293
460.317 90.0043 -74.8325
463.091 57.3077 -71.9325
485.872 59.5916 -56.6467
457.502 89.682 -76.0025
429.51 85.8568 -81.6627
433.524 53.5269 -78.4755
460.277 56.9854 -73.1025
426.469 85.4391 -81.6663
398.478 81.372 -76.1079
403.751 49.4268 -73.0941
430.482 53.1092 -78.4791
395.667 80.9745 -74.9351
371.898 77.5478 -58.9549
378.267 45.9084 -56.6099
400.939 49.0293 -71.9213
369.741 77.246 -56.7789
353.794 75.0066 -32.7397
360.909 43.5366 -31.4609
376.11 45.6065 -54.4339
352.625 74.8444 -29.8912
347.026 74.0599 -1.50866
354.408 42.6336 -1.51038
359.74 43.3744 -28.6124
355.265 39.1805 1.48846
360.611 39.8839 28.5697
368.652 9.05894 26.8368
363.638 8.42063 1.48143
361.716 40.0314 31.2609
376.886 42.1052 54.1864
383.982 11.097 50.9871
369.757 9.20641 29.528
378.924 42.382 56.2436
401.59 45.53 71.5589
407.273 14.2127 67.3578
386.02 11.3737 53.0443
404.25 45.8915 72.6708
430.978 49.5855 78.0614
434.971 17.8922 73.4773
409.932 14.5742 68.4697
433.855 49.9646 78.0603
460.608 53.4302 72.6935
462.876 21.4312 68.426
437.848 18.2713 73.4762
463.267 53.7436 71.5834
486.049 56.0446 56.3031
486.788 24.1 53.0001
465.535 21.7446 67.3159
488.091 56.2414 54.2453
503.334 57.3432 31.2309
503.024 25.5989 29.4439
488.83 24.2968 50.9423
504.441 57.4293 28.5348
509.785 57.7412 1.42629
509.093 26.0645 1.43619
504.13 25.6851 26.7478
509.784 57.7386 -1.48959
504.435 57.3948 -28.5776
504.123 25.6253 -26.7746
509.093 26.062 -1.47968
503.33 57.3064 -31.27
488.117 56.2072 -54.2371
488.847 24.2429 -50.9319
503.018 25.5368 -29.467
486.077 56.0125 -56.293
463.296 53.7286 -71.5788
465.557 21.7301 -67.312
486.807 24.0482 -52.9877
460.637 53.4171 -72.6897
433.884 49.9586 -78.0627
437.87 18.2672 -73.4771
462.897 21.4186 -68.4229
431.007 49.5806 -78.0644
404.276 45.8981 -72.6794
409.951 14.5832 -68.4753
434.993 17.8892 -73.4788
401.615 45.539 -71.5681
378.943 42.4181 -56.2567
386.029 11.4229 -53.0564
407.291 14.2241 -67.364
376.902 42.1436 -54.1974
361.702 40.0737 -31.2244
369.738 9.26375 -29.5023
383.988 11.1483 -50.9971
360.596 39.9239 -28.5296
355.264 39.183 -1.4276
363.637 8.42317 -1.43462
368.633 9.11394 -26.8075
364.686 5.23016 1.35179
369.7 5.86847 26.7072
380.242 -21.0594 23.7824
375.819 -21.681 1.3307
370.709 6.00444 29.1638
384.933 7.89499 50.6229
393.849 -19.1643 45.2694
381.251 -20.9235 26.2391
386.797 8.14563 52.501
408.049 10.9846 66.8146
414.596 -16.3834 59.8183
395.713 -18.9136 47.1476
410.481 11.3083 67.8269
435.52 14.6262 72.8345
439.265 -13.1093 65.2224
417.028 -16.0597 60.8306
438.147 14.9699 72.83
463.175 18.1298 67.7798
464.076 -9.83374 60.6934
441.892 -12.7656 65.218
465.599 18.4337 66.7641
486.852 20.7892 52.4484
485.263 -7.0546 46.9576
466.5 -9.52987 59.6777
488.709 21.0067 50.5735
502.903 22.3088 29.0751
499.635 -5.18762 26.1179
487.121 -6.83707 45.0828
503.91 22.4179 26.6206
508.873 22.7974 1.30901
505.031 -4.5001 1.32862
500.642 -5.07851 23.6634
508.873 22.7955 -1.3488
503.903 22.3589 -26.6437
500.641 -5.08048 -23.664
505.031 -4.5019 -1.32918
502.896 22.248 -29.0975
488.726 20.9541 -50.5623
487.12 -6.84104 -45.0829
499.634 -5.19139 -26.1177
486.869 20.7384 -52.4367
465.619 18.4202 -66.761
466.501 -9.53209 -59.6774
485.264 -7.05676 -46.9573
463.195 18.1176 -67.7768
438.167 14.9663 -72.831
441.893 -12.7664 -65.2178
464.077 -9.83463 -60.6932
435.54 14.6232 -72.8356
410.499 11.3171 -67.8321
417.029 -16.0599 -60.8306
439.266 -13.1095 -65.2224
408.066 10.9948 -66.8198
386.804 8.19361 -52.5122
395.713 -18.9122 -47.1477
414.596 -16.3822 -59.8184
384.939 7.94483 -50.6335
370.69 6.06026 -29.1387
381.25 -20.9201 -26.2386
393.849 -19.161 -45.269
369.681 5.92263 -26.6812
364.686 5.23186 -1.30836
375.819 -21.6793 -1.32945
380.241 -21.0577 -23.7812
-63.6779 1012.71 25.277
-67.6325 1009.45 -0.490481
-63.5999 1012.62 -26.2549
-52.2204 1021.75 -48.0879
-35.1816 1035.39 -62.6505
-15.103 1051.46 -67.7261
4.86396 1067.64 -62.5986
21.6457 1081.6 -48.0764
32.7716 1091.16 -26.2988
36.6677 1094.57 -0.526894
32.7689 1091.17 25.2447
21.6314 1081.64 47.027
4.8302 1067.71 61.5634
-15.1493 1051.56 66.7052
-35.2349 1035.49 61.6435
-52.3036 1021.86 47.1039
382.635 -22.3855 1.31945e-05
387.058 -21.764 22.4517
399.656 -20.0048 41.4821
418.539 -17.4746 54.1528
440.776 -14.5241 58.5446
462.96 -11.5923 54.02
481.723 -9.11705 41.3
494.237 -7.4676 22.335
498.627 -6.88918 0.000239176
494.237 -7.46776 -22.3346
481.723 -9.11742 -41.2997
462.96 -11.5927 -54.0199
440.776 -14.5245 -58.5445
418.539 -17.4748 -54.1527
399.656 -20.0049 -41.4821
387.058 -21.764 -22.4517
</DataArray>
</Points>
<Cells>
<DataArray type="Int32" Name="connectivity" format="ascii">
0 1 2 3 
4 5 6 7 
8 9 10 11 
12 13 14 15 
16 17 18 19 
20 21 22 23 
24 25 26 27 
28 29 30 31 
32 33 34 35 
36 37 38 39 
40 41 42 43 
44 45 46 47 
48 49 50 51 
52 53 54 55 
56 57 58 59 
60 61 62 63 
64 65 66 67 
68 69 70 71 
72 73 74 75 
76 77 78 79 
80 81 82 83 
84 85 86 87 
88 89 90 91 
92 93 94 95 
96 97 98 99 
100 101 102 103 
104 105 106 107 
108 109 110 111 
112 113 114 115 
116 117 118 119 
120 121 122 123 
124 125 126 127 
128 129 130 131 
132 133 134 135 
136 137 138 139 
140 141 142 143 
144 145 146 147 
148 149 150 151 
152 153 154 155 
156 157 158 159 
160 161 162 163 
164 165 166 167 
168 169 170 171 
172 173 174 175 
176 177 178 179 
180 181 182 183 
184 185 186 187 
188 189 190 191 
192 193 194 195 
196 197 198 199 
200 201 202 203 
204 205 206 207 
208 209 210 211 
212 213 214 215 
216 217 218 219 
220 221 222 223 
224 225 226 227 
228 229 230 231 
232 233 234 235 
236 237 238 239 
240 241 242 243 
244 245 246 247 
248 249 250 251 
252 253 254 255 
256 257 258 259 
260 261 262 263 
264 265 266 267 
268 269 270 271 
272 273 274 275 
276 277 278 279 
280 281 282 283 
284 285 286 287 
288 289 290 291 
292 293 294 295 
296 297 298 299 
300 301 302 303 
304 305 306 307 
308 309 310 311 
312 313 314 315 
316 317 318 319 
320 321 322 323 
324 325 326 327 
328 329 330 331 
332 333 334 335 
336 337 338 339 
340 341 342 343 
344 345 346 347 
348 349 350 351 
352 353 354 355 
356 357 358 359 
360 361 362 363 
364 365 366 367 
368 369 370 371 
372 373 374 375 
376 377 378 379 
380 381 382 383 
384 385 386 387 
388 389 390 391 
392 393 394 395 
396 397 398 399 
400 401 402 403 
404 405 406 407 
408 409 410 411 
412 413 414 415 
416 417 418 419 
420 421 422 423 
424 425 426 427 
428 429 430 431 
432 433 434 435 
436 437 438 439 
440 441 442 443 
444 445 446 447 
448 449 450 451 
452 453 454 455 
456 457 458 459 
460 461 462 463 
464 465 466 467 
468 469 470 471 
472 473 474 475 
476 477 478 479 
480 481 482 483 
484 485 486 487 
488 489 490 491 
492 493 494 495 
496 497 498 499 
500 501 502 503 
504 505 506 507 
508 509 510 511 
512 513 514 515 
516 517 518 519 
520 521 522 523 
524 525 526 527 
528 529 530 531 
532 533 534 535 
536 537 538 539 
540 541 542 543 
544 545 546 547 
548 549 550 551 
552 553 554 555 
556 557 558 559 
560 561 562 563 
564 565 566 567 
568 569 570 571 
572 573 574 575 
576 577 578 579 
580 581 582 583 
584 585 586 587 
588 589 590 591 
592 593 594 595 
596 597 598 599 
600 601 602 603 
604 605 606 607 
608 609 610 611 
612 613 614 615 
616 617 618 619 
620 621 622 623 
624 625 626 627 
628 629 630 631 
632 633 634 635 
636 637 638 639 
640 641 642 643 
644 645 646 647 
648 649 650 651 
652 653 654 655 
656 657 658 659 
660 661 662 663 
664 665 666 667 
668 669 670 671 
672 673 674 675 
676 677 678 679 
680 681 682 683 
684 685 686 687 
688 689 690 691 
692 693 694 695 
696 697 698 699 
700 701 702 703 
704 705 706 707 
708 709 710 711 
712 713 714 715 
716 717 718 719 
720 721 722 723 
724 725 726 727 
728 729 730 731 
732 733 734 735 
736 737 738 739 
740 741 742 743 
744 745 746 747 
748 749 750 751 
752 753 754 755 
756 757 758 759 
760 761 762 763 
764 765 766 767 
768 769 770 771 
772 773 774 775 
776 777 778 779 
780 781 782 783 
784 785 786 787 
788 789 790 791 
792 793 794 795 
796 797 798 799 
800 801 802 803 
804 805 806 807 
808 809 810 811 
812 813 814 815 
816 817 818 819 
820 821 822 823 
824 825 826 827 
828 829 830 831 
832 833 834 835 
836 837 838 839 
840 841 842 843 
844 845 846 847 
848 849 850 851 
852 853 854 855 
856 857 858 859 
860 861 862 863 
864 865 866 867 
868 869 870 871 
872 873 874 875 
876 877 878 879 
880 881 882 883 
884 885 886 887 
888 889 890 891 
892 893 894 895 
896 897 898 899 
900 901 902 903 
904 905 906 907 
908 909 910 911 
912 913 914 915 
916 917 918 919 
920 921 922 923 
924 925 926 927 
928 929 930 931 
932 933 934 935 
936 937 938 939 
940 941 942 943 
944 945 946 947 
948 949 950 951 
952 953 954 955 
956 957 958 959 
960 961 962 963 
964 965 966 967 
968 969 970 971 
972 973 974 975 
976 977 978 979 
980 981 982 983 
984 985 986 987 
988 989 990 991 
992 993 994 995 
996 997 998 999 
1000 1001 1002 1003 
1004 1005 1006 1007 
1008 1009 1010 1011 
1012 1013 1014 1015 
1016 1017 1018 1019 
1020 1021 1022 1023 
1024 1025 1026 1027 
1028 1029 1030 1031 
1032 1033 1034 1035 
1036 1037 1038 1039 
1040 1041 1042 1043 
1044 1045 1046 1047 
1048 1049 1050 1051 
1052 1053 1054 1055 
1056 1057 1058 1059 
1060 1061 1062 1063 
1064 1065 1066 1067 
1068 1069 1070 1071 
1072 1073 1074 1075 
1076 1077 1078 1079 
1080 1081 1082 1083 
1084 1085 1086 1087 
1088 1089 1090 1091 
1092 1093 1094 1095 
1096 1097 1098 1099 
1100 1101 1102 1103 
1104 1105 1106 1107 
1108 1109 1110 1111 
1112 1113 1114 1115 
1116 1117 1118 1119 
1120 1121 1122 1123 
1124 1125 1126 1127 
1128 1129 1130 1131 
1132 1133 1134 1135 
1136 1137 1138 1139 
1140 1141 1142 1143 
1144 1145 1146 1147 
1148 1149 1150 1151 
1152 1153 1154 1155 
1156 1157 1158 1159 
1160 1161 1162 1163 
1164 1165 1166 1167 
1168 1169 1170 1171 
1172 1173 1174 1175 
1176 1177 1178 1179 
1180 1181 1182 1183 
1184 1185 1186 1187 
1188 1189 1190 1191 
1192 1193 1194 1195 
1196 1197 1198 1199 
1200 1201 1202 1203 
1204 1205 1206 1207 
1208 1209 1210 1211 
1212 1213 1214 1215 
1216 1217 1218 1219 
1220 1221 1222 1223 
1224 1225 1226 1227 
1228 1229 1230 1231 
1232 1233 1234 1235 
1236 1237 1238 1239 
1240 1241 1242 1243 
1244 1245 1246 1247 
1248 1249 1250 1251 
1252 1253 1254 1255 
1256 1257 1258 1259 
1260 1261 1262 1263 
1264 1265 1266 1267 
1268 1269 1270 1271 
1272 1273 1274 1275 
1276 1277 1278 1279 
1280 1281 1282 1283 
1284 1285 1286 1287 
1288 1289 1290 1291 
1292 1293 1294 1295 
1296 1297 1298 1299 
1300 1301 1302 1303 
1304 1305 1306 1307 
1308 1309 1310 1311 
1312 1313 1314 1315 
1316 1317 1318 1319 
1320 1321 1322 1323 
1324 1325 1326 1327 
1328 1329 1330 1331 
1332 1333 1334 1335 
1336 1337 1338 1339 
1340 1341 1342 1343 
1344 1345 1346 1347 
1348 1349 1350 1351 
1352 1353 1354 1355 
1356 1357 1358 1359 
1360 1361 1362 1363 
1364 1365 1366 1367 
1368 1369 1370 1371 
1372 1373 1374 1375 
1376 1377 1378 1379 
1380 1381 1382 1383 
1384 1385 1386 1387 
1388 1389 1390 1391 
1392 1393 1394 1395 
1396 1397 1398 1399 
1400 1401 1402 1403 
1404 1405 1406 1407 
1408 1409 1410 1411 
1412 1413 1414 1415 
1416 1417 1418 1419 
1420 1421 1422 1423 
1424 1425 1426 1427 
1428 1429 1430 1431 
1432 1433 1434 1435 
1436 1437 1438 1439 
1440 1441 1442 1443 
1444 1445 1446 1447 
1448 1449 1450 1451 
1452 1453 1454 1455 
1456 1457 1458 1459 
1460 1461 1462 1463 
1464 1465 1466 1467 
1468 1469 1470 1471 
1472 1473 1474 1475 
1476 1477 1478 1479 
1480 1481 1482 1483 
1484 1485 1486 1487 
1488 1489 1490 1491 
1492 1493 1494 1495 
1496 1497 1498 1499 
1500 1501 1502 1503 
1504 1505 1506 1507 
1508 1509 1510 1511 
1512 1513 1514 1515 
1516 1517 1518 1519 
1520 1521 1522 1523 
1524 1525 1526 1527 
1528 1529 1530 1531 
1532 1533 1534 1535 
1536 1537 1538 1539 
1540 1541 1542 1543 
1544 1545 1546 1547 
1548 1549 1550 1551 
1552 1553 1554 1555 
1556 1557 1558 1559 
1560 1561 1562 1563 
1564 1565 1566 1567 
1568 1569 1570 1571 
1572 1573 1574 1575 
1576 1577 1578 1579 
1580 1581 1582 1583 
1584 1585 1586 1587 
1588 1589 1590 1591 
1592 1593 1594 1595 
1596 1597 1598 1599 
1600 1601 1602 1603 
1604 1605 1606 1607 
1608 1609 1610 1611 
1612 1613 1614 1615 
1616 1617 1618 1619 
1620 1621 1622 1623 
1624 1625 1626 1627 
1628 1629 1630 1631 
1632 1633 1634 1635 
1636 1637 1638 1639 
1640 1641 1642 1643 
1644 1645 1646 1647 
1648 1649 1650 1651 
1652 1653 1654 1655 
1656 1657 1658 1659 
1660 1661 1662 1663 
1664 1665 1666 1667 
1668 1669 1670 1671 
1672 1673 1674 1675 
1676 1677 1678 1679 
1680 1681 1682 1683 
1684 1685 1686 1687 
1688 1689 1690 1691 
1692 1693 1694 1695 
1696 1697 1698 1699 
1700 1701 1702 1703 
1704 1705 1706 1707 
1708 1709 1710 1711 
1712 1713 1714 1715 
1716 1717 1718 1719 
1720 1721 1722 1723 
1724 1725 1726 1727 
1728 1729 1730 1731 
1732 1733 1734 1735 
1736 1737 1738 1739 
1740 1741 1742 1743 
1744 1745 1746 1747 
1748 1749 1750 1751 
1752 1753 1754 1755 
1756 1757 1758 1759 
1760 1761 1762 1763 
1764 1765 1766 1767 
1768 1769 1770 1771 
1772 1773 1774 1775 
1776 1777 1778 1779 
1780 1781 1782 1783 
1784 1785 1786 1787 
1788 1789 1790 1791 
1792 1793 1794 1795 
1796 1797 1798 1799 
1800 1801 1802 1803 
1804 1805 1806 1807 
1808 1809 1810 1811 
1812 1813 1814 1815 
1816 1817 1818 1819 
1820 1821 1822 1823 
1824 1825 1826 1827 
1828 1829 1830 1831 
1832 1833 1834 1835 
1836 1837 1838 1839 
1840 1841 1842 1843 
1844 1845 1846 1847 
1848 1849 1850 1851 
1852 1853 1854 1855 
1856 1857 1858 1859 
1860 1861 1862 1863 
1864 1865 1866 1867 
1868 1869 1870 1871 
1872 1873 1874 1875 
1876 1877 1878 1879 
1880 1881 1882 1883 
1884 1885 1886 1887 
1888 1889 1890 1891 
1892 1893 1894 1895 
1896 1897 1898 1899 
1900 1901 1902 1903 
1904 1905 1906 1907 
1908 1909 1910 1911 
1912 1913 1914 1915 
1916 1917 1918 1919 
1920 1921 1922 1923 
1924 1925 1926 1927 
1928 1929 1930 1931 
1932 1933 1934 1935 
1936 1937 1938 1939 
1940 1941 1942 1943 
1944 1945 1946 1947 
1948 1949 1950 1951 
1952 1953 1954 1955 
1956 1957 1958 1959 
1960 1961 1962 1963 
1964 1965 1966 1967 
1968 1969 1970 1971 
1972 1973 1974 1975 
1976 1977 1978 1979 
1980 1981 1982 1983 
1984 1985 1986 1987 
1988 1989 1990 1991 
1992 1993 1994 1995 
1996 1997 1998 1999 
2000 2001 2002 2003 
2004 2005 2006 2007 
2008 2009 2010 2011 
2012 2013 2014 2015 
2016 2017 2018 2019 
2020 2021 2022 2023 
2024 2025 2026 2027 
2028 2029 2030 2031 
2032 2033 2034 2035 
2036 2037 2038 2039 
2040 2041 2042 2043 
2044 2045 2046 2047 
2048 2049 2050 2051 2052 2053 2054 2055 2056 2057 2058 2059 2060 2061 2062 2063 
2064 2065 2066 2067 2068 2069 2070 2071 2072 2073 2074 2075 2076 2077 2078 2079 
</DataArray>
<DataArray type="Int32" Name="offsets" format="ascii">
4 8 12 16 20 24 28 32 36 40 44 48 52 56 60 64 68 72 76 80 84 88 92 96 100 104 108 112 116 120 124 128 132 136 140 144 148 152 156 160 164 168 172 176 180 184 188 192 196 200 204 208 212 216 220 224 228 232 236 240 244 248 252 256 260 264 268 272 276 280 284 288 292 296 300 304 308 312 316 320 324 328 332 336 340 344 348 352 356 360 364 368 372 376 380 384 388 392 396 400 404 408 412 416 420 424 428 432 436 440 444 448 452 456 460 464 468 472 476 480 484 488 492 496 500 504 508 512 516 520 524 528 532 536 540 544 548 552 556 560 564 568 572 576 580 584 588 592 596 600 604 608 612 616 620 624 628 632 636 640 644 648 652 656 660 664 668 672 676 680 684 688 692 696 700 704 708 712 716 720 724 728 732 736 740 744 748 752 756 760 764 768 772 776 780 784 788 792 796 800 804 808 812 816 820 824 828 832 836 840 844 848 852 856 860 864 868 872 876 880 884 888 892 896 900 904 908 912 916 920 924 928 932 936 940 944 948 952 956 960 964 968 972 976 980 984 988 992 996 1000 1004 1008 1012 1016 1020 1024 1028 1032 1036 1040 1044 1048 1052 1056 1060 1064 1068 1072 1076 1080 1084 1088 1092 1096 1100 1104 1108 1112 1116 1120 1124 1128 1132 1136 1140 1144 1148 1152 1156 1160 1164 1168 1172 1176 1180 1184 1188 1192 1196 1200 1204 1208 1212 1216 1220 1224 1228 1232 1236 1240 1244 1248 1252 1256 1260 1264 1268 1272 1276 1280 1284 1288 1292 1296 1300 1304 1308 1312 1316 1320 1324 1328 1332 1336 1340 1344 1348 1352 1356 1360 1364 1368 1372 1376 1380 1384 1388 1392 1396 1400 1404 1408 1412 1416 1420 1424 1428 1432 1436 1440 1444 1448 1452 1456 1460 1464 1468 1472 1476 1480 1484 1488 1492 1496 1500 1504 1508 1512 1516 1520 1524 1528 1532 1536 1540 1544 1548 1552 1556 1560 1564 1568 1572 1576 1580 1584 1588 1592 1596 1600 1604 1608 1612 1616 1620 1624 1628 1632 1636 1640 1644 1648 1652 1656 1660 1664 1668 1672 1676 1680 1684 1688 1692 1696 1700 1704 1708 1712 1716 1720 1724 1728 1732 1736 1740 1744 1748 1752 1756 1760 1764 1768 1772 1776 1780 1784 1788 1792 1796 1800 1804 1808 1812 1816 1820 1824 1828 1832 1836 1840 1844 1848 1852 1856 1860 1864 1868 1872 1876 1880 1884 1888 1892 1896 1900 1904 1908 1912 1916 1920 1924 1928 1932 1936 1940 1944 1948 1952 1956 1960 1964 1968 1972 1976 1980 1984 1988 1992 1996 2000 2004 2008 2012 2016 2020 2024 2028 2032 2036 2040 2044 2048 2064 2080 
</DataArray>
<DataArray type="UInt8" Name="types" format="ascii">
7 7 7 7 7 7 7 7 7 7 7 7 7 7 7 7 7 7 7 7 7 7 7 7 7 7 7 7 7 7 7 7 7 7 7 7 7 7 7 7 7 7 7 7 7 7 7 7 7 7 7 7 7 7 7 7 7 7 7 7 7 7 7 7 7 7 7 7 7 7 7 7 7 7 7 7 7 7 7 7 7 7 7 7 7 7 7 7 7 7 7 7 7 7 7 7 7 7 7 7 7 7 7 7 7 7 7 7 7 7 7 7 7 7 7 7 7 7 7 7 7 7 7 7 7 7 7 7 7 7 7 7 7 7 7 7 7 7 7 7 7 7 7 7 7 7 7 7 7 7 7 7 7 7 7 7 7 7 7 7 7 7 7 7 7 7 7 7 7 7 7 7 7 7 7 7 7 7 7 7 7 7 7 7 7 7 7 7 7 7 7 7 7 7 7 7 7 7 7 7 7 7 7 7 7 7 7 7 7 7 7 7 7 7 7 7 7 7 7 7 7 7 7 7 7 7 7 7 7 7 7 7 7 7 7 7 7 7 7 7 7 7 7 7 7 7 7 7 7 7 7 7 7 7 7 7 7 7 7 7 7 7 7 7 7 7 7 7 7 7 7 7 7 7 7 7 7 7 7 7 7 7 7 7 7 7 7 7 7 7 7 7 7 7 7 7 7 7 7 7 7 7 7 7 7 7 7 7 7 7 7 7 7 7 7 7 7 7 7 7 7 7 7 7 7 7 7 7 7 7 7 7 7 7 7 7 7 7 7 7 7 7 7 7 7 7 7 7 7 7 7 7 7 7 7 7 7 7 7 7 7 7 7 7 7 7 7 7 7 7 7 7 7 7 7 7 7 7 7 7 7 7 7 7 7 7 7 7 7 7 7 7 7 7 7 7 7 7 7 7 7 7 7 7 7 7 7 7 7 7 7 7 7 7 7 7 7 7 7 7 7 7 7 7 7 7 7 7 7 7 7 7 7 7 7 7 7 7 7 7 7 7 7 7 7 7 7 7 7 7 7 7 7 7 7 7 7 7 7 7 7 7 7 7 7 7 7 7 7 7 7 7 7 7 7 7 7 7 7 7 7 7 7 7 7 7 7 7 7 7 7 7 7 7 7 7 7 7 7 7 7 7 7 7 7 7 7 7 7 7 7 7 7 7 
</DataArray>
</Cells>
<CellData Scalars="cell variable 4" Vectors="cell vector">
<DataArray type="Float64" NumberOfComponents="3" Name="cell vector" format="ascii">
0.178241 0.0744977 0.981163
0.526823 0.167019 0.833404
0.787334 0.230839 0.571681
0.91736 0.317691 0.239841
0.762018 0.617262 -0.195745
0.318989 0.760213 -0.56597
-0.15831 -0.559148 0.813813
-0.0372475 -0.220563 0.974661
0.0438975 0.215654 0.975483
0.144238 0.568278 0.810096
0.312648 0.763977 0.564438
0.759801 0.619972 0.195799
0.916162 0.321423 -0.239447
0.781134 0.249112 -0.572514
-0.513815 -0.195547 0.835317
-0.187249 -0.0582623 0.980583
0.161591 0.110543 0.980647
0.463593 0.308391 0.830648
0.691753 0.461965 0.555037
0.803412 0.562228 0.196036
0.761463 0.618002 -0.195571
0.566308 0.610982 -0.553168
-0.367975 -0.421518 0.828805
-0.129572 -0.148578 0.980375
0.129616 0.149294 0.980261
0.364462 0.425775 0.828181
0.564738 0.612937 0.552612
0.760727 0.619017 0.195223
0.802388 0.563591 -0.196312
0.690155 0.463881 -0.555428
-0.461842 -0.31014 0.830973
-0.16373 -0.106948 0.980691
0.160613 0.112769 0.980554
0.45888 0.316697 0.83014
0.685342 0.473077 0.553629
0.800773 0.566693 0.193963
0.770428 0.60679 -0.195567
0.557471 0.622403 -0.5494
-0.378966 -0.412646 0.828316
-0.134712 -0.143653 0.980417
0.134397 0.144895 0.980277
0.377254 0.415107 0.827868
0.556857 0.623356 0.548942
0.769786 0.607711 0.195235
0.800016 0.567655 -0.194274
0.684689 0.473703 -0.553901
-0.457997 -0.31713 0.830462
-0.161651 -0.110129 0.980684
0.161352 0.112306 0.980486
0.460599 0.315416 0.829675
0.68931 0.468733 0.552396
0.80884 0.555658 0.192412
0.783557 0.589727 -0.195601
0.403877 0.75113 -0.522194
-0.465374 0.847796 -0.254303
-0.620916 0.781722 -0.0580883
-0.621266 0.781673 0.0549191
-0.470509 0.847326 0.246293
0.405677 0.750313 0.521973
0.78288 0.590734 0.195272
0.808229 0.556441 -0.192713
0.689052 0.468868 -0.552603
-0.459902 -0.315572 0.830003
-0.161758 -0.11014 0.980665
0.161989 0.111674 0.980453
0.46163 0.314383 0.829494
0.690252 0.467855 0.551964
0.809515 0.554889 0.191792
0.785531 0.587076 -0.195661
0.468473 0.705057 -0.532379
-0.453214 0.857711 -0.242755
-0.600295 0.797793 -0.0563163
-0.600208 0.797919 0.055462
-0.452276 0.858212 0.242731
0.470997 0.703435 0.532298
0.7852 0.587623 0.195344
0.809184 0.555279 -0.192057
0.690282 0.467619 -0.552127
-0.461212 -0.314161 0.829811
-0.162066 -0.109761 0.980657
0.162619 0.110513 0.980481
0.463048 0.311646 0.829737
0.692325 0.464298 0.552371
0.812754 0.550089 0.191919
0.793375 0.576312 -0.196014
0.515237 0.667194 -0.537944
-0.459004 0.863422 -0.209327
-0.583039 0.81088 -0.0503856
-0.582942 0.810995 0.0496539
-0.457985 0.86392 0.209506
0.51809 0.664968 0.53796
0.793162 0.576697 0.195742
0.812578 0.550272 -0.192141
0.692494 0.463884 -0.552507
-0.462816 -0.311166 0.830046
-0.162533 -0.108731 0.980694
0.163559 0.108694 0.980527
0.465554 0.306929 0.830093
0.696199 0.457776 0.552945
0.818247 0.541804 0.192148
0.803764 0.561603 -0.196382
0.553421 0.632396 -0.542034
-0.470678 0.866422 -0.166656
-0.566682 0.822845 -0.0424014
-0.566593 0.822944 0.0416636
-0.469887 0.866863 0.166596
0.556395 0.629737 0.542085
0.803647 0.561854 0.196141
0.818183 0.54183 -0.192344
0.696431 0.457279 -0.553064
-0.465436 -0.306288 0.830396
-0.163378 -0.106995 0.980745
0.164816 0.106365 0.980572
0.469055 0.300651 0.83042
0.701606 0.448815 0.553456
0.825422 0.530735 0.192353
0.815002 0.545057 -0.196686
0.586118 0.599361 -0.545191
-0.480055 0.86826 -0.125188
-0.550286 0.834288 -0.0338954
-0.550208 0.83437 0.033129
-0.479457 0.868632 0.1249
0.589155 0.596316 0.545256
0.814958 0.545202 0.196467
0.825438 0.530645 -0.192531
0.701864 0.44828 -0.553564
-0.469003 -0.299907 0.830718
-0.164566 -0.104724 0.980791
0.166323 0.103645 0.980609
0.473312 0.293168 0.830679
0.708135 0.437941 0.553853
0.833742 0.517506 0.192514
0.826331 0.527636 -0.19692
0.615344 0.566902 -0.547699
-0.483869 0.870468 -0.0903129
-0.533504 0.845401 -0.0258951
-0.533439 0.845467 0.0250836
-0.483414 0.870769 0.0898506
0.618347 0.563564 0.547761
0.826327 0.527718 0.196719
0.833806 0.517342 -0.192679
0.708399 0.437388 -0.553951
-0.473297 -0.292359 0.830973
-0.166018 -0.102049 0.980828
0.168006 0.100624 0.980637
0.478096 0.284738 0.830873
0.715422 0.425552 0.554145
0.842769 0.502626 0.192633
0.837464 0.509713 -0.197096
0.64245 0.533888 -0.549747
-0.481927 0.873927 -0.0632268
-0.516189 0.856264 -0.0190121
-0.516141 0.856312 0.0181389
-0.481571 0.874165 0.0626453
0.645195 0.530539 0.549775
0.837472 0.509772 0.19691
0.842857 0.50242 -0.192787
0.715682 0.424997 -0.554234
-0.478097 -0.283888 0.831162
-0.167654 -0.0990647 0.980856
0.169798 0.0973702 0.980657
0.483183 0.275592 0.831014
0.723142 0.412013 0.554356
0.852175 0.486473 0.19272
0.848314 0.491393 -0.197222
0.665818 0.502858 -0.5512
-0.475329 0.878764 -0.0428456
-0.498307 0.866895 -0.0135081
-0.498274 0.866929 0.0125861
-0.475051 0.878947 0.0421768
0.668275 0.499591 0.551197
0.84832 0.491453 0.197049
0.852271 0.486248 -0.192863
0.723391 0.411466 -0.554438
-0.483187 -0.27472 0.8313
-0.1694 -0.0958459 0.980876
0.171639 0.0939399 0.980671
0.4884 0.265926 0.831113
0.731033 0.397635 0.554506
0.861714 0.469344 0.192781
0.858844 0.47271 -0.197311
0.687286 0.471784 -0.552321
-0.464778 0.884971 -0.0284156
-0.479907 0.87727 -0.00932312
-0.479884 0.877292 0.00837379
-0.464564 0.885107 0.0276801
0.68937 0.468778 0.552283
0.858843 0.472781 0.197148
0.861807 0.469118 -0.192916
0.731267 0.397103 -0.554579
-0.488399 -0.265043 0.831395
-0.171198 -0.0924507 0.980889
0.17349 0.0903709 0.980681
0.49364 0.255844 0.831182
0.738937 0.382598 0.554609
0.871202 0.45147 0.192825
0.869019 0.453708 -0.197372
0.70687 0.440862 -0.55315
-0.45135 0.892158 -0.0183367
-0.461044 0.887355 -0.0062429
-0.461031 0.887368 0.00527661
-0.451188 0.892256 0.0175577
0.708449 0.438414 0.553076
0.869005 0.453801 0.19722
0.871288 0.451252 -0.19295
0.739154 0.382084 -0.554674
-0.49363 -0.25496 0.83146
-0.173006 -0.0889184 0.980899
0.175322 0.0866911 0.980687
0.498823 0.245434 0.831227
0.746733 0.367047 0.554677
0.880513 0.433018 0.192854
0.878807 0.434426 -0.197412
0.724466 0.410536 -0.553723
-0.435886 0.899931 -0.0112846
-0.441784 0.897113 -0.00399922
-0.441776 0.89712 0.00304816
-0.435772 0.899996 0.0104667
0.725589 0.408681 0.553626
0.878783 0.43454 0.19727
0.880587 0.432815 -0.19297
0.746933 0.366554 -0.554734
-0.498798 -0.244555 0.831501
-0.174796 -0.0852781 0.980905
0.177113 0.0829253 0.980691
0.503885 0.234772 0.831254
0.754329 0.351106 0.554718
0.889551 0.414124 0.192872
0.88819 0.414895 -0.197435
0.740257 0.380793 -0.55409
-0.419064 0.907936 -0.00615873
-0.422191 0.906504 -0.00232678
-0.422186 0.906508 0.00140501
-0.418993 0.907974 0.00531435
0.740949 0.379604 0.553981
0.888156 0.415031 0.197302
0.889614 0.413939 -0.19298
0.754511 0.350637 -0.554767
-0.503842 -0.233905 0.831524
-0.176544 -0.0815555 0.980908
0.178847 0.0790946 0.980692
0.508777 0.223927 0.831266
0.761655 0.334885 0.554737
0.898245 0.394908 0.192881
0.897149 0.395146 -0.197444
0.754708 0.35095 -0.554301
-0.401453 0.915878 -0.00203944
-0.402331 0.915494 -0.000972376
-0.402329 0.915495 6.90695e-05
-0.401409 0.915898 0.0011953
0.75478 0.350976 0.554186
0.897108 0.3953 0.197319
0.898301 0.394733 -0.192981
0.761822 0.334436 -0.554779
-0.508715 -0.223076 0.831532
-0.178235 -0.0777746 0.98091
0.180511 0.0752237 0.980692
0.513463 0.212967 0.831265
0.768658 0.318484 0.554737
0.90654 0.375476 0.192883
0.905668 0.375211 -0.197439
0.768239 0.320129 -0.55437
-0.383498 0.92354 0.00177827
-0.382264 0.924053 0.000316309
-0.382251 0.924058 -0.00111715
-0.383505 0.923535 -0.00266092
0.768263 0.32024 0.554274
0.905643 0.375333 0.197324
0.906586 0.375318 -0.192974
0.768808 0.318064 -0.55477
-0.513381 -0.212137 0.831528
-0.179855 -0.0739572 0.980909
0.182092 0.0713389 0.98069
0.517913 0.201964 0.83125
0.775295 0.302007 0.554716
0.914391 0.355932 0.192876
0.913754 0.355076 -0.197421
0.782083 0.284868 -0.554253
-0.365641 0.930737 0.00598245
-0.362042 0.93216 0.00170021
-0.36203 0.932163 -0.00245086
-0.365715 0.930701 -0.00692202
0.78158 0.286369 0.554189
0.913723 0.355215 0.197315
0.914426 0.355797 -0.192958
0.775429 0.301614 -0.554742
-0.517813 -0.20115 0.83151
-0.181397 -0.0701248 0.980907
0.183586 0.0674632 0.980686
0.522108 0.190986 0.831221
0.781531 0.285565 0.554673
0.921759 0.336399 0.19286
0.921398 0.334759 -0.197388
0.796567 0.242576 -0.553748
-0.348345 0.937299 0.0112741
-0.34173 0.939792 0.00340702
-0.341731 0.939789 -0.00417595
-0.348489 0.937233 -0.0122689
0.795048 0.247381 0.553806
0.921342 0.334969 0.197292
0.921785 0.336287 -0.192933
0.781654 0.285193 -0.554691
-0.521994 -0.190181 0.831477
-0.182855 -0.0662999 0.980902
0.184989 0.0636221 0.980679
0.526034 0.180114 0.831172
0.78734 0.26928 0.554603
0.928609 0.317018 0.192833
0.928579 0.314324 -0.197337
0.810475 0.194307 -0.552608
-0.332148 0.943047 0.0184629
-0.321401 0.946926 0.00573827
-0.321401 0.946921 -0.00644982
-0.33238 0.942943 -0.019545
0.808682 0.200979 0.552848
0.928519 0.314555 0.197251
0.928626 0.316931 -0.192897
0.787449 0.26894 -0.554613
-0.525908 -0.179316 0.831424
-0.184225 -0.0625112 0.980894
0.186299 0.0598488 0.980669
0.529679 0.169448 0.8311
0.792696 0.253313 0.554496
0.934907 0.29796 0.192792
0.935288 0.293808 -0.197262
0.822419 0.142668 -0.550703
-0.317787 0.947728 0.0286733
-0.301126 0.953543 0.00893946
-0.301131 0.953534 -0.0096279
-0.318111 0.947583 -0.0298505
0.820614 0.150957 0.551185
0.935225 0.294062 0.197187
0.93492 0.297886 -0.192845
0.792795 0.252997 -0.554498
-0.529545 -0.168649 0.831348
-0.185504 -0.0587934 0.980883
0.187513 0.0561895 0.980654
0.533035 0.159124 0.830995
0.797575 0.237865 0.554341
0.940623 0.279434 0.192731
0.941522 0.27325 -0.197157
0.831289 0.091842 -0.548201
-0.30609 0.951023 0.0431732
-0.280968 0.959626 0.0132396
-0.28099 0.959609 -0.0139683
-0.306519 0.950826 -0.0444624
0.829755 0.10098 0.548917
0.941446 0.273556 0.197094
0.940634 0.279368 -0.192773
0.79767 0.237567 -0.554333
-0.532899 -0.158305 0.831239
-0.186691 -0.0551899 0.980867
0.188632 0.0527051 0.980632
0.536096 0.14932 0.830846
0.801954 0.223212 0.554118
0.945722 0.261725 0.192641
0.947277 0.252689 -0.197013
0.837015 0.0442373 -0.545388
-0.297987 0.952462 0.0634046
-0.260986 0.965159 0.0188246
-0.261037 0.965129 -0.0196448
-0.298542 0.952191 -0.0648403
0.835924 0.0532598 0.546255
0.947186 0.253068 0.196963
0.945732 0.261665 -0.192672
0.802047 0.222922 -0.5541
-0.535965 -0.148457 0.831085
-0.187788 -0.0517609 0.980845
0.189657 0.0494728 0.980603
0.538856 0.140278 0.830636
0.805804 0.209728 0.5538
0.95016 0.245225 0.192512
0.952557 0.232157 -0.19682
0.84013 -0.000419439 -0.542386
-0.294362 0.951374 0.0907658
-0.241213 0.970131 0.0257206
-0.241308 0.970081 -0.0267189
-0.29506 0.951003 -0.0923741
0.839461 0.00824278 0.543357
0.952446 0.232641 0.196786
0.950174 0.245157 -0.19253
0.8059 0.209428 -0.553774
-0.538739 -0.139334 0.830871
-0.188797 -0.0485871 0.980814
0.190587 0.0465951 0.980564
0.541306 0.132321 0.830349
0.809089 0.197913 0.553358
0.953886 0.230463 0.192326
0.957349 0.211763 -0.196566
0.841093 -0.0438688 -0.539108
-0.295553 0.947005 0.125815
-0.221614 0.974553 0.0336697
-0.221776 0.974471 -0.0349494
-0.296392 0.946506 -0.127587
0.84081 -0.0356576 0.540155
0.95722 0.212366 0.196549
0.953909 0.230361 -0.192333
0.809196 0.197575 -0.553323
-0.541214 -0.131243 0.83058
-0.189718 -0.0457784 0.980771
0.191405 0.0442066 0.980515
0.543412 0.125862 0.829977
0.811763 0.188399 0.552764
0.956834 0.218135 0.192058
0.961585 0.191941 -0.196249
0.839997 -0.088939 -0.535252
-0.300425 0.939109 0.16679
-0.202018 0.97848 0.0420292
-0.202263 0.978357 -0.0436658
-0.301361 0.938477 -0.168647
0.840068 -0.0814323 0.536335
0.961451 0.19261 0.196246
0.956873 0.217963 -0.192059
0.811885 0.187983 -0.552724
-0.54336 -0.124579 0.830205
-0.190544 -0.0434797 0.980715
0.192056 0.0424643 0.980465
0.545066 0.121388 0.829559
0.813726 0.181913 0.552049
0.95891 0.209159 0.191686
0.965059 0.174015 -0.195908
0.836232 -0.140105 -0.530176
-0.304738 0.929623 0.207208
-0.181814 0.982078 0.0496641
-0.182146 0.981914 -0.0516421
-0.305636 0.928949 -0.208902
0.836614 -0.133654 0.531238
0.964946 0.174637 0.195909
0.958971 0.208877 -0.19169
0.81387 0.181371 -0.552014
-0.545074 -0.119797 0.829785
-0.191232 -0.0418585 0.980652
0.192387 0.0414975 0.980441
0.545959 0.119316 0.829272
0.8147 0.179219 0.551493
0.959864 0.205055 0.191345
0.967225 0.161833 -0.195668
0.827307 -0.207249 -0.522121
-0.295955 0.927223 0.229495
-0.158409 0.985886 0.0541748
-0.158753 0.985727 -0.056035
-0.296392 0.926887 -0.230287
0.827864 -0.202862 0.522962
0.967163 0.162215 0.195657
0.95995 0.204633 -0.191366
0.814867 0.178478 -0.551486
-0.546055 -0.117271 0.829501
-0.191664 -0.0410487 0.980602
0.192077 0.0413276 0.980509
0.545249 0.120175 0.829616
0.813501 0.182594 0.552155
0.958268 0.211602 0.192216
0.966666 0.165304 -0.19553
0.781403 -0.390713 -0.486573
-0.229096 0.956442 0.180926
-0.118366 0.991865 0.046837
-0.11821 0.991926 -0.0459269
-0.225384 0.958401 -0.175126
0.782235 -0.387946 0.487449
0.966728 0.164901 0.195561
0.958458 0.210736 -0.192222
0.81373 0.181348 -0.552228
-0.545511 -0.117376 0.829844
-0.191576 -0.0411182 0.980616
0.190923 0.0382381 0.98086
0.542932 0.111077 0.832398
0.812632 0.167598 0.558157
0.961073 0.191634 0.199038
0.970133 0.145257 -0.194273
0.829389 -0.0440849 -0.55693
-0.555688 0.0109268 0.831319
-0.195305 0.00126845 0.980742
0.195421 -0.00177862 0.980718
0.555664 -0.0133772 0.8313
0.829332 -0.0437432 0.557042
0.970094 0.145354 0.194396
0.961238 0.190952 -0.198894
0.812906 0.166373 -0.558125
-0.543437 -0.108393 0.832422
-0.190621 -0.038234 0.980919
0.191023 0.0354125 0.980947
0.543217 0.103248 0.83322
0.813643 0.155819 0.560095
0.96351 0.176543 0.201197
0.972266 0.129163 -0.194975
0.826813 0.00371394 -0.562464
-0.550228 0.00492262 0.835
-0.192769 0.000811919 0.981244
0.193074 -0.00137942 0.981183
0.550057 -0.00939035 0.835075
0.826717 0.004001 0.562604
0.972201 0.129484 0.195089
0.963624 0.176129 -0.201018
0.813878 0.155031 -0.559972
-0.543773 -0.100951 0.833138
-0.190689 -0.0355498 0.981007
0.186667 0.0428478 0.981488
0.529266 0.130906 0.838297
0.789088 0.215464 0.575253
0.934775 0.270927 0.22977
0.975124 0.0738459 -0.208999
0.802357 -0.108847 -0.586835
-0.537128 0.0491344 0.842068
-0.188423 0.0144701 0.981981
0.188528 -0.0142465 0.981964
0.535343 -0.0598692 0.84251
0.802387 -0.108309 0.586894
0.975019 0.0774658 0.208175
0.935161 0.26984 -0.229479
0.789709 0.21378 -0.575029
-0.532278 -0.123205 0.837556
-0.18644 -0.0433432 0.98151
0.00851068 0.008024 0.999932
0.00257188 0.000343963 0.999997
</DataArray>
<DataArray type="Float64" Name="cell vector length" format="ascii">
0.159652 0.145315 0.134848 0.107737 0.0707799 0.141877 0.197385 0.187786 0.183918 0.190942 0.143467 0.0707223 0.106934 0.132668 0.164155 0.168184 0.404194 0.378731 0.34715 0.310241 0.280324 0.322811 0.405332 0.439061 0.433621 0.390513 0.320654 0.28036 0.311227 0.350159 0.399493 0.41167 0.506637 0.481215 0.444229 0.396316 0.345557 0.399706 0.505691 0.549641 0.545766 0.494547 0.397998 0.345955 0.397548 0.446474 0.49745 0.512016 0.535037 0.507756 0.464984 0.40502 0.322611 0.165925 0.144171 0.242636 0.243172 0.146185 0.166558 0.323209 0.406221 0.466777 0.522466 0.539737 0.552031 0.522117 0.471963 0.397384 0.287042 0.125825 0.13245 0.232642 0.232209 0.131258 0.126378 0.287933 0.398635 0.473474 0.535974 0.556322 0.563981 0.531228 0.473736 0.385855 0.257535 0.092708 0.118827 0.217573 0.217171 0.117686 0.0935719 0.258754 0.387205 0.475086 0.544604 0.568041 0.572711 0.537533 0.47409 0.376173 0.236845 0.0694324 0.109562 0.20514 0.204803 0.108524 0.0704275 0.238249 0.377587 0.475347 0.550651 0.576647 0.578986 0.541903 0.473975 0.368901 0.222597 0.0530364 0.104024 0.195562 0.19527 0.103059 0.0541096 0.22411 0.37036 0.475189 0.55491 0.582865 0.583429 0.544889 0.473673 0.363594 0.212718 0.0413476 0.101008 0.188522 0.188261 0.100093 0.0424742 0.214301 0.365095 0.474882 0.557884 0.587293 0.586527 0.546889 0.473299 0.359744 0.20581 0.0333936 0.0992086 0.183577 0.183338 0.0983291 0.0345597 0.207432 0.361286 0.474526 0.559937 0.590405 0.588637 0.548181 0.472919 0.356983 0.20099 0.0273931 0.0985023 0.180095 0.179872 0.097643 0.0285911 0.202634 0.358563 0.474179 0.561322 0.592546 0.590049 0.548985 0.472545 0.354975 0.197571 0.023027 0.0982335 0.177711 0.177499 0.0973883 0.0242477 0.199228 0.35659 0.473842 0.562241 0.593998 0.590971 0.549454 0.472186 0.353501 0.195137 0.0198525 0.0982005 0.176189 0.175985 0.0973669 0.0210913 0.196802 0.355147 0.473521 0.562835 0.594965 0.591536 0.549686 0.471851 0.352423 0.193418 0.0175636 0.0982836 0.175296 0.1751 0.0974597 0.0188113 0.195087 0.354097 0.473223 0.563195 0.595577 0.591837 0.549748 0.471543 0.351644 0.192226 0.0159291 0.0984342 0.174874 0.174682 0.0976141 0.0171839 0.193898 0.353342 0.472948 0.563385 0.595926 0.591932 0.54968 0.471264 0.351106 0.191444 0.0147858 0.0986351 0.174823 0.174633 0.0978108 0.0160513 0.193123 0.352828 0.4727 0.563441 0.596068 0.591845 0.549502 0.471015 0.350786 0.191018 0.0140052 0.0989269 0.175111 0.174906 0.0980628 0.0152932 0.192705 0.352532 0.472478 0.563381 0.596026 0.591575 0.549213 0.4708 0.350689 0.190944 0.0135117 0.0993564 0.175738 0.175523 0.0984618 0.0148242 0.192648 0.352454 0.472282 0.563201 0.595798 0.59109 0.54879 0.470617 0.350849 0.191295 0.0135179 0.0998204 0.176711 0.176504 0.0989305 0.0148235 0.193014 0.352631 0.472114 0.562882 0.595354 0.590327 0.54819 0.470469 0.351337 0.19222 0.0142965 0.100324 0.178133 0.177943 0.0994584 0.015551 0.193945 0.353131 0.471976 0.562382 0.594631 0.589182 0.547341 0.470354 0.352263 0.19394 0.0161843 0.100914 0.180169 0.179988 0.100065 0.0173607 0.195669 0.354062 0.471866 0.561631 0.593527 0.587508 0.546137 0.470273 0.353793 0.196768 0.0195483 0.101692 0.18305 0.182879 0.100858 0.0206283 0.198494 0.355589 0.471784 0.560529 0.591898 0.585092 0.544425 0.470223 0.356162 0.201143 0.0248041 0.10289 0.187106 0.186938 0.102059 0.025793 0.202857 0.357941 0.47173 0.558932 0.589534 0.581638 0.541988 0.470195 0.359708 0.207716 0.0325599 0.104943 0.192761 0.192586 0.104097 0.0334586 0.209396 0.361447 0.471693 0.556638 0.586151 0.576743 0.538518 0.47015 0.364888 0.217463 0.0437856 0.108608 0.200535 0.200342 0.107722 0.0445732 0.21907 0.366555 0.471641 0.553361 0.581354 0.569836 0.533555 0.469943 0.372212 0.231816 0.05998 0.11508 0.211062 0.210835 0.114119 0.0606111 0.233289 0.373766 0.471433 0.548671 0.574591 0.559963 0.526189 0.468877 0.38166 0.252416 0.0831166 0.126161 0.225322 0.225062 0.125103 0.0835008 0.253664 0.383056 0.470381 0.541708 0.564932 0.544228 0.513126 0.463057 0.389153 0.277746 0.11367 0.145909 0.246433 0.246211 0.144873 0.11365 0.27863 0.390336 0.464604 0.52931 0.549532 0.505952 0.475663 0.430135 0.367499 0.28188 0.127316 0.194789 0.294411 0.295576 0.198509 0.127427 0.282536 0.368542 0.431799 0.493377 0.511893 0.482032 0.451946 0.408349 0.353115 0.296153 0.358451 0.480872 0.527962 0.522259 0.46479 0.356374 0.296778 0.354211 0.41012 0.470642 0.488291 0.445474 0.414902 0.371647 0.321264 0.284505 0.327356 0.429526 0.471987 0.464697 0.40844 0.325431 0.284972 0.322305 0.373443 0.434355 0.451993 0.202251 0.171509 0.126549 0.0758049 0.0537622 0.126095 0.245349 0.301755 0.296089 0.228183 0.126817 0.0549404 0.07661 0.126173 0.190983 0.208306 0.0524013 0.0152124 
</DataArray>
<DataArray type="Float64" Name="cell variable 4" format="ascii">
858.584 850.359 848.691 844.159 834.917 867.193 878.271 861.191 857.861 869.906 867.964 834.792 843.561 846.241 864.452 863.609 1101.28 1081.69 1070.4 1063.32 1059.62 1081.98 1116.76 1112.01 1105.73 1097.38 1081.95 1059.61 1063.16 1070.56 1110.28 1110.88 1300.84 1278.13 1263.65 1253.66 1247.58 1275.7 1316.42 1317.13 1310.8 1296.43 1275.9 1247.82 1253.78 1263.83 1311.94 1311.69 1342.77 1317.98 1300.91 1288.93 1280.02 1318.45 1515.16 1734.13 1732.38 1511.27 1317.85 1279.92 1288.85 1301 1352.7 1353.89 1351.63 1326.77 1310.31 1300.76 1295.62 1319.55 1498.87 1700.35 1699.14 1496.47 1318.7 1295.42 1300.65 1310.38 1361.65 1362.77 1354.7 1328.86 1310.88 1300.21 1294.63 1310.94 1485.88 1670.37 1669.45 1483.96 1310.36 1294.55 1300.19 1310.97 1363.76 1365.83 1356.73 1329.78 1310.14 1298.21 1292.28 1304.49 1477.97 1647.15 1646.43 1476.35 1303.97 1292.21 1298.22 1310.23 1364.75 1367.89 1358.25 1330.38 1309.39 1296.46 1290.3 1299.8 1473.72 1629.91 1629.34 1472.33 1299.33 1290.24 1296.47 1309.47 1365.49 1369.47 1359.45 1330.82 1308.74 1295.05 1288.74 1296.23 1471.73 1617.61 1617.15 1470.51 1295.82 1288.68 1295.05 1308.81 1366.11 1370.75 1360.38 1331.12 1308.21 1293.96 1287.55 1293.43 1470.49 1609.17 1608.78 1469.41 1293.08 1287.48 1293.95 1308.26 1366.65 1371.78 1361.02 1331.26 1307.79 1293.14 1286.63 1291.23 1470.28 1603.31 1602.98 1469.3 1290.94 1286.56 1293.12 1307.83 1367.04 1372.53 1361.46 1331.29 1307.45 1292.53 1285.94 1289.5 1470.35 1599.35 1599.07 1469.46 1289.26 1285.87 1292.51 1307.48 1367.33 1373.08 1361.77 1331.25 1307.14 1292.04 1285.38 1288.08 1470.57 1596.85 1596.6 1469.76 1287.9 1285.31 1292.01 1307.16 1367.56 1373.51 1361.96 1331.15 1306.84 1291.64 1284.92 1286.94 1470.84 1595.41 1595.19 1470.1 1286.8 1284.84 1291.6 1306.86 1367.72 1373.82 1362.03 1330.99 1306.56 1291.31 1284.54 1286.03 1471.13 1594.74 1594.55 1470.46 1285.92 1284.47 1291.26 1306.58 1367.81 1374.01 1361.99 1330.77 1306.3 1291.04 1284.24 1285.28 1471.46 1594.69 1594.51 1470.82 1285.19 1284.16 1291 1306.31 1367.84 1374.08 1361.84 1330.49 1306.05 1290.84 1284.01 1284.66 1471.88 1595.19 1594.99 1471.22 1284.58 1283.94 1290.8 1306.06 1367.8 1374.03 1361.59 1330.16 1305.81 1290.71 1283.85 1284.14 1472.47 1596.25 1596.07 1471.84 1284.09 1283.78 1290.66 1305.82 1367.68 1373.87 1361.23 1329.78 1305.59 1290.64 1283.76 1283.79 1473.06 1597.88 1597.73 1472.49 1283.74 1283.69 1290.59 1305.59 1367.5 1373.61 1360.77 1329.34 1305.38 1290.64 1283.75 1283.72 1473.64 1600.25 1600.14 1473.13 1283.63 1283.67 1290.6 1305.39 1367.25 1373.24 1360.19 1328.85 1305.19 1290.72 1283.82 1284.06 1474.2 1603.64 1603.57 1473.77 1283.9 1283.75 1290.68 1305.21 1366.93 1372.74 1359.47 1328.3 1305.05 1290.93 1284.02 1284.87 1474.81 1608.47 1608.43 1474.45 1284.62 1283.95 1290.89 1305.07 1366.53 1372.09 1358.58 1327.68 1304.99 1291.31 1284.38 1286.15 1475.64 1615.34 1615.33 1475.33 1285.82 1284.32 1291.28 1305 1366.05 1371.26 1357.48 1326.97 1305.03 1291.96 1285 1287.94 1477.09 1625.07 1625.06 1476.79 1287.53 1284.94 1291.92 1305.05 1365.48 1370.22 1356.09 1326.16 1305.24 1292.96 1285.95 1290.4 1479.83 1638.71 1638.67 1479.47 1289.89 1285.89 1292.92 1305.27 1364.79 1368.89 1354.23 1325.11 1305.51 1294.25 1287.2 1293.84 1484.98 1657.52 1657.4 1484.49 1293.22 1287.15 1294.23 1305.55 1363.84 1367.08 1350.87 1322.75 1304.69 1294.59 1287.59 1298.24 1494.06 1682.86 1682.57 1493.31 1297.46 1287.53 1294.57 1304.74 1361.5 1363.75 1339.08 1311.54 1294.25 1284.61 1277.61 1299.56 1508.16 1715.99 1715.45 1506.99 1298.45 1277.4 1284.53 1294.28 1350 1351.88 1272.52 1244.58 1224.68 1210.5 1198.6 1248.22 1528.87 1762.98 1761.94 1526.67 1247.52 1198.52 1210.43 1224.63 1280.84 1284.63 1218.43 1191.89 1172.99 1159.57 1150.18 1176.53 1231.03 1237.83 1229.28 1205.58 1176.71 1150.48 1159.75 1173.06 1226.67 1230.06 1101 1075.17 1054.66 1038.4 1026.93 1039.29 1090.41 1092.98 1082.53 1059.74 1039.09 1027.12 1038.59 1055.03 1106.37 1111.6 770.555 761.615 760.444 764.884 772.718 799.913 851.228 866.566 860.343 831.928 801.321 773.041 764.778 758.953 780.416 776.284 616.923 745.326 
</DataArray>
<DataArray type="Float64" Name="cell variable 5" format="ascii">
0.00307515 0.00307515 0.00307515 0.00307515 0.00307515 0.00307515 0.00307515 0.00307515 0.00307515 0.00307515 0.00307515 0.00307515 0.00307515 0.00307515 0.00307515 0.00307515 0.00307515 0.00307515 0.00307515 0.00307515 0.00307515 0.00307515 0.00307515 0.00307515 0.00307515 0.00307515 0.00307515 0.00307515 0.00307515 0.00307515 0.00307515 0.00307515 0.00307515 0.00307515 0.00307515 0.00307515 0.00307515 0.00307515 0.00307515 0.00307515 0.00307515 0.00307515 0.00307515 0.00307515 0.00307515 0.00307515 0.00307515 0.00307515 0.00464757 0.00430247 0.00374553 0.00321455 0.00307515 0.00307515 0.00307515 0.00307515 0.00307515 0.00307515 0.00307515 0.00307515 0.00321455 0.00374553 0.00430247 0.00464757 0.0052585 0.00477946 0.00400589 0.00326854 0.00307515 0.00307515 0.00307515 0.00307515 0.00307515 0.00307515 0.00307515 0.00307515 0.00326854 0.00400589 0.00477946 0.0052585 0.00561249 0.00505623 0.00415692 0.00329997 0.00307515 0.00307515 0.00307515 0.00307515 0.00307515 0.00307515 0.00307515 0.00307515 0.00329997 0.00415692 0.00505623 0.00561249 0.00587011 0.00525645 0.00426694 0.00332321 0.00307515 0.00307515 0.00307515 0.00307515 0.00307515 0.00307515 0.00307515 0.00307515 0.00332321 0.00426694 0.00525645 0.00587011 0.00607102 0.00541363 0.00435236 0.00334098 0.00307515 0.00307515 0.00307515 0.00307515 0.00307515 0.00307515 0.00307515 0.00307515 0.00334098 0.00435236 0.00541363 0.00607102 0.00623298 0.00554005 0.00442138 0.00335533 0.00307515 0.00307515 0.00307515 0.00307515 0.00307515 0.00307515 0.00307515 0.00307515 0.00335533 0.00442138 0.00554005 0.00623298 0.00636555 0.00564324 0.0044781 0.00336694 0.00307515 0.00307515 0.00307515 0.00307515 0.00307515 0.00307515 0.00307515 0.00307515 0.00336694 0.0044781 0.00564324 0.00636555 0.00647284 0.00572729 0.00452388 0.00337651 0.00307515 0.00307515 0.00307515 0.00307515 0.00307515 0.00307515 0.00307515 0.00307515 0.00337651 0.00452388 0.00572729 0.00647284 0.00655895 0.00579494 0.00456078 0.00338403 0.00307515 0.00307515 0.00307515 0.00307515 0.00307515 0.00307515 0.00307515 0.00307515 0.00338403 0.00456078 0.00579494 0.00655895 0.00662592 0.00584688 0.0045888 0.00339018 0.00307515 0.00307515 0.00307515 0.00307515 0.00307515 0.00307515 0.00307515 0.00307515 0.00339018 0.0045888 0.00584688 0.00662592 0.00667512 0.00588515 0.00460999 0.00339428 0.00307515 0.00307515 0.00307515 0.00307515 0.00307515 0.00307515 0.00307515 0.00307515 0.00339428 0.00460999 0.00588515 0.00667512 0.00670792 0.00591043 0.00462365 0.0033977 0.00307515 0.00307515 0.00307515 0.00307515 0.00307515 0.00307515 0.00307515 0.00307515 0.0033977 0.00462365 0.00591043 0.00670792 0.00672364 0.00592342 0.00463049 0.00339906 0.00307515 0.00307515 0.00307515 0.00307515 0.00307515 0.00307515 0.00307515 0.00307515 0.00339906 0.00463049 0.00592342 0.00672364 0.00672364 0.00592342 0.00463049 0.00339906 0.00307515 0.00307515 0.00307515 0.00307515 0.00307515 0.00307515 0.00307515 0.00307515 0.00339906 0.00463049 0.00592342 0.00672364 0.00670792 0.00591043 0.00462365 0.0033977 0.00307515 0.00307515 0.00307515 0.00307515 0.00307515 0.00307515 0.00307515 0.00307515 0.0033977 0.00462365 0.00591043 0.00670792 0.00667512 0.00588515 0.00460999 0.00339428 0.00307515 0.00307515 0.00307515 0.00307515 0.00307515 0.00307515 0.00307515 0.00307515 0.00339428 0.00460999 0.00588515 0.00667512 0.00662592 0.00584688 0.0045888 0.00339018 0.00307515 0.00307515 0.00307515 0.00307515 0.00307515 0.00307515 0.00307515 0.00307515 0.00339018 0.0045888 0.00584688 0.00662592 0.00655895 0.00579494 0.00456078 0.00338403 0.00307515 0.00307515 0.00307515 0.00307515 0.00307515 0.00307515 0.00307515 0.00307515 0.00338403 0.00456078 0.00579494 0.00655895 0.00647284 0.00572729 0.00452388 0.00337651 0.00307515 0.00307515 0.00307515 0.00307515 0.00307515 0.00307515 0.00307515 0.00307515 0.00337651 0.00452388 0.00572729 0.00647284 0.00636555 0.00564324 0.0044781 0.00336694 0.00307515 0.00307515 0.00307515 0.00307515 0.00307515 0.00307515 0.00307515 0.00307515 0.00336694 0.0044781 0.00564324 0.00636555 0.00623298 0.00554005 0.00442138 0.00335533 0.00307515 0.00307515 0.00307515 0.00307515 0.00307515 0.00307515 0.00307515 0.00307515 0.00335533 0.00442138 0.00554005 0.00623298 0.00607102 0.00541363 0.00435236 0.00334098 0.00307515 0.00307515 0.00307515 0.00307515 0.00307515 0.00307515 0.00307515 0.00307515 0.00334098 0.00435236 0.00541363 0.00607102 0.00587011 0.00525645 0.00426694 0.00332321 0.00307515 0.00307515 0.00307515 0.00307515 0.00307515 0.00307515 0.00307515 0.00307515 0.00332321 0.00426694 0.00525645 0.00587011 0.00561249 0.00505623 0.00415692 0.00329997 0.00307515 0.00307515 0.00307515 0.00307515 0.00307515 0.00307515 0.00307515 0.00307515 0.00329997 0.00415692 0.00505623 0.00561249 0.0052585 0.00477946 0.00400589 0.00326854 0.00307515 0.00307515 0.00307515 0.00307515 0.00307515 0.00307515 0.00307515 0.00307515 0.00326854 0.00400589 0.00477946 0.0052585 0.00464757 0.00430247 0.00374553 0.00321455 0.00307515 0.00307515 0.00307515 0.00307515 0.00307515 0.00307515 0.00307515 0.00307515 0.00321455 0.00374553 0.00430247 0.00464757 0.00307515 0.00307515 0.00307515 0.00307515 0.00307515 0.00307515 0.00307515 0.00307515 0.00307515 0.00307515 0.00307515 0.00307515 0.00307515 0.00307515 0.00307515 0.00307515 0.00307515 0.00307515 0.00307515 0.00307515 0.00307515 0.00307515 0.00307515 0.00307515 0.00307515 0.00307515 0.00307515 0.00307515 0.00307515 0.00307515 0.00307515 0.00307515 0.00307515 0.00307515 0.00307515 0.00307515 0.00307515 0.00307515 0.00307515 0.00307515 0.00307515 0.00307515 0.00307515 0.00307515 0.00307515 0.00307515 0.00307515 0.00307515 0.00307515 0.00307515 
</DataArray>
<DataArray type="Float64" Name="cell variable 6" format="ascii">
1 1 1 1 1 1 1 1 1 1 1 1 1 1 1 1 1 1 1 1 1 1 1 1 1 1 1 1 1 1 1 1 1 1 1 1 1 1 1 1 1 1 1 1 1 1 1 1 1 1 1 1 1 1 1 1 1 1 1 1 1 1 1 1 1 1 1 1 1 1 1 1 1 1 1 1 1 1 1 1 1 1 1 1 1 1 1 1 1 1 1 1 1 1 1 1 1 1 1 1 1 1 1 1 1 1 1 1 1 1 1 1 1 1 1 1 1 1 1 1 1 1 1 1 1 1 1 1 1 1 1 1 1 1 1 1 1 1 1 1 1 1 1 1 1 1 1 1 1 1 1 1 1 1 1 1 1 1 1 1 1 1 1 1 1 1 1 1 1 1 1 1 1 1 1 1 1 1 1 1 1 1 1 1 1 1 1 1 1 1 1 1 1 1 1 1 1 1 1 1 1 1 1 1 1 1 1 1 1 1 1 1 1 1 1 1 1 1 1 1 1 1 1 1 1 1 1 1 1 1 1 1 1 1 1 1 1 1 1 1 1 1 1 1 1 1 1 1 1 1 1 1 1 1 1 1 1 1 1 1 1 1 1 1 1 1 1 1 1 1 1 1 1 1 1 1 1 1 1 1 1 1 1 1 1 1 1 1 1 1 1 1 1 1 1 1 1 1 1 1 1 1 1 1 1 1 1 1 1 1 1 1 1 1 1 1 1 1 1 1 1 1 1 1 1 1 1 1 1 1 1 1 1 1 1 1 1 1 1 1 1 1 1 1 1 1 1 1 1 1 1 1 1 1 1 1 1 1 1 1 1 1 1 1 1 1 1 1 1 1 1 1 1 1 1 1 1 1 1 1 1 1 1 1 1 1 1 1 1 1 1 1 1 1 1 1 1 1 1 1 1 1 1 1 1 1 1 1 1 1 1 1 1 1 1 1 1 1 1 1 1 1 1 1 1 1 1 1 1 1 1 1 1 1 1 1 1 1 1 1 1 1 1 1 1 1 1 1 1 1 1 1 1 1 1 1 1 1 1 1 1 1 1 1 1 1 1 1 1 1 1 1 1 1 1 1 1 1 1 1 1 1 1 1 1 1 1 1 1 1 1 1 1 1 1 1 1 1 1 1 1 1 1 1 1 1 1 1 1 1 1 1 1 1 
</DataArray>
<DataArray type="Float64" Name="cell variable 7" format="ascii">
0 0 0 0 0 0 0 0 0 0 0 0 0 0 0 0 0 0 0 0 0 0 0 0 0 0 0 0 0 0 0 0 0 0 0 0 0 0 0 0 0 0 0 0 0 0 0 0 0 0 0 0 0 0 0 0 0 0 0 0 0 0 0 0 0 0 0 0 0 0 0 0 0 0 0 0 0 0 0 0 0 0 0 0 0 0 0 0 0 0 0 0 0 0 0 0 0 0 0 0 0 0 0 0 0 0 0 0 0 0 0 0 0 0 0 0 0 0 0 0 0 0 0 0 0 0 0 0 0 0 0 0 0 0 0 0 0 0 0 0 0 0 0 0 0 0 0 0 0 0 0 0 0 0 0 0 0 0 0 0 0 0 0 0 0 0 0 0 0 0 0 0 0 0 0 0 0 0 0 0 0 0 0 0 0 0 0 0 0 0 0 0 0 0 0 0 0 0 0 0 0 0 0 0 0 0 0 0 0 0 0 0 0 0 0 0 0 0 0 0 0 0 0 0 0 0 0 0 0 0 0 0 0 0 0 0 0 0 0 0 0 0 0 0 0 0 0 0 0 0 0 0 0 0 0 0 0 0 0 0 0 0 0 0 0 0 0 0 0 0 0 0 0 0 0 0 0 0 0 0 0 0 0 0 0 0 0 0 0 0 0 0 0 0 0 0 0 0 0 0 0 0 0 0 0 0 0 0 0 0 0 0 0 0 0 0 0 0 0 0 0 0 0 0 0 0 0 0 0 0 0 0 0 0 0 0 0 0 0 0 0 0 0 0 0 0 0 0 0 0 0 0 0 0 0 0 0 0 0 0 0 0 0 0 0 0 0 0 0 0 0 0 0 0 0 0 0 0 0 0 0 0 0 0 0 0 0 0 0 0 0 0 0 0 0 0 0 0 0 0 0 0 0 0 0 0 0 0 0 0 0 0 0 0 0 0 0 0 0 0 0 0 0 0 0 0 0 0 0 0 0 0 0 0 0 0 0 0 0 0 0 0 0 0 0 0 0 0 0 0 0 0 0 0 0 0 0 0 0 0 0 0 0 0 0 0 0 0 0 0 0 0 0 0 0 0 0 0 0 0 0 0 0 0 0 0 0 0 0 0 0 0 0 0 0 0 0 0 0 0 0 0 0 0 0 0 0 0 0 0 0 0 1 1 
</DataArray>
<DataArray type="Float64" Name="cell variable 8" format="ascii">
11.25 33.75 56.25 78.75 101.25 123.75 146.25 168.75 191.25 213.75 236.25 258.75 281.25 303.75 326.25 348.75 11.25 33.75 56.25 78.75 101.25 123.75 146.25 168.75 191.25 213.75 236.25 258.75 281.25 303.75 326.25 348.75 11.25 33.75 56.25 78.75 101.25 123.75 146.25 168.75 191.25 213.75 236.25 258.75 281.25 303.75 326.25 348.75 11.25 33.75 56.25 78.75 101.25 123.75 146.25 168.75 191.25 213.75 236.25 258.75 281.25 303.75 326.25 348.75 11.25 33.75 56.25 78.75 101.25 123.75 146.25 168.75 191.25 213.75 236.25 258.75 281.25 303.75 326.25 348.75 11.25 33.75 56.25 78.75 101.25 123.75 146.25 168.75 191.25 213.75 236.25 258.75 281.25 303.75 326.25 348.75 11.25 33.75 56.25 78.75 101.25 123.75 146.25 168.75 191.25 213.75 236.25 258.75 281.25 303.75 326.25 348.75 11.25 33.75 56.25 78.75 101.25 123.75 146.25 168.75 191.25 213.75 236.25 258.75 281.25 303.75 326.25 348.75 11.25 33.75 56.25 78.75 101.25 123.75 146.25 168.75 191.25 213.75 236.25 258.75 281.25 303.75 326.25 348.75 11.25 33.75 56.25 78.75 101.25 123.75 146.25 168.75 191.25 213.75 236.25 258.75 281.25 303.75 326.25 348.75 11.25 33.75 56.25 78.75 101.25 123.75 146.25 168.75 191.25 213.75 236.25 258.75 281.25 303.75 326.25 348.75 11.25 33.75 56.25 78.75 101.25 123.75 146.25 168.75 191.25 213.75 236.25 258.75 281.25 303.75 326.25 348.75 11.25 33.75 56.25 78.75 101.25 123.75 146.25 168.75 191.25 213.75 236.25 258.75 281.25 303.75 326.25 348.75 11.25 33.75 56.25 78.75 101.25 123.75 146.25 168.75 191.25 213.75 236.25 258.75 281.25 303.75 326.25 348.75 11.25 33.75 56.25 78.75 101.25 123.75 146.25 168.75 191.25 213.75 236.25 258.75 281.25 303.75 326.25 348.75 11.25 33.75 56.25 78.75 101.25 123.75 146.25 168.75 191.25 213.75 236.25 258.75 281.25 303.75 326.25 348.75 11.25 33.75 56.25 78.75 101.25 123.75 146.25 168.75 191.25 213.75 236.25 258.75 281.25 303.75 326.25 348.75 11.25 33.75 56.25 78.75 101.25 123.75 146.25 168.75 191.25 213.75 236.25 258.75 281.25 303.75 326.25 348.75 11.25 33.75 56.25 78.75 101.25 123.75 146.25 168.75 191.25 213.75 236.25 258.75 281.25 303.75 326.25 348.75 11.25 33.75 56.25 78.75 101.25 123.75 146.25 168.75 191.25 213.75 236.25 258.75 281.25 303.75 326.25 348.75 11.25 33.75 56.25 78.75 101.25 123.75 146.25 168.75 191.25 213.75 236.25 258.75 281.25 303.75 326.25 348.75 11.25 33.75 56.25 78.75 101.25 123.75 146.25 168.75 191.25 213.75 236.25 258.75 281.25 303.75 326.25 348.75 11.25 33.75 56.25 78.75 101.25 123.75 146.25 168.75 191.25 213.75 236.25 258.75 281.25 303.75 326.25 348.75 11.25 33.75 56.25 78.75 101.25 123.75 146.25 168.75 191.25 213.75 236.25 258.75 281.25 303.75 326.25 348.75 11.25 33.75 56.25 78.75 101.25 123.75 146.25 168.75 191.25 213.75 236.25 258.75 281.25 303.75 326.25 348.75 11.25 33.75 56.25 78.75 101.25 123.75 146.25 168.75 191.25 213.75 236.25 258.75 281.25 303.75 326.25 348.75 11.25 33.75 56.25 78.75 101.25 123.75 146.25 168.75 191.25 213.75 236.25 258.75 281.25 303.75 326.25 348.75 11.25 33.75 56.25 78.75 101.25 123.75 146.25 168.75 191.25 213.75 236.25 258.75 281.25 303.75 326.25 348.75 11.25 33.75 56.25 78.75 101.25 123.75 146.25 168.75 191.25 213.75 236.25 258.75 281.25 303.75 326.25 348.75 11.25 33.75 56.25 78.75 101.25 123.75 146.25 168.75 191.25 213.75 236.25 258.75 281.25 303.75 326.25 348.75 11.25 33.75 56.25 78.75 101.25 123.75 146.25 168.75 191.25 213.75 236.25 258.75 281.25 303.75 326.25 348.75 11.25 33.75 56.25 78.75 101.25 123.75 146.25 168.75 191.25 213.75 236.25 258.75 281.25 303.75 326.25 348.75 0 0 
</DataArray>
</CellData>
</Piece>
</UnstructuredGrid>
</VTKFile>
