<VTKFile type="UnstructuredGrid" version="0.1">
<UnstructuredGrid>
<Piece  NumberOfPoints="    2080" NumberOfCells="     514">
<Points>
<DataArray type="Float64" NumberOfComponents="3" format="ascii">
-74.9178 1005.43 1.01255
-70.9655 1008.69 26.782
-56.6065 983.018 28.9241
-60.9205 979.501 1.05993
-70.077 1009.41 29.5347
-58.7121 1018.59 51.3596
-43.3878 993.653 55.2428
-55.718 983.737 31.6767
-57.0661 1019.91 53.4614
-40.0207 1033.57 67.9951
-23.28 1009.74 73.0353
-41.7418 994.973 57.3447
-37.8718 1035.29 69.1276
-17.8287 1051.41 74.1844
0.599111 1028.86 79.6305
-21.1311 1011.46 74.1679
-15.5143 1053.28 74.1796
4.40509 1069.51 69.0395
24.4928 1048.28 74.0825
2.91358 1030.73 79.6257
6.5263 1071.26 67.9041
23.262 1085.27 53.3752
44.7178 1065.31 57.2842
26.614 1050.04 72.9471
24.8705 1086.64 51.2757
35.9584 1096.25 29.4969
58.2606 1077.17 31.6011
46.3262 1066.69 55.1847
36.8222 1097.01 26.744
40.7054 1100.42 0.969708
63.2839 1081.65 0.97835
59.1244 1077.93 28.8481
40.7055 1100.42 -2.01417
36.8241 1097 -27.7886
59.1285 1077.91 -29.8669
63.2839 1081.65 -2.00552
35.9612 1096.24 -30.5404
24.8843 1086.6 -52.3142
46.3532 1066.65 -56.1774
58.2657 1077.15 -32.6187
23.2781 1085.23 -54.4121
6.56154 1071.18 -68.9265
26.664 1049.96 -73.9255
44.747 1065.27 -58.2753
4.44216 1069.42 -70.0605
-15.4648 1053.18 -75.186
2.97919 1030.62 -80.5904
24.5446 1048.2 -75.0595
-17.7781 1051.3 -75.1893
-37.814 1035.18 -70.1183
-21.0537 1011.35 -75.1175
0.665905 1028.75 -80.5937
-39.961 1033.46 -68.9841
-56.9758 1019.78 -54.4272
-41.654 994.871 -58.2742
-23.2007 1009.62 -73.9833
-58.6215 1018.46 -52.3227
-69.9908 1009.32 -30.4915
-55.6622 983.662 -32.558
-43.2998 993.55 -56.1696
-70.8841 1008.61 -27.7364
-74.9143 1005.43 -1.96994
-60.917 979.497 -1.92257
-56.5556 982.949 -29.8029
-59.0517 976.635 1.13781
-54.7377 980.152 29.002
-35.0549 954.041 29.6276
-39.4766 950.471 1.16538
-41.4717 990.819 55.4567
-21.5084 964.855 56.5976
-34.1192 954.794 32.5162
-53.802 980.904 31.8907
-21.2795 1006.96 73.353
-0.898891 981.214 74.864
-19.7779 966.236 58.8032
-39.7412 992.201 57.6624
2.7095 1026.16 80.0052
23.5917 1000.68 81.6778
1.35983 983.014 76.0536
-19.0207 1008.76 74.5426
26.7217 1045.68 74.4585
48.0859 1020.49 76.0204
26.0248 1002.63 81.6742
5.14255 1028.12 80.0017
47.0472 1062.8 57.6059
68.6258 1038.05 58.802
50.3075 1022.34 74.8307
28.9434 1047.52 73.2688
60.658 1074.73 31.8173
82.2728 1050.34 32.4523
70.3022 1039.5 56.5971
48.7236 1064.25 55.4009
65.7142 1079.26 1.05447
87.3379 1054.99 1.07239
83.1695 1051.15 29.5592
61.5547 1075.54 28.9243
61.559 1075.52 -29.9398
83.1766 1051.11 -30.5306
87.3381 1054.99 -2.06045
65.7144 1079.26 -2.07837
48.7515 1064.21 -56.3887
70.3406 1039.45 -57.5236
82.2816 1050.31 -33.4209
60.664 1074.72 -32.8301
28.9947 1047.44 -74.2414
50.3639 1022.25 -75.7468
68.6668 1038 -59.726
47.0777 1062.75 -58.5912
5.20925 1028.02 -80.961
26.0934 1002.53 -82.5793
48.1439 1020.41 -76.9355
26.7747 1045.59 -75.43
-18.9423 1008.65 -75.4871
1.43542 982.907 -76.9461
23.6615 1000.57 -82.5815
2.77735 1026.06 -80.9632
-39.6536 992.099 -58.5869
-19.7036 966.142 -59.6841
-0.822659 981.107 -75.7551
-21.2004 1006.85 -74.296
-53.7483 980.831 -32.766
-34.085 954.723 -33.3409
-21.4359 964.762 -57.4749
-41.3859 990.719 -56.3777
-54.6882 980.084 -29.8734
-59.0497 976.632 -1.99314
-39.4746 950.468 -1.96558
-35.0249 953.976 -30.4483
-37.2473 947.609 1.18747
-32.8256 951.179 29.6497
-12.2275 925.678 29.7718
-16.6848 922.113 1.21119
-31.8752 951.936 32.5743
-19.2645 961.997 56.6556
1.43057 936.473 56.8597
-11.2772 926.435 32.6964
-17.5072 963.386 58.8895
1.37182 978.364 74.9503
22.2251 952.789 75.2019
3.18784 937.862 59.0936
3.66635 980.174 76.1558
25.8982 997.836 81.78
46.9493 972.18 82.0332
24.5196 954.6 76.4075
28.3695 999.805 81.7765
50.4307 1017.66 76.1227
71.6692 991.925 76.3423
49.4206 974.149 82.0297
52.6693 1019.53 74.9187
70.9875 1035.25 58.8901
92.0438 1009.86 59.0479
73.9078 993.794 75.1383
72.6618 1036.74 56.657
84.6323 1047.58 32.5122
105.532 1022.56 32.6417
93.7181 1011.36 56.8148
85.5253 1048.41 29.5823
89.6937 1052.26 1.09553
110.552 1027.36 1.13017
106.425 1023.39 29.7119
89.6944 1052.25 -2.07766
85.5329 1048.38 -30.5478
106.442 1023.35 -30.6147
110.553 1027.36 -2.04301
84.6422 1047.55 -33.4749
72.7012 1036.69 -57.5776
93.7603 1011.29 -57.6898
105.552 1022.51 -33.5418
71.0289 1035.19 -59.8082
52.726 1019.45 -75.8291
73.9606 993.706 -76.0023
92.088 1009.79 -59.9204
50.4885 1017.58 -77.0321
28.4381 999.703 -82.6759
49.4832 974.045 -82.8823
71.7232 991.836 -77.2053
25.9676 997.733 -82.6783
3.74148 980.067 -77.0428
24.5865 954.493 -77.2481
47.0126 972.075 -82.8846
1.44701 978.257 -75.8361
-17.4339 963.292 -59.7652
3.2496 937.77 -59.9254
22.2921 952.683 -76.0414
-19.1935 961.904 -57.5278
-31.8426 951.865 -33.3939
-11.2555 926.366 -33.4705
1.49 936.383 -57.688
-32.7964 951.113 -30.465
-37.246 947.605 -1.98225
-16.6835 922.11 -1.95854
-12.2092 925.613 -30.5416
-14.4113 919.286 1.21772
-9.95408 922.851 29.7783
10.4336 897.41 29.817
5.90541 893.905 1.23916
-8.9922 923.601 32.7092
3.71552 933.639 56.8726
24.2863 908.037 56.908
11.3954 898.16 32.7479
5.49251 935.016 59.1087
24.5297 949.943 75.217
45.3449 924.115 75.2213
26.0633 909.415 59.1441
26.8485 951.736 76.4211
49.2782 969.317 82.0468
70.3564 943.226 82.0125
47.6637 925.908 76.4254
51.7759 971.266 82.0405
74.0245 989.043 76.353
95.3893 962.674 76.321
72.8542 945.175 82.0062
76.2966 990.9 75.137
94.4326 1006.97 59.0466
116.414 979.929 58.9842
97.6613 964.531 75.105
96.1233 1008.45 56.81
107.937 1019.65 32.6369
130.424 992.166 32.6333
118.105 981.411 56.7476
108.839 1020.47 29.7128
112.966 1024.45 1.13111
135.638 996.817 1.16538
131.326 992.99 29.7093
112.967 1024.44 -2.03649
108.856 1020.43 -30.6082
131.344 992.956 -30.5439
135.639 996.815 -2.00223
107.957 1019.6 -33.5311
96.1656 1008.38 -57.679
118.14 981.343 -57.5747
130.444 992.128 -33.4667
94.4763 1006.9 -59.9143
76.3489 990.812 -75.9962
97.7091 964.44 -75.9212
116.45 979.86 -59.81
74.0779 988.953 -77.2111
51.8379 971.162 -82.888
72.9108 945.069 -82.8105
95.4381 962.581 -77.1362
49.3408 969.212 -82.8932
26.9147 951.63 -77.2567
47.7232 925.802 -77.2183
70.4137 943.119 -82.8157
24.5958 949.837 -76.0517
5.5533 934.925 -59.9356
26.1161 909.325 -59.9293
45.4042 924.01 -76.0133
3.77393 933.549 -57.6961
-8.97152 923.532 -33.4785
11.41 898.092 -33.4751
24.3368 907.95 -57.6898
-9.93623 922.786 -30.5433
-14.4106 919.283 -1.96017
5.90618 893.901 -1.93873
10.4453 897.346 -30.5398
8.13906 891.066 1.24226
12.6672 894.571 29.8201
32.5542 868.85 29.8457
27.9637 865.422 1.26397
13.6426 895.308 32.7517
26.5335 905.185 56.9118
46.5869 879.253 56.9383
33.5297 869.587 32.7774
28.3337 906.538 59.147
47.6153 921.238 75.2242
67.9023 895.003 75.2488
48.3871 880.605 59.1735
49.9625 922.999 76.426
72.6552 940.317 82.0131
93.2135 913.726 82.0342
70.2495 896.764 76.4506
75.1847 942.231 82.005
97.7198 959.729 76.3198
118.589 932.728 76.3325
95.7429 915.639 82.026
100.036 961.531 75.1049
118.789 976.929 58.9841
140.121 949.364 59.0173
120.905 934.53 75.1176
120.536 978.351 56.748
132.855 989.107 32.6338
154.579 961.079 32.6612
141.869 950.786 56.7813
133.791 989.897 29.7118
138.103 993.725 1.16787
159.971 965.536 1.1934
155.515 961.87 29.7392
138.104 993.723 -1.99833
133.809 989.863 -30.54
155.53 961.838 -30.5169
159.972 965.534 -1.9728
132.875 989.069 -33.4616
120.57 978.285 -57.5695
141.899 950.722 -57.5535
154.596 961.044 -33.4385
118.824 976.86 -59.8048
100.083 961.439 -75.9161
120.95 934.439 -75.8813
140.154 949.297 -59.7888
97.7682 959.636 -77.13
75.2408 942.125 -82.8044
95.7961 915.535 -82.7796
118.635 932.636 -77.0952
72.7119 940.211 -82.8115
50.0214 922.893 -77.2141
70.3041 896.66 -77.1946
93.2672 913.621 -82.7867
47.674 921.133 -76.0114
28.3859 906.448 -59.9275
48.4344 880.518 -59.9109
67.9566 894.9 -75.992
26.5834 905.098 -57.6889
13.6566 895.24 -33.4742
33.5401 869.52 -33.4566
46.6319 879.167 -57.6723
12.6787 894.508 -30.5381
8.13957 891.063 -1.93708
27.9642 865.419 -1.91536
32.5622 868.788 -30.5206
30.1381 862.549 1.26666
34.7286 865.978 29.8484
54.0402 839.909 29.8733
49.3909 836.568 1.28839
35.7167 866.697 32.7807
48.7739 876.363 56.9416
68.249 850.053 56.9741
55.0283 840.628 32.8055
50.5968 877.685 59.1773
70.112 892.083 75.2527
89.8299 865.422 75.2964
70.0719 851.375 59.2099
72.4883 893.805 76.4546
95.4523 910.766 82.0381
115.465 883.693 82.0866
92.2062 867.144 76.4983
98.0153 912.634 82.0292
120.861 929.723 76.3357
141.205 902.187 76.3733
118.028 885.561 82.0777
123.218 931.469 75.1217
142.434 946.303 59.0214
163.16 918.253 59.0629
143.561 903.933 75.1593
144.225 947.671 56.7855
156.936 957.964 32.6655
177.986 929.479 32.6944
164.951 919.621 56.8271
157.899 958.721 29.7424
162.355 962.387 1.19655
183.525 933.743 1.22046
178.949 930.236 29.7713
162.356 962.386 -1.97048
157.914 958.69 -30.5146
178.962 930.207 -30.4958
183.526 933.742 -1.94656
156.952 957.929 -33.4374
144.255 947.607 -57.5524
164.979 919.559 -57.5469
178 929.447 -33.4187
142.466 946.236 -59.7876
123.263 931.379 -75.8801
143.604 903.844 -75.8713
163.189 918.188 -59.7821
120.907 929.631 -77.0932
98.0681 912.53 -82.7777
118.078 885.458 -82.7809
141.249 902.096 -77.0844
95.5056 910.661 -82.7857
72.5425 893.701 -77.1936
92.2572 867.043 -77.1933
115.516 883.589 -82.7889
70.1658 891.98 -75.991
50.6436 877.598 -59.9099
70.1155 851.29 -59.899
89.8805 865.322 -75.9906
48.8185 876.278 -57.6708
35.7267 866.631 -33.4551
55.0361 840.563 -33.4366
68.2903 849.969 -57.6599
34.7364 865.916 -30.5185
30.1384 862.546 -1.91325
49.3912 836.564 -1.89152
54.0457 839.848 -30.5
51.5 833.656 1.29104
56.1493 836.997 29.8759
74.8602 810.559 29.9003
70.152 807.311 1.31267
57.15 837.697 32.8089
70.3707 847.122 56.9775
89.2485 820.423 57.0109
75.8608 811.26 32.8333
72.2167 848.41 59.2145
91.9747 862.457 75.301
111.106 835.375 75.3478
91.0945 821.711 59.2479
94.3818 864.135 76.5038
117.641 880.683 82.0921
137.083 853.148 82.1449
113.513 837.053 76.5506
120.239 882.501 82.0827
143.416 899.127 76.3783
163.196 871.1 76.4217
139.681 854.965 82.1355
145.81 900.818 75.1641
165.409 915.138 59.0677
185.528 886.622 59.1061
165.59 872.792 75.2075
167.237 916.455 56.8314
180.272 926.313 32.6988
200.671 897.397 32.7264
187.356 887.939 56.8698
181.258 927.039 29.7743
185.834 930.546 1.22354
206.337 901.479 1.24663
201.658 898.122 29.802
185.835 930.544 -1.94444
181.271 927.009 -30.4937
201.669 898.094 -30.4753
206.338 901.478 -1.92135
180.286 926.281 -33.4178
167.264 916.393 -57.546
187.382 887.879 -57.5388
200.684 897.366 -33.3995
165.438 915.073 -59.7817
145.852 900.729 -75.8709
165.63 872.705 -75.869
185.556 886.559 -59.7744
143.459 899.036 -77.0843
120.289 882.398 -82.7808
139.729 854.864 -82.7892
163.237 871.011 -77.0824
117.691 880.58 -82.7894
94.4326 864.033 -77.1938
113.562 836.953 -77.1969
137.131 853.047 -82.7978
92.0251 862.357 -75.9903
72.26 848.325 -59.8988
91.1353 821.627 -59.8891
111.154 835.277 -75.9935
70.4117 847.039 -57.6585
57.1575 837.632 -33.4352
75.8666 811.196 -33.4164
89.287 820.341 -57.6488
56.1547 836.936 -30.4978
51.5002 833.652 -1.88935
70.1522 807.308 -1.86771
74.8638 810.499 -30.479
72.1938 804.358 1.31527
76.902 807.606 29.9029
95.0022 780.795 29.9267
90.2341 777.646 1.33671
77.9154 808.286 32.8366
91.303 817.45 57.0142
109.574 790.362 57.046
96.0156 781.475 32.8604
93.1729 818.701 59.2524
113.185 832.365 75.3523
131.717 804.87 75.3959
111.444 791.613 59.2842
115.624 833.995 76.556
139.193 850.09 82.1504
158.044 822.112 82.1996
134.156 806.5 76.5995
141.828 851.853 82.1407
165.342 867.988 76.4269
184.53 839.5 76.4699
160.678 823.875 82.19
167.773 869.625 75.2121
187.711 883.455 59.1107
207.215 854.491 59.1453
186.961 841.137 75.2551
189.572 884.724 56.8738
202.887 894.182 32.7304
222.636 864.845 32.7563
209.076 855.76 56.9083
203.893 894.878 29.8049
208.573 898.235 1.24956
228.415 868.757 1.27204
223.643 865.541 29.8309
208.574 898.233 -1.91923
203.905 894.85 -30.4732
223.654 865.514 -30.4544
228.416 868.756 -1.89675
202.899 894.151 -33.3984
189.598 884.664 -57.5377
209.099 855.701 -57.5273
222.648 864.815 -33.3795
187.738 883.393 -59.774
167.813 869.538 -75.8686
186.999 841.052 -75.8666
207.24 854.43 -59.7637
165.383 867.9 -77.0827
141.875 851.753 -82.7894
160.723 823.777 -82.7947
184.569 839.413 -77.0807
139.241 849.989 -82.7983
115.672 833.896 -77.1974
134.201 806.403 -77.1977
158.089 822.013 -82.8036
113.232 832.267 -75.9932
93.2134 818.617 -59.8888
111.482 791.532 -59.8778
131.762 804.774 -75.9935
91.3413 817.368 -57.6473
77.9209 808.223 -33.4149
96.0195 781.413 -33.3959
109.61 790.282 -57.6364
76.9055 807.547 -30.4768
72.1939 804.355 -1.86553
90.2343 777.643 -1.84409
95.0041 780.736 -30.4578
92.2077 774.652 1.33924
96.9758 777.801 29.9292
114.461 750.619 29.9524
109.632 747.572 1.36026
98.0022 778.46 32.8635
111.561 787.347 57.0492
129.218 759.878 57.0795
115.487 751.278 32.8867
113.455 788.559 59.2884
133.727 801.816 75.4001
151.648 773.92 75.4407
131.112 761.09 59.3187
136.199 803.395 76.6046
160.087 819.007 82.2046
178.325 790.606 82.251
154.119 775.499 76.6452
162.757 820.714 82.195
186.609 836.339 76.475
205.18 807.412 76.52
180.996 792.313 82.2414
189.076 837.921 75.2594
209.33 851.275 59.1496
228.209 821.883 59.1799
207.647 808.994 75.3044
211.221 852.497 56.9118
224.782 861.582 32.7598
243.882 831.838 32.7844
230.1 823.105 56.9421
225.806 862.251 29.8337
230.578 865.468 1.27483
249.762 835.59 1.29717
244.907 832.507 29.8582
230.579 865.466 -1.89457
225.817 862.224 -30.4522
244.915 832.479 -30.4321
249.762 835.589 -1.87223
224.793 861.553 -33.3781
211.244 852.439 -57.5259
230.12 823.046 -57.512
243.891 831.808 -33.358
209.355 851.214 -59.763
189.114 837.836 -75.866
207.683 808.911 -75.8652
228.23 821.821 -59.7491
186.648 836.253 -77.0808
162.802 820.616 -82.7948
181.039 792.216 -82.7972
205.218 807.327 -77.08
160.132 818.909 -82.8038
136.244 803.299 -77.1979
154.161 775.404 -77.1957
178.368 790.509 -82.8062
133.772 801.72 -75.9929
113.493 788.478 -59.8773
131.147 761.01 -59.8656
151.689 773.826 -75.9907
111.596 787.267 -57.6348
98.0058 778.397 -33.3943
115.489 751.217 -33.3756
129.251 759.8 -57.6232
96.9776 777.742 -30.4556
92.2078 774.649 -1.84191
109.632 747.569 -1.82089
114.461 750.562 -30.4369
111.537 744.538 1.36271
116.366 747.585 29.9548
133.231 720.04 29.9769
128.342 717.098 1.38294
117.405 748.222 32.8897
131.136 756.821 57.0825
148.173 728.978 57.1107
134.271 720.677 32.9118
133.054 757.993 59.3226
153.59 770.823 75.4446
170.889 742.538 75.4817
150.091 730.15 59.3507
156.093 772.349 76.6499
180.3 787.456 82.2557
197.912 758.65 82.2979
173.392 744.064 76.687
183.006 789.105 82.2463
207.19 804.205 76.5249
225.123 774.869 76.5688
200.618 760.299 82.2886
209.692 805.731 75.3085
230.254 818.62 59.184
248.486 788.822 59.2106
227.624 776.395 75.3524
232.174 819.797 56.9452
245.955 828.53 32.7874
264.396 798.385 32.8111
250.406 790 56.9718
246.997 829.172 29.8609
251.852 832.256 1.29986
270.37 801.985 1.32232
265.438 799.027 29.8845
251.852 832.255 -1.86995
247.005 829.145 -30.4298
265.445 799 -30.4089
270.37 801.983 -1.84749
245.965 828.5 -33.3561
232.193 819.738 -57.5101
250.425 789.939 -57.4928
264.405 798.355 -33.3352
230.275 818.558 -59.7483
209.728 805.648 -75.8644
227.659 776.309 -75.8658
248.507 788.758 -59.7309
207.227 804.12 -77.0801
183.048 789.009 -82.7973
200.657 760.204 -82.7984
225.159 774.781 -77.0815
180.343 787.36 -82.8062
156.135 772.255 -77.1957
173.43 743.972 -77.1923
197.952 758.555 -82.8072
153.631 770.729 -75.99
133.089 757.913 -59.8649
150.123 730.072 -59.8532
170.926 742.447 -75.9866
131.169 756.743 -57.6216
117.406 748.16 -33.374
134.269 720.616 -33.3559
148.202 728.902 -57.6099
116.365 747.527 -30.4347
111.537 744.535 -1.81876
128.342 717.095 -1.79852
133.228 719.983 -30.4166
130.178 714.024 1.38524
135.067 716.965 29.9792
151.309 689.065 29.9994
146.358 686.232 1.40433
136.12 717.58 32.9145
150.022 725.881 57.1134
166.435 697.676 57.1375
152.361 689.68 32.9347
151.964 727.011 59.3541
172.761 739.399 75.4851
189.433 710.739 75.5153
168.377 698.805 59.3782
175.297 740.871 76.6909
199.817 755.457 82.3019
216.796 726.262 82.3351
191.968 712.211 76.7212
202.558 757.047 82.2928
227.062 771.617 76.573
244.347 741.89 76.6053
219.536 727.853 82.326
229.597 773.088 75.3559
250.459 785.515 59.2142
268.021 755.317 59.2386
246.881 743.361 75.3882
252.406 786.647 56.9746
266.396 795.033 32.8139
284.157 764.49 32.838
269.967 756.449 56.999
267.453 795.649 29.8872
272.385 798.606 1.32499
290.217 767.94 1.34816
285.213 765.106 29.9114
272.385 798.605 -1.8451
267.461 795.622 -30.4065
285.22 765.08 -30.3846
290.217 767.939 -1.82193
266.405 795.003 -33.3331
252.425 786.586 -57.4907
269.988 756.389 -57.4727
284.164 764.461 -33.3112
250.48 785.451 -59.7299
229.632 773.002 -75.8647
246.913 743.274 -75.86
268.043 755.254 -59.7119
227.098 771.529 -77.0814
202.596 756.952 -82.7982
219.569 727.759 -82.7937
244.378 741.802 -77.0767
199.856 755.362 -82.8069
175.334 740.779 -77.1919
191.999 712.121 -77.1849
216.828 726.169 -82.8024
172.798 739.308 -75.9857
151.995 726.933 -59.8523
168.403 698.729 -59.8395
189.464 710.649 -75.9787
150.051 725.805 -57.6083
136.118 717.519 -33.3543
152.356 689.62 -33.3367
166.459 697.6 -57.5955
135.064 716.909 -30.4145
130.177 714.021 -1.79647
146.358 686.229 -1.77738
151.302 689.01 -30.397
148.124 683.119 1.40645
153.075 685.952 30.0015
168.687 657.707 30.0198
163.676 654.985 1.4246
154.14 686.543 32.937
168.214 694.539 57.1398
183.996 665.983 57.1588
169.752 658.298 32.9553
170.18 695.626 59.3809
191.236 707.56 75.5179
207.273 678.539 75.5373
185.963 667.07 59.3998
193.803 708.976 76.724
218.63 723.028 82.3379
234.969 693.462 82.3552
209.84 679.955 76.7434
221.404 724.558 82.3286
246.214 738.595 76.6078
262.848 708.492 76.6158
237.743 694.992 82.3459
248.78 740.01 75.3907
269.919 751.966 59.2411
286.785 721.369 59.2652
265.413 709.907 75.3987
271.891 753.052 57.0017
286.08 761.093 32.8408
303.137 730.155 32.8628
288.757 722.455 57.0258
287.152 761.683 29.9139
292.155 764.518 1.35074
309.281 733.463 1.37182
304.208 730.746 29.936
292.156 764.517 -1.81962
287.159 761.658 -30.3823
304.224 730.729 -30.3632
309.282 733.462 -1.79854
286.089 761.065 -33.3092
271.913 752.993 -57.4707
288.796 722.405 -57.4539
303.154 730.135 -33.2901
269.941 751.903 -59.7105
248.811 739.924 -75.8586
265.436 709.815 -75.846
286.825 721.316 -59.6937
246.245 738.507 -77.0758
221.436 724.465 -82.7928
237.764 694.9 -82.7832
262.87 708.399 -77.0632
218.662 722.935 -82.8015
193.833 708.886 -77.1841
209.862 679.866 -77.1732
234.99 693.37 -82.7919
191.266 707.471 -75.9775
170.206 695.55 -59.8382
185.983 666.994 -59.8237
207.296 678.451 -75.9666
168.238 694.464 -57.5938
154.135 686.484 -33.3351
169.744 658.24 -33.3177
184.015 665.908 -57.5792
153.069 685.896 -30.395
148.124 683.116 -1.7754
163.676 654.982 -1.75725
168.678 657.653 -30.3776
165.372 651.834 1.42661
170.383 654.557 30.0218
185.359 625.978 30.0395
180.289 623.368 1.44449
171.461 655.124 32.9573
185.705 662.808 57.1608
200.847 633.912 57.1784
186.437 626.545 32.975
187.695 663.852 59.4019
209.006 675.321 75.5394
224.395 645.95 75.5566
202.836 634.955 59.4195
211.602 676.681 76.7453
236.731 690.187 82.3572
252.413 660.258 82.372
226.992 647.31 76.7625
239.538 691.656 82.3471
264.643 705.156 76.617
280.622 674.658 76.6228
255.221 661.727 82.362
267.237 706.513 75.4005
288.61 717.975 59.2669
304.805 686.985 59.2894
283.216 676.014 75.4062
290.604 719.015 57.0286
304.983 726.715 32.8656
321.344 695.405 32.8858
306.799 688.025 57.0511
306.068 727.281 29.9384
311.142 729.999 1.37417
327.561 698.572 1.39289
322.429 695.971 29.9586
311.142 729.998 -1.79648
306.084 727.264 -30.3611
322.443 695.957 -30.3439
327.562 698.571 -1.77776
305.001 726.697 -33.2883
290.643 718.967 -57.452
306.825 688 -57.4377
321.36 695.39 -33.2711
288.648 717.923 -59.6916
267.26 706.423 -75.8439
283.222 675.955 -75.8128
304.83 686.957 -59.6772
264.665 705.064 -77.0611
239.558 691.565 -82.7811
255.236 661.643 -82.7596
280.627 674.596 -77.03
236.752 690.096 -82.7902
211.624 676.592 -77.1715
227.011 647.225 -77.1528
252.43 660.174 -82.7687
209.027 675.233 -75.9649
187.714 663.776 -59.822
202.854 634.882 -59.8042
224.414 645.866 -75.9462
185.723 662.734 -57.5774
171.453 655.066 -33.3159
186.427 626.488 -33.298
200.863 633.84 -57.5595
170.374 654.502 -30.3757
165.371 651.831 -1.75529
180.288 623.365 -1.73741
185.348 625.925 -30.3578
181.914 620.181 1.44646
186.984 622.791 30.0415
201.317 593.89 30.0591
196.191 591.394 1.464
188.074 623.334 32.977
202.484 630.701 57.1804
216.976 601.475 57.1992
202.407 594.433 32.9947
204.496 631.7 59.4216
226.055 642.695 75.5587
240.784 612.986 75.5797
218.988 602.475 59.4404
228.681 643.997 76.7646
254.103 656.945 82.3741
269.113 626.667 82.3955
243.411 614.288 76.7856
256.942 658.351 82.3637
282.343 671.281 76.6245
297.634 640.431 76.6433
271.952 628.073 82.385
284.966 672.579 75.408
306.555 683.549 59.2912
322.076 652.215 59.3091
300.256 641.728 75.4269
308.57 684.544 57.0533
323.115 691.925 32.888
338.792 660.268 32.9057
324.092 653.21 57.0712
324.212 692.466 29.9606
329.344 695.067 1.39495
345.071 663.293 1.41114
339.889 660.809 29.9783
329.344 695.066 -1.77594
324.225 692.452 -30.3421
339.89 660.792 -30.3267
345.072 663.292 -1.75974
323.129 691.91 -33.2696
308.594 684.52 -57.4362
324.099 653.178 -57.4216
338.794 660.25 -33.2543
306.579 683.523 -59.6747
284.97 672.521 -75.8103
300.268 641.674 -75.7777
322.083 652.181 -59.6601
282.348 671.221 -77.027
256.957 658.268 -82.7565
271.97 627.999 -82.7331
297.646 640.374 -76.9943
254.119 656.861 -82.7663
228.7 643.912 -77.1505
243.432 614.21 -77.1306
269.132 626.592 -82.743
226.074 642.611 -75.9442
204.514 631.626 -59.8021
219.006 602.405 -59.784
240.805 612.909 -75.9243
202.5 630.629 -57.5576
188.064 623.277 -33.296
202.397 594.379 -33.2783
216.993 601.407 -57.5394
186.973 622.738 -30.3558
181.913 620.178 -1.73545
196.19 591.392 -1.71792
201.305 593.839 -30.3381
197.744 588.172 1.4659
202.871 590.668 30.061
216.554 561.456 30.0777
211.374 559.077 1.48239
203.973 591.187 32.9967
218.541 598.229 57.2012
232.377 568.688 57.2187
217.656 561.975 33.0134
220.575 599.183 59.4425
242.371 609.694 75.5818
256.435 579.663 75.6002
234.41 569.642 59.46
245.026 610.937 76.7878
270.728 623.316 82.3976
285.06 592.708 82.4157
259.089 580.906 76.8062
273.597 624.658 82.3871
299.279 637.016 76.6454
313.879 605.832 76.662
287.93 594.05 82.4051
301.93 638.255 75.4288
323.75 648.741 59.311
338.574 617.071 59.326
316.53 607.071 75.4453
325.786 649.692 57.073
340.486 656.749 32.9075
355.462 624.754 32.9218
340.611 618.022 57.088
341.594 657.266 29.9801
346.777 659.75 1.41288
361.807 627.641 1.42655
356.57 625.271 29.9943
346.777 659.749 -1.75815
341.596 657.25 -30.3251
356.572 625.257 -30.3119
361.807 627.64 -1.74449
340.488 656.731 -33.2526
325.792 649.66 -57.42
340.617 617.99 -57.4047
355.464 624.738 -33.2394
323.756 648.707 -59.6579
301.941 638.2 -75.7755
316.542 607.019 -75.7593
338.581 617.038 -59.6427
299.291 636.96 -76.9919
273.616 624.585 -82.7307
287.948 593.983 -82.716
313.893 605.778 -76.9757
270.747 623.242 -82.741
245.047 610.86 -77.1286
259.11 580.834 -77.114
285.079 592.639 -82.7262
242.392 609.617 -75.9224
220.593 599.114 -59.7821
234.429 569.577 -59.7664
256.456 579.591 -75.9078
218.558 598.161 -57.5376
203.962 591.132 -33.2765
217.645 561.923 -33.2601
232.394 568.624 -57.5219
202.859 590.617 -30.3363
197.744 588.17 -1.71603
211.373 559.075 -1.69955
216.542 561.408 -30.3199
212.855 555.822 1.48417
218.035 558.2 30.0795
231.061 528.69 30.0948
225.83 526.429 1.4996
219.148 558.694 33.0152
233.869 565.407 57.2205
247.041 535.564 57.2356
232.174 529.184 33.0305
235.923 566.315 59.4619
257.948 576.337 75.6021
271.338 545.998 75.6171
249.096 536.472 59.477
260.629 577.52 76.8081
286.6 589.322 82.4175
300.248 558.4 82.4324
274.02 547.181 76.823
289.499 590.6 82.4069
315.448 602.381 76.6637
329.352 570.879 76.6775
303.147 559.678 82.4218
318.126 603.561 75.447
340.17 613.561 59.3276
354.288 581.568 59.3414
332.029 572.058 75.4607
342.227 614.467 57.0896
357.078 621.199 32.9233
371.34 588.88 32.9368
356.345 582.474 57.1033
358.197 621.692 29.9958
363.434 624.062 1.42807
377.748 591.628 1.44142
372.46 589.372 30.0093
363.435 624.061 -1.74301
358.2 621.678 -30.3105
372.463 589.359 -30.2971
377.748 591.627 -1.72966
357.081 621.183 -33.2379
342.233 614.435 -57.4032
356.352 582.445 -57.3896
371.344 588.865 -33.2245
340.176 613.528 -59.641
318.138 603.509 -75.7576
332.042 572.01 -75.7432
354.296 581.538 -59.6274
315.462 602.328 -76.974
289.518 590.532 -82.7143
303.165 559.615 -82.6992
329.365 570.829 -76.9596
286.619 589.254 -82.7246
260.65 577.448 -77.1123
274.041 547.114 -77.097
300.267 558.337 -82.7095
257.969 576.265 -75.9061
235.942 566.251 -59.7647
249.115 536.412 -59.7493
271.36 545.931 -75.8908
233.886 565.344 -57.5202
219.137 558.643 -33.2583
232.164 529.135 -33.2428
247.059 535.505 -57.5047
218.023 558.152 -30.3181
212.854 555.819 -1.69778
225.829 526.427 -1.68235
231.049 528.645 -30.3026
227.238 523.141 1.50127
232.469 525.402 30.0965
244.833 495.606 30.1111
239.553 493.464 1.51612
233.593 525.87 33.0321
248.46 532.251 57.2373
260.963 502.12 57.251
245.957 496.074 33.0467
250.534 533.113 59.4786
272.777 542.639 75.6186
285.487 512.008 75.6312
263.037 502.982 59.4923
275.484 543.762 76.8246
301.712 554.98 82.4339
314.667 523.762 82.4467
288.195 513.131 76.8371
304.639 556.193 82.4233
330.844 567.394 76.679
344.044 535.586 76.6929
317.593 524.975 82.4361
333.547 568.513 75.4623
355.806 578.023 59.3429
369.213 545.723 59.3568
346.747 536.706 75.4762
357.882 578.884 57.1048
372.877 585.289 32.9383
386.419 552.662 32.9499
371.289 546.583 57.1187
374.007 585.758 30.0107
379.296 588.013 1.44281
392.886 555.269 1.45464
387.549 553.13 30.0223
379.296 588.012 -1.72826
374.01 585.745 -30.2957
387.554 553.118 -30.2835
392.886 555.268 -1.71643
372.881 585.275 -33.2231
357.889 578.856 -57.3882
371.295 546.559 -57.3752
386.424 552.649 -33.2109
355.813 577.994 -59.6259
333.559 568.466 -75.7417
346.759 536.664 -75.7263
369.219 545.697 -59.6129
330.857 567.345 -76.9579
304.657 556.131 -82.6975
317.613 524.916 -82.681
344.057 535.543 -76.9426
301.731 554.917 -82.7077
275.505 543.695 -77.0952
288.217 513.068 -77.0781
314.687 523.702 -82.6912
272.798 542.572 -75.889
250.553 533.053 -59.7475
263.058 502.925 -59.7313
285.51 511.945 -75.8719
248.477 532.192 -57.503
233.582 525.822 -33.2411
245.947 496.029 -33.2259
260.982 502.065 -57.4868
232.457 525.357 -30.3009
227.237 523.139 -1.68066
239.552 493.462 -1.66581
244.822 495.564 -30.2857
240.887 490.145 1.51773
246.167 492.287 30.1127
257.865 462.219 30.127
252.538 460.197 1.53196
247.301 492.73 33.0483
262.307 498.775 57.2526
274.136 468.37 57.2674
258.999 462.662 33.0626
264.4 499.591 59.4939
286.85 508.617 75.6328
298.873 477.709 75.6495
276.229 469.185 59.5087
289.582 509.679 76.8389
316.054 520.31 82.4485
328.304 488.81 82.4692
301.604 478.771 76.8556
319.007 521.457 82.4382
345.458 532.069 76.695
357.942 499.967 76.7254
331.257 489.957 82.4589
348.186 533.127 75.4781
370.652 542.145 59.3587
383.361 509.561 59.3702
360.67 501.026 75.5084
372.747 542.96 57.1201
387.877 549.039 32.9513
400.711 516.127 32.9634
385.457 510.376 57.1315
389.017 549.482 30.0236
394.354 551.621 1.45596
407.228 518.588 1.46874
401.85 516.57 30.0357
394.354 551.621 -1.71501
389.022 549.47 -30.2821
401.844 516.552 -30.2679
407.228 518.587 -1.70223
387.882 549.025 -33.2094
372.752 542.936 -57.3737
385.441 510.349 -57.3596
400.704 516.108 -33.1953
370.657 542.12 -59.6113
348.198 533.087 -75.7247
360.688 500.997 -75.7085
383.346 509.533 -59.5971
345.471 532.026 -76.9407
319.027 521.399 -82.6791
331.283 489.903 -82.6608
357.961 499.936 -76.9245
316.074 520.251 -82.6892
289.605 509.617 -77.0761
301.63 478.714 -77.0579
328.331 488.755 -82.6709
286.873 508.555 -75.87
264.421 499.535 -59.7295
276.25 469.133 -59.7135
298.899 477.651 -75.8518
262.326 498.72 -57.4851
247.291 492.685 -33.2241
258.988 462.62 -33.2096
274.156 468.319 -57.4692
246.156 492.245 -30.284
240.886 490.143 -1.66417
252.537 460.195 -1.64993
257.853 462.179 -30.2695
253.798 456.848 1.53347
259.125 458.87 30.1285
270.153 428.544 30.1414
264.782 426.643 1.54638
260.269 459.288 33.0641
275.405 464.996 57.2689
286.556 434.331 57.2818
271.296 428.962 33.077
277.516 465.764 59.5103
300.16 474.288 75.6511
311.493 443.119 75.6653
288.667 435.099 59.5232
302.914 475.289 76.8575
329.614 485.328 82.4711
341.161 453.568 82.4888
314.247 444.12 76.8717
332.591 486.41 82.4617
359.276 496.42 76.7281
371.033 464.082 76.7559
344.138 454.65 82.4794
362.03 497.419 75.5105
384.721 505.954 59.3723
396.698 473.121 59.3818
373.786 465.082 75.5383
386.835 506.723 57.1325
402.09 512.474 32.9644
414.197 479.288 32.9766
398.812 473.891 57.142
403.239 512.891 30.0371
408.616 514.909 1.47011
420.77 481.601 1.48361
415.346 479.705 30.0493
408.616 514.908 -1.70067
403.231 512.873 -30.2664
415.339 479.685 -30.2516
420.77 481.6 -1.68717
402.082 512.454 -33.1936
386.818 506.695 -57.3579
398.803 473.839 -57.3407
414.189 479.266 -33.1788
384.705 505.924 -59.5958
362.047 497.388 -75.7072
373.814 465.022 -75.708
396.69 473.068 -59.5786
359.296 496.388 -76.9233
332.618 486.356 -82.6596
344.165 454.596 -82.6507
371.063 464.022 -76.9241
329.641 485.274 -82.6693
302.94 475.232 -77.0563
314.272 444.066 -77.0444
341.187 453.514 -82.6604
300.186 474.231 -75.8501
277.538 465.713 -59.7119
288.687 435.051 -59.6992
311.517 443.065 -75.8382
275.425 464.945 -57.4676
260.258 459.246 -33.208
271.284 428.922 -33.1952
286.575 434.284 -57.4549
259.113 458.831 -30.268
253.797 456.846 -1.64841
264.781 426.641 -1.63549
270.14 428.507 -30.2552
265.967 423.266 1.5477
271.338 425.168 30.1427
281.692 394.597 30.1534
276.279 392.815 1.5592
272.491 425.56 33.0782
287.751 430.929 57.283
298.222 400.02 57.2911
282.845 394.989 33.0889
289.878 431.65 59.5243
312.704 439.67 75.6664
323.348 408.257 75.6709
300.349 400.741 59.5324
315.48 440.61 76.8728
342.393 450.059 82.4899
353.238 418.056 82.4939
326.123 409.198 76.8773
345.393 451.075 82.481
372.288 460.507 76.7574
383.334 427.918 76.7649
356.238 419.072 82.4849
375.064 461.447 75.5398
397.975 469.487 59.3833
409.201 436.389 59.3943
386.11 428.858 75.5473
400.109 470.208 57.1432
415.493 475.605 32.9778
426.845 442.151 32.9899
411.334 437.11 57.1542
416.652 475.996 30.0507
422.076 477.892 1.48501
433.478 444.314 1.49911
428.003 442.543 30.0628
422.076 477.891 -1.68552
416.645 475.976 -30.2499
428.01 442.526 -30.2348
433.478 444.313 -1.67142
415.486 475.583 -33.1767
400.101 470.156 -57.3387
411.345 437.07 -57.3222
426.851 442.133 -33.1616
397.969 469.432 -59.5777
375.093 461.386 -75.707
386.127 428.801 -75.7088
409.213 436.346 -59.5612
372.318 460.446 -76.9237
345.42 451.02 -82.6503
356.256 419.017 -82.6415
383.352 427.862 -76.9255
342.419 450.004 -82.6592
315.504 440.557 -77.0432
326.141 409.146 -77.0313
353.256 418.001 -82.6504
312.728 439.617 -75.8368
289.898 431.603 -59.6978
300.365 400.696 -59.6856
323.366 408.206 -75.8249
287.769 430.882 -57.4535
272.479 425.521 -33.1938
282.83 394.952 -33.1821
298.236 399.975 -57.4413
271.325 425.131 -30.2538
265.966 423.264 -1.63412
276.278 392.813 -1.62263
281.676 394.562 -30.2421
277.389 389.412 1.56036
282.803 391.194 30.1546
292.479 360.391 30.1641
287.025 358.729 1.57114
283.964 391.56 33.0898
299.341 396.591 57.292
309.128 365.452 57.298
293.64 360.758 33.0994
301.484 397.266 59.5329
324.483 404.782 75.6714
334.43 373.141 75.6733
311.271 366.127 59.5389
327.278 405.662 76.8776
354.392 414.52 82.4942
364.527 382.289 82.4953
337.226 374.021 76.8796
357.414 415.47 82.4854
384.511 424.317 76.7654
394.833 391.493 76.7701
367.549 383.239 82.4866
387.307 425.195 75.5483
410.398 432.726 59.3953
420.886 399.388 59.4056
397.629 392.372 75.5529
412.547 433.399 57.1555
428.058 438.441 32.9912
438.662 404.739 33.0046
423.035 400.061 57.1658
429.226 438.805 30.0643
434.7 440.576 1.50058
445.345 406.742 1.51554
439.83 405.103 30.0777
434.701 440.575 -1.66968
429.232 438.788 -30.2331
439.835 405.086 -30.2168
445.346 406.742 -1.65472
428.065 438.422 -33.1598
412.559 433.359 -57.3204
423.045 400.025 -57.3049
438.668 404.72 -33.1436
410.41 432.684 -59.5599
387.324 425.14 -75.7075
397.642 392.322 -75.6894
420.896 399.35 -59.5444
384.528 424.261 -76.9242
357.432 415.415 -82.6402
367.562 383.187 -82.6189
394.846 391.443 -76.9062
354.41 414.465 -82.6487
327.296 405.61 -77.0296
337.239 373.971 -77.01
364.54 382.236 -82.6273
324.5 404.731 -75.8232
301.499 397.221 -59.684
311.282 366.084 -59.6692
334.443 373.092 -75.8036
299.355 396.547 -57.4399
283.949 391.524 -33.1807
293.622 360.723 -33.169
309.137 365.41 -57.4251
282.787 391.159 -30.2408
277.388 389.41 -1.62135
287.024 358.727 -1.61057
292.46 360.359 -30.2292
288.06 355.301 1.5722
293.514 356.963 30.1652
302.509 325.941 30.1739
297.017 324.398 1.58241
294.684 357.304 33.1001
310.172 361.999 57.2988
319.27 330.642 57.3032
303.679 326.282 33.1088
312.329 362.627 59.5392
335.488 369.641 75.6736
344.735 337.786 75.6729
321.427 331.27 59.5436
338.302 370.461 76.8795
365.603 378.728 82.4953
375.022 346.285 82.4925
347.55 338.606 76.8788
368.645 379.613 82.4867
395.929 387.867 76.7702
405.521 354.831 76.7708
378.064 347.17 82.4839
398.744 388.684 75.5535
422.001 395.7 59.4062
431.747 362.142 59.4131
408.336 355.648 75.5541
424.166 396.324 57.1669
439.793 401.002 33.0056
449.65 367.068 33.0169
433.912 362.766 57.1737
440.969 401.338 30.0791
446.484 402.977 1.51693
456.382 368.907 1.52964
450.827 367.405 30.0904
446.485 402.977 -1.65305
440.974 401.321 -30.2152
450.831 367.388 -30.2013
456.383 368.906 -1.64034
439.798 400.983 -33.1418
424.176 396.288 -57.3031
433.92 362.733 -57.2857
449.655 367.05 -33.1279
422.011 395.663 -59.5423
398.757 388.635 -75.6874
408.346 355.604 -75.6648
431.755 362.108 -59.525
395.942 387.818 -76.9038
368.658 379.561 -82.6165
378.074 347.122 -82.5921
405.531 354.786 -76.8812
365.616 378.676 -82.6249
338.315 370.411 -77.0075
347.559 338.56 -76.986
375.032 346.237 -82.6005
335.501 369.592 -75.8016
312.339 362.584 -59.6672
321.434 331.231 -59.6515
344.745 337.741 -75.78
310.18 361.957 -57.4236
294.665 357.27 -33.1675
303.658 326.251 -33.156
319.276 330.604 -57.4079
293.495 356.931 -30.2279
288.059 355.299 -1.60933
297.016 324.396 -1.59912
302.488 325.911 -30.2164
297.976 320.946 1.58337
303.468 322.489 30.1749
311.777 291.258 30.1821
306.249 289.832 1.59265
304.645 322.805 33.1094
320.237 327.165 57.3037
328.642 295.605 57.3047
312.954 291.574 33.1166
322.407 327.747 59.5435
345.716 334.263 75.6727
354.26 302.21 75.665
330.813 296.187 59.5444
348.547 335.022 76.8781
376.02 342.702 82.4918
384.722 310.066 82.4793
357.091 302.969 76.8704
379.08 343.522 82.4832
406.537 351.182 76.77
415.398 317.958 76.7584
387.783 310.886 82.4706
409.369 351.937 75.554
432.78 358.431 59.413
441.773 324.672 59.4171
418.23 318.713 75.5424
434.959 359.004 57.1744
450.698 363.307 33.0176
459.799 329.153 33.0268
443.952 325.245 57.1785
451.882 363.614 30.0915
457.438 365.117 1.53078
466.578 330.819 1.54167
460.983 329.46 30.1006
457.438 365.116 -1.63887
451.886 363.598 -30.1998
460.988 329.445 -30.1874
466.579 330.818 -1.62798
450.702 363.289 -33.126
434.967 358.972 -57.2838
443.96 325.216 -57.2665
459.804 329.137 -33.1136
432.788 358.398 -59.5225
409.379 351.894 -75.6624
418.238 318.673 -75.6317
441.781 324.641 -59.5052
406.547 351.138 -76.8782
379.09 343.474 -82.5891
387.79 310.843 -82.558
415.405 317.917 -76.8476
376.03 342.655 -82.5976
348.557 334.977 -76.9831
357.099 302.929 -76.9571
384.73 310.024 -82.5665
345.725 334.219 -75.7777
322.414 327.708 -59.6492
330.818 296.152 -59.6319
354.267 302.17 -75.7517
320.242 327.127 -57.4063
304.625 322.774 -33.1544
312.932 291.546 -33.1432
328.646 295.57 -57.389
303.447 322.46 -30.2152
297.975 320.944 -1.59792
306.248 289.831 -1.58863
311.754 291.232 -30.204
307.132 286.358 1.59345
312.66 287.784 30.1829
320.278 256.354 30.1884
314.716 255.043 1.60158
313.844 288.075 33.1168
329.532 292.105 57.3049
337.241 260.352 57.3015
321.462 256.645 33.1222
331.715 292.642 59.5436
355.162 298.665 75.6642
362.999 266.43 75.648
339.424 260.889 59.5402
358.009 299.366 76.8687
385.641 306.462 82.4776
393.622 273.653 82.4538
365.846 267.13 76.8525
388.718 307.217 82.4686
416.334 314.289 76.7564
424.464 280.884 76.7325
396.7 274.407 82.4448
419.181 314.981 75.5415
442.723 320.94 59.4162
450.963 286.989 59.4173
427.311 281.576 75.5176
444.915 321.46 57.179
460.762 325.369 33.0272
469.105 291.009 33.0338
453.155 287.51 57.18
461.955 325.646 30.1015
467.55 327.004 1.54256
475.931 292.49 1.55188
470.298 291.285 30.1081
467.55 327.004 -1.62664
461.959 325.631 -30.1861
470.303 291.272 -30.1742
475.931 292.49 -1.61732
460.767 325.353 -33.1118
444.923 321.432 -57.2648
453.162 287.486 -57.2475
469.11 290.994 -33.1
442.732 320.91 -59.5022
419.188 314.942 -75.6287
427.317 281.544 -75.5872
450.971 286.965 -59.485
416.341 314.249 -76.8435
388.726 307.175 -82.554
396.706 274.371 -82.5132
424.469 280.851 -76.8021
385.648 306.42 -82.5629
358.017 299.326 -76.9534
365.853 267.096 -76.9207
393.629 273.616 -82.5221
355.169 298.626 -75.7489
331.721 292.608 -59.6291
339.429 260.86 -59.6095
363.005 266.396 -75.7162
329.536 292.071 -57.3872
313.822 288.047 -33.1415
321.439 256.621 -33.1307
337.244 260.323 -57.3677
312.637 287.758 -30.2029
307.131 286.356 -1.5875
314.715 255.042 -1.57937
320.254 256.331 -30.1921
315.522 251.546 1.60221
321.084 252.857 30.189
328.009 221.236 30.1929
322.416 220.037 1.60906
322.275 253.125 33.1221
338.054 256.832 57.3014
345.063 224.897 57.2953
329.2 221.503 33.126
340.249 257.324 59.5388
363.823 262.866 75.6466
370.947 230.464 75.6261
347.257 225.39 59.5328
366.685 263.508 76.85
394.461 270.03 82.4513
401.714 237.069 82.423
373.809 231.106 76.8295
397.554 270.72 82.4421
425.318 277.197 76.7297
432.706 243.64 76.706
404.807 237.76 82.4137
428.18 277.825 75.5161
451.832 283.238 59.4157
459.335 249.124 59.4097
435.568 244.268 75.4923
454.035 283.705 57.1799
469.985 287.204 33.0337
477.589 252.654 33.0377
461.538 249.59 57.1739
471.186 287.448 30.1088
476.819 288.653 1.5525
484.46 253.937 1.56032
478.789 252.898 30.1127
476.819 288.653 -1.61605
471.191 287.435 -30.173
478.793 252.886 -30.1615
484.46 253.937 -1.60824
469.991 287.189 -33.098
454.043 283.682 -57.2456
461.544 249.57 -57.2243
477.593 252.64 -33.0865
451.839 283.214 -59.4816
428.185 277.794 -75.5838
435.575 244.241 -75.5433
459.341 249.102 -59.4603
425.324 277.165 -76.7974
397.561 270.685 -82.5086
404.814 237.73 -82.4649
432.713 243.612 -76.757
394.467 269.994 -82.5178
366.691 263.474 -76.9164
373.816 231.078 -76.8812
401.721 237.039 -82.4741
363.83 262.832 -75.7131
340.253 257.295 -59.6064
347.262 225.366 -59.5863
370.954 230.437 -75.6779
338.057 256.803 -57.3659
322.252 253.101 -33.1289
329.176 221.484 -33.1189
345.065 224.874 -57.3457
321.061 252.835 -30.1911
315.521 251.545 -1.57832
322.415 220.036 -1.57147
327.985 221.218 -30.1811
323.145 216.52 1.60951
328.738 217.718 30.1933
334.969 185.911 30.1952
329.348 184.821 1.61499
329.935 217.962 33.1256
345.798 221.356 57.2949
352.105 189.248 57.2859
336.166 186.155 33.1275
348.003 221.806 59.5309
371.693 226.881 75.6242
378.102 194.329 75.5987
354.31 189.698 59.5218
374.567 227.467 76.8264
402.472 233.43 82.4199
408.994 200.346 82.3853
380.977 194.916 76.8009
405.58 234.057 82.4107
433.478 239.938 76.7029
440.12 206.272 76.6777
412.101 200.973 82.3761
436.354 240.501 75.4902
460.121 245.357 59.4076
466.881 211.108 59.3928
442.996 206.836 75.465
462.336 245.767 57.173
478.387 248.83 33.0368
485.247 214.1 33.0371
469.096 211.518 57.1582
479.595 249.039 30.1131
485.266 250.079 1.56064
492.165 215.167 1.56697
486.455 214.309 30.1134
485.266 250.078 -1.607
479.599 249.027 -30.1602
486.46 214.298 -30.1481
492.165 215.166 -1.60068
478.391 248.817 -33.0841
462.342 245.747 -57.2219
469.103 211.501 -57.1948
485.252 214.088 -33.072
460.127 245.336 -59.4566
436.361 240.475 -75.5397
443.004 206.814 -75.5021
466.887 211.09 -59.4296
433.485 239.911 -76.7524
405.587 234.028 -82.4602
412.109 200.949 -82.4138
440.128 206.249 -76.7148
402.479 233.401 -82.4695
374.574 227.44 -76.8766
380.984 194.894 -76.8394
409.002 200.322 -82.423
371.7 226.854 -75.6746
348.007 221.784 -59.5829
354.315 189.683 -59.5624
378.11 194.308 -75.6373
345.801 221.334 -57.3439
329.911 217.944 -33.1171
336.143 186.142 -33.1079
352.108 189.233 -57.3233
328.714 217.701 -30.1802
323.144 216.519 -1.57053
329.347 184.821 -1.56505
334.946 185.899 -30.1709
330.001 181.283 1.61518
335.622 182.372 30.1954
341.172 150.385 30.1928
335.529 149.401 1.61932
336.824 182.594 33.1266
352.763 185.688 57.285
358.375 153.416 57.2701
342.374 150.606 33.124
354.977 186.098 59.5193
378.769 190.729 75.5961
384.466 158.044 75.5632
360.589 153.826 59.5044
381.654 191.263 76.7969
409.672 196.693 82.3813
415.459 163.517 82.3363
387.351 158.578 76.764
412.791 197.261 82.3723
440.81 202.559 76.6739
446.699 168.828 76.6393
418.579 164.085 82.3273
443.699 203.058 75.4619
467.584 207.33 59.3896
473.582 172.964 59.3626
449.588 169.326 75.4272
469.811 207.678 57.1563
485.962 210.259 33.0352
492.056 175.351 33.0299
475.809 173.311 57.1293
487.177 210.429 30.1133
492.887 211.288 1.56693
499.016 176.18 1.57178
493.271 175.521 30.1081
492.887 211.287 -1.59941
487.182 210.418 -30.1469
493.277 175.512 -30.1322
499.016 176.179 -1.59456
485.967 210.247 -33.0689
469.817 207.66 -57.1917
475.817 173.297 -57.1558
492.062 175.341 -33.0542
467.59 207.312 -59.4252
443.707 203.036 -75.4977
449.598 169.308 -75.4543
473.59 172.949 -59.3892
440.818 202.537 -76.7098
412.799 197.237 -82.4088
418.59 164.066 -82.3549
446.709 168.809 -76.6664
409.68 196.67 -82.4179
381.662 191.242 -76.8343
387.361 158.564 -76.7922
415.47 163.499 -82.364
378.777 190.709 -75.6337
354.982 186.083 -59.5587
360.596 153.819 -59.5345
384.476 158.03 -75.5915
352.767 185.673 -57.3213
336.801 182.583 -33.1058
342.352 150.602 -33.0944
358.381 153.409 -57.2971
335.599 182.361 -30.17
330 181.283 -1.56413
335.528 149.401 -1.55999
341.15 150.381 -30.1586
336.111 145.844 1.61867
341.754 146.827 30.1922
346.694 114.675 30.1667
341.044 113.795 1.62168
342.959 147.028 33.1212
358.96 149.837 57.2673
363.923 117.417 57.2187
347.898 114.876 33.0957
361.179 150.21 59.4996
385.056 154.429 75.5584
390.056 121.633 75.4916
366.142 117.79 59.451
387.948 154.915 76.7576
416.057 159.854 82.3299
421.098 126.621 82.2508
392.948 122.119 76.6909
419.184 160.366 82.321
447.304 165.109 76.633
452.395 131.368 76.562
424.225 127.132 82.2419
450.204 165.54 75.4212
474.198 169.177 59.3566
479.377 134.699 59.2988
455.296 131.799 75.3502
476.434 169.455 57.1254
492.682 171.494 33.0261
497.924 136.401 33.004
481.613 134.977 57.0677
493.902 171.62 30.1073
499.647 172.279 1.57101
504.907 136.966 1.57362
499.144 136.527 30.0852
499.648 172.279 -1.59296
493.908 171.612 -30.1306
499.153 136.522 -30.1033
504.907 136.966 -1.59035
492.689 171.485 -33.0496
476.443 169.441 -57.1511
481.626 134.966 -57.0881
497.933 136.395 -33.0223
474.207 169.163 -59.3825
450.215 165.522 -75.4475
455.311 131.784 -75.3702
479.39 134.688 -59.3194
447.315 165.09 -76.6593
419.195 160.347 -82.3478
424.241 127.118 -82.2615
452.41 131.353 -76.582
416.068 159.836 -82.3567
387.958 154.901 -76.7849
392.962 122.112 -76.7105
421.114 126.607 -82.2705
385.066 154.416 -75.5858
361.187 150.204 -59.5287
366.154 117.794 -59.4717
390.07 121.626 -75.5114
358.966 149.832 -57.2934
342.938 147.025 -33.0907
347.881 114.883 -33.058
363.933 117.422 -57.2364
341.732 146.824 -30.1571
336.11 145.844 -1.55847
341.043 113.795 -1.55546
346.675 114.682 -30.1244
341.581 110.226 1.6159
347.231 111.106 30.1609
351.946 78.8782 29.9777
346.34 78.1009 1.6169
348.432 111.287 33.0794
364.456 113.828 57.2024
369.061 81.3406 56.8828
353.147 79.0586 32.8962
366.669 114.166 59.4279
390.583 118.009 75.4686
395.036 85.1656 75.0835
371.274 81.6786 59.1083
393.468 118.452 76.6652
421.619 122.954 82.2251
425.903 89.7152 81.8362
397.92 85.6087 76.2802
424.738 123.417 82.217
452.908 127.653 76.5372
457.013 94.0012 76.169
429.023 90.1784 81.8281
455.809 128.011 75.3291
479.891 130.911 59.2777
483.927 96.2811 59.0683
459.914 94.3592 74.9609
482.124 131.102 57.0553
498.434 132.527 32.9916
502.343 97.1919 32.8612
486.161 96.473 56.8458
499.651 132.604 30.0806
505.414 133.042 1.56902
509.263 97.4627 1.55972
503.56 97.2683 29.9501
505.414 133.042 -1.58621
499.66 132.598 -30.0991
503.566 97.2656 -29.9777
509.264 97.4626 -1.59551
498.444 132.521 -33.0095
482.137 131.093 -57.0753
486.184 96.467 -56.8513
502.35 97.1891 -32.888
479.905 130.9 -59.2972
455.825 127.995 -75.3479
459.938 94.3462 -74.9665
483.951 96.2742 -59.0732
452.924 127.637 -76.5561
424.754 123.403 -82.2357
429.047 90.1684 -81.8366
457.037 93.9881 -76.1746
421.635 122.94 -82.2439
393.483 118.445 -76.6839
397.943 85.6078 -76.2909
425.927 89.7058 -81.8448
390.598 118.003 -75.4874
366.682 114.171 -59.4477
371.295 81.6953 -59.1178
395.058 85.1658 -75.0944
364.467 113.834 -57.2192
348.415 111.295 -33.0409
353.138 79.0814 -32.8522
369.08 81.3583 -56.8893
347.212 111.115 -30.118
341.58 110.227 -1.54908
346.339 78.1017 -1.54808
351.936 78.9005 -29.9293
347.002 74.5762 1.57566
352.608 75.3536 29.9364
359.733 43.7652 28.6542
354.389 43.0511 1.57335
353.776 75.5169 32.7808
369.69 77.7989 56.7675
376.065 46.0285 54.4248
360.901 43.9285 31.4986
371.844 78.1061 58.9406
395.606 81.593 74.9158
400.88 49.5149 71.9143
378.22 46.3357 56.5979
398.417 81.9958 76.0888
426.4 86.1023 81.6448
430.415 53.6337 78.4779
403.691 49.9177 73.0872
429.441 86.5219 81.6414
457.431 90.3448 75.9823
460.208 57.5103 73.1064
433.456 54.0533 78.4745
460.245 90.6619 74.8134
484.258 92.5838 58.9208
485.811 60.0537 56.6582
463.022 57.8274 71.9375
486.433 92.7482 56.7503
502.616 93.467 32.7656
503.232 61.2736 31.4724
487.987 60.2182 54.4878
503.799 93.5303 29.915
509.502 93.7248 1.52459
509.759 61.6355 1.51327
504.415 61.3369 28.6217
509.502 93.724 -1.56245
503.804 93.527 -29.9446
504.409 61.306 -28.6617
509.759 61.6347 -1.57376
502.622 93.4631 -32.7922
486.457 92.741 -56.7555
488.013 60.1894 -54.4775
503.228 61.2422 -31.5093
484.283 92.5764 -58.9241
460.27 90.6485 -74.8174
463.051 57.8148 -71.9307
485.84 60.0248 -56.6461
457.456 90.332 -75.9868
429.466 86.5122 -81.6488
433.485 54.048 -78.4747
460.237 57.4982 -73.1001
426.425 86.0935 -81.6526
398.44 81.9955 -76.0987
403.717 49.9241 -73.0935
430.444 53.6292 -78.4785
395.629 81.5944 -74.9262
371.866 78.1239 -58.9495
378.239 46.37 -56.6085
400.906 49.5231 -71.9209
369.709 77.8181 -56.7737
353.768 75.5413 -32.7365
360.887 43.9677 -31.4592
376.082 46.0643 -54.4327
352.598 75.3766 -29.8881
347.001 74.5778 -1.50685
354.388 43.0527 -1.50917
359.718 43.8031 -28.6108
355.245 39.5867 1.4898
360.589 40.3008 28.5707
368.62 9.34368 26.8435
363.607 8.69783 1.48232
361.694 40.45 31.2622
376.858 42.5501 54.1884
383.948 11.4013 51.0001
369.725 9.49289 29.5351
378.896 42.8295 56.246
401.556 46.0088 71.5623
407.239 14.5416 67.376
385.986 11.6808 53.0576
404.216 46.3729 72.6744
430.94 50.0889 78.0651
434.941 18.2405 73.4978
409.899 14.9057 68.4881
433.817 50.4687 78.0639
460.569 53.9256 72.6958
462.85 21.7752 68.4443
437.818 18.6203 73.4967
463.228 54.2352 71.5857
486.018 56.4616 56.3064
486.772 24.3945 53.0149
465.51 22.0849 67.3343
488.061 56.6526 54.2482
503.306 57.7081 31.2328
503.011 25.8486 29.4506
488.815 24.5855 50.9567
504.413 57.7912 28.5362
509.757 58.0898 1.42783
509.081 26.2984 1.43683
504.118 25.9316 26.7541
509.757 58.0873 -1.48833
504.407 57.7587 -28.5762
504.11 25.8744 -26.78
509.08 26.296 -1.47933
503.302 57.6734 -31.2691
488.087 56.6206 -54.2373
488.832 24.5342 -50.9452
503.005 25.7891 -29.4728
486.046 56.4316 -56.2936
463.258 54.2215 -71.5782
465.531 22.0712 -67.329
486.791 24.3451 -53.0015
460.598 53.9137 -72.6891
433.846 50.4635 -78.0636
437.839 18.6167 -73.4962
462.872 21.7634 -68.4399
430.969 50.0847 -78.0653
404.242 46.3797 -72.6803
409.918 14.9148 -68.4922
434.962 18.238 -73.4979
401.582 46.018 -71.5688
378.915 42.8649 -56.2564
385.995 11.7285 -53.0681
407.258 14.553 -67.3807
376.875 42.5876 -54.1968
361.68 40.4911 -31.2234
369.706 9.54827 -29.5078
383.955 11.4512 -51.0085
360.574 40.3396 -28.5282
355.244 39.5892 -1.42663
363.606 8.70029 -1.43411
368.601 9.39677 -26.8127
364.656 5.48673 1.3527
369.669 6.13258 26.7139
380.24 -21.0455 23.7827
375.818 -21.667 1.33099
370.677 6.26927 29.1709
384.901 8.17768 50.636
393.848 -19.1496 45.2702
381.249 -20.9088 26.2398
386.764 8.42945 52.5144
408.017 11.2903 66.8328
414.595 -16.3676 59.8192
395.712 -18.8978 47.1486
410.449 11.6151 67.8452
435.492 14.9499 72.8549
439.263 -13.0923 65.2235
417.027 -16.0428 60.8316
438.119 15.2938 72.8504
463.151 18.4488 67.7981
464.075 -9.81656 60.6944
441.89 -12.7484 65.219
465.575 18.7512 66.7826
486.838 21.0608 52.4632
485.262 -7.03887 46.9588
466.499 -9.51414 59.6789
488.695 21.276 50.5882
502.892 22.539 29.082
499.634 -5.17425 26.1188
487.12 -6.8237 45.0837
503.899 22.6467 26.627
508.862 23.0134 1.30973
505.03 -4.48817 1.32895
500.641 -5.06658 23.6637
508.862 23.0117 -1.34872
503.892 22.5901 -26.6493
500.64 -5.06849 -23.6643
505.03 -4.48991 -1.3295
502.885 22.4807 -29.1036
488.712 21.2258 -50.576
487.12 -6.82754 -45.0838
499.633 -5.17789 -26.1186
486.855 21.0124 -52.4506
465.595 18.7384 -66.7782
466.499 -9.51627 -59.6785
485.262 -7.04095 -46.9584
463.171 18.4373 -67.7938
438.139 15.2907 -72.8501
441.891 -12.7492 -65.2187
464.076 -9.81742 -60.6941
435.512 14.9472 -72.8548
410.467 11.624 -67.8491
417.028 -16.0429 -60.8316
439.264 -13.0926 -65.2234
408.034 11.3006 -66.8368
386.772 8.47605 -52.5241
395.712 -18.8965 -47.1487
414.595 -16.3664 -59.8193
384.907 8.22609 -50.6451
370.659 6.32318 -29.1444
381.248 -20.9055 -26.2393
393.847 -19.1464 -45.2696
369.65 6.18486 -26.6865
364.655 5.48838 -1.30794
375.817 -21.6654 -1.32965
380.24 -21.0438 -23.7814
-66.1856 1014.69 25.2859
-70.138 1011.43 -0.483551
-66.1078 1014.6 -26.25
-54.7386 1023.75 -48.0812
-37.7238 1037.42 -62.638
-17.6879 1053.55 -67.709
2.21907 1069.79 -62.5835
18.9356 1083.84 -48.0691
30.0126 1093.48 -26.2952
33.894 1096.9 -0.520791
30.0108 1093.48 25.2535
18.9228 1083.88 47.0323
2.18712 1069.87 61.5612
-17.7323 1053.64 66.7012
-37.7753 1037.53 61.6445
-54.8207 1023.86 47.1109
382.635 -22.3855 1.31945e-05
387.058 -21.764 22.4517
399.656 -20.0048 41.4821
418.539 -17.4746 54.1528
440.776 -14.5241 58.5446
462.96 -11.5923 54.02
481.723 -9.11705 41.3
494.237 -7.4676 22.335
498.627 -6.88918 0.000239176
494.237 -7.46776 -22.3346
481.723 -9.11742 -41.2997
462.96 -11.5927 -54.0199
440.776 -14.5245 -58.5445
418.539 -17.4748 -54.1527
399.656 -20.0049 -41.4821
387.058 -21.764 -22.4517
</DataArray>
</Points>
<Cells>
<DataArray type="Int32" Name="connectivity" format="ascii">
0 1 2 3 
4 5 6 7 
8 9 10 11 
12 13 14 15 
16 17 18 19 
20 21 22 23 
24 25 26 27 
28 29 30 31 
32 33 34 35 
36 37 38 39 
40 41 42 43 
44 45 46 47 
48 49 50 51 
52 53 54 55 
56 57 58 59 
60 61 62 63 
64 65 66 67 
68 69 70 71 
72 73 74 75 
76 77 78 79 
80 81 82 83 
84 85 86 87 
88 89 90 91 
92 93 94 95 
96 97 98 99 
100 101 102 103 
104 105 106 107 
108 109 110 111 
112 113 114 115 
116 117 118 119 
120 121 122 123 
124 125 126 127 
128 129 130 131 
132 133 134 135 
136 137 138 139 
140 141 142 143 
144 145 146 147 
148 149 150 151 
152 153 154 155 
156 157 158 159 
160 161 162 163 
164 165 166 167 
168 169 170 171 
172 173 174 175 
176 177 178 179 
180 181 182 183 
184 185 186 187 
188 189 190 191 
192 193 194 195 
196 197 198 199 
200 201 202 203 
204 205 206 207 
208 209 210 211 
212 213 214 215 
216 217 218 219 
220 221 222 223 
224 225 226 227 
228 229 230 231 
232 233 234 235 
236 237 238 239 
240 241 242 243 
244 245 246 247 
248 249 250 251 
252 253 254 255 
256 257 258 259 
260 261 262 263 
264 265 266 267 
268 269 270 271 
272 273 274 275 
276 277 278 279 
280 281 282 283 
284 285 286 287 
288 289 290 291 
292 293 294 295 
296 297 298 299 
300 301 302 303 
304 305 306 307 
308 309 310 311 
312 313 314 315 
316 317 318 319 
320 321 322 323 
324 325 326 327 
328 329 330 331 
332 333 334 335 
336 337 338 339 
340 341 342 343 
344 345 346 347 
348 349 350 351 
352 353 354 355 
356 357 358 359 
360 361 362 363 
364 365 366 367 
368 369 370 371 
372 373 374 375 
376 377 378 379 
380 381 382 383 
384 385 386 387 
388 389 390 391 
392 393 394 395 
396 397 398 399 
400 401 402 403 
404 405 406 407 
408 409 410 411 
412 413 414 415 
416 417 418 419 
420 421 422 423 
424 425 426 427 
428 429 430 431 
432 433 434 435 
436 437 438 439 
440 441 442 443 
444 445 446 447 
448 449 450 451 
452 453 454 455 
456 457 458 459 
460 461 462 463 
464 465 466 467 
468 469 470 471 
472 473 474 475 
476 477 478 479 
480 481 482 483 
484 485 486 487 
488 489 490 491 
492 493 494 495 
496 497 498 499 
500 501 502 503 
504 505 506 507 
508 509 510 511 
512 513 514 515 
516 517 518 519 
520 521 522 523 
524 525 526 527 
528 529 530 531 
532 533 534 535 
536 537 538 539 
540 541 542 543 
544 545 546 547 
548 549 550 551 
552 553 554 555 
556 557 558 559 
560 561 562 563 
564 565 566 567 
568 569 570 571 
572 573 574 575 
576 577 578 579 
580 581 582 583 
584 585 586 587 
588 589 590 591 
592 593 594 595 
596 597 598 599 
600 601 602 603 
604 605 606 607 
608 609 610 611 
612 613 614 615 
616 617 618 619 
620 621 622 623 
624 625 626 627 
628 629 630 631 
632 633 634 635 
636 637 638 639 
640 641 642 643 
644 645 646 647 
648 649 650 651 
652 653 654 655 
656 657 658 659 
660 661 662 663 
664 665 666 667 
668 669 670 671 
672 673 674 675 
676 677 678 679 
680 681 682 683 
684 685 686 687 
688 689 690 691 
692 693 694 695 
696 697 698 699 
700 701 702 703 
704 705 706 707 
708 709 710 711 
712 713 714 715 
716 717 718 719 
720 721 722 723 
724 725 726 727 
728 729 730 731 
732 733 734 735 
736 737 738 739 
740 741 742 743 
744 745 746 747 
748 749 750 751 
752 753 754 755 
756 757 758 759 
760 761 762 763 
764 765 766 767 
768 769 770 771 
772 773 774 775 
776 777 778 779 
780 781 782 783 
784 785 786 787 
788 789 790 791 
792 793 794 795 
796 797 798 799 
800 801 802 803 
804 805 806 807 
808 809 810 811 
812 813 814 815 
816 817 818 819 
820 821 822 823 
824 825 826 827 
828 829 830 831 
832 833 834 835 
836 837 838 839 
840 841 842 843 
844 845 846 847 
848 849 850 851 
852 853 854 855 
856 857 858 859 
860 861 862 863 
864 865 866 867 
868 869 870 871 
872 873 874 875 
876 877 878 879 
880 881 882 883 
884 885 886 887 
888 889 890 891 
892 893 894 895 
896 897 898 899 
900 901 902 903 
904 905 906 907 
908 909 910 911 
912 913 914 915 
916 917 918 919 
920 921 922 923 
924 925 926 927 
928 929 930 931 
932 933 934 935 
936 937 938 939 
940 941 942 943 
944 945 946 947 
948 949 950 951 
952 953 954 955 
956 957 958 959 
960 961 962 963 
964 965 966 967 
968 969 970 971 
972 973 974 975 
976 977 978 979 
980 981 982 983 
984 985 986 987 
988 989 990 991 
992 993 994 995 
996 997 998 999 
1000 1001 1002 1003 
1004 1005 1006 1007 
1008 1009 1010 1011 
1012 1013 1014 1015 
1016 1017 1018 1019 
1020 1021 1022 1023 
1024 1025 1026 1027 
1028 1029 1030 1031 
1032 1033 1034 1035 
1036 1037 1038 1039 
1040 1041 1042 1043 
1044 1045 1046 1047 
1048 1049 1050 1051 
1052 1053 1054 1055 
1056 1057 1058 1059 
1060 1061 1062 1063 
1064 1065 1066 1067 
1068 1069 1070 1071 
1072 1073 1074 1075 
1076 1077 1078 1079 
1080 1081 1082 1083 
1084 1085 1086 1087 
1088 1089 1090 1091 
1092 1093 1094 1095 
1096 1097 1098 1099 
1100 1101 1102 1103 
1104 1105 1106 1107 
1108 1109 1110 1111 
1112 1113 1114 1115 
1116 1117 1118 1119 
1120 1121 1122 1123 
1124 1125 1126 1127 
1128 1129 1130 1131 
1132 1133 1134 1135 
1136 1137 1138 1139 
1140 1141 1142 1143 
1144 1145 1146 1147 
1148 1149 1150 1151 
1152 1153 1154 1155 
1156 1157 1158 1159 
1160 1161 1162 1163 
1164 1165 1166 1167 
1168 1169 1170 1171 
1172 1173 1174 1175 
1176 1177 1178 1179 
1180 1181 1182 1183 
1184 1185 1186 1187 
1188 1189 1190 1191 
1192 1193 1194 1195 
1196 1197 1198 1199 
1200 1201 1202 1203 
1204 1205 1206 1207 
1208 1209 1210 1211 
1212 1213 1214 1215 
1216 1217 1218 1219 
1220 1221 1222 1223 
1224 1225 1226 1227 
1228 1229 1230 1231 
1232 1233 1234 1235 
1236 1237 1238 1239 
1240 1241 1242 1243 
1244 1245 1246 1247 
1248 1249 1250 1251 
1252 1253 1254 1255 
1256 1257 1258 1259 
1260 1261 1262 1263 
1264 1265 1266 1267 
1268 1269 1270 1271 
1272 1273 1274 1275 
1276 1277 1278 1279 
1280 1281 1282 1283 
1284 1285 1286 1287 
1288 1289 1290 1291 
1292 1293 1294 1295 
1296 1297 1298 1299 
1300 1301 1302 1303 
1304 1305 1306 1307 
1308 1309 1310 1311 
1312 1313 1314 1315 
1316 1317 1318 1319 
1320 1321 1322 1323 
1324 1325 1326 1327 
1328 1329 1330 1331 
1332 1333 1334 1335 
1336 1337 1338 1339 
1340 1341 1342 1343 
1344 1345 1346 1347 
1348 1349 1350 1351 
1352 1353 1354 1355 
1356 1357 1358 1359 
1360 1361 1362 1363 
1364 1365 1366 1367 
1368 1369 1370 1371 
1372 1373 1374 1375 
1376 1377 1378 1379 
1380 1381 1382 1383 
1384 1385 1386 1387 
1388 1389 1390 1391 
1392 1393 1394 1395 
1396 1397 1398 1399 
1400 1401 1402 1403 
1404 1405 1406 1407 
1408 1409 1410 1411 
1412 1413 1414 1415 
1416 1417 1418 1419 
1420 1421 1422 1423 
1424 1425 1426 1427 
1428 1429 1430 1431 
1432 1433 1434 1435 
1436 1437 1438 1439 
1440 1441 1442 1443 
1444 1445 1446 1447 
1448 1449 1450 1451 
1452 1453 1454 1455 
1456 1457 1458 1459 
1460 1461 1462 1463 
1464 1465 1466 1467 
1468 1469 1470 1471 
1472 1473 1474 1475 
1476 1477 1478 1479 
1480 1481 1482 1483 
1484 1485 1486 1487 
1488 1489 1490 1491 
1492 1493 1494 1495 
1496 1497 1498 1499 
1500 1501 1502 1503 
1504 1505 1506 1507 
1508 1509 1510 1511 
1512 1513 1514 1515 
1516 1517 1518 1519 
1520 1521 1522 1523 
1524 1525 1526 1527 
1528 1529 1530 1531 
1532 1533 1534 1535 
1536 1537 1538 1539 
1540 1541 1542 1543 
1544 1545 1546 1547 
1548 1549 1550 1551 
1552 1553 1554 1555 
1556 1557 1558 1559 
1560 1561 1562 1563 
1564 1565 1566 1567 
1568 1569 1570 1571 
1572 1573 1574 1575 
1576 1577 1578 1579 
1580 1581 1582 1583 
1584 1585 1586 1587 
1588 1589 1590 1591 
1592 1593 1594 1595 
1596 1597 1598 1599 
1600 1601 1602 1603 
1604 1605 1606 1607 
1608 1609 1610 1611 
1612 1613 1614 1615 
1616 1617 1618 1619 
1620 1621 1622 1623 
1624 1625 1626 1627 
1628 1629 1630 1631 
1632 1633 1634 1635 
1636 1637 1638 1639 
1640 1641 1642 1643 
1644 1645 1646 1647 
1648 1649 1650 1651 
1652 1653 1654 1655 
1656 1657 1658 1659 
1660 1661 1662 1663 
1664 1665 1666 1667 
1668 1669 1670 1671 
1672 1673 1674 1675 
1676 1677 1678 1679 
1680 1681 1682 1683 
1684 1685 1686 1687 
1688 1689 1690 1691 
1692 1693 1694 1695 
1696 1697 1698 1699 
1700 1701 1702 1703 
1704 1705 1706 1707 
1708 1709 1710 1711 
1712 1713 1714 1715 
1716 1717 1718 1719 
1720 1721 1722 1723 
1724 1725 1726 1727 
1728 1729 1730 1731 
1732 1733 1734 1735 
1736 1737 1738 1739 
1740 1741 1742 1743 
1744 1745 1746 1747 
1748 1749 1750 1751 
1752 1753 1754 1755 
1756 1757 1758 1759 
1760 1761 1762 1763 
1764 1765 1766 1767 
1768 1769 1770 1771 
1772 1773 1774 1775 
1776 1777 1778 1779 
1780 1781 1782 1783 
1784 1785 1786 1787 
1788 1789 1790 1791 
1792 1793 1794 1795 
1796 1797 1798 1799 
1800 1801 1802 1803 
1804 1805 1806 1807 
1808 1809 1810 1811 
1812 1813 1814 1815 
1816 1817 1818 1819 
1820 1821 1822 1823 
1824 1825 1826 1827 
1828 1829 1830 1831 
1832 1833 1834 1835 
1836 1837 1838 1839 
1840 1841 1842 1843 
1844 1845 1846 1847 
1848 1849 1850 1851 
1852 1853 1854 1855 
1856 1857 1858 1859 
1860 1861 1862 1863 
1864 1865 1866 1867 
1868 1869 1870 1871 
1872 1873 1874 1875 
1876 1877 1878 1879 
1880 1881 1882 1883 
1884 1885 1886 1887 
1888 1889 1890 1891 
1892 1893 1894 1895 
1896 1897 1898 1899 
1900 1901 1902 1903 
1904 1905 1906 1907 
1908 1909 1910 1911 
1912 1913 1914 1915 
1916 1917 1918 1919 
1920 1921 1922 1923 
1924 1925 1926 1927 
1928 1929 1930 1931 
1932 1933 1934 1935 
1936 1937 1938 1939 
1940 1941 1942 1943 
1944 1945 1946 1947 
1948 1949 1950 1951 
1952 1953 1954 1955 
1956 1957 1958 1959 
1960 1961 1962 1963 
1964 1965 1966 1967 
1968 1969 1970 1971 
1972 1973 1974 1975 
1976 1977 1978 1979 
1980 1981 1982 1983 
1984 1985 1986 1987 
1988 1989 1990 1991 
1992 1993 1994 1995 
1996 1997 1998 1999 
2000 2001 2002 2003 
2004 2005 2006 2007 
2008 2009 2010 2011 
2012 2013 2014 2015 
2016 2017 2018 2019 
2020 2021 2022 2023 
2024 2025 2026 2027 
2028 2029 2030 2031 
2032 2033 2034 2035 
2036 2037 2038 2039 
2040 2041 2042 2043 
2044 2045 2046 2047 
2048 2049 2050 2051 2052 2053 2054 2055 2056 2057 2058 2059 2060 2061 2062 2063 
2064 2065 2066 2067 2068 2069 2070 2071 2072 2073 2074 2075 2076 2077 2078 2079 
</DataArray>
<DataArray type="Int32" Name="offsets" format="ascii">
4 8 12 16 20 24 28 32 36 40 44 48 52 56 60 64 68 72 76 80 84 88 92 96 100 104 108 112 116 120 124 128 132 136 140 144 148 152 156 160 164 168 172 176 180 184 188 192 196 200 204 208 212 216 220 224 228 232 236 240 244 248 252 256 260 264 268 272 276 280 284 288 292 296 300 304 308 312 316 320 324 328 332 336 340 344 348 352 356 360 364 368 372 376 380 384 388 392 396 400 404 408 412 416 420 424 428 432 436 440 444 448 452 456 460 464 468 472 476 480 484 488 492 496 500 504 508 512 516 520 524 528 532 536 540 544 548 552 556 560 564 568 572 576 580 584 588 592 596 600 604 608 612 616 620 624 628 632 636 640 644 648 652 656 660 664 668 672 676 680 684 688 692 696 700 704 708 712 716 720 724 728 732 736 740 744 748 752 756 760 764 768 772 776 780 784 788 792 796 800 804 808 812 816 820 824 828 832 836 840 844 848 852 856 860 864 868 872 876 880 884 888 892 896 900 904 908 912 916 920 924 928 932 936 940 944 948 952 956 960 964 968 972 976 980 984 988 992 996 1000 1004 1008 1012 1016 1020 1024 1028 1032 1036 1040 1044 1048 1052 1056 1060 1064 1068 1072 1076 1080 1084 1088 1092 1096 1100 1104 1108 1112 1116 1120 1124 1128 1132 1136 1140 1144 1148 1152 1156 1160 1164 1168 1172 1176 1180 1184 1188 1192 1196 1200 1204 1208 1212 1216 1220 1224 1228 1232 1236 1240 1244 1248 1252 1256 1260 1264 1268 1272 1276 1280 1284 1288 1292 1296 1300 1304 1308 1312 1316 1320 1324 1328 1332 1336 1340 1344 1348 1352 1356 1360 1364 1368 1372 1376 1380 1384 1388 1392 1396 1400 1404 1408 1412 1416 1420 1424 1428 1432 1436 1440 1444 1448 1452 1456 1460 1464 1468 1472 1476 1480 1484 1488 1492 1496 1500 1504 1508 1512 1516 1520 1524 1528 1532 1536 1540 1544 1548 1552 1556 1560 1564 1568 1572 1576 1580 1584 1588 1592 1596 1600 1604 1608 1612 1616 1620 1624 1628 1632 1636 1640 1644 1648 1652 1656 1660 1664 1668 1672 1676 1680 1684 1688 1692 1696 1700 1704 1708 1712 1716 1720 1724 1728 1732 1736 1740 1744 1748 1752 1756 1760 1764 1768 1772 1776 1780 1784 1788 1792 1796 1800 1804 1808 1812 1816 1820 1824 1828 1832 1836 1840 1844 1848 1852 1856 1860 1864 1868 1872 1876 1880 1884 1888 1892 1896 1900 1904 1908 1912 1916 1920 1924 1928 1932 1936 1940 1944 1948 1952 1956 1960 1964 1968 1972 1976 1980 1984 1988 1992 1996 2000 2004 2008 2012 2016 2020 2024 2028 2032 2036 2040 2044 2048 2064 2080 
</DataArray>
<DataArray type="UInt8" Name="types" format="ascii">
7 7 7 7 7 7 7 7 7 7 7 7 7 7 7 7 7 7 7 7 7 7 7 7 7 7 7 7 7 7 7 7 7 7 7 7 7 7 7 7 7 7 7 7 7 7 7 7 7 7 7 7 7 7 7 7 7 7 7 7 7 7 7 7 7 7 7 7 7 7 7 7 7 7 7 7 7 7 7 7 7 7 7 7 7 7 7 7 7 7 7 7 7 7 7 7 7 7 7 7 7 7 7 7 7 7 7 7 7 7 7 7 7 7 7 7 7 7 7 7 7 7 7 7 7 7 7 7 7 7 7 7 7 7 7 7 7 7 7 7 7 7 7 7 7 7 7 7 7 7 7 7 7 7 7 7 7 7 7 7 7 7 7 7 7 7 7 7 7 7 7 7 7 7 7 7 7 7 7 7 7 7 7 7 7 7 7 7 7 7 7 7 7 7 7 7 7 7 7 7 7 7 7 7 7 7 7 7 7 7 7 7 7 7 7 7 7 7 7 7 7 7 7 7 7 7 7 7 7 7 7 7 7 7 7 7 7 7 7 7 7 7 7 7 7 7 7 7 7 7 7 7 7 7 7 7 7 7 7 7 7 7 7 7 7 7 7 7 7 7 7 7 7 7 7 7 7 7 7 7 7 7 7 7 7 7 7 7 7 7 7 7 7 7 7 7 7 7 7 7 7 7 7 7 7 7 7 7 7 7 7 7 7 7 7 7 7 7 7 7 7 7 7 7 7 7 7 7 7 7 7 7 7 7 7 7 7 7 7 7 7 7 7 7 7 7 7 7 7 7 7 7 7 7 7 7 7 7 7 7 7 7 7 7 7 7 7 7 7 7 7 7 7 7 7 7 7 7 7 7 7 7 7 7 7 7 7 7 7 7 7 7 7 7 7 7 7 7 7 7 7 7 7 7 7 7 7 7 7 7 7 7 7 7 7 7 7 7 7 7 7 7 7 7 7 7 7 7 7 7 7 7 7 7 7 7 7 7 7 7 7 7 7 7 7 7 7 7 7 7 7 7 7 7 7 7 7 7 7 7 7 7 7 7 7 7 7 7 7 7 7 7 7 7 7 7 7 7 7 7 7 7 7 7 7 7 7 7 7 7 7 7 7 7 7 7 7 7 7 7 7 7 7 7 7 7 7 7 7 7 7 7 7 7 
</DataArray>
</Cells>
<CellData Scalars="cell variable 4" Vectors="cell vector">
<DataArray type="Float64" NumberOfComponents="3" Name="cell vector" format="ascii">
0.180098 0.0715904 0.98104
0.530501 0.160392 0.832372
0.790388 0.223042 0.57056
0.920051 0.309488 0.240258
0.755752 0.624588 -0.196796
0.299999 0.769793 -0.5634
-0.152824 -0.562614 0.812472
-0.0354121 -0.22192 0.974422
0.0415736 0.217422 0.975192
0.139492 0.571189 0.808879
0.294457 0.77303 0.561889
0.753279 0.627539 0.19689
0.918946 0.313019 -0.239913
0.784717 0.24003 -0.571494
-0.517645 -0.188651 0.834538
-0.188617 -0.0563627 0.980432
0.162105 0.110033 0.98062
0.464852 0.307024 0.830451
0.693289 0.459969 0.554779
0.804399 0.560826 0.196
0.758984 0.62104 -0.195584
0.557494 0.619658 -0.552471
-0.36411 -0.425526 0.828463
-0.128515 -0.149762 0.980334
0.128551 0.150485 0.980219
0.360571 0.429766 0.827822
0.555909 0.621589 0.551899
0.758306 0.621979 0.195229
0.803399 0.56216 -0.196279
0.691708 0.461866 -0.555176
-0.462963 -0.308954 0.83079
-0.164112 -0.106618 0.980663
0.160866 0.112564 0.980536
0.459524 0.316108 0.830008
0.686217 0.472052 0.55342
0.801443 0.56578 0.193858
0.768734 0.608933 -0.195573
0.548173 0.631445 -0.548437
-0.376639 -0.415077 0.828163
-0.134124 -0.144315 0.9804
0.133841 0.145517 0.980261
0.374952 0.417491 0.827715
0.547537 0.632404 0.547967
0.768101 0.609836 0.195244
0.800693 0.566738 -0.194164
0.685555 0.472691 -0.553694
-0.458568 -0.31663 0.830338
-0.161838 -0.110011 0.980666
0.161499 0.112214 0.980472
0.461027 0.31507 0.829569
0.690051 0.467868 0.552205
0.809757 0.554361 0.192294
0.782764 0.590798 -0.195547
0.344749 0.789321 -0.508055
-0.503439 0.838842 -0.207107
-0.62512 0.77886 -0.0510056
-0.625427 0.778802 0.0480464
-0.507036 0.838211 0.200791
0.346926 0.78844 0.507942
0.782046 0.591853 0.195225
0.809126 0.55518 -0.192588
0.689771 0.468034 -0.552412
-0.460279 -0.315286 0.829903
-0.161871 -0.110093 0.980651
0.162026 0.111705 0.980444
0.46178 0.314364 0.829418
0.690615 0.467486 0.551823
0.81004 0.554149 0.191713
0.784199 0.588887 -0.19556
0.405868 0.752258 -0.519016
-0.489924 0.849273 -0.196748
-0.604214 0.795282 -0.0495163
-0.604163 0.795383 0.0485075
-0.489482 0.849675 0.196113
0.408925 0.750547 0.519095
0.783771 0.589559 0.195248
0.809661 0.554614 -0.191973
0.690618 0.467288 -0.551986
-0.461329 -0.314178 0.829739
-0.162092 -0.109805 0.980647
0.162573 0.110621 0.980476
0.462983 0.311845 0.829698
0.692372 0.464325 0.55229
0.812903 0.549885 0.191872
0.791733 0.578597 -0.195921
0.443557 0.727347 -0.523663
-0.491605 0.854632 -0.167117
-0.586688 0.80861 -0.0441341
-0.586638 0.808697 0.0431884
-0.491114 0.855012 0.166621
0.447521 0.724679 0.52399
0.791367 0.579188 0.195653
0.812647 0.550187 -0.19209
0.692509 0.463959 -0.552425
-0.462734 -0.311382 0.830011
-0.162496 -0.108822 0.98069
0.16345 0.108857 0.980528
0.465332 0.307273 0.83009
0.69601 0.458094 0.55292
0.81809 0.542048 0.192126
0.802042 0.564086 -0.196303
0.471182 0.707712 -0.526433
-0.496915 0.857764 -0.131594
-0.569997 0.820809 -0.0371031
-0.56997 0.820873 0.0360736
-0.496568 0.858065 0.130934
0.475937 0.704126 0.526964
0.801702 0.564652 0.196066
0.817907 0.542257 -0.192316
0.696201 0.45766 -0.553038
-0.465213 -0.306627 0.830396
-0.163298 -0.107103 0.980746
0.164659 0.106568 0.980577
0.468736 0.301071 0.830447
0.701286 0.449289 0.553478
0.82509 0.531253 0.192349
0.813238 0.547708 -0.196624
0.490441 0.693638 -0.527574
-0.499712 0.860577 -0.0984679
-0.553212 0.832506 -0.0298433
-0.553217 0.832544 0.0286649
-0.499549 0.860774 0.097566
0.496577 0.688588 0.528449
0.812852 0.548358 0.196405
0.824922 0.53145 -0.19252
0.701492 0.448837 -0.553583
-0.468702 -0.300293 0.830748
-0.164469 -0.104821 0.980797
0.16613 0.103887 0.980616
0.472935 0.293643 0.830727
0.707779 0.438448 0.553906
0.833469 0.517946 0.192514
0.82473 0.530142 -0.1969
0.485307 0.700621 -0.523075
-0.497285 0.864573 -0.0722533
-0.535917 0.843945 -0.0234519
-0.535954 0.843956 0.0221567
-0.497459 0.864588 0.070874
0.498153 0.689574 0.525671
0.82414 0.53114 0.196683
0.833264 0.518215 -0.192676
0.707993 0.43798 -0.554003
-0.472963 -0.292755 0.831024
-0.165917 -0.102131 0.980837
0.167786 0.100902 0.980646
0.477659 0.285312 0.830927
0.715036 0.426123 0.554204
0.84267 0.502794 0.192626
0.836585 0.511133 -0.197153
0.336716 0.813848 -0.473576
-0.489675 0.870256 -0.0536019
-0.518114 0.85512 -0.0181193
-0.518114 0.855141 0.01711
-0.490333 0.870013 0.0514952
0.398597 0.772898 0.493709
0.835596 0.512837 0.196922
0.842473 0.503064 -0.192784
0.715292 0.425572 -0.554298
-0.477737 -0.284333 0.831217
-0.167542 -0.0991766 0.980864
0.169564 0.0976488 0.98067
0.482657 0.276339 0.831071
0.72259 0.412908 0.554411
0.852033 0.486728 0.192709
0.849022 0.490126 -0.197329
-0.15195 0.960225 -0.234262
-0.478156 0.877315 -0.041063
-0.500085 0.865876 -0.0131554
-0.49987 0.865996 0.01346
-0.479318 0.876811 0.0381614
-0.0929928 0.959278 0.266717
0.847501 0.492839 0.197109
0.852076 0.486589 -0.192869
0.722969 0.412124 -0.5545
-0.482765 -0.275322 0.831345
-0.16925 -0.0960752 0.980879
0.171412 0.094155 0.98069
0.487796 0.266764 0.831199
0.730199 0.399011 0.554616
0.860886 0.470835 0.192848
0.860058 0.470504 -0.197296
-0.0303976 0.956329 -0.290707
-0.466923 0.883838 -0.0285258
-0.482296 0.875975 -0.00767144
-0.481503 0.876385 0.0102195
-0.465185 0.884716 0.0296731
-0.322972 0.939571 0.113555
0.860177 0.470324 0.197206
0.861686 0.469333 -0.192937
0.730685 0.398091 -0.554638
-0.487864 -0.265901 0.831436
-0.170989 -0.0928332 0.98089
0.173205 0.0906331 0.980707
0.492939 0.25675 0.831318
0.738007 0.384069 0.55483
0.870373 0.452977 0.193034
0.870664 0.450667 -0.197089
0.703038 0.447492 -0.552711
-0.451831 0.891851 -0.0212244
-0.463402 0.88613 -0.00573224
-0.46334 0.886167 0.00499774
-0.451921 0.891834 0.0199889
-0.220691 0.961064 0.166288
0.870901 0.450193 0.197125
0.870566 0.452598 -0.193052
0.738322 0.383526 -0.554786
-0.493024 -0.255913 0.831526
-0.172803 -0.089283 0.980902
0.175007 0.0869949 0.980716
0.498108 0.246339 0.831388
0.745937 0.368257 0.554946
0.880184 0.433557 0.193143
0.880406 0.431381 -0.196967
0.729547 0.401494 -0.553682
-0.433716 0.900877 -0.0176196
-0.44323 0.896387 -0.00607185
-0.443898 0.896075 0.0021338
-0.434913 0.900344 0.0152159
0.720334 0.418719 0.552985
0.880596 0.431027 0.196893
0.879822 0.434256 -0.193222
0.746029 0.368052 -0.554958
-0.498132 -0.245519 0.831616
-0.174578 -0.0856216 0.980914
0.176891 0.0830938 0.980717
0.503288 0.235505 0.831407
0.753613 0.35223 0.554979
0.888966 0.415234 0.193186
0.888026 0.415482 -0.196937
0.742635 0.376544 -0.553812
-0.418447 0.908189 -0.00969092
-0.42344 0.905917 -0.00370061
-0.423486 0.9059 0.00215152
-0.41635 0.909127 0.0118891
0.743425 0.375191 0.55367
0.889896 0.411542 0.196769
0.88934 0.414372 -0.193316
0.753741 0.351858 -0.555041
-0.503156 -0.234875 0.831665
-0.17626 -0.0819892 0.980923
0.178708 0.0791574 0.980713
0.50828 0.224517 0.83141
0.760933 0.336089 0.555
0.897277 0.396939 0.193216
0.895704 0.398677 -0.196902
0.756169 0.348395 -0.553922
-0.403719 0.914883 -0.00069634
-0.403749 0.914869 -0.000798791
-0.403636 0.914919 0.000230893
-0.401653 0.915788 0.00287906
0.758179 0.344134 0.553838
0.897361 0.394995 0.196778
0.897814 0.395673 -0.19332
0.761128 0.335574 -0.555045
-0.508101 -0.223928 0.831679
-0.17794 -0.0781929 0.98093
0.180401 0.0752878 0.980707
0.513044 0.213424 0.831406
0.768005 0.319582 0.55501
0.9054 0.378044 0.19322
0.902822 0.382293 -0.196887
0.770092 0.316384 -0.553949
-0.388872 0.921254 0.00833268
-0.38369 0.923461 0.00107687
-0.383748 0.923434 -0.00262247
-0.386807 0.92214 -0.00611748
0.77037 0.315815 0.553887
0.904615 0.378073 0.196806
0.905727 0.377219 -0.193297
0.76811 0.319281 -0.555038
-0.512838 -0.212828 0.831686
-0.179595 -0.0742416 0.980935
0.181975 0.0715146 0.980699
0.517546 0.202428 0.831366
0.774826 0.302797 0.55494
0.913749 0.35744 0.19313
0.910894 0.36257 -0.197017
0.785812 0.275467 -0.55373
-0.369507 0.92916 0.0112126
-0.362581 0.931952 0.00080568
-0.363325 0.93165 -0.00481015
-0.371057 0.928506 -0.0139218
0.78025 0.290538 0.553892
0.911069 0.36223 0.196833
0.913365 0.358349 -0.193261
0.774803 0.302704 -0.555023
-0.517356 -0.201627 0.831678
-0.181189 -0.0702401 0.980937
0.183512 0.0676234 0.980689
0.521824 0.191473 0.831287
0.781141 0.286413 0.554784
0.921132 0.338057 0.19296
0.91834 0.343125 -0.197273
-0.400367 0.915391 0.0420298
-0.351238 0.936162 0.0152662
-0.342052 0.939675 0.00337197
-0.341985 0.939698 -0.00384304
-0.351429 0.936071 -0.0164013
0.795209 0.247421 0.553557
0.918654 0.342456 0.196973
0.921205 0.337746 -0.193153
0.781211 0.285952 -0.554924
-0.521596 -0.19064 0.831621
-0.182652 -0.0664553 0.980929
0.184941 0.0637561 0.980679
0.525772 0.180688 0.831214
0.786854 0.270578 0.554661
0.927606 0.319932 0.192847
0.925924 0.322027 -0.197391
-0.372139 0.927473 0.036131
-0.335961 0.941588 0.0233043
-0.322467 0.946546 0.00805972
-0.321616 0.946856 -0.00508587
-0.33446 0.942146 -0.0222898
-0.440535 0.89346 -0.087515
0.925947 0.322064 0.197224
0.928107 0.318407 -0.19296
0.787086 0.269763 -0.554729
-0.525582 -0.179842 0.831517
-0.184046 -0.0627234 0.980914
0.186186 0.0601416 0.980672
0.529342 0.170283 0.831144
0.792157 0.254869 0.554553
0.934101 0.300486 0.192777
0.934231 0.29709 -0.197359
-0.389131 0.919001 0.0633623
-0.318137 0.947629 0.0280887
-0.302109 0.95322 0.0101183
-0.301944 0.953277 -0.00960643
-0.319975 0.946902 -0.0314948
-0.395068 0.916109 -0.0683041
0.933059 0.300774 0.197321
0.934054 0.300606 -0.192818
0.792345 0.254287 -0.554552
-0.529256 -0.169264 0.831407
-0.185387 -0.0589476 0.980896
0.18735 0.0566053 0.980661
0.532655 0.160155 0.831041
0.797058 0.239498 0.554382
0.940046 0.281399 0.192686
0.941385 0.273646 -0.197263
-0.432269 0.895012 0.10999
-0.301939 0.952662 0.0356008
-0.281491 0.959482 0.0124951
-0.281538 0.959459 -0.0131961
-0.303265 0.952142 -0.0381637
-0.433637 0.894163 -0.1115
0.94062 0.276285 0.197231
0.939888 0.281897 -0.19273
0.797158 0.239178 -0.554377
-0.532579 -0.159128 0.831287
-0.186596 -0.0553733 0.980875
0.188464 0.0531446 0.980641
0.53572 0.150436 0.830887
0.801449 0.224957 0.554142
0.945178 0.263721 0.192589
0.947494 0.251821 -0.197084
-0.564132 0.79408 0.226256
-0.290006 0.95573 0.0497731
-0.261268 0.965118 0.016941
-0.261336 0.965084 -0.0178114
-0.290751 0.955414 -0.0514477
-0.563464 0.794582 -0.226157
0.947037 0.253563 0.197046
0.945079 0.264046 -0.192626
0.80153 0.224703 -0.554128
-0.535638 -0.149425 0.831122
-0.187695 -0.0520044 0.98085
0.189503 0.0498978 0.980611
0.5385 0.141422 0.830673
0.805303 0.211585 0.553822
0.949582 0.247478 0.192479
0.952814 0.231112 -0.196806
0.806088 -0.36967 -0.462132
-0.28265 0.956573 0.0712548
-0.241226 0.970202 0.0227854
-0.241339 0.970148 -0.0238475
-0.283125 0.956342 -0.072455
0.795005 -0.40762 0.449236
0.952518 0.23235 0.196783
0.949532 0.247655 -0.192499
0.805389 0.211334 -0.553793
-0.538421 -0.140384 0.8309
-0.188704 -0.0488781 0.980817
0.190451 0.0470238 0.98057
0.540979 0.133512 0.830371
0.808616 0.199822 0.553364
0.953353 0.232671 0.192309
0.957564 0.210873 -0.196479
0.834669 -0.203153 -0.511915
-0.278758 0.95529 0.0985611
-0.220978 0.974846 0.0290676
-0.221188 0.974754 -0.030512
-0.279303 0.955006 -0.0997644
0.83374 -0.210833 0.510321
0.957347 0.211867 0.196468
0.953321 0.232795 -0.192316
0.808709 0.199551 -0.553325
-0.540915 -0.132378 0.830595
-0.189628 -0.0461196 0.980772
0.191298 0.0446506 0.980516
0.543131 0.127146 0.829966
0.811307 0.19048 0.552719
0.95627 0.220622 0.192027
0.961652 0.191715 -0.196139
0.830785 -0.216943 -0.512574
-0.278599 0.95133 0.131731
-0.200826 0.978959 0.0361582
-0.201085 0.978844 -0.0378059
-0.279088 0.95104 -0.13279
0.831373 -0.212015 0.513681
0.961514 0.192412 0.196133
0.956282 0.220564 -0.192029
0.811418 0.190124 -0.552679
-0.543094 -0.125837 0.830189
-0.190464 -0.0438811 0.980713
0.191979 0.0429499 0.980459
0.544823 0.122859 0.829502
0.813241 0.18442 0.551932
0.958202 0.212443 0.191617
0.964982 0.174568 -0.195793
0.823956 -0.247577 -0.509707
-0.279687 0.945447 0.167046
-0.180379 0.982643 0.0433108
-0.180677 0.982509 -0.0450681
-0.280094 0.945176 -0.167896
0.82492 -0.241359 0.511129
0.964894 0.175059 0.19579
0.958261 0.212169 -0.191623
0.813379 0.183912 -0.551898
-0.544837 -0.121256 0.829728
-0.191166 -0.0423331 0.980644
0.192326 0.0420781 0.980429
0.545718 0.121107 0.829171
0.814135 0.18235 0.5513
0.958972 0.209298 0.191225
0.967002 0.1633 -0.195552
0.812458 -0.293555 -0.503723
-0.270837 0.943756 0.189663
-0.156869 0.986456 0.0479322
-0.157167 0.98633 -0.049506
-0.270969 0.943665 -0.189926
0.81327 -0.289633 0.504682
0.96696 0.163565 0.19554
0.959065 0.208853 -0.191245
0.814302 0.181624 -0.551293
-0.545819 -0.119044 0.829403
-0.191605 -0.0416218 0.980589
0.191998 0.0420778 0.980493
0.544939 0.122466 0.829484
0.812763 0.186617 0.551898
0.957056 0.217168 0.192045
0.966143 0.168434 -0.19544
0.750552 -0.474395 -0.460023
-0.21248 0.964653 0.155877
-0.116849 0.992249 0.0422789
-0.116702 0.992305 -0.0413756
-0.209491 0.96605 -0.151198
0.751442 -0.472126 0.460903
0.966218 0.167966 0.195472
0.957253 0.216294 -0.192049
0.812994 0.185387 -0.551971
-0.545213 -0.119617 0.82972
-0.191502 -0.041827 0.980601
0.190792 0.0389963 0.980856
0.542509 0.113315 0.832372
0.811823 0.171433 0.558171
0.959998 0.196726 0.199257
0.969796 0.147753 -0.194074
0.829157 -0.0545154 -0.556352
-0.555815 0.011613 0.831225
-0.19535 0.00115905 0.980733
0.195473 -0.00159803 0.980708
0.555795 -0.0140207 0.831201
0.829096 -0.054311 0.556462
0.969759 0.147831 0.194199
0.960164 0.196059 -0.199114
0.812097 0.170233 -0.558139
-0.543038 -0.110552 0.832399
-0.190509 -0.0388956 0.980915
0.190834 0.0362232 0.980954
0.542666 0.105603 0.833284
0.812725 0.159756 0.560318
0.962499 0.18144 0.201681
0.972095 0.13075 -0.194772
0.826743 -0.00385754 -0.562566
-0.550244 0.00654871 0.834978
-0.192775 0.00107755 0.981242
0.193089 -0.00153485 0.98118
0.550081 -0.0109371 0.83504
0.826647 -0.00367397 0.56271
0.972036 0.131006 0.194895
0.96262 0.181 -0.201499
0.812968 0.158952 -0.560194
-0.543263 -0.103157 0.833201
-0.190537 -0.0362181 0.981012
0.18567 0.0455308 0.981557
0.525988 0.139647 0.838949
0.781185 0.235923 0.578006
0.916458 0.319768 0.240527
0.975056 0.0777547 -0.207896
0.798435 -0.129845 -0.587913
-0.536962 0.0518532 0.842011
-0.188457 0.0147022 0.981971
0.188603 -0.0142933 0.981949
0.535231 -0.0622843 0.842407
0.798475 -0.129288 0.587982
0.974921 0.0818174 0.206966
0.916943 0.318603 -0.240225
0.781865 0.234198 -0.577788
-0.529614 -0.130483 0.838143
-0.185753 -0.0452403 0.981554
0.00777316 0.0074296 0.999942
0.00257188 0.000343963 0.999997
</DataArray>
<DataArray type="Float64" Name="cell vector length" format="ascii">
0.164611 0.151276 0.141565 0.112857 0.0719657 0.150555 0.204816 0.192453 0.188702 0.198551 0.152031 0.0718327 0.112032 0.139346 0.169691 0.173107 0.406465 0.380529 0.347661 0.308271 0.275708 0.322869 0.408592 0.44192 0.436578 0.3941 0.320809 0.275758 0.309225 0.350642 0.401187 0.41393 0.509617 0.48335 0.44439 0.393193 0.33839 0.399916 0.509801 0.553265 0.549457 0.498877 0.398274 0.338805 0.394399 0.44661 0.499486 0.514968 0.53884 0.510464 0.465187 0.401097 0.312673 0.153503 0.171336 0.269851 0.270382 0.17352 0.154058 0.313275 0.402268 0.466952 0.52505 0.543497 0.556721 0.525462 0.472209 0.392469 0.274203 0.110381 0.160254 0.26039 0.25997 0.15907 0.110817 0.275087 0.393676 0.473674 0.539157 0.560951 0.569456 0.535146 0.473998 0.379964 0.242446 0.0752723 0.147686 0.245837 0.245439 0.146533 0.0759634 0.243645 0.381245 0.475267 0.548307 0.573433 0.578832 0.54192 0.474338 0.369451 0.220177 0.0510864 0.139344 0.233764 0.233411 0.138264 0.0518718 0.221556 0.370757 0.475453 0.554755 0.582658 0.585642 0.546681 0.474204 0.361476 0.204822 0.0343998 0.13438 0.224382 0.224058 0.13332 0.0352948 0.206315 0.362771 0.475184 0.55932 0.589378 0.59052 0.550008 0.473928 0.355598 0.194027 0.0215537 0.131729 0.217331 0.217051 0.130662 0.0227707 0.195623 0.356834 0.474776 0.562539 0.594208 0.593937 0.552296 0.473679 0.351399 0.185528 0.0104465 0.13052 0.21211 0.211946 0.129488 0.0116656 0.187274 0.352484 0.474406 0.564811 0.59762 0.596229 0.553769 0.473478 0.348668 0.179403 0.00885433 0.129985 0.208128 0.20822 0.129466 0.00788875 0.180911 0.349483 0.474184 0.566406 0.599961 0.59772 0.554636 0.473182 0.346898 0.175201 0.00573549 0.129713 0.205415 0.205461 0.12904 0.0114618 0.177064 0.3477 0.474068 0.567482 0.601522 0.598666 0.555101 0.472827 0.345894 0.179534 0.024401 0.126059 0.203731 0.203584 0.128822 0.00604023 0.174034 0.346703 0.473897 0.568145 0.602534 0.599194 0.555308 0.472603 0.345368 0.177469 0.0310683 0.125871 0.202518 0.202574 0.125163 0.0240076 0.179496 0.346277 0.473676 0.568514 0.60313 0.599416 0.55535 0.472448 0.345022 0.176406 0.0302351 0.125551 0.201835 0.201962 0.125345 0.0313164 0.177879 0.346153 0.473569 0.568685 0.603401 0.599456 0.555243 0.472133 0.34445 0.175604 0.0296887 0.125793 0.201816 0.20163 0.125026 0.0308611 0.177279 0.346134 0.473505 0.568736 0.603482 0.599384 0.555022 0.471654 0.343621 0.175091 0.0295481 0.126436 0.202354 0.201828 0.125044 0.030883 0.176977 0.345857 0.473264 0.568664 0.603449 0.599156 0.554712 0.47123 0.342875 0.175638 0.0208052 0.126647 0.203135 0.202676 0.125756 0.0310332 0.176873 0.345288 0.472849 0.568455 0.603262 0.598668 0.554251 0.470909 0.342313 0.168383 0.0115883 0.130981 0.204203 0.203955 0.12631 0.0223917 0.177792 0.344828 0.4725 0.568118 0.60283 0.597858 0.553559 0.470519 0.342158 0.169909 0.019985 0.131644 0.205971 0.205521 0.130798 0.0101209 0.171114 0.344674 0.472276 0.567592 0.602076 0.596614 0.552541 0.470116 0.342684 0.171819 0.0185731 0.13249 0.208333 0.207846 0.131346 0.017588 0.173613 0.345105 0.472002 0.566772 0.600906 0.594737 0.551121 0.469899 0.344361 0.175231 0.0160776 0.132995 0.211378 0.211174 0.132391 0.015357 0.176775 0.346401 0.471707 0.565498 0.599102 0.592019 0.549177 0.469847 0.347201 0.180214 0.0123895 0.134006 0.215581 0.215474 0.133456 0.012076 0.181753 0.349 0.471511 0.563628 0.59643 0.588186 0.546478 0.469855 0.351375 0.188881 0.0150058 0.135183 0.221284 0.221175 0.134764 0.0142284 0.189977 0.353019 0.471401 0.561011 0.592648 0.582826 0.542701 0.469875 0.357277 0.200602 0.0294838 0.13787 0.228925 0.228799 0.137294 0.0284499 0.201783 0.358794 0.471331 0.557374 0.587369 0.575348 0.537366 0.469764 0.365407 0.215537 0.045259 0.143901 0.23911 0.238949 0.143105 0.0449673 0.216803 0.366787 0.471159 0.552275 0.580022 0.564796 0.529542 0.468769 0.37576 0.237565 0.0683172 0.154158 0.252825 0.252608 0.153192 0.0682344 0.238657 0.376984 0.470145 0.544836 0.569679 0.548311 0.515952 0.462968 0.384236 0.265119 0.101316 0.173039 0.273044 0.272841 0.172079 0.101046 0.265876 0.385256 0.464372 0.531907 0.553528 0.509466 0.478089 0.430063 0.363432 0.272257 0.123484 0.221335 0.318691 0.319842 0.22514 0.12345 0.272781 0.364304 0.431569 0.495562 0.515316 0.48506 0.453917 0.407953 0.349193 0.288081 0.359259 0.486575 0.533917 0.528298 0.470684 0.357131 0.288558 0.350102 0.409549 0.47236 0.491225 0.448615 0.417073 0.371667 0.318452 0.279337 0.327754 0.435014 0.478734 0.471525 0.414131 0.325703 0.279603 0.319256 0.373245 0.436205 0.455015 0.20204 0.169394 0.121083 0.067019 0.0410701 0.123272 0.249972 0.309678 0.303998 0.232739 0.12369 0.0418888 0.0674008 0.120318 0.188569 0.207986 0.0565233 0.0152124 
</DataArray>
<DataArray type="Float64" Name="cell variable 4" format="ascii">
862.099 854.551 853.851 849.45 839.129 874.689 881.131 864.87 861.625 872.86 875.22 838.983 848.835 851.384 868.621 867.184 1096.71 1077.51 1066.67 1059.68 1055.67 1079.38 1113.31 1107.48 1101.31 1094.3 1079.37 1055.63 1059.51 1066.82 1105.95 1106.3 1295.55 1273.17 1258.95 1248.93 1242.53 1274.36 1312.07 1312.48 1306.24 1292.39 1274.58 1242.77 1249.03 1259.11 1306.75 1306.34 1336.67 1312.37 1295.94 1284.59 1276.12 1328.04 1566.45 1796.32 1794.58 1562.77 1327.4 1276.05 1284.5 1296.01 1346.83 1347.71 1345.32 1320.93 1305.13 1296.4 1292.16 1328.79 1549.08 1761.49 1760.27 1546.64 1327.85 1291.98 1296.29 1305.18 1355.53 1356.37 1348.33 1322.93 1305.56 1295.7 1291.13 1319.9 1535.75 1730.41 1729.47 1533.76 1319.14 1291.08 1295.68 1305.62 1357.54 1359.37 1350.34 1323.8 1304.72 1293.55 1288.65 1313.82 1527.77 1706.22 1705.45 1526.04 1313.06 1288.63 1293.56 1304.78 1358.48 1361.39 1351.86 1324.39 1303.91 1291.66 1286.46 1309.66 1523.43 1688.16 1687.51 1521.86 1308.95 1286.45 1291.66 1303.95 1359.19 1362.97 1353.02 1324.8 1303.25 1290.19 1284.72 1305.11 1521.47 1675.11 1674.55 1519.94 1304.66 1284.68 1290.15 1303.28 1359.81 1364.22 1353.82 1325 1302.71 1289.22 1283.62 1299.63 1521.2 1665.78 1665.36 1519.55 1299.01 1283.45 1289.13 1302.8 1360.33 1365.17 1354.31 1324.97 1302.21 1288.62 1283.32 1300.36 1521.95 1658.72 1658.6 1520.48 1297.51 1282.7 1288.54 1302.47 1360.7 1365.82 1354.78 1325.01 1301.81 1287.88 1282.57 1305.95 1521.78 1653.41 1653.7 1521.06 1301.31 1282.66 1288.18 1302.1 1360.93 1366.35 1355.31 1325.19 1301.52 1286.91 1281 1323.31 1514.32 1649.78 1650.36 1521.47 1306.09 1282.2 1287.55 1301.71 1361.22 1366.94 1355.66 1325.12 1301.15 1286.41 1280.68 1336.09 1514.57 1647.54 1647.9 1513.89 1322.88 1280.75 1286.68 1301.44 1361.62 1367.49 1355.77 1324.91 1300.84 1286.32 1280.95 1337.14 1514.84 1646.16 1646.22 1514.08 1335.98 1280.39 1286.24 1301.09 1361.74 1367.75 1355.77 1324.77 1300.66 1286.12 1280.64 1337.07 1515 1645.8 1645.61 1514.37 1337 1280.65 1286.11 1300.69 1361.61 1367.77 1355.7 1324.66 1300.54 1285.75 1279.76 1336.05 1515.24 1646.77 1646.28 1514.66 1337.13 1280.33 1285.81 1300.33 1361.49 1367.7 1355.39 1324.31 1300.36 1285.72 1279.55 1321.94 1515.74 1648.81 1647.99 1515.01 1336.04 1279.39 1285.38 1300.11 1361.43 1367.53 1354.8 1323.7 1300.09 1286.1 1280.49 1311.01 1524.6 1651.47 1650.41 1515.38 1321.49 1279.12 1285.39 1299.96 1361.22 1367.11 1354.17 1323.21 1299.94 1286.18 1280.33 1307.69 1524.98 1654.72 1653.97 1524.45 1308.21 1280.15 1285.87 1299.72 1360.74 1366.5 1353.58 1322.77 1299.77 1286.01 1279.76 1304.43 1525.28 1659.06 1658.74 1525.22 1304.07 1280.24 1286.09 1299.61 1360.4 1365.95 1352.89 1322.17 1299.52 1286.12 1280.07 1301.03 1525.81 1664.7 1664.67 1525.82 1299.97 1280.01 1286.17 1299.56 1360.14 1365.4 1352.06 1321.53 1299.39 1286.49 1280.63 1297.65 1526.64 1672.16 1672.25 1526.61 1296.2 1280.52 1286.53 1299.49 1359.74 1364.68 1351.05 1320.88 1299.45 1287.07 1281.11 1297.53 1526.6 1682.46 1682.59 1526.95 1295.59 1281.1 1287.13 1299.56 1359.25 1363.74 1349.74 1320.15 1299.71 1288.07 1281.99 1303.09 1528.1 1696.68 1696.76 1528.19 1300.78 1281.99 1288.13 1299.83 1358.64 1362.49 1347.89 1319.12 1300.07 1289.57 1283.53 1306.42 1533.84 1716.12 1716.06 1533.45 1304.8 1283.47 1289.6 1300.19 1357.71 1360.7 1344.57 1316.84 1299.42 1290.19 1284.18 1309.45 1543.36 1742.26 1741.99 1542.61 1308.26 1284.12 1290.2 1299.51 1355.43 1357.39 1332.97 1305.88 1289.3 1280.52 1274.29 1311.57 1558.24 1776.42 1775.88 1557.08 1310.3 1274.1 1280.44 1289.34 1344.15 1345.72 1267.21 1239.67 1220.33 1206.72 1195.1 1264.14 1581.31 1824.5 1823.48 1579.26 1263.4 1195.03 1206.64 1220.26 1275.74 1279.27 1214.07 1187.63 1168.75 1155.12 1145.22 1175.72 1227.45 1234.22 1225.66 1201.99 1175.87 1145.5 1155.29 1168.81 1222.26 1225.65 1098.37 1072.61 1052.12 1035.85 1023.66 1037.17 1088.05 1090.4 1079.96 1057.42 1036.92 1023.81 1035.99 1052.47 1103.7 1108.94 766.483 757.391 755.981 760.36 766.662 796.233 848.918 865.743 859.532 829.643 797.639 766.984 760.221 754.483 776.086 772.194 618.31 745.326 
</DataArray>
<DataArray type="Float64" Name="cell variable 5" format="ascii">
0.00259695 0.00259695 0.00259695 0.00259695 0.00259695 0.00259695 0.00259695 0.00259695 0.00259695 0.00259695 0.00259695 0.00259695 0.00259695 0.00259695 0.00259695 0.00259695 0.00259695 0.00259695 0.00259695 0.00259695 0.00259695 0.00259695 0.00259695 0.00259695 0.00259695 0.00259695 0.00259695 0.00259695 0.00259695 0.00259695 0.00259695 0.00259695 0.00259695 0.00259695 0.00259695 0.00259695 0.00259695 0.00259695 0.00259695 0.00259695 0.00259695 0.00259695 0.00259695 0.00259695 0.00259695 0.00259695 0.00259695 0.00259695 0.00392486 0.00363343 0.00316309 0.00271468 0.00259695 0.00259695 0.00259695 0.00259695 0.00259695 0.00259695 0.00259695 0.00259695 0.00271468 0.00316309 0.00363343 0.00392486 0.00444079 0.00403624 0.00338297 0.00276027 0.00259695 0.00259695 0.00259695 0.00259695 0.00259695 0.00259695 0.00259695 0.00259695 0.00276027 0.00338297 0.00403624 0.00444079 0.00473973 0.00426997 0.00351051 0.00278682 0.00259695 0.00259695 0.00259695 0.00259695 0.00259695 0.00259695 0.00259695 0.00259695 0.00278682 0.00351051 0.00426997 0.00473973 0.0049573 0.00443906 0.00360342 0.00280644 0.00259695 0.00259695 0.00259695 0.00259695 0.00259695 0.00259695 0.00259695 0.00259695 0.00280644 0.00360342 0.00443906 0.0049573 0.00512696 0.00457179 0.00367556 0.00282145 0.00259695 0.00259695 0.00259695 0.00259695 0.00259695 0.00259695 0.00259695 0.00259695 0.00282145 0.00367556 0.00457179 0.00512696 0.00526374 0.00467856 0.00373384 0.00283357 0.00259695 0.00259695 0.00259695 0.00259695 0.00259695 0.00259695 0.00259695 0.00259695 0.00283357 0.00373384 0.00467856 0.00526374 0.0053757 0.0047657 0.00378174 0.00284338 0.00259695 0.00259695 0.00259695 0.00259695 0.00259695 0.00259695 0.00259695 0.00259695 0.00284338 0.00378174 0.0047657 0.0053757 0.0054663 0.00483668 0.00382041 0.00285146 0.00259695 0.00259695 0.00259695 0.00259695 0.00259695 0.00259695 0.00259695 0.00259695 0.00285146 0.00382041 0.00483668 0.0054663 0.00553902 0.00489382 0.00385157 0.0028578 0.00259695 0.00259695 0.00259695 0.00259695 0.00259695 0.00259695 0.00259695 0.00259695 0.0028578 0.00385157 0.00489382 0.00553902 0.00559557 0.00493768 0.00387523 0.002863 0.00259695 0.00259695 0.00259695 0.00259695 0.00259695 0.00259695 0.00259695 0.00259695 0.002863 0.00387523 0.00493768 0.00559557 0.00563712 0.00496999 0.00389312 0.00286646 0.00259695 0.00259695 0.00259695 0.00259695 0.00259695 0.00259695 0.00259695 0.00259695 0.00286646 0.00389312 0.00496999 0.00563712 0.00566482 0.00499135 0.00390467 0.00286935 0.00259695 0.00259695 0.00259695 0.00259695 0.00259695 0.00259695 0.00259695 0.00259695 0.00286935 0.00390467 0.00499135 0.00566482 0.0056781 0.00500231 0.00391044 0.0028705 0.00259695 0.00259695 0.00259695 0.00259695 0.00259695 0.00259695 0.00259695 0.00259695 0.0028705 0.00391044 0.00500231 0.0056781 0.0056781 0.00500231 0.00391044 0.0028705 0.00259695 0.00259695 0.00259695 0.00259695 0.00259695 0.00259695 0.00259695 0.00259695 0.0028705 0.00391044 0.00500231 0.0056781 0.00566482 0.00499135 0.00390467 0.00286935 0.00259695 0.00259695 0.00259695 0.00259695 0.00259695 0.00259695 0.00259695 0.00259695 0.00286935 0.00390467 0.00499135 0.00566482 0.00563712 0.00496999 0.00389312 0.00286646 0.00259695 0.00259695 0.00259695 0.00259695 0.00259695 0.00259695 0.00259695 0.00259695 0.00286646 0.00389312 0.00496999 0.00563712 0.00559557 0.00493768 0.00387523 0.002863 0.00259695 0.00259695 0.00259695 0.00259695 0.00259695 0.00259695 0.00259695 0.00259695 0.002863 0.00387523 0.00493768 0.00559557 0.00553902 0.00489382 0.00385157 0.0028578 0.00259695 0.00259695 0.00259695 0.00259695 0.00259695 0.00259695 0.00259695 0.00259695 0.0028578 0.00385157 0.00489382 0.00553902 0.0054663 0.00483668 0.00382041 0.00285146 0.00259695 0.00259695 0.00259695 0.00259695 0.00259695 0.00259695 0.00259695 0.00259695 0.00285146 0.00382041 0.00483668 0.0054663 0.0053757 0.0047657 0.00378174 0.00284338 0.00259695 0.00259695 0.00259695 0.00259695 0.00259695 0.00259695 0.00259695 0.00259695 0.00284338 0.00378174 0.0047657 0.0053757 0.00526374 0.00467856 0.00373384 0.00283357 0.00259695 0.00259695 0.00259695 0.00259695 0.00259695 0.00259695 0.00259695 0.00259695 0.00283357 0.00373384 0.00467856 0.00526374 0.00512696 0.00457179 0.00367556 0.00282145 0.00259695 0.00259695 0.00259695 0.00259695 0.00259695 0.00259695 0.00259695 0.00259695 0.00282145 0.00367556 0.00457179 0.00512696 0.0049573 0.00443906 0.00360342 0.00280644 0.00259695 0.00259695 0.00259695 0.00259695 0.00259695 0.00259695 0.00259695 0.00259695 0.00280644 0.00360342 0.00443906 0.0049573 0.00473973 0.00426997 0.00351051 0.00278682 0.00259695 0.00259695 0.00259695 0.00259695 0.00259695 0.00259695 0.00259695 0.00259695 0.00278682 0.00351051 0.00426997 0.00473973 0.00444079 0.00403624 0.00338297 0.00276027 0.00259695 0.00259695 0.00259695 0.00259695 0.00259695 0.00259695 0.00259695 0.00259695 0.00276027 0.00338297 0.00403624 0.00444079 0.00392486 0.00363343 0.00316309 0.00271468 0.00259695 0.00259695 0.00259695 0.00259695 0.00259695 0.00259695 0.00259695 0.00259695 0.00271468 0.00316309 0.00363343 0.00392486 0.00259695 0.00259695 0.00259695 0.00259695 0.00259695 0.00259695 0.00259695 0.00259695 0.00259695 0.00259695 0.00259695 0.00259695 0.00259695 0.00259695 0.00259695 0.00259695 0.00259695 0.00259695 0.00259695 0.00259695 0.00259695 0.00259695 0.00259695 0.00259695 0.00259695 0.00259695 0.00259695 0.00259695 0.00259695 0.00259695 0.00259695 0.00259695 0.00259695 0.00259695 0.00259695 0.00259695 0.00259695 0.00259695 0.00259695 0.00259695 0.00259695 0.00259695 0.00259695 0.00259695 0.00259695 0.00259695 0.00259695 0.00259695 0.00259695 0.00259695 
</DataArray>
<DataArray type="Float64" Name="cell variable 6" format="ascii">
1 1 1 1 1 1 1 1 1 1 1 1 1 1 1 1 1 1 1 1 1 1 1 1 1 1 1 1 1 1 1 1 1 1 1 1 1 1 1 1 1 1 1 1 1 1 1 1 1 1 1 1 1 1 1 1 1 1 1 1 1 1 1 1 1 1 1 1 1 1 1 1 1 1 1 1 1 1 1 1 1 1 1 1 1 1 1 1 1 1 1 1 1 1 1 1 1 1 1 1 1 1 1 1 1 1 1 1 1 1 1 1 1 1 1 1 1 1 1 1 1 1 1 1 1 1 1 1 1 1 1 1 1 1 1 1 1 1 1 1 1 1 1 1 1 1 1 1 1 1 1 1 1 1 1 1 1 1 1 1 1 1 1 1 1 1 1 1 1 1 1 1 1 1 1 1 1 1 1 1 1 1 1 1 1 1 1 1 1 1 1 1 1 1 1 1 1 1 1 1 1 1 1 1 1 1 1 1 1 1 1 1 1 1 1 1 1 1 1 1 1 1 1 1 1 1 1 1 1 1 1 1 1 1 1 1 1 1 1 1 1 1 1 1 1 1 1 1 1 1 1 1 1 1 1 1 1 1 1 1 1 1 1 1 1 1 1 1 1 1 1 1 1 1 1 1 1 1 1 1 1 1 1 1 1 1 1 1 1 1 1 1 1 1 1 1 1 1 1 1 1 1 1 1 1 1 1 1 1 1 1 1 1 1 1 1 1 1 1 1 1 1 1 1 1 1 1 1 1 1 1 1 1 1 1 1 1 1 1 1 1 1 1 1 1 1 1 1 1 1 1 1 1 1 1 1 1 1 1 1 1 1 1 1 1 1 1 1 1 1 1 1 1 1 1 1 1 1 1 1 1 1 1 1 1 1 1 1 1 1 1 1 1 1 1 1 1 1 1 1 1 1 1 1 1 1 1 1 1 1 1 1 1 1 1 1 1 1 1 1 1 1 1 1 1 1 1 1 1 1 1 1 1 1 1 1 1 1 1 1 1 1 1 1 1 1 1 1 1 1 1 1 1 1 1 1 1 1 1 1 1 1 1 1 1 1 1 1 1 1 1 1 1 1 1 1 1 1 1 1 1 1 1 1 1 1 1 1 1 1 1 1 1 1 1 1 1 1 1 1 1 1 1 1 1 1 1 1 1 1 1 1 1 1 
</DataArray>
<DataArray type="Float64" Name="cell variable 7" format="ascii">
0 0 0 0 0 0 0 0 0 0 0 0 0 0 0 0 0 0 0 0 0 0 0 0 0 0 0 0 0 0 0 0 0 0 0 0 0 0 0 0 0 0 0 0 0 0 0 0 0 0 0 0 0 0 0 0 0 0 0 0 0 0 0 0 0 0 0 0 0 0 0 0 0 0 0 0 0 0 0 0 0 0 0 0 0 0 0 0 0 0 0 0 0 0 0 0 0 0 0 0 0 0 0 0 0 0 0 0 0 0 0 0 0 0 0 0 0 0 0 0 0 0 0 0 0 0 0 0 0 0 0 0 0 0 0 0 0 0 0 0 0 0 0 0 0 0 0 0 0 0 0 0 0 0 0 0 0 0 0 0 0 0 0 0 0 0 0 0 0 0 0 0 0 0 0 0 0 0 0 0 0 0 0 0 0 0 0 0 0 0 0 0 0 0 0 0 0 0 0 0 0 0 0 0 0 0 0 0 0 0 0 0 0 0 0 0 0 0 0 0 0 0 0 0 0 0 0 0 0 0 0 0 0 0 0 0 0 0 0 0 0 0 0 0 0 0 0 0 0 0 0 0 0 0 0 0 0 0 0 0 0 0 0 0 0 0 0 0 0 0 0 0 0 0 0 0 0 0 0 0 0 0 0 0 0 0 0 0 0 0 0 0 0 0 0 0 0 0 0 0 0 0 0 0 0 0 0 0 0 0 0 0 0 0 0 0 0 0 0 0 0 0 0 0 0 0 0 0 0 0 0 0 0 0 0 0 0 0 0 0 0 0 0 0 0 0 0 0 0 0 0 0 0 0 0 0 0 0 0 0 0 0 0 0 0 0 0 0 0 0 0 0 0 0 0 0 0 0 0 0 0 0 0 0 0 0 0 0 0 0 0 0 0 0 0 0 0 0 0 0 0 0 0 0 0 0 0 0 0 0 0 0 0 0 0 0 0 0 0 0 0 0 0 0 0 0 0 0 0 0 0 0 0 0 0 0 0 0 0 0 0 0 0 0 0 0 0 0 0 0 0 0 0 0 0 0 0 0 0 0 0 0 0 0 0 0 0 0 0 0 0 0 0 0 0 0 0 0 0 0 0 0 0 0 0 0 0 0 0 0 0 0 0 0 0 0 0 0 0 0 0 0 0 0 0 0 0 0 0 0 0 0 1 1 
</DataArray>
<DataArray type="Float64" Name="cell variable 8" format="ascii">
11.25 33.75 56.25 78.75 101.25 123.75 146.25 168.75 191.25 213.75 236.25 258.75 281.25 303.75 326.25 348.75 11.25 33.75 56.25 78.75 101.25 123.75 146.25 168.75 191.25 213.75 236.25 258.75 281.25 303.75 326.25 348.75 11.25 33.75 56.25 78.75 101.25 123.75 146.25 168.75 191.25 213.75 236.25 258.75 281.25 303.75 326.25 348.75 11.25 33.75 56.25 78.75 101.25 123.75 146.25 168.75 191.25 213.75 236.25 258.75 281.25 303.75 326.25 348.75 11.25 33.75 56.25 78.75 101.25 123.75 146.25 168.75 191.25 213.75 236.25 258.75 281.25 303.75 326.25 348.75 11.25 33.75 56.25 78.75 101.25 123.75 146.25 168.75 191.25 213.75 236.25 258.75 281.25 303.75 326.25 348.75 11.25 33.75 56.25 78.75 101.25 123.75 146.25 168.75 191.25 213.75 236.25 258.75 281.25 303.75 326.25 348.75 11.25 33.75 56.25 78.75 101.25 123.75 146.25 168.75 191.25 213.75 236.25 258.75 281.25 303.75 326.25 348.75 11.25 33.75 56.25 78.75 101.25 123.75 146.25 168.75 191.25 213.75 236.25 258.75 281.25 303.75 326.25 348.75 11.25 33.75 56.25 78.75 101.25 123.75 146.25 168.75 191.25 213.75 236.25 258.75 281.25 303.75 326.25 348.75 11.25 33.75 56.25 78.75 101.25 123.75 146.25 168.75 191.25 213.75 236.25 258.75 281.25 303.75 326.25 348.75 11.25 33.75 56.25 78.75 101.25 123.75 146.25 168.75 191.25 213.75 236.25 258.75 281.25 303.75 326.25 348.75 11.25 33.75 56.25 78.75 101.25 123.75 146.25 168.75 191.25 213.75 236.25 258.75 281.25 303.75 326.25 348.75 11.25 33.75 56.25 78.75 101.25 123.75 146.25 168.75 191.25 213.75 236.25 258.75 281.25 303.75 326.25 348.75 11.25 33.75 56.25 78.75 101.25 123.75 146.25 168.75 191.25 213.75 236.25 258.75 281.25 303.75 326.25 348.75 11.25 33.75 56.25 78.75 101.25 123.75 146.25 168.75 191.25 213.75 236.25 258.75 281.25 303.75 326.25 348.75 11.25 33.75 56.25 78.75 101.25 123.75 146.25 168.75 191.25 213.75 236.25 258.75 281.25 303.75 326.25 348.75 11.25 33.75 56.25 78.75 101.25 123.75 146.25 168.75 191.25 213.75 236.25 258.75 281.25 303.75 326.25 348.75 11.25 33.75 56.25 78.75 101.25 123.75 146.25 168.75 191.25 213.75 236.25 258.75 281.25 303.75 326.25 348.75 11.25 33.75 56.25 78.75 101.25 123.75 146.25 168.75 191.25 213.75 236.25 258.75 281.25 303.75 326.25 348.75 11.25 33.75 56.25 78.75 101.25 123.75 146.25 168.75 191.25 213.75 236.25 258.75 281.25 303.75 326.25 348.75 11.25 33.75 56.25 78.75 101.25 123.75 146.25 168.75 191.25 213.75 236.25 258.75 281.25 303.75 326.25 348.75 11.25 33.75 56.25 78.75 101.25 123.75 146.25 168.75 191.25 213.75 236.25 258.75 281.25 303.75 326.25 348.75 11.25 33.75 56.25 78.75 101.25 123.75 146.25 168.75 191.25 213.75 236.25 258.75 281.25 303.75 326.25 348.75 11.25 33.75 56.25 78.75 101.25 123.75 146.25 168.75 191.25 213.75 236.25 258.75 281.25 303.75 326.25 348.75 11.25 33.75 56.25 78.75 101.25 123.75 146.25 168.75 191.25 213.75 236.25 258.75 281.25 303.75 326.25 348.75 11.25 33.75 56.25 78.75 101.25 123.75 146.25 168.75 191.25 213.75 236.25 258.75 281.25 303.75 326.25 348.75 11.25 33.75 56.25 78.75 101.25 123.75 146.25 168.75 191.25 213.75 236.25 258.75 281.25 303.75 326.25 348.75 11.25 33.75 56.25 78.75 101.25 123.75 146.25 168.75 191.25 213.75 236.25 258.75 281.25 303.75 326.25 348.75 11.25 33.75 56.25 78.75 101.25 123.75 146.25 168.75 191.25 213.75 236.25 258.75 281.25 303.75 326.25 348.75 11.25 33.75 56.25 78.75 101.25 123.75 146.25 168.75 191.25 213.75 236.25 258.75 281.25 303.75 326.25 348.75 11.25 33.75 56.25 78.75 101.25 123.75 146.25 168.75 191.25 213.75 236.25 258.75 281.25 303.75 326.25 348.75 0 0 
</DataArray>
</CellData>
</Piece>
</UnstructuredGrid>
</VTKFile>
