<VTKFile type="UnstructuredGrid" version="0.1">
<UnstructuredGrid>
<Piece  NumberOfPoints="    2080" NumberOfCells="     514">
<Points>
<DataArray type="Float64" NumberOfComponents="3" format="ascii">
-77.8738 966.31 1.65667
-74.0594 969.696 27.4144
-59.8434 945.554 29.5389
-64.0074 941.895 1.67126
-73.2025 970.447 30.1678
-62.2392 980.034 52.0097
-47.0974 956.685 55.881
-58.9865 946.305 32.2922
-60.6494 981.415 54.1152
-44.1532 995.693 68.6939
-27.6646 973.511 73.7219
-45.5076 958.066 57.9866
-42.0702 997.49 69.8316
-22.5827 1014.28 74.9284
-4.49211 993.445 80.3699
-25.5815 975.308 74.8595
-20.3281 1016.23 74.9263
-0.85805 1033.02 69.7846
18.8245 1013.55 74.8336
-2.23753 995.387 80.3679
1.21981 1034.82 68.6461
17.6543 1049.15 54.0791
38.6878 1030.9 57.9727
20.9023 1015.35 73.6951
19.2361 1050.55 51.976
30.1435 1060.29 30.1802
52.0442 1042.91 32.2738
40.2696 1032.3 55.8696
30.9939 1061.06 27.4272
34.8022 1064.54 1.67082
56.9925 1047.46 1.65033
52.8947 1043.67 29.5207
34.8012 1064.54 -1.31177
30.9749 1061.1 -27.0724
52.8788 1043.72 -29.1992
56.9915 1047.46 -1.33226
30.1232 1060.34 -29.8252
19.2079 1050.61 -51.6283
40.2535 1032.37 -55.5346
52.0271 1042.95 -31.952
17.6265 1049.22 -53.7314
1.19891 1034.88 -68.3009
20.8913 1015.42 -73.3643
38.6722 1030.98 -57.6377
-0.878167 1033.07 -69.44
-20.3398 1016.28 -74.5858
-2.23775 995.452 -80.0471
18.8143 1013.62 -74.5034
-22.5932 1014.33 -74.5885
-42.0704 997.524 -69.4964
-25.566 975.355 -74.5476
-4.49117 993.509 -80.0498
-44.1509 995.724 -68.3591
-60.6082 981.41 -53.7749
-45.4729 958.095 -57.6726
-27.6465 973.555 -73.4103
-62.1964 980.025 -51.6683
-73.1483 970.424 -29.8314
-58.9631 946.309 -31.9435
-47.0611 956.71 -55.566
-74.0075 969.673 -27.0764
-77.8719 966.31 -1.32492
-64.0055 941.895 -1.31033
-59.8223 945.558 -29.1885
-62.1397 939.18 1.746
-57.9757 942.839 29.6136
-38.1742 917.94 30.2146
-42.4411 914.207 1.73915
-45.1841 954.007 56.0927
-25.1116 929.305 57.2086
-37.2718 918.728 33.1048
-57.0733 943.626 32.5038
-25.6703 970.9 74.037
-5.19296 946.478 75.5092
-23.4407 930.753 59.4177
-43.5133 955.455 58.3017
-2.39294 990.919 80.7414
18.5685 966.825 82.3564
-3.00507 948.361 76.7032
-23.4824 972.782 75.231
21.0376 1011.11 75.2065
42.4803 987.359 76.7138
20.9371 968.86 82.3557
-0.0243871 992.954 80.7407
41.0024 1028.56 58.2913
62.7619 1005.18 59.4576
44.6595 989.251 75.5211
23.2169 1013.01 74.0137
54.4296 1040.64 32.4882
76.257 1017.63 33.099
64.4146 1006.65 57.2503
42.655 1030.03 56.084
59.4124 1045.24 1.72415
81.2448 1022.35 1.70759
77.142 1018.44 30.2054
55.3146 1041.45 29.5945
55.2988 1041.5 -29.2767
77.1246 1018.47 -29.9123
81.2438 1022.35 -1.42634
59.4115 1045.24 -1.40978
42.6395 1030.11 -55.7511
64.406 1006.72 -56.9259
76.2389 1017.66 -32.8041
54.4131 1040.69 -32.1686
23.2068 1013.08 -73.6843
44.6545 989.327 -75.2064
62.7541 1005.25 -59.1324
40.9876 1028.64 -57.9576
-0.0237749 993.02 -80.4217
20.9397 968.931 -82.0524
42.4759 987.435 -76.4001
21.0282 1011.19 -74.878
-23.466 972.83 -74.9212
-2.99164 948.415 -76.4096
18.5723 966.894 -82.0541
-2.39116 990.984 -80.4234
-43.479 955.485 -57.99
-23.4185 930.79 -59.1315
-5.17822 946.531 -75.2162
-25.6526 970.945 -73.7278
-57.052 943.633 -32.1565
-37.2684 918.734 -32.7765
-25.0896 929.339 -56.9204
-45.1501 954.034 -55.779
-57.9559 942.843 -29.2634
-62.1391 939.18 -1.38523
-42.4405 914.207 -1.39207
-38.1723 917.945 -29.8833
-40.1923 911.476 1.75786
-35.9254 915.209 30.2333
-15.1045 890.882 30.3325
-19.3928 887.129 1.74688
-35.0103 916.005 33.16
-22.8501 926.582 57.2638
-1.96447 902.295 57.4511
-14.1894 891.679 33.2592
-21.1551 928.046 59.5009
-2.90737 943.77 75.5924
18.0999 919.507 75.8259
-0.269513 903.758 59.6882
-0.686413 945.67 76.8015
20.8872 964.135 82.4547
42.0607 939.858 82.6844
20.3208 921.407 77.035
23.2922 966.187 82.4535
44.8354 984.686 76.8116
66.1811 960.367 77.0027
44.4657 941.91 82.6831
47.0402 986.599 75.6041
65.1426 1002.53 59.5406
86.4807 978.335 59.6695
68.3858 962.28 75.7951
66.7994 1004.03 57.3075
78.6418 1015.01 33.1561
99.7917 991.197 33.2479
88.1375 979.843 57.4364
79.5226 1015.85 30.225
83.6253 1019.76 1.72728
104.711 996.102 1.72468
100.672 992.04 30.3168
83.6245 1019.77 -1.448
79.5053 1015.88 -29.9339
100.658 992.068 -30.0377
104.711 996.104 -1.4506
78.6242 1015.04 -32.8632
66.7913 1004.1 -56.985
88.1285 979.903 -57.1379
99.7768 991.228 -32.967
65.1349 1002.6 -59.2174
47.0353 986.675 -75.2914
68.3779 962.352 -75.506
86.4721 978.398 -59.3703
44.8309 984.762 -76.5001
23.2947 966.258 -82.1523
44.4639 941.978 -82.4046
66.1735 960.439 -76.7147
20.8906 964.204 -82.1546
-0.673348 945.725 -76.5101
20.3277 921.463 -76.7666
42.0597 939.925 -82.4069
-2.89347 943.823 -75.302
-21.1338 928.083 -59.2172
-0.256047 903.794 -59.4302
18.1076 919.561 -75.5584
-22.8294 926.617 -56.9783
-35.0083 916.011 -32.8343
-14.1954 891.682 -32.9577
-1.95167 902.329 -57.1913
-35.9242 915.213 -29.9043
-40.1924 911.476 -1.41306
-19.393 887.129 -1.42404
-15.1114 890.884 -30.0277
-17.0984 884.436 1.75084
-12.8102 888.19 30.3364
7.73426 864.008 30.3472
3.35511 860.334 1.73798
-11.882 888.981 33.2713
0.342964 899.598 57.4631
21.1273 875.201 57.479
8.66242 864.8 33.2821
2.06004 901.05 59.7028
20.4294 916.798 75.8405
41.5328 892.106 75.8329
22.8444 876.653 59.7186
22.6769 918.682 77.0472
44.4168 937.132 82.6966
65.8556 912.11 82.6498
43.7803 893.99 77.0396
46.8494 939.164 82.6909
68.5648 957.621 77.0105
90.3325 932.271 76.9464
68.2882 914.142 82.6441
70.7986 959.517 75.7948
88.8935 975.573 59.6693
111.108 949.758 59.595
92.5664 934.167 75.7308
90.5705 977.069 57.4277
102.225 988.423 33.2392
124.94 962.146 33.1986
112.785 951.254 57.3534
103.112 989.26 30.313
107.151 993.322 1.72086
130.059 966.896 1.7141
125.828 962.983 30.2724
107.151 993.323 -1.44807
103.098 989.288 -30.0352
125.811 963.017 -30.0145
130.058 966.897 -1.45483
102.21 988.454 -32.9606
90.5613 977.129 -57.1315
112.77 951.317 -57.0852
124.923 962.183 -32.9399
88.8844 975.635 -59.3729
70.7902 959.589 -75.5086
92.5554 934.237 -75.4707
111.093 949.823 -59.3266
68.5569 957.693 -76.7252
46.8473 939.232 -82.4151
68.2832 914.21 -82.3942
90.3221 932.341 -76.6873
44.4154 937.2 -82.4218
22.6833 918.737 -76.7815
43.7828 894.045 -76.8004
65.8513 912.177 -82.4009
20.4365 916.852 -75.5759
2.07288 901.086 -59.4477
22.8529 876.688 -59.491
41.536 892.16 -75.5948
0.355107 899.631 -57.2062
-11.8886 888.985 -32.9726
8.65299 864.801 -33.0101
21.1352 875.233 -57.2495
-12.8173 888.192 -30.0344
-17.0989 884.436 -1.43078
3.35466 860.334 -1.44365
7.72428 864.008 -30.0719
5.60447 857.635 1.73743
9.98362 861.309 30.3467
30.0179 836.82 30.3384
25.5561 833.239 1.72533
10.9295 862.083 33.2826
23.3944 872.484 57.4795
43.65 847.739 57.4702
30.9638 837.594 33.2742
25.1418 873.905 59.7185
43.8302 889.358 75.8328
64.3884 864.253 75.8193
45.3974 849.16 59.7093
46.1138 891.203 77.0374
68.1891 909.324 82.6475
89.0812 883.811 82.6289
66.672 866.098 77.0238
70.659 911.315 82.6396
92.7034 929.444 76.9419
113.938 903.506 76.9165
91.5512 885.802 82.621
94.9777 931.292 75.7264
113.519 946.884 59.5905
135.134 920.498 59.5805
116.212 905.355 75.701
115.244 948.329 57.3506
127.399 959.221 33.1957
149.399 932.396 33.1834
136.859 921.944 57.3406
128.321 960.024 30.2706
132.553 963.936 1.7123
154.7 936.949 1.69849
150.322 933.199 30.2582
132.552 963.938 -1.45552
128.305 960.058 -30.0152
150.301 933.234 -30.0304
154.699 936.951 -1.46933
127.381 959.258 -32.9397
115.228 948.392 -57.0851
136.842 922.009 -57.0954
149.378 932.434 -32.9549
113.504 946.948 -59.3248
94.9665 931.362 -75.4689
116.2 905.425 -75.4646
135.117 920.566 -59.3352
92.6927 929.514 -76.6854
70.6539 911.382 -82.3924
91.5452 885.869 -82.3965
113.926 903.577 -76.6812
68.1845 909.39 -82.4014
46.116 891.259 -76.8009
66.6725 866.153 -76.8118
89.0759 883.877 -82.4055
43.8331 889.412 -75.5975
25.15 873.94 -59.4937
45.4036 849.194 -59.5098
64.3895 864.306 -75.6085
23.402 872.517 -57.2529
10.9198 862.084 -33.0135
30.9528 837.594 -33.0298
43.6556 847.771 -57.2689
9.97352 861.308 -30.0742
5.6039 857.635 -1.4459
25.5555 833.238 -1.45801
30.0065 836.818 -30.0905
27.746 830.502 1.72422
32.2079 834.084 30.3372
51.673 809.227 30.3284
47.1343 805.744 1.71281
33.1703 834.838 33.2735
45.8565 844.983 57.4695
65.5336 819.848 57.4643
52.6355 809.98 33.2646
47.633 846.368 59.7087
66.624 861.461 75.8187
86.6043 835.928 75.8191
67.31 821.233 59.7036
68.9435 863.261 77.0231
91.3528 880.974 82.6283
111.681 854.987 82.6311
88.9238 837.728 77.0235
93.8611 882.916 82.6197
116.248 900.621 76.9152
136.932 874.166 76.9116
114.189 856.929 82.6225
118.561 902.419 75.7
137.483 917.563 59.5795
158.514 890.658 59.5752
139.245 875.965 75.6963
139.248 918.959 57.3402
151.788 929.412 33.183
173.133 902.104 33.1701
160.278 892.055 57.3359
152.737 930.183 30.257
157.115 933.933 1.69729
178.581 906.469 1.6838
174.083 902.876 30.244
157.114 933.935 -1.47129
152.716 930.218 -30.0323
174.059 902.91 -30.0499
178.58 906.471 -1.48478
151.766 929.45 -32.9574
139.23 919.025 -57.0979
160.26 892.122 -57.1159
173.109 902.142 -32.9749
137.466 917.63 -59.3365
118.549 902.49 -75.466
139.233 876.035 -75.4846
158.497 890.727 -59.3545
116.236 900.691 -76.6823
93.855 882.983 -82.3976
114.183 856.997 -82.423
136.921 874.237 -76.7009
91.3474 881.04 -82.4074
68.944 863.316 -76.8137
88.9241 837.783 -76.8374
111.676 855.054 -82.4328
66.625 861.514 -75.6106
47.6391 846.402 -59.5119
67.3157 821.267 -59.5304
86.6051 835.982 -75.6342
45.862 845.014 -57.2709
33.1592 834.837 -33.0317
52.6237 809.979 -33.046
65.5386 819.879 -57.2894
32.1964 834.082 -30.092
27.7454 830.502 -1.45953
47.1337 805.744 -1.47094
51.6609 809.224 -30.1063
49.26 802.966 1.71173
53.7987 806.449 30.3273
72.6713 781.203 30.3187
68.0584 777.824 1.70095
54.7771 807.181 33.264
67.6752 817.049 57.4637
86.756 791.513 57.4602
73.6497 781.935 33.2553
69.4804 818.396 59.7037
88.7747 833.091 75.8191
108.161 807.132 75.8234
88.5612 792.859 59.7001
91.1309 834.842 77.024
113.888 852.101 82.6316
133.632 825.654 82.6396
110.518 808.883 77.0282
116.436 853.99 82.6227
139.178 871.226 76.9118
159.284 844.284 76.9142
136.18 827.544 82.6308
141.53 872.973 75.6961
160.799 887.666 59.5749
181.233 860.269 59.5702
161.636 846.031 75.6985
162.598 889.016 57.3355
175.453 899.066 33.1696
196.161 871.295 33.1579
183.032 861.619 57.3308
176.425 899.808 30.2428
180.924 903.4 1.68256
201.736 875.485 1.66761
197.133 872.037 30.231
180.923 903.402 -1.48678
176.401 899.842 -30.0519
197.106 872.072 -30.0699
201.734 875.487 -1.50173
175.428 899.104 -32.9775
162.58 889.083 -57.1184
183.015 861.687 -57.1364
196.133 871.334 -32.9955
160.782 887.735 -59.3567
141.518 873.044 -75.4868
161.625 846.102 -75.5116
181.217 860.338 -59.3747
139.167 871.297 -76.7036
116.43 854.057 -82.4257
136.175 827.611 -82.4559
159.274 844.355 -76.7284
113.883 852.167 -82.4358
91.1312 834.897 -76.8404
110.519 808.937 -76.867
133.627 825.721 -82.4661
88.7755 833.144 -75.6368
69.4861 818.429 -59.533
88.5672 792.892 -59.5519
108.163 807.184 -75.6635
67.6802 817.08 -57.2913
54.7653 807.18 -33.0479
73.6376 781.933 -33.0611
86.7613 791.542 -57.3102
53.7866 806.446 -30.1077
49.2594 802.966 -1.47235
68.0577 777.824 -1.48313
72.6589 781.2 -30.1209
70.1177 775.003 1.69991
74.7305 778.382 30.3176
92.9984 752.745 30.309
88.3127 749.473 1.68968
75.7246 779.092 33.2547
88.8309 788.669 57.4596
107.305 762.731 57.4555
93.9925 753.455 33.2461
90.6648 789.976 59.7002
110.265 804.248 75.8235
129.046 777.868 75.8264
109.139 764.037 59.6962
112.658 805.947 77.0289
135.772 822.719 82.6403
154.912 795.827 82.6467
131.439 779.567 77.0318
138.36 824.552 82.6312
161.465 841.293 76.9147
180.966 813.883 76.9165
157.5 797.66 82.6376
163.854 842.986 75.6984
183.451 857.224 59.5701
203.27 829.353 59.5643
183.356 815.576 75.7002
185.283 858.528 57.3303
198.411 868.205 33.1573
218.473 839.983 33.1466
205.101 830.658 57.3244
199.404 868.919 30.2297
204.006 872.367 1.66629
224.161 844.012 1.64889
219.466 840.697 30.219
204.005 872.369 -1.50382
199.376 868.954 -30.072
219.438 840.732 -30.0885
224.159 844.014 -1.52122
198.383 868.243 -32.9978
185.266 858.596 -57.1387
205.086 830.725 -57.1547
218.445 840.022 -33.0143
183.435 857.293 -59.377
163.843 843.057 -75.5139
183.346 815.646 -75.5373
203.256 829.422 -59.3931
161.454 841.364 -76.7313
138.355 824.619 -82.4589
157.496 797.726 -82.4867
180.957 813.954 -76.7547
135.768 822.785 -82.4692
112.659 806.002 -76.8701
131.441 779.621 -76.8945
154.909 795.892 -82.4971
110.267 804.3 -75.666
90.6709 790.008 -59.5545
109.145 764.068 -59.5719
129.048 777.919 -75.6904
88.8362 788.699 -57.312
75.7125 779.09 -33.0629
93.9802 753.452 -33.0751
107.311 762.759 -57.3294
74.7181 778.379 -30.1222
70.117 775.003 -1.48444
88.312 749.472 -1.49467
92.9858 752.741 -30.1344
90.3044 746.608 1.68868
94.9901 749.881 30.308
112.645 723.855 30.2995
107.888 720.692 1.67898
95.9997 750.568 33.2454
109.312 759.844 57.4548
127.171 733.509 57.4499
113.655 724.542 33.237
111.174 761.108 59.6961
131.081 774.939 75.8263
149.243 748.147 75.8265
129.033 734.773 59.6912
133.511 776.584 77.0322
156.985 792.843 82.647
175.504 765.519 82.6496
151.674 749.792 77.0324
159.613 794.618 82.6378
183.079 810.842 76.9168
201.955 782.982 76.9151
178.132 767.293 82.6404
185.505 812.48 75.6998
205.419 826.257 59.5639
224.603 797.929 59.5551
204.381 784.62 75.6982
207.281 827.516 57.3236
220.653 836.842 33.1457
240.059 808.176 33.1326
226.464 799.189 57.3148
221.663 837.53 30.2175
226.358 840.845 1.64741
245.848 812.052 1.63101
241.07 808.864 30.2043
226.357 840.846 -1.52313
221.635 837.565 -30.0905
241.042 808.897 -30.1033
245.846 812.054 -1.53952
220.625 836.88 -33.0162
207.266 827.583 -57.1566
226.451 799.254 -57.1698
240.032 808.213 -33.029
205.405 826.325 -59.3951
185.496 812.55 -75.5393
204.374 784.689 -75.5591
224.591 797.996 -59.4083
183.07 810.912 -76.7573
159.609 794.684 -82.4893
178.13 767.358 -82.5129
201.948 783.051 -76.7771
156.982 792.908 -82.4998
133.513 776.637 -76.8972
151.677 749.843 -76.9182
175.503 765.582 -82.5233
131.084 774.99 -75.6927
111.181 761.139 -59.5742
129.04 734.802 -59.5897
149.247 748.196 -75.7136
109.318 759.872 -57.331
95.9874 750.565 -33.0767
113.642 724.538 -33.088
127.177 733.535 -57.3466
94.9775 749.876 -30.1356
90.3037 746.608 -1.4959
107.887 720.691 -1.5056
112.632 723.849 -30.1469
109.811 717.785 1.67801
114.568 720.948 30.2986
131.602 694.539 30.2902
126.774 691.487 1.66889
115.593 721.611 33.2362
129.109 730.578 57.4492
146.342 703.853 57.4433
132.627 695.202 33.2279
130.999 731.8 59.6909
151.21 745.173 75.8262
168.742 717.979 75.824
148.233 705.074 59.685
153.677 746.763 77.0324
177.507 762.489 82.6496
195.391 734.745 82.6487
171.208 719.568 77.0302
180.174 764.204 82.6403
203.997 779.893 76.915
222.23 751.6 76.9107
198.057 736.46 82.6394
206.46 781.474 75.6975
226.681 794.784 59.5544
245.211 766.017 59.5445
224.693 753.181 75.6932
228.571 795.998 57.3137
242.167 804.986 33.1314
260.907 775.885 33.1184
247.101 767.232 57.3038
243.193 805.648 30.2028
247.971 808.836 1.62951
266.788 779.612 1.61483
261.933 776.548 30.1898
247.97 808.837 -1.54117
243.166 805.681 -30.105
261.907 776.578 -30.1166
266.787 779.614 -1.55584
242.139 805.022 -33.0305
228.559 796.063 -57.1712
247.091 767.294 -57.1829
260.88 775.919 -33.0422
226.67 794.85 -59.41
206.453 781.543 -75.5608
224.687 753.247 -75.5774
245.202 766.081 -59.4217
203.99 779.961 -76.7792
180.172 764.268 -82.515
198.057 736.522 -82.5345
222.225 751.666 -76.7958
177.506 762.552 -82.5256
153.68 746.814 -76.9205
171.213 719.617 -76.938
195.391 734.806 -82.545
151.214 745.223 -75.7156
131.007 731.829 -59.5917
148.241 705.102 -59.6053
168.746 718.026 -75.7331
129.115 730.605 -57.3481
115.58 721.607 -33.0895
132.614 695.197 -33.0998
146.349 703.878 -57.3617
114.555 720.942 -30.1481
109.81 717.784 -1.50674
126.773 691.487 -1.51586
131.589 694.533 -30.1584
128.628 688.539 1.66796
133.456 691.59 30.2893
149.862 664.806 30.2812
144.964 661.868 1.65944
134.496 692.229 33.2272
148.211 700.88 57.4426
164.812 673.772 57.4359
150.901 665.445 33.219
150.129 702.057 59.6845
170.638 714.962 75.8235
187.531 687.373 75.8193
166.73 674.949 59.6779
173.14 716.494 77.0299
197.322 731.671 82.6485
214.558 703.519 82.6451
190.033 688.905 77.0257
200.028 733.324 82.639
224.2 748.463 76.9102
241.776 719.751 76.9044
217.263 705.172 82.6356
226.699 749.987 75.6923
247.217 762.824 59.5437
265.08 733.631 59.5339
244.274 721.275 75.6865
249.134 763.993 57.3026
262.94 772.647 33.1172
281.002 743.124 33.1052
266.997 734.801 57.2928
263.982 773.284 30.1883
268.837 776.349 1.61343
286.97 746.705 1.60036
282.044 743.761 30.1764
268.835 776.35 -1.55731
263.956 773.314 -30.1181
282.019 743.789 -30.1291
286.969 746.707 -1.57037
262.914 772.68 -33.0435
249.124 764.055 -57.1843
266.99 734.86 -57.1952
280.976 743.154 -33.0546
247.208 762.887 -59.4232
226.693 750.053 -75.5789
244.271 721.338 -75.5931
265.073 733.692 -59.434
224.196 748.529 -76.7977
200.027 733.385 -82.5363
217.264 705.23 -82.5523
241.773 719.813 -76.8119
197.323 731.731 -82.5469
173.145 716.543 -76.9399
190.039 688.951 -76.9546
214.559 703.576 -82.563
170.643 715.009 -75.7348
150.137 702.084 -59.6069
166.739 674.974 -59.6186
187.537 687.417 -75.7495
148.218 700.905 -57.363
134.483 692.224 -33.1011
150.888 665.439 -33.1104
164.82 673.794 -57.3747
133.443 691.584 -30.1595
128.627 688.538 -1.51691
144.964 661.868 -1.52544
149.848 664.799 -30.1688
146.748 658.879 1.65855
151.646 661.816 30.2803
167.416 634.666 30.2726
162.452 631.846 1.6507
152.7 662.43 33.2182
166.61 670.758 57.4351
182.571 643.278 57.4283
168.47 635.281 33.2106
168.555 671.889 59.6773
189.356 684.313 75.8187
205.6 656.342 75.8134
184.516 644.41 59.6705
191.893 685.786 77.0253
216.418 700.4 82.6446
232.994 671.855 82.6397
208.137 657.816 77.0199
219.16 701.99 82.635
243.673 716.569 76.9038
260.578 687.453 76.8971
235.736 673.445 82.6301
246.206 718.035 75.6856
267.011 730.392 59.533
284.194 700.79 59.5236
263.111 688.919 75.6789
268.955 731.516 57.2917
282.959 739.839 33.1041
300.331 709.906 33.0932
286.138 701.914 57.2823
284.016 740.451 30.1751
288.943 743.396 1.59908
306.382 713.344 1.58748
301.388 710.518 30.1642
288.941 743.397 -1.57169
283.991 740.479 -30.1305
301.364 710.543 -30.1408
306.381 713.345 -1.58329
282.934 739.869 -33.0558
268.948 731.575 -57.1964
286.132 701.97 -57.2064
300.307 709.934 -33.0661
267.005 730.452 -59.4353
246.202 718.098 -75.5944
263.11 688.978 -75.6064
284.19 700.847 -59.4453
243.67 716.632 -76.8134
219.162 702.049 -82.5538
235.739 673.5 -82.567
260.577 687.512 -76.8254
216.419 700.458 -82.5645
191.899 685.832 -76.9562
208.144 657.859 -76.9684
232.997 671.909 -82.5777
189.362 684.357 -75.7508
168.564 671.914 -59.62
184.525 644.432 -59.6303
205.607 656.383 -75.763
166.618 670.78 -57.3758
152.687 662.424 -33.1116
168.457 635.274 -33.1201
182.579 643.298 -57.3861
151.632 661.809 -30.1697
146.748 658.878 -1.5264
162.451 631.845 -1.53425
167.402 634.658 -30.1782
164.164 628.816 1.64988
169.129 631.637 30.2718
184.257 604.133 30.2648
179.228 601.431 1.64276
170.197 632.226 33.2098
184.298 640.223 57.4276
199.61 612.384 57.4209
185.326 604.723 33.2028
186.269 641.309 59.6698
207.353 653.241 75.8127
222.938 624.903 75.8068
201.581 613.47 59.6631
209.923 654.655 77.0193
234.78 668.695 82.6391
250.686 639.771 82.6333
225.509 626.317 77.0134
237.559 670.221 82.6294
262.401 684.228 76.8964
278.624 654.724 76.8894
253.465 641.297 82.6236
264.967 685.635 75.678
286.049 697.506 59.5227
302.539 667.509 59.5139
281.19 656.13 75.671
288.019 698.585 57.2813
302.212 706.576 33.0922
318.882 676.248 33.0823
304.509 668.588 57.2725
303.282 707.164 30.163
308.277 709.99 1.58633
325.011 679.543 1.57603
319.953 676.835 30.1531
308.275 709.991 -1.58447
303.259 707.189 -30.142
319.93 676.858 -30.1514
325.01 679.544 -1.59477
302.188 706.604 -33.0672
288.014 698.64 -57.2075
304.506 668.64 -57.2165
318.86 676.273 -33.0767
286.045 697.562 -59.4465
264.965 685.693 -75.6075
281.19 656.185 -75.6177
302.538 667.562 -59.4555
262.4 684.287 -76.8267
237.562 670.275 -82.5683
253.469 641.348 -82.5792
278.625 654.778 -76.8369
234.783 668.748 -82.579
209.93 654.698 -76.9697
225.517 626.355 -76.9798
250.691 639.821 -82.5899
207.36 653.282 -75.7642
186.278 641.331 -59.6315
201.59 613.489 -59.6403
222.946 624.94 -75.7744
184.306 640.243 -57.3871
170.184 632.219 -33.1211
185.312 604.715 -33.1287
199.619 612.401 -57.396
169.115 631.629 -30.1791
164.164 628.815 -1.53513
179.227 601.43 -1.54225
184.243 604.124 -30.1867
180.869 598.363 1.64202
185.899 601.065 30.264
200.378 573.22 30.2576
195.285 570.637 1.63568
186.981 601.629 33.202
201.265 609.29 57.4201
215.921 581.104 57.4137
201.459 573.784 33.1957
203.261 610.329 59.6624
224.618 621.762 75.8061
239.536 593.069 75.8
217.916 582.143 59.656
227.221 623.115 77.0127
252.398 636.57 82.6326
267.624 607.283 82.6265
242.14 594.422 77.0066
255.212 638.031 82.6229
280.371 651.457 76.8886
295.902 621.58 76.8816
270.438 608.743 82.6167
282.969 652.804 75.6701
304.318 664.183 59.513
320.105 633.808 59.5049
298.499 622.927 75.6631
306.312 665.216 57.2715
320.685 672.875 33.0813
336.644 642.166 33.0725
322.099 634.841 57.2634
321.769 673.438 30.1521
326.827 676.145 1.57499
342.847 645.318 1.56587
337.728 642.729 30.1433
326.826 676.146 -1.59582
321.747 673.46 -30.1525
337.706 642.749 -30.161
342.846 645.319 -1.60493
320.663 672.901 -33.0777
306.309 665.267 -57.2175
322.098 634.889 -57.2255
336.622 642.19 -33.0862
304.317 664.235 -59.4565
282.969 652.858 -75.6187
298.502 622.977 -75.6272
320.105 633.857 -59.4645
280.372 651.511 -76.8379
255.216 638.081 -82.5802
270.444 608.789 -82.5891
295.905 621.63 -76.8465
252.403 636.619 -82.5909
227.229 623.154 -76.9809
242.149 594.456 -76.9892
267.631 607.328 -82.5998
224.626 621.799 -75.7754
203.27 610.348 -59.6413
217.926 582.159 -59.6489
239.546 593.102 -75.7837
201.274 609.307 -57.3968
186.967 601.621 -33.1296
201.445 573.775 -33.1363
215.93 581.118 -57.4044
185.884 601.056 -30.1875
180.868 598.362 -1.54303
195.284 570.637 -1.54937
200.363 573.21 -30.1942
196.854 567.532 1.63502
201.946 570.114 30.257
215.769 541.94 30.2513
210.616 539.479 1.62952
203.041 570.653 33.195
217.503 577.973 57.413
231.495 549.452 57.4071
216.864 542.478 33.1893
219.522 578.964 59.6553
241.142 589.89 75.7993
255.386 560.855 75.7933
233.514 550.444 59.6494
243.777 591.181 77.0059
269.261 604.042 82.6258
283.799 574.406 82.6196
258.02 562.147 76.9999
272.108 605.437 82.616
297.572 618.274 76.8809
312.401 588.041 76.874
286.645 575.801 82.6098
300.2 619.56 75.6622
321.806 630.441 59.5041
336.879 599.704 59.4967
315.029 589.327 75.6554
323.822 631.427 57.2625
338.368 638.753 33.0716
353.606 607.679 33.0638
338.896 600.691 57.2551
339.464 639.29 30.1423
344.584 641.879 1.56495
359.88 610.686 1.55695
354.702 608.216 30.1345
344.583 641.88 -1.60586
339.443 639.31 -30.1619
354.682 608.234 -30.1694
359.878 610.687 -1.61385
338.346 638.775 -33.0871
323.822 631.475 -57.2264
338.897 600.734 -57.2333
353.585 607.7 -33.0946
321.806 630.489 -59.4653
300.203 619.61 -75.6281
315.033 589.372 -75.635
336.881 599.749 -59.4722
297.575 618.323 -76.8473
272.114 605.482 -82.5899
286.653 575.842 -82.5969
312.406 588.086 -76.8542
269.268 604.087 -82.6006
243.786 591.215 -76.9901
258.03 562.177 -76.9967
283.806 574.447 -82.6076
241.152 589.922 -75.7845
219.532 578.98 -59.6497
233.524 550.457 -59.656
255.396 560.884 -75.7911
217.512 577.987 -57.4051
203.027 570.643 -33.137
216.849 542.468 -33.1427
231.504 549.463 -57.4114
201.931 570.104 -30.1949
196.853 567.531 -1.55005
210.615 539.478 -1.55554
215.753 541.929 -30.2006
212.112 536.338 1.62895
217.265 538.798 30.2507
230.424 510.307 30.2459
225.214 507.969 1.62433
218.372 539.311 33.1887
233.003 546.285 57.4065
246.324 517.444 57.4011
231.531 510.819 33.1838
235.045 547.228 59.6487
256.917 557.64 75.7927
270.477 528.279 75.7869
248.366 518.387 59.6433
259.58 558.869 76.9992
285.359 571.128 82.6189
299.2 541.159 82.6127
273.141 529.508 76.9934
288.238 572.456 82.609
313.994 584.696 76.8733
328.112 554.123 76.8668
302.078 542.486 82.6029
316.65 585.92 75.6547
338.501 596.298 59.496
352.853 565.217 59.4894
330.769 555.347 75.6482
340.54 597.238 57.2543
355.249 604.226 33.063
369.758 572.804 33.0561
354.892 566.156 57.2477
356.358 604.737 30.1337
361.535 607.207 1.55613
376.099 575.665 1.54922
370.866 573.315 30.1268
361.534 607.208 -1.61466
356.337 604.756 -30.1702
370.847 573.332 -30.1766
376.098 575.666 -1.62157
355.229 604.246 -33.0953
340.541 597.281 -57.2341
354.894 566.196 -57.2398
369.738 572.822 -33.1017
338.503 596.342 -59.4729
316.655 585.965 -75.6357
330.775 555.388 -75.641
352.857 565.257 -59.4787
313.998 584.741 -76.8549
288.245 572.496 -82.5976
302.087 542.522 -82.6028
328.118 554.163 -76.8603
285.367 571.168 -82.6083
259.591 558.899 -76.9974
273.152 529.534 -77.0024
299.209 541.194 -82.6135
256.927 557.668 -75.7918
235.056 547.241 -59.6566
248.377 518.397 -59.6616
270.488 528.303 -75.7968
233.012 546.296 -57.412
218.357 539.3 -33.1434
231.516 510.808 -33.1481
246.333 517.452 -57.417
217.249 538.787 -30.2012
212.111 536.337 -1.55612
225.213 507.969 -1.56073
230.408 510.295 -30.2059
226.636 504.794 1.62385
231.846 507.131 30.2454
244.336 478.337 30.2413
239.072 476.123 1.6201
232.965 507.617 33.1833
247.757 514.242 57.4005
260.401 485.094 57.3957
245.455 478.822 33.1792
249.821 515.136 59.6427
271.933 525.028 75.7862
284.804 495.355 75.7807
262.465 485.988 59.6378
274.625 526.194 76.9928
300.684 537.845 82.6121
313.821 507.558 82.6061
287.496 496.521 76.9872
303.592 539.105 82.6022
329.626 550.741 76.8661
343.026 519.845 76.86
316.729 508.817 82.5962
332.31 551.904 75.6475
354.394 561.773 59.4887
368.016 530.363 59.4829
345.711 521.007 75.6413
356.454 562.665 57.247
371.32 569.313 33.0554
385.091 537.56 33.0496
370.076 531.256 57.2412
372.44 569.799 30.1261
377.673 572.149 1.54851
391.496 540.274 1.54264
386.211 538.046 30.1202
377.672 572.15 -1.62225
372.421 569.815 -30.1773
386.192 538.06 -30.1826
391.495 540.275 -1.62812
371.301 569.331 -33.1024
356.457 562.704 -57.2404
370.081 531.291 -57.2449
385.072 537.576 -33.1077
354.398 561.813 -59.4792
332.316 551.944 -75.6416
345.718 521.043 -75.6454
368.022 530.4 -59.4837
329.632 550.781 -76.8608
303.601 539.14 -82.6032
316.74 508.848 -82.6066
343.034 519.88 -76.8645
300.693 537.88 -82.6139
274.636 526.22 -77.0029
287.508 496.543 -77.0062
313.831 507.588 -82.6173
271.944 525.052 -75.7973
249.832 515.146 -59.6621
262.476 485.995 -59.6658
284.816 495.375 -75.8006
247.767 514.25 -57.4175
232.949 507.605 -33.1486
245.439 478.81 -33.1523
260.411 485.099 -57.4212
231.83 507.119 -30.2064
226.635 504.793 -1.5612
239.071 476.123 -1.56495
244.319 478.324 -30.2101
240.419 472.915 1.61971
245.683 475.128 30.2409
257.499 446.044 30.2375
252.183 443.957 1.61682
246.814 475.587 33.1787
261.76 481.859 57.3952
273.72 452.418 57.3908
258.629 446.503 33.1754
263.844 482.704 59.6373
286.183 492.07 75.7801
298.359 462.1 75.7747
275.805 453.263 59.6329
288.902 493.173 76.9865
315.227 504.21 82.6054
327.653 473.62 82.5994
301.077 463.203 76.9811
318.164 505.401 82.5955
344.461 516.428 76.8593
357.136 485.225 76.8535
330.59 474.812 82.5895
347.171 517.528 75.6407
369.477 526.885 59.4822
382.363 495.164 59.4771
359.847 486.325 75.6348
371.557 527.729 57.2406
386.572 534.033 33.0489
399.599 501.966 33.044
384.443 496.008 57.2354
387.703 534.493 30.1196
392.988 536.722 1.54204
406.064 504.532 1.53717
400.73 502.426 30.1147
392.987 536.723 -1.62868
387.684 534.507 -30.1832
400.711 502.438 -30.1874
406.063 504.533 -1.63355
386.553 534.049 -33.1081
371.562 527.764 -57.2454
384.449 496.039 -57.2486
399.581 501.979 -33.1123
369.483 526.92 -59.4841
347.179 517.564 -75.6457
359.856 486.356 -75.6478
382.37 495.196 -59.4873
344.469 516.463 -76.8648
318.174 505.432 -82.6069
330.602 474.838 -82.6084
357.146 485.255 -76.8669
315.237 504.24 -82.6176
288.914 493.194 -77.0065
301.09 463.22 -77.0081
327.665 473.646 -82.6191
286.195 492.09 -75.8009
263.856 482.711 -59.6661
275.817 453.267 -59.6684
298.372 462.116 -75.8026
261.77 481.863 -57.4215
246.798 475.574 -33.1526
258.613 446.49 -33.1554
273.731 452.42 -57.4239
245.667 475.115 -30.2105
240.418 472.914 -1.56531
252.182 443.956 -1.5682
257.482 446.03 -30.2132
253.455 440.717 1.61652
258.771 442.804 30.2372
269.907 413.445 30.2346
264.542 411.484 1.6145
259.912 443.236 33.175
275.003 449.151 57.3904
286.276 419.432 57.3865
271.048 413.877 33.1724
277.107 449.947 59.6324
299.661 458.784 75.7742
311.136 428.532 75.7688
288.38 420.228 59.6285
302.405 459.822 76.9805
328.981 470.24 82.5988
340.691 439.365 82.5925
313.879 429.571 76.9751
331.945 471.362 82.5888
358.491 481.776 76.8528
370.436 450.283 76.847
343.656 440.488 82.5826
361.226 482.813 75.6342
383.742 491.652 59.4765
395.885 459.638 59.4719
373.171 451.32 75.6284
385.841 492.448 57.2349
400.997 498.405 33.0434
413.273 466.041 33.0393
397.984 460.434 57.2303
402.138 498.839 30.1142
407.473 500.945 1.53667
419.797 468.457 1.53276
414.415 466.475 30.11
407.472 500.946 -1.63399
402.12 498.851 -30.1878
414.397 466.485 -30.1907
419.796 468.458 -1.6379
400.979 498.419 -33.1126
385.847 492.479 -57.2489
397.992 460.461 -57.2506
413.256 466.053 -33.1156
383.75 491.683 -59.4875
361.236 482.843 -75.648
373.182 451.346 -75.6482
395.894 459.665 -59.4892
358.501 481.806 -76.867
331.957 471.388 -82.6085
343.669 440.509 -82.6079
370.447 450.308 -76.8672
328.993 470.265 -82.6191
302.418 459.839 -77.0082
313.894 429.584 -77.008
340.705 439.385 -82.6185
299.674 458.8 -75.8027
277.119 449.951 -59.6685
288.392 420.23 -59.6695
311.15 428.545 -75.8024
275.014 449.153 -57.4241
259.896 443.223 -33.1556
271.031 413.863 -33.1573
286.286 419.432 -57.425
258.754 442.791 -30.2135
253.454 440.716 -1.56846
264.541 411.483 -1.57048
269.889 413.431 -30.2152
265.739 408.214 1.61428
271.103 410.175 30.2344
281.554 380.555 30.2325
276.144 378.721 1.61311
272.255 410.58 33.172
287.482 416.136 57.3862
298.062 386.154 57.3826
282.705 380.959 33.1702
289.605 416.882 59.6279
312.361 425.186 75.7682
323.129 394.669 75.7626
300.184 386.9 59.6244
315.128 426.16 76.9744
341.94 435.954 82.5919
352.929 404.811 82.5851
325.897 395.643 76.9688
344.929 437.008 82.5819
371.709 446.803 76.8463
382.918 415.039 76.8403
355.919 405.865 82.5752
374.468 447.777 75.6279
397.182 456.094 59.4713
408.577 423.806 59.4672
385.677 416.013 75.6219
399.299 456.842 57.2299
414.588 462.449 33.0388
426.11 429.806 33.0355
410.694 424.554 57.2258
415.739 462.857 30.1096
421.121 464.839 1.53234
432.687 432.069 1.52936
427.261 430.213 30.1062
421.12 464.839 -1.6382
415.722 462.866 -30.191
427.244 430.221 -30.1926
432.686 432.07 -1.64119
414.572 462.46 -33.1158
399.307 456.868 -57.2508
410.704 424.575 -57.2509
426.094 429.815 -33.1173
397.192 456.121 -59.4892
374.479 447.802 -75.6482
385.69 416.033 -75.6462
408.588 423.828 -59.4894
371.721 446.828 -76.8671
344.943 437.028 -82.6077
355.934 405.881 -82.6046
382.931 415.059 -76.8651
341.954 435.974 -82.6183
315.142 426.173 -77.0078
325.912 395.652 -77.0054
352.944 404.827 -82.6152
312.375 425.198 -75.8024
289.617 416.883 -59.6694
300.197 386.9 -59.6689
323.144 394.677 -75.8
287.493 416.136 -57.4251
272.238 410.566 -33.1573
282.688 380.945 -33.158
298.073 386.152 -57.4246
271.086 410.161 -30.2153
265.738 408.214 -1.57063
276.143 378.721 -1.5718
281.536 380.54 -30.216
277.264 375.424 1.61297
282.675 377.257 30.2324
292.437 347.389 30.2312
286.983 345.684 1.61259
283.835 377.634 33.1699
299.191 382.829 57.3823
309.073 352.599 57.3789
293.597 347.766 33.1687
301.331 383.525 59.6238
324.276 391.294 75.7621
334.334 360.527 75.7559
311.213 353.295 59.6204
327.065 392.203 76.9681
354.098 401.371 82.5844
364.361 369.978 82.5768
337.124 361.436 76.9619
357.111 402.356 82.5745
384.11 411.53 76.8396
394.578 379.514 76.8331
367.374 370.962 82.5668
386.891 412.44 75.6213
409.791 420.233 59.4667
420.434 387.688 59.4629
397.358 380.423 75.6148
411.925 420.932 57.2253
427.341 426.184 33.035
438.103 393.28 33.0324
422.567 388.387 57.2216
428.501 426.565 30.1059
433.928 428.421 1.52902
444.732 395.387 1.52696
439.263 393.66 30.1033
433.927 428.421 -1.64135
428.485 426.572 -30.1928
439.247 393.665 -30.1929
444.731 395.387 -1.64341
427.325 426.192 -33.1173
411.935 420.953 -57.2509
422.579 388.404 -57.2493
438.088 393.285 -33.1174
409.803 420.255 -59.4892
386.904 412.46 -75.646
397.373 380.438 -75.6414
420.447 387.705 -59.4876
384.124 411.549 -76.8646
357.126 402.371 -82.6042
367.391 370.973 -82.5982
394.593 379.528 -76.8601
354.113 401.387 -82.6147
327.081 392.212 -77.0049
337.14 361.442 -77.0002
364.378 369.989 -82.6087
324.291 391.302 -75.7997
301.344 383.524 -59.6686
311.226 353.293 -59.6665
334.351 360.532 -75.795
299.202 382.827 -57.4245
283.818 377.62 -33.158
293.579 347.752 -33.1577
309.085 352.596 -57.4224
282.657 377.243 -30.2161
277.263 375.423 -1.57185
286.982 345.683 -1.57223
292.418 347.375 -30.2158
288.027 342.359 1.61253
293.48 344.064 30.2311
302.55 313.963 30.2304
297.056 312.386 1.61287
294.65 344.415 33.1684
310.126 349.247 57.3787
319.307 318.784 57.3751
303.719 314.313 33.1677
312.281 349.894 59.6198
335.403 357.125 75.7553
344.748 326.125 75.748
321.462 319.43 59.6163
338.213 357.97 76.961
365.45 366.511 82.5759
374.984 334.884 82.5667
347.557 326.97 76.9538
368.485 367.426 82.566
395.689 375.978 76.8322
405.411 343.728 76.8248
378.019 335.799 82.5568
398.489 376.824 75.6142
421.565 384.089 59.4623
431.451 351.308 59.459
408.212 344.574 75.6068
423.714 384.738 57.2212
439.25 389.63 33.032
449.249 356.483 33.0304
433.6 351.958 57.2179
440.419 389.984 30.103
445.888 391.71 1.5267
455.928 358.427 1.52585
450.418 356.836 30.1013
445.887 391.71 -1.64342
440.403 389.988 -30.1929
450.403 356.836 -30.1917
455.927 358.428 -1.64427
439.235 389.635 -33.1172
423.726 384.754 -57.2491
433.614 351.968 -57.2458
449.235 356.483 -33.116
421.578 384.105 -59.4871
398.505 376.838 -75.641
408.229 344.583 -75.6336
431.466 351.319 -59.4838
395.704 375.991 -76.8593
368.502 367.437 -82.5974
378.037 335.806 -82.5882
405.428 343.737 -76.852
365.467 366.522 -82.608
338.229 357.976 -76.9994
347.574 326.973 -76.992
375.002 334.891 -82.5987
335.419 357.13 -75.7944
312.294 349.891 -59.666
321.476 319.426 -59.6622
344.764 326.128 -75.787
310.137 349.244 -57.4222
294.632 344.4 -33.1574
303.701 314.299 -33.1562
319.319 318.779 -57.4184
293.462 344.05 -30.2157
288.026 342.359 -1.57217
297.055 312.386 -1.57183
302.531 313.949 -30.2145
298.023 309.036 1.61286
303.517 310.613 30.2304
311.891 280.29 30.23
306.36 278.842 1.61382
304.694 310.936 33.1674
320.282 315.407 57.3748
328.76 284.723 57.3707
313.068 280.613 33.167
322.452 316.003 59.6156
345.737 322.698 75.7473
354.365 291.48 75.7382
330.93 285.319 59.6114
348.566 323.478 76.9527
375.993 331.393 82.5657
384.794 299.552 82.5541
357.194 292.26 76.9436
379.048 332.239 82.5558
406.44 340.167 76.8238
415.415 307.705 76.8151
387.849 300.397 82.5442
409.26 340.949 75.6062
432.498 347.683 59.4584
441.626 314.688 59.4557
418.235 308.487 75.5975
434.663 348.283 57.2176
450.311 352.808 33.0301
459.547 319.434 33.0302
443.79 315.287 57.2148
451.488 353.133 30.1012
456.999 354.724 1.52575
466.275 321.209 1.52734
460.724 319.759 30.1014
456.998 354.724 -1.64412
451.474 353.132 -30.1915
460.711 319.753 -30.1903
466.274 321.209 -1.64253
450.298 352.808 -33.1156
434.677 348.292 -57.2454
443.806 315.29 -57.2413
459.534 319.429 -33.1143
432.514 347.693 -59.4831
409.277 340.957 -75.6329
418.253 308.49 -75.6229
441.643 314.692 -59.479
406.457 340.175 -76.8509
379.066 332.245 -82.5871
387.868 300.401 -82.5742
415.434 307.708 -76.8408
376.011 331.399 -82.5976
348.583 323.481 -76.9908
357.211 292.261 -76.9803
384.813 299.555 -82.5846
345.754 322.7 -75.7862
322.465 315.999 -59.6614
330.943 285.315 -59.6558
354.383 291.48 -75.7756
320.294 315.402 -57.418
304.676 310.922 -33.1558
313.05 280.601 -33.1537
328.771 284.717 -57.4124
303.498 310.6 -30.2144
298.022 309.036 -1.57169
306.359 278.842 -1.57073
311.872 280.278 -30.2122
307.249 275.469 1.61385
312.781 276.917 30.23
320.457 246.385 30.2298
314.891 245.065 1.61529
313.966 277.212 33.1667
329.657 281.322 57.3704
337.43 250.431 57.3652
321.642 246.68 33.1664
331.841 281.868 59.6105
355.276 288.03 75.7373
363.186 256.609 75.7253
339.613 250.977 59.6053
358.122 288.746 76.9422
385.722 296.037 82.5527
393.79 264.001 82.5375
366.032 257.325 76.9303
388.796 296.814 82.5429
416.361 304.122 76.8138
424.587 271.469 76.8028
396.863 264.778 82.5278
419.199 304.84 75.5968
442.589 311.041 59.455
450.957 277.852 59.4527
427.424 272.187 75.5858
444.768 311.589 57.2146
460.524 315.736 33.03
468.996 282.154 33.0324
453.136 278.4 57.2123
461.71 316.031 30.1015
467.261 317.481 1.52748
475.773 283.748 1.53249
470.181 282.449 30.1039
467.26 317.48 -1.6422
461.697 316.025 -30.1899
470.17 282.436 -30.1896
475.773 283.747 -1.63719
460.513 315.73 -33.1139
444.784 311.591 -57.2409
453.153 278.396 -57.2364
468.986 282.141 -33.1136
442.607 311.044 -59.4781
419.217 304.842 -75.622
427.444 272.185 -75.609
450.976 277.848 -59.4737
416.38 304.124 -76.8394
388.815 296.817 -82.5727
396.882 264.777 -82.5554
424.606 271.467 -76.8264
385.741 296.04 -82.5831
358.139 288.746 -76.9787
366.05 257.325 -76.9645
393.809 264.001 -82.5658
355.293 288.03 -75.7745
331.854 281.864 -59.6547
339.626 250.973 -59.647
363.204 256.609 -75.7602
329.668 281.317 -57.4118
313.947 277.2 -33.1531
321.623 246.67 -33.15
337.441 250.426 -57.4041
312.761 276.904 -30.212
307.248 275.468 -1.5705
314.89 245.064 -1.56906
320.437 246.374 -30.2089
315.703 241.668 1.61534
321.27 242.988 30.2298
328.248 212.257 30.2293
322.65 211.065 1.61712
322.461 243.257 33.166
338.249 247.007 57.3648
345.315 215.921 57.3581
329.44 212.526 33.1655
340.445 247.505 59.6041
364.018 253.137 75.7241
371.209 221.53 75.7086
347.511 216.419 59.5974
366.879 253.79 76.9285
394.637 260.465 82.5358
401.969 228.254 82.5158
374.071 222.183 76.913
397.727 261.174 82.5261
425.451 267.865 76.8012
432.926 235.046 76.7866
405.059 228.963 82.5061
428.304 268.519 75.585
451.837 274.185 59.4518
459.443 240.827 59.4482
435.779 235.7 75.5703
454.029 274.681 57.2121
469.889 278.434 33.0322
477.597 244.658 33.036
461.635 241.323 57.2085
471.083 278.698 30.1043
476.674 279.997 1.53289
484.424 246.059 1.54094
478.791 244.922 30.1081
476.674 279.996 -1.63666
471.071 278.685 -30.1891
478.78 244.904 -30.1888
484.423 246.058 -1.62861
469.879 278.421 -33.1131
454.046 274.676 -57.2359
461.654 241.311 -57.23
477.588 244.64 -33.1127
451.856 274.181 -59.4725
428.324 268.517 -75.6079
435.799 235.693 -75.5911
459.463 240.816 -59.4667
425.47 267.863 -76.8245
397.746 261.173 -82.5535
405.079 228.96 -82.531
432.946 235.039 -76.8076
394.656 260.465 -82.5638
366.897 253.789 -76.9624
374.088 222.182 -76.9439
401.989 228.251 -82.5412
364.035 253.136 -75.7587
340.458 247.501 -59.6455
347.524 216.416 -59.6355
371.227 221.529 -75.7402
338.26 247.003 -57.4034
322.442 243.246 -33.1493
329.42 212.518 -33.1453
345.326 215.918 -57.3934
321.25 242.978 -30.2086
315.702 241.668 -1.56875
322.649 211.065 -1.56698
328.227 212.249 -30.2046
323.385 207.647 1.61716
328.983 208.839 30.2294
335.265 177.918 30.228
329.638 176.854 1.61912
330.181 209.081 33.1649
346.057 212.476 57.3575
352.418 181.204 57.3489
336.464 178.16 33.1636
348.264 212.925 59.5959
371.962 218.037 75.7071
378.435 186.257 75.6879
354.625 181.653 59.5873
374.837 218.628 76.9107
402.735 224.699 82.5135
409.332 192.334 82.4881
381.31 186.848 76.8915
405.84 225.342 82.5039
433.707 231.425 76.7844
440.429 198.466 76.7646
412.437 192.977 82.4786
436.575 232.016 75.569
460.239 237.142 59.4469
467.079 203.64 59.438
443.297 199.057 75.5492
462.444 237.584 57.2079
478.406 240.92 33.0354
485.345 206.962 33.0368
469.284 204.081 57.1991
479.607 241.15 30.1085
485.24 242.287 1.54133
492.221 208.152 1.54829
486.546 207.192 30.1099
485.24 242.286 -1.62781
479.597 241.132 -30.188
486.538 207.171 -30.1818
492.22 208.151 -1.62085
478.397 240.9 -33.1117
462.462 237.572 -57.2289
469.304 204.063 -57.2167
485.338 206.94 -33.1055
460.259 237.131 -59.465
436.595 232.008 -75.5894
443.318 199.046 -75.5666
467.101 203.622 -59.4528
433.727 231.418 -76.8052
405.86 225.338 -82.5285
412.457 192.972 -82.5
440.45 198.456 -76.7823
402.755 224.696 -82.5386
374.855 218.627 -76.9413
381.327 186.848 -76.9186
409.352 192.33 -82.5101
371.979 218.036 -75.7384
348.276 212.923 -59.6336
354.638 181.654 -59.6212
378.452 186.257 -75.7157
346.068 212.473 -57.3924
330.161 209.074 -33.1443
336.444 178.157 -33.139
352.429 181.205 -57.38
328.962 208.832 -30.2042
323.383 207.647 -1.56659
329.637 176.854 -1.56463
335.245 177.915 -30.1989
330.297 173.416 1.61905
335.924 174.48 30.228
341.524 143.379 30.2228
335.874 142.444 1.62109
337.128 174.695 33.1627
353.083 177.739 57.348
358.747 146.291 57.3339
342.727 143.594 33.1575
355.299 178.141 59.5853
379.108 182.745 75.6859
384.864 150.807 75.6602
360.963 146.693 59.5711
381.995 183.277 76.8885
410.017 188.763 82.4851
415.875 156.269 82.4514
387.751 151.339 76.8628
413.135 189.341 82.4756
441.127 194.831 76.7617
447.089 161.765 76.733
418.993 156.847 82.4419
444.008 195.359 75.547
467.79 199.941 59.4358
473.852 166.32 59.4149
449.97 162.293 75.5183
470.007 200.326 57.1976
486.068 203.206 33.0353
492.224 169.072 33.0312
476.068 166.705 57.1767
487.276 203.399 30.1099
492.95 204.359 1.54828
499.145 170.025 1.55359
493.432 169.265 30.1058
492.95 204.357 -1.61969
487.268 203.378 -30.1806
493.429 169.241 -30.1662
499.145 170.024 -1.61437
486.061 203.184 -33.1034
470.027 200.307 -57.2146
476.09 166.681 -57.1909
492.222 169.046 -33.0889
467.811 199.923 -59.4503
444.029 195.347 -75.564
449.992 162.279 -75.5326
473.875 166.297 -59.4266
441.148 194.82 -76.7791
413.155 189.336 -82.4968
419.014 156.841 -82.4602
447.111 161.752 -76.7477
410.037 188.758 -82.5067
382.013 183.276 -76.9153
387.77 151.341 -76.8859
415.896 156.264 -82.4702
379.126 182.745 -75.7132
355.312 178.142 -59.6187
360.977 146.7 -59.6001
384.883 150.809 -75.6839
353.093 177.74 -57.3786
337.108 174.692 -33.1377
342.708 143.598 -33.1281
358.759 146.298 -57.36
335.903 174.477 -30.1984
330.296 173.416 -1.56408
335.873 142.444 -1.56204
341.504 143.382 -30.1887
336.461 138.987 1.62022
342.111 139.922 30.2219
347.095 108.663 30.1911
341.437 107.862 1.62236
343.318 140.111 33.1545
359.338 142.808 57.3308
364.35 111.205 57.2743
348.302 108.852 33.1236
361.56 143.164 59.5662
385.461 147.278 75.6552
390.515 115.207 75.5819
366.572 111.562 59.5097
388.355 147.753 76.8568
416.479 152.683 82.4454
421.582 120.091 82.3648
393.409 115.682 76.7834
419.605 153.201 82.436
447.702 158.118 76.7271
452.86 124.987 76.6557
424.709 120.608 82.3554
450.592 158.584 75.5131
474.474 162.611 59.4097
479.692 128.892 59.351
455.75 125.452 75.4416
476.7 162.933 57.1729
492.856 165.301 33.0274
498.146 130.985 33.0052
481.918 129.214 57.1142
494.07 165.451 30.1051
499.783 166.211 1.5529
505.098 131.67 1.55912
499.36 131.135 30.0829
499.783 166.21 -1.61242
494.067 165.426 -30.1642
499.366 131.108 -30.1302
505.098 131.669 -1.6062
492.854 165.274 -33.0845
476.722 162.908 -57.1865
481.942 129.185 -57.133
498.153 130.956 -33.0506
474.497 162.587 -59.4215
450.614 158.569 -75.5275
455.775 125.437 -75.4583
479.718 128.864 -59.368
447.724 158.105 -76.7417
419.627 153.195 -82.4542
424.733 120.602 -82.3729
452.885 124.972 -76.6725
416.5 152.678 -82.4638
388.374 147.755 -76.8796
393.431 115.686 -76.8026
421.606 120.086 -82.3825
385.48 147.281 -75.6785
361.574 143.171 -59.5947
366.59 111.577 -59.5322
390.537 115.212 -75.6015
359.35 142.815 -57.3564
343.299 140.116 -33.1244
348.287 108.868 -33.0882
364.365 111.221 -57.2939
342.091 139.926 -30.1873
336.46 138.988 -1.56062
341.436 107.862 -1.55847
347.079 108.678 -30.1511
341.977 104.396 1.61575
347.635 105.197 30.1844
352.367 73.8955 29.9762
346.748 73.2306 1.61631
348.839 105.36 33.105
364.887 107.713 57.2556
369.514 76.0672 56.8864
353.571 74.0577 32.8967
367.104 108.024 59.4832
391.047 111.669 75.5554
395.526 79.5554 75.1049
371.731 76.3784 59.114
393.935 112.09 76.7541
422.108 116.499 82.3355
426.424 83.8753 81.8869
398.414 79.976 76.3037
425.228 116.959 82.3279
453.379 121.338 76.6282
457.534 88.2121 76.2317
429.544 84.3355 81.8794
456.267 121.738 75.4189
480.209 125.178 59.3283
484.27 91.3432 59.062
460.422 88.6127 75.0225
482.433 125.427 57.0994
498.661 127.198 32.9905
502.631 92.6428 32.8458
486.494 91.592 56.8332
499.874 127.298 30.0782
505.612 127.833 1.55435
509.529 93.0232 1.552
503.843 92.7429 29.9334
505.612 127.832 -1.6007
499.88 127.271 -30.1247
503.853 92.7207 -29.9771
509.529 93.0221 -1.60305
498.669 127.169 -33.0354
482.458 125.399 -57.1179
486.525 91.5681 -56.8457
502.642 92.6192 -32.8878
480.235 125.15 -59.3451
456.293 121.722 -75.4355
460.451 88.5965 -75.0315
484.301 91.3199 -59.0729
453.404 121.323 -76.6447
425.252 116.953 -82.3451
429.572 84.3303 -81.8906
457.563 88.197 -76.2407
422.132 116.494 -82.3528
393.957 112.094 -76.7729
398.44 79.9842 -76.3172
426.452 83.8712 -81.8983
391.069 111.675 -75.5743
367.122 108.04 -59.505
371.756 76.4046 -59.1267
395.552 79.5649 -75.1186
364.903 107.73 -57.2746
348.824 105.377 -33.0689
353.564 74.09 -32.8561
369.537 76.0944 -56.8963
347.619 105.213 -30.144
341.976 104.398 -1.5514
346.748 73.2318 -1.55084
352.359 73.9266 -29.9312
347.406 69.8168 1.57322
353.025 70.4817 29.9331
360.066 39.9746 28.6419
354.706 39.3369 1.57058
354.195 70.6271 32.7764
370.139 72.6366 56.7661
376.434 42.0377 54.3951
361.236 40.1199 31.4852
372.296 72.9166 58.9391
396.091 76.0936 74.9301
401.282 45.2857 71.8685
378.591 42.3177 56.5682
398.905 76.4722 76.1042
426.915 80.3714 81.6875
430.835 49.2389 78.4291
404.096 45.6643 73.0426
429.958 80.7848 81.6856
457.947 84.6615 76.0379
460.62 53.1782 73.0715
433.877 49.6523 78.4272
460.758 85.0177 74.8655
484.606 87.7482 58.905
486.157 56.241 56.6216
463.431 53.5344 71.8991
486.77 87.9672 56.7358
502.907 89.0181 32.7484
503.552 57.8591 31.4615
488.321 56.46 54.4524
504.087 89.1053 29.8988
509.773 89.3856 1.51744
510.072 58.3472 1.51213
504.733 57.9464 28.6119
509.773 89.3839 -1.56916
504.097 89.0825 -29.9432
504.73 57.8979 -28.6542
510.073 58.3454 -1.57448
502.918 88.9937 -32.7896
486.8 87.9426 -56.7475
488.35 56.414 -54.4452
503.551 57.809 -31.5005
484.638 87.7244 -58.9146
460.788 85.001 -74.8731
463.461 53.517 -71.8954
486.188 56.1958 -56.6122
457.976 84.6464 -76.046
429.986 80.7797 -81.6959
433.906 49.6493 -78.4309
460.649 53.1624 -73.0683
426.943 80.3677 -81.6983
398.931 76.4806 -76.1172
404.121 45.6778 -73.053
430.863 49.2373 -78.4332
396.117 76.1041 -74.9435
372.321 72.9439 -58.9515
378.61 42.3646 -56.5835
401.307 45.3012 -71.8793
370.161 72.6655 -56.7757
354.188 70.661 -32.7355
361.221 40.1719 -31.4502
376.45 42.0862 -54.4077
353.017 70.5137 -29.8882
347.406 69.819 -1.50782
354.706 39.3391 -1.51046
360.05 40.0246 -28.6029
355.558 36.0033 1.48577
360.917 36.6409 28.5571
368.949 6.98199 26.7894
363.931 6.38591 1.47796
362.023 36.7783 31.2449
377.221 38.6961 54.1548
384.281 8.91382 50.8929
370.055 7.11938 29.4772
379.26 38.9576 56.2093
401.951 41.9256 71.5096
407.562 11.8991 67.2262
386.32 9.17531 52.9473
404.611 42.2733 72.62
431.35 45.8479 78.0065
435.234 15.4829 73.3309
410.222 12.2468 68.3367
434.225 46.2242 78.0057
460.969 49.7501 72.65
463.1 19.0559 68.2943
438.11 15.8592 73.3301
463.625 50.0843 71.5404
486.351 52.7909 56.2629
486.952 21.9888 52.8978
465.757 19.3902 67.1847
488.388 53.0204 54.2087
503.619 54.4195 31.2177
503.17 23.7568 29.4011
488.989 22.2182 50.8436
504.725 54.5252 28.5256
510.064 54.926 1.42582
509.24 24.3209 1.43656
504.276 23.8625 26.7089
510.064 54.9226 -1.48734
504.721 54.4751 -28.567
504.269 23.7868 -26.7326
509.24 24.3176 -1.4766
503.617 54.3664 -31.2555
488.416 52.9714 -54.2002
489.007 22.1503 -50.8313
503.165 23.6781 -29.4211
486.381 52.7447 -56.2526
463.654 50.066 -71.5358
465.777 19.3742 -67.181
486.971 21.9237 -52.8838
460.997 49.7345 -72.6462
434.254 46.2214 -78.0088
438.13 15.8571 -73.3313
463.121 19.0427 -68.2915
431.378 45.8466 -78.0102
404.636 42.287 -72.63
410.239 12.2598 -68.343
435.254 15.4823 -73.3328
401.975 41.9422 -71.5203
379.278 39.0056 -56.2245
386.326 9.23711 -52.9623
407.578 11.915 -67.2333
377.236 38.7467 -54.168
362.007 36.8324 -31.2106
370.032 7.19137 -29.4553
384.284 8.97824 -50.9059
360.901 36.692 -28.5191
355.557 36.0065 -1.42673
363.93 6.38911 -1.43454
368.926 7.05101 -26.7638
364.965 3.35711 1.34832
369.983 3.95319 26.6598
380.257 -21.161 23.7805
375.834 -21.7826 1.3288
370.991 4.08521 29.1135
385.216 5.87965 50.5292
393.864 -19.2698 45.2646
381.265 -21.029 26.2342
387.079 6.12431 52.4054
408.321 8.84806 66.6843
414.609 -16.4949 59.8116
395.727 -19.0252 47.1409
410.752 9.16627 67.696
435.765 12.4024 72.6902
439.278 -13.2263 65.2151
417.041 -16.1767 60.8232
438.391 12.7451 72.6859
463.382 15.9418 67.6502
464.089 -9.95177 60.6862
441.904 -12.8836 65.2108
465.805 16.2537 66.6341
487 18.8523 52.3472
485.275 -7.16462 46.95
466.512 -9.63988 59.6701
488.855 19.0831 50.4739
503.036 20.6217 29.0314
499.644 -5.28431 26.1118
487.13 -6.93375 45.0767
504.041 20.7395 26.5811
509.006 21.198 1.30868
505.039 -4.58801 1.32668
500.649 -5.16643 23.6615
509.006 21.1958 -1.34486
504.035 20.6651 -26.6008
500.649 -5.1688 -23.6616
505.039 -4.59022 -1.32685
503.03 20.5451 -29.0507
488.872 19.0173 -50.461
487.13 -6.93848 -45.0767
499.644 -5.28882 -26.1115
487.018 18.7886 -52.334
465.824 16.2391 -66.6312
466.513 -9.64248 -59.6699
485.275 -7.16716 -46.9498
463.4 15.929 -67.6474
438.41 12.7434 -72.6872
441.905 -12.8844 -65.2106
464.089 -9.95263 -60.686
435.783 12.4014 -72.6917
410.767 9.17889 -67.7019
417.042 -16.1767 -60.8233
439.278 -13.2264 -65.2151
408.335 8.86233 -66.6903
387.083 6.18446 -52.4194
395.727 -19.0234 -47.1411
414.61 -16.4933 -59.8117
385.219 5.94193 -50.5426
370.967 4.15507 -29.092
381.264 -21.025 -26.234
393.863 -19.2659 -45.2643
369.959 4.02107 -26.6377
364.964 3.35918 -1.30844
375.834 -21.7805 -1.32795
380.256 -21.159 -23.7797
-69.4305 975.784 25.9233
-73.2449 972.398 0.165559
-69.3805 975.761 -25.586
-58.4286 985.362 -47.4228
-41.9713 999.677 -62.007
-22.4941 1016.48 -67.0991
-3.03248 1033.28 -61.9533
13.3951 1047.63 -47.3839
24.3104 1057.35 -25.5808
28.1368 1060.79 0.179848
24.3285 1057.3 25.9362
13.4211 1047.57 47.732
-3.01341 1033.23 62.299
-22.4835 1016.44 67.4407
-41.971 999.648 62.3439
-58.4671 985.371 47.7652
382.635 -22.3855 1.31945e-05
387.058 -21.764 22.4517
399.656 -20.0048 41.4821
418.539 -17.4746 54.1528
440.776 -14.5241 58.5446
462.96 -11.5923 54.02
481.723 -9.11705 41.3
494.237 -7.4676 22.335
498.627 -6.88918 0.000239176
494.237 -7.46776 -22.3346
481.723 -9.11742 -41.2997
462.96 -11.5927 -54.0199
440.776 -14.5245 -58.5445
418.539 -17.4748 -54.1527
399.656 -20.0049 -41.4821
387.058 -21.764 -22.4517
</DataArray>
</Points>
<Cells>
<DataArray type="Int32" Name="connectivity" format="ascii">
0 1 2 3 
4 5 6 7 
8 9 10 11 
12 13 14 15 
16 17 18 19 
20 21 22 23 
24 25 26 27 
28 29 30 31 
32 33 34 35 
36 37 38 39 
40 41 42 43 
44 45 46 47 
48 49 50 51 
52 53 54 55 
56 57 58 59 
60 61 62 63 
64 65 66 67 
68 69 70 71 
72 73 74 75 
76 77 78 79 
80 81 82 83 
84 85 86 87 
88 89 90 91 
92 93 94 95 
96 97 98 99 
100 101 102 103 
104 105 106 107 
108 109 110 111 
112 113 114 115 
116 117 118 119 
120 121 122 123 
124 125 126 127 
128 129 130 131 
132 133 134 135 
136 137 138 139 
140 141 142 143 
144 145 146 147 
148 149 150 151 
152 153 154 155 
156 157 158 159 
160 161 162 163 
164 165 166 167 
168 169 170 171 
172 173 174 175 
176 177 178 179 
180 181 182 183 
184 185 186 187 
188 189 190 191 
192 193 194 195 
196 197 198 199 
200 201 202 203 
204 205 206 207 
208 209 210 211 
212 213 214 215 
216 217 218 219 
220 221 222 223 
224 225 226 227 
228 229 230 231 
232 233 234 235 
236 237 238 239 
240 241 242 243 
244 245 246 247 
248 249 250 251 
252 253 254 255 
256 257 258 259 
260 261 262 263 
264 265 266 267 
268 269 270 271 
272 273 274 275 
276 277 278 279 
280 281 282 283 
284 285 286 287 
288 289 290 291 
292 293 294 295 
296 297 298 299 
300 301 302 303 
304 305 306 307 
308 309 310 311 
312 313 314 315 
316 317 318 319 
320 321 322 323 
324 325 326 327 
328 329 330 331 
332 333 334 335 
336 337 338 339 
340 341 342 343 
344 345 346 347 
348 349 350 351 
352 353 354 355 
356 357 358 359 
360 361 362 363 
364 365 366 367 
368 369 370 371 
372 373 374 375 
376 377 378 379 
380 381 382 383 
384 385 386 387 
388 389 390 391 
392 393 394 395 
396 397 398 399 
400 401 402 403 
404 405 406 407 
408 409 410 411 
412 413 414 415 
416 417 418 419 
420 421 422 423 
424 425 426 427 
428 429 430 431 
432 433 434 435 
436 437 438 439 
440 441 442 443 
444 445 446 447 
448 449 450 451 
452 453 454 455 
456 457 458 459 
460 461 462 463 
464 465 466 467 
468 469 470 471 
472 473 474 475 
476 477 478 479 
480 481 482 483 
484 485 486 487 
488 489 490 491 
492 493 494 495 
496 497 498 499 
500 501 502 503 
504 505 506 507 
508 509 510 511 
512 513 514 515 
516 517 518 519 
520 521 522 523 
524 525 526 527 
528 529 530 531 
532 533 534 535 
536 537 538 539 
540 541 542 543 
544 545 546 547 
548 549 550 551 
552 553 554 555 
556 557 558 559 
560 561 562 563 
564 565 566 567 
568 569 570 571 
572 573 574 575 
576 577 578 579 
580 581 582 583 
584 585 586 587 
588 589 590 591 
592 593 594 595 
596 597 598 599 
600 601 602 603 
604 605 606 607 
608 609 610 611 
612 613 614 615 
616 617 618 619 
620 621 622 623 
624 625 626 627 
628 629 630 631 
632 633 634 635 
636 637 638 639 
640 641 642 643 
644 645 646 647 
648 649 650 651 
652 653 654 655 
656 657 658 659 
660 661 662 663 
664 665 666 667 
668 669 670 671 
672 673 674 675 
676 677 678 679 
680 681 682 683 
684 685 686 687 
688 689 690 691 
692 693 694 695 
696 697 698 699 
700 701 702 703 
704 705 706 707 
708 709 710 711 
712 713 714 715 
716 717 718 719 
720 721 722 723 
724 725 726 727 
728 729 730 731 
732 733 734 735 
736 737 738 739 
740 741 742 743 
744 745 746 747 
748 749 750 751 
752 753 754 755 
756 757 758 759 
760 761 762 763 
764 765 766 767 
768 769 770 771 
772 773 774 775 
776 777 778 779 
780 781 782 783 
784 785 786 787 
788 789 790 791 
792 793 794 795 
796 797 798 799 
800 801 802 803 
804 805 806 807 
808 809 810 811 
812 813 814 815 
816 817 818 819 
820 821 822 823 
824 825 826 827 
828 829 830 831 
832 833 834 835 
836 837 838 839 
840 841 842 843 
844 845 846 847 
848 849 850 851 
852 853 854 855 
856 857 858 859 
860 861 862 863 
864 865 866 867 
868 869 870 871 
872 873 874 875 
876 877 878 879 
880 881 882 883 
884 885 886 887 
888 889 890 891 
892 893 894 895 
896 897 898 899 
900 901 902 903 
904 905 906 907 
908 909 910 911 
912 913 914 915 
916 917 918 919 
920 921 922 923 
924 925 926 927 
928 929 930 931 
932 933 934 935 
936 937 938 939 
940 941 942 943 
944 945 946 947 
948 949 950 951 
952 953 954 955 
956 957 958 959 
960 961 962 963 
964 965 966 967 
968 969 970 971 
972 973 974 975 
976 977 978 979 
980 981 982 983 
984 985 986 987 
988 989 990 991 
992 993 994 995 
996 997 998 999 
1000 1001 1002 1003 
1004 1005 1006 1007 
1008 1009 1010 1011 
1012 1013 1014 1015 
1016 1017 1018 1019 
1020 1021 1022 1023 
1024 1025 1026 1027 
1028 1029 1030 1031 
1032 1033 1034 1035 
1036 1037 1038 1039 
1040 1041 1042 1043 
1044 1045 1046 1047 
1048 1049 1050 1051 
1052 1053 1054 1055 
1056 1057 1058 1059 
1060 1061 1062 1063 
1064 1065 1066 1067 
1068 1069 1070 1071 
1072 1073 1074 1075 
1076 1077 1078 1079 
1080 1081 1082 1083 
1084 1085 1086 1087 
1088 1089 1090 1091 
1092 1093 1094 1095 
1096 1097 1098 1099 
1100 1101 1102 1103 
1104 1105 1106 1107 
1108 1109 1110 1111 
1112 1113 1114 1115 
1116 1117 1118 1119 
1120 1121 1122 1123 
1124 1125 1126 1127 
1128 1129 1130 1131 
1132 1133 1134 1135 
1136 1137 1138 1139 
1140 1141 1142 1143 
1144 1145 1146 1147 
1148 1149 1150 1151 
1152 1153 1154 1155 
1156 1157 1158 1159 
1160 1161 1162 1163 
1164 1165 1166 1167 
1168 1169 1170 1171 
1172 1173 1174 1175 
1176 1177 1178 1179 
1180 1181 1182 1183 
1184 1185 1186 1187 
1188 1189 1190 1191 
1192 1193 1194 1195 
1196 1197 1198 1199 
1200 1201 1202 1203 
1204 1205 1206 1207 
1208 1209 1210 1211 
1212 1213 1214 1215 
1216 1217 1218 1219 
1220 1221 1222 1223 
1224 1225 1226 1227 
1228 1229 1230 1231 
1232 1233 1234 1235 
1236 1237 1238 1239 
1240 1241 1242 1243 
1244 1245 1246 1247 
1248 1249 1250 1251 
1252 1253 1254 1255 
1256 1257 1258 1259 
1260 1261 1262 1263 
1264 1265 1266 1267 
1268 1269 1270 1271 
1272 1273 1274 1275 
1276 1277 1278 1279 
1280 1281 1282 1283 
1284 1285 1286 1287 
1288 1289 1290 1291 
1292 1293 1294 1295 
1296 1297 1298 1299 
1300 1301 1302 1303 
1304 1305 1306 1307 
1308 1309 1310 1311 
1312 1313 1314 1315 
1316 1317 1318 1319 
1320 1321 1322 1323 
1324 1325 1326 1327 
1328 1329 1330 1331 
1332 1333 1334 1335 
1336 1337 1338 1339 
1340 1341 1342 1343 
1344 1345 1346 1347 
1348 1349 1350 1351 
1352 1353 1354 1355 
1356 1357 1358 1359 
1360 1361 1362 1363 
1364 1365 1366 1367 
1368 1369 1370 1371 
1372 1373 1374 1375 
1376 1377 1378 1379 
1380 1381 1382 1383 
1384 1385 1386 1387 
1388 1389 1390 1391 
1392 1393 1394 1395 
1396 1397 1398 1399 
1400 1401 1402 1403 
1404 1405 1406 1407 
1408 1409 1410 1411 
1412 1413 1414 1415 
1416 1417 1418 1419 
1420 1421 1422 1423 
1424 1425 1426 1427 
1428 1429 1430 1431 
1432 1433 1434 1435 
1436 1437 1438 1439 
1440 1441 1442 1443 
1444 1445 1446 1447 
1448 1449 1450 1451 
1452 1453 1454 1455 
1456 1457 1458 1459 
1460 1461 1462 1463 
1464 1465 1466 1467 
1468 1469 1470 1471 
1472 1473 1474 1475 
1476 1477 1478 1479 
1480 1481 1482 1483 
1484 1485 1486 1487 
1488 1489 1490 1491 
1492 1493 1494 1495 
1496 1497 1498 1499 
1500 1501 1502 1503 
1504 1505 1506 1507 
1508 1509 1510 1511 
1512 1513 1514 1515 
1516 1517 1518 1519 
1520 1521 1522 1523 
1524 1525 1526 1527 
1528 1529 1530 1531 
1532 1533 1534 1535 
1536 1537 1538 1539 
1540 1541 1542 1543 
1544 1545 1546 1547 
1548 1549 1550 1551 
1552 1553 1554 1555 
1556 1557 1558 1559 
1560 1561 1562 1563 
1564 1565 1566 1567 
1568 1569 1570 1571 
1572 1573 1574 1575 
1576 1577 1578 1579 
1580 1581 1582 1583 
1584 1585 1586 1587 
1588 1589 1590 1591 
1592 1593 1594 1595 
1596 1597 1598 1599 
1600 1601 1602 1603 
1604 1605 1606 1607 
1608 1609 1610 1611 
1612 1613 1614 1615 
1616 1617 1618 1619 
1620 1621 1622 1623 
1624 1625 1626 1627 
1628 1629 1630 1631 
1632 1633 1634 1635 
1636 1637 1638 1639 
1640 1641 1642 1643 
1644 1645 1646 1647 
1648 1649 1650 1651 
1652 1653 1654 1655 
1656 1657 1658 1659 
1660 1661 1662 1663 
1664 1665 1666 1667 
1668 1669 1670 1671 
1672 1673 1674 1675 
1676 1677 1678 1679 
1680 1681 1682 1683 
1684 1685 1686 1687 
1688 1689 1690 1691 
1692 1693 1694 1695 
1696 1697 1698 1699 
1700 1701 1702 1703 
1704 1705 1706 1707 
1708 1709 1710 1711 
1712 1713 1714 1715 
1716 1717 1718 1719 
1720 1721 1722 1723 
1724 1725 1726 1727 
1728 1729 1730 1731 
1732 1733 1734 1735 
1736 1737 1738 1739 
1740 1741 1742 1743 
1744 1745 1746 1747 
1748 1749 1750 1751 
1752 1753 1754 1755 
1756 1757 1758 1759 
1760 1761 1762 1763 
1764 1765 1766 1767 
1768 1769 1770 1771 
1772 1773 1774 1775 
1776 1777 1778 1779 
1780 1781 1782 1783 
1784 1785 1786 1787 
1788 1789 1790 1791 
1792 1793 1794 1795 
1796 1797 1798 1799 
1800 1801 1802 1803 
1804 1805 1806 1807 
1808 1809 1810 1811 
1812 1813 1814 1815 
1816 1817 1818 1819 
1820 1821 1822 1823 
1824 1825 1826 1827 
1828 1829 1830 1831 
1832 1833 1834 1835 
1836 1837 1838 1839 
1840 1841 1842 1843 
1844 1845 1846 1847 
1848 1849 1850 1851 
1852 1853 1854 1855 
1856 1857 1858 1859 
1860 1861 1862 1863 
1864 1865 1866 1867 
1868 1869 1870 1871 
1872 1873 1874 1875 
1876 1877 1878 1879 
1880 1881 1882 1883 
1884 1885 1886 1887 
1888 1889 1890 1891 
1892 1893 1894 1895 
1896 1897 1898 1899 
1900 1901 1902 1903 
1904 1905 1906 1907 
1908 1909 1910 1911 
1912 1913 1914 1915 
1916 1917 1918 1919 
1920 1921 1922 1923 
1924 1925 1926 1927 
1928 1929 1930 1931 
1932 1933 1934 1935 
1936 1937 1938 1939 
1940 1941 1942 1943 
1944 1945 1946 1947 
1948 1949 1950 1951 
1952 1953 1954 1955 
1956 1957 1958 1959 
1960 1961 1962 1963 
1964 1965 1966 1967 
1968 1969 1970 1971 
1972 1973 1974 1975 
1976 1977 1978 1979 
1980 1981 1982 1983 
1984 1985 1986 1987 
1988 1989 1990 1991 
1992 1993 1994 1995 
1996 1997 1998 1999 
2000 2001 2002 2003 
2004 2005 2006 2007 
2008 2009 2010 2011 
2012 2013 2014 2015 
2016 2017 2018 2019 
2020 2021 2022 2023 
2024 2025 2026 2027 
2028 2029 2030 2031 
2032 2033 2034 2035 
2036 2037 2038 2039 
2040 2041 2042 2043 
2044 2045 2046 2047 
2048 2049 2050 2051 2052 2053 2054 2055 2056 2057 2058 2059 2060 2061 2062 2063 
2064 2065 2066 2067 2068 2069 2070 2071 2072 2073 2074 2075 2076 2077 2078 2079 
</DataArray>
<DataArray type="Int32" Name="offsets" format="ascii">
4 8 12 16 20 24 28 32 36 40 44 48 52 56 60 64 68 72 76 80 84 88 92 96 100 104 108 112 116 120 124 128 132 136 140 144 148 152 156 160 164 168 172 176 180 184 188 192 196 200 204 208 212 216 220 224 228 232 236 240 244 248 252 256 260 264 268 272 276 280 284 288 292 296 300 304 308 312 316 320 324 328 332 336 340 344 348 352 356 360 364 368 372 376 380 384 388 392 396 400 404 408 412 416 420 424 428 432 436 440 444 448 452 456 460 464 468 472 476 480 484 488 492 496 500 504 508 512 516 520 524 528 532 536 540 544 548 552 556 560 564 568 572 576 580 584 588 592 596 600 604 608 612 616 620 624 628 632 636 640 644 648 652 656 660 664 668 672 676 680 684 688 692 696 700 704 708 712 716 720 724 728 732 736 740 744 748 752 756 760 764 768 772 776 780 784 788 792 796 800 804 808 812 816 820 824 828 832 836 840 844 848 852 856 860 864 868 872 876 880 884 888 892 896 900 904 908 912 916 920 924 928 932 936 940 944 948 952 956 960 964 968 972 976 980 984 988 992 996 1000 1004 1008 1012 1016 1020 1024 1028 1032 1036 1040 1044 1048 1052 1056 1060 1064 1068 1072 1076 1080 1084 1088 1092 1096 1100 1104 1108 1112 1116 1120 1124 1128 1132 1136 1140 1144 1148 1152 1156 1160 1164 1168 1172 1176 1180 1184 1188 1192 1196 1200 1204 1208 1212 1216 1220 1224 1228 1232 1236 1240 1244 1248 1252 1256 1260 1264 1268 1272 1276 1280 1284 1288 1292 1296 1300 1304 1308 1312 1316 1320 1324 1328 1332 1336 1340 1344 1348 1352 1356 1360 1364 1368 1372 1376 1380 1384 1388 1392 1396 1400 1404 1408 1412 1416 1420 1424 1428 1432 1436 1440 1444 1448 1452 1456 1460 1464 1468 1472 1476 1480 1484 1488 1492 1496 1500 1504 1508 1512 1516 1520 1524 1528 1532 1536 1540 1544 1548 1552 1556 1560 1564 1568 1572 1576 1580 1584 1588 1592 1596 1600 1604 1608 1612 1616 1620 1624 1628 1632 1636 1640 1644 1648 1652 1656 1660 1664 1668 1672 1676 1680 1684 1688 1692 1696 1700 1704 1708 1712 1716 1720 1724 1728 1732 1736 1740 1744 1748 1752 1756 1760 1764 1768 1772 1776 1780 1784 1788 1792 1796 1800 1804 1808 1812 1816 1820 1824 1828 1832 1836 1840 1844 1848 1852 1856 1860 1864 1868 1872 1876 1880 1884 1888 1892 1896 1900 1904 1908 1912 1916 1920 1924 1928 1932 1936 1940 1944 1948 1952 1956 1960 1964 1968 1972 1976 1980 1984 1988 1992 1996 2000 2004 2008 2012 2016 2020 2024 2028 2032 2036 2040 2044 2048 2064 2080 
</DataArray>
<DataArray type="UInt8" Name="types" format="ascii">
7 7 7 7 7 7 7 7 7 7 7 7 7 7 7 7 7 7 7 7 7 7 7 7 7 7 7 7 7 7 7 7 7 7 7 7 7 7 7 7 7 7 7 7 7 7 7 7 7 7 7 7 7 7 7 7 7 7 7 7 7 7 7 7 7 7 7 7 7 7 7 7 7 7 7 7 7 7 7 7 7 7 7 7 7 7 7 7 7 7 7 7 7 7 7 7 7 7 7 7 7 7 7 7 7 7 7 7 7 7 7 7 7 7 7 7 7 7 7 7 7 7 7 7 7 7 7 7 7 7 7 7 7 7 7 7 7 7 7 7 7 7 7 7 7 7 7 7 7 7 7 7 7 7 7 7 7 7 7 7 7 7 7 7 7 7 7 7 7 7 7 7 7 7 7 7 7 7 7 7 7 7 7 7 7 7 7 7 7 7 7 7 7 7 7 7 7 7 7 7 7 7 7 7 7 7 7 7 7 7 7 7 7 7 7 7 7 7 7 7 7 7 7 7 7 7 7 7 7 7 7 7 7 7 7 7 7 7 7 7 7 7 7 7 7 7 7 7 7 7 7 7 7 7 7 7 7 7 7 7 7 7 7 7 7 7 7 7 7 7 7 7 7 7 7 7 7 7 7 7 7 7 7 7 7 7 7 7 7 7 7 7 7 7 7 7 7 7 7 7 7 7 7 7 7 7 7 7 7 7 7 7 7 7 7 7 7 7 7 7 7 7 7 7 7 7 7 7 7 7 7 7 7 7 7 7 7 7 7 7 7 7 7 7 7 7 7 7 7 7 7 7 7 7 7 7 7 7 7 7 7 7 7 7 7 7 7 7 7 7 7 7 7 7 7 7 7 7 7 7 7 7 7 7 7 7 7 7 7 7 7 7 7 7 7 7 7 7 7 7 7 7 7 7 7 7 7 7 7 7 7 7 7 7 7 7 7 7 7 7 7 7 7 7 7 7 7 7 7 7 7 7 7 7 7 7 7 7 7 7 7 7 7 7 7 7 7 7 7 7 7 7 7 7 7 7 7 7 7 7 7 7 7 7 7 7 7 7 7 7 7 7 7 7 7 7 7 7 7 7 7 7 7 7 7 7 7 7 7 7 7 7 7 7 7 7 7 7 7 7 7 7 7 7 7 7 7 7 7 7 7 7 7 7 
</DataArray>
</Cells>
<CellData Scalars="cell variable 4" Vectors="cell vector">
<DataArray type="Float64" NumberOfComponents="3" Name="cell vector" format="ascii">
0.163545 0.0991191 0.981544
0.49701 0.226554 0.837648
0.758299 0.304224 0.576567
0.888697 0.391165 0.239182
0.769104 0.610993 -0.187525
0.376588 0.725918 -0.575521
-0.160025 -0.548439 0.820735
-0.0297215 -0.220036 0.975039
0.0445037 0.20806 0.977103
0.142532 0.557693 0.817718
0.364207 0.73223 0.575493
0.761777 0.619373 0.189928
0.885743 0.398343 -0.23829
0.745694 0.333926 -0.57657
-0.480778 -0.257806 0.838086
-0.177171 -0.0764069 0.98121
0.153033 0.120789 0.980811
0.440017 0.338818 0.831617
0.658368 0.507006 0.556324
0.768835 0.608503 0.196512
0.74389 0.639233 -0.194961
0.583583 0.592311 -0.555516
-0.366104 -0.420659 0.830069
-0.126128 -0.150978 0.980458
0.128292 0.148263 0.980591
0.363912 0.422407 0.830145
0.58166 0.593919 0.555816
0.742329 0.640909 0.195404
0.766943 0.611004 -0.196143
0.655905 0.510317 -0.556206
-0.438394 -0.341012 0.831578
-0.155481 -0.118043 0.980761
0.1533 0.121371 0.980698
0.438076 0.342998 0.830929
0.654911 0.51305 0.554861
0.767505 0.610726 0.194806
0.749392 0.632712 -0.195158
0.578461 0.599224 -0.553456
-0.367352 -0.422678 0.82849
-0.128854 -0.149266 0.980365
0.130334 0.147377 0.980456
0.366278 0.423388 0.828603
0.577617 0.599715 0.553805
0.748148 0.634073 0.195513
0.766169 0.612492 -0.194523
0.653735 0.514801 -0.554626
-0.436996 -0.344488 0.830881
-0.154144 -0.120191 0.980711
0.154688 0.120221 0.980621
0.441264 0.340128 0.830421
0.660279 0.50745 0.553648
0.775554 0.600954 0.193314
0.760444 0.619254 -0.195576
0.56421 0.61415 -0.551803
-0.172841 -0.602925 0.77885
-0.555426 0.750824 -0.357443
-0.562483 0.753455 0.340469
0.158198 0.613655 0.773564
0.563461 0.614545 0.552129
0.759342 0.620503 0.195898
0.774573 0.602309 -0.19303
0.659648 0.508599 -0.553345
-0.44031 -0.34147 0.830377
-0.154749 -0.119658 0.980681
0.156282 0.118534 0.980574
0.44489 0.336094 0.830129
0.664879 0.502094 0.553027
0.780174 0.595199 0.19253
0.766335 0.611851 -0.195879
0.6007 0.577452 -0.55291
-0.233879 -0.560749 0.794268
-0.498923 0.747247 -0.438975
-0.499707 0.747454 0.437727
0.220463 0.57194 0.790114
0.600019 0.57787 0.553213
0.765599 0.612661 0.196227
0.779551 0.596123 -0.192189
0.664569 0.502892 -0.552674
-0.444165 -0.337163 0.830083
-0.155958 -0.118273 0.980657
0.157674 0.116661 0.980576
0.448443 0.331179 0.830192
0.670091 0.494965 0.553162
0.787044 0.58608 0.192539
0.776817 0.598406 -0.196126
0.628035 0.547149 -0.553353
-0.298557 -0.505611 0.809457
-0.384133 0.691386 -0.611904
-0.372808 0.682195 0.628986
0.281696 0.521866 0.805173
0.626708 0.548383 0.553636
0.776131 0.599172 0.196504
0.786634 0.586759 -0.192147
0.669968 0.49556 -0.552777
-0.447898 -0.33203 0.830147
-0.157188 -0.116527 0.98067
0.159267 0.114289 0.980598
0.452822 0.32469 0.830379
0.676764 0.48543 0.553487
0.795761 0.57414 0.192686
0.788615 0.582691 -0.196362
0.648759 0.521915 -0.55382
-0.35115 -0.453707 0.81905
0.216847 -0.559998 0.799612
-0.172193 0.513724 0.840499
0.334471 0.47189 0.81575
0.647251 0.523491 0.554097
0.787994 0.583402 0.196743
0.795471 0.574679 -0.192273
0.676724 0.485941 -0.553088
-0.452399 -0.325392 0.830335
-0.158714 -0.1142 0.980698
0.161089 0.111493 0.980622
0.457953 0.31691 0.83057
0.684608 0.473934 0.553803
0.805686 0.560076 0.192835
0.800724 0.565867 -0.196558
0.665885 0.499401 -0.554252
-0.392414 -0.407716 0.824487
0.0234328 -0.357145 0.933755
-0.00870052 0.338893 0.940785
0.377625 0.425682 0.82231
0.664531 0.500901 0.554524
0.800195 0.566484 0.196936
0.805468 0.560534 -0.192415
0.684602 0.474414 -0.553399
-0.457611 -0.31751 0.83053
-0.160502 -0.111415 0.980727
0.163084 0.108371 0.980642
0.463617 0.308148 0.830725
0.693216 0.460952 0.554053
0.816322 0.544415 0.192951
0.812851 0.548243 -0.196728
0.681055 0.478084 -0.554618
-0.423107 -0.369719 0.827217
-0.0665008 -0.248339 0.966388
0.0687277 0.245509 0.966955
0.411346 0.385429 0.825977
0.679706 0.479701 0.554876
0.81235 0.548853 0.197097
0.816145 0.544829 -0.192532
0.693236 0.461405 -0.553651
-0.463332 -0.308667 0.830691
-0.162477 -0.108289 0.980752
0.165184 0.105004 0.980657
0.469611 0.298613 0.83084
0.702302 0.446764 0.554233
0.827365 0.527454 0.193026
0.824885 0.52991 -0.196876
0.694388 0.45816 -0.554901
-0.44527 -0.339642 0.828479
-0.109789 -0.1915 0.975333
0.111344 0.189606 0.975527
0.436947 0.351738 0.827863
0.693151 0.459741 0.55514
0.824403 0.530529 0.197226
0.827203 0.527857 -0.192618
0.702333 0.447204 -0.553839
-0.469368 -0.299067 0.830815
-0.164563 -0.104907 0.980772
0.167339 0.101442 0.980667
0.475754 0.28849 0.830922
0.711589 0.431656 0.55436
0.838535 0.509493 0.193072
0.836687 0.511029 -0.196988
0.706321 0.439284 -0.555103
-0.461881 -0.315163 0.829058
-0.135227 -0.155618 0.978518
0.137908 0.151917 0.978725
0.456504 0.323632 0.828774
0.705268 0.440696 0.555323
0.836246 0.511625 0.197316
0.838384 0.509889 -0.192681
0.711623 0.432088 -0.553979
-0.475535 -0.288891 0.830908
-0.166703 -0.101328 0.980787
0.169502 0.0977285 0.980672
0.481898 0.277941 0.830977
0.720852 0.415889 0.554445
0.849626 0.490763 0.1931
0.848186 0.491675 -0.197068
0.717357 0.420834 -0.555246
-0.474568 -0.294987 0.829317
-0.151092 -0.131648 0.979714
0.154529 0.126515 0.979854
0.471339 0.300514 0.829175
0.716507 0.422017 0.555445
0.847802 0.492215 0.197375
0.849491 0.491143 -0.192728
0.720891 0.416309 -0.554079
-0.481695 -0.278298 0.830976
-0.168847 -0.0975984 0.980798
0.171638 0.0938993 0.980675
0.487959 0.267051 0.831012
0.729972 0.399589 0.554499
0.860501 0.471427 0.193115
0.859334 0.471896 -0.197127
0.727667 0.402609 -0.555343
-0.484667 -0.277727 0.829437
-0.161385 -0.114991 0.980169
0.165017 0.109257 0.98022
0.482875 0.281112 0.829342
0.727003 0.403561 0.555522
0.859014 0.47236 0.197413
0.860387 0.47178 -0.192762
0.730018 0.399991 -0.554149
-0.487767 -0.267366 0.831023
-0.170961 -0.0937542 0.980807
0.173725 0.0899724 0.980676
0.493879 0.255874 0.831031
0.738864 0.382852 0.554531
0.871071 0.451597 0.193122
0.870086 0.451746 -0.19717
0.737341 0.384511 -0.555409
-0.493039 -0.262394 0.829495
-0.168334 -0.10292 0.980342
0.171814 0.0971868 0.980324
0.492155 0.264326 0.829407
0.736831 0.385258 0.555569
0.869827 0.452128 0.197435
0.870981 0.451912 -0.192788
0.738919 0.383229 -0.554197
-0.493694 -0.256148 0.831056
-0.173025 -0.0898126 0.980814
0.175747 0.0859659 0.980675
0.499609 0.244465 0.83104
0.747458 0.365764 0.554547
0.881265 0.431365 0.193122
0.880405 0.431277 -0.1972
0.74645 0.366452 -0.555451
-0.500279 -0.24821 0.829526
-0.173317 -0.0935934 0.980409
0.176503 0.0881533 0.980345
0.499954 0.249186 0.829429
0.746061 0.367028 0.555592
0.880202 0.431579 0.197446
0.881202 0.431636 -0.192806
0.747526 0.366109 -0.554228
-0.499433 -0.244698 0.831078
-0.175025 -0.0857917 0.980819
0.17769 0.0818958 0.980673
0.505115 0.232877 0.83104
0.755704 0.348404 0.55455
0.891031 0.410816 0.193116
0.890262 0.410534 -0.19722
0.755047 0.348357 -0.555474
-0.506812 -0.234526 0.829542
-0.17723 -0.0856541 0.980435
0.18014 0.0805151 0.98034
0.506852 0.234826 0.829432
0.754755 0.348793 0.555598
0.890107 0.41076 0.197447
0.890994 0.411037 -0.192818
0.755787 0.348709 -0.554246
-0.504945 -0.233066 0.83109
-0.176947 -0.0817088 0.980823
0.179545 0.0777797 0.98067
0.510364 0.221161 0.831033
0.76356 0.330848 0.554541
0.900326 0.39003 0.193106
0.899635 0.38956 -0.19723
0.763186 0.330133 -0.555481
-0.512943 -0.220775 0.829547
-0.180677 -0.0780184 0.980443
0.183446 0.0729121 0.980322
0.513279 0.220456 0.829424
0.762967 0.330458 0.555589
0.899524 0.38971 0.19744
0.900314 0.390197 -0.192825
0.763658 0.331109 -0.55425
-0.510203 -0.221304 0.831094
-0.178781 -0.0775834 0.980825
0.181301 0.0736388 0.980667
0.515335 0.209375 0.831018
0.770992 0.313178 0.554519
0.909113 0.369093 0.19309
0.908506 0.368397 -0.19723
0.770936 0.311623 -0.555472
-0.51887 -0.206487 0.829541
-0.184124 -0.0696274 0.980434
0.186959 0.0640437 0.980278
0.519517 0.205412 0.829402
0.770776 0.311851 0.555566
0.908438 0.368462 0.197424
0.909127 0.369198 -0.192825
0.771105 0.313392 -0.554241
-0.515182 -0.209472 0.831089
-0.18052 -0.0734373 0.980826
0.182956 0.0694891 0.980662
0.520013 0.19757 0.830995
0.777973 0.295475 0.554484
0.917362 0.348097 0.193068
0.916858 0.347094 -0.197221
0.778347 0.292674 -0.555445
-0.52477 -0.191103 0.829516
-0.188056 -0.0590563 0.980381
0.191255 0.0521207 0.980156
0.52582 0.188899 0.829356
0.77825 0.292775 0.555526
0.916836 0.347052 0.1974
0.917402 0.348131 -0.192817
0.7781 0.295643 -0.554216
-0.519869 -0.197622 0.831073
-0.182159 -0.0692885 0.980825
0.184506 0.0653478 0.980656
0.524388 0.185803 0.83096
0.784485 0.277831 0.55443
0.925048 0.327145 0.193036
0.924674 0.325714 -0.197201
0.785437 0.273179 -0.555394
-0.53085 -0.173797 0.829453
-0.193082 -0.0440598 0.980193
0.197184 0.0339743 0.979778
0.532501 0.169672 0.829249
0.785426 0.273064 0.555465
0.924704 0.325528 0.197365
0.925114 0.327098 -0.192799
0.784624 0.277957 -0.554171
-0.524252 -0.185812 0.831044
-0.183696 -0.0651569 0.980821
0.185951 0.0612387 0.980649
0.528453 0.174144 0.83091
0.790512 0.260354 0.554352
0.932146 0.306363 0.192992
0.931935 0.304339 -0.197168
0.792218 0.253021 -0.555311
-0.537301 -0.153481 0.829307
-0.200056 -0.0208148 0.979563
0.206244 0.00318468 0.978496
0.53989 0.145931 0.828989
0.792327 0.252542 0.555373
0.932024 0.303969 0.19732
0.932236 0.306232 -0.192765
0.790659 0.260446 -0.554099
-0.528326 -0.174111 0.830998
-0.185128 -0.0610666 0.980815
0.187288 0.0571948 0.980638
0.532201 0.162684 0.83084
0.796038 0.243182 0.554244
0.938636 0.285902 0.192933
0.938627 0.283062 -0.197115
0.798697 0.232059 -0.555186
-0.544261 -0.128771 0.828974
-0.210199 0.0174209 0.977503
0.221508 -0.055439 0.973581
0.548245 0.115217 0.828343
0.798952 0.231051 0.55524
0.938768 0.282494 0.19726
0.938742 0.285701 -0.192713
0.79619 0.243254 -0.553994
-0.532085 -0.162607 0.83093
-0.186454 -0.057047 0.980806
0.188518 0.0532619 0.980624
0.535628 0.151555 0.830743
0.801049 0.226502 0.554092
0.944499 0.265947 0.192856
0.944752 0.261956 -0.197032
0.804892 0.210069 -0.554995
-0.551751 -0.0979757 0.828234
-0.224929 0.0819462 0.970923
0.24756 -0.174875 0.95296
0.557452 0.0749879 0.826816
0.805263 0.208516 0.555043
0.94492 0.261242 0.197176
0.944612 0.265704 -0.192638
0.801203 0.226563 -0.553844
-0.535524 -0.151419 0.830835
-0.187674 -0.0531408 0.980793
0.189639 0.0495012 0.980605
0.538725 0.140948 0.830608
0.805522 0.210598 0.55388
0.949714 0.24676 0.192752
0.950323 0.241068 -0.196906
0.810851 0.186618 -0.554702
-0.559699 -0.0586073 0.826621
-0.245709 0.194076 0.949716
0.276345 -0.362001 0.890275
0.566792 0.0232574 0.823533
0.811258 0.184708 0.554747
0.950489 0.240295 0.197048
0.949826 0.246492 -0.19254
0.805678 0.210639 -0.553637
-0.538638 -0.140724 0.830702
-0.188788 -0.0494134 0.980774
0.190647 0.045998 0.98058
0.541476 0.131138 0.830425
0.809424 0.195884 0.55359
0.954241 0.22875 0.192609
0.955345 0.220483 -0.196731
0.816618 0.160977 -0.554276
-0.567771 -0.00678109 0.823158
-0.270935 0.392932 0.878748
0.285635 -0.524956 0.801769
0.574942 -0.0415633 0.817138
0.817027 0.158753 0.554315
0.955508 0.219654 0.196866
0.954355 0.228441 -0.192409
0.809584 0.195889 -0.553355
-0.541411 -0.130787 0.830523
-0.189791 -0.0459626 0.980748
0.191522 0.0428716 0.980552
0.543843 0.12249 0.830199
0.812713 0.182904 0.553212
0.958036 0.212473 0.192411
0.959801 0.200396 -0.196527
0.822156 0.132065 -0.553731
-0.574675 0.0614726 0.81607
-0.278347 0.661045 0.696809
0.278631 -0.690027 0.668003
0.579892 -0.120719 0.8057
0.822613 0.129109 0.55375
0.959977 0.199425 0.196656
0.958152 0.212115 -0.192227
0.812873 0.182861 -0.552991
-0.543806 -0.121956 0.830302
-0.19067 -0.0429161 0.980716
0.192214 0.0402597 0.980527
0.545734 0.115433 0.82997
0.815318 0.172265 0.552794
0.961067 0.198555 0.19216
0.963667 0.181096 -0.196342
0.82736 0.097703 -0.553108
-0.577639 0.146429 0.803051
-0.249294 0.845406 0.472378
-0.247858 0.854346 -0.456793
0.57888 -0.211733 0.787443
0.827751 0.0944167 0.553095
0.963825 0.180116 0.196468
0.961183 0.198153 -0.191998
0.815483 0.172116 -0.552598
-0.545739 -0.114605 0.830081
-0.191392 -0.0404194 0.980681
0.192617 0.0382171 0.980529
0.546941 0.110235 0.829882
0.817061 0.16452 0.552579
0.963197 0.18809 0.192026
0.966689 0.16437 -0.196203
0.831927 0.0529615 -0.552352
-0.572458 0.254154 0.779549
-0.205295 0.930364 0.30377
-0.204262 0.932982 -0.296348
0.568741 -0.312544 0.760822
0.832089 0.0508924 0.552302
0.966787 0.163698 0.196279
0.963319 0.187563 -0.191927
0.817236 0.164099 -0.552446
-0.547013 -0.108958 0.830003
-0.191883 -0.038577 0.980659
0.192564 0.0365265 0.980604
0.546983 0.106762 0.830308
0.817188 0.160912 0.553453
0.963443 0.185696 0.193117
0.967621 0.159297 -0.19579
0.834595 -0.0260074 -0.550249
-0.522144 0.510674 0.683065
-0.140566 0.979302 0.145629
-0.138739 0.981029 -0.135402
0.505147 -0.569925 0.648084
0.834643 -0.0292438 0.550015
0.967885 0.157593 0.195863
0.96365 0.184677 -0.193063
0.817375 0.160006 -0.553441
-0.547153 -0.104915 0.830431
-0.19201 -0.0373372 0.980682
0.191791 0.0334013 0.980867
0.54546 0.097792 0.832412
0.816875 0.146539 0.55789
0.965789 0.167419 0.198047
0.970864 0.139887 -0.19456
0.829004 0.0198624 -0.55889
-0.555256 0.0103595 0.831615
-0.195118 0.00347099 0.980774
0.195101 -0.0017111 0.980782
0.55524 -0.0132818 0.831584
0.828982 0.0179013 0.558989
0.971068 0.13804 0.194866
0.966053 0.166145 -0.197834
0.817131 0.145343 -0.557828
-0.545787 -0.0959963 0.832407
-0.191303 -0.034547 0.980923
0.19216 0.0307264 0.980882
0.546262 0.0904747 0.832714
0.818192 0.135723 0.558695
0.967784 0.154349 0.198924
0.972501 0.127053 -0.195193
0.826443 0.0472605 -0.561034
-0.550304 -0.00536408 0.834947
-0.192735 -6.08827e-05 0.981251
0.192989 0.000922024 0.981201
0.550133 0.00131769 0.835076
0.826366 0.0466455 0.561199
0.972594 0.125831 0.195517
0.968064 0.152993 -0.198607
0.818504 0.134552 -0.558521
-0.546605 -0.0890498 0.832642
-0.191536 -0.0320943 0.980961
0.191417 0.0303571 0.981039
0.543515 0.092182 0.834322
0.815208 0.139104 0.562215
0.968499 0.148181 0.200129
0.974707 0.0823605 -0.207759
0.815485 -0.0136342 -0.578617
-0.538775 0.0280768 0.841982
-0.188216 0.012551 0.982047
0.188576 -0.00971354 0.982011
0.53713 -0.0379146 0.842647
0.815199 -0.0157528 0.578966
0.974736 0.0809593 0.208172
0.968919 0.146191 -0.199558
0.816067 0.136225 -0.561674
-0.544571 -0.0893437 0.833942
-0.190115 -0.033629 0.981186
0.0180345 0.0153693 0.999719
0.00257188 0.000343963 0.999997
</DataArray>
<DataArray type="Float64" Name="cell vector length" format="ascii">
0.124581 0.106359 0.0933055 0.0746902 0.0541472 0.0919776 0.149096 0.150703 0.146598 0.142254 0.0946853 0.0541969 0.0734058 0.0909576 0.126847 0.133033 0.392601 0.370489 0.346254 0.32222 0.304804 0.325194 0.390302 0.4234 0.418103 0.375444 0.323376 0.304739 0.322939 0.348929 0.390779 0.399736 0.49121 0.470997 0.445008 0.414619 0.384168 0.401756 0.484153 0.530736 0.527312 0.472773 0.400579 0.38427 0.415468 0.446842 0.486813 0.496385 0.515899 0.494971 0.465807 0.42799 0.378152 0.278261 0.140964 0.0523643 0.0515195 0.134741 0.279196 0.378284 0.428623 0.467015 0.50932 0.520457 0.528235 0.506154 0.473059 0.426697 0.36016 0.256234 0.133741 0.039444 0.0384024 0.126908 0.256887 0.360358 0.427152 0.473819 0.519738 0.532444 0.535995 0.512326 0.475028 0.420959 0.343777 0.237139 0.126698 0.0259557 0.0244861 0.115747 0.237612 0.34398 0.421267 0.475476 0.525508 0.540023 0.541456 0.516354 0.475634 0.41588 0.332119 0.223505 0.121221 0.0202165 0.0201478 0.106539 0.223573 0.332154 0.416019 0.475859 0.529338 0.545398 0.545244 0.519027 0.475806 0.412107 0.32406 0.213958 0.118649 0.0235308 0.0230824 0.0999968 0.213656 0.323891 0.41207 0.475861 0.531936 0.549152 0.547841 0.520781 0.47577 0.40937 0.318485 0.207353 0.116876 0.0284995 0.0249229 0.0953242 0.206759 0.318113 0.409166 0.475688 0.533686 0.551746 0.549599 0.521908 0.475622 0.40738 0.314638 0.203272 0.116234 0.0318467 0.0259217 0.0926606 0.202417 0.314059 0.407019 0.475425 0.534853 0.55352 0.550749 0.522584 0.475433 0.405962 0.311985 0.200182 0.115601 0.0341761 0.0267424 0.0906963 0.199136 0.311217 0.405451 0.475133 0.535596 0.554697 0.551498 0.522975 0.475224 0.404921 0.310107 0.197991 0.115147 0.0357198 0.0273671 0.0893715 0.196818 0.309182 0.404276 0.47483 0.536065 0.555478 0.551987 0.523187 0.475005 0.404132 0.308749 0.196417 0.114765 0.0365985 0.0276877 0.0883929 0.195163 0.307702 0.403372 0.474528 0.536362 0.556001 0.552294 0.523276 0.474791 0.403527 0.307753 0.19526 0.114423 0.0370013 0.0277363 0.0876067 0.193955 0.306615 0.402675 0.474244 0.536542 0.556346 0.552475 0.523285 0.474588 0.403061 0.307014 0.194386 0.114095 0.0370628 0.0275514 0.0869157 0.193045 0.305808 0.402138 0.473986 0.536646 0.556565 0.552562 0.523238 0.474402 0.402708 0.306466 0.193711 0.11376 0.03686 0.0271565 0.0862668 0.192346 0.30521 0.401733 0.473761 0.536699 0.556693 0.552568 0.523145 0.474236 0.402457 0.306079 0.193169 0.113366 0.0364126 0.0265417 0.0856009 0.191792 0.304784 0.401447 0.473572 0.536712 0.556742 0.552492 0.523004 0.47409 0.402312 0.305857 0.192709 0.112864 0.0357115 0.0256322 0.0847842 0.191293 0.304528 0.401285 0.473421 0.536682 0.556711 0.552313 0.522799 0.473959 0.402289 0.305842 0.192453 0.112365 0.0347486 0.0243804 0.0839047 0.190962 0.304484 0.401265 0.473307 0.536599 0.556581 0.55199 0.522501 0.473838 0.402422 0.306121 0.192514 0.111904 0.0334225 0.0226424 0.0829932 0.190918 0.304743 0.401425 0.473228 0.536433 0.556311 0.551458 0.522058 0.473713 0.402763 0.306826 0.193053 0.111533 0.0315896 0.0202114 0.0820986 0.191334 0.30545 0.401829 0.473174 0.536137 0.555837 0.550623 0.521401 0.47357 0.403389 0.308139 0.194301 0.111343 0.029088 0.0169527 0.0813623 0.192476 0.306809 0.402555 0.473129 0.535642 0.555065 0.549352 0.520431 0.473394 0.404416 0.310323 0.196579 0.111461 0.0258033 0.0135437 0.0811053 0.19471 0.309092 0.403715 0.473073 0.534851 0.553866 0.547449 0.519003 0.473165 0.406025 0.313766 0.200346 0.112081 0.02199 0.0123703 0.0820353 0.19851 0.312673 0.40548 0.472985 0.533629 0.552048 0.544624 0.516897 0.472848 0.408477 0.319038 0.206267 0.113584 0.0189507 0.0146545 0.0851482 0.20453 0.31811 0.408102 0.47283 0.531774 0.54933 0.540433 0.513753 0.472302 0.412034 0.326873 0.215157 0.116651 0.0209059 0.0193929 0.0914786 0.213681 0.326172 0.411839 0.472466 0.528942 0.545282 0.534003 0.508719 0.470833 0.416426 0.337816 0.227513 0.121398 0.0323606 0.0312487 0.100448 0.226537 0.337409 0.416395 0.47119 0.52433 0.539054 0.522197 0.498246 0.464379 0.417523 0.349247 0.240247 0.123797 0.0558699 0.0559105 0.109959 0.239462 0.348962 0.417578 0.464969 0.514566 0.527581 0.486387 0.462096 0.430091 0.389304 0.335076 0.219938 0.0998766 0.118356 0.118865 0.0960092 0.221141 0.334902 0.389394 0.430912 0.480042 0.492428 0.464189 0.440146 0.409575 0.373432 0.337022 0.356355 0.451871 0.499761 0.494538 0.435226 0.355362 0.337123 0.373682 0.410569 0.45915 0.470577 0.426126 0.401114 0.369619 0.334717 0.308796 0.32522 0.402791 0.439946 0.432785 0.381629 0.324296 0.309122 0.335032 0.370626 0.42113 0.432879 0.199533 0.17945 0.153351 0.123264 0.109217 0.138011 0.219916 0.260804 0.255472 0.2032 0.139913 0.110311 0.123123 0.151872 0.19825 0.205374 0.0310693 0.0152124 
</DataArray>
<DataArray type="Float64" Name="cell variable 4" format="ascii">
830.91 820.275 814.474 809.4 804.077 822.143 844.962 834.214 830.745 837.07 823.464 804.09 808.653 811.882 833.633 835.258 1129.75 1108.96 1095.8 1088.38 1085.88 1101.49 1140.94 1141.08 1134.72 1121.08 1101.82 1085.95 1088.06 1095.77 1137.36 1139.05 1334.57 1310.9 1295.27 1285.36 1280.62 1293.65 1344.98 1348.22 1341.78 1322.27 1293.96 1280.76 1285.41 1295.52 1344.82 1345.38 1383.62 1356.46 1335.35 1318.8 1305.99 1305.42 1355.85 1391.35 1388.78 1341.74 1305.31 1305.82 1318.76 1335.59 1391.58 1394.82 1394.64 1367.34 1346.49 1331.24 1320.05 1314.03 1349.72 1362.98 1361.71 1336.27 1313.88 1319.87 1331.21 1346.7 1402.73 1405.89 1398.17 1369.95 1347.75 1331.46 1319.48 1312.36 1345.38 1341.25 1340.84 1327.02 1312.52 1319.47 1331.52 1347.95 1405.45 1409.45 1400.54 1371.13 1347.29 1329.83 1317.46 1310.33 1342.91 1329.26 1330.31 1319.35 1310.5 1317.54 1329.97 1347.5 1406.81 1411.89 1402.28 1371.88 1346.69 1328.32 1315.72 1308.59 1341.5 1325.71 1325.67 1313.82 1308.82 1315.88 1328.5 1346.9 1407.78 1413.72 1403.63 1372.4 1346.1 1327.03 1314.29 1307.14 1340.95 1326.38 1322.26 1310.17 1307.45 1314.5 1327.23 1346.31 1408.58 1415.18 1404.65 1372.76 1345.59 1325.99 1313.14 1306.01 1340.88 1326.62 1319.41 1307.76 1306.34 1313.4 1326.23 1345.82 1409.24 1416.34 1405.35 1372.91 1345.19 1325.22 1312.26 1305.11 1340.85 1326.85 1317.57 1306.08 1305.43 1312.54 1325.47 1345.42 1409.71 1417.17 1405.82 1372.95 1344.87 1324.67 1311.62 1304.39 1340.82 1327.06 1316.45 1304.91 1304.71 1311.91 1324.94 1345.12 1410.06 1417.77 1406.16 1372.92 1344.58 1324.21 1311.09 1303.78 1340.8 1327.19 1315.76 1304.06 1304.09 1311.38 1324.49 1344.83 1410.34 1418.25 1406.37 1372.82 1344.29 1323.82 1310.64 1303.25 1340.76 1327.27 1315.32 1303.41 1303.56 1310.94 1324.1 1344.55 1410.54 1418.6 1406.46 1372.65 1344.02 1323.5 1310.27 1302.79 1340.71 1327.3 1314.99 1302.87 1303.1 1310.57 1323.78 1344.27 1410.65 1418.82 1406.42 1372.43 1343.75 1323.24 1309.97 1302.39 1340.66 1327.29 1314.7 1302.41 1302.71 1310.27 1323.52 1344.01 1410.7 1418.9 1406.26 1372.13 1343.5 1323.05 1309.74 1302.05 1340.61 1327.24 1314.41 1301.97 1302.37 1310.04 1323.33 1343.75 1410.65 1418.85 1405.97 1371.77 1343.24 1322.91 1309.57 1301.77 1340.56 1327.16 1314.07 1301.55 1302.08 1309.88 1323.2 1343.51 1410.51 1418.67 1405.57 1371.34 1342.99 1322.82 1309.47 1301.53 1340.5 1327.04 1313.62 1301.11 1301.83 1309.78 1323.11 1343.25 1410.29 1418.36 1405.04 1370.83 1342.72 1322.76 1309.42 1301.34 1340.44 1326.86 1313 1300.66 1301.63 1309.73 1323.07 1342.99 1409.98 1417.93 1404.38 1370.26 1342.44 1322.75 1309.43 1301.21 1340.38 1326.63 1312.16 1300.2 1301.5 1309.76 1323.07 1342.72 1409.58 1417.34 1403.56 1369.59 1342.17 1322.82 1309.53 1301.14 1340.35 1326.4 1311.2 1299.85 1301.45 1309.87 1323.14 1342.45 1409.06 1416.6 1402.56 1368.84 1341.95 1323.01 1309.75 1301.13 1340.35 1326.31 1311.18 1299.81 1301.49 1310.11 1323.32 1342.2 1408.44 1415.66 1401.31 1367.97 1341.79 1323.41 1310.19 1301.23 1340.46 1326.6 1314.56 1300.39 1301.62 1310.53 1323.69 1342.03 1407.7 1414.47 1399.72 1366.96 1341.74 1324.09 1310.92 1301.49 1340.9 1328.33 1322.64 1302.05 1301.81 1311.22 1324.36 1341.97 1406.8 1412.93 1397.55 1365.6 1341.65 1324.93 1311.78 1301.7 1342.09 1335.12 1333.89 1305.92 1301.99 1312.05 1325.16 1341.86 1405.51 1410.79 1393.61 1362.65 1340.11 1324.37 1311.3 1300.48 1343.71 1351.39 1351.62 1312.41 1300.94 1311.51 1324.53 1340.27 1402.55 1406.85 1380.11 1349.58 1327.55 1312.27 1299.78 1289.78 1339.99 1376.38 1377.12 1317.64 1289.76 1299.73 1312.33 1327.72 1389.18 1393.28 1306.65 1276.22 1252.55 1234.41 1219.3 1215.77 1296.18 1415.37 1413.61 1281.39 1215.72 1219.06 1234.33 1252.57 1313.41 1319.05 1243.87 1217 1198.41 1186.54 1179.55 1189.97 1252.79 1261.21 1252.93 1225.11 1190.44 1179.54 1186.42 1198.27 1252.21 1255.64 1115.27 1089.47 1069.58 1054.97 1046.11 1052.77 1104.37 1109.34 1099.15 1074.13 1053.09 1046.26 1054.87 1069.61 1120.75 1125.89 790.512 782.285 782.273 788.181 797.119 812.57 853.987 861.693 855.384 834.743 813.927 797.415 788.005 780.652 801.111 796.203 608.988 745.326 
</DataArray>
<DataArray type="Float64" Name="cell variable 5" format="ascii">
0.00847765 0.00847765 0.00847765 0.00847765 0.00847765 0.00847765 0.00847765 0.00847765 0.00847765 0.00847765 0.00847765 0.00847765 0.00847765 0.00847765 0.00847765 0.00847765 0.00847765 0.00847765 0.00847765 0.00847765 0.00847765 0.00847765 0.00847765 0.00847765 0.00847765 0.00847765 0.00847765 0.00847765 0.00847765 0.00847765 0.00847765 0.00847765 0.00847765 0.00847765 0.00847765 0.00847765 0.00847765 0.00847765 0.00847765 0.00847765 0.00847765 0.00847765 0.00847765 0.00847765 0.00847765 0.00847765 0.00847765 0.00847765 0.0128126 0.0118612 0.0103258 0.00886197 0.00847765 0.00847765 0.00847765 0.00847765 0.00847765 0.00847765 0.00847765 0.00847765 0.00886197 0.0103258 0.0118612 0.0128126 0.0144968 0.0131761 0.0110435 0.0090108 0.00847765 0.00847765 0.00847765 0.00847765 0.00847765 0.00847765 0.00847765 0.00847765 0.0090108 0.0110435 0.0131761 0.0144968 0.0154726 0.0139391 0.0114599 0.00909746 0.00847765 0.00847765 0.00847765 0.00847765 0.00847765 0.00847765 0.00847765 0.00847765 0.00909746 0.0114599 0.0139391 0.0154726 0.0161829 0.0144911 0.0117632 0.00916151 0.00847765 0.00847765 0.00847765 0.00847765 0.00847765 0.00847765 0.00847765 0.00847765 0.00916151 0.0117632 0.0144911 0.0161829 0.0167368 0.0149244 0.0119987 0.00921049 0.00847765 0.00847765 0.00847765 0.00847765 0.00847765 0.00847765 0.00847765 0.00847765 0.00921049 0.0119987 0.0149244 0.0167368 0.0171833 0.015273 0.012189 0.00925006 0.00847765 0.00847765 0.00847765 0.00847765 0.00847765 0.00847765 0.00847765 0.00847765 0.00925006 0.012189 0.015273 0.0171833 0.0175487 0.0155574 0.0123453 0.00928208 0.00847765 0.00847765 0.00847765 0.00847765 0.00847765 0.00847765 0.00847765 0.00847765 0.00928208 0.0123453 0.0155574 0.0175487 0.0178445 0.0157891 0.0124716 0.00930846 0.00847765 0.00847765 0.00847765 0.00847765 0.00847765 0.00847765 0.00847765 0.00847765 0.00930846 0.0124716 0.0157891 0.0178445 0.0180819 0.0159757 0.0125733 0.00932918 0.00847765 0.00847765 0.00847765 0.00847765 0.00847765 0.00847765 0.00847765 0.00847765 0.00932918 0.0125733 0.0159757 0.0180819 0.0182665 0.0161188 0.0126505 0.00934614 0.00847765 0.00847765 0.00847765 0.00847765 0.00847765 0.00847765 0.00847765 0.00847765 0.00934614 0.0126505 0.0161188 0.0182665 0.0184021 0.0162243 0.0127089 0.00935744 0.00847765 0.00847765 0.00847765 0.00847765 0.00847765 0.00847765 0.00847765 0.00847765 0.00935744 0.0127089 0.0162243 0.0184021 0.0184926 0.016294 0.0127466 0.00936686 0.00847765 0.00847765 0.00847765 0.00847765 0.00847765 0.00847765 0.00847765 0.00847765 0.00936686 0.0127466 0.016294 0.0184926 0.0185359 0.0163298 0.0127655 0.00937063 0.00847765 0.00847765 0.00847765 0.00847765 0.00847765 0.00847765 0.00847765 0.00847765 0.00937063 0.0127655 0.0163298 0.0185359 0.0185359 0.0163298 0.0127655 0.00937063 0.00847765 0.00847765 0.00847765 0.00847765 0.00847765 0.00847765 0.00847765 0.00847765 0.00937063 0.0127655 0.0163298 0.0185359 0.0184926 0.016294 0.0127466 0.00936686 0.00847765 0.00847765 0.00847765 0.00847765 0.00847765 0.00847765 0.00847765 0.00847765 0.00936686 0.0127466 0.016294 0.0184926 0.0184021 0.0162243 0.0127089 0.00935744 0.00847765 0.00847765 0.00847765 0.00847765 0.00847765 0.00847765 0.00847765 0.00847765 0.00935744 0.0127089 0.0162243 0.0184021 0.0182665 0.0161188 0.0126505 0.00934614 0.00847765 0.00847765 0.00847765 0.00847765 0.00847765 0.00847765 0.00847765 0.00847765 0.00934614 0.0126505 0.0161188 0.0182665 0.0180819 0.0159757 0.0125733 0.00932918 0.00847765 0.00847765 0.00847765 0.00847765 0.00847765 0.00847765 0.00847765 0.00847765 0.00932918 0.0125733 0.0159757 0.0180819 0.0178445 0.0157891 0.0124716 0.00930846 0.00847765 0.00847765 0.00847765 0.00847765 0.00847765 0.00847765 0.00847765 0.00847765 0.00930846 0.0124716 0.0157891 0.0178445 0.0175487 0.0155574 0.0123453 0.00928208 0.00847765 0.00847765 0.00847765 0.00847765 0.00847765 0.00847765 0.00847765 0.00847765 0.00928208 0.0123453 0.0155574 0.0175487 0.0171833 0.015273 0.012189 0.00925006 0.00847765 0.00847765 0.00847765 0.00847765 0.00847765 0.00847765 0.00847765 0.00847765 0.00925006 0.012189 0.015273 0.0171833 0.0167368 0.0149244 0.0119987 0.00921049 0.00847765 0.00847765 0.00847765 0.00847765 0.00847765 0.00847765 0.00847765 0.00847765 0.00921049 0.0119987 0.0149244 0.0167368 0.0161829 0.0144911 0.0117632 0.00916151 0.00847765 0.00847765 0.00847765 0.00847765 0.00847765 0.00847765 0.00847765 0.00847765 0.00916151 0.0117632 0.0144911 0.0161829 0.0154726 0.0139391 0.0114599 0.00909746 0.00847765 0.00847765 0.00847765 0.00847765 0.00847765 0.00847765 0.00847765 0.00847765 0.00909746 0.0114599 0.0139391 0.0154726 0.0144968 0.0131761 0.0110435 0.0090108 0.00847765 0.00847765 0.00847765 0.00847765 0.00847765 0.00847765 0.00847765 0.00847765 0.0090108 0.0110435 0.0131761 0.0144968 0.0128126 0.0118612 0.0103258 0.00886197 0.00847765 0.00847765 0.00847765 0.00847765 0.00847765 0.00847765 0.00847765 0.00847765 0.00886197 0.0103258 0.0118612 0.0128126 0.00847765 0.00847765 0.00847765 0.00847765 0.00847765 0.00847765 0.00847765 0.00847765 0.00847765 0.00847765 0.00847765 0.00847765 0.00847765 0.00847765 0.00847765 0.00847765 0.00847765 0.00847765 0.00847765 0.00847765 0.00847765 0.00847765 0.00847765 0.00847765 0.00847765 0.00847765 0.00847765 0.00847765 0.00847765 0.00847765 0.00847765 0.00847765 0.00847765 0.00847765 0.00847765 0.00847765 0.00847765 0.00847765 0.00847765 0.00847765 0.00847765 0.00847765 0.00847765 0.00847765 0.00847765 0.00847765 0.00847765 0.00847765 0.00847765 0.00847765 
</DataArray>
<DataArray type="Float64" Name="cell variable 6" format="ascii">
1 1 1 1 1 1 1 1 1 1 1 1 1 1 1 1 1 1 1 1 1 1 1 1 1 1 1 1 1 1 1 1 1 1 1 1 1 1 1 1 1 1 1 1 1 1 1 1 1 1 1 1 1 1 1 1 1 1 1 1 1 1 1 1 1 1 1 1 1 1 1 1 1 1 1 1 1 1 1 1 1 1 1 1 1 1 1 1 1 1 1 1 1 1 1 1 1 1 1 1 1 1 1 1 1 1 1 1 1 1 1 1 1 1 1 1 1 1 1 1 1 1 1 1 1 1 1 1 1 1 1 1 1 1 1 1 1 1 1 1 1 1 1 1 1 1 1 1 1 1 1 1 1 1 1 1 1 1 1 1 1 1 1 1 1 1 1 1 1 1 1 1 1 1 1 1 1 1 1 1 1 1 1 1 1 1 1 1 1 1 1 1 1 1 1 1 1 1 1 1 1 1 1 1 1 1 1 1 1 1 1 1 1 1 1 1 1 1 1 1 1 1 1 1 1 1 1 1 1 1 1 1 1 1 1 1 1 1 1 1 1 1 1 1 1 1 1 1 1 1 1 1 1 1 1 1 1 1 1 1 1 1 1 1 1 1 1 1 1 1 1 1 1 1 1 1 1 1 1 1 1 1 1 1 1 1 1 1 1 1 1 1 1 1 1 1 1 1 1 1 1 1 1 1 1 1 1 1 1 1 1 1 1 1 1 1 1 1 1 1 1 1 1 1 1 1 1 1 1 1 1 1 1 1 1 1 1 1 1 1 1 1 1 1 1 1 1 1 1 1 1 1 1 1 1 1 1 1 1 1 1 1 1 1 1 1 1 1 1 1 1 1 1 1 1 1 1 1 1 1 1 1 1 1 1 1 1 1 1 1 1 1 1 1 1 1 1 1 1 1 1 1 1 1 1 1 1 1 1 1 1 1 1 1 1 1 1 1 1 1 1 1 1 1 1 1 1 1 1 1 1 1 1 1 1 1 1 1 1 1 1 1 1 1 1 1 1 1 1 1 1 1 1 1 1 1 1 1 1 1 1 1 1 1 1 1 1 1 1 1 1 1 1 1 1 1 1 1 1 1 1 1 1 1 1 1 1 1 1 1 1 1 1 1 1 1 1 1 1 1 1 1 1 1 1 1 1 1 1 1 1 1 1 1 
</DataArray>
<DataArray type="Float64" Name="cell variable 7" format="ascii">
0 0 0 0 0 0 0 0 0 0 0 0 0 0 0 0 0 0 0 0 0 0 0 0 0 0 0 0 0 0 0 0 0 0 0 0 0 0 0 0 0 0 0 0 0 0 0 0 0 0 0 0 0 0 0 0 0 0 0 0 0 0 0 0 0 0 0 0 0 0 0 0 0 0 0 0 0 0 0 0 0 0 0 0 0 0 0 0 0 0 0 0 0 0 0 0 0 0 0 0 0 0 0 0 0 0 0 0 0 0 0 0 0 0 0 0 0 0 0 0 0 0 0 0 0 0 0 0 0 0 0 0 0 0 0 0 0 0 0 0 0 0 0 0 0 0 0 0 0 0 0 0 0 0 0 0 0 0 0 0 0 0 0 0 0 0 0 0 0 0 0 0 0 0 0 0 0 0 0 0 0 0 0 0 0 0 0 0 0 0 0 0 0 0 0 0 0 0 0 0 0 0 0 0 0 0 0 0 0 0 0 0 0 0 0 0 0 0 0 0 0 0 0 0 0 0 0 0 0 0 0 0 0 0 0 0 0 0 0 0 0 0 0 0 0 0 0 0 0 0 0 0 0 0 0 0 0 0 0 0 0 0 0 0 0 0 0 0 0 0 0 0 0 0 0 0 0 0 0 0 0 0 0 0 0 0 0 0 0 0 0 0 0 0 0 0 0 0 0 0 0 0 0 0 0 0 0 0 0 0 0 0 0 0 0 0 0 0 0 0 0 0 0 0 0 0 0 0 0 0 0 0 0 0 0 0 0 0 0 0 0 0 0 0 0 0 0 0 0 0 0 0 0 0 0 0 0 0 0 0 0 0 0 0 0 0 0 0 0 0 0 0 0 0 0 0 0 0 0 0 0 0 0 0 0 0 0 0 0 0 0 0 0 0 0 0 0 0 0 0 0 0 0 0 0 0 0 0 0 0 0 0 0 0 0 0 0 0 0 0 0 0 0 0 0 0 0 0 0 0 0 0 0 0 0 0 0 0 0 0 0 0 0 0 0 0 0 0 0 0 0 0 0 0 0 0 0 0 0 0 0 0 0 0 0 0 0 0 0 0 0 0 0 0 0 0 0 0 0 0 0 0 0 0 0 0 0 0 0 0 0 0 0 0 0 0 0 0 0 0 0 0 0 0 0 0 0 0 0 0 0 0 1 1 
</DataArray>
<DataArray type="Float64" Name="cell variable 8" format="ascii">
11.25 33.75 56.25 78.75 101.25 123.75 146.25 168.75 191.25 213.75 236.25 258.75 281.25 303.75 326.25 348.75 11.25 33.75 56.25 78.75 101.25 123.75 146.25 168.75 191.25 213.75 236.25 258.75 281.25 303.75 326.25 348.75 11.25 33.75 56.25 78.75 101.25 123.75 146.25 168.75 191.25 213.75 236.25 258.75 281.25 303.75 326.25 348.75 11.25 33.75 56.25 78.75 101.25 123.75 146.25 168.75 191.25 213.75 236.25 258.75 281.25 303.75 326.25 348.75 11.25 33.75 56.25 78.75 101.25 123.75 146.25 168.75 191.25 213.75 236.25 258.75 281.25 303.75 326.25 348.75 11.25 33.75 56.25 78.75 101.25 123.75 146.25 168.75 191.25 213.75 236.25 258.75 281.25 303.75 326.25 348.75 11.25 33.75 56.25 78.75 101.25 123.75 146.25 168.75 191.25 213.75 236.25 258.75 281.25 303.75 326.25 348.75 11.25 33.75 56.25 78.75 101.25 123.75 146.25 168.75 191.25 213.75 236.25 258.75 281.25 303.75 326.25 348.75 11.25 33.75 56.25 78.75 101.25 123.75 146.25 168.75 191.25 213.75 236.25 258.75 281.25 303.75 326.25 348.75 11.25 33.75 56.25 78.75 101.25 123.75 146.25 168.75 191.25 213.75 236.25 258.75 281.25 303.75 326.25 348.75 11.25 33.75 56.25 78.75 101.25 123.75 146.25 168.75 191.25 213.75 236.25 258.75 281.25 303.75 326.25 348.75 11.25 33.75 56.25 78.75 101.25 123.75 146.25 168.75 191.25 213.75 236.25 258.75 281.25 303.75 326.25 348.75 11.25 33.75 56.25 78.75 101.25 123.75 146.25 168.75 191.25 213.75 236.25 258.75 281.25 303.75 326.25 348.75 11.25 33.75 56.25 78.75 101.25 123.75 146.25 168.75 191.25 213.75 236.25 258.75 281.25 303.75 326.25 348.75 11.25 33.75 56.25 78.75 101.25 123.75 146.25 168.75 191.25 213.75 236.25 258.75 281.25 303.75 326.25 348.75 11.25 33.75 56.25 78.75 101.25 123.75 146.25 168.75 191.25 213.75 236.25 258.75 281.25 303.75 326.25 348.75 11.25 33.75 56.25 78.75 101.25 123.75 146.25 168.75 191.25 213.75 236.25 258.75 281.25 303.75 326.25 348.75 11.25 33.75 56.25 78.75 101.25 123.75 146.25 168.75 191.25 213.75 236.25 258.75 281.25 303.75 326.25 348.75 11.25 33.75 56.25 78.75 101.25 123.75 146.25 168.75 191.25 213.75 236.25 258.75 281.25 303.75 326.25 348.75 11.25 33.75 56.25 78.75 101.25 123.75 146.25 168.75 191.25 213.75 236.25 258.75 281.25 303.75 326.25 348.75 11.25 33.75 56.25 78.75 101.25 123.75 146.25 168.75 191.25 213.75 236.25 258.75 281.25 303.75 326.25 348.75 11.25 33.75 56.25 78.75 101.25 123.75 146.25 168.75 191.25 213.75 236.25 258.75 281.25 303.75 326.25 348.75 11.25 33.75 56.25 78.75 101.25 123.75 146.25 168.75 191.25 213.75 236.25 258.75 281.25 303.75 326.25 348.75 11.25 33.75 56.25 78.75 101.25 123.75 146.25 168.75 191.25 213.75 236.25 258.75 281.25 303.75 326.25 348.75 11.25 33.75 56.25 78.75 101.25 123.75 146.25 168.75 191.25 213.75 236.25 258.75 281.25 303.75 326.25 348.75 11.25 33.75 56.25 78.75 101.25 123.75 146.25 168.75 191.25 213.75 236.25 258.75 281.25 303.75 326.25 348.75 11.25 33.75 56.25 78.75 101.25 123.75 146.25 168.75 191.25 213.75 236.25 258.75 281.25 303.75 326.25 348.75 11.25 33.75 56.25 78.75 101.25 123.75 146.25 168.75 191.25 213.75 236.25 258.75 281.25 303.75 326.25 348.75 11.25 33.75 56.25 78.75 101.25 123.75 146.25 168.75 191.25 213.75 236.25 258.75 281.25 303.75 326.25 348.75 11.25 33.75 56.25 78.75 101.25 123.75 146.25 168.75 191.25 213.75 236.25 258.75 281.25 303.75 326.25 348.75 11.25 33.75 56.25 78.75 101.25 123.75 146.25 168.75 191.25 213.75 236.25 258.75 281.25 303.75 326.25 348.75 11.25 33.75 56.25 78.75 101.25 123.75 146.25 168.75 191.25 213.75 236.25 258.75 281.25 303.75 326.25 348.75 0 0 
</DataArray>
</CellData>
</Piece>
</UnstructuredGrid>
</VTKFile>
