<VTKFile type="UnstructuredGrid" version="0.1">
<UnstructuredGrid>
<Piece  NumberOfPoints="    2080" NumberOfCells="     514">
<Points>
<DataArray type="Float64" NumberOfComponents="3" format="ascii">
-99.8098 1001.55 1.05254
-95.9725 1004.96 26.829
-80.0759 979.449 28.9516
-84.2701 975.776 1.09913
-95.1092 1005.71 29.5807
-84.075 1015.32 51.3966
-67.2299 990.567 55.2482
-79.2126 980.202 31.7034
-82.4777 1016.7 53.4958
-65.9551 1031.02 68.0015
-47.7254 1007.41 73.0055
-65.6327 991.95 57.3475
-63.8757 1032.82 69.1312
-44.5279 1049.76 74.1684
-24.6478 1027.51 79.5754
-45.646 1009.22 74.1351
-42.2974 1051.73 74.1639
-23.1574 1068.86 69.0357
-1.65441 1048.02 74.0667
-22.4173 1029.48 79.5708
-21.1236 1070.71 67.9037
-5.11985 1085.58 53.4099
17.6799 1066.1 57.3015
0.379384 1049.87 72.9347
-3.58442 1087.04 51.3129
6.99401 1097.26 29.5468
30.5716 1078.69 31.6311
19.2153 1067.56 55.2045
7.81719 1098.07 26.7949
11.5365 1101.66 1.01351
35.3514 1083.44 1.02243
31.3947 1079.5 28.8792
11.5365 1101.66 -1.97097
7.81871 1098.06 -27.7524
31.3974 1079.49 -29.8111
35.3514 1083.44 -1.96204
6.99643 1097.26 -30.5033
-3.57064 1087.01 -52.265
19.241 1067.52 -56.1129
30.5751 1078.68 -32.5619
-5.10371 1085.55 -54.3605
-21.087 1070.64 -68.8406
0.429467 1049.8 -73.8304
17.7079 1066.06 -58.2084
-23.1189 1068.78 -69.9712
-42.2464 1051.64 -75.0863
-22.3524 1029.38 -80.4522
-1.60244 1047.94 -74.961
-44.4758 1049.66 -75.0894
-63.8161 1032.72 -70.0393
-45.5701 1009.12 -75.0005
-24.5817 1027.41 -80.4553
-65.8934 1030.91 -68.9081
-82.3812 1016.58 -54.3796
-65.5441 991.856 -58.1951
-47.6475 1007.32 -73.8693
-83.9781 1015.2 -52.2779
-95.0177 1005.62 -30.457
-79.1549 980.129 -32.5058
-67.141 990.474 -56.0934
-95.886 1004.88 -27.7029
-99.8061 1001.55 -1.92984
-84.2664 975.772 -1.88325
-80.0232 979.383 -29.7518
-82.2406 972.96 1.17631
-78.0463 976.633 29.0288
-56.9932 951.252 29.6504
-61.2912 947.532 1.20208
-65.1542 987.784 55.4607
-43.8319 962.536 56.6023
-56.0838 952.037 32.5374
-77.1369 977.418 31.9158
-45.5673 1004.69 73.3217
-23.8415 979.648 74.8441
-42.1522 963.981 58.8053
-63.4745 989.229 57.6637
-22.3825 1024.87 79.9487
-0.165914 1000.08 81.6334
-21.655 981.536 76.0309
-43.3807 1006.58 74.5085
0.725569 1045.47 74.442
23.3836 1021.01 76.0138
2.17928 1002.14 81.6308
-20.0373 1026.93 79.9461
20.1543 1063.65 57.6223
42.9468 1039.65 58.7977
25.5119 1022.97 74.8272
2.85384 1047.42 73.2555
33.1085 1076.33 31.8451
55.9328 1052.66 32.4739
44.5447 1041.19 56.5939
21.7522 1065.19 55.4185
37.9184 1081.12 1.0972
60.7572 1057.57 1.11423
56.7861 1053.51 29.5828
33.9618 1077.18 28.954
33.9646 1077.16 -29.8827
56.7929 1053.48 -30.4695
60.7573 1057.57 -2.0166
37.9185 1081.12 -2.03364
21.7787 1065.15 -56.3221
44.5812 1041.15 -57.4385
55.9412 1052.63 -33.358
33.1128 1076.31 -32.7712
2.90509 1047.35 -74.1456
25.5669 1022.89 -75.6623
42.986 1039.6 -59.64
20.1835 1063.61 -58.5236
-19.9715 1026.84 -80.8223
2.2464 1002.05 -82.4558
23.4403 1020.94 -76.8478
0.778462 1045.39 -75.3311
-43.304 1006.48 -75.3689
-21.5808 981.44 -76.8441
-0.0977024 999.989 -82.4571
-22.3156 1024.77 -80.8237
-63.3864 989.136 -58.5066
-42.0775 963.894 -59.6082
-23.7665 979.552 -75.656
-45.4897 1004.59 -74.1808
-77.0815 977.348 -32.7127
-56.0477 951.97 -33.2866
-43.7587 962.451 -57.4019
-65.0677 987.692 -56.3002
-77.9951 976.567 -29.8219
-82.2384 972.956 -1.95338
-61.289 947.528 -1.92762
-56.9613 951.189 -30.3958
-58.9147 944.754 1.22396
-54.6168 948.474 29.6723
-32.7358 923.762 29.791
-37.0742 920.059 1.24642
-53.6926 949.262 32.5955
-41.4407 959.761 56.6603
-19.4494 934.998 56.8654
-31.8116 924.55 32.7141
-39.7338 961.212 58.8926
-21.4231 976.879 74.9314
0.746162 952.033 75.1992
-17.7425 936.449 59.0976
-19.2002 978.775 76.1353
2.28882 997.319 81.7379
24.6795 972.368 82.0291
2.96904 953.929 76.4031
4.66873 999.393 81.7352
25.8731 1018.27 76.1181
48.3837 993.298 76.3451
27.0594 974.443 82.0264
28.0132 1020.25 74.9158
45.4481 1036.93 58.8863
67.7447 1012.35 59.0697
50.5238 995.279 75.1428
47.0408 1038.52 56.6539
58.4289 1049.99 32.5338
80.5773 1025.71 32.6753
69.3374 1013.93 56.8373
59.2788 1050.86 29.6059
63.2498 1054.92 1.13732
85.363 1030.76 1.17064
81.4272 1026.59 29.7474
63.2505 1054.92 -2.03403
59.2861 1050.83 -30.4869
81.445 1026.55 -30.568
85.3637 1030.75 -2.00071
58.4385 1049.95 -33.4123
47.0785 1038.47 -57.4929
69.3789 1013.87 -57.6319
80.5974 1025.67 -33.4934
45.4877 1036.88 -59.723
28.0686 1020.17 -75.7452
50.5756 995.202 -75.9274
67.7881 1012.28 -59.8621
25.9296 1018.19 -76.9467
4.73572 999.303 -82.5547
27.1208 974.35 -82.8008
48.4366 993.218 -77.1289
2.35661 997.227 -82.5564
-19.1265 978.679 -76.9434
3.03511 953.833 -77.1671
24.7416 972.274 -82.8025
-21.3492 976.783 -75.7384
-39.6601 961.125 -59.6906
-17.6806 936.365 -59.8539
0.812388 951.937 -75.9622
-41.3691 959.676 -57.4551
-53.6581 949.195 -33.3399
-31.7881 924.485 -33.4153
-19.3896 934.916 -57.6184
-54.5857 948.411 -30.4126
-58.9134 944.751 -1.94438
-37.0728 920.056 -1.92192
-32.7157 923.701 -30.488
-34.659 917.316 1.25252
-30.3206 921.019 29.7971
-8.66164 896.309 29.8339
-13.0697 892.66 1.27282
-29.3847 921.8 32.7264
-17.0225 932.249 56.8777
4.8176 907.39 56.9124
-7.72572 897.09 32.7632
-15.2951 933.686 59.1131
3.19361 949.269 75.2146
25.2827 924.195 75.2247
6.54499 908.827 59.1478
5.44301 951.147 76.4189
27.1534 969.586 82.0448
49.5306 944.248 82.0282
27.5321 926.072 76.429
29.5657 971.641 82.038
50.89 990.497 76.3568
73.6843 964.754 76.3185
51.9428 946.302 82.0214
53.0645 992.466 75.142
70.2853 1009.53 59.0688
93.7864 983.142 59.0149
75.8588 966.723 75.1037
71.8962 1011.1 56.8343
83.1361 1022.88 32.6723
107.166 996.064 32.67
95.3972 984.712 56.7803
83.996 1023.75 29.7489
87.9318 1027.92 1.17215
112.149 1000.95 1.20462
108.026 996.931 29.7465
87.9328 1027.92 -1.99508
84.0142 1023.71 -30.5624
108.044 996.9 -30.5025
112.15 1000.95 -1.9626
83.1564 1022.84 -33.4848
71.9379 1011.04 -57.6233
95.432 984.652 -57.5295
107.186 996.029 -33.4249
70.3283 1009.47 -59.8566
53.1158 992.387 -75.922
75.9052 966.642 -75.8432
93.8225 983.08 -59.7629
50.9424 990.417 -77.1358
29.6265 971.548 -82.8077
51.9981 946.208 -82.7501
73.7317 964.672 -77.057
27.2149 969.493 -82.8135
5.50835 951.051 -77.1781
27.5906 925.977 -77.1478
49.5865 944.153 -82.756
3.25885 949.174 -75.973
-15.2341 933.602 -59.8647
6.59749 908.746 -59.86
25.3411 924.101 -75.9427
-16.9638 932.167 -57.6261
-29.3623 921.736 -33.423
-7.71015 897.027 -33.4198
4.86782 907.311 -57.6214
-30.3011 920.958 -30.4894
-34.6582 917.313 -1.92337
-13.0689 892.657 -1.90307
-8.6489 896.25 -30.4863
-10.6969 889.899 1.2758
-6.28879 893.548 29.8369
14.8316 868.497 29.8619
10.3616 864.924 1.29608
-5.33933 894.316 32.7671
7.20399 904.616 56.9163
28.4934 879.359 56.9446
15.7811 869.265 32.7921
8.95516 906.029 59.151
27.6929 921.397 75.2279
49.2302 895.838 75.2535
30.2446 880.772 59.1793
29.9728 923.243 76.4301
51.9713 941.418 82.0293
73.8141 915.487 82.0407
51.5101 897.684 76.4557
54.4215 943.431 82.0207
76.163 961.883 76.3178
98.3908 935.494 76.338
76.2643 917.499 82.0321
78.3938 963.791 75.1031
96.3214 980.21 59.0144
119.106 953.207 59.0346
100.622 937.403 75.1233
97.9954 981.721 56.7804
109.764 993.073 32.6701
132.985 965.616 32.6932
120.78 954.718 56.8007
110.661 993.907 29.7488
114.784 997.931 1.20691
138.164 970.32 1.23071
133.882 966.451 29.7719
114.785 997.929 -1.95886
110.679 993.876 -30.4988
133.897 966.422 -30.4747
138.165 970.318 -1.93506
109.784 993.039 -33.4197
98.0297 981.661 -57.5243
120.811 954.66 -57.4986
133.002 965.584 -33.3956
96.357 980.148 -59.7575
78.4398 963.71 -75.8378
100.665 937.323 -75.8138
119.138 953.147 -59.7318
76.21 961.8 -77.0516
54.4763 943.337 -82.7448
76.3159 917.407 -82.7137
98.4354 935.413 -77.0275
52.0266 941.323 -82.7524
30.0308 923.148 -77.1443
51.5635 897.591 -77.1287
73.8662 915.393 -82.7213
27.7506 921.303 -75.9414
9.00695 905.948 -59.8587
30.2909 880.694 -59.8467
49.2833 895.746 -75.9258
7.25353 904.537 -57.6208
-5.32444 894.253 -33.4193
15.792 869.204 -33.4039
28.5375 879.282 -57.6088
-6.27635 893.489 -30.4849
-10.6963 889.896 -1.9016
10.3621 864.921 -1.88132
14.8401 868.44 -30.4695
12.6706 862.122 1.29865
17.1407 865.695 29.8645
37.6441 840.232 29.8877
33.1132 836.746 1.31865
18.1032 866.447 32.7955
30.8155 876.54 56.948
51.491 850.835 56.9799
38.6066 840.984 32.8187
32.5906 877.923 59.1832
51.5762 892.989 75.2574
72.5152 866.93 75.299
53.2661 852.218 59.2152
53.8882 894.794 76.4592
76.1922 912.597 82.0442
97.4615 886.11 82.0848
74.8271 868.736 76.5007
78.6811 914.561 82.0352
100.808 932.556 76.341
122.461 905.579 76.38
99.9505 888.073 82.0758
103.088 934.404 75.127
121.572 950.209 59.0383
143.698 922.659 59.0708
124.741 907.428 75.166
123.297 951.662 56.804
135.503 962.56 32.6965
158.001 934.567 32.7212
145.423 924.112 56.8364
136.43 963.362 29.7747
140.712 967.23 1.23348
163.347 939.081 1.25561
158.929 935.369 29.7994
140.713 967.229 -1.93275
136.445 963.333 -30.4724
158.942 935.342 -30.4531
163.348 939.079 -1.91062
135.519 962.529 -33.3939
123.328 951.605 -57.4969
145.451 924.057 -57.4858
158.016 934.538 -33.3745
121.604 950.149 -59.7306
103.131 934.325 -75.8126
124.782 907.35 -75.8088
143.727 922.602 -59.7196
100.852 932.475 -77.0258
78.7324 914.469 -82.7119
99.9988 887.983 -82.7109
122.503 905.5 -77.0221
76.2439 912.504 -82.7202
53.9412 894.702 -77.1276
74.8764 868.646 -77.1285
97.5103 886.019 -82.7191
51.6288 892.897 -75.9252
32.6364 877.845 -59.8461
53.3081 852.143 -59.8381
72.5641 866.841 -75.9261
30.8591 876.464 -57.6077
18.1136 866.386 -33.4028
38.6144 840.924 -33.3861
51.5308 850.761 -57.5997
17.1489 865.639 -30.4677
12.6709 862.119 -1.87944
33.1136 836.743 -1.85944
37.6497 840.177 -30.451
35.3524 833.898 1.32111
39.8833 837.384 29.8902
59.7461 811.49 29.9123
55.1525 808.098 1.34075
40.8591 838.116 32.822
53.7435 847.968 56.9832
73.7858 821.81 57.0149
60.722 812.222 32.8441
55.5436 849.317 59.2196
74.7927 864.029 75.3034
95.1128 837.48 75.3481
75.586 823.158 59.2514
77.1386 865.789 76.5056
99.773 883.162 82.0898
120.44 856.144 82.1385
97.4588 839.24 76.5503
102.302 885.073 82.0804
124.813 902.579 76.3847
145.864 875.046 76.4256
122.969 858.055 82.1291
127.138 904.368 75.1704
146.095 919.599 59.0752
167.564 891.524 59.1086
148.19 876.835 75.2114
147.865 920.997 56.8401
160.442 931.453 32.7248
182.239 902.956 32.7492
169.334 892.922 56.8735
161.397 932.222 29.8021
165.815 935.934 1.25833
187.731 907.284 1.27947
183.193 903.725 29.8265
165.815 935.932 -1.90855
161.41 932.195 -30.451
183.205 903.7 -30.4333
187.732 907.282 -1.88742
160.457 931.423 -33.3734
147.892 920.943 -57.4847
169.359 892.869 -57.4765
182.252 902.928 -33.3557
146.124 919.542 -59.7193
127.179 904.29 -75.8086
148.228 876.759 -75.8085
167.591 891.469 -59.7111
124.854 902.499 -77.0221
102.35 884.983 -82.711
123.014 857.967 -82.7193
145.903 874.969 -77.022
99.8215 883.072 -82.7196
77.1875 865.699 -77.129
97.5044 839.153 -77.134
120.485 856.056 -82.7279
74.8412 863.94 -75.9261
55.5853 849.241 -59.8381
75.6246 823.084 -59.8308
95.1581 837.394 -75.9312
53.783 847.894 -57.5986
40.8666 838.057 -33.385
60.7273 812.165 -33.368
73.8223 821.738 -57.5912
39.8887 837.329 -30.449
35.3526 833.895 -1.85751
55.1528 808.096 -1.83787
59.7494 811.436 -30.432
57.3199 805.203 1.34311
61.9134 808.594 29.9147
81.1263 782.268 29.9359
76.4679 778.977 1.36229
62.9031 809.306 32.8472
75.967 818.893 57.018
95.3657 792.285 57.0477
82.1159 782.98 32.8684
77.7932 820.204 59.2557
97.32 834.526 75.3524
117.006 807.499 75.3942
97.1919 793.596 59.2853
99.7012 836.237 76.5554
122.682 853.141 82.1436
142.723 825.614 82.1902
119.387 809.21 76.5973
125.252 854.996 82.1339
148.147 871.987 76.4304
168.57 843.926 76.4686
145.293 827.469 82.1806
150.516 873.717 75.2157
169.89 888.405 59.1128
190.693 859.819 59.1438
170.938 845.655 75.2538
171.7 889.751 56.877
184.604 899.785 32.7527
205.699 870.799 32.7762
192.502 861.165 56.9079
185.582 900.523 29.8292
190.12 904.082 1.2821
211.322 874.949 1.3024
206.676 871.537 29.8526
190.121 904.081 -1.88546
185.594 900.498 -30.4313
206.687 871.513 -30.4143
211.322 874.948 -1.86515
184.617 899.757 -33.3547
171.725 889.699 -57.4754
192.526 861.115 -57.4663
205.71 870.773 -33.3376
169.917 888.35 -59.7108
150.554 873.641 -75.8082
170.973 845.582 -75.8068
190.718 859.766 -59.7017
148.186 871.91 -77.0224
125.297 854.908 -82.7196
145.335 827.384 -82.7272
168.606 843.85 -77.021
122.728 853.053 -82.7287
99.7466 836.15 -77.1348
119.429 809.126 -77.1382
142.766 825.528 -82.7363
97.365 834.44 -75.9312
77.8314 820.131 -59.8308
97.2275 793.524 -59.8224
117.048 807.416 -75.9346
76.0032 818.822 -57.59
62.9081 809.249 -33.3668
82.1191 782.923 -33.3498
95.3993 792.215 -57.5817
61.9166 808.54 -30.4301
57.32 805.2 -1.83592
76.468 778.974 -1.81674
81.1276 782.215 -30.413
78.5626 776.034 1.36456
83.221 779.325 29.9381
101.778 752.572 29.9585
97.0535 749.385 1.38322
84.2248 780.015 32.8713
97.4746 789.32 57.0506
116.221 762.271 57.0778
102.782 753.262 32.8916
99.3275 790.591 59.2893
119.142 804.495 75.3982
138.18 777.005 75.4353
118.074 763.542 59.3165
121.559 806.153 76.602
144.895 822.557 82.1949
164.29 794.543 82.2358
140.597 778.664 76.6391
147.505 824.353 82.185
170.782 840.81 76.473
190.552 812.244 76.5073
166.9 796.339 82.2259
173.191 842.48 75.2576
192.946 856.644 59.1476
213.069 827.564 59.1749
192.961 813.915 75.2919
194.791 857.939 56.9111
207.988 867.573 32.7794
228.375 838.111 32.8014
214.914 828.859 56.9384
208.987 868.282 29.8551
213.632 871.694 1.3049
234.116 842.091 1.32442
229.374 838.819 29.8771
213.632 871.693 -1.86324
208.997 868.258 -30.4124
229.383 838.797 -30.3955
234.117 842.09 -1.84372
207.999 867.547 -33.3364
194.814 857.889 -57.4651
214.936 828.811 -57.4539
228.386 838.086 -33.3196
192.97 856.592 -59.7012
173.226 842.407 -75.8063
192.994 813.844 -75.8024
213.092 827.513 -59.6899
170.818 840.735 -77.0211
147.547 824.268 -82.7274
166.939 796.256 -82.7306
190.585 812.171 -77.0173
144.937 822.472 -82.7367
121.601 806.069 -77.1386
140.636 778.582 -77.1385
164.329 794.459 -82.7399
119.183 804.411 -75.9343
99.3628 790.52 -59.8222
118.107 763.473 -59.8125
138.219 776.924 -75.9342
97.5079 789.25 -57.5804
84.2278 779.959 -33.3485
102.783 753.207 -33.3317
116.252 762.203 -57.5707
83.2222 779.272 -30.4111
78.5626 776.031 -1.81481
97.0535 749.383 -1.79615
101.778 752.52 -30.3943
99.0749 746.396 1.38539
103.8 749.582 29.9606
121.695 722.411 29.98
116.904 719.333 1.40348
104.818 750.249 32.8943
118.257 759.259 57.0805
136.344 731.78 57.1052
122.714 723.078 32.9136
120.137 760.488 59.32
140.243 773.951 75.4388
158.621 746.014 75.4712
138.223 733.009 59.3447
142.696 775.555 76.6432
166.388 791.434 82.2399
185.12 762.951 82.2754
161.074 747.617 76.6757
169.039 793.169 82.2298
192.69 809.074 76.5112
211.786 780.031 76.5416
187.77 764.686 82.2653
195.139 810.685 75.2953
215.248 824.335 59.1782
234.676 794.78 59.2027
214.235 781.643 75.3257
217.126 825.581 56.9413
230.587 834.832 32.8042
250.259 804.905 32.825
236.555 796.025 56.9657
231.605 835.512 29.8795
236.347 838.784 1.32679
256.108 808.722 1.34556
251.277 805.585 29.9002
236.348 838.783 -1.84184
231.614 835.49 -30.3936
251.285 805.564 -30.3769
256.109 808.721 -1.82307
230.597 834.807 -33.3182
217.147 825.533 -57.4525
236.574 795.979 -57.4398
250.268 804.881 -33.3015
215.27 824.284 -59.6891
195.172 810.615 -75.8016
214.265 781.574 -75.7952
234.697 794.731 -59.6764
192.724 809.002 -77.0171
169.077 793.086 -82.7304
187.806 764.606 -82.7294
211.816 779.961 -77.0107
166.427 791.351 -82.7399
142.734 775.473 -77.1385
161.11 747.538 -77.135
185.156 762.871 -82.739
140.281 773.87 -75.9337
120.17 760.419 -59.8119
138.254 732.942 -59.801
158.656 745.935 -75.9301
118.288 759.191 -57.5693
104.819 750.194 -33.3303
122.713 723.024 -33.3136
136.372 731.714 -57.5584
103.799 749.53 -30.3924
99.0749 746.393 -1.79425
116.904 719.331 -1.77616
121.693 722.36 -30.3757
118.852 716.298 1.40555
123.643 719.375 29.982
140.872 691.797 30.0004
136.013 688.832 1.423
124.676 720.019 32.9161
138.306 728.721 57.1076
155.724 700.825 57.1299
141.904 692.44 32.9344
140.212 729.907 59.3478
160.61 742.912 75.4743
178.316 714.541 75.5027
157.631 702.011 59.3701
163.098 744.458 76.6792
187.144 759.792 82.279
205.198 730.86 82.31
180.805 716.088 76.7076
189.834 761.465 82.2687
213.849 776.81 76.5451
232.256 747.306 76.5719
207.887 732.533 82.2998
216.336 778.361 75.3286
236.778 791.498 59.2057
255.5 761.483 59.2283
234.743 748.857 75.3555
238.687 792.695 56.9683
252.391 801.575 32.8276
271.339 771.197 32.8473
257.41 762.68 56.991
253.427 802.227 29.9025
258.258 805.365 1.34779
277.288 774.855 1.36583
272.375 771.849 29.9222
258.259 805.363 -1.82122
253.436 802.206 -30.3751
272.383 771.829 -30.3588
277.288 774.854 -1.80319
252.401 801.552 -33.3
238.706 792.649 -57.4384
257.427 762.636 -57.4254
271.348 771.174 -33.2838
236.798 791.45 -59.6754
216.366 778.293 -75.7942
234.77 748.791 -75.7857
255.519 761.436 -59.6624
213.88 776.74 -77.0102
189.869 761.385 -82.7289
207.92 732.456 -82.7249
232.284 747.238 -77.0016
187.18 759.712 -82.7386
163.134 744.379 -77.1346
180.838 716.012 -77.1283
205.231 730.783 -82.7347
160.645 742.833 -75.9293
140.242 729.84 -59.8001
157.658 701.945 -59.7881
178.349 714.465 -75.923
138.334 728.655 -57.5569
124.675 719.965 -33.3122
141.902 692.388 -33.2958
155.75 700.761 -57.5448
123.641 719.325 -30.3739
118.851 716.295 -1.7743
136.013 688.829 -1.75684
140.868 691.747 -30.3575
137.887 685.752 1.42498
142.745 688.717 30.0023
159.3 660.743 30.0198
154.376 657.893 1.44178
143.792 689.336 32.9366
157.611 697.721 57.1322
174.354 669.421 57.1525
160.347 661.362 32.9541
159.544 698.862 59.3728
180.23 711.393 75.5055
197.255 682.606 75.5303
176.287 670.562 59.3931
182.754 712.881 76.7107
207.147 727.653 82.3131
224.509 698.29 82.34
199.778 684.094 76.7356
209.874 729.262 82.3028
234.243 744.035 76.5749
251.947 714.089 76.5987
227.237 699.9 82.3296
236.766 745.526 75.3581
257.524 758.152 59.231
275.528 727.694 59.2517
254.47 715.58 75.382
259.462 759.301 56.9934
273.391 767.817 32.8497
291.605 737.002 32.8682
277.466 728.843 57.0141
274.444 768.442 29.9243
279.357 771.448 1.36793
297.646 740.505 1.38522
292.658 737.627 29.9428
279.357 771.447 -1.80138
274.451 768.422 -30.357
292.665 737.608 -30.3411
297.646 740.504 -1.78409
273.4 767.795 -33.2823
259.479 759.256 -57.4239
277.482 728.801 -57.4104
291.613 736.98 -33.2663
257.542 758.105 -59.6612
236.793 745.46 -75.7845
254.495 715.516 -75.7743
275.544 727.65 -59.6476
234.271 743.968 -77.0008
209.907 729.185 -82.7241
227.267 699.825 -82.7173
251.973 714.024 -76.9907
207.179 727.576 -82.734
182.786 712.805 -77.1276
199.809 684.02 -77.1191
224.539 698.216 -82.7272
180.263 711.317 -75.922
159.572 698.797 -59.787
176.312 670.499 -59.7743
197.285 682.533 -75.9135
157.637 697.657 -57.5433
143.789 689.284 -33.2942
160.343 661.311 -33.2783
174.377 669.359 -57.5306
142.741 688.668 -30.3556
137.886 685.749 -1.75502
154.376 657.89 -1.73821
159.294 660.695 -30.3397
156.174 654.77 1.44366
161.098 657.62 30.0217
176.974 629.264 30.0382
171.985 626.532 1.45977
162.159 658.215 32.9562
176.166 666.273 57.1546
192.223 637.584 57.1731
178.034 629.859 32.9727
178.124 667.369 59.3955
199.093 679.412 75.5327
215.425 650.225 75.5543
194.182 638.679 59.414
201.65 680.841 76.7383
226.381 695.037 82.3426
243.04 665.262 82.3657
217.983 651.654 76.7599
229.146 696.581 82.3322
253.856 710.771 76.6014
270.844 680.404 76.6225
245.805 666.806 82.3553
256.414 712.2 75.3843
277.471 724.315 59.2541
294.745 693.433 59.273
273.402 681.833 75.4055
279.437 725.415 57.0163
293.577 733.574 32.8704
311.048 702.338 32.8879
296.711 694.534 57.0352
294.645 734.173 29.9448
299.633 737.05 1.38721
317.174 705.687 1.40379
312.116 702.936 29.9623
299.633 737.049 -1.78232
294.651 734.154 -30.3393
312.122 702.918 -30.3237
317.175 705.686 -1.76574
293.584 733.553 -33.2648
279.453 725.373 -57.4088
296.725 694.493 -57.3949
311.055 702.317 -33.2492
277.488 724.27 -59.6463
256.439 712.137 -75.773
273.424 681.772 -75.7616
294.76 693.39 -59.6324
253.881 710.706 -76.9896
229.175 696.507 -82.7162
245.832 666.735 -82.707
270.867 680.341 -76.9782
226.41 694.963 -82.7262
201.68 680.767 -77.1182
218.01 651.583 -77.1079
243.067 665.19 -82.717
199.122 679.339 -75.9123
178.15 667.305 -59.7731
194.205 638.618 -59.76
215.452 650.155 -75.902
176.189 666.211 -57.5291
162.154 658.164 -33.2768
178.028 629.809 -33.2613
192.245 637.524 -57.5159
161.092 657.572 -30.3379
156.174 654.768 -1.73645
171.985 626.53 -1.72033
176.966 629.218 -30.3225
173.707 623.368 1.46156
178.696 626.1 30.04
193.884 597.376 30.0556
188.832 594.763 1.47696
179.77 626.669 32.9746
193.959 634.394 57.175
209.324 605.331 57.1917
194.958 597.945 32.9902
195.943 635.443 59.4162
217.186 646.989 75.5565
232.816 617.418 75.5752
211.307 606.379 59.4329
219.776 648.356 76.7622
244.833 661.965 82.368
260.778 631.796 82.3878
235.406 618.786 76.781
247.634 663.443 82.3576
272.674 677.04 76.6248
288.934 646.27 76.6435
263.579 633.274 82.3774
275.265 678.408 75.4076
296.608 690.008 59.2751
313.14 658.72 59.2923
291.525 647.638 75.4263
298.6 691.06 57.0372
312.936 698.864 32.8899
329.655 667.222 32.9062
315.132 659.772 57.0544
314.019 699.436 29.9641
319.077 702.187 1.40567
335.863 670.419 1.4215
330.738 667.794 29.9805
319.078 702.186 -1.76402
314.025 699.418 -30.322
330.743 667.776 -30.3068
335.863 670.418 -1.74819
312.943 698.844 -33.2476
298.614 691.02 -57.3933
315.145 659.733 -57.3792
329.662 667.202 -33.2324
296.623 689.965 -59.631
275.287 678.347 -75.7602
291.545 647.58 -75.7478
313.154 658.679 -59.6168
272.696 676.978 -76.977
247.661 663.372 -82.7058
263.603 633.206 -82.6948
288.955 646.211 -76.9646
244.86 661.893 -82.7159
219.803 648.286 -77.1067
235.431 618.718 -77.0949
260.803 631.727 -82.7048
217.213 646.918 -75.9007
195.966 635.382 -59.7586
211.328 606.32 -59.7452
232.84 617.35 -75.8889
193.98 634.334 -57.5143
179.763 626.62 -33.2597
194.95 597.897 -33.2448
209.343 605.273 -57.5009
178.688 626.053 -30.3208
173.707 623.365 -1.71863
188.832 594.761 -1.70322
193.874 597.331 -30.3058
190.478 591.559 1.47865
195.529 594.171 30.0573
210.022 565.093 30.072
204.911 562.603 1.49335
196.616 594.715 32.992
210.982 602.1 57.1935
225.646 572.678 57.2087
211.11 565.637 33.0067
212.99 603.102 59.4348
234.499 614.14 75.5771
249.417 584.203 75.5933
227.654 573.679 59.45
237.121 615.446 76.783
262.493 628.456 82.3898
277.712 597.911 82.4065
252.039 585.508 76.7992
265.327 629.867 82.3793
290.682 642.864 76.6455
306.204 611.711 76.6619
280.547 599.322 82.3961
293.305 644.169 75.4282
314.921 655.251 59.2942
330.702 623.575 59.3099
308.827 613.016 75.4447
316.938 656.254 57.0562
331.461 663.704 32.9081
347.418 631.673 32.9234
332.719 624.579 57.0719
332.557 664.25 29.9823
337.682 666.875 1.42325
353.702 634.718 1.4383
348.514 632.219 29.9976
337.682 666.874 -1.74652
332.562 664.232 -30.3051
348.52 632.202 -30.2904
353.702 634.717 -1.73147
331.467 663.685 -33.2308
316.951 656.216 -57.3776
332.73 624.542 -57.3634
347.424 631.655 -33.2161
314.934 655.21 -59.6153
293.326 644.111 -75.7463
308.845 612.961 -75.7332
330.714 623.536 -59.6012
290.703 642.804 -76.9633
265.351 629.799 -82.6934
280.569 599.257 -82.6808
306.223 611.654 -76.9501
262.517 628.388 -82.7035
237.145 615.378 -77.0936
252.061 585.443 -77.0807
277.734 597.846 -82.6909
234.523 614.073 -75.8875
213.011 603.043 -59.7438
227.672 573.623 -59.7301
249.439 584.138 -75.8746
211.001 602.043 -57.4993
196.608 594.667 -33.2432
211.1 565.591 -33.2288
225.663 572.622 -57.4857
195.52 594.126 -30.3042
190.477 591.557 -1.70157
204.91 562.601 -1.68688
210.011 565.05 -30.2897
206.479 559.36 1.49494
211.59 561.851 30.0736
225.382 532.434 30.0874
220.212 530.067 1.5089
212.69 562.368 33.0083
227.226 569.409 57.2103
241.181 539.643 57.2239
226.482 532.951 33.0221
229.257 570.362 59.4516
251.021 580.885 75.5949
265.219 550.598 75.6088
243.212 540.596 59.4653
253.673 582.129 76.8009
279.347 594.531 82.4082
293.832 563.629 82.4223
267.872 551.841 76.8147
282.214 595.874 82.3978
307.871 608.263 76.6637
322.644 576.746 76.678
296.7 564.973 82.4119
310.524 609.505 75.4464
332.399 620.064 59.3116
347.419 588.02 59.3258
325.298 577.988 75.4607
334.44 621.019 57.0736
349.139 628.114 32.925
364.327 595.711 32.9394
349.46 588.975 57.0878
350.248 628.632 29.9992
355.436 631.131 1.43994
370.683 598.602 1.45425
365.436 596.23 30.0135
355.436 631.13 -1.72986
350.253 628.615 -30.2888
365.441 596.213 -30.2746
370.683 598.601 -1.71556
349.145 628.095 -33.2145
334.451 620.982 -57.3619
349.47 588.94 -57.3477
364.332 595.693 -33.2003
332.411 620.026 -59.5996
310.542 609.45 -75.7317
325.314 577.936 -75.7179
347.43 587.983 -59.5855
307.889 608.207 -76.9486
282.236 595.81 -82.6793
296.719 564.911 -82.6655
322.661 576.692 -76.9348
279.368 594.466 -82.6894
253.695 582.064 -77.0793
267.892 551.78 -77.0655
293.852 563.567 -82.6756
251.043 580.821 -75.8731
229.276 570.306 -59.7286
243.229 540.542 -59.7149
265.239 550.537 -75.8593
227.243 569.354 -57.4841
212.68 562.322 -33.2272
226.47 532.907 -33.2134
241.196 539.59 -57.4704
211.579 561.808 -30.2881
206.478 559.358 -1.6853
220.211 530.065 -1.67134
225.369 532.393 -30.2742
221.702 526.787 1.51039
226.872 529.154 30.0889
239.954 499.414 30.1018
234.729 497.172 1.52358
227.984 529.645 33.0236
242.683 536.337 57.2254
255.921 506.244 57.2375
241.066 499.905 33.0364
244.736 537.242 59.4667
266.743 547.244 75.6102
280.214 516.624 75.6217
257.974 507.149 59.4788
269.425 548.423 76.8161
295.385 560.211 82.4237
309.128 528.971 82.4352
282.895 517.804 76.8276
298.284 561.486 82.4133
324.228 573.259 76.6794
338.244 541.398 76.6917
312.027 530.245 82.4248
326.91 574.438 75.4622
349.032 584.469 59.3273
363.283 552.075 59.3402
340.926 542.576 75.4744
351.095 585.375 57.0893
365.962 592.111 32.9409
380.372 559.354 32.9542
365.345 552.98 57.1023
367.083 592.602 30.0151
372.33 594.975 1.45579
386.796 562.09 1.46935
381.493 559.846 30.0284
372.331 594.974 -1.71401
367.088 592.586 -30.273
381.497 559.83 -30.2593
386.797 562.089 -1.70044
365.967 592.093 -33.1987
351.105 585.34 -57.3462
365.355 552.947 -57.3323
380.377 559.337 -33.185
349.043 584.433 -59.584
326.926 574.386 -75.7163
340.94 542.527 -75.7019
363.292 552.04 -59.57
324.244 573.206 -76.9333
298.303 561.424 -82.6639
312.044 530.187 -82.649
338.258 541.347 -76.9189
295.404 560.15 -82.674
269.444 548.362 -77.0639
282.912 517.745 -77.0493
309.145 528.912 -82.6591
266.763 547.183 -75.8578
244.753 537.188 -59.7133
257.989 507.098 -59.6996
280.231 516.566 -75.8432
242.698 536.284 -57.4689
227.972 529.602 -33.2118
241.053 499.863 -33.1985
255.934 506.194 -57.4551
226.859 529.113 -30.2727
221.701 526.785 -1.66983
234.728 497.17 -1.65664
239.94 499.375 -30.2594
236.14 493.857 1.52498
241.365 496.1 30.1032
253.733 466.051 30.1151
248.455 463.934 1.53733
242.489 496.564 33.0378
257.344 502.903 57.2388
269.859 472.5 57.2494
254.856 466.515 33.0496
259.418 503.758 59.48
281.657 513.234 75.6229
294.391 482.299 75.632
271.933 473.355 59.4906
284.365 514.349 76.8287
310.599 525.516 82.4363
323.59 493.956 82.4451
297.099 483.415 76.8378
313.527 526.721 82.426
339.744 537.874 76.6928
352.994 505.687 76.703
326.519 495.161 82.4348
342.454 538.988 75.4757
364.81 548.486 59.3415
378.283 515.76 59.3532
355.703 506.801 75.4858
366.894 549.342 57.1036
381.921 555.716 32.9556
395.544 522.622 32.9681
380.367 516.615 57.1153
383.053 556.18 30.0299
388.357 558.424 1.4708
402.034 525.2 1.48367
396.677 523.087 30.0423
388.357 558.423 -1.69895
383.058 556.165 -30.2578
396.681 523.072 -30.2446
402.035 525.199 -1.68608
381.925 555.699 -33.1835
366.903 549.309 -57.3307
380.375 516.584 -57.317
395.549 522.606 -33.1703
364.82 548.452 -59.5684
342.468 538.939 -75.7003
355.716 506.754 -75.6853
378.291 515.727 -59.5547
339.758 537.824 -76.9172
313.544 526.664 -82.6474
326.533 495.107 -82.6314
353.006 505.639 -76.9022
310.616 525.458 -82.6574
284.382 514.291 -77.0476
297.115 483.36 -77.0321
323.605 493.901 -82.6414
281.674 513.176 -75.8416
259.432 503.708 -59.698
271.945 473.307 -59.6843
294.406 482.245 -75.8261
257.357 502.853 -57.4537
242.475 496.522 -33.197
254.841 466.476 -33.1844
269.87 472.452 -57.4399
241.351 496.06 -30.258
236.139 493.855 -1.65521
248.454 463.932 -1.64285
253.717 466.014 -30.2453
249.786 460.586 1.53862
255.064 462.703 30.1164
266.709 432.361 30.1272
261.381 430.371 1.55015
256.198 463.141 33.0508
271.201 469.125 57.2505
282.985 438.427 57.2594
267.843 432.799 33.0616
273.295 469.931 59.4915
295.753 478.875 75.6329
307.744 447.644 75.6394
285.079 439.233 59.5004
298.487 479.926 76.8387
324.978 490.467 82.446
337.211 458.607 82.4518
310.478 448.695 76.8452
327.934 491.603 82.4357
354.409 502.128 76.7039
366.885 469.635 76.7116
340.167 459.742 82.4415
357.145 503.177 75.4869
379.724 512.136 59.3542
392.411 479.098 59.3642
369.621 470.684 75.4947
381.828 512.941 57.1165
397.006 518.948 32.9693
409.837 485.536 32.9806
394.515 479.902 57.1265
398.15 519.384 30.0436
403.507 521.498 1.485
416.389 487.953 1.49694
410.981 485.972 30.0549
403.507 521.497 -1.68466
398.154 519.37 -30.2432
410.985 485.958 -30.2306
416.389 487.952 -1.67271
397.01 518.932 -33.1688
381.836 512.91 -57.3154
394.523 479.873 -57.3018
409.841 485.52 -33.1562
379.732 512.104 -59.5531
357.157 503.131 -75.6837
369.632 470.641 -75.668
392.419 479.067 -59.5394
354.422 502.081 -76.9004
327.949 491.548 -82.6296
340.18 459.691 -82.6122
366.897 469.591 -76.8848
324.993 490.413 -82.6396
298.502 479.872 -77.0303
310.491 448.644 -77.0139
337.224 458.555 -82.6223
295.768 478.821 -75.8245
273.307 469.883 -59.6826
285.09 439.188 -59.6688
307.757 447.593 -75.8081
271.212 469.078 -57.4385
256.183 463.101 -33.1829
267.826 432.762 -33.1709
282.995 438.382 -57.4247
255.048 462.666 -30.2439
249.785 460.584 -1.64149
261.38 430.369 -1.62996
266.692 432.326 -30.2319
262.632 426.991 1.55133
267.96 428.982 30.1284
278.876 398.362 30.1382
273.501 396.497 1.562
269.104 429.392 33.0626
284.246 435.02 57.2604
295.294 404.044 57.2674
280.021 398.773 33.0725
286.359 435.777 59.5011
309.024 444.188 75.6401
320.265 412.678 75.6436
297.407 404.801 59.5081
311.782 445.174 76.8456
338.515 455.086 82.4522
349.982 422.944 82.4546
323.023 413.665 76.8491
341.497 456.151 82.4421
368.215 466.044 76.7122
379.911 433.266 76.7174
352.964 424.009 82.4444
370.975 467.027 75.4955
393.765 475.441 59.3651
405.66 442.11 59.3734
382.671 434.25 75.5007
395.889 476.194 57.1275
411.211 481.828 32.9816
423.242 448.114 32.9917
407.783 442.863 57.1358
412.365 482.235 30.0561
417.773 484.216 1.49814
429.854 450.366 1.50924
424.397 448.522 30.0662
417.773 484.215 -1.67135
412.369 482.222 -30.2293
424.4 448.509 -30.2172
429.854 450.365 -1.66026
411.215 481.812 -33.1547
395.896 476.165 -57.3003
407.79 442.836 -57.2866
423.246 448.1 -33.1427
393.773 475.41 -59.5378
370.986 466.984 -75.6664
382.68 434.209 -75.6498
405.667 442.081 -59.5241
368.226 466 -76.8829
341.51 456.1 -82.6103
352.976 423.963 -82.5912
379.92 433.225 -76.8662
338.528 455.035 -82.6203
311.795 445.124 -77.012
323.034 413.617 -76.9942
349.993 422.897 -82.6011
309.036 444.138 -75.8063
286.369 435.732 -59.6671
297.416 404.759 -59.6531
320.276 412.631 -75.7886
284.255 434.976 -57.4232
269.087 429.355 -33.1694
280.003 398.738 -33.158
295.302 404.003 -57.4093
267.942 428.947 -30.2306
262.631 426.989 -1.62868
273.5 396.496 -1.61801
278.858 398.33 -30.2193
274.671 393.088 1.56306
280.046 394.952 30.1393
290.228 364.069 30.148
284.809 362.33 1.57285
281.2 395.336 33.0733
296.473 400.608 57.2682
306.778 369.37 57.2731
291.382 364.453 33.082
298.603 401.314 59.5085
321.461 409.192 75.644
331.946 377.422 75.644
308.908 370.077 59.5134
324.242 410.114 76.8492
351.201 419.394 82.4547
361.896 386.992 82.453
334.727 378.344 76.8492
354.208 420.388 82.4447
381.154 429.645 76.7176
392.062 396.604 76.7198
364.903 387.987 82.443
383.937 430.562 75.5013
406.926 438.422 59.3739
418.022 404.819 59.3803
394.845 397.521 75.5034
409.068 439.123 57.1367
424.527 444.374 32.9925
435.753 410.378 33.0015
420.164 405.52 57.143
425.692 444.753 30.0672
431.149 446.597 1.51031
442.422 412.458 1.52071
436.918 410.756 30.0762
431.149 446.596 -1.65895
425.695 444.74 -30.2159
436.921 410.744 -30.2042
442.422 412.458 -1.64855
424.531 444.36 -33.1411
409.075 439.096 -57.2851
420.169 405.495 -57.271
435.757 410.364 -33.1294
406.933 438.394 -59.5223
383.947 430.522 -75.648
394.853 397.484 -75.63
418.028 404.793 -59.5082
381.164 429.604 -76.8642
354.219 420.342 -82.5891
364.912 387.944 -82.5676
392.07 396.566 -76.8462
351.212 419.347 -82.5989
324.253 410.067 -76.992
334.737 378.301 -76.9725
361.906 386.949 -82.5774
321.472 409.146 -75.7867
298.612 401.273 -59.6512
308.916 370.038 -59.6369
331.956 377.379 -75.7672
296.481 400.567 -57.4078
281.182 395.302 -33.1566
291.363 364.421 -33.1459
306.784 369.332 -57.3935
280.027 394.92 -30.2181
274.67 393.086 -1.6168
284.808 362.328 -1.60702
290.208 364.039 -30.2073
285.897 358.892 1.5738
291.316 360.631 30.1489
300.758 329.499 30.1565
295.297 327.884 1.58269
292.479 360.988 33.0826
307.875 365.905 57.2737
317.432 334.421 57.2764
301.921 329.856 33.0901
310.021 366.563 59.5135
333.059 373.908 75.644
342.782 341.897 75.64
319.578 335.079 59.5161
335.861 374.765 76.8489
363.03 383.414 82.4527
372.947 350.774 82.4463
345.584 342.754 76.8449
366.059 384.338 82.4428
393.218 392.955 76.7196
403.332 359.674 76.7184
375.976 351.698 82.4365
396.023 393.805 75.5037
419.2 401.103 59.3806
429.491 367.249 59.3847
406.137 360.524 75.5025
421.359 401.75 57.1436
436.949 406.608 33.0021
447.365 372.345 33.0098
431.649 367.896 57.1477
438.123 406.956 30.0772
443.627 408.658 1.52166
454.088 374.247 1.53124
448.539 372.693 30.0848
443.627 408.657 -1.64728
438.126 406.944 -30.2029
448.542 372.682 -30.1915
454.088 374.246 -1.6377
436.952 406.594 -33.1278
421.365 401.725 -57.2694
431.655 367.873 -57.2547
447.368 372.332 -33.1164
419.206 401.077 -59.5063
396.031 393.768 -75.6281
406.144 360.49 -75.6084
429.496 367.224 -59.4916
393.227 392.917 -76.8439
366.069 384.295 -82.5653
375.984 351.659 -82.5407
403.34 359.639 -76.8241
363.04 383.371 -82.575
335.87 374.723 -76.9701
345.592 342.715 -76.9482
372.955 350.735 -82.5505
333.069 373.866 -75.7652
310.029 366.525 -59.6349
319.584 335.044 -59.62
342.791 341.858 -75.7433
307.881 365.867 -57.392
292.459 360.957 -33.1444
301.9 329.827 -33.1343
317.437 334.387 -57.3771
291.296 360.601 -30.2062
285.895 358.89 -1.60589
295.296 327.882 -1.597
300.737 329.471 -30.1961
296.303 324.418 1.5835
301.764 326.033 30.1573
310.461 294.664 30.1637
304.961 293.172 1.59146
302.935 326.364 33.0905
318.446 330.929 57.2767
327.249 299.215 57.2768
311.632 294.995 33.0968
320.607 331.538 59.5157
343.811 338.357 75.6397
352.767 306.123 75.631
329.41 299.824 59.5158
346.632 339.15 76.844
373.994 347.17 82.4454
383.127 314.315 82.4335
355.588 306.916 76.8353
377.045 348.024 82.4358
404.401 355.999 76.7177
413.715 322.502 76.7125
386.177 315.169 82.4239
407.226 356.781 75.5024
430.58 363.507 59.3846
440.06 329.423 59.386
416.54 323.284 75.4972
432.755 364.098 57.1481
448.47 368.548 33.0101
458.071 334.035 33.0164
442.235 330.015 57.1495
449.653 368.864 30.0856
455.203 370.418 1.53205
464.848 335.749 1.54081
459.254 334.352 30.0919
455.203 370.417 -1.63647
449.656 368.852 -30.1903
459.257 334.341 -30.1792
464.848 335.748 -1.62771
448.473 368.535 -33.1148
432.76 364.075 -57.2531
442.24 329.993 -57.2373
458.074 334.023 -33.1037
430.585 363.482 -59.4895
407.233 356.748 -75.6063
416.547 323.254 -75.5843
440.065 329.4 -59.4738
404.408 355.965 -76.8215
377.053 347.985 -82.5381
386.185 315.134 -82.5098
413.722 322.471 -76.7995
374.003 347.131 -82.5477
346.64 339.112 -76.9454
355.595 306.882 -76.9207
383.135 314.28 -82.5194
343.819 338.318 -75.7411
320.613 331.504 -59.6177
329.416 299.794 -59.602
352.775 306.089 -75.7164
318.45 330.896 -57.3756
302.914 326.335 -33.1328
311.61 294.969 -33.1233
327.253 299.185 -57.3599
301.742 326.006 -30.1951
296.301 324.417 -1.59595
304.96 293.17 -1.588
310.439 294.64 -30.1856
305.883 289.68 1.59214
311.383 291.173 30.1644
319.33 259.579 30.1694
313.794 258.206 1.59912
312.562 291.478 33.097
328.179 295.698 57.2769
336.225 263.767 57.274
320.509 259.884 33.102
330.354 296.26 59.5149
353.711 302.559 75.6301
361.896 270.122 75.616
338.4 264.329 59.512
356.549 303.289 76.8338
384.089 310.688 82.432
392.433 277.642 82.4136
364.735 270.852 76.8197
387.158 311.472 82.4226
414.696 318.805 76.7113
423.206 285.12 76.7014
395.502 278.426 82.4042
417.54 319.519 75.4966
441.06 325.657 59.3854
449.726 291.365 59.3835
426.05 285.833 75.4868
443.25 326.191 57.1495
459.086 330.212 33.0165
467.867 295.466 33.0213
451.916 291.9 57.1476
460.278 330.495 30.0926
465.871 331.892 1.54147
474.696 296.978 1.54939
469.06 295.749 30.0974
465.872 331.891 -1.62651
460.281 330.484 -30.178
469.063 295.738 -30.1671
474.696 296.978 -1.61859
459.089 330.2 -33.1019
443.255 326.17 -57.2356
451.922 291.88 -57.2182
467.871 295.454 -33.091
441.065 325.635 -59.4715
417.547 319.489 -75.5819
426.057 285.806 -75.557
449.731 291.345 -59.4541
414.703 318.775 -76.7965
387.165 311.437 -82.5068
395.509 278.395 -82.4739
423.213 285.092 -76.7716
384.096 310.653 -82.5162
356.557 303.255 -76.9175
364.741 270.823 -76.8892
392.44 277.611 -82.4832
353.719 302.525 -75.7139
330.36 296.23 -59.5995
338.405 264.303 -59.5827
361.903 270.092 -75.6856
328.183 295.668 -57.3584
312.54 291.453 -33.1218
320.487 259.862 -33.1129
336.229 263.742 -57.3415
311.361 291.149 -30.1846
305.882 289.679 -1.58702
313.793 258.205 -1.58004
319.308 259.558 -30.1757
314.633 254.69 1.59966
320.17 256.063 30.1699
327.364 224.254 30.1736
321.794 222.996 1.60563
321.356 256.343 33.1018
337.072 260.226 57.2738
344.357 228.093 57.2677
328.55 224.534 33.1054
339.259 260.742 59.5107
362.755 266.535 75.6147
370.166 233.914 75.5948
346.544 228.609 59.5046
365.609 267.205 76.8175
393.308 273.994 82.4114
400.86 240.783 82.386
373.02 234.584 76.7976
396.394 274.709 82.4024
424.098 281.403 76.6995
431.8 247.559 76.684
403.946 241.498 82.377
426.96 282.047 75.4857
450.635 287.579 59.3824
458.483 253.101 59.3765
434.662 248.202 75.4702
452.84 288.053 57.1473
468.791 291.619 33.0209
476.751 256.652 33.0243
460.688 253.574 57.1414
469.992 291.866 30.0979
475.628 293.096 1.5499
483.628 257.949 1.55703
477.951 256.899 30.1012
475.628 293.095 -1.61743
469.996 291.856 -30.1659
477.955 256.89 -30.1552
483.629 257.948 -1.61029
468.795 291.607 -33.0891
452.846 288.034 -57.2163
460.694 253.557 -57.1967
476.755 256.641 -33.0783
450.64 287.559 -59.4515
426.966 282.02 -75.5543
434.669 248.178 -75.5257
458.488 253.083 -59.4319
424.105 281.376 -76.7681
396.401 274.679 -82.4704
403.954 241.471 -82.4324
431.807 247.534 -76.7395
393.315 273.963 -82.4795
365.616 267.175 -76.8855
373.027 234.559 -76.8533
400.867 240.756 -82.4414
362.762 266.506 -75.6828
339.264 260.717 -59.5799
346.549 228.588 -59.5617
370.173 233.89 -75.6506
337.075 260.201 -57.3399
321.333 256.322 -33.1113
328.527 224.516 -33.103
344.36 228.073 -57.3218
320.147 256.043 -30.1748
314.632 254.689 -1.57913
321.793 222.995 -1.57317
327.341 224.237 -30.1665
322.549 219.457 1.60601
328.119 220.714 30.1739
334.559 188.698 30.1757
328.958 187.551 1.61093
329.312 220.971 33.105
345.119 224.53 57.2672
351.641 192.205 57.2576
335.752 188.954 33.1067
347.317 225.001 59.5027
370.939 230.307 75.5929
377.573 197.522 75.5675
353.84 192.677 59.4931
373.807 230.918 76.7947
401.647 237.117 82.3831
408.404 203.77 82.3512
380.441 198.133 76.7693
404.749 237.765 82.3744
432.603 243.826 76.6814
439.492 209.857 76.6587
411.506 204.418 82.3425
435.48 244.398 75.4684
459.302 249.297 59.3748
466.326 214.651 59.3641
442.369 210.429 75.4457
461.521 249.706 57.1407
477.583 252.783 33.0235
484.714 217.608 33.0253
468.545 215.06 57.1301
478.792 252.992 30.1016
484.469 254.042 1.55739
491.638 218.672 1.56367
485.922 217.816 30.1033
484.469 254.041 -1.60916
478.796 252.982 -30.1541
485.927 217.808 -30.1435
491.638 218.672 -1.60289
477.587 252.773 -33.0762
461.526 249.689 -57.1945
468.552 215.046 -57.1721
484.719 217.598 -33.0656
459.307 249.279 -59.4287
435.488 244.375 -75.5225
442.378 210.408 -75.4885
466.333 214.636 -59.4063
432.61 243.802 -76.7355
404.756 237.739 -82.4284
411.514 204.395 -82.3858
439.5 209.835 -76.7015
401.655 237.091 -82.4372
373.814 230.893 -76.8491
380.448 198.113 -76.8131
408.413 203.747 -82.3945
370.946 230.283 -75.6474
347.322 224.981 -59.5586
353.845 192.662 -59.5387
377.581 197.502 -75.6115
345.122 224.51 -57.3201
329.289 220.953 -33.1013
335.729 188.942 -33.093
351.645 192.191 -57.3002
328.096 220.698 -30.1656
322.548 219.456 -1.57232
328.957 187.55 -1.56739
334.536 188.686 -30.1574
329.631 183.988 1.61106
335.232 185.135 30.1758
340.927 152.919 30.1731
335.3 151.877 1.61501
336.43 185.369 33.1057
352.319 188.62 57.2566
358.084 156.117 57.2403
342.125 153.153 33.1029
354.528 189.051 59.4905
378.261 193.896 75.5649
384.118 160.967 75.5321
360.292 156.548 59.4742
381.14 194.452 76.7656
409.104 200.089 82.3475
415.062 166.638 82.3089
386.997 161.524 76.7328
412.219 200.673 82.339
440.205 206.111 76.6551
446.271 172.057 76.6192
418.177 167.222 82.3004
443.097 206.611 75.4428
467.054 210.833 59.3613
473.244 176.037 59.3437
449.164 172.556 75.4069
469.285 211.172 57.1288
485.454 213.719 33.024
491.737 178.342 33.0224
475.476 176.376 57.1112
486.669 213.885 30.1035
492.385 214.742 1.56382
498.699 179.156 1.56893
492.953 178.509 30.1019
492.385 214.741 -1.60178
486.674 213.877 -30.1424
492.959 178.502 -30.1309
498.7 179.156 -1.59667
485.459 213.71 -33.0631
469.292 211.157 -57.1696
475.485 176.364 -57.1427
491.744 178.335 -33.0516
467.061 210.818 -59.4023
443.105 206.59 -75.4845
449.174 172.538 -75.4397
473.253 176.025 -59.3753
440.213 206.09 -76.6969
412.227 200.651 -82.3811
418.188 167.203 -82.3336
446.282 172.038 -76.652
409.112 200.067 -82.3898
381.148 194.433 -76.8084
387.007 161.509 -76.7667
415.073 166.619 -82.3423
378.269 193.877 -75.6078
354.533 189.037 -59.535
360.299 156.54 -59.5099
384.127 160.953 -75.5661
352.323 188.607 -57.2982
336.408 185.358 -33.091
342.104 153.148 -33.0799
358.089 156.11 -57.273
335.209 185.124 -30.1565
329.63 183.988 -1.5665
335.299 151.877 -1.56256
340.905 152.915 -30.1454
335.894 148.293 1.61432
341.521 149.335 30.1724
346.536 116.935 30.1469
340.898 115.993 1.61738
342.723 149.548 33.1
358.682 152.513 57.2373
363.731 119.849 57.1854
347.738 117.148 33.0745
360.896 152.905 59.469
384.722 157.325 75.5269
389.818 124.278 75.455
365.945 120.242 59.4171
387.609 157.831 76.7266
415.674 162.945 82.3028
420.822 129.429 82.2286
392.705 124.785 76.6547
418.798 163.469 82.2941
446.893 168.304 76.613
452.1 134.203 76.5339
423.947 129.952 82.2199
449.797 168.726 75.4015
473.877 172.207 59.3383
479.174 137.266 59.2981
455.004 134.625 75.3224
476.118 172.468 57.1086
492.38 174.434 33.0198
497.727 138.853 33.0025
481.415 137.527 57.0684
493.6 174.555 30.1014
499.347 175.202 1.56848
504.705 139.396 1.57159
498.947 138.974 30.0842
499.347 175.202 -1.59531
493.606 174.549 -30.1295
498.956 138.971 -30.1061
504.705 139.396 -1.59219
492.386 174.427 -33.0481
476.127 172.457 -57.1392
481.428 137.518 -57.0929
497.736 138.849 -33.0247
473.887 172.195 -59.369
449.808 168.708 -75.4333
455.019 134.609 -75.3471
479.188 137.257 -59.3227
446.904 168.285 -76.6449
418.81 163.45 -82.3264
423.962 129.937 -82.2445
452.115 134.186 -76.5586
415.685 162.926 -82.3351
387.619 157.817 -76.7595
392.719 124.775 -76.6796
420.838 129.413 -82.2532
384.732 157.311 -75.56
360.904 152.898 -59.5038
365.957 120.243 -59.4433
389.832 124.27 -75.4801
358.687 152.506 -57.2691
342.702 149.544 -33.076
347.72 117.153 -33.0432
363.741 119.851 -57.2086
341.499 149.331 -30.1439
335.893 148.293 -1.56102
340.897 115.993 -1.55795
346.518 116.941 -30.1111
341.44 112.395 1.61178
347.078 113.337 30.1413
351.808 80.836 29.9648
346.211 79.9905 1.61313
348.277 113.531 33.0584
364.27 116.231 57.1693
368.898 83.4808 56.857
353.008 81.0291 32.8819
366.48 116.589 59.3938
390.352 120.626 75.4317
394.838 87.5247 75.0433
371.108 83.839 59.0814
393.233 121.088 76.6283
421.35 125.732 82.2022
425.674 92.2171 81.794
397.719 87.9862 76.2399
424.47 126.198 82.1946
452.623 130.448 76.5086
456.802 96.3159 76.1584
428.794 92.683 81.7864
455.526 130.786 75.3026
479.696 133.428 59.2783
483.755 98.2974 59.067
459.705 96.654 74.9524
481.933 133.599 57.0569
498.245 134.925 32.991
502.178 99.0908 32.8614
485.992 98.4686 56.8456
499.462 134.995 30.0798
505.219 135.417 1.56721
509.098 99.338 1.55828
503.395 99.1609 29.9502
505.219 135.417 -1.58818
499.47 134.992 -30.1021
503.4 99.1607 -29.9807
509.098 99.338 -1.5971
498.254 134.922 -33.0127
481.946 133.591 -57.0808
486.015 98.4642 -56.8541
502.184 99.0906 -32.8912
479.71 133.418 -59.3017
455.541 130.771 -75.3262
459.729 96.6401 -74.9618
483.779 98.2919 -59.075
452.639 130.432 -76.5322
424.486 126.182 -82.2181
428.819 92.6712 -81.799
456.827 96.3017 -76.1679
421.366 125.717 -82.2259
393.248 121.079 -76.6523
397.742 87.9825 -76.2552
425.698 92.2058 -81.8068
390.367 120.618 -75.4558
366.492 116.592 -59.419
371.129 83.8521 -59.0957
394.861 87.5221 -75.0587
364.28 116.235 -57.1916
348.26 113.537 -33.0262
352.999 81.0476 -32.8437
368.917 83.4949 -56.8684
347.06 113.343 -30.1049
341.439 112.396 -1.5517
346.21 79.9911 -1.55035
351.799 80.854 -29.9223
346.876 76.4322 1.5725
352.473 77.2778 29.9242
359.626 45.3496 28.6461
354.294 44.5847 1.57093
353.64 77.4526 32.768
369.53 79.9043 56.743
375.931 47.7484 54.4133
360.793 45.5244 31.4899
371.682 80.2293 58.9152
395.412 83.915 74.877
400.715 51.3979 71.8967
378.083 48.0734 56.5854
398.22 84.3332 76.0488
426.175 88.5641 81.6029
430.225 55.6207 78.4488
403.523 51.8161 73.0685
429.213 88.9818 81.6012
457.221 92.6147 75.9732
460.027 59.4217 73.1136
433.263 56.0385 78.4471
460.038 92.9106 74.8056
484.089 94.554 58.9202
485.634 61.7055 56.6367
462.844 59.7176 71.9459
486.266 94.6976 56.7487
502.452 95.3198 32.7645
503.065 62.7717 31.4596
487.811 61.8491 54.4653
503.635 95.3752 29.9145
509.338 95.5523 1.52261
509.597 63.0895 1.51115
504.248 62.8271 28.6096
509.338 95.5518 -1.56343
503.639 95.3745 -29.947
504.243 62.802 -28.653
509.597 63.0889 -1.57489
502.458 95.3186 -32.794
486.289 94.6922 -56.7569
487.837 61.8251 -54.4586
503.061 62.7462 -31.5
484.114 94.5482 -58.9265
460.064 92.8964 -74.8133
462.873 59.7049 -71.9426
485.662 61.681 -56.6283
457.246 92.6008 -75.9815
429.238 88.9703 -81.6126
433.293 56.0311 -78.4508
460.056 59.4093 -73.1108
426.2 88.5533 -81.6148
398.243 84.33 -76.0633
403.549 51.8187 -73.0784
430.254 55.614 -78.453
395.435 83.9133 -74.8918
371.703 80.2433 -58.9288
378.103 48.1008 -56.5994
400.741 51.402 -71.9069
369.55 79.9196 -56.7541
353.631 77.4723 -32.7293
360.78 45.5564 -31.4546
375.949 47.7771 -54.4247
352.464 77.2964 -29.8815
346.875 76.4335 -1.50962
354.293 44.586 -1.51118
359.613 45.3805 -28.6068
355.15 41.077 1.4882
360.482 41.8419 28.5634
368.482 10.4333 26.8609
363.473 9.74991 1.48229
361.586 41.9995 31.2558
376.724 44.2235 54.1792
383.803 12.5884 51.0343
369.586 10.5909 29.5534
378.761 44.5159 56.237
401.393 47.8403 71.5483
407.091 15.8476 67.4206
385.839 12.8808 53.0922
404.051 48.2157 72.6602
430.753 52.0204 78.0405
434.802 19.6305 73.549
409.749 16.223 68.5325
433.63 52.4019 78.0407
460.394 55.7851 72.7072
462.741 23.1428 68.5142
437.679 20.012 73.5493
463.055 56.0807 71.5972
485.845 58.0686 56.288
486.689 25.5798 53.0513
465.403 23.4385 67.4042
487.89 58.241 54.2271
503.144 59.1636 31.2215
502.932 26.8791 29.4597
488.733 25.7522 50.9904
504.251 59.237 28.5245
509.6 59.4993 1.42605
509.001 27.2752 1.43495
504.039 26.9525 26.7628
509.599 59.4973 -1.48984
504.245 59.2104 -28.568
504.032 26.9043 -26.7925
509.001 27.2732 -1.48094
503.139 59.1351 -31.2612
487.915 58.214 -54.2199
488.75 25.7087 -50.9821
502.926 26.829 -29.4857
485.872 58.0433 -56.2788
463.084 56.0672 -71.5931
465.424 23.4254 -67.401
486.707 25.538 -53.041
460.423 55.773 -72.7039
433.659 52.3947 -78.0439
437.701 20.0071 -73.5506
462.763 23.1311 -68.5117
430.782 52.0141 -78.0442
404.077 48.2188 -72.6695
409.769 16.2288 -68.5382
434.824 19.6264 -73.5509
401.419 47.8454 -71.5582
378.78 44.5442 -56.2508
385.851 12.9195 -53.1032
407.111 15.8554 -67.4269
376.742 44.2537 -54.1908
361.573 42.033 -31.2207
369.57 10.6363 -29.5266
383.812 12.629 -51.0433
360.469 41.8735 -28.5248
355.149 41.079 -1.4292
363.472 9.75192 -1.43511
368.466 10.4768 -26.8307
364.527 6.46291 1.35325
369.536 7.14629 26.7319
380.234 -20.9922 23.7836
375.811 -21.6137 1.33192
370.545 7.28659 29.1903
384.762 9.28406 50.6712
393.841 -19.0927 45.2724
381.242 -20.8519 26.2421
386.626 9.54137 52.5501
407.877 12.5082 66.8786
414.588 -16.3051 59.822
395.705 -18.8354 47.1513
410.31 12.838 67.8909
435.363 16.2455 72.9074
439.257 -13.0249 65.2261
417.02 -15.9753 60.8343
437.99 16.5907 72.9035
463.052 19.7216 67.8685
464.068 -9.74782 60.6976
441.884 -12.6796 65.2222
465.476 20.0185 66.8536
486.762 22.1598 52.5007
485.256 -6.97567 46.9626
466.493 -9.45094 59.6827
488.621 22.3664 50.6242
502.82 23.4933 29.0935
499.629 -5.11961 26.1213
487.115 -6.76905 45.0862
503.828 23.5959 26.6367
508.79 23.9186 1.30881
505.026 -4.4386 1.32962
500.637 -5.01702 23.6644
508.79 23.9171 -1.35128
503.821 23.5482 -26.6628
500.636 -5.01869 -23.6653
505.026 -4.44011 -1.33047
502.813 23.444 -29.1187
488.637 22.3238 -50.6151
487.115 -6.77246 -45.0864
499.629 -5.12281 -26.1212
486.779 22.1187 -52.491
465.496 20.0062 -66.8509
466.493 -9.45285 -59.6824
485.256 -6.97753 -46.9623
463.072 19.7103 -67.8659
438.01 16.5863 -72.9048
441.885 -12.6805 -65.222
464.069 -9.74871 -60.6974
435.383 16.2415 -72.9089
410.328 12.8438 -67.8962
417.021 -15.9756 -60.8343
439.258 -13.0253 -65.2261
407.896 12.5152 -66.884
386.636 9.57928 -52.5603
395.706 -18.8343 -47.1515
414.589 -16.3042 -59.8221
384.771 9.32361 -50.6808
370.529 7.33093 -29.1641
381.242 -20.8491 -26.2416
393.841 -19.09 -45.272
369.52 7.18921 -26.7047
364.527 6.4643 -1.30915
375.811 -21.6123 -1.33048
380.233 -20.9908 -23.7822
-91.4732 1011.18 25.3332
-95.3105 1007.77 -0.443265
-91.3904 1011.1 -26.2163
-80.3508 1020.68 -48.0372
-63.8631 1035.01 -62.5657
-44.5227 1051.95 -67.6158
-25.3952 1069.1 -62.5007
-9.41192 1084.01 -48.0206
1.15515 1094.25 -26.2589
4.87293 1097.85 -0.477448
1.15366 1094.26 25.3039
-9.42477 1084.04 47.0701
-25.4285 1069.16 61.5639
-44.5685 1052.04 66.692
-63.9164 1035.1 61.6548
-80.4389 1020.79 47.149
382.635 -22.3855 1.31945e-05
387.058 -21.764 22.4517
399.656 -20.0048 41.4821
418.539 -17.4746 54.1528
440.776 -14.5241 58.5446
462.96 -11.5923 54.02
481.723 -9.11705 41.3
494.237 -7.4676 22.335
498.627 -6.88918 0.000239176
494.237 -7.46776 -22.3346
481.723 -9.11742 -41.2997
462.96 -11.5927 -54.0199
440.776 -14.5245 -58.5445
418.539 -17.4748 -54.1527
399.656 -20.0049 -41.4821
387.058 -21.764 -22.4517
</DataArray>
</Points>
<Cells>
<DataArray type="Int32" Name="connectivity" format="ascii">
0 1 2 3 
4 5 6 7 
8 9 10 11 
12 13 14 15 
16 17 18 19 
20 21 22 23 
24 25 26 27 
28 29 30 31 
32 33 34 35 
36 37 38 39 
40 41 42 43 
44 45 46 47 
48 49 50 51 
52 53 54 55 
56 57 58 59 
60 61 62 63 
64 65 66 67 
68 69 70 71 
72 73 74 75 
76 77 78 79 
80 81 82 83 
84 85 86 87 
88 89 90 91 
92 93 94 95 
96 97 98 99 
100 101 102 103 
104 105 106 107 
108 109 110 111 
112 113 114 115 
116 117 118 119 
120 121 122 123 
124 125 126 127 
128 129 130 131 
132 133 134 135 
136 137 138 139 
140 141 142 143 
144 145 146 147 
148 149 150 151 
152 153 154 155 
156 157 158 159 
160 161 162 163 
164 165 166 167 
168 169 170 171 
172 173 174 175 
176 177 178 179 
180 181 182 183 
184 185 186 187 
188 189 190 191 
192 193 194 195 
196 197 198 199 
200 201 202 203 
204 205 206 207 
208 209 210 211 
212 213 214 215 
216 217 218 219 
220 221 222 223 
224 225 226 227 
228 229 230 231 
232 233 234 235 
236 237 238 239 
240 241 242 243 
244 245 246 247 
248 249 250 251 
252 253 254 255 
256 257 258 259 
260 261 262 263 
264 265 266 267 
268 269 270 271 
272 273 274 275 
276 277 278 279 
280 281 282 283 
284 285 286 287 
288 289 290 291 
292 293 294 295 
296 297 298 299 
300 301 302 303 
304 305 306 307 
308 309 310 311 
312 313 314 315 
316 317 318 319 
320 321 322 323 
324 325 326 327 
328 329 330 331 
332 333 334 335 
336 337 338 339 
340 341 342 343 
344 345 346 347 
348 349 350 351 
352 353 354 355 
356 357 358 359 
360 361 362 363 
364 365 366 367 
368 369 370 371 
372 373 374 375 
376 377 378 379 
380 381 382 383 
384 385 386 387 
388 389 390 391 
392 393 394 395 
396 397 398 399 
400 401 402 403 
404 405 406 407 
408 409 410 411 
412 413 414 415 
416 417 418 419 
420 421 422 423 
424 425 426 427 
428 429 430 431 
432 433 434 435 
436 437 438 439 
440 441 442 443 
444 445 446 447 
448 449 450 451 
452 453 454 455 
456 457 458 459 
460 461 462 463 
464 465 466 467 
468 469 470 471 
472 473 474 475 
476 477 478 479 
480 481 482 483 
484 485 486 487 
488 489 490 491 
492 493 494 495 
496 497 498 499 
500 501 502 503 
504 505 506 507 
508 509 510 511 
512 513 514 515 
516 517 518 519 
520 521 522 523 
524 525 526 527 
528 529 530 531 
532 533 534 535 
536 537 538 539 
540 541 542 543 
544 545 546 547 
548 549 550 551 
552 553 554 555 
556 557 558 559 
560 561 562 563 
564 565 566 567 
568 569 570 571 
572 573 574 575 
576 577 578 579 
580 581 582 583 
584 585 586 587 
588 589 590 591 
592 593 594 595 
596 597 598 599 
600 601 602 603 
604 605 606 607 
608 609 610 611 
612 613 614 615 
616 617 618 619 
620 621 622 623 
624 625 626 627 
628 629 630 631 
632 633 634 635 
636 637 638 639 
640 641 642 643 
644 645 646 647 
648 649 650 651 
652 653 654 655 
656 657 658 659 
660 661 662 663 
664 665 666 667 
668 669 670 671 
672 673 674 675 
676 677 678 679 
680 681 682 683 
684 685 686 687 
688 689 690 691 
692 693 694 695 
696 697 698 699 
700 701 702 703 
704 705 706 707 
708 709 710 711 
712 713 714 715 
716 717 718 719 
720 721 722 723 
724 725 726 727 
728 729 730 731 
732 733 734 735 
736 737 738 739 
740 741 742 743 
744 745 746 747 
748 749 750 751 
752 753 754 755 
756 757 758 759 
760 761 762 763 
764 765 766 767 
768 769 770 771 
772 773 774 775 
776 777 778 779 
780 781 782 783 
784 785 786 787 
788 789 790 791 
792 793 794 795 
796 797 798 799 
800 801 802 803 
804 805 806 807 
808 809 810 811 
812 813 814 815 
816 817 818 819 
820 821 822 823 
824 825 826 827 
828 829 830 831 
832 833 834 835 
836 837 838 839 
840 841 842 843 
844 845 846 847 
848 849 850 851 
852 853 854 855 
856 857 858 859 
860 861 862 863 
864 865 866 867 
868 869 870 871 
872 873 874 875 
876 877 878 879 
880 881 882 883 
884 885 886 887 
888 889 890 891 
892 893 894 895 
896 897 898 899 
900 901 902 903 
904 905 906 907 
908 909 910 911 
912 913 914 915 
916 917 918 919 
920 921 922 923 
924 925 926 927 
928 929 930 931 
932 933 934 935 
936 937 938 939 
940 941 942 943 
944 945 946 947 
948 949 950 951 
952 953 954 955 
956 957 958 959 
960 961 962 963 
964 965 966 967 
968 969 970 971 
972 973 974 975 
976 977 978 979 
980 981 982 983 
984 985 986 987 
988 989 990 991 
992 993 994 995 
996 997 998 999 
1000 1001 1002 1003 
1004 1005 1006 1007 
1008 1009 1010 1011 
1012 1013 1014 1015 
1016 1017 1018 1019 
1020 1021 1022 1023 
1024 1025 1026 1027 
1028 1029 1030 1031 
1032 1033 1034 1035 
1036 1037 1038 1039 
1040 1041 1042 1043 
1044 1045 1046 1047 
1048 1049 1050 1051 
1052 1053 1054 1055 
1056 1057 1058 1059 
1060 1061 1062 1063 
1064 1065 1066 1067 
1068 1069 1070 1071 
1072 1073 1074 1075 
1076 1077 1078 1079 
1080 1081 1082 1083 
1084 1085 1086 1087 
1088 1089 1090 1091 
1092 1093 1094 1095 
1096 1097 1098 1099 
1100 1101 1102 1103 
1104 1105 1106 1107 
1108 1109 1110 1111 
1112 1113 1114 1115 
1116 1117 1118 1119 
1120 1121 1122 1123 
1124 1125 1126 1127 
1128 1129 1130 1131 
1132 1133 1134 1135 
1136 1137 1138 1139 
1140 1141 1142 1143 
1144 1145 1146 1147 
1148 1149 1150 1151 
1152 1153 1154 1155 
1156 1157 1158 1159 
1160 1161 1162 1163 
1164 1165 1166 1167 
1168 1169 1170 1171 
1172 1173 1174 1175 
1176 1177 1178 1179 
1180 1181 1182 1183 
1184 1185 1186 1187 
1188 1189 1190 1191 
1192 1193 1194 1195 
1196 1197 1198 1199 
1200 1201 1202 1203 
1204 1205 1206 1207 
1208 1209 1210 1211 
1212 1213 1214 1215 
1216 1217 1218 1219 
1220 1221 1222 1223 
1224 1225 1226 1227 
1228 1229 1230 1231 
1232 1233 1234 1235 
1236 1237 1238 1239 
1240 1241 1242 1243 
1244 1245 1246 1247 
1248 1249 1250 1251 
1252 1253 1254 1255 
1256 1257 1258 1259 
1260 1261 1262 1263 
1264 1265 1266 1267 
1268 1269 1270 1271 
1272 1273 1274 1275 
1276 1277 1278 1279 
1280 1281 1282 1283 
1284 1285 1286 1287 
1288 1289 1290 1291 
1292 1293 1294 1295 
1296 1297 1298 1299 
1300 1301 1302 1303 
1304 1305 1306 1307 
1308 1309 1310 1311 
1312 1313 1314 1315 
1316 1317 1318 1319 
1320 1321 1322 1323 
1324 1325 1326 1327 
1328 1329 1330 1331 
1332 1333 1334 1335 
1336 1337 1338 1339 
1340 1341 1342 1343 
1344 1345 1346 1347 
1348 1349 1350 1351 
1352 1353 1354 1355 
1356 1357 1358 1359 
1360 1361 1362 1363 
1364 1365 1366 1367 
1368 1369 1370 1371 
1372 1373 1374 1375 
1376 1377 1378 1379 
1380 1381 1382 1383 
1384 1385 1386 1387 
1388 1389 1390 1391 
1392 1393 1394 1395 
1396 1397 1398 1399 
1400 1401 1402 1403 
1404 1405 1406 1407 
1408 1409 1410 1411 
1412 1413 1414 1415 
1416 1417 1418 1419 
1420 1421 1422 1423 
1424 1425 1426 1427 
1428 1429 1430 1431 
1432 1433 1434 1435 
1436 1437 1438 1439 
1440 1441 1442 1443 
1444 1445 1446 1447 
1448 1449 1450 1451 
1452 1453 1454 1455 
1456 1457 1458 1459 
1460 1461 1462 1463 
1464 1465 1466 1467 
1468 1469 1470 1471 
1472 1473 1474 1475 
1476 1477 1478 1479 
1480 1481 1482 1483 
1484 1485 1486 1487 
1488 1489 1490 1491 
1492 1493 1494 1495 
1496 1497 1498 1499 
1500 1501 1502 1503 
1504 1505 1506 1507 
1508 1509 1510 1511 
1512 1513 1514 1515 
1516 1517 1518 1519 
1520 1521 1522 1523 
1524 1525 1526 1527 
1528 1529 1530 1531 
1532 1533 1534 1535 
1536 1537 1538 1539 
1540 1541 1542 1543 
1544 1545 1546 1547 
1548 1549 1550 1551 
1552 1553 1554 1555 
1556 1557 1558 1559 
1560 1561 1562 1563 
1564 1565 1566 1567 
1568 1569 1570 1571 
1572 1573 1574 1575 
1576 1577 1578 1579 
1580 1581 1582 1583 
1584 1585 1586 1587 
1588 1589 1590 1591 
1592 1593 1594 1595 
1596 1597 1598 1599 
1600 1601 1602 1603 
1604 1605 1606 1607 
1608 1609 1610 1611 
1612 1613 1614 1615 
1616 1617 1618 1619 
1620 1621 1622 1623 
1624 1625 1626 1627 
1628 1629 1630 1631 
1632 1633 1634 1635 
1636 1637 1638 1639 
1640 1641 1642 1643 
1644 1645 1646 1647 
1648 1649 1650 1651 
1652 1653 1654 1655 
1656 1657 1658 1659 
1660 1661 1662 1663 
1664 1665 1666 1667 
1668 1669 1670 1671 
1672 1673 1674 1675 
1676 1677 1678 1679 
1680 1681 1682 1683 
1684 1685 1686 1687 
1688 1689 1690 1691 
1692 1693 1694 1695 
1696 1697 1698 1699 
1700 1701 1702 1703 
1704 1705 1706 1707 
1708 1709 1710 1711 
1712 1713 1714 1715 
1716 1717 1718 1719 
1720 1721 1722 1723 
1724 1725 1726 1727 
1728 1729 1730 1731 
1732 1733 1734 1735 
1736 1737 1738 1739 
1740 1741 1742 1743 
1744 1745 1746 1747 
1748 1749 1750 1751 
1752 1753 1754 1755 
1756 1757 1758 1759 
1760 1761 1762 1763 
1764 1765 1766 1767 
1768 1769 1770 1771 
1772 1773 1774 1775 
1776 1777 1778 1779 
1780 1781 1782 1783 
1784 1785 1786 1787 
1788 1789 1790 1791 
1792 1793 1794 1795 
1796 1797 1798 1799 
1800 1801 1802 1803 
1804 1805 1806 1807 
1808 1809 1810 1811 
1812 1813 1814 1815 
1816 1817 1818 1819 
1820 1821 1822 1823 
1824 1825 1826 1827 
1828 1829 1830 1831 
1832 1833 1834 1835 
1836 1837 1838 1839 
1840 1841 1842 1843 
1844 1845 1846 1847 
1848 1849 1850 1851 
1852 1853 1854 1855 
1856 1857 1858 1859 
1860 1861 1862 1863 
1864 1865 1866 1867 
1868 1869 1870 1871 
1872 1873 1874 1875 
1876 1877 1878 1879 
1880 1881 1882 1883 
1884 1885 1886 1887 
1888 1889 1890 1891 
1892 1893 1894 1895 
1896 1897 1898 1899 
1900 1901 1902 1903 
1904 1905 1906 1907 
1908 1909 1910 1911 
1912 1913 1914 1915 
1916 1917 1918 1919 
1920 1921 1922 1923 
1924 1925 1926 1927 
1928 1929 1930 1931 
1932 1933 1934 1935 
1936 1937 1938 1939 
1940 1941 1942 1943 
1944 1945 1946 1947 
1948 1949 1950 1951 
1952 1953 1954 1955 
1956 1957 1958 1959 
1960 1961 1962 1963 
1964 1965 1966 1967 
1968 1969 1970 1971 
1972 1973 1974 1975 
1976 1977 1978 1979 
1980 1981 1982 1983 
1984 1985 1986 1987 
1988 1989 1990 1991 
1992 1993 1994 1995 
1996 1997 1998 1999 
2000 2001 2002 2003 
2004 2005 2006 2007 
2008 2009 2010 2011 
2012 2013 2014 2015 
2016 2017 2018 2019 
2020 2021 2022 2023 
2024 2025 2026 2027 
2028 2029 2030 2031 
2032 2033 2034 2035 
2036 2037 2038 2039 
2040 2041 2042 2043 
2044 2045 2046 2047 
2048 2049 2050 2051 2052 2053 2054 2055 2056 2057 2058 2059 2060 2061 2062 2063 
2064 2065 2066 2067 2068 2069 2070 2071 2072 2073 2074 2075 2076 2077 2078 2079 
</DataArray>
<DataArray type="Int32" Name="offsets" format="ascii">
4 8 12 16 20 24 28 32 36 40 44 48 52 56 60 64 68 72 76 80 84 88 92 96 100 104 108 112 116 120 124 128 132 136 140 144 148 152 156 160 164 168 172 176 180 184 188 192 196 200 204 208 212 216 220 224 228 232 236 240 244 248 252 256 260 264 268 272 276 280 284 288 292 296 300 304 308 312 316 320 324 328 332 336 340 344 348 352 356 360 364 368 372 376 380 384 388 392 396 400 404 408 412 416 420 424 428 432 436 440 444 448 452 456 460 464 468 472 476 480 484 488 492 496 500 504 508 512 516 520 524 528 532 536 540 544 548 552 556 560 564 568 572 576 580 584 588 592 596 600 604 608 612 616 620 624 628 632 636 640 644 648 652 656 660 664 668 672 676 680 684 688 692 696 700 704 708 712 716 720 724 728 732 736 740 744 748 752 756 760 764 768 772 776 780 784 788 792 796 800 804 808 812 816 820 824 828 832 836 840 844 848 852 856 860 864 868 872 876 880 884 888 892 896 900 904 908 912 916 920 924 928 932 936 940 944 948 952 956 960 964 968 972 976 980 984 988 992 996 1000 1004 1008 1012 1016 1020 1024 1028 1032 1036 1040 1044 1048 1052 1056 1060 1064 1068 1072 1076 1080 1084 1088 1092 1096 1100 1104 1108 1112 1116 1120 1124 1128 1132 1136 1140 1144 1148 1152 1156 1160 1164 1168 1172 1176 1180 1184 1188 1192 1196 1200 1204 1208 1212 1216 1220 1224 1228 1232 1236 1240 1244 1248 1252 1256 1260 1264 1268 1272 1276 1280 1284 1288 1292 1296 1300 1304 1308 1312 1316 1320 1324 1328 1332 1336 1340 1344 1348 1352 1356 1360 1364 1368 1372 1376 1380 1384 1388 1392 1396 1400 1404 1408 1412 1416 1420 1424 1428 1432 1436 1440 1444 1448 1452 1456 1460 1464 1468 1472 1476 1480 1484 1488 1492 1496 1500 1504 1508 1512 1516 1520 1524 1528 1532 1536 1540 1544 1548 1552 1556 1560 1564 1568 1572 1576 1580 1584 1588 1592 1596 1600 1604 1608 1612 1616 1620 1624 1628 1632 1636 1640 1644 1648 1652 1656 1660 1664 1668 1672 1676 1680 1684 1688 1692 1696 1700 1704 1708 1712 1716 1720 1724 1728 1732 1736 1740 1744 1748 1752 1756 1760 1764 1768 1772 1776 1780 1784 1788 1792 1796 1800 1804 1808 1812 1816 1820 1824 1828 1832 1836 1840 1844 1848 1852 1856 1860 1864 1868 1872 1876 1880 1884 1888 1892 1896 1900 1904 1908 1912 1916 1920 1924 1928 1932 1936 1940 1944 1948 1952 1956 1960 1964 1968 1972 1976 1980 1984 1988 1992 1996 2000 2004 2008 2012 2016 2020 2024 2028 2032 2036 2040 2044 2048 2064 2080 
</DataArray>
<DataArray type="UInt8" Name="types" format="ascii">
7 7 7 7 7 7 7 7 7 7 7 7 7 7 7 7 7 7 7 7 7 7 7 7 7 7 7 7 7 7 7 7 7 7 7 7 7 7 7 7 7 7 7 7 7 7 7 7 7 7 7 7 7 7 7 7 7 7 7 7 7 7 7 7 7 7 7 7 7 7 7 7 7 7 7 7 7 7 7 7 7 7 7 7 7 7 7 7 7 7 7 7 7 7 7 7 7 7 7 7 7 7 7 7 7 7 7 7 7 7 7 7 7 7 7 7 7 7 7 7 7 7 7 7 7 7 7 7 7 7 7 7 7 7 7 7 7 7 7 7 7 7 7 7 7 7 7 7 7 7 7 7 7 7 7 7 7 7 7 7 7 7 7 7 7 7 7 7 7 7 7 7 7 7 7 7 7 7 7 7 7 7 7 7 7 7 7 7 7 7 7 7 7 7 7 7 7 7 7 7 7 7 7 7 7 7 7 7 7 7 7 7 7 7 7 7 7 7 7 7 7 7 7 7 7 7 7 7 7 7 7 7 7 7 7 7 7 7 7 7 7 7 7 7 7 7 7 7 7 7 7 7 7 7 7 7 7 7 7 7 7 7 7 7 7 7 7 7 7 7 7 7 7 7 7 7 7 7 7 7 7 7 7 7 7 7 7 7 7 7 7 7 7 7 7 7 7 7 7 7 7 7 7 7 7 7 7 7 7 7 7 7 7 7 7 7 7 7 7 7 7 7 7 7 7 7 7 7 7 7 7 7 7 7 7 7 7 7 7 7 7 7 7 7 7 7 7 7 7 7 7 7 7 7 7 7 7 7 7 7 7 7 7 7 7 7 7 7 7 7 7 7 7 7 7 7 7 7 7 7 7 7 7 7 7 7 7 7 7 7 7 7 7 7 7 7 7 7 7 7 7 7 7 7 7 7 7 7 7 7 7 7 7 7 7 7 7 7 7 7 7 7 7 7 7 7 7 7 7 7 7 7 7 7 7 7 7 7 7 7 7 7 7 7 7 7 7 7 7 7 7 7 7 7 7 7 7 7 7 7 7 7 7 7 7 7 7 7 7 7 7 7 7 7 7 7 7 7 7 7 7 7 7 7 7 7 7 7 7 7 7 7 7 7 7 7 7 7 7 7 7 7 7 7 7 7 7 7 7 7 7 7 7 7 
</DataArray>
</Cells>
<CellData Scalars="cell variable 4" Vectors="cell vector">
<DataArray type="Float64" NumberOfComponents="3" Name="cell vector" format="ascii">
0.186671 0.0645247 0.980301
0.540335 0.152449 0.827525
0.793201 0.225496 0.565671
0.915398 0.323254 0.239905
0.673699 0.709286 -0.207471
0.233146 0.797597 -0.556311
-0.128194 -0.571409 0.810591
-0.0264575 -0.223874 0.974259
0.0306784 0.221175 0.974751
0.117092 0.578013 0.807583
0.229654 0.799545 0.554966
0.670373 0.712421 0.207501
0.913535 0.328849 -0.2394
0.788721 0.238222 -0.566718
-0.527537 -0.178783 0.830507
-0.192933 -0.0545689 0.979693
0.160625 0.113296 0.980492
0.460167 0.316429 0.82953
0.683258 0.476181 0.553543
0.783538 0.589833 0.195357
0.715833 0.670436 -0.195189
0.521389 0.65132 -0.551303
-0.344985 -0.442264 0.827881
-0.122541 -0.155052 0.980277
0.122443 0.155861 0.980161
0.341502 0.446082 0.827277
0.519848 0.653021 0.550746
0.715527 0.670883 0.194775
0.782997 0.590447 -0.195671
0.681751 0.477898 -0.553922
-0.457638 -0.319087 0.82991
-0.162346 -0.110483 0.980529
0.158526 0.116466 0.980462
0.452774 0.327127 0.829448
0.675086 0.488787 0.552581
0.782095 0.592345 0.193532
0.712007 0.674517 -0.195121
0.522551 0.652751 -0.548504
-0.360742 -0.428912 0.828191
-0.128876 -0.149067 0.980393
0.128525 0.150236 0.98026
0.359135 0.431035 0.827787
0.521887 0.653648 0.548068
0.711635 0.675015 0.194756
0.781478 0.59307 -0.193806
0.674394 0.489454 -0.552836
-0.451544 -0.327956 0.829791
-0.159407 -0.11421 0.980584
0.158776 0.116413 0.980428
0.453492 0.326732 0.829211
0.67904 0.484313 0.551675
0.794866 0.575505 0.192307
0.733251 0.651101 -0.195986
-0.231901 0.927763 -0.292365
-0.609982 0.785945 -0.101051
-0.662679 0.748251 -0.0312535
-0.662858 0.748187 0.0289071
-0.611064 0.785497 0.0979509
-0.228387 0.928388 0.293146
0.732409 0.652151 0.195641
0.794217 0.576316 -0.192561
0.678711 0.48456 -0.551864
-0.45258 -0.32714 0.829548
-0.159136 -0.114478 0.980597
0.158743 0.116428 0.980431
0.452755 0.327539 0.829295
0.677925 0.485909 0.551644
0.79597 0.574153 0.191783
0.761573 0.617742 -0.195963
-0.253281 0.929296 -0.268808
-0.590228 0.801256 -0.0980849
-0.64094 0.76699 -0.0303627
-0.64093 0.767044 0.0291949
-0.590282 0.801377 0.0967572
-0.250292 0.929965 0.269295
0.760905 0.618655 0.195676
0.795511 0.574713 -0.192011
0.677889 0.485795 -0.551788
-0.452236 -0.327466 0.829608
-0.158847 -0.114647 0.980624
0.159042 0.115521 0.98049
0.45339 0.32554 0.829736
0.679336 0.48326 0.552235
0.800164 0.568309 0.191738
0.779822 0.594595 -0.195792
-0.338397 0.918036 -0.206632
-0.578253 0.811395 -0.0852199
-0.621947 0.782582 -0.0273477
-0.621931 0.782631 0.0262837
-0.578265 0.81151 0.0840296
-0.335673 0.918922 0.20714
0.779083 0.595637 0.195565
0.799815 0.568734 -0.191931
0.679445 0.482969 -0.552354
-0.453108 -0.325173 0.830033
-0.159008 -0.113838 0.980692
0.159909 0.113749 0.980556
0.455742 0.321013 0.830211
0.683103 0.477121 0.552926
0.805926 0.560042 0.191926
0.792942 0.57692 -0.195975
-0.4142 0.898643 -0.1445
-0.567972 0.820071 -0.0699459
-0.603547 0.796978 -0.0235797
-0.603533 0.797019 0.0225524
-0.567982 0.820161 0.0687994
-0.412418 0.899455 0.144542
0.792233 0.577961 0.195777
0.805686 0.560328 -0.192098
0.683285 0.476738 -0.55303
-0.455593 -0.320476 0.8305
-0.159783 -0.112139 0.980762
0.161218 0.111384 0.980613
0.459378 0.314716 0.830618
0.688607 0.468418 0.553539
0.812917 0.549765 0.192159
0.804475 0.560615 -0.196293
-0.461251 0.881887 -0.0975872
-0.55718 0.828555 -0.0551946
-0.585075 0.810743 -0.0195763
-0.585062 0.810776 0.0185698
-0.557184 0.828626 0.0540887
-0.460146 0.882501 0.0972451
0.803856 0.561566 0.196111
0.812771 0.549926 -0.192316
0.688822 0.467989 -0.553634
-0.459303 -0.314075 0.830901
-0.161021 -0.109829 0.980821
0.162832 0.1086 0.980659
0.463899 0.307144 0.830939
0.695342 0.457767 0.55403
0.820963 0.537605 0.192356
0.81611 0.543432 -0.196585
-0.483429 0.872852 -0.0665277
-0.545026 0.837352 -0.0422757
-0.566322 0.824035 -0.0156748
-0.566311 0.824061 0.0146829
-0.545022 0.837408 0.0412127
-0.482692 0.873302 0.0659736
0.815586 0.544279 0.196416
0.820885 0.537672 -0.192503
0.695569 0.457317 -0.554116
-0.463865 -0.306438 0.831219
-0.162577 -0.107089 0.980867
0.164653 0.105494 0.980694
0.469028 0.298569 0.831185
0.702963 0.445511 0.554403
0.829847 0.523733 0.192504
0.826554 0.527325 -0.196817
-0.490157 0.87041 -0.0461765
-0.531291 0.8466 -0.0315889
-0.547174 0.836931 -0.0121679
-0.547167 0.836949 0.0111851
-0.53128 0.846645 0.0305696
-0.489609 0.870753 0.0455265
0.826137 0.528038 0.196656
0.829816 0.523731 -0.192642
0.703189 0.445057 -0.554482
-0.469013 -0.297821 0.831462
-0.164346 -0.104021 0.980903
0.166602 0.102139 0.98072
0.474527 0.289218 0.831371
0.711147 0.431966 0.554685
0.839332 0.50835 0.19262
0.835966 0.512201 -0.197006
-0.489367 0.87152 -0.031196
-0.516058 0.856244 -0.0230157
-0.527598 0.849445 -0.00920062
-0.527594 0.849457 0.00823019
-0.516043 0.856279 0.0220375
-0.488946 0.871781 0.0304917
0.835648 0.51278 0.19685
0.83933 0.508303 -0.19275
0.711363 0.431517 -0.554757
-0.474518 -0.288446 0.831644
-0.166246 -0.100702 0.980929
0.168612 0.0985956 0.980739
0.480197 0.279296 0.831508
0.7196 0.417452 0.554896
0.849182 0.491683 0.192712
0.846012 0.495374 -0.197149
-0.481849 0.876 -0.0211351
-0.499432 0.866198 -0.0163919
-0.507631 0.861548 -0.00675944
-0.50763 0.861556 0.00581158
-0.499419 0.866223 0.0154471
-0.481516 0.8762 0.0204053
0.845752 0.495879 0.196999
0.849197 0.491609 -0.192835
0.719805 0.417013 -0.55496
-0.480186 -0.278508 0.831778
-0.168208 -0.0971946 0.980948
0.170642 0.0948975 0.980753
0.485925 0.2689 0.831606
0.728154 0.402137 0.555048
0.859193 0.473944 0.192779
0.856413 0.477127 -0.197245
-0.469919 0.882594 -0.014289
-0.481632 0.8763 -0.0113469
-0.487286 0.873229 -0.00480897
-0.487286 0.873234 0.0038879
-0.481619 0.876318 0.0104397
-0.469659 0.882744 0.0135432
0.856207 0.477556 0.197103
0.859222 0.473845 -0.192894
0.728345 0.401712 -0.555105
-0.485905 -0.268109 0.831873
-0.17019 -0.0935364 0.980962
0.172659 0.0910751 0.980762
0.491622 0.258121 0.831674
0.736664 0.386176 0.555152
0.869183 0.455344 0.192827
0.866764 0.45803 -0.197304
-0.455252 0.890313 -0.00938522
-0.4629 0.886379 -0.00747201
-0.466586 0.88447 -0.00326125
-0.466587 0.884472 0.00237137
-0.46289 0.886391 0.00659996
-0.455036 0.890431 0.00864814
0.866601 0.458395 0.197171
0.869212 0.455245 -0.192933
0.73684 0.38577 -0.555201
-0.49159 -0.257331 0.831938
-0.172162 -0.0897527 0.980971
0.174639 0.0871544 0.980768
0.497212 0.247043 0.831715
0.745013 0.369717 0.555217
0.878993 0.436093 0.192858
0.876853 0.438392 -0.197334
-0.438897 0.89852 -0.00562108
-0.44346 0.896284 -0.00439078
-0.445565 0.895248 -0.00200454
-0.445567 0.895248 0.0011524
-0.443457 0.896288 0.00354874
-0.438717 0.898612 0.00489966
0.876699 0.438757 0.197208
0.879015 0.436006 -0.192957
0.745173 0.369331 -0.555259
-0.497165 -0.246257 0.831976
-0.174098 -0.0858716 0.980977
0.176563 0.083157 0.98077
0.502637 0.23574 0.831735
0.753103 0.352896 0.555248
0.888485 0.416404 0.192875
0.886453 0.418639 -0.197339
-0.421627 0.906766 -0.00241449
-0.423543 0.905874 -0.00173192
-0.424261 0.90554 -0.000914856
-0.424263 0.905539 9.86033e-05
-0.423541 0.905876 0.000928362
-0.42149 0.906832 0.001703
0.886337 0.418941 0.197221
0.888508 0.416315 -0.192966
0.753248 0.352531 -0.555283
-0.502574 -0.234965 0.831992
-0.175977 -0.0819203 0.98098
0.178414 0.0791113 0.98077
0.507847 0.224301 0.831734
0.760854 0.335857 0.555249
0.897568 0.396445 0.192882
0.895525 0.398871 -0.197323
-0.404081 0.914723 0.000704851
-0.40333 0.915054 0.000786988
-0.402708 0.915329 0.000130458
-0.402707 0.915328 -0.000887512
-0.403344 0.915047 -0.00157402
-0.404035 0.914743 -0.00144065
0.895419 0.399164 0.197212
0.897588 0.39636 -0.192965
0.760987 0.335509 -0.555276
-0.507768 -0.223535 0.831988
-0.177784 -0.0779256 0.980979
0.18018 0.0750458 0.980767
0.512805 0.212805 0.831712
0.768204 0.318735 0.555221
0.906152 0.376414 0.192877
0.9041 0.379053 -0.197287
-0.386711 0.922192 0.0040587
-0.383043 0.923724 0.00350072
-0.380946 0.924597 0.0012374
-0.380945 0.924596 -0.00195601
-0.383061 0.923713 -0.00425443
-0.386743 0.922175 -0.00480789
0.904043 0.379242 0.197185
0.906175 0.37632 -0.192952
0.768325 0.31841 -0.55524
-0.512708 -0.212051 0.831964
-0.179507 -0.0739137 0.980976
0.181848 0.0709965 0.98076
0.517479 0.201351 0.831669
0.775103 0.301684 0.55516
0.914192 0.356452 0.19286
0.912378 0.358703 -0.197228
-0.370012 0.928993 0.00799556
-0.36285 0.931824 0.00666082
-0.359011 0.93333 0.00251566
-0.359015 0.933326 -0.00320888
-0.362888 0.931804 -0.00739102
-0.370033 0.928978 -0.00868532
0.912262 0.359048 0.197135
0.914205 0.356383 -0.192926
0.775213 0.30138 -0.555172
-0.517372 -0.200598 0.831918
-0.18114 -0.069909 0.98097
0.183416 0.0669902 0.98075
0.521851 0.190036 0.8316
0.781513 0.284865 0.555059
0.921629 0.336775 0.192826
0.920204 0.33817 -0.197143
-0.354703 0.934889 0.0130045
-0.342976 0.939285 0.0105818
-0.336942 0.941517 0.00408185
-0.33695 0.941511 -0.00474222
-0.343034 0.939255 -0.0112939
-0.354762 0.934857 -0.0136716
0.920072 0.338579 0.197058
0.921633 0.336731 -0.192884
0.781612 0.284583 -0.555063
-0.521736 -0.189277 0.831845
-0.182675 -0.0659497 0.980959
0.184883 0.0630577 0.980735
0.525912 0.178964 0.831498
0.7874 0.268473 0.554908
0.928389 0.317698 0.192773
0.927428 0.317898 -0.197021
-0.341841 0.939549 0.0198079
-0.323725 0.946021 0.0157021
-0.314783 0.949144 0.00606774
-0.314794 0.949136 -0.0067039
-0.323789 0.945987 -0.0163829
-0.34199 0.93948 -0.0204931
0.92733 0.31823 0.196946
0.928404 0.317625 -0.192821
0.787493 0.268208 -0.554905
-0.52579 -0.178198 0.831739
-0.184108 -0.0620749 0.980944
0.186245 0.0592527 0.980715
0.52965 0.168287 0.831355
0.792737 0.25275 0.554695
0.93444 0.299486 0.192693
0.934084 0.297883 -0.196856
-0.333032 0.942454 0.0295124
-0.30536 0.951974 0.022401
-0.292567 0.956207 0.00855806
-0.292585 0.956195 -0.00918361
-0.305442 0.951931 -0.0230601
-0.33323 0.942362 -0.0301824
0.933973 0.298274 0.196792
0.934462 0.29939 -0.192732
0.792827 0.252491 -0.554683
-0.529527 -0.167493 0.831593
-0.185441 -0.0583252 0.980923
0.187502 0.0556329 0.980687
0.53306 0.158179 0.83116
0.797502 0.237975 0.554399
0.93974 0.282492 0.192579
0.940105 0.278456 -0.196635
-0.330687 0.942724 0.0437863
-0.288183 0.95707 0.031102
-0.270321 0.9627 0.0115923
-0.270353 0.962684 -0.0122374
-0.288281 0.95702 -0.0317336
-0.330911 0.942616 -0.0444216
0.939995 0.278864 0.196584
0.93977 0.282372 -0.192608
0.797593 0.237718 -0.554379
-0.532945 -0.157334 0.831394
-0.186675 -0.0547596 0.980894
0.188657 0.052271 0.980651
0.53614 0.148871 0.830898
0.801675 0.224509 0.553997
0.944266 0.267092 0.192417
0.945532 0.259646 -0.196349
-0.338612 0.938658 0.0652965
-0.272421 0.961256 0.0421152
-0.248053 0.968628 0.0151403
-0.248105 0.968604 -0.0158321
-0.272533 0.961198 -0.0427127
-0.338855 0.938529 -0.0658901
0.945422 0.260077 0.196311
0.944309 0.266924 -0.192436
0.801772 0.224233 -0.553968
-0.53604 -0.147943 0.831128
-0.187813 -0.0514596 0.980856
0.189709 0.0492659 0.980603
0.538885 0.140662 0.830552
0.805234 0.212787 0.553461
0.948007 0.253664 0.192193
0.95041 0.241467 -0.195997
-0.362443 0.926832 0.0980733
-0.258154 0.964507 0.0555288
-0.22574 0.974001 0.0190688
-0.225817 0.973968 -0.0198404
-0.258264 0.964446 -0.0560686
-0.362752 0.926649 -0.0986591
0.950328 0.241807 0.195976
0.948076 0.253399 -0.192202
0.805344 0.212467 -0.553424
-0.538808 -0.139613 0.830779
-0.188855 -0.0485325 0.980805
0.190649 0.046772 0.980543
0.541265 0.133988 0.830108
0.808142 0.203355 0.552769
0.950999 0.242438 0.191897
0.954897 0.223388 -0.195628
-0.408044 0.901132 0.146499
-0.24504 0.96692 0.0708516
-0.203267 0.97885 0.0231144
-0.203379 0.978806 -0.0239946
-0.24514 0.966862 -0.0713079
-0.408502 0.900821 -0.14713
0.954846 0.22361 0.195624
0.951095 0.24206 -0.191898
0.808271 0.202956 -0.552726
-0.541225 -0.132749 0.830333
-0.189797 -0.0461306 0.980739
0.191425 0.0450409 0.980473
0.543172 0.129531 0.82957
0.810289 0.196982 0.551933
0.953306 0.233476 0.191562
0.959447 0.203169 -0.195408
-0.471321 0.857072 0.208046
-0.231659 0.968958 0.0863402
-0.180163 0.983271 0.0268275
-0.180317 0.983215 -0.0278159
-0.231728 0.968914 -0.0866502
-0.471914 0.856587 -0.208699
0.959429 0.203246 0.195415
0.953422 0.233004 -0.191562
0.810442 0.196465 -0.551893
-0.54319 -0.127992 0.829797
-0.190606 -0.0445004 0.980657
0.19188 0.0444322 0.980412
0.544254 0.128326 0.829047
0.811294 0.195098 0.551126
0.9547 0.227862 0.191379
0.964775 0.175945 -0.195582
-0.514946 0.818035 0.25622
-0.21293 0.972231 0.0970918
-0.154157 0.987611 0.0293133
-0.154331 0.987556 -0.0302336
-0.212879 0.972245 -0.0970673
-0.515185 0.817795 -0.256509
0.964801 0.1758 0.195586
0.954833 0.227299 -0.191388
0.811471 0.194401 -0.551111
-0.544366 -0.126307 0.829284
-0.191159 -0.043993 0.980573
0.191588 0.0452146 0.980433
0.543411 0.131899 0.82904
0.809424 0.202522 0.551197
0.952462 0.236449 0.192116
0.972002 0.129887 -0.195812
-0.409894 0.888478 0.206381
-0.166711 0.982158 0.0870208
-0.113354 0.993166 0.0277723
-0.113244 0.993199 -0.0270529
-0.165491 0.982533 -0.0850978
-0.410608 0.887976 -0.207122
0.972145 0.128714 0.195875
0.952692 0.235524 -0.192109
0.80966 0.201392 -0.551264
-0.543717 -0.128992 0.829296
-0.191101 -0.0448721 0.980544
0.190305 0.0419358 0.980829
0.540902 0.121967 0.832195
0.808944 0.184985 0.558023
0.957805 0.206968 0.199435
0.976094 0.0901285 -0.197781
0.830219 -0.0388734 -0.556081
-0.556067 0.00533798 0.831121
-0.195426 -0.000915105 0.980718
0.195553 0.000566491 0.980693
0.556055 -0.00729628 0.831114
0.830154 -0.038505 0.556203
0.976046 0.0903278 0.197925
0.957953 0.20642 -0.199288
0.809184 0.184017 -0.557995
-0.541457 -0.119164 0.83224
-0.190041 -0.0416808 0.980891
0.190333 0.0385535 0.980962
0.541179 0.112432 0.833357
0.810565 0.169707 0.560521
0.961707 0.18578 0.201508
0.974462 0.108903 -0.196378
0.826528 -0.00884661 -0.562826
-0.550589 0.00270477 0.834772
-0.19289 -0.000488714 0.98122
0.193215 8.57978e-05 0.981156
0.550483 -0.00638655 0.834822
0.826427 -0.00863633 0.562978
0.974403 0.109193 0.19651
0.961792 0.185517 -0.201343
0.810756 0.169138 -0.560416
-0.541778 -0.109978 0.833295
-0.190055 -0.0384321 0.981021
0.184792 0.0486357 0.981574
0.522304 0.151136 0.83926
0.768666 0.268303 0.580659
0.865438 0.42796 0.260515
0.973391 -0.0187572 -0.228381
0.788446 -0.177353 -0.588982
-0.537375 0.053208 0.841663
-0.188783 0.0135897 0.981925
0.188867 -0.0139291 0.981904
0.535772 -0.063238 0.841992
0.788974 -0.17486 0.589019
0.974425 -0.00140277 0.22471
0.866998 0.425147 -0.259933
0.768765 0.268057 -0.580642
-0.526091 -0.141556 0.838564
-0.184945 -0.0480517 0.981573
0.00593464 0.00636726 0.999962
0.00257188 0.000343963 0.999997
</DataArray>
<DataArray type="Float64" Name="cell vector length" format="ascii">
0.181839 0.171796 0.165061 0.129029 0.0807202 0.181353 0.222248 0.202206 0.19888 0.216345 0.182281 0.0804481 0.128372 0.163422 0.189299 0.19057 0.415408 0.387111 0.348143 0.297708 0.267249 0.330138 0.417949 0.44635 0.441309 0.404593 0.328378 0.267423 0.298598 0.350728 0.407005 0.422817 0.522093 0.491242 0.441692 0.373746 0.32633 0.409084 0.518673 0.559197 0.555599 0.508452 0.407579 0.326816 0.374888 0.443813 0.50681 0.527284 0.555476 0.520939 0.461188 0.370581 0.212184 0.124121 0.292626 0.378482 0.378985 0.294859 0.123588 0.213005 0.371742 0.462954 0.534907 0.559911 0.577352 0.538388 0.467001 0.355007 0.182414 0.103136 0.283993 0.371573 0.371279 0.283149 0.102333 0.183385 0.356227 0.468508 0.551387 0.581307 0.5932 0.550026 0.468142 0.339109 0.152338 0.0927089 0.274558 0.360282 0.360011 0.273754 0.0917559 0.153525 0.340408 0.46947 0.562432 0.596865 0.604937 0.558472 0.468566 0.326922 0.12874 0.0911455 0.267703 0.350414 0.350185 0.266987 0.090137 0.13004 0.328242 0.469755 0.57052 0.608432 0.61362 0.564682 0.468815 0.317816 0.110958 0.0942821 0.262938 0.342262 0.342062 0.262283 0.0932659 0.112328 0.319136 0.469907 0.576532 0.617021 0.620012 0.569206 0.468906 0.311032 0.0978946 0.0986229 0.259736 0.335825 0.335646 0.259122 0.0976178 0.0993101 0.312351 0.469938 0.58097 0.623369 0.624677 0.572447 0.468845 0.306003 0.089578 0.101344 0.257428 0.330955 0.330791 0.256843 0.100359 0.0910167 0.307324 0.469846 0.584201 0.628022 0.628033 0.574717 0.468681 0.302217 0.0825295 0.104686 0.256089 0.327267 0.327113 0.25552 0.103717 0.0839818 0.303544 0.469671 0.586512 0.631387 0.630406 0.576261 0.468431 0.299324 0.0772554 0.107399 0.255253 0.324548 0.324403 0.254697 0.106452 0.078713 0.300659 0.469423 0.588132 0.633784 0.632034 0.57726 0.468123 0.29714 0.073467 0.109378 0.254767 0.322664 0.322525 0.25422 0.10845 0.0749266 0.298485 0.469126 0.589227 0.635443 0.633083 0.577844 0.467793 0.295536 0.070807 0.110749 0.254509 0.321448 0.321314 0.253969 0.109841 0.0722664 0.296893 0.46881 0.589919 0.636529 0.633672 0.578105 0.467459 0.294406 0.0690313 0.111628 0.254413 0.32077 0.32064 0.253878 0.110733 0.0704951 0.295776 0.468492 0.590295 0.637158 0.633879 0.578103 0.467132 0.293673 0.0679948 0.112094 0.254452 0.320547 0.320418 0.253914 0.111206 0.0694625 0.295057 0.468182 0.590412 0.637407 0.633741 0.577868 0.466816 0.293294 0.0675879 0.112246 0.254645 0.320745 0.320606 0.254078 0.111344 0.069062 0.294694 0.467883 0.590295 0.637312 0.633257 0.577398 0.466514 0.293265 0.0676725 0.112229 0.255028 0.321362 0.321216 0.254439 0.111312 0.0691598 0.294678 0.467595 0.589944 0.636871 0.632386 0.576666 0.466223 0.293634 0.0684578 0.111831 0.255535 0.322408 0.322264 0.254943 0.110918 0.0699522 0.295058 0.467315 0.589328 0.636045 0.631042 0.575606 0.46594 0.294502 0.0701514 0.110931 0.256183 0.323971 0.323837 0.255608 0.110032 0.0716446 0.295933 0.467044 0.58839 0.634748 0.629094 0.574123 0.46566 0.296014 0.0730298 0.109404 0.257035 0.326181 0.326053 0.256469 0.108519 0.074512 0.297444 0.466772 0.587035 0.632853 0.626364 0.572079 0.465363 0.298358 0.0774619 0.107126 0.258195 0.329208 0.329079 0.257626 0.106245 0.0789274 0.29978 0.466484 0.585133 0.630182 0.622604 0.569284 0.465018 0.301787 0.0839743 0.103993 0.259829 0.333269 0.333137 0.259251 0.103112 0.0854069 0.303191 0.466153 0.582509 0.626497 0.617491 0.565492 0.464587 0.306628 0.0932777 0.100067 0.262216 0.338619 0.338479 0.261619 0.099187 0.094648 0.307998 0.465743 0.578931 0.621482 0.610596 0.560378 0.46402 0.313291 0.106294 0.0959048 0.265779 0.345529 0.34537 0.265141 0.095017 0.107568 0.314606 0.465209 0.574096 0.614719 0.601322 0.553504 0.463244 0.322241 0.124083 0.0932955 0.271133 0.354265 0.354075 0.270428 0.0923955 0.125213 0.323477 0.46448 0.567593 0.605627 0.588643 0.544037 0.46186 0.33366 0.147132 0.0963009 0.279322 0.365285 0.365062 0.278547 0.0953911 0.148067 0.334787 0.463158 0.558627 0.593203 0.569609 0.528863 0.456614 0.344574 0.170785 0.110958 0.293855 0.380873 0.380682 0.293156 0.110141 0.171447 0.345544 0.457985 0.544186 0.574537 0.528654 0.48997 0.425144 0.328605 0.153941 0.158397 0.336492 0.417581 0.418605 0.340119 0.157845 0.154583 0.329496 0.426646 0.506803 0.534224 0.502257 0.464387 0.403554 0.323347 0.271116 0.367089 0.497074 0.544365 0.539018 0.481799 0.365289 0.271836 0.324357 0.405162 0.482176 0.508141 0.467331 0.429565 0.371095 0.304777 0.270752 0.333708 0.448952 0.492205 0.485316 0.428984 0.33199 0.271304 0.30568 0.372705 0.447884 0.473393 0.212914 0.167914 0.0996167 0.0370415 0.0176399 0.111894 0.256081 0.321245 0.315722 0.23913 0.112501 0.0187913 0.0375648 0.099214 0.187124 0.218783 0.0698213 0.0152124 
</DataArray>
<DataArray type="Float64" Name="cell variable 4" format="ascii">
874.489 868.748 869.785 870.503 860.914 894.942 883.304 875.819 873.312 875.45 894.399 860.739 869.64 869.135 883.445 879.489 1077.32 1060.25 1051.21 1043.56 1043.73 1069.68 1096.94 1086.47 1080.83 1079.52 1069.71 1043.62 1043.49 1051.11 1087.28 1086.6 1274.43 1253.57 1240.09 1229 1225.04 1261.82 1293.16 1294.09 1288.32 1274.9 1262.13 1225.32 1229.09 1240.14 1285.65 1284.73 1313.37 1291.72 1278.33 1268.97 1260.39 1425.74 1838.19 2105.71 2104.07 1834.99 1424.4 1260.42 1268.88 1278.34 1324.6 1323.85 1321.68 1299.87 1287.23 1281.53 1277.92 1435.09 1817.48 2068.44 2067.27 1815.12 1433.46 1277.82 1281.43 1287.27 1332.87 1332.14 1324.48 1301.2 1286.31 1279.38 1277.84 1440.86 1800.06 2033.64 2032.75 1798.15 1439.21 1277.83 1279.39 1286.41 1334.22 1334.94 1326.03 1301.38 1284.5 1276.43 1275.82 1450.25 1788.09 2005.09 2004.38 1786.48 1448.56 1275.83 1276.49 1284.63 1334.47 1336.51 1327.08 1301.39 1283.08 1274.14 1273.81 1460.89 1780.27 1982.54 1981.96 1778.89 1459.2 1273.84 1274.21 1283.21 1334.65 1337.63 1327.89 1301.38 1281.97 1272.34 1272.11 1470.44 1775.25 1965.35 1964.87 1774.03 1468.76 1272.13 1272.41 1282.1 1334.86 1338.53 1328.52 1301.35 1281.09 1270.9 1270.73 1476.03 1771.52 1952.69 1952.28 1770.44 1474.38 1270.75 1270.98 1281.21 1335.1 1339.28 1328.97 1301.25 1280.4 1269.81 1269.6 1482.06 1769.54 1943.35 1942.99 1768.56 1480.43 1269.63 1269.89 1280.52 1335.29 1339.85 1329.28 1301.12 1279.87 1268.99 1268.67 1486.73 1768.38 1936.63 1936.32 1767.48 1485.12 1268.7 1269.06 1279.99 1335.47 1340.29 1329.51 1300.96 1279.4 1268.31 1267.9 1490.07 1767.76 1932.06 1931.78 1766.93 1488.49 1267.93 1268.38 1279.52 1335.63 1340.66 1329.65 1300.76 1278.98 1267.75 1267.27 1492.37 1767.46 1929.14 1928.9 1766.7 1490.82 1267.3 1267.82 1279.09 1335.75 1340.93 1329.69 1300.53 1278.6 1267.3 1266.78 1493.85 1767.4 1927.54 1927.32 1766.7 1492.32 1266.8 1267.37 1278.71 1335.82 1341.1 1329.62 1300.25 1278.25 1266.95 1266.4 1494.65 1767.54 1927.03 1926.82 1766.86 1493.13 1266.43 1267.02 1278.37 1335.84 1341.17 1329.47 1299.93 1277.95 1266.7 1266.15 1494.94 1767.95 1927.53 1927.31 1767.24 1493.39 1266.17 1266.77 1278.07 1335.81 1341.13 1329.22 1299.58 1277.69 1266.56 1265.99 1494.94 1768.7 1929.06 1928.84 1768.01 1493.39 1266.02 1266.63 1277.81 1335.73 1341 1328.9 1299.21 1277.49 1266.53 1265.93 1494.29 1769.64 1931.63 1931.44 1768.99 1492.76 1265.97 1266.6 1277.6 1335.6 1340.79 1328.49 1298.81 1277.33 1266.6 1266 1492.81 1770.78 1935.47 1935.31 1770.19 1491.29 1266.04 1266.68 1277.45 1335.44 1340.48 1327.99 1298.39 1277.23 1266.82 1266.23 1490.24 1772.2 1940.91 1940.78 1771.65 1488.74 1266.26 1266.9 1277.36 1335.23 1340.08 1327.4 1297.95 1277.24 1267.22 1266.62 1486.28 1774.02 1948.46 1948.34 1773.53 1484.82 1266.66 1267.3 1277.36 1334.99 1339.57 1326.7 1297.5 1277.37 1267.85 1267.24 1480.63 1776.55 1958.76 1958.65 1776.06 1479.19 1267.28 1267.93 1277.5 1334.73 1338.96 1325.88 1297.07 1277.71 1268.81 1268.12 1473.02 1780.24 1972.65 1972.53 1779.73 1471.6 1268.16 1268.89 1277.85 1334.47 1338.23 1324.91 1296.67 1278.32 1270.18 1269.26 1463.52 1785.87 1991.09 1990.91 1785.28 1462.12 1269.3 1270.26 1278.47 1334.23 1337.33 1323.6 1296.21 1279.25 1271.99 1270.45 1452.97 1794.57 2015.13 2014.84 1793.83 1451.61 1270.5 1272.07 1279.4 1333.9 1336.08 1320.87 1294.73 1279.62 1273.29 1270.18 1443.47 1807.81 2045.66 2045.2 1806.84 1442.14 1270.21 1273.35 1279.74 1332.47 1333.39 1309.86 1284.89 1271.37 1265.52 1258.97 1435.61 1827.1 2083.23 2082.55 1825.83 1434.27 1258.87 1265.49 1271.42 1322.34 1322.32 1246.39 1220.77 1204.08 1192.33 1178.66 1418.21 1858.65 2133.72 2132.62 1856.76 1417.23 1178.69 1192.28 1204.03 1256.1 1258.2 1195.84 1169.66 1150.5 1135.58 1126.54 1162.62 1210.61 1218.07 1209.54 1185.25 1162.83 1126.83 1135.76 1150.59 1203.66 1207.22 1086.9 1060.87 1039.74 1026.24 1020.8 1028.79 1074.78 1075.67 1065.34 1044.41 1028.49 1020.91 1026.26 1040.11 1091.48 1097.32 747.67 736.792 732.218 738.898 750.4 774.699 833.038 856.799 850.683 813.9 775.987 750.742 738.626 730.944 755.183 753.345 622.916 745.326 
</DataArray>
<DataArray type="Float64" Name="cell variable 5" format="ascii">
0.00121383 0.00121383 0.00121383 0.00121383 0.00121383 0.00121383 0.00121383 0.00121383 0.00121383 0.00121383 0.00121383 0.00121383 0.00121383 0.00121383 0.00121383 0.00121383 0.00121383 0.00121383 0.00121383 0.00121383 0.00121383 0.00121383 0.00121383 0.00121383 0.00121383 0.00121383 0.00121383 0.00121383 0.00121383 0.00121383 0.00121383 0.00121383 0.00121383 0.00121383 0.00121383 0.00121383 0.00121383 0.00121383 0.00121383 0.00121383 0.00121383 0.00121383 0.00121383 0.00121383 0.00121383 0.00121383 0.00121383 0.00121383 0.0018345 0.00169828 0.00147844 0.00126886 0.00121383 0.00121383 0.00121383 0.00121383 0.00121383 0.00121383 0.00121383 0.00121383 0.00126886 0.00147844 0.00169828 0.0018345 0.00207565 0.00188656 0.00158121 0.00129016 0.00121383 0.00121383 0.00121383 0.00121383 0.00121383 0.00121383 0.00121383 0.00121383 0.00129016 0.00158121 0.00188656 0.00207565 0.00221537 0.0019958 0.00164083 0.00130257 0.00121383 0.00121383 0.00121383 0.00121383 0.00121383 0.00121383 0.00121383 0.00121383 0.00130257 0.00164083 0.0019958 0.00221537 0.00231706 0.00207484 0.00168425 0.00131174 0.00121383 0.00121383 0.00121383 0.00121383 0.00121383 0.00121383 0.00121383 0.00121383 0.00131174 0.00168425 0.00207484 0.00231706 0.00239637 0.00213688 0.00171797 0.00131876 0.00121383 0.00121383 0.00121383 0.00121383 0.00121383 0.00121383 0.00121383 0.00121383 0.00131876 0.00171797 0.00213688 0.00239637 0.00246029 0.00218678 0.00174522 0.00132442 0.00121383 0.00121383 0.00121383 0.00121383 0.00121383 0.00121383 0.00121383 0.00121383 0.00132442 0.00174522 0.00218678 0.00246029 0.00251262 0.00222751 0.0017676 0.00132901 0.00121383 0.00121383 0.00121383 0.00121383 0.00121383 0.00121383 0.00121383 0.00121383 0.00132901 0.0017676 0.00222751 0.00251262 0.00255497 0.00226069 0.00178568 0.00133278 0.00121383 0.00121383 0.00121383 0.00121383 0.00121383 0.00121383 0.00121383 0.00121383 0.00133278 0.00178568 0.00226069 0.00255497 0.00258896 0.00228739 0.00180024 0.00133575 0.00121383 0.00121383 0.00121383 0.00121383 0.00121383 0.00121383 0.00121383 0.00121383 0.00133575 0.00180024 0.00228739 0.00258896 0.0026154 0.00230789 0.0018113 0.00133818 0.00121383 0.00121383 0.00121383 0.00121383 0.00121383 0.00121383 0.00121383 0.00121383 0.00133818 0.0018113 0.00230789 0.0026154 0.00263482 0.002323 0.00181966 0.0013398 0.00121383 0.00121383 0.00121383 0.00121383 0.00121383 0.00121383 0.00121383 0.00121383 0.0013398 0.00181966 0.002323 0.00263482 0.00264776 0.00233298 0.00182506 0.00134115 0.00121383 0.00121383 0.00121383 0.00121383 0.00121383 0.00121383 0.00121383 0.00121383 0.00134115 0.00182506 0.00233298 0.00264776 0.00265397 0.0023381 0.00182776 0.00134168 0.00121383 0.00121383 0.00121383 0.00121383 0.00121383 0.00121383 0.00121383 0.00121383 0.00134168 0.00182776 0.0023381 0.00265397 0.00265397 0.0023381 0.00182776 0.00134168 0.00121383 0.00121383 0.00121383 0.00121383 0.00121383 0.00121383 0.00121383 0.00121383 0.00134168 0.00182776 0.0023381 0.00265397 0.00264776 0.00233298 0.00182506 0.00134115 0.00121383 0.00121383 0.00121383 0.00121383 0.00121383 0.00121383 0.00121383 0.00121383 0.00134115 0.00182506 0.00233298 0.00264776 0.00263482 0.002323 0.00181966 0.0013398 0.00121383 0.00121383 0.00121383 0.00121383 0.00121383 0.00121383 0.00121383 0.00121383 0.0013398 0.00181966 0.002323 0.00263482 0.0026154 0.00230789 0.0018113 0.00133818 0.00121383 0.00121383 0.00121383 0.00121383 0.00121383 0.00121383 0.00121383 0.00121383 0.00133818 0.0018113 0.00230789 0.0026154 0.00258896 0.00228739 0.00180024 0.00133575 0.00121383 0.00121383 0.00121383 0.00121383 0.00121383 0.00121383 0.00121383 0.00121383 0.00133575 0.00180024 0.00228739 0.00258896 0.00255497 0.00226069 0.00178568 0.00133278 0.00121383 0.00121383 0.00121383 0.00121383 0.00121383 0.00121383 0.00121383 0.00121383 0.00133278 0.00178568 0.00226069 0.00255497 0.00251262 0.00222751 0.0017676 0.00132901 0.00121383 0.00121383 0.00121383 0.00121383 0.00121383 0.00121383 0.00121383 0.00121383 0.00132901 0.0017676 0.00222751 0.00251262 0.00246029 0.00218678 0.00174522 0.00132442 0.00121383 0.00121383 0.00121383 0.00121383 0.00121383 0.00121383 0.00121383 0.00121383 0.00132442 0.00174522 0.00218678 0.00246029 0.00239637 0.00213688 0.00171797 0.00131876 0.00121383 0.00121383 0.00121383 0.00121383 0.00121383 0.00121383 0.00121383 0.00121383 0.00131876 0.00171797 0.00213688 0.00239637 0.00231706 0.00207484 0.00168425 0.00131174 0.00121383 0.00121383 0.00121383 0.00121383 0.00121383 0.00121383 0.00121383 0.00121383 0.00131174 0.00168425 0.00207484 0.00231706 0.00221537 0.0019958 0.00164083 0.00130257 0.00121383 0.00121383 0.00121383 0.00121383 0.00121383 0.00121383 0.00121383 0.00121383 0.00130257 0.00164083 0.0019958 0.00221537 0.00207565 0.00188656 0.00158121 0.00129016 0.00121383 0.00121383 0.00121383 0.00121383 0.00121383 0.00121383 0.00121383 0.00121383 0.00129016 0.00158121 0.00188656 0.00207565 0.0018345 0.00169828 0.00147844 0.00126886 0.00121383 0.00121383 0.00121383 0.00121383 0.00121383 0.00121383 0.00121383 0.00121383 0.00126886 0.00147844 0.00169828 0.0018345 0.00121383 0.00121383 0.00121383 0.00121383 0.00121383 0.00121383 0.00121383 0.00121383 0.00121383 0.00121383 0.00121383 0.00121383 0.00121383 0.00121383 0.00121383 0.00121383 0.00121383 0.00121383 0.00121383 0.00121383 0.00121383 0.00121383 0.00121383 0.00121383 0.00121383 0.00121383 0.00121383 0.00121383 0.00121383 0.00121383 0.00121383 0.00121383 0.00121383 0.00121383 0.00121383 0.00121383 0.00121383 0.00121383 0.00121383 0.00121383 0.00121383 0.00121383 0.00121383 0.00121383 0.00121383 0.00121383 0.00121383 0.00121383 0.00121383 0.00121383 
</DataArray>
<DataArray type="Float64" Name="cell variable 6" format="ascii">
1 1 1 1 1 1 1 1 1 1 1 1 1 1 1 1 1 1 1 1 1 1 1 1 1 1 1 1 1 1 1 1 1 1 1 1 1 1 1 1 1 1 1 1 1 1 1 1 1 1 1 1 1 1 1 1 1 1 1 1 1 1 1 1 1 1 1 1 1 1 1 1 1 1 1 1 1 1 1 1 1 1 1 1 1 1 1 1 1 1 1 1 1 1 1 1 1 1 1 1 1 1 1 1 1 1 1 1 1 1 1 1 1 1 1 1 1 1 1 1 1 1 1 1 1 1 1 1 1 1 1 1 1 1 1 1 1 1 1 1 1 1 1 1 1 1 1 1 1 1 1 1 1 1 1 1 1 1 1 1 1 1 1 1 1 1 1 1 1 1 1 1 1 1 1 1 1 1 1 1 1 1 1 1 1 1 1 1 1 1 1 1 1 1 1 1 1 1 1 1 1 1 1 1 1 1 1 1 1 1 1 1 1 1 1 1 1 1 1 1 1 1 1 1 1 1 1 1 1 1 1 1 1 1 1 1 1 1 1 1 1 1 1 1 1 1 1 1 1 1 1 1 1 1 1 1 1 1 1 1 1 1 1 1 1 1 1 1 1 1 1 1 1 1 1 1 1 1 1 1 1 1 1 1 1 1 1 1 1 1 1 1 1 1 1 1 1 1 1 1 1 1 1 1 1 1 1 1 1 1 1 1 1 1 1 1 1 1 1 1 1 1 1 1 1 1 1 1 1 1 1 1 1 1 1 1 1 1 1 1 1 1 1 1 1 1 1 1 1 1 1 1 1 1 1 1 1 1 1 1 1 1 1 1 1 1 1 1 1 1 1 1 1 1 1 1 1 1 1 1 1 1 1 1 1 1 1 1 1 1 1 1 1 1 1 1 1 1 1 1 1 1 1 1 1 1 1 1 1 1 1 1 1 1 1 1 1 1 1 1 1 1 1 1 1 1 1 1 1 1 1 1 1 1 1 1 1 1 1 1 1 1 1 1 1 1 1 1 1 1 1 1 1 1 1 1 1 1 1 1 1 1 1 1 1 1 1 1 1 1 1 1 1 1 1 1 1 1 1 1 1 1 1 1 1 1 1 1 1 1 1 1 1 1 1 1 1 1 1 1 1 1 1 1 1 1 1 1 1 1 1 1 1 1 
</DataArray>
<DataArray type="Float64" Name="cell variable 7" format="ascii">
0 0 0 0 0 0 0 0 0 0 0 0 0 0 0 0 0 0 0 0 0 0 0 0 0 0 0 0 0 0 0 0 0 0 0 0 0 0 0 0 0 0 0 0 0 0 0 0 0 0 0 0 0 0 0 0 0 0 0 0 0 0 0 0 0 0 0 0 0 0 0 0 0 0 0 0 0 0 0 0 0 0 0 0 0 0 0 0 0 0 0 0 0 0 0 0 0 0 0 0 0 0 0 0 0 0 0 0 0 0 0 0 0 0 0 0 0 0 0 0 0 0 0 0 0 0 0 0 0 0 0 0 0 0 0 0 0 0 0 0 0 0 0 0 0 0 0 0 0 0 0 0 0 0 0 0 0 0 0 0 0 0 0 0 0 0 0 0 0 0 0 0 0 0 0 0 0 0 0 0 0 0 0 0 0 0 0 0 0 0 0 0 0 0 0 0 0 0 0 0 0 0 0 0 0 0 0 0 0 0 0 0 0 0 0 0 0 0 0 0 0 0 0 0 0 0 0 0 0 0 0 0 0 0 0 0 0 0 0 0 0 0 0 0 0 0 0 0 0 0 0 0 0 0 0 0 0 0 0 0 0 0 0 0 0 0 0 0 0 0 0 0 0 0 0 0 0 0 0 0 0 0 0 0 0 0 0 0 0 0 0 0 0 0 0 0 0 0 0 0 0 0 0 0 0 0 0 0 0 0 0 0 0 0 0 0 0 0 0 0 0 0 0 0 0 0 0 0 0 0 0 0 0 0 0 0 0 0 0 0 0 0 0 0 0 0 0 0 0 0 0 0 0 0 0 0 0 0 0 0 0 0 0 0 0 0 0 0 0 0 0 0 0 0 0 0 0 0 0 0 0 0 0 0 0 0 0 0 0 0 0 0 0 0 0 0 0 0 0 0 0 0 0 0 0 0 0 0 0 0 0 0 0 0 0 0 0 0 0 0 0 0 0 0 0 0 0 0 0 0 0 0 0 0 0 0 0 0 0 0 0 0 0 0 0 0 0 0 0 0 0 0 0 0 0 0 0 0 0 0 0 0 0 0 0 0 0 0 0 0 0 0 0 0 0 0 0 0 0 0 0 0 0 0 0 0 0 0 0 0 0 0 0 0 0 0 0 0 0 0 0 0 0 0 0 0 0 0 0 0 0 0 1 1 
</DataArray>
<DataArray type="Float64" Name="cell variable 8" format="ascii">
11.25 33.75 56.25 78.75 101.25 123.75 146.25 168.75 191.25 213.75 236.25 258.75 281.25 303.75 326.25 348.75 11.25 33.75 56.25 78.75 101.25 123.75 146.25 168.75 191.25 213.75 236.25 258.75 281.25 303.75 326.25 348.75 11.25 33.75 56.25 78.75 101.25 123.75 146.25 168.75 191.25 213.75 236.25 258.75 281.25 303.75 326.25 348.75 11.25 33.75 56.25 78.75 101.25 123.75 146.25 168.75 191.25 213.75 236.25 258.75 281.25 303.75 326.25 348.75 11.25 33.75 56.25 78.75 101.25 123.75 146.25 168.75 191.25 213.75 236.25 258.75 281.25 303.75 326.25 348.75 11.25 33.75 56.25 78.75 101.25 123.75 146.25 168.75 191.25 213.75 236.25 258.75 281.25 303.75 326.25 348.75 11.25 33.75 56.25 78.75 101.25 123.75 146.25 168.75 191.25 213.75 236.25 258.75 281.25 303.75 326.25 348.75 11.25 33.75 56.25 78.75 101.25 123.75 146.25 168.75 191.25 213.75 236.25 258.75 281.25 303.75 326.25 348.75 11.25 33.75 56.25 78.75 101.25 123.75 146.25 168.75 191.25 213.75 236.25 258.75 281.25 303.75 326.25 348.75 11.25 33.75 56.25 78.75 101.25 123.75 146.25 168.75 191.25 213.75 236.25 258.75 281.25 303.75 326.25 348.75 11.25 33.75 56.25 78.75 101.25 123.75 146.25 168.75 191.25 213.75 236.25 258.75 281.25 303.75 326.25 348.75 11.25 33.75 56.25 78.75 101.25 123.75 146.25 168.75 191.25 213.75 236.25 258.75 281.25 303.75 326.25 348.75 11.25 33.75 56.25 78.75 101.25 123.75 146.25 168.75 191.25 213.75 236.25 258.75 281.25 303.75 326.25 348.75 11.25 33.75 56.25 78.75 101.25 123.75 146.25 168.75 191.25 213.75 236.25 258.75 281.25 303.75 326.25 348.75 11.25 33.75 56.25 78.75 101.25 123.75 146.25 168.75 191.25 213.75 236.25 258.75 281.25 303.75 326.25 348.75 11.25 33.75 56.25 78.75 101.25 123.75 146.25 168.75 191.25 213.75 236.25 258.75 281.25 303.75 326.25 348.75 11.25 33.75 56.25 78.75 101.25 123.75 146.25 168.75 191.25 213.75 236.25 258.75 281.25 303.75 326.25 348.75 11.25 33.75 56.25 78.75 101.25 123.75 146.25 168.75 191.25 213.75 236.25 258.75 281.25 303.75 326.25 348.75 11.25 33.75 56.25 78.75 101.25 123.75 146.25 168.75 191.25 213.75 236.25 258.75 281.25 303.75 326.25 348.75 11.25 33.75 56.25 78.75 101.25 123.75 146.25 168.75 191.25 213.75 236.25 258.75 281.25 303.75 326.25 348.75 11.25 33.75 56.25 78.75 101.25 123.75 146.25 168.75 191.25 213.75 236.25 258.75 281.25 303.75 326.25 348.75 11.25 33.75 56.25 78.75 101.25 123.75 146.25 168.75 191.25 213.75 236.25 258.75 281.25 303.75 326.25 348.75 11.25 33.75 56.25 78.75 101.25 123.75 146.25 168.75 191.25 213.75 236.25 258.75 281.25 303.75 326.25 348.75 11.25 33.75 56.25 78.75 101.25 123.75 146.25 168.75 191.25 213.75 236.25 258.75 281.25 303.75 326.25 348.75 11.25 33.75 56.25 78.75 101.25 123.75 146.25 168.75 191.25 213.75 236.25 258.75 281.25 303.75 326.25 348.75 11.25 33.75 56.25 78.75 101.25 123.75 146.25 168.75 191.25 213.75 236.25 258.75 281.25 303.75 326.25 348.75 11.25 33.75 56.25 78.75 101.25 123.75 146.25 168.75 191.25 213.75 236.25 258.75 281.25 303.75 326.25 348.75 11.25 33.75 56.25 78.75 101.25 123.75 146.25 168.75 191.25 213.75 236.25 258.75 281.25 303.75 326.25 348.75 11.25 33.75 56.25 78.75 101.25 123.75 146.25 168.75 191.25 213.75 236.25 258.75 281.25 303.75 326.25 348.75 11.25 33.75 56.25 78.75 101.25 123.75 146.25 168.75 191.25 213.75 236.25 258.75 281.25 303.75 326.25 348.75 11.25 33.75 56.25 78.75 101.25 123.75 146.25 168.75 191.25 213.75 236.25 258.75 281.25 303.75 326.25 348.75 11.25 33.75 56.25 78.75 101.25 123.75 146.25 168.75 191.25 213.75 236.25 258.75 281.25 303.75 326.25 348.75 0 0 
</DataArray>
</CellData>
</Piece>
</UnstructuredGrid>
</VTKFile>
