<VTKFile type="UnstructuredGrid" version="0.1">
<UnstructuredGrid>
<Piece  NumberOfPoints="    2080" NumberOfCells="     514">
<Points>
<DataArray type="Float64" NumberOfComponents="3" format="ascii">
-86.6917 947.328 1.65084
-82.9849 950.828 27.4058
-68.3343 927.4 29.5287
-72.381 923.617 1.66492
-82.1522 951.605 30.159
-71.4953 961.522 52.0027
-55.9467 938.919 55.8702
-67.5016 928.177 32.2819
-69.9494 962.951 54.1086
-53.9004 977.722 68.694
-37.0473 956.329 73.7152
-54.4008 940.348 57.9761
-51.873 979.581 69.8324
-32.8935 996.947 74.9351
-14.4877 976.944 80.3699
-35.02 958.189 74.8535
-30.6968 998.955 74.9334
-11.7135 1016.3 69.7906
8.23814 997.704 74.8354
-12.291 978.952 80.3682
-9.6869 1018.15 68.6516
6.35003 1032.93 54.0772
27.6193 1015.58 57.9656
10.2647 999.562 73.6964
7.89392 1034.36 51.9735
18.5396 1044.37 30.1735
40.6629 1027.91 32.267
29.1632 1017.01 55.8618
19.3699 1045.16 27.4206
23.0868 1048.73 1.66712
45.4959 1032.57 1.64728
41.4932 1028.69 29.5142
23.0859 1048.73 -1.31502
19.352 1045.2 -27.0726
41.4794 1028.73 -29.1988
45.495 1032.57 -1.33486
18.5204 1044.42 -29.8253
7.86646 1034.43 -51.633
29.1482 1017.08 -55.5343
40.6479 1027.95 -31.9515
6.32288 1032.99 -53.7368
-9.7079 1018.21 -68.3144
10.2526 999.634 -73.3732
27.6046 1015.65 -57.638
-11.7338 1016.35 -69.4541
-30.7093 999.003 -74.6016
-12.2929 979.016 -80.0561
8.2267 997.775 -74.5129
-32.9049 996.994 -74.604
-51.8748 979.616 -69.5067
-35.0068 958.236 -74.5514
-14.4885 977.007 -80.0585
-53.8997 977.755 -68.3689
-69.9117 962.949 -53.7792
-54.3707 940.381 -57.6724
-37.0317 956.374 -73.4135
-71.4561 961.517 -51.6723
-82.1019 951.587 -29.834
-67.4819 928.187 -31.9447
-55.9151 938.949 -55.5655
-82.9368 950.81 -27.0793
-86.6899 947.328 -1.33032
-72.3793 923.616 -1.31625
-68.3168 927.409 -29.1899
-70.462 920.985 1.73962
-66.4152 924.768 29.6034
-46.1241 900.667 30.2067
-50.2691 896.801 1.7332
-53.9835 936.326 56.0817
-33.4309 912.44 57.2
-45.2473 901.483 33.0967
-65.5384 925.584 32.4934
-35.0056 953.806 74.03
-14.0599 930.225 75.5017
-31.8064 913.94 59.4092
-52.3591 937.825 58.2909
-12.3442 974.51 80.7408
9.07269 951.281 82.3518
-11.9309 932.173 76.6962
-32.8766 955.754 75.2245
10.4924 995.366 75.2077
32.3829 972.494 76.7114
11.3802 953.385 82.3514
-10.0367 976.614 80.7405
29.9729 1013.33 58.2836
52.1903 990.827 59.4489
34.5089 974.445 75.5182
12.6184 997.317 74.0145
43.0863 1025.74 32.4813
65.3766 1003.6 33.0939
53.804 992.341 57.2414
31.5866 1014.85 56.0761
47.9536 1030.45 1.72122
70.247 1008.44 1.70461
66.2411 1004.43 30.2007
43.9508 1026.57 29.5881
43.9371 1026.61 -29.2763
66.225 1004.46 -29.9138
70.2462 1008.44 -1.42902
47.9527 1030.45 -1.41241
31.5722 1014.92 -55.7507
53.7952 992.408 -56.9245
65.3598 1003.63 -32.8054
43.0719 1025.78 -32.1679
12.6071 997.389 -73.6927
34.5029 974.52 -75.2113
52.182 990.895 -59.1313
29.9591 1013.4 -57.9575
-10.0378 976.679 -80.4301
11.3817 953.455 -82.0564
32.3775 972.569 -76.4056
10.4818 995.438 -74.8869
-32.8625 955.803 -74.9244
-11.9192 932.229 -76.4115
9.07528 951.35 -82.0579
-12.3442 974.574 -80.4316
-52.3294 937.859 -57.9895
-31.7872 913.979 -59.1322
-14.047 930.279 -75.2177
-34.9904 953.853 -73.7306
-65.5209 925.595 -32.1576
-45.246 901.492 -32.779
-33.4119 912.477 -56.9211
-53.954 936.357 -55.7784
-66.3991 924.778 -29.2648
-70.4615 920.985 -1.39114
-50.2687 896.801 -1.39756
-46.1241 900.675 -29.8863
-47.9651 894.158 1.75209
-43.8201 898.024 30.2256
-22.4966 874.503 30.3294
-26.6573 870.608 1.74156
-42.9314 898.85 33.1523
-31.115 909.808 57.2556
-9.73913 886.343 57.4506
-21.608 875.329 33.2561
-29.4677 911.324 59.4929
-11.7213 927.609 75.5854
9.76406 904.191 75.8281
-8.09187 887.86 59.6879
-9.56041 929.577 76.7948
11.4432 948.686 82.4504
33.0871 925.272 82.6885
11.9249 906.159 77.0375
13.7863 950.808 82.4494
34.789 969.918 76.8094
56.6036 946.475 77.006
35.4302 927.395 82.6875
36.9419 971.89 75.601
54.6233 988.272 59.5317
76.4679 964.912 59.6623
58.7566 948.446 75.7976
56.2422 989.818 57.2986
67.8147 1001.08 33.1511
89.464 978.084 33.2395
78.0867 966.459 57.4292
68.6746 1001.94 30.2204
72.6806 1005.95 1.72432
94.2593 983.106 1.72287
90.3239 978.949 30.3088
72.6799 1005.95 -1.45078
68.6587 1001.97 -29.9356
90.3084 978.975 -30.04
94.2585 983.107 -1.45223
67.7983 1001.11 -32.8646
56.2336 989.883 -56.9838
78.0763 966.52 -57.1376
89.448 978.114 -32.969
54.6152 988.34 -59.2161
36.9361 971.964 -75.2961
58.7484 948.518 -75.5154
76.4579 964.976 -59.3699
34.7836 969.993 -76.5056
13.7878 950.878 -82.1564
35.4284 927.463 -82.4162
56.5959 946.546 -76.7249
11.4455 948.755 -82.1586
-9.54897 929.633 -76.5122
11.9315 906.215 -76.7767
33.0861 925.34 -82.4183
-11.7091 927.663 -75.3038
-29.4493 911.364 -59.2183
-8.07942 887.898 -59.438
9.77134 904.245 -75.5683
-31.0972 909.845 -56.9793
-42.9313 898.859 -32.8372
-21.6144 875.334 -32.9642
-9.72734 886.379 -57.199
-43.8207 898.031 -29.9073
-47.9653 894.158 -1.41862
-26.6575 870.609 -1.42915
-22.5038 874.506 -30.0344
-24.3093 868.007 1.74603
-20.1486 871.901 30.3339
0.860404 848.541 30.3479
-3.40051 844.731 1.73372
-19.2462 872.722 33.2694
-7.37734 883.736 57.4639
13.8989 860.145 57.4865
1.76283 849.362 33.2834
-5.70664 885.242 59.7039
12.1493 901.573 75.8441
33.7822 877.663 75.8464
15.5696 861.65 59.7265
14.3384 903.524 77.0509
35.5006 922.638 82.702
57.5088 898.375 82.6649
35.9713 879.615 77.0532
37.8729 924.74 82.696
59.0463 943.819 77.0144
81.4155 919.209 76.9549
59.8811 900.477 82.6589
61.2287 945.773 75.7985
78.94 962.239 59.6632
101.746 937.202 59.5963
83.5979 921.162 75.7389
80.5809 963.774 57.4204
91.9582 975.4 33.2308
115.281 949.898 33.1889
103.387 938.737 57.3535
92.8253 976.257 30.3047
96.7607 980.414 1.71883
120.283 954.762 1.71227
116.148 950.755 30.2628
96.7599 980.415 -1.4496
92.8098 976.283 -30.0374
116.128 950.787 -30.0177
120.282 954.764 -1.45616
91.9419 975.43 -32.9628
80.5702 963.835 -57.1313
103.372 938.8 -57.0905
115.261 949.933 -32.9431
78.9297 962.302 -59.3735
61.2202 945.844 -75.519
83.5879 921.232 -75.484
101.732 937.267 -59.3327
59.0383 943.891 -76.736
37.8708 924.808 -82.4272
59.8772 900.544 -82.4146
81.406 919.279 -76.701
35.4992 922.705 -82.4343
14.3446 903.58 -76.7927
35.9746 879.671 -76.8201
57.5056 898.441 -82.4216
12.1561 901.627 -75.587
-5.69466 885.28 -59.4568
15.5787 861.687 -59.5056
33.7862 877.718 -75.6144
-7.36604 883.772 -57.215
-19.2531 872.727 -32.9803
1.75447 849.364 -33.0198
13.9073 860.178 -57.2638
-20.156 871.904 -30.0416
-24.3097 868.007 -1.43629
-3.40093 844.731 -1.4486
0.851511 848.541 -30.0811
-1.10084 842.122 1.73331
3.16007 845.932 30.3475
23.6455 822.235 30.3398
19.2919 818.523 1.72187
4.0823 846.734 33.2842
16.2184 857.517 57.4872
36.9525 833.548 57.4784
24.5677 823.037 33.2765
17.9229 858.989 59.7269
36.1356 875.002 75.8467
57.2093 850.652 75.8334
38.6571 835.02 59.7181
38.365 876.913 77.0515
59.9024 895.673 82.6632
81.3486 870.894 82.6449
59.4387 852.562 77.0382
62.316 897.732 82.6548
83.8504 916.463 76.9508
105.67 891.247 76.9272
83.7622 872.953 82.6366
86.0753 918.37 75.7347
104.224 934.41 59.5921
126.432 908.76 59.5827
107.895 893.154 75.711
105.913 935.896 57.3511
117.807 947.056 33.1864
140.415 920.974 33.1771
128.121 910.246 57.3417
118.71 947.88 30.2611
122.845 951.888 1.71048
145.607 925.643 1.69426
141.319 921.797 30.2518
122.843 951.889 -1.45699
118.69 947.913 -30.0185
141.294 921.832 -30.0345
145.606 925.645 -1.47322
117.786 947.092 -32.9432
105.897 935.959 -57.0906
128.105 910.311 -57.1
140.39 921.012 -32.9592
104.209 934.475 -59.3309
86.0651 918.44 -75.4822
107.885 893.224 -75.478
126.416 908.827 -59.3403
83.8408 916.533 -76.6994
62.312 897.799 -82.413
83.758 873.02 -82.4159
105.66 891.317 -76.6953
59.899 895.739 -82.4225
38.3681 876.968 -76.821
59.441 852.617 -76.8307
81.3451 870.96 -82.4254
36.1393 875.056 -75.6175
17.9318 859.025 -59.5087
38.6649 835.055 -59.5239
57.2122 850.705 -75.6272
16.2266 857.55 -57.2673
4.07377 846.735 -33.0234
24.5585 823.036 -33.039
36.9597 833.58 -57.2825
3.15112 845.932 -30.0834
-1.10133 842.122 -1.45085
19.2915 818.523 -1.46229
23.6359 822.233 -30.099
21.531 815.874 1.72081
25.8845 819.585 30.3387
45.7911 795.489 30.3305
41.3513 791.881 1.71016
26.8253 820.366 33.2757
39.2101 830.877 57.4777
59.3542 806.49 57.4722
46.7318 796.27 33.2674
40.9472 832.312 59.7175
59.4994 847.943 75.8328
79.9819 823.139 75.8319
61.0913 807.925 59.712
61.7689 849.806 77.0374
83.6787 868.138 82.6442
104.545 842.86 82.6459
82.2513 825.002 77.0364
86.1344 870.146 82.6353
108.042 888.441 76.9259
129.296 862.682 76.9232
107.001 844.868 82.637
110.309 890.298 75.71
128.846 905.903 59.5816
150.462 879.696 59.5781
131.562 864.539 75.7073
130.576 907.341 57.3416
142.87 918.069 33.1771
164.814 891.467 33.1676
152.192 881.134 57.3381
143.802 918.861 30.2506
148.09 922.707 1.69309
170.162 895.95 1.67593
165.746 892.259 30.2412
148.089 922.709 -1.47538
143.777 918.896 -30.0367
165.72 892.293 -30.0536
170.16 895.952 -1.49255
142.845 918.107 -32.9616
130.559 907.407 -57.1024
152.176 881.2 -57.1185
164.787 891.504 -32.9785
128.83 905.97 -59.3414
110.298 890.368 -75.4791
131.553 864.609 -75.4963
150.447 879.764 -59.3575
108.033 888.511 -76.6962
86.1303 870.213 -82.4168
106.998 844.935 -82.4391
129.287 862.753 -76.7133
83.6752 868.204 -82.427
61.7712 849.862 -76.8323
82.2539 825.057 -76.853
104.543 842.926 -82.4493
59.5023 847.997 -75.6291
40.955 832.346 -59.5258
61.0992 807.958 -59.5425
79.985 823.192 -75.6497
39.2172 830.909 -57.2843
26.8161 820.365 -33.0408
46.7223 796.268 -33.0541
59.3614 806.52 -57.3011
25.8749 819.583 -30.1004
21.5305 815.874 -1.46371
41.3508 791.881 -1.47436
45.7812 795.485 -30.1138
43.525 789.187 1.70915
47.9647 792.794 30.3294
67.2688 768.281 30.3214
62.7462 764.781 1.69921
48.9233 793.553 33.2668
61.5457 803.773 57.4716
81.0817 778.955 57.4679
68.2274 769.039 33.2588
63.3148 805.167 59.712
82.2054 820.381 75.8318
102.08 795.123 75.8349
82.8508 780.35 59.7083
84.5154 822.194 77.0368
106.809 840.051 82.6463
127.076 814.286 82.6531
104.39 796.935 77.0399
109.308 842.005 82.6372
131.603 859.819 76.9234
152.262 833.544 76.9255
129.575 816.24 82.644
133.91 861.623 75.7071
152.811 876.78 59.5778
173.818 850.045 59.5721
154.569 835.348 75.7092
154.577 878.171 57.3377
167.199 888.504 33.1673
188.491 861.401 33.1555
175.585 851.436 57.3321
168.155 889.267 30.2399
172.57 892.958 1.67466
193.972 865.71 1.65877
189.447 862.164 30.2281
172.569 892.96 -1.49459
168.128 889.301 -30.0556
189.42 862.196 -30.0701
193.97 865.711 -1.51049
167.172 888.541 -32.9808
154.561 878.238 -57.1208
175.571 851.502 -57.136
188.464 861.436 -32.9953
152.795 876.848 -59.3595
133.901 861.693 -75.4983
154.561 835.418 -75.5209
173.805 850.113 -59.3747
131.594 859.889 -76.7158
109.305 842.072 -82.4415
129.573 816.306 -82.4689
152.254 833.614 -76.7384
106.807 840.117 -82.452
84.518 822.248 -76.8556
104.394 796.989 -76.8795
127.074 814.351 -82.4794
82.2086 820.434 -75.6521
63.3228 805.2 -59.5448
82.8594 780.381 -59.5621
102.084 795.175 -75.676
61.5529 803.803 -57.3028
48.9138 793.551 -33.0559
68.2177 769.036 -33.0681
81.0895 778.984 -57.32
47.9548 792.791 -30.1151
43.5244 789.187 -1.47566
62.7457 764.781 -1.4856
67.2587 768.276 -30.1273
64.8524 762.04 1.69825
69.3749 765.54 30.3205
88.0633 740.605 30.3126
83.4598 737.216 1.68893
70.3509 766.275 33.2582
83.2052 776.191 57.4673
102.122 750.943 57.4634
89.0392 741.34 33.2503
85.0061 777.543 59.7084
104.235 792.316 75.835
123.489 766.608 75.8371
103.922 752.295 59.7044
106.586 794.075 77.0405
129.272 811.426 82.6537
148.919 785.186 82.6589
125.84 768.367 77.0426
131.814 813.321 82.6444
154.501 830.626 76.9259
174.54 803.854 76.927
151.461 787.082 82.6497
156.85 832.375 75.7089
176.099 847.072 59.5719
196.477 819.83 59.5649
176.888 805.603 75.71
177.899 848.417 57.3314
190.805 858.382 33.1548
211.44 830.789 33.1431
198.277 821.175 57.3244
191.782 859.117 30.2268
196.307 862.663 1.65745
217.039 834.935 1.6429
212.416 831.524 30.2151
196.305 862.665 -1.51231
191.755 859.149 -30.0719
212.39 831.555 -30.0855
217.037 834.937 -1.52686
190.778 858.417 -32.9972
177.885 848.483 -57.1379
198.265 821.24 -57.1521
211.413 830.822 -33.0108
176.085 847.139 -59.3768
156.842 832.445 -75.5229
176.882 805.671 -75.5447
196.466 819.896 -59.3909
154.494 830.696 -76.7411
131.812 813.387 -82.4715
151.46 787.146 -82.4971
174.534 803.922 -76.7628
129.27 811.491 -82.4822
106.59 794.128 -76.8824
125.845 768.419 -76.9045
148.918 785.25 -82.5077
104.24 792.368 -75.6783
85.0147 777.575 -59.5644
103.932 752.325 -59.5803
123.494 766.659 -75.7004
83.2131 776.22 -57.3217
70.3413 766.271 -33.0697
89.0294 741.336 -33.0809
102.13 750.97 -57.3376
69.3648 765.535 -30.1285
64.8518 762.04 -1.4868
83.4593 737.216 -1.49613
88.053 740.599 -30.1397
85.4971 734.429 1.68801
90.1006 737.817 30.3117
108.163 712.466 30.304
103.481 709.19 1.67925
91.0936 738.529 33.2497
104.176 748.132 57.4627
122.463 722.458 57.458
109.156 713.177 33.242
106.008 749.44 59.7043
125.575 763.753 75.837
144.195 737.605 75.8367
124.295 723.767 59.6995
127.966 765.456 77.0429
151.045 782.275 82.6592
170.054 755.574 82.6612
146.586 739.307 77.0426
153.63 784.11 82.6498
176.709 800.882 76.9271
196.106 773.63 76.9256
172.64 757.41 82.6518
179.098 802.575 75.7095
198.686 816.802 59.5644
218.413 789.071 59.5565
198.494 775.322 75.708
200.519 818.102 57.3236
213.682 827.715 33.1423
233.646 799.642 33.1309
220.246 790.37 57.3157
214.677 828.424 30.2138
219.299 831.835 1.64162
239.352 803.634 1.62837
234.641 800.351 30.2025
219.298 831.837 -1.52849
214.651 828.455 -30.0871
234.616 800.38 -30.0997
239.351 803.636 -1.54174
213.655 827.749 -33.0124
200.507 818.166 -57.1538
220.236 790.432 -57.1667
233.621 799.674 -33.025
198.675 816.868 -59.3928
179.092 802.643 -75.5465
198.49 775.389 -75.5652
218.405 789.134 -59.4057
176.704 800.951 -76.7652
153.63 784.175 -82.4995
172.641 757.472 -82.5211
196.102 773.696 -76.7839
151.045 782.339 -82.5102
127.971 765.507 -76.907
146.592 739.357 -76.926
170.055 755.636 -82.5319
125.58 763.803 -75.7025
106.018 749.47 -59.5823
124.305 723.794 -59.5965
144.201 737.653 -75.7215
104.185 748.158 -57.339
91.0838 738.524 -33.0824
109.146 713.171 -33.0927
122.472 722.483 -57.3532
90.0903 737.812 -30.1408
85.4966 734.428 -1.49724
103.48 709.19 -1.506
108.153 712.459 -30.1511
105.448 706.357 1.67837
110.131 709.632 30.3031
127.559 683.869 30.2957
122.799 680.71 1.67021
111.141 710.319 33.2414
124.447 719.6 57.4573
142.094 693.509 57.4519
128.569 684.556 33.2339
126.31 720.864 59.6992
146.209 734.702 75.8364
164.182 708.124 75.8341
143.957 694.773 59.6938
148.64 736.347 77.0426
172.109 752.614 82.6612
190.464 725.465 82.6603
166.613 709.768 77.0403
174.737 754.387 82.6517
198.203 770.607 76.9255
216.938 742.891 76.9218
193.093 727.238 82.6508
200.631 772.241 75.7074
220.55 785.99 59.5559
239.606 757.787 59.5476
219.366 744.525 75.7038
222.414 787.244 57.3147
235.814 796.516 33.1299
255.094 767.973 33.1191
241.47 759.041 57.3064
236.826 797.199 30.2012
241.537 800.482 1.62715
260.9 771.815 1.6151
256.107 768.656 30.1904
241.536 800.483 -1.5432
236.801 797.227 -30.1011
256.083 768.682 -30.1126
260.899 771.817 -1.55525
235.788 796.547 -33.0264
222.404 787.305 -57.1681
241.462 759.1 -57.1797
255.07 768.002 -33.0379
220.542 786.053 -59.4073
200.626 772.308 -75.5668
219.363 744.588 -75.5826
239.6 757.847 -59.419
198.199 770.673 -76.7859
174.738 754.449 -82.5232
193.095 727.297 -82.541
216.936 742.954 -76.8016
172.11 752.675 -82.534
148.646 736.396 -76.9281
166.62 709.815 -76.944
190.467 725.523 -82.5518
146.216 734.75 -75.7232
126.32 720.892 -59.5982
143.967 694.798 -59.6106
164.19 708.169 -75.7391
124.456 719.625 -57.3545
111.13 710.313 -33.094
128.558 684.549 -33.1033
142.103 693.532 -57.3668
110.12 709.625 -30.1521
105.448 706.357 -1.50704
122.798 680.71 -1.5152
127.548 683.861 -30.1614
124.695 677.832 1.66937
129.456 680.991 30.2948
146.24 654.826 30.2875
141.404 651.785 1.66181
130.482 681.653 33.2332
144.007 690.606 57.4512
161.005 664.104 57.4451
147.266 655.487 33.2259
145.899 691.824 59.6933
166.125 705.174 75.8336
183.442 678.172 75.8297
162.898 665.322 59.6872
168.595 706.759 77.04
192.446 722.456 82.66
210.135 694.87 82.6571
185.912 679.757 77.0361
195.116 724.165 82.6504
218.962 739.818 76.9215
237.02 711.651 76.9165
212.805 696.579 82.6475
221.428 741.393 75.7031
241.668 754.655 59.5469
260.037 725.993 59.5386
239.486 713.226 75.6981
243.561 755.863 57.3054
257.186 764.795 33.1181
275.768 735.795 33.1081
261.93 727.201 57.2971
258.215 765.452 30.1893
263.008 768.612 1.61394
281.667 739.49 1.60297
276.797 736.452 30.1792
263.007 768.613 -1.55656
258.191 765.479 -30.1139
276.774 736.477 -30.1246
281.666 739.491 -1.56752
257.161 764.824 -33.0392
243.554 755.921 -57.1811
261.925 727.257 -57.1916
275.745 735.822 -33.0498
241.662 754.715 -59.4204
221.425 741.456 -75.584
239.485 713.286 -75.5973
260.033 726.051 -59.4309
218.96 739.881 -76.8033
195.119 724.224 -82.5427
212.809 696.635 -82.5574
237.02 711.711 -76.8166
192.449 722.514 -82.5536
168.602 706.806 -76.9457
185.92 679.801 -76.9589
210.139 694.925 -82.5682
166.133 705.219 -75.7406
145.91 691.849 -59.612
162.909 665.344 -59.6226
183.45 678.214 -75.7538
144.016 690.628 -57.368
130.471 681.646 -33.1045
147.255 655.479 -33.1128
161.015 664.124 -57.3785
129.444 680.983 -30.1624
124.695 677.832 -1.51614
141.404 651.785 -1.52371
146.229 654.817 -30.1707
143.229 648.863 1.66103
148.065 651.903 30.2867
164.199 625.346 30.2799
159.289 622.427 1.6541
149.107 652.539 33.2252
162.846 661.156 57.4444
179.187 634.255 57.4382
165.241 625.982 33.2184
164.768 662.327 59.6867
185.311 675.177 75.8292
201.961 647.766 75.8243
181.109 635.426 59.6805
187.819 676.701 77.0357
212.043 691.814 82.6566
229.053 663.806 82.6521
204.469 649.29 77.0308
214.754 693.458 82.6469
238.968 708.53 76.916
256.336 679.93 76.9101
231.764 665.45 82.6425
241.471 710.045 75.6974
262.022 722.812 59.5378
279.69 693.709 59.5297
258.839 681.444 75.6915
263.944 723.973 57.2961
277.781 732.567 33.1071
295.652 703.124 33.0977
281.611 694.871 57.288
278.826 733.199 30.1781
283.696 736.236 1.60188
301.64 706.673 1.59192
296.697 703.756 30.1687
283.695 736.238 -1.5687
278.803 733.223 -30.1258
296.675 703.779 -30.1354
301.638 706.674 -1.57866
277.758 732.594 -33.051
263.938 724.029 -57.1927
281.608 694.924 -57.2021
295.63 703.15 -33.0607
262.018 722.869 -59.4321
241.47 710.104 -75.5985
258.839 681.501 -75.6095
279.688 693.764 -59.4415
238.968 708.589 -76.818
214.757 693.514 -82.5588
231.769 665.503 -82.5707
256.337 679.986 -76.8291
212.047 691.869 -82.5696
187.827 676.745 -76.9603
204.478 649.331 -76.9712
229.058 663.858 -82.5815
185.32 675.219 -75.7551
164.779 662.349 -59.6238
181.12 635.446 -59.6329
201.97 647.805 -75.766
162.856 661.176 -57.3795
149.096 652.531 -33.1138
165.229 625.973 -33.1213
179.197 634.273 -57.3887
148.053 651.894 -30.1715
143.228 648.863 -1.52456
159.288 622.427 -1.53148
164.186 625.336 -30.179
161.041 619.462 1.65338
165.951 622.381 30.2792
181.425 595.444 30.273
176.444 592.648 1.64713
167.008 622.991 33.2177
180.954 631.264 57.4375
196.628 603.977 57.4314
182.482 596.054 33.2115
182.904 632.387 59.6799
203.756 644.727 75.8237
219.728 616.921 75.8182
198.579 605.1 59.6738
206.301 646.189 77.0302
230.885 660.705 82.6516
247.205 632.291 82.6463
222.272 618.383 77.0248
233.635 662.282 82.6418
258.207 676.762 76.9095
274.871 647.744 76.9032
249.955 633.868 82.6365
260.746 678.215 75.6907
281.597 690.48 59.5289
298.55 660.953 59.5211
277.41 649.198 75.6844
283.546 691.595 57.2871
297.587 699.848 33.0968
314.734 669.978 33.0882
300.499 662.068 57.2793
298.647 700.455 30.1677
303.589 703.371 1.59091
320.805 673.38 1.58189
315.794 670.585 30.1591
303.588 703.372 -1.57972
298.625 700.477 -30.1365
315.772 670.606 -30.1452
320.804 673.381 -1.58874
297.565 699.873 -33.0617
283.542 691.647 -57.2032
300.497 662.117 -57.2115
314.713 670.002 -33.0704
281.595 690.534 -59.4426
260.747 678.271 -75.6106
277.412 649.251 -75.6198
298.549 661.004 -59.4509
258.208 676.818 -76.8302
233.64 662.334 -82.5718
249.961 633.917 -82.5815
274.874 647.797 -76.8395
230.891 660.756 -82.5827
206.31 646.229 -76.9724
222.283 618.42 -76.9813
247.212 632.339 -82.5923
203.766 644.766 -75.767
182.916 632.406 -59.634
198.59 605.117 -59.6419
219.739 616.956 -75.776
180.964 631.281 -57.3896
166.996 622.982 -33.1222
182.47 596.044 -33.1289
196.639 603.992 -57.3974
165.938 622.371 -30.1798
161.04 619.461 -1.53225
176.443 592.648 -1.53851
181.412 595.433 -30.1866
178.122 589.642 1.64647
183.103 592.438 30.2723
197.91 565.134 30.2667
192.861 562.463 1.64091
184.175 593.021 33.2108
198.322 600.944 57.4308
213.321 573.285 57.425
198.982 565.718 33.2051
200.299 602.018 59.6732
221.449 613.839 75.8176
236.733 585.652 75.8119
215.298 574.359 59.6674
224.028 615.238 77.0242
248.96 629.146 82.6457
264.578 600.341 82.64
239.313 587.051 77.0185
251.748 630.655 82.6359
276.664 644.532 76.9025
292.613 615.114 76.8961
267.366 601.85 82.6302
279.237 645.923 75.6836
300.377 657.678 59.5204
316.603 627.744 59.5131
295.186 616.505 75.6772
302.352 658.745 57.2784
316.588 666.656 33.0873
332.999 636.376 33.0794
318.578 628.811 57.2712
317.662 667.236 30.1581
322.673 670.032 1.58097
339.15 639.629 1.57285
334.073 636.956 30.1503
322.672 670.033 -1.58969
317.641 667.257 -30.1461
334.053 636.975 -30.1539
339.149 639.63 -1.59781
316.566 666.679 -33.0713
302.351 658.794 -57.2124
318.579 628.857 -57.2198
332.979 636.397 -33.0791
300.377 657.729 -59.4518
279.24 645.975 -75.6207
295.19 616.554 -75.6283
316.605 627.791 -59.4591
276.667 644.584 -76.8404
251.754 630.703 -82.5824
267.374 601.895 -82.5903
292.617 615.162 -76.848
248.967 629.193 -82.5933
224.038 615.274 -76.9823
239.323 587.083 -76.9896
264.587 600.385 -82.6011
221.459 613.874 -75.7768
200.311 602.035 -59.6427
215.31 574.374 -59.6494
236.744 585.683 -75.7842
198.332 600.959 -57.3982
184.163 593.011 -33.1297
198.969 565.706 -33.1356
213.331 573.297 -57.4049
183.09 592.427 -30.1872
178.122 589.641 -1.53919
192.86 562.463 -1.54475
197.896 565.122 -30.1932
194.465 559.417 1.64033
199.514 562.088 30.2661
213.645 534.431 30.261
208.53 531.887 1.63549
200.6 562.644 33.2045
214.939 570.212 57.4244
229.254 542.194 57.4189
214.731 534.987 33.1995
216.942 571.236 59.6667
238.377 582.529 75.8113
252.965 553.976 75.8057
231.257 543.219 59.6613
240.99 583.864 77.0179
266.256 597.154 82.6394
281.164 567.974 82.6336
255.579 555.31 77.0123
269.08 598.595 82.6295
294.327 611.858 76.8954
309.55 582.057 76.8892
283.987 569.415 82.6237
296.933 613.186 75.6764
318.35 624.425 59.5124
333.838 594.101 59.5057
312.156 583.385 75.6702
320.35 625.444 57.2704
334.771 633.008 33.0786
350.437 602.335 33.0715
335.839 595.12 57.2637
335.859 633.563 30.1494
340.936 636.236 1.57201
356.664 605.439 1.56478
351.525 602.889 30.1423
340.935 636.237 -1.59865
335.839 633.582 -30.1548
351.505 602.907 -30.1617
356.663 605.44 -1.60588
334.751 633.03 -33.0799
320.351 625.489 -57.2205
335.84 595.162 -57.2269
350.417 602.355 -33.0868
318.352 624.472 -59.4599
296.937 613.235 -75.6291
312.161 583.43 -75.6353
333.841 594.145 -59.4662
294.331 611.906 -76.8488
269.088 598.638 -82.591
283.996 569.455 -82.5972
309.556 582.101 -76.855
266.265 597.197 -82.6018
241.001 583.896 -76.9904
255.59 555.339 -76.9962
281.173 568.013 -82.608
238.388 582.56 -75.7849
216.954 571.251 -59.6501
231.27 543.23 -59.6557
252.977 554.003 -75.7907
214.95 570.224 -57.4056
200.587 562.633 -33.1363
214.717 534.975 -33.1414
229.265 542.204 -57.4111
199.5 562.076 -30.1938
194.464 559.416 -1.54535
208.53 531.886 -1.55019
213.63 534.418 -30.1988
210.059 528.802 1.63497
215.173 531.346 30.2605
228.622 503.349 30.2561
223.445 500.933 1.63086
216.273 531.875 33.199
230.796 539.082 57.4184
244.42 510.72 57.4134
229.722 503.878 33.1946
232.824 540.057 59.6607
254.532 550.814 75.8051
268.416 521.909 75.7997
246.448 511.695 59.6557
257.178 552.083 77.0117
282.763 564.747 82.633
296.95 535.209 82.6272
271.061 523.179 77.0063
285.621 566.118 82.6231
311.183 578.76 76.8885
325.671 548.593 76.8825
299.808 536.579 82.6174
313.821 580.025 75.6695
335.503 590.74 59.505
350.244 560.044 59.499
328.309 549.858 75.6635
337.528 591.71 57.263
352.126 598.925 33.0708
367.036 567.876 33.0645
352.268 561.014 57.257
353.227 599.453 30.1416
358.366 602.003 1.56403
373.335 570.829 1.55769
368.136 568.404 30.1353
358.365 602.004 -1.60662
353.207 599.471 -30.1624
368.117 568.42 -30.1684
373.334 570.83 -1.61296
352.106 598.945 -33.0875
337.53 591.752 -57.2276
352.272 561.053 -57.2329
367.017 567.894 -33.0935
335.507 590.783 -59.4669
313.827 580.069 -75.636
328.316 549.898 -75.6409
350.249 560.084 -59.4722
311.189 578.804 -76.8556
285.63 566.157 -82.5978
299.819 536.615 -82.6025
325.679 548.633 -76.8605
282.772 564.786 -82.6086
257.19 552.112 -76.9968
271.074 523.204 -77.0013
296.961 535.243 -82.6133
254.545 550.841 -75.7913
232.837 540.068 -59.6563
246.46 511.704 -59.6608
268.429 521.933 -75.7958
230.807 539.091 -57.4117
216.26 531.863 -33.1419
229.707 503.865 -33.1462
244.431 510.727 -57.4162
215.159 531.333 -30.1994
210.058 528.801 -1.5507
223.444 500.933 -1.55481
228.607 503.335 -30.2036
224.898 497.812 1.63043
230.074 500.227 30.2557
242.833 471.905 30.2519
237.597 469.62 1.62702
231.187 500.729 33.1941
245.885 507.571 57.4129
258.81 478.88 57.4084
243.946 472.407 33.1903
247.937 508.495 59.6552
269.905 518.709 75.7992
283.077 489.47 75.794
260.862 479.803 59.6507
272.581 519.913 77.0057
298.47 531.943 82.6266
311.929 502.062 82.621
285.753 490.673 77.0005
301.361 533.243 82.6167
327.224 545.257 76.8819
340.969 514.742 76.8762
314.82 503.363 82.6111
329.891 546.457 75.6628
351.826 556.643 59.4983
365.811 525.594 59.493
343.636 515.941 75.6572
353.873 557.564 57.2563
368.641 564.426 33.0639
382.786 533.019 33.0584
367.858 526.515 57.2509
369.754 564.927 30.1347
374.952 567.353 1.55704
389.154 535.821 1.55158
383.899 533.521 30.1292
374.951 567.354 -1.6136
369.734 564.943 -30.169
383.88 533.535 -30.1741
389.153 535.822 -1.61906
368.622 564.443 -33.0941
353.877 557.603 -57.2335
367.863 526.55 -57.2378
382.767 533.036 -33.0992
351.831 556.683 -59.4727
329.899 546.496 -75.6414
343.645 515.977 -75.645
365.817 525.63 -59.4771
327.231 545.296 -76.861
301.371 533.278 -82.6029
314.832 503.394 -82.6061
340.977 514.777 -76.8646
298.481 531.977 -82.6137
272.594 519.938 -77.0017
285.766 490.695 -77.0049
311.941 502.093 -82.6169
269.918 518.733 -75.7962
247.95 508.503 -59.6612
260.875 479.809 -59.6647
283.09 489.49 -75.7994
245.896 507.578 -57.4166
231.173 500.715 -33.1466
243.931 472.392 -33.15
258.822 478.884 -57.4201
230.059 500.214 -30.204
224.897 497.811 -1.55524
237.596 469.619 -1.55865
242.818 471.891 -30.2074
238.973 466.463 1.62666
244.209 468.748 30.2516
256.272 440.116 30.2484
250.98 437.962 1.62394
245.334 469.222 33.1899
260.198 475.695 57.408
272.419 446.69 57.4038
257.397 440.589 33.1867
262.273 476.567 59.6501
284.487 486.234 75.7935
296.941 456.675 75.7884
274.493 447.562 59.646
287.192 487.371 76.9999
313.369 498.76 82.6204
326.094 468.555 82.6148
299.645 457.812 76.9948
316.291 499.989 82.6105
342.439 511.368 76.8756
355.433 480.522 76.8701
329.015 469.784 82.6049
345.135 512.503 75.6566
367.309 522.155 59.4924
380.53 490.771 59.4876
358.129 481.657 75.6511
369.378 523.026 57.2504
384.306 529.531 33.0579
397.679 497.786 33.0532
382.599 491.642 57.2456
385.43 530.005 30.1286
390.685 532.305 1.55102
404.112 500.434 1.54641
398.803 498.261 30.124
390.684 532.306 -1.61959
385.412 530.02 -30.1747
398.785 498.274 -30.1788
404.111 500.435 -1.6242
384.288 529.547 -33.0996
369.383 523.061 -57.2383
382.605 491.674 -57.2416
397.661 497.801 -33.1038
367.316 522.191 -59.4774
345.143 512.538 -75.6454
358.139 481.689 -75.6476
380.538 490.804 -59.4807
342.448 511.403 -76.8649
316.302 500.02 -82.6064
329.028 469.81 -82.6081
355.443 480.554 -76.8671
313.381 498.79 -82.6172
287.205 487.392 -77.0051
299.659 457.83 -77.0069
326.107 468.581 -82.6188
284.501 486.253 -75.7997
262.285 476.573 -59.665
274.506 447.565 -59.6673
296.955 456.691 -75.8014
260.21 475.699 -57.4204
245.319 469.207 -33.1503
257.382 440.574 -33.1529
272.43 446.691 -57.4227
244.193 468.734 -30.2078
238.972 466.462 -1.55898
250.979 437.961 -1.56171
256.256 440.101 -30.2104
252.279 434.772 1.62364
257.57 436.925 30.2481
268.932 407.998 30.2455
263.587 405.977 1.6216
258.707 437.371 33.1863
273.729 443.471 57.4034
285.239 414.167 57.3996
270.069 408.443 33.1837
275.824 444.291 59.6455
298.272 453.404 75.7879
310 423.543 75.7827
287.334 414.988 59.6417
301.003 454.475 76.9942
327.452 465.217 82.6142
339.436 434.705 82.6084
312.732 424.614 76.9891
330.403 466.375 82.6043
356.82 477.113 76.8695
369.057 445.956 76.8641
342.387 435.862 82.5985
359.543 478.182 75.6506
381.944 487.296 59.487
394.395 455.596 59.4828
371.78 447.025 75.6452
384.033 488.117 57.2451
399.113 494.261 33.0527
411.707 462.198 33.0488
396.484 456.417 57.2408
400.249 494.709 30.1235
405.557 496.882 1.54594
418.202 464.69 1.54217
412.843 462.646 30.1196
405.556 496.883 -1.62463
400.231 494.722 -30.1793
412.826 462.656 -30.1825
418.201 464.691 -1.6284
399.096 494.276 -33.1041
384.04 488.149 -57.2419
396.492 456.446 -57.244
411.69 462.21 -33.1074
381.952 487.328 -59.4809
359.553 478.213 -75.6478
371.791 447.053 -75.6485
394.404 455.625 -59.4831
356.831 477.144 -76.8673
330.416 466.401 -82.6082
342.401 435.885 -82.6081
369.069 445.983 -76.868
327.465 465.243 -82.6189
301.018 454.492 -77.007
312.747 424.628 -77.0071
339.45 434.727 -82.6188
298.286 453.42 -75.8015
275.837 444.295 -59.6674
287.347 414.989 -59.6686
310.015 423.556 -75.8017
273.74 443.472 -57.4229
258.692 437.356 -33.1531
270.053 408.428 -33.1549
285.25 414.167 -57.4241
257.554 436.91 -30.2106
252.278 434.771 -1.56196
263.587 405.976 -1.564
268.915 407.982 -30.2124
264.808 402.755 1.62138
270.153 404.775 30.2453
280.808 375.568 30.2433
275.413 373.681 1.62001
271.3 405.192 33.1834
286.47 410.917 57.3993
297.264 381.331 57.3957
281.955 375.985 33.1814
288.585 411.685 59.6412
311.251 420.24 75.7822
322.25 390.094 75.7768
299.379 382.099 59.6376
314.008 421.243 76.9884
340.712 431.335 82.6078
351.949 400.534 82.6014
325.007 391.097 76.983
343.69 432.42 82.5979
370.361 442.514 76.8635
381.834 411.065 76.8578
354.927 401.619 82.5915
373.108 443.517 75.6447
395.724 452.088 59.4822
407.398 420.092 59.4783
384.582 412.068 75.639
397.832 452.858 57.2404
413.055 458.639 33.0484
424.865 426.277 33.0451
409.506 420.863 57.2365
414.201 459.059 30.1192
419.56 461.104 1.54177
431.418 428.611 1.53881
426.011 426.697 30.1159
419.56 461.104 -1.62874
414.184 459.07 -30.1828
425.994 426.705 -30.185
431.417 428.612 -1.6317
413.038 458.651 -33.1076
397.84 452.886 -57.2443
409.515 420.887 -57.2451
424.849 426.287 -33.1098
395.733 452.116 -59.4832
373.12 443.544 -75.6486
384.595 412.091 -75.6474
407.409 420.117 -59.484
370.373 442.54 -76.8679
343.704 432.442 -82.608
354.943 401.638 -82.6058
381.847 411.087 -76.8667
340.726 431.356 -82.6187
314.023 421.257 -77.007
325.023 391.108 -77.0054
351.964 400.552 -82.6165
311.266 420.253 -75.8017
288.598 411.686 -59.6686
299.392 382.099 -59.6685
322.265 390.104 -75.8
286.481 410.916 -57.4242
271.284 405.177 -33.155
281.938 375.97 -33.156
297.275 381.329 -57.4241
270.136 404.76 -30.2126
264.807 402.754 -1.56416
275.412 373.681 -1.56553
280.79 375.553 -30.2135
276.555 370.429 1.61985
281.949 372.316 30.2431
291.893 342.844 30.2416
286.453 341.092 1.61913
283.107 372.704 33.181
298.416 378.05 57.3954
308.489 348.198 57.3918
293.051 343.232 33.1795
300.549 378.766 59.637
323.42 386.761 75.7763
333.684 356.346 75.7701
310.622 348.915 59.6335
326.201 387.696 76.9823
353.143 397.133 82.6007
363.628 366.062 82.5932
336.465 357.282 76.9762
356.147 398.146 82.5908
383.054 407.591 76.8571
393.759 375.87 76.8507
366.632 367.075 82.5833
385.825 408.528 75.6384
408.641 416.552 59.4778
419.534 384.282 59.474
396.53 376.807 75.632
410.767 417.272 57.2361
426.126 422.686 33.0447
437.146 390.043 33.042
421.66 385.002 57.2323
427.282 423.078 30.1156
432.689 424.992 1.53848
443.755 392.217 1.53632
438.302 390.436 30.1128
432.688 424.993 -1.63191
427.265 423.087 -30.1852
438.287 390.442 -30.1863
443.754 392.218 -1.63408
426.11 422.695 -33.1099
410.777 417.296 -57.2452
421.671 385.022 -57.2446
437.131 390.051 -33.111
408.652 416.577 -59.4839
385.838 408.55 -75.6473
396.545 376.825 -75.6439
419.546 384.302 -59.4833
383.067 407.613 -76.8664
356.162 398.164 -82.6055
366.649 367.089 -82.6006
393.774 375.888 -76.863
353.159 397.15 -82.6161
326.217 387.706 -77.005
336.481 357.29 -77.0012
363.645 366.076 -82.6113
323.436 386.77 -75.7998
300.562 378.765 -59.6683
310.636 348.912 -59.6668
333.7 356.353 -75.796
298.427 378.048 -57.4241
283.09 372.689 -33.156
293.033 343.218 -33.1561
308.501 348.195 -57.4226
281.932 372.301 -30.2136
276.554 370.428 -1.56561
286.452 341.091 -1.56632
291.875 342.83 -30.2137
287.515 337.811 1.61903
292.956 339.563 30.2415
302.185 309.842 30.2404
296.701 308.225 1.61892
294.123 339.923 33.1792
309.561 344.889 57.3915
318.91 314.787 57.3877
303.352 310.202 33.1781
311.712 345.552 59.6329
334.773 352.984 75.7695
344.298 322.319 75.7622
321.061 315.45 59.6291
337.576 353.852 76.9753
364.74 362.632 82.5924
374.469 331.311 82.5831
347.101 323.187 76.968
367.767 363.572 82.5825
394.894 372.368 76.8498
404.826 340.395 76.8421
377.496 332.251 82.5732
397.687 373.238 75.6314
420.69 380.713 59.4734
430.798 348.188 59.4695
407.62 341.265 75.6237
422.833 381.381 57.2319
438.32 386.423 33.0416
448.548 353.52 33.0393
432.941 348.857 57.228
439.485 386.787 30.1126
444.938 388.568 1.53604
455.209 355.529 1.53467
449.713 353.884 30.1103
444.937 388.569 -1.63417
439.47 386.793 -30.1864
449.698 353.888 -30.1863
455.208 355.529 -1.63554
438.305 386.43 -33.1109
422.845 381.401 -57.2445
432.954 348.872 -57.2422
448.533 353.525 -33.1108
420.703 380.733 -59.483
397.702 373.255 -75.6436
407.636 341.278 -75.6373
430.813 348.204 -59.4807
394.909 372.385 -76.8624
367.784 363.586 -82.6
377.514 332.261 -82.5919
404.843 340.408 -76.8561
364.756 362.646 -82.6106
337.593 353.859 -77.0005
347.119 323.192 -76.9941
374.487 331.321 -82.6025
334.789 352.991 -75.7955
311.725 345.55 -59.6664
321.074 315.447 -59.6633
344.315 322.324 -75.7891
309.573 344.885 -57.4225
294.106 339.908 -33.1559
303.334 310.188 -33.1552
318.922 314.783 -57.4194
292.938 339.549 -30.2137
287.514 337.81 -1.56632
296.7 308.225 -1.56642
302.166 309.828 -30.213
297.684 304.917 1.61887
303.168 306.534 30.2403
311.678 276.578 30.2395
306.154 275.097 1.61932
304.344 306.865 33.1778
319.902 311.45 57.3874
328.524 281.113 57.383
312.854 276.909 33.1769
322.068 312.061 59.6283
345.306 318.93 75.7615
354.09 288.031 75.7523
330.69 281.724 59.624
348.129 319.73 76.9669
375.497 327.854 82.582
384.468 296.301 82.5701
356.913 288.831 76.9577
378.546 328.721 82.5721
405.876 336.866 76.8411
415.033 304.664 76.8313
387.517 297.168 82.5602
408.69 337.669 75.623
431.868 344.592 59.4688
441.187 311.836 59.4645
417.847 305.467 75.6133
434.027 345.209 57.2276
449.633 349.872 33.0389
459.067 316.729 33.037
443.346 312.453 57.2233
450.808 350.207 30.1101
456.303 351.852 1.53443
465.778 318.566 1.53386
460.241 317.064 30.1081
456.303 351.852 -1.6355
450.793 350.211 -30.1863
460.227 317.064 -30.1847
465.777 318.566 -1.63606
449.619 349.877 -33.1105
434.04 345.223 -57.2419
443.362 312.462 -57.2376
459.053 316.73 -33.109
431.883 344.607 -59.4801
408.706 337.682 -75.6367
417.865 305.475 -75.6268
441.204 311.846 -59.4757
405.893 336.878 -76.8551
378.564 328.731 -82.5909
387.536 297.175 -82.5787
415.052 304.672 -76.8452
375.515 327.864 -82.6014
348.147 319.735 -76.993
356.931 288.834 -76.9834
384.487 296.307 -82.5893
345.323 318.934 -75.7884
322.082 312.058 -59.6626
330.704 281.721 -59.6577
354.108 288.033 -75.7787
319.914 311.446 -57.4191
304.326 306.851 -33.1549
312.836 276.896 -33.1532
328.536 281.109 -57.4142
303.149 306.52 -30.2129
297.683 304.917 -1.56633
306.153 275.096 -1.56589
311.659 276.565 -30.2113
307.058 271.763 1.6193
312.582 273.244 30.2394
320.372 243.066 30.2387
314.811 241.72 1.62021
313.766 273.547 33.1766
329.435 277.751 57.3827
337.328 247.193 57.3774
321.556 243.368 33.1758
331.616 278.31 59.6231
355.016 284.616 75.7514
363.056 253.5 75.7396
339.509 247.751 59.6178
357.858 285.349 76.9564
385.412 292.819 82.5687
393.622 261.055 82.5532
365.898 254.232 76.9446
388.481 293.615 82.5588
415.997 301.11 76.8299
424.377 268.701 76.8173
396.691 261.85 82.5433
418.83 301.846 75.6124
442.17 308.216 59.4636
450.699 275.251 59.4584
427.209 269.437 75.5997
444.344 308.78 57.2228
460.064 313.056 33.0365
468.702 279.69 33.0347
452.874 275.815 57.2175
461.247 313.361 30.1079
466.784 314.863 1.53365
475.462 281.345 1.53395
469.884 279.995 30.1061
466.784 314.863 -1.63585
461.233 313.361 -30.1845
469.872 279.991 -30.1814
475.462 281.345 -1.63554
460.052 313.056 -33.1084
444.36 308.789 -57.237
452.891 275.819 -57.2303
468.69 279.687 -33.1052
442.187 308.225 -59.4748
418.848 301.854 -75.6259
427.229 269.441 -75.6118
450.719 275.255 -59.468
416.016 301.118 -76.8438
388.5 293.621 -82.5773
396.712 261.854 -82.5602
424.397 268.704 -76.8297
385.432 292.825 -82.5878
357.876 285.352 -76.9819
365.917 254.234 -76.9685
393.643 261.058 -82.5708
355.034 284.619 -75.7777
331.63 278.306 -59.6567
339.523 247.749 -59.6498
363.075 253.501 -75.7643
329.447 277.747 -57.4137
313.747 273.534 -33.1528
321.537 243.357 -33.1503
337.34 247.189 -57.4068
312.563 273.232 -30.2111
307.057 271.763 -1.56572
314.81 241.72 -1.56481
320.352 243.055 -30.2086
315.634 238.363 1.62021
321.195 239.708 30.2387
328.264 209.32 30.2378
322.669 208.11 1.62145
322.387 239.982 33.1754
338.159 243.807 57.377
345.322 213.04 57.3704
329.456 209.593 33.1745
340.353 244.313 59.6166
363.901 250.062 75.7385
371.197 218.744 75.7237
347.516 213.547 59.61
366.759 250.728 76.9429
394.483 257.55 82.5515
401.931 225.595 82.5317
374.056 219.409 76.9281
397.57 258.274 82.5416
425.255 265.125 76.8155
432.855 232.534 76.7993
405.018 226.319 82.5218
428.104 265.795 75.5986
451.595 271.609 59.4573
459.333 238.462 59.4504
435.704 233.204 75.5823
453.783 272.119 57.2169
469.612 275.994 33.034
477.453 242.423 33.0323
461.521 238.972 57.21
470.802 276.268 30.1059
476.38 277.618 1.53374
484.263 243.882 1.53512
478.644 242.697 30.1042
476.38 277.618 -1.63512
470.79 276.264 -30.1809
478.633 242.687 -30.1759
484.262 243.881 -1.63374
469.6 275.99 -33.1043
453.801 272.122 -57.2294
461.541 238.969 -57.2199
477.443 242.414 -33.0993
451.615 271.613 -59.4667
428.125 265.798 -75.6104
435.727 233.203 -75.5918
459.355 238.459 -59.4572
425.276 265.128 -76.8278
397.59 258.277 -82.5583
405.04 226.32 -82.5361
432.878 232.533 -76.8091
394.504 257.553 -82.5688
366.778 250.729 -76.9666
374.076 219.411 -76.9494
401.953 225.596 -82.5466
363.92 250.063 -75.763
340.367 244.311 -59.6484
347.53 213.546 -59.6395
371.217 218.745 -75.7458
338.171 243.803 -57.4062
322.368 239.972 -33.1496
329.437 209.586 -33.1462
345.334 213.039 -57.3972
321.176 239.698 -30.2084
315.633 238.363 -1.56456
322.668 208.11 -1.56332
328.245 209.312 -30.205
323.413 204.73 1.62146
329.008 205.94 30.2378
335.359 175.351 30.236
329.733 174.279 1.62289
330.206 206.185 33.1739
346.072 209.632 57.3698
352.507 178.668 57.3615
336.557 175.596 33.1722
348.278 210.087 59.6086
371.96 215.284 75.7223
378.513 183.779 75.7043
354.713 179.123 59.6003
374.833 215.884 76.9259
402.708 222.07 82.5295
409.395 189.946 82.5052
381.386 184.379 76.9079
405.811 222.724 82.5196
433.648 228.939 76.7971
440.468 196.195 76.7767
412.497 190.6 82.4953
436.513 229.544 75.5809
460.142 234.801 59.4489
467.085 201.499 59.4387
443.333 196.799 75.5605
462.343 235.256 57.2091
478.275 238.707 33.0314
485.319 204.945 33.0294
469.287 201.954 57.1989
479.473 238.946 30.104
485.092 240.131 1.53492
492.179 206.187 1.53798
486.518 205.185 30.102
485.092 240.131 -1.63309
479.462 238.937 -30.1753
486.509 205.169 -30.1685
492.178 206.186 -1.63003
478.265 238.697 -33.098
462.363 235.252 -57.2186
469.309 201.943 -57.2055
485.312 204.929 -33.0912
460.163 234.798 -59.4554
436.535 229.542 -75.59
443.357 196.793 -75.567
467.109 201.488 -59.4423
433.671 228.938 -76.8066
405.833 222.725 -82.5336
412.521 190.599 -82.5068
440.492 196.189 -76.7836
402.73 222.07 -82.5441
374.853 215.886 -76.9469
381.408 184.382 -76.9261
409.418 189.945 -82.5173
371.979 215.285 -75.744
348.293 210.086 -59.6377
354.728 179.126 -59.6265
378.534 183.781 -75.7233
346.085 209.63 -57.3963
330.187 206.177 -33.1454
336.538 175.594 -33.1406
352.52 178.67 -57.385
328.988 205.932 -30.2047
323.412 204.73 -1.563
329.732 174.279 -1.56157
335.339 175.349 -30.1999
330.398 170.878 1.62278
336.024 171.95 30.2359
341.67 141.174 30.2301
336.02 140.242 1.62432
337.227 172.166 33.1713
353.178 175.238 57.3607
358.892 144.088 57.3465
342.874 141.391 33.1655
355.394 175.643 59.5984
379.194 180.298 75.7023
385.007 148.622 75.6777
361.108 144.493 59.5842
382.08 180.836 76.9051
410.088 186.402 82.5024
416.01 154.133 82.4702
387.893 149.16 76.8804
413.204 186.989 82.4925
441.175 192.583 76.7738
447.207 159.716 76.7457
419.126 154.72 82.4603
444.053 193.123 75.5583
467.806 197.823 59.4366
473.942 164.394 59.4171
450.085 160.256 75.5301
470.019 198.219 57.1974
486.052 201.211 33.0279
492.285 167.268 33.0242
476.155 164.791 57.178
487.258 201.412 30.1019
492.919 202.414 1.53782
499.194 168.265 1.54448
493.491 167.469 30.0983
492.919 202.413 -1.62908
487.249 201.396 -30.1676
493.486 167.445 -30.1594
499.194 168.264 -1.62243
486.045 201.194 -33.0893
470.042 198.208 -57.2035
476.18 164.773 -57.1834
492.282 167.243 -33.0812
467.83 197.812 -59.4399
444.077 193.116 -75.5646
450.111 160.246 -75.5356
473.968 164.376 -59.4197
441.199 192.578 -76.7806
413.228 186.987 -82.5037
419.151 154.718 -82.47
447.234 159.707 -76.7515
410.111 186.401 -82.5142
382.101 180.838 -76.923
387.915 149.164 -76.8956
416.035 154.131 -82.4804
379.215 180.301 -75.721
355.409 175.645 -59.6242
361.125 144.501 -59.6064
385.029 148.627 -75.6936
353.191 175.241 -57.3838
337.209 172.164 -33.1394
342.856 141.396 -33.13
358.907 144.096 -57.366
336.004 171.948 -30.1994
330.397 170.878 -1.56108
336.019 140.242 -1.55954
341.652 141.179 -30.1901
336.611 136.822 1.62337
342.261 137.754 30.2292
347.269 106.817 30.1963
341.61 106.03 1.62499
343.468 137.942 33.1623
359.487 140.639 57.3433
364.526 109.327 57.2835
348.477 107.004 33.1294
361.71 140.994 59.5791
385.608 145.124 75.6726
390.694 113.302 75.596
366.749 109.682 59.5194
388.502 145.6 76.8743
416.619 150.573 82.4641
421.759 118.19 82.3817
393.588 113.778 76.7977
419.744 151.096 82.4544
447.826 156.092 76.7398
453.026 123.141 76.6675
424.885 118.712 82.372
450.714 156.568 75.5251
474.57 160.706 59.4121
479.829 127.176 59.3532
455.913 123.616 75.4528
476.794 161.04 57.1742
492.923 163.517 33.0205
498.258 129.387 32.9992
482.053 127.51 57.1154
494.136 163.676 30.0977
499.839 164.472 1.54394
505.202 130.112 1.55234
499.47 129.545 30.0764
499.839 164.47 -1.62077
494.131 163.651 -30.1578
499.473 129.517 -30.1315
505.202 130.11 -1.61236
492.921 163.492 -33.0773
476.819 161.021 -57.1795
482.082 127.485 -57.1255
498.262 129.357 -33.0511
474.597 160.688 -59.4149
450.74 156.557 -75.5307
455.943 123.604 -75.4609
479.86 127.152 -59.3608
447.853 156.083 -76.7456
419.77 151.093 -82.4641
424.913 118.709 -82.3815
453.055 123.129 -76.6758
416.645 150.572 -82.4741
388.525 145.605 -76.8893
393.614 113.785 -76.8101
421.788 118.188 -82.3916
385.631 145.129 -75.6882
361.727 141.003 -59.601
366.77 109.7 -59.5362
390.72 113.31 -75.6089
359.502 140.648 -57.3624
343.451 137.948 -33.1264
348.463 107.022 -33.0892
364.545 109.345 -57.2976
342.243 137.759 -30.1887
336.611 136.822 -1.55815
341.609 106.03 -1.55654
347.255 106.833 -30.1515
342.152 102.601 1.61804
347.811 103.388 30.1893
352.541 72.4121 29.972
346.919 71.774 1.61793
349.015 103.546 33.1099
365.065 105.869 57.264
369.694 74.5161 56.8771
353.745 72.5706 32.8926
367.283 106.175 59.4915
391.228 109.794 75.5682
395.711 77.9286 75.0939
371.912 74.822 59.1046
394.116 110.211 76.767
422.287 114.623 82.351
426.61 82.1993 81.8791
398.599 78.3454 76.2926
425.407 115.084 82.3434
453.548 119.513 76.6388
457.714 86.5469 76.2271
429.73 82.66 81.8715
456.433 119.922 75.4293
480.349 123.482 59.3298
484.412 89.8416 59.0451
460.6 86.9568 75.0176
482.571 123.744 57.0999
498.777 125.621 32.9838
502.761 91.2473 32.8352
486.634 90.1035 56.8153
499.987 125.728 30.0717
505.719 126.294 1.54762
509.655 91.6613 1.54792
503.972 91.3546 29.9231
505.72 126.293 -1.60687
499.991 125.699 -30.126
503.981 91.3266 -29.9744
509.655 91.6599 -1.60657
498.781 125.591 -33.0355
482.6 123.718 -57.11
486.668 90.0769 -56.8234
502.772 91.218 -32.8839
480.38 123.457 -59.3374
456.463 119.909 -75.4374
460.632 86.9421 -75.0214
484.447 89.8157 -59.0509
453.577 119.501 -76.647
425.436 115.081 -82.3528
429.761 82.6574 -81.8777
457.747 86.5334 -76.231
422.316 114.621 -82.3606
394.142 110.219 -76.7791
398.628 78.3563 -76.3015
426.642 82.1979 -81.8855
391.254 109.803 -75.5806
367.304 106.193 -59.5079
371.939 74.8505 -59.1134
395.74 77.9409 -75.103
365.085 105.888 -57.2776
349.002 103.565 -33.0692
353.74 72.6048 -32.8487
369.72 74.5455 -56.8831
347.796 103.405 -30.1442
342.151 102.602 -1.54926
346.919 71.7754 -1.54938
352.534 72.4451 -29.9237
347.575 68.3987 1.57416
353.196 69.0368 29.9283
360.198 38.8977 28.6342
354.836 38.2764 1.57081
354.367 69.1781 32.7706
370.316 71.1236 56.7551
376.572 40.9186 54.3771
361.369 39.039 31.4765
372.474 71.3976 58.9275
396.273 74.5042 74.9168
401.423 44.1177 71.8414
378.73 41.1926 56.5496
399.087 74.8777 76.0908
427.098 78.7316 81.6773
430.974 48.0383 78.3987
404.237 44.4912 73.0154
430.14 79.1437 81.6757
458.125 83.0306 76.0313
460.752 51.9901 73.0452
434.016 48.4504 78.3971
460.935 83.3942 74.8583
484.747 86.279 58.8858
486.27 55.146 56.5989
463.562 52.3537 71.8723
486.909 86.5094 56.7173
503.035 87.6533 32.7373
503.66 56.8572 31.4524
488.431 55.3765 54.4304
504.216 87.7468 29.8887
509.899 88.0536 1.51355
510.179 57.3779 1.51108
504.84 56.9508 28.6039
509.899 88.0516 -1.57234
504.225 87.7183 -29.9402
504.839 56.8983 -28.6476
510.179 57.3759 -1.57481
503.046 87.6229 -32.7852
486.943 86.4817 -56.7247
488.463 55.3271 -54.424
503.66 56.8028 -31.4927
484.783 86.2524 -58.8907
460.968 83.3788 -74.8612
463.593 52.3364 -71.8683
486.303 55.0978 -56.59
458.157 83.017 -76.0346
430.172 79.141 -81.6813
434.046 48.4489 -78.3995
460.782 51.9747 -73.0417
427.13 78.7304 -81.6834
399.117 74.8888 -76.0994
404.264 44.5068 -73.0239
431.004 48.0383 -78.4015
396.302 74.5175 -74.9259
372.501 71.4271 -58.9362
378.749 41.2426 -56.5629
401.449 44.1355 -71.8503
370.341 71.1547 -56.761
354.361 69.214 -32.7266
361.355 39.0938 -31.4399
376.589 40.9702 -54.3877
353.189 69.0707 -29.8802
347.575 68.401 -1.50583
354.836 38.2787 -1.50918
360.183 38.9505 -28.5935
355.684 34.9858 1.48571
361.046 35.6071 28.5491
369.055 6.36387 26.7735
364.037 5.77682 1.47716
362.152 35.7422 31.2355
377.355 37.6218 54.1361
384.384 8.27369 50.8613
370.161 6.49892 29.4599
379.394 37.8799 56.1894
402.088 40.805 71.4812
407.658 11.2327 67.1827
386.423 8.53173 52.9146
404.747 41.1497 72.5911
431.484 44.6968 77.9744
435.32 14.7984 73.2829
410.318 11.5775 68.2926
434.359 45.0726 77.9736
461.095 48.6124 72.6217
463.173 18.3797 68.2509
438.196 15.1742 73.2822
463.75 48.951 71.5126
486.459 51.7433 56.2391
487.008 21.3667 52.8645
465.828 18.7184 67.1417
488.494 51.9804 54.1861
503.723 53.4611 31.2081
503.222 23.2001 29.3866
489.044 21.6037 50.8115
504.828 53.572 28.5175
510.167 53.9991 1.42473
509.293 23.7901 1.43621
504.328 23.311 26.696
510.167 53.9955 -1.48725
504.826 53.5179 -28.5601
504.322 23.232 -26.7195
509.293 23.7866 -1.47578
503.722 53.4038 -31.2471
488.525 51.9281 -54.1784
489.063 21.5331 -50.7997
503.218 23.1179 -29.4065
486.491 51.6941 -56.2296
463.781 48.9326 -71.5079
465.849 18.7027 -67.1382
487.029 21.299 -52.8509
461.125 48.5969 -72.6179
434.389 45.0712 -77.9757
438.215 15.1728 -73.283
463.194 18.367 -68.2482
431.513 44.697 -77.977
404.774 41.1655 -72.5993
410.335 11.5913 -68.2981
435.34 14.7986 -73.2843
402.113 40.8238 -71.4902
379.413 37.9309 -56.2028
386.428 8.59662 -52.9291
407.675 11.2496 -67.1889
377.372 37.6755 -54.1475
362.137 35.7992 -31.1997
370.137 6.57461 -29.438
384.387 8.34129 -50.8738
361.03 35.661 -28.5096
355.683 34.9892 -1.42532
364.036 5.78019 -1.43387
369.031 6.43641 -26.7479
365.064 2.79988 1.34766
370.082 3.38693 26.644
380.262 -21.1912 23.78
375.839 -21.8127 1.32824
371.09 3.51813 29.0967
385.313 5.2929 50.4982
393.869 -19.3008 45.2631
381.27 -21.06 26.2327
387.175 5.53636 52.3738
408.41 8.23735 66.6419
414.614 -16.5271 59.8095
395.731 -19.0573 47.1388
410.841 8.55452 67.6533
435.844 11.7755 72.6437
439.282 -13.2595 65.2127
417.045 -16.2099 60.8208
438.47 12.118 72.6395
463.448 15.3235 67.6081
464.093 -9.98512 60.6838
441.908 -12.9169 65.2085
465.871 15.6371 66.5921
487.051 18.2854 52.315
485.279 -7.19628 46.9478
466.516 -9.67155 59.6678
488.905 18.5193 50.4422
503.083 20.1157 29.0173
499.647 -5.31298 26.11
487.133 -6.96242 45.0749
504.088 20.2357 26.5682
509.054 20.7149 1.30834
505.041 -4.6145 1.32609
500.652 -5.19291 23.6609
509.054 20.7126 -1.34394
504.083 20.158 -26.5877
500.651 -5.19537 -23.661
505.041 -4.61679 -1.32619
503.078 20.0357 -29.0364
488.923 18.4509 -50.4296
487.133 -6.9673 -45.0749
499.647 -5.31764 -26.1097
487.069 18.2193 -52.3022
465.89 15.623 -66.5895
466.516 -9.6742 -59.6676
485.279 -7.19888 -46.9475
463.467 15.3113 -67.6056
438.488 12.117 -72.6404
441.909 -12.9177 -65.2083
464.093 -9.98595 -60.6837
435.862 11.7752 -72.6447
410.857 8.56794 -67.6585
417.046 -16.2099 -60.8209
439.283 -13.2596 -65.2127
408.425 8.25248 -66.6471
387.179 5.59947 -52.3873
395.731 -19.0554 -47.1389
414.614 -16.5254 -59.8095
385.315 5.3582 -50.5112
371.066 3.59152 -29.0754
381.269 -21.0558 -26.2325
393.868 -19.2967 -45.2628
370.058 3.45826 -26.6221
365.063 2.80204 -1.30804
375.839 -21.8106 -1.32745
380.261 -21.189 -23.7792
-78.5234 957.033 25.9151
-82.2302 953.533 0.160072
-78.4771 957.015 -25.5889
-67.8312 966.945 -47.4271
-51.8193 981.75 -62.0168
-32.8493 999.129 -67.1142
-13.8739 1016.48 -61.9667
2.15691 1031.26 -47.389
12.8109 1041.25 -25.5814
16.5448 1044.78 0.176247
12.8279 1041.21 25.9297
2.18223 1031.2 47.7298
-13.8547 1016.43 62.3041
-32.838 999.087 67.4469
-51.8175 981.72 62.3442
-67.8666 966.949 47.7588
382.635 -22.3855 1.31945e-05
387.058 -21.764 22.4517
399.656 -20.0048 41.4821
418.539 -17.4746 54.1528
440.776 -14.5241 58.5446
462.96 -11.5923 54.02
481.723 -9.11705 41.3
494.237 -7.4676 22.335
498.627 -6.88918 0.000239176
494.237 -7.46776 -22.3346
481.723 -9.11742 -41.2997
462.96 -11.5927 -54.0199
440.776 -14.5245 -58.5445
418.539 -17.4748 -54.1527
399.656 -20.0049 -41.4821
387.058 -21.764 -22.4517
</DataArray>
</Points>
<Cells>
<DataArray type="Int32" Name="connectivity" format="ascii">
0 1 2 3 
4 5 6 7 
8 9 10 11 
12 13 14 15 
16 17 18 19 
20 21 22 23 
24 25 26 27 
28 29 30 31 
32 33 34 35 
36 37 38 39 
40 41 42 43 
44 45 46 47 
48 49 50 51 
52 53 54 55 
56 57 58 59 
60 61 62 63 
64 65 66 67 
68 69 70 71 
72 73 74 75 
76 77 78 79 
80 81 82 83 
84 85 86 87 
88 89 90 91 
92 93 94 95 
96 97 98 99 
100 101 102 103 
104 105 106 107 
108 109 110 111 
112 113 114 115 
116 117 118 119 
120 121 122 123 
124 125 126 127 
128 129 130 131 
132 133 134 135 
136 137 138 139 
140 141 142 143 
144 145 146 147 
148 149 150 151 
152 153 154 155 
156 157 158 159 
160 161 162 163 
164 165 166 167 
168 169 170 171 
172 173 174 175 
176 177 178 179 
180 181 182 183 
184 185 186 187 
188 189 190 191 
192 193 194 195 
196 197 198 199 
200 201 202 203 
204 205 206 207 
208 209 210 211 
212 213 214 215 
216 217 218 219 
220 221 222 223 
224 225 226 227 
228 229 230 231 
232 233 234 235 
236 237 238 239 
240 241 242 243 
244 245 246 247 
248 249 250 251 
252 253 254 255 
256 257 258 259 
260 261 262 263 
264 265 266 267 
268 269 270 271 
272 273 274 275 
276 277 278 279 
280 281 282 283 
284 285 286 287 
288 289 290 291 
292 293 294 295 
296 297 298 299 
300 301 302 303 
304 305 306 307 
308 309 310 311 
312 313 314 315 
316 317 318 319 
320 321 322 323 
324 325 326 327 
328 329 330 331 
332 333 334 335 
336 337 338 339 
340 341 342 343 
344 345 346 347 
348 349 350 351 
352 353 354 355 
356 357 358 359 
360 361 362 363 
364 365 366 367 
368 369 370 371 
372 373 374 375 
376 377 378 379 
380 381 382 383 
384 385 386 387 
388 389 390 391 
392 393 394 395 
396 397 398 399 
400 401 402 403 
404 405 406 407 
408 409 410 411 
412 413 414 415 
416 417 418 419 
420 421 422 423 
424 425 426 427 
428 429 430 431 
432 433 434 435 
436 437 438 439 
440 441 442 443 
444 445 446 447 
448 449 450 451 
452 453 454 455 
456 457 458 459 
460 461 462 463 
464 465 466 467 
468 469 470 471 
472 473 474 475 
476 477 478 479 
480 481 482 483 
484 485 486 487 
488 489 490 491 
492 493 494 495 
496 497 498 499 
500 501 502 503 
504 505 506 507 
508 509 510 511 
512 513 514 515 
516 517 518 519 
520 521 522 523 
524 525 526 527 
528 529 530 531 
532 533 534 535 
536 537 538 539 
540 541 542 543 
544 545 546 547 
548 549 550 551 
552 553 554 555 
556 557 558 559 
560 561 562 563 
564 565 566 567 
568 569 570 571 
572 573 574 575 
576 577 578 579 
580 581 582 583 
584 585 586 587 
588 589 590 591 
592 593 594 595 
596 597 598 599 
600 601 602 603 
604 605 606 607 
608 609 610 611 
612 613 614 615 
616 617 618 619 
620 621 622 623 
624 625 626 627 
628 629 630 631 
632 633 634 635 
636 637 638 639 
640 641 642 643 
644 645 646 647 
648 649 650 651 
652 653 654 655 
656 657 658 659 
660 661 662 663 
664 665 666 667 
668 669 670 671 
672 673 674 675 
676 677 678 679 
680 681 682 683 
684 685 686 687 
688 689 690 691 
692 693 694 695 
696 697 698 699 
700 701 702 703 
704 705 706 707 
708 709 710 711 
712 713 714 715 
716 717 718 719 
720 721 722 723 
724 725 726 727 
728 729 730 731 
732 733 734 735 
736 737 738 739 
740 741 742 743 
744 745 746 747 
748 749 750 751 
752 753 754 755 
756 757 758 759 
760 761 762 763 
764 765 766 767 
768 769 770 771 
772 773 774 775 
776 777 778 779 
780 781 782 783 
784 785 786 787 
788 789 790 791 
792 793 794 795 
796 797 798 799 
800 801 802 803 
804 805 806 807 
808 809 810 811 
812 813 814 815 
816 817 818 819 
820 821 822 823 
824 825 826 827 
828 829 830 831 
832 833 834 835 
836 837 838 839 
840 841 842 843 
844 845 846 847 
848 849 850 851 
852 853 854 855 
856 857 858 859 
860 861 862 863 
864 865 866 867 
868 869 870 871 
872 873 874 875 
876 877 878 879 
880 881 882 883 
884 885 886 887 
888 889 890 891 
892 893 894 895 
896 897 898 899 
900 901 902 903 
904 905 906 907 
908 909 910 911 
912 913 914 915 
916 917 918 919 
920 921 922 923 
924 925 926 927 
928 929 930 931 
932 933 934 935 
936 937 938 939 
940 941 942 943 
944 945 946 947 
948 949 950 951 
952 953 954 955 
956 957 958 959 
960 961 962 963 
964 965 966 967 
968 969 970 971 
972 973 974 975 
976 977 978 979 
980 981 982 983 
984 985 986 987 
988 989 990 991 
992 993 994 995 
996 997 998 999 
1000 1001 1002 1003 
1004 1005 1006 1007 
1008 1009 1010 1011 
1012 1013 1014 1015 
1016 1017 1018 1019 
1020 1021 1022 1023 
1024 1025 1026 1027 
1028 1029 1030 1031 
1032 1033 1034 1035 
1036 1037 1038 1039 
1040 1041 1042 1043 
1044 1045 1046 1047 
1048 1049 1050 1051 
1052 1053 1054 1055 
1056 1057 1058 1059 
1060 1061 1062 1063 
1064 1065 1066 1067 
1068 1069 1070 1071 
1072 1073 1074 1075 
1076 1077 1078 1079 
1080 1081 1082 1083 
1084 1085 1086 1087 
1088 1089 1090 1091 
1092 1093 1094 1095 
1096 1097 1098 1099 
1100 1101 1102 1103 
1104 1105 1106 1107 
1108 1109 1110 1111 
1112 1113 1114 1115 
1116 1117 1118 1119 
1120 1121 1122 1123 
1124 1125 1126 1127 
1128 1129 1130 1131 
1132 1133 1134 1135 
1136 1137 1138 1139 
1140 1141 1142 1143 
1144 1145 1146 1147 
1148 1149 1150 1151 
1152 1153 1154 1155 
1156 1157 1158 1159 
1160 1161 1162 1163 
1164 1165 1166 1167 
1168 1169 1170 1171 
1172 1173 1174 1175 
1176 1177 1178 1179 
1180 1181 1182 1183 
1184 1185 1186 1187 
1188 1189 1190 1191 
1192 1193 1194 1195 
1196 1197 1198 1199 
1200 1201 1202 1203 
1204 1205 1206 1207 
1208 1209 1210 1211 
1212 1213 1214 1215 
1216 1217 1218 1219 
1220 1221 1222 1223 
1224 1225 1226 1227 
1228 1229 1230 1231 
1232 1233 1234 1235 
1236 1237 1238 1239 
1240 1241 1242 1243 
1244 1245 1246 1247 
1248 1249 1250 1251 
1252 1253 1254 1255 
1256 1257 1258 1259 
1260 1261 1262 1263 
1264 1265 1266 1267 
1268 1269 1270 1271 
1272 1273 1274 1275 
1276 1277 1278 1279 
1280 1281 1282 1283 
1284 1285 1286 1287 
1288 1289 1290 1291 
1292 1293 1294 1295 
1296 1297 1298 1299 
1300 1301 1302 1303 
1304 1305 1306 1307 
1308 1309 1310 1311 
1312 1313 1314 1315 
1316 1317 1318 1319 
1320 1321 1322 1323 
1324 1325 1326 1327 
1328 1329 1330 1331 
1332 1333 1334 1335 
1336 1337 1338 1339 
1340 1341 1342 1343 
1344 1345 1346 1347 
1348 1349 1350 1351 
1352 1353 1354 1355 
1356 1357 1358 1359 
1360 1361 1362 1363 
1364 1365 1366 1367 
1368 1369 1370 1371 
1372 1373 1374 1375 
1376 1377 1378 1379 
1380 1381 1382 1383 
1384 1385 1386 1387 
1388 1389 1390 1391 
1392 1393 1394 1395 
1396 1397 1398 1399 
1400 1401 1402 1403 
1404 1405 1406 1407 
1408 1409 1410 1411 
1412 1413 1414 1415 
1416 1417 1418 1419 
1420 1421 1422 1423 
1424 1425 1426 1427 
1428 1429 1430 1431 
1432 1433 1434 1435 
1436 1437 1438 1439 
1440 1441 1442 1443 
1444 1445 1446 1447 
1448 1449 1450 1451 
1452 1453 1454 1455 
1456 1457 1458 1459 
1460 1461 1462 1463 
1464 1465 1466 1467 
1468 1469 1470 1471 
1472 1473 1474 1475 
1476 1477 1478 1479 
1480 1481 1482 1483 
1484 1485 1486 1487 
1488 1489 1490 1491 
1492 1493 1494 1495 
1496 1497 1498 1499 
1500 1501 1502 1503 
1504 1505 1506 1507 
1508 1509 1510 1511 
1512 1513 1514 1515 
1516 1517 1518 1519 
1520 1521 1522 1523 
1524 1525 1526 1527 
1528 1529 1530 1531 
1532 1533 1534 1535 
1536 1537 1538 1539 
1540 1541 1542 1543 
1544 1545 1546 1547 
1548 1549 1550 1551 
1552 1553 1554 1555 
1556 1557 1558 1559 
1560 1561 1562 1563 
1564 1565 1566 1567 
1568 1569 1570 1571 
1572 1573 1574 1575 
1576 1577 1578 1579 
1580 1581 1582 1583 
1584 1585 1586 1587 
1588 1589 1590 1591 
1592 1593 1594 1595 
1596 1597 1598 1599 
1600 1601 1602 1603 
1604 1605 1606 1607 
1608 1609 1610 1611 
1612 1613 1614 1615 
1616 1617 1618 1619 
1620 1621 1622 1623 
1624 1625 1626 1627 
1628 1629 1630 1631 
1632 1633 1634 1635 
1636 1637 1638 1639 
1640 1641 1642 1643 
1644 1645 1646 1647 
1648 1649 1650 1651 
1652 1653 1654 1655 
1656 1657 1658 1659 
1660 1661 1662 1663 
1664 1665 1666 1667 
1668 1669 1670 1671 
1672 1673 1674 1675 
1676 1677 1678 1679 
1680 1681 1682 1683 
1684 1685 1686 1687 
1688 1689 1690 1691 
1692 1693 1694 1695 
1696 1697 1698 1699 
1700 1701 1702 1703 
1704 1705 1706 1707 
1708 1709 1710 1711 
1712 1713 1714 1715 
1716 1717 1718 1719 
1720 1721 1722 1723 
1724 1725 1726 1727 
1728 1729 1730 1731 
1732 1733 1734 1735 
1736 1737 1738 1739 
1740 1741 1742 1743 
1744 1745 1746 1747 
1748 1749 1750 1751 
1752 1753 1754 1755 
1756 1757 1758 1759 
1760 1761 1762 1763 
1764 1765 1766 1767 
1768 1769 1770 1771 
1772 1773 1774 1775 
1776 1777 1778 1779 
1780 1781 1782 1783 
1784 1785 1786 1787 
1788 1789 1790 1791 
1792 1793 1794 1795 
1796 1797 1798 1799 
1800 1801 1802 1803 
1804 1805 1806 1807 
1808 1809 1810 1811 
1812 1813 1814 1815 
1816 1817 1818 1819 
1820 1821 1822 1823 
1824 1825 1826 1827 
1828 1829 1830 1831 
1832 1833 1834 1835 
1836 1837 1838 1839 
1840 1841 1842 1843 
1844 1845 1846 1847 
1848 1849 1850 1851 
1852 1853 1854 1855 
1856 1857 1858 1859 
1860 1861 1862 1863 
1864 1865 1866 1867 
1868 1869 1870 1871 
1872 1873 1874 1875 
1876 1877 1878 1879 
1880 1881 1882 1883 
1884 1885 1886 1887 
1888 1889 1890 1891 
1892 1893 1894 1895 
1896 1897 1898 1899 
1900 1901 1902 1903 
1904 1905 1906 1907 
1908 1909 1910 1911 
1912 1913 1914 1915 
1916 1917 1918 1919 
1920 1921 1922 1923 
1924 1925 1926 1927 
1928 1929 1930 1931 
1932 1933 1934 1935 
1936 1937 1938 1939 
1940 1941 1942 1943 
1944 1945 1946 1947 
1948 1949 1950 1951 
1952 1953 1954 1955 
1956 1957 1958 1959 
1960 1961 1962 1963 
1964 1965 1966 1967 
1968 1969 1970 1971 
1972 1973 1974 1975 
1976 1977 1978 1979 
1980 1981 1982 1983 
1984 1985 1986 1987 
1988 1989 1990 1991 
1992 1993 1994 1995 
1996 1997 1998 1999 
2000 2001 2002 2003 
2004 2005 2006 2007 
2008 2009 2010 2011 
2012 2013 2014 2015 
2016 2017 2018 2019 
2020 2021 2022 2023 
2024 2025 2026 2027 
2028 2029 2030 2031 
2032 2033 2034 2035 
2036 2037 2038 2039 
2040 2041 2042 2043 
2044 2045 2046 2047 
2048 2049 2050 2051 2052 2053 2054 2055 2056 2057 2058 2059 2060 2061 2062 2063 
2064 2065 2066 2067 2068 2069 2070 2071 2072 2073 2074 2075 2076 2077 2078 2079 
</DataArray>
<DataArray type="Int32" Name="offsets" format="ascii">
4 8 12 16 20 24 28 32 36 40 44 48 52 56 60 64 68 72 76 80 84 88 92 96 100 104 108 112 116 120 124 128 132 136 140 144 148 152 156 160 164 168 172 176 180 184 188 192 196 200 204 208 212 216 220 224 228 232 236 240 244 248 252 256 260 264 268 272 276 280 284 288 292 296 300 304 308 312 316 320 324 328 332 336 340 344 348 352 356 360 364 368 372 376 380 384 388 392 396 400 404 408 412 416 420 424 428 432 436 440 444 448 452 456 460 464 468 472 476 480 484 488 492 496 500 504 508 512 516 520 524 528 532 536 540 544 548 552 556 560 564 568 572 576 580 584 588 592 596 600 604 608 612 616 620 624 628 632 636 640 644 648 652 656 660 664 668 672 676 680 684 688 692 696 700 704 708 712 716 720 724 728 732 736 740 744 748 752 756 760 764 768 772 776 780 784 788 792 796 800 804 808 812 816 820 824 828 832 836 840 844 848 852 856 860 864 868 872 876 880 884 888 892 896 900 904 908 912 916 920 924 928 932 936 940 944 948 952 956 960 964 968 972 976 980 984 988 992 996 1000 1004 1008 1012 1016 1020 1024 1028 1032 1036 1040 1044 1048 1052 1056 1060 1064 1068 1072 1076 1080 1084 1088 1092 1096 1100 1104 1108 1112 1116 1120 1124 1128 1132 1136 1140 1144 1148 1152 1156 1160 1164 1168 1172 1176 1180 1184 1188 1192 1196 1200 1204 1208 1212 1216 1220 1224 1228 1232 1236 1240 1244 1248 1252 1256 1260 1264 1268 1272 1276 1280 1284 1288 1292 1296 1300 1304 1308 1312 1316 1320 1324 1328 1332 1336 1340 1344 1348 1352 1356 1360 1364 1368 1372 1376 1380 1384 1388 1392 1396 1400 1404 1408 1412 1416 1420 1424 1428 1432 1436 1440 1444 1448 1452 1456 1460 1464 1468 1472 1476 1480 1484 1488 1492 1496 1500 1504 1508 1512 1516 1520 1524 1528 1532 1536 1540 1544 1548 1552 1556 1560 1564 1568 1572 1576 1580 1584 1588 1592 1596 1600 1604 1608 1612 1616 1620 1624 1628 1632 1636 1640 1644 1648 1652 1656 1660 1664 1668 1672 1676 1680 1684 1688 1692 1696 1700 1704 1708 1712 1716 1720 1724 1728 1732 1736 1740 1744 1748 1752 1756 1760 1764 1768 1772 1776 1780 1784 1788 1792 1796 1800 1804 1808 1812 1816 1820 1824 1828 1832 1836 1840 1844 1848 1852 1856 1860 1864 1868 1872 1876 1880 1884 1888 1892 1896 1900 1904 1908 1912 1916 1920 1924 1928 1932 1936 1940 1944 1948 1952 1956 1960 1964 1968 1972 1976 1980 1984 1988 1992 1996 2000 2004 2008 2012 2016 2020 2024 2028 2032 2036 2040 2044 2048 2064 2080 
</DataArray>
<DataArray type="UInt8" Name="types" format="ascii">
7 7 7 7 7 7 7 7 7 7 7 7 7 7 7 7 7 7 7 7 7 7 7 7 7 7 7 7 7 7 7 7 7 7 7 7 7 7 7 7 7 7 7 7 7 7 7 7 7 7 7 7 7 7 7 7 7 7 7 7 7 7 7 7 7 7 7 7 7 7 7 7 7 7 7 7 7 7 7 7 7 7 7 7 7 7 7 7 7 7 7 7 7 7 7 7 7 7 7 7 7 7 7 7 7 7 7 7 7 7 7 7 7 7 7 7 7 7 7 7 7 7 7 7 7 7 7 7 7 7 7 7 7 7 7 7 7 7 7 7 7 7 7 7 7 7 7 7 7 7 7 7 7 7 7 7 7 7 7 7 7 7 7 7 7 7 7 7 7 7 7 7 7 7 7 7 7 7 7 7 7 7 7 7 7 7 7 7 7 7 7 7 7 7 7 7 7 7 7 7 7 7 7 7 7 7 7 7 7 7 7 7 7 7 7 7 7 7 7 7 7 7 7 7 7 7 7 7 7 7 7 7 7 7 7 7 7 7 7 7 7 7 7 7 7 7 7 7 7 7 7 7 7 7 7 7 7 7 7 7 7 7 7 7 7 7 7 7 7 7 7 7 7 7 7 7 7 7 7 7 7 7 7 7 7 7 7 7 7 7 7 7 7 7 7 7 7 7 7 7 7 7 7 7 7 7 7 7 7 7 7 7 7 7 7 7 7 7 7 7 7 7 7 7 7 7 7 7 7 7 7 7 7 7 7 7 7 7 7 7 7 7 7 7 7 7 7 7 7 7 7 7 7 7 7 7 7 7 7 7 7 7 7 7 7 7 7 7 7 7 7 7 7 7 7 7 7 7 7 7 7 7 7 7 7 7 7 7 7 7 7 7 7 7 7 7 7 7 7 7 7 7 7 7 7 7 7 7 7 7 7 7 7 7 7 7 7 7 7 7 7 7 7 7 7 7 7 7 7 7 7 7 7 7 7 7 7 7 7 7 7 7 7 7 7 7 7 7 7 7 7 7 7 7 7 7 7 7 7 7 7 7 7 7 7 7 7 7 7 7 7 7 7 7 7 7 7 7 7 7 7 7 7 7 7 7 7 7 7 7 7 7 7 7 7 7 7 7 7 7 7 7 7 7 7 7 7 7 7 7 7 7 7 7 
</DataArray>
</Cells>
<CellData Scalars="cell variable 4" Vectors="cell vector">
<DataArray type="Float64" NumberOfComponents="3" Name="cell vector" format="ascii">
0.157812 0.107984 0.981547
0.485758 0.247708 0.83826
0.746924 0.329487 0.577531
0.877558 0.414757 0.240559
0.761913 0.620939 -0.184182
0.368498 0.728916 -0.576966
-0.144535 -0.551373 0.821643
-0.0207481 -0.221899 0.974849
0.0377217 0.209155 0.977155
0.126581 0.560182 0.818641
0.354034 0.735983 0.577052
0.752336 0.631587 0.187319
0.874112 0.422562 -0.23952
0.731471 0.362936 -0.577259
-0.467733 -0.279876 0.838389
-0.173701 -0.0828843 0.981304
0.148274 0.126485 0.980824
0.426926 0.35492 0.831725
0.639302 0.530706 0.556457
0.747576 0.634431 0.196538
0.726097 0.659405 -0.194855
0.57454 0.600764 -0.555865
-0.356547 -0.428298 0.830322
-0.122079 -0.15405 0.980492
0.124473 0.151237 0.980629
0.35471 0.429603 0.830435
0.572402 0.602504 0.556188
0.724275 0.661263 0.195337
0.745455 0.637048 -0.196128
0.636683 0.534003 -0.556306
-0.425498 -0.35676 0.83167
-0.151066 -0.123512 0.980777
0.148737 0.126804 0.980713
0.425345 0.358425 0.831032
0.636189 0.535926 0.55502
0.746266 0.636476 0.194899
0.730984 0.6539 -0.195134
0.571402 0.605232 -0.554251
-0.355141 -0.43297 0.8285
-0.124207 -0.153169 0.980363
0.125968 0.151061 0.980466
0.354007 0.433692 0.828607
0.570316 0.605936 0.5546
0.729564 0.655374 0.195502
0.744818 0.638262 -0.194597
0.634986 0.537615 -0.554764
-0.424395 -0.359708 0.830963
-0.14977 -0.125519 0.980721
0.150325 0.125484 0.980641
0.429016 0.355157 0.830547
0.642144 0.53 0.553851
0.754723 0.626885 0.193414
0.74217 0.641007 -0.195688
0.569034 0.608103 -0.553545
-0.227409 -0.551966 0.802258
0.23793 -0.505896 0.829131
-0.203615 0.475893 0.855609
0.216472 0.560425 0.799415
0.567962 0.608816 0.553862
0.740994 0.642265 0.196021
0.753707 0.628199 -0.193111
0.641529 0.531087 -0.553523
-0.428167 -0.356346 0.830476
-0.150517 -0.12485 0.980692
0.152338 0.123408 0.980593
0.433783 0.35003 0.830248
0.648374 0.52304 0.553209
0.761091 0.619393 0.192598
0.749335 0.632502 -0.196055
0.598773 0.578611 -0.553787
-0.281805 -0.511305 0.811882
0.0986579 -0.394625 0.91353
-0.0768387 0.37256 0.924822
0.271195 0.520585 0.809596
0.597993 0.579117 0.554101
0.748604 0.633257 0.196415
0.760476 0.620259 -0.192235
0.648083 0.523802 -0.552829
-0.433132 -0.351007 0.830175
-0.152111 -0.123102 0.980667
0.154084 0.121252 0.98059
0.438309 0.344287 0.830272
0.654989 0.514644 0.55329
0.769517 0.608892 0.192599
0.760865 0.618526 -0.19624
0.622259 0.553169 -0.553893
-0.334849 -0.463898 0.820168
-0.0176743 -0.28222 0.959187
0.0234015 0.275687 0.960963
0.323818 0.474835 0.818336
0.621215 0.554028 0.554206
0.760271 0.619129 0.196639
0.769135 0.609508 -0.192177
0.654879 0.515231 -0.552875
-0.437813 -0.345089 0.830201
-0.153675 -0.121087 0.980674
0.155988 0.118658 0.980606
0.443553 0.337134 0.830423
0.662925 0.504077 0.553567
0.779648 0.595818 0.192743
0.773647 0.6024 -0.196427
0.641224 0.530715 -0.554232
-0.376729 -0.421276 0.824986
-0.0764311 -0.219601 0.972591
0.0789177 0.21665 0.973054
0.367329 0.431642 0.823866
0.640024 0.531845 0.554537
0.773093 0.602978 0.196836
0.779378 0.596316 -0.192293
0.662895 0.50459 -0.553135
-0.443173 -0.337805 0.830353
-0.155505 -0.118538 0.980697
0.158096 0.115665 0.980626
0.449491 0.328763 0.830586
0.671958 0.491658 0.553845
0.790917 0.580729 0.192883
0.786762 0.585108 -0.196605
0.657552 0.509927 -0.554616
-0.40781 -0.386124 0.827405
-0.110457 -0.180508 0.977352
0.112599 0.177952 0.977576
0.400856 0.394525 0.82684
0.656386 0.511111 0.554909
0.786238 0.585677 0.197007
0.790699 0.581176 -0.19243
0.671959 0.492146 -0.553411
-0.449189 -0.329336 0.830522
-0.157578 -0.115551 0.980723
0.160363 0.112353 0.980643
0.455919 0.31944 0.83072
0.681696 0.477808 0.554067
0.802834 0.564103 0.192992
0.799887 0.566981 -0.196757
0.672251 0.490022 -0.554938
-0.430721 -0.357765 0.828543
-0.132002 -0.153998 0.979214
0.134228 0.151279 0.979335
0.426018 0.363932 0.828289
0.67123 0.491108 0.555215
0.799408 0.567522 0.197143
0.802644 0.564524 -0.192549
0.681711 0.478282 -0.553639
-0.455667 -0.319942 0.830665
-0.159819 -0.112234 0.980745
0.162721 0.108802 0.980655
0.462631 0.309374 0.830819
0.691829 0.462823 0.554227
0.815055 0.54627 0.193068
0.812901 0.548116 -0.19688
0.685618 0.470855 -0.555178
-0.448198 -0.334288 0.829078
-0.146237 -0.135276 0.979957
0.148478 0.132461 0.980004
0.445265 0.338451 0.828969
0.684779 0.471773 0.555435
0.812481 0.548606 0.197247
0.814888 0.546669 -0.192639
0.691851 0.463287 -0.553811
-0.462409 -0.309822 0.830776
-0.162152 -0.108672 0.980764
0.165116 0.105061 0.980662
0.469439 0.298744 0.83089
0.702092 0.446959 0.554342
0.827338 0.527463 0.193117
0.825704 0.528597 -0.196972
0.697901 0.452237 -0.555353
-0.461914 -0.314407 0.829327
-0.155925 -0.121642 0.98025
0.15807 0.118884 0.980245
0.460234 0.317006 0.829272
0.697228 0.452983 0.555589
0.825348 0.529024 0.197318
0.827197 0.527835 -0.192706
0.702121 0.44741 -0.55394
-0.469236 -0.299146 0.830861
-0.16452 -0.104921 0.980778
0.167504 0.101172 0.980666
0.476206 0.287697 0.830938
0.712273 0.430448 0.554419
0.839493 0.507884 0.193147
0.838198 0.508527 -0.197038
0.709439 0.433753 -0.555477
-0.472844 -0.297395 0.829443
-0.16268 -0.111457 0.980364
0.164654 0.108882 0.980323
0.471967 0.298914 0.829396
0.708907 0.434346 0.555693
0.837902 0.508888 0.197364
0.839377 0.508224 -0.192754
0.712313 0.43088 -0.554034
-0.476017 -0.288056 0.830922
-0.166881 -0.101019 0.980788
0.169848 0.0971688 0.980668
0.482852 0.27631 0.830967
0.722261 0.413406 0.554467
0.851382 0.487686 0.193163
0.850316 0.487975 -0.197087
0.720328 0.415305 -0.555562
-0.481934 -0.282254 0.829501
-0.167589 -0.103516 0.980407
0.169366 0.101191 0.980345
0.48155 0.283072 0.829446
0.719908 0.415771 0.555758
0.850073 0.488274 0.197393
0.85129 0.487993 -0.192789
0.722312 0.413813 -0.554097
-0.482674 -0.276627 0.830965
-0.169199 -0.0970023 0.980797
0.172131 0.0930659 0.980668
0.489324 0.264631 0.830983
0.731974 0.395916 0.554496
0.862913 0.466976 0.19317
0.861997 0.467015 -0.197124
0.730613 0.396852 -0.55562
-0.489787 -0.268293 0.829535
-0.171331 -0.0970205 0.980425
0.17291 0.0949728 0.980348
0.489691 0.268683 0.829465
0.73028 0.397218 0.555796
0.8618 0.467258 0.19741
0.862845 0.467249 -0.192814
0.732037 0.396295 -0.554141
-0.489154 -0.264906 0.830995
-0.171457 -0.0928843 0.980803
0.174337 0.0888795 0.980667
0.495576 0.252709 0.830989
0.741345 0.378058 0.554509
0.874018 0.445845 0.19317
0.8732 0.445706 -0.19715
0.740337 0.378348 -0.555656
-0.496807 -0.254991 0.829555
-0.174358 -0.0913805 0.980433
0.175756 0.089613 0.980347
0.496875 0.255134 0.829471
0.740072 0.378634 0.555814
0.87304 0.445901 0.197417
0.873971 0.446083 -0.192832
0.741422 0.378405 -0.554169
-0.495415 -0.252941 0.831014
-0.173639 -0.0886822 0.980808
0.176454 0.0846242 0.980664
0.501572 0.240591 0.830988
0.750324 0.359906 0.55451
0.884644 0.424374 0.193165
0.883892 0.4241 -0.197167
0.749535 0.359752 -0.555676
-0.503275 -0.241932 0.829568
-0.176976 -0.086149 0.980438
0.17822 0.084638 0.980344
0.503441 0.241922 0.82947
0.749325 0.359972 0.555817
0.883763 0.424252 0.197416
0.884616 0.424577 -0.192844
0.750415 0.360218 -0.554185
-0.501419 -0.24078 0.831026
-0.175734 -0.0844126 0.980812
0.178471 0.0803173 0.980662
0.507282 0.22833 0.830981
0.758869 0.341535 0.554502
0.894748 0.402638 0.193156
0.894051 0.402237 -0.197176
0.758242 0.341007 -0.555682
-0.509384 -0.228769 0.829574
-0.179384 -0.0809809 0.98044
0.180513 0.0796708 0.980341
0.509633 0.228614 0.829463
0.758072 0.341182 0.555808
0.893948 0.402352 0.197408
0.894739 0.402804 -0.192851
0.758974 0.341808 -0.55419
-0.507138 -0.228472 0.83103
-0.17773 -0.0800939 0.980815
0.180379 0.0759794 0.980658
0.512685 0.215978 0.830968
0.766947 0.323018 0.554483
0.904296 0.380716 0.193143
0.903659 0.38016 -0.197176
0.766513 0.321998 -0.555675
-0.515242 -0.215253 0.829573
-0.181722 -0.0755688 0.980442
0.182774 0.0743946 0.980336
0.515589 0.214893 0.829451
0.76637 0.322146 0.555786
0.90358 0.380235 0.197393
0.904304 0.380844 -0.192853
0.767066 0.323251 -0.554183
-0.512549 -0.216074 0.831027
-0.179619 -0.0757462 0.980816
0.182175 0.0716261 0.980654
0.517765 0.203585 0.830947
0.774534 0.304434 0.554452
0.913259 0.358694 0.193124
0.912701 0.357913 -0.197167
0.77439 0.302609 -0.555651
-0.520953 -0.201081 0.829562
-0.184132 -0.0695189 0.98044
0.185135 0.0684171 0.980329
0.521429 0.200396 0.829429
0.774273 0.302726 0.555751
0.912647 0.357941 0.197369
0.913284 0.358779 -0.192848
0.774664 0.304628 -0.554163
-0.517638 -0.203632 0.831014
-0.181399 -0.0713862 0.980815
0.183856 0.0672736 0.980648
0.522513 0.191205 0.830916
0.78161 0.285868 0.554405
0.921613 0.336666 0.193097
0.921161 0.335551 -0.197148
0.781886 0.282766 -0.555606
-0.526653 -0.185757 0.829537
-0.186772 -0.0622591 0.980428
0.187761 0.0611423 0.98031
0.527321 0.184512 0.82939
0.781802 0.282822 0.555695
0.921134 0.335515 0.197337
0.921655 0.336701 -0.192834
0.781751 0.286024 -0.554126
-0.522395 -0.191203 0.83099
-0.183066 -0.0670331 0.980813
0.18542 0.0629437 0.980641
0.526921 0.178907 0.830871
0.788159 0.267426 0.554336
0.929334 0.31475 0.193058
0.929023 0.313147 -0.197117
0.789015 0.262373 -0.555532
-0.53249 -0.168579 0.829479
-0.189835 -0.0529393 0.980388
0.190855 0.0516603 0.980258
0.533449 0.166361 0.829311
0.788977 0.262318 0.555613
0.929028 0.313022 0.197293
0.929394 0.314726 -0.192807
0.78831 0.267545 -0.554064
-0.526814 -0.178854 0.83095
-0.184618 -0.062712 0.980808
0.186867 0.0586664 0.980632
0.530983 0.16678 0.830807
0.794166 0.249246 0.554236
0.936398 0.293103 0.193001
0.936268 0.290802 -0.197069
0.795792 0.241304 -0.555417
-0.538621 -0.148545 0.82935
-0.193563 -0.0402423 0.980262
0.194689 0.0385188 0.980108
0.540011 0.144658 0.829134
0.795814 0.241059 0.555491
0.936311 0.290552 0.197235
0.936477 0.293008 -0.192761
0.794325 0.249329 -0.553969
-0.530888 -0.166675 0.830889
-0.186053 -0.0584563 0.980799
0.188194 0.0544832 0.980619
0.534694 0.154949 0.830718
0.799614 0.231515 0.554092
0.942782 0.271927 0.19292
0.942881 0.268639 -0.197001
0.802227 0.2194 -0.555244
-0.54519 -0.124216 0.829059
-0.19827 -0.0220737 0.979899
0.199637 0.019312 0.97968
0.547186 0.117533 0.828718
0.802326 0.218857 0.555314
0.942964 0.26823 0.197158
0.94288 0.271752 -0.192688
0.799781 0.231566 -0.553829
-0.534613 -0.154784 0.830801
-0.18737 -0.05431 0.980787
0.189402 0.0504494 0.980603
0.538047 0.143586 0.830596
0.804485 0.214494 0.553892
0.948462 0.251489 0.192804
0.948851 0.2468 -0.196907
0.808319 0.196467 -0.554997
-0.552268 -0.0935976 0.828396
-0.204365 0.00500819 0.978882
0.206239 -0.0101679 0.978449
0.555034 0.0823812 0.827739
0.808508 0.1955 0.555063
0.948973 0.246207 0.197059
0.948576 0.251232 -0.192578
0.804659 0.214514 -0.553631
-0.537984 -0.143347 0.830677
-0.188571 -0.05033 0.980769
0.190484 0.0466449 0.980582
0.541025 0.132935 0.830434
0.808755 0.19854 0.553623
0.953416 0.232132 0.192646
0.954182 0.225413 -0.196786
0.814059 0.172219 -0.55466
-0.559712 -0.0541261 0.826918
-0.212368 0.0469565 0.976061
0.215282 -0.057865 0.974836
0.563257 0.0359933 0.825498
0.81433 0.170729 0.554724
0.95433 0.224654 0.196938
0.95354 0.231808 -0.192423
0.808936 0.19853 -0.553362
-0.540987 -0.132589 0.830514
-0.189652 -0.0465981 0.980745
0.191419 0.0431839 0.980558
0.543592 0.123343 0.830238
0.812386 0.184141 0.553282
0.957623 0.214304 0.192439
0.958895 0.204576 -0.196646
0.819439 0.146051 -0.554247
-0.566916 -0.00295831 0.82377
-0.222863 0.114942 0.96805
0.227725 -0.139816 0.963635
0.570795 -0.0244466 0.820729
0.819747 0.144086 0.554306
0.959043 0.203734 0.196798
0.957748 0.213938 -0.192222
0.812573 0.184083 -0.553026
-0.543587 -0.122826 0.830317
-0.190598 -0.0432343 0.980716
0.192161 0.0401924 0.98054
0.545657 0.115219 0.83005
0.815311 0.171888 0.552922
0.961051 0.198596 0.1922
0.962984 0.184515 -0.196511
0.824453 0.116434 -0.553823
-0.572517 0.0625027 0.817507
-0.236177 0.234673 0.942947
0.24273 -0.285526 0.927123
0.575534 -0.0994605 0.811707
0.824716 0.114332 0.55387
0.963107 0.18372 0.196653
0.961173 0.198194 -0.192006
0.815504 0.171727 -0.552687
-0.545699 -0.11443 0.830132
-0.191375 -0.0403853 0.980686
0.192622 0.0376925 0.980549
0.54705 0.108762 0.830004
0.817375 0.162271 0.55278
0.963572 0.186066 0.192115
0.966234 0.166814 -0.19638
0.828998 0.0798037 -0.553529
-0.573883 0.147669 0.805513
-0.247582 0.504181 0.827348
0.248971 -0.564445 0.78703
0.574327 -0.190958 0.796042
0.829185 0.0778524 0.553526
0.966339 0.166096 0.19647
0.963696 0.18556 -0.191985
0.817568 0.161898 -0.552604
-0.547152 -0.107579 0.830091
-0.191926 -0.0381329 0.980668
0.192675 0.0354388 0.980622
0.547382 0.10373 0.83043
0.817931 0.156305 0.553676
0.964315 0.180953 0.193269
0.967508 0.159927 -0.195837
0.832863 0.0202923 -0.553107
-0.556607 0.324713 0.76469
-0.164566 0.946461 0.277721
-0.159934 0.955029 -0.24968
0.547228 -0.392431 0.739284
0.833069 0.0163681 0.552926
0.967741 0.158407 0.195921
0.964492 0.180098 -0.193186
0.818118 0.155504 -0.553626
-0.547569 -0.102028 0.830517
-0.192153 -0.0363909 0.98069
0.192 0.0322709 0.980864
0.546059 0.0947517 0.832371
0.817752 0.142047 0.557767
0.966582 0.162991 0.197869
0.970808 0.140457 -0.194431
0.828415 0.0365777 -0.558919
-0.555226 0.0104945 0.831633
-0.195117 0.00413042 0.980771
0.19507 -0.00186414 0.980788
0.555233 -0.0145061 0.831568
0.828445 0.0341429 0.559028
0.970996 0.13877 0.194706
0.96681 0.161877 -0.197671
0.817995 0.14092 -0.557696
-0.546379 -0.0931094 0.832347
-0.191512 -0.0336386 0.980914
0.192389 0.0298006 0.980866
0.546829 0.0881659 0.832589
0.818934 0.132368 0.558413
0.96833 0.151287 0.198619
0.972341 0.128688 -0.194919
0.826182 0.0580861 -0.560402
-0.550406 -0.00888589 0.83485
-0.192763 -0.000423151 0.981245
0.192976 0.00205959 0.981201
0.550242 0.00488571 0.834991
0.826134 0.05664 0.56062
0.972481 0.127079 0.195272
0.968618 0.149845 -0.198308
0.819246 0.131173 -0.558238
-0.547138 -0.086941 0.832515
-0.191704 -0.0315269 0.980946
0.192044 0.0287204 0.980966
0.544944 0.0881506 0.833826
0.817081 0.132862 0.561005
0.969586 0.14277 0.198795
0.974369 0.0914533 -0.205528
0.817533 0.00738643 -0.575834
-0.539639 0.0198809 0.841662
-0.188302 0.01113 0.982048
0.188769 -0.00722374 0.981995
0.538097 -0.0291303 0.842379
0.817164 0.0040129 0.576392
0.974446 0.0891431 0.206174
0.970035 0.140574 -0.19817
0.817972 0.129817 -0.560418
-0.545786 -0.085895 0.83351
-0.190407 -0.0328506 0.981155
0.0207543 0.0188118 0.999608
0.00257188 0.000343963 0.999997
</DataArray>
<DataArray type="Float64" Name="cell vector length" format="ascii">
0.113525 0.094872 0.0816996 0.0648876 0.0467215 0.0795441 0.135728 0.138985 0.13505 0.129224 0.0825153 0.0467994 0.0634667 0.0792405 0.115407 0.121836 0.390275 0.369229 0.346785 0.325495 0.310378 0.326617 0.387428 0.420029 0.414873 0.373015 0.324965 0.310299 0.32614 0.349339 0.389027 0.397178 0.487995 0.469189 0.445768 0.419226 0.392978 0.403105 0.479649 0.526102 0.523574 0.468092 0.402132 0.39301 0.419994 0.447505 0.484619 0.493011 0.512163 0.492761 0.466572 0.433549 0.390977 0.30901 0.185781 0.0413084 0.0409493 0.177281 0.309606 0.390982 0.434086 0.467678 0.506785 0.516597 0.523493 0.503273 0.473956 0.433832 0.377217 0.290005 0.180042 0.0479126 0.049668 0.170077 0.2903 0.377252 0.434181 0.474623 0.516603 0.527611 0.530276 0.508756 0.475962 0.429386 0.363679 0.272895 0.174887 0.0620454 0.0611221 0.160955 0.272998 0.363724 0.429596 0.476328 0.521747 0.53424 0.534988 0.512241 0.476567 0.425214 0.353809 0.260585 0.171166 0.0732545 0.0695911 0.153725 0.260368 0.353728 0.425275 0.476725 0.525088 0.538887 0.538207 0.514494 0.476717 0.422061 0.346933 0.252044 0.168995 0.0812586 0.0757427 0.148981 0.251536 0.346668 0.421961 0.476723 0.527316 0.542092 0.540373 0.51593 0.476656 0.419754 0.342169 0.246195 0.167723 0.0867537 0.0800389 0.145982 0.245473 0.341719 0.419499 0.476539 0.52879 0.544272 0.541808 0.516817 0.476482 0.418054 0.338871 0.242631 0.167262 0.0902586 0.0827838 0.144373 0.241766 0.338258 0.41766 0.476261 0.529753 0.545735 0.542714 0.517304 0.476254 0.416814 0.336584 0.239933 0.166769 0.0925239 0.0845602 0.14309 0.238981 0.335842 0.416301 0.475945 0.530339 0.546679 0.543276 0.517545 0.475999 0.415882 0.33496 0.238044 0.166418 0.0939133 0.0856228 0.14217 0.237038 0.334121 0.415272 0.475616 0.530691 0.547285 0.543621 0.517634 0.475731 0.415158 0.333781 0.236696 0.166114 0.0946337 0.0861094 0.141424 0.235653 0.332868 0.414471 0.47529 0.530898 0.547677 0.543818 0.517625 0.475469 0.414588 0.332907 0.235701 0.165831 0.0949143 0.0862085 0.140769 0.23463 0.331939 0.413842 0.474981 0.531012 0.547923 0.543915 0.517554 0.475222 0.414136 0.332244 0.234934 0.16555 0.0949049 0.0860463 0.140158 0.233838 0.331233 0.413345 0.474699 0.531066 0.54807 0.543942 0.517445 0.474995 0.413777 0.331731 0.234318 0.165256 0.0946876 0.0856967 0.139568 0.233205 0.330688 0.412954 0.474447 0.531083 0.548147 0.54391 0.517307 0.474791 0.413502 0.331337 0.233791 0.164901 0.0942861 0.0851837 0.138962 0.232676 0.330271 0.412657 0.474228 0.531071 0.548165 0.543821 0.517141 0.474611 0.413314 0.331064 0.233299 0.164436 0.0936953 0.084462 0.138219 0.232164 0.329977 0.412456 0.474043 0.531029 0.548125 0.543658 0.516934 0.474451 0.413223 0.330946 0.232954 0.163965 0.0929134 0.0835175 0.137432 0.231772 0.329838 0.412362 0.47389 0.530946 0.548012 0.543385 0.51666 0.474305 0.413261 0.331061 0.232852 0.163513 0.0918454 0.0822522 0.136632 0.231604 0.329931 0.412409 0.473764 0.530801 0.547792 0.542946 0.516274 0.474164 0.413475 0.331526 0.233138 0.163108 0.0903358 0.0804964 0.135845 0.231803 0.330379 0.412648 0.473661 0.53055 0.547407 0.542253 0.51571 0.474011 0.413934 0.332516 0.234031 0.162804 0.0881423 0.0779846 0.135122 0.23259 0.331362 0.413154 0.473569 0.530136 0.546774 0.541184 0.514873 0.473823 0.414736 0.334276 0.235855 0.162698 0.0849163 0.0743387 0.134581 0.234296 0.333135 0.414033 0.47347 0.529469 0.545774 0.53956 0.513627 0.473567 0.416018 0.337146 0.239074 0.162967 0.0801962 0.0690777 0.134484 0.237404 0.336056 0.415427 0.473335 0.528423 0.544233 0.537124 0.511773 0.473193 0.417971 0.341586 0.244311 0.163907 0.0734434 0.0617327 0.13536 0.242584 0.340603 0.417527 0.473112 0.52681 0.5419 0.533469 0.508976 0.472562 0.420784 0.348161 0.252288 0.16589 0.0641419 0.0522911 0.138054 0.250623 0.347345 0.420503 0.472656 0.524317 0.538381 0.527746 0.504401 0.470966 0.424097 0.357128 0.26333 0.168768 0.0518222 0.0423702 0.142997 0.261863 0.356502 0.423964 0.471259 0.520161 0.532856 0.516741 0.494397 0.464227 0.423628 0.365397 0.273953 0.168305 0.0380551 0.0347802 0.14744 0.272592 0.364865 0.423589 0.464758 0.510859 0.522177 0.481136 0.458152 0.429196 0.393435 0.346759 0.250357 0.13175 0.0687054 0.0700237 0.118535 0.250217 0.346359 0.393425 0.429928 0.476242 0.487227 0.458797 0.436206 0.408794 0.377232 0.345478 0.356771 0.446447 0.495091 0.490305 0.4286 0.35593 0.345353 0.377311 0.409657 0.455361 0.465242 0.419916 0.396274 0.367728 0.336688 0.31341 0.325354 0.398417 0.434907 0.427965 0.377569 0.324706 0.313572 0.336753 0.368508 0.41647 0.426744 0.19461 0.176951 0.155211 0.129718 0.116818 0.138796 0.214141 0.25264 0.2476 0.197855 0.141193 0.117834 0.129243 0.153349 0.19561 0.200406 0.0266745 0.0152124 
</DataArray>
<DataArray type="Float64" Name="cell variable 4" format="ascii">
821.509 810.695 804.265 799.096 794.081 810.094 833.69 825.137 821.814 826.204 811.552 794.126 798.302 801.573 823.541 825.564 1136.81 1116.14 1102.82 1095.45 1093.09 1107.33 1146.9 1148.19 1142.09 1127.64 1107.76 1093.16 1095.07 1102.72 1143.99 1145.84 1343.13 1319.64 1303.95 1294.11 1289.65 1300.14 1352.15 1353.89 1349.89 1328.44 1300.4 1289.75 1294.15 1304.23 1353.04 1353.71 1394.85 1367.37 1345.19 1327.25 1313.17 1308.45 1353.72 1342.17 1342.46 1335.38 1308.28 1312.98 1327.25 1345.52 1402.06 1405.85 1406.78 1379.07 1356.97 1340 1327.11 1318.49 1349.93 1327.94 1330.42 1331.07 1318.28 1326.96 1340.04 1357.26 1414.1 1417.87 1410.45 1381.8 1358.42 1340.48 1326.78 1317.4 1347.05 1327.23 1326.1 1323.88 1317.55 1326.82 1340.61 1358.67 1416.98 1421.58 1412.93 1383.04 1357.98 1338.9 1324.79 1315.47 1345.59 1327.97 1323.24 1318.32 1315.74 1324.95 1339.08 1358.22 1418.42 1424.13 1414.76 1383.8 1357.33 1337.32 1322.98 1313.75 1345.02 1328.49 1321.22 1314.6 1314.04 1323.2 1337.55 1357.57 1419.47 1426.07 1416.17 1384.32 1356.68 1335.97 1321.5 1312.3 1344.83 1329.04 1320.03 1312.17 1312.6 1321.76 1336.22 1356.94 1420.32 1427.62 1417.24 1384.68 1356.14 1334.9 1320.33 1311.13 1344.77 1329.47 1319.31 1310.54 1311.42 1320.6 1335.17 1356.4 1421.03 1428.84 1417.97 1384.83 1355.71 1334.1 1319.41 1310.16 1344.72 1329.81 1318.88 1309.36 1310.45 1319.69 1334.38 1355.98 1421.53 1429.72 1418.47 1384.86 1355.38 1333.52 1318.72 1309.38 1344.67 1330.05 1318.59 1308.48 1309.68 1319.02 1333.81 1355.65 1421.91 1430.37 1418.83 1384.82 1355.06 1333.03 1318.15 1308.72 1344.62 1330.18 1318.36 1307.79 1309.03 1318.45 1333.32 1355.33 1422.2 1430.88 1419.06 1384.71 1354.75 1332.62 1317.67 1308.15 1344.56 1330.24 1318.15 1307.22 1308.47 1317.98 1332.91 1355.02 1422.42 1431.26 1419.16 1384.53 1354.45 1332.27 1317.27 1307.66 1344.5 1330.25 1317.94 1306.73 1307.98 1317.58 1332.56 1354.72 1422.55 1431.5 1419.13 1384.29 1354.17 1332 1316.95 1307.24 1344.45 1330.23 1317.74 1306.28 1307.56 1317.26 1332.29 1354.43 1422.61 1431.61 1418.97 1383.99 1353.91 1331.79 1316.7 1306.87 1344.4 1330.19 1317.53 1305.87 1307.21 1317.02 1332.08 1354.17 1422.57 1431.57 1418.68 1383.61 1353.65 1331.65 1316.52 1306.57 1344.36 1330.13 1317.3 1305.48 1306.91 1316.84 1331.94 1353.91 1422.44 1431.4 1418.27 1383.17 1353.38 1331.55 1316.4 1306.32 1344.31 1330.04 1317.04 1305.09 1306.65 1316.72 1331.85 1353.64 1422.23 1431.09 1417.73 1382.65 1353.1 1331.49 1316.34 1306.11 1344.26 1329.89 1316.69 1304.7 1306.45 1316.66 1331.79 1353.37 1421.91 1430.65 1417.04 1382.05 1352.82 1331.48 1316.34 1305.97 1344.2 1329.66 1316.22 1304.28 1306.3 1316.67 1331.79 1353.09 1421.5 1430.05 1416.18 1381.34 1352.53 1331.54 1316.44 1305.91 1344.13 1329.32 1315.58 1303.85 1306.22 1316.77 1331.85 1352.81 1420.97 1429.27 1415.12 1380.53 1352.26 1331.72 1316.68 1305.96 1344.08 1328.84 1314.72 1303.45 1306.26 1317.01 1332.04 1352.54 1420.32 1428.27 1413.78 1379.58 1352.04 1332.06 1317.1 1306.13 1344.08 1328.23 1313.66 1303.26 1306.44 1317.44 1332.38 1352.32 1419.52 1427 1412.09 1378.47 1351.89 1332.64 1317.74 1306.41 1344.26 1327.57 1312.59 1303.64 1306.75 1318.09 1332.95 1352.16 1418.52 1425.36 1409.78 1376.99 1351.68 1333.32 1318.46 1306.56 1344.69 1327.05 1312.3 1305.14 1306.98 1318.82 1333.61 1351.93 1417.12 1423.09 1405.6 1373.81 1349.92 1332.52 1317.75 1305.12 1344.65 1326.47 1314.91 1307.54 1305.59 1318.07 1332.77 1350.14 1413.95 1418.92 1391.45 1360.07 1336.63 1319.67 1305.58 1293.29 1337.72 1324.4 1319.58 1306.04 1293.35 1305.72 1319.88 1336.88 1399.9 1404.69 1315.34 1284.25 1259.52 1240.19 1223.94 1215.71 1281.46 1337.01 1335.68 1256.97 1215.78 1223.85 1240.22 1259.61 1321.61 1327.79 1249.15 1222.31 1203.95 1192.65 1186.26 1194.21 1257.52 1266.81 1258.62 1226.22 1194.57 1186.18 1192.53 1203.85 1257.56 1260.94 1117.77 1092.12 1072.63 1058.69 1050.42 1055.91 1107.41 1113.34 1103.17 1077.24 1056.16 1050.46 1058.53 1072.62 1123.35 1128.37 793.239 785.077 785.059 790.773 798.853 811.838 850.691 856.957 850.654 831.553 813.097 799.088 790.581 783.464 803.816 798.909 607.02 745.326 
</DataArray>
<DataArray type="Float64" Name="cell variable 5" format="ascii">
0.0109239 0.0109239 0.0109239 0.0109239 0.0109239 0.0109239 0.0109239 0.0109239 0.0109239 0.0109239 0.0109239 0.0109239 0.0109239 0.0109239 0.0109239 0.0109239 0.0109239 0.0109239 0.0109239 0.0109239 0.0109239 0.0109239 0.0109239 0.0109239 0.0109239 0.0109239 0.0109239 0.0109239 0.0109239 0.0109239 0.0109239 0.0109239 0.0109239 0.0109239 0.0109239 0.0109239 0.0109239 0.0109239 0.0109239 0.0109239 0.0109239 0.0109239 0.0109239 0.0109239 0.0109239 0.0109239 0.0109239 0.0109239 0.0165097 0.0152838 0.0133053 0.0114191 0.0109239 0.0109239 0.0109239 0.0109239 0.0109239 0.0109239 0.0109239 0.0109239 0.0114191 0.0133053 0.0152838 0.0165097 0.0186799 0.0169782 0.0142302 0.0116109 0.0109239 0.0109239 0.0109239 0.0109239 0.0109239 0.0109239 0.0109239 0.0109239 0.0116109 0.0142302 0.0169782 0.0186799 0.0199373 0.0179613 0.0147667 0.0117226 0.0109239 0.0109239 0.0109239 0.0109239 0.0109239 0.0109239 0.0109239 0.0109239 0.0117226 0.0147667 0.0179613 0.0199373 0.0208525 0.0186726 0.0151575 0.0118051 0.0109239 0.0109239 0.0109239 0.0109239 0.0109239 0.0109239 0.0109239 0.0109239 0.0118051 0.0151575 0.0186726 0.0208525 0.0215662 0.0192309 0.015461 0.0118682 0.0109239 0.0109239 0.0109239 0.0109239 0.0109239 0.0109239 0.0109239 0.0109239 0.0118682 0.015461 0.0192309 0.0215662 0.0221415 0.01968 0.0157061 0.0119192 0.0109239 0.0109239 0.0109239 0.0109239 0.0109239 0.0109239 0.0109239 0.0109239 0.0119192 0.0157061 0.01968 0.0221415 0.0226125 0.0200466 0.0159076 0.0119605 0.0109239 0.0109239 0.0109239 0.0109239 0.0109239 0.0109239 0.0109239 0.0109239 0.0119605 0.0159076 0.0200466 0.0226125 0.0229936 0.0203452 0.0160703 0.0119944 0.0109239 0.0109239 0.0109239 0.0109239 0.0109239 0.0109239 0.0109239 0.0109239 0.0119944 0.0160703 0.0203452 0.0229936 0.0232995 0.0205855 0.0162014 0.0120211 0.0109239 0.0109239 0.0109239 0.0109239 0.0109239 0.0109239 0.0109239 0.0109239 0.0120211 0.0162014 0.0205855 0.0232995 0.0235374 0.02077 0.0163009 0.012043 0.0109239 0.0109239 0.0109239 0.0109239 0.0109239 0.0109239 0.0109239 0.0109239 0.012043 0.0163009 0.02077 0.0235374 0.0237121 0.0209059 0.0163761 0.0120576 0.0109239 0.0109239 0.0109239 0.0109239 0.0109239 0.0109239 0.0109239 0.0109239 0.0120576 0.0163761 0.0209059 0.0237121 0.0238287 0.0209957 0.0164247 0.0120697 0.0109239 0.0109239 0.0109239 0.0109239 0.0109239 0.0109239 0.0109239 0.0109239 0.0120697 0.0164247 0.0209957 0.0238287 0.0238845 0.0210419 0.016449 0.0120746 0.0109239 0.0109239 0.0109239 0.0109239 0.0109239 0.0109239 0.0109239 0.0109239 0.0120746 0.016449 0.0210419 0.0238845 0.0238845 0.0210419 0.016449 0.0120746 0.0109239 0.0109239 0.0109239 0.0109239 0.0109239 0.0109239 0.0109239 0.0109239 0.0120746 0.016449 0.0210419 0.0238845 0.0238287 0.0209957 0.0164247 0.0120697 0.0109239 0.0109239 0.0109239 0.0109239 0.0109239 0.0109239 0.0109239 0.0109239 0.0120697 0.0164247 0.0209957 0.0238287 0.0237121 0.0209059 0.0163761 0.0120576 0.0109239 0.0109239 0.0109239 0.0109239 0.0109239 0.0109239 0.0109239 0.0109239 0.0120576 0.0163761 0.0209059 0.0237121 0.0235374 0.02077 0.0163009 0.012043 0.0109239 0.0109239 0.0109239 0.0109239 0.0109239 0.0109239 0.0109239 0.0109239 0.012043 0.0163009 0.02077 0.0235374 0.0232995 0.0205855 0.0162014 0.0120211 0.0109239 0.0109239 0.0109239 0.0109239 0.0109239 0.0109239 0.0109239 0.0109239 0.0120211 0.0162014 0.0205855 0.0232995 0.0229936 0.0203452 0.0160703 0.0119944 0.0109239 0.0109239 0.0109239 0.0109239 0.0109239 0.0109239 0.0109239 0.0109239 0.0119944 0.0160703 0.0203452 0.0229936 0.0226125 0.0200466 0.0159076 0.0119605 0.0109239 0.0109239 0.0109239 0.0109239 0.0109239 0.0109239 0.0109239 0.0109239 0.0119605 0.0159076 0.0200466 0.0226125 0.0221415 0.01968 0.0157061 0.0119192 0.0109239 0.0109239 0.0109239 0.0109239 0.0109239 0.0109239 0.0109239 0.0109239 0.0119192 0.0157061 0.01968 0.0221415 0.0215662 0.0192309 0.015461 0.0118682 0.0109239 0.0109239 0.0109239 0.0109239 0.0109239 0.0109239 0.0109239 0.0109239 0.0118682 0.015461 0.0192309 0.0215662 0.0208525 0.0186726 0.0151575 0.0118051 0.0109239 0.0109239 0.0109239 0.0109239 0.0109239 0.0109239 0.0109239 0.0109239 0.0118051 0.0151575 0.0186726 0.0208525 0.0199373 0.0179613 0.0147667 0.0117226 0.0109239 0.0109239 0.0109239 0.0109239 0.0109239 0.0109239 0.0109239 0.0109239 0.0117226 0.0147667 0.0179613 0.0199373 0.0186799 0.0169782 0.0142302 0.0116109 0.0109239 0.0109239 0.0109239 0.0109239 0.0109239 0.0109239 0.0109239 0.0109239 0.0116109 0.0142302 0.0169782 0.0186799 0.0165097 0.0152838 0.0133053 0.0114191 0.0109239 0.0109239 0.0109239 0.0109239 0.0109239 0.0109239 0.0109239 0.0109239 0.0114191 0.0133053 0.0152838 0.0165097 0.0109239 0.0109239 0.0109239 0.0109239 0.0109239 0.0109239 0.0109239 0.0109239 0.0109239 0.0109239 0.0109239 0.0109239 0.0109239 0.0109239 0.0109239 0.0109239 0.0109239 0.0109239 0.0109239 0.0109239 0.0109239 0.0109239 0.0109239 0.0109239 0.0109239 0.0109239 0.0109239 0.0109239 0.0109239 0.0109239 0.0109239 0.0109239 0.0109239 0.0109239 0.0109239 0.0109239 0.0109239 0.0109239 0.0109239 0.0109239 0.0109239 0.0109239 0.0109239 0.0109239 0.0109239 0.0109239 0.0109239 0.0109239 0.0109239 0.0109239 
</DataArray>
<DataArray type="Float64" Name="cell variable 6" format="ascii">
1 1 1 1 1 1 1 1 1 1 1 1 1 1 1 1 1 1 1 1 1 1 1 1 1 1 1 1 1 1 1 1 1 1 1 1 1 1 1 1 1 1 1 1 1 1 1 1 1 1 1 1 1 1 1 1 1 1 1 1 1 1 1 1 1 1 1 1 1 1 1 1 1 1 1 1 1 1 1 1 1 1 1 1 1 1 1 1 1 1 1 1 1 1 1 1 1 1 1 1 1 1 1 1 1 1 1 1 1 1 1 1 1 1 1 1 1 1 1 1 1 1 1 1 1 1 1 1 1 1 1 1 1 1 1 1 1 1 1 1 1 1 1 1 1 1 1 1 1 1 1 1 1 1 1 1 1 1 1 1 1 1 1 1 1 1 1 1 1 1 1 1 1 1 1 1 1 1 1 1 1 1 1 1 1 1 1 1 1 1 1 1 1 1 1 1 1 1 1 1 1 1 1 1 1 1 1 1 1 1 1 1 1 1 1 1 1 1 1 1 1 1 1 1 1 1 1 1 1 1 1 1 1 1 1 1 1 1 1 1 1 1 1 1 1 1 1 1 1 1 1 1 1 1 1 1 1 1 1 1 1 1 1 1 1 1 1 1 1 1 1 1 1 1 1 1 1 1 1 1 1 1 1 1 1 1 1 1 1 1 1 1 1 1 1 1 1 1 1 1 1 1 1 1 1 1 1 1 1 1 1 1 1 1 1 1 1 1 1 1 1 1 1 1 1 1 1 1 1 1 1 1 1 1 1 1 1 1 1 1 1 1 1 1 1 1 1 1 1 1 1 1 1 1 1 1 1 1 1 1 1 1 1 1 1 1 1 1 1 1 1 1 1 1 1 1 1 1 1 1 1 1 1 1 1 1 1 1 1 1 1 1 1 1 1 1 1 1 1 1 1 1 1 1 1 1 1 1 1 1 1 1 1 1 1 1 1 1 1 1 1 1 1 1 1 1 1 1 1 1 1 1 1 1 1 1 1 1 1 1 1 1 1 1 1 1 1 1 1 1 1 1 1 1 1 1 1 1 1 1 1 1 1 1 1 1 1 1 1 1 1 1 1 1 1 1 1 1 1 1 1 1 1 1 1 1 1 1 1 1 1 1 1 1 1 1 1 1 1 1 1 1 1 1 1 1 1 1 1 1 1 1 1 1 
</DataArray>
<DataArray type="Float64" Name="cell variable 7" format="ascii">
0 0 0 0 0 0 0 0 0 0 0 0 0 0 0 0 0 0 0 0 0 0 0 0 0 0 0 0 0 0 0 0 0 0 0 0 0 0 0 0 0 0 0 0 0 0 0 0 0 0 0 0 0 0 0 0 0 0 0 0 0 0 0 0 0 0 0 0 0 0 0 0 0 0 0 0 0 0 0 0 0 0 0 0 0 0 0 0 0 0 0 0 0 0 0 0 0 0 0 0 0 0 0 0 0 0 0 0 0 0 0 0 0 0 0 0 0 0 0 0 0 0 0 0 0 0 0 0 0 0 0 0 0 0 0 0 0 0 0 0 0 0 0 0 0 0 0 0 0 0 0 0 0 0 0 0 0 0 0 0 0 0 0 0 0 0 0 0 0 0 0 0 0 0 0 0 0 0 0 0 0 0 0 0 0 0 0 0 0 0 0 0 0 0 0 0 0 0 0 0 0 0 0 0 0 0 0 0 0 0 0 0 0 0 0 0 0 0 0 0 0 0 0 0 0 0 0 0 0 0 0 0 0 0 0 0 0 0 0 0 0 0 0 0 0 0 0 0 0 0 0 0 0 0 0 0 0 0 0 0 0 0 0 0 0 0 0 0 0 0 0 0 0 0 0 0 0 0 0 0 0 0 0 0 0 0 0 0 0 0 0 0 0 0 0 0 0 0 0 0 0 0 0 0 0 0 0 0 0 0 0 0 0 0 0 0 0 0 0 0 0 0 0 0 0 0 0 0 0 0 0 0 0 0 0 0 0 0 0 0 0 0 0 0 0 0 0 0 0 0 0 0 0 0 0 0 0 0 0 0 0 0 0 0 0 0 0 0 0 0 0 0 0 0 0 0 0 0 0 0 0 0 0 0 0 0 0 0 0 0 0 0 0 0 0 0 0 0 0 0 0 0 0 0 0 0 0 0 0 0 0 0 0 0 0 0 0 0 0 0 0 0 0 0 0 0 0 0 0 0 0 0 0 0 0 0 0 0 0 0 0 0 0 0 0 0 0 0 0 0 0 0 0 0 0 0 0 0 0 0 0 0 0 0 0 0 0 0 0 0 0 0 0 0 0 0 0 0 0 0 0 0 0 0 0 0 0 0 0 0 0 0 0 0 0 0 0 0 0 0 0 0 0 0 0 0 0 0 0 0 0 0 1 1 
</DataArray>
<DataArray type="Float64" Name="cell variable 8" format="ascii">
11.25 33.75 56.25 78.75 101.25 123.75 146.25 168.75 191.25 213.75 236.25 258.75 281.25 303.75 326.25 348.75 11.25 33.75 56.25 78.75 101.25 123.75 146.25 168.75 191.25 213.75 236.25 258.75 281.25 303.75 326.25 348.75 11.25 33.75 56.25 78.75 101.25 123.75 146.25 168.75 191.25 213.75 236.25 258.75 281.25 303.75 326.25 348.75 11.25 33.75 56.25 78.75 101.25 123.75 146.25 168.75 191.25 213.75 236.25 258.75 281.25 303.75 326.25 348.75 11.25 33.75 56.25 78.75 101.25 123.75 146.25 168.75 191.25 213.75 236.25 258.75 281.25 303.75 326.25 348.75 11.25 33.75 56.25 78.75 101.25 123.75 146.25 168.75 191.25 213.75 236.25 258.75 281.25 303.75 326.25 348.75 11.25 33.75 56.25 78.75 101.25 123.75 146.25 168.75 191.25 213.75 236.25 258.75 281.25 303.75 326.25 348.75 11.25 33.75 56.25 78.75 101.25 123.75 146.25 168.75 191.25 213.75 236.25 258.75 281.25 303.75 326.25 348.75 11.25 33.75 56.25 78.75 101.25 123.75 146.25 168.75 191.25 213.75 236.25 258.75 281.25 303.75 326.25 348.75 11.25 33.75 56.25 78.75 101.25 123.75 146.25 168.75 191.25 213.75 236.25 258.75 281.25 303.75 326.25 348.75 11.25 33.75 56.25 78.75 101.25 123.75 146.25 168.75 191.25 213.75 236.25 258.75 281.25 303.75 326.25 348.75 11.25 33.75 56.25 78.75 101.25 123.75 146.25 168.75 191.25 213.75 236.25 258.75 281.25 303.75 326.25 348.75 11.25 33.75 56.25 78.75 101.25 123.75 146.25 168.75 191.25 213.75 236.25 258.75 281.25 303.75 326.25 348.75 11.25 33.75 56.25 78.75 101.25 123.75 146.25 168.75 191.25 213.75 236.25 258.75 281.25 303.75 326.25 348.75 11.25 33.75 56.25 78.75 101.25 123.75 146.25 168.75 191.25 213.75 236.25 258.75 281.25 303.75 326.25 348.75 11.25 33.75 56.25 78.75 101.25 123.75 146.25 168.75 191.25 213.75 236.25 258.75 281.25 303.75 326.25 348.75 11.25 33.75 56.25 78.75 101.25 123.75 146.25 168.75 191.25 213.75 236.25 258.75 281.25 303.75 326.25 348.75 11.25 33.75 56.25 78.75 101.25 123.75 146.25 168.75 191.25 213.75 236.25 258.75 281.25 303.75 326.25 348.75 11.25 33.75 56.25 78.75 101.25 123.75 146.25 168.75 191.25 213.75 236.25 258.75 281.25 303.75 326.25 348.75 11.25 33.75 56.25 78.75 101.25 123.75 146.25 168.75 191.25 213.75 236.25 258.75 281.25 303.75 326.25 348.75 11.25 33.75 56.25 78.75 101.25 123.75 146.25 168.75 191.25 213.75 236.25 258.75 281.25 303.75 326.25 348.75 11.25 33.75 56.25 78.75 101.25 123.75 146.25 168.75 191.25 213.75 236.25 258.75 281.25 303.75 326.25 348.75 11.25 33.75 56.25 78.75 101.25 123.75 146.25 168.75 191.25 213.75 236.25 258.75 281.25 303.75 326.25 348.75 11.25 33.75 56.25 78.75 101.25 123.75 146.25 168.75 191.25 213.75 236.25 258.75 281.25 303.75 326.25 348.75 11.25 33.75 56.25 78.75 101.25 123.75 146.25 168.75 191.25 213.75 236.25 258.75 281.25 303.75 326.25 348.75 11.25 33.75 56.25 78.75 101.25 123.75 146.25 168.75 191.25 213.75 236.25 258.75 281.25 303.75 326.25 348.75 11.25 33.75 56.25 78.75 101.25 123.75 146.25 168.75 191.25 213.75 236.25 258.75 281.25 303.75 326.25 348.75 11.25 33.75 56.25 78.75 101.25 123.75 146.25 168.75 191.25 213.75 236.25 258.75 281.25 303.75 326.25 348.75 11.25 33.75 56.25 78.75 101.25 123.75 146.25 168.75 191.25 213.75 236.25 258.75 281.25 303.75 326.25 348.75 11.25 33.75 56.25 78.75 101.25 123.75 146.25 168.75 191.25 213.75 236.25 258.75 281.25 303.75 326.25 348.75 11.25 33.75 56.25 78.75 101.25 123.75 146.25 168.75 191.25 213.75 236.25 258.75 281.25 303.75 326.25 348.75 11.25 33.75 56.25 78.75 101.25 123.75 146.25 168.75 191.25 213.75 236.25 258.75 281.25 303.75 326.25 348.75 0 0 
</DataArray>
</CellData>
</Piece>
</UnstructuredGrid>
</VTKFile>
