<VTKFile type="UnstructuredGrid" version="0.1">
<UnstructuredGrid>
<Piece  NumberOfPoints="    2080" NumberOfCells="     514">
<Points>
<DataArray type="Float64" NumberOfComponents="3" format="ascii">
-74.9946 971.99 1.63847
-71.1497 975.343 27.3971
-57.0563 950.989 29.5225
-61.2534 947.367 1.6541
-70.286 976.087 30.1504
-59.2357 985.577 51.9915
-44.2085 962.007 55.8642
-56.1925 951.733 32.2758
-57.6334 986.945 54.0969
-41.0109 1001.08 68.6729
-24.6247 978.662 73.703
-42.6063 963.375 57.9696
-38.9122 1002.86 69.8103
-19.2821 1019.48 74.9048
-1.27972 998.397 80.3482
-22.526 980.441 74.8404
-17.0113 1021.41 74.9026
2.59433 1038.04 69.7611
22.2018 1018.31 74.8111
0.99106 1000.32 80.346
4.68642 1039.82 68.6228
21.231 1054.03 54.0582
42.1985 1035.52 57.9534
24.2939 1020.09 73.6728
22.8233 1055.42 51.9553
33.8032 1065.08 30.1608
55.6413 1047.43 32.2548
43.7908 1036.9 55.8505
34.6592 1065.84 27.4077
38.4932 1069.3 1.65028
60.6217 1051.94 1.63048
56.4973 1048.19 29.5017
38.4922 1069.3 -1.33243
34.6407 1065.88 -27.094
56.4817 1048.23 -29.2197
60.6207 1051.95 -1.35223
33.7834 1065.13 -29.8469
22.7962 1055.48 -51.6482
43.7759 1036.97 -55.5543
55.6244 1047.47 -31.9725
21.2044 1054.1 -53.751
4.66724 1039.88 -68.3173
24.285 1020.16 -73.3802
42.1841 1035.59 -57.6571
2.57599 1038.09 -69.4562
-17.0211 1021.45 -74.601
0.993091 1000.38 -80.0625
22.1937 1018.38 -74.5191
-19.2907 1019.53 -74.6038
-38.9105 1002.89 -69.5133
-22.5083 980.482 -74.5647
-1.27653 998.455 -80.0654
-41.0066 1001.1 -68.3762
-57.5902 986.934 -53.7937
-42.5692 963.398 -57.6912
-24.6044 978.701 -73.4276
-59.1908 985.564 -51.6872
-70.2301 976.061 -29.8507
-56.1674 951.734 -31.962
-44.1699 962.028 -55.5847
-71.0962 975.317 -27.0957
-74.9926 971.989 -1.34324
-61.2514 947.366 -1.32761
-57.0336 950.99 -29.2069
-59.4004 944.628 1.72892
-55.2032 948.25 29.5973
-35.5442 923.123 30.1984
-39.8454 919.429 1.72294
-42.3096 959.304 56.0759
-22.377 934.368 57.1919
-34.6346 923.903 33.0887
-54.2936 949.03 32.4875
-22.644 976.025 74.0182
-2.30351 951.361 75.4913
-20.693 935.802 59.4009
-40.6256 960.737 58.2849
0.806729 995.844 80.7199
21.635 971.501 82.337
-0.0990218 953.225 76.6851
-20.4395 977.888 75.212
24.4031 1015.85 75.1842
45.7146 991.838 76.6936
24.0206 973.516 82.3362
3.19238 997.859 80.719
44.5017 1033.15 58.2722
66.126 1009.51 59.4396
47.9086 993.713 75.501
26.5971 1017.72 73.9916
58.0156 1045.13 32.4693
79.706 1021.87 33.0804
67.7894 1010.97 57.2324
46.1651 1034.61 56.065
63.0307 1049.7 1.70436
84.7266 1026.56 1.68888
80.5967 1022.68 30.1867
58.9063 1045.94 29.5756
58.8907 1045.98 -29.297
80.5799 1022.7 -29.9308
84.7257 1026.56 -1.44509
63.0297 1049.7 -1.42961
46.1508 1034.68 -55.7707
67.7823 1011.04 -56.9446
79.6886 1021.9 -32.8227
57.9994 1045.18 -32.1889
26.5892 1017.79 -73.7002
47.9054 993.785 -75.2223
66.1197 1009.58 -59.1509
44.4883 1033.22 -57.977
3.19525 997.92 -80.4372
24.0253 973.582 -82.0681
45.7122 991.909 -76.4158
24.3959 1015.92 -74.8937
-20.421 977.931 -74.9383
-0.0836093 953.275 -76.426
21.6408 971.565 -82.0699
0.810769 995.904 -80.439
-40.589 960.762 -58.0086
-20.6688 935.834 -59.1485
-2.28678 951.409 -75.2328
-22.6242 976.065 -73.745
-54.2707 949.033 -32.1749
-34.63 923.906 -32.7932
-22.353 934.398 -56.9374
-42.2732 959.327 -55.7976
-55.1819 948.252 -29.2817
-59.3997 944.628 -1.4024
-39.8448 919.429 -1.40839
-35.5412 923.125 -29.9
-37.6128 916.672 1.7417
-33.3116 920.367 30.2172
-12.638 895.81 30.316
-16.9622 892.098 1.73157
-32.389 921.155 33.1439
-20.1314 931.62 57.2471
0.610446 907.097 57.4331
-11.7154 896.598 33.2427
-18.4229 933.068 59.4841
-0.0334366 948.627 75.5745
20.8335 924.122 75.8063
2.31891 908.545 59.6701
2.20447 950.508 76.7834
23.9384 968.784 82.4354
44.974 944.258 82.6635
23.0714 926.002 77.0152
26.3608 970.816 82.434
48.0548 989.137 76.7914
69.263 964.566 76.9816
47.3963 946.29 82.6622
50.2738 991.033 75.5841
68.4912 1006.83 59.5228
89.6796 982.404 59.6517
71.482 966.462 75.7743
70.1584 1008.33 57.2896
82.0751 1019.22 33.1375
103.078 995.177 33.2304
91.3468 983.901 57.4185
82.9616 1020.06 30.2065
87.0915 1023.94 1.70865
108.032 1000.05 1.70758
103.964 996.014 30.2994
87.0908 1023.95 -1.46658
82.945 1020.09 -29.9523
103.952 996.04 -30.0543
108.032 1000.05 -1.46765
82.0582 1019.25 -32.8816
70.1519 1008.39 -57.0035
91.3396 983.957 -57.1552
103.065 995.205 -32.9836
68.4851 1006.9 -59.2358
50.2708 991.105 -75.3072
71.4756 966.529 -75.5197
89.6729 982.463 -59.3876
48.0522 989.209 -76.5156
26.3653 970.881 -82.1679
47.3961 946.353 -82.4173
69.2571 964.633 -76.7281
23.9439 968.848 -82.1702
2.21948 950.558 -76.5263
23.0799 926.053 -76.7796
44.9747 944.32 -82.4196
-0.0175945 948.676 -75.3183
-18.3996 933.1 -59.234
2.33378 908.577 -59.4441
20.8428 924.171 -75.5716
-20.1088 931.65 -56.9951
-32.3857 921.158 -32.8509
-11.7206 896.599 -32.9722
0.624603 907.127 -57.2052
-33.3093 920.368 -29.9209
-37.6129 916.672 -1.42924
-16.9624 892.098 -1.43937
-12.6442 895.81 -30.0422
-14.6836 889.38 1.73549
-10.3594 893.092 30.3199
10.0481 868.675 30.3308
5.63555 865.04 1.72344
-9.4239 893.875 33.2545
2.90191 904.374 57.445
23.5416 879.747 57.4599
10.9835 869.458 33.2654
4.63212 905.81 59.6844
23.1467 921.387 75.8206
44.095 896.471 75.8113
25.2718 881.183 59.6993
25.4107 923.251 77.0272
47.3133 941.506 82.6755
68.586 916.268 82.6269
46.359 898.335 77.0179
49.7629 943.518 82.6699
71.6296 961.794 76.9893
93.2226 936.232 76.925
71.0355 918.279 82.6213
73.8776 963.674 75.7737
92.0752 979.616 59.6511
114.12 953.576 59.5755
95.4707 938.112 75.7095
93.7621 981.101 57.4099
105.493 992.377 33.2218
128.035 965.875 33.1823
115.807 955.061 57.3342
106.387 993.208 30.2957
110.455 997.241 1.70394
133.187 970.59 1.69868
128.929 966.706 30.2562
110.454 997.243 -1.46497
106.374 993.234 -30.0516
128.914 966.739 -30.0292
133.186 970.592 -1.47023
105.48 992.406 -32.9771
93.7547 981.157 -57.1487
115.793 955.12 -57.1001
128.02 965.911 -32.9547
92.068 979.674 -59.3898
73.8707 963.741 -75.5219
95.4609 938.177 -75.4826
114.106 953.637 -59.3412
71.6232 961.861 -76.7384
49.7623 943.581 -82.4276
71.0318 918.341 -82.4036
93.2134 936.298 -76.6991
47.3134 941.569 -82.4342
25.4186 923.301 -76.7942
46.3626 898.385 -76.8098
68.5829 916.329 -82.4102
23.1553 921.436 -75.5886
4.64631 905.842 -59.4611
25.2813 881.214 -59.5018
44.0993 896.52 -75.6042
2.91536 904.403 -57.2197
-9.42983 893.876 -32.9867
10.9744 869.457 -33.0226
23.5504 879.776 -57.2605
-10.3659 893.092 -30.0487
-14.6841 889.38 -1.44589
5.63512 865.039 -1.45793
10.0383 868.672 -30.0846
7.87003 862.315 1.72296
12.2825 865.95 30.3303
32.1832 841.234 30.3228
27.6908 837.689 1.71164
13.2352 866.716 33.2659
25.7933 877.004 57.4604
45.9075 852.036 57.4521
33.1358 841.999 33.2583
27.5528 878.41 59.6992
46.3759 893.699 75.8112
66.7824 868.376 75.7988
47.667 853.442 59.6909
48.6748 895.524 77.0156
70.9018 913.457 82.6246
91.6318 887.733 82.6074
69.0813 870.202 77.0032
73.3877 915.428 82.6168
95.5748 933.381 76.9205
116.639 907.236 76.8963
94.1177 889.704 82.5995
97.8628 935.213 75.7051
116.512 950.677 59.5711
137.957 924.079 59.5628
118.927 909.068 75.6809
118.247 952.111 57.3315
130.475 962.925 33.1795
152.302 935.884 33.1684
139.691 925.512 57.3231
131.403 963.723 30.2546
135.662 967.606 1.69701
157.633 940.403 1.68408
153.229 936.682 30.2434
135.661 967.608 -1.47077
131.388 963.755 -30.0298
153.21 936.716 -30.0442
157.632 940.404 -1.4837
130.46 962.961 -32.9543
118.233 952.17 -57.0998
139.675 925.574 -57.1102
152.281 935.922 -32.9688
116.498 950.738 -59.3394
97.8528 935.279 -75.4808
118.916 909.134 -75.476
137.94 924.142 -59.3498
95.5653 933.447 -76.6971
73.3837 915.49 -82.4016
94.1126 889.766 -82.4054
116.628 907.302 -76.6923
70.8985 913.519 -82.4105
48.6781 895.575 -76.8101
69.0827 870.252 -76.8205
91.6274 887.795 -82.4142
46.3799 893.747 -75.6068
27.5619 878.442 -59.5044
47.6739 853.473 -59.5197
66.7844 868.425 -75.6172
25.8017 877.033 -57.2637
13.2257 866.714 -33.0258
33.1248 841.997 -33.0414
45.9137 852.065 -57.279
12.2727 865.947 -30.0868
7.86947 862.315 -1.46009
27.6902 837.689 -1.47142
32.1718 841.23 -30.1023
29.8662 834.928 1.71061
34.3586 838.473 30.3217
53.6922 813.395 30.3137
49.1255 809.949 1.69991
35.3272 839.218 33.2577
48.0989 849.256 57.4514
67.6372 823.905 57.4473
54.6608 814.141 33.2496
49.8865 850.626 59.6905
69.0019 865.56 75.7984
88.8338 839.818 75.8002
69.4248 825.276 59.6864
71.3356 867.342 77.0027
93.8861 884.873 82.6068
114.056 858.682 82.6115
91.1676 841.599 77.0045
96.4093 886.796 82.5983
118.93 904.328 76.8951
139.448 877.672 76.8934
116.579 860.604 82.603
121.257 906.11 75.6801
140.287 921.12 59.562
161.148 894.012 59.5605
141.775 879.453 75.6784
142.061 922.505 57.323
154.671 932.877 33.1683
175.845 905.364 33.1582
162.922 895.397 57.3215
155.626 933.642 30.2423
160.029 937.363 1.68299
181.322 909.693 1.66864
176.799 906.129 30.2323
160.028 937.365 -1.48564
155.606 933.676 -30.0462
176.776 906.163 -30.0642
181.321 909.695 -1.49999
154.65 932.914 -32.9713
142.044 922.567 -57.1126
162.905 895.461 -57.131
175.821 905.401 -32.9893
140.27 921.184 -59.3511
121.246 906.175 -75.4774
141.764 879.52 -75.4956
161.131 894.078 -59.3694
118.92 904.394 -76.6934
96.4042 886.858 -82.4064
116.574 860.667 -82.4317
139.438 877.738 -76.7116
93.8817 884.934 -82.4161
71.337 867.392 -76.8224
91.1685 841.65 -76.8459
114.052 858.743 -82.4414
69.0038 865.609 -75.6193
49.8932 850.657 -59.5218
69.4308 825.306 -59.5399
88.8353 839.867 -75.6428
48.1049 849.284 -57.2809
35.316 839.216 -33.0432
54.6489 814.138 -33.0569
67.6425 823.933 -57.299
34.3471 838.469 -30.1037
29.8655 834.928 -1.47287
49.1249 809.949 -1.48357
53.6799 813.391 -30.1174
51.2368 807.147 1.69891
55.8035 810.593 30.3127
74.5466 785.136 30.3047
69.9081 781.792 1.68874
56.7875 811.318 33.2491
69.764 821.082 57.4468
88.7087 795.338 57.4442
75.5306 785.86 33.2411
71.5794 822.415 59.6866
90.9885 836.957 75.8004
110.23 810.795 75.806
90.5242 796.67 59.684
93.3578 838.69 77.0052
116.246 855.772 82.6122
135.836 829.128 82.6217
112.6 812.528 77.0108
118.808 857.642 82.6034
141.677 874.71 76.8938
161.62 847.573 76.8974
138.397 830.998 82.613
144.041 876.439 75.6784
163.414 890.998 59.5605
183.681 863.407 59.5572
163.985 849.303 75.682
165.223 892.336 57.3214
178.145 902.303 33.1581
198.681 874.338 33.1473
185.489 864.745 57.3181
179.123 903.039 30.2311
183.646 906.603 1.6675
204.284 878.493 1.65307
199.658 875.074 30.2204
183.644 906.605 -1.50204
179.099 903.073 -30.0662
199.633 875.107 -30.0839
204.283 878.495 -1.51647
178.121 902.341 -32.9918
165.205 892.4 -57.1335
185.473 864.809 -57.1509
198.655 874.375 -33.0094
163.398 891.064 -59.3717
144.03 876.506 -75.4978
163.974 849.37 -75.5221
183.665 863.473 -59.3891
141.667 874.776 -76.7143
118.803 857.705 -82.4344
138.393 831.061 -82.4647
161.61 847.64 -76.7385
116.242 855.834 -82.4444
93.3587 838.74 -76.8489
112.601 812.578 -76.8756
135.832 829.19 -82.4747
90.9899 837.006 -75.6453
71.5854 822.445 -59.5425
90.5302 796.7 -59.5611
110.232 810.843 -75.672
69.7692 821.11 -57.3009
56.7756 811.315 -33.0587
75.5182 785.857 -33.0714
88.714 795.364 -57.3195
55.7912 810.589 -30.1187
51.2362 807.147 -1.48491
69.9074 781.792 -1.49508
74.5338 785.131 -30.1314
71.9532 778.948 1.68778
76.5917 782.292 30.3037
94.7325 756.45 30.2957
90.0234 753.212 1.67809
77.5909 782.994 33.2406
90.769 792.471 57.4437
109.11 766.332 57.4406
95.7317 757.153 33.2326
92.6123 793.764 59.6843
112.318 807.888 75.8063
130.957 781.313 75.8103
110.953 767.625 59.6811
114.724 809.57 77.0116
137.96 826.171 82.6225
156.949 799.087 82.6298
133.363 782.994 77.0157
140.56 827.985 82.6135
163.784 844.56 76.898
183.126 816.963 76.8999
159.55 800.902 82.6208
166.185 846.236 75.6819
185.881 860.34 59.5571
205.535 832.284 59.5505
185.527 818.64 75.6838
187.721 861.633 57.3175
200.913 871.226 33.1467
220.806 842.818 33.1338
207.375 833.576 57.3108
201.909 871.934 30.2192
206.535 875.353 1.65185
226.519 846.811 1.63917
221.803 843.526 30.2062
206.534 875.355 -1.51835
201.885 871.967 -30.0858
221.777 843.558 -30.1013
226.518 846.812 -1.53103
200.887 871.263 -33.0116
187.704 861.697 -57.1531
207.359 833.64 -57.1684
220.779 842.853 -33.0272
185.865 860.407 -59.3913
166.174 846.303 -75.5243
185.518 818.706 -75.5477
205.52 832.35 -59.4066
163.774 844.627 -76.7414
140.556 828.048 -82.4676
159.546 800.964 -82.4957
183.117 817.03 -76.7648
137.956 826.232 -82.4778
114.725 809.62 -76.8787
133.365 783.044 -76.9032
156.946 799.148 -82.506
112.32 807.937 -75.6745
92.6184 793.793 -59.5637
110.96 767.653 -59.5808
130.96 781.36 -75.6991
90.7743 792.498 -57.3212
77.5785 782.991 -33.0731
95.7191 757.148 -33.0848
109.116 766.358 -57.3384
76.579 782.287 -30.1326
71.9526 778.947 -1.49634
90.0227 753.211 -1.50602
94.7195 756.445 -30.1443
92.0012 750.325 1.67715
96.7104 753.564 30.2948
114.241 727.341 30.2868
109.462 724.211 1.66795
97.7246 754.243 33.232
111.103 763.423 57.44
128.831 736.895 57.4358
115.255 728.021 33.2241
112.974 764.674 59.6811
132.978 778.362 75.8103
151.002 751.381 75.8114
130.702 738.146 59.6769
135.419 779.99 77.0162
159.006 796.083 82.6303
177.378 768.575 82.6338
153.444 753.01 77.0173
161.645 797.84 82.6211
185.222 813.901 76.9002
203.943 785.863 76.8996
180.018 770.332 82.6246
187.659 815.523 75.6835
207.666 829.167 59.5501
226.689 800.663 59.5426
206.381 787.484 75.6828
209.536 830.415 57.31
222.967 839.657 33.133
242.211 810.814 33.1213
228.559 801.911 57.3025
223.982 840.338 30.205
228.698 843.623 1.6379
248.024 814.653 1.62416
243.226 811.495 30.1933
228.697 843.624 -1.53272
223.956 840.37 -30.103
243.199 811.527 -30.1177
248.023 814.655 -1.54646
222.941 839.692 -33.0291
209.521 830.479 -57.1703
228.546 801.973 -57.1841
242.184 810.849 -33.0437
207.652 829.233 -59.4087
187.65 815.589 -75.5497
206.373 787.55 -75.5697
226.677 800.728 -59.4225
185.213 813.968 -76.7674
161.642 797.902 -82.4983
180.016 770.392 -82.522
203.936 785.928 -76.7875
159.003 796.144 -82.5087
135.421 780.039 -76.906
153.447 753.057 -76.9269
177.377 768.634 -82.5324
132.98 778.409 -75.7014
112.98 764.702 -59.5831
130.709 738.172 -59.5984
151.006 751.427 -75.7223
111.109 763.448 -57.34
97.712 754.239 -33.0864
115.242 728.016 -33.0973
128.838 736.918 -57.3553
96.6974 753.558 -30.1455
92.0006 750.325 -1.50719
109.461 724.21 -1.51639
114.228 727.335 -30.1563
111.372 721.282 1.66704
116.151 724.412 30.2859
133.064 697.814 30.2781
128.216 694.794 1.65838
117.18 725.069 33.2234
130.756 733.943 57.4351
147.863 707.032 57.4298
134.093 698.471 33.2156
132.654 735.151 59.6767
152.954 748.387 75.8112
170.352 721.011 75.8098
149.761 708.24 59.6714
155.431 749.96 77.0174
179.366 765.525 82.6339
197.107 737.605 82.6341
172.829 722.584 77.0159
182.044 767.223 82.6246
205.969 782.754 76.8995
224.052 754.289 76.8966
199.785 739.303 82.6248
208.442 784.319 75.6823
228.75 797.498 59.5421
247.125 768.564 59.534
226.525 755.855 75.6794
230.648 798.701 57.3016
244.301 807.604 33.1204
262.882 778.337 33.1098
249.023 769.767 57.2936
245.332 808.26 30.192
250.13 811.418 1.62283
268.786 782.03 1.60737
263.912 778.993 30.1814
250.129 811.419 -1.54816
245.304 808.292 -30.1194
263.886 779.024 -30.1319
268.785 782.032 -1.56362
244.273 807.639 -33.0453
230.635 798.764 -57.1857
249.012 769.827 -57.1975
262.854 778.371 -33.0579
228.739 797.562 -59.4242
208.435 784.384 -75.5715
226.52 755.918 -75.5879
247.115 768.626 -59.436
205.962 782.818 -76.7896
182.042 767.283 -82.5242
199.784 739.361 -82.5434
224.047 754.352 -76.806
179.364 765.585 -82.5347
155.434 750.007 -76.9292
172.833 722.63 -76.9465
197.107 737.663 -82.5539
152.958 748.432 -75.7242
132.661 735.178 -59.6003
149.769 708.265 -59.6135
170.357 721.055 -75.7415
130.762 733.967 -57.3567
117.167 725.064 -33.0987
134.08 698.465 -33.1086
147.87 707.054 -57.3699
116.137 724.406 -30.1574
111.371 721.282 -1.51749
128.215 694.794 -1.52615
133.05 697.807 -30.1673
130.057 691.825 1.6575
134.904 694.844 30.2772
151.193 667.878 30.2696
146.278 664.971 1.64944
135.948 695.477 33.2149
149.718 704.038 57.4291
166.197 676.751 57.4231
152.236 668.511 33.2072
151.643 705.203 59.671
172.234 717.974 75.8094
188.997 690.211 75.806
168.122 677.916 59.665
174.746 719.49 77.0158
199.024 734.511 82.6339
216.122 706.191 82.6314
191.509 691.727 77.0124
201.739 736.148 82.6245
226.007 751.134 76.8963
243.437 722.258 76.8911
218.837 707.827 82.6219
228.514 752.643 75.6786
249.114 765.352 59.5333
266.824 736 59.5237
245.944 723.767 75.6734
251.038 766.51 57.2925
264.897 775.081 33.1087
282.803 745.4 33.0965
268.749 737.158 57.2829
265.943 775.712 30.18
270.817 778.749 1.60598
288.792 748.948 1.59216
283.849 746.031 30.1677
270.816 778.75 -1.56511
265.917 775.742 -30.1334
283.823 746.059 -30.143
288.791 748.95 -1.57893
264.87 775.114 -33.0591
251.028 766.57 -57.1988
268.741 737.216 -57.2084
282.777 745.431 -33.0687
249.104 765.414 -59.4374
228.509 752.706 -75.5893
245.941 723.827 -75.6026
266.817 736.059 -59.447
226.002 751.197 -76.8078
201.739 736.205 -82.5452
218.838 707.883 -82.5607
243.433 722.318 -76.8211
199.024 734.568 -82.5557
174.75 719.535 -76.9483
191.514 691.77 -76.9626
216.123 706.246 -82.5712
172.239 718.017 -75.7431
151.651 705.227 -59.6151
168.13 677.939 -59.6264
189.003 690.252 -75.7574
149.725 704.06 -57.3712
135.935 695.471 -33.1098
152.223 668.504 -33.1187
166.204 676.771 -57.3825
134.891 694.837 -30.1683
130.056 691.824 -1.52715
146.277 664.971 -1.53521
151.179 667.87 -30.1772
148.049 661.962 1.64861
152.964 664.868 30.2687
168.621 637.544 30.2616
163.64 634.752 1.6412
154.021 665.477 33.2065
167.982 673.717 57.4224
183.824 646.066 57.4162
169.678 638.152 33.1994
169.933 674.837 59.6645
190.809 687.132 75.8055
206.927 658.995 75.8008
185.775 647.186 59.6582
193.354 688.59 77.012
217.967 703.054 82.631
234.41 674.349 82.6265
209.473 660.454 77.0073
220.719 704.628 82.6214
245.318 719.059 76.8905
262.083 689.787 76.884
237.162 675.922 82.6169
247.859 720.51 75.6725
268.739 732.743 59.5228
285.775 702.99 59.5132
264.624 691.238 75.666
270.69 733.856 57.2817
284.744 742.098 33.0954
301.964 712.016 33.084
287.726 704.103 57.2722
285.804 742.704 30.1664
290.747 745.622 1.59082
308.034 715.421 1.57863
303.024 712.622 30.155
290.746 745.623 -1.5802
285.778 742.732 -30.1442
303 712.648 -30.1531
308.033 715.423 -1.59239
284.718 742.129 -33.0698
270.682 733.914 -57.2094
287.72 704.157 -57.2181
301.939 712.044 -33.0786
268.733 732.802 -59.4482
247.856 720.569 -75.6038
264.622 691.294 -75.6148
285.771 703.045 -59.4568
245.315 719.118 -76.8226
220.72 704.683 -82.5622
237.164 675.974 -82.5747
262.082 689.843 -76.8336
217.968 703.108 -82.5728
193.36 688.633 -76.9641
209.48 660.493 -76.9758
234.413 674.399 -82.5853
190.814 687.173 -75.7587
169.942 674.859 -59.6278
185.784 647.206 -59.6376
206.934 659.033 -75.7704
167.989 673.737 -57.3836
154.008 665.47 -33.1198
169.664 638.144 -33.1278
183.832 646.084 -57.3934
152.95 664.86 -30.1781
148.048 661.961 -1.53613
163.639 634.752 -1.54353
168.606 637.535 -30.1861
165.341 631.703 1.64044
170.321 634.495 30.2608
185.34 606.824 30.2542
180.296 604.149 1.63376
171.393 635.079 33.1987
185.539 642.992 57.4155
200.737 614.989 57.4092
186.412 607.407 33.1921
187.515 644.067 59.6576
208.667 655.876 75.8001
224.132 627.378 75.7947
202.713 616.063 59.6514
211.245 657.275 77.0067
236.182 671.17 82.626
251.96 642.094 82.6205
226.711 628.777 77.0012
238.969 672.68 82.6163
263.891 686.545 76.8833
279.979 656.893 76.8763
254.747 643.604 82.6108
266.464 687.937 75.6651
287.615 699.689 59.5123
303.964 669.55 59.5034
282.552 658.285 75.6581
289.591 700.757 57.2711
303.829 708.67 33.0829
320.354 678.201 33.0728
305.939 670.618 57.2621
304.903 709.252 30.1538
309.912 712.051 1.57742
326.5 681.464 1.56679
321.428 678.783 30.1437
309.911 712.052 -1.59353
304.878 709.277 -30.1542
321.405 678.806 -30.1625
326.499 681.466 -1.60416
303.804 708.698 -33.0796
289.585 700.811 -57.219
305.936 670.668 -57.2269
320.331 678.227 -33.0879
287.611 699.744 -59.4578
266.463 687.993 -75.6159
282.553 658.338 -75.6251
303.962 669.601 -59.4657
263.89 686.601 -76.8348
238.972 672.732 -82.5758
254.751 643.651 -82.586
279.98 656.945 -76.844
236.185 671.221 -82.5865
211.252 657.314 -76.9771
226.718 628.813 -76.9866
251.965 642.14 -82.5966
208.674 655.913 -75.7716
187.524 644.087 -59.6387
202.723 616.08 -59.6471
224.14 627.412 -75.7811
185.547 643.01 -57.3943
171.379 635.071 -33.1288
186.397 607.398 -33.1359
200.745 615.004 -57.4027
170.307 634.486 -30.1869
165.34 631.703 -1.54435
180.295 604.149 -1.55104
185.325 606.814 -30.1941
181.926 601.062 1.63307
186.97 603.737 30.2535
201.343 575.73 30.2476
196.238 573.174 1.62717
188.054 604.295 33.1914
202.38 611.877 57.4086
216.926 583.533 57.4026
202.428 576.289 33.1855
204.38 612.905 59.6508
225.799 624.22 75.794
240.602 595.374 75.7883
218.927 584.561 59.6448
228.409 625.559 77.0006
253.659 638.875 82.6199
268.762 609.442 82.614
243.212 596.713 76.9949
256.48 640.321 82.6101
281.711 653.61 76.8756
297.113 623.594 76.8687
271.583 610.888 82.6042
284.316 654.943 75.6572
305.728 666.207 59.5026
321.379 635.698 59.4944
299.717 624.927 75.6503
307.727 667.23 57.2612
322.141 674.813 33.0718
337.961 643.972 33.0629
323.378 636.721 57.2531
323.228 675.37 30.1426
328.301 678.052 1.56573
344.18 647.093 1.55654
339.048 644.529 30.1337
328.299 678.053 -1.60516
323.205 675.393 -30.1635
339.026 644.55 -30.171
344.179 647.094 -1.61435
322.118 674.839 -33.0887
307.724 667.28 -57.2278
323.377 636.767 -57.2348
337.939 643.995 -33.0963
305.726 666.259 -59.4665
284.316 654.995 -75.626
299.719 624.975 -75.6336
321.379 635.745 -59.4736
281.712 653.662 -76.845
256.484 640.368 -82.5869
271.589 610.931 -82.595
297.115 623.641 -76.8526
253.664 638.922 -82.5976
228.417 625.594 -76.9876
243.221 596.745 -76.9954
268.769 609.485 -82.6057
225.807 624.254 -75.7821
204.39 612.922 -59.648
218.937 584.575 -59.655
240.611 595.404 -75.7898
202.388 611.892 -57.4035
188.04 604.286 -33.1368
202.414 576.279 -33.143
216.935 583.545 -57.4106
186.955 603.727 -30.1948
181.925 601.062 -1.55176
196.237 573.174 -1.55765
201.328 575.72 -30.2011
197.796 570.051 1.62657
202.901 572.607 30.247
216.623 544.278 30.2418
211.459 541.842 1.62154
203.999 573.14 33.1849
218.497 580.384 57.402
232.384 551.713 57.3965
217.721 544.81 33.1797
220.521 581.365 59.6442
242.196 592.178 75.7877
256.329 562.999 75.782
234.408 552.694 59.6387
244.836 593.457 76.9942
270.386 606.186 82.6133
284.807 576.411 82.6073
258.969 564.277 76.9886
273.24 607.566 82.6035
298.769 620.272 76.868
313.474 589.906 76.8613
287.66 577.791 82.5975
301.403 621.545 75.6495
323.065 632.316 59.4936
338.01 601.452 59.4864
316.108 591.179 75.6428
325.087 633.292 57.2522
339.67 640.544 33.062
354.775 609.346 33.0543
340.032 602.429 57.2449
340.769 641.076 30.1328
345.901 643.64 1.55562
361.063 612.323 1.54773
355.874 609.878 30.125
345.9 643.641 -1.61523
340.748 641.096 -30.1719
355.854 609.896 -30.1786
361.062 612.324 -1.62311
339.648 640.567 -33.0971
325.086 633.338 -57.2356
340.033 602.47 -57.2416
354.755 609.367 -33.1037
323.066 632.363 -59.4743
301.406 621.592 -75.6343
316.113 591.222 -75.6404
338.012 601.495 -59.4803
298.772 620.319 -76.8534
273.246 607.608 -82.5958
287.668 577.829 -82.602
313.479 589.949 -76.8595
270.393 606.227 -82.6065
244.846 593.488 -76.9961
258.98 564.305 -77.0021
284.815 576.448 -82.6127
242.205 592.208 -75.7905
220.531 581.379 -59.6558
234.419 552.705 -59.6615
256.339 563.025 -75.7965
218.505 580.396 -57.4113
203.984 573.13 -33.1437
217.706 544.799 -33.1489
232.393 551.722 -57.417
202.886 572.596 -30.2017
197.795 570.051 -1.55828
211.458 541.841 -1.56331
216.607 544.266 -30.207
212.944 538.684 1.62102
218.108 541.119 30.2413
231.172 512.479 30.2369
225.952 510.165 1.6169
219.218 541.626 33.1791
233.881 548.529 57.3959
247.103 519.543 57.391
232.282 512.986 33.1747
235.928 549.462 59.6381
257.848 559.767 75.7814
271.304 530.267 75.776
249.149 520.477 59.6331
260.518 560.983 76.9879
286.355 573.118 82.6067
300.085 543.016 82.6008
273.974 531.484 76.9825
289.24 574.431 82.5968
315.054 586.547 76.8606
329.054 555.848 76.8543
302.969 544.33 82.5909
317.716 587.759 75.6421
339.618 598.032 59.4857
353.847 566.83 59.4792
331.717 557.061 75.6358
341.661 598.962 57.2442
356.405 605.879 33.0535
370.787 574.341 33.0468
355.89 567.76 57.2377
357.516 606.386 30.1242
362.705 608.831 1.54693
377.141 577.173 1.54021
371.898 574.847 30.1176
362.703 608.832 -1.62386
357.495 606.404 -30.1793
371.878 574.863 -30.1849
377.14 577.174 -1.63058
356.384 605.899 -33.1044
341.662 599.003 -57.2422
355.893 567.798 -57.2471
370.767 574.359 -33.11
339.62 598.074 -59.4809
317.721 587.801 -75.641
331.723 557.098 -75.6455
353.851 566.869 -59.4858
315.059 586.589 -76.8601
289.247 574.469 -82.6026
302.978 544.363 -82.607
329.061 555.886 -76.8645
286.363 573.155 -82.6133
260.528 561.011 -77.0027
273.985 531.507 -77.007
300.094 543.049 -82.6176
257.859 559.793 -75.7971
235.938 549.473 -59.6621
249.16 520.485 -59.6665
271.316 530.289 -75.8014
233.89 548.538 -57.4175
219.203 541.615 -33.1495
232.266 512.974 -33.1537
247.113 519.549 -57.4219
218.092 541.108 -30.2075
212.943 538.683 -1.56383
225.952 510.164 -1.56795
231.156 512.467 -30.2117
227.364 506.973 1.61648
232.584 509.287 30.2365
244.984 480.35 30.2329
239.711 478.159 1.61327
233.705 509.768 33.1743
248.526 516.325 57.3905
261.076 487.039 57.3862
246.105 480.831 33.1707
250.594 517.21 59.6326
272.749 527.001 75.7754
285.521 497.196 75.7703
263.144 487.924 59.6282
275.446 528.155 76.9819
301.557 539.688 82.6002
314.588 509.275 82.5945
288.218 498.35 76.9767
304.471 540.935 82.5903
330.556 552.453 76.8537
343.845 521.438 76.8477
317.502 510.522 82.5845
333.246 553.604 75.6351
355.375 563.373 59.4785
368.881 531.851 59.4729
346.535 522.589 75.6292
357.439 564.257 57.237
372.336 570.837 33.0462
385.987 538.974 33.0404
370.945 532.734 57.2314
373.458 571.318 30.1169
378.701 573.644 1.53952
392.404 541.661 1.53382
387.11 539.455 30.1111
378.7 573.645 -1.6312
373.438 571.334 -30.1855
387.091 539.469 -30.1898
392.403 541.662 -1.6369
372.316 570.855 -33.1105
357.442 564.294 -57.2476
370.95 532.767 -57.251
385.969 538.99 -33.1147
355.38 563.411 -59.4862
333.252 553.641 -75.6459
346.543 522.621 -75.6487
368.888 531.885 -59.4896
330.563 552.49 -76.8649
304.48 540.967 -82.6074
317.513 510.55 -82.6098
343.854 521.47 -76.8677
301.566 539.72 -82.618
275.457 528.178 -77.0074
288.23 498.369 -77.01
314.6 509.302 -82.6205
272.76 527.023 -75.8018
250.605 517.218 -59.6669
263.155 487.929 -59.6699
285.533 497.213 -75.8044
248.536 516.331 -57.4223
233.69 509.755 -33.1541
246.089 480.817 -33.1573
261.086 487.042 -57.4254
232.568 509.274 -30.2121
227.363 506.972 -1.56836
239.71 478.158 -1.57156
244.968 480.336 -30.2153
241.049 474.935 1.61294
246.322 477.126 30.2326
258.053 447.905 30.2298
252.729 445.838 1.61062
247.454 477.58 33.1703
262.425 483.788 57.3858
274.298 454.215 57.382
259.185 448.359 33.1675
264.513 484.625 59.6277
286.89 493.897 75.7698
298.972 463.8 75.7649
276.385 455.052 59.6239
289.613 494.988 76.9761
315.983 505.913 82.5939
328.311 475.205 82.5883
301.695 464.892 76.9713
318.925 507.093 82.5839
345.268 518.009 76.8471
357.839 486.693 76.8416
331.253 476.385 82.5783
347.983 519.098 75.6286
370.33 528.359 59.4723
383.106 496.532 59.4673
360.554 487.782 75.6231
372.413 529.196 57.2308
387.455 535.436 33.0398
400.37 503.265 33.0349
385.19 497.369 57.2258
388.588 535.891 30.1105
393.883 538.097 1.53322
406.845 505.805 1.52826
401.503 503.72 30.1056
393.882 538.098 -1.63739
388.57 535.905 -30.1903
401.485 503.732 -30.1929
406.844 505.805 -1.64235
387.437 535.451 -33.1151
372.418 529.228 -57.2513
385.197 497.397 -57.2532
400.352 503.278 -33.1177
370.336 528.393 -59.4899
347.992 519.13 -75.6489
360.564 487.81 -75.6499
383.114 496.562 -59.4917
345.277 518.04 -76.8679
318.936 507.12 -82.61
331.266 476.407 -82.6105
357.849 486.72 -76.8688
315.995 505.94 -82.6207
289.625 495.007 -77.0101
301.709 464.906 -77.011
328.324 475.227 -82.6212
286.902 493.914 -75.8046
264.524 484.63 -59.6701
276.398 455.054 -59.6719
298.986 463.814 -75.8055
262.435 483.791 -57.4257
247.438 477.566 -33.1576
259.169 448.345 -33.1597
274.308 454.215 -57.4274
246.305 477.112 -30.2156
241.048 474.934 -1.57186
252.728 445.837 -1.57418
258.036 447.89 -30.2177
253.992 442.583 1.61038
259.316 444.65 30.2296
270.373 415.159 30.2276
265.002 413.217 1.60893
260.459 445.077 33.1672
275.571 450.933 57.3816
286.762 421.088 57.3784
271.515 415.586 33.1652
277.678 451.721 59.6235
300.265 460.47 75.7644
311.653 430.098 75.7597
288.868 421.876 59.6202
303.012 461.498 76.9707
329.628 471.811 82.5877
341.247 440.824 82.5822
314.4 431.126 76.966
332.597 472.923 82.5777
359.183 483.232 76.841
371.03 451.634 76.8359
344.215 441.936 82.5723
361.922 484.259 75.6225
384.474 493.009 59.4668
396.514 460.895 59.4629
373.769 452.661 75.6174
386.576 493.797 57.2253
401.756 499.693 33.0344
413.928 467.233 33.0308
398.617 461.684 57.2214
402.899 500.123 30.1051
408.242 502.207 1.52777
420.46 469.622 1.52434
415.07 467.662 30.1016
408.241 502.208 -1.6427
402.881 500.134 -30.1932
415.054 467.67 -30.1951
420.459 469.622 -1.64614
401.739 499.706 -33.1179
386.583 493.825 -57.2534
398.626 461.707 -57.2542
413.911 467.241 -33.1197
384.482 493.037 -59.4918
361.932 484.285 -75.65
373.781 452.682 -75.6493
396.525 460.919 -59.4926
359.193 483.258 -76.8688
332.609 472.945 -82.6105
344.229 441.953 -82.6092
371.042 451.655 -76.8682
329.641 471.833 -82.6212
303.026 461.512 -77.011
314.415 431.137 -77.0102
341.261 440.841 -82.6198
300.279 460.483 -75.8055
277.69 451.723 -59.6719
288.881 421.875 -59.6723
311.667 430.108 -75.8047
275.582 450.934 -57.4275
260.442 445.063 -33.1599
271.499 415.572 -33.161
286.773 421.086 -57.4279
259.299 444.635 -30.2179
253.992 442.582 -1.57438
265.001 413.216 -1.57582
270.355 415.144 -30.2191
266.19 409.933 1.60878
271.561 411.875 30.2275
281.939 382.128 30.2262
276.523 380.312 1.60816
272.713 412.276 33.1649
287.96 417.777 57.3781
298.463 387.674 57.3752
283.092 382.528 33.1637
290.084 418.516 59.6198
312.869 426.738 75.7593
323.557 396.107 75.7545
300.588 388.413 59.6169
315.639 427.703 76.9654
342.485 437.401 82.5817
353.389 406.151 82.576
326.328 397.071 76.9606
345.478 438.444 82.5717
372.293 448.142 76.8353
383.411 416.279 76.8307
356.382 407.194 82.566
375.055 449.106 75.617
397.801 457.341 59.4624
409.101 424.959 59.4598
386.173 417.243 75.6124
399.92 458.081 57.2211
415.231 463.63 33.0305
426.656 430.897 33.0287
411.221 425.699 57.2185
416.384 464.033 30.1012
421.773 465.993 1.52403
433.242 433.133 1.52249
427.808 431.3 30.0994
421.772 465.993 -1.64636
416.367 464.041 -30.1953
427.792 431.303 -30.1968
433.241 433.133 -1.64789
415.215 463.638 -33.1198
399.93 458.104 -57.2543
411.232 425.717 -57.2544
426.641 430.901 -33.1213
397.811 457.364 -59.4926
375.068 449.127 -75.6493
386.187 417.259 -75.6472
409.114 424.977 -59.4927
372.306 448.163 -76.868
345.493 438.461 -82.609
356.398 407.207 -82.6057
383.425 416.295 -76.8659
342.5 437.417 -82.6196
315.654 427.713 -77.0099
326.343 397.078 -77.0073
353.405 406.163 -82.6163
312.883 426.748 -75.8046
290.097 418.515 -59.6722
300.6 388.41 -59.6712
323.572 396.113 -75.8019
287.971 417.775 -57.428
272.697 412.261 -33.161
283.074 382.513 -33.1613
298.474 387.67 -57.427
271.544 411.86 -30.2192
266.189 409.932 -1.57591
276.522 380.311 -1.57653
281.921 382.113 -30.2194
277.636 377 1.60809
283.052 378.816 30.2261
292.747 348.826 30.2255
287.289 347.137 1.60824
284.213 379.19 33.1634
299.585 384.335 57.375
309.398 353.989 57.3722
293.909 349.2 33.1628
301.726 385.025 59.6164
324.696 392.719 75.754
334.681 361.843 75.7486
311.539 354.678 59.6136
327.488 393.619 76.96
354.549 402.699 82.5754
364.735 371.205 82.569
337.473 362.744 76.9546
357.565 403.674 82.5655
384.594 412.759 76.8301
394.979 380.649 76.8257
367.751 372.179 82.5591
387.378 413.66 75.612
410.306 421.376 59.4595
420.862 388.744 59.4586
397.762 381.55 75.6076
412.442 422.068 57.2183
427.877 427.265 33.0285
438.55 394.277 33.0293
422.998 389.436 57.2174
429.038 427.641 30.0994
434.472 429.475 1.52242
445.189 396.356 1.52393
439.712 394.653 30.1001
434.471 429.475 -1.64799
429.023 427.644 -30.1969
439.698 394.651 -30.1996
445.188 396.356 -1.64648
427.862 427.269 -33.1214
412.453 422.084 -57.2545
423.01 389.447 -57.2548
438.537 394.275 -33.1241
410.318 421.393 -59.4926
387.392 413.675 -75.6471
397.778 381.561 -75.6438
420.876 388.756 -59.4929
384.608 412.774 -76.8655
357.581 403.686 -82.6053
367.767 372.187 -82.5999
394.994 380.659 -76.8622
354.565 402.711 -82.6158
327.503 393.626 -77.0068
337.488 362.747 -77.002
364.751 371.212 -82.6104
324.711 392.724 -75.8016
301.739 385.022 -59.6709
311.552 354.674 -59.6685
334.696 361.845 -75.7968
299.596 384.331 -57.4269
284.196 379.175 -33.1611
293.891 349.185 -33.1604
309.409 353.983 -57.4244
283.034 378.801 -30.2194
277.635 376.999 -1.57652
287.288 347.136 -1.57637
292.729 348.812 -30.2186
288.326 343.799 1.60824
293.784 345.488 30.2255
302.793 315.27 30.2253
297.296 313.707 1.6091
294.954 345.836 33.1626
310.443 350.624 57.372
319.562 320.048 57.3689
303.964 315.617 33.1624
312.6 351.264 59.6131
335.742 358.429 75.7481
345.02 327.324 75.7413
321.719 320.689 59.61
338.553 359.266 76.9538
365.815 367.727 82.5683
375.278 336.004 82.5601
347.832 328.161 76.9471
368.853 368.633 82.5584
396.081 377.103 76.825
405.729 344.765 76.8197
378.316 336.911 82.5502
398.885 377.94 75.6073
421.984 385.134 59.4583
431.793 352.273 59.4587
408.533 345.603 75.602
424.136 385.777 57.2175
439.688 390.618 33.0293
449.61 357.393 33.0329
433.945 352.916 57.2179
440.859 390.967 30.1004
446.336 392.67 1.52421
456.299 359.312 1.52974
450.78 357.742 30.104
446.335 392.67 -1.64646
440.844 390.965 -30.1996
450.766 357.735 -30.2045
456.299 359.312 -1.64093
439.675 390.616 -33.1243
424.148 385.788 -57.255
433.958 352.921 -57.256
449.597 357.387 -33.1292
421.998 385.146 -59.4927
398.9 377.95 -75.6436
408.549 345.608 -75.6386
431.808 352.278 -59.4936
396.097 377.112 -76.8616
368.869 368.64 -82.5993
378.333 336.914 -82.5908
405.746 344.77 -76.8567
365.832 367.734 -82.6097
338.569 359.269 -77.0013
347.848 328.162 -76.9937
375.295 336.008 -82.6012
335.757 358.431 -75.7963
312.613 351.26 -59.6679
321.731 320.683 -59.6637
345.036 327.324 -75.7887
310.454 350.618 -57.4242
294.936 345.821 -33.1601
303.945 315.602 -33.1583
319.573 320.042 -57.4199
293.766 345.474 -30.2185
288.325 343.798 -1.57626
297.295 313.706 -1.57539
302.774 315.255 -30.2168
298.257 310.344 1.60916
303.754 311.907 30.2253
312.074 281.471 30.2255
306.54 280.034 1.61065
304.932 312.227 33.1621
320.53 316.659 57.3687
328.952 285.867 57.365
313.252 281.791 33.1623
322.701 317.25 59.6093
346.003 323.886 75.7406
354.571 292.568 75.7318
331.123 286.459 59.6056
348.833 324.659 76.9461
376.28 332.502 82.5591
385.018 300.57 82.548
357.402 293.341 76.9372
379.337 333.34 82.5494
406.75 341.194 76.8189
415.658 308.649 76.8113
388.075 301.408 82.5383
409.572 341.969 75.6017
432.832 348.639 59.4583
441.89 315.566 59.4577
418.48 309.424 75.5941
434.999 349.232 57.218
450.664 353.709 33.033
459.828 320.263 33.036
444.057 316.16 57.2173
451.843 354.031 30.1044
457.362 355.6 1.53018
466.566 322.017 1.53519
461.007 320.584 30.1075
457.361 355.6 -1.64074
451.829 354.023 -30.2043
460.994 320.575 -30.2054
466.566 322.017 -1.63573
450.651 353.702 -33.1293
435.013 349.237 -57.256
444.071 316.159 -57.2535
459.816 320.254 -33.1304
432.848 348.644 -59.4932
409.589 341.973 -75.6382
418.497 309.424 -75.6288
441.906 315.566 -59.4907
406.767 341.199 -76.8557
379.354 333.343 -82.5898
388.093 301.408 -82.5767
415.676 308.649 -76.8463
376.297 332.505 -82.6
348.849 324.659 -76.9926
357.418 293.34 -76.9814
385.035 300.57 -82.5869
346.019 323.885 -75.7878
322.714 317.244 -59.6628
331.135 286.452 -59.6566
354.587 292.566 -75.7766
320.541 316.652 -57.4195
304.914 312.213 -33.1579
313.233 281.778 -33.1552
328.963 285.86 -57.4133
303.735 311.893 -30.2166
298.256 310.343 -1.57518
306.539 280.034 -1.57369
312.055 281.458 -30.2139
307.424 276.648 1.61074
312.958 278.085 30.2256
320.587 247.443 30.2258
315.019 246.133 1.61273
314.144 278.378 33.162
329.843 282.454 57.3647
337.566 251.46 57.3599
321.773 247.737 33.1622
332.028 282.997 59.6047
355.476 289.106 75.7309
363.334 257.591 75.7191
339.751 252.002 59.5999
358.323 289.817 76.9359
385.939 297.045 82.5467
393.95 264.923 82.5314
366.18 258.302 76.9241
389.014 297.815 82.5371
416.598 305.057 76.8101
424.763 272.326 76.7988
397.025 265.693 82.5218
419.437 305.768 75.5935
442.847 311.91 59.457
451.151 278.649 59.4539
427.602 273.037 75.5822
445.027 312.453 57.2171
460.799 316.556 33.0359
469.205 282.904 33.0369
453.331 279.192 57.214
461.985 316.848 30.1077
467.545 318.282 1.53541
475.989 284.482 1.53854
470.391 283.196 30.1087
467.544 318.281 -1.63529
461.972 316.84 -30.2049
470.379 283.184 -30.2
475.989 284.482 -1.63216
460.786 316.547 -33.1298
445.042 312.452 -57.253
453.347 279.185 -57.2455
469.193 282.892 -33.1249
442.863 311.91 -59.4897
419.454 305.767 -75.6278
427.621 273.032 -75.6126
451.169 278.643 -59.4823
416.615 305.056 -76.8447
389.032 297.815 -82.5752
397.044 265.69 -82.5562
424.782 272.321 -76.8295
385.957 297.044 -82.5853
358.339 289.814 -76.9798
366.197 258.298 -76.9643
393.968 264.92 -82.5663
355.492 289.104 -75.7754
332.04 282.99 -59.6554
339.763 251.996 -59.6469
363.35 257.588 -75.76
329.854 282.448 -57.4126
314.125 278.365 -33.1546
321.753 247.725 -33.1509
337.577 251.453 -57.4042
312.939 278.072 -30.2136
307.423 276.648 -1.57339
315.018 246.132 -1.57141
320.567 247.432 -30.21
315.827 242.724 1.61284
321.395 244.035 30.2259
328.332 213.197 30.2259
322.732 212.012 1.61514
322.587 244.302 33.1619
338.381 248.025 57.3595
345.404 216.839 57.353
329.524 213.464 33.1619
340.577 248.519 59.5987
364.16 254.108 75.718
371.306 222.41 75.7022
347.601 217.333 59.5923
367.022 254.756 76.9223
394.792 261.378 82.5296
402.075 229.085 82.5089
374.168 223.058 76.9065
397.883 262.081 82.5201
425.621 268.714 76.7971
433.044 235.822 76.7812
405.167 229.789 82.4994
428.476 269.362 75.5812
452.024 274.974 59.4529
459.575 241.548 59.447
435.899 236.47 75.5653
454.218 275.465 57.2135
470.092 279.177 33.0365
477.742 245.334 33.0372
461.769 242.039 57.2077
471.286 279.438 30.1088
476.884 280.724 1.53863
484.573 246.72 1.54284
478.936 245.595 30.1096
476.883 280.723 -1.63146
471.273 279.426 -30.1993
478.925 245.579 -30.1919
484.573 246.719 -1.62724
470.08 279.164 -33.1238
454.234 275.457 -57.2444
461.786 242.025 -57.2338
477.732 245.317 -33.1164
452.042 274.967 -59.4808
428.494 269.356 -75.6111
435.918 236.46 -75.5907
459.594 241.534 -59.4701
425.639 268.708 -76.8273
397.901 262.077 -82.554
405.185 229.783 -82.5289
433.063 235.812 -76.8069
394.81 261.374 -82.564
367.038 254.753 -76.9621
374.184 223.055 -76.9419
402.094 229.08 -82.5389
364.176 254.105 -75.7584
340.589 248.513 -59.6453
347.612 217.328 -59.6344
371.322 222.407 -75.7382
338.391 248.019 -57.4033
322.567 244.29 -33.1501
329.504 213.456 -33.1455
345.414 216.834 -57.3924
321.374 244.024 -30.2096
315.825 242.724 -1.57103
322.731 212.011 -1.56873
328.311 213.189 -30.205
323.463 208.582 1.61523
329.063 209.767 30.226
335.311 178.743 30.2251
329.682 177.683 1.61764
330.261 210.008 33.1613
346.141 213.382 57.3525
352.467 182.014 57.3439
336.509 178.983 33.1604
348.349 213.829 59.5907
372.054 218.907 75.7007
378.488 187.041 75.6808
354.674 182.461 59.5822
374.929 219.494 76.9042
402.837 225.521 82.5065
409.392 193.081 82.4801
381.364 187.629 76.8844
405.943 226.159 82.4971
433.82 232.192 76.7789
440.499 199.166 76.7579
412.498 193.719 82.4706
436.689 232.778 75.5638
460.366 237.856 59.4455
467.161 204.289 59.435
443.368 199.752 75.5428
462.572 238.293 57.2068
478.545 241.588 33.0364
485.438 207.566 33.0363
469.367 204.726 57.1963
479.746 241.816 30.1096
485.383 242.94 1.54291
492.317 208.74 1.54825
486.639 207.794 30.1095
485.383 242.939 -1.62628
479.736 241.799 -30.1909
486.632 207.773 -30.1807
492.316 208.739 -1.62094
478.535 241.571 -33.1148
462.589 238.278 -57.2322
469.386 204.705 -57.2172
485.431 207.544 -33.1045
460.385 237.842 -59.4681
436.708 232.768 -75.5887
443.387 199.738 -75.5634
467.181 204.269 -59.4531
433.839 232.182 -76.8041
405.961 226.153 -82.5261
412.517 193.712 -82.4954
440.518 199.153 -76.7789
402.855 225.516 -82.5361
374.946 219.491 -76.9391
381.381 187.626 -76.9147
409.411 193.074 -82.5053
372.07 218.904 -75.7362
348.36 213.825 -59.6324
354.686 182.46 -59.619
378.505 187.039 -75.7119
346.151 213.378 -57.3914
330.241 210 -33.1445
336.489 178.979 -33.1387
352.477 182.013 -57.378
329.042 209.759 -30.2046
323.462 208.582 -1.56828
329.681 177.682 -1.56588
335.29 178.739 -30.1988
330.337 174.233 1.61761
335.966 175.293 30.2251
341.538 144.09 30.2202
335.887 143.156 1.61999
337.17 175.507 33.1595
353.128 178.538 57.343
358.764 146.997 57.3289
342.742 144.304 33.1547
355.344 178.939 59.5801
379.158 183.519 75.6788
384.884 151.5 75.6524
360.98 147.398 59.5659
382.045 184.048 76.8813
410.074 189.501 82.477
415.898 156.937 82.4422
387.771 152.029 76.8549
413.192 190.075 82.4676
441.192 195.523 76.7549
447.119 162.394 76.7256
419.017 157.511 82.4328
444.074 196.046 75.5405
467.867 200.583 59.4327
473.893 166.9 59.4114
450.001 162.918 75.5112
470.085 200.963 57.1948
486.156 203.803 33.0347
492.277 169.608 33.0312
476.111 167.28 57.1735
487.365 203.993 30.1095
493.042 204.939 1.54822
499.201 170.545 1.55448
493.485 169.798 30.1059
493.042 204.938 -1.61967
487.357 203.972 -30.1794
493.482 169.773 -30.1646
499.201 170.543 -1.61341
486.15 203.781 -33.1022
470.104 200.942 -57.2148
476.132 167.254 -57.1908
492.275 169.582 -33.0873
467.888 200.563 -59.4504
444.094 196.032 -75.5607
450.022 162.902 -75.5286
473.915 166.875 -59.4264
441.212 195.51 -76.7755
413.211 190.068 -82.4919
419.037 157.504 -82.454
447.14 162.38 -76.7434
410.092 189.494 -82.5018
382.062 184.046 -76.9112
387.789 152.029 -76.8806
415.918 156.93 -82.4638
379.175 183.517 -75.7093
355.356 178.938 -59.6164
360.993 147.403 -59.5971
384.901 151.5 -75.6787
353.138 178.538 -57.3766
337.149 175.504 -33.1372
342.722 144.308 -33.1273
358.775 147.002 -57.3573
335.945 175.289 -30.1982
330.336 174.233 -1.56527
335.886 143.156 -1.56289
341.518 144.093 -30.1882
336.472 139.688 1.61915
342.123 140.621 30.2194
347.087 109.262 30.1891
341.428 108.458 1.62154
343.33 140.81 33.1517
359.351 143.503 57.3258
364.342 111.81 57.2702
348.294 109.451 33.1214
361.574 143.859 59.561
385.478 147.961 75.6475
390.509 115.812 75.5751
366.564 112.166 59.5054
388.372 148.435 76.8489
416.499 153.343 82.4362
421.578 120.685 82.3562
393.403 116.286 76.7764
419.626 153.858 82.4269
447.729 158.741 76.7197
452.861 125.553 76.6489
424.705 121.2 82.3469
450.62 159.202 75.506
474.513 163.185 59.4062
479.704 129.405 59.3483
455.752 126.014 75.4351
476.74 163.502 57.1698
492.905 165.83 33.0274
498.168 131.454 33.0062
481.932 129.722 57.1119
494.12 165.977 30.1053
499.835 166.724 1.55389
505.124 132.124 1.5608
499.383 131.602 30.0841
499.835 166.722 -1.6114
494.117 165.952 -30.1626
499.39 131.575 -30.1283
505.124 132.123 -1.60449
492.904 165.803 -33.083
476.761 163.476 -57.1865
481.955 129.693 -57.1342
498.177 131.425 -33.0487
474.535 163.159 -59.4213
450.641 159.186 -75.5235
455.775 125.997 -75.4551
479.728 129.376 -59.369
447.75 158.726 -76.7374
419.646 153.85 -82.448
424.727 121.193 -82.3672
452.884 125.537 -76.669
416.519 153.336 -82.4575
388.39 148.435 -76.8743
393.424 116.289 -76.7979
421.6 120.679 -82.3767
385.495 147.962 -75.6732
361.587 143.865 -59.5917
366.581 112.18 -59.5296
390.529 115.816 -75.5969
359.363 143.509 -57.3536
343.31 140.815 -33.1236
348.278 109.466 -33.0875
364.357 111.824 -57.2915
342.103 140.625 -30.1867
336.471 139.688 -1.56144
341.427 108.458 -1.55905
347.07 109.277 -30.1506
341.967 104.981 1.61502
347.625 105.785 30.1826
352.346 74.3808 29.9766
346.728 73.7089 1.61581
348.829 105.948 33.103
364.877 108.307 57.2518
369.492 76.5692 56.8875
353.55 74.5439 32.897
367.094 108.619 59.4792
391.038 112.265 75.5489
395.503 80.0739 75.1056
371.709 76.8814 59.1149
393.926 112.686 76.7476
422.101 117.085 82.3273
426.402 84.4001 81.8863
398.391 80.4949 76.3043
425.222 117.544 82.3198
453.377 121.897 76.6218
457.515 88.7227 76.2306
429.522 84.8592 81.8788
456.267 122.294 75.4127
480.219 125.684 59.3259
484.266 91.7873 59.0663
460.404 89.1192 75.0216
482.445 125.928 57.0975
498.681 127.66 32.9918
502.632 93.0473 32.849
486.491 92.0309 56.8379
499.894 127.758 30.0795
505.635 128.28 1.55613
509.532 93.4149 1.55338
503.845 93.1448 29.9366
505.635 128.279 -1.59904
499.902 127.731 -30.1228
503.855 93.1247 -29.9777
509.533 93.4138 -1.60179
498.691 127.632 -33.0338
482.468 125.899 -57.1193
486.52 92.0085 -56.8521
502.643 93.0259 -32.8887
480.244 125.656 -59.3464
456.291 122.277 -75.4325
460.432 89.1025 -75.0326
484.295 91.7653 -59.0791
453.401 121.881 -76.6415
425.244 117.537 -82.3397
429.549 84.853 -81.8918
457.542 88.707 -76.2416
422.124 117.079 -82.3473
393.948 112.689 -76.7685
398.417 80.5019 -76.3193
426.429 84.3951 -81.8994
391.059 112.27 -75.57
367.112 108.634 -59.5027
371.733 76.9067 -59.1288
395.528 80.0823 -75.1208
364.893 108.323 -57.2724
348.814 105.964 -33.0683
353.542 74.5753 -32.8573
369.514 76.5955 -56.8984
347.609 105.8 -30.1435
341.966 104.982 -1.55201
346.727 73.7101 -1.55122
352.338 74.4111 -29.9325
347.386 70.283 1.57292
353.004 70.9549 29.9337
360.045 40.3307 28.6436
354.686 39.6889 1.5705
354.174 71.1012 32.7772
370.116 73.1265 56.7676
376.411 42.404 54.3993
361.215 40.4771 31.487
372.273 73.4079 58.9408
396.068 76.6005 74.9315
401.258 45.6624 71.8751
378.568 42.6854 56.5725
398.882 76.98 76.1057
426.892 80.8852 81.6876
430.812 49.6192 78.4368
404.072 46.0419 73.0492
429.935 81.2982 81.6857
457.927 85.1617 76.0376
460.601 53.5463 73.0785
433.854 50.0322 78.4349
460.739 85.5144 74.8654
484.6 88.1826 58.9101
486.145 56.5694 56.6282
463.412 53.8991 71.9063
486.765 88.3971 56.7408
502.906 89.4135 32.7519
503.542 58.1524 31.4642
488.309 56.7839 54.4588
504.087 89.4984 29.902
509.775 89.7685 1.51878
510.063 58.6283 1.51243
504.723 58.2373 28.6143
509.775 89.7668 -1.56805
504.097 89.4778 -29.944
504.72 58.1904 -28.6562
510.063 58.6267 -1.5744
502.917 89.3914 -32.7907
486.794 88.3741 -56.7541
488.338 56.7393 -54.4514
503.54 58.104 -31.503
484.631 88.1602 -58.9214
460.767 85.4974 -74.8749
463.442 53.8818 -71.9028
486.175 56.5254 -56.6187
457.955 85.1461 -76.0475
429.962 81.2921 -81.6977
433.883 50.0286 -78.439
460.63 53.5305 -73.0754
426.919 80.8805 -81.7001
398.907 76.9873 -76.12
404.097 46.0545 -73.0601
430.84 49.6171 -78.4413
396.093 76.6099 -74.9463
372.298 73.4343 -58.9543
378.586 42.7312 -56.5883
401.283 45.6771 -71.8864
370.138 73.1545 -56.7783
354.166 71.1343 -32.7372
361.2 40.528 -31.4525
376.427 42.4513 -54.4123
352.995 70.9861 -29.8897
347.385 70.2851 -1.50835
354.685 39.691 -1.51076
360.029 40.3798 -28.6049
355.537 36.3414 1.48578
360.896 36.9833 28.5589
368.926 7.19087 26.7935
363.909 6.59246 1.47816
362.002 37.1212 31.247
377.198 39.0482 54.1593
384.258 9.128 50.9015
370.032 7.32883 29.4816
379.237 39.3105 56.2141
401.927 42.2874 71.5166
407.54 12.1189 67.2389
386.297 9.39026 52.9562
404.587 42.6357 72.6273
431.327 46.213 78.0149
435.216 15.7051 73.3458
410.2 12.4672 68.3496
434.203 46.5889 78.0142
460.949 50.1031 72.6577
463.087 19.2709 68.3087
438.092 16.081 73.345
463.606 50.4352 71.5481
486.338 53.1055 56.27
486.945 22.1806 52.9097
465.744 19.603 67.1991
488.376 53.3319 54.2154
503.609 54.7004 31.2207
503.166 23.9239 29.4067
488.983 22.407 50.8551
504.715 54.8042 28.5281
510.055 55.1952 1.42616
509.237 24.4786 1.43665
504.272 24.0276 26.714
510.055 55.1919 -1.48743
504.711 54.7556 -28.5693
504.265 23.9534 -26.7377
509.237 24.4753 -1.47694
503.606 54.6489 -31.2583
488.404 53.2842 -54.2067
489 22.3403 -50.8427
503.161 23.8467 -29.4267
486.368 53.0605 -56.2595
463.635 50.4169 -71.5436
465.764 19.587 -67.1953
486.964 22.1166 -52.8955
460.978 50.0875 -72.6541
434.231 46.5856 -78.0176
438.112 16.0786 -73.3464
463.107 19.2575 -68.3058
431.355 46.2111 -78.019
404.612 42.6485 -72.6377
410.217 12.4798 -68.3561
435.236 15.7041 -73.3478
401.951 42.3032 -71.5278
379.255 39.3573 -56.2297
386.303 9.45101 -52.9712
407.557 12.1344 -67.2462
377.213 39.0976 -54.1729
361.986 37.1743 -31.213
370.01 7.39962 -29.4596
384.261 9.19133 -50.9144
360.879 37.0334 -28.5212
355.536 36.3446 -1.42708
363.908 6.5956 -1.4347
368.903 7.25874 -26.7678
364.943 3.54645 1.3485
369.961 4.14486 26.6638
380.256 -21.1508 23.7807
375.833 -21.7724 1.32895
370.969 4.27709 29.1177
385.194 6.07625 50.5376
393.863 -19.2594 45.265
381.264 -21.0186 26.2346
387.057 6.32118 52.4141
408.3 9.04984 66.6968
414.608 -16.4842 59.8122
395.726 -19.0145 47.1415
410.731 9.36823 67.7085
435.747 12.6061 72.7047
439.277 -13.2154 65.2158
417.04 -16.1658 60.8239
438.374 12.9487 72.7005
463.369 16.1385 67.6642
464.088 -9.94106 60.6869
441.904 -12.8729 65.2116
465.793 16.4496 66.6481
486.994 19.0273 52.3588
485.275 -7.15469 46.9508
466.512 -9.62995 59.6709
488.849 19.257 50.4853
503.032 20.7738 29.0369
499.643 -5.27556 26.1125
487.129 -6.92501 45.0774
504.038 20.8909 26.5861
509.003 21.3419 1.30878
505.038 -4.58007 1.32691
500.649 -5.15849 23.6617
509.003 21.3397 -1.34524
504.031 20.8177 -26.606
500.648 -5.16083 -23.6619
505.038 -4.58225 -1.32711
503.026 20.6986 -29.0563
488.866 19.1921 -50.4723
487.129 -6.92967 -45.0774
499.643 -5.28002 -26.1122
487.011 18.9646 -52.3455
465.811 16.435 -66.6452
466.512 -9.63253 -59.6707
485.275 -7.15721 -46.9506
463.388 16.1256 -67.6613
438.393 12.9467 -72.7019
441.904 -12.8737 -65.2114
464.089 -9.94193 -60.6868
435.766 12.6048 -72.7063
410.747 9.38051 -67.7146
417.041 -16.1659 -60.824
439.277 -13.2155 -65.2158
408.315 9.06374 -66.7029
387.061 6.38034 -52.428
395.726 -19.0127 -47.1417
414.609 -16.4826 -59.8123
385.197 6.13751 -50.551
370.946 4.3458 -29.0962
381.263 -21.0146 -26.2344
393.862 -19.2555 -45.2647
369.938 4.21162 -26.6416
364.943 3.54849 -1.30853
375.833 -21.7703 -1.32807
380.255 -21.1488 -23.7798
-66.4737 981.397 25.9057
-70.3186 978.044 0.147136
-66.4222 981.372 -25.6053
-55.383 990.875 -47.4418
-38.7994 1005.05 -62.0242
-19.1796 1021.69 -67.1148
0.417412 1038.33 -61.9699
16.9546 1052.54 -47.4036
27.9418 1062.19 -25.6023
31.7933 1065.6 0.159323
27.9593 1062.15 25.9167
16.9794 1052.49 47.7112
0.434906 1038.28 62.2758
-19.1707 1021.65 67.4174
-38.8008 1005.02 62.3229
-55.4234 990.887 47.7468
382.635 -22.3855 1.31945e-05
387.058 -21.764 22.4517
399.656 -20.0048 41.4821
418.539 -17.4746 54.1528
440.776 -14.5241 58.5446
462.96 -11.5923 54.02
481.723 -9.11705 41.3
494.237 -7.4676 22.335
498.627 -6.88918 0.000239176
494.237 -7.46776 -22.3346
481.723 -9.11742 -41.2997
462.96 -11.5927 -54.0199
440.776 -14.5245 -58.5445
418.539 -17.4748 -54.1527
399.656 -20.0049 -41.4821
387.058 -21.764 -22.4517
</DataArray>
</Points>
<Cells>
<DataArray type="Int32" Name="connectivity" format="ascii">
0 1 2 3 
4 5 6 7 
8 9 10 11 
12 13 14 15 
16 17 18 19 
20 21 22 23 
24 25 26 27 
28 29 30 31 
32 33 34 35 
36 37 38 39 
40 41 42 43 
44 45 46 47 
48 49 50 51 
52 53 54 55 
56 57 58 59 
60 61 62 63 
64 65 66 67 
68 69 70 71 
72 73 74 75 
76 77 78 79 
80 81 82 83 
84 85 86 87 
88 89 90 91 
92 93 94 95 
96 97 98 99 
100 101 102 103 
104 105 106 107 
108 109 110 111 
112 113 114 115 
116 117 118 119 
120 121 122 123 
124 125 126 127 
128 129 130 131 
132 133 134 135 
136 137 138 139 
140 141 142 143 
144 145 146 147 
148 149 150 151 
152 153 154 155 
156 157 158 159 
160 161 162 163 
164 165 166 167 
168 169 170 171 
172 173 174 175 
176 177 178 179 
180 181 182 183 
184 185 186 187 
188 189 190 191 
192 193 194 195 
196 197 198 199 
200 201 202 203 
204 205 206 207 
208 209 210 211 
212 213 214 215 
216 217 218 219 
220 221 222 223 
224 225 226 227 
228 229 230 231 
232 233 234 235 
236 237 238 239 
240 241 242 243 
244 245 246 247 
248 249 250 251 
252 253 254 255 
256 257 258 259 
260 261 262 263 
264 265 266 267 
268 269 270 271 
272 273 274 275 
276 277 278 279 
280 281 282 283 
284 285 286 287 
288 289 290 291 
292 293 294 295 
296 297 298 299 
300 301 302 303 
304 305 306 307 
308 309 310 311 
312 313 314 315 
316 317 318 319 
320 321 322 323 
324 325 326 327 
328 329 330 331 
332 333 334 335 
336 337 338 339 
340 341 342 343 
344 345 346 347 
348 349 350 351 
352 353 354 355 
356 357 358 359 
360 361 362 363 
364 365 366 367 
368 369 370 371 
372 373 374 375 
376 377 378 379 
380 381 382 383 
384 385 386 387 
388 389 390 391 
392 393 394 395 
396 397 398 399 
400 401 402 403 
404 405 406 407 
408 409 410 411 
412 413 414 415 
416 417 418 419 
420 421 422 423 
424 425 426 427 
428 429 430 431 
432 433 434 435 
436 437 438 439 
440 441 442 443 
444 445 446 447 
448 449 450 451 
452 453 454 455 
456 457 458 459 
460 461 462 463 
464 465 466 467 
468 469 470 471 
472 473 474 475 
476 477 478 479 
480 481 482 483 
484 485 486 487 
488 489 490 491 
492 493 494 495 
496 497 498 499 
500 501 502 503 
504 505 506 507 
508 509 510 511 
512 513 514 515 
516 517 518 519 
520 521 522 523 
524 525 526 527 
528 529 530 531 
532 533 534 535 
536 537 538 539 
540 541 542 543 
544 545 546 547 
548 549 550 551 
552 553 554 555 
556 557 558 559 
560 561 562 563 
564 565 566 567 
568 569 570 571 
572 573 574 575 
576 577 578 579 
580 581 582 583 
584 585 586 587 
588 589 590 591 
592 593 594 595 
596 597 598 599 
600 601 602 603 
604 605 606 607 
608 609 610 611 
612 613 614 615 
616 617 618 619 
620 621 622 623 
624 625 626 627 
628 629 630 631 
632 633 634 635 
636 637 638 639 
640 641 642 643 
644 645 646 647 
648 649 650 651 
652 653 654 655 
656 657 658 659 
660 661 662 663 
664 665 666 667 
668 669 670 671 
672 673 674 675 
676 677 678 679 
680 681 682 683 
684 685 686 687 
688 689 690 691 
692 693 694 695 
696 697 698 699 
700 701 702 703 
704 705 706 707 
708 709 710 711 
712 713 714 715 
716 717 718 719 
720 721 722 723 
724 725 726 727 
728 729 730 731 
732 733 734 735 
736 737 738 739 
740 741 742 743 
744 745 746 747 
748 749 750 751 
752 753 754 755 
756 757 758 759 
760 761 762 763 
764 765 766 767 
768 769 770 771 
772 773 774 775 
776 777 778 779 
780 781 782 783 
784 785 786 787 
788 789 790 791 
792 793 794 795 
796 797 798 799 
800 801 802 803 
804 805 806 807 
808 809 810 811 
812 813 814 815 
816 817 818 819 
820 821 822 823 
824 825 826 827 
828 829 830 831 
832 833 834 835 
836 837 838 839 
840 841 842 843 
844 845 846 847 
848 849 850 851 
852 853 854 855 
856 857 858 859 
860 861 862 863 
864 865 866 867 
868 869 870 871 
872 873 874 875 
876 877 878 879 
880 881 882 883 
884 885 886 887 
888 889 890 891 
892 893 894 895 
896 897 898 899 
900 901 902 903 
904 905 906 907 
908 909 910 911 
912 913 914 915 
916 917 918 919 
920 921 922 923 
924 925 926 927 
928 929 930 931 
932 933 934 935 
936 937 938 939 
940 941 942 943 
944 945 946 947 
948 949 950 951 
952 953 954 955 
956 957 958 959 
960 961 962 963 
964 965 966 967 
968 969 970 971 
972 973 974 975 
976 977 978 979 
980 981 982 983 
984 985 986 987 
988 989 990 991 
992 993 994 995 
996 997 998 999 
1000 1001 1002 1003 
1004 1005 1006 1007 
1008 1009 1010 1011 
1012 1013 1014 1015 
1016 1017 1018 1019 
1020 1021 1022 1023 
1024 1025 1026 1027 
1028 1029 1030 1031 
1032 1033 1034 1035 
1036 1037 1038 1039 
1040 1041 1042 1043 
1044 1045 1046 1047 
1048 1049 1050 1051 
1052 1053 1054 1055 
1056 1057 1058 1059 
1060 1061 1062 1063 
1064 1065 1066 1067 
1068 1069 1070 1071 
1072 1073 1074 1075 
1076 1077 1078 1079 
1080 1081 1082 1083 
1084 1085 1086 1087 
1088 1089 1090 1091 
1092 1093 1094 1095 
1096 1097 1098 1099 
1100 1101 1102 1103 
1104 1105 1106 1107 
1108 1109 1110 1111 
1112 1113 1114 1115 
1116 1117 1118 1119 
1120 1121 1122 1123 
1124 1125 1126 1127 
1128 1129 1130 1131 
1132 1133 1134 1135 
1136 1137 1138 1139 
1140 1141 1142 1143 
1144 1145 1146 1147 
1148 1149 1150 1151 
1152 1153 1154 1155 
1156 1157 1158 1159 
1160 1161 1162 1163 
1164 1165 1166 1167 
1168 1169 1170 1171 
1172 1173 1174 1175 
1176 1177 1178 1179 
1180 1181 1182 1183 
1184 1185 1186 1187 
1188 1189 1190 1191 
1192 1193 1194 1195 
1196 1197 1198 1199 
1200 1201 1202 1203 
1204 1205 1206 1207 
1208 1209 1210 1211 
1212 1213 1214 1215 
1216 1217 1218 1219 
1220 1221 1222 1223 
1224 1225 1226 1227 
1228 1229 1230 1231 
1232 1233 1234 1235 
1236 1237 1238 1239 
1240 1241 1242 1243 
1244 1245 1246 1247 
1248 1249 1250 1251 
1252 1253 1254 1255 
1256 1257 1258 1259 
1260 1261 1262 1263 
1264 1265 1266 1267 
1268 1269 1270 1271 
1272 1273 1274 1275 
1276 1277 1278 1279 
1280 1281 1282 1283 
1284 1285 1286 1287 
1288 1289 1290 1291 
1292 1293 1294 1295 
1296 1297 1298 1299 
1300 1301 1302 1303 
1304 1305 1306 1307 
1308 1309 1310 1311 
1312 1313 1314 1315 
1316 1317 1318 1319 
1320 1321 1322 1323 
1324 1325 1326 1327 
1328 1329 1330 1331 
1332 1333 1334 1335 
1336 1337 1338 1339 
1340 1341 1342 1343 
1344 1345 1346 1347 
1348 1349 1350 1351 
1352 1353 1354 1355 
1356 1357 1358 1359 
1360 1361 1362 1363 
1364 1365 1366 1367 
1368 1369 1370 1371 
1372 1373 1374 1375 
1376 1377 1378 1379 
1380 1381 1382 1383 
1384 1385 1386 1387 
1388 1389 1390 1391 
1392 1393 1394 1395 
1396 1397 1398 1399 
1400 1401 1402 1403 
1404 1405 1406 1407 
1408 1409 1410 1411 
1412 1413 1414 1415 
1416 1417 1418 1419 
1420 1421 1422 1423 
1424 1425 1426 1427 
1428 1429 1430 1431 
1432 1433 1434 1435 
1436 1437 1438 1439 
1440 1441 1442 1443 
1444 1445 1446 1447 
1448 1449 1450 1451 
1452 1453 1454 1455 
1456 1457 1458 1459 
1460 1461 1462 1463 
1464 1465 1466 1467 
1468 1469 1470 1471 
1472 1473 1474 1475 
1476 1477 1478 1479 
1480 1481 1482 1483 
1484 1485 1486 1487 
1488 1489 1490 1491 
1492 1493 1494 1495 
1496 1497 1498 1499 
1500 1501 1502 1503 
1504 1505 1506 1507 
1508 1509 1510 1511 
1512 1513 1514 1515 
1516 1517 1518 1519 
1520 1521 1522 1523 
1524 1525 1526 1527 
1528 1529 1530 1531 
1532 1533 1534 1535 
1536 1537 1538 1539 
1540 1541 1542 1543 
1544 1545 1546 1547 
1548 1549 1550 1551 
1552 1553 1554 1555 
1556 1557 1558 1559 
1560 1561 1562 1563 
1564 1565 1566 1567 
1568 1569 1570 1571 
1572 1573 1574 1575 
1576 1577 1578 1579 
1580 1581 1582 1583 
1584 1585 1586 1587 
1588 1589 1590 1591 
1592 1593 1594 1595 
1596 1597 1598 1599 
1600 1601 1602 1603 
1604 1605 1606 1607 
1608 1609 1610 1611 
1612 1613 1614 1615 
1616 1617 1618 1619 
1620 1621 1622 1623 
1624 1625 1626 1627 
1628 1629 1630 1631 
1632 1633 1634 1635 
1636 1637 1638 1639 
1640 1641 1642 1643 
1644 1645 1646 1647 
1648 1649 1650 1651 
1652 1653 1654 1655 
1656 1657 1658 1659 
1660 1661 1662 1663 
1664 1665 1666 1667 
1668 1669 1670 1671 
1672 1673 1674 1675 
1676 1677 1678 1679 
1680 1681 1682 1683 
1684 1685 1686 1687 
1688 1689 1690 1691 
1692 1693 1694 1695 
1696 1697 1698 1699 
1700 1701 1702 1703 
1704 1705 1706 1707 
1708 1709 1710 1711 
1712 1713 1714 1715 
1716 1717 1718 1719 
1720 1721 1722 1723 
1724 1725 1726 1727 
1728 1729 1730 1731 
1732 1733 1734 1735 
1736 1737 1738 1739 
1740 1741 1742 1743 
1744 1745 1746 1747 
1748 1749 1750 1751 
1752 1753 1754 1755 
1756 1757 1758 1759 
1760 1761 1762 1763 
1764 1765 1766 1767 
1768 1769 1770 1771 
1772 1773 1774 1775 
1776 1777 1778 1779 
1780 1781 1782 1783 
1784 1785 1786 1787 
1788 1789 1790 1791 
1792 1793 1794 1795 
1796 1797 1798 1799 
1800 1801 1802 1803 
1804 1805 1806 1807 
1808 1809 1810 1811 
1812 1813 1814 1815 
1816 1817 1818 1819 
1820 1821 1822 1823 
1824 1825 1826 1827 
1828 1829 1830 1831 
1832 1833 1834 1835 
1836 1837 1838 1839 
1840 1841 1842 1843 
1844 1845 1846 1847 
1848 1849 1850 1851 
1852 1853 1854 1855 
1856 1857 1858 1859 
1860 1861 1862 1863 
1864 1865 1866 1867 
1868 1869 1870 1871 
1872 1873 1874 1875 
1876 1877 1878 1879 
1880 1881 1882 1883 
1884 1885 1886 1887 
1888 1889 1890 1891 
1892 1893 1894 1895 
1896 1897 1898 1899 
1900 1901 1902 1903 
1904 1905 1906 1907 
1908 1909 1910 1911 
1912 1913 1914 1915 
1916 1917 1918 1919 
1920 1921 1922 1923 
1924 1925 1926 1927 
1928 1929 1930 1931 
1932 1933 1934 1935 
1936 1937 1938 1939 
1940 1941 1942 1943 
1944 1945 1946 1947 
1948 1949 1950 1951 
1952 1953 1954 1955 
1956 1957 1958 1959 
1960 1961 1962 1963 
1964 1965 1966 1967 
1968 1969 1970 1971 
1972 1973 1974 1975 
1976 1977 1978 1979 
1980 1981 1982 1983 
1984 1985 1986 1987 
1988 1989 1990 1991 
1992 1993 1994 1995 
1996 1997 1998 1999 
2000 2001 2002 2003 
2004 2005 2006 2007 
2008 2009 2010 2011 
2012 2013 2014 2015 
2016 2017 2018 2019 
2020 2021 2022 2023 
2024 2025 2026 2027 
2028 2029 2030 2031 
2032 2033 2034 2035 
2036 2037 2038 2039 
2040 2041 2042 2043 
2044 2045 2046 2047 
2048 2049 2050 2051 2052 2053 2054 2055 2056 2057 2058 2059 2060 2061 2062 2063 
2064 2065 2066 2067 2068 2069 2070 2071 2072 2073 2074 2075 2076 2077 2078 2079 
</DataArray>
<DataArray type="Int32" Name="offsets" format="ascii">
4 8 12 16 20 24 28 32 36 40 44 48 52 56 60 64 68 72 76 80 84 88 92 96 100 104 108 112 116 120 124 128 132 136 140 144 148 152 156 160 164 168 172 176 180 184 188 192 196 200 204 208 212 216 220 224 228 232 236 240 244 248 252 256 260 264 268 272 276 280 284 288 292 296 300 304 308 312 316 320 324 328 332 336 340 344 348 352 356 360 364 368 372 376 380 384 388 392 396 400 404 408 412 416 420 424 428 432 436 440 444 448 452 456 460 464 468 472 476 480 484 488 492 496 500 504 508 512 516 520 524 528 532 536 540 544 548 552 556 560 564 568 572 576 580 584 588 592 596 600 604 608 612 616 620 624 628 632 636 640 644 648 652 656 660 664 668 672 676 680 684 688 692 696 700 704 708 712 716 720 724 728 732 736 740 744 748 752 756 760 764 768 772 776 780 784 788 792 796 800 804 808 812 816 820 824 828 832 836 840 844 848 852 856 860 864 868 872 876 880 884 888 892 896 900 904 908 912 916 920 924 928 932 936 940 944 948 952 956 960 964 968 972 976 980 984 988 992 996 1000 1004 1008 1012 1016 1020 1024 1028 1032 1036 1040 1044 1048 1052 1056 1060 1064 1068 1072 1076 1080 1084 1088 1092 1096 1100 1104 1108 1112 1116 1120 1124 1128 1132 1136 1140 1144 1148 1152 1156 1160 1164 1168 1172 1176 1180 1184 1188 1192 1196 1200 1204 1208 1212 1216 1220 1224 1228 1232 1236 1240 1244 1248 1252 1256 1260 1264 1268 1272 1276 1280 1284 1288 1292 1296 1300 1304 1308 1312 1316 1320 1324 1328 1332 1336 1340 1344 1348 1352 1356 1360 1364 1368 1372 1376 1380 1384 1388 1392 1396 1400 1404 1408 1412 1416 1420 1424 1428 1432 1436 1440 1444 1448 1452 1456 1460 1464 1468 1472 1476 1480 1484 1488 1492 1496 1500 1504 1508 1512 1516 1520 1524 1528 1532 1536 1540 1544 1548 1552 1556 1560 1564 1568 1572 1576 1580 1584 1588 1592 1596 1600 1604 1608 1612 1616 1620 1624 1628 1632 1636 1640 1644 1648 1652 1656 1660 1664 1668 1672 1676 1680 1684 1688 1692 1696 1700 1704 1708 1712 1716 1720 1724 1728 1732 1736 1740 1744 1748 1752 1756 1760 1764 1768 1772 1776 1780 1784 1788 1792 1796 1800 1804 1808 1812 1816 1820 1824 1828 1832 1836 1840 1844 1848 1852 1856 1860 1864 1868 1872 1876 1880 1884 1888 1892 1896 1900 1904 1908 1912 1916 1920 1924 1928 1932 1936 1940 1944 1948 1952 1956 1960 1964 1968 1972 1976 1980 1984 1988 1992 1996 2000 2004 2008 2012 2016 2020 2024 2028 2032 2036 2040 2044 2048 2064 2080 
</DataArray>
<DataArray type="UInt8" Name="types" format="ascii">
7 7 7 7 7 7 7 7 7 7 7 7 7 7 7 7 7 7 7 7 7 7 7 7 7 7 7 7 7 7 7 7 7 7 7 7 7 7 7 7 7 7 7 7 7 7 7 7 7 7 7 7 7 7 7 7 7 7 7 7 7 7 7 7 7 7 7 7 7 7 7 7 7 7 7 7 7 7 7 7 7 7 7 7 7 7 7 7 7 7 7 7 7 7 7 7 7 7 7 7 7 7 7 7 7 7 7 7 7 7 7 7 7 7 7 7 7 7 7 7 7 7 7 7 7 7 7 7 7 7 7 7 7 7 7 7 7 7 7 7 7 7 7 7 7 7 7 7 7 7 7 7 7 7 7 7 7 7 7 7 7 7 7 7 7 7 7 7 7 7 7 7 7 7 7 7 7 7 7 7 7 7 7 7 7 7 7 7 7 7 7 7 7 7 7 7 7 7 7 7 7 7 7 7 7 7 7 7 7 7 7 7 7 7 7 7 7 7 7 7 7 7 7 7 7 7 7 7 7 7 7 7 7 7 7 7 7 7 7 7 7 7 7 7 7 7 7 7 7 7 7 7 7 7 7 7 7 7 7 7 7 7 7 7 7 7 7 7 7 7 7 7 7 7 7 7 7 7 7 7 7 7 7 7 7 7 7 7 7 7 7 7 7 7 7 7 7 7 7 7 7 7 7 7 7 7 7 7 7 7 7 7 7 7 7 7 7 7 7 7 7 7 7 7 7 7 7 7 7 7 7 7 7 7 7 7 7 7 7 7 7 7 7 7 7 7 7 7 7 7 7 7 7 7 7 7 7 7 7 7 7 7 7 7 7 7 7 7 7 7 7 7 7 7 7 7 7 7 7 7 7 7 7 7 7 7 7 7 7 7 7 7 7 7 7 7 7 7 7 7 7 7 7 7 7 7 7 7 7 7 7 7 7 7 7 7 7 7 7 7 7 7 7 7 7 7 7 7 7 7 7 7 7 7 7 7 7 7 7 7 7 7 7 7 7 7 7 7 7 7 7 7 7 7 7 7 7 7 7 7 7 7 7 7 7 7 7 7 7 7 7 7 7 7 7 7 7 7 7 7 7 7 7 7 7 7 7 7 7 7 7 7 7 7 7 7 7 7 7 7 7 7 7 7 7 7 7 7 7 7 7 7 7 7 
</DataArray>
</Cells>
<CellData Scalars="cell variable 4" Vectors="cell vector">
<DataArray type="Float64" NumberOfComponents="3" Name="cell vector" format="ascii">
0.165308 0.0962449 0.981535
0.500548 0.219541 0.837409
0.762005 0.295462 0.576238
0.892498 0.382559 0.238948
0.771166 0.608089 -0.188494
0.377289 0.725985 -0.574977
-0.163727 -0.548008 0.820293
-0.032193 -0.219528 0.975075
0.0459906 0.208126 0.97702
0.14644 0.557377 0.817243
0.365806 0.731908 0.574888
0.764692 0.61556 0.190608
0.889715 0.389501 -0.238111
0.750186 0.324121 -0.57634
-0.484767 -0.250637 0.837963
-0.178259 -0.07429 0.981175
0.154437 0.119054 0.980803
0.443874 0.333875 0.831567
0.663971 0.499719 0.556259
0.775059 0.600562 0.196489
0.748947 0.633288 -0.195002
0.585725 0.59032 -0.555382
-0.368672 -0.418596 0.829975
-0.127291 -0.15006 0.980448
0.129253 0.147564 0.98057
0.366418 0.42047 0.830026
0.583936 0.591833 0.555655
0.747492 0.634877 0.195413
0.773241 0.603012 -0.196152
0.66156 0.503007 -0.556168
-0.442197 -0.336147 0.831545
-0.156785 -0.116342 0.980756
0.154626 0.119742 0.98069
0.441779 0.338327 0.830883
0.660355 0.506102 0.55479
0.773674 0.602908 0.194759
0.754657 0.626418 -0.195176
0.580144 0.597856 -0.553173
-0.370833 -0.419635 0.828486
-0.130183 -0.148101 0.980366
0.131562 0.146327 0.980449
0.369789 0.42036 0.828585
0.579353 0.59832 0.553501
0.753452 0.627764 0.195506
0.772374 0.604654 -0.194503
0.659198 0.507836 -0.554581
-0.440672 -0.339835 0.830855
-0.155423 -0.118549 0.980709
0.155951 0.11865 0.980613
0.444814 0.335595 0.830371
0.665537 0.500622 0.553568
0.781598 0.593088 0.193263
0.765676 0.612779 -0.195557
0.560802 0.617968 -0.551015
-0.142133 -0.628758 0.764501
-0.584948 0.767672 -0.261756
-0.589595 0.768639 0.248138
0.127429 0.639081 0.75851
0.560172 0.618263 0.551324
0.764591 0.614039 0.19585
0.780637 0.594435 -0.193012
0.664915 0.501752 -0.553294
-0.443841 -0.336938 0.830348
-0.155981 -0.118064 0.980679
0.157428 0.117076 0.980566
0.448116 0.33189 0.830085
0.669673 0.495758 0.552957
0.785704 0.587891 0.192493
0.771123 0.605819 -0.195838
0.599598 0.578982 -0.552505
-0.20623 -0.586817 0.783016
-0.551889 0.778969 -0.297701
-0.552988 0.779191 0.295069
0.192911 0.597516 0.778306
0.599039 0.579292 0.552786
0.770444 0.60658 0.196153
0.785111 0.588782 -0.192186
0.66937 0.496528 -0.552633
-0.447375 -0.332951 0.83006
-0.157076 -0.116794 0.980656
0.158718 0.115292 0.980569
0.451391 0.327229 0.830161
0.674484 0.489015 0.553114
0.792125 0.579202 0.192516
0.781271 0.592593 -0.196087
0.62827 0.547138 -0.553097
-0.275909 -0.529763 0.802013
-0.504482 0.778735 -0.37292
-0.50645 0.779556 0.368512
0.256865 0.547599 0.796339
0.627151 0.548157 0.553358
0.780666 0.593273 0.196439
0.791736 0.579855 -0.192151
0.67436 0.489592 -0.552755
-0.45083 -0.328066 0.830136
-0.158208 -0.115131 0.980671
0.160216 0.112996 0.980593
0.455507 0.320958 0.830361
0.680771 0.479828 0.553458
0.800407 0.567649 0.192671
0.792815 0.576975 -0.196328
0.650029 0.520531 -0.553634
-0.335135 -0.472938 0.81487
-0.432643 0.756217 -0.490872
-0.435971 0.758375 0.484558
0.314151 0.495366 0.80989
0.648523 0.52214 0.553884
0.792198 0.577698 0.196691
0.800116 0.568193 -0.192279
0.68073 0.480319 -0.553083
-0.455078 -0.321631 0.830336
-0.159649 -0.112867 0.9807
0.161949 0.110266 0.980619
0.460397 0.31337 0.830562
0.688259 0.468635 0.553787
0.809935 0.553919 0.192819
0.804688 0.560221 -0.196544
0.667846 0.496925 -0.554119
-0.381577 -0.422138 0.822313
-0.312902 0.679611 -0.663492
-0.298125 0.665654 0.684124
0.362285 0.445283 0.818824
0.666099 0.498997 0.554359
0.804054 0.561007 0.196899
0.8097 0.5544 -0.192424
0.68826 0.469081 -0.553409
-0.46006 -0.313922 0.83054
-0.161358 -0.110139 0.980731
0.163865 0.107201 0.980641
0.465845 0.304771 0.830724
0.69656 0.455893 0.554045
0.820232 0.538513 0.192932
0.816534 0.542743 -0.196726
0.683025 0.475398 -0.554504
-0.415525 -0.3807 0.826079
0.150083 -0.527875 0.835956
-0.103987 0.472996 0.874907
0.399871 0.40146 0.823974
0.681439 0.477399 0.554735
0.815958 0.543487 0.197063
0.820033 0.538955 -0.192546
0.696579 0.456318 -0.553671
-0.465566 -0.305241 0.830708
-0.163257 -0.107068 0.980757
0.165895 0.103884 0.980656
0.47164 0.295388 0.830844
0.705348 0.441942 0.554231
0.830922 0.521838 0.193011
0.82824 0.524653 -0.196868
0.696353 0.455309 -0.554785
-0.441045 -0.34636 0.827957
-0.0154572 -0.329684 0.943965
0.0224185 0.320208 0.947082
0.4291 0.363704 0.826797
0.695069 0.457001 0.555004
0.82775 0.525305 0.197191
0.830752 0.522248 -0.192634
0.705375 0.442358 -0.553864
-0.471398 -0.295798 0.830836
-0.165272 -0.103741 0.980777
0.167983 0.100374 0.980666
0.47759 0.285421 0.830929
0.714341 0.427082 0.554362
0.841747 0.504172 0.19306
0.839753 0.505978 -0.196981
0.708397 0.436064 -0.554997
-0.460085 -0.318361 0.828836
-0.0882393 -0.230666 0.969024
0.0838072 0.238011 0.96764
0.451477 0.331949 0.828239
0.70721 0.437732 0.555198
0.839303 0.506604 0.197289
0.841603 0.504554 -0.192693
0.714381 0.427479 -0.554005
-0.477375 -0.285776 0.83093
-0.167344 -0.100216 0.980792
0.170081 0.0967148 0.980673
0.483551 0.275027 0.830986
0.723336 0.411546 0.55445
0.852535 0.485698 0.193085
0.850991 0.486803 -0.197071
0.719383 0.417484 -0.555154
-0.473822 -0.296488 0.829209
-0.123631 -0.178673 0.97611
0.120733 0.184184 0.975449
0.46806 0.306333 0.828903
0.718351 0.419017 0.555335
0.850579 0.487407 0.197358
0.852404 0.486067 -0.192734
0.723384 0.411927 -0.554104
-0.483357 -0.275333 0.830998
-0.169426 -0.0965394 0.980803
0.172156 0.0929389 0.980676
0.489445 0.264286 0.831021
0.73221 0.395467 0.554503
0.863125 0.466615 0.193096
0.861869 0.467246 -0.197138
0.729548 0.399305 -0.55526
-0.484493 -0.278206 0.829378
-0.144667 -0.145509 0.978723
0.14545 0.144919 0.978694
0.480879 0.284915 0.829204
0.7287 0.400628 0.555422
0.861508 0.4678 0.197404
0.863008 0.466968 -0.192763
0.732264 0.395833 -0.554171
-0.489264 -0.264547 0.831045
-0.171484 -0.0927457 0.980812
0.174186 0.0890645 0.980677
0.495208 0.253259 0.831041
0.740868 0.378955 0.554534
0.873418 0.44705 0.193098
0.87235 0.447352 -0.197186
0.739047 0.381337 -0.555331
-0.49321 -0.262184 0.82946
-0.158063 -0.122864 0.979755
0.161747 0.116743 0.979902
0.491077 0.266552 0.829333
0.738376 0.382425 0.555474
0.872049 0.44783 0.197432
0.873323 0.447372 -0.192784
0.740929 0.379299 -0.554216
-0.495036 -0.25348 0.831076
-0.173495 -0.0888566 0.980818
0.176156 0.0851108 0.980676
0.500791 0.242006 0.831049
0.749239 0.362103 0.554547
0.883346 0.4271 0.193095
0.882406 0.427159 -0.197219
0.747978 0.36344 -0.555375
-0.500684 -0.247476 0.829501
-0.167155 -0.106317 0.980182
0.172613 0.0962143 0.980279
0.49952 0.250203 0.829385
0.747466 0.364298 0.5555
0.88217 0.427542 0.197446
0.883278 0.427375 -0.192799
0.749311 0.362417 -0.554244
-0.500625 -0.242188 0.831096
-0.175442 -0.0848926 0.980823
0.178051 0.0810946 0.980674
0.506154 0.230581 0.831048
0.75727 0.344993 0.554547
0.892856 0.406849 0.193086
0.892012 0.406707 -0.197241
0.756408 0.345513 -0.555398
-0.50741 -0.233301 0.829521
-0.173994 -0.0927668 0.980368
0.180799 0.0790803 0.980336
0.506898 0.234834 0.829402
0.756037 0.346149 0.555508
0.891842 0.406978 0.197449
0.892819 0.407062 -0.192807
0.757356 0.345267 -0.554258
-0.505994 -0.230724 0.831106
-0.177313 -0.0808724 0.980826
0.17986 0.0770339 0.980671
0.511269 0.219037 0.831039
0.76492 0.327702 0.554535
0.901905 0.386381 0.193072
0.901146 0.38604 -0.197252
0.764395 0.327454 -0.555405
-0.513748 -0.218966 0.829528
-0.180101 -0.0793623 0.980441
0.188978 0.0598883 0.980153
0.513785 0.219364 0.8294
0.764152 0.32786 0.555499
0.901045 0.386179 0.197443
0.901901 0.386521 -0.19281
0.765022 0.327932 -0.554258
-0.511114 -0.219141 0.831107
-0.179099 -0.0768141 0.980828
0.181573 0.0729502 0.980668
0.516115 0.207426 0.831024
0.772158 0.310304 0.554511
0.910459 0.36578 0.193054
0.909785 0.365214 -0.197255
0.771995 0.309123 -0.555398
-0.519923 -0.203903 0.82952
-0.18703 -0.0622892 0.980377
0.201126 0.0280713 0.979163
0.52065 0.202625 0.829378
0.77189 0.30924 0.555478
0.909753 0.3652 0.19743
0.910486 0.365844 -0.192805
0.772273 0.310495 -0.554245
-0.515964 -0.207494 0.8311
-0.180791 -0.0727356 0.980828
0.183188 0.06886 0.980663
0.520677 0.195795 0.830999
0.778963 0.292872 0.554475
0.918492 0.345125 0.193032
0.917913 0.344281 -0.197246
0.779237 0.29043 -0.555375
-0.526058 -0.187634 0.829491
-0.196523 -0.0359837 0.979839
0.231067 -0.0594066 0.971122
0.527929 0.183165 0.829302
0.779283 0.290173 0.555444
0.917936 0.344124 0.197412
0.918541 0.345128 -0.192793
0.779087 0.29303 -0.554217
-0.520532 -0.195825 0.831083
-0.182389 -0.0686499 0.980827
0.184702 0.0647817 0.980657
0.524946 0.184205 0.830964
0.785315 0.275493 0.554422
0.92599 0.324488 0.193005
0.925547 0.323213 -0.197219
0.786188 0.271165 -0.555319
-0.532161 -0.169937 0.829413
-0.206919 -0.00300674 0.978353
0.296995 -0.296308 0.907742
0.535216 0.16157 0.82912
0.786253 0.27085 0.555379
0.925596 0.322978 0.197374
0.926058 0.324429 -0.192777
0.785449 0.275613 -0.554172
-0.524809 -0.18419 0.831053
-0.183888 -0.0645788 0.980823
0.186113 0.0607397 0.980649
0.528912 0.172733 0.830912
0.791192 0.258296 0.554345
0.932912 0.304036 0.192969
0.932646 0.302154 -0.197168
0.792888 0.251131 -0.555213
-0.538882 -0.1484 0.829207
-0.222308 0.0522375 0.973576
0.287718 -0.292775 0.911867
0.543396 0.134336 0.828659
0.793048 0.250511 0.555265
0.932739 0.301775 0.197307
0.932998 0.303908 -0.192756
0.791332 0.258386 -0.554104
-0.528782 -0.172675 0.831007
-0.185285 -0.060552 0.980817
0.187419 0.0567682 0.980638
0.532569 0.161479 0.83084
0.796576 0.241433 0.554236
0.939233 0.283943 0.19292
0.939186 0.281218 -0.197094
0.799341 0.230122 -0.555065
-0.546482 -0.120749 0.82872
-0.249511 0.166238 0.953997
0.313663 -0.469841 0.825145
0.553008 0.0971761 0.827489
0.799732 0.228653 0.55511
0.939345 0.280594 0.197226
0.939333 0.283751 -0.192716
0.796715 0.241511 -0.554001
-0.532445 -0.161377 0.830939
-0.186578 -0.0566037 0.980808
0.188621 0.0529164 0.980623
0.535909 0.150584 0.830738
0.801453 0.225095 0.554081
0.94495 0.264347 0.192849
0.945213 0.26032 -0.196994
0.805594 0.207744 -0.554853
-0.554502 -0.0864783 0.827677
-0.284864 0.366548 0.885717
-0.324611 0.699932 -0.636178
0.5627 0.0512017 0.825074
0.806039 0.205899 0.554894
0.9454 0.25954 0.197124
0.945064 0.264083 -0.19265
0.801598 0.225144 -0.553851
-0.535796 -0.150419 0.830841
-0.187766 -0.0527824 0.980795
0.189717 0.0492468 0.980603
0.538928 0.140242 0.830596
0.805802 0.209579 0.553859
0.950024 0.245567 0.192744
0.950697 0.239631 -0.196855
0.811648 0.183629 -0.554533
-0.563061 -0.0415634 0.825369
-0.305098 0.626328 0.717376
-0.308759 0.755603 -0.577695
0.572094 -0.00778133 0.820151
0.812127 0.181396 0.554568
0.950897 0.238734 0.196981
0.950147 0.245242 -0.192553
0.805952 0.209596 -0.553634
-0.538831 -0.139986 0.830701
-0.188852 -0.0491506 0.980775
0.190704 0.0458468 0.980576
0.541611 0.130724 0.830403
0.80959 0.195301 0.553553
0.954415 0.228035 0.192594
0.955627 0.219303 -0.196681
0.817493 0.157108 -0.554096
-0.571441 0.0182257 0.82044
-0.288935 0.804062 0.519616
-0.286256 0.832339 -0.474625
0.579628 -0.0832239 0.810621
0.818048 0.154122 0.554115
0.955841 0.218255 0.196805
0.954541 0.227664 -0.19241
0.809743 0.195289 -0.553334
-0.541535 -0.130341 0.830512
-0.189833 -0.0457997 0.980748
0.191561 0.0428393 0.980545
0.54392 0.1224 0.830162
0.812778 0.18279 0.553154
0.958094 0.212236 0.192383
0.960026 0.199364 -0.196482
0.823094 0.126968 -0.55353
-0.577544 0.0940749 0.810921
-0.259081 0.883897 0.389363
-0.256532 0.894683 -0.365697
0.582213 -0.169935 0.795078
0.82361 0.123573 0.55353
0.960224 0.198278 0.196609
0.958219 0.211835 -0.192206
0.812936 0.182722 -0.552945
-0.543876 -0.121816 0.830277
-0.190696 -0.0428563 0.980713
0.192237 0.0403647 0.980518
0.54576 0.115711 0.829914
0.815289 0.172685 0.552706
0.96101 0.198876 0.192116
0.963835 0.180255 -0.196289
0.828338 0.0908265 -0.552818
-0.578462 0.186326 0.794144
-0.227849 0.924967 0.304174
-0.226072 0.929601 -0.291089
0.577661 -0.262321 0.772978
0.828701 0.0876146 0.552791
0.963979 0.179348 0.196412
0.961124 0.198473 -0.191961
0.815452 0.172502 -0.552522
-0.545763 -0.114806 0.830038
-0.191405 -0.0404711 0.980676
0.19262 0.0384875 0.980518
0.546905 0.110965 0.829808
0.816919 0.165619 0.552461
0.962996 0.18918 0.191963
0.966768 0.16398 -0.196137
0.832839 0.0431706 -0.551829
-0.569286 0.302965 0.764281
-0.192382 0.954614 0.227377
-0.191872 0.955545 -0.223872
0.563492 -0.362218 0.742479
0.83296 0.0414687 0.551777
0.96684 0.163477 0.196202
0.96311 0.188686 -0.19188
0.817091 0.165165 -0.552344
-0.546976 -0.109588 0.829944
-0.19188 -0.0387692 0.980652
0.19252 0.0370237 0.980594
0.546816 0.108151 0.830238
0.816846 0.163045 0.553335
0.963003 0.188031 0.193054
0.967532 0.159904 -0.195734
0.834778 -0.0427482 -0.548925
-0.500444 0.583671 0.63944
-0.136129 0.982682 0.125715
-0.134654 0.983891 -0.117587
0.484471 -0.62853 0.608472
0.834781 -0.0453861 0.548708
0.967796 0.158222 0.195796
0.963212 0.186992 -0.193017
0.817031 0.162095 -0.55334
-0.546992 -0.106178 0.830377
-0.191964 -0.0377406 0.980676
0.191668 0.0340117 0.98087
0.545095 0.0995116 0.832447
0.816317 0.14918 0.558007
0.965225 0.170373 0.198276
0.970698 0.141291 -0.194378
0.829188 0.0156403 -0.558752
-0.555294 0.00956158 0.831599
-0.195133 0.00310686 0.980772
0.195119 -0.00146966 0.980779
0.555272 -0.0121591 0.83158
0.829151 0.0138859 0.558853
0.970905 0.139429 0.194687
0.965499 0.16906 -0.198064
0.816578 0.147951 -0.557953
-0.545445 -0.0975732 0.832448
-0.191188 -0.0350534 0.980927
0.191959 0.0314606 0.980899
0.545706 0.0925664 0.832849
0.817404 0.139001 0.559043
0.967063 0.158121 0.199466
0.972278 0.129347 -0.194795
0.826562 0.046025 -0.560961
-0.550343 -0.00577717 0.834919
-0.192746 -0.000464542 0.981249
0.193013 0.0010734 0.981196
0.550179 0.00186844 0.835044
0.826476 0.0457087 0.561113
0.972356 0.128286 0.195105
0.967342 0.156804 -0.199151
0.81772 0.137825 -0.558872
-0.546096 -0.0909423 0.832772
-0.191363 -0.0326874 0.980975
0.190192 0.0333108 0.981182
0.539964 0.101355 0.835563
0.810071 0.154728 0.565548
0.963909 0.168893 0.205801
0.974104 0.0994861 -0.203036
0.8167 -0.00558006 -0.577035
-0.539642 0.0234278 0.841568
-0.188541 0.0106314 0.982008
0.188866 -0.00817469 0.981969
0.538158 -0.0324951 0.842218
0.816449 -0.00748255 0.577369
0.97415 0.0982687 0.20341
0.964351 0.167014 -0.205267
0.810922 0.152008 -0.565065
-0.541517 -0.0972763 0.835043
-0.189013 -0.0362692 0.981305
0.0170215 0.0142776 0.999753
0.00257188 0.000343963 0.999997
</DataArray>
<DataArray type="Float64" Name="cell vector length" format="ascii">
0.12798 0.109943 0.0969713 0.0777255 0.0562684 0.0961236 0.153448 0.154398 0.150272 0.146516 0.0986936 0.0563219 0.076504 0.0946563 0.130381 0.136467 0.393414 0.370977 0.346148 0.321167 0.302922 0.324809 0.391348 0.424619 0.419262 0.376353 0.322948 0.302887 0.321924 0.348864 0.39139 0.40061 0.492317 0.471656 0.444808 0.413106 0.381194 0.401386 0.485761 0.532169 0.52866 0.474478 0.400162 0.381342 0.413993 0.446679 0.48757 0.497533 0.517211 0.495776 0.465595 0.426133 0.373816 0.267992 0.127067 0.0677136 0.0671954 0.122257 0.269083 0.373998 0.426808 0.466849 0.510214 0.521803 0.529881 0.507179 0.472795 0.424306 0.354403 0.24489 0.119114 0.0536816 0.0526928 0.114145 0.245669 0.354665 0.42482 0.473614 0.520839 0.534118 0.537952 0.513568 0.474742 0.418115 0.337015 0.225039 0.111108 0.0355501 0.0346528 0.102065 0.225659 0.337326 0.418509 0.475256 0.52681 0.542 0.543643 0.517758 0.475328 0.412704 0.324705 0.210883 0.105297 0.0219141 0.0209018 0.091669 0.211142 0.324887 0.412941 0.475618 0.530786 0.547597 0.547596 0.520541 0.475473 0.408689 0.316238 0.201012 0.101767 0.0139114 0.0125542 0.084127 0.200878 0.316189 0.408738 0.475589 0.533482 0.551511 0.550305 0.52237 0.475416 0.405789 0.3104 0.194194 0.0995411 0.0109633 0.0104997 0.0791129 0.193698 0.310094 0.405648 0.475386 0.535297 0.554213 0.552134 0.523545 0.475256 0.403688 0.306351 0.189905 0.0990478 0.0128141 0.0109713 0.0759658 0.189142 0.305825 0.403374 0.475098 0.536499 0.556053 0.553324 0.524247 0.475048 0.40218 0.303544 0.186663 0.098339 0.0150531 0.0102864 0.0735049 0.185707 0.302833 0.40171 0.474779 0.537254 0.557266 0.554086 0.524641 0.474812 0.401069 0.30157 0.184402 0.0979051 0.016419 0.00958161 0.0718833 0.183269 0.300687 0.40046 0.474445 0.537719 0.558056 0.554563 0.524838 0.474566 0.400235 0.300157 0.182785 0.0975204 0.0172193 0.00901524 0.0707134 0.18152 0.299125 0.399499 0.474112 0.537996 0.558567 0.554842 0.524901 0.474324 0.3996 0.299128 0.1816 0.0971745 0.0176129 0.00854642 0.0698211 0.180242 0.297975 0.398755 0.473794 0.538144 0.558882 0.554979 0.524873 0.474092 0.399111 0.298371 0.180714 0.0968509 0.017697 0.00807388 0.0690803 0.179288 0.297123 0.398179 0.473499 0.538206 0.559056 0.555006 0.524775 0.473871 0.398739 0.297821 0.180047 0.0965312 0.0175208 0.0074846 0.0684083 0.178569 0.296501 0.397745 0.473235 0.538207 0.559123 0.554935 0.524616 0.473661 0.398475 0.29745 0.179541 0.0961676 0.0170834 0.00664107 0.0677193 0.178023 0.29608 0.397445 0.473007 0.538156 0.559096 0.554766 0.524396 0.473462 0.398317 0.297262 0.17915 0.0957237 0.0163672 0.00531531 0.0668618 0.177573 0.295864 0.397281 0.472812 0.538051 0.558973 0.554482 0.5241 0.473269 0.398277 0.297287 0.178981 0.0953257 0.0154082 0.00335649 0.0659515 0.177352 0.295889 0.397263 0.472645 0.537879 0.558738 0.554041 0.523701 0.473082 0.398397 0.297616 0.179141 0.0949781 0.013999 0.0022226 0.0649174 0.177448 0.296229 0.397428 0.472508 0.537615 0.558351 0.553379 0.523149 0.472893 0.398741 0.298393 0.179796 0.0947218 0.012863 0.00371752 0.0646531 0.178017 0.297026 0.397845 0.472396 0.537214 0.557747 0.552395 0.522371 0.472688 0.399382 0.299796 0.181167 0.094677 0.0111547 0.00441248 0.0643577 0.179361 0.2985 0.398594 0.472291 0.536601 0.556829 0.550947 0.521262 0.472451 0.400455 0.302116 0.1836 0.0949522 0.00949451 0.00632015 0.0644781 0.181821 0.300947 0.399811 0.472181 0.535676 0.555454 0.548825 0.519667 0.472169 0.402169 0.305792 0.1876 0.0957828 0.0106265 0.00989499 0.066432 0.185861 0.304778 0.401701 0.472055 0.534299 0.553421 0.545732 0.517362 0.471802 0.404784 0.311396 0.193826 0.0977107 0.0168168 0.0161686 0.0705179 0.192243 0.310595 0.404515 0.471866 0.532255 0.55044 0.541216 0.51398 0.471215 0.408587 0.319715 0.203109 0.101408 0.0282064 0.0276213 0.0777885 0.201869 0.3192 0.408524 0.471469 0.529194 0.546071 0.534395 0.508668 0.469725 0.413357 0.331406 0.216006 0.107061 0.0450869 0.0447782 0.0887239 0.215293 0.331195 0.413459 0.470173 0.524314 0.539457 0.522133 0.497879 0.463274 0.414976 0.343974 0.229591 0.111055 0.0711381 0.0713821 0.100476 0.229026 0.343835 0.415137 0.463948 0.514243 0.527533 0.485857 0.461408 0.428987 0.38732 0.331369 0.21068 0.0942233 0.133657 0.13397 0.0928365 0.212329 0.331299 0.387495 0.42989 0.479404 0.491919 0.463179 0.438994 0.408106 0.371426 0.334508 0.35771 0.45614 0.50439 0.499065 0.440064 0.356619 0.334706 0.371775 0.409187 0.458057 0.469591 0.42439 0.399367 0.367874 0.333052 0.307768 0.327282 0.407626 0.445802 0.438619 0.386459 0.326266 0.308176 0.333492 0.368999 0.419459 0.431172 0.193651 0.173763 0.148231 0.119088 0.106909 0.14035 0.226903 0.270139 0.26476 0.210082 0.142085 0.108066 0.119109 0.146913 0.19279 0.199586 0.0326129 0.0152124 
</DataArray>
<DataArray type="Float64" Name="cell variable 4" format="ascii">
833.754 823.215 817.66 812.622 807.149 826.048 848.503 836.994 833.499 840.506 827.302 807.156 811.901 815.095 836.714 838.186 1127.35 1106.56 1093.49 1086.08 1083.53 1099.63 1138.89 1138.64 1132.25 1118.94 1099.95 1083.61 1085.78 1093.48 1135.09 1136.72 1331.68 1308 1292.42 1282.51 1277.69 1291.64 1342.56 1345.53 1339.09 1320.45 1291.98 1277.84 1282.55 1292.65 1342.03 1342.54 1379.94 1352.92 1332.15 1316.05 1303.66 1304.79 1357.86 1416.12 1413.63 1345.62 1304.65 1303.47 1315.99 1332.38 1388.12 1391.18 1390.71 1363.57 1343.1 1328.4 1317.77 1312.89 1350.75 1386.47 1385.06 1339.83 1312.67 1317.56 1328.36 1343.3 1399.03 1401.99 1394.2 1366.14 1344.33 1328.57 1317.15 1310.91 1345.49 1361.73 1360.83 1329.75 1311.06 1317.13 1328.61 1344.5 1401.69 1405.51 1396.55 1367.32 1343.88 1326.95 1315.12 1308.7 1342.18 1343.82 1343.22 1321.12 1308.98 1315.21 1327.05 1344.05 1403.02 1407.91 1398.27 1368.06 1343.27 1325.41 1313.36 1306.94 1340.55 1332.18 1332 1314.71 1307.22 1313.5 1325.56 1343.45 1403.98 1409.72 1399.6 1368.58 1342.69 1324.12 1311.94 1305.55 1339.94 1326.45 1326.8 1310.29 1305.78 1312.12 1324.31 1342.89 1404.78 1411.17 1400.62 1368.94 1342.2 1323.13 1310.84 1304.41 1339.62 1325.36 1323.62 1307.32 1304.68 1311.06 1323.34 1342.42 1405.44 1412.31 1401.3 1369.11 1341.82 1322.37 1309.97 1303.48 1339.5 1326.01 1320.47 1305.34 1303.81 1310.22 1322.6 1342.04 1405.9 1413.13 1401.77 1369.15 1341.51 1321.81 1309.32 1302.77 1339.54 1326.17 1317.88 1303.99 1303.1 1309.6 1322.07 1341.74 1406.24 1413.73 1402.11 1369.12 1341.22 1321.36 1308.79 1302.18 1339.53 1326.26 1316.12 1303.01 1302.5 1309.09 1321.63 1341.46 1406.52 1414.2 1402.32 1369.02 1340.94 1320.98 1308.36 1301.66 1339.5 1326.3 1314.96 1302.27 1301.98 1308.66 1321.26 1341.19 1406.71 1414.55 1402.41 1368.86 1340.67 1320.67 1308.01 1301.22 1339.46 1326.31 1314.19 1301.67 1301.53 1308.31 1320.96 1340.93 1406.83 1414.76 1402.37 1368.64 1340.41 1320.43 1307.72 1300.84 1339.41 1326.28 1313.57 1301.15 1301.14 1308.02 1320.71 1340.68 1406.88 1414.85 1402.21 1368.35 1340.17 1320.24 1307.51 1300.51 1339.36 1326.22 1312.95 1300.67 1300.81 1307.81 1320.54 1340.44 1406.84 1414.8 1401.94 1368.01 1339.93 1320.11 1307.35 1300.24 1339.32 1326.13 1312.11 1300.2 1300.53 1307.66 1320.41 1340.2 1406.71 1414.63 1401.57 1367.6 1339.68 1320.01 1307.23 1299.99 1339.28 1326.1 1310.96 1299.81 1300.32 1307.56 1320.31 1339.95 1406.51 1414.35 1401.07 1367.14 1339.44 1319.97 1307.18 1299.78 1339.2 1326 1311.4 1299.36 1300.12 1307.5 1320.27 1339.7 1406.22 1413.94 1400.45 1366.59 1339.2 1320 1307.23 1299.67 1339.1 1325.73 1314.05 1298.76 1299.94 1307.55 1320.31 1339.47 1405.85 1413.4 1399.67 1365.97 1338.98 1320.11 1307.36 1299.57 1339.02 1325.84 1317.01 1298.48 1299.84 1307.67 1320.41 1339.24 1405.38 1412.69 1398.71 1365.26 1338.8 1320.35 1307.6 1299.54 1339.01 1326.83 1321.64 1298.7 1299.85 1307.9 1320.62 1339.04 1404.8 1411.79 1397.49 1364.43 1338.68 1320.79 1308.08 1299.67 1339.2 1330.06 1328.27 1299.67 1299.95 1308.36 1321.05 1338.91 1404.09 1410.63 1395.94 1363.45 1338.65 1321.5 1308.82 1299.93 1339.94 1338.32 1338.2 1302.5 1300.21 1309.08 1321.73 1338.86 1403.21 1409.12 1393.82 1362.13 1338.59 1322.35 1309.67 1300.13 1341.65 1352.41 1352.92 1308.09 1300.49 1309.92 1322.53 1338.75 1401.95 1407.02 1389.93 1359.23 1337.12 1321.88 1309.29 1299.08 1344.06 1372.67 1373.42 1316.26 1299.6 1309.49 1321.99 1337.23 1399.04 1403.14 1376.55 1346.3 1324.75 1310.01 1298.03 1288.91 1341.81 1400.06 1400.84 1323.73 1288.8 1297.93 1310.04 1324.89 1385.82 1389.69 1303.62 1273.46 1250.23 1232.56 1217.87 1216.16 1303.94 1440.68 1438.38 1292.18 1216 1217.58 1232.47 1250.24 1310.6 1316.01 1241.68 1214.89 1196.36 1184.45 1177.33 1188.61 1251.3 1259.6 1251.31 1225.11 1189.09 1177.34 1184.34 1196.23 1250.09 1253.45 1113.84 1088.1 1068.26 1053.62 1044.68 1051.82 1103.63 1108.53 1098.33 1073.38 1052.15 1044.87 1053.55 1068.31 1119.39 1124.47 789.076 780.934 781.066 787.038 795.951 811.961 854.351 862.748 856.438 835.045 813.329 796.261 786.864 779.432 799.766 794.77 609.64 745.326 
</DataArray>
<DataArray type="Float64" Name="cell variable 5" format="ascii">
0.00779067 0.00779067 0.00779067 0.00779067 0.00779067 0.00779067 0.00779067 0.00779067 0.00779067 0.00779067 0.00779067 0.00779067 0.00779067 0.00779067 0.00779067 0.00779067 0.00779067 0.00779067 0.00779067 0.00779067 0.00779067 0.00779067 0.00779067 0.00779067 0.00779067 0.00779067 0.00779067 0.00779067 0.00779067 0.00779067 0.00779067 0.00779067 0.00779067 0.00779067 0.00779067 0.00779067 0.00779067 0.00779067 0.00779067 0.00779067 0.00779067 0.00779067 0.00779067 0.00779067 0.00779067 0.00779067 0.00779067 0.00779067 0.0117743 0.0109 0.00948903 0.00814384 0.00779067 0.00779067 0.00779067 0.00779067 0.00779067 0.00779067 0.00779067 0.00779067 0.00814384 0.00948903 0.0109 0.0117743 0.013322 0.0121084 0.0101486 0.00828061 0.00779067 0.00779067 0.00779067 0.00779067 0.00779067 0.00779067 0.00779067 0.00779067 0.00828061 0.0101486 0.0121084 0.013322 0.0142188 0.0128096 0.0105312 0.00836025 0.00779067 0.00779067 0.00779067 0.00779067 0.00779067 0.00779067 0.00779067 0.00779067 0.00836025 0.0105312 0.0128096 0.0142188 0.0148715 0.0133168 0.01081 0.00841911 0.00779067 0.00779067 0.00779067 0.00779067 0.00779067 0.00779067 0.00779067 0.00779067 0.00841911 0.01081 0.0133168 0.0148715 0.0153805 0.013715 0.0110264 0.00846413 0.00779067 0.00779067 0.00779067 0.00779067 0.00779067 0.00779067 0.00779067 0.00779067 0.00846413 0.0110264 0.013715 0.0153805 0.0157908 0.0140353 0.0112012 0.00850048 0.00779067 0.00779067 0.00779067 0.00779067 0.00779067 0.00779067 0.00779067 0.00779067 0.00850048 0.0112012 0.0140353 0.0157908 0.0161267 0.0142967 0.0113449 0.00852991 0.00779067 0.00779067 0.00779067 0.00779067 0.00779067 0.00779067 0.00779067 0.00779067 0.00852991 0.0113449 0.0142967 0.0161267 0.0163985 0.0145097 0.0114609 0.00855415 0.00779067 0.00779067 0.00779067 0.00779067 0.00779067 0.00779067 0.00779067 0.00779067 0.00855415 0.0114609 0.0145097 0.0163985 0.0166166 0.0146811 0.0115544 0.0085732 0.00779067 0.00779067 0.00779067 0.00779067 0.00779067 0.00779067 0.00779067 0.00779067 0.0085732 0.0115544 0.0146811 0.0166166 0.0167863 0.0148127 0.0116254 0.00858878 0.00779067 0.00779067 0.00779067 0.00779067 0.00779067 0.00779067 0.00779067 0.00779067 0.00858878 0.0116254 0.0148127 0.0167863 0.0169109 0.0149096 0.0116791 0.00859916 0.00779067 0.00779067 0.00779067 0.00779067 0.00779067 0.00779067 0.00779067 0.00779067 0.00859916 0.0116791 0.0149096 0.0169109 0.016994 0.0149737 0.0117137 0.00860782 0.00779067 0.00779067 0.00779067 0.00779067 0.00779067 0.00779067 0.00779067 0.00779067 0.00860782 0.0117137 0.0149737 0.016994 0.0170339 0.0150066 0.011731 0.00861128 0.00779067 0.00779067 0.00779067 0.00779067 0.00779067 0.00779067 0.00779067 0.00779067 0.00861128 0.011731 0.0150066 0.0170339 0.0170339 0.0150066 0.011731 0.00861128 0.00779067 0.00779067 0.00779067 0.00779067 0.00779067 0.00779067 0.00779067 0.00779067 0.00861128 0.011731 0.0150066 0.0170339 0.016994 0.0149737 0.0117137 0.00860782 0.00779067 0.00779067 0.00779067 0.00779067 0.00779067 0.00779067 0.00779067 0.00779067 0.00860782 0.0117137 0.0149737 0.016994 0.0169109 0.0149096 0.0116791 0.00859916 0.00779067 0.00779067 0.00779067 0.00779067 0.00779067 0.00779067 0.00779067 0.00779067 0.00859916 0.0116791 0.0149096 0.0169109 0.0167863 0.0148127 0.0116254 0.00858878 0.00779067 0.00779067 0.00779067 0.00779067 0.00779067 0.00779067 0.00779067 0.00779067 0.00858878 0.0116254 0.0148127 0.0167863 0.0166166 0.0146811 0.0115544 0.0085732 0.00779067 0.00779067 0.00779067 0.00779067 0.00779067 0.00779067 0.00779067 0.00779067 0.0085732 0.0115544 0.0146811 0.0166166 0.0163985 0.0145097 0.0114609 0.00855415 0.00779067 0.00779067 0.00779067 0.00779067 0.00779067 0.00779067 0.00779067 0.00779067 0.00855415 0.0114609 0.0145097 0.0163985 0.0161267 0.0142967 0.0113449 0.00852991 0.00779067 0.00779067 0.00779067 0.00779067 0.00779067 0.00779067 0.00779067 0.00779067 0.00852991 0.0113449 0.0142967 0.0161267 0.0157908 0.0140353 0.0112012 0.00850048 0.00779067 0.00779067 0.00779067 0.00779067 0.00779067 0.00779067 0.00779067 0.00779067 0.00850048 0.0112012 0.0140353 0.0157908 0.0153805 0.013715 0.0110264 0.00846413 0.00779067 0.00779067 0.00779067 0.00779067 0.00779067 0.00779067 0.00779067 0.00779067 0.00846413 0.0110264 0.013715 0.0153805 0.0148715 0.0133168 0.01081 0.00841911 0.00779067 0.00779067 0.00779067 0.00779067 0.00779067 0.00779067 0.00779067 0.00779067 0.00841911 0.01081 0.0133168 0.0148715 0.0142188 0.0128096 0.0105312 0.00836025 0.00779067 0.00779067 0.00779067 0.00779067 0.00779067 0.00779067 0.00779067 0.00779067 0.00836025 0.0105312 0.0128096 0.0142188 0.013322 0.0121084 0.0101486 0.00828061 0.00779067 0.00779067 0.00779067 0.00779067 0.00779067 0.00779067 0.00779067 0.00779067 0.00828061 0.0101486 0.0121084 0.013322 0.0117743 0.0109 0.00948903 0.00814384 0.00779067 0.00779067 0.00779067 0.00779067 0.00779067 0.00779067 0.00779067 0.00779067 0.00814384 0.00948903 0.0109 0.0117743 0.00779067 0.00779067 0.00779067 0.00779067 0.00779067 0.00779067 0.00779067 0.00779067 0.00779067 0.00779067 0.00779067 0.00779067 0.00779067 0.00779067 0.00779067 0.00779067 0.00779067 0.00779067 0.00779067 0.00779067 0.00779067 0.00779067 0.00779067 0.00779067 0.00779067 0.00779067 0.00779067 0.00779067 0.00779067 0.00779067 0.00779067 0.00779067 0.00779067 0.00779067 0.00779067 0.00779067 0.00779067 0.00779067 0.00779067 0.00779067 0.00779067 0.00779067 0.00779067 0.00779067 0.00779067 0.00779067 0.00779067 0.00779067 0.00779067 0.00779067 
</DataArray>
<DataArray type="Float64" Name="cell variable 6" format="ascii">
1 1 1 1 1 1 1 1 1 1 1 1 1 1 1 1 1 1 1 1 1 1 1 1 1 1 1 1 1 1 1 1 1 1 1 1 1 1 1 1 1 1 1 1 1 1 1 1 1 1 1 1 1 1 1 1 1 1 1 1 1 1 1 1 1 1 1 1 1 1 1 1 1 1 1 1 1 1 1 1 1 1 1 1 1 1 1 1 1 1 1 1 1 1 1 1 1 1 1 1 1 1 1 1 1 1 1 1 1 1 1 1 1 1 1 1 1 1 1 1 1 1 1 1 1 1 1 1 1 1 1 1 1 1 1 1 1 1 1 1 1 1 1 1 1 1 1 1 1 1 1 1 1 1 1 1 1 1 1 1 1 1 1 1 1 1 1 1 1 1 1 1 1 1 1 1 1 1 1 1 1 1 1 1 1 1 1 1 1 1 1 1 1 1 1 1 1 1 1 1 1 1 1 1 1 1 1 1 1 1 1 1 1 1 1 1 1 1 1 1 1 1 1 1 1 1 1 1 1 1 1 1 1 1 1 1 1 1 1 1 1 1 1 1 1 1 1 1 1 1 1 1 1 1 1 1 1 1 1 1 1 1 1 1 1 1 1 1 1 1 1 1 1 1 1 1 1 1 1 1 1 1 1 1 1 1 1 1 1 1 1 1 1 1 1 1 1 1 1 1 1 1 1 1 1 1 1 1 1 1 1 1 1 1 1 1 1 1 1 1 1 1 1 1 1 1 1 1 1 1 1 1 1 1 1 1 1 1 1 1 1 1 1 1 1 1 1 1 1 1 1 1 1 1 1 1 1 1 1 1 1 1 1 1 1 1 1 1 1 1 1 1 1 1 1 1 1 1 1 1 1 1 1 1 1 1 1 1 1 1 1 1 1 1 1 1 1 1 1 1 1 1 1 1 1 1 1 1 1 1 1 1 1 1 1 1 1 1 1 1 1 1 1 1 1 1 1 1 1 1 1 1 1 1 1 1 1 1 1 1 1 1 1 1 1 1 1 1 1 1 1 1 1 1 1 1 1 1 1 1 1 1 1 1 1 1 1 1 1 1 1 1 1 1 1 1 1 1 1 1 1 1 1 1 1 1 1 1 1 1 1 1 1 1 1 1 1 1 1 1 1 1 1 1 1 1 1 1 1 1 1 1 1 1 
</DataArray>
<DataArray type="Float64" Name="cell variable 7" format="ascii">
0 0 0 0 0 0 0 0 0 0 0 0 0 0 0 0 0 0 0 0 0 0 0 0 0 0 0 0 0 0 0 0 0 0 0 0 0 0 0 0 0 0 0 0 0 0 0 0 0 0 0 0 0 0 0 0 0 0 0 0 0 0 0 0 0 0 0 0 0 0 0 0 0 0 0 0 0 0 0 0 0 0 0 0 0 0 0 0 0 0 0 0 0 0 0 0 0 0 0 0 0 0 0 0 0 0 0 0 0 0 0 0 0 0 0 0 0 0 0 0 0 0 0 0 0 0 0 0 0 0 0 0 0 0 0 0 0 0 0 0 0 0 0 0 0 0 0 0 0 0 0 0 0 0 0 0 0 0 0 0 0 0 0 0 0 0 0 0 0 0 0 0 0 0 0 0 0 0 0 0 0 0 0 0 0 0 0 0 0 0 0 0 0 0 0 0 0 0 0 0 0 0 0 0 0 0 0 0 0 0 0 0 0 0 0 0 0 0 0 0 0 0 0 0 0 0 0 0 0 0 0 0 0 0 0 0 0 0 0 0 0 0 0 0 0 0 0 0 0 0 0 0 0 0 0 0 0 0 0 0 0 0 0 0 0 0 0 0 0 0 0 0 0 0 0 0 0 0 0 0 0 0 0 0 0 0 0 0 0 0 0 0 0 0 0 0 0 0 0 0 0 0 0 0 0 0 0 0 0 0 0 0 0 0 0 0 0 0 0 0 0 0 0 0 0 0 0 0 0 0 0 0 0 0 0 0 0 0 0 0 0 0 0 0 0 0 0 0 0 0 0 0 0 0 0 0 0 0 0 0 0 0 0 0 0 0 0 0 0 0 0 0 0 0 0 0 0 0 0 0 0 0 0 0 0 0 0 0 0 0 0 0 0 0 0 0 0 0 0 0 0 0 0 0 0 0 0 0 0 0 0 0 0 0 0 0 0 0 0 0 0 0 0 0 0 0 0 0 0 0 0 0 0 0 0 0 0 0 0 0 0 0 0 0 0 0 0 0 0 0 0 0 0 0 0 0 0 0 0 0 0 0 0 0 0 0 0 0 0 0 0 0 0 0 0 0 0 0 0 0 0 0 0 0 0 0 0 0 0 0 0 0 0 0 0 0 0 0 0 0 0 0 0 0 0 0 0 0 0 0 0 0 1 1 
</DataArray>
<DataArray type="Float64" Name="cell variable 8" format="ascii">
11.25 33.75 56.25 78.75 101.25 123.75 146.25 168.75 191.25 213.75 236.25 258.75 281.25 303.75 326.25 348.75 11.25 33.75 56.25 78.75 101.25 123.75 146.25 168.75 191.25 213.75 236.25 258.75 281.25 303.75 326.25 348.75 11.25 33.75 56.25 78.75 101.25 123.75 146.25 168.75 191.25 213.75 236.25 258.75 281.25 303.75 326.25 348.75 11.25 33.75 56.25 78.75 101.25 123.75 146.25 168.75 191.25 213.75 236.25 258.75 281.25 303.75 326.25 348.75 11.25 33.75 56.25 78.75 101.25 123.75 146.25 168.75 191.25 213.75 236.25 258.75 281.25 303.75 326.25 348.75 11.25 33.75 56.25 78.75 101.25 123.75 146.25 168.75 191.25 213.75 236.25 258.75 281.25 303.75 326.25 348.75 11.25 33.75 56.25 78.75 101.25 123.75 146.25 168.75 191.25 213.75 236.25 258.75 281.25 303.75 326.25 348.75 11.25 33.75 56.25 78.75 101.25 123.75 146.25 168.75 191.25 213.75 236.25 258.75 281.25 303.75 326.25 348.75 11.25 33.75 56.25 78.75 101.25 123.75 146.25 168.75 191.25 213.75 236.25 258.75 281.25 303.75 326.25 348.75 11.25 33.75 56.25 78.75 101.25 123.75 146.25 168.75 191.25 213.75 236.25 258.75 281.25 303.75 326.25 348.75 11.25 33.75 56.25 78.75 101.25 123.75 146.25 168.75 191.25 213.75 236.25 258.75 281.25 303.75 326.25 348.75 11.25 33.75 56.25 78.75 101.25 123.75 146.25 168.75 191.25 213.75 236.25 258.75 281.25 303.75 326.25 348.75 11.25 33.75 56.25 78.75 101.25 123.75 146.25 168.75 191.25 213.75 236.25 258.75 281.25 303.75 326.25 348.75 11.25 33.75 56.25 78.75 101.25 123.75 146.25 168.75 191.25 213.75 236.25 258.75 281.25 303.75 326.25 348.75 11.25 33.75 56.25 78.75 101.25 123.75 146.25 168.75 191.25 213.75 236.25 258.75 281.25 303.75 326.25 348.75 11.25 33.75 56.25 78.75 101.25 123.75 146.25 168.75 191.25 213.75 236.25 258.75 281.25 303.75 326.25 348.75 11.25 33.75 56.25 78.75 101.25 123.75 146.25 168.75 191.25 213.75 236.25 258.75 281.25 303.75 326.25 348.75 11.25 33.75 56.25 78.75 101.25 123.75 146.25 168.75 191.25 213.75 236.25 258.75 281.25 303.75 326.25 348.75 11.25 33.75 56.25 78.75 101.25 123.75 146.25 168.75 191.25 213.75 236.25 258.75 281.25 303.75 326.25 348.75 11.25 33.75 56.25 78.75 101.25 123.75 146.25 168.75 191.25 213.75 236.25 258.75 281.25 303.75 326.25 348.75 11.25 33.75 56.25 78.75 101.25 123.75 146.25 168.75 191.25 213.75 236.25 258.75 281.25 303.75 326.25 348.75 11.25 33.75 56.25 78.75 101.25 123.75 146.25 168.75 191.25 213.75 236.25 258.75 281.25 303.75 326.25 348.75 11.25 33.75 56.25 78.75 101.25 123.75 146.25 168.75 191.25 213.75 236.25 258.75 281.25 303.75 326.25 348.75 11.25 33.75 56.25 78.75 101.25 123.75 146.25 168.75 191.25 213.75 236.25 258.75 281.25 303.75 326.25 348.75 11.25 33.75 56.25 78.75 101.25 123.75 146.25 168.75 191.25 213.75 236.25 258.75 281.25 303.75 326.25 348.75 11.25 33.75 56.25 78.75 101.25 123.75 146.25 168.75 191.25 213.75 236.25 258.75 281.25 303.75 326.25 348.75 11.25 33.75 56.25 78.75 101.25 123.75 146.25 168.75 191.25 213.75 236.25 258.75 281.25 303.75 326.25 348.75 11.25 33.75 56.25 78.75 101.25 123.75 146.25 168.75 191.25 213.75 236.25 258.75 281.25 303.75 326.25 348.75 11.25 33.75 56.25 78.75 101.25 123.75 146.25 168.75 191.25 213.75 236.25 258.75 281.25 303.75 326.25 348.75 11.25 33.75 56.25 78.75 101.25 123.75 146.25 168.75 191.25 213.75 236.25 258.75 281.25 303.75 326.25 348.75 11.25 33.75 56.25 78.75 101.25 123.75 146.25 168.75 191.25 213.75 236.25 258.75 281.25 303.75 326.25 348.75 11.25 33.75 56.25 78.75 101.25 123.75 146.25 168.75 191.25 213.75 236.25 258.75 281.25 303.75 326.25 348.75 0 0 
</DataArray>
</CellData>
</Piece>
</UnstructuredGrid>
</VTKFile>
