<VTKFile type="UnstructuredGrid" version="0.1">
<UnstructuredGrid>
<Piece  NumberOfPoints="    2080" NumberOfCells="     514">
<Points>
<DataArray type="Float64" NumberOfComponents="3" format="ascii">
-90.0289 940.086 1.64095
-86.3654 943.63 27.395
-71.5374 920.476 29.5172
-75.5369 916.644 1.65512
-85.5423 944.417 30.148
-75.0087 954.462 51.9922
-59.2939 932.145 55.8579
-70.7143 921.263 32.2702
-73.4805 955.91 54.0982
-57.6121 970.872 68.6856
-40.6098 949.782 73.7037
-57.7657 933.593 57.9638
-55.6073 972.755 69.8242
-36.8343 990.345 74.9287
-18.2986 970.662 80.3604
-38.605 951.665 74.8423
-34.6612 992.378 74.9271
-15.8773 1009.94 69.7839
4.18575 991.679 74.8265
-16.1256 972.695 80.3588
-13.8717 1011.82 68.6448
2.00135 1026.76 54.068
23.3681 1009.76 57.954
6.1913 993.561 73.6873
3.5296 1028.21 51.964
14.0674 1038.33 30.1625
36.2821 1022.22 32.2559
24.8964 1011.21 55.8501
14.8894 1039.13 27.4097
18.5687 1042.74 1.65717
41.0676 1026.93 1.63781
37.1041 1023.01 29.5031
18.5678 1042.74 -1.32479
14.872 1039.17 -27.0814
37.0913 1023.05 -29.2067
41.0667 1026.93 -1.34415
14.0488 1038.38 -29.834
3.50271 1028.27 -51.6431
24.8821 1011.28 -55.5417
36.2681 1022.26 -31.9593
1.97474 1026.82 -53.7471
-13.8924 1011.87 -68.3272
6.1792 993.63 -73.3831
23.3541 1009.83 -57.6457
-15.8973 1009.99 -69.467
-34.6735 992.424 -74.6148
-16.1276 972.757 -80.0656
4.17428 991.748 -74.5229
-36.8455 990.39 -74.6172
-55.6093 972.789 -69.518
-38.5922 951.711 -74.5592
-18.2996 970.723 -80.068
-57.6117 970.904 -68.38
-73.4439 955.909 -53.7885
-57.7371 933.626 -57.6791
-40.5947 949.826 -73.4211
-74.9707 954.458 -51.6816
-85.4936 944.401 -29.8428
-70.696 921.274 -31.9522
-59.2638 932.175 -55.5721
-86.3187 943.613 -27.0882
-90.0273 940.086 -1.34004
-75.5353 916.644 -1.32588
-71.5212 920.486 -29.1975
-73.5972 914.044 1.72983
-69.5977 917.877 29.5919
-49.1129 894.092 30.1963
-53.2088 890.173 1.72393
-57.3107 929.585 56.0694
-36.5685 906.022 57.1887
-48.2464 894.918 33.0861
-68.7311 918.703 32.4817
-38.5491 947.293 74.0185
-17.4188 924.042 75.4904
-34.9627 907.541 59.3979
-55.705 931.104 58.2786
-16.1375 968.264 80.7312
5.45869 945.374 82.3412
-15.3135 926.016 76.6849
-36.4438 949.267 75.2131
6.45649 989.379 75.1986
28.5228 966.853 76.7016
7.74134 947.505 82.3409
-13.8548 970.394 80.7309
25.7373 1007.55 58.2719
48.1328 985.393 59.4372
30.6269 968.828 75.5082
8.56052 991.353 74.0052
38.7207 1020.09 32.4701
61.1914 998.294 33.0837
49.7305 986.924 57.2296
27.335 1009.08 56.0643
43.5402 1024.85 1.71181
66.0134 1003.18 1.69541
62.0473 999.138 30.1907
39.5767 1020.93 29.5771
39.5639 1020.97 -29.2842
62.0316 999.164 -29.9223
66.0126 1003.18 -1.43808
43.5393 1024.85 -1.42168
27.3213 1009.15 -55.7581
49.7219 986.988 -56.9313
61.175 998.324 -32.8137
38.7073 1020.13 -32.1756
8.54928 991.423 -73.7023
30.6211 968.901 -75.2197
48.1249 985.459 -59.1382
25.7242 1007.62 -57.9649
-13.8561 970.457 -80.4394
7.74293 947.573 -82.064
28.5176 966.926 -76.4141
6.44582 989.448 -74.8967
-36.4302 949.313 -74.9319
-15.302 926.071 -76.4181
5.46139 945.441 -82.0653
-16.1376 968.325 -80.4407
-55.6767 931.138 -57.996
-34.9443 907.58 -59.1386
-17.4061 924.095 -75.2242
-38.5344 947.338 -73.738
-68.7149 918.716 -32.165
-48.2456 894.927 -32.7865
-36.5503 906.059 -56.9276
-57.2827 929.617 -55.7849
-69.5828 917.888 -29.2724
-73.5969 914.045 -1.40071
-53.2084 890.174 -1.40662
-49.1134 894.099 -29.8939
-50.8829 887.565 1.74291
-46.7871 891.484 30.2153
-25.2664 868.282 30.3212
-29.3757 864.333 1.73291
-45.9091 892.321 33.1419
-34.2312 903.425 57.2445
-12.6629 880.286 57.4428
-24.3885 869.119 33.2478
-32.6032 904.962 59.4818
-15.0593 921.463 75.5743
6.61379 898.378 75.821
-11.0349 881.823 59.6802
-12.9227 923.458 76.7838
7.84954 942.816 82.44
29.6783 919.743 82.6824
8.75036 900.373 77.0305
10.1674 944.967 82.4391
30.9489 964.315 76.7998
52.9479 941.217 76.9999
31.9962 921.894 82.6814
33.0804 966.31 75.5911
50.5863 982.876 59.52
72.628 959.848 59.6534
55.0794 943.212 75.7913
52.1894 984.438 57.2869
63.6503 995.808 33.1411
85.496 973.143 33.231
74.2311 961.41 57.4203
64.5017 996.681 30.2105
68.4678 1000.73 1.71519
90.2414 978.211 1.71291
86.3474 974.016 30.3004
68.467 1000.73 -1.4599
64.4861 996.707 -29.9441
86.3311 974.042 -30.0496
90.2407 978.212 -1.46219
63.6342 995.837 -32.873
52.1812 984.501 -56.9906
74.2208 961.47 -57.1459
85.4793 973.173 -32.9785
50.5785 982.941 -59.2229
33.0747 966.383 -75.3044
55.0718 943.282 -75.526
72.6181 959.91 -59.3781
30.9438 964.388 -76.5142
10.1691 945.034 -82.1641
31.995 921.96 -82.4268
52.9408 941.287 -76.7358
7.85201 942.883 -82.1661
-12.9114 923.513 -76.5189
8.75725 900.428 -76.7863
29.6779 919.809 -82.4288
-15.0472 921.516 -75.3104
-32.5855 905.001 -59.2248
-11.0225 881.861 -59.4468
6.62139 898.432 -75.5778
-34.2141 903.462 -56.9857
-45.9094 892.33 -32.8447
-24.3948 869.124 -32.9728
-12.6512 880.321 -57.2077
-46.7882 891.491 -29.915
-50.8831 887.566 -1.42766
-29.3759 864.333 -1.43766
-25.2735 868.285 -30.0431
-27.0067 861.767 1.73762
-22.8974 865.716 30.3259
-1.70651 842.681 30.3415
-5.91981 838.819 1.72584
-22.0054 866.548 33.2616
-10.2799 877.716 57.4566
11.1891 854.443 57.4822
-0.814452 843.513 33.2772
-8.62786 879.242 59.6968
9.02085 895.797 75.8377
30.8616 872.198 75.8441
12.8411 855.969 59.7224
11.1863 897.774 77.0445
32.1143 917.145 82.6963
54.3464 893.184 82.6636
33.0271 874.176 77.051
34.4621 919.274 82.6902
55.4138 938.597 77.0088
78.0203 914.282 76.9521
56.6942 895.314 82.6575
57.575 940.574 75.7928
75.1236 957.21 59.6549
98.1665 932.48 59.5924
80.1815 916.258 75.7361
76.7495 958.761 57.4119
88.0144 970.494 33.2226
111.579 945.3 33.1826
99.7923 934.031 57.3493
88.8733 971.359 30.2964
92.7673 975.554 1.70887
116.535 950.212 1.7014
112.438 946.165 30.2564
92.7664 975.556 -1.45965
88.8568 971.386 -30.0471
112.418 946.197 -30.0283
116.534 950.213 -1.46712
87.9973 970.524 -32.9724
76.7388 958.821 -57.1397
99.7779 934.093 -57.1015
111.559 945.335 -32.9537
75.1135 957.272 -59.3821
57.5671 940.643 -75.53
80.1724 916.326 -75.4963
98.1525 932.544 -59.3439
55.4065 938.667 -76.747
34.4606 919.34 -82.438
56.6912 895.379 -82.4283
78.0117 914.35 -76.7133
32.1135 917.21 -82.4452
11.1929 897.829 -76.8027
33.0311 874.23 -76.833
54.3441 893.249 -82.4354
9.02804 895.85 -75.597
-8.61584 879.279 -59.4659
12.8507 856.004 -59.5166
30.8662 872.251 -75.6273
-10.2685 877.75 -57.2241
-22.0121 866.553 -32.9892
-0.822237 843.514 -33.0293
11.198 854.475 -57.2747
-22.9047 865.719 -30.0503
-27.0071 861.767 -1.44492
-5.92022 838.819 -1.45669
-1.71484 842.68 -30.0904
-3.60047 836.245 1.72552
0.612836 840.107 30.3412
21.2746 816.722 30.334
16.9647 812.96 1.71462
1.52551 840.92 33.2781
13.5291 851.85 57.4831
34.4505 828.187 57.4748
22.1873 817.535 33.2709
15.2164 853.342 59.7229
33.2369 869.571 75.8447
54.5128 845.519 75.8318
36.1379 829.68 59.7146
35.4443 871.507 77.0495
56.7637 890.516 82.6621
78.4276 866.028 82.644
56.7203 847.455 77.0366
59.1544 892.601 82.6537
80.4805 911.569 76.9483
102.531 886.639 76.9249
80.8182 868.113 82.6356
82.6851 913.499 75.732
100.67 929.721 59.5882
123.114 904.359 59.578
104.735 888.569 75.7086
102.345 931.223 57.3471
114.132 942.492 33.1803
136.98 916.702 33.1704
124.788 905.862 57.3368
115.027 943.324 30.2547
119.124 947.37 1.69965
142.129 921.418 1.68411
137.876 917.534 30.2447
119.123 947.372 -1.46795
115.007 943.356 -30.0292
137.852 917.566 -30.0433
142.127 921.42 -1.4835
114.111 942.527 -32.9538
102.33 931.285 -57.1016
124.772 905.925 -57.1092
136.956 916.738 -32.968
100.656 929.784 -59.3421
82.6759 913.567 -75.4945
104.726 888.637 -75.4895
123.099 904.425 -59.3496
80.4718 911.637 -76.7118
59.1513 892.666 -82.4268
80.8151 868.178 -82.4288
102.522 886.708 -76.7069
56.7612 890.58 -82.4364
35.4482 871.561 -76.834
56.7235 847.509 -76.843
78.4251 866.092 -82.4384
33.2413 869.624 -75.6305
15.2258 853.377 -59.5198
36.1465 829.713 -59.5344
54.5166 845.572 -75.6395
13.5379 851.882 -57.2783
1.5176 840.921 -33.0328
22.179 817.533 -33.0479
34.4585 828.218 -57.2929
0.604464 840.106 -30.0926
-3.60092 836.245 -1.45891
16.9643 812.96 -1.4698
21.2658 816.719 -30.1077
19.2229 810.345 1.71362
23.5328 814.107 30.333
43.6116 790.31 30.3252
39.2117 786.653 1.70352
24.4648 814.898 33.2702
36.728 825.55 57.474
57.0547 801.457 57.4687
44.5436 791.101 33.2624
38.4493 827.004 59.714
56.8243 842.844 75.8312
77.5034 818.327 75.8299
58.7759 802.911 59.7087
59.0734 844.732 77.0358
80.7807 863.304 82.6433
101.859 838.305 82.6444
79.7526 820.215 77.0345
83.2151 865.338 82.6343
104.928 883.865 76.9235
126.405 858.38 76.9204
104.293 840.339 82.6354
107.175 885.744 75.7074
125.553 901.534 59.5768
147.401 875.601 59.572
128.653 860.26 75.7043
127.269 902.989 57.3366
139.461 913.829 33.1701
161.643 887.501 33.1597
149.117 877.055 57.3317
140.385 914.629 30.2435
144.638 918.514 1.68295
166.949 892.031 1.6673
162.567 888.302 30.233
144.637 918.516 -1.48548
140.361 914.662 -30.0453
162.542 888.334 -30.0601
166.948 892.033 -1.50113
139.437 913.865 -32.9702
127.253 903.052 -57.1114
149.102 877.119 -57.1255
161.617 887.537 -32.985
125.538 901.6 -59.3505
107.166 885.812 -75.4905
128.644 860.328 -75.5063
147.387 875.666 -59.3647
104.919 883.933 -76.7077
83.212 865.403 -82.4296
104.291 840.404 -82.4504
126.398 858.448 -76.7236
80.7783 863.368 -82.44
59.0767 844.786 -76.8445
79.7562 820.268 -76.8639
101.857 838.369 -82.4607
56.828 842.896 -75.6413
38.4579 827.037 -59.5362
58.7848 802.943 -59.5521
77.5075 818.378 -75.6606
36.736 825.581 -57.2946
24.4564 814.896 -33.0496
44.535 791.098 -33.0624
57.0629 801.486 -57.3105
23.524 814.103 -30.1091
19.2224 810.344 -1.47116
39.2112 786.653 -1.48125
43.6026 790.305 -30.1218
41.4041 783.991 1.70257
45.8039 787.648 30.3242
65.2761 763.421 30.3167
60.7899 759.874 1.69321
46.7545 788.416 33.2618
59.2656 798.773 57.4681
78.9793 774.237 57.4646
66.2266 764.189 33.2543
61.0202 800.185 59.7087
79.7476 815.601 75.8298
99.8134 790.617 75.8326
80.7339 775.65 59.7052
82.0389 817.437 77.0348
104.145 835.528 82.6447
124.617 810.03 82.6512
102.105 792.453 77.0377
106.624 837.506 82.6355
128.736 855.547 76.9205
149.613 829.534 76.9227
127.096 812.009 82.642
131.026 857.373 75.704
149.775 872.714 59.5716
171.01 846.238 59.5662
151.903 831.36 75.7061
151.528 874.122 57.3314
164.054 884.568 33.1593
185.579 857.725 33.1483
172.763 847.646 57.3259
165.002 885.34 30.2318
169.384 889.069 1.66611
191.021 862.08 1.6514
186.527 858.496 30.2209
169.383 889.07 -1.50303
164.976 885.372 -30.062
186.502 858.527 -30.0759
191.02 862.082 -1.51773
164.027 884.603 -32.9871
151.513 874.186 -57.1276
172.75 847.71 -57.1419
185.553 857.758 -33.001
149.761 872.78 -59.3665
131.018 857.441 -75.5081
151.896 831.428 -75.5298
170.998 846.304 -59.3808
128.729 855.615 -76.7259
106.622 837.571 -82.4527
127.095 812.073 -82.4787
149.607 829.602 -76.7475
104.144 835.591 -82.4633
82.0426 817.49 -76.8664
102.109 792.505 -76.889
124.617 810.093 -82.4892
79.7519 815.652 -75.6628
61.0291 800.217 -59.5543
80.7434 775.68 -59.5706
99.8186 790.667 -75.6854
59.2739 798.801 -57.3121
46.746 788.413 -33.064
66.218 764.185 -33.0756
78.9881 774.264 -57.3284
45.7949 787.643 -30.1231
41.4036 783.991 -1.48248
60.7894 759.874 -1.49184
65.2669 763.415 -30.1347
62.9142 757.164 1.69231
67.4004 760.711 30.3158
86.2521 736.051 30.3085
81.6819 732.617 1.68358
68.3691 761.456 33.2537
81.1218 771.504 57.4641
100.21 746.526 57.4604
87.2208 736.796 33.2464
82.9093 772.874 59.7052
101.989 787.841 75.8327
121.427 762.396 75.8348
101.998 747.896 59.7015
104.322 789.623 77.0382
126.835 807.199 82.6517
146.68 781.215 82.657
123.761 764.178 77.0403
129.359 809.119 82.6424
151.876 826.645 76.9231
172.126 800.121 76.9245
149.204 783.135 82.6476
154.208 828.415 75.7059
173.315 843.294 59.5659
193.914 816.297 59.5594
174.458 801.892 75.7073
175.103 844.655 57.3253
187.918 854.734 33.1477
208.78 827.385 33.137
195.702 817.658 57.3188
188.888 855.478 30.2197
193.382 859.062 1.65021
214.343 831.579 1.63673
209.749 828.129 30.2089
193.381 859.064 -1.51946
188.862 855.508 -30.0776
209.724 828.158 -30.0907
214.342 831.58 -1.53293
187.892 854.767 -33.0028
175.09 844.719 -57.1437
195.691 817.72 -57.1572
208.754 827.417 -33.0158
173.303 843.359 -59.3827
154.201 828.483 -75.5317
174.452 801.958 -75.5526
193.904 816.36 -59.3962
151.87 826.712 -76.7501
129.358 809.183 -82.4812
149.204 783.197 -82.5056
172.121 800.188 -76.7709
126.834 807.262 -82.4919
104.327 789.674 -76.8916
123.767 764.228 -76.9126
146.681 781.276 -82.5163
101.994 787.891 -75.6876
82.9189 772.904 -59.5728
102.008 747.924 -59.5878
121.434 762.444 -75.7086
81.1306 771.531 -57.33
68.3604 761.451 -33.0772
87.212 736.79 -33.0877
100.22 746.551 -57.345
67.3913 760.705 -30.1358
62.9138 757.164 -1.49297
81.6814 732.617 -1.50169
86.2428 736.044 -30.1463
83.7369 729.859 1.68273
88.3071 733.293 30.3076
106.528 708.204 30.3005
101.876 704.886 1.67458
89.2935 734.014 33.2458
102.283 743.744 57.4598
120.737 718.328 57.4554
107.515 708.925 33.2387
104.103 745.07 59.7014
123.533 759.57 75.8347
142.331 733.673 75.8345
122.557 719.654 59.697
125.908 761.295 77.0406
148.827 778.332 82.6573
168.028 751.874 82.6594
144.706 735.397 77.0404
151.396 780.191 82.6478
174.318 797.177 76.9246
193.919 770.161 76.9235
170.597 753.733 82.6499
176.691 798.891 75.7069
196.147 813.295 59.559
216.089 785.795 59.5518
196.292 771.875 75.7057
197.968 814.611 57.318
211.046 824.338 33.1362
231.231 796.494 33.1257
217.91 787.111 57.3107
212.035 825.056 30.2078
216.629 828.505 1.63556
236.905 800.533 1.62326
232.22 797.212 30.1973
216.627 828.506 -1.53447
212.01 825.084 -30.0922
232.196 797.239 -30.1041
236.903 800.535 -1.54677
211.021 824.37 -33.0174
197.957 814.673 -57.1588
217.901 787.17 -57.1711
231.207 796.524 -33.0293
196.138 813.359 -59.398
176.686 798.957 -75.5543
196.288 771.939 -75.5722
216.081 785.856 -59.4102
174.313 797.243 -76.7732
151.396 780.253 -82.5078
170.599 753.793 -82.5284
193.916 770.225 -76.791
148.828 778.393 -82.5186
125.914 761.344 -76.915
144.713 735.445 -76.9329
168.031 751.933 -82.5392
123.539 759.618 -75.7105
104.114 745.097 -59.5897
122.567 719.68 -59.6031
142.338 733.718 -75.7284
102.293 743.769 -57.3464
89.2847 734.008 -33.0891
107.505 708.918 -33.0988
120.747 718.351 -57.3598
88.2977 733.286 -30.1474
83.7364 729.859 -1.50274
101.875 704.885 -1.51088
106.518 708.196 -30.157
103.86 702.081 1.67377
108.513 705.4 30.2997
126.093 679.888 30.2928
121.36 676.687 1.66623
109.516 706.095 33.2381
122.738 715.499 57.4548
140.545 689.654 57.4497
127.097 680.584 33.2312
124.59 716.779 59.6968
144.364 730.798 75.8342
162.509 704.458 75.8322
142.397 690.934 59.6917
146.781 732.464 77.0404
170.103 748.94 82.6594
188.643 722.022 82.6588
164.925 706.124 77.0384
172.716 750.736 82.6498
196.038 767.164 76.9234
214.97 739.671 76.9202
191.256 723.818 82.6492
198.451 768.819 75.7052
218.249 782.739 59.5512
237.512 754.753 59.5435
217.383 741.326 75.702
220.101 784.009 57.3098
233.422 793.393 33.1248
252.916 765.065 33.1147
239.364 756.023 57.3021
234.429 794.084 30.1961
239.114 797.405 1.62212
258.691 768.953 1.61092
253.923 765.756 30.1861
239.112 797.407 -1.54814
234.405 794.111 -30.1055
253.9 765.781 -30.1163
258.69 768.954 -1.55935
233.398 793.422 -33.0307
220.093 784.068 -57.1725
239.358 756.08 -57.1835
252.892 765.093 -33.0415
218.241 782.8 -59.4118
198.448 768.883 -75.5737
217.381 741.387 -75.5886
237.506 754.812 -59.4228
196.035 767.228 -76.793
172.718 750.796 -82.5304
191.259 723.875 -82.5473
214.968 739.732 -76.8078
170.105 748.999 -82.5412
146.788 732.511 -76.9349
164.933 706.168 -76.9499
188.647 722.079 -82.5581
144.372 730.843 -75.7301
124.601 716.805 -59.6048
142.409 690.958 -59.6163
162.517 704.501 -75.7451
122.748 715.522 -57.361
109.507 706.088 -33.1
127.087 680.575 -33.1087
140.556 689.675 -57.3725
108.503 705.391 -30.158
103.86 702.08 -1.51184
121.36 676.687 -1.51939
126.083 679.879 -30.1666
123.273 673.836 1.66546
128.006 677.037 30.292
144.937 651.111 30.2853
140.126 648.031 1.6585
129.027 677.707 33.2305
142.475 686.778 57.4491
159.627 660.51 57.4435
145.958 651.781 33.2238
144.358 688.011 59.6913
164.47 701.535 75.8318
181.951 674.76 75.8283
161.51 661.744 59.6857
166.927 703.14 77.0381
190.644 719.039 82.6585
208.51 691.671 82.6558
184.408 676.366 77.0346
193.3 720.77 82.6489
217.014 736.622 76.9199
235.261 708.666 76.9154
211.166 693.402 82.6462
219.467 738.217 75.7013
239.595 751.645 59.5429
258.163 723.188 59.5351
237.714 710.261 75.6968
241.479 752.868 57.3012
255.03 761.91 33.1138
273.817 733.11 33.1045
260.046 724.411 57.2935
256.054 762.575 30.185
260.822 765.772 1.60984
279.688 736.85 1.59963
274.841 733.776 30.1757
260.821 765.774 -1.56057
256.031 762.6 -30.1176
274.819 733.799 -30.1276
279.687 736.852 -1.57078
255.007 761.938 -33.0428
241.472 752.925 -57.1847
260.041 724.465 -57.1946
273.794 733.137 -33.0528
239.59 751.704 -59.4241
219.465 738.278 -75.5899
237.714 710.319 -75.6024
258.159 723.244 -59.434
217.013 736.683 -76.8094
193.304 720.827 -82.5489
211.171 693.456 -82.5626
235.261 708.724 -76.8219
190.648 719.095 -82.5597
166.935 703.185 -76.9515
184.417 676.407 -76.9639
208.515 691.724 -82.5735
164.478 701.578 -75.7465
144.37 688.034 -59.6177
161.522 661.764 -59.6275
181.96 674.8 -75.7588
142.486 686.798 -57.3736
129.017 677.699 -33.1098
145.947 651.772 -33.1174
159.638 660.528 -57.3834
127.996 677.027 -30.1675
123.273 673.835 -1.52026
140.125 648.03 -1.52722
144.926 651.101 -30.1752
141.966 645.134 1.65778
146.777 648.215 30.2846
163.05 621.886 30.2783
158.163 618.929 1.65144
147.814 648.859 33.2232
161.484 657.588 57.4429
177.972 630.91 57.4371
164.088 622.531 33.2169
163.397 658.774 59.6852
183.838 671.79 75.8277
200.644 644.595 75.8232
179.885 632.096 59.6794
186.334 673.334 77.0342
210.436 688.64 82.6554
227.615 660.838 82.6513
203.14 646.138 77.0296
213.134 690.304 82.6457
237.229 705.568 76.9149
254.777 677.165 76.9094
230.313 662.503 82.6416
239.721 707.102 75.6961
260.169 720.029 59.5344
278.027 691.117 59.5269
257.268 678.699 75.6906
262.082 721.205 57.2926
275.853 729.904 33.1036
293.919 700.649 33.0949
279.939 692.293 57.285
276.893 730.544 30.1746
281.74 733.618 1.59861
299.881 704.24 1.58933
294.959 701.288 30.1659
281.739 733.619 -1.57189
276.87 730.567 -30.1287
294.938 701.31 -30.1377
299.88 704.242 -1.58117
275.83 729.93 -33.0539
262.077 721.258 -57.1956
279.936 692.344 -57.2044
293.898 700.673 -33.0629
260.166 720.084 -59.4351
239.72 707.159 -75.6036
257.27 678.754 -75.6139
278.025 691.17 -59.4439
237.23 705.625 -76.8233
213.139 690.358 -82.5639
230.319 662.553 -82.575
254.779 677.22 -76.8335
210.441 688.692 -82.5748
186.343 673.375 -76.9652
203.15 646.176 -76.9753
227.622 660.888 -82.5858
183.847 671.83 -75.76
163.409 658.794 -59.6287
179.897 632.114 -59.6371
200.654 644.631 -75.7701
161.495 657.606 -57.3844
147.804 648.85 -33.1184
164.077 622.52 -33.1253
177.983 630.926 -57.3929
146.767 648.204 -30.176
141.965 645.134 -1.528
158.162 618.928 -1.53434
163.039 621.875 -30.1829
159.93 615.989 1.65078
164.817 618.946 30.2777
180.424 592.227 30.272
175.463 589.395 1.64508
165.87 619.564 33.2163
179.754 627.944 57.4365
195.568 600.869 57.4309
181.477 592.845 33.2106
181.697 629.081 59.6789
202.456 641.579 75.8226
218.577 613.977 75.8175
197.51 602.007 59.6733
204.99 643.06 77.0291
229.465 657.76 82.6508
245.945 629.541 82.6458
221.11 615.458 77.024
232.204 659.357 82.641
256.667 674.019 76.9088
273.502 645.188 76.9029
248.683 631.138 82.636
259.195 675.491 75.6899
279.954 687.909 59.5261
297.087 658.56 59.5189
276.031 646.66 75.684
281.895 689.037 57.2842
295.875 697.393 33.094
313.208 667.697 33.0859
299.028 659.689 57.2769
296.93 698.007 30.165
301.852 700.959 1.58839
319.256 671.14 1.57997
314.264 668.311 30.1569
301.851 700.96 -1.58216
296.909 698.028 -30.1387
314.243 668.331 -30.1468
319.255 671.141 -1.59058
295.853 697.417 -33.0638
281.892 689.088 -57.2053
299.027 659.737 -57.2131
313.187 667.72 -33.072
279.952 687.961 -59.4448
259.197 675.545 -75.6148
276.034 646.71 -75.6233
297.087 658.61 -59.4526
256.669 674.073 -76.8346
232.21 659.407 -82.576
248.691 631.184 -82.5849
273.506 645.238 -76.8431
229.471 657.809 -82.5869
205 643.097 -76.9763
221.121 615.492 -76.9846
245.953 629.586 -82.5958
202.466 641.615 -75.771
181.709 629.099 -59.6381
197.523 602.022 -59.6454
218.588 614.01 -75.7793
179.766 627.959 -57.3937
165.86 619.553 -33.1261
181.465 592.834 -33.1323
195.579 600.882 -57.4009
164.806 618.935 -30.1836
159.929 615.988 -1.53505
175.462 589.394 -1.54075
180.412 592.215 -30.1898
177.155 586.412 1.64448
182.116 589.244 30.2714
197.048 562.148 30.2662
192.016 559.443 1.63943
183.185 589.835 33.21
197.276 597.86 57.4303
212.406 570.402 57.4249
198.116 562.739 33.2048
199.246 598.947 59.6727
220.313 610.918 75.8169
235.738 582.924 75.8117
214.376 571.49 59.6673
222.883 612.334 77.0235
247.717 626.417 82.6453
263.487 597.796 82.6399
238.308 584.34 77.0182
250.494 627.946 82.6354
275.313 641.995 76.9023
291.424 612.752 76.8963
266.264 599.324 82.6301
277.877 643.404 75.6832
298.934 655.305 59.5181
315.33 625.537 59.5114
293.988 614.161 75.6772
300.902 656.385 57.2761
315.082 664.393 33.0851
331.67 634.274 33.0778
317.298 626.617 57.2694
316.152 664.981 30.156
321.144 667.81 1.57911
337.8 637.568 1.57153
332.74 634.862 30.1487
321.143 667.811 -1.59146
316.131 665.001 -30.1477
332.72 634.881 -30.155
337.799 637.569 -1.59903
315.061 664.416 -33.0728
300.901 656.433 -57.2139
317.299 626.662 -57.2207
331.65 634.295 -33.0801
298.934 655.354 -59.4534
277.88 643.454 -75.6242
293.992 614.207 -75.6312
315.332 625.583 -59.4602
275.317 642.046 -76.844
250.502 627.991 -82.5858
266.273 599.366 -82.5929
291.429 612.799 -76.851
247.725 626.462 -82.5967
222.894 612.368 -76.9855
238.32 584.371 -76.9921
263.496 597.837 -82.6038
220.324 610.95 -75.7801
199.259 598.962 -59.6462
214.389 571.503 -59.6523
235.75 582.953 -75.7868
197.287 597.872 -57.4016
183.173 589.824 -33.133
198.104 562.727 -33.1384
212.418 570.413 -57.4078
182.104 589.232 -30.1904
177.155 586.411 -1.54138
192.015 559.442 -1.54643
197.035 562.135 -30.1958
193.633 556.419 1.6389
198.665 559.124 30.2657
212.913 531.665 30.2611
207.814 529.089 1.63452
199.748 559.688 33.2043
214.038 567.351 57.4244
228.476 539.525 57.4194
213.996 532.228 33.1997
216.035 568.388 59.6667
237.397 579.822 75.8111
252.117 551.452 75.8059
230.473 540.562 59.6617
240.001 581.174 77.0176
265.18 594.629 82.6393
280.23 565.622 82.6339
254.721 552.803 77.0124
267.995 596.088 82.6294
293.155 609.515 76.8956
308.53 579.878 76.8897
283.044 567.081 82.624
295.753 610.86 75.6765
317.095 622.236 59.5107
332.744 592.067 59.5045
311.128 581.222 75.6706
319.089 623.268 57.2686
333.461 630.925 33.077
349.292 600.401 33.0704
334.738 593.098 57.2624
334.545 631.486 30.1479
339.605 634.192 1.57075
355.5 603.543 1.56401
350.376 600.962 30.1413
339.604 634.193 -1.59982
334.525 631.505 -30.1557
350.357 600.979 -30.1622
355.499 603.544 -1.60656
333.441 630.946 -33.0808
319.09 623.312 -57.2214
334.74 593.14 -57.2273
349.273 600.42 -33.0872
317.097 622.282 -59.4609
295.757 610.906 -75.6319
311.134 581.265 -75.6375
332.747 592.11 -59.4667
293.16 609.562 -76.8517
268.004 596.129 -82.5936
283.054 567.119 -82.5992
308.537 579.92 -76.8573
265.189 594.67 -82.6045
240.013 581.204 -76.9928
254.734 552.83 -76.9981
280.24 565.66 -82.6101
237.409 579.851 -75.7874
216.048 568.401 -59.653
230.486 540.572 -59.6581
252.13 551.478 -75.7927
214.05 567.361 -57.4084
199.736 559.675 -33.139
213.983 532.215 -33.1436
228.488 539.533 -57.4135
198.652 559.111 -30.1964
193.633 556.418 -1.54697
207.813 529.088 -1.55135
212.9 531.651 -30.201
209.355 526.025 1.63406
214.454 528.601 30.2607
228.012 500.793 30.2567
222.848 498.347 1.63036
215.551 529.137 33.1992
230.031 536.434 57.4189
243.77 508.254 57.4143
229.109 501.328 33.1952
232.054 537.42 59.6612
253.697 548.31 75.8053
267.704 519.579 75.8003
245.792 509.241 59.6566
256.335 549.595 77.0118
281.844 562.414 82.6333
296.164 533.038 82.6279
270.342 520.864 77.0068
284.694 563.802 82.6234
310.179 576.599 76.8891
324.81 546.584 76.8835
299.014 534.426 82.618
312.81 577.878 75.67
334.426 588.723 59.5038
349.316 558.171 59.4982
327.44 547.864 75.6643
336.444 589.705 57.2617
350.999 597.008 33.0697
366.063 566.097 33.0639
351.335 559.153 57.2561
352.096 597.542 30.1406
357.22 600.123 1.56331
372.346 569.086 1.5574
367.161 566.631 30.1347
357.219 600.124 -1.60725
352.077 597.559 -30.1628
367.142 566.647 -30.1684
372.345 569.087 -1.61315
350.979 597.027 -33.0879
336.446 589.746 -57.2279
351.338 559.191 -57.2328
366.045 566.114 -33.0934
334.429 588.766 -59.4673
312.816 577.921 -75.6381
327.447 547.902 -75.6425
349.321 558.211 -59.4722
310.186 576.641 -76.8579
284.704 563.839 -82.5998
299.025 534.46 -82.604
324.817 546.623 -76.8623
281.854 562.451 -82.6106
256.348 549.622 -76.9987
270.355 520.887 -77.0027
296.175 533.072 -82.6148
253.71 548.335 -75.7932
232.067 537.43 -59.6586
245.805 509.248 -59.6627
267.718 519.601 -75.7973
230.043 536.442 -57.414
215.538 529.124 -33.1441
229.095 501.314 -33.148
243.781 508.26 -57.4181
214.441 528.588 -30.2015
209.354 526.025 -1.55181
222.847 498.347 -1.55551
227.997 500.778 -30.2053
224.312 495.246 1.62997
229.476 497.692 30.2563
242.335 469.548 30.2529
237.111 467.235 1.62692
230.586 498.199 33.1948
245.247 505.125 57.4138
258.278 476.606 57.4096
243.446 470.056 33.1914
247.294 506.06 59.6561
269.206 516.398 75.7998
282.491 487.322 75.7949
260.325 477.541 59.6519
271.875 517.616 77.0062
297.697 529.791 82.6273
311.279 500.063 82.6221
285.161 488.54 77.0013
300.581 531.106 82.6174
326.377 543.265 76.8829
340.253 512.892 76.8776
314.163 501.379 82.6121
329.038 544.479 75.6637
350.914 554.786 59.4976
365.038 523.871 59.4926
342.914 514.106 75.6584
352.956 555.718 57.2555
367.685 562.662 33.0633
381.974 531.384 33.0582
367.08 524.803 57.2505
368.795 563.169 30.1341
373.98 565.624 1.5568
388.327 534.218 1.55172
383.084 531.891 30.1291
373.979 565.625 -1.61375
368.776 563.185 -30.169
383.066 531.905 -30.1737
388.326 534.219 -1.61883
367.666 562.679 -33.094
352.96 555.756 -57.2333
367.085 524.837 -57.2373
381.956 531.399 -33.0987
350.919 554.825 -59.4726
329.045 544.517 -75.643
342.923 514.14 -75.6462
365.044 523.907 -59.4766
326.385 543.303 -76.8627
300.592 531.14 -82.6044
314.175 501.408 -82.6072
340.262 512.926 -76.8659
297.708 529.823 -82.6152
271.889 517.639 -77.0031
285.175 488.56 -77.0058
311.292 500.092 -82.618
269.219 516.42 -75.7976
247.307 506.067 -59.663
260.339 477.546 -59.6661
282.505 487.34 -75.8004
245.259 505.13 -57.4185
230.572 498.185 -33.1484
243.431 470.041 -33.1514
258.29 476.609 -57.4215
229.461 497.677 -30.2057
224.311 495.245 -1.55589
237.11 467.235 -1.55894
242.32 469.533 -30.2087
238.497 464.098 1.6266
243.722 466.411 30.2526
255.877 437.949 30.2497
250.594 435.77 1.62418
244.845 466.89 33.191
259.677 473.441 57.4092
271.995 444.599 57.4054
257 438.428 33.1881
261.747 474.323 59.6514
283.913 484.104 75.7944
296.471 454.699 75.7896
274.065 445.482 59.6476
286.613 485.254 77.0008
312.731 496.777 82.6215
325.569 466.716 82.6163
299.17 455.85 76.996
315.647 498.021 82.6116
341.737 509.534 76.877
354.852 478.821 76.8719
328.485 467.959 82.6063
344.427 510.681 75.6579
366.551 520.447 59.4921
379.899 489.186 59.4876
357.542 479.969 75.6528
368.615 521.328 57.25
383.509 527.909 33.0577
397.014 496.283 33.0534
381.963 490.068 57.2456
384.631 528.389 30.1285
389.875 530.716 1.5512
403.435 498.961 1.54692
398.136 496.763 30.1242
389.874 530.717 -1.61933
384.613 528.403 -30.1742
398.119 496.775 -30.1781
403.434 498.962 -1.62361
383.491 527.925 -33.0991
368.62 521.363 -57.2377
381.97 490.099 -57.2407
396.997 496.297 -33.103
366.557 520.482 -59.4769
344.436 510.716 -75.6465
357.552 479.999 -75.6485
379.907 489.219 -59.4799
341.746 509.568 -76.8662
315.659 498.05 -82.6074
328.498 467.985 -82.6088
354.862 478.851 -76.8682
312.744 496.806 -82.6182
286.627 485.274 -77.0061
299.185 455.866 -77.0075
325.582 466.741 -82.6196
283.928 484.122 -75.8007
261.761 474.327 -59.6664
274.078 445.484 -59.6684
296.486 454.714 -75.8021
259.689 473.443 -57.4218
244.83 466.875 -33.1517
256.985 438.412 -33.154
272.007 444.6 -57.4239
243.707 466.396 -30.209
238.496 464.097 -1.55924
250.594 435.769 -1.56166
255.861 437.933 -30.2113
251.902 432.598 1.62392
257.185 434.777 30.2494
268.63 406.012 30.2471
263.293 403.968 1.62213
258.32 435.228 33.1878
273.315 441.399 57.4051
284.912 412.251 57.4016
269.765 406.462 33.1854
275.406 442.228 59.6471
297.812 451.446 75.7892
309.636 421.731 75.7844
287.004 413.081 59.6436
300.54 452.529 76.9954
326.938 463.394 82.6157
339.025 433.017 82.6102
312.363 422.813 76.9906
329.884 464.565 82.6057
356.251 475.427 76.8713
368.598 444.394 76.8662
341.97 434.187 82.6002
358.969 476.508 75.6523
381.326 485.725 59.4871
393.893 454.141 59.4831
371.316 445.475 75.6472
383.412 486.556 57.2451
398.462 492.771 33.0529
411.177 460.817 33.0493
395.978 454.971 57.2411
399.596 493.224 30.1238
404.894 495.422 1.54648
417.661 463.338 1.54298
412.31 461.27 30.1201
404.893 495.422 -1.62401
399.578 493.236 -30.1785
412.293 461.28 -30.1814
417.66 463.338 -1.62751
398.445 492.785 -33.1033
383.418 486.587 -57.241
395.986 454.999 -57.2429
411.16 460.829 -33.1063
381.335 485.757 -59.4801
358.98 476.538 -75.6487
371.328 445.501 -75.6492
393.903 454.169 -59.4821
356.262 475.457 -76.8683
329.898 464.59 -82.6089
341.985 434.209 -82.6086
368.61 444.42 -76.8688
326.952 463.419 -82.6197
300.555 452.545 -77.0076
312.378 422.827 -77.0076
339.039 433.038 -82.6194
297.827 451.461 -75.8022
275.42 442.23 -59.6686
287.018 413.081 -59.6696
309.651 421.743 -75.8022
273.326 441.399 -57.4241
258.305 435.212 -33.1542
269.749 406.446 -33.1558
284.924 412.249 -57.4251
257.169 434.761 -30.2116
251.901 432.597 -1.56188
263.292 403.968 -1.56367
268.613 405.996 -30.2131
264.522 400.764 1.62193
269.859 402.807 30.2469
280.589 373.755 30.2451
275.2 371.848 1.62075
271.005 403.229 33.1851
286.152 409.017 57.4012
297.025 379.58 57.3979
281.734 374.177 33.1833
288.265 409.794 59.6431
310.896 418.444 75.7839
321.98 388.436 75.7787
299.137 380.357 59.6398
313.65 419.458 76.99
340.311 429.662 82.6096
351.64 398.988 82.6036
324.733 389.45 76.9849
343.285 430.759 82.5996
369.913 440.965 76.8656
381.486 409.632 76.8603
354.614 400.085 82.5936
372.657 441.979 75.6467
395.234 450.645 59.4826
407.013 418.756 59.479
384.229 410.646 75.6413
397.339 451.424 57.2407
412.537 457.27 33.0489
424.455 425.009 33.0458
409.118 419.536 57.2371
413.682 457.695 30.1198
419.032 459.763 1.54261
430.999 427.369 1.53987
425.6 425.434 30.1167
419.031 459.763 -1.62782
413.665 457.705 -30.1817
425.583 425.442 -30.1838
430.998 427.37 -1.63056
412.521 457.282 -33.1065
397.347 451.452 -57.2432
409.127 419.56 -57.2439
424.439 425.019 -33.1085
395.244 450.673 -59.4821
372.669 442.005 -75.6493
384.242 410.668 -75.648
407.024 418.781 -59.4829
369.925 440.991 -76.8687
343.3 430.78 -82.6085
354.63 400.102 -82.6063
381.499 409.654 -76.8674
340.326 429.683 -82.6193
313.665 419.471 -77.0075
324.749 389.46 -77.0058
351.656 399.005 -82.617
310.912 418.456 -75.8022
288.278 409.794 -59.6695
299.151 380.355 -59.6693
321.996 388.445 -75.8005
286.164 409.016 -57.4251
270.989 403.213 -33.1559
281.718 374.161 -33.1567
297.037 379.577 -57.425
269.842 402.791 -30.2133
264.521 400.763 -1.56381
275.2 371.847 -1.56499
280.571 373.739 -30.2141
276.35 368.613 1.62061
281.738 370.52 30.245
291.747 341.196 30.2436
286.311 339.426 1.62002
282.894 370.912 33.183
298.185 376.315 57.3976
308.327 346.604 57.3942
292.904 341.588 33.1817
300.316 377.039 59.6392
323.158 385.118 75.7782
333.497 354.835 75.7724
310.459 347.328 59.6359
325.936 386.063 76.9842
352.844 395.601 82.6029
363.41 364.649 82.5957
336.275 355.78 76.9784
355.844 396.624 82.5929
382.715 406.171 76.8596
393.508 374.558 76.8535
366.41 365.672 82.5858
385.483 407.117 75.6408
408.266 415.228 59.4785
419.252 383.057 59.4749
396.276 375.504 75.6347
410.39 415.956 57.2367
425.727 421.429 33.0455
436.844 388.88 33.043
421.376 383.784 57.2332
426.882 421.826 30.1164
432.282 423.762 1.53956
443.445 391.079 1.53756
437.999 389.277 30.1139
432.281 423.762 -1.63076
426.866 421.834 -30.184
437.983 389.284 -30.185
443.444 391.079 -1.63277
425.712 421.439 -33.1086
410.4 415.98 -57.244
421.387 383.804 -57.2434
436.829 388.888 -33.1097
408.278 415.253 -59.4828
385.496 407.139 -75.6479
396.291 375.522 -75.6445
419.265 383.077 -59.4821
382.729 406.193 -76.8671
355.859 396.641 -82.606
366.427 365.686 -82.6012
393.523 374.575 -76.8637
352.859 395.618 -82.6166
325.953 386.073 -77.0054
336.292 355.787 -77.0016
363.427 364.662 -82.6119
323.175 385.127 -75.8003
300.33 377.037 -59.6691
310.472 347.325 -59.6676
333.514 354.841 -75.7965
298.197 376.312 -57.4249
282.878 370.896 -33.1566
292.886 341.573 -33.1566
308.339 346.6 -57.4234
281.721 370.504 -30.2141
276.349 368.612 -1.56505
286.31 339.425 -1.56564
291.729 341.181 -30.2142
287.381 336.162 1.61993
292.817 337.931 30.2435
302.102 308.352 30.2425
296.621 306.72 1.6199
293.983 338.294 33.1814
309.407 343.31 57.394
318.815 313.343 57.3903
303.268 308.715 33.1804
311.555 343.98 59.6353
334.594 351.487 75.7718
344.184 320.946 75.7648
320.964 314.013 59.6317
337.394 352.363 76.9776
364.529 361.233 82.5949
374.33 330.023 82.586
346.984 321.822 76.9705
367.554 362.182 82.585
394.652 371.067 76.8527
404.661 339.196 76.8452
377.354 330.972 82.576
397.442 371.946 75.6342
420.418 379.499 59.4744
430.607 347.066 59.4707
407.451 340.074 75.6267
422.559 380.174 57.2328
438.028 385.27 33.0426
448.339 352.455 33.0405
432.748 347.742 57.2291
439.192 385.638 30.1136
444.638 387.44 1.53731
454.994 354.486 1.53604
449.504 352.823 30.1115
444.637 387.44 -1.63285
439.176 385.645 -30.1851
449.489 352.827 -30.185
454.993 354.486 -1.63413
438.013 385.278 -33.1096
422.571 380.194 -57.2433
432.761 347.757 -57.2411
448.325 352.46 -33.1095
420.431 379.519 -59.4818
397.457 371.964 -75.6442
407.468 340.088 -75.6381
430.622 347.082 -59.4796
394.667 371.085 -76.8631
367.571 362.196 -82.6006
377.372 330.982 -82.5927
404.678 339.209 -76.857
364.547 361.246 -82.6112
337.411 352.37 -77.001
347.002 321.826 -76.9947
374.348 330.033 -82.6033
334.611 351.493 -75.796
311.569 343.977 -59.6672
320.978 314.009 -59.6642
344.201 320.95 -75.7897
309.418 343.306 -57.4233
293.966 338.279 -33.1565
303.25 308.701 -33.1557
318.827 313.338 -57.4202
292.799 337.916 -30.2142
287.38 336.161 -1.56562
296.62 306.719 -1.56565
302.083 308.338 -30.2134
297.61 303.428 1.61986
303.091 305.06 30.2424
311.648 275.239 30.2417
306.127 273.745 1.62033
304.266 305.393 33.1801
319.813 310.021 57.39
328.485 279.812 57.3858
312.823 275.573 33.1793
321.978 310.638 59.631
345.198 317.57 75.7641
354.037 286.789 75.7551
330.65 280.429 59.6268
348.019 318.377 76.9695
375.365 326.579 82.5849
384.396 295.131 82.5733
356.858 287.596 76.9606
378.411 327.454 82.575
405.718 335.678 76.8442
414.94 303.569 76.8347
387.442 296.006 82.5634
408.529 336.488 75.6261
431.685 343.48 59.47
441.074 310.81 59.4659
417.751 304.38 75.6165
433.842 344.103 57.2287
449.434 348.816 33.0401
458.939 315.754 33.0382
443.231 311.433 57.2246
450.607 349.155 30.1113
456.097 350.818 1.53581
465.644 317.613 1.53527
460.112 316.093 30.1094
456.096 350.819 -1.63408
450.592 349.159 -30.185
460.098 316.094 -30.1836
465.644 317.613 -1.63462
449.42 348.821 -33.1092
433.855 344.118 -57.2408
443.246 311.443 -57.2366
458.925 315.756 -33.1078
431.7 343.496 -59.479
408.546 336.501 -75.6375
417.77 304.389 -75.6279
441.09 310.821 -59.4748
405.735 335.69 -76.856
378.43 327.464 -82.5917
387.462 296.013 -82.5798
414.959 303.578 -76.8464
375.383 326.588 -82.6023
348.037 318.382 -76.9937
356.877 287.599 -76.9843
384.415 295.137 -82.5904
345.216 317.574 -75.789
321.992 310.634 -59.6635
330.664 280.425 -59.6587
354.055 286.791 -75.7796
319.825 310.016 -57.4199
304.248 305.379 -33.1554
312.805 275.56 -33.1538
328.498 279.807 -57.4152
303.072 305.045 -30.2133
297.609 303.427 -1.56556
306.126 273.745 -1.56509
311.629 275.226 -30.2117
307.035 270.427 1.62032
312.556 271.921 30.2416
320.384 241.873 30.2409
314.825 240.518 1.62121
313.74 272.225 33.1789
329.402 276.464 57.3855
337.335 246.029 57.3803
321.568 242.177 33.1782
331.582 277.028 59.6259
354.968 283.388 75.7543
363.053 252.382 75.7428
339.515 246.592 59.6207
357.808 284.126 76.9592
385.346 291.661 82.572
393.605 259.995 82.5568
365.894 253.121 76.9478
388.413 292.463 82.5621
415.911 300.026 76.8333
424.344 267.705 76.8208
396.672 260.798 82.5468
418.741 300.769 75.6157
442.063 307.199 59.465
450.65 274.314 59.4599
427.174 268.448 75.6031
444.236 307.769 57.2241
459.944 312.09 33.0377
468.64 278.801 33.0359
452.823 274.884 57.2189
461.125 312.399 30.1092
466.658 313.918 1.53506
475.396 280.476 1.53529
469.822 279.109 30.1074
466.657 313.918 -1.63442
461.111 312.4 -30.1834
469.809 279.107 -30.1804
475.396 280.476 -1.63419
459.931 312.092 -33.1073
444.251 307.779 -57.2361
452.84 274.889 -57.2296
468.629 278.799 -33.1043
442.08 307.209 -59.4739
418.76 300.778 -75.627
427.194 268.452 -75.6132
450.669 274.32 -59.4674
415.93 300.035 -76.845
388.432 292.47 -82.5784
396.693 260.802 -82.5618
424.364 267.709 -76.8312
385.365 291.667 -82.589
357.827 284.129 -76.9828
365.913 253.123 -76.9698
393.626 259.999 -82.5723
354.986 283.39 -75.7787
331.596 277.024 -59.6577
339.529 246.589 -59.651
363.072 252.384 -75.7656
329.414 276.46 -57.4147
313.722 272.212 -33.1533
321.549 242.166 -33.1509
337.348 246.025 -57.408
312.537 271.908 -30.2115
307.034 270.426 -1.56492
314.824 240.517 -1.56402
320.365 241.862 -30.2091
315.652 237.175 1.62122
321.212 238.53 30.2409
328.31 208.267 30.24
322.715 207.051 1.62243
322.403 238.805 33.1778
338.17 242.657 57.3799
345.364 212.008 57.3735
329.501 208.542 33.1769
340.363 243.167 59.6196
363.902 248.957 75.7417
371.233 217.745 75.7273
347.557 212.518 59.6132
366.759 249.627 76.946
394.471 256.502 82.5551
401.958 224.64 82.5356
374.091 218.415 76.9316
397.556 257.232 82.5451
425.228 264.139 76.8191
432.871 231.631 76.8028
405.043 225.37 82.5256
428.076 264.815 75.602
451.552 270.681 59.4587
459.335 237.609 59.4518
435.718 232.306 75.5858
453.739 271.197 57.2183
469.556 275.114 33.0352
477.445 241.615 33.0332
461.522 238.124 57.2114
470.746 275.39 30.1071
476.32 276.757 1.53506
484.25 243.093 1.53614
478.635 241.891 30.1051
476.319 276.757 -1.6338
470.733 275.387 -30.18
478.624 241.884 -30.1752
484.25 243.092 -1.63271
469.544 275.111 -33.1034
453.756 271.201 -57.2287
461.542 238.122 -57.2194
477.435 241.607 -33.0986
451.571 270.686 -59.4661
428.096 264.819 -75.6118
435.741 232.306 -75.5933
459.357 237.607 -59.4567
425.248 264.143 -76.8293
397.577 257.235 -82.5598
405.066 225.371 -82.5381
432.893 231.63 -76.8108
394.492 256.506 -82.5704
366.779 249.629 -76.9679
374.111 218.417 -76.9511
401.98 224.642 -82.5486
363.921 248.959 -75.7643
340.378 243.164 -59.6497
347.572 212.517 -59.6409
371.253 217.746 -75.7475
338.182 242.653 -57.4073
322.384 238.794 -33.1502
329.482 208.534 -33.1469
345.377 212.006 -57.3986
321.192 238.519 -30.2088
315.651 237.174 -1.56379
322.714 207.051 -1.56258
328.29 208.259 -30.2055
323.462 203.685 1.62243
329.056 204.901 30.24
335.427 174.435 30.2383
329.802 173.36 1.62382
330.254 205.147 33.1764
346.117 208.612 57.373
352.574 177.762 57.3649
336.625 174.681 33.1746
348.323 209.07 59.6118
371.999 214.297 75.7259
378.577 182.892 75.7084
354.78 178.219 59.6038
374.872 214.9 76.9295
402.739 221.126 82.5334
409.453 189.089 82.5095
381.45 183.496 76.912
405.84 221.784 82.5234
433.668 228.045 76.8007
440.519 195.377 76.7801
412.555 189.748 82.4995
436.531 228.654 75.5843
460.148 233.956 59.4503
467.126 200.724 59.4398
443.382 195.986 75.5637
462.348 234.416 57.2104
478.271 237.906 33.0322
485.35 204.214 33.0294
469.326 201.184 57.1999
479.469 238.149 30.1048
485.084 239.35 1.53588
492.206 205.473 1.53807
486.548 204.456 30.102
485.084 239.349 -1.63209
479.458 238.141 -30.1746
486.539 204.442 -30.1675
492.205 205.473 -1.6299
478.261 237.898 -33.0973
462.368 234.413 -57.218
469.348 201.175 -57.2047
485.342 204.199 -33.0902
460.17 233.954 -59.455
436.553 228.653 -75.5916
443.407 195.981 -75.5684
467.15 200.716 -59.4416
433.69 228.044 -76.8083
405.863 221.785 -82.5356
412.579 189.747 -82.5091
440.543 195.373 -76.7852
402.761 221.127 -82.5462
374.892 214.902 -76.9486
381.471 183.499 -76.9284
409.477 189.089 -82.5197
372.019 214.298 -75.7458
348.338 209.069 -59.6392
354.795 178.222 -59.6282
378.598 182.895 -75.7256
346.13 208.611 -57.3978
330.235 205.139 -33.1461
336.606 174.678 -33.1414
352.588 177.764 -57.3867
329.037 204.893 -30.2052
323.461 203.685 -1.56227
329.801 173.36 -1.56088
335.408 174.432 -30.2005
330.468 169.972 1.62372
336.094 171.047 30.2382
341.751 140.391 30.2323
336.102 139.459 1.6252
337.297 171.264 33.1737
353.246 174.345 57.3641
358.974 143.304 57.35
342.955 140.607 33.1678
355.462 174.75 59.6019
379.26 179.424 75.7065
385.088 147.843 75.6823
361.19 143.71 59.5878
382.146 179.962 76.9092
410.149 185.555 82.5067
416.089 153.368 82.4751
387.973 148.382 76.8851
413.264 186.145 82.4967
441.228 191.774 76.7773
447.281 158.978 76.7488
419.204 153.958 82.4651
444.105 192.317 75.5615
467.849 197.056 59.4377
474.006 163.694 59.4175
450.158 159.521 75.5331
470.062 197.457 57.1983
486.086 200.487 33.0278
492.34 166.609 33.0222
476.219 164.095 57.1781
487.291 200.691 30.1017
492.949 201.709 1.53773
499.245 167.624 1.54195
493.545 166.814 30.0962
492.948 201.708 -1.62898
487.282 200.677 -30.1666
493.54 166.792 -30.1563
499.245 167.623 -1.62475
486.078 200.472 -33.0882
470.084 197.447 -57.2027
476.245 164.079 -57.1811
492.336 166.587 -33.0779
467.873 197.047 -59.4392
444.13 192.312 -75.566
450.185 159.513 -75.5361
474.034 163.678 -59.4176
441.253 191.77 -76.7821
413.289 186.144 -82.506
419.23 153.956 -82.4725
447.308 158.97 -76.7523
410.173 185.555 -82.5166
382.167 179.965 -76.9253
387.997 148.387 -76.8983
416.115 153.367 -82.4831
379.281 179.427 -75.7233
355.478 174.753 -59.626
361.208 143.718 -59.6083
385.111 147.848 -75.6963
353.26 174.347 -57.3855
337.279 171.262 -33.1401
342.938 140.612 -33.1308
358.99 143.312 -57.3678
336.074 171.045 -30.2
330.467 169.972 -1.5604
336.101 139.459 -1.55891
341.733 140.395 -30.1907
336.693 136.052 1.62424
342.343 136.984 30.2313
347.354 106.164 30.1976
341.695 105.383 1.62577
343.551 137.171 33.1646
359.57 139.868 57.3467
364.613 108.661 57.2857
348.562 106.351 33.131
361.792 140.222 59.5827
385.69 144.356 75.6773
390.782 112.624 75.5993
366.836 109.016 59.5217
388.584 144.832 76.8789
416.699 149.818 82.469
421.847 117.51 82.3856
393.676 113.101 76.801
419.824 150.342 82.4592
447.901 155.362 76.7429
453.109 122.476 76.6698
424.972 118.034 82.3758
450.788 155.841 75.528
474.637 160.014 59.4125
479.904 126.549 59.3528
455.996 122.954 75.4549
476.859 160.352 57.1743
492.98 162.866 33.0184
498.325 128.8 32.9964
482.127 126.887 57.1147
494.192 163.027 30.0954
499.891 163.838 1.54123
505.267 129.538 1.54927
499.537 128.961 30.0735
499.891 163.836 -1.62312
494.187 163.005 -30.1547
499.539 128.932 -30.1293
505.267 129.537 -1.61509
492.977 162.843 -33.074
476.885 160.335 -57.1771
482.157 126.864 -57.1219
498.329 128.77 -33.0486
474.664 159.997 -59.4126
450.815 155.832 -75.5312
456.027 122.942 -75.4602
479.936 126.526 -59.3574
447.928 155.354 -76.7463
419.851 150.34 -82.4665
425.001 118.032 -82.3829
453.14 122.465 -76.6754
416.726 149.817 -82.4768
388.608 144.837 -76.892
393.703 113.109 -76.8114
421.876 117.509 -82.3931
385.713 144.361 -75.6909
361.81 140.231 -59.6028
366.857 109.034 -59.537
390.808 112.633 -75.6102
359.585 139.877 -57.3642
343.534 137.177 -33.1272
348.548 106.369 -33.0894
364.633 108.68 -57.2983
342.325 136.989 -30.1893
336.692 136.053 -1.55751
341.694 105.383 -1.55598
347.34 106.181 -30.1515
342.236 101.967 1.61871
347.896 102.749 30.1906
352.619 71.8919 29.9697
346.997 71.2638 1.61844
349.1 102.906 33.1111
365.151 105.216 57.2659
369.775 73.97 56.8721
353.824 72.0489 32.8902
367.369 105.52 59.4933
391.315 109.128 75.571
395.794 77.3527 75.0875
371.993 74.2738 59.0995
394.204 109.543 76.7697
422.375 113.953 82.3543
426.693 81.6019 81.8737
398.682 77.7679 76.2862
425.494 114.413 82.3467
453.632 118.855 76.6407
457.796 85.9475 76.2232
429.813 82.0623 81.866
456.516 119.267 75.4311
480.424 122.862 59.329
484.482 89.2894 59.0379
460.68 86.3599 75.0136
482.646 123.128 57.0989
498.844 125.041 32.9807
502.827 90.7303 32.8313
486.703 89.5554 56.8079
500.054 125.15 30.0688
505.784 125.728 1.54457
509.72 91.1556 1.54675
504.038 90.8399 29.9193
505.784 125.726 -1.6096
500.057 125.122 -30.1238
504.047 90.8108 -29.9726
509.721 91.154 -1.60742
498.848 125.011 -33.0329
482.676 123.104 -57.1062
486.739 89.5286 -56.8149
502.838 90.6999 -32.8816
480.456 122.839 -59.3337
456.547 119.255 -75.4365
460.714 86.3458 -75.016
484.518 89.2635 -59.0424
453.663 118.844 -76.6461
425.524 114.411 -82.3537
429.845 82.0603 -81.8707
457.829 85.9346 -76.2256
422.405 113.952 -82.3616
394.231 109.551 -76.7799
398.712 77.7794 -76.2937
426.726 81.6011 -81.8786
391.342 109.137 -75.5814
367.392 105.538 -59.5081
372.021 74.3027 -59.1069
395.823 77.3656 -75.0952
365.172 105.236 -57.2779
349.087 102.925 -33.069
353.819 72.0836 -32.8452
369.801 73.9998 -56.8768
347.881 102.766 -30.1441
342.235 101.969 -1.5486
346.997 71.2652 -1.54887
352.613 71.9253 -29.9203
347.652 67.9025 1.57443
353.274 68.5305 29.9257
360.255 38.5243 28.6307
354.892 37.909 1.57087
354.444 68.6702 32.7676
370.395 70.5913 56.7494
376.631 40.5293 54.3693
361.426 38.664 31.4726
372.553 70.863 58.9216
396.354 73.942 74.9096
401.483 43.7093 71.83
378.789 40.8009 56.5415
399.168 74.3133 76.0835
427.18 78.1474 81.671
431.032 47.6155 78.386
404.297 44.0806 73.0039
430.222 78.5585 81.6695
458.205 82.4438 76.0266
460.808 51.5674 73.0344
434.075 48.0267 78.3846
461.015 82.8093 74.8536
484.816 85.7388 58.8779
486.321 54.7492 56.5899
463.618 51.933 71.8614
486.977 85.9727 56.7098
503.101 87.1476 32.7332
503.709 56.4898 31.4489
488.481 54.9831 54.4218
504.281 87.2433 29.8851
509.963 87.5589 1.51247
510.228 57.0213 1.51075
504.889 56.5855 28.6008
509.964 87.5568 -1.57312
504.29 87.2136 -29.9383
504.888 56.5322 -28.645
510.228 57.0193 -1.57484
503.112 87.116 -32.7828
487.012 85.9447 -56.7161
488.513 54.933 -54.4156
503.71 56.4345 -31.4895
484.853 85.7121 -58.8816
461.049 82.7944 -74.8552
463.65 51.9158 -71.8573
486.354 54.7005 -56.5811
458.238 82.4307 -76.0287
430.254 78.5565 -81.6737
434.105 48.0257 -78.3865
460.839 51.5522 -73.0307
427.212 78.1468 -81.6757
399.198 74.3251 -76.0908
404.324 44.0968 -73.0116
431.063 47.616 -78.3884
396.384 73.9559 -74.9173
372.582 70.893 -58.929
378.809 40.8518 -56.5541
401.51 43.7277 -71.8382
370.421 70.6229 -56.7541
354.439 68.7067 -32.7226
361.412 38.7197 -31.4354
376.649 40.5817 -54.3792
353.267 68.5649 -29.8766
347.651 67.9048 -1.50511
354.892 37.9113 -1.50867
360.24 38.5779 -28.5894
355.739 34.6339 1.48566
361.102 35.2491 28.5455
369.097 6.15433 26.7671
364.08 5.57052 1.47684
362.208 35.3833 31.2313
377.412 37.2486 54.128
384.425 8.0561 50.849
370.203 6.28851 29.453
379.451 37.5053 56.1809
402.145 40.4136 71.4694
407.696 11.0053 67.1664
386.464 8.31282 52.9019
404.805 40.7572 72.5791
431.54 44.2921 77.9612
435.354 14.5634 73.2656
410.355 11.3488 68.2761
434.415 44.6674 77.9605
461.149 48.2081 72.6104
463.203 18.1453 68.2357
438.229 14.9387 73.2649
463.804 48.5479 71.5014
486.507 51.3641 56.2299
487.033 21.1472 52.8534
465.858 18.485 67.1267
488.542 51.6034 54.1774
503.769 53.1102 31.2045
503.247 23.001 29.382
489.069 21.3865 50.8009
504.875 53.2227 28.5144
510.214 53.6586 1.4244
509.318 23.5994 1.43608
504.352 23.1136 26.692
510.214 53.6549 -1.48719
504.874 53.1678 -28.5573
504.347 23.0336 -26.7154
509.318 23.5957 -1.47551
503.77 53.0521 -31.2438
488.573 51.5506 -54.1698
489.088 21.3153 -50.7891
503.243 22.9179 -29.4019
486.539 51.3143 -56.2205
463.835 48.5297 -71.4967
465.879 18.4697 -67.1232
487.054 21.0791 -52.8398
461.179 48.1929 -72.6065
434.445 44.6664 -77.9622
438.249 14.9376 -73.2656
463.223 18.1329 -68.2331
431.57 44.2927 -77.9634
404.832 40.7735 -72.5867
410.373 11.3629 -68.2812
435.374 14.5638 -73.2668
402.172 40.4331 -71.4777
379.471 37.5572 -56.1936
386.469 8.37869 -52.9162
407.713 11.0225 -67.1723
377.429 37.3032 -54.1388
362.193 35.4412 -31.195
370.18 6.36541 -29.431
384.428 8.1247 -50.8613
361.086 35.3039 -28.5055
355.737 34.6373 -1.42476
364.079 5.57394 -1.43358
369.073 6.22803 -26.7415
365.104 2.61152 1.34741
370.121 3.19534 26.6377
380.264 -21.2014 23.7798
375.842 -21.823 1.32803
371.129 3.32625 29.0901
385.351 5.09384 50.4862
393.871 -19.3113 45.2626
381.272 -21.0705 26.2322
387.213 5.33686 52.3616
408.445 8.02933 66.6261
414.616 -16.538 59.8087
395.733 -19.0683 47.138
410.876 8.34608 67.6374
435.875 11.5607 72.6269
439.284 -13.2708 65.2118
417.047 -16.2213 60.82
438.501 11.9031 72.6228
463.475 15.1096 67.5936
464.094 -9.99661 60.683
441.91 -12.9284 65.2076
465.898 15.4236 66.5776
487.073 18.0858 52.3043
485.28 -7.20734 46.947
466.517 -9.6826 59.6671
488.927 18.3206 50.4317
503.105 19.9351 29.0128
499.648 -5.32314 26.1094
487.134 -6.97258 45.0744
504.11 20.0558 26.5641
509.076 20.5416 1.30823
505.042 -4.62397 1.3259
500.653 -5.20239 23.6607
509.076 20.5393 -1.34366
504.105 19.9772 -26.5836
500.652 -5.20487 -23.6608
505.042 -4.62629 -1.32598
503.1 19.8542 -29.032
488.946 18.2516 -50.4192
487.134 -6.97749 -45.0744
499.648 -5.32784 -26.1092
487.092 18.0192 -52.2916
465.916 15.4098 -66.575
466.518 -9.68527 -59.6669
485.281 -7.20994 -46.9468
463.494 15.0976 -67.591
438.519 11.9023 -72.6235
441.911 -12.9292 -65.2075
464.095 -9.99742 -60.6829
435.893 11.5606 -72.6278
410.892 8.35969 -67.6423
417.048 -16.2212 -60.82
439.284 -13.2709 -65.2118
408.46 8.04466 -66.631
387.216 5.40089 -52.3749
395.733 -19.0664 -47.1381
414.616 -16.5363 -59.8087
385.353 5.16009 -50.499
371.105 3.4008 -29.0687
381.271 -21.0662 -26.2319
393.87 -19.3072 -45.2622
370.098 3.26781 -26.6158
365.103 2.61372 -1.30787
375.841 -21.8208 -1.32725
380.263 -21.1992 -23.779
-81.9719 949.881 25.9043
-85.6354 946.337 0.150261
-81.9269 949.864 -25.5979
-71.404 959.922 -47.4366
-55.5718 974.917 -62.0281
-36.8081 992.518 -67.1272
-18.0318 1010.08 -61.9794
-2.16471 1025.04 -47.3993
8.38142 1035.14 -25.5902
12.0772 1038.7 0.166371
8.39792 1035.1 25.9189
-2.13988 1024.98 47.7205
-18.013 1010.04 62.2972
-36.7969 992.478 67.4404
-55.5699 974.888 62.3359
-71.4383 959.926 47.7485
382.635 -22.3855 1.31945e-05
387.058 -21.764 22.4517
399.656 -20.0048 41.4821
418.539 -17.4746 54.1528
440.776 -14.5241 58.5446
462.96 -11.5923 54.02
481.723 -9.11705 41.3
494.237 -7.4676 22.335
498.627 -6.88918 0.000239176
494.237 -7.46776 -22.3346
481.723 -9.11742 -41.2997
462.96 -11.5927 -54.0199
440.776 -14.5245 -58.5445
418.539 -17.4748 -54.1527
399.656 -20.0049 -41.4821
387.058 -21.764 -22.4517
</DataArray>
</Points>
<Cells>
<DataArray type="Int32" Name="connectivity" format="ascii">
0 1 2 3 
4 5 6 7 
8 9 10 11 
12 13 14 15 
16 17 18 19 
20 21 22 23 
24 25 26 27 
28 29 30 31 
32 33 34 35 
36 37 38 39 
40 41 42 43 
44 45 46 47 
48 49 50 51 
52 53 54 55 
56 57 58 59 
60 61 62 63 
64 65 66 67 
68 69 70 71 
72 73 74 75 
76 77 78 79 
80 81 82 83 
84 85 86 87 
88 89 90 91 
92 93 94 95 
96 97 98 99 
100 101 102 103 
104 105 106 107 
108 109 110 111 
112 113 114 115 
116 117 118 119 
120 121 122 123 
124 125 126 127 
128 129 130 131 
132 133 134 135 
136 137 138 139 
140 141 142 143 
144 145 146 147 
148 149 150 151 
152 153 154 155 
156 157 158 159 
160 161 162 163 
164 165 166 167 
168 169 170 171 
172 173 174 175 
176 177 178 179 
180 181 182 183 
184 185 186 187 
188 189 190 191 
192 193 194 195 
196 197 198 199 
200 201 202 203 
204 205 206 207 
208 209 210 211 
212 213 214 215 
216 217 218 219 
220 221 222 223 
224 225 226 227 
228 229 230 231 
232 233 234 235 
236 237 238 239 
240 241 242 243 
244 245 246 247 
248 249 250 251 
252 253 254 255 
256 257 258 259 
260 261 262 263 
264 265 266 267 
268 269 270 271 
272 273 274 275 
276 277 278 279 
280 281 282 283 
284 285 286 287 
288 289 290 291 
292 293 294 295 
296 297 298 299 
300 301 302 303 
304 305 306 307 
308 309 310 311 
312 313 314 315 
316 317 318 319 
320 321 322 323 
324 325 326 327 
328 329 330 331 
332 333 334 335 
336 337 338 339 
340 341 342 343 
344 345 346 347 
348 349 350 351 
352 353 354 355 
356 357 358 359 
360 361 362 363 
364 365 366 367 
368 369 370 371 
372 373 374 375 
376 377 378 379 
380 381 382 383 
384 385 386 387 
388 389 390 391 
392 393 394 395 
396 397 398 399 
400 401 402 403 
404 405 406 407 
408 409 410 411 
412 413 414 415 
416 417 418 419 
420 421 422 423 
424 425 426 427 
428 429 430 431 
432 433 434 435 
436 437 438 439 
440 441 442 443 
444 445 446 447 
448 449 450 451 
452 453 454 455 
456 457 458 459 
460 461 462 463 
464 465 466 467 
468 469 470 471 
472 473 474 475 
476 477 478 479 
480 481 482 483 
484 485 486 487 
488 489 490 491 
492 493 494 495 
496 497 498 499 
500 501 502 503 
504 505 506 507 
508 509 510 511 
512 513 514 515 
516 517 518 519 
520 521 522 523 
524 525 526 527 
528 529 530 531 
532 533 534 535 
536 537 538 539 
540 541 542 543 
544 545 546 547 
548 549 550 551 
552 553 554 555 
556 557 558 559 
560 561 562 563 
564 565 566 567 
568 569 570 571 
572 573 574 575 
576 577 578 579 
580 581 582 583 
584 585 586 587 
588 589 590 591 
592 593 594 595 
596 597 598 599 
600 601 602 603 
604 605 606 607 
608 609 610 611 
612 613 614 615 
616 617 618 619 
620 621 622 623 
624 625 626 627 
628 629 630 631 
632 633 634 635 
636 637 638 639 
640 641 642 643 
644 645 646 647 
648 649 650 651 
652 653 654 655 
656 657 658 659 
660 661 662 663 
664 665 666 667 
668 669 670 671 
672 673 674 675 
676 677 678 679 
680 681 682 683 
684 685 686 687 
688 689 690 691 
692 693 694 695 
696 697 698 699 
700 701 702 703 
704 705 706 707 
708 709 710 711 
712 713 714 715 
716 717 718 719 
720 721 722 723 
724 725 726 727 
728 729 730 731 
732 733 734 735 
736 737 738 739 
740 741 742 743 
744 745 746 747 
748 749 750 751 
752 753 754 755 
756 757 758 759 
760 761 762 763 
764 765 766 767 
768 769 770 771 
772 773 774 775 
776 777 778 779 
780 781 782 783 
784 785 786 787 
788 789 790 791 
792 793 794 795 
796 797 798 799 
800 801 802 803 
804 805 806 807 
808 809 810 811 
812 813 814 815 
816 817 818 819 
820 821 822 823 
824 825 826 827 
828 829 830 831 
832 833 834 835 
836 837 838 839 
840 841 842 843 
844 845 846 847 
848 849 850 851 
852 853 854 855 
856 857 858 859 
860 861 862 863 
864 865 866 867 
868 869 870 871 
872 873 874 875 
876 877 878 879 
880 881 882 883 
884 885 886 887 
888 889 890 891 
892 893 894 895 
896 897 898 899 
900 901 902 903 
904 905 906 907 
908 909 910 911 
912 913 914 915 
916 917 918 919 
920 921 922 923 
924 925 926 927 
928 929 930 931 
932 933 934 935 
936 937 938 939 
940 941 942 943 
944 945 946 947 
948 949 950 951 
952 953 954 955 
956 957 958 959 
960 961 962 963 
964 965 966 967 
968 969 970 971 
972 973 974 975 
976 977 978 979 
980 981 982 983 
984 985 986 987 
988 989 990 991 
992 993 994 995 
996 997 998 999 
1000 1001 1002 1003 
1004 1005 1006 1007 
1008 1009 1010 1011 
1012 1013 1014 1015 
1016 1017 1018 1019 
1020 1021 1022 1023 
1024 1025 1026 1027 
1028 1029 1030 1031 
1032 1033 1034 1035 
1036 1037 1038 1039 
1040 1041 1042 1043 
1044 1045 1046 1047 
1048 1049 1050 1051 
1052 1053 1054 1055 
1056 1057 1058 1059 
1060 1061 1062 1063 
1064 1065 1066 1067 
1068 1069 1070 1071 
1072 1073 1074 1075 
1076 1077 1078 1079 
1080 1081 1082 1083 
1084 1085 1086 1087 
1088 1089 1090 1091 
1092 1093 1094 1095 
1096 1097 1098 1099 
1100 1101 1102 1103 
1104 1105 1106 1107 
1108 1109 1110 1111 
1112 1113 1114 1115 
1116 1117 1118 1119 
1120 1121 1122 1123 
1124 1125 1126 1127 
1128 1129 1130 1131 
1132 1133 1134 1135 
1136 1137 1138 1139 
1140 1141 1142 1143 
1144 1145 1146 1147 
1148 1149 1150 1151 
1152 1153 1154 1155 
1156 1157 1158 1159 
1160 1161 1162 1163 
1164 1165 1166 1167 
1168 1169 1170 1171 
1172 1173 1174 1175 
1176 1177 1178 1179 
1180 1181 1182 1183 
1184 1185 1186 1187 
1188 1189 1190 1191 
1192 1193 1194 1195 
1196 1197 1198 1199 
1200 1201 1202 1203 
1204 1205 1206 1207 
1208 1209 1210 1211 
1212 1213 1214 1215 
1216 1217 1218 1219 
1220 1221 1222 1223 
1224 1225 1226 1227 
1228 1229 1230 1231 
1232 1233 1234 1235 
1236 1237 1238 1239 
1240 1241 1242 1243 
1244 1245 1246 1247 
1248 1249 1250 1251 
1252 1253 1254 1255 
1256 1257 1258 1259 
1260 1261 1262 1263 
1264 1265 1266 1267 
1268 1269 1270 1271 
1272 1273 1274 1275 
1276 1277 1278 1279 
1280 1281 1282 1283 
1284 1285 1286 1287 
1288 1289 1290 1291 
1292 1293 1294 1295 
1296 1297 1298 1299 
1300 1301 1302 1303 
1304 1305 1306 1307 
1308 1309 1310 1311 
1312 1313 1314 1315 
1316 1317 1318 1319 
1320 1321 1322 1323 
1324 1325 1326 1327 
1328 1329 1330 1331 
1332 1333 1334 1335 
1336 1337 1338 1339 
1340 1341 1342 1343 
1344 1345 1346 1347 
1348 1349 1350 1351 
1352 1353 1354 1355 
1356 1357 1358 1359 
1360 1361 1362 1363 
1364 1365 1366 1367 
1368 1369 1370 1371 
1372 1373 1374 1375 
1376 1377 1378 1379 
1380 1381 1382 1383 
1384 1385 1386 1387 
1388 1389 1390 1391 
1392 1393 1394 1395 
1396 1397 1398 1399 
1400 1401 1402 1403 
1404 1405 1406 1407 
1408 1409 1410 1411 
1412 1413 1414 1415 
1416 1417 1418 1419 
1420 1421 1422 1423 
1424 1425 1426 1427 
1428 1429 1430 1431 
1432 1433 1434 1435 
1436 1437 1438 1439 
1440 1441 1442 1443 
1444 1445 1446 1447 
1448 1449 1450 1451 
1452 1453 1454 1455 
1456 1457 1458 1459 
1460 1461 1462 1463 
1464 1465 1466 1467 
1468 1469 1470 1471 
1472 1473 1474 1475 
1476 1477 1478 1479 
1480 1481 1482 1483 
1484 1485 1486 1487 
1488 1489 1490 1491 
1492 1493 1494 1495 
1496 1497 1498 1499 
1500 1501 1502 1503 
1504 1505 1506 1507 
1508 1509 1510 1511 
1512 1513 1514 1515 
1516 1517 1518 1519 
1520 1521 1522 1523 
1524 1525 1526 1527 
1528 1529 1530 1531 
1532 1533 1534 1535 
1536 1537 1538 1539 
1540 1541 1542 1543 
1544 1545 1546 1547 
1548 1549 1550 1551 
1552 1553 1554 1555 
1556 1557 1558 1559 
1560 1561 1562 1563 
1564 1565 1566 1567 
1568 1569 1570 1571 
1572 1573 1574 1575 
1576 1577 1578 1579 
1580 1581 1582 1583 
1584 1585 1586 1587 
1588 1589 1590 1591 
1592 1593 1594 1595 
1596 1597 1598 1599 
1600 1601 1602 1603 
1604 1605 1606 1607 
1608 1609 1610 1611 
1612 1613 1614 1615 
1616 1617 1618 1619 
1620 1621 1622 1623 
1624 1625 1626 1627 
1628 1629 1630 1631 
1632 1633 1634 1635 
1636 1637 1638 1639 
1640 1641 1642 1643 
1644 1645 1646 1647 
1648 1649 1650 1651 
1652 1653 1654 1655 
1656 1657 1658 1659 
1660 1661 1662 1663 
1664 1665 1666 1667 
1668 1669 1670 1671 
1672 1673 1674 1675 
1676 1677 1678 1679 
1680 1681 1682 1683 
1684 1685 1686 1687 
1688 1689 1690 1691 
1692 1693 1694 1695 
1696 1697 1698 1699 
1700 1701 1702 1703 
1704 1705 1706 1707 
1708 1709 1710 1711 
1712 1713 1714 1715 
1716 1717 1718 1719 
1720 1721 1722 1723 
1724 1725 1726 1727 
1728 1729 1730 1731 
1732 1733 1734 1735 
1736 1737 1738 1739 
1740 1741 1742 1743 
1744 1745 1746 1747 
1748 1749 1750 1751 
1752 1753 1754 1755 
1756 1757 1758 1759 
1760 1761 1762 1763 
1764 1765 1766 1767 
1768 1769 1770 1771 
1772 1773 1774 1775 
1776 1777 1778 1779 
1780 1781 1782 1783 
1784 1785 1786 1787 
1788 1789 1790 1791 
1792 1793 1794 1795 
1796 1797 1798 1799 
1800 1801 1802 1803 
1804 1805 1806 1807 
1808 1809 1810 1811 
1812 1813 1814 1815 
1816 1817 1818 1819 
1820 1821 1822 1823 
1824 1825 1826 1827 
1828 1829 1830 1831 
1832 1833 1834 1835 
1836 1837 1838 1839 
1840 1841 1842 1843 
1844 1845 1846 1847 
1848 1849 1850 1851 
1852 1853 1854 1855 
1856 1857 1858 1859 
1860 1861 1862 1863 
1864 1865 1866 1867 
1868 1869 1870 1871 
1872 1873 1874 1875 
1876 1877 1878 1879 
1880 1881 1882 1883 
1884 1885 1886 1887 
1888 1889 1890 1891 
1892 1893 1894 1895 
1896 1897 1898 1899 
1900 1901 1902 1903 
1904 1905 1906 1907 
1908 1909 1910 1911 
1912 1913 1914 1915 
1916 1917 1918 1919 
1920 1921 1922 1923 
1924 1925 1926 1927 
1928 1929 1930 1931 
1932 1933 1934 1935 
1936 1937 1938 1939 
1940 1941 1942 1943 
1944 1945 1946 1947 
1948 1949 1950 1951 
1952 1953 1954 1955 
1956 1957 1958 1959 
1960 1961 1962 1963 
1964 1965 1966 1967 
1968 1969 1970 1971 
1972 1973 1974 1975 
1976 1977 1978 1979 
1980 1981 1982 1983 
1984 1985 1986 1987 
1988 1989 1990 1991 
1992 1993 1994 1995 
1996 1997 1998 1999 
2000 2001 2002 2003 
2004 2005 2006 2007 
2008 2009 2010 2011 
2012 2013 2014 2015 
2016 2017 2018 2019 
2020 2021 2022 2023 
2024 2025 2026 2027 
2028 2029 2030 2031 
2032 2033 2034 2035 
2036 2037 2038 2039 
2040 2041 2042 2043 
2044 2045 2046 2047 
2048 2049 2050 2051 2052 2053 2054 2055 2056 2057 2058 2059 2060 2061 2062 2063 
2064 2065 2066 2067 2068 2069 2070 2071 2072 2073 2074 2075 2076 2077 2078 2079 
</DataArray>
<DataArray type="Int32" Name="offsets" format="ascii">
4 8 12 16 20 24 28 32 36 40 44 48 52 56 60 64 68 72 76 80 84 88 92 96 100 104 108 112 116 120 124 128 132 136 140 144 148 152 156 160 164 168 172 176 180 184 188 192 196 200 204 208 212 216 220 224 228 232 236 240 244 248 252 256 260 264 268 272 276 280 284 288 292 296 300 304 308 312 316 320 324 328 332 336 340 344 348 352 356 360 364 368 372 376 380 384 388 392 396 400 404 408 412 416 420 424 428 432 436 440 444 448 452 456 460 464 468 472 476 480 484 488 492 496 500 504 508 512 516 520 524 528 532 536 540 544 548 552 556 560 564 568 572 576 580 584 588 592 596 600 604 608 612 616 620 624 628 632 636 640 644 648 652 656 660 664 668 672 676 680 684 688 692 696 700 704 708 712 716 720 724 728 732 736 740 744 748 752 756 760 764 768 772 776 780 784 788 792 796 800 804 808 812 816 820 824 828 832 836 840 844 848 852 856 860 864 868 872 876 880 884 888 892 896 900 904 908 912 916 920 924 928 932 936 940 944 948 952 956 960 964 968 972 976 980 984 988 992 996 1000 1004 1008 1012 1016 1020 1024 1028 1032 1036 1040 1044 1048 1052 1056 1060 1064 1068 1072 1076 1080 1084 1088 1092 1096 1100 1104 1108 1112 1116 1120 1124 1128 1132 1136 1140 1144 1148 1152 1156 1160 1164 1168 1172 1176 1180 1184 1188 1192 1196 1200 1204 1208 1212 1216 1220 1224 1228 1232 1236 1240 1244 1248 1252 1256 1260 1264 1268 1272 1276 1280 1284 1288 1292 1296 1300 1304 1308 1312 1316 1320 1324 1328 1332 1336 1340 1344 1348 1352 1356 1360 1364 1368 1372 1376 1380 1384 1388 1392 1396 1400 1404 1408 1412 1416 1420 1424 1428 1432 1436 1440 1444 1448 1452 1456 1460 1464 1468 1472 1476 1480 1484 1488 1492 1496 1500 1504 1508 1512 1516 1520 1524 1528 1532 1536 1540 1544 1548 1552 1556 1560 1564 1568 1572 1576 1580 1584 1588 1592 1596 1600 1604 1608 1612 1616 1620 1624 1628 1632 1636 1640 1644 1648 1652 1656 1660 1664 1668 1672 1676 1680 1684 1688 1692 1696 1700 1704 1708 1712 1716 1720 1724 1728 1732 1736 1740 1744 1748 1752 1756 1760 1764 1768 1772 1776 1780 1784 1788 1792 1796 1800 1804 1808 1812 1816 1820 1824 1828 1832 1836 1840 1844 1848 1852 1856 1860 1864 1868 1872 1876 1880 1884 1888 1892 1896 1900 1904 1908 1912 1916 1920 1924 1928 1932 1936 1940 1944 1948 1952 1956 1960 1964 1968 1972 1976 1980 1984 1988 1992 1996 2000 2004 2008 2012 2016 2020 2024 2028 2032 2036 2040 2044 2048 2064 2080 
</DataArray>
<DataArray type="UInt8" Name="types" format="ascii">
7 7 7 7 7 7 7 7 7 7 7 7 7 7 7 7 7 7 7 7 7 7 7 7 7 7 7 7 7 7 7 7 7 7 7 7 7 7 7 7 7 7 7 7 7 7 7 7 7 7 7 7 7 7 7 7 7 7 7 7 7 7 7 7 7 7 7 7 7 7 7 7 7 7 7 7 7 7 7 7 7 7 7 7 7 7 7 7 7 7 7 7 7 7 7 7 7 7 7 7 7 7 7 7 7 7 7 7 7 7 7 7 7 7 7 7 7 7 7 7 7 7 7 7 7 7 7 7 7 7 7 7 7 7 7 7 7 7 7 7 7 7 7 7 7 7 7 7 7 7 7 7 7 7 7 7 7 7 7 7 7 7 7 7 7 7 7 7 7 7 7 7 7 7 7 7 7 7 7 7 7 7 7 7 7 7 7 7 7 7 7 7 7 7 7 7 7 7 7 7 7 7 7 7 7 7 7 7 7 7 7 7 7 7 7 7 7 7 7 7 7 7 7 7 7 7 7 7 7 7 7 7 7 7 7 7 7 7 7 7 7 7 7 7 7 7 7 7 7 7 7 7 7 7 7 7 7 7 7 7 7 7 7 7 7 7 7 7 7 7 7 7 7 7 7 7 7 7 7 7 7 7 7 7 7 7 7 7 7 7 7 7 7 7 7 7 7 7 7 7 7 7 7 7 7 7 7 7 7 7 7 7 7 7 7 7 7 7 7 7 7 7 7 7 7 7 7 7 7 7 7 7 7 7 7 7 7 7 7 7 7 7 7 7 7 7 7 7 7 7 7 7 7 7 7 7 7 7 7 7 7 7 7 7 7 7 7 7 7 7 7 7 7 7 7 7 7 7 7 7 7 7 7 7 7 7 7 7 7 7 7 7 7 7 7 7 7 7 7 7 7 7 7 7 7 7 7 7 7 7 7 7 7 7 7 7 7 7 7 7 7 7 7 7 7 7 7 7 7 7 7 7 7 7 7 7 7 7 7 7 7 7 7 7 7 7 7 7 7 7 7 7 7 7 7 7 7 7 7 7 7 7 7 7 7 7 7 7 7 7 7 7 7 7 7 7 7 7 7 7 7 7 7 7 7 7 7 7 7 7 7 7 7 7 7 7 7 7 7 7 7 7 7 7 7 7 7 7 7 7 7 7 7 7 
</DataArray>
</Cells>
<CellData Scalars="cell variable 4" Vectors="cell vector">
<DataArray type="Float64" NumberOfComponents="3" Name="cell vector" format="ascii">
0.155643 0.111143 0.981541
0.481588 0.255136 0.838438
0.742862 0.337991 0.577856
0.873719 0.422385 0.241258
0.758842 0.625068 -0.18289
0.363627 0.731011 -0.577407
-0.137909 -0.552716 0.82188
-0.0169348 -0.222726 0.974734
0.0351123 0.209504 0.977177
0.119785 0.561356 0.818859
0.348076 0.738461 0.57751
0.74819 0.636774 0.186359
0.870171 0.430238 -0.240202
0.726286 0.372821 -0.577506
-0.4628 -0.287717 0.838472
-0.172419 -0.0851869 0.981333
0.14642 0.128611 0.980826
0.421793 0.360944 0.831751
0.631781 0.539604 0.556489
0.739111 0.644272 0.196539
0.718762 0.6674 -0.194827
0.570288 0.604709 -0.555966
-0.352687 -0.431307 0.830413
-0.120422 -0.155271 0.980505
0.123014 0.152333 0.980644
0.350842 0.432606 0.830519
0.568029 0.60654 0.556285
0.716873 0.66929 0.195305
0.736935 0.646885 -0.196129
0.62912 0.54286 -0.556337
-0.420437 -0.362645 0.831698
-0.149329 -0.12556 0.980783
0.146934 0.128861 0.980717
0.420302 0.364258 0.831061
0.628762 0.544571 0.555069
0.737805 0.646255 0.194932
0.723455 0.662225 -0.19512
0.567849 0.608358 -0.55448
-0.350174 -0.437013 0.828491
-0.122364 -0.154645 0.980363
0.124218 0.152507 0.980465
0.348924 0.437843 0.828581
0.566738 0.609083 0.55482
0.722015 0.663689 0.195478
0.736333 0.648021 -0.194635
0.627553 0.546222 -0.554814
-0.419399 -0.365456 0.830991
-0.148032 -0.127531 0.980725
0.148589 0.127493 0.980646
0.424142 0.360871 0.830588
0.634934 0.538545 0.553921
0.746439 0.636713 0.193458
0.734759 0.649483 -0.195706
0.568534 0.60822 -0.553929
-0.237519 -0.541235 0.806629
0.116689 -0.392275 0.912417
-0.0981701 0.374911 0.921848
0.227375 0.549101 0.804232
0.567486 0.608914 0.554241
0.733593 0.650702 0.196033
0.745417 0.638 -0.193156
0.63432 0.539606 -0.553592
-0.42333 -0.361994 0.830514
-0.148829 -0.12682 0.980697
0.15076 0.125286 0.980599
0.429342 0.355368 0.830288
0.641783 0.531038 0.553275
0.753478 0.628621 0.19263
0.742442 0.640567 -0.196098
0.596425 0.580848 -0.553979
-0.290562 -0.50126 0.815054
0.0234639 -0.314685 0.948906
-0.0147726 0.305539 0.952065
0.280963 0.509659 0.813208
0.595617 0.581384 0.554286
0.741696 0.641321 0.196453
0.752856 0.629476 -0.192268
0.641495 0.531784 -0.552893
-0.428721 -0.356295 0.830212
-0.150573 -0.124941 0.980672
0.152645 0.123027 0.980594
0.434251 0.349326 0.8303
0.648951 0.522191 0.553335
0.762512 0.617635 0.192619
0.754384 0.626402 -0.19628
0.618869 0.556814 -0.554039
-0.340689 -0.456414 0.821959
-0.0496507 -0.243871 0.968536
0.0527143 0.240374 0.969248
0.331363 0.46562 0.820607
0.617837 0.557654 0.554346
0.753776 0.62701 0.196672
0.762122 0.618247 -0.1922
0.648841 0.522767 -0.552919
-0.433778 -0.350089 0.830226
-0.152271 -0.122824 0.980677
0.154675 0.12035 0.980608
0.439845 0.341925 0.830436
0.657399 0.511237 0.553591
0.773211 0.604144 0.192756
0.767545 0.610147 -0.196457
0.637277 0.535319 -0.554357
-0.379888 -0.416657 0.825883
-0.0923517 -0.198736 0.975692
0.0943139 0.196482 0.975961
0.372293 0.424962 0.82511
0.636165 0.53633 0.554657
0.766994 0.61071 0.196859
0.772934 0.604639 -0.192311
0.657366 0.511745 -0.553161
-0.439482 -0.342564 0.830365
-0.154221 -0.120193 0.980698
0.1569 0.117281 0.980626
0.446108 0.333333 0.830588
0.666902 0.498484 0.553855
0.784993 0.588708 0.192895
0.781034 0.592727 -0.196622
0.653453 0.515055 -0.554723
-0.409145 -0.383788 0.827833
-0.119252 -0.168137 0.978524
0.121189 0.165905 0.978667
0.403685 0.390311 0.827463
0.652401 0.516077 0.555011
0.780529 0.593261 0.197017
0.784775 0.589146 -0.192447
0.6669 0.498967 -0.553423
-0.445819 -0.333879 0.830524
-0.156407 -0.117133 0.980723
0.159276 0.1139 0.980642
0.452837 0.32381 0.830714
0.677075 0.484334 0.554066
0.797395 0.571761 0.193004
0.79456 0.574419 -0.196764
0.668217 0.495403 -0.555033
-0.430789 -0.357231 0.828738
-0.136917 -0.14663 0.97967
0.138918 0.144276 0.979738
0.427172 0.361915 0.828578
0.667307 0.496324 0.555305
0.794108 0.574914 0.197145
0.797209 0.572169 -0.192564
0.677089 0.484802 -0.553641
-0.452596 -0.324287 0.83066
-0.158753 -0.113747 0.980744
0.161734 0.110283 0.980653
0.459828 0.313555 0.830807
0.687617 0.469067 0.55422
0.810081 0.553615 0.193079
0.807991 0.555327 -0.196881
0.681756 0.47633 -0.555264
-0.44742 -0.335119 0.829163
-0.148884 -0.131051 0.980132
0.150857 0.128682 0.980145
0.445204 0.338228 0.829093
0.681011 0.477101 0.555517
0.807599 0.555769 0.197243
0.809921 0.553997 -0.192654
0.687639 0.469522 -0.553806
-0.459617 -0.313978 0.830765
-0.161183 -0.110119 0.980762
0.164223 0.106479 0.98066
0.4669 0.30274 0.830875
0.698267 0.452926 0.554329
0.822812 0.534493 0.193127
0.821213 0.535549 -0.196968
0.694262 0.457707 -0.555432
-0.460622 -0.316204 0.829363
-0.157209 -0.119448 0.980315
0.15907 0.117178 0.980289
0.459382 0.318113 0.82932
0.693663 0.458332 0.555665
0.82088 0.535933 0.197311
0.822678 0.534847 -0.192718
0.698299 0.453366 -0.55393
-0.466707 -0.303116 0.830846
-0.163644 -0.106303 0.980775
0.166699 0.102525 0.980663
0.473916 0.291507 0.83092
0.708817 0.436137 0.554403
0.835395 0.514594 0.193156
0.834113 0.515203 -0.197031
0.706051 0.439152 -0.555551
-0.471273 -0.299836 0.829458
-0.163148 -0.110574 0.980386
0.164853 0.108484 0.980334
0.470648 0.300938 0.829414
0.705574 0.43965 0.555764
0.833836 0.515528 0.197354
0.835285 0.514917 -0.192765
0.708859 0.436557 -0.554019
-0.473737 -0.291839 0.830905
-0.166093 -0.102336 0.980786
0.169127 0.0984558 0.980664
0.480797 0.279933 0.830946
0.719154 0.418813 0.554448
0.84769 0.494071 0.193171
0.846623 0.494359 -0.197077
0.717206 0.420581 -0.555632
-0.480246 -0.285097 0.829508
-0.16758 -0.103471 0.980414
0.169116 0.101601 0.980345
0.47999 0.285689 0.829452
0.716824 0.420976 0.555826
0.846394 0.494629 0.197381
0.847605 0.494363 -0.192798
0.719208 0.419209 -0.554079
-0.48063 -0.280222 0.830945
-0.168494 -0.0982523 0.980794
0.171489 0.0942857 0.980664
0.487491 0.268062 0.83096
0.729198 0.401036 0.554473
0.859608 0.473029 0.193177
0.85868 0.473092 -0.197112
0.727761 0.401966 -0.555687
-0.488087 -0.271363 0.829538
-0.171052 -0.097504 0.980425
0.172425 0.0958686 0.980346
0.488043 0.271657 0.829467
0.727454 0.40228 0.555861
0.858492 0.473314 0.197397
0.859545 0.473289 -0.192822
0.729264 0.401405 -0.554119
-0.487334 -0.268309 0.830973
-0.17083 -0.0940669 0.9808
0.17377 0.0900298 0.980662
0.493954 0.255942 0.830965
0.738882 0.382885 0.554484
0.871079 0.451557 0.193176
0.870239 0.451466 -0.197136
0.737752 0.383271 -0.555721
-0.495159 -0.258174 0.829557
-0.173934 -0.0922005 0.980432
0.175157 0.0907992 0.980345
0.49523 0.258309 0.829472
0.737505 0.383519 0.555877
0.870085 0.451646 0.197403
0.871036 0.451785 -0.192839
0.738962 0.383222 -0.554145
-0.493805 -0.256148 0.83099
-0.173086 -0.0897958 0.980805
0.175957 0.0857027 0.98066
0.500149 0.243622 0.830963
0.748156 0.364431 0.554484
0.882051 0.429735 0.193171
0.881269 0.429531 -0.197153
0.747209 0.364462 -0.555739
-0.501708 -0.245163 0.829568
-0.176471 -0.0872038 0.980435
0.177567 0.0860184 0.980342
0.501847 0.245212 0.82947
0.747011 0.364655 0.555879
0.881143 0.429673 0.197401
0.882026 0.42993 -0.19285
0.74825 0.364733 -0.554158
-0.500008 -0.243783 0.831
-0.17525 -0.0854554 0.980808
0.178041 0.0813214 0.980657
0.506046 0.231151 0.830955
0.756978 0.345748 0.554475
0.89248 0.407637 0.193161
0.891746 0.407329 -0.197161
0.756163 0.345494 -0.555744
-0.507905 -0.232033 0.829574
-0.178821 -0.0822428 0.980438
0.179823 0.0812318 0.980339
0.508102 0.231997 0.829464
0.756 0.34565 0.555868
0.891645 0.407438 0.197393
0.892472 0.407798 -0.192856
0.757087 0.346012 -0.554161
-0.505913 -0.231267 0.831004
-0.177311 -0.0810635 0.980811
0.180011 0.0769067 0.980654
0.511623 0.218582 0.830942
0.765317 0.326908 0.554456
0.902334 0.385341 0.193148
0.901653 0.384901 -0.19716
0.764664 0.326262 -0.555736
-0.51384 -0.218579 0.829573
-0.181096 -0.0770816 0.98044
0.182029 0.0761992 0.980336
0.514107 0.21841 0.829452
0.764525 0.326399 0.555847
0.901574 0.384977 0.197377
0.902342 0.385467 -0.192857
0.765439 0.327134 -0.554154
-0.511498 -0.218652 0.831
-0.179262 -0.0766403 0.980812
0.181864 0.0724741 0.980649
0.516865 0.205965 0.83092
0.773146 0.30799 0.554425
0.911582 0.362931 0.193129
0.910975 0.362293 -0.197152
0.77275 0.30666 -0.555712
-0.519598 -0.204549 0.829565
-0.183404 -0.0714161 0.98044
0.18429 0.0706232 0.980331
0.519961 0.204157 0.829434
0.772634 0.306774 0.555812
0.910917 0.362327 0.197355
0.911606 0.363018 -0.192852
0.77328 0.308178 -0.554134
-0.516749 -0.205987 0.830987
-0.181098 -0.0722021 0.980811
0.183598 0.0680396 0.980644
0.521763 0.193352 0.83089
0.780448 0.289077 0.554379
0.920202 0.340499 0.193103
0.919695 0.339557 -0.197133
0.780435 0.286625 -0.555668
-0.525302 -0.189514 0.829544
-0.185872 -0.0648004 0.980435
0.186731 0.0640475 0.980321
0.525808 0.188725 0.829402
0.780346 0.286693 0.555758
0.919662 0.339537 0.197323
0.920242 0.340541 -0.192838
0.780592 0.289229 -0.554097
-0.521656 -0.193326 0.830963
-0.182817 -0.0677675 0.980809
0.185211 0.0636247 0.980637
0.52631 0.180812 0.830846
0.787205 0.270272 0.554311
0.92817 0.318162 0.193065
0.927797 0.316769 -0.197102
0.787729 0.266073 -0.555596
-0.531085 -0.172862 0.829499
-0.188651 -0.0565735 0.980413
0.18951 0.0557814 0.980293
0.531812 0.171367 0.829343
0.787679 0.266052 0.555678
0.927793 0.316672 0.19728
0.928227 0.31815 -0.192812
0.787358 0.270389 -0.554037
-0.526213 -0.180735 0.830924
-0.184416 -0.0633615 0.980804
0.186702 0.0592586 0.980628
0.530499 0.168432 0.830784
0.793403 0.251713 0.554213
0.935461 0.296074 0.193009
0.935263 0.294028 -0.197055
0.794648 0.244891 -0.555484
-0.537095 -0.153702 0.829401
-0.19193 -0.0457219 0.980343
0.192831 0.0447417 0.980211
0.538152 0.15098 0.829215
0.794648 0.244718 0.55556
0.935292 0.293823 0.197223
0.935536 0.295996 -0.192766
0.793565 0.251795 -0.553944
-0.530413 -0.168302 0.830865
-0.185894 -0.0590165 0.980796
0.188069 0.0549822 0.980616
0.534324 0.156335 0.830697
0.799025 0.233584 0.554073
0.942053 0.274436 0.192929
0.942074 0.271463 -0.196989
0.8012 0.22294 -0.555317
-0.543478 -0.130736 0.82918
-0.195946 -0.0306745 0.980135
0.19696 0.0292025 0.979977
0.545006 0.12594 0.828919
0.801265 0.222525 0.555389
0.94214 0.271116 0.197148
0.942146 0.274281 -0.192694
0.799196 0.233632 -0.553807
-0.534252 -0.156145 0.830779
-0.187251 -0.0547769 0.980784
0.189312 0.0508493 0.980599
0.537778 0.144691 0.830578
0.804054 0.216141 0.553877
0.947921 0.253513 0.192813
0.948218 0.249225 -0.196898
0.807385 0.200052 -0.555076
-0.550335 -0.102121 0.828675
-0.200989 -0.00895644 0.979552
0.202249 0.00633063 0.979314
0.552479 0.0939241 0.828218
0.807526 0.199287 0.555146
0.948322 0.248707 0.197052
0.948031 0.253274 -0.192585
0.804232 0.216155 -0.553613
-0.537724 -0.144426 0.830659
-0.188486 -0.0506998 0.980766
0.190424 0.0469384 0.980579
0.540845 0.133743 0.830421
0.808465 0.199739 0.553614
0.953044 0.233647 0.192654
0.953697 0.227459 -0.196784
0.813189 0.176001 -0.554749
-0.557598 -0.065395 0.827531
-0.207403 0.023464 0.977974
0.209162 -0.02878 0.977457
0.560419 0.0518867 0.826583
0.813406 0.174782 0.554817
0.95383 0.226768 0.196936
0.953168 0.233328 -0.192431
0.808651 0.199715 -0.553351
-0.540816 -0.133372 0.8305
-0.189596 -0.0468676 0.980743
0.191384 0.0433617 0.980557
0.543487 0.123828 0.830234
0.812223 0.184857 0.553283
0.957403 0.215279 0.192445
0.958525 0.20629 -0.196657
0.818591 0.15033 -0.554355
-0.564808 -0.0176768 0.825033
-0.215555 0.0736485 0.97371
0.218286 -0.0854048 0.97214
0.56807 -0.00338131 0.822973
0.818858 0.148626 0.55442
0.958669 0.205474 0.196808
0.957532 0.214898 -0.192228
0.812416 0.184782 -0.553024
-0.543491 -0.123293 0.830311
-0.190567 -0.0433983 0.980715
0.192145 0.04024 0.980541
0.545617 0.115342 0.830059
0.815263 0.172059 0.55294
0.960972 0.198974 0.192206
0.9627 0.185952 -0.196545
0.823563 0.121854 -0.553982
-0.570778 0.0437158 0.81994
-0.225745 0.156374 0.961554
0.230009 -0.183203 0.955789
0.573662 -0.0736937 0.815771
0.823822 0.119844 0.554035
0.962831 0.185124 0.196688
0.961099 0.198549 -0.192009
0.815462 0.171888 -0.552699
-0.545668 -0.114543 0.830136
-0.191365 -0.0404299 0.980686
0.192627 0.0375827 0.980552
0.547076 0.108455 0.830027
0.81744 0.161803 0.552822
0.963634 0.185725 0.192135
0.96604 0.167878 -0.196427
0.828038 0.0875292 -0.553797
-0.573182 0.122982 0.810146
-0.23812 0.330244 0.913366
0.242211 -0.383463 0.89123
0.574221 -0.16077 0.80276
0.828222 0.0856991 0.553808
0.96615 0.16713 0.196524
0.963764 0.185195 -0.191996
0.817641 0.161419 -0.552637
-0.547189 -0.107265 0.830107
-0.191937 -0.0380315 0.98067
0.192711 0.0351508 0.980626
0.547494 0.102937 0.830455
0.818121 0.15512 0.553729
0.964519 0.179812 0.193317
0.967405 0.160555 -0.195829
0.83201 0.0338891 -0.553724
-0.56121 0.279271 0.779134
-0.180905 0.907052 0.380171
-0.174223 0.92545 -0.336436
0.554693 -0.341209 0.758875
0.832248 0.0302198 0.55358
0.967623 0.159136 0.195914
0.964692 0.178978 -0.193226
0.818313 0.15431 -0.553671
-0.547692 -0.101224 0.830534
-0.192197 -0.0361223 0.980691
0.19204 0.0320289 0.980864
0.546166 0.0941417 0.83237
0.817892 0.141213 0.557774
0.966674 0.162391 0.197915
0.97068 0.141591 -0.194247
0.82818 0.042967 -0.558813
-0.555239 0.0100078 0.831631
-0.195119 0.00420294 0.98077
0.195065 -0.00179737 0.980789
0.555249 -0.0143727 0.83156
0.82823 0.0404566 0.558927
0.97086 0.139989 0.194507
0.966892 0.16132 -0.197724
0.818138 0.140075 -0.557701
-0.546497 -0.0924743 0.832339
-0.191556 -0.0334396 0.980912
0.192385 0.0297658 0.980868
0.546787 0.088227 0.83261
0.818846 0.132607 0.558486
0.968181 0.151997 0.198802
0.972114 0.130996 -0.194513
0.826094 0.0630976 -0.559989
-0.550492 -0.0111112 0.834766
-0.192786 -0.000920253 0.98124
0.192989 0.00274872 0.981197
0.550336 0.00721998 0.834912
0.826058 0.0614384 0.560226
0.972269 0.129302 0.19487
0.968474 0.150526 -0.198493
0.819166 0.131369 -0.558309
-0.547113 -0.0869589 0.832529
-0.19169 -0.0315738 0.980948
0.191595 0.0297059 0.981024
0.543491 0.0916997 0.834391
0.815019 0.139034 0.562507
0.967613 0.15203 0.201525
0.97374 0.105829 -0.20157
0.819117 0.0232758 -0.573154
-0.540673 0.0123979 0.841142
-0.188581 0.00903382 0.982016
0.189071 -0.00490009 0.981951
0.539281 -0.0208832 0.841867
0.818745 0.0193695 0.57383
0.973869 0.103213 0.202304
0.968094 0.149789 -0.200891
0.81596 0.135895 -0.56191
-0.544559 -0.0888985 0.833998
-0.189873 -0.0340576 0.981218
0.0217815 0.0202337 0.999558
0.00257188 0.000343963 0.999997
</DataArray>
<DataArray type="Float64" Name="cell vector length" format="ascii">
0.109502 0.0907363 0.0775571 0.0613348 0.043897 0.0753318 0.130996 0.134754 0.13091 0.124739 0.0784326 0.0439646 0.0598722 0.0750646 0.111252 0.117752 0.389527 0.368866 0.347025 0.326633 0.312263 0.327278 0.386559 0.41892 0.413885 0.372402 0.325643 0.312155 0.327252 0.349544 0.388461 0.396337 0.486951 0.468634 0.446067 0.42078 0.395904 0.403755 0.478244 0.525066 0.522409 0.466807 0.402766 0.395898 0.421529 0.447783 0.483907 0.491904 0.510981 0.492094 0.466872 0.435394 0.395172 0.319195 0.201624 0.0551643 0.0548659 0.192509 0.319667 0.39515 0.435918 0.467958 0.505983 0.515363 0.52197 0.502379 0.4743 0.436205 0.382817 0.301085 0.196085 0.0666111 0.0669284 0.185285 0.301277 0.382826 0.43654 0.474949 0.5156 0.526049 0.528405 0.507612 0.476303 0.432179 0.370216 0.284599 0.190986 0.0813987 0.0791896 0.176542 0.284607 0.370226 0.43237 0.476653 0.520518 0.532341 0.532846 0.510897 0.476894 0.428296 0.360922 0.272708 0.187544 0.0926151 0.0882732 0.169935 0.272431 0.360809 0.428336 0.477037 0.523679 0.536724 0.535854 0.512993 0.477023 0.425331 0.354402 0.264455 0.185501 0.100659 0.0948276 0.165622 0.263934 0.35412 0.425216 0.477017 0.525765 0.539724 0.537855 0.514302 0.476931 0.423135 0.349867 0.25883 0.184327 0.106091 0.0992951 0.162924 0.25813 0.349419 0.422875 0.476807 0.527128 0.541744 0.539155 0.51508 0.476717 0.421499 0.346727 0.255444 0.183938 0.109497 0.102081 0.161514 0.254625 0.346135 0.421111 0.476496 0.527997 0.543078 0.539945 0.51547 0.476445 0.420292 0.344551 0.25289 0.183505 0.11167 0.103846 0.160361 0.251999 0.343845 0.419797 0.476144 0.528502 0.543913 0.540407 0.515624 0.476143 0.419375 0.343007 0.251115 0.183204 0.11299 0.104883 0.159528 0.250177 0.342214 0.418793 0.475776 0.528781 0.544423 0.540662 0.515633 0.475827 0.418652 0.341883 0.249854 0.182944 0.113669 0.105352 0.158843 0.248883 0.341024 0.418001 0.475407 0.528922 0.54473 0.540776 0.515548 0.475516 0.418075 0.341046 0.248925 0.182704 0.113936 0.10545 0.158239 0.247926 0.340137 0.417371 0.475055 0.528972 0.544897 0.540796 0.515406 0.47522 0.417608 0.340406 0.248207 0.182466 0.113938 0.105305 0.157672 0.247184 0.339459 0.416864 0.474728 0.528966 0.544971 0.540749 0.515228 0.474943 0.417228 0.339903 0.247627 0.182215 0.113756 0.104994 0.157126 0.246587 0.338927 0.416456 0.474429 0.528925 0.544978 0.540647 0.515023 0.474688 0.416926 0.339509 0.247124 0.181906 0.11341 0.104541 0.156567 0.246083 0.338511 0.416134 0.474162 0.528855 0.544929 0.540492 0.514794 0.474458 0.416704 0.339222 0.246643 0.181488 0.112897 0.103903 0.155875 0.245584 0.338205 0.415901 0.473927 0.528757 0.544827 0.540269 0.514528 0.474247 0.416574 0.339076 0.246293 0.181064 0.112216 0.10307 0.155143 0.245192 0.338041 0.415767 0.473721 0.528622 0.544657 0.539945 0.514201 0.474051 0.416563 0.339145 0.246167 0.180657 0.111276 0.101949 0.154401 0.245005 0.33809 0.415763 0.473543 0.528428 0.544386 0.539465 0.51377 0.473859 0.416717 0.339543 0.246404 0.180291 0.109924 0.100379 0.153673 0.245163 0.338471 0.415939 0.473385 0.528135 0.543962 0.538746 0.513171 0.473657 0.417103 0.340437 0.247214 0.180016 0.107922 0.0980995 0.153 0.245876 0.339355 0.416365 0.473237 0.527687 0.543303 0.53767 0.512314 0.473419 0.417811 0.342063 0.248915 0.179919 0.104912 0.0947307 0.152481 0.247466 0.340987 0.41714 0.47308 0.526999 0.542296 0.536066 0.511066 0.473113 0.418971 0.344749 0.251964 0.180157 0.100405 0.089756 0.15233 0.250401 0.343708 0.418399 0.472886 0.52595 0.540774 0.533682 0.509232 0.472687 0.420759 0.348934 0.256983 0.181002 0.0937726 0.0825529 0.152981 0.255335 0.347975 0.420319 0.472603 0.524356 0.538493 0.530121 0.506483 0.471993 0.423335 0.355134 0.264693 0.182806 0.0842669 0.0725442 0.155153 0.26305 0.354315 0.42305 0.472084 0.521912 0.535068 0.52454 0.501982 0.470309 0.426291 0.363497 0.275376 0.185433 0.0708458 0.0596413 0.159282 0.273883 0.362857 0.426155 0.470599 0.517829 0.529683 0.513679 0.492023 0.463398 0.425282 0.370774 0.285452 0.184515 0.0509382 0.0440491 0.161974 0.284036 0.370235 0.425248 0.463929 0.508574 0.519147 0.477862 0.455492 0.427935 0.394356 0.350711 0.261054 0.14585 0.0530858 0.0545568 0.129972 0.260586 0.350288 0.394349 0.428661 0.473683 0.48399 0.455105 0.433226 0.407356 0.377976 0.34847 0.357959 0.446282 0.495512 0.490839 0.428156 0.357098 0.348292 0.378032 0.408205 0.4525 0.461595 0.415298 0.39241 0.365502 0.336653 0.315262 0.326818 0.399191 0.435937 0.429069 0.378446 0.326216 0.315374 0.336658 0.366232 0.412752 0.422185 0.188005 0.171772 0.152723 0.130297 0.119322 0.140717 0.215402 0.254049 0.249102 0.199192 0.143193 0.120291 0.129723 0.150739 0.19049 0.193834 0.0252592 0.0152124 
</DataArray>
<DataArray type="Float64" Name="cell variable 4" format="ascii">
818.056 807.212 800.602 795.41 790.473 805.919 829.646 821.833 818.571 822.36 807.439 790.517 794.605 797.874 819.858 821.998 1139.11 1118.53 1105.19 1097.84 1095.53 1109.38 1148.89 1150.63 1144.62 1129.88 1109.81 1095.6 1097.45 1105.06 1146.14 1148.02 1345.94 1322.58 1306.89 1297.07 1292.72 1302.44 1354.55 1357.37 1352.63 1330.71 1302.66 1292.81 1297.13 1307.19 1355.73 1356.42 1398.67 1371.14 1348.62 1330.17 1315.63 1309.7 1353.56 1339.49 1338.81 1334.47 1309.54 1315.46 1330.2 1348.97 1405.6 1409.58 1410.98 1383.15 1360.62 1343.04 1329.55 1320.15 1350.41 1328.61 1328.82 1330.49 1320 1329.43 1343.11 1360.94 1417.98 1421.97 1414.7 1385.92 1362.11 1343.58 1329.28 1319.23 1348.04 1328.37 1325.33 1323.9 1319.38 1329.34 1343.73 1362.39 1420.93 1425.74 1417.21 1387.16 1361.67 1342 1327.31 1317.34 1346.82 1328.79 1322.92 1318.86 1317.59 1327.47 1342.21 1361.93 1422.4 1428.34 1419.07 1387.93 1361 1340.42 1325.5 1315.59 1346.29 1329.42 1321.45 1315.46 1315.87 1325.72 1340.66 1361.26 1423.46 1430.32 1420.5 1388.45 1360.34 1339.06 1323.99 1314.1 1346.13 1330.03 1320.63 1313.25 1314.38 1324.25 1339.32 1360.61 1424.34 1431.9 1421.6 1388.82 1359.79 1337.97 1322.79 1312.89 1346.07 1330.48 1320.11 1311.75 1313.17 1323.07 1338.24 1360.06 1425.07 1433.15 1422.34 1388.97 1359.34 1337.14 1321.85 1311.89 1346 1330.81 1319.78 1310.64 1312.18 1322.13 1337.43 1359.62 1425.59 1434.05 1422.85 1388.99 1359 1336.55 1321.14 1311.09 1345.94 1331.04 1319.55 1309.79 1311.39 1321.44 1336.84 1359.28 1425.98 1434.72 1423.23 1388.95 1358.67 1336.06 1320.56 1310.4 1345.88 1331.15 1319.33 1309.11 1310.71 1320.86 1336.35 1358.95 1426.29 1435.25 1423.47 1388.84 1358.36 1335.63 1320.07 1309.81 1345.81 1331.2 1319.13 1308.54 1310.13 1320.38 1335.93 1358.63 1426.51 1435.65 1423.59 1388.67 1358.06 1335.28 1319.66 1309.31 1345.75 1331.2 1318.92 1308.03 1309.63 1319.97 1335.58 1358.33 1426.66 1435.91 1423.57 1388.43 1357.78 1335 1319.33 1308.88 1345.69 1331.17 1318.72 1307.58 1309.21 1319.65 1335.3 1358.05 1426.73 1436.03 1423.41 1388.13 1357.51 1334.8 1319.07 1308.51 1345.64 1331.13 1318.51 1307.17 1308.85 1319.4 1335.09 1357.78 1426.71 1436.01 1423.13 1387.76 1357.26 1334.66 1318.89 1308.19 1345.6 1331.07 1318.29 1306.77 1308.54 1319.22 1334.95 1357.52 1426.6 1435.84 1422.73 1387.32 1357 1334.56 1318.77 1307.94 1345.56 1330.99 1318.04 1306.39 1308.28 1319.1 1334.86 1357.27 1426.39 1435.55 1422.19 1386.8 1356.73 1334.51 1318.71 1307.73 1345.51 1330.85 1317.72 1306 1308.07 1319.04 1334.81 1356.99 1426.09 1435.11 1421.51 1386.19 1356.45 1334.5 1318.72 1307.59 1345.46 1330.64 1317.29 1305.6 1307.92 1319.05 1334.81 1356.72 1425.68 1434.52 1420.64 1385.49 1356.16 1334.57 1318.82 1307.53 1345.4 1330.31 1316.7 1305.18 1307.85 1319.15 1334.89 1356.44 1425.16 1433.74 1419.57 1384.66 1355.89 1334.75 1319.06 1307.58 1345.34 1329.82 1315.89 1304.76 1307.89 1319.39 1335.07 1356.18 1424.51 1432.74 1418.22 1383.71 1355.67 1335.1 1319.49 1307.77 1345.32 1329.16 1314.84 1304.48 1308.08 1319.82 1335.42 1355.95 1423.7 1431.46 1416.5 1382.58 1355.51 1335.67 1320.14 1308.08 1345.42 1328.34 1313.6 1304.6 1308.41 1320.48 1335.99 1355.79 1422.69 1429.79 1414.14 1381.06 1355.27 1336.33 1320.84 1308.26 1345.69 1327.42 1312.46 1305.57 1308.64 1321.2 1336.64 1355.54 1421.26 1427.47 1409.88 1377.81 1353.42 1335.43 1320.02 1306.76 1345.37 1325.96 1312.12 1307.24 1307.23 1320.36 1335.69 1353.67 1418.02 1423.22 1395.45 1363.77 1339.83 1322.27 1307.58 1294.62 1337.76 1319.88 1311.38 1304.19 1294.76 1307.76 1322.49 1340.09 1403.67 1408.71 1318.16 1286.87 1261.82 1242.11 1225.48 1215.98 1278.66 1312.07 1310.24 1251.51 1216.07 1225.44 1242.17 1261.91 1324.26 1330.62 1250.55 1223.77 1205.58 1194.57 1188.46 1195.68 1259.13 1268.78 1260.58 1226.97 1195.97 1188.37 1194.47 1205.49 1259.01 1262.33 1118.11 1092.61 1073.38 1059.8 1051.83 1057.02 1108.59 1114.98 1104.84 1078.44 1057.24 1051.83 1059.64 1073.35 1123.78 1128.7 793.684 785.605 785.647 791.269 798.891 810.934 848.988 854.915 848.616 829.864 812.143 799.1 791.071 784.06 804.286 799.341 606.351 745.326 
</DataArray>
<DataArray type="Float64" Name="cell variable 5" format="ascii">
0.0118872 0.0118872 0.0118872 0.0118872 0.0118872 0.0118872 0.0118872 0.0118872 0.0118872 0.0118872 0.0118872 0.0118872 0.0118872 0.0118872 0.0118872 0.0118872 0.0118872 0.0118872 0.0118872 0.0118872 0.0118872 0.0118872 0.0118872 0.0118872 0.0118872 0.0118872 0.0118872 0.0118872 0.0118872 0.0118872 0.0118872 0.0118872 0.0118872 0.0118872 0.0118872 0.0118872 0.0118872 0.0118872 0.0118872 0.0118872 0.0118872 0.0118872 0.0118872 0.0118872 0.0118872 0.0118872 0.0118872 0.0118872 0.0179655 0.0166315 0.0144786 0.0124261 0.0118872 0.0118872 0.0118872 0.0118872 0.0118872 0.0118872 0.0118872 0.0118872 0.0124261 0.0144786 0.0166315 0.0179655 0.0203271 0.0184753 0.015485 0.0126347 0.0118872 0.0118872 0.0118872 0.0118872 0.0118872 0.0118872 0.0118872 0.0118872 0.0126347 0.015485 0.0184753 0.0203271 0.0216954 0.0195452 0.0160688 0.0127563 0.0118872 0.0118872 0.0118872 0.0118872 0.0118872 0.0118872 0.0118872 0.0118872 0.0127563 0.0160688 0.0195452 0.0216954 0.0226913 0.0203191 0.0164941 0.0128461 0.0118872 0.0118872 0.0118872 0.0118872 0.0118872 0.0118872 0.0118872 0.0118872 0.0128461 0.0164941 0.0203191 0.0226913 0.0234679 0.0209267 0.0168243 0.0129148 0.0118872 0.0118872 0.0118872 0.0118872 0.0118872 0.0118872 0.0118872 0.0118872 0.0129148 0.0168243 0.0209267 0.0234679 0.024094 0.0214154 0.0170911 0.0129702 0.0118872 0.0118872 0.0118872 0.0118872 0.0118872 0.0118872 0.0118872 0.0118872 0.0129702 0.0170911 0.0214154 0.024094 0.0246064 0.0218143 0.0173104 0.0130151 0.0118872 0.0118872 0.0118872 0.0118872 0.0118872 0.0118872 0.0118872 0.0118872 0.0130151 0.0173104 0.0218143 0.0246064 0.0250212 0.0221392 0.0174874 0.0130521 0.0118872 0.0118872 0.0118872 0.0118872 0.0118872 0.0118872 0.0118872 0.0118872 0.0130521 0.0174874 0.0221392 0.0250212 0.025354 0.0224007 0.01763 0.0130812 0.0118872 0.0118872 0.0118872 0.0118872 0.0118872 0.0118872 0.0118872 0.0118872 0.0130812 0.01763 0.0224007 0.025354 0.0256129 0.0226015 0.0177383 0.0131049 0.0118872 0.0118872 0.0118872 0.0118872 0.0118872 0.0118872 0.0118872 0.0118872 0.0131049 0.0177383 0.0226015 0.0256129 0.0258031 0.0227494 0.0178202 0.0131208 0.0118872 0.0118872 0.0118872 0.0118872 0.0118872 0.0118872 0.0118872 0.0118872 0.0131208 0.0178202 0.0227494 0.0258031 0.0259299 0.0228471 0.017873 0.013134 0.0118872 0.0118872 0.0118872 0.0118872 0.0118872 0.0118872 0.0118872 0.0118872 0.013134 0.017873 0.0228471 0.0259299 0.0259906 0.0228973 0.0178994 0.0131393 0.0118872 0.0118872 0.0118872 0.0118872 0.0118872 0.0118872 0.0118872 0.0118872 0.0131393 0.0178994 0.0228973 0.0259906 0.0259906 0.0228973 0.0178994 0.0131393 0.0118872 0.0118872 0.0118872 0.0118872 0.0118872 0.0118872 0.0118872 0.0118872 0.0131393 0.0178994 0.0228973 0.0259906 0.0259299 0.0228471 0.017873 0.013134 0.0118872 0.0118872 0.0118872 0.0118872 0.0118872 0.0118872 0.0118872 0.0118872 0.013134 0.017873 0.0228471 0.0259299 0.0258031 0.0227494 0.0178202 0.0131208 0.0118872 0.0118872 0.0118872 0.0118872 0.0118872 0.0118872 0.0118872 0.0118872 0.0131208 0.0178202 0.0227494 0.0258031 0.0256129 0.0226015 0.0177383 0.0131049 0.0118872 0.0118872 0.0118872 0.0118872 0.0118872 0.0118872 0.0118872 0.0118872 0.0131049 0.0177383 0.0226015 0.0256129 0.025354 0.0224007 0.01763 0.0130812 0.0118872 0.0118872 0.0118872 0.0118872 0.0118872 0.0118872 0.0118872 0.0118872 0.0130812 0.01763 0.0224007 0.025354 0.0250212 0.0221392 0.0174874 0.0130521 0.0118872 0.0118872 0.0118872 0.0118872 0.0118872 0.0118872 0.0118872 0.0118872 0.0130521 0.0174874 0.0221392 0.0250212 0.0246064 0.0218143 0.0173104 0.0130151 0.0118872 0.0118872 0.0118872 0.0118872 0.0118872 0.0118872 0.0118872 0.0118872 0.0130151 0.0173104 0.0218143 0.0246064 0.024094 0.0214154 0.0170911 0.0129702 0.0118872 0.0118872 0.0118872 0.0118872 0.0118872 0.0118872 0.0118872 0.0118872 0.0129702 0.0170911 0.0214154 0.024094 0.0234679 0.0209267 0.0168243 0.0129148 0.0118872 0.0118872 0.0118872 0.0118872 0.0118872 0.0118872 0.0118872 0.0118872 0.0129148 0.0168243 0.0209267 0.0234679 0.0226913 0.0203191 0.0164941 0.0128461 0.0118872 0.0118872 0.0118872 0.0118872 0.0118872 0.0118872 0.0118872 0.0118872 0.0128461 0.0164941 0.0203191 0.0226913 0.0216954 0.0195452 0.0160688 0.0127563 0.0118872 0.0118872 0.0118872 0.0118872 0.0118872 0.0118872 0.0118872 0.0118872 0.0127563 0.0160688 0.0195452 0.0216954 0.0203271 0.0184753 0.015485 0.0126347 0.0118872 0.0118872 0.0118872 0.0118872 0.0118872 0.0118872 0.0118872 0.0118872 0.0126347 0.015485 0.0184753 0.0203271 0.0179655 0.0166315 0.0144786 0.0124261 0.0118872 0.0118872 0.0118872 0.0118872 0.0118872 0.0118872 0.0118872 0.0118872 0.0124261 0.0144786 0.0166315 0.0179655 0.0118872 0.0118872 0.0118872 0.0118872 0.0118872 0.0118872 0.0118872 0.0118872 0.0118872 0.0118872 0.0118872 0.0118872 0.0118872 0.0118872 0.0118872 0.0118872 0.0118872 0.0118872 0.0118872 0.0118872 0.0118872 0.0118872 0.0118872 0.0118872 0.0118872 0.0118872 0.0118872 0.0118872 0.0118872 0.0118872 0.0118872 0.0118872 0.0118872 0.0118872 0.0118872 0.0118872 0.0118872 0.0118872 0.0118872 0.0118872 0.0118872 0.0118872 0.0118872 0.0118872 0.0118872 0.0118872 0.0118872 0.0118872 0.0118872 0.0118872 
</DataArray>
<DataArray type="Float64" Name="cell variable 6" format="ascii">
1 1 1 1 1 1 1 1 1 1 1 1 1 1 1 1 1 1 1 1 1 1 1 1 1 1 1 1 1 1 1 1 1 1 1 1 1 1 1 1 1 1 1 1 1 1 1 1 1 1 1 1 1 1 1 1 1 1 1 1 1 1 1 1 1 1 1 1 1 1 1 1 1 1 1 1 1 1 1 1 1 1 1 1 1 1 1 1 1 1 1 1 1 1 1 1 1 1 1 1 1 1 1 1 1 1 1 1 1 1 1 1 1 1 1 1 1 1 1 1 1 1 1 1 1 1 1 1 1 1 1 1 1 1 1 1 1 1 1 1 1 1 1 1 1 1 1 1 1 1 1 1 1 1 1 1 1 1 1 1 1 1 1 1 1 1 1 1 1 1 1 1 1 1 1 1 1 1 1 1 1 1 1 1 1 1 1 1 1 1 1 1 1 1 1 1 1 1 1 1 1 1 1 1 1 1 1 1 1 1 1 1 1 1 1 1 1 1 1 1 1 1 1 1 1 1 1 1 1 1 1 1 1 1 1 1 1 1 1 1 1 1 1 1 1 1 1 1 1 1 1 1 1 1 1 1 1 1 1 1 1 1 1 1 1 1 1 1 1 1 1 1 1 1 1 1 1 1 1 1 1 1 1 1 1 1 1 1 1 1 1 1 1 1 1 1 1 1 1 1 1 1 1 1 1 1 1 1 1 1 1 1 1 1 1 1 1 1 1 1 1 1 1 1 1 1 1 1 1 1 1 1 1 1 1 1 1 1 1 1 1 1 1 1 1 1 1 1 1 1 1 1 1 1 1 1 1 1 1 1 1 1 1 1 1 1 1 1 1 1 1 1 1 1 1 1 1 1 1 1 1 1 1 1 1 1 1 1 1 1 1 1 1 1 1 1 1 1 1 1 1 1 1 1 1 1 1 1 1 1 1 1 1 1 1 1 1 1 1 1 1 1 1 1 1 1 1 1 1 1 1 1 1 1 1 1 1 1 1 1 1 1 1 1 1 1 1 1 1 1 1 1 1 1 1 1 1 1 1 1 1 1 1 1 1 1 1 1 1 1 1 1 1 1 1 1 1 1 1 1 1 1 1 1 1 1 1 1 1 1 1 1 1 1 1 1 1 1 1 1 1 1 1 1 1 1 1 1 1 1 1 1 1 1 
</DataArray>
<DataArray type="Float64" Name="cell variable 7" format="ascii">
0 0 0 0 0 0 0 0 0 0 0 0 0 0 0 0 0 0 0 0 0 0 0 0 0 0 0 0 0 0 0 0 0 0 0 0 0 0 0 0 0 0 0 0 0 0 0 0 0 0 0 0 0 0 0 0 0 0 0 0 0 0 0 0 0 0 0 0 0 0 0 0 0 0 0 0 0 0 0 0 0 0 0 0 0 0 0 0 0 0 0 0 0 0 0 0 0 0 0 0 0 0 0 0 0 0 0 0 0 0 0 0 0 0 0 0 0 0 0 0 0 0 0 0 0 0 0 0 0 0 0 0 0 0 0 0 0 0 0 0 0 0 0 0 0 0 0 0 0 0 0 0 0 0 0 0 0 0 0 0 0 0 0 0 0 0 0 0 0 0 0 0 0 0 0 0 0 0 0 0 0 0 0 0 0 0 0 0 0 0 0 0 0 0 0 0 0 0 0 0 0 0 0 0 0 0 0 0 0 0 0 0 0 0 0 0 0 0 0 0 0 0 0 0 0 0 0 0 0 0 0 0 0 0 0 0 0 0 0 0 0 0 0 0 0 0 0 0 0 0 0 0 0 0 0 0 0 0 0 0 0 0 0 0 0 0 0 0 0 0 0 0 0 0 0 0 0 0 0 0 0 0 0 0 0 0 0 0 0 0 0 0 0 0 0 0 0 0 0 0 0 0 0 0 0 0 0 0 0 0 0 0 0 0 0 0 0 0 0 0 0 0 0 0 0 0 0 0 0 0 0 0 0 0 0 0 0 0 0 0 0 0 0 0 0 0 0 0 0 0 0 0 0 0 0 0 0 0 0 0 0 0 0 0 0 0 0 0 0 0 0 0 0 0 0 0 0 0 0 0 0 0 0 0 0 0 0 0 0 0 0 0 0 0 0 0 0 0 0 0 0 0 0 0 0 0 0 0 0 0 0 0 0 0 0 0 0 0 0 0 0 0 0 0 0 0 0 0 0 0 0 0 0 0 0 0 0 0 0 0 0 0 0 0 0 0 0 0 0 0 0 0 0 0 0 0 0 0 0 0 0 0 0 0 0 0 0 0 0 0 0 0 0 0 0 0 0 0 0 0 0 0 0 0 0 0 0 0 0 0 0 0 0 0 0 0 0 0 0 0 0 0 0 0 0 0 0 0 0 0 0 0 1 1 
</DataArray>
<DataArray type="Float64" Name="cell variable 8" format="ascii">
11.25 33.75 56.25 78.75 101.25 123.75 146.25 168.75 191.25 213.75 236.25 258.75 281.25 303.75 326.25 348.75 11.25 33.75 56.25 78.75 101.25 123.75 146.25 168.75 191.25 213.75 236.25 258.75 281.25 303.75 326.25 348.75 11.25 33.75 56.25 78.75 101.25 123.75 146.25 168.75 191.25 213.75 236.25 258.75 281.25 303.75 326.25 348.75 11.25 33.75 56.25 78.75 101.25 123.75 146.25 168.75 191.25 213.75 236.25 258.75 281.25 303.75 326.25 348.75 11.25 33.75 56.25 78.75 101.25 123.75 146.25 168.75 191.25 213.75 236.25 258.75 281.25 303.75 326.25 348.75 11.25 33.75 56.25 78.75 101.25 123.75 146.25 168.75 191.25 213.75 236.25 258.75 281.25 303.75 326.25 348.75 11.25 33.75 56.25 78.75 101.25 123.75 146.25 168.75 191.25 213.75 236.25 258.75 281.25 303.75 326.25 348.75 11.25 33.75 56.25 78.75 101.25 123.75 146.25 168.75 191.25 213.75 236.25 258.75 281.25 303.75 326.25 348.75 11.25 33.75 56.25 78.75 101.25 123.75 146.25 168.75 191.25 213.75 236.25 258.75 281.25 303.75 326.25 348.75 11.25 33.75 56.25 78.75 101.25 123.75 146.25 168.75 191.25 213.75 236.25 258.75 281.25 303.75 326.25 348.75 11.25 33.75 56.25 78.75 101.25 123.75 146.25 168.75 191.25 213.75 236.25 258.75 281.25 303.75 326.25 348.75 11.25 33.75 56.25 78.75 101.25 123.75 146.25 168.75 191.25 213.75 236.25 258.75 281.25 303.75 326.25 348.75 11.25 33.75 56.25 78.75 101.25 123.75 146.25 168.75 191.25 213.75 236.25 258.75 281.25 303.75 326.25 348.75 11.25 33.75 56.25 78.75 101.25 123.75 146.25 168.75 191.25 213.75 236.25 258.75 281.25 303.75 326.25 348.75 11.25 33.75 56.25 78.75 101.25 123.75 146.25 168.75 191.25 213.75 236.25 258.75 281.25 303.75 326.25 348.75 11.25 33.75 56.25 78.75 101.25 123.75 146.25 168.75 191.25 213.75 236.25 258.75 281.25 303.75 326.25 348.75 11.25 33.75 56.25 78.75 101.25 123.75 146.25 168.75 191.25 213.75 236.25 258.75 281.25 303.75 326.25 348.75 11.25 33.75 56.25 78.75 101.25 123.75 146.25 168.75 191.25 213.75 236.25 258.75 281.25 303.75 326.25 348.75 11.25 33.75 56.25 78.75 101.25 123.75 146.25 168.75 191.25 213.75 236.25 258.75 281.25 303.75 326.25 348.75 11.25 33.75 56.25 78.75 101.25 123.75 146.25 168.75 191.25 213.75 236.25 258.75 281.25 303.75 326.25 348.75 11.25 33.75 56.25 78.75 101.25 123.75 146.25 168.75 191.25 213.75 236.25 258.75 281.25 303.75 326.25 348.75 11.25 33.75 56.25 78.75 101.25 123.75 146.25 168.75 191.25 213.75 236.25 258.75 281.25 303.75 326.25 348.75 11.25 33.75 56.25 78.75 101.25 123.75 146.25 168.75 191.25 213.75 236.25 258.75 281.25 303.75 326.25 348.75 11.25 33.75 56.25 78.75 101.25 123.75 146.25 168.75 191.25 213.75 236.25 258.75 281.25 303.75 326.25 348.75 11.25 33.75 56.25 78.75 101.25 123.75 146.25 168.75 191.25 213.75 236.25 258.75 281.25 303.75 326.25 348.75 11.25 33.75 56.25 78.75 101.25 123.75 146.25 168.75 191.25 213.75 236.25 258.75 281.25 303.75 326.25 348.75 11.25 33.75 56.25 78.75 101.25 123.75 146.25 168.75 191.25 213.75 236.25 258.75 281.25 303.75 326.25 348.75 11.25 33.75 56.25 78.75 101.25 123.75 146.25 168.75 191.25 213.75 236.25 258.75 281.25 303.75 326.25 348.75 11.25 33.75 56.25 78.75 101.25 123.75 146.25 168.75 191.25 213.75 236.25 258.75 281.25 303.75 326.25 348.75 11.25 33.75 56.25 78.75 101.25 123.75 146.25 168.75 191.25 213.75 236.25 258.75 281.25 303.75 326.25 348.75 11.25 33.75 56.25 78.75 101.25 123.75 146.25 168.75 191.25 213.75 236.25 258.75 281.25 303.75 326.25 348.75 11.25 33.75 56.25 78.75 101.25 123.75 146.25 168.75 191.25 213.75 236.25 258.75 281.25 303.75 326.25 348.75 0 0 
</DataArray>
</CellData>
</Piece>
</UnstructuredGrid>
</VTKFile>
