<VTKFile type="UnstructuredGrid" version="0.1">
<UnstructuredGrid>
<Piece  NumberOfPoints="    2080" NumberOfCells="     514">
<Points>
<DataArray type="Float64" NumberOfComponents="3" format="ascii">
-86.2325 1005.6 1.03879
-82.3228 1008.93 26.8129
-67.2458 983.228 28.9444
-71.5144 979.649 1.08582
-81.444 1009.66 29.5651
-70.2061 1019.01 51.3852
-54.1701 994.058 55.2512
-66.3669 983.961 31.6966
-68.5791 1020.35 53.4856
-51.7418 1034.29 68.0042
-34.2988 1010.45 73.0249
-52.5432 995.404 57.3517
-49.6208 1036.04 69.1351
-29.8633 1052.5 74.1803
-10.7432 1029.98 79.605
-32.1778 1012.21 74.1558
-27.5838 1054.42 74.1754
-7.99605 1071.03 69.0412
12.7716 1049.87 74.0723
-8.46371 1031.89 79.6001
-5.91261 1072.83 67.9077
10.5024 1087.23 53.3989
32.6055 1067.39 57.2978
14.855 1051.67 72.9387
12.0786 1088.64 51.301
22.9394 1098.54 29.5304
45.8563 1079.6 31.6238
34.1816 1068.8 55.2
23.785 1099.32 26.778
27.596 1102.82 0.998705
50.7704 1084.2 1.00781
46.7019 1080.38 28.8714
27.5961 1102.82 -1.98561
23.7873 1099.31 -27.7652
46.706 1080.36 -29.8323
50.7704 1084.2 -1.97651
22.9426 1098.53 -30.5165
12.0934 1088.61 -52.2826
34.209 1068.76 -56.1364
45.8614 1079.58 -32.5836
10.5196 1087.19 -54.3789
-5.87541 1072.75 -68.8739
14.9065 1051.59 -73.862
32.6352 1067.35 -58.2328
-7.95697 1070.95 -70.0061
-27.5322 1054.31 -75.1267
-8.397 1031.79 -80.5097
12.8249 1049.79 -74.9942
-29.8106 1052.4 -75.1302
-49.5608 1035.93 -70.0717
-32.0998 1012.1 -75.0504
-10.6754 1029.88 -80.5132
-51.6798 1034.18 -68.9391
-68.4849 1020.23 -54.3979
-52.4538 995.304 -58.2279
-34.2188 1010.35 -73.9179
-70.1117 1018.89 -52.2948
-81.3553 1009.57 -30.4692
-66.3097 983.886 -32.5259
-54.0805 993.959 -56.1249
-82.2391 1008.84 -27.7146
-86.2289 1005.6 -1.9437
-71.5108 979.644 -1.89668
-67.1936 983.159 -29.7713
-69.5711 976.796 1.16336
-65.3025 980.376 29.0219
-44.9892 954.534 29.6455
-49.3633 950.905 1.19043
-52.18 991.239 55.4644
-31.5915 965.533 56.6064
-44.0636 955.299 32.5333
-64.3768 981.142 31.9097
-32.2249 1007.69 73.3419
-11.2253 982.194 74.861
-29.8808 966.94 58.8107
-50.4693 992.646 57.6687
-8.56043 1027.3 79.9791
12.9368 1002.05 81.6626
-8.99536 984.03 76.049
-29.995 1009.53 74.5299
15.0716 1047.28 74.4479
37.0356 1022.35 76.0199
15.3336 1004.06 81.6592
-6.16363 1029.3 79.9757
35.003 1064.89 57.6191
57.1332 1040.41 58.8077
39.2166 1024.24 74.8319
17.2526 1049.17 73.26
48.3189 1077.18 31.8389
70.4775 1053.05 32.4714
58.7744 1041.91 56.6037
36.6442 1066.39 55.4151
53.2644 1081.84 1.08326
75.433 1057.82 1.10117
71.3545 1053.87 29.5793
49.1959 1078.01 28.9469
49.2002 1077.99 -29.9045
71.3621 1053.84 -30.4929
75.4332 1057.81 -2.03074
53.2646 1081.84 -2.04866
36.6724 1066.35 -56.3467
58.8128 1041.86 -57.4741
70.4867 1053.01 -33.3823
48.3248 1077.16 -32.7939
17.3053 1049.1 -74.1776
39.2736 1024.16 -75.6927
57.1743 1040.36 -59.6758
35.034 1064.85 -58.5483
-6.09591 1029.2 -80.88
15.403 1003.96 -82.5099
37.0943 1022.27 -76.8796
15.126 1047.2 -75.3645
-29.916 1009.43 -75.4194
-8.91904 983.927 -76.888
13.0073 1001.96 -82.512
-8.49159 1027.2 -80.8822
-50.3802 992.547 -58.54
-29.805 966.848 -59.6392
-11.1483 982.091 -75.6986
-32.1452 1007.59 -74.23
-64.3218 981.069 -32.7333
-44.0278 955.229 -33.3069
-31.5175 965.443 -57.4314
-52.0926 991.141 -56.3323
-65.2517 980.308 -29.8416
-69.5689 976.793 -1.96698
-49.3612 950.902 -1.9399
-44.9577 954.469 -30.4152
-47.0667 948.074 1.21244
-42.6926 951.703 29.6675
-21.5114 926.5 29.7876
-25.9238 922.885 1.23597
-41.7522 952.472 32.5914
-29.2801 962.706 56.6644
-7.99449 937.463 56.8686
-20.571 927.269 32.7115
-27.5423 964.119 58.8975
-8.88688 979.373 74.9478
12.5677 954.059 75.2083
-6.25673 938.877 59.1017
-6.62072 981.217 76.1527
15.3115 999.242 81.7662
36.9777 973.83 82.0415
14.8339 955.904 76.4131
17.7453 1001.25 81.7628
39.4473 1019.55 76.1235
61.277 994.071 76.3471
39.4116 975.842 82.0381
41.6424 1021.46 74.9206
59.559 1037.64 58.8964
81.1783 1012.56 59.0685
63.472 995.99 75.1442
61.1957 1039.18 56.6638
72.8988 1050.32 32.5315
94.3615 1025.57 32.6676
82.815 1014.09 56.8359
73.7719 1051.17 29.6025
77.8504 1055.11 1.12434
99.2742 1030.49 1.15875
95.2346 1026.43 29.7386
77.8511 1055.11 -2.04801
73.78 1051.14 -30.5101
95.2527 1026.39 -30.5839
99.2749 1030.49 -2.0136
72.9092 1050.28 -33.4365
61.2352 1039.13 -57.5284
82.8577 1014.03 -57.6544
94.3819 1025.53 -33.5102
59.6005 1037.59 -59.7586
41.6998 1021.39 -75.7756
63.5256 995.907 -75.9526
81.223 1012.49 -59.8847
39.5059 1019.47 -76.9776
17.8146 1001.16 -82.6079
39.4749 975.743 -82.8361
61.3317 993.985 -77.1546
15.3815 999.144 -82.6102
-6.54484 981.115 -76.9862
14.9017 955.802 -77.2005
37.0419 973.73 -82.8384
-8.8109 979.271 -75.7803
-27.4677 964.028 -59.7209
-6.19382 938.788 -59.8812
12.6357 953.958 -75.9946
-29.2077 962.616 -57.4844
-41.7181 952.403 -33.3598
-20.5479 927.202 -33.4347
-7.93388 937.376 -57.6447
-42.6619 951.638 -30.4318
-47.0654 948.071 -1.95655
-25.9225 922.881 -1.93302
-21.4917 926.437 -30.5066
-23.586 920.089 1.24226
-19.1736 923.705 29.7939
1.7915 898.53 29.8314
-2.69051 894.97 1.26353
-18.2216 924.467 32.7239
-5.64511 934.66 56.8811
15.4999 909.333 56.9149
2.74343 899.292 32.7614
-3.88736 936.061 59.1168
14.9371 951.243 75.2234
36.3257 925.697 75.228
17.2576 910.734 59.1507
17.2286 953.07 76.4277
39.3724 970.996 82.0561
61.0332 945.188 82.027
38.6172 927.524 76.4323
41.8357 972.989 82.0494
63.7011 991.217 76.3584
85.7113 965.067 76.3252
63.4965 947.18 82.0203
65.9305 993.125 75.1429
83.6368 1009.69 59.0671
106.315 982.883 59.005
87.9407 966.975 75.1097
85.2903 1011.22 56.8318
96.8367 1022.69 32.6636
120.033 995.451 32.6596
107.969 984.408 56.7696
97.719 1023.54 29.7399
101.759 1027.6 1.15999
125.141 1000.22 1.19377
120.915 996.296 29.7359
101.76 1027.6 -2.00745
97.7374 1023.5 -30.5777
120.934 996.262 -30.5137
125.142 1000.21 -1.97366
96.8573 1022.65 -33.5003
85.3332 1011.15 -57.6445
108.004 984.344 -57.5405
120.054 995.414 -33.4363
83.6811 1009.62 -59.8786
65.9837 993.041 -75.9464
87.9888 966.889 -75.8707
106.352 982.816 -59.7746
63.7553 991.131 -77.1609
41.8985 972.889 -82.8424
63.5536 947.08 -82.7704
85.7605 964.979 -77.0851
39.4358 970.896 -82.848
17.2956 952.968 -77.2101
38.6772 927.423 -77.1723
61.0909 945.087 -82.7761
15.004 951.142 -76.0049
-3.82544 935.973 -59.8915
17.3111 910.648 -59.8839
36.3857 925.597 -75.967
-5.58557 934.574 -57.6524
-18.1996 924.4 -33.4423
2.7589 899.226 -33.438
15.551 909.249 -57.6448
-19.1544 923.642 -30.5081
-23.5852 920.085 -1.93445
-2.68968 894.966 -1.91319
1.8041 898.468 -30.5037
-0.393698 892.159 1.26658
4.08831 895.719 29.8345
24.5334 870.238 29.8598
19.9901 866.753 1.28787
5.05361 896.468 32.7652
17.81 906.509 56.9187
38.4202 880.822 56.9451
25.4987 870.986 32.7906
19.5909 907.886 59.1535
38.659 922.849 75.2308
59.5061 896.863 75.2524
40.2012 882.198 59.1799
40.9794 924.645 76.4327
63.3955 942.309 82.0274
84.525 915.962 82.0377
61.8265 898.658 76.4544
65.893 944.263 82.0192
88.1078 962.149 76.3242
109.577 935.38 76.3421
87.0225 917.916 82.0295
90.3878 963.999 75.1092
108.762 979.907 59.0044
130.751 952.536 59.0263
111.857 937.23 75.1271
110.476 981.372 56.7695
122.54 992.416 32.6595
144.947 964.586 32.6834
132.465 954.001 56.7914
123.458 993.227 29.7383
127.684 997.148 1.19611
150.244 969.161 1.22109
145.865 965.398 29.7621
127.685 997.146 -1.9697
123.477 993.194 -30.5098
145.88 965.368 -30.4842
150.245 969.16 -1.94472
122.561 992.38 -33.4307
110.511 981.309 -57.5349
132.497 953.941 -57.5086
144.964 964.553 -33.4051
108.799 979.841 -59.769
90.4354 963.913 -75.8651
111.902 937.145 -75.8365
130.784 952.472 -59.7427
88.1565 962.061 -77.0792
65.9497 944.162 -82.7644
87.0759 917.817 -82.73
109.623 935.293 -77.0506
63.4526 942.208 -82.7716
41.039 924.544 -77.1678
61.8814 898.56 -77.1463
84.5788 915.863 -82.7372
38.7183 922.75 -75.9651
19.6438 907.8 -59.882
40.2486 882.115 -59.8661
59.5607 896.766 -75.9436
17.8605 906.426 -57.6439
5.0684 896.403 -33.4371
25.5096 870.923 -33.4201
38.4654 880.74 -57.628
4.10062 895.658 -30.5021
-0.39316 892.156 -1.91156
19.9907 866.749 -1.89027
24.5418 870.178 -30.4851
22.2254 863.905 1.29052
26.7687 867.39 29.8625
46.6191 841.534 29.8865
42.017 838.135 1.31155
27.7466 868.122 32.7938
40.6682 877.957 56.9484
60.6832 851.862 56.9799
47.597 842.266 32.8178
42.472 879.304 59.1836
61.7769 893.969 75.2561
82.0401 867.526 75.2967
62.4871 853.209 59.2151
64.1273 895.725 76.4577
86.8258 913.028 82.041
107.394 886.171 82.0827
84.3905 869.282 76.4983
89.3586 914.936 82.0324
111.913 932.4 76.345
132.83 905.077 76.384
109.927 888.079 82.0742
114.238 934.192 75.1309
133.132 949.498 59.03
154.485 921.621 59.0644
135.154 906.87 75.1699
134.894 950.907 56.7949
147.376 961.492 32.6869
169.082 933.171 32.7128
156.248 923.03 56.8292
148.323 962.27 29.765
152.702 966.033 1.22398
174.537 937.554 1.24723
170.029 933.95 29.7909
152.703 966.031 -1.94229
148.339 962.24 -30.4817
170.042 933.921 -30.4614
174.538 937.553 -1.91904
147.393 961.458 -33.4033
134.926 950.846 -57.5068
156.276 922.971 -57.4954
169.097 933.14 -33.383
133.165 949.435 -59.7413
114.283 934.107 -75.8352
135.197 906.786 -75.8293
154.516 921.56 -59.7299
111.959 932.313 -77.0485
89.4116 914.837 -82.7279
109.977 887.982 -82.7259
132.873 904.992 -77.0427
86.8792 912.929 -82.7357
64.1818 895.627 -77.1447
84.4413 869.187 -77.1427
107.445 886.074 -82.7337
61.831 893.872 -75.9425
42.519 879.221 -59.8651
62.5303 853.129 -59.8546
82.0905 867.432 -75.9404
40.7129 877.876 -57.6266
27.7571 868.059 -33.4187
47.6049 842.204 -33.4007
60.7242 851.784 -57.6162
26.7769 867.331 -30.4831
22.2258 863.902 -1.88823
42.0173 838.132 -1.86719
46.6247 841.476 -30.4651
44.185 835.245 1.3141
48.787 838.644 29.889
68.0196 812.394 29.9122
63.358 809.088 1.33477
49.7777 839.357 32.8211
62.864 848.954 56.9832
82.2662 822.444 57.0158
69.0103 813.107 32.8443
64.6914 850.266 59.2196
84.2444 864.584 75.3011
103.907 837.692 75.3474
84.0937 823.756 59.2522
86.6265 866.296 76.5034
109.63 883.184 82.0878
129.614 855.838 82.14
106.289 839.403 76.5496
112.199 885.041 82.079
135.102 902.04 76.3888
155.435 874.202 76.4312
132.183 857.694 82.1312
137.469 903.775 75.1745
156.8 918.526 59.0689
177.521 890.16 59.1056
157.801 875.938 75.2169
158.603 919.881 56.8332
171.437 930.022 32.7167
192.463 901.239 32.7429
179.324 891.515 56.8698
172.41 930.768 29.7938
176.918 934.373 1.25012
198.056 905.437 1.27237
193.436 901.985 29.82
176.919 934.372 -1.91689
172.423 930.74 -30.4592
193.448 901.958 -30.4411
198.057 905.435 -1.89463
171.452 929.992 -33.3819
158.632 919.823 -57.4943
179.35 891.459 -57.4872
192.477 901.21 -33.3637
156.83 918.465 -59.7296
137.511 903.692 -75.829
157.841 875.856 -75.8283
177.548 890.101 -59.7224
135.145 901.955 -77.0427
112.249 884.945 -82.7259
132.23 857.601 -82.7356
155.476 874.119 -77.0419
109.68 883.088 -82.7341
86.6769 866.201 -77.1431
106.336 839.311 -77.1476
129.661 855.743 -82.7438
84.2944 864.49 -75.9402
64.7342 850.186 -59.8544
84.1335 823.678 -59.8458
103.954 837.6 -75.9448
62.9046 848.876 -57.6149
49.7853 839.296 -33.3994
69.0158 813.047 -33.3814
82.3038 822.367 -57.6063
48.7926 838.586 -30.463
44.1852 835.242 -1.86512
63.3582 809.085 -1.84446
68.0231 812.337 -30.445
65.4567 806.155 1.33724
70.1184 809.461 29.9147
88.7236 782.814 29.9371
84.0009 779.607 1.35742
71.1221 810.154 32.8476
84.378 819.49 57.019
103.158 792.567 57.0503
89.7273 783.507 32.8699
86.2299 820.766 59.2567
106.043 834.701 75.3519
125.092 807.369 75.3968
105.01 793.842 59.2879
108.458 836.365 76.5551
131.783 852.799 82.1455
151.162 824.98 82.1974
127.507 809.032 76.6001
134.39 854.602 82.1363
157.642 871.11 76.4364
177.373 842.772 76.4768
153.769 826.783 82.1881
160.047 872.788 75.2215
179.766 887.01 59.1102
199.847 858.168 59.1455
179.779 844.45 75.2619
181.607 888.314 56.8737
194.746 898.038 32.7468
215.095 868.803 32.7724
201.687 859.472 56.909
195.74 898.753 29.8228
200.361 902.205 1.27519
220.809 872.825 1.29659
216.09 869.519 29.8485
200.361 902.204 -1.89261
195.752 898.727 -30.4391
216.1 869.494 -30.4221
220.81 872.824 -1.87122
194.759 898.009 -33.3628
181.633 888.258 -57.4862
201.71 859.419 -57.4793
215.107 868.776 -33.3458
179.794 886.952 -59.7223
160.087 872.707 -75.8281
179.816 844.372 -75.8268
199.872 858.112 -59.7154
157.682 871.027 -77.0424
134.436 854.508 -82.7361
153.812 826.692 -82.7467
177.411 842.692 -77.0411
131.83 852.705 -82.7447
108.505 836.273 -77.1485
127.55 808.943 -77.1529
151.206 824.889 -82.7553
106.089 834.61 -75.9447
86.2694 820.688 -59.8458
105.047 793.766 -59.837
125.135 807.28 -75.9491
84.4154 819.414 -57.605
71.1273 810.093 -33.3801
89.7307 783.448 -33.3622
103.193 792.492 -57.5962
70.1217 809.404 -30.4429
65.4569 806.152 -1.8424
84.001 779.604 -1.82222
88.7251 782.759 -30.4251
86.0295 776.63 1.35981
90.7522 779.837 29.9395
108.724 752.797 29.9611
103.939 749.692 1.37943
91.7692 780.509 32.873
105.2 789.568 57.0534
123.349 762.238 57.0825
109.741 753.468 32.8946
107.077 790.805 59.2921
127.159 804.331 75.401
145.581 776.57 75.4413
125.226 763.474 59.3213
129.607 805.944 76.6052
153.262 821.892 82.2025
172.018 793.619 82.2479
148.029 778.183 76.6455
155.907 823.637 82.193
179.512 839.627 76.4816
198.615 810.819 76.5189
174.663 795.365 82.2384
181.955 841.248 75.266
202.023 854.966 59.1497
221.449 825.663 59.1805
201.059 812.439 75.3033
203.896 856.22 56.9126
217.304 865.552 32.776
236.973 835.878 32.7999
223.322 826.918 56.9433
218.318 866.238 29.8511
223.038 869.545 1.29927
242.796 839.733 1.31981
237.987 836.564 29.8751
223.038 869.544 -1.86926
218.328 866.214 -30.4201
237.996 836.541 -30.4031
242.796 839.732 -1.84872
217.316 865.525 -33.3447
203.919 856.167 -57.4782
223.344 826.867 -57.4684
236.983 835.852 -33.3277
202.048 854.91 -59.7149
181.991 841.169 -75.8264
201.092 812.364 -75.8235
221.472 825.609 -59.7051
179.549 839.547 -77.0414
155.95 823.547 -82.747
174.703 795.276 -82.7527
198.65 810.741 -77.0385
153.306 821.801 -82.756
129.65 805.854 -77.1535
148.07 778.096 -77.1546
172.058 793.531 -82.7617
127.202 804.243 -75.9489
107.113 790.729 -59.8367
125.26 763.401 -59.827
145.621 776.484 -75.9499
105.234 789.494 -57.5948
91.7723 780.45 -33.3608
109.742 753.411 -33.3434
123.381 762.166 -57.5851
90.7536 779.782 -30.423
86.0295 776.627 -1.82019
103.939 749.69 -1.80057
108.723 752.743 -30.4055
105.897 746.672 1.38172
110.681 749.776 29.9633
128.013 722.349 29.9839
123.165 719.352 1.40071
111.712 750.426 32.8974
125.32 759.196 57.0853
142.831 731.467 57.1117
129.044 722.999 32.918
127.222 760.391 59.325
147.577 773.487 75.4451
165.361 745.311 75.48
144.733 732.663 59.3514
150.06 775.046 76.65
174.048 790.483 82.2524
192.163 761.774 82.2909
167.844 746.87 76.6849
176.73 792.169 82.2426
200.683 807.623 76.5232
219.138 778.367 76.5564
194.845 763.46 82.2811
203.163 809.186 75.307
223.553 822.41 59.1841
242.312 792.665 59.2109
221.618 779.931 75.3402
225.456 823.617 56.9464
239.107 832.577 32.803
258.089 802.473 32.8252
244.215 793.872 56.9732
240.139 833.236 29.8776
244.948 836.405 1.32233
264.011 806.17 1.34205
259.121 803.132 29.8998
244.948 836.404 -1.84677
240.148 833.213 -30.4011
259.129 803.11 -30.384
264.011 806.169 -1.82705
239.117 832.551 -33.3263
225.478 823.566 -57.4671
244.235 793.823 -57.4549
258.098 802.449 -33.3092
223.576 822.356 -59.7044
203.196 809.111 -75.8228
221.649 779.858 -75.8173
242.333 792.613 -59.6922
200.717 807.545 -77.0384
176.77 792.081 -82.7526
194.882 763.375 -82.7528
219.17 778.293 -77.033
174.088 790.394 -82.7618
150.1 774.959 -77.1547
167.881 746.785 -77.1517
192.2 761.689 -82.762
147.617 773.401 -75.9494
127.256 760.318 -59.8265
144.764 732.591 -59.8153
165.398 745.227 -75.9464
125.352 759.123 -57.5836
111.713 750.368 -33.3419
129.043 722.942 -33.3247
142.86 731.397 -57.5725
110.681 749.722 -30.4035
105.896 746.67 -1.79858
123.165 719.349 -1.77958
128.011 722.296 -30.3863
125.052 716.289 1.4029
129.9 719.287 29.9861
146.586 691.481 30.0055
141.676 688.594 1.42121
130.944 719.913 32.9206
144.731 728.382 57.1143
161.595 700.266 57.1379
147.63 692.108 32.9399
146.658 729.535 59.3547
167.286 742.183 75.4832
184.421 713.604 75.5131
163.523 701.419 59.3783
169.802 743.687 76.6887
194.121 758.591 82.2946
211.581 729.465 82.3271
186.937 715.108 76.7185
196.84 760.217 82.2848
221.133 775.123 76.5601
238.924 745.441 76.5892
214.3 731.091 82.3173
223.648 776.629 75.3434
244.342 789.363 59.2141
262.421 759.191 59.2379
241.438 746.946 75.3725
246.273 790.524 56.976
260.147 799.125 32.828
278.433 768.604 32.8486
264.352 760.351 56.9998
261.195 799.757 29.9021
266.086 802.795 1.34441
284.446 772.147 1.36331
279.481 769.236 29.9228
266.086 802.794 -1.82512
261.204 799.735 -30.3821
279.488 769.215 -30.365
284.446 772.146 -1.80621
260.157 799.1 -33.3077
246.293 790.475 -57.4534
264.37 760.304 -57.4398
278.441 768.58 -33.2907
244.362 789.312 -59.6912
223.679 776.556 -75.8163
241.466 746.876 -75.8083
262.44 759.142 -59.6776
221.165 775.049 -77.0325
196.877 760.132 -82.7523
214.334 731.009 -82.748
238.952 745.369 -77.0245
194.158 758.506 -82.7617
169.839 743.603 -77.1514
186.971 715.027 -77.1448
211.615 729.383 -82.7574
167.323 742.1 -75.9456
146.689 729.464 -59.8145
163.551 701.35 -59.802
184.455 713.524 -75.939
144.76 728.312 -57.571
130.943 719.857 -33.3231
147.628 692.053 -33.3061
161.622 700.198 -57.5584
129.897 719.234 -30.3843
125.052 716.286 -1.77763
141.675 688.591 -1.75931
146.582 691.43 -30.3673
143.49 685.49 1.42328
148.401 688.377 30.0076
164.436 660.205 30.0259
159.464 657.43 1.44088
149.458 688.98 32.9423
163.423 697.139 57.1403
179.635 668.648 57.1616
165.494 660.807 32.9607
165.375 698.248 59.3811
186.274 710.433 75.5159
202.751 681.468 75.5415
181.586 669.757 59.4024
188.822 711.88 76.7217
213.467 726.237 82.3304
230.259 696.712 82.3579
205.299 682.915 76.7474
216.221 727.801 82.3205
240.845 742.151 76.5924
257.956 712.059 76.6177
233.014 698.275 82.348
243.393 743.598 75.3753
264.376 755.843 59.2407
281.763 725.26 59.2622
260.505 713.506 75.4007
266.334 756.957 57.0023
280.414 765.209 32.8511
297.995 734.283 32.8705
283.721 726.374 57.0238
281.477 765.815 29.925
286.443 768.727 1.36552
304.093 737.677 1.38361
299.058 734.889 29.9443
286.443 768.726 -1.80431
281.485 765.794 -30.3631
299.065 734.869 -30.3464
304.093 737.676 -1.78622
280.423 765.186 -33.2891
266.351 756.91 -57.4382
283.737 726.329 -57.4238
298.002 734.261 -33.2723
264.394 755.794 -59.6763
243.421 743.528 -75.807
260.53 713.439 -75.7968
281.78 725.213 -59.6619
240.873 742.079 -77.0237
216.255 727.719 -82.7472
233.045 698.197 -82.7395
257.983 711.991 -77.0134
213.5 726.155 -82.7566
188.856 711.799 -77.144
205.33 682.837 -77.1347
230.29 696.633 -82.7489
186.308 710.353 -75.9379
165.404 698.179 -59.8009
181.613 669.69 -59.7875
202.781 681.39 -75.9286
163.45 697.071 -57.5568
149.455 688.925 -33.3045
165.489 660.754 -33.2879
179.659 668.582 -57.5434
148.397 688.326 -30.3654
143.49 685.487 -1.75741
159.464 657.427 -1.73981
164.431 660.155 -30.3488
161.206 654.286 1.44285
166.178 657.061 30.0279
181.558 628.533 30.0452
176.524 625.873 1.45968
167.249 657.639 32.9628
181.389 665.48 57.1637
196.94 636.627 57.1829
182.628 629.112 32.9802
183.366 666.545 59.4049
204.53 678.255 75.544
220.338 648.918 75.5662
198.916 637.692 59.4242
207.11 679.644 76.7501
232.07 693.441 82.3607
248.184 663.533 82.3842
222.918 650.307 76.7723
234.86 694.941 82.3508
259.802 708.726 76.6205
276.223 678.244 76.6426
250.974 665.033 82.3743
262.383 710.114 75.4031
283.641 721.867 59.2647
300.326 690.89 59.2842
278.804 679.632 75.4253
285.625 722.935 57.026
299.898 730.844 32.8727
316.765 699.527 32.8908
302.31 691.958 57.0455
300.975 731.425 29.9464
306.01 734.213 1.38568
322.942 702.775 1.403
317.842 700.108 29.9645
306.01 734.212 -1.78436
300.982 731.405 -30.3445
317.848 700.089 -30.3281
322.942 702.774 -1.76705
299.906 730.822 -33.2707
285.641 722.89 -57.4221
302.324 691.916 -57.4073
316.772 699.506 -33.2542
283.658 721.82 -59.6605
262.408 710.047 -75.7954
278.827 679.568 -75.7836
300.341 690.846 -59.6457
259.828 708.657 -77.0123
234.89 694.863 -82.7384
251.001 664.958 -82.7282
276.247 678.178 -77.0005
232.101 693.362 -82.7478
207.141 679.566 -77.1337
222.946 650.232 -77.1224
248.212 663.457 -82.7376
204.56 678.178 -75.9273
183.392 666.478 -59.7862
198.94 637.627 -59.7722
220.366 648.844 -75.916
181.414 665.414 -57.5418
167.244 657.586 -33.2862
182.622 629.06 -33.2701
196.962 636.563 -57.5279
166.172 657.011 -30.3469
161.206 654.283 -1.73796
176.524 625.87 -1.72112
181.55 628.485 -30.3308
178.193 622.691 1.46154
183.226 625.351 30.0471
197.943 596.48 30.0634
192.851 593.937 1.47761
184.309 625.905 32.9822
198.622 633.42 57.1849
213.504 604.219 57.2023
199.026 597.034 32.9985
200.621 634.44 59.4263
222.043 645.666 75.5684
237.174 615.972 75.5876
215.504 605.239 59.4437
224.654 646.995 76.7746
249.92 660.221 82.3866
265.346 629.947 82.4067
239.785 617.302 76.7938
252.743 661.658 82.3767
277.992 674.868 76.645
293.713 644.013 76.6644
268.168 631.384 82.3968
280.604 676.196 75.4275
302.126 687.455 59.2864
318.098 656.102 59.3041
296.324 645.341 75.447
304.134 688.476 57.0476
318.589 696.046 32.8929
334.733 664.353 32.9099
320.106 657.123 57.0654
319.679 696.601 29.9665
324.779 699.267 1.40494
340.984 667.454 1.42143
335.823 664.908 29.9835
324.779 699.266 -1.76524
319.686 696.581 -30.3263
335.829 664.889 -30.3103
340.985 667.453 -1.74875
318.596 696.025 -33.2526
304.148 688.434 -57.4057
320.119 657.083 -57.3908
334.739 664.333 -33.2367
302.141 687.411 -59.6442
280.627 676.133 -75.7821
296.345 645.28 -75.7691
318.112 656.059 -59.6293
278.016 674.803 -76.9992
252.77 661.583 -82.7269
268.193 631.312 -82.7149
293.734 643.951 -76.9862
249.948 660.146 -82.7364
224.682 646.921 -77.1211
239.811 617.23 -77.1084
265.371 629.875 -82.7244
222.071 645.592 -75.9145
200.645 634.375 -59.7708
215.525 605.177 -59.7566
237.199 615.901 -75.9019
198.643 633.357 -57.5262
184.303 625.853 -33.2685
199.017 596.985 -33.2529
213.524 604.158 -57.512
183.219 625.302 -30.329
178.193 622.688 -1.71934
192.85 593.935 -1.70327
197.933 596.434 -30.3134
194.445 590.718 1.47937
199.537 593.261 30.0652
213.584 564.061 30.0805
208.435 561.637 1.49465
200.633 593.79 33.0003
215.111 600.975 57.2041
229.318 571.441 57.2199
214.68 564.59 33.0156
217.133 601.949 59.4457
238.804 612.682 75.5895
253.25 582.647 75.6062
231.34 572.414 59.4614
241.444 613.951 76.7959
267.005 626.597 82.4088
281.733 595.974 82.426
255.89 583.917 76.8125
269.86 627.968 82.3989
295.404 640.597 76.6665
310.413 609.387 76.6835
284.588 597.346 82.4161
298.045 641.865 75.4489
319.819 652.626 59.3061
335.069 620.913 59.3223
313.054 610.655 75.4659
321.85 653.601 57.0672
336.477 660.83 32.9118
351.89 628.777 32.9276
337.1 621.888 57.0835
337.58 661.36 29.9853
342.741 663.906 1.42325
358.211 631.732 1.43888
352.993 629.306 30.0011
342.741 663.905 -1.74701
337.586 661.341 -30.3086
352.998 629.289 -30.2933
358.212 631.731 -1.73139
336.483 660.81 -33.235
321.863 653.56 -57.3891
337.111 621.849 -57.3744
351.895 628.757 -33.2197
319.833 652.584 -59.6278
298.065 641.805 -75.7675
313.073 610.597 -75.7537
335.081 620.873 -59.613
295.425 640.535 -76.9847
269.884 627.897 -82.7134
284.61 597.278 -82.7001
310.432 609.327 -76.971
267.03 626.525 -82.7229
241.47 613.88 -77.107
255.913 583.849 -77.0934
281.755 595.906 -82.7096
238.829 612.611 -75.9004
217.155 601.887 -59.7551
231.36 572.355 -59.7408
253.272 582.58 -75.8868
215.131 600.914 -57.5104
200.624 593.74 -33.2512
214.67 564.543 -33.2362
229.335 571.382 -57.4961
199.528 593.214 -30.3117
194.445 590.715 -1.70156
208.435 561.634 -1.68627
213.573 564.017 -30.2966
209.956 558.382 1.49631
215.104 560.806 30.0822
228.476 531.292 30.0965
223.272 528.987 1.51079
216.212 561.31 33.0173
230.85 568.16 57.2216
244.374 538.306 57.2357
229.583 531.795 33.0316
232.894 569.087 59.4631
254.804 579.32 75.6079
268.556 548.961 75.6222
246.418 539.233 59.4773
257.472 580.529 76.8143
283.315 592.586 82.4277
297.336 561.632 82.4423
271.225 550.17 76.8286
286.2 593.892 82.4179
312.026 605.933 76.6853
326.316 574.384 76.7
300.222 562.937 82.4325
314.695 607.14 75.4677
336.71 617.398 59.3241
351.229 585.343 59.3388
328.985 575.592 75.4825
338.762 618.326 57.0852
353.552 625.215 32.9293
368.226 592.817 32.9441
353.282 586.271 57.0999
354.668 625.719 30.0028
359.886 628.145 1.44058
374.615 595.625 1.45539
369.342 593.321 30.0176
359.886 628.144 -1.72971
354.673 625.701 -30.2916
369.346 593.304 -30.2769
374.615 595.624 -1.7149
353.558 625.196 -33.218
338.774 618.288 -57.3727
353.292 586.234 -57.3581
368.232 592.798 -33.2033
336.722 617.358 -59.6114
314.713 607.083 -75.7522
329.001 575.537 -75.7378
351.24 585.305 -59.5968
312.044 605.874 -76.9694
286.222 593.824 -82.6986
300.241 562.873 -82.6842
326.332 574.328 -76.9551
283.337 592.518 -82.7081
257.495 580.461 -77.0918
271.245 550.105 -77.0775
297.356 561.567 -82.6937
254.826 579.253 -75.8852
232.913 569.028 -59.7392
246.435 539.177 -59.7249
268.576 548.897 -75.8708
230.867 568.102 -57.4945
216.201 561.262 -33.2346
229.571 531.75 -33.2202
244.39 538.251 -57.4802
215.093 560.762 -30.295
209.955 558.379 -1.68463
223.272 528.985 -1.67015
228.463 531.249 -30.2806
224.717 525.697 1.51234
229.921 528.002 30.0981
242.61 498.186 30.1114
237.354 496.003 1.52597
231.039 528.48 33.0332
245.83 534.991 57.2372
258.666 504.833 57.2499
243.728 498.664 33.0465
247.895 535.871 59.4788
270.033 545.599 75.6237
283.086 514.93 75.6357
260.73 505.713 59.4914
272.729 546.746 76.8301
298.84 558.208 82.4438
312.148 526.939 82.4558
285.781 516.077 76.8421
301.755 559.447 82.434
327.849 570.894 76.7015
341.411 539.025 76.7142
315.062 528.178 82.4459
330.545 572.04 75.484
352.789 581.792 59.3404
366.569 549.411 59.3537
344.107 540.171 75.4966
354.862 582.672 57.1015
369.807 589.218 32.9457
383.735 556.491 32.9595
368.642 550.292 57.1149
370.934 589.696 30.0192
376.207 592 1.45699
390.187 559.151 1.47099
384.861 556.969 30.033
376.207 591.999 -1.7133
370.938 589.679 -30.2753
384.866 556.953 -30.2611
390.187 559.15 -1.69929
369.812 589.2 -33.2017
354.872 582.636 -57.3565
368.652 550.257 -57.3421
383.74 556.474 -33.1875
352.8 581.753 -59.5952
330.561 571.986 -75.7362
344.122 540.12 -75.7213
366.579 549.375 -59.5808
327.865 570.838 -76.9534
301.774 559.383 -82.6826
315.079 528.118 -82.6673
341.426 538.973 -76.9385
298.86 558.144 -82.6921
272.749 546.682 -77.0758
285.799 516.017 -77.0608
312.165 526.878 -82.6768
270.053 545.535 -75.8692
247.912 535.815 -59.7233
260.745 505.66 -59.7091
283.103 514.87 -75.8542
245.846 534.936 -57.4786
231.027 528.435 -33.2186
243.715 498.621 -33.2048
258.679 504.781 -57.4644
229.908 527.96 -30.279
224.716 525.695 -1.66859
237.353 496 -1.65496
242.595 498.146 -30.2652
238.723 492.681 1.52741
243.979 494.864 30.1128
255.98 464.761 30.125
250.675 462.699 1.54012
245.108 495.316 33.0478
260.045 501.485 57.2512
272.185 471.038 57.2622
257.109 465.213 33.06
262.13 502.318 59.4926
284.485 511.535 75.6369
296.831 480.573 75.6466
274.27 471.87 59.5036
287.206 512.62 76.8433
313.573 523.481 82.457
326.159 491.915 82.4663
299.552 481.659 76.8529
316.515 524.654 82.4472
342.863 535.501 76.7154
355.691 503.329 76.7258
329.101 493.087 82.4565
345.585 536.585 75.498
368.047 545.825 59.3551
381.082 513.137 59.367
358.413 504.413 75.5084
370.14 546.657 57.1163
385.232 552.857 32.9609
398.407 519.818 32.9738
383.175 513.969 57.1283
386.37 553.309 30.0345
391.695 555.491 1.47248
404.92 522.328 1.48573
399.545 520.27 30.0473
391.696 555.49 -1.69776
386.374 553.293 -30.2596
399.549 520.255 -30.246
404.92 522.327 -1.68451
385.237 552.84 -33.186
370.149 546.623 -57.3405
383.183 513.937 -57.3264
398.412 519.802 -33.1724
368.057 545.789 -59.5791
345.599 536.534 -75.7196
358.425 504.365 -75.7042
381.09 513.103 -59.565
342.878 535.448 -76.9368
316.532 524.594 -82.6656
329.116 493.031 -82.6493
355.704 503.28 -76.9213
313.59 523.421 -82.6751
287.224 512.559 -77.0591
299.567 481.602 -77.0434
326.174 491.858 -82.6588
284.502 511.475 -75.8526
262.144 502.264 -59.7075
274.283 471.82 -59.6934
296.846 480.517 -75.8369
260.058 501.433 -57.4629
245.094 495.273 -33.2033
257.094 465.172 -33.1902
272.196 470.989 -57.4488
243.964 494.824 -30.2637
238.722 492.678 -1.65348
250.674 462.697 -1.64076
255.964 464.723 -30.2507
251.967 459.346 1.54145
257.272 461.408 30.1264
268.58 431.032 30.1375
263.227 429.093 1.55327
258.412 461.834 33.0612
273.488 467.659 57.2634
284.926 436.937 57.2726
269.719 431.458 33.0724
275.591 468.443 59.5046
298.152 477.146 75.6476
309.784 445.909 75.6545
287.029 437.721 59.5138
300.897 478.169 76.8538
327.505 488.425 82.4671
339.363 456.579 82.4733
312.529 446.931 76.8608
330.472 489.53 82.4574
357.062 499.773 76.7268
369.148 467.317 76.7346
342.331 457.684 82.4636
359.808 500.794 75.5095
382.477 509.517 59.3682
394.759 476.54 59.3784
371.894 468.338 75.5174
384.589 510.302 57.1295
399.821 516.15 32.975
412.237 482.816 32.9866
396.871 477.324 57.1398
400.969 516.575 30.0487
406.344 518.633 1.4871
418.807 485.172 1.49933
413.385 483.241 30.0603
406.344 518.632 -1.68305
400.973 516.561 -30.2445
413.388 483.227 -30.2317
418.807 485.172 -1.67082
399.826 516.134 -33.1708
384.597 510.269 -57.3248
396.878 477.294 -57.3108
412.241 482.801 -33.158
382.485 509.484 -59.5633
359.82 500.746 -75.7025
371.905 468.294 -75.6863
394.766 476.508 -59.5493
357.075 499.724 -76.9195
330.487 489.474 -82.6475
342.344 457.632 -82.6299
369.159 467.271 -76.9034
327.519 488.369 -82.657
300.912 478.113 -77.0416
312.542 446.879 -77.025
339.376 456.527 -82.6394
298.166 477.09 -75.8352
275.603 468.393 -59.6917
287.04 437.675 -59.6776
309.797 445.856 -75.8187
273.499 467.61 -57.4473
258.396 461.793 -33.1887
269.702 431.42 -33.1764
284.935 436.891 -57.4332
257.256 461.37 -30.2493
251.966 459.344 -1.63936
263.226 429.091 -1.62754
268.562 430.996 -30.2369
264.442 425.71 1.55447
269.795 427.649 30.1387
280.403 397.014 30.1486
275.006 395.197 1.56536
270.944 428.049 33.0734
286.151 433.528 57.2736
296.882 402.547 57.2808
281.552 397.414 33.0833
288.271 434.265 59.5145
311.026 442.452 75.6553
321.938 410.954 75.659
299.003 403.284 59.5217
313.794 443.412 76.8613
340.628 453.06 82.4739
351.753 420.953 82.4765
324.706 411.915 76.8651
343.62 454.097 82.4642
370.437 463.73 76.7352
381.775 431.009 76.7401
354.745 421.99 82.4668
373.206 464.688 75.5182
396.071 472.89 59.3793
407.594 439.641 59.3876
384.544 431.968 75.5231
398.2 473.625 57.1409
413.567 479.117 32.9877
425.217 445.504 32.9979
409.724 440.376 57.1492
414.724 479.515 30.0615
420.147 481.446 1.50056
431.843 447.703 1.51186
426.375 445.902 30.0718
420.147 481.445 -1.66943
414.728 479.501 -30.2303
426.378 445.889 -30.2181
431.843 447.702 -1.65814
413.571 479.101 -33.1565
398.207 473.595 -57.3093
409.73 440.348 -57.2953
425.221 445.489 -33.1442
396.078 472.858 -59.5476
373.217 464.644 -75.6846
384.553 431.927 -75.6673
407.6 439.612 -59.5336
370.448 463.685 -76.9014
343.633 454.045 -82.628
354.756 421.942 -82.6086
381.784 430.967 -76.8841
340.641 453.008 -82.6374
313.807 443.36 -77.0231
324.718 411.866 -77.0052
351.764 420.904 -82.6181
311.038 442.4 -75.8169
288.282 434.218 -59.6759
299.012 403.241 -59.6616
321.949 410.906 -75.799
286.16 433.483 -57.4318
270.927 428.011 -33.1749
281.533 397.378 -33.1632
296.89 402.505 -57.4175
269.777 427.613 -30.2356
264.441 425.708 -1.62623
275.005 395.195 -1.61534
280.384 396.981 -30.2239
276.143 391.786 1.56644
281.54 393.603 30.1497
291.443 362.722 30.1584
286.004 361.027 1.57635
282.698 393.977 33.0841
298.028 399.111 57.2816
308.047 367.886 57.2865
292.601 363.096 33.0928
300.165 399.799 59.5221
323.101 407.47 75.6594
333.289 375.73 75.6594
310.184 368.574 59.527
325.89 408.367 76.8652
352.936 417.405 82.4766
363.322 385.056 82.4748
336.078 376.627 76.8652
355.952 418.374 82.467
382.982 427.394 76.7403
393.566 394.429 76.7418
366.337 386.025 82.4652
385.772 428.289 75.5237
408.822 435.962 59.3882
419.581 402.461 59.3945
396.356 395.323 75.5251
410.969 436.647 57.1501
426.462 441.775 32.9988
437.344 407.9 33.0078
421.728 403.146 57.1564
427.629 442.145 30.0729
433.097 443.946 1.51295
444.022 409.936 1.52349
438.51 408.27 30.0819
433.098 443.945 -1.65681
427.633 442.132 -30.2167
438.514 408.258 -30.2048
444.023 409.935 -1.64627
426.466 441.761 -33.1427
410.975 436.619 -57.2938
421.733 403.121 -57.2793
437.347 407.886 -33.1307
408.828 435.933 -59.5318
385.781 428.248 -75.6655
396.364 395.286 -75.6465
419.587 402.434 -59.5173
382.991 427.352 -76.882
355.962 418.327 -82.6065
366.346 385.981 -82.5846
393.574 394.39 -76.863
352.947 417.357 -82.6159
325.901 408.319 -77.003
336.088 376.584 -76.9831
363.331 385.012 -82.5939
323.112 407.422 -75.7971
300.174 399.757 -59.6597
310.192 368.535 -59.6451
333.298 375.686 -75.7773
298.036 399.069 -57.416
282.679 393.942 -33.1617
292.581 363.064 -33.1507
308.053 367.847 -57.4014
281.521 393.57 -30.2227
276.142 391.785 -1.61411
286.003 361.026 -1.6042
291.423 362.692 -30.2117
287.063 357.59 1.57729
292.502 359.285 30.1593
301.695 328.171 30.1667
296.217 326.597 1.5862
293.668 359.633 33.0934
309.114 364.422 57.2871
318.416 332.968 57.2893
302.862 328.519 33.1008
311.266 365.063 59.527
334.372 372.219 75.6594
343.83 340.254 75.6548
320.568 333.609 59.5292
337.18 373.054 76.8648
364.424 381.482 82.4744
374.064 348.911 82.4673
346.639 341.089 76.8601
367.46 382.384 82.465
394.689 390.787 76.7415
404.514 357.598 76.7389
377.1 349.812 82.4578
397.5 391.618 75.5253
420.725 398.756 59.3947
430.715 365.023 59.3983
407.325 358.429 75.5228
422.887 399.39 57.157
438.503 404.144 33.0085
448.611 370.023 33.016
432.877 365.657 57.1606
439.679 404.485 30.0829
445.191 406.151 1.52444
455.341 371.888 1.53409
449.786 370.364 30.0904
445.191 406.15 -1.64498
439.682 404.473 -30.2035
449.789 370.352 -30.1919
455.341 371.888 -1.63534
438.506 404.13 -33.1291
422.893 399.364 -57.2777
432.882 365.633 -57.2624
448.614 370.01 -33.1175
420.73 398.729 -59.5153
397.507 391.581 -75.6445
407.332 358.395 -75.6233
430.72 364.998 -59.5
394.697 390.749 -76.8605
367.469 382.34 -82.5821
377.108 349.773 -82.5567
404.521 357.563 -76.8393
364.433 381.439 -82.5914
337.189 373.011 -76.9806
346.647 341.05 -76.958
374.072 348.872 -82.566
334.381 372.176 -75.7752
311.274 365.025 -59.643
320.575 333.574 -59.6276
343.838 340.215 -75.7526
309.12 364.384 -57.3999
293.648 359.601 -33.1492
302.841 328.49 -33.1389
318.421 332.933 -57.3844
292.481 359.255 -30.2106
287.062 357.588 -1.60306
296.216 326.595 -1.59415
301.674 328.144 -30.2002
297.197 323.134 1.58701
302.675 324.708 30.1675
311.155 293.373 30.1735
305.639 291.918 1.59488
303.849 325.031 33.1011
319.404 329.479 57.2896
327.985 297.809 57.2888
312.329 293.696 33.107
321.57 330.073 59.5288
344.832 336.719 75.6543
353.557 304.546 75.6442
330.151 298.403 59.528
347.659 337.492 76.8591
375.084 345.314 82.4662
383.975 312.542 82.4524
356.384 305.32 76.849
378.14 346.147 82.457
405.554 353.933 76.7381
414.615 320.544 76.731
387.031 313.376 82.4432
408.383 354.699 75.5225
431.773 361.294 59.3981
440.99 327.349 59.3983
417.445 321.31 75.5154
433.951 361.875 57.1609
449.684 366.241 33.0163
459.015 331.889 33.0221
443.168 327.931 57.1612
450.869 366.552 30.0912
456.423 368.076 1.53487
465.796 333.574 1.5436
460.199 332.2 30.097
456.424 368.075 -1.63409
450.872 366.54 -30.1906
460.202 332.189 -30.1791
465.796 333.574 -1.62535
449.687 366.228 -33.1158
433.956 361.852 -57.2607
443.173 327.909 -57.2438
459.018 331.876 -33.1042
431.778 361.269 -59.4978
408.39 354.666 -75.6211
417.451 321.279 -75.5973
440.995 327.327 -59.481
405.56 353.899 -76.8365
378.148 346.109 -82.5539
387.038 313.341 -82.5238
414.622 320.513 -76.8127
375.091 345.275 -82.5631
347.666 337.454 -76.9551
356.39 305.286 -76.929
383.982 312.507 -82.533
344.84 336.68 -75.7503
321.576 330.039 -59.6252
330.156 298.373 -59.6088
353.564 304.512 -75.7242
319.408 329.446 -57.3829
303.828 325.002 -33.1373
312.307 293.67 -33.1276
327.988 297.779 -57.3665
302.653 324.681 -30.1991
297.196 323.133 -1.59309
305.638 291.916 -1.58521
311.132 293.349 -30.1894
306.54 288.431 1.59554
312.055 289.886 30.1741
319.817 258.34 30.1788
314.268 257.001 1.60235
313.237 290.184 33.1071
328.892 294.297 57.2888
336.748 262.425 57.285
320.999 258.637 33.1117
331.072 294.845 59.527
354.478 300.988 75.6432
362.466 268.626 75.627
338.928 262.973 59.5232
357.321 301.701 76.8472
384.912 308.924 82.4507
393.049 275.975 82.429
365.309 269.34 76.8311
387.986 309.69 82.4417
415.571 316.858 76.7295
423.865 283.295 76.7179
396.124 276.741 82.42
418.418 317.559 75.5147
441.963 323.598 59.3976
450.403 289.463 59.3934
426.712 283.995 75.5031
444.156 324.125 57.1611
460.002 328.083 33.022
468.554 293.515 33.0257
452.596 289.99 57.1568
461.195 328.362 30.0976
466.792 329.737 1.5442
475.385 295.007 1.552
469.747 293.794 30.1013
466.792 329.736 -1.62412
461.198 328.351 -30.1779
469.75 293.783 -30.1661
475.385 295.007 -1.61632
460.006 328.071 -33.1023
444.16 324.104 -57.2419
452.6 289.971 -57.2225
468.557 293.503 -33.0906
441.968 323.576 -59.4785
418.424 317.529 -75.5948
426.718 283.969 -75.5686
450.408 289.443 -59.4591
415.577 316.828 -76.8095
387.993 309.656 -82.5206
396.13 276.712 -82.4846
423.871 283.268 -76.7834
384.919 308.89 -82.5295
357.327 301.668 -76.9256
365.315 269.31 -76.8956
393.056 275.945 -82.4936
354.484 300.955 -75.7216
331.076 294.815 -59.6062
338.932 262.947 -59.5888
362.472 268.598 -75.6916
328.896 294.268 -57.3649
313.214 290.158 -33.126
320.976 258.616 -33.1171
336.751 262.4 -57.3475
312.032 289.862 -30.1884
306.539 288.43 -1.58424
314.266 256.999 -1.57742
319.794 258.319 -30.1795
315.088 253.491 1.60287
320.638 254.83 30.1793
327.682 223.081 30.1826
322.1 221.854 1.60859
321.826 255.103 33.1115
337.576 258.89 57.2848
344.706 226.827 57.2784
328.87 223.354 33.1148
339.767 259.394 59.5217
363.305 265.048 75.6256
370.554 232.514 75.6047
346.897 227.33 59.5153
366.163 265.702 76.8286
393.903 272.338 82.4265
401.285 239.238 82.3985
373.412 233.168 76.8077
396.994 273.038 82.4179
424.735 279.592 76.7158
432.258 245.888 76.7006
404.375 239.938 82.3899
427.599 280.226 75.5018
451.29 285.693 59.3921
458.953 251.389 59.3825
435.122 246.522 75.4866
453.497 286.163 57.1563
469.455 289.687 33.0252
477.226 254.914 33.0272
461.159 251.858 57.1467
470.656 289.932 30.1017
476.294 291.145 1.55241
484.107 256.198 1.55923
478.427 255.159 30.1038
476.294 291.145 -1.61512
470.659 289.921 -30.1649
478.431 255.149 -30.1536
484.107 256.198 -1.6083
469.458 289.676 -33.0885
453.501 286.144 -57.2204
461.165 251.842 -57.1978
477.23 254.903 -33.0771
451.295 285.674 -59.4563
427.605 280.2 -75.5658
435.127 246.499 -75.5384
458.959 251.372 -59.4337
424.741 279.565 -76.7798
397 273.009 -82.4811
404.381 239.913 -82.4414
432.263 245.865 -76.7524
393.91 272.308 -82.4897
366.169 265.673 -76.8917
373.417 233.144 -76.8591
401.291 239.212 -82.45
363.311 265.019 -75.6887
339.771 259.369 -59.5859
346.901 227.31 -59.568
370.559 232.49 -75.6562
337.578 258.866 -57.3459
321.803 255.082 -33.1155
328.847 223.337 -33.1073
344.708 226.807 -57.328
320.615 254.809 -30.1786
315.087 253.49 -1.57654
322.099 221.853 -1.57082
327.658 223.065 -30.1705
322.841 218.322 1.60895
328.423 219.549 30.1829
334.748 187.604 30.1844
329.138 186.486 1.6136
329.617 219.799 33.1143
345.453 223.271 57.278
351.857 191.028 57.2684
335.943 187.855 33.1158
347.655 223.732 59.5134
371.311 228.915 75.6027
377.821 196.227 75.5768
354.059 191.488 59.5039
374.182 229.514 76.8045
402.056 235.583 82.3954
408.681 202.358 82.3608
380.692 196.825 76.7786
405.16 236.22 82.3871
433.043 242.17 76.6978
439.79 208.362 76.6732
411.785 202.995 82.3525
435.922 242.736 75.4846
459.753 247.604 59.3804
466.627 213.151 59.3673
442.67 208.929 75.46
461.973 248.011 57.1456
478.04 251.067 33.0262
485.018 216.097 33.0268
468.847 213.558 57.1325
479.249 251.274 30.104
484.929 252.313 1.55948
491.946 217.154 1.56536
486.227 216.304 30.1047
484.929 252.313 -1.60715
479.253 251.264 -30.1524
486.232 216.295 -30.1416
491.946 217.153 -1.60127
478.044 251.056 -33.0747
461.979 247.995 -57.1954
468.854 213.544 -57.1714
485.024 216.087 -33.0639
459.759 247.587 -59.4304
435.928 242.715 -75.5351
442.677 208.91 -75.4997
466.634 213.137 -59.4063
433.049 242.147 -76.7484
405.167 236.195 -82.4374
411.793 202.973 -82.3927
439.797 208.343 -76.713
402.062 235.558 -82.4456
374.188 229.49 -76.8548
380.699 196.806 -76.8189
408.688 202.337 -82.4009
371.317 228.892 -75.6531
347.659 223.713 -59.5649
354.063 191.475 -59.5456
377.828 196.208 -75.6172
345.455 223.252 -57.3264
329.594 219.782 -33.1057
335.92 187.843 -33.0977
351.86 191.014 -57.3071
328.399 219.533 -30.1696
322.84 218.321 -1.57
329.136 186.485 -1.56535
334.725 187.594 -30.1616
329.8 182.932 1.61372
335.411 184.05 30.1845
341.03 151.917 30.1817
335.395 150.902 1.61738
336.611 184.279 33.1149
352.524 187.452 57.2675
358.208 155.037 57.2523
342.23 152.145 33.112
354.735 187.872 59.5013
378.497 192.61 75.5742
384.268 159.784 75.543
360.419 155.457 59.4862
381.379 193.156 76.7748
409.368 198.689 82.357
415.234 165.365 82.317
387.15 160.329 76.7436
412.485 199.265 82.3487
440.49 204.633 76.6694
446.457 170.745 76.6307
418.351 165.942 82.3087
443.383 205.131 75.4569
467.341 209.352 59.3643
473.418 174.759 59.3451
449.35 171.243 75.4182
469.573 209.692 57.1311
485.744 212.23 33.0254
491.914 177.069 33.0231
475.649 175.098 57.1119
486.96 212.397 30.1047
492.678 213.246 1.56543
498.88 177.879 1.57015
493.13 177.235 30.1025
492.679 213.246 -1.60017
486.965 212.388 -30.1405
493.135 177.228 -30.129
498.88 177.878 -1.59545
485.749 212.221 -33.0613
469.579 209.679 -57.1688
475.657 175.087 -57.1409
491.92 177.061 -33.0499
467.348 209.339 -59.4022
443.39 205.112 -75.4956
449.36 171.226 -75.448
473.426 174.747 -59.3743
440.497 204.614 -76.7082
412.493 199.245 -82.3878
418.361 165.924 -82.3391
446.467 170.728 -76.6606
409.376 198.669 -82.3961
381.386 193.138 -76.8141
387.159 160.316 -76.7743
415.244 165.348 -82.3474
378.504 192.593 -75.6136
354.74 187.859 -59.5421
360.426 155.451 -59.5185
384.277 159.771 -75.5738
352.527 187.439 -57.3051
336.587 184.268 -33.0957
342.208 152.141 -33.0851
358.213 155.031 -57.2816
335.387 184.04 -30.1608
329.798 182.932 -1.5645
335.394 150.902 -1.56085
341.007 151.914 -30.1501
335.983 147.328 1.61669
341.617 148.343 30.181
346.595 116.035 30.1557
340.952 115.121 1.61948
342.821 148.55 33.1092
358.799 151.442 57.2495
363.805 118.872 57.2005
347.799 116.243 33.0838
361.016 151.826 59.4814
384.865 156.152 75.5382
389.912 123.208 75.4728
366.022 119.256 59.4324
387.754 156.649 76.7377
415.838 161.685 82.3111
420.932 128.295 82.2414
392.801 123.706 76.6724
418.963 162.205 82.3025
447.069 167.009 76.6244
452.211 133.087 76.5448
424.057 128.814 82.2327
449.973 167.434 75.4125
474.041 170.95 59.3394
479.269 136.221 59.2969
455.115 133.512 75.3328
476.282 171.214 57.1091
492.546 173.184 33.0203
497.826 137.826 33.0028
481.51 136.485 57.0665
493.767 173.305 30.1019
499.517 173.949 1.56964
504.808 138.367 1.57234
499.047 137.947 30.0845
499.517 173.949 -1.59411
493.773 173.299 -30.1277
499.055 137.943 -30.1049
504.809 138.367 -1.59141
492.552 173.177 -33.0463
476.29 171.203 -57.1373
481.522 136.477 -57.0893
497.835 137.822 -33.0234
474.05 170.938 -59.3678
449.984 167.417 -75.4415
455.13 133.497 -75.3554
479.282 136.212 -59.3198
447.08 166.992 -76.6535
418.974 162.188 -82.332
424.072 128.8 -82.2551
452.226 133.072 -76.5674
415.849 161.669 -82.3406
387.764 156.637 -76.7675
392.815 123.698 -76.6948
420.946 128.281 -82.2637
384.875 156.14 -75.5681
361.023 151.82 -59.5128
366.033 119.26 -59.4558
389.925 123.202 -75.4953
358.804 151.437 -57.2779
342.799 148.547 -33.0814
347.781 116.249 -33.0493
363.815 118.877 -57.2208
341.595 148.34 -30.1487
335.982 147.328 -1.55937
340.951 115.121 -1.55658
346.577 116.042 -30.1166
341.492 111.534 1.61382
347.135 112.448 30.15
351.86 80.0508 29.9714
346.259 79.2347 1.61488
348.335 112.636 33.0678
364.341 115.266 57.1844
368.959 82.6172 56.8713
353.06 80.2383 32.8892
366.553 115.615 59.4095
390.442 119.567 75.45
394.913 86.5691 75.0675
371.17 82.9666 59.0964
393.325 120.022 76.6469
421.456 124.61 82.2159
425.762 91.2101 81.8214
397.796 87.0232 76.2644
424.575 125.077 82.2077
452.729 129.35 76.5197
456.872 95.4236 76.158
428.881 91.6771 81.8132
455.632 129.696 75.3126
479.786 132.405 59.2767
483.825 97.4988 59.0703
459.775 95.7699 74.9509
482.022 132.582 57.055
498.339 133.922 32.9913
502.25 98.3138 32.8634
486.062 97.6751 56.8486
499.556 133.993 30.0801
505.317 134.413 1.56797
509.171 98.5614 1.55876
503.467 98.3846 29.9521
505.318 134.413 -1.58749
499.565 133.99 -30.101
503.472 98.384 -29.9817
509.171 98.5614 -1.59671
498.348 133.919 -33.0115
482.035 132.574 -57.0773
486.085 97.6709 -56.856
502.255 98.3131 -32.8923
479.799 132.397 -59.2985
455.647 129.682 -75.3341
459.799 95.7572 -74.9589
483.849 97.4935 -59.0772
452.745 129.335 -76.5413
424.591 125.064 -82.229
428.905 91.6669 -81.8241
456.897 95.4107 -76.1661
421.471 124.597 -82.2373
393.34 120.015 -76.6684
397.818 87.0215 -76.2777
425.786 91.2005 -81.8325
390.457 119.562 -75.4716
366.565 115.62 -59.432
371.191 82.9819 -59.1085
394.935 86.5686 -75.0809
364.352 115.271 -57.204
348.318 112.644 -33.0325
353.051 80.259 -32.8483
368.978 82.6334 -56.8804
347.117 112.456 -30.1103
341.491 111.535 -1.55033
346.258 79.2355 -1.54927
351.85 80.0709 -29.9262
346.923 75.6893 1.57403
352.523 76.5053 29.9306
359.667 44.7074 28.6509
354.331 43.9649 1.57205
353.691 76.6752 32.7748
369.59 79.054 56.7569
375.983 47.0472 54.4219
360.835 44.8773 31.4952
371.743 79.3714 58.9298
395.486 82.9739 74.9008
400.779 50.6274 71.9112
378.136 47.3646 56.5948
398.295 83.3861 76.0734
426.261 87.573 81.6305
430.3 54.8119 78.47
403.589 51.0395 73.0838
429.3 87.9932 81.6276
457.291 91.7398 75.9723
460.095 58.6595 73.1137
433.339 55.2321 78.4671
460.107 92.0448 74.8041
484.157 93.7736 58.9235
485.703 61.0409 56.6503
462.911 58.9645 71.9454
486.335 93.9237 56.7526
502.522 94.5623 32.7673
503.131 62.1559 31.4676
487.88 61.191 54.4794
503.706 94.6196 29.9168
509.409 94.7964 1.5234
509.66 62.4859 1.51198
504.314 62.2132 28.6171
509.409 94.7958 -1.56339
503.71 94.6183 -29.9484
504.308 62.186 -28.6594
509.66 62.4853 -1.5748
502.528 94.5605 -32.7959
486.358 93.9184 -56.7597
487.906 61.1654 -54.4715
503.126 62.1282 -31.5069
484.182 93.7681 -58.9288
460.132 92.0317 -74.8105
462.94 58.9524 -71.9409
485.73 61.0151 -56.6406
457.316 91.7271 -75.9793
429.325 87.9833 -81.6373
433.368 55.2262 -78.4694
460.124 58.6478 -73.1097
426.285 87.5638 -81.6407
398.318 83.3849 -76.0859
403.614 51.0443 -73.0921
430.329 54.8067 -78.4728
395.508 82.9744 -74.9136
371.764 79.3878 -58.9413
378.155 47.3954 -56.6073
400.805 50.6338 -71.9199
369.609 79.0717 -56.7657
353.682 76.6973 -32.7336
360.822 44.9126 -31.4581
376.001 47.0794 -54.4318
352.514 76.5262 -29.8853
346.922 75.6907 -1.5084
354.33 43.9663 -1.51037
359.653 44.7416 -28.6098
355.187 40.4739 1.48898
360.524 41.2165 28.5679
368.538 9.9839 26.8551
363.528 9.31744 1.48237
361.628 41.3704 31.2601
376.776 43.5404 54.1869
383.861 12.0952 51.024
369.642 10.1378 29.5474
378.813 43.8271 56.2449
401.457 47.0899 71.5613
407.15 15.302 67.409
385.898 12.3819 53.082
404.116 47.4606 72.6735
430.827 51.233 78.0597
434.858 19.0512 73.5356
409.809 15.6728 68.5212
433.704 51.6145 78.0591
460.46 55.0419 72.7057
462.784 22.5785 68.4879
437.735 19.4327 73.535
463.12 55.3435 71.5955
485.912 57.4199 56.3003
486.72 25.0888 53.0393
465.444 22.8801 67.3778
487.957 57.5992 54.2406
503.207 58.5641 31.2288
502.962 26.4465 29.4581
488.764 25.268 50.9795
504.314 58.6409 28.5318
509.661 58.9136 1.42673
509.031 26.8623 1.43582
504.069 26.5233 26.7611
509.66 58.9114 -1.48958
504.308 58.6121 -28.5742
504.062 26.4713 -26.7893
509.031 26.8601 -1.48049
503.202 58.5333 -31.2675
487.982 57.5705 -54.2321
488.781 25.2214 -50.9699
502.956 26.3925 -29.4826
485.94 57.393 -56.2899
463.149 55.3304 -71.5902
465.465 22.8671 -67.3735
486.739 25.0439 -53.0277
460.489 55.0304 -72.7012
433.733 51.6088 -78.0609
437.757 19.4288 -73.5353
462.805 22.5671 -68.4845
430.856 51.2282 -78.062
404.142 47.4658 -72.6814
409.829 15.6803 -68.526
434.88 19.0483 -73.5365
401.482 47.0972 -71.5698
378.832 43.8589 -56.2572
385.909 12.4248 -53.0927
407.169 15.3117 -67.4144
376.793 43.5741 -54.1972
361.614 41.4074 -31.2235
369.626 10.1876 -29.5205
383.87 12.14 -51.0326
360.509 41.2514 -28.5276
355.186 40.4761 -1.42817
363.527 9.31966 -1.43478
368.521 10.0317 -26.8247
364.58 6.06119 1.35304
369.59 6.72764 26.7258
380.236 -21.0141 23.7833
375.814 -21.6357 1.33156
370.599 6.86632 29.1838
384.818 8.82368 50.6603
393.844 -19.1163 45.2716
381.245 -20.8755 26.2412
386.682 9.07851 52.5391
407.933 11.9986 66.8662
414.591 -16.3312 59.8211
395.708 -18.8614 47.1504
410.365 12.3263 67.8786
435.415 15.7047 72.893
439.26 -13.053 65.2254
417.023 -16.0035 60.8336
438.042 16.0496 72.8888
463.09 19.1954 67.8417
464.071 -9.77636 60.6965
441.887 -12.7082 65.2211
465.514 19.4947 66.8264
486.791 21.7033 52.4879
485.258 -7.00186 46.9612
466.495 -9.47713 59.6813
488.649 21.9133 50.6121
502.847 23.0918 29.0907
499.631 -5.14244 26.1204
487.117 -6.79188 45.0854
503.855 23.1963 26.6345
508.817 23.5354 1.30923
505.028 -4.4595 1.32942
500.638 -5.03792 23.6642
508.817 23.5338 -1.35035
503.848 23.1449 -26.6591
500.638 -5.03969 -23.6649
505.028 -4.4611 -1.33015
502.84 23.0388 -29.1145
488.665 21.8676 -50.6018
487.117 -6.79548 -45.0855
499.63 -5.14582 -26.1203
486.807 21.6593 -52.4771
465.534 19.4825 -66.8229
466.496 -9.47912 -59.681
485.258 -7.0038 -46.9608
463.11 19.1844 -67.8383
438.062 16.0461 -72.8891
441.888 -12.709 -65.2209
464.072 -9.77722 -60.6963
435.435 15.7018 -72.8936
410.384 12.3338 -67.8831
417.024 -16.0037 -60.8336
439.261 -13.0534 -65.2254
407.951 12.0073 -66.8708
386.69 9.12038 -52.549
395.708 -18.8602 -47.1506
414.591 -16.3302 -59.8212
384.826 8.86725 -50.6696
370.582 6.91487 -29.1574
381.245 -20.8724 -26.2408
393.844 -19.1134 -45.2711
369.573 6.77469 -26.6986
364.58 6.06269 -1.30869
375.813 -21.6342 -1.33017
380.236 -21.0126 -23.7819
-77.6632 1015.02 25.317
-81.5729 1011.7 -0.457155
-77.5831 1014.94 -26.228
-66.3395 1024.26 -48.0537
-49.5344 1038.2 -62.595
-29.7842 1054.67 -67.6535
-10.209 1071.31 -62.5328
6.18607 1085.74 -48.0378
17.0352 1095.67 -26.2718
20.8441 1099.17 -0.492156
17.033 1095.68 25.2872
6.17227 1085.78 47.0578
-10.2428 1071.38 61.5666
-29.8305 1054.76 66.7008
-49.588 1038.3 61.6556
-66.4253 1024.37 47.137
382.635 -22.3855 1.31945e-05
387.058 -21.764 22.4517
399.656 -20.0048 41.4821
418.539 -17.4746 54.1528
440.776 -14.5241 58.5446
462.96 -11.5923 54.02
481.723 -9.11705 41.3
494.237 -7.4676 22.335
498.627 -6.88918 0.000239176
494.237 -7.46776 -22.3346
481.723 -9.11742 -41.2997
462.96 -11.5927 -54.0199
440.776 -14.5245 -58.5445
418.539 -17.4748 -54.1527
399.656 -20.0049 -41.4821
387.058 -21.764 -22.4517
</DataArray>
</Points>
<Cells>
<DataArray type="Int32" Name="connectivity" format="ascii">
0 1 2 3 
4 5 6 7 
8 9 10 11 
12 13 14 15 
16 17 18 19 
20 21 22 23 
24 25 26 27 
28 29 30 31 
32 33 34 35 
36 37 38 39 
40 41 42 43 
44 45 46 47 
48 49 50 51 
52 53 54 55 
56 57 58 59 
60 61 62 63 
64 65 66 67 
68 69 70 71 
72 73 74 75 
76 77 78 79 
80 81 82 83 
84 85 86 87 
88 89 90 91 
92 93 94 95 
96 97 98 99 
100 101 102 103 
104 105 106 107 
108 109 110 111 
112 113 114 115 
116 117 118 119 
120 121 122 123 
124 125 126 127 
128 129 130 131 
132 133 134 135 
136 137 138 139 
140 141 142 143 
144 145 146 147 
148 149 150 151 
152 153 154 155 
156 157 158 159 
160 161 162 163 
164 165 166 167 
168 169 170 171 
172 173 174 175 
176 177 178 179 
180 181 182 183 
184 185 186 187 
188 189 190 191 
192 193 194 195 
196 197 198 199 
200 201 202 203 
204 205 206 207 
208 209 210 211 
212 213 214 215 
216 217 218 219 
220 221 222 223 
224 225 226 227 
228 229 230 231 
232 233 234 235 
236 237 238 239 
240 241 242 243 
244 245 246 247 
248 249 250 251 
252 253 254 255 
256 257 258 259 
260 261 262 263 
264 265 266 267 
268 269 270 271 
272 273 274 275 
276 277 278 279 
280 281 282 283 
284 285 286 287 
288 289 290 291 
292 293 294 295 
296 297 298 299 
300 301 302 303 
304 305 306 307 
308 309 310 311 
312 313 314 315 
316 317 318 319 
320 321 322 323 
324 325 326 327 
328 329 330 331 
332 333 334 335 
336 337 338 339 
340 341 342 343 
344 345 346 347 
348 349 350 351 
352 353 354 355 
356 357 358 359 
360 361 362 363 
364 365 366 367 
368 369 370 371 
372 373 374 375 
376 377 378 379 
380 381 382 383 
384 385 386 387 
388 389 390 391 
392 393 394 395 
396 397 398 399 
400 401 402 403 
404 405 406 407 
408 409 410 411 
412 413 414 415 
416 417 418 419 
420 421 422 423 
424 425 426 427 
428 429 430 431 
432 433 434 435 
436 437 438 439 
440 441 442 443 
444 445 446 447 
448 449 450 451 
452 453 454 455 
456 457 458 459 
460 461 462 463 
464 465 466 467 
468 469 470 471 
472 473 474 475 
476 477 478 479 
480 481 482 483 
484 485 486 487 
488 489 490 491 
492 493 494 495 
496 497 498 499 
500 501 502 503 
504 505 506 507 
508 509 510 511 
512 513 514 515 
516 517 518 519 
520 521 522 523 
524 525 526 527 
528 529 530 531 
532 533 534 535 
536 537 538 539 
540 541 542 543 
544 545 546 547 
548 549 550 551 
552 553 554 555 
556 557 558 559 
560 561 562 563 
564 565 566 567 
568 569 570 571 
572 573 574 575 
576 577 578 579 
580 581 582 583 
584 585 586 587 
588 589 590 591 
592 593 594 595 
596 597 598 599 
600 601 602 603 
604 605 606 607 
608 609 610 611 
612 613 614 615 
616 617 618 619 
620 621 622 623 
624 625 626 627 
628 629 630 631 
632 633 634 635 
636 637 638 639 
640 641 642 643 
644 645 646 647 
648 649 650 651 
652 653 654 655 
656 657 658 659 
660 661 662 663 
664 665 666 667 
668 669 670 671 
672 673 674 675 
676 677 678 679 
680 681 682 683 
684 685 686 687 
688 689 690 691 
692 693 694 695 
696 697 698 699 
700 701 702 703 
704 705 706 707 
708 709 710 711 
712 713 714 715 
716 717 718 719 
720 721 722 723 
724 725 726 727 
728 729 730 731 
732 733 734 735 
736 737 738 739 
740 741 742 743 
744 745 746 747 
748 749 750 751 
752 753 754 755 
756 757 758 759 
760 761 762 763 
764 765 766 767 
768 769 770 771 
772 773 774 775 
776 777 778 779 
780 781 782 783 
784 785 786 787 
788 789 790 791 
792 793 794 795 
796 797 798 799 
800 801 802 803 
804 805 806 807 
808 809 810 811 
812 813 814 815 
816 817 818 819 
820 821 822 823 
824 825 826 827 
828 829 830 831 
832 833 834 835 
836 837 838 839 
840 841 842 843 
844 845 846 847 
848 849 850 851 
852 853 854 855 
856 857 858 859 
860 861 862 863 
864 865 866 867 
868 869 870 871 
872 873 874 875 
876 877 878 879 
880 881 882 883 
884 885 886 887 
888 889 890 891 
892 893 894 895 
896 897 898 899 
900 901 902 903 
904 905 906 907 
908 909 910 911 
912 913 914 915 
916 917 918 919 
920 921 922 923 
924 925 926 927 
928 929 930 931 
932 933 934 935 
936 937 938 939 
940 941 942 943 
944 945 946 947 
948 949 950 951 
952 953 954 955 
956 957 958 959 
960 961 962 963 
964 965 966 967 
968 969 970 971 
972 973 974 975 
976 977 978 979 
980 981 982 983 
984 985 986 987 
988 989 990 991 
992 993 994 995 
996 997 998 999 
1000 1001 1002 1003 
1004 1005 1006 1007 
1008 1009 1010 1011 
1012 1013 1014 1015 
1016 1017 1018 1019 
1020 1021 1022 1023 
1024 1025 1026 1027 
1028 1029 1030 1031 
1032 1033 1034 1035 
1036 1037 1038 1039 
1040 1041 1042 1043 
1044 1045 1046 1047 
1048 1049 1050 1051 
1052 1053 1054 1055 
1056 1057 1058 1059 
1060 1061 1062 1063 
1064 1065 1066 1067 
1068 1069 1070 1071 
1072 1073 1074 1075 
1076 1077 1078 1079 
1080 1081 1082 1083 
1084 1085 1086 1087 
1088 1089 1090 1091 
1092 1093 1094 1095 
1096 1097 1098 1099 
1100 1101 1102 1103 
1104 1105 1106 1107 
1108 1109 1110 1111 
1112 1113 1114 1115 
1116 1117 1118 1119 
1120 1121 1122 1123 
1124 1125 1126 1127 
1128 1129 1130 1131 
1132 1133 1134 1135 
1136 1137 1138 1139 
1140 1141 1142 1143 
1144 1145 1146 1147 
1148 1149 1150 1151 
1152 1153 1154 1155 
1156 1157 1158 1159 
1160 1161 1162 1163 
1164 1165 1166 1167 
1168 1169 1170 1171 
1172 1173 1174 1175 
1176 1177 1178 1179 
1180 1181 1182 1183 
1184 1185 1186 1187 
1188 1189 1190 1191 
1192 1193 1194 1195 
1196 1197 1198 1199 
1200 1201 1202 1203 
1204 1205 1206 1207 
1208 1209 1210 1211 
1212 1213 1214 1215 
1216 1217 1218 1219 
1220 1221 1222 1223 
1224 1225 1226 1227 
1228 1229 1230 1231 
1232 1233 1234 1235 
1236 1237 1238 1239 
1240 1241 1242 1243 
1244 1245 1246 1247 
1248 1249 1250 1251 
1252 1253 1254 1255 
1256 1257 1258 1259 
1260 1261 1262 1263 
1264 1265 1266 1267 
1268 1269 1270 1271 
1272 1273 1274 1275 
1276 1277 1278 1279 
1280 1281 1282 1283 
1284 1285 1286 1287 
1288 1289 1290 1291 
1292 1293 1294 1295 
1296 1297 1298 1299 
1300 1301 1302 1303 
1304 1305 1306 1307 
1308 1309 1310 1311 
1312 1313 1314 1315 
1316 1317 1318 1319 
1320 1321 1322 1323 
1324 1325 1326 1327 
1328 1329 1330 1331 
1332 1333 1334 1335 
1336 1337 1338 1339 
1340 1341 1342 1343 
1344 1345 1346 1347 
1348 1349 1350 1351 
1352 1353 1354 1355 
1356 1357 1358 1359 
1360 1361 1362 1363 
1364 1365 1366 1367 
1368 1369 1370 1371 
1372 1373 1374 1375 
1376 1377 1378 1379 
1380 1381 1382 1383 
1384 1385 1386 1387 
1388 1389 1390 1391 
1392 1393 1394 1395 
1396 1397 1398 1399 
1400 1401 1402 1403 
1404 1405 1406 1407 
1408 1409 1410 1411 
1412 1413 1414 1415 
1416 1417 1418 1419 
1420 1421 1422 1423 
1424 1425 1426 1427 
1428 1429 1430 1431 
1432 1433 1434 1435 
1436 1437 1438 1439 
1440 1441 1442 1443 
1444 1445 1446 1447 
1448 1449 1450 1451 
1452 1453 1454 1455 
1456 1457 1458 1459 
1460 1461 1462 1463 
1464 1465 1466 1467 
1468 1469 1470 1471 
1472 1473 1474 1475 
1476 1477 1478 1479 
1480 1481 1482 1483 
1484 1485 1486 1487 
1488 1489 1490 1491 
1492 1493 1494 1495 
1496 1497 1498 1499 
1500 1501 1502 1503 
1504 1505 1506 1507 
1508 1509 1510 1511 
1512 1513 1514 1515 
1516 1517 1518 1519 
1520 1521 1522 1523 
1524 1525 1526 1527 
1528 1529 1530 1531 
1532 1533 1534 1535 
1536 1537 1538 1539 
1540 1541 1542 1543 
1544 1545 1546 1547 
1548 1549 1550 1551 
1552 1553 1554 1555 
1556 1557 1558 1559 
1560 1561 1562 1563 
1564 1565 1566 1567 
1568 1569 1570 1571 
1572 1573 1574 1575 
1576 1577 1578 1579 
1580 1581 1582 1583 
1584 1585 1586 1587 
1588 1589 1590 1591 
1592 1593 1594 1595 
1596 1597 1598 1599 
1600 1601 1602 1603 
1604 1605 1606 1607 
1608 1609 1610 1611 
1612 1613 1614 1615 
1616 1617 1618 1619 
1620 1621 1622 1623 
1624 1625 1626 1627 
1628 1629 1630 1631 
1632 1633 1634 1635 
1636 1637 1638 1639 
1640 1641 1642 1643 
1644 1645 1646 1647 
1648 1649 1650 1651 
1652 1653 1654 1655 
1656 1657 1658 1659 
1660 1661 1662 1663 
1664 1665 1666 1667 
1668 1669 1670 1671 
1672 1673 1674 1675 
1676 1677 1678 1679 
1680 1681 1682 1683 
1684 1685 1686 1687 
1688 1689 1690 1691 
1692 1693 1694 1695 
1696 1697 1698 1699 
1700 1701 1702 1703 
1704 1705 1706 1707 
1708 1709 1710 1711 
1712 1713 1714 1715 
1716 1717 1718 1719 
1720 1721 1722 1723 
1724 1725 1726 1727 
1728 1729 1730 1731 
1732 1733 1734 1735 
1736 1737 1738 1739 
1740 1741 1742 1743 
1744 1745 1746 1747 
1748 1749 1750 1751 
1752 1753 1754 1755 
1756 1757 1758 1759 
1760 1761 1762 1763 
1764 1765 1766 1767 
1768 1769 1770 1771 
1772 1773 1774 1775 
1776 1777 1778 1779 
1780 1781 1782 1783 
1784 1785 1786 1787 
1788 1789 1790 1791 
1792 1793 1794 1795 
1796 1797 1798 1799 
1800 1801 1802 1803 
1804 1805 1806 1807 
1808 1809 1810 1811 
1812 1813 1814 1815 
1816 1817 1818 1819 
1820 1821 1822 1823 
1824 1825 1826 1827 
1828 1829 1830 1831 
1832 1833 1834 1835 
1836 1837 1838 1839 
1840 1841 1842 1843 
1844 1845 1846 1847 
1848 1849 1850 1851 
1852 1853 1854 1855 
1856 1857 1858 1859 
1860 1861 1862 1863 
1864 1865 1866 1867 
1868 1869 1870 1871 
1872 1873 1874 1875 
1876 1877 1878 1879 
1880 1881 1882 1883 
1884 1885 1886 1887 
1888 1889 1890 1891 
1892 1893 1894 1895 
1896 1897 1898 1899 
1900 1901 1902 1903 
1904 1905 1906 1907 
1908 1909 1910 1911 
1912 1913 1914 1915 
1916 1917 1918 1919 
1920 1921 1922 1923 
1924 1925 1926 1927 
1928 1929 1930 1931 
1932 1933 1934 1935 
1936 1937 1938 1939 
1940 1941 1942 1943 
1944 1945 1946 1947 
1948 1949 1950 1951 
1952 1953 1954 1955 
1956 1957 1958 1959 
1960 1961 1962 1963 
1964 1965 1966 1967 
1968 1969 1970 1971 
1972 1973 1974 1975 
1976 1977 1978 1979 
1980 1981 1982 1983 
1984 1985 1986 1987 
1988 1989 1990 1991 
1992 1993 1994 1995 
1996 1997 1998 1999 
2000 2001 2002 2003 
2004 2005 2006 2007 
2008 2009 2010 2011 
2012 2013 2014 2015 
2016 2017 2018 2019 
2020 2021 2022 2023 
2024 2025 2026 2027 
2028 2029 2030 2031 
2032 2033 2034 2035 
2036 2037 2038 2039 
2040 2041 2042 2043 
2044 2045 2046 2047 
2048 2049 2050 2051 2052 2053 2054 2055 2056 2057 2058 2059 2060 2061 2062 2063 
2064 2065 2066 2067 2068 2069 2070 2071 2072 2073 2074 2075 2076 2077 2078 2079 
</DataArray>
<DataArray type="Int32" Name="offsets" format="ascii">
4 8 12 16 20 24 28 32 36 40 44 48 52 56 60 64 68 72 76 80 84 88 92 96 100 104 108 112 116 120 124 128 132 136 140 144 148 152 156 160 164 168 172 176 180 184 188 192 196 200 204 208 212 216 220 224 228 232 236 240 244 248 252 256 260 264 268 272 276 280 284 288 292 296 300 304 308 312 316 320 324 328 332 336 340 344 348 352 356 360 364 368 372 376 380 384 388 392 396 400 404 408 412 416 420 424 428 432 436 440 444 448 452 456 460 464 468 472 476 480 484 488 492 496 500 504 508 512 516 520 524 528 532 536 540 544 548 552 556 560 564 568 572 576 580 584 588 592 596 600 604 608 612 616 620 624 628 632 636 640 644 648 652 656 660 664 668 672 676 680 684 688 692 696 700 704 708 712 716 720 724 728 732 736 740 744 748 752 756 760 764 768 772 776 780 784 788 792 796 800 804 808 812 816 820 824 828 832 836 840 844 848 852 856 860 864 868 872 876 880 884 888 892 896 900 904 908 912 916 920 924 928 932 936 940 944 948 952 956 960 964 968 972 976 980 984 988 992 996 1000 1004 1008 1012 1016 1020 1024 1028 1032 1036 1040 1044 1048 1052 1056 1060 1064 1068 1072 1076 1080 1084 1088 1092 1096 1100 1104 1108 1112 1116 1120 1124 1128 1132 1136 1140 1144 1148 1152 1156 1160 1164 1168 1172 1176 1180 1184 1188 1192 1196 1200 1204 1208 1212 1216 1220 1224 1228 1232 1236 1240 1244 1248 1252 1256 1260 1264 1268 1272 1276 1280 1284 1288 1292 1296 1300 1304 1308 1312 1316 1320 1324 1328 1332 1336 1340 1344 1348 1352 1356 1360 1364 1368 1372 1376 1380 1384 1388 1392 1396 1400 1404 1408 1412 1416 1420 1424 1428 1432 1436 1440 1444 1448 1452 1456 1460 1464 1468 1472 1476 1480 1484 1488 1492 1496 1500 1504 1508 1512 1516 1520 1524 1528 1532 1536 1540 1544 1548 1552 1556 1560 1564 1568 1572 1576 1580 1584 1588 1592 1596 1600 1604 1608 1612 1616 1620 1624 1628 1632 1636 1640 1644 1648 1652 1656 1660 1664 1668 1672 1676 1680 1684 1688 1692 1696 1700 1704 1708 1712 1716 1720 1724 1728 1732 1736 1740 1744 1748 1752 1756 1760 1764 1768 1772 1776 1780 1784 1788 1792 1796 1800 1804 1808 1812 1816 1820 1824 1828 1832 1836 1840 1844 1848 1852 1856 1860 1864 1868 1872 1876 1880 1884 1888 1892 1896 1900 1904 1908 1912 1916 1920 1924 1928 1932 1936 1940 1944 1948 1952 1956 1960 1964 1968 1972 1976 1980 1984 1988 1992 1996 2000 2004 2008 2012 2016 2020 2024 2028 2032 2036 2040 2044 2048 2064 2080 
</DataArray>
<DataArray type="UInt8" Name="types" format="ascii">
7 7 7 7 7 7 7 7 7 7 7 7 7 7 7 7 7 7 7 7 7 7 7 7 7 7 7 7 7 7 7 7 7 7 7 7 7 7 7 7 7 7 7 7 7 7 7 7 7 7 7 7 7 7 7 7 7 7 7 7 7 7 7 7 7 7 7 7 7 7 7 7 7 7 7 7 7 7 7 7 7 7 7 7 7 7 7 7 7 7 7 7 7 7 7 7 7 7 7 7 7 7 7 7 7 7 7 7 7 7 7 7 7 7 7 7 7 7 7 7 7 7 7 7 7 7 7 7 7 7 7 7 7 7 7 7 7 7 7 7 7 7 7 7 7 7 7 7 7 7 7 7 7 7 7 7 7 7 7 7 7 7 7 7 7 7 7 7 7 7 7 7 7 7 7 7 7 7 7 7 7 7 7 7 7 7 7 7 7 7 7 7 7 7 7 7 7 7 7 7 7 7 7 7 7 7 7 7 7 7 7 7 7 7 7 7 7 7 7 7 7 7 7 7 7 7 7 7 7 7 7 7 7 7 7 7 7 7 7 7 7 7 7 7 7 7 7 7 7 7 7 7 7 7 7 7 7 7 7 7 7 7 7 7 7 7 7 7 7 7 7 7 7 7 7 7 7 7 7 7 7 7 7 7 7 7 7 7 7 7 7 7 7 7 7 7 7 7 7 7 7 7 7 7 7 7 7 7 7 7 7 7 7 7 7 7 7 7 7 7 7 7 7 7 7 7 7 7 7 7 7 7 7 7 7 7 7 7 7 7 7 7 7 7 7 7 7 7 7 7 7 7 7 7 7 7 7 7 7 7 7 7 7 7 7 7 7 7 7 7 7 7 7 7 7 7 7 7 7 7 7 7 7 7 7 7 7 7 7 7 7 7 7 7 7 7 7 7 7 7 7 7 7 7 7 7 7 7 7 7 7 7 7 7 7 7 7 7 7 7 7 7 7 7 7 7 7 7 7 7 7 7 7 7 7 7 7 7 7 7 7 7 7 7 7 7 7 7 7 7 7 7 7 7 7 7 7 7 7 7 7 7 7 7 7 7 7 7 7 7 7 7 7 7 7 7 7 7 7 7 7 7 7 7 7 7 7 7 7 7 7 7 7 7 7 7 7 7 7 7 7 7 7 7 7 7 7 7 7 7 7 7 7 7 
</DataArray>
</Cells>
<CellData Scalars="cell variable 4" Vectors="cell vector">
<DataArray type="Float64" NumberOfComponents="3" Name="cell vector" format="ascii">
0.184242 0.0661005 0.980656
0.537876 0.150156 0.829544
0.794384 0.215988 0.567718
0.921251 0.305629 0.2406
0.722178 0.661694 -0.201543
0.257385 0.788819 -0.558138
-0.137657 -0.56975 0.810207
-0.0296634 -0.224554 0.97401
0.0347026 0.22107 0.97464
0.125587 0.577221 0.806873
0.253194 0.791193 0.556692
0.719175 0.664921 0.201662
0.919897 0.310019 -0.240161
0.789819 0.229705 -0.568702
-0.525052 -0.177878 0.832274
-0.191531 -0.053755 0.980013
0.162139 0.110597 0.98055
0.464586 0.308786 0.829947
0.691666 0.463194 0.55412
0.798525 0.569237 0.195773
0.74147 0.641886 -0.19546
0.535954 0.639326 -0.551376
-0.35282 -0.436141 0.827828
-0.125129 -0.153069 0.980261
0.125002 0.153918 0.980145
0.3492 0.440267 0.827178
0.53433 0.641181 0.550798
0.741036 0.6425 0.195088
0.797793 0.570169 -0.196046
0.690097 0.465089 -0.55449
-0.462387 -0.311124 0.830301
-0.163966 -0.107545 0.980586
0.160348 0.113642 0.980497
0.458014 0.319086 0.829703
0.683639 0.476291 0.552978
0.795975 0.573495 0.19372
0.746287 0.636245 -0.195573
0.530944 0.646743 -0.547561
-0.36748 -0.423619 0.827953
-0.131295 -0.147061 0.980375
0.130919 0.148291 0.98024
0.365743 0.42597 0.827515
0.530232 0.647718 0.547097
0.745825 0.636886 0.195247
0.795312 0.574323 -0.193987
0.682981 0.47695 -0.553223
-0.456925 -0.31979 0.830032
-0.161271 -0.111258 0.980619
0.160691 0.11357 0.980449
0.45889 0.318678 0.829376
0.687251 0.472298 0.551924
0.806582 0.558967 0.192303
0.770827 0.606177 -0.195893
0.0786671 0.901837 -0.424855
-0.565581 0.812784 -0.139644
-0.642208 0.765512 -0.0394948
-0.642432 0.765454 0.0368962
-0.567349 0.812242 0.135569
0.082601 0.901193 0.425475
0.77008 0.607222 0.195599
0.805965 0.559772 -0.192553
0.68697 0.472497 -0.552104
-0.45807 -0.31901 0.829702
-0.161066 -0.111551 0.980619
0.160857 0.113447 0.980436
0.458688 0.319074 0.829336
0.686724 0.473343 0.551685
0.807196 0.558283 0.191714
0.784895 0.587947 -0.195596
0.114074 0.895262 -0.430689
-0.547383 0.825938 -0.134897
-0.62082 0.783011 -0.0384228
-0.620797 0.783085 0.0372701
-0.547336 0.826166 0.13369
0.118881 0.894195 0.431604
0.784358 0.58875 0.195337
0.806802 0.558777 -0.191934
0.686732 0.473172 -0.551822
-0.458218 -0.318953 0.829642
-0.160955 -0.111614 0.98063
0.161263 0.112484 0.98048
0.459553 0.316924 0.829681
0.688164 0.470674 0.552174
0.81013 0.554007 0.191745
0.794051 0.575545 -0.19553
0.0825852 0.908375 -0.40992
-0.540049 0.833581 -0.116147
-0.602479 0.79739 -0.0344814
-0.602452 0.797455 0.033426
-0.539956 0.833789 0.11508
0.0902504 0.906634 0.412152
0.793569 0.576282 0.195313
0.809861 0.554335 -0.191932
0.688311 0.470328 -0.552286
-0.459297 -0.316524 0.829975
-0.161215 -0.110763 0.980684
0.162145 0.110697 0.980538
0.461895 0.312371 0.830107
0.691692 0.464691 0.552833
0.814673 0.547216 0.191997
0.799756 0.567489 -0.195824
-0.00531427 0.932072 -0.362235
-0.535449 0.839397 -0.0933127
-0.584804 0.81064 -0.0294519
-0.584781 0.810694 0.0284145
-0.53537 0.839564 0.0922576
0.00739003 0.930134 0.367146
0.79946 0.567976 0.195621
0.81452 0.547385 -0.192163
0.691904 0.46426 -0.552931
-0.461757 -0.311812 0.830394
-0.162001 -0.109057 0.980746
0.163391 0.108365 0.980592
0.46532 0.306188 0.830498
0.696775 0.456276 0.553459
0.820738 0.537972 0.19229
0.80648 0.557741 -0.196254
-0.211039 0.94639 -0.244559
-0.530094 0.84495 -0.0711254
-0.567131 0.823278 -0.0240117
-0.567109 0.823322 0.0229933
-0.530019 0.845084 0.0700878
-0.197398 0.947585 0.251231
0.80635 0.557997 0.196058
0.820682 0.538003 -0.192442
0.697016 0.455802 -0.553547
-0.46525 -0.305529 0.83078
-0.163175 -0.106787 0.980801
0.164881 0.105668 0.980637
0.469478 0.298874 0.830822
0.702975 0.446023 0.553976
0.828222 0.52629 0.192531
0.816935 0.542179 -0.196619
-0.35765 0.923076 -0.141485
-0.522368 0.851123 -0.0521594
-0.549239 0.835457 -0.0186854
-0.54922 0.835491 0.0176817
-0.522303 0.851225 0.0511394
-0.350047 0.925388 0.145344
0.81685 0.542373 0.196436
0.828225 0.526233 -0.192673
0.703226 0.445528 -0.554056
-0.46945 -0.298144 0.8311
-0.164607 -0.104136 0.980847
0.166551 0.102675 0.980672
0.4742 0.290603 0.831074
0.710082 0.434119 0.554368
0.836857 0.512385 0.192699
0.828608 0.524074 -0.196862
-0.421143 0.903086 -0.0841123
-0.511826 0.858278 -0.0373305
-0.530924 0.847303 -0.0140392
-0.530911 0.847327 0.0130379
-0.511766 0.858356 0.0363356
-0.417071 0.904809 0.0858638
0.828546 0.524236 0.196693
0.836893 0.512276 -0.192831
0.710329 0.433622 -0.55444
-0.474195 -0.289826 0.831348
-0.166229 -0.10118 0.980883
0.168353 0.0994326 0.980699
0.479308 0.281543 0.831262
0.717798 0.420861 0.554654
0.846206 0.496746 0.192818
0.840313 0.505032 -0.19702
-0.445274 0.893873 -0.0521735
-0.498842 0.866299 -0.0261373
-0.512142 0.85884 -0.0102647
-0.512133 0.858856 0.0092687
-0.49879 0.866357 0.0251688
-0.442858 0.895033 0.0528531
0.840258 0.505185 0.196864
0.846256 0.496612 -0.192941
0.718034 0.420374 -0.554719
-0.47931 -0.280739 0.831533
-0.167984 -0.0979733 0.980909
0.170231 0.0959883 0.980718
0.484627 0.271874 0.831397
0.72583 0.406575 0.554858
0.855899 0.479817 0.192905
0.851694 0.48555 -0.197124
-0.45039 0.892204 -0.0334765
-0.483784 0.875002 -0.0180344
-0.492921 0.870043 -0.00732388
-0.492917 0.870053 0.00634767
-0.483746 0.875042 0.0170851
-0.448814 0.892993 0.0336058
0.851627 0.485728 0.196979
0.855954 0.479674 -0.19302
0.726052 0.4061 -0.554915
-0.484627 -0.271055 0.831665
-0.169816 -0.0945671 0.980928
0.17214 0.0923801 0.980731
0.490033 0.261707 0.831491
0.733976 0.391477 0.554999
0.865666 0.461937 0.192968
0.862639 0.465799 -0.197191
-0.445698 0.894917 -0.0218236
-0.46715 0.884094 -0.0121983
-0.473296 0.880889 -0.0050918
-0.473294 0.880895 0.00414065
-0.467117 0.884124 0.0112825
-0.444621 0.895458 0.0216342
0.862573 0.465979 0.197058
0.865725 0.461781 -0.193075
0.734182 0.391021 -0.555049
-0.490021 -0.260889 0.831755
-0.171679 -0.0910015 0.980941
0.174045 0.0886442 0.98074
0.495421 0.251153 0.831553
0.742077 0.375755 0.555095
0.875329 0.443334 0.193013
0.873114 0.445837 -0.197233
-0.435539 0.900059 -0.0141105
-0.449355 0.893318 -0.00793315
-0.45331 0.891346 -0.00340391
-0.45331 0.891349 0.00248225
-0.44933 0.893338 0.007049
-0.434736 0.900453 0.0137657
0.873049 0.44602 0.197109
0.87538 0.443191 -0.193112
0.742264 0.375323 -0.555137
-0.495395 -0.250341 0.831813
-0.173538 -0.0873067 0.98095
0.175915 0.0848112 0.980745
0.500709 0.240307 0.83159
0.750011 0.359568 0.555153
0.884762 0.424182 0.193043
0.883135 0.425634 -0.197253
-0.422189 0.906467 -0.00865997
-0.430724 0.902471 -0.00470173
-0.433007 0.901388 -0.00209503
-0.43301 0.901388 0.00121014
-0.430715 0.90248 0.00384182
-0.421565 0.906761 0.00823159
0.88305 0.425862 0.197139
0.884798 0.424065 -0.193134
0.75018 0.359161 -0.555188
-0.500666 -0.239505 0.831848
-0.175365 -0.083516 0.980955
0.177733 0.0809049 0.980747
0.505839 0.22925 0.831608
0.757687 0.34305 0.555182
0.893857 0.404656 0.193061
0.89266 0.405275 -0.197257
-0.407065 0.913388 -0.00441897
-0.411571 0.911376 -0.00200228
-0.412437 0.910985 -0.000997404
-0.412442 0.910984 0.000143421
-0.411563 0.911381 0.00118486
-0.406566 0.913613 0.00394611
0.892585 0.405492 0.197151
0.893889 0.404546 -0.193144
0.757839 0.34267 -0.55521
-0.505775 -0.228466 0.831862
-0.177138 -0.0796593 0.980957
0.17948 0.076955 0.980747
0.510758 0.218073 0.831607
0.765031 0.326342 0.555184
0.902547 0.384882 0.193068
0.901751 0.384629 -0.197245
-0.391253 0.920283 -0.000590575
-0.392116 0.919916 0.000513604
-0.391643 0.920117 5.07141e-05
-0.391644 0.920116 -0.000836585
-0.392137 0.919906 -0.00132886
-0.39101 0.920386 -2.20201e-05
0.901661 0.384889 0.197147
0.90257 0.38479 -0.193142
0.765169 0.325982 -0.555204
-0.510676 -0.217304 0.831859
-0.17884 -0.0757643 0.980957
0.181145 0.0729909 0.980744
0.515438 0.206847 0.831588
0.771993 0.309559 0.555158
0.910755 0.365036 0.193064
0.910344 0.36384 -0.197216
-0.375939 0.926637 0.00368036
-0.372659 0.927963 0.00329965
-0.370669 0.928764 0.00117696
-0.370673 0.928762 -0.00193348
-0.37269 0.927947 -0.00408613
-0.375881 0.926658 -0.00437705
0.910267 0.364081 0.197128
0.910775 0.364952 -0.193129
0.772115 0.309231 -0.555171
-0.515336 -0.206098 0.831837
-0.180462 -0.0718528 0.980954
0.182716 0.069051 0.980738
0.519845 0.195677 0.831548
0.778526 0.292846 0.555103
0.918455 0.345214 0.193046
0.918516 0.342713 -0.197169
-0.362412 0.931972 0.00930549
-0.3534 0.935449 0.00665574
-0.349556 0.936912 0.00251459
-0.349573 0.936904 -0.0032741
-0.353474 0.935415 -0.00744871
-0.362271 0.93202 -0.00988292
0.918367 0.343158 0.197091
0.918452 0.345191 -0.193102
0.778634 0.292549 -0.555108
-0.519732 -0.194928 0.831795
-0.181999 -0.0679497 0.980948
0.184189 0.0651657 0.980728
0.523961 0.184664 0.831483
0.784594 0.276365 0.555009
0.925597 0.325601 0.193013
0.926231 0.321322 -0.197102
-0.352045 0.935825 0.0172312
-0.334636 0.942283 0.0110067
-0.328355 0.944545 0.00422893
-0.328381 0.944532 -0.00497787
-0.334771 0.942225 -0.011834
-0.35202 0.935823 -0.0178323
0.926026 0.321953 0.197031
0.925567 0.325657 -0.19306
0.784688 0.276103 -0.555007
-0.523842 -0.183906 0.831726
-0.183444 -0.0640973 0.980938
0.185564 0.0613683 0.980714
0.527778 0.173927 0.831384
0.790162 0.260326 0.554865
0.932109 0.306496 0.19296
0.933451 0.299762 -0.197008
-0.347202 0.937338 0.0291083
-0.316813 0.948335 0.0170074
-0.307129 0.951645 0.0065321
-0.30716 0.95163 -0.00726356
-0.317011 0.948253 -0.0178822
-0.347577 0.937173 -0.0299384
0.933207 0.300564 0.196943
0.932072 0.306584 -0.192999
0.790246 0.260092 -0.554855
-0.527654 -0.173154 0.831624
-0.184791 -0.0603414 0.980924
0.186838 0.0577183 0.980694
0.531279 0.163649 0.831241
0.795187 0.245025 0.554653
0.937948 0.288186 0.192881
0.940257 0.277772 -0.196875
-0.352308 0.934649 0.0480702
-0.300337 0.953499 0.0252591
-0.285931 0.958202 0.00960596
-0.285964 0.958185 -0.010269
-0.300664 0.953368 -0.026268
-0.353427 0.934158 -0.0493701
0.939898 0.279027 0.196813
0.937904 0.288307 -0.192911
0.795274 0.244784 -0.554636
-0.531161 -0.162829 0.831478
-0.186042 -0.0567366 0.980902
0.188012 0.0542628 0.980667
0.53446 0.154015 0.831043
0.799637 0.23082 0.554349
0.943016 0.271226 0.192763
0.946544 0.255684 -0.196673
-0.376307 0.922985 0.0805687
-0.285849 0.957572 0.0367
-0.264832 0.964198 0.0136714
-0.26484 0.964189 -0.0140979
-0.286298 0.957394 -0.0378264
-0.37917 0.921589 -0.0830871
0.946056 0.257522 0.196621
0.943001 0.271261 -0.192786
0.799741 0.230515 -0.554326
-0.534357 -0.153125 0.831273
-0.187199 -0.0533544 0.980872
0.189094 0.0510428 0.980632
0.537332 0.145162 0.830784
0.803495 0.218038 0.553946
0.947153 0.256528 0.192601
0.95157 0.236565 -0.196344
-0.452368 0.878888 0.151393
-0.274764 0.960036 0.0532564
-0.244017 0.969586 0.0189194
-0.243895 0.969616 -0.0189642
-0.274627 0.960052 -0.0536598
-0.444744 0.883643 -0.146208
0.95141 0.237216 0.196336
0.947273 0.256086 -0.192596
0.803628 0.217671 -0.553896
-0.53725 -0.144227 0.831
-0.188264 -0.0502477 0.980832
0.190073 0.048205 0.980586
0.539896 0.137377 0.830446
0.806816 0.20686 0.553405
0.950647 0.243456 0.192355
0.955635 0.219968 -0.195899
-0.63322 0.710429 0.307121
-0.26545 0.961345 0.0731524
-0.22277 0.974579 0.0238458
-0.222882 0.974533 -0.0246945
-0.265565 0.961278 -0.0736122
-0.57105 0.779568 -0.257246
0.955235 0.221664 0.195937
0.950656 0.243446 -0.192321
0.806942 0.206563 -0.553332
-0.539854 -0.136296 0.830651
-0.189253 -0.0474386 0.980782
0.190962 0.0458046 0.980528
0.54216 0.130949 0.830009
0.809573 0.197814 0.552685
0.953311 0.233115 0.191979
0.95798 0.209905 -0.195482
0.691128 -0.621699 -0.368554
-0.257449 0.961592 0.0951876
-0.201257 0.979115 0.028784
-0.201542 0.97901 -0.0303381
-0.257961 0.961365 -0.0960953
0.683579 -0.633636 0.362251
0.957788 0.210759 0.195505
0.953272 0.233288 -0.191963
0.809675 0.197563 -0.552625
-0.54214 -0.129694 0.830219
-0.190145 -0.0451118 0.980719
0.191701 0.0440349 0.980465
0.54397 0.126528 0.829511
0.811564 0.191874 0.551859
0.955009 0.226429 0.19154
0.959747 0.201907 -0.195239
0.708977 -0.58392 -0.39546
-0.250394 0.960843 0.118677
-0.179558 0.983156 0.0340966
-0.17976 0.983072 -0.0354335
-0.250267 0.960868 -0.118738
0.710367 -0.581298 0.396826
0.959877 0.201284 0.195244
0.955108 0.226008 -0.191545
0.81169 0.191455 -0.551819
-0.543979 -0.125041 0.82973
-0.19089 -0.0435313 0.980646
0.192093 0.0433306 0.98042
0.544913 0.125175 0.829097
0.812429 0.190154 0.551182
0.955881 0.222947 0.191275
0.962366 0.188866 -0.195402
0.707482 -0.57835 -0.406179
-0.235521 0.96266 0.133472
-0.154836 0.987231 0.0374307
-0.155049 0.987154 -0.0385675
-0.23542 0.962697 -0.133387
0.708432 -0.57656 0.407066
0.962472 0.18833 0.195397
0.956021 0.222334 -0.191287
0.812595 0.189489 -0.551166
-0.54501 -0.123217 0.829326
-0.191364 -0.0429789 0.980578
0.191751 0.0438817 0.980462
0.543994 0.128115 0.829251
0.810632 0.196669 0.55154
0.953675 0.231517 0.192106
0.965554 0.171611 -0.19559
-0.574869 0.751214 0.324349
-0.185529 0.975833 0.115453
-0.114648 0.99281 0.0344114
-0.114516 0.992853 -0.033592
-0.183692 0.976515 -0.112589
-0.576333 0.749531 -0.325643
0.965777 0.170294 0.195641
0.953919 0.230508 -0.192105
0.810863 0.195526 -0.551607
-0.544277 -0.125296 0.829496
-0.191248 -0.043674 0.98057
0.190469 0.0407664 0.980846
0.541409 0.118789 0.832326
0.809771 0.180656 0.558242
0.957987 0.205907 0.199658
0.972981 0.121889 -0.196089
0.829486 -0.0546579 -0.555846
-0.555956 0.0129129 0.831111
-0.195393 0.0014021 0.980724
0.195514 -0.00174584 0.980699
0.555928 -0.0152124 0.831091
0.829423 -0.0543235 0.555973
0.972966 0.12176 0.196243
0.958164 0.205227 -0.199507
0.810023 0.179613 -0.558213
-0.541944 -0.116043 0.832365
-0.190178 -0.0406583 0.980907
0.190509 0.0376722 0.980962
0.541677 0.109968 0.833363
0.811223 0.166453 0.560545
0.961509 0.186414 0.201864
0.973177 0.12118 -0.195554
0.826421 -0.0131007 -0.5629
-0.550387 0.00819962 0.834869
-0.192825 0.00141882 0.981232
0.193145 -0.00182736 0.981169
0.550237 -0.0123805 0.834916
0.82632 -0.0129112 0.563053
0.973133 0.121294 0.195703
0.961633 0.185979 -0.201678
0.811432 0.165811 -0.560433
-0.542261 -0.107573 0.833295
-0.190195 -0.0376967 0.981022
0.185016 0.0477367 0.981575
0.522819 0.14899 0.839322
0.769022 0.266452 0.581041
0.862143 0.433277 0.262642
0.963341 -0.10424 -0.247202
0.783484 -0.194637 -0.590144
-0.536119 0.0607883 0.841951
-0.188464 0.0159651 0.98195
0.188567 -0.0160257 0.98193
0.534293 -0.0717002 0.842253
0.783856 -0.192877 0.590227
0.967006 -0.078907 0.242224
0.863915 0.430131 -0.261989
0.769385 0.265592 -0.580954
-0.526562 -0.139565 0.838602
-0.185009 -0.0475924 0.981584
0.00638387 0.0065116 0.999958
0.00257188 0.000343963 0.999997
</DataArray>
<DataArray type="Float64" Name="cell vector length" format="ascii">
0.175633 0.164443 0.156428 0.123485 0.0752048 0.170056 0.218432 0.200601 0.197184 0.212481 0.171212 0.0749289 0.122749 0.154448 0.182175 0.184069 0.412076 0.384685 0.348277 0.302424 0.267804 0.325308 0.415273 0.446906 0.441805 0.401545 0.323431 0.267901 0.303326 0.351083 0.405038 0.419507 0.517257 0.488486 0.443696 0.38284 0.326235 0.40307 0.516923 0.560103 0.556455 0.506491 0.401505 0.326672 0.38402 0.445895 0.504361 0.522533 0.548842 0.517233 0.46434 0.386195 0.260541 0.124686 0.240017 0.33178 0.332301 0.242297 0.124787 0.261292 0.387385 0.466139 0.531516 0.553391 0.568961 0.533785 0.471375 0.375655 0.231712 0.0937846 0.229767 0.323587 0.323243 0.228787 0.0936363 0.232643 0.376903 0.472904 0.547132 0.573054 0.583458 0.54477 0.473486 0.362854 0.203408 0.0643343 0.218199 0.310623 0.310304 0.217263 0.0642033 0.204557 0.364185 0.474843 0.557555 0.587282 0.594239 0.552696 0.474349 0.352111 0.181859 0.0424917 0.210055 0.299395 0.299123 0.2092 0.0422154 0.183176 0.353485 0.475584 0.565148 0.597907 0.602241 0.55845 0.474614 0.343261 0.161619 0.0334765 0.204875 0.290213 0.289973 0.204084 0.0326551 0.163113 0.344668 0.475774 0.570725 0.605825 0.608118 0.562544 0.474466 0.336256 0.147789 0.0349663 0.201797 0.283123 0.282905 0.201042 0.0338339 0.14935 0.337694 0.475591 0.57475 0.611665 0.612349 0.565372 0.474087 0.330968 0.138263 0.0385824 0.199847 0.277963 0.27776 0.199118 0.0373721 0.139859 0.332433 0.475206 0.577585 0.61589 0.615313 0.567264 0.473648 0.327128 0.131662 0.0422637 0.198907 0.27423 0.274037 0.198191 0.0410416 0.133279 0.328617 0.474777 0.579534 0.618869 0.617341 0.568489 0.473211 0.324354 0.127029 0.0451141 0.1984 0.271597 0.271413 0.197698 0.0439057 0.128657 0.325865 0.474359 0.580849 0.620926 0.61869 0.569247 0.472803 0.322356 0.123768 0.047176 0.198157 0.269841 0.269664 0.197463 0.045985 0.125403 0.323887 0.473974 0.581713 0.622311 0.619539 0.56967 0.472433 0.320933 0.121498 0.0485987 0.198067 0.268745 0.268573 0.197378 0.0474266 0.123137 0.322482 0.473628 0.582249 0.623199 0.620011 0.569846 0.472101 0.319943 0.119966 0.0495211 0.198076 0.268154 0.267985 0.19739 0.0483634 0.12161 0.321511 0.473319 0.582542 0.623713 0.620183 0.56983 0.471808 0.319305 0.119023 0.0500396 0.198165 0.267975 0.267807 0.197474 0.0488899 0.120671 0.320891 0.473045 0.582642 0.623927 0.620088 0.569646 0.471553 0.318984 0.118602 0.0502292 0.198361 0.268177 0.267996 0.197633 0.0490596 0.12026 0.320586 0.472807 0.582569 0.623874 0.619725 0.569293 0.471339 0.318985 0.118702 0.0501462 0.198704 0.26876 0.268567 0.19794 0.0489481 0.120379 0.3206 0.472601 0.582321 0.62355 0.619052 0.568746 0.47117 0.319359 0.119412 0.0496479 0.199113 0.269734 0.26954 0.198335 0.0484321 0.121108 0.32098 0.472431 0.581868 0.622913 0.617979 0.567943 0.471055 0.320208 0.12091 0.0486173 0.199601 0.271198 0.271015 0.198828 0.0473854 0.122621 0.321826 0.472302 0.581155 0.621877 0.616369 0.566789 0.471003 0.321704 0.123482 0.0469069 0.200225 0.273309 0.273136 0.199452 0.0456378 0.125209 0.323297 0.47222 0.580087 0.620305 0.614022 0.565137 0.471013 0.324098 0.127571 0.0443445 0.201072 0.276281 0.276132 0.200315 0.043022 0.129305 0.32563 0.472187 0.578533 0.618004 0.610671 0.562764 0.471037 0.327732 0.13393 0.040698 0.202259 0.280433 0.280345 0.201643 0.0394755 0.135588 0.32914 0.472183 0.576306 0.614722 0.606002 0.559403 0.470945 0.332842 0.143287 0.0343365 0.204544 0.286232 0.286098 0.203733 0.0355668 0.145129 0.334168 0.472113 0.573144 0.610145 0.599618 0.554728 0.470606 0.339714 0.160019 0.0308569 0.207146 0.29396 0.293778 0.207333 0.0345177 0.159406 0.340928 0.471806 0.568721 0.603882 0.590971 0.548302 0.469867 0.348391 0.177639 0.0452902 0.213967 0.303844 0.303712 0.213142 0.0451845 0.178826 0.349468 0.471054 0.562627 0.595405 0.579131 0.53931 0.468114 0.358495 0.199064 0.0682003 0.224042 0.316484 0.316316 0.223243 0.0676395 0.199814 0.35943 0.469305 0.554087 0.583801 0.561204 0.524621 0.461885 0.366499 0.221985 0.0971767 0.24139 0.334353 0.334159 0.240532 0.0965326 0.222622 0.367359 0.463155 0.540105 0.566225 0.521255 0.486076 0.429185 0.346416 0.208057 0.12874 0.287394 0.374981 0.376054 0.291076 0.128307 0.208668 0.347235 0.430615 0.503093 0.526918 0.495758 0.460922 0.406753 0.33559 0.27381 0.361621 0.493498 0.542645 0.537256 0.478134 0.359881 0.274563 0.336561 0.408324 0.478928 0.501742 0.460168 0.42507 0.37223 0.310496 0.269887 0.328932 0.442824 0.487887 0.480923 0.422626 0.327256 0.270397 0.311469 0.373833 0.443711 0.466363 0.209321 0.169519 0.10915 0.0459696 0.0133937 0.115327 0.252822 0.317179 0.311659 0.236036 0.116117 0.0142138 0.046753 0.108721 0.188765 0.215241 0.0655316 0.0152124 
</DataArray>
<DataArray type="Float64" Name="cell variable 4" format="ascii">
869.673 863.956 864.564 861.717 850.416 888.947 884.411 872.429 869.423 876.435 888.814 850.241 861.003 863.002 877.974 874.807 1085.82 1067.6 1057.78 1050.54 1047.73 1073.87 1104.65 1096.21 1090.38 1086.62 1073.89 1047.63 1050.41 1057.8 1095.43 1095.28 1283.44 1261.91 1248.23 1237.61 1230.87 1269.68 1302.04 1302.51 1296.54 1283.21 1269.95 1231.12 1237.69 1248.33 1294.8 1294.01 1322.97 1300.2 1285.65 1275.54 1265.65 1372.2 1709.68 1960.13 1958.46 1706.33 1371.27 1265.62 1275.44 1285.68 1333.89 1333.74 1331.17 1308.19 1294.21 1287.32 1283.15 1376.63 1688.12 1922.17 1920.98 1685.75 1375.41 1283.01 1287.21 1294.26 1342 1341.93 1333.91 1309.57 1293.53 1285.47 1283.16 1369.83 1670.3 1887.43 1886.52 1668.38 1368.75 1283.12 1285.48 1293.63 1343.4 1344.66 1335.55 1309.95 1292.07 1282.81 1281.1 1364.8 1658.86 1859.62 1858.89 1657.2 1363.65 1281.07 1282.86 1292.19 1343.85 1346.34 1336.76 1310.25 1291.06 1280.87 1278.92 1368.67 1652.58 1838.33 1837.73 1651.12 1367.12 1278.9 1280.92 1291.18 1344.29 1347.6 1337.78 1310.55 1290.33 1279.35 1276.96 1376.39 1649.35 1822.7 1822.2 1648.05 1374.62 1276.95 1279.39 1290.43 1344.78 1348.7 1338.64 1310.78 1289.71 1278.07 1275.42 1383.25 1647.28 1811.66 1811.23 1646.1 1381.43 1275.4 1278.11 1289.8 1345.25 1349.66 1339.28 1310.87 1289.17 1277.06 1274.25 1389.11 1646.51 1803.81 1803.43 1645.43 1387.28 1274.23 1277.09 1289.26 1345.61 1350.41 1339.72 1310.86 1288.73 1276.29 1273.37 1393.44 1646.18 1798.35 1798.01 1645.17 1391.63 1273.35 1276.32 1288.81 1345.89 1350.98 1340.04 1310.79 1288.32 1275.67 1272.67 1396.52 1646.1 1794.74 1794.44 1645.17 1394.73 1272.65 1275.7 1288.4 1346.1 1351.42 1340.22 1310.65 1287.96 1275.16 1272.1 1398.62 1646.15 1792.52 1792.24 1645.29 1396.86 1272.09 1275.19 1288.03 1346.25 1351.73 1340.29 1310.45 1287.62 1274.76 1271.65 1399.99 1646.29 1791.33 1791.08 1645.48 1398.25 1271.64 1274.79 1287.7 1346.34 1351.92 1340.24 1310.2 1287.31 1274.45 1271.3 1400.78 1646.5 1791 1790.76 1645.72 1399.04 1271.28 1274.47 1287.39 1346.37 1351.99 1340.08 1309.9 1287.03 1274.22 1271.04 1401.09 1646.86 1791.43 1791.17 1646.04 1399.32 1271.03 1274.25 1287.11 1346.32 1351.95 1339.82 1309.55 1286.78 1274.08 1270.87 1401 1647.42 1792.64 1792.39 1646.6 1399.22 1270.86 1274.1 1286.85 1346.21 1351.79 1339.46 1309.17 1286.57 1274.03 1270.77 1400.29 1648.02 1794.67 1794.43 1647.24 1398.51 1270.78 1274.04 1286.62 1346.04 1351.53 1338.99 1308.73 1286.38 1274.07 1270.79 1398.82 1648.69 1797.7 1797.49 1647.93 1397 1270.79 1274.1 1286.44 1345.81 1351.15 1338.39 1308.24 1286.25 1274.26 1270.95 1396.31 1649.44 1802.07 1801.88 1648.7 1394.45 1270.95 1274.28 1286.32 1345.52 1350.64 1337.64 1307.69 1286.19 1274.64 1271.32 1392.45 1650.37 1808.27 1808.12 1649.65 1390.5 1271.31 1274.65 1286.27 1345.16 1349.98 1336.75 1307.06 1286.19 1275.26 1272.1 1386.94 1651.69 1817 1816.93 1651 1384.82 1271.95 1275.26 1286.32 1344.74 1349.18 1335.77 1306.46 1286.32 1276.01 1272.92 1379.92 1653.9 1829.32 1829.35 1653.26 1377.41 1273.01 1276.11 1286.45 1344.25 1348.26 1334.66 1305.86 1286.62 1276.99 1273.99 1369.4 1655.29 1846.38 1846.47 1657.29 1369.89 1274.39 1277.23 1286.77 1343.76 1347.2 1333.16 1305.1 1287.17 1278.62 1275.91 1369.81 1664.95 1869.4 1869.36 1664.15 1366.76 1275.91 1278.79 1287.38 1343.2 1345.79 1330.28 1303.38 1287.23 1279.87 1276.39 1371.64 1678.69 1899.56 1899.24 1677.77 1370.18 1276.23 1279.9 1287.41 1341.53 1342.95 1319.23 1293.39 1278.65 1271.73 1265.37 1372.08 1698.64 1937.62 1936.99 1697.34 1370.58 1265.21 1271.66 1278.71 1331.21 1331.83 1255.23 1228.89 1211.24 1198.81 1184.8 1339.94 1729.28 1989.14 1988.05 1727.22 1338.94 1184.77 1198.73 1211.18 1264.54 1267.15 1204.02 1177.74 1158.68 1144.07 1132.93 1170.6 1218.74 1226.08 1217.53 1193.35 1170.84 1133.23 1144.23 1158.75 1212.02 1215.49 1092.28 1066.34 1045.35 1029.04 1017.76 1032.41 1080.99 1082.88 1072.5 1050.55 1032.18 1017.79 1029.18 1045.71 1097.18 1102.77 756.241 746.264 743.477 748.006 752.852 786.92 841.355 861.837 855.682 822.226 788.345 752.965 747.914 742.082 764.809 761.935 621.37 745.326 
</DataArray>
<DataArray type="Float64" Name="cell variable 5" format="ascii">
0.001702 0.001702 0.001702 0.001702 0.001702 0.001702 0.001702 0.001702 0.001702 0.001702 0.001702 0.001702 0.001702 0.001702 0.001702 0.001702 0.001702 0.001702 0.001702 0.001702 0.001702 0.001702 0.001702 0.001702 0.001702 0.001702 0.001702 0.001702 0.001702 0.001702 0.001702 0.001702 0.001702 0.001702 0.001702 0.001702 0.001702 0.001702 0.001702 0.001702 0.001702 0.001702 0.001702 0.001702 0.001702 0.001702 0.001702 0.001702 0.00257229 0.00238129 0.00207304 0.00177916 0.001702 0.001702 0.001702 0.001702 0.001702 0.001702 0.001702 0.001702 0.00177916 0.00207304 0.00238129 0.00257229 0.00291043 0.00264529 0.00221714 0.00180904 0.001702 0.001702 0.001702 0.001702 0.001702 0.001702 0.001702 0.001702 0.00180904 0.00221714 0.00264529 0.00291043 0.00310634 0.00279847 0.00230073 0.00182644 0.001702 0.001702 0.001702 0.001702 0.001702 0.001702 0.001702 0.001702 0.00182644 0.00230073 0.00279847 0.00310634 0.00324893 0.00290929 0.00236162 0.0018393 0.001702 0.001702 0.001702 0.001702 0.001702 0.001702 0.001702 0.001702 0.0018393 0.00236162 0.00290929 0.00324893 0.00336013 0.00299628 0.0024089 0.00184913 0.001702 0.001702 0.001702 0.001702 0.001702 0.001702 0.001702 0.001702 0.00184913 0.0024089 0.00299628 0.00336013 0.00344977 0.00306625 0.0024471 0.00185707 0.001702 0.001702 0.001702 0.001702 0.001702 0.001702 0.001702 0.001702 0.00185707 0.0024471 0.00306625 0.00344977 0.00352315 0.00312336 0.00247849 0.0018635 0.001702 0.001702 0.001702 0.001702 0.001702 0.001702 0.001702 0.001702 0.0018635 0.00247849 0.00312336 0.00352315 0.00358253 0.00316989 0.00250384 0.0018688 0.001702 0.001702 0.001702 0.001702 0.001702 0.001702 0.001702 0.001702 0.0018688 0.00250384 0.00316989 0.00358253 0.00363018 0.00320733 0.00252426 0.00187296 0.001702 0.001702 0.001702 0.001702 0.001702 0.001702 0.001702 0.001702 0.00187296 0.00252426 0.00320733 0.00363018 0.00366725 0.00323608 0.00253977 0.00187636 0.001702 0.001702 0.001702 0.001702 0.001702 0.001702 0.001702 0.001702 0.00187636 0.00253977 0.00323608 0.00366725 0.00369448 0.00325726 0.00255149 0.00187863 0.001702 0.001702 0.001702 0.001702 0.001702 0.001702 0.001702 0.001702 0.00187863 0.00255149 0.00325726 0.00369448 0.00371264 0.00327125 0.00255906 0.00188052 0.001702 0.001702 0.001702 0.001702 0.001702 0.001702 0.001702 0.001702 0.00188052 0.00255906 0.00327125 0.00371264 0.00372134 0.00327844 0.00256284 0.00188128 0.001702 0.001702 0.001702 0.001702 0.001702 0.001702 0.001702 0.001702 0.00188128 0.00256284 0.00327844 0.00372134 0.00372134 0.00327844 0.00256284 0.00188128 0.001702 0.001702 0.001702 0.001702 0.001702 0.001702 0.001702 0.001702 0.00188128 0.00256284 0.00327844 0.00372134 0.00371264 0.00327125 0.00255906 0.00188052 0.001702 0.001702 0.001702 0.001702 0.001702 0.001702 0.001702 0.001702 0.00188052 0.00255906 0.00327125 0.00371264 0.00369448 0.00325726 0.00255149 0.00187863 0.001702 0.001702 0.001702 0.001702 0.001702 0.001702 0.001702 0.001702 0.00187863 0.00255149 0.00325726 0.00369448 0.00366725 0.00323608 0.00253977 0.00187636 0.001702 0.001702 0.001702 0.001702 0.001702 0.001702 0.001702 0.001702 0.00187636 0.00253977 0.00323608 0.00366725 0.00363018 0.00320733 0.00252426 0.00187296 0.001702 0.001702 0.001702 0.001702 0.001702 0.001702 0.001702 0.001702 0.00187296 0.00252426 0.00320733 0.00363018 0.00358253 0.00316989 0.00250384 0.0018688 0.001702 0.001702 0.001702 0.001702 0.001702 0.001702 0.001702 0.001702 0.0018688 0.00250384 0.00316989 0.00358253 0.00352315 0.00312336 0.00247849 0.0018635 0.001702 0.001702 0.001702 0.001702 0.001702 0.001702 0.001702 0.001702 0.0018635 0.00247849 0.00312336 0.00352315 0.00344977 0.00306625 0.0024471 0.00185707 0.001702 0.001702 0.001702 0.001702 0.001702 0.001702 0.001702 0.001702 0.00185707 0.0024471 0.00306625 0.00344977 0.00336013 0.00299628 0.0024089 0.00184913 0.001702 0.001702 0.001702 0.001702 0.001702 0.001702 0.001702 0.001702 0.00184913 0.0024089 0.00299628 0.00336013 0.00324893 0.00290929 0.00236162 0.0018393 0.001702 0.001702 0.001702 0.001702 0.001702 0.001702 0.001702 0.001702 0.0018393 0.00236162 0.00290929 0.00324893 0.00310634 0.00279847 0.00230073 0.00182644 0.001702 0.001702 0.001702 0.001702 0.001702 0.001702 0.001702 0.001702 0.00182644 0.00230073 0.00279847 0.00310634 0.00291043 0.00264529 0.00221714 0.00180904 0.001702 0.001702 0.001702 0.001702 0.001702 0.001702 0.001702 0.001702 0.00180904 0.00221714 0.00264529 0.00291043 0.00257229 0.00238129 0.00207304 0.00177916 0.001702 0.001702 0.001702 0.001702 0.001702 0.001702 0.001702 0.001702 0.00177916 0.00207304 0.00238129 0.00257229 0.001702 0.001702 0.001702 0.001702 0.001702 0.001702 0.001702 0.001702 0.001702 0.001702 0.001702 0.001702 0.001702 0.001702 0.001702 0.001702 0.001702 0.001702 0.001702 0.001702 0.001702 0.001702 0.001702 0.001702 0.001702 0.001702 0.001702 0.001702 0.001702 0.001702 0.001702 0.001702 0.001702 0.001702 0.001702 0.001702 0.001702 0.001702 0.001702 0.001702 0.001702 0.001702 0.001702 0.001702 0.001702 0.001702 0.001702 0.001702 0.001702 0.001702 
</DataArray>
<DataArray type="Float64" Name="cell variable 6" format="ascii">
1 1 1 1 1 1 1 1 1 1 1 1 1 1 1 1 1 1 1 1 1 1 1 1 1 1 1 1 1 1 1 1 1 1 1 1 1 1 1 1 1 1 1 1 1 1 1 1 1 1 1 1 1 1 1 1 1 1 1 1 1 1 1 1 1 1 1 1 1 1 1 1 1 1 1 1 1 1 1 1 1 1 1 1 1 1 1 1 1 1 1 1 1 1 1 1 1 1 1 1 1 1 1 1 1 1 1 1 1 1 1 1 1 1 1 1 1 1 1 1 1 1 1 1 1 1 1 1 1 1 1 1 1 1 1 1 1 1 1 1 1 1 1 1 1 1 1 1 1 1 1 1 1 1 1 1 1 1 1 1 1 1 1 1 1 1 1 1 1 1 1 1 1 1 1 1 1 1 1 1 1 1 1 1 1 1 1 1 1 1 1 1 1 1 1 1 1 1 1 1 1 1 1 1 1 1 1 1 1 1 1 1 1 1 1 1 1 1 1 1 1 1 1 1 1 1 1 1 1 1 1 1 1 1 1 1 1 1 1 1 1 1 1 1 1 1 1 1 1 1 1 1 1 1 1 1 1 1 1 1 1 1 1 1 1 1 1 1 1 1 1 1 1 1 1 1 1 1 1 1 1 1 1 1 1 1 1 1 1 1 1 1 1 1 1 1 1 1 1 1 1 1 1 1 1 1 1 1 1 1 1 1 1 1 1 1 1 1 1 1 1 1 1 1 1 1 1 1 1 1 1 1 1 1 1 1 1 1 1 1 1 1 1 1 1 1 1 1 1 1 1 1 1 1 1 1 1 1 1 1 1 1 1 1 1 1 1 1 1 1 1 1 1 1 1 1 1 1 1 1 1 1 1 1 1 1 1 1 1 1 1 1 1 1 1 1 1 1 1 1 1 1 1 1 1 1 1 1 1 1 1 1 1 1 1 1 1 1 1 1 1 1 1 1 1 1 1 1 1 1 1 1 1 1 1 1 1 1 1 1 1 1 1 1 1 1 1 1 1 1 1 1 1 1 1 1 1 1 1 1 1 1 1 1 1 1 1 1 1 1 1 1 1 1 1 1 1 1 1 1 1 1 1 1 1 1 1 1 1 1 1 1 1 1 1 1 1 1 1 1 1 1 1 1 1 1 1 1 1 1 1 1 1 1 
</DataArray>
<DataArray type="Float64" Name="cell variable 7" format="ascii">
0 0 0 0 0 0 0 0 0 0 0 0 0 0 0 0 0 0 0 0 0 0 0 0 0 0 0 0 0 0 0 0 0 0 0 0 0 0 0 0 0 0 0 0 0 0 0 0 0 0 0 0 0 0 0 0 0 0 0 0 0 0 0 0 0 0 0 0 0 0 0 0 0 0 0 0 0 0 0 0 0 0 0 0 0 0 0 0 0 0 0 0 0 0 0 0 0 0 0 0 0 0 0 0 0 0 0 0 0 0 0 0 0 0 0 0 0 0 0 0 0 0 0 0 0 0 0 0 0 0 0 0 0 0 0 0 0 0 0 0 0 0 0 0 0 0 0 0 0 0 0 0 0 0 0 0 0 0 0 0 0 0 0 0 0 0 0 0 0 0 0 0 0 0 0 0 0 0 0 0 0 0 0 0 0 0 0 0 0 0 0 0 0 0 0 0 0 0 0 0 0 0 0 0 0 0 0 0 0 0 0 0 0 0 0 0 0 0 0 0 0 0 0 0 0 0 0 0 0 0 0 0 0 0 0 0 0 0 0 0 0 0 0 0 0 0 0 0 0 0 0 0 0 0 0 0 0 0 0 0 0 0 0 0 0 0 0 0 0 0 0 0 0 0 0 0 0 0 0 0 0 0 0 0 0 0 0 0 0 0 0 0 0 0 0 0 0 0 0 0 0 0 0 0 0 0 0 0 0 0 0 0 0 0 0 0 0 0 0 0 0 0 0 0 0 0 0 0 0 0 0 0 0 0 0 0 0 0 0 0 0 0 0 0 0 0 0 0 0 0 0 0 0 0 0 0 0 0 0 0 0 0 0 0 0 0 0 0 0 0 0 0 0 0 0 0 0 0 0 0 0 0 0 0 0 0 0 0 0 0 0 0 0 0 0 0 0 0 0 0 0 0 0 0 0 0 0 0 0 0 0 0 0 0 0 0 0 0 0 0 0 0 0 0 0 0 0 0 0 0 0 0 0 0 0 0 0 0 0 0 0 0 0 0 0 0 0 0 0 0 0 0 0 0 0 0 0 0 0 0 0 0 0 0 0 0 0 0 0 0 0 0 0 0 0 0 0 0 0 0 0 0 0 0 0 0 0 0 0 0 0 0 0 0 0 0 0 0 0 0 0 0 0 0 0 0 0 0 0 0 0 0 1 1 
</DataArray>
<DataArray type="Float64" Name="cell variable 8" format="ascii">
11.25 33.75 56.25 78.75 101.25 123.75 146.25 168.75 191.25 213.75 236.25 258.75 281.25 303.75 326.25 348.75 11.25 33.75 56.25 78.75 101.25 123.75 146.25 168.75 191.25 213.75 236.25 258.75 281.25 303.75 326.25 348.75 11.25 33.75 56.25 78.75 101.25 123.75 146.25 168.75 191.25 213.75 236.25 258.75 281.25 303.75 326.25 348.75 11.25 33.75 56.25 78.75 101.25 123.75 146.25 168.75 191.25 213.75 236.25 258.75 281.25 303.75 326.25 348.75 11.25 33.75 56.25 78.75 101.25 123.75 146.25 168.75 191.25 213.75 236.25 258.75 281.25 303.75 326.25 348.75 11.25 33.75 56.25 78.75 101.25 123.75 146.25 168.75 191.25 213.75 236.25 258.75 281.25 303.75 326.25 348.75 11.25 33.75 56.25 78.75 101.25 123.75 146.25 168.75 191.25 213.75 236.25 258.75 281.25 303.75 326.25 348.75 11.25 33.75 56.25 78.75 101.25 123.75 146.25 168.75 191.25 213.75 236.25 258.75 281.25 303.75 326.25 348.75 11.25 33.75 56.25 78.75 101.25 123.75 146.25 168.75 191.25 213.75 236.25 258.75 281.25 303.75 326.25 348.75 11.25 33.75 56.25 78.75 101.25 123.75 146.25 168.75 191.25 213.75 236.25 258.75 281.25 303.75 326.25 348.75 11.25 33.75 56.25 78.75 101.25 123.75 146.25 168.75 191.25 213.75 236.25 258.75 281.25 303.75 326.25 348.75 11.25 33.75 56.25 78.75 101.25 123.75 146.25 168.75 191.25 213.75 236.25 258.75 281.25 303.75 326.25 348.75 11.25 33.75 56.25 78.75 101.25 123.75 146.25 168.75 191.25 213.75 236.25 258.75 281.25 303.75 326.25 348.75 11.25 33.75 56.25 78.75 101.25 123.75 146.25 168.75 191.25 213.75 236.25 258.75 281.25 303.75 326.25 348.75 11.25 33.75 56.25 78.75 101.25 123.75 146.25 168.75 191.25 213.75 236.25 258.75 281.25 303.75 326.25 348.75 11.25 33.75 56.25 78.75 101.25 123.75 146.25 168.75 191.25 213.75 236.25 258.75 281.25 303.75 326.25 348.75 11.25 33.75 56.25 78.75 101.25 123.75 146.25 168.75 191.25 213.75 236.25 258.75 281.25 303.75 326.25 348.75 11.25 33.75 56.25 78.75 101.25 123.75 146.25 168.75 191.25 213.75 236.25 258.75 281.25 303.75 326.25 348.75 11.25 33.75 56.25 78.75 101.25 123.75 146.25 168.75 191.25 213.75 236.25 258.75 281.25 303.75 326.25 348.75 11.25 33.75 56.25 78.75 101.25 123.75 146.25 168.75 191.25 213.75 236.25 258.75 281.25 303.75 326.25 348.75 11.25 33.75 56.25 78.75 101.25 123.75 146.25 168.75 191.25 213.75 236.25 258.75 281.25 303.75 326.25 348.75 11.25 33.75 56.25 78.75 101.25 123.75 146.25 168.75 191.25 213.75 236.25 258.75 281.25 303.75 326.25 348.75 11.25 33.75 56.25 78.75 101.25 123.75 146.25 168.75 191.25 213.75 236.25 258.75 281.25 303.75 326.25 348.75 11.25 33.75 56.25 78.75 101.25 123.75 146.25 168.75 191.25 213.75 236.25 258.75 281.25 303.75 326.25 348.75 11.25 33.75 56.25 78.75 101.25 123.75 146.25 168.75 191.25 213.75 236.25 258.75 281.25 303.75 326.25 348.75 11.25 33.75 56.25 78.75 101.25 123.75 146.25 168.75 191.25 213.75 236.25 258.75 281.25 303.75 326.25 348.75 11.25 33.75 56.25 78.75 101.25 123.75 146.25 168.75 191.25 213.75 236.25 258.75 281.25 303.75 326.25 348.75 11.25 33.75 56.25 78.75 101.25 123.75 146.25 168.75 191.25 213.75 236.25 258.75 281.25 303.75 326.25 348.75 11.25 33.75 56.25 78.75 101.25 123.75 146.25 168.75 191.25 213.75 236.25 258.75 281.25 303.75 326.25 348.75 11.25 33.75 56.25 78.75 101.25 123.75 146.25 168.75 191.25 213.75 236.25 258.75 281.25 303.75 326.25 348.75 11.25 33.75 56.25 78.75 101.25 123.75 146.25 168.75 191.25 213.75 236.25 258.75 281.25 303.75 326.25 348.75 11.25 33.75 56.25 78.75 101.25 123.75 146.25 168.75 191.25 213.75 236.25 258.75 281.25 303.75 326.25 348.75 0 0 
</DataArray>
</CellData>
</Piece>
</UnstructuredGrid>
</VTKFile>
