<VTKFile type="UnstructuredGrid" version="0.1">
<UnstructuredGrid>
<Piece  NumberOfPoints="    2080" NumberOfCells="     514">
<Points>
<DataArray type="Float64" NumberOfComponents="3" format="ascii">
-73.3204 976.692 1.58956
-69.4524 980.021 27.3489
-55.4374 955.486 29.4768
-59.6598 951.891 1.60793
-68.5835 980.758 30.1023
-57.466 990.175 51.9422
-42.5111 966.417 55.8176
-54.5685 956.224 32.2302
-55.8542 991.531 54.0473
-39.1347 1005.55 68.6204
-22.8109 982.938 73.6536
-40.8993 967.773 57.9228
-37.0239 1007.32 69.7574
-17.2856 1023.82 74.8491
0.665755 1002.52 80.2954
-20.7002 984.704 74.7907
-15.0026 1025.72 74.8468
4.7043 1042.23 69.7051
24.2711 1022.29 74.7573
2.94877 1004.43 80.2931
6.80696 1044.01 68.5669
23.4326 1058.12 54.0045
44.3661 1039.39 57.9028
26.3738 1024.06 73.6191
25.0326 1059.5 51.9019
36.0659 1069.1 30.1084
57.8717 1051.23 32.2045
45.9661 1040.76 55.8001
36.9261 1069.86 27.3552
40.7796 1073.3 1.59656
62.8762 1055.72 1.57929
58.7319 1051.99 29.4513
40.7788 1073.3 -1.38627
36.9099 1069.9 -27.1487
58.7183 1052.03 -29.2711
62.8753 1055.72 -1.40353
36.0487 1069.15 -29.9015
25.0099 1059.55 -51.7008
45.9556 1040.82 -55.6045
57.8571 1051.27 -32.0239
23.4106 1058.18 -53.8033
6.79342 1044.05 -68.366
26.371 1024.12 -73.426
44.3563 1039.45 -57.707
4.69168 1042.28 -69.5045
-15.0065 1025.76 -74.648
2.95706 1004.47 -80.1075
24.2692 1022.34 -74.5646
-17.2884 1023.85 -74.6509
-37.0168 1007.33 -69.5615
-20.6768 984.732 -74.611
0.67518 1002.56 -80.1103
-39.1251 1005.57 -68.4246
-55.8064 991.51 -53.8436
-40.8574 967.785 -57.7387
-22.7851 982.965 -73.474
-57.4168 990.151 -51.7372
-68.5245 980.726 -29.9008
-54.5404 956.218 -32.0093
-42.4678 966.426 -55.6323
-69.3961 979.988 -27.1457
-73.3183 976.69 -1.39225
-59.6576 951.889 -1.37389
-55.412 955.48 -29.2542
-57.8166 949.131 1.68305
-53.5942 952.727 29.5519
-34.033 927.416 30.155
-38.3605 923.75 1.67981
-40.6217 963.693 56.0296
-20.7848 938.568 57.1475
-33.1178 928.189 33.0452
-52.679 953.5 32.4421
-20.8392 980.28 73.9692
-0.591801 955.421 75.445
-19.0906 939.989 59.3562
-38.9275 965.115 58.2384
2.74401 999.945 80.6675
23.482 975.4 82.2887
1.62543 957.27 76.6385
-18.6219 982.129 75.1627
26.465 1019.8 75.1307
47.6875 995.586 76.644
25.8805 977.399 82.2876
5.1426 1001.94 80.6665
46.6621 1036.99 58.2219
68.1921 1013.15 59.3922
49.8923 997.448 75.4516
28.6698 1021.66 73.9382
60.2389 1048.91 32.4192
81.833 1025.44 33.0326
69.8633 1014.61 57.1851
48.3333 1038.44 56.0148
65.2781 1053.45 1.65343
86.8783 1030.11 1.64121
82.7278 1026.25 30.1389
61.1338 1049.72 29.5254
61.1202 1049.75 -29.3481
82.7139 1026.27 -29.9779
86.8775 1030.11 -1.49276
65.2773 1053.45 -1.48055
48.3235 1038.51 -55.8206
69.8612 1014.66 -56.9912
81.8186 1025.47 -32.8697
60.225 1048.95 -32.24
28.668 1021.72 -73.7457
49.8949 997.506 -75.2657
68.1911 1013.21 -59.1973
46.6533 1037.05 -58.0267
5.15172 1001.99 -80.4818
25.8909 977.45 -82.111
47.6908 995.643 -76.4589
26.4639 1019.86 -74.9389
-18.5978 982.158 -74.9844
1.64598 957.305 -76.4694
23.4935 975.449 -82.1129
2.75426 999.99 -80.4837
-38.8861 965.128 -58.0559
-19.0622 940.01 -59.1922
-0.569992 955.455 -75.2762
-20.8137 980.308 -73.7912
-52.6532 953.496 -32.222
-33.1107 928.185 -32.8368
-20.7567 938.586 -56.9812
-40.5806 963.705 -55.8449
-53.5702 952.722 -29.3287
-57.8158 949.131 -1.44835
-38.3597 923.75 -1.45159
-34.0278 927.411 -29.9435
-36.1391 920.973 1.69884
-31.8116 924.639 30.1741
-11.2416 899.897 30.2744
-15.5937 896.216 1.69141
-30.8832 925.42 33.1006
-18.5502 935.799 57.2029
2.09136 911.086 57.3895
-10.3132 900.679 33.201
-16.8312 937.234 59.4396
1.6676 952.665 75.5284
22.4377 927.964 75.7603
3.8103 912.521 59.6262
3.91856 954.53 76.737
25.7751 972.66 82.3872
46.7162 947.932 82.6153
24.6886 929.828 76.9689
28.2105 974.676 82.3857
50.0175 992.862 76.7421
71.132 968.085 76.9324
49.1517 949.948 82.6137
52.2468 994.746 75.535
70.5466 1010.45 59.4757
91.6281 985.834 59.6049
73.3613 969.969 75.7253
72.2211 1011.94 57.2425
84.1908 1022.78 33.09
105.088 998.541 33.1867
93.3027 987.323 57.3717
85.0816 1023.61 30.159
89.2321 1027.47 1.66134
110.07 1003.38 1.66448
105.978 999.374 30.2557
89.2316 1027.47 -1.5138
85.0679 1023.63 -29.9989
105.971 999.392 -30.0967
110.07 1003.38 -1.51065
84.1772 1022.8 -32.9282
72.2198 1011.99 -57.0496
93.3011 987.366 -57.1982
105.081 998.562 -33.0259
70.5457 1010.51 -59.282
52.2495 994.803 -75.3504
73.3597 970.022 -75.5589
91.627 985.879 -59.4305
50.0206 992.919 -76.5584
28.2208 974.726 -82.2105
49.1562 949.996 -82.4553
71.1308 968.138 -76.7669
25.7861 972.71 -82.2128
3.93864 954.566 -76.5693
24.7014 929.865 -76.8178
46.7215 947.979 -82.4577
1.68845 952.7 -75.3613
-16.8037 937.255 -59.2773
3.8286 912.542 -59.4828
22.4512 927.999 -75.6098
-18.5235 935.818 -57.0385
-30.8776 925.417 -32.894
-10.3165 900.674 -33.0115
2.10882 911.105 -57.244
-31.8071 924.634 -29.964
-36.1391 920.973 -1.4721
-15.5937 896.216 -1.47953
-11.2461 899.891 -30.0815
-13.3261 893.477 1.6955
-8.97397 897.159 30.2785
11.3388 872.551 30.2913
6.90077 868.945 1.68609
-8.03288 897.935 33.2128
4.37166 908.342 57.4013
24.91 883.529 57.4172
12.2799 873.327 33.2256
6.11202 909.766 59.6404
24.7394 925.208 75.7745
45.5773 900.113 75.7649
26.6504 884.953 59.6563
27.0161 927.056 76.9808
49.0437 945.159 82.6272
70.1966 919.749 82.5778
47.854 901.961 76.9713
51.5061 947.155 82.6214
73.4864 965.292 76.9401
94.9527 939.564 76.8756
72.659 921.744 82.572
75.7448 967.16 75.7244
94.0116 983.026 59.604
115.937 956.805 59.5263
97.2111 941.432 75.66
95.7052 984.503 57.3633
107.49 995.72 33.1783
129.908 969.037 33.1432
117.63 958.282 57.2856
108.388 996.547 30.2526
112.48 1000.56 1.66138
135.086 973.725 1.66069
130.806 969.863 30.2175
112.479 1000.56 -1.5075
108.381 996.566 -30.0935
130.798 969.891 -30.0666
135.086 973.726 -1.5082
107.483 995.741 -33.019
95.7035 984.546 -57.1912
117.62 958.328 -57.1384
129.9 969.067 -32.9921
94.0099 983.07 -59.432
75.7426 967.213 -75.5605
97.2051 941.483 -75.5181
115.927 956.852 -59.3792
73.4847 965.345 -76.7768
51.5101 947.203 -82.4652
72.6591 921.791 -82.4365
94.9472 939.615 -76.7344
49.0484 945.207 -82.4716
27.0282 927.092 -76.8318
47.8613 901.997 -76.8425
70.1974 919.795 -82.4429
24.7521 925.243 -75.6262
6.12958 909.786 -59.4992
26.6628 884.973 -59.5357
45.5852 900.148 -75.6369
4.38836 908.36 -57.2579
-8.03698 897.929 -33.0254
12.2722 873.32 -33.058
24.9216 883.547 -57.2944
-8.97882 897.152 -30.0876
-13.3264 893.477 -1.48562
6.90042 868.944 -1.49503
11.3304 872.543 -30.1201
9.12506 866.199 1.68588
13.5631 869.805 30.2911
33.3723 844.904 30.2862
28.8568 841.388 1.67717
14.5208 870.564 33.2263
27.151 880.766 57.4179
47.1671 855.618 57.4124
34.3301 845.663 33.2214
28.9198 882.16 59.6564
47.8467 897.321 75.765
68.1461 871.825 75.7557
48.9359 857.012 59.6509
50.1572 899.132 76.9692
72.4999 916.919 82.5756
93.1139 891.027 82.5619
70.4567 873.635 76.9599
74.9977 918.875 82.5677
97.2914 936.695 76.8713
118.233 910.385 76.8509
95.6117 892.983 82.554
99.5897 938.514 75.6559
118.315 953.887 59.5222
139.64 927.115 59.5187
120.531 912.204 75.6355
120.057 955.312 57.2831
132.335 966.067 33.1407
154.04 938.852 33.132
141.382 928.54 57.2796
133.267 966.86 30.2163
137.547 970.722 1.65942
159.394 943.346 1.64914
154.972 939.645 30.2076
137.546 970.723 -1.50834
133.258 966.889 -30.0668
154.956 939.678 -30.0786
159.393 943.347 -1.51862
132.326 966.098 -32.9914
120.046 955.359 -57.1376
141.367 928.593 -57.1461
154.024 938.887 -33.0032
118.305 953.935 -59.3771
99.5832 938.565 -75.516
120.523 912.256 -75.5086
139.625 927.169 -59.3856
97.2856 936.745 -76.7321
74.9975 918.922 -82.4342
95.6102 893.03 -82.4355
118.226 910.437 -76.7247
72.5003 916.965 -82.4428
50.1642 899.168 -76.8424
70.4614 873.672 -76.8503
93.113 891.074 -82.4442
47.8542 897.356 -75.6391
28.9318 882.181 -59.5379
48.9453 857.033 -59.5507
68.1514 871.86 -75.647
27.1622 880.785 -57.2973
14.5128 870.557 -33.0608
34.3203 845.655 -33.0737
47.1757 855.636 -57.3101
13.5545 869.797 -30.122
9.12456 866.198 -1.49688
28.8563 841.387 -1.5056
33.362 844.895 -30.1349
31.0223 838.606 1.67644
35.5378 842.123 30.2855
54.782 816.868 30.2801
50.1945 813.448 1.66831
36.511 842.863 33.2211
49.3481 852.818 57.412
68.7907 827.293 57.411
55.7552 817.607 33.2157
51.1442 854.177 59.6508
70.3543 868.989 75.7556
90.0822 843.078 75.7614
70.5868 828.653 59.6498
72.6988 870.756 76.9598
95.356 888.148 82.5618
115.414 861.793 82.5711
92.4267 844.845 76.9655
97.8903 890.056 82.5533
120.512 907.458 76.8502
140.911 880.64 76.8535
117.948 863.701 82.5626
122.848 909.227 75.6353
141.957 924.138 59.5186
162.697 896.867 59.5234
143.248 882.409 75.6386
143.738 925.514 57.2799
156.396 935.825 33.1323
177.45 908.15 33.1238
164.479 898.243 57.2848
157.355 936.586 30.2067
161.777 940.287 1.64823
182.948 912.454 1.63553
178.408 908.911 30.1982
161.776 940.289 -1.52031
157.338 936.619 -30.0803
178.387 908.942 -30.0964
182.947 912.455 -1.53301
156.379 935.861 -33.0054
143.722 925.567 -57.1484
164.463 898.299 -57.1651
177.428 908.184 -33.0215
141.942 924.192 -59.3867
122.84 909.279 -75.5098
143.239 882.464 -75.5258
162.682 896.924 -59.4035
120.504 907.51 -76.7255
97.8887 890.104 -82.4363
117.946 863.75 -82.4597
140.904 880.694 -76.7415
95.3551 888.195 -82.4458
72.7034 870.793 -76.852
92.4309 844.882 -76.8735
115.413 861.841 -82.4692
70.3595 869.025 -75.6489
51.1534 854.197 -59.5525
70.5952 828.673 -59.5683
90.0869 843.114 -75.6704
49.3565 852.836 -57.3117
36.5011 842.855 -33.0754
55.7444 817.599 -33.0865
68.7983 827.311 -57.3275
35.5274 842.114 -30.136
31.0217 838.606 -1.50676
50.1939 813.447 -1.5149
54.7707 816.858 -30.1472
52.2961 810.626 1.6676
56.8836 814.046 30.2793
75.5391 788.417 30.2739
70.8819 785.098 1.65992
57.8718 814.765 33.2155
70.9073 824.451 57.4108
89.7588 798.538 57.4113
76.5273 789.136 33.2101
72.7305 825.773 59.6504
92.2259 840.198 75.762
111.367 813.872 75.7711
91.5819 799.86 59.6509
94.6051 841.917 76.9666
117.592 858.866 82.5722
137.073 832.063 82.5854
113.746 815.592 76.9758
120.164 860.722 82.5634
143.127 877.661 76.8543
162.955 850.368 76.8612
139.645 833.919 82.5766
145.501 879.378 75.6391
164.951 893.836 59.5239
185.098 866.089 59.5239
165.329 852.085 75.646
166.766 895.165 57.285
179.737 905.071 33.124
200.152 876.949 33.1158
186.914 867.418 57.285
180.718 905.802 30.1972
185.258 909.345 1.6346
205.775 881.077 1.6221
201.133 877.68 30.189
185.257 909.347 -1.53485
180.696 905.834 -30.0983
201.109 877.711 -30.1141
205.774 881.079 -1.54736
179.715 905.106 -33.0239
166.75 895.221 -57.1674
186.899 867.475 -57.1831
200.128 876.983 -33.0397
164.935 893.893 -59.4055
145.492 879.432 -75.5278
165.321 852.141 -75.5502
185.084 866.147 -59.4212
143.12 877.715 -76.744
120.162 860.77 -82.4622
139.644 833.968 -82.4907
162.949 850.423 -76.7663
117.591 858.914 -82.472
94.6093 841.955 -76.8763
113.751 815.63 -76.9011
137.072 832.111 -82.5006
92.2306 840.234 -75.6727
72.7388 825.793 -59.5706
91.5904 799.88 -59.587
111.372 813.909 -75.6975
70.9148 824.469 -57.3291
57.8609 814.757 -33.0881
76.516 789.127 -33.0982
89.7664 798.555 -57.3454
56.8722 814.037 -30.1482
52.2955 810.626 -1.51596
70.8813 785.097 -1.52364
75.5274 788.407 -30.1584
72.9176 782.235 1.65923
77.5747 785.554 30.2732
95.6303 759.546 30.2677
90.9044 756.332 1.65188
78.5777 786.251 33.2099
91.8092 795.653 57.4111
110.06 769.351 57.4106
96.6333 760.243 33.2043
93.6595 796.935 59.6514
113.444 810.948 75.7717
131.986 784.214 75.7789
111.91 770.633 59.651
115.859 812.617 76.9769
139.185 829.088 82.5866
158.07 801.851 82.5973
134.4 785.882 76.9841
141.795 830.889 82.5776
165.106 847.338 76.8622
184.338 819.592 76.8676
160.68 803.652 82.5882
167.516 849.002 75.6463
187.286 863.006 59.5242
206.824 834.801 59.5214
186.748 821.256 75.6517
189.132 864.289 57.2848
202.371 873.821 33.1156
222.147 845.264 33.1067
208.67 836.085 57.282
203.371 874.524 30.188
208.013 877.921 1.62113
227.879 849.229 1.6091
223.147 845.967 30.1791
208.012 877.922 -1.54909
203.348 874.554 -30.1159
223.123 845.996 -30.1305
227.878 849.23 -1.56112
202.346 873.854 -33.0418
189.117 864.346 -57.1851
208.657 836.141 -57.1986
222.122 845.296 -33.0564
187.272 863.064 -59.4232
167.509 849.058 -75.5522
186.741 821.311 -75.5736
206.812 834.859 -59.4367
165.1 847.393 -76.769
141.795 830.938 -82.4934
160.68 803.702 -82.5197
184.332 819.647 -76.7904
139.185 829.136 -82.5035
115.863 812.655 -76.904
134.405 785.92 -76.9267
158.07 801.9 -82.5298
113.449 810.984 -75.6998
93.668 796.955 -59.5893
111.919 770.653 -59.6043
131.991 784.25 -75.7225
91.8169 795.67 -57.3469
78.5665 786.242 -33.0998
96.6218 760.234 -33.1091
110.068 769.368 -57.362
77.563 785.544 -30.1594
72.917 782.234 -1.52463
90.9038 756.331 -1.53198
95.6183 759.536 -30.1688
92.873 753.427 1.65119
97.5989 756.641 30.267
115.047 730.258 30.2613
110.253 727.151 1.64417
98.6166 757.316 33.204
112.043 766.424 57.4103
129.684 739.738 57.4086
116.065 730.933 33.1983
113.92 767.665 59.6513
133.996 781.245 75.7792
151.927 754.112 75.7832
131.562 740.979 59.6496
136.446 782.861 76.9849
160.115 798.83 82.5981
178.387 771.174 82.6046
154.376 755.728 76.9889
162.764 800.573 82.5889
186.421 816.513 76.8682
205.036 788.331 76.8705
181.035 772.917 82.5954
188.867 818.123 75.6517
208.943 831.668 59.5214
227.854 803.023 59.5167
207.481 789.94 75.6539
210.819 832.907 57.2815
224.295 842.086 33.1062
243.423 813.103 33.0971
229.73 804.262 57.2768
225.313 842.763 30.1781
230.046 846.025 1.6081
249.255 816.914 1.59677
244.441 813.78 30.169
230.044 846.026 -1.56269
225.289 842.792 -30.1321
244.417 813.807 -30.1452
249.254 816.916 -1.57402
224.27 842.118 -33.0581
210.806 832.964 -57.2004
229.719 804.317 -57.212
243.398 813.133 -33.0712
208.931 831.726 -59.4385
188.861 818.178 -75.5754
207.477 789.995 -75.5936
227.844 803.079 -59.4502
186.416 816.569 -76.7928
162.764 800.623 -82.5221
181.037 772.966 -82.5441
205.032 788.385 -76.811
160.116 798.879 -82.5323
136.451 782.899 -76.9292
154.382 755.765 -76.9484
178.389 771.222 -82.5544
134.002 781.282 -75.7245
113.929 767.684 -59.6064
131.571 740.998 -59.6197
151.933 754.147 -75.7437
112.051 766.441 -57.3633
98.6051 757.307 -33.1105
116.053 730.923 -33.1192
129.693 739.754 -57.3766
97.5869 756.631 -30.1697
92.8724 753.426 -1.53291
110.253 727.15 -1.53994
115.035 730.248 -30.1784
112.154 724.205 1.64349
116.948 727.312 30.2606
133.781 700.559 30.2549
128.92 697.562 1.63687
117.98 727.964 33.1979
131.6 736.769 57.4082
148.623 709.706 57.4053
134.814 701.211 33.1922
133.504 737.968 59.6497
153.869 751.101 75.7832
171.177 723.578 75.7844
150.527 710.905 59.6467
156.353 752.662 76.9893
180.364 768.108 82.605
198.008 740.046 82.6079
173.661 725.139 76.9905
183.05 769.792 82.5957
207.05 785.206 76.8708
225.03 756.604 76.8704
200.694 741.73 82.5986
209.531 786.76 75.6537
229.903 799.843 59.5164
248.169 770.774 59.5106
227.511 758.158 75.6533
231.807 801.037 57.2761
245.501 809.878 33.0965
263.97 780.477 33.0876
250.072 771.968 57.2703
246.534 810.529 30.168
251.349 813.664 1.59577
269.893 784.141 1.58537
265.004 781.128 30.1591
251.347 813.665 -1.57541
246.51 810.556 -30.1466
264.98 781.153 -30.1582
269.892 784.142 -1.58582
245.476 809.907 -33.0727
231.796 801.091 -57.2135
250.064 772.02 -57.2237
263.946 780.504 -33.0843
229.893 799.899 -59.4518
209.526 786.814 -75.5951
227.508 758.211 -75.6102
248.162 770.827 -59.462
207.046 785.26 -76.813
183.051 769.841 -82.5462
200.696 741.777 -82.5641
225.028 756.656 -76.8281
180.366 768.156 -82.5565
156.359 752.699 -76.9505
173.668 725.175 -76.9663
198.011 740.092 -82.5744
153.875 751.136 -75.7454
133.513 737.986 -59.6214
150.537 710.922 -59.6328
171.184 723.612 -75.7612
131.608 736.785 -57.3778
117.968 727.954 -33.1204
134.801 701.201 -33.1283
148.632 709.721 -57.3893
116.936 727.302 -30.1793
112.153 724.204 -1.54081
128.92 697.561 -1.54743
133.769 700.549 -30.1872
130.753 694.575 1.63621
135.614 697.573 30.2543
151.826 670.458 30.2486
146.899 667.572 1.63006
136.66 698.201 33.1918
150.469 706.696 57.4048
166.868 679.264 57.4009
152.872 671.086 33.1861
152.4 707.852 59.6466
173.049 720.525 75.7842
189.727 692.621 75.7833
168.798 680.419 59.6427
175.568 722.03 76.9906
199.915 736.936 82.608
216.92 708.48 82.6082
192.245 694.126 76.9896
202.638 738.56 82.5986
226.974 753.434 76.8704
244.305 724.427 76.8682
219.643 710.104 82.5987
229.488 754.931 75.6529
250.146 767.547 59.5102
267.754 738.068 59.5041
246.82 725.924 75.6507
252.076 768.697 57.2696
265.974 777.206 33.0869
283.774 747.399 33.0786
269.684 739.217 57.2635
267.023 777.832 30.1582
271.912 780.845 1.58441
289.782 750.919 1.57499
284.823 748.025 30.1499
271.911 780.846 -1.58704
266.999 777.857 -30.1594
284.8 748.047 -30.1697
289.78 750.92 -1.59646
265.95 777.233 -33.0855
252.068 768.749 -57.2249
269.678 739.267 -57.2341
283.75 747.424 -33.0958
250.139 767.601 -59.4633
229.485 754.984 -75.6115
246.818 725.974 -75.6241
267.749 738.118 -59.4725
226.971 753.486 -76.8297
202.64 738.607 -82.5657
219.646 710.149 -82.5801
244.304 724.476 -76.8423
199.918 736.982 -82.5761
175.575 722.065 -76.968
192.253 694.159 -76.9808
216.924 708.524 -82.5905
173.057 720.558 -75.7627
152.409 707.869 -59.6342
168.808 680.435 -59.6438
189.734 692.652 -75.7755
150.478 706.711 -57.3903
136.648 698.191 -33.1293
152.859 671.075 -33.1363
166.877 679.277 -57.3999
135.601 697.562 -30.1879
130.752 694.575 -1.54822
146.898 667.572 -1.55437
151.813 670.446 -30.1949
148.662 664.546 1.62944
153.589 667.432 30.2479
169.174 639.964 30.2427
164.182 637.193 1.62385
154.649 668.035 33.1856
168.645 676.213 57.4005
184.411 648.422 57.3962
170.234 640.568 33.1803
170.6 677.325 59.6424
191.529 689.526 75.783
207.566 661.254 75.7806
186.367 649.534 59.6382
194.081 690.974 76.9895
218.756 705.328 82.608
235.111 676.493 82.6063
210.118 662.702 76.9871
221.514 706.89 82.5985
246.176 721.213 76.8679
262.847 691.816 76.8645
237.869 678.055 82.5967
248.724 722.653 75.6502
269.658 734.797 59.5036
286.595 704.922 59.4974
265.394 693.257 75.6467
271.614 735.902 57.2628
285.704 744.083 33.0779
302.823 713.882 33.0702
288.551 706.027 57.2566
286.767 744.685 30.149
291.725 747.579 1.5741
308.91 717.261 1.5657
303.886 714.484 30.1413
291.724 747.58 -1.59753
286.743 744.707 -30.1707
303.863 714.504 -30.1797
308.909 717.262 -1.60593
285.68 744.108 -33.0969
271.608 735.951 -57.2352
288.547 706.073 -57.2433
302.8 713.905 -33.1058
269.653 734.847 -59.4736
248.723 722.703 -75.6252
265.395 693.303 -75.6354
286.592 704.969 -59.4817
246.176 721.262 -76.8436
221.518 706.934 -82.5815
237.874 678.096 -82.5929
262.848 691.862 -76.8539
218.76 705.372 -82.5919
194.088 691.006 -76.9822
210.126 662.732 -76.9926
235.116 676.533 -82.6033
191.537 689.558 -75.7767
170.61 677.34 -59.645
186.377 649.547 -59.6532
207.575 661.283 -75.787
168.654 676.226 -57.4008
154.636 668.025 -33.1372
170.22 640.556 -33.1435
184.42 648.433 -57.409
153.576 667.42 -30.1956
148.661 664.545 -1.55508
164.182 637.192 -1.56067
169.16 639.952 -30.2019
165.875 634.128 1.62329
170.866 636.9 30.2421
185.817 609.091 30.2373
180.763 606.435 1.61834
171.94 637.479 33.1798
186.117 645.333 57.3957
201.244 617.195 57.3914
186.891 609.67 33.175
188.098 646.4 59.6378
209.297 658.12 75.7802
224.685 629.493 75.7769
203.224 618.261 59.6336
211.881 659.509 76.9868
236.874 673.3 82.606
252.569 644.1 82.6031
227.269 630.881 76.9835
239.667 674.799 82.5964
264.645 688.56 76.8641
280.644 658.79 76.86
255.362 645.599 82.5935
267.224 689.943 75.6462
288.425 701.608 59.4969
304.68 671.354 59.491
283.223 660.172 75.642
290.405 702.669 57.2559
304.677 710.524 33.0695
321.106 679.943 33.0625
306.66 672.415 57.25
305.754 711.101 30.1405
310.777 713.878 1.56488
327.268 683.18 1.55746
322.182 680.52 30.1336
310.776 713.879 -1.60686
305.731 711.121 -30.1806
322.16 680.538 -30.1883
327.267 683.181 -1.61428
304.654 710.546 -33.1067
290.401 702.714 -57.2443
306.658 672.457 -57.2513
321.083 679.963 -33.1145
288.422 701.655 -59.4827
267.225 689.989 -75.6364
283.225 660.215 -75.6447
304.679 671.398 -59.4897
264.646 688.606 -76.8549
239.672 674.84 -82.594
255.367 645.636 -82.603
280.646 658.832 -76.8632
236.879 673.34 -82.6044
211.889 659.539 -76.9937
227.278 630.908 -77.0019
252.575 644.136 -82.6134
209.306 658.148 -75.788
188.108 646.412 -59.6541
203.235 618.272 -59.661
224.694 629.518 -75.7962
186.126 645.344 -57.4097
171.927 637.467 -33.1443
186.877 609.657 -33.1497
201.253 617.204 -57.4165
170.853 636.888 -30.2025
165.874 634.127 -1.5613
180.763 606.434 -1.56625
185.803 609.078 -30.208
182.386 603.333 1.61783
187.439 605.989 30.2368
201.749 577.85 30.2325
196.635 575.312 1.61359
188.526 606.543 33.1745
202.879 614.068 57.391
217.358 585.595 57.3868
202.836 578.404 33.1702
204.883 615.089 59.6331
226.344 626.32 75.7765
241.074 597.35 75.7729
219.362 586.616 59.629
228.959 627.649 76.9832
254.259 640.868 82.6027
269.284 611.316 82.5991
243.689 598.68 76.9795
257.085 642.302 82.593
282.367 655.494 76.8596
297.685 625.365 76.8551
272.11 612.751 82.5895
284.977 656.817 75.6415
306.434 668 59.4905
321.997 637.382 59.485
300.294 626.688 75.6371
308.437 669.015 57.2494
322.883 676.543 33.0619
338.611 645.596 33.0557
324 638.397 57.2439
323.972 677.095 30.1328
329.058 679.756 1.55673
344.845 648.693 1.55027
339.701 646.149 30.1267
329.057 679.757 -1.61508
323.95 677.113 -30.1891
339.679 646.164 -30.1958
344.844 648.694 -1.62154
322.861 676.562 -33.1152
308.435 669.057 -57.2521
324 638.436 -57.2581
338.59 645.614 -33.1219
306.433 668.043 -59.4905
284.979 656.86 -75.6455
300.298 626.727 -75.652
321.998 637.421 -59.4965
282.37 655.536 -76.8641
257.091 642.34 -82.6039
272.117 612.785 -82.6108
297.688 625.403 -76.8706
254.265 640.904 -82.6143
228.968 627.676 -77.0028
243.699 598.703 -77.0091
269.291 611.349 -82.6212
226.353 626.345 -75.797
204.894 615.099 -59.6617
219.373 586.624 -59.6672
241.084 597.372 -75.8034
202.888 614.077 -57.4172
188.512 606.531 -33.1504
202.821 578.391 -33.155
217.367 585.602 -57.4227
187.425 605.976 -30.2086
182.385 603.332 -1.56679
196.635 575.311 -1.57104
201.734 577.836 -30.2132
198.186 572.174 1.61316
203.3 574.712 30.2321
216.962 546.255 30.2285
211.791 543.836 1.60967
204.399 575.241 33.1698
218.921 582.432 57.3864
232.745 553.637 57.3826
218.061 546.784 33.1662
220.948 583.406 59.6286
242.661 594.141 75.7724
256.726 564.842 75.7687
234.773 554.611 59.6248
245.305 595.41 76.9791
270.9 608.046 82.5987
285.247 578.159 82.5948
259.371 566.111 76.9753
273.758 609.416 82.589
299.332 622.03 76.8547
313.959 591.558 76.8503
288.105 579.529 82.5851
301.971 623.294 75.6365
323.674 633.987 59.4845
338.536 603.021 59.4795
316.598 592.821 75.6321
325.699 634.957 57.2433
340.311 642.156 33.0551
355.33 610.859 33.0498
340.561 603.991 57.2384
341.412 642.684 30.126
346.556 645.228 1.54962
361.632 613.814 1.54409
356.432 611.387 30.1206
346.555 645.229 -1.62222
341.391 642.7 -30.1964
356.411 611.401 -30.202
361.63 613.815 -1.62776
340.289 642.174 -33.1225
325.699 634.995 -57.2588
340.563 604.026 -57.2636
355.309 610.875 -33.1281
323.675 634.027 -59.4972
301.975 623.332 -75.6526
316.603 592.856 -75.6575
338.538 603.057 -59.502
299.336 622.068 -76.8713
273.765 609.45 -82.6114
288.113 579.558 -82.6164
313.964 591.592 -76.8762
270.907 608.079 -82.6218
245.315 595.433 -77.0098
259.381 566.131 -77.0145
285.256 578.187 -82.6268
242.671 594.162 -75.804
220.959 583.414 -59.6678
234.784 554.617 -59.6721
256.737 564.861 -75.8086
218.93 582.438 -57.4232
204.384 575.228 -33.1555
218.046 546.77 -33.1593
232.755 553.641 -57.4275
203.285 574.698 -30.2136
198.185 572.173 -1.57149
211.79 543.835 -1.57498
216.946 546.241 -30.2174
213.27 540.664 1.60931
218.441 543.083 30.2281
231.45 514.321 30.2252
226.224 512.022 1.60662
219.552 543.586 33.1658
234.236 550.439 57.3822
247.4 521.335 57.3788
232.561 514.824 33.1629
236.285 551.366 59.6244
258.238 561.597 75.7683
271.632 531.984 75.7645
249.449 522.262 59.621
260.911 562.805 76.9749
286.788 574.853 82.5944
300.45 544.644 82.5904
274.305 533.192 76.9711
289.677 576.157 82.5847
315.531 588.186 76.8498
329.459 557.386 76.8455
303.338 545.949 82.5807
318.197 589.39 75.6316
340.135 599.59 59.479
354.287 568.292 59.4747
332.125 558.59 75.6273
342.182 600.514 57.2379
356.951 607.382 33.0492
371.253 575.75 33.0447
356.334 569.216 57.2336
358.064 607.884 30.1201
363.264 610.311 1.54353
377.619 578.561 1.53895
372.366 576.252 30.1156
363.262 610.312 -1.62832
358.043 607.898 -30.2026
372.346 576.264 -30.2071
377.618 578.562 -1.63291
356.93 607.397 -33.1286
342.183 600.548 -57.2641
356.337 569.246 -57.2678
371.233 575.763 -33.1332
340.138 599.625 -59.5025
318.202 589.424 -75.658
332.132 558.62 -75.6613
354.291 568.324 -59.5062
315.536 588.22 -76.8766
289.685 576.186 -82.6169
303.348 545.974 -82.6201
329.465 557.416 -76.88
286.796 574.881 -82.6273
260.922 562.825 -77.0149
274.316 533.208 -77.018
300.459 544.668 -82.6305
258.249 561.615 -75.8091
236.296 551.371 -59.6725
249.46 522.265 -59.6756
271.643 531.999 -75.8121
234.246 550.443 -57.4279
219.537 543.572 -33.1597
232.545 514.809 -33.1625
247.409 521.336 -57.431
218.425 543.068 -30.2177
213.269 540.663 -1.57534
226.223 512.021 -1.57803
231.433 514.305 -30.2206
227.63 508.816 1.60635
232.856 511.115 30.2249
245.205 482.06 30.2227
239.927 479.883 1.60443
233.978 511.593 33.1626
248.817 518.104 57.3785
261.314 488.703 57.3755
246.328 482.538 33.1603
250.887 518.983 59.6206
273.07 528.706 75.7641
285.784 498.792 75.7605
263.384 489.583 59.6176
275.77 529.852 76.9707
301.915 541.304 82.5899
314.884 510.789 82.5859
288.485 499.938 76.9671
304.832 542.542 82.5802
330.953 553.98 76.8451
344.175 522.868 76.841
317.802 512.027 82.5761
333.646 555.123 75.6269
355.808 564.824 59.4743
369.243 533.211 59.4706
346.868 524.011 75.6228
357.875 565.702 57.2331
372.794 572.236 33.0443
386.372 540.285 33.0406
371.31 534.088 57.2294
373.918 572.713 30.1151
379.171 575.022 1.5385
392.8 542.952 1.53489
387.496 540.763 30.1115
379.17 575.023 -1.63336
373.898 572.725 -30.2076
387.477 540.772 -30.211
392.799 542.953 -1.63696
372.774 572.249 -33.1336
357.878 565.732 -57.2682
371.314 534.115 -57.2708
386.353 540.296 -33.137
355.812 564.856 -59.5065
333.652 555.152 -75.6616
346.876 524.037 -75.6635
369.249 533.238 -59.5091
330.959 554.009 -76.8802
304.842 542.566 -82.6203
317.813 512.047 -82.6218
344.183 522.893 -76.8821
301.924 541.327 -82.6307
275.781 529.867 -77.0182
288.497 499.95 -77.0197
314.895 510.808 -82.6322
273.081 528.72 -75.8124
250.898 518.985 -59.6758
263.395 489.583 -59.6776
285.797 498.803 -75.8138
248.827 518.105 -57.4312
233.962 511.577 -33.1627
246.312 482.522 -33.1646
261.324 488.702 -57.433
232.839 511.1 -30.2208
227.629 508.816 -1.57829
239.926 479.882 -1.5802
245.189 482.044 -30.2227
241.26 476.646 1.60424
246.538 478.823 30.2225
258.223 449.489 30.2209
252.895 447.435 1.6031
247.671 479.274 33.16
262.657 485.44 57.3753
274.481 455.758 57.3727
259.356 449.94 33.1585
264.747 486.272 59.6172
287.147 495.48 75.7601
299.178 465.28 75.7565
276.571 456.589 59.6147
289.873 496.565 76.9666
316.273 507.415 82.5855
328.544 476.61 82.5813
301.904 466.364 76.963
319.218 508.587 82.5757
345.591 519.428 76.8406
358.101 488.022 76.8366
331.489 477.781 82.5715
348.309 520.51 75.6224
370.684 529.709 59.4702
383.396 497.796 59.4671
360.82 489.104 75.6185
372.77 530.54 57.2291
387.833 536.737 33.0402
400.681 504.484 33.0374
385.482 498.627 57.226
388.967 537.189 30.1111
394.271 539.379 1.53453
407.167 507.005 1.53185
401.815 504.936 30.1083
394.27 539.379 -1.6373
388.948 537.198 -30.2114
401.796 504.943 -30.2138
407.166 507.006 -1.63998
387.814 536.747 -33.1373
372.775 530.567 -57.2711
385.488 498.65 -57.2724
400.662 504.492 -33.1398
370.69 529.737 -59.5092
348.317 520.535 -75.6637
360.829 489.125 -75.6639
383.404 497.82 -59.5106
345.599 519.453 -76.8822
319.229 508.607 -82.6219
331.501 477.797 -82.6215
358.111 488.042 -76.8824
316.284 507.435 -82.6322
289.885 496.576 -77.0197
301.917 466.373 -77.0195
328.556 476.625 -82.6318
287.16 495.491 -75.8139
264.758 486.271 -59.6777
276.583 456.587 -59.6783
299.191 465.288 -75.8137
262.667 485.439 -57.4332
247.655 479.258 -33.1648
259.34 449.924 -33.1657
274.492 455.754 -57.4337
246.521 478.807 -30.2229
241.259 476.645 -1.58037
252.895 447.434 -1.58151
258.206 449.472 -30.2238
254.154 444.168 1.60299
259.482 446.222 30.2208
270.498 416.622 30.2199
265.123 414.692 1.60261
260.625 446.647 33.1582
275.75 452.464 57.3725
286.897 422.514 57.3702
271.641 417.047 33.1573
277.859 453.247 59.6143
300.465 461.938 75.7561
311.807 431.467 75.7524
289.006 423.297 59.6121
303.215 462.96 76.9626
329.856 473.205 82.5808
341.423 442.125 82.5763
314.556 432.489 76.9588
332.827 474.31 82.5711
359.439 484.55 76.8362
371.231 452.866 76.8322
344.394 443.23 82.5665
362.181 485.57 75.6181
384.757 494.263 59.4667
396.74 462.068 59.4642
373.973 453.886 75.6141
386.862 495.046 57.2257
402.06 500.903 33.0371
414.172 468.364 33.0351
398.845 462.851 57.2231
403.204 501.33 30.108
408.556 503.399 1.53159
420.713 470.738 1.52984
415.316 468.791 30.106
408.555 503.399 -1.64021
403.185 501.337 -30.2141
415.298 468.796 -30.2155
420.712 470.739 -1.64196
402.041 500.912 -33.1399
386.868 495.069 -57.2726
398.852 462.87 -57.2726
414.154 468.371 -33.1413
384.765 494.286 -59.5106
362.19 485.591 -75.6639
373.984 453.902 -75.6622
396.749 462.087 -59.5106
359.448 484.57 -76.8823
332.839 474.325 -82.6213
344.407 443.241 -82.6188
371.242 452.881 -76.8806
329.868 473.22 -82.6316
303.228 462.968 -77.0193
314.57 432.494 -77.0173
341.437 442.136 -82.6291
300.478 461.946 -75.8136
277.87 453.244 -59.6782
289.018 423.292 -59.6774
311.82 431.471 -75.8115
275.76 452.46 -57.4337
260.608 446.63 -33.1657
271.624 417.03 -33.1658
286.908 422.508 -57.4329
259.464 446.205 -30.2239
254.153 444.167 -1.58158
265.122 414.691 -1.58195
270.48 416.605 -30.2239
266.307 411.396 1.60257
271.682 413.326 30.2198
282.024 383.474 30.2195
276.605 381.668 1.60295
272.835 413.724 33.1571
288.091 419.191 57.37
298.556 388.987 57.368
283.177 383.872 33.1568
290.217 419.926 59.6117
313.018 428.096 75.752
323.665 397.37 75.7479
300.682 389.722 59.6096
315.79 429.055 76.9583
342.657 438.691 82.5758
353.516 407.353 82.5706
326.437 398.328 76.9541
345.652 439.728 82.5661
372.489 449.364 76.8317
383.558 417.419 76.8274
356.511 408.39 82.5608
375.253 450.322 75.6138
398.021 458.504 59.4638
409.269 426.045 59.4616
386.323 418.377 75.6095
400.142 459.24 57.2229
415.469 464.753 33.0349
426.84 431.946 33.0336
411.391 426.781 57.2207
416.623 465.154 30.1058
422.02 467.101 1.52966
433.434 434.17 1.52887
427.994 432.346 30.1045
422.019 467.101 -1.64206
416.605 465.159 -30.2156
427.976 432.349 -30.2158
433.433 434.17 -1.64285
415.451 464.759 -33.1413
400.15 459.259 -57.2725
411.4 426.795 -57.2711
426.823 431.949 -33.1415
398.03 458.523 -59.5104
375.265 450.338 -75.662
386.335 418.388 -75.6583
409.28 426.06 -59.509
372.5 449.379 -76.8803
345.665 439.739 -82.6185
356.525 408.397 -82.6135
383.571 417.43 -76.8765
342.67 438.702 -82.6287
315.804 429.059 -77.0169
326.452 398.33 -77.0127
353.53 407.36 -82.6238
313.032 428.1 -75.8113
290.229 419.921 -59.6771
300.694 389.715 -59.6749
323.679 397.371 -75.8071
288.101 419.185 -57.4328
272.818 413.707 -33.1657
283.159 383.855 -33.1648
298.567 388.98 -57.4306
271.664 413.309 -30.2239
266.306 411.395 -1.58192
276.604 381.667 -1.58154
282.005 383.457 -30.223
277.714 378.345 1.60298
283.133 380.151 30.2195
292.797 350.06 30.2197
287.337 348.379 1.60406
284.295 380.523 33.1567
299.674 385.638 57.3678
309.454 355.194 57.3657
293.959 350.432 33.1569
301.817 386.323 59.6092
324.799 393.971 75.7475
334.748 363.004 75.7424
311.596 355.88 59.6071
327.593 394.867 76.9535
354.671 403.892 82.57
364.817 372.312 82.5635
337.541 363.9 76.9485
357.689 404.861 82.5602
384.737 413.889 76.8268
395.078 381.701 76.8218
367.835 373.281 82.5538
387.522 414.785 75.6091
410.469 422.453 59.4612
420.979 389.748 59.4593
397.864 382.597 75.604
412.607 423.141 57.2205
428.055 428.306 33.0334
438.681 395.247 33.0329
423.117 390.436 57.2186
429.218 428.68 30.1045
434.659 430.503 1.52877
445.326 397.317 1.529
439.844 395.621 30.104
434.658 430.503 -1.64282
429.201 428.683 -30.2158
439.827 395.621 -30.2148
445.325 397.317 -1.64259
428.039 428.309 -33.1414
412.616 423.155 -57.271
423.128 390.445 -57.268
438.665 395.247 -33.1403
410.48 422.467 -59.5086
387.535 414.796 -75.6579
397.878 382.603 -75.6518
420.992 389.757 -59.5056
384.75 413.9 -76.8759
357.704 404.867 -82.6129
367.85 373.285 -82.6051
395.093 381.707 -76.8698
354.686 403.898 -82.6231
327.607 394.868 -77.0121
337.557 363.898 -77.0055
364.833 372.315 -82.6153
324.814 393.972 -75.8066
301.829 386.317 -59.6745
311.608 355.872 -59.6707
334.763 363.002 -75.8001
299.685 385.63 -57.4303
284.277 380.506 -33.1645
293.941 350.415 -33.1628
309.464 355.185 -57.4266
283.114 380.134 -30.2229
277.713 378.344 -1.58141
287.336 348.378 -1.58034
292.778 350.044 -30.2211
288.37 345.03 1.60414
293.83 346.711 30.2198
302.813 316.394 30.2204
297.314 314.838 1.60583
295.001 347.056 33.1567
310.496 351.818 57.3656
319.586 321.149 57.3631
303.983 316.74 33.1573
312.653 352.455 59.6067
335.805 359.58 75.7419
345.052 328.388 75.7354
321.743 321.786 59.6042
338.618 360.412 76.9478
365.894 368.825 82.5628
375.323 337.022 82.5543
347.865 329.22 76.9412
368.933 369.726 82.553
396.176 378.146 76.8211
405.787 345.734 76.8147
378.362 337.923 82.5445
398.981 378.979 75.6036
422.096 386.13 59.4589
431.865 353.198 59.457
408.592 346.567 75.5972
424.25 386.77 57.2184
439.814 391.581 33.0327
449.692 358.287 33.033
434.018 353.837 57.2165
440.985 391.928 30.1039
446.467 393.623 1.52899
456.386 360.197 1.53035
450.864 358.634 30.1042
446.467 393.623 -1.6424
440.969 391.927 -30.2146
450.848 358.629 -30.2121
456.385 360.197 -1.64104
439.798 391.58 -33.14
424.261 386.778 -57.2677
434.031 353.84 -57.2631
449.678 358.283 -33.1375
422.109 386.139 -59.505
398.996 378.985 -75.6511
408.608 346.568 -75.6421
431.879 353.201 -59.5004
396.191 378.152 -76.8688
368.948 369.729 -82.6042
378.378 337.923 -82.5929
405.803 345.735 -76.8598
365.91 368.827 -82.6143
338.634 360.411 -77.0045
347.881 329.217 -76.9951
375.339 337.021 -82.6031
335.82 359.578 -75.7993
312.665 352.447 -59.67
321.755 321.778 -59.6646
345.068 328.384 -75.7899
310.506 351.81 -57.4262
294.983 347.04 -33.1623
303.964 316.724 -33.1597
319.596 321.14 -57.4208
293.812 346.695 -30.2209
288.369 345.029 -1.58013
297.313 314.838 -1.57844
302.793 316.379 -30.2183
298.272 311.465 1.60596
303.771 313.021 30.2205
312.068 282.49 30.2213
306.534 281.059 1.60815
304.949 313.34 33.1572
320.551 317.749 57.363
328.949 286.868 57.3597
313.247 282.809 33.1579
322.723 318.338 59.6035
346.032 324.94 75.7348
354.575 293.538 75.726
331.121 287.456 59.6002
348.863 325.709 76.9402
376.321 333.51 82.5533
385.03 301.502 82.5418
357.406 294.308 76.9314
379.379 334.344 82.5436
406.804 342.155 76.8137
415.681 309.539 76.8052
388.088 302.335 82.5321
409.627 342.925 75.5967
432.9 349.556 59.4565
441.924 316.417 59.4543
418.504 310.309 75.5882
435.068 350.146 57.2163
450.742 354.596 33.0328
459.871 321.083 33.0337
444.092 317.007 57.2141
451.922 354.915 30.1043
457.444 356.478 1.53042
466.612 322.826 1.53305
461.051 321.402 30.1052
457.443 356.478 -1.64068
451.906 354.91 -30.2118
461.037 321.393 -30.2076
466.611 322.826 -1.63805
450.728 354.591 -33.1369
435.081 350.149 -57.2625
444.106 317.004 -57.2563
459.858 321.074 -33.1327
432.915 349.559 -59.4995
409.643 342.926 -75.6412
418.521 310.306 -75.6288
441.94 316.414 -59.4933
406.82 342.155 -76.8585
379.396 334.343 -82.5916
388.105 302.331 -82.5762
415.698 309.535 -76.8461
376.337 333.509 -82.6017
348.879 325.705 -76.9937
357.422 294.303 -76.981
385.047 301.498 -82.5863
346.048 324.935 -75.7889
322.735 318.329 -59.6635
331.133 287.447 -59.6562
354.59 293.533 -75.7761
320.562 317.74 -57.4202
304.93 313.324 -33.1591
313.227 282.794 -33.1557
328.959 286.858 -57.4129
303.751 313.005 -30.218
298.271 311.464 -1.57815
306.533 281.058 -1.57596
312.049 282.476 -30.2145
307.415 277.663 1.6083
312.95 279.093 30.2214
320.562 248.36 30.2222
314.993 247.053 1.61084
314.136 279.386 33.1577
329.838 283.445 57.3594
337.542 252.363 57.3548
321.747 248.652 33.1584
332.023 283.985 59.5994
355.477 290.067 75.7251
363.314 258.472 75.7131
339.727 252.903 59.5948
358.325 290.774 76.9301
385.949 297.968 82.5404
393.937 265.773 82.5247
366.161 259.179 76.9181
389.025 298.735 82.5308
416.617 305.938 76.8039
424.757 273.14 76.7923
397.013 266.539 82.5151
419.457 306.646 75.5875
442.877 312.754 59.4535
451.155 279.429 59.4503
427.597 273.848 75.5758
445.059 313.293 57.2138
460.838 317.369 33.0335
469.217 283.654 33.035
453.336 279.968 57.2106
462.025 317.659 30.1053
467.587 319.084 1.53319
476.005 285.219 1.53719
470.404 283.944 30.1068
467.586 319.083 -1.63746
462.012 317.65 -30.207
470.392 283.93 -30.2007
476.004 285.219 -1.63346
460.825 317.36 -33.1319
445.074 313.289 -57.2554
453.352 279.958 -57.2474
469.206 283.64 -33.1256
442.894 312.75 -59.4921
419.474 306.642 -75.6276
427.615 273.84 -75.6113
451.172 279.419 -59.4841
416.634 305.934 -76.8443
389.042 298.73 -82.5744
397.03 266.533 -82.5541
424.775 273.132 -76.828
385.966 297.964 -82.5845
358.341 290.769 -76.9791
366.177 259.173 -76.9624
393.954 265.766 -82.5641
355.493 290.062 -75.7748
332.035 283.976 -59.6549
339.739 252.895 -59.6455
363.329 258.466 -75.7581
329.849 283.436 -57.4122
314.117 279.371 -33.1549
321.727 248.64 -33.1507
337.552 252.355 -57.4028
312.93 279.079 -30.2141
307.414 277.662 -1.57559
314.992 247.052 -1.57305
320.541 248.348 -30.2099
315.799 243.634 1.61099
321.367 244.941 30.2223
328.291 214.014 30.2227
322.691 212.831 1.6137
322.56 245.207 33.1581
338.355 248.918 57.3545
345.364 217.647 57.3481
329.484 214.28 33.1584
340.551 249.411 59.5936
364.138 254.979 75.712
371.268 223.204 75.696
347.561 218.14 59.5872
367 255.625 76.9162
394.776 262.219 82.5229
402.041 229.857 82.5019
374.13 223.85 76.9003
397.868 262.919 82.5133
425.613 269.52 76.7905
433.015 236.564 76.7748
405.133 230.557 82.4924
428.468 270.165 75.5748
452.026 275.746 59.4493
459.556 242.258 59.4438
435.871 237.209 75.5591
454.22 276.234 57.2102
470.101 279.919 33.0345
477.73 246.015 33.0362
461.75 242.746 57.2047
471.296 280.178 30.107
476.896 281.454 1.53738
484.565 247.388 1.54271
478.925 246.274 30.1086
476.896 281.453 -1.63263
471.284 280.165 -30.1999
478.916 246.255 -30.1913
484.565 247.387 -1.6273
470.09 279.905 -33.1244
454.236 276.223 -57.2462
461.767 242.729 -57.2356
477.722 245.996 -33.1158
452.043 275.736 -59.4825
428.486 270.156 -75.6098
435.889 237.197 -75.5891
459.574 242.241 -59.472
425.63 269.512 -76.8257
397.885 262.912 -82.5518
405.151 230.549 -82.526
433.034 236.552 -76.8051
394.793 262.212 -82.5618
367.016 255.619 -76.9601
374.146 223.845 -76.9391
402.059 229.849 -82.5359
364.153 254.973 -75.7564
340.563 249.403 -59.6438
347.572 218.134 -59.6323
371.283 223.199 -75.7354
338.365 248.91 -57.4019
322.54 245.195 -33.1498
329.463 214.271 -33.1447
345.373 217.641 -57.3904
321.347 244.929 -30.2094
315.798 243.634 -1.57262
322.69 212.83 -1.56991
328.27 214.005 -30.2044
323.421 209.391 1.61383
329.021 210.574 30.2228
335.26 179.461 30.2221
329.631 178.401 1.61653
330.219 210.814 33.1579
346.1 214.182 57.3476
352.416 182.731 57.339
336.458 179.702 33.1572
348.307 214.628 59.5857
372.014 219.692 75.6944
378.437 187.753 75.6743
354.623 183.177 59.5771
374.89 220.278 76.8979
402.801 226.285 82.4995
409.343 193.779 82.4727
381.313 188.339 76.8777
405.907 226.921 82.4901
433.79 232.927 76.7725
440.453 199.84 76.7517
412.449 194.414 82.4633
436.659 233.51 75.5576
460.344 238.559 59.4423
467.124 204.932 59.4322
443.323 200.423 75.5368
462.551 238.993 57.2039
478.531 242.262 33.0354
485.409 208.179 33.0362
469.331 205.366 57.1938
479.733 242.487 30.1088
485.373 243.601 1.5429
492.291 209.34 1.54927
486.611 208.404 30.1097
485.373 243.6 -1.62622
479.724 242.469 -30.1902
486.605 208.382 -30.179
492.291 209.339 -1.61985
478.523 242.242 -33.1141
462.568 238.975 -57.234
469.348 205.343 -57.2189
485.404 208.155 -33.1029
460.362 238.542 -59.4699
436.678 233.497 -75.5871
443.342 200.407 -75.5616
467.143 204.91 -59.4549
433.808 232.915 -76.8022
405.925 226.912 -82.5231
412.467 194.405 -82.4917
440.472 199.825 -76.7768
402.818 226.277 -82.533
374.906 220.273 -76.9362
381.329 188.334 -76.9111
409.36 193.77 -82.5016
372.029 219.687 -75.7333
348.318 214.622 -59.6302
354.634 183.175 -59.6163
378.452 187.748 -75.7082
346.109 214.176 -57.3893
330.199 210.805 -33.1436
336.437 179.697 -33.1375
352.425 182.729 -57.3754
329 210.565 -30.2039
323.42 209.39 -1.56942
329.63 178.401 -1.56672
335.238 179.457 -30.1978
330.286 174.941 1.61652
335.914 176.001 30.2221
341.481 144.712 30.2176
335.83 143.775 1.61913
337.118 176.216 33.1564
353.076 179.246 57.3381
358.706 147.625 57.324
342.685 144.927 33.1518
355.292 179.647 59.575
379.106 184.222 75.6722
384.825 152.132 75.6455
360.922 148.026 59.5609
381.993 184.751 76.8746
410.023 190.191 82.4696
415.839 157.564 82.4345
387.712 152.661 76.848
413.142 190.764 82.4603
441.146 196.19 76.7487
447.063 163.004 76.7195
418.958 158.138 82.4252
444.028 196.711 75.5345
467.829 201.22 59.4299
473.845 167.478 59.4089
449.946 163.525 75.5054
470.047 201.596 57.1923
486.125 204.409 33.0347
492.236 170.154 33.0319
476.063 167.855 57.1713
487.335 204.597 30.1097
493.015 205.533 1.54934
499.164 171.079 1.55637
493.445 170.342 30.1069
493.015 205.532 -1.61848
487.329 204.575 -30.1776
493.444 170.316 -30.1621
499.164 171.078 -1.61145
486.121 204.385 -33.1005
470.065 201.573 -57.2165
476.082 167.828 -57.1922
492.236 170.127 -33.085
467.848 201.197 -59.4521
444.047 196.695 -75.5588
449.965 163.508 -75.5265
473.865 167.452 -59.4278
441.164 196.175 -76.7733
413.159 190.755 -82.4882
418.976 158.128 -82.4496
447.082 162.988 -76.741
410.041 190.182 -82.498
382.009 184.746 -76.9075
387.728 152.659 -76.8763
415.857 157.556 -82.4593
379.121 184.218 -75.7055
355.303 179.645 -59.6137
360.934 148.03 -59.594
384.84 152.131 -75.6744
353.085 179.244 -57.3739
337.097 176.212 -33.136
342.665 144.929 -33.1259
358.715 147.629 -57.3543
335.893 175.997 -30.1972
330.285 174.941 -1.56608
335.829 143.775 -1.56348
341.46 144.714 -30.187
336.415 140.297 1.61832
342.065 141.234 30.2168
347.028 109.788 30.1871
341.37 108.978 1.62089
343.272 141.424 33.1488
359.293 144.122 57.321
364.281 112.351 57.2664
348.235 109.978 33.1191
361.515 144.479 59.556
385.418 148.585 75.6407
390.446 116.367 75.5693
366.504 112.708 59.5014
388.312 149.06 76.842
416.44 153.963 82.4285
421.514 121.247 82.3491
393.34 116.842 76.7705
419.567 154.478 82.4193
447.672 159.344 76.7137
452.799 126.104 76.6434
424.641 121.762 82.3399
450.564 159.803 75.5002
474.463 163.756 59.4037
479.652 129.917 59.3464
455.691 126.563 75.4299
476.691 164.07 57.1677
492.864 166.369 33.0283
498.123 131.935 33.0077
481.879 130.231 57.1104
494.079 166.515 30.1064
499.797 167.251 1.55586
505.081 132.594 1.56327
499.338 132.08 30.0858
499.798 167.25 -1.60938
494.078 166.489 -30.16
499.348 132.054 -30.1253
505.082 132.593 -1.60197
492.864 166.342 -33.0807
476.71 164.042 -57.1879
481.9 130.201 -57.1361
498.133 131.906 -33.046
474.483 163.729 -59.4227
450.583 159.786 -75.5213
455.712 126.545 -75.4532
479.673 129.889 -59.3709
447.691 159.328 -76.735
419.585 154.468 -82.4436
424.662 121.753 -82.3631
452.82 126.087 -76.6669
416.458 153.955 -82.4529
388.328 149.058 -76.8699
393.359 116.844 -76.7942
421.535 121.239 -82.3725
385.434 148.584 -75.6689
361.527 144.484 -59.5886
366.519 112.721 -59.5272
390.465 116.37 -75.5932
359.303 144.127 -57.3507
343.252 141.427 -33.1223
348.218 109.992 -33.0864
364.295 112.364 -57.2892
342.045 141.237 -30.1856
336.413 140.298 -1.56201
341.369 108.979 -1.55945
347.011 109.802 -30.1497
341.908 105.491 1.61447
347.567 106.301 30.1807
352.291 74.809 29.9774
346.673 74.1279 1.61547
348.77 106.466 33.101
364.817 108.839 57.2482
369.434 77.0211 56.8891
353.494 74.9735 32.8978
367.033 109.153 59.4756
390.976 112.813 75.5435
395.443 80.5534 75.107
371.651 77.3354 59.1165
393.864 113.235 76.7421
422.037 117.64 82.3207
426.34 84.8992 81.8861
398.331 80.9762 76.3056
425.158 118.1 82.3132
453.316 122.443 76.6166
457.454 89.2213 76.2294
429.461 85.3586 81.8786
456.206 122.836 75.4077
480.167 126.191 59.3242
484.217 92.2315 59.0696
460.344 89.615 75.0205
482.392 126.43 57.0963
498.636 128.134 32.9936
502.586 93.4619 32.8518
486.442 92.4711 56.8417
499.849 128.229 30.0812
505.592 128.743 1.55865
509.489 93.8205 1.55516
503.799 93.5575 29.9394
505.593 128.742 -1.59657
499.859 128.203 -30.1199
503.81 93.5403 -29.977
509.489 93.8195 -1.60006
498.647 128.106 -33.0313
482.414 126.402 -57.1214
486.47 92.451 -56.8572
502.598 93.4435 -32.8884
480.189 126.162 -59.3484
456.228 122.819 -75.4308
460.37 89.5981 -75.0333
484.244 92.2116 -59.0842
453.337 122.426 -76.6396
425.179 118.091 -82.3359
429.486 85.3515 -81.8932
457.48 89.2053 -76.2421
422.058 117.633 -82.3435
393.883 113.237 -76.7652
398.355 80.982 -76.322
426.366 84.8932 -81.9008
390.995 112.816 -75.5667
367.05 109.166 -59.5006
371.674 77.3597 -59.1314
395.467 80.5606 -75.1235
364.831 108.853 -57.2703
348.754 106.481 -33.0675
353.486 75.0041 -32.8588
369.455 77.0464 -56.901
347.55 106.316 -30.1427
341.908 105.492 -1.55246
346.673 74.129 -1.55146
352.281 74.8385 -29.934
347.332 70.6915 1.57278
352.949 71.3726 29.9347
360.004 40.6478 28.6455
354.646 40 1.57057
354.119 71.5204 32.7784
370.059 73.568 56.7698
376.367 42.7366 54.4038
361.174 40.7956 31.4892
372.217 73.8516 58.943
396.009 77.0696 74.9336
401.213 46.0135 71.8817
378.525 43.0202 56.577
398.823 77.4511 76.1077
426.832 81.3742 81.6881
430.766 49.9839 78.4441
404.027 46.3951 73.0558
429.874 81.7879 81.6861
457.867 85.6505 76.037
460.556 53.909 73.0844
433.809 50.3976 78.4421
460.679 86.0009 74.865
484.552 88.6174 58.9142
486.105 56.9006 56.6335
463.368 54.2593 71.9125
486.717 88.8283 56.7447
502.861 89.8191 32.7548
503.504 58.4552 31.4662
488.271 57.1115 54.464
504.042 89.9022 29.9047
509.732 90.1652 1.52047
510.026 58.9217 1.51283
504.686 58.5382 28.6162
509.732 90.1637 -1.56648
504.052 89.8845 -29.9435
504.682 58.4933 -28.6574
510.026 58.9201 -1.57413
502.873 89.8001 -32.7905
486.744 88.8076 -56.7593
488.299 57.0689 -54.456
503.502 58.4089 -31.5044
484.58 88.5972 -58.927
460.706 85.9837 -74.8761
463.397 54.2424 -71.9089
486.135 56.8584 -56.6237
457.894 85.6347 -76.0485
429.9 81.7809 -81.6996
433.837 50.3936 -78.4463
460.585 53.8934 -73.0814
426.858 81.3685 -81.7021
398.847 77.4573 -76.1232
404.051 46.4068 -73.067
430.794 49.9813 -78.4488
396.033 77.0778 -74.9495
372.24 73.877 -58.9574
378.542 43.0647 -56.5931
401.237 46.0274 -71.8933
370.08 73.595 -56.7814
354.111 71.5527 -32.7391
361.158 40.8454 -31.4548
376.383 42.7828 -54.417
352.94 71.4031 -29.8913
347.331 70.6936 -1.50874
354.645 40.002 -1.51095
359.987 40.6958 -28.607
355.498 36.6406 1.48596
360.856 37.2884 28.5609
368.893 7.37918 26.7986
363.875 6.77722 1.47851
361.962 37.4272 31.2494
377.156 39.3683 54.164
384.225 9.32518 50.9113
369.999 7.51803 29.4871
379.195 39.6319 56.2191
401.883 42.6253 71.5237
407.509 12.327 67.2522
386.264 9.58878 52.9664
404.544 42.9748 72.6346
431.283 46.5637 78.0228
435.188 15.9213 73.3602
410.169 12.6765 68.363
434.159 46.9399 78.022
460.907 50.4513 72.6644
463.062 19.4855 68.3214
438.064 16.2976 73.3594
463.564 50.782 71.5547
486.301 53.4232 56.2757
486.925 22.3766 52.9192
465.719 19.8162 67.2117
488.339 53.6471 54.2207
503.573 54.9908 31.223
503.147 24.0984 29.4106
488.963 22.6005 50.8642
504.679 55.093 28.5299
510.019 55.4764 1.42655
509.218 24.6451 1.43674
504.253 24.2006 26.7175
510.019 55.4732 -1.48732
504.674 55.0463 -28.5706
504.246 24.1278 -26.7412
509.217 24.6419 -1.47714
503.57 54.9413 -31.26
488.366 53.6013 -54.2116
488.98 22.5351 -50.8517
503.141 24.0228 -29.4306
486.33 53.38 -56.2648
463.592 50.764 -71.55
465.74 19.8003 -67.2077
486.944 22.3138 -52.9048
460.935 50.4359 -72.6606
434.187 46.9362 -78.0256
438.084 16.295 -73.3607
463.083 19.4722 -68.3183
431.311 46.5613 -78.027
404.568 42.9868 -72.6452
410.186 12.6887 -68.3696
435.208 15.9201 -73.3622
401.907 42.6402 -71.5351
379.212 39.6776 -56.2349
386.27 9.64838 -52.9813
407.526 12.3421 -67.2595
377.171 39.4165 -54.1778
361.946 37.4792 -31.2156
369.976 7.5875 -29.4649
384.228 9.38733 -50.9242
360.839 37.3375 -28.5234
355.497 36.6437 -1.42733
363.874 6.7803 -1.43478
368.87 7.44579 -26.7727
364.912 3.71597 1.34882
369.929 4.31794 26.6689
380.254 -21.1416 23.7809
375.831 -21.7632 1.32914
370.937 4.45049 29.1231
385.164 6.25763 50.5473
393.861 -19.2499 45.2655
381.262 -21.0091 26.2351
387.027 6.50306 52.424
408.271 9.24124 66.7098
414.607 -16.4742 59.8128
395.724 -19.0045 47.1422
410.703 9.56009 67.7216
435.721 12.8049 72.7188
439.275 -13.2049 65.2165
417.038 -16.1554 60.8247
438.348 13.1476 72.7145
463.347 16.3355 67.6765
464.086 -9.93046 60.6876
441.902 -12.8623 65.2123
465.77 16.646 66.6605
486.976 19.2064 52.368
485.273 -7.14465 46.9515
466.51 -9.61991 59.6716
488.831 19.4351 50.4944
503.015 20.933 29.0408
499.642 -5.26653 26.113
487.128 -6.91597 45.0779
504.021 21.0494 26.5896
508.985 21.4939 1.30888
505.037 -4.57174 1.32708
500.648 -5.15016 23.6619
508.985 21.4917 -1.3455
504.014 20.9777 -26.6096
500.647 -5.15247 -23.6621
505.037 -4.57389 -1.3273
503.008 20.8593 -29.0602
488.848 19.3716 -50.4812
487.128 -6.92057 -45.0779
499.642 -5.27091 -26.1127
486.993 19.145 -52.3545
465.789 16.6315 -66.6574
466.511 -9.62245 -59.6713
485.273 -7.14713 -46.9512
463.365 16.3226 -67.6735
438.367 13.1454 -72.7159
441.903 -12.8631 -65.2121
464.087 -9.93133 -60.6875
435.74 12.8034 -72.7204
410.718 9.57203 -67.7278
417.039 -16.1554 -60.8247
439.276 -13.2051 -65.2165
408.286 9.25478 -66.7161
387.03 6.56111 -52.4378
395.724 -19.0027 -47.1424
414.607 -16.4726 -59.813
385.166 6.31777 -50.5607
370.915 4.51794 -29.1013
381.261 -21.0051 -26.2349
393.86 -19.2461 -45.2652
369.906 4.38347 -26.6464
364.911 3.71798 -1.30856
375.831 -21.7612 -1.32823
380.253 -21.1396 -23.78
-64.7413 986.049 25.8571
-68.6093 982.72 0.0977899
-64.6872 986.018 -25.6557
-53.5795 995.443 -47.492
-36.8982 1009.5 -62.073
-17.1697 1026.01 -67.1623
2.52849 1042.53 -62.0188
19.1457 1056.66 -47.4561
30.1845 1066.25 -25.6568
34.0534 1069.65 0.105627
30.1998 1066.21 25.8642
19.1665 1056.61 47.6577
2.54086 1042.49 62.2201
-17.1661 1025.98 67.3618
-36.9044 1009.49 62.2701
-53.6239 995.465 47.697
382.635 -22.3855 1.31945e-05
387.058 -21.764 22.4517
399.656 -20.0048 41.4821
418.539 -17.4746 54.1528
440.776 -14.5241 58.5446
462.96 -11.5923 54.02
481.723 -9.11705 41.3
494.237 -7.4676 22.335
498.627 -6.88918 0.000239176
494.237 -7.46776 -22.3346
481.723 -9.11742 -41.2997
462.96 -11.5927 -54.0199
440.776 -14.5245 -58.5445
418.539 -17.4748 -54.1527
399.656 -20.0049 -41.4821
387.058 -21.764 -22.4517
</DataArray>
</Points>
<Cells>
<DataArray type="Int32" Name="connectivity" format="ascii">
0 1 2 3 
4 5 6 7 
8 9 10 11 
12 13 14 15 
16 17 18 19 
20 21 22 23 
24 25 26 27 
28 29 30 31 
32 33 34 35 
36 37 38 39 
40 41 42 43 
44 45 46 47 
48 49 50 51 
52 53 54 55 
56 57 58 59 
60 61 62 63 
64 65 66 67 
68 69 70 71 
72 73 74 75 
76 77 78 79 
80 81 82 83 
84 85 86 87 
88 89 90 91 
92 93 94 95 
96 97 98 99 
100 101 102 103 
104 105 106 107 
108 109 110 111 
112 113 114 115 
116 117 118 119 
120 121 122 123 
124 125 126 127 
128 129 130 131 
132 133 134 135 
136 137 138 139 
140 141 142 143 
144 145 146 147 
148 149 150 151 
152 153 154 155 
156 157 158 159 
160 161 162 163 
164 165 166 167 
168 169 170 171 
172 173 174 175 
176 177 178 179 
180 181 182 183 
184 185 186 187 
188 189 190 191 
192 193 194 195 
196 197 198 199 
200 201 202 203 
204 205 206 207 
208 209 210 211 
212 213 214 215 
216 217 218 219 
220 221 222 223 
224 225 226 227 
228 229 230 231 
232 233 234 235 
236 237 238 239 
240 241 242 243 
244 245 246 247 
248 249 250 251 
252 253 254 255 
256 257 258 259 
260 261 262 263 
264 265 266 267 
268 269 270 271 
272 273 274 275 
276 277 278 279 
280 281 282 283 
284 285 286 287 
288 289 290 291 
292 293 294 295 
296 297 298 299 
300 301 302 303 
304 305 306 307 
308 309 310 311 
312 313 314 315 
316 317 318 319 
320 321 322 323 
324 325 326 327 
328 329 330 331 
332 333 334 335 
336 337 338 339 
340 341 342 343 
344 345 346 347 
348 349 350 351 
352 353 354 355 
356 357 358 359 
360 361 362 363 
364 365 366 367 
368 369 370 371 
372 373 374 375 
376 377 378 379 
380 381 382 383 
384 385 386 387 
388 389 390 391 
392 393 394 395 
396 397 398 399 
400 401 402 403 
404 405 406 407 
408 409 410 411 
412 413 414 415 
416 417 418 419 
420 421 422 423 
424 425 426 427 
428 429 430 431 
432 433 434 435 
436 437 438 439 
440 441 442 443 
444 445 446 447 
448 449 450 451 
452 453 454 455 
456 457 458 459 
460 461 462 463 
464 465 466 467 
468 469 470 471 
472 473 474 475 
476 477 478 479 
480 481 482 483 
484 485 486 487 
488 489 490 491 
492 493 494 495 
496 497 498 499 
500 501 502 503 
504 505 506 507 
508 509 510 511 
512 513 514 515 
516 517 518 519 
520 521 522 523 
524 525 526 527 
528 529 530 531 
532 533 534 535 
536 537 538 539 
540 541 542 543 
544 545 546 547 
548 549 550 551 
552 553 554 555 
556 557 558 559 
560 561 562 563 
564 565 566 567 
568 569 570 571 
572 573 574 575 
576 577 578 579 
580 581 582 583 
584 585 586 587 
588 589 590 591 
592 593 594 595 
596 597 598 599 
600 601 602 603 
604 605 606 607 
608 609 610 611 
612 613 614 615 
616 617 618 619 
620 621 622 623 
624 625 626 627 
628 629 630 631 
632 633 634 635 
636 637 638 639 
640 641 642 643 
644 645 646 647 
648 649 650 651 
652 653 654 655 
656 657 658 659 
660 661 662 663 
664 665 666 667 
668 669 670 671 
672 673 674 675 
676 677 678 679 
680 681 682 683 
684 685 686 687 
688 689 690 691 
692 693 694 695 
696 697 698 699 
700 701 702 703 
704 705 706 707 
708 709 710 711 
712 713 714 715 
716 717 718 719 
720 721 722 723 
724 725 726 727 
728 729 730 731 
732 733 734 735 
736 737 738 739 
740 741 742 743 
744 745 746 747 
748 749 750 751 
752 753 754 755 
756 757 758 759 
760 761 762 763 
764 765 766 767 
768 769 770 771 
772 773 774 775 
776 777 778 779 
780 781 782 783 
784 785 786 787 
788 789 790 791 
792 793 794 795 
796 797 798 799 
800 801 802 803 
804 805 806 807 
808 809 810 811 
812 813 814 815 
816 817 818 819 
820 821 822 823 
824 825 826 827 
828 829 830 831 
832 833 834 835 
836 837 838 839 
840 841 842 843 
844 845 846 847 
848 849 850 851 
852 853 854 855 
856 857 858 859 
860 861 862 863 
864 865 866 867 
868 869 870 871 
872 873 874 875 
876 877 878 879 
880 881 882 883 
884 885 886 887 
888 889 890 891 
892 893 894 895 
896 897 898 899 
900 901 902 903 
904 905 906 907 
908 909 910 911 
912 913 914 915 
916 917 918 919 
920 921 922 923 
924 925 926 927 
928 929 930 931 
932 933 934 935 
936 937 938 939 
940 941 942 943 
944 945 946 947 
948 949 950 951 
952 953 954 955 
956 957 958 959 
960 961 962 963 
964 965 966 967 
968 969 970 971 
972 973 974 975 
976 977 978 979 
980 981 982 983 
984 985 986 987 
988 989 990 991 
992 993 994 995 
996 997 998 999 
1000 1001 1002 1003 
1004 1005 1006 1007 
1008 1009 1010 1011 
1012 1013 1014 1015 
1016 1017 1018 1019 
1020 1021 1022 1023 
1024 1025 1026 1027 
1028 1029 1030 1031 
1032 1033 1034 1035 
1036 1037 1038 1039 
1040 1041 1042 1043 
1044 1045 1046 1047 
1048 1049 1050 1051 
1052 1053 1054 1055 
1056 1057 1058 1059 
1060 1061 1062 1063 
1064 1065 1066 1067 
1068 1069 1070 1071 
1072 1073 1074 1075 
1076 1077 1078 1079 
1080 1081 1082 1083 
1084 1085 1086 1087 
1088 1089 1090 1091 
1092 1093 1094 1095 
1096 1097 1098 1099 
1100 1101 1102 1103 
1104 1105 1106 1107 
1108 1109 1110 1111 
1112 1113 1114 1115 
1116 1117 1118 1119 
1120 1121 1122 1123 
1124 1125 1126 1127 
1128 1129 1130 1131 
1132 1133 1134 1135 
1136 1137 1138 1139 
1140 1141 1142 1143 
1144 1145 1146 1147 
1148 1149 1150 1151 
1152 1153 1154 1155 
1156 1157 1158 1159 
1160 1161 1162 1163 
1164 1165 1166 1167 
1168 1169 1170 1171 
1172 1173 1174 1175 
1176 1177 1178 1179 
1180 1181 1182 1183 
1184 1185 1186 1187 
1188 1189 1190 1191 
1192 1193 1194 1195 
1196 1197 1198 1199 
1200 1201 1202 1203 
1204 1205 1206 1207 
1208 1209 1210 1211 
1212 1213 1214 1215 
1216 1217 1218 1219 
1220 1221 1222 1223 
1224 1225 1226 1227 
1228 1229 1230 1231 
1232 1233 1234 1235 
1236 1237 1238 1239 
1240 1241 1242 1243 
1244 1245 1246 1247 
1248 1249 1250 1251 
1252 1253 1254 1255 
1256 1257 1258 1259 
1260 1261 1262 1263 
1264 1265 1266 1267 
1268 1269 1270 1271 
1272 1273 1274 1275 
1276 1277 1278 1279 
1280 1281 1282 1283 
1284 1285 1286 1287 
1288 1289 1290 1291 
1292 1293 1294 1295 
1296 1297 1298 1299 
1300 1301 1302 1303 
1304 1305 1306 1307 
1308 1309 1310 1311 
1312 1313 1314 1315 
1316 1317 1318 1319 
1320 1321 1322 1323 
1324 1325 1326 1327 
1328 1329 1330 1331 
1332 1333 1334 1335 
1336 1337 1338 1339 
1340 1341 1342 1343 
1344 1345 1346 1347 
1348 1349 1350 1351 
1352 1353 1354 1355 
1356 1357 1358 1359 
1360 1361 1362 1363 
1364 1365 1366 1367 
1368 1369 1370 1371 
1372 1373 1374 1375 
1376 1377 1378 1379 
1380 1381 1382 1383 
1384 1385 1386 1387 
1388 1389 1390 1391 
1392 1393 1394 1395 
1396 1397 1398 1399 
1400 1401 1402 1403 
1404 1405 1406 1407 
1408 1409 1410 1411 
1412 1413 1414 1415 
1416 1417 1418 1419 
1420 1421 1422 1423 
1424 1425 1426 1427 
1428 1429 1430 1431 
1432 1433 1434 1435 
1436 1437 1438 1439 
1440 1441 1442 1443 
1444 1445 1446 1447 
1448 1449 1450 1451 
1452 1453 1454 1455 
1456 1457 1458 1459 
1460 1461 1462 1463 
1464 1465 1466 1467 
1468 1469 1470 1471 
1472 1473 1474 1475 
1476 1477 1478 1479 
1480 1481 1482 1483 
1484 1485 1486 1487 
1488 1489 1490 1491 
1492 1493 1494 1495 
1496 1497 1498 1499 
1500 1501 1502 1503 
1504 1505 1506 1507 
1508 1509 1510 1511 
1512 1513 1514 1515 
1516 1517 1518 1519 
1520 1521 1522 1523 
1524 1525 1526 1527 
1528 1529 1530 1531 
1532 1533 1534 1535 
1536 1537 1538 1539 
1540 1541 1542 1543 
1544 1545 1546 1547 
1548 1549 1550 1551 
1552 1553 1554 1555 
1556 1557 1558 1559 
1560 1561 1562 1563 
1564 1565 1566 1567 
1568 1569 1570 1571 
1572 1573 1574 1575 
1576 1577 1578 1579 
1580 1581 1582 1583 
1584 1585 1586 1587 
1588 1589 1590 1591 
1592 1593 1594 1595 
1596 1597 1598 1599 
1600 1601 1602 1603 
1604 1605 1606 1607 
1608 1609 1610 1611 
1612 1613 1614 1615 
1616 1617 1618 1619 
1620 1621 1622 1623 
1624 1625 1626 1627 
1628 1629 1630 1631 
1632 1633 1634 1635 
1636 1637 1638 1639 
1640 1641 1642 1643 
1644 1645 1646 1647 
1648 1649 1650 1651 
1652 1653 1654 1655 
1656 1657 1658 1659 
1660 1661 1662 1663 
1664 1665 1666 1667 
1668 1669 1670 1671 
1672 1673 1674 1675 
1676 1677 1678 1679 
1680 1681 1682 1683 
1684 1685 1686 1687 
1688 1689 1690 1691 
1692 1693 1694 1695 
1696 1697 1698 1699 
1700 1701 1702 1703 
1704 1705 1706 1707 
1708 1709 1710 1711 
1712 1713 1714 1715 
1716 1717 1718 1719 
1720 1721 1722 1723 
1724 1725 1726 1727 
1728 1729 1730 1731 
1732 1733 1734 1735 
1736 1737 1738 1739 
1740 1741 1742 1743 
1744 1745 1746 1747 
1748 1749 1750 1751 
1752 1753 1754 1755 
1756 1757 1758 1759 
1760 1761 1762 1763 
1764 1765 1766 1767 
1768 1769 1770 1771 
1772 1773 1774 1775 
1776 1777 1778 1779 
1780 1781 1782 1783 
1784 1785 1786 1787 
1788 1789 1790 1791 
1792 1793 1794 1795 
1796 1797 1798 1799 
1800 1801 1802 1803 
1804 1805 1806 1807 
1808 1809 1810 1811 
1812 1813 1814 1815 
1816 1817 1818 1819 
1820 1821 1822 1823 
1824 1825 1826 1827 
1828 1829 1830 1831 
1832 1833 1834 1835 
1836 1837 1838 1839 
1840 1841 1842 1843 
1844 1845 1846 1847 
1848 1849 1850 1851 
1852 1853 1854 1855 
1856 1857 1858 1859 
1860 1861 1862 1863 
1864 1865 1866 1867 
1868 1869 1870 1871 
1872 1873 1874 1875 
1876 1877 1878 1879 
1880 1881 1882 1883 
1884 1885 1886 1887 
1888 1889 1890 1891 
1892 1893 1894 1895 
1896 1897 1898 1899 
1900 1901 1902 1903 
1904 1905 1906 1907 
1908 1909 1910 1911 
1912 1913 1914 1915 
1916 1917 1918 1919 
1920 1921 1922 1923 
1924 1925 1926 1927 
1928 1929 1930 1931 
1932 1933 1934 1935 
1936 1937 1938 1939 
1940 1941 1942 1943 
1944 1945 1946 1947 
1948 1949 1950 1951 
1952 1953 1954 1955 
1956 1957 1958 1959 
1960 1961 1962 1963 
1964 1965 1966 1967 
1968 1969 1970 1971 
1972 1973 1974 1975 
1976 1977 1978 1979 
1980 1981 1982 1983 
1984 1985 1986 1987 
1988 1989 1990 1991 
1992 1993 1994 1995 
1996 1997 1998 1999 
2000 2001 2002 2003 
2004 2005 2006 2007 
2008 2009 2010 2011 
2012 2013 2014 2015 
2016 2017 2018 2019 
2020 2021 2022 2023 
2024 2025 2026 2027 
2028 2029 2030 2031 
2032 2033 2034 2035 
2036 2037 2038 2039 
2040 2041 2042 2043 
2044 2045 2046 2047 
2048 2049 2050 2051 2052 2053 2054 2055 2056 2057 2058 2059 2060 2061 2062 2063 
2064 2065 2066 2067 2068 2069 2070 2071 2072 2073 2074 2075 2076 2077 2078 2079 
</DataArray>
<DataArray type="Int32" Name="offsets" format="ascii">
4 8 12 16 20 24 28 32 36 40 44 48 52 56 60 64 68 72 76 80 84 88 92 96 100 104 108 112 116 120 124 128 132 136 140 144 148 152 156 160 164 168 172 176 180 184 188 192 196 200 204 208 212 216 220 224 228 232 236 240 244 248 252 256 260 264 268 272 276 280 284 288 292 296 300 304 308 312 316 320 324 328 332 336 340 344 348 352 356 360 364 368 372 376 380 384 388 392 396 400 404 408 412 416 420 424 428 432 436 440 444 448 452 456 460 464 468 472 476 480 484 488 492 496 500 504 508 512 516 520 524 528 532 536 540 544 548 552 556 560 564 568 572 576 580 584 588 592 596 600 604 608 612 616 620 624 628 632 636 640 644 648 652 656 660 664 668 672 676 680 684 688 692 696 700 704 708 712 716 720 724 728 732 736 740 744 748 752 756 760 764 768 772 776 780 784 788 792 796 800 804 808 812 816 820 824 828 832 836 840 844 848 852 856 860 864 868 872 876 880 884 888 892 896 900 904 908 912 916 920 924 928 932 936 940 944 948 952 956 960 964 968 972 976 980 984 988 992 996 1000 1004 1008 1012 1016 1020 1024 1028 1032 1036 1040 1044 1048 1052 1056 1060 1064 1068 1072 1076 1080 1084 1088 1092 1096 1100 1104 1108 1112 1116 1120 1124 1128 1132 1136 1140 1144 1148 1152 1156 1160 1164 1168 1172 1176 1180 1184 1188 1192 1196 1200 1204 1208 1212 1216 1220 1224 1228 1232 1236 1240 1244 1248 1252 1256 1260 1264 1268 1272 1276 1280 1284 1288 1292 1296 1300 1304 1308 1312 1316 1320 1324 1328 1332 1336 1340 1344 1348 1352 1356 1360 1364 1368 1372 1376 1380 1384 1388 1392 1396 1400 1404 1408 1412 1416 1420 1424 1428 1432 1436 1440 1444 1448 1452 1456 1460 1464 1468 1472 1476 1480 1484 1488 1492 1496 1500 1504 1508 1512 1516 1520 1524 1528 1532 1536 1540 1544 1548 1552 1556 1560 1564 1568 1572 1576 1580 1584 1588 1592 1596 1600 1604 1608 1612 1616 1620 1624 1628 1632 1636 1640 1644 1648 1652 1656 1660 1664 1668 1672 1676 1680 1684 1688 1692 1696 1700 1704 1708 1712 1716 1720 1724 1728 1732 1736 1740 1744 1748 1752 1756 1760 1764 1768 1772 1776 1780 1784 1788 1792 1796 1800 1804 1808 1812 1816 1820 1824 1828 1832 1836 1840 1844 1848 1852 1856 1860 1864 1868 1872 1876 1880 1884 1888 1892 1896 1900 1904 1908 1912 1916 1920 1924 1928 1932 1936 1940 1944 1948 1952 1956 1960 1964 1968 1972 1976 1980 1984 1988 1992 1996 2000 2004 2008 2012 2016 2020 2024 2028 2032 2036 2040 2044 2048 2064 2080 
</DataArray>
<DataArray type="UInt8" Name="types" format="ascii">
7 7 7 7 7 7 7 7 7 7 7 7 7 7 7 7 7 7 7 7 7 7 7 7 7 7 7 7 7 7 7 7 7 7 7 7 7 7 7 7 7 7 7 7 7 7 7 7 7 7 7 7 7 7 7 7 7 7 7 7 7 7 7 7 7 7 7 7 7 7 7 7 7 7 7 7 7 7 7 7 7 7 7 7 7 7 7 7 7 7 7 7 7 7 7 7 7 7 7 7 7 7 7 7 7 7 7 7 7 7 7 7 7 7 7 7 7 7 7 7 7 7 7 7 7 7 7 7 7 7 7 7 7 7 7 7 7 7 7 7 7 7 7 7 7 7 7 7 7 7 7 7 7 7 7 7 7 7 7 7 7 7 7 7 7 7 7 7 7 7 7 7 7 7 7 7 7 7 7 7 7 7 7 7 7 7 7 7 7 7 7 7 7 7 7 7 7 7 7 7 7 7 7 7 7 7 7 7 7 7 7 7 7 7 7 7 7 7 7 7 7 7 7 7 7 7 7 7 7 7 7 7 7 7 7 7 7 7 7 7 7 7 7 7 7 7 7 7 7 7 7 7 7 7 7 7 7 7 7 7 7 7 7 7 7 7 7 7 7 7 7 7 7 7 7 7 7 7 7 7 7 7 7 7 7 7 7 7 7 7 7 7 7 7 7 7 7 7 7 7 7 7 7 7 7 7 7 7 7 7 7 7 7 7 7 7 7 7 7 7 7 7 7 7 7 7 7 7 7 7 7 7 7 7 7 7 7 7 7 7 7 7 7 7 7 7 7 7 7 7 7 7 7 7 7 7 7 7 7 7 7 7 7 7 7 7 7 7 7 7 7 7 7 7 7 7 7 7 7 7 7 7 7 7 7 7 7 7 7 7 7 7 7 7 7 7 7 7 7 7 7 7 7 7 7 7 7 7 7 7 7 7 7 7 7 7 7 7 7 7 7 7 7 7 7 7 7 7 7 7 7 7 7 7 7 7 7 7 7 7 7 7 7 7 7 7 7 7 7 7 7 7 7 7 7 7 7 7 7 7 7 7 7 7 7 7 7 7 7 7 7 7 7 7 7 7 7 7 7 7 7 7 7 7 7 7 7 7 7 7 7 7 7 7 7 7 7 7 7 7 7 7 7 7 7 7 7 7 7 7 7 7 7 7 
</DataArray>
</Cells>
<CellData Scalars="cell variable 4" Vectors="cell vector">
<DataArray type="Float64" NumberOfComponents="3" Name="cell vector" format="ascii">
0.166948 0.0935158 0.981521
0.503769 0.213115 0.837137
0.765254 0.28762 0.575901
0.895697 0.375086 0.238825
0.771662 0.607143 -0.189514
0.37552 0.727362 -0.574394
-0.166124 -0.547935 0.81986
-0.0345535 -0.218713 0.975177
0.0464559 0.208757 0.976864
0.148657 0.557654 0.816654
0.365533 0.732568 0.574222
0.767246 0.612263 0.190965
0.893157 0.381577 -0.238053
0.754067 0.315432 -0.576094
-0.488225 -0.244311 0.837824
-0.179168 -0.0725438 0.98114
0.155584 0.117651 0.980791
0.447014 0.329824 0.831502
0.668499 0.493738 0.556176
0.779978 0.59417 0.196459
0.752528 0.629012 -0.195055
0.586303 0.589876 -0.555243
-0.370348 -0.417282 0.82989
-0.128333 -0.149144 0.980452
0.129775 0.147302 0.980541
0.367992 0.41936 0.829891
0.584939 0.591015 0.555471
0.75133 0.630333 0.195406
0.778252 0.596525 -0.196166
0.666126 0.49699 -0.556127
-0.445271 -0.332144 0.831513
-0.157839 -0.114929 0.980754
0.155669 0.118487 0.980677
0.444715 0.334614 0.83082
0.664678 0.500517 0.554694
0.778553 0.596616 0.194691
0.758615 0.621607 -0.195211
0.580451 0.597816 -0.552895
-0.373298 -0.417452 0.828482
-0.131317 -0.14704 0.980375
0.132432 0.145613 0.980438
0.372355 0.418139 0.82856
0.579843 0.598138 0.553184
0.757413 0.622982 0.195497
0.777255 0.598374 -0.194481
0.663537 0.502207 -0.554534
-0.4436 -0.336064 0.830831
-0.156452 -0.117184 0.980709
0.156931 0.117461 0.9806
0.4476 0.332039 0.830304
0.669686 0.495186 0.553454
0.786395 0.586744 0.19317
0.769754 0.607641 -0.195581
0.555494 0.62352 -0.550136
0.0910656 0.667135 -0.73935
-0.598897 0.774818 -0.202436
-0.602284 0.775069 0.191109
0.0874334 0.669225 0.737898
0.55498 0.623753 0.550391
0.768544 0.609097 0.195807
0.785415 0.588115 -0.192989
0.669084 0.496238 -0.55324
-0.446636 -0.333287 0.830323
-0.156967 -0.116744 0.980679
0.15831 0.115986 0.980554
0.450625 0.328633 0.830022
0.673415 0.490782 0.552852
0.790007 0.582123 0.192408
0.774642 0.60131 -0.195847
0.596501 0.582594 -0.552061
0.154489 0.630616 -0.760563
-0.574593 0.789637 -0.215211
-0.574414 0.789498 0.216195
0.156591 0.628612 0.761791
0.596462 0.582404 0.552303
0.774092 0.60194 0.196086
0.78946 0.582941 -0.19218
0.673127 0.491468 -0.552593
-0.449882 -0.329606 0.83004
-0.157956 -0.115588 0.980658
0.159515 0.114275 0.980559
0.453651 0.324206 0.830115
0.677851 0.484423 0.55304
0.795983 0.573908 0.19246
0.784448 0.588382 -0.196083
0.62711 0.548725 -0.552842
-0.241047 -0.564259 0.789625
-0.548373 0.800874 -0.240597
-0.549162 0.800985 0.238422
0.223203 0.58013 0.783345
0.626217 0.54953 0.553055
0.784058 0.588802 0.19638
0.795688 0.574419 -0.192153
0.677761 0.484896 -0.552735
-0.453092 -0.324952 0.830129
-0.158999 -0.114009 0.980674
0.160923 0.11205 0.980586
0.457523 0.318152 0.830333
0.683783 0.475579 0.553413
0.803903 0.5627 0.192634
0.795938 0.572661 -0.196321
0.650425 0.520213 -0.553467
-0.311108 -0.500137 0.808131
-0.522767 0.810573 -0.263981
-0.526686 0.811763 0.252277
0.284306 0.527742 0.800411
0.648531 0.522369 0.553658
0.795345 0.573374 0.19664
0.80369 0.563123 -0.192288
0.683801 0.475938 -0.553081
-0.457119 -0.318711 0.83034
-0.160362 -0.111811 0.980705
0.162572 0.109386 0.980615
0.4622 0.310741 0.830549
0.690979 0.464646 0.553762
0.81313 0.549228 0.192789
0.807643 0.555953 -0.196543
0.668749 0.495859 -0.553984
-0.364864 -0.443337 0.818735
-0.498422 0.819575 -0.282615
-0.505389 0.822171 0.261948
0.337873 0.474809 0.812649
0.666788 0.498278 0.554177
0.806998 0.556779 0.196853
0.812925 0.549655 -0.192438
0.69102 0.46499 -0.553421
-0.461896 -0.311179 0.830554
-0.162006 -0.109137 0.980736
0.164417 0.106375 0.980638
0.467462 0.302294 0.830721
0.699013 0.452137 0.554034
0.82313 0.534081 0.192909
0.819284 0.538584 -0.196725
0.684316 0.47367 -0.554389
-0.40498 -0.395501 0.824361
-0.474783 0.828124 -0.29798
-0.48561 0.832728 0.265985
0.382043 0.42533 0.820449
0.68251 0.476048 0.554579
0.81866 0.539423 0.197022
0.822931 0.534512 -0.192564
0.699057 0.452483 -0.553695
-0.467215 -0.302652 0.830729
-0.163843 -0.106116 0.980762
0.166388 0.103104 0.980655
0.473092 0.293045 0.830848
0.707558 0.438394 0.554231
0.833545 0.517645 0.192994
0.830775 0.52063 -0.196869
0.697855 0.453128 -0.554684
-0.434611 -0.356241 0.827167
-0.452662 0.83684 -0.307889
-0.468509 0.844133 0.260649
0.417552 0.380718 0.825048
0.696295 0.455298 0.554866
0.830203 0.521436 0.19715
0.833358 0.51807 -0.19266
0.707601 0.438744 -0.5539
-0.472878 -0.293347 0.830863
-0.165799 -0.102836 0.980783
0.168425 0.0996323 0.980666
0.478893 0.283198 0.83094
0.716334 0.423718 0.554372
0.844121 0.500191 0.193052
0.842058 0.502134 -0.196976
0.709846 0.433834 -0.554893
-0.456195 -0.324855 0.828466
-0.4308 0.845258 -0.31615
-0.45314 0.856102 0.248502
0.444606 0.343043 0.827434
0.708551 0.43573 0.555062
0.84155 0.502881 0.19724
0.843952 0.500599 -0.19273
0.716378 0.424064 -0.554051
-0.478699 -0.283456 0.830964
-0.167814 -0.0993592 0.980799
0.170478 0.0960095 0.980673
0.484717 0.272922 0.831001
0.725121 0.408367 0.554469
0.854662 0.481945 0.193088
0.853067 0.483163 -0.197054
0.720822 0.415147 -0.55504
-0.471948 -0.29995 0.829033
-0.409222 0.853402 -0.322865
-0.43968 0.868625 0.228411
0.46454 0.312603 0.828542
0.719774 0.416757 0.555194
0.852631 0.483832 0.197301
0.854516 0.482326 -0.192781
0.725169 0.408701 -0.55416
-0.484535 -0.27314 0.831036
-0.169841 -0.0957308 0.980811
0.172509 0.0922708 0.980677
0.49048 0.262302 0.83104
0.733798 0.392476 0.55453
0.865025 0.463078 0.193109
0.863753 0.463766 -0.19711
0.730995 0.396821 -0.555139
-0.483848 -0.279621 0.829279
-0.39088 0.863186 -0.319567
-0.430506 0.882214 0.19069
0.479242 0.288194 0.829018
0.730136 0.398207 0.555277
0.863385 0.464353 0.19734
0.864907 0.46342 -0.192818
0.733855 0.392787 -0.554234
-0.490306 -0.262481 0.831086
-0.171847 -0.0919872 0.98082
0.174499 0.0884349 0.980678
0.496119 0.251402 0.831062
0.74227 0.376157 0.554564
0.875108 0.443724 0.193116
0.874062 0.444011 -0.197153
0.74051 0.378671 -0.555205
-0.493408 -0.262031 0.829391
-0.384081 0.879803 -0.28005
-0.427554 0.895601 0.122869
0.490323 0.268312 0.829211
0.739768 0.379942 0.555327
0.873764 0.444503 0.197364
0.875027 0.444003 -0.192843
0.742342 0.376431 -0.554282
-0.495952 -0.251544 0.831118
-0.17381 -0.0881512 0.980826
0.17643 0.08452 0.980678
0.501586 0.240276 0.831071
0.750466 0.359504 0.554579
0.884834 0.424001 0.193111
0.883945 0.423978 -0.197188
0.749423 0.360648 -0.555246
-0.501471 -0.246088 0.829438
-0.38982 0.90088 -0.190932
-0.423861 0.904547 0.0462164
0.498853 0.251855 0.829286
0.748867 0.361641 0.55535
0.883761 0.424274 0.197376
0.8848 0.424187 -0.192856
0.750551 0.359743 -0.554308
-0.50142 -0.240391 0.831138
-0.175713 -0.0842418 0.98083
0.17829 0.0805424 0.980676
0.506848 0.228961 0.831072
0.758342 0.342574 0.554582
0.89414 0.404012 0.193101
0.893304 0.403871 -0.197221
0.75766 0.342933 -0.555291
-0.509156 -0.22962 0.829479
-0.413692 0.910361 0.0101141
-0.411864 0.911245 0.000473883
0.508908 0.230601 0.829359
0.757658 0.342793 0.555381
0.893245 0.403913 0.197403
0.894126 0.404162 -0.192852
0.758428 0.342809 -0.554318
-0.506684 -0.229052 0.831148
-0.177548 -0.080261 0.980834
0.180064 0.0765235 0.980674
0.511873 0.217519 0.831066
0.765864 0.325422 0.554574
0.903051 0.383686 0.193091
0.902309 0.383321 -0.197239
0.765473 0.325071 -0.555319
-0.514829 -0.216504 0.829504
-0.394061 0.918942 0.0161808
-0.393721 0.919123 -0.0140383
0.515444 0.215549 0.829371
0.765238 0.325487 0.555399
0.902207 0.383469 0.197419
0.90305 0.383811 -0.192845
0.76597 0.325609 -0.554318
-0.511719 -0.217559 0.831151
-0.179304 -0.0762299 0.980836
0.181746 0.0724829 0.98067
0.516636 0.206014 0.831051
0.772986 0.308163 0.554551
0.911481 0.363212 0.193079
0.910844 0.362581 -0.197224
0.772946 0.306949 -0.555281
-0.520364 -0.202974 0.829472
-0.377422 0.925163 0.0403323
-0.379935 0.923365 -0.055196
0.52181 0.199875 0.829316
0.772511 0.307923 0.555346
0.910712 0.362829 0.197378
0.91149 0.363309 -0.192855
0.773106 0.3083 -0.554309
-0.516491 -0.206002 0.831144
-0.180972 -0.0721803 0.980836
0.183333 0.0684347 0.980666
0.521118 0.194503 0.831026
0.779665 0.290921 0.554516
0.919351 0.342813 0.193064
0.918797 0.341946 -0.197194
0.780132 0.288307 -0.555223
-0.527485 -0.184036 0.829392
-0.374608 0.912807 0.162642
-0.368921 0.921636 -0.120349
0.531432 0.173777 0.829085
0.780151 0.288151 0.555277
0.918776 0.341926 0.197328
0.919375 0.342862 -0.192861
0.77978 0.291049 -0.554287
-0.520973 -0.194464 0.831126
-0.182541 -0.0681381 0.980834
0.184821 0.0644 0.98066
0.525306 0.183054 0.83099
0.785891 0.273761 0.554464
0.926701 0.322428 0.193041
0.926315 0.321041 -0.197163
0.787143 0.268692 -0.555166
-0.534377 -0.163618 0.829259
-0.355977 0.917111 0.179407
-0.351251 0.925208 -0.143573
0.539285 0.14948 0.82875
0.787262 0.268243 0.555216
0.926379 0.320778 0.197291
0.926766 0.322358 -0.192847
0.786017 0.273847 -0.554243
-0.525163 -0.182983 0.831097
-0.184008 -0.0641263 0.980831
0.186208 0.0604047 0.980652
0.5292 0.171724 0.830938
0.79166 0.256773 0.554384
0.933503 0.302196 0.193001
0.933316 0.300108 -0.197121
0.793863 0.248344 -0.555074
-0.541728 -0.139233 0.828942
-0.33743 0.920485 0.197099
-0.333013 0.928681 -0.16326
0.548527 0.116962 0.827912
0.794075 0.247569 0.555117
0.933436 0.299653 0.197242
0.933597 0.302027 -0.192813
0.791797 0.256818 -0.554167
-0.529064 -0.171614 0.831048
-0.185378 -0.0601565 0.980824
0.187493 0.0564846 0.980641
0.532794 0.160619 0.830862
0.796951 0.240119 0.554268
0.939722 0.282307 0.192942
0.939781 0.27925 -0.197058
0.80034 0.226954 -0.55493
-0.549856 -0.108333 0.828205
-0.318903 0.923099 0.214918
-0.314599 0.931641 -0.181857
0.559236 0.0723438 0.825846
0.800674 0.22568 0.554968
0.939946 0.278609 0.197174
0.939833 0.282062 -0.192759
0.797094 0.240137 -0.554053
-0.532668 -0.160461 0.830974
-0.186649 -0.0562635 0.980814
0.188675 0.0526892 0.980625
0.53608 0.149884 0.830754
0.80174 0.224019 0.554101
0.945329 0.262981 0.192858
0.945708 0.258536 -0.196966
0.806613 0.204132 -0.554712
-0.558776 -0.0679416 0.826531
-0.299833 0.92632 0.228103
-0.295844 0.934535 -0.197788
0.570527 0.0123399 0.821186
0.807073 0.202224 0.554742
0.945904 0.25773 0.197079
0.945449 0.262682 -0.192679
0.801887 0.224022 -0.553888
-0.535965 -0.149667 0.830868
-0.187821 -0.0524983 0.980799
0.189755 0.0490826 0.980604
0.53905 0.139718 0.830605
0.806005 0.208774 0.553867
0.950296 0.244515 0.192742
0.951099 0.238046 -0.196838
0.812695 0.179384 -0.55439
-0.568017 -0.0145648 0.822888
-0.28 0.930812 0.234926
-0.276549 0.937918 -0.209355
0.580177 -0.0635904 0.812005
0.813248 0.176801 0.554409
0.951307 0.23712 0.196951
0.950417 0.244186 -0.192566
0.806153 0.208764 -0.553657
-0.53895 -0.139417 0.83072
-0.188892 -0.0489269 0.980778
0.190728 0.0457539 0.980576
0.541688 0.130399 0.830403
0.809716 0.194795 0.553547
0.95459 0.22731 0.192581
0.955962 0.21785 -0.196669
0.818578 0.151956 -0.55393
-0.5762 0.0549721 0.815458
-0.259253 0.936831 0.234811
-0.256466 0.94235 -0.214947
0.585095 -0.150634 0.796852
0.819157 0.148799 0.553932
0.956162 0.216866 0.196782
0.954707 0.226967 -0.19241
0.809864 0.194764 -0.553342
-0.54161 -0.129968 0.830522
-0.189858 -0.0456416 0.98075
0.191575 0.0428256 0.980543
0.543959 0.1223 0.830151
0.81283 0.182632 0.553131
0.958171 0.211907 0.192364
0.960298 0.198065 -0.196462
0.824224 0.120479 -0.553298
-0.580724 0.141675 0.801678
-0.237312 0.944494 0.227189
-0.235234 0.948288 -0.21311
0.583112 -0.241087 0.775795
0.824733 0.117042 0.553278
0.960471 0.197112 0.196578
0.958281 0.211558 -0.192201
0.81298 0.18255 -0.552937
-0.54391 -0.121664 0.830277
-0.190709 -0.0427719 0.980714
0.192243 0.040441 0.980514
0.545763 0.115871 0.829889
0.815265 0.172939 0.552662
0.960982 0.199035 0.192091
0.964047 0.179161 -0.196253
0.829483 0.0822333 -0.552446
-0.578082 0.243735 0.778727
-0.21329 0.954101 0.210234
-0.21202 0.956138 -0.202106
0.573561 -0.330732 0.749429
0.829818 0.0790959 0.5524
0.964166 0.178399 0.196364
0.961081 0.198688 -0.191952
0.815419 0.172744 -0.552496
-0.545759 -0.114914 0.830025
-0.191407 -0.0404736 0.980676
0.192615 0.038674 0.980512
0.546867 0.111439 0.82977
0.816814 0.166362 0.552393
0.962858 0.189919 0.191923
0.96691 0.163196 -0.196093
0.833825 0.0312121 -0.551146
-0.562536 0.369587 0.739567
-0.183605 0.966981 0.176737
-0.18347 0.9672 -0.175677
0.554459 -0.425362 0.715292
0.833905 0.0299162 0.551096
0.966958 0.162845 0.196145
0.96296 0.189467 -0.191858
0.816977 0.165887 -0.552295
-0.546931 -0.110006 0.829919
-0.19187 -0.0388769 0.98065
0.192491 0.0373457 0.980588
0.546711 0.109008 0.830195
0.816633 0.164381 0.553253
0.962731 0.189483 0.19299
0.967579 0.159626 -0.19573
0.834652 -0.0632016 -0.547139
-0.469501 0.66542 0.580332
-0.132945 0.985065 0.109421
-0.131756 0.98592 -0.102969
0.456958 -0.693272 0.557282
0.834625 -0.0650131 0.546968
0.96784 0.157973 0.195782
0.962943 0.188422 -0.192969
0.816818 0.163389 -0.553274
-0.546882 -0.106971 0.830347
-0.19193 -0.0379745 0.980674
0.191624 0.0343031 0.980869
0.544972 0.10025 0.83244
0.816119 0.150287 0.558
0.965034 0.171456 0.198273
0.970764 0.140701 -0.194476
0.829311 0.00962065 -0.558704
-0.555313 0.00995917 0.831582
-0.195151 0.00311606 0.980768
0.195142 -0.00167898 0.980774
0.555286 -0.0123596 0.831568
0.829259 0.00814981 0.558805
0.970964 0.138879 0.194784
0.965315 0.170116 -0.198062
0.816386 0.149022 -0.557949
-0.545324 -0.0982605 0.832446
-0.191151 -0.0352447 0.980928
0.191922 0.0316527 0.9809
0.545635 0.0929525 0.832852
0.817316 0.139509 0.559045
0.967027 0.158389 0.19943
0.97242 0.127907 -0.195036
0.826615 0.0413313 -0.561247
-0.550295 -0.004077 0.83496
-0.192738 -0.000139695 0.98125
0.193016 0.000458546 0.981196
0.550127 5.33125e-05 0.835081
0.826524 0.0413226 0.561383
0.972474 0.127055 0.195325
0.967294 0.157142 -0.199121
0.817631 0.138341 -0.558874
-0.546031 -0.0912847 0.832777
-0.191353 -0.0327412 0.980975
0.190301 0.0331271 0.981167
0.540407 0.100415 0.83539
0.810666 0.153186 0.565115
0.964601 0.166018 0.204898
0.974518 0.0895849 -0.205645
0.815173 -0.0189544 -0.578907
-0.538964 0.0286864 0.84184
-0.188399 0.0118772 0.982021
0.188682 -0.0098421 0.981989
0.537368 -0.0383458 0.842475
0.814967 -0.0202825 0.579152
0.974527 0.0889927 0.205858
0.965001 0.164292 -0.204402
0.81153 0.150416 -0.564619
-0.54192 -0.0964124 0.834882
-0.189229 -0.0358094 0.98128
0.0154204 0.0128668 0.999798
0.00257188 0.000343963 0.999997
</DataArray>
<DataArray type="Float64" Name="cell vector length" format="ascii">
0.131304 0.113495 0.100646 0.0807067 0.0581734 0.100324 0.157753 0.15792 0.15379 0.150631 0.102531 0.0582846 0.0796499 0.0983885 0.13386 0.139824 0.39429 0.371531 0.346089 0.320089 0.300913 0.32444 0.392492 0.425837 0.420334 0.377193 0.322469 0.301007 0.320965 0.348878 0.39206 0.401543 0.493499 0.472387 0.444653 0.411558 0.378049 0.400997 0.487089 0.533624 0.529877 0.47611 0.399696 0.378384 0.412557 0.446586 0.488394 0.498753 0.51863 0.496677 0.465442 0.424264 0.369317 0.257314 0.112351 0.0846459 0.0840385 0.110898 0.258883 0.369664 0.425029 0.466767 0.511204 0.523257 0.531663 0.508323 0.472612 0.421919 0.348478 0.232689 0.101825 0.070936 0.0695468 0.102369 0.234305 0.348925 0.422537 0.473516 0.522066 0.535928 0.540075 0.514954 0.474545 0.415257 0.330058 0.212687 0.0947136 0.0516167 0.0510123 0.0893092 0.213548 0.330625 0.415813 0.475169 0.528272 0.544147 0.546026 0.519322 0.47511 0.409498 0.317118 0.198005 0.0889873 0.0365721 0.0358838 0.0776931 0.198507 0.317556 0.409945 0.475549 0.532435 0.550005 0.55017 0.522235 0.475242 0.405261 0.308287 0.187883 0.0848521 0.0249501 0.024447 0.0688435 0.187843 0.308442 0.405529 0.475534 0.535271 0.554114 0.55302 0.524163 0.475188 0.40222 0.302199 0.180838 0.0825372 0.0166187 0.0162462 0.062677 0.180401 0.302076 0.40229 0.475338 0.537184 0.556957 0.554955 0.525415 0.475034 0.400025 0.297979 0.176396 0.0815862 0.0109236 0.0106598 0.0588513 0.175673 0.297612 0.399905 0.475051 0.538454 0.5589 0.556226 0.52618 0.47484 0.398456 0.295053 0.173035 0.08087 0.00704404 0.00686211 0.0561587 0.17213 0.294484 0.398165 0.474733 0.53926 0.560189 0.557048 0.526624 0.47462 0.397307 0.292986 0.170663 0.0804263 0.00449235 0.00437075 0.054412 0.169641 0.292251 0.396864 0.474403 0.539761 0.561035 0.557569 0.52686 0.47439 0.396448 0.291508 0.168974 0.0800681 0.00295156 0.00287275 0.0531787 0.167867 0.290637 0.395876 0.474079 0.540066 0.561585 0.557874 0.526947 0.474161 0.395806 0.290452 0.167757 0.0797452 0.00226464 0.00203721 0.0522643 0.166573 0.289462 0.395128 0.473779 0.540237 0.561926 0.558023 0.52693 0.473937 0.395326 0.289713 0.166899 0.0793342 0.00233944 0.00193509 0.0514221 0.165593 0.288626 0.394581 0.473511 0.540316 0.562114 0.558059 0.526838 0.473714 0.394949 0.289166 0.166264 0.0791579 0.00179793 0.00474629 0.0508347 0.164931 0.288061 0.394174 0.47326 0.540323 0.562189 0.558003 0.526692 0.473507 0.394673 0.288778 0.165754 0.0788344 0.00351958 0.0111458 0.048635 0.164455 0.287678 0.393879 0.473034 0.540278 0.562173 0.557851 0.526491 0.473329 0.394538 0.28861 0.165366 0.0783617 0.00272199 0.0058748 0.0493347 0.163973 0.287439 0.393724 0.47286 0.540191 0.562068 0.557588 0.52622 0.473164 0.394528 0.288652 0.165178 0.0779024 0.00404812 0.00415229 0.0483632 0.163706 0.287427 0.393706 0.472712 0.540039 0.561853 0.557164 0.52584 0.472997 0.394666 0.288993 0.165331 0.0775613 0.00546545 0.00563327 0.0475997 0.163853 0.287785 0.393877 0.472582 0.539785 0.561479 0.556504 0.525298 0.472828 0.395045 0.289822 0.166028 0.0773057 0.00766602 0.0079269 0.0468505 0.164467 0.288655 0.394336 0.472487 0.539386 0.560875 0.555507 0.52452 0.472652 0.39576 0.291331 0.167474 0.0772175 0.0108974 0.0112082 0.0464964 0.165811 0.290227 0.395166 0.472418 0.538773 0.559942 0.554025 0.5234 0.472455 0.396945 0.29381 0.170014 0.0774928 0.0155796 0.0159041 0.0471473 0.168294 0.292813 0.3965 0.472355 0.537841 0.558535 0.551847 0.521782 0.472219 0.398801 0.297688 0.174152 0.0784908 0.0222786 0.0225739 0.0497637 0.172484 0.296857 0.398531 0.472271 0.536436 0.556445 0.548668 0.519433 0.471904 0.401613 0.303585 0.180573 0.0808289 0.0316838 0.0318963 0.0554426 0.179128 0.302981 0.401534 0.472122 0.53434 0.553375 0.544027 0.515981 0.471382 0.405695 0.312346 0.190143 0.0853598 0.0446128 0.0447006 0.0649505 0.189112 0.312024 0.4058 0.47177 0.531199 0.548877 0.53703 0.510568 0.469969 0.410848 0.324714 0.203495 0.0924698 0.0622953 0.0622245 0.0781018 0.20306 0.324682 0.411088 0.470526 0.526205 0.542086 0.524574 0.499681 0.463643 0.412992 0.338328 0.217905 0.0988874 0.0887038 0.0889181 0.0920286 0.217605 0.338331 0.413253 0.4644 0.516022 0.529964 0.488329 0.463318 0.429635 0.385965 0.327145 0.200446 0.0920855 0.150475 0.150598 0.0922968 0.202481 0.327179 0.386218 0.430612 0.481277 0.494376 0.465807 0.441014 0.408814 0.370245 0.331359 0.357203 0.457434 0.505372 0.499889 0.441745 0.355966 0.331642 0.370681 0.409971 0.460023 0.472198 0.427617 0.401981 0.369166 0.332576 0.305877 0.326658 0.408354 0.446597 0.439312 0.386999 0.325491 0.30633 0.333115 0.370387 0.421985 0.434362 0.197296 0.176201 0.148405 0.116693 0.103247 0.138711 0.227126 0.270827 0.265305 0.210047 0.140211 0.104401 0.116833 0.147223 0.19521 0.203213 0.0342029 0.0152124 
</DataArray>
<DataArray type="Float64" Name="cell variable 4" format="ascii">
836.504 826.085 820.794 815.774 810.072 829.909 851.927 839.604 836.096 843.797 831.005 810.103 815.118 818.267 839.707 841.021 1124.96 1104.21 1091.25 1083.83 1081.16 1097.71 1136.72 1136.11 1129.73 1116.76 1098.07 1081.28 1083.56 1091.24 1132.82 1134.39 1328.8 1305.14 1289.64 1279.73 1274.75 1289.55 1338.79 1342.72 1336.37 1318.67 1290.02 1274.94 1279.73 1289.81 1339.23 1339.69 1376.29 1349.42 1329.01 1313.37 1301.41 1304.38 1357.52 1442.92 1440 1350.54 1304.07 1301.12 1313.26 1329.21 1384.69 1387.57 1386.81 1359.83 1339.77 1325.62 1315.62 1312.08 1348.27 1413.27 1410.86 1344.43 1311.5 1315.25 1325.53 1339.96 1395.36 1398.13 1390.27 1362.39 1340.98 1325.75 1314.88 1309.5 1343.89 1386.33 1385.66 1333.66 1309.64 1314.79 1325.73 1341.1 1397.96 1401.59 1392.59 1363.57 1340.53 1324.1 1312.78 1307.07 1341.76 1367.06 1366.62 1324.07 1307.46 1312.87 1324.15 1340.64 1399.26 1403.96 1394.3 1364.3 1339.9 1322.53 1311.02 1305.34 1339.75 1353.13 1352.95 1316.57 1305.65 1311.18 1322.67 1340.05 1400.21 1405.76 1395.62 1364.82 1339.32 1321.25 1309.61 1303.92 1338.81 1343.52 1343.54 1311.16 1304.22 1309.81 1321.42 1339.5 1401 1407.19 1396.64 1365.18 1338.84 1320.25 1308.51 1302.79 1338.43 1337.17 1337.35 1307.38 1303.08 1308.73 1320.45 1339.04 1401.66 1408.33 1397.33 1365.35 1338.46 1319.5 1307.66 1301.88 1338.28 1332.95 1333.21 1304.8 1302.16 1307.89 1319.72 1338.67 1402.13 1409.15 1397.8 1365.4 1338.18 1318.97 1307.03 1301.16 1338.23 1330.22 1330.54 1303.07 1301.43 1307.26 1319.2 1338.39 1402.48 1409.76 1398.14 1365.39 1337.9 1318.53 1306.51 1300.55 1338.18 1328.6 1328.95 1301.87 1300.81 1306.75 1318.76 1338.12 1402.75 1410.23 1398.35 1365.3 1337.63 1318.17 1306.1 1300.05 1338.15 1327.72 1328.07 1301 1300.28 1306.33 1318.41 1337.87 1402.95 1410.57 1398.44 1365.14 1337.36 1317.86 1305.77 1299.67 1338.15 1327.63 1327.81 1300.2 1299.84 1306.01 1318.13 1337.61 1403.06 1410.78 1398.41 1364.93 1337.1 1317.58 1305.43 1299.26 1338.15 1327.41 1327.7 1299.8 1299.54 1305.71 1317.84 1337.32 1403.09 1410.87 1398.27 1364.66 1336.86 1317.37 1305.14 1298.84 1338.13 1330.22 1332.63 1299.62 1299.27 1305.44 1317.6 1337.06 1403.05 1410.83 1398 1364.31 1336.63 1317.27 1305.05 1298.63 1338.03 1328.74 1329.04 1298.8 1298.92 1305.34 1317.53 1336.85 1402.93 1410.66 1397.62 1363.91 1336.4 1317.23 1305.01 1298.43 1337.9 1330.05 1330.45 1298.15 1298.6 1305.26 1317.5 1336.65 1402.75 1410.38 1397.13 1363.45 1336.17 1317.19 1304.94 1298.17 1337.81 1331.78 1332.4 1297.8 1298.39 1305.18 1317.44 1336.41 1402.47 1409.98 1396.51 1362.91 1335.92 1317.2 1304.95 1298.02 1337.75 1334.27 1335.06 1297.4 1298.26 1305.21 1317.45 1336.16 1402.09 1409.43 1395.73 1362.28 1335.69 1317.3 1305.07 1297.94 1337.72 1337.88 1338.81 1297.27 1298.19 1305.34 1317.55 1335.92 1401.61 1408.72 1394.75 1361.56 1335.49 1317.53 1305.34 1297.95 1337.81 1343.13 1344.19 1297.93 1298.21 1305.62 1317.78 1335.71 1401.01 1407.8 1393.52 1360.72 1335.37 1317.97 1305.81 1298.07 1338.23 1350.77 1351.89 1300.14 1298.36 1306.09 1318.2 1335.57 1400.29 1406.63 1391.98 1359.74 1335.34 1318.67 1306.55 1298.33 1339.37 1361.76 1362.86 1304.72 1298.65 1306.8 1318.88 1335.52 1399.4 1405.12 1389.87 1358.43 1335.3 1319.55 1307.45 1298.6 1341.77 1377.3 1378.29 1312.23 1298.97 1307.67 1319.71 1335.44 1398.15 1403.04 1386.03 1355.59 1333.88 1319.17 1307.15 1297.72 1345.37 1398.69 1399.53 1322.33 1298.21 1307.31 1319.25 1333.98 1395.3 1399.22 1372.84 1342.87 1321.74 1307.53 1296.07 1288.08 1345.17 1427.17 1427.77 1331.86 1287.87 1295.91 1307.53 1321.86 1382.3 1385.96 1300.74 1270.78 1247.87 1230.55 1216.19 1216.66 1315.15 1468.95 1466.14 1305.89 1216.39 1215.85 1230.43 1247.87 1307.85 1313.11 1239.8 1213.01 1194.39 1182.28 1174.94 1187.13 1249.47 1257.5 1249.2 1224.66 1187.63 1174.97 1182.18 1194.26 1248.17 1251.56 1113 1087.2 1067.22 1052.32 1043.11 1050.6 1102.39 1106.98 1096.78 1072.12 1050.94 1043.34 1052.28 1067.29 1118.48 1123.62 787.891 779.676 779.695 785.604 794.74 811.705 854.974 863.857 857.55 835.638 813.095 795.07 785.446 778.073 798.506 793.584 610.292 745.326 
</DataArray>
<DataArray type="Float64" Name="cell variable 5" format="ascii">
0.00715935 0.00715935 0.00715935 0.00715935 0.00715935 0.00715935 0.00715935 0.00715935 0.00715935 0.00715935 0.00715935 0.00715935 0.00715935 0.00715935 0.00715935 0.00715935 0.00715935 0.00715935 0.00715935 0.00715935 0.00715935 0.00715935 0.00715935 0.00715935 0.00715935 0.00715935 0.00715935 0.00715935 0.00715935 0.00715935 0.00715935 0.00715935 0.00715935 0.00715935 0.00715935 0.00715935 0.00715935 0.00715935 0.00715935 0.00715935 0.00715935 0.00715935 0.00715935 0.00715935 0.00715935 0.00715935 0.00715935 0.00715935 0.0108202 0.0100167 0.00872009 0.00748391 0.00715935 0.00715935 0.00715935 0.00715935 0.00715935 0.00715935 0.00715935 0.00715935 0.00748391 0.00872009 0.0100167 0.0108202 0.0122425 0.0111272 0.00932625 0.0076096 0.00715935 0.00715935 0.00715935 0.00715935 0.00715935 0.00715935 0.00715935 0.00715935 0.0076096 0.00932625 0.0111272 0.0122425 0.0130666 0.0117716 0.00967785 0.00768278 0.00715935 0.00715935 0.00715935 0.00715935 0.00715935 0.00715935 0.00715935 0.00715935 0.00768278 0.00967785 0.0117716 0.0130666 0.0136664 0.0122377 0.009934 0.00773687 0.00715935 0.00715935 0.00715935 0.00715935 0.00715935 0.00715935 0.00715935 0.00715935 0.00773687 0.009934 0.0122377 0.0136664 0.0141342 0.0126036 0.0101329 0.00777824 0.00715935 0.00715935 0.00715935 0.00715935 0.00715935 0.00715935 0.00715935 0.00715935 0.00777824 0.0101329 0.0126036 0.0141342 0.0145112 0.012898 0.0102936 0.00781165 0.00715935 0.00715935 0.00715935 0.00715935 0.00715935 0.00715935 0.00715935 0.00715935 0.00781165 0.0102936 0.012898 0.0145112 0.0148199 0.0131382 0.0104256 0.0078387 0.00715935 0.00715935 0.00715935 0.00715935 0.00715935 0.00715935 0.00715935 0.00715935 0.0078387 0.0104256 0.0131382 0.0148199 0.0150696 0.0133339 0.0105322 0.00786097 0.00715935 0.00715935 0.00715935 0.00715935 0.00715935 0.00715935 0.00715935 0.00715935 0.00786097 0.0105322 0.0133339 0.0150696 0.0152701 0.0134914 0.0106181 0.00787847 0.00715935 0.00715935 0.00715935 0.00715935 0.00715935 0.00715935 0.00715935 0.00715935 0.00787847 0.0106181 0.0134914 0.0152701 0.015426 0.0136123 0.0106833 0.00789279 0.00715935 0.00715935 0.00715935 0.00715935 0.00715935 0.00715935 0.00715935 0.00715935 0.00789279 0.0106833 0.0136123 0.015426 0.0155406 0.0137014 0.0107327 0.00790234 0.00715935 0.00715935 0.00715935 0.00715935 0.00715935 0.00715935 0.00715935 0.00715935 0.00790234 0.0107327 0.0137014 0.0155406 0.0156169 0.0137603 0.0107645 0.00791029 0.00715935 0.00715935 0.00715935 0.00715935 0.00715935 0.00715935 0.00715935 0.00715935 0.00791029 0.0107645 0.0137603 0.0156169 0.0156535 0.0137905 0.0107804 0.00791347 0.00715935 0.00715935 0.00715935 0.00715935 0.00715935 0.00715935 0.00715935 0.00715935 0.00791347 0.0107804 0.0137905 0.0156535 0.0156535 0.0137905 0.0107804 0.00791347 0.00715935 0.00715935 0.00715935 0.00715935 0.00715935 0.00715935 0.00715935 0.00715935 0.00791347 0.0107804 0.0137905 0.0156535 0.0156169 0.0137603 0.0107645 0.00791029 0.00715935 0.00715935 0.00715935 0.00715935 0.00715935 0.00715935 0.00715935 0.00715935 0.00791029 0.0107645 0.0137603 0.0156169 0.0155406 0.0137014 0.0107327 0.00790234 0.00715935 0.00715935 0.00715935 0.00715935 0.00715935 0.00715935 0.00715935 0.00715935 0.00790234 0.0107327 0.0137014 0.0155406 0.015426 0.0136123 0.0106833 0.00789279 0.00715935 0.00715935 0.00715935 0.00715935 0.00715935 0.00715935 0.00715935 0.00715935 0.00789279 0.0106833 0.0136123 0.015426 0.0152701 0.0134914 0.0106181 0.00787847 0.00715935 0.00715935 0.00715935 0.00715935 0.00715935 0.00715935 0.00715935 0.00715935 0.00787847 0.0106181 0.0134914 0.0152701 0.0150696 0.0133339 0.0105322 0.00786097 0.00715935 0.00715935 0.00715935 0.00715935 0.00715935 0.00715935 0.00715935 0.00715935 0.00786097 0.0105322 0.0133339 0.0150696 0.0148199 0.0131382 0.0104256 0.0078387 0.00715935 0.00715935 0.00715935 0.00715935 0.00715935 0.00715935 0.00715935 0.00715935 0.0078387 0.0104256 0.0131382 0.0148199 0.0145112 0.012898 0.0102936 0.00781165 0.00715935 0.00715935 0.00715935 0.00715935 0.00715935 0.00715935 0.00715935 0.00715935 0.00781165 0.0102936 0.012898 0.0145112 0.0141342 0.0126036 0.0101329 0.00777824 0.00715935 0.00715935 0.00715935 0.00715935 0.00715935 0.00715935 0.00715935 0.00715935 0.00777824 0.0101329 0.0126036 0.0141342 0.0136664 0.0122377 0.009934 0.00773687 0.00715935 0.00715935 0.00715935 0.00715935 0.00715935 0.00715935 0.00715935 0.00715935 0.00773687 0.009934 0.0122377 0.0136664 0.0130666 0.0117716 0.00967785 0.00768278 0.00715935 0.00715935 0.00715935 0.00715935 0.00715935 0.00715935 0.00715935 0.00715935 0.00768278 0.00967785 0.0117716 0.0130666 0.0122425 0.0111272 0.00932625 0.0076096 0.00715935 0.00715935 0.00715935 0.00715935 0.00715935 0.00715935 0.00715935 0.00715935 0.0076096 0.00932625 0.0111272 0.0122425 0.0108202 0.0100167 0.00872009 0.00748391 0.00715935 0.00715935 0.00715935 0.00715935 0.00715935 0.00715935 0.00715935 0.00715935 0.00748391 0.00872009 0.0100167 0.0108202 0.00715935 0.00715935 0.00715935 0.00715935 0.00715935 0.00715935 0.00715935 0.00715935 0.00715935 0.00715935 0.00715935 0.00715935 0.00715935 0.00715935 0.00715935 0.00715935 0.00715935 0.00715935 0.00715935 0.00715935 0.00715935 0.00715935 0.00715935 0.00715935 0.00715935 0.00715935 0.00715935 0.00715935 0.00715935 0.00715935 0.00715935 0.00715935 0.00715935 0.00715935 0.00715935 0.00715935 0.00715935 0.00715935 0.00715935 0.00715935 0.00715935 0.00715935 0.00715935 0.00715935 0.00715935 0.00715935 0.00715935 0.00715935 0.00715935 0.00715935 
</DataArray>
<DataArray type="Float64" Name="cell variable 6" format="ascii">
1 1 1 1 1 1 1 1 1 1 1 1 1 1 1 1 1 1 1 1 1 1 1 1 1 1 1 1 1 1 1 1 1 1 1 1 1 1 1 1 1 1 1 1 1 1 1 1 1 1 1 1 1 1 1 1 1 1 1 1 1 1 1 1 1 1 1 1 1 1 1 1 1 1 1 1 1 1 1 1 1 1 1 1 1 1 1 1 1 1 1 1 1 1 1 1 1 1 1 1 1 1 1 1 1 1 1 1 1 1 1 1 1 1 1 1 1 1 1 1 1 1 1 1 1 1 1 1 1 1 1 1 1 1 1 1 1 1 1 1 1 1 1 1 1 1 1 1 1 1 1 1 1 1 1 1 1 1 1 1 1 1 1 1 1 1 1 1 1 1 1 1 1 1 1 1 1 1 1 1 1 1 1 1 1 1 1 1 1 1 1 1 1 1 1 1 1 1 1 1 1 1 1 1 1 1 1 1 1 1 1 1 1 1 1 1 1 1 1 1 1 1 1 1 1 1 1 1 1 1 1 1 1 1 1 1 1 1 1 1 1 1 1 1 1 1 1 1 1 1 1 1 1 1 1 1 1 1 1 1 1 1 1 1 1 1 1 1 1 1 1 1 1 1 1 1 1 1 1 1 1 1 1 1 1 1 1 1 1 1 1 1 1 1 1 1 1 1 1 1 1 1 1 1 1 1 1 1 1 1 1 1 1 1 1 1 1 1 1 1 1 1 1 1 1 1 1 1 1 1 1 1 1 1 1 1 1 1 1 1 1 1 1 1 1 1 1 1 1 1 1 1 1 1 1 1 1 1 1 1 1 1 1 1 1 1 1 1 1 1 1 1 1 1 1 1 1 1 1 1 1 1 1 1 1 1 1 1 1 1 1 1 1 1 1 1 1 1 1 1 1 1 1 1 1 1 1 1 1 1 1 1 1 1 1 1 1 1 1 1 1 1 1 1 1 1 1 1 1 1 1 1 1 1 1 1 1 1 1 1 1 1 1 1 1 1 1 1 1 1 1 1 1 1 1 1 1 1 1 1 1 1 1 1 1 1 1 1 1 1 1 1 1 1 1 1 1 1 1 1 1 1 1 1 1 1 1 1 1 1 1 1 1 1 1 1 1 1 1 1 1 1 1 1 1 1 1 1 1 1 1 1 1 1 
</DataArray>
<DataArray type="Float64" Name="cell variable 7" format="ascii">
0 0 0 0 0 0 0 0 0 0 0 0 0 0 0 0 0 0 0 0 0 0 0 0 0 0 0 0 0 0 0 0 0 0 0 0 0 0 0 0 0 0 0 0 0 0 0 0 0 0 0 0 0 0 0 0 0 0 0 0 0 0 0 0 0 0 0 0 0 0 0 0 0 0 0 0 0 0 0 0 0 0 0 0 0 0 0 0 0 0 0 0 0 0 0 0 0 0 0 0 0 0 0 0 0 0 0 0 0 0 0 0 0 0 0 0 0 0 0 0 0 0 0 0 0 0 0 0 0 0 0 0 0 0 0 0 0 0 0 0 0 0 0 0 0 0 0 0 0 0 0 0 0 0 0 0 0 0 0 0 0 0 0 0 0 0 0 0 0 0 0 0 0 0 0 0 0 0 0 0 0 0 0 0 0 0 0 0 0 0 0 0 0 0 0 0 0 0 0 0 0 0 0 0 0 0 0 0 0 0 0 0 0 0 0 0 0 0 0 0 0 0 0 0 0 0 0 0 0 0 0 0 0 0 0 0 0 0 0 0 0 0 0 0 0 0 0 0 0 0 0 0 0 0 0 0 0 0 0 0 0 0 0 0 0 0 0 0 0 0 0 0 0 0 0 0 0 0 0 0 0 0 0 0 0 0 0 0 0 0 0 0 0 0 0 0 0 0 0 0 0 0 0 0 0 0 0 0 0 0 0 0 0 0 0 0 0 0 0 0 0 0 0 0 0 0 0 0 0 0 0 0 0 0 0 0 0 0 0 0 0 0 0 0 0 0 0 0 0 0 0 0 0 0 0 0 0 0 0 0 0 0 0 0 0 0 0 0 0 0 0 0 0 0 0 0 0 0 0 0 0 0 0 0 0 0 0 0 0 0 0 0 0 0 0 0 0 0 0 0 0 0 0 0 0 0 0 0 0 0 0 0 0 0 0 0 0 0 0 0 0 0 0 0 0 0 0 0 0 0 0 0 0 0 0 0 0 0 0 0 0 0 0 0 0 0 0 0 0 0 0 0 0 0 0 0 0 0 0 0 0 0 0 0 0 0 0 0 0 0 0 0 0 0 0 0 0 0 0 0 0 0 0 0 0 0 0 0 0 0 0 0 0 0 0 0 0 0 0 0 0 0 0 0 0 0 0 0 0 0 0 0 1 1 
</DataArray>
<DataArray type="Float64" Name="cell variable 8" format="ascii">
11.25 33.75 56.25 78.75 101.25 123.75 146.25 168.75 191.25 213.75 236.25 258.75 281.25 303.75 326.25 348.75 11.25 33.75 56.25 78.75 101.25 123.75 146.25 168.75 191.25 213.75 236.25 258.75 281.25 303.75 326.25 348.75 11.25 33.75 56.25 78.75 101.25 123.75 146.25 168.75 191.25 213.75 236.25 258.75 281.25 303.75 326.25 348.75 11.25 33.75 56.25 78.75 101.25 123.75 146.25 168.75 191.25 213.75 236.25 258.75 281.25 303.75 326.25 348.75 11.25 33.75 56.25 78.75 101.25 123.75 146.25 168.75 191.25 213.75 236.25 258.75 281.25 303.75 326.25 348.75 11.25 33.75 56.25 78.75 101.25 123.75 146.25 168.75 191.25 213.75 236.25 258.75 281.25 303.75 326.25 348.75 11.25 33.75 56.25 78.75 101.25 123.75 146.25 168.75 191.25 213.75 236.25 258.75 281.25 303.75 326.25 348.75 11.25 33.75 56.25 78.75 101.25 123.75 146.25 168.75 191.25 213.75 236.25 258.75 281.25 303.75 326.25 348.75 11.25 33.75 56.25 78.75 101.25 123.75 146.25 168.75 191.25 213.75 236.25 258.75 281.25 303.75 326.25 348.75 11.25 33.75 56.25 78.75 101.25 123.75 146.25 168.75 191.25 213.75 236.25 258.75 281.25 303.75 326.25 348.75 11.25 33.75 56.25 78.75 101.25 123.75 146.25 168.75 191.25 213.75 236.25 258.75 281.25 303.75 326.25 348.75 11.25 33.75 56.25 78.75 101.25 123.75 146.25 168.75 191.25 213.75 236.25 258.75 281.25 303.75 326.25 348.75 11.25 33.75 56.25 78.75 101.25 123.75 146.25 168.75 191.25 213.75 236.25 258.75 281.25 303.75 326.25 348.75 11.25 33.75 56.25 78.75 101.25 123.75 146.25 168.75 191.25 213.75 236.25 258.75 281.25 303.75 326.25 348.75 11.25 33.75 56.25 78.75 101.25 123.75 146.25 168.75 191.25 213.75 236.25 258.75 281.25 303.75 326.25 348.75 11.25 33.75 56.25 78.75 101.25 123.75 146.25 168.75 191.25 213.75 236.25 258.75 281.25 303.75 326.25 348.75 11.25 33.75 56.25 78.75 101.25 123.75 146.25 168.75 191.25 213.75 236.25 258.75 281.25 303.75 326.25 348.75 11.25 33.75 56.25 78.75 101.25 123.75 146.25 168.75 191.25 213.75 236.25 258.75 281.25 303.75 326.25 348.75 11.25 33.75 56.25 78.75 101.25 123.75 146.25 168.75 191.25 213.75 236.25 258.75 281.25 303.75 326.25 348.75 11.25 33.75 56.25 78.75 101.25 123.75 146.25 168.75 191.25 213.75 236.25 258.75 281.25 303.75 326.25 348.75 11.25 33.75 56.25 78.75 101.25 123.75 146.25 168.75 191.25 213.75 236.25 258.75 281.25 303.75 326.25 348.75 11.25 33.75 56.25 78.75 101.25 123.75 146.25 168.75 191.25 213.75 236.25 258.75 281.25 303.75 326.25 348.75 11.25 33.75 56.25 78.75 101.25 123.75 146.25 168.75 191.25 213.75 236.25 258.75 281.25 303.75 326.25 348.75 11.25 33.75 56.25 78.75 101.25 123.75 146.25 168.75 191.25 213.75 236.25 258.75 281.25 303.75 326.25 348.75 11.25 33.75 56.25 78.75 101.25 123.75 146.25 168.75 191.25 213.75 236.25 258.75 281.25 303.75 326.25 348.75 11.25 33.75 56.25 78.75 101.25 123.75 146.25 168.75 191.25 213.75 236.25 258.75 281.25 303.75 326.25 348.75 11.25 33.75 56.25 78.75 101.25 123.75 146.25 168.75 191.25 213.75 236.25 258.75 281.25 303.75 326.25 348.75 11.25 33.75 56.25 78.75 101.25 123.75 146.25 168.75 191.25 213.75 236.25 258.75 281.25 303.75 326.25 348.75 11.25 33.75 56.25 78.75 101.25 123.75 146.25 168.75 191.25 213.75 236.25 258.75 281.25 303.75 326.25 348.75 11.25 33.75 56.25 78.75 101.25 123.75 146.25 168.75 191.25 213.75 236.25 258.75 281.25 303.75 326.25 348.75 11.25 33.75 56.25 78.75 101.25 123.75 146.25 168.75 191.25 213.75 236.25 258.75 281.25 303.75 326.25 348.75 11.25 33.75 56.25 78.75 101.25 123.75 146.25 168.75 191.25 213.75 236.25 258.75 281.25 303.75 326.25 348.75 0 0 
</DataArray>
</CellData>
</Piece>
</UnstructuredGrid>
</VTKFile>
