<VTKFile type="UnstructuredGrid" version="0.1">
<UnstructuredGrid>
<Piece  NumberOfPoints="    2080" NumberOfCells="     514">
<Points>
<DataArray type="Float64" NumberOfComponents="3" format="ascii">
-70.1214 988.231 1.4032
-66.2034 991.51 27.1648
-52.3085 966.528 29.3013
-56.5853 962.989 1.43194
-65.3229 992.236 29.9181
-54.0581 1001.49 51.7541
-39.2096 977.267 55.6382
-51.428 967.254 32.0545
-52.4253 1002.82 53.8585
-35.4949 1016.6 68.4218
-19.255 993.496 73.4646
-37.5768 978.599 57.7426
-33.3583 1018.33 69.5578
-13.3896 1034.55 74.6405
4.50484 1012.74 80.095
-17.1184 995.231 74.6006
-11.0808 1036.43 74.6374
8.8357 1052.68 69.4949
28.3691 1032.2 74.5525
6.81366 1014.62 80.092
10.9599 1054.43 68.3572
27.7484 1068.35 53.8014
48.661 1049.08 57.7077
30.4933 1033.95 73.4148
29.3638 1069.71 51.6994
40.5036 1079.21 29.9088
62.2892 1060.8 32.0111
50.2763 1050.44 55.6056
41.372 1079.96 27.1554
45.2652 1083.35 1.39308
67.3417 1065.24 1.38468
63.1576 1061.55 29.2578
45.2647 1083.35 -1.59002
41.3628 1079.98 -27.355
63.1509 1061.57 -29.4656
67.3412 1065.24 -1.59843
40.4942 1079.23 -30.1076
29.3551 1069.73 -51.9005
50.2804 1050.47 -55.7938
62.2823 1060.82 -32.2183
27.7411 1068.37 -54.0019
10.965 1054.43 -68.5529
30.5111 1033.96 -73.6
48.6664 1049.11 -57.8952
8.8421 1052.68 -69.6904
-11.0642 1036.41 -74.8291
6.84427 1014.61 -80.2776
28.3881 1032.21 -74.7375
-13.3719 1034.53 -74.8319
-33.3318 1018.3 -69.7459
-17.0741 995.21 -74.7849
4.5366 1012.73 -80.2804
-35.4662 1016.57 -68.6094
-52.3612 1002.76 -54.0329
-37.5172 978.571 -57.917
-19.2084 993.473 -73.6484
-53.9931 1001.43 -51.9267
-65.2536 992.181 -30.0909
-51.3894 967.223 -32.1879
-39.149 977.236 -55.8108
-66.1376 991.458 -27.3356
-70.1187 988.229 -1.57888
-56.5826 962.986 -1.55015
-52.2734 966.5 -29.4326
-54.7586 960.182 1.50816
-50.4819 963.721 29.3775
-31.0983 937.987 29.9894
-35.4821 934.383 1.51591
-37.3361 974.494 55.8511
-17.6729 948.932 56.9777
-30.171 938.747 32.8794
-49.5545 964.481 32.2675
-17.298 990.787 73.7813
2.7807 965.474 75.2684
-15.9565 950.328 59.1858
-35.6197 975.89 58.0592
6.57004 1010.11 80.4683
27.1454 985.099 82.1045
5.0255 967.29 76.461
-15.0532 992.603 74.9739
30.5515 1029.66 74.9271
51.6135 1004.96 76.4552
29.5714 987.065 82.1028
8.99602 1012.08 80.4666
50.946 1046.63 58.028
72.2982 1022.33 59.209
53.8404 1006.8 75.2631
32.7783 1031.5 73.7351
64.6453 1058.43 32.2267
86.0549 1034.49 32.8486
73.9845 1023.76 57.0022
52.6324 1048.07 55.8212
69.7323 1062.91 1.45969
91.1491 1039.1 1.45804
86.9579 1035.28 29.9547
65.5482 1059.22 29.3329
65.5417 1059.24 -29.5414
86.9522 1035.28 -30.1584
91.1487 1039.1 -1.67585
69.7319 1062.91 -1.67419
52.6373 1048.1 -56.0085
73.9986 1023.78 -57.1682
86.0497 1034.49 -33.05
64.6392 1058.45 -32.433
32.7972 1031.5 -73.9186
53.8642 1006.81 -75.4311
72.3139 1022.34 -59.3735
50.9526 1046.66 -58.2138
9.02759 1012.07 -80.6509
29.6044 987.062 -82.273
51.6384 1004.97 -76.6233
30.5714 1029.67 -75.1108
-15.0079 992.582 -75.1572
5.06727 967.276 -76.6316
27.1796 985.094 -82.2748
6.60273 1010.11 -80.6527
-35.5604 975.863 -58.2329
-15.9106 950.309 -59.3558
2.82348 965.459 -75.4388
-17.2517 990.765 -73.9644
-49.5181 964.452 -32.3992
-30.1538 938.72 -33.0006
-17.6279 948.912 -57.1449
-37.2777 974.466 -56.0221
-50.4481 963.694 -29.5058
-54.7574 960.18 -1.62335
-35.4809 934.382 -1.61559
-31.0839 937.961 -30.1072
-33.2816 931.56 1.53605
-28.8978 935.164 30.0095
-8.52487 910.004 30.1177
-12.9371 906.391 1.53951
-27.9567 935.93 32.9358
-15.4586 946.116 57.034
4.9941 920.97 57.2266
-7.58376 910.771 33.0439
-13.7167 947.524 59.2701
5.02048 962.67 75.3527
25.6104 937.517 75.5904
6.73599 922.378 59.4627
7.29973 964.5 76.5606
29.4196 982.308 82.2042
50.1871 957.112 82.4392
27.8897 939.347 76.7983
31.8829 984.289 82.2021
53.9251 1002.19 76.5545
74.8682 976.933 76.7538
52.6504 959.093 82.4372
56.1747 1004.05 75.3481
74.6325 1019.57 59.294
95.506 994.526 59.4343
77.1178 978.791 75.5474
76.3211 1021.05 57.0606
88.3915 1031.77 32.907
109.089 1007.11 33.0148
97.1946 996 57.201
89.2905 1032.6 29.976
93.4818 1036.41 1.47927
114.124 1011.89 1.4938
109.988 1007.93 30.0837
93.4818 1036.41 -1.69555
89.2852 1032.6 -30.1781
109.99 1007.93 -30.2639
114.124 1011.89 -1.68103
88.3872 1031.77 -33.107
76.3361 1021.06 -57.2252
97.2104 996.003 -57.3617
109.092 1007.1 -33.1928
74.6485 1019.59 -59.4572
56.1988 1004.05 -75.5148
77.1373 978.794 -75.7097
95.5228 994.53 -59.5937
53.9498 1002.19 -76.7215
31.9158 984.286 -82.3712
52.6769 959.088 -82.6008
74.8883 976.935 -76.9164
29.4533 982.304 -82.3734
7.341 964.485 -76.7302
27.9226 939.333 -76.9625
50.2143 957.106 -82.603
5.06221 962.655 -75.5224
-13.6719 947.504 -59.4394
6.77024 922.359 -59.629
25.6438 937.502 -75.7547
-15.4152 946.096 -57.2007
-27.9412 935.904 -33.0563
-7.57821 910.744 -33.1598
5.02692 920.951 -57.3903
-28.8843 935.138 -30.1264
-33.2812 931.558 -1.63477
-12.9367 906.39 -1.63131
-8.52131 909.978 -30.2299
-10.6902 903.605 1.54446
-6.27792 907.218 30.1227
13.8593 882.174 30.1442
9.36666 878.631 1.54554
-5.32456 907.979 33.0561
7.2533 918.178 57.2387
27.5998 892.943 57.2611
14.8127 882.935 33.0776
9.01585 919.574 59.4772
27.8903 934.713 75.6049
48.514 909.214 75.6002
29.3624 894.339 59.4995
30.1944 936.526 76.8107
52.4919 954.292 82.4517
73.4079 928.495 82.4081
50.8182 911.027 76.806
54.9814 956.253 82.4459
77.1992 974.092 76.7625
98.4127 947.993 76.7092
75.8975 930.457 82.4023
79.4784 975.936 75.5469
97.8665 991.671 59.4337
119.565 965.036 59.3651
100.692 949.836 75.4936
99.5732 993.133 57.1939
111.467 1004.24 33.0077
133.657 977.147 32.9842
121.272 966.498 57.1252
112.373 1005.06 30.082
116.51 1009.02 1.4921
138.885 981.777 1.50431
134.563 977.964 30.0586
116.51 1009.02 -1.67658
112.376 1005.05 -30.2595
134.565 977.969 -30.2191
138.885 981.777 -1.66437
111.471 1004.23 -33.1845
99.589 993.136 -57.3535
121.279 966.502 -57.2861
133.66 977.151 -33.1442
97.8828 991.674 -59.5931
79.4973 975.939 -75.709
100.706 949.836 -75.655
119.573 965.04 -59.5257
77.2187 974.095 -76.9248
55.0072 956.248 -82.6091
75.9177 930.45 -82.5642
98.4272 947.992 -76.8708
52.5183 954.286 -82.615
30.2266 936.512 -76.9746
50.8437 911.014 -76.9688
73.4288 928.488 -82.5701
27.9227 934.699 -75.769
9.04917 919.556 -59.6432
29.3887 894.321 -59.6652
48.5399 909.2 -75.7632
7.2852 918.159 -57.4022
-5.31993 907.952 -33.1717
14.8124 882.907 -33.192
27.6247 892.924 -57.4242
-6.27477 907.192 -30.2344
-10.6902 903.603 -1.63588
9.3667 878.629 -1.63481
13.8575 882.146 -30.2547
11.5721 875.837 1.54643
16.0648 879.38 30.1451
35.705 854.056 30.1503
31.1406 850.598 1.54782
17.0336 880.125 33.0794
29.8208 890.133 57.2629
49.6518 864.574 57.2677
36.6739 854.801 33.0846
31.6096 891.501 59.5005
50.7613 906.376 75.6012
70.8546 880.485 75.6026
51.4407 865.942 59.5054
53.0969 908.154 76.8048
75.6866 925.622 82.4069
96.0738 899.351 82.4039
73.1902 882.263 76.8062
78.2096 927.545 82.399
100.725 945.081 76.706
121.425 918.399 76.6957
98.5968 901.274 82.396
103.044 946.875 75.4909
121.917 962.075 59.3624
143.008 934.911 59.3707
123.744 920.193 75.4806
123.673 963.483 57.1238
136.058 974.132 32.9829
157.525 946.519 32.9881
144.764 936.319 57.1322
136.998 974.916 30.0587
141.32 978.729 1.50446
162.928 950.955 1.50815
158.465 947.304 30.0639
141.32 978.73 -1.66299
137 974.921 -30.2177
158.463 947.312 -30.216
162.928 950.955 -1.6593
136.06 974.137 -33.142
123.68 963.489 -57.284
144.767 936.328 -57.286
157.524 946.528 -33.1403
121.924 962.08 -59.5227
103.057 946.876 -75.652
123.754 920.194 -75.6363
143.011 934.919 -59.5247
100.739 945.081 -76.8671
78.2294 927.539 -82.5606
98.6132 901.268 -82.5537
121.436 918.399 -76.8515
75.707 925.615 -82.5687
53.1219 908.141 -76.9674
73.2109 882.251 -76.9663
96.0908 899.344 -82.5618
50.7865 906.362 -75.764
31.6353 891.483 -59.666
51.462 865.925 -59.6691
70.8755 880.472 -75.763
29.8451 890.115 -57.4258
17.0328 880.097 -33.1936
36.6702 854.773 -33.1965
49.6718 864.556 -57.4289
16.0628 879.353 -30.2554
11.572 875.836 -1.63548
31.1404 850.597 -1.63409
35.7002 854.029 -30.2583
33.2878 847.771 1.54821
37.8522 851.228 30.1507
56.9305 825.562 30.1551
52.2994 822.198 1.54974
38.8354 851.955 33.0855
51.8134 861.728 57.2686
71.0755 835.803 57.2782
57.9137 826.289 33.0899
53.6275 863.063 59.5066
73.0414 877.605 75.6038
92.5697 851.308 75.6209
72.8897 837.138 59.5161
75.4087 879.341 76.8073
98.2924 896.429 82.405
118.132 869.701 82.4254
94.937 853.044 76.8244
100.85 898.305 82.3965
123.679 915.431 76.6961
143.847 888.246 76.7085
120.689 871.577 82.4168
126.035 917.174 75.4816
145.299 931.892 59.3717
165.808 904.243 59.386
146.203 889.989 75.494
147.094 933.25 57.1339
159.855 943.45 32.9897
180.671 915.388 32.9957
167.604 905.602 57.1481
160.821 944.202 30.0646
165.285 947.853 1.50884
186.217 919.634 1.51033
181.637 916.139 30.0706
165.284 947.854 -1.65943
160.819 944.21 -30.2161
181.632 916.151 -30.2188
186.217 919.635 -1.65795
159.853 943.459 -33.1414
147.096 933.259 -57.2871
167.602 905.614 -57.2976
180.666 915.4 -33.1441
145.301 931.9 -59.5252
126.045 917.175 -75.6367
146.21 889.992 -75.6453
165.807 904.255 -59.5356
123.689 915.431 -76.8514
100.866 898.3 -82.5537
120.703 871.573 -82.5707
143.855 888.248 -76.86
98.3089 896.423 -82.5626
75.4291 879.329 -76.9671
94.9547 853.033 -76.9815
118.146 869.696 -82.5795
73.062 877.593 -75.7639
53.6485 863.046 -59.67
72.9082 837.121 -59.6771
92.5877 851.296 -75.7782
51.8331 861.71 -57.4294
38.8314 851.926 -33.1971
57.908 826.261 -33.1987
71.0928 835.785 -57.4366
37.8472 851.201 -30.2584
33.2875 847.769 -1.63418
52.299 822.196 -1.63265
56.9238 825.535 -30.2599
54.383 819.331 1.5501
59.0142 822.696 30.1555
77.507 796.668 30.1594
72.8107 793.401 1.55165
60.0113 823.402 33.0908
73.1731 832.916 57.2791
91.8489 806.613 57.2897
78.5041 797.374 33.0948
75.0126 834.215 59.5179
94.6926 848.385 75.6227
113.64 821.682 75.6432
93.6884 807.912 59.5286
97.0926 850.074 76.8268
120.287 866.732 82.4278
139.558 839.564 82.453
116.04 823.371 76.8474
122.881 868.557 82.4188
146.039 885.225 76.7106
165.644 857.573 76.729
142.151 841.389 82.444
148.431 886.916 75.4958
168.036 901.171 59.3877
187.957 873.061 59.4002
168.036 859.264 75.5142
169.865 902.482 57.1497
182.933 912.268 32.9972
203.118 883.777 33.0008
189.786 874.371 57.1622
183.921 912.989 30.0711
188.501 916.484 1.51086
208.786 887.849 1.51043
204.106 884.499 30.0746
188.501 916.485 -1.65835
183.916 913.001 -30.2192
204.097 884.514 -30.2233
208.785 887.85 -1.65878
182.928 912.281 -33.1454
169.863 902.495 -57.2989
189.781 874.389 -57.3074
203.109 883.793 -33.1495
168.035 901.183 -59.5369
148.438 886.92 -75.6466
168.041 859.27 -75.6612
187.953 873.077 -59.5455
146.046 885.228 -76.8617
122.894 868.553 -82.5723
142.163 841.386 -82.5941
165.649 857.578 -76.8763
120.301 866.727 -82.5816
97.1101 850.064 -76.9835
116.056 823.362 -77.0013
139.57 839.56 -82.6033
94.7103 848.373 -75.7797
75.0309 834.198 -59.6786
93.7052 807.896 -59.6868
113.657 821.671 -75.7975
73.1902 832.899 -57.4372
60.0054 823.374 -33.1993
78.497 797.346 -33.2004
91.8645 806.596 -57.4454
59.0074 822.668 -30.26
54.3826 819.33 -1.63268
72.8103 793.4 -1.63114
77.499 796.641 -30.2611
74.8288 790.495 1.55198
79.525 793.761 30.1598
97.4216 767.367 30.1631
92.6607 764.202 1.55346
80.536 794.446 33.0956
93.8808 803.685 57.2906
111.961 777.005 57.2999
98.4326 768.052 33.099
95.7459 804.946 59.5303
115.698 818.715 75.645
134.053 791.614 75.6631
113.826 778.265 59.5397
118.131 820.356 76.8498
141.648 836.548 82.4554
160.331 808.955 82.4778
136.486 793.254 76.868
144.279 838.319 82.4463
167.771 854.503 76.7313
186.787 826.408 76.7483
162.961 810.726 82.4687
170.199 856.141 75.5159
190.12 869.938 59.4019
209.434 841.385 59.4115
189.215 828.045 75.5329
191.979 871.203 57.1633
205.311 880.609 33.0019
224.862 851.701 33.0033
211.294 842.65 57.1729
206.319 881.302 30.0749
210.999 884.652 1.51068
230.637 855.609 1.50896
225.869 852.395 30.0763
210.998 884.653 -1.65928
206.31 881.317 -30.2238
225.858 852.41 -30.2283
230.637 855.61 -1.66099
205.302 880.625 -33.1505
191.974 871.22 -57.3085
211.289 842.67 -57.3142
224.85 851.718 -33.155
190.115 869.955 -59.5467
170.204 856.148 -75.6625
189.219 828.054 -75.6759
209.43 841.404 -59.5525
167.777 854.509 -76.8781
144.29 838.317 -82.596
162.971 810.725 -82.6151
186.791 826.415 -76.8916
141.661 836.545 -82.6054
118.147 820.346 -77.0034
136.501 793.246 -77.0188
160.341 808.954 -82.6246
115.714 818.705 -75.7989
95.7625 804.93 -59.6882
113.841 778.25 -59.6952
134.068 791.605 -75.8144
93.8963 803.669 -57.4459
80.5287 794.418 -33.201
98.4244 768.024 -33.2016
111.975 776.988 -57.4529
79.517 793.734 -30.2611
74.8283 790.493 -1.63114
92.6602 764.201 -1.62965
97.4126 767.34 -30.2617
94.6121 761.255 1.55375
99.373 764.42 30.1634
116.666 737.662 30.1664
111.841 734.602 1.55519
100.398 765.083 33.0997
113.926 774.036 57.3006
131.402 746.983 57.3082
117.691 738.325 33.1027
115.817 775.256 59.5411
136.044 788.605 75.6646
153.795 761.115 75.6787
133.293 748.203 59.5487
138.51 790.194 76.87
162.355 805.894 82.4798
180.432 777.892 82.4968
156.262 762.703 76.8841
165.021 807.609 82.4705
188.848 823.29 76.7502
207.255 794.77 76.7625
183.099 779.607 82.4875
191.31 824.874 75.5342
211.53 838.214 59.4128
230.224 809.233 59.4181
209.717 796.354 75.5465
213.418 839.434 57.1737
226.986 848.485 33.004
245.893 819.166 33.0044
232.112 810.454 57.179
228.01 849.153 30.0764
232.778 852.367 1.50905
251.765 822.92 1.50699
246.918 819.833 30.0768
232.778 852.368 -1.66149
227.999 849.168 -30.2288
246.904 819.849 -30.2329
251.765 822.921 -1.66355
226.974 848.502 -33.1558
213.412 839.454 -57.315
232.106 810.476 -57.3183
245.879 819.183 -33.1599
211.525 838.234 -59.5535
191.314 824.883 -75.6768
209.72 796.364 -75.6869
230.219 809.255 -59.5567
188.852 823.298 -76.8931
165.032 807.609 -82.6166
183.108 779.607 -82.6312
207.258 794.779 -76.9032
162.366 805.893 -82.6263
138.525 790.185 -77.0205
156.276 762.695 -77.0323
180.442 777.892 -82.6409
136.058 788.596 -75.8156
115.832 775.241 -59.6964
133.308 748.187 -59.7017
153.809 761.106 -75.8273
113.94 774.019 -57.4533
100.39 765.055 -33.202
117.682 738.298 -33.2023
131.416 746.966 -57.4586
99.364 764.393 -30.2617
94.6116 761.254 -1.62963
111.841 734.601 -1.62819
116.657 737.635 -30.262
113.725 731.615 1.55545
118.551 734.675 30.1666
135.234 707.559 30.1691
130.345 704.606 1.55695
119.589 735.316 33.1033
133.3 743.973 57.3088
150.164 716.554 57.3145
136.273 708.2 33.1058
135.216 745.152 59.5498
155.718 758.064 75.6798
172.854 730.195 75.6903
152.08 717.733 59.5556
158.218 759.599 76.8857
182.388 774.787 82.4983
199.846 746.39 82.5106
175.354 731.73 76.8961
185.091 776.444 82.4889
209.247 791.607 76.7639
227.027 762.678 76.7725
202.549 748.047 82.5012
211.743 793.136 75.5473
232.25 806.016 59.4189
250.306 776.625 59.4218
229.524 764.207 75.5559
234.165 807.192 57.1794
247.946 815.905 33.0048
266.202 786.183 33.0043
252.222 777.801 57.1822
248.987 816.546 30.0768
253.834 819.633 1.50698
272.162 789.79 1.50476
267.242 786.824 30.0762
253.833 819.634 -1.664
248.973 816.562 -30.2334
267.227 786.839 -30.2369
272.161 789.791 -1.66621
247.932 815.921 -33.1604
234.159 807.214 -57.3188
252.217 777.824 -57.3202
266.187 786.199 -33.1639
232.245 806.038 -59.5574
211.746 793.147 -75.6875
229.527 764.219 -75.6943
250.302 776.648 -59.5588
209.251 791.617 -76.9044
185.101 776.445 -82.6323
202.558 748.048 -82.6425
227.031 762.689 -76.9112
182.399 774.787 -82.6421
158.232 759.591 -77.0335
175.368 731.722 -77.0417
199.856 746.39 -82.6523
155.732 758.055 -75.8282
135.231 745.137 -59.7025
152.095 717.717 -59.706
172.868 730.186 -75.8364
133.314 743.957 -57.4589
119.58 735.288 -33.2027
136.263 708.172 -33.2024
150.178 716.537 -57.4624
118.541 734.648 -30.2619
113.725 731.614 -1.62814
130.345 704.605 -1.62664
135.224 707.532 -30.2617
132.162 701.58 1.5572
137.05 704.532 30.1694
153.119 677.065 30.1716
148.167 674.223 1.5589
138.102 705.15 33.1062
151.994 713.505 57.315
168.239 685.727 57.3194
154.171 677.683 33.1085
153.935 714.641 59.5564
174.708 727.103 75.6911
191.22 698.864 75.6987
170.18 686.863 59.5608
177.241 728.583 76.8972
201.733 743.243 82.5117
218.559 714.463 82.5203
193.753 700.344 76.9048
204.471 744.84 82.5021
228.95 759.472 76.7734
246.09 730.15 76.7792
221.297 716.06 82.5107
231.479 760.945 75.5564
252.261 773.363 59.4223
269.668 743.575 59.4238
248.619 731.623 75.5622
254.203 774.495 57.1824
268.182 782.877 33.0045
285.775 752.763 33.0035
271.609 744.707 57.1839
269.237 783.493 30.0761
274.158 786.459 1.50466
291.818 756.227 1.50244
286.83 753.38 30.0751
274.157 786.46 -1.6666
269.223 783.508 -30.2373
286.815 753.394 -30.2404
291.817 756.228 -1.66882
268.167 782.893 -33.1643
254.197 774.518 -57.3206
271.605 744.73 -57.3209
285.76 752.778 -33.1673
252.257 773.386 -59.5592
231.482 760.957 -75.6947
248.623 731.635 -75.6989
269.665 743.598 -59.5595
228.954 759.482 -76.9119
204.481 744.842 -82.6433
221.308 716.061 -82.6498
246.095 730.16 -76.9161
201.743 743.243 -82.6532
177.255 728.575 -77.0426
193.767 700.336 -77.0477
218.57 714.463 -82.6597
174.722 727.094 -75.8369
153.95 714.626 -59.7066
170.196 686.848 -59.7083
191.235 698.855 -75.842
152.008 713.488 -57.4626
138.093 705.123 -33.2026
154.161 677.656 -33.2016
168.253 685.71 -57.4643
137.04 704.506 -30.2616
132.161 701.578 -1.62653
148.166 674.221 -1.62483
153.108 677.039 -30.2606
149.914 671.158 1.55916
154.866 674 30.1719
170.313 646.192 30.1743
165.3 643.461 1.56123
155.931 674.595 33.1089
170 682.638 57.3198
185.62 654.513 57.3236
171.378 646.786 33.1113
171.965 683.732 59.5614
193.005 695.732 75.6993
208.884 667.136 75.705
187.585 655.606 59.5652
195.57 697.156 76.9056
220.376 711.275 82.5211
236.56 682.126 82.5271
211.449 668.559 76.9113
223.149 712.811 82.5114
247.941 726.901 76.7798
264.429 697.201 76.7836
239.333 683.663 82.5175
250.501 728.318 75.5625
271.55 740.27 59.4241
288.295 710.099 59.4245
266.989 698.619 75.5662
273.516 741.358 57.1839
287.683 749.413 33.0035
304.603 718.92 33.0021
290.26 711.187 57.1844
288.751 750.006 30.075
293.739 752.854 1.50229
310.723 722.243 1.49996
305.672 719.512 30.0735
293.738 752.854 -1.66916
288.736 750.02 -30.2407
305.656 719.525 -30.2434
310.722 722.244 -1.67149
287.667 749.429 -33.1675
273.512 741.381 -57.3211
290.259 711.21 -57.3195
304.587 718.934 -33.1702
271.548 740.292 -59.5596
250.506 728.33 -75.699
266.995 698.629 -75.7003
288.294 710.121 -59.5581
247.946 726.911 -76.9165
223.159 712.812 -82.6502
239.345 683.663 -82.6534
264.436 697.211 -76.9178
220.387 711.275 -82.6602
195.584 697.148 -77.0482
211.464 668.551 -77.0505
236.573 682.126 -82.6634
193.02 695.723 -75.8423
171.981 683.716 -59.7086
187.601 655.59 -59.7088
208.9 667.127 -75.8446
170.014 682.622 -57.4643
155.921 674.567 -33.2017
171.368 646.759 -33.2002
185.635 654.496 -57.4645
154.855 673.974 -30.2605
149.914 671.156 -1.62467
165.299 643.46 -1.62259
170.302 646.166 -30.259
166.978 640.359 1.56151
171.991 643.09 30.1746
186.81 614.95 30.1773
181.738 612.333 1.56401
173.069 643.66 33.1117
187.311 651.387 57.3239
202.298 622.925 57.3274
187.888 615.52 33.1144
189.3 652.436 59.5657
210.599 663.965 75.7055
225.837 635.025 75.7101
204.287 623.974 59.5691
213.194 665.332 76.9119
238.306 678.899 82.5277
253.838 649.396 82.5324
228.432 636.391 76.9165
241.111 680.373 82.5179
266.207 693.912 76.784
282.032 663.85 76.7868
256.644 650.871 82.5226
268.798 695.272 75.5664
290.104 706.753 59.4247
306.175 676.215 59.4249
284.623 665.21 75.5692
292.093 707.797 57.1844
306.436 715.529 33.0021
322.674 684.667 33.0005
308.164 677.259 57.1846
307.518 716.097 30.0733
312.568 718.828 1.49977
328.865 687.851 1.49728
323.755 685.235 30.0717
312.567 718.829 -1.67181
307.501 716.11 -30.2437
323.737 685.246 -30.2465
328.864 687.852 -1.67429
306.419 715.543 -33.1702
292.091 707.819 -57.3195
308.165 677.279 -57.3145
322.655 684.679 -33.173
290.103 706.775 -59.5578
268.805 695.282 -75.7001
284.632 665.218 -75.698
306.177 676.235 -59.5528
266.214 693.921 -76.9179
241.124 680.374 -82.6534
256.658 650.87 -82.6533
282.042 663.857 -76.9157
238.319 678.898 -82.6635
213.21 665.323 -77.0506
228.449 636.382 -77.0505
253.853 649.394 -82.6633
210.615 663.956 -75.8447
189.316 652.42 -59.7089
204.304 623.958 -59.7078
225.854 635.015 -75.8445
187.326 651.37 -57.4644
173.059 643.633 -33.2001
187.877 615.494 -33.1979
202.313 622.908 -57.4633
171.98 643.064 -30.2587
166.977 640.358 -1.62238
181.737 612.332 -1.61987
186.798 614.925 -30.2566
183.346 609.195 1.56433
188.418 611.812 30.1776
202.603 583.353 30.1806
197.474 580.852 1.56722
189.508 612.358 33.1148
203.919 619.763 57.3277
218.266 590.977 57.331
203.694 583.899 33.1177
205.93 620.767 59.5696
227.48 631.817 75.7106
242.069 602.545 75.7145
220.278 591.981 59.5728
230.105 633.125 76.917
255.511 646.131 82.5329
270.383 616.289 82.5368
244.694 603.853 76.9209
258.349 647.543 82.523
283.737 660.522 76.7872
298.889 630.113 76.7898
273.22 617.7 82.5269
286.357 661.824 75.5694
307.909 672.829 59.4251
323.297 641.94 59.426
301.509 631.415 75.572
309.921 673.828 57.1846
324.43 681.237 33.0005
339.978 650.023 32.9999
325.309 642.939 57.1854
325.524 681.78 30.0716
330.634 684.396 1.49713
346.238 653.065 1.49584
341.072 650.566 30.071
330.633 684.396 -1.67458
325.506 681.79 -30.2468
341.054 650.57 -30.2482
346.237 653.066 -1.67586
324.412 681.248 -33.1729
309.922 673.848 -57.3143
325.315 642.953 -57.3085
339.96 650.027 -33.1743
307.912 672.849 -59.5523
286.367 661.832 -75.6975
301.522 631.419 -75.694
323.305 641.953 -59.5465
283.747 660.529 -76.9155
258.363 647.541 -82.653
273.236 617.697 -82.651
298.902 630.116 -76.912
255.526 646.128 -82.6632
230.122 633.116 -77.0504
244.712 603.842 -77.0487
270.399 616.284 -82.6612
227.497 631.807 -75.8444
205.947 620.75 -59.7077
220.295 591.964 -59.7056
242.087 602.534 -75.8427
203.934 619.745 -57.4631
189.498 612.331 -33.1977
203.683 583.872 -33.1951
218.281 590.959 -57.4611
188.407 611.787 -30.2563
183.345 609.194 -1.6196
197.473 580.85 -1.61671
202.591 583.328 -30.2537
199.011 577.679 1.56755
204.141 580.18 30.1809
217.687 551.414 30.184
212.502 549.029 1.57069
205.243 580.701 33.1181
219.815 587.779 57.3313
233.517 558.681 57.3344
218.789 551.934 33.1211
221.849 588.738 59.5732
243.64 599.302 75.7149
257.572 569.711 75.7183
235.551 559.64 59.5763
246.294 600.551 76.9213
271.983 612.986 82.5372
286.186 582.819 82.5408
260.226 570.96 76.9247
274.851 614.335 82.5273
300.52 626.747 76.7902
314.991 596.006 76.7934
289.054 584.167 82.5309
303.168 627.991 75.5723
324.956 638.515 59.4262
339.654 607.29 59.4286
317.639 597.25 75.5754
326.989 639.47 57.1855
341.658 646.554 33
356.508 615.002 33.0018
341.687 608.244 57.1879
342.764 647.073 30.0711
347.93 649.572 1.49588
362.834 617.903 1.49724
357.613 615.521 30.0728
347.929 649.572 -1.67588
342.745 647.076 -30.2482
357.597 615.517 -30.2467
362.833 617.903 -1.67453
341.64 646.557 -33.174
326.995 639.483 -57.3082
341.696 608.249 -57.3045
356.492 614.998 -33.1725
324.964 638.529 -59.546
303.181 627.995 -75.6936
317.654 597.249 -75.6908
339.665 607.295 -59.5423
300.533 626.75 -76.9117
274.867 614.331 -82.6507
289.07 584.161 -82.6484
315.006 596.005 -76.909
271.999 612.982 -82.661
246.312 600.54 -77.0484
260.244 570.948 -77.0461
286.202 582.812 -82.6586
243.658 599.29 -75.8425
221.866 588.721 -59.7054
235.566 559.622 -59.7029
257.59 569.699 -75.8402
219.831 587.761 -57.4608
205.232 580.675 -33.1948
218.777 551.908 -33.1919
233.531 558.663 -57.4584
204.129 580.155 -30.2534
199.011 577.678 -1.61639
212.501 549.027 -1.61326
217.673 551.388 -30.2505
213.968 545.823 1.57103
219.153 548.207 30.1843
232.054 519.145 30.1873
226.816 516.878 1.57423
220.267 548.703 33.1214
234.995 555.45 57.3347
248.044 526.053 57.3374
233.168 519.641 33.1244
237.049 556.363 59.5766
259.071 566.434 75.7186
272.341 536.539 75.7215
250.099 526.966 59.5793
261.752 567.623 76.9251
287.712 579.482 82.5412
301.239 549.004 82.5448
275.022 537.728 76.928
290.609 580.766 82.5313
316.547 592.605 76.7938
330.33 561.548 76.7981
304.137 550.288 82.5348
319.222 593.79 75.5758
341.236 603.83 59.429
355.235 572.284 59.4341
333.005 562.733 75.5802
343.289 604.739 57.1883
358.11 611.496 33.0022
372.254 579.622 33.007
357.289 573.193 57.1934
359.227 611.991 30.0731
364.448 614.373 1.49759
378.642 582.38 1.50228
373.371 580.116 30.078
364.447 614.372 -1.67424
359.211 611.986 -30.2464
373.357 580.103 -30.2429
378.642 582.38 -1.66956
358.095 611.492 -33.1722
343.299 604.743 -57.3042
357.301 573.187 -57.3017
372.241 579.609 -33.1687
341.247 603.834 -59.5419
319.236 593.788 -75.6905
333.019 562.726 -75.6881
355.249 572.278 -59.5395
316.561 592.603 -76.9087
290.626 580.759 -82.6481
304.151 550.278 -82.646
330.344 561.541 -76.9063
287.728 579.474 -82.6584
261.769 567.611 -77.0459
275.037 537.714 -77.0438
301.254 548.993 -82.6563
259.088 566.421 -75.8399
237.065 556.345 -59.7027
250.112 526.946 -59.7004
272.356 536.524 -75.8379
235.009 555.431 -57.4581
220.254 548.677 -33.1916
233.153 519.614 -33.1887
248.055 526.033 -57.4558
219.139 548.182 -30.2502
213.967 545.821 -1.61293
226.815 516.877 -1.60973
232.038 519.119 -30.2472
228.21 513.64 1.57458
233.448 515.907 30.1877
245.698 486.561 30.1906
240.409 484.414 1.57789
234.573 516.377 33.1247
249.449 522.79 57.3377
261.841 493.106 57.34
246.823 487.032 33.1277
251.524 523.656 59.5796
273.766 533.229 75.7218
286.367 503.044 75.7237
263.915 493.972 59.5819
276.473 534.358 76.9283
302.691 545.634 82.5451
315.536 514.86 82.5475
289.074 504.172 76.9302
305.616 546.853 82.5352
331.809 558.113 76.7985
344.899 526.755 76.8025
318.462 516.079 82.5377
334.51 559.238 75.5807
356.74 568.789 59.4346
370.036 536.94 59.4414
347.599 527.881 75.5847
358.813 569.653 57.1941
373.779 576.081 33.0077
387.217 543.902 33.017
372.109 537.803 57.2008
374.906 576.551 30.0788
380.178 578.815 1.5031
393.669 546.52 1.5137
388.344 544.372 30.0881
380.177 578.814 -1.66877
374.893 576.538 -30.2422
388.343 544.352 -30.2311
393.668 546.519 -1.65817
373.766 576.067 -33.1686
358.826 569.646 -57.3016
372.122 537.784 -57.3133
387.216 543.881 -33.1576
356.754 568.783 -59.5399
334.524 559.23 -75.6885
347.61 527.868 -75.6947
370.05 536.921 -59.5516
331.823 558.105 -76.9064
305.63 546.842 -82.6461
318.472 516.065 -82.6484
344.909 526.742 -76.9127
302.705 545.623 -82.6562
276.488 534.343 -77.0438
289.085 504.155 -77.043
315.547 514.846 -82.6585
273.781 533.214 -75.8377
251.537 523.636 -59.7002
263.925 493.952 -59.6978
286.378 503.026 -75.8369
249.461 522.769 -57.4555
234.558 516.35 -33.1884
246.806 487.005 -33.1853
261.849 493.085 -57.4532
233.433 515.881 -30.2469
228.209 513.639 -1.60938
240.408 484.412 -1.60607
245.681 486.536 -30.2438
241.731 481.145 1.57825
247.02 483.292 30.191
258.614 453.677 30.1941
253.277 451.649 1.58181
248.156 483.737 33.128
263.173 489.812 57.3403
274.901 459.856 57.3424
259.75 454.122 33.1311
265.267 490.631 59.5821
287.718 499.702 75.724
299.644 469.24 75.7253
276.995 460.675 59.5842
290.45 500.77 76.9304
316.912 511.458 82.5477
329.07 480.403 82.5494
302.376 470.308 76.9318
319.864 512.612 82.538
346.301 523.288 76.8028
358.689 491.645 76.8064
332.021 481.557 82.5397
349.026 524.353 75.5853
371.463 533.412 59.442
384.047 501.273 59.4489
361.414 492.71 75.5889
373.555 534.23 57.2018
388.662 540.328 33.0179
401.382 507.857 33.0277
386.139 502.091 57.2087
389.8 540.773 30.0892
395.125 542.921 1.51486
407.895 510.334 1.52619
402.52 508.302 30.0991
395.125 542.921 -1.65672
389.799 540.754 -30.2297
402.524 508.292 -30.2178
407.895 510.333 -1.64539
388.662 540.307 -33.1576
373.568 534.21 -57.3133
386.145 502.075 -57.3249
401.387 507.845 -33.1457
371.476 533.393 -59.5527
349.036 524.34 -75.6958
361.42 492.694 -75.7012
384.053 501.258 -59.5643
346.311 523.274 -76.9131
319.874 512.597 -82.6488
332.028 481.54 -82.6498
358.695 491.629 -76.9185
316.922 511.443 -82.6585
290.46 500.753 -77.043
302.383 470.288 -77.0411
329.076 480.385 -82.6595
287.729 499.685 -75.8367
265.276 490.61 -59.6976
277.002 460.653 -59.6946
299.651 469.22 -75.8348
263.181 489.79 -57.4528
248.138 483.71 -33.185
259.73 454.095 -33.1815
274.906 459.833 -57.4498
247.003 483.267 -30.2434
241.73 481.143 -1.60569
253.276 451.648 -1.60213
258.595 453.651 -30.2399
254.526 448.351 1.5822
259.863 450.379 30.1945
270.796 420.506 30.1979
265.413 418.599 1.58618
261.008 450.798 33.1314
276.16 456.532 57.3427
287.219 426.317 57.3448
271.941 420.925 33.1348
278.271 457.304 59.5844
300.921 465.869 75.7255
312.167 435.145 75.7265
289.331 427.089 59.5865
303.676 466.876 76.9319
330.37 476.971 82.5495
341.833 445.651 82.5507
314.921 436.152 76.933
333.346 478.059 82.5399
360.014 488.147 76.8067
371.694 456.235 76.8098
344.81 446.739 82.5412
362.762 489.152 75.5894
385.395 497.715 59.4495
397.26 465.302 59.455
374.442 457.24 75.5926
387.505 498.486 57.2095
402.747 504.252 33.0285
414.735 471.501 33.0348
399.369 466.074 57.215
403.895 504.672 30.1
409.27 506.704 1.52713
421.3 473.834 1.53369
415.883 471.921 30.1063
409.27 506.703 -1.64443
403.9 504.662 -30.2168
415.885 471.916 -30.2113
421.301 473.834 -1.63787
402.752 504.242 -33.1454
387.51 498.471 -57.3246
399.371 466.063 -57.3205
414.738 471.496 -33.1398
385.4 497.699 -59.5645
362.767 489.136 -75.7013
374.444 457.224 -75.6956
397.261 465.291 -59.5603
360.019 488.131 -76.9183
333.352 478.041 -82.6497
344.813 446.72 -82.6433
371.696 456.218 -76.9126
330.376 476.953 -82.6591
303.682 466.856 -77.0408
314.925 436.13 -77.0351
341.836 445.631 -82.6528
300.928 465.849 -75.8343
278.278 457.281 -59.6941
289.335 427.065 -59.6895
312.171 435.123 -75.8287
276.165 456.509 -57.4493
260.989 450.771 -33.181
271.92 420.898 -33.1769
287.222 426.293 -57.4447
259.843 450.353 -30.2395
254.525 448.35 -1.6017
265.412 418.598 -1.59772
270.774 420.48 -30.2353
266.589 415.273 1.58661
271.971 417.18 30.1983
282.239 387.063 30.2021
276.813 385.278 1.5911
273.126 417.573 33.1351
288.404 422.965 57.3451
298.79 392.504 57.3471
283.393 387.456 33.1389
290.532 423.689 59.5866
313.368 431.746 75.7266
323.929 400.775 75.7266
300.918 393.229 59.5886
316.145 432.691 76.933
343.057 442.19 82.5508
353.821 410.621 82.5499
326.706 401.72 76.9329
346.056 443.212 82.5413
372.941 452.708 76.8099
383.909 420.544 76.8104
356.821 411.643 82.5405
375.711 453.652 75.5929
398.528 461.714 59.4554
409.669 429.046 59.4583
386.678 421.488 75.5934
400.654 462.439 57.2155
416.02 467.867 33.0353
427.279 434.856 33.0393
411.795 429.771 57.2184
417.177 468.261 30.1069
422.594 470.174 1.53426
433.895 437.043 1.53865
428.436 435.25 30.1108
422.594 470.174 -1.63727
417.179 468.256 -30.2107
428.437 435.249 -30.2055
433.895 437.042 -1.63288
416.022 467.862 -33.1392
400.655 462.429 -57.3198
411.795 429.764 -57.3135
427.28 434.854 -33.1341
398.529 461.703 -59.5596
375.712 453.636 -75.6949
386.679 421.473 -75.6864
409.668 429.038 -59.5532
372.943 452.691 -76.9118
346.059 443.193 -82.6425
356.823 411.624 -82.6327
383.909 420.529 -76.9033
343.059 442.17 -82.6519
316.149 432.669 -77.0342
326.709 401.698 -77.0254
353.824 410.601 -82.6422
313.372 431.724 -75.8279
290.536 423.666 -59.6888
300.921 393.205 -59.6823
323.932 400.752 -75.8192
288.406 422.941 -57.4441
273.104 417.546 -33.1763
283.371 387.43 -33.1713
298.791 392.481 -57.4376
271.95 417.154 -30.2349
266.588 415.272 -1.59722
276.812 385.277 -1.59273
282.216 387.038 -30.2298
277.915 381.926 1.59156
283.34 383.71 30.2025
292.938 353.362 30.2064
287.473 351.699 1.59632
284.503 384.078 33.1391
299.9 389.126 57.3474
309.609 358.434 57.3488
294.101 353.729 33.143
302.044 389.803 59.5886
325.055 397.349 75.7266
334.927 366.146 75.7248
311.753 359.111 59.59
327.852 398.232 76.9327
354.967 407.133 82.5497
365.029 375.332 82.5463
337.724 367.029 76.9309
357.989 408.089 82.5403
385.077 416.99 76.8102
395.328 384.593 76.808
368.051 376.288 82.5368
387.867 417.873 75.5934
410.857 425.431 59.4583
421.271 392.525 59.4591
398.118 385.476 75.5912
412.999 426.109 57.2187
428.483 431.194 33.0395
439.009 397.939 33.0415
423.413 393.203 57.2194
429.649 431.562 30.1111
435.108 433.354 1.53898
445.673 399.975 1.54166
440.175 398.307 30.1132
435.108 433.354 -1.6324
429.649 431.561 -30.2051
440.172 398.309 -30.2011
445.673 399.975 -1.62972
428.483 431.193 -33.1333
412.999 426.102 -57.3128
423.412 393.2 -57.3033
439.007 397.94 -33.1294
410.856 425.424 -59.5522
387.867 417.859 -75.6854
398.119 385.462 -75.6733
421.27 392.521 -59.5427
385.077 416.975 -76.9021
357.991 408.07 -82.6315
368.054 376.269 -82.6181
395.329 384.579 -76.89
354.97 407.114 -82.641
327.855 398.21 -77.0242
337.727 367.008 -77.0126
365.032 375.313 -82.6275
325.058 397.327 -75.8182
302.047 389.779 -59.6813
311.756 359.088 -59.6731
334.931 366.124 -75.8065
299.901 389.102 -57.4369
284.48 384.052 -33.1706
294.078 353.705 -33.165
309.61 358.411 -57.4288
283.317 383.686 -30.2293
277.913 381.924 -1.59217
287.471 351.698 -1.58741
292.914 353.339 -30.2236
288.499 348.322 1.59678
293.965 349.985 30.2068
302.89 319.417 30.2103
297.387 317.876 1.60149
295.136 350.326 33.1432
310.644 355.03 57.349
319.672 324.12 57.3492
304.061 319.758 33.1467
312.803 355.66 59.5898
335.977 362.695 75.7246
345.157 331.275 75.7204
321.832 324.749 59.59
338.792 363.517 76.9305
366.098 371.819 82.5458
375.453 339.803 82.5392
347.973 332.097 76.9262
369.14 372.709 82.5364
396.417 381.014 76.8076
405.947 348.401 76.8029
378.495 340.692 82.5298
399.225 381.835 75.591
422.379 388.885 59.4589
432.061 355.76 59.4581
408.756 349.222 75.5863
424.536 389.515 57.2194
440.132 394.251 33.0415
449.92 360.768 33.0421
434.218 356.39 57.2186
441.305 394.593 30.1133
446.804 396.26 1.54178
456.629 362.646 1.5431
451.094 361.109 30.1139
446.804 396.26 -1.62941
441.303 394.594 -30.2008
451.088 361.109 -30.1984
456.629 362.646 -1.62809
440.129 394.253 -33.1285
424.535 389.512 -57.3023
434.219 356.388 -57.2877
449.914 360.768 -33.1261
422.378 388.881 -59.5412
399.227 381.822 -75.6718
408.759 349.21 -75.6546
432.063 355.757 -59.5266
396.418 381 -76.8883
369.143 372.691 -82.6164
378.499 340.675 -82.5984
405.95 348.388 -76.8711
366.101 371.801 -82.6259
338.796 363.496 -77.0109
347.977 332.078 -76.9963
375.457 339.786 -82.6079
335.981 362.674 -75.8052
312.806 355.637 -59.6719
321.835 324.729 -59.6625
345.161 331.255 -75.7906
310.645 355.008 -57.4279
295.113 350.302 -33.1641
304.037 319.736 -33.1582
319.674 324.099 -57.4185
293.941 349.961 -30.223
288.498 348.321 -1.58681
297.386 317.875 -1.58209
302.866 319.396 -30.2171
298.339 314.475 1.60191
303.842 316.016 30.2107
312.091 285.24 30.2136
306.553 283.821 1.60634
305.021 316.331 33.1468
320.632 320.693 57.3493
328.978 289.577 57.3477
313.27 285.556 33.1497
322.805 321.275 59.5896
346.13 327.801 75.7199
354.616 296.179 75.7122
331.151 290.159 59.588
348.963 328.561 76.9254
376.444 336.267 82.5384
385.09 304.053 82.5275
357.449 296.94 76.9176
379.504 337.091 82.529
406.957 344.799 76.802
415.764 311.99 76.794
388.151 304.877 82.5181
409.783 345.559 75.5859
433.088 352.097 59.4576
442.039 318.772 59.4555
418.59 312.75 75.5778
435.259 352.678 57.2185
450.961 357.056 33.042
460.013 323.36 33.0428
444.21 319.353 57.2163
452.142 357.37 30.114
457.678 358.906 1.54316
466.768 325.072 1.54551
461.195 323.673 30.1148
457.678 358.906 -1.62777
452.136 357.37 -30.1981
461.188 323.668 -30.1939
466.768 325.072 -1.62542
450.955 357.056 -33.125
435.26 352.675 -57.2866
444.213 319.347 -57.2732
460.007 323.354 -33.1208
433.09 352.094 -59.5247
409.786 345.547 -75.6528
418.595 312.738 -75.6341
442.043 318.765 -59.5113
406.96 344.786 -76.869
379.509 337.074 -82.5963
388.156 304.861 -82.5754
415.769 311.977 -76.8504
376.448 336.25 -82.6059
348.968 328.542 -76.9943
357.454 296.923 -76.9771
385.095 304.038 -82.585
346.135 327.781 -75.7891
322.808 321.254 -59.661
331.154 290.141 -59.6504
354.621 296.162 -75.7719
320.634 320.672 -57.4176
304.997 316.309 -33.1573
313.246 285.537 -33.1513
328.98 289.559 -57.407
303.818 315.995 -30.2165
298.338 314.474 -1.58149
306.552 283.82 -1.57705
312.067 285.222 -30.2105
307.43 280.397 1.60669
312.968 281.817 30.214
320.538 250.844 30.216
314.968 249.545 1.61067
314.154 282.107 33.1496
329.862 286.127 57.3476
337.523 254.818 57.3437
321.724 251.134 33.1516
332.047 286.663 59.5872
355.512 292.683 75.7114
363.301 260.875 75.6993
339.708 255.353 59.5834
358.361 293.383 76.9163
386.002 300.497 82.5262
393.937 268.105 82.5099
366.15 261.575 76.9042
389.08 301.255 82.5168
416.694 308.368 76.7927
424.776 275.385 76.7806
397.015 268.863 82.5005
419.536 309.066 75.5771
442.985 315.088 59.4548
451.201 281.584 59.4511
427.619 276.083 75.565
445.169 315.62 57.216
460.973 319.626 33.0425
469.29 285.731 33.0442
453.385 282.116 57.2124
462.162 319.91 30.1149
467.735 321.309 1.54565
476.091 287.266 1.55008
470.479 286.016 30.1166
467.735 321.308 -1.62479
462.156 319.905 -30.1933
470.474 286.006 -30.186
476.09 287.266 -1.62035
460.967 319.62 -33.1196
445.173 315.612 -57.272
453.391 282.104 -57.2612
469.286 285.721 -33.1124
442.989 315.081 -59.5096
419.542 309.054 -75.6324
427.625 276.07 -75.613
451.207 281.573 -59.4988
416.699 308.355 -76.8481
389.086 301.239 -82.5731
397.021 268.849 -82.5492
424.782 275.372 -76.8286
386.008 300.481 -82.5826
358.367 293.367 -76.9748
366.156 261.561 -76.9548
393.943 268.091 -82.5588
355.518 292.666 -75.7701
332.051 286.645 -59.6487
339.712 255.339 -59.6369
363.307 260.861 -75.7501
329.864 286.11 -57.406
314.13 282.088 -33.1503
321.7 251.118 -33.1444
337.525 254.803 -57.3942
312.944 281.798 -30.21
307.429 280.396 -1.57646
314.967 249.544 -1.57248
320.514 250.828 -30.204
315.77 246.1 1.61093
321.34 247.399 30.2163
328.232 216.237 30.2173
322.631 215.057 1.6144
322.533 247.663 33.1514
338.331 251.347 57.3435
345.305 219.855 57.337
329.424 216.502 33.1523
340.528 251.837 59.5822
364.121 257.359 75.6981
371.212 225.38 75.681
347.502 220.344 59.5757
366.984 257.999 76.9022
394.771 264.529 82.5079
401.993 231.979 82.4854
374.075 226.02 76.8851
397.865 265.222 82.4986
425.626 271.744 76.7787
432.981 238.611 76.762
405.086 232.672 82.4761
428.484 272.381 75.5638
452.066 277.882 59.45
459.546 244.22 59.4436
435.839 239.248 75.5471
454.263 278.362 57.2119
470.167 281.978 33.0437
477.746 247.897 33.0453
461.743 244.7 57.2055
471.364 282.231 30.1168
476.976 283.481 1.55029
484.594 249.24 1.55577
478.942 248.151 30.1183
476.976 283.481 -1.61945
471.36 282.221 -30.1851
478.941 248.138 -30.1762
484.593 249.239 -1.61397
470.164 281.967 -33.111
454.269 278.35 -57.2598
461.75 244.685 -57.2468
477.745 247.884 -33.1021
452.072 277.87 -59.4969
428.49 272.368 -75.6111
435.846 239.234 -75.5877
459.553 244.205 -59.4839
425.632 271.731 -76.826
397.871 265.208 -82.5466
405.093 232.66 -82.5175
432.988 238.598 -76.8027
394.777 264.515 -82.556
366.99 257.986 -76.952
374.081 226.009 -76.9283
401.999 231.967 -82.527
364.127 257.345 -75.7481
340.531 251.822 -59.6349
347.506 220.334 -59.6216
371.218 225.369 -75.7243
338.333 251.333 -57.3931
322.508 247.647 -33.1432
329.399 216.489 -33.1373
345.307 219.844 -57.3798
321.316 247.383 -30.2035
315.768 246.099 -1.57191
322.629 215.056 -1.56844
328.207 216.225 -30.1975
323.357 211.591 1.61457
328.958 212.771 30.2174
335.172 181.427 30.217
329.543 180.365 1.61757
330.156 213.011 33.1518
346.038 216.364 57.3365
352.326 184.698 57.3273
336.37 181.667 33.1514
348.245 216.809 59.5741
371.955 221.844 75.6793
378.347 189.708 75.6572
354.534 185.142 59.5649
374.831 222.427 76.8825
402.748 228.386 82.4828
409.256 195.701 82.4536
381.223 190.291 76.8605
405.856 229.016 82.4736
433.751 234.955 76.7595
440.377 201.7 76.7372
412.363 196.331 82.4444
436.622 235.53 75.5454
460.33 240.502 59.4419
467.07 206.705 59.43
443.248 202.275 75.5231
462.539 240.928 57.2047
478.542 244.125 33.0444
485.38 209.869 33.0444
469.279 207.131 57.1927
479.746 244.345 30.1185
485.397 245.434 1.55593
492.274 211 1.56168
486.584 210.089 30.1186
485.397 245.433 -1.6129
479.744 244.332 -30.1751
486.585 210.074 -30.1645
492.274 210.999 -1.60715
478.541 244.111 -33.1003
462.546 240.912 -57.245
469.287 207.114 -57.227
485.381 209.853 -33.0896
460.337 240.487 -59.4816
436.629 235.516 -75.5854
443.256 202.261 -75.5571
467.078 206.688 -59.4636
433.758 234.941 -76.7995
405.862 229.003 -82.5144
412.37 196.32 -82.4794
440.384 201.686 -76.7712
402.755 228.374 -82.5237
374.837 222.416 -76.925
381.23 190.283 -76.897
409.263 195.69 -82.4888
371.96 221.833 -75.722
348.249 216.798 -59.6192
354.538 185.137 -59.6039
378.354 189.7 -75.694
346.04 216.354 -57.3786
330.132 212.999 -33.136
336.345 181.661 -33.1294
352.329 184.692 -57.3633
328.933 212.76 -30.1969
323.356 211.591 -1.56787
329.542 180.365 -1.56486
335.147 181.421 -30.1903
330.195 176.879 1.61757
335.824 177.942 30.217
341.372 146.423 30.2126
335.722 145.478 1.62024
337.027 178.157 33.1504
352.984 181.188 57.3264
358.594 149.356 57.3117
342.576 146.639 33.146
355.2 181.589 59.5626
379.013 186.155 75.655
384.709 153.876 75.6264
360.81 149.757 59.548
381.9 186.682 76.8571
409.933 192.093 82.4502
415.722 159.298 82.4122
387.596 154.404 76.8285
413.052 192.662 82.4411
441.066 198.031 76.7339
446.954 164.687 76.7026
418.842 159.868 82.4031
443.95 198.544 75.5205
467.771 202.975 59.4274
473.759 169.065 59.4036
449.839 165.201 75.4892
469.992 203.342 57.191
486.093 206.08 33.0427
492.175 171.653 33.0383
475.98 169.433 57.1672
487.304 206.263 30.1185
492.994 207.174 1.56163
499.114 172.549 1.567
493.387 171.835 30.1141
492.994 207.173 -1.60589
487.305 206.248 -30.1632
493.392 171.821 -30.1486
499.114 172.548 -1.60052
486.095 206.064 -33.087
470 203.325 -57.2244
475.99 169.416 -57.1969
492.181 171.637 -33.0724
467.78 202.958 -59.4604
443.958 198.53 -75.554
449.849 165.188 -75.5188
473.769 169.048 -59.4329
441.073 198.017 -76.7674
413.06 192.651 -82.4756
418.851 159.858 -82.4331
446.964 164.675 -76.7322
409.94 192.082 -82.4848
381.907 186.675 -76.893
387.605 154.4 -76.859
415.732 159.289 -82.4423
379.02 186.148 -75.6911
355.204 181.584 -59.601
360.816 149.759 -59.5803
384.717 153.873 -75.657
352.986 181.183 -57.3617
337.003 178.151 -33.1278
342.553 146.64 -33.1176
358.598 149.358 -57.3409
335.799 177.936 -30.1897
330.194 176.879 -1.56419
335.721 145.478 -1.56152
341.349 146.425 -30.1795
336.304 141.974 1.61945
341.955 142.919 30.2118
346.906 111.245 30.1833
341.249 110.419 1.6219
343.161 143.111 33.1431
359.179 145.828 57.3088
364.155 113.849 57.2561
348.112 111.437 33.1146
361.401 146.188 59.5432
385.3 150.307 75.6216
390.313 117.908 75.552
366.376 114.209 59.4905
388.194 150.783 76.8224
416.321 155.678 82.4061
421.378 122.805 82.3274
393.207 118.384 76.7528
419.448 156.19 82.3972
447.561 161.01 76.6966
452.668 127.626 76.6262
424.505 123.317 82.3184
450.455 161.461 75.4837
474.375 165.325 59.3981
479.549 131.316 59.3398
455.562 128.076 75.4133
476.605 165.629 57.1634
492.801 167.849 33.0344
498.04 133.243 33.0114
481.779 131.62 57.1051
494.017 167.989 30.1133
499.745 168.702 1.56624
505.005 133.875 1.56969
499.257 133.382 30.0903
499.745 168.702 -1.59875
494.022 167.974 -30.1468
499.266 133.371 -30.1171
505.005 133.874 -1.5953
492.806 167.834 -33.068
476.615 165.612 -57.1925
481.792 131.606 -57.1317
498.05 133.23 -33.0382
474.386 165.308 -59.427
450.465 161.448 -75.5129
455.577 128.064 -75.4387
479.562 131.303 -59.3663
447.571 160.997 -76.7258
419.458 156.181 -82.4266
424.519 123.31 -82.3429
452.683 127.614 -76.6515
416.33 155.669 -82.4356
388.203 150.78 -76.8523
393.221 118.385 -76.7767
421.392 122.798 -82.3519
385.309 150.305 -75.6515
361.407 146.191 -59.5748
366.387 114.22 -59.5149
390.327 117.91 -75.5759
359.184 145.831 -57.3373
343.138 143.114 -33.114
348.093 111.45 -33.0794
364.164 113.861 -57.2774
341.931 142.921 -30.178
336.303 141.975 -1.56008
341.247 110.419 -1.55763
346.886 111.258 -30.1434
341.787 106.905 1.61568
347.444 107.732 30.1771
352.167 76.0044 29.9805
346.552 75.2979 1.61658
348.647 107.9 33.0971
364.689 110.312 57.2386
369.304 78.2822 56.893
353.37 76.1729 32.9005
366.905 110.632 59.4657
390.842 114.331 75.5271
395.306 81.8902 75.1086
371.52 78.6024 59.12
393.73 114.759 76.7254
421.9 119.179 82.2999
426.198 86.2878 81.8819
398.194 82.3177 76.3068
425.02 119.639 82.2924
453.183 123.948 76.6002
457.313 90.6006 76.2221
429.319 86.7477 81.8744
456.076 124.333 75.3915
480.063 127.573 59.318
484.113 93.436 59.0764
460.206 90.9854 75.0135
482.29 127.8 57.0914
498.552 129.423 32.9977
502.493 94.5801 32.8572
486.34 93.6634 56.8497
499.766 129.513 30.0854
505.514 130.006 1.56481
509.398 94.9152 1.55723
503.707 94.6703 29.9449
505.514 130.005 -1.59063
499.775 129.502 -30.1124
503.712 94.6624 -29.9779
509.398 94.9148 -1.59822
498.562 129.411 -33.0239
482.304 127.787 -57.1175
486.363 93.6543 -56.8605
502.499 94.5719 -32.8894
480.077 127.559 -59.3435
456.091 124.321 -75.4159
460.229 90.9742 -75.0238
484.136 93.4264 -59.0865
453.198 123.936 -76.6246
425.035 119.632 -82.3159
429.341 86.7425 -81.8873
457.336 90.5898 -76.2324
421.915 119.173 -82.3236
393.743 114.76 -76.7484
398.214 82.3232 -76.3217
426.221 86.2833 -81.895
390.856 114.334 -75.5502
366.917 110.644 -59.4892
371.54 78.6255 -59.133
395.327 81.8969 -75.1235
364.699 110.325 -57.2591
348.629 107.915 -33.0611
353.361 76.2019 -32.8592
369.323 78.3064 -56.903
347.425 107.745 -30.1366
341.786 106.906 -1.55087
346.551 75.299 -1.54997
352.157 76.0325 -29.9347
347.212 71.8335 1.57434
352.827 72.5401 29.9383
359.909 41.5436 28.6508
354.554 40.8792 1.57197
353.997 72.6919 32.7824
369.931 74.8012 56.7749
376.265 43.6762 54.4149
361.078 41.6954 31.495
372.088 75.0908 58.9483
395.874 78.3786 74.9369
401.105 47.005 71.8979
378.422 43.9658 56.5883
398.687 78.7655 76.1109
426.692 82.7356 81.6859
430.656 51.0115 78.4614
403.918 47.3919 73.0718
429.734 83.1507 81.6836
457.729 87.0036 76.0314
460.449 54.9245 73.0979
433.699 51.4267 78.4591
460.541 87.3461 74.8601
484.448 89.7968 58.9231
486.014 57.8129 56.6455
463.262 55.267 71.9266
486.616 89.9963 56.753
502.768 90.913 32.7605
503.418 59.2816 31.4697
488.182 58.0125 54.4755
503.949 90.9908 29.9099
509.641 91.2357 1.52224
509.941 59.7209 1.51241
504.599 59.3594 28.6192
509.64 91.2345 -1.56498
503.954 90.9822 -29.9447
504.594 59.3205 -28.6608
509.941 59.7198 -1.57481
502.774 90.9035 -32.7921
486.638 89.9859 -56.7632
488.208 57.9771 -54.4669
503.414 59.2418 -31.5083
484.472 89.7866 -58.9313
460.565 87.3344 -74.8685
463.29 55.2544 -71.9222
486.042 57.7778 -56.635
457.752 86.9929 -76.0404
429.757 83.1457 -81.6953
433.726 51.4246 -78.4619
460.477 54.9129 -73.0941
426.715 82.7316 -81.6981
398.708 78.7715 -76.1248
403.942 47.4037 -73.0813
430.684 51.0105 -78.4648
395.895 78.3865 -74.9513
372.108 75.1151 -58.9608
378.439 44.0086 -56.6023
401.129 47.0188 -71.9077
369.949 74.827 -56.7846
353.987 72.7225 -32.7408
361.062 41.7429 -31.4584
376.28 43.7204 -54.426
352.817 72.569 -29.8925
347.211 71.8355 -1.50774
354.553 40.8811 -1.51011
359.892 41.5894 -28.6101
355.408 37.4873 1.48761
360.763 38.1517 28.5665
368.807 7.92233 26.8129
363.79 7.31009 1.47994
361.869 38.293 31.2561
377.056 40.2739 54.176
384.14 9.89427 50.9391
369.913 8.0637 29.5025
379.095 40.5413 56.2318
401.778 43.5805 71.5414
407.428 12.9279 67.2901
386.179 10.1617 52.9949
404.438 43.9335 72.6526
431.176 47.5531 78.0423
435.115 16.5455 73.4017
410.089 13.2809 68.4014
434.053 47.9301 78.0413
460.804 51.428 72.6801
463.001 20.102 68.3583
437.992 16.9226 73.4007
463.462 51.7538 71.5702
486.213 54.2998 56.289
486.879 22.9316 52.9472
465.658 20.4278 67.2483
488.253 54.5158 54.233
503.489 55.7849 31.2272
503.105 24.5873 29.422
488.918 23.1477 50.8912
504.595 55.8822 28.533
509.936 56.2438 1.42627
509.174 25.1096 1.43637
504.211 24.6846 26.7278
509.936 56.2408 -1.48839
504.589 55.8415 -28.5744
504.203 24.6166 -26.7527
509.174 25.1066 -1.47829
503.484 55.7417 -31.2649
488.278 54.4769 -54.2235
488.934 23.0871 -50.8788
503.098 24.5167 -29.4432
486.241 54.2634 -56.2776
463.49 51.74 -71.5648
465.679 20.4139 -67.2437
486.897 22.8736 -52.933
460.831 51.4165 -72.6757
434.08 47.9281 -78.0435
438.012 16.9209 -73.4013
463.021 20.0904 -68.3546
431.203 47.5523 -78.0451
404.462 43.9456 -72.6615
410.106 13.2933 -68.407
435.135 16.5452 -73.4028
401.801 43.5953 -71.551
379.112 40.5852 -56.2456
386.185 10.219 -53.0084
407.445 12.9431 -67.2965
377.07 40.3201 -54.1877
361.852 38.3426 -31.22
369.891 8.12989 -29.4785
384.144 9.95395 -50.9505
360.746 38.1985 -28.5268
355.407 37.4902 -1.42678
363.789 7.31303 -1.43445
368.785 7.98576 -26.7852
364.831 4.20577 1.35016
369.848 4.818 26.6832
380.25 -21.1151 23.7814
375.827 -21.7366 1.32969
370.856 4.95151 29.1382
385.083 6.78208 50.5748
393.857 -19.2224 45.2669
381.258 -20.9815 26.2365
386.947 7.02896 52.452
408.196 9.79515 66.7471
414.603 -16.4452 59.8147
395.72 -18.9755 47.1441
410.627 10.1153 67.7591
435.654 13.38 72.7595
439.272 -13.1746 65.2186
417.035 -16.1251 60.8267
438.281 13.7229 72.7551
463.29 16.9023 67.7127
464.083 -9.89989 60.6897
441.899 -12.8317 65.2143
465.714 17.211 66.6967
486.934 19.7148 52.3956
485.27 -7.11595 46.9536
466.507 -9.59121 59.6736
488.79 19.9403 50.5215
502.977 21.3799 29.0523
499.64 -5.24103 26.1146
487.126 -6.89047 45.0795
503.983 21.4941 26.6001
508.946 21.9191 1.30868
505.035 -4.54841 1.32757
500.646 -5.12683 23.6624
508.946 21.917 -1.34681
503.975 21.427 -26.6212
500.645 -5.12901 -23.6627
505.035 -4.55043 -1.32792
502.969 21.3108 -29.0728
488.805 19.8812 -50.5085
487.126 -6.89483 -45.0795
499.639 -5.24518 -26.1143
486.95 19.6578 -52.3822
465.732 17.1981 -66.6929
466.507 -9.59359 -59.6733
485.27 -7.11827 -46.9532
463.309 16.891 -67.709
438.3 13.7215 -72.7558
441.9 -12.8325 -65.2141
464.084 -9.9007 -60.6895
435.672 13.3793 -72.7603
410.643 10.1275 -67.7644
417.036 -16.1251 -60.8268
439.272 -13.1748 -65.2186
408.211 9.80883 -66.7525
386.951 7.08474 -52.4644
395.72 -18.9738 -47.1442
414.603 -16.4437 -59.8148
385.087 6.83986 -50.5867
370.834 5.0158 -29.1147
381.257 -20.9778 -26.2362
393.856 -19.2187 -45.2665
369.826 4.88042 -26.659
364.83 4.20769 -1.30818
375.827 -21.7347 -1.32864
380.249 -21.1131 -23.7804
-61.4201 997.487 25.6715
-65.338 994.208 -0.0901016
-61.357 997.437 -25.8468
-50.0964 1006.69 -47.6827
-33.2014 1020.49 -62.2592
-13.2415 1036.72 -67.3452
6.66486 1052.98 -62.2065
23.4409 1066.93 -47.6555
34.58 1076.43 -25.8626
38.4819 1079.8 -0.097667
34.5887 1076.41 25.6647
23.4488 1066.91 47.4553
6.66028 1052.98 62.011
-13.2562 1036.74 67.1535
-33.2249 1020.52 62.0708
-50.1552 1006.74 47.5076
382.635 -22.3855 1.31945e-05
387.058 -21.764 22.4517
399.656 -20.0048 41.4821
418.539 -17.4746 54.1528
440.776 -14.5241 58.5446
462.96 -11.5923 54.02
481.723 -9.11705 41.3
494.237 -7.4676 22.335
498.627 -6.88918 0.000239176
494.237 -7.46776 -22.3346
481.723 -9.11742 -41.2997
462.96 -11.5927 -54.0199
440.776 -14.5245 -58.5445
418.539 -17.4748 -54.1527
399.656 -20.0049 -41.4821
387.058 -21.764 -22.4517
</DataArray>
</Points>
<Cells>
<DataArray type="Int32" Name="connectivity" format="ascii">
0 1 2 3 
4 5 6 7 
8 9 10 11 
12 13 14 15 
16 17 18 19 
20 21 22 23 
24 25 26 27 
28 29 30 31 
32 33 34 35 
36 37 38 39 
40 41 42 43 
44 45 46 47 
48 49 50 51 
52 53 54 55 
56 57 58 59 
60 61 62 63 
64 65 66 67 
68 69 70 71 
72 73 74 75 
76 77 78 79 
80 81 82 83 
84 85 86 87 
88 89 90 91 
92 93 94 95 
96 97 98 99 
100 101 102 103 
104 105 106 107 
108 109 110 111 
112 113 114 115 
116 117 118 119 
120 121 122 123 
124 125 126 127 
128 129 130 131 
132 133 134 135 
136 137 138 139 
140 141 142 143 
144 145 146 147 
148 149 150 151 
152 153 154 155 
156 157 158 159 
160 161 162 163 
164 165 166 167 
168 169 170 171 
172 173 174 175 
176 177 178 179 
180 181 182 183 
184 185 186 187 
188 189 190 191 
192 193 194 195 
196 197 198 199 
200 201 202 203 
204 205 206 207 
208 209 210 211 
212 213 214 215 
216 217 218 219 
220 221 222 223 
224 225 226 227 
228 229 230 231 
232 233 234 235 
236 237 238 239 
240 241 242 243 
244 245 246 247 
248 249 250 251 
252 253 254 255 
256 257 258 259 
260 261 262 263 
264 265 266 267 
268 269 270 271 
272 273 274 275 
276 277 278 279 
280 281 282 283 
284 285 286 287 
288 289 290 291 
292 293 294 295 
296 297 298 299 
300 301 302 303 
304 305 306 307 
308 309 310 311 
312 313 314 315 
316 317 318 319 
320 321 322 323 
324 325 326 327 
328 329 330 331 
332 333 334 335 
336 337 338 339 
340 341 342 343 
344 345 346 347 
348 349 350 351 
352 353 354 355 
356 357 358 359 
360 361 362 363 
364 365 366 367 
368 369 370 371 
372 373 374 375 
376 377 378 379 
380 381 382 383 
384 385 386 387 
388 389 390 391 
392 393 394 395 
396 397 398 399 
400 401 402 403 
404 405 406 407 
408 409 410 411 
412 413 414 415 
416 417 418 419 
420 421 422 423 
424 425 426 427 
428 429 430 431 
432 433 434 435 
436 437 438 439 
440 441 442 443 
444 445 446 447 
448 449 450 451 
452 453 454 455 
456 457 458 459 
460 461 462 463 
464 465 466 467 
468 469 470 471 
472 473 474 475 
476 477 478 479 
480 481 482 483 
484 485 486 487 
488 489 490 491 
492 493 494 495 
496 497 498 499 
500 501 502 503 
504 505 506 507 
508 509 510 511 
512 513 514 515 
516 517 518 519 
520 521 522 523 
524 525 526 527 
528 529 530 531 
532 533 534 535 
536 537 538 539 
540 541 542 543 
544 545 546 547 
548 549 550 551 
552 553 554 555 
556 557 558 559 
560 561 562 563 
564 565 566 567 
568 569 570 571 
572 573 574 575 
576 577 578 579 
580 581 582 583 
584 585 586 587 
588 589 590 591 
592 593 594 595 
596 597 598 599 
600 601 602 603 
604 605 606 607 
608 609 610 611 
612 613 614 615 
616 617 618 619 
620 621 622 623 
624 625 626 627 
628 629 630 631 
632 633 634 635 
636 637 638 639 
640 641 642 643 
644 645 646 647 
648 649 650 651 
652 653 654 655 
656 657 658 659 
660 661 662 663 
664 665 666 667 
668 669 670 671 
672 673 674 675 
676 677 678 679 
680 681 682 683 
684 685 686 687 
688 689 690 691 
692 693 694 695 
696 697 698 699 
700 701 702 703 
704 705 706 707 
708 709 710 711 
712 713 714 715 
716 717 718 719 
720 721 722 723 
724 725 726 727 
728 729 730 731 
732 733 734 735 
736 737 738 739 
740 741 742 743 
744 745 746 747 
748 749 750 751 
752 753 754 755 
756 757 758 759 
760 761 762 763 
764 765 766 767 
768 769 770 771 
772 773 774 775 
776 777 778 779 
780 781 782 783 
784 785 786 787 
788 789 790 791 
792 793 794 795 
796 797 798 799 
800 801 802 803 
804 805 806 807 
808 809 810 811 
812 813 814 815 
816 817 818 819 
820 821 822 823 
824 825 826 827 
828 829 830 831 
832 833 834 835 
836 837 838 839 
840 841 842 843 
844 845 846 847 
848 849 850 851 
852 853 854 855 
856 857 858 859 
860 861 862 863 
864 865 866 867 
868 869 870 871 
872 873 874 875 
876 877 878 879 
880 881 882 883 
884 885 886 887 
888 889 890 891 
892 893 894 895 
896 897 898 899 
900 901 902 903 
904 905 906 907 
908 909 910 911 
912 913 914 915 
916 917 918 919 
920 921 922 923 
924 925 926 927 
928 929 930 931 
932 933 934 935 
936 937 938 939 
940 941 942 943 
944 945 946 947 
948 949 950 951 
952 953 954 955 
956 957 958 959 
960 961 962 963 
964 965 966 967 
968 969 970 971 
972 973 974 975 
976 977 978 979 
980 981 982 983 
984 985 986 987 
988 989 990 991 
992 993 994 995 
996 997 998 999 
1000 1001 1002 1003 
1004 1005 1006 1007 
1008 1009 1010 1011 
1012 1013 1014 1015 
1016 1017 1018 1019 
1020 1021 1022 1023 
1024 1025 1026 1027 
1028 1029 1030 1031 
1032 1033 1034 1035 
1036 1037 1038 1039 
1040 1041 1042 1043 
1044 1045 1046 1047 
1048 1049 1050 1051 
1052 1053 1054 1055 
1056 1057 1058 1059 
1060 1061 1062 1063 
1064 1065 1066 1067 
1068 1069 1070 1071 
1072 1073 1074 1075 
1076 1077 1078 1079 
1080 1081 1082 1083 
1084 1085 1086 1087 
1088 1089 1090 1091 
1092 1093 1094 1095 
1096 1097 1098 1099 
1100 1101 1102 1103 
1104 1105 1106 1107 
1108 1109 1110 1111 
1112 1113 1114 1115 
1116 1117 1118 1119 
1120 1121 1122 1123 
1124 1125 1126 1127 
1128 1129 1130 1131 
1132 1133 1134 1135 
1136 1137 1138 1139 
1140 1141 1142 1143 
1144 1145 1146 1147 
1148 1149 1150 1151 
1152 1153 1154 1155 
1156 1157 1158 1159 
1160 1161 1162 1163 
1164 1165 1166 1167 
1168 1169 1170 1171 
1172 1173 1174 1175 
1176 1177 1178 1179 
1180 1181 1182 1183 
1184 1185 1186 1187 
1188 1189 1190 1191 
1192 1193 1194 1195 
1196 1197 1198 1199 
1200 1201 1202 1203 
1204 1205 1206 1207 
1208 1209 1210 1211 
1212 1213 1214 1215 
1216 1217 1218 1219 
1220 1221 1222 1223 
1224 1225 1226 1227 
1228 1229 1230 1231 
1232 1233 1234 1235 
1236 1237 1238 1239 
1240 1241 1242 1243 
1244 1245 1246 1247 
1248 1249 1250 1251 
1252 1253 1254 1255 
1256 1257 1258 1259 
1260 1261 1262 1263 
1264 1265 1266 1267 
1268 1269 1270 1271 
1272 1273 1274 1275 
1276 1277 1278 1279 
1280 1281 1282 1283 
1284 1285 1286 1287 
1288 1289 1290 1291 
1292 1293 1294 1295 
1296 1297 1298 1299 
1300 1301 1302 1303 
1304 1305 1306 1307 
1308 1309 1310 1311 
1312 1313 1314 1315 
1316 1317 1318 1319 
1320 1321 1322 1323 
1324 1325 1326 1327 
1328 1329 1330 1331 
1332 1333 1334 1335 
1336 1337 1338 1339 
1340 1341 1342 1343 
1344 1345 1346 1347 
1348 1349 1350 1351 
1352 1353 1354 1355 
1356 1357 1358 1359 
1360 1361 1362 1363 
1364 1365 1366 1367 
1368 1369 1370 1371 
1372 1373 1374 1375 
1376 1377 1378 1379 
1380 1381 1382 1383 
1384 1385 1386 1387 
1388 1389 1390 1391 
1392 1393 1394 1395 
1396 1397 1398 1399 
1400 1401 1402 1403 
1404 1405 1406 1407 
1408 1409 1410 1411 
1412 1413 1414 1415 
1416 1417 1418 1419 
1420 1421 1422 1423 
1424 1425 1426 1427 
1428 1429 1430 1431 
1432 1433 1434 1435 
1436 1437 1438 1439 
1440 1441 1442 1443 
1444 1445 1446 1447 
1448 1449 1450 1451 
1452 1453 1454 1455 
1456 1457 1458 1459 
1460 1461 1462 1463 
1464 1465 1466 1467 
1468 1469 1470 1471 
1472 1473 1474 1475 
1476 1477 1478 1479 
1480 1481 1482 1483 
1484 1485 1486 1487 
1488 1489 1490 1491 
1492 1493 1494 1495 
1496 1497 1498 1499 
1500 1501 1502 1503 
1504 1505 1506 1507 
1508 1509 1510 1511 
1512 1513 1514 1515 
1516 1517 1518 1519 
1520 1521 1522 1523 
1524 1525 1526 1527 
1528 1529 1530 1531 
1532 1533 1534 1535 
1536 1537 1538 1539 
1540 1541 1542 1543 
1544 1545 1546 1547 
1548 1549 1550 1551 
1552 1553 1554 1555 
1556 1557 1558 1559 
1560 1561 1562 1563 
1564 1565 1566 1567 
1568 1569 1570 1571 
1572 1573 1574 1575 
1576 1577 1578 1579 
1580 1581 1582 1583 
1584 1585 1586 1587 
1588 1589 1590 1591 
1592 1593 1594 1595 
1596 1597 1598 1599 
1600 1601 1602 1603 
1604 1605 1606 1607 
1608 1609 1610 1611 
1612 1613 1614 1615 
1616 1617 1618 1619 
1620 1621 1622 1623 
1624 1625 1626 1627 
1628 1629 1630 1631 
1632 1633 1634 1635 
1636 1637 1638 1639 
1640 1641 1642 1643 
1644 1645 1646 1647 
1648 1649 1650 1651 
1652 1653 1654 1655 
1656 1657 1658 1659 
1660 1661 1662 1663 
1664 1665 1666 1667 
1668 1669 1670 1671 
1672 1673 1674 1675 
1676 1677 1678 1679 
1680 1681 1682 1683 
1684 1685 1686 1687 
1688 1689 1690 1691 
1692 1693 1694 1695 
1696 1697 1698 1699 
1700 1701 1702 1703 
1704 1705 1706 1707 
1708 1709 1710 1711 
1712 1713 1714 1715 
1716 1717 1718 1719 
1720 1721 1722 1723 
1724 1725 1726 1727 
1728 1729 1730 1731 
1732 1733 1734 1735 
1736 1737 1738 1739 
1740 1741 1742 1743 
1744 1745 1746 1747 
1748 1749 1750 1751 
1752 1753 1754 1755 
1756 1757 1758 1759 
1760 1761 1762 1763 
1764 1765 1766 1767 
1768 1769 1770 1771 
1772 1773 1774 1775 
1776 1777 1778 1779 
1780 1781 1782 1783 
1784 1785 1786 1787 
1788 1789 1790 1791 
1792 1793 1794 1795 
1796 1797 1798 1799 
1800 1801 1802 1803 
1804 1805 1806 1807 
1808 1809 1810 1811 
1812 1813 1814 1815 
1816 1817 1818 1819 
1820 1821 1822 1823 
1824 1825 1826 1827 
1828 1829 1830 1831 
1832 1833 1834 1835 
1836 1837 1838 1839 
1840 1841 1842 1843 
1844 1845 1846 1847 
1848 1849 1850 1851 
1852 1853 1854 1855 
1856 1857 1858 1859 
1860 1861 1862 1863 
1864 1865 1866 1867 
1868 1869 1870 1871 
1872 1873 1874 1875 
1876 1877 1878 1879 
1880 1881 1882 1883 
1884 1885 1886 1887 
1888 1889 1890 1891 
1892 1893 1894 1895 
1896 1897 1898 1899 
1900 1901 1902 1903 
1904 1905 1906 1907 
1908 1909 1910 1911 
1912 1913 1914 1915 
1916 1917 1918 1919 
1920 1921 1922 1923 
1924 1925 1926 1927 
1928 1929 1930 1931 
1932 1933 1934 1935 
1936 1937 1938 1939 
1940 1941 1942 1943 
1944 1945 1946 1947 
1948 1949 1950 1951 
1952 1953 1954 1955 
1956 1957 1958 1959 
1960 1961 1962 1963 
1964 1965 1966 1967 
1968 1969 1970 1971 
1972 1973 1974 1975 
1976 1977 1978 1979 
1980 1981 1982 1983 
1984 1985 1986 1987 
1988 1989 1990 1991 
1992 1993 1994 1995 
1996 1997 1998 1999 
2000 2001 2002 2003 
2004 2005 2006 2007 
2008 2009 2010 2011 
2012 2013 2014 2015 
2016 2017 2018 2019 
2020 2021 2022 2023 
2024 2025 2026 2027 
2028 2029 2030 2031 
2032 2033 2034 2035 
2036 2037 2038 2039 
2040 2041 2042 2043 
2044 2045 2046 2047 
2048 2049 2050 2051 2052 2053 2054 2055 2056 2057 2058 2059 2060 2061 2062 2063 
2064 2065 2066 2067 2068 2069 2070 2071 2072 2073 2074 2075 2076 2077 2078 2079 
</DataArray>
<DataArray type="Int32" Name="offsets" format="ascii">
4 8 12 16 20 24 28 32 36 40 44 48 52 56 60 64 68 72 76 80 84 88 92 96 100 104 108 112 116 120 124 128 132 136 140 144 148 152 156 160 164 168 172 176 180 184 188 192 196 200 204 208 212 216 220 224 228 232 236 240 244 248 252 256 260 264 268 272 276 280 284 288 292 296 300 304 308 312 316 320 324 328 332 336 340 344 348 352 356 360 364 368 372 376 380 384 388 392 396 400 404 408 412 416 420 424 428 432 436 440 444 448 452 456 460 464 468 472 476 480 484 488 492 496 500 504 508 512 516 520 524 528 532 536 540 544 548 552 556 560 564 568 572 576 580 584 588 592 596 600 604 608 612 616 620 624 628 632 636 640 644 648 652 656 660 664 668 672 676 680 684 688 692 696 700 704 708 712 716 720 724 728 732 736 740 744 748 752 756 760 764 768 772 776 780 784 788 792 796 800 804 808 812 816 820 824 828 832 836 840 844 848 852 856 860 864 868 872 876 880 884 888 892 896 900 904 908 912 916 920 924 928 932 936 940 944 948 952 956 960 964 968 972 976 980 984 988 992 996 1000 1004 1008 1012 1016 1020 1024 1028 1032 1036 1040 1044 1048 1052 1056 1060 1064 1068 1072 1076 1080 1084 1088 1092 1096 1100 1104 1108 1112 1116 1120 1124 1128 1132 1136 1140 1144 1148 1152 1156 1160 1164 1168 1172 1176 1180 1184 1188 1192 1196 1200 1204 1208 1212 1216 1220 1224 1228 1232 1236 1240 1244 1248 1252 1256 1260 1264 1268 1272 1276 1280 1284 1288 1292 1296 1300 1304 1308 1312 1316 1320 1324 1328 1332 1336 1340 1344 1348 1352 1356 1360 1364 1368 1372 1376 1380 1384 1388 1392 1396 1400 1404 1408 1412 1416 1420 1424 1428 1432 1436 1440 1444 1448 1452 1456 1460 1464 1468 1472 1476 1480 1484 1488 1492 1496 1500 1504 1508 1512 1516 1520 1524 1528 1532 1536 1540 1544 1548 1552 1556 1560 1564 1568 1572 1576 1580 1584 1588 1592 1596 1600 1604 1608 1612 1616 1620 1624 1628 1632 1636 1640 1644 1648 1652 1656 1660 1664 1668 1672 1676 1680 1684 1688 1692 1696 1700 1704 1708 1712 1716 1720 1724 1728 1732 1736 1740 1744 1748 1752 1756 1760 1764 1768 1772 1776 1780 1784 1788 1792 1796 1800 1804 1808 1812 1816 1820 1824 1828 1832 1836 1840 1844 1848 1852 1856 1860 1864 1868 1872 1876 1880 1884 1888 1892 1896 1900 1904 1908 1912 1916 1920 1924 1928 1932 1936 1940 1944 1948 1952 1956 1960 1964 1968 1972 1976 1980 1984 1988 1992 1996 2000 2004 2008 2012 2016 2020 2024 2028 2032 2036 2040 2044 2048 2064 2080 
</DataArray>
<DataArray type="UInt8" Name="types" format="ascii">
7 7 7 7 7 7 7 7 7 7 7 7 7 7 7 7 7 7 7 7 7 7 7 7 7 7 7 7 7 7 7 7 7 7 7 7 7 7 7 7 7 7 7 7 7 7 7 7 7 7 7 7 7 7 7 7 7 7 7 7 7 7 7 7 7 7 7 7 7 7 7 7 7 7 7 7 7 7 7 7 7 7 7 7 7 7 7 7 7 7 7 7 7 7 7 7 7 7 7 7 7 7 7 7 7 7 7 7 7 7 7 7 7 7 7 7 7 7 7 7 7 7 7 7 7 7 7 7 7 7 7 7 7 7 7 7 7 7 7 7 7 7 7 7 7 7 7 7 7 7 7 7 7 7 7 7 7 7 7 7 7 7 7 7 7 7 7 7 7 7 7 7 7 7 7 7 7 7 7 7 7 7 7 7 7 7 7 7 7 7 7 7 7 7 7 7 7 7 7 7 7 7 7 7 7 7 7 7 7 7 7 7 7 7 7 7 7 7 7 7 7 7 7 7 7 7 7 7 7 7 7 7 7 7 7 7 7 7 7 7 7 7 7 7 7 7 7 7 7 7 7 7 7 7 7 7 7 7 7 7 7 7 7 7 7 7 7 7 7 7 7 7 7 7 7 7 7 7 7 7 7 7 7 7 7 7 7 7 7 7 7 7 7 7 7 7 7 7 7 7 7 7 7 7 7 7 7 7 7 7 7 7 7 7 7 7 7 7 7 7 7 7 7 7 7 7 7 7 7 7 7 7 7 7 7 7 7 7 7 7 7 7 7 7 7 7 7 7 7 7 7 7 7 7 7 7 7 7 7 7 7 7 7 7 7 7 7 7 7 7 7 7 7 7 7 7 7 7 7 7 7 7 7 7 7 7 7 7 7 7 7 7 7 7 7 7 7 7 7 7 7 7 7 7 7 7 7 7 7 7 7 7 7 7 7 7 7 7 7 7 7 7 7 7 7 7 7 7 7 7 7 7 7 7 7 7 7 7 7 7 7 7 7 7 7 7 7 7 7 7 7 7 7 7 7 7 7 7 7 7 7 7 7 7 7 7 7 7 7 7 7 7 7 7 7 7 7 7 7 7 7 7 7 7 7 7 7 7 7 7 7 7 7 7 7 7 7 7 7 7 7 7 7 7 7 7 7 7 7 7 7 7 7 7 
</DataArray>
</Cells>
<CellData Scalars="cell variable 4" Vectors="cell vector">
<DataArray type="Float64" NumberOfComponents="3" Name="cell vector" format="ascii">
0.171027 0.0865797 0.981455
0.511952 0.196455 0.836248
0.773448 0.267101 0.574835
0.903916 0.354882 0.238736
0.772811 0.604989 -0.191709
0.367142 0.733095 -0.57252
-0.168611 -0.549632 0.818215
-0.0380663 -0.218225 0.975156
0.0475783 0.210308 0.976477
0.151689 0.559709 0.814688
0.358562 0.737823 0.571884
0.770263 0.608023 0.192362
0.902056 0.359957 -0.238171
0.76421 0.291625 -0.575272
-0.497387 -0.226995 0.837305
-0.181789 -0.0675656 0.981014
0.158281 0.114331 0.980752
0.454438 0.32008 0.831285
0.679117 0.479365 0.555886
0.791315 0.579032 0.196321
0.760024 0.619873 -0.195246
0.585446 0.591134 -0.55481
-0.373133 -0.415309 0.829632
-0.130002 -0.147789 0.980438
0.130739 0.147046 0.980451
0.370287 0.418265 0.829422
0.584089 0.592496 0.554787
0.75921 0.620842 0.195335
0.789986 0.58087 -0.196247
0.677059 0.482138 -0.555999
-0.452683 -0.322251 0.831404
-0.160417 -0.111386 0.980744
0.158089 0.115551 0.980641
0.451555 0.325801 0.830633
0.674688 0.487269 0.554405
0.789627 0.581951 0.19448
0.766755 0.611499 -0.195333
0.578424 0.60059 -0.552012
-0.378591 -0.412625 0.828498
-0.133611 -0.1448 0.980399
0.133919 0.144649 0.980379
0.377311 0.414012 0.82839
0.578067 0.60087 0.552082
0.765983 0.612446 0.195395
0.788616 0.583327 -0.194461
0.673721 0.488609 -0.554402
-0.450485 -0.326968 0.830756
-0.158889 -0.11386 0.980709
0.159184 0.114703 0.980563
0.454065 0.323616 0.830119
0.679321 0.482223 0.553159
0.797384 0.571787 0.192971
0.778126 0.596886 -0.19557
0.53039 0.648373 -0.546168
-0.0909781 0.776368 -0.623679
-0.61143 0.782579 -0.117151
-0.612427 0.782457 0.112667
-0.102774 0.78174 0.615078
0.531165 0.647601 0.546331
0.777337 0.5979 0.195606
0.796577 0.572915 -0.19296
0.678809 0.483013 -0.553098
-0.453145 -0.32456 0.830253
-0.15928 -0.113551 0.980681
0.160276 0.113552 0.980519
0.456325 0.321092 0.82986
0.681989 0.479089 0.552599
0.799928 0.568465 0.192256
0.782269 0.591383 -0.195758
0.580198 0.600817 -0.549899
-0.0346524 0.759866 -0.649156
-0.590846 0.798233 -0.117158
-0.590765 0.798258 0.11739
-0.0255391 0.754919 0.655321
0.581126 0.599802 0.550028
0.781809 0.591974 0.195808
0.79943 0.569182 -0.192206
0.681779 0.479501 -0.5525
-0.455659 -0.321691 0.829994
-0.160017 -0.112668 0.980663
0.161255 0.112059 0.98053
0.458727 0.317305 0.829992
0.685521 0.473739 0.55284
0.804905 0.561377 0.192311
0.79152 0.578846 -0.196045
0.616958 0.561338 -0.551601
0.0306865 0.731465 -0.681188
-0.573597 0.811386 -0.112424
-0.573774 0.81137 0.111633
0.0412488 0.72469 0.687839
0.616942 0.5613 0.551657
0.791074 0.579428 0.196126
0.804597 0.561849 -0.192221
0.685489 0.473929 -0.552716
-0.45825 -0.317641 0.830127
-0.16084 -0.111289 0.980686
0.162486 0.10998 0.980562
0.462075 0.311732 0.830247
0.690664 0.465707 0.553263
0.811871 0.551192 0.192492
0.802317 0.563687 -0.196328
0.644105 0.528841 -0.552681
0.0989364 0.693779 -0.71336
-0.558637 0.823395 -0.0997252
-0.558794 0.823378 0.0989843
0.102336 0.691226 0.715356
0.643588 0.529436 0.552713
0.801998 0.564108 0.196422
0.811712 0.551465 -0.192379
0.690719 0.465789 -0.553126
-0.46172 -0.311903 0.83038
-0.161995 -0.109268 0.980723
0.163979 0.107439 0.980596
0.466269 0.304751 0.830494
0.697118 0.455507 0.55366
0.820235 0.538602 0.19267
0.813576 0.547228 -0.196559
0.665751 0.500477 -0.553442
-0.19033 -0.627852 0.754703
-0.544187 0.834803 -0.0834536
-0.544593 0.83473 0.0815089
0.158872 0.65504 0.738703
0.664602 0.501979 0.553463
0.813318 0.547573 0.196666
0.820181 0.538733 -0.192537
0.697227 0.455524 -0.553509
-0.466 -0.304808 0.830624
-0.163446 -0.106759 0.980759
0.165673 0.104549 0.980623
0.47108 0.296705 0.830692
0.70448 0.443649 0.55397
0.829505 0.524163 0.192808
0.824927 0.529891 -0.196749
0.683844 0.474828 -0.553982
-0.274218 -0.55358 0.786355
-0.52948 0.845749 -0.0660348
-0.530351 0.845526 0.0617606
0.209283 0.618372 0.757507
0.682061 0.477366 0.553999
0.824592 0.530373 0.196858
0.829493 0.524234 -0.192665
0.704626 0.443617 -0.55381
-0.470876 -0.296674 0.830819
-0.165117 -0.103885 0.980788
0.167502 0.101391 0.980644
0.476308 0.287813 0.83084
0.71244 0.430462 0.554195
0.839281 0.508328 0.192902
0.836047 0.512106 -0.196906
0.698837 0.452021 -0.554349
-0.345571 -0.477877 0.807598
-0.514339 0.856214 -0.0485146
-0.515255 0.855916 0.0438129
0.256365 0.579451 0.773636
0.697065 0.454714 0.554378
0.835725 0.512593 0.197009
0.839282 0.50838 -0.192758
0.71259 0.430426 -0.55403
-0.47614 -0.287731 0.830964
-0.166929 -0.100738 0.980809
0.16941 0.0980285 0.980658
0.481752 0.278287 0.830946
0.720697 0.416274 0.554358
0.849278 0.491417 0.192967
0.846913 0.493883 -0.197022
0.711659 0.431229 -0.554602
-0.399499 -0.411116 0.81938
-0.498215 0.866396 -0.0337496
-0.498951 0.866117 0.0298218
0.295334 0.544101 0.785323
0.710229 0.433527 0.554644
0.846653 0.494289 0.197122
0.849273 0.491483 -0.192821
0.720829 0.416271 -0.554188
-0.481599 -0.278179 0.831071
-0.168818 -0.0973788 0.980825
0.171341 0.0945234 0.980667
0.487255 0.268306 0.83102
0.729024 0.401352 0.554473
0.859301 0.473652 0.193016
0.8575 0.475231 -0.197102
0.723061 0.411592 -0.554775
-0.437268 -0.357905 0.825046
-0.48104 0.876406 -0.0226601
-0.481417 0.876251 0.0205359
0.329944 0.509484 0.79471
0.722306 0.41284 0.554831
0.857288 0.475572 0.197205
0.859241 0.473825 -0.192861
0.729114 0.401428 -0.5543
-0.487106 -0.268176 0.831149
-0.170737 -0.0938416 0.980838
0.173256 0.0909158 0.980672
0.492727 0.257964 0.831068
0.737292 0.385838 0.554553
0.869215 0.455187 0.193055
0.867813 0.456106 -0.197148
0.733431 0.392663 -0.554882
-0.462411 -0.31851 0.827483
-0.462743 0.886347 -0.0160677
-0.462973 0.88625 0.0147119
0.374361 0.456645 0.807049
0.733403 0.392629 0.554943
0.86745 0.456746 0.197263
0.869017 0.455635 -0.19289
0.73733 0.38601 -0.554383
-0.49259 -0.257774 0.831209
-0.172656 -0.0901462 0.980848
0.175141 0.0872 0.980674
0.4981 0.247331 0.831098
0.745386 0.369888 0.554601
0.878894 0.436194 0.193079
0.877854 0.436458 -0.19717
0.743341 0.3735 -0.554925
-0.480922 -0.286624 0.82859
-0.443256 0.896265 -0.0152827
-0.445397 0.895325 0.00381329
0.461645 0.32237 0.826415
0.742092 0.375944 0.554946
0.876911 0.438308 0.197263
0.878571 0.436903 -0.192946
0.745432 0.370008 -0.55446
-0.497993 -0.247018 0.831255
-0.174544 -0.0863439 0.980856
0.17699 0.0833591 0.980676
0.503323 0.236466 0.831114
0.753213 0.353646 0.554621
0.888188 0.416944 0.19308
0.887376 0.41675 -0.197188
0.752478 0.354738 -0.554922
-0.497381 -0.255276 0.829124
-0.424035 0.905579 -0.0110178
-0.42715 0.904162 -0.00575772
0.498677 0.252742 0.829122
0.750008 0.359999 0.554876
0.886425 0.418764 0.1972
0.887976 0.417418 -0.193033
0.753306 0.353597 -0.554526
-0.503217 -0.236092 0.831284
-0.176354 -0.082537 0.98086
0.178786 0.0794258 0.980677
0.508358 0.225419 0.831119
0.760728 0.337169 0.554626
0.897041 0.397543 0.19307
0.896242 0.397311 -0.197216
0.760332 0.33753 -0.55495
-0.511464 -0.22515 0.829284
-0.405945 0.913892 0.00302404
-0.405448 0.914118 -0.00058409
0.505662 0.238326 0.82916
0.759694 0.33904 0.554902
0.896386 0.396989 0.19721
0.897128 0.397363 -0.193037
0.760843 0.33706 -0.554534
-0.508209 -0.225129 0.831288
-0.178075 -0.0787455 0.980861
0.180496 0.0754667 0.980676
0.513166 0.214259 0.831116
0.767905 0.320497 0.55462
0.905522 0.377835 0.193055
0.904822 0.377344 -0.197252
0.768097 0.31934 -0.555021
-0.523197 -0.196667 0.829209
-0.386472 0.92226 0.00874477
-0.385553 0.922677 -0.00406432
0.518154 0.209477 0.829238
0.767265 0.321318 0.55503
0.9052 0.3764 0.19732
0.905763 0.377317 -0.19294
0.768094 0.320287 -0.554479
-0.51303 -0.213983 0.831271
-0.179743 -0.074878 0.98086
0.1821 0.0715243 0.980675
0.517726 0.203048 0.831103
0.774726 0.303685 0.554595
0.913611 0.357849 0.193026
0.913095 0.356842 -0.197283
0.775782 0.300123 -0.555058
-0.532678 -0.1708 0.828904
-0.365641 0.930736 0.00606388
-0.366955 0.930144 -0.0132307
-0.400109 0.914615 -0.0582384
0.773752 0.305241 0.5551
0.912945 0.357176 0.197372
0.913769 0.357529 -0.192873
0.774958 0.303412 -0.554419
-0.517641 -0.202699 0.831241
-0.181363 -0.0709279 0.980855
0.183609 0.0675943 0.980673
0.522026 0.191831 0.831078
0.781151 0.286841 0.554551
0.921202 0.337848 0.19299
0.920791 0.336486 -0.197285
0.782748 0.281508 -0.555031
-0.541582 -0.143541 0.828302
-0.345421 0.938406 0.00884113
-0.34591 0.938196 -0.0115631
-0.401342 0.911027 -0.0946303
0.782132 0.283139 0.55507
0.920647 0.336843 0.197348
0.921243 0.337813 -0.192856
0.781323 0.286716 -0.554372
-0.521945 -0.191486 0.831208
-0.182887 -0.0669824 0.980849
0.185037 0.063671 0.980667
0.526052 0.18068 0.831038
0.787134 0.270115 0.554489
0.928251 0.317987 0.19296
0.927978 0.316147 -0.197249
0.789553 0.261985 -0.55495
-0.552933 -0.104062 0.826702
-0.325576 0.945408 0.014273
-0.32521 0.94556 -0.0124564
-0.418869 0.893812 -0.160153
0.790052 0.260443 0.554967
0.927951 0.316195 0.197301
0.928244 0.318081 -0.192841
0.787248 0.270123 -0.554323
-0.525947 -0.180368 0.831172
-0.184294 -0.0630873 0.980844
0.186381 0.0597823 0.980657
0.529794 0.169683 0.830979
0.792655 0.25364 0.554404
0.934745 0.298381 0.192928
0.934689 0.295766 -0.197178
0.796333 0.240921 -0.554806
-0.566763 -0.0462375 0.822583
-0.306082 0.95175 0.0220471
-0.305404 0.952042 -0.0185433
-0.502137 0.787352 -0.35768
0.797288 0.237779 0.554791
0.934734 0.295599 0.197216
0.934737 0.298469 -0.192831
0.792741 0.253696 -0.554257
-0.529659 -0.169387 0.831125
-0.18559 -0.0592603 0.980839
0.187633 0.0559743 0.980643
0.533243 0.158951 0.830895
0.797702 0.237576 0.554283
0.940661 0.279199 0.192884
0.940896 0.275457 -0.197076
0.803012 0.218175 -0.554591
-0.581131 0.0345473 0.813076
-0.287252 0.95724 0.0343204
-0.286016 0.957821 -0.0278293
0.58882 -0.51289 0.624688
0.804275 0.213617 0.554536
0.941086 0.274788 0.197101
0.940693 0.279144 -0.192808
0.797774 0.237628 -0.554156
-0.53308 -0.158655 0.831056
-0.186783 -0.0555322 0.98083
0.188786 0.0523101 0.980624
0.536394 0.148639 0.830776
0.802258 0.222138 0.554109
0.945985 0.260642 0.192817
0.946615 0.25521 -0.196945
0.809621 0.193085 -0.554285
-0.591637 0.137536 0.794387
-0.268936 0.961864 0.0499134
-0.267337 0.962712 -0.0414302
0.591855 -0.428726 0.68257
0.810889 0.187938 0.554201
0.946916 0.254069 0.196973
0.946067 0.260395 -0.192745
0.802336 0.222144 -0.553994
-0.536216 -0.148302 0.830951
-0.187884 -0.0519383 0.980817
0.189836 0.0488675 0.980599
0.539238 0.138956 0.83061
0.806305 0.207632 0.553861
0.950693 0.242992 0.192713
0.951864 0.235016 -0.196783
0.816135 0.164882 -0.553839
-0.593035 0.25151 0.764887
-0.250846 0.965724 0.0667395
-0.24946 0.966565 -0.059337
0.581851 -0.446023 0.680084
0.81708 0.160441 0.55375
0.952148 0.233827 0.196824
0.950801 0.24263 -0.192634
0.8064 0.20756 -0.553749
-0.53907 -0.138508 0.830794
-0.188901 -0.0485304 0.980796
0.190777 0.0457399 0.980567
0.541766 0.130189 0.830386
0.809814 0.194488 0.553513
0.954745 0.226682 0.192555
0.956631 0.21497 -0.196583
0.822418 0.132758 -0.553176
-0.583467 0.360086 0.727945
-0.232755 0.968945 0.0834911
-0.231805 0.969595 -0.0784296
0.568285 -0.482085 0.666818
0.822988 0.129498 0.553101
0.956828 0.214042 0.196636
0.954852 0.226303 -0.19247
0.809926 0.19433 -0.553404
-0.541625 -0.129554 0.830577
-0.189834 -0.0454061 0.980766
0.191595 0.0430439 0.98053
0.54394 0.122722 0.830102
0.812736 0.18329 0.55305
0.958085 0.212331 0.192326
0.96089 0.195293 -0.196346
0.828283 0.095084 -0.552183
-0.565216 0.453753 0.688941
-0.214224 0.971858 0.0979817
-0.213785 0.972179 -0.0957293
0.552154 -0.521634 0.650403
0.828507 0.0933448 0.552145
0.960983 0.194772 0.196407
0.958182 0.211963 -0.192245
0.812867 0.183015 -0.552949
-0.543845 -0.121816 0.830297
-0.190667 -0.0427154 0.980725
0.192237 0.0409183 0.980495
0.54566 0.11702 0.829796
0.814984 0.174734 0.552512
0.960637 0.200762 0.192021
0.96453 0.176701 -0.196107
0.833312 0.0487042 -0.550653
-0.540239 0.536065 0.648673
-0.194311 0.975071 0.107149
-0.194451 0.974944 -0.108045
0.532598 -0.564955 0.63021
0.83326 0.049041 0.550702
0.964543 0.176573 0.196159
0.960736 0.200338 -0.191965
0.815135 0.174276 -0.552433
-0.545627 -0.115745 0.829996
-0.191358 -0.0406401 0.980679
0.192576 0.0394681 0.980488
0.546664 0.113452 0.829631
0.816325 0.169502 0.552162
0.962214 0.193281 0.191796
0.967185 0.161738 -0.195942
0.836374 -0.0131883 -0.548
-0.499985 0.633861 0.590115
-0.169844 0.979742 0.106106
-0.170156 0.979499 -0.107836
0.498602 -0.637488 0.587372
0.836318 -0.0117927 0.548118
0.967221 0.161503 0.195959
0.962332 0.192705 -0.191788
0.816491 0.16881 -0.552128
-0.546716 -0.111702 0.829834
-0.191808 -0.0393175 0.980645
0.192374 0.0385733 0.980563
0.546305 0.112173 0.830041
0.815816 0.169306 0.552973
0.961666 0.195011 0.192795
0.967545 0.159885 -0.195689
0.831197 -0.136602 -0.538935
-0.36288 0.844269 0.394371
-0.126354 0.988862 0.0786544
-0.125792 0.989167 -0.0756635
-0.353127 0.855741 -0.378165
0.831233 -0.135855 0.539068
0.967728 0.158699 0.195747
0.961895 0.19389 -0.192782
0.816038 0.16805 -0.553029
-0.546506 -0.109716 0.830237
-0.191823 -0.0387258 0.980665
0.191407 0.0355311 0.980867
0.544406 0.103281 0.832439
0.815229 0.154859 0.558051
0.964133 0.176287 0.198422
0.970774 0.140482 -0.194584
0.82954 -0.00733644 -0.5584
-0.555375 0.0104151 0.831535
-0.195171 0.00238928 0.980766
0.19527 -0.00255706 0.980746
0.555352 -0.0128748 0.831515
0.82948 -0.00713719 0.558491
0.970827 0.139825 0.194793
0.964384 0.175136 -0.198218
0.815547 0.153387 -0.557992
-0.544847 -0.100839 0.83245
-0.191029 -0.0358947 0.980928
0.191649 0.0327866 0.980916
0.545037 0.0955265 0.832952
0.816503 0.143253 0.559287
0.966366 0.161991 0.199738
0.972568 0.126355 -0.19531
0.826744 0.0293003 -0.561815
-0.550222 -0.00062651 0.835018
-0.192736 0.000163864 0.981251
0.193038 -0.000697219 0.981191
0.550049 -0.00379193 0.835124
0.82665 0.0298273 0.561926
0.972519 0.126505 0.195455
0.966544 0.16123 -0.199494
0.816827 0.142073 -0.559114
-0.545555 -0.0933771 0.832857
-0.191258 -0.033154 0.98098
0.189339 0.0356776 0.981263
0.538465 0.105955 0.83596
0.80778 0.162366 0.566682
0.962344 0.175944 0.207216
0.974983 0.0749673 -0.209257
0.811653 -0.0475999 -0.582198
-0.537949 0.0377932 0.84213
-0.188275 0.0135471 0.982023
0.188473 -0.0124186 0.982
0.536188 -0.048411 0.842709
0.811492 -0.0483386 0.58236
0.974934 0.076497 0.208931
0.962531 0.175195 -0.206982
0.80874 0.159398 -0.566156
-0.540653 -0.100206 0.835256
-0.189172 -0.0361214 0.981279
0.0124067 0.0104973 0.999868
0.00257188 0.000343963 0.999997
</DataArray>
<DataArray type="Float64" Name="cell vector length" format="ascii">
0.140572 0.123538 0.111163 0.0892427 0.0632824 0.112601 0.170169 0.168047 0.163981 0.163089 0.114453 0.0632835 0.0884162 0.109066 0.143635 0.149158 0.396973 0.373316 0.346083 0.317087 0.295148 0.32363 0.395861 0.429701 0.424092 0.380332 0.3214 0.295194 0.318102 0.349075 0.394131 0.404376 0.497104 0.474661 0.444259 0.407018 0.368853 0.400228 0.492609 0.538249 0.534288 0.481113 0.398531 0.369234 0.408239 0.446449 0.490942 0.502472 0.523052 0.499521 0.465018 0.418555 0.355811 0.227225 0.0903623 0.135021 0.135302 0.0893386 0.228324 0.356391 0.419672 0.466674 0.514313 0.527777 0.537195 0.511916 0.472093 0.414611 0.330582 0.198864 0.0774259 0.122365 0.121608 0.0775198 0.200089 0.331439 0.415682 0.473384 0.525903 0.541544 0.546616 0.519249 0.473976 0.406578 0.309028 0.175213 0.0610162 0.104737 0.103908 0.0615456 0.176808 0.31012 0.407634 0.475032 0.532801 0.550763 0.553352 0.524168 0.474498 0.399758 0.293965 0.158456 0.0468528 0.0905808 0.0897112 0.0472255 0.160187 0.29508 0.400766 0.475404 0.537503 0.557399 0.558099 0.527499 0.474581 0.394698 0.283643 0.147296 0.0378927 0.0795088 0.0791142 0.0356789 0.148449 0.284678 0.395646 0.475393 0.540754 0.562106 0.561399 0.529725 0.474467 0.391054 0.276553 0.139325 0.0323247 0.071875 0.0716518 0.026678 0.140126 0.277416 0.391926 0.475226 0.542992 0.565405 0.56366 0.531184 0.474261 0.388443 0.271676 0.134306 0.0292072 0.0666978 0.0667423 0.0197847 0.134605 0.2723 0.389224 0.474987 0.544516 0.567689 0.565169 0.532099 0.474033 0.38659 0.268295 0.130516 0.0274045 0.0632192 0.0634967 0.0142294 0.130386 0.268718 0.387291 0.474727 0.545514 0.569228 0.566171 0.532668 0.473801 0.385242 0.26589 0.127812 0.0264892 0.0609188 0.0614001 0.0100403 0.127386 0.266223 0.385883 0.474436 0.546144 0.570253 0.566843 0.533022 0.473588 0.384251 0.264147 0.125821 0.025885 0.059511 0.0600074 0.0074356 0.125435 0.264534 0.384802 0.474098 0.546518 0.570934 0.567284 0.533226 0.473408 0.383554 0.262934 0.124398 0.0253786 0.0588516 0.0592088 0.0101988 0.124124 0.263261 0.383879 0.473736 0.546735 0.571388 0.567544 0.533304 0.47324 0.383077 0.262155 0.123508 0.0250392 0.0587592 0.0574363 0.0220195 0.124797 0.262114 0.383093 0.473426 0.546878 0.571682 0.56765 0.533275 0.473059 0.38271 0.261588 0.122831 0.0247308 0.0589268 0.0571625 0.0214712 0.124354 0.261296 0.382596 0.473194 0.546942 0.571827 0.567617 0.533152 0.472864 0.382426 0.261158 0.122213 0.024332 0.0593061 0.0601805 0.00164603 0.120785 0.260863 0.382406 0.473034 0.546928 0.571835 0.567458 0.532941 0.472678 0.382297 0.261027 0.12188 0.0239681 0.0600494 0.0612322 0.00834998 0.119884 0.260505 0.382341 0.472945 0.546876 0.571734 0.567167 0.532649 0.472525 0.382362 0.261228 0.121883 0.023616 0.0611906 0.062451 0.0103801 0.119452 0.260367 0.382362 0.472859 0.546746 0.571507 0.566699 0.532257 0.472404 0.382633 0.261762 0.122168 0.023258 0.0626772 0.0639623 0.010554 0.11968 0.260873 0.382601 0.472743 0.546465 0.571088 0.565968 0.531694 0.472298 0.383177 0.262811 0.122997 0.0231921 0.0646967 0.0655101 0.00821024 0.121208 0.262097 0.383174 0.472633 0.545989 0.570393 0.564846 0.530862 0.472187 0.384107 0.264629 0.124669 0.023798 0.0675801 0.0677729 0.00983584 0.123799 0.264189 0.384201 0.472551 0.545256 0.569311 0.563162 0.529634 0.472055 0.385586 0.267551 0.127558 0.0256955 0.0717495 0.0716909 0.0156016 0.12724 0.267471 0.385854 0.472493 0.544154 0.567677 0.56068 0.527835 0.471889 0.387864 0.272089 0.13223 0.0297822 0.0777766 0.0776172 0.0230135 0.132317 0.272373 0.388346 0.472442 0.542525 0.565266 0.557071 0.525216 0.471661 0.391292 0.278978 0.139462 0.0370103 0.0863815 0.0861669 0.0329008 0.139877 0.279553 0.39196 0.472348 0.540136 0.561759 0.551848 0.521385 0.471247 0.396256 0.289239 0.150258 0.0481197 0.098399 0.0981158 0.0460069 0.150958 0.289996 0.397031 0.472064 0.53661 0.556682 0.5441 0.515475 0.469972 0.402626 0.303889 0.165582 0.0631854 0.115049 0.11474 0.0624442 0.16638 0.304651 0.403408 0.470918 0.531128 0.549147 0.530795 0.504063 0.463885 0.406369 0.32087 0.18333 0.080442 0.140091 0.139566 0.0802085 0.18417 0.321399 0.40706 0.464984 0.520409 0.536178 0.494207 0.467634 0.430435 0.381115 0.314128 0.171842 0.107346 0.197759 0.19874 0.109495 0.172808 0.314482 0.381729 0.431706 0.485555 0.500235 0.47161 0.445193 0.409508 0.365871 0.32169 0.356947 0.463374 0.510665 0.504719 0.446673 0.354824 0.322019 0.366569 0.410916 0.464129 0.477967 0.434358 0.407171 0.371063 0.330113 0.300276 0.32646 0.413198 0.452114 0.444496 0.391172 0.324365 0.300417 0.330735 0.372468 0.427004 0.441029 0.202007 0.1779 0.14462 0.106847 0.0914438 0.135536 0.231253 0.277555 0.271669 0.21343 0.135922 0.0919363 0.106833 0.143501 0.196953 0.20792 0.039195 0.0152124 
</DataArray>
<DataArray type="Float64" Name="cell variable 4" format="ascii">
844.048 834.084 829.687 824.801 818.379 841.17 861.619 846.888 843.373 853.371 842.065 818.326 824.235 827.257 848.004 848.774 1117.77 1097.21 1084.62 1077.27 1074.41 1092.57 1130.54 1128.81 1122.34 1110.39 1092.71 1074.48 1077.1 1084.73 1126 1127.32 1320.23 1296.71 1281.43 1271.48 1266.25 1284.32 1332.81 1334.88 1328.43 1312.3 1284.61 1266.5 1271.58 1281.63 1330.9 1331.18 1365.75 1339.43 1320.05 1305.59 1294.62 1304.35 1380.64 1525.54 1523.54 1374.35 1304.02 1294.47 1305.48 1320.17 1374.67 1377.03 1375.66 1349.28 1330.36 1317.68 1309.12 1310.04 1367.89 1494.27 1492.79 1366.27 1309.57 1308.84 1317.53 1330.43 1384.72 1386.98 1379.01 1351.69 1331.36 1317.59 1308.35 1306.42 1355.46 1467.29 1465.95 1354.39 1306.25 1308.15 1317.5 1331.43 1387.19 1390.33 1381.23 1352.79 1330.84 1315.86 1306.25 1303.46 1346.06 1447.14 1445.76 1343.87 1303.32 1306.09 1315.82 1330.92 1388.41 1392.6 1382.88 1353.5 1330.23 1314.31 1304.43 1301.16 1340.51 1431.78 1431.3 1335.2 1301.24 1304.35 1314.29 1330.3 1389.29 1394.32 1384.15 1354.02 1329.67 1313.02 1302.98 1299.48 1337.75 1421.59 1421.43 1328.09 1299.67 1302.98 1313.03 1329.73 1390.02 1395.68 1385.13 1354.37 1329.19 1312 1301.86 1298.28 1335.92 1414.9 1415.09 1322.07 1298.46 1301.92 1312.06 1329.27 1390.63 1396.77 1385.8 1354.54 1328.8 1311.23 1301 1297.32 1335.05 1410.47 1410.98 1317.18 1297.52 1301.12 1311.33 1328.89 1391.05 1397.55 1386.27 1354.61 1328.52 1310.68 1300.33 1296.54 1334.66 1407.56 1408.41 1313.48 1296.84 1300.55 1310.8 1328.57 1391.35 1398.12 1386.63 1354.62 1328.27 1310.25 1299.79 1295.84 1334.4 1405.75 1406.91 1311.54 1296.47 1300.07 1310.29 1328.23 1391.6 1398.59 1386.85 1354.53 1328.01 1309.92 1299.43 1295.37 1334.28 1404.78 1405.88 1316 1295.87 1299.51 1309.87 1328 1391.84 1398.96 1386.91 1354.34 1327.73 1309.65 1299.22 1295.21 1334.48 1404.55 1402.41 1326.3 1294.48 1298.87 1309.66 1327.92 1392.07 1399.2 1386.85 1354.1 1327.45 1309.38 1298.94 1294.88 1334.51 1404.83 1401.87 1324.46 1293.92 1298.59 1309.46 1327.7 1392.11 1399.27 1386.67 1353.81 1327.18 1309.13 1298.55 1294.25 1334.21 1405.56 1407.38 1307.68 1294.63 1298.71 1309.2 1327.29 1391.94 1399.15 1386.37 1353.45 1326.9 1308.92 1298.29 1293.86 1334.18 1406.78 1409.05 1307.04 1294.58 1298.75 1309.12 1327 1391.72 1398.91 1385.95 1353.01 1326.62 1308.8 1298.2 1293.71 1334.29 1408.37 1410.41 1307.47 1294 1298.64 1309.13 1326.82 1391.51 1398.6 1385.45 1352.53 1326.38 1308.78 1298.19 1293.53 1334.26 1410.27 1412.43 1308.63 1293.8 1298.55 1309.09 1326.61 1391.26 1398.2 1384.86 1352.01 1326.17 1308.85 1298.28 1293.4 1334.36 1412.79 1414.27 1309.23 1293.56 1298.51 1309.09 1326.39 1390.93 1397.69 1384.13 1351.44 1325.99 1309.02 1298.47 1293.34 1334.82 1416.43 1416.96 1313.05 1293.32 1298.55 1309.18 1326.19 1390.5 1397.03 1383.22 1350.79 1325.88 1309.32 1298.78 1293.34 1335.98 1421.78 1422.08 1319.35 1293.35 1298.79 1309.4 1326 1389.95 1396.17 1382.07 1350.03 1325.83 1309.83 1299.28 1293.47 1338.47 1429.7 1430 1325.93 1293.61 1299.28 1309.83 1325.87 1389.26 1395.06 1380.6 1349.13 1325.88 1310.61 1300.05 1293.82 1342.98 1441.25 1441.53 1333.77 1294.03 1300.06 1310.56 1325.86 1388.41 1393.62 1378.57 1347.89 1325.91 1311.59 1301.04 1294.39 1350.1 1457.69 1457.88 1343.68 1294.62 1301.02 1311.51 1325.87 1387.25 1391.63 1374.88 1345.18 1324.65 1311.4 1300.95 1294.36 1359.75 1480.38 1480.35 1355.86 1294.36 1300.86 1311.32 1324.63 1384.56 1387.96 1362.17 1332.97 1313.08 1300.32 1290.31 1286.83 1368.18 1510.62 1509.73 1365.62 1286.23 1290.01 1300.2 1313.09 1372.07 1375.18 1292.1 1262.76 1240.79 1224.47 1211 1220.03 1364.31 1554.49 1553.15 1360.2 1219.78 1210.75 1224.29 1240.68 1299.56 1304.38 1233.7 1206.93 1188.14 1175.54 1167.59 1183.04 1244.02 1251.51 1243.14 1218.93 1183.47 1167.82 1175.54 1188.03 1241.99 1245.42 1109.82 1083.92 1063.61 1048.12 1038.35 1047.22 1098.85 1102.65 1092.24 1068.2 1047.25 1038.61 1048.22 1063.8 1115.24 1120.44 783.513 775.066 774.74 780.317 789.923 809.835 855.524 866.113 859.794 836.132 811.189 790.247 780.21 773.155 793.976 789.225 612.241 745.326 
</DataArray>
<DataArray type="Float64" Name="cell variable 5" format="ascii">
0.00555612 0.00555612 0.00555612 0.00555612 0.00555612 0.00555612 0.00555612 0.00555612 0.00555612 0.00555612 0.00555612 0.00555612 0.00555612 0.00555612 0.00555612 0.00555612 0.00555612 0.00555612 0.00555612 0.00555612 0.00555612 0.00555612 0.00555612 0.00555612 0.00555612 0.00555612 0.00555612 0.00555612 0.00555612 0.00555612 0.00555612 0.00555612 0.00555612 0.00555612 0.00555612 0.00555612 0.00555612 0.00555612 0.00555612 0.00555612 0.00555612 0.00555612 0.00555612 0.00555612 0.00555612 0.00555612 0.00555612 0.00555612 0.00839715 0.00777363 0.00676735 0.00580799 0.00555612 0.00555612 0.00555612 0.00555612 0.00555612 0.00555612 0.00555612 0.00555612 0.00580799 0.00676735 0.00777363 0.00839715 0.00950096 0.00863544 0.00723777 0.00590554 0.00555612 0.00555612 0.00555612 0.00555612 0.00555612 0.00555612 0.00555612 0.00555612 0.00590554 0.00723777 0.00863544 0.00950096 0.0101405 0.00913549 0.00751064 0.00596233 0.00555612 0.00555612 0.00555612 0.00555612 0.00555612 0.00555612 0.00555612 0.00555612 0.00596233 0.00751064 0.00913549 0.0101405 0.010606 0.00949726 0.00770942 0.00600431 0.00555612 0.00555612 0.00555612 0.00555612 0.00555612 0.00555612 0.00555612 0.00555612 0.00600431 0.00770942 0.00949726 0.010606 0.010969 0.00978124 0.00786376 0.00603641 0.00555612 0.00555612 0.00555612 0.00555612 0.00555612 0.00555612 0.00555612 0.00555612 0.00603641 0.00786376 0.00978124 0.010969 0.0112616 0.0100097 0.00798846 0.00606234 0.00555612 0.00555612 0.00555612 0.00555612 0.00555612 0.00555612 0.00555612 0.00555612 0.00606234 0.00798846 0.0100097 0.0112616 0.0115012 0.0101961 0.00809094 0.00608333 0.00555612 0.00555612 0.00555612 0.00555612 0.00555612 0.00555612 0.00555612 0.00555612 0.00608333 0.00809094 0.0101961 0.0115012 0.011695 0.010348 0.00817367 0.00610062 0.00555612 0.00555612 0.00555612 0.00555612 0.00555612 0.00555612 0.00555612 0.00555612 0.00610062 0.00817367 0.010348 0.011695 0.0118506 0.0104702 0.00824034 0.0061142 0.00555612 0.00555612 0.00555612 0.00555612 0.00555612 0.00555612 0.00555612 0.00555612 0.0061142 0.00824034 0.0104702 0.0118506 0.0119716 0.010564 0.00829096 0.00612531 0.00555612 0.00555612 0.00555612 0.00555612 0.00555612 0.00555612 0.00555612 0.00555612 0.00612531 0.00829096 0.010564 0.0119716 0.0120605 0.0106332 0.00832924 0.00613272 0.00555612 0.00555612 0.00555612 0.00555612 0.00555612 0.00555612 0.00555612 0.00555612 0.00613272 0.00832924 0.0106332 0.0120605 0.0121197 0.0106789 0.00835393 0.00613889 0.00555612 0.00555612 0.00555612 0.00555612 0.00555612 0.00555612 0.00555612 0.00555612 0.00613889 0.00835393 0.0106789 0.0121197 0.0121481 0.0107023 0.00836628 0.00614136 0.00555612 0.00555612 0.00555612 0.00555612 0.00555612 0.00555612 0.00555612 0.00555612 0.00614136 0.00836628 0.0107023 0.0121481 0.0121481 0.0107023 0.00836628 0.00614136 0.00555612 0.00555612 0.00555612 0.00555612 0.00555612 0.00555612 0.00555612 0.00555612 0.00614136 0.00836628 0.0107023 0.0121481 0.0121197 0.0106789 0.00835393 0.00613889 0.00555612 0.00555612 0.00555612 0.00555612 0.00555612 0.00555612 0.00555612 0.00555612 0.00613889 0.00835393 0.0106789 0.0121197 0.0120605 0.0106332 0.00832924 0.00613272 0.00555612 0.00555612 0.00555612 0.00555612 0.00555612 0.00555612 0.00555612 0.00555612 0.00613272 0.00832924 0.0106332 0.0120605 0.0119716 0.010564 0.00829096 0.00612531 0.00555612 0.00555612 0.00555612 0.00555612 0.00555612 0.00555612 0.00555612 0.00555612 0.00612531 0.00829096 0.010564 0.0119716 0.0118506 0.0104702 0.00824034 0.0061142 0.00555612 0.00555612 0.00555612 0.00555612 0.00555612 0.00555612 0.00555612 0.00555612 0.0061142 0.00824034 0.0104702 0.0118506 0.011695 0.010348 0.00817367 0.00610062 0.00555612 0.00555612 0.00555612 0.00555612 0.00555612 0.00555612 0.00555612 0.00555612 0.00610062 0.00817367 0.010348 0.011695 0.0115012 0.0101961 0.00809094 0.00608333 0.00555612 0.00555612 0.00555612 0.00555612 0.00555612 0.00555612 0.00555612 0.00555612 0.00608333 0.00809094 0.0101961 0.0115012 0.0112616 0.0100097 0.00798846 0.00606234 0.00555612 0.00555612 0.00555612 0.00555612 0.00555612 0.00555612 0.00555612 0.00555612 0.00606234 0.00798846 0.0100097 0.0112616 0.010969 0.00978124 0.00786376 0.00603641 0.00555612 0.00555612 0.00555612 0.00555612 0.00555612 0.00555612 0.00555612 0.00555612 0.00603641 0.00786376 0.00978124 0.010969 0.010606 0.00949726 0.00770942 0.00600431 0.00555612 0.00555612 0.00555612 0.00555612 0.00555612 0.00555612 0.00555612 0.00555612 0.00600431 0.00770942 0.00949726 0.010606 0.0101405 0.00913549 0.00751064 0.00596233 0.00555612 0.00555612 0.00555612 0.00555612 0.00555612 0.00555612 0.00555612 0.00555612 0.00596233 0.00751064 0.00913549 0.0101405 0.00950096 0.00863544 0.00723777 0.00590554 0.00555612 0.00555612 0.00555612 0.00555612 0.00555612 0.00555612 0.00555612 0.00555612 0.00590554 0.00723777 0.00863544 0.00950096 0.00839715 0.00777363 0.00676735 0.00580799 0.00555612 0.00555612 0.00555612 0.00555612 0.00555612 0.00555612 0.00555612 0.00555612 0.00580799 0.00676735 0.00777363 0.00839715 0.00555612 0.00555612 0.00555612 0.00555612 0.00555612 0.00555612 0.00555612 0.00555612 0.00555612 0.00555612 0.00555612 0.00555612 0.00555612 0.00555612 0.00555612 0.00555612 0.00555612 0.00555612 0.00555612 0.00555612 0.00555612 0.00555612 0.00555612 0.00555612 0.00555612 0.00555612 0.00555612 0.00555612 0.00555612 0.00555612 0.00555612 0.00555612 0.00555612 0.00555612 0.00555612 0.00555612 0.00555612 0.00555612 0.00555612 0.00555612 0.00555612 0.00555612 0.00555612 0.00555612 0.00555612 0.00555612 0.00555612 0.00555612 0.00555612 0.00555612 
</DataArray>
<DataArray type="Float64" Name="cell variable 6" format="ascii">
1 1 1 1 1 1 1 1 1 1 1 1 1 1 1 1 1 1 1 1 1 1 1 1 1 1 1 1 1 1 1 1 1 1 1 1 1 1 1 1 1 1 1 1 1 1 1 1 1 1 1 1 1 1 1 1 1 1 1 1 1 1 1 1 1 1 1 1 1 1 1 1 1 1 1 1 1 1 1 1 1 1 1 1 1 1 1 1 1 1 1 1 1 1 1 1 1 1 1 1 1 1 1 1 1 1 1 1 1 1 1 1 1 1 1 1 1 1 1 1 1 1 1 1 1 1 1 1 1 1 1 1 1 1 1 1 1 1 1 1 1 1 1 1 1 1 1 1 1 1 1 1 1 1 1 1 1 1 1 1 1 1 1 1 1 1 1 1 1 1 1 1 1 1 1 1 1 1 1 1 1 1 1 1 1 1 1 1 1 1 1 1 1 1 1 1 1 1 1 1 1 1 1 1 1 1 1 1 1 1 1 1 1 1 1 1 1 1 1 1 1 1 1 1 1 1 1 1 1 1 1 1 1 1 1 1 1 1 1 1 1 1 1 1 1 1 1 1 1 1 1 1 1 1 1 1 1 1 1 1 1 1 1 1 1 1 1 1 1 1 1 1 1 1 1 1 1 1 1 1 1 1 1 1 1 1 1 1 1 1 1 1 1 1 1 1 1 1 1 1 1 1 1 1 1 1 1 1 1 1 1 1 1 1 1 1 1 1 1 1 1 1 1 1 1 1 1 1 1 1 1 1 1 1 1 1 1 1 1 1 1 1 1 1 1 1 1 1 1 1 1 1 1 1 1 1 1 1 1 1 1 1 1 1 1 1 1 1 1 1 1 1 1 1 1 1 1 1 1 1 1 1 1 1 1 1 1 1 1 1 1 1 1 1 1 1 1 1 1 1 1 1 1 1 1 1 1 1 1 1 1 1 1 1 1 1 1 1 1 1 1 1 1 1 1 1 1 1 1 1 1 1 1 1 1 1 1 1 1 1 1 1 1 1 1 1 1 1 1 1 1 1 1 1 1 1 1 1 1 1 1 1 1 1 1 1 1 1 1 1 1 1 1 1 1 1 1 1 1 1 1 1 1 1 1 1 1 1 1 1 1 1 1 1 1 1 1 1 1 1 1 1 1 1 1 1 1 1 1 1 1 1 1 1 
</DataArray>
<DataArray type="Float64" Name="cell variable 7" format="ascii">
0 0 0 0 0 0 0 0 0 0 0 0 0 0 0 0 0 0 0 0 0 0 0 0 0 0 0 0 0 0 0 0 0 0 0 0 0 0 0 0 0 0 0 0 0 0 0 0 0 0 0 0 0 0 0 0 0 0 0 0 0 0 0 0 0 0 0 0 0 0 0 0 0 0 0 0 0 0 0 0 0 0 0 0 0 0 0 0 0 0 0 0 0 0 0 0 0 0 0 0 0 0 0 0 0 0 0 0 0 0 0 0 0 0 0 0 0 0 0 0 0 0 0 0 0 0 0 0 0 0 0 0 0 0 0 0 0 0 0 0 0 0 0 0 0 0 0 0 0 0 0 0 0 0 0 0 0 0 0 0 0 0 0 0 0 0 0 0 0 0 0 0 0 0 0 0 0 0 0 0 0 0 0 0 0 0 0 0 0 0 0 0 0 0 0 0 0 0 0 0 0 0 0 0 0 0 0 0 0 0 0 0 0 0 0 0 0 0 0 0 0 0 0 0 0 0 0 0 0 0 0 0 0 0 0 0 0 0 0 0 0 0 0 0 0 0 0 0 0 0 0 0 0 0 0 0 0 0 0 0 0 0 0 0 0 0 0 0 0 0 0 0 0 0 0 0 0 0 0 0 0 0 0 0 0 0 0 0 0 0 0 0 0 0 0 0 0 0 0 0 0 0 0 0 0 0 0 0 0 0 0 0 0 0 0 0 0 0 0 0 0 0 0 0 0 0 0 0 0 0 0 0 0 0 0 0 0 0 0 0 0 0 0 0 0 0 0 0 0 0 0 0 0 0 0 0 0 0 0 0 0 0 0 0 0 0 0 0 0 0 0 0 0 0 0 0 0 0 0 0 0 0 0 0 0 0 0 0 0 0 0 0 0 0 0 0 0 0 0 0 0 0 0 0 0 0 0 0 0 0 0 0 0 0 0 0 0 0 0 0 0 0 0 0 0 0 0 0 0 0 0 0 0 0 0 0 0 0 0 0 0 0 0 0 0 0 0 0 0 0 0 0 0 0 0 0 0 0 0 0 0 0 0 0 0 0 0 0 0 0 0 0 0 0 0 0 0 0 0 0 0 0 0 0 0 0 0 0 0 0 0 0 0 0 0 0 0 0 0 0 0 0 0 0 0 0 0 0 0 0 0 0 1 1 
</DataArray>
<DataArray type="Float64" Name="cell variable 8" format="ascii">
11.25 33.75 56.25 78.75 101.25 123.75 146.25 168.75 191.25 213.75 236.25 258.75 281.25 303.75 326.25 348.75 11.25 33.75 56.25 78.75 101.25 123.75 146.25 168.75 191.25 213.75 236.25 258.75 281.25 303.75 326.25 348.75 11.25 33.75 56.25 78.75 101.25 123.75 146.25 168.75 191.25 213.75 236.25 258.75 281.25 303.75 326.25 348.75 11.25 33.75 56.25 78.75 101.25 123.75 146.25 168.75 191.25 213.75 236.25 258.75 281.25 303.75 326.25 348.75 11.25 33.75 56.25 78.75 101.25 123.75 146.25 168.75 191.25 213.75 236.25 258.75 281.25 303.75 326.25 348.75 11.25 33.75 56.25 78.75 101.25 123.75 146.25 168.75 191.25 213.75 236.25 258.75 281.25 303.75 326.25 348.75 11.25 33.75 56.25 78.75 101.25 123.75 146.25 168.75 191.25 213.75 236.25 258.75 281.25 303.75 326.25 348.75 11.25 33.75 56.25 78.75 101.25 123.75 146.25 168.75 191.25 213.75 236.25 258.75 281.25 303.75 326.25 348.75 11.25 33.75 56.25 78.75 101.25 123.75 146.25 168.75 191.25 213.75 236.25 258.75 281.25 303.75 326.25 348.75 11.25 33.75 56.25 78.75 101.25 123.75 146.25 168.75 191.25 213.75 236.25 258.75 281.25 303.75 326.25 348.75 11.25 33.75 56.25 78.75 101.25 123.75 146.25 168.75 191.25 213.75 236.25 258.75 281.25 303.75 326.25 348.75 11.25 33.75 56.25 78.75 101.25 123.75 146.25 168.75 191.25 213.75 236.25 258.75 281.25 303.75 326.25 348.75 11.25 33.75 56.25 78.75 101.25 123.75 146.25 168.75 191.25 213.75 236.25 258.75 281.25 303.75 326.25 348.75 11.25 33.75 56.25 78.75 101.25 123.75 146.25 168.75 191.25 213.75 236.25 258.75 281.25 303.75 326.25 348.75 11.25 33.75 56.25 78.75 101.25 123.75 146.25 168.75 191.25 213.75 236.25 258.75 281.25 303.75 326.25 348.75 11.25 33.75 56.25 78.75 101.25 123.75 146.25 168.75 191.25 213.75 236.25 258.75 281.25 303.75 326.25 348.75 11.25 33.75 56.25 78.75 101.25 123.75 146.25 168.75 191.25 213.75 236.25 258.75 281.25 303.75 326.25 348.75 11.25 33.75 56.25 78.75 101.25 123.75 146.25 168.75 191.25 213.75 236.25 258.75 281.25 303.75 326.25 348.75 11.25 33.75 56.25 78.75 101.25 123.75 146.25 168.75 191.25 213.75 236.25 258.75 281.25 303.75 326.25 348.75 11.25 33.75 56.25 78.75 101.25 123.75 146.25 168.75 191.25 213.75 236.25 258.75 281.25 303.75 326.25 348.75 11.25 33.75 56.25 78.75 101.25 123.75 146.25 168.75 191.25 213.75 236.25 258.75 281.25 303.75 326.25 348.75 11.25 33.75 56.25 78.75 101.25 123.75 146.25 168.75 191.25 213.75 236.25 258.75 281.25 303.75 326.25 348.75 11.25 33.75 56.25 78.75 101.25 123.75 146.25 168.75 191.25 213.75 236.25 258.75 281.25 303.75 326.25 348.75 11.25 33.75 56.25 78.75 101.25 123.75 146.25 168.75 191.25 213.75 236.25 258.75 281.25 303.75 326.25 348.75 11.25 33.75 56.25 78.75 101.25 123.75 146.25 168.75 191.25 213.75 236.25 258.75 281.25 303.75 326.25 348.75 11.25 33.75 56.25 78.75 101.25 123.75 146.25 168.75 191.25 213.75 236.25 258.75 281.25 303.75 326.25 348.75 11.25 33.75 56.25 78.75 101.25 123.75 146.25 168.75 191.25 213.75 236.25 258.75 281.25 303.75 326.25 348.75 11.25 33.75 56.25 78.75 101.25 123.75 146.25 168.75 191.25 213.75 236.25 258.75 281.25 303.75 326.25 348.75 11.25 33.75 56.25 78.75 101.25 123.75 146.25 168.75 191.25 213.75 236.25 258.75 281.25 303.75 326.25 348.75 11.25 33.75 56.25 78.75 101.25 123.75 146.25 168.75 191.25 213.75 236.25 258.75 281.25 303.75 326.25 348.75 11.25 33.75 56.25 78.75 101.25 123.75 146.25 168.75 191.25 213.75 236.25 258.75 281.25 303.75 326.25 348.75 11.25 33.75 56.25 78.75 101.25 123.75 146.25 168.75 191.25 213.75 236.25 258.75 281.25 303.75 326.25 348.75 0 0 
</DataArray>
</CellData>
</Piece>
</UnstructuredGrid>
</VTKFile>
