<VTKFile type="UnstructuredGrid" version="0.1">
<UnstructuredGrid>
<Piece  NumberOfPoints="    2080" NumberOfCells="     514">
<Points>
<DataArray type="Float64" NumberOfComponents="3" format="ascii">
-313.49 718.654 1.10535
-312.306 723.662 26.8691
-286.369 712.578 28.9914
-287.688 707.157 1.1349
-312.037 724.776 29.6206
-308.608 739.007 51.4189
-282.355 729.094 55.3042
-286.1 713.692 31.7429
-308.113 741.061 53.5194
-303.03 762.319 68.0222
-276.311 754.152 73.1006
-281.86 731.149 57.4046
-302.397 765 69.1553
-296.589 790.056 74.2063
-269.365 783.97 79.7538
-275.679 756.833 74.2337
-295.936 792.962 74.2065
-290.461 818.087 69.1136
-262.847 814.148 74.2767
-268.713 786.876 79.754
-289.893 820.783 67.9788
-285.481 842.194 53.4701
-257.554 840.03 57.3886
-262.279 816.845 73.142
-285.059 844.265 51.3661
-282.15 858.61 29.5673
-253.988 857.601 31.6769
-257.132 842.1 55.2847
-281.921 859.731 26.8141
-280.881 864.759 1.05338
-252.633 864.159 1.06234
-253.76 858.721 28.9238
-280.879 864.758 -1.92785
-281.885 859.701 -27.6847
-253.716 858.697 -29.7768
-252.63 864.157 -1.91889
-282.11 858.577 -30.4371
-285.008 844.215 -52.2281
-257.07 842.054 -56.1245
-253.942 857.573 -32.5292
-285.429 842.144 -54.3306
-289.835 820.722 -68.8267
-262.216 816.786 -73.9626
-257.491 839.982 -58.2269
-290.403 818.025 -69.9598
-295.874 792.894 -75.0352
-268.645 786.812 -80.5571
-262.784 814.088 -75.0957
-296.526 789.988 -75.0331
-302.338 764.937 -69.9648
-275.612 756.774 -75.0179
-269.297 783.906 -80.555
-302.972 762.257 -68.8298
-308.049 741.012 -54.3072
-281.816 731.113 -58.1646
-276.245 754.094 -73.883
-308.545 738.959 -52.2044
-311.981 724.751 -30.3953
-286.086 713.674 -32.4679
-282.312 729.06 -56.0617
-312.253 723.639 -27.6415
-313.488 718.653 -1.87656
-287.687 707.156 -1.84701
-286.359 712.562 -29.714
-284.561 706.077 1.2118
-283.242 711.498 29.0683
-252.464 703.228 29.7131
-253.834 697.714 1.2261
-279.21 728.068 55.5202
-248.266 720.061 56.7271
-252.177 704.396 32.6037
-282.955 712.665 31.959
-273.133 753.225 73.424
-241.923 745.641 75.0277
-247.738 722.215 58.9349
-278.681 730.222 57.728
-266.146 783.174 80.1371
-234.683 776.141 81.8917
-241.25 748.454 76.2208
-272.46 756.038 74.6171
-259.598 813.499 74.6618
-228.155 807.075 76.248
-234 779.192 81.8937
-265.464 786.226 80.1391
-254.288 839.518 57.7141
-222.91 833.604 58.9035
-227.568 809.91 75.0537
-259.012 816.333 73.4675
-250.708 857.193 31.8929
-219.324 851.625 32.5385
-222.474 835.778 56.69
-253.852 841.692 55.5006
-249.343 863.807 1.1386
-217.946 858.36 1.15123
-219.086 852.802 29.6457
-250.47 858.37 29.0001
-250.426 858.345 -29.8504
-219.051 852.774 -30.4669
-217.944 858.359 -1.97984
-249.341 863.806 -1.99247
-253.79 841.647 -56.3375
-222.417 835.733 -57.4908
-219.286 851.594 -33.3587
-250.661 857.166 -32.7422
-258.949 816.274 -74.2849
-227.505 809.852 -75.8378
-222.852 833.557 -59.7025
-254.224 839.47 -58.5492
-265.395 786.162 -80.9387
-233.932 779.129 -82.6571
-228.09 807.017 -77.0302
-259.535 813.439 -75.4773
-272.393 755.979 -75.3978
-241.184 748.395 -76.9629
-234.614 776.077 -82.6532
-266.078 783.111 -80.9348
-278.638 730.186 -58.4843
-247.692 722.172 -59.6583
-241.859 745.583 -75.7677
-273.067 753.168 -74.2026
-282.943 712.648 -32.6798
-252.161 704.368 -33.2957
-248.223 720.02 -57.4478
-279.169 728.034 -56.2737
-283.233 711.482 -29.787
-284.561 706.076 -1.92002
-253.833 697.713 -1.90571
-252.451 703.203 -30.4029
-250.401 696.851 1.24884
-249.032 702.365 29.7358
-217.859 695.119 29.8795
-219.269 689.598 1.26378
-248.733 703.544 32.6668
-244.823 719.209 56.7902
-213.493 711.976 57.0612
-217.56 696.297 32.8106
-244.269 721.384 59.0313
-238.454 744.81 75.1242
-206.826 737.603 75.4989
-212.94 714.151 59.3024
-237.751 747.652 76.335
-231.184 775.339 82.0059
-199.299 768.205 82.391
-206.123 740.445 76.7096
-230.496 778.428 82.0082
-224.65 806.311 76.3625
-193.042 799.412 76.7601
-198.611 771.294 82.3933
-224.08 809.191 75.1516
-219.421 832.884 59.0014
-188.022 826.221 59.3466
-192.471 802.292 75.5491
-218.994 835.093 56.7558
-215.844 850.941 32.6044
-184.49 844.405 32.8043
-187.595 828.43 57.101
-215.606 852.135 29.6698
-214.467 857.694 1.17534
-183.111 851.194 1.19337
-184.253 845.599 29.8697
-214.466 857.692 -2.00051
-215.572 852.106 -30.4876
-184.225 845.573 -30.6532
-183.109 851.192 -1.98248
-215.806 850.91 -33.4209
-218.938 835.049 -57.553
-187.546 828.385 -57.8678
-184.46 844.376 -33.5866
-219.363 832.838 -59.7968
-224.016 809.133 -75.9321
-192.41 802.233 -76.2985
-187.971 826.175 -60.1116
-224.586 806.252 -77.1411
-230.427 778.364 -82.7679
-198.543 771.229 -83.1211
-192.98 799.352 -77.5075
-231.115 775.276 -82.7636
-237.686 747.593 -77.0733
-206.058 740.384 -77.4167
-199.231 768.14 -83.1167
-238.39 744.752 -75.8606
-244.223 721.34 -59.7512
-212.89 714.103 -59.9933
-206.762 737.543 -76.204
-244.779 719.167 -57.5076
-248.717 703.515 -33.3556
-217.539 696.263 -33.4704
-213.446 711.93 -57.7498
-249.018 702.339 -30.4224
-250.401 696.85 -1.92523
-219.268 689.597 -1.91028
-217.84 695.087 -30.5372
-215.838 688.776 1.27204
-214.428 694.296 29.8878
-183.716 686.715 29.9443
-185.307 681.23 1.28571
-214.104 695.473 32.8302
-210.037 711.152 57.0809
-178.82 703.471 57.1731
-183.392 687.892 32.8868
-209.436 713.324 59.3295
-203.322 736.776 75.526
-171.374 728.951 75.6453
-178.219 705.642 59.4216
-202.552 739.617 76.7392
-195.728 767.377 82.4206
-162.72 759.343 82.5314
-170.604 731.792 76.8585
-194.964 770.475 82.4161
-189.396 798.593 76.7828
-154.795 790.303 76.8805
-161.956 762.441 82.5269
-188.76 801.467 75.5649
-184.311 825.396 59.3624
-148.403 816.953 59.4823
-154.16 793.177 75.6626
-183.835 827.598 57.1127
-180.73 843.572 32.816
-144.012 835.021 32.8973
-147.927 819.154 57.2327
-180.465 844.761 29.8753
-179.323 850.356 1.19892
-142.335 841.762 1.21902
-143.747 836.21 29.9566
-179.322 850.355 -1.98395
-180.438 844.735 -30.6547
-143.723 836.186 -30.6979
-142.334 841.761 -1.96385
-180.7 843.544 -33.5945
-183.786 827.553 -57.8757
-147.882 819.109 -57.9628
-143.986 834.995 -33.6377
-184.261 825.349 -60.1239
-188.7 801.408 -76.3107
-154.101 793.117 -76.3758
-148.357 816.906 -60.2109
-189.334 798.533 -77.5267
-194.898 770.41 -83.1403
-161.89 762.375 -83.2202
-154.735 790.242 -77.5918
-195.661 767.312 -83.1429
-202.488 739.556 -77.4429
-170.54 731.73 -77.5334
-162.654 759.278 -83.2228
-203.258 736.716 -76.2279
-209.386 713.276 -60.0172
-178.166 705.593 -60.0824
-171.311 728.89 -76.3184
-209.989 711.106 -57.7663
-214.082 695.439 -33.4869
-183.364 687.854 -33.5165
-178.769 703.422 -57.8315
-214.409 694.264 -30.5423
-215.837 688.774 -1.9154
-185.306 681.228 -1.90173
-183.691 686.679 -30.5719
-181.933 680.325 1.28914
-180.342 685.81 29.9477
-150.129 677.051 29.9737
-151.918 671.634 1.30395
-179.978 686.977 32.8937
-175.406 702.556 57.1799
-144.629 693.606 57.2203
-149.764 678.217 32.9196
-174.731 704.709 59.4309
-167.886 728.017 75.6545
-136.26 718.798 75.6977
-143.954 695.759 59.4713
-167.012 730.831 76.8676
-159.128 758.382 82.5406
-126.405 748.826 82.5897
-135.386 721.612 76.9108
-158.221 761.444 82.535
-151.06 789.307 76.8886
-116.899 779.368 76.9143
-125.497 751.888 82.5842
-150.269 792.151 75.67
-144.512 815.927 59.4897
-109.098 805.664 59.5099
-116.109 782.213 75.6956
-143.92 818.107 57.2394
-140.006 833.973 32.904
-103.793 823.518 32.9289
-108.506 807.845 57.2595
-139.681 835.151 29.9605
-138.269 840.703 1.22302
-101.787 830.185 1.24195
-103.469 824.696 29.9854
-138.268 840.702 -1.96359
-139.658 835.128 -30.6977
-103.448 824.674 -30.685
-101.786 830.184 -1.94465
-139.98 833.947 -33.6405
-143.876 818.062 -57.9655
-108.465 807.801 -57.9493
-103.77 823.493 -33.6278
-144.466 815.88 -60.2145
-150.21 792.091 -76.3795
-116.052 782.153 -76.3703
-109.055 805.619 -60.1983
-151 789.246 -77.5963
-158.155 761.379 -83.2247
-125.433 751.823 -83.2414
-116.842 779.308 -77.5872
-159.062 758.316 -83.2285
-166.948 730.769 -77.5391
-135.322 721.549 -77.5519
-126.34 748.76 -83.2452
-167.823 727.956 -76.3245
-174.678 704.659 -60.0884
-143.898 695.707 -60.0999
-136.196 718.737 -76.3373
-175.354 702.507 -57.8352
-179.95 686.939 -33.5202
-149.733 678.177 -33.5167
-144.575 693.556 -57.8467
-180.317 685.775 -30.5721
-181.932 680.323 -1.90198
-151.917 671.632 -1.88717
-150.1 677.013 -30.5686
-148.603 670.592 1.3063
-146.814 676.008 29.976
-117.153 665.929 29.9953
-119.153 660.598 1.32221
-146.405 677.159 32.9234
-141.27 692.548 57.2242
-111.006 682.231 57.2546
-116.744 667.08 32.9427
-140.513 694.672 59.4762
-132.819 717.712 75.7026
-101.637 707.051 75.7431
-110.249 684.355 59.5066
-131.834 720.487 76.9158
-122.853 747.701 82.5948
-90.5304 736.628 82.6375
-100.651 709.826 76.9563
-121.806 750.718 82.5884
-113.208 778.198 76.9185
-79.5393 766.683 76.9467
-89.4838 739.645 82.6311
-112.272 781 75.6983
-105.261 804.452 59.5125
-70.3844 792.538 59.5291
-78.6029 769.485 75.7265
-104.556 806.6 57.2617
-99.8442 822.274 32.9311
-64.1846 810.11 32.9497
-69.6802 794.687 57.2783
-99.4614 823.436 29.9876
-97.7798 828.924 1.24418
-61.8541 816.676 1.2631
-63.8018 811.271 30.0062
-97.7787 828.923 -1.9427
-99.4403 823.413 -30.6831
-63.7829 811.249 -30.6641
-61.853 816.675 -1.92378
-99.8211 822.249 -33.6259
-104.516 806.557 -57.9474
-69.6423 794.644 -57.9273
-64.1637 810.086 -33.607
-105.218 804.406 -60.197
-112.215 780.941 -76.369
-78.5487 769.426 -76.362
-70.3447 792.494 -60.1769
-113.151 778.138 -77.5877
-121.742 750.653 -83.2418
-89.4206 739.58 -83.2512
-79.4838 766.623 -77.5807
-122.788 747.636 -83.2466
-131.77 720.425 -77.5534
-100.588 709.763 -77.5622
-90.4668 736.563 -83.256
-132.755 717.65 -76.3388
-140.457 694.621 -60.1015
-110.191 684.302 -60.1015
-101.573 706.989 -76.3477
-141.216 692.497 -57.8472
-146.373 677.118 -33.5172
-116.711 667.037 -33.5051
-110.949 682.179 -57.8472
-146.785 675.97 -30.5675
-148.602 670.59 -1.88609
-119.151 660.596 -1.87018
-117.122 665.889 -30.5554
-115.902 659.409 1.32433
-113.902 664.74 29.9975
-84.8355 653.321 30.0153
-87.0555 648.088 1.34106
-113.447 665.872 32.9458
-107.709 681.023 57.2576
-78.0114 669.328 57.2839
-84.3803 654.453 32.9636
-106.865 683.112 59.5108
-98.2526 705.808 75.7473
-67.5983 693.71 75.7845
-77.1677 671.418 59.5371
-97.1511 708.537 76.9608
-87.0301 735.339 82.642
-55.2092 722.763 82.6788
-66.4969 696.439 76.998
-85.8465 738.304 82.6349
-75.9021 765.342 76.9505
-42.7923 752.262 76.9787
-54.0256 725.728 82.6718
-74.8268 768.094 75.7292
-66.6082 791.148 59.5318
-32.3388 777.618 59.5499
-41.717 755.015 75.7573
-65.7955 793.258 57.2803
-60.2999 808.681 32.9517
-25.265 794.856 32.9695
-31.5261 779.728 57.2984
-59.8596 809.822 30.0083
-57.9119 815.227 1.26514
-22.6147 801.303 1.28406
-24.8247 795.998 30.0261
-57.911 815.226 -1.92164
-59.8408 809.801 -30.662
-24.8077 795.977 -30.6423
-22.6137 801.302 -1.90272
-60.2792 808.657 -33.6049
-65.7578 793.216 -57.9252
-31.4908 779.686 -57.9066
-25.2461 794.833 -33.5851
-66.5688 791.104 -60.1756
-74.7728 768.036 -76.3607
-41.6651 754.958 -76.3535
-32.3018 777.575 -60.157
-75.8468 765.283 -77.5807
-85.7835 738.239 -83.2512
-53.9641 725.664 -83.2541
-42.7392 752.204 -77.5734
-86.9666 735.274 -83.2568
-97.0874 708.475 -77.563
-66.4334 696.376 -77.5677
-55.1471 722.698 -83.2597
-98.189 705.745 -76.3483
-106.807 683.059 -60.1021
-77.1087 671.363 -60.097
-67.5351 693.647 -76.353
-107.652 680.97 -57.8467
-113.413 665.829 -33.5047
-84.3459 654.408 -33.4897
-77.9539 669.274 -57.8416
-113.871 664.7 -30.5539
-115.901 659.407 -1.86868
-87.0538 648.086 -1.85196
-84.804 653.279 -30.5389
-83.8735 646.751 1.34312
-81.6536 651.984 30.0174
-53.2238 639.235 30.0349
-55.6691 634.11 1.36035
-81.1504 653.094 32.9663
-74.7814 667.969 57.2866
-45.7068 654.909 57.3101
-52.7206 640.344 32.9839
-73.8483 670.019 59.5407
-64.2789 692.311 75.7881
-34.228 678.791 75.8204
-44.7736 656.959 59.5642
-63.0584 694.988 77.0019
-51.7707 721.312 82.6827
-20.5431 707.248 82.714
-33.0075 681.468 77.0342
-50.4519 724.218 82.6752
-39.2186 750.752 76.9821
-6.74212 736.125 77.0075
-19.2243 710.155 82.7065
-38.0097 753.449 75.76
-28.6315 776.051 59.5526
4.9581 760.926 59.5711
-5.53331 738.822 75.7854
-27.714 778.118 57.3005
-21.4529 793.247 32.9716
12.8805 777.791 32.9893
5.87564 762.993 57.319
-20.9565 794.365 30.0281
-18.7464 799.671 1.28609
15.8443 784.101 1.30494
13.377 778.91 30.0459
-18.7456 799.67 -1.90057
-20.9396 794.345 -30.6401
13.3923 778.89 -30.6204
15.8452 784.1 -1.88171
-21.4343 793.224 -33.5831
-27.6789 778.077 -57.9045
5.90847 762.953 -57.8864
12.8976 777.769 -33.5634
-28.5948 776.009 -60.1557
-37.9581 753.392 -76.3521
-5.48385 738.766 -76.3421
4.99265 760.885 -60.1376
-39.1656 750.694 -77.573
-50.3905 724.154 -83.2536
-19.1646 710.091 -83.2507
-6.69135 736.068 -77.5629
-51.7088 721.247 -83.2599
-62.9951 694.925 -77.5678
-32.9451 681.405 -77.5671
-20.4829 707.184 -83.2569
-64.2156 692.248 -76.353
-73.7893 669.964 -60.097
-44.7146 656.902 -60.0885
-34.1656 678.728 -76.3522
-74.7239 667.915 -57.8407
-81.1159 653.049 -33.4887
-52.6864 640.297 -33.4726
-45.6492 654.854 -57.8321
-81.622 651.942 -30.5372
-83.8719 646.748 -1.85027
-55.6674 634.108 -1.83304
-53.1926 639.19 -30.5211
-52.5607 632.627 1.36239
-50.1155 637.751 30.0369
-22.3695 623.691 30.0545
-25.0422 618.687 1.37988
-49.5635 638.837 32.9863
-42.5497 653.402 57.3126
-14.1545 638.996 57.3341
-21.8176 624.776 33.0039
-41.5259 655.406 59.5674
-30.9802 677.238 75.8236
-1.60451 662.319 75.851
-13.1307 641.001 59.5889
-29.64 679.856 77.0376
-17.1755 705.636 82.7173
13.3736 690.109 82.7444
-0.264233 664.938 77.065
-15.7231 708.477 82.7094
-3.24094 734.448 77.0104
28.5244 718.298 77.0322
14.8261 692.95 82.7365
-1.90321 737.082 75.7879
8.58821 759.187 59.5736
41.4241 742.493 59.5915
29.8621 720.932 75.8097
9.60683 761.206 57.3211
16.6117 776.004 32.9914
50.1676 758.946 33.009
42.4428 744.512 57.339
17.1627 777.097 30.0479
19.6301 782.288 1.30697
53.4369 765.105 1.32572
50.7186 760.039 30.0655
19.6309 782.287 -1.87958
17.178 777.077 -30.6183
50.7326 760.02 -30.5987
53.4377 765.104 -1.86084
16.6286 775.982 -33.5614
9.63946 761.166 -57.8844
42.4734 744.474 -57.8659
50.1832 758.926 -33.5418
8.62251 759.146 -60.136
-1.85398 737.027 -76.3405
29.9091 720.877 -76.3268
41.4564 742.453 -60.1175
-3.19038 734.391 -77.5619
-15.6637 708.413 -83.2497
14.8836 692.887 -83.2424
28.5727 718.242 -77.5482
-17.1155 705.572 -83.2565
-29.5776 679.793 -77.5667
-0.203177 664.874 -77.5608
13.4318 690.045 -83.2492
-30.9179 677.175 -76.3517
-41.4669 655.35 -60.0879
-13.0725 640.943 -60.0771
-1.54348 662.256 -76.3458
-42.4922 653.346 -57.8309
-49.5293 638.789 -33.4713
-21.7845 624.727 -33.4548
-14.0977 638.94 -57.8201
-50.0843 637.707 -30.5193
-52.5591 632.625 -1.83126
-25.0406 618.684 -1.81377
-22.3395 623.644 -30.5027
-22.0127 617.06 1.3819
-19.34 622.064 30.0566
7.67177 606.716 30.074
4.77202 601.845 1.39941
-18.7392 623.122 33.0062
-11.0762 637.342 57.3364
16.5812 621.617 57.3562
8.27258 607.774 33.0236
-9.96182 639.297 59.5916
1.56439 660.615 75.8537
30.1949 644.324 75.8774
17.6956 623.571 59.6114
3.02382 663.168 77.0679
16.6617 688.339 82.7473
46.4483 671.38 82.7709
31.6544 646.877 77.0916
18.2454 691.109 82.7391
31.9438 716.457 77.0348
62.9153 698.817 77.054
48.0321 674.149 82.7627
33.4064 719.023 75.8118
44.9685 740.584 59.5937
76.9745 722.354 59.6106
64.3779 701.383 75.8311
46.0847 742.551 57.341
53.8095 756.985 33.011
86.5126 738.358 33.0284
78.0907 724.32 57.3579
54.4134 758.049 30.0676
57.1318 763.115 1.32774
90.0783 744.35 1.34636
87.1165 739.422 30.0849
57.1325 763.114 -1.85873
54.4273 758.031 -30.5966
87.1293 739.405 -30.5769
90.079 744.349 -1.84011
53.8249 756.964 -33.5397
46.1151 742.512 -57.8638
78.1192 724.283 -57.8444
86.5269 738.338 -33.52
45.0005 740.544 -60.1157
33.4532 718.968 -76.325
64.4224 701.33 -76.3089
77.0047 722.315 -60.0963
31.9918 716.401 -77.5469
18.3027 691.045 -83.2411
48.0871 674.086 -83.2304
62.961 698.762 -77.5308
16.7197 688.276 -83.2483
3.08468 663.104 -77.5599
31.7134 646.813 -77.5502
46.504 671.316 -83.2376
1.62528 660.552 -76.3449
-9.90371 639.239 -60.0762
17.7523 623.512 -60.0636
30.254 644.26 -76.3352
-11.0195 637.286 -57.8186
-18.7063 623.073 -33.4534
8.30369 607.723 -33.4366
16.6365 621.559 -57.806
-19.31 622.018 -30.5009
-22.0112 617.058 -1.81194
4.77356 601.842 -1.79442
7.69998 606.668 -30.4841
7.71716 600.077 1.40139
10.6169 604.949 30.0759
36.8429 588.344 30.0929
33.7185 583.616 1.41876
11.2662 605.977 33.0257
19.5748 619.82 57.3583
46.4386 602.802 57.3764
37.4921 589.372 33.0427
20.7787 621.719 59.6138
33.2781 642.472 75.8798
61.1001 624.838 75.9006
47.6426 604.702 59.6319
34.855 644.953 77.0941
49.6489 669.456 82.7734
78.6048 651.095 82.7939
62.677 627.319 77.1149
51.3612 672.147 82.7649
66.2443 696.815 77.0563
96.3524 677.717 77.0741
80.317 653.786 82.7854
67.8281 699.308 75.8331
80.4247 720.278 59.6126
111.529 700.545 59.6286
97.9362 680.21 75.851
81.6351 722.188 57.3599
90.0569 736.226 33.0303
121.833 716.067 33.0471
112.74 702.455 57.3759
90.712 737.26 30.0869
93.6737 742.187 1.34834
125.685 721.879 1.36664
122.488 717.1 30.1037
93.6744 742.186 -1.83801
90.7247 737.242 -30.5748
122.499 717.083 -30.5553
125.685 721.878 -1.81972
90.071 736.206 -33.5179
81.6634 722.151 -57.8423
112.766 702.419 -57.8227
121.846 716.048 -33.4983
80.4546 720.239 -60.0944
67.8723 699.254 -76.3069
97.978 680.158 -76.29
111.557 700.508 -60.0748
66.2898 696.76 -77.5292
51.4159 672.084 -83.2288
80.3693 653.723 -83.2154
96.3955 677.663 -77.5123
49.7044 669.393 -83.2363
34.9138 644.889 -77.549
62.7337 627.255 -77.5369
78.6578 651.032 -83.223
33.337 642.408 -76.334
20.8353 621.66 -60.0624
47.6973 604.642 -60.0485
61.1569 624.774 -76.3219
19.6299 619.762 -57.8045
11.2971 605.926 -33.4351
37.5207 589.32 -33.4182
46.4918 602.744 -57.7906
10.645 604.901 -30.4823
7.71859 600.075 -1.79257
33.7199 583.614 -1.7752
36.8687 588.294 -30.4654
36.5736 581.711 1.42069
39.698 586.439 30.0948
65.0856 568.61 30.1115
61.7409 564.038 1.43773
40.3949 587.435 33.0447
49.3414 600.866 57.3784
75.3541 582.592 57.3952
65.7825 569.606 33.0613
50.6334 602.705 59.634
64.0909 622.842 75.9027
91.0405 603.902 75.9208
76.6461 584.432 59.6508
65.7828 625.245 77.117
81.7106 649.02 82.7961
109.766 629.296 82.8135
92.7324 606.305 77.1351
83.548 651.627 82.7874
99.5834 675.558 77.0761
128.756 655.042 77.0918
111.603 631.903 82.8048
101.284 677.973 75.8528
114.877 698.308 59.6305
145.008 677.114 59.6451
130.457 657.457 75.8685
116.178 700.157 57.3777
125.271 713.768 33.0489
156.048 692.119 33.0648
146.309 678.962 57.3923
125.976 714.769 30.1056
129.173 719.548 1.36856
160.176 697.738 1.3864
156.752 693.119 30.1215
129.173 719.547 -1.81764
125.987 714.752 -30.5532
156.763 693.103 -30.5337
160.176 697.737 -1.79981
125.284 713.749 -33.4962
116.205 700.121 -57.8205
146.334 678.928 -57.8003
156.06 692.101 -33.4766
114.905 698.27 -60.0727
101.326 677.92 -76.288
130.496 657.405 -76.2696
145.035 677.077 -60.0525
99.6262 675.504 -77.5105
83.6 651.565 -83.2136
111.653 631.841 -83.1978
128.796 654.99 -77.4921
81.7633 648.958 -83.2214
65.8392 625.181 -77.5354
92.7864 606.241 -77.5211
109.816 629.234 -83.2057
64.1474 622.778 -76.3205
50.6878 602.646 -60.047
76.6982 584.372 -60.0324
91.0946 603.838 -76.3062
49.3943 600.807 -57.789
40.4232 587.383 -33.4166
65.8082 569.553 -33.4
75.4048 582.533 -57.7744
39.7236 586.389 -30.4636
36.5749 581.709 -1.77335
61.7422 564.036 -1.75631
65.1086 568.56 -30.447
64.5002 562 1.43961
67.8449 566.572 30.1133
92.3413 547.557 30.1295
88.7817 543.152 1.45627
68.5884 567.534 33.0632
78.1599 580.519 57.3971
103.265 561.028 57.4125
93.0848 548.519 33.0793
79.5378 582.295 59.6527
93.9322 601.765 75.9227
119.948 581.561 75.9376
104.643 562.804 59.6681
95.7361 604.085 77.1369
112.77 627.076 82.8152
139.857 606.032 82.8284
121.752 583.88 77.1518
114.728 629.592 82.8064
131.881 652.732 77.0934
160.047 630.843 77.1058
141.816 608.547 82.8196
133.695 655.062 75.8701
148.247 674.718 59.6467
177.334 652.108 59.659
161.86 633.173 75.8824
149.635 676.503 57.3939
159.373 689.659 33.0664
189.079 666.565 33.081
178.722 653.892 57.4063
160.124 690.624 30.1233
163.548 695.243 1.38824
193.472 671.979 1.4056
189.831 667.53 30.1379
163.549 695.243 -1.79775
160.135 690.608 -30.5316
189.841 667.515 -30.5117
193.473 671.979 -1.78039
159.385 689.641 -33.4744
149.659 676.468 -57.7981
178.745 653.859 -57.7765
189.09 666.548 -33.4545
148.273 674.682 -60.0502
133.734 655.011 -76.2674
161.897 633.123 -76.2464
177.358 652.073 -60.0287
131.921 652.679 -77.49
114.778 629.531 -83.1957
141.862 608.487 -83.1766
160.084 630.791 -77.4691
112.819 627.014 -83.2038
95.7898 604.021 -77.5193
121.803 583.817 -77.5027
139.904 605.971 -83.1847
93.986 601.702 -76.3046
79.5897 582.235 -60.0308
104.692 562.744 -60.0156
119.999 581.498 -76.288
78.2103 580.46 -57.7727
68.6137 567.48 -33.3983
93.1071 548.465 -33.382
103.313 560.969 -57.7575
67.8677 566.522 -30.4451
64.5013 561.998 -1.75448
88.7828 543.15 -1.73782
92.3611 547.506 -30.4289
91.4393 540.986 1.45808
94.999 545.391 30.1313
118.552 525.231 30.1466
114.783 521.004 1.47431
95.7878 546.315 33.081
105.968 558.824 57.4142
130.111 538.159 57.4272
119.341 526.156 33.0964
107.429 560.532 59.6696
122.734 579.289 75.9391
147.758 557.864 75.9483
131.572 539.866 59.6826
124.646 581.519 77.1529
142.752 603.67 82.8296
168.808 581.353 82.8324
149.671 560.095 77.1621
144.828 606.09 82.8205
163.058 628.385 77.1066
190.149 605.17 77.1081
170.884 583.773 82.8233
164.981 630.626 75.8833
180.454 649.561 59.6599
208.427 625.58 59.6644
192.071 607.411 75.8847
181.926 651.276 57.4075
192.283 663.948 33.0822
220.846 639.453 33.0921
209.898 627.295 57.412
193.08 664.877 30.1396
196.721 669.326 1.40724
225.492 644.65 1.42415
221.643 640.382 30.1495
196.722 669.325 -1.77824
193.09 664.861 -30.5095
221.652 640.367 -30.4858
225.493 644.65 -1.76134
192.294 663.931 -33.4519
181.949 651.243 -57.7739
209.919 627.263 -57.7454
220.857 639.437 -33.4282
180.478 649.526 -60.0259
165.017 630.576 -76.2436
192.105 607.363 -76.2128
208.449 625.546 -59.9973
163.096 628.334 -77.4663
144.874 606.03 -83.1738
170.928 583.714 -83.1451
190.184 605.121 -77.4355
142.799 603.61 -83.1823
124.697 581.456 -77.5003
149.718 560.032 -77.4788
168.852 581.294 -83.1536
122.785 579.226 -76.2861
107.478 560.472 -60.0137
131.618 539.806 -59.9969
147.806 557.802 -76.2646
106.015 558.765 -57.7558
95.8097 546.261 -33.3803
119.359 526.102 -33.3641
130.155 538.1 -57.7389
95.0186 545.34 -30.4271
91.4403 540.983 -1.73602
114.784 521.001 -1.7198
118.568 525.18 -30.4108
117.334 518.713 1.47599
121.102 522.94 30.1483
143.658 501.679 30.1609
139.686 497.637 1.49166
121.935 523.826 33.0977
132.705 535.829 57.4285
155.834 514.037 57.4326
144.49 502.565 33.1102
134.247 537.464 59.6831
150.433 555.462 75.9487
174.417 532.873 75.9374
157.376 515.672 59.6871
152.45 557.598 77.1611
171.588 578.857 82.8314
196.567 555.332 82.795
176.434 535.009 77.1497
173.775 581.174 82.8208
193.039 602.572 77.1056
218.978 578.074 77.0468
198.754 557.649 82.7844
195.064 604.716 75.8818
211.42 622.885 59.6614
238.175 597.549 59.6081
221.003 580.218 75.823
212.97 624.526 57.4102
223.918 636.684 33.0904
251.219 610.787 33.0654
239.726 599.191 57.3569
224.757 637.572 30.15
228.606 641.841 1.42466
256.098 615.746 1.44103
252.058 611.675 30.1251
228.607 641.84 -1.75817
224.767 637.558 -30.4827
252.066 611.661 -30.4252
256.099 615.746 -1.7418
223.928 636.668 -33.4228
212.991 624.494 -57.74
239.745 599.16 -57.6545
251.228 610.771 -33.3654
211.442 622.851 -59.9908
195.098 604.668 -76.2063
221.035 580.171 -76.1162
238.196 597.517 -59.9054
193.074 602.522 -77.4295
173.818 581.115 -83.1391
198.794 557.592 -83.0722
219.011 578.026 -77.3394
171.632 578.797 -83.1492
152.498 557.536 -77.4744
176.478 534.948 -77.4334
196.608 555.274 -83.0823
150.481 555.4 -76.2617
134.293 537.404 -59.994
157.418 515.613 -59.9692
174.461 532.812 -76.2207
132.749 535.77 -57.7369
121.953 523.772 -33.362
144.505 502.511 -33.3441
155.875 513.978 -57.7121
121.118 522.889 -30.409
117.334 518.71 -1.71798
139.687 497.634 -1.7023
143.67 501.628 -30.3911
142.123 495.226 1.49321
146.094 499.269 30.1624
167.596 476.946 30.1745
163.43 473.099 1.50823
146.969 500.113 33.1112
158.313 511.585 57.4335
180.363 488.703 57.4371
168.471 477.79 33.1232
159.933 513.144 59.6867
176.974 530.345 75.937
199.843 506.622 75.9253
181.983 490.262 59.6903
179.092 532.382 77.1471
199.225 552.705 82.7924
223.063 527.981 82.7565
201.961 508.659 77.1354
201.52 554.913 82.7791
221.744 575.337 77.0415
246.52 549.57 76.9845
225.358 530.188 82.7431
223.866 577.377 75.8168
241.038 594.709 59.6018
266.601 568.059 59.5505
248.642 551.611 75.7598
242.662 596.27 57.3525
254.155 607.867 33.0611
280.241 580.625 33.0373
268.225 569.62 57.3012
255.034 608.711 30.1246
259.075 612.783 1.44054
285.344 585.334 1.45619
281.12 581.47 30.1008
259.075 612.782 -1.73777
255.043 608.698 -30.4212
281.128 581.457 -30.3662
285.345 585.333 -1.72212
254.165 607.851 -33.3576
242.682 596.24 -57.6467
268.243 569.591 -57.5647
280.25 580.611 -33.3026
241.059 594.677 -59.8957
223.897 577.331 -76.1065
248.671 551.566 -76.0195
266.62 568.028 -59.8137
221.776 575.289 -77.3307
201.56 554.856 -83.0635
225.394 530.133 -82.9983
246.55 549.524 -77.2437
199.266 552.648 -83.0764
179.136 532.321 -77.4275
202.002 508.599 -77.3874
223.101 527.925 -83.0112
177.018 530.284 -76.2171
159.975 513.085 -59.9657
182.022 490.204 -59.9416
199.884 506.562 -76.177
158.353 511.526 -57.7098
146.984 500.059 -33.3418
168.482 477.736 -33.3246
180.4 488.645 -57.6857
146.107 499.217 -30.3893
142.123 495.224 -1.70048
163.431 473.096 -1.68547
167.605 476.895 -30.3722
165.747 470.573 1.50976
169.913 474.42 30.176
190.306 451.076 30.1895
185.957 447.437 1.52407
170.829 475.221 33.1243
182.721 486.134 57.4382
203.63 462.2 57.4488
191.221 451.877 33.1378
184.414 487.612 59.6906
202.274 503.973 75.9255
223.956 479.152 75.9316
205.324 463.678 59.7012
204.489 505.904 77.1343
225.591 525.227 82.7553
248.184 499.355 82.7562
226.171 481.083 77.1404
227.99 527.318 82.7406
249.152 546.7 76.982
272.66 519.773 76.9838
250.583 501.446 82.7415
251.369 548.633 75.757
269.327 565.081 59.5477
293.61 537.261 59.5534
274.877 521.706 75.7588
271.023 566.561 57.2996
283.04 577.565 33.0356
307.84 549.148 33.0457
295.306 538.74 57.3053
283.958 578.366 30.1012
288.182 582.23 1.45665
313.163 553.602 1.47151
308.758 549.948 30.1113
288.182 582.229 -1.7192
283.966 578.353 -30.3633
308.765 549.936 -30.3438
313.163 553.602 -1.70435
283.049 577.551 -33.2976
271.041 566.532 -57.5597
295.323 538.713 -57.5364
307.848 549.134 -33.2781
269.346 565.051 -59.8076
251.397 548.589 -76.0134
274.903 521.664 -75.9867
293.628 537.232 -59.7843
249.182 546.654 -77.238
228.026 527.263 -82.9926
250.616 501.393 -82.9656
272.687 519.729 -77.2113
225.628 525.171 -83.0069
204.529 505.845 -77.3831
226.208 481.026 -77.362
248.218 499.301 -82.9799
202.314 503.913 -76.1742
184.453 487.555 -59.9388
205.359 463.622 -59.923
223.993 479.094 -76.1531
182.757 486.076 -57.6838
170.839 475.167 -33.3227
191.228 451.824 -33.3083
203.663 462.143 -57.668
169.922 474.369 -30.3705
165.748 470.571 -1.68378
185.957 447.434 -1.66947
190.311 451.026 -30.3562
188.148 444.801 1.52559
192.497 448.44 30.191
211.731 424.126 30.2039
207.209 420.703 1.53918
193.45 449.196 33.1392
205.859 459.518 57.4502
225.581 434.587 57.4607
212.685 424.881 33.152
207.623 460.913 59.7022
226.255 476.386 75.9325
246.705 450.532 75.9404
227.345 435.982 59.7127
228.561 478.208 77.141
250.575 496.479 82.7568
271.883 469.535 82.7639
249.011 452.354 77.1489
253.072 498.452 82.742
275.149 516.779 76.9844
297.321 488.741 76.9941
274.38 471.507 82.7492
277.457 518.602 75.7596
296.19 534.156 59.5543
319.096 505.19 59.5661
299.628 490.564 75.7694
297.956 535.551 57.3064
310.489 545.959 33.0468
333.886 516.373 33.0601
320.862 506.585 57.3182
311.445 546.714 30.1127
315.851 550.368 1.47296
339.419 520.565 1.48715
334.842 517.128 30.126
315.851 550.368 -1.70258
311.453 546.702 -30.342
334.849 517.117 -30.3271
339.42 520.564 -1.68839
310.498 545.946 -33.276
297.972 535.524 -57.5343
320.877 506.56 -57.5183
333.894 516.361 -33.2611
296.208 534.127 -59.7819
277.483 518.559 -75.9844
299.652 490.524 -75.9669
319.112 505.163 -59.766
275.176 516.735 -77.2088
253.105 498.399 -82.9631
274.41 471.456 -82.9437
297.345 488.7 -77.1913
250.608 496.426 -82.9775
228.598 478.15 -77.3597
249.045 452.298 -77.3417
271.914 469.483 -82.9582
226.292 476.329 -76.1512
207.658 460.856 -59.9211
227.376 435.927 -59.9064
246.739 450.476 -76.1332
205.892 459.462 -57.6664
193.457 449.143 -33.3067
212.687 424.83 -33.2931
225.611 434.533 -57.6517
192.502 448.39 -30.3546
188.148 444.798 -1.66792
207.209 420.7 -1.65433
211.732 424.077 -30.341
209.27 417.962 1.5406
213.792 421.385 30.2053
231.825 396.154 30.2172
227.14 392.955 1.5534
214.781 422.094 33.1533
227.678 431.8 57.4619
246.168 405.931 57.4709
232.814 396.862 33.1651
229.507 433.107 59.7136
248.868 447.657 75.9414
268.04 420.832 75.9478
247.997 407.238 59.7227
251.259 449.365 77.1496
274.131 466.546 82.7647
294.105 438.594 82.7712
270.431 422.54 77.156
276.72 468.395 82.7501
299.661 485.629 76.995
320.444 456.548 77.0044
296.695 440.443 82.7566
302.055 487.338 75.7706
321.522 501.964 59.5672
342.994 471.92 59.5788
322.837 458.257 75.78
323.354 503.272 57.3196
336.378 513.06 33.0614
358.312 482.371 33.0743
344.826 473.227 57.3311
337.37 513.767 30.1275
341.947 517.204 1.48863
364.043 486.289 1.50199
359.303 483.078 30.1403
341.947 517.204 -1.68682
337.376 513.757 -30.3255
359.309 483.069 -30.3118
364.043 486.288 -1.67346
336.386 513.048 -33.2594
323.369 503.246 -57.5167
344.839 473.204 -57.5021
358.319 482.36 -33.2457
321.538 501.937 -59.7642
302.078 487.298 -75.9651
322.859 458.219 -75.9489
343.009 471.895 -59.7496
299.685 485.588 -77.1893
276.75 468.344 -82.9417
296.722 440.395 -82.9233
320.466 456.508 -77.1731
274.161 466.495 -82.9561
251.292 449.31 -77.3397
270.461 422.487 -77.3218
294.133 438.545 -82.9377
248.901 447.602 -76.1314
229.538 433.053 -59.9046
248.025 407.186 -59.89
268.07 420.78 -76.1135
227.707 431.745 -57.6502
214.784 422.042 -33.2916
232.813 396.812 -33.2785
246.194 405.878 -57.6355
213.793 421.336 -30.3395
209.27 417.96 -1.65285
227.14 392.952 -1.64004
231.822 396.107 -30.3265
229.066 390.116 1.55471
233.751 393.315 30.2185
250.542 367.224 30.2292
245.706 364.256 1.56665
234.773 393.975 33.1661
248.127 403.043 57.472
265.344 376.296 57.4793
251.565 367.883 33.1769
250.018 404.261 59.7234
270.06 417.855 75.9485
287.91 390.125 75.9524
267.234 377.513 59.7307
272.531 419.445 77.1566
296.206 435.499 82.7717
314.801 406.609 82.7758
290.381 391.715 77.1605
298.881 437.221 82.7574
322.63 453.325 77.0052
341.976 423.271 77.0127
317.477 408.331 82.7615
325.104 454.916 75.781
345.261 468.579 59.5799
365.25 437.528 59.5902
344.45 424.862 75.7886
347.154 469.796 57.3324
360.64 478.94 33.0755
381.06 447.22 33.0873
367.143 438.745 57.3427
361.665 479.598 30.1417
366.404 482.809 1.50338
386.976 450.854 1.51582
382.085 447.879 30.1535
366.405 482.808 -1.67198
361.671 479.589 -30.3103
382.091 447.87 -30.2974
386.977 450.854 -1.65954
360.647 478.929 -33.2441
347.168 469.773 -57.5005
367.155 438.724 -57.4865
381.067 447.21 -33.2312
345.275 468.555 -59.7479
325.125 454.879 -75.9472
344.47 424.826 -75.9309
365.263 437.506 -59.7339
322.652 453.286 -77.1712
298.909 437.173 -82.9213
317.501 408.286 -82.9021
341.996 423.234 -77.1549
296.233 435.451 -82.9356
272.561 419.393 -77.3197
290.408 391.665 -77.301
314.826 406.563 -82.9164
270.09 417.802 -76.1117
250.045 404.208 -59.8881
267.258 377.464 -59.8733
287.937 390.075 -76.0929
248.153 402.991 -57.634
234.772 393.925 -33.2769
251.56 367.836 -33.2645
265.366 376.247 -57.6192
233.748 393.268 -30.3251
229.066 390.114 -1.63863
245.706 364.253 -1.62668
250.536 367.179 -30.3126
247.493 361.325 1.56784
252.329 364.293 30.2304
267.842 337.4 30.2401
262.866 334.668 1.57884
253.382 364.903 33.1778
267.161 373.315 57.4802
283.067 345.752 57.4855
268.895 338.009 33.1875
269.109 374.44 59.7311
289.785 387.052 75.9528
306.273 358.482 75.9537
285.014 346.877 59.7365
292.329 388.521 77.1608
316.748 403.416 82.7761
333.922 373.659 82.7772
308.818 359.952 77.1616
319.504 405.007 82.762
344.004 419.946 77.0133
361.87 388.992 77.0185
336.678 375.25 82.763
346.552 421.416 75.7895
367.352 434.082 59.5911
385.813 402.1 59.6
364.418 390.462 75.7947
369.302 435.206 57.3438
383.22 443.68 33.0884
402.082 411.005 33.0991
387.764 403.223 57.3528
384.276 444.288 30.1547
389.167 447.264 1.51709
408.17 414.345 1.52865
403.138 411.613 30.1655
389.167 447.263 -1.65815
384.281 444.279 -30.296
403.143 411.605 -30.2837
408.17 414.345 -1.64659
383.226 443.67 -33.2297
369.315 435.184 -57.485
387.775 403.204 -57.4713
402.088 410.996 -33.2174
367.365 434.06 -59.7322
346.571 421.38 -75.9292
364.436 390.429 -75.9124
385.825 402.079 -59.7185
344.024 419.91 -77.1529
319.529 404.962 -82.9001
336.7 375.208 -82.8796
361.888 388.959 -77.136
316.773 403.37 -82.9142
292.355 388.472 -77.2988
308.841 359.906 -77.2787
333.944 373.616 -82.8937
289.811 387.002 -76.091
269.132 374.391 -59.8714
285.034 346.83 -59.8563
306.296 358.436 -76.0709
267.183 373.266 -57.6176
253.377 364.856 -33.2629
268.886 337.965 -33.2512
283.085 345.705 -57.6025
252.322 364.249 -30.3113
247.492 361.323 -1.62535
262.866 334.666 -1.61435
267.832 337.358 -30.2995
264.509 331.652 1.57989
269.485 334.384 30.2412
283.687 306.747 30.2497
278.583 304.255 1.58984
270.567 334.942 33.1881
284.739 342.684 57.4862
299.299 314.366 57.4893
284.769 307.305 33.1966
286.738 343.715 59.7366
307.997 355.321 75.9538
323.087 325.981 75.951
301.298 315.397 59.7397
310.609 356.667 77.1615
335.713 370.374 82.777
351.428 339.824 82.7745
325.699 327.327 77.1587
338.542 371.831 82.7632
363.735 385.574 77.0187
380.082 353.799 77.0213
354.257 341.281 82.7607
366.351 386.918 75.7954
387.746 398.556 59.6006
404.641 365.72 59.6078
382.699 355.143 75.7979
389.749 399.583 57.3537
404.067 407.365 33.1001
421.331 373.811 33.1095
406.644 366.746 57.3609
405.152 407.92 30.1666
410.184 410.652 1.5298
427.577 376.847 1.54025
422.415 374.366 30.176
410.184 410.652 -1.6453
405.157 407.912 -30.2824
422.421 374.36 -30.2711
427.577 376.846 -1.63485
404.073 407.356 -33.2159
389.761 399.564 -57.4699
406.654 366.729 -57.4567
421.337 373.804 -33.2046
387.758 398.536 -59.7168
366.369 386.886 -75.9106
382.715 355.113 -75.8932
404.652 365.701 -59.7036
363.752 385.541 -77.1339
338.564 371.79 -82.8775
354.277 341.243 -82.8555
380.098 353.768 -77.1165
335.735 370.332 -82.8913
310.632 356.621 -77.2763
325.72 327.285 -77.2546
351.448 339.785 -82.8693
308.02 355.275 -76.0688
286.758 343.669 -59.8542
301.315 315.355 -59.8389
323.108 325.938 -76.0471
284.757 342.638 -57.601
270.558 334.898 -33.2496
284.756 307.265 -33.2388
299.314 314.324 -57.5857
269.475 334.342 -30.2983
264.509 331.65 -1.6131
278.582 304.253 -1.60316
283.674 306.708 -30.2875
280.079 301.16 1.59075
285.184 303.651 30.2506
298.044 275.329 30.2579
292.823 273.079 1.5996
286.291 304.158 33.1971
300.821 311.219 57.4897
314.005 282.21 57.4903
299.151 275.836 33.2044
302.867 312.155 59.7394
324.657 322.738 75.9507
338.318 292.697 75.9436
316.051 283.146 59.74
327.33 323.959 77.1582
353.058 336.456 82.774
367.28 305.19 82.7674
340.991 293.918 77.151
355.954 337.777 82.7605
381.779 350.295 77.0211
396.573 317.777 77.0207
370.176 306.511 82.754
384.458 351.511 75.7983
406.4 362.087 59.6082
421.693 328.474 59.6136
399.253 318.993 75.7979
408.452 363.014 57.3617
423.139 370.079 33.1103
438.767 335.726 33.1185
423.744 329.4 57.3671
424.25 370.58 30.1771
429.411 373.06 1.54128
445.157 338.447 1.55066
439.878 336.226 30.1853
429.411 373.06 -1.63368
424.255 370.573 -30.2699
439.883 336.221 -30.2596
445.157 338.447 -1.62429
423.144 370.072 -33.2032
408.462 362.997 -57.4553
423.754 329.386 -57.4425
438.773 335.719 -33.1929
406.411 362.069 -59.7018
384.474 351.481 -75.8914
399.267 318.966 -75.8731
421.703 328.458 -59.689
381.795 350.264 -77.1142
355.973 337.739 -82.8532
370.194 306.476 -82.8293
396.588 317.749 -77.0959
353.078 336.418 -82.8668
327.35 323.917 -77.252
341.009 293.88 -77.2279
367.298 305.155 -82.8428
324.677 322.696 -76.0448
302.884 312.112 -59.8366
316.065 283.107 -59.8207
338.336 292.659 -76.0208
300.836 311.177 -57.5841
286.279 304.118 -33.2373
299.136 275.799 -33.2273
314.017 282.172 -57.5682
285.17 303.613 -30.2863
280.079 301.158 -1.60201
292.822 273.078 -1.59316
298.027 275.294 -30.2764
294.17 269.911 1.60036
299.39 272.161 30.2587
310.882 243.209 30.2647
305.557 241.202 1.60811
300.521 272.616 33.2045
315.375 278.99 57.4904
327.155 249.352 57.4881
312.013 243.664 33.2106
317.463 279.829 59.7392
339.73 289.381 75.9428
351.934 258.711 75.9306
329.244 250.192 59.7369
342.458 290.476 77.15
368.747 301.748 82.7663
381.447 269.846 82.7554
354.662 259.806 77.1377
371.702 302.931 82.7534
398.099 314.196 77.0201
411.311 281.018 77.0164
384.403 271.028 82.7424
400.835 315.28 75.7979
423.275 324.762 59.6136
436.936 290.452 59.6175
414.047 282.102 75.7942
425.371 325.585 57.3677
440.393 331.91 33.1191
454.356 296.836 33.1264
439.031 291.274 57.3716
441.528 332.354 30.1862
446.807 334.576 1.55157
460.874 299.235 1.55997
455.49 297.28 30.1935
446.808 334.575 -1.62323
441.533 332.349 -30.2585
455.495 297.276 -30.2492
460.875 299.235 -1.61483
440.399 331.904 -33.1915
425.38 325.57 -57.4411
439.041 291.262 -57.4288
454.361 296.831 -33.1822
423.285 324.746 -59.6871
400.849 315.254 -75.8713
414.06 282.078 -75.8518
436.945 290.438 -59.6748
398.114 314.169 -77.0935
371.719 302.896 -82.8269
384.418 270.997 -82.8006
411.325 280.993 -77.074
368.764 301.713 -82.84
342.475 290.439 -77.2251
354.677 259.773 -77.1979
381.463 269.814 -82.8137
339.748 289.343 -76.0183
317.477 279.792 -59.8182
329.255 250.158 -59.8014
351.95 258.677 -75.9911
315.387 278.952 -57.5666
300.505 272.579 -33.2257
311.994 243.632 -33.2167
327.165 249.319 -57.5497
299.374 272.126 -30.2753
294.169 269.909 -1.5921
305.556 241.2 -1.58435
310.863 243.179 -30.2663
306.751 237.966 1.60871
312.076 239.974 30.2653
322.178 210.447 30.27
316.76 208.679 1.61528
313.227 240.378 33.2104
328.37 246.065 57.4879
338.726 215.861 57.4822
323.329 210.851 33.2151
330.495 246.81 59.7356
353.186 255.329 75.9293
363.91 224.103 75.9112
340.851 216.605 59.7299
355.961 256.299 77.1361
382.747 266.338 82.7537
393.902 233.885 82.7378
366.686 225.073 77.118
385.755 267.381 82.7414
412.664 277.37 77.0153
424.269 243.614 77.0078
396.91 234.928 82.7254
415.45 278.319 75.7939
438.339 286.668 59.6173
450.342 251.74 59.6199
427.055 244.563 75.7864
440.473 287.385 57.3721
455.797 292.946 33.1269
468.066 257.231 33.1331
452.477 252.456 57.3747
456.953 293.333 30.1943
462.337 295.288 1.56077
474.697 259.301 1.56793
469.222 257.618 30.2005
462.337 295.287 -1.61391
456.958 293.329 -30.2483
469.227 257.616 -30.2403
474.698 259.301 -1.60675
455.803 292.942 -33.181
440.482 287.373 -57.4275
452.486 252.447 -57.4164
468.072 257.229 -33.1731
438.348 286.656 -59.6729
415.463 278.295 -75.8499
427.068 244.541 -75.829
450.352 251.73 -59.6617
412.677 277.346 -77.0713
385.771 267.35 -82.798
396.925 234.9 -82.7691
424.283 243.592 -77.0505
382.763 266.307 -82.8105
355.977 256.265 -77.1947
366.7 225.045 -77.164
393.917 233.857 -82.7817
353.201 255.295 -75.9883
330.507 246.777 -59.7986
340.861 216.578 -59.7805
363.924 224.075 -75.9575
328.38 246.033 -57.548
313.209 240.346 -33.215
323.308 210.824 -33.2068
338.734 215.833 -57.5299
312.057 239.944 -30.2653
306.75 237.965 -1.58337
316.759 208.678 -1.5768
322.156 210.422 -30.2571
317.8 205.382 1.61569
323.217 207.151 30.2704
331.912 177.1 30.273
326.414 175.566 1.62106
324.386 207.504 33.2145
339.783 212.514 57.4816
348.698 181.803 57.4714
333.081 177.453 33.2171
341.941 213.165 59.7279
365 220.663 75.9093
374.227 188.958 75.8843
350.855 182.453 59.7177
367.816 221.509 77.1157
395.033 230.321 82.7355
404.625 197.409 82.7134
377.044 189.805 77.0907
398.087 231.222 82.7238
425.446 239.909 77.0062
435.428 205.658 76.995
407.679 198.31 82.7017
428.276 240.718 75.7858
451.563 247.895 59.6193
461.89 212.426 59.6212
438.258 206.467 75.7746
453.731 248.501 57.3751
469.321 253.276 33.1334
479.871 217.001 33.1381
464.058 213.032 57.377
470.494 253.603 30.2011
475.97 255.287 1.56859
486.597 218.736 1.57439
481.045 217.329 30.2058
475.97 255.286 -1.60599
470.5 253.602 -30.2396
481.051 217.329 -30.233
486.597 218.736 -1.6002
469.326 253.274 -33.172
453.741 248.492 -57.4154
464.068 213.026 -57.4065
479.878 217.002 -33.1654
451.573 247.885 -59.6598
428.289 240.697 -75.8271
438.272 206.448 -75.8054
461.9 212.419 -59.6509
425.459 239.887 -77.0476
398.102 231.195 -82.7662
407.694 198.287 -82.7337
435.442 205.638 -77.0259
395.047 230.293 -82.778
367.83 221.481 -77.1603
377.057 189.782 -77.125
404.64 197.385 -82.7455
365.013 220.635 -75.9543
341.95 213.137 -59.7772
350.864 182.433 -59.7567
374.241 188.936 -75.919
339.791 212.487 -57.5281
324.365 207.477 -33.205
333.059 177.432 -33.1969
348.705 181.782 -57.5076
323.196 207.126 -30.2562
317.798 205.381 -1.57588
326.413 175.565 -1.57051
331.889 177.081 -30.2482
327.297 172.213 1.62114
332.796 173.747 30.2731
340.082 143.219 30.2692
334.516 141.912 1.62536
333.98 174.051 33.2157
349.597 178.401 57.4701
357.066 147.243 57.449
341.267 143.523 33.2119
351.781 178.962 59.7147
375.153 185.467 75.8813
382.875 153.363 75.8447
359.25 147.803 59.6936
378.003 186.193 77.0873
405.584 193.797 82.7099
413.6 160.526 82.6743
385.726 154.09 77.0507
408.678 194.557 82.6993
436.427 201.905 76.9926
444.769 167.239 76.9779
416.694 161.286 82.6637
439.294 202.569 75.7738
462.926 208.528 59.6204
471.551 172.593 59.6208
447.636 167.903 75.7591
465.122 209.02 57.3772
480.935 212.989 33.1383
489.732 176.232 33.1388
473.747 173.085 57.3776
482.124 213.256 30.2063
487.675 214.663 1.57483
496.529 177.627 1.5789
490.921 176.498 30.2068
487.676 214.663 -1.59956
482.13 213.257 -30.2323
490.928 176.503 -30.225
496.53 177.627 -1.59548
480.942 212.99 -33.1646
465.133 209.014 -57.4056
473.759 173.083 -57.3988
489.74 176.236 -33.1573
462.936 208.521 -59.649
439.308 202.55 -75.8036
447.652 167.886 -75.7816
471.563 172.59 -59.6422
436.441 201.885 -77.0225
408.693 194.534 -82.7303
416.71 161.266 -82.6869
444.785 167.221 -77.0005
405.599 193.774 -82.7411
378.017 186.171 -77.1205
385.74 154.073 -77.0755
413.616 160.506 -82.6977
375.166 185.445 -75.9149
351.79 178.942 -59.7526
359.26 147.792 -59.7228
382.89 153.347 -75.8699
349.604 178.382 -57.5052
333.958 174.032 -33.1945
341.245 143.513 -33.1819
357.074 147.232 -57.4753
332.773 173.728 -30.2471
327.296 172.212 -1.5695
334.515 141.912 -1.56528
340.06 143.209 -30.2346
335.248 138.51 1.62426
340.814 139.817 30.2681
346.756 108.872 30.2314
341.145 107.784 1.62734
342.01 140.074 33.2074
357.809 143.794 57.4446
363.874 112.26 57.3673
347.952 109.13 33.1707
360.013 144.27 59.6865
383.638 149.83 75.8375
389.865 117.423 75.7401
366.077 112.735 59.6092
386.513 150.442 77.043
414.388 156.878 82.6666
420.809 123.356 82.5672
392.74 118.035 76.9456
417.513 157.495 82.6581
445.588 163.447 76.9723
452.246 128.43 76.9288
423.933 123.973 82.5587
448.483 163.959 75.7564
472.397 168.65 59.6181
479.238 132.312 59.588
455.141 128.942 75.7129
474.614 169.024 57.3761
490.599 172.17 33.1373
497.533 134.997 33.1131
481.454 132.686 57.346
491.797 172.376 30.2063
497.406 173.504 1.57843
504.37 136.051 1.57964
498.731 135.203 30.182
497.406 173.505 -1.59443
491.805 172.381 -30.224
498.742 135.212 -30.1976
504.37 136.051 -1.59322
490.607 172.175 -33.1553
474.626 169.022 -57.3968
481.471 132.687 -57.3644
497.545 135.006 -33.129
472.41 168.647 -59.639
448.499 163.943 -75.7784
455.161 128.927 -75.731
479.255 132.312 -59.6065
445.604 163.43 -76.9943
417.529 157.475 -82.6807
423.953 123.956 -82.5756
452.266 128.414 -76.9469
414.404 156.859 -82.6892
386.528 150.426 -77.0671
392.759 118.025 -76.9627
420.828 123.34 -82.5841
383.652 149.814 -75.8619
360.023 144.259 -59.7148
366.091 112.736 -59.6291
389.883 117.414 -75.7575
357.817 143.784 -57.4699
341.988 140.065 -33.1766
347.933 109.133 -33.1325
363.886 112.261 -57.3843
340.792 139.808 -30.2326
335.247 138.51 -1.56327
341.144 107.784 -1.56018
346.737 108.876 -30.1885
341.754 104.346 1.62003
347.365 105.434 30.2241
352.405 74.2312 30.0035
346.818 73.3516 1.62049
348.563 105.648 33.1495
364.485 108.778 57.3461
369.464 77.0313 56.9447
353.602 74.4454 32.9289
366.691 109.177 59.5779
390.479 113.864 75.7088
395.369 81.3402 75.19
371.67 77.4299 59.1765
393.36 114.368 76.9116
421.429 119.689 82.5332
426.232 86.0301 82.0254
398.25 81.8442 76.3928
424.563 120.155 82.5293
452.876 124.612 76.8994
457.613 89.2622 76.4989
429.366 86.4956 82.0214
455.776 124.96 75.6902
479.872 128.33 59.5652
484.493 91.6048 59.2231
460.513 89.6103 75.2897
482.091 128.582 57.3294
498.17 130.894 33.0965
502.729 93.3244 32.8928
486.711 91.8572 56.9873
499.37 131.038 30.1755
505.008 131.886 1.57307
509.551 94.0343 1.56099
503.928 93.468 29.9718
505.009 131.886 -1.5876
499.381 131.047 -30.192
503.939 93.4813 -30.0033
509.552 94.035 -1.59968
498.182 130.904 -33.1124
482.109 128.585 -57.3479
486.74 91.8641 -56.9961
502.74 93.3382 -32.9237
479.89 128.331 -59.5831
455.796 124.945 -75.7075
460.542 89.5975 -75.296
484.522 91.61 -59.2313
452.896 124.596 -76.9166
424.584 120.138 -82.5454
429.395 86.4822 -82.0293
457.642 89.2485 -76.5051
421.449 119.673 -82.5494
393.379 114.359 -76.928
398.277 81.8412 -76.4025
426.261 86.0171 -82.0334
390.497 113.856 -75.7253
366.705 109.179 -59.5969
371.694 77.4454 -59.1855
395.395 81.3384 -75.1998
364.497 108.781 -57.3622
348.545 105.653 -33.1104
353.594 74.4675 -32.885
369.486 77.0478 -56.9508
347.347 105.439 -30.1806
341.753 104.347 -1.55229
346.817 73.3523 -1.55182
352.396 74.2528 -29.9552
347.496 69.946 1.57673
353.083 70.8257 29.9598
360.182 40.2962 28.6603
354.861 39.5149 1.5735
354.248 71.0076 32.807
370.11 73.5935 56.8227
376.457 42.769 54.4494
361.347 40.4782 31.5075
372.259 73.9328 58.9989
395.958 77.843 75.0124
401.213 46.5093 71.9579
378.606 43.1082 56.6256
398.764 78.2655 76.1888
426.746 82.4514 81.8214
430.734 50.642 78.5627
404.02 46.9318 73.1343
429.788 82.8295 81.8259
458.034 85.5961 76.3034
460.611 53.9747 73.1833
433.776 51.0201 78.5672
460.863 85.872 75.1284
484.843 87.8666 59.0618
486.185 56.4644 56.6288
463.44 54.2507 72.0084
487.012 88.066 56.8787
503.03 89.5333 32.7842
503.587 58.1815 31.4535
488.355 56.6638 54.4457
504.204 89.6469 29.9322
509.827 90.2132 1.52143
510.109 58.8334 1.5091
504.761 58.2952 28.6015
509.827 90.2129 -1.56279
504.214 89.6592 -29.9664
504.76 58.2661 -28.6476
510.11 58.8331 -1.57511
503.041 89.5453 -32.8151
487.041 88.0711 -56.8874
488.386 56.6369 -54.4404
503.588 58.1521 -31.4963
484.873 87.8711 -59.0685
460.893 85.8586 -75.1332
463.473 54.2376 -72.0042
486.218 56.4368 -56.6214
458.064 85.5827 -76.3086
429.817 82.8164 -81.8329
433.809 51.0123 -78.5685
460.644 53.9617 -73.1796
426.775 82.4391 -81.8288
398.791 78.2632 -76.1978
404.049 46.9375 -73.1413
430.767 50.635 -78.5644
395.985 77.8427 -75.0218
372.284 73.9497 -59.0075
378.628 43.1474 -56.6372
401.242 46.517 -71.9652
370.132 73.612 -56.8286
354.24 71.0317 -32.7628
361.334 40.5226 -31.4699
376.476 42.8097 -54.4583
353.074 70.8482 -29.9115
347.496 69.9477 -1.50817
354.86 39.5166 -1.5114
360.168 40.3391 -28.6186
355.714 36.177 1.48823
361.035 36.9583 28.575
369.029 7.18032 26.8036
364.037 6.5013 1.47988
362.136 37.1184 31.2662
377.246 39.4092 54.2081
384.297 9.34657 50.938
370.13 7.34041 29.4948
379.278 39.7057 56.2658
401.885 43.1068 71.5981
407.515 12.6028 67.3134
386.329 9.64305 52.9957
404.539 43.4786 72.7115
431.254 47.1888 78.1399
435.171 16.2755 73.4589
410.17 12.9746 68.4268
434.128 47.5464 78.1406
460.963 50.501 72.7568
463.088 19.5459 68.4075
438.045 16.6332 73.4596
463.625 50.7899 71.6415
486.37 53.0036 56.2619
486.947 22.1455 52.918
465.75 19.8348 67.2922
488.41 53.2152 54.1991
503.642 54.7329 31.2069
503.15 23.9071 29.3917
488.987 22.357 50.8553
504.747 54.8477 28.5148
510.096 55.3859 1.42234
509.221 24.5397 1.4336
504.255 24.0219 26.6995
510.095 55.3833 -1.48815
504.746 54.8162 -28.5606
504.251 23.9581 -26.727
509.221 24.5371 -1.47688
503.642 54.6992 -31.249
488.44 53.1839 -54.1931
489.007 22.3005 -50.8454
503.147 23.841 -29.4154
486.402 52.9745 -56.2538
463.658 50.7753 -71.6366
465.772 19.8215 -67.2884
486.968 22.091 -52.9062
460.995 50.4883 -72.7526
434.16 47.5389 -78.1415
438.067 16.6281 -73.4593
463.11 19.5344 -68.4045
431.286 47.1823 -78.1413
404.568 43.4848 -72.7181
410.189 12.9826 -68.4307
435.193 16.2714 -73.459
401.913 43.1158 -71.6054
379.299 39.7462 -56.2774
386.336 9.70003 -53.0082
407.535 12.6136 -67.318
377.264 39.4523 -54.2178
362.122 37.1652 -31.2293
370.109 7.40746 -29.4713
384.301 9.40618 -50.9486
361.02 37.0024 -28.5345
355.713 36.1799 -1.42733
364.036 6.50419 -1.43568
369.007 7.24468 -26.7765
365.064 3.46017 1.35013
370.055 4.13919 26.6738
380.262 -21.1532 23.7821
375.839 -21.7747 1.33032
371.063 4.27965 29.13
385.229 6.28581 50.5733
393.868 -19.2537 45.2685
381.269 -21.0127 26.2382
387.09 6.54307 52.4507
408.276 9.50282 66.7684
414.612 -16.4698 59.8152
395.729 -18.9965 47.146
410.704 9.82909 67.7804
435.706 13.13 72.8126
439.277 -13.1967 65.2175
417.04 -16.1435 60.8273
438.329 13.466 72.8095
463.371 16.3788 67.7573
464.083 -9.93143 60.6891
441.9 -12.8607 65.2144
465.797 16.6745 66.7398
486.994 18.9852 52.3657
485.27 -7.16243 46.9519
466.509 -9.63566 59.6716
488.851 19.2084 50.487
503.014 20.7585 29.0234
499.64 -5.29142 26.1096
487.127 -6.93926 45.0732
504.019 20.8781 26.572
508.984 21.3959 1.30617
505.033 -4.59415 1.32556
500.644 -5.17178 23.6582
508.984 21.394 -1.34545
504.015 20.8149 -26.5955
500.644 -5.17454 -23.6586
505.033 -4.59607 -1.32605
503.01 20.6934 -29.0463
488.87 19.1529 -50.4763
487.127 -6.94387 -45.0732
499.639 -5.29607 -26.1094
487.013 18.9317 -52.3546
465.817 16.6621 -66.7369
466.509 -9.63808 -59.6713
485.27 -7.16507 -46.9514
463.392 16.3677 -67.7544
438.349 13.4614 -72.8092
441.901 -12.8617 -65.2141
464.084 -9.93246 -60.6888
435.726 13.1259 -72.8124
410.722 9.83702 -67.7841
417.041 -16.1438 -60.8272
439.278 -13.1972 -65.2174
408.294 9.51235 -66.7721
387.095 6.59877 -52.4623
395.729 -18.9948 -47.146
414.613 -16.4685 -59.8152
385.233 6.34364 -50.5844
371.041 4.34492 -29.1071
381.268 -21.0089 -26.2378
393.867 -19.25 -45.2681
370.034 4.20261 -26.6503
365.063 3.46212 -1.30955
375.839 -21.7728 -1.32935
380.261 -21.1512 -23.7811
-312.163 731.316 25.3737
-313.347 726.308 -0.389999
-312.112 731.294 -26.1549
-308.676 745.502 -47.964
-303.599 766.747 -62.4866
-297.787 791.799 -67.5549
-292.316 816.929 -62.4794
-287.91 838.351 -47.9833
-285.013 852.713 -26.1922
-284.007 857.77 -0.435355
-285.047 852.742 25.3254
-287.956 838.396 47.1242
-292.368 816.985 61.633
-297.843 791.86 66.7259
-303.651 766.804 61.6749
-308.734 745.546 47.1721
382.635 -22.3863 1.76393e-05
387.057 -21.7648 22.4517
399.656 -20.0058 41.4821
418.54 -17.4792 54.1513
440.777 -14.5323 58.5415
462.96 -11.603 54.0162
481.721 -9.1298 41.2965
494.234 -7.48197 22.3329
498.623 -6.90434 0.000247942
494.233 -7.48281 -22.3323
481.721 -9.13061 -41.2962
462.96 -11.6036 -54.016
440.777 -14.5328 -58.5413
418.54 -17.4795 -54.1511
399.656 -20.0059 -41.482
387.057 -21.7648 -22.4517
</DataArray>
</Points>
<Cells>
<DataArray type="Int32" Name="connectivity" format="ascii">
0 1 2 3 
4 5 6 7 
8 9 10 11 
12 13 14 15 
16 17 18 19 
20 21 22 23 
24 25 26 27 
28 29 30 31 
32 33 34 35 
36 37 38 39 
40 41 42 43 
44 45 46 47 
48 49 50 51 
52 53 54 55 
56 57 58 59 
60 61 62 63 
64 65 66 67 
68 69 70 71 
72 73 74 75 
76 77 78 79 
80 81 82 83 
84 85 86 87 
88 89 90 91 
92 93 94 95 
96 97 98 99 
100 101 102 103 
104 105 106 107 
108 109 110 111 
112 113 114 115 
116 117 118 119 
120 121 122 123 
124 125 126 127 
128 129 130 131 
132 133 134 135 
136 137 138 139 
140 141 142 143 
144 145 146 147 
148 149 150 151 
152 153 154 155 
156 157 158 159 
160 161 162 163 
164 165 166 167 
168 169 170 171 
172 173 174 175 
176 177 178 179 
180 181 182 183 
184 185 186 187 
188 189 190 191 
192 193 194 195 
196 197 198 199 
200 201 202 203 
204 205 206 207 
208 209 210 211 
212 213 214 215 
216 217 218 219 
220 221 222 223 
224 225 226 227 
228 229 230 231 
232 233 234 235 
236 237 238 239 
240 241 242 243 
244 245 246 247 
248 249 250 251 
252 253 254 255 
256 257 258 259 
260 261 262 263 
264 265 266 267 
268 269 270 271 
272 273 274 275 
276 277 278 279 
280 281 282 283 
284 285 286 287 
288 289 290 291 
292 293 294 295 
296 297 298 299 
300 301 302 303 
304 305 306 307 
308 309 310 311 
312 313 314 315 
316 317 318 319 
320 321 322 323 
324 325 326 327 
328 329 330 331 
332 333 334 335 
336 337 338 339 
340 341 342 343 
344 345 346 347 
348 349 350 351 
352 353 354 355 
356 357 358 359 
360 361 362 363 
364 365 366 367 
368 369 370 371 
372 373 374 375 
376 377 378 379 
380 381 382 383 
384 385 386 387 
388 389 390 391 
392 393 394 395 
396 397 398 399 
400 401 402 403 
404 405 406 407 
408 409 410 411 
412 413 414 415 
416 417 418 419 
420 421 422 423 
424 425 426 427 
428 429 430 431 
432 433 434 435 
436 437 438 439 
440 441 442 443 
444 445 446 447 
448 449 450 451 
452 453 454 455 
456 457 458 459 
460 461 462 463 
464 465 466 467 
468 469 470 471 
472 473 474 475 
476 477 478 479 
480 481 482 483 
484 485 486 487 
488 489 490 491 
492 493 494 495 
496 497 498 499 
500 501 502 503 
504 505 506 507 
508 509 510 511 
512 513 514 515 
516 517 518 519 
520 521 522 523 
524 525 526 527 
528 529 530 531 
532 533 534 535 
536 537 538 539 
540 541 542 543 
544 545 546 547 
548 549 550 551 
552 553 554 555 
556 557 558 559 
560 561 562 563 
564 565 566 567 
568 569 570 571 
572 573 574 575 
576 577 578 579 
580 581 582 583 
584 585 586 587 
588 589 590 591 
592 593 594 595 
596 597 598 599 
600 601 602 603 
604 605 606 607 
608 609 610 611 
612 613 614 615 
616 617 618 619 
620 621 622 623 
624 625 626 627 
628 629 630 631 
632 633 634 635 
636 637 638 639 
640 641 642 643 
644 645 646 647 
648 649 650 651 
652 653 654 655 
656 657 658 659 
660 661 662 663 
664 665 666 667 
668 669 670 671 
672 673 674 675 
676 677 678 679 
680 681 682 683 
684 685 686 687 
688 689 690 691 
692 693 694 695 
696 697 698 699 
700 701 702 703 
704 705 706 707 
708 709 710 711 
712 713 714 715 
716 717 718 719 
720 721 722 723 
724 725 726 727 
728 729 730 731 
732 733 734 735 
736 737 738 739 
740 741 742 743 
744 745 746 747 
748 749 750 751 
752 753 754 755 
756 757 758 759 
760 761 762 763 
764 765 766 767 
768 769 770 771 
772 773 774 775 
776 777 778 779 
780 781 782 783 
784 785 786 787 
788 789 790 791 
792 793 794 795 
796 797 798 799 
800 801 802 803 
804 805 806 807 
808 809 810 811 
812 813 814 815 
816 817 818 819 
820 821 822 823 
824 825 826 827 
828 829 830 831 
832 833 834 835 
836 837 838 839 
840 841 842 843 
844 845 846 847 
848 849 850 851 
852 853 854 855 
856 857 858 859 
860 861 862 863 
864 865 866 867 
868 869 870 871 
872 873 874 875 
876 877 878 879 
880 881 882 883 
884 885 886 887 
888 889 890 891 
892 893 894 895 
896 897 898 899 
900 901 902 903 
904 905 906 907 
908 909 910 911 
912 913 914 915 
916 917 918 919 
920 921 922 923 
924 925 926 927 
928 929 930 931 
932 933 934 935 
936 937 938 939 
940 941 942 943 
944 945 946 947 
948 949 950 951 
952 953 954 955 
956 957 958 959 
960 961 962 963 
964 965 966 967 
968 969 970 971 
972 973 974 975 
976 977 978 979 
980 981 982 983 
984 985 986 987 
988 989 990 991 
992 993 994 995 
996 997 998 999 
1000 1001 1002 1003 
1004 1005 1006 1007 
1008 1009 1010 1011 
1012 1013 1014 1015 
1016 1017 1018 1019 
1020 1021 1022 1023 
1024 1025 1026 1027 
1028 1029 1030 1031 
1032 1033 1034 1035 
1036 1037 1038 1039 
1040 1041 1042 1043 
1044 1045 1046 1047 
1048 1049 1050 1051 
1052 1053 1054 1055 
1056 1057 1058 1059 
1060 1061 1062 1063 
1064 1065 1066 1067 
1068 1069 1070 1071 
1072 1073 1074 1075 
1076 1077 1078 1079 
1080 1081 1082 1083 
1084 1085 1086 1087 
1088 1089 1090 1091 
1092 1093 1094 1095 
1096 1097 1098 1099 
1100 1101 1102 1103 
1104 1105 1106 1107 
1108 1109 1110 1111 
1112 1113 1114 1115 
1116 1117 1118 1119 
1120 1121 1122 1123 
1124 1125 1126 1127 
1128 1129 1130 1131 
1132 1133 1134 1135 
1136 1137 1138 1139 
1140 1141 1142 1143 
1144 1145 1146 1147 
1148 1149 1150 1151 
1152 1153 1154 1155 
1156 1157 1158 1159 
1160 1161 1162 1163 
1164 1165 1166 1167 
1168 1169 1170 1171 
1172 1173 1174 1175 
1176 1177 1178 1179 
1180 1181 1182 1183 
1184 1185 1186 1187 
1188 1189 1190 1191 
1192 1193 1194 1195 
1196 1197 1198 1199 
1200 1201 1202 1203 
1204 1205 1206 1207 
1208 1209 1210 1211 
1212 1213 1214 1215 
1216 1217 1218 1219 
1220 1221 1222 1223 
1224 1225 1226 1227 
1228 1229 1230 1231 
1232 1233 1234 1235 
1236 1237 1238 1239 
1240 1241 1242 1243 
1244 1245 1246 1247 
1248 1249 1250 1251 
1252 1253 1254 1255 
1256 1257 1258 1259 
1260 1261 1262 1263 
1264 1265 1266 1267 
1268 1269 1270 1271 
1272 1273 1274 1275 
1276 1277 1278 1279 
1280 1281 1282 1283 
1284 1285 1286 1287 
1288 1289 1290 1291 
1292 1293 1294 1295 
1296 1297 1298 1299 
1300 1301 1302 1303 
1304 1305 1306 1307 
1308 1309 1310 1311 
1312 1313 1314 1315 
1316 1317 1318 1319 
1320 1321 1322 1323 
1324 1325 1326 1327 
1328 1329 1330 1331 
1332 1333 1334 1335 
1336 1337 1338 1339 
1340 1341 1342 1343 
1344 1345 1346 1347 
1348 1349 1350 1351 
1352 1353 1354 1355 
1356 1357 1358 1359 
1360 1361 1362 1363 
1364 1365 1366 1367 
1368 1369 1370 1371 
1372 1373 1374 1375 
1376 1377 1378 1379 
1380 1381 1382 1383 
1384 1385 1386 1387 
1388 1389 1390 1391 
1392 1393 1394 1395 
1396 1397 1398 1399 
1400 1401 1402 1403 
1404 1405 1406 1407 
1408 1409 1410 1411 
1412 1413 1414 1415 
1416 1417 1418 1419 
1420 1421 1422 1423 
1424 1425 1426 1427 
1428 1429 1430 1431 
1432 1433 1434 1435 
1436 1437 1438 1439 
1440 1441 1442 1443 
1444 1445 1446 1447 
1448 1449 1450 1451 
1452 1453 1454 1455 
1456 1457 1458 1459 
1460 1461 1462 1463 
1464 1465 1466 1467 
1468 1469 1470 1471 
1472 1473 1474 1475 
1476 1477 1478 1479 
1480 1481 1482 1483 
1484 1485 1486 1487 
1488 1489 1490 1491 
1492 1493 1494 1495 
1496 1497 1498 1499 
1500 1501 1502 1503 
1504 1505 1506 1507 
1508 1509 1510 1511 
1512 1513 1514 1515 
1516 1517 1518 1519 
1520 1521 1522 1523 
1524 1525 1526 1527 
1528 1529 1530 1531 
1532 1533 1534 1535 
1536 1537 1538 1539 
1540 1541 1542 1543 
1544 1545 1546 1547 
1548 1549 1550 1551 
1552 1553 1554 1555 
1556 1557 1558 1559 
1560 1561 1562 1563 
1564 1565 1566 1567 
1568 1569 1570 1571 
1572 1573 1574 1575 
1576 1577 1578 1579 
1580 1581 1582 1583 
1584 1585 1586 1587 
1588 1589 1590 1591 
1592 1593 1594 1595 
1596 1597 1598 1599 
1600 1601 1602 1603 
1604 1605 1606 1607 
1608 1609 1610 1611 
1612 1613 1614 1615 
1616 1617 1618 1619 
1620 1621 1622 1623 
1624 1625 1626 1627 
1628 1629 1630 1631 
1632 1633 1634 1635 
1636 1637 1638 1639 
1640 1641 1642 1643 
1644 1645 1646 1647 
1648 1649 1650 1651 
1652 1653 1654 1655 
1656 1657 1658 1659 
1660 1661 1662 1663 
1664 1665 1666 1667 
1668 1669 1670 1671 
1672 1673 1674 1675 
1676 1677 1678 1679 
1680 1681 1682 1683 
1684 1685 1686 1687 
1688 1689 1690 1691 
1692 1693 1694 1695 
1696 1697 1698 1699 
1700 1701 1702 1703 
1704 1705 1706 1707 
1708 1709 1710 1711 
1712 1713 1714 1715 
1716 1717 1718 1719 
1720 1721 1722 1723 
1724 1725 1726 1727 
1728 1729 1730 1731 
1732 1733 1734 1735 
1736 1737 1738 1739 
1740 1741 1742 1743 
1744 1745 1746 1747 
1748 1749 1750 1751 
1752 1753 1754 1755 
1756 1757 1758 1759 
1760 1761 1762 1763 
1764 1765 1766 1767 
1768 1769 1770 1771 
1772 1773 1774 1775 
1776 1777 1778 1779 
1780 1781 1782 1783 
1784 1785 1786 1787 
1788 1789 1790 1791 
1792 1793 1794 1795 
1796 1797 1798 1799 
1800 1801 1802 1803 
1804 1805 1806 1807 
1808 1809 1810 1811 
1812 1813 1814 1815 
1816 1817 1818 1819 
1820 1821 1822 1823 
1824 1825 1826 1827 
1828 1829 1830 1831 
1832 1833 1834 1835 
1836 1837 1838 1839 
1840 1841 1842 1843 
1844 1845 1846 1847 
1848 1849 1850 1851 
1852 1853 1854 1855 
1856 1857 1858 1859 
1860 1861 1862 1863 
1864 1865 1866 1867 
1868 1869 1870 1871 
1872 1873 1874 1875 
1876 1877 1878 1879 
1880 1881 1882 1883 
1884 1885 1886 1887 
1888 1889 1890 1891 
1892 1893 1894 1895 
1896 1897 1898 1899 
1900 1901 1902 1903 
1904 1905 1906 1907 
1908 1909 1910 1911 
1912 1913 1914 1915 
1916 1917 1918 1919 
1920 1921 1922 1923 
1924 1925 1926 1927 
1928 1929 1930 1931 
1932 1933 1934 1935 
1936 1937 1938 1939 
1940 1941 1942 1943 
1944 1945 1946 1947 
1948 1949 1950 1951 
1952 1953 1954 1955 
1956 1957 1958 1959 
1960 1961 1962 1963 
1964 1965 1966 1967 
1968 1969 1970 1971 
1972 1973 1974 1975 
1976 1977 1978 1979 
1980 1981 1982 1983 
1984 1985 1986 1987 
1988 1989 1990 1991 
1992 1993 1994 1995 
1996 1997 1998 1999 
2000 2001 2002 2003 
2004 2005 2006 2007 
2008 2009 2010 2011 
2012 2013 2014 2015 
2016 2017 2018 2019 
2020 2021 2022 2023 
2024 2025 2026 2027 
2028 2029 2030 2031 
2032 2033 2034 2035 
2036 2037 2038 2039 
2040 2041 2042 2043 
2044 2045 2046 2047 
2048 2049 2050 2051 2052 2053 2054 2055 2056 2057 2058 2059 2060 2061 2062 2063 
2064 2065 2066 2067 2068 2069 2070 2071 2072 2073 2074 2075 2076 2077 2078 2079 
</DataArray>
<DataArray type="Int32" Name="offsets" format="ascii">
4 8 12 16 20 24 28 32 36 40 44 48 52 56 60 64 68 72 76 80 84 88 92 96 100 104 108 112 116 120 124 128 132 136 140 144 148 152 156 160 164 168 172 176 180 184 188 192 196 200 204 208 212 216 220 224 228 232 236 240 244 248 252 256 260 264 268 272 276 280 284 288 292 296 300 304 308 312 316 320 324 328 332 336 340 344 348 352 356 360 364 368 372 376 380 384 388 392 396 400 404 408 412 416 420 424 428 432 436 440 444 448 452 456 460 464 468 472 476 480 484 488 492 496 500 504 508 512 516 520 524 528 532 536 540 544 548 552 556 560 564 568 572 576 580 584 588 592 596 600 604 608 612 616 620 624 628 632 636 640 644 648 652 656 660 664 668 672 676 680 684 688 692 696 700 704 708 712 716 720 724 728 732 736 740 744 748 752 756 760 764 768 772 776 780 784 788 792 796 800 804 808 812 816 820 824 828 832 836 840 844 848 852 856 860 864 868 872 876 880 884 888 892 896 900 904 908 912 916 920 924 928 932 936 940 944 948 952 956 960 964 968 972 976 980 984 988 992 996 1000 1004 1008 1012 1016 1020 1024 1028 1032 1036 1040 1044 1048 1052 1056 1060 1064 1068 1072 1076 1080 1084 1088 1092 1096 1100 1104 1108 1112 1116 1120 1124 1128 1132 1136 1140 1144 1148 1152 1156 1160 1164 1168 1172 1176 1180 1184 1188 1192 1196 1200 1204 1208 1212 1216 1220 1224 1228 1232 1236 1240 1244 1248 1252 1256 1260 1264 1268 1272 1276 1280 1284 1288 1292 1296 1300 1304 1308 1312 1316 1320 1324 1328 1332 1336 1340 1344 1348 1352 1356 1360 1364 1368 1372 1376 1380 1384 1388 1392 1396 1400 1404 1408 1412 1416 1420 1424 1428 1432 1436 1440 1444 1448 1452 1456 1460 1464 1468 1472 1476 1480 1484 1488 1492 1496 1500 1504 1508 1512 1516 1520 1524 1528 1532 1536 1540 1544 1548 1552 1556 1560 1564 1568 1572 1576 1580 1584 1588 1592 1596 1600 1604 1608 1612 1616 1620 1624 1628 1632 1636 1640 1644 1648 1652 1656 1660 1664 1668 1672 1676 1680 1684 1688 1692 1696 1700 1704 1708 1712 1716 1720 1724 1728 1732 1736 1740 1744 1748 1752 1756 1760 1764 1768 1772 1776 1780 1784 1788 1792 1796 1800 1804 1808 1812 1816 1820 1824 1828 1832 1836 1840 1844 1848 1852 1856 1860 1864 1868 1872 1876 1880 1884 1888 1892 1896 1900 1904 1908 1912 1916 1920 1924 1928 1932 1936 1940 1944 1948 1952 1956 1960 1964 1968 1972 1976 1980 1984 1988 1992 1996 2000 2004 2008 2012 2016 2020 2024 2028 2032 2036 2040 2044 2048 2064 2080 
</DataArray>
<DataArray type="UInt8" Name="types" format="ascii">
7 7 7 7 7 7 7 7 7 7 7 7 7 7 7 7 7 7 7 7 7 7 7 7 7 7 7 7 7 7 7 7 7 7 7 7 7 7 7 7 7 7 7 7 7 7 7 7 7 7 7 7 7 7 7 7 7 7 7 7 7 7 7 7 7 7 7 7 7 7 7 7 7 7 7 7 7 7 7 7 7 7 7 7 7 7 7 7 7 7 7 7 7 7 7 7 7 7 7 7 7 7 7 7 7 7 7 7 7 7 7 7 7 7 7 7 7 7 7 7 7 7 7 7 7 7 7 7 7 7 7 7 7 7 7 7 7 7 7 7 7 7 7 7 7 7 7 7 7 7 7 7 7 7 7 7 7 7 7 7 7 7 7 7 7 7 7 7 7 7 7 7 7 7 7 7 7 7 7 7 7 7 7 7 7 7 7 7 7 7 7 7 7 7 7 7 7 7 7 7 7 7 7 7 7 7 7 7 7 7 7 7 7 7 7 7 7 7 7 7 7 7 7 7 7 7 7 7 7 7 7 7 7 7 7 7 7 7 7 7 7 7 7 7 7 7 7 7 7 7 7 7 7 7 7 7 7 7 7 7 7 7 7 7 7 7 7 7 7 7 7 7 7 7 7 7 7 7 7 7 7 7 7 7 7 7 7 7 7 7 7 7 7 7 7 7 7 7 7 7 7 7 7 7 7 7 7 7 7 7 7 7 7 7 7 7 7 7 7 7 7 7 7 7 7 7 7 7 7 7 7 7 7 7 7 7 7 7 7 7 7 7 7 7 7 7 7 7 7 7 7 7 7 7 7 7 7 7 7 7 7 7 7 7 7 7 7 7 7 7 7 7 7 7 7 7 7 7 7 7 7 7 7 7 7 7 7 7 7 7 7 7 7 7 7 7 7 7 7 7 7 7 7 7 7 7 7 7 7 7 7 7 7 7 7 7 7 7 7 7 7 7 7 7 7 7 7 7 7 7 7 7 7 7 7 7 7 7 7 7 7 7 7 7 7 7 7 7 7 7 7 7 7 7 7 7 7 7 7 7 7 7 7 7 7 7 7 7 7 7 7 7 7 7 7 7 7 7 7 7 7 7 7 7 7 7 7 7 7 7 7 7 7 7 7 7 7 7 7 7 7 7 7 7 7 7 7 7 7 7 7 7 7 7 
</DataArray>
</Cells>
<CellData Scalars="cell variable 4" Vectors="cell vector">
<DataArray type="Float64" NumberOfComponents="3" Name="cell vector" format="ascii">
0.13403 0.1516 0.979313
0.382921 0.416788 0.824414
0.517763 0.638026 0.569951
0.407853 0.884338 0.227159
-0.0670517 0.969327 -0.236453
-0.10555 0.811687 -0.574477
0.0452638 -0.54705 0.835875
0.0108091 -0.192643 0.981209
-0.00270446 0.193272 0.981142
-0.04502 0.547746 0.835432
-0.107874 0.811905 0.573736
-0.0685666 0.969371 0.235835
0.404892 0.885718 -0.227081
0.509251 0.644016 -0.570882
-0.361356 -0.429066 0.827843
-0.141603 -0.147743 0.978836
0.063706 0.185631 0.980552
0.181992 0.526857 0.830241
0.255965 0.791591 0.554857
0.238695 0.951178 0.195667
0.149981 0.969066 -0.196004
0.129157 0.82111 -0.555965
-0.0952569 -0.547808 0.831163
-0.0345676 -0.19218 0.980751
0.0354448 0.192712 0.980615
0.0945927 0.548508 0.830777
0.127691 0.821724 0.555396
0.148762 0.969381 0.195374
0.237279 0.951418 -0.196221
0.254772 0.791565 -0.555441
-0.181461 -0.526363 0.830671
-0.0662663 -0.184272 0.980639
0.0625899 0.186027 0.980549
0.17872 0.528071 0.830181
0.256369 0.791958 0.554145
0.225775 0.95444 0.195117
0.135382 0.971697 -0.193591
0.141709 0.819771 -0.554881
-0.103882 -0.546507 0.830987
-0.0376184 -0.191641 0.980744
0.0373213 0.192405 0.980606
0.103424 0.54715 0.83062
0.141235 0.820218 0.554342
0.134728 0.971931 0.192869
0.224945 0.954504 -0.195762
0.256138 0.791689 -0.554636
-0.178692 -0.527474 0.830566
-0.0639666 -0.184838 0.980685
0.0644098 0.185236 0.980581
0.185345 0.525511 0.830353
0.274831 0.785854 0.553986
0.274297 0.941799 0.194358
0.82114 -0.566044 0.0729543
0.965489 -0.259467 0.0225164
0.9725 -0.232707 0.00953196
0.973804 -0.227366 0.00312076
0.973818 -0.227321 -0.00194339
0.972531 -0.23262 -0.00844172
0.965498 -0.259513 -0.0216005
0.819961 -0.567841 -0.0722567
0.27338 0.941946 -0.194941
0.27489 0.785541 -0.554401
-0.185373 -0.524927 0.830716
-0.0653587 -0.184036 0.980744
0.0663828 0.184049 0.980673
0.190809 0.522545 0.830986
0.286544 0.781232 0.554589
0.331462 0.923325 0.193917
0.812268 -0.579579 0.0656422
0.949812 -0.311946 0.023391
0.958779 -0.283991 0.00962669
0.960569 -0.278026 0.00288807
0.960574 -0.27802 -0.00185385
0.958802 -0.283945 -0.00855389
0.949849 -0.31191 -0.0223509
0.810934 -0.58152 -0.0649703
0.330842 0.923444 -0.194407
0.286719 0.780909 -0.554953
-0.19107 -0.521909 0.831327
-0.0672067 -0.182825 0.980846
0.070585 0.181908 0.980779
0.203035 0.516824 0.831667
0.307299 0.77283 0.555249
0.369906 0.908566 0.194107
0.851419 -0.522635 0.0440357
0.93544 -0.352855 0.0211117
0.944166 -0.329323 0.00984181
0.946192 -0.323593 0.00300417
0.946196 -0.323587 -0.00197688
0.944189 -0.329286 -0.00878311
0.935466 -0.352846 -0.0200912
0.850028 -0.52494 -0.0434791
0.369426 0.908671 -0.194529
0.307488 0.772521 -0.555573
-0.203385 -0.516156 0.831996
-0.0713813 -0.180651 0.980954
0.0763059 0.179123 0.980863
0.219448 0.509163 0.832223
0.332665 0.761755 0.555934
0.403587 0.894081 0.194258
0.879589 -0.475114 0.024275
0.920197 -0.391068 0.0174372
0.927757 -0.373064 0.00948301
0.929899 -0.367801 0.00305279
0.929905 -0.367795 -0.00202716
0.927781 -0.37303 -0.00842848
0.920215 -0.391069 -0.0164259
0.878537 -0.477087 -0.0236706
0.403137 0.894203 -0.194632
0.332821 0.761476 -0.556223
-0.219836 -0.508476 0.832541
-0.0771038 -0.177816 0.981038
0.0828566 0.175848 0.980924
0.238105 0.500018 0.832639
0.360576 0.748529 0.556497
0.436801 0.878315 0.194341
0.886489 -0.46259 0.0121511
0.903358 -0.428673 0.0135863
0.909425 -0.41578 0.00858436
0.911534 -0.411214 0.00295385
0.911539 -0.41121 -0.00194014
0.909449 -0.415747 -0.00753438
0.903381 -0.428654 -0.0125635
0.885814 -0.4639 -0.011419
0.436255 0.878511 -0.194678
0.360675 0.74829 -0.556754
-0.238518 -0.499311 0.832945
-0.0836558 -0.174481 0.981101
0.0898584 0.172127 0.980968
0.257949 0.489564 0.83294
0.389958 0.733333 0.556915
0.470923 0.860489 0.194399
0.878141 -0.478361 0.00625993
0.884537 -0.46636 0.0101821
0.889164 -0.457531 0.00732807
0.891099 -0.453802 0.00270855
0.891103 -0.453797 -0.00169896
0.889187 -0.457501 -0.00628635
0.884558 -0.46634 -0.00916269
0.877634 -0.479301 -0.00545852
0.470345 0.860736 -0.194703
0.390036 0.733121 -0.557141
-0.258374 -0.488837 0.833235
-0.0906202 -0.170708 0.981146
0.0970851 0.167978 0.980998
0.278436 0.477834 0.833156
0.420303 0.716142 0.557212
0.505117 0.840858 0.194459
0.8616 -0.507577 0.00345654
0.863492 -0.504307 0.00750233
0.866939 -0.498379 0.00596056
0.868608 -0.495494 0.00237054
0.868614 -0.495488 -0.00135772
0.86696 -0.498354 -0.00493048
0.863502 -0.504304 -0.00650133
0.861152 -0.50834 -0.00262786
0.504609 0.8411 -0.194732
0.420383 0.715944 -0.557407
-0.278853 -0.477093 0.833441
-0.0977768 -0.166519 0.981178
0.104396 0.16341 0.981019
0.299172 0.464853 0.833311
0.45108 0.696992 0.557431
0.539268 0.819364 0.194505
0.840697 -0.541503 0.00188181
0.840223 -0.542213 0.00544882
0.84273 -0.538316 0.0046602
0.844095 -0.53619 0.00199105
0.844101 -0.536183 -0.000993515
0.84275 -0.538293 -0.00365154
0.840235 -0.542205 -0.00446188
0.840307 -0.54211 -0.00103755
0.538725 0.819664 -0.194749
0.451143 0.69682 -0.557595
-0.299579 -0.464098 0.833586
-0.105014 -0.16191 0.981202
0.111696 0.158422 0.981033
0.319845 0.450675 0.833421
0.481764 0.676018 0.557587
0.573655 0.795662 0.194529
0.815618 -0.578589 0.00124551
0.814806 -0.579721 0.00386393
0.816576 -0.577228 0.00349827
0.817631 -0.57574 0.0016134
0.817638 -0.575732 -0.00062885
0.816595 -0.577205 -0.00251346
0.814803 -0.57973 -0.0029146
0.815175 -0.579215 -0.000431992
0.573202 0.795936 -0.194744
0.481823 0.675864 -0.557722
-0.320226 -0.449913 0.833687
-0.112222 -0.156896 0.981219
0.118912 0.153021 0.981043
0.340282 0.43531 0.833494
0.512141 0.653225 0.557682
0.607839 0.769865 0.194523
0.786875 -0.617111 0.00121335
0.787319 -0.616541 0.00261606
0.788508 -0.61502 0.00247209
0.789259 -0.614059 0.00124744
0.789266 -0.614051 -0.000290212
0.788529 -0.614996 -0.00151039
0.787314 -0.616549 -0.00169171
0.786401 -0.617716 -0.00042388
0.607414 0.770153 -0.194711
0.512198 0.653091 -0.557786
-0.340635 -0.434544 0.83375
-0.119338 -0.151478 0.98123
0.126027 0.147195 0.981046
0.360434 0.418722 0.833522
0.542158 0.628527 0.55769
0.641457 0.742114 0.194423
0.754873 -0.65587 0.00140681
0.757845 -0.652434 0.00141184
0.758452 -0.651727 0.00151172
0.758893 -0.651214 0.000901387
0.758901 -0.651205 4.06473e-05
0.758469 -0.651708 -0.000581666
0.757823 -0.65246 -0.000528897
0.754429 -0.656382 -0.000623998
0.641105 0.742376 -0.194584
0.542239 0.628391 -0.557765
-0.360747 -0.417962 0.833768
-0.126332 -0.145657 0.981236
0.132993 0.141021 0.981033
0.380254 0.401009 0.833426
0.572216 0.601533 0.557429
0.67817 0.708864 0.193901
0.722978 -0.690871 -0.000147716
0.725592 -0.688124 -0.000736066
0.725286 -0.688448 -0.000128268
0.725259 -0.688476 0.000282045
0.725266 -0.688468 0.000629128
0.725302 -0.68843 0.00103046
0.725568 -0.688149 0.00159227
0.722566 -0.691302 0.000917465
0.677835 0.709148 -0.194031
0.572301 0.601409 -0.557475
-0.380519 -0.400263 0.833664
-0.13318 -0.13949 0.981227
0.139642 0.134623 0.981008
0.399044 0.38274 0.833231
0.600152 0.574123 0.556956
0.710321 0.676884 0.193062
-0.689627 0.724165 0.000310581
-0.692191 0.721714 0.00115163
-0.691676 0.722208 0.000657678
-0.691425 0.722448 -5.15838e-05
-0.691432 0.722441 -0.000811376
-0.691692 0.722191 -0.00151928
-0.692174 0.721728 -0.0019778
-0.6893 0.724475 -0.00107067
0.709962 0.677231 -0.193166
0.600232 0.574022 -0.556975
-0.399276 -0.381996 0.833461
-0.139719 -0.133099 0.981205
0.145875 0.127965 0.980992
0.416563 0.363867 0.833112
0.625794 0.54635 0.556672
0.737879 0.646874 0.192581
-0.6539 0.75658 -0.0010415
-0.657698 0.753282 1.96615e-05
-0.657651 0.753323 0.000127654
-0.657455 0.753494 -0.000204923
-0.657463 0.753486 -0.000623114
-0.657666 0.753309 -0.000939614
-0.657673 0.753303 -0.000794183
-0.653579 0.756858 0.000318353
0.737584 0.647187 -0.192663
0.625887 0.546249 -0.556666
-0.416775 -0.363113 0.833335
-0.145837 -0.126468 0.981192
0.151776 0.120953 0.980986
0.433254 0.343904 0.833079
0.65077 0.516423 0.556601
0.767528 0.611428 0.192502
-0.617805 0.786331 -0.000873544
-0.620744 0.784013 0.000134894
-0.620639 0.784096 0.000430279
-0.620291 0.784372 -4.32318e-05
-0.6203 0.784365 -0.000749985
-0.620654 0.784084 -0.00120554
-0.620714 0.784036 -0.000869901
-0.617498 0.786572 0.000182611
0.767276 0.611725 -0.192561
0.650873 0.516326 -0.556572
-0.433438 -0.343148 0.833295
-0.151625 -0.119493 0.981189
0.157375 0.113629 0.98098
0.44909 0.323044 0.833043
0.674443 0.485157 0.556551
0.79519 0.574992 0.192503
-0.579791 0.814765 -0.000634057
-0.58249 0.812837 0.000593816
-0.582097 0.813119 0.000910826
-0.58152 0.813532 0.000181363
-0.581528 0.813526 -0.000925344
-0.582115 0.813105 -0.00164522
-0.582473 0.812849 -0.00129503
-0.579466 0.814997 -1.0366e-05
0.794927 0.575342 -0.19254
0.674541 0.485079 -0.5565
-0.449245 -0.322289 0.833252
-0.157121 -0.112207 0.981184
0.162621 0.10608 0.98097
0.463887 0.301579 0.832982
0.696461 0.453073 0.556477
0.820594 0.538112 0.192514
-0.540309 0.841466 -0.000401693
-0.543236 0.839579 0.00131016
-0.542323 0.840168 0.0015496
-0.541422 0.840751 0.000438386
-0.541431 0.840744 -0.00113986
-0.542341 0.840155 -0.00223316
-0.543215 0.839591 -0.00195948
-0.539955 0.841694 -0.000189295
0.820346 0.538483 -0.19253
0.696566 0.453 -0.556405
-0.464013 -0.300824 0.833185
-0.162263 -0.104713 0.981176
0.167478 0.0983875 0.980954
0.477535 0.27975 0.832887
0.716665 0.420542 0.55636
0.843666 0.501162 0.19252
-0.499892 0.866088 -0.000107084
-0.503226 0.864152 0.00233391
-0.501486 0.865163 0.00238672
-0.500132 0.865949 0.000728498
-0.500145 0.865941 -0.00140341
-0.501501 0.865152 -0.00302035
-0.503168 0.864184 -0.00290684
-0.499523 0.866301 -0.000432365
0.843525 0.501401 -0.192516
0.716791 0.420445 -0.55627
-0.477631 -0.278998 0.833084
-0.167011 -0.0970989 0.981162
0.171916 0.0906458 0.980932
0.489973 0.25779 0.832749
0.734976 0.387904 0.556185
0.864366 0.464553 0.192516
-0.459285 0.888289 0.00038553
-0.462725 0.886494 0.00375443
-0.459725 0.888055 0.00345382
-0.457771 0.889069 0.00108179
-0.457787 0.88906 -0.00170478
-0.459745 0.888042 -0.0040288
-0.462667 0.886522 -0.00426658
-0.458867 0.888505 -0.000855959
0.86424 0.464796 -0.192495
0.735094 0.387833 -0.556078
-0.49005 -0.257023 0.832941
-0.17136 -0.089419 0.981142
0.175933 0.0829292 0.980903
0.501169 0.23597 0.832555
0.751313 0.355621 0.555934
0.882621 0.428862 0.192503
-0.419689 0.907667 0.00129925
-0.422071 0.906545 0.00570665
-0.417158 0.908822 0.00473155
-0.414453 0.91007 0.00146262
-0.414475 0.910058 -0.00205363
-0.417177 0.90881 -0.00524409
-0.421976 0.906586 -0.00613173
-0.419266 0.907862 -0.0017099
0.882594 0.428934 -0.192467
0.751438 0.355548 -0.555811
-0.501231 -0.235178 0.832741
-0.175293 -0.0817872 0.981113
0.179534 0.0753438 0.980862
0.511115 0.214621 0.832286
0.765628 0.324258 0.555581
0.898451 0.394635 0.192481
-0.383425 0.923567 0.00308374
-0.381625 0.92428 0.00832606
-0.37387 0.927461 0.00613947
-0.370291 0.928914 0.00182183
-0.370322 0.9289 -0.00239964
-0.373881 0.927453 -0.00657996
-0.38147 0.924341 -0.00865011
-0.383079 0.923709 -0.0034525
0.898539 0.394458 -0.192434
0.765779 0.324135 -0.555445
-0.511171 -0.213781 0.832467
-0.17881 -0.0743135 0.981073
0.182713 0.0680551 0.980808
0.519806 0.194205 0.831918
0.77792 0.294476 0.555089
0.911996 0.362254 0.192448
-0.354998 0.934843 0.00663202
-0.341643 0.939757 0.011671
-0.329889 0.94399 0.00752289
-0.325395 0.945576 0.0021118
-0.325438 0.94556 -0.00266878
-0.329896 0.943984 -0.00787548
-0.341431 0.939832 -0.011881
-0.354726 0.934945 -0.0069467
0.912167 0.361852 -0.192394
0.778094 0.294292 -0.554944
-0.51987 -0.193268 0.832095
-0.181924 -0.0671416 0.981018
0.185466 0.0613023 0.980737
0.527231 0.175401 0.831421
0.788218 0.267074 0.554422
0.923595 0.331598 0.192395
-0.342586 0.939389 0.0135776
-0.30204 0.953168 0.0155637
-0.285134 0.958449 0.0086299
-0.279808 0.960053 0.00226545
-0.279868 0.960034 -0.00280217
-0.285135 0.958446 -0.00887354
-0.301765 0.953254 -0.0156432
-0.342543 0.9394 -0.0138626
0.923839 0.330947 -0.192342
0.788418 0.26679 -0.554275
-0.527319 -0.1743 0.831597
-0.184633 -0.0605313 0.980942
0.187767 0.0554983 0.980644
0.53332 0.15935 0.830769
0.796514 0.243124 0.553585
0.933868 0.30151 0.192309
-0.357061 0.933714 0.0261676
-0.261796 0.964929 0.0193704
-0.239143 0.970941 0.00914827
-0.23321 0.972424 0.0022455
-0.233294 0.972402 -0.00274434
-0.239141 0.970941 -0.0092492
-0.261452 0.965024 -0.0192883
-0.357385 0.933583 -0.026438
0.934185 0.300549 -0.192273
0.796748 0.242657 -0.553453
-0.533452 -0.157959 0.83095
-0.186928 -0.0549123 0.980838
0.189454 0.0515529 0.980535
0.537665 0.148533 0.829972
0.8024 0.224926 0.552777
0.944209 0.267299 0.192407
-0.385208 0.921856 0.0423829
-0.216461 0.976051 0.0216781
-0.189724 0.981796 0.00901728
-0.183617 0.982995 0.00219604
-0.183725 0.982974 -0.00254959
-0.189732 0.981795 -0.00890958
-0.216094 0.976138 -0.021425
-0.385705 0.921638 -0.0425905
0.944555 0.266074 -0.192407
0.802669 0.224163 -0.552696
-0.537891 -0.146571 0.830175
-0.188695 -0.051182 0.980701
0.189929 0.0509235 0.980476
0.538561 0.148601 0.829379
0.802844 0.224345 0.552369
0.955403 0.22248 0.194184
-0.304291 0.95148 0.0457487
-0.148801 0.988585 0.0236071
-0.125713 0.991999 0.0115388
-0.12029 0.992732 0.00370337
-0.120274 0.992736 -0.00309203
-0.125649 0.992013 -0.011098
-0.148908 0.988565 -0.0237639
-0.3052 0.951169 -0.0461633
0.955889 0.220391 -0.194174
0.803205 0.222918 -0.552421
-0.53905 -0.145285 0.829649
-0.189421 -0.0507907 0.980581
0.188874 0.0461102 0.980918
0.536908 0.134513 0.832848
0.805561 0.195469 0.559343
0.971437 0.134327 0.195618
0.979508 0.0255773 -0.199775
0.827857 0.0598885 -0.557732
-0.552228 -0.051672 0.83209
-0.193879 -0.0193203 0.980835
0.193827 0.0193969 0.980844
0.552215 0.0517777 0.832092
0.827831 0.0602936 0.557727
0.979481 0.0258124 0.199878
0.971589 0.133475 -0.195448
0.805964 0.193938 -0.559294
-0.537709 -0.131065 0.832881
-0.188554 -0.0464075 0.980966
0.189408 0.040391 0.981067
0.53876 0.117973 0.834158
0.810063 0.16875 0.561534
0.969397 0.144605 0.19839
0.977498 0.0572381 -0.203031
0.825582 0.0574757 -0.561348
-0.550739 -0.0499685 0.83318
-0.193284 -0.0186816 0.980965
0.193479 0.0194089 0.980912
0.550754 0.0492931 0.833211
0.825521 0.0572638 0.561459
0.977483 0.0569058 0.203198
0.969596 0.143612 -0.198141
0.810436 0.167523 -0.561364
-0.53954 -0.115157 0.834048
-0.188948 -0.0412021 0.981122
0.185393 0.0454664 0.981612
0.524397 0.141627 0.839613
0.784564 0.224906 0.577821
0.960605 0.182177 0.209879
0.972486 -0.0228414 -0.231837
0.817488 0.00438095 -0.575929
-0.545854 -0.0278644 0.837417
-0.191416 -0.0108617 0.981449
0.191671 0.0130877 0.981372
0.545337 0.0237845 0.837879
0.817354 0.00325427 0.576126
0.97257 -0.0216298 0.231602
0.961062 0.18034 -0.209372
0.785497 0.222512 -0.577479
-0.527562 -0.133985 0.838884
-0.184537 -0.0476639 0.981669
0.000899198 0.00662451 0.999978
0.00408152 0.000544941 0.999992
</DataArray>
<DataArray type="Float64" Name="cell vector length" format="ascii">
0.143668 0.140633 0.126079 0.0851289 0.117497 0.145219 0.140956 0.136541 0.136473 0.140854 0.145858 0.117599 0.0846075 0.124659 0.150367 0.149133 0.4166 0.393613 0.355961 0.324245 0.349904 0.38841 0.404297 0.404864 0.403903 0.401613 0.388197 0.35012 0.32473 0.35689 0.401702 0.419323 0.525526 0.497841 0.444031 0.394331 0.439326 0.495868 0.510193 0.509432 0.508709 0.507975 0.495808 0.439674 0.394951 0.444642 0.503349 0.527093 0.564287 0.53009 0.454051 0.276499 0.10187 0.380542 0.524525 0.581967 0.581982 0.524783 0.380081 0.10197 0.276913 0.454402 0.535093 0.565633 0.588079 0.547442 0.453312 0.262972 0.0718516 0.362706 0.514205 0.57427 0.574164 0.513941 0.362238 0.0717972 0.263328 0.453487 0.552279 0.589312 0.602325 0.556367 0.450023 0.245393 0.0611935 0.357753 0.51101 0.572119 0.572023 0.510756 0.35727 0.0609059 0.245768 0.450136 0.561369 0.603581 0.611609 0.562115 0.447808 0.231386 0.0606628 0.356192 0.509179 0.570834 0.57075 0.508947 0.355717 0.0601609 0.2318 0.447917 0.567481 0.612958 0.617905 0.566019 0.446256 0.220865 0.0654192 0.356152 0.507912 0.569801 0.569725 0.507693 0.355689 0.0648038 0.221313 0.446388 0.571846 0.619378 0.622229 0.568616 0.444981 0.213082 0.0712397 0.356896 0.507112 0.568994 0.568924 0.5069 0.356442 0.0705585 0.213586 0.445148 0.574951 0.62384 0.625172 0.570243 0.443828 0.208349 0.0746016 0.357391 0.506645 0.568456 0.568391 0.506439 0.356946 0.0738953 0.208893 0.444035 0.577109 0.62693 0.627111 0.571135 0.44264 0.203677 0.0791234 0.358788 0.506641 0.568156 0.568094 0.506436 0.358342 0.0783801 0.20428 0.442892 0.578545 0.629022 0.628364 0.571505 0.441343 0.199635 0.0831837 0.360309 0.506936 0.568117 0.568057 0.506731 0.359865 0.0824138 0.200294 0.441642 0.579459 0.630431 0.629172 0.571501 0.439886 0.196049 0.0867518 0.361897 0.507554 0.568407 0.568353 0.507352 0.361459 0.0859536 0.19677 0.440238 0.579996 0.631396 0.629731 0.571261 0.438185 0.192344 0.0906971 0.364157 0.508923 0.569403 0.569352 0.508719 0.363715 0.0898574 0.193134 0.438592 0.580292 0.632112 0.630106 0.570981 0.436638 0.189451 0.10223 0.371946 0.514814 0.574461 0.574408 0.514608 0.371508 0.101378 0.190283 0.4371 0.580532 0.632644 0.6303 0.570707 0.435416 0.182329 0.135187 0.397047 0.534186 0.591384 0.591334 0.533978 0.396611 0.134307 0.183236 0.435927 0.580743 0.632987 0.63032 0.570231 0.434075 0.180483 0.144131 0.403293 0.539168 0.595787 0.595732 0.538942 0.402845 0.143235 0.181433 0.434628 0.580716 0.633146 0.630048 0.569471 0.432584 0.178307 0.145083 0.404047 0.539919 0.596509 0.59645 0.539679 0.403583 0.144151 0.17931 0.433177 0.580384 0.633009 0.629413 0.568518 0.431367 0.177063 0.144974 0.404067 0.54021 0.596891 0.59683 0.539962 0.403593 0.144025 0.178094 0.431994 0.579836 0.632504 0.628426 0.567376 0.430327 0.176477 0.144354 0.403906 0.540504 0.597341 0.597278 0.540247 0.403429 0.143377 0.177549 0.43098 0.579079 0.631645 0.627022 0.565973 0.429395 0.176596 0.143118 0.403616 0.540881 0.597936 0.597871 0.540615 0.403136 0.14214 0.177676 0.430071 0.578037 0.630364 0.625052 0.564193 0.428557 0.177588 0.141087 0.403211 0.541399 0.598702 0.598633 0.541119 0.402729 0.140127 0.178662 0.429258 0.576601 0.628514 0.622283 0.561865 0.427823 0.17977 0.138023 0.402728 0.542121 0.599661 0.599584 0.541823 0.402247 0.137066 0.180858 0.428554 0.574612 0.625869 0.618381 0.558749 0.427229 0.18366 0.133663 0.40229 0.543124 0.600825 0.600735 0.542799 0.401807 0.132752 0.184721 0.428002 0.571843 0.6221 0.61288 0.554518 0.426844 0.190027 0.127835 0.402147 0.544499 0.602189 0.602081 0.544138 0.40166 0.126976 0.191066 0.427681 0.568 0.616753 0.605067 0.548714 0.426779 0.199858 0.120941 0.402789 0.546383 0.603774 0.603642 0.545977 0.402307 0.120182 0.200841 0.427703 0.562655 0.609138 0.593563 0.54041 0.426941 0.213571 0.115787 0.405396 0.549198 0.605854 0.605697 0.548752 0.404937 0.115165 0.214477 0.427972 0.554929 0.597905 0.574156 0.525803 0.424568 0.225566 0.123568 0.414535 0.5555 0.610552 0.61041 0.555109 0.414189 0.123192 0.226321 0.425714 0.541145 0.57891 0.527896 0.483392 0.396295 0.190942 0.192743 0.460307 0.583504 0.633709 0.634367 0.585932 0.459997 0.19255 0.191587 0.397534 0.500448 0.533412 0.492509 0.450845 0.380953 0.316673 0.367712 0.434652 0.472066 0.474891 0.46891 0.456083 0.432961 0.368204 0.317629 0.382359 0.469342 0.49857 0.44449 0.40385 0.3455 0.297747 0.319398 0.37116 0.42049 0.425839 0.418278 0.399065 0.369727 0.319775 0.298463 0.346912 0.423658 0.451076 0.218493 0.177152 0.12031 0.077138 0.11089 0.177354 0.242563 0.25707 0.251555 0.225049 0.178509 0.111915 0.0773505 0.119076 0.195656 0.224258 0.0442301 0.0151589 
</DataArray>
<DataArray type="Float64" Name="cell variable 4" format="ascii">
833.602 836.765 840.384 833.283 847.292 845.754 836.123 831.356 830.816 834.949 846.143 847.292 832.822 838.405 842.227 835.464 1129.11 1120.17 1113.57 1114.28 1131.93 1134.04 1134.43 1131.27 1129.93 1130.19 1134.13 1131.96 1114.12 1113.53 1132.95 1133.29 1344.69 1334.96 1325.77 1321.78 1354.97 1365.74 1370.17 1367.61 1365.87 1364.42 1365.79 1355.12 1322.03 1326.03 1348.72 1348.76 1404.83 1394.49 1384.23 1370.94 1552.77 2301.51 2995.42 3401.07 3399.58 2992.33 2299.69 1552.39 1371.09 1384.46 1409.01 1409.06 1423.62 1412.42 1402.49 1392.99 1559.15 2290.82 2986.22 3395.32 3394.17 2983.7 2289.06 1558.47 1393.12 1402.67 1427.54 1427.96 1428.57 1413.77 1399.5 1390.68 1567.16 2283.9 2974.37 3384.89 3383.93 2972.21 2282.23 1566.31 1390.83 1399.68 1429.71 1433.12 1429.98 1412.34 1394.89 1385.47 1579.29 2282.67 2964.65 3374.51 3373.68 2962.74 2281.07 1578.32 1385.67 1395.07 1429.44 1434.86 1430.39 1410.56 1390.83 1380.66 1592.15 2285.18 2957.49 3364.99 3364.25 2955.76 2283.63 1591.13 1380.88 1391.03 1429.06 1435.69 1430.53 1408.84 1387.22 1376.32 1602.86 2288.99 2952.67 3357.04 3356.4 2951.11 2287.46 1601.75 1376.56 1387.46 1428.89 1436.32 1430.6 1407.24 1383.99 1372.45 1607.82 2290.59 2949.19 3350.99 3350.41 2947.76 2289.11 1606.71 1372.72 1384.25 1428.85 1436.88 1430.53 1405.64 1381.09 1369.03 1614.33 2294.63 2947.78 3346.48 3345.96 2946.47 2293.16 1613.16 1369.33 1381.38 1428.82 1437.32 1430.36 1404.07 1378.49 1365.99 1619.76 2298.53 2947.49 3343.52 3343.04 2946.27 2297.07 1618.54 1366.3 1378.8 1428.82 1437.68 1430.17 1402.52 1375.98 1363.08 1623.85 2301.81 2948.08 3342.15 3341.73 2946.96 2300.35 1622.58 1363.39 1376.29 1428.81 1438.01 1429.87 1400.91 1373.35 1359.64 1626.78 2304.39 2949.32 3342.16 3341.77 2948.27 2302.91 1625.44 1359.95 1373.68 1428.69 1438.23 1428.94 1399.03 1371.07 1357.32 1628.59 2305.94 2950.59 3342.74 3342.37 2949.59 2304.48 1627.26 1357.65 1371.4 1428.22 1437.79 1427.48 1396.99 1369.39 1356.79 1658.12 2356.37 3015.08 3415.29 3414.93 3014.09 2354.83 1656.67 1357.12 1369.73 1427.51 1436.82 1426.56 1395.36 1367.64 1355.17 1657.76 2355.29 3014.51 3414.84 3414.45 3013.44 2353.67 1656.27 1355.5 1367.99 1427.12 1436.35 1426.11 1394.08 1365.88 1352.89 1657.82 2355.04 3015.18 3416.27 3415.84 3014.08 2353.38 1656.28 1353.23 1366.23 1426.98 1436.34 1425.55 1392.85 1364.51 1351.59 1657.6 2354.72 3016.16 3418.57 3418.16 3015.09 2353.05 1656.06 1351.95 1364.88 1426.81 1436.18 1424.83 1391.67 1363.46 1350.78 1656.72 2354 3017.37 3421.7 3421.32 3016.36 2352.32 1655.11 1351.14 1363.84 1426.63 1435.85 1424 1390.56 1362.65 1350.32 1654.74 2352.69 3019 3425.88 3425.49 3018.01 2351.03 1653.17 1350.7 1363.04 1426.41 1435.38 1423.12 1389.53 1362.1 1350.24 1651.32 2350.66 3021.23 3431.26 3430.86 3020.24 2349.03 1649.82 1350.63 1362.5 1426.2 1434.83 1422.2 1388.63 1361.87 1350.6 1645.98 2347.91 3024.39 3438.16 3437.72 3023.37 2346.27 1644.47 1350.98 1362.3 1426.05 1434.21 1421.24 1387.91 1362.07 1351.51 1638.13 2344.62 3028.97 3446.81 3446.3 3027.84 2343 1636.72 1351.89 1362.49 1425.98 1433.53 1420.24 1387.43 1362.82 1353.07 1627.14 2341.37 3035.56 3457.31 3456.67 3034.26 2339.8 1625.88 1353.44 1363.25 1426.08 1432.77 1418.93 1387.13 1364.22 1355.18 1612.85 2339.41 3044.84 3469.55 3468.7 3043.28 2337.9 1611.79 1355.52 1364.64 1426.28 1431.68 1415.7 1385.76 1365.32 1356.16 1596.54 2340.88 3057.29 3483.07 3481.95 3055.41 2339.46 1595.71 1356.44 1365.7 1425.28 1428.62 1400.73 1373.52 1356.38 1344.1 1583.06 2349.43 3073.17 3497.37 3495.97 3070.95 2348.1 1582.5 1344.24 1356.64 1412.89 1413.66 1321.04 1293.97 1274.29 1252.28 1585.75 2378.84 3101.11 3521.62 3519.89 3098.39 2377.57 1585.47 1252.37 1274.35 1330.83 1333.26 1250.33 1222.52 1200.96 1185.59 1214.58 1225.66 1261.02 1260.13 1251.49 1235.03 1225.74 1214.86 1185.85 1201.03 1257.35 1261.98 1117.29 1088.82 1064.27 1049.51 1055.17 1062.87 1102.94 1100.94 1090.68 1071.99 1062.76 1055.31 1049.61 1064.5 1119.64 1127.78 794.218 783.041 778.226 779.508 794.341 813.014 855.811 864.429 857.867 835.862 814.202 794.592 779.467 776.671 801.443 799.811 614.065 744.351 
</DataArray>
<DataArray type="Float64" Name="cell variable 5" format="ascii">
0.00715935 0.00715935 0.00715935 0.00715935 0.00715935 0.00715935 0.00715935 0.00715935 0.00715935 0.00715935 0.00715935 0.00715935 0.00715935 0.00715935 0.00715935 0.00715935 0.00715935 0.00715935 0.00715935 0.00715935 0.00715935 0.00715935 0.00715935 0.00715935 0.00715935 0.00715935 0.00715935 0.00715935 0.00715935 0.00715935 0.00715935 0.00715935 0.00715935 0.00715935 0.00715935 0.00715935 0.00715935 0.00715935 0.00715935 0.00715935 0.00715935 0.00715935 0.00715935 0.00715935 0.00715935 0.00715935 0.00715935 0.00715935 0.0108202 0.0100167 0.00872009 0.00748391 0.00715935 0.00715935 0.00715935 0.00715935 0.00715935 0.00715935 0.00715935 0.00715935 0.00748391 0.00872009 0.0100167 0.0108202 0.0122425 0.0111272 0.00932625 0.0076096 0.00715935 0.00715935 0.00715935 0.00715935 0.00715935 0.00715935 0.00715935 0.00715935 0.0076096 0.00932625 0.0111272 0.0122425 0.0130666 0.0117716 0.00967785 0.00768278 0.00715935 0.00715935 0.00715935 0.00715935 0.00715935 0.00715935 0.00715935 0.00715935 0.00768278 0.00967785 0.0117716 0.0130666 0.0136664 0.0122377 0.009934 0.00773687 0.00715935 0.00715935 0.00715935 0.00715935 0.00715935 0.00715935 0.00715935 0.00715935 0.00773687 0.009934 0.0122377 0.0136664 0.0141342 0.0126036 0.0101329 0.00777824 0.00715935 0.00715935 0.00715935 0.00715935 0.00715935 0.00715935 0.00715935 0.00715935 0.00777824 0.0101329 0.0126036 0.0141342 0.0145112 0.012898 0.0102936 0.00781165 0.00715935 0.00715935 0.00715935 0.00715935 0.00715935 0.00715935 0.00715935 0.00715935 0.00781165 0.0102936 0.012898 0.0145112 0.0148199 0.0131382 0.0104256 0.0078387 0.00715935 0.00715935 0.00715935 0.00715935 0.00715935 0.00715935 0.00715935 0.00715935 0.0078387 0.0104256 0.0131382 0.0148199 0.0150696 0.0133339 0.0105322 0.00786097 0.00715935 0.00715935 0.00715935 0.00715935 0.00715935 0.00715935 0.00715935 0.00715935 0.00786097 0.0105322 0.0133339 0.0150696 0.0152701 0.0134914 0.0106181 0.00787847 0.00715935 0.00715935 0.00715935 0.00715935 0.00715935 0.00715935 0.00715935 0.00715935 0.00787847 0.0106181 0.0134914 0.0152701 0.015426 0.0136123 0.0106833 0.00789279 0.00715935 0.00715935 0.00715935 0.00715935 0.00715935 0.00715935 0.00715935 0.00715935 0.00789279 0.0106833 0.0136123 0.015426 0.0155406 0.0137014 0.0107327 0.00790234 0.00715935 0.00715935 0.00715935 0.00715935 0.00715935 0.00715935 0.00715935 0.00715935 0.00790234 0.0107327 0.0137014 0.0155406 0.0156169 0.0137603 0.0107645 0.00791029 0.00715935 0.00715935 0.00715935 0.00715935 0.00715935 0.00715935 0.00715935 0.00715935 0.00791029 0.0107645 0.0137603 0.0156169 0.0156535 0.0137905 0.0107804 0.00791347 0.00715935 0.00715935 0.00715935 0.00715935 0.00715935 0.00715935 0.00715935 0.00715935 0.00791347 0.0107804 0.0137905 0.0156535 0.0156535 0.0137905 0.0107804 0.00791347 0.00715935 0.00715935 0.00715935 0.00715935 0.00715935 0.00715935 0.00715935 0.00715935 0.00791347 0.0107804 0.0137905 0.0156535 0.0156169 0.0137603 0.0107645 0.00791029 0.00715935 0.00715935 0.00715935 0.00715935 0.00715935 0.00715935 0.00715935 0.00715935 0.00791029 0.0107645 0.0137603 0.0156169 0.0155406 0.0137014 0.0107327 0.00790234 0.00715935 0.00715935 0.00715935 0.00715935 0.00715935 0.00715935 0.00715935 0.00715935 0.00790234 0.0107327 0.0137014 0.0155406 0.015426 0.0136123 0.0106833 0.00789279 0.00715935 0.00715935 0.00715935 0.00715935 0.00715935 0.00715935 0.00715935 0.00715935 0.00789279 0.0106833 0.0136123 0.015426 0.0152701 0.0134914 0.0106181 0.00787847 0.00715935 0.00715935 0.00715935 0.00715935 0.00715935 0.00715935 0.00715935 0.00715935 0.00787847 0.0106181 0.0134914 0.0152701 0.0150696 0.0133339 0.0105322 0.00786097 0.00715935 0.00715935 0.00715935 0.00715935 0.00715935 0.00715935 0.00715935 0.00715935 0.00786097 0.0105322 0.0133339 0.0150696 0.0148199 0.0131382 0.0104256 0.0078387 0.00715935 0.00715935 0.00715935 0.00715935 0.00715935 0.00715935 0.00715935 0.00715935 0.0078387 0.0104256 0.0131382 0.0148199 0.0145112 0.012898 0.0102936 0.00781165 0.00715935 0.00715935 0.00715935 0.00715935 0.00715935 0.00715935 0.00715935 0.00715935 0.00781165 0.0102936 0.012898 0.0145112 0.0141342 0.0126036 0.0101329 0.00777824 0.00715935 0.00715935 0.00715935 0.00715935 0.00715935 0.00715935 0.00715935 0.00715935 0.00777824 0.0101329 0.0126036 0.0141342 0.0136664 0.0122377 0.009934 0.00773687 0.00715935 0.00715935 0.00715935 0.00715935 0.00715935 0.00715935 0.00715935 0.00715935 0.00773687 0.009934 0.0122377 0.0136664 0.0130666 0.0117716 0.00967785 0.00768278 0.00715935 0.00715935 0.00715935 0.00715935 0.00715935 0.00715935 0.00715935 0.00715935 0.00768278 0.00967785 0.0117716 0.0130666 0.0122425 0.0111272 0.00932625 0.0076096 0.00715935 0.00715935 0.00715935 0.00715935 0.00715935 0.00715935 0.00715935 0.00715935 0.0076096 0.00932625 0.0111272 0.0122425 0.0108202 0.0100167 0.00872009 0.00748391 0.00715935 0.00715935 0.00715935 0.00715935 0.00715935 0.00715935 0.00715935 0.00715935 0.00748391 0.00872009 0.0100167 0.0108202 0.00715935 0.00715935 0.00715935 0.00715935 0.00715935 0.00715935 0.00715935 0.00715935 0.00715935 0.00715935 0.00715935 0.00715935 0.00715935 0.00715935 0.00715935 0.00715935 0.00715935 0.00715935 0.00715935 0.00715935 0.00715935 0.00715935 0.00715935 0.00715935 0.00715935 0.00715935 0.00715935 0.00715935 0.00715935 0.00715935 0.00715935 0.00715935 0.00715935 0.00715935 0.00715935 0.00715935 0.00715935 0.00715935 0.00715935 0.00715935 0.00715935 0.00715935 0.00715935 0.00715935 0.00715935 0.00715935 0.00715935 0.00715935 0.00715935 0.00715935 
</DataArray>
<DataArray type="Float64" Name="cell variable 6" format="ascii">
1 1 1 1 1 1 1 1 1 1 1 1 1 1 1 1 1 1 1 1 1 1 1 1 1 1 1 1 1 1 1 1 1 1 1 1 1 1 1 1 1 1 1 1 1 1 1 1 1 1 1 1 1 1 1 1 1 1 1 1 1 1 1 1 1 1 1 1 1 1 1 1 1 1 1 1 1 1 1 1 1 1 1 1 1 1 1 1 1 1 1 1 1 1 1 1 1 1 1 1 1 1 1 1 1 1 1 1 1 1 1 1 1 1 1 1 1 1 1 1 1 1 1 1 1 1 1 1 1 1 1 1 1 1 1 1 1 1 1 1 1 1 1 1 1 1 1 1 1 1 1 1 1 1 1 1 1 1 1 1 1 1 1 1 1 1 1 1 1 1 1 1 1 1 1 1 1 1 1 1 1 1 1 1 1 1 1 1 1 1 1 1 1 1 1 1 1 1 1 1 1 1 1 1 1 1 1 1 1 1 1 1 1 1 1 1 1 1 1 1 1 1 1 1 1 1 1 1 1 1 1 1 1 1 1 1 1 1 1 1 1 1 1 1 1 1 1 1 1 1 1 1 1 1 1 1 1 1 1 1 1 1 1 1 1 1 1 1 1 1 1 1 1 1 1 1 1 1 1 1 1 1 1 1 1 1 1 1 1 1 1 1 1 1 1 1 1 1 1 1 1 1 1 1 1 1 1 1 1 1 1 1 1 1 1 1 1 1 1 1 1 1 1 1 1 1 1 1 1 1 1 1 1 1 1 1 1 1 1 1 1 1 1 1 1 1 1 1 1 1 1 1 1 1 1 1 1 1 1 1 1 1 1 1 1 1 1 1 1 1 1 1 1 1 1 1 1 1 1 1 1 1 1 1 1 1 1 1 1 1 1 1 1 1 1 1 1 1 1 1 1 1 1 1 1 1 1 1 1 1 1 1 1 1 1 1 1 1 1 1 1 1 1 1 1 1 1 1 1 1 1 1 1 1 1 1 1 1 1 1 1 1 1 1 1 1 1 1 1 1 1 1 1 1 1 1 1 1 1 1 1 1 1 1 1 1 1 1 1 1 1 1 1 1 1 1 1 1 1 1 1 1 1 1 1 1 1 1 1 1 1 1 1 1 1 1 1 1 1 1 1 1 1 1 1 1 1 1 1 1 1 1 1 1 
</DataArray>
<DataArray type="Float64" Name="cell variable 7" format="ascii">
0 0 0 0 0 0 0 0 0 0 0 0 0 0 0 0 0 0 0 0 0 0 0 0 0 0 0 0 0 0 0 0 0 0 0 0 0 0 0 0 0 0 0 0 0 0 0 0 0 0 0 0 0 0 0 0 0 0 0 0 0 0 0 0 0 0 0 0 0 0 0 0 0 0 0 0 0 0 0 0 0 0 0 0 0 0 0 0 0 0 0 0 0 0 0 0 0 0 0 0 0 0 0 0 0 0 0 0 0 0 0 0 0 0 0 0 0 0 0 0 0 0 0 0 0 0 0 0 0 0 0 0 0 0 0 0 0 0 0 0 0 0 0 0 0 0 0 0 0 0 0 0 0 0 0 0 0 0 0 0 0 0 0 0 0 0 0 0 0 0 0 0 0 0 0 0 0 0 0 0 0 0 0 0 0 0 0 0 0 0 0 0 0 0 0 0 0 0 0 0 0 0 0 0 0 0 0 0 0 0 0 0 0 0 0 0 0 0 0 0 0 0 0 0 0 0 0 0 0 0 0 0 0 0 0 0 0 0 0 0 0 0 0 0 0 0 0 0 0 0 0 0 0 0 0 0 0 0 0 0 0 0 0 0 0 0 0 0 0 0 0 0 0 0 0 0 0 0 0 0 0 0 0 0 0 0 0 0 0 0 0 0 0 0 0 0 0 0 0 0 0 0 0 0 0 0 0 0 0 0 0 0 0 0 0 0 0 0 0 0 0 0 0 0 0 0 0 0 0 0 0 0 0 0 0 0 0 0 0 0 0 0 0 0 0 0 0 0 0 0 0 0 0 0 0 0 0 0 0 0 0 0 0 0 0 0 0 0 0 0 0 0 0 0 0 0 0 0 0 0 0 0 0 0 0 0 0 0 0 0 0 0 0 0 0 0 0 0 0 0 0 0 0 0 0 0 0 0 0 0 0 0 0 0 0 0 0 0 0 0 0 0 0 0 0 0 0 0 0 0 0 0 0 0 0 0 0 0 0 0 0 0 0 0 0 0 0 0 0 0 0 0 0 0 0 0 0 0 0 0 0 0 0 0 0 0 0 0 0 0 0 0 0 0 0 0 0 0 0 0 0 0 0 0 0 0 0 0 0 0 0 0 0 0 0 0 0 0 0 0 0 0 0 0 0 0 0 0 0 0 0 0 1 1 
</DataArray>
<DataArray type="Float64" Name="cell variable 8" format="ascii">
11.25 33.75 56.25 78.75 101.25 123.75 146.25 168.75 191.25 213.75 236.25 258.75 281.25 303.75 326.25 348.75 11.25 33.75 56.25 78.75 101.25 123.75 146.25 168.75 191.25 213.75 236.25 258.75 281.25 303.75 326.25 348.75 11.25 33.75 56.25 78.75 101.25 123.75 146.25 168.75 191.25 213.75 236.25 258.75 281.25 303.75 326.25 348.75 11.25 33.75 56.25 78.75 101.25 123.75 146.25 168.75 191.25 213.75 236.25 258.75 281.25 303.75 326.25 348.75 11.25 33.75 56.25 78.75 101.25 123.75 146.25 168.75 191.25 213.75 236.25 258.75 281.25 303.75 326.25 348.75 11.25 33.75 56.25 78.75 101.25 123.75 146.25 168.75 191.25 213.75 236.25 258.75 281.25 303.75 326.25 348.75 11.25 33.75 56.25 78.75 101.25 123.75 146.25 168.75 191.25 213.75 236.25 258.75 281.25 303.75 326.25 348.75 11.25 33.75 56.25 78.75 101.25 123.75 146.25 168.75 191.25 213.75 236.25 258.75 281.25 303.75 326.25 348.75 11.25 33.75 56.25 78.75 101.25 123.75 146.25 168.75 191.25 213.75 236.25 258.75 281.25 303.75 326.25 348.75 11.25 33.75 56.25 78.75 101.25 123.75 146.25 168.75 191.25 213.75 236.25 258.75 281.25 303.75 326.25 348.75 11.25 33.75 56.25 78.75 101.25 123.75 146.25 168.75 191.25 213.75 236.25 258.75 281.25 303.75 326.25 348.75 11.25 33.75 56.25 78.75 101.25 123.75 146.25 168.75 191.25 213.75 236.25 258.75 281.25 303.75 326.25 348.75 11.25 33.75 56.25 78.75 101.25 123.75 146.25 168.75 191.25 213.75 236.25 258.75 281.25 303.75 326.25 348.75 11.25 33.75 56.25 78.75 101.25 123.75 146.25 168.75 191.25 213.75 236.25 258.75 281.25 303.75 326.25 348.75 11.25 33.75 56.25 78.75 101.25 123.75 146.25 168.75 191.25 213.75 236.25 258.75 281.25 303.75 326.25 348.75 11.25 33.75 56.25 78.75 101.25 123.75 146.25 168.75 191.25 213.75 236.25 258.75 281.25 303.75 326.25 348.75 11.25 33.75 56.25 78.75 101.25 123.75 146.25 168.75 191.25 213.75 236.25 258.75 281.25 303.75 326.25 348.75 11.25 33.75 56.25 78.75 101.25 123.75 146.25 168.75 191.25 213.75 236.25 258.75 281.25 303.75 326.25 348.75 11.25 33.75 56.25 78.75 101.25 123.75 146.25 168.75 191.25 213.75 236.25 258.75 281.25 303.75 326.25 348.75 11.25 33.75 56.25 78.75 101.25 123.75 146.25 168.75 191.25 213.75 236.25 258.75 281.25 303.75 326.25 348.75 11.25 33.75 56.25 78.75 101.25 123.75 146.25 168.75 191.25 213.75 236.25 258.75 281.25 303.75 326.25 348.75 11.25 33.75 56.25 78.75 101.25 123.75 146.25 168.75 191.25 213.75 236.25 258.75 281.25 303.75 326.25 348.75 11.25 33.75 56.25 78.75 101.25 123.75 146.25 168.75 191.25 213.75 236.25 258.75 281.25 303.75 326.25 348.75 11.25 33.75 56.25 78.75 101.25 123.75 146.25 168.75 191.25 213.75 236.25 258.75 281.25 303.75 326.25 348.75 11.25 33.75 56.25 78.75 101.25 123.75 146.25 168.75 191.25 213.75 236.25 258.75 281.25 303.75 326.25 348.75 11.25 33.75 56.25 78.75 101.25 123.75 146.25 168.75 191.25 213.75 236.25 258.75 281.25 303.75 326.25 348.75 11.25 33.75 56.25 78.75 101.25 123.75 146.25 168.75 191.25 213.75 236.25 258.75 281.25 303.75 326.25 348.75 11.25 33.75 56.25 78.75 101.25 123.75 146.25 168.75 191.25 213.75 236.25 258.75 281.25 303.75 326.25 348.75 11.25 33.75 56.25 78.75 101.25 123.75 146.25 168.75 191.25 213.75 236.25 258.75 281.25 303.75 326.25 348.75 11.25 33.75 56.25 78.75 101.25 123.75 146.25 168.75 191.25 213.75 236.25 258.75 281.25 303.75 326.25 348.75 11.25 33.75 56.25 78.75 101.25 123.75 146.25 168.75 191.25 213.75 236.25 258.75 281.25 303.75 326.25 348.75 11.25 33.75 56.25 78.75 101.25 123.75 146.25 168.75 191.25 213.75 236.25 258.75 281.25 303.75 326.25 348.75 0 0 
</DataArray>
</CellData>
</Piece>
</UnstructuredGrid>
</VTKFile>
