<VTKFile type="UnstructuredGrid" version="0.1">
<UnstructuredGrid>
<Piece  NumberOfPoints="    2080" NumberOfCells="     514">
<Points>
<DataArray type="Float64" NumberOfComponents="3" format="ascii">
-384.261 660.698 1.20086
-383.937 665.851 26.9618
-354.852 659.54 29.0608
-355.254 653.947 1.22203
-383.86 666.998 29.7114
-382.929 681.637 51.4847
-353.692 676.558 55.3387
-354.776 660.687 31.8103
-382.8 683.75 53.583
-381.603 705.579 68.0694
-352.19 702.318 73.1369
-353.564 678.671 57.437
-381.471 708.331 69.2055
-380.414 734.028 74.2914
-350.949 732.938 79.8914
-352.058 705.07 74.273
-380.314 737.007 74.2956
-379.57 762.735 69.2281
-350.136 763.824 74.3976
-350.848 735.917 79.8956
-379.502 765.492 68.0923
-379.001 787.353 53.5721
-349.556 790.23 57.489
-350.067 766.58 73.2618
-378.953 789.465 51.467
-378.61 804.084 29.6611
-349.119 808.142 31.7731
-349.507 792.342 55.3839
-378.581 805.226 26.9084
-378.441 810.353 1.15915
-348.928 814.829 1.16533
-349.09 809.284 29.0204
-378.439 810.352 -1.82079
-378.558 805.21 -27.5674
-349.062 809.272 -29.6665
-348.927 814.829 -1.81461
-378.585 804.066 -30.3194
-378.917 789.436 -52.119
-349.465 792.316 -56.0197
-349.089 808.128 -32.4185
-378.965 787.324 -54.223
-379.459 765.454 -68.7327
-350.022 766.546 -73.8827
-349.512 790.204 -58.1237
-379.526 762.697 -69.8671
-380.265 736.966 -74.9207
-350.797 735.879 -80.5011
-350.089 763.788 -75.017
-380.366 733.987 -74.9149
-381.424 708.293 -69.8154
-352.006 705.036 -74.8622
-350.897 732.9 -80.4954
-381.556 705.542 -68.6777
-382.745 683.723 -54.175
-353.527 678.649 -58.0068
-352.138 702.285 -73.7245
-382.874 681.612 -52.0749
-383.809 666.989 -30.2929
-354.761 660.676 -32.3567
-353.656 676.538 -55.9067
-383.888 665.842 -27.5416
-384.259 660.698 -1.7802
-355.253 653.947 -1.75902
-354.84 659.53 -29.6054
-351.845 653.446 1.29775
-351.443 659.038 29.1365
-318.728 656.468 29.7722
-319.183 650.796 1.30465
-350.272 676.111 55.553
-317.399 673.798 56.7561
-318.64 657.671 32.6603
-351.355 660.241 32.0246
-348.752 701.975 73.4587
-315.692 700.115 75.0561
-317.253 676.014 58.9619
-350.126 678.328 57.7588
-347.501 732.731 80.2734
-314.492 731.464 81.9608
-315.551 703.003 76.2525
-348.61 704.864 74.6551
-346.691 763.769 74.7799
-313.787 763.085 76.2772
-314.395 734.595 81.9652
-347.404 735.862 80.2779
-346.115 790.314 57.8103
-313.246 790.132 58.9537
-313.723 765.98 75.0804
-346.627 766.664 73.5831
-345.677 808.33 31.9868
-312.787 808.503 32.6157
-313.197 792.348 56.741
-346.065 792.53 55.5976
-345.483 815.075 1.24089
-312.579 815.375 1.25163
-312.755 809.702 29.7248
-345.645 809.53 29.096
-345.617 809.517 -29.74
-312.731 809.686 -30.3463
-312.578 815.374 -1.87741
-345.482 815.074 -1.88814
-346.023 792.505 -56.2313
-313.156 792.321 -57.3506
-312.76 808.486 -33.2365
-345.646 808.317 -32.6302
-346.581 766.629 -74.2017
-313.676 765.944 -75.676
-313.205 790.104 -59.562
-346.072 790.288 -58.4427
-347.352 735.824 -80.881
-314.343 734.555 -82.5433
-313.74 763.048 -76.8713
-346.645 763.733 -75.3969
-348.558 704.83 -75.2417
-315.499 702.966 -76.8126
-314.44 731.424 -82.5372
-347.449 732.693 -80.8749
-350.089 678.306 -58.3258
-317.214 675.987 -59.5065
-315.642 700.078 -75.6144
-348.7 701.942 -74.0435
-351.342 660.23 -32.5681
-318.623 657.654 -33.1879
-317.362 673.772 -57.2988
-350.237 676.091 -56.1181
-351.432 659.028 -29.6787
-351.845 653.445 -1.83231
-319.183 650.795 -1.8254
-318.713 656.453 -30.2984
-315.553 650.568 1.3273
-315.098 656.24 29.7948
-282.274 654.723 29.9475
-282.81 649.062 1.33717
-314.994 657.452 32.7253
-313.753 673.579 56.8211
-280.676 672.055 57.1379
-282.17 655.936 32.8779
-313.582 675.817 59.0608
-312.022 699.918 75.155
-278.654 698.468 75.5812
-280.505 674.293 59.3776
-311.874 702.839 76.3674
-310.815 731.3 82.0757
-277.663 730.028 82.5277
-278.506 701.389 76.7936
-310.733 734.475 82.0793
-310.125 762.965 76.3913
-277.13 761.886 76.8733
-277.58 733.203 82.5314
-310.07 765.901 75.1774
-309.594 790.053 59.0507
-276.637 789.14 59.4363
-277.075 764.822 75.6594
-309.544 792.3 56.8062
-309.135 808.454 32.6809
-276.142 807.626 32.8886
-276.588 791.387 57.1918
-309.1 809.67 29.7485
-308.925 815.342 1.27529
-275.91 814.536 1.28808
-276.108 808.842 29.9561
-308.923 815.341 -1.89846
-309.076 809.654 -30.3674
-276.087 808.825 -30.5503
-275.909 814.535 -1.88567
-309.108 808.437 -33.299
-309.505 792.272 -57.4131
-276.551 791.358 -57.7755
-276.119 807.609 -33.482
-309.553 790.024 -59.6564
-310.024 765.865 -75.7705
-277.03 764.783 -76.2297
-276.599 789.11 -60.0188
-310.078 762.928 -76.9828
-310.681 734.435 -82.6548
-277.529 733.16 -83.0846
-277.084 761.847 -77.442
-310.763 731.26 -82.6494
-311.823 702.802 -76.9248
-278.456 701.35 -77.3298
-277.612 729.985 -83.0792
-311.971 699.881 -75.7108
-313.544 675.789 -59.6029
-280.464 674.262 -59.9007
-278.604 698.429 -76.1158
-313.716 673.552 -57.3617
-314.977 657.435 -33.2507
-282.15 655.915 -33.3841
-280.636 672.025 -57.6594
-315.083 656.224 -30.3192
-315.552 650.567 -1.84615
-282.809 649.061 -1.83628
-282.256 654.704 -30.4526
-279.184 648.864 1.34536
-278.648 654.525 29.9557
-246.059 652.455 30.033
-246.773 646.818 1.35481
-278.515 655.736 32.9005
-277.021 671.855 57.1605
-243.913 669.728 57.3239
-245.927 653.666 32.9779
-276.794 674.098 59.4138
-274.943 698.273 75.6174
-240.875 696.104 75.8437
-243.685 671.97 59.5773
-274.718 701.218 76.835
-273.874 729.857 82.5692
-238.087 727.713 82.7856
-240.65 699.048 77.0613
-273.708 733.042 82.5658
-273.258 761.725 76.9077
-235.789 759.612 77.155
-237.922 730.898 82.7822
-273.125 764.664 75.6867
-272.687 788.982 59.4636
-233.872 786.89 59.6686
-235.656 762.551 75.934
-272.577 791.227 57.2089
-272.131 807.466 32.9057
-232.461 805.352 33.0164
-233.762 789.135 57.4139
-272.064 808.679 29.9626
-271.866 814.373 1.29455
-231.905 812.242 1.30817
-232.394 806.565 30.0733
-271.865 814.372 -1.88927
-272.043 808.663 -30.5539
-232.376 806.549 -30.6382
-231.904 812.241 -1.87564
-272.109 807.449 -33.4964
-272.541 791.198 -57.7899
-233.729 789.105 -57.9704
-232.441 805.335 -33.5807
-272.649 788.952 -60.0435
-273.08 764.625 -76.2544
-235.612 762.512 -76.4779
-233.837 786.859 -60.224
-273.212 761.685 -77.4739
-273.657 732.999 -83.1165
-237.872 730.855 -83.3109
-235.744 759.572 -77.6973
-273.823 729.814 -83.1183
-274.667 701.178 -77.3689
-240.599 699.008 -77.5753
-238.037 727.669 -83.3127
-274.893 698.234 -76.1499
-276.752 674.067 -59.9348
-243.641 671.937 -60.08
-240.825 696.064 -76.3563
-276.981 671.825 -57.68
-278.495 655.715 -33.4047
-245.902 653.643 -33.4634
-243.87 669.696 -57.8252
-278.63 654.506 -30.4587
-279.183 648.863 -1.84235
-246.772 646.817 -1.8329
-246.037 652.433 -30.5174
-243.179 646.504 1.35878
-242.465 652.141 30.037
-210.144 648.52 30.0637
-211.073 642.93 1.36941
-242.289 653.346 32.9881
-240.275 669.408 57.3341
-207.316 665.671 57.3834
-209.968 649.726 33.0147
-239.959 671.64 59.5923
-237.149 695.774 75.8588
-203.137 691.878 75.9337
-207 667.904 59.6415
-236.776 698.707 77.0771
-234.213 727.371 82.8013
-198.604 723.322 82.8623
-202.764 694.811 77.1521
-233.863 730.55 82.7977
-231.73 759.264 77.1705
-194.463 755.057 77.2056
-198.253 726.501 82.8586
-231.43 762.197 75.9483
-229.646 786.536 59.6829
-191.022 782.203 59.7152
-194.162 757.991 75.9834
-229.413 788.775 57.4241
-228.112 804.992 33.0266
-188.623 800.573 33.051
-190.79 784.443 57.4564
-227.981 806.2 30.0778
-227.492 811.877 1.31259
-187.707 807.425 1.32568
-188.492 801.781 30.1021
-227.491 811.877 -1.87714
-227.963 806.185 -30.6397
-188.476 801.766 -30.638
-187.706 807.424 -1.86405
-228.093 804.975 -33.588
-229.38 788.746 -57.9777
-190.759 784.414 -57.9847
-188.605 800.556 -33.5864
-229.611 786.505 -60.2356
-231.386 762.158 -76.4894
-194.119 757.952 -76.5002
-190.99 782.173 -60.2425
-231.685 759.224 -77.7103
-233.813 730.507 -83.3239
-198.204 726.458 -83.3619
-194.419 755.018 -77.7211
-234.163 727.328 -83.3261
-236.725 698.666 -77.5886
-202.713 694.771 -77.6424
-198.554 723.279 -83.3641
-237.099 695.734 -76.3691
-239.915 671.607 -60.0928
-206.955 667.87 -60.122
-203.087 691.838 -76.4229
-240.233 669.376 -57.8332
-242.264 653.323 -33.4715
-209.94 649.701 -33.4771
-207.272 665.639 -57.8624
-242.442 652.119 -30.5192
-243.178 646.503 -1.83465
-211.072 642.929 -1.82402
-210.118 648.497 -30.5248
-207.514 642.437 1.37155
-206.584 648.027 30.0658
-174.598 642.713 30.0806
-175.769 637.18 1.3833
-206.358 649.222 33.0188
-203.706 665.168 57.3874
-171.014 659.697 57.413
-174.372 643.908 33.0336
-203.292 667.382 59.6473
-199.429 691.357 75.9395
-165.613 685.663 75.9754
-170.6 661.911 59.6729
-198.908 694.267 77.1576
-194.748 722.777 82.8678
-159.399 716.829 82.9002
-165.092 688.573 77.1936
-194.219 725.934 82.8626
-190.428 754.49 77.2096
-153.46 748.283 77.222
-158.87 719.986 82.895
-189.962 757.403 75.9859
-186.822 781.616 59.7177
-148.501 775.197 59.7278
-152.993 751.196 75.9983
-186.466 783.839 57.4585
-184.3 799.97 33.053
-145.106 793.412 33.0651
-148.145 777.42 57.4686
-184.104 801.169 30.1038
-183.319 806.813 1.32736
-143.828 800.206 1.3406
-144.911 794.611 30.1158
-183.319 806.812 -1.86282
-184.088 801.154 -30.6368
-144.896 794.597 -30.6226
-143.827 800.206 -1.84958
-184.282 799.953 -33.5856
-186.436 783.81 -57.9839
-148.116 777.392 -57.9684
-145.09 793.396 -33.5714
-186.79 781.585 -60.2422
-189.92 757.364 -76.4999
-152.952 751.158 -76.4877
-148.47 775.167 -60.2267
-190.385 754.451 -77.7224
-194.17 725.891 -83.3632
-158.822 719.944 -83.3721
-153.418 748.245 -77.7102
-194.698 722.734 -83.3672
-198.857 694.226 -77.6455
-165.041 688.532 -77.6592
-159.35 716.787 -83.3761
-199.378 691.317 -76.4263
-203.246 667.349 -60.1254
-170.552 661.877 -60.1297
-165.562 685.623 -76.44
-203.661 665.135 -57.8641
-206.33 649.197 -33.4788
-174.342 643.881 -33.4708
-170.967 659.663 -57.8685
-206.558 648.004 -30.5245
-207.512 642.435 -1.82368
-175.767 637.179 -1.81193
-174.571 642.688 -30.5164
-172.251 636.499 1.385
-171.08 642.031 30.0823
-139.5 635.014 30.0951
-140.928 629.551 1.39753
-170.8 643.213 33.0362
-167.441 659.002 57.4156
-135.112 651.789 57.4345
-139.219 636.195 33.049
-166.923 661.193 59.6762
-161.936 684.945 75.9787
-128.439 677.444 76.0012
-134.594 653.979 59.695
-161.267 687.823 77.1967
-155.574 716.079 82.9033
-120.579 708.237 82.9255
-127.77 680.322 77.2191
-154.872 719.202 82.8972
-149.462 747.5 77.2243
-112.89 739.313 77.2349
-119.877 711.361 82.9194
-148.832 750.382 75.9995
-144.339 774.383 59.729
-106.43 765.907 59.7371
-112.26 742.195 76.0101
-143.861 776.584 57.4697
-140.823 792.575 33.0661
-102.042 783.911 33.0768
-105.952 768.108 57.4778
-140.562 793.762 30.1172
-139.479 799.358 1.34192
-100.398 790.628 1.3553
-101.781 785.098 30.1278
-139.478 799.357 -1.84796
-140.548 793.748 -30.621
-101.768 785.084 -30.6051
-100.398 790.627 -1.83459
-140.807 792.559 -33.5695
-143.833 776.555 -57.9666
-105.925 768.08 -57.9488
-102.027 783.895 -33.5536
-144.31 774.353 -60.2251
-148.792 750.344 -76.486
-112.221 742.158 -76.4717
-106.401 765.878 -60.2073
-149.42 747.461 -77.7097
-154.824 719.16 -83.3717
-119.83 711.319 -83.3698
-112.85 739.275 -77.6954
-155.526 716.037 -83.3766
-161.217 687.782 -77.6598
-127.72 680.281 -77.6592
-120.532 708.195 -83.3748
-161.886 684.904 -76.4409
-166.876 661.158 -60.1306
-134.545 653.943 -60.1273
-128.389 677.403 -76.4403
-167.395 658.968 -57.8685
-170.77 643.187 -33.4708
-139.189 636.167 -33.4594
-135.065 651.754 -57.8652
-171.053 642.006 -30.5155
-172.25 636.497 -1.81096
-140.927 629.549 -1.79843
-139.472 634.987 -30.504
-137.46 628.681 1.39912
-136.032 634.144 30.0967
-104.931 625.438 30.1092
-106.627 620.058 1.41214
-135.694 635.31 33.051
-131.587 650.903 57.4365
-99.7132 641.959 57.4521
-104.593 626.603 33.0636
-130.96 653.064 59.6974
-124.806 676.529 76.0035
-91.7427 667.23 76.0205
-99.0865 644.119 59.713
-123.989 679.367 77.2213
-116.798 707.283 82.9276
-82.2594 697.561 82.9449
-90.9256 670.069 77.2383
-115.927 710.363 82.9211
-108.94 738.315 77.2367
-72.8645 728.165 77.2475
-81.3881 700.642 82.9383
-108.15 741.158 76.0113
-102.319 764.87 59.7382
-64.9302 754.358 59.7471
-72.0748 731.008 76.0221
-101.72 767.041 57.4788
-97.8101 782.844 33.0778
-59.5573 772.095 33.0888
-64.3306 756.529 57.4877
-97.4851 784.015 30.1291
-96.1021 789.545 1.35661
-57.5508 778.713 1.37006
-59.2324 773.266 30.1401
-96.1014 789.544 -1.83293
-97.4718 784.001 -30.6035
-59.22 773.252 -30.5878
-57.5501 778.713 -1.81948
-97.7954 782.829 -33.5517
-101.693 767.014 -57.9469
-64.3051 756.502 -57.9297
-59.5436 772.08 -33.536
-102.291 764.841 -60.2055
-108.111 741.121 -76.4699
-72.0371 730.971 -76.4554
-64.9034 754.33 -60.1883
-108.9 738.277 -77.6943
-115.88 710.321 -83.3688
-81.3424 700.6 -83.3615
-72.8258 728.128 -77.6798
-116.75 707.241 -83.3743
-123.939 679.326 -77.6588
-90.8764 670.027 -77.6522
-82.2132 697.519 -83.3671
-124.756 676.488 -76.4401
-130.912 653.028 -60.1271
-99.038 644.083 -60.12
-91.6933 667.189 -76.4335
-131.54 650.868 -57.8646
-135.664 635.281 -33.4588
-104.562 626.572 -33.4463
-99.6656 641.923 -57.8575
-136.004 634.117 -30.5028
-137.459 628.68 -1.79723
-106.625 620.056 -1.78421
-104.903 625.408 -30.4903
-103.217 619.003 1.41369
-101.521 624.383 30.1108
-70.9763 614.011 30.1233
-72.9445 608.728 1.42703
-101.125 625.529 33.0653
-96.2449 640.885 57.4539
-64.9179 630.232 57.4673
-70.58 615.157 33.0779
-95.5084 643.009 59.7149
-88.1646 666.12 76.0223
-55.6432 655.044 76.0367
-64.1814 632.357 59.7282
-87.1997 668.911 77.24
-78.5335 696.403 82.9466
-44.5575 684.825 82.9602
-54.6784 657.835 77.2544
-77.4965 699.432 82.9398
-68.9729 726.955 77.249
-33.498 714.867 77.2591
-43.5205 687.853 82.9534
-68.0269 729.75 76.0232
-60.8823 753.1 59.7482
-24.1219 740.579 59.7576
-32.552 717.662 76.0333
-60.1633 755.235 57.4888
-55.39 770.801 33.0899
-17.7791 757.994 33.1012
-23.4029 742.714 57.4982
-55.0012 771.952 30.1415
-53.3196 777.4 1.37141
-15.4131 764.494 1.38489
-17.3903 759.146 30.1527
-53.3189 777.399 -1.81784
-54.9888 771.939 -30.5861
-17.3788 759.133 -30.5706
-15.4125 764.494 -1.80436
-55.3763 770.786 -33.5342
-60.1379 755.208 -57.9278
-23.3789 742.688 -57.911
-17.7663 757.98 -33.5187
-60.8556 753.072 -60.1866
-67.9894 729.714 -76.4537
-32.516 717.626 -76.4382
-24.0966 740.552 -60.1697
-68.9343 726.918 -77.6785
-77.4509 699.39 -83.3602
-43.4763 687.811 -83.3491
-33.4609 714.83 -77.6631
-78.4874 696.361 -83.3661
-87.1505 668.869 -77.6513
-54.6302 657.793 -77.6417
-44.5127 684.783 -83.355
-88.1153 666.079 -76.4328
-95.4599 642.972 -60.1192
-64.1333 632.318 -60.1095
-55.5949 655.002 -76.4232
-96.1973 640.848 -57.8566
-101.094 625.498 -33.4454
-70.5501 615.124 -33.4323
-64.8707 630.194 -57.8469
-101.493 624.353 -30.489
-103.215 619.001 -1.78288
-72.9431 608.727 -1.76953
-70.9489 613.979 -30.4759
-69.6012 607.491 1.42856
-67.6329 612.773 30.1248
-37.7247 600.765 30.1373
-39.9662 595.595 1.44209
-67.1778 613.897 33.0794
-61.5156 628.972 57.4688
-30.826 616.639 57.4809
-37.2695 601.888 33.0919
-60.6693 631.054 59.7298
-52.1311 653.742 76.0382
-20.2584 640.919 76.0509
-29.9797 618.721 59.7418
-51.0198 656.477 77.2558
-40.8989 683.466 82.9617
-7.59559 670.062 82.9735
-19.1471 643.654 77.2685
-39.6995 686.434 82.9547
-29.677 713.448 77.2604
5.08835 699.454 77.27
-6.39623 673.029 82.9665
-28.5785 716.187 76.0344
-20.1484 739.104 59.7587
15.8737 724.607 59.7683
6.18693 702.192 76.0441
-19.3123 741.196 57.4993
-13.6885 756.476 33.1023
23.169 741.646 33.1138
16.7098 726.699 57.5089
-13.2369 757.605 30.1541
-11.2597 762.953 1.38626
25.8883 748.008 1.39975
23.6206 742.775 30.1656
-11.2591 762.952 -1.80274
-13.2254 757.592 -30.569
23.6313 742.763 -30.5537
25.8889 748.007 -1.78925
-13.6758 756.462 -33.5169
-19.2884 741.17 -57.9092
16.7324 726.674 -57.8925
23.1809 741.633 -33.5016
-20.1232 739.077 -60.1679
-28.5426 716.15 -76.4364
6.22129 702.156 -76.4204
15.8976 724.581 -60.1512
-29.6402 713.411 -77.6615
-39.6555 686.392 -83.3476
-6.35377 672.987 -83.3345
5.12369 699.417 -77.6455
-40.8543 683.425 -83.3537
-50.9717 656.435 -77.6404
-19.1003 643.611 -77.629
-7.55254 670.02 -83.3407
-52.0829 653.7 -76.4222
-60.6213 631.016 -60.1084
-29.9327 618.681 -60.0971
-20.2114 640.876 -76.4107
-61.4685 628.934 -57.8457
-67.148 613.863 -33.4311
-37.2411 601.852 -33.4176
-30.7799 616.599 -57.8344
-67.6056 612.741 -30.4745
-69.5997 607.489 -1.76812
-39.9647 595.593 -1.75459
-37.6987 600.731 -30.461
-36.6979 594.178 1.44359
-34.4565 599.348 30.1388
-5.26529 585.736 30.1512
-7.77786 580.694 1.45714
-33.9427 600.446 33.0934
-27.4992 615.196 57.4823
2.46556 601.215 57.4937
-4.7515 586.834 33.1057
-26.544 617.23 59.7432
-16.8227 639.428 76.0523
14.3096 624.891 76.0636
3.42076 603.249 59.7546
-15.5672 642.099 77.2698
-4.01566 668.507 82.9749
28.5189 653.309 82.9863
15.5652 627.562 77.2812
-2.65747 671.405 82.9677
8.8271 697.83 77.2712
42.7856 681.965 77.2808
29.8771 656.207 82.9791
10.0744 700.503 76.0452
19.7612 722.918 59.7694
54.9412 706.484 59.779
44.0329 684.639 76.0548
20.7115 724.961 57.5101
27.1708 739.908 33.115
63.1649 723.096 33.1265
55.8915 708.527 57.5198
27.6839 741.01 30.167
29.9516 746.243 1.40113
66.2298 729.299 1.41451
63.6781 724.198 30.1784
29.9521 746.243 -1.78765
27.6946 740.998 -30.5521
63.688 724.186 -30.537
66.2303 729.299 -1.77428
27.1826 739.894 -33.4998
20.7341 724.935 -57.8907
55.9128 708.502 -57.8743
63.176 723.082 -33.4847
19.7849 722.892 -60.1494
10.1086 700.467 -76.4187
44.0656 684.603 -76.4029
54.9637 706.458 -60.133
8.86226 697.793 -77.6439
-2.61519 671.363 -83.3329
29.9177 656.165 -83.3195
42.8192 681.928 -77.6281
-3.97277 668.465 -83.3393
-15.5205 642.057 -77.6276
15.6103 627.519 -77.6148
28.5601 653.267 -83.3259
-16.7759 639.385 -76.4095
-26.4971 617.19 -60.0959
3.4663 603.208 -60.084
14.355 624.848 -76.3968
-27.4532 615.156 -57.8331
-33.9145 600.41 -33.4164
-4.7252 586.796 -33.4028
2.51016 601.175 -57.8213
-34.4306 599.314 -30.4595
-36.6966 594.176 -1.75314
-7.77653 580.692 -1.73959
-5.24134 585.7 -30.446
-4.5936 579.102 1.45861
-2.08103 584.144 30.1527
26.3126 568.968 30.1651
23.5332 564.069 1.47207
-1.50942 585.213 33.1071
5.70764 599.594 57.4951
34.8613 584.006 57.506
26.8842 570.037 33.1195
6.77006 601.574 59.7559
17.6589 623.215 76.0649
47.9574 607.006 76.0751
35.9237 585.986 59.7668
19.0559 625.815 77.2824
32.0096 651.562 82.9875
63.6769 634.614 82.9978
49.3543 609.605 77.2925
33.5227 654.382 82.9803
46.4313 680.139 77.2819
79.4819 662.448 77.291
65.19 637.434 82.9905
47.8231 682.741 76.0559
58.7314 704.586 59.7801
92.9656 686.261 59.7896
80.8737 665.05 76.065
59.7927 706.573 57.5209
67.0661 721.143 33.1276
102.09 702.396 33.1388
94.0269 688.248 57.5304
67.6391 722.215 30.1798
70.1909 727.316 1.41587
105.491 708.422 1.42901
102.663 703.468 30.191
70.1914 727.315 -1.77271
67.6491 722.203 -30.5354
102.673 703.456 -30.5205
105.492 708.421 -1.75957
67.0771 721.129 -33.483
59.8139 706.548 -57.8726
94.047 688.224 -57.8562
102.101 702.383 -33.468
58.7537 704.56 -60.1313
47.8556 682.705 -76.4011
80.9046 665.014 -76.3849
92.9868 686.236 -60.1149
46.4647 680.103 -77.6265
33.5631 654.34 -83.3178
65.2287 637.392 -83.3037
79.5137 662.412 -77.6103
32.0506 651.52 -83.3244
19.1008 625.772 -77.6134
49.3975 609.562 -77.5997
63.7162 634.572 -83.3102
17.7041 623.172 -76.3954
6.81542 601.533 -60.0827
35.9673 585.944 -60.0703
48.0007 606.962 -76.3818
5.75203 599.553 -57.8199
-1.48333 585.175 -33.4015
26.9079 569.997 -33.3881
34.9039 583.964 -57.8075
-2.0572 584.108 -30.4445
-4.5924 579.1 -1.73813
23.5344 564.067 -1.72468
26.3341 568.931 -30.4311
26.6247 562.307 1.47349
29.4041 567.206 30.1665
56.9204 550.509 30.1781
53.8802 545.768 1.48635
30.0324 568.242 33.1208
38.0095 582.211 57.5073
66.2674 565.06 57.5168
57.5486 551.545 33.1324
39.1767 584.13 59.7679
51.2104 605.15 76.0762
80.5837 587.314 76.0848
67.4347 566.979 59.7774
52.7453 607.67 77.2936
67.0679 632.679 82.9988
97.7716 614.029 83.0076
82.1187 589.834 77.3022
68.7316 635.412 82.9915
83.0234 660.427 77.292
115.067 640.96 77.3
99.4352 616.763 83.0003
84.5553 662.948 76.066
96.6472 684.16 59.7906
129.834 663.997 59.7993
116.599 643.481 76.074
97.816 686.085 57.5315
105.879 700.233 33.14
139.831 679.605 33.1506
131.003 665.923 57.5402
106.511 701.272 30.1923
109.339 706.226 1.43034
143.557 685.436 1.44322
140.462 680.645 30.203
109.339 706.225 -1.75802
106.52 701.26 -30.5189
140.47 680.633 -30.504
143.558 685.435 -1.74515
105.89 700.22 -33.4663
97.836 686.061 -57.8545
131.022 665.899 -57.8382
139.84 679.593 -33.4514
96.6682 684.134 -60.1131
84.5861 662.913 -76.3831
116.628 643.447 -76.3666
129.854 663.972 -60.0968
83.0551 660.391 -77.6086
68.77 635.371 -83.3019
99.4717 616.721 -83.2868
115.097 640.924 -77.5921
67.107 632.637 -83.3086
52.7882 607.627 -77.5981
82.1595 589.791 -77.5837
97.8086 613.987 -83.2935
51.2535 605.107 -76.3804
39.2201 584.088 -60.0688
67.4759 566.937 -60.0562
80.6247 587.271 -76.3659
38.0518 582.169 -57.8062
30.0558 568.202 -33.3867
57.5692 551.504 -33.3738
66.3076 565.018 -57.7936
29.4254 567.168 -30.4297
26.6258 562.305 -1.72324
53.8812 545.766 -1.71038
56.9388 550.47 -30.4168
56.8702 543.841 1.48772
59.9104 548.582 30.1794
86.4716 530.414 30.1908
83.1782 525.845 1.50051
60.5938 549.582 33.1336
69.3125 563.097 57.5179
96.5929 544.434 57.5265
87.155 531.414 33.1449
70.5818 564.949 59.7784
83.7308 585.285 76.0858
112.091 565.875 76.093
97.8621 546.287 59.787
85.3997 587.717 77.3031
101.053 611.912 83.0085
130.699 591.617 83.016
113.76 568.308 77.3103
102.862 614.551 83.0012
118.493 638.748 77.3009
149.433 617.564 77.3084
132.509 594.255 83.0087
120.161 641.182 76.0749
133.397 661.698 59.8002
165.439 639.756 59.8084
151.1 619.997 76.0823
134.669 663.556 57.5413
143.496 677.239 33.1517
176.274 654.792 33.1618
166.711 641.614 57.5495
144.183 678.242 30.2043
147.279 683.033 1.44451
180.314 660.409 1.45716
176.961 655.795 30.2144
147.279 683.033 -1.74361
144.192 678.231 -30.5025
176.97 655.784 -30.4874
180.315 660.409 -1.73096
143.506 677.227 -33.4497
134.688 663.533 -57.8364
166.729 641.591 -57.82
176.283 654.779 -33.4346
133.416 661.673 -60.0949
120.189 641.147 -76.3648
151.127 619.963 -76.3482
165.457 639.731 -60.0785
118.523 638.713 -77.5903
102.898 614.51 -83.285
132.543 594.214 -83.269
149.461 617.528 -77.5737
101.089 611.871 -83.2918
85.4403 587.674 -77.582
113.799 568.264 -77.5663
130.734 591.575 -83.2758
83.7716 585.241 -76.3644
70.6227 564.907 -60.0547
97.9007 546.243 -60.0413
112.13 565.831 -76.3487
69.3525 563.054 -57.7921
60.6141 549.54 -33.3724
87.1723 531.371 -33.3593
96.6304 544.391 -57.7788
59.9287 548.542 -30.4154
56.8711 543.838 -1.70896
83.1791 525.843 -1.69617
86.4869 530.373 -30.4023
86.0586 523.758 1.50191
89.352 528.327 30.1922
114.886 508.746 30.2049
111.348 504.364 1.51477
90.0887 529.288 33.1461
99.5266 542.308 57.5278
125.754 522.193 57.5384
115.623 509.708 33.1589
100.894 544.089 59.7879
115.123 563.677 76.094
142.391 542.758 76.1016
127.122 523.973 59.7986
116.921 566.016 77.3111
133.861 589.324 83.0168
162.365 567.448 83.0236
144.189 545.096 77.3187
135.811 591.861 83.0095
152.735 615.169 77.3091
182.482 592.333 77.3154
164.315 569.984 83.0162
154.532 617.507 76.0831
168.871 637.266 59.8092
199.675 613.612 59.8157
184.279 594.671 76.0894
170.243 639.052 57.5505
179.806 652.229 33.1627
211.315 628.028 33.1713
201.047 615.398 57.5569
180.547 653.193 30.2156
183.9 657.807 1.45838
215.656 633.415 1.47072
212.056 628.992 30.2242
183.9 657.807 -1.7294
180.555 653.182 -30.4859
212.064 628.982 -30.4699
215.657 633.415 -1.71706
179.815 652.217 -33.4328
170.26 639.029 -57.8182
201.064 615.375 -57.8003
211.324 628.017 -33.4169
168.889 637.242 -60.0766
154.559 617.473 -76.3463
184.305 594.638 -76.3286
199.692 613.588 -60.0587
152.763 615.134 -77.5718
135.845 591.819 -83.2671
164.347 569.944 -83.2507
182.508 592.298 -77.5542
133.895 589.283 -83.274
116.96 565.972 -77.5646
144.225 545.053 -77.5496
162.398 567.407 -83.2576
115.162 563.633 -76.3472
100.933 544.045 -60.0398
127.158 523.93 -60.0282
142.427 542.714 -76.3322
99.5638 542.265 -57.7774
90.1057 529.245 -33.3579
115.636 509.664 -33.3461
125.789 522.149 -57.7658
89.3671 528.286 -30.4009
86.0593 523.756 -1.69477
111.349 504.362 -1.68192
114.898 508.705 -30.389
114.111 502.123 1.51617
117.648 506.506 30.2063
142.079 485.566 30.2186
138.306 481.385 1.52829
118.436 507.425 33.1602
128.568 519.911 57.5397
153.665 498.398 57.5498
142.867 486.486 33.1724
130.031 521.614 59.7995
145.3 540.398 76.1025
171.394 518.027 76.1063
155.128 500.102 59.8095
147.222 542.636 77.3192
165.398 564.988 83.024
192.672 541.593 83.0219
173.316 520.265 77.323
167.482 567.414 83.0165
185.649 589.762 77.3156
214.108 565.336 77.3129
194.757 544.019 83.0144
187.571 591.998 76.0897
202.966 610.938 59.8159
232.433 585.633 59.8149
216.03 567.573 76.0869
204.434 612.646 57.5574
214.702 625.277 33.1718
244.839 599.382 33.1757
233.9 587.34 57.5564
215.494 626.198 30.2252
219.094 630.621 1.47174
249.466 604.519 1.48363
245.631 600.303 30.2291
219.095 630.62 -1.71539
215.502 626.188 -30.4682
245.638 600.293 -30.4485
249.466 604.519 -1.7035
214.711 625.265 -33.4147
204.45 612.624 -57.7981
233.915 587.319 -57.7739
244.847 599.371 -33.3949
202.984 610.915 -60.0563
187.596 591.965 -76.3263
216.053 567.54 -76.301
232.449 585.61 -60.0322
185.675 589.728 -77.5518
167.514 567.373 -83.2484
194.786 543.98 -83.2241
214.132 565.303 -77.5265
165.43 564.947 -83.2556
147.258 542.592 -77.5475
173.349 520.222 -77.5298
192.702 541.553 -83.2312
145.336 540.355 -76.3307
130.066 521.571 -60.0267
155.161 500.058 -60.016
171.428 517.984 -76.3129
128.602 519.867 -57.7646
118.45 507.382 -33.3449
142.877 486.442 -33.3341
153.697 498.355 -57.754
117.66 506.464 -30.3877
114.111 502.121 -1.68061
138.307 481.383 -1.66849
142.087 485.525 -30.3769
140.942 478.997 1.52952
144.715 483.179 30.2198
167.963 460.934 30.2274
163.962 456.963 1.54112
145.553 484.054 33.1732
156.351 495.966 57.5505
180.243 473.118 57.547
168.801 461.809 33.1808
157.904 497.588 59.8091
174.171 515.514 76.1059
199.021 491.763 76.0816
181.797 474.74 59.8056
176.21 517.643 77.3206
195.566 538.972 83.0195
221.517 514.117 82.9566
201.06 493.893 77.2963
197.778 541.279 83.0104
217.129 562.596 77.3089
244.183 536.619 77.2327
223.728 516.424 82.9474
219.168 564.721 76.0829
235.571 582.782 59.8109
263.56 555.847 59.7469
246.222 538.745 76.0068
237.128 584.404 57.5538
248.067 596.446 33.1731
276.681 568.871 33.1416
265.118 557.47 57.4898
248.907 597.321 30.2289
252.742 601.537 1.48351
281.574 573.738 1.49497
277.521 569.747 30.1975
252.742 601.537 -1.70079
248.915 597.311 -30.4458
277.528 569.737 -30.3915
281.575 573.738 -1.68933
248.075 596.435 -33.3898
237.143 584.383 -57.7688
265.132 557.449 -57.6824
276.688 568.86 -33.3355
235.587 582.759 -60.0257
219.191 564.689 -76.2945
246.244 538.714 -76.1962
263.575 555.826 -59.9392
217.153 562.562 -77.5201
197.807 541.239 -83.2176
223.755 516.385 -83.1333
244.205 536.587 -77.4218
195.596 538.932 -83.2265
176.243 517.6 -77.525
201.091 493.85 -77.4799
221.545 514.078 -83.1421
174.204 515.471 -76.3102
157.937 497.545 -60.0133
181.826 474.697 -59.9898
199.051 491.721 -76.2651
156.382 495.923 -57.7524
145.562 484.01 -33.3325
168.807 461.766 -33.3179
180.272 473.075 -57.7288
144.723 483.137 -30.3755
140.942 478.995 -1.66714
163.963 456.961 -1.65554
167.967 460.892 -30.361
166.463 454.433 1.54216
170.464 458.405 30.2284
192.445 434.905 30.2352
188.228 431.157 1.55328
171.349 459.233 33.181
182.791 470.542 57.5472
205.386 446.403 57.5424
193.33 435.734 33.1878
184.432 472.077 59.8042
201.656 489.1 76.0801
225.174 463.99 76.055
207.027 447.938 59.7994
203.809 491.114 77.2915
224.265 511.338 82.9519
248.849 485.039 82.8916
227.326 466.004 77.2664
226.597 513.517 82.9398
247.051 533.712 77.2251
272.69 506.22 77.1526
251.18 487.218 82.8795
249.201 535.719 75.9991
266.539 552.821 59.7393
293.072 524.312 59.6788
274.84 508.227 75.9266
268.181 554.353 57.4846
279.744 565.754 33.1364
306.872 536.566 33.1069
294.714 525.843 57.4242
280.63 566.58 30.1964
284.683 570.572 1.49388
312.02 541.146 1.50493
307.758 537.392 30.1669
284.684 570.571 -1.68574
280.637 566.571 -30.3879
307.765 537.383 -30.3364
312.02 541.146 -1.67469
279.751 565.744 -33.3278
268.195 554.332 -57.6747
294.726 525.824 -57.5926
306.879 536.556 -33.2764
266.554 552.8 -59.9291
249.222 535.688 -76.1861
274.86 508.196 -76.0925
293.086 524.292 -59.8471
247.073 533.68 -77.4119
226.624 513.479 -83.1233
251.205 487.18 -83.0424
272.711 506.189 -77.3182
224.293 511.299 -83.1351
203.839 491.072 -77.4729
227.354 465.963 -77.4278
248.874 485.001 -83.0542
201.687 489.058 -76.2615
184.462 472.034 -59.9861
207.053 447.896 -59.962
225.202 463.949 -76.2164
182.819 470.499 -57.7267
171.354 459.19 -33.3158
193.332 435.691 -33.3014
205.41 446.361 -57.7026
170.468 458.363 -30.3596
166.463 454.431 -1.65411
188.228 431.155 -1.64299
192.446 434.864 -30.3452
190.584 428.493 1.55433
194.801 432.241 30.2363
215.44 407.546 30.2456
211.022 404.036 1.56486
195.731 433.02 33.1883
207.786 443.689 57.5429
228.995 418.316 57.5485
216.37 408.326 33.1976
209.51 445.131 59.7987
227.658 461.183 76.0543
249.723 434.783 76.0542
230.718 419.758 59.8042
229.918 463.074 77.264
251.44 482.109 82.8891
274.523 454.486 82.888
251.983 436.673 77.2639
253.887 484.154 82.8758
275.397 503.156 77.1489
299.498 474.307 77.15
276.97 456.531 82.8747
277.653 505.038 75.923
295.885 521.124 59.6752
320.85 491.231 59.6786
301.754 476.19 75.924
297.608 522.56 57.4219
309.766 533.283 33.1046
335.305 502.691 33.1106
322.572 492.667 57.4253
310.696 534.057 30.1668
314.958 537.812 1.50487
340.697 506.976 1.51529
336.235 503.466 30.1728
314.958 537.811 -1.67225
310.702 534.049 -30.334
336.241 503.458 -30.3192
340.697 506.975 -1.66183
309.773 533.273 -33.2717
297.62 522.541 -57.588
322.584 492.649 -57.571
335.312 502.682 -33.257
295.899 521.104 -59.8412
277.672 505.008 -76.0866
301.772 476.161 -76.0676
320.862 491.212 -59.8242
275.417 503.125 -77.3122
253.911 484.116 -83.0365
276.992 456.495 -83.0159
299.516 474.277 -77.2933
251.465 482.071 -83.0496
229.945 463.033 -77.4232
252.008 436.634 -77.4041
274.546 454.45 -83.029
227.685 461.142 -76.2135
209.536 445.089 -59.9591
230.741 419.717 -59.9463
249.748 434.744 -76.1945
207.811 443.647 -57.7008
195.733 432.977 -33.2997
216.368 408.283 -33.2889
229.016 418.275 -57.688
194.802 432.199 -30.3439
190.584 428.49 -1.64169
211.021 404.034 -1.63116
215.437 407.506 -30.333
213.226 401.243 1.56592
217.645 404.754 30.2467
236.881 378.94 30.2555
232.275 375.677 1.57575
218.616 405.481 33.1984
231.241 415.471 57.5493
251.007 388.949 57.5549
237.852 379.667 33.2072
233.041 416.816 59.8046
252.046 431.841 76.0545
272.61 404.251 76.0574
252.808 390.294 59.8102
254.407 433.604 77.264
276.947 451.416 82.8882
298.458 422.556 82.8927
274.97 406.014 77.2669
279.503 453.323 82.875
302.031 471.098 77.1503
324.494 440.96 77.1575
301.014 424.462 82.8796
304.388 472.853 75.9246
323.484 487.894 59.6791
346.757 456.665 59.6878
326.851 442.714 75.9318
325.283 489.231 57.426
338.016 499.256 33.1113
361.829 467.299 33.1204
348.557 458.002 57.4346
338.988 499.977 30.1737
343.45 503.487 1.51626
367.451 471.275 1.52605
362.8 468.02 30.1828
343.45 503.486 -1.66057
338.993 499.969 -30.318
362.806 468.013 -30.3076
367.451 471.274 -1.65078
338.023 499.247 -33.2555
325.295 489.213 -57.5695
348.567 457.985 -57.559
361.835 467.29 -33.2452
323.496 487.875 -59.8225
304.405 472.824 -76.066
326.867 442.687 -76.0544
346.768 456.647 -59.812
302.049 471.069 -77.2915
279.525 453.287 -83.0141
301.035 424.428 -83.0004
324.511 440.932 -77.2799
276.969 451.38 -83.0271
254.431 433.565 -77.4022
274.992 405.976 -77.3873
298.479 422.521 -83.0134
252.07 431.802 -76.1928
233.064 416.776 -59.9447
252.828 390.255 -59.9331
272.632 404.213 -76.1779
231.262 415.43 -57.6868
218.613 405.439 -33.2876
237.846 379.626 -33.2776
251.026 388.91 -57.6752
217.641 404.714 -30.3319
213.226 401.241 -1.63001
232.275 375.675 -1.62018
236.874 378.901 -30.3219
234.321 372.765 1.57673
238.927 376.028 30.2564
256.705 349.171 30.2645
251.926 346.165 1.58587
239.937 376.7 33.2079
253.092 385.983 57.5556
271.359 358.395 57.5602
257.715 349.844 33.216
254.964 387.227 59.8106
274.766 401.184 76.0577
293.766 372.492 76.0595
273.231 359.639 59.8152
277.22 402.814 77.2672
300.707 419.356 82.8931
320.582 389.349 82.8965
296.22 374.122 77.269
303.365 421.118 82.8802
326.845 437.616 77.1581
347.6 406.28 77.1646
323.24 391.111 82.8836
329.296 439.236 75.9326
349.202 453.187 59.6886
370.708 420.714 59.697
350.051 407.9 75.9391
351.074 454.422 57.4356
364.346 463.718 33.1214
386.352 430.486 33.1302
372.579 421.948 57.444
365.356 464.384 30.1838
370.007 467.639 1.52707
392.187 434.141 1.53623
387.362 431.152 30.1927
370.007 467.638 -1.6497
365.361 464.377 -30.3065
387.367 431.145 -30.2972
392.187 434.141 -1.64053
364.352 463.71 -33.244
351.084 454.405 -57.5579
372.589 421.933 -57.5484
386.357 430.478 -33.2347
349.213 453.169 -59.8108
329.312 439.209 -76.0532
350.065 407.875 -76.0423
370.718 420.697 -59.8013
326.861 437.588 -77.2785
303.385 421.084 -82.999
323.258 391.079 -82.9853
347.615 406.254 -77.2676
300.728 419.322 -83.0118
277.241 402.777 -77.3857
296.24 374.087 -77.371
320.6 389.316 -82.9981
274.787 401.146 -76.1764
254.983 387.188 -59.9316
273.248 359.603 -59.9201
293.786 372.456 -76.1617
253.11 385.944 -57.674
239.931 376.66 -33.2764
257.705 349.805 -33.267
271.375 358.358 -57.6625
238.92 375.989 -30.3208
234.321 372.763 -1.61909
251.925 346.163 -1.60995
256.694 349.135 -30.3114
253.808 343.142 1.58674
258.587 346.148 30.2654
274.853 318.328 30.2726
269.915 315.584 1.59501
259.632 346.765 33.2165
273.277 355.316 57.5607
289.989 326.746 57.5639
275.898 318.945 33.2237
275.213 356.457 59.8153
295.749 369.309 76.0597
313.129 339.607 76.0597
291.926 327.887 59.8185
298.289 370.803 77.2691
322.65 386.03 82.8967
340.827 354.971 82.8982
315.669 341.1 77.2692
325.401 387.642 82.8841
349.761 402.811 77.165
368.745 370.375 77.1704
343.579 356.584 82.8856
352.299 404.292 75.9399
372.956 417.106 59.6977
392.628 383.488 59.7055
371.282 371.856 75.9452
374.894 418.233 57.4449
388.666 426.771 33.1311
408.796 392.365 33.1394
394.566 384.615 57.4526
389.712 427.379 30.1937
394.537 430.368 1.53719
414.827 395.687 1.5456
409.842 392.973 30.202
394.537 430.368 -1.63955
389.717 427.372 -30.2962
409.847 392.967 -30.2879
414.827 395.687 -1.63114
388.671 426.763 -33.2337
374.903 418.218 -57.5474
394.575 384.602 -57.5388
408.801 392.358 -33.2253
372.966 417.09 -59.8002
352.313 404.267 -76.0411
371.296 371.833 -76.0305
392.637 383.473 -59.7916
349.776 402.785 -77.2662
325.419 387.61 -82.984
343.595 356.554 -82.9699
368.759 370.351 -77.2556
322.668 385.997 -82.9965
298.308 370.768 -77.3693
315.686 341.067 -77.3543
340.844 354.941 -82.9825
295.768 369.274 -76.1601
275.23 356.42 -59.9186
291.94 327.853 -59.9073
313.146 339.573 -76.1451
273.292 355.279 -57.6613
259.622 346.727 -33.2658
275.885 318.909 -33.2572
290.001 326.712 -57.6499
258.576 346.112 -30.3104
253.807 343.14 -1.60893
269.914 315.583 -1.60066
274.839 318.294 -30.3018
271.627 312.459 1.59576
276.565 315.203 30.2734
291.27 286.499 30.2797
286.19 284.022 1.60318
277.642 315.763 33.2241
291.733 323.564 57.5643
306.841 294.099 57.5658
292.347 287.059 33.2305
293.729 324.599 59.8185
314.933 336.318 76.0597
330.64 305.698 76.0577
308.836 295.133 59.82
317.55 337.672 77.2691
342.708 351.543 82.8981
359.134 319.533 82.8977
333.258 307.052 77.2672
345.544 353.001 82.8859
370.71 366.793 77.1707
387.866 333.359 77.175
361.97 320.991 82.8854
373.327 368.129 75.9458
394.672 379.761 59.7061
412.452 345.102 59.7135
390.483 334.695 75.9502
396.671 380.777 57.4535
410.901 388.527 33.1403
429.095 353.053 33.1481
414.45 346.118 57.4608
411.98 389.075 30.2029
416.964 391.789 1.54649
435.302 356.032 1.55413
430.173 353.601 30.2107
416.965 391.789 -1.63026
411.984 389.07 -30.287
430.178 353.597 -30.2796
435.302 356.032 -1.62262
410.906 388.521 -33.2244
396.68 380.764 -57.5379
414.459 346.106 -57.5304
429.1 353.048 -33.2171
394.682 379.746 -59.7905
373.34 368.106 -76.0294
390.495 334.673 -76.0192
412.461 345.089 -59.783
370.724 366.769 -77.2542
345.56 352.972 -82.9686
361.985 320.964 -82.9541
387.879 333.336 -77.244
342.725 351.512 -82.9808
317.567 337.639 -77.3527
333.272 307.022 -77.3371
359.149 319.505 -82.9664
314.949 336.285 -76.1435
293.743 324.565 -59.9057
308.847 295.103 -59.8941
330.655 305.668 -76.1279
291.745 323.53 -57.6487
277.629 315.727 -33.256
292.331 287.026 -33.2481
306.85 294.068 -57.6371
276.551 315.169 -30.3009
271.627 312.457 -1.59971
286.189 284.02 -1.59229
291.253 286.468 -30.293
287.727 280.803 1.60381
292.807 283.28 30.2803
305.908 253.773 30.2857
300.7 251.563 1.61035
293.913 283.782 33.2306
308.407 290.822 57.566
321.864 260.55 57.5654
307.014 254.275 33.236
310.455 291.749 59.8197
332.259 302.314 76.0574
346.247 270.876 76.0531
323.912 261.477 59.8191
334.945 303.525 77.2669
360.822 316.006 82.8974
375.449 283.148 82.8946
348.934 272.087 77.2626
363.734 317.306 82.8855
389.63 329.674 77.1751
404.909 295.345 77.1787
378.361 284.448 82.8827
392.318 330.861 75.9508
414.287 341.267 59.714
430.122 305.673 59.7213
407.596 296.532 75.9543
416.34 342.169 57.4616
430.984 349.104 33.1489
447.186 312.671 33.1564
432.174 306.575 57.4689
432.092 349.591 30.2115
437.221 352.021 1.55497
453.551 315.299 1.56187
448.294 313.158 30.219
437.221 352.021 -1.62185
432.096 349.586 -30.2789
448.298 313.155 -30.2728
453.551 315.298 -1.61495
430.989 349.099 -33.2163
416.348 342.157 -57.5296
432.183 306.565 -57.5236
447.191 312.668 -33.2102
414.296 341.255 -59.782
392.33 330.839 -76.0183
407.608 296.512 -76.0089
430.13 305.662 -59.776
389.643 329.651 -77.2426
363.749 317.279 -82.9527
378.375 284.422 -82.9374
404.921 295.324 -77.2333
360.837 315.978 -82.9646
334.96 303.495 -77.3354
348.947 272.06 -77.319
375.462 283.122 -82.9493
332.273 302.284 -76.1263
310.466 291.719 -59.8924
323.921 261.45 -59.8801
346.26 270.849 -76.1099
308.416 290.791 -57.6358
293.897 283.75 -33.2468
306.995 254.246 -33.2396
321.871 260.523 -57.6236
292.79 283.249 -30.2921
287.726 280.801 -1.5914
300.699 251.562 -1.58486
305.889 253.746 -30.2849
302.058 248.259 1.61083
307.266 250.469 30.2862
318.724 220.238 30.2904
313.404 218.292 1.6164
308.397 250.914 33.2358
323.247 257.188 57.5652
335.015 226.2 57.5616
319.855 220.683 33.24
325.341 258.008 59.8185
347.676 267.407 76.0525
359.905 235.253 76.0449
337.11 227.02 59.8148
350.424 268.473 77.262
376.939 279.534 82.894
389.725 245.934 82.8881
362.652 236.32 77.2544
379.918 280.672 82.8826
406.466 291.569 77.1786
419.825 256.451 77.182
392.705 247.071 82.8767
409.216 292.602 75.9549
431.742 301.743 59.7219
445.587 265.321 59.7296
422.575 257.483 75.9582
433.843 302.526 57.4698
448.854 308.623 33.1573
463.018 271.345 33.1645
447.687 266.105 57.4775
449.988 309.047 30.2198
455.244 311.187 1.56266
469.518 273.614 1.56865
464.151 271.769 30.227
455.245 311.187 -1.61431
449.992 309.044 -30.2721
464.156 271.767 -30.2676
469.519 273.613 -1.60831
448.859 308.62 -33.2097
433.851 302.516 -57.523
447.695 266.097 -57.5193
463.023 271.343 -33.2051
431.751 301.732 -59.7752
409.228 292.582 -76.0081
422.587 257.465 -76.0004
445.595 265.312 -59.7715
406.478 291.548 -77.2319
379.932 280.646 -82.936
392.718 247.048 -82.9194
419.837 256.432 -77.2241
376.952 279.509 -82.9475
350.437 268.446 -77.3172
362.664 236.296 -77.2993
389.738 245.91 -82.9309
347.689 267.38 -76.108
325.35 257.982 -59.8782
337.117 226.997 -59.8646
359.916 235.23 -76.0901
323.254 257.162 -57.6222
308.377 250.885 -33.2383
319.833 220.659 -33.2317
335.021 226.177 -57.6085
307.246 250.442 -30.2841
302.057 248.258 -1.58401
313.403 218.291 -1.57844
318.702 220.215 -30.2776
314.578 214.912 1.61669
319.898 216.857 30.2907
329.68 185.98 30.2931
324.264 184.29 1.62132
321.05 217.246 33.2395
336.211 222.763 57.561
346.26 191.15 57.5524
330.833 186.369 33.2419
338.345 223.477 59.8136
361.14 231.711 76.0437
371.577 198.952 76.0296
348.394 191.864 59.8049
363.94 232.631 77.2534
391.013 242.245 82.887
401.927 208.011 82.8764
374.377 199.873 77.2393
394.052 243.216 82.8764
421.171 252.595 77.1817
432.575 216.792 77.1859
404.966 208.981 82.8658
423.976 253.469 75.9588
446.988 261.307 59.7302
458.803 224.168 59.7386
435.38 217.666 75.9631
449.129 261.97 57.4784
464.46 267.21 33.1654
476.542 229.201 33.1719
460.944 224.83 57.4868
465.615 267.57 30.2278
470.982 269.414 1.56938
483.157 231.107 1.57435
477.697 229.561 30.2343
470.982 269.414 -1.60782
465.619 267.568 -30.2671
477.703 229.562 -30.2639
483.158 231.107 -1.60285
464.465 267.208 -33.2048
449.137 261.962 -57.519
460.953 224.825 -57.5181
476.548 229.202 -33.2017
446.996 261.298 -59.771
423.988 253.451 -75.9998
435.392 217.65 -75.9951
458.812 224.161 -59.77
421.183 252.577 -77.2227
394.065 243.193 -82.918
404.979 208.96 -82.8987
432.588 216.775 -77.218
391.027 242.222 -82.9288
363.952 232.608 -77.2972
374.389 199.854 -77.2744
401.941 207.989 -82.9094
361.152 231.688 -76.0878
338.352 223.455 -59.8623
348.401 191.848 -59.845
371.588 198.933 -76.065
336.217 222.741 -57.6069
321.029 217.222 -33.2301
330.81 186.35 -33.2235
346.265 191.134 -57.5897
319.876 216.835 -30.2767
314.577 214.911 -1.5776
324.262 184.289 -1.57297
329.657 185.963 -30.2701
325.251 180.842 1.62126
330.668 182.532 30.2931
338.756 151.085 30.2891
333.257 149.636 1.62499
331.839 182.866 33.2404
347.267 187.648 57.5509
355.577 155.507 57.5282
339.927 151.419 33.2364
349.433 188.259 59.8022
372.616 195.347 76.0269
381.241 162.106 75.9911
357.743 156.118 59.7795
375.461 196.122 77.2371
403.011 204.26 82.8741
412.028 169.497 82.8527
384.086 162.88 77.2013
406.098 205.058 82.865
433.708 212.869 77.1852
443.126 176.483 77.1884
415.115 170.295 82.8436
436.558 213.58 75.9636
459.981 220.081 59.7392
469.728 182.335 59.7438
445.976 177.194 75.9669
462.156 220.621 57.4874
477.753 224.992 33.1726
487.711 186.369 33.1749
471.903 182.875 57.4921
478.926 225.287 30.2348
484.386 226.833 1.57489
494.418 187.911 1.57855
488.884 186.664 30.2371
484.387 226.833 -1.60243
478.932 225.288 -30.2635
488.891 186.668 -30.2589
494.418 187.911 -1.59877
477.759 224.993 -33.2015
462.165 220.616 -57.5179
471.914 182.872 -57.516
487.718 186.373 -33.1968
459.99 220.075 -59.7697
436.57 213.564 -75.9948
445.99 177.178 -75.9916
469.739 182.331 -59.7678
433.721 212.852 -77.2164
406.112 205.037 -82.8971
415.13 170.276 -82.8691
443.141 176.467 -77.2132
403.025 204.239 -82.9063
375.473 196.103 -77.2713
384.099 162.865 -77.2284
412.042 169.477 -82.8783
372.627 195.329 -76.0614
349.44 188.243 -59.8414
357.75 156.11 -59.8113
381.253 162.091 -76.0186
347.271 187.632 -57.5873
331.816 182.849 -33.2211
339.904 151.409 -33.2096
355.582 155.498 -57.5571
330.645 182.515 -30.2691
325.25 180.841 -1.57197
333.255 149.636 -1.56824
338.733 151.075 -30.2576
334.059 146.129 1.62358
339.559 147.577 30.2877
345.994 115.647 30.2469
340.43 114.419 1.62632
340.744 147.862 33.2312
356.393 151.949 57.5229
362.991 119.39 57.4327
347.179 115.932 33.1905
358.585 152.464 59.7711
382.083 158.452 75.9827
388.904 124.862 75.8524
365.183 119.905 59.6809
384.963 159.08 77.1941
412.905 165.696 82.8455
420 130.5 82.7675
391.784 125.49 77.0638
416.03 166.316 82.8397
444.041 172.504 77.1845
451.42 135.627 77.1424
423.124 131.12 82.7617
446.924 173.047 75.9648
470.676 178.188 59.7418
478.274 139.936 59.7002
454.303 136.17 75.9227
472.876 178.604 57.4905
488.684 182.098 33.1733
496.423 142.969 33.1468
480.474 140.352 57.449
489.87 182.328 30.2367
495.404 183.575 1.57808
503.194 144.148 1.57941
497.609 143.199 30.2102
495.405 183.575 -1.59775
489.877 182.332 -30.2578
497.618 143.206 -30.2288
503.194 144.148 -1.59643
488.692 182.102 -33.1947
472.887 178.602 -57.5139
480.489 140.353 -57.4696
496.433 142.977 -33.1657
470.688 178.185 -59.7653
446.939 173.032 -75.989
454.321 136.156 -75.943
478.29 139.936 -59.7209
444.056 172.488 -77.2087
416.045 166.297 -82.8645
423.142 131.103 -82.7814
451.438 135.612 -77.1627
412.92 165.678 -82.8704
384.976 159.066 -77.2205
391.8 125.48 -77.084
420.018 130.483 -82.7873
382.096 158.438 -76.0094
358.593 152.456 -59.8021
365.195 119.906 -59.7044
388.92 124.852 -75.8729
356.399 151.942 -57.5511
340.721 147.853 -33.2035
347.159 115.933 -33.1562
363.001 119.392 -57.4533
339.536 147.568 -30.2554
334.058 146.129 -1.56605
340.429 114.418 -1.56331
345.973 115.648 -30.2081
341.075 110.868 1.61825
346.638 112.096 30.2389
351.852 79.8475 30.0029
346.284 78.8123 1.61838
347.83 112.337 33.1661
363.642 115.795 57.4083
368.863 83.0117 56.9435
353.044 80.0884 32.9302
365.844 116.221 59.6445
389.564 121.178 75.816
394.754 87.4026 75.2075
371.065 83.4382 59.1796
392.458 121.656 77.0265
420.674 126.666 82.7302
425.809 91.1027 82.1877
397.648 87.8809 76.4181
423.81 127.096 82.7287
452.106 131.603 77.1094
457.204 94.295 76.5826
428.946 91.5324 82.1862
455.001 131.975 75.8942
478.971 135.741 59.6717
484.017 97.0439 59.2483
460.099 94.6666 75.3674
481.18 136.031 57.429
497.129 138.648 33.1269
502.18 99.0714 32.8913
486.225 97.3342 57.0056
498.32 138.813 30.2028
503.906 139.762 1.57198
508.965 99.8863 1.56187
503.371 99.2362 29.9672
503.906 139.762 -1.58972
498.33 138.821 -30.2221
503.379 99.2471 -29.9978
508.966 99.8869 -1.59983
497.139 138.656 -33.1455
481.196 136.032 -57.4494
486.251 97.339 -57.0135
502.188 99.0826 -32.9212
478.988 135.74 -59.6915
455.019 131.961 -75.9136
460.125 94.6543 -75.3737
484.043 97.0472 -59.2556
452.125 131.588 -77.1288
423.829 127.079 -82.7475
428.972 91.518 -82.1957
457.231 94.2818 -76.5889
420.693 126.649 -82.7492
392.476 121.646 -77.046
397.673 87.8749 -76.4313
425.836 91.0887 -82.1974
389.581 121.169 -75.8357
365.856 116.223 -59.6672
371.086 83.452 -59.193
394.779 87.3979 -75.221
363.652 115.798 -57.4282
347.811 112.339 -33.1311
353.034 80.1048 -32.891
368.882 83.0265 -56.9541
346.618 112.098 -30.1995
341.074 110.868 -1.55475
346.283 78.8127 -1.55462
351.842 79.8634 -29.9595
346.975 75.2825 1.57472
352.544 76.3177 29.9593
359.726 44.5771 28.6516
354.417 43.6859 1.57222
353.707 76.5229 32.8065
369.526 79.4462 56.8197
375.977 47.2983 54.4242
360.888 44.7823 31.4988
371.673 79.8042 58.9947
395.362 83.7686 75.0226
400.72 51.1236 71.9393
378.124 47.6563 56.5991
398.169 84.1554 76.2026
426.33 87.3773 81.9723
430.323 54.7884 78.5577
403.526 51.5104 73.1193
429.388 87.7125 81.9779
457.647 90.4751 76.3742
460.244 57.9254 73.1199
433.381 55.1236 78.5633
460.477 90.7609 75.1931
484.395 93.1382 59.0741
485.828 60.5503 56.5874
463.073 58.2112 71.9388
486.56 93.3629 56.8907
502.514 95.1001 32.7765
503.235 62.4244 31.4367
487.993 60.7749 54.4041
503.685 95.2286 29.9263
509.279 95.8787 1.52093
509.756 63.1429 1.50834
504.406 62.5529 28.5865
509.279 95.8785 -1.56122
503.692 95.2387 -29.9592
504.402 62.5322 -28.6321
509.756 63.1427 -1.57381
502.523 95.11 -32.8062
486.586 93.3664 -56.8985
488.021 60.7553 -54.399
503.233 62.4036 -31.4792
484.423 93.141 -59.0799
460.505 90.7481 -75.198
463.104 58.1992 -71.9353
485.857 60.5298 -56.5803
457.675 90.4622 -76.3795
429.416 87.6984 -81.9863
433.412 55.114 -78.5659
460.274 57.9132 -73.1168
426.357 87.3637 -81.9813
398.194 84.1499 -76.2152
403.554 51.5113 -73.1291
430.353 54.7792 -78.5609
395.387 83.7649 -75.0357
371.694 79.819 -59.0077
378.144 47.6858 -56.6136
400.747 51.1262 -71.9495
369.546 79.4624 -56.8301
353.698 76.5407 -32.7671
360.876 44.8147 -31.4642
375.996 47.3292 -54.4361
352.534 76.3344 -29.9159
346.975 75.2838 -1.51108
354.416 43.6872 -1.51358
359.712 44.6083 -28.6131
355.275 40.2032 1.48781
360.584 41.0944 28.5672
368.611 9.89356 26.8423
363.623 9.13325 1.48178
361.685 41.2707 31.2598
376.774 43.7867 54.1852
383.879 12.2417 51.0113
369.712 10.0699 29.5349
378.805 44.0981 56.244
401.401 47.5655 71.5842
407.118 15.5993 67.4314
385.91 12.5532 53.0701
404.057 47.9245 72.7
430.853 51.2024 78.1384
434.86 19.0926 73.6249
409.774 15.9583 68.5473
433.738 51.5355 78.1377
460.6 54.3373 72.6943
462.86 22.1949 68.5026
437.745 19.4257 73.6242
463.268 54.6209 71.5738
486.023 56.9599 56.2223
486.757 24.7609 52.9605
465.528 22.4784 67.382
488.064 57.1782 54.1589
503.306 58.8276 31.1915
502.975 26.5367 29.4064
488.798 24.9791 50.897
504.411 58.9481 28.5002
509.761 59.5381 1.42197
509.048 27.1888 1.43139
504.079 26.6573 26.7151
509.76 59.5362 -1.48751
504.407 58.9257 -28.5458
504.075 26.6102 -26.7459
509.048 27.1869 -1.47809
503.304 58.8034 -31.2335
488.091 57.1551 -54.1533
488.817 24.9365 -50.8893
502.971 26.4879 -29.4335
486.052 56.9384 -56.2146
463.298 54.6077 -71.5696
465.551 22.4653 -67.3785
486.777 24.7198 -52.9507
460.63 54.3253 -72.6908
433.769 51.5261 -78.1399
437.767 19.4189 -73.6245
462.883 22.183 -68.4997
430.884 51.1938 -78.1411
404.085 47.9258 -72.7093
409.794 15.9627 -68.5522
434.882 19.0865 -73.6257
401.428 47.5691 -71.5941
378.825 44.1286 -56.2582
385.921 12.5952 -53.0814
407.138 15.606 -67.437
376.792 43.8192 -54.1975
361.672 41.3048 -31.2256
369.696 10.1184 -29.5092
383.887 12.2858 -51.0207
360.571 41.1264 -28.5295
355.275 40.2053 -1.43002
363.623 9.13536 -1.43605
368.594 9.94013 -26.813
364.672 5.88656 1.35297
369.66 6.64687 26.7135
380.241 -21.0211 23.7841
375.818 -21.6426 1.33233
370.668 6.79444 29.1721
384.835 8.96634 50.6486
393.848 -19.1145 45.273
381.249 -20.8735 26.2427
386.696 9.23076 52.5271
407.904 12.2769 66.8884
414.593 -16.3235 59.8208
395.709 -18.8501 47.1515
410.331 12.6008 67.9021
435.417 15.7351 72.9798
439.257 -13.0527 65.2247
417.021 -15.9996 60.8345
438.045 16.0624 72.9767
463.161 18.8315 67.8551
464.068 -9.79612 60.6963
441.885 -12.7254 65.2216
465.591 19.1224 66.8339
486.819 21.4049 52.4124
485.26 -7.03201 46.9555
466.498 -9.50525 59.6752
488.678 21.6273 50.5313
502.855 23.1849 29.0407
499.631 -5.16179 26.1108
487.118 -6.80962 45.0744
503.86 23.3049 26.5882
508.829 23.8364 1.30453
505.025 -4.4641 1.32561
500.636 -5.04174 23.6583
508.829 23.835 -1.3476
503.855 23.2583 -26.6154
500.635 -5.04406 -23.6591
505.025 -4.46559 -1.32652
502.851 23.1367 -29.0669
488.696 21.5853 -50.5227
487.118 -6.81345 -45.0745
499.63 -5.16565 -26.1107
486.838 21.3645 -52.4032
465.611 19.11 -66.831
466.499 -9.50731 -59.6749
485.26 -7.0343 -46.955
463.182 18.8201 -67.8523
438.066 16.056 -72.977
441.886 -12.7264 -65.2214
464.069 -9.79721 -60.6961
435.438 15.7291 -72.9802
410.35 12.6053 -67.9068
417.022 -16 -60.8344
439.258 -13.0533 -65.2246
407.922 12.2827 -66.8931
386.705 9.27188 -52.5375
395.709 -18.8489 -47.1517
414.593 -16.3226 -59.8208
384.843 9.00921 -50.6585
370.651 6.84185 -29.1469
381.248 -20.8706 -26.2423
393.847 -19.1116 -45.2726
369.643 6.6928 -26.6873
364.672 5.88803 -1.31035
375.818 -21.6411 -1.331
380.24 -21.0196 -23.7827
-385.259 673.415 25.4679
-385.584 668.262 -0.293055
-385.213 673.407 -26.0545
-384.277 688.03 -47.8365
-383.089 709.848 -62.3392
-382.03 735.543 -67.4387
-381.291 761.274 -62.3851
-380.797 783.143 -47.8754
-380.464 797.773 -26.0758
-380.346 802.915 -0.329265
-380.486 797.789 25.42
-380.829 783.17 47.2258
-381.33 761.308 61.746
-382.074 735.58 66.8135
-383.131 709.883 61.7277
-384.328 688.054 47.2413
382.635 -22.3863 1.76393e-05
387.057 -21.7648 22.4517
399.656 -20.0058 41.4821
418.54 -17.4792 54.1513
440.777 -14.5323 58.5415
462.96 -11.603 54.0162
481.721 -9.1298 41.2965
494.234 -7.48197 22.3329
498.623 -6.90434 0.000247942
494.233 -7.48281 -22.3323
481.721 -9.13061 -41.2962
462.96 -11.6036 -54.016
440.777 -14.5328 -58.5413
418.54 -17.4795 -54.1511
399.656 -20.0059 -41.482
387.057 -21.7648 -22.4517
</DataArray>
</Points>
<Cells>
<DataArray type="Int32" Name="connectivity" format="ascii">
0 1 2 3 
4 5 6 7 
8 9 10 11 
12 13 14 15 
16 17 18 19 
20 21 22 23 
24 25 26 27 
28 29 30 31 
32 33 34 35 
36 37 38 39 
40 41 42 43 
44 45 46 47 
48 49 50 51 
52 53 54 55 
56 57 58 59 
60 61 62 63 
64 65 66 67 
68 69 70 71 
72 73 74 75 
76 77 78 79 
80 81 82 83 
84 85 86 87 
88 89 90 91 
92 93 94 95 
96 97 98 99 
100 101 102 103 
104 105 106 107 
108 109 110 111 
112 113 114 115 
116 117 118 119 
120 121 122 123 
124 125 126 127 
128 129 130 131 
132 133 134 135 
136 137 138 139 
140 141 142 143 
144 145 146 147 
148 149 150 151 
152 153 154 155 
156 157 158 159 
160 161 162 163 
164 165 166 167 
168 169 170 171 
172 173 174 175 
176 177 178 179 
180 181 182 183 
184 185 186 187 
188 189 190 191 
192 193 194 195 
196 197 198 199 
200 201 202 203 
204 205 206 207 
208 209 210 211 
212 213 214 215 
216 217 218 219 
220 221 222 223 
224 225 226 227 
228 229 230 231 
232 233 234 235 
236 237 238 239 
240 241 242 243 
244 245 246 247 
248 249 250 251 
252 253 254 255 
256 257 258 259 
260 261 262 263 
264 265 266 267 
268 269 270 271 
272 273 274 275 
276 277 278 279 
280 281 282 283 
284 285 286 287 
288 289 290 291 
292 293 294 295 
296 297 298 299 
300 301 302 303 
304 305 306 307 
308 309 310 311 
312 313 314 315 
316 317 318 319 
320 321 322 323 
324 325 326 327 
328 329 330 331 
332 333 334 335 
336 337 338 339 
340 341 342 343 
344 345 346 347 
348 349 350 351 
352 353 354 355 
356 357 358 359 
360 361 362 363 
364 365 366 367 
368 369 370 371 
372 373 374 375 
376 377 378 379 
380 381 382 383 
384 385 386 387 
388 389 390 391 
392 393 394 395 
396 397 398 399 
400 401 402 403 
404 405 406 407 
408 409 410 411 
412 413 414 415 
416 417 418 419 
420 421 422 423 
424 425 426 427 
428 429 430 431 
432 433 434 435 
436 437 438 439 
440 441 442 443 
444 445 446 447 
448 449 450 451 
452 453 454 455 
456 457 458 459 
460 461 462 463 
464 465 466 467 
468 469 470 471 
472 473 474 475 
476 477 478 479 
480 481 482 483 
484 485 486 487 
488 489 490 491 
492 493 494 495 
496 497 498 499 
500 501 502 503 
504 505 506 507 
508 509 510 511 
512 513 514 515 
516 517 518 519 
520 521 522 523 
524 525 526 527 
528 529 530 531 
532 533 534 535 
536 537 538 539 
540 541 542 543 
544 545 546 547 
548 549 550 551 
552 553 554 555 
556 557 558 559 
560 561 562 563 
564 565 566 567 
568 569 570 571 
572 573 574 575 
576 577 578 579 
580 581 582 583 
584 585 586 587 
588 589 590 591 
592 593 594 595 
596 597 598 599 
600 601 602 603 
604 605 606 607 
608 609 610 611 
612 613 614 615 
616 617 618 619 
620 621 622 623 
624 625 626 627 
628 629 630 631 
632 633 634 635 
636 637 638 639 
640 641 642 643 
644 645 646 647 
648 649 650 651 
652 653 654 655 
656 657 658 659 
660 661 662 663 
664 665 666 667 
668 669 670 671 
672 673 674 675 
676 677 678 679 
680 681 682 683 
684 685 686 687 
688 689 690 691 
692 693 694 695 
696 697 698 699 
700 701 702 703 
704 705 706 707 
708 709 710 711 
712 713 714 715 
716 717 718 719 
720 721 722 723 
724 725 726 727 
728 729 730 731 
732 733 734 735 
736 737 738 739 
740 741 742 743 
744 745 746 747 
748 749 750 751 
752 753 754 755 
756 757 758 759 
760 761 762 763 
764 765 766 767 
768 769 770 771 
772 773 774 775 
776 777 778 779 
780 781 782 783 
784 785 786 787 
788 789 790 791 
792 793 794 795 
796 797 798 799 
800 801 802 803 
804 805 806 807 
808 809 810 811 
812 813 814 815 
816 817 818 819 
820 821 822 823 
824 825 826 827 
828 829 830 831 
832 833 834 835 
836 837 838 839 
840 841 842 843 
844 845 846 847 
848 849 850 851 
852 853 854 855 
856 857 858 859 
860 861 862 863 
864 865 866 867 
868 869 870 871 
872 873 874 875 
876 877 878 879 
880 881 882 883 
884 885 886 887 
888 889 890 891 
892 893 894 895 
896 897 898 899 
900 901 902 903 
904 905 906 907 
908 909 910 911 
912 913 914 915 
916 917 918 919 
920 921 922 923 
924 925 926 927 
928 929 930 931 
932 933 934 935 
936 937 938 939 
940 941 942 943 
944 945 946 947 
948 949 950 951 
952 953 954 955 
956 957 958 959 
960 961 962 963 
964 965 966 967 
968 969 970 971 
972 973 974 975 
976 977 978 979 
980 981 982 983 
984 985 986 987 
988 989 990 991 
992 993 994 995 
996 997 998 999 
1000 1001 1002 1003 
1004 1005 1006 1007 
1008 1009 1010 1011 
1012 1013 1014 1015 
1016 1017 1018 1019 
1020 1021 1022 1023 
1024 1025 1026 1027 
1028 1029 1030 1031 
1032 1033 1034 1035 
1036 1037 1038 1039 
1040 1041 1042 1043 
1044 1045 1046 1047 
1048 1049 1050 1051 
1052 1053 1054 1055 
1056 1057 1058 1059 
1060 1061 1062 1063 
1064 1065 1066 1067 
1068 1069 1070 1071 
1072 1073 1074 1075 
1076 1077 1078 1079 
1080 1081 1082 1083 
1084 1085 1086 1087 
1088 1089 1090 1091 
1092 1093 1094 1095 
1096 1097 1098 1099 
1100 1101 1102 1103 
1104 1105 1106 1107 
1108 1109 1110 1111 
1112 1113 1114 1115 
1116 1117 1118 1119 
1120 1121 1122 1123 
1124 1125 1126 1127 
1128 1129 1130 1131 
1132 1133 1134 1135 
1136 1137 1138 1139 
1140 1141 1142 1143 
1144 1145 1146 1147 
1148 1149 1150 1151 
1152 1153 1154 1155 
1156 1157 1158 1159 
1160 1161 1162 1163 
1164 1165 1166 1167 
1168 1169 1170 1171 
1172 1173 1174 1175 
1176 1177 1178 1179 
1180 1181 1182 1183 
1184 1185 1186 1187 
1188 1189 1190 1191 
1192 1193 1194 1195 
1196 1197 1198 1199 
1200 1201 1202 1203 
1204 1205 1206 1207 
1208 1209 1210 1211 
1212 1213 1214 1215 
1216 1217 1218 1219 
1220 1221 1222 1223 
1224 1225 1226 1227 
1228 1229 1230 1231 
1232 1233 1234 1235 
1236 1237 1238 1239 
1240 1241 1242 1243 
1244 1245 1246 1247 
1248 1249 1250 1251 
1252 1253 1254 1255 
1256 1257 1258 1259 
1260 1261 1262 1263 
1264 1265 1266 1267 
1268 1269 1270 1271 
1272 1273 1274 1275 
1276 1277 1278 1279 
1280 1281 1282 1283 
1284 1285 1286 1287 
1288 1289 1290 1291 
1292 1293 1294 1295 
1296 1297 1298 1299 
1300 1301 1302 1303 
1304 1305 1306 1307 
1308 1309 1310 1311 
1312 1313 1314 1315 
1316 1317 1318 1319 
1320 1321 1322 1323 
1324 1325 1326 1327 
1328 1329 1330 1331 
1332 1333 1334 1335 
1336 1337 1338 1339 
1340 1341 1342 1343 
1344 1345 1346 1347 
1348 1349 1350 1351 
1352 1353 1354 1355 
1356 1357 1358 1359 
1360 1361 1362 1363 
1364 1365 1366 1367 
1368 1369 1370 1371 
1372 1373 1374 1375 
1376 1377 1378 1379 
1380 1381 1382 1383 
1384 1385 1386 1387 
1388 1389 1390 1391 
1392 1393 1394 1395 
1396 1397 1398 1399 
1400 1401 1402 1403 
1404 1405 1406 1407 
1408 1409 1410 1411 
1412 1413 1414 1415 
1416 1417 1418 1419 
1420 1421 1422 1423 
1424 1425 1426 1427 
1428 1429 1430 1431 
1432 1433 1434 1435 
1436 1437 1438 1439 
1440 1441 1442 1443 
1444 1445 1446 1447 
1448 1449 1450 1451 
1452 1453 1454 1455 
1456 1457 1458 1459 
1460 1461 1462 1463 
1464 1465 1466 1467 
1468 1469 1470 1471 
1472 1473 1474 1475 
1476 1477 1478 1479 
1480 1481 1482 1483 
1484 1485 1486 1487 
1488 1489 1490 1491 
1492 1493 1494 1495 
1496 1497 1498 1499 
1500 1501 1502 1503 
1504 1505 1506 1507 
1508 1509 1510 1511 
1512 1513 1514 1515 
1516 1517 1518 1519 
1520 1521 1522 1523 
1524 1525 1526 1527 
1528 1529 1530 1531 
1532 1533 1534 1535 
1536 1537 1538 1539 
1540 1541 1542 1543 
1544 1545 1546 1547 
1548 1549 1550 1551 
1552 1553 1554 1555 
1556 1557 1558 1559 
1560 1561 1562 1563 
1564 1565 1566 1567 
1568 1569 1570 1571 
1572 1573 1574 1575 
1576 1577 1578 1579 
1580 1581 1582 1583 
1584 1585 1586 1587 
1588 1589 1590 1591 
1592 1593 1594 1595 
1596 1597 1598 1599 
1600 1601 1602 1603 
1604 1605 1606 1607 
1608 1609 1610 1611 
1612 1613 1614 1615 
1616 1617 1618 1619 
1620 1621 1622 1623 
1624 1625 1626 1627 
1628 1629 1630 1631 
1632 1633 1634 1635 
1636 1637 1638 1639 
1640 1641 1642 1643 
1644 1645 1646 1647 
1648 1649 1650 1651 
1652 1653 1654 1655 
1656 1657 1658 1659 
1660 1661 1662 1663 
1664 1665 1666 1667 
1668 1669 1670 1671 
1672 1673 1674 1675 
1676 1677 1678 1679 
1680 1681 1682 1683 
1684 1685 1686 1687 
1688 1689 1690 1691 
1692 1693 1694 1695 
1696 1697 1698 1699 
1700 1701 1702 1703 
1704 1705 1706 1707 
1708 1709 1710 1711 
1712 1713 1714 1715 
1716 1717 1718 1719 
1720 1721 1722 1723 
1724 1725 1726 1727 
1728 1729 1730 1731 
1732 1733 1734 1735 
1736 1737 1738 1739 
1740 1741 1742 1743 
1744 1745 1746 1747 
1748 1749 1750 1751 
1752 1753 1754 1755 
1756 1757 1758 1759 
1760 1761 1762 1763 
1764 1765 1766 1767 
1768 1769 1770 1771 
1772 1773 1774 1775 
1776 1777 1778 1779 
1780 1781 1782 1783 
1784 1785 1786 1787 
1788 1789 1790 1791 
1792 1793 1794 1795 
1796 1797 1798 1799 
1800 1801 1802 1803 
1804 1805 1806 1807 
1808 1809 1810 1811 
1812 1813 1814 1815 
1816 1817 1818 1819 
1820 1821 1822 1823 
1824 1825 1826 1827 
1828 1829 1830 1831 
1832 1833 1834 1835 
1836 1837 1838 1839 
1840 1841 1842 1843 
1844 1845 1846 1847 
1848 1849 1850 1851 
1852 1853 1854 1855 
1856 1857 1858 1859 
1860 1861 1862 1863 
1864 1865 1866 1867 
1868 1869 1870 1871 
1872 1873 1874 1875 
1876 1877 1878 1879 
1880 1881 1882 1883 
1884 1885 1886 1887 
1888 1889 1890 1891 
1892 1893 1894 1895 
1896 1897 1898 1899 
1900 1901 1902 1903 
1904 1905 1906 1907 
1908 1909 1910 1911 
1912 1913 1914 1915 
1916 1917 1918 1919 
1920 1921 1922 1923 
1924 1925 1926 1927 
1928 1929 1930 1931 
1932 1933 1934 1935 
1936 1937 1938 1939 
1940 1941 1942 1943 
1944 1945 1946 1947 
1948 1949 1950 1951 
1952 1953 1954 1955 
1956 1957 1958 1959 
1960 1961 1962 1963 
1964 1965 1966 1967 
1968 1969 1970 1971 
1972 1973 1974 1975 
1976 1977 1978 1979 
1980 1981 1982 1983 
1984 1985 1986 1987 
1988 1989 1990 1991 
1992 1993 1994 1995 
1996 1997 1998 1999 
2000 2001 2002 2003 
2004 2005 2006 2007 
2008 2009 2010 2011 
2012 2013 2014 2015 
2016 2017 2018 2019 
2020 2021 2022 2023 
2024 2025 2026 2027 
2028 2029 2030 2031 
2032 2033 2034 2035 
2036 2037 2038 2039 
2040 2041 2042 2043 
2044 2045 2046 2047 
2048 2049 2050 2051 2052 2053 2054 2055 2056 2057 2058 2059 2060 2061 2062 2063 
2064 2065 2066 2067 2068 2069 2070 2071 2072 2073 2074 2075 2076 2077 2078 2079 
</DataArray>
<DataArray type="Int32" Name="offsets" format="ascii">
4 8 12 16 20 24 28 32 36 40 44 48 52 56 60 64 68 72 76 80 84 88 92 96 100 104 108 112 116 120 124 128 132 136 140 144 148 152 156 160 164 168 172 176 180 184 188 192 196 200 204 208 212 216 220 224 228 232 236 240 244 248 252 256 260 264 268 272 276 280 284 288 292 296 300 304 308 312 316 320 324 328 332 336 340 344 348 352 356 360 364 368 372 376 380 384 388 392 396 400 404 408 412 416 420 424 428 432 436 440 444 448 452 456 460 464 468 472 476 480 484 488 492 496 500 504 508 512 516 520 524 528 532 536 540 544 548 552 556 560 564 568 572 576 580 584 588 592 596 600 604 608 612 616 620 624 628 632 636 640 644 648 652 656 660 664 668 672 676 680 684 688 692 696 700 704 708 712 716 720 724 728 732 736 740 744 748 752 756 760 764 768 772 776 780 784 788 792 796 800 804 808 812 816 820 824 828 832 836 840 844 848 852 856 860 864 868 872 876 880 884 888 892 896 900 904 908 912 916 920 924 928 932 936 940 944 948 952 956 960 964 968 972 976 980 984 988 992 996 1000 1004 1008 1012 1016 1020 1024 1028 1032 1036 1040 1044 1048 1052 1056 1060 1064 1068 1072 1076 1080 1084 1088 1092 1096 1100 1104 1108 1112 1116 1120 1124 1128 1132 1136 1140 1144 1148 1152 1156 1160 1164 1168 1172 1176 1180 1184 1188 1192 1196 1200 1204 1208 1212 1216 1220 1224 1228 1232 1236 1240 1244 1248 1252 1256 1260 1264 1268 1272 1276 1280 1284 1288 1292 1296 1300 1304 1308 1312 1316 1320 1324 1328 1332 1336 1340 1344 1348 1352 1356 1360 1364 1368 1372 1376 1380 1384 1388 1392 1396 1400 1404 1408 1412 1416 1420 1424 1428 1432 1436 1440 1444 1448 1452 1456 1460 1464 1468 1472 1476 1480 1484 1488 1492 1496 1500 1504 1508 1512 1516 1520 1524 1528 1532 1536 1540 1544 1548 1552 1556 1560 1564 1568 1572 1576 1580 1584 1588 1592 1596 1600 1604 1608 1612 1616 1620 1624 1628 1632 1636 1640 1644 1648 1652 1656 1660 1664 1668 1672 1676 1680 1684 1688 1692 1696 1700 1704 1708 1712 1716 1720 1724 1728 1732 1736 1740 1744 1748 1752 1756 1760 1764 1768 1772 1776 1780 1784 1788 1792 1796 1800 1804 1808 1812 1816 1820 1824 1828 1832 1836 1840 1844 1848 1852 1856 1860 1864 1868 1872 1876 1880 1884 1888 1892 1896 1900 1904 1908 1912 1916 1920 1924 1928 1932 1936 1940 1944 1948 1952 1956 1960 1964 1968 1972 1976 1980 1984 1988 1992 1996 2000 2004 2008 2012 2016 2020 2024 2028 2032 2036 2040 2044 2048 2064 2080 
</DataArray>
<DataArray type="UInt8" Name="types" format="ascii">
7 7 7 7 7 7 7 7 7 7 7 7 7 7 7 7 7 7 7 7 7 7 7 7 7 7 7 7 7 7 7 7 7 7 7 7 7 7 7 7 7 7 7 7 7 7 7 7 7 7 7 7 7 7 7 7 7 7 7 7 7 7 7 7 7 7 7 7 7 7 7 7 7 7 7 7 7 7 7 7 7 7 7 7 7 7 7 7 7 7 7 7 7 7 7 7 7 7 7 7 7 7 7 7 7 7 7 7 7 7 7 7 7 7 7 7 7 7 7 7 7 7 7 7 7 7 7 7 7 7 7 7 7 7 7 7 7 7 7 7 7 7 7 7 7 7 7 7 7 7 7 7 7 7 7 7 7 7 7 7 7 7 7 7 7 7 7 7 7 7 7 7 7 7 7 7 7 7 7 7 7 7 7 7 7 7 7 7 7 7 7 7 7 7 7 7 7 7 7 7 7 7 7 7 7 7 7 7 7 7 7 7 7 7 7 7 7 7 7 7 7 7 7 7 7 7 7 7 7 7 7 7 7 7 7 7 7 7 7 7 7 7 7 7 7 7 7 7 7 7 7 7 7 7 7 7 7 7 7 7 7 7 7 7 7 7 7 7 7 7 7 7 7 7 7 7 7 7 7 7 7 7 7 7 7 7 7 7 7 7 7 7 7 7 7 7 7 7 7 7 7 7 7 7 7 7 7 7 7 7 7 7 7 7 7 7 7 7 7 7 7 7 7 7 7 7 7 7 7 7 7 7 7 7 7 7 7 7 7 7 7 7 7 7 7 7 7 7 7 7 7 7 7 7 7 7 7 7 7 7 7 7 7 7 7 7 7 7 7 7 7 7 7 7 7 7 7 7 7 7 7 7 7 7 7 7 7 7 7 7 7 7 7 7 7 7 7 7 7 7 7 7 7 7 7 7 7 7 7 7 7 7 7 7 7 7 7 7 7 7 7 7 7 7 7 7 7 7 7 7 7 7 7 7 7 7 7 7 7 7 7 7 7 7 7 7 7 7 7 7 7 7 7 7 7 7 7 7 7 7 7 7 7 7 7 7 7 7 7 7 7 7 7 7 7 7 7 7 7 7 7 7 7 7 7 7 7 7 7 7 7 7 7 7 7 7 7 7 7 7 7 7 7 7 7 7 7 7 7 7 7 7 7 7 
</DataArray>
</Cells>
<CellData Scalars="cell variable 4" Vectors="cell vector">
<DataArray type="Float64" NumberOfComponents="3" Name="cell vector" format="ascii">
0.116787 0.172603 0.978043
0.289311 0.488615 0.823137
0.285817 0.770356 0.569965
-0.062128 0.982088 0.177886
-0.15522 0.962521 -0.222398
-0.0616394 0.823061 -0.564598
-0.0250744 -0.557393 0.82987
-0.0221533 -0.19754 0.980045
0.0262645 0.198665 0.979716
0.0253722 0.557912 0.829512
-0.0630163 0.823215 0.564222
-0.156175 0.962478 0.221912
-0.0645229 0.981911 -0.178011
0.278726 0.772681 -0.57033
-0.279109 -0.491883 0.824712
-0.120117 -0.171547 0.977826
0.031071 0.19468 0.980374
0.0809474 0.553017 0.829229
0.0713061 0.82936 0.554146
-0.0126683 0.980867 0.194266
0.0039129 0.980685 -0.195556
0.0342652 0.83146 -0.554527
-0.0377553 -0.556099 0.830258
-0.0156359 -0.19535 0.980609
0.0160089 0.195832 0.980507
0.0373132 0.556526 0.829992
0.0333334 0.83177 0.554119
0.00333419 0.980791 0.195033
-0.0130594 0.980751 -0.194826
0.0710576 0.82905 -0.554642
-0.0809005 -0.552565 0.829534
-0.0326162 -0.194119 0.980436
0.0308871 0.194041 0.980507
0.0824164 0.551644 0.829998
0.0667357 0.82915 0.555029
-0.0380626 0.980055 0.195048
0.0152718 0.980764 -0.1946
0.0421487 0.830886 -0.554844
-0.037501 -0.555187 0.83088
-0.0147059 -0.194845 0.980724
0.0140298 0.195369 0.980629
0.0370908 0.55561 0.830615
0.0419546 0.831167 0.554437
0.0151654 0.980873 0.194057
-0.0380377 0.97994 -0.19563
0.0667283 0.828866 -0.555453
-0.0826699 -0.551193 0.830272
-0.0317067 -0.193427 0.980602
0.0328124 0.192715 0.980706
0.0925945 0.548228 0.831187
0.110672 0.824244 0.555313
0.936231 -0.347564 -0.0516823
0.997218 -0.0739617 0.00929875
0.998607 -0.0526511 0.00357295
0.998648 -0.0519778 5.73921e-05
0.998546 -0.053912 -0.000219962
0.998545 -0.0539101 0.000882422
0.998649 -0.0519628 0.000619913
0.998611 -0.0526107 -0.00290236
0.99722 -0.0740093 -0.00866988
0.935879 -0.348376 0.052572
0.110615 0.824013 -0.555667
-0.0928538 -0.547783 0.831452
-0.0334988 -0.192021 0.980819
0.0344218 0.191305 0.980927
0.0993803 0.544965 0.832548
0.14916 0.817704 0.555977
0.944029 -0.327269 -0.0412775
0.99115 -0.132655 0.00500905
0.993615 -0.112817 0.000918728
0.993854 -0.110686 -0.00170559
0.993718 -0.111907 -0.000808697
0.993718 -0.111901 0.00147778
0.993855 -0.110663 0.00237925
0.99362 -0.112778 -0.000249995
0.991146 -0.132708 -0.00436896
0.943488 -0.328699 0.0422877
0.149187 0.817496 -0.556277
-0.0997785 -0.544508 0.832799
-0.0351279 -0.190564 0.981046
0.0399434 0.189529 0.981062
0.116255 0.540432 0.833317
0.18253 0.810336 0.556811
0.966697 -0.255362 -0.016934
0.983096 -0.183052 0.00383802
0.985717 -0.168401 0.00172351
0.986227 -0.165396 -0.000660034
0.986163 -0.165781 -0.00038163
0.986164 -0.165772 0.00106703
0.986231 -0.16537 0.00134148
0.985723 -0.168374 -0.00105504
0.983082 -0.18314 -0.00319511
0.966145 -0.257368 0.0180303
0.182486 0.810164 -0.557076
-0.116682 -0.539964 0.833561
-0.0406975 -0.188743 0.981183
0.0472908 0.187395 0.981146
0.137574 0.534608 0.833827
0.216304 0.801601 0.557358
0.972714 -0.232001 -0.00189559
0.972816 -0.231561 0.00287779
0.974977 -0.222294 0.00236393
0.975702 -0.219102 0.00041758
0.975758 -0.218852 8.04328e-05
0.97576 -0.218843 0.000614473
0.975707 -0.219077 0.000273519
0.974982 -0.222277 -0.00168972
0.972792 -0.231668 -0.00222742
0.972242 -0.233957 0.00296784
0.216138 0.80148 -0.557597
-0.137999 -0.534127 0.834065
-0.0480843 -0.186547 0.981269
0.0555336 0.18484 0.981198
0.161125 0.527451 0.834167
0.25174 0.790948 0.557699
0.967248 -0.2538 0.00416698
0.960002 -0.279986 0.0020675
0.961479 -0.274868 0.00253824
0.962302 -0.27198 0.00112254
0.962477 -0.271365 0.000414947
0.962479 -0.271357 0.000284146
0.962309 -0.271958 -0.000425055
0.961483 -0.274859 -0.00185874
0.959969 -0.280103 -0.00140999
0.966777 -0.255604 -0.00312268
0.251464 0.790886 -0.557911
-0.161545 -0.526956 0.834399
-0.0563379 -0.183921 0.981325
0.0642489 0.181815 0.981232
0.185922 0.518873 0.834388
0.288738 0.778031 0.55794
0.954579 -0.297902 0.00568684
0.944421 -0.328735 0.00144135
0.945268 -0.326287 0.00237799
0.946084 -0.323919 0.00145954
0.946345 -0.323157 0.000607214
0.946348 -0.32315 9.43667e-05
0.946091 -0.3239 -0.000759564
0.94527 -0.326285 -0.00169688
0.944382 -0.32885 -0.000777512
0.954054 -0.299599 -0.00465441
0.288377 0.778032 -0.558126
-0.186334 -0.51836 0.834615
-0.0650359 -0.180821 0.981363
0.0732082 0.178286 0.981252
0.211372 0.508804 0.83453
0.325921 0.763058 0.558138
0.937138 -0.348913 0.00569215
0.925969 -0.377598 0.00102187
0.926354 -0.376649 0.00206495
0.927092 -0.374831 0.00151934
0.927395 -0.374082 0.000691837
0.927398 -0.374075 1.16896e-05
0.927099 -0.374815 -0.000819962
0.926353 -0.376654 -0.00138542
0.925926 -0.377706 -0.00035411
0.936539 -0.350533 -0.00466514
0.325506 0.763119 -0.558297
-0.211768 -0.508271 0.834754
-0.0739529 -0.177219 0.981389
0.0822336 0.174242 0.981263
0.236954 0.497241 0.834628
0.362826 0.746101 0.558292
0.915501 -0.402284 0.00502055
0.904674 -0.426103 0.000750519
0.904756 -0.425927 0.00169626
0.905372 -0.424617 0.00140356
0.905674 -0.423973 0.000698957
0.905678 -0.423967 3.76388e-07
0.905379 -0.424603 -0.000710963
0.904752 -0.425937 -0.00102494
0.904624 -0.42621 -8.74701e-05
0.914839 -0.4038 -0.004009
0.362386 0.746216 -0.558424
-0.237335 -0.496687 0.83485
-0.0829124 -0.173107 0.981407
0.091199 0.169684 0.98127
0.262289 0.484238 0.834696
0.399548 0.727013 0.558402
0.889929 -0.456081 0.00395952
0.880626 -0.473811 0.000541116
0.880517 -0.474013 0.00131476
0.880986 -0.473141 0.00119963
0.881256 -0.472638 0.000650745
0.881261 -0.47263 4.09186e-05
0.880996 -0.473124 -0.000514018
0.880512 -0.474024 -0.000652067
0.880552 -0.47395 0.000107746
0.889252 -0.457408 -0.00298841
0.399237 0.727102 -0.558509
-0.262653 -0.483662 0.834916
-0.0917665 -0.168506 0.98142
0.0999876 0.164643 0.981272
0.287258 0.469783 0.834738
0.436004 0.705691 0.558481
0.86093 -0.508716 0.00279147
0.853863 -0.520498 0.000385648
0.853684 -0.520791 0.000951969
0.854006 -0.520263 0.000942287
0.854219 -0.519913 0.000562105
0.854221 -0.51991 0.000104238
0.854011 -0.520255 -0.000279683
0.85368 -0.520797 -0.000300784
0.853817 -0.520572 0.000258739
0.860184 -0.50998 -0.00184186
0.43553 0.705918 -0.558563
-0.28755 -0.46922 0.834953
-0.100501 -0.163393 0.981429
0.108576 0.159115 0.981271
0.31156 0.453991 0.834759
0.471505 0.682436 0.558537
0.82879 -0.559558 0.00162449
0.824552 -0.565786 0.000266774
0.824339 -0.566096 0.000624607
0.824506 -0.565853 0.000676125
0.824642 -0.565655 0.000464954
0.824645 -0.565651 0.000194869
0.824512 -0.565844 -2.2429e-05
0.82433 -0.566109 9.57464e-06
0.824502 -0.565858 0.00036698
0.827985 -0.560749 -0.000687173
0.471046 0.68271 -0.55859
-0.31186 -0.453395 0.834971
-0.108987 -0.157821 0.981435
0.116973 0.153052 0.981271
0.335232 0.436784 0.834769
0.505811 0.657398 0.558554
0.793265 -0.608876 0.000318505
0.792854 -0.609412 0.000170819
0.792655 -0.609671 0.000274432
0.792635 -0.609696 0.000314381
0.792639 -0.609692 0.000315788
0.792645 -0.609684 0.000336273
0.792649 -0.609678 0.000334358
0.792644 -0.609685 0.000345907
0.792758 -0.609537 0.000440384
0.792365 -0.610047 0.00061751
0.505539 0.657582 -0.558584
-0.335544 -0.436142 0.834979
-0.117251 -0.151746 0.98144
0.125229 0.146375 0.981271
0.358701 0.417728 0.834768
0.539905 0.629757 0.558487
0.753965 -0.656913 -0.00140984
0.758583 -0.651577 -8.99289e-05
0.758446 -0.651736 -0.000199558
0.75819 -0.652034 -0.000122918
0.758017 -0.652235 0.000140735
0.75802 -0.652231 0.00047921
0.758197 -0.652025 0.000737559
0.758438 -0.651744 0.000796454
0.758527 -0.651642 0.000685265
0.752995 -0.658022 0.00231867
0.539471 0.630123 -0.558494
-0.358921 -0.417122 0.834976
-0.125432 -0.14502 0.981446
0.133285 0.139212 0.981252
0.381788 0.397035 0.834626
0.575673 0.597608 0.558091
0.717634 -0.696415 -0.00259639
0.721342 -0.692576 -0.0019363
0.720623 -0.693324 -0.00195671
0.719945 -0.69403 -0.00134402
0.719562 -0.694428 -0.00029382
0.719566 -0.694424 0.000897297
0.719951 -0.694022 0.0019374
0.720612 -0.693334 0.00253394
0.721264 -0.692655 0.00250843
0.716796 -0.697274 0.0034264
0.575386 0.597903 -0.558071
-0.381944 -0.396457 0.83483
-0.13333 -0.137883 0.981433
0.140823 0.131866 0.981214
0.403113 0.37599 0.834345
0.607298 0.566093 0.55743
-0.678216 0.734858 0.00251075
-0.681988 0.731361 0.0018326
-0.681485 0.73183 0.00199096
-0.680748 0.732516 0.00142902
-0.680303 0.732931 0.000337404
-0.680307 0.732927 -0.00092076
-0.680754 0.732509 -0.00199799
-0.681468 0.731844 -0.00254051
-0.681911 0.731432 -0.00238227
-0.677593 0.73543 -0.00324702
0.607067 0.566384 -0.557387
-0.403238 -0.375408 0.834547
-0.14074 -0.130549 0.981402
0.147784 0.124203 0.98119
0.422564 0.354394 0.834173
0.634523 0.535808 0.557037
-0.633182 0.774001 0.00195695
-0.640837 0.767677 2.02335e-05
-0.641323 0.767271 0.000555564
-0.640833 0.76768 0.000551193
-0.640442 0.768006 4.87271e-05
-0.640448 0.768001 -0.000601538
-0.640842 0.767672 -0.00108826
-0.641306 0.767284 -0.00106984
-0.640759 0.767742 -0.000537574
-0.632575 0.774495 -0.00265019
0.634336 0.536096 -0.556973
-0.422681 -0.353782 0.834373
-0.147591 -0.1229 0.981383
0.154282 0.11611 0.981181
0.440942 0.331385 0.834119
0.661843 0.501776 0.556942
-0.588366 0.808592 0.00202796
-0.597457 0.801901 -9.5118e-05
-0.598134 0.801396 0.000614871
-0.597567 0.801819 0.000644957
-0.59712 0.802152 9.32371e-05
-0.597127 0.802146 -0.000615974
-0.597577 0.801811 -0.00114887
-0.598115 0.801409 -0.00109532
-0.597376 0.801961 -0.000389501
-0.587757 0.809033 -0.0026817
0.661702 0.502055 -0.556858
-0.441035 -0.330764 0.834316
-0.153976 -0.11484 0.981378
0.160345 0.107689 0.981169
0.458069 0.307455 0.834053
0.687123 0.466648 0.556868
-0.541195 0.840894 0.00238849
-0.552471 0.833532 2.57586e-05
-0.553083 0.833126 0.000870933
-0.552284 0.833656 0.000812401
-0.551744 0.834013 0.000145752
-0.551752 0.834008 -0.000642129
-0.552294 0.833649 -0.00128262
-0.553057 0.833142 -0.00131337
-0.552391 0.833585 -0.000477215
-0.540621 0.841261 -0.0029937
0.687044 0.466885 -0.556766
-0.458135 -0.306831 0.834246
-0.159923 -0.106474 0.98137
0.165919 0.099049 0.981153
0.473768 0.282948 0.833957
0.710089 0.431029 0.556765
-0.491929 0.870631 0.00285537
-0.506139 0.862452 0.000227542
-0.506448 0.86227 0.00119567
-0.505296 0.862946 0.000965881
-0.504654 0.863321 0.000179793
-0.504665 0.863315 -0.000643037
-0.505307 0.862939 -0.0013953
-0.506417 0.862287 -0.00159333
-0.506055 0.862501 -0.000637822
-0.491413 0.87092 -0.00340178
0.710069 0.431216 -0.556646
-0.473809 -0.282316 0.834148
-0.165387 -0.097903 0.981357
0.17097 0.0902993 0.98113
0.48793 0.258196 0.833822
0.730646 0.395389 0.556618
-0.441432 0.897289 0.00325457
-0.458773 0.888553 0.000523199
-0.458372 0.888759 0.00155183
-0.456752 0.889594 0.00105026
-0.456032 0.889963 0.000170146
-0.456046 0.889956 -0.000605643
-0.456764 0.889587 -0.00143771
-0.458329 0.888781 -0.00190001
-0.458686 0.888598 -0.000891572
-0.441035 0.897482 -0.00373019
0.730705 0.395469 -0.556484
-0.487955 -0.257545 0.834009
-0.170334 -0.089243 0.981337
0.17547 0.0815961 0.981098
0.500475 0.233636 0.83363
0.748742 0.360262 0.556415
-0.391452 0.920193 0.003267
-0.410767 0.91174 0.000954732
-0.408954 0.912553 0.00188348
-0.406775 0.913528 0.000990671
-0.406042 0.913854 8.86797e-05
-0.40606 0.913846 -0.000500194
-0.406785 0.913523 -0.00133132
-0.408896 0.912578 -0.00217798
-0.410688 0.911775 -0.00128209
-0.391231 0.920285 -0.00366007
0.748873 0.360214 -0.556268
-0.500491 -0.232951 0.833812
-0.174743 -0.0806403 0.981306
0.17941 0.0731427 0.981052
0.51135 0.20988 0.833349
0.764314 0.326411 0.55613
-0.345589 0.938383 0.0022243
-0.36256 0.931959 0.0015671
-0.358223 0.933634 0.00208218
-0.355468 0.934688 0.000686796
-0.354849 0.934924 -9.52464e-05
-0.354874 0.934914 -0.000290034
-0.35548 0.934683 -0.000970642
-0.358148 0.933662 -0.00231166
-0.362485 0.931988 -0.00184515
-0.345635 0.938366 -0.00251365
0.764532 0.32616 -0.555977
-0.511373 -0.209116 0.833527
-0.178606 -0.0723081 0.98126
0.182801 0.0652156 0.980985
0.520573 0.187715 0.832927
0.777372 0.294766 0.555704
-0.311202 0.950343 -0.00125176
-0.314431 0.949277 0.00236761
-0.306082 0.952003 0.00196363
-0.302909 0.95302 2.99359e-05
-0.302594 0.95312 -0.000411516
-0.30263 0.953108 5.26113e-05
-0.302923 0.953015 -0.000244197
-0.305988 0.952033 -0.00211639
-0.314369 0.949297 -0.00259092
-0.311691 0.950183 0.00110136
0.77768 0.294233 -0.555554
-0.520621 -0.186798 0.833103
-0.181941 -0.0645282 0.98119
0.185669 0.0582492 0.980884
0.528217 0.168212 0.832281
0.788158 0.26603 0.555009
-0.301032 0.953567 -0.00947809
-0.265946 0.963982 0.00332209
-0.252179 0.96768 0.00136631
-0.249009 0.968501 -0.000981533
-0.249222 0.968446 -0.000839426
-0.249274 0.968433 0.000519531
-0.24903 0.968496 0.000862685
-0.252073 0.967707 -0.00142456
-0.265921 0.963988 -0.00348398
-0.302206 0.953195 0.009514
0.788551 0.265128 -0.554882
-0.52831 -0.167034 0.832459
-0.184794 -0.0577342 0.98108
0.187977 0.053295 0.980727
0.534112 0.153838 0.831299
0.797261 0.239718 0.553994
-0.319894 0.947192 -0.0222449
-0.214302 0.976754 0.0050387
-0.195111 0.980781 0.000969432
-0.192581 0.98128 -0.00163898
-0.19345 0.98111 -0.00108547
-0.193519 0.981096 0.000868583
-0.192617 0.981273 0.00165893
-0.195026 0.980798 -0.000926442
-0.214353 0.976743 -0.0051475
-0.321673 0.946585 0.0224354
0.797744 0.23826 -0.553929
-0.534288 -0.152161 0.831495
-0.187169 -0.0529727 0.980898
0.189104 0.0537607 0.980484
0.536414 0.154693 0.829657
0.804051 0.216854 0.553603
-0.285011 0.958435 -0.0130504
-0.148541 0.988774 0.016192
-0.127225 0.991834 0.00887096
-0.124943 0.992157 0.00375763
-0.125811 0.992054 0.00108234
-0.125788 0.992057 -0.00061639
-0.124991 0.992151 -0.00363122
-0.127465 0.9918 -0.00919786
-0.14889 0.988716 -0.0165329
-0.28637 0.95803 0.0130472
0.804694 0.214309 -0.55366
-0.53687 -0.15158 0.829936
-0.188555 -0.0535183 0.980603
0.188649 0.0500008 0.980771
0.53701 0.139677 0.831932
0.817894 0.144729 0.556869
0.981696 0.0245815 0.188863
0.975855 0.0972646 -0.195569
0.824316 0.114674 -0.554395
-0.550474 -0.0839176 0.830624
-0.193301 -0.0306607 0.98066
0.193318 0.0307169 0.980655
0.550398 0.0855088 0.830512
0.824243 0.115297 0.554374
0.975807 0.0974857 0.195698
0.981719 0.0247589 -0.188721
0.818235 0.143219 -0.556759
-0.537731 -0.136444 0.832002
-0.188343 -0.0499124 0.980834
0.189469 0.0427328 0.980956
0.540202 0.118199 0.833193
0.817792 0.138557 0.558586
0.979195 0.0700564 0.190443
0.975723 0.0896304 -0.199826
0.824534 0.101761 -0.556586
-0.550898 -0.0763999 0.831068
-0.193487 -0.0282813 0.980695
0.193735 0.0284447 0.980642
0.550928 0.07779 0.830919
0.824437 0.102234 0.556643
0.975687 0.0896969 0.199974
0.979238 0.0699375 -0.190265
0.818029 0.137748 -0.558439
-0.540816 -0.115775 0.833135
-0.189154 -0.0428299 0.981013
0.182593 0.0554231 0.981625
0.513819 0.173954 0.840077
0.773766 0.255287 0.579754
0.987355 -0.0567023 0.148036
0.974565 0.00203487 -0.224097
0.822459 0.0580185 -0.565857
-0.54923 -0.0571221 0.833716
-0.19286 -0.0216675 0.980987
0.192996 0.0222644 0.980947
0.549157 0.0560796 0.833835
0.822444 0.0583368 0.565847
0.97466 0.00438733 0.223649
0.987402 -0.0536082 -0.148877
0.774241 0.254137 -0.579626
-0.519455 -0.160289 0.839329
-0.18273 -0.0549641 0.981625
-0.000106959 0.00726043 0.999974
0.00408152 0.000544941 0.999992
</DataArray>
<DataArray type="Float64" Name="cell vector length" format="ascii">
0.171281 0.172103 0.146914 0.143623 0.174851 0.170133 0.158304 0.149348 0.148957 0.157616 0.170177 0.174909 0.143641 0.146863 0.17831 0.175321 0.419525 0.389893 0.346863 0.356234 0.395151 0.405253 0.394573 0.38315 0.382799 0.393676 0.405181 0.395248 0.356599 0.347242 0.393398 0.420823 0.531396 0.487478 0.419319 0.445872 0.505206 0.512098 0.495908 0.482267 0.482138 0.495392 0.512176 0.505404 0.446276 0.419522 0.489392 0.531872 0.573717 0.510754 0.328941 0.106262 0.449608 0.617021 0.694731 0.726162 0.726126 0.694682 0.6168 0.449428 0.106269 0.328854 0.512668 0.574128 0.599976 0.522554 0.321752 0.0713258 0.431023 0.606629 0.687703 0.720102 0.720053 0.68758 0.606427 0.430814 0.0713143 0.321628 0.524603 0.600369 0.614121 0.527796 0.310095 0.0654834 0.426046 0.604092 0.686748 0.719696 0.719662 0.686655 0.603914 0.425816 0.0653254 0.310033 0.530274 0.614614 0.622978 0.531251 0.301422 0.069529 0.424594 0.602839 0.68653 0.719972 0.719945 0.686452 0.602679 0.424356 0.0692356 0.301447 0.534343 0.623623 0.628934 0.533706 0.29552 0.0754744 0.424649 0.602116 0.686379 0.720209 0.720185 0.686309 0.601967 0.424406 0.0751011 0.295629 0.53749 0.629749 0.632999 0.535446 0.291575 0.0802683 0.425357 0.601776 0.686269 0.720368 0.720346 0.686203 0.601633 0.425104 0.0798397 0.291766 0.539962 0.633993 0.635753 0.536642 0.289825 0.0820268 0.425477 0.601423 0.686192 0.720506 0.720485 0.686128 0.601282 0.425214 0.0815521 0.290095 0.541908 0.636932 0.637567 0.537291 0.28751 0.0850569 0.426728 0.601675 0.686273 0.720638 0.720618 0.686206 0.60153 0.426452 0.0845457 0.287853 0.543316 0.638937 0.638691 0.537468 0.285314 0.08789 0.428129 0.602129 0.686458 0.720807 0.720789 0.686396 0.601986 0.427831 0.0873199 0.285743 0.544253 0.640256 0.639279 0.537265 0.28332 0.0903428 0.429484 0.60271 0.686766 0.721059 0.721043 0.686705 0.602567 0.429175 0.0897624 0.283798 0.544787 0.641029 0.639416 0.536715 0.281333 0.0926334 0.430765 0.603372 0.68719 0.721424 0.721405 0.687119 0.603219 0.43044 0.0919626 0.281922 0.544938 0.641344 0.639335 0.535892 0.279307 0.0949083 0.432108 0.604216 0.687816 0.721979 0.721962 0.687749 0.604065 0.431769 0.0942547 0.279906 0.544816 0.641452 0.639337 0.534908 0.276887 0.0978918 0.43414 0.605693 0.68895 0.722951 0.722935 0.688881 0.605537 0.433771 0.0971579 0.277585 0.54453 0.641643 0.639343 0.533916 0.27473 0.108497 0.440967 0.610658 0.692933 0.726515 0.726494 0.692849 0.610489 0.440596 0.107734 0.275479 0.544196 0.641826 0.639143 0.532854 0.268017 0.140851 0.462956 0.626032 0.705097 0.737375 0.737353 0.705011 0.625862 0.462579 0.140044 0.268829 0.543742 0.641791 0.638663 0.531585 0.266092 0.149398 0.46825 0.629979 0.708358 0.740331 0.740308 0.708269 0.629804 0.467862 0.14856 0.266951 0.543035 0.641469 0.637779 0.529996 0.263974 0.149906 0.468645 0.630553 0.708932 0.740848 0.740824 0.70884 0.630376 0.468248 0.14904 0.26488 0.541978 0.64074 0.636407 0.528241 0.262464 0.149266 0.468258 0.630663 0.709202 0.741117 0.741093 0.709105 0.630484 0.467859 0.148378 0.263415 0.540727 0.639516 0.634479 0.526241 0.261411 0.14798 0.467661 0.630755 0.709469 0.741368 0.74134 0.709365 0.630574 0.467268 0.14708 0.262408 0.539201 0.637735 0.631817 0.523885 0.260912 0.145926 0.466957 0.630933 0.709776 0.741605 0.741574 0.709664 0.630751 0.466573 0.145018 0.261962 0.537302 0.635221 0.62811 0.521049 0.261285 0.142844 0.466253 0.631276 0.710126 0.741801 0.741764 0.710001 0.631094 0.46589 0.141943 0.262393 0.534914 0.63167 0.622881 0.517574 0.26312 0.138439 0.465785 0.631885 0.710506 0.741913 0.741867 0.710365 0.631702 0.46545 0.137544 0.264305 0.531896 0.626614 0.615381 0.513192 0.267354 0.132647 0.46603 0.632891 0.710912 0.741915 0.741858 0.710752 0.632712 0.46574 0.131787 0.268617 0.528006 0.619324 0.604189 0.50719 0.274728 0.127157 0.468098 0.634637 0.711521 0.741985 0.741917 0.711345 0.634471 0.467865 0.126378 0.276065 0.522575 0.608412 0.584791 0.496204 0.281393 0.13241 0.476298 0.639288 0.714015 0.743733 0.743686 0.713892 0.639191 0.476152 0.13184 0.282759 0.512336 0.589425 0.536493 0.45898 0.248907 0.202056 0.518404 0.665289 0.731343 0.759234 0.759705 0.73299 0.665169 0.518269 0.201685 0.25022 0.476598 0.541874 0.496631 0.434445 0.345365 0.374421 0.442065 0.454712 0.455575 0.440796 0.434429 0.439283 0.452974 0.44255 0.375516 0.347055 0.453057 0.502539 0.449281 0.398492 0.334517 0.335934 0.382874 0.400984 0.412854 0.397713 0.389822 0.3915 0.39938 0.38324 0.336822 0.336034 0.417748 0.455573 0.190489 0.133963 0.0661091 0.0684449 0.1371 0.186669 0.220519 0.21464 0.208548 0.201973 0.187317 0.138183 0.0691085 0.0652307 0.153269 0.196383 0.0296679 0.0151589 
</DataArray>
<DataArray type="Float64" Name="cell variable 4" format="ascii">
859.207 869.846 880.878 889.568 891.375 874.291 863.623 859.367 859.007 862.994 874.352 891.239 889.396 879.906 873.818 860.316 1088.01 1086.23 1089.34 1105.56 1109.11 1100.14 1093.71 1089.66 1088.93 1091.95 1099.99 1109.03 1105.56 1089.68 1092.44 1090.39 1306.38 1302.63 1299.91 1327.11 1333.94 1330.93 1328.6 1325.93 1325.29 1326.69 1330.93 1334.07 1327.29 1300.12 1308.1 1308.09 1374.21 1371.16 1366.04 1565.57 2585.15 3728.26 4698.52 5253.28 5251.9 4695.64 3726.32 2584.44 1565.46 1366.11 1377.22 1375.98 1400.41 1395.76 1391.66 1570.13 2567.34 3715.49 4701.88 5267.74 5266.81 4699.78 3713.76 2566.45 1569.94 1391.7 1402.59 1402.31 1405.88 1397.09 1390.73 1580.4 2559.73 3702.7 4698.05 5272.66 5271.93 4696.36 3701.19 2558.81 1580.09 1390.82 1405.04 1408.06 1406.55 1394.98 1386.41 1593.39 2560.11 3694.43 4693.23 5273.8 5273.19 4691.79 3693.06 2559.17 1592.97 1386.54 1404.5 1409.16 1406.29 1392.51 1381.91 1604.45 2564.45 3690.31 4688.66 5272.6 5272.06 4687.38 3689.04 2563.51 1603.97 1382.08 1403.83 1409.41 1405.83 1390.06 1377.62 1612.22 2569.54 3688.82 4684.97 5270.48 5270.01 4683.8 3687.58 2568.56 1611.67 1377.83 1403.31 1409.51 1405.28 1387.65 1373.66 1614.31 2570.35 3685.92 4681.63 5268.44 5268 4680.55 3684.73 2569.35 1613.7 1373.91 1402.92 1409.56 1404.66 1385.32 1370.05 1618.5 2575.33 3687.66 4680.32 5266.57 5266.17 4679.3 3686.48 2574.29 1617.82 1370.32 1402.63 1409.57 1404.06 1383.12 1366.69 1622.11 2580.25 3690.36 4680.16 5265.38 5265 4679.18 3689.17 2579.17 1621.38 1367.02 1402.43 1409.59 1403.44 1381 1363.57 1624.79 2584.31 3693.27 4681.09 5265.35 5265 4680.17 3692.07 2583.21 1624.06 1363.91 1402.26 1409.59 1402.69 1378.82 1360.61 1626.91 2587.64 3696.28 4682.98 5266.6 5266.3 4682.14 3695.07 2586.38 1625.9 1360.89 1402 1409.47 1402.3 1376.85 1357.63 1628.23 2590.11 3699.33 4685.87 5269.4 5269.11 4685.05 3698.11 2588.89 1627.34 1357.98 1401.87 1409.69 1402.4 1375.29 1354.59 1629.05 2591.14 3701.01 4688.19 5272.36 5272.08 4687.36 3699.71 2589.81 1628.03 1354.99 1402.14 1410.41 1401.5 1373.39 1352.31 1629.48 2591.34 3702.55 4691.11 5276.17 5275.83 4690.16 3701.16 2589.95 1628.37 1352.7 1401.98 1410.12 1399.46 1370.94 1350.86 1659.03 2647.9 3784.02 4793.67 5390.83 5390.44 4792.63 3782.54 2646.41 1657.82 1351.26 1401.06 1408.62 1398.02 1368.8 1348.86 1658.64 2646.17 3783.2 4794.38 5392.52 5392.12 4793.33 3781.69 2644.66 1657.41 1349.28 1400.34 1407.71 1397.31 1367.21 1346.79 1658.23 2644.4 3782.76 4796.44 5396.16 5395.77 4795.4 3781.24 2642.87 1656.95 1347.24 1400.08 1407.5 1396.65 1365.9 1345.5 1657.17 2642 3782.2 4799 5400.56 5400.15 4797.95 3780.7 2640.48 1655.88 1345.97 1399.99 1407.31 1396.02 1364.82 1344.64 1655.11 2638.71 3781.65 4802.12 5405.43 5404.99 4801.03 3780.17 2637.24 1653.81 1345.12 1400 1407.1 1395.4 1363.95 1344.19 1651.63 2634.42 3781.43 4805.96 5410.63 5410.14 4804.8 3779.95 2633.01 1650.32 1344.68 1400.13 1406.88 1394.79 1363.35 1344.22 1646.15 2629.27 3782.11 4810.73 5415.86 5415.27 4809.44 3780.67 2627.99 1644.87 1344.71 1400.4 1406.62 1394.19 1363.06 1344.83 1637.95 2623.85 3784.6 4816.51 5420.59 5419.86 4815.04 3783.21 2622.72 1636.69 1345.32 1400.87 1406.34 1393.42 1363 1345.96 1626.23 2619.53 3790.15 4823.19 5423.97 5423.04 4821.47 3788.84 2618.62 1625.05 1346.42 1401.45 1405.85 1390.91 1361.95 1346.21 1611.16 2619.15 3800.19 4830.25 5424.88 5423.69 4828.24 3799.01 2618.48 1610.08 1346.62 1400.9 1403.56 1375.79 1350.25 1335.22 1597.08 2628.39 3816.46 4836.98 5422.41 5420.94 4834.67 3815.4 2627.96 1596.23 1335.51 1389.16 1388.49 1291.3 1267.31 1247.81 1600.96 2666.24 3850.02 4853.45 5427.99 5426.22 4850.62 3848.98 2665.94 1600.39 1247.88 1303.7 1303.29 1214.36 1187.69 1166.25 1185.92 1191.18 1193.07 1221.98 1217.74 1209.24 1196.47 1193.21 1191.44 1186.2 1166.37 1222 1225.79 1089.35 1061.97 1042.2 1041.89 1044.53 1041.22 1072.34 1065.29 1055.12 1041.79 1040.96 1044.58 1041.97 1042.5 1092.41 1099.68 758.626 744.874 736.716 742.994 761.163 787.414 842.502 859.463 852.985 822.389 788.779 761.514 742.963 735.395 763.055 764.2 610.622 744.351 
</DataArray>
<DataArray type="Float64" Name="cell variable 5" format="ascii">
0.001702 0.001702 0.001702 0.001702 0.001702 0.001702 0.001702 0.001702 0.001702 0.001702 0.001702 0.001702 0.001702 0.001702 0.001702 0.001702 0.001702 0.001702 0.001702 0.001702 0.001702 0.001702 0.001702 0.001702 0.001702 0.001702 0.001702 0.001702 0.001702 0.001702 0.001702 0.001702 0.001702 0.001702 0.001702 0.001702 0.001702 0.001702 0.001702 0.001702 0.001702 0.001702 0.001702 0.001702 0.001702 0.001702 0.001702 0.001702 0.00257229 0.00238129 0.00207304 0.00177916 0.001702 0.001702 0.001702 0.001702 0.001702 0.001702 0.001702 0.001702 0.00177916 0.00207304 0.00238129 0.00257229 0.00291043 0.00264529 0.00221714 0.00180904 0.001702 0.001702 0.001702 0.001702 0.001702 0.001702 0.001702 0.001702 0.00180904 0.00221714 0.00264529 0.00291043 0.00310634 0.00279847 0.00230073 0.00182644 0.001702 0.001702 0.001702 0.001702 0.001702 0.001702 0.001702 0.001702 0.00182644 0.00230073 0.00279847 0.00310634 0.00324893 0.00290929 0.00236162 0.0018393 0.001702 0.001702 0.001702 0.001702 0.001702 0.001702 0.001702 0.001702 0.0018393 0.00236162 0.00290929 0.00324893 0.00336013 0.00299628 0.0024089 0.00184913 0.001702 0.001702 0.001702 0.001702 0.001702 0.001702 0.001702 0.001702 0.00184913 0.0024089 0.00299628 0.00336013 0.00344977 0.00306625 0.0024471 0.00185707 0.001702 0.001702 0.001702 0.001702 0.001702 0.001702 0.001702 0.001702 0.00185707 0.0024471 0.00306625 0.00344977 0.00352315 0.00312336 0.00247849 0.0018635 0.001702 0.001702 0.001702 0.001702 0.001702 0.001702 0.001702 0.001702 0.0018635 0.00247849 0.00312336 0.00352315 0.00358253 0.00316989 0.00250384 0.0018688 0.001702 0.001702 0.001702 0.001702 0.001702 0.001702 0.001702 0.001702 0.0018688 0.00250384 0.00316989 0.00358253 0.00363018 0.00320733 0.00252426 0.00187296 0.001702 0.001702 0.001702 0.001702 0.001702 0.001702 0.001702 0.001702 0.00187296 0.00252426 0.00320733 0.00363018 0.00366725 0.00323608 0.00253977 0.00187636 0.001702 0.001702 0.001702 0.001702 0.001702 0.001702 0.001702 0.001702 0.00187636 0.00253977 0.00323608 0.00366725 0.00369448 0.00325726 0.00255149 0.00187863 0.001702 0.001702 0.001702 0.001702 0.001702 0.001702 0.001702 0.001702 0.00187863 0.00255149 0.00325726 0.00369448 0.00371264 0.00327125 0.00255906 0.00188052 0.001702 0.001702 0.001702 0.001702 0.001702 0.001702 0.001702 0.001702 0.00188052 0.00255906 0.00327125 0.00371264 0.00372134 0.00327844 0.00256284 0.00188128 0.001702 0.001702 0.001702 0.001702 0.001702 0.001702 0.001702 0.001702 0.00188128 0.00256284 0.00327844 0.00372134 0.00372134 0.00327844 0.00256284 0.00188128 0.001702 0.001702 0.001702 0.001702 0.001702 0.001702 0.001702 0.001702 0.00188128 0.00256284 0.00327844 0.00372134 0.00371264 0.00327125 0.00255906 0.00188052 0.001702 0.001702 0.001702 0.001702 0.001702 0.001702 0.001702 0.001702 0.00188052 0.00255906 0.00327125 0.00371264 0.00369448 0.00325726 0.00255149 0.00187863 0.001702 0.001702 0.001702 0.001702 0.001702 0.001702 0.001702 0.001702 0.00187863 0.00255149 0.00325726 0.00369448 0.00366725 0.00323608 0.00253977 0.00187636 0.001702 0.001702 0.001702 0.001702 0.001702 0.001702 0.001702 0.001702 0.00187636 0.00253977 0.00323608 0.00366725 0.00363018 0.00320733 0.00252426 0.00187296 0.001702 0.001702 0.001702 0.001702 0.001702 0.001702 0.001702 0.001702 0.00187296 0.00252426 0.00320733 0.00363018 0.00358253 0.00316989 0.00250384 0.0018688 0.001702 0.001702 0.001702 0.001702 0.001702 0.001702 0.001702 0.001702 0.0018688 0.00250384 0.00316989 0.00358253 0.00352315 0.00312336 0.00247849 0.0018635 0.001702 0.001702 0.001702 0.001702 0.001702 0.001702 0.001702 0.001702 0.0018635 0.00247849 0.00312336 0.00352315 0.00344977 0.00306625 0.0024471 0.00185707 0.001702 0.001702 0.001702 0.001702 0.001702 0.001702 0.001702 0.001702 0.00185707 0.0024471 0.00306625 0.00344977 0.00336013 0.00299628 0.0024089 0.00184913 0.001702 0.001702 0.001702 0.001702 0.001702 0.001702 0.001702 0.001702 0.00184913 0.0024089 0.00299628 0.00336013 0.00324893 0.00290929 0.00236162 0.0018393 0.001702 0.001702 0.001702 0.001702 0.001702 0.001702 0.001702 0.001702 0.0018393 0.00236162 0.00290929 0.00324893 0.00310634 0.00279847 0.00230073 0.00182644 0.001702 0.001702 0.001702 0.001702 0.001702 0.001702 0.001702 0.001702 0.00182644 0.00230073 0.00279847 0.00310634 0.00291043 0.00264529 0.00221714 0.00180904 0.001702 0.001702 0.001702 0.001702 0.001702 0.001702 0.001702 0.001702 0.00180904 0.00221714 0.00264529 0.00291043 0.00257229 0.00238129 0.00207304 0.00177916 0.001702 0.001702 0.001702 0.001702 0.001702 0.001702 0.001702 0.001702 0.00177916 0.00207304 0.00238129 0.00257229 0.001702 0.001702 0.001702 0.001702 0.001702 0.001702 0.001702 0.001702 0.001702 0.001702 0.001702 0.001702 0.001702 0.001702 0.001702 0.001702 0.001702 0.001702 0.001702 0.001702 0.001702 0.001702 0.001702 0.001702 0.001702 0.001702 0.001702 0.001702 0.001702 0.001702 0.001702 0.001702 0.001702 0.001702 0.001702 0.001702 0.001702 0.001702 0.001702 0.001702 0.001702 0.001702 0.001702 0.001702 0.001702 0.001702 0.001702 0.001702 0.001702 0.001702 
</DataArray>
<DataArray type="Float64" Name="cell variable 6" format="ascii">
1 1 1 1 1 1 1 1 1 1 1 1 1 1 1 1 1 1 1 1 1 1 1 1 1 1 1 1 1 1 1 1 1 1 1 1 1 1 1 1 1 1 1 1 1 1 1 1 1 1 1 1 1 1 1 1 1 1 1 1 1 1 1 1 1 1 1 1 1 1 1 1 1 1 1 1 1 1 1 1 1 1 1 1 1 1 1 1 1 1 1 1 1 1 1 1 1 1 1 1 1 1 1 1 1 1 1 1 1 1 1 1 1 1 1 1 1 1 1 1 1 1 1 1 1 1 1 1 1 1 1 1 1 1 1 1 1 1 1 1 1 1 1 1 1 1 1 1 1 1 1 1 1 1 1 1 1 1 1 1 1 1 1 1 1 1 1 1 1 1 1 1 1 1 1 1 1 1 1 1 1 1 1 1 1 1 1 1 1 1 1 1 1 1 1 1 1 1 1 1 1 1 1 1 1 1 1 1 1 1 1 1 1 1 1 1 1 1 1 1 1 1 1 1 1 1 1 1 1 1 1 1 1 1 1 1 1 1 1 1 1 1 1 1 1 1 1 1 1 1 1 1 1 1 1 1 1 1 1 1 1 1 1 1 1 1 1 1 1 1 1 1 1 1 1 1 1 1 1 1 1 1 1 1 1 1 1 1 1 1 1 1 1 1 1 1 1 1 1 1 1 1 1 1 1 1 1 1 1 1 1 1 1 1 1 1 1 1 1 1 1 1 1 1 1 1 1 1 1 1 1 1 1 1 1 1 1 1 1 1 1 1 1 1 1 1 1 1 1 1 1 1 1 1 1 1 1 1 1 1 1 1 1 1 1 1 1 1 1 1 1 1 1 1 1 1 1 1 1 1 1 1 1 1 1 1 1 1 1 1 1 1 1 1 1 1 1 1 1 1 1 1 1 1 1 1 1 1 1 1 1 1 1 1 1 1 1 1 1 1 1 1 1 1 1 1 1 1 1 1 1 1 1 1 1 1 1 1 1 1 1 1 1 1 1 1 1 1 1 1 1 1 1 1 1 1 1 1 1 1 1 1 1 1 1 1 1 1 1 1 1 1 1 1 1 1 1 1 1 1 1 1 1 1 1 1 1 1 1 1 1 1 1 1 1 1 1 1 1 1 1 1 1 1 1 1 1 1 1 1 1 1 1 1 
</DataArray>
<DataArray type="Float64" Name="cell variable 7" format="ascii">
0 0 0 0 0 0 0 0 0 0 0 0 0 0 0 0 0 0 0 0 0 0 0 0 0 0 0 0 0 0 0 0 0 0 0 0 0 0 0 0 0 0 0 0 0 0 0 0 0 0 0 0 0 0 0 0 0 0 0 0 0 0 0 0 0 0 0 0 0 0 0 0 0 0 0 0 0 0 0 0 0 0 0 0 0 0 0 0 0 0 0 0 0 0 0 0 0 0 0 0 0 0 0 0 0 0 0 0 0 0 0 0 0 0 0 0 0 0 0 0 0 0 0 0 0 0 0 0 0 0 0 0 0 0 0 0 0 0 0 0 0 0 0 0 0 0 0 0 0 0 0 0 0 0 0 0 0 0 0 0 0 0 0 0 0 0 0 0 0 0 0 0 0 0 0 0 0 0 0 0 0 0 0 0 0 0 0 0 0 0 0 0 0 0 0 0 0 0 0 0 0 0 0 0 0 0 0 0 0 0 0 0 0 0 0 0 0 0 0 0 0 0 0 0 0 0 0 0 0 0 0 0 0 0 0 0 0 0 0 0 0 0 0 0 0 0 0 0 0 0 0 0 0 0 0 0 0 0 0 0 0 0 0 0 0 0 0 0 0 0 0 0 0 0 0 0 0 0 0 0 0 0 0 0 0 0 0 0 0 0 0 0 0 0 0 0 0 0 0 0 0 0 0 0 0 0 0 0 0 0 0 0 0 0 0 0 0 0 0 0 0 0 0 0 0 0 0 0 0 0 0 0 0 0 0 0 0 0 0 0 0 0 0 0 0 0 0 0 0 0 0 0 0 0 0 0 0 0 0 0 0 0 0 0 0 0 0 0 0 0 0 0 0 0 0 0 0 0 0 0 0 0 0 0 0 0 0 0 0 0 0 0 0 0 0 0 0 0 0 0 0 0 0 0 0 0 0 0 0 0 0 0 0 0 0 0 0 0 0 0 0 0 0 0 0 0 0 0 0 0 0 0 0 0 0 0 0 0 0 0 0 0 0 0 0 0 0 0 0 0 0 0 0 0 0 0 0 0 0 0 0 0 0 0 0 0 0 0 0 0 0 0 0 0 0 0 0 0 0 0 0 0 0 0 0 0 0 0 0 0 0 0 0 0 0 0 0 0 0 0 0 0 0 0 0 0 0 0 0 0 0 0 1 1 
</DataArray>
<DataArray type="Float64" Name="cell variable 8" format="ascii">
11.25 33.75 56.25 78.75 101.25 123.75 146.25 168.75 191.25 213.75 236.25 258.75 281.25 303.75 326.25 348.75 11.25 33.75 56.25 78.75 101.25 123.75 146.25 168.75 191.25 213.75 236.25 258.75 281.25 303.75 326.25 348.75 11.25 33.75 56.25 78.75 101.25 123.75 146.25 168.75 191.25 213.75 236.25 258.75 281.25 303.75 326.25 348.75 11.25 33.75 56.25 78.75 101.25 123.75 146.25 168.75 191.25 213.75 236.25 258.75 281.25 303.75 326.25 348.75 11.25 33.75 56.25 78.75 101.25 123.75 146.25 168.75 191.25 213.75 236.25 258.75 281.25 303.75 326.25 348.75 11.25 33.75 56.25 78.75 101.25 123.75 146.25 168.75 191.25 213.75 236.25 258.75 281.25 303.75 326.25 348.75 11.25 33.75 56.25 78.75 101.25 123.75 146.25 168.75 191.25 213.75 236.25 258.75 281.25 303.75 326.25 348.75 11.25 33.75 56.25 78.75 101.25 123.75 146.25 168.75 191.25 213.75 236.25 258.75 281.25 303.75 326.25 348.75 11.25 33.75 56.25 78.75 101.25 123.75 146.25 168.75 191.25 213.75 236.25 258.75 281.25 303.75 326.25 348.75 11.25 33.75 56.25 78.75 101.25 123.75 146.25 168.75 191.25 213.75 236.25 258.75 281.25 303.75 326.25 348.75 11.25 33.75 56.25 78.75 101.25 123.75 146.25 168.75 191.25 213.75 236.25 258.75 281.25 303.75 326.25 348.75 11.25 33.75 56.25 78.75 101.25 123.75 146.25 168.75 191.25 213.75 236.25 258.75 281.25 303.75 326.25 348.75 11.25 33.75 56.25 78.75 101.25 123.75 146.25 168.75 191.25 213.75 236.25 258.75 281.25 303.75 326.25 348.75 11.25 33.75 56.25 78.75 101.25 123.75 146.25 168.75 191.25 213.75 236.25 258.75 281.25 303.75 326.25 348.75 11.25 33.75 56.25 78.75 101.25 123.75 146.25 168.75 191.25 213.75 236.25 258.75 281.25 303.75 326.25 348.75 11.25 33.75 56.25 78.75 101.25 123.75 146.25 168.75 191.25 213.75 236.25 258.75 281.25 303.75 326.25 348.75 11.25 33.75 56.25 78.75 101.25 123.75 146.25 168.75 191.25 213.75 236.25 258.75 281.25 303.75 326.25 348.75 11.25 33.75 56.25 78.75 101.25 123.75 146.25 168.75 191.25 213.75 236.25 258.75 281.25 303.75 326.25 348.75 11.25 33.75 56.25 78.75 101.25 123.75 146.25 168.75 191.25 213.75 236.25 258.75 281.25 303.75 326.25 348.75 11.25 33.75 56.25 78.75 101.25 123.75 146.25 168.75 191.25 213.75 236.25 258.75 281.25 303.75 326.25 348.75 11.25 33.75 56.25 78.75 101.25 123.75 146.25 168.75 191.25 213.75 236.25 258.75 281.25 303.75 326.25 348.75 11.25 33.75 56.25 78.75 101.25 123.75 146.25 168.75 191.25 213.75 236.25 258.75 281.25 303.75 326.25 348.75 11.25 33.75 56.25 78.75 101.25 123.75 146.25 168.75 191.25 213.75 236.25 258.75 281.25 303.75 326.25 348.75 11.25 33.75 56.25 78.75 101.25 123.75 146.25 168.75 191.25 213.75 236.25 258.75 281.25 303.75 326.25 348.75 11.25 33.75 56.25 78.75 101.25 123.75 146.25 168.75 191.25 213.75 236.25 258.75 281.25 303.75 326.25 348.75 11.25 33.75 56.25 78.75 101.25 123.75 146.25 168.75 191.25 213.75 236.25 258.75 281.25 303.75 326.25 348.75 11.25 33.75 56.25 78.75 101.25 123.75 146.25 168.75 191.25 213.75 236.25 258.75 281.25 303.75 326.25 348.75 11.25 33.75 56.25 78.75 101.25 123.75 146.25 168.75 191.25 213.75 236.25 258.75 281.25 303.75 326.25 348.75 11.25 33.75 56.25 78.75 101.25 123.75 146.25 168.75 191.25 213.75 236.25 258.75 281.25 303.75 326.25 348.75 11.25 33.75 56.25 78.75 101.25 123.75 146.25 168.75 191.25 213.75 236.25 258.75 281.25 303.75 326.25 348.75 11.25 33.75 56.25 78.75 101.25 123.75 146.25 168.75 191.25 213.75 236.25 258.75 281.25 303.75 326.25 348.75 11.25 33.75 56.25 78.75 101.25 123.75 146.25 168.75 191.25 213.75 236.25 258.75 281.25 303.75 326.25 348.75 0 0 
</DataArray>
</CellData>
</Piece>
</UnstructuredGrid>
</VTKFile>
