<VTKFile type="UnstructuredGrid" version="0.1">
<UnstructuredGrid>
<Piece  NumberOfPoints="    2080" NumberOfCells="     514">
<Points>
<DataArray type="Float64" NumberOfComponents="3" format="ascii">
-324.15 717.47 1.11726
-323.042 722.499 26.881
-296.585 711.804 29.0012
-297.823 706.359 1.14597
-322.79 723.618 29.6322
-319.588 737.908 51.4259
-292.824 728.392 55.3081
-296.333 712.922 31.7524
-319.126 739.971 53.5258
-314.404 761.315 68.0229
-287.197 753.556 73.0996
-292.362 730.455 57.408
-313.818 764.008 69.1563
-308.471 789.166 74.2101
-280.798 783.504 79.7711
-286.611 756.248 74.2329
-307.873 792.084 74.211
-302.873 817.312 69.1243
-274.859 813.81 74.2909
-280.201 786.422 79.772
-302.355 820.02 67.9896
-298.337 841.512 53.4822
-270.043 839.788 57.4012
-274.341 816.517 73.1561
-297.953 843.59 51.3782
-295.3 857.985 29.5793
-266.79 857.423 31.6896
-269.659 841.866 55.2972
-295.092 859.11 26.8262
-294.142 864.157 1.06692
-265.551 864.005 1.0754
-266.582 858.547 28.9365
-294.14 864.155 -1.91416
-295.059 859.083 -27.6699
-266.541 858.525 -29.7631
-265.549 864.004 -1.90568
-295.264 857.956 -30.4222
-297.905 843.544 -52.2136
-269.6 841.824 -56.1104
-266.747 857.398 -32.5154
-298.288 841.465 -54.3161
-302.299 819.963 -68.8112
-274.28 816.462 -73.951
-269.983 839.745 -58.213
-302.817 817.254 -69.9442
-307.813 792.021 -75.0139
-280.134 786.363 -80.5497
-274.798 813.754 -75.0841
-308.41 789.103 -75.0112
-313.76 763.948 -69.9406
-286.545 756.193 -74.9922
-280.732 783.445 -80.547
-314.346 761.258 -68.8054
-319.061 739.925 -54.2889
-292.316 730.421 -58.1438
-287.131 753.503 -73.857
-319.524 737.863 -52.1868
-322.734 723.595 -30.3828
-296.317 712.905 -32.4548
-292.779 728.36 -56.0417
-322.989 722.478 -27.6293
-324.148 717.469 -1.86463
-297.821 706.358 -1.83592
-296.572 711.789 -29.7012
-294.646 705.329 1.22277
-293.408 710.774 29.078
-262.252 703.019 29.7217
-263.542 697.484 1.23621
-289.629 727.416 55.524
-258.303 719.919 56.7315
-261.982 704.191 32.6121
-293.138 711.946 31.9684
-283.97 752.68 73.4228
-252.381 745.608 75.024
-257.809 722.082 58.9386
-289.135 729.579 57.7312
-277.534 782.76 80.1546
-245.729 776.247 81.906
-251.758 748.432 76.2176
-283.347 755.504 74.6164
-271.568 813.213 74.6759
-239.801 807.307 76.2479
-245.105 779.312 81.9085
-276.91 785.825 80.1571
-266.737 839.329 57.726
-235.026 833.928 58.9084
-239.268 810.152 75.053
-271.035 816.058 73.481
-263.471 857.068 31.9052
-231.747 852.013 32.549
-234.629 836.11 56.6952
-266.34 841.511 55.5128
-262.223 863.707 1.15158
-230.484 858.773 1.16428
-231.529 853.194 29.6564
-263.254 858.249 29.0127
-263.213 858.227 -29.8367
-231.496 853.168 -30.4516
-230.482 858.772 -1.96653
-262.221 863.706 -1.97924
-266.281 841.469 -56.3232
-234.575 836.069 -57.4707
-231.711 851.985 -33.3431
-263.428 857.044 -32.7281
-270.974 816.004 -74.2728
-239.206 810.099 -75.8124
-234.971 833.886 -59.6823
-266.677 839.286 -58.5347
-276.843 785.766 -80.9314
-245.038 779.253 -82.6478
-239.739 807.252 -77.0054
-271.507 813.157 -75.4658
-283.28 755.45 -75.3722
-251.693 748.377 -76.9362
-245.661 776.188 -82.6434
-277.467 782.701 -80.927
-289.09 729.545 -58.4634
-257.763 722.041 -59.6393
-252.317 745.553 -75.7406
-283.904 752.626 -74.1766
-293.124 711.929 -32.6667
-261.964 704.165 -33.2831
-258.26 719.88 -57.4296
-289.586 727.384 -56.2537
-293.396 710.759 -29.7743
-294.646 705.328 -1.90897
-263.541 697.483 -1.89553
-262.237 702.995 -30.3907
-260.071 696.679 1.25893
-258.78 702.214 29.7445
-227.271 695.492 29.8885
-228.61 689.955 1.27329
-258.498 703.397 32.6755
-254.819 719.124 56.7949
-223.136 712.407 57.071
-226.988 696.674 32.8195
-254.299 721.307 59.0357
-248.87 744.833 75.1211
-216.87 738.136 75.5103
-222.616 714.59 59.3118
-248.221 747.687 76.3322
-242.192 775.503 82.0206
-210.024 768.903 82.4151
-216.22 740.991 76.7214
-241.566 778.607 82.0232
-236.262 806.601 76.3626
-204.354 800.24 76.778
-209.397 772.007 82.4178
-235.743 809.491 75.1509
-231.502 833.267 59.0064
-199.773 827.124 59.36
-203.835 803.13 75.5663
-231.112 835.483 56.761
-228.229 851.386 32.6148
-196.531 845.357 32.8165
-199.383 829.34 57.1146
-228.012 852.584 29.6805
-226.967 858.163 1.1884
-195.263 852.166 1.20612
-196.314 846.555 29.8823
-226.965 858.162 -1.98724
-227.979 852.557 -30.4723
-196.287 846.53 -30.6404
-195.261 852.165 -1.96951
-228.194 851.357 -33.4054
-231.058 835.442 -57.5331
-199.335 829.298 -57.8568
-196.502 845.33 -33.5734
-231.447 833.225 -59.7767
-235.682 809.438 -75.9068
-203.776 803.074 -76.2918
-199.724 827.081 -60.1004
-236.199 806.546 -77.1166
-241.499 778.547 -82.759
-209.332 771.946 -83.1226
-204.294 800.183 -77.5017
-242.125 775.443 -82.7543
-248.156 747.632 -77.0471
-216.157 740.933 -77.4064
-209.958 768.842 -83.1179
-248.806 744.778 -75.8342
-254.253 721.267 -59.7329
-222.566 714.545 -59.9813
-216.807 738.08 -76.1934
-254.775 719.085 -57.4898
-258.48 703.37 -33.3434
-226.967 696.642 -33.4596
-223.088 712.363 -57.7382
-258.765 702.189 -30.4104
-260.07 696.678 -1.91519
-228.609 689.954 -1.90084
-227.252 695.462 -30.5266
-225.14 689.189 1.28142
-223.801 694.726 29.8966
-192.714 687.639 29.9557
-194.23 682.135 1.29462
-223.493 695.907 32.8393
-219.64 711.64 57.0908
-188.059 704.456 57.1928
-192.406 688.82 32.8984
-219.072 713.819 59.3402
-213.326 737.366 75.5387
-181.016 730.047 75.6804
-187.49 706.636 59.4421
-212.608 740.222 76.753
-206.411 768.134 82.4467
-172.927 760.603 82.5658
-180.298 732.903 76.8947
-205.709 771.246 82.4422
-200.665 799.479 76.8025
-165.576 791.731 76.9244
-172.224 763.715 82.5613
-200.08 802.364 75.5842
-196.018 826.358 59.3778
-159.625 818.471 59.5102
-164.991 794.616 75.7061
-195.577 828.567 57.1272
-192.725 844.584 32.8292
-155.521 836.591 32.9138
-159.183 820.679 57.2596
-192.479 845.776 29.888
-191.429 851.388 1.21184
-153.952 843.352 1.23135
-155.275 837.784 29.9726
-191.427 851.386 -1.97124
-192.453 845.752 -30.6421
-155.252 837.762 -30.6897
-153.951 843.351 -1.95173
-192.696 844.557 -33.5824
-195.53 828.525 -57.8658
-159.14 820.637 -57.9662
-155.495 836.567 -33.63
-195.969 826.315 -60.1149
-200.021 802.308 -76.3063
-164.934 794.56 -76.3967
-159.58 818.427 -60.2153
-200.605 799.422 -77.5228
-205.643 771.185 -83.1437
-172.16 763.653 -83.2329
-165.518 791.674 -77.6131
-206.346 768.073 -83.1463
-212.544 740.164 -77.4347
-180.235 732.844 -77.5486
-172.862 760.541 -83.2354
-213.263 737.309 -76.2187
-219.022 713.775 -60.0066
-187.437 706.589 -60.0826
-180.954 729.989 -76.3326
-219.592 711.596 -57.755
-223.471 695.875 -33.4764
-192.378 688.784 -33.5095
-188.008 704.411 -57.831
-223.781 694.696 -30.5317
-225.139 689.188 -1.90595
-194.228 682.134 -1.89275
-192.689 687.605 -30.5648
-190.813 681.283 1.29815
-189.297 686.786 29.9593
-158.69 678.473 29.986
-160.403 673.037 1.31248
-188.949 687.957 32.9059
-184.602 703.594 57.2002
-153.432 695.097 57.2439
-158.342 679.644 32.9326
-183.96 705.756 59.4526
-177.486 729.167 75.6908
-145.451 720.411 75.7359
-152.79 697.259 59.4963
-176.659 731.995 76.9046
-169.288 759.695 82.5757
-136.096 750.605 82.6271
-144.624 723.24 76.9497
-168.435 762.774 82.5703
-161.787 790.79 76.9334
-127.128 781.33 76.9579
-135.243 753.684 82.6217
-161.046 793.648 75.7145
-155.679 817.503 59.5186
-119.756 807.739 59.5395
-126.386 784.188 75.739
-155.122 819.691 57.2668
-151.459 835.603 32.921
-114.735 825.657 32.9456
-119.199 809.927 57.2878
-151.154 836.785 29.9766
-149.831 842.353 1.23539
-112.835 832.346 1.25368
-114.429 826.839 30.0013
-149.83 842.352 -1.95166
-151.13 836.762 -30.6896
-114.408 826.817 -30.6781
-112.833 832.345 -1.93337
-151.434 835.578 -33.6333
-155.079 819.649 -57.9695
-119.159 809.886 -57.9552
-114.712 825.633 -33.6218
-155.634 817.459 -60.22
-160.989 793.592 -76.4014
-126.331 784.132 -76.3922
-119.715 807.696 -60.2057
-161.729 790.733 -77.6187
-168.371 762.712 -83.2384
-135.18 753.623 -83.2583
-127.072 781.273 -77.6095
-169.223 759.633 -83.2421
-176.596 731.936 -77.5553
-144.561 723.181 -77.571
-136.033 750.544 -83.262
-177.423 729.109 -76.34
-183.907 705.709 -60.0899
-152.735 697.21 -60.1056
-145.389 720.353 -76.3557
-184.551 703.548 -57.8354
-188.922 687.921 -33.5139
-158.311 679.606 -33.5122
-153.379 695.049 -57.8511
-189.272 686.752 -30.5652
-190.812 681.281 -1.89321
-160.401 673.035 -1.87887
-158.662 678.437 -30.5635
-157.043 672.042 1.31485
-155.331 677.478 29.9884
-125.261 667.797 30.0074
-127.185 662.444 1.3303
-154.939 678.633 32.9366
-150.029 694.086 57.2479
-119.348 684.175 57.2778
-124.869 668.952 32.9557
-149.303 696.221 59.5013
-141.964 719.373 75.7409
-110.346 709.129 75.778
-118.623 686.31 59.5312
-141.022 722.164 76.9547
-132.494 749.53 82.632
-99.697 738.881 82.6721
-109.404 711.919 76.9918
-131.498 752.564 82.6257
-123.382 780.21 76.962
-89.2038 769.122 76.9855
-98.7005 741.916 82.6659
-122.492 783.027 75.7414
-115.863 806.578 59.542
-80.463 795.111 59.5567
-88.3139 771.939 75.765
-115.193 808.736 57.2899
-110.728 824.466 32.9477
-74.5378 812.759 32.9653
-79.793 797.269 57.3047
-110.363 825.632 30.0034
-108.769 831.14 1.25583
-72.3098 819.353 1.27408
-74.1732 813.926 30.021
-108.768 831.138 -1.93149
-110.343 825.611 -30.6762
-74.1546 813.905 -30.6575
-72.3088 819.352 -1.91324
-110.705 824.442 -33.6199
-115.153 808.695 -57.9534
-79.756 797.229 -57.9328
-74.5172 812.737 -33.6013
-115.821 806.536 -60.2044
-122.438 782.971 -76.3908
-88.2612 771.885 -76.3803
-80.4242 795.069 -60.1837
-123.326 780.153 -77.6099
-131.435 752.503 -83.2587
-98.6391 741.855 -83.2666
-89.1499 769.067 -77.5994
-132.431 749.468 -83.2635
-140.96 722.105 -77.5725
-109.342 711.86 -77.5789
-99.6352 738.82 -83.2714
-141.902 719.315 -76.3574
-149.248 696.172 -60.1074
-118.566 686.259 -60.1079
-110.284 709.07 -76.3639
-149.975 694.038 -57.8519
-154.908 678.595 -33.5129
-124.836 668.912 -33.5015
-119.293 684.125 -57.8525
-155.302 677.442 -30.5625
-157.042 672.04 -1.87792
-127.184 662.442 -1.86247
-125.231 667.759 -30.5511
-123.889 661.296 1.33239
-121.964 666.649 30.0095
-92.4752 655.582 30.0269
-94.6224 650.324 1.34863
-121.525 667.786 32.9587
-116.005 683.009 57.2809
-85.8755 671.673 57.306
-92.0361 656.719 32.976
-115.191 685.11 59.5351
-106.914 707.929 75.7819
-75.8073 696.199 75.8157
-85.0617 673.774 59.5602
-105.853 710.675 76.9959
-96.1454 737.636 82.6763
-63.8412 725.437 82.71
-74.7461 698.946 77.0297
-95.008 740.62 82.6693
-85.5113 767.826 76.989
-51.8839 755.129 77.0135
-62.7038 728.421 82.7031
-84.4798 770.595 75.7673
-76.6288 793.767 59.5591
-41.824 780.633 59.5754
-50.8524 757.898 75.7919
-75.849 795.888 57.3065
-70.5938 811.378 32.9672
-35.0143 797.961 32.9841
-41.0442 782.754 57.3228
-70.1711 812.525 30.023
-68.3077 817.953 1.27603
-32.4627 804.44 1.29427
-34.5917 799.108 30.0399
-68.3068 817.951 -1.91115
-70.1526 812.505 -30.6555
-34.5749 799.089 -30.6362
-32.4617 804.439 -1.89291
-70.5735 811.356 -33.5991
-75.8122 795.848 -57.9306
-41.0097 782.716 -57.9116
-34.9957 797.94 -33.5798
-76.5903 793.725 -60.1822
-84.4273 770.54 -76.3788
-50.802 757.844 -76.3692
-41.7878 780.593 -60.1632
-85.4576 767.771 -77.5992
-94.9468 740.559 -83.2664
-62.644 728.36 -83.2673
-51.8323 755.074 -77.5896
-96.0837 737.575 -83.2719
-105.79 710.615 -77.5795
-74.6844 698.886 -77.5819
-63.7809 725.376 -83.2729
-106.852 707.87 -76.3645
-115.134 685.059 -60.1085
-85.0042 673.723 -60.1032
-75.7458 696.14 -76.3668
-115.949 682.959 -57.8521
-121.492 667.746 -33.5011
-92.0023 656.676 -33.4866
-85.8194 671.623 -57.8468
-121.934 666.611 -30.5497
-123.887 661.294 -1.86105
-94.6207 650.322 -1.84481
-92.4443 655.542 -30.5352
-91.3932 649.023 1.35065
-89.2461 654.281 30.0289
-60.3846 641.839 30.0458
-62.7607 636.688 1.36737
-88.7581 655.397 32.9786
-82.5975 670.352 57.3086
-53.0798 657.605 57.3308
-59.8967 642.955 32.9956
-81.6926 672.413 59.5636
-72.4382 694.838 75.8191
-41.9245 681.641 75.8487
-52.1749 659.667 59.5858
-71.2552 697.533 77.0333
-60.3503 724.024 82.7136
-28.6323 710.291 82.7422
-40.7415 684.336 77.0628
-59.074 726.95 82.7061
-48.2541 753.658 77.0166
-15.255 739.369 77.0396
-27.356 713.217 82.7348
-47.0862 756.372 75.7943
-38.0578 779.108 59.5778
-3.9247 764.331 59.5948
-14.0871 742.082 75.8172
-37.1716 781.187 57.3247
-31.1417 796.394 32.986
3.7463 781.296 33.0028
-3.03849 766.41 57.3417
-30.6621 797.518 30.0418
-28.5332 802.85 1.29621
6.61587 787.641 1.31438
4.22586 782.42 30.0587
-28.5323 802.849 -1.89082
-30.6455 797.499 -30.6341
4.24108 782.401 -30.6149
6.61671 787.64 -1.87266
-31.1233 796.372 -33.5778
-37.1373 781.148 -57.9095
-3.00632 766.373 -57.8912
3.76322 781.275 -33.5586
-38.0219 779.068 -60.1617
-47.036 756.319 -76.3678
-14.039 742.03 -76.3565
-3.89088 764.292 -60.1434
-48.2026 753.604 -77.5889
-59.0144 726.89 -83.2667
-27.2982 713.157 -83.2623
-15.2056 739.315 -77.5776
-60.2901 723.964 -83.2729
-71.1936 697.473 -77.5819
-40.6808 684.276 -77.5795
-28.5739 710.231 -83.2685
-72.3766 694.779 -76.3667
-81.6351 672.361 -60.1031
-52.1175 659.614 -60.0944
-41.8638 681.582 -76.3644
-82.5414 670.301 -57.8459
-88.7243 655.354 -33.4857
-59.8632 642.91 -33.47
-53.0238 657.553 -57.8372
-89.2152 654.241 -30.5336
-91.3916 649.021 -1.84318
-62.7591 636.685 -1.82646
-60.3541 641.797 -30.5179
-59.6043 635.236 1.36935
-57.2282 640.387 30.0478
-29.0444 626.591 30.0648
-31.6519 621.558 1.38632
-56.6906 641.479 32.9979
-49.8738 656.13 57.3331
-21.0286 641.995 57.3534
-28.5068 627.683 33.0149
-48.8765 658.147 59.5887
-38.626 680.121 75.8516
-8.78074 665.479 75.8768
-20.0313 644.012 59.609
-37.3206 682.757 77.0659
-25.2114 708.713 82.7453
5.83288 693.471 82.7699
-7.47537 668.116 77.0911
-23.7983 711.574 82.7375
-11.6973 737.726 77.0423
20.5933 721.867 77.0621
7.24598 696.332 82.7621
-10.3975 740.379 75.8195
-0.235147 762.628 59.5971
33.1486 746.234 59.6135
21.893 724.52 75.8393
0.754001 764.66 57.3436
7.53878 779.545 33.0048
41.6552 762.794 33.0215
34.1377 748.266 57.3601
8.0738 780.644 30.0606
10.4638 785.865 1.31631
44.8354 768.991 1.33436
42.1902 763.894 30.0773
10.4646 785.864 -1.87059
8.08895 780.626 -30.6128
42.2041 763.876 -30.5937
44.8362 768.99 -1.85253
7.55553 779.524 -33.5565
0.785982 764.622 -57.8892
34.1678 748.23 -57.8705
41.6707 762.775 -33.5374
-0.201556 762.589 -60.1418
-10.3497 740.326 -76.3548
21.9388 724.468 -76.3404
33.1802 746.196 -60.1231
-11.6481 737.672 -77.5766
-23.7407 711.514 -83.2612
7.3018 696.272 -83.2526
20.6403 721.814 -77.5622
-25.1532 708.653 -83.2679
-37.26 682.697 -77.579
-7.41607 668.056 -77.572
5.88932 693.41 -83.2593
-38.5654 680.062 -76.3638
-48.8191 658.094 -60.0938
-19.9746 643.958 -60.0829
-8.72146 665.42 -76.3568
-49.8178 656.077 -57.836
-56.6572 641.434 -33.4688
-28.4745 627.636 -33.4527
-20.9733 641.941 -57.8251
-57.1977 640.345 -30.5161
-59.6027 635.234 -1.82473
-31.6503 621.556 -1.80776
-29.0149 626.547 -30.5
-28.5738 619.958 1.38828
-25.9662 624.991 30.0667
1.48672 609.867 30.0835
-1.35209 604.965 1.4053
-25.3789 626.056 33.0171
-17.9007 640.368 57.3555
10.2103 624.87 57.374
2.07407 610.932 33.0338
-16.8111 642.336 59.6115
-5.56055 663.803 75.8793
23.5431 647.746 75.9009
11.2999 626.838 59.63
-4.13355 666.375 77.0937
9.1747 691.73 82.7725
39.4587 675.01 82.7938
24.9701 650.317 77.1153
10.7221 694.52 82.7644
24.0694 720.055 77.0644
55.5666 702.661 77.0819
41.0061 677.8 82.7857
25.497 722.641 75.8413
36.7526 744.355 59.6155
69.3074 726.376 59.6311
56.9942 705.247 75.8588
37.8413 746.335 57.362
45.3588 760.864 33.0233
78.6245 742.494 33.0398
70.3962 728.357 57.3776
45.9476 761.935 30.0793
48.5929 767.032 1.33629
82.1067 748.527 1.35422
79.2134 743.566 30.0957
48.5936 767.031 -1.85048
45.9615 761.918 -30.5916
79.2262 743.549 -30.5724
82.1074 748.526 -1.83255
45.3741 760.844 -33.5353
37.8712 746.299 -57.8684
70.4242 728.322 -57.8491
78.6388 742.475 -33.5161
36.784 744.317 -60.1212
25.5425 722.59 -76.3386
57.0374 705.196 -76.3221
69.337 726.34 -60.1019
24.1162 720.003 -77.5608
10.7777 694.46 -83.2512
41.0595 677.741 -83.2394
55.6111 702.609 -77.5442
9.23095 691.67 -83.2583
-4.07444 666.315 -77.571
25.0275 650.257 -77.5605
39.5127 674.951 -83.2465
-5.5014 663.744 -76.3558
-16.7546 642.282 -60.0819
11.3551 626.783 -60.0691
23.6005 647.686 -76.3453
-17.8456 640.314 -57.8236
-25.3467 626.009 -33.4513
2.10445 610.883 -33.4349
10.2641 624.815 -57.8109
-25.9369 624.947 -30.4982
-28.5723 619.956 -1.80598
-1.35058 604.962 -1.78896
1.51429 609.821 -30.4818
1.64185 603.22 1.40721
4.48065 608.122 30.0854
31.148 591.7 30.1016
28.0803 586.94 1.42408
5.11737 609.158 33.0358
13.2536 623.096 57.3761
40.5712 606.265 57.393
31.7847 592.736 33.0521
14.4346 625.009 59.6322
26.6778 645.917 75.9032
54.9728 628.474 75.9222
41.7522 608.179 59.6491
28.2246 648.417 77.1176
42.7132 673.11 82.7961
72.1658 654.945 82.8147
56.5196 630.975 77.1366
44.392 675.823 82.7878
58.9524 700.683 77.084
89.5841 681.786 77.1002
73.8446 657.658 82.8064
60.5039 703.196 75.8607
72.8172 724.326 59.633
104.468 704.798 59.6478
91.1356 684.299 75.8769
74.0022 726.25 57.3794
82.2305 740.388 33.0416
114.567 720.437 33.0575
105.653 706.722 57.3942
82.8716 741.429 30.0976
85.7649 746.39 1.35612
118.342 726.291 1.37373
115.209 721.478 30.1135
85.7655 746.389 -1.83052
82.8843 741.412 -30.5704
115.22 721.461 -30.5513
118.343 726.29 -1.8129
82.2446 740.369 -33.514
74.03 726.215 -57.847
105.68 706.688 -57.8275
114.581 720.419 -33.495
72.8466 724.289 -60.1
60.547 703.146 -76.3201
91.1764 684.249 -76.3028
104.496 704.762 -60.0804
58.9967 700.632 -77.5426
44.4451 675.764 -83.2378
73.8954 657.599 -83.2237
89.6261 681.735 -77.5253
42.767 673.051 -83.2452
28.2818 648.357 -77.5592
56.5747 630.914 -77.5465
72.2173 654.886 -83.2311
26.735 645.857 -76.3441
14.4896 624.954 -60.0679
41.8054 608.123 -60.0539
55.0279 628.414 -76.3314
13.3072 623.041 -57.8094
5.14755 609.109 -33.4333
31.8126 592.685 -33.4168
40.623 606.21 -57.7955
4.50811 608.076 -30.48
1.64324 603.217 -1.78715
28.0817 586.938 -1.77028
31.1732 591.653 -30.4635
30.984 585.054 1.42595
34.0517 589.813 30.1035
59.878 572.129 30.1194
56.5857 567.524 1.44251
34.737 590.817 33.054
43.5236 604.347 57.3949
69.9873 586.22 57.4106
60.5633 573.133 33.0699
44.7943 606.201 59.6511
58.0149 626.497 75.9242
85.4346 607.707 75.9407
71.2581 588.074 59.6668
59.6792 628.92 77.1386
75.3254 652.89 82.8166
103.874 633.32 82.8324
87.0989 610.13 77.1551
77.1321 655.519 82.8082
92.8715 679.647 77.102
122.563 659.287 77.1163
105.681 635.948 82.824
94.5429 682.081 75.8786
107.876 702.58 59.6495
138.549 681.544 59.6632
124.234 661.722 75.8929
109.153 704.444 57.396
118.067 718.158 33.0592
149.4 696.669 33.0744
139.826 683.408 57.4096
118.759 719.167 30.1154
121.892 723.98 1.37558
153.457 702.332 1.39276
150.092 697.678 30.1305
121.893 723.979 -1.81089
118.771 719.151 -30.5493
150.102 697.662 -30.5303
153.457 702.331 -1.7937
118.08 718.141 -33.4929
109.179 704.41 -57.8254
139.851 683.375 -57.8054
149.412 696.652 -33.4739
107.903 702.545 -60.0784
94.5835 682.032 -76.3008
124.273 661.673 -76.2822
138.574 681.51 -60.0584
92.9133 679.596 -77.5234
77.1826 655.46 -83.2218
105.729 635.89 -83.2056
122.602 659.238 -77.5049
75.3766 652.831 -83.2295
59.734 628.859 -77.5449
87.1513 610.07 -77.5303
103.923 633.261 -83.2133
58.0698 626.436 -76.3299
44.8473 606.145 -60.0525
71.3088 588.018 -60.0379
85.4871 607.647 -76.3153
43.5751 604.291 -57.7939
34.7647 590.767 -33.4152
60.5883 573.081 -33.3989
70.0366 586.164 -57.7793
34.0768 589.766 -30.4617
30.9853 585.051 -1.76848
56.5869 567.521 -1.75192
59.9003 572.081 -30.4454
59.3931 565.5 1.44432
62.6855 570.105 30.1213
87.615 551.197 30.1367
84.1035 546.758 1.46052
63.4183 571.074 33.0717
72.8423 584.162 57.4124
98.3927 564.779 57.4267
88.3478 552.166 33.0871
74.2007 585.952 59.6686
88.3772 605.585 75.9424
114.857 585.491 75.956
99.7511 566.569 59.6829
90.1558 607.925 77.1568
106.931 631.114 82.8341
134.506 610.181 82.846
116.636 587.83 77.1703
108.862 633.652 82.8255
125.744 656.991 77.1178
154.422 635.215 77.129
136.437 612.719 82.8374
127.531 659.342 75.8943
141.845 679.164 59.6646
171.467 656.667 59.6761
156.209 637.566 75.9055
143.212 680.963 57.4111
152.786 694.225 33.0759
183.041 671.244 33.0898
172.834 658.466 57.4226
153.526 695.198 30.1323
156.891 699.852 1.39452
187.369 676.703 1.41126
183.781 672.218 30.1462
156.892 699.852 -1.79171
153.537 695.183 -30.5283
183.791 672.203 -30.5089
187.369 676.702 -1.77497
152.798 694.208 -33.4717
143.236 680.931 -57.8032
172.856 658.435 -57.782
183.053 671.228 -33.4523
141.871 679.13 -60.0562
127.569 659.293 -76.28
156.244 637.519 -76.2591
171.491 656.634 -60.035
125.783 656.942 -77.5028
108.91 633.594 -83.2035
136.482 612.662 -83.1842
154.459 635.167 -77.4819
106.979 631.055 -83.2115
90.2079 607.864 -77.5284
116.685 587.77 -77.5116
134.552 610.124 -83.1922
88.4295 605.525 -76.3136
74.2511 585.895 -60.0363
99.799 566.513 -60.021
114.907 585.431 -76.2968
72.8913 584.105 -57.7776
63.443 571.023 -33.3973
88.3695 552.114 -33.3813
98.4392 564.723 -57.7624
62.7077 570.057 -30.4436
59.3942 565.497 -1.75014
84.1046 546.755 -1.73394
87.6342 551.148 -30.4276
86.8087 544.601 1.46227
90.3201 549.04 30.1385
114.298 528.952 30.1532
110.574 524.689 1.47805
91.0991 549.972 33.0888
101.144 562.585 57.4284
125.724 541.991 57.4404
115.077 529.884 33.1035
102.588 564.307 59.6843
117.694 583.229 75.9574
143.174 561.876 75.9652
127.168 543.713 59.6963
119.583 585.479 77.1713
137.453 607.83 82.847
163.988 585.584 82.8491
145.063 564.126 77.1792
139.503 610.272 82.8381
157.488 632.768 77.1297
185.081 609.624 77.1304
166.038 588.026 82.8402
159.386 635.029 75.9063
174.645 654.13 59.6769
203.14 630.219 59.6804
186.979 611.885 75.907
176.097 655.86 57.4237
186.305 668.638 33.0909
215.406 644.212 33.1
204.593 631.949 57.4273
187.091 669.574 30.1477
190.679 674.059 1.41283
219.992 649.452 1.42913
216.192 645.148 30.1568
190.679 674.059 -1.77288
187.101 669.56 -30.5068
216.201 645.134 -30.4835
219.993 649.451 -1.75657
186.316 668.622 -33.4498
176.119 655.829 -57.7795
204.614 631.918 -57.7511
215.416 644.196 -33.4264
174.668 654.097 -60.0322
159.422 634.981 -76.2563
187.012 611.839 -76.2258
203.163 630.187 -60.0039
157.525 632.719 -77.4791
139.548 610.215 -83.1815
166.08 587.97 -83.1531
185.115 609.577 -77.4486
137.498 607.773 -83.1898
119.632 585.419 -77.5092
145.109 564.067 -77.4874
164.031 585.528 -83.1614
117.743 583.169 -76.2948
102.635 564.25 -60.0191
127.212 543.656 -60.0023
143.22 561.816 -76.2731
101.19 562.529 -57.7607
91.1205 549.92 -33.3795
115.095 529.832 -33.3636
125.767 541.934 -57.7439
90.3391 548.991 -30.4259
86.8096 544.599 -1.73219
110.575 524.687 -1.7164
114.314 528.902 -30.4099
113.17 522.404 1.47969
116.895 526.666 30.1548
139.866 505.442 30.1671
135.934 501.366 1.49495
117.719 527.56 33.1047
128.366 539.666 57.4416
151.922 517.911 57.4454
140.69 506.335 33.117
129.892 541.316 59.6967
145.898 559.479 75.9656
170.326 536.925 75.9537
153.448 519.56 59.7005
147.894 561.635 77.1781
166.819 583.094 82.848
192.265 559.603 82.8097
172.323 539.081 77.1662
168.983 585.433 82.8376
188.025 607.031 77.1277
214.454 582.563 77.0673
194.429 561.942 82.7993
190.028 609.195 75.9039
206.19 627.529 59.6774
233.456 602.22 59.6227
216.457 584.727 75.8434
207.723 629.185 57.4254
218.536 641.448 33.0981
246.361 615.575 33.0723
234.989 603.876 57.3708
219.365 642.343 30.1573
223.166 646.648 1.42956
251.187 620.576 1.44535
247.19 616.47 30.1315
223.166 646.647 -1.75346
219.375 642.329 -30.4804
247.199 616.457 -30.4232
251.187 620.576 -1.73767
218.546 641.432 -33.4211
207.744 629.154 -57.7458
235.009 603.847 -57.6602
246.371 615.56 -33.3639
206.212 627.497 -59.9973
190.062 609.149 -76.2193
216.488 584.683 -76.1285
233.477 602.19 -59.9118
188.06 606.984 -77.4426
169.025 585.377 -83.1471
194.468 561.887 -83.0794
214.486 582.517 -77.3519
166.861 583.037 -83.157
147.94 561.576 -77.483
172.366 539.023 -77.4424
192.305 559.548 -83.0893
145.944 559.42 -76.2702
129.936 541.26 -59.9994
153.489 519.504 -59.9754
170.369 536.867 -76.2297
128.409 539.61 -57.7418
117.736 527.507 -33.3616
140.704 506.283 -33.3443
151.961 517.855 -57.7178
116.91 526.617 -30.4082
113.171 522.402 -1.71463
135.935 501.363 -1.69937
139.878 505.392 -30.3908
138.416 498.957 1.49646
142.348 503.033 30.1686
164.251 480.713 30.1804
160.122 476.832 1.51107
143.215 503.885 33.1179
154.447 515.461 57.4463
176.91 492.579 57.4498
165.118 481.565 33.1297
156.052 517.035 59.7001
172.931 534.399 75.9533
196.231 510.674 75.9412
178.516 494.153 59.7036
175.031 536.456 77.1635
194.973 556.977 82.807
219.265 532.246 82.7696
198.331 512.73 77.1514
197.247 559.206 82.7938
217.272 579.828 77.0617
242.525 554.049 77.0033
221.539 534.475 82.7564
219.375 581.888 75.837
236.374 599.38 59.6163
262.433 572.713 59.5639
244.628 556.109 75.7786
237.982 600.956 57.3663
249.354 612.655 33.0679
275.951 585.392 33.0432
264.042 574.288 57.3139
250.225 613.507 30.1309
254.221 617.613 1.44479
281.006 590.141 1.45989
276.821 586.244 30.1063
254.222 617.612 -1.73368
250.233 613.494 -30.4192
276.829 586.232 -30.3645
281.007 590.141 -1.71857
249.364 612.64 -33.356
238.002 600.927 -57.6524
264.06 574.261 -57.5703
275.96 585.378 -33.3013
236.394 599.35 -59.9021
219.405 581.843 -76.1188
244.656 556.066 -76.0314
262.452 572.683 -59.82
217.304 579.782 -77.3431
197.286 559.152 -83.0706
221.574 534.423 -83.0048
242.555 554.005 -77.2556
195.013 556.922 -83.0834
175.074 536.398 -77.4365
198.371 512.674 -77.397
219.301 532.193 -83.0177
172.974 534.341 -76.2262
156.093 516.978 -59.9719
178.554 494.098 -59.9486
196.271 510.617 -76.1866
154.486 515.405 -57.7156
143.229 503.833 -33.342
165.129 481.513 -33.3255
176.946 492.524 -57.6923
142.359 502.984 -30.3891
138.417 498.954 -1.6976
160.122 476.83 -1.68299
164.26 480.663 -30.3725
162.482 474.305 1.51257
166.612 478.185 30.1819
187.388 454.809 30.1949
183.071 451.137 1.5265
167.52 478.994 33.1308
179.312 490.008 57.4509
200.616 466.04 57.4607
188.296 455.618 33.1438
180.993 491.502 59.7037
198.708 508.022 75.9414
220.803 483.162 75.9466
202.297 467.533 59.7136
200.907 509.973 77.1502
221.84 529.489 82.7683
244.867 503.573 82.769
223.001 485.113 77.1554
224.221 531.602 82.7538
245.208 551.175 77.0007
269.173 524.196 77.0023
247.248 505.685 82.7544
247.407 553.127 75.7757
265.213 569.731 59.561
289.972 541.852 59.5662
271.372 526.148 75.7773
266.895 571.224 57.3122
278.804 582.328 33.0415
304.093 553.847 33.0509
291.654 543.345 57.3173
279.715 583.135 30.1067
283.9 587.032 1.46029
309.374 558.341 1.47464
305.003 554.655 30.1161
283.9 587.032 -1.7157
279.723 583.123 -30.3617
305.011 554.643 -30.3425
309.374 558.34 -1.70135
278.813 582.314 -33.2964
266.913 571.197 -57.5653
291.67 543.319 -57.5424
304.101 553.834 -33.2772
265.232 569.702 -59.8139
247.435 553.085 -76.0253
271.398 526.107 -75.9993
289.989 541.824 -59.791
245.237 551.131 -77.2499
224.257 531.549 -82.9991
247.281 505.634 -82.9728
269.199 524.154 -77.2239
221.876 529.436 -83.0134
200.946 509.917 -77.3927
223.037 485.058 -77.3716
244.901 503.521 -82.9871
198.748 507.966 -76.1838
181.03 491.446 -59.9459
202.332 467.479 -59.9302
220.839 483.107 -76.1627
179.348 489.953 -57.6904
167.53 478.942 -33.3236
188.302 455.567 -33.3096
200.649 465.986 -57.6747
166.62 478.136 -30.3709
162.482 474.302 -1.68135
183.071 451.134 -1.66742
187.392 454.761 -30.3569
185.304 448.496 1.52797
189.621 452.168 30.1964
209.22 427.79 30.2088
204.726 424.335 1.54121
190.568 452.931 33.1451
202.888 463.353 57.462
222.985 438.355 57.4719
210.167 428.553 33.1574
204.641 464.761 59.7145
223.146 480.391 75.9475
243.988 454.464 75.9548
224.738 439.764 59.7244
225.438 482.231 77.1559
247.304 500.69 82.7695
269.025 473.665 82.7763
246.28 456.304 77.1632
249.785 502.683 82.7549
271.71 521.194 77.0028
294.316 493.067 77.0122
271.506 475.658 82.7617
274.003 523.035 75.7781
292.602 538.739 59.5669
315.961 509.676 59.5783
296.608 494.908 75.7874
294.356 540.147 57.3184
306.795 550.649 33.052
330.656 520.96 33.0648
317.715 511.084 57.3298
307.744 551.411 30.1175
312.115 555.097 1.47603
336.153 525.189 1.48974
331.605 521.722 30.1303
312.115 555.096 -1.69963
307.751 551.399 -30.3408
331.612 521.712 -30.3263
336.153 525.188 -1.68592
306.803 550.636 -33.2752
294.372 540.121 -57.5404
317.729 511.06 -57.5249
330.664 520.949 -33.2607
292.619 538.711 -59.7887
274.028 522.995 -75.997
296.632 494.87 -75.9801
315.977 509.65 -59.7733
271.736 521.152 -77.2215
249.818 502.633 -82.9704
271.536 475.609 -82.9516
294.34 493.027 -77.2046
247.337 500.639 -82.9848
225.473 482.177 -77.3693
246.312 456.251 -77.3516
269.055 473.616 -82.9659
223.182 480.336 -76.1608
204.674 464.708 -59.9282
224.768 439.711 -59.9138
244.021 454.411 -76.1431
202.92 463.299 -57.6731
190.574 452.88 -33.308
210.169 428.503 -33.2946
223.014 438.303 -57.6586
189.625 452.12 -30.3553
185.304 448.493 -1.66591
204.726 424.332 -1.65267
209.221 427.742 -30.342
206.827 421.586 1.54258
211.32 425.041 30.2101
229.697 399.716 30.2216
225.037 396.486 1.55505
212.304 425.756 33.1586
225.122 435.558 57.4731
243.966 409.592 57.4818
230.68 400.431 33.1701
226.942 436.879 59.7253
246.192 451.579 75.9557
265.733 424.65 75.9618
245.785 410.913 59.734
248.571 453.305 77.1639
271.316 470.666 82.7771
291.679 442.601 82.7834
268.113 426.376 77.1701
273.892 472.534 82.7626
296.702 489.944 77.0131
317.894 460.737 77.0223
294.256 444.469 82.769
299.083 491.669 75.7885
318.435 506.437 59.5795
340.333 476.258 59.5907
320.274 462.463 75.7977
320.256 507.757 57.3311
333.198 517.634 33.0661
355.569 486.803 33.0785
342.154 477.578 57.3423
334.183 518.348 30.1317
338.731 521.814 1.49117
361.268 490.756 1.50408
356.555 487.518 30.1441
338.731 521.814 -1.6844
334.19 518.337 -30.3248
356.561 487.508 -30.3115
361.268 490.755 -1.67149
333.206 517.622 -33.2591
320.271 507.733 -57.5233
342.168 477.555 -57.5093
355.576 486.793 -33.2459
318.45 506.411 -59.7715
299.106 491.631 -75.9784
320.296 462.427 -75.9628
340.347 476.234 -59.7575
296.726 489.904 -77.2027
273.922 472.486 -82.9496
294.283 444.423 -82.9318
317.915 460.7 -77.1871
271.346 470.617 -82.9639
248.603 453.252 -77.3496
268.142 426.326 -77.3322
291.707 442.554 -82.9461
246.224 451.527 -76.1413
226.972 436.827 -59.912
245.812 410.862 -59.8978
265.763 424.6 -76.124
225.15 435.506 -57.6571
212.306 425.706 -33.2931
230.679 400.383 -33.2803
243.991 409.542 -57.6429
211.321 424.993 -30.3406
206.827 421.583 -1.65122
225.037 396.484 -1.63875
229.694 399.67 -30.3278
227 393.636 1.55632
231.659 396.865 30.2229
248.771 370.653 30.2334
243.957 367.655 1.56795
232.677 397.531 33.1711
245.962 406.692 57.4828
263.509 379.819 57.49
249.789 371.319 33.1816
247.845 407.922 59.7347
267.793 421.66 75.9625
285.987 393.796 75.9665
265.391 381.049 59.7418
270.253 423.267 77.1706
293.82 439.492 82.784
312.778 410.457 82.7883
288.448 395.403 77.1746
296.485 441.231 82.7698
320.123 457.5 77.023
339.851 427.287 77.0307
315.443 412.197 82.7741
322.586 459.107 75.7988
342.645 472.901 59.5918
363.031 441.681 59.602
342.314 428.894 75.8065
344.529 474.13 57.3436
357.944 483.355 33.0797
378.773 451.459 33.0912
364.916 442.91 57.3538
358.964 484.02 30.1454
363.677 487.258 1.50542
384.661 455.124 1.51745
379.792 452.123 30.1569
363.677 487.257 -1.67007
358.97 484.01 -30.3101
379.798 452.115 -30.2977
384.661 455.123 -1.65804
357.951 483.345 -33.2444
344.543 474.107 -57.5078
364.928 442.889 -57.4945
378.779 451.449 -33.2319
342.659 472.878 -59.7559
322.607 459.07 -75.9612
342.333 428.86 -75.9457
363.044 441.659 -59.7426
320.145 457.463 -77.1852
296.512 441.186 -82.93
315.467 412.153 -82.9118
339.87 427.252 -77.1698
293.847 439.445 -82.9441
270.282 423.217 -77.3302
288.474 395.355 -77.3123
312.802 410.413 -82.9259
267.822 421.61 -76.1221
247.871 407.872 -59.896
265.415 381.002 -59.8818
286.013 393.748 -76.1042
245.987 406.642 -57.6414
232.675 397.484 -33.2788
249.783 371.273 -33.2668
263.531 379.772 -57.6271
231.656 396.82 -30.3264
227 393.633 -1.63738
243.957 367.653 -1.62575
248.764 370.609 -30.3144
245.778 364.71 1.56911
250.592 367.707 30.2346
266.4 340.667 30.2441
261.443 337.908 1.57984
251.641 368.323 33.1825
265.361 376.823 57.4908
281.57 349.107 57.4963
267.449 341.283 33.192
267.301 377.96 59.7423
287.897 390.707 75.9669
304.703 361.976 75.9682
283.511 350.244 59.7477
290.433 392.192 77.1749
314.763 407.246 82.7886
332.271 377.315 82.7903
307.239 363.461 77.1762
317.51 408.854 82.7746
341.918 423.944 77.0312
360.136 392.802 77.037
335.018 378.923 82.7763
344.457 425.428 75.8073
365.175 438.215 59.6029
384.003 406.031 59.6119
362.675 394.286 75.8131
367.118 439.349 57.3549
380.975 447.898 33.0923
400.213 415.013 33.1027
385.946 407.164 57.3639
382.026 448.511 30.1581
386.895 451.511 1.51869
406.276 418.38 1.52987
401.264 415.625 30.1686
386.895 451.511 -1.65671
382.032 448.502 -30.2963
401.27 415.618 -30.2846
406.277 418.38 -1.64552
380.981 447.888 -33.2305
367.13 439.328 -57.4931
385.957 407.146 -57.4802
400.219 415.004 -33.2187
365.188 438.193 -59.741
344.476 425.394 -75.9441
362.692 394.254 -75.9284
384.015 406.011 -59.7281
341.937 423.91 -77.1679
317.534 408.811 -82.9099
335.039 378.882 -82.8907
360.153 392.769 -77.1522
314.788 407.202 -82.9238
290.459 392.145 -77.3102
307.262 363.417 -77.2911
332.293 377.274 -82.9046
287.923 390.659 -76.1023
267.324 377.913 -59.8799
283.53 350.2 -59.8655
304.726 361.931 -76.0833
265.383 376.776 -57.6256
251.635 368.278 -33.2653
267.44 341.24 -33.254
281.589 349.063 -57.6113
250.585 367.664 -30.3131
245.777 364.708 -1.62445
261.443 337.906 -1.61372
266.39 340.626 -30.3018
263.118 334.874 1.58087
268.075 337.633 30.2451
282.544 309.827 30.2536
277.456 307.309 1.59057
269.153 338.198 33.1927
283.274 346.022 57.4969
298.109 317.528 57.5004
283.622 310.391 33.2011
285.267 347.064 59.7479
306.459 358.796 75.9684
321.837 329.269 75.9665
300.102 318.57 59.7514
309.064 360.156 77.1762
334.096 374.01 82.7903
350.114 343.26 82.7889
324.443 330.63 77.1743
336.918 375.483 82.7766
362.036 389.362 77.0372
378.703 357.369 77.0406
352.936 344.732 82.7752
364.646 390.719 75.8137
385.974 402.464 59.6125
403.201 369.395 59.62
381.312 358.726 75.8171
387.971 403.499 57.3648
402.238 411.348 33.1037
419.842 377.553 33.113
405.198 370.43 57.3723
403.319 411.907 30.1697
408.331 414.662 1.531
426.067 380.613 1.54113
420.923 378.113 30.1791
408.331 414.661 -1.64429
403.324 411.9 -30.2833
420.928 378.106 -30.2726
426.067 380.613 -1.63416
402.244 411.339 -33.2173
387.982 403.481 -57.4788
405.208 370.413 -57.4665
419.847 377.546 -33.2066
385.985 402.444 -59.7265
364.663 390.688 -75.9268
381.328 358.697 -75.9109
403.212 369.377 -59.7142
362.054 389.33 -77.1503
336.94 375.443 -82.8887
352.955 344.695 -82.8685
378.719 357.339 -77.1343
334.118 373.97 -82.9024
309.087 360.112 -77.2889
324.462 330.589 -77.2687
350.133 343.222 -82.8822
306.482 358.751 -76.0813
285.287 347.02 -59.8636
300.119 318.529 -59.8491
321.857 329.228 -76.0611
283.292 345.978 -57.6098
269.143 338.155 -33.2525
283.61 310.351 -33.2421
298.124 317.487 -57.5954
268.064 337.593 -30.3006
263.117 334.872 -1.61251
277.456 307.307 -1.60281
282.53 309.789 -30.2902
278.981 304.194 1.59146
284.069 306.711 30.2545
297.167 278.198 30.2618
291.961 275.925 1.6001
285.173 307.224 33.2016
299.66 314.36 57.5009
313.088 285.154 57.502
298.271 278.71 33.2089
301.701 315.306 59.7512
323.436 326.005 75.9663
337.353 295.755 75.9605
315.13 286.099 59.7523
326.104 327.24 77.1739
351.775 339.87 82.7885
366.266 308.379 82.7836
340.02 296.99 77.1681
354.665 341.204 82.7752
380.432 353.84 77.0406
395.511 321.078 77.0415
369.156 309.713 82.7703
383.106 355.067 75.8176
404.994 365.736 59.6205
420.583 331.863 59.6265
398.185 322.305 75.8185
407.041 366.67 57.3732
421.685 373.793 33.1138
437.616 339.171 33.1221
422.63 332.797 57.3792
422.793 374.298 30.1801
427.937 376.798 1.54213
443.988 341.914 1.55124
438.724 339.676 30.1884
427.937 376.798 -1.63304
422.798 374.291 -30.2714
438.729 339.67 -30.2617
443.988 341.914 -1.62393
421.691 373.786 -33.2053
407.052 366.653 -57.4652
422.64 332.782 -57.4536
437.622 339.165 -33.1955
405.005 365.718 -59.7126
383.122 355.039 -75.9092
398.199 322.279 -75.8928
420.593 331.847 -59.7009
380.448 353.811 -77.1322
354.684 341.167 -82.8664
369.174 309.68 -82.8447
395.526 321.052 -77.1157
351.794 339.833 -82.8798
326.124 327.199 -77.2663
340.038 296.953 -77.2441
366.284 308.345 -82.8581
323.456 325.964 -76.0589
301.718 315.265 -59.847
315.143 286.062 -59.8322
337.37 295.718 -76.0368
299.675 314.32 -57.5939
285.16 307.184 -33.2406
298.255 278.674 -33.2312
313.1 285.117 -57.5791
284.055 306.674 -30.2891
278.98 304.192 -1.6017
291.96 275.923 -1.59307
297.15 278.164 -30.2796
293.332 272.734 1.60085
298.538 275.007 30.2626
310.237 245.847 30.2687
304.925 243.817 1.60843
299.666 275.467 33.2091
314.483 281.911 57.5022
326.476 252.057 57.5007
311.365 246.307 33.2152
316.568 282.759 59.7517
338.791 292.415 75.9599
351.216 261.517 75.9497
328.561 252.906 59.7503
341.514 293.523 77.1673
367.76 304.912 82.7828
380.694 272.765 82.7739
353.939 262.625 77.157
370.711 306.106 82.7699
397.066 317.471 77.0411
410.525 284.024 77.0392
383.645 273.958 82.7611
399.797 318.563 75.8187
422.196 328.121 59.6267
436.114 293.525 59.6316
413.256 285.116 75.8167
424.287 328.95 57.3799
439.274 335.325 33.1228
453.498 299.958 33.1302
438.205 294.355 57.3848
440.406 335.772 30.1893
445.67 338.011 1.55215
460.001 302.375 1.56031
454.63 300.405 30.1967
445.67 338.011 -1.62292
440.411 335.767 -30.2607
454.635 300.402 -30.252
460.001 302.375 -1.61476
439.279 335.319 -33.1943
424.297 328.936 -57.4524
438.215 294.343 -57.4415
453.504 299.953 -33.1856
422.206 328.106 -59.6993
399.812 318.538 -75.8911
413.27 285.093 -75.8738
436.123 293.513 -59.6884
397.08 317.444 -77.1135
370.728 306.072 -82.8425
383.661 273.928 -82.8188
410.539 283.999 -77.0963
367.777 304.878 -82.8555
341.531 293.486 -77.2415
353.955 262.592 -77.2168
380.71 272.734 -82.8318
338.808 292.379 -76.0345
316.581 282.723 -59.8299
328.572 252.874 -59.8143
351.231 261.485 -76.0098
314.495 281.874 -57.5776
299.65 275.432 -33.2296
311.346 246.275 -33.221
326.486 252.025 -57.562
298.522 274.974 -30.2786
293.331 272.732 -1.59204
304.924 243.816 -1.58446
310.218 245.817 -30.27
306.14 240.558 1.60902
311.452 242.587 30.2693
321.727 212.836 30.274
316.321 211.048 1.61545
312.601 242.995 33.2151
327.712 248.746 57.5006
338.246 218.31 57.4959
322.876 213.244 33.2199
329.834 249.498 59.7491
352.49 258.11 75.9486
363.4 226.64 75.933
340.368 219.062 59.7444
355.262 259.09 77.1556
382.017 269.23 82.7725
393.369 236.513 82.7589
366.172 227.62 77.1401
385.022 270.281 82.7603
411.902 280.346 77.0383
423.716 246.298 77.0332
396.374 237.564 82.7466
414.685 281.301 75.8167
437.542 289.71 59.6315
449.763 254.475 59.6355
426.499 247.253 75.8116
439.674 290.431 57.3854
454.967 296.034 33.1308
467.455 260.006 33.1373
451.894 255.196 57.3893
456.12 296.424 30.1975
461.491 298.394 1.56112
474.072 262.091 1.56809
468.609 260.395 30.204
461.491 298.393 -1.61389
456.125 296.42 -30.2511
468.614 260.393 -30.2438
474.072 262.091 -1.60692
454.972 296.03 -33.1845
439.683 290.42 -57.4404
451.903 255.187 -57.431
467.461 260.003 -33.1772
437.552 289.698 -59.6867
414.698 281.278 -75.8722
426.512 247.233 -75.8541
449.772 254.464 -59.6773
411.916 280.322 -77.0939
385.038 270.251 -82.8164
396.389 237.537 -82.7901
423.73 246.277 -77.0758
382.033 269.2 -82.8288
355.278 259.058 -77.2139
366.186 227.593 -77.186
393.383 236.486 -82.8026
352.505 258.078 -76.0072
329.846 249.466 -59.8118
340.378 219.036 -59.795
363.414 226.613 -75.9793
327.722 248.714 -57.5604
312.582 242.964 -33.2194
322.855 213.218 -33.2116
338.254 218.283 -57.5436
311.433 242.557 -30.2691
306.139 240.556 -1.58351
316.32 211.046 -1.57708
321.706 212.811 -30.2612
317.378 207.726 1.61585
322.784 209.514 30.2744
331.617 179.225 30.2769
326.129 177.673 1.6211
323.951 209.871 33.2193
339.321 214.937 57.4954
348.377 183.983 57.4857
332.784 179.583 33.2218
341.475 215.595 59.7426
364.507 223.172 75.9313
373.883 191.212 75.9089
350.532 184.641 59.733
367.322 224.027 77.138
394.518 232.92 82.7568
404.268 199.726 82.7361
376.697 192.066 77.1156
397.571 233.827 82.7452
424.913 242.561 77.0319
435.064 207.997 77.0238
407.321 200.634 82.7246
427.741 243.374 75.8113
451.004 250.595 59.6352
461.505 214.8 59.6387
437.891 208.81 75.8032
453.17 251.205 57.3898
468.732 256.015 33.1378
479.458 219.409 33.1428
463.67 215.41 57.3933
469.903 256.345 30.2047
475.367 258.04 1.56877
486.17 221.157 1.57445
480.63 219.739 30.2097
475.367 258.04 -1.6062
469.908 256.343 -30.2431
480.636 219.74 -30.2371
486.17 221.157 -1.60053
468.737 256.013 -33.1764
453.179 251.196 -57.4301
463.68 215.404 -57.4229
479.464 219.41 -33.1704
451.014 250.585 -59.6756
427.754 243.353 -75.8525
437.905 208.792 -75.8341
461.515 214.793 -59.6685
424.927 242.54 -77.0732
397.586 233.8 -82.7875
407.336 200.61 -82.7567
435.077 207.978 -77.0548
394.533 232.893 -82.7992
367.336 223.999 -77.1826
376.711 192.044 -77.1501
404.283 199.703 -82.7684
364.521 223.145 -75.9763
341.485 215.568 -59.792
350.541 184.622 -59.7722
373.896 191.19 -75.9438
339.328 214.911 -57.5418
323.93 209.845 -33.2098
332.762 179.563 -33.2019
348.384 183.964 -57.5221
322.762 209.489 -30.2603
317.377 207.724 -1.57617
326.128 177.672 -1.57092
331.594 179.207 -30.2524
327.026 174.293 1.62113
332.513 175.846 30.2769
339.9 145.072 30.2725
334.342 143.746 1.62526
333.696 176.154 33.2203
349.29 180.555 57.4843
356.862 149.148 57.4619
341.082 145.38 33.216
351.471 181.122 59.73
374.822 187.692 75.9059
382.653 155.326 75.8703
359.044 149.715 59.7076
377.672 188.424 77.1124
405.242 196.084 82.7328
413.376 162.514 82.6974
385.503 156.058 77.0767
408.335 196.846 82.7224
436.078 204.21 77.0216
444.547 169.21 77.0103
416.47 163.276 82.6869
438.944 204.875 75.8026
462.557 210.865 59.6381
471.311 174.59 59.6396
447.413 169.875 75.7913
464.751 211.36 57.3936
480.539 215.36 33.1431
489.468 178.259 33.1438
473.505 175.085 57.395
481.726 215.629 30.2102
487.266 217.047 1.5749
496.253 179.667 1.57893
490.654 178.528 30.2109
487.266 217.047 -1.59992
481.731 215.63 -30.2365
490.661 178.533 -30.2295
496.253 179.667 -1.59589
480.545 215.36 -33.1696
464.761 211.355 -57.4222
473.517 175.082 -57.4165
489.475 178.263 -33.1627
462.568 210.859 -59.6669
438.958 204.857 -75.8325
447.429 169.859 -75.8141
471.324 174.586 -59.6612
436.092 204.191 -77.0516
408.35 196.823 -82.7535
416.486 163.256 -82.7105
444.563 169.193 -77.0332
405.257 196.061 -82.7642
377.685 188.402 -77.1459
385.517 156.041 -77.102
413.392 162.494 -82.7211
374.836 187.671 -75.9398
351.48 181.103 -59.7682
359.053 149.704 -59.7373
382.668 155.31 -75.896
349.296 180.536 -57.5196
333.674 176.135 -33.1994
341.06 145.37 -33.1865
356.87 149.138 -57.4887
332.491 175.828 -30.2514
327.024 174.293 -1.56988
334.341 143.745 -1.56575
339.877 145.063 -30.2385
335.082 140.316 1.62406
340.64 141.642 30.2713
346.638 110.445 30.2333
341.032 109.333 1.62705
341.834 141.904 33.2112
357.614 145.672 57.4571
363.741 113.89 57.3749
347.832 110.706 33.1731
359.816 146.153 59.7002
383.425 151.764 75.8629
389.721 119.098 75.7612
365.943 114.371 59.618
386.301 152.379 77.0691
414.175 158.835 82.6897
420.675 124.99 82.5919
392.596 119.712 76.9674
417.3 159.449 82.6816
445.377 165.382 77.005
452.12 130.013 76.9633
423.8 125.604 82.5838
448.272 165.894 75.7889
472.17 170.608 59.6371
479.096 133.92 59.6055
455.014 130.524 75.7471
474.384 170.985 57.3936
490.346 174.16 33.1424
497.371 136.637 33.1179
481.31 134.297 57.362
491.543 174.367 30.2104
497.141 175.506 1.57846
504.199 137.701 1.57972
498.567 136.844 30.1859
497.142 175.506 -1.59484
491.55 174.372 -30.2285
498.578 136.853 -30.2017
504.199 137.702 -1.59358
490.354 174.164 -33.1607
474.396 170.983 -57.4145
481.327 134.298 -57.3805
497.382 136.645 -33.1339
472.182 170.605 -59.6582
448.287 165.877 -75.811
455.033 130.509 -75.7654
479.113 133.92 -59.6242
445.393 165.365 -77.0272
417.316 159.429 -82.7044
423.819 125.587 -82.6011
452.139 129.997 -76.9815
414.191 158.815 -82.7127
386.316 152.362 -77.0936
392.614 119.702 -76.9851
420.694 124.974 -82.6093
383.44 151.749 -75.8877
359.826 146.143 -59.729
365.957 114.372 -59.6387
389.738 119.089 -75.7792
357.622 145.663 -57.483
341.812 141.894 -33.1809
347.813 110.709 -33.1356
363.753 113.891 -57.3927
340.617 141.633 -30.2364
335.081 140.316 -1.56367
341.03 109.333 -1.56068
346.619 110.448 -30.1911
341.644 105.866 1.61965
347.25 106.977 30.2259
352.301 75.5114 30.0052
346.717 74.6018 1.62001
348.447 107.196 33.1514
364.356 110.38 57.3533
369.355 78.3845 56.9464
353.498 75.7304 32.9308
366.562 110.784 59.5857
390.339 115.511 75.7289
395.256 82.7436 75.1938
371.56 78.7888 59.1788
393.223 116.012 76.9334
421.302 121.29 82.558
426.146 87.2659 82.0637
398.139 83.2444 76.3984
424.436 121.747 82.5544
452.756 126.156 76.934
457.536 90.4406 76.5194
429.281 87.7226 82.0602
455.656 126.503 75.7238
479.738 129.899 59.5822
484.408 92.8208 59.2312
460.435 90.7879 75.3093
481.955 130.155 57.3451
498.016 132.494 33.101
502.636 94.5722 32.8951
486.626 93.0766 56.994
499.215 132.64 30.1793
504.846 133.497 1.57309
509.454 95.2918 1.56132
503.835 94.7179 29.9735
504.847 133.498 -1.58786
499.225 132.649 -30.196
503.844 94.7307 -30.0046
509.455 95.2925 -1.59964
498.028 132.504 -33.117
481.973 130.157 -57.3636
486.654 93.083 -57.0024
502.647 94.5856 -32.9256
479.756 129.899 -59.6001
455.676 126.489 -75.7413
460.464 90.775 -75.3154
484.437 92.8255 -59.2389
452.776 126.14 -76.9514
424.456 121.73 -82.5709
429.309 87.7088 -82.0684
457.565 90.4267 -76.5255
421.322 121.274 -82.5746
393.242 116.002 -76.9504
398.166 83.241 -76.4088
426.175 87.2525 -82.072
390.357 115.503 -75.746
366.576 110.787 -59.6055
371.584 78.8042 -59.1888
395.282 82.7415 -75.2044
364.368 110.383 -57.3702
348.429 107.201 -33.1132
353.49 75.7516 -32.8879
369.377 78.4008 -56.9535
347.232 106.982 -30.1832
341.643 105.867 -1.55273
346.716 74.6025 -1.55237
352.292 75.532 -29.9579
347.396 71.1651 1.57645
352.981 72.0746 29.9617
360.091 41.2434 28.6622
354.773 40.4419 1.57333
354.145 72.2612 32.8091
370.002 74.9152 56.8247
376.361 43.7647 54.4524
361.256 41.4299 31.5097
372.152 75.2595 59.0008
395.847 79.2143 75.0157
401.118 47.5352 71.958
378.51 44.1091 56.6285
398.653 79.6323 76.1931
426.659 83.6538 81.8584
430.651 51.6048 78.581
403.924 47.9532 73.1354
429.704 84.0228 81.8634
457.96 86.7408 76.3227
460.542 54.8694 73.1813
433.696 51.9739 78.586
460.79 87.0146 75.146
484.762 89.0476 59.0679
486.123 57.3499 56.6264
463.372 55.1433 72.0047
486.931 89.2488 56.8845
502.942 90.7445 32.7856
503.529 59.0739 31.4534
488.292 57.5512 54.443
504.115 90.8594 29.9337
509.735 91.4333 1.5216
510.053 59.7299 1.50913
504.703 59.1888 28.6015
509.735 91.433 -1.56254
504.125 90.8713 -29.9675
504.702 59.1612 -28.6475
510.054 59.7296 -1.57501
502.953 90.7561 -32.8161
486.96 89.2535 -56.8929
488.322 57.5254 -54.4377
503.53 59.046 -31.4961
484.792 89.0516 -59.0742
460.82 87.0011 -75.1507
463.405 55.1302 -72.0005
486.155 57.3235 -56.619
457.989 86.7273 -76.3279
429.734 84.0094 -81.8707
433.729 51.9656 -78.5877
460.575 54.8564 -73.1776
426.689 83.641 -81.8661
398.68 79.6295 -76.2029
403.953 47.958 -73.143
430.684 51.5973 -78.5831
395.874 79.2135 -75.026
372.176 75.2762 -59.0103
378.531 44.1465 -56.6409
401.147 47.542 -71.9661
370.024 74.9334 -56.8316
354.138 72.2842 -32.766
361.243 41.4721 -31.4728
376.38 43.8037 -54.4621
352.972 72.0962 -29.9145
347.395 71.1667 -1.50893
354.772 40.4435 -1.51205
360.077 41.2842 -28.6212
355.626 37.0684 1.48825
360.945 37.8699 28.5771
368.947 7.7475 26.8134
363.956 7.05442 1.48037
362.046 38.0331 31.2689
377.151 40.3679 54.2117
384.215 9.94695 50.9573
370.048 7.91062 29.5052
379.183 40.6677 56.2696
401.791 44.0938 71.5992
407.438 13.228 67.3413
386.247 10.2467 53.0153
404.446 44.4648 72.7135
431.173 48.1164 78.1592
435.108 16.8822 73.5029
410.093 13.5989 68.4557
434.049 48.4692 78.1599
460.895 51.3647 72.7552
463.045 20.1053 68.4356
437.985 17.235 73.5036
463.559 51.6498 71.6383
486.31 53.8565 56.2601
486.914 22.6734 52.9308
465.709 20.3904 67.3187
488.35 54.0668 54.1968
503.588 55.5895 31.2071
503.121 24.4194 29.3963
488.954 22.8837 50.8675
504.693 55.7041 28.5148
510.043 56.2451 1.4224
509.192 25.0487 1.43332
504.226 24.534 26.704
510.043 56.2427 -1.48814
504.691 55.6743 -28.5606
504.221 24.473 -26.7321
509.192 25.0463 -1.47723
503.587 55.5575 -31.2491
488.38 54.0369 -54.1907
488.973 22.8294 -50.8579
503.117 24.3563 -29.4206
486.341 53.8286 -56.252
463.591 51.6353 -71.6335
465.731 20.3769 -67.315
486.935 22.6211 -52.9192
460.927 51.3519 -72.7511
434.081 48.4611 -78.1611
438.007 17.2294 -73.5034
463.067 20.0934 -68.4326
431.205 48.1094 -78.1609
404.474 44.4701 -72.7208
410.113 13.6063 -68.4599
435.131 16.8776 -73.5032
401.819 44.1019 -71.6072
379.204 40.7064 -56.282
386.255 10.301 -53.0278
407.458 13.2381 -67.3463
377.169 40.4091 -54.222
362.032 38.0775 -31.2327
370.028 7.97428 -29.4814
384.22 10.0037 -50.9678
360.931 37.9118 -28.5373
355.625 37.0712 -1.42809
363.955 7.05717 -1.43596
368.926 7.8086 -26.786
364.987 3.96776 1.3507
369.978 4.66083 26.6838
380.257 -21.1256 23.7825
375.835 -21.7471 1.33076
370.985 4.80256 29.1405
385.152 6.83889 50.5926
393.864 -19.2249 45.2696
381.265 -20.9838 26.2393
387.013 7.09761 52.4703
408.204 10.0788 66.7964
414.609 -16.4395 59.8166
395.725 -18.9661 47.1473
410.632 10.4052 67.809
435.648 13.6885 72.8562
439.273 -13.1663 65.2194
417.036 -16.1131 60.8291
438.272 14.0228 72.8532
463.332 16.8932 67.7852
464.08 -9.90272 60.6911
441.897 -12.832 65.2164
465.758 17.1869 66.7669
486.963 19.4698 52.3789
485.268 -7.13571 46.9531
466.506 -9.60895 59.6728
488.821 19.6918 50.4996
502.987 21.2275 29.0285
499.638 -5.26593 26.1102
487.126 -6.91376 45.0737
503.992 21.3467 26.5766
508.958 21.8614 1.30598
505.032 -4.56917 1.32568
500.643 -5.1468 23.6584
508.958 21.8596 -1.34595
503.987 21.2863 -26.6008
500.642 -5.14948 -23.6588
505.032 -4.57101 -1.32625
502.983 21.1654 -29.0519
488.839 19.6385 -50.4892
487.125 -6.91824 -45.0737
499.638 -5.27044 -26.1099
486.982 19.4184 -52.3681
465.778 17.1742 -66.7639
466.507 -9.61132 -59.6725
485.268 -7.13831 -46.9526
463.352 16.8818 -67.7823
438.292 14.0177 -72.8531
441.898 -12.833 -65.2161
464.081 -9.90377 -60.6908
435.668 13.684 -72.8562
410.65 10.4126 -67.813
417.037 -16.1134 -60.8291
439.274 -13.1668 -65.2192
408.222 10.0878 -66.8004
387.019 7.15069 -52.4819
395.725 -18.9646 -47.1474
414.609 -16.4382 -59.8166
385.157 6.89402 -50.6037
370.965 4.86456 -29.1173
381.264 -20.9802 -26.2389
393.863 -19.2213 -45.2692
369.957 4.72104 -26.6599
364.986 3.96962 -1.30979
375.835 -21.7453 -1.32973
380.257 -21.1237 -23.7815
-323.052 730.159 25.3858
-324.159 725.13 -0.377943
-323 730.139 -26.1427
-319.79 744.408 -47.9466
-315.075 765.74 -62.4631
-309.725 790.895 -67.5337
-304.729 816.128 -62.464
-300.718 837.631 -47.9689
-298.078 852.042 -26.1776
-297.16 857.115 -0.421797
-298.109 852.068 25.3375
-300.762 837.672 47.1364
-304.779 816.18 61.6438
-309.78 790.952 66.7305
-315.127 765.794 61.6766
-319.849 744.449 47.1795
382.635 -22.3863 1.76393e-05
387.057 -21.7648 22.4517
399.656 -20.0058 41.4821
418.54 -17.4792 54.1513
440.777 -14.5323 58.5415
462.96 -11.603 54.0162
481.721 -9.1298 41.2965
494.234 -7.48197 22.3329
498.623 -6.90434 0.000247942
494.233 -7.48281 -22.3323
481.721 -9.13061 -41.2962
462.96 -11.6036 -54.016
440.777 -14.5328 -58.5413
418.54 -17.4795 -54.1511
399.656 -20.0059 -41.482
387.057 -21.7648 -22.4517
</DataArray>
</Points>
<Cells>
<DataArray type="Int32" Name="connectivity" format="ascii">
0 1 2 3 
4 5 6 7 
8 9 10 11 
12 13 14 15 
16 17 18 19 
20 21 22 23 
24 25 26 27 
28 29 30 31 
32 33 34 35 
36 37 38 39 
40 41 42 43 
44 45 46 47 
48 49 50 51 
52 53 54 55 
56 57 58 59 
60 61 62 63 
64 65 66 67 
68 69 70 71 
72 73 74 75 
76 77 78 79 
80 81 82 83 
84 85 86 87 
88 89 90 91 
92 93 94 95 
96 97 98 99 
100 101 102 103 
104 105 106 107 
108 109 110 111 
112 113 114 115 
116 117 118 119 
120 121 122 123 
124 125 126 127 
128 129 130 131 
132 133 134 135 
136 137 138 139 
140 141 142 143 
144 145 146 147 
148 149 150 151 
152 153 154 155 
156 157 158 159 
160 161 162 163 
164 165 166 167 
168 169 170 171 
172 173 174 175 
176 177 178 179 
180 181 182 183 
184 185 186 187 
188 189 190 191 
192 193 194 195 
196 197 198 199 
200 201 202 203 
204 205 206 207 
208 209 210 211 
212 213 214 215 
216 217 218 219 
220 221 222 223 
224 225 226 227 
228 229 230 231 
232 233 234 235 
236 237 238 239 
240 241 242 243 
244 245 246 247 
248 249 250 251 
252 253 254 255 
256 257 258 259 
260 261 262 263 
264 265 266 267 
268 269 270 271 
272 273 274 275 
276 277 278 279 
280 281 282 283 
284 285 286 287 
288 289 290 291 
292 293 294 295 
296 297 298 299 
300 301 302 303 
304 305 306 307 
308 309 310 311 
312 313 314 315 
316 317 318 319 
320 321 322 323 
324 325 326 327 
328 329 330 331 
332 333 334 335 
336 337 338 339 
340 341 342 343 
344 345 346 347 
348 349 350 351 
352 353 354 355 
356 357 358 359 
360 361 362 363 
364 365 366 367 
368 369 370 371 
372 373 374 375 
376 377 378 379 
380 381 382 383 
384 385 386 387 
388 389 390 391 
392 393 394 395 
396 397 398 399 
400 401 402 403 
404 405 406 407 
408 409 410 411 
412 413 414 415 
416 417 418 419 
420 421 422 423 
424 425 426 427 
428 429 430 431 
432 433 434 435 
436 437 438 439 
440 441 442 443 
444 445 446 447 
448 449 450 451 
452 453 454 455 
456 457 458 459 
460 461 462 463 
464 465 466 467 
468 469 470 471 
472 473 474 475 
476 477 478 479 
480 481 482 483 
484 485 486 487 
488 489 490 491 
492 493 494 495 
496 497 498 499 
500 501 502 503 
504 505 506 507 
508 509 510 511 
512 513 514 515 
516 517 518 519 
520 521 522 523 
524 525 526 527 
528 529 530 531 
532 533 534 535 
536 537 538 539 
540 541 542 543 
544 545 546 547 
548 549 550 551 
552 553 554 555 
556 557 558 559 
560 561 562 563 
564 565 566 567 
568 569 570 571 
572 573 574 575 
576 577 578 579 
580 581 582 583 
584 585 586 587 
588 589 590 591 
592 593 594 595 
596 597 598 599 
600 601 602 603 
604 605 606 607 
608 609 610 611 
612 613 614 615 
616 617 618 619 
620 621 622 623 
624 625 626 627 
628 629 630 631 
632 633 634 635 
636 637 638 639 
640 641 642 643 
644 645 646 647 
648 649 650 651 
652 653 654 655 
656 657 658 659 
660 661 662 663 
664 665 666 667 
668 669 670 671 
672 673 674 675 
676 677 678 679 
680 681 682 683 
684 685 686 687 
688 689 690 691 
692 693 694 695 
696 697 698 699 
700 701 702 703 
704 705 706 707 
708 709 710 711 
712 713 714 715 
716 717 718 719 
720 721 722 723 
724 725 726 727 
728 729 730 731 
732 733 734 735 
736 737 738 739 
740 741 742 743 
744 745 746 747 
748 749 750 751 
752 753 754 755 
756 757 758 759 
760 761 762 763 
764 765 766 767 
768 769 770 771 
772 773 774 775 
776 777 778 779 
780 781 782 783 
784 785 786 787 
788 789 790 791 
792 793 794 795 
796 797 798 799 
800 801 802 803 
804 805 806 807 
808 809 810 811 
812 813 814 815 
816 817 818 819 
820 821 822 823 
824 825 826 827 
828 829 830 831 
832 833 834 835 
836 837 838 839 
840 841 842 843 
844 845 846 847 
848 849 850 851 
852 853 854 855 
856 857 858 859 
860 861 862 863 
864 865 866 867 
868 869 870 871 
872 873 874 875 
876 877 878 879 
880 881 882 883 
884 885 886 887 
888 889 890 891 
892 893 894 895 
896 897 898 899 
900 901 902 903 
904 905 906 907 
908 909 910 911 
912 913 914 915 
916 917 918 919 
920 921 922 923 
924 925 926 927 
928 929 930 931 
932 933 934 935 
936 937 938 939 
940 941 942 943 
944 945 946 947 
948 949 950 951 
952 953 954 955 
956 957 958 959 
960 961 962 963 
964 965 966 967 
968 969 970 971 
972 973 974 975 
976 977 978 979 
980 981 982 983 
984 985 986 987 
988 989 990 991 
992 993 994 995 
996 997 998 999 
1000 1001 1002 1003 
1004 1005 1006 1007 
1008 1009 1010 1011 
1012 1013 1014 1015 
1016 1017 1018 1019 
1020 1021 1022 1023 
1024 1025 1026 1027 
1028 1029 1030 1031 
1032 1033 1034 1035 
1036 1037 1038 1039 
1040 1041 1042 1043 
1044 1045 1046 1047 
1048 1049 1050 1051 
1052 1053 1054 1055 
1056 1057 1058 1059 
1060 1061 1062 1063 
1064 1065 1066 1067 
1068 1069 1070 1071 
1072 1073 1074 1075 
1076 1077 1078 1079 
1080 1081 1082 1083 
1084 1085 1086 1087 
1088 1089 1090 1091 
1092 1093 1094 1095 
1096 1097 1098 1099 
1100 1101 1102 1103 
1104 1105 1106 1107 
1108 1109 1110 1111 
1112 1113 1114 1115 
1116 1117 1118 1119 
1120 1121 1122 1123 
1124 1125 1126 1127 
1128 1129 1130 1131 
1132 1133 1134 1135 
1136 1137 1138 1139 
1140 1141 1142 1143 
1144 1145 1146 1147 
1148 1149 1150 1151 
1152 1153 1154 1155 
1156 1157 1158 1159 
1160 1161 1162 1163 
1164 1165 1166 1167 
1168 1169 1170 1171 
1172 1173 1174 1175 
1176 1177 1178 1179 
1180 1181 1182 1183 
1184 1185 1186 1187 
1188 1189 1190 1191 
1192 1193 1194 1195 
1196 1197 1198 1199 
1200 1201 1202 1203 
1204 1205 1206 1207 
1208 1209 1210 1211 
1212 1213 1214 1215 
1216 1217 1218 1219 
1220 1221 1222 1223 
1224 1225 1226 1227 
1228 1229 1230 1231 
1232 1233 1234 1235 
1236 1237 1238 1239 
1240 1241 1242 1243 
1244 1245 1246 1247 
1248 1249 1250 1251 
1252 1253 1254 1255 
1256 1257 1258 1259 
1260 1261 1262 1263 
1264 1265 1266 1267 
1268 1269 1270 1271 
1272 1273 1274 1275 
1276 1277 1278 1279 
1280 1281 1282 1283 
1284 1285 1286 1287 
1288 1289 1290 1291 
1292 1293 1294 1295 
1296 1297 1298 1299 
1300 1301 1302 1303 
1304 1305 1306 1307 
1308 1309 1310 1311 
1312 1313 1314 1315 
1316 1317 1318 1319 
1320 1321 1322 1323 
1324 1325 1326 1327 
1328 1329 1330 1331 
1332 1333 1334 1335 
1336 1337 1338 1339 
1340 1341 1342 1343 
1344 1345 1346 1347 
1348 1349 1350 1351 
1352 1353 1354 1355 
1356 1357 1358 1359 
1360 1361 1362 1363 
1364 1365 1366 1367 
1368 1369 1370 1371 
1372 1373 1374 1375 
1376 1377 1378 1379 
1380 1381 1382 1383 
1384 1385 1386 1387 
1388 1389 1390 1391 
1392 1393 1394 1395 
1396 1397 1398 1399 
1400 1401 1402 1403 
1404 1405 1406 1407 
1408 1409 1410 1411 
1412 1413 1414 1415 
1416 1417 1418 1419 
1420 1421 1422 1423 
1424 1425 1426 1427 
1428 1429 1430 1431 
1432 1433 1434 1435 
1436 1437 1438 1439 
1440 1441 1442 1443 
1444 1445 1446 1447 
1448 1449 1450 1451 
1452 1453 1454 1455 
1456 1457 1458 1459 
1460 1461 1462 1463 
1464 1465 1466 1467 
1468 1469 1470 1471 
1472 1473 1474 1475 
1476 1477 1478 1479 
1480 1481 1482 1483 
1484 1485 1486 1487 
1488 1489 1490 1491 
1492 1493 1494 1495 
1496 1497 1498 1499 
1500 1501 1502 1503 
1504 1505 1506 1507 
1508 1509 1510 1511 
1512 1513 1514 1515 
1516 1517 1518 1519 
1520 1521 1522 1523 
1524 1525 1526 1527 
1528 1529 1530 1531 
1532 1533 1534 1535 
1536 1537 1538 1539 
1540 1541 1542 1543 
1544 1545 1546 1547 
1548 1549 1550 1551 
1552 1553 1554 1555 
1556 1557 1558 1559 
1560 1561 1562 1563 
1564 1565 1566 1567 
1568 1569 1570 1571 
1572 1573 1574 1575 
1576 1577 1578 1579 
1580 1581 1582 1583 
1584 1585 1586 1587 
1588 1589 1590 1591 
1592 1593 1594 1595 
1596 1597 1598 1599 
1600 1601 1602 1603 
1604 1605 1606 1607 
1608 1609 1610 1611 
1612 1613 1614 1615 
1616 1617 1618 1619 
1620 1621 1622 1623 
1624 1625 1626 1627 
1628 1629 1630 1631 
1632 1633 1634 1635 
1636 1637 1638 1639 
1640 1641 1642 1643 
1644 1645 1646 1647 
1648 1649 1650 1651 
1652 1653 1654 1655 
1656 1657 1658 1659 
1660 1661 1662 1663 
1664 1665 1666 1667 
1668 1669 1670 1671 
1672 1673 1674 1675 
1676 1677 1678 1679 
1680 1681 1682 1683 
1684 1685 1686 1687 
1688 1689 1690 1691 
1692 1693 1694 1695 
1696 1697 1698 1699 
1700 1701 1702 1703 
1704 1705 1706 1707 
1708 1709 1710 1711 
1712 1713 1714 1715 
1716 1717 1718 1719 
1720 1721 1722 1723 
1724 1725 1726 1727 
1728 1729 1730 1731 
1732 1733 1734 1735 
1736 1737 1738 1739 
1740 1741 1742 1743 
1744 1745 1746 1747 
1748 1749 1750 1751 
1752 1753 1754 1755 
1756 1757 1758 1759 
1760 1761 1762 1763 
1764 1765 1766 1767 
1768 1769 1770 1771 
1772 1773 1774 1775 
1776 1777 1778 1779 
1780 1781 1782 1783 
1784 1785 1786 1787 
1788 1789 1790 1791 
1792 1793 1794 1795 
1796 1797 1798 1799 
1800 1801 1802 1803 
1804 1805 1806 1807 
1808 1809 1810 1811 
1812 1813 1814 1815 
1816 1817 1818 1819 
1820 1821 1822 1823 
1824 1825 1826 1827 
1828 1829 1830 1831 
1832 1833 1834 1835 
1836 1837 1838 1839 
1840 1841 1842 1843 
1844 1845 1846 1847 
1848 1849 1850 1851 
1852 1853 1854 1855 
1856 1857 1858 1859 
1860 1861 1862 1863 
1864 1865 1866 1867 
1868 1869 1870 1871 
1872 1873 1874 1875 
1876 1877 1878 1879 
1880 1881 1882 1883 
1884 1885 1886 1887 
1888 1889 1890 1891 
1892 1893 1894 1895 
1896 1897 1898 1899 
1900 1901 1902 1903 
1904 1905 1906 1907 
1908 1909 1910 1911 
1912 1913 1914 1915 
1916 1917 1918 1919 
1920 1921 1922 1923 
1924 1925 1926 1927 
1928 1929 1930 1931 
1932 1933 1934 1935 
1936 1937 1938 1939 
1940 1941 1942 1943 
1944 1945 1946 1947 
1948 1949 1950 1951 
1952 1953 1954 1955 
1956 1957 1958 1959 
1960 1961 1962 1963 
1964 1965 1966 1967 
1968 1969 1970 1971 
1972 1973 1974 1975 
1976 1977 1978 1979 
1980 1981 1982 1983 
1984 1985 1986 1987 
1988 1989 1990 1991 
1992 1993 1994 1995 
1996 1997 1998 1999 
2000 2001 2002 2003 
2004 2005 2006 2007 
2008 2009 2010 2011 
2012 2013 2014 2015 
2016 2017 2018 2019 
2020 2021 2022 2023 
2024 2025 2026 2027 
2028 2029 2030 2031 
2032 2033 2034 2035 
2036 2037 2038 2039 
2040 2041 2042 2043 
2044 2045 2046 2047 
2048 2049 2050 2051 2052 2053 2054 2055 2056 2057 2058 2059 2060 2061 2062 2063 
2064 2065 2066 2067 2068 2069 2070 2071 2072 2073 2074 2075 2076 2077 2078 2079 
</DataArray>
<DataArray type="Int32" Name="offsets" format="ascii">
4 8 12 16 20 24 28 32 36 40 44 48 52 56 60 64 68 72 76 80 84 88 92 96 100 104 108 112 116 120 124 128 132 136 140 144 148 152 156 160 164 168 172 176 180 184 188 192 196 200 204 208 212 216 220 224 228 232 236 240 244 248 252 256 260 264 268 272 276 280 284 288 292 296 300 304 308 312 316 320 324 328 332 336 340 344 348 352 356 360 364 368 372 376 380 384 388 392 396 400 404 408 412 416 420 424 428 432 436 440 444 448 452 456 460 464 468 472 476 480 484 488 492 496 500 504 508 512 516 520 524 528 532 536 540 544 548 552 556 560 564 568 572 576 580 584 588 592 596 600 604 608 612 616 620 624 628 632 636 640 644 648 652 656 660 664 668 672 676 680 684 688 692 696 700 704 708 712 716 720 724 728 732 736 740 744 748 752 756 760 764 768 772 776 780 784 788 792 796 800 804 808 812 816 820 824 828 832 836 840 844 848 852 856 860 864 868 872 876 880 884 888 892 896 900 904 908 912 916 920 924 928 932 936 940 944 948 952 956 960 964 968 972 976 980 984 988 992 996 1000 1004 1008 1012 1016 1020 1024 1028 1032 1036 1040 1044 1048 1052 1056 1060 1064 1068 1072 1076 1080 1084 1088 1092 1096 1100 1104 1108 1112 1116 1120 1124 1128 1132 1136 1140 1144 1148 1152 1156 1160 1164 1168 1172 1176 1180 1184 1188 1192 1196 1200 1204 1208 1212 1216 1220 1224 1228 1232 1236 1240 1244 1248 1252 1256 1260 1264 1268 1272 1276 1280 1284 1288 1292 1296 1300 1304 1308 1312 1316 1320 1324 1328 1332 1336 1340 1344 1348 1352 1356 1360 1364 1368 1372 1376 1380 1384 1388 1392 1396 1400 1404 1408 1412 1416 1420 1424 1428 1432 1436 1440 1444 1448 1452 1456 1460 1464 1468 1472 1476 1480 1484 1488 1492 1496 1500 1504 1508 1512 1516 1520 1524 1528 1532 1536 1540 1544 1548 1552 1556 1560 1564 1568 1572 1576 1580 1584 1588 1592 1596 1600 1604 1608 1612 1616 1620 1624 1628 1632 1636 1640 1644 1648 1652 1656 1660 1664 1668 1672 1676 1680 1684 1688 1692 1696 1700 1704 1708 1712 1716 1720 1724 1728 1732 1736 1740 1744 1748 1752 1756 1760 1764 1768 1772 1776 1780 1784 1788 1792 1796 1800 1804 1808 1812 1816 1820 1824 1828 1832 1836 1840 1844 1848 1852 1856 1860 1864 1868 1872 1876 1880 1884 1888 1892 1896 1900 1904 1908 1912 1916 1920 1924 1928 1932 1936 1940 1944 1948 1952 1956 1960 1964 1968 1972 1976 1980 1984 1988 1992 1996 2000 2004 2008 2012 2016 2020 2024 2028 2032 2036 2040 2044 2048 2064 2080 
</DataArray>
<DataArray type="UInt8" Name="types" format="ascii">
7 7 7 7 7 7 7 7 7 7 7 7 7 7 7 7 7 7 7 7 7 7 7 7 7 7 7 7 7 7 7 7 7 7 7 7 7 7 7 7 7 7 7 7 7 7 7 7 7 7 7 7 7 7 7 7 7 7 7 7 7 7 7 7 7 7 7 7 7 7 7 7 7 7 7 7 7 7 7 7 7 7 7 7 7 7 7 7 7 7 7 7 7 7 7 7 7 7 7 7 7 7 7 7 7 7 7 7 7 7 7 7 7 7 7 7 7 7 7 7 7 7 7 7 7 7 7 7 7 7 7 7 7 7 7 7 7 7 7 7 7 7 7 7 7 7 7 7 7 7 7 7 7 7 7 7 7 7 7 7 7 7 7 7 7 7 7 7 7 7 7 7 7 7 7 7 7 7 7 7 7 7 7 7 7 7 7 7 7 7 7 7 7 7 7 7 7 7 7 7 7 7 7 7 7 7 7 7 7 7 7 7 7 7 7 7 7 7 7 7 7 7 7 7 7 7 7 7 7 7 7 7 7 7 7 7 7 7 7 7 7 7 7 7 7 7 7 7 7 7 7 7 7 7 7 7 7 7 7 7 7 7 7 7 7 7 7 7 7 7 7 7 7 7 7 7 7 7 7 7 7 7 7 7 7 7 7 7 7 7 7 7 7 7 7 7 7 7 7 7 7 7 7 7 7 7 7 7 7 7 7 7 7 7 7 7 7 7 7 7 7 7 7 7 7 7 7 7 7 7 7 7 7 7 7 7 7 7 7 7 7 7 7 7 7 7 7 7 7 7 7 7 7 7 7 7 7 7 7 7 7 7 7 7 7 7 7 7 7 7 7 7 7 7 7 7 7 7 7 7 7 7 7 7 7 7 7 7 7 7 7 7 7 7 7 7 7 7 7 7 7 7 7 7 7 7 7 7 7 7 7 7 7 7 7 7 7 7 7 7 7 7 7 7 7 7 7 7 7 7 7 7 7 7 7 7 7 7 7 7 7 7 7 7 7 7 7 7 7 7 7 7 7 7 7 7 7 7 7 7 7 7 7 7 7 7 7 7 7 7 7 7 7 7 7 7 7 7 7 7 7 7 7 7 7 7 7 7 7 7 7 7 7 7 7 7 7 7 7 7 7 7 7 7 7 7 7 7 7 7 7 7 7 7 
</DataArray>
</Cells>
<CellData Scalars="cell variable 4" Vectors="cell vector">
<DataArray type="Float64" NumberOfComponents="3" Name="cell vector" format="ascii">
0.131604 0.154319 0.979217
0.370358 0.42763 0.824601
0.485967 0.662311 0.570246
0.330916 0.918269 0.21743
-0.065963 0.97014 -0.233404
-0.0836094 0.814749 -0.573754
0.0227603 -0.547776 0.836315
0.00170509 -0.192486 0.981298
0.00577732 0.193175 0.981147
-0.0230371 0.54842 0.835886
-0.0860698 0.814957 0.573094
-0.0673814 0.970186 0.232807
0.327601 0.91948 -0.217332
0.477561 0.667719 -0.57104
-0.35092 -0.438101 0.8276
-0.138731 -0.150882 0.978769
0.0607513 0.186783 0.980521
0.17245 0.53039 0.830028
0.237075 0.797679 0.554531
0.205365 0.958963 0.195486
0.137842 0.970862 -0.196025
0.125008 0.821946 -0.555678
-0.0933247 -0.548369 0.831013
-0.0340104 -0.192382 0.980731
0.0348402 0.192895 0.980601
0.0927175 0.549018 0.830652
0.123593 0.82252 0.555144
0.136716 0.971144 0.195416
0.204135 0.959111 -0.196047
0.235998 0.797606 -0.555094
-0.172001 -0.5299 0.830434
-0.0631611 -0.185557 0.980601
0.0598366 0.186993 0.980537
0.170165 0.53102 0.830098
0.239455 0.797243 0.554135
0.182124 0.963684 0.195306
0.132294 0.972053 -0.193939
0.137237 0.820478 -0.554961
-0.100203 -0.547184 0.830993
-0.0362398 -0.191909 0.980743
0.0358763 0.192641 0.980613
0.0997775 0.547785 0.830648
0.136806 0.820894 0.554453
0.131743 0.972263 0.193258
0.181453 0.96368 -0.195948
0.239256 0.796974 -0.554608
-0.170167 -0.530447 0.830463
-0.0611266 -0.185897 0.980666
0.0616161 0.186132 0.980591
0.176966 0.528266 0.830432
0.259475 0.790833 0.554306
0.217815 0.956411 0.194509
0.926478 -0.374665 0.0355506
0.972813 -0.231093 0.0152034
0.976844 -0.213848 0.00667129
0.977593 -0.210493 0.00227272
0.977603 -0.210455 -0.00117466
0.976867 -0.213773 -0.00563962
0.972825 -0.2311 -0.0143071
0.92603 -0.375841 -0.0348216
0.216796 0.956524 -0.195094
0.259527 0.790537 -0.554705
-0.177019 -0.527703 0.830779
-0.0625236 -0.185008 0.980746
0.0633091 0.184958 0.980705
0.181808 0.525384 0.831215
0.271594 0.786244 0.555028
0.304356 0.932608 0.19393
0.918007 -0.395553 0.0282938
0.958516 -0.284619 0.0154383
0.963958 -0.265975 0.00644028
0.965087 -0.261923 0.00198524
0.96509 -0.261917 -0.00100301
0.963976 -0.265934 -0.00542296
0.958546 -0.28457 -0.014444
0.917585 -0.396586 -0.0275119
0.303587 0.932759 -0.19441
0.271753 0.785942 -0.555378
-0.182098 -0.524769 0.83154
-0.0641161 -0.183802 0.98087
0.0674881 0.18286 0.98082
0.194132 0.51982 0.831926
0.293688 0.77787 0.555576
0.356353 0.913985 0.194022
0.919982 -0.391538 0.0182005
0.944388 -0.328519 0.0143688
0.949913 -0.312439 0.00689278
0.951262 -0.308375 0.00216079
0.951266 -0.30837 -0.00118206
0.94993 -0.312406 -0.0058891
0.944411 -0.328495 -0.0133899
0.919637 -0.392384 -0.0173974
0.35568 0.914161 -0.194425
0.293852 0.777587 -0.555886
-0.194511 -0.519175 0.83224
-0.0682815 -0.181668 0.980986
0.0733198 0.180143 0.980904
0.210973 0.512346 0.832461
0.320322 0.766866 0.556156
0.395762 0.897596 0.194148
0.916714 -0.399404 0.0105655
0.928998 -0.369883 0.0122328
0.93396 -0.357312 0.0068837
0.935441 -0.353476 0.00228136
0.935445 -0.353471 -0.00130393
0.933978 -0.357282 -0.00588452
0.929015 -0.369871 -0.0112613
0.916447 -0.400037 -0.00972907
0.395079 0.897821 -0.194501
0.320444 0.766615 -0.556432
-0.211385 -0.511683 0.832765
-0.0741195 -0.178899 0.981072
0.0800498 0.17693 0.980963
0.230206 0.503353 0.832851
0.349354 0.753718 0.556652
0.431338 0.881034 0.194235
0.906727 -0.421676 0.0059195
0.911834 -0.410442 0.00983371
0.915966 -0.401204 0.00641848
0.917474 -0.39779 0.00227491
0.917478 -0.397785 -0.00130651
0.915985 -0.401176 -0.00542358
0.911853 -0.410421 -0.00885884
0.906515 -0.422144 -0.00505495
0.430532 0.881358 -0.19455
0.349418 0.753508 -0.556895
-0.230636 -0.502672 0.833143
-0.0808483 -0.175626 0.981132
0.0872651 0.173255 0.981003
0.2507 0.492996 0.833129
0.379774 0.738574 0.557028
0.466379 0.862982 0.194301
0.891161 -0.453674 0.00340486
0.892651 -0.450684 0.00761453
0.895927 -0.444165 0.00564631
0.89736 -0.441294 0.00214698
0.897364 -0.441289 -0.00118254
0.895945 -0.44414 -0.00465862
0.892667 -0.450668 -0.00664588
0.89097 -0.454055 -0.00252713
0.465516 0.863384 -0.194584
0.37981 0.738395 -0.55724
-0.251134 -0.492298 0.833411
-0.0880275 -0.171896 0.981174
0.0947189 0.169133 0.981031
0.271846 0.481319 0.833326
0.411054 0.721426 0.557297
0.500551 0.843605 0.194368
0.871508 -0.490377 0.00206862
0.871311 -0.490696 0.00578748
0.873838 -0.486194 0.00473245
0.875118 -0.483905 0.00193513
0.875123 -0.483899 -0.000969917
0.873855 -0.486172 -0.00375481
0.871319 -0.490693 -0.00483396
0.871321 -0.490712 -0.00118813
0.499745 0.844024 -0.194621
0.411087 0.721266 -0.557479
-0.272268 -0.480608 0.833599
-0.095415 -0.167729 0.981205
0.102247 0.16458 0.98105
0.293198 0.468369 0.833466
0.442661 0.702319 0.557494
0.53437 0.822587 0.19442
0.84879 -0.528728 0.00130569
0.847813 -0.530277 0.0043269
0.849708 -0.52724 0.00380504
0.850787 -0.525508 0.00167247
0.850792 -0.525502 -0.000721266
0.849724 -0.52722 -0.00284646
0.84782 -0.530274 -0.00338925
0.848605 -0.529026 -0.000433063
0.533531 0.823078 -0.194646
0.442679 0.702185 -0.557647
-0.293603 -0.467644 0.83373
-0.10287 -0.163133 0.981226
0.109743 0.159605 0.981062
0.314422 0.454212 0.833565
0.474098 0.681376 0.557636
0.5684 0.799444 0.19445
0.823126 -0.567858 0.000949904
0.822205 -0.569183 0.00315496
0.823582 -0.56719 0.00293265
0.82444 -0.565947 0.00139043
0.824446 -0.56594 -0.000452775
0.823598 -0.567171 -0.0019963
0.822201 -0.569193 -0.00224882
0.822912 -0.568168 -0.000102308
0.567655 0.799925 -0.194648
0.474115 0.681263 -0.55776
-0.3148 -0.45348 0.833821
-0.110274 -0.158127 0.981242
0.117128 0.154218 0.98107
0.335344 0.438871 0.833628
0.505155 0.65861 0.55772
0.602277 0.774243 0.19445
0.794717 -0.606979 0.000855539
0.794544 -0.607202 0.00219338
0.795497 -0.605953 0.00212253
0.796125 -0.605132 0.00109969
0.796131 -0.605124 -0.000186623
0.795515 -0.605933 -0.00120848
0.794538 -0.607213 -0.00131182
0.794485 -0.607284 -3.16153e-05
0.60157 0.774749 -0.194624
0.505172 0.658516 -0.557815
-0.335693 -0.438134 0.833876
-0.117559 -0.15272 0.981252
0.124385 0.148415 0.981071
0.355904 0.42233 0.833648
0.535764 0.63396 0.55772
0.635699 0.747067 0.194364
0.763749 -0.645513 0.000773143
0.764889 -0.644161 0.00119776
0.765393 -0.643562 0.00129556
0.765759 -0.643127 0.000796245
0.765766 -0.64312 9.97761e-05
0.765408 -0.643546 -0.000409592
0.764872 -0.644182 -0.000349493
0.763523 -0.64578 3.42037e-05
0.635073 0.747561 -0.194513
0.535801 0.63387 -0.557787
-0.356214 -0.421595 0.833888
-0.124701 -0.146913 0.981257
0.131509 0.142232 0.981058
0.376149 0.404608 0.833549
0.566369 0.607021 0.557451
0.673392 0.713425 0.193825
0.73182 -0.681498 -0.000768351
0.732595 -0.680665 -0.000939931
0.7322 -0.681089 -0.000336366
0.7321 -0.681197 0.000185178
0.732107 -0.68119 0.000682451
0.732214 -0.681074 0.00119593
0.732575 -0.680685 0.00176256
0.731596 -0.681737 0.00155308
0.672784 0.713966 -0.193945
0.566413 0.606944 -0.55749
-0.376411 -0.403886 0.833781
-0.131707 -0.140733 0.981248
0.1383 0.135817 0.981034
0.395342 0.386294 0.833356
0.594873 0.579577 0.556971
0.705545 0.681892 0.19295
-0.697909 0.716186 0.000781945
-0.698989 0.715132 0.00128043
-0.698413 0.715694 0.000777428
-0.698122 0.715979 9.53208e-06
-0.698128 0.715973 -0.000833833
-0.698426 0.71568 -0.00159853
-0.698972 0.715146 -0.00207091
-0.697709 0.71638 -0.00153997
0.704916 0.682515 -0.193045
0.594918 0.579519 -0.556983
-0.395572 -0.385573 0.833581
-0.138385 -0.134325 0.981227
0.144671 0.129133 0.981017
0.41327 0.367322 0.833236
0.621109 0.551658 0.556684
0.731821 0.653754 0.192466
-0.66184 0.749645 -0.000641289
-0.664127 0.74762 1.66665e-05
-0.664077 0.747664 0.00010764
-0.663898 0.747823 -0.000194926
-0.663904 0.747817 -0.000594239
-0.664089 0.747653 -0.000883283
-0.664106 0.747638 -0.00076103
-0.661641 0.749821 -7.93991e-05
0.7313 0.654315 -0.192541
0.621171 0.5516 -0.556672
-0.413479 -0.366591 0.833455
-0.144641 -0.127662 0.981214
0.150729 0.122056 0.981011
0.430395 0.347184 0.833201
0.646635 0.521578 0.556614
0.761383 0.619094 0.192401
-0.624941 0.780672 -0.000619289
-0.626878 0.779117 0.000111623
-0.626768 0.779206 0.000356468
-0.62646 0.779454 -6.31984e-05
-0.626467 0.779447 -0.000692706
-0.62678 0.779195 -0.00109658
-0.626853 0.779137 -0.000818332
-0.624746 0.780828 -6.76001e-05
0.760936 0.619627 -0.192454
0.646711 0.521522 -0.556579
-0.430575 -0.346451 0.833413
-0.150586 -0.12062 0.981211
0.156463 0.114671 0.981004
0.446599 0.326171 0.833164
0.670782 0.490189 0.556566
0.788937 0.583573 0.192406
-0.586362 0.810049 -0.00045282
-0.588237 0.808688 0.000518183
-0.587868 0.808957 0.000783691
-0.587354 0.80933 0.000131711
-0.587361 0.809324 -0.00084331
-0.587882 0.808945 -0.00148359
-0.588218 0.808702 -0.00118765
-0.586155 0.810199 -0.000190348
0.788512 0.584137 -0.192438
0.67086 0.490146 -0.55651
-0.446748 -0.325438 0.83337
-0.156214 -0.113273 0.981207
0.161828 0.10706 0.980994
0.461726 0.304539 0.833106
0.693248 0.45795 0.556497
0.814148 0.54785 0.192416
-0.546381 0.837537 -0.000263526
-0.548461 0.836175 0.00112456
-0.547652 0.836705 0.00133068
-0.546858 0.837225 0.000351522
-0.546867 0.837219 -0.00102234
-0.547667 0.836694 -0.00198221
-0.548438 0.836189 -0.00174427
-0.54616 0.837681 -0.000331254
0.813773 0.548402 -0.192428
0.693335 0.457909 -0.556422
-0.461846 -0.303806 0.833307
-0.161473 -0.105715 0.981199
0.166796 0.0992871 0.98098
0.47569 0.282491 0.833017
0.713888 0.4252 0.556389
0.836931 0.512369 0.192416
-0.505359 0.862909 -2.18046e-05
-0.507758 0.861498 0.0019568
-0.506272 0.862371 0.00201302
-0.505107 0.863057 0.000589267
-0.505119 0.863049 -0.00123086
-0.506285 0.862362 -0.00261678
-0.507709 0.861525 -0.00251142
-0.505136 0.863039 -0.000525969
0.83671 0.512732 -0.192412
0.713997 0.425138 -0.556296
-0.475781 -0.28176 0.833213
-0.166332 -0.0980153 0.981186
0.171342 0.0914342 0.98096
0.488437 0.260237 0.83289
0.732623 0.392266 0.556229
0.857279 0.47755 0.192403
-0.463817 0.885931 0.000357186
-0.466343 0.884599 0.00307224
-0.463856 0.885906 0.00284083
-0.46222 0.886765 0.000860609
-0.462235 0.886756 -0.00145424
-0.463873 0.885895 -0.00338813
-0.46629 0.884625 -0.00356588
-0.463569 0.88606 -0.00084363
0.857128 0.477829 -0.192382
0.732732 0.392217 -0.55612
-0.488506 -0.259496 0.833081
-0.170787 -0.0902288 0.981168
0.175463 0.0835736 0.980932
0.499932 0.238027 0.832713
0.749381 0.359571 0.556001
0.875204 0.44386 0.192369
-0.422526 0.90635 0.0010057
-0.424465 0.905433 0.00454461
-0.42051 0.90728 0.00377824
-0.418312 0.908303 0.00113196
-0.418332 0.908293 -0.00169253
-0.420525 0.907271 -0.00426613
-0.424383 0.905469 -0.00496046
-0.422277 0.906466 -0.00143553
0.875215 0.443853 -0.192336
0.749504 0.359507 -0.555876
-0.499985 -0.237266 0.832898
-0.17482 -0.0824557 0.981142
0.179156 0.0758143 0.980895
0.510158 0.216185 0.832468
0.764124 0.327617 0.555681
0.890897 0.411483 0.192311
-0.382823 0.923819 0.00216967
-0.382368 0.923988 0.00643366
-0.376316 0.926479 0.00474278
-0.373502 0.927628 0.00136121
-0.373529 0.927617 -0.00190287
-0.376326 0.926473 -0.00516405
-0.382243 0.924037 -0.00676234
-0.382613 0.923905 -0.00255145
0.891082 0.411102 -0.19227
0.764275 0.327498 -0.555543
-0.510202 -0.215384 0.832648
-0.178428 -0.0748073 0.981105
0.182411 0.0683304 0.980845
0.519098 0.195179 0.832131
0.776856 0.29699 0.55524
0.9048 0.37998 0.192228
-0.346985 0.937861 0.00428189
-0.340196 0.940314 0.00872378
-0.331319 0.943502 0.00559992
-0.327907 0.944709 0.00151054
-0.327945 0.944695 -0.00202705
-0.331326 0.943498 -0.0059395
-0.340026 0.940373 -0.00895108
-0.346806 0.937926 -0.00460358
0.905116 0.37925 -0.192183
0.777036 0.296796 -0.555093
-0.519145 -0.1943 0.832308
-0.181617 -0.0674439 0.981054
0.185225 0.0613954 0.980776
0.526722 0.175762 0.831668
0.787606 0.268409 0.554647
0.917751 0.347589 0.192132
-0.318507 0.947887 0.00800792
-0.297812 0.954559 0.0112115
-0.285485 0.958363 0.00615813
-0.281591 0.959533 0.00153476
-0.281644 0.959517 -0.00202571
-0.285488 0.958361 -0.00639751
-0.297594 0.954625 -0.0113228
-0.318412 0.947916 -0.00827241
0.918165 0.346518 -0.192089
0.787818 0.268094 -0.554498
-0.526788 -0.174739 0.831842
-0.184385 -0.060656 0.980981
0.187575 0.0554997 0.980681
0.532948 0.159276 0.831022
0.796327 0.242991 0.553912
0.931037 0.310275 0.192092
-0.301168 0.953466 0.0141204
-0.254388 0.967009 0.0134036
-0.238466 0.971131 0.00623287
-0.234287 0.972166 0.00142896
-0.234361 0.972148 -0.00187748
-0.238469 0.971129 -0.00634089
-0.254123 0.967079 -0.0133734
-0.301205 0.953452 -0.014325
0.931513 0.308863 -0.192062
0.796578 0.242474 -0.553778
-0.533058 -0.157978 0.831199
-0.186728 -0.0549439 0.980874
0.189325 0.0516515 0.980555
0.537398 0.148533 0.830146
0.802512 0.22353 0.553181
0.946576 0.25872 0.192504
-0.289498 0.956918 0.0223488
-0.206538 0.97833 0.0145974
-0.188328 0.982088 0.00600893
-0.184136 0.9829 0.00138119
-0.184233 0.982881 -0.00169145
-0.188344 0.982085 -0.00592462
-0.206265 0.97839 -0.0144152
-0.28967 0.956862 -0.0224898
0.947032 0.257051 -0.192499
0.8028 0.222701 -0.553096
-0.537604 -0.146664 0.830344
-0.188557 -0.0512979 0.980722
0.189847 0.0515455 0.98046
0.538307 0.149904 0.82931
0.802972 0.223383 0.552572
0.96716 0.163626 0.194497
-0.229147 0.972905 0.0307716
-0.140351 0.989936 0.0181079
-0.12452 0.992173 0.00931463
-0.120699 0.992684 0.00307773
-0.12068 0.992688 -0.00248839
-0.124489 0.992181 -0.00895149
-0.140505 0.989911 -0.0183117
-0.229807 0.972738 -0.0311436
0.967654 0.160756 -0.194428
0.803353 0.221889 -0.55262
-0.538787 -0.146631 0.829583
-0.189332 -0.0513862 0.980568
0.188818 0.0469342 0.98089
0.536797 0.13618 0.832649
0.806339 0.193224 0.559001
0.97626 0.0978805 0.193224
0.979072 0.0438592 -0.198732
0.827347 0.0715386 -0.557117
-0.552047 -0.0570468 0.831859
-0.193827 -0.0209755 0.980811
0.193791 0.0210446 0.980817
0.552026 0.057423 0.831847
0.827311 0.0719899 0.557111
0.97904 0.0440601 0.198844
0.97636 0.0972292 -0.19305
0.806737 0.191716 -0.558946
-0.537589 -0.132745 0.832692
-0.188503 -0.0471443 0.98094
0.189373 0.0408961 0.981053
0.538876 0.118467 0.834013
0.811305 0.164742 0.560931
0.972194 0.127098 0.196683
0.977264 0.0626141 -0.20257
0.825533 0.0664897 -0.560423
-0.55086 -0.0546956 0.832804
-0.193348 -0.0202628 0.980921
0.193555 0.0208805 0.980867
0.550884 0.0544316 0.832805
0.825468 0.0664234 0.560527
0.977246 0.0623566 0.202737
0.972353 0.126256 -0.196443
0.811648 0.163617 -0.560765
-0.539632 -0.115694 0.833914
-0.188948 -0.0415419 0.981108
0.185047 0.0467832 0.981615
0.523393 0.145232 0.839623
0.784567 0.225886 0.577434
0.967966 0.14961 0.20164
0.972554 -0.0236124 -0.231477
0.81859 0.0130342 -0.57423
-0.546518 -0.0322877 0.836825
-0.191676 -0.0124176 0.98138
0.191914 0.014388 0.981306
0.54609 0.0287175 0.837234
0.818485 0.0121503 0.5744
0.972653 -0.0221718 0.231202
0.968275 0.148158 -0.201227
0.785425 0.223682 -0.577125
-0.52678 -0.137 0.838888
-0.184395 -0.0484512 0.981657
0.000837415 0.00681853 0.999976
0.00408152 0.000544941 0.999992
</DataArray>
<DataArray type="Float64" Name="cell vector length" format="ascii">
0.150094 0.147217 0.130813 0.0945611 0.129671 0.150443 0.145004 0.140225 0.139938 0.144404 0.150951 0.129778 0.0941926 0.129651 0.156559 0.155276 0.417103 0.392902 0.353573 0.328689 0.357116 0.390851 0.402629 0.401164 0.400195 0.39993 0.390624 0.357311 0.329193 0.354462 0.400534 0.419662 0.526753 0.496613 0.437904 0.401291 0.452315 0.497808 0.507518 0.504818 0.504134 0.505406 0.497749 0.452645 0.40191 0.438476 0.501765 0.528205 0.566186 0.528162 0.441445 0.222902 0.162845 0.434745 0.563203 0.614267 0.61428 0.563428 0.434335 0.162631 0.22338 0.441778 0.532863 0.567432 0.590549 0.544731 0.435773 0.20888 0.138281 0.418874 0.553921 0.607209 0.607117 0.553691 0.418464 0.137922 0.209288 0.435943 0.549289 0.591686 0.604813 0.552827 0.429886 0.190576 0.136377 0.414828 0.551371 0.605554 0.605473 0.551155 0.414413 0.135892 0.191 0.430006 0.557577 0.605979 0.613904 0.557975 0.426415 0.175937 0.140427 0.413566 0.550004 0.604687 0.604618 0.549809 0.413164 0.139878 0.176391 0.426539 0.563123 0.615171 0.619973 0.56149 0.424239 0.164965 0.145973 0.413474 0.549066 0.603991 0.603928 0.548883 0.413086 0.145398 0.165451 0.424392 0.567133 0.621372 0.624097 0.563849 0.422645 0.156867 0.151128 0.413992 0.548475 0.603449 0.603391 0.548299 0.413614 0.150526 0.157408 0.422838 0.570034 0.625643 0.626898 0.565343 0.421316 0.15192 0.153902 0.414288 0.548128 0.603106 0.603052 0.547956 0.413917 0.153284 0.152509 0.421555 0.572091 0.628597 0.628762 0.566175 0.420017 0.146996 0.157753 0.415408 0.548157 0.602936 0.602884 0.547987 0.415036 0.157106 0.147647 0.420306 0.573495 0.630619 0.62999 0.566528 0.418635 0.142702 0.16126 0.416677 0.548435 0.602967 0.602917 0.548265 0.416306 0.160589 0.143414 0.418975 0.574418 0.632007 0.630797 0.566532 0.417111 0.138868 0.164376 0.418039 0.548996 0.603274 0.603229 0.548828 0.417672 0.163679 0.139643 0.417505 0.574982 0.632974 0.631353 0.566298 0.415343 0.134906 0.167848 0.420025 0.550245 0.604228 0.604185 0.550076 0.419655 0.167117 0.135749 0.415791 0.5753 0.633689 0.631744 0.566018 0.413704 0.131754 0.178464 0.427162 0.555682 0.608933 0.608889 0.555511 0.426795 0.177719 0.132645 0.414207 0.575557 0.634239 0.631974 0.565745 0.412373 0.123956 0.208927 0.450211 0.5735 0.62454 0.624498 0.573327 0.449846 0.208165 0.124921 0.412925 0.575783 0.634619 0.631994 0.565245 0.410939 0.121957 0.217225 0.455978 0.578113 0.628635 0.628589 0.577924 0.455601 0.216449 0.122969 0.411532 0.575749 0.634781 0.631699 0.564448 0.40935 0.119621 0.218083 0.45666 0.578808 0.629311 0.629261 0.578607 0.456268 0.217276 0.120684 0.409984 0.575397 0.634624 0.631052 0.563456 0.408031 0.118249 0.218003 0.456695 0.579078 0.629654 0.629603 0.578869 0.456294 0.217179 0.119344 0.408699 0.574825 0.63411 0.630057 0.562258 0.406874 0.117582 0.217476 0.456584 0.57935 0.630048 0.629994 0.579134 0.456181 0.216632 0.118715 0.407572 0.574025 0.633245 0.62864 0.560786 0.405826 0.117673 0.216432 0.456384 0.579697 0.630557 0.630501 0.579473 0.455978 0.215586 0.118818 0.406551 0.57293 0.631954 0.626666 0.558935 0.404878 0.118702 0.214737 0.456115 0.580162 0.631195 0.631136 0.579927 0.455708 0.213905 0.119844 0.405633 0.57144 0.630104 0.623925 0.556554 0.40405 0.120984 0.212229 0.455825 0.580794 0.631972 0.631906 0.580543 0.455419 0.211406 0.122131 0.404839 0.569413 0.627489 0.620107 0.553436 0.403401 0.12501 0.208751 0.455626 0.581645 0.632883 0.632806 0.58137 0.455219 0.207968 0.126126 0.404239 0.56666 0.623808 0.614767 0.549316 0.403077 0.131475 0.204242 0.455724 0.582771 0.633914 0.633821 0.582466 0.455317 0.203509 0.132557 0.403983 0.562938 0.618625 0.607184 0.543823 0.40338 0.141185 0.199056 0.456499 0.584265 0.635078 0.634965 0.583923 0.456099 0.198411 0.142202 0.404376 0.557906 0.611239 0.5959 0.536136 0.404671 0.154224 0.195165 0.458874 0.586486 0.636639 0.636505 0.586111 0.458498 0.194634 0.155159 0.405772 0.550786 0.600225 0.57651 0.522509 0.405068 0.164518 0.201352 0.466781 0.59177 0.640595 0.640478 0.591451 0.466508 0.201021 0.165318 0.406273 0.537949 0.581242 0.529821 0.481151 0.381835 0.125736 0.264566 0.507506 0.616956 0.6617 0.66232 0.619221 0.507251 0.264359 0.126517 0.38312 0.498246 0.535311 0.493573 0.449084 0.373499 0.324042 0.381638 0.437778 0.468899 0.469118 0.463061 0.452825 0.436069 0.382134 0.325032 0.374923 0.467562 0.499605 0.445428 0.403267 0.3435 0.303696 0.330951 0.376557 0.41908 0.420893 0.41326 0.397636 0.375066 0.331313 0.304443 0.344931 0.42297 0.451963 0.214646 0.171051 0.11267 0.0751043 0.116657 0.18097 0.241064 0.25223 0.24663 0.223444 0.182006 0.117682 0.0754296 0.111512 0.189697 0.220436 0.0423343 0.0151589 
</DataArray>
<DataArray type="Float64" Name="cell variable 4" format="ascii">
839.501 843.883 848.1 844.185 857.948 852.116 841.966 837.203 836.614 840.625 852.456 857.924 843.795 846.322 849.193 841.324 1121.39 1113.26 1107.59 1112.68 1128.31 1127.25 1126.68 1123.21 1121.84 1122.44 1127.3 1128.33 1112.58 1107.63 1125.33 1125.36 1337.22 1328.14 1319.47 1320.4 1353.93 1357.99 1361.93 1359.7 1358.05 1356.51 1358.03 1354.13 1320.67 1319.72 1340.97 1341.02 1397.92 1388.64 1379.51 1369.39 1693.96 2520.6 3262.04 3691.16 3689.66 3258.93 2518.7 1693.37 1369.57 1379.7 1402.2 1401.86 1417.77 1407.61 1398.87 1390.73 1700.86 2510.53 3255.07 3688.16 3687.02 3252.57 2508.69 1699.98 1390.85 1399.02 1421.77 1421.82 1422.97 1409.1 1395.97 1388.73 1712.63 2504.2 3244.64 3679.77 3678.84 3242.52 2502.48 1711.64 1388.89 1396.14 1424.1 1427.23 1424.35 1407.59 1391.34 1383.9 1726.23 2502.81 3235.81 3671 3670.19 3233.94 2501.18 1725.2 1384.09 1391.52 1423.8 1428.96 1424.7 1405.71 1387.21 1379.23 1739 2504.66 3229.13 3662.72 3662 3227.45 2503.11 1737.95 1379.46 1387.4 1423.39 1429.75 1424.78 1403.89 1383.52 1374.97 1749.33 2507.82 3224.52 3655.67 3655.04 3223 2506.3 1748.21 1375.22 1383.74 1423.16 1430.32 1424.74 1402.16 1380.2 1371.18 1753.99 2508.87 3221.05 3650.21 3649.65 3219.65 2507.39 1752.85 1371.46 1380.46 1423.06 1430.79 1424.54 1400.44 1377.24 1367.84 1760.56 2512.69 3219.63 3646.06 3645.55 3218.35 2511.24 1759.37 1368.14 1377.52 1422.98 1431.12 1424.25 1398.76 1374.58 1364.87 1766.16 2516.54 3219.33 3643.29 3642.82 3218.12 2515.09 1764.92 1365.18 1374.87 1422.92 1431.37 1423.92 1397.1 1372 1362.01 1770.48 2519.85 3219.94 3642.04 3641.62 3218.82 2518.4 1769.19 1362.33 1372.31 1422.84 1431.57 1423.49 1395.36 1369.28 1358.62 1773.65 2522.51 3221.23 3642.16 3641.78 3220.18 2521.04 1772.29 1358.94 1369.61 1422.64 1431.67 1422.55 1393.42 1366.92 1356.25 1775.66 2524.17 3222.6 3642.93 3642.57 3221.61 2522.71 1774.3 1356.59 1367.25 1422.16 1431.24 1421.17 1391.42 1365.19 1355.59 1808.02 2579.57 3293.26 3722.28 3721.93 3292.26 2578.03 1806.54 1355.93 1365.53 1421.54 1430.36 1420.27 1389.74 1363.34 1353.94 1807.72 2578.52 3292.75 3721.95 3721.56 3291.67 2576.9 1806.21 1354.29 1363.7 1421.15 1429.93 1419.75 1388.36 1361.5 1351.71 1807.88 2578.32 3293.51 3723.48 3723.05 3292.38 2576.64 1806.31 1352.07 1361.87 1420.95 1429.86 1419.14 1387.09 1360.12 1350.43 1807.68 2578.02 3294.61 3725.91 3725.5 3293.51 2576.34 1806.11 1350.8 1360.49 1420.79 1429.67 1418.44 1385.9 1359.03 1349.6 1806.75 2577.33 3295.98 3729.21 3728.81 3294.93 2575.64 1805.12 1349.97 1359.42 1420.63 1429.37 1417.69 1384.8 1358.18 1349.11 1804.69 2576.09 3297.8 3733.53 3733.14 3296.78 2574.42 1803.08 1349.5 1358.58 1420.46 1428.99 1416.91 1383.81 1357.59 1348.98 1801.16 2574.22 3300.27 3739 3738.58 3299.23 2572.58 1799.62 1349.38 1358 1420.31 1428.55 1416.12 1382.97 1357.32 1349.28 1795.76 2571.77 3303.68 3745.82 3745.37 3302.59 2570.13 1794.22 1349.66 1357.75 1420.25 1428.08 1415.32 1382.31 1357.45 1350.06 1787.98 2569.02 3308.46 3754.13 3753.59 3307.27 2567.41 1786.57 1350.43 1357.89 1420.28 1427.56 1414.45 1381.91 1358.14 1351.35 1777.39 2566.63 3315.12 3763.89 3763.21 3313.76 2565.07 1776.12 1351.7 1358.57 1420.48 1426.95 1413.24 1381.68 1359.47 1352.9 1763.95 2565.83 3324.16 3774.86 3773.98 3322.54 2564.34 1762.89 1353.22 1359.89 1420.78 1425.96 1409.97 1380.36 1360.56 1352.83 1748.77 2568.58 3335.83 3786.52 3785.38 3333.9 2567.19 1747.95 1353.09 1360.94 1419.84 1422.86 1394.7 1368.16 1351.94 1339.5 1736.33 2578.07 3350.15 3798.42 3797 3347.91 2576.78 1735.77 1339.64 1352.2 1407.48 1407.6 1314.66 1288.43 1269.8 1248.04 1744.62 2607.49 3375.98 3820.22 3818.49 3373.25 2606.26 1744.3 1248.2 1269.85 1325.24 1326.84 1243.99 1216.35 1194.79 1182.64 1210.16 1219.21 1253.67 1252.52 1243.88 1227.7 1219.3 1210.44 1182.92 1194.86 1251.15 1255.62 1112.71 1084.28 1059.93 1048.02 1054.19 1058.89 1097.22 1094.35 1084.09 1066.28 1058.75 1054.3 1048.12 1060.17 1115.1 1123.2 789.566 777.875 772.27 773.914 790.577 810.666 856.207 866.544 859.989 836.164 811.91 790.848 773.889 770.722 796.313 795.165 613.895 744.351 
</DataArray>
<DataArray type="Float64" Name="cell variable 5" format="ascii">
0.00555612 0.00555612 0.00555612 0.00555612 0.00555612 0.00555612 0.00555612 0.00555612 0.00555612 0.00555612 0.00555612 0.00555612 0.00555612 0.00555612 0.00555612 0.00555612 0.00555612 0.00555612 0.00555612 0.00555612 0.00555612 0.00555612 0.00555612 0.00555612 0.00555612 0.00555612 0.00555612 0.00555612 0.00555612 0.00555612 0.00555612 0.00555612 0.00555612 0.00555612 0.00555612 0.00555612 0.00555612 0.00555612 0.00555612 0.00555612 0.00555612 0.00555612 0.00555612 0.00555612 0.00555612 0.00555612 0.00555612 0.00555612 0.00839715 0.00777363 0.00676735 0.00580799 0.00555612 0.00555612 0.00555612 0.00555612 0.00555612 0.00555612 0.00555612 0.00555612 0.00580799 0.00676735 0.00777363 0.00839715 0.00950096 0.00863544 0.00723777 0.00590554 0.00555612 0.00555612 0.00555612 0.00555612 0.00555612 0.00555612 0.00555612 0.00555612 0.00590554 0.00723777 0.00863544 0.00950096 0.0101405 0.00913549 0.00751064 0.00596233 0.00555612 0.00555612 0.00555612 0.00555612 0.00555612 0.00555612 0.00555612 0.00555612 0.00596233 0.00751064 0.00913549 0.0101405 0.010606 0.00949726 0.00770942 0.00600431 0.00555612 0.00555612 0.00555612 0.00555612 0.00555612 0.00555612 0.00555612 0.00555612 0.00600431 0.00770942 0.00949726 0.010606 0.010969 0.00978124 0.00786376 0.00603641 0.00555612 0.00555612 0.00555612 0.00555612 0.00555612 0.00555612 0.00555612 0.00555612 0.00603641 0.00786376 0.00978124 0.010969 0.0112616 0.0100097 0.00798846 0.00606234 0.00555612 0.00555612 0.00555612 0.00555612 0.00555612 0.00555612 0.00555612 0.00555612 0.00606234 0.00798846 0.0100097 0.0112616 0.0115012 0.0101961 0.00809094 0.00608333 0.00555612 0.00555612 0.00555612 0.00555612 0.00555612 0.00555612 0.00555612 0.00555612 0.00608333 0.00809094 0.0101961 0.0115012 0.011695 0.010348 0.00817367 0.00610062 0.00555612 0.00555612 0.00555612 0.00555612 0.00555612 0.00555612 0.00555612 0.00555612 0.00610062 0.00817367 0.010348 0.011695 0.0118506 0.0104702 0.00824034 0.0061142 0.00555612 0.00555612 0.00555612 0.00555612 0.00555612 0.00555612 0.00555612 0.00555612 0.0061142 0.00824034 0.0104702 0.0118506 0.0119716 0.010564 0.00829096 0.00612531 0.00555612 0.00555612 0.00555612 0.00555612 0.00555612 0.00555612 0.00555612 0.00555612 0.00612531 0.00829096 0.010564 0.0119716 0.0120605 0.0106332 0.00832924 0.00613272 0.00555612 0.00555612 0.00555612 0.00555612 0.00555612 0.00555612 0.00555612 0.00555612 0.00613272 0.00832924 0.0106332 0.0120605 0.0121197 0.0106789 0.00835393 0.00613889 0.00555612 0.00555612 0.00555612 0.00555612 0.00555612 0.00555612 0.00555612 0.00555612 0.00613889 0.00835393 0.0106789 0.0121197 0.0121481 0.0107023 0.00836628 0.00614136 0.00555612 0.00555612 0.00555612 0.00555612 0.00555612 0.00555612 0.00555612 0.00555612 0.00614136 0.00836628 0.0107023 0.0121481 0.0121481 0.0107023 0.00836628 0.00614136 0.00555612 0.00555612 0.00555612 0.00555612 0.00555612 0.00555612 0.00555612 0.00555612 0.00614136 0.00836628 0.0107023 0.0121481 0.0121197 0.0106789 0.00835393 0.00613889 0.00555612 0.00555612 0.00555612 0.00555612 0.00555612 0.00555612 0.00555612 0.00555612 0.00613889 0.00835393 0.0106789 0.0121197 0.0120605 0.0106332 0.00832924 0.00613272 0.00555612 0.00555612 0.00555612 0.00555612 0.00555612 0.00555612 0.00555612 0.00555612 0.00613272 0.00832924 0.0106332 0.0120605 0.0119716 0.010564 0.00829096 0.00612531 0.00555612 0.00555612 0.00555612 0.00555612 0.00555612 0.00555612 0.00555612 0.00555612 0.00612531 0.00829096 0.010564 0.0119716 0.0118506 0.0104702 0.00824034 0.0061142 0.00555612 0.00555612 0.00555612 0.00555612 0.00555612 0.00555612 0.00555612 0.00555612 0.0061142 0.00824034 0.0104702 0.0118506 0.011695 0.010348 0.00817367 0.00610062 0.00555612 0.00555612 0.00555612 0.00555612 0.00555612 0.00555612 0.00555612 0.00555612 0.00610062 0.00817367 0.010348 0.011695 0.0115012 0.0101961 0.00809094 0.00608333 0.00555612 0.00555612 0.00555612 0.00555612 0.00555612 0.00555612 0.00555612 0.00555612 0.00608333 0.00809094 0.0101961 0.0115012 0.0112616 0.0100097 0.00798846 0.00606234 0.00555612 0.00555612 0.00555612 0.00555612 0.00555612 0.00555612 0.00555612 0.00555612 0.00606234 0.00798846 0.0100097 0.0112616 0.010969 0.00978124 0.00786376 0.00603641 0.00555612 0.00555612 0.00555612 0.00555612 0.00555612 0.00555612 0.00555612 0.00555612 0.00603641 0.00786376 0.00978124 0.010969 0.010606 0.00949726 0.00770942 0.00600431 0.00555612 0.00555612 0.00555612 0.00555612 0.00555612 0.00555612 0.00555612 0.00555612 0.00600431 0.00770942 0.00949726 0.010606 0.0101405 0.00913549 0.00751064 0.00596233 0.00555612 0.00555612 0.00555612 0.00555612 0.00555612 0.00555612 0.00555612 0.00555612 0.00596233 0.00751064 0.00913549 0.0101405 0.00950096 0.00863544 0.00723777 0.00590554 0.00555612 0.00555612 0.00555612 0.00555612 0.00555612 0.00555612 0.00555612 0.00555612 0.00590554 0.00723777 0.00863544 0.00950096 0.00839715 0.00777363 0.00676735 0.00580799 0.00555612 0.00555612 0.00555612 0.00555612 0.00555612 0.00555612 0.00555612 0.00555612 0.00580799 0.00676735 0.00777363 0.00839715 0.00555612 0.00555612 0.00555612 0.00555612 0.00555612 0.00555612 0.00555612 0.00555612 0.00555612 0.00555612 0.00555612 0.00555612 0.00555612 0.00555612 0.00555612 0.00555612 0.00555612 0.00555612 0.00555612 0.00555612 0.00555612 0.00555612 0.00555612 0.00555612 0.00555612 0.00555612 0.00555612 0.00555612 0.00555612 0.00555612 0.00555612 0.00555612 0.00555612 0.00555612 0.00555612 0.00555612 0.00555612 0.00555612 0.00555612 0.00555612 0.00555612 0.00555612 0.00555612 0.00555612 0.00555612 0.00555612 0.00555612 0.00555612 0.00555612 0.00555612 
</DataArray>
<DataArray type="Float64" Name="cell variable 6" format="ascii">
1 1 1 1 1 1 1 1 1 1 1 1 1 1 1 1 1 1 1 1 1 1 1 1 1 1 1 1 1 1 1 1 1 1 1 1 1 1 1 1 1 1 1 1 1 1 1 1 1 1 1 1 1 1 1 1 1 1 1 1 1 1 1 1 1 1 1 1 1 1 1 1 1 1 1 1 1 1 1 1 1 1 1 1 1 1 1 1 1 1 1 1 1 1 1 1 1 1 1 1 1 1 1 1 1 1 1 1 1 1 1 1 1 1 1 1 1 1 1 1 1 1 1 1 1 1 1 1 1 1 1 1 1 1 1 1 1 1 1 1 1 1 1 1 1 1 1 1 1 1 1 1 1 1 1 1 1 1 1 1 1 1 1 1 1 1 1 1 1 1 1 1 1 1 1 1 1 1 1 1 1 1 1 1 1 1 1 1 1 1 1 1 1 1 1 1 1 1 1 1 1 1 1 1 1 1 1 1 1 1 1 1 1 1 1 1 1 1 1 1 1 1 1 1 1 1 1 1 1 1 1 1 1 1 1 1 1 1 1 1 1 1 1 1 1 1 1 1 1 1 1 1 1 1 1 1 1 1 1 1 1 1 1 1 1 1 1 1 1 1 1 1 1 1 1 1 1 1 1 1 1 1 1 1 1 1 1 1 1 1 1 1 1 1 1 1 1 1 1 1 1 1 1 1 1 1 1 1 1 1 1 1 1 1 1 1 1 1 1 1 1 1 1 1 1 1 1 1 1 1 1 1 1 1 1 1 1 1 1 1 1 1 1 1 1 1 1 1 1 1 1 1 1 1 1 1 1 1 1 1 1 1 1 1 1 1 1 1 1 1 1 1 1 1 1 1 1 1 1 1 1 1 1 1 1 1 1 1 1 1 1 1 1 1 1 1 1 1 1 1 1 1 1 1 1 1 1 1 1 1 1 1 1 1 1 1 1 1 1 1 1 1 1 1 1 1 1 1 1 1 1 1 1 1 1 1 1 1 1 1 1 1 1 1 1 1 1 1 1 1 1 1 1 1 1 1 1 1 1 1 1 1 1 1 1 1 1 1 1 1 1 1 1 1 1 1 1 1 1 1 1 1 1 1 1 1 1 1 1 1 1 1 1 1 1 1 1 1 1 1 1 1 1 1 1 1 1 1 1 1 1 1 1 1 
</DataArray>
<DataArray type="Float64" Name="cell variable 7" format="ascii">
0 0 0 0 0 0 0 0 0 0 0 0 0 0 0 0 0 0 0 0 0 0 0 0 0 0 0 0 0 0 0 0 0 0 0 0 0 0 0 0 0 0 0 0 0 0 0 0 0 0 0 0 0 0 0 0 0 0 0 0 0 0 0 0 0 0 0 0 0 0 0 0 0 0 0 0 0 0 0 0 0 0 0 0 0 0 0 0 0 0 0 0 0 0 0 0 0 0 0 0 0 0 0 0 0 0 0 0 0 0 0 0 0 0 0 0 0 0 0 0 0 0 0 0 0 0 0 0 0 0 0 0 0 0 0 0 0 0 0 0 0 0 0 0 0 0 0 0 0 0 0 0 0 0 0 0 0 0 0 0 0 0 0 0 0 0 0 0 0 0 0 0 0 0 0 0 0 0 0 0 0 0 0 0 0 0 0 0 0 0 0 0 0 0 0 0 0 0 0 0 0 0 0 0 0 0 0 0 0 0 0 0 0 0 0 0 0 0 0 0 0 0 0 0 0 0 0 0 0 0 0 0 0 0 0 0 0 0 0 0 0 0 0 0 0 0 0 0 0 0 0 0 0 0 0 0 0 0 0 0 0 0 0 0 0 0 0 0 0 0 0 0 0 0 0 0 0 0 0 0 0 0 0 0 0 0 0 0 0 0 0 0 0 0 0 0 0 0 0 0 0 0 0 0 0 0 0 0 0 0 0 0 0 0 0 0 0 0 0 0 0 0 0 0 0 0 0 0 0 0 0 0 0 0 0 0 0 0 0 0 0 0 0 0 0 0 0 0 0 0 0 0 0 0 0 0 0 0 0 0 0 0 0 0 0 0 0 0 0 0 0 0 0 0 0 0 0 0 0 0 0 0 0 0 0 0 0 0 0 0 0 0 0 0 0 0 0 0 0 0 0 0 0 0 0 0 0 0 0 0 0 0 0 0 0 0 0 0 0 0 0 0 0 0 0 0 0 0 0 0 0 0 0 0 0 0 0 0 0 0 0 0 0 0 0 0 0 0 0 0 0 0 0 0 0 0 0 0 0 0 0 0 0 0 0 0 0 0 0 0 0 0 0 0 0 0 0 0 0 0 0 0 0 0 0 0 0 0 0 0 0 0 0 0 0 0 0 0 0 0 0 0 0 0 0 0 0 0 0 0 0 0 1 1 
</DataArray>
<DataArray type="Float64" Name="cell variable 8" format="ascii">
11.25 33.75 56.25 78.75 101.25 123.75 146.25 168.75 191.25 213.75 236.25 258.75 281.25 303.75 326.25 348.75 11.25 33.75 56.25 78.75 101.25 123.75 146.25 168.75 191.25 213.75 236.25 258.75 281.25 303.75 326.25 348.75 11.25 33.75 56.25 78.75 101.25 123.75 146.25 168.75 191.25 213.75 236.25 258.75 281.25 303.75 326.25 348.75 11.25 33.75 56.25 78.75 101.25 123.75 146.25 168.75 191.25 213.75 236.25 258.75 281.25 303.75 326.25 348.75 11.25 33.75 56.25 78.75 101.25 123.75 146.25 168.75 191.25 213.75 236.25 258.75 281.25 303.75 326.25 348.75 11.25 33.75 56.25 78.75 101.25 123.75 146.25 168.75 191.25 213.75 236.25 258.75 281.25 303.75 326.25 348.75 11.25 33.75 56.25 78.75 101.25 123.75 146.25 168.75 191.25 213.75 236.25 258.75 281.25 303.75 326.25 348.75 11.25 33.75 56.25 78.75 101.25 123.75 146.25 168.75 191.25 213.75 236.25 258.75 281.25 303.75 326.25 348.75 11.25 33.75 56.25 78.75 101.25 123.75 146.25 168.75 191.25 213.75 236.25 258.75 281.25 303.75 326.25 348.75 11.25 33.75 56.25 78.75 101.25 123.75 146.25 168.75 191.25 213.75 236.25 258.75 281.25 303.75 326.25 348.75 11.25 33.75 56.25 78.75 101.25 123.75 146.25 168.75 191.25 213.75 236.25 258.75 281.25 303.75 326.25 348.75 11.25 33.75 56.25 78.75 101.25 123.75 146.25 168.75 191.25 213.75 236.25 258.75 281.25 303.75 326.25 348.75 11.25 33.75 56.25 78.75 101.25 123.75 146.25 168.75 191.25 213.75 236.25 258.75 281.25 303.75 326.25 348.75 11.25 33.75 56.25 78.75 101.25 123.75 146.25 168.75 191.25 213.75 236.25 258.75 281.25 303.75 326.25 348.75 11.25 33.75 56.25 78.75 101.25 123.75 146.25 168.75 191.25 213.75 236.25 258.75 281.25 303.75 326.25 348.75 11.25 33.75 56.25 78.75 101.25 123.75 146.25 168.75 191.25 213.75 236.25 258.75 281.25 303.75 326.25 348.75 11.25 33.75 56.25 78.75 101.25 123.75 146.25 168.75 191.25 213.75 236.25 258.75 281.25 303.75 326.25 348.75 11.25 33.75 56.25 78.75 101.25 123.75 146.25 168.75 191.25 213.75 236.25 258.75 281.25 303.75 326.25 348.75 11.25 33.75 56.25 78.75 101.25 123.75 146.25 168.75 191.25 213.75 236.25 258.75 281.25 303.75 326.25 348.75 11.25 33.75 56.25 78.75 101.25 123.75 146.25 168.75 191.25 213.75 236.25 258.75 281.25 303.75 326.25 348.75 11.25 33.75 56.25 78.75 101.25 123.75 146.25 168.75 191.25 213.75 236.25 258.75 281.25 303.75 326.25 348.75 11.25 33.75 56.25 78.75 101.25 123.75 146.25 168.75 191.25 213.75 236.25 258.75 281.25 303.75 326.25 348.75 11.25 33.75 56.25 78.75 101.25 123.75 146.25 168.75 191.25 213.75 236.25 258.75 281.25 303.75 326.25 348.75 11.25 33.75 56.25 78.75 101.25 123.75 146.25 168.75 191.25 213.75 236.25 258.75 281.25 303.75 326.25 348.75 11.25 33.75 56.25 78.75 101.25 123.75 146.25 168.75 191.25 213.75 236.25 258.75 281.25 303.75 326.25 348.75 11.25 33.75 56.25 78.75 101.25 123.75 146.25 168.75 191.25 213.75 236.25 258.75 281.25 303.75 326.25 348.75 11.25 33.75 56.25 78.75 101.25 123.75 146.25 168.75 191.25 213.75 236.25 258.75 281.25 303.75 326.25 348.75 11.25 33.75 56.25 78.75 101.25 123.75 146.25 168.75 191.25 213.75 236.25 258.75 281.25 303.75 326.25 348.75 11.25 33.75 56.25 78.75 101.25 123.75 146.25 168.75 191.25 213.75 236.25 258.75 281.25 303.75 326.25 348.75 11.25 33.75 56.25 78.75 101.25 123.75 146.25 168.75 191.25 213.75 236.25 258.75 281.25 303.75 326.25 348.75 11.25 33.75 56.25 78.75 101.25 123.75 146.25 168.75 191.25 213.75 236.25 258.75 281.25 303.75 326.25 348.75 11.25 33.75 56.25 78.75 101.25 123.75 146.25 168.75 191.25 213.75 236.25 258.75 281.25 303.75 326.25 348.75 0 0 
</DataArray>
</CellData>
</Piece>
</UnstructuredGrid>
</VTKFile>
