<VTKFile type="UnstructuredGrid" version="0.1">
<UnstructuredGrid>
<Piece  NumberOfPoints="    2080" NumberOfCells="     514">
<Points>
<DataArray type="Float64" NumberOfComponents="3" format="ascii">
-336.154 711.567 1.19158
-335.159 716.623 26.9554
-308.137 706.541 29.0698
-309.255 701.066 1.21641
-334.933 717.748 29.7064
-332.066 732.115 51.4958
-304.756 723.223 55.3708
-307.911 707.666 31.8208
-331.654 734.189 53.5951
-327.46 755.646 68.088
-299.743 748.523 73.1584
-304.344 725.297 57.4702
-326.943 758.352 69.2218
-322.254 783.641 74.2809
-294.133 778.635 79.8521
-299.226 751.23 74.2923
-321.734 786.574 74.2826
-317.398 811.929 69.202
-288.998 809.093 74.3689
-293.612 781.568 79.8539
-316.95 814.65 68.0672
-313.483 836.24 53.5597
-284.847 835.187 57.476
-288.551 811.814 73.2341
-313.151 838.327 51.4555
-310.86 852.784 29.6561
-282.035 852.898 31.7642
-284.515 837.274 55.3719
-310.68 853.914 26.9031
-309.859 858.983 1.1456
-280.962 859.51 1.15112
-281.854 854.028 29.0112
-309.858 858.982 -1.83529
-310.654 853.891 -27.5897
-281.822 854.01 -29.6864
-280.96 859.509 -1.82976
-310.832 852.76 -30.342
-313.115 838.29 -52.1347
-284.47 837.24 -56.0346
-282.001 852.878 -32.4386
-313.446 836.201 -54.2375
-316.908 814.602 -68.7339
-288.505 811.768 -73.8802
-284.801 835.152 -58.1374
-317.356 811.881 -69.8672
-321.687 786.521 -74.9323
-293.562 781.519 -80.4843
-288.953 809.047 -75.0135
-322.208 783.588 -74.929
-326.898 758.302 -69.8546
-299.174 751.184 -74.9058
-294.082 778.586 -80.4809
-327.414 755.597 -68.7191
-331.598 734.151 -54.208
-304.307 725.27 -58.0621
-299.691 748.479 -73.7702
-332.011 732.078 -52.1066
-334.882 717.729 -30.3078
-307.899 707.652 -32.3814
-304.721 723.197 -55.9607
-335.11 716.606 -27.5547
-336.152 711.566 -1.79025
-309.253 701.065 -1.76541
-308.127 706.529 -29.6283
-306.026 700.112 1.29276
-304.907 705.588 29.1462
-273.364 698.602 29.7855
-274.536 693.04 1.3021
-301.509 722.323 55.5862
-269.795 715.59 56.7914
-273.12 699.78 32.6755
-304.664 706.767 32.0362
-296.466 747.724 73.4811
-264.495 741.421 75.0773
-269.352 717.765 58.9979
-301.067 724.498 57.7928
-290.822 777.969 80.2352
-258.686 772.235 81.976
-263.945 744.26 76.2716
-295.916 750.564 74.6753
-285.667 808.575 74.7534
-253.584 803.444 76.3068
-258.144 775.317 81.9792
-290.28 781.05 80.2384
-281.503 834.808 57.7999
-249.468 830.179 58.9716
-253.124 806.303 75.1113
-285.207 811.434 73.558
-278.68 852.623 31.9792
-246.626 848.34 32.6176
-249.125 832.37 56.7586
-281.16 836.999 55.5868
-277.598 859.292 1.22689
-245.528 855.131 1.23651
-246.437 849.526 29.7254
-278.491 853.809 29.087
-278.459 853.791 -29.7602
-246.411 849.504 -30.3765
-245.527 855.13 -1.89399
-277.597 859.291 -1.90361
-281.115 836.966 -56.2474
-249.084 832.336 -57.3919
-246.597 848.317 -33.2677
-278.645 852.604 -32.6514
-285.161 811.389 -74.2017
-253.078 806.258 -75.7302
-249.426 830.143 -59.6034
-281.457 834.773 -58.4589
-290.23 781.002 -80.8662
-258.093 775.267 -82.5798
-253.537 803.399 -76.9239
-285.621 808.53 -75.3955
-295.864 750.519 -75.2862
-263.894 744.214 -76.8531
-258.634 772.186 -82.5748
-290.771 777.92 -80.8613
-301.031 724.47 -58.3819
-269.316 717.731 -59.5631
-264.445 741.375 -75.657
-296.415 747.68 -74.09
-304.654 706.753 -32.5937
-273.108 699.758 -33.2136
-269.761 715.558 -57.3541
-301.476 722.297 -56.173
-304.899 705.576 -29.7017
-306.025 700.112 -1.83882
-274.535 693.039 -1.82948
-273.353 698.581 -30.3217
-271.024 692.321 1.32445
-269.852 697.883 29.8078
-238.005 691.938 29.949
-239.233 686.377 1.3351
-269.595 699.071 32.7388
-266.27 714.881 56.8547
-234.229 708.936 57.1318
-237.748 693.126 32.8799
-265.8 717.076 59.0952
-260.943 740.732 75.1746
-228.567 734.807 75.5722
-233.759 711.131 59.3723
-260.37 743.601 76.3859
-255.111 771.576 82.0903
-222.669 765.776 82.4874
-227.995 737.676 76.7835
-254.57 774.699 82.0935
-250.01 802.826 76.421
-217.807 797.254 76.8474
-222.128 768.898 82.4906
-249.564 805.728 75.2087
-245.909 829.604 59.069
-213.851 824.235 59.4267
-217.361 800.156 75.6351
-245.571 831.828 56.824
-243.071 847.798 32.683
-211.029 842.533 32.8833
-213.514 826.459 57.1817
-242.882 849.001 29.7492
-241.973 854.605 1.26024
-209.922 849.369 1.27437
-210.84 843.736 29.9494
-241.972 854.604 -1.91507
-242.856 848.979 -30.3976
-210.819 843.715 -30.5712
-209.921 849.368 -1.90095
-243.044 847.774 -33.3304
-245.53 831.794 -57.4546
-213.477 826.423 -57.7893
-211.006 842.511 -33.504
-245.867 829.569 -59.6981
-249.518 805.684 -75.8248
-217.317 800.11 -76.2278
-213.814 824.198 -60.0328
-249.964 802.78 -77.0354
-254.52 774.649 -82.6913
-222.079 768.847 -83.0648
-217.762 797.207 -77.4384
-255.06 771.527 -82.6862
-260.32 743.555 -76.9646
-227.946 737.628 -77.3396
-222.619 765.724 -83.0597
-260.893 740.686 -75.7516
-265.764 717.042 -59.6577
-233.72 711.093 -59.9144
-228.519 734.759 -76.1266
-266.236 714.848 -57.4151
-269.582 699.048 -33.2746
-237.731 693.098 -33.3953
-234.192 708.899 -57.6718
-269.841 697.861 -30.3418
-271.023 692.319 -1.84963
-239.232 686.376 -1.83898
-237.99 691.912 -30.4625
-235.723 685.695 1.34279
-234.495 691.256 29.9567
-203.032 684.912 30.0151
-204.434 679.382 1.35244
-234.212 692.444 32.8995
-230.694 708.253 57.1514
-198.741 701.82 57.2592
-202.749 686.099 32.958
-230.174 710.445 59.4015
-224.982 734.121 75.6014
-192.296 727.564 75.7601
-198.222 704.012 59.5093
-224.34 736.996 76.8166
-219.013 765.096 82.5205
-185.017 758.337 82.6441
-191.653 730.44 76.9754
-218.395 768.225 82.5162
-214.074 796.581 76.873
-178.46 789.645 77.014
-184.399 761.466 82.6398
-213.56 799.479 75.6546
-210.05 823.558 59.4462
-173.13 816.506 59.5876
-177.946 792.543 75.7956
-209.66 825.775 57.1949
-207.175 841.849 32.8965
-169.439 834.702 32.9813
-172.739 818.723 57.3363
-206.957 843.047 29.9549
-206.039 848.68 1.27988
-168.028 841.492 1.29495
-169.221 835.9 30.0398
-206.038 848.679 -1.90334
-206.936 843.026 -30.5736
-169.203 835.881 -30.6302
-168.027 841.491 -1.88827
-207.153 841.827 -33.5144
-209.624 825.739 -57.7996
-172.707 818.688 -57.9171
-169.42 834.681 -33.5709
-210.013 823.521 -60.0496
-213.516 799.433 -76.2447
-177.903 792.496 -76.362
-173.096 816.469 -60.1671
-214.03 796.533 -77.4615
-218.346 768.174 -83.0878
-184.351 761.414 -83.1891
-178.417 789.597 -77.5788
-218.964 765.044 -83.0904
-224.291 736.948 -77.3702
-191.605 730.391 -77.5086
-184.969 758.285 -83.1917
-224.934 734.073 -76.1534
-230.135 710.407 -59.9413
-198.181 703.971 -60.0303
-192.248 727.515 -76.2919
-230.656 708.216 -57.6892
-234.195 692.415 -33.4127
-202.727 686.067 -33.4522
-198.701 701.78 -57.7783
-234.48 691.23 -30.468
-235.722 685.694 -1.84445
-204.433 679.38 -1.8348
-203.012 684.882 -30.5075
-200.974 678.608 1.35572
-199.572 684.138 30.0184
-168.562 676.51 30.043
-170.161 671.045 1.3665
-199.249 685.316 32.9656
-195.241 701.037 57.2668
-163.663 693.233 57.3115
-168.239 677.687 32.9902
-194.647 703.212 59.5205
-188.722 726.765 75.7713
-156.253 718.718 75.8174
-163.069 695.409 59.5652
-187.963 729.614 76.9858
-181.327 757.51 82.6545
-147.622 749.136 82.7057
-155.495 721.566 77.0318
-180.552 760.61 82.6493
-174.613 788.789 77.0236
-139.403 780.072 77.045
-146.847 752.236 82.7005
-173.94 791.663 75.8045
-169.124 815.626 59.5966
-132.638 806.632 59.6155
-138.73 782.946 75.826
-168.617 817.825 57.3436
-165.316 833.804 32.9886
-128.02 824.642 33.0096
-132.131 808.831 57.3626
-165.038 834.991 30.0435
-163.845 840.584 1.29865
-126.273 831.366 1.31249
-127.741 825.83 30.0644
-163.844 840.583 -1.88882
-165.02 834.972 -30.6308
-127.726 825.812 -30.6243
-126.272 831.365 -1.87499
-165.297 833.783 -33.5753
-168.585 817.789 -57.9215
-132.103 808.797 -57.9138
-128.003 824.622 -33.5688
-169.091 815.589 -60.1733
-173.898 791.615 -76.3682
-138.69 782.899 -76.3644
-132.608 806.596 -60.1657
-174.57 788.741 -77.5857
-180.504 760.558 -83.196
-146.8 752.184 -83.2237
-139.362 780.024 -77.5819
-181.279 757.458 -83.1997
-187.915 729.564 -77.5166
-155.447 721.516 -77.5409
-147.575 749.084 -83.2273
-188.674 726.716 -76.3008
-194.606 703.172 -60.0393
-163.026 695.367 -60.0633
-156.206 718.668 -76.3251
-195.201 700.997 -57.7837
-199.227 685.284 -33.4576
-168.214 677.654 -33.4608
-163.621 693.192 -57.8077
-199.552 684.109 -30.5085
-200.973 678.607 -1.8358
-170.16 671.043 -1.82502
-168.539 676.478 -30.5117
-166.755 670.122 1.36855
-165.156 675.587 30.045
-134.658 666.53 30.061
-136.472 661.146 1.38045
-164.789 676.75 32.9941
-160.213 692.295 57.3154
-129.092 683.018 57.3431
-134.29 667.693 33.0101
-159.534 694.445 59.5701
-152.718 717.754 75.8223
-120.629 708.158 75.855
-128.413 685.168 59.5977
-151.839 720.566 77.0365
-143.966 748.136 82.7103
-110.643 738.147 82.747
-119.75 710.97 77.0692
-143.041 751.193 82.7041
-135.597 779.029 77.0487
-100.849 768.623 77.0663
-109.718 741.205 82.7408
-134.773 781.865 75.828
-128.682 805.552 59.6175
-92.6922 794.791 59.6277
-100.025 771.459 75.8457
-128.06 807.723 57.3643
-123.949 823.534 33.0113
-87.1569 812.548 33.0243
-92.0707 796.962 57.3745
-123.61 824.707 30.0661
-122.142 830.243 1.31417
-85.0768 819.182 1.32797
-86.8184 813.721 30.0792
-122.141 830.242 -1.87361
-123.595 824.689 -30.6229
-86.8055 813.704 -30.6086
-85.0761 819.181 -1.85981
-123.932 823.514 -33.5675
-128.031 807.688 -57.9125
-92.0446 796.928 -57.896
-87.1426 812.529 -33.5532
-128.652 805.516 -60.1648
-134.733 781.819 -76.3635
-99.987 771.413 -76.3554
-92.6648 794.755 -60.1482
-135.557 778.982 -77.5828
-142.994 751.141 -83.2246
-109.673 741.153 -83.2369
-100.811 768.576 -77.5747
-143.919 748.084 -83.2294
-151.791 720.516 -77.543
-119.703 710.92 -77.5527
-110.598 738.095 -83.2418
-152.67 717.705 -76.3276
-159.49 694.403 -60.0658
-128.368 685.124 -60.0714
-120.581 708.108 -76.3374
-160.17 692.254 -57.8092
-164.764 676.716 -33.4623
-134.264 667.658 -33.455
-129.048 682.975 -57.8148
-165.133 675.555 -30.5112
-166.754 670.12 -1.82455
-136.471 661.144 -1.81265
-134.633 666.497 -30.504
-133.127 660.064 1.38218
-131.313 665.449 30.0628
-101.374 654.948 30.0767
-103.416 649.655 1.39488
-130.897 666.594 33.0128
-125.698 681.918 57.3458
-95.1031 671.16 57.3671
-100.958 656.093 33.0267
-124.929 684.035 59.6012
-117.144 707.026 75.8585
-85.5412 695.887 75.8867
-94.3334 673.277 59.6226
-116.142 709.795 77.0728
-107.035 736.972 82.7506
-74.1904 725.376 82.7793
-84.5387 698.656 77.101
-105.964 739.98 82.7437
-97.0952 767.398 77.0692
-62.8831 755.321 77.0877
-73.1188 728.384 82.7724
-96.1255 770.188 75.8474
-88.7926 793.52 59.6294
-53.3773 781.028 59.6406
-61.9133 758.111 75.8658
-88.0593 795.656 57.3757
-83.1455 811.243 33.0256
-46.9411 798.481 33.0379
-52.644 783.164 57.3869
-82.748 812.397 30.0806
-81.0063 817.858 1.32941
-44.5312 805.004 1.34321
-46.5436 799.635 30.0929
-81.0057 817.857 -1.8582
-82.7351 812.38 -30.607
-46.5323 799.619 -30.5918
-44.5305 805.003 -1.8444
-83.1314 811.224 -33.5515
-88.0334 795.622 -57.8943
-52.6202 783.131 -57.8787
-46.9286 798.462 -33.5363
-88.7654 793.485 -60.147
-96.0876 770.142 -76.3542
-61.8774 758.066 -76.3467
-53.3523 780.993 -60.1314
-97.0565 767.351 -77.5748
-105.919 739.928 -83.237
-73.075 728.333 -83.2409
-62.8462 755.275 -77.5674
-106.99 736.92 -83.2427
-116.095 709.744 -77.5537
-84.4919 698.605 -77.558
-74.146 725.324 -83.2466
-117.097 706.976 -76.3383
-124.884 683.992 -60.0724
-94.2877 673.232 -60.0708
-85.4944 695.837 -76.3427
-125.654 681.876 -57.8149
-130.87 666.558 -33.4551
-100.931 656.055 -33.4444
-95.0584 671.116 -57.8134
-131.288 665.415 -30.503
-133.125 660.062 -1.81167
-103.414 649.653 -1.79898
-101.349 654.913 -30.4923
-100.136 648.415 1.3965
-98.094 653.708 30.0783
-68.7654 641.777 30.0916
-71.0419 636.587 1.40969
-97.6283 654.832 33.0289
-91.7732 669.899 57.3693
-61.7705 657.673 57.3871
-68.2997 642.901 33.0422
-90.9097 671.978 59.6254
-82.1175 694.588 75.8895
-51.0886 681.923 75.9132
-60.907 659.752 59.6432
-80.9892 697.306 77.1039
-70.6409 724.026 82.7822
-38.3685 710.839 82.8052
-49.9604 684.642 77.1276
-69.4257 726.978 82.7749
-59.19 753.915 77.0902
-25.5939 740.186 77.1071
-37.1533 713.791 82.7978
-58.0799 756.653 75.8676
-49.5439 779.569 59.6423
-14.7845 765.369 59.654
-24.4838 742.923 75.8845
-48.7018 781.665 57.3883
-42.9989 796.982 33.0392
-7.46794 782.472 33.0514
-13.9425 767.465 57.3999
-42.5433 798.115 30.0943
-40.5309 803.483 1.34464
-4.73315 788.867 1.35836
-7.01232 783.605 30.1065
-40.5304 803.482 -1.84278
-42.5321 798.098 -30.5902
-7.00245 783.589 -30.5751
-4.73259 788.866 -1.82906
-42.9866 796.963 -33.5346
-48.6782 781.632 -57.877
-13.9208 767.433 -57.862
-7.4569 782.455 -33.5195
-49.5191 779.535 -60.1302
-58.0442 756.607 -76.3455
-24.4499 742.878 -76.3366
-14.7617 765.336 -60.1152
-59.1533 753.869 -77.567
-69.3821 726.927 -83.2405
-37.1112 713.74 -83.2385
-25.559 740.14 -77.5581
-70.5967 723.975 -83.2468
-80.9426 697.255 -77.5583
-49.9145 684.59 -77.5577
-38.3258 710.787 -83.2447
-82.0707 694.537 -76.3429
-90.864 671.933 -60.071
-60.8612 659.706 -60.0654
-51.0426 681.872 -76.3424
-91.7284 669.854 -57.8129
-97.6008 654.794 -33.4439
-68.2724 642.861 -33.4318
-61.7257 657.627 -57.8072
-98.0688 653.672 -30.4911
-100.134 648.413 -1.79776
-71.0406 636.585 -1.78458
-68.7405 641.739 -30.4789
-67.8332 635.19 1.41127
-65.5567 640.379 30.0932
-36.8925 627.041 30.1065
-39.4067 621.967 1.42475
-65.0399 641.48 33.0441
-58.5108 656.252 57.389
-29.1667 642.583 57.4047
-36.3757 628.142 33.0574
-57.5522 658.288 59.6455
-47.7338 680.459 75.9155
-17.3602 666.294 75.935
-28.2082 644.618 59.6612
-46.4794 683.12 77.13
-34.8875 709.317 82.8076
-3.2776 694.563 82.8265
-16.1057 668.955 77.1495
-33.5311 712.206 82.7999
-21.9716 738.601 77.1091
10.9252 723.243 77.1236
-1.92117 697.452 82.8188
-20.7257 741.279 75.8861
-11.0264 763.725 59.6556
22.9947 747.845 59.6672
12.1711 725.921 75.9005
-10.0788 765.775 57.4013
-3.60425 780.783 33.0527
31.168 764.555 33.0649
23.9424 749.895 57.4128
-3.09187 781.891 30.1079
-0.812704 787.153 1.35979
34.2211 770.806 1.37346
31.6804 765.664 30.1201
-0.812217 787.153 -1.82746
-3.08207 781.875 -30.5735
31.6891 765.649 -30.5585
34.2216 770.805 -1.81379
-3.59339 780.765 -33.5179
-10.0573 765.744 -57.8604
23.9621 749.864 -57.8453
31.1778 764.539 -33.5029
-11.0037 763.692 -60.1139
-20.692 741.234 -76.3353
12.2029 725.877 -76.3237
23.0156 747.812 -60.0988
-21.937 738.556 -77.5573
-33.4891 712.155 -83.2377
-1.88088 697.401 -83.2314
10.9579 723.198 -77.5457
-34.8449 709.266 -83.2444
-46.4337 683.069 -77.5574
-16.0611 668.903 -77.5525
-3.23671 694.512 -83.2381
-47.6879 680.407 -76.342
-57.5065 658.241 -60.065
-28.163 644.571 -60.0569
-17.3154 666.242 -76.3371
-58.466 656.206 -57.8064
-65.0127 641.44 -33.4309
-36.3496 628.1 -33.4182
-29.1225 642.536 -57.7983
-65.5318 640.341 -30.4776
-67.8319 635.188 -1.78325
-39.4054 621.965 -1.76977
-36.8686 627.001 -30.4648
-36.2751 620.415 1.42631
-33.7608 625.489 30.108
-5.81858 610.771 30.1211
-8.57047 605.826 1.4399
-33.193 626.564 33.0591
-25.984 641.005 57.4064
2.63515 625.92 57.4206
-5.25071 611.846 33.0722
-24.9304 642.992 59.6632
-14.0824 664.667 75.937
15.5585 649.031 75.9536
3.68874 627.907 59.6774
-12.7027 667.265 77.1515
0.125465 692.872 82.8285
30.9824 676.584 82.8446
16.9382 651.628 77.1681
1.62049 695.692 82.8205
14.4668 721.483 77.1253
46.5762 704.529 77.1379
32.4774 679.403 82.8365
15.8446 724.095 75.902
26.6682 746.019 59.6686
59.8672 728.491 59.6797
47.9539 707.141 75.9145
27.7182 748.018 57.4141
34.9439 762.679 33.0662
68.8735 744.767 33.0783
60.9172 730.49 57.4252
35.5116 763.76 30.1215
38.0522 768.902 1.3749
72.2365 750.857 1.38853
69.4412 745.849 30.1336
38.0527 768.901 -1.8122
35.5202 763.745 -30.5569
69.4488 745.834 -30.5419
72.2369 750.856 -1.79857
34.9535 762.662 -33.5013
27.7378 747.988 -57.8436
60.9352 730.46 -57.8281
68.8821 744.751 -33.4862
26.6889 745.987 -60.0973
15.8761 724.051 -76.3223
47.9835 707.098 -76.3089
59.8863 728.459 -60.0818
14.4994 721.438 -77.5446
1.66057 695.641 -83.2303
32.5156 679.352 -83.2211
46.6068 704.485 -77.5312
0.166189 692.821 -83.2373
-12.6582 667.213 -77.5517
16.9811 651.576 -77.5437
31.0212 676.533 -83.2281
-14.0377 664.615 -76.3364
-24.8853 642.944 -60.0562
3.73255 627.858 -60.0465
15.6016 648.978 -76.3284
-25.9399 640.958 -57.7973
-33.1669 626.522 -33.4171
-5.22634 611.802 -33.404
2.67802 625.871 -57.7875
-33.737 625.449 -30.4634
-36.2739 620.413 -1.76837
-8.56925 605.823 -1.75477
-5.79646 610.73 -30.4503
-5.52225 604.123 1.44143
-2.77036 609.069 30.1226
24.3912 593.002 30.1353
21.4041 588.197 1.45496
-2.15173 610.115 33.0737
5.73414 624.188 57.4222
33.5645 607.718 57.435
25.0098 594.048 33.0864
6.88176 626.121 59.6791
18.7515 647.245 75.9553
47.5879 630.17 75.9696
34.7122 609.652 59.6919
20.2547 649.773 77.1698
34.2989 674.729 82.8463
64.328 656.938 82.8601
49.0911 632.698 77.1842
35.9293 677.471 82.838
50.0281 702.597 77.1394
81.2743 684.081 77.1509
65.9584 659.681 82.8519
51.5337 705.137 75.9159
63.4469 726.486 59.681
95.7448 707.346 59.6914
82.7799 686.621 75.9274
64.5961 728.431 57.4265
72.5523 742.708 33.0796
105.556 723.15 33.0913
96.8939 709.29 57.437
73.1736 743.759 30.135
75.969 748.768 1.38995
109.22 729.064 1.40341
106.177 724.201 30.1467
75.9693 748.767 -1.79699
73.1812 743.745 -30.5403
106.184 724.187 -30.5253
109.22 729.063 -1.78353
72.5608 742.692 -33.4846
64.6139 728.401 -57.8264
96.9103 709.261 -57.8106
105.564 723.134 -33.4696
63.4659 726.455 -60.0802
51.5631 705.094 -76.3073
82.8074 686.578 -76.2932
95.7622 707.316 -60.0644
50.0585 702.552 -77.5299
35.9673 677.42 -83.2197
65.9944 659.63 -83.2085
81.3027 684.037 -77.5158
34.3375 674.677 -83.227
20.2974 649.72 -77.5427
49.132 632.645 -77.5326
64.3646 656.887 -83.2158
18.7945 647.193 -76.3274
6.9254 626.072 -60.0455
34.7541 609.602 -60.0344
47.6291 630.117 -76.3173
5.77682 624.139 -57.7863
-2.12755 610.07 -33.4028
25.0318 594.002 -33.3894
33.6055 607.669 -57.7752
-2.74835 609.027 -30.4488
-5.52114 604.12 -1.75333
21.4052 588.195 -1.7398
24.411 592.959 -30.4355
24.3624 586.347 1.45645
27.3495 591.153 30.1368
53.6711 573.774 30.1493
50.4532 569.122 1.46978
28.0181 592.167 33.0879
36.5729 605.837 57.4365
63.55 588.02 57.4483
54.3397 574.789 33.1004
37.8129 607.712 59.6934
50.6886 628.23 75.9711
78.6498 609.755 75.9836
64.79 589.895 59.7052
52.3127 630.681 77.1856
67.5496 654.922 82.8616
96.6744 635.67 82.8736
80.2739 612.206 77.1981
69.3121 657.58 82.8532
84.6279 681.981 77.1523
114.932 661.944 77.1626
98.4369 638.329 82.8652
86.2572 684.443 75.9287
99.2221 705.168 59.6927
130.54 684.459 59.7025
116.562 664.407 75.939
100.467 707.052 57.4382
109.129 720.912 33.0926
141.127 699.753 33.1038
131.785 686.344 57.448
109.802 721.931 30.1481
112.845 726.794 1.4048
145.082 705.477 1.418
141.801 700.772 30.1594
112.845 726.793 -1.78197
109.809 721.917 -30.5238
141.807 700.759 -30.5087
145.082 705.476 -1.76876
109.137 720.896 -33.4679
100.483 707.023 -57.8089
131.8 686.315 -57.7928
141.134 699.738 -33.4529
99.2394 705.138 -60.0627
86.2845 684.4 -76.2915
116.587 664.365 -76.2764
130.556 684.43 -60.0466
84.6561 681.937 -77.5143
69.3478 657.53 -83.207
98.4705 638.279 -83.1941
114.959 661.901 -77.4992
67.586 654.87 -83.2145
52.3534 630.628 -77.5313
80.3124 612.153 -77.5196
96.7087 635.619 -83.2017
50.7296 628.177 -76.3161
37.8546 607.662 -60.0332
64.8297 589.844 -60.0215
78.6886 609.702 -76.3044
36.6137 605.787 -57.774
28.0399 592.121 -33.3882
54.3589 574.741 -33.3749
63.5887 587.97 -57.7622
27.3692 591.109 -30.434
24.3634 586.345 -1.73835
50.4541 569.12 -1.72502
53.6882 573.73 -30.4208
53.3152 567.129 1.47122
56.5331 571.782 30.1507
81.9556 553.132 30.1628
78.5126 548.644 1.48426
57.2506 572.762 33.1017
66.4609 585.993 57.4496
92.5215 566.871 57.4605
82.673 554.112 33.1138
67.791 587.805 59.7065
81.6508 607.665 75.9849
108.668 587.834 75.9956
93.8516 568.682 59.7173
83.3927 610.033 77.1994
99.7932 633.497 82.8748
127.94 612.829 82.8849
110.41 590.201 77.2101
101.684 636.065 82.8663
118.179 659.681 77.1637
147.465 638.171 77.1728
129.83 615.398 82.8764
119.928 662.059 75.9401
133.906 682.112 59.7035
164.168 659.883 59.7125
149.214 640.55 75.9491
135.243 683.932 57.4492
144.586 697.341 33.105
175.501 674.63 33.1157
165.504 661.703 57.4582
145.309 698.326 30.1607
148.59 703.031 1.41935
179.735 680.151 1.43225
176.224 675.614 30.1714
148.59 703.03 -1.76721
145.315 698.312 -30.5072
176.229 675.602 -30.4922
179.735 680.15 -1.75431
144.592 697.326 -33.4512
135.258 683.904 -57.7911
165.518 661.675 -57.7747
175.507 674.616 -33.4361
133.922 682.082 -60.0449
119.953 662.018 -76.2747
149.237 640.509 -76.2588
164.182 659.854 -60.0285
118.205 659.638 -77.4976
101.717 636.015 -83.1925
129.861 615.348 -83.1784
147.49 638.129 -77.4817
99.8272 633.446 -83.2003
83.431 609.98 -77.5182
110.446 590.148 -77.5051
127.971 612.779 -83.1861
81.6894 607.612 -76.3031
67.8305 587.754 -60.0202
93.8888 568.631 -60.0081
108.704 587.78 -76.2901
66.4993 585.943 -57.7609
57.2695 572.714 -33.3736
82.6891 554.063 -33.3607
92.5576 566.82 -57.7487
56.5501 571.737 -30.4194
53.316 567.127 -1.72358
78.5134 548.642 -1.71054
81.9697 553.086 -30.4064
81.2719 546.513 1.48568
84.7149 551.001 30.1642
109.181 531.124 30.1766
105.52 526.813 1.49849
85.4797 551.944 33.1152
95.3282 564.703 57.4618
120.412 544.321 57.4724
109.946 532.067 33.1275
96.7458 566.447 59.7185
111.562 585.598 75.9968
137.57 564.457 76.0052
121.829 546.064 59.7291
113.418 587.877 77.2111
130.948 610.504 82.886
158.045 588.47 82.8935
139.426 566.736 77.2195
132.962 612.977 82.8774
150.597 635.75 77.1737
178.791 612.818 77.1815
160.059 590.943 82.8849
152.461 638.039 75.95
167.414 657.372 59.7135
196.544 633.675 59.7211
180.655 615.107 75.9578
168.84 659.123 57.4592
178.836 672.051 33.1167
208.593 647.84 33.1261
197.97 635.426 57.4668
179.607 672.998 30.1727
183.118 677.534 1.43353
213.095 653.144 1.44621
209.364 648.787 30.1821
183.118 677.533 -1.75275
179.612 672.985 -30.4906
209.369 648.775 -30.4748
213.096 653.143 -1.74007
178.842 672.037 -33.4344
168.853 659.096 -57.773
197.982 635.4 -57.7556
208.599 647.827 -33.4185
167.429 657.343 -60.0267
152.484 637.998 -76.257
180.676 615.067 -76.2403
196.557 633.647 -60.0093
150.621 635.708 -77.48
132.993 612.927 -83.1766
160.088 590.894 -83.1601
178.813 612.777 -77.4633
130.979 610.454 -83.1845
113.454 587.824 -77.5035
139.459 566.683 -77.4886
158.074 588.421 -83.168
111.598 585.545 -76.2887
96.7826 566.395 -60.0066
121.864 546.013 -59.9946
137.604 564.404 -76.2737
95.364 564.652 -57.7474
85.4955 551.896 -33.3593
109.958 532.018 -33.3471
120.445 544.27 -57.7354
84.7288 550.955 -30.405
81.2726 546.511 -1.70914
105.52 526.811 -1.69633
109.192 531.078 -30.3928
108.17 524.549 1.49989
111.831 528.86 30.178
135.286 507.807 30.1898
131.414 503.684 1.5124
112.642 529.764 33.1288
123.108 542.018 57.4737
147.159 520.428 57.4836
136.096 508.711 33.1406
124.61 543.689 59.7301
140.351 562.081 76.0062
165.293 539.688 76.0122
148.661 522.099 59.74
142.317 564.266 77.2201
160.936 586 82.894
186.923 562.661 82.8924
167.259 541.872 77.2261
163.069 588.37 82.8851
181.8 610.246 77.1818
208.835 585.952 77.1773
189.056 565.031 82.8835
183.774 612.44 75.9581
199.664 631.007 59.7214
227.591 605.898 59.7201
210.808 588.146 75.9536
201.174 632.685 57.4674
211.797 645.099 33.1267
240.321 619.443 33.1315
229.1 607.576 57.4661
212.614 646.007 30.1832
216.345 650.363 1.44731
245.078 624.515 1.4597
241.138 620.351 30.188
216.345 650.362 -1.73839
212.619 645.995 -30.4731
241.142 620.339 -30.4533
245.078 624.515 -1.726
211.803 645.086 -33.4164
201.186 632.659 -57.7535
229.111 607.55 -57.7279
240.326 619.43 -33.3966
199.677 630.979 -60.0069
183.795 612.399 -76.2379
210.828 588.107 -76.2096
227.602 605.871 -59.9814
181.822 610.204 -77.4609
163.097 588.321 -83.1577
189.082 564.982 -83.1328
208.854 585.912 -77.4326
160.964 585.951 -83.166
142.35 564.213 -77.4865
167.29 541.82 -77.47
186.95 562.612 -83.1411
140.384 562.029 -76.2722
124.644 543.637 -59.9931
148.692 522.048 -59.981
165.325 539.636 -76.2557
123.141 541.967 -57.7341
112.654 529.715 -33.3458
136.105 508.662 -33.3336
147.189 520.377 -57.722
111.842 528.814 -30.3914
108.171 524.547 -1.69496
131.414 503.681 -1.68245
135.293 507.76 -30.3792
133.948 501.292 1.51368
137.82 505.415 30.1911
160.197 483.224 30.2003
156.121 479.297 1.52573
138.675 506.278 33.1415
149.738 517.995 57.4845
172.691 495.241 57.4852
161.052 484.086 33.1507
151.321 519.589 59.7401
167.954 537.178 76.0123
191.767 513.58 75.9968
174.274 496.836 59.7408
170.025 539.263 77.2246
189.69 560.051 82.8909
214.506 535.461 82.8483
193.839 515.664 77.2091
191.935 562.312 82.8804
211.713 583.234 77.1741
237.497 557.615 77.1101
216.751 537.723 82.8378
213.791 585.326 75.9501
230.573 603.077 59.7165
257.182 576.573 59.6588
239.575 559.707 75.886
232.162 604.677 57.4638
243.382 616.544 33.1292
270.542 589.446 33.1002
258.771 578.173 57.4061
244.242 617.409 30.188
248.182 621.574 1.4597
275.535 594.266 1.47172
271.401 590.311 30.159
248.183 621.573 -1.7233
244.246 617.398 -30.4506
271.405 590.3 -30.3977
275.535 594.265 -1.71129
243.387 616.532 -33.3916
232.173 604.651 -57.723
258.78 578.148 -57.6417
270.546 589.433 -33.3387
230.584 603.05 -59.9752
213.81 585.287 -76.2035
239.592 559.669 -76.1165
257.192 576.547 -59.894
211.733 583.194 -77.4269
191.961 562.264 -83.1271
216.775 537.676 -83.0622
237.515 557.576 -77.3399
189.716 560.002 -83.1371
170.056 539.211 -77.466
193.867 515.613 -77.4286
214.53 535.414 -83.0721
167.985 537.126 -76.2533
151.352 519.538 -59.9787
174.302 496.785 -59.9581
191.795 513.529 -76.2159
149.768 517.944 -57.7204
138.684 506.228 -33.332
161.057 484.037 -33.3181
172.718 495.191 -57.6998
137.827 505.368 -30.3778
133.949 501.289 -1.68106
156.121 479.295 -1.66901
160.2 483.177 -30.3639
158.533 476.782 1.52687
162.608 480.708 30.2014
183.842 457.421 30.2097
179.572 453.701 1.53846
163.506 481.527 33.1512
175.145 492.683 57.4857
196.927 468.804 57.484
184.74 458.24 33.1594
176.807 494.196 59.7398
194.3 510.941 75.9958
216.902 486.172 75.9775
198.589 470.318 59.7382
196.473 512.92 77.2059
217.14 532.717 82.845
240.713 506.888 82.8031
219.075 488.151 77.1875
219.494 534.862 82.8319
240.24 554.755 77.1042
264.757 527.824 77.0439
243.067 509.033 82.7899
242.415 556.737 75.8794
260.022 573.603 59.6521
285.332 545.738 59.5981
266.933 529.806 75.8191
261.685 575.118 57.4013
273.456 586.391 33.0955
299.295 557.902 33.0683
286.996 547.254 57.3473
274.356 587.211 30.158
278.49 591.166 1.47079
304.514 562.457 1.48248
300.195 558.721 30.1308
278.49 591.165 -1.70773
274.36 587.2 -30.3941
300.198 558.711 -30.3437
304.514 562.456 -1.69604
273.461 586.379 -33.3313
261.695 575.094 -57.6344
287.005 547.23 -57.5575
299.299 557.89 -33.2809
260.032 573.577 -59.8848
242.432 556.699 -76.1073
266.948 529.77 -76.0246
285.342 545.714 -59.8079
240.258 554.716 -77.3315
219.517 534.815 -83.0538
243.088 508.988 -82.99
264.773 527.787 -77.2489
217.164 532.669 -83.0664
196.501 512.869 -77.423
219.1 488.101 -77.3834
240.735 506.842 -83.0027
194.328 510.889 -76.2126
176.834 494.146 -59.9548
198.614 470.268 -59.9324
216.927 486.122 -76.173
175.172 492.632 -57.6979
163.511 481.478 -33.3161
184.741 458.191 -33.302
196.951 468.754 -57.6755
162.612 480.661 -30.3625
158.533 476.779 -1.66758
179.572 453.698 -1.656
183.843 457.374 -30.3484
181.855 451.067 1.53958
186.125 454.787 30.2108
206.164 430.459 30.2201
201.712 426.957 1.55071
187.063 455.561 33.16
199.25 466.125 57.4846
219.804 441.175 57.4901
207.102 431.233 33.1694
200.986 467.554 59.7378
219.298 483.408 75.9771
240.622 457.523 75.9782
221.54 442.604 59.7433
221.568 485.276 77.1857
243.207 504.013 82.8014
265.441 477.019 82.7983
242.892 459.391 77.1869
245.664 506.036 82.787
267.355 524.827 77.041
290.505 496.714 77.0387
267.898 479.041 82.7839
269.625 526.695 75.8159
288.025 542.627 59.5949
311.951 513.565 59.5969
292.775 498.582 75.8136
289.761 544.056 57.3453
302.06 554.704 33.0662
326.504 525.007 33.0728
313.687 514.994 57.3473
302.999 555.476 30.1309
307.318 559.212 1.48254
331.944 529.293 1.49384
327.443 525.779 30.1375
307.318 559.211 -1.69356
303.003 555.465 -30.3412
327.446 525.77 -30.3253
331.944 529.292 -1.68226
302.064 554.692 -33.2763
289.77 544.032 -57.5529
313.695 514.972 -57.5328
326.508 524.996 -33.2605
288.034 542.603 -59.8022
269.64 526.659 -76.0189
292.788 498.547 -75.9949
311.959 513.542 -59.7821
267.371 524.789 -77.2435
245.685 505.991 -82.9846
267.917 478.997 -82.9603
290.519 496.678 -77.2194
243.228 503.967 -82.9986
221.593 485.226 -77.3793
242.914 459.343 -77.3598
265.46 476.974 -82.9743
219.323 483.358 -76.1704
201.011 467.504 -59.9298
221.562 442.555 -59.9154
240.644 457.475 -76.1509
199.274 466.075 -57.6738
187.064 455.512 -33.3003
207.1 431.185 -33.2882
219.825 441.126 -57.6594
186.125 454.741 -30.3471
181.855 451.065 -1.65464
201.712 426.955 -1.64351
206.161 430.414 -30.3349
203.859 424.212 1.55183
208.312 427.714 30.2212
227.106 402.401 30.2307
222.483 399.126 1.56239
209.287 428.439 33.1702
221.989 438.382 57.491
241.265 412.422 57.4976
228.081 403.127 33.1797
223.794 439.722 59.7438
242.876 454.642 75.9787
262.873 427.71 75.9822
243.07 413.762 59.7504
245.237 456.394 77.187
267.786 474.021 82.7985
288.634 445.939 82.8015
265.234 429.462 77.1905
270.342 475.918 82.784
292.948 493.59 77.0388
314.656 464.351 77.0448
291.19 447.836 82.7871
295.309 495.342 75.814
314.485 510.325 59.5973
336.925 480.1 59.6056
317.017 466.103 75.8201
316.291 511.664 57.348
329.108 521.677 33.0736
352.038 490.793 33.0834
338.731 481.439 57.3563
330.085 522.401 30.1386
334.585 525.914 1.4949
357.686 494.799 1.5057
353.014 491.517 30.1484
334.585 525.914 -1.68088
330.088 522.392 -30.3239
353.017 491.508 -30.3123
357.686 494.798 -1.67008
329.112 521.667 -33.2588
316.299 511.642 -57.5311
338.737 481.418 -57.5183
352.04 490.783 -33.2471
314.493 510.302 -59.7801
295.323 495.307 -75.9929
317.029 466.07 -75.9782
336.932 480.078 -59.7673
292.962 493.554 -77.2172
270.36 475.874 -82.9581
291.206 447.794 -82.941
314.668 464.317 -77.2026
267.804 473.976 -82.9721
245.259 456.345 -77.3577
265.253 429.416 -77.3416
288.651 445.896 -82.955
242.898 454.593 -76.1492
223.816 439.674 -59.9136
243.089 413.716 -59.9013
262.893 427.663 -76.1331
222.01 438.333 -57.658
209.285 428.392 -33.2868
228.075 403.08 -33.2759
241.283 412.375 -57.6456
208.308 427.668 -30.3337
203.859 424.209 -1.64227
222.482 399.124 -1.63171
227.099 402.357 -30.3228
224.49 396.275 1.56346
229.113 399.55 30.2318
246.615 373.313 30.2407
241.833 370.272 1.57343
230.124 400.226 33.1805
243.308 409.521 57.4984
261.258 382.616 57.5043
247.626 373.989 33.1894
245.177 410.77 59.7509
264.98 424.718 75.9827
283.601 396.809 75.9854
263.128 383.865 59.7568
267.425 426.35 77.1909
290.826 442.827 82.8019
310.237 413.732 82.8048
286.046 398.441 77.1936
293.473 444.593 82.7876
316.939 461.109 77.0453
337.149 430.818 77.0516
312.885 415.498 82.7906
319.386 462.739 75.8209
339.294 476.737 59.6064
360.187 445.423 59.615
339.596 432.449 75.8271
341.165 477.982 57.3573
354.471 487.337 33.0844
375.822 455.337 33.094
362.058 446.669 57.3659
355.483 488.01 30.1495
360.155 491.292 1.50681
381.667 459.052 1.51708
376.834 456.01 30.1592
360.156 491.292 -1.66886
355.486 488.001 -30.3111
376.836 456.002 -30.3004
381.667 459.051 -1.65859
354.474 487.327 -33.2458
341.171 477.962 -57.517
362.063 446.65 -57.5055
375.825 455.328 -33.2351
339.3 476.715 -59.7658
319.397 462.706 -75.9768
339.606 432.417 -75.9634
360.193 445.402 -59.7544
316.951 461.075 -77.2009
293.489 444.551 -82.9393
312.899 415.458 -82.9232
337.16 430.786 -77.1875
290.842 442.784 -82.9532
267.444 426.303 -77.3398
286.063 398.397 -77.324
310.252 413.691 -82.9371
265 424.671 -76.1315
245.196 410.723 -59.8997
263.144 383.82 -59.8876
283.618 396.765 -76.1157
243.325 409.475 -57.6443
230.118 400.18 -33.2746
247.616 373.945 -33.2643
261.273 382.571 -57.6322
229.106 399.506 -30.3216
224.489 396.273 -1.63054
241.832 370.27 -1.62057
246.605 373.271 -30.3113
243.695 367.322 1.57442
248.477 370.363 30.2417
264.646 343.263 30.25
259.716 340.464 1.58376
249.52 370.988 33.1902
263.153 379.615 57.505
279.735 351.831 57.5096
265.689 343.888 33.1984
265.082 380.77 59.7571
285.556 393.714 75.9857
302.754 364.901 75.9865
281.664 352.986 59.7616
288.078 395.222 77.1938
312.27 410.513 82.805
330.196 380.481 82.8063
305.277 366.409 77.1945
315.002 412.145 82.791
339.267 427.465 77.0521
357.93 396.201 77.0572
332.929 382.114 82.7923
341.792 428.971 75.8279
362.383 441.945 59.6157
381.679 409.622 59.6238
360.456 397.707 75.833
364.315 443.094 57.3668
378.079 451.762 33.095
397.799 418.728 33.1042
383.611 410.771 57.3748
379.124 452.384 30.1602
383.957 455.425 1.51815
403.825 422.141 1.52795
398.844 419.349 30.1695
383.957 455.425 -1.65743
379.127 452.376 -30.2992
398.846 419.342 -30.2889
403.826 422.14 -1.64763
378.082 451.754 -33.2338
364.321 443.075 -57.5043
383.616 410.754 -57.4932
397.802 418.72 -33.2236
362.389 441.925 -59.753
341.803 428.939 -75.962
360.465 397.678 -75.9486
381.684 409.603 -59.7419
339.277 427.433 -77.1859
315.016 412.105 -82.9215
332.941 382.076 -82.9048
357.94 396.171 -77.1724
312.284 410.472 -82.9353
288.095 395.178 -77.3222
305.292 366.368 -77.3055
330.209 380.443 -82.9185
285.572 393.67 -76.1141
265.098 380.725 -59.8859
281.677 352.943 -59.8735
302.769 364.859 -76.0974
263.167 379.571 -57.6309
249.511 370.944 -33.263
265.676 343.847 -33.2533
279.747 351.789 -57.6185
248.467 370.321 -30.3102
243.694 367.32 -1.61946
259.716 340.462 -1.61012
264.632 343.224 -30.3005
261.429 337.422 1.58466
266.358 340.221 30.2509
281.155 312.323 30.2583
276.091 309.769 1.59317
267.431 340.794 33.199
281.477 348.737 57.5101
296.651 320.142 57.5129
282.228 312.896 33.2064
283.462 349.795 59.7617
304.552 361.71 75.9866
320.287 332.067 75.9846
298.636 321.2 59.7645
307.146 363.093 77.1944
332.065 377.165 82.8063
348.463 346.277 82.8051
322.881 333.449 77.1925
334.875 378.659 82.7926
359.876 392.747 77.0575
376.949 360.593 77.0608
351.274 347.771 82.7914
362.475 394.123 75.8336
383.698 406.038 59.6244
401.351 372.789 59.6313
379.547 361.97 75.837
385.686 407.088 57.3757
399.875 415.045 33.1051
417.917 381.059 33.1135
403.339 373.838 57.3827
400.95 415.612 30.1705
405.931 418.403 1.52895
424.11 384.159 1.53803
418.992 381.626 30.1789
405.931 418.403 -1.64654
400.952 415.605 -30.2879
418.994 381.62 -30.2783
424.11 384.159 -1.63746
399.877 415.037 -33.2224
385.691 407.071 -57.492
403.344 373.823 -57.4814
417.919 381.052 -33.2128
383.704 406.02 -59.7405
362.484 394.094 -75.9472
379.555 361.942 -75.9334
401.356 372.772 -59.7298
359.886 392.717 -77.1707
334.888 378.622 -82.9031
351.285 347.736 -82.8853
376.957 360.565 -77.1569
332.077 377.126 -82.9166
307.16 363.051 -77.3035
322.894 333.41 -77.2855
348.474 346.241 -82.8988
304.566 361.669 -76.0956
283.474 349.753 -59.8718
298.646 321.161 -59.8591
320.299 332.028 -76.0776
281.489 348.695 -57.6172
267.418 340.753 -33.252
282.212 312.858 -33.2429
296.66 320.103 -57.6045
266.345 340.182 -30.2994
261.428 337.42 -1.60907
276.09 309.767 -1.60055
281.138 312.287 -30.2904
277.65 306.642 1.59396
282.714 309.196 30.2591
296.103 280.563 30.2656
290.918 278.256 1.60164
283.814 309.716 33.2068
298.237 316.962 57.5133
311.967 287.625 57.5143
297.203 281.083 33.2133
300.271 317.922 59.7643
321.923 328.789 75.9844
336.158 298.391 75.9793
314.001 288.585 59.7653
324.582 330.043 77.1921
350.163 342.87 82.8048
364.995 311.209 82.8008
338.817 299.645 77.187
353.045 344.224 82.7914
378.72 357.046 77.0608
394.16 324.086 77.0622
367.876 312.563 82.7875
381.384 358.29 75.8374
403.189 369.109 59.6317
419.157 335.017 59.6378
396.825 325.33 75.8388
405.228 370.055 57.3834
419.806 377.276 33.1143
436.128 342.424 33.122
421.197 335.964 57.3894
420.908 377.787 30.1799
426.026 380.32 1.53896
442.472 345.203 1.54733
437.231 342.935 30.1876
426.026 380.32 -1.63645
420.911 377.781 -30.2773
437.233 342.93 -30.2685
442.472 345.203 -1.62808
419.808 377.269 -33.2117
405.232 370.04 -57.4802
421.201 335.95 -57.47
436.13 342.418 -33.2029
403.194 369.092 -59.7284
381.393 358.263 -75.9319
396.833 325.305 -75.9176
419.162 335.002 -59.7182
378.728 357.018 -77.1551
353.056 344.189 -82.8835
367.886 312.53 -82.8643
394.168 324.06 -77.1407
350.175 342.835 -82.8967
324.594 330.004 -77.2834
338.827 299.61 -77.2636
365.005 311.176 -82.8775
321.935 328.75 -76.0757
300.281 317.883 -59.8572
314.01 288.549 -59.8441
336.168 298.356 -76.056
298.246 316.923 -57.6032
283.797 309.678 -33.2416
297.184 281.048 -33.2333
311.974 287.589 -57.5901
282.697 309.16 -30.2894
277.649 306.64 -1.59956
290.917 278.254 -1.59189
296.084 280.529 -30.2811
292.319 275.051 1.60231
297.505 277.358 30.2663
309.457 248.052 30.272
304.162 245.992 1.60918
298.629 277.825 33.2135
313.393 284.366 57.5145
325.648 254.356 57.5133
310.581 248.519 33.2192
315.472 285.228 59.7648
337.628 295.034 75.9787
350.33 263.961 75.9698
327.727 255.218 59.7636
340.345 296.158 77.1863
366.523 307.722 82.8
379.753 275.374 82.7927
353.047 265.085 77.1774
369.467 308.933 82.7872
395.752 320.456 77.0619
409.527 286.777 77.0613
382.698 276.584 82.7798
398.477 321.563 75.8391
420.809 331.25 59.638
435.058 296.402 59.6436
412.252 287.885 75.8385
422.894 332.091 57.3901
437.825 338.551 33.1227
452.39 302.92 33.1301
437.144 297.242 57.3956
438.953 339.004 30.1885
444.194 341.272 1.54819
458.869 305.369 1.55592
453.518 303.373 30.1958
444.194 341.272 -1.62716
438.955 338.999 -30.2676
453.521 303.37 -30.2597
458.869 305.369 -1.61943
437.828 338.545 -33.2018
422.899 332.077 -57.469
437.148 297.231 -57.4595
452.393 302.915 -33.1939
420.813 331.236 -59.7168
398.484 321.539 -75.9161
412.26 287.862 -75.9011
435.063 296.39 -59.7074
395.76 320.431 -77.1388
369.477 308.901 -82.8624
382.707 276.555 -82.8412
409.535 286.754 -77.1238
366.533 307.69 -82.8752
340.355 296.124 -77.2613
353.056 265.053 -77.2391
379.762 275.344 -82.854
337.638 294.999 -76.0539
315.48 285.193 -59.842
327.733 255.187 -59.8281
350.339 263.929 -76.0317
313.4 284.331 -57.5887
298.61 277.79 -33.232
310.56 248.488 -33.2243
325.653 254.325 -57.5748
297.485 277.325 -30.2802
292.318 275.049 -1.59096
304.161 245.991 -1.58409
309.435 248.022 -30.2725
305.403 242.716 1.60971
310.698 244.775 30.2726
321.186 214.857 30.277
315.795 213.043 1.61565
311.843 245.189 33.2191
326.911 251.027 57.5132
337.665 220.414 57.5088
322.331 215.271 33.2235
329.028 251.791 59.7626
351.632 260.533 75.9688
362.775 228.866 75.9549
339.782 221.177 59.7582
354.399 261.528 77.1761
381.105 271.817 82.7915
392.707 238.872 82.7792
365.542 229.86 77.1622
384.106 272.881 82.7792
410.936 283.074 77.0607
423.018 248.764 77.0574
395.708 239.936 82.7669
413.714 284.041 75.8386
436.52 292.559 59.6436
449.02 257.04 59.6486
425.796 249.731 75.8353
438.646 293.289 57.3963
453.893 298.966 33.1307
466.669 262.645 33.1374
451.147 257.77 57.4012
455.043 299.361 30.1966
460.394 301.356 1.55672
473.265 264.758 1.56356
467.819 263.039 30.2033
460.394 301.356 -1.61862
455.046 299.357 -30.2589
467.822 263.037 -30.2521
473.265 264.757 -1.61177
453.896 298.962 -33.193
438.651 293.277 -57.4586
451.152 257.761 -57.4506
466.673 262.642 -33.1862
436.525 292.546 -59.7059
413.721 284.018 -75.8996
425.804 249.71 -75.884
449.026 257.03 -59.6979
410.944 283.051 -77.1216
384.115 272.852 -82.839
395.717 239.91 -82.8149
423.026 248.743 -77.106
381.114 271.787 -82.8513
354.409 261.496 -77.2364
365.551 229.832 -77.211
392.716 238.845 -82.8272
351.641 260.502 -76.0293
329.034 251.76 -59.8257
339.788 221.151 -59.8101
362.783 228.838 -76.0039
326.915 250.996 -57.5733
311.822 245.159 -33.2228
322.308 215.245 -33.2156
337.669 220.387 -57.5577
310.676 244.746 -30.2717
305.402 242.714 -1.58321
315.794 213.041 -1.57728
321.162 214.833 -30.2645
316.873 209.701 1.61599
322.263 211.516 30.2773
331.267 181.044 30.2794
325.791 179.467 1.62091
323.428 211.878 33.2229
338.762 217.02 57.5082
347.995 185.873 57.4983
332.431 181.406 33.225
340.913 217.687 59.7565
363.905 225.376 75.9533
373.468 193.199 75.9325
350.146 186.54 59.7467
366.716 226.241 77.1603
393.881 235.253 82.7772
403.833 201.807 82.7573
376.279 194.064 77.1395
396.931 236.17 82.7657
424.241 244.998 77.0562
434.608 210.144 77.0503
406.883 202.724 82.7457
427.065 245.819 75.8352
450.29 253.129 59.6485
461.016 217.026 59.6531
437.432 210.965 75.8293
452.451 253.746 57.4018
467.974 258.62 33.138
478.932 221.698 33.1435
463.178 217.643 57.4064
469.143 258.955 30.204
474.589 260.673 1.56427
485.626 223.47 1.57009
480.101 222.032 30.2095
474.589 260.673 -1.61109
469.146 258.953 -30.2514
480.105 222.033 -30.2456
485.627 223.47 -1.60526
467.977 258.618 -33.1855
452.457 253.737 -57.4498
463.184 217.637 -57.4437
478.936 221.698 -33.1797
450.295 253.119 -59.6965
427.073 245.799 -75.8826
437.442 210.946 -75.8665
461.023 217.018 -59.6904
424.249 244.977 -77.1035
396.94 236.144 -82.8125
406.893 202.7 -82.7826
434.617 210.124 -77.0875
393.89 235.226 -82.8241
366.725 226.214 -77.2079
376.288 194.042 -77.1773
403.843 201.783 -82.7942
363.913 225.349 -76.0011
340.918 217.662 -59.8073
350.15 186.521 -59.7879
373.477 193.177 -75.9705
338.765 216.995 -57.556
323.405 211.853 -33.2139
332.407 181.387 -33.2062
347.998 185.854 -57.5366
322.24 211.491 -30.2636
316.871 209.7 -1.57641
325.79 179.466 -1.57148
331.242 181.025 -30.2559
326.704 176.067 1.62088
332.18 177.643 30.2793
339.689 146.673 30.2743
334.142 145.323 1.62487
333.36 177.956 33.2234
348.923 182.423 57.4968
356.626 150.813 57.4726
340.87 146.985 33.2184
351.103 182.997 59.7437
374.425 189.656 75.9295
382.395 157.063 75.8938
358.805 151.387 59.7195
377.272 190.395 77.1363
404.826 198.138 82.7541
413.113 164.29 82.7185
385.242 157.802 77.1006
407.918 198.905 82.7437
435.643 206.324 77.0483
444.276 171.009 77.0397
416.204 165.057 82.7081
438.506 206.996 75.829
462.09 213.056 59.6527
471.014 176.453 59.655
447.14 171.68 75.8204
464.281 213.558 57.4068
480.035 217.613 33.1439
489.139 180.177 33.1452
473.205 176.954 57.4091
481.219 217.886 30.2101
486.745 219.323 1.5706
495.91 181.606 1.57505
490.323 180.451 30.2114
486.745 219.323 -1.60465
481.223 217.886 -30.245
490.329 180.454 -30.2379
495.91 181.606 -1.6002
480.04 217.613 -33.179
464.287 213.551 -57.443
473.214 176.951 -57.4375
489.145 180.181 -33.1719
462.097 213.049 -59.689
438.516 206.977 -75.8652
447.151 171.663 -75.8488
471.023 176.448 -59.6835
435.653 206.305 -77.0844
407.928 198.881 -82.7796
416.216 165.036 -82.736
444.288 170.991 -77.0681
404.836 198.114 -82.79
377.282 190.373 -77.1731
385.253 157.785 -77.1291
413.125 164.269 -82.7464
374.434 189.634 -75.9665
351.108 182.978 -59.784
358.812 151.376 -59.7513
382.405 157.046 -75.9225
348.927 182.404 -57.5341
333.336 177.937 -33.2037
340.846 146.975 -33.1904
356.631 150.802 -57.5014
332.155 177.625 -30.2548
326.703 176.066 -1.57043
334.14 145.323 -1.56645
339.665 146.663 -30.2416
334.892 141.871 1.62358
340.44 143.22 30.273
346.51 111.816 30.2339
340.91 110.679 1.62654
341.633 143.486 33.2134
357.389 147.314 57.4676
363.597 115.324 57.3806
347.703 112.082 33.1743
359.589 147.801 59.7118
383.179 153.477 75.886
389.562 120.583 75.779
365.797 115.812 59.6248
386.055 154.094 77.0929
413.925 160.582 82.7108
420.53 126.431 82.6149
392.438 121.2 76.9859
417.049 161.195 82.7029
445.121 167.147 77.0346
451.975 131.44 76.9946
423.654 127.044 82.607
448.014 167.661 75.8181
471.888 172.434 59.6527
478.93 135.404 59.6204
454.868 131.955 75.7782
474.1 172.817 57.4077
490.034 176.04 33.1438
497.181 138.17 33.1198
481.142 135.787 57.3754
491.229 176.252 30.211
496.815 177.407 1.57463
503.998 139.253 1.57654
498.376 138.382 30.1869
496.815 177.407 -1.59909
491.235 176.256 -30.2368
498.385 138.39 -30.2092
503.998 139.253 -1.59719
490.041 176.044 -33.1699
474.109 172.814 -57.4354
481.156 135.787 -57.3996
497.191 138.178 -33.1423
471.898 172.43 -59.6805
448.026 167.644 -75.8459
454.884 131.939 -75.8012
478.944 135.403 -59.6447
445.133 167.129 -77.0622
417.062 161.174 -82.7301
423.671 127.026 -82.6282
451.992 131.423 -77.0175
413.937 160.561 -82.738
386.066 154.077 -77.1206
392.453 121.188 -77.0066
420.546 126.413 -82.636
383.189 153.461 -75.9139
359.596 147.791 -59.7427
365.807 115.812 -59.6475
389.576 120.572 -75.7998
357.394 147.304 -57.4955
341.609 143.477 -33.1844
347.682 112.084 -33.1382
363.606 115.325 -57.4003
340.416 143.211 -30.2394
334.891 141.87 -1.5643
340.908 110.679 -1.56135
346.489 111.818 -30.1932
341.527 107.188 1.61906
347.128 108.325 30.2265
352.198 76.6403 30.0053
346.615 75.7007 1.61943
348.323 108.549 33.1521
364.217 111.791 57.3585
369.246 79.5864 56.9446
353.394 76.8644 32.931
366.422 112.202 59.5914
390.187 116.972 75.7456
395.142 83.9936 75.1921
371.45 79.9967 59.1776
393.073 117.469 76.9517
421.165 122.7 82.5807
426.063 88.3268 82.0934
398.028 84.4904 76.3982
424.299 123.149 82.5776
452.62 127.545 76.9652
457.457 91.4771 76.5338
429.198 88.776 82.0903
455.519 127.895 75.7542
479.582 131.344 59.5964
484.318 93.9173 59.2347
460.356 91.8268 75.3228
481.798 131.606 57.3581
497.837 133.989 33.1025
502.534 95.7146 32.8936
486.534 94.1785 56.9964
499.034 134.138 30.1803
504.656 135.01 1.56989
509.347 96.4491 1.55917
503.732 95.8633 29.9713
504.657 135.01 -1.59126
499.043 134.147 -30.2033
503.74 95.8754 -30.0067
509.347 96.4498 -1.60197
497.847 133.998 -33.1248
481.812 131.607 -57.3821
486.56 94.1838 -57.0085
502.544 95.7271 -32.9282
479.597 131.344 -59.6198
455.536 127.88 -75.7763
460.382 91.813 -75.3322
484.345 93.9209 -59.2461
452.637 127.529 -76.9872
424.316 123.131 -82.5978
429.223 88.761 -82.1014
457.483 91.4623 -76.5431
421.182 122.683 -82.601
393.089 117.458 -76.9715
398.052 84.4858 -76.411
426.089 88.3123 -82.1045
390.202 116.963 -75.7655
366.433 112.203 -59.6132
371.471 80.011 -59.1894
395.165 83.9902 -75.205
364.227 111.794 -57.3773
348.304 108.553 -33.1153
353.384 76.8841 -32.8894
369.265 79.6017 -56.9535
347.107 108.328 -30.1852
341.526 107.189 -1.55332
346.614 75.7013 -1.55295
352.188 76.6595 -29.9593
347.296 72.2379 1.57603
352.879 73.1775 29.9619
360.004 42.0931 28.6624
354.688 41.2708 1.57311
354.043 73.3687 32.8095
369.896 76.0906 56.8231
376.268 44.6639 54.4521
361.168 42.2842 31.51
372.045 76.4399 58.9989
395.736 80.4369 75.0133
401.026 48.4625 71.953
378.418 45.0132 56.6278
398.542 80.8493 76.1913
426.577 84.6857 81.8866
430.571 52.4558 78.5892
403.831 48.875 73.131
429.625 85.0462 81.8921
457.884 87.7473 76.3356
460.473 55.6705 73.1728
433.619 52.8163 78.5947
460.715 88.0214 75.1575
484.677 90.1119 59.0694
486.057 58.161 56.6194
463.303 55.9446 71.9947
486.845 90.3166 56.8859
502.846 91.8526 32.7831
503.466 59.9036 31.4498
488.226 58.3657 54.4359
504.019 91.9696 29.9315
509.634 92.5553 1.51932
509.99 60.5678 1.50745
504.64 60.0205 28.5982
509.634 92.5551 -1.56454
504.027 91.9807 -29.9693
504.637 59.9941 -28.6471
509.99 60.5675 -1.57642
502.855 91.8635 -32.8176
486.871 90.3203 -56.8979
488.254 58.3406 -54.4332
503.465 59.8769 -31.4955
484.705 90.1149 -59.0793
460.742 88.007 -75.1654
463.334 55.9309 -71.9929
486.087 58.1352 -56.6147
457.911 87.7328 -76.3439
429.652 85.0315 -81.9021
433.65 52.8068 -78.5983
460.503 55.6567 -73.1714
426.603 84.6717 -81.897
398.566 80.8452 -76.2035
403.858 48.8782 -73.1403
430.602 52.447 -78.5932
395.761 80.4347 -75.0259
372.066 76.4555 -59.0102
378.437 45.0482 -56.6414
401.053 48.4677 -71.9627
369.915 76.1077 -56.8318
354.035 73.3901 -32.7677
361.155 42.3238 -31.474
376.286 44.7004 -54.4629
352.869 73.1977 -29.9161
347.296 72.2395 -1.50966
354.687 41.2723 -1.51258
359.989 42.1314 -28.6223
355.542 37.8672 1.48824
360.858 38.6895 28.5776
368.867 8.27179 26.8224
363.877 7.56387 1.48085
361.959 38.8558 31.2698
377.06 41.2354 54.2119
384.135 10.5058 50.9741
369.968 8.43803 29.5147
379.092 41.5385 56.2699
401.7 44.9879 71.5952
407.364 13.8106 67.364
386.167 10.8089 53.0321
404.355 45.3574 72.7101
431.095 48.9382 78.1684
435.048 17.44 73.5395
410.018 14.1801 68.479
433.973 49.2863 78.169
460.827 52.1405 72.7471
463.002 20.6244 68.4571
437.926 17.7881 73.5402
463.492 52.4234 71.6288
486.246 54.6397 56.2535
486.878 23.1741 52.9394
465.667 20.9073 67.3389
488.287 54.8502 54.1899
503.528 56.3881 31.2039
503.088 24.9136 29.3986
488.919 23.3845 50.8758
504.633 56.503 28.5116
509.983 57.0503 1.42085
509.159 25.5429 1.43216
504.193 25.0286 26.7064
509.983 57.048 -1.48958
504.63 56.4746 -28.5603
504.187 24.9704 -26.7365
509.159 25.5405 -1.47827
503.526 56.3575 -31.2488
488.315 54.8211 -54.1865
488.937 23.3323 -50.868
503.084 24.8533 -29.425
486.276 54.6125 -56.248
463.522 52.4082 -71.6263
465.689 20.8931 -67.3363
486.898 23.1237 -52.9295
460.857 52.1269 -72.7452
434.004 49.2771 -78.1721
437.948 17.7816 -73.541
463.023 20.6118 -68.4552
431.125 48.9299 -78.1719
404.382 45.3611 -72.719
410.038 14.1863 -68.484
435.069 17.4345 -73.5408
401.727 44.9943 -71.6047
379.111 41.5748 -56.2834
386.175 10.8601 -53.0447
407.383 13.8196 -67.3697
377.077 41.2741 -54.2233
361.945 38.8976 -31.2344
369.948 8.49806 -29.4906
384.14 10.5594 -50.9847
360.844 38.7289 -28.5385
355.541 37.8698 -1.42874
363.876 7.56646 -1.43613
368.846 8.3294 -26.7947
364.912 4.43641 1.3513
369.902 5.14432 26.6928
380.254 -21.1001 23.7829
375.831 -21.7216 1.33119
370.91 5.28737 29.1502
385.077 7.35517 50.6096
393.86 -19.198 45.2706
381.261 -20.957 26.2402
386.938 7.61536 52.4875
408.134 10.617 66.8194
414.605 -16.4112 59.8177
395.721 -18.9378 47.1485
410.562 10.9433 67.8323
435.592 14.2033 72.8929
439.27 -13.1381 65.2209
417.033 -16.0849 60.8307
438.216 14.5359 72.89
463.292 17.3722 67.8069
464.077 -9.87613 60.6927
441.894 -12.8054 65.218
465.719 17.6646 66.7878
486.93 19.9314 52.3884
485.266 -7.11055 46.9539
466.504 -9.58379 59.6737
488.788 20.1527 50.5085
502.957 21.6817 29.0313
499.636 -5.24144 26.1105
487.124 -6.88927 45.0741
503.962 21.8006 26.5792
508.929 22.3149 1.30502
505.03 -4.54491 1.3257
500.641 -5.12255 23.6584
508.929 22.3131 -1.3471
503.957 21.743 -26.6054
500.641 -5.12516 -23.659
505.03 -4.54669 -1.32641
502.952 21.6224 -29.0567
488.806 20.1014 -50.4997
487.124 -6.89363 -45.0741
499.636 -5.24583 -26.1103
486.948 19.8819 -52.3791
465.739 17.6513 -66.7859
466.505 -9.58612 -59.6734
485.266 -7.11311 -46.9535
463.312 17.3602 -67.805
438.236 14.53 -72.8907
441.895 -12.8064 -65.2178
464.078 -9.87723 -60.6925
435.612 14.1978 -72.8938
410.58 10.9497 -67.837
417.034 -16.0853 -60.8306
439.271 -13.1386 -65.2208
408.151 10.6249 -66.8241
386.944 7.66541 -52.4991
395.721 -18.9364 -47.1486
414.605 -16.41 -59.8177
385.082 7.40722 -50.6207
370.889 5.34588 -29.1266
381.26 -20.9535 -26.2399
393.859 -19.1946 -45.2702
369.882 5.20111 -26.6685
364.911 4.43817 -1.30998
375.831 -21.7198 -1.33009
380.253 -21.0983 -23.7818
-335.379 724.285 25.4607
-336.373 719.229 -0.303161
-335.331 724.268 -26.0676
-332.46 738.617 -47.8664
-328.277 760.063 -62.3775
-323.587 785.349 -67.4518
-319.256 810.708 -62.3866
-315.793 832.308 -47.8903
-313.511 846.778 -26.0975
-312.714 851.869 -0.343064
-313.535 846.8 25.4145
-315.826 832.343 47.2139
-319.293 810.752 61.7214
-323.629 785.397 66.802
-328.318 760.108 61.743
-332.512 738.652 47.2501
382.635 -22.3863 1.76393e-05
387.057 -21.7648 22.4517
399.656 -20.0058 41.4821
418.54 -17.4792 54.1513
440.777 -14.5323 58.5415
462.96 -11.603 54.0162
481.721 -9.1298 41.2965
494.234 -7.48197 22.3329
498.623 -6.90434 0.000247942
494.233 -7.48281 -22.3323
481.721 -9.13061 -41.2962
462.96 -11.6036 -54.016
440.777 -14.5328 -58.5413
418.54 -17.4795 -54.1511
399.656 -20.0059 -41.482
387.057 -21.7648 -22.4517
</DataArray>
</Points>
<Cells>
<DataArray type="Int32" Name="connectivity" format="ascii">
0 1 2 3 
4 5 6 7 
8 9 10 11 
12 13 14 15 
16 17 18 19 
20 21 22 23 
24 25 26 27 
28 29 30 31 
32 33 34 35 
36 37 38 39 
40 41 42 43 
44 45 46 47 
48 49 50 51 
52 53 54 55 
56 57 58 59 
60 61 62 63 
64 65 66 67 
68 69 70 71 
72 73 74 75 
76 77 78 79 
80 81 82 83 
84 85 86 87 
88 89 90 91 
92 93 94 95 
96 97 98 99 
100 101 102 103 
104 105 106 107 
108 109 110 111 
112 113 114 115 
116 117 118 119 
120 121 122 123 
124 125 126 127 
128 129 130 131 
132 133 134 135 
136 137 138 139 
140 141 142 143 
144 145 146 147 
148 149 150 151 
152 153 154 155 
156 157 158 159 
160 161 162 163 
164 165 166 167 
168 169 170 171 
172 173 174 175 
176 177 178 179 
180 181 182 183 
184 185 186 187 
188 189 190 191 
192 193 194 195 
196 197 198 199 
200 201 202 203 
204 205 206 207 
208 209 210 211 
212 213 214 215 
216 217 218 219 
220 221 222 223 
224 225 226 227 
228 229 230 231 
232 233 234 235 
236 237 238 239 
240 241 242 243 
244 245 246 247 
248 249 250 251 
252 253 254 255 
256 257 258 259 
260 261 262 263 
264 265 266 267 
268 269 270 271 
272 273 274 275 
276 277 278 279 
280 281 282 283 
284 285 286 287 
288 289 290 291 
292 293 294 295 
296 297 298 299 
300 301 302 303 
304 305 306 307 
308 309 310 311 
312 313 314 315 
316 317 318 319 
320 321 322 323 
324 325 326 327 
328 329 330 331 
332 333 334 335 
336 337 338 339 
340 341 342 343 
344 345 346 347 
348 349 350 351 
352 353 354 355 
356 357 358 359 
360 361 362 363 
364 365 366 367 
368 369 370 371 
372 373 374 375 
376 377 378 379 
380 381 382 383 
384 385 386 387 
388 389 390 391 
392 393 394 395 
396 397 398 399 
400 401 402 403 
404 405 406 407 
408 409 410 411 
412 413 414 415 
416 417 418 419 
420 421 422 423 
424 425 426 427 
428 429 430 431 
432 433 434 435 
436 437 438 439 
440 441 442 443 
444 445 446 447 
448 449 450 451 
452 453 454 455 
456 457 458 459 
460 461 462 463 
464 465 466 467 
468 469 470 471 
472 473 474 475 
476 477 478 479 
480 481 482 483 
484 485 486 487 
488 489 490 491 
492 493 494 495 
496 497 498 499 
500 501 502 503 
504 505 506 507 
508 509 510 511 
512 513 514 515 
516 517 518 519 
520 521 522 523 
524 525 526 527 
528 529 530 531 
532 533 534 535 
536 537 538 539 
540 541 542 543 
544 545 546 547 
548 549 550 551 
552 553 554 555 
556 557 558 559 
560 561 562 563 
564 565 566 567 
568 569 570 571 
572 573 574 575 
576 577 578 579 
580 581 582 583 
584 585 586 587 
588 589 590 591 
592 593 594 595 
596 597 598 599 
600 601 602 603 
604 605 606 607 
608 609 610 611 
612 613 614 615 
616 617 618 619 
620 621 622 623 
624 625 626 627 
628 629 630 631 
632 633 634 635 
636 637 638 639 
640 641 642 643 
644 645 646 647 
648 649 650 651 
652 653 654 655 
656 657 658 659 
660 661 662 663 
664 665 666 667 
668 669 670 671 
672 673 674 675 
676 677 678 679 
680 681 682 683 
684 685 686 687 
688 689 690 691 
692 693 694 695 
696 697 698 699 
700 701 702 703 
704 705 706 707 
708 709 710 711 
712 713 714 715 
716 717 718 719 
720 721 722 723 
724 725 726 727 
728 729 730 731 
732 733 734 735 
736 737 738 739 
740 741 742 743 
744 745 746 747 
748 749 750 751 
752 753 754 755 
756 757 758 759 
760 761 762 763 
764 765 766 767 
768 769 770 771 
772 773 774 775 
776 777 778 779 
780 781 782 783 
784 785 786 787 
788 789 790 791 
792 793 794 795 
796 797 798 799 
800 801 802 803 
804 805 806 807 
808 809 810 811 
812 813 814 815 
816 817 818 819 
820 821 822 823 
824 825 826 827 
828 829 830 831 
832 833 834 835 
836 837 838 839 
840 841 842 843 
844 845 846 847 
848 849 850 851 
852 853 854 855 
856 857 858 859 
860 861 862 863 
864 865 866 867 
868 869 870 871 
872 873 874 875 
876 877 878 879 
880 881 882 883 
884 885 886 887 
888 889 890 891 
892 893 894 895 
896 897 898 899 
900 901 902 903 
904 905 906 907 
908 909 910 911 
912 913 914 915 
916 917 918 919 
920 921 922 923 
924 925 926 927 
928 929 930 931 
932 933 934 935 
936 937 938 939 
940 941 942 943 
944 945 946 947 
948 949 950 951 
952 953 954 955 
956 957 958 959 
960 961 962 963 
964 965 966 967 
968 969 970 971 
972 973 974 975 
976 977 978 979 
980 981 982 983 
984 985 986 987 
988 989 990 991 
992 993 994 995 
996 997 998 999 
1000 1001 1002 1003 
1004 1005 1006 1007 
1008 1009 1010 1011 
1012 1013 1014 1015 
1016 1017 1018 1019 
1020 1021 1022 1023 
1024 1025 1026 1027 
1028 1029 1030 1031 
1032 1033 1034 1035 
1036 1037 1038 1039 
1040 1041 1042 1043 
1044 1045 1046 1047 
1048 1049 1050 1051 
1052 1053 1054 1055 
1056 1057 1058 1059 
1060 1061 1062 1063 
1064 1065 1066 1067 
1068 1069 1070 1071 
1072 1073 1074 1075 
1076 1077 1078 1079 
1080 1081 1082 1083 
1084 1085 1086 1087 
1088 1089 1090 1091 
1092 1093 1094 1095 
1096 1097 1098 1099 
1100 1101 1102 1103 
1104 1105 1106 1107 
1108 1109 1110 1111 
1112 1113 1114 1115 
1116 1117 1118 1119 
1120 1121 1122 1123 
1124 1125 1126 1127 
1128 1129 1130 1131 
1132 1133 1134 1135 
1136 1137 1138 1139 
1140 1141 1142 1143 
1144 1145 1146 1147 
1148 1149 1150 1151 
1152 1153 1154 1155 
1156 1157 1158 1159 
1160 1161 1162 1163 
1164 1165 1166 1167 
1168 1169 1170 1171 
1172 1173 1174 1175 
1176 1177 1178 1179 
1180 1181 1182 1183 
1184 1185 1186 1187 
1188 1189 1190 1191 
1192 1193 1194 1195 
1196 1197 1198 1199 
1200 1201 1202 1203 
1204 1205 1206 1207 
1208 1209 1210 1211 
1212 1213 1214 1215 
1216 1217 1218 1219 
1220 1221 1222 1223 
1224 1225 1226 1227 
1228 1229 1230 1231 
1232 1233 1234 1235 
1236 1237 1238 1239 
1240 1241 1242 1243 
1244 1245 1246 1247 
1248 1249 1250 1251 
1252 1253 1254 1255 
1256 1257 1258 1259 
1260 1261 1262 1263 
1264 1265 1266 1267 
1268 1269 1270 1271 
1272 1273 1274 1275 
1276 1277 1278 1279 
1280 1281 1282 1283 
1284 1285 1286 1287 
1288 1289 1290 1291 
1292 1293 1294 1295 
1296 1297 1298 1299 
1300 1301 1302 1303 
1304 1305 1306 1307 
1308 1309 1310 1311 
1312 1313 1314 1315 
1316 1317 1318 1319 
1320 1321 1322 1323 
1324 1325 1326 1327 
1328 1329 1330 1331 
1332 1333 1334 1335 
1336 1337 1338 1339 
1340 1341 1342 1343 
1344 1345 1346 1347 
1348 1349 1350 1351 
1352 1353 1354 1355 
1356 1357 1358 1359 
1360 1361 1362 1363 
1364 1365 1366 1367 
1368 1369 1370 1371 
1372 1373 1374 1375 
1376 1377 1378 1379 
1380 1381 1382 1383 
1384 1385 1386 1387 
1388 1389 1390 1391 
1392 1393 1394 1395 
1396 1397 1398 1399 
1400 1401 1402 1403 
1404 1405 1406 1407 
1408 1409 1410 1411 
1412 1413 1414 1415 
1416 1417 1418 1419 
1420 1421 1422 1423 
1424 1425 1426 1427 
1428 1429 1430 1431 
1432 1433 1434 1435 
1436 1437 1438 1439 
1440 1441 1442 1443 
1444 1445 1446 1447 
1448 1449 1450 1451 
1452 1453 1454 1455 
1456 1457 1458 1459 
1460 1461 1462 1463 
1464 1465 1466 1467 
1468 1469 1470 1471 
1472 1473 1474 1475 
1476 1477 1478 1479 
1480 1481 1482 1483 
1484 1485 1486 1487 
1488 1489 1490 1491 
1492 1493 1494 1495 
1496 1497 1498 1499 
1500 1501 1502 1503 
1504 1505 1506 1507 
1508 1509 1510 1511 
1512 1513 1514 1515 
1516 1517 1518 1519 
1520 1521 1522 1523 
1524 1525 1526 1527 
1528 1529 1530 1531 
1532 1533 1534 1535 
1536 1537 1538 1539 
1540 1541 1542 1543 
1544 1545 1546 1547 
1548 1549 1550 1551 
1552 1553 1554 1555 
1556 1557 1558 1559 
1560 1561 1562 1563 
1564 1565 1566 1567 
1568 1569 1570 1571 
1572 1573 1574 1575 
1576 1577 1578 1579 
1580 1581 1582 1583 
1584 1585 1586 1587 
1588 1589 1590 1591 
1592 1593 1594 1595 
1596 1597 1598 1599 
1600 1601 1602 1603 
1604 1605 1606 1607 
1608 1609 1610 1611 
1612 1613 1614 1615 
1616 1617 1618 1619 
1620 1621 1622 1623 
1624 1625 1626 1627 
1628 1629 1630 1631 
1632 1633 1634 1635 
1636 1637 1638 1639 
1640 1641 1642 1643 
1644 1645 1646 1647 
1648 1649 1650 1651 
1652 1653 1654 1655 
1656 1657 1658 1659 
1660 1661 1662 1663 
1664 1665 1666 1667 
1668 1669 1670 1671 
1672 1673 1674 1675 
1676 1677 1678 1679 
1680 1681 1682 1683 
1684 1685 1686 1687 
1688 1689 1690 1691 
1692 1693 1694 1695 
1696 1697 1698 1699 
1700 1701 1702 1703 
1704 1705 1706 1707 
1708 1709 1710 1711 
1712 1713 1714 1715 
1716 1717 1718 1719 
1720 1721 1722 1723 
1724 1725 1726 1727 
1728 1729 1730 1731 
1732 1733 1734 1735 
1736 1737 1738 1739 
1740 1741 1742 1743 
1744 1745 1746 1747 
1748 1749 1750 1751 
1752 1753 1754 1755 
1756 1757 1758 1759 
1760 1761 1762 1763 
1764 1765 1766 1767 
1768 1769 1770 1771 
1772 1773 1774 1775 
1776 1777 1778 1779 
1780 1781 1782 1783 
1784 1785 1786 1787 
1788 1789 1790 1791 
1792 1793 1794 1795 
1796 1797 1798 1799 
1800 1801 1802 1803 
1804 1805 1806 1807 
1808 1809 1810 1811 
1812 1813 1814 1815 
1816 1817 1818 1819 
1820 1821 1822 1823 
1824 1825 1826 1827 
1828 1829 1830 1831 
1832 1833 1834 1835 
1836 1837 1838 1839 
1840 1841 1842 1843 
1844 1845 1846 1847 
1848 1849 1850 1851 
1852 1853 1854 1855 
1856 1857 1858 1859 
1860 1861 1862 1863 
1864 1865 1866 1867 
1868 1869 1870 1871 
1872 1873 1874 1875 
1876 1877 1878 1879 
1880 1881 1882 1883 
1884 1885 1886 1887 
1888 1889 1890 1891 
1892 1893 1894 1895 
1896 1897 1898 1899 
1900 1901 1902 1903 
1904 1905 1906 1907 
1908 1909 1910 1911 
1912 1913 1914 1915 
1916 1917 1918 1919 
1920 1921 1922 1923 
1924 1925 1926 1927 
1928 1929 1930 1931 
1932 1933 1934 1935 
1936 1937 1938 1939 
1940 1941 1942 1943 
1944 1945 1946 1947 
1948 1949 1950 1951 
1952 1953 1954 1955 
1956 1957 1958 1959 
1960 1961 1962 1963 
1964 1965 1966 1967 
1968 1969 1970 1971 
1972 1973 1974 1975 
1976 1977 1978 1979 
1980 1981 1982 1983 
1984 1985 1986 1987 
1988 1989 1990 1991 
1992 1993 1994 1995 
1996 1997 1998 1999 
2000 2001 2002 2003 
2004 2005 2006 2007 
2008 2009 2010 2011 
2012 2013 2014 2015 
2016 2017 2018 2019 
2020 2021 2022 2023 
2024 2025 2026 2027 
2028 2029 2030 2031 
2032 2033 2034 2035 
2036 2037 2038 2039 
2040 2041 2042 2043 
2044 2045 2046 2047 
2048 2049 2050 2051 2052 2053 2054 2055 2056 2057 2058 2059 2060 2061 2062 2063 
2064 2065 2066 2067 2068 2069 2070 2071 2072 2073 2074 2075 2076 2077 2078 2079 
</DataArray>
<DataArray type="Int32" Name="offsets" format="ascii">
4 8 12 16 20 24 28 32 36 40 44 48 52 56 60 64 68 72 76 80 84 88 92 96 100 104 108 112 116 120 124 128 132 136 140 144 148 152 156 160 164 168 172 176 180 184 188 192 196 200 204 208 212 216 220 224 228 232 236 240 244 248 252 256 260 264 268 272 276 280 284 288 292 296 300 304 308 312 316 320 324 328 332 336 340 344 348 352 356 360 364 368 372 376 380 384 388 392 396 400 404 408 412 416 420 424 428 432 436 440 444 448 452 456 460 464 468 472 476 480 484 488 492 496 500 504 508 512 516 520 524 528 532 536 540 544 548 552 556 560 564 568 572 576 580 584 588 592 596 600 604 608 612 616 620 624 628 632 636 640 644 648 652 656 660 664 668 672 676 680 684 688 692 696 700 704 708 712 716 720 724 728 732 736 740 744 748 752 756 760 764 768 772 776 780 784 788 792 796 800 804 808 812 816 820 824 828 832 836 840 844 848 852 856 860 864 868 872 876 880 884 888 892 896 900 904 908 912 916 920 924 928 932 936 940 944 948 952 956 960 964 968 972 976 980 984 988 992 996 1000 1004 1008 1012 1016 1020 1024 1028 1032 1036 1040 1044 1048 1052 1056 1060 1064 1068 1072 1076 1080 1084 1088 1092 1096 1100 1104 1108 1112 1116 1120 1124 1128 1132 1136 1140 1144 1148 1152 1156 1160 1164 1168 1172 1176 1180 1184 1188 1192 1196 1200 1204 1208 1212 1216 1220 1224 1228 1232 1236 1240 1244 1248 1252 1256 1260 1264 1268 1272 1276 1280 1284 1288 1292 1296 1300 1304 1308 1312 1316 1320 1324 1328 1332 1336 1340 1344 1348 1352 1356 1360 1364 1368 1372 1376 1380 1384 1388 1392 1396 1400 1404 1408 1412 1416 1420 1424 1428 1432 1436 1440 1444 1448 1452 1456 1460 1464 1468 1472 1476 1480 1484 1488 1492 1496 1500 1504 1508 1512 1516 1520 1524 1528 1532 1536 1540 1544 1548 1552 1556 1560 1564 1568 1572 1576 1580 1584 1588 1592 1596 1600 1604 1608 1612 1616 1620 1624 1628 1632 1636 1640 1644 1648 1652 1656 1660 1664 1668 1672 1676 1680 1684 1688 1692 1696 1700 1704 1708 1712 1716 1720 1724 1728 1732 1736 1740 1744 1748 1752 1756 1760 1764 1768 1772 1776 1780 1784 1788 1792 1796 1800 1804 1808 1812 1816 1820 1824 1828 1832 1836 1840 1844 1848 1852 1856 1860 1864 1868 1872 1876 1880 1884 1888 1892 1896 1900 1904 1908 1912 1916 1920 1924 1928 1932 1936 1940 1944 1948 1952 1956 1960 1964 1968 1972 1976 1980 1984 1988 1992 1996 2000 2004 2008 2012 2016 2020 2024 2028 2032 2036 2040 2044 2048 2064 2080 
</DataArray>
<DataArray type="UInt8" Name="types" format="ascii">
7 7 7 7 7 7 7 7 7 7 7 7 7 7 7 7 7 7 7 7 7 7 7 7 7 7 7 7 7 7 7 7 7 7 7 7 7 7 7 7 7 7 7 7 7 7 7 7 7 7 7 7 7 7 7 7 7 7 7 7 7 7 7 7 7 7 7 7 7 7 7 7 7 7 7 7 7 7 7 7 7 7 7 7 7 7 7 7 7 7 7 7 7 7 7 7 7 7 7 7 7 7 7 7 7 7 7 7 7 7 7 7 7 7 7 7 7 7 7 7 7 7 7 7 7 7 7 7 7 7 7 7 7 7 7 7 7 7 7 7 7 7 7 7 7 7 7 7 7 7 7 7 7 7 7 7 7 7 7 7 7 7 7 7 7 7 7 7 7 7 7 7 7 7 7 7 7 7 7 7 7 7 7 7 7 7 7 7 7 7 7 7 7 7 7 7 7 7 7 7 7 7 7 7 7 7 7 7 7 7 7 7 7 7 7 7 7 7 7 7 7 7 7 7 7 7 7 7 7 7 7 7 7 7 7 7 7 7 7 7 7 7 7 7 7 7 7 7 7 7 7 7 7 7 7 7 7 7 7 7 7 7 7 7 7 7 7 7 7 7 7 7 7 7 7 7 7 7 7 7 7 7 7 7 7 7 7 7 7 7 7 7 7 7 7 7 7 7 7 7 7 7 7 7 7 7 7 7 7 7 7 7 7 7 7 7 7 7 7 7 7 7 7 7 7 7 7 7 7 7 7 7 7 7 7 7 7 7 7 7 7 7 7 7 7 7 7 7 7 7 7 7 7 7 7 7 7 7 7 7 7 7 7 7 7 7 7 7 7 7 7 7 7 7 7 7 7 7 7 7 7 7 7 7 7 7 7 7 7 7 7 7 7 7 7 7 7 7 7 7 7 7 7 7 7 7 7 7 7 7 7 7 7 7 7 7 7 7 7 7 7 7 7 7 7 7 7 7 7 7 7 7 7 7 7 7 7 7 7 7 7 7 7 7 7 7 7 7 7 7 7 7 7 7 7 7 7 7 7 7 7 7 7 7 7 7 7 7 7 7 7 7 7 7 7 7 7 7 7 7 7 7 7 7 7 7 7 7 7 7 7 7 7 7 7 7 7 7 7 7 7 7 7 7 7 7 7 7 7 7 7 7 7 7 
</DataArray>
</Cells>
<CellData Scalars="cell variable 4" Vectors="cell vector">
<DataArray type="Float64" NumberOfComponents="3" Name="cell vector" format="ascii">
0.129812 0.157138 0.979008
0.358371 0.438473 0.824204
0.452117 0.685875 0.570233
0.247297 0.946392 0.207814
-0.0750612 0.970121 -0.230718
-0.0690524 0.816992 -0.5725
0.00557098 -0.548701 0.836
-0.00548751 -0.192729 0.981237
0.0125854 0.193319 0.981055
-0.00573918 0.549133 0.835715
-0.0713692 0.81707 0.572104
-0.0763463 0.970107 0.230357
0.243904 0.947321 -0.207593
0.443896 0.690706 -0.57086
-0.340546 -0.44752 0.826894
-0.136098 -0.154424 0.978586
0.056813 0.18813 0.9805
0.159894 0.534589 0.829848
0.213136 0.804552 0.554318
0.163814 0.966954 0.195361
0.117937 0.973495 -0.195957
0.114438 0.823697 -0.555363
-0.0871041 -0.549684 0.830819
-0.0319255 -0.192929 0.980693
0.0328707 0.193233 0.980602
0.0867296 0.550108 0.830578
0.113224 0.824103 0.555009
0.116954 0.973696 0.195546
0.162715 0.967058 -0.19576
0.212062 0.804547 -0.554738
-0.15935 -0.534277 0.830154
-0.058866 -0.187249 0.980547
0.0559202 0.188204 0.980537
0.158247 0.534796 0.830031
0.217767 0.803435 0.554139
0.133087 0.971649 0.195411
0.119074 0.973725 -0.194118
0.126101 0.822291 -0.554919
-0.0922289 -0.548666 0.830939
-0.0333689 -0.192518 0.980726
0.0331336 0.193013 0.980637
0.0919938 0.549053 0.830709
0.125828 0.82256 0.554584
0.118649 0.973869 0.193651
0.13252 0.971634 -0.195874
0.217496 0.803279 -0.554471
-0.158121 -0.534418 0.830298
-0.0569297 -0.187411 0.980631
0.0576516 0.187295 0.98061
0.165222 0.53194 0.830507
0.239406 0.796956 0.554568
0.129704 0.972391 0.193993
0.96068 -0.276892 0.020596
0.979908 -0.199182 0.0103435
0.982129 -0.188156 0.00441361
0.982486 -0.186331 0.00145754
0.982493 -0.186301 -0.000664542
0.982144 -0.188092 -0.00367108
0.979918 -0.199166 -0.00970674
0.960509 -0.277523 -0.0200765
0.128552 0.97246 -0.194411
0.239348 0.796789 -0.554834
-0.165143 -0.531571 0.830759
-0.0583277 -0.186457 0.98073
0.0591214 0.186111 0.980748
0.169486 0.529115 0.831451
0.251462 0.792616 0.555451
0.261057 0.945636 0.193962
0.94956 -0.313196 0.0156246
0.967172 -0.253926 0.0100149
0.970427 -0.241366 0.00383684
0.971059 -0.238835 0.00110773
0.971062 -0.238829 -0.000408989
0.970439 -0.241326 -0.00311256
0.967192 -0.253875 -0.00931405
0.949398 -0.313715 -0.0150573
0.259963 0.94587 -0.19429
0.251494 0.792451 -0.555673
-0.169643 -0.528699 0.831684
-0.0597253 -0.185234 0.980878
0.0632842 0.184061 0.980875
0.181868 0.523758 0.832227
0.274703 0.784514 0.555946
0.337421 0.921164 0.193919
0.942222 -0.334824 0.010525
0.953737 -0.300484 0.00974172
0.957251 -0.289223 0.00444953
0.958081 -0.286493 0.00133113
0.958084 -0.286485 -0.00063575
0.957265 -0.28919 -0.00374121
0.953752 -0.300458 -0.00906201
0.942064 -0.335285 -0.00995336
0.336247 0.921538 -0.194181
0.274718 0.784375 -0.556135
-0.182113 -0.523313 0.832453
-0.0638924 -0.183142 0.981008
0.0692514 0.18143 0.980962
0.199221 0.516538 0.832766
0.302911 0.773699 0.556449
0.389569 0.900346 0.193943
0.932541 -0.361007 0.00647229
0.938677 -0.34469 0.00862679
0.941996 -0.335591 0.0047408
0.942973 -0.332867 0.00152626
0.942977 -0.332858 -0.000831503
0.94201 -0.33556 -0.00403956
0.938686 -0.344682 -0.00796185
0.932385 -0.361419 -0.00589668
0.388195 0.900891 -0.194163
0.302869 0.773599 -0.55661
-0.199498 -0.516073 0.832988
-0.0698785 -0.180453 0.981098
0.0762125 0.178308 0.981019
0.219215 0.50777 0.833135
0.3335 0.760697 0.556883
0.431089 0.881206 0.194006
0.919174 -0.393833 0.0038012
0.921675 -0.387897 0.00715112
0.924555 -0.381019 0.0046301
0.925607 -0.378484 0.00161107
0.925612 -0.378474 -0.000919408
0.924572 -0.380988 -0.00393447
0.921681 -0.387895 -0.00649565
0.919008 -0.394226 -0.0032281
0.429355 0.88201 -0.194199
0.333387 0.760645 -0.55702
-0.21951 -0.507285 0.833353
-0.0768522 -0.177259 0.981159
0.0836926 0.174717 0.981055
0.240545 0.497596 0.833388
0.365322 0.745688 0.557215
0.468407 0.861931 0.194087
0.902149 -0.43142 0.00221831
0.902585 -0.430475 0.00566325
0.904941 -0.425516 0.00421908
0.905988 -0.423301 0.00158549
0.905994 -0.423289 -0.000888405
0.904959 -0.425484 -0.00352987
0.902582 -0.430488 -0.00502512
0.901948 -0.431841 -0.00165869
0.466302 0.863033 -0.194259
0.36516 0.745682 -0.55733
-0.24085 -0.497087 0.833604
-0.0843236 -0.173591 0.981201
0.0914054 0.170674 0.981079
0.262501 0.486073 0.833562
0.397833 0.728679 0.557455
0.502204 0.842663 0.194193
0.881962 -0.471319 0.00130692
0.881318 -0.472503 0.0043598
0.883167 -0.469044 0.00363419
0.884138 -0.467224 0.00148297
0.884148 -0.467207 -0.000769682
0.883186 -0.469013 -0.00295443
0.881303 -0.472537 -0.0037466
0.881702 -0.471807 -0.000772962
0.499775 0.84407 -0.194347
0.397632 0.728718 -0.557547
-0.26281 -0.485537 0.833777
-0.0920148 -0.169467 0.981231
0.0991622 0.166203 0.981093
0.284581 0.473271 0.833684
0.430522 0.709717 0.557631
0.534941 0.822248 0.194286
0.859079 -0.511842 0.000750903
0.857873 -0.513851 0.00326166
0.859252 -0.511544 0.00298882
0.860098 -0.510127 0.00133903
0.860114 -0.510101 -0.000610554
0.859272 -0.511513 -0.00233758
0.857851 -0.513892 -0.00267535
0.85874 -0.512412 -0.000257471
0.531868 0.824206 -0.194427
0.430261 0.70982 -0.557702
-0.284902 -0.4727 0.833898
-0.099759 -0.1649 0.981252
0.106841 0.161322 0.981101
0.306425 0.459278 0.833767
0.462907 0.688927 0.55776
0.567917 0.799811 0.194349
0.833644 -0.552302 0.000416394
0.832285 -0.554343 0.00233727
0.833243 -0.552902 0.00235835
0.83394 -0.551854 0.00120012
0.833969 -0.551811 -0.000439034
0.833254 -0.552887 -0.0017824
0.832268 -0.55437 -0.00177341
0.833213 -0.552952 2.69368e-05
0.564036 0.802521 -0.194485
0.462587 0.689102 -0.55781
-0.306766 -0.458664 0.83398
-0.107427 -0.159918 0.981267
0.114376 0.156033 0.981107
0.327841 0.44414 0.833823
0.494714 0.666383 0.557846
0.600887 0.775339 0.19438
0.805847 -0.592123 0.000216587
0.80461 -0.593802 0.00155813
0.805194 -0.593008 0.00175413
0.805718 -0.592299 0.00111881
0.805768 -0.592232 -0.000299453
0.805152 -0.593067 -0.00138136
0.804665 -0.593728 -0.000953309
0.805375 -0.592765 0.000200163
0.595694 0.779301 -0.194523
0.494378 0.66661 -0.557872
-0.328229 -0.443463 0.83403
-0.114943 -0.154543 0.981277
0.121817 0.150243 0.981116
0.348817 0.427785 0.833862
0.52566 0.642226 0.557878
0.632302 0.749941 0.194377
0.7757 -0.631102 0.000127164
0.774949 -0.632024 0.000837372
0.775207 -0.631707 0.00106807
0.775467 -0.631387 0.00111584
0.775523 -0.631319 -0.000183412
0.774957 -0.632012 -0.00116962
0.775191 -0.631727 -4.44309e-05
0.77529 -0.631606 0.000385455
0.625875 0.755282 -0.194497
0.525619 0.642256 -0.557882
-0.349291 -0.427024 0.834054
-0.122276 -0.148786 0.98128
0.129332 0.143779 0.981122
0.36985 0.409716 0.833873
0.556414 0.615814 0.557831
0.657996 0.727539 0.194239
0.742099 -0.670291 0.000307996
0.743345 -0.668909 -9.90814e-05
0.743332 -0.668923 -0.000314853
0.743053 -0.669233 0.000233341
0.743033 -0.669254 0.000239084
0.742743 -0.669577 0.000354472
0.743183 -0.669087 0.00125525
0.741063 -0.671436 0.00050428
0.661703 0.724188 -0.194168
0.557349 0.615064 -0.557725
-0.370289 -0.40906 0.834
-0.129497 -0.142607 0.981271
0.136259 0.137318 0.98111
0.389795 0.391019 0.833765
0.587089 0.58693 0.55753
0.701814 0.685546 0.193608
0.70822 -0.70599 -0.00112327
0.708685 -0.705523 -0.00152191
0.708037 -0.706175 -0.000982308
0.707704 -0.706509 -0.00011339
0.707712 -0.706501 0.000798566
0.708048 -0.706163 0.00160857
0.708699 -0.705508 0.00214377
0.70823 -0.70598 0.00175552
0.700935 0.686504 -0.193397
0.587095 0.58712 -0.557323
-0.390079 -0.390574 0.833841
-0.136432 -0.136125 0.981252
0.142868 0.130659 0.981079
0.408627 0.37177 0.833553
0.615492 0.557568 0.557035
0.736355 0.648556 0.192759
-0.67222 0.740351 0.00101472
-0.67264 0.739969 0.00122951
-0.672037 0.740518 0.000504803
-0.67196 0.740587 0.000107186
-0.671994 0.740556 -0.000939989
-0.672687 0.739925 -0.00173949
-0.672761 0.739859 -0.00132304
-0.672963 0.739675 -0.00140184
0.729781 0.655962 -0.192699
0.614649 0.558635 -0.556897
-0.408687 -0.371422 0.833679
-0.142937 -0.129371 0.98124
0.149407 0.123344 0.981052
0.42666 0.351277 0.833406
0.641269 0.528019 0.556749
0.749107 0.633903 0.192367
-0.633286 0.773918 -0.000633952
-0.635831 0.771828 0.000134182
-0.635813 0.771843 0.000440567
-0.635549 0.772061 0.000446474
-0.635496 0.772104 -0.000850928
-0.636108 0.771598 -0.00177943
-0.635512 0.772091 -0.00059738
-0.63337 0.773849 -4.24822e-05
0.753312 0.628885 -0.192418
0.641258 0.528114 -0.556672
-0.426606 -0.350912 0.833588
-0.149077 -0.122264 0.981238
0.155338 0.115911 0.981038
0.44326 0.330235 0.833346
0.665701 0.496949 0.556672
0.774407 0.602756 0.1923
-0.594493 0.804101 -0.000583265
-0.596776 0.802408 0.000363266
-0.5966 0.802539 0.000773672
-0.596112 0.802901 0.000363078
-0.596062 0.802938 -0.000848308
-0.596677 0.80248 -0.00165515
-0.596681 0.802478 -0.000985337
-0.594684 0.803959 -0.000153384
0.777204 0.599129 -0.192349
0.665898 0.49679 -0.556579
-0.44325 -0.329766 0.833537
-0.154858 -0.114867 0.981236
0.160806 0.108293 0.981027
0.458727 0.30854 0.83329
0.688673 0.464679 0.556599
0.798329 0.570705 0.192268
-0.554302 0.832315 -0.000345048
-0.556374 0.830932 0.000881809
-0.55578 0.831329 0.00118756
-0.555063 0.831808 0.0004038
-0.555037 0.831825 -0.000928046
-0.555793 0.831319 -0.00185873
-0.556367 0.830936 -0.00151302
-0.554465 0.832207 -0.000337338
0.799821 0.568607 -0.192283
0.688868 0.464516 -0.556494
-0.458747 -0.307991 0.833482
-0.160275 -0.107226 0.981231
0.165874 0.100482 0.981014
0.473063 0.286301 0.833212
0.709907 0.431673 0.556499
0.819345 0.540123 0.192202
-0.51281 0.858502 -8.01928e-05
-0.514873 0.857265 0.00158117
-0.513674 0.857984 0.00170251
-0.512668 0.858587 0.00052509
-0.51266 0.858591 -0.0010655
-0.513673 0.857983 -0.00228139
-0.514864 0.857269 -0.00215799
-0.512901 0.858448 -0.000533406
0.820244 0.538758 -0.192196
0.710076 0.431546 -0.556381
-0.473094 -0.285699 0.833401
-0.165301 -0.0994062 0.981221
0.170535 0.0925378 0.980997
0.486205 0.263725 0.833099
0.729249 0.398329 0.556354
0.837708 0.511225 0.192081
-0.47047 0.882416 0.00026639
-0.472458 0.88135 0.00247737
-0.470422 0.882439 0.00231693
-0.469058 0.883167 0.000695932
-0.469061 0.883165 -0.00122076
-0.470424 0.882436 -0.00283443
-0.472436 0.88136 -0.00298591
-0.470465 0.882419 -0.000801774
0.838293 0.510271 -0.192064
0.729388 0.398256 -0.556224
-0.486237 -0.263082 0.833284
-0.169917 -0.091469 0.981204
0.174776 0.0845367 0.980972
0.498095 0.241069 0.832939
0.746606 0.365075 0.556148
0.853992 0.483604 0.191897
-0.427904 0.903824 0.000795795
-0.429322 0.903144 0.00360464
-0.426122 0.904661 0.00298195
-0.424349 0.905498 0.000865766
-0.42436 0.905492 -0.00137591
-0.426126 0.904657 -0.00344538
-0.429265 0.90317 -0.00403337
-0.42783 0.903858 -0.00126091
0.854642 0.482462 -0.191878
0.746741 0.365013 -0.556006
-0.498123 -0.24039 0.833118
-0.1741 -0.0835147 0.98118
0.178584 0.0765987 0.980939
0.508691 0.218673 0.832716
0.761933 0.332382 0.555859
0.869175 0.45585 0.191666
-0.386062 0.922471 0.00167519
-0.385641 0.922636 0.00497956
-0.380858 0.924626 0.00361308
-0.378664 0.925534 0.000989521
-0.378683 0.925525 -0.00148877
-0.38086 0.924624 -0.00401743
-0.385541 0.922675 -0.0053238
-0.385961 0.922513 -0.00207958
0.870003 0.454274 -0.191652
0.762089 0.33228 -0.555707
-0.508717 -0.217949 0.83289
-0.177842 -0.0756612 0.981146
0.181941 0.0689146 0.980892
0.517956 0.197037 0.832405
0.775237 0.300782 0.555462
0.884643 0.425151 0.19145
-0.346366 0.938094 0.00316478
-0.341501 0.939859 0.00654951
-0.334689 0.94232 0.00409094
-0.332129 0.943234 0.00103246
-0.332159 0.943222 -0.00151037
-0.334689 0.942318 -0.00442073
-0.341359 0.939909 -0.00679714
-0.346248 0.938137 -0.00350124
0.885596 0.423167 -0.191441
0.775421 0.300602 -0.555302
-0.517987 -0.19624 0.832574
-0.181141 -0.0680862 0.981097
0.18484 0.0617952 0.980824
0.525846 0.176996 0.831961
0.786536 0.270947 0.554931
0.902238 0.386444 0.191384
-0.310691 0.950494 0.00560356
-0.296763 0.954917 0.00811306
-0.287619 0.957735 0.00426502
-0.284826 0.958579 0.000960531
-0.284871 0.958565 -0.0014127
-0.287617 0.957735 -0.00450216
-0.296578 0.954973 -0.00825211
-0.310595 0.950524 -0.00587225
0.903219 0.384149 -0.191375
0.786758 0.27063 -0.554771
-0.525895 -0.176067 0.832127
-0.183997 -0.0611098 0.981025
0.187266 0.0558012 0.980723
0.532268 0.16009 0.831302
0.795742 0.244087 0.554271
0.923895 0.331176 0.191677
-0.28053 0.9598 0.00930444
-0.250764 0.968004 0.00928764
-0.239381 0.970917 0.00402731
-0.236536 0.971622 0.000783062
-0.2366 0.971606 -0.00119137
-0.239382 0.970917 -0.00414156
-0.250543 0.968061 -0.00929665
-0.280497 0.959808 -0.00950143
0.924787 0.328682 -0.191667
0.796008 0.243549 -0.554126
-0.532362 -0.158893 0.83147
-0.186417 -0.0552943 0.980914
0.189107 0.0520125 0.980578
0.536872 0.149432 0.830325
0.802206 0.223677 0.553565
0.951108 0.241354 0.192719
-0.251832 0.967665 0.0143135
-0.200823 0.979578 0.0098112
-0.188228 0.982118 0.00370028
-0.185508 0.982642 0.000705939
-0.185594 0.982626 -0.000982482
-0.188243 0.982116 -0.00363415
-0.200604 0.979625 -0.00967999
-0.251905 0.967644 -0.0144444
0.951747 0.23884 -0.192699
0.802511 0.222814 -0.553471
-0.537067 -0.147658 0.830516
-0.188336 -0.0516972 0.980743
0.189723 0.0522743 0.980445
0.537906 0.151752 0.829234
0.80274 0.223845 0.552722
0.981647 -0.0118453 0.190341
-0.192313 0.981052 0.0235003
-0.135045 0.990734 0.0144606
-0.124084 0.992243 0.00756882
-0.121571 0.992579 0.00252765
-0.121548 0.992584 -0.00196129
-0.12407 0.992247 -0.00726841
-0.135216 0.990707 -0.0147
-0.192813 0.980945 -0.0238563
0.981653 -0.0145335 -0.190121
0.803136 0.222325 -0.55276
-0.538382 -0.148542 0.829506
-0.189204 -0.0521227 0.980553
0.188749 0.0477913 0.980862
0.536585 0.138205 0.832452
0.806758 0.19231 0.558712
0.979425 0.0652363 0.190972
0.978452 0.0589088 -0.19789
0.826758 0.0823297 -0.556501
-0.551798 -0.0628038 0.83161
-0.19375 -0.0228879 0.980784
0.193718 0.0229938 0.980788
0.55176 0.0635006 0.831582
0.826707 0.0828747 0.556496
0.978413 0.059156 0.198013
0.979484 0.0648516 -0.190802
0.807138 0.190887 -0.55865
-0.537365 -0.134822 0.832503
-0.188433 -0.0479665 0.980914
0.189302 0.0415591 0.981039
0.538809 0.119653 0.833887
0.8122 0.162011 0.560432
0.97466 0.109691 0.194953
0.977016 0.0675222 -0.202191
0.825411 0.0744685 -0.5596
-0.550937 -0.0591965 0.832444
-0.193402 -0.0218345 0.980877
0.193614 0.0223869 0.980822
0.550963 0.0593558 0.832416
0.825335 0.0746032 0.559693
0.976989 0.0674221 0.202351
0.974769 0.109102 -0.194734
0.812493 0.161076 -0.560276
-0.539533 -0.116972 0.833799
-0.188889 -0.0421281 0.981094
0.184627 0.0483172 0.98162
0.521842 0.150217 0.839712
0.783715 0.228994 0.577366
0.97567 0.107674 0.190982
0.972475 -0.0258746 -0.231564
0.819313 0.0191324 -0.573027
-0.546964 -0.0353878 0.836408
-0.191852 -0.0135053 0.981331
0.192076 0.0152827 0.981261
0.546606 0.0322666 0.836768
0.819253 0.0187457 0.573126
0.972636 -0.0236515 0.231126
0.975657 0.107794 -0.190983
0.784292 0.227508 -0.577171
-0.52536 -0.14165 0.839006
-0.184012 -0.0498563 0.981659
0.000798986 0.00681695 0.999976
0.00408152 0.000544941 0.999992
</DataArray>
<DataArray type="Float64" Name="cell vector length" format="ascii">
0.156265 0.153745 0.134995 0.104274 0.141034 0.15513 0.148421 0.143054 0.142664 0.147566 0.15552 0.141145 0.104047 0.134067 0.162567 0.161175 0.418174 0.392482 0.35083 0.333572 0.365181 0.393739 0.400888 0.397321 0.396407 0.398356 0.393517 0.365356 0.334074 0.351658 0.399534 0.420539 0.528612 0.495725 0.431348 0.40893 0.464904 0.500478 0.504793 0.500007 0.499397 0.502891 0.500438 0.465214 0.409529 0.431864 0.50041 0.529916 0.5689 0.526762 0.428624 0.167281 0.234856 0.48303 0.597561 0.643158 0.643163 0.597735 0.482667 0.234582 0.167818 0.428923 0.531052 0.570016 0.593991 0.542671 0.417701 0.150477 0.212698 0.468753 0.589062 0.636555 0.636474 0.588859 0.468395 0.212324 0.150924 0.417851 0.546841 0.595004 0.608419 0.549964 0.408787 0.130849 0.211276 0.465217 0.587014 0.635284 0.635214 0.586827 0.464857 0.210821 0.131305 0.408893 0.554347 0.609465 0.617406 0.554485 0.403789 0.115603 0.214513 0.464026 0.586011 0.634754 0.634692 0.585837 0.463675 0.21402 0.116084 0.403898 0.559292 0.618558 0.623294 0.557599 0.400894 0.104262 0.218828 0.463807 0.58533 0.634337 0.634278 0.58516 0.46346 0.218314 0.104769 0.401021 0.562923 0.62458 0.627254 0.559738 0.398974 0.0959144 0.22288 0.46412 0.584906 0.634014 0.633956 0.584732 0.463766 0.222335 0.0964648 0.399114 0.565612 0.628682 0.629939 0.561138 0.397514 0.0908337 0.225008 0.464271 0.584666 0.633827 0.633765 0.58448 0.463903 0.224431 0.0914225 0.39765 0.567561 0.631508 0.631733 0.561965 0.396196 0.0857689 0.228223 0.465202 0.584745 0.633754 0.633681 0.584539 0.464812 0.227594 0.086412 0.396296 0.568908 0.633433 0.6329 0.562368 0.394897 0.0814139 0.231211 0.466312 0.585042 0.633819 0.633723 0.584812 0.46592 0.23052 0.0821164 0.394909 0.569784 0.634718 0.633608 0.56243 0.393577 0.0777083 0.233812 0.467478 0.585556 0.63407 0.633931 0.585322 0.467172 0.233075 0.0784471 0.393421 0.570282 0.635543 0.634019 0.562144 0.392028 0.0743628 0.236118 0.468589 0.586284 0.634672 0.634513 0.586175 0.468662 0.235682 0.074763 0.39163 0.570507 0.636118 0.634394 0.56171 0.390225 0.0707484 0.239131 0.470506 0.587646 0.63569 0.639256 0.587314 0.470306 0.245781 0.0714062 0.389834 0.570767 0.63671 0.634727 0.561362 0.388501 0.0678197 0.248385 0.476913 0.592602 0.641794 0.650651 0.594342 0.478407 0.269449 0.0626266 0.388296 0.571069 0.637227 0.634771 0.560961 0.387069 0.059575 0.275509 0.49742 0.608661 0.65422 0.657585 0.608323 0.497209 0.281713 0.0604713 0.386856 0.571039 0.637384 0.634576 0.560356 0.385678 0.0579775 0.282712 0.502477 0.612806 0.65806 0.657897 0.612662 0.502505 0.282197 0.0582462 0.385392 0.570761 0.637283 0.634157 0.55946 0.384 0.055931 0.283357 0.503108 0.613434 0.658652 0.658513 0.613168 0.50277 0.28252 0.0566352 0.384069 0.57036 0.636998 0.633343 0.558237 0.382473 0.0548338 0.282997 0.503037 0.613683 0.659058 0.658961 0.613418 0.50262 0.282166 0.0557718 0.382822 0.569691 0.636358 0.632043 0.556704 0.381158 0.0547709 0.282135 0.502861 0.613969 0.659508 0.659433 0.613719 0.502444 0.281335 0.0558326 0.381704 0.568679 0.63523 0.63015 0.5548 0.380038 0.0558673 0.280744 0.502669 0.614361 0.660039 0.659972 0.614121 0.502269 0.279977 0.0569938 0.380724 0.567242 0.633497 0.62749 0.552398 0.379121 0.0583762 0.27873 0.502511 0.614895 0.660659 0.660593 0.614656 0.502129 0.277987 0.0595314 0.379912 0.565268 0.630989 0.623784 0.549322 0.378484 0.0626801 0.276019 0.502481 0.615601 0.661359 0.661286 0.615351 0.502112 0.27532 0.0638113 0.379366 0.562606 0.627434 0.618596 0.545358 0.378345 0.0692619 0.272648 0.502749 0.61651 0.662117 0.662034 0.616241 0.502389 0.272001 0.0703537 0.379321 0.55907 0.622413 0.611189 0.540212 0.379207 0.0785785 0.269009 0.503609 0.617684 0.662945 0.662845 0.617388 0.503261 0.26844 0.0796062 0.380287 0.554397 0.615208 0.600024 0.53315 0.381886 0.0903568 0.266764 0.505806 0.619434 0.664088 0.663971 0.619112 0.505483 0.266294 0.0913222 0.383077 0.547895 0.604313 0.580534 0.520448 0.385284 0.0991206 0.27343 0.512775 0.623904 0.667421 0.667323 0.62364 0.512548 0.273126 0.100019 0.386577 0.535956 0.585231 0.533391 0.480084 0.367632 0.0616431 0.331045 0.549314 0.646788 0.686849 0.687433 0.648896 0.549092 0.330821 0.0627344 0.369013 0.497199 0.538845 0.496283 0.44847 0.366073 0.332329 0.395816 0.440803 0.465242 0.462452 0.456327 0.449111 0.439134 0.396375 0.333402 0.367565 0.46692 0.502277 0.448257 0.404 0.341614 0.309695 0.342333 0.381448 0.416925 0.414957 0.407264 0.395498 0.379982 0.342762 0.310546 0.343132 0.423593 0.454737 0.213102 0.166229 0.104629 0.0726776 0.121562 0.182796 0.237187 0.244693 0.239021 0.219491 0.183838 0.122681 0.0732505 0.103717 0.185093 0.218946 0.0402852 0.0151589 
</DataArray>
<DataArray type="Float64" Name="cell variable 4" format="ascii">
844.955 850.739 855.318 854.485 867.182 857.736 847.245 842.519 841.935 845.887 858.016 867.138 854.166 853.729 855.779 846.722 1114.05 1106.85 1102.02 1111.14 1124.41 1120.77 1119.11 1115.38 1114.07 1115.11 1120.76 1124.41 1111.1 1102.14 1118.06 1117.78 1329.97 1321.76 1313.71 1320.31 1349.42 1350.73 1353.93 1351.94 1350.44 1349.04 1350.77 1349.61 1320.59 1313.96 1333.44 1333.43 1391.11 1383.12 1375.47 1371.92 1858.55 2754.6 3542.74 3996.31 3994.81 3539.63 2752.64 1857.85 1372.14 1375.63 1395.48 1394.69 1411.96 1403.08 1395.98 1391.13 1862.37 2744.78 3538.03 3996.37 3995.26 3535.57 2742.9 1861.41 1391.27 1396.11 1416.03 1415.65 1417.5 1404.78 1393.13 1388.03 1872.54 2737.83 3529.05 3990.36 3989.45 3526.96 2736.08 1871.51 1388.21 1393.28 1418.58 1421.41 1418.98 1403.25 1388.37 1382.84 1884.79 2735.5 3521.13 3983.44 3982.64 3519.27 2733.84 1883.71 1383.06 1388.53 1418.31 1423.24 1419.31 1401.27 1384.11 1378.09 1896.58 2736.46 3514.96 3976.55 3975.82 3513.25 2734.86 1895.49 1378.34 1384.28 1417.85 1424.02 1419.3 1399.32 1380.31 1373.88 1906.33 2738.96 3510.61 3970.5 3969.83 3509 2737.34 1905.17 1374.16 1380.51 1417.55 1424.51 1419.13 1397.47 1376.91 1370.18 1910.58 2739.48 3507.26 3965.73 3965.08 3505.69 2737.85 1909.38 1370.52 1377.12 1417.38 1424.87 1418.8 1395.62 1373.88 1366.94 1917.12 2743.19 3506.02 3962.01 3961.33 3504.42 2741.49 1915.83 1367.34 1374.1 1417.24 1425.07 1418.38 1393.83 1371.15 1364.06 1922.82 2747.16 3505.99 3959.49 3958.67 3504.27 2745.38 1921.41 1364.55 1371.4 1417.13 1425.2 1417.92 1392.03 1368.54 1361.38 1927.31 2750.86 3507.11 3958.34 3957.16 3505.19 2749.08 1925.64 1361.93 1368.81 1417.04 1425.33 1417.54 1390.08 1365.59 1358.6 1930.71 2754.19 3509.33 3958.5 3956.42 3507.13 2752.74 1928.52 1358.68 1365.96 1416.93 1425.6 1417.15 1388.51 1363.04 1355.32 1932.93 2756.57 3512.35 3960.36 3956.35 3509.9 2755.98 1930.2 1356.11 1363.75 1416.91 1425.71 1416.25 1386.98 1361.26 1353.06 1933.2 2756.02 3513.09 3983.24 3998.61 3531.84 2768.44 1951.39 1355.04 1362.25 1416.68 1425.22 1414.87 1384.7 1359.19 1352.62 1968.42 2816.48 3589.5 4047.11 4042.99 3586.87 2815.69 1965.37 1353.37 1359.95 1415.92 1424.45 1413.69 1382.75 1357.32 1351.76 1968.32 2815.57 3588.7 4047.84 4045.69 3586.37 2813.91 1966 1351.56 1357.75 1415.2 1423.77 1412.89 1381.5 1356.02 1350.37 1968.09 2814.69 3589.09 4050.59 4049.4 3587.14 2812.67 1966.16 1350.53 1356.36 1414.87 1423.3 1412.21 1380.32 1354.85 1349.46 1967.13 2813.68 3590.19 4054.15 4053.39 3588.56 2811.64 1965.33 1349.73 1355.18 1414.68 1423 1411.54 1379.22 1353.9 1348.97 1965.05 2812.34 3591.97 4058.61 4058.01 3590.55 2810.4 1963.33 1349.29 1354.25 1414.53 1422.7 1410.85 1378.23 1353.22 1348.91 1961.51 2810.57 3594.5 4064.07 4063.53 3593.2 2808.74 1959.87 1349.27 1353.59 1414.44 1422.37 1410.16 1377.4 1352.87 1349.33 1956.16 2808.45 3598.02 4070.68 4070.14 3596.75 2806.68 1954.56 1349.66 1353.27 1414.44 1422.01 1409.45 1376.77 1352.93 1350.16 1948.64 2806.29 3602.88 4078.49 4077.89 3601.54 2804.59 1947.16 1350.47 1353.35 1414.55 1421.61 1408.67 1376.41 1353.53 1351.24 1938.69 2804.79 3609.46 4087.36 4086.63 3607.98 2803.17 1937.37 1351.52 1353.96 1414.83 1421.1 1407.49 1376.22 1354.8 1352.03 1926.54 2805.18 3618.12 4096.93 4096 3616.4 2803.65 1925.44 1352.28 1355.23 1415.19 1420.15 1404.15 1374.92 1355.93 1350.5 1913.57 2809.24 3628.89 4106.61 4105.44 3626.89 2807.83 1912.72 1350.71 1356.32 1414.3 1416.99 1388.68 1362.76 1347.52 1336.47 1904.46 2819.8 3641.64 4115.95 4114.51 3639.33 2818.51 1903.84 1336.65 1347.79 1401.98 1401.54 1308.36 1282.89 1265.21 1248.69 1918.24 2849.48 3665.43 4134.99 4133.24 3662.64 2848.24 1917.83 1249.02 1265.27 1319.6 1320.51 1237.57 1210.14 1188.59 1180.84 1205.79 1212.87 1246.3 1244.73 1236.1 1220.38 1212.98 1206.07 1181.16 1188.68 1244.86 1249.17 1108.2 1079.84 1055.59 1046.31 1052.83 1054.99 1091.48 1087.61 1077.35 1060.59 1054.82 1052.93 1046.43 1055.87 1110.63 1118.67 784.224 771.935 765.323 767.35 785.716 807.297 855.412 867.424 860.883 835.317 808.584 785.983 767.342 763.831 790.391 789.838 613.565 744.351 
</DataArray>
<DataArray type="Float64" Name="cell variable 5" format="ascii">
0.0043119 0.0043119 0.0043119 0.0043119 0.0043119 0.0043119 0.0043119 0.0043119 0.0043119 0.0043119 0.0043119 0.0043119 0.0043119 0.0043119 0.0043119 0.0043119 0.0043119 0.0043119 0.0043119 0.0043119 0.0043119 0.0043119 0.0043119 0.0043119 0.0043119 0.0043119 0.0043119 0.0043119 0.0043119 0.0043119 0.0043119 0.0043119 0.0043119 0.0043119 0.0043119 0.0043119 0.0043119 0.0043119 0.0043119 0.0043119 0.0043119 0.0043119 0.0043119 0.0043119 0.0043119 0.0043119 0.0043119 0.0043119 0.00651672 0.00603283 0.0052519 0.00450738 0.0043119 0.0043119 0.0043119 0.0043119 0.0043119 0.0043119 0.0043119 0.0043119 0.00450738 0.0052519 0.00603283 0.00651672 0.00737336 0.00670166 0.00561697 0.00458307 0.0043119 0.0043119 0.0043119 0.0043119 0.0043119 0.0043119 0.0043119 0.0043119 0.00458307 0.00561697 0.00670166 0.00737336 0.0078697 0.00708973 0.00582874 0.00462715 0.0043119 0.0043119 0.0043119 0.0043119 0.0043119 0.0043119 0.0043119 0.0043119 0.00462715 0.00582874 0.00708973 0.0078697 0.00823095 0.00737048 0.00598301 0.00465973 0.0043119 0.0043119 0.0043119 0.0043119 0.0043119 0.0043119 0.0043119 0.0043119 0.00465973 0.00598301 0.00737048 0.00823095 0.00851266 0.00759087 0.00610278 0.00468464 0.0043119 0.0043119 0.0043119 0.0043119 0.0043119 0.0043119 0.0043119 0.0043119 0.00468464 0.00610278 0.00759087 0.00851266 0.00873975 0.00776813 0.00619956 0.00470477 0.0043119 0.0043119 0.0043119 0.0043119 0.0043119 0.0043119 0.0043119 0.0043119 0.00470477 0.00619956 0.00776813 0.00873975 0.00892564 0.00791282 0.00627909 0.00472106 0.0043119 0.0043119 0.0043119 0.0043119 0.0043119 0.0043119 0.0043119 0.0043119 0.00472106 0.00627909 0.00791282 0.00892564 0.00907608 0.00803068 0.00634329 0.00473447 0.0043119 0.0043119 0.0043119 0.0043119 0.0043119 0.0043119 0.0043119 0.0043119 0.00473447 0.00634329 0.00803068 0.00907608 0.00919681 0.00812554 0.00639503 0.00474501 0.0043119 0.0043119 0.0043119 0.0043119 0.0043119 0.0043119 0.0043119 0.0043119 0.00474501 0.00639503 0.00812554 0.00919681 0.00929072 0.00819837 0.00643432 0.00475363 0.0043119 0.0043119 0.0043119 0.0043119 0.0043119 0.0043119 0.0043119 0.0043119 0.00475363 0.00643432 0.00819837 0.00929072 0.00935971 0.00825203 0.00646402 0.00475938 0.0043119 0.0043119 0.0043119 0.0043119 0.0043119 0.0043119 0.0043119 0.0043119 0.00475938 0.00646402 0.00825203 0.00935971 0.0094057 0.00828748 0.00648319 0.00476417 0.0043119 0.0043119 0.0043119 0.0043119 0.0043119 0.0043119 0.0043119 0.0043119 0.00476417 0.00648319 0.00828748 0.0094057 0.00942774 0.00830568 0.00649277 0.00476609 0.0043119 0.0043119 0.0043119 0.0043119 0.0043119 0.0043119 0.0043119 0.0043119 0.00476609 0.00649277 0.00830568 0.00942774 0.00942774 0.00830568 0.00649277 0.00476609 0.0043119 0.0043119 0.0043119 0.0043119 0.0043119 0.0043119 0.0043119 0.0043119 0.00476609 0.00649277 0.00830568 0.00942774 0.0094057 0.00828748 0.00648319 0.00476417 0.0043119 0.0043119 0.0043119 0.0043119 0.0043119 0.0043119 0.0043119 0.0043119 0.00476417 0.00648319 0.00828748 0.0094057 0.00935971 0.00825203 0.00646402 0.00475938 0.0043119 0.0043119 0.0043119 0.0043119 0.0043119 0.0043119 0.0043119 0.0043119 0.00475938 0.00646402 0.00825203 0.00935971 0.00929072 0.00819837 0.00643432 0.00475363 0.0043119 0.0043119 0.0043119 0.0043119 0.0043119 0.0043119 0.0043119 0.0043119 0.00475363 0.00643432 0.00819837 0.00929072 0.00919681 0.00812554 0.00639503 0.00474501 0.0043119 0.0043119 0.0043119 0.0043119 0.0043119 0.0043119 0.0043119 0.0043119 0.00474501 0.00639503 0.00812554 0.00919681 0.00907608 0.00803068 0.00634329 0.00473447 0.0043119 0.0043119 0.0043119 0.0043119 0.0043119 0.0043119 0.0043119 0.0043119 0.00473447 0.00634329 0.00803068 0.00907608 0.00892564 0.00791282 0.00627909 0.00472106 0.0043119 0.0043119 0.0043119 0.0043119 0.0043119 0.0043119 0.0043119 0.0043119 0.00472106 0.00627909 0.00791282 0.00892564 0.00873975 0.00776813 0.00619956 0.00470477 0.0043119 0.0043119 0.0043119 0.0043119 0.0043119 0.0043119 0.0043119 0.0043119 0.00470477 0.00619956 0.00776813 0.00873975 0.00851266 0.00759087 0.00610278 0.00468464 0.0043119 0.0043119 0.0043119 0.0043119 0.0043119 0.0043119 0.0043119 0.0043119 0.00468464 0.00610278 0.00759087 0.00851266 0.00823095 0.00737048 0.00598301 0.00465973 0.0043119 0.0043119 0.0043119 0.0043119 0.0043119 0.0043119 0.0043119 0.0043119 0.00465973 0.00598301 0.00737048 0.00823095 0.0078697 0.00708973 0.00582874 0.00462715 0.0043119 0.0043119 0.0043119 0.0043119 0.0043119 0.0043119 0.0043119 0.0043119 0.00462715 0.00582874 0.00708973 0.0078697 0.00737336 0.00670166 0.00561697 0.00458307 0.0043119 0.0043119 0.0043119 0.0043119 0.0043119 0.0043119 0.0043119 0.0043119 0.00458307 0.00561697 0.00670166 0.00737336 0.00651672 0.00603283 0.0052519 0.00450738 0.0043119 0.0043119 0.0043119 0.0043119 0.0043119 0.0043119 0.0043119 0.0043119 0.00450738 0.0052519 0.00603283 0.00651672 0.0043119 0.0043119 0.0043119 0.0043119 0.0043119 0.0043119 0.0043119 0.0043119 0.0043119 0.0043119 0.0043119 0.0043119 0.0043119 0.0043119 0.0043119 0.0043119 0.0043119 0.0043119 0.0043119 0.0043119 0.0043119 0.0043119 0.0043119 0.0043119 0.0043119 0.0043119 0.0043119 0.0043119 0.0043119 0.0043119 0.0043119 0.0043119 0.0043119 0.0043119 0.0043119 0.0043119 0.0043119 0.0043119 0.0043119 0.0043119 0.0043119 0.0043119 0.0043119 0.0043119 0.0043119 0.0043119 0.0043119 0.0043119 0.0043119 0.0043119 
</DataArray>
<DataArray type="Float64" Name="cell variable 6" format="ascii">
1 1 1 1 1 1 1 1 1 1 1 1 1 1 1 1 1 1 1 1 1 1 1 1 1 1 1 1 1 1 1 1 1 1 1 1 1 1 1 1 1 1 1 1 1 1 1 1 1 1 1 1 1 1 1 1 1 1 1 1 1 1 1 1 1 1 1 1 1 1 1 1 1 1 1 1 1 1 1 1 1 1 1 1 1 1 1 1 1 1 1 1 1 1 1 1 1 1 1 1 1 1 1 1 1 1 1 1 1 1 1 1 1 1 1 1 1 1 1 1 1 1 1 1 1 1 1 1 1 1 1 1 1 1 1 1 1 1 1 1 1 1 1 1 1 1 1 1 1 1 1 1 1 1 1 1 1 1 1 1 1 1 1 1 1 1 1 1 1 1 1 1 1 1 1 1 1 1 1 1 1 1 1 1 1 1 1 1 1 1 1 1 1 1 1 1 1 1 1 1 1 1 1 1 1 1 1 1 1 1 1 1 1 1 1 1 1 1 1 1 1 1 1 1 1 1 1 1 1 1 1 1 1 1 1 1 1 1 1 1 1 1 1 1 1 1 1 1 1 1 1 1 1 1 1 1 1 1 1 1 1 1 1 1 1 1 1 1 1 1 1 1 1 1 1 1 1 1 1 1 1 1 1 1 1 1 1 1 1 1 1 1 1 1 1 1 1 1 1 1 1 1 1 1 1 1 1 1 1 1 1 1 1 1 1 1 1 1 1 1 1 1 1 1 1 1 1 1 1 1 1 1 1 1 1 1 1 1 1 1 1 1 1 1 1 1 1 1 1 1 1 1 1 1 1 1 1 1 1 1 1 1 1 1 1 1 1 1 1 1 1 1 1 1 1 1 1 1 1 1 1 1 1 1 1 1 1 1 1 1 1 1 1 1 1 1 1 1 1 1 1 1 1 1 1 1 1 1 1 1 1 1 1 1 1 1 1 1 1 1 1 1 1 1 1 1 1 1 1 1 1 1 1 1 1 1 1 1 1 1 1 1 1 1 1 1 1 1 1 1 1 1 1 1 1 1 1 1 1 1 1 1 1 1 1 1 1 1 1 1 1 1 1 1 1 1 1 1 1 1 1 1 1 1 1 1 1 1 1 1 1 1 1 1 1 1 1 1 1 1 1 1 1 1 1 1 1 1 1 1 1 1 1 1 
</DataArray>
<DataArray type="Float64" Name="cell variable 7" format="ascii">
0 0 0 0 0 0 0 0 0 0 0 0 0 0 0 0 0 0 0 0 0 0 0 0 0 0 0 0 0 0 0 0 0 0 0 0 0 0 0 0 0 0 0 0 0 0 0 0 0 0 0 0 0 0 0 0 0 0 0 0 0 0 0 0 0 0 0 0 0 0 0 0 0 0 0 0 0 0 0 0 0 0 0 0 0 0 0 0 0 0 0 0 0 0 0 0 0 0 0 0 0 0 0 0 0 0 0 0 0 0 0 0 0 0 0 0 0 0 0 0 0 0 0 0 0 0 0 0 0 0 0 0 0 0 0 0 0 0 0 0 0 0 0 0 0 0 0 0 0 0 0 0 0 0 0 0 0 0 0 0 0 0 0 0 0 0 0 0 0 0 0 0 0 0 0 0 0 0 0 0 0 0 0 0 0 0 0 0 0 0 0 0 0 0 0 0 0 0 0 0 0 0 0 0 0 0 0 0 0 0 0 0 0 0 0 0 0 0 0 0 0 0 0 0 0 0 0 0 0 0 0 0 0 0 0 0 0 0 0 0 0 0 0 0 0 0 0 0 0 0 0 0 0 0 0 0 0 0 0 0 0 0 0 0 0 0 0 0 0 0 0 0 0 0 0 0 0 0 0 0 0 0 0 0 0 0 0 0 0 0 0 0 0 0 0 0 0 0 0 0 0 0 0 0 0 0 0 0 0 0 0 0 0 0 0 0 0 0 0 0 0 0 0 0 0 0 0 0 0 0 0 0 0 0 0 0 0 0 0 0 0 0 0 0 0 0 0 0 0 0 0 0 0 0 0 0 0 0 0 0 0 0 0 0 0 0 0 0 0 0 0 0 0 0 0 0 0 0 0 0 0 0 0 0 0 0 0 0 0 0 0 0 0 0 0 0 0 0 0 0 0 0 0 0 0 0 0 0 0 0 0 0 0 0 0 0 0 0 0 0 0 0 0 0 0 0 0 0 0 0 0 0 0 0 0 0 0 0 0 0 0 0 0 0 0 0 0 0 0 0 0 0 0 0 0 0 0 0 0 0 0 0 0 0 0 0 0 0 0 0 0 0 0 0 0 0 0 0 0 0 0 0 0 0 0 0 0 0 0 0 0 0 0 0 0 0 0 0 0 0 0 0 0 0 0 0 0 0 0 0 0 0 1 1 
</DataArray>
<DataArray type="Float64" Name="cell variable 8" format="ascii">
11.25 33.75 56.25 78.75 101.25 123.75 146.25 168.75 191.25 213.75 236.25 258.75 281.25 303.75 326.25 348.75 11.25 33.75 56.25 78.75 101.25 123.75 146.25 168.75 191.25 213.75 236.25 258.75 281.25 303.75 326.25 348.75 11.25 33.75 56.25 78.75 101.25 123.75 146.25 168.75 191.25 213.75 236.25 258.75 281.25 303.75 326.25 348.75 11.25 33.75 56.25 78.75 101.25 123.75 146.25 168.75 191.25 213.75 236.25 258.75 281.25 303.75 326.25 348.75 11.25 33.75 56.25 78.75 101.25 123.75 146.25 168.75 191.25 213.75 236.25 258.75 281.25 303.75 326.25 348.75 11.25 33.75 56.25 78.75 101.25 123.75 146.25 168.75 191.25 213.75 236.25 258.75 281.25 303.75 326.25 348.75 11.25 33.75 56.25 78.75 101.25 123.75 146.25 168.75 191.25 213.75 236.25 258.75 281.25 303.75 326.25 348.75 11.25 33.75 56.25 78.75 101.25 123.75 146.25 168.75 191.25 213.75 236.25 258.75 281.25 303.75 326.25 348.75 11.25 33.75 56.25 78.75 101.25 123.75 146.25 168.75 191.25 213.75 236.25 258.75 281.25 303.75 326.25 348.75 11.25 33.75 56.25 78.75 101.25 123.75 146.25 168.75 191.25 213.75 236.25 258.75 281.25 303.75 326.25 348.75 11.25 33.75 56.25 78.75 101.25 123.75 146.25 168.75 191.25 213.75 236.25 258.75 281.25 303.75 326.25 348.75 11.25 33.75 56.25 78.75 101.25 123.75 146.25 168.75 191.25 213.75 236.25 258.75 281.25 303.75 326.25 348.75 11.25 33.75 56.25 78.75 101.25 123.75 146.25 168.75 191.25 213.75 236.25 258.75 281.25 303.75 326.25 348.75 11.25 33.75 56.25 78.75 101.25 123.75 146.25 168.75 191.25 213.75 236.25 258.75 281.25 303.75 326.25 348.75 11.25 33.75 56.25 78.75 101.25 123.75 146.25 168.75 191.25 213.75 236.25 258.75 281.25 303.75 326.25 348.75 11.25 33.75 56.25 78.75 101.25 123.75 146.25 168.75 191.25 213.75 236.25 258.75 281.25 303.75 326.25 348.75 11.25 33.75 56.25 78.75 101.25 123.75 146.25 168.75 191.25 213.75 236.25 258.75 281.25 303.75 326.25 348.75 11.25 33.75 56.25 78.75 101.25 123.75 146.25 168.75 191.25 213.75 236.25 258.75 281.25 303.75 326.25 348.75 11.25 33.75 56.25 78.75 101.25 123.75 146.25 168.75 191.25 213.75 236.25 258.75 281.25 303.75 326.25 348.75 11.25 33.75 56.25 78.75 101.25 123.75 146.25 168.75 191.25 213.75 236.25 258.75 281.25 303.75 326.25 348.75 11.25 33.75 56.25 78.75 101.25 123.75 146.25 168.75 191.25 213.75 236.25 258.75 281.25 303.75 326.25 348.75 11.25 33.75 56.25 78.75 101.25 123.75 146.25 168.75 191.25 213.75 236.25 258.75 281.25 303.75 326.25 348.75 11.25 33.75 56.25 78.75 101.25 123.75 146.25 168.75 191.25 213.75 236.25 258.75 281.25 303.75 326.25 348.75 11.25 33.75 56.25 78.75 101.25 123.75 146.25 168.75 191.25 213.75 236.25 258.75 281.25 303.75 326.25 348.75 11.25 33.75 56.25 78.75 101.25 123.75 146.25 168.75 191.25 213.75 236.25 258.75 281.25 303.75 326.25 348.75 11.25 33.75 56.25 78.75 101.25 123.75 146.25 168.75 191.25 213.75 236.25 258.75 281.25 303.75 326.25 348.75 11.25 33.75 56.25 78.75 101.25 123.75 146.25 168.75 191.25 213.75 236.25 258.75 281.25 303.75 326.25 348.75 11.25 33.75 56.25 78.75 101.25 123.75 146.25 168.75 191.25 213.75 236.25 258.75 281.25 303.75 326.25 348.75 11.25 33.75 56.25 78.75 101.25 123.75 146.25 168.75 191.25 213.75 236.25 258.75 281.25 303.75 326.25 348.75 11.25 33.75 56.25 78.75 101.25 123.75 146.25 168.75 191.25 213.75 236.25 258.75 281.25 303.75 326.25 348.75 11.25 33.75 56.25 78.75 101.25 123.75 146.25 168.75 191.25 213.75 236.25 258.75 281.25 303.75 326.25 348.75 11.25 33.75 56.25 78.75 101.25 123.75 146.25 168.75 191.25 213.75 236.25 258.75 281.25 303.75 326.25 348.75 0 0 
</DataArray>
</CellData>
</Piece>
</UnstructuredGrid>
</VTKFile>
