<VTKFile type="UnstructuredGrid" version="0.1">
<UnstructuredGrid>
<Piece  NumberOfPoints="    2080" NumberOfCells="     514">
<Points>
<DataArray type="Float64" NumberOfComponents="3" format="ascii">
-320.425 718.427 1.11346
-319.288 723.449 26.8772
-293.01 712.596 28.9982
-294.281 707.161 1.14248
-319.029 724.566 29.6285
-315.737 738.833 51.4238
-289.149 729.158 55.3071
-292.751 713.713 31.7495
-315.262 740.893 53.5238
-310.399 762.204 68.0227
-283.358 754.282 73.1001
-288.674 731.218 57.4072
-309.795 764.893 69.1559
-304.27 790.012 74.2086
-276.748 784.181 79.7651
-282.754 756.97 74.2334
-303.651 792.926 74.2092
-298.469 818.116 69.1206
-270.588 814.44 74.286
-276.129 787.095 79.7657
-297.932 820.82 67.9859
-293.764 842.282 53.4783
-265.59 840.383 57.3972
-270.05 817.144 73.1513
-293.365 844.357 51.3743
-290.614 858.735 29.5756
-262.217 857.995 31.6857
-265.191 842.458 55.2932
-290.398 859.858 26.8224
-289.414 864.898 1.06263
-260.934 864.569 1.07127
-262.001 859.118 28.9325
-289.412 864.896 -1.9185
-290.364 859.829 -27.6747
-261.96 859.095 -29.7675
-260.932 864.567 -1.90987
-290.577 858.704 -30.427
-293.316 844.311 -52.2181
-265.131 842.415 -56.1148
-262.173 857.97 -32.5198
-293.714 842.234 -54.3206
-297.875 820.761 -68.8158
-269.989 817.088 -73.9543
-265.529 840.339 -58.2174
-298.413 818.057 -69.9489
-303.59 792.862 -75.0204
-276.062 787.034 -80.5514
-270.526 814.383 -75.0873
-304.208 789.948 -75.0179
-309.737 764.832 -69.9483
-282.688 756.913 -75.0005
-276.681 784.12 -80.549
-310.341 762.145 -68.8132
-315.197 740.846 -54.2948
-288.628 731.183 -58.1507
-283.292 754.227 -73.8654
-315.674 738.787 -52.1925
-318.973 724.541 -30.3869
-292.736 713.696 -32.459
-289.105 729.125 -56.0483
-319.234 723.426 -27.6332
-320.424 718.426 -1.86844
-294.279 707.16 -1.83942
-292.998 712.581 -29.7054
-291.121 706.111 1.21932
-289.851 711.547 29.0751
-258.822 703.589 29.7191
-260.144 698.062 1.23306
-285.971 728.162 55.5231
-254.775 720.463 56.7303
-258.545 704.76 32.6096
-289.574 712.717 31.9655
-280.148 753.385 73.4234
-248.687 746.111 75.0253
-254.267 722.623 58.9376
-285.464 730.322 57.7304
-273.499 783.417 80.1485
-241.807 776.699 81.9015
-248.044 748.931 76.2187
-279.505 756.205 74.6168
-267.311 813.822 74.6711
-235.651 807.713 76.2479
-241.161 779.759 81.9038
-272.852 786.477 80.1508
-262.297 839.904 57.7222
-230.697 834.3 58.907
-235.098 810.554 75.0532
-266.758 816.664 73.4763
-258.911 857.62 31.9014
-227.3 852.362 32.5458
-230.285 836.48 56.6937
-261.885 842.083 55.5089
-257.618 864.249 1.14747
-225.993 859.113 1.16015
-227.075 853.542 29.6531
-258.686 858.799 29.0088
-258.645 858.776 -29.8411
-227.041 853.515 -30.4566
-225.991 859.112 -1.97075
-257.616 864.248 -1.98344
-261.825 842.04 -56.3277
-230.23 836.437 -57.4772
-227.264 852.333 -33.3481
-258.867 857.594 -32.7327
-266.696 816.608 -74.2762
-235.036 810.499 -75.8204
-230.641 834.256 -59.6888
-262.236 839.859 -58.5393
-272.785 786.416 -80.9332
-241.093 779.698 -82.6508
-235.589 807.657 -77.0132
-267.249 813.766 -75.4691
-279.438 756.149 -75.3805
-247.979 748.875 -76.9448
-241.739 776.638 -82.6465
-273.431 783.356 -80.929
-285.418 730.287 -58.4703
-254.221 722.582 -59.6455
-248.623 746.056 -75.7493
-280.082 753.33 -74.185
-289.56 712.7 -32.671
-258.529 704.733 -33.2872
-254.731 720.424 -57.4355
-285.929 728.129 -56.2603
-289.839 711.532 -29.7784
-291.12 706.11 -1.91246
-260.144 698.061 -1.89872
-258.808 703.565 -30.3947
-256.686 697.235 1.25579
-255.364 702.762 29.7419
-223.969 695.834 29.8858
-225.337 690.304 1.27034
-255.075 703.942 32.6729
-251.304 719.646 56.7936
-219.74 712.726 57.0682
-223.679 697.015 32.8169
-250.771 721.826 59.0345
-245.19 745.315 75.1222
-213.315 738.416 75.5072
-219.207 714.906 59.3091
-244.52 748.164 76.3332
-238.283 775.932 82.016
-206.209 769.121 82.4082
-212.645 741.265 76.7182
-237.633 779.03 82.0186
-232.124 806.984 76.3626
-200.316 800.413 76.7727
-205.559 772.22 82.4107
-231.586 809.87 75.1511
-227.185 833.617 59.005
-195.567 827.27 59.356
-199.778 803.3 75.5612
-226.78 835.83 56.7595
-223.795 851.713 32.6116
-192.213 845.483 32.8128
-195.163 829.483 57.1105
-223.57 852.909 29.6773
-222.489 858.481 1.18427
-190.901 852.285 1.20212
-191.987 846.68 29.8784
-222.487 858.479 -1.99145
-223.537 852.882 -30.4773
-191.96 846.655 -30.6445
-190.9 852.284 -1.9736
-223.759 851.683 -33.4104
-226.726 835.787 -57.5395
-195.114 829.44 -57.8604
-192.183 845.456 -33.5777
-227.129 833.573 -59.7831
-231.523 809.815 -75.9147
-199.718 803.243 -76.2942
-195.517 827.225 -60.1041
-232.061 806.928 -77.1243
-237.566 778.969 -82.7619
-205.493 772.158 -83.1228
-200.255 800.356 -77.5038
-238.216 775.871 -82.7573
-244.455 748.107 -77.0555
-212.581 741.207 -77.4101
-206.143 769.059 -83.1182
-245.126 745.259 -75.8426
-250.725 721.785 -59.7389
-219.157 714.86 -59.9854
-213.252 738.358 -76.1972
-251.26 719.606 -57.4956
-255.058 703.915 -33.3474
-223.658 696.982 -33.4631
-219.692 712.681 -57.7422
-255.349 702.736 -30.4143
-256.685 697.233 -1.91833
-225.336 690.302 -1.90378
-223.949 695.803 -30.5301
-221.88 689.516 1.27851
-220.512 695.046 29.894
-189.551 687.763 29.9523
-191.097 682.267 1.29187
-220.197 696.225 32.8366
-216.258 711.936 57.088
-184.8 704.556 57.1869
-189.236 688.943 32.895
-215.676 714.113 59.3371
-209.785 737.623 75.5352
-177.599 730.104 75.6699
-184.218 706.733 59.436
-209.047 740.473 76.7492
-202.611 768.329 82.4392
-169.291 760.598 82.5559
-176.86 732.954 76.8839
-201.885 771.436 82.4347
-196.642 799.629 76.7967
-161.721 791.669 76.9109
-168.565 763.704 82.5514
-196.038 802.51 75.5785
-191.827 826.48 59.3732
-155.601 818.374 59.5015
-161.117 794.55 75.6927
-191.372 828.686 57.1229
-188.422 844.687 32.8251
-151.387 836.474 32.9086
-155.146 820.58 57.2512
-188.169 845.878 29.8841
-187.083 851.483 1.20778
-149.776 843.227 1.2275
-151.134 837.665 29.9676
-187.082 851.482 -1.97524
-188.142 845.853 -30.6461
-151.11 837.642 -30.6922
-149.775 843.225 -1.95552
-188.393 844.66 -33.5863
-191.325 828.643 -57.869
-155.103 820.537 -57.9651
-151.361 836.449 -33.6324
-191.778 826.436 -60.1179
-195.978 802.454 -76.308
-161.06 794.492 -76.3904
-155.556 818.329 -60.2139
-196.582 799.571 -77.5243
-201.819 771.374 -83.1433
-168.5 763.641 -83.2298
-161.663 791.61 -77.6068
-202.545 768.267 -83.1458
-208.983 740.414 -77.4378
-176.797 732.894 -77.5444
-169.226 760.535 -83.2323
-209.722 737.565 -76.2221
-215.626 714.067 -60.0103
-184.165 706.685 -60.0829
-177.536 730.045 -76.3287
-216.21 711.892 -57.7589
-220.175 696.192 -33.4799
-189.209 688.906 -33.5118
-184.749 704.51 -57.8315
-220.492 695.015 -30.5352
-221.879 689.514 -1.90889
-191.096 682.266 -1.89554
-189.526 687.729 -30.5671
-187.695 681.394 1.29537
-186.149 686.89 29.9558
-155.675 678.399 29.9823
-157.418 672.971 1.30986
-185.794 688.06 32.9022
-181.358 703.673 57.1941
-150.322 694.996 57.2366
-155.32 679.569 32.9287
-180.703 705.831 59.4461
-174.083 729.202 75.6799
-142.188 720.263 75.724
-149.667 697.154 59.4885
-173.238 732.025 76.8935
-165.668 759.668 82.5656
-132.639 750.393 82.616
-141.343 723.085 76.9377
-164.794 762.742 82.5601
-157.951 790.706 76.9197
-123.466 781.054 76.9443
-131.766 753.466 82.6106
-157.191 793.559 75.7008
-151.674 817.383 59.5095
-115.929 807.42 59.5301
-122.705 783.907 75.7254
-151.104 819.568 57.2582
-147.344 835.462 32.9156
-110.798 825.313 32.9403
-115.359 809.605 57.2788
-147.031 836.642 29.9716
-145.674 842.204 1.23153
-108.858 831.993 1.25004
-110.486 826.493 29.9962
-145.673 842.203 -1.95537
-147.008 836.619 -30.6921
-110.465 826.471 -30.6801
-108.857 831.992 -1.93687
-147.319 835.437 -33.6355
-151.06 819.525 -57.9682
-115.318 809.563 -57.9532
-110.775 825.289 -33.6235
-151.629 817.338 -60.2182
-157.133 793.501 -76.3947
-122.65 783.85 -76.3853
-115.887 807.377 -60.2032
-157.892 790.647 -77.612
-164.73 762.679 -83.235
-131.702 753.403 -83.2537
-123.409 780.996 -77.6026
-165.603 759.605 -83.2387
-173.174 731.965 -77.5507
-141.28 723.025 -77.5651
-132.576 750.33 -83.2574
-174.02 729.143 -76.3356
-180.65 705.783 -60.0898
-149.611 697.105 -60.1039
-142.126 720.203 -76.35
-181.306 703.626 -57.8357
-185.766 688.023 -33.516
-155.289 679.53 -33.5137
-150.268 694.947 -57.8498
-186.124 686.856 -30.5675
-187.693 681.392 -1.89592
-157.417 672.969 -1.88142
-155.647 678.363 -30.5652
-154.074 671.957 1.31222
-152.331 677.385 29.9846
-122.4 667.544 30.0037
-124.354 662.2 1.32783
-151.932 678.539 32.9326
-146.933 693.966 57.2405
-116.396 683.892 57.2704
-122.002 668.698 32.9517
-146.196 696.097 59.4935
-138.717 719.205 75.729
-107.25 708.794 75.7667
-115.658 686.023 59.5233
-137.758 721.99 76.9426
-129.055 749.298 82.621
-96.423 738.48 82.6614
-106.291 711.579 76.9803
-128.039 752.326 82.6147
-119.739 779.914 76.9484
-85.7388 768.653 76.973
-95.4072 741.508 82.6551
-118.831 782.726 75.7279
-112.055 806.239 59.5326
-76.8389 794.591 59.5478
-84.8311 771.464 75.7526
-111.372 808.393 57.2809
-106.812 824.1 32.9424
-70.8081 812.209 32.9603
-76.1558 796.745 57.2961
-106.44 825.265 29.9984
-104.812 830.765 1.25221
-68.5407 818.792 1.27069
-70.4365 813.374 30.0163
-104.811 830.764 -1.93496
-106.419 825.243 -30.6782
-70.4178 813.353 -30.6594
-68.5397 818.791 -1.91649
-106.789 824.077 -33.6217
-111.332 808.351 -57.9513
-76.1185 796.705 -57.9307
-70.7874 812.186 -33.6029
-112.013 806.195 -60.2018
-118.776 782.669 -76.384
-84.7779 771.409 -76.3742
-76.7999 794.549 -60.1812
-119.682 779.856 -77.6029
-127.976 752.263 -83.254
-95.3453 741.446 -83.2618
-85.6844 768.596 -77.5932
-128.991 749.235 -83.2588
-137.695 721.93 -77.5666
-106.228 711.519 -77.5733
-96.3606 738.417 -83.2666
-138.655 719.146 -76.3517
-146.14 696.047 -60.1056
-115.601 685.971 -60.1057
-107.187 708.734 -76.3584
-146.879 693.917 -57.8505
-151.901 678.5 -33.5143
-121.968 668.657 -33.5026
-116.34 683.842 -57.8506
-152.302 677.348 -30.5642
-154.072 671.955 -1.88043
-124.353 662.198 -1.86482
-122.37 667.505 -30.5524
-121.073 661.035 1.32992
-119.119 666.379 30.0058
-89.7753 655.169 30.0233
-91.951 649.921 1.34633
-118.674 667.514 32.9547
-113.068 682.709 57.2734
-83.0876 671.228 57.2988
-89.3298 656.304 32.9721
-112.242 684.805 59.5273
-103.834 707.577 75.7707
-72.8845 695.698 75.8055
-82.2621 673.324 59.5527
-102.757 710.316 76.9845
-92.8893 737.217 82.6656
-60.7538 724.865 82.7
-71.8076 698.438 77.0193
-91.7341 740.194 82.6586
-82.0656 767.339 76.9766
-48.6198 754.485 77.0021
-59.5987 727.842 82.693
-81.0173 770.101 75.755
-73.0251 793.228 59.5502
-38.4088 779.933 59.5671
-47.5714 757.247 75.7806
-72.2327 795.345 57.298
-66.885 810.809 32.9622
-31.4977 797.226 32.9794
-37.6163 782.049 57.3148
-66.4556 811.954 30.0183
-64.5597 817.372 1.27266
-28.9081 803.692 1.29113
-31.0683 798.371 30.0355
-64.5588 817.371 -1.91438
-66.437 811.933 -30.6573
-31.0514 798.351 -30.6379
-28.9072 803.691 -1.89592
-66.8646 810.786 -33.6007
-72.1956 795.304 -57.9285
-37.5816 782.01 -57.9096
-31.479 797.204 -33.5813
-72.9863 793.186 -60.1798
-80.9643 770.046 -76.3727
-47.5206 757.193 -76.3637
-38.3723 779.891 -60.1608
-82.0114 767.282 -77.593
-91.6723 740.131 -83.2616
-59.5383 727.78 -83.2629
-48.5677 754.429 -77.5839
-92.827 737.155 -83.2672
-102.694 710.256 -77.574
-71.7453 698.377 -77.5769
-60.693 724.803 -83.2685
-103.772 707.517 -76.359
-112.185 684.754 -60.1063
-82.2042 673.271 -60.1009
-72.8225 695.638 -76.3619
-113.012 682.658 -57.8502
-118.64 667.473 -33.5022
-89.2959 656.261 -33.4875
-83.0311 671.176 -57.8449
-119.089 666.341 -30.551
-121.072 661.033 -1.86338
-91.9494 649.919 -1.84697
-89.7442 655.128 -30.5363
-88.7381 648.605 1.34836
-86.5624 653.854 30.0253
-57.85 641.284 30.0425
-60.2531 636.143 1.36525
-86.0684 654.967 32.9748
-79.8261 669.891 57.3014
-50.4621 657.015 57.3241
-57.356 642.397 32.9919
-78.9102 671.948 59.5561
-69.5326 694.321 75.8089
-39.1803 680.991 75.8394
-49.5461 659.072 59.5788
-68.335 697.009 77.023
-57.2812 723.437 82.7036
-25.7352 709.567 82.7331
-37.9827 683.679 77.0534
-55.9885 726.355 82.6962
-45.0096 752.998 77.0053
-12.1945 738.569 77.0291
-24.4424 712.486 82.7257
-43.826 755.705 75.7831
-34.6633 778.39 59.5696
-0.722213 763.47 59.5871
-11.0109 741.276 75.8068
-33.7651 780.465 57.3168
-27.6464 795.641 32.9814
7.04518 780.396 32.9985
0.176024 765.544 57.3343
-27.1604 796.764 30.0374
-25.0003 802.085 1.2931
9.95087 786.727 1.31149
7.53121 781.518 30.0546
-24.9994 802.084 -1.89381
-27.1437 796.744 -30.6358
7.54647 781.499 -30.6164
9.95171 786.726 -1.87542
-27.628 795.619 -33.5792
-33.7306 780.425 -57.9075
0.208395 765.506 -57.8893
7.06215 780.375 -33.5599
-34.6271 778.349 -60.1594
-43.7754 755.651 -76.3623
-10.9624 741.222 -76.3514
-0.688171 763.43 -60.1412
-44.9577 752.943 -77.5833
-55.9284 726.293 -83.2623
-24.384 712.424 -83.2583
-12.1447 738.514 -77.5724
-57.2206 723.375 -83.2685
-68.2729 696.948 -77.5769
-37.9214 683.618 -77.5751
-25.6762 709.506 -83.2645
-69.4705 694.261 -76.3619
-78.8522 671.895 -60.1009
-49.4882 659.018 -60.0922
-39.1191 680.93 -76.36
-79.7696 669.839 -57.844
-86.0344 654.923 -33.4866
-57.3224 642.352 -33.4707
-50.4056 656.961 -57.8353
-86.5313 653.813 -30.5346
-88.7364 648.603 -1.84533
-60.2515 636.141 -1.82844
-57.8192 641.241 -30.5188
-57.1133 634.679 1.36725
-54.7102 639.819 30.0445
-26.6782 625.911 30.0616
-29.3113 620.89 1.38439
-54.1669 640.908 32.9943
-47.273 655.526 57.3264
-18.5846 641.277 57.3471
-26.135 627 33.0115
-46.2653 657.538 59.5818
-35.8995 679.457 75.8424
-6.21866 664.699 75.8683
-17.5769 643.289 59.6025
-34.5805 682.087 77.0566
-22.333 707.975 82.7363
8.53705 692.613 82.7617
-4.89966 667.328 77.0825
-20.9046 710.829 82.7284
-8.65668 736.912 77.0318
23.4483 720.93 77.0523
9.96541 695.467 82.7539
-7.34231 739.557 75.8091
2.94634 761.751 59.5894
36.1359 745.232 59.6064
24.7627 723.576 75.8296
3.94679 763.778 57.3363
10.8159 778.63 33.0005
44.7332 761.751 33.0175
37.1364 747.258 57.3532
11.3571 779.726 30.0566
13.7768 784.936 1.31345
47.9476 767.932 1.33173
45.2744 762.847 30.0736
13.7775 784.935 -1.87333
11.3723 779.707 -30.6143
45.2883 762.829 -30.5951
47.9483 767.931 -1.85505
10.8327 778.609 -33.5578
3.97897 763.74 -57.8873
37.1666 747.221 -57.8687
44.7487 761.731 -33.5386
2.98015 761.711 -60.1396
-7.29403 739.504 -76.3498
24.8088 723.523 -76.3357
36.1677 745.193 -60.1209
-8.60711 736.857 -77.5714
-20.8464 710.767 -83.2572
10.0218 695.406 -83.2491
23.4957 720.876 -77.5573
-22.2742 707.913 -83.264
-34.5194 682.026 -77.5746
-4.83982 667.267 -77.568
8.59403 692.552 -83.2558
-35.8384 679.397 -76.3595
-46.2075 657.484 -60.0916
-17.5198 643.234 -60.0808
-6.15883 664.638 -76.3529
-47.2165 655.472 -57.8341
-54.1333 640.863 -33.4695
-26.1025 626.953 -33.4533
-18.5288 641.222 -57.8232
-54.6794 639.776 -30.517
-57.1117 634.676 -1.82669
-29.3097 620.887 -1.80956
-26.6487 625.866 -30.5008
-26.25 619.278 1.38636
-23.617 624.3 30.0636
3.68223 609.079 30.0806
0.81959 604.189 1.40354
-23.0244 625.362 33.0137
-15.474 639.639 57.3493
12.4784 624.042 57.3683
4.27484 610.141 33.0306
-14.3747 641.601 59.6051
-3.01641 663.011 75.8709
25.921 646.853 75.8932
13.5777 626.005 59.624
-1.57675 665.575 77.0852
11.86 690.86 82.7644
41.9683 674.037 82.7864
27.3606 649.417 77.1076
13.4215 693.642 82.7562
26.9044 719.106 77.0547
58.2152 701.606 77.0728
43.5298 676.819 82.7783
28.3455 721.684 75.8317
39.7188 743.34 59.6084
72.0784 725.253 59.6245
59.6563 704.185 75.8498
40.818 745.315 57.3551
48.4149 759.807 33.0194
81.4802 741.327 33.0361
73.1777 727.228 57.3712
49.0095 760.876 30.0756
51.6827 765.96 1.33369
84.9943 747.344 1.35184
82.0748 742.396 30.0923
51.6834 765.959 -1.85298
49.0234 760.858 -30.593
82.0876 742.378 -30.5737
84.995 747.343 -1.83483
48.4302 759.787 -33.5365
40.848 745.278 -57.8666
73.2059 727.192 -57.8472
81.4944 741.308 -33.5171
39.7504 743.301 -60.1191
28.3914 721.632 -76.3338
59.6999 704.133 -76.3174
72.1082 725.215 -60.0998
26.9516 719.052 -77.5559
13.4776 693.581 -83.2477
43.5837 676.759 -83.2363
58.2601 701.553 -77.5395
11.9167 690.799 -83.2548
-1.51711 665.514 -77.567
27.4185 649.355 -77.5568
42.0229 673.976 -83.2434
-2.95673 662.95 -76.3519
-14.3177 641.546 -60.0798
13.6334 625.948 -60.0671
25.9789 646.791 -76.3417
-15.4184 639.584 -57.8218
-22.9921 625.315 -33.4519
4.30541 610.092 -33.4353
12.5327 623.986 -57.8091
-23.5875 624.255 -30.499
-26.2485 619.276 -1.80776
0.821108 604.186 -1.79058
3.70996 609.032 -30.4825
3.7965 602.434 1.40548
6.65914 607.324 30.0825
33.1721 590.82 30.099
30.0823 586.073 1.4225
7.30075 608.357 33.0327
15.5043 622.258 57.3703
42.6627 605.344 57.3876
33.8137 591.853 33.0492
16.6943 624.166 59.6263
29.0376 645.014 75.8955
57.1658 627.486 75.9151
43.8527 607.252 59.6435
30.5962 647.507 77.1099
45.2038 672.127 82.7888
74.4804 653.875 82.808
58.7244 629.979 77.1295
46.8956 674.831 82.7804
61.5809 699.618 77.075
92.0263 680.631 77.0917
76.1722 656.579 82.7996
63.1448 702.123 75.8517
75.567 723.192 59.6264
107.023 703.573 59.6416
93.5903 683.137 75.8685
76.7617 725.11 57.373
85.0642 739.209 33.038
117.201 719.166 33.0542
108.218 705.491 57.3882
85.7106 740.248 30.0942
88.6301 745.196 1.35376
121.005 725.004 1.37159
117.847 720.204 30.1104
88.6307 745.195 -1.83278
85.7233 740.23 -30.5716
117.859 720.188 -30.5524
121.005 725.003 -1.81495
85.0783 739.19 -33.515
76.7898 725.075 -57.8451
108.244 705.457 -57.8256
117.214 719.148 -33.4958
75.5966 723.154 -60.0978
63.1883 702.072 -76.3155
93.6314 683.086 -76.2983
107.051 703.536 -60.0782
61.6256 699.565 -77.5379
46.9492 674.771 -83.2346
76.2234 656.519 -83.2208
92.0687 680.579 -77.5207
45.2581 672.066 -83.2421
30.6538 647.445 -77.5555
58.78 629.917 -77.5431
74.5324 653.814 -83.2282
29.0953 644.952 -76.3405
16.7498 624.109 -60.0659
43.9063 607.195 -60.0519
57.2215 627.424 -76.328
15.5584 622.202 -57.8076
7.33112 608.307 -33.4338
33.8418 591.802 -33.4171
42.7149 605.287 -57.7937
6.68676 607.277 -30.4806
3.79791 602.431 -1.78876
30.0837 586.07 -1.77173
33.1974 590.772 -30.464
32.969 584.178 1.42439
36.0588 588.925 30.1009
61.7312 571.173 30.117
58.4184 566.58 1.44111
36.7486 589.926 33.0511
45.5977 603.417 57.3895
71.9026 585.221 57.4056
62.421 572.173 33.0673
46.8767 605.265 59.6456
60.1899 625.5 75.9171
87.4433 606.64 75.9342
73.1817 587.07 59.6617
61.8649 627.915 77.1315
77.6209 651.811 82.81
105.994 632.168 82.8263
89.1184 609.056 77.1485
79.4396 654.431 82.8015
95.2937 678.483 77.0936
124.8 658.051 77.1083
107.813 634.788 82.8178
96.9765 680.91 75.8702
110.409 701.346 59.6433
140.889 680.237 59.6572
126.483 660.478 75.8849
111.696 703.204 57.39
120.679 716.879 33.0559
151.812 695.315 33.0713
142.175 682.095 57.4039
121.375 717.884 30.1123
124.533 722.684 1.37346
155.896 700.961 1.39085
152.508 696.321 30.1277
124.533 722.683 -1.81292
121.387 717.868 -30.5503
152.519 696.305 -30.5311
155.897 700.96 -1.79552
120.692 716.861 -33.4937
111.722 703.169 -57.8235
142.2 682.061 -57.8034
151.824 695.298 -33.4745
110.437 701.31 -60.0762
97.0174 680.86 -76.2963
126.521 660.429 -76.2777
140.915 680.201 -60.0561
95.3358 678.432 -77.5189
79.4906 654.371 -83.2189
107.861 634.729 -83.2028
124.84 658 -77.5004
77.6726 651.75 -83.2267
61.9202 627.853 -77.5415
89.1713 608.994 -77.527
106.043 632.109 -83.2106
60.2453 625.438 -76.3265
46.9301 605.208 -60.0505
73.2328 587.012 -60.0359
87.4963 606.579 -76.312
45.6496 603.36 -57.7921
36.7765 589.875 -33.4155
62.4462 572.121 -33.3992
71.9523 585.164 -57.7775
36.084 588.877 -30.4622
32.9703 584.175 -1.76991
58.4196 566.578 -1.75319
61.7537 571.124 -30.4458
61.2089 564.55 1.44294
64.5217 569.142 30.1189
89.2989 550.18 30.1345
85.7686 545.754 1.45928
65.2587 570.108 33.0691
74.7403 583.156 57.4074
100.134 563.718 57.4221
90.0358 551.146 33.0848
76.1063 584.941 59.6634
90.368 604.511 75.9359
116.683 584.361 75.9499
101.5 565.503 59.6781
92.1564 606.843 77.1502
109.032 629.956 82.828
136.434 608.967 82.8403
118.472 586.693 77.1642
110.974 632.485 82.8193
127.961 655.748 77.1098
156.456 633.915 77.1213
138.375 611.497 82.8316
129.758 658.091 75.8864
144.164 677.849 59.6587
173.594 655.295 59.6705
158.253 636.258 75.8979
145.539 679.643 57.4055
155.176 692.863 33.0729
185.234 669.826 33.087
174.969 657.089 57.4173
155.921 693.834 30.1295
159.308 698.474 1.39264
189.587 675.267 1.40957
185.979 670.796 30.1436
159.309 698.473 -1.79351
155.931 693.818 -30.5291
185.989 670.781 -30.5096
189.588 675.266 -1.77658
155.188 692.846 -33.4723
145.564 679.609 -57.8012
174.992 657.057 -57.7798
185.246 669.809 -33.4528
144.19 677.814 -60.0539
129.797 658.041 -76.2755
158.289 636.21 -76.2546
173.618 655.262 -60.0326
128.001 655.697 -77.4983
111.022 632.426 -83.2008
138.421 611.439 -83.1815
156.493 633.866 -77.4773
109.081 629.896 -83.2087
92.209 606.781 -77.5251
118.522 586.632 -77.5083
136.48 608.909 -83.1895
90.4207 604.45 -76.3103
76.1572 584.883 -60.0343
101.548 565.445 -60.019
116.734 584.3 -76.2936
74.7897 583.099 -57.7758
65.2835 570.056 -33.3975
90.0577 551.093 -33.3814
100.18 563.661 -57.7606
64.5441 569.093 -30.444
61.21 564.547 -1.7514
85.7697 545.751 -1.73506
89.3182 550.13 -30.4279
88.457 543.592 1.46105
91.9873 548.018 30.1363
115.815 527.888 30.1512
112.074 523.639 1.47697
92.7701 548.947 33.0864
102.868 561.519 57.4238
127.293 540.884 57.4361
116.598 528.817 33.1013
104.318 563.236 59.6795
119.502 582.094 75.9513
144.82 560.7 75.9596
128.744 542.6 59.6918
121.4 584.336 77.1652
139.362 606.611 82.8413
165.726 584.324 82.8436
146.718 562.942 77.1735
141.422 609.044 82.8324
159.503 631.462 77.1221
186.915 608.278 77.123
167.787 586.757 82.8347
161.41 633.716 75.8987
176.752 652.753 59.6713
205.059 628.801 59.6751
188.823 610.531 75.8996
178.211 654.477 57.4184
188.476 667.214 33.0881
217.384 642.748 33.0975
206.519 630.525 57.4222
189.267 668.147 30.1452
192.875 672.618 1.41116
221.993 647.971 1.42765
218.174 643.681 30.1545
192.875 672.618 -1.77447
189.277 668.132 -30.5075
218.183 643.667 -30.484
221.994 647.97 -1.75797
188.487 667.198 -33.4502
178.234 654.445 -57.7773
206.54 630.495 -57.7489
217.394 642.732 -33.4268
176.775 652.719 -60.0298
161.446 633.668 -76.2518
188.856 610.484 -76.2212
205.082 628.768 -60.0014
159.54 631.413 -77.4746
141.468 608.986 -83.1787
167.829 586.7 -83.1502
186.95 608.23 -77.444
139.408 606.552 -83.1871
121.45 584.276 -77.5059
146.765 562.882 -77.4842
165.769 584.266 -83.1586
119.552 582.033 -76.2916
104.366 563.178 -60.0171
128.789 542.543 -60.0003
144.867 560.639 -76.2699
102.914 561.462 -57.7589
92.7916 548.894 -33.3797
116.616 528.764 -33.3637
127.337 540.827 -57.742
92.0064 547.968 -30.4261
88.4579 543.589 -1.73329
112.075 523.637 -1.71737
115.831 527.838 -30.4101
114.654 521.35 1.47862
118.395 525.599 30.1529
141.22 504.346 30.1652
137.273 500.283 1.49401
119.223 526.489 33.1026
129.918 538.556 57.4373
153.322 516.772 57.4413
142.047 505.237 33.115
131.45 540.2 59.6922
147.527 558.299 75.96
171.797 535.717 75.9483
154.855 518.416 59.6962
149.531 560.448 77.1724
168.539 581.829 82.8426
193.818 558.311 82.805
173.801 537.866 77.1607
170.712 584.16 82.8321
189.841 605.681 77.1204
216.094 581.187 77.0605
195.991 560.642 82.7945
191.852 607.837 75.8966
208.089 626.107 59.6721
235.171 600.774 59.6179
218.105 583.344 75.8367
209.628 627.757 57.4204
220.493 639.98 33.0956
248.129 614.083 33.0701
236.711 602.424 57.3662
221.326 640.873 30.155
225.145 645.163 1.42811
252.976 619.068 1.44408
248.962 614.976 30.1295
225.146 645.162 -1.75484
221.336 640.858 -30.4809
248.971 614.962 -30.4237
252.976 619.068 -1.73887
220.503 639.964 -33.4214
209.649 627.727 -57.7435
236.73 602.395 -57.658
248.139 614.068 -33.3642
208.111 626.075 -59.9948
191.886 607.791 -76.2146
218.136 583.299 -76.1242
235.192 600.743 -59.9093
189.875 605.633 -77.4379
170.754 584.103 -83.1442
196.031 560.586 -83.0768
216.126 581.141 -77.3475
168.582 581.772 -83.1542
149.578 560.388 -77.4798
173.845 537.807 -77.4392
193.858 558.255 -83.0868
147.573 558.239 -76.2671
131.495 540.142 -59.9974
154.896 518.359 -59.9732
171.84 535.658 -76.2264
129.961 538.499 -57.74
119.241 526.436 -33.3616
142.061 505.184 -33.3441
153.363 516.715 -57.7157
118.411 525.549 -30.4084
114.655 521.348 -1.71558
137.274 500.281 -1.70019
141.232 504.296 -30.3908
139.739 497.872 1.49553
143.686 501.935 30.1668
165.447 479.599 30.1786
161.303 475.732 1.51028
144.556 502.784 33.1159
155.831 514.32 57.4422
178.148 491.423 57.4457
166.317 480.448 33.1277
157.442 515.888 59.6957
174.384 533.189 75.9479
197.531 509.45 75.936
179.759 492.991 59.6993
176.492 535.238 77.1581
196.509 555.684 82.8023
220.637 530.94 82.7653
199.638 511.499 77.1461
198.791 557.904 82.789
218.893 578.45 77.0551
243.975 552.661 76.9972
222.919 533.161 82.7521
221.003 580.502 75.8304
238.069 597.932 59.6116
263.949 571.256 59.5595
246.084 554.713 75.7725
239.683 599.503 57.3618
251.102 611.161 33.0657
277.514 583.892 33.0414
265.564 572.827 57.3098
251.976 612.011 30.1289
255.989 616.103 1.44354
282.588 588.625 1.45881
278.388 584.741 30.1046
255.989 616.103 -1.73487
251.984 611.998 -30.4197
278.396 584.729 -30.3649
282.588 588.624 -1.7196
251.111 611.147 -33.3563
239.703 599.473 -57.6502
265.582 572.799 -57.5682
277.523 583.878 -33.3016
238.089 597.901 -59.8997
221.034 580.457 -76.1145
246.113 554.67 -76.0272
263.968 571.227 -59.8177
218.925 578.403 -77.3387
198.83 557.849 -83.068
222.956 533.107 -83.0025
244.004 552.616 -77.2515
196.548 555.628 -83.0809
176.535 535.179 -77.4333
199.678 511.441 -77.3935
220.674 530.886 -83.0154
174.428 533.13 -76.2229
157.484 515.831 -59.9696
179.797 492.935 -59.9461
197.571 509.392 -76.1832
155.871 514.263 -57.7135
144.57 502.732 -33.3419
166.328 480.395 -33.3251
178.185 491.367 -57.69
143.698 501.885 -30.3891
139.739 497.87 -1.69841
161.304 475.729 -1.68366
165.455 479.549 -30.3723
163.648 473.203 1.51178
167.792 477.07 30.1801
188.432 453.692 30.1933
184.102 450.032 1.52583
168.703 477.876 33.1288
180.534 488.851 57.4468
201.697 464.881 57.4569
189.343 454.498 33.142
182.22 490.339 59.6995
199.992 506.798 75.9362
221.939 481.937 75.9416
203.384 466.368 59.7096
202.197 508.741 77.1449
223.196 528.183 82.7641
246.067 502.268 82.7648
224.144 483.881 77.1504
225.584 530.287 82.7495
246.639 549.787 76.9946
270.439 522.812 76.9962
248.455 504.372 82.7502
248.845 551.731 75.7696
266.71 568.275 59.5567
291.297 540.402 59.562
272.645 524.757 75.7712
268.397 569.762 57.308
280.348 580.827 33.0397
305.46 552.355 33.0493
292.984 541.89 57.3134
281.261 581.632 30.105
285.461 585.516 1.45923
310.757 556.833 1.47374
306.373 553.16 30.1146
285.462 585.516 -1.71671
281.269 581.62 -30.362
306.38 553.148 -30.3427
310.757 556.833 -1.7022
280.357 580.813 -33.2966
268.415 569.734 -57.5632
293.001 541.864 -57.5401
305.468 552.342 -33.2773
266.729 568.245 -59.8116
248.873 551.688 -76.0212
272.671 524.715 -75.9949
291.314 540.374 -59.7885
246.668 549.742 -77.2458
225.62 530.234 -82.9968
248.488 504.321 -82.9703
270.466 522.77 -77.2195
223.232 528.129 -83.0111
202.236 508.684 -77.3893
224.18 483.825 -77.3682
246.101 502.216 -82.9845
200.032 506.74 -76.1804
182.258 490.283 -59.9434
203.418 466.313 -59.9276
221.975 481.882 -76.1593
180.57 488.796 -57.688
168.713 477.824 -33.3232
189.349 454.446 -33.3091
201.73 464.826 -57.6723
167.8 477.021 -30.3707
163.648 473.201 -1.68202
184.103 450.03 -1.66797
188.437 453.643 -30.3566
186.321 447.391 1.52731
190.65 451.051 30.1948
210.119 426.681 30.2073
205.615 423.238 1.54066
191.6 451.811 33.1433
203.954 462.194 57.4582
223.917 437.206 57.4683
211.069 427.441 33.1558
205.711 463.597 59.7105
224.266 479.167 75.9425
244.968 453.252 75.95
225.674 438.61 59.7206
226.563 481 77.1509
248.487 499.387 82.7654
270.06 472.376 82.7723
247.265 455.085 77.1584
250.975 501.371 82.7507
272.959 519.811 76.9968
295.408 491.703 77.0062
272.547 474.361 82.7576
275.258 521.645 75.772
293.909 537.291 59.5628
317.104 508.249 59.5743
297.707 493.537 75.7815
295.668 538.694 57.3145
308.143 549.159 33.0503
331.836 519.494 33.0633
318.862 509.652 57.326
309.094 549.918 30.116
313.478 553.592 1.47515
337.346 523.708 1.48901
332.788 520.253 30.1289
313.479 553.591 -1.70047
309.102 549.907 -30.341
332.794 520.242 -30.3264
337.347 523.707 -1.68661
308.151 549.146 -33.2753
295.684 538.668 -57.5381
318.877 509.627 -57.5225
331.844 519.482 -33.2607
293.926 537.263 -59.7862
275.283 521.604 -75.9926
297.73 493.498 -75.9755
317.12 508.223 -59.7706
272.985 519.769 -77.2171
251.008 501.32 -82.9678
272.577 474.312 -82.9488
295.432 491.662 -77.2
248.52 499.335 -82.9822
226.6 480.944 -77.3658
247.298 455.031 -77.348
270.09 472.327 -82.9632
224.302 479.111 -76.1574
205.745 463.543 -59.9257
225.705 438.556 -59.9112
245.001 453.198 -76.1396
203.987 462.14 -57.6707
191.606 451.759 -33.3075
211.071 427.391 -33.2941
223.947 437.153 -57.6562
190.655 451.002 -30.355
186.321 447.389 -1.66644
205.615 423.236 -1.65309
210.12 426.633 -30.3416
207.701 420.491 1.54205
212.206 423.933 30.2087
230.459 398.628 30.2203
225.79 395.411 1.55462
213.191 424.646 33.157
226.04 434.411 57.4694
244.757 408.466 57.4782
231.445 399.341 33.1686
227.863 435.727 59.7215
247.157 450.369 75.9509
266.566 423.464 75.9571
246.581 409.782 59.7303
249.541 452.088 77.1591
272.335 469.379 82.773
292.559 441.342 82.7794
268.95 425.183 77.1653
274.917 471.24 82.7585
297.778 488.582 77.0071
318.822 459.407 77.0163
295.14 443.202 82.7649
300.163 490.301 75.7826
319.561 505.013 59.5754
341.304 474.869 59.5868
321.207 461.126 75.7919
321.386 506.328 57.3273
334.36 516.17 33.0646
356.572 485.378 33.0771
343.13 476.185 57.3386
335.347 516.882 30.1304
339.906 520.336 1.49045
362.283 489.316 1.5035
357.56 486.089 30.1429
339.906 520.336 -1.68508
335.354 516.871 -30.3249
357.566 486.079 -30.3115
362.283 489.316 -1.67203
334.367 516.158 -33.259
321.401 506.304 -57.5209
343.143 476.162 -57.5067
356.579 485.367 -33.2456
319.576 504.987 -59.7689
300.187 490.262 -75.9738
321.229 461.089 -75.958
341.319 474.845 -59.7547
297.802 488.542 -77.198
274.947 471.191 -82.9468
295.167 443.156 -82.9288
318.844 459.369 -77.1822
272.365 469.33 -82.9611
249.573 452.034 -77.346
268.979 425.132 -77.3285
292.586 441.294 -82.9431
247.19 450.316 -76.1378
227.894 435.674 -59.9094
246.608 409.731 -59.895
266.595 423.413 -76.1202
226.069 434.359 -57.6546
213.193 424.596 -33.2925
231.444 399.292 -33.2797
244.783 408.415 -57.6403
212.206 423.886 -30.3402
207.701 420.488 -1.65164
225.79 395.408 -1.63906
230.457 398.582 -30.3273
227.74 392.563 1.5559
232.409 395.78 30.2216
249.406 369.598 30.2322
244.584 366.612 1.56763
233.428 396.444 33.1696
246.741 405.569 57.4793
264.169 378.728 57.4865
250.426 370.261 33.1802
248.626 406.794 59.731
268.611 420.477 75.9578
286.682 392.647 75.9617
266.055 379.953 59.7382
271.076 422.077 77.1659
294.685 438.236 82.7799
313.512 409.24 82.7842
289.147 394.248 77.1699
297.354 439.969 82.7657
321.036 456.174 77.0171
340.625 426.005 77.0247
316.181 410.973 82.7699
323.503 457.774 75.7929
343.6 471.517 59.5878
363.842 440.345 59.598
343.092 427.606 75.8005
345.488 472.741 57.3399
358.93 481.934 33.0784
379.61 450.089 33.0899
365.73 441.569 57.3501
359.952 482.596 30.1443
364.675 485.823 1.50486
385.509 453.741 1.51701
380.632 450.751 30.1558
364.675 485.823 -1.67059
359.958 482.587 -30.31
380.637 450.742 -30.2974
385.509 453.741 -1.65844
358.937 481.923 -33.2441
345.501 472.719 -57.5051
365.742 441.548 -57.4916
379.617 450.079 -33.2315
343.614 471.493 -59.753
323.524 457.738 -75.9563
343.112 427.571 -75.9406
363.855 440.323 -59.7395
321.057 456.136 -77.1804
297.381 439.923 -82.9269
316.205 410.929 -82.9084
340.645 425.969 -77.1646
294.712 438.189 -82.9411
271.105 422.027 -77.3264
289.173 394.2 -77.3082
313.537 409.196 -82.9225
268.64 420.426 -76.1184
248.653 406.744 -59.8932
266.078 379.905 -59.8788
286.708 392.599 -76.1002
246.766 405.519 -57.6388
233.427 396.396 -33.2781
250.421 370.215 -33.266
264.191 378.68 -57.6244
232.406 395.734 -30.3259
227.74 392.56 -1.63768
244.584 366.609 -1.62595
249.4 369.554 -30.3137
246.392 363.67 1.56879
251.215 366.656 30.2334
266.918 339.655 30.2429
261.954 336.907 1.5796
252.266 367.27 33.1811
266.009 375.736 57.4873
282.109 348.062 57.4927
267.969 340.269 33.1907
267.952 376.868 59.7386
288.579 389.563 75.9622
305.271 360.877 75.9633
284.052 349.194 59.744
291.119 391.042 77.1701
315.484 406.034 82.7845
332.871 376.153 82.7859
307.81 362.356 77.1713
318.234 407.635 82.7704
342.678 422.667 77.0253
360.768 391.58 77.0308
335.621 377.754 82.7719
345.221 424.145 75.8014
365.971 436.885 59.5989
384.665 404.761 59.6079
363.311 393.058 75.8069
367.917 438.014 57.3512
381.797 446.534 33.091
400.898 413.712 33.1016
386.611 405.89 57.3602
382.85 447.145 30.1571
387.727 450.135 1.51826
406.971 417.068 1.52956
401.951 414.323 30.1676
387.727 450.135 -1.65709
382.856 447.136 -30.2961
401.956 414.315 -30.2841
406.971 417.068 -1.64579
381.803 446.524 -33.2301
367.929 437.994 -57.4902
386.622 405.872 -57.477
400.904 413.703 -33.2181
365.983 436.863 -59.7378
345.24 424.111 -75.9389
363.328 393.027 -75.9229
384.677 404.741 -59.7247
342.698 422.632 -77.1627
318.258 407.592 -82.9064
335.643 377.714 -82.8869
360.786 391.547 -77.1467
315.508 405.99 -82.9204
291.145 390.994 -77.3061
307.833 362.311 -77.2867
332.893 376.112 -82.9008
288.605 389.515 -76.0983
267.975 376.82 -59.8769
284.072 349.149 -59.8623
305.293 360.832 -76.0789
266.03 375.688 -57.6228
252.26 367.224 -33.2644
267.96 340.226 -33.253
282.128 348.016 -57.6083
251.208 366.612 -30.3124
246.392 363.668 -1.62464
261.953 336.905 -1.61383
266.908 339.614 -30.301
263.617 333.878 1.58064
268.581 336.627 30.244
282.955 308.868 30.2525
277.861 306.36 1.59041
269.661 337.189 33.1913
283.801 344.981 57.4934
298.538 316.538 57.4968
284.034 309.43 33.1998
285.797 346.019 59.7442
307.015 357.702 75.9634
322.29 328.23 75.9612
300.533 317.575 59.7475
309.623 359.057 77.1712
334.684 372.854 82.7859
350.592 342.164 82.7841
324.898 329.585 77.169
337.509 374.321 82.7722
362.656 388.147 77.0311
379.206 356.22 77.0342
353.416 343.63 82.7704
365.268 389.499 75.8076
386.622 401.201 59.6086
403.728 368.203 59.6159
381.819 357.572 75.8107
388.622 402.233 57.3611
402.909 410.054 33.1025
420.388 376.335 33.1119
405.728 369.235 57.3685
403.991 410.612 30.1687
409.011 413.358 1.53069
426.621 379.385 1.54091
421.471 376.893 30.1781
409.011 413.357 -1.64454
403.996 410.604 -30.2829
421.476 376.886 -30.272
426.622 379.384 -1.63431
402.915 410.046 -33.2167
388.633 402.214 -57.4756
405.738 369.219 -57.4631
420.394 376.327 -33.2058
386.634 401.181 -59.7231
365.285 389.467 -75.9213
381.834 357.543 -75.9048
403.739 368.186 -59.7105
362.673 388.114 -77.1446
337.53 374.28 -82.8848
353.435 343.593 -82.864
379.223 356.19 -77.1282
334.705 372.813 -82.8986
309.646 359.013 -77.2845
324.918 329.544 -77.2637
350.611 342.126 -82.8777
307.038 357.657 -76.0769
285.817 345.974 -59.8603
300.55 317.534 -59.8456
322.31 328.188 -76.0562
283.819 344.937 -57.6067
269.651 337.146 -33.2515
284.022 309.39 -33.241
298.553 316.496 -57.5921
268.571 336.586 -30.2998
263.616 333.876 -1.61261
277.86 306.358 -1.60284
282.941 308.83 -30.2893
279.375 303.25 1.59131
284.469 305.758 30.2534
297.482 277.301 30.2607
292.271 275.036 1.60001
285.575 306.268 33.2002
300.078 313.376 57.4972
313.419 284.228 57.4982
298.588 277.811 33.2075
302.122 314.318 59.7473
323.878 324.972 75.961
337.702 294.785 75.9548
315.462 285.169 59.7483
326.548 326.202 77.1686
352.242 338.781 82.7836
366.635 307.359 82.7783
340.372 296.015 77.1624
355.134 340.109 82.7703
380.924 352.699 77.0341
395.899 320.013 77.0346
369.528 308.688 82.7649
383.6 353.921 75.8111
405.51 364.553 59.6163
420.99 330.762 59.6222
398.575 321.235 75.8116
407.558 365.484 57.3693
422.219 372.583 33.1127
438.039 338.046 33.121
423.039 331.692 57.3752
423.327 373.086 30.1791
428.478 375.578 1.54192
444.418 340.78 1.55112
439.148 338.549 30.1874
428.479 375.578 -1.63318
423.333 373.08 -30.2708
439.153 338.544 -30.2609
444.418 340.78 -1.62398
422.224 372.576 -33.2045
407.569 365.467 -57.4618
423.049 331.678 -57.4497
438.045 338.04 -33.1945
405.52 364.535 -59.7088
383.616 353.893 -75.9031
398.589 321.209 -75.8861
421 330.746 -59.6968
380.94 352.669 -77.1261
355.153 340.072 -82.8619
369.545 308.654 -82.8395
395.914 319.986 -77.109
352.261 338.743 -82.8753
326.568 326.161 -77.2613
340.39 295.978 -77.2385
366.653 307.324 -82.8529
323.898 324.931 -76.054
302.138 314.277 -59.8435
315.476 285.132 -59.8283
337.72 294.748 -76.0313
300.093 313.335 -57.5905
285.562 306.229 -33.2395
298.572 277.775 -33.2299
313.431 284.19 -57.5754
284.456 305.72 -30.2882
279.375 303.249 -1.60172
292.27 275.034 -1.59302
297.466 277.266 -30.2786
293.633 271.852 1.60076
298.845 274.117 30.2614
310.469 245.018 30.2676
305.152 242.997 1.60839
299.974 274.575 33.2077
314.805 280.992 57.4984
326.721 251.203 57.4966
311.598 245.476 33.2138
316.891 281.837 59.7476
339.131 291.453 75.9542
351.476 260.625 75.9433
328.807 252.048 59.7459
341.856 292.556 77.1615
368.119 303.899 82.7773
380.968 271.829 82.7678
354.201 261.728 77.1506
371.072 305.089 82.7644
397.444 316.414 77.0341
410.813 283.052 77.0316
383.921 273.018 82.755
400.177 317.503 75.8118
422.592 327.029 59.6224
436.416 292.525 59.6269
413.546 284.141 75.8093
424.685 327.856 57.3758
439.685 334.21 33.1216
453.814 298.937 33.129
438.509 293.352 57.3804
440.818 334.656 30.1883
446.088 336.887 1.55202
460.322 301.347 1.56025
454.947 299.383 30.1957
446.088 336.887 -1.62296
440.823 334.651 -30.2599
454.952 299.38 -30.251
460.323 301.347 -1.61473
439.691 334.204 -33.1933
424.695 327.842 -57.4485
438.518 293.34 -57.4371
453.819 298.933 -33.1844
422.602 327.014 -59.6951
400.191 317.477 -75.8844
413.559 284.118 -75.8664
436.425 292.512 -59.6837
397.458 316.387 -77.1067
371.089 305.055 -82.8372
383.937 272.987 -82.8127
410.826 283.028 -77.0888
368.136 303.865 -82.8502
341.873 292.519 -77.2359
354.217 261.695 -77.2104
380.984 271.798 -82.8257
339.148 291.416 -76.0289
316.904 281.8 -59.826
328.818 252.016 -59.81
351.492 260.592 -76.0034
314.817 280.955 -57.5739
299.958 274.539 -33.2284
311.579 245.445 -33.2196
326.731 251.171 -57.5579
298.828 274.082 -30.2775
293.632 271.851 -1.59199
305.151 242.995 -1.58436
310.45 244.988 -30.2688
306.36 239.745 1.60899
311.676 241.766 30.2682
321.889 212.083 30.2729
316.479 210.303 1.61546
312.826 242.172 33.2137
327.95 247.899 57.4965
338.419 217.535 57.4915
323.039 212.49 33.2184
330.073 248.649 59.7447
352.742 257.225 75.9422
363.585 225.832 75.9258
340.542 218.284 59.7397
355.515 258.201 77.1491
382.283 268.302 82.7663
393.563 235.669 82.752
366.358 226.808 77.1328
385.289 269.35 82.754
412.181 279.384 77.0307
423.919 245.43 77.0248
396.569 236.717 82.7397
414.965 280.336 75.8091
437.835 288.72 59.6268
449.976 253.584 59.6303
426.703 246.382 75.8033
439.967 289.439 57.3809
455.272 295.024 33.1295
467.68 259.098 33.1359
452.108 254.303 57.3845
456.426 295.413 30.1965
461.802 297.376 1.56106
474.302 261.177 1.56808
468.834 259.486 30.2029
461.802 297.376 -1.61384
456.431 295.409 -30.2501
468.839 259.484 -30.2426
474.302 261.177 -1.60682
455.278 295.02 -33.1833
439.977 289.428 -57.436
452.118 254.294 -57.4261
467.686 259.096 -33.1758
437.844 288.708 -59.682
414.978 280.313 -75.8647
426.716 246.361 -75.8457
449.985 253.574 -59.672
412.194 279.36 -77.0863
385.305 269.32 -82.8102
396.584 236.69 -82.7832
423.932 245.408 -77.0674
382.298 268.272 -82.8227
355.531 258.169 -77.2074
366.372 226.78 -77.1786
393.578 235.642 -82.7956
352.757 257.192 -76.0008
330.084 248.616 -59.8073
340.552 218.257 -59.7902
363.598 225.804 -75.972
327.959 247.867 -57.5563
312.808 242.141 -33.218
323.018 212.463 -33.2101
338.427 217.508 -57.5391
311.657 241.736 -30.2679
306.359 239.743 -1.5834
316.478 210.301 -1.57693
321.868 212.058 -30.2599
317.529 206.988 1.61586
322.939 208.769 30.2733
331.723 178.553 30.2758
326.231 177.008 1.62114
324.107 209.124 33.2179
339.488 214.169 57.4909
348.493 183.291 57.4811
332.89 178.909 33.2204
341.643 214.825 59.7379
364.685 222.372 75.924
374.007 190.493 75.9009
350.648 183.946 59.7281
367.5 223.223 77.1306
394.705 232.085 82.7498
404.397 198.982 82.7287
376.822 191.344 77.1075
397.759 232.99 82.7382
425.108 241.703 77.0234
435.197 207.241 77.0143
407.451 199.887 82.7172
427.937 242.514 75.8029
451.21 249.716 59.6299
461.646 214.027 59.6329
438.026 208.052 75.7938
453.376 250.323 57.3849
468.948 255.119 33.1363
479.61 218.621 33.1413
463.813 214.635 57.3879
470.121 255.447 30.2035
475.588 257.138 1.56876
486.327 220.364 1.57446
480.782 218.95 30.2085
475.589 257.138 -1.60609
470.126 255.446 -30.2419
480.788 218.951 -30.2357
486.327 220.364 -1.60039
468.954 255.117 -33.1749
453.386 250.315 -57.4251
463.823 214.629 -57.4174
479.616 218.622 -33.1687
451.219 249.706 -59.6703
427.95 242.493 -75.844
438.039 208.033 -75.8246
461.657 214.02 -59.6626
425.121 241.682 -77.0646
397.773 232.963 -82.7804
407.466 199.864 -82.7492
435.211 207.222 -77.0452
394.72 232.058 -82.7922
367.514 223.196 -77.1752
376.836 191.321 -77.1418
404.412 198.959 -82.7609
364.699 222.345 -75.9689
341.653 214.798 -59.7871
350.657 183.926 -59.7672
374.021 190.47 -75.9356
339.495 214.143 -57.5373
324.086 209.098 -33.2083
332.868 178.889 -33.2003
348.5 183.271 -57.5174
322.918 208.744 -30.259
317.528 206.987 -1.57602
326.23 177.007 -1.57074
331.7 178.535 -30.2511
327.123 173.636 1.62119
332.615 175.182 30.2758
339.965 144.485 30.2716
334.404 143.165 1.62534
333.798 175.489 33.219
349.4 179.871 57.4797
356.935 148.542 57.4578
341.148 144.791 33.2148
351.582 180.436 59.7251
374.942 186.982 75.8979
382.733 154.699 75.862
359.117 149.107 59.7032
377.791 187.711 77.1042
405.366 195.35 82.7254
413.457 161.877 82.6899
385.582 155.429 77.0683
408.46 196.111 82.7149
436.206 203.465 77.0121
444.628 168.574 76.9997
416.55 162.638 82.6794
439.072 204.129 75.7931
462.693 210.104 59.6323
471.399 173.941 59.6334
447.494 169.238 75.7808
464.888 210.598 57.3882
480.684 214.584 33.1415
489.564 177.597 33.1422
473.594 174.434 57.3893
481.872 214.852 30.2089
487.416 216.266 1.57492
496.353 178.999 1.57895
490.751 177.865 30.2095
487.416 216.266 -1.59977
481.877 214.853 -30.235
490.759 177.87 -30.228
496.354 179 -1.59573
480.691 214.585 -33.1679
464.898 210.592 -57.4167
473.606 174.432 -57.4106
489.572 177.601 -33.1609
462.703 210.098 -59.661
439.086 204.111 -75.8229
447.51 169.222 -75.8034
471.411 173.937 -59.6549
436.22 203.445 -77.042
408.475 196.088 -82.7459
416.566 162.618 -82.7028
444.644 168.556 -77.0225
405.381 195.327 -82.7566
377.805 187.689 -77.1375
385.597 155.412 -77.0934
413.473 161.857 -82.7134
374.955 186.96 -75.9316
351.591 180.416 -59.7632
359.127 149.096 -59.7327
382.747 154.683 -75.8875
349.407 179.852 -57.5149
333.776 175.47 -33.1979
341.126 144.781 -33.1851
356.942 148.531 -57.4844
332.592 175.164 -30.2501
327.122 173.636 -1.56971
334.403 143.165 -1.56556
339.942 144.475 -30.2373
335.141 139.744 1.62417
340.702 141.063 30.2705
346.679 109.945 30.2328
341.071 108.841 1.62718
341.896 141.323 33.2101
357.684 145.074 57.4532
363.788 113.37 57.3727
347.874 110.205 33.1725
359.886 145.554 59.6959
383.501 151.146 75.8547
389.771 118.563 75.7546
365.99 113.849 59.6154
386.377 151.76 77.0607
414.251 158.208 82.6823
420.722 124.469 82.584
392.647 119.176 76.9606
417.376 158.822 82.674
445.454 164.758 76.9944
452.165 129.504 76.9522
423.847 125.084 82.5757
448.348 165.269 75.7783
472.253 169.972 59.6309
479.147 133.399 59.5998
455.06 130.015 75.7361
474.468 170.348 57.3879
490.438 173.51 33.1407
497.429 136.103 33.1163
481.362 133.775 57.3568
491.635 173.717 30.2091
497.237 174.851 1.57848
504.26 137.163 1.57972
498.626 136.31 30.1846
497.238 174.852 -1.59468
491.643 173.722 -30.2269
498.637 136.319 -30.2003
504.26 137.164 -1.59344
490.446 173.515 -33.1589
474.48 170.345 -57.4086
481.379 133.776 -57.3752
497.44 136.112 -33.1322
472.266 169.968 -59.6518
448.364 165.253 -75.8003
455.079 130 -75.7542
479.164 133.399 -59.6184
445.47 164.741 -77.0164
417.392 158.802 -82.6967
423.866 125.067 -82.5929
452.185 129.488 -76.9703
414.267 158.188 -82.705
386.392 151.744 -77.085
392.665 119.166 -76.9781
420.741 124.452 -82.6012
383.516 151.131 -75.8793
359.896 145.544 -59.7245
366.003 113.85 -59.6358
389.789 118.553 -75.7724
357.691 145.065 -57.4789
341.875 141.314 -33.1796
347.855 110.208 -33.1347
363.799 113.371 -57.3901
340.679 141.054 -30.2352
335.14 139.744 -1.5635
341.07 108.841 -1.56049
346.66 109.948 -30.1903
341.682 105.383 1.61981
347.29 106.486 30.2254
352.336 75.1028 30.0049
346.751 74.2032 1.6202
348.487 106.704 33.151
364.401 109.869 57.3512
369.392 77.9515 56.9462
353.533 75.3202 32.9304
366.607 110.271 59.5834
390.388 114.985 75.7227
395.294 82.2944 75.1932
371.597 78.354 59.1785
393.271 115.487 76.9266
421.346 120.78 82.5501
426.175 86.8753 82.052
398.177 82.7963 76.3972
424.481 121.239 82.5464
452.799 125.66 76.9228
457.562 90.0649 76.5133
429.31 87.3348 82.0483
455.699 126.007 75.713
479.786 129.391 59.5767
484.437 92.4299 59.2289
460.462 90.4121 75.3035
482.004 129.645 57.34
498.071 131.974 33.0995
502.668 94.169 32.8945
486.655 92.6842 56.9922
499.27 132.118 30.178
504.904 132.972 1.57311
509.488 94.8847 1.56122
503.867 94.3139 29.9731
504.904 132.973 -1.58776
499.281 132.128 -30.1946
503.877 94.3269 -30.0043
509.489 94.8854 -1.59964
498.083 131.983 -33.1155
482.021 129.648 -57.3584
486.684 92.6908 -57.0006
502.679 94.1825 -32.9251
479.804 129.391 -59.5945
455.719 125.993 -75.7304
460.491 90.3992 -75.3096
484.466 92.4347 -59.2367
452.819 125.645 -76.9401
424.501 121.223 -82.5627
429.338 87.3211 -82.0564
457.591 90.0511 -76.5194
421.366 120.763 -82.5665
393.29 115.477 -76.9434
398.203 82.7931 -76.4074
426.204 86.8621 -82.0602
390.406 114.976 -75.7395
366.621 110.273 -59.6029
371.621 78.3694 -59.1881
395.32 82.2924 -75.2036
364.413 109.872 -57.3678
348.469 106.709 -33.1123
353.525 75.3416 -32.8871
369.414 77.968 -56.953
347.271 106.491 -30.1824
341.681 105.384 -1.55256
346.75 74.2039 -1.55217
352.327 75.1237 -29.9572
347.43 70.7762 1.57657
353.015 71.6758 29.9612
360.122 40.9393 28.6618
354.802 40.1445 1.57341
354.18 71.8608 32.8087
370.039 74.4922 56.8245
376.393 43.4444 54.4518
361.286 41.1243 31.5092
372.188 74.8348 59.0006
395.884 78.7752 75.0153
401.15 47.2051 71.9586
378.542 43.787 56.6279
398.69 79.1948 76.1924
426.688 83.2738 81.8472
430.679 51.2973 78.5761
403.956 47.6247 73.1357
429.732 83.6458 81.852
457.985 86.3759 76.317
460.566 54.5824 73.1827
433.723 51.6693 78.581
460.815 86.6502 75.1409
484.79 88.668 59.0663
486.145 57.0637 56.6277
463.396 54.8567 72.0066
486.959 88.8684 56.8829
502.972 90.3532 32.7853
503.55 58.7839 31.4537
488.314 57.2641 54.4443
504.146 90.4676 29.9334
509.767 91.0385 1.52156
510.073 59.4381 1.50913
504.724 58.8984 28.6018
509.767 91.0382 -1.56262
504.156 90.4796 -29.9673
504.722 58.8702 -28.6477
510.073 59.4378 -1.57505
502.983 90.365 -32.8159
486.988 88.8733 -56.8914
488.344 57.238 -54.439
503.55 58.7556 -31.4964
484.82 88.6722 -59.0727
460.845 86.6367 -75.1456
463.428 54.8436 -72.0024
486.177 57.0368 -56.6202
458.015 86.3624 -76.3222
429.762 83.6324 -81.8592
433.756 51.6612 -78.5825
460.598 54.5694 -73.179
426.718 83.2612 -81.8548
398.717 79.1922 -76.202
403.985 47.6298 -73.1431
430.712 51.29 -78.578
395.911 78.7746 -75.0253
372.212 74.8516 -59.0098
378.564 43.825 -56.6401
401.179 47.2122 -71.9664
370.061 74.5105 -56.831
354.172 71.8842 -32.7651
361.273 41.1672 -31.472
376.412 43.4839 -54.4613
353.006 71.6977 -29.9137
347.429 70.7779 -1.50867
354.801 40.1462 -1.51184
360.108 40.9808 -28.6205
355.655 36.7823 1.48826
360.975 37.577 28.5766
368.974 7.5635 26.8102
363.983 6.87519 1.48022
362.076 37.7391 31.2682
377.183 40.0592 54.2109
384.242 9.75172 50.9512
370.075 7.7256 29.5018
379.215 40.3579 56.2688
401.822 43.776 71.5994
407.464 13.0246 67.3326
386.274 10.0504 53.009
404.477 44.1473 72.7135
431.2 47.8199 78.1539
435.129 16.6857 73.489
410.118 13.3959 68.4467
434.076 48.1742 78.1547
460.918 51.0873 72.7564
463.06 19.9236 68.427
438.005 17.0401 73.4898
463.582 51.3735 71.64
486.331 53.5805 56.2611
486.925 22.5006 52.9269
465.723 20.2098 67.3106
488.371 53.7911 54.198
503.607 55.3109 31.2073
503.131 24.2508 29.3949
488.966 22.7112 50.8638
504.712 55.4255 28.515
510.061 55.9652 1.42239
509.202 24.8809 1.43342
504.236 24.3654 26.7026
510.061 55.9627 -1.48815
504.71 55.3951 -28.5608
504.231 24.3034 -26.7305
509.202 24.8784 -1.47713
503.607 55.2784 -31.2493
488.401 53.7607 -54.1919
488.985 22.6561 -50.8541
503.128 24.1867 -29.419
486.362 53.5522 -56.253
463.614 51.359 -71.6352
465.745 20.1963 -67.3068
486.946 22.4476 -52.9152
460.95 51.0745 -72.7523
434.108 48.1664 -78.1558
438.027 17.0347 -73.4895
463.082 19.9118 -68.424
431.232 47.8131 -78.1555
404.506 44.1529 -72.7206
410.138 13.4035 -68.4508
435.151 16.6813 -73.4893
401.851 43.7844 -71.6072
379.235 40.3972 -56.2809
386.282 10.1056 -53.0216
407.483 13.035 -67.3374
377.201 40.1011 -54.221
362.062 37.7844 -31.2318
370.055 7.7904 -29.4782
384.247 9.80947 -50.9617
360.96 37.6197 -28.5365
355.654 36.7851 -1.42783
363.982 6.87799 -1.43587
368.953 7.6257 -26.7829
365.013 3.80314 1.35051
370.004 4.49145 26.6805
380.259 -21.1345 23.7824
375.836 -21.7561 1.33062
371.011 4.63274 29.1371
385.177 6.65887 50.5864
393.865 -19.2342 45.2692
381.266 -20.9932 26.2389
387.038 6.9171 52.4641
408.228 9.89129 66.7876
414.61 -16.4494 59.8161
395.726 -18.976 47.1469
410.656 10.2177 67.8
435.667 13.5075 72.8424
439.274 -13.1762 65.2188
417.038 -16.123 60.8286
438.291 13.8423 72.8394
463.345 16.7258 67.7766
464.081 -9.91204 60.6904
441.898 -12.8413 65.2157
465.771 17.0202 66.7586
486.974 19.311 52.3749
485.269 -7.14444 46.9527
466.507 -9.61767 59.6724
488.831 19.5333 50.4958
502.997 21.0729 29.0269
499.639 -5.27431 26.11
487.126 -6.92214 45.0736
504.001 21.1922 26.5753
508.967 21.7077 1.30605
505.032 -4.57741 1.32565
500.643 -5.15504 23.6583
508.967 21.7058 -1.34579
503.997 21.1309 -26.5992
500.643 -5.15775 -23.6588
505.032 -4.57928 -1.32619
502.992 21.0098 -29.0502
488.85 19.4793 -50.4853
487.126 -6.92666 -45.0736
499.638 -5.27886 -26.1098
486.992 19.2589 -52.364
465.791 17.0076 -66.7556
466.508 -9.62006 -59.6721
485.269 -7.14705 -46.9523
463.366 16.7146 -67.7736
438.311 13.8374 -72.8392
441.899 -12.8423 -65.2155
464.082 -9.91309 -60.6902
435.687 13.5031 -72.8424
410.674 10.2252 -67.8039
417.039 -16.1233 -60.8285
439.275 -13.1766 -65.2187
408.246 9.90045 -66.7915
387.044 6.97107 -52.4757
395.726 -18.9744 -47.147
414.61 -16.4481 -59.8161
385.182 6.71492 -50.5975
370.99 4.69584 -29.114
381.265 -20.9895 -26.2386
393.864 -19.2306 -45.2689
369.983 4.55273 -26.6568
365.012 3.80503 -1.30971
375.836 -21.7542 -1.32961
380.258 -21.1326 -23.7813
-319.239 731.107 25.382
-320.377 726.086 -0.381793
-319.188 731.086 -26.1466
-315.889 745.332 -47.9522
-311.033 766.632 -62.4706
-305.504 791.748 -67.5402
-300.327 816.943 -62.4686
-296.165 838.416 -47.9735
-293.426 852.809 -26.1823
-292.474 857.876 -0.426096
-293.458 852.836 25.3337
-296.209 838.459 47.1325
-300.377 816.996 61.6401
-305.559 791.806 66.7287
-311.085 766.686 61.6761
-315.948 745.374 47.1772
382.635 -22.3863 1.76393e-05
387.057 -21.7648 22.4517
399.656 -20.0058 41.4821
418.54 -17.4792 54.1513
440.777 -14.5323 58.5415
462.96 -11.603 54.0162
481.721 -9.1298 41.2965
494.234 -7.48197 22.3329
498.623 -6.90434 0.000247942
494.233 -7.48281 -22.3323
481.721 -9.13061 -41.2962
462.96 -11.6036 -54.016
440.777 -14.5328 -58.5413
418.54 -17.4795 -54.1511
399.656 -20.0059 -41.482
387.057 -21.7648 -22.4517
</DataArray>
</Points>
<Cells>
<DataArray type="Int32" Name="connectivity" format="ascii">
0 1 2 3 
4 5 6 7 
8 9 10 11 
12 13 14 15 
16 17 18 19 
20 21 22 23 
24 25 26 27 
28 29 30 31 
32 33 34 35 
36 37 38 39 
40 41 42 43 
44 45 46 47 
48 49 50 51 
52 53 54 55 
56 57 58 59 
60 61 62 63 
64 65 66 67 
68 69 70 71 
72 73 74 75 
76 77 78 79 
80 81 82 83 
84 85 86 87 
88 89 90 91 
92 93 94 95 
96 97 98 99 
100 101 102 103 
104 105 106 107 
108 109 110 111 
112 113 114 115 
116 117 118 119 
120 121 122 123 
124 125 126 127 
128 129 130 131 
132 133 134 135 
136 137 138 139 
140 141 142 143 
144 145 146 147 
148 149 150 151 
152 153 154 155 
156 157 158 159 
160 161 162 163 
164 165 166 167 
168 169 170 171 
172 173 174 175 
176 177 178 179 
180 181 182 183 
184 185 186 187 
188 189 190 191 
192 193 194 195 
196 197 198 199 
200 201 202 203 
204 205 206 207 
208 209 210 211 
212 213 214 215 
216 217 218 219 
220 221 222 223 
224 225 226 227 
228 229 230 231 
232 233 234 235 
236 237 238 239 
240 241 242 243 
244 245 246 247 
248 249 250 251 
252 253 254 255 
256 257 258 259 
260 261 262 263 
264 265 266 267 
268 269 270 271 
272 273 274 275 
276 277 278 279 
280 281 282 283 
284 285 286 287 
288 289 290 291 
292 293 294 295 
296 297 298 299 
300 301 302 303 
304 305 306 307 
308 309 310 311 
312 313 314 315 
316 317 318 319 
320 321 322 323 
324 325 326 327 
328 329 330 331 
332 333 334 335 
336 337 338 339 
340 341 342 343 
344 345 346 347 
348 349 350 351 
352 353 354 355 
356 357 358 359 
360 361 362 363 
364 365 366 367 
368 369 370 371 
372 373 374 375 
376 377 378 379 
380 381 382 383 
384 385 386 387 
388 389 390 391 
392 393 394 395 
396 397 398 399 
400 401 402 403 
404 405 406 407 
408 409 410 411 
412 413 414 415 
416 417 418 419 
420 421 422 423 
424 425 426 427 
428 429 430 431 
432 433 434 435 
436 437 438 439 
440 441 442 443 
444 445 446 447 
448 449 450 451 
452 453 454 455 
456 457 458 459 
460 461 462 463 
464 465 466 467 
468 469 470 471 
472 473 474 475 
476 477 478 479 
480 481 482 483 
484 485 486 487 
488 489 490 491 
492 493 494 495 
496 497 498 499 
500 501 502 503 
504 505 506 507 
508 509 510 511 
512 513 514 515 
516 517 518 519 
520 521 522 523 
524 525 526 527 
528 529 530 531 
532 533 534 535 
536 537 538 539 
540 541 542 543 
544 545 546 547 
548 549 550 551 
552 553 554 555 
556 557 558 559 
560 561 562 563 
564 565 566 567 
568 569 570 571 
572 573 574 575 
576 577 578 579 
580 581 582 583 
584 585 586 587 
588 589 590 591 
592 593 594 595 
596 597 598 599 
600 601 602 603 
604 605 606 607 
608 609 610 611 
612 613 614 615 
616 617 618 619 
620 621 622 623 
624 625 626 627 
628 629 630 631 
632 633 634 635 
636 637 638 639 
640 641 642 643 
644 645 646 647 
648 649 650 651 
652 653 654 655 
656 657 658 659 
660 661 662 663 
664 665 666 667 
668 669 670 671 
672 673 674 675 
676 677 678 679 
680 681 682 683 
684 685 686 687 
688 689 690 691 
692 693 694 695 
696 697 698 699 
700 701 702 703 
704 705 706 707 
708 709 710 711 
712 713 714 715 
716 717 718 719 
720 721 722 723 
724 725 726 727 
728 729 730 731 
732 733 734 735 
736 737 738 739 
740 741 742 743 
744 745 746 747 
748 749 750 751 
752 753 754 755 
756 757 758 759 
760 761 762 763 
764 765 766 767 
768 769 770 771 
772 773 774 775 
776 777 778 779 
780 781 782 783 
784 785 786 787 
788 789 790 791 
792 793 794 795 
796 797 798 799 
800 801 802 803 
804 805 806 807 
808 809 810 811 
812 813 814 815 
816 817 818 819 
820 821 822 823 
824 825 826 827 
828 829 830 831 
832 833 834 835 
836 837 838 839 
840 841 842 843 
844 845 846 847 
848 849 850 851 
852 853 854 855 
856 857 858 859 
860 861 862 863 
864 865 866 867 
868 869 870 871 
872 873 874 875 
876 877 878 879 
880 881 882 883 
884 885 886 887 
888 889 890 891 
892 893 894 895 
896 897 898 899 
900 901 902 903 
904 905 906 907 
908 909 910 911 
912 913 914 915 
916 917 918 919 
920 921 922 923 
924 925 926 927 
928 929 930 931 
932 933 934 935 
936 937 938 939 
940 941 942 943 
944 945 946 947 
948 949 950 951 
952 953 954 955 
956 957 958 959 
960 961 962 963 
964 965 966 967 
968 969 970 971 
972 973 974 975 
976 977 978 979 
980 981 982 983 
984 985 986 987 
988 989 990 991 
992 993 994 995 
996 997 998 999 
1000 1001 1002 1003 
1004 1005 1006 1007 
1008 1009 1010 1011 
1012 1013 1014 1015 
1016 1017 1018 1019 
1020 1021 1022 1023 
1024 1025 1026 1027 
1028 1029 1030 1031 
1032 1033 1034 1035 
1036 1037 1038 1039 
1040 1041 1042 1043 
1044 1045 1046 1047 
1048 1049 1050 1051 
1052 1053 1054 1055 
1056 1057 1058 1059 
1060 1061 1062 1063 
1064 1065 1066 1067 
1068 1069 1070 1071 
1072 1073 1074 1075 
1076 1077 1078 1079 
1080 1081 1082 1083 
1084 1085 1086 1087 
1088 1089 1090 1091 
1092 1093 1094 1095 
1096 1097 1098 1099 
1100 1101 1102 1103 
1104 1105 1106 1107 
1108 1109 1110 1111 
1112 1113 1114 1115 
1116 1117 1118 1119 
1120 1121 1122 1123 
1124 1125 1126 1127 
1128 1129 1130 1131 
1132 1133 1134 1135 
1136 1137 1138 1139 
1140 1141 1142 1143 
1144 1145 1146 1147 
1148 1149 1150 1151 
1152 1153 1154 1155 
1156 1157 1158 1159 
1160 1161 1162 1163 
1164 1165 1166 1167 
1168 1169 1170 1171 
1172 1173 1174 1175 
1176 1177 1178 1179 
1180 1181 1182 1183 
1184 1185 1186 1187 
1188 1189 1190 1191 
1192 1193 1194 1195 
1196 1197 1198 1199 
1200 1201 1202 1203 
1204 1205 1206 1207 
1208 1209 1210 1211 
1212 1213 1214 1215 
1216 1217 1218 1219 
1220 1221 1222 1223 
1224 1225 1226 1227 
1228 1229 1230 1231 
1232 1233 1234 1235 
1236 1237 1238 1239 
1240 1241 1242 1243 
1244 1245 1246 1247 
1248 1249 1250 1251 
1252 1253 1254 1255 
1256 1257 1258 1259 
1260 1261 1262 1263 
1264 1265 1266 1267 
1268 1269 1270 1271 
1272 1273 1274 1275 
1276 1277 1278 1279 
1280 1281 1282 1283 
1284 1285 1286 1287 
1288 1289 1290 1291 
1292 1293 1294 1295 
1296 1297 1298 1299 
1300 1301 1302 1303 
1304 1305 1306 1307 
1308 1309 1310 1311 
1312 1313 1314 1315 
1316 1317 1318 1319 
1320 1321 1322 1323 
1324 1325 1326 1327 
1328 1329 1330 1331 
1332 1333 1334 1335 
1336 1337 1338 1339 
1340 1341 1342 1343 
1344 1345 1346 1347 
1348 1349 1350 1351 
1352 1353 1354 1355 
1356 1357 1358 1359 
1360 1361 1362 1363 
1364 1365 1366 1367 
1368 1369 1370 1371 
1372 1373 1374 1375 
1376 1377 1378 1379 
1380 1381 1382 1383 
1384 1385 1386 1387 
1388 1389 1390 1391 
1392 1393 1394 1395 
1396 1397 1398 1399 
1400 1401 1402 1403 
1404 1405 1406 1407 
1408 1409 1410 1411 
1412 1413 1414 1415 
1416 1417 1418 1419 
1420 1421 1422 1423 
1424 1425 1426 1427 
1428 1429 1430 1431 
1432 1433 1434 1435 
1436 1437 1438 1439 
1440 1441 1442 1443 
1444 1445 1446 1447 
1448 1449 1450 1451 
1452 1453 1454 1455 
1456 1457 1458 1459 
1460 1461 1462 1463 
1464 1465 1466 1467 
1468 1469 1470 1471 
1472 1473 1474 1475 
1476 1477 1478 1479 
1480 1481 1482 1483 
1484 1485 1486 1487 
1488 1489 1490 1491 
1492 1493 1494 1495 
1496 1497 1498 1499 
1500 1501 1502 1503 
1504 1505 1506 1507 
1508 1509 1510 1511 
1512 1513 1514 1515 
1516 1517 1518 1519 
1520 1521 1522 1523 
1524 1525 1526 1527 
1528 1529 1530 1531 
1532 1533 1534 1535 
1536 1537 1538 1539 
1540 1541 1542 1543 
1544 1545 1546 1547 
1548 1549 1550 1551 
1552 1553 1554 1555 
1556 1557 1558 1559 
1560 1561 1562 1563 
1564 1565 1566 1567 
1568 1569 1570 1571 
1572 1573 1574 1575 
1576 1577 1578 1579 
1580 1581 1582 1583 
1584 1585 1586 1587 
1588 1589 1590 1591 
1592 1593 1594 1595 
1596 1597 1598 1599 
1600 1601 1602 1603 
1604 1605 1606 1607 
1608 1609 1610 1611 
1612 1613 1614 1615 
1616 1617 1618 1619 
1620 1621 1622 1623 
1624 1625 1626 1627 
1628 1629 1630 1631 
1632 1633 1634 1635 
1636 1637 1638 1639 
1640 1641 1642 1643 
1644 1645 1646 1647 
1648 1649 1650 1651 
1652 1653 1654 1655 
1656 1657 1658 1659 
1660 1661 1662 1663 
1664 1665 1666 1667 
1668 1669 1670 1671 
1672 1673 1674 1675 
1676 1677 1678 1679 
1680 1681 1682 1683 
1684 1685 1686 1687 
1688 1689 1690 1691 
1692 1693 1694 1695 
1696 1697 1698 1699 
1700 1701 1702 1703 
1704 1705 1706 1707 
1708 1709 1710 1711 
1712 1713 1714 1715 
1716 1717 1718 1719 
1720 1721 1722 1723 
1724 1725 1726 1727 
1728 1729 1730 1731 
1732 1733 1734 1735 
1736 1737 1738 1739 
1740 1741 1742 1743 
1744 1745 1746 1747 
1748 1749 1750 1751 
1752 1753 1754 1755 
1756 1757 1758 1759 
1760 1761 1762 1763 
1764 1765 1766 1767 
1768 1769 1770 1771 
1772 1773 1774 1775 
1776 1777 1778 1779 
1780 1781 1782 1783 
1784 1785 1786 1787 
1788 1789 1790 1791 
1792 1793 1794 1795 
1796 1797 1798 1799 
1800 1801 1802 1803 
1804 1805 1806 1807 
1808 1809 1810 1811 
1812 1813 1814 1815 
1816 1817 1818 1819 
1820 1821 1822 1823 
1824 1825 1826 1827 
1828 1829 1830 1831 
1832 1833 1834 1835 
1836 1837 1838 1839 
1840 1841 1842 1843 
1844 1845 1846 1847 
1848 1849 1850 1851 
1852 1853 1854 1855 
1856 1857 1858 1859 
1860 1861 1862 1863 
1864 1865 1866 1867 
1868 1869 1870 1871 
1872 1873 1874 1875 
1876 1877 1878 1879 
1880 1881 1882 1883 
1884 1885 1886 1887 
1888 1889 1890 1891 
1892 1893 1894 1895 
1896 1897 1898 1899 
1900 1901 1902 1903 
1904 1905 1906 1907 
1908 1909 1910 1911 
1912 1913 1914 1915 
1916 1917 1918 1919 
1920 1921 1922 1923 
1924 1925 1926 1927 
1928 1929 1930 1931 
1932 1933 1934 1935 
1936 1937 1938 1939 
1940 1941 1942 1943 
1944 1945 1946 1947 
1948 1949 1950 1951 
1952 1953 1954 1955 
1956 1957 1958 1959 
1960 1961 1962 1963 
1964 1965 1966 1967 
1968 1969 1970 1971 
1972 1973 1974 1975 
1976 1977 1978 1979 
1980 1981 1982 1983 
1984 1985 1986 1987 
1988 1989 1990 1991 
1992 1993 1994 1995 
1996 1997 1998 1999 
2000 2001 2002 2003 
2004 2005 2006 2007 
2008 2009 2010 2011 
2012 2013 2014 2015 
2016 2017 2018 2019 
2020 2021 2022 2023 
2024 2025 2026 2027 
2028 2029 2030 2031 
2032 2033 2034 2035 
2036 2037 2038 2039 
2040 2041 2042 2043 
2044 2045 2046 2047 
2048 2049 2050 2051 2052 2053 2054 2055 2056 2057 2058 2059 2060 2061 2062 2063 
2064 2065 2066 2067 2068 2069 2070 2071 2072 2073 2074 2075 2076 2077 2078 2079 
</DataArray>
<DataArray type="Int32" Name="offsets" format="ascii">
4 8 12 16 20 24 28 32 36 40 44 48 52 56 60 64 68 72 76 80 84 88 92 96 100 104 108 112 116 120 124 128 132 136 140 144 148 152 156 160 164 168 172 176 180 184 188 192 196 200 204 208 212 216 220 224 228 232 236 240 244 248 252 256 260 264 268 272 276 280 284 288 292 296 300 304 308 312 316 320 324 328 332 336 340 344 348 352 356 360 364 368 372 376 380 384 388 392 396 400 404 408 412 416 420 424 428 432 436 440 444 448 452 456 460 464 468 472 476 480 484 488 492 496 500 504 508 512 516 520 524 528 532 536 540 544 548 552 556 560 564 568 572 576 580 584 588 592 596 600 604 608 612 616 620 624 628 632 636 640 644 648 652 656 660 664 668 672 676 680 684 688 692 696 700 704 708 712 716 720 724 728 732 736 740 744 748 752 756 760 764 768 772 776 780 784 788 792 796 800 804 808 812 816 820 824 828 832 836 840 844 848 852 856 860 864 868 872 876 880 884 888 892 896 900 904 908 912 916 920 924 928 932 936 940 944 948 952 956 960 964 968 972 976 980 984 988 992 996 1000 1004 1008 1012 1016 1020 1024 1028 1032 1036 1040 1044 1048 1052 1056 1060 1064 1068 1072 1076 1080 1084 1088 1092 1096 1100 1104 1108 1112 1116 1120 1124 1128 1132 1136 1140 1144 1148 1152 1156 1160 1164 1168 1172 1176 1180 1184 1188 1192 1196 1200 1204 1208 1212 1216 1220 1224 1228 1232 1236 1240 1244 1248 1252 1256 1260 1264 1268 1272 1276 1280 1284 1288 1292 1296 1300 1304 1308 1312 1316 1320 1324 1328 1332 1336 1340 1344 1348 1352 1356 1360 1364 1368 1372 1376 1380 1384 1388 1392 1396 1400 1404 1408 1412 1416 1420 1424 1428 1432 1436 1440 1444 1448 1452 1456 1460 1464 1468 1472 1476 1480 1484 1488 1492 1496 1500 1504 1508 1512 1516 1520 1524 1528 1532 1536 1540 1544 1548 1552 1556 1560 1564 1568 1572 1576 1580 1584 1588 1592 1596 1600 1604 1608 1612 1616 1620 1624 1628 1632 1636 1640 1644 1648 1652 1656 1660 1664 1668 1672 1676 1680 1684 1688 1692 1696 1700 1704 1708 1712 1716 1720 1724 1728 1732 1736 1740 1744 1748 1752 1756 1760 1764 1768 1772 1776 1780 1784 1788 1792 1796 1800 1804 1808 1812 1816 1820 1824 1828 1832 1836 1840 1844 1848 1852 1856 1860 1864 1868 1872 1876 1880 1884 1888 1892 1896 1900 1904 1908 1912 1916 1920 1924 1928 1932 1936 1940 1944 1948 1952 1956 1960 1964 1968 1972 1976 1980 1984 1988 1992 1996 2000 2004 2008 2012 2016 2020 2024 2028 2032 2036 2040 2044 2048 2064 2080 
</DataArray>
<DataArray type="UInt8" Name="types" format="ascii">
7 7 7 7 7 7 7 7 7 7 7 7 7 7 7 7 7 7 7 7 7 7 7 7 7 7 7 7 7 7 7 7 7 7 7 7 7 7 7 7 7 7 7 7 7 7 7 7 7 7 7 7 7 7 7 7 7 7 7 7 7 7 7 7 7 7 7 7 7 7 7 7 7 7 7 7 7 7 7 7 7 7 7 7 7 7 7 7 7 7 7 7 7 7 7 7 7 7 7 7 7 7 7 7 7 7 7 7 7 7 7 7 7 7 7 7 7 7 7 7 7 7 7 7 7 7 7 7 7 7 7 7 7 7 7 7 7 7 7 7 7 7 7 7 7 7 7 7 7 7 7 7 7 7 7 7 7 7 7 7 7 7 7 7 7 7 7 7 7 7 7 7 7 7 7 7 7 7 7 7 7 7 7 7 7 7 7 7 7 7 7 7 7 7 7 7 7 7 7 7 7 7 7 7 7 7 7 7 7 7 7 7 7 7 7 7 7 7 7 7 7 7 7 7 7 7 7 7 7 7 7 7 7 7 7 7 7 7 7 7 7 7 7 7 7 7 7 7 7 7 7 7 7 7 7 7 7 7 7 7 7 7 7 7 7 7 7 7 7 7 7 7 7 7 7 7 7 7 7 7 7 7 7 7 7 7 7 7 7 7 7 7 7 7 7 7 7 7 7 7 7 7 7 7 7 7 7 7 7 7 7 7 7 7 7 7 7 7 7 7 7 7 7 7 7 7 7 7 7 7 7 7 7 7 7 7 7 7 7 7 7 7 7 7 7 7 7 7 7 7 7 7 7 7 7 7 7 7 7 7 7 7 7 7 7 7 7 7 7 7 7 7 7 7 7 7 7 7 7 7 7 7 7 7 7 7 7 7 7 7 7 7 7 7 7 7 7 7 7 7 7 7 7 7 7 7 7 7 7 7 7 7 7 7 7 7 7 7 7 7 7 7 7 7 7 7 7 7 7 7 7 7 7 7 7 7 7 7 7 7 7 7 7 7 7 7 7 7 7 7 7 7 7 7 7 7 7 7 7 7 7 7 7 7 7 7 7 7 7 7 7 7 7 7 7 7 7 7 7 7 7 7 7 7 7 7 7 7 7 7 7 7 7 7 7 7 7 7 7 7 7 7 7 7 7 7 7 7 7 7 7 7 7 7 
</DataArray>
</Cells>
<CellData Scalars="cell variable 4" Vectors="cell vector">
<DataArray type="Float64" NumberOfComponents="3" Name="cell vector" format="ascii">
0.132346 0.153392 0.979263
0.374495 0.423995 0.82461
0.496885 0.65421 0.570188
0.357662 0.907393 0.220715
-0.0651354 0.969964 -0.234367
-0.0901488 0.813848 -0.574042
0.029715 -0.547547 0.836247
0.00454753 -0.192516 0.981283
0.00314839 0.193178 0.981159
-0.0298795 0.548206 0.83581
-0.0925883 0.814059 0.573355
-0.0665867 0.97001 0.233765
0.354428 0.908685 -0.220619
0.488422 0.659829 -0.571025
-0.35439 -0.435046 0.827734
-0.139645 -0.149802 0.978805
0.0618651 0.186361 0.980532
0.176007 0.52911 0.830099
0.244021 0.795511 0.554631
0.217571 0.956254 0.195553
0.142838 0.970141 -0.196017
0.127094 0.821567 -0.555765
-0.0944581 -0.548102 0.831061
-0.0343688 -0.192285 0.980737
0.0352175 0.192803 0.980605
0.0938305 0.548768 0.830692
0.125658 0.822156 0.55522
0.14168 0.970435 0.195403
0.216283 0.956432 -0.196111
0.242905 0.795455 -0.555202
-0.175532 -0.528619 0.830512
-0.0643259 -0.185089 0.980614
0.0609063 0.186625 0.980541
0.173431 0.529914 0.830128
0.245675 0.795341 0.554145
0.197354 0.960688 0.195267
0.134622 0.971754 -0.193834
0.1395 0.820111 -0.554939
-0.101962 -0.546861 0.830992
-0.0368778 -0.191787 0.980743
0.0365382 0.192529 0.980611
0.101526 0.547475 0.83064
0.139052 0.820537 0.554421
0.134039 0.971972 0.193141
0.196633 0.960705 -0.195909
0.245464 0.795073 -0.554623
-0.173422 -0.529335 0.8305
-0.0622247 -0.185497 0.980673
0.0627009 0.185783 0.980588
0.180174 0.527211 0.830413
0.265161 0.789006 0.554219
0.239321 0.951257 0.194514
0.904545 -0.42405 0.0444917
0.970399 -0.240889 0.0172855
0.975261 -0.22093 0.00751631
0.976172 -0.216985 0.00253161
0.976183 -0.216945 -0.00140692
0.975286 -0.22085 -0.00646468
0.97041 -0.240906 -0.0163823
0.903896 -0.425504 -0.0437895
0.238337 0.951385 -0.195097
0.265214 0.788705 -0.554623
-0.180217 -0.526642 0.830765
-0.0636214 -0.184633 0.980746
0.0644823 0.184606 0.980695
0.185229 0.524298 0.831145
0.277235 0.784366 0.554897
0.314929 0.929089 0.19394
0.8977 -0.439104 0.0363656
0.955622 -0.294062 0.0177198
0.962052 -0.272767 0.00740649
0.96338 -0.26813 0.00226598
0.963384 -0.268124 -0.00126667
0.962071 -0.272723 -0.00637045
0.955654 -0.294016 -0.0167096
0.897057 -0.440477 -0.0356279
0.314217 0.92923 -0.194422
0.277399 0.784058 -0.555251
-0.185509 -0.523675 0.831475
-0.0652938 -0.183426 0.980863
0.0686722 0.182492 0.980806
0.197539 0.518671 0.83184
0.298925 0.775948 0.555472
0.361642 0.911896 0.194066
0.90727 -0.419914 0.0231203
0.941358 -0.337015 0.0162935
0.947778 -0.318836 0.00779746
0.949335 -0.314257 0.00242632
0.949339 -0.314251 -0.00143183
0.947797 -0.318802 -0.00677586
0.941382 -0.336995 -0.0152998
0.906751 -0.421074 -0.0223617
0.361047 0.912044 -0.194475
0.299098 0.775656 -0.555786
-0.197907 -0.518019 0.832159
-0.0694653 -0.181278 0.980976
0.0744648 0.17975 0.98089
0.214226 0.511129 0.832379
0.325088 0.764912 0.556082
0.39863 0.896315 0.194201
0.909204 -0.416145 0.0130533
0.925966 -0.377359 0.0137027
0.931646 -0.363286 0.00767369
0.933328 -0.359017 0.00252193
0.933332 -0.359011 -0.00152921
0.931666 -0.363256 -0.00665687
0.925984 -0.37735 -0.0127167
0.908825 -0.416997 -0.0122452
0.398042 0.896498 -0.19456
0.325223 0.764652 -0.556361
-0.21463 -0.510458 0.832687
-0.0752628 -0.178485 0.98106
0.0811252 0.176515 0.980949
0.233235 0.502081 0.832776
0.353676 0.751739 0.556598
0.433175 0.880121 0.194283
0.901881 -0.431926 0.0070777
0.908854 -0.416973 0.0108878
0.913518 -0.406737 0.00706635
0.915205 -0.40298 0.00248252
0.915209 -0.402976 -0.00149986
0.913538 -0.406707 -0.00605397
0.908875 -0.416951 -0.00989638
0.901599 -0.432528 -0.00622602
0.432475 0.880394 -0.194605
0.353752 0.75152 -0.556845
-0.233659 -0.501392 0.833072
-0.0819229 -0.175189 0.98112
0.088258 0.172823 0.980991
0.25348 0.491687 0.833062
0.383697 0.736573 0.556988
0.467852 0.862174 0.194344
0.887492 -0.460806 0.00395747
0.889733 -0.456406 0.00833947
0.893383 -0.449254 0.0061458
0.894965 -0.44613 0.00231665
0.894969 -0.446126 -0.00133803
0.893402 -0.449228 -0.00514097
0.889751 -0.456387 -0.0073539
0.887249 -0.461281 -0.00308536
0.467107 0.862513 -0.194634
0.383748 0.736383 -0.557205
-0.25391 -0.490979 0.833348
-0.0890191 -0.171444 0.981164
0.0956269 0.168689 0.98102
0.27438 0.479984 0.833265
0.414629 0.7194 0.557267
0.502077 0.842689 0.194406
0.868358 -0.495932 0.00234584
0.868441 -0.495752 0.00627753
0.871227 -0.490855 0.00509879
0.872623 -0.48839 0.00206678
0.872628 -0.488384 -0.00108666
0.871245 -0.490832 -0.00410454
0.86845 -0.495748 -0.00530841
0.868126 -0.496342 -0.0014679
0.501396 0.843035 -0.194665
0.414678 0.719228 -0.557453
-0.2748 -0.479263 0.833542
-0.0963204 -0.167267 0.981195
0.103075 0.164128 0.981039
0.295504 0.467016 0.833411
0.445927 0.700268 0.557471
0.536071 0.821471 0.194454
0.845934 -0.533286 0.00143067
0.844982 -0.534775 0.00465295
0.847051 -0.531496 0.00406341
0.848217 -0.529646 0.00176984
0.848222 -0.529639 -0.0008041
0.847068 -0.531475 -0.00308901
0.84499 -0.53477 -0.00369963
0.84571 -0.533642 -0.000557617
0.535358 0.821881 -0.194685
0.445961 0.700122 -0.557627
-0.29591 -0.466281 0.833678
-0.103695 -0.162664 0.981218
0.110498 0.159147 0.981052
0.316523 0.452846 0.833513
0.477081 0.679307 0.557617
0.57028 0.798097 0.194481
0.820348 -0.571864 0.0010215
0.819409 -0.5732 0.00336589
0.820901 -0.571062 0.003107
0.821821 -0.569744 0.00145979
0.821827 -0.569737 -0.000507483
0.820918 -0.571042 -0.00215545
0.819405 -0.57321 -0.00244603
0.820089 -0.572236 -0.000175272
0.569659 0.79849 -0.194684
0.477113 0.67918 -0.557744
-0.316902 -0.452105 0.833771
-0.111026 -0.157653 0.981233
0.117818 0.153755 0.98106
0.337259 0.437495 0.833579
0.507876 0.656527 0.557704
0.604311 0.772649 0.194478
0.791851 -0.610714 0.000939773
0.791787 -0.610793 0.00232364
0.792812 -0.609463 0.00223356
0.793479 -0.608597 0.00114679
0.793486 -0.608589 -0.000219929
0.79283 -0.609442 -0.00130467
0.791781 -0.610804 -0.00142872
0.79157 -0.611078 -0.000117782
0.603725 0.773062 -0.194656
0.507908 0.65642 -0.557801
-0.337609 -0.436749 0.833829
-0.118246 -0.152241 0.981244
0.125018 0.147945 0.981062
0.357656 0.42094 0.833601
0.538249 0.631864 0.557706
0.637843 0.745232 0.194386
0.760664 -0.649145 0.000912471
0.762179 -0.647366 0.00126864
0.762718 -0.64673 0.00136665
0.763109 -0.646269 0.000830335
0.763117 -0.646261 7.98979e-05
0.762733 -0.646713 -0.000466964
0.76216 -0.647388 -0.000409289
0.760395 -0.649461 -0.000105427
0.637333 0.745629 -0.194539
0.538301 0.631758 -0.557776
-0.357967 -0.420197 0.833843
-0.12533 -0.146431 0.98125
0.132083 0.141764 0.981049
0.377737 0.403222 0.833503
0.568631 0.604913 0.55744
0.675098 0.711803 0.193854
0.728732 -0.684798 -0.000624398
0.7299 -0.683553 -0.000873044
0.729534 -0.683944 -0.000268232
0.729458 -0.684026 0.000216647
0.729465 -0.684018 0.000664402
0.729549 -0.683928 0.00114098
0.729879 -0.683574 0.0017063
0.728469 -0.685078 0.00140992
0.674608 0.712234 -0.193976
0.56869 0.60482 -0.55748
-0.378 -0.402492 0.833736
-0.132276 -0.140254 0.98124
0.138818 0.135356 0.981024
0.396772 0.384926 0.833309
0.596911 0.577486 0.556962
0.707263 0.680098 0.19299
-0.694928 0.719079 0.00066216
-0.696363 0.717688 0.00123627
-0.695809 0.718227 0.000736599
-0.695531 0.718496 -1.07528e-05
-0.695537 0.71849 -0.000825485
-0.695823 0.718212 -0.00157015
-0.696347 0.717703 -0.00203774
-0.694697 0.719301 -0.00142351
0.706752 0.680601 -0.193088
0.596968 0.577414 -0.556976
-0.397003 -0.384197 0.833536
-0.1389 -0.133853 0.981219
0.145134 0.128683 0.981008
0.41454 0.365995 0.833189
0.622921 0.54962 0.556675
0.734161 0.651114 0.192506
-0.658951 0.752185 -0.000744899
-0.661624 0.749836 1.11842e-05
-0.661581 0.749874 0.00010993
-0.661398 0.750035 -0.000199065
-0.661406 0.750028 -0.000601989
-0.661594 0.749862 -0.000896722
-0.661601 0.749855 -0.000764902
-0.658723 0.752385 2.11286e-05
0.733737 0.651568 -0.192583
0.622994 0.549548 -0.556665
-0.41475 -0.365255 0.833409
-0.145101 -0.127204 0.981206
0.151134 0.121629 0.981002
0.431502 0.345919 0.833154
0.648234 0.5196 0.556605
0.763782 0.61612 0.192437
-0.622269 0.782803 -0.000690599
-0.624484 0.781038 0.000113367
-0.62438 0.78112 0.000376561
-0.624062 0.781375 -5.7634e-05
-0.624069 0.781369 -0.000709659
-0.624393 0.781109 -0.00112742
-0.624457 0.781059 -0.000828828
-0.622047 0.78298 5.1033e-07
0.76342 0.616552 -0.192492
0.648319 0.519529 -0.556572
-0.431683 -0.345178 0.833368
-0.150987 -0.120185 0.981203
0.156816 0.114267 0.980995
0.447563 0.324965 0.833118
0.672192 0.488266 0.556555
0.79141 0.580205 0.192441
-0.583865 0.811851 -0.000506861
-0.585984 0.810322 0.000537113
-0.585613 0.81059 0.000822119
-0.58508 0.810976 0.000147102
-0.585088 0.81097 -0.000868636
-0.585628 0.810578 -0.0015325
-0.585965 0.810336 -0.00121612
-0.58363 0.81202 -0.000138606
0.791055 0.580676 -0.192474
0.672277 0.488211 -0.556501
-0.447714 -0.324225 0.833325
-0.156564 -0.112861 0.981198
0.162134 0.106681 0.980985
0.46256 0.303401 0.833058
0.694479 0.456097 0.556484
0.816735 0.543973 0.192452
-0.544055 0.839049 -0.000306293
-0.546395 0.837527 0.00117797
-0.54556 0.838071 0.00139917
-0.544733 0.83861 0.000379134
-0.544742 0.838603 -0.00105933
-0.545575 0.838059 -0.00206039
-0.546373 0.83754 -0.00180651
-0.543802 0.839213 -0.000289417
0.816415 0.544448 -0.192465
0.694573 0.456044 -0.55641
-0.462682 -0.302661 0.83326
-0.161778 -0.105328 0.98119
0.167059 0.0989394 0.98097
0.4764 0.28144 0.832967
0.714946 0.42344 0.556373
0.839675 0.507846 0.192455
-0.503241 0.864146 -5.0407e-05
-0.505935 0.862569 0.00206893
-0.504378 0.86348 0.00213038
-0.503153 0.864197 0.00063362
-0.503165 0.864189 -0.00128532
-0.504392 0.863471 -0.00274315
-0.505884 0.862598 -0.00262921
-0.502983 0.864296 -0.000497143
0.839486 0.50816 -0.192451
0.715061 0.423366 -0.556281
-0.476493 -0.280701 0.833164
-0.166593 -0.0976619 0.981177
0.171563 0.0911282 0.980949
0.489027 0.259299 0.832837
0.733514 0.390627 0.556208
0.860203 0.472245 0.192448
-0.461995 0.886883 0.000357826
-0.464833 0.885392 0.00327658
-0.462198 0.886772 0.00303198
-0.460463 0.887679 0.000930291
-0.460478 0.88767 -0.00153288
-0.462215 0.886761 -0.00358755
-0.464778 0.885419 -0.00377564
-0.461707 0.887032 -0.000841965
0.860061 0.472512 -0.192426
0.733627 0.39057 -0.556099
-0.489099 -0.258548 0.833028
-0.171007 -0.0899157 0.981158
0.175645 0.0833195 0.980921
0.500409 0.237232 0.832653
0.75011 0.358093 0.555972
0.878293 0.437692 0.192425
-0.421191 0.906971 0.00107205
-0.423363 0.905947 0.00489172
-0.419128 0.907918 0.00407236
-0.416774 0.90901 0.00123478
-0.416794 0.908999 -0.00180463
-0.419144 0.907908 -0.00456754
-0.423277 0.905985 -0.00531022
-0.420901 0.907105 -0.00149856
0.878284 0.437724 -0.19239
0.750234 0.358025 -0.555848
-0.500465 -0.23646 0.832839
-0.175002 -0.0821938 0.981131
0.179303 0.0756211 0.980883
0.51053 0.215565 0.832401
0.764692 0.326358 0.555641
0.894058 0.404535 0.192384
-0.382391 0.923998 0.00238469
-0.381801 0.924218 0.0069949
-0.375251 0.926909 0.005169
-0.372204 0.92815 0.00150276
-0.372232 0.928137 -0.00205536
-0.375261 0.926902 -0.0055959
-0.381667 0.924271 -0.00732224
-0.382148 0.924097 -0.00276421
0.894197 0.404248 -0.192341
0.764843 0.326237 -0.555504
-0.510578 -0.21475 0.832582
-0.178576 -0.0746064 0.981093
0.18253 0.0682039 0.980832
0.519378 0.194762 0.832055
0.777263 0.296031 0.555183
0.907807 0.372691 0.192323
-0.348362 0.937348 0.00482897
-0.340319 0.940261 0.00959008
-0.330607 0.943748 0.00618091
-0.326868 0.945068 0.00169351
-0.326908 0.945054 -0.00222221
-0.330614 0.943744 -0.00652417
-0.340137 0.940325 -0.00981223
-0.348158 0.937422 -0.00514903
0.908057 0.372107 -0.192274
0.77744 0.29584 -0.555037
-0.519431 -0.193863 0.832231
-0.181737 -0.0673085 0.981041
0.18532 0.0613302 0.980762
0.526929 0.175551 0.831581
0.787852 0.267853 0.554567
0.920173 0.341065 0.19224
-0.323575 0.946157 0.0092697
-0.298794 0.954236 0.0124786
-0.285148 0.958459 0.00689899
-0.280824 0.959758 0.00175579
-0.280879 0.959741 -0.00226046
-0.285149 0.958457 -0.00713934
-0.29856 0.954308 -0.0125804
-0.323481 0.946187 -0.00953694
0.920513 0.340173 -0.192192
0.78806 0.267549 -0.554418
-0.527002 -0.174502 0.831756
-0.184482 -0.0605807 0.980967
0.187651 0.0554674 0.980668
0.533103 0.15921 0.830935
0.796426 0.242923 0.5538
0.932199 0.306716 0.192172
-0.313272 0.949515 0.0167772
-0.256338 0.966469 0.0151252
-0.23849 0.971119 0.00710323
-0.233786 0.972287 0.00167632
-0.233863 0.972267 -0.00213978
-0.238491 0.971118 -0.00720873
-0.256049 0.966546 -0.0150796
-0.313349 0.949486 -0.0169916
0.932608 0.305491 -0.192139
0.796671 0.242422 -0.553666
-0.533219 -0.157883 0.831114
-0.186806 -0.0549019 0.980862
0.189376 0.0515942 0.980548
0.53751 0.148452 0.830087
0.80251 0.223864 0.553048
0.945655 0.262098 0.192461
-0.310981 0.950037 0.0268444
-0.209263 0.977718 0.0166279
-0.188625 0.982025 0.00690963
-0.183857 0.982952 0.00163132
-0.183957 0.982932 -0.00195423
-0.188638 0.982023 -0.0068178
-0.208963 0.977786 -0.0164246
-0.311206 0.949959 -0.0269959
0.946067 0.260609 -0.192458
0.802792 0.223057 -0.552965
-0.537722 -0.146554 0.830287
-0.188611 -0.0512352 0.980714
0.189877 0.0513318 0.980465
0.538403 0.149428 0.829333
0.802962 0.223569 0.552511
0.962622 0.188496 0.194495
-0.248032 0.968136 0.0345227
-0.14272 0.989568 0.0196747
-0.124812 0.99213 0.00998344
-0.120501 0.992708 0.00327349
-0.120483 0.992712 -0.00267611
-0.124771 0.992139 -0.00959592
-0.142861 0.989543 -0.019864
-0.248755 0.967937 -0.0349049
0.963129 0.185934 -0.194452
0.803337 0.222098 -0.55256
-0.538885 -0.146141 0.829606
-0.189364 -0.0511809 0.980572
0.188836 0.0466614 0.980899
0.536839 0.135607 0.832715
0.806106 0.193875 0.559111
0.974853 0.109637 0.194013
0.979243 0.0382535 -0.199047
0.827523 0.0678384 -0.557318
-0.552112 -0.0552559 0.831937
-0.193846 -0.020407 0.98082
0.193805 0.0204784 0.980826
0.552094 0.0555435 0.83193
0.827491 0.068274 0.557313
0.979213 0.0384619 0.199156
0.974968 0.108918 -0.19384
0.806506 0.192358 -0.559059
-0.537634 -0.132166 0.832756
-0.188519 -0.0468995 0.980949
0.189387 0.0407164 0.981058
0.538849 0.118254 0.834061
0.810914 0.166002 0.561126
0.971281 0.133032 0.197271
0.97734 0.0609885 -0.202699
0.825558 0.0637322 -0.560707
-0.550825 -0.0532274 0.832922
-0.193328 -0.0197642 0.980935
0.193531 0.02042 0.980882
0.550846 0.0528377 0.832932
0.825494 0.0636182 0.560814
0.977323 0.0607049 0.202866
0.971452 0.132138 -0.197028
0.811266 0.164841 -0.560959
-0.539613 -0.115467 0.833958
-0.18895 -0.0414144 0.981113
0.185161 0.0463421 0.981615
0.523729 0.144019 0.839623
0.784495 0.225732 0.577592
0.965219 0.162397 0.204888
0.972608 -0.0224334 -0.231366
0.818323 0.0109431 -0.574655
-0.546353 -0.0312247 0.836972
-0.191611 -0.0120394 0.981397
0.191855 0.0141008 0.981322
0.545904 0.027535 0.837395
0.818208 0.00997018 0.574836
0.972699 -0.0210907 0.231108
0.965587 0.160775 -0.204434
0.785381 0.223458 -0.577272
-0.527045 -0.135975 0.838889
-0.184445 -0.0481767 0.981661
0.000866379 0.00676148 0.999977
0.00408152 0.000544941 0.999992
</DataArray>
<DataArray type="Float64" Name="cell vector length" format="ascii">
0.147996 0.145052 0.129334 0.0914034 0.125695 0.148784 0.143744 0.139106 0.138891 0.143289 0.149335 0.125801 0.0909843 0.128088 0.154542 0.153272 0.416876 0.393118 0.354427 0.327149 0.354584 0.389984 0.403207 0.40242 0.401449 0.400492 0.38976 0.354785 0.327649 0.355333 0.400919 0.419495 0.526278 0.496997 0.440017 0.398885 0.448093 0.497064 0.508435 0.506381 0.505679 0.506274 0.497002 0.44843 0.399507 0.440605 0.502283 0.527774 0.56547 0.528759 0.445704 0.241194 0.139617 0.417326 0.55082 0.603905 0.603919 0.551058 0.416898 0.139464 0.241654 0.446046 0.533575 0.566754 0.58963 0.545578 0.441715 0.227553 0.113588 0.400841 0.541225 0.596656 0.59656 0.540984 0.40041 0.113269 0.227948 0.441889 0.550243 0.590802 0.603877 0.553955 0.436748 0.209498 0.110351 0.396557 0.538478 0.594853 0.594767 0.53825 0.396118 0.109875 0.20991 0.436869 0.558805 0.605077 0.613032 0.559315 0.433727 0.19501 0.114095 0.395244 0.53697 0.593859 0.593785 0.536763 0.394817 0.113532 0.195453 0.433849 0.564551 0.61433 0.619181 0.562969 0.431766 0.18415 0.119894 0.395192 0.535934 0.593057 0.59299 0.535739 0.39478 0.119296 0.184624 0.431915 0.568687 0.620609 0.623375 0.565409 0.430276 0.176141 0.125406 0.395791 0.535282 0.592433 0.592371 0.535095 0.395389 0.124774 0.17667 0.430462 0.571657 0.624946 0.626223 0.566947 0.429005 0.171262 0.128401 0.396153 0.5349 0.592031 0.591973 0.534718 0.395758 0.127753 0.171836 0.429235 0.573746 0.627945 0.628109 0.567798 0.427745 0.166423 0.132475 0.39736 0.534921 0.591823 0.591767 0.53474 0.396965 0.131796 0.167059 0.428023 0.575159 0.629988 0.629343 0.568157 0.426394 0.162217 0.13616 0.398708 0.535206 0.591833 0.59178 0.535025 0.398315 0.135456 0.162911 0.426722 0.576078 0.63138 0.630147 0.568158 0.424897 0.15847 0.139417 0.400141 0.535785 0.592136 0.592088 0.535607 0.399752 0.138687 0.159226 0.425277 0.576632 0.632342 0.6307 0.56792 0.423155 0.1546 0.143035 0.402214 0.537072 0.593104 0.593058 0.536892 0.401821 0.142269 0.155424 0.423589 0.57694 0.633054 0.631082 0.567638 0.42155 0.151541 0.153947 0.409558 0.542653 0.597921 0.597874 0.542471 0.409168 0.153167 0.152411 0.422039 0.577188 0.633594 0.631296 0.567362 0.420255 0.14398 0.185211 0.433255 0.56096 0.613942 0.613897 0.560775 0.432867 0.184411 0.144924 0.420793 0.577406 0.633957 0.631311 0.566866 0.418851 0.142028 0.193719 0.439173 0.565689 0.618134 0.618085 0.565488 0.438773 0.192905 0.143018 0.419431 0.57737 0.634113 0.631017 0.566077 0.417296 0.139745 0.194606 0.439876 0.566401 0.618824 0.618771 0.566188 0.439463 0.19376 0.140787 0.417915 0.577019 0.633955 0.630367 0.565093 0.416009 0.138415 0.194515 0.439905 0.566677 0.61918 0.619125 0.566456 0.439482 0.193652 0.139487 0.416663 0.57645 0.633438 0.629367 0.563908 0.414888 0.137773 0.193957 0.439778 0.566956 0.619591 0.619535 0.566727 0.439352 0.193071 0.138884 0.41557 0.575658 0.632568 0.627947 0.562452 0.413874 0.137869 0.192849 0.439548 0.567313 0.620128 0.620069 0.567075 0.43912 0.191962 0.138991 0.414582 0.574573 0.631272 0.625965 0.560617 0.412957 0.13888 0.191044 0.439236 0.567795 0.620806 0.620744 0.567546 0.438806 0.190171 0.139998 0.413693 0.573092 0.629413 0.623206 0.558243 0.412152 0.141121 0.188356 0.438886 0.568456 0.62164 0.62157 0.56819 0.438456 0.187491 0.142247 0.41292 0.571068 0.626779 0.619353 0.555114 0.411507 0.145093 0.184595 0.438613 0.569354 0.622629 0.622548 0.569064 0.438183 0.183772 0.146191 0.412323 0.568299 0.623061 0.613954 0.550945 0.411143 0.15152 0.179664 0.438638 0.570558 0.623762 0.623664 0.570235 0.438206 0.178892 0.152589 0.412025 0.564525 0.61782 0.606295 0.545337 0.411294 0.161277 0.173913 0.439371 0.572171 0.625055 0.624936 0.57181 0.438947 0.173233 0.162285 0.412265 0.559378 0.610358 0.594942 0.537438 0.41217 0.174566 0.169485 0.441815 0.574574 0.626775 0.626633 0.574176 0.441413 0.168925 0.175492 0.413247 0.552049 0.599275 0.575551 0.523483 0.411607 0.185437 0.175782 0.450094 0.58017 0.630961 0.630836 0.579829 0.449799 0.175436 0.18622 0.412791 0.538895 0.580293 0.528998 0.481775 0.386674 0.147869 0.240994 0.492395 0.606229 0.652701 0.653334 0.608547 0.492125 0.24079 0.148593 0.387942 0.498861 0.534499 0.493028 0.449542 0.375982 0.321515 0.376985 0.436791 0.470048 0.471179 0.465149 0.454005 0.435085 0.377478 0.322494 0.377399 0.468031 0.499071 0.44488 0.403299 0.344152 0.30172 0.327149 0.374874 0.419702 0.422725 0.415117 0.398266 0.373399 0.327514 0.302454 0.345575 0.42304 0.451434 0.215624 0.172919 0.115289 0.0758879 0.114842 0.180044 0.241954 0.254285 0.248714 0.224372 0.181113 0.115863 0.0761695 0.114099 0.191511 0.221404 0.0430026 0.0151589 
</DataArray>
<DataArray type="Float64" Name="cell variable 4" format="ascii">
837.592 841.552 845.609 840.636 854.559 850.09 840.091 835.316 834.745 838.789 850.448 854.543 840.221 843.765 846.929 839.43 1123.92 1115.51 1109.54 1113.22 1129.57 1129.5 1129.25 1125.86 1124.5 1124.98 1129.56 1129.59 1113.11 1109.56 1127.84 1127.96 1339.69 1330.36 1321.51 1320.74 1354.98 1360.54 1364.65 1362.31 1360.62 1359.1 1360.59 1355.17 1321.01 1321.77 1343.53 1343.59 1400.22 1390.55 1381 1369.51 1643.45 2445.74 3171.6 3592.83 3591.33 3168.48 2443.86 1642.91 1369.68 1381.2 1404.47 1404.27 1419.73 1409.19 1399.98 1391.18 1650.67 2435.47 3163.88 3588.89 3587.75 3161.37 2433.64 1649.84 1391.3 1400.14 1423.7 1423.89 1424.83 1410.61 1397.06 1389.23 1662.15 2429.15 3152.97 3579.79 3578.85 3150.84 2427.43 1661.18 1389.39 1397.23 1425.96 1429.19 1426.19 1409.12 1392.45 1384.36 1675.86 2427.99 3143.86 3570.45 3569.64 3141.98 2426.37 1674.84 1384.55 1392.63 1425.66 1430.9 1426.55 1407.27 1388.35 1379.66 1688.84 2430.13 3137.04 3561.75 3561.02 3135.33 2428.58 1687.8 1379.89 1388.55 1425.25 1431.69 1426.65 1405.49 1384.69 1375.37 1699.32 2433.52 3132.37 3554.41 3553.77 3130.84 2431.99 1698.2 1375.61 1384.92 1425.04 1432.28 1426.65 1403.8 1381.4 1371.54 1704.08 2434.75 3128.91 3548.75 3548.18 3127.5 2433.27 1702.95 1371.81 1381.66 1424.97 1432.79 1426.49 1402.12 1378.47 1368.17 1710.63 2438.65 3127.49 3544.48 3543.97 3126.2 2437.19 1709.44 1368.47 1378.75 1424.9 1433.15 1426.24 1400.48 1375.83 1365.18 1716.18 2442.52 3127.19 3541.64 3541.17 3125.98 2441.06 1714.94 1365.49 1376.13 1424.86 1433.43 1425.95 1398.85 1373.28 1362.3 1720.42 2445.82 3127.8 3540.36 3539.93 3126.68 2444.36 1719.13 1362.62 1373.59 1424.8 1433.67 1425.57 1397.16 1370.59 1358.9 1723.51 2448.45 3129.06 3540.43 3540.05 3128.01 2446.98 1722.15 1359.22 1370.92 1424.63 1433.81 1424.63 1395.24 1368.26 1356.55 1725.46 2450.08 3130.4 3541.13 3540.76 3129.4 2448.62 1724.1 1356.89 1368.59 1424.15 1433.38 1423.23 1393.23 1366.56 1355.93 1756.83 2503.77 3198.94 3618.14 3617.78 3197.94 2502.23 1755.36 1356.27 1366.9 1423.51 1432.47 1422.32 1391.57 1364.74 1354.28 1756.52 2502.71 3198.41 3617.77 3617.37 3197.33 2501.09 1755.01 1354.63 1365.09 1423.11 1432.03 1421.83 1390.23 1362.93 1352.04 1756.64 2502.49 3199.13 3619.25 3618.83 3198.01 2500.82 1755.09 1352.4 1363.29 1422.94 1431.98 1421.23 1388.97 1361.56 1350.76 1756.44 2502.18 3200.18 3621.64 3621.23 3199.1 2500.5 1754.87 1351.12 1361.92 1422.77 1431.8 1420.53 1387.79 1360.48 1349.93 1755.52 2501.48 3201.5 3624.88 3624.49 3200.46 2499.79 1753.9 1350.3 1360.87 1422.61 1431.5 1419.76 1386.69 1359.65 1349.45 1753.48 2500.2 3203.25 3629.16 3628.77 3202.24 2498.53 1751.88 1349.83 1360.05 1422.43 1431.09 1418.95 1385.69 1359.08 1349.33 1749.98 2498.27 3205.64 3634.6 3634.19 3204.62 2496.63 1748.45 1349.73 1359.49 1422.26 1430.61 1418.12 1384.84 1358.82 1349.64 1744.58 2495.71 3208.97 3641.46 3641.01 3207.9 2494.06 1743.05 1350.02 1359.25 1422.17 1430.1 1417.28 1384.17 1358.98 1350.46 1736.76 2492.76 3213.68 3649.89 3649.36 3212.51 2491.15 1735.35 1350.83 1359.41 1422.17 1429.54 1416.37 1383.75 1359.69 1351.83 1726.01 2490.07 3220.33 3659.9 3659.24 3218.99 2488.52 1724.74 1352.18 1360.12 1422.35 1428.88 1415.14 1383.5 1361.04 1353.57 1712.22 2488.88 3229.46 3671.29 3670.42 3227.85 2487.39 1711.16 1353.9 1361.46 1422.62 1427.87 1411.88 1382.17 1362.14 1353.87 1696.5 2491.19 3241.39 3683.57 3682.44 3239.48 2489.8 1695.68 1354.13 1362.52 1421.66 1424.79 1396.71 1369.95 1353.42 1340.97 1683.33 2500.35 3256.22 3696.28 3694.86 3253.99 2499.05 1682.76 1341.11 1353.69 1409.29 1409.62 1316.78 1290.28 1271.32 1249.26 1689.76 2529.74 3282.74 3718.91 3717.18 3280.01 2528.5 1689.46 1249.4 1271.37 1327.11 1328.98 1246.12 1218.42 1196.86 1183.56 1211.62 1221.35 1256.14 1255.09 1246.45 1230.15 1221.44 1211.9 1183.84 1196.93 1253.24 1257.76 1114.24 1085.79 1061.39 1048.56 1054.56 1060.21 1099.14 1096.58 1086.32 1068.2 1060.08 1054.68 1048.66 1061.63 1116.61 1124.72 791.205 779.702 774.402 775.931 791.946 811.553 856.198 865.964 859.405 836.18 812.78 792.212 775.9 772.849 798.127 796.8 613.975 744.351 
</DataArray>
<DataArray type="Float64" Name="cell variable 5" format="ascii">
0.00604606 0.00604606 0.00604606 0.00604606 0.00604606 0.00604606 0.00604606 0.00604606 0.00604606 0.00604606 0.00604606 0.00604606 0.00604606 0.00604606 0.00604606 0.00604606 0.00604606 0.00604606 0.00604606 0.00604606 0.00604606 0.00604606 0.00604606 0.00604606 0.00604606 0.00604606 0.00604606 0.00604606 0.00604606 0.00604606 0.00604606 0.00604606 0.00604606 0.00604606 0.00604606 0.00604606 0.00604606 0.00604606 0.00604606 0.00604606 0.00604606 0.00604606 0.00604606 0.00604606 0.00604606 0.00604606 0.00604606 0.00604606 0.00913761 0.00845911 0.0073641 0.00632014 0.00604606 0.00604606 0.00604606 0.00604606 0.00604606 0.00604606 0.00604606 0.00604606 0.00632014 0.0073641 0.00845911 0.00913761 0.0103388 0.00939692 0.007876 0.00642629 0.00604606 0.00604606 0.00604606 0.00604606 0.00604606 0.00604606 0.00604606 0.00604606 0.00642629 0.007876 0.00939692 0.0103388 0.0110347 0.00994106 0.00817293 0.00648809 0.00604606 0.00604606 0.00604606 0.00604606 0.00604606 0.00604606 0.00604606 0.00604606 0.00648809 0.00817293 0.00994106 0.0110347 0.0115413 0.0103347 0.00838924 0.00653377 0.00604606 0.00604606 0.00604606 0.00604606 0.00604606 0.00604606 0.00604606 0.00604606 0.00653377 0.00838924 0.0103347 0.0115413 0.0119363 0.0106437 0.00855719 0.0065687 0.00604606 0.00604606 0.00604606 0.00604606 0.00604606 0.00604606 0.00604606 0.00604606 0.0065687 0.00855719 0.0106437 0.0119363 0.0122547 0.0108923 0.00869289 0.00659692 0.00604606 0.00604606 0.00604606 0.00604606 0.00604606 0.00604606 0.00604606 0.00604606 0.00659692 0.00869289 0.0108923 0.0122547 0.0125153 0.0110952 0.0088044 0.00661976 0.00604606 0.00604606 0.00604606 0.00604606 0.00604606 0.00604606 0.00604606 0.00604606 0.00661976 0.0088044 0.0110952 0.0125153 0.0127263 0.0112604 0.00889442 0.00663857 0.00604606 0.00604606 0.00604606 0.00604606 0.00604606 0.00604606 0.00604606 0.00604606 0.00663857 0.00889442 0.0112604 0.0127263 0.0128956 0.0113935 0.00896697 0.00665335 0.00604606 0.00604606 0.00604606 0.00604606 0.00604606 0.00604606 0.00604606 0.00604606 0.00665335 0.00896697 0.0113935 0.0128956 0.0130272 0.0114956 0.00902206 0.00666544 0.00604606 0.00604606 0.00604606 0.00604606 0.00604606 0.00604606 0.00604606 0.00604606 0.00666544 0.00902206 0.0114956 0.0130272 0.013124 0.0115708 0.00906371 0.0066735 0.00604606 0.00604606 0.00604606 0.00604606 0.00604606 0.00604606 0.00604606 0.00604606 0.0066735 0.00906371 0.0115708 0.013124 0.0131885 0.0116205 0.00909058 0.00668022 0.00604606 0.00604606 0.00604606 0.00604606 0.00604606 0.00604606 0.00604606 0.00604606 0.00668022 0.00909058 0.0116205 0.0131885 0.0132194 0.011646 0.00910402 0.00668291 0.00604606 0.00604606 0.00604606 0.00604606 0.00604606 0.00604606 0.00604606 0.00604606 0.00668291 0.00910402 0.011646 0.0132194 0.0132194 0.011646 0.00910402 0.00668291 0.00604606 0.00604606 0.00604606 0.00604606 0.00604606 0.00604606 0.00604606 0.00604606 0.00668291 0.00910402 0.011646 0.0132194 0.0131885 0.0116205 0.00909058 0.00668022 0.00604606 0.00604606 0.00604606 0.00604606 0.00604606 0.00604606 0.00604606 0.00604606 0.00668022 0.00909058 0.0116205 0.0131885 0.013124 0.0115708 0.00906371 0.0066735 0.00604606 0.00604606 0.00604606 0.00604606 0.00604606 0.00604606 0.00604606 0.00604606 0.0066735 0.00906371 0.0115708 0.013124 0.0130272 0.0114956 0.00902206 0.00666544 0.00604606 0.00604606 0.00604606 0.00604606 0.00604606 0.00604606 0.00604606 0.00604606 0.00666544 0.00902206 0.0114956 0.0130272 0.0128956 0.0113935 0.00896697 0.00665335 0.00604606 0.00604606 0.00604606 0.00604606 0.00604606 0.00604606 0.00604606 0.00604606 0.00665335 0.00896697 0.0113935 0.0128956 0.0127263 0.0112604 0.00889442 0.00663857 0.00604606 0.00604606 0.00604606 0.00604606 0.00604606 0.00604606 0.00604606 0.00604606 0.00663857 0.00889442 0.0112604 0.0127263 0.0125153 0.0110952 0.0088044 0.00661976 0.00604606 0.00604606 0.00604606 0.00604606 0.00604606 0.00604606 0.00604606 0.00604606 0.00661976 0.0088044 0.0110952 0.0125153 0.0122547 0.0108923 0.00869289 0.00659692 0.00604606 0.00604606 0.00604606 0.00604606 0.00604606 0.00604606 0.00604606 0.00604606 0.00659692 0.00869289 0.0108923 0.0122547 0.0119363 0.0106437 0.00855719 0.0065687 0.00604606 0.00604606 0.00604606 0.00604606 0.00604606 0.00604606 0.00604606 0.00604606 0.0065687 0.00855719 0.0106437 0.0119363 0.0115413 0.0103347 0.00838924 0.00653377 0.00604606 0.00604606 0.00604606 0.00604606 0.00604606 0.00604606 0.00604606 0.00604606 0.00653377 0.00838924 0.0103347 0.0115413 0.0110347 0.00994106 0.00817293 0.00648809 0.00604606 0.00604606 0.00604606 0.00604606 0.00604606 0.00604606 0.00604606 0.00604606 0.00648809 0.00817293 0.00994106 0.0110347 0.0103388 0.00939692 0.007876 0.00642629 0.00604606 0.00604606 0.00604606 0.00604606 0.00604606 0.00604606 0.00604606 0.00604606 0.00642629 0.007876 0.00939692 0.0103388 0.00913761 0.00845911 0.0073641 0.00632014 0.00604606 0.00604606 0.00604606 0.00604606 0.00604606 0.00604606 0.00604606 0.00604606 0.00632014 0.0073641 0.00845911 0.00913761 0.00604606 0.00604606 0.00604606 0.00604606 0.00604606 0.00604606 0.00604606 0.00604606 0.00604606 0.00604606 0.00604606 0.00604606 0.00604606 0.00604606 0.00604606 0.00604606 0.00604606 0.00604606 0.00604606 0.00604606 0.00604606 0.00604606 0.00604606 0.00604606 0.00604606 0.00604606 0.00604606 0.00604606 0.00604606 0.00604606 0.00604606 0.00604606 0.00604606 0.00604606 0.00604606 0.00604606 0.00604606 0.00604606 0.00604606 0.00604606 0.00604606 0.00604606 0.00604606 0.00604606 0.00604606 0.00604606 0.00604606 0.00604606 0.00604606 0.00604606 
</DataArray>
<DataArray type="Float64" Name="cell variable 6" format="ascii">
1 1 1 1 1 1 1 1 1 1 1 1 1 1 1 1 1 1 1 1 1 1 1 1 1 1 1 1 1 1 1 1 1 1 1 1 1 1 1 1 1 1 1 1 1 1 1 1 1 1 1 1 1 1 1 1 1 1 1 1 1 1 1 1 1 1 1 1 1 1 1 1 1 1 1 1 1 1 1 1 1 1 1 1 1 1 1 1 1 1 1 1 1 1 1 1 1 1 1 1 1 1 1 1 1 1 1 1 1 1 1 1 1 1 1 1 1 1 1 1 1 1 1 1 1 1 1 1 1 1 1 1 1 1 1 1 1 1 1 1 1 1 1 1 1 1 1 1 1 1 1 1 1 1 1 1 1 1 1 1 1 1 1 1 1 1 1 1 1 1 1 1 1 1 1 1 1 1 1 1 1 1 1 1 1 1 1 1 1 1 1 1 1 1 1 1 1 1 1 1 1 1 1 1 1 1 1 1 1 1 1 1 1 1 1 1 1 1 1 1 1 1 1 1 1 1 1 1 1 1 1 1 1 1 1 1 1 1 1 1 1 1 1 1 1 1 1 1 1 1 1 1 1 1 1 1 1 1 1 1 1 1 1 1 1 1 1 1 1 1 1 1 1 1 1 1 1 1 1 1 1 1 1 1 1 1 1 1 1 1 1 1 1 1 1 1 1 1 1 1 1 1 1 1 1 1 1 1 1 1 1 1 1 1 1 1 1 1 1 1 1 1 1 1 1 1 1 1 1 1 1 1 1 1 1 1 1 1 1 1 1 1 1 1 1 1 1 1 1 1 1 1 1 1 1 1 1 1 1 1 1 1 1 1 1 1 1 1 1 1 1 1 1 1 1 1 1 1 1 1 1 1 1 1 1 1 1 1 1 1 1 1 1 1 1 1 1 1 1 1 1 1 1 1 1 1 1 1 1 1 1 1 1 1 1 1 1 1 1 1 1 1 1 1 1 1 1 1 1 1 1 1 1 1 1 1 1 1 1 1 1 1 1 1 1 1 1 1 1 1 1 1 1 1 1 1 1 1 1 1 1 1 1 1 1 1 1 1 1 1 1 1 1 1 1 1 1 1 1 1 1 1 1 1 1 1 1 1 1 1 1 1 1 1 1 1 1 1 1 1 1 1 1 1 1 1 1 1 1 1 1 1 1 1 
</DataArray>
<DataArray type="Float64" Name="cell variable 7" format="ascii">
0 0 0 0 0 0 0 0 0 0 0 0 0 0 0 0 0 0 0 0 0 0 0 0 0 0 0 0 0 0 0 0 0 0 0 0 0 0 0 0 0 0 0 0 0 0 0 0 0 0 0 0 0 0 0 0 0 0 0 0 0 0 0 0 0 0 0 0 0 0 0 0 0 0 0 0 0 0 0 0 0 0 0 0 0 0 0 0 0 0 0 0 0 0 0 0 0 0 0 0 0 0 0 0 0 0 0 0 0 0 0 0 0 0 0 0 0 0 0 0 0 0 0 0 0 0 0 0 0 0 0 0 0 0 0 0 0 0 0 0 0 0 0 0 0 0 0 0 0 0 0 0 0 0 0 0 0 0 0 0 0 0 0 0 0 0 0 0 0 0 0 0 0 0 0 0 0 0 0 0 0 0 0 0 0 0 0 0 0 0 0 0 0 0 0 0 0 0 0 0 0 0 0 0 0 0 0 0 0 0 0 0 0 0 0 0 0 0 0 0 0 0 0 0 0 0 0 0 0 0 0 0 0 0 0 0 0 0 0 0 0 0 0 0 0 0 0 0 0 0 0 0 0 0 0 0 0 0 0 0 0 0 0 0 0 0 0 0 0 0 0 0 0 0 0 0 0 0 0 0 0 0 0 0 0 0 0 0 0 0 0 0 0 0 0 0 0 0 0 0 0 0 0 0 0 0 0 0 0 0 0 0 0 0 0 0 0 0 0 0 0 0 0 0 0 0 0 0 0 0 0 0 0 0 0 0 0 0 0 0 0 0 0 0 0 0 0 0 0 0 0 0 0 0 0 0 0 0 0 0 0 0 0 0 0 0 0 0 0 0 0 0 0 0 0 0 0 0 0 0 0 0 0 0 0 0 0 0 0 0 0 0 0 0 0 0 0 0 0 0 0 0 0 0 0 0 0 0 0 0 0 0 0 0 0 0 0 0 0 0 0 0 0 0 0 0 0 0 0 0 0 0 0 0 0 0 0 0 0 0 0 0 0 0 0 0 0 0 0 0 0 0 0 0 0 0 0 0 0 0 0 0 0 0 0 0 0 0 0 0 0 0 0 0 0 0 0 0 0 0 0 0 0 0 0 0 0 0 0 0 0 0 0 0 0 0 0 0 0 0 0 0 0 0 0 0 0 0 0 0 0 0 1 1 
</DataArray>
<DataArray type="Float64" Name="cell variable 8" format="ascii">
11.25 33.75 56.25 78.75 101.25 123.75 146.25 168.75 191.25 213.75 236.25 258.75 281.25 303.75 326.25 348.75 11.25 33.75 56.25 78.75 101.25 123.75 146.25 168.75 191.25 213.75 236.25 258.75 281.25 303.75 326.25 348.75 11.25 33.75 56.25 78.75 101.25 123.75 146.25 168.75 191.25 213.75 236.25 258.75 281.25 303.75 326.25 348.75 11.25 33.75 56.25 78.75 101.25 123.75 146.25 168.75 191.25 213.75 236.25 258.75 281.25 303.75 326.25 348.75 11.25 33.75 56.25 78.75 101.25 123.75 146.25 168.75 191.25 213.75 236.25 258.75 281.25 303.75 326.25 348.75 11.25 33.75 56.25 78.75 101.25 123.75 146.25 168.75 191.25 213.75 236.25 258.75 281.25 303.75 326.25 348.75 11.25 33.75 56.25 78.75 101.25 123.75 146.25 168.75 191.25 213.75 236.25 258.75 281.25 303.75 326.25 348.75 11.25 33.75 56.25 78.75 101.25 123.75 146.25 168.75 191.25 213.75 236.25 258.75 281.25 303.75 326.25 348.75 11.25 33.75 56.25 78.75 101.25 123.75 146.25 168.75 191.25 213.75 236.25 258.75 281.25 303.75 326.25 348.75 11.25 33.75 56.25 78.75 101.25 123.75 146.25 168.75 191.25 213.75 236.25 258.75 281.25 303.75 326.25 348.75 11.25 33.75 56.25 78.75 101.25 123.75 146.25 168.75 191.25 213.75 236.25 258.75 281.25 303.75 326.25 348.75 11.25 33.75 56.25 78.75 101.25 123.75 146.25 168.75 191.25 213.75 236.25 258.75 281.25 303.75 326.25 348.75 11.25 33.75 56.25 78.75 101.25 123.75 146.25 168.75 191.25 213.75 236.25 258.75 281.25 303.75 326.25 348.75 11.25 33.75 56.25 78.75 101.25 123.75 146.25 168.75 191.25 213.75 236.25 258.75 281.25 303.75 326.25 348.75 11.25 33.75 56.25 78.75 101.25 123.75 146.25 168.75 191.25 213.75 236.25 258.75 281.25 303.75 326.25 348.75 11.25 33.75 56.25 78.75 101.25 123.75 146.25 168.75 191.25 213.75 236.25 258.75 281.25 303.75 326.25 348.75 11.25 33.75 56.25 78.75 101.25 123.75 146.25 168.75 191.25 213.75 236.25 258.75 281.25 303.75 326.25 348.75 11.25 33.75 56.25 78.75 101.25 123.75 146.25 168.75 191.25 213.75 236.25 258.75 281.25 303.75 326.25 348.75 11.25 33.75 56.25 78.75 101.25 123.75 146.25 168.75 191.25 213.75 236.25 258.75 281.25 303.75 326.25 348.75 11.25 33.75 56.25 78.75 101.25 123.75 146.25 168.75 191.25 213.75 236.25 258.75 281.25 303.75 326.25 348.75 11.25 33.75 56.25 78.75 101.25 123.75 146.25 168.75 191.25 213.75 236.25 258.75 281.25 303.75 326.25 348.75 11.25 33.75 56.25 78.75 101.25 123.75 146.25 168.75 191.25 213.75 236.25 258.75 281.25 303.75 326.25 348.75 11.25 33.75 56.25 78.75 101.25 123.75 146.25 168.75 191.25 213.75 236.25 258.75 281.25 303.75 326.25 348.75 11.25 33.75 56.25 78.75 101.25 123.75 146.25 168.75 191.25 213.75 236.25 258.75 281.25 303.75 326.25 348.75 11.25 33.75 56.25 78.75 101.25 123.75 146.25 168.75 191.25 213.75 236.25 258.75 281.25 303.75 326.25 348.75 11.25 33.75 56.25 78.75 101.25 123.75 146.25 168.75 191.25 213.75 236.25 258.75 281.25 303.75 326.25 348.75 11.25 33.75 56.25 78.75 101.25 123.75 146.25 168.75 191.25 213.75 236.25 258.75 281.25 303.75 326.25 348.75 11.25 33.75 56.25 78.75 101.25 123.75 146.25 168.75 191.25 213.75 236.25 258.75 281.25 303.75 326.25 348.75 11.25 33.75 56.25 78.75 101.25 123.75 146.25 168.75 191.25 213.75 236.25 258.75 281.25 303.75 326.25 348.75 11.25 33.75 56.25 78.75 101.25 123.75 146.25 168.75 191.25 213.75 236.25 258.75 281.25 303.75 326.25 348.75 11.25 33.75 56.25 78.75 101.25 123.75 146.25 168.75 191.25 213.75 236.25 258.75 281.25 303.75 326.25 348.75 11.25 33.75 56.25 78.75 101.25 123.75 146.25 168.75 191.25 213.75 236.25 258.75 281.25 303.75 326.25 348.75 0 0 
</DataArray>
</CellData>
</Piece>
</UnstructuredGrid>
</VTKFile>
