<VTKFile type="UnstructuredGrid" version="0.1">
<UnstructuredGrid>
<Piece  NumberOfPoints="    2080" NumberOfCells="     514">
<Points>
<DataArray type="Float64" NumberOfComponents="3" format="ascii">
-366.894 681.1 1.22003
-366.31 686.226 26.9839
-337.902 678.434 29.0893
-338.581 672.877 1.24235
-366.176 687.367 29.7341
-364.499 701.934 51.5136
-335.883 695.36 55.375
-337.768 679.576 31.8395
-364.261 704.036 53.6118
-361.913 725.773 68.0981
-333.027 721.007 73.1549
-335.645 697.462 57.4732
-361.634 728.514 69.2336
-359.199 754.116 74.3102
-330.128 751.507 79.9079
-332.747 723.748 74.2903
-358.94 757.084 74.3142
-356.844 782.732 69.2456
-327.691 782.307 74.4184
-329.869 754.476 79.9119
-356.633 785.482 68.1103
-355.018 807.291 53.5972
-325.769 808.655 57.5142
-327.481 785.057 73.2831
-354.863 809.398 51.4925
-353.787 823.99 29.6897
-324.439 826.531 31.8
-325.615 810.762 55.4095
-353.701 825.13 26.9369
-353.305 830.247 1.18414
-323.917 833.206 1.19028
-324.353 827.671 29.0472
-353.304 830.246 -1.79621
-353.678 825.114 -27.5467
-324.325 827.66 -29.6443
-323.915 833.205 -1.79006
-353.761 823.973 -30.299
-354.828 809.372 -52.0968
-325.572 810.74 -55.9976
-324.408 826.519 -32.3966
-354.982 807.264 -54.2006
-356.592 785.448 -68.7053
-327.435 785.026 -73.8584
-325.726 808.632 -58.1014
-356.802 782.697 -69.8394
-358.893 757.046 -74.8961
-329.818 754.443 -80.475
-327.646 782.276 -74.9926
-359.151 754.078 -74.8908
-361.587 728.478 -69.8024
-332.695 723.718 -74.8398
-330.077 751.474 -80.4697
-361.866 725.738 -68.6656
-364.204 704.011 -54.1641
-335.607 697.445 -58.0054
-332.974 720.978 -73.7031
-364.443 701.909 -52.0642
-366.124 687.357 -30.2774
-337.753 679.567 -32.3463
-335.845 695.343 -55.9056
-366.261 686.217 -27.5253
-366.893 681.1 -1.76154
-338.58 672.876 -1.73922
-337.89 678.426 -29.5942
-335.229 672.2 1.31834
-334.549 677.758 29.1652
-302.167 673.5 29.8026
-302.901 667.863 1.32593
-332.515 694.738 55.5899
-299.965 690.726 56.7998
-302.019 674.696 32.6917
-334.401 678.954 32.0544
-329.636 720.487 73.4769
-296.856 716.92 75.0722
-299.703 692.932 59.005
-332.254 696.943 57.7951
-326.719 751.123 80.2903
-293.927 748.144 82.0047
-296.558 719.796 76.2681
-329.339 723.364 74.6727
-324.277 782.074 74.802
-291.575 779.685 76.3173
-293.663 751.264 82.0099
-326.455 754.243 80.2955
-322.353 808.561 57.8364
-289.688 806.672 58.9884
-291.363 782.573 75.1206
-324.065 784.963 73.6053
-321.018 826.541 32.014
-288.328 825.004 32.646
-289.528 808.884 56.7755
-322.193 810.773 55.6235
-320.49 833.274 1.26589
-287.785 831.862 1.27626
-288.238 826.201 29.7548
-320.927 827.738 29.1228
-320.898 827.728 -29.7179
-288.213 826.187 -30.3275
-287.784 831.861 -1.8533
-320.489 833.273 -1.86367
-322.151 810.751 -56.2096
-289.488 808.861 -57.3363
-288.302 824.989 -33.2181
-320.987 826.53 -32.6085
-324.019 784.932 -74.1784
-291.317 782.542 -75.67
-289.647 806.648 -59.548
-322.31 808.538 -58.4213
-326.404 754.21 -80.8561
-293.612 751.229 -82.5448
-291.529 779.653 -76.8654
-324.232 782.043 -75.3738
-329.286 723.334 -75.2198
-296.507 719.764 -76.7878
-293.876 748.109 -82.5382
-326.668 751.09 -80.8496
-332.217 696.925 -58.3247
-299.665 692.908 -59.5118
-296.805 716.888 -75.5904
-329.584 720.458 -74.0224
-334.388 678.945 -32.5583
-302.003 674.68 -33.1787
-299.928 690.704 -57.3047
-332.48 694.721 -56.1176
-334.538 677.75 -29.6677
-335.228 672.2 -1.81264
-302.901 667.863 -1.80505
-302.154 673.485 -30.2881
-299.305 667.448 1.34828
-298.571 673.084 29.8249
-266.018 669.882 29.9668
-266.825 664.249 1.35823
-298.407 674.29 32.7556
-296.353 690.32 56.8636
-263.563 687.117 57.1494
-265.854 671.087 32.8975
-296.063 692.547 59.1034
-293.215 716.535 75.1706
-260.05 713.37 75.5899
-263.273 689.344 59.3892
-292.907 719.442 76.382
-290.276 747.79 82.1187
-257.305 744.786 82.5228
-259.741 716.277 76.8013
-290.023 750.954 82.1231
-287.936 779.374 76.4305
-255.141 776.573 76.8819
-257.052 747.95 82.5272
-287.733 782.304 75.2172
-286.058 806.403 59.0851
-253.334 803.779 59.4579
-254.938 779.503 75.6687
-285.9 808.646 56.8407
-284.701 824.766 32.7112
-251.955 822.232 32.9157
-253.175 806.022 57.2135
-284.608 825.98 29.7784
-284.155 831.64 1.29993
-251.391 829.129 1.31323
-251.862 823.445 29.983
-284.154 831.639 -1.87433
-284.584 825.965 -30.3485
-251.842 823.431 -30.5276
-251.39 829.129 -1.86102
-284.675 824.751 -33.2805
-285.861 808.623 -57.3987
-253.139 805.997 -57.7484
-251.933 822.217 -33.4596
-286.018 806.379 -59.642
-287.688 782.273 -75.7641
-254.894 779.47 -76.1925
-253.297 803.754 -59.9916
-287.89 779.343 -76.976
-289.973 750.919 -82.6553
-257.003 747.914 -83.0367
-255.096 776.54 -77.4044
-290.225 747.755 -82.6495
-292.856 719.409 -76.899
-259.691 716.242 -77.2967
-257.255 744.75 -83.0309
-293.165 716.503 -75.6863
-296.025 692.523 -59.6077
-263.233 689.317 -59.8741
-260 713.336 -76.084
-296.316 690.297 -57.3664
-298.391 674.273 -33.2405
-265.835 671.067 -33.363
-263.524 687.091 -57.6328
-298.557 673.069 -30.3085
-299.304 667.447 -1.82543
-266.824 664.248 -1.81548
-266.001 669.863 -30.431
-263.232 663.866 1.36583
-262.426 669.499 29.9744
-230.171 665.798 30.0394
-231.151 660.189 1.3751
-262.234 670.703 32.9177
-259.943 686.734 57.1696
-227.193 682.97 57.2998
-229.979 667.002 32.9826
-259.601 688.96 59.4211
-256.377 712.986 75.6219
-222.849 709.145 75.8306
-226.85 685.196 59.5514
-255.993 715.912 76.839
-253.557 744.422 82.5604
-218.359 740.479 82.7155
-222.466 712.071 77.0477
-253.223 747.591 82.5563
-251.311 776.214 76.911
-214.453 772.223 77.1099
-218.025 743.648 82.7113
-251.034 779.144 75.6925
-249.429 803.42 59.4817
-211.239 799.398 59.6601
-214.175 775.153 75.8913
-249.212 805.659 57.229
-247.992 821.869 32.9313
-208.961 817.797 33.031
-211.023 801.638 57.4074
-247.867 823.079 29.9891
-247.397 828.763 1.31931
-208.08 824.663 1.33338
-208.836 819.006 30.0888
-247.396 828.762 -1.86414
-247.847 823.065 -30.5307
-208.819 818.993 -30.6035
-208.079 824.663 -1.85008
-247.97 821.854 -33.4723
-249.177 805.635 -57.7611
-210.99 801.613 -57.9153
-208.942 817.782 -33.5451
-249.392 803.395 -60.0128
-250.99 779.111 -76.2137
-214.133 775.12 -76.3889
-211.206 799.373 -60.1671
-251.267 776.181 -77.431
-253.174 747.555 -83.0634
-217.977 743.612 -83.1963
-214.41 772.189 -77.6062
-253.507 744.386 -83.0662
-255.943 715.878 -77.332
-222.416 712.036 -77.5208
-218.31 740.442 -83.1991
-256.327 712.952 -76.1137
-259.56 688.933 -59.9038
-226.808 685.168 -60.0157
-222.8 709.111 -76.3025
-259.904 686.708 -57.6508
-262.215 670.683 -33.3811
-229.956 666.98 -33.4277
-227.152 682.942 -57.7627
-262.408 669.48 -30.4365
-263.231 663.865 -1.82097
-231.15 660.188 -1.81171
-230.15 665.777 -30.4832
-227.598 659.7 1.3787
-226.617 665.309 30.043
-194.711 660.156 30.0711
-195.897 654.604 1.389
-226.385 666.506 32.9917
-223.598 682.473 57.3089
-191.094 677.173 57.3668
-194.479 661.353 33.0198
-223.177 684.687 59.5656
-219.176 708.636 75.8449
-185.701 703.149 75.9083
-190.673 679.387 59.6235
-218.656 711.541 77.061
-214.55 739.949 82.7287
-179.595 734.209 82.7936
-185.182 706.054 77.1243
-214.037 743.102 82.7239
-210.464 771.677 77.1224
-173.895 765.702 77.1529
-179.082 737.362 82.7887
-210.022 774.594 75.9033
-207.086 798.839 59.672
-169.189 792.68 59.6986
-173.453 768.619 75.9338
-206.749 801.067 57.4163
-204.688 817.226 33.0399
-165.945 810.949 33.0625
-168.852 794.908 57.443
-204.501 818.429 30.0929
-203.745 824.087 1.33747
-164.713 817.767 1.35061
-165.757 812.152 30.1154
-203.744 824.086 -1.8512
-204.484 818.416 -30.6046
-165.742 812.14 -30.6011
-164.712 817.767 -1.83805
-204.669 817.212 -33.5512
-206.718 801.043 -57.9214
-168.823 794.885 -57.9227
-165.928 810.936 -33.5477
-207.053 798.813 -60.1763
-209.98 774.56 -76.3982
-173.413 768.587 -76.4044
-169.159 792.655 -60.1776
-210.421 771.643 -77.6162
-213.989 743.066 -83.2063
-179.035 737.326 -83.2484
-173.854 765.67 -77.6225
-214.501 739.912 -83.21
-218.607 711.506 -77.5316
-185.133 706.019 -77.5739
-179.547 734.173 -83.2521
-219.127 708.602 -76.3146
-223.134 684.659 -60.0277
-190.629 679.358 -60.0656
-185.653 703.115 -76.3569
-223.557 682.445 -57.7696
-226.362 666.483 -33.4346
-194.453 661.329 -33.4422
-191.051 677.144 -57.8074
-226.596 665.288 -30.4846
-227.597 659.699 -1.81314
-195.896 654.603 -1.80284
-194.687 660.133 -30.4922
-192.387 653.947 1.3912
-191.201 659.498 30.0733
-159.705 652.745 30.0901
-161.12 647.263 1.4025
-190.921 660.682 33.0244
-187.536 676.502 57.3714
-155.371 669.564 57.4031
-159.425 653.93 33.0412
-187.023 678.696 59.6295
-182.051 702.458 75.9143
-148.817 695.26 75.9482
-154.857 671.757 59.6612
-181.395 705.332 77.1297
-175.808 733.487 82.7989
-141.161 725.951 82.8354
-148.16 698.134 77.1636
-175.126 736.608 82.7929
-169.94 764.948 77.1571
-133.74 757.088 77.171
-140.479 729.072 82.8293
-169.337 767.837 75.936
-165.073 791.898 59.7009
-127.56 783.769 59.7099
-133.137 759.977 75.95
-164.616 794.106 57.4448
-161.708 810.147 33.0643
-123.349 801.846 33.0762
-127.103 785.977 57.4538
-161.458 811.339 30.1171
-160.414 816.955 1.35225
-121.765 808.595 1.36529
-123.099 803.038 30.1289
-160.413 816.954 -1.83679
-161.443 811.327 -30.5998
-123.086 803.027 -30.5858
-121.764 808.594 -1.82375
-161.692 810.134 -33.5467
-164.587 794.083 -57.9217
-127.077 785.955 -57.9056
-123.334 801.834 -33.5327
-165.042 791.874 -60.1771
-169.296 767.806 -76.4039
-133.099 759.946 -76.3937
-127.532 783.746 -60.161
-169.899 764.916 -77.624
-175.079 736.573 -83.25
-140.434 729.038 -83.2635
-133.701 757.057 -77.6138
-175.76 733.451 -83.2551
-181.347 705.298 -77.5768
-148.113 698.1 -77.589
-141.115 725.917 -83.2686
-182.003 702.424 -76.3605
-186.979 678.667 -60.0693
-154.812 671.728 -60.0802
-148.77 695.227 -76.3728
-187.494 676.474 -57.8098
-190.895 660.659 -33.4445
-159.397 653.905 -33.4393
-155.327 669.535 -57.8207
-191.177 659.476 -30.492
-192.385 653.945 -1.80265
-161.119 647.262 -1.79135
-159.679 652.722 -30.4867
-157.66 646.428 1.40426
-156.245 651.91 30.0919
-125.218 643.544 30.1057
-126.879 638.141 1.41615
-155.913 653.079 33.0442
-151.858 668.713 57.4061
-120.118 660.124 57.428
-124.887 644.713 33.058
-151.245 670.879 59.6648
-145.205 694.382 75.9518
-112.351 685.466 75.9765
-119.505 662.29 59.6867
-144.41 697.218 77.167
-137.41 725.035 82.8387
-103.166 715.716 82.864
-111.556 688.303 77.1918
-136.566 728.115 82.8319
-129.827 756.13 77.1736
-94.0841 746.409 77.1878
-102.322 718.797 82.8572
-129.067 758.983 75.9513
-123.49 782.775 59.7112
-86.4591 772.714 59.7204
-93.324 749.262 75.9656
-122.915 784.955 57.4549
-119.161 800.825 33.0772
-81.2893 790.543 33.0881
-85.8836 774.894 57.464
-118.848 802.002 30.1302
-117.514 807.559 1.3666
-79.3535 797.201 1.37948
-80.9766 791.72 30.141
-117.513 807.558 -1.8222
-118.835 801.991 -30.5843
-80.9644 791.709 -30.5695
-79.3528 797.2 -1.80932
-119.146 800.813 -33.531
-122.888 784.933 -57.9039
-85.8589 774.873 -57.8881
-81.2758 790.531 -33.5163
-123.463 782.752 -60.1596
-129.029 758.953 -76.3923
-93.288 749.233 -76.3826
-86.4332 772.692 -60.1438
-129.789 756.1 -77.6138
-136.521 728.081 -83.2635
-102.279 718.764 -83.2659
-94.0472 746.38 -77.6041
-137.365 725.001 -83.2695
-144.363 697.184 -77.5899
-111.509 688.269 -77.5927
-103.122 715.683 -83.2718
-145.158 694.348 -76.374
-151.2 670.849 -60.0814
-119.459 662.26 -60.0822
-112.305 685.433 -76.3768
-151.814 668.684 -57.8213
-155.885 653.054 -33.4398
-124.858 644.686 -33.4306
-120.074 660.095 -57.822
-156.219 651.886 -30.4859
-157.658 646.426 -1.79055
-126.878 638.14 -1.77865
-125.192 643.518 -30.4767
-123.475 637.128 1.41773
-121.815 642.53 30.1073
-91.322 632.567 30.12
-93.2382 627.257 1.42984
-121.428 643.681 33.0602
-116.66 659.093 57.4302
-85.4297 648.867 57.4471
-90.9357 633.718 33.0729
-115.943 661.225 59.6893
-108.789 684.401 75.9791
-76.4269 673.785 75.999
-84.7132 651 59.7062
-107.855 687.193 77.1943
-99.4648 714.607 82.8665
-65.7241 703.519 82.8859
-75.4921 676.577 77.2142
-98.4622 717.638 82.8592
-90.2243 745.251 77.1899
-55.0289 733.686 77.2036
-64.7215 706.55 82.8786
-89.3116 748.058 75.9669
-82.4467 771.51 59.7217
-45.9945 759.539 59.7316
-54.1163 736.494 75.9806
-81.7545 773.656 57.4652
-77.1602 789.305 33.0892
-39.8796 777.068 33.1
-45.3023 761.686 57.475
-76.7854 790.464 30.1423
-75.1623 795.945 1.38077
-37.5953 783.615 1.39335
-39.5048 778.227 30.1531
-75.1617 795.944 -1.80778
-76.7733 790.454 -30.568
-39.4937 778.217 -30.5538
-37.5947 783.615 -1.7952
-77.1469 789.294 -33.5146
-81.73 773.636 -57.8865
-45.2794 761.666 -57.8719
-39.8673 777.057 -33.5004
-82.421 771.489 -60.1425
-89.2758 748.029 -76.3813
-54.0825 736.466 -76.3713
-45.9705 759.519 -60.1279
-90.1876 745.221 -77.6035
-98.4191 717.605 -83.2653
-64.6806 706.518 -83.2619
-54.9942 733.658 -77.5935
-99.4213 714.574 -83.2719
-107.809 687.16 -77.5927
-75.4476 676.544 -77.5905
-65.6828 703.487 -83.2684
-108.743 684.368 -76.3769
-115.898 661.195 -60.0824
-84.6682 650.969 -60.078
-76.3823 673.752 -76.3748
-116.615 659.063 -57.8217
-121.4 643.654 -33.4303
-90.9076 633.69 -33.4197
-85.3856 648.837 -57.8174
-121.788 642.505 -30.4757
-123.474 637.127 -1.77761
-93.2368 627.256 -1.7655
-91.2962 632.54 -30.465
-89.8979 626.069 1.43132
-87.9817 631.379 30.1215
-58.0912 619.845 30.1335
-60.2675 614.641 1.44334
-87.5395 632.509 33.0747
-82.0336 647.657 57.4489
-51.3969 635.821 57.4631
-57.6491 620.975 33.0868
-81.2124 649.751 59.7083
-72.9262 672.536 76.0011
-41.1545 660.244 76.0172
-50.5758 637.914 59.7225
-71.8519 675.275 77.2161
-62.084 702.218 82.8879
-28.9477 689.384 82.9031
-40.0802 662.983 77.2323
-60.9255 705.192 82.8803
-51.233 732.328 77.2053
-16.6809 718.945 77.2169
-27.7892 692.358 82.8955
-50.1719 735.083 75.9819
-42.0502 758.129 59.7329
-6.27504 744.276 59.7424
-15.6199 721.699 75.9936
-41.2439 760.235 57.4761
-35.8211 775.617 33.1011
0.766049 761.454 33.1117
-5.46873 746.382 57.4856
-35.3852 776.754 30.1544
-33.4757 782.143 1.39462
3.39398 767.872 1.40685
1.20197 762.591 30.1649
-33.4751 782.143 -1.79372
-35.3742 776.745 -30.5524
1.21222 762.582 -30.5386
3.39454 767.872 -1.78148
-35.809 775.606 -33.4989
-41.2211 760.216 -57.8703
-5.44737 746.363 -57.8559
0.777433 761.444 -33.4851
-42.0263 758.108 -60.1266
-50.1383 735.055 -76.37
-15.5883 721.673 -76.3582
-6.25259 744.256 -60.1122
-51.1985 732.3 -77.5927
-60.8849 705.16 -83.2611
-27.7512 692.327 -83.2539
-16.6485 718.917 -77.5809
-62.0428 702.186 -83.268
-71.8077 675.243 -77.5901
-40.0382 662.951 -77.5845
-28.9091 689.353 -83.2608
-72.8817 672.503 -76.3745
-81.1677 649.72 -60.0777
-50.5323 637.883 -60.0709
-41.1123 660.211 -76.3689
-81.9896 647.627 -57.8167
-87.5115 632.48 -33.419
-57.6222 620.944 -33.408
-51.3542 635.79 -57.81
-87.9559 631.351 -30.4639
-89.8966 626.067 -1.76434
-60.2661 614.639 -1.75232
-58.0666 619.816 -30.4528
-56.9982 613.28 1.44472
-54.8219 618.484 30.1349
-25.6052 605.41 30.1461
-28.0422 600.326 1.45636
-54.3236 619.59 33.0883
-48.0715 634.436 57.4646
-18.1099 621.016 57.4768
-25.1069 606.516 33.0995
-47.1457 636.484 59.7241
-37.7244 658.813 76.0189
-6.63574 644.876 76.032
-17.1841 623.064 59.7363
-36.5119 661.494 77.2339
-25.3793 687.894 82.9047
7.0502 673.345 82.9166
-5.42324 647.557 77.247
-24.0682 690.804 82.8969
-12.9599 717.39 77.2183
20.848 702.221 77.2281
8.36139 676.254 82.9089
-11.7544 720.085 75.9947
-2.40959 742.661 59.7435
32.5892 726.96 59.7523
22.0535 704.915 76.0045
-1.49193 744.722 57.4867
4.74285 759.793 33.1127
40.5364 743.739 33.1228
33.5069 729.02 57.4955
5.23869 760.906 30.1662
7.4307 766.187 1.40809
43.501 750.01 1.42
41.0322 744.852 30.1763
7.43122 766.186 -1.78005
5.24891 760.897 -30.5372
41.0418 744.843 -30.5236
43.5015 750.009 -1.76815
4.75413 759.783 -33.4835
-1.47068 744.703 -57.8544
33.527 729.002 -57.8397
40.5471 743.729 -33.4699
-2.38732 742.642 -60.1107
-11.7231 720.058 -76.3568
22.0827 704.889 -76.3436
32.6104 726.941 -60.0961
-12.9278 717.363 -77.5798
-24.0304 690.773 -83.2528
8.39565 676.225 -83.2428
20.878 702.194 -77.5666
-25.3411 687.863 -83.26
-36.4702 661.462 -77.5837
-5.38465 647.525 -77.5757
7.08494 673.315 -83.25
-37.6824 658.781 -76.3683
-47.1024 636.453 -60.0703
-17.1427 623.033 -60.0622
-6.59684 644.844 -76.3603
-48.0289 634.404 -57.8091
-54.2969 619.559 -33.4071
-25.082 606.483 -33.3961
-18.0691 620.985 -57.8011
-54.7973 618.455 -30.4516
-56.9969 613.278 -1.75113
-28.041 600.324 -1.7395
-25.5824 605.379 -30.4406
-24.8519 598.796 1.45762
-22.4148 603.881 30.1474
6.05445 589.3 30.1571
3.35887 584.349 1.46857
-21.8606 604.959 33.1009
-14.8636 619.46 57.4782
14.3434 604.492 57.4881
6.60864 590.378 33.1106
-13.834 621.457 59.7377
-3.28566 643.268 76.0334
27.0346 627.72 76.0437
15.373 606.489 59.7477
-1.93691 645.882 77.2483
10.5365 671.67 82.9179
42.1729 655.438 82.9269
28.3833 630.333 77.2586
11.9969 674.507 82.9099
24.4835 700.474 77.2292
57.4585 683.554 77.2372
43.6333 658.275 82.9189
25.8293 703.101 76.0055
36.3651 725.146 59.7533
70.4941 707.636 59.7606
58.8044 686.181 76.0135
37.3911 727.154 57.4965
44.4206 741.873 33.1239
79.3221 723.969 33.1334
71.5201 709.644 57.5039
44.9749 742.958 30.1775
47.4437 748.116 1.42119
82.6152 730.075 1.43288
79.8764 725.054 30.187
47.4442 748.116 -1.76673
44.9845 742.949 -30.5222
79.8854 725.045 -30.5084
82.6157 730.074 -1.75505
44.4312 741.863 -33.4684
37.4111 727.136 -57.8382
71.539 709.625 -57.8226
79.332 723.959 -33.4546
36.3861 725.127 -60.0945
25.8584 703.075 -76.342
58.8313 686.154 -76.3271
70.514 707.616 -60.079
24.5131 700.447 -77.5652
12.0308 674.478 -83.2414
43.6622 658.247 -83.2282
57.486 683.527 -77.5502
10.5708 671.64 -83.2489
-1.89877 645.85 -77.5745
28.4171 630.303 -77.5639
42.2022 655.41 -83.2357
-3.24708 643.237 -76.3594
-13.7929 621.425 -60.0613
15.4124 606.456 -60.0521
27.0687 627.689 -76.3487
-14.8231 619.428 -57.8001
-21.8359 604.926 -33.3951
6.63151 590.342 -33.3842
14.3822 604.459 -57.7909
-22.3921 603.849 -30.4394
-24.8507 598.795 -1.73832
3.36003 584.348 -1.72736
6.07527 589.266 -30.4284
6.46218 582.655 1.46971
9.15776 587.606 30.1583
36.8038 571.554 30.1665
33.8545 566.751 1.48045
9.76709 588.654 33.1117
17.5019 602.767 57.4892
45.8728 586.289 57.496
37.4132 572.602 33.1199
18.6339 604.708 59.7488
30.2955 625.938 76.0449
59.7631 608.815 76.0547
47.0048 588.229 59.7556
31.7781 628.478 77.2597
45.5677 653.583 82.928
76.3235 635.71 82.9372
61.2458 611.355 77.2695
47.1735 656.34 82.9198
60.9987 681.618 77.238
93.0493 662.995 77.2424
77.9292 638.467 82.929
62.4806 684.171 76.0143
74.1703 705.626 59.7614
107.337 686.356 59.767
94.5311 665.548 76.0186
75.3012 707.578 57.5048
83.1032 721.903 33.1343
117.019 702.2 33.1438
108.468 688.307 57.5104
83.7144 722.957 30.1882
86.4532 727.978 1.43408
120.631 708.122 1.44644
117.63 703.254 30.1977
86.4536 727.977 -1.75358
83.7233 722.947 -30.507
117.637 703.241 -30.4917
120.631 708.122 -1.74122
83.1131 721.892 -33.4529
75.3201 707.558 -57.8209
108.485 688.283 -57.8025
117.027 702.186 -33.4376
74.1899 705.606 -60.0772
62.5072 684.144 -76.3252
94.555 665.517 -76.3064
107.355 686.331 -60.0587
61.0257 681.591 -77.5485
47.2019 656.312 -83.2264
77.9499 638.441 -83.2088
93.0735 662.963 -77.5297
45.5964 653.555 -83.2342
31.8112 628.448 -77.5623
61.2737 611.329 -77.5477
76.3444 635.683 -83.2165
30.3293 625.908 -76.3475
18.6729 604.675 -60.0509
47.0448 588.196 -60.0393
59.7918 608.789 -76.3329
17.5406 602.734 -57.7898
9.78988 588.618 -33.383
37.4355 572.564 -33.3712
45.9124 586.256 -57.7782
9.17853 587.571 -30.4272
6.46328 582.653 -1.72617
33.8556 566.749 -1.71543
36.8241 571.518 -30.4153
36.8623 564.896 1.48176
39.8116 569.699 30.1678
66.5534 552.205 30.1814
63.3616 547.57 1.49583
40.4746 570.713 33.1211
48.9342 584.4 57.4972
76.3768 566.436 57.5104
67.2163 553.219 33.1347
50.1665 586.278 59.7571
62.9248 606.863 76.0563
91.4399 588.177 76.0764
77.6091 568.313 59.7704
64.5405 609.322 77.2716
79.6182 633.678 82.9392
109.424 614.236 82.9738
93.0556 590.636 77.2917
81.3648 636.35 82.931
96.4849 660.878 77.2444
127.531 640.618 77.2669
111.171 616.909 82.9656
98.0979 663.35 76.02
110.904 684.157 59.7684
143.025 663.187 59.7856
129.144 643.09 76.0426
112.136 686.046 57.5117
120.687 699.939 33.1451
153.527 678.491 33.1595
144.258 665.076 57.5289
121.353 700.959 30.1991
124.354 705.827 1.44787
157.444 684.21 1.46287
154.193 679.511 30.2135
124.354 705.826 -1.73953
121.36 700.946 -30.49
154.195 679.491 -30.472
157.445 684.209 -1.72453
120.695 699.924 -33.4356
112.152 686.021 -57.8004
144.263 665.036 -57.7783
153.529 678.469 -33.4176
110.921 684.131 -60.0565
98.121 663.317 -76.3042
129.154 643.035 -76.2806
143.031 663.146 -60.0343
96.5078 660.845 -77.5275
81.3843 636.322 -83.2066
111.164 616.857 -83.1881
127.54 640.563 -77.504
79.6375 633.652 -83.2146
64.5668 609.298 -77.5459
93.0945 590.651 -77.5291
109.417 614.187 -83.1961
62.9542 606.839 -76.3313
50.2072 586.246 -60.0377
77.6667 568.301 -60.0204
91.4819 588.192 -76.3146
48.9746 584.368 -57.7767
40.4977 570.676 -33.3697
67.2472 553.193 -33.3536
76.4341 566.423 -57.7593
39.8322 569.663 -30.4139
36.8636 564.894 -1.71398
63.3629 547.568 -1.69992
66.5817 552.18 -30.3978
66.2661 545.559 1.49733
69.4579 550.194 30.1829
95.2359 531.321 30.1957
91.8063 526.862 1.51037
70.1726 551.171 33.1361
79.333 564.388 57.5118
105.786 545.012 57.5236
95.9506 532.298 33.1489
80.6608 566.197 59.7717
94.4916 586.061 76.0778
121.935 565.939 76.0954
107.113 546.821 59.7836
96.2363 588.435 77.2947
112.605 612.036 82.9768
141.311 591.088 83.0098
123.68 568.313 77.3123
114.491 614.617 82.9685
130.851 638.326 77.2699
160.791 616.466 77.2917
143.197 593.668 83.0016
132.591 640.709 76.0447
146.473 660.806 59.7877
177.45 638.177 59.8031
162.531 618.848 76.0665
147.803 662.626 57.5305
157.072 676.041 33.1611
188.741 652.896 33.1731
178.78 639.997 57.5459
157.791 677.024 30.215
161.042 681.723 1.46438
192.952 658.396 1.47735
189.459 653.879 30.2269
161.042 681.721 -1.72287
157.792 677.004 -30.4703
189.46 653.859 -30.4564
192.952 658.395 -1.7099
157.074 676.019 -33.4158
147.807 662.585 -57.7765
178.784 639.956 -57.7659
188.742 652.874 -33.4019
146.478 660.763 -60.0326
132.6 640.652 -76.2789
162.541 618.789 -76.2744
177.454 638.134 -60.022
130.86 638.268 -77.5029
114.484 614.562 -83.187
143.23 593.581 -83.1943
160.802 616.404 -77.4984
112.601 611.985 -83.1952
96.2781 588.448 -77.5281
123.773 568.29 -77.5217
141.347 591.003 -83.2024
94.5365 586.077 -76.3132
80.7212 566.186 -60.019
107.179 546.807 -60.0075
122.031 565.919 -76.3068
79.391 564.376 -57.7577
70.2042 551.146 -33.352
95.9808 532.272 -33.3396
105.848 544.997 -57.7462
69.4864 550.169 -30.3963
66.2675 545.557 -1.69837
91.8077 526.86 -1.68533
95.263 531.296 -30.3839
94.6009 524.702 1.51165
98.0305 529.161 30.197
122.793 508.983 30.2061
119.128 504.703 1.52307
98.7956 530.1 33.15
108.631 542.814 57.5247
134.048 522.106 57.5291
123.558 509.921 33.159
110.05 544.551 59.7847
124.872 563.669 76.0965
151.262 542.166 76.0991
135.467 523.844 59.7891
126.738 565.951 77.3137
144.369 588.726 83.0112
171.928 566.272 83.0083
153.128 544.449 77.3163
146.391 591.204 83.0027
163.985 614.002 77.2929
192.722 590.582 77.2833
173.95 568.751 82.9998
165.848 616.288 76.067
180.767 635.616 59.8037
210.502 611.374 59.7977
194.585 592.868 76.0575
182.191 637.363 57.5466
192.152 650.262 33.1737
222.552 625.47 33.1756
211.926 613.12 57.5405
192.921 651.205 30.228
196.414 655.723 1.47838
227.049 630.74 1.48881
223.322 626.413 30.2298
196.414 655.722 -1.70841
192.922 651.186 -30.4549
223.328 626.401 -30.4386
227.049 630.739 -1.69798
192.153 650.241 -33.4003
182.195 637.323 -57.7643
211.942 613.095 -57.7484
222.559 625.457 -33.384
180.772 635.575 -60.0208
165.859 616.229 -76.2732
194.614 592.829 -76.2625
210.519 611.347 -60.0049
163.998 613.941 -77.4981
146.426 591.118 -83.1941
174 568.697 -83.1978
192.753 590.541 -77.4874
144.408 588.639 -83.2024
126.834 565.926 -77.5217
153.189 544.397 -77.5155
171.982 566.218 -83.2062
124.968 563.646 -76.3055
110.115 544.534 -60.0062
135.516 523.802 -59.9974
151.323 542.117 -76.2994
108.693 542.797 -57.745
98.8251 530.073 -33.3384
123.575 509.88 -33.3284
134.093 522.065 -57.7362
98.0572 529.136 -30.3826
94.602 524.7 -1.68404
119.129 504.702 -1.67262
122.807 508.943 -30.3726
121.806 502.401 1.52439
125.471 506.681 30.2074
149.137 485.235 30.2193
145.249 481.151 1.53907
126.284 507.579 33.1599
136.774 519.763 57.5299
161.071 497.755 57.5333
149.951 486.132 33.1718
138.283 521.425 59.789
154.078 539.747 76.099
179.317 516.893 76.082
162.58 499.416 59.7923
156.06 541.93 77.3144
174.86 563.753 83.0064
201.217 539.888 82.9574
181.299 519.076 77.2974
177.008 566.121 82.9962
195.78 587.952 77.2798
223.226 563.031 77.2114
203.364 542.256 82.9473
197.76 590.135 76.0535
213.677 608.64 59.7936
242.049 582.814 59.7327
225.206 565.214 75.9851
215.19 610.307 57.5379
225.816 622.657 33.1729
254.806 596.226 33.1428
243.562 584.481 57.477
226.633 623.557 30.2297
230.361 627.884 1.48867
259.568 601.243 1.50159
255.623 597.126 30.1996
230.361 627.883 -1.69534
226.64 623.545 -30.436
255.632 597.118 -30.3805
259.569 601.242 -1.68242
225.823 622.644 -33.3792
215.206 610.283 -57.7436
243.582 584.461 -57.6574
254.816 596.216 -33.3236
213.695 608.615 -59.9992
197.79 590.097 -76.2567
225.239 565.18 -76.1632
242.071 582.793 -59.913
195.812 587.913 -77.4827
177.059 566.069 -83.1931
203.411 542.211 -83.1243
223.261 562.997 -77.3892
174.912 563.7 -83.2032
156.12 541.879 -77.5125
181.35 519.027 -77.4744
201.264 539.842 -83.1343
154.137 539.696 -76.2973
138.33 521.382 -59.9954
162.624 499.37 -59.9727
179.367 516.845 -76.2593
136.819 519.721 -57.7346
126.3 507.536 -33.3268
149.964 486.087 -33.3101
161.113 497.709 -57.7118
125.485 506.64 -30.3712
121.806 502.399 -1.67116
145.25 481.149 -1.65648
149.148 485.192 -30.3544
147.802 478.712 1.5405
151.69 482.795 30.2207
174.187 460.128 30.2306
170.086 456.254 1.5546
152.55 483.649 33.1725
163.67 495.271 57.534
186.772 472.007 57.5337
175.047 460.982 33.1825
165.265 496.852 59.7913
182.002 514.329 76.081
206.004 490.173 76.0589
188.367 473.587 59.791
184.096 516.405 77.2934
204.013 537.218 82.9534
229.072 511.942 82.8949
208.098 492.249 77.2713
206.282 539.465 82.9403
226.144 560.24 77.2044
252.272 533.824 77.1329
231.341 514.19 82.8818
228.233 562.31 75.9777
245.077 579.91 59.7254
272.097 552.535 59.6653
254.361 535.894 75.9063
246.673 581.491 57.4719
257.917 593.236 33.1377
285.532 565.223 33.1095
273.693 554.116 57.4119
258.78 594.09 30.1986
262.725 598.206 1.50067
290.549 569.969 1.51405
286.395 566.077 30.1704
262.725 598.205 -1.67859
258.789 594.081 -30.3766
286.405 566.069 -30.3218
290.549 569.969 -1.66522
257.928 593.226 -33.3157
246.694 581.471 -57.6495
273.714 554.098 -57.5635
285.543 565.214 -33.2609
245.098 579.889 -59.9029
228.266 562.277 -76.1531
254.393 535.863 -76.0567
272.119 552.516 -59.8168
226.178 560.206 -77.3796
206.328 539.42 -83.1147
231.383 514.149 -83.0319
252.305 533.792 -77.2832
204.06 537.172 -83.1278
184.146 516.357 -77.4679
208.143 492.204 -77.4217
229.115 511.9 -83.0451
182.051 514.281 -76.2556
165.308 496.806 -59.969
188.407 473.543 -59.9443
206.048 490.128 -76.2095
163.712 495.226 -57.7096
152.563 483.604 -33.3079
175.058 460.937 -33.2906
186.81 471.962 -57.6849
151.701 482.752 -30.3527
147.802 478.71 -1.65474
170.086 456.252 -1.64065
174.195 460.086 -30.3354
172.505 453.682 1.55595
176.606 457.556 30.232
197.857 433.716 30.2431
193.555 430.064 1.56883
177.51 458.364 33.1833
189.235 469.389 57.5345
211.058 444.911 57.5413
198.762 434.523 33.1943
190.912 470.883 59.7908
208.549 487.469 76.0586
231.239 462.024 76.0566
212.735 446.405 59.7975
210.749 489.429 77.2686
231.724 509.122 82.8923
255.4 482.503 82.8799
233.439 463.984 77.2667
234.107 511.242 82.8777
255.038 530.876 77.1288
279.731 503.113 77.1231
257.784 484.623 82.8654
257.234 532.829 75.9025
274.97 549.471 59.6615
300.531 520.73 59.6618
281.928 505.066 75.8967
276.648 550.962 57.4096
288.486 562.069 33.1072
314.627 532.675 33.1139
302.209 522.221 57.4099
289.393 562.874 30.1705
293.547 566.767 1.51417
319.891 537.144 1.52683
315.534 533.48 30.1772
293.548 566.767 -1.66246
289.403 562.867 -30.319
315.544 533.473 -30.3006
319.892 537.144 -1.64979
288.497 562.06 -33.2558
276.669 550.944 -57.5584
302.229 522.204 -57.5341
314.638 532.667 -33.2373
274.992 549.452 -59.8103
257.266 532.799 -76.0502
281.958 505.037 -76.0207
300.553 520.712 -59.786
255.071 530.845 -77.2765
234.149 511.201 -83.0252
257.821 484.586 -82.9893
279.762 503.084 -77.2471
231.766 509.081 -83.0398
210.794 489.384 -77.4164
233.479 463.942 -77.3914
255.438 482.465 -83.0038
208.593 487.424 -76.2066
190.952 470.839 -59.9415
212.771 446.363 -59.9257
231.279 461.982 -76.1816
189.273 469.344 -57.683
177.521 458.319 -33.2887
198.769 434.48 -33.275
211.092 444.868 -57.6672
176.614 457.514 -30.3338
172.505 453.68 -1.63905
193.556 430.062 -1.62617
197.863 433.674 -30.3201
195.833 427.366 1.57015
200.135 431.017 30.2444
220.072 406.058 30.2561
215.581 402.641 1.58172
201.081 431.775 33.1955
213.377 442.163 57.5424
233.849 416.533 57.5522
221.018 406.816 33.2071
215.132 443.566 59.798
233.636 459.184 76.0572
254.912 432.543 76.0637
235.603 417.936 59.8079
235.937 461.023 77.2666
257.898 479.543 82.8799
280.126 451.704 82.8873
257.213 434.382 77.2731
260.39 481.532 82.8654
282.337 500.022 77.1231
305.519 470.984 77.1347
282.618 453.693 82.8728
284.635 501.854 75.8972
303.238 517.518 59.6623
327.235 487.457 59.6744
307.817 472.817 75.9088
304.994 518.917 57.4107
317.412 529.37 33.1147
341.952 498.625 33.1262
328.991 488.856 57.4228
318.36 530.126 30.1783
322.718 533.79 1.52801
347.448 502.804 1.53958
342.901 499.38 30.1898
322.718 533.789 -1.64828
318.37 530.119 -30.2991
342.91 499.374 -30.2876
347.448 502.804 -1.63671
317.423 529.363 -33.2355
305.014 518.9 -57.5323
329.009 488.841 -57.5219
341.963 498.618 -33.224
303.259 517.5 -59.784
284.665 501.826 -76.0187
307.844 472.791 -76.0083
327.255 487.441 -59.7735
282.368 499.993 -77.2446
260.427 481.495 -82.9868
282.651 453.659 -82.9725
305.547 470.957 -77.2342
257.935 479.505 -83.0013
235.976 460.981 -77.3889
257.248 434.343 -77.3744
280.16 451.669 -82.9871
233.675 459.143 -76.1797
215.167 443.524 -59.9238
235.635 417.896 -59.9133
254.947 432.504 -76.1652
213.411 442.121 -57.6658
201.088 431.732 -33.2736
221.021 406.774 -33.2631
233.879 416.493 -57.6552
200.14 430.976 -30.3188
195.833 427.364 -1.62482
215.581 402.639 -1.61325
220.073 406.018 -30.3083
217.711 399.823 1.58291
222.201 403.24 30.2573
240.773 377.234 30.2669
236.106 374.062 1.59323
223.187 403.946 33.2081
236.017 413.664 57.5533
255.088 386.964 57.5601
241.759 377.941 33.2177
237.843 414.971 59.8086
257.152 429.578 76.0644
276.97 401.832 76.0695
256.914 388.272 59.8154
259.547 431.292 77.2739
282.461 448.614 82.888
303.165 419.627 82.8947
279.365 403.546 77.2789
285.055 450.468 82.8738
307.956 467.759 77.1357
329.552 437.524 77.1447
305.76 421.481 82.8805
310.349 469.465 75.91
329.767 484.105 59.6756
352.123 452.804 59.686
331.944 439.231 75.9191
331.595 485.408 57.424
344.557 495.177 33.1274
367.42 463.161 33.1378
353.951 454.106 57.4345
345.544 495.88 30.191
350.092 499.304 1.54079
373.133 467.037 1.55112
368.408 463.864 30.2014
350.092 499.303 -1.63549
345.554 495.874 -30.2864
368.417 463.859 -30.2762
373.133 467.037 -1.62516
344.567 495.17 -33.2228
331.614 485.393 -57.5207
353.968 454.093 -57.5109
367.43 463.155 -33.2127
329.787 484.089 -59.7724
310.376 469.439 -76.0072
331.969 439.207 -75.9964
352.141 452.789 -59.7626
307.984 467.732 -77.2329
285.088 450.433 -82.9712
305.79 421.449 -82.9585
329.577 437.499 -77.2221
282.494 448.579 -82.9855
259.582 431.253 -77.3729
279.396 403.51 -77.3592
303.196 419.595 -82.9728
257.187 429.54 -76.1638
237.875 414.932 -59.9118
256.941 388.235 -59.9004
277.001 401.797 -76.1501
236.047 413.624 -57.654
223.189 403.905 -33.2619
241.757 377.902 -33.2517
255.113 386.927 -57.6426
222.202 403.2 -30.3071
217.71 399.821 -1.61206
236.106 374.059 -1.60174
240.77 377.197 -30.2969
238.082 371.132 1.59424
242.749 374.305 30.2679
259.906 347.327 30.276
255.076 344.405 1.60339
243.77 374.958 33.2185
257.099 383.981 57.5608
274.717 356.289 57.5654
260.928 347.98 33.2266
258.992 385.19 59.8159
279.048 398.751 76.0699
297.353 369.982 76.0718
276.61 357.498 59.8204
281.531 400.335 77.2794
305.331 416.416 82.8952
324.454 386.366 82.8986
299.836 371.566 77.2812
308.021 418.129 82.8812
331.813 434.173 77.1454
351.759 402.829 77.1517
327.143 388.079 82.8846
334.293 435.748 75.92
354.472 449.322 59.6869
375.123 416.868 59.6953
354.24 404.405 75.9262
356.368 450.523 57.4355
369.837 459.578 33.1388
390.958 426.382 33.1477
377.018 418.07 57.4439
370.861 460.227 30.2025
375.586 463.4 1.55219
396.871 429.944 1.56131
391.982 427.031 30.2114
375.586 463.4 -1.62407
370.87 460.222 -30.2751
391.99 427.026 -30.2659
396.872 429.944 -1.61496
369.847 459.572 -33.2116
356.385 450.51 -57.5098
377.034 418.058 -57.5004
390.967 426.377 -33.2024
354.49 449.307 -59.7614
334.318 435.725 -75.9952
354.262 404.383 -75.984
375.139 416.856 -59.752
331.838 434.149 -77.2208
308.05 418.098 -82.9572
327.17 388.051 -82.9435
351.782 402.807 -77.2095
305.361 416.385 -82.9713
281.562 400.3 -77.3577
299.863 371.533 -77.343
324.481 386.337 -82.9576
279.079 398.715 -76.1486
259.019 385.153 -59.8989
276.633 357.464 -59.8874
297.381 369.949 -76.1339
257.125 383.944 -57.6414
243.768 374.919 -33.2504
260.922 347.944 -33.2411
274.739 356.254 -57.6298
242.745 374.267 -30.2958
238.081 371.13 -1.60064
255.076 344.403 -1.59148
259.899 347.292 -30.2864
256.892 341.371 1.60425
261.723 344.293 30.2769
277.42 316.416 30.2837
272.44 313.75 1.61213
262.778 344.893 33.2272
276.567 353.201 57.5659
292.683 324.593 57.5684
278.474 317.016 33.234
278.521 354.309 59.8206
299.264 366.793 76.0719
316.007 337.084 76.0706
294.637 325.701 59.8231
301.827 368.244 77.2813
326.445 383.044 82.8987
343.932 352.02 82.8988
318.569 338.535 77.28
329.222 384.612 82.885
353.837 399.362 77.1521
372.079 367.001 77.156
346.709 353.588 82.8851
356.399 400.802 75.9269
377.282 413.266 59.696
396.17 379.754 59.7027
374.64 368.441 75.9308
379.24 414.363 57.4447
393.18 422.675 33.1486
412.498 388.393 33.1561
398.128 380.851 57.4514
394.237 423.267 30.2123
399.127 426.181 1.56222
418.596 391.63 1.56999
413.556 388.986 30.2198
399.127 426.181 -1.614
394.245 423.263 -30.265
413.564 388.982 -30.2571
418.596 391.63 -1.60624
393.188 422.67 -33.2014
379.256 414.351 -57.4994
398.142 380.841 -57.4908
412.507 388.39 -33.1935
377.298 413.253 -59.7508
356.421 400.781 -75.9828
374.66 368.423 -75.9717
396.185 379.743 -59.7423
353.86 399.34 -77.2081
329.248 384.584 -82.9421
346.732 353.563 -82.9275
372.099 366.982 -77.197
326.471 383.016 -82.956
301.854 368.212 -77.3413
318.593 338.506 -77.3258
343.956 351.994 -82.9414
299.291 366.76 -76.1323
278.544 354.275 -59.8858
294.657 325.671 -59.8746
316.03 337.055 -76.1168
276.588 353.167 -57.6286
262.772 344.856 -33.2399
278.465 316.982 -33.2316
292.701 324.563 -57.6174
261.716 344.259 -30.2854
256.892 341.369 -1.59048
272.439 313.748 -1.5826
277.409 316.384 -30.2772
274.092 310.621 1.61282
279.072 313.287 30.2844
293.264 284.585 30.2899
288.15 282.178 1.6195
280.157 313.831 33.2343
294.366 321.409 57.5687
308.936 291.967 57.569
294.349 285.129 33.2398
296.375 322.414 59.8229
317.745 333.796 76.0704
332.878 303.235 76.0656
310.945 292.972 59.8232
320.38 335.112 77.2797
345.743 348.597 82.8985
361.546 316.692 82.8952
335.513 304.55 77.2749
348.599 350.016 82.8852
373.968 363.429 77.1561
390.455 330.146 77.1577
364.403 318.111 82.8819
376.604 364.729 75.9313
398.134 376.041 59.7031
415.207 341.567 59.7085
393.091 331.446 75.9329
400.149 377.03 57.4521
414.519 384.572 33.1568
431.982 349.303 33.1631
417.221 342.556 57.4575
415.608 385.106 30.2206
420.647 387.751 1.57077
438.246 352.205 1.57725
433.071 349.837 30.227
420.648 387.751 -1.60544
415.615 385.103 -30.2563
433.078 349.835 -30.2497
438.247 352.205 -1.59895
414.527 384.569 -33.1926
400.163 377.021 -57.49
417.234 342.549 -57.4825
431.99 349.301 -33.1861
398.148 376.031 -59.7412
376.624 364.71 -75.9706
393.109 331.43 -75.9597
415.22 341.559 -59.7338
373.989 363.41 -77.1956
348.622 349.991 -82.9261
364.423 318.089 -82.9106
390.473 330.129 -77.1846
345.766 348.572 -82.9397
320.403 335.083 -77.324
335.534 304.525 -77.3073
361.568 316.67 -82.9242
317.768 333.768 -76.1152
296.394 322.384 -59.8729
310.961 292.945 -59.8616
332.898 303.209 -76.0985
294.383 321.378 -57.6162
280.147 313.798 -33.2305
294.336 285.099 -33.2233
308.95 291.94 -57.6049
279.061 313.255 -30.2763
274.092 310.62 -1.58171
288.149 282.177 -1.57503
293.25 284.556 -30.2691
289.634 278.962 1.62002
294.748 281.368 30.2904
307.397 251.914 30.2944
302.162 249.768 1.62547
295.86 281.856 33.2398
310.447 288.694 57.569
323.432 258.498 57.5663
308.509 252.402 33.2438
312.506 289.595 59.8226
334.438 299.858 76.065
347.921 268.534 76.0561
325.49 259.399 59.8199
337.138 301.036 77.2742
363.172 313.178 82.8945
377.25 280.49 82.8873
350.621 269.712 77.2653
366.099 314.444 82.8816
392.151 326.479 77.1575
406.84 292.372 77.1567
380.177 281.756 82.8744
394.854 327.634 75.9332
416.97 337.755 59.7087
432.182 302.417 59.713
409.542 293.527 75.9324
419.036 338.632 57.458
433.796 345.379 33.1637
449.356 309.223 33.1691
434.248 303.294 57.4623
434.912 345.853 30.2276
440.088 348.221 1.57791
455.768 311.781 1.58321
450.472 309.697 30.233
440.088 348.221 -1.5983
434.919 345.851 -30.2491
450.479 309.696 -30.244
455.769 311.781 -1.593
433.804 345.377 -33.1854
419.049 338.625 -57.4818
434.26 303.289 -57.4757
449.364 309.222 -33.1802
416.983 337.747 -59.7327
394.872 327.618 -75.9586
409.559 293.513 -75.9478
432.195 302.411 -59.7266
392.17 326.463 -77.1831
366.12 314.422 -82.909
380.196 281.736 -82.892
406.857 292.357 -77.1723
363.192 313.156 -82.9223
337.159 301.011 -77.3054
350.639 269.691 -77.2869
377.269 280.47 -82.9052
334.458 299.833 -76.0967
312.521 289.569 -59.8598
325.504 259.376 -59.8478
347.939 268.513 -76.0782
310.461 288.668 -57.6037
295.846 281.826 -33.222
308.493 252.376 -33.2157
323.443 258.475 -57.5916
294.734 281.34 -30.2683
289.633 278.96 -1.57423
302.162 249.766 -1.56878
307.38 251.889 -30.262
303.474 246.471 1.62578
308.709 248.618 30.2947
319.781 218.484 30.2969
314.439 216.594 1.62996
309.845 249.05 33.2434
324.767 255.146 57.5659
336.133 224.279 57.559
320.916 218.917 33.2456
326.869 255.943 59.8187
349.3 265.079 76.055
361.099 233.087 76.0409
338.235 225.076 59.8119
352.057 266.117 77.2641
378.686 276.895 82.8861
391.003 243.524 82.8735
363.856 234.126 77.2501
381.676 278.005 82.8737
408.339 288.621 77.1561
421.192 253.788 77.153
393.993 244.634 82.8612
411.1 289.627 75.9325
433.74 298.516 59.713
447.054 262.413 59.7167
423.954 254.793 75.9295
435.851 299.279 57.4628
450.959 305.208 33.1696
464.575 268.268 33.174
449.165 263.175 57.4665
452.099 305.62 30.2335
457.396 307.704 1.58376
471.116 270.475 1.58775
465.715 268.68 30.238
457.396 307.704 -1.59252
452.106 305.62 -30.2435
465.721 268.681 -30.2401
471.116 270.475 -1.58852
450.966 305.207 -33.1797
435.863 299.274 -57.4752
449.176 263.173 -57.4712
464.582 268.269 -33.1763
433.753 298.511 -59.7257
411.117 289.613 -75.9468
423.97 254.782 -75.9362
447.066 262.41 -59.7216
408.355 288.607 -77.1706
381.695 277.986 -82.8903
394.011 244.617 -82.8705
421.208 253.775 -77.16
378.704 276.876 -82.903
352.075 266.097 -77.2848
363.872 234.109 -77.2636
391.02 243.507 -82.8832
349.317 265.058 -76.0762
326.882 255.921 -59.8458
338.246 225.059 -59.8318
361.114 233.07 -76.055
324.778 255.124 -57.5903
309.827 249.025 -33.2144
320.897 218.895 -33.2086
336.142 224.261 -57.5763
308.691 248.593 -30.2612
303.473 246.47 -1.56806
314.438 216.593 -1.56388
319.76 218.464 -30.2555
315.574 213.226 1.63003
320.916 215.116 30.2969
330.382 184.373 30.2964
324.947 182.73 1.633
322.072 215.494 33.2446
337.289 220.856 57.5581
347.009 189.403 57.5441
331.538 184.751 33.244
339.428 221.551 59.81
362.292 229.562 76.0391
372.378 197.006 76.0171
349.148 190.098 59.7959
365.098 230.462 77.2481
392.246 239.86 82.8716
402.774 205.911 82.8507
375.184 197.905 77.2261
395.291 240.81 82.86
422.49 249.964 77.1519
433.48 214.502 77.1474
405.82 206.861 82.8392
425.303 250.816 75.9294
448.403 258.436 59.7167
459.784 221.669 59.7204
436.293 215.354 75.9249
450.552 259.08 57.4669
465.963 264.172 33.1745
477.597 226.554 33.1778
461.934 222.313 57.4707
467.123 264.522 30.2385
472.524 266.317 1.58818
484.246 228.406 1.59083
478.758 226.903 30.2418
472.524 266.317 -1.58822
467.129 264.523 -30.2398
478.765 226.907 -30.238
484.246 228.406 -1.58557
465.969 264.174 -33.1761
450.564 259.077 -57.4709
461.945 222.313 -57.4697
477.605 226.557 -33.1743
448.414 258.433 -59.7209
425.318 250.805 -75.9354
436.308 215.344 -75.9261
459.796 221.668 -59.7196
422.506 249.952 -77.1581
395.308 240.794 -82.8686
405.836 206.847 -82.8429
433.496 214.491 -77.1488
392.263 239.844 -82.8805
365.114 230.446 -77.2609
375.199 197.893 -77.2339
402.791 205.897 -82.8549
362.307 229.546 -76.0524
339.439 221.534 -59.8292
349.157 190.087 -59.8101
372.392 196.993 -76.0254
337.297 220.839 -57.5746
322.053 215.474 -33.207
331.517 184.736 -33.2007
347.016 189.392 -57.5555
320.896 215.096 -30.2548
315.573 213.225 -1.56316
324.946 182.729 -1.56019
330.36 184.359 -30.2485
325.903 179.298 1.63265
331.339 180.94 30.296
339.182 149.655 30.2878
333.665 148.245 1.63453
332.513 181.266 33.2419
347.983 185.919 57.5419
356.042 153.968 57.5097
340.356 149.981 33.2337
350.154 186.515 59.7924
373.384 193.422 76.0135
381.738 160.415 75.9711
358.213 154.564 59.7602
376.231 194.184 77.2227
403.821 202.189 82.8473
412.541 167.766 82.8092
384.586 161.177 77.1803
406.913 202.976 82.8371
434.574 210.617 77.1454
443.675 174.62 77.139
415.633 168.552 82.799
437.429 211.31 75.9247
460.92 217.625 59.7202
470.335 180.292 59.7212
446.53 175.313 75.9183
463.102 218.148 57.4709
478.765 222.389 33.1781
488.378 184.197 33.1774
472.517 180.816 57.472
479.943 222.675 30.242
485.431 224.178 1.59105
495.111 185.693 1.59213
489.555 184.483 30.2413
485.431 224.179 -1.58538
479.949 222.679 -30.2378
489.563 184.49 -30.2352
495.111 185.693 -1.5843
478.772 222.393 -33.1742
463.113 218.148 -57.4696
472.53 180.819 -57.469
488.386 184.204 -33.1716
460.932 217.624 -59.719
437.444 211.3 -75.9255
446.546 175.305 -75.9173
470.348 180.295 -59.7184
434.589 210.607 -77.1464
406.93 202.962 -82.8405
415.65 168.541 -82.8
443.691 174.611 -77.1382
403.838 202.176 -82.851
376.246 194.172 -77.2301
384.601 161.169 -77.1846
412.558 167.755 -82.8105
373.398 193.411 -76.0214
350.163 186.504 -59.8061
358.222 154.561 -59.7702
381.753 160.408 -75.9759
347.99 185.908 -57.5528
332.491 181.252 -33.1981
340.334 149.974 -33.186
356.05 153.965 -57.517
331.317 180.926 -30.2476
325.902 179.297 -1.55928
333.664 148.244 -1.55739
339.16 149.648 -30.2356
334.445 144.755 1.63281
339.962 146.165 30.286
346.229 114.413 30.2418
340.648 113.215 1.63359
341.15 146.444 33.2275
356.836 150.431 57.5035
363.266 118.083 57.4
347.417 114.691 33.1833
359.031 150.935 59.7508
382.556 156.787 75.9617
389.186 123.477 75.8308
365.461 118.588 59.6472
385.437 157.411 77.1718
413.392 164.001 82.8006
420.282 129.199 82.6998
392.067 124.101 77.0408
416.519 164.617 82.7937
444.561 170.685 77.1337
451.721 134.236 77.0902
423.409 129.815 82.6928
447.448 171.213 75.9159
471.253 176.193 59.7188
478.619 138.387 59.6804
454.608 134.764 75.8724
473.458 176.594 57.4703
489.319 179.975 33.1756
496.809 141.305 33.1482
480.824 138.788 57.4318
490.508 180.197 30.2405
496.064 181.407 1.59139
503.598 142.443 1.58991
497.998 141.527 30.2131
496.065 181.407 -1.58361
490.516 180.204 -30.2345
498.008 141.537 -30.2101
503.599 142.444 -1.58509
489.327 179.982 -33.1699
473.471 176.597 -57.4673
480.84 138.794 -57.4315
496.819 141.316 -33.1455
471.267 176.195 -59.716
447.464 171.205 -75.9149
454.628 134.757 -75.8725
478.636 138.392 -59.6802
444.577 170.676 -77.1327
416.536 164.605 -82.7946
423.428 129.806 -82.6932
451.74 134.228 -77.0904
413.409 163.99 -82.8018
385.452 157.404 -77.1759
392.085 124.099 -77.0429
420.301 129.19 -82.7004
382.571 156.78 -75.9662
359.04 150.933 -59.7605
365.473 118.595 -59.6535
389.204 123.475 -75.8333
356.844 150.429 -57.5105
341.128 146.438 -33.1795
347.398 114.696 -33.1327
363.277 118.091 -57.4035
339.94 146.159 -30.2335
334.444 144.755 -1.55532
340.647 113.215 -1.55454
346.21 114.418 -30.1867
341.279 109.683 1.62562
346.861 110.881 30.2339
351.998 78.8197 30.0071
346.422 77.8122 1.62381
348.054 111.118 33.1595
363.903 114.51 57.3762
369.029 81.9358 56.9377
353.191 79.0559 32.9328
366.104 114.935 59.61
389.83 119.824 75.7935
394.912 86.4645 75.1789
371.23 82.361 59.1715
392.725 120.31 77.0038
420.94 125.408 82.6628
425.953 90.2866 82.1522
397.808 86.951 76.3892
424.076 125.839 82.6611
452.389 130.259 77.0585
457.356 93.4023 76.5722
429.089 90.7171 82.1505
455.285 130.619 75.8457
479.296 134.241 59.6537
484.191 96.0084 59.2538
460.253 93.7616 75.3594
481.508 134.518 57.4128
497.493 137.035 33.1292
502.377 97.9353 32.9023
486.403 96.2857 57.0129
498.687 137.193 30.2057
504.287 138.109 1.58251
509.174 98.7159 1.56904
503.571 98.0933 29.9788
504.287 138.11 -1.57909
498.697 137.204 -30.2041
503.58 98.1072 -29.995
509.175 98.7167 -1.59256
497.504 137.047 -33.1269
481.524 134.525 -57.4129
486.43 96.2958 -57.0066
502.387 97.9499 -32.9178
479.313 134.246 -59.6532
455.305 130.611 -75.8455
460.28 93.7556 -75.3518
484.219 96.017 -59.2469
452.409 130.251 -77.0583
424.097 125.83 -82.6612
429.117 90.7102 -82.1463
457.384 93.3955 -76.5646
420.96 125.399 -82.6631
392.744 120.308 -77.0057
397.833 86.9533 -76.3891
425.981 90.28 -82.1483
389.848 119.823 -75.7957
366.118 114.943 -59.616
371.253 82.3805 -59.1723
394.937 86.468 -75.1791
363.914 114.519 -57.3794
348.035 111.124 -33.1086
353.183 79.0765 -32.8817
369.049 81.9561 -56.9358
346.841 110.887 -30.1787
341.278 109.684 -1.54651
346.421 77.8129 -1.54832
351.989 78.8395 -29.9517
347.108 74.3041 1.58042
352.685 75.3116 29.9637
359.845 43.7798 28.6627
354.536 42.9092 1.57586
353.848 75.5133 32.811
369.686 78.3933 56.816
376.095 46.468 54.4477
361.008 43.9816 31.5101
371.834 78.7544 58.9906
395.516 82.858 74.9981
400.852 50.3308 71.9328
378.244 46.8292 56.6223
398.32 83.2549 76.1768
426.466 86.5905 81.9398
430.429 54.0876 78.586
403.656 50.7277 73.1115
429.523 86.9282 81.9469
457.789 89.6133 76.3686
460.352 57.2039 73.1481
433.486 54.4253 78.5931
460.62 89.8907 75.1885
484.559 92.1375 59.0828
485.943 59.7484 56.6046
463.183 57.4813 71.968
486.726 92.3526 56.8994
502.7 94.0022 32.7887
503.356 61.5572 31.4472
488.109 59.9635 54.4212
503.872 94.1255 29.938
509.475 94.7481 1.52819
509.88 62.2506 1.51319
504.528 61.6805 28.5964
509.475 94.748 -1.55471
503.88 94.1385 -29.9571
504.525 61.6599 -28.633
509.881 62.2506 -1.56971
502.709 94.0153 -32.8048
486.752 92.3612 -56.8936
488.138 59.9459 -54.407
503.354 61.5366 -31.4806
484.588 92.1455 -59.075
460.649 89.8841 -75.1799
463.214 57.4739 -71.9555
485.973 59.7302 -56.5885
457.818 89.6067 -76.3605
429.551 86.9214 -81.9422
433.518 54.4216 -78.5871
460.383 57.1965 -73.1361
426.494 86.5843 -81.9357
398.347 83.2576 -76.1765
403.685 50.7353 -73.1127
430.46 54.0846 -78.5806
395.541 82.8625 -74.9983
371.857 78.775 -58.9914
378.264 46.865 -56.629
400.88 50.3401 -71.9345
369.706 78.415 -56.8143
353.84 75.5354 -32.7602
360.996 44.0189 -31.4682
376.114 46.505 -54.4518
352.676 75.3322 -29.9089
347.108 74.3056 -1.50547
354.536 42.9107 -1.51003
359.832 43.8156 -28.6169
355.393 39.4513 1.49128
360.701 40.3218 28.5781
368.708 9.35988 26.8409
363.721 8.61664 1.48307
361.802 40.4955 31.2711
376.889 42.982 54.2088
383.976 11.6772 51.0061
369.809 9.53355 29.534
378.921 43.2928 56.2665
401.529 46.7944 71.577
407.217 15.0321 67.4017
386.008 11.9879 53.0638
404.184 47.1577 72.6926
430.957 50.5176 78.1671
434.933 18.5694 73.6052
409.872 15.3954 68.5172
433.839 50.8534 78.168
460.706 53.632 72.7229
462.921 21.675 68.4989
437.815 18.9052 73.6061
463.373 53.9122 71.6027
486.133 56.1793 56.2394
486.814 24.2119 52.9612
465.589 21.9552 67.3787
488.174 56.3926 54.1755
503.421 57.9863 31.2015
503.032 25.9599 29.4088
488.856 24.4251 50.8974
504.526 58.1038 28.5097
509.879 58.6739 1.42647
509.106 26.5988 1.43407
504.137 26.0774 26.7169
509.878 58.672 -1.48353
504.523 58.0813 -28.5468
504.132 26.0275 -26.7428
509.106 26.5968 -1.47594
503.419 57.962 -31.235
488.202 56.3713 -54.1613
488.874 24.3814 -50.8849
503.029 25.9083 -29.431
486.162 56.1597 -56.2231
463.404 53.9034 -71.5901
465.611 21.9448 -67.3708
486.835 24.1698 -52.9467
460.736 53.6247 -72.7109
433.87 50.8498 -78.162
437.838 18.902 -73.602
462.944 21.6661 -68.4917
430.988 50.5148 -78.1616
404.212 47.1656 -72.6938
409.893 15.404 -68.5178
434.955 18.567 -73.6016
401.557 46.8046 -71.5789
378.941 43.3295 -56.2734
386.018 12.036 -53.0718
407.237 15.0431 -67.403
376.907 43.0208 -54.2137
361.789 40.5346 -31.2301
369.792 9.58775 -29.5058
383.984 11.7273 -51.0122
360.688 40.3586 -28.5336
355.392 39.4536 -1.42676
363.72 8.61901 -1.43496
368.691 9.41173 -26.8093
364.763 5.40829 1.35374
369.751 6.15152 26.7116
380.246 -21.0471 23.7839
375.823 -21.6686 1.33214
370.759 6.29776 29.17
384.926 8.44136 50.6422
393.853 -19.1418 45.2726
381.254 -20.9008 26.2423
386.787 8.70487 52.5201
407.997 11.749 66.8579
414.598 -16.3517 59.8198
395.714 -18.8783 47.1505
410.424 12.074 67.8714
435.485 15.2479 72.9594
439.262 -13.0799 65.2234
417.025 -16.0268 60.8332
438.111 15.5764 72.9569
463.217 18.3463 67.8497
464.072 -9.82216 60.6957
441.889 -12.7515 65.221
465.646 18.6365 66.8293
486.871 20.8931 52.4119
485.262 -7.05873 46.9556
466.501 -9.53196 59.6753
488.73 21.1142 50.531
502.907 22.649 29.0424
499.633 -5.18982 26.1112
487.121 -6.83765 45.0748
503.912 22.7681 26.5898
508.881 23.2895 1.3069
505.028 -4.49301 1.32588
500.639 -5.07064 23.6586
508.881 23.288 -1.34548
503.907 22.7187 -26.6124
500.638 -5.07303 -23.6591
505.028 -4.49456 -1.3265
502.902 22.598 -29.0641
488.748 21.071 -50.5181
487.121 -6.84158 -45.0746
499.633 -5.19378 -26.1108
486.89 20.8516 -52.3984
465.666 18.6266 -66.8225
466.501 -9.53399 -59.6748
485.262 -7.06098 -46.9549
463.238 18.3375 -67.843
438.132 15.5734 -72.9533
441.89 -12.7523 -65.2205
464.073 -9.82309 -60.6953
435.506 15.2454 -72.9559
410.443 12.0824 -67.872
417.026 -16.027 -60.833
439.263 -13.0803 -65.2231
408.015 11.7588 -66.8587
386.796 8.75178 -52.5275
395.714 -18.8769 -47.1505
414.598 -16.3506 -59.8196
384.933 8.49005 -50.6491
370.741 6.35048 -29.1428
381.253 -20.8976 -26.2417
393.852 -19.1387 -45.272
369.734 6.20261 -26.6835
364.763 5.4099 -1.30916
375.823 -21.667 -1.33076
380.245 -21.0455 -23.7825
-367.219 693.846 25.4899
-367.803 688.72 -0.273931
-367.171 693.838 -26.0377
-365.49 708.39 -47.8246
-363.152 730.117 -62.3261
-360.716 755.716 -67.4145
-358.626 781.367 -62.3578
-357.016 803.184 -47.8532
-355.949 817.785 -26.0553
-355.575 822.917 -0.304774
-355.971 817.8 25.448
-357.047 803.208 47.2508
-358.663 781.398 61.7639
-360.759 755.751 66.8325
-363.194 730.149 61.7558
-365.542 708.413 47.2694
382.635 -22.3863 1.76393e-05
387.057 -21.7648 22.4517
399.656 -20.0058 41.4821
418.54 -17.4792 54.1513
440.777 -14.5323 58.5415
462.96 -11.603 54.0162
481.721 -9.1298 41.2965
494.234 -7.48197 22.3329
498.623 -6.90434 0.000247942
494.233 -7.48281 -22.3323
481.721 -9.13061 -41.2962
462.96 -11.6036 -54.016
440.777 -14.5328 -58.5413
418.54 -17.4795 -54.1511
399.656 -20.0059 -41.482
387.057 -21.7648 -22.4517
</DataArray>
</Points>
<Cells>
<DataArray type="Int32" Name="connectivity" format="ascii">
0 1 2 3 
4 5 6 7 
8 9 10 11 
12 13 14 15 
16 17 18 19 
20 21 22 23 
24 25 26 27 
28 29 30 31 
32 33 34 35 
36 37 38 39 
40 41 42 43 
44 45 46 47 
48 49 50 51 
52 53 54 55 
56 57 58 59 
60 61 62 63 
64 65 66 67 
68 69 70 71 
72 73 74 75 
76 77 78 79 
80 81 82 83 
84 85 86 87 
88 89 90 91 
92 93 94 95 
96 97 98 99 
100 101 102 103 
104 105 106 107 
108 109 110 111 
112 113 114 115 
116 117 118 119 
120 121 122 123 
124 125 126 127 
128 129 130 131 
132 133 134 135 
136 137 138 139 
140 141 142 143 
144 145 146 147 
148 149 150 151 
152 153 154 155 
156 157 158 159 
160 161 162 163 
164 165 166 167 
168 169 170 171 
172 173 174 175 
176 177 178 179 
180 181 182 183 
184 185 186 187 
188 189 190 191 
192 193 194 195 
196 197 198 199 
200 201 202 203 
204 205 206 207 
208 209 210 211 
212 213 214 215 
216 217 218 219 
220 221 222 223 
224 225 226 227 
228 229 230 231 
232 233 234 235 
236 237 238 239 
240 241 242 243 
244 245 246 247 
248 249 250 251 
252 253 254 255 
256 257 258 259 
260 261 262 263 
264 265 266 267 
268 269 270 271 
272 273 274 275 
276 277 278 279 
280 281 282 283 
284 285 286 287 
288 289 290 291 
292 293 294 295 
296 297 298 299 
300 301 302 303 
304 305 306 307 
308 309 310 311 
312 313 314 315 
316 317 318 319 
320 321 322 323 
324 325 326 327 
328 329 330 331 
332 333 334 335 
336 337 338 339 
340 341 342 343 
344 345 346 347 
348 349 350 351 
352 353 354 355 
356 357 358 359 
360 361 362 363 
364 365 366 367 
368 369 370 371 
372 373 374 375 
376 377 378 379 
380 381 382 383 
384 385 386 387 
388 389 390 391 
392 393 394 395 
396 397 398 399 
400 401 402 403 
404 405 406 407 
408 409 410 411 
412 413 414 415 
416 417 418 419 
420 421 422 423 
424 425 426 427 
428 429 430 431 
432 433 434 435 
436 437 438 439 
440 441 442 443 
444 445 446 447 
448 449 450 451 
452 453 454 455 
456 457 458 459 
460 461 462 463 
464 465 466 467 
468 469 470 471 
472 473 474 475 
476 477 478 479 
480 481 482 483 
484 485 486 487 
488 489 490 491 
492 493 494 495 
496 497 498 499 
500 501 502 503 
504 505 506 507 
508 509 510 511 
512 513 514 515 
516 517 518 519 
520 521 522 523 
524 525 526 527 
528 529 530 531 
532 533 534 535 
536 537 538 539 
540 541 542 543 
544 545 546 547 
548 549 550 551 
552 553 554 555 
556 557 558 559 
560 561 562 563 
564 565 566 567 
568 569 570 571 
572 573 574 575 
576 577 578 579 
580 581 582 583 
584 585 586 587 
588 589 590 591 
592 593 594 595 
596 597 598 599 
600 601 602 603 
604 605 606 607 
608 609 610 611 
612 613 614 615 
616 617 618 619 
620 621 622 623 
624 625 626 627 
628 629 630 631 
632 633 634 635 
636 637 638 639 
640 641 642 643 
644 645 646 647 
648 649 650 651 
652 653 654 655 
656 657 658 659 
660 661 662 663 
664 665 666 667 
668 669 670 671 
672 673 674 675 
676 677 678 679 
680 681 682 683 
684 685 686 687 
688 689 690 691 
692 693 694 695 
696 697 698 699 
700 701 702 703 
704 705 706 707 
708 709 710 711 
712 713 714 715 
716 717 718 719 
720 721 722 723 
724 725 726 727 
728 729 730 731 
732 733 734 735 
736 737 738 739 
740 741 742 743 
744 745 746 747 
748 749 750 751 
752 753 754 755 
756 757 758 759 
760 761 762 763 
764 765 766 767 
768 769 770 771 
772 773 774 775 
776 777 778 779 
780 781 782 783 
784 785 786 787 
788 789 790 791 
792 793 794 795 
796 797 798 799 
800 801 802 803 
804 805 806 807 
808 809 810 811 
812 813 814 815 
816 817 818 819 
820 821 822 823 
824 825 826 827 
828 829 830 831 
832 833 834 835 
836 837 838 839 
840 841 842 843 
844 845 846 847 
848 849 850 851 
852 853 854 855 
856 857 858 859 
860 861 862 863 
864 865 866 867 
868 869 870 871 
872 873 874 875 
876 877 878 879 
880 881 882 883 
884 885 886 887 
888 889 890 891 
892 893 894 895 
896 897 898 899 
900 901 902 903 
904 905 906 907 
908 909 910 911 
912 913 914 915 
916 917 918 919 
920 921 922 923 
924 925 926 927 
928 929 930 931 
932 933 934 935 
936 937 938 939 
940 941 942 943 
944 945 946 947 
948 949 950 951 
952 953 954 955 
956 957 958 959 
960 961 962 963 
964 965 966 967 
968 969 970 971 
972 973 974 975 
976 977 978 979 
980 981 982 983 
984 985 986 987 
988 989 990 991 
992 993 994 995 
996 997 998 999 
1000 1001 1002 1003 
1004 1005 1006 1007 
1008 1009 1010 1011 
1012 1013 1014 1015 
1016 1017 1018 1019 
1020 1021 1022 1023 
1024 1025 1026 1027 
1028 1029 1030 1031 
1032 1033 1034 1035 
1036 1037 1038 1039 
1040 1041 1042 1043 
1044 1045 1046 1047 
1048 1049 1050 1051 
1052 1053 1054 1055 
1056 1057 1058 1059 
1060 1061 1062 1063 
1064 1065 1066 1067 
1068 1069 1070 1071 
1072 1073 1074 1075 
1076 1077 1078 1079 
1080 1081 1082 1083 
1084 1085 1086 1087 
1088 1089 1090 1091 
1092 1093 1094 1095 
1096 1097 1098 1099 
1100 1101 1102 1103 
1104 1105 1106 1107 
1108 1109 1110 1111 
1112 1113 1114 1115 
1116 1117 1118 1119 
1120 1121 1122 1123 
1124 1125 1126 1127 
1128 1129 1130 1131 
1132 1133 1134 1135 
1136 1137 1138 1139 
1140 1141 1142 1143 
1144 1145 1146 1147 
1148 1149 1150 1151 
1152 1153 1154 1155 
1156 1157 1158 1159 
1160 1161 1162 1163 
1164 1165 1166 1167 
1168 1169 1170 1171 
1172 1173 1174 1175 
1176 1177 1178 1179 
1180 1181 1182 1183 
1184 1185 1186 1187 
1188 1189 1190 1191 
1192 1193 1194 1195 
1196 1197 1198 1199 
1200 1201 1202 1203 
1204 1205 1206 1207 
1208 1209 1210 1211 
1212 1213 1214 1215 
1216 1217 1218 1219 
1220 1221 1222 1223 
1224 1225 1226 1227 
1228 1229 1230 1231 
1232 1233 1234 1235 
1236 1237 1238 1239 
1240 1241 1242 1243 
1244 1245 1246 1247 
1248 1249 1250 1251 
1252 1253 1254 1255 
1256 1257 1258 1259 
1260 1261 1262 1263 
1264 1265 1266 1267 
1268 1269 1270 1271 
1272 1273 1274 1275 
1276 1277 1278 1279 
1280 1281 1282 1283 
1284 1285 1286 1287 
1288 1289 1290 1291 
1292 1293 1294 1295 
1296 1297 1298 1299 
1300 1301 1302 1303 
1304 1305 1306 1307 
1308 1309 1310 1311 
1312 1313 1314 1315 
1316 1317 1318 1319 
1320 1321 1322 1323 
1324 1325 1326 1327 
1328 1329 1330 1331 
1332 1333 1334 1335 
1336 1337 1338 1339 
1340 1341 1342 1343 
1344 1345 1346 1347 
1348 1349 1350 1351 
1352 1353 1354 1355 
1356 1357 1358 1359 
1360 1361 1362 1363 
1364 1365 1366 1367 
1368 1369 1370 1371 
1372 1373 1374 1375 
1376 1377 1378 1379 
1380 1381 1382 1383 
1384 1385 1386 1387 
1388 1389 1390 1391 
1392 1393 1394 1395 
1396 1397 1398 1399 
1400 1401 1402 1403 
1404 1405 1406 1407 
1408 1409 1410 1411 
1412 1413 1414 1415 
1416 1417 1418 1419 
1420 1421 1422 1423 
1424 1425 1426 1427 
1428 1429 1430 1431 
1432 1433 1434 1435 
1436 1437 1438 1439 
1440 1441 1442 1443 
1444 1445 1446 1447 
1448 1449 1450 1451 
1452 1453 1454 1455 
1456 1457 1458 1459 
1460 1461 1462 1463 
1464 1465 1466 1467 
1468 1469 1470 1471 
1472 1473 1474 1475 
1476 1477 1478 1479 
1480 1481 1482 1483 
1484 1485 1486 1487 
1488 1489 1490 1491 
1492 1493 1494 1495 
1496 1497 1498 1499 
1500 1501 1502 1503 
1504 1505 1506 1507 
1508 1509 1510 1511 
1512 1513 1514 1515 
1516 1517 1518 1519 
1520 1521 1522 1523 
1524 1525 1526 1527 
1528 1529 1530 1531 
1532 1533 1534 1535 
1536 1537 1538 1539 
1540 1541 1542 1543 
1544 1545 1546 1547 
1548 1549 1550 1551 
1552 1553 1554 1555 
1556 1557 1558 1559 
1560 1561 1562 1563 
1564 1565 1566 1567 
1568 1569 1570 1571 
1572 1573 1574 1575 
1576 1577 1578 1579 
1580 1581 1582 1583 
1584 1585 1586 1587 
1588 1589 1590 1591 
1592 1593 1594 1595 
1596 1597 1598 1599 
1600 1601 1602 1603 
1604 1605 1606 1607 
1608 1609 1610 1611 
1612 1613 1614 1615 
1616 1617 1618 1619 
1620 1621 1622 1623 
1624 1625 1626 1627 
1628 1629 1630 1631 
1632 1633 1634 1635 
1636 1637 1638 1639 
1640 1641 1642 1643 
1644 1645 1646 1647 
1648 1649 1650 1651 
1652 1653 1654 1655 
1656 1657 1658 1659 
1660 1661 1662 1663 
1664 1665 1666 1667 
1668 1669 1670 1671 
1672 1673 1674 1675 
1676 1677 1678 1679 
1680 1681 1682 1683 
1684 1685 1686 1687 
1688 1689 1690 1691 
1692 1693 1694 1695 
1696 1697 1698 1699 
1700 1701 1702 1703 
1704 1705 1706 1707 
1708 1709 1710 1711 
1712 1713 1714 1715 
1716 1717 1718 1719 
1720 1721 1722 1723 
1724 1725 1726 1727 
1728 1729 1730 1731 
1732 1733 1734 1735 
1736 1737 1738 1739 
1740 1741 1742 1743 
1744 1745 1746 1747 
1748 1749 1750 1751 
1752 1753 1754 1755 
1756 1757 1758 1759 
1760 1761 1762 1763 
1764 1765 1766 1767 
1768 1769 1770 1771 
1772 1773 1774 1775 
1776 1777 1778 1779 
1780 1781 1782 1783 
1784 1785 1786 1787 
1788 1789 1790 1791 
1792 1793 1794 1795 
1796 1797 1798 1799 
1800 1801 1802 1803 
1804 1805 1806 1807 
1808 1809 1810 1811 
1812 1813 1814 1815 
1816 1817 1818 1819 
1820 1821 1822 1823 
1824 1825 1826 1827 
1828 1829 1830 1831 
1832 1833 1834 1835 
1836 1837 1838 1839 
1840 1841 1842 1843 
1844 1845 1846 1847 
1848 1849 1850 1851 
1852 1853 1854 1855 
1856 1857 1858 1859 
1860 1861 1862 1863 
1864 1865 1866 1867 
1868 1869 1870 1871 
1872 1873 1874 1875 
1876 1877 1878 1879 
1880 1881 1882 1883 
1884 1885 1886 1887 
1888 1889 1890 1891 
1892 1893 1894 1895 
1896 1897 1898 1899 
1900 1901 1902 1903 
1904 1905 1906 1907 
1908 1909 1910 1911 
1912 1913 1914 1915 
1916 1917 1918 1919 
1920 1921 1922 1923 
1924 1925 1926 1927 
1928 1929 1930 1931 
1932 1933 1934 1935 
1936 1937 1938 1939 
1940 1941 1942 1943 
1944 1945 1946 1947 
1948 1949 1950 1951 
1952 1953 1954 1955 
1956 1957 1958 1959 
1960 1961 1962 1963 
1964 1965 1966 1967 
1968 1969 1970 1971 
1972 1973 1974 1975 
1976 1977 1978 1979 
1980 1981 1982 1983 
1984 1985 1986 1987 
1988 1989 1990 1991 
1992 1993 1994 1995 
1996 1997 1998 1999 
2000 2001 2002 2003 
2004 2005 2006 2007 
2008 2009 2010 2011 
2012 2013 2014 2015 
2016 2017 2018 2019 
2020 2021 2022 2023 
2024 2025 2026 2027 
2028 2029 2030 2031 
2032 2033 2034 2035 
2036 2037 2038 2039 
2040 2041 2042 2043 
2044 2045 2046 2047 
2048 2049 2050 2051 2052 2053 2054 2055 2056 2057 2058 2059 2060 2061 2062 2063 
2064 2065 2066 2067 2068 2069 2070 2071 2072 2073 2074 2075 2076 2077 2078 2079 
</DataArray>
<DataArray type="Int32" Name="offsets" format="ascii">
4 8 12 16 20 24 28 32 36 40 44 48 52 56 60 64 68 72 76 80 84 88 92 96 100 104 108 112 116 120 124 128 132 136 140 144 148 152 156 160 164 168 172 176 180 184 188 192 196 200 204 208 212 216 220 224 228 232 236 240 244 248 252 256 260 264 268 272 276 280 284 288 292 296 300 304 308 312 316 320 324 328 332 336 340 344 348 352 356 360 364 368 372 376 380 384 388 392 396 400 404 408 412 416 420 424 428 432 436 440 444 448 452 456 460 464 468 472 476 480 484 488 492 496 500 504 508 512 516 520 524 528 532 536 540 544 548 552 556 560 564 568 572 576 580 584 588 592 596 600 604 608 612 616 620 624 628 632 636 640 644 648 652 656 660 664 668 672 676 680 684 688 692 696 700 704 708 712 716 720 724 728 732 736 740 744 748 752 756 760 764 768 772 776 780 784 788 792 796 800 804 808 812 816 820 824 828 832 836 840 844 848 852 856 860 864 868 872 876 880 884 888 892 896 900 904 908 912 916 920 924 928 932 936 940 944 948 952 956 960 964 968 972 976 980 984 988 992 996 1000 1004 1008 1012 1016 1020 1024 1028 1032 1036 1040 1044 1048 1052 1056 1060 1064 1068 1072 1076 1080 1084 1088 1092 1096 1100 1104 1108 1112 1116 1120 1124 1128 1132 1136 1140 1144 1148 1152 1156 1160 1164 1168 1172 1176 1180 1184 1188 1192 1196 1200 1204 1208 1212 1216 1220 1224 1228 1232 1236 1240 1244 1248 1252 1256 1260 1264 1268 1272 1276 1280 1284 1288 1292 1296 1300 1304 1308 1312 1316 1320 1324 1328 1332 1336 1340 1344 1348 1352 1356 1360 1364 1368 1372 1376 1380 1384 1388 1392 1396 1400 1404 1408 1412 1416 1420 1424 1428 1432 1436 1440 1444 1448 1452 1456 1460 1464 1468 1472 1476 1480 1484 1488 1492 1496 1500 1504 1508 1512 1516 1520 1524 1528 1532 1536 1540 1544 1548 1552 1556 1560 1564 1568 1572 1576 1580 1584 1588 1592 1596 1600 1604 1608 1612 1616 1620 1624 1628 1632 1636 1640 1644 1648 1652 1656 1660 1664 1668 1672 1676 1680 1684 1688 1692 1696 1700 1704 1708 1712 1716 1720 1724 1728 1732 1736 1740 1744 1748 1752 1756 1760 1764 1768 1772 1776 1780 1784 1788 1792 1796 1800 1804 1808 1812 1816 1820 1824 1828 1832 1836 1840 1844 1848 1852 1856 1860 1864 1868 1872 1876 1880 1884 1888 1892 1896 1900 1904 1908 1912 1916 1920 1924 1928 1932 1936 1940 1944 1948 1952 1956 1960 1964 1968 1972 1976 1980 1984 1988 1992 1996 2000 2004 2008 2012 2016 2020 2024 2028 2032 2036 2040 2044 2048 2064 2080 
</DataArray>
<DataArray type="UInt8" Name="types" format="ascii">
7 7 7 7 7 7 7 7 7 7 7 7 7 7 7 7 7 7 7 7 7 7 7 7 7 7 7 7 7 7 7 7 7 7 7 7 7 7 7 7 7 7 7 7 7 7 7 7 7 7 7 7 7 7 7 7 7 7 7 7 7 7 7 7 7 7 7 7 7 7 7 7 7 7 7 7 7 7 7 7 7 7 7 7 7 7 7 7 7 7 7 7 7 7 7 7 7 7 7 7 7 7 7 7 7 7 7 7 7 7 7 7 7 7 7 7 7 7 7 7 7 7 7 7 7 7 7 7 7 7 7 7 7 7 7 7 7 7 7 7 7 7 7 7 7 7 7 7 7 7 7 7 7 7 7 7 7 7 7 7 7 7 7 7 7 7 7 7 7 7 7 7 7 7 7 7 7 7 7 7 7 7 7 7 7 7 7 7 7 7 7 7 7 7 7 7 7 7 7 7 7 7 7 7 7 7 7 7 7 7 7 7 7 7 7 7 7 7 7 7 7 7 7 7 7 7 7 7 7 7 7 7 7 7 7 7 7 7 7 7 7 7 7 7 7 7 7 7 7 7 7 7 7 7 7 7 7 7 7 7 7 7 7 7 7 7 7 7 7 7 7 7 7 7 7 7 7 7 7 7 7 7 7 7 7 7 7 7 7 7 7 7 7 7 7 7 7 7 7 7 7 7 7 7 7 7 7 7 7 7 7 7 7 7 7 7 7 7 7 7 7 7 7 7 7 7 7 7 7 7 7 7 7 7 7 7 7 7 7 7 7 7 7 7 7 7 7 7 7 7 7 7 7 7 7 7 7 7 7 7 7 7 7 7 7 7 7 7 7 7 7 7 7 7 7 7 7 7 7 7 7 7 7 7 7 7 7 7 7 7 7 7 7 7 7 7 7 7 7 7 7 7 7 7 7 7 7 7 7 7 7 7 7 7 7 7 7 7 7 7 7 7 7 7 7 7 7 7 7 7 7 7 7 7 7 7 7 7 7 7 7 7 7 7 7 7 7 7 7 7 7 7 7 7 7 7 7 7 7 7 7 7 7 7 7 7 7 7 7 7 7 7 7 7 7 7 7 7 7 7 7 7 7 7 7 7 7 7 7 7 7 7 7 7 7 7 7 7 7 7 7 7 7 7 7 7 7 7 7 7 7 7 7 7 
</DataArray>
</Cells>
<CellData Scalars="cell variable 4" Vectors="cell vector">
<DataArray type="Float64" NumberOfComponents="3" Name="cell vector" format="ascii">
0.127623 0.165284 0.977954
0.332427 0.464383 0.820878
0.370335 0.734064 0.569211
0.035972 0.98179 0.186532
-0.136963 0.964191 -0.227105
-0.070838 0.819322 -0.56894
-0.00958105 -0.552372 0.833543
-0.0143511 -0.194622 0.980773
0.0193603 0.195852 0.980442
0.00955648 0.553047 0.833095
-0.0727369 0.819556 0.568364
-0.138131 0.964185 0.226421
0.0332055 0.981844 -0.186763
0.363372 0.737018 -0.569881
-0.318787 -0.469717 0.823251
-0.131942 -0.163543 0.977673
0.0439283 0.192252 0.980362
0.120868 0.545818 0.82914
0.141084 0.820687 0.553686
0.0405179 0.980031 0.194675
0.0412225 0.979697 -0.196198
0.0620128 0.829457 -0.555118
-0.0551453 -0.554098 0.830623
-0.0214728 -0.194456 0.980676
0.0219179 0.195127 0.980533
0.0546406 0.554726 0.830237
0.060912 0.829928 0.554535
0.0404696 0.979872 0.195481
0.0398803 0.979909 -0.195416
0.14055 0.820346 -0.554327
-0.120595 -0.545223 0.829571
-0.0457598 -0.191348 0.980455
0.0425963 0.192068 0.980457
0.119886 0.545405 0.829554
0.152398 0.818695 0.553636
-0.00255025 0.980837 0.194812
0.0515492 0.979525 -0.194611
0.072795 0.828653 -0.555009
-0.0579394 -0.553284 0.830975
-0.0218179 -0.194054 0.980748
0.0211631 0.194821 0.980611
0.0575003 0.5539 0.830595
0.0725067 0.829062 0.554436
0.0513009 0.979686 0.193866
-0.0027457 0.98068 -0.195598
0.152419 0.818316 -0.554191
-0.120046 -0.544773 0.829946
-0.0436 -0.191151 0.980592
0.0439718 0.191069 0.980591
0.126946 0.542503 0.830406
0.1806 0.812387 0.554447
-0.564388 0.812801 0.144296
0.98998 -0.140769 0.011131
0.994304 -0.106456 0.00513528
0.994716 -0.102657 0.00117168
0.994639 -0.103409 0.000259101
0.99464 -0.1034 0.000543409
0.994719 -0.102636 -0.000376276
0.99431 -0.106436 -0.00437274
0.989962 -0.140948 -0.0104074
-0.562677 0.813768 -0.145522
0.180741 0.812025 -0.55493
-0.127165 -0.541875 0.830783
-0.0447875 -0.190077 0.980747
0.0446057 0.189786 0.980812
0.128613 0.539734 0.831953
0.191207 0.808779 0.556163
-0.294833 0.939875 0.17236
0.981107 -0.193297 0.00806098
0.986437 -0.164101 0.00352451
0.987225 -0.15933 -7.39859e-06
0.987198 -0.159499 -0.000163137
0.987198 -0.159496 0.000954491
0.987228 -0.159313 0.000807179
0.986443 -0.164084 -0.00273496
0.981078 -0.193477 -0.00730685
-0.293659 0.940064 -0.173331
0.191422 0.808425 -0.556603
-0.129072 -0.539071 0.832312
-0.0454267 -0.188743 0.980975
0.0489221 0.187784 0.980991
0.141497 0.534802 0.833046
0.216213 0.80186 0.557022
0.216956 0.956804 0.193535
0.971444 -0.237184 0.00631309
0.976232 -0.216687 0.00416511
0.977355 -0.211602 0.000951613
0.977453 -0.211152 0.000216358
0.977454 -0.211146 0.000597786
0.97736 -0.211585 -0.000141082
0.976235 -0.216687 -0.00337379
0.9714 -0.237383 -0.00555159
0.213926 0.957377 -0.194073
0.216378 0.801533 -0.557427
-0.142037 -0.534112 0.833396
-0.0497943 -0.18669 0.981156
0.0557376 0.185338 0.981093
0.161538 0.528126 0.83366
0.249164 0.791855 0.557569
0.35073 0.916413 0.19281
0.959667 -0.281103 0.00439751
0.963371 -0.268134 0.00442423
0.964824 -0.26289 0.00178887
0.965113 -0.261833 0.000584388
0.965115 -0.261825 0.000254275
0.96483 -0.262873 -0.00096012
0.96337 -0.268151 -0.00362522
0.959604 -0.281332 -0.00362643
0.346987 0.917734 -0.193297
0.249257 0.791564 -0.55794
-0.162097 -0.527414 0.834002
-0.056658 -0.184173 0.981259
0.0633729 0.182564 0.981149
0.18325 0.5204 0.834029
0.281686 0.780595 0.557964
0.450419 0.872054 0.191426
0.946125 -0.323788 0.00291414
0.948219 -0.317588 0.00421052
0.949677 -0.313222 0.00236481
0.950105 -0.311929 0.000893997
0.950109 -0.311919 -2.79257e-05
0.949685 -0.313203 -0.00151625
0.948211 -0.317622 -0.00340643
0.946033 -0.324063 -0.00213817
0.444902 0.874772 -0.191927
0.281735 0.780335 -0.558303
-0.183842 -0.519654 0.834363
-0.0643209 -0.181316 0.981319
0.0714276 0.179359 0.981187
0.206171 0.511344 0.834279
0.315843 0.767207 0.558243
0.524298 0.829998 0.190304
0.929777 -0.368118 0.00189711
0.930688 -0.365796 0.00360512
0.931985 -0.362488 0.002491
0.932485 -0.361208 0.00104191
0.932491 -0.361193 -0.000140264
0.931996 -0.362464 -0.00162267
0.930669 -0.365852 -0.00280608
0.929642 -0.368462 -0.00112507
0.517107 0.834372 -0.190851
0.315888 0.766967 -0.558548
-0.206805 -0.510552 0.834606
-0.0723768 -0.178022 0.981361
0.079763 0.17568 0.981211
0.229849 0.500874 0.834442
0.35079 0.751712 0.558459
0.565109 0.802749 0.190382
0.910584 -0.413321 0.00123355
0.910723 -0.413007 0.00288734
0.911778 -0.410677 0.00231868
0.912282 -0.409561 0.00107524
0.912292 -0.40954 -0.000126584
0.911795 -0.410643 -0.00142814
0.910686 -0.413095 -0.00210786
0.910363 -0.413811 -0.000488165
0.557581 0.807872 -0.190909
0.350947 0.751437 -0.558729
-0.230534 -0.500022 0.834764
-0.0806637 -0.174266 0.981389
0.0882272 0.171505 0.981225
0.253705 0.489044 0.834548
0.385658 0.734298 0.558636
0.594973 0.780748 0.190891
0.888767 -0.458358 0.000755735
0.888313 -0.459234 0.00218263
0.889076 -0.457756 0.00200862
0.889533 -0.45687 0.00104394
0.88955 -0.456837 -4.58414e-05
0.889106 -0.4577 -0.00109505
0.888253 -0.459353 -0.00144256
0.888356 -0.459156 -9.05597e-05
0.589098 0.785089 -0.19131
0.386198 0.733834 -0.558873
-0.254458 -0.488106 0.834867
-0.0889819 -0.170073 0.981406
0.0967725 0.166768 0.981236
0.277388 0.475893 0.834615
0.419477 0.715405 0.55878
0.615181 0.764723 0.191706
0.864605 -0.502452 0.000317212
0.863435 -0.504458 0.0015917
0.863898 -0.503664 0.00171005
0.864293 -0.502987 0.000982341
0.864324 -0.502935 4.73322e-05
0.863963 -0.503555 -0.000765214
0.863375 -0.504561 -0.00088059
0.863781 -0.503868 0.000172255
0.615362 0.764534 -0.191876
0.421132 0.714257 -0.559003
-0.278168 -0.474867 0.834939
-0.0971628 -0.165478 0.981416
0.105403 0.161394 0.981245
0.301295 0.461031 0.834669
0.452426 0.695 0.558825
0.64182 0.742389 0.192163
0.838007 -0.54566 -0.000136639
0.835929 -0.548836 0.00126551
0.836246 -0.548352 0.00147145
0.836618 -0.547786 0.000849788
0.836669 -0.54771 4.70773e-05
0.836396 -0.548125 -0.000559953
0.836065 -0.54863 -0.000489088
0.836901 -0.547355 0.000387844
0.638496 0.745167 -0.192481
0.455259 0.692907 -0.559123
-0.30165 -0.460183 0.835008
-0.105307 -0.160332 0.98143
0.113976 0.155628 0.981218
0.326343 0.443716 0.834635
0.489193 0.669786 0.558638
0.814055 -0.580784 0.00195591
0.806556 -0.591158 -0.000509097
0.805424 -0.592699 0.00099658
0.806204 -0.591636 0.000973842
0.806643 -0.591038 0.000482301
0.806701 -0.59096 -5.83805e-05
0.806481 -0.59126 -0.000436644
0.806287 -0.591525 -0.00027758
0.807695 -0.5896 0.000645881
0.659601 0.726411 -0.19301
0.488387 0.669954 -0.559142
-0.325294 -0.443618 0.835097
-0.113717 -0.154214 0.981472
0.122058 0.149651 0.981176
0.349278 0.426153 0.834505
0.524802 0.642594 0.558261
0.772705 -0.634764 -0.00119484
0.773697 -0.633556 -0.000373829
0.773847 -0.633372 0.000261374
0.774315 -0.6328 0.000273543
0.774477 -0.632602 0.000311565
0.774483 -0.632594 0.000399004
0.774316 -0.632799 0.000425566
0.77375 -0.633491 0.000382666
0.773302 -0.634037 0.00101518
0.755696 -0.654883 0.0071259
0.525123 0.641784 -0.558891
-0.349468 -0.42492 0.835054
-0.121918 -0.147724 0.981486
0.128853 0.143763 0.981188
0.368751 0.409589 0.834422
0.556895 0.615259 0.557964
0.749056 -0.662505 0.00188375
0.741692 -0.670739 -0.00113637
0.740728 -0.671802 -0.00192067
0.739285 -0.673392 -0.00112697
0.738669 -0.674068 -9.84898e-05
0.73861 -0.674132 0.000946345
0.738993 -0.67371 0.00184794
0.739816 -0.672805 0.00244522
0.740802 -0.67172 0.00229223
0.745152 -0.666894 0.000444005
0.556527 0.615205 -0.558392
-0.369964 -0.407614 0.834852
-0.129351 -0.141575 0.98144
0.136138 0.136765 0.981204
0.3904 0.389183 0.834341
0.590506 0.58329 0.557742
0.714591 -0.699539 0.00215203
-0.703295 0.710897 0.0010171
-0.703789 0.710406 0.00201402
-0.702606 0.711577 0.00147008
-0.701961 0.712216 0.000405172
-0.701912 0.712264 -0.000775549
-0.702469 0.711712 -0.00183502
-0.703717 0.710476 -0.00251138
-0.704642 0.709561 -0.001932
0.711583 -0.702602 -0.000744578
0.587884 0.585778 -0.557904
-0.390517 -0.388395 0.834653
-0.136669 -0.13477 0.981406
0.143861 0.128815 0.981178
0.412071 0.366513 0.834186
0.621042 0.550909 0.5575
-0.647385 0.762148 0.00489304
-0.662277 0.749259 -0.000154526
-0.664718 0.747094 0.000421068
-0.66488 0.74695 0.000659038
-0.664646 0.747158 0.000204921
-0.664624 0.747178 -0.000486488
-0.664843 0.746982 -0.0010122
-0.664833 0.746991 -0.000949286
-0.663169 0.74847 -0.000506364
-0.646569 0.762835 -0.00550592
0.619972 0.55205 -0.557562
-0.411945 -0.365995 0.834475
-0.143849 -0.127221 0.981388
0.150559 0.121104 0.981155
0.430301 0.345168 0.834086
0.646505 0.520966 0.557338
-0.606537 0.795043 0.00432132
-0.623211 0.782054 -0.000228676
-0.624374 0.781125 0.000323577
-0.624198 0.781266 0.00056019
-0.623868 0.78153 0.000165799
-0.623859 0.781536 -0.000465634
-0.6242 0.781264 -0.000923118
-0.624498 0.781026 -0.000798683
-0.623736 0.781635 -0.000276997
-0.606751 0.794878 -0.00463023
0.6462 0.521313 -0.557368
-0.430231 -0.344584 0.834364
-0.150239 -0.119713 0.981375
0.156694 0.113125 0.981147
0.44755 0.322596 0.834045
0.672262 0.487371 0.557255
-0.557146 0.830395 0.00568924
-0.581024 0.813886 -0.000115415
-0.58215 0.813081 0.000666927
-0.581681 0.813417 0.000807971
-0.581209 0.813754 0.000238621
-0.581211 0.813753 -0.000564351
-0.581703 0.8134 -0.00116958
-0.582256 0.813005 -0.00108558
-0.581355 0.81365 -0.000303705
-0.557706 0.830018 -0.00589605
0.672254 0.487369 -0.557267
-0.447517 -0.321939 0.834316
-0.156213 -0.111826 0.981373
0.1624 0.104879 0.981135
0.46365 0.299187 0.833976
0.696064 0.452824 0.557176
-0.503885 0.863737 0.00755843
-0.537245 0.843426 4.51872e-05
-0.538372 0.842706 0.00108688
-0.537533 0.843242 0.00109966
-0.536894 0.84365 0.000316325
-0.536905 0.843643 -0.00066431
-0.537569 0.843219 -0.00145475
-0.538459 0.842651 -0.00145815
-0.537487 0.843272 -0.000413719
-0.504594 0.863322 -0.00771551
0.69618 0.45265 -0.557173
-0.463626 -0.298478 0.834243
-0.161815 -0.103634 0.981364
0.167637 0.0964527 0.981119
0.47841 0.275269 0.833877
0.717735 0.417782 0.557059
-0.446341 0.894808 0.00996234
-0.492304 0.870423 0.000279088
-0.493247 0.869888 0.0015907
-0.491906 0.870647 0.00140128
-0.491081 0.871114 0.000388219
-0.491098 0.871104 -0.000740175
-0.491952 0.870621 -0.00173878
-0.493324 0.869844 -0.00191982
-0.492505 0.87031 -0.000605405
-0.447089 0.894433 -0.0100875
0.717899 0.417524 -0.557041
-0.478384 -0.27452 0.834138
-0.16697 -0.0952524 0.98135
0.172383 0.0879385 0.981097
0.491745 0.251138 0.833736
0.737218 0.382603 0.556888
-0.384018 0.923234 0.0130031
-0.446594 0.894737 0.00063464
-0.446934 0.894564 0.00218193
-0.444921 0.895568 0.00166987
-0.443911 0.896071 0.000429935
-0.443936 0.896058 -0.000784551
-0.444975 0.895541 -0.00198596
-0.446999 0.894531 -0.00247058
-0.446786 0.894641 -0.000927527
-0.384941 0.922849 -0.013066
0.737429 0.382243 -0.556856
-0.491713 -0.250352 0.833992
-0.171637 -0.0868023 0.981329
0.17661 0.0795072 0.981064
0.503579 0.227216 0.833535
0.754497 0.347673 0.556649
-0.317068 0.948256 0.0166669
-0.400637 0.916236 0.00118819
-0.399564 0.916701 0.0028383
-0.396693 0.91795 0.00183876
-0.395537 0.91845 0.000413654
-0.395568 0.918437 -0.000769413
-0.396748 0.917925 -0.00212494
-0.399616 0.916677 -0.0030864
-0.400873 0.916133 -0.00145818
-0.318302 0.947843 -0.0166389
0.754725 0.347253 -0.556601
-0.503538 -0.226394 0.833784
-0.175799 -0.0784333 0.981297
0.1803 0.0714133 0.981016
0.513822 0.20421 0.833238
0.769526 0.31358 0.556325
-0.248158 0.968503 0.0204637
-0.355151 0.934807 0.00204928
-0.351199 0.936294 0.00348073
-0.347314 0.937747 0.00180843
-0.346105 0.938196 0.000308048
-0.346144 0.938181 -0.000660028
-0.34737 0.937726 -0.00205177
-0.351234 0.93628 -0.00367635
-0.355458 0.93469 -0.00229595
-0.249783 0.968089 -0.0203275
0.76976 0.313116 -0.556262
-0.513792 -0.203307 0.833477
-0.179438 -0.0703993 0.981247
0.183458 0.0640433 0.980939
0.522417 0.183242 0.832768
0.78222 0.281261 0.5559
-0.190392 0.981464 0.0219162
-0.310931 0.950427 0.00332707
-0.301755 0.953377 0.00392378
-0.296835 0.954928 0.00144776
-0.295727 0.955273 7.1031e-05
-0.295775 0.955257 -0.000432021
-0.296881 0.954913 -0.00163768
-0.301738 0.953382 -0.00404367
-0.311312 0.950301 -0.00355297
-0.193672 0.980832 -0.0214382
0.78245 0.280785 -0.555817
-0.522438 -0.182126 0.833
-0.182574 -0.0630815 0.981166
0.186115 0.0578971 0.980821
0.529327 0.166103 0.831999
0.792104 0.253397 0.555303
-0.222992 0.974804 0.00561539
-0.268575 0.963245 0.00505918
-0.250807 0.968029 0.00383921
-0.245059 0.969508 0.00063189
-0.244241 0.969714 -0.000320881
-0.244309 0.969698 -7.89207e-05
-0.245092 0.969499 -0.00078909
-0.250628 0.968076 -0.00389146
-0.268497 0.963266 -0.00526315
-0.234517 0.972106 -0.00351631
0.792625 0.25193 -0.555227
-0.529493 -0.164459 0.83222
-0.185261 -0.0571049 0.981029
0.188277 0.0540399 0.980628
0.534631 0.155161 0.830719
0.799392 0.231332 0.554489
-0.694752 0.711689 -0.104012
-0.223029 0.974782 0.00767941
-0.195883 0.980621 0.00354573
-0.190427 0.981701 -2.13665e-05
-0.190153 0.981754 -0.000533522
-0.190248 0.981736 0.000285235
-0.190536 0.98168 4.32106e-05
-0.195951 0.980607 -0.00348293
-0.223555 0.97466 -0.00775601
-0.604817 0.791991 0.0833479
0.799697 0.230484 -0.554403
-0.53486 -0.15316 0.830943
-0.187527 -0.0534056 0.980807
0.189292 0.0547181 0.980395
0.536308 0.158933 0.828924
0.799556 0.235166 0.552637
-0.49667 0.865941 -0.0588649
-0.158956 0.987126 0.0177382
-0.128058 0.991717 0.00991002
-0.123679 0.992312 0.0045563
-0.123704 0.992318 0.00140628
-0.123714 0.992317 -0.000929082
-0.123832 0.992293 -0.00441109
-0.128555 0.991649 -0.0102458
-0.159703 0.987001 -0.018
-0.49664 0.865968 0.058718
0.800163 0.23286 -0.552735
-0.536808 -0.155466 0.829257
-0.188759 -0.0542104 0.980526
0.188406 0.050715 0.980781
0.535153 0.14666 0.831927
0.804522 0.202669 0.558274
0.98249 0.00175272 0.186306
0.97724 0.079399 -0.196717
0.825226 0.104559 -0.55504
-0.550974 -0.0780239 0.830867
-0.19345 -0.0287086 0.98069
0.193544 0.0281999 0.980686
0.550993 0.0787741 0.830783
0.825228 0.104643 0.555022
0.977212 0.0794892 0.196821
0.982529 0.000935026 -0.186109
0.805189 0.200138 -0.558225
-0.536082 -0.142548 0.832043
-0.18814 -0.0503059 0.980853
0.188676 0.0449585 0.98101
0.537104 0.128216 0.833715
0.811599 0.166368 0.560025
0.979006 0.070994 0.191071
0.976626 0.074588 -0.201588
0.824988 0.0904752 -0.557861
-0.551007 -0.0703653 0.831529
-0.193493 -0.0264136 0.980746
0.193773 0.0259526 0.980703
0.551087 0.070595 0.831456
0.824949 0.0901788 0.557967
0.976629 0.0739967 0.201792
0.97916 0.0696744 -0.190764
0.812142 0.164389 -0.559823
-0.538117 -0.124356 0.833646
-0.188491 -0.0444652 0.981068
0.180974 0.0586906 0.981735
0.50821 0.185825 0.840947
0.753894 0.299736 0.584638
0.986912 -0.00902435 0.161005
0.97303 -0.0219062 -0.229637
0.821293 0.0403695 -0.569077
-0.548394 -0.0479675 0.834843
-0.192549 -0.0188978 0.981105
0.192506 0.0179625 0.981131
0.548018 0.0438671 0.835315
0.821068 0.0375993 0.56959
0.972824 -0.0243797 0.230257
0.987222 -0.0186553 -0.158254
0.75754 0.291943 -0.583868
-0.51574 -0.168048 0.840103
-0.182141 -0.0556807 0.981695
0.000138765 0.00658182 0.999978
0.00408152 0.000544941 0.999992
</DataArray>
<DataArray type="Float64" Name="cell vector length" format="ascii">
0.171114 0.170668 0.143756 0.127025 0.164819 0.166072 0.156126 0.149087 0.148677 0.155334 0.166223 0.164889 0.12697 0.143272 0.177862 0.175468 0.423852 0.39338 0.342926 0.343989 0.385067 0.402272 0.398017 0.389427 0.388852 0.396487 0.402124 0.38517 0.34439 0.343487 0.398491 0.425616 0.536868 0.49597 0.414095 0.42327 0.494346 0.509553 0.500381 0.489741 0.489424 0.499332 0.509568 0.494563 0.423713 0.414398 0.499079 0.537685 0.580427 0.527019 0.395759 0.0682676 0.381332 0.574532 0.663751 0.699579 0.699558 0.663776 0.574273 0.381124 0.0686324 0.395892 0.52988 0.581107 0.608106 0.542518 0.373221 0.0248885 0.360913 0.562824 0.656327 0.693443 0.693385 0.65618 0.562582 0.36066 0.0252492 0.373228 0.545315 0.60871 0.623618 0.549098 0.364369 0.0376722 0.354515 0.559841 0.654915 0.692647 0.692601 0.654792 0.559612 0.354236 0.0378885 0.364317 0.552153 0.624273 0.633124 0.553186 0.355065 0.0377171 0.354482 0.558435 0.654402 0.692628 0.692587 0.654289 0.558216 0.35419 0.037958 0.35503 0.556715 0.633895 0.63941 0.556086 0.349968 0.0299095 0.355475 0.557638 0.654077 0.6927 0.692659 0.653961 0.557418 0.355183 0.0300965 0.349939 0.560202 0.640326 0.64359 0.557951 0.346596 0.0238542 0.357246 0.557367 0.65383 0.692714 0.69267 0.653701 0.557132 0.356949 0.0239611 0.346576 0.562721 0.644672 0.646225 0.559034 0.344242 0.0203419 0.35806 0.557128 0.65368 0.692742 0.692691 0.653525 0.556859 0.357764 0.0203453 0.344232 0.56452 0.6475 0.647696 0.559433 0.342365 0.0166257 0.359982 0.557633 0.653762 0.692796 0.692736 0.653569 0.557293 0.359679 0.0164212 0.342387 0.565752 0.649221 0.648303 0.559126 0.340618 0.0135768 0.362045 0.558434 0.65398 0.69289 0.692835 0.653773 0.55799 0.361636 0.0130999 0.340766 0.566533 0.650177 0.648447 0.558094 0.338633 0.00947399 0.364489 0.559405 0.654255 0.69304 0.69303 0.65414 0.558884 0.363571 0.0102832 0.339133 0.56684 0.650689 0.648698 0.556905 0.336502 0.0154108 0.366404 0.560236 0.654724 0.693463 0.693444 0.654631 0.559885 0.365863 0.00702644 0.336929 0.56645 0.651016 0.649104 0.555839 0.321535 0.0766836 0.371928 0.56144 0.655943 0.694625 0.694573 0.655817 0.561259 0.36744 0.0145229 0.335794 0.566104 0.651456 0.648979 0.55484 0.31954 0.0778418 0.379897 0.56701 0.660279 0.698463 0.698453 0.660197 0.566639 0.379517 0.0611483 0.319207 0.565712 0.651689 0.64831 0.554103 0.332019 0.0350303 0.399544 0.584897 0.673924 0.710404 0.710384 0.673775 0.584365 0.398634 0.0349599 0.332648 0.565262 0.651225 0.647775 0.553518 0.323073 0.0480393 0.407677 0.589268 0.677602 0.713691 0.713631 0.677377 0.588837 0.407246 0.0481724 0.323343 0.564466 0.65061 0.647319 0.552761 0.321955 0.0575393 0.407436 0.589594 0.678237 0.714362 0.714305 0.678037 0.589262 0.407044 0.0572256 0.322291 0.56384 0.650134 0.646474 0.551378 0.320139 0.0581186 0.407355 0.589607 0.678445 0.714639 0.714591 0.678276 0.589334 0.406945 0.0575188 0.320596 0.562832 0.649371 0.645133 0.549735 0.318727 0.0575813 0.406821 0.589591 0.678675 0.714919 0.714878 0.678527 0.589352 0.406402 0.0568211 0.319299 0.56164 0.648155 0.643261 0.547789 0.317574 0.0563086 0.405976 0.589592 0.67897 0.715241 0.715202 0.678832 0.589374 0.405562 0.0554567 0.318247 0.560147 0.646424 0.640694 0.545443 0.316751 0.054128 0.404837 0.589663 0.679345 0.715593 0.715555 0.67921 0.589462 0.404431 0.0532043 0.317518 0.558239 0.644 0.637121 0.542592 0.316517 0.0506503 0.403439 0.589888 0.679811 0.715954 0.715911 0.679671 0.589699 0.403057 0.0496684 0.31738 0.555807 0.64057 0.632021 0.539128 0.317463 0.0452012 0.401938 0.590395 0.680377 0.716289 0.716238 0.680222 0.59022 0.401599 0.0441562 0.318417 0.552737 0.635616 0.624491 0.534859 0.320803 0.0365291 0.400766 0.591399 0.68107 0.716584 0.716515 0.680883 0.591238 0.400553 0.0355717 0.321789 0.548846 0.628263 0.612773 0.528968 0.328195 0.0214289 0.401629 0.593451 0.68208 0.716994 0.716915 0.681875 0.593282 0.401366 0.0232699 0.329375 0.543479 0.616833 0.592084 0.517643 0.341859 0.0204348 0.409468 0.599129 0.685215 0.719175 0.71912 0.685067 0.59902 0.409786 0.0246843 0.341526 0.532853 0.596572 0.543035 0.478367 0.335512 0.0910616 0.457603 0.628433 0.704172 0.735768 0.736279 0.705982 0.628329 0.457548 0.092802 0.336657 0.495042 0.548248 0.503206 0.446411 0.342633 0.352253 0.428893 0.453484 0.46222 0.451505 0.44514 0.445731 0.451273 0.429062 0.353228 0.343712 0.464308 0.508941 0.454468 0.403438 0.330128 0.317157 0.367865 0.396996 0.418129 0.407839 0.39991 0.396465 0.394923 0.367852 0.317765 0.331258 0.422294 0.460641 0.205172 0.148318 0.0756911 0.0587947 0.129209 0.189193 0.2334 0.233339 0.227249 0.214775 0.189251 0.129774 0.059081 0.0736723 0.166407 0.210753 0.0367597 0.0151589 
</DataArray>
<DataArray type="Float64" Name="cell variable 4" format="ascii">
856.749 866.456 871.539 876.548 884.423 869.483 858.666 854.403 853.942 857.74 869.598 884.308 876.331 870.303 870.712 858.238 1098.79 1094.17 1090.66 1107.21 1115.3 1107.81 1102.86 1098.75 1097.78 1100.24 1107.69 1115.23 1107.19 1090.88 1102.62 1101.77 1314.49 1309.23 1302.73 1319.74 1339.58 1337.57 1337.15 1334.73 1333.77 1334.14 1337.57 1339.71 1319.96 1302.93 1317.33 1316.92 1376.1 1372.63 1370.13 1418.39 2299.56 3349.73 4251.83 4768.57 4767.15 4248.87 3347.8 2298.84 1418.48 1370.22 1381.23 1378.57 1398.97 1394.24 1392.79 1431.67 2288.52 3337.01 4251.74 4777.23 4776.23 4249.51 3335.25 2287.62 1431.72 1392.86 1403.36 1401.55 1405.75 1395.83 1388.06 1463.41 2277.82 3325.51 4245.86 4777.78 4776.99 4244.02 3323.94 2276.93 1463.43 1388.17 1405.84 1408.55 1407.22 1394.03 1382.93 1483.11 2284.06 3318.69 4239.48 4775.59 4774.9 4237.88 3317.25 2283.18 1483.19 1383.06 1405.43 1410.41 1406.99 1391.83 1379.01 1484.45 2292.41 3315.95 4233.71 4771.8 4771.15 4232.21 3314.57 2291.56 1484.53 1379.16 1404.92 1410.66 1406.73 1389.57 1374.76 1483.85 2300.15 3315.86 4229.34 4767.73 4767.1 4227.87 3314.47 2299.31 1483.9 1374.95 1404.55 1410.95 1406.4 1387.34 1370.81 1482.56 2302.85 3314.39 4225.81 4764.33 4763.67 4224.25 3312.9 2302.07 1482.59 1371.07 1404.33 1411.24 1405.94 1385.1 1367.22 1481.1 2308.6 3317.16 4224.59 4761.63 4760.9 4222.8 3315.4 2307.87 1481.07 1367.6 1404.23 1411.45 1405.57 1382.92 1363.75 1479.21 2313.64 3320.92 4224.76 4759.92 4759.07 4222.58 3318.6 2313.03 1479.44 1364.44 1404.22 1411.76 1405.67 1380.98 1359.58 1473.62 2317.53 3325.22 4225.99 4759.32 4758.43 4223.53 3322.04 2317.1 1477.36 1361.2 1404.11 1412.31 1405.56 1379.68 1357.26 1461.52 2322.17 3329.49 4227.39 4759.55 4758.95 4225.47 3325.81 2320.2 1473.17 1356.87 1403.5 1412.52 1404.36 1378.85 1358.08 1499.89 2343.95 3332.99 4229.1 4761.21 4760.83 4227.7 3329.07 2322.81 1463.09 1355.4 1403.49 1411.75 1403.43 1376.66 1355.14 1500.56 2344.24 3333.6 4230.4 4762.76 4762.14 4228.4 3329.87 2343.64 1504.62 1355.21 1404.05 1411.57 1403.02 1373.42 1349.55 1472.33 2365.84 3407.16 4325.35 4868.67 4867.78 4322.86 3403.88 2365.15 1474.29 1351.01 1403.42 1412.07 1401.61 1371.41 1348.42 1494.55 2375.04 3405.5 4325.52 4869.83 4869.01 4323.43 3403.1 2374.15 1495.02 1348.91 1402.63 1411.24 1400.32 1370.2 1348.02 1495.68 2374.57 3404.52 4326.42 4872.46 4871.8 4324.8 3402.65 2373.54 1495.41 1348.39 1402.43 1410.31 1399.78 1368.89 1346.17 1495.78 2373.42 3403.9 4328.02 4875.88 4875.36 4326.74 3402.32 2372.27 1495.14 1346.54 1402.21 1410.16 1399.15 1367.68 1344.99 1495.12 2371.24 3403.04 4330.18 4880.13 4879.69 4329.12 3401.64 2370.07 1494.3 1345.38 1402.09 1409.95 1398.5 1366.63 1344.17 1493.48 2367.83 3401.96 4333.02 4885.16 4884.75 4332.06 3400.69 2366.69 1492.55 1344.58 1402.06 1409.7 1397.85 1365.77 1343.71 1490.49 2362.98 3400.91 4336.74 4890.92 4890.5 4335.8 3399.7 2361.86 1489.47 1344.15 1402.13 1409.41 1397.12 1365.14 1343.71 1485.54 2356.57 3400.33 4341.59 4897.26 4896.78 4340.59 3399.21 2355.56 1484.48 1344.16 1402.3 1409.01 1396.25 1364.78 1344.34 1477.66 2348.75 3401.05 4347.8 4903.85 4903.25 4346.69 3400.04 2347.86 1476.49 1344.75 1402.63 1408.42 1394.91 1364.59 1345.77 1465.1 2340.27 3404.35 4355.51 4910.08 4909.29 4354.19 3403.51 2339.58 1463.8 1346.03 1403.02 1407.35 1391.53 1363.2 1346.58 1445.23 2333.36 3412.06 4364.53 4915.05 4913.97 4362.82 3411.34 2332.91 1443.92 1347.05 1402.17 1404.19 1375.66 1350.81 1337.83 1421.2 2331.61 3426.46 4374.17 4917.81 4916.42 4372.1 3425.87 2333.67 1422.6 1338.46 1389.76 1388.38 1294.16 1270.38 1255.5 1400.8 2363.78 3459.47 4393.65 4928.73 4927.07 4391.14 3458.88 2363.7 1400.04 1255.44 1306.7 1306.18 1222.67 1196.27 1175.36 1192.09 1197.25 1200.34 1230.6 1227.25 1218.7 1204.9 1200.39 1197.35 1192.27 1175.17 1230.46 1234.11 1097.84 1069.99 1045.78 1041.76 1048.99 1047.24 1079.63 1073.23 1063 1048.86 1046.92 1049 1041.86 1045.97 1100.31 1108.17 769.857 756.403 747.679 750.24 771.028 796.168 849.123 864.299 857.79 828.97 797.525 771.443 750.348 746.069 774.359 775.386 612.805 744.351 
</DataArray>
<DataArray type="Float64" Name="cell variable 5" format="ascii">
0.00238651 0.00238651 0.00238651 0.00238651 0.00238651 0.00238651 0.00238651 0.00238651 0.00238651 0.00238651 0.00238651 0.00238651 0.00238651 0.00238651 0.00238651 0.00238651 0.00238651 0.00238651 0.00238651 0.00238651 0.00238651 0.00238651 0.00238651 0.00238651 0.00238651 0.00238651 0.00238651 0.00238651 0.00238651 0.00238651 0.00238651 0.00238651 0.00238651 0.00238651 0.00238651 0.00238651 0.00238651 0.00238651 0.00238651 0.00238651 0.00238651 0.00238651 0.00238651 0.00238651 0.00238651 0.00238651 0.00238651 0.00238651 0.00360681 0.00333899 0.00290677 0.0024947 0.00238651 0.00238651 0.00238651 0.00238651 0.00238651 0.00238651 0.00238651 0.00238651 0.0024947 0.00290677 0.00333899 0.00360681 0.00408093 0.00370917 0.00310883 0.0025366 0.00238651 0.00238651 0.00238651 0.00238651 0.00238651 0.00238651 0.00238651 0.00238651 0.0025366 0.00310883 0.00370917 0.00408093 0.00435565 0.00392396 0.00322603 0.00256099 0.00238651 0.00238651 0.00238651 0.00238651 0.00238651 0.00238651 0.00238651 0.00238651 0.00256099 0.00322603 0.00392396 0.00435565 0.00455559 0.00407934 0.00331142 0.00257902 0.00238651 0.00238651 0.00238651 0.00238651 0.00238651 0.00238651 0.00238651 0.00238651 0.00257902 0.00331142 0.00407934 0.00455559 0.0047115 0.00420132 0.00337771 0.00259281 0.00238651 0.00238651 0.00238651 0.00238651 0.00238651 0.00238651 0.00238651 0.00238651 0.00259281 0.00337771 0.00420132 0.0047115 0.00483719 0.00429943 0.00343127 0.00260395 0.00238651 0.00238651 0.00238651 0.00238651 0.00238651 0.00238651 0.00238651 0.00238651 0.00260395 0.00343127 0.00429943 0.00483719 0.00494008 0.00437951 0.00347529 0.00261296 0.00238651 0.00238651 0.00238651 0.00238651 0.00238651 0.00238651 0.00238651 0.00238651 0.00261296 0.00347529 0.00437951 0.00494008 0.00502334 0.00444474 0.00351082 0.00262039 0.00238651 0.00238651 0.00238651 0.00238651 0.00238651 0.00238651 0.00238651 0.00238651 0.00262039 0.00351082 0.00444474 0.00502334 0.00509016 0.00449725 0.00353946 0.00262622 0.00238651 0.00238651 0.00238651 0.00238651 0.00238651 0.00238651 0.00238651 0.00238651 0.00262622 0.00353946 0.00449725 0.00509016 0.00514214 0.00453755 0.00356121 0.002631 0.00238651 0.00238651 0.00238651 0.00238651 0.00238651 0.00238651 0.00238651 0.00238651 0.002631 0.00356121 0.00453755 0.00514214 0.00518032 0.00456725 0.00357765 0.00263418 0.00238651 0.00238651 0.00238651 0.00238651 0.00238651 0.00238651 0.00238651 0.00238651 0.00263418 0.00357765 0.00456725 0.00518032 0.00520578 0.00458688 0.00358825 0.00263683 0.00238651 0.00238651 0.00238651 0.00238651 0.00238651 0.00238651 0.00238651 0.00238651 0.00263683 0.00358825 0.00458688 0.00520578 0.00521797 0.00459695 0.00359356 0.00263789 0.00238651 0.00238651 0.00238651 0.00238651 0.00238651 0.00238651 0.00238651 0.00238651 0.00263789 0.00359356 0.00459695 0.00521797 0.00521797 0.00459695 0.00359356 0.00263789 0.00238651 0.00238651 0.00238651 0.00238651 0.00238651 0.00238651 0.00238651 0.00238651 0.00263789 0.00359356 0.00459695 0.00521797 0.00520578 0.00458688 0.00358825 0.00263683 0.00238651 0.00238651 0.00238651 0.00238651 0.00238651 0.00238651 0.00238651 0.00238651 0.00263683 0.00358825 0.00458688 0.00520578 0.00518032 0.00456725 0.00357765 0.00263418 0.00238651 0.00238651 0.00238651 0.00238651 0.00238651 0.00238651 0.00238651 0.00238651 0.00263418 0.00357765 0.00456725 0.00518032 0.00514214 0.00453755 0.00356121 0.002631 0.00238651 0.00238651 0.00238651 0.00238651 0.00238651 0.00238651 0.00238651 0.00238651 0.002631 0.00356121 0.00453755 0.00514214 0.00509016 0.00449725 0.00353946 0.00262622 0.00238651 0.00238651 0.00238651 0.00238651 0.00238651 0.00238651 0.00238651 0.00238651 0.00262622 0.00353946 0.00449725 0.00509016 0.00502334 0.00444474 0.00351082 0.00262039 0.00238651 0.00238651 0.00238651 0.00238651 0.00238651 0.00238651 0.00238651 0.00238651 0.00262039 0.00351082 0.00444474 0.00502334 0.00494008 0.00437951 0.00347529 0.00261296 0.00238651 0.00238651 0.00238651 0.00238651 0.00238651 0.00238651 0.00238651 0.00238651 0.00261296 0.00347529 0.00437951 0.00494008 0.00483719 0.00429943 0.00343127 0.00260395 0.00238651 0.00238651 0.00238651 0.00238651 0.00238651 0.00238651 0.00238651 0.00238651 0.00260395 0.00343127 0.00429943 0.00483719 0.0047115 0.00420132 0.00337771 0.00259281 0.00238651 0.00238651 0.00238651 0.00238651 0.00238651 0.00238651 0.00238651 0.00238651 0.00259281 0.00337771 0.00420132 0.0047115 0.00455559 0.00407934 0.00331142 0.00257902 0.00238651 0.00238651 0.00238651 0.00238651 0.00238651 0.00238651 0.00238651 0.00238651 0.00257902 0.00331142 0.00407934 0.00455559 0.00435565 0.00392396 0.00322603 0.00256099 0.00238651 0.00238651 0.00238651 0.00238651 0.00238651 0.00238651 0.00238651 0.00238651 0.00256099 0.00322603 0.00392396 0.00435565 0.00408093 0.00370917 0.00310883 0.0025366 0.00238651 0.00238651 0.00238651 0.00238651 0.00238651 0.00238651 0.00238651 0.00238651 0.0025366 0.00310883 0.00370917 0.00408093 0.00360681 0.00333899 0.00290677 0.0024947 0.00238651 0.00238651 0.00238651 0.00238651 0.00238651 0.00238651 0.00238651 0.00238651 0.0024947 0.00290677 0.00333899 0.00360681 0.00238651 0.00238651 0.00238651 0.00238651 0.00238651 0.00238651 0.00238651 0.00238651 0.00238651 0.00238651 0.00238651 0.00238651 0.00238651 0.00238651 0.00238651 0.00238651 0.00238651 0.00238651 0.00238651 0.00238651 0.00238651 0.00238651 0.00238651 0.00238651 0.00238651 0.00238651 0.00238651 0.00238651 0.00238651 0.00238651 0.00238651 0.00238651 0.00238651 0.00238651 0.00238651 0.00238651 0.00238651 0.00238651 0.00238651 0.00238651 0.00238651 0.00238651 0.00238651 0.00238651 0.00238651 0.00238651 0.00238651 0.00238651 0.00238651 0.00238651 
</DataArray>
<DataArray type="Float64" Name="cell variable 6" format="ascii">
1 1 1 1 1 1 1 1 1 1 1 1 1 1 1 1 1 1 1 1 1 1 1 1 1 1 1 1 1 1 1 1 1 1 1 1 1 1 1 1 1 1 1 1 1 1 1 1 1 1 1 1 1 1 1 1 1 1 1 1 1 1 1 1 1 1 1 1 1 1 1 1 1 1 1 1 1 1 1 1 1 1 1 1 1 1 1 1 1 1 1 1 1 1 1 1 1 1 1 1 1 1 1 1 1 1 1 1 1 1 1 1 1 1 1 1 1 1 1 1 1 1 1 1 1 1 1 1 1 1 1 1 1 1 1 1 1 1 1 1 1 1 1 1 1 1 1 1 1 1 1 1 1 1 1 1 1 1 1 1 1 1 1 1 1 1 1 1 1 1 1 1 1 1 1 1 1 1 1 1 1 1 1 1 1 1 1 1 1 1 1 1 1 1 1 1 1 1 1 1 1 1 1 1 1 1 1 1 1 1 1 1 1 1 1 1 1 1 1 1 1 1 1 1 1 1 1 1 1 1 1 1 1 1 1 1 1 1 1 1 1 1 1 1 1 1 1 1 1 1 1 1 1 1 1 1 1 1 1 1 1 1 1 1 1 1 1 1 1 1 1 1 1 1 1 1 1 1 1 1 1 1 1 1 1 1 1 1 1 1 1 1 1 1 1 1 1 1 1 1 1 1 1 1 1 1 1 1 1 1 1 1 1 1 1 1 1 1 1 1 1 1 1 1 1 1 1 1 1 1 1 1 1 1 1 1 1 1 1 1 1 1 1 1 1 1 1 1 1 1 1 1 1 1 1 1 1 1 1 1 1 1 1 1 1 1 1 1 1 1 1 1 1 1 1 1 1 1 1 1 1 1 1 1 1 1 1 1 1 1 1 1 1 1 1 1 1 1 1 1 1 1 1 1 1 1 1 1 1 1 1 1 1 1 1 1 1 1 1 1 1 1 1 1 1 1 1 1 1 1 1 1 1 1 1 1 1 1 1 1 1 1 1 1 1 1 1 1 1 1 1 1 1 1 1 1 1 1 1 1 1 1 1 1 1 1 1 1 1 1 1 1 1 1 1 1 1 1 1 1 1 1 1 1 1 1 1 1 1 1 1 1 1 1 1 1 1 1 1 1 1 1 1 1 1 1 1 1 1 1 1 1 1 1 
</DataArray>
<DataArray type="Float64" Name="cell variable 7" format="ascii">
0 0 0 0 0 0 0 0 0 0 0 0 0 0 0 0 0 0 0 0 0 0 0 0 0 0 0 0 0 0 0 0 0 0 0 0 0 0 0 0 0 0 0 0 0 0 0 0 0 0 0 0 0 0 0 0 0 0 0 0 0 0 0 0 0 0 0 0 0 0 0 0 0 0 0 0 0 0 0 0 0 0 0 0 0 0 0 0 0 0 0 0 0 0 0 0 0 0 0 0 0 0 0 0 0 0 0 0 0 0 0 0 0 0 0 0 0 0 0 0 0 0 0 0 0 0 0 0 0 0 0 0 0 0 0 0 0 0 0 0 0 0 0 0 0 0 0 0 0 0 0 0 0 0 0 0 0 0 0 0 0 0 0 0 0 0 0 0 0 0 0 0 0 0 0 0 0 0 0 0 0 0 0 0 0 0 0 0 0 0 0 0 0 0 0 0 0 0 0 0 0 0 0 0 0 0 0 0 0 0 0 0 0 0 0 0 0 0 0 0 0 0 0 0 0 0 0 0 0 0 0 0 0 0 0 0 0 0 0 0 0 0 0 0 0 0 0 0 0 0 0 0 0 0 0 0 0 0 0 0 0 0 0 0 0 0 0 0 0 0 0 0 0 0 0 0 0 0 0 0 0 0 0 0 0 0 0 0 0 0 0 0 0 0 0 0 0 0 0 0 0 0 0 0 0 0 0 0 0 0 0 0 0 0 0 0 0 0 0 0 0 0 0 0 0 0 0 0 0 0 0 0 0 0 0 0 0 0 0 0 0 0 0 0 0 0 0 0 0 0 0 0 0 0 0 0 0 0 0 0 0 0 0 0 0 0 0 0 0 0 0 0 0 0 0 0 0 0 0 0 0 0 0 0 0 0 0 0 0 0 0 0 0 0 0 0 0 0 0 0 0 0 0 0 0 0 0 0 0 0 0 0 0 0 0 0 0 0 0 0 0 0 0 0 0 0 0 0 0 0 0 0 0 0 0 0 0 0 0 0 0 0 0 0 0 0 0 0 0 0 0 0 0 0 0 0 0 0 0 0 0 0 0 0 0 0 0 0 0 0 0 0 0 0 0 0 0 0 0 0 0 0 0 0 0 0 0 0 0 0 0 0 0 0 0 0 0 0 0 0 0 0 0 0 0 0 0 0 0 0 0 0 1 1 
</DataArray>
<DataArray type="Float64" Name="cell variable 8" format="ascii">
11.25 33.75 56.25 78.75 101.25 123.75 146.25 168.75 191.25 213.75 236.25 258.75 281.25 303.75 326.25 348.75 11.25 33.75 56.25 78.75 101.25 123.75 146.25 168.75 191.25 213.75 236.25 258.75 281.25 303.75 326.25 348.75 11.25 33.75 56.25 78.75 101.25 123.75 146.25 168.75 191.25 213.75 236.25 258.75 281.25 303.75 326.25 348.75 11.25 33.75 56.25 78.75 101.25 123.75 146.25 168.75 191.25 213.75 236.25 258.75 281.25 303.75 326.25 348.75 11.25 33.75 56.25 78.75 101.25 123.75 146.25 168.75 191.25 213.75 236.25 258.75 281.25 303.75 326.25 348.75 11.25 33.75 56.25 78.75 101.25 123.75 146.25 168.75 191.25 213.75 236.25 258.75 281.25 303.75 326.25 348.75 11.25 33.75 56.25 78.75 101.25 123.75 146.25 168.75 191.25 213.75 236.25 258.75 281.25 303.75 326.25 348.75 11.25 33.75 56.25 78.75 101.25 123.75 146.25 168.75 191.25 213.75 236.25 258.75 281.25 303.75 326.25 348.75 11.25 33.75 56.25 78.75 101.25 123.75 146.25 168.75 191.25 213.75 236.25 258.75 281.25 303.75 326.25 348.75 11.25 33.75 56.25 78.75 101.25 123.75 146.25 168.75 191.25 213.75 236.25 258.75 281.25 303.75 326.25 348.75 11.25 33.75 56.25 78.75 101.25 123.75 146.25 168.75 191.25 213.75 236.25 258.75 281.25 303.75 326.25 348.75 11.25 33.75 56.25 78.75 101.25 123.75 146.25 168.75 191.25 213.75 236.25 258.75 281.25 303.75 326.25 348.75 11.25 33.75 56.25 78.75 101.25 123.75 146.25 168.75 191.25 213.75 236.25 258.75 281.25 303.75 326.25 348.75 11.25 33.75 56.25 78.75 101.25 123.75 146.25 168.75 191.25 213.75 236.25 258.75 281.25 303.75 326.25 348.75 11.25 33.75 56.25 78.75 101.25 123.75 146.25 168.75 191.25 213.75 236.25 258.75 281.25 303.75 326.25 348.75 11.25 33.75 56.25 78.75 101.25 123.75 146.25 168.75 191.25 213.75 236.25 258.75 281.25 303.75 326.25 348.75 11.25 33.75 56.25 78.75 101.25 123.75 146.25 168.75 191.25 213.75 236.25 258.75 281.25 303.75 326.25 348.75 11.25 33.75 56.25 78.75 101.25 123.75 146.25 168.75 191.25 213.75 236.25 258.75 281.25 303.75 326.25 348.75 11.25 33.75 56.25 78.75 101.25 123.75 146.25 168.75 191.25 213.75 236.25 258.75 281.25 303.75 326.25 348.75 11.25 33.75 56.25 78.75 101.25 123.75 146.25 168.75 191.25 213.75 236.25 258.75 281.25 303.75 326.25 348.75 11.25 33.75 56.25 78.75 101.25 123.75 146.25 168.75 191.25 213.75 236.25 258.75 281.25 303.75 326.25 348.75 11.25 33.75 56.25 78.75 101.25 123.75 146.25 168.75 191.25 213.75 236.25 258.75 281.25 303.75 326.25 348.75 11.25 33.75 56.25 78.75 101.25 123.75 146.25 168.75 191.25 213.75 236.25 258.75 281.25 303.75 326.25 348.75 11.25 33.75 56.25 78.75 101.25 123.75 146.25 168.75 191.25 213.75 236.25 258.75 281.25 303.75 326.25 348.75 11.25 33.75 56.25 78.75 101.25 123.75 146.25 168.75 191.25 213.75 236.25 258.75 281.25 303.75 326.25 348.75 11.25 33.75 56.25 78.75 101.25 123.75 146.25 168.75 191.25 213.75 236.25 258.75 281.25 303.75 326.25 348.75 11.25 33.75 56.25 78.75 101.25 123.75 146.25 168.75 191.25 213.75 236.25 258.75 281.25 303.75 326.25 348.75 11.25 33.75 56.25 78.75 101.25 123.75 146.25 168.75 191.25 213.75 236.25 258.75 281.25 303.75 326.25 348.75 11.25 33.75 56.25 78.75 101.25 123.75 146.25 168.75 191.25 213.75 236.25 258.75 281.25 303.75 326.25 348.75 11.25 33.75 56.25 78.75 101.25 123.75 146.25 168.75 191.25 213.75 236.25 258.75 281.25 303.75 326.25 348.75 11.25 33.75 56.25 78.75 101.25 123.75 146.25 168.75 191.25 213.75 236.25 258.75 281.25 303.75 326.25 348.75 11.25 33.75 56.25 78.75 101.25 123.75 146.25 168.75 191.25 213.75 236.25 258.75 281.25 303.75 326.25 348.75 0 0 
</DataArray>
</CellData>
</Piece>
</UnstructuredGrid>
</VTKFile>
