<VTKFile type="UnstructuredGrid" version="0.1">
<UnstructuredGrid>
<Piece  NumberOfPoints="    2080" NumberOfCells="     514">
<Points>
<DataArray type="Float64" NumberOfComponents="3" format="ascii">
-73.9689 1004.36 1.01968
-70.0166 1007.62 26.7882
-55.7403 981.991 28.9321
-60.0544 978.476 1.06695
-69.1281 1008.34 29.5409
-57.7616 1017.51 51.3669
-42.5202 992.619 55.253
-54.8518 982.71 31.6847
-56.1153 1018.83 53.4691
-39.063 1032.48 68.006
-22.4063 1008.69 73.0495
-40.8738 993.939 57.3552
-36.913 1034.2 69.1389
-16.8542 1050.3 74.1984
1.48775 1027.79 79.6484
-20.2563 1010.41 74.1824
-14.5376 1052.17 74.1937
5.4063 1068.36 69.053
25.4076 1047.18 74.1003
3.80439 1029.66 79.6438
7.53056 1070.11 67.9173
24.2943 1084.08 53.3848
45.6668 1064.16 57.2955
27.5318 1048.93 72.9646
25.9057 1085.45 51.285
37.0152 1095.03 29.5046
59.2381 1075.98 31.6107
47.2782 1065.53 55.1957
37.8807 1095.78 26.7516
41.7705 1099.19 0.978739
64.2724 1080.45 0.987292
60.1036 1076.74 28.8577
41.7706 1099.19 -2.00502
37.883 1095.78 -27.7782
60.1084 1076.73 -29.8586
64.2725 1080.45 -1.99647
37.0185 1095.02 -30.5301
25.9203 1085.41 -52.306
47.3061 1065.49 -56.1709
59.2439 1075.97 -32.6105
24.3112 1084.04 -54.4043
7.56667 1070.03 -68.9229
27.5829 1048.86 -73.9261
45.697 1064.12 -58.2691
5.44424 1068.28 -70.0573
-14.4871 1052.06 -75.184
3.87111 1029.56 -80.5926
25.4604 1047.1 -75.0605
-16.8026 1050.19 -75.1872
-36.8543 1034.09 -70.1142
-20.1779 1010.3 -75.117
1.55564 1027.69 -80.5957
-39.0025 1032.37 -68.9796
-56.0244 1018.7 -54.4201
-40.7855 993.837 -58.2701
-22.3261 1008.58 -73.9824
-57.6707 1017.38 -52.3153
-69.0418 1008.24 -30.4834
-54.7958 982.635 -32.5517
-42.4317 992.518 -56.1653
-69.9352 1007.53 -27.7282
-73.9654 1004.36 -1.96279
-60.0509 978.471 -1.91552
-55.6893 981.922 -29.7966
-58.1938 975.613 1.14489
-53.8797 979.127 29.01
-34.2616 953.019 29.6362
-38.6835 949.45 1.17249
-40.6123 989.789 55.4671
-20.7132 963.829 56.6084
-33.3257 953.771 32.525
-52.9439 979.879 31.8989
-20.4139 1005.92 73.3673
-0.0971359 980.179 74.8775
-18.9823 965.21 58.8143
-38.8814 991.169 57.673
3.58995 1025.1 80.0232
24.4084 999.624 81.6935
2.16268 981.978 76.0674
-18.1541 1007.72 74.5572
27.6283 1044.58 74.4764
48.9297 1019.41 76.0365
26.8435 1001.58 81.6901
6.02514 1027.05 80.0199
47.9884 1061.65 57.6173
69.514 1036.91 58.8144
51.1548 1021.25 74.8465
29.8534 1046.42 73.2863
61.6282 1073.55 31.8271
83.1923 1049.17 32.4628
71.1939 1038.36 56.6092
49.6682 1063.1 55.4121
66.6956 1078.06 1.06354
88.2685 1053.8 1.08147
84.091 1049.97 29.5696
62.5269 1074.35 28.9339
62.5318 1074.34 -29.9316
84.0986 1049.94 -30.5231
88.2687 1053.8 -2.05151
66.6958 1078.06 -2.06945
49.697 1063.06 -56.3824
71.2331 1038.31 -57.5181
83.2016 1049.13 -33.4135
61.6348 1073.53 -32.822
29.9057 1046.34 -74.2421
51.2121 1021.17 -75.7458
69.5559 1036.86 -59.7208
48.0199 1061.61 -58.5851
6.09296 1026.95 -80.9632
26.9133 1001.48 -82.5791
48.9887 1019.33 -76.9348
27.6823 1044.5 -75.4311
-18.0747 1007.61 -75.4866
2.23922 981.873 -76.9446
24.4793 999.523 -82.5813
3.65891 1025 -80.9654
-38.7932 991.069 -58.583
-18.9074 965.117 -59.6806
-0.0199774 980.074 -75.7533
-20.3339 1005.81 -74.2953
-52.8901 979.807 -32.76
-33.2913 953.702 -33.3355
-20.6401 963.738 -57.4711
-40.526 989.69 -56.3736
-53.8301 979.06 -29.8672
-58.1917 975.609 -1.98617
-38.6814 949.447 -1.95857
-34.2314 952.955 -30.4427
-36.4608 946.588 1.19461
-32.0389 950.157 29.6583
-11.4966 924.654 29.7809
-15.9535 921.09 1.21831
-31.0885 950.914 32.5831
-18.476 960.971 56.6665
2.16177 935.449 56.8711
-10.5462 925.411 32.7057
-16.7184 962.36 58.9006
2.16677 977.33 74.9637
22.9607 951.762 75.2153
3.91936 936.838 59.1052
4.46228 979.139 76.1695
26.708 996.785 81.7956
47.6974 971.139 82.0481
25.2562 953.571 76.4211
29.1813 998.752 81.7922
51.2675 1016.58 76.1387
72.4427 990.856 76.3575
50.1707 973.106 82.0448
53.5102 1018.45 74.9344
71.8694 1034.11 58.9023
92.8751 1008.72 59.0602
74.6855 992.72 75.1532
73.5477 1035.6 56.6692
85.5461 1046.41 32.5228
106.393 1021.38 32.652
94.5534 1010.21 56.8271
86.4411 1047.24 29.5928
90.6185 1051.07 1.10463
111.423 1026.17 1.13927
107.288 1022.21 29.722
90.6192 1051.07 -2.06875
86.4491 1047.2 -30.5403
107.306 1022.17 -30.6069
111.424 1026.17 -2.0341
85.5564 1046.37 -33.4676
73.5879 1035.55 -57.5722
94.596 1010.14 -57.6845
106.413 1021.34 -33.5342
71.9117 1034.06 -59.8029
53.5679 1018.36 -75.8279
74.7391 992.634 -76.0005
92.9198 1008.65 -59.9153
51.3264 1016.5 -77.0313
29.251 998.651 -82.6756
50.2342 973.004 -82.8813
72.4975 990.768 -77.2039
26.7784 996.684 -82.6779
4.53836 979.033 -77.0412
25.3239 953.466 -77.2464
47.7616 971.036 -82.8835
2.24288 977.225 -75.8344
-16.6445 962.268 -59.7616
3.98166 936.748 -59.9224
23.0284 951.657 -76.0396
-18.4045 960.88 -57.5241
-31.0557 950.844 -33.3884
-10.5243 925.343 -33.4656
2.2217 935.361 -57.6848
-32.0095 950.092 -30.4594
-36.4595 946.584 -1.97527
-15.9523 921.086 -1.95157
-11.4781 924.591 -30.5366
-13.6864 918.262 1.22489
-9.22945 921.827 29.7875
11.1017 896.39 29.8264
6.57323 892.886 1.24621
-8.26749 922.577 32.7187
4.44053 932.616 56.8841
24.9567 907.016 56.9199
12.0637 897.141 32.7575
6.21787 933.993 59.1204
25.2592 948.916 75.2305
46.0217 923.087 75.2355
26.734 908.393 59.1562
27.5789 950.708 76.4347
50.0201 968.276 82.0618
71.0469 942.182 82.028
48.3414 924.878 76.4397
52.5198 970.223 82.0554
74.7917 987.974 76.3682
96.1043 961.6 76.3354
73.5466 944.129 82.0217
77.0673 989.826 75.1522
95.257 1005.83 59.0592
117.168 978.798 58.9982
98.3799 963.452 75.1194
96.9518 1007.3 56.8222
108.791 1018.47 32.6471
131.206 991 32.6437
118.863 980.275 56.7612
109.695 1019.3 29.7229
113.83 1023.26 1.14018
136.428 995.64 1.1744
132.109 991.822 29.7195
113.831 1023.26 -2.02755
109.713 1019.25 -30.6003
132.127 991.788 -30.5363
136.429 995.638 -1.99333
108.811 1018.43 -33.5235
96.9945 1007.24 -57.6738
118.898 980.21 -57.5711
131.226 990.963 -33.4594
95.3012 1005.76 -59.9095
77.1204 989.74 -75.9947
98.4281 963.363 -75.9191
117.205 978.731 -59.8068
74.8459 987.886 -77.2096
52.5826 970.121 -82.887
73.6037 944.026 -82.8102
96.1536 961.509 -77.134
50.0836 968.173 -82.8922
27.6459 950.603 -77.2551
48.4014 924.775 -77.2176
71.1047 942.078 -82.8155
25.3259 948.812 -76.05
6.27919 933.903 -59.9327
26.7873 908.305 -59.9271
46.0815 922.984 -76.0125
4.49943 932.528 -57.693
-8.24661 922.51 -33.4738
12.0785 897.074 -33.4707
25.0075 906.93 -57.6874
-9.21142 921.764 -30.5383
-13.6856 918.259 -1.95328
6.57401 892.882 -1.93196
11.1137 896.328 -30.5352
8.80069 890.048 1.24928
13.3292 893.553 29.8294
33.1621 867.838 29.8548
28.5705 864.41 1.27073
14.3049 894.289 32.7614
27.1978 904.164 56.9237
47.1986 878.236 56.9498
34.1377 868.574 32.7868
28.9986 905.516 59.1591
48.2862 920.21 75.2384
68.5221 893.977 75.2624
48.9994 879.588 59.1853
50.6345 921.97 76.4404
73.34 939.273 82.0287
93.8475 912.684 82.0488
70.8703 895.737 76.4644
75.8713 941.184 82.0205
98.429 958.655 76.3342
119.246 931.658 76.346
96.3788 914.595 82.0406
100.748 960.453 75.1193
119.536 975.799 58.9981
140.805 948.246 59.0308
121.565 933.455 75.1311
121.286 977.217 56.7618
133.629 987.942 32.6442
155.286 959.929 32.6714
142.556 949.665 56.7945
134.567 988.73 29.722
138.886 992.549 1.1769
160.686 964.374 1.20228
156.224 960.717 29.7492
138.886 992.547 -1.98945
134.585 988.697 -30.5324
156.239 960.687 -30.5094
160.687 964.372 -1.96406
133.649 987.906 -33.4544
121.321 977.152 -57.566
142.586 949.603 -57.5498
155.303 959.895 -33.4313
119.572 975.732 -59.8016
100.796 960.364 -75.9139
121.61 933.367 -75.8785
140.838 948.182 -59.7854
98.4779 958.565 -77.1278
75.9279 941.081 -82.804
96.4321 914.493 -82.7789
119.292 931.568 -77.0924
73.3971 939.169 -82.8112
50.6939 921.866 -77.2134
70.925 895.636 -77.1938
93.9013 912.581 -82.7861
48.3453 920.107 -76.0107
29.0512 905.428 -59.9253
49.0468 879.503 -59.9089
68.5765 893.877 -75.9911
27.248 904.078 -57.6865
14.319 894.222 -33.4699
34.1482 868.508 -33.4526
47.2437 878.153 -57.6701
13.3409 893.49 -30.5336
8.80121 890.045 -1.93033
28.571 864.407 -1.90889
33.1701 867.776 -30.5164
30.7389 861.539 1.27338
35.3305 864.966 29.8575
54.5914 838.906 29.8819
49.9405 835.566 1.29467
36.3189 865.685 32.79
49.3799 875.347 56.9531
68.8053 849.045 56.985
55.5798 839.625 32.8145
51.2034 876.668 59.189
70.7261 891.058 75.2662
90.3952 864.404 75.3089
70.6289 850.366 59.221
73.1036 892.778 76.4682
96.0808 909.725 82.0527
116.044 882.658 82.0998
92.7727 866.125 76.5109
98.6455 911.59 82.0437
121.512 928.653 76.3491
141.804 901.126 76.3855
118.609 884.523 82.0908
123.871 930.395 75.1351
143.112 945.187 59.0348
163.779 917.152 59.0756
144.163 902.868 75.1715
144.905 946.551 56.7988
157.636 956.815 32.6757
178.624 928.348 32.7041
165.572 918.516 56.8396
158.601 957.57 29.7523
163.063 961.227 1.20539
184.171 932.601 1.22896
179.589 929.103 29.7807
163.064 961.225 -1.96176
158.615 957.54 -30.5071
179.602 929.075 -30.4885
184.172 932.599 -1.93819
157.652 956.782 -33.4302
144.935 946.49 -57.5487
165.599 918.457 -57.5431
178.638 928.317 -33.4116
143.144 945.123 -59.7842
123.916 930.308 -75.8772
144.205 902.783 -75.868
163.808 917.09 -59.7786
121.558 928.563 -77.0904
98.6984 911.489 -82.7769
118.659 884.424 -82.7794
141.848 901.038 -77.0812
96.1341 909.622 -82.785
73.1579 892.677 -77.1928
92.8234 866.026 -77.1922
116.095 882.558 -82.7876
70.78 890.957 -75.9901
51.2503 876.583 -59.9079
70.6723 850.283 -59.8973
90.4456 864.307 -75.9895
49.4245 875.264 -57.6686
36.3291 865.62 -33.4511
55.5875 839.561 -33.4331
68.8464 848.964 -57.6581
35.3384 864.905 -30.5143
30.7393 861.536 -1.9068
49.9409 835.563 -1.88552
54.5969 838.846 -30.4963
52.0442 832.656 1.29725
56.6951 835.995 29.8845
75.359 809.569 29.9083
70.6489 806.324 1.31822
57.6961 836.695 32.8178
70.9216 846.115 56.9884
89.753 819.427 57.0211
76.36 810.27 32.8416
72.7684 847.402 59.2255
92.5348 861.44 75.3134
111.62 834.368 75.3592
91.5998 820.714 59.2582
94.943 863.116 76.5162
118.215 879.649 82.105
137.61 852.125 82.1563
114.029 836.045 76.562
120.814 881.464 82.0956
144.01 898.067 76.3903
163.74 870.054 76.4321
140.21 853.94 82.1469
146.406 899.755 75.1761
166.022 914.039 59.0803
186.086 885.541 59.1177
166.136 871.743 75.2179
167.851 915.352 56.8439
180.904 925.184 32.7083
201.245 896.286 32.7353
187.915 886.855 56.8813
181.891 925.907 29.7837
186.473 929.405 1.23198
206.918 900.358 1.25453
202.233 897.01 29.8106
186.474 929.404 -1.9361
181.904 925.879 -30.4864
202.244 896.984 -30.4684
206.919 900.357 -1.91356
180.917 925.153 -33.4108
167.878 915.293 -57.5423
187.94 886.798 -57.5352
201.257 896.258 -33.3928
166.05 913.977 -59.7782
146.448 899.669 -75.8676
166.175 871.659 -75.8654
186.112 885.482 -59.7711
144.053 897.979 -77.0811
120.864 881.365 -82.7794
140.257 853.843 -82.7874
163.78 869.969 -77.0789
118.265 879.549 -82.7881
94.9934 863.018 -77.1927
114.076 835.949 -77.1962
137.657 852.028 -82.7961
92.5848 861.343 -75.9893
72.8114 847.319 -59.8971
91.6401 820.633 -59.8881
111.667 834.274 -75.9928
70.9624 846.034 -57.6567
57.7035 836.631 -33.4318
76.3655 810.207 -33.4137
89.791 819.348 -57.6477
56.7004 835.935 -30.4942
52.0444 832.653 -1.88342
70.6491 806.321 -1.86245
75.3623 809.511 -30.4761
72.6856 803.372 1.32072
77.3957 806.618 29.9108
95.4525 779.822 29.9336
90.6823 776.675 1.34123
78.4096 807.298 32.8448
91.8026 816.455 57.0243
110.031 789.382 57.0551
96.4663 780.502 32.8676
93.6733 817.705 59.2626
113.694 831.36 75.3636
132.183 803.879 75.4058
111.901 790.632 59.2934
116.134 832.988 76.5673
139.716 849.068 82.1616
158.522 821.105 82.2085
134.623 805.507 76.6095
142.351 850.83 82.1518
165.881 866.944 76.4371
185.021 838.475 76.4767
161.158 822.867 82.1988
168.313 868.578 75.2223
188.263 882.376 59.1221
207.712 853.432 59.1549
187.453 840.109 75.2619
190.125 883.642 56.8851
203.454 893.074 32.7391
223.149 863.757 32.7643
209.574 854.697 56.918
204.462 893.768 29.8135
209.148 897.116 1.25738
228.934 867.66 1.27906
224.157 864.451 29.8387
209.148 897.115 -1.91151
204.473 893.742 -30.4664
224.166 864.427 -30.4484
228.934 867.659 -1.88984
203.466 893.045 -33.3918
190.149 883.585 -57.5342
209.596 854.643 -57.5243
223.16 863.73 -33.3738
188.289 882.317 -59.7707
168.352 868.495 -75.865
187.489 840.028 -75.8622
207.735 853.375 -59.7607
165.921 866.859 -77.0791
142.398 850.733 -82.7876
161.201 822.773 -82.7927
185.058 838.393 -77.0763
139.762 848.971 -82.7967
116.181 832.893 -77.1967
134.667 805.414 -77.1977
158.566 821.011 -82.8018
113.74 831.265 -75.9925
93.7132 817.624 -59.8878
111.939 790.553 -59.8778
132.227 803.787 -75.9935
91.8404 816.376 -57.6463
78.4148 807.235 -33.4123
96.4698 780.44 -33.3942
110.066 789.305 -57.6363
77.399 806.559 -30.474
72.6857 803.369 -1.86036
90.6824 776.672 -1.83984
95.454 779.764 -30.4559
92.6512 773.683 1.34364
97.4214 776.83 29.936
114.865 749.666 29.9578
110.034 746.621 1.36361
98.4483 777.488 32.8706
112.013 786.369 57.0581
129.63 758.917 57.0861
115.892 750.324 32.8924
113.908 787.58 59.2973
134.189 800.827 75.4098
152.071 772.948 75.4466
131.525 760.128 59.3254
136.662 802.404 76.6142
160.561 818.003 82.2132
178.76 789.619 82.2538
154.543 774.525 76.651
163.232 819.708 82.2033
187.095 835.316 76.4811
205.623 806.413 76.5161
181.432 791.325 82.2438
189.562 836.895 75.2657
209.821 850.218 59.1588
228.641 820.843 59.1876
208.09 807.992 75.3007
211.713 851.437 56.9213
225.288 860.497 32.7677
244.33 830.769 32.7911
230.533 822.062 56.9502
226.314 861.164 29.8414
231.091 864.372 1.28174
250.215 834.513 1.30258
245.355 831.436 29.8648
231.091 864.371 -1.88781
226.323 861.139 -30.4464
245.364 831.413 -30.4283
250.215 834.512 -1.86696
225.298 860.47 -33.3725
211.735 851.383 -57.5229
230.553 822.01 -57.5106
244.339 830.744 -33.3544
209.845 850.162 -59.76
189.598 836.815 -75.8614
208.123 807.914 -75.8555
228.662 820.789 -59.7476
187.132 835.234 -77.0762
163.275 819.614 -82.7926
181.472 791.234 -82.7927
205.657 806.334 -77.0703
160.604 817.908 -82.8019
136.705 802.312 -77.1978
154.584 774.435 -77.1947
178.801 789.528 -82.802
134.233 800.735 -75.9929
113.945 787.501 -59.8773
131.56 760.051 -59.8658
152.111 772.858 -75.9899
112.048 786.292 -57.6348
98.4515 777.427 -33.3928
115.894 750.264 -33.3748
129.663 758.841 -57.6233
97.4228 776.772 -30.4538
92.6512 773.68 -1.83777
110.034 746.618 -1.81781
114.865 749.609 -30.4359
111.935 743.588 1.36592
116.766 746.633 29.9602
133.592 719.107 29.9809
128.7 716.168 1.38528
117.806 747.27 32.8952
131.544 755.862 57.0889
148.543 728.04 57.1142
134.632 719.744 32.9159
133.463 757.033 59.3289
154.009 769.853 75.4501
171.271 741.588 75.482
150.462 729.21 59.3542
156.513 771.378 76.6551
180.731 786.472 82.2578
198.308 757.685 82.2923
173.775 743.113 76.6869
183.438 788.119 82.2477
207.629 803.208 76.52
225.526 773.889 76.5505
201.015 759.332 82.2823
210.129 804.731 75.3041
230.681 817.582 59.191
248.856 787.794 59.2166
228.027 775.412 75.3346
232.6 818.756 56.9531
246.397 827.463 32.7941
264.777 797.333 32.816
250.775 788.968 56.9787
247.439 828.104 29.8674
252.298 831.181 1.3051
270.754 800.926 1.32515
265.82 797.974 29.8893
252.299 831.18 -1.86494
247.447 828.081 -30.4263
265.827 797.952 -30.4082
270.755 800.925 -1.84489
246.406 827.438 -33.3528
232.62 818.704 -57.509
250.794 788.918 -57.4949
264.786 797.309 -33.3347
230.702 817.528 -59.7465
210.162 804.654 -75.8544
228.057 775.338 -75.8455
248.876 787.742 -59.7324
207.663 803.128 -77.0697
183.477 788.029 -82.7921
201.052 759.244 -82.7877
225.558 773.812 -77.0608
180.771 786.38 -82.8017
156.554 771.288 -77.1943
173.813 743.025 -77.1875
198.345 757.596 -82.7972
154.049 769.763 -75.989
133.497 756.956 -59.8649
150.494 729.135 -59.8519
171.308 741.501 -75.9822
131.576 755.787 -57.6217
117.807 747.209 -33.3732
134.632 719.685 -33.3554
148.573 727.966 -57.6087
116.766 746.577 -30.4338
111.935 743.586 -1.81576
128.7 716.165 -1.7964
133.59 719.052 -30.416
130.531 713.096 1.38748
135.424 716.035 29.9831
151.626 688.156 30.0026
146.673 685.325 1.40617
136.477 716.649 32.9184
150.387 724.945 57.1167
166.762 696.76 57.1395
152.679 688.77 32.9379
152.331 726.074 59.3572
173.139 738.451 75.485
189.773 709.812 75.5125
168.705 697.889 59.38
175.676 739.922 76.6904
200.208 754.494 82.2958
217.15 725.318 82.3253
192.309 711.282 76.7179
202.95 756.082 82.2856
227.462 770.639 76.5538
244.715 740.922 76.5805
219.892 726.906 82.3151
229.995 772.106 75.3376
250.824 784.488 59.2196
268.344 754.3 59.2427
247.248 742.389 75.3642
252.769 785.617 56.9814
266.771 793.982 32.8187
284.482 763.461 32.8393
270.289 755.429 57.0045
267.829 794.597 29.8916
272.763 797.55 1.32751
290.543 766.908 1.34677
285.539 764.076 29.9123
272.764 797.549 -1.84288
267.836 794.576 -30.4062
285.546 764.055 -30.3884
290.543 766.907 -1.82361
266.78 793.958 -33.3331
252.787 785.567 -57.4932
270.306 755.381 -57.4782
284.489 763.438 -33.3153
250.843 784.436 -59.731
230.025 772.032 -75.8441
247.276 742.318 -75.8328
268.362 754.25 -59.716
227.493 770.563 -77.0599
202.987 755.995 -82.7867
219.926 726.822 -82.7787
244.743 740.849 -77.0486
200.245 754.406 -82.7964
175.713 739.835 -77.1867
192.344 711.198 -77.177
217.185 725.233 -82.7883
173.176 738.365 -75.981
152.363 725.999 -59.8508
168.735 697.816 -59.8366
189.807 709.728 -75.9713
150.417 724.871 -57.607
136.476 716.59 -33.3537
152.677 688.712 -33.336
166.789 696.688 -57.5929
135.421 715.98 -30.414
130.531 713.093 -1.79438
146.673 685.322 -1.77569
151.622 688.102 -30.3963
148.435 682.214 1.40827
153.388 685.045 30.0047
168.963 656.822 30.0233
163.95 654.102 1.42626
154.454 685.636 32.9402
168.536 693.626 57.1418
184.279 665.09 57.1626
170.028 657.412 32.9588
170.504 694.712 59.3827
191.571 706.635 75.5152
207.567 677.634 75.5393
186.247 666.176 59.4035
194.139 708.05 76.7209
218.98 722.086 82.3283
235.276 692.537 82.3537
210.135 679.049 76.7449
221.756 723.613 82.3181
246.579 737.629 76.5834
263.175 707.531 76.6068
238.052 694.065 82.3434
249.143 739.04 75.3669
270.239 750.951 59.2453
287.092 720.378 59.2664
265.74 708.942 75.3903
272.209 752.035 57.0069
286.402 760.067 32.8418
303.433 729.167 32.8612
289.062 721.463 57.028
287.473 760.657 29.9145
292.477 763.489 1.34899
309.572 732.47 1.3675
304.504 729.757 29.9339
292.477 763.488 -1.82164
287.48 760.637 -30.3864
304.51 729.737 -30.3689
309.572 732.469 -1.80314
286.409 760.044 -33.3135
272.225 751.987 -57.4764
289.076 721.417 -57.4609
303.44 729.144 -33.296
270.256 750.901 -59.7145
249.171 738.969 -75.8313
265.765 708.873 -75.8183
287.107 720.331 -59.6989
246.607 737.556 -77.0474
221.789 723.529 -82.7775
238.083 693.984 -82.7667
263.201 707.461 -77.0344
219.014 722.001 -82.7872
194.173 707.966 -77.1759
210.167 678.967 -77.1642
235.307 692.455 -82.7765
191.605 706.551 -75.97
170.533 694.639 -59.8352
186.274 666.106 -59.8205
207.599 677.553 -75.9582
168.564 693.554 -57.5912
154.452 685.578 -33.3343
170.024 657.356 -33.3171
184.305 665.021 -57.5764
153.384 684.991 -30.3943
148.435 682.211 -1.77372
163.95 654.099 -1.75573
168.957 656.769 -30.3771
165.642 650.953 1.42826
170.655 653.674 30.0253
185.595 625.118 30.0429
180.524 622.51 1.44552
171.733 654.24 32.961
185.984 661.918 57.1647
201.088 633.044 57.1837
186.673 625.684 32.9786
187.974 662.961 59.4058
209.295 674.418 75.5417
224.645 645.07 75.5628
203.078 634.086 59.4249
211.893 675.776 76.7475
237.034 689.265 82.3562
252.674 659.359 82.3783
227.243 646.428 76.7687
239.843 690.731 82.346
264.966 704.197 76.6094
280.895 673.734 76.6301
255.482 660.826 82.368
267.561 705.551 75.3926
288.913 716.987 59.2688
305.087 686.047 59.2882
283.49 675.088 75.4133
290.906 718.027 57.0303
305.277 725.731 32.8634
321.621 694.464 32.8818
307.08 687.086 57.0497
306.362 726.296 29.936
311.43 729.01 1.3696
327.833 697.627 1.38732
322.705 695.029 29.9543
311.43 729.009 -1.80122
306.368 726.277 -30.367
322.71 695.01 -30.3499
327.834 697.626 -1.78349
305.284 725.709 -33.2943
290.921 717.982 -57.4591
307.094 687.043 -57.4434
321.627 694.442 -33.2772
288.928 716.94 -59.6973
267.586 705.482 -75.8167
283.513 675.022 -75.8024
305.101 686.001 -59.6815
264.992 704.127 -77.0329
239.873 690.65 -82.7653
255.51 660.748 -82.7527
280.919 673.667 -77.0187
237.065 689.183 -82.7752
211.924 675.695 -77.1628
227.272 646.35 -77.1497
252.702 659.281 -82.7626
209.326 674.338 -75.9567
188.001 662.89 -59.819
203.103 634.018 -59.804
224.673 644.992 -75.9436
186.009 661.849 -57.5747
171.729 654.185 -33.3154
186.667 625.63 -33.2987
201.111 632.977 -57.5597
170.649 653.621 -30.3752
165.642 650.951 -1.75383
180.524 622.508 -1.73657
185.587 625.067 -30.3585
182.145 619.326 1.44742
187.216 621.933 30.0448
201.516 593.056 30.0615
196.389 590.563 1.46392
188.307 622.476 32.9806
202.721 629.835 57.1857
217.18 600.635 57.2032
202.607 593.599 32.9973
204.734 630.833 59.427
226.301 641.817 75.565
240.996 612.135 75.5837
219.193 601.633 59.4444
228.928 643.117 76.7709
254.359 656.048 82.3806
269.333 625.801 82.3998
243.623 613.435 76.7897
257.199 657.452 82.3703
282.612 670.361 76.6323
297.864 639.549 76.6506
272.173 627.205 82.3895
285.236 671.657 75.4155
306.833 682.616 59.2903
322.319 651.322 59.3082
300.488 640.845 75.4338
308.848 683.611 57.0517
323.389 690.988 32.8838
339.036 659.368 32.9012
324.335 652.317 57.0696
324.486 691.529 29.9563
329.614 694.126 1.38931
345.318 662.391 1.40629
340.133 659.909 29.9737
329.614 694.125 -1.78162
324.491 691.51 -30.3481
340.137 659.891 -30.3315
345.318 662.39 -1.76464
323.395 690.967 -33.2755
308.861 683.568 -57.4416
324.347 652.276 -57.4259
339.041 659.348 -33.2589
306.846 682.57 -59.6799
285.258 671.591 -75.8008
300.508 640.782 -75.7857
322.332 651.279 -59.6642
282.635 670.294 -77.0172
257.227 657.375 -82.7512
272.198 627.13 -82.7374
297.885 639.484 -77.0021
254.387 655.97 -82.7611
228.956 643.039 -77.1482
243.649 613.36 -77.1342
269.359 625.725 -82.7473
226.329 641.739 -75.942
204.759 630.765 -59.8024
219.215 601.567 -59.7873
241.022 612.06 -75.928
202.744 629.768 -57.5579
188.3 622.422 -33.297
202.599 593.547 -33.2809
217.201 600.57 -57.5429
187.209 621.883 -30.3567
182.145 619.323 -1.73473
196.388 590.561 -1.71823
201.507 593.007 -30.3406
197.939 587.344 1.46572
203.066 589.837 30.0633
216.72 560.651 30.079
211.538 558.275 1.48146
204.168 590.355 32.9991
218.742 597.391 57.205
232.548 567.878 57.2209
217.822 561.169 33.0148
220.776 598.344 59.4464
242.579 608.846 75.5856
256.613 578.844 75.6021
234.583 568.831 59.4622
245.235 610.088 76.7916
270.945 622.453 82.4018
285.246 591.878 82.4184
259.269 580.086 76.8081
273.815 623.794 82.3915
299.506 636.138 76.6525
314.072 604.993 76.6683
288.116 593.219 82.408
302.157 637.376 75.4357
323.989 647.853 59.3101
338.778 616.222 59.3267
316.724 606.23 75.4514
326.026 648.803 57.0716
340.727 655.854 32.9031
355.669 623.895 32.9195
340.815 617.172 57.0881
341.835 656.37 29.9755
347.02 658.852 1.40816
362.016 626.778 1.42435
356.777 624.412 29.992
347.02 658.851 -1.76283
341.84 656.352 -30.3297
356.782 624.394 -30.3139
362.016 626.777 -1.74665
340.732 655.834 -33.2572
326.037 648.762 -57.4242
340.826 617.133 -57.4087
355.674 623.876 -33.2413
324.001 647.81 -59.6625
302.178 637.313 -75.784
316.742 606.17 -75.7683
338.79 616.181 -59.647
299.527 636.074 -77.0005
273.84 623.72 -82.7357
288.138 593.148 -82.721
314.091 604.931 -76.9847
270.97 622.378 -82.7457
245.26 610.013 -77.1326
259.292 580.014 -77.1178
285.268 591.807 -82.7309
242.605 608.771 -75.9263
220.798 598.279 -59.7857
234.603 568.768 -59.7706
256.636 578.773 -75.9116
218.762 597.327 -57.5412
204.16 590.303 -33.2792
217.812 561.119 -33.2636
232.567 567.816 -57.5261
203.057 589.788 -30.3388
197.938 587.342 -1.71646
211.538 558.272 -1.70072
216.709 560.604 -30.3232
213.016 555.022 1.48317
218.198 557.398 30.0807
231.199 527.916 30.0955
225.966 525.657 1.49817
219.311 557.892 33.0165
234.038 564.6 57.2226
247.185 534.787 57.2369
232.313 528.41 33.0313
236.093 565.507 59.4639
258.123 575.521 75.6038
271.488 545.214 75.6178
249.24 535.694 59.4783
260.805 576.703 76.8098
286.782 588.496 82.4201
300.403 557.609 82.434
274.17 546.397 76.8238
289.682 589.773 82.4097
315.638 601.546 76.6699
329.512 570.083 76.6829
303.302 558.886 82.4236
318.316 602.725 75.4531
340.37 612.717 59.3283
354.455 580.764 59.3438
332.19 571.262 75.4661
342.428 613.622 57.0899
357.281 620.344 32.9213
371.511 588.062 32.9367
356.513 581.668 57.1053
358.401 620.836 29.9937
363.64 623.203 1.42611
377.92 590.804 1.44142
372.631 588.553 30.0091
363.64 623.202 -1.74492
358.405 620.819 -30.3121
372.635 588.537 -30.297
377.921 590.803 -1.72962
357.286 620.325 -33.2396
342.439 613.582 -57.407
356.522 581.631 -57.3921
371.516 588.043 -33.2245
340.382 612.676 -59.6452
318.334 602.665 -75.7665
332.206 571.205 -75.7497
354.466 580.724 -59.6303
315.656 601.485 -76.983
289.704 589.702 -82.7192
303.322 558.819 -82.7032
329.528 570.025 -76.9661
286.805 588.425 -82.7292
260.828 576.632 -77.1162
274.191 546.328 -77.1005
300.423 557.542 -82.7133
258.146 575.45 -75.9099
236.112 565.445 -59.769
249.258 535.634 -59.7538
271.509 545.146 -75.8943
234.056 564.538 -57.5244
219.301 557.842 -33.2619
232.301 528.361 -33.2468
247.201 534.727 -57.5092
218.187 557.351 -30.3215
213.015 555.019 -1.69902
225.965 525.654 -1.68402
231.187 527.871 -30.3065
227.371 522.372 1.49978
232.605 524.631 30.0971
244.948 494.866 30.111
239.665 492.725 1.51403
233.729 525.1 33.0329
248.601 531.477 57.2385
261.084 501.377 57.2516
246.073 495.334 33.0468
250.676 532.338 59.4798
272.924 541.858 75.6193
285.613 511.26 75.6316
263.159 502.238 59.4929
275.632 542.98 76.8253
301.864 554.193 82.4354
314.795 523.011 82.4474
288.321 512.383 76.8376
304.791 555.406 82.425
331.001 566.602 76.6843
344.174 534.835 76.6963
317.722 524.223 82.437
333.704 567.721 75.4676
355.969 577.223 59.3453
369.344 544.963 59.3596
346.877 535.955 75.4796
358.046 578.082 57.107
373.044 584.476 32.9384
386.556 551.885 32.9526
371.421 545.822 57.1213
374.175 584.943 30.0108
379.464 587.193 1.44307
393.025 554.486 1.45746
387.687 552.352 30.025
379.465 587.192 -1.72797
374.179 584.926 -30.2954
387.691 552.337 -30.2809
393.025 554.485 -1.71358
373.049 584.457 -33.2229
358.056 578.045 -57.3905
371.43 545.788 -57.376
386.561 551.868 -33.2084
355.979 577.185 -59.6286
333.72 567.665 -75.7479
346.891 535.902 -75.7315
369.354 544.927 -59.6141
331.017 566.545 -76.9643
304.81 555.339 -82.7014
317.74 524.16 -82.685
344.188 534.781 -76.9478
301.884 554.126 -82.7115
275.652 542.913 -77.0988
288.339 512.318 -77.0828
314.813 522.947 -82.6951
272.944 541.79 -75.8926
250.694 532.278 -59.7521
263.175 502.181 -59.7371
285.632 511.196 -75.8767
248.617 531.418 -57.5076
233.717 525.052 -33.2452
246.059 495.288 -33.2308
261.098 501.32 -57.4926
232.592 524.586 -30.3048
227.37 522.37 -1.68238
239.664 492.722 -1.66813
244.934 494.823 -30.2904
240.997 489.409 1.51555
246.28 491.55 30.1125
257.961 461.514 30.1257
252.63 459.492 1.52904
247.415 491.993 33.0482
262.426 498.036 57.2531
274.238 467.663 57.2655
259.095 461.957 33.0614
264.52 498.85 59.4943
286.974 507.873 75.633
298.981 476.998 75.645
276.331 468.478 59.5068
289.706 508.935 76.8389
316.181 519.563 82.4488
328.416 488.099 82.4611
301.713 478.061 76.8509
319.134 520.71 82.4384
345.585 531.322 76.6977
358.049 499.269 76.7124
331.369 489.247 82.4507
348.313 532.381 75.4811
370.78 541.39 59.3611
383.443 508.843 59.3734
360.777 500.328 75.4957
372.875 542.204 57.1228
388.01 548.266 32.9541
400.804 515.386 32.9672
385.538 509.656 57.1351
389.151 548.708 30.0265
394.489 550.842 1.45899
407.328 517.842 1.47251
401.944 515.827 30.0396
394.489 550.841 -1.71201
389.155 548.693 -30.2793
401.947 515.812 -30.2654
407.328 517.841 -1.69848
388.015 548.249 -33.2068
372.884 542.169 -57.3744
385.544 509.624 -57.3597
400.807 515.368 -33.1928
370.789 541.354 -59.6125
348.326 532.329 -75.7298
360.789 500.281 -75.7156
383.449 508.809 -59.5977
345.599 531.268 -76.9461
319.151 520.647 -82.6833
331.385 489.187 -82.6676
358.062 499.22 -76.9318
316.198 519.499 -82.6934
289.724 508.871 -77.0811
301.73 478 -77.0657
328.432 488.04 -82.6777
286.992 507.809 -75.875
264.535 498.794 -59.7354
276.346 468.424 -59.721
298.998 476.938 -75.8596
262.44 497.98 -57.491
247.401 491.947 -33.2291
259.08 461.913 -33.2154
274.251 467.61 -57.4766
246.266 491.507 -30.2888
240.996 489.407 -1.66658
252.629 459.49 -1.65309
257.945 461.473 -30.2751
253.888 456.147 1.53047
259.219 458.169 30.1271
270.231 427.876 30.1394
264.856 425.974 1.54312
260.363 458.586 33.0628
275.506 464.292 57.2669
286.642 433.661 57.2781
271.375 428.293 33.075
277.617 465.06 59.508
300.266 473.581 75.6462
311.586 442.446 75.6565
288.753 434.429 59.5192
303.021 474.583 76.8521
329.724 484.621 82.4623
341.258 452.895 82.4729
314.341 443.447 76.8624
332.702 485.703 82.4522
359.382 495.726 76.7138
371.13 463.411 76.7277
344.236 453.977 82.4627
362.133 496.725 75.4972
384.799 505.239 59.3748
396.739 472.425 59.3855
373.881 464.41 75.5111
386.912 506.006 57.1364
402.178 511.735 32.9685
414.243 478.579 32.9806
398.852 473.192 57.1471
403.327 512.152 30.0411
408.712 514.167 1.47392
420.821 480.889 1.48667
415.392 478.995 30.0531
408.712 514.166 -1.69698
403.33 512.137 -30.2638
415.394 478.98 -30.2504
420.821 480.888 -1.68422
402.181 511.719 -33.1912
386.918 505.974 -57.358
398.855 473.159 -57.3433
414.244 478.561 -33.1778
384.805 505.206 -59.5961
362.145 496.677 -75.714
373.893 464.363 -75.7003
396.743 472.391 -59.5814
359.395 495.677 -76.9302
332.718 485.644 -82.666
344.251 453.921 -82.65
371.143 463.363 -76.9165
329.74 484.562 -82.6759
303.038 474.523 -77.0639
314.356 443.391 -77.0483
341.273 452.839 -82.6599
300.283 473.521 -75.8579
277.631 465.007 -59.7194
288.766 434.379 -59.7053
311.601 442.39 -75.8422
275.518 464.24 -57.4751
260.348 458.543 -33.2139
271.359 428.252 -33.2009
286.653 433.611 -57.461
259.203 458.128 -30.2737
253.887 456.145 -1.65161
264.855 425.972 -1.63896
270.214 427.838 -30.2607
266.04 422.601 1.54443
271.415 424.503 30.1407
281.754 393.965 30.1516
276.337 392.184 1.55612
272.568 424.895 33.0762
287.835 430.262 57.2792
298.291 399.386 57.2879
282.907 394.357 33.0871
289.963 430.984 59.5202
312.795 439.001 75.6574
323.424 407.621 75.6634
300.419 400.108 59.5289
315.572 439.941 76.8633
342.489 449.389 82.4737
353.319 417.416 82.4787
326.201 408.561 76.8692
345.49 450.405 82.4637
372.384 459.839 76.7287
383.414 427.277 76.7358
356.32 418.432 82.4687
375.157 460.777 75.5122
398.015 468.793 59.3867
409.22 435.724 59.3966
386.187 428.215 75.5193
400.145 469.513 57.1482
415.535 474.899 32.9817
426.86 441.479 32.993
411.35 436.443 57.1582
416.694 475.29 30.0544
422.123 477.183 1.48798
433.491 443.639 1.50019
428.019 441.87 30.0657
422.123 477.182 -1.68276
416.696 475.274 -30.2489
428.022 441.855 -30.2359
433.491 443.638 -1.67056
415.537 474.882 -33.1762
400.148 469.48 -57.3417
411.354 436.411 -57.3275
426.863 441.463 -33.1632
398.018 468.759 -59.5797
375.169 460.731 -75.6987
386.199 428.17 -75.6829
409.224 435.69 -59.5655
372.397 459.792 -76.9148
345.505 450.35 -82.6482
356.333 418.381 -82.6302
383.427 427.23 -76.899
342.504 449.333 -82.6581
315.587 439.885 -77.0464
326.214 408.509 -77.0294
353.332 417.364 -82.6401
312.811 438.945 -75.8405
289.975 430.934 -59.7036
300.43 400.061 -59.6893
323.438 407.569 -75.8235
287.846 430.213 -57.4595
272.552 424.854 -33.1994
282.89 394.319 -33.187
298.301 399.341 -57.4452
271.398 424.465 -30.2593
266.039 422.599 -1.63757
276.336 392.182 -1.62588
281.736 393.93 -30.2469
277.446 388.785 1.5573
282.863 390.566 30.1528
292.525 359.797 30.1624
287.068 358.136 1.56804
284.025 390.932 33.088
299.409 395.962 57.2889
309.181 364.855 57.2953
293.687 360.164 33.0976
301.552 396.636 59.5295
324.557 404.149 75.664
334.491 372.54 75.6661
311.325 365.53 59.5358
327.354 405.029 76.8696
354.472 413.884 82.4791
364.593 381.682 82.4795
337.287 373.419 76.8717
357.494 414.834 82.4691
384.589 423.679 76.7362
394.898 390.882 76.7384
367.615 382.632 82.4696
387.382 424.556 75.5201
410.415 432.064 59.3974
420.884 398.755 59.4058
397.69 391.759 75.5223
412.561 432.736 57.1593
428.071 437.772 32.9941
438.655 404.106 33.0046
423.03 399.427 57.1677
429.239 438.136 30.0669
434.71 439.905 1.50141
445.335 406.11 1.51311
439.823 404.47 30.0775
434.71 439.904 -1.66914
429.241 438.121 -30.2345
439.826 404.455 -30.2218
445.335 406.109 -1.65744
428.074 437.755 -33.1616
412.565 432.704 -57.3259
423.035 399.397 -57.3115
438.658 404.09 -33.1489
410.419 432.031 -59.5637
387.393 424.51 -75.6812
397.7 391.717 -75.6626
420.89 398.723 -59.5494
384.601 423.632 -76.897
357.507 414.783 -82.6282
367.626 382.584 -82.6076
394.908 390.839 -76.8785
354.485 413.832 -82.638
327.367 404.977 -77.0273
337.298 373.371 -77.0084
364.604 381.633 -82.6174
324.57 404.098 -75.8217
301.563 396.59 -59.6875
311.334 365.487 -59.6728
334.502 372.492 -75.8028
299.418 395.916 -57.4437
284.007 390.895 -33.1855
293.668 360.129 -33.1739
309.189 364.813 -57.429
282.845 390.531 -30.2456
277.445 388.783 -1.62457
287.067 358.134 -1.61384
292.505 359.765 -30.234
288.102 354.712 1.56909
293.559 356.373 30.1635
302.54 325.385 30.1719
297.045 323.843 1.57893
294.729 356.714 33.0984
310.223 361.405 57.296
319.307 330.082 57.3003
303.71 325.726 33.1069
312.381 362.033 59.5361
335.547 369.043 75.6664
344.78 337.22 75.6653
321.464 330.71 59.5404
338.362 369.862 76.8716
365.667 378.125 82.4795
375.073 345.711 82.4762
347.595 338.038 76.8705
368.71 379.009 82.4695
395.993 387.259 76.7384
405.573 354.249 76.7382
378.116 346.595 82.4662
398.804 388.074 75.5227
421.998 395.07 59.4062
431.731 361.542 59.4122
408.384 355.064 75.5225
424.159 395.693 57.1685
439.783 400.373 33.0055
449.626 366.477 33.0149
433.892 362.165 57.1745
440.96 400.709 30.0786
446.472 402.349 1.51423
456.354 368.319 1.52515
450.802 366.813 30.088
446.472 402.349 -1.65606
440.963 400.695 -30.2204
450.805 366.799 -30.2081
456.355 368.318 -1.64514
439.787 400.357 -33.1473
424.164 395.663 -57.3099
433.897 362.137 -57.2947
449.629 366.461 -33.135
422.003 395.039 -59.5474
398.814 388.032 -75.6607
408.393 355.025 -75.6401
431.736 361.513 -59.5323
396.003 387.216 -76.8762
368.721 378.961 -82.6053
378.125 346.551 -82.5819
405.581 354.209 -76.8555
365.678 378.077 -82.6151
338.373 369.815 -77.0061
347.604 337.995 -76.9852
375.083 345.667 -82.5917
335.558 368.996 -75.8008
312.39 361.991 -59.6708
321.472 330.671 -59.6557
344.789 337.177 -75.78
310.23 361.364 -57.4275
294.709 356.68 -33.1723
303.689 325.694 -33.1613
319.312 330.044 -57.4124
293.539 356.341 -30.2327
288.1 354.71 -1.61261
297.044 323.841 -1.60277
302.518 325.355 -30.2216
298.003 320.394 1.57986
303.497 321.937 30.1728
311.793 290.74 30.18
306.263 289.316 1.58876
304.675 322.252 33.1074
320.272 326.609 57.3008
328.664 295.081 57.3025
312.971 291.056 33.1146
322.443 327.19 59.5403
345.759 333.7 75.6652
354.288 301.679 75.6594
330.835 295.662 59.542
348.591 334.459 76.87
376.069 342.131 82.4756
384.757 309.525 82.4668
357.12 302.437 76.8642
379.13 342.95 82.4658
406.588 350.603 76.7377
415.436 317.401 76.7333
387.818 310.343 82.4569
409.417 351.357 75.5225
432.763 357.834 59.4123
441.756 324.106 59.4154
418.265 318.154 75.5182
434.939 358.408 57.1751
450.673 362.719 33.0154
459.771 328.608 33.0232
443.931 324.68 57.1782
451.857 363.027 30.0889
457.409 364.533 1.52612
466.546 330.28 1.53608
460.955 328.916 30.0967
457.409 364.533 -1.64379
451.86 363.013 -30.2068
460.958 328.902 -30.1947
466.546 330.279 -1.63383
450.676 362.704 -33.1333
434.943 358.38 -57.293
443.936 324.654 -57.2767
459.774 328.593 -33.1212
432.768 357.805 -59.5301
409.425 351.318 -75.6379
418.272 318.119 -75.6147
441.761 324.08 -59.5139
406.596 350.564 -76.8529
379.139 342.906 -82.5793
387.826 310.304 -82.5521
415.443 317.365 -76.8296
376.078 342.087 -82.589
348.6 334.416 -76.9826
357.128 302.399 -76.9588
384.765 309.485 -82.5618
345.768 333.658 -75.7778
322.45 327.152 -59.6535
330.841 295.629 -59.6375
354.296 301.64 -75.7541
320.278 326.571 -57.4109
304.654 322.221 -33.1597
312.948 291.028 -33.1492
328.668 295.048 -57.3948
303.476 321.907 -30.2205
298.002 320.393 -1.60162
306.262 289.314 -1.59272
311.771 290.714 -30.2099
307.145 285.845 1.58955
312.675 287.269 30.1808
320.282 255.873 30.1865
314.719 254.565 1.59743
313.859 287.56 33.1149
329.552 291.585 57.3028
337.249 259.865 57.3012
321.466 256.164 33.1206
331.736 292.121 59.5414
355.189 298.138 75.6589
363.012 265.934 75.6472
339.433 260.401 59.5399
358.037 298.837 76.863
385.673 305.924 82.4656
393.64 273.146 82.4496
365.86 266.633 76.8514
388.751 306.678 82.4559
416.37 313.735 76.7323
424.483 280.364 76.7224
396.718 273.899 82.4399
419.215 314.426 75.5178
442.707 320.378 59.4151
450.956 286.472 59.4144
427.329 281.055 75.5079
444.895 320.9 57.1784
460.735 324.828 33.0234
469.087 290.515 33.0293
453.145 286.994 57.1778
461.927 325.106 30.0974
467.518 326.47 1.53686
475.909 292.004 1.54585
470.279 290.792 30.1033
467.518 326.469 -1.63252
461.93 325.092 -30.1934
470.283 290.779 -30.1815
475.91 292.004 -1.62353
460.738 324.813 -33.1194
444.9 320.875 -57.2749
453.15 286.97 -57.2568
469.091 290.5 -33.1075
442.711 320.352 -59.5115
419.222 314.391 -75.6123
427.336 281.024 -75.5855
450.961 286.447 -59.4933
416.377 313.7 -76.8266
388.759 306.639 -82.549
396.725 273.865 -82.5167
424.49 280.332 -76.7998
385.681 305.885 -82.5587
358.045 298.799 -76.9557
365.867 266.6 -76.928
393.647 273.111 -82.5263
355.197 298.1 -75.7516
331.742 292.088 -59.6351
339.438 260.373 -59.6177
363.019 265.901 -75.724
329.556 291.552 -57.3933
313.837 287.533 -33.1476
321.443 256.141 -33.1376
337.252 259.837 -57.3759
312.652 287.243 -30.2089
307.144 285.843 -1.59164
314.718 254.564 -1.58377
320.259 255.851 -30.1989
315.524 251.072 1.59806
321.087 252.381 30.1872
328.004 220.794 30.1912
322.41 219.599 1.60484
322.278 252.648 33.1205
338.06 256.349 57.3012
345.06 224.447 57.296
329.195 221.061 33.1246
340.256 256.84 59.5387
363.835 262.373 75.6461
370.949 230.004 75.6277
347.255 224.939 59.5335
366.697 263.014 76.8494
394.477 269.527 82.4476
401.719 236.6 82.4233
373.811 230.645 76.831
397.57 270.216 82.4381
425.336 276.681 76.7206
432.713 243.167 76.7042
404.813 237.29 82.4138
428.197 277.309 75.5069
451.824 282.725 59.4134
459.329 248.661 59.4075
435.574 243.795 75.4906
454.026 283.194 57.1776
469.968 286.715 33.029
477.574 252.211 33.0327
461.531 249.129 57.1717
471.168 286.96 30.1039
476.798 288.172 1.54643
484.443 253.503 1.55442
478.774 252.457 30.1076
476.798 288.172 -1.62223
471.171 286.947 -30.1802
478.778 252.444 -30.1682
484.443 253.503 -1.61425
469.972 286.701 -33.1054
454.031 283.17 -57.2547
461.536 249.108 -57.2335
477.578 252.198 -33.0934
451.829 282.701 -59.4905
428.204 277.278 -75.5827
435.58 243.768 -75.5515
459.334 248.639 -59.4693
425.343 276.649 -76.7962
397.577 270.182 -82.5131
404.82 237.26 -82.4745
432.72 243.139 -76.7651
394.484 269.493 -82.5226
366.704 262.982 -76.9244
373.818 230.618 -76.8919
401.727 236.571 -82.484
363.842 262.341 -75.7211
340.26 256.812 -59.6149
347.26 224.916 -59.596
370.956 229.977 -75.6887
338.064 256.321 -57.3743
322.255 252.624 -33.1359
329.171 221.042 -33.1263
345.063 224.425 -57.3553
321.064 252.359 -30.1979
315.523 251.071 -1.58276
322.409 219.598 -1.57598
327.98 220.777 -30.1883
323.138 216.085 1.6053
328.732 217.28 30.1917
334.959 185.509 30.1937
329.337 184.423 1.61095
329.929 217.524 33.1242
345.795 220.91 57.2956
352.098 188.837 57.2866
336.156 185.753 33.1262
348 221.36 59.5317
371.694 226.425 75.6259
378.099 193.907 75.6007
354.303 189.287 59.5228
374.569 227.01 76.8281
402.477 232.965 82.4204
408.994 199.916 82.3871
380.974 194.492 76.8029
405.584 233.592 82.4111
433.484 239.469 76.7016
440.12 205.845 76.6781
412.101 200.542 82.3778
436.359 240.034 75.4888
460.114 244.899 59.4057
466.87 210.698 59.3923
442.996 206.409 75.4653
462.329 245.311 57.1709
478.372 248.393 33.0319
485.229 213.709 33.0328
469.085 211.109 57.1574
479.58 248.604 30.108
485.249 249.65 1.55477
492.144 214.785 1.56168
486.436 213.92 30.1089
485.249 249.649 -1.61295
479.584 248.591 -30.1669
486.441 213.908 -30.1542
492.145 214.784 -1.60604
478.377 248.38 -33.0909
462.334 245.29 -57.231
469.091 211.091 -57.2045
485.234 213.697 -33.0783
460.12 244.878 -59.466
436.366 240.007 -75.5482
443.004 206.386 -75.5122
466.877 210.678 -59.4395
433.491 239.442 -76.761
405.591 233.563 -82.4703
412.109 200.518 -82.425
440.129 205.821 -76.725
402.484 232.936 -82.4797
374.575 226.983 -76.8876
380.981 194.471 -76.8505
409.002 199.891 -82.4343
371.701 226.398 -75.6855
348.005 221.337 -59.5928
354.308 189.271 -59.5721
378.106 193.886 -75.6484
345.798 220.889 -57.3535
329.906 217.506 -33.1245
336.133 185.74 -33.115
352.101 188.822 -57.3328
328.708 217.263 -30.1873
323.137 216.084 -1.57504
329.336 184.423 -1.5694
334.936 185.498 -30.1778
329.99 180.889 1.61116
335.612 181.975 30.1939
341.163 150.025 30.1916
335.519 149.045 1.61572
336.814 182.196 33.1253
352.756 185.281 57.2858
358.368 153.044 57.2712
342.365 150.246 33.123
354.97 185.69 59.5203
378.766 190.31 75.5982
384.462 157.659 75.5663
360.582 153.453 59.5057
381.651 190.843 76.7991
409.671 196.267 82.3833
415.459 163.125 82.3401
387.348 158.192 76.7671
412.79 196.834 82.3742
440.81 202.136 76.6744
446.698 168.442 76.6412
418.578 163.692 82.331
443.698 202.636 75.4623
467.573 206.924 59.3893
473.569 172.605 59.3634
449.586 168.942 75.429
469.799 207.274 57.1557
485.944 209.874 33.031
492.036 175.015 33.0267
475.795 172.955 57.1298
487.158 210.046 30.1089
492.866 210.911 1.56172
498.994 175.851 1.56727
493.251 175.186 30.1046
492.866 210.91 -1.60471
487.163 210.034 -30.1529
493.257 175.177 -30.1378
498.994 175.851 -1.59916
485.949 209.862 -33.0752
469.806 207.256 -57.2015
475.804 172.939 -57.1653
492.043 175.004 -33.0601
467.58 206.905 -59.4352
443.707 202.613 -75.508
449.597 168.922 -75.465
473.578 172.589 -59.3991
440.818 202.112 -76.7202
412.799 196.809 -82.4201
418.589 163.671 -82.367
446.709 168.421 -76.6771
409.68 196.243 -82.4292
381.659 190.822 -76.8455
387.358 158.177 -76.8034
415.47 163.105 -82.3762
378.773 190.29 -75.6447
354.975 185.675 -59.5684
360.589 153.446 -59.5437
384.472 157.645 -75.6027
352.759 185.266 -57.3308
336.791 182.184 -33.113
342.343 150.241 -33.1011
358.374 153.037 -57.3061
335.589 181.964 -30.1769
329.989 180.889 -1.56844
335.517 149.045 -1.56388
341.141 150.021 -30.1649
336.101 145.492 1.61512
341.745 146.472 30.191
346.689 114.358 30.1658
341.038 113.483 1.61875
342.95 146.671 33.1202
358.953 149.47 57.2685
363.921 117.086 57.2202
347.894 114.558 33.0951
361.173 149.841 59.501
385.053 154.048 75.5615
390.057 121.285 75.4954
366.14 117.458 59.4526
387.945 154.533 76.7609
416.056 159.465 82.3338
421.102 126.263 82.2561
392.949 121.77 76.6948
419.184 159.977 82.3249
447.303 164.727 76.6351
452.399 131.02 76.5657
424.229 126.775 82.2471
450.203 165.16 75.4232
474.186 168.823 59.3576
479.367 134.393 59.3006
455.298 131.453 75.3538
476.421 169.103 57.1261
492.662 171.164 33.023
497.906 136.121 33.0015
481.602 134.674 57.069
493.882 171.291 30.1039
499.625 171.956 1.56659
504.887 136.693 1.56997
499.126 136.248 30.0824
499.626 171.956 -1.59748
493.888 171.282 -30.1361
499.135 136.242 -30.1079
504.887 136.693 -1.5941
492.669 171.153 -33.0554
476.43 169.088 -57.1607
481.615 134.662 -57.0968
497.916 136.113 -33.0272
474.195 168.807 -59.3923
450.214 165.14 -75.4582
455.313 131.436 -75.3809
479.38 134.381 -59.3284
447.314 164.707 -76.6701
419.195 159.957 -82.36
424.245 126.759 -82.2737
452.414 131.002 -76.5928
416.067 159.446 -82.3689
387.955 154.518 -76.7962
392.964 121.762 -76.7211
421.117 126.248 -82.2827
385.063 154.034 -75.5968
361.18 149.835 -59.5379
366.152 117.461 -59.4798
390.071 121.277 -75.5218
358.959 149.464 -57.3023
342.928 146.668 -33.0973
347.876 114.565 -33.0636
363.931 117.09 -57.2443
341.723 146.469 -30.1634
336.1 145.492 -1.5623
341.037 113.483 -1.55867
346.67 114.366 -30.1297
341.576 109.919 1.61301
347.227 110.794 30.16
351.948 78.608 29.9762
346.341 77.8372 1.61472
348.428 110.973 33.0787
364.455 113.501 57.2038
369.066 81.0524 56.8824
353.15 78.7871 32.8949
366.668 113.838 59.4295
390.585 117.665 75.4723
395.044 84.8563 75.0849
371.279 81.3886 59.1081
393.47 118.107 76.6691
421.623 122.6 82.2303
425.914 89.392 81.8398
397.929 85.2979 76.2817
424.743 123.063 82.2223
452.912 127.307 76.5408
457.024 93.6835 76.1733
429.034 89.8549 81.8318
455.812 127.669 75.3327
479.881 130.609 59.2795
483.925 96.0303 59.0673
459.925 94.0448 74.9652
482.113 130.805 57.0566
498.417 132.252 32.9891
502.336 96.9684 32.858
486.158 96.2264 56.8444
499.634 132.33 30.0778
505.395 132.775 1.56542
509.253 97.2466 1.55704
503.552 97.0464 29.9468
505.395 132.775 -1.58982
499.643 132.324 -30.1036
503.557 97.0428 -29.9797
509.254 97.2464 -1.5982
498.427 132.245 -33.0141
482.127 130.794 -57.0837
486.181 96.2189 -56.8553
502.342 96.9646 -32.8903
479.895 130.597 -59.3061
455.828 127.652 -75.3586
459.949 94.0302 -74.9761
483.949 96.0219 -59.0776
452.928 127.29 -76.5667
424.759 123.047 -82.2477
429.058 89.8434 -81.8455
457.049 93.6688 -76.1843
421.639 122.585 -82.2559
393.485 118.099 -76.6943
397.951 85.2957 -76.2975
425.938 89.381 -81.8536
390.6 117.658 -75.4976
366.681 113.842 -59.4556
371.3 81.4046 -59.1224
395.066 84.8554 -75.1007
364.466 113.507 -57.2269
348.411 110.982 -33.0463
353.141 78.8098 -32.8555
369.085 81.0694 -56.8937
347.208 110.802 -30.1232
341.575 109.92 -1.55217
346.341 77.8381 -1.55046
351.939 78.6301 -29.9325
347.004 74.3177 1.57346
352.611 75.0884 29.9349
359.737 43.551 28.653
354.392 42.8417 1.57186
353.779 75.2506 32.7793
369.695 77.5159 56.7669
376.073 45.8014 54.4232
360.906 43.7132 31.4974
371.85 77.8213 58.9401
395.614 81.289 74.9169
400.89 49.2723 71.9121
378.227 46.1069 56.5964
398.426 81.6903 76.0899
426.411 85.7843 81.648
430.427 53.3805 78.4756
403.702 49.6735 73.0852
429.452 86.2037 81.6448
457.443 90.0323 75.9863
460.22 57.2632 73.1049
433.468 53.7999 78.4724
460.257 90.3525 74.8172
484.257 92.3381 58.9193
485.82 59.8493 56.6558
463.034 57.5834 71.9357
486.431 92.5067 56.7488
502.61 93.2487 32.7625
503.238 61.0978 31.4706
487.994 60.018 54.4853
503.792 93.3136 29.9118
509.494 93.5138 1.52201
509.766 61.4682 1.51159
504.421 61.1627 28.6199
509.493 93.513 -1.56503
503.797 93.3094 -29.9466
504.416 61.1305 -28.6632
509.765 61.4674 -1.57545
502.616 93.2437 -32.7942
486.455 92.4981 -56.7592
488.021 59.9875 -54.4784
503.235 61.0649 -31.5108
484.282 92.3293 -58.9278
460.282 90.3376 -74.8263
463.064 57.5693 -71.9323
485.848 59.8187 -56.647
457.468 90.0179 -75.996
429.477 86.1924 -81.6571
433.498 53.7932 -78.4759
460.25 57.2496 -73.102
426.436 85.7739 -81.6609
398.449 81.6887 -76.1048
403.727 49.679 -73.0947
430.456 53.3746 -78.4796
395.637 81.2892 -74.932
371.871 77.8384 -58.9537
378.246 46.1409 -56.6102
400.916 49.2795 -71.922
369.715 77.5344 -56.7778
353.771 75.2749 -32.7395
360.892 43.7527 -31.461
376.09 45.8369 -54.4343
352.601 75.1114 -29.8911
347.003 74.3193 -1.50906
354.392 42.8433 -1.51066
359.722 43.5892 -28.6126
355.249 39.3838 1.4883
360.594 40.0931 28.5694
368.633 9.20158 26.8399
363.619 8.55915 1.48147
361.699 40.2415 31.2608
376.866 42.3297 54.1866
383.962 11.2503 50.9932
369.738 9.35001 29.5312
378.904 42.608 56.244
401.567 45.7734 71.5597
407.253 14.3794 67.3663
386 11.5285 53.0505
404.227 46.1363 72.6717
430.953 49.8433 78.0621
434.953 18.0698 73.4866
409.913 14.7424 68.4782
433.829 50.2229 78.061
460.582 53.6862 72.6935
462.86 21.6078 68.434
437.83 18.4494 73.4855
463.241 53.9979 71.5834
486.026 56.2638 56.3035
486.776 24.2531 53.0062
465.519 21.9195 67.3239
488.069 56.4578 54.2455
503.313 57.5376 31.2307
503.013 25.7302 29.4462
488.819 24.4471 50.9482
504.42 57.6223 28.5345
509.764 57.9278 1.42614
509.083 26.1881 1.43606
504.12 25.8149 26.7499
509.764 57.9253 -1.48983
504.414 57.5885 -28.5776
504.112 25.7562 -26.7772
509.082 26.1856 -1.47991
503.309 57.5015 -31.2702
488.095 56.4241 -54.2378
488.836 24.3941 -50.9381
503.007 25.6692 -29.4697
486.055 56.2321 -56.2938
463.27 53.9827 -71.5791
465.541 21.9048 -67.3202
486.795 24.2021 -52.9942
460.611 53.6729 -72.69
433.858 50.2165 -78.0639
437.851 18.445 -73.4866
462.881 21.595 -68.4311
430.981 49.8379 -78.0656
404.253 46.1422 -72.6807
409.932 14.7508 -68.484
434.974 18.0664 -73.4883
401.592 45.7817 -71.5693
378.923 42.6431 -56.2575
386.009 11.5765 -53.0627
407.272 14.3903 -67.3726
376.882 42.367 -54.1981
361.685 40.2828 -31.2249
369.719 9.40609 -29.5056
383.969 11.3004 -51.0033
360.579 40.1321 -28.5299
355.248 39.3862 -1.42796
363.618 8.56163 -1.43478
368.614 9.25538 -26.8106
364.668 5.35834 1.35189
369.682 6.00078 26.7103
380.241 -21.0524 23.7826
375.819 -21.674 1.33083
370.691 6.13714 29.1671
384.915 8.03738 50.6291
393.849 -19.1569 45.2698
381.25 -20.9161 26.2394
386.778 8.28863 52.5073
408.031 11.1395 66.8231
414.595 -16.3754 59.8187
395.712 -18.9056 47.1481
410.463 11.4638 67.8354
435.503 14.7912 72.8437
439.264 -13.1007 65.2229
417.027 -16.0511 60.8311
438.13 15.1351 72.8393
463.16 18.2935 67.7878
464.075 -9.82495 60.6938
441.891 -12.7568 65.2184
465.584 18.5967 66.7722
486.841 20.9303 52.4545
485.263 -7.04649 46.9581
466.499 -9.52175 59.6782
488.699 21.1467 50.5796
502.893 22.4298 29.0776
499.634 -5.18064 26.1183
487.12 -6.83009 45.0832
503.9 22.5382 26.6228
508.863 22.9114 1.30897
505.031 -4.49382 1.32875
500.641 -5.07224 23.6635
508.863 22.9096 -1.34912
503.893 22.4802 -26.6464
500.641 -5.07418 -23.6641
505.03 -4.4956 -1.32934
502.886 22.37 -29.1004
488.715 21.0949 -50.5688
487.12 -6.83401 -45.0833
499.634 -5.18436 -26.1181
486.858 20.8803 -52.4433
465.604 18.583 -66.7693
466.5 -9.52395 -59.6779
485.263 -7.04863 -46.9578
463.18 18.2811 -67.785
438.15 15.1311 -72.8405
441.892 -12.7576 -65.2182
464.076 -9.82586 -60.6937
435.523 14.7878 -72.8451
410.48 11.4722 -67.8408
417.028 -16.0513 -60.8311
439.265 -13.101 -65.2229
408.048 11.1493 -66.8285
386.786 8.3355 -52.5186
395.713 -18.9043 -47.1482
414.595 -16.3742 -59.8188
384.921 8.08609 -50.6398
370.672 6.19176 -29.1421
381.249 -20.9128 -26.239
393.848 -19.1537 -45.2693
369.663 6.05376 -26.6844
364.668 5.36001 -1.30852
375.818 -21.6723 -1.32958
380.241 -21.0508 -23.7813
-65.2278 1013.6 25.2922
-69.1801 1010.34 -0.476323
-65.1499 1013.52 -26.2417
-53.7788 1022.66 -48.0737
-36.7568 1036.32 -62.6332
-16.7052 1052.43 -67.7062
3.22622 1068.65 -62.5795
19.9707 1082.66 -48.0609
31.0689 1092.26 -26.285
34.9565 1095.68 -0.511799
31.0667 1092.27 25.2611
19.9572 1082.69 47.0414
3.19348 1068.72 61.5739
-16.7504 1052.52 66.7146
-36.8091 1036.42 61.6551
-53.8614 1022.77 47.1182
382.635 -22.3855 1.31945e-05
387.058 -21.764 22.4517
399.656 -20.0048 41.4821
418.539 -17.4746 54.1528
440.776 -14.5241 58.5446
462.96 -11.5923 54.02
481.723 -9.11705 41.3
494.237 -7.4676 22.335
498.627 -6.88918 0.000239176
494.237 -7.46776 -22.3346
481.723 -9.11742 -41.2997
462.96 -11.5927 -54.0199
440.776 -14.5245 -58.5445
418.539 -17.4748 -54.1527
399.656 -20.0049 -41.4821
387.058 -21.764 -22.4517
</DataArray>
</Points>
<Cells>
<DataArray type="Int32" Name="connectivity" format="ascii">
0 1 2 3 
4 5 6 7 
8 9 10 11 
12 13 14 15 
16 17 18 19 
20 21 22 23 
24 25 26 27 
28 29 30 31 
32 33 34 35 
36 37 38 39 
40 41 42 43 
44 45 46 47 
48 49 50 51 
52 53 54 55 
56 57 58 59 
60 61 62 63 
64 65 66 67 
68 69 70 71 
72 73 74 75 
76 77 78 79 
80 81 82 83 
84 85 86 87 
88 89 90 91 
92 93 94 95 
96 97 98 99 
100 101 102 103 
104 105 106 107 
108 109 110 111 
112 113 114 115 
116 117 118 119 
120 121 122 123 
124 125 126 127 
128 129 130 131 
132 133 134 135 
136 137 138 139 
140 141 142 143 
144 145 146 147 
148 149 150 151 
152 153 154 155 
156 157 158 159 
160 161 162 163 
164 165 166 167 
168 169 170 171 
172 173 174 175 
176 177 178 179 
180 181 182 183 
184 185 186 187 
188 189 190 191 
192 193 194 195 
196 197 198 199 
200 201 202 203 
204 205 206 207 
208 209 210 211 
212 213 214 215 
216 217 218 219 
220 221 222 223 
224 225 226 227 
228 229 230 231 
232 233 234 235 
236 237 238 239 
240 241 242 243 
244 245 246 247 
248 249 250 251 
252 253 254 255 
256 257 258 259 
260 261 262 263 
264 265 266 267 
268 269 270 271 
272 273 274 275 
276 277 278 279 
280 281 282 283 
284 285 286 287 
288 289 290 291 
292 293 294 295 
296 297 298 299 
300 301 302 303 
304 305 306 307 
308 309 310 311 
312 313 314 315 
316 317 318 319 
320 321 322 323 
324 325 326 327 
328 329 330 331 
332 333 334 335 
336 337 338 339 
340 341 342 343 
344 345 346 347 
348 349 350 351 
352 353 354 355 
356 357 358 359 
360 361 362 363 
364 365 366 367 
368 369 370 371 
372 373 374 375 
376 377 378 379 
380 381 382 383 
384 385 386 387 
388 389 390 391 
392 393 394 395 
396 397 398 399 
400 401 402 403 
404 405 406 407 
408 409 410 411 
412 413 414 415 
416 417 418 419 
420 421 422 423 
424 425 426 427 
428 429 430 431 
432 433 434 435 
436 437 438 439 
440 441 442 443 
444 445 446 447 
448 449 450 451 
452 453 454 455 
456 457 458 459 
460 461 462 463 
464 465 466 467 
468 469 470 471 
472 473 474 475 
476 477 478 479 
480 481 482 483 
484 485 486 487 
488 489 490 491 
492 493 494 495 
496 497 498 499 
500 501 502 503 
504 505 506 507 
508 509 510 511 
512 513 514 515 
516 517 518 519 
520 521 522 523 
524 525 526 527 
528 529 530 531 
532 533 534 535 
536 537 538 539 
540 541 542 543 
544 545 546 547 
548 549 550 551 
552 553 554 555 
556 557 558 559 
560 561 562 563 
564 565 566 567 
568 569 570 571 
572 573 574 575 
576 577 578 579 
580 581 582 583 
584 585 586 587 
588 589 590 591 
592 593 594 595 
596 597 598 599 
600 601 602 603 
604 605 606 607 
608 609 610 611 
612 613 614 615 
616 617 618 619 
620 621 622 623 
624 625 626 627 
628 629 630 631 
632 633 634 635 
636 637 638 639 
640 641 642 643 
644 645 646 647 
648 649 650 651 
652 653 654 655 
656 657 658 659 
660 661 662 663 
664 665 666 667 
668 669 670 671 
672 673 674 675 
676 677 678 679 
680 681 682 683 
684 685 686 687 
688 689 690 691 
692 693 694 695 
696 697 698 699 
700 701 702 703 
704 705 706 707 
708 709 710 711 
712 713 714 715 
716 717 718 719 
720 721 722 723 
724 725 726 727 
728 729 730 731 
732 733 734 735 
736 737 738 739 
740 741 742 743 
744 745 746 747 
748 749 750 751 
752 753 754 755 
756 757 758 759 
760 761 762 763 
764 765 766 767 
768 769 770 771 
772 773 774 775 
776 777 778 779 
780 781 782 783 
784 785 786 787 
788 789 790 791 
792 793 794 795 
796 797 798 799 
800 801 802 803 
804 805 806 807 
808 809 810 811 
812 813 814 815 
816 817 818 819 
820 821 822 823 
824 825 826 827 
828 829 830 831 
832 833 834 835 
836 837 838 839 
840 841 842 843 
844 845 846 847 
848 849 850 851 
852 853 854 855 
856 857 858 859 
860 861 862 863 
864 865 866 867 
868 869 870 871 
872 873 874 875 
876 877 878 879 
880 881 882 883 
884 885 886 887 
888 889 890 891 
892 893 894 895 
896 897 898 899 
900 901 902 903 
904 905 906 907 
908 909 910 911 
912 913 914 915 
916 917 918 919 
920 921 922 923 
924 925 926 927 
928 929 930 931 
932 933 934 935 
936 937 938 939 
940 941 942 943 
944 945 946 947 
948 949 950 951 
952 953 954 955 
956 957 958 959 
960 961 962 963 
964 965 966 967 
968 969 970 971 
972 973 974 975 
976 977 978 979 
980 981 982 983 
984 985 986 987 
988 989 990 991 
992 993 994 995 
996 997 998 999 
1000 1001 1002 1003 
1004 1005 1006 1007 
1008 1009 1010 1011 
1012 1013 1014 1015 
1016 1017 1018 1019 
1020 1021 1022 1023 
1024 1025 1026 1027 
1028 1029 1030 1031 
1032 1033 1034 1035 
1036 1037 1038 1039 
1040 1041 1042 1043 
1044 1045 1046 1047 
1048 1049 1050 1051 
1052 1053 1054 1055 
1056 1057 1058 1059 
1060 1061 1062 1063 
1064 1065 1066 1067 
1068 1069 1070 1071 
1072 1073 1074 1075 
1076 1077 1078 1079 
1080 1081 1082 1083 
1084 1085 1086 1087 
1088 1089 1090 1091 
1092 1093 1094 1095 
1096 1097 1098 1099 
1100 1101 1102 1103 
1104 1105 1106 1107 
1108 1109 1110 1111 
1112 1113 1114 1115 
1116 1117 1118 1119 
1120 1121 1122 1123 
1124 1125 1126 1127 
1128 1129 1130 1131 
1132 1133 1134 1135 
1136 1137 1138 1139 
1140 1141 1142 1143 
1144 1145 1146 1147 
1148 1149 1150 1151 
1152 1153 1154 1155 
1156 1157 1158 1159 
1160 1161 1162 1163 
1164 1165 1166 1167 
1168 1169 1170 1171 
1172 1173 1174 1175 
1176 1177 1178 1179 
1180 1181 1182 1183 
1184 1185 1186 1187 
1188 1189 1190 1191 
1192 1193 1194 1195 
1196 1197 1198 1199 
1200 1201 1202 1203 
1204 1205 1206 1207 
1208 1209 1210 1211 
1212 1213 1214 1215 
1216 1217 1218 1219 
1220 1221 1222 1223 
1224 1225 1226 1227 
1228 1229 1230 1231 
1232 1233 1234 1235 
1236 1237 1238 1239 
1240 1241 1242 1243 
1244 1245 1246 1247 
1248 1249 1250 1251 
1252 1253 1254 1255 
1256 1257 1258 1259 
1260 1261 1262 1263 
1264 1265 1266 1267 
1268 1269 1270 1271 
1272 1273 1274 1275 
1276 1277 1278 1279 
1280 1281 1282 1283 
1284 1285 1286 1287 
1288 1289 1290 1291 
1292 1293 1294 1295 
1296 1297 1298 1299 
1300 1301 1302 1303 
1304 1305 1306 1307 
1308 1309 1310 1311 
1312 1313 1314 1315 
1316 1317 1318 1319 
1320 1321 1322 1323 
1324 1325 1326 1327 
1328 1329 1330 1331 
1332 1333 1334 1335 
1336 1337 1338 1339 
1340 1341 1342 1343 
1344 1345 1346 1347 
1348 1349 1350 1351 
1352 1353 1354 1355 
1356 1357 1358 1359 
1360 1361 1362 1363 
1364 1365 1366 1367 
1368 1369 1370 1371 
1372 1373 1374 1375 
1376 1377 1378 1379 
1380 1381 1382 1383 
1384 1385 1386 1387 
1388 1389 1390 1391 
1392 1393 1394 1395 
1396 1397 1398 1399 
1400 1401 1402 1403 
1404 1405 1406 1407 
1408 1409 1410 1411 
1412 1413 1414 1415 
1416 1417 1418 1419 
1420 1421 1422 1423 
1424 1425 1426 1427 
1428 1429 1430 1431 
1432 1433 1434 1435 
1436 1437 1438 1439 
1440 1441 1442 1443 
1444 1445 1446 1447 
1448 1449 1450 1451 
1452 1453 1454 1455 
1456 1457 1458 1459 
1460 1461 1462 1463 
1464 1465 1466 1467 
1468 1469 1470 1471 
1472 1473 1474 1475 
1476 1477 1478 1479 
1480 1481 1482 1483 
1484 1485 1486 1487 
1488 1489 1490 1491 
1492 1493 1494 1495 
1496 1497 1498 1499 
1500 1501 1502 1503 
1504 1505 1506 1507 
1508 1509 1510 1511 
1512 1513 1514 1515 
1516 1517 1518 1519 
1520 1521 1522 1523 
1524 1525 1526 1527 
1528 1529 1530 1531 
1532 1533 1534 1535 
1536 1537 1538 1539 
1540 1541 1542 1543 
1544 1545 1546 1547 
1548 1549 1550 1551 
1552 1553 1554 1555 
1556 1557 1558 1559 
1560 1561 1562 1563 
1564 1565 1566 1567 
1568 1569 1570 1571 
1572 1573 1574 1575 
1576 1577 1578 1579 
1580 1581 1582 1583 
1584 1585 1586 1587 
1588 1589 1590 1591 
1592 1593 1594 1595 
1596 1597 1598 1599 
1600 1601 1602 1603 
1604 1605 1606 1607 
1608 1609 1610 1611 
1612 1613 1614 1615 
1616 1617 1618 1619 
1620 1621 1622 1623 
1624 1625 1626 1627 
1628 1629 1630 1631 
1632 1633 1634 1635 
1636 1637 1638 1639 
1640 1641 1642 1643 
1644 1645 1646 1647 
1648 1649 1650 1651 
1652 1653 1654 1655 
1656 1657 1658 1659 
1660 1661 1662 1663 
1664 1665 1666 1667 
1668 1669 1670 1671 
1672 1673 1674 1675 
1676 1677 1678 1679 
1680 1681 1682 1683 
1684 1685 1686 1687 
1688 1689 1690 1691 
1692 1693 1694 1695 
1696 1697 1698 1699 
1700 1701 1702 1703 
1704 1705 1706 1707 
1708 1709 1710 1711 
1712 1713 1714 1715 
1716 1717 1718 1719 
1720 1721 1722 1723 
1724 1725 1726 1727 
1728 1729 1730 1731 
1732 1733 1734 1735 
1736 1737 1738 1739 
1740 1741 1742 1743 
1744 1745 1746 1747 
1748 1749 1750 1751 
1752 1753 1754 1755 
1756 1757 1758 1759 
1760 1761 1762 1763 
1764 1765 1766 1767 
1768 1769 1770 1771 
1772 1773 1774 1775 
1776 1777 1778 1779 
1780 1781 1782 1783 
1784 1785 1786 1787 
1788 1789 1790 1791 
1792 1793 1794 1795 
1796 1797 1798 1799 
1800 1801 1802 1803 
1804 1805 1806 1807 
1808 1809 1810 1811 
1812 1813 1814 1815 
1816 1817 1818 1819 
1820 1821 1822 1823 
1824 1825 1826 1827 
1828 1829 1830 1831 
1832 1833 1834 1835 
1836 1837 1838 1839 
1840 1841 1842 1843 
1844 1845 1846 1847 
1848 1849 1850 1851 
1852 1853 1854 1855 
1856 1857 1858 1859 
1860 1861 1862 1863 
1864 1865 1866 1867 
1868 1869 1870 1871 
1872 1873 1874 1875 
1876 1877 1878 1879 
1880 1881 1882 1883 
1884 1885 1886 1887 
1888 1889 1890 1891 
1892 1893 1894 1895 
1896 1897 1898 1899 
1900 1901 1902 1903 
1904 1905 1906 1907 
1908 1909 1910 1911 
1912 1913 1914 1915 
1916 1917 1918 1919 
1920 1921 1922 1923 
1924 1925 1926 1927 
1928 1929 1930 1931 
1932 1933 1934 1935 
1936 1937 1938 1939 
1940 1941 1942 1943 
1944 1945 1946 1947 
1948 1949 1950 1951 
1952 1953 1954 1955 
1956 1957 1958 1959 
1960 1961 1962 1963 
1964 1965 1966 1967 
1968 1969 1970 1971 
1972 1973 1974 1975 
1976 1977 1978 1979 
1980 1981 1982 1983 
1984 1985 1986 1987 
1988 1989 1990 1991 
1992 1993 1994 1995 
1996 1997 1998 1999 
2000 2001 2002 2003 
2004 2005 2006 2007 
2008 2009 2010 2011 
2012 2013 2014 2015 
2016 2017 2018 2019 
2020 2021 2022 2023 
2024 2025 2026 2027 
2028 2029 2030 2031 
2032 2033 2034 2035 
2036 2037 2038 2039 
2040 2041 2042 2043 
2044 2045 2046 2047 
2048 2049 2050 2051 2052 2053 2054 2055 2056 2057 2058 2059 2060 2061 2062 2063 
2064 2065 2066 2067 2068 2069 2070 2071 2072 2073 2074 2075 2076 2077 2078 2079 
</DataArray>
<DataArray type="Int32" Name="offsets" format="ascii">
4 8 12 16 20 24 28 32 36 40 44 48 52 56 60 64 68 72 76 80 84 88 92 96 100 104 108 112 116 120 124 128 132 136 140 144 148 152 156 160 164 168 172 176 180 184 188 192 196 200 204 208 212 216 220 224 228 232 236 240 244 248 252 256 260 264 268 272 276 280 284 288 292 296 300 304 308 312 316 320 324 328 332 336 340 344 348 352 356 360 364 368 372 376 380 384 388 392 396 400 404 408 412 416 420 424 428 432 436 440 444 448 452 456 460 464 468 472 476 480 484 488 492 496 500 504 508 512 516 520 524 528 532 536 540 544 548 552 556 560 564 568 572 576 580 584 588 592 596 600 604 608 612 616 620 624 628 632 636 640 644 648 652 656 660 664 668 672 676 680 684 688 692 696 700 704 708 712 716 720 724 728 732 736 740 744 748 752 756 760 764 768 772 776 780 784 788 792 796 800 804 808 812 816 820 824 828 832 836 840 844 848 852 856 860 864 868 872 876 880 884 888 892 896 900 904 908 912 916 920 924 928 932 936 940 944 948 952 956 960 964 968 972 976 980 984 988 992 996 1000 1004 1008 1012 1016 1020 1024 1028 1032 1036 1040 1044 1048 1052 1056 1060 1064 1068 1072 1076 1080 1084 1088 1092 1096 1100 1104 1108 1112 1116 1120 1124 1128 1132 1136 1140 1144 1148 1152 1156 1160 1164 1168 1172 1176 1180 1184 1188 1192 1196 1200 1204 1208 1212 1216 1220 1224 1228 1232 1236 1240 1244 1248 1252 1256 1260 1264 1268 1272 1276 1280 1284 1288 1292 1296 1300 1304 1308 1312 1316 1320 1324 1328 1332 1336 1340 1344 1348 1352 1356 1360 1364 1368 1372 1376 1380 1384 1388 1392 1396 1400 1404 1408 1412 1416 1420 1424 1428 1432 1436 1440 1444 1448 1452 1456 1460 1464 1468 1472 1476 1480 1484 1488 1492 1496 1500 1504 1508 1512 1516 1520 1524 1528 1532 1536 1540 1544 1548 1552 1556 1560 1564 1568 1572 1576 1580 1584 1588 1592 1596 1600 1604 1608 1612 1616 1620 1624 1628 1632 1636 1640 1644 1648 1652 1656 1660 1664 1668 1672 1676 1680 1684 1688 1692 1696 1700 1704 1708 1712 1716 1720 1724 1728 1732 1736 1740 1744 1748 1752 1756 1760 1764 1768 1772 1776 1780 1784 1788 1792 1796 1800 1804 1808 1812 1816 1820 1824 1828 1832 1836 1840 1844 1848 1852 1856 1860 1864 1868 1872 1876 1880 1884 1888 1892 1896 1900 1904 1908 1912 1916 1920 1924 1928 1932 1936 1940 1944 1948 1952 1956 1960 1964 1968 1972 1976 1980 1984 1988 1992 1996 2000 2004 2008 2012 2016 2020 2024 2028 2032 2036 2040 2044 2048 2064 2080 
</DataArray>
<DataArray type="UInt8" Name="types" format="ascii">
7 7 7 7 7 7 7 7 7 7 7 7 7 7 7 7 7 7 7 7 7 7 7 7 7 7 7 7 7 7 7 7 7 7 7 7 7 7 7 7 7 7 7 7 7 7 7 7 7 7 7 7 7 7 7 7 7 7 7 7 7 7 7 7 7 7 7 7 7 7 7 7 7 7 7 7 7 7 7 7 7 7 7 7 7 7 7 7 7 7 7 7 7 7 7 7 7 7 7 7 7 7 7 7 7 7 7 7 7 7 7 7 7 7 7 7 7 7 7 7 7 7 7 7 7 7 7 7 7 7 7 7 7 7 7 7 7 7 7 7 7 7 7 7 7 7 7 7 7 7 7 7 7 7 7 7 7 7 7 7 7 7 7 7 7 7 7 7 7 7 7 7 7 7 7 7 7 7 7 7 7 7 7 7 7 7 7 7 7 7 7 7 7 7 7 7 7 7 7 7 7 7 7 7 7 7 7 7 7 7 7 7 7 7 7 7 7 7 7 7 7 7 7 7 7 7 7 7 7 7 7 7 7 7 7 7 7 7 7 7 7 7 7 7 7 7 7 7 7 7 7 7 7 7 7 7 7 7 7 7 7 7 7 7 7 7 7 7 7 7 7 7 7 7 7 7 7 7 7 7 7 7 7 7 7 7 7 7 7 7 7 7 7 7 7 7 7 7 7 7 7 7 7 7 7 7 7 7 7 7 7 7 7 7 7 7 7 7 7 7 7 7 7 7 7 7 7 7 7 7 7 7 7 7 7 7 7 7 7 7 7 7 7 7 7 7 7 7 7 7 7 7 7 7 7 7 7 7 7 7 7 7 7 7 7 7 7 7 7 7 7 7 7 7 7 7 7 7 7 7 7 7 7 7 7 7 7 7 7 7 7 7 7 7 7 7 7 7 7 7 7 7 7 7 7 7 7 7 7 7 7 7 7 7 7 7 7 7 7 7 7 7 7 7 7 7 7 7 7 7 7 7 7 7 7 7 7 7 7 7 7 7 7 7 7 7 7 7 7 7 7 7 7 7 7 7 7 7 7 7 7 7 7 7 7 7 7 7 7 7 7 7 7 7 7 7 7 7 7 7 7 7 7 7 7 7 7 7 7 7 7 7 7 7 7 7 7 7 7 7 7 7 7 7 7 7 7 7 7 7 7 7 7 7 
</DataArray>
</Cells>
<CellData Scalars="cell variable 4" Vectors="cell vector">
<DataArray type="Float64" NumberOfComponents="3" Name="cell vector" format="ascii">
0.179139 0.0730911 0.981105
0.528599 0.163877 0.832903
0.788777 0.22723 0.571137
0.918583 0.313981 0.240044
0.758745 0.621118 -0.19626
0.309199 0.765191 -0.564694
-0.155451 -0.560919 0.813145
-0.036294 -0.221248 0.974542
0.042705 0.216517 0.975344
0.141764 0.569735 0.809509
0.303238 0.768679 0.563186
0.75645 0.623887 0.196337
0.91743 0.317618 -0.239667
0.782842 0.244861 -0.572015
-0.515657 -0.192291 0.834938
-0.187904 -0.0573977 0.980509
0.161815 0.110321 0.980635
0.464128 0.307835 0.830556
0.692373 0.46118 0.554917
0.803711 0.561804 0.196024
0.76 0.619799 -0.195574
0.561751 0.615488 -0.552819
-0.365936 -0.423629 0.828631
-0.129007 -0.149216 0.980353
0.129045 0.14991 0.980242
0.362408 0.427856 0.82801
0.560179 0.617411 0.552271
0.759289 0.620776 0.195239
0.802699 0.563157 -0.196286
0.690783 0.463101 -0.555299
-0.462306 -0.309698 0.830879
-0.163887 -0.106846 0.980676
0.160707 0.112698 0.980547
0.459107 0.316527 0.830079
0.685631 0.472772 0.553532
0.800917 0.566504 0.193917
0.769373 0.608129 -0.195563
0.552658 0.627105 -0.548916
-0.377709 -0.413955 0.828237
-0.134385 -0.144027 0.980407
0.134084 0.145225 0.980271
0.376009 0.41637 0.8278
0.552036 0.628042 0.548469
0.76874 0.60903 0.195248
0.800165 0.567466 -0.194212
0.684973 0.473419 -0.553793
-0.458186 -0.317029 0.830397
-0.161711 -0.110132 0.980674
0.161395 0.112291 0.980481
0.46072 0.315368 0.829626
0.689535 0.468508 0.552306
0.809107 0.555287 0.192359
0.782932 0.590567 -0.195568
0.375297 0.77023 -0.515652
-0.48668 0.84321 -0.228341
-0.623293 0.780104 -0.0542636
-0.623617 0.780049 0.051235
-0.490957 0.842616 0.22127
0.377287 0.769358 0.515502
0.782246 0.59158 0.195257
0.808491 0.556086 -0.192643
0.689266 0.468673 -0.552502
-0.459995 -0.31558 0.829948
-0.16178 -0.110181 0.980657
0.161979 0.111719 0.98045
0.461614 0.3145 0.829459
0.690288 0.467881 0.551897
0.809586 0.554798 0.191756
0.78463 0.588298 -0.195606
0.438918 0.728167 -0.526425
-0.473958 0.853341 -0.217195
-0.602543 0.796349 -0.0526215
-0.602472 0.796462 0.0517245
-0.473327 0.853787 0.216819
0.441719 0.726462 0.526438
0.784272 0.588874 0.195306
0.80924 0.555216 -0.192006
0.690305 0.467677 -0.552048
-0.461174 -0.314326 0.82977
-0.162043 -0.109852 0.98065
0.16257 0.110594 0.98048
0.462925 0.311875 0.829719
0.692204 0.464525 0.552331
0.812642 0.550262 0.191896
0.792325 0.57777 -0.195967
0.48247 0.695915 -0.531907
-0.47768 0.858722 -0.185523
-0.585163 0.809555 -0.0469633
-0.585083 0.809658 0.0461812
-0.476993 0.859151 0.185305
0.485888 0.693399 0.532082
0.792077 0.578198 0.195709
0.812445 0.550481 -0.192104
0.69236 0.464144 -0.552456
-0.462677 -0.311439 0.830022
-0.162475 -0.108854 0.98069
0.163481 0.108801 0.980529
0.465351 0.307243 0.83009
0.695956 0.458164 0.552929
0.817991 0.542195 0.192135
0.802724 0.563101 -0.196346
0.517117 0.667439 -0.535832
-0.485879 0.861637 -0.146639
-0.568646 0.821635 -0.0394677
-0.568575 0.821722 0.0386827
-0.485364 0.861996 0.146232
0.520999 0.664188 0.53611
0.802567 0.563405 0.196118
0.817904 0.542261 -0.192317
0.696175 0.4577 -0.553038
-0.465219 -0.306643 0.830386
-0.163292 -0.107142 0.980743
0.164717 0.10649 0.980575
0.468795 0.301026 0.83043
0.701277 0.449326 0.553459
0.825065 0.531291 0.192346
0.814054 0.54648 -0.196659
0.545994 0.641566 -0.538779
-0.491577 0.863888 -0.109772
-0.55208 0.833194 -0.0315507
-0.552018 0.833265 0.0307413
-0.491199 0.864175 0.1092
0.550385 0.637484 0.539157
0.813965 0.546687 0.196453
0.825058 0.531243 -0.192511
0.701522 0.448823 -0.553556
-0.468732 -0.300321 0.830721
-0.164461 -0.104887 0.980791
0.166212 0.103784 0.980613
0.473018 0.293586 0.830699
0.707752 0.438537 0.55387
0.833328 0.518174 0.192512
0.825504 0.528937 -0.1969
0.571209 0.617213 -0.541081
-0.492274 0.866832 -0.0791757
-0.535133 0.844423 -0.0241396
-0.535083 0.844478 0.0232891
-0.491994 0.867053 0.0784844
0.576151 0.612179 0.541559
0.825449 0.529093 0.196711
0.833366 0.518055 -0.192664
0.708005 0.438018 -0.553958
-0.472993 -0.292814 0.830986
-0.165902 -0.102223 0.98083
0.167888 0.100771 0.980642
0.477784 0.285183 0.830899
0.715013 0.426203 0.554172
0.842327 0.503366 0.192634
0.836749 0.510893 -0.197081
0.595442 0.591945 -0.543186
-0.488005 0.871076 -0.0554864
-0.517673 0.855394 -0.0177669
-0.51764 0.855433 0.016859
-0.487796 0.871241 0.0547161
0.600758 0.586051 0.543723
0.8367 0.51104 0.196906
0.842388 0.50321 -0.192776
0.715261 0.425683 -0.554252
-0.477776 -0.284367 0.831183
-0.167532 -0.0992438 0.980859
0.169677 0.0975223 0.980663
0.482866 0.276051 0.831045
0.722727 0.412693 0.554392
0.85173 0.487252 0.192723
0.847696 0.492463 -0.197211
0.615292 0.569992 -0.54454
-0.479715 0.876615 -0.0376712
-0.499671 0.866123 -0.0126595
-0.499652 0.866147 0.0117028
-0.479565 0.876733 0.0368396
0.621134 0.563014 0.545168
0.847635 0.492632 0.197048
0.851796 0.487084 -0.192855
0.722963 0.412183 -0.554463
-0.482864 -0.27521 0.831325
-0.169278 -0.0960252 0.980879
0.171518 0.0940944 0.980677
0.488087 0.266387 0.831149
0.730627 0.398323 0.554547
0.861285 0.47013 0.192787
0.858314 0.473675 -0.197302
0.633947 0.548016 -0.545702
-0.468006 0.883371 -0.02502
-0.481167 0.876585 -0.00877002
-0.481159 0.876599 0.00778106
-0.467915 0.883444 0.0241282
0.640339 0.539808 0.546419
0.858233 0.473887 0.19715
0.861344 0.469972 -0.192909
0.730848 0.39783 -0.55461
-0.488083 -0.265531 0.831425
-0.17108 -0.092626 0.980894
0.173371 0.0905258 0.980687
0.493339 0.2563 0.83122
0.738551 0.383278 0.554654
0.870803 0.452238 0.192831
0.86857 0.454568 -0.197368
0.651607 0.52584 -0.546718
-0.453781 0.890967 -0.016156
-0.462214 0.886749 -0.00589807
-0.462216 0.886754 0.00489336
-0.453755 0.890997 0.0152005
0.65849 0.516354 0.547511
0.868456 0.454849 0.197225
0.870848 0.452102 -0.192944
0.738756 0.382802 -0.554709
-0.493327 -0.255438 0.831493
-0.172894 -0.0890872 0.980903
0.175206 0.0868445 0.980694
0.498535 0.245882 0.831267
0.74637 0.367712 0.554724
0.88015 0.433752 0.19286
0.878447 0.435155 -0.197413
0.668391 0.503353 -0.547621
-0.437727 0.899053 -0.00998337
-0.442874 0.896576 -0.0037939
-0.442877 0.896578 0.00283171
-0.437782 0.899037 0.00893745
0.676014 0.492065 0.548523
0.878292 0.435528 0.197277
0.880182 0.433641 -0.192965
0.746561 0.367253 -0.554772
-0.498512 -0.24502 0.831535
-0.17469 -0.085441 0.980909
0.177002 0.0830736 0.980698
0.503609 0.235214 0.831295
0.753987 0.351763 0.554767
0.889223 0.414826 0.192879
0.887935 0.415438 -0.197441
0.68619 0.477559 -0.548709
-0.420412 0.907316 -0.00557718
-0.423214 0.906027 -0.00219
-0.423201 0.906035 0.0013601
-0.420546 0.90726 0.00444584
0.694166 0.464797 0.549633
0.887737 0.415921 0.197313
0.889254 0.414713 -0.192976
0.75417 0.351308 -0.554807
-0.503573 -0.234359 0.831559
-0.176444 -0.0817183 0.980913
0.178742 0.0792318 0.980701
0.508514 0.224363 0.831309
0.761325 0.335553 0.554787
0.897931 0.395618 0.192888
0.897026 0.395422 -0.197448
0.715717 0.428686 -0.551341
-0.402359 0.91548 -0.00209689
-0.403301 0.915067 -0.000824404
-0.403249 0.91509 0.000223624
-0.402433 0.915449 0.00108387
0.714704 0.43077 0.551032
0.896842 0.395896 0.197334
0.897997 0.395426 -0.192977
0.761507 0.335089 -0.554817
-0.508461 -0.223529 0.831566
-0.178138 -0.0779449 0.980914
0.180412 0.0753434 0.980701
0.513218 0.213371 0.831313
0.768341 0.319146 0.554796
0.906181 0.376332 0.1929
0.905426 0.3758 -0.197427
0.772376 0.310228 -0.554251
-0.384718 0.923032 0.00219711
-0.383284 0.92363 0.000652709
-0.383195 0.923667 -0.00110792
-0.384487 0.923126 -0.0027396
0.787313 0.271663 0.553478
0.905437 0.37582 0.197338
0.906279 0.37606 -0.192971
0.768508 0.31872 -0.55481
-0.513142 -0.212578 0.831562
-0.179764 -0.074125 0.980913
0.181993 0.0714684 0.980699
0.517676 0.202363 0.8313
0.775014 0.302606 0.554781
0.914146 0.356549 0.192901
0.913679 0.355284 -0.197395
0.797099 0.242255 -0.553123
-0.365899 0.930641 0.00509814
-0.362826 0.931856 0.0014642
-0.36288 0.931833 -0.00248307
-0.366103 0.930554 -0.00617015
0.819442 0.166128 0.548559
0.91362 0.355478 0.197318
0.914143 0.356524 -0.19296
0.775145 0.302263 -0.554786
-0.517587 -0.20158 0.831547
-0.181313 -0.070281 0.980911
0.183496 0.0675896 0.980694
0.521895 0.19137 0.831266
0.781289 0.286119 0.554728
0.921564 0.336925 0.192876
0.921272 0.335115 -0.197374
0.85111 -0.0391778 -0.523524
-0.348052 0.937425 0.00967301
-0.342357 0.939566 0.00288496
-0.342451 0.939527 -0.00406302
-0.348245 0.937343 -0.0106734
0.843245 0.0377965 0.536199
0.921277 0.335153 0.197286
0.921547 0.336937 -0.192939
0.781394 0.285815 -0.554737
-0.521781 -0.190602 0.831514
-0.182775 -0.0664537 0.980906
0.184914 0.0637272 0.980686
0.525844 0.180477 0.831214
0.787102 0.269873 0.554652
0.928346 0.317779 0.192846
0.928366 0.314959 -0.197328
0.851241 -0.118001 -0.511336
-0.331888 0.943167 0.0169161
-0.322071 0.9467 0.0054914
-0.322059 0.9467 -0.00618092
-0.331767 0.9432 -0.017463
0.84951 -0.047627 0.525419
0.928455 0.31475 0.197241
0.928396 0.317598 -0.192904
0.787208 0.269554 -0.554657
-0.525709 -0.17973 0.831461
-0.184145 -0.0626714 0.980899
0.186229 0.0599542 0.980675
0.529496 0.169824 0.83114
0.79246 0.253939 0.554546
0.934654 0.298743 0.192808
0.935165 0.294212 -0.197244
0.848727 -0.0795924 -0.522807
-0.316551 0.948227 0.025723
-0.301674 0.953373 0.00850347
-0.301663 0.953371 -0.00910522
-0.31668 0.94816 -0.0265895
0.848019 -0.0580219 0.526781
0.935169 0.294248 0.197174
0.934695 0.298583 -0.192853
0.792566 0.253621 -0.554541
-0.529356 -0.169064 0.831384
-0.185426 -0.0589557 0.980888
0.187447 0.0563029 0.98066
0.532861 0.159515 0.831032
0.79735 0.238513 0.554386
0.940383 0.280232 0.192745
0.941421 0.273615 -0.197133
0.846781 -0.0838085 -0.525299
-0.303604 0.952025 0.0383893
-0.281356 0.959523 0.0124488
-0.281369 0.95951 -0.0131177
-0.303869 0.951898 -0.0394097
0.846433 -0.0676325 0.528182
0.941391 0.273758 0.197077
0.940412 0.280109 -0.19278
0.79745 0.238213 -0.554372
-0.532721 -0.158728 0.831272
-0.186618 -0.0553514 0.980872
0.18857 0.0528282 0.980638
0.535932 0.149735 0.830877
0.801736 0.223903 0.554154
0.945479 0.262593 0.192652
0.947186 0.25305 -0.196988
0.844905 -0.0961347 -0.526207
-0.293857 0.954199 0.056139
-0.261203 0.965123 0.0176044
-0.261244 0.965098 -0.0183697
-0.294226 0.954018 -0.0572708
0.844847 -0.0822012 0.528655
0.947132 0.253284 0.196945
0.945504 0.262486 -0.192676
0.801832 0.223614 -0.554132
-0.535798 -0.148898 0.831113
-0.187721 -0.0519249 0.980849
0.1896 0.0496101 0.980607
0.538701 0.140734 0.830659
0.805585 0.2105 0.553825
0.949903 0.246213 0.192516
0.95249 0.232454 -0.196796
0.842831 -0.111612 -0.526478
-0.288032 0.954265 0.0800956
-0.241241 0.970169 0.0239819
-0.241324 0.970125 -0.0249083
-0.288518 0.954012 -0.0813565
0.843018 -0.0996772 0.528569
0.952408 0.232815 0.196766
0.94993 0.246102 -0.19253
0.805684 0.210201 -0.553795
-0.538582 -0.139813 0.830892
-0.188736 -0.0487605 0.980817
0.190534 0.0467532 0.980567
0.541159 0.13284 0.830362
0.808865 0.198806 0.553365
0.953606 0.231621 0.192322
0.957316 0.21194 -0.19654
0.840317 -0.131331 -0.525946
-0.286528 0.951633 0.110888
-0.22144 0.97467 0.0313447
-0.221583 0.974599 -0.0325209
-0.287132 0.951288 -0.112273
0.840715 -0.12111 0.52776
0.957208 0.21244 0.196526
0.95364 0.231477 -0.192326
0.808974 0.198469 -0.553328
-0.541066 -0.131782 0.830591
-0.189663 -0.0459688 0.980773
0.191358 0.0443935 0.980516
0.543273 0.126469 0.829976
0.811527 0.189455 0.552749
0.95652 0.219518 0.192044
0.961577 0.19201 -0.196217
0.836861 -0.157597 -0.524239
-0.288609 0.946034 0.147395
-0.201641 0.978678 0.0391272
-0.20186 0.978572 -0.0406211
-0.2893 0.945596 -0.148844
0.837443 -0.149014 0.525817
0.961461 0.192593 0.196217
0.956569 0.219309 -0.192041
0.811651 0.189042 -0.552708
-0.543221 -0.125203 0.830202
-0.190495 -0.0436949 0.980715
0.192015 0.0426889 0.980463
0.544935 0.122108 0.82954
0.813472 0.183177 0.552005
0.95855 0.210832 0.191656
0.965048 0.174121 -0.195866
0.831354 -0.194277 -0.52068
-0.290843 0.938809 0.18452
-0.18126 0.982343 0.046326
-0.18156 0.982202 -0.0481258
-0.291515 0.938341 -0.185835
0.832084 -0.1874 0.522032
0.964948 0.174673 0.19587
0.958618 0.210522 -0.191658
0.813617 0.182641 -0.551968
-0.544942 -0.12053 0.829765
-0.19119 -0.0421057 0.98065
0.192352 0.0417683 0.980437
0.545831 0.120173 0.829233
0.814418 0.180739 0.551414
0.959434 0.207108 0.191292
0.967149 0.162342 -0.19562
0.820715 -0.250685 -0.513405
-0.282058 0.93678 0.207091
-0.157761 0.98617 0.0507907
-0.158076 0.986031 -0.052488
-0.282359 0.936564 -0.207657
0.821443 -0.246289 0.514366
0.967095 0.162676 0.195613
0.959525 0.206668 -0.19131
0.814586 0.180005 -0.551405
-0.545927 -0.118138 0.829462
-0.191628 -0.0413342 0.980597
0.192038 0.0416625 0.980503
0.545101 0.121217 0.829561
0.813159 0.184449 0.552043
0.957712 0.214179 0.192135
0.966455 0.166564 -0.195501
0.766332 -0.434364 -0.473354
-0.220089 0.961068 0.167058
-0.11773 0.992054 0.0443668
-0.117579 0.992111 -0.0434764
-0.216801 0.962692 -0.161932
0.767283 -0.431625 0.474317
0.966522 0.166136 0.195534
0.957905 0.21331 -0.192138
0.813388 0.183219 -0.552114
-0.545365 -0.118422 0.829791
-0.191537 -0.0414538 0.98061
0.190876 0.0385342 0.980858
0.542772 0.111976 0.832382
0.812314 0.169171 0.558146
0.960639 0.193734 0.1991
0.970031 0.145976 -0.194242
0.829254 -0.0497397 -0.556655
-0.555744 0.0114455 0.831274
-0.195329 0.00127323 0.980737
0.195444 -0.00174975 0.980713
0.555719 -0.0138852 0.831254
0.829195 -0.0494401 0.556769
0.969991 0.146075 0.194367
0.960801 0.193072 -0.198957
0.812582 0.167982 -0.558115
-0.543277 -0.109305 0.832408
-0.190574 -0.0385196 0.980917
0.19097 0.03567 0.980948
0.543051 0.104031 0.833231
0.813351 0.157159 0.560144
0.96318 0.178195 0.201321
0.972266 0.129105 -0.195012
0.826745 -0.000846061 -0.562577
-0.550218 0.00616869 0.834998
-0.192771 0.00108161 0.981243
0.193076 -0.00162165 0.981182
0.550045 -0.0106579 0.835067
0.826648 -0.000591759 0.562719
0.972203 0.129406 0.195131
0.963292 0.177793 -0.201143
0.813577 0.156411 -0.560025
-0.543603 -0.101752 0.833152
-0.190635 -0.0358031 0.981008
0.186592 0.043143 0.98149
0.528868 0.132186 0.838347
0.787547 0.219736 0.575748
0.929984 0.284561 0.232713
0.975335 0.0617333 -0.211919
0.799101 -0.125616 -0.587927
-0.536681 0.0528038 0.842131
-0.188359 0.0152071 0.981983
0.188458 -0.0150547 0.981966
0.534841 -0.063786 0.842542
0.799203 -0.124752 0.587973
0.97526 0.0663113 0.210879
0.930462 0.283269 -0.232377
0.788129 0.218174 -0.575546
-0.531858 -0.12454 0.837626
-0.186342 -0.0436819 0.981513
0.00811822 0.00769998 0.999937
0.00257188 0.000343963 0.999997
</DataArray>
<DataArray type="Float64" Name="cell vector length" format="ascii">
0.162137 0.148288 0.138194 0.110296 0.0714419 0.146215 0.201138 0.190157 0.186341 0.194787 0.147756 0.0713574 0.109485 0.135995 0.166917 0.170651 0.405299 0.379599 0.347382 0.30925 0.278026 0.322806 0.406934 0.440472 0.435078 0.392271 0.320687 0.278068 0.310223 0.35038 0.400313 0.412771 0.508088 0.482244 0.444278 0.394741 0.341992 0.399789 0.507724 0.551422 0.547578 0.496681 0.398107 0.342398 0.395964 0.446516 0.498435 0.513455 0.536886 0.509058 0.465042 0.403035 0.317658 0.159331 0.157652 0.256442 0.256979 0.159776 0.159916 0.318258 0.404227 0.466829 0.523714 0.541568 0.55431 0.523724 0.47203 0.39489 0.280627 0.117624 0.146296 0.246729 0.246307 0.145113 0.118103 0.281514 0.396131 0.473533 0.537514 0.558577 0.566639 0.533107 0.473801 0.382865 0.249977 0.0833104 0.133287 0.231933 0.231542 0.132156 0.0840649 0.251186 0.384199 0.475138 0.546401 0.570668 0.575673 0.53963 0.474143 0.372771 0.228473 0.0592709 0.124589 0.219691 0.219363 0.123567 0.0601223 0.229861 0.374161 0.475378 0.55265 0.57957 0.582187 0.544169 0.474014 0.36518 0.213656 0.0423966 0.119417 0.210231 0.209946 0.11847 0.0432843 0.215149 0.366606 0.475195 0.557064 0.586021 0.586816 0.547286 0.473701 0.359635 0.203384 0.030382 0.116587 0.203252 0.202998 0.115693 0.0312732 0.204939 0.361094 0.474865 0.560157 0.590631 0.59006 0.54939 0.473321 0.355613 0.19618 0.0221312 0.114882 0.19833 0.198097 0.114025 0.0230108 0.197769 0.357102 0.474491 0.5623 0.593882 0.592286 0.550767 0.472943 0.35273 0.19116 0.0159334 0.114205 0.194853 0.194634 0.113368 0.0167844 0.192765 0.354244 0.47413 0.563756 0.596134 0.593791 0.55164 0.472575 0.350635 0.187588 0.0113677 0.113949 0.192466 0.192258 0.113126 0.0121774 0.189198 0.352168 0.473782 0.564729 0.597674 0.59479 0.55217 0.472229 0.349101 0.18503 0.00794902 0.113929 0.190935 0.190738 0.113118 0.00871359 0.186642 0.350645 0.473453 0.565367 0.598712 0.595419 0.552456 0.471915 0.347986 0.183207 0.00536818 0.114027 0.190028 0.189847 0.113235 0.00606184 0.184813 0.349531 0.473152 0.565766 0.599383 0.595771 0.552562 0.471635 0.347201 0.181928 0.00344145 0.11419 0.189582 0.189424 0.113436 0.0039765 0.183514 0.348729 0.472885 0.565992 0.59978 0.595902 0.552524 0.47138 0.346692 0.181135 0.00220017 0.114358 0.189516 0.18938 0.113665 0.00216608 0.182668 0.348204 0.472657 0.566082 0.59996 0.595845 0.552368 0.47114 0.346385 0.180635 0.00269294 0.114712 0.189821 0.189649 0.114044 0.000924532 0.18198 0.347917 0.472457 0.566048 0.599948 0.595595 0.552098 0.470939 0.346327 0.181566 0.00493096 0.114633 0.190458 0.190267 0.114197 0.00209838 0.182397 0.347877 0.472277 0.565885 0.599739 0.595111 0.551688 0.470797 0.346537 0.180874 0.00222586 0.115624 0.191421 0.191269 0.11471 0.00265346 0.182743 0.348114 0.472133 0.565572 0.599295 0.594336 0.551092 0.470679 0.347075 0.182142 0.00334276 0.115996 0.192851 0.192701 0.115217 0.00394885 0.183759 0.348692 0.472025 0.565071 0.598558 0.593165 0.550226 0.470568 0.348043 0.18404 0.0061073 0.116579 0.194919 0.194746 0.115765 0.00648365 0.185669 0.349713 0.471943 0.56431 0.597429 0.591435 0.54898 0.470491 0.349657 0.187011 0.00981425 0.117353 0.197819 0.19765 0.116544 0.0102099 0.18866 0.351347 0.471891 0.563183 0.595749 0.588931 0.547205 0.47045 0.352145 0.191547 0.01509 0.118546 0.201873 0.201707 0.117733 0.0155532 0.193203 0.353837 0.471866 0.561541 0.593305 0.585353 0.54468 0.470433 0.355853 0.198344 0.0227803 0.12055 0.2075 0.207325 0.119711 0.0232798 0.199982 0.357522 0.471859 0.559174 0.589803 0.580285 0.541087 0.4704 0.361258 0.208441 0.0340331 0.124043 0.215201 0.215006 0.123154 0.0345177 0.210018 0.362872 0.471836 0.55579 0.584839 0.573147 0.535957 0.470204 0.368896 0.223339 0.0505166 0.13014 0.225584 0.225354 0.129169 0.0509226 0.224792 0.370413 0.471655 0.550949 0.577853 0.56298 0.528377 0.469146 0.378761 0.24477 0.0744066 0.140622 0.239598 0.239333 0.139555 0.074635 0.246009 0.380134 0.470625 0.543787 0.567906 0.546917 0.515078 0.463342 0.386757 0.271264 0.106604 0.159824 0.260275 0.260046 0.158792 0.106501 0.272153 0.387927 0.464873 0.531165 0.552183 0.508462 0.477504 0.430489 0.365558 0.276897 0.124721 0.208517 0.307091 0.308238 0.212261 0.124784 0.277567 0.366597 0.432143 0.495123 0.514365 0.484435 0.45368 0.40863 0.351289 0.291924 0.358288 0.482797 0.529818 0.524168 0.466848 0.356269 0.292574 0.352391 0.410398 0.472281 0.490657 0.448219 0.416988 0.372314 0.320069 0.281633 0.326779 0.431073 0.473908 0.466669 0.410127 0.324904 0.282134 0.321124 0.374113 0.436316 0.454689 0.204522 0.172394 0.124906 0.0714024 0.047015 0.123692 0.245725 0.303287 0.297644 0.228636 0.124454 0.0482546 0.0722554 0.124566 0.191815 0.210549 0.0544491 0.0152124 
</DataArray>
<DataArray type="Float64" Name="cell variable 4" format="ascii">
860.366 852.467 851.277 846.812 837.049 871.016 879.788 863.053 859.763 871.454 871.705 836.913 846.208 848.818 866.552 865.422 1098.98 1079.58 1068.52 1061.48 1057.63 1080.64 1115.01 1109.73 1103.5 1095.8 1080.61 1057.61 1061.32 1068.68 1108.1 1108.58 1298.18 1275.63 1261.28 1251.28 1245.04 1274.96 1314.23 1314.78 1308.49 1294.38 1275.17 1245.28 1251.39 1261.45 1309.33 1309.01 1339.7 1315.15 1298.4 1286.74 1278.06 1322.86 1540.46 1765.11 1763.36 1536.69 1322.23 1277.97 1286.66 1298.49 1349.75 1350.79 1348.46 1323.83 1307.7 1298.56 1293.88 1323.65 1523.67 1730.83 1729.62 1521.26 1322.74 1293.68 1298.46 1307.77 1358.58 1359.56 1351.49 1325.87 1308.21 1297.95 1292.87 1314.67 1510.6 1700.32 1699.4 1508.66 1313.98 1292.8 1297.93 1308.3 1360.65 1362.58 1353.5 1326.77 1307.42 1295.89 1290.48 1308.08 1502.76 1676.64 1675.91 1501.13 1307.41 1290.42 1295.91 1307.52 1361.61 1364.61 1355.01 1327.34 1306.64 1294.1 1288.45 1303.39 1498.59 1659 1658.42 1497.18 1302.73 1288.4 1294.12 1306.73 1362.33 1366.18 1356.2 1327.77 1305.97 1292.66 1286.87 1299.85 1496.61 1646.37 1645.9 1495.38 1299.18 1286.82 1292.67 1306.04 1362.94 1367.45 1357.12 1328.07 1305.43 1291.54 1285.65 1297.06 1495.39 1637.67 1637.28 1494.3 1296.38 1285.6 1291.54 1305.48 1363.46 1368.48 1357.76 1328.19 1304.98 1290.7 1284.71 1294.88 1495.18 1631.62 1631.28 1494.19 1294.19 1284.66 1290.69 1305.03 1363.84 1369.22 1358.19 1328.21 1304.63 1290.08 1284 1293.12 1495.26 1627.52 1627.23 1494.36 1292.39 1283.95 1290.06 1304.67 1364.12 1369.77 1358.49 1328.16 1304.3 1289.57 1283.43 1291.59 1495.51 1624.94 1624.68 1494.69 1290.83 1283.37 1289.55 1304.33 1364.34 1370.19 1358.67 1328.04 1303.99 1289.15 1282.96 1290.28 1495.83 1623.44 1623.22 1495.08 1289.43 1282.9 1289.13 1304.03 1364.5 1370.48 1358.72 1327.86 1303.7 1288.82 1282.58 1289.19 1496.19 1622.73 1622.57 1495.52 1288.15 1282.5 1288.79 1303.74 1364.59 1370.66 1358.66 1327.61 1303.41 1288.55 1282.34 1288.49 1496.54 1622.64 1622.52 1495.97 1286.76 1282.24 1288.54 1303.47 1364.6 1370.72 1358.52 1327.35 1303.15 1288.3 1281.99 1289.6 1496.95 1623.16 1623.06 1496.67 1286.18 1282.03 1288.35 1303.21 1364.55 1370.67 1358.27 1327.03 1302.92 1288.13 1281.72 1290.34 1496.58 1624.27 1624.19 1496.85 1286.72 1281.8 1288.17 1302.96 1364.44 1370.52 1357.9 1326.61 1302.67 1288.11 1281.81 1288.79 1498.33 1625.96 1625.87 1497.54 1287.07 1281.71 1288.09 1302.73 1364.25 1370.25 1357.43 1326.17 1302.47 1288.14 1281.82 1288.27 1498.72 1628.44 1628.35 1498.19 1287.43 1281.71 1288.1 1302.51 1364 1369.86 1356.86 1325.7 1302.3 1288.2 1281.81 1289.28 1499.18 1632 1631.92 1498.77 1288.23 1281.78 1288.18 1302.33 1363.67 1369.36 1356.14 1325.15 1302.16 1288.41 1282.02 1290.28 1499.82 1637.03 1636.99 1499.46 1289.25 1281.98 1288.39 1302.19 1363.28 1368.72 1355.25 1324.53 1302.11 1288.82 1282.41 1291.36 1500.74 1644.15 1644.13 1500.4 1290.43 1282.37 1288.8 1302.14 1362.8 1367.89 1354.14 1323.83 1302.17 1289.5 1283.05 1292.79 1502.27 1654.19 1654.17 1501.92 1291.93 1283.01 1289.47 1302.21 1362.24 1366.85 1352.76 1323.04 1302.41 1290.53 1284.03 1294.9 1505.05 1668.21 1668.15 1504.64 1294.05 1283.99 1290.51 1302.45 1361.57 1365.53 1350.92 1322.01 1302.72 1291.88 1285.32 1298.13 1510.19 1687.45 1687.3 1509.63 1297.27 1285.28 1291.87 1302.77 1360.64 1363.74 1347.61 1319.7 1301.97 1292.29 1285.78 1302.65 1519.24 1713.27 1712.95 1518.42 1301.71 1285.72 1292.29 1302.02 1358.35 1360.45 1335.95 1308.63 1291.69 1282.46 1275.85 1304.86 1533.6 1746.93 1746.36 1532.38 1303.67 1275.66 1282.38 1291.72 1346.99 1348.72 1269.88 1242.12 1222.47 1208.54 1196.77 1255.77 1555.56 1794.46 1793.41 1553.39 1255.03 1196.71 1208.47 1222.41 1278.29 1281.97 1216.33 1189.81 1170.87 1157.31 1147.66 1176.04 1229.14 1235.88 1227.33 1203.69 1176.22 1147.95 1157.49 1170.95 1224.52 1227.94 1099.82 1073.99 1053.44 1037.13 1025.25 1038.16 1089.12 1091.51 1081.07 1058.47 1037.95 1025.43 1037.32 1053.82 1105.14 1110.4 768.643 759.565 758.165 762.483 769.76 798.298 850.215 866.22 860.008 830.937 799.706 770.085 762.372 756.691 778.323 774.367 617.614 745.326 
</DataArray>
<DataArray type="Float64" Name="cell variable 5" format="ascii">
0.00282595 0.00282595 0.00282595 0.00282595 0.00282595 0.00282595 0.00282595 0.00282595 0.00282595 0.00282595 0.00282595 0.00282595 0.00282595 0.00282595 0.00282595 0.00282595 0.00282595 0.00282595 0.00282595 0.00282595 0.00282595 0.00282595 0.00282595 0.00282595 0.00282595 0.00282595 0.00282595 0.00282595 0.00282595 0.00282595 0.00282595 0.00282595 0.00282595 0.00282595 0.00282595 0.00282595 0.00282595 0.00282595 0.00282595 0.00282595 0.00282595 0.00282595 0.00282595 0.00282595 0.00282595 0.00282595 0.00282595 0.00282595 0.00427096 0.00395382 0.00344201 0.00295406 0.00282595 0.00282595 0.00282595 0.00282595 0.00282595 0.00282595 0.00282595 0.00282595 0.00295406 0.00344201 0.00395382 0.00427096 0.00483238 0.00439216 0.00368128 0.00300368 0.00282595 0.00282595 0.00282595 0.00282595 0.00282595 0.00282595 0.00282595 0.00282595 0.00300368 0.00368128 0.00439216 0.00483238 0.00515768 0.0046465 0.00382006 0.00303256 0.00282595 0.00282595 0.00282595 0.00282595 0.00282595 0.00282595 0.00282595 0.00282595 0.00303256 0.00382006 0.0046465 0.00515768 0.00539443 0.0048305 0.00392117 0.00305391 0.00282595 0.00282595 0.00282595 0.00282595 0.00282595 0.00282595 0.00282595 0.00282595 0.00305391 0.00392117 0.0048305 0.00539443 0.00557906 0.00497494 0.00399967 0.00307024 0.00282595 0.00282595 0.00282595 0.00282595 0.00282595 0.00282595 0.00282595 0.00282595 0.00307024 0.00399967 0.00497494 0.00557906 0.00572789 0.00509111 0.00406309 0.00308343 0.00282595 0.00282595 0.00282595 0.00282595 0.00282595 0.00282595 0.00282595 0.00282595 0.00308343 0.00406309 0.00509111 0.00572789 0.00584972 0.00518594 0.00411522 0.00309411 0.00282595 0.00282595 0.00282595 0.00282595 0.00282595 0.00282595 0.00282595 0.00282595 0.00309411 0.00411522 0.00518594 0.00584972 0.00594832 0.00526318 0.00415729 0.0031029 0.00282595 0.00282595 0.00282595 0.00282595 0.00282595 0.00282595 0.00282595 0.00282595 0.0031029 0.00415729 0.00526318 0.00594832 0.00602745 0.00532535 0.0041912 0.00310981 0.00282595 0.00282595 0.00282595 0.00282595 0.00282595 0.00282595 0.00282595 0.00282595 0.00310981 0.0041912 0.00532535 0.00602745 0.00608899 0.00537308 0.00421695 0.00311546 0.00282595 0.00282595 0.00282595 0.00282595 0.00282595 0.00282595 0.00282595 0.00282595 0.00311546 0.00421695 0.00537308 0.00608899 0.0061342 0.00540825 0.00423642 0.00311923 0.00282595 0.00282595 0.00282595 0.00282595 0.00282595 0.00282595 0.00282595 0.00282595 0.00311923 0.00423642 0.00540825 0.0061342 0.00616435 0.00543148 0.00424898 0.00312237 0.00282595 0.00282595 0.00282595 0.00282595 0.00282595 0.00282595 0.00282595 0.00282595 0.00312237 0.00424898 0.00543148 0.00616435 0.00617879 0.00544342 0.00425526 0.00312362 0.00282595 0.00282595 0.00282595 0.00282595 0.00282595 0.00282595 0.00282595 0.00282595 0.00312362 0.00425526 0.00544342 0.00617879 0.00617879 0.00544342 0.00425526 0.00312362 0.00282595 0.00282595 0.00282595 0.00282595 0.00282595 0.00282595 0.00282595 0.00282595 0.00312362 0.00425526 0.00544342 0.00617879 0.00616435 0.00543148 0.00424898 0.00312237 0.00282595 0.00282595 0.00282595 0.00282595 0.00282595 0.00282595 0.00282595 0.00282595 0.00312237 0.00424898 0.00543148 0.00616435 0.0061342 0.00540825 0.00423642 0.00311923 0.00282595 0.00282595 0.00282595 0.00282595 0.00282595 0.00282595 0.00282595 0.00282595 0.00311923 0.00423642 0.00540825 0.0061342 0.00608899 0.00537308 0.00421695 0.00311546 0.00282595 0.00282595 0.00282595 0.00282595 0.00282595 0.00282595 0.00282595 0.00282595 0.00311546 0.00421695 0.00537308 0.00608899 0.00602745 0.00532535 0.0041912 0.00310981 0.00282595 0.00282595 0.00282595 0.00282595 0.00282595 0.00282595 0.00282595 0.00282595 0.00310981 0.0041912 0.00532535 0.00602745 0.00594832 0.00526318 0.00415729 0.0031029 0.00282595 0.00282595 0.00282595 0.00282595 0.00282595 0.00282595 0.00282595 0.00282595 0.0031029 0.00415729 0.00526318 0.00594832 0.00584972 0.00518594 0.00411522 0.00309411 0.00282595 0.00282595 0.00282595 0.00282595 0.00282595 0.00282595 0.00282595 0.00282595 0.00309411 0.00411522 0.00518594 0.00584972 0.00572789 0.00509111 0.00406309 0.00308343 0.00282595 0.00282595 0.00282595 0.00282595 0.00282595 0.00282595 0.00282595 0.00282595 0.00308343 0.00406309 0.00509111 0.00572789 0.00557906 0.00497494 0.00399967 0.00307024 0.00282595 0.00282595 0.00282595 0.00282595 0.00282595 0.00282595 0.00282595 0.00282595 0.00307024 0.00399967 0.00497494 0.00557906 0.00539443 0.0048305 0.00392117 0.00305391 0.00282595 0.00282595 0.00282595 0.00282595 0.00282595 0.00282595 0.00282595 0.00282595 0.00305391 0.00392117 0.0048305 0.00539443 0.00515768 0.0046465 0.00382006 0.00303256 0.00282595 0.00282595 0.00282595 0.00282595 0.00282595 0.00282595 0.00282595 0.00282595 0.00303256 0.00382006 0.0046465 0.00515768 0.00483238 0.00439216 0.00368128 0.00300368 0.00282595 0.00282595 0.00282595 0.00282595 0.00282595 0.00282595 0.00282595 0.00282595 0.00300368 0.00368128 0.00439216 0.00483238 0.00427096 0.00395382 0.00344201 0.00295406 0.00282595 0.00282595 0.00282595 0.00282595 0.00282595 0.00282595 0.00282595 0.00282595 0.00295406 0.00344201 0.00395382 0.00427096 0.00282595 0.00282595 0.00282595 0.00282595 0.00282595 0.00282595 0.00282595 0.00282595 0.00282595 0.00282595 0.00282595 0.00282595 0.00282595 0.00282595 0.00282595 0.00282595 0.00282595 0.00282595 0.00282595 0.00282595 0.00282595 0.00282595 0.00282595 0.00282595 0.00282595 0.00282595 0.00282595 0.00282595 0.00282595 0.00282595 0.00282595 0.00282595 0.00282595 0.00282595 0.00282595 0.00282595 0.00282595 0.00282595 0.00282595 0.00282595 0.00282595 0.00282595 0.00282595 0.00282595 0.00282595 0.00282595 0.00282595 0.00282595 0.00282595 0.00282595 
</DataArray>
<DataArray type="Float64" Name="cell variable 6" format="ascii">
1 1 1 1 1 1 1 1 1 1 1 1 1 1 1 1 1 1 1 1 1 1 1 1 1 1 1 1 1 1 1 1 1 1 1 1 1 1 1 1 1 1 1 1 1 1 1 1 1 1 1 1 1 1 1 1 1 1 1 1 1 1 1 1 1 1 1 1 1 1 1 1 1 1 1 1 1 1 1 1 1 1 1 1 1 1 1 1 1 1 1 1 1 1 1 1 1 1 1 1 1 1 1 1 1 1 1 1 1 1 1 1 1 1 1 1 1 1 1 1 1 1 1 1 1 1 1 1 1 1 1 1 1 1 1 1 1 1 1 1 1 1 1 1 1 1 1 1 1 1 1 1 1 1 1 1 1 1 1 1 1 1 1 1 1 1 1 1 1 1 1 1 1 1 1 1 1 1 1 1 1 1 1 1 1 1 1 1 1 1 1 1 1 1 1 1 1 1 1 1 1 1 1 1 1 1 1 1 1 1 1 1 1 1 1 1 1 1 1 1 1 1 1 1 1 1 1 1 1 1 1 1 1 1 1 1 1 1 1 1 1 1 1 1 1 1 1 1 1 1 1 1 1 1 1 1 1 1 1 1 1 1 1 1 1 1 1 1 1 1 1 1 1 1 1 1 1 1 1 1 1 1 1 1 1 1 1 1 1 1 1 1 1 1 1 1 1 1 1 1 1 1 1 1 1 1 1 1 1 1 1 1 1 1 1 1 1 1 1 1 1 1 1 1 1 1 1 1 1 1 1 1 1 1 1 1 1 1 1 1 1 1 1 1 1 1 1 1 1 1 1 1 1 1 1 1 1 1 1 1 1 1 1 1 1 1 1 1 1 1 1 1 1 1 1 1 1 1 1 1 1 1 1 1 1 1 1 1 1 1 1 1 1 1 1 1 1 1 1 1 1 1 1 1 1 1 1 1 1 1 1 1 1 1 1 1 1 1 1 1 1 1 1 1 1 1 1 1 1 1 1 1 1 1 1 1 1 1 1 1 1 1 1 1 1 1 1 1 1 1 1 1 1 1 1 1 1 1 1 1 1 1 1 1 1 1 1 1 1 1 1 1 1 1 1 1 1 1 1 1 1 1 1 1 1 1 1 1 1 1 1 1 1 1 1 1 1 1 1 1 1 1 1 1 1 1 1 1 1 1 1 1 1 1 
</DataArray>
<DataArray type="Float64" Name="cell variable 7" format="ascii">
0 0 0 0 0 0 0 0 0 0 0 0 0 0 0 0 0 0 0 0 0 0 0 0 0 0 0 0 0 0 0 0 0 0 0 0 0 0 0 0 0 0 0 0 0 0 0 0 0 0 0 0 0 0 0 0 0 0 0 0 0 0 0 0 0 0 0 0 0 0 0 0 0 0 0 0 0 0 0 0 0 0 0 0 0 0 0 0 0 0 0 0 0 0 0 0 0 0 0 0 0 0 0 0 0 0 0 0 0 0 0 0 0 0 0 0 0 0 0 0 0 0 0 0 0 0 0 0 0 0 0 0 0 0 0 0 0 0 0 0 0 0 0 0 0 0 0 0 0 0 0 0 0 0 0 0 0 0 0 0 0 0 0 0 0 0 0 0 0 0 0 0 0 0 0 0 0 0 0 0 0 0 0 0 0 0 0 0 0 0 0 0 0 0 0 0 0 0 0 0 0 0 0 0 0 0 0 0 0 0 0 0 0 0 0 0 0 0 0 0 0 0 0 0 0 0 0 0 0 0 0 0 0 0 0 0 0 0 0 0 0 0 0 0 0 0 0 0 0 0 0 0 0 0 0 0 0 0 0 0 0 0 0 0 0 0 0 0 0 0 0 0 0 0 0 0 0 0 0 0 0 0 0 0 0 0 0 0 0 0 0 0 0 0 0 0 0 0 0 0 0 0 0 0 0 0 0 0 0 0 0 0 0 0 0 0 0 0 0 0 0 0 0 0 0 0 0 0 0 0 0 0 0 0 0 0 0 0 0 0 0 0 0 0 0 0 0 0 0 0 0 0 0 0 0 0 0 0 0 0 0 0 0 0 0 0 0 0 0 0 0 0 0 0 0 0 0 0 0 0 0 0 0 0 0 0 0 0 0 0 0 0 0 0 0 0 0 0 0 0 0 0 0 0 0 0 0 0 0 0 0 0 0 0 0 0 0 0 0 0 0 0 0 0 0 0 0 0 0 0 0 0 0 0 0 0 0 0 0 0 0 0 0 0 0 0 0 0 0 0 0 0 0 0 0 0 0 0 0 0 0 0 0 0 0 0 0 0 0 0 0 0 0 0 0 0 0 0 0 0 0 0 0 0 0 0 0 0 0 0 0 0 0 0 0 0 0 0 0 0 0 0 0 0 0 0 0 0 0 0 0 0 1 1 
</DataArray>
<DataArray type="Float64" Name="cell variable 8" format="ascii">
11.25 33.75 56.25 78.75 101.25 123.75 146.25 168.75 191.25 213.75 236.25 258.75 281.25 303.75 326.25 348.75 11.25 33.75 56.25 78.75 101.25 123.75 146.25 168.75 191.25 213.75 236.25 258.75 281.25 303.75 326.25 348.75 11.25 33.75 56.25 78.75 101.25 123.75 146.25 168.75 191.25 213.75 236.25 258.75 281.25 303.75 326.25 348.75 11.25 33.75 56.25 78.75 101.25 123.75 146.25 168.75 191.25 213.75 236.25 258.75 281.25 303.75 326.25 348.75 11.25 33.75 56.25 78.75 101.25 123.75 146.25 168.75 191.25 213.75 236.25 258.75 281.25 303.75 326.25 348.75 11.25 33.75 56.25 78.75 101.25 123.75 146.25 168.75 191.25 213.75 236.25 258.75 281.25 303.75 326.25 348.75 11.25 33.75 56.25 78.75 101.25 123.75 146.25 168.75 191.25 213.75 236.25 258.75 281.25 303.75 326.25 348.75 11.25 33.75 56.25 78.75 101.25 123.75 146.25 168.75 191.25 213.75 236.25 258.75 281.25 303.75 326.25 348.75 11.25 33.75 56.25 78.75 101.25 123.75 146.25 168.75 191.25 213.75 236.25 258.75 281.25 303.75 326.25 348.75 11.25 33.75 56.25 78.75 101.25 123.75 146.25 168.75 191.25 213.75 236.25 258.75 281.25 303.75 326.25 348.75 11.25 33.75 56.25 78.75 101.25 123.75 146.25 168.75 191.25 213.75 236.25 258.75 281.25 303.75 326.25 348.75 11.25 33.75 56.25 78.75 101.25 123.75 146.25 168.75 191.25 213.75 236.25 258.75 281.25 303.75 326.25 348.75 11.25 33.75 56.25 78.75 101.25 123.75 146.25 168.75 191.25 213.75 236.25 258.75 281.25 303.75 326.25 348.75 11.25 33.75 56.25 78.75 101.25 123.75 146.25 168.75 191.25 213.75 236.25 258.75 281.25 303.75 326.25 348.75 11.25 33.75 56.25 78.75 101.25 123.75 146.25 168.75 191.25 213.75 236.25 258.75 281.25 303.75 326.25 348.75 11.25 33.75 56.25 78.75 101.25 123.75 146.25 168.75 191.25 213.75 236.25 258.75 281.25 303.75 326.25 348.75 11.25 33.75 56.25 78.75 101.25 123.75 146.25 168.75 191.25 213.75 236.25 258.75 281.25 303.75 326.25 348.75 11.25 33.75 56.25 78.75 101.25 123.75 146.25 168.75 191.25 213.75 236.25 258.75 281.25 303.75 326.25 348.75 11.25 33.75 56.25 78.75 101.25 123.75 146.25 168.75 191.25 213.75 236.25 258.75 281.25 303.75 326.25 348.75 11.25 33.75 56.25 78.75 101.25 123.75 146.25 168.75 191.25 213.75 236.25 258.75 281.25 303.75 326.25 348.75 11.25 33.75 56.25 78.75 101.25 123.75 146.25 168.75 191.25 213.75 236.25 258.75 281.25 303.75 326.25 348.75 11.25 33.75 56.25 78.75 101.25 123.75 146.25 168.75 191.25 213.75 236.25 258.75 281.25 303.75 326.25 348.75 11.25 33.75 56.25 78.75 101.25 123.75 146.25 168.75 191.25 213.75 236.25 258.75 281.25 303.75 326.25 348.75 11.25 33.75 56.25 78.75 101.25 123.75 146.25 168.75 191.25 213.75 236.25 258.75 281.25 303.75 326.25 348.75 11.25 33.75 56.25 78.75 101.25 123.75 146.25 168.75 191.25 213.75 236.25 258.75 281.25 303.75 326.25 348.75 11.25 33.75 56.25 78.75 101.25 123.75 146.25 168.75 191.25 213.75 236.25 258.75 281.25 303.75 326.25 348.75 11.25 33.75 56.25 78.75 101.25 123.75 146.25 168.75 191.25 213.75 236.25 258.75 281.25 303.75 326.25 348.75 11.25 33.75 56.25 78.75 101.25 123.75 146.25 168.75 191.25 213.75 236.25 258.75 281.25 303.75 326.25 348.75 11.25 33.75 56.25 78.75 101.25 123.75 146.25 168.75 191.25 213.75 236.25 258.75 281.25 303.75 326.25 348.75 11.25 33.75 56.25 78.75 101.25 123.75 146.25 168.75 191.25 213.75 236.25 258.75 281.25 303.75 326.25 348.75 11.25 33.75 56.25 78.75 101.25 123.75 146.25 168.75 191.25 213.75 236.25 258.75 281.25 303.75 326.25 348.75 11.25 33.75 56.25 78.75 101.25 123.75 146.25 168.75 191.25 213.75 236.25 258.75 281.25 303.75 326.25 348.75 0 0 
</DataArray>
</CellData>
</Piece>
</UnstructuredGrid>
</VTKFile>
