<VTKFile type="UnstructuredGrid" version="0.1">
<UnstructuredGrid>
<Piece  NumberOfPoints="    2080" NumberOfCells="     514">
<Points>
<DataArray type="Float64" NumberOfComponents="3" format="ascii">
-328.068 715.882 1.1215
-326.996 720.921 26.8853
-300.351 710.412 29.0045
-301.552 704.957 1.14985
-326.752 722.041 29.6364
-323.654 736.356 51.4286
-296.708 727.031 55.3094
-300.107 711.533 31.7557
-323.207 738.423 53.5282
-318.649 759.804 68.0237
-291.272 752.239 73.0995
-296.262 729.097 57.4091
-318.085 762.501 69.1572
-312.942 787.702 74.2124
-285.118 782.24 79.7779
-290.707 754.936 74.2329
-312.369 790.625 74.2135
-307.575 815.895 69.1288
-279.43 812.596 74.2964
-284.544 785.163 79.779
-307.079 818.606 67.994
-303.233 840.131 53.4866
-274.822 838.613 57.4056
-278.934 815.308 73.1617
-302.866 842.212 51.3826
-300.325 856.627 29.5835
-271.706 856.273 31.6939
-274.454 840.694 55.3016
-300.126 857.754 26.8304
-299.215 862.807 1.07166
-270.518 862.865 1.08
-271.506 857.399 28.9408
-299.214 862.806 -1.90936
-300.093 857.727 -27.6647
-271.467 857.377 -29.7581
-270.516 862.863 -1.90102
-300.29 856.599 -30.4169
-302.818 842.168 -52.2086
-274.396 840.653 -56.1056
-271.664 856.249 -32.5104
-303.185 840.086 -54.3112
-307.024 818.551 -68.8063
-278.874 815.255 -73.9475
-274.763 838.571 -58.2082
-307.52 815.838 -69.9394
-312.308 790.563 -75.0074
-284.478 785.106 -80.5478
-279.37 812.542 -75.0807
-312.881 787.64 -75.0045
-318.027 762.443 -69.9327
-290.641 754.882 -74.9834
-285.052 782.183 -80.5449
-318.591 759.747 -68.7974
-323.142 738.378 -54.2826
-296.216 729.064 -58.1365
-291.206 752.187 -73.8481
-323.589 736.313 -52.1807
-326.695 722.019 -30.3784
-300.091 711.516 -32.45
-296.663 726.999 -56.0346
-326.942 720.9 -27.625
-328.066 715.881 -1.86038
-301.55 704.956 -1.83202
-300.338 710.397 -29.6967
-298.358 703.95 1.22662
-297.157 709.405 29.0813
-265.87 701.887 29.7246
-267.123 696.344 1.23972
-293.496 726.078 55.5253
-262.039 718.816 56.733
-265.608 703.062 32.6149
-296.895 710.58 31.9715
-288.028 751.386 73.4226
-256.309 744.551 75.0231
-261.561 720.983 58.9399
-293.018 728.245 57.7322
-281.838 781.52 80.1613
-249.919 775.248 81.9107
-255.709 747.38 76.2169
-287.427 754.216 74.6164
-276.125 812.024 74.6814
-244.25 806.356 76.2484
-249.321 778.318 81.9134
-281.239 784.591 80.164
-271.503 838.178 57.7303
-239.681 833.015 58.9102
-243.74 809.206 75.0533
-275.615 814.874 73.4863
-268.374 855.943 31.9094
-236.537 851.125 32.5525
-239.301 835.2 56.697
-271.122 840.364 55.5171
-267.177 862.591 1.15614
-235.325 857.895 1.16885
-236.328 852.308 29.66
-268.166 857.125 29.017
-268.127 857.104 -29.8317
-236.296 852.282 -30.4461
-235.323 857.894 -1.96187
-267.176 862.59 -1.97457
-271.065 840.323 -56.3183
-239.247 835.16 -57.4639
-236.502 851.098 -33.3375
-268.332 855.919 -32.7231
-275.555 814.821 -74.2691
-243.679 809.154 -75.8041
-239.627 832.974 -59.6754
-271.444 838.137 -58.5298
-281.173 784.533 -80.9296
-249.254 778.26 -82.6443
-244.188 806.303 -76.9974
-276.065 811.97 -75.4624
-287.361 754.162 -75.3635
-255.644 747.326 -76.9274
-249.852 775.19 -82.6397
-281.771 781.463 -80.9249
-292.972 728.212 -58.4561
-261.514 720.943 -59.6327
-256.246 744.498 -75.7316
-287.963 751.334 -74.1676
-296.88 710.563 -32.662
-265.59 703.036 -33.2786
-261.995 718.778 -57.4232
-293.453 726.046 -56.2466
-297.145 709.391 -29.7697
-298.357 703.949 -1.90509
-267.122 696.343 -1.89198
-265.854 701.864 -30.3863
-263.638 695.565 1.26243
-262.385 701.109 29.7473
-230.761 694.627 29.8914
-232.065 689.082 1.27656
-262.11 702.293 32.6783
-258.541 718.048 56.7965
-226.736 711.568 57.074
-230.486 695.811 32.8224
-258.037 720.235 59.0372
-252.785 743.803 75.1204
-220.657 737.343 75.5136
-226.232 713.756 59.3147
-252.159 746.662 76.3316
-246.37 774.529 82.0253
-214.107 768.177 82.4219
-220.032 740.203 76.7248
-245.77 777.64 82.0281
-240.699 805.678 76.3631
-208.69 799.56 76.7834
-213.507 771.287 82.4247
-240.203 808.572 75.1511
-236.144 832.381 59.0081
-204.304 826.476 59.3642
-208.194 802.455 75.5715
-235.771 834.599 56.7629
-233.007 850.524 32.6183
-201.192 844.73 32.8205
-203.93 828.695 57.1189
-232.798 851.724 29.6841
-231.795 857.311 1.19295
-199.973 851.547 1.21051
-200.983 845.929 29.8864
-231.793 857.309 -1.98259
-232.766 851.698 -30.4669
-200.957 845.905 -30.6357
-199.971 851.546 -1.96503
-232.972 850.496 -33.3998
-235.718 834.559 -57.5262
-203.883 828.653 -57.8526
-201.163 844.704 -33.5687
-236.09 832.339 -59.7698
-240.142 808.52 -75.8985
-208.136 802.4 -76.2888
-204.255 826.434 -60.0962
-240.637 805.625 -77.1086
-245.703 777.581 -82.7555
-213.442 771.227 -83.1216
-208.631 799.505 -77.4989
-246.303 774.471 -82.7507
-252.095 746.608 -77.0384
-219.968 740.146 -77.402
-214.042 768.117 -83.1168
-252.721 743.749 -75.8254
-257.99 720.195 -59.7265
-226.182 713.712 -59.9767
-220.595 737.288 -76.189
-258.497 718.009 -57.4835
-262.092 702.267 -33.339
-230.464 695.78 -33.4557
-226.689 711.526 -57.7337
-262.369 701.085 -30.406
-263.637 695.564 -1.91169
-232.064 689.081 -1.89756
-230.741 694.597 -30.5227
-228.582 688.342 1.28465
-227.277 693.887 29.8995
-196.063 687.029 29.9594
-197.543 681.517 1.29768
-226.977 695.07 32.8422
-223.227 710.827 57.0938
-191.52 703.875 57.1987
-195.762 688.212 32.9021
-222.674 713.011 59.3434
-217.099 736.599 75.5424
-184.663 729.515 75.6908
-190.967 706.059 59.4483
-216.405 739.461 76.757
-210.48 767.435 82.4541
-176.825 760.141 82.5755
-183.968 732.377 76.9054
-209.804 770.553 82.4496
-204.987 798.826 76.8084
-169.724 791.328 76.9378
-176.149 763.258 82.571
-204.424 801.716 75.59
-200.534 825.738 59.3827
-163.966 818.107 59.5192
-169.161 794.218 75.7194
-200.108 827.949 57.1318
-197.37 843.984 32.8335
-159.99 836.252 32.9193
-163.541 820.319 57.2683
-197.133 845.179 29.8922
-196.122 850.797 1.21628
-158.47 843.022 1.23554
-159.753 837.446 29.978
-196.121 850.795 -1.96685
-197.106 845.155 -30.6375
-159.73 837.424 -30.6868
-158.469 843.02 -1.94759
-197.341 843.958 -33.578
-200.061 827.908 -57.8619
-163.498 820.277 -57.9668
-159.965 836.228 -33.6273
-200.485 825.695 -60.1113
-204.366 801.662 -76.3039
-169.104 794.163 -76.4022
-163.921 818.065 -60.2162
-204.928 798.771 -77.5205
-209.739 770.493 -83.1432
-176.086 763.198 -83.2351
-169.666 791.272 -77.6187
-210.415 767.375 -83.1457
-216.342 739.405 -77.431
-183.906 732.32 -77.5521
-176.762 760.08 -83.2376
-217.037 736.543 -76.2147
-222.624 712.967 -60.0024
-190.915 706.013 -60.0817
-184.601 729.458 -76.3358
-223.179 710.784 -57.7506
-226.955 695.038 -33.4725
-195.735 688.177 -33.5067
-191.47 703.83 -57.8299
-227.257 693.858 -30.5278
-228.581 688.341 -1.90268
-197.541 681.515 -1.88965
-196.038 686.996 -30.562
-194.111 680.688 1.30123
-192.631 686.2 29.9629
-161.889 678.098 29.9899
-163.565 672.652 1.3154
-192.291 687.374 32.9097
-188.049 703.037 57.2063
-156.743 694.753 57.2514
-161.549 679.271 32.9367
-187.422 705.204 59.4591
-181.118 728.66 75.7016
-148.938 720.122 75.748
-156.115 696.92 59.5042
-180.312 731.494 76.9156
-173.169 759.258 82.5857
-139.808 750.388 82.6381
-148.133 722.957 76.962
-172.341 762.344 82.5804
-165.916 790.413 76.9471
-131.075 781.181 76.9717
-138.98 753.473 82.6328
-165.195 793.277 75.7281
-160 817.166 59.5279
-123.893 807.639 59.5493
-130.355 784.044 75.7527
-159.459 819.358 57.2757
-155.909 835.291 32.9267
-118.997 825.586 32.9513
-123.352 809.831 57.2971
-155.612 836.474 29.982
-154.328 842.05 1.2396
-117.144 832.286 1.25765
-118.699 826.769 30.0067
-154.327 842.049 -1.94759
-155.588 836.453 -30.6868
-118.679 826.749 -30.6757
-117.143 832.285 -1.92954
-155.884 835.267 -33.6308
-159.416 819.317 -57.9703
-123.312 809.79 -57.957
-118.974 825.563 -33.6197
-159.956 817.123 -60.2212
-165.139 793.222 -76.4072
-130.3 783.99 -76.3985
-123.852 807.597 -60.2079
-165.858 790.358 -77.6246
-172.277 762.283 -83.241
-138.917 753.413 -83.2623
-131.019 781.126 -77.6159
-173.106 759.197 -83.2446
-180.25 731.437 -77.559
-148.071 722.899 -77.5763
-139.746 750.327 -83.2659
-181.056 728.603 -76.3435
-187.37 705.157 -60.0894
-156.061 696.872 -60.1068
-148.877 720.065 -76.3609
-187.999 702.992 -57.8345
-192.264 687.338 -33.5113
-161.518 679.233 -33.5102
-156.69 694.706 -57.8519
-192.606 686.167 -30.5625
-194.11 680.687 -1.89018
-163.564 672.651 -1.87602
-161.86 678.063 -30.5614
-160.19 671.679 1.31777
-158.514 677.125 29.9923
-128.3 667.635 30.0114
-130.19 662.272 1.33304
-158.129 678.283 32.9408
-153.323 693.765 57.2554
-122.496 684.048 57.2856
-127.916 668.793 32.9599
-152.612 695.904 59.5092
-145.435 719.107 75.753
-113.661 709.061 75.7896
-121.785 686.187 59.5394
-144.513 721.904 76.9669
-136.189 749.335 82.6431
-103.218 738.889 82.6831
-112.739 711.859 77.0036
-135.214 752.377 82.6368
-127.31 780.085 76.9757
-92.9441 769.206 76.9983
-102.244 741.931 82.6769
-126.44 782.908 75.7551
-119.979 806.503 59.5517
-84.3859 795.252 59.5661
-92.0748 772.029 75.7777
-119.324 808.665 57.2992
-114.969 824.42 32.9534
-78.5821 812.935 32.9707
-83.7311 797.414 57.3136
-114.612 825.588 30.0088
-113.057 831.105 1.25978
-76.3996 819.541 1.27778
-78.2257 814.103 30.0261
-113.056 831.104 -1.92769
-114.592 825.568 -30.6739
-78.2072 814.083 -30.6554
-76.3986 819.54 -1.90969
-114.946 824.397 -33.6179
-119.284 808.625 -57.9552
-83.6943 797.375 -57.9347
-78.5617 812.913 -33.5994
-119.938 806.461 -60.2066
-126.386 782.854 -76.3972
-92.0226 771.975 -76.3862
-84.3475 795.211 -60.1861
-127.254 780.03 -77.6163
-135.152 752.317 -83.2627
-102.183 741.871 -83.271
-92.8908 769.151 -77.6054
-136.126 749.275 -83.2675
-144.451 721.846 -77.5779
-112.677 711.801 -77.5843
-103.157 738.829 -83.2757
-145.374 719.05 -76.3627
-152.558 695.856 -60.1087
-121.729 686.138 -60.1098
-113.6 709.004 -76.3691
-153.27 693.718 -57.8528
-158.098 678.245 -33.5111
-127.883 668.753 -33.5
-122.441 684 -57.854
-158.485 677.089 -30.5605
-160.189 671.677 -1.87511
-130.188 662.27 -1.85984
-128.27 667.598 -30.5494
-126.877 661.144 1.33512
-124.987 666.507 30.0134
-95.3485 655.613 30.0306
-97.4622 650.344 1.35119
-124.556 667.647 32.9629
-119.135 682.902 57.2886
-88.8516 671.743 57.3135
-94.9167 656.753 32.9801
-118.335 685.008 59.5433
-110.212 707.882 75.7935
-78.9412 696.333 75.8265
-88.0516 673.849 59.5681
-109.169 710.635 77.0076
-99.6482 737.665 82.6872
-67.1665 725.651 82.7204
-77.8982 699.086 77.0406
-98.5314 740.657 82.6803
-89.2314 767.931 77.0017
-55.4126 755.424 77.0254
-66.0497 728.642 82.7134
-88.2192 770.707 75.78
-80.5303 793.93 59.5684
-45.5262 780.993 59.5842
-54.4004 758.199 75.8037
-79.7651 796.056 57.3154
-74.6161 811.577 32.9725
-38.833 798.36 32.9891
-44.7609 783.118 57.3312
-74.2013 812.726 30.028
-72.3752 818.163 1.2797
-36.325 804.852 1.29769
-38.4182 799.51 30.0446
-72.3743 818.162 -1.90763
-74.1829 812.706 -30.6534
-38.4015 799.49 -30.6342
-36.3241 804.851 -1.88963
-74.596 811.555 -33.5973
-79.7286 796.017 -57.9325
-44.7267 783.08 -57.9134
-38.8145 798.339 -33.5782
-80.4922 793.889 -60.1845
-88.1673 770.653 -76.3847
-54.3505 758.147 -76.3746
-45.4903 780.953 -60.1654
-89.1782 767.877 -77.6051
-98.4707 740.597 -83.2707
-65.9905 728.583 -83.2715
-55.3615 755.37 -77.5951
-99.5871 737.605 -83.2763
-109.107 710.577 -77.5849
-77.837 699.028 -77.5868
-67.1068 725.591 -83.2771
-110.15 707.824 -76.3697
-118.279 684.959 -60.1104
-87.9946 673.798 -60.1053
-78.8802 696.275 -76.3716
-119.081 682.854 -57.8537
-124.523 667.607 -33.4997
-94.8831 656.711 -33.4854
-88.796 671.693 -57.8485
-124.957 666.47 -30.548
-126.875 661.142 -1.85845
-97.4606 650.342 -1.84239
-95.3178 655.574 -30.5338
-94.2161 649.062 1.35319
-92.1025 654.331 30.0326
-63.086 642.044 30.0494
-65.4303 636.88 1.36973
-91.6215 655.449 32.9827
-85.5564 670.44 57.316
-55.8783 657.852 57.3378
-62.605 643.163 32.9994
-84.6644 672.507 59.5714
-75.554 694.991 75.8298
-44.8707 681.956 75.8585
-54.9863 659.919 59.5932
-74.3881 697.693 77.0441
-63.6563 724.257 82.7238
-31.7568 710.69 82.7518
-43.7048 684.658 77.0727
-62.3992 727.191 82.7165
-51.7621 753.973 77.0284
-18.568 739.854 77.0506
-30.4996 713.625 82.7444
-50.6123 756.694 75.806
-41.738 779.488 59.5865
-7.40095 764.887 59.603
-17.4182 742.575 75.8281
-40.8656 781.572 57.3331
-34.9377 796.814 32.9909
0.159348 781.895 33.0075
-6.52854 766.971 57.3496
-34.4656 797.941 30.0465
-32.3724 803.284 1.2996
2.98741 788.256 1.31752
0.631467 783.022 30.0631
-32.3716 803.283 -1.88756
-34.449 797.922 -30.6322
0.646637 783.004 -30.6131
2.98825 788.255 -1.86964
-34.9194 796.793 -33.5761
-40.8316 781.534 -57.9114
-6.4966 766.934 -57.893
0.176207 781.875 -33.5571
-41.7024 779.448 -60.1639
-50.5626 756.642 -76.3731
-17.3706 742.523 -76.3615
-7.36738 764.848 -60.1456
-51.7111 753.92 -77.5944
-62.3402 727.132 -83.2709
-30.4423 713.566 -83.2661
-18.5192 739.801 -77.5828
-63.5968 724.198 -83.2771
-74.327 697.635 -77.5867
-43.6446 684.599 -77.5839
-31.6989 710.631 -83.2724
-75.493 694.933 -76.3715
-84.6074 672.456 -60.1051
-54.9293 659.867 -60.0964
-44.8106 681.898 -76.3687
-85.5008 670.39 -57.8476
-91.5879 655.408 -33.4846
-62.5717 643.119 -33.469
-55.8227 657.801 -57.8389
-92.0717 654.292 -30.5322
-94.2145 649.059 -1.84079
-65.4287 636.878 -1.82425
-63.0556 642.003 -30.5166
-62.2565 635.445 1.37169
-59.9122 640.609 30.0514
-31.5694 626.951 30.0681
-34.1471 621.905 1.38848
-59.3812 641.704 33.0017
-52.6545 656.393 57.3401
-23.6447 642.399 57.3599
-31.0384 628.046 33.0184
-51.6693 658.416 59.596
-41.5537 680.453 75.8613
-11.5349 665.955 75.8857
-22.6596 644.422 59.6158
-40.2642 683.097 77.0757
-28.3162 709.129 82.7547
2.91295 694.035 82.7785
-10.2454 668.6 77.1001
-26.9208 711.999 82.747
-14.9892 738.229 77.0532
17.4988 722.522 77.0723
4.30835 696.905 82.7708
-13.7063 740.889 75.8303
-3.68906 763.201 59.6051
29.9019 746.963 59.6211
18.7817 725.183 75.8495
-2.7129 765.239 57.3514
3.97498 780.163 33.0093
38.3042 763.571 33.0257
30.878 749.001 57.3674
4.50296 781.265 30.065
6.8589 786.499 1.31943
41.4453 769.785 1.33724
38.8322 764.674 30.0814
6.85966 786.498 -1.86759
4.51805 781.247 -30.6111
38.8461 764.656 -30.5921
41.4461 769.784 -1.84978
3.99166 780.143 -33.555
-2.68115 765.202 -57.891
30.9079 748.965 -57.8723
38.3197 763.552 -33.5361
-3.65571 763.163 -60.1439
-13.6589 740.838 -76.3599
18.827 725.132 -76.3453
29.9333 746.926 -60.1252
-14.9406 738.176 -77.5817
-26.8637 711.941 -83.265
4.36362 696.847 -83.2561
17.5454 722.47 -77.5671
-28.2585 709.07 -83.2717
-40.2042 683.038 -77.5833
-10.1867 668.541 -77.576
2.96884 693.976 -83.2628
-41.4937 680.394 -76.3681
-51.6124 658.364 -60.0958
-22.6033 644.369 -60.0848
-11.4762 665.897 -76.3607
-52.5989 656.342 -57.8377
-59.3479 641.66 -33.4678
-31.0062 628 -33.4518
-23.5899 642.346 -57.8267
-59.8818 640.568 -30.5149
-62.2549 635.443 -1.82254
-34.1455 621.903 -1.80575
-31.5401 626.908 -30.4989
-31.0513 620.32 1.39041
-28.4736 625.366 30.07
-0.859071 610.364 30.0865
-3.66999 605.448 1.40726
-27.8924 626.434 33.0206
-20.4988 640.787 57.362
7.77953 625.413 57.3801
-0.277877 611.432 33.037
-19.4204 642.761 59.6183
-8.29577 664.294 75.8882
20.984 648.364 75.9092
8.85786 627.387 59.6363
-6.88355 666.874 77.1026
6.27482 692.309 82.7811
36.7458 675.72 82.8017
22.3962 650.943 77.1236
7.80586 695.109 82.773
20.9963 720.726 77.0746
52.6926 703.464 77.0916
38.2769 678.519 82.7937
22.4083 723.32 75.8514
33.5285 745.101 59.6231
66.2923 727.258 59.6383
54.1046 706.059 75.8684
34.6051 747.087 57.3692
42.0313 761.657 33.0275
75.5122 743.426 33.0437
67.3689 729.244 57.3844
42.6136 762.732 30.0833
45.2266 767.843 1.33914
78.9576 749.477 1.35683
76.0945 744.501 30.0994
45.2273 767.842 -1.84774
42.6274 762.714 -30.5901
76.1072 744.484 -30.5711
78.9583 749.476 -1.83006
42.0466 761.638 -33.534
34.6347 747.051 -57.8702
67.3968 729.21 -57.8509
75.5264 743.408 -33.515
33.5597 745.063 -60.1233
22.4534 723.269 -76.3434
54.1475 706.009 -76.3268
66.3218 727.222 -60.1041
21.0427 720.674 -77.5656
7.86091 695.05 -83.2547
38.3298 678.461 -83.2426
52.7368 703.414 -77.549
6.33052 692.251 -83.2618
-6.825 666.815 -77.5749
22.453 650.884 -77.5642
36.7994 675.662 -83.2497
-8.23717 664.236 -76.3597
-19.3644 642.708 -60.0838
8.9126 627.333 -60.071
21.0409 648.305 -76.349
-20.444 640.734 -57.8253
-27.8604 626.388 -33.4504
-0.247652 611.385 -33.4341
7.83291 625.36 -57.8126
-28.4444 625.323 -30.4972
-31.0498 620.318 -1.80399
-3.66849 605.446 -1.78714
-0.831638 610.319 -30.4809
-0.658145 603.716 1.40915
2.15277 608.632 30.0884
28.9829 592.316 30.1044
25.9412 587.542 1.42584
2.78376 609.671 33.039
10.8412 623.652 57.3821
38.3273 606.929 57.3986
29.6139 593.355 33.0551
12.0117 625.572 59.6385
24.1378 646.548 75.9113
52.6102 629.216 75.9298
39.4979 608.849 59.655
25.671 649.057 77.1258
40.0206 673.834 82.8039
69.6612 655.781 82.8219
54.1433 631.724 77.1443
41.6842 676.556 82.7956
56.1 701.5 77.0935
86.9313 682.718 77.1093
71.3249 658.503 82.8137
57.6371 704.022 75.8702
69.8248 725.222 59.6401
101.686 705.81 59.6546
88.4684 685.239 75.886
70.9986 727.152 57.3862
79.1418 741.334 33.0454
111.695 721.501 33.0611
102.859 707.74 57.4007
79.7767 742.378 30.1013
82.6398 747.354 1.35869
115.435 727.374 1.37608
112.33 722.545 30.117
82.6405 747.353 -1.82804
79.7894 742.362 -30.569
112.341 722.529 -30.5502
115.436 727.373 -1.81065
79.1558 741.315 -33.5129
71.0263 727.118 -57.8489
102.885 707.707 -57.8295
111.708 721.483 -33.494
69.854 725.186 -60.1021
57.6798 703.973 -76.3248
88.5089 685.191 -76.3075
101.713 705.775 -60.0827
56.1439 701.45 -77.5473
41.7369 676.498 -83.241
71.3752 658.445 -83.2267
86.973 682.668 -77.53
40.0739 673.775 -83.2484
25.7276 648.998 -77.5629
54.1979 631.665 -77.5501
69.7122 655.723 -83.2341
24.1945 646.489 -76.3477
12.0662 625.517 -60.0697
39.5506 608.794 -60.0558
52.6648 629.156 -76.3349
10.8944 623.598 -57.811
2.81379 609.623 -33.4326
29.6417 593.306 -33.4162
38.3787 606.875 -57.7971
2.1801 608.587 -30.4791
-0.656755 603.713 -1.78535
25.9426 587.54 -1.76865
29.008 592.27 -30.4627
28.8629 585.666 1.42769
31.9047 590.441 30.1062
57.8939 572.847 30.122
54.6255 568.227 1.44408
32.5847 591.448 33.0569
41.2981 605.022 57.4005
67.9304 586.987 57.4159
58.5739 573.854 33.0726
42.5592 606.883 59.657
55.6715 627.249 75.9318
83.2685 608.553 75.9478
69.1915 588.848 59.6724
57.3232 629.681 77.1462
72.8411 653.737 82.8238
101.578 634.261 82.8392
84.9201 610.985 77.1623
74.6339 656.375 82.8154
90.2403 680.59 77.1111
120.131 660.327 77.125
103.37 636.899 82.8308
91.8985 683.034 75.8876
105.116 703.604 59.6562
135.998 682.666 59.6696
121.789 662.77 75.9015
106.383 705.474 57.4024
115.218 719.235 33.0628
146.766 697.844 33.0777
137.265 684.536 57.4157
115.904 720.247 30.1188
119.009 725.076 1.37789
150.791 703.527 1.39486
147.452 698.856 30.1337
119.01 725.075 -1.80867
115.916 720.231 -30.5482
147.463 698.841 -30.5294
150.792 703.526 -1.7917
115.231 719.217 -33.492
106.409 705.441 -57.8274
137.289 684.504 -57.8075
146.778 697.827 -33.4731
105.143 703.569 -60.0807
91.9387 682.985 -76.3054
121.827 662.723 -76.2869
136.023 682.632 -60.0608
90.2818 680.54 -77.5281
74.6839 656.318 -83.2249
103.418 636.843 -83.2086
120.17 660.278 -77.5096
72.8918 653.679 -83.2325
57.3774 629.621 -77.5485
84.9721 610.926 -77.5338
101.626 634.204 -83.2163
55.7259 627.19 -76.3334
42.6117 606.827 -60.0543
69.2418 588.792 -60.0398
83.3205 608.494 -76.3187
41.3492 604.967 -57.7955
32.6122 591.398 -33.4146
58.5987 573.804 -33.3985
67.9793 586.932 -57.781
31.9296 590.394 -30.4609
28.8642 585.664 -1.76687
54.6268 568.224 -1.75047
57.9161 572.799 -30.4447
57.4509 566.212 1.44587
60.7193 570.832 30.1238
85.8106 552 30.139
82.3212 547.545 1.46191
61.4472 571.805 33.0744
70.8037 584.938 57.4176
96.5216 565.631 57.4317
86.5386 552.972 33.0896
72.1533 586.735 59.674
86.2302 606.44 75.9495
112.886 586.423 75.9627
97.8712 567.428 59.6881
87.9972 608.789 77.1639
104.655 632.065 82.8408
132.416 611.21 82.8524
114.653 588.771 77.1771
106.573 634.613 82.8322
123.333 658.041 77.1264
152.208 636.343 77.1373
134.334 613.758 82.8438
125.108 660.4 75.9029
139.317 680.296 59.671
169.145 657.878 59.6822
153.983 638.702 75.9137
140.674 682.101 57.4172
150.176 695.409 33.0792
180.644 672.509 33.0929
170.502 659.683 57.4285
150.91 696.386 30.1354
154.25 701.057 1.3966
184.943 677.987 1.41312
181.379 673.485 30.1491
154.25 701.056 -1.78972
150.921 696.371 -30.5274
181.389 673.471 -30.5082
184.943 677.986 -1.7732
150.188 695.393 -33.471
140.698 682.069 -57.8054
170.525 659.652 -57.7843
180.655 672.492 -33.4518
139.342 680.262 -60.0586
125.146 660.352 -76.2847
154.019 638.656 -76.2638
169.169 657.845 -60.0375
123.372 657.992 -77.5075
106.62 634.556 -83.2065
134.379 613.702 -83.1873
152.245 636.295 -77.4867
104.703 632.008 -83.2144
88.0489 608.73 -77.5319
114.702 588.712 -77.515
132.461 611.154 -83.1952
86.282 606.381 -76.3171
72.2033 586.679 -60.0382
97.9186 567.373 -60.023
112.935 586.364 -76.3002
70.8523 584.883 -57.7794
61.4717 571.754 -33.3968
86.5601 552.921 -33.3809
96.5677 565.576 -57.7642
60.7413 570.785 -30.443
57.452 566.209 -1.7487
82.3223 547.543 -1.73267
85.8297 551.951 -30.4271
85.044 545.396 1.46364
88.5335 549.851 30.1407
112.671 529.823 30.1552
108.967 525.545 1.47927
89.308 550.786 33.0912
99.2911 563.445 57.4333
124.036 542.912 57.4449
113.446 530.758 33.1057
100.726 565.174 59.6894
115.742 584.168 75.964
141.395 562.876 75.9715
125.472 544.64 59.7011
117.62 586.428 77.178
135.383 608.867 82.8533
162.102 586.682 82.8552
143.274 565.136 77.1855
137.422 611.318 82.8445
155.296 633.903 77.1379
183.083 610.82 77.1385
164.141 589.134 82.8464
157.183 636.173 75.9145
172.345 655.348 59.683
201.045 631.497 59.6863
184.97 613.09 75.915
173.789 657.085 57.4295
183.93 669.91 33.0939
213.241 645.544 33.1028
202.489 633.234 57.4328
184.712 670.85 30.1506
188.276 675.351 1.41466
217.802 650.804 1.43076
214.023 646.484 30.1594
188.277 675.35 -1.77113
184.722 670.835 -30.5061
214.032 646.47 -30.4829
217.802 650.803 -1.75503
183.942 669.894 -33.4492
173.811 657.054 -57.7818
202.51 633.204 -57.7536
213.252 645.529 -33.4261
172.369 655.316 -60.0348
157.219 636.127 -76.2611
185.003 613.045 -76.2308
201.067 631.466 -60.0066
155.333 633.856 -77.4839
137.466 611.263 -83.1845
164.182 589.079 -83.1563
183.117 610.774 -77.4536
135.428 608.811 -83.1928
117.669 586.369 -77.5127
143.32 565.078 -77.4908
162.144 586.627 -83.1646
115.791 584.109 -76.2983
100.774 565.118 -60.0211
125.516 544.585 -60.0043
141.441 562.818 -76.2765
99.3368 563.39 -57.7625
89.3292 550.735 -33.3792
113.463 530.707 -33.3634
124.079 542.856 -57.7456
88.5524 549.802 -30.4253
85.045 545.393 -1.73093
108.968 525.542 -1.71529
112.687 529.774 -30.4095
111.581 523.266 1.48089
115.285 527.543 30.1568
138.413 506.366 30.169
134.5 502.274 1.49601
116.105 528.44 33.1069
126.696 540.593 57.4461
150.414 518.884 57.4499
139.233 507.262 33.1191
128.214 542.25 59.7014
144.138 560.486 75.9718
168.737 537.977 75.9598
151.932 520.54 59.7052
146.125 562.651 77.1843
164.952 584.198 82.854
190.579 560.752 82.8152
170.724 540.142 77.1723
167.106 586.546 82.8437
186.048 608.233 77.1357
212.668 583.809 77.0746
192.732 563.1 82.8048
188.041 610.406 75.9119
204.116 628.813 59.6831
231.582 603.547 59.628
214.661 585.983 75.8507
205.641 630.476 57.4309
216.394 642.786 33.1009
244.425 616.955 33.0747
233.107 605.21 57.3758
217.22 643.685 30.1599
220.998 648.005 1.43117
249.228 621.976 1.44676
245.25 617.854 30.1337
220.999 648.004 -1.75192
217.229 643.671 -30.4798
245.259 617.841 -30.4227
249.228 621.975 -1.73633
216.405 642.771 -33.4207
205.662 630.446 -57.7482
233.127 605.181 -57.6625
244.435 616.94 -33.3636
204.138 628.782 -60
188.074 610.361 -76.2242
214.691 585.939 -76.1332
231.603 603.517 -59.9143
186.082 608.187 -77.4476
167.148 586.492 -83.1503
192.771 563.047 -83.0823
212.699 583.764 -77.3566
164.994 584.142 -83.1602
146.17 562.593 -77.4864
170.766 540.085 -77.446
190.618 560.698 -83.0922
144.184 560.428 -76.2736
128.258 542.194 -60.0014
151.973 520.485 -59.9776
168.78 537.92 -76.2332
126.738 540.538 -57.7436
116.122 528.388 -33.3614
139.247 507.211 -33.3442
150.453 518.829 -57.7198
115.301 527.495 -30.4078
111.582 523.263 -1.71354
134.5 502.271 -1.69842
138.425 506.317 -30.3906
136.999 499.87 1.49751
140.912 503.961 30.1705
162.967 481.673 30.1822
158.854 477.778 1.51199
141.775 504.817 33.12
152.956 516.439 57.4508
175.577 493.589 57.4542
163.831 482.529 33.1317
154.555 518.019 59.7047
171.36 535.456 75.9593
194.825 511.761 75.9471
177.176 495.169 59.7081
173.451 537.521 77.1695
193.306 558.13 82.8124
217.773 533.428 82.7744
196.917 513.827 77.1573
195.571 560.369 82.7992
215.506 581.078 77.069
240.945 555.325 77.0101
220.038 535.667 82.7612
217.6 583.147 75.8443
234.521 600.711 59.6216
260.775 574.068 59.5687
243.039 557.394 75.7853
236.122 602.294 57.3713
247.44 614.038 33.0703
274.238 586.799 33.0453
262.377 575.65 57.3185
248.307 614.894 30.1331
252.284 619.016 1.44617
279.272 591.567 1.4611
275.105 587.654 30.1082
252.285 619.015 -1.73235
248.316 614.881 -30.4187
275.113 587.642 -30.3641
279.273 591.566 -1.71743
247.45 614.024 -33.3557
236.142 602.265 -57.6547
262.395 575.623 -57.5726
274.247 586.785 -33.3011
234.541 600.681 -59.9046
217.63 583.103 -76.1235
243.067 557.352 -76.0358
260.794 574.039 -59.8225
215.537 581.033 -77.3478
195.609 560.316 -83.0735
220.073 535.615 -83.0075
240.974 555.282 -77.2601
193.345 558.077 -83.0863
173.493 537.464 -77.4401
196.956 513.771 -77.4007
217.809 533.376 -83.0203
171.402 535.399 -76.2297
154.596 517.964 -59.9741
177.213 495.115 -59.9511
194.865 511.705 -76.1903
152.995 516.384 -57.7176
141.789 504.765 -33.342
163.841 482.477 -33.3256
175.613 493.535 -57.6946
140.923 503.912 -30.3889
136.999 499.867 -1.69667
158.855 477.775 -1.68219
162.975 481.624 -30.3725
161.231 475.253 1.51346
165.344 479.149 30.1837
186.266 455.791 30.1965
181.964 452.104 1.52727
166.249 479.961 33.1328
177.995 491.021 57.4552
199.451 467.069 57.4648
187.171 456.604 33.1456
179.671 492.52 59.7083
197.32 509.112 75.9473
219.573 484.268 75.9522
201.126 468.569 59.7179
199.511 511.072 77.156
220.367 530.674 82.7731
243.563 504.77 82.7738
221.764 486.228 77.1609
222.74 532.796 82.7586
243.647 552.454 77.0074
267.79 525.485 77.009
245.935 506.892 82.7592
245.839 554.414 75.7824
263.576 571.089 59.5658
288.521 543.217 59.5708
269.982 527.445 75.7839
265.252 572.588 57.3167
277.113 583.736 33.0436
302.594 555.261 33.0527
290.198 544.716 57.3217
278.02 584.547 30.1086
282.188 588.459 1.46147
307.857 559.773 1.47566
303.501 556.072 30.1177
282.188 588.459 -1.71457
278.028 584.535 -30.3612
303.509 556.061 -30.3422
307.857 559.772 -1.70038
277.122 583.723 -33.2961
265.27 572.561 -57.5676
290.214 544.69 -57.5448
302.603 555.248 -33.2771
263.594 571.06 -59.8164
245.867 554.373 -76.0297
270.008 527.405 -76.004
288.539 543.19 -59.7936
243.676 552.411 -77.2544
222.775 532.744 -83.0018
245.968 506.842 -82.9758
267.817 525.444 -77.2287
220.403 530.622 -83.0161
199.55 511.016 -77.3964
221.8 486.174 -77.3754
243.596 504.72 -82.99
197.359 509.056 -76.1876
179.708 492.466 -59.9483
201.16 468.516 -59.9327
219.609 484.214 -76.1665
178.031 490.967 -57.6927
166.259 479.909 -33.3237
187.178 456.553 -33.3098
199.483 467.016 -57.677
165.352 479.1 -30.3709
161.231 475.25 -1.68057
181.965 452.102 -1.66677
186.271 455.743 -30.3569
184.213 449.464 1.52872
188.515 453.152 30.198
208.253 428.779 30.2102
203.773 425.309 1.54184
189.459 453.918 33.1469
201.739 464.384 57.4661
221.98 439.39 57.4758
209.197 429.545 33.1591
203.486 465.799 59.7188
221.933 481.497 75.953
242.927 455.572 75.9602
223.727 440.805 59.7285
224.218 483.346 77.1614
246.017 501.889 82.7743
267.899 474.862 82.781
245.212 457.421 77.1686
248.492 503.89 82.7597
270.347 522.483 77.0095
293.123 494.351 77.0187
270.373 476.863 82.7665
272.633 524.333 75.7847
291.172 540.104 59.5715
314.709 511.032 59.5828
295.409 496.2 75.7939
292.921 541.518 57.3227
305.317 552.063 33.0538
329.362 522.363 33.0664
316.457 512.446 57.334
306.263 552.828 30.1191
310.618 556.529 1.47703
334.842 526.608 1.49058
330.308 523.128 30.1318
310.619 556.528 -1.69868
306.271 552.817 -30.3405
330.315 523.118 -30.3262
334.842 526.608 -1.68513
305.325 552.05 -33.2751
292.937 541.492 -57.5428
316.472 512.422 -57.5275
329.37 522.352 -33.2608
291.189 540.077 -59.7914
272.658 524.293 -76.0018
295.432 496.162 -75.9851
314.725 511.006 -59.7761
270.373 522.442 -77.2263
248.524 503.841 -82.9734
270.403 476.816 -82.9548
293.147 494.312 -77.2096
246.05 501.838 -82.9877
224.254 483.292 -77.373
245.245 457.369 -77.3555
267.929 474.813 -82.9691
221.969 481.443 -76.1646
203.52 465.746 -59.9308
223.758 440.753 -59.9164
242.96 455.52 -76.147
201.771 464.331 -57.6754
189.465 453.867 -33.3082
209.2 429.495 -33.295
222.009 439.339 -57.6611
188.519 453.104 -30.3554
184.213 449.462 -1.66527
203.773 425.307 -1.65215
208.254 428.732 -30.3422
205.888 422.56 1.5432
210.368 426.029 30.2116
228.876 400.698 30.2229
224.228 397.455 1.55556
211.349 426.748 33.1602
224.132 436.593 57.4769
243.112 410.618 57.4855
229.857 401.416 33.1716
225.947 437.92 59.7293
245.147 452.687 75.961
264.832 425.746 75.9671
244.927 411.945 59.7379
247.52 454.421 77.1693
270.207 471.862 82.7818
290.722 443.78 82.7881
267.205 427.48 77.1754
272.777 473.738 82.7674
295.527 491.226 77.0196
316.88 461.999 77.0288
293.293 445.657 82.7737
297.902 492.96 75.7951
317.202 507.791 59.5839
339.269 477.588 59.5951
319.255 463.733 75.8042
319.019 509.117 57.3353
331.924 519.034 33.0677
354.469 488.177 33.08
341.086 478.914 57.3465
332.906 519.751 30.1332
337.44 523.232 1.49199
360.153 492.145 1.50475
355.451 488.894 30.1455
337.44 523.231 -1.68363
332.913 519.741 -30.3247
355.458 488.885 -30.3116
360.153 492.145 -1.67087
331.931 519.023 -33.2592
319.033 509.093 -57.5259
341.099 478.891 -57.5121
354.476 488.167 -33.2461
317.218 507.766 -59.7744
297.925 492.922 -75.9834
319.276 463.697 -75.968
339.283 477.565 -59.7606
295.551 491.187 -77.2077
272.807 473.691 -82.9529
293.319 445.612 -82.9353
316.901 461.962 -77.1924
270.237 471.813 -82.9671
247.553 454.369 -77.3535
267.234 427.43 -77.3363
290.749 443.734 -82.9496
245.179 452.635 -76.1452
225.977 437.869 -59.9147
244.954 411.895 -59.9006
264.861 425.696 -76.1281
224.16 436.542 -57.6596
211.351 426.699 -33.2935
229.856 401.369 -33.2808
243.137 410.569 -57.6455
210.369 425.983 -30.3407
205.888 422.558 -1.65071
224.228 397.452 -1.63835
228.873 400.653 -30.3281
226.205 394.603 1.55681
230.853 397.846 30.2242
248.088 371.615 30.2346
243.284 368.605 1.56834
231.869 398.515 33.1726
245.123 407.717 57.4865
262.797 380.824 57.4937
249.103 372.285 33.183
247.002 408.953 59.7386
266.906 422.754 75.9678
285.235 394.866 75.9718
264.675 382.059 59.7457
269.362 424.369 77.1759
292.879 440.669 82.7887
311.979 411.605 82.7931
287.69 396.48 77.18
295.539 442.417 82.7745
319.126 458.759 77.0296
339.004 428.512 77.0373
314.639 413.353 82.7789
321.584 460.373 75.8053
341.598 474.228 59.5961
362.143 442.969 59.6063
341.462 430.126 75.813
343.479 475.462 57.3477
356.862 484.726 33.0812
377.853 452.787 33.0925
364.023 444.203 57.3579
357.879 485.393 30.1468
362.581 488.644 1.50608
383.728 456.467 1.51797
378.87 453.454 30.1581
362.581 488.643 -1.66947
357.885 485.383 -30.3102
378.876 453.446 -30.2979
383.729 456.466 -1.65757
356.869 484.715 -33.2446
343.492 475.44 -57.5107
364.035 444.182 -57.4976
377.859 452.777 -33.2323
341.612 474.205 -59.759
321.605 460.338 -75.9664
341.481 430.093 -75.9513
362.156 442.947 -59.7459
319.147 458.723 -77.1906
295.565 442.372 -82.9335
314.663 413.311 -82.9156
339.024 428.478 -77.1754
292.906 440.624 -82.9476
269.391 424.319 -77.3344
287.716 396.433 -77.3167
312.003 411.562 -82.9297
266.935 422.705 -76.1263
247.028 408.904 -59.8988
264.698 382.012 -59.8848
285.26 394.819 -76.1086
245.148 407.668 -57.644
231.867 398.468 -33.2793
249.098 372.239 -33.2674
262.818 380.777 -57.63
230.85 397.801 -30.3268
226.205 394.6 -1.63699
243.284 368.603 -1.62547
248.081 371.572 -30.3148
245.118 365.657 1.56949
249.922 368.667 30.2358
265.844 341.599 30.2452
260.895 338.827 1.58013
250.969 369.286 33.1839
264.663 377.825 57.4945
280.989 350.078 57.5
266.891 342.217 33.1933
266.6 378.967 59.7462
287.159 391.773 75.9722
304.088 363.007 75.9737
282.926 351.22 59.7517
289.691 393.266 77.1803
313.979 408.391 82.7934
331.618 378.419 82.7953
306.62 364.499 77.1817
316.722 410.006 82.7794
341.087 425.165 77.0378
359.444 393.976 77.0437
334.36 380.034 82.7814
343.622 426.655 75.8139
364.303 439.498 59.6072
383.276 407.261 59.6162
361.979 395.466 75.8197
366.243 440.636 57.359
380.072 449.221 33.0936
399.46 416.28 33.1041
385.216 408.399 57.368
381.122 449.836 30.1593
385.98 452.849 1.5192
405.513 419.66 1.53026
400.509 416.895 30.1698
385.98 452.848 -1.65625
381.128 449.828 -30.2966
400.515 416.887 -30.285
405.513 419.66 -1.64519
380.079 449.211 -33.2309
366.255 440.616 -57.4962
385.227 408.381 -57.4835
399.466 416.271 -33.2193
364.316 439.477 -59.7444
343.641 426.622 -75.9497
361.996 395.435 -75.9344
383.288 407.241 -59.7317
341.107 425.131 -77.1735
316.745 409.964 -82.9138
334.382 379.994 -82.895
359.462 393.943 -77.1582
314.003 408.348 -82.9277
289.716 393.219 -77.3146
306.642 364.456 -77.296
331.64 378.379 -82.9089
287.184 391.727 -76.1068
266.622 378.921 -59.8829
282.946 351.176 -59.8688
304.11 362.963 -76.0881
264.684 377.778 -57.6285
250.963 369.241 -33.2659
266.882 342.175 -33.2547
281.007 350.034 -57.6144
249.915 368.625 -30.3136
245.117 365.655 -1.62418
260.895 338.825 -1.61354
265.833 341.558 -30.3024
262.582 335.79 1.58116
267.53 338.561 30.2463
282.102 310.716 30.2547
277.022 308.187 1.59077
268.607 339.128 33.194
282.705 346.988 57.5006
297.647 318.453 57.5042
283.179 311.283 33.2024
284.695 348.035 59.7518
305.857 359.822 75.9738
321.347 330.25 75.9722
299.637 319.5 59.7554
308.459 361.19 77.1817
333.457 375.109 82.7953
349.593 344.307 82.7943
323.949 331.617 77.18
336.275 376.588 82.7817
361.359 390.53 77.044
378.152 358.477 77.0476
352.412 345.786 82.7806
363.965 391.893 75.8204
385.262 403.688 59.6169
402.622 370.553 59.6245
380.758 359.84 75.8241
387.257 404.727 57.3689
401.5 412.608 33.105
419.241 378.745 33.1143
404.616 371.593 57.3765
402.58 413.17 30.1709
407.583 415.935 1.53138
425.457 381.817 1.5414
420.32 379.307 30.1802
407.583 415.935 -1.64397
402.585 413.162 -30.2838
420.325 379.3 -30.2732
425.457 381.816 -1.63395
401.507 412.599 -33.218
387.268 404.709 -57.4822
404.627 371.577 -57.4702
419.246 378.737 -33.2074
385.274 403.669 -59.7302
363.982 391.862 -75.9328
380.774 359.812 -75.9173
402.633 370.536 -59.7182
361.376 390.498 -77.1563
336.297 376.549 -82.8931
352.431 345.749 -82.8734
378.168 358.448 -77.1408
333.478 375.069 -82.9068
308.481 361.146 -77.2938
323.969 331.577 -77.274
349.613 344.27 -82.8871
305.879 359.779 -76.0862
284.715 347.992 -59.8669
299.654 319.459 -59.8527
321.367 330.209 -76.0663
282.722 346.945 -57.6129
268.597 339.086 -33.2533
283.166 311.244 -33.243
297.661 318.413 -57.5988
267.52 338.521 -30.3012
262.581 335.788 -1.61235
277.022 308.185 -1.60273
282.089 310.679 -30.2909
278.558 305.067 1.59166
283.638 307.596 30.2556
296.828 279.035 30.2629
291.629 276.752 1.60022
284.741 308.111 33.2029
299.209 315.28 57.5047
312.732 286.023 57.506
297.931 279.55 33.2102
301.248 316.23 59.7552
322.958 326.98 75.972
336.974 296.675 75.9667
314.771 286.973 59.7566
325.623 328.221 77.1797
351.267 340.911 82.7939
365.865 309.358 82.7895
339.639 297.916 77.1744
354.154 342.25 82.7806
379.894 354.942 77.0476
395.086 322.11 77.0489
368.752 310.698 82.7763
382.566 356.174 75.8245
404.429 366.887 59.625
420.136 332.937 59.6312
397.757 323.341 75.8258
406.474 367.825 57.3773
421.098 374.976 33.1151
437.151 340.274 33.1234
422.181 333.874 57.3836
422.204 375.483 30.1812
427.341 377.993 1.5424
443.515 343.027 1.55142
438.257 340.78 30.1895
427.341 377.993 -1.63285
422.21 375.477 -30.2721
438.262 340.775 -30.2625
443.515 343.027 -1.62383
421.104 374.969 -33.2061
406.484 367.809 -57.469
422.19 333.86 -57.4576
437.156 340.268 -33.1965
404.44 366.87 -59.7166
382.581 356.146 -75.9157
397.771 323.316 -75.8998
420.146 332.922 -59.7053
379.91 354.913 -77.1388
354.173 342.214 -82.8714
368.769 310.664 -82.8503
395.101 322.083 -77.1229
351.286 340.874 -82.8847
325.642 328.181 -77.2717
339.657 297.879 -77.2501
365.882 309.324 -82.8637
322.977 326.94 -76.0643
301.264 316.19 -59.8507
314.785 286.937 -59.8362
336.992 296.639 -76.0427
299.223 315.24 -57.5973
284.728 308.072 -33.2416
297.915 279.514 -33.2323
312.744 285.987 -57.5828
283.624 307.559 -30.2898
278.557 305.065 -1.60163
291.628 276.75 -1.59307
296.812 279.002 -30.2805
293.01 273.556 1.60097
298.209 275.839 30.2636
309.988 246.623 30.2698
304.681 244.585 1.60849
299.336 276.301 33.2104
314.137 282.775 57.5062
326.212 252.863 57.5049
311.114 247.086 33.2165
316.219 283.627 59.756
338.422 293.329 75.9661
350.935 262.367 75.9565
328.295 253.715 59.7547
341.144 294.441 77.1735
367.369 305.884 82.7887
380.396 273.665 82.7805
353.656 263.48 77.1639
370.318 307.082 82.7759
396.652 318.494 77.0486
410.21 284.966 77.0472
383.345 274.863 82.7677
399.382 319.591 75.826
421.761 329.187 59.6314
435.782 294.504 59.6366
412.94 286.063 75.8247
423.851 330.019 57.3843
438.821 336.418 33.1241
453.151 300.96 33.1316
437.872 295.336 57.3895
439.951 336.868 30.1904
445.209 339.115 1.55232
459.647 303.387 1.56041
454.282 301.41 30.1978
445.209 339.115 -1.62284
439.956 336.863 -30.2615
454.287 301.406 -30.253
459.647 303.387 -1.61476
438.826 336.413 -33.1953
423.86 330.005 -57.4565
437.881 295.324 -57.446
453.157 300.956 -33.1868
421.771 329.172 -59.7037
399.396 319.566 -75.8982
412.953 286.04 -75.8816
435.792 294.491 -59.6932
396.667 318.468 -77.1207
370.335 307.049 -82.8482
383.361 274.833 -82.8252
410.224 284.942 -77.1042
367.386 305.85 -82.8611
341.161 294.405 -77.2475
353.671 263.447 -77.2235
380.412 273.634 -82.8382
338.439 293.293 -76.0404
316.233 283.591 -59.8339
328.306 253.684 -59.8187
350.95 262.335 -76.0164
314.148 282.739 -57.5813
299.32 276.266 -33.2308
311.096 247.054 -33.2223
326.222 252.831 -57.5661
298.192 275.806 -30.2795
293.009 273.554 -1.59205
304.68 244.583 -1.58453
309.968 246.594 -30.271
305.905 241.319 1.60908
311.211 243.358 30.2704
321.553 213.545 30.2751
316.153 211.749 1.61547
312.359 243.768 33.2164
327.457 249.545 57.5048
338.06 219.045 57.5004
322.701 213.955 33.2212
329.577 250.301 59.7537
352.217 258.952 75.9554
363.2 227.412 75.9406
340.181 219.8 59.7492
354.988 259.937 77.1626
381.728 270.122 82.7792
393.158 237.325 82.7661
365.971 228.396 77.1477
384.732 271.177 82.7669
411.597 281.28 77.0464
423.495 247.142 77.042
396.162 238.381 82.7538
414.379 282.238 75.8246
437.221 290.679 59.6366
449.529 255.346 59.6409
426.277 248.1 75.8202
439.351 291.402 57.39
454.63 297.027 33.1322
467.208 260.899 33.1387
451.658 256.07 57.3944
455.782 297.418 30.1987
461.148 299.395 1.56121
473.819 262.992 1.56813
468.361 261.29 30.2052
461.148 299.395 -1.6139
455.787 297.414 -30.2521
468.366 261.288 -30.245
473.819 262.992 -1.60699
454.636 297.023 -33.1858
439.36 291.391 -57.445
451.668 256.061 -57.436
467.214 260.896 -33.1787
437.231 290.666 -59.6916
414.392 282.215 -75.88
426.29 248.079 -75.8627
449.538 255.336 -59.6827
411.611 281.256 -77.1019
384.748 271.147 -82.8229
396.177 238.354 -82.7974
423.508 247.12 -77.0846
381.743 270.092 -82.8354
355.003 259.905 -77.2207
365.985 228.369 -77.1936
393.173 237.298 -82.8098
352.232 258.921 -76.0139
329.588 250.269 -59.8162
340.19 219.774 -59.7998
363.214 227.385 -75.9868
327.466 249.513 -57.5645
312.34 243.737 -33.2207
322.681 213.929 -33.213
338.068 219.018 -57.5481
311.192 243.328 -30.2701
305.904 241.318 -1.58358
316.151 211.747 -1.5772
321.532 213.52 -30.2624
317.216 208.42 1.61585
322.617 210.216 30.2755
331.504 179.861 30.2779
326.02 178.301 1.62107
323.783 210.574 33.2206
339.142 215.664 57.4998
348.254 184.641 57.4902
332.67 180.22 33.223
341.295 216.325 59.7474
364.315 223.937 75.9388
373.749 191.9 75.9171
350.407 185.302 59.7378
367.128 224.794 77.1457
394.315 233.723 82.7641
404.128 200.443 82.7438
376.563 192.758 77.124
397.367 234.633 82.7525
424.7 243.394 77.0407
434.918 208.732 77.0335
407.18 201.353 82.7323
427.527 244.209 75.82
450.779 251.456 59.6407
461.35 215.557 59.6446
437.745 209.547 75.8128
452.943 252.068 57.3949
468.493 256.896 33.1392
479.292 220.184 33.1444
463.514 216.168 57.3988
469.664 257.227 30.2059
475.122 258.93 1.56882
485.998 221.939 1.57445
480.463 220.515 30.211
475.123 258.93 -1.60629
469.669 257.226 -30.2443
480.468 220.516 -30.2385
485.999 221.939 -1.60065
468.499 256.894 -33.1779
452.953 252.059 -57.4352
463.524 216.162 -57.4285
479.298 220.184 -33.172
450.788 251.446 -59.6811
427.54 244.189 -75.8612
437.759 209.528 -75.8437
461.36 215.55 -59.6745
424.713 243.373 -77.082
397.382 234.607 -82.7948
407.195 201.33 -82.7645
434.932 208.712 -77.0646
394.33 233.697 -82.8065
367.142 224.767 -77.1903
376.576 192.735 -77.1586
404.143 200.419 -82.7762
364.329 223.91 -75.9839
341.304 216.299 -59.7968
350.416 185.283 -59.7772
373.763 191.878 -75.9521
339.149 215.638 -57.5463
323.762 210.549 -33.2112
332.648 180.2 -33.2033
348.261 184.622 -57.5267
322.595 210.191 -30.2615
317.215 208.418 -1.57629
326.019 178.3 -1.57108
331.481 179.843 -30.2536
326.922 174.914 1.62109
332.406 176.474 30.2779
339.831 145.63 30.2733
334.277 144.296 1.62519
333.587 176.783 33.2216
349.171 181.205 57.4887
356.785 149.726 57.4658
341.013 145.939 33.217
351.352 181.774 59.7349
374.694 188.372 75.9142
382.569 155.927 75.8786
358.966 150.296 59.7119
377.543 189.106 77.1208
405.108 196.792 82.7405
413.29 163.127 82.705
385.418 156.661 77.0851
408.201 197.555 82.7301
435.939 204.933 77.0314
444.46 169.827 77.021
416.383 163.89 82.6946
438.804 205.6 75.8123
462.409 211.61 59.6441
471.216 175.224 59.6458
447.325 170.494 75.802
464.602 212.107 57.3991
480.38 216.122 33.1447
489.362 178.91 33.1455
473.409 175.721 57.4008
481.565 216.393 30.2115
487.101 217.817 1.57491
496.143 180.323 1.57893
490.548 179.18 30.2123
487.102 217.817 -1.60005
481.571 216.394 -30.2379
490.555 179.184 -30.2311
496.143 180.323 -1.59604
480.386 216.123 -33.1714
464.612 212.101 -57.4279
473.421 175.718 -57.4224
489.37 178.914 -33.1645
462.419 211.603 -59.673
438.818 205.582 -75.8423
447.34 170.477 -75.8248
471.228 175.221 -59.6675
435.953 204.914 -77.0615
408.216 197.532 -82.7614
416.399 163.87 -82.7183
444.475 169.809 -77.044
405.123 196.768 -82.7719
377.557 189.084 -77.1543
385.432 156.644 -77.1106
413.306 163.107 -82.7288
374.708 188.351 -75.9481
351.361 181.755 -59.7732
358.975 150.285 -59.7418
382.583 155.911 -75.9044
349.178 181.186 -57.5242
333.565 176.765 -33.2008
340.99 145.929 -33.1878
356.792 149.716 -57.4928
332.383 176.456 -30.2525
326.921 174.913 -1.57003
334.275 144.296 -1.56593
339.808 145.62 -30.2395
335.02 140.858 1.62396
340.574 142.192 30.2721
346.595 110.921 30.2336
340.991 109.801 1.62692
341.768 142.455 33.2121
357.54 146.242 57.4609
363.693 114.387 57.3771
347.789 111.184 33.1736
359.742 146.725 59.7044
383.345 152.357 75.871
389.668 119.612 75.7676
365.894 114.87 59.6206
386.22 152.972 77.0775
414.093 159.438 82.6974
420.626 125.49 82.5999
392.544 120.227 76.974
417.218 160.051 82.6893
445.294 165.987 77.0158
452.072 130.504 76.9744
423.751 126.103 82.5919
448.188 166.499 75.7995
472.079 171.23 59.6434
479.041 134.427 59.6113
454.965 131.016 75.7582
474.293 171.609 57.3994
490.246 174.798 33.144
497.309 137.159 33.1195
481.255 134.806 57.3673
491.442 175.006 30.2118
497.037 176.15 1.57845
504.133 138.229 1.57973
498.505 137.367 30.1872
497.037 176.15 -1.59499
491.45 175.011 -30.23
498.515 137.376 -30.2031
504.134 138.229 -1.59371
490.254 174.802 -33.1625
474.305 171.607 -57.4204
481.271 134.807 -57.3858
497.32 137.167 -33.1356
472.092 171.227 -59.6646
448.204 166.483 -75.8218
454.985 131.001 -75.7765
479.058 134.427 -59.63
445.31 165.97 -77.0381
417.234 160.031 -82.7123
423.77 126.086 -82.6093
452.091 130.488 -76.9927
414.109 159.418 -82.7204
386.235 152.956 -77.1022
392.562 120.216 -76.992
420.645 125.473 -82.6175
383.359 152.341 -75.896
359.751 146.716 -59.7334
365.908 114.871 -59.6415
389.686 119.602 -75.7858
357.548 146.233 -57.4871
341.746 142.446 -33.182
347.77 111.187 -33.1364
363.705 114.388 -57.3951
340.552 142.183 -30.2374
335.019 140.858 -1.56383
340.99 109.801 -1.56086
346.576 110.924 -30.1918
341.605 106.326 1.6195
347.209 107.445 30.2262
352.266 75.9022 30.0054
346.682 74.9826 1.61983
348.406 107.666 33.1518
364.31 110.869 57.3553
369.318 78.7996 56.9462
353.462 76.1229 32.9311
366.515 111.275 59.5879
390.288 116.017 75.7349
395.217 83.175 75.194
371.523 79.206 59.1789
393.173 116.516 76.94
421.255 121.779 82.5659
426.117 87.6365 82.0746
398.102 83.6745 76.399
424.39 122.233 82.5625
452.711 126.634 76.945
457.508 90.8003 76.5251
429.251 88.0906 82.0713
455.61 126.982 75.7346
479.686 130.393 59.5877
484.377 93.1986 59.2332
460.408 91.1481 75.3147
481.903 130.651 57.3502
497.957 133.003 33.1024
502.602 94.964 32.8955
486.594 93.456 56.9957
499.155 133.15 30.1806
504.784 134.011 1.57307
509.418 95.6881 1.56141
503.8 95.1106 29.9737
504.785 134.012 -1.58795
499.166 133.159 -30.1974
503.81 95.1233 -30.0046
509.419 95.6888 -1.59961
497.969 133.013 -33.1186
481.92 130.653 -57.3688
486.622 93.4622 -57.0039
502.613 94.9772 -32.9258
479.704 130.394 -59.6057
455.63 126.968 -75.7522
460.436 91.1352 -75.3208
484.406 93.2031 -59.2408
452.731 126.619 -76.9626
424.41 122.216 -82.5792
429.28 88.0768 -82.0796
457.537 90.7864 -76.5312
421.275 121.763 -82.5827
393.192 116.506 -76.9572
398.128 83.671 -76.4098
426.145 87.6231 -82.0831
390.307 116.008 -75.7523
366.529 111.277 -59.608
371.546 79.2212 -59.1892
395.243 83.1728 -75.2048
364.322 110.872 -57.3725
348.388 107.671 -33.1138
353.454 76.1437 -32.8885
369.339 78.8159 -56.9537
347.19 107.449 -30.1838
341.604 106.326 -1.55289
346.681 74.9833 -1.55255
352.257 75.9224 -29.9585
347.362 71.5367 1.57633
352.946 72.4563 29.9619
360.061 41.536 28.6624
354.744 40.7276 1.57326
354.11 72.6443 32.8095
369.966 75.321 56.8247
376.329 44.0737 54.4527
361.226 41.724 31.51
372.115 75.667 59.0006
395.809 79.6361 75.0157
401.086 47.8538 71.957
378.479 44.4197 56.6287
398.615 80.0523 76.1933
426.63 84.0143 81.8689
430.624 51.8995 78.585
403.892 48.27 73.1346
429.676 84.3805 81.8741
457.933 87.0901 76.3279
460.519 55.1459 73.1794
433.67 52.2657 78.5902
460.764 87.3639 75.1508
484.733 89.4143 59.0693
486.101 57.628 56.6248
463.349 55.4196 72.0022
486.902 89.6166 56.8858
502.909 91.1247 32.7857
503.508 59.3571 31.4529
488.27 57.8302 54.4414
504.083 91.2402 29.9339
509.702 91.8177 1.52162
510.033 60.0154 1.50912
504.682 59.4726 28.6011
509.702 91.8174 -1.56244
504.092 91.2519 -29.9674
504.68 59.4454 -28.647
510.033 60.0152 -1.57494
502.92 91.1362 -32.816
486.93 89.6212 -56.8941
488.3 57.8049 -54.436
503.508 59.3297 -31.4955
484.763 89.4182 -59.0754
460.793 87.3503 -75.1554
463.381 55.4066 -71.9981
486.132 57.602 -56.6174
457.963 87.0766 -76.3331
429.706 84.3669 -81.8815
433.702 52.2573 -78.5919
460.551 55.1328 -73.1757
426.659 84.0014 -81.8767
398.642 80.0494 -76.2034
403.921 48.2745 -73.1425
430.656 51.8918 -78.5871
395.836 79.6352 -75.0262
372.139 75.6836 -59.0105
378.5 44.4565 -56.6413
401.115 47.8603 -71.9653
369.988 75.3391 -56.8319
354.103 72.6669 -32.7667
361.213 41.7655 -31.4734
376.348 44.112 -54.4627
352.937 72.4775 -29.9151
347.361 71.5383 -1.50917
354.743 40.7292 -1.51225
360.047 41.576 -28.6218
355.597 37.3436 1.48824
360.915 38.152 28.5774
368.92 7.92634 26.8166
363.929 7.22841 1.48052
362.016 38.3161 31.2694
377.12 40.6658 54.2121
384.187 10.1372 50.9633
370.021 8.09049 29.5086
379.152 40.9667 56.2701
401.76 44.4008 71.5985
407.413 13.4263 67.3496
386.22 10.4381 53.0213
404.415 44.7713 72.7131
431.146 48.4008 78.1634
435.088 17.0731 73.5161
410.067 13.7968 68.4642
434.023 48.752 78.1642
460.872 51.6322 72.7534
463.03 20.2825 68.4436
437.965 17.4243 73.5168
463.536 51.9164 71.636
486.288 54.1248 56.2586
486.901 22.8431 52.9342
465.695 20.5667 67.3262
488.329 54.335 54.1952
503.568 55.8619 31.2067
503.11 24.5861 29.3974
488.942 23.0534 50.8708
504.673 55.9765 28.5144
510.023 56.5193 1.42241
509.181 25.2151 1.43321
504.215 24.7007 26.7052
510.023 56.5169 -1.48812
504.671 55.9472 -28.5602
504.21 24.6408 -26.7334
509.181 25.2127 -1.47732
503.567 55.8304 -31.2487
488.358 54.3056 -54.1892
488.961 22.9999 -50.8614
503.106 24.524 -29.4219
486.319 54.0973 -56.2505
463.568 51.9019 -71.6312
465.717 20.5531 -67.3225
486.922 22.7916 -52.9227
460.904 51.6193 -72.7493
434.055 48.7438 -78.1655
437.987 17.4186 -73.5166
463.053 20.2705 -68.4406
431.178 48.3936 -78.1653
404.443 44.7763 -72.7206
410.087 13.804 -68.4686
435.11 17.0684 -73.5164
401.788 44.4085 -71.6067
379.173 41.0048 -56.2827
386.228 10.4915 -53.0338
407.432 13.4362 -67.3547
377.138 40.7063 -54.2227
362.003 38.3598 -31.2334
370.001 8.15302 -29.4847
384.193 10.193 -50.9738
360.901 38.1931 -28.5378
355.596 37.3463 -1.42833
363.928 7.23111 -1.43605
368.899 7.98635 -26.7891
364.961 4.12769 1.35088
369.952 4.82562 26.6869
380.256 -21.1169 23.7826
375.834 -21.7384 1.33091
370.959 4.96778 29.1439
385.126 7.01448 50.5986
393.863 -19.2157 45.2699
381.264 -20.9747 26.2396
386.987 7.27369 52.4765
408.18 10.2619 66.8048
414.607 -16.4299 59.817
395.724 -18.9565 47.1477
410.608 10.5882 67.8175
435.629 13.8646 72.8693
439.272 -13.1567 65.2199
417.035 -16.1035 60.8297
438.253 14.1983 72.8664
463.318 17.0565 67.7932
464.079 -9.89364 60.6917
441.896 -12.8229 65.217
465.745 17.3497 66.7746
486.952 19.6261 52.3826
485.267 -7.12717 46.9534
466.506 -9.6004 59.6731
488.81 19.8478 50.5031
502.977 21.3805 29.0298
499.637 -5.25766 26.1103
487.125 -6.90549 45.0739
503.982 21.4996 26.5779
508.949 22.0139 1.30591
505.031 -4.561 1.32571
500.642 -5.13864 23.6584
508.949 22.0121 -1.3461
503.977 21.4402 -26.6022
500.642 -5.14129 -23.6589
505.031 -4.56282 -1.3263
502.973 21.3194 -29.0534
488.828 19.7953 -50.4928
487.125 -6.90993 -45.0739
499.637 -5.26212 -26.1101
486.97 19.5754 -52.3719
465.765 17.337 -66.7717
466.506 -9.60275 -59.6728
485.267 -7.12974 -46.953
463.339 17.045 -67.7903
438.273 14.1931 -72.8663
441.897 -12.8239 -65.2167
464.08 -9.8947 -60.6914
435.649 13.8598 -72.8694
410.626 10.5955 -67.8215
417.036 -16.1038 -60.8296
439.273 -13.1572 -65.2198
408.198 10.2706 -66.8089
386.993 7.32589 -52.488
395.724 -18.955 -47.1479
414.608 -16.4286 -59.817
385.131 7.06871 -50.6097
370.939 5.02869 -29.1206
381.263 -20.9711 -26.2392
393.862 -19.2122 -45.2695
369.932 4.88476 -26.6629
364.961 4.12952 -1.30988
375.833 -21.7366 -1.32985
380.256 -21.115 -23.7816
-327.071 728.582 25.3901
-328.143 723.544 -0.373652
-327.019 728.562 -26.1383
-323.913 742.857 -47.9406
-319.363 764.226 -62.4553
-314.218 789.423 -67.5271
-309.43 814.698 -62.4592
-305.591 836.233 -47.964
-303.063 850.664 -26.1724
-302.183 855.743 -0.417039
-303.093 850.689 25.3417
-305.633 836.273 47.1408
-309.479 814.749 61.6482
-314.272 789.479 66.733
-319.415 764.278 61.6778
-323.973 742.897 47.1823
382.635 -22.3863 1.76393e-05
387.057 -21.7648 22.4517
399.656 -20.0058 41.4821
418.54 -17.4792 54.1513
440.777 -14.5323 58.5415
462.96 -11.603 54.0162
481.721 -9.1298 41.2965
494.234 -7.48197 22.3329
498.623 -6.90434 0.000247942
494.233 -7.48281 -22.3323
481.721 -9.13061 -41.2962
462.96 -11.6036 -54.016
440.777 -14.5328 -58.5413
418.54 -17.4795 -54.1511
399.656 -20.0059 -41.482
387.057 -21.7648 -22.4517
</DataArray>
</Points>
<Cells>
<DataArray type="Int32" Name="connectivity" format="ascii">
0 1 2 3 
4 5 6 7 
8 9 10 11 
12 13 14 15 
16 17 18 19 
20 21 22 23 
24 25 26 27 
28 29 30 31 
32 33 34 35 
36 37 38 39 
40 41 42 43 
44 45 46 47 
48 49 50 51 
52 53 54 55 
56 57 58 59 
60 61 62 63 
64 65 66 67 
68 69 70 71 
72 73 74 75 
76 77 78 79 
80 81 82 83 
84 85 86 87 
88 89 90 91 
92 93 94 95 
96 97 98 99 
100 101 102 103 
104 105 106 107 
108 109 110 111 
112 113 114 115 
116 117 118 119 
120 121 122 123 
124 125 126 127 
128 129 130 131 
132 133 134 135 
136 137 138 139 
140 141 142 143 
144 145 146 147 
148 149 150 151 
152 153 154 155 
156 157 158 159 
160 161 162 163 
164 165 166 167 
168 169 170 171 
172 173 174 175 
176 177 178 179 
180 181 182 183 
184 185 186 187 
188 189 190 191 
192 193 194 195 
196 197 198 199 
200 201 202 203 
204 205 206 207 
208 209 210 211 
212 213 214 215 
216 217 218 219 
220 221 222 223 
224 225 226 227 
228 229 230 231 
232 233 234 235 
236 237 238 239 
240 241 242 243 
244 245 246 247 
248 249 250 251 
252 253 254 255 
256 257 258 259 
260 261 262 263 
264 265 266 267 
268 269 270 271 
272 273 274 275 
276 277 278 279 
280 281 282 283 
284 285 286 287 
288 289 290 291 
292 293 294 295 
296 297 298 299 
300 301 302 303 
304 305 306 307 
308 309 310 311 
312 313 314 315 
316 317 318 319 
320 321 322 323 
324 325 326 327 
328 329 330 331 
332 333 334 335 
336 337 338 339 
340 341 342 343 
344 345 346 347 
348 349 350 351 
352 353 354 355 
356 357 358 359 
360 361 362 363 
364 365 366 367 
368 369 370 371 
372 373 374 375 
376 377 378 379 
380 381 382 383 
384 385 386 387 
388 389 390 391 
392 393 394 395 
396 397 398 399 
400 401 402 403 
404 405 406 407 
408 409 410 411 
412 413 414 415 
416 417 418 419 
420 421 422 423 
424 425 426 427 
428 429 430 431 
432 433 434 435 
436 437 438 439 
440 441 442 443 
444 445 446 447 
448 449 450 451 
452 453 454 455 
456 457 458 459 
460 461 462 463 
464 465 466 467 
468 469 470 471 
472 473 474 475 
476 477 478 479 
480 481 482 483 
484 485 486 487 
488 489 490 491 
492 493 494 495 
496 497 498 499 
500 501 502 503 
504 505 506 507 
508 509 510 511 
512 513 514 515 
516 517 518 519 
520 521 522 523 
524 525 526 527 
528 529 530 531 
532 533 534 535 
536 537 538 539 
540 541 542 543 
544 545 546 547 
548 549 550 551 
552 553 554 555 
556 557 558 559 
560 561 562 563 
564 565 566 567 
568 569 570 571 
572 573 574 575 
576 577 578 579 
580 581 582 583 
584 585 586 587 
588 589 590 591 
592 593 594 595 
596 597 598 599 
600 601 602 603 
604 605 606 607 
608 609 610 611 
612 613 614 615 
616 617 618 619 
620 621 622 623 
624 625 626 627 
628 629 630 631 
632 633 634 635 
636 637 638 639 
640 641 642 643 
644 645 646 647 
648 649 650 651 
652 653 654 655 
656 657 658 659 
660 661 662 663 
664 665 666 667 
668 669 670 671 
672 673 674 675 
676 677 678 679 
680 681 682 683 
684 685 686 687 
688 689 690 691 
692 693 694 695 
696 697 698 699 
700 701 702 703 
704 705 706 707 
708 709 710 711 
712 713 714 715 
716 717 718 719 
720 721 722 723 
724 725 726 727 
728 729 730 731 
732 733 734 735 
736 737 738 739 
740 741 742 743 
744 745 746 747 
748 749 750 751 
752 753 754 755 
756 757 758 759 
760 761 762 763 
764 765 766 767 
768 769 770 771 
772 773 774 775 
776 777 778 779 
780 781 782 783 
784 785 786 787 
788 789 790 791 
792 793 794 795 
796 797 798 799 
800 801 802 803 
804 805 806 807 
808 809 810 811 
812 813 814 815 
816 817 818 819 
820 821 822 823 
824 825 826 827 
828 829 830 831 
832 833 834 835 
836 837 838 839 
840 841 842 843 
844 845 846 847 
848 849 850 851 
852 853 854 855 
856 857 858 859 
860 861 862 863 
864 865 866 867 
868 869 870 871 
872 873 874 875 
876 877 878 879 
880 881 882 883 
884 885 886 887 
888 889 890 891 
892 893 894 895 
896 897 898 899 
900 901 902 903 
904 905 906 907 
908 909 910 911 
912 913 914 915 
916 917 918 919 
920 921 922 923 
924 925 926 927 
928 929 930 931 
932 933 934 935 
936 937 938 939 
940 941 942 943 
944 945 946 947 
948 949 950 951 
952 953 954 955 
956 957 958 959 
960 961 962 963 
964 965 966 967 
968 969 970 971 
972 973 974 975 
976 977 978 979 
980 981 982 983 
984 985 986 987 
988 989 990 991 
992 993 994 995 
996 997 998 999 
1000 1001 1002 1003 
1004 1005 1006 1007 
1008 1009 1010 1011 
1012 1013 1014 1015 
1016 1017 1018 1019 
1020 1021 1022 1023 
1024 1025 1026 1027 
1028 1029 1030 1031 
1032 1033 1034 1035 
1036 1037 1038 1039 
1040 1041 1042 1043 
1044 1045 1046 1047 
1048 1049 1050 1051 
1052 1053 1054 1055 
1056 1057 1058 1059 
1060 1061 1062 1063 
1064 1065 1066 1067 
1068 1069 1070 1071 
1072 1073 1074 1075 
1076 1077 1078 1079 
1080 1081 1082 1083 
1084 1085 1086 1087 
1088 1089 1090 1091 
1092 1093 1094 1095 
1096 1097 1098 1099 
1100 1101 1102 1103 
1104 1105 1106 1107 
1108 1109 1110 1111 
1112 1113 1114 1115 
1116 1117 1118 1119 
1120 1121 1122 1123 
1124 1125 1126 1127 
1128 1129 1130 1131 
1132 1133 1134 1135 
1136 1137 1138 1139 
1140 1141 1142 1143 
1144 1145 1146 1147 
1148 1149 1150 1151 
1152 1153 1154 1155 
1156 1157 1158 1159 
1160 1161 1162 1163 
1164 1165 1166 1167 
1168 1169 1170 1171 
1172 1173 1174 1175 
1176 1177 1178 1179 
1180 1181 1182 1183 
1184 1185 1186 1187 
1188 1189 1190 1191 
1192 1193 1194 1195 
1196 1197 1198 1199 
1200 1201 1202 1203 
1204 1205 1206 1207 
1208 1209 1210 1211 
1212 1213 1214 1215 
1216 1217 1218 1219 
1220 1221 1222 1223 
1224 1225 1226 1227 
1228 1229 1230 1231 
1232 1233 1234 1235 
1236 1237 1238 1239 
1240 1241 1242 1243 
1244 1245 1246 1247 
1248 1249 1250 1251 
1252 1253 1254 1255 
1256 1257 1258 1259 
1260 1261 1262 1263 
1264 1265 1266 1267 
1268 1269 1270 1271 
1272 1273 1274 1275 
1276 1277 1278 1279 
1280 1281 1282 1283 
1284 1285 1286 1287 
1288 1289 1290 1291 
1292 1293 1294 1295 
1296 1297 1298 1299 
1300 1301 1302 1303 
1304 1305 1306 1307 
1308 1309 1310 1311 
1312 1313 1314 1315 
1316 1317 1318 1319 
1320 1321 1322 1323 
1324 1325 1326 1327 
1328 1329 1330 1331 
1332 1333 1334 1335 
1336 1337 1338 1339 
1340 1341 1342 1343 
1344 1345 1346 1347 
1348 1349 1350 1351 
1352 1353 1354 1355 
1356 1357 1358 1359 
1360 1361 1362 1363 
1364 1365 1366 1367 
1368 1369 1370 1371 
1372 1373 1374 1375 
1376 1377 1378 1379 
1380 1381 1382 1383 
1384 1385 1386 1387 
1388 1389 1390 1391 
1392 1393 1394 1395 
1396 1397 1398 1399 
1400 1401 1402 1403 
1404 1405 1406 1407 
1408 1409 1410 1411 
1412 1413 1414 1415 
1416 1417 1418 1419 
1420 1421 1422 1423 
1424 1425 1426 1427 
1428 1429 1430 1431 
1432 1433 1434 1435 
1436 1437 1438 1439 
1440 1441 1442 1443 
1444 1445 1446 1447 
1448 1449 1450 1451 
1452 1453 1454 1455 
1456 1457 1458 1459 
1460 1461 1462 1463 
1464 1465 1466 1467 
1468 1469 1470 1471 
1472 1473 1474 1475 
1476 1477 1478 1479 
1480 1481 1482 1483 
1484 1485 1486 1487 
1488 1489 1490 1491 
1492 1493 1494 1495 
1496 1497 1498 1499 
1500 1501 1502 1503 
1504 1505 1506 1507 
1508 1509 1510 1511 
1512 1513 1514 1515 
1516 1517 1518 1519 
1520 1521 1522 1523 
1524 1525 1526 1527 
1528 1529 1530 1531 
1532 1533 1534 1535 
1536 1537 1538 1539 
1540 1541 1542 1543 
1544 1545 1546 1547 
1548 1549 1550 1551 
1552 1553 1554 1555 
1556 1557 1558 1559 
1560 1561 1562 1563 
1564 1565 1566 1567 
1568 1569 1570 1571 
1572 1573 1574 1575 
1576 1577 1578 1579 
1580 1581 1582 1583 
1584 1585 1586 1587 
1588 1589 1590 1591 
1592 1593 1594 1595 
1596 1597 1598 1599 
1600 1601 1602 1603 
1604 1605 1606 1607 
1608 1609 1610 1611 
1612 1613 1614 1615 
1616 1617 1618 1619 
1620 1621 1622 1623 
1624 1625 1626 1627 
1628 1629 1630 1631 
1632 1633 1634 1635 
1636 1637 1638 1639 
1640 1641 1642 1643 
1644 1645 1646 1647 
1648 1649 1650 1651 
1652 1653 1654 1655 
1656 1657 1658 1659 
1660 1661 1662 1663 
1664 1665 1666 1667 
1668 1669 1670 1671 
1672 1673 1674 1675 
1676 1677 1678 1679 
1680 1681 1682 1683 
1684 1685 1686 1687 
1688 1689 1690 1691 
1692 1693 1694 1695 
1696 1697 1698 1699 
1700 1701 1702 1703 
1704 1705 1706 1707 
1708 1709 1710 1711 
1712 1713 1714 1715 
1716 1717 1718 1719 
1720 1721 1722 1723 
1724 1725 1726 1727 
1728 1729 1730 1731 
1732 1733 1734 1735 
1736 1737 1738 1739 
1740 1741 1742 1743 
1744 1745 1746 1747 
1748 1749 1750 1751 
1752 1753 1754 1755 
1756 1757 1758 1759 
1760 1761 1762 1763 
1764 1765 1766 1767 
1768 1769 1770 1771 
1772 1773 1774 1775 
1776 1777 1778 1779 
1780 1781 1782 1783 
1784 1785 1786 1787 
1788 1789 1790 1791 
1792 1793 1794 1795 
1796 1797 1798 1799 
1800 1801 1802 1803 
1804 1805 1806 1807 
1808 1809 1810 1811 
1812 1813 1814 1815 
1816 1817 1818 1819 
1820 1821 1822 1823 
1824 1825 1826 1827 
1828 1829 1830 1831 
1832 1833 1834 1835 
1836 1837 1838 1839 
1840 1841 1842 1843 
1844 1845 1846 1847 
1848 1849 1850 1851 
1852 1853 1854 1855 
1856 1857 1858 1859 
1860 1861 1862 1863 
1864 1865 1866 1867 
1868 1869 1870 1871 
1872 1873 1874 1875 
1876 1877 1878 1879 
1880 1881 1882 1883 
1884 1885 1886 1887 
1888 1889 1890 1891 
1892 1893 1894 1895 
1896 1897 1898 1899 
1900 1901 1902 1903 
1904 1905 1906 1907 
1908 1909 1910 1911 
1912 1913 1914 1915 
1916 1917 1918 1919 
1920 1921 1922 1923 
1924 1925 1926 1927 
1928 1929 1930 1931 
1932 1933 1934 1935 
1936 1937 1938 1939 
1940 1941 1942 1943 
1944 1945 1946 1947 
1948 1949 1950 1951 
1952 1953 1954 1955 
1956 1957 1958 1959 
1960 1961 1962 1963 
1964 1965 1966 1967 
1968 1969 1970 1971 
1972 1973 1974 1975 
1976 1977 1978 1979 
1980 1981 1982 1983 
1984 1985 1986 1987 
1988 1989 1990 1991 
1992 1993 1994 1995 
1996 1997 1998 1999 
2000 2001 2002 2003 
2004 2005 2006 2007 
2008 2009 2010 2011 
2012 2013 2014 2015 
2016 2017 2018 2019 
2020 2021 2022 2023 
2024 2025 2026 2027 
2028 2029 2030 2031 
2032 2033 2034 2035 
2036 2037 2038 2039 
2040 2041 2042 2043 
2044 2045 2046 2047 
2048 2049 2050 2051 2052 2053 2054 2055 2056 2057 2058 2059 2060 2061 2062 2063 
2064 2065 2066 2067 2068 2069 2070 2071 2072 2073 2074 2075 2076 2077 2078 2079 
</DataArray>
<DataArray type="Int32" Name="offsets" format="ascii">
4 8 12 16 20 24 28 32 36 40 44 48 52 56 60 64 68 72 76 80 84 88 92 96 100 104 108 112 116 120 124 128 132 136 140 144 148 152 156 160 164 168 172 176 180 184 188 192 196 200 204 208 212 216 220 224 228 232 236 240 244 248 252 256 260 264 268 272 276 280 284 288 292 296 300 304 308 312 316 320 324 328 332 336 340 344 348 352 356 360 364 368 372 376 380 384 388 392 396 400 404 408 412 416 420 424 428 432 436 440 444 448 452 456 460 464 468 472 476 480 484 488 492 496 500 504 508 512 516 520 524 528 532 536 540 544 548 552 556 560 564 568 572 576 580 584 588 592 596 600 604 608 612 616 620 624 628 632 636 640 644 648 652 656 660 664 668 672 676 680 684 688 692 696 700 704 708 712 716 720 724 728 732 736 740 744 748 752 756 760 764 768 772 776 780 784 788 792 796 800 804 808 812 816 820 824 828 832 836 840 844 848 852 856 860 864 868 872 876 880 884 888 892 896 900 904 908 912 916 920 924 928 932 936 940 944 948 952 956 960 964 968 972 976 980 984 988 992 996 1000 1004 1008 1012 1016 1020 1024 1028 1032 1036 1040 1044 1048 1052 1056 1060 1064 1068 1072 1076 1080 1084 1088 1092 1096 1100 1104 1108 1112 1116 1120 1124 1128 1132 1136 1140 1144 1148 1152 1156 1160 1164 1168 1172 1176 1180 1184 1188 1192 1196 1200 1204 1208 1212 1216 1220 1224 1228 1232 1236 1240 1244 1248 1252 1256 1260 1264 1268 1272 1276 1280 1284 1288 1292 1296 1300 1304 1308 1312 1316 1320 1324 1328 1332 1336 1340 1344 1348 1352 1356 1360 1364 1368 1372 1376 1380 1384 1388 1392 1396 1400 1404 1408 1412 1416 1420 1424 1428 1432 1436 1440 1444 1448 1452 1456 1460 1464 1468 1472 1476 1480 1484 1488 1492 1496 1500 1504 1508 1512 1516 1520 1524 1528 1532 1536 1540 1544 1548 1552 1556 1560 1564 1568 1572 1576 1580 1584 1588 1592 1596 1600 1604 1608 1612 1616 1620 1624 1628 1632 1636 1640 1644 1648 1652 1656 1660 1664 1668 1672 1676 1680 1684 1688 1692 1696 1700 1704 1708 1712 1716 1720 1724 1728 1732 1736 1740 1744 1748 1752 1756 1760 1764 1768 1772 1776 1780 1784 1788 1792 1796 1800 1804 1808 1812 1816 1820 1824 1828 1832 1836 1840 1844 1848 1852 1856 1860 1864 1868 1872 1876 1880 1884 1888 1892 1896 1900 1904 1908 1912 1916 1920 1924 1928 1932 1936 1940 1944 1948 1952 1956 1960 1964 1968 1972 1976 1980 1984 1988 1992 1996 2000 2004 2008 2012 2016 2020 2024 2028 2032 2036 2040 2044 2048 2064 2080 
</DataArray>
<DataArray type="UInt8" Name="types" format="ascii">
7 7 7 7 7 7 7 7 7 7 7 7 7 7 7 7 7 7 7 7 7 7 7 7 7 7 7 7 7 7 7 7 7 7 7 7 7 7 7 7 7 7 7 7 7 7 7 7 7 7 7 7 7 7 7 7 7 7 7 7 7 7 7 7 7 7 7 7 7 7 7 7 7 7 7 7 7 7 7 7 7 7 7 7 7 7 7 7 7 7 7 7 7 7 7 7 7 7 7 7 7 7 7 7 7 7 7 7 7 7 7 7 7 7 7 7 7 7 7 7 7 7 7 7 7 7 7 7 7 7 7 7 7 7 7 7 7 7 7 7 7 7 7 7 7 7 7 7 7 7 7 7 7 7 7 7 7 7 7 7 7 7 7 7 7 7 7 7 7 7 7 7 7 7 7 7 7 7 7 7 7 7 7 7 7 7 7 7 7 7 7 7 7 7 7 7 7 7 7 7 7 7 7 7 7 7 7 7 7 7 7 7 7 7 7 7 7 7 7 7 7 7 7 7 7 7 7 7 7 7 7 7 7 7 7 7 7 7 7 7 7 7 7 7 7 7 7 7 7 7 7 7 7 7 7 7 7 7 7 7 7 7 7 7 7 7 7 7 7 7 7 7 7 7 7 7 7 7 7 7 7 7 7 7 7 7 7 7 7 7 7 7 7 7 7 7 7 7 7 7 7 7 7 7 7 7 7 7 7 7 7 7 7 7 7 7 7 7 7 7 7 7 7 7 7 7 7 7 7 7 7 7 7 7 7 7 7 7 7 7 7 7 7 7 7 7 7 7 7 7 7 7 7 7 7 7 7 7 7 7 7 7 7 7 7 7 7 7 7 7 7 7 7 7 7 7 7 7 7 7 7 7 7 7 7 7 7 7 7 7 7 7 7 7 7 7 7 7 7 7 7 7 7 7 7 7 7 7 7 7 7 7 7 7 7 7 7 7 7 7 7 7 7 7 7 7 7 7 7 7 7 7 7 7 7 7 7 7 7 7 7 7 7 7 7 7 7 7 7 7 7 7 7 7 7 7 7 7 7 7 7 7 7 7 7 7 7 7 7 7 7 7 7 7 7 7 7 7 7 7 7 7 7 7 7 7 7 7 7 7 7 7 7 7 7 7 7 7 7 7 7 7 7 7 7 7 7 7 7 7 7 7 7 7 
</DataArray>
</Cells>
<CellData Scalars="cell variable 4" Vectors="cell vector">
<DataArray type="Float64" NumberOfComponents="3" Name="cell vector" format="ascii">
0.130889 0.155296 0.979158
0.366177 0.431357 0.824527
0.474682 0.670428 0.570266
0.303421 0.928473 0.21418
-0.0680075 0.970221 -0.232478
-0.0780065 0.815543 -0.573415
0.0164818 -0.548017 0.836305
-0.000903952 -0.192491 0.981298
0.00818241 0.193213 0.981123
-0.0168136 0.548646 0.835885
-0.0804677 0.815748 0.572783
-0.0693984 0.970264 0.231888
0.300063 0.929585 -0.214086
0.466365 0.675605 -0.571018
-0.34738 -0.44126 0.827416
-0.137818 -0.152027 0.978721
0.0594844 0.18725 0.98051
0.168455 0.531785 0.829956
0.229433 0.799977 0.554434
0.192118 0.961718 0.195419
0.131839 0.971694 -0.196032
0.122064 0.822444 -0.555596
-0.0916289 -0.548726 0.830965
-0.0334623 -0.192511 0.980724
0.0342685 0.193022 0.980596
0.0910443 0.549358 0.830612
0.120676 0.823001 0.555073
0.130748 0.971963 0.19543
0.190947 0.961837 -0.195983
0.228396 0.799887 -0.554992
-0.168032 -0.531297 0.830355
-0.0618398 -0.186072 0.980588
0.0585944 0.18741 0.980533
0.166423 0.532258 0.830063
0.232564 0.799291 0.554118
0.166155 0.966561 0.195328
0.128711 0.972514 -0.194037
0.134094 0.820985 -0.554979
-0.097889 -0.547603 0.830993
-0.0354175 -0.192062 0.980743
0.0350292 0.192784 0.980616
0.0974726 0.548189 0.830655
0.13368 0.82139 0.55448
0.128192 0.972715 0.193369
0.165535 0.966537 -0.195969
0.232378 0.799022 -0.554585
-0.166437 -0.531692 0.830423
-0.0598545 -0.186348 0.980659
0.0603592 0.186532 0.980593
0.173285 0.529463 0.830446
0.25313 0.792835 0.55438
0.192891 0.961763 0.194433
0.941645 -0.335352 0.0290461
0.975262 -0.220645 0.0133809
0.978582 -0.205775 0.00588784
0.979183 -0.202971 0.00202367
0.979191 -0.202937 -0.000953003
0.978602 -0.205705 -0.00487704
0.975275 -0.220643 -0.012493
0.941331 -0.336295 -0.0282976
0.191839 0.961855 -0.195019
0.253183 0.792543 -0.554774
-0.173349 -0.528907 0.830787
-0.0612531 -0.185436 0.980745
0.0619718 0.185358 0.980715
0.177926 0.526605 0.831282
0.265261 0.788316 0.555153
0.292034 0.936543 0.193916
0.931874 -0.362071 0.0226883
0.961482 -0.274541 0.0134195
0.966069 -0.258225 0.00553372
0.967012 -0.254725 0.0017139
0.967015 -0.254719 -0.000749178
0.966085 -0.258186 -0.00453604
0.961509 -0.27449 -0.0124425
0.931586 -0.362862 -0.021882
0.291196 0.936705 -0.194393
0.265416 0.78802 -0.555499
-0.178226 -0.525999 0.831601
-0.0627743 -0.184227 0.980877
0.0661435 0.183275 0.980834
0.19027 0.521106 0.832013
0.287758 0.780009 0.555681
0.350465 0.91627 0.193969
0.929241 -0.369177 0.0148265
0.947551 -0.319355 0.0126568
0.952294 -0.305121 0.00604128
0.95345 -0.301545 0.0019043
0.953453 -0.301539 -0.000941762
0.95231 -0.305089 -0.00505616
0.947572 -0.319329 -0.0116942
0.928996 -0.369824 -0.0140028
0.349693 0.91648 -0.194367
0.287912 0.779734 -0.555987
-0.190659 -0.52047 0.832322
-0.0669373 -0.182107 0.980998
0.0720197 0.180584 0.980919
0.207279 0.513709 0.832549
0.314906 0.769049 0.556235
0.393011 0.898819 0.194081
0.922846 -0.385067 0.00881121
0.932229 -0.361705 0.0109136
0.936557 -0.350463 0.00613999
0.93785 -0.347036 0.00204982
0.937853 -0.34703 -0.00108815
0.936573 -0.350434 -0.00515896
0.932245 -0.36169 -0.00995804
0.922646 -0.385565 -0.00796415
0.392205 0.899096 -0.194427
0.315015 0.768808 -0.556507
-0.207699 -0.513055 0.832848
-0.0728211 -0.179364 0.981084
0.0788269 0.177396 0.980978
0.226761 0.50478 0.832933
0.344432 0.755936 0.556712
0.429966 0.881718 0.19417
0.911229 -0.411869 0.00505169
0.915078 -0.403179 0.00887059
0.918732 -0.39484 0.0058049
0.920069 -0.39175 0.00207486
0.920073 -0.391745 -0.00112132
0.918749 -0.394813 -0.00482797
0.915096 -0.403159 -0.00791321
0.911061 -0.412251 -0.00418519
0.429016 0.882113 -0.194479
0.344482 0.755736 -0.556952
-0.227195 -0.504109 0.833221
-0.0796264 -0.176116 0.981144
0.0861326 0.173742 0.981017
0.247528 0.49447 0.833204
0.375292 0.740826 0.557075
0.465495 0.863472 0.194245
0.89494 -0.446178 0.00295317
0.895891 -0.444219 0.00693419
0.89882 -0.438288 0.00516587
0.90011 -0.435659 0.0019817
0.900114 -0.435654 -0.00103213
0.898837 -0.438263 -0.00419583
0.895905 -0.444204 -0.00598314
0.894783 -0.446496 -0.00207753
0.464468 0.863962 -0.194521
0.375314 0.740658 -0.557284
-0.247963 -0.493783 0.833482
-0.0868964 -0.172405 0.981186
0.0936784 0.169635 0.981044
0.268941 0.482828 0.833395
0.406959 0.723713 0.557337
0.499567 0.844199 0.194321
0.874979 -0.484158 0.00181317
0.874548 -0.484909 0.00531147
0.876826 -0.480789 0.00437129
0.87799 -0.478675 0.00180426
0.877995 -0.478669 -0.000854618
0.876841 -0.480768 -0.00341084
0.874555 -0.484907 -0.00437435
0.874824 -0.484441 -0.000936466
0.49859 0.84472 -0.194567
0.406975 0.723566 -0.557516
-0.269363 -0.482127 0.833665
-0.0943774 -0.168252 0.981216
0.101295 0.165094 0.981062
0.290542 0.469904 0.833532
0.438911 0.704641 0.557529
0.533107 0.823416 0.194381
0.852096 -0.523384 0.00116162
0.851045 -0.525078 0.00399632
0.852761 -0.522289 0.00354179
0.853752 -0.520678 0.00157286
0.853757 -0.520672 -0.000636936
0.852777 -0.522269 -0.00259969
0.85105 -0.525076 -0.00307498
0.851939 -0.523641 -0.000294328
0.532092 0.82402 -0.194601
0.438912 0.704521 -0.557679
-0.290946 -0.469191 0.833793
-0.10192 -0.163666 0.981237
0.108871 0.160127 0.981074
0.311997 0.455766 0.833628
0.470665 0.683726 0.557667
0.566836 0.800562 0.194418
0.8264 -0.563083 0.000849429
0.825423 -0.564507 0.00292896
0.826675 -0.562673 0.00274717
0.827468 -0.561511 0.00131687
0.827474 -0.561504 -0.000394619
0.82669 -0.562654 -0.00182675
0.825419 -0.564517 -0.0020374
0.826218 -0.56335 -5.65054e-06
0.565918 0.801164 -0.194611
0.470666 0.683627 -0.557788
-0.312373 -0.455045 0.83388
-0.109405 -0.158667 0.981252
0.11633 0.154747 0.981081
0.33313 0.440439 0.83369
0.502019 0.660978 0.55775
0.600427 0.775684 0.194424
0.79806 -0.602578 0.000753098
0.797738 -0.603001 0.00204309
0.798605 -0.601852 0.00199735
0.799187 -0.601082 0.0010474
0.799193 -0.601075 -0.000149005
0.798621 -0.601833 -0.00109886
0.797731 -0.603012 -0.00117571
0.797861 -0.602841 6.76293e-05
0.599551 0.776319 -0.194593
0.50202 0.660899 -0.557842
-0.333477 -0.439713 0.833934
-0.116765 -0.153265 0.981262
0.123653 0.148951 0.981083
0.353879 0.423911 0.833708
0.532899 0.636344 0.55775
0.633612 0.748843 0.194345
0.767235 -0.641366 0.000639424
0.76804 -0.640401 0.00110519
0.768492 -0.639858 0.00121052
0.768827 -0.639456 0.000757278
0.768834 -0.639448 0.000123739
0.768507 -0.639842 -0.00033914
0.768024 -0.640421 -0.000269155
0.767041 -0.641598 0.000163762
0.632822 0.749473 -0.19449
0.53292 0.63627 -0.557814
-0.354188 -0.423187 0.833945
-0.123974 -0.147462 0.981267
0.130844 0.142766 0.98107
0.37431 0.406189 0.833608
0.563764 0.609416 0.557478
0.671857 0.714877 0.193798
0.735284 -0.677759 -0.00090206
0.735721 -0.677284 -0.001023
0.735288 -0.677755 -0.000414691
0.73516 -0.677893 0.000149958
0.735166 -0.677886 0.000703384
0.7353 -0.67774 0.00126019
0.735702 -0.677303 0.00183389
0.735089 -0.677968 0.0016822
0.671084 0.715572 -0.193915
0.563793 0.609356 -0.557515
-0.374572 -0.405476 0.833838
-0.131047 -0.141279 0.981258
0.137699 0.136345 0.981045
0.393685 0.387855 0.833415
0.592522 0.581956 0.556996
0.703918 0.683582 0.192913
-0.701263 0.712902 0.000892105
-0.702035 0.712141 0.00133617
-0.701432 0.712736 0.000826142
-0.701124 0.713039 3.27965e-05
-0.701129 0.713034 -0.000844179
-0.701444 0.712723 -0.00163394
-0.702019 0.712155 -0.00211477
-0.701084 0.713077 -0.00164417
0.703117 0.68438 -0.193006
0.592554 0.581913 -0.557007
-0.393913 -0.387143 0.833638
-0.137788 -0.134864 0.981237
0.144133 0.129647 0.981029
0.411795 0.36884 0.833296
0.61901 0.553987 0.556709
0.729144 0.656749 0.192431
-0.665079 0.746773 -0.000551315
-0.667041 0.745021 3.12186e-05
-0.666976 0.745079 0.000112127
-0.666796 0.74524 -0.00018839
-0.666803 0.745234 -0.000588011
-0.666987 0.745068 -0.000875707
-0.66702 0.74504 -0.000765208
-0.664902 0.746931 -0.000163809
0.728484 0.65746 -0.192503
0.61906 0.553945 -0.556695
-0.412002 -0.368117 0.833513
-0.144107 -0.128186 0.981224
0.150257 0.122546 0.981023
0.429102 0.348638 0.83326
0.644775 0.523849 0.55664
0.758501 0.622632 0.19237
-0.627956 0.778248 -0.000558697
-0.629662 0.77687 0.000113141
-0.629541 0.776967 0.000339812
-0.629243 0.777209 -6.73106e-05
-0.62925 0.777203 -0.000676348
-0.629553 0.776957 -0.00106831
-0.629637 0.776889 -0.000810086
-0.627782 0.778389 -0.000122726
0.757935 0.623305 -0.192421
0.644839 0.523808 -0.556604
-0.42928 -0.347914 0.833471
-0.150117 -0.121119 0.981221
0.156049 0.115138 0.981016
0.445467 0.327561 0.833224
0.669137 0.492402 0.556593
0.785829 0.587762 0.192374
-0.589172 0.808007 -0.000411501
-0.590853 0.806779 0.000497466
-0.590488 0.807046 0.000744959
-0.589993 0.807408 0.000116683
-0.59 0.807402 -0.000817401
-0.590501 0.807035 -0.00143359
-0.590833 0.806793 -0.0011567
-0.588988 0.808142 -0.000227097
0.785305 0.588453 -0.192406
0.669206 0.492372 -0.556537
-0.445615 -0.326837 0.83343
-0.155802 -0.113749 0.981217
0.161467 0.1075 0.981006
0.460744 0.305854 0.833167
0.691808 0.460087 0.556527
0.810756 0.552869 0.192381
-0.548975 0.835839 -0.000237687
-0.550862 0.834596 0.00106586
-0.550084 0.835108 0.00125912
-0.549327 0.835608 0.000323323
-0.549335 0.835602 -0.000983878
-0.550098 0.835098 -0.00190022
-0.550838 0.83461 -0.00167613
-0.548779 0.835968 -0.000353766
0.810306 0.553524 -0.192393
0.691888 0.460058 -0.55645
-0.460863 -0.30513 0.833367
-0.161114 -0.106162 0.981209
0.166485 0.099692 0.980991
0.474852 0.283711 0.833081
0.712647 0.427235 0.556422
0.833205 0.518423 0.192374
-0.507698 0.861535 -1.42163e-05
-0.509887 0.860239 0.00183832
-0.50848 0.861071 0.00189164
-0.507377 0.861724 0.000543814
-0.507388 0.861717 -0.00117466
-0.508493 0.861063 -0.00248575
-0.509841 0.860265 -0.00238631
-0.507502 0.86165 -0.000531262
0.832945 0.518842 -0.19237
0.712749 0.427186 -0.556328
-0.474941 -0.282988 0.833276
-0.166024 -0.0984263 0.981197
0.171079 0.0917947 0.980972
0.487735 0.261337 0.832957
0.731572 0.39417 0.556267
0.853201 0.48482 0.192346
-0.46582 0.884879 0.000334234
-0.468133 0.883654 0.00286399
-0.465801 0.884886 0.00264747
-0.464266 0.885696 0.00079037
-0.46428 0.885688 -0.00137439
-0.465816 0.884876 -0.00318598
-0.468081 0.883679 -0.00335152
-0.465603 0.884993 -0.000820244
0.853047 0.485099 -0.192327
0.731677 0.39413 -0.556156
-0.487802 -0.260604 0.833147
-0.170525 -0.0905962 0.98118
0.175245 0.0838799 0.980945
0.49936 0.238976 0.832785
0.748514 0.361304 0.556045
0.870823 0.452428 0.192291
-0.424035 0.905645 0.000923409
-0.425826 0.904795 0.00420212
-0.422149 0.90652 0.00348739
-0.420107 0.907474 0.00103022
-0.420126 0.907464 -0.00158105
-0.422164 0.906511 -0.00396757
-0.425748 0.90483 -0.00461451
-0.423817 0.905747 -0.00135383
0.870874 0.452342 -0.192261
0.748636 0.361245 -0.55592
-0.49941 -0.238225 0.83297
-0.174602 -0.0827694 0.981154
0.178977 0.0760583 0.980909
0.509704 0.216952 0.832546
0.763437 0.329122 0.555736
0.886384 0.421166 0.192203
-0.383507 0.923536 0.00196381
-0.383186 0.923652 0.00589506
-0.37761 0.925954 0.00432939
-0.375024 0.927014 0.00122329
-0.37505 0.927003 -0.00175394
-0.37762 0.925949 -0.00474465
-0.383068 0.923699 -0.0062239
-0.383321 0.923612 -0.00234564
0.886648 0.420628 -0.192168
0.763588 0.329006 -0.555597
-0.509744 -0.216164 0.832727
-0.17825 -0.0750582 0.981118
0.182266 0.0685075 0.98086
0.518746 0.195743 0.832218
0.776348 0.298189 0.555309
0.900516 0.390093 0.192089
-0.34615 0.938172 0.00381397
-0.340331 0.940272 0.0079113
-0.332234 0.943183 0.0050451
-0.329136 0.944282 0.00133436
-0.329173 0.944268 -0.00183893
-0.332241 0.943179 -0.00538068
-0.340172 0.940328 -0.00814237
-0.34599 0.938229 -0.00413565
0.900935 0.389143 -0.192051
0.776529 0.297993 -0.555161
-0.518789 -0.19488 0.832394
-0.181471 -0.0676287 0.981068
0.185106 0.0615118 0.980792
0.526453 0.176123 0.831762
0.787271 0.269205 0.554737
0.91432 0.356599 0.191982
-0.314759 0.949146 0.00699772
-0.29712 0.954787 0.0100453
-0.286 0.958214 0.00545844
-0.282514 0.959262 0.00132325
-0.282564 0.959247 -0.00180113
-0.286004 0.958212 -0.00569652
-0.296917 0.954849 -0.0101645
-0.314667 0.949175 -0.00725968
0.914843 0.355273 -0.191946
0.787487 0.268881 -0.554588
-0.526514 -0.175121 0.831935
-0.184265 -0.0607808 0.980995
0.18748 0.0555837 0.980695
0.53274 0.159496 0.831113
0.796148 0.243313 0.554028
0.929345 0.315368 0.191991
-0.292099 0.956312 0.0120828
-0.25278 0.967451 0.0118426
-0.23859 0.971105 0.00541478
-0.234905 0.972018 0.00119157
-0.234976 0.972 -0.00162617
-0.238595 0.971104 -0.00552489
-0.252535 0.967516 -0.0118257
-0.292112 0.956305 -0.0122808
0.929914 0.313702 -0.191966
0.796405 0.242779 -0.553893
-0.532845 -0.158223 0.831289
-0.186631 -0.055035 0.980887
0.18926 0.0517577 0.980562
0.537242 0.148771 0.830204
0.802437 0.223483 0.553309
0.947582 0.254973 0.192556
-0.273292 0.961745 0.0189418
-0.204185 0.978849 0.0127716
-0.188139 0.982129 0.0051569
-0.184492 0.982833 0.00113679
-0.184585 0.982816 -0.00143551
-0.188157 0.982126 -0.00507949
-0.203938 0.978903 -0.012608
-0.273431 0.961702 -0.0190761
0.948092 0.253072 -0.192549
0.802732 0.222633 -0.553224
-0.537443 -0.146925 0.830402
-0.188489 -0.0514066 0.980729
0.189808 0.0517978 0.980454
0.53818 0.150515 0.829282
0.802906 0.223501 0.552621
0.972368 0.129513 0.194235
-0.213967 0.976446 0.0277688
-0.138238 0.990258 0.0166985
-0.124272 0.99221 0.00866899
-0.120926 0.992657 0.00288013
-0.120906 0.992661 -0.00229906
-0.12425 0.992216 -0.00832888
-0.138405 0.990231 -0.0169156
-0.214576 0.976302 -0.028133
0.972811 0.126301 -0.194129
0.803294 0.221986 -0.552667
-0.538658 -0.14725 0.829557
-0.189291 -0.0516267 0.980563
0.188789 0.0472473 0.98088
0.536717 0.136897 0.832582
0.806486 0.192894 0.558903
0.977453 0.0868119 0.192481
0.978873 0.0493757 -0.198416
0.827154 0.0753358 -0.556904
-0.551969 -0.0589984 0.831775
-0.193803 -0.0216155 0.980802
0.193771 0.0216837 0.980807
0.551945 0.0594704 0.831757
0.827115 0.0758024 0.556898
0.97884 0.0495697 0.198532
0.977539 0.0862264 -0.192307
0.806881 0.191397 -0.558847
-0.537509 -0.133459 0.83263
-0.188477 -0.047425 0.980932
0.189342 0.0411439 0.981049
0.538842 0.118902 0.833973
0.811591 0.163879 0.560771
0.97301 0.12156 0.19615
0.977171 0.0645865 -0.202399
0.825496 0.0694317 -0.560121
-0.55089 -0.0563117 0.832676
-0.193367 -0.0208226 0.980905
0.193577 0.0214042 0.980852
0.550917 0.0561841 0.832667
0.825429 0.0694118 0.560222
0.977152 0.0643531 0.202566
0.973156 0.12077 -0.195913
0.811923 0.16279 -0.560607
-0.539596 -0.116127 0.833877
-0.188928 -0.0417339 0.981104
0.184822 0.0474993 0.981623
0.522677 0.14737 0.839697
0.783939 0.227766 0.577548
0.970199 0.138467 0.198847
0.972653 -0.0228332 -0.231139
0.818942 0.0160786 -0.57365
-0.546726 -0.0337841 0.83663
-0.191757 -0.0129344 0.981357
0.191989 0.0148225 0.981285
0.546325 0.0303777 0.837022
0.818845 0.0152673 0.573812
0.972755 -0.021323 0.230852
0.970451 0.137214 -0.198485
0.784747 0.225699 -0.577263
-0.526187 -0.138835 0.838959
-0.184251 -0.0489538 0.981659
0.000797776 0.00685973 0.999976
0.00408152 0.000544941 0.999992
</DataArray>
<DataArray type="Float64" Name="cell vector length" format="ascii">
0.152197 0.149415 0.132279 0.0977886 0.133544 0.152032 0.146177 0.14123 0.140895 0.145469 0.1525 0.133652 0.0974699 0.131198 0.15859 0.157282 0.417422 0.392757 0.352723 0.330312 0.359755 0.391775 0.402038 0.399882 0.398926 0.399384 0.391548 0.359943 0.330817 0.353592 0.400198 0.419916 0.527334 0.49631 0.435793 0.403805 0.45652 0.498635 0.50659 0.503218 0.502558 0.504543 0.498581 0.456842 0.404418 0.436346 0.501309 0.528737 0.567042 0.527678 0.43722 0.204418 0.186911 0.451495 0.57511 0.624256 0.624267 0.575319 0.451101 0.186663 0.204915 0.437542 0.532245 0.568245 0.591643 0.544025 0.42984 0.189796 0.163402 0.436195 0.566114 0.617369 0.617282 0.565895 0.435805 0.163027 0.190216 0.430003 0.548457 0.592739 0.605959 0.55186 0.422999 0.171188 0.162026 0.432347 0.563746 0.615852 0.615775 0.563543 0.431954 0.161547 0.171622 0.423116 0.556494 0.607086 0.615019 0.556812 0.419061 0.156397 0.165967 0.431119 0.562511 0.615106 0.61504 0.562327 0.43074 0.165438 0.156861 0.419185 0.561855 0.61625 0.621037 0.560207 0.416672 0.145319 0.171137 0.430984 0.561665 0.61451 0.614451 0.561493 0.430618 0.170588 0.145817 0.416828 0.565758 0.622402 0.625119 0.562504 0.414981 0.137139 0.17592 0.431425 0.561132 0.614047 0.613993 0.560967 0.431069 0.175347 0.137693 0.415179 0.56861 0.626633 0.627899 0.563976 0.413606 0.132134 0.178473 0.431662 0.560819 0.613761 0.613711 0.560658 0.431313 0.177884 0.132738 0.413854 0.570656 0.62957 0.629765 0.564809 0.412281 0.127132 0.182106 0.432703 0.560859 0.613629 0.613581 0.560699 0.432353 0.18149 0.127801 0.41258 0.572072 0.631596 0.63101 0.565177 0.41088 0.12276 0.185439 0.433898 0.561133 0.61368 0.613634 0.560973 0.433549 0.1848 0.12349 0.411232 0.573018 0.633003 0.631841 0.565202 0.409341 0.118847 0.188415 0.435193 0.561677 0.613993 0.613951 0.561519 0.434847 0.187752 0.119642 0.409747 0.573612 0.633994 0.63242 0.564987 0.407556 0.114798 0.191746 0.437099 0.562892 0.614935 0.614895 0.562733 0.43675 0.19105 0.115661 0.408017 0.573956 0.634734 0.632838 0.564726 0.405891 0.111557 0.202079 0.444042 0.568196 0.619536 0.619495 0.568034 0.443695 0.201368 0.112469 0.406407 0.574237 0.635311 0.633098 0.564468 0.404531 0.103516 0.23178 0.466478 0.585552 0.634753 0.634713 0.585389 0.466133 0.231054 0.104502 0.405096 0.574486 0.635722 0.633136 0.563975 0.403073 0.101481 0.239876 0.472102 0.590056 0.638756 0.638712 0.589878 0.471745 0.239136 0.102516 0.403681 0.574464 0.635903 0.63285 0.563178 0.401456 0.0990993 0.240705 0.472763 0.590735 0.639418 0.639371 0.590546 0.472393 0.239936 0.100185 0.402103 0.574117 0.635755 0.632212 0.56218 0.400104 0.0976919 0.240634 0.472803 0.590998 0.639749 0.6397 0.590801 0.472425 0.239849 0.0988103 0.400787 0.573547 0.635251 0.631223 0.560972 0.398913 0.0970078 0.240138 0.472708 0.591263 0.640124 0.640074 0.591059 0.472327 0.239334 0.098163 0.399627 0.572743 0.634393 0.629809 0.559483 0.39783 0.0971037 0.239155 0.472534 0.591598 0.640605 0.640553 0.591386 0.47215 0.238349 0.098271 0.398572 0.571637 0.633106 0.627839 0.557615 0.39685 0.098163 0.237565 0.472304 0.592045 0.641204 0.641148 0.591822 0.471919 0.236772 0.099328 0.397623 0.570134 0.63126 0.625106 0.555221 0.395998 0.100501 0.235228 0.472067 0.592646 0.641924 0.641861 0.592409 0.471683 0.234445 0.101666 0.396807 0.5681 0.628656 0.621311 0.552106 0.395346 0.104597 0.232017 0.471931 0.593447 0.642759 0.642685 0.593188 0.471547 0.231273 0.105726 0.396204 0.565355 0.624997 0.616008 0.548023 0.395066 0.111103 0.227905 0.472092 0.594496 0.643691 0.643602 0.594208 0.471708 0.22721 0.112194 0.395994 0.561675 0.619853 0.608473 0.54263 0.395532 0.120745 0.223256 0.472898 0.595875 0.644732 0.644625 0.595552 0.472521 0.222646 0.121766 0.39655 0.556744 0.612515 0.597222 0.535135 0.397253 0.133481 0.219917 0.475207 0.597924 0.646141 0.646014 0.597569 0.474853 0.219415 0.13442 0.398375 0.549812 0.601534 0.577795 0.521809 0.398626 0.14318 0.226162 0.482768 0.602914 0.649876 0.649765 0.602616 0.482515 0.225849 0.143997 0.399849 0.537265 0.582514 0.530948 0.480782 0.377128 0.103551 0.287455 0.522007 0.627279 0.670382 0.670991 0.629491 0.521768 0.287249 0.104404 0.378429 0.497876 0.536423 0.494395 0.448857 0.37114 0.326743 0.386393 0.438825 0.467756 0.467012 0.460929 0.451652 0.43711 0.386891 0.327744 0.372569 0.467317 0.500411 0.446243 0.403457 0.342961 0.305796 0.334843 0.378306 0.418503 0.419082 0.411425 0.397053 0.376798 0.335202 0.306553 0.344396 0.423117 0.452757 0.213921 0.169377 0.110148 0.0744596 0.118492 0.1819 0.240167 0.250155 0.244526 0.22251 0.182903 0.119518 0.0748244 0.109023 0.188087 0.219725 0.041653 0.0151589 
</DataArray>
<DataArray type="Float64" Name="cell variable 4" format="ascii">
841.381 846.207 850.563 847.688 861.174 854.051 843.763 839.011 838.418 842.404 854.373 861.141 847.323 848.849 851.435 843.183 1118.92 1111.09 1105.71 1112.17 1127.03 1125.05 1124.12 1120.56 1119.21 1119.95 1125.08 1127.04 1112.09 1105.78 1122.88 1122.81 1334.79 1325.99 1317.52 1320.22 1352.57 1355.5 1359.22 1357.09 1355.49 1353.97 1355.54 1352.76 1320.5 1317.77 1338.45 1338.48 1395.64 1386.78 1378.13 1369.73 1746.91 2597.08 3354.06 3791.19 3789.68 3350.95 2595.16 1746.27 1369.91 1378.31 1399.95 1399.46 1415.82 1406.08 1397.86 1390.57 1753.04 2587.16 3347.85 3789.17 3788.05 3345.36 2585.31 1752.14 1390.69 1398 1419.84 1419.75 1421.13 1407.63 1394.97 1388.37 1764.56 2580.69 3337.91 3781.57 3780.64 3335.81 2578.97 1763.56 1388.53 1395.13 1422.24 1425.27 1422.53 1406.11 1390.29 1383.49 1777.83 2579.01 3329.39 3773.41 3772.61 3327.54 2577.39 1776.79 1383.7 1390.47 1421.95 1427.03 1422.87 1404.19 1386.11 1378.83 1790.32 2580.58 3322.87 3765.59 3764.88 3321.2 2579.03 1789.26 1379.06 1386.31 1421.51 1427.81 1422.91 1402.32 1382.38 1374.59 1800.47 2583.52 3318.34 3758.88 3758.25 3316.83 2582 1799.34 1374.85 1382.61 1421.26 1428.35 1422.83 1400.54 1379.03 1370.83 1805.01 2584.37 3314.89 3753.65 3753.08 3313.51 2582.9 1803.87 1371.11 1379.28 1421.14 1428.78 1422.58 1398.77 1376.04 1367.51 1811.58 2588.13 3313.49 3749.64 3749.14 3312.21 2586.68 1810.39 1367.82 1376.31 1421.03 1429.07 1422.25 1397.04 1373.33 1364.55 1817.23 2591.95 3313.2 3746.97 3746.51 3312.01 2590.51 1815.99 1364.87 1373.62 1420.95 1429.28 1421.87 1395.33 1370.72 1361.71 1821.61 2595.27 3313.84 3745.8 3745.38 3312.73 2593.83 1820.31 1362.04 1371.03 1420.85 1429.44 1421.4 1393.54 1367.96 1358.32 1824.85 2597.97 3315.17 3745.99 3745.62 3314.12 2596.5 1823.48 1358.65 1368.28 1420.62 1429.51 1420.44 1391.57 1365.56 1355.93 1826.92 2599.66 3316.59 3746.86 3746.49 3315.6 2598.2 1825.54 1356.28 1365.89 1420.13 1429.07 1419.09 1389.57 1363.8 1355.23 1860.3 2656.84 3389.46 3828.65 3828.3 3388.46 2655.3 1858.82 1355.58 1364.14 1419.53 1428.21 1418.18 1387.87 1361.91 1353.59 1860.01 2655.79 3388.98 3828.38 3827.98 3387.9 2654.17 1858.49 1353.95 1362.27 1419.13 1427.78 1417.63 1386.45 1360.04 1351.39 1860.19 2655.6 3389.77 3829.95 3829.52 3388.64 2653.93 1858.62 1351.75 1360.41 1418.91 1427.69 1417.01 1385.16 1358.64 1350.11 1860 2655.32 3390.91 3832.43 3832.01 3389.81 2653.63 1858.41 1350.49 1359.01 1418.74 1427.49 1416.32 1383.97 1357.53 1349.28 1859.06 2654.65 3392.34 3835.76 3835.36 3391.28 2652.96 1857.42 1349.66 1357.92 1418.6 1427.21 1415.58 1382.87 1356.67 1348.8 1856.97 2653.43 3394.22 3840.11 3839.71 3393.18 2651.76 1855.36 1349.19 1357.07 1418.44 1426.85 1414.83 1381.88 1356.06 1348.68 1853.43 2651.62 3396.75 3845.57 3845.15 3395.69 2649.99 1851.88 1349.08 1356.48 1418.31 1426.44 1414.08 1381.05 1355.77 1348.98 1848.03 2649.29 3400.21 3852.33 3851.86 3399.11 2647.65 1846.49 1349.36 1356.21 1418.27 1426 1413.31 1380.42 1355.89 1349.76 1840.32 2646.74 3405.02 3860.46 3859.92 3403.81 2645.13 1838.91 1350.12 1356.33 1418.33 1425.53 1412.48 1380.04 1356.56 1350.98 1829.92 2644.63 3411.66 3869.92 3869.24 3410.28 2643.08 1828.65 1351.32 1356.99 1418.56 1424.96 1411.28 1379.82 1357.87 1352.33 1816.85 2644.22 3420.57 3880.42 3879.53 3418.93 2642.73 1815.8 1352.64 1358.29 1418.89 1423.99 1408 1378.52 1358.97 1351.87 1802.33 2647.38 3431.93 3891.41 3890.26 3430 2646.01 1801.51 1352.12 1359.35 1417.96 1420.88 1392.66 1366.34 1350.44 1338.13 1790.83 2657.2 3445.7 3902.44 3901.02 3443.45 2655.93 1790.27 1338.29 1350.71 1405.63 1405.55 1312.53 1286.58 1268.29 1247.17 1801.02 2686.66 3470.82 3923.33 3921.6 3468.08 2685.45 1800.69 1247.38 1268.34 1323.36 1324.71 1241.86 1214.29 1192.74 1181.78 1208.69 1217.08 1251.21 1249.93 1241.29 1225.25 1217.17 1208.97 1182.08 1192.81 1249.07 1253.48 1111.21 1082.79 1058.47 1047.46 1053.78 1057.59 1095.31 1092.12 1081.85 1064.39 1057.43 1053.89 1047.57 1058.72 1113.62 1121.69 787.864 775.984 770.052 771.806 789.048 809.631 856.057 866.965 860.415 835.996 810.891 789.325 771.787 768.51 794.441 793.467 613.797 744.351 
</DataArray>
<DataArray type="Float64" Name="cell variable 5" format="ascii">
0.00510588 0.00510588 0.00510588 0.00510588 0.00510588 0.00510588 0.00510588 0.00510588 0.00510588 0.00510588 0.00510588 0.00510588 0.00510588 0.00510588 0.00510588 0.00510588 0.00510588 0.00510588 0.00510588 0.00510588 0.00510588 0.00510588 0.00510588 0.00510588 0.00510588 0.00510588 0.00510588 0.00510588 0.00510588 0.00510588 0.00510588 0.00510588 0.00510588 0.00510588 0.00510588 0.00510588 0.00510588 0.00510588 0.00510588 0.00510588 0.00510588 0.00510588 0.00510588 0.00510588 0.00510588 0.00510588 0.00510588 0.00510588 0.00771669 0.00714369 0.00621896 0.00533735 0.00510588 0.00510588 0.00510588 0.00510588 0.00510588 0.00510588 0.00510588 0.00510588 0.00533735 0.00621896 0.00714369 0.00771669 0.00873106 0.00793567 0.00665126 0.00542698 0.00510588 0.00510588 0.00510588 0.00510588 0.00510588 0.00510588 0.00510588 0.00510588 0.00542698 0.00665126 0.00793567 0.00873106 0.0093188 0.0083952 0.00690202 0.00547918 0.00510588 0.00510588 0.00510588 0.00510588 0.00510588 0.00510588 0.00510588 0.00510588 0.00547918 0.00690202 0.0083952 0.0093188 0.00974656 0.00872765 0.00708469 0.00551775 0.00510588 0.00510588 0.00510588 0.00510588 0.00510588 0.00510588 0.00510588 0.00510588 0.00551775 0.00708469 0.00872765 0.00974656 0.0100801 0.00898862 0.00722652 0.00554726 0.00510588 0.00510588 0.00510588 0.00510588 0.00510588 0.00510588 0.00510588 0.00510588 0.00554726 0.00722652 0.00898862 0.0100801 0.0103491 0.00919853 0.00734112 0.00557108 0.00510588 0.00510588 0.00510588 0.00510588 0.00510588 0.00510588 0.00510588 0.00510588 0.00557108 0.00734112 0.00919853 0.0103491 0.0105692 0.00936986 0.0074353 0.00559037 0.00510588 0.00510588 0.00510588 0.00510588 0.00510588 0.00510588 0.00510588 0.00510588 0.00559037 0.0074353 0.00936986 0.0105692 0.0107473 0.00950942 0.00751132 0.00560626 0.00510588 0.00510588 0.00510588 0.00510588 0.00510588 0.00510588 0.00510588 0.00510588 0.00560626 0.00751132 0.00950942 0.0107473 0.0108903 0.00962175 0.00757259 0.00561874 0.00510588 0.00510588 0.00510588 0.00510588 0.00510588 0.00510588 0.00510588 0.00510588 0.00561874 0.00757259 0.00962175 0.0108903 0.0110015 0.00970798 0.00761911 0.00562895 0.00510588 0.00510588 0.00510588 0.00510588 0.00510588 0.00510588 0.00510588 0.00510588 0.00562895 0.00761911 0.00970798 0.0110015 0.0110832 0.00977152 0.00765428 0.00563576 0.00510588 0.00510588 0.00510588 0.00510588 0.00510588 0.00510588 0.00510588 0.00510588 0.00563576 0.00765428 0.00977152 0.0110832 0.0111376 0.0098135 0.00767697 0.00564143 0.00510588 0.00510588 0.00510588 0.00510588 0.00510588 0.00510588 0.00510588 0.00510588 0.00564143 0.00767697 0.0098135 0.0111376 0.0111637 0.00983506 0.00768832 0.0056437 0.00510588 0.00510588 0.00510588 0.00510588 0.00510588 0.00510588 0.00510588 0.00510588 0.0056437 0.00768832 0.00983506 0.0111637 0.0111637 0.00983506 0.00768832 0.0056437 0.00510588 0.00510588 0.00510588 0.00510588 0.00510588 0.00510588 0.00510588 0.00510588 0.0056437 0.00768832 0.00983506 0.0111637 0.0111376 0.0098135 0.00767697 0.00564143 0.00510588 0.00510588 0.00510588 0.00510588 0.00510588 0.00510588 0.00510588 0.00510588 0.00564143 0.00767697 0.0098135 0.0111376 0.0110832 0.00977152 0.00765428 0.00563576 0.00510588 0.00510588 0.00510588 0.00510588 0.00510588 0.00510588 0.00510588 0.00510588 0.00563576 0.00765428 0.00977152 0.0110832 0.0110015 0.00970798 0.00761911 0.00562895 0.00510588 0.00510588 0.00510588 0.00510588 0.00510588 0.00510588 0.00510588 0.00510588 0.00562895 0.00761911 0.00970798 0.0110015 0.0108903 0.00962175 0.00757259 0.00561874 0.00510588 0.00510588 0.00510588 0.00510588 0.00510588 0.00510588 0.00510588 0.00510588 0.00561874 0.00757259 0.00962175 0.0108903 0.0107473 0.00950942 0.00751132 0.00560626 0.00510588 0.00510588 0.00510588 0.00510588 0.00510588 0.00510588 0.00510588 0.00510588 0.00560626 0.00751132 0.00950942 0.0107473 0.0105692 0.00936986 0.0074353 0.00559037 0.00510588 0.00510588 0.00510588 0.00510588 0.00510588 0.00510588 0.00510588 0.00510588 0.00559037 0.0074353 0.00936986 0.0105692 0.0103491 0.00919853 0.00734112 0.00557108 0.00510588 0.00510588 0.00510588 0.00510588 0.00510588 0.00510588 0.00510588 0.00510588 0.00557108 0.00734112 0.00919853 0.0103491 0.0100801 0.00898862 0.00722652 0.00554726 0.00510588 0.00510588 0.00510588 0.00510588 0.00510588 0.00510588 0.00510588 0.00510588 0.00554726 0.00722652 0.00898862 0.0100801 0.00974656 0.00872765 0.00708469 0.00551775 0.00510588 0.00510588 0.00510588 0.00510588 0.00510588 0.00510588 0.00510588 0.00510588 0.00551775 0.00708469 0.00872765 0.00974656 0.0093188 0.0083952 0.00690202 0.00547918 0.00510588 0.00510588 0.00510588 0.00510588 0.00510588 0.00510588 0.00510588 0.00510588 0.00547918 0.00690202 0.0083952 0.0093188 0.00873106 0.00793567 0.00665126 0.00542698 0.00510588 0.00510588 0.00510588 0.00510588 0.00510588 0.00510588 0.00510588 0.00510588 0.00542698 0.00665126 0.00793567 0.00873106 0.00771669 0.00714369 0.00621896 0.00533735 0.00510588 0.00510588 0.00510588 0.00510588 0.00510588 0.00510588 0.00510588 0.00510588 0.00533735 0.00621896 0.00714369 0.00771669 0.00510588 0.00510588 0.00510588 0.00510588 0.00510588 0.00510588 0.00510588 0.00510588 0.00510588 0.00510588 0.00510588 0.00510588 0.00510588 0.00510588 0.00510588 0.00510588 0.00510588 0.00510588 0.00510588 0.00510588 0.00510588 0.00510588 0.00510588 0.00510588 0.00510588 0.00510588 0.00510588 0.00510588 0.00510588 0.00510588 0.00510588 0.00510588 0.00510588 0.00510588 0.00510588 0.00510588 0.00510588 0.00510588 0.00510588 0.00510588 0.00510588 0.00510588 0.00510588 0.00510588 0.00510588 0.00510588 0.00510588 0.00510588 0.00510588 0.00510588 
</DataArray>
<DataArray type="Float64" Name="cell variable 6" format="ascii">
1 1 1 1 1 1 1 1 1 1 1 1 1 1 1 1 1 1 1 1 1 1 1 1 1 1 1 1 1 1 1 1 1 1 1 1 1 1 1 1 1 1 1 1 1 1 1 1 1 1 1 1 1 1 1 1 1 1 1 1 1 1 1 1 1 1 1 1 1 1 1 1 1 1 1 1 1 1 1 1 1 1 1 1 1 1 1 1 1 1 1 1 1 1 1 1 1 1 1 1 1 1 1 1 1 1 1 1 1 1 1 1 1 1 1 1 1 1 1 1 1 1 1 1 1 1 1 1 1 1 1 1 1 1 1 1 1 1 1 1 1 1 1 1 1 1 1 1 1 1 1 1 1 1 1 1 1 1 1 1 1 1 1 1 1 1 1 1 1 1 1 1 1 1 1 1 1 1 1 1 1 1 1 1 1 1 1 1 1 1 1 1 1 1 1 1 1 1 1 1 1 1 1 1 1 1 1 1 1 1 1 1 1 1 1 1 1 1 1 1 1 1 1 1 1 1 1 1 1 1 1 1 1 1 1 1 1 1 1 1 1 1 1 1 1 1 1 1 1 1 1 1 1 1 1 1 1 1 1 1 1 1 1 1 1 1 1 1 1 1 1 1 1 1 1 1 1 1 1 1 1 1 1 1 1 1 1 1 1 1 1 1 1 1 1 1 1 1 1 1 1 1 1 1 1 1 1 1 1 1 1 1 1 1 1 1 1 1 1 1 1 1 1 1 1 1 1 1 1 1 1 1 1 1 1 1 1 1 1 1 1 1 1 1 1 1 1 1 1 1 1 1 1 1 1 1 1 1 1 1 1 1 1 1 1 1 1 1 1 1 1 1 1 1 1 1 1 1 1 1 1 1 1 1 1 1 1 1 1 1 1 1 1 1 1 1 1 1 1 1 1 1 1 1 1 1 1 1 1 1 1 1 1 1 1 1 1 1 1 1 1 1 1 1 1 1 1 1 1 1 1 1 1 1 1 1 1 1 1 1 1 1 1 1 1 1 1 1 1 1 1 1 1 1 1 1 1 1 1 1 1 1 1 1 1 1 1 1 1 1 1 1 1 1 1 1 1 1 1 1 1 1 1 1 1 1 1 1 1 1 1 1 1 1 1 1 1 1 1 1 1 1 1 1 1 1 1 1 1 1 1 1 1 1 
</DataArray>
<DataArray type="Float64" Name="cell variable 7" format="ascii">
0 0 0 0 0 0 0 0 0 0 0 0 0 0 0 0 0 0 0 0 0 0 0 0 0 0 0 0 0 0 0 0 0 0 0 0 0 0 0 0 0 0 0 0 0 0 0 0 0 0 0 0 0 0 0 0 0 0 0 0 0 0 0 0 0 0 0 0 0 0 0 0 0 0 0 0 0 0 0 0 0 0 0 0 0 0 0 0 0 0 0 0 0 0 0 0 0 0 0 0 0 0 0 0 0 0 0 0 0 0 0 0 0 0 0 0 0 0 0 0 0 0 0 0 0 0 0 0 0 0 0 0 0 0 0 0 0 0 0 0 0 0 0 0 0 0 0 0 0 0 0 0 0 0 0 0 0 0 0 0 0 0 0 0 0 0 0 0 0 0 0 0 0 0 0 0 0 0 0 0 0 0 0 0 0 0 0 0 0 0 0 0 0 0 0 0 0 0 0 0 0 0 0 0 0 0 0 0 0 0 0 0 0 0 0 0 0 0 0 0 0 0 0 0 0 0 0 0 0 0 0 0 0 0 0 0 0 0 0 0 0 0 0 0 0 0 0 0 0 0 0 0 0 0 0 0 0 0 0 0 0 0 0 0 0 0 0 0 0 0 0 0 0 0 0 0 0 0 0 0 0 0 0 0 0 0 0 0 0 0 0 0 0 0 0 0 0 0 0 0 0 0 0 0 0 0 0 0 0 0 0 0 0 0 0 0 0 0 0 0 0 0 0 0 0 0 0 0 0 0 0 0 0 0 0 0 0 0 0 0 0 0 0 0 0 0 0 0 0 0 0 0 0 0 0 0 0 0 0 0 0 0 0 0 0 0 0 0 0 0 0 0 0 0 0 0 0 0 0 0 0 0 0 0 0 0 0 0 0 0 0 0 0 0 0 0 0 0 0 0 0 0 0 0 0 0 0 0 0 0 0 0 0 0 0 0 0 0 0 0 0 0 0 0 0 0 0 0 0 0 0 0 0 0 0 0 0 0 0 0 0 0 0 0 0 0 0 0 0 0 0 0 0 0 0 0 0 0 0 0 0 0 0 0 0 0 0 0 0 0 0 0 0 0 0 0 0 0 0 0 0 0 0 0 0 0 0 0 0 0 0 0 0 0 0 0 0 0 0 0 0 0 0 0 0 0 0 0 0 0 0 0 1 1 
</DataArray>
<DataArray type="Float64" Name="cell variable 8" format="ascii">
11.25 33.75 56.25 78.75 101.25 123.75 146.25 168.75 191.25 213.75 236.25 258.75 281.25 303.75 326.25 348.75 11.25 33.75 56.25 78.75 101.25 123.75 146.25 168.75 191.25 213.75 236.25 258.75 281.25 303.75 326.25 348.75 11.25 33.75 56.25 78.75 101.25 123.75 146.25 168.75 191.25 213.75 236.25 258.75 281.25 303.75 326.25 348.75 11.25 33.75 56.25 78.75 101.25 123.75 146.25 168.75 191.25 213.75 236.25 258.75 281.25 303.75 326.25 348.75 11.25 33.75 56.25 78.75 101.25 123.75 146.25 168.75 191.25 213.75 236.25 258.75 281.25 303.75 326.25 348.75 11.25 33.75 56.25 78.75 101.25 123.75 146.25 168.75 191.25 213.75 236.25 258.75 281.25 303.75 326.25 348.75 11.25 33.75 56.25 78.75 101.25 123.75 146.25 168.75 191.25 213.75 236.25 258.75 281.25 303.75 326.25 348.75 11.25 33.75 56.25 78.75 101.25 123.75 146.25 168.75 191.25 213.75 236.25 258.75 281.25 303.75 326.25 348.75 11.25 33.75 56.25 78.75 101.25 123.75 146.25 168.75 191.25 213.75 236.25 258.75 281.25 303.75 326.25 348.75 11.25 33.75 56.25 78.75 101.25 123.75 146.25 168.75 191.25 213.75 236.25 258.75 281.25 303.75 326.25 348.75 11.25 33.75 56.25 78.75 101.25 123.75 146.25 168.75 191.25 213.75 236.25 258.75 281.25 303.75 326.25 348.75 11.25 33.75 56.25 78.75 101.25 123.75 146.25 168.75 191.25 213.75 236.25 258.75 281.25 303.75 326.25 348.75 11.25 33.75 56.25 78.75 101.25 123.75 146.25 168.75 191.25 213.75 236.25 258.75 281.25 303.75 326.25 348.75 11.25 33.75 56.25 78.75 101.25 123.75 146.25 168.75 191.25 213.75 236.25 258.75 281.25 303.75 326.25 348.75 11.25 33.75 56.25 78.75 101.25 123.75 146.25 168.75 191.25 213.75 236.25 258.75 281.25 303.75 326.25 348.75 11.25 33.75 56.25 78.75 101.25 123.75 146.25 168.75 191.25 213.75 236.25 258.75 281.25 303.75 326.25 348.75 11.25 33.75 56.25 78.75 101.25 123.75 146.25 168.75 191.25 213.75 236.25 258.75 281.25 303.75 326.25 348.75 11.25 33.75 56.25 78.75 101.25 123.75 146.25 168.75 191.25 213.75 236.25 258.75 281.25 303.75 326.25 348.75 11.25 33.75 56.25 78.75 101.25 123.75 146.25 168.75 191.25 213.75 236.25 258.75 281.25 303.75 326.25 348.75 11.25 33.75 56.25 78.75 101.25 123.75 146.25 168.75 191.25 213.75 236.25 258.75 281.25 303.75 326.25 348.75 11.25 33.75 56.25 78.75 101.25 123.75 146.25 168.75 191.25 213.75 236.25 258.75 281.25 303.75 326.25 348.75 11.25 33.75 56.25 78.75 101.25 123.75 146.25 168.75 191.25 213.75 236.25 258.75 281.25 303.75 326.25 348.75 11.25 33.75 56.25 78.75 101.25 123.75 146.25 168.75 191.25 213.75 236.25 258.75 281.25 303.75 326.25 348.75 11.25 33.75 56.25 78.75 101.25 123.75 146.25 168.75 191.25 213.75 236.25 258.75 281.25 303.75 326.25 348.75 11.25 33.75 56.25 78.75 101.25 123.75 146.25 168.75 191.25 213.75 236.25 258.75 281.25 303.75 326.25 348.75 11.25 33.75 56.25 78.75 101.25 123.75 146.25 168.75 191.25 213.75 236.25 258.75 281.25 303.75 326.25 348.75 11.25 33.75 56.25 78.75 101.25 123.75 146.25 168.75 191.25 213.75 236.25 258.75 281.25 303.75 326.25 348.75 11.25 33.75 56.25 78.75 101.25 123.75 146.25 168.75 191.25 213.75 236.25 258.75 281.25 303.75 326.25 348.75 11.25 33.75 56.25 78.75 101.25 123.75 146.25 168.75 191.25 213.75 236.25 258.75 281.25 303.75 326.25 348.75 11.25 33.75 56.25 78.75 101.25 123.75 146.25 168.75 191.25 213.75 236.25 258.75 281.25 303.75 326.25 348.75 11.25 33.75 56.25 78.75 101.25 123.75 146.25 168.75 191.25 213.75 236.25 258.75 281.25 303.75 326.25 348.75 11.25 33.75 56.25 78.75 101.25 123.75 146.25 168.75 191.25 213.75 236.25 258.75 281.25 303.75 326.25 348.75 0 0 
</DataArray>
</CellData>
</Piece>
</UnstructuredGrid>
</VTKFile>
