<VTKFile type="UnstructuredGrid" version="0.1">
<UnstructuredGrid>
<Piece  NumberOfPoints="    2080" NumberOfCells="     514">
<Points>
<DataArray type="Float64" NumberOfComponents="3" format="ascii">
-362.449 686.614 1.21602
-361.796 691.731 26.9799
-333.582 683.548 29.0867
-334.334 678.002 1.23866
-361.646 692.87 29.7302
-359.771 707.41 51.5111
-331.335 700.441 55.3747
-333.432 684.687 31.837
-359.505 709.51 53.6094
-356.85 731.211 68.0965
-328.121 726.044 73.1557
-331.069 702.541 57.473
-356.531 733.948 69.2317
-353.724 759.512 74.3055
-324.773 756.498 79.8998
-327.802 728.781 74.2909
-353.422 762.476 74.3091
-350.958 788.09 69.239
-321.894 787.259 74.411
-324.471 759.463 79.9035
-350.708 790.836 68.1038
-348.788 812.621 53.5919
-319.606 813.579 57.5087
-321.644 790.005 73.2758
-348.604 814.726 51.4873
-347.328 829.302 29.6851
-318.031 831.436 31.7951
-319.422 815.684 55.4041
-347.227 830.441 26.9323
-346.761 835.553 1.17879
-317.419 838.105 1.18484
-317.93 832.575 29.0423
-346.76 835.553 -1.80164
-347.204 830.425 -27.5528
-317.901 832.564 -29.6503
-317.417 838.104 -1.79559
-347.303 829.285 -30.305
-348.569 814.698 -52.1021
-319.379 815.66 -56.0026
-318 831.424 -32.4025
-348.752 812.593 -54.2057
-350.666 790.8 -68.7088
-321.599 789.973 -73.861
-319.562 813.555 -58.1062
-350.915 788.053 -69.8428
-353.375 762.436 -74.9005
-324.42 759.427 -80.4759
-321.848 787.226 -74.995
-353.676 759.472 -74.8955
-356.484 733.91 -69.8095
-327.749 728.749 -74.8494
-324.722 756.463 -80.4709
-356.803 731.174 -68.6729
-359.447 709.482 -54.1703
-331.03 702.522 -58.0138
-328.068 726.013 -73.7129
-359.715 707.384 -52.0702
-361.594 692.859 -30.2817
-333.418 684.678 -32.3514
-331.298 700.424 -55.9137
-361.746 691.721 -27.5295
-362.447 686.614 -1.76559
-334.333 678.001 -1.74295
-333.57 683.54 -29.5992
-330.998 677.278 1.31471
-330.246 682.825 29.1627
-297.97 678.11 29.8003
-298.777 672.484 1.32262
-327.984 699.773 55.5897
-295.539 695.305 56.7988
-297.805 679.304 32.6896
-330.081 684.019 32.052
-324.745 725.478 73.4778
-292.065 721.452 75.0732
-295.247 697.507 59.0042
-327.693 701.974 57.7951
-321.377 756.067 80.2824
-288.661 752.628 82.0012
-291.726 724.324 76.2688
-324.406 728.35 74.6734
-318.489 786.978 74.7948
-285.859 784.131 76.3157
-288.351 755.744 82.0061
-321.067 759.182 80.2872
-316.198 813.437 57.8312
-283.604 811.09 58.9862
-285.605 787.017 75.1191
-318.236 789.864 73.5982
-314.617 831.399 32.0093
-282 829.403 32.6424
-283.414 813.3 56.7734
-316.008 815.647 55.6183
-313.999 838.125 1.26048
-281.365 836.253 1.27081
-281.893 830.599 29.751
-314.51 832.595 29.1179
-314.481 832.584 -29.7239
-281.868 830.584 -30.3344
-281.364 836.253 -1.85891
-313.997 838.124 -1.86923
-315.965 815.623 -56.2147
-283.374 813.275 -57.344
-281.973 829.387 -33.2251
-314.586 831.387 -32.6146
-318.191 789.831 -74.1811
-285.559 786.984 -75.6781
-283.563 811.065 -59.5556
-316.154 813.413 -58.4263
-321.015 759.147 -80.8572
-288.3 755.707 -82.55
-285.812 784.098 -76.8733
-318.444 786.945 -75.3763
-324.353 728.317 -75.2294
-291.675 724.29 -76.7971
-288.61 752.592 -82.5437
-321.325 756.031 -80.8509
-327.655 701.955 -58.3332
-295.209 697.482 -59.5192
-292.014 721.419 -75.5999
-324.693 725.446 -74.0322
-330.068 684.009 -32.5635
-297.79 679.287 -33.1838
-295.502 695.282 -57.3118
-327.948 699.755 -56.1258
-330.235 682.816 -29.6726
-330.998 677.278 -1.81637
-298.776 672.483 -1.80846
-297.956 678.095 -30.2929
-295.191 672.017 1.34497
-294.384 677.644 29.8227
-261.916 673.984 29.9645
-262.794 668.361 1.35511
-294.204 678.847 32.7534
-291.938 694.848 56.8626
-259.24 691.187 57.1471
-261.737 675.186 32.8952
-291.618 697.071 59.1025
-288.436 721.017 75.1714
-255.368 717.388 75.5881
-258.92 693.409 59.387
-288.084 723.919 76.3829
-285.019 752.223 82.1153
-252.107 748.755 82.5191
-255.016 720.29 76.7995
-284.719 755.382 82.1195
-282.226 783.77 76.4291
-249.5 780.508 76.8775
-251.807 751.914 82.5233
-281.984 786.697 75.216
-279.983 810.77 59.083
-247.337 807.688 59.4539
-249.257 783.434 75.6644
-279.795 813.011 56.8386
-278.381 829.114 32.7076
-245.719 826.122 32.9116
-247.149 809.928 57.2095
-278.272 830.326 29.7747
-277.744 835.981 1.2945
-245.066 833.013 1.30799
-245.611 827.334 29.9787
-277.743 835.98 -1.87994
-278.248 830.311 -30.3555
-245.59 827.319 -30.5337
-245.065 833.012 -1.86644
-278.355 829.098 -33.2876
-279.755 812.986 -57.4065
-247.113 809.902 -57.7542
-245.697 826.106 -33.4659
-279.942 810.745 -59.6498
-281.938 786.664 -75.7723
-249.213 783.4 -76.1976
-247.3 807.661 -59.9975
-282.18 783.736 -76.9841
-284.668 755.345 -82.6607
-251.757 751.876 -83.0416
-249.455 780.472 -77.4094
-284.968 752.186 -82.655
-288.032 723.884 -76.9084
-254.966 720.254 -77.3032
-252.057 748.717 -83.0359
-288.385 720.983 -75.6956
-291.579 697.046 -59.6149
-258.879 693.381 -59.8798
-255.319 717.353 -76.0904
-291.901 694.824 -57.3734
-294.189 678.83 -33.2453
-261.718 675.165 -33.3675
-259.201 691.159 -57.6382
-294.37 677.628 -30.3132
-295.19 672.016 -1.8288
-262.793 668.36 -1.81866
-261.899 673.964 -30.4354
-259.211 667.928 1.36273
-258.334 673.551 29.9721
-226.177 669.408 30.0364
-227.228 663.81 1.37214
-258.127 674.753 32.9153
-255.63 690.753 57.1672
-222.98 686.542 57.2946
-225.97 670.61 32.9796
-255.258 692.975 59.4185
-251.707 716.954 75.6196
-218.288 712.657 75.8212
-222.608 688.763 59.5459
-251.28 719.874 76.8365
-248.371 748.338 82.5561
-213.336 743.919 82.7062
-217.862 715.577 77.0381
-247.99 751.503 82.5519
-245.683 780.096 76.9062
-208.994 775.607 77.0972
-212.955 747.084 82.7021
-245.366 783.022 75.6876
-243.446 807.275 59.4772
-205.43 802.741 59.6502
-208.677 778.533 75.8787
-243.2 809.512 57.2247
-241.771 825.706 32.9268
-202.919 821.112 33.0241
-205.185 804.977 57.3977
-241.631 826.914 29.9847
-241.086 832.592 1.31399
-201.951 827.969 1.3282
-202.779 822.32 30.082
-241.085 832.591 -1.86945
-241.611 826.899 -30.5367
-202.762 822.307 -30.607
-201.95 827.969 -1.85523
-241.749 825.69 -33.4783
-243.165 809.486 -57.7666
-205.153 804.952 -57.9156
-202.9 821.098 -33.5485
-243.409 807.248 -60.0181
-245.322 782.987 -76.2182
-208.635 778.498 -76.3857
-205.397 802.714 -60.1671
-245.638 780.061 -77.4355
-247.941 751.464 -83.0678
-212.907 747.045 -83.196
-208.951 775.572 -77.603
-248.321 748.3 -83.0705
-251.23 719.837 -77.3378
-217.812 715.54 -77.5195
-213.287 743.881 -83.1988
-251.657 716.918 -76.1197
-255.217 692.946 -59.9091
-222.566 688.734 -60.018
-218.239 712.621 -76.3014
-255.591 690.726 -57.6562
-258.108 674.732 -33.3855
-225.947 670.586 -33.4312
-222.939 686.513 -57.7651
-258.317 673.531 -30.4409
-259.21 667.927 -1.82414
-227.227 663.809 -1.81473
-226.156 669.386 -30.4866
-223.686 663.273 1.3757
-222.635 668.871 30.04
-190.845 663.305 30.0672
-192.1 657.765 1.38597
-222.388 670.065 32.9885
-219.398 685.997 57.3034
-187.015 680.28 57.3587
-190.598 664.499 33.0157
-218.947 688.206 59.5597
-214.628 712.1 75.8349
-181.29 706.187 75.8939
-186.564 682.488 59.6149
-214.069 714.997 77.0507
-209.543 743.339 82.7189
-174.765 737.148 82.7779
-180.731 709.084 77.1097
-208.987 746.485 82.714
-205.025 775.008 77.1092
-168.647 768.564 77.1356
-174.208 740.294 82.7731
-204.545 777.919 75.8901
-201.298 802.127 59.6616
-163.601 795.485 59.6856
-168.167 771.475 75.9165
-200.933 804.352 57.4063
-198.667 820.487 33.0328
-160.13 813.719 33.0546
-163.236 797.709 57.4303
-198.465 821.687 30.086
-197.636 827.336 1.33221
-158.813 820.525 1.34533
-159.928 814.919 30.1079
-197.636 827.336 -1.85626
-198.448 821.674 -30.608
-159.913 814.907 -30.6039
-158.812 820.524 -1.84315
-198.648 820.472 -33.5543
-200.902 804.326 -57.9214
-163.207 797.685 -57.9204
-160.113 813.705 -33.5502
-201.265 802.1 -60.1758
-204.503 777.884 -76.3945
-168.126 771.442 -76.3973
-163.571 795.459 -60.1748
-204.982 774.973 -77.6124
-208.938 746.447 -83.2054
-174.16 740.258 -83.2428
-168.606 768.531 -77.6153
-209.494 743.301 -83.2091
-214.019 714.96 -77.5298
-180.682 709.046 -77.5682
-174.716 737.112 -83.2465
-214.579 712.064 -76.313
-218.905 688.176 -60.0296
-186.521 682.457 -60.0651
-181.242 706.15 -76.3514
-219.357 685.968 -57.7718
-222.365 670.041 -33.4379
-190.572 664.473 -33.4448
-186.972 680.249 -57.8073
-222.614 668.849 -30.488
-223.685 663.272 -1.8161
-192.098 657.764 -1.80582
-190.822 663.281 -30.4948
-188.603 657.063 1.38813
-187.349 662.602 30.0694
-155.987 655.461 30.0858
-157.469 649.993 1.39938
-187.054 663.784 33.0202
-183.471 679.565 57.3631
-151.447 672.232 57.3939
-155.693 656.642 33.0366
-182.93 681.752 59.6207
-177.656 705.451 75.8997
-144.572 697.847 75.9328
-150.905 674.419 59.6515
-176.962 708.315 77.1148
-170.996 736.379 82.783
-136.531 728.423 82.8182
-143.878 700.711 77.1479
-170.274 739.491 82.7769
-164.713 767.761 77.1394
-128.721 759.465 77.1526
-135.809 731.534 82.8121
-164.073 770.643 75.9185
-159.507 794.652 59.6876
-122.216 786.073 59.696
-128.082 762.347 75.9317
-159.024 796.855 57.432
-155.917 812.865 33.0563
-117.786 804.106 33.0681
-121.732 788.276 57.4405
-155.653 814.054 30.1095
-154.538 819.659 1.34694
-116.12 810.839 1.36
-117.522 805.295 30.1212
-154.537 819.658 -1.84187
-155.637 814.041 -30.6026
-117.508 805.284 -30.5885
-116.119 810.838 -1.82881
-155.901 812.851 -33.5491
-158.995 796.831 -57.9193
-121.705 788.254 -57.9027
-117.771 804.093 -33.535
-159.477 794.627 -60.1741
-164.033 770.61 -76.3966
-128.044 762.316 -76.3858
-122.188 786.05 -60.1575
-164.672 767.728 -77.6165
-170.226 739.455 -83.2441
-135.764 731.5 -83.2565
-128.682 759.433 -77.6057
-170.948 736.343 -83.2492
-176.914 708.277 -77.5709
-143.833 700.674 -77.5823
-136.486 728.388 -83.2616
-177.607 705.413 -76.3549
-182.886 681.72 -60.0686
-150.861 674.386 -60.0786
-144.526 697.809 -76.3663
-183.429 679.533 -57.8095
-187.028 663.758 -33.447
-155.665 656.615 -33.4414
-151.404 672.2 -57.8195
-187.325 662.578 -30.4946
-188.602 657.062 -1.8056
-157.467 649.992 -1.79435
-155.962 655.435 -30.4891
-154.024 649.115 1.40113
-152.543 654.584 30.0876
-121.668 645.852 30.1018
-123.392 640.466 1.4131
-152.197 655.749 33.0395
-147.951 671.339 57.3968
-116.372 662.376 57.4194
-121.322 647.018 33.0538
-147.311 673.497 59.655
-140.978 696.925 75.9364
-108.302 687.625 75.9632
-115.732 664.535 59.6776
-140.148 699.751 77.1513
-132.8 727.462 82.8217
-98.7561 717.759 82.8515
-107.472 690.45 77.1782
-131.919 730.532 82.8148
-124.831 758.462 77.1553
-89.3099 748.341 77.1731
-97.8749 720.829 82.8447
-124.037 761.306 75.9332
-118.17 785.032 59.6975
-81.376 774.557 59.7085
-88.5154 751.185 75.9509
-117.569 787.206 57.4416
-113.624 803.036 33.0692
-75.9978 792.331 33.0807
-80.7745 776.731 57.4526
-113.297 804.21 30.1226
-111.895 809.754 1.36133
-73.9839 798.969 1.37432
-75.671 793.505 30.134
-111.895 809.753 -1.82727
-113.284 804.199 -30.5869
-75.6591 793.494 -30.5726
-73.9832 798.969 -1.81428
-113.609 803.024 -33.5333
-117.543 787.184 -57.9009
-80.7502 776.709 -57.8864
-75.9845 792.319 -33.5189
-118.143 785.009 -60.1562
-123.999 761.275 -76.3845
-88.4799 751.154 -76.3773
-81.3505 774.535 -60.1416
-124.792 758.431 -77.6058
-131.874 730.497 -83.2566
-97.8328 720.794 -83.2622
-89.2736 748.31 -77.5985
-132.755 727.428 -83.2625
-140.102 699.713 -77.5832
-107.427 690.415 -77.5874
-98.7136 717.724 -83.2682
-140.932 696.888 -76.3674
-147.267 673.465 -60.0797
-115.687 664.503 -60.0807
-108.257 687.589 -76.3716
-147.908 671.307 -57.82
-152.169 655.722 -33.4419
-121.294 646.989 -33.4328
-116.328 662.345 -57.821
-152.517 654.558 -30.4882
-154.023 649.114 -1.79354
-123.391 640.465 -1.78157
-121.642 645.825 -30.4792
-120.006 639.414 1.41469
-118.282 644.799 30.1034
-87.9544 634.499 30.1159
-89.9309 629.207 1.42677
-117.882 645.947 33.056
-112.932 661.305 57.4216
-81.8776 650.736 57.4383
-87.5548 635.646 33.0685
-112.191 663.43 59.6803
-104.761 686.519 75.9659
-72.5931 675.55 75.9865
-81.1364 652.861 59.6969
-103.793 689.3 77.1809
-95.0772 716.609 82.8543
-61.5525 705.162 82.8751
-71.6258 678.331 77.2016
-94.0394 719.628 82.847
-85.4744 747.141 77.1754
-50.515 735.206 77.1896
-60.5147 708.182 82.8678
-84.5293 749.938 75.9525
-77.3899 773.31 59.71
-41.1891 760.958 59.7201
-49.57 738.003 75.9667
-76.6731 775.449 57.4538
-71.8963 791.048 33.0819
-34.8767 778.422 33.0928
-40.4722 763.096 57.4639
-71.5082 792.204 30.1353
-69.8211 797.668 1.37563
-32.5183 784.947 1.38822
-34.4886 779.577 30.1463
-69.8205 797.668 -1.81276
-71.4963 792.193 -30.571
-34.4778 779.567 -30.557
-32.5177 784.946 -1.80017
-71.8832 791.036 -33.5173
-76.6489 775.427 -57.8848
-40.4499 763.076 -57.8704
-34.8647 778.41 -33.5032
-77.3646 773.288 -60.1404
-84.4941 749.907 -76.3761
-49.5369 737.973 -76.3665
-41.1656 760.936 -60.1261
-85.4383 747.11 -77.5982
-93.9975 719.593 -83.2619
-60.4748 708.148 -83.2598
-50.4811 735.176 -77.5887
-95.0348 716.574 -83.2684
-103.749 689.264 -77.5876
-71.5822 678.296 -77.5862
-61.5121 705.128 -83.2662
-104.716 686.484 -76.3719
-112.146 663.398 -60.081
-81.092 652.828 -60.0764
-72.5494 675.516 -76.3704
-112.888 661.274 -57.8207
-117.854 645.918 -33.4325
-87.5271 635.616 -33.4217
-81.834 650.705 -57.8162
-118.256 644.773 -30.4781
-120.005 639.413 -1.78051
-89.9295 629.206 -1.76842
-87.929 634.47 -30.4673
-86.6094 627.983 1.42824
-84.6329 633.274 30.1173
-54.9193 621.43 30.1292
-57.1521 616.246 1.44022
-84.1783 634.399 33.0702
-78.501 649.49 57.44
-48.0524 637.338 57.454
-54.4646 622.555 33.0821
-77.6569 651.574 59.699
-69.1136 674.264 75.9886
-37.5482 661.649 76.005
-47.2082 639.422 59.713
-68.0092 676.992 77.2036
-57.9359 703.824 82.8772
-25.0268 690.659 82.8926
-36.4437 664.377 77.22
-56.7445 706.785 82.8696
-46.7448 733.809 77.1914
-12.4403 720.085 77.2029
-23.8355 693.62 82.885
-45.6534 736.552 75.968
-37.2724 759.507 59.7215
-1.76084 745.304 59.7309
-11.3488 722.828 75.9796
-36.4429 761.605 57.4651
-30.8473 776.93 33.094
5.46631 762.411 33.1045
-0.931301 747.402 57.4745
-30.3989 778.063 30.1475
-28.4286 783.433 1.38949
8.16407 768.804 1.40169
5.9148 763.544 30.158
-28.428 783.432 -1.79869
-30.3882 778.053 -30.5555
5.92462 763.534 -30.5417
8.16461 768.804 -1.78649
-30.8356 776.919 -33.5017
-36.4207 761.584 -57.8689
-0.910639 747.382 -57.8544
5.47724 762.4 -33.4879
-37.2492 759.485 -60.1247
-45.6205 736.522 -76.3652
-11.3181 722.799 -76.3535
-1.7391 745.283 -60.1103
-46.7111 733.779 -77.5879
-56.7048 706.751 -83.259
-23.7982 693.587 -83.252
-12.4087 720.055 -77.5761
-57.8957 703.789 -83.2658
-67.9658 676.957 -77.5858
-36.4023 664.343 -77.5805
-24.9891 690.625 -83.2589
-69.07 674.229 -76.3701
-77.6127 651.542 -60.0761
-47.1653 639.389 -60.0692
-37.5066 661.615 -76.3648
-78.4576 649.458 -57.8155
-84.1507 634.369 -33.4211
-54.4383 622.523 -33.41
-48.0102 637.305 -57.8086
-84.6075 633.245 -30.4662
-86.608 627.981 -1.76726
-57.1508 616.244 -1.75527
-54.8951 621.399 -30.4551
-53.9028 614.852 1.4416
-51.6699 620.036 30.1306
-22.6395 606.677 30.1418
-25.1292 601.615 1.45323
-51.16 621.137 33.0837
-44.7477 635.919 57.4556
-14.9838 622.211 57.4678
-22.1295 607.778 33.0948
-43.8006 637.958 59.7147
-34.1405 660.185 76.0067
-3.26716 645.954 76.02
-14.0366 624.25 59.7269
-32.9 662.853 77.2216
-21.4831 689.134 82.8942
10.7104 674.283 82.9063
-2.02664 648.621 77.2349
-20.1413 692.03 82.8864
-8.7462 718.495 77.2043
24.8052 703.015 77.2142
12.0522 677.179 82.8984
-7.51231 721.177 75.9807
2.0757 743.653 59.732
36.8016 727.635 59.7407
26.0391 705.697 75.9906
3.01512 745.704 57.4756
9.41273 760.713 33.1056
44.9228 744.336 33.1157
37.741 729.686 57.4842
9.92038 761.821 30.1593
12.1696 767.081 1.40293
47.9529 750.58 1.41486
45.4305 745.445 30.1694
12.1701 767.081 -1.78506
9.93016 761.811 -30.5403
45.4396 745.435 -30.5266
47.9534 750.579 -1.77313
9.42354 760.702 -33.4863
3.03566 745.684 -57.8529
37.7603 729.666 -57.8381
44.933 744.326 -33.4727
2.09724 743.632 -60.1088
-7.48175 721.148 -76.352
26.0676 705.669 -76.3387
36.8219 727.614 -60.0941
-8.71487 718.466 -77.575
-20.1044 691.997 -83.2509
12.0859 677.147 -83.2409
24.8344 702.987 -77.5617
-21.4457 689.101 -83.2581
-32.8589 662.819 -77.5796
-1.98855 648.587 -77.5716
10.7446 674.251 -83.2481
-34.0991 660.151 -76.3642
-43.7578 637.925 -60.0686
-13.9956 624.216 -60.0604
-3.22876 645.92 -76.3562
-44.7057 635.886 -57.8078
-51.1338 621.104 -33.4091
-22.1051 607.744 -33.398
-14.9435 622.178 -57.7996
-51.6459 620.005 -30.4539
-53.9016 614.85 -1.75408
-25.128 601.613 -1.74244
-22.6172 606.644 -30.4428
-21.9597 600.055 1.4545
-19.4699 605.118 30.143
8.80608 590.278 30.1528
6.06171 585.351 1.46554
-18.905 606.191 33.0962
-11.7592 620.624 57.4692
17.2431 605.395 57.4792
9.37106 591.351 33.106
-10.7099 622.611 59.7283
0.0595739 644.315 76.0214
30.1574 628.5 76.0319
18.2924 607.382 59.7383
1.43422 646.915 77.2362
14.1713 672.577 82.9075
45.5649 656.073 82.9167
31.532 631.1 77.2467
15.66 675.4 82.8995
28.413 701.236 77.2153
61.1251 684.037 77.2232
47.0536 658.896 82.9087
29.7852 703.85 75.9916
40.5477 725.788 59.7417
74.3969 707.993 59.749
62.4973 686.651 75.9996
41.5939 727.786 57.4852
48.7757 742.437 33.1167
83.3867 724.244 33.1262
75.4431 709.991 57.4925
49.3411 743.517 30.1706
51.8635 748.652 1.41606
86.7408 730.321 1.42781
83.952 725.324 30.1801
51.864 748.652 -1.77171
49.3502 743.507 -30.5252
83.9605 725.314 -30.5114
86.7413 730.32 -1.75996
48.7858 742.426 -33.4711
41.6131 727.767 -57.8365
75.4613 709.971 -57.8208
83.3961 724.233 -33.4573
40.5678 725.767 -60.0925
29.8135 703.822 -76.3371
62.5234 686.623 -76.3221
74.4159 707.971 -60.0768
28.4419 701.208 -77.5602
15.6933 675.368 -83.2395
47.0822 658.865 -83.2263
61.1518 684.008 -77.5452
14.205 672.545 -83.2469
1.47187 646.882 -77.5705
31.5655 631.068 -77.5599
45.5939 656.043 -83.2338
0.0976639 644.281 -76.3553
-10.6692 622.578 -60.0595
18.3314 607.347 -60.0502
30.1913 628.467 -76.3446
-11.7191 620.591 -57.7987
-18.8807 606.156 -33.397
9.3934 591.314 -33.3859
17.2815 605.36 -57.7893
-19.4478 605.085 -30.4416
-21.9586 600.054 -1.74126
6.06284 585.349 -1.73021
8.8264 590.243 -30.4305
9.14351 583.629 1.46669
11.8879 588.557 30.154
39.3362 572.272 30.1623
36.342 567.493 1.47757
12.5071 589.599 33.107
20.3792 603.643 57.4802
48.5408 586.929 57.487
39.9554 573.314 33.1154
21.5293 605.573 59.7395
33.3943 626.691 76.033
62.6348 609.329 76.0429
49.691 588.859 59.7462
34.9008 629.217 77.2478
48.9336 654.19 82.9178
79.4419 636.074 82.9271
64.1413 611.855 77.2577
50.5654 656.932 82.9096
64.6369 682.073 77.2241
96.4203 663.201 77.2285
81.0737 638.816 82.9189
66.143 684.612 76.0003
78.0426 705.954 59.7497
110.926 686.43 59.7554
97.9264 665.74 76.0047
79.1924 707.895 57.4935
87.1359 722.148 33.1271
120.757 702.189 33.1366
112.075 688.371 57.4991
87.7573 723.196 30.1813
90.5461 728.193 1.42901
124.425 708.081 1.44137
121.378 703.237 30.1908
90.5465 728.192 -1.75848
87.7657 723.186 -30.5099
121.385 703.225 -30.4946
124.425 708.08 -1.74612
87.1452 722.136 -33.4556
79.2103 707.874 -57.8191
112.091 688.347 -57.8007
120.764 702.175 -33.4403
78.0615 705.932 -60.075
66.1689 684.583 -76.3203
97.9496 665.708 -76.3016
110.942 686.405 -60.0565
64.6632 682.044 -77.5435
50.5935 656.901 -83.2245
81.0944 638.787 -83.2072
96.4438 663.168 -77.5248
48.9619 654.159 -83.2323
34.9336 629.184 -77.5583
64.1692 611.827 -77.5439
79.4628 636.045 -83.2149
33.4279 626.658 -76.3435
21.568 605.538 -60.049
49.7304 588.824 -60.0372
62.6635 609.301 -76.329
20.4175 603.608 -57.7882
12.5294 589.562 -33.3848
39.9771 573.275 -33.3727
48.5799 586.894 -57.7764
11.9081 588.521 -30.4292
9.14458 583.627 -1.729
36.343 567.491 -1.71812
39.3559 572.234 -30.4172
39.3279 565.613 1.4789
42.3221 570.392 30.1637
68.8641 552.691 30.1774
65.6312 548.08 1.49301
42.9941 571.401 33.1166
51.5795 585.016 57.4882
78.8108 566.843 57.5018
69.5361 553.699 33.1304
52.8283 586.883 59.7478
65.7721 607.353 76.0444
94.0577 588.456 76.0649
80.0596 568.709 59.7614
67.4094 609.798 77.2597
82.71 634.016 82.9292
112.266 614.36 82.9637
95.6951 590.901 77.2802
84.4806 636.673 82.9209
99.8272 661.059 77.2305
130.604 640.58 77.2531
114.037 617.016 82.9554
101.463 663.516 76.0061
114.462 684.206 59.7568
146.297 663.014 59.774
132.239 643.038 76.0287
115.711 686.084 57.5004
124.393 699.901 33.1379
156.936 678.23 33.1522
147.547 664.892 57.5176
125.068 700.916 30.1922
128.115 705.759 1.4428
160.905 683.917 1.45772
157.611 679.244 30.2065
128.115 705.758 -1.74445
125.074 700.903 -30.4929
157.612 679.224 -30.4752
160.905 683.916 -1.72952
124.4 699.886 -33.4382
115.726 686.058 -57.7987
147.552 664.852 -57.777
156.938 678.208 -33.4205
114.477 684.179 -60.0543
101.485 663.482 -76.2993
132.249 642.982 -76.2764
146.303 662.973 -60.0326
99.8495 661.024 -77.5226
84.5001 636.643 -83.205
114.03 616.964 -83.1875
130.613 640.524 -77.4997
82.7294 633.988 -83.2131
67.4358 609.771 -77.5421
95.7338 590.912 -77.5258
112.259 614.31 -83.1955
65.8015 607.326 -76.3275
52.8684 586.849 -60.0357
80.1162 568.695 -60.0183
94.0995 588.468 -76.3112
51.6193 584.981 -57.7749
43.0165 571.363 -33.3712
69.5661 553.672 -33.3551
78.867 566.827 -57.7575
42.342 570.355 -30.4157
39.3292 565.611 -1.71666
65.6325 548.078 -1.70255
68.8916 552.664 -30.3996
68.5137 546.047 1.49452
71.7466 550.658 30.1789
97.3253 531.602 30.1921
93.8585 527.168 1.50739
72.4695 551.63 33.1318
81.7442 564.773 57.5032
107.986 545.214 57.5158
98.0482 532.574 33.145
83.0869 566.571 59.7628
97.085 586.318 76.0664
124.301 566.012 76.0849
109.329 547.012 59.7754
98.8491 588.678 77.2833
115.42 612.137 82.9667
143.878 591.002 83.0003
126.065 568.373 77.3018
117.328 614.702 82.9584
133.896 638.266 77.2561
163.568 616.216 77.2786
145.786 593.566 82.992
135.656 640.634 76.0309
149.714 660.61 59.7761
180.407 637.79 59.7921
165.328 618.584 76.0533
151.059 662.419 57.5193
160.448 675.757 33.1539
191.821 652.42 33.166
181.752 639.599 57.5352
161.176 676.734 30.208
164.469 681.407 1.45924
196.079 657.888 1.47213
192.548 653.397 30.2201
164.469 681.406 -1.72788
161.177 676.714 -30.4735
192.548 653.377 -30.4599
196.079 657.887 -1.71498
160.45 675.735 -33.4187
151.064 662.378 -57.7752
181.755 639.558 -57.7655
191.821 652.398 -33.4051
149.719 660.567 -60.031
135.665 640.577 -76.2748
165.337 618.524 -76.2714
180.41 637.747 -60.0212
133.904 638.207 -77.4987
117.321 614.646 -83.1865
145.817 593.479 -83.1947
163.577 616.155 -77.4954
115.416 612.085 -83.1947
98.8907 588.688 -77.525
126.155 568.347 -77.5196
143.912 590.918 -83.2029
97.1295 586.331 -76.3099
83.1461 566.558 -60.0171
109.392 546.996 -60.0066
124.394 565.99 -76.3046
81.8012 564.758 -57.756
72.5002 551.603 -33.3536
98.0773 532.547 -33.3419
108.047 545.196 -57.7455
71.7742 550.632 -30.3981
68.5152 546.046 -1.70103
93.86 527.166 -1.68815
97.3513 531.576 -30.3865
96.6315 524.989 1.50871
100.098 529.424 30.1934
124.665 509.088 30.2032
120.967 504.834 1.52004
100.871 530.357 33.1461
110.808 542.997 57.517
136.019 522.131 57.523
125.437 510.021 33.1559
112.241 544.723 59.7766
127.213 563.723 76.0861
153.378 542.065 76.0887
137.451 523.858 59.7826
129.097 565.992 77.3032
146.91 588.621 83.0017
174.221 566.01 82.9983
155.261 544.334 77.3058
148.951 591.083 82.9933
166.733 613.733 77.2799
195.204 590.152 77.2721
176.263 568.472 82.9898
168.614 616.004 76.054
183.693 635.21 59.7928
213.146 610.806 59.7879
197.086 592.424 76.0463
185.131 636.946 57.5359
195.199 649.766 33.1667
225.306 624.814 33.169
214.583 612.542 57.5311
195.976 650.704 30.2212
199.508 655.195 1.47318
229.845 630.051 1.48363
226.083 625.751 30.2235
199.508 655.194 -1.71351
195.977 650.684 -30.4585
226.089 625.738 -30.4424
229.845 630.05 -1.70306
195.2 649.745 -33.4036
185.134 636.905 -57.7639
214.598 612.516 -57.7489
225.312 624.799 -33.3876
183.697 635.168 -60.0201
168.625 615.945 -76.2703
197.114 592.384 -76.2606
213.161 610.779 -60.005
166.745 613.672 -77.4952
148.984 590.997 -83.1945
176.31 568.417 -83.1968
195.234 590.111 -77.4855
146.947 588.535 -83.2029
129.19 565.964 -77.5196
155.319 544.28 -77.5134
174.273 565.955 -83.2052
127.306 563.698 -76.3034
112.304 544.704 -60.0054
137.498 523.815 -59.9984
153.436 542.014 -76.2972
110.869 542.978 -57.7444
100.899 530.328 -33.3408
125.453 509.978 -33.3318
136.062 522.088 -57.7375
100.124 529.397 -30.3852
96.6326 524.987 -1.68692
120.968 504.832 -1.67558
124.678 509.047 -30.3762
123.624 502.516 1.52133
127.322 506.77 30.2045
150.8 485.195 30.2146
146.881 481.136 1.536
128.142 507.662 33.1567
138.723 519.773 57.5238
162.826 497.637 57.5237
151.621 486.087 33.1668
140.244 521.423 59.7823
156.17 539.631 76.0883
181.199 516.661 76.0654
164.347 499.288 59.7822
158.167 541.799 77.3034
177.127 563.475 82.9958
203.229 539.467 82.9335
183.196 518.829 77.2804
179.292 565.825 82.9856
198.234 587.506 77.2679
225.413 562.444 77.19
205.395 541.818 82.9232
200.23 589.673 76.0419
216.29 608.056 59.7836
244.381 582.096 59.7173
227.41 564.612 75.964
217.815 609.712 57.5283
228.538 621.984 33.1662
257.239 595.424 33.1346
245.907 583.752 57.4621
229.362 622.878 30.2233
233.124 627.179 1.48346
262.041 600.41 1.49635
258.064 596.318 30.1917
233.124 627.178 -1.70038
229.368 622.866 -30.4397
258.072 596.309 -30.3828
262.041 600.409 -1.6875
228.545 621.971 -33.3826
217.831 609.687 -57.7439
245.926 583.731 -57.6523
257.249 595.413 -33.3256
216.307 608.03 -59.9989
200.259 589.635 -76.2545
227.441 564.577 -76.1514
244.401 582.073 -59.9074
198.264 587.466 -77.4801
179.341 565.772 -83.1915
205.439 541.771 -83.1091
225.446 562.409 -77.377
177.177 563.421 -83.2015
158.224 541.746 -77.5098
183.244 518.778 -77.4656
203.275 539.42 -83.1191
156.227 539.578 -76.295
140.289 521.379 -59.9962
164.389 499.241 -59.97
181.247 516.611 -76.2508
138.766 519.728 -57.7358
128.157 507.618 -33.3301
151.633 486.041 -33.3117
162.866 497.59 -57.7097
127.334 506.729 -30.3747
123.624 502.514 -1.67411
146.882 481.134 -1.65944
150.811 485.151 -30.3562
149.413 478.683 1.53738
153.332 482.742 30.216
175.638 459.96 30.226
171.509 456.11 1.55137
154.198 483.59 33.1675
165.404 495.14 57.5244
188.307 471.76 57.5242
176.505 460.808 33.1774
167.01 496.711 59.7812
183.862 514.084 76.0644
207.671 489.794 76.0425
189.913 473.331 59.781
185.969 516.143 77.2759
206.002 536.782 82.929
230.847 511.381 82.8717
209.777 491.854 77.254
208.285 539.012 82.9157
228.303 559.639 77.1825
254.18 533.12 77.1123
233.129 513.611 82.8585
230.407 561.694 75.9563
247.379 579.178 59.7097
274.131 551.706 59.6504
256.285 535.176 75.8861
248.987 580.749 57.4569
260.32 592.421 33.1294
287.656 564.312 33.1014
275.739 553.277 57.3976
261.188 593.269 30.1907
265.166 597.361 1.4954
292.707 569.029 1.50871
288.525 565.161 30.1627
265.166 597.36 -1.68364
261.197 593.26 -30.3789
288.534 565.152 -30.3244
292.707 569.029 -1.67033
260.329 592.411 -33.3175
249.006 580.728 -57.6443
275.758 553.258 -57.559
287.666 564.303 -33.263
247.399 579.156 -59.8969
230.439 561.66 -76.1409
256.315 535.144 -76.0459
274.152 551.686 -59.8117
228.336 559.603 -77.3669
208.329 538.966 -83.099
233.169 513.569 -83.0173
254.212 533.087 -77.2719
206.047 536.735 -83.1121
186.016 516.093 -77.4586
209.82 491.807 -77.4125
230.887 511.338 -83.0305
183.91 514.033 -76.2472
167.051 496.664 -59.9664
189.952 473.285 -59.9419
207.713 489.748 -76.201
165.443 495.093 -57.7073
154.211 483.544 -33.3093
176.514 460.763 -33.2922
188.344 471.715 -57.6828
153.342 482.698 -30.3545
149.414 478.68 -1.65767
171.51 456.107 -1.64368
175.646 459.917 -30.3374
173.907 453.526 1.55275
178.036 457.376 30.2274
199.097 433.435 30.2399
194.771 429.808 1.56554
178.946 458.178 33.1783
190.749 469.13 57.5251
212.369 444.551 57.5347
200.007 434.237 33.1908
192.435 470.614 59.7808
210.194 487.077 76.0422
232.657 461.536 76.046
214.056 446.035 59.7904
212.406 489.022 77.2519
233.475 508.549 82.8696
256.937 481.865 82.8707
234.869 463.48 77.2557
235.87 510.654 82.8551
256.922 530.162 77.1089
281.383 502.332 77.1127
259.332 483.97 82.8562
259.13 532.102 75.8828
276.977 548.632 59.647
302.288 519.827 59.653
283.592 504.272 75.8866
278.664 550.114 57.3955
290.581 561.149 33.0994
316.458 531.691 33.1077
303.975 521.308 57.4014
291.492 561.949 30.1629
295.675 565.818 1.50889
321.75 536.131 1.52152
317.37 532.491 30.1713
295.675 565.818 -1.66763
291.502 561.941 -30.3217
317.379 532.484 -30.305
321.751 536.13 -1.65499
290.591 561.14 -33.2582
278.683 550.095 -57.5542
303.994 521.29 -57.5356
316.468 531.683 -33.2415
276.997 548.612 -59.8056
259.16 532.07 -76.0398
283.62 504.242 -76.0201
302.307 519.808 -59.7871
256.953 530.129 -77.2658
235.91 510.612 -83.0113
259.368 483.931 -82.9889
281.413 502.301 -77.2461
233.515 508.506 -83.0258
212.448 488.976 -77.4078
234.908 463.437 -77.3887
256.973 481.825 -83.0034
210.236 487.031 -76.1982
192.474 470.568 -59.939
214.091 445.991 -59.9262
232.695 461.493 -76.1791
190.785 469.084 -57.681
178.956 458.133 -33.2904
200.013 434.193 -33.2783
212.402 444.507 -57.6682
178.044 457.333 -30.3358
173.907 453.524 -1.64213
194.771 429.806 -1.62935
199.101 433.393 -30.3237
197.028 427.1 1.56687
201.354 430.726 30.2412
221.115 405.692 30.252
216.603 402.298 1.57842
202.305 431.479 33.192
214.667 441.794 57.5359
234.954 416.093 57.5441
222.066 406.445 33.2028
216.43 443.186 59.7911
235.031 458.687 76.0468
256.107 431.985 76.0532
236.717 417.486 59.7993
237.343 460.512 77.2563
259.411 478.897 82.8713
281.424 451.005 82.8788
258.419 433.809 77.2627
261.913 480.872 82.8568
283.964 499.234 77.1133
306.919 470.149 77.1229
283.927 452.98 82.8644
286.272 501.054 75.8874
304.968 516.609 59.6538
328.724 486.506 59.6646
309.227 471.969 75.897
306.732 517.998 57.4024
319.215 528.381 33.1087
343.505 497.598 33.1198
330.487 487.896 57.4133
320.168 529.131 30.1725
324.548 532.771 1.52273
349.025 501.75 1.53433
344.458 498.349 30.1836
324.548 532.771 -1.65352
320.177 529.124 -30.3035
344.466 498.342 -30.2917
349.026 501.749 -1.64192
319.224 528.373 -33.2398
306.75 517.981 -57.534
330.505 487.88 -57.5223
343.514 497.591 -33.228
304.988 516.59 -59.7853
286.3 501.024 -76.0183
309.253 471.941 -76.0058
328.742 486.489 -59.7736
283.993 499.204 -77.2441
261.949 480.833 -82.987
283.959 452.944 -82.9729
306.946 470.121 -77.2317
259.446 478.857 -83.0015
237.38 460.469 -77.3867
258.452 433.769 -77.3722
281.456 450.968 -82.9873
235.069 458.644 -76.1774
216.464 443.143 -59.9246
236.748 417.445 -59.9123
256.141 431.944 -76.1629
214.7 441.75 -57.6669
202.311 431.435 -33.277
222.068 406.402 -33.2656
234.983 416.052 -57.6546
201.358 430.685 -30.3224
197.028 427.098 -1.62802
216.603 402.296 -1.61647
221.115 405.652 -30.3111
218.713 399.473 1.57958
223.225 402.866 30.2532
241.634 376.808 30.2626
236.948 373.656 1.58992
224.215 403.568 33.2038
237.103 413.217 57.545
256.002 386.468 57.5514
242.623 377.51 33.2131
238.937 414.515 59.8
258.327 429.014 76.0539
277.959 401.227 76.0583
257.835 387.766 59.8065
260.731 430.714 77.2634
283.736 447.91 82.8795
304.24 418.891 82.8852
280.363 402.928 77.2678
286.34 449.75 82.8653
309.332 466.919 77.1238
330.712 436.66 77.1319
306.844 420.731 82.871
311.733 468.614 75.8981
331.23 483.151 59.6657
353.359 451.832 59.6754
333.114 438.355 75.9062
333.065 484.445 57.4144
346.083 494.147 33.121
368.711 462.118 33.1312
355.194 453.126 57.4242
347.074 494.845 30.1848
351.642 498.246 1.53553
374.445 465.969 1.54596
369.702 462.817 30.195
351.642 498.246 -1.64068
347.083 494.839 -30.2905
369.71 462.811 -30.28
374.445 465.969 -1.63025
346.092 494.14 -33.2267
333.083 484.429 -57.521
355.21 453.111 -57.5104
368.72 462.112 -33.2162
331.249 483.134 -59.7723
311.759 468.586 -76.0045
333.137 438.33 -75.9927
353.376 451.817 -59.7617
309.358 466.891 -77.2302
286.372 449.714 -82.9714
306.872 420.698 -82.9576
330.736 436.634 -77.2184
283.768 447.873 -82.9857
260.764 430.674 -77.3706
280.393 402.891 -77.3561
304.269 418.858 -82.9719
258.36 428.973 -76.1614
238.967 414.474 -59.9108
257.862 387.728 -59.8989
277.988 401.19 -76.1469
237.132 413.176 -57.6533
224.216 403.526 -33.2643
242.621 377.469 -33.2538
256.026 386.43 -57.6414
223.225 402.826 -30.3098
218.713 399.471 -1.61524
236.948 373.654 -1.6049
241.63 376.77 -30.2993
238.906 370.721 1.59093
243.592 373.873 30.2636
260.599 346.86 30.2718
255.753 343.958 1.60018
244.617 374.522 33.2139
257.996 383.481 57.5522
275.454 355.759 57.5569
261.624 347.509 33.2221
259.894 384.681 59.8069
280.018 398.142 76.0588
298.152 369.352 76.0605
277.353 356.959 59.8116
282.508 399.714 77.2682
306.385 415.677 82.8856
325.322 385.616 82.8887
300.642 370.924 77.27
309.083 417.378 82.8717
332.951 433.307 77.1326
352.698 401.961 77.1387
328.02 387.317 82.8747
335.439 434.872 75.9071
355.684 448.349 59.6763
376.124 415.902 59.6846
355.186 403.526 75.9133
357.586 449.543 57.4252
371.103 458.535 33.1322
392.005 425.35 33.1412
378.025 417.095 57.4335
372.13 459.18 30.1961
376.873 462.332 1.54703
397.937 428.889 1.55633
393.032 425.995 30.2051
376.873 462.332 -1.62913
372.138 459.174 -30.2789
393.04 425.99 -30.2693
397.937 428.889 -1.61983
371.111 458.529 -33.2151
357.602 449.528 -57.5092
378.04 417.083 -57.4993
392.013 425.345 -33.2056
355.701 448.334 -59.7604
335.462 434.847 -75.9915
355.207 403.504 -75.9798
376.139 415.888 -59.7505
332.975 433.281 -77.217
309.111 417.346 -82.9562
328.045 387.287 -82.9418
352.719 401.938 -77.2053
306.414 415.644 -82.9703
282.537 399.678 -77.3545
300.668 370.89 -77.3394
325.348 385.586 -82.9559
280.047 398.105 -76.1454
259.92 384.643 -59.8974
277.375 356.924 -59.8857
298.178 369.318 -76.1303
258.02 383.443 -57.6401
244.614 374.482 -33.2526
261.617 347.472 -33.243
275.475 355.723 -57.6285
243.588 373.835 -30.2982
238.906 370.719 -1.60377
255.752 343.956 -1.59453
260.591 346.825 -30.2887
257.553 340.921 1.60105
262.4 343.824 30.2726
277.959 315.929 30.2797
272.966 313.281 1.60908
263.457 344.419 33.2226
277.288 352.668 57.5575
293.259 324.049 57.5603
279.017 316.524 33.2296
279.246 353.768 59.8118
300.046 366.161 76.0607
316.632 336.449 76.0595
295.218 325.149 59.8146
302.614 367.602 77.2701
327.294 382.294 82.8887
344.613 351.278 82.8889
319.201 337.89 77.2689
330.077 383.85 82.875
354.756 398.495 77.1391
372.815 366.153 77.1431
347.396 352.834 82.8751
357.323 399.925 75.9139
378.261 412.301 59.6853
396.957 378.816 59.6921
375.383 367.583 75.9179
380.224 413.39 57.4344
394.204 421.645 33.142
413.323 387.396 33.1497
398.919 379.906 57.4412
395.265 422.234 30.206
400.169 425.128 1.55727
419.436 390.612 1.56531
414.384 387.985 30.2137
400.169 425.128 -1.61885
395.272 422.229 -30.2684
414.391 387.981 -30.2601
419.437 390.611 -1.6108
394.212 421.64 -33.2045
380.239 413.378 -57.4983
398.933 379.895 -57.4894
413.331 387.392 -33.1962
378.276 412.287 -59.7493
357.344 399.903 -75.9786
375.402 367.563 -75.9671
396.97 378.805 -59.7404
354.777 398.472 -77.2038
330.102 383.821 -82.9403
347.418 352.808 -82.9254
372.834 366.132 -77.1924
327.32 382.264 -82.9542
302.64 367.568 -77.3377
319.224 337.86 -77.3219
344.636 351.25 -82.9392
300.071 366.127 -76.1287
279.268 353.733 -59.8842
295.237 325.117 -59.8728
316.655 336.419 -76.1129
277.308 352.633 -57.6273
263.45 344.382 -33.2418
279.006 316.489 -33.2335
293.276 324.017 -57.6159
262.392 343.788 -30.2877
257.553 340.919 -1.59351
272.966 313.279 -1.58548
277.948 315.896 -30.2793
274.605 310.15 1.6098
279.598 312.799 30.2804
293.668 284.093 30.2861
288.542 281.702 1.61666
280.685 313.339 33.23
294.927 320.864 57.5606
309.369 291.424 57.5612
294.755 284.633 33.2357
296.94 321.862 59.8145
318.355 333.162 76.0594
333.35 302.613 76.0547
311.382 292.422 59.815
320.994 334.468 77.2686
346.407 347.856 82.8886
362.06 315.977 82.8854
335.989 303.919 77.264
349.268 349.265 82.8752
374.687 362.583 77.1432
391.011 329.339 77.145
364.921 317.385 82.8721
377.327 363.874 75.9184
398.901 375.107 59.6926
415.802 340.68 59.6981
393.652 330.63 75.9202
400.92 376.09 57.4419
415.324 383.58 33.1504
432.609 348.363 33.157
417.821 341.663 57.4474
416.414 384.11 30.2145
421.467 386.737 1.56612
438.886 351.245 1.57294
433.7 348.894 30.2211
421.467 386.737 -1.60996
416.421 384.107 -30.2593
433.706 348.891 -30.2523
438.886 351.245 -1.60314
415.331 383.576 -33.1953
400.933 376.079 -57.4885
417.833 341.654 -57.4806
432.616 348.361 -33.1884
398.915 375.096 -59.7393
377.346 363.855 -75.966
393.669 330.612 -75.9546
415.815 340.671 -59.7315
374.706 362.563 -77.1909
349.29 349.238 -82.9239
364.941 317.362 -82.908
391.028 329.32 -77.1795
346.429 347.829 -82.9375
321.017 334.438 -77.3202
336.009 303.893 -77.3032
362.08 315.952 -82.9216
318.377 333.132 -76.1113
296.959 321.83 -59.8712
311.398 292.394 -59.8597
333.369 302.586 -76.0943
294.944 320.832 -57.6147
280.674 313.304 -33.2323
294.741 284.602 -33.2249
309.383 291.396 -57.6032
279.586 312.766 -30.2784
274.604 310.149 -1.58457
288.542 281.701 -1.57771
293.653 284.064 -30.271
290.014 278.486 1.6172
295.139 280.877 30.2866
307.683 251.433 30.2909
302.439 249.3 1.62287
296.253 281.361 33.2357
310.867 288.153 57.5612
323.741 257.973 57.5588
308.797 251.917 33.24
312.929 289.047 59.8144
334.896 299.238 76.0542
348.26 267.942 76.0454
325.803 258.868 59.812
337.6 300.408 77.2633
363.67 312.465 82.8847
377.618 279.818 82.8776
350.963 269.111 77.2546
366.601 313.723 82.8718
392.691 325.676 77.1447
407.238 291.624 77.1442
380.549 281.076 82.8647
395.398 326.824 75.9204
417.548 336.874 59.6984
432.611 301.6 59.7029
409.945 292.771 75.9199
419.617 337.745 57.448
434.405 344.446 33.1576
449.81 308.36 33.1634
434.68 302.472 57.4526
435.523 344.917 30.2218
440.709 347.269 1.57363
456.233 310.901 1.57933
450.928 308.831 30.2276
440.709 347.269 -1.60245
435.529 344.915 -30.2516
450.934 308.83 -30.2461
456.233 310.901 -1.59675
434.412 344.444 -33.1876
419.629 337.737 -57.4798
434.691 302.466 -57.4733
449.817 308.359 -33.1821
417.56 336.865 -59.7304
395.414 326.806 -75.9535
409.96 292.756 -75.9421
432.623 301.594 -59.7238
392.708 325.658 -77.178
366.621 313.699 -82.9064
380.567 281.055 -82.8888
407.254 291.608 -77.1666
363.69 312.441 -82.9196
337.619 300.382 -77.3012
350.98 269.089 -77.2823
377.636 279.797 -82.902
334.915 299.212 -76.0925
312.944 289.02 -59.8579
325.815 258.844 -59.8456
348.277 267.919 -76.0735
310.88 288.125 -57.602
296.239 281.331 -33.2237
308.779 251.89 -33.2171
323.751 257.949 -57.5897
295.124 280.848 -30.2702
290.013 278.485 -1.57689
302.438 249.298 -1.57122
307.665 251.407 -30.2637
303.74 246.005 1.62322
308.984 248.138 30.2912
319.967 218.026 30.2937
314.619 216.147 1.62767
310.121 248.568 33.2396
325.065 254.623 57.5585
336.338 223.783 57.5519
321.104 218.455 33.2421
327.169 255.415 59.8109
349.627 264.489 76.0443
361.325 232.537 76.0304
338.442 224.575 59.8044
352.386 265.521 77.2534
379.041 276.228 82.8764
391.249 242.913 82.8641
364.084 233.569 77.2394
382.034 277.331 82.864
408.723 287.879 77.1435
421.458 253.116 77.1406
394.242 244.016 82.8517
411.488 288.879 75.9199
434.154 297.708 59.703
447.342 261.685 59.707
424.223 254.116 75.917
436.268 298.465 57.4531
451.398 304.353 33.1639
464.883 267.499 33.1688
449.456 262.442 57.4571
452.539 304.763 30.2281
457.844 306.833 1.57992
471.433 269.691 1.58436
466.025 267.908 30.233
457.845 306.833 -1.59622
452.545 304.762 -30.2455
466.031 267.909 -30.2417
471.433 269.691 -1.59177
451.404 304.352 -33.1815
436.279 298.459 -57.4727
449.466 262.438 -57.4681
464.89 267.5 -33.1776
434.166 297.701 -59.7228
411.503 288.864 -75.9411
424.237 254.103 -75.9298
447.353 261.68 -59.7182
408.739 287.864 -77.1649
382.052 277.311 -82.8871
394.258 243.998 -82.8667
421.473 253.103 -77.1536
379.059 276.207 -82.8998
352.403 265.499 -77.28
364.1 233.551 -77.2582
391.265 242.894 -82.8794
349.643 264.467 -76.0715
327.182 255.392 -59.8435
338.453 224.557 -59.8292
361.34 232.519 -76.0497
325.075 254.6 -57.5883
310.103 248.541 -33.2158
321.085 218.433 -33.2097
336.346 223.765 -57.5741
308.966 248.113 -30.2629
303.739 246.004 -1.57047
314.618 216.146 -1.56602
319.947 218.005 -30.2569
315.745 212.782 1.62778
321.094 214.66 30.2938
330.491 183.947 30.2937
325.05 182.314 1.63108
322.252 215.036 33.2412
337.485 220.364 57.551
347.132 188.947 57.5376
331.648 184.323 33.2411
339.626 221.055 59.8025
362.509 229.016 76.0285
372.515 196.508 76.0069
349.273 189.638 59.7891
365.317 229.911 77.2375
392.481 239.255 82.8621
402.922 205.373 82.8417
375.323 197.403 77.2159
395.528 240.2 82.8505
422.745 249.301 77.1394
433.64 213.923 77.135
405.969 206.319 82.83
425.559 250.147 75.9169
448.679 257.716 59.7069
459.96 221.042 59.7109
436.454 214.769 75.9125
450.83 258.356 57.4576
466.258 263.413 33.1692
477.789 225.893 33.173
462.111 221.682 57.4616
467.42 263.76 30.2335
472.828 265.543 1.58484
484.444 227.732 1.58797
478.951 226.24 30.2372
472.828 265.543 -1.59141
467.426 263.761 -30.2413
478.957 226.243 -30.239
484.445 227.732 -1.58828
466.265 263.414 -33.1773
450.841 258.353 -57.4678
462.122 221.681 -57.466
477.795 225.896 -33.1749
448.69 257.712 -59.7174
425.574 250.135 -75.929
436.469 214.758 -75.9189
459.971 221.04 -59.7156
422.759 249.287 -77.1517
395.544 240.182 -82.8648
405.984 206.303 -82.8387
433.655 213.911 -77.1415
392.497 239.237 -82.8767
365.332 229.893 -77.2556
375.337 197.389 -77.2282
402.938 205.358 -82.8506
362.524 228.999 -76.0471
339.636 221.037 -59.8266
349.282 189.626 -59.8074
372.529 196.494 -76.0197
337.493 220.346 -57.5724
322.231 215.014 -33.2081
331.627 184.307 -33.2016
347.139 188.935 -57.5532
321.073 214.64 -30.2562
315.744 212.781 -1.56528
325.049 182.313 -1.56198
330.469 183.932 -30.2497
326 178.885 1.63078
331.441 180.518 30.2934
339.236 149.27 30.2858
333.715 147.868 1.633
332.616 180.842 33.239
348.099 185.467 57.5356
356.106 153.558 57.5048
340.411 149.594 33.2314
350.271 186.06 59.7857
373.514 192.93 76.0034
381.811 159.977 75.9623
358.278 154.151 59.7549
376.362 193.689 77.2125
403.961 201.659 82.8383
412.615 167.316 82.8008
384.66 160.736 77.1714
407.053 202.443 82.828
434.724 210.047 77.133
443.755 174.145 77.1268
415.708 168.099 82.7905
437.581 210.736 75.9123
461.086 217.008 59.7107
470.427 179.779 59.7123
446.611 174.835 75.9061
463.269 217.528 57.4619
478.947 221.739 33.1733
488.481 183.655 33.1729
472.61 180.299 57.4635
480.125 222.023 30.2375
485.619 223.516 1.58823
495.22 185.14 1.58981
489.66 183.939 30.2371
485.619 223.516 -1.58803
480.131 222.027 -30.2387
489.667 183.945 -30.2355
495.22 185.14 -1.58645
478.954 221.743 -33.1747
463.28 217.528 -57.4658
472.622 180.301 -57.4648
488.489 183.661 -33.1715
461.098 217.007 -59.7149
437.596 210.725 -75.9182
446.627 174.825 -75.9093
470.44 179.781 -59.7139
434.739 210.035 -77.1391
407.069 202.428 -82.8362
415.724 168.087 -82.7955
443.771 174.135 -77.1302
403.977 201.644 -82.8468
376.376 193.675 -77.2243
384.674 160.727 -77.1793
412.632 167.303 -82.8061
373.528 192.917 -76.0158
350.28 186.048 -59.8035
358.287 154.147 -59.7683
381.825 159.969 -75.9707
348.106 185.455 -57.5506
332.594 180.827 -33.199
340.389 149.586 -33.1868
356.113 153.554 -57.5154
331.419 180.504 -30.2487
325.999 178.885 -1.56104
333.713 147.868 -1.55882
339.213 149.263 -30.2366
334.49 144.383 1.63135
340.011 145.785 30.2842
346.251 114.075 30.2408
340.667 112.885 1.63246
341.2 146.061 33.2255
356.895 150.026 57.4988
363.294 117.723 57.3979
347.439 114.351 33.1821
359.09 150.528 59.7457
382.624 156.354 75.9532
389.218 123.101 75.8256
365.489 118.226 59.6448
385.505 156.979 77.163
413.46 163.558 82.7924
420.308 128.849 82.692
392.099 123.725 77.0354
416.588 164.174 82.7852
444.634 170.22 77.1215
451.749 133.876 77.0788
423.436 129.464 82.6848
447.522 170.746 75.9037
471.338 175.691 59.7099
478.655 137.996 59.6725
454.638 134.402 75.861
473.544 176.089 57.4618
489.415 179.445 33.1712
496.853 140.89 33.1443
480.861 138.394 57.4244
490.606 179.665 30.2364
496.166 180.866 1.58912
503.647 142.019 1.58812
498.044 141.11 30.2095
496.166 180.867 -1.58571
490.613 179.672 -30.2347
498.054 141.12 -30.2099
503.647 142.019 -1.5867
489.424 179.452 -33.1698
473.557 176.092 -57.4631
480.877 138.399 -57.4274
496.864 140.9 -33.145
471.351 175.692 -59.7114
447.539 170.737 -75.9068
454.657 134.393 -75.8643
478.672 138 -59.6757
444.651 170.21 -77.1247
416.605 164.161 -82.7901
423.455 129.454 -82.6882
451.769 133.866 -77.0822
413.477 163.546 -82.7974
385.519 156.97 -77.1706
392.117 123.721 -77.0403
420.327 128.838 -82.6955
382.638 156.346 -75.9612
359.1 150.525 -59.7587
365.502 118.232 -59.6536
389.236 123.097 -75.8308
356.903 150.023 -57.509
341.178 146.055 -33.1804
347.42 114.356 -33.1338
363.304 117.73 -57.4039
339.989 145.778 -30.2346
334.489 144.383 -1.55675
340.666 112.885 -1.55564
346.231 114.079 -30.1879
341.297 109.359 1.62456
346.88 110.548 30.2329
352.012 78.5335 30.007
346.435 77.5348 1.62305
348.074 110.783 33.1586
363.928 114.155 57.3744
369.044 81.6283 56.9394
353.205 78.7681 32.9327
366.13 114.578 59.6081
389.86 119.453 75.7888
394.928 86.1464 75.1818
371.246 82.0517 59.1731
392.754 119.942 76.9987
420.963 125.066 82.6553
425.959 90.0505 82.1461
397.823 86.6351 76.3917
424.1 125.499 82.6533
452.414 129.911 77.0473
457.362 93.1653 76.5678
429.095 90.4837 82.1442
455.311 130.268 75.8347
479.328 133.862 59.6462
484.201 95.7447 59.2516
460.259 93.5227 75.3552
481.541 134.137 57.4056
497.533 136.632 33.1255
502.391 97.6513 32.9014
486.413 96.0195 57.011
498.728 136.789 30.2022
504.331 137.698 1.58083
509.19 98.4245 1.56772
503.586 97.8078 29.9781
504.331 137.699 -1.58072
498.738 136.799 -30.2039
503.594 97.8214 -29.9969
509.191 98.4253 -1.59383
497.544 136.644 -33.1265
481.557 134.143 -57.409
486.44 96.0289 -57.0072
502.401 97.6656 -32.9195
479.346 133.866 -59.649
455.33 130.26 -75.8376
460.286 93.5155 -75.3499
484.228 95.7526 -59.2472
452.434 129.902 -77.0503
424.12 125.489 -82.6563
429.123 90.4755 -82.1422
457.389 93.1573 -76.5626
420.983 125.056 -82.6585
392.772 119.938 -77.0032
397.848 86.6364 -76.3935
425.986 90.0427 -82.1443
389.878 119.451 -75.7937
366.143 114.586 -59.6165
371.268 82.0705 -59.1756
394.954 86.1488 -75.184
363.94 114.163 -57.38
348.056 110.789 -33.1099
353.197 78.7886 -32.8833
369.065 81.6478 -56.9392
346.861 110.554 -30.1799
341.296 109.359 -1.54762
346.434 77.5355 -1.54914
352.002 78.5532 -29.9533
347.121 74.0324 1.57966
352.698 75.0311 29.9636
359.859 43.556 28.6628
354.549 42.6917 1.57535
353.862 75.2315 32.8111
369.701 78.0917 56.8177
376.111 46.2297 54.4487
361.022 43.7565 31.5102
371.849 78.4515 58.9925
395.531 82.5462 75.0013
400.868 50.0874 71.9359
378.26 46.5895 56.6235
398.336 82.9461 76.1799
426.472 86.3614 81.9343
430.441 53.8843 78.5871
403.673 50.4873 73.1145
429.528 86.7024 81.9412
457.794 89.384 76.3648
460.363 57.0119 73.1519
433.497 54.2253 78.5939
460.625 89.6606 75.1849
484.567 91.8826 59.0813
485.953 59.5455 56.6068
463.193 57.2885 71.972
486.734 92.096 56.8979
502.712 93.7277 32.7883
503.366 61.3428 31.4477
488.12 59.7589 54.4233
503.885 93.85 29.9374
509.489 94.4667 1.52701
509.891 62.0313 1.51241
504.538 61.465 28.5968
509.489 94.4667 -1.55605
503.893 93.8628 -29.9591
504.536 61.4436 -28.6351
509.891 62.0312 -1.57065
502.722 93.7405 -32.8068
486.761 92.1038 -56.8945
488.148 59.7402 -54.4108
503.365 61.3213 -31.4828
484.596 91.8899 -59.076
460.654 89.6528 -75.1787
463.225 57.2801 -71.961
485.983 59.5262 -56.5922
457.823 89.3762 -76.359
429.556 86.6944 -81.9386
433.529 54.2207 -78.5893
460.394 57.0036 -73.1414
426.5 86.3541 -81.9323
398.362 82.9478 -76.1815
403.702 50.4941 -73.1171
430.472 53.8803 -78.583
395.557 82.5497 -75.0034
371.872 78.4713 -58.995
378.28 46.6251 -56.6314
400.896 50.096 -71.9389
369.721 78.1127 -56.8177
353.854 75.2535 -32.7618
361.01 43.794 -31.4694
376.13 46.2665 -54.454
352.689 75.0516 -29.9104
347.12 74.0339 -1.50624
354.548 42.6932 -1.51055
359.845 43.5921 -28.618
355.406 39.2407 1.49073
360.716 40.105 28.5782
368.726 9.2125 26.8389
363.738 8.47398 1.48272
361.816 40.2777 31.2711
376.905 42.7509 54.2096
383.994 11.519 51.0025
369.827 9.38524 29.5319
378.937 43.0609 56.2674
401.546 46.5587 71.5798
407.234 14.8691 67.3968
386.026 11.829 53.0603
404.201 46.9233 72.6952
430.969 50.3204 78.1677
434.945 18.4232 73.5962
409.889 15.2337 68.5122
433.851 50.6581 78.1686
460.716 53.4447 72.7266
462.929 21.5389 68.4934
437.827 18.7609 73.5971
463.384 53.725 71.6066
486.143 55.9821 56.2414
486.82 24.0747 52.9583
465.596 21.8191 67.3734
488.185 56.1947 54.1776
503.431 57.7785 31.2019
503.037 25.8194 29.4074
488.861 24.2874 50.8945
504.536 57.8955 28.5101
509.889 58.4618 1.42569
509.111 26.4561 1.4338
504.142 25.9364 26.7155
509.888 58.4597 -1.48437
504.533 57.8721 -28.5488
504.137 25.8853 -26.742
509.111 26.4541 -1.47627
503.429 57.7534 -31.237
488.212 56.1722 -54.1649
488.88 24.2423 -50.8827
503.033 25.7665 -29.4302
486.173 55.9613 -56.2266
463.414 53.7152 -71.5954
465.618 21.8081 -67.3663
486.84 24.0314 -52.9444
460.747 53.4364 -72.716
433.882 50.6535 -78.164
437.849 18.7571 -73.5937
462.951 21.5293 -68.487
431 50.3167 -78.1637
404.229 46.9305 -72.6977
409.91 15.242 -68.5136
434.967 18.4203 -73.5934
401.574 46.5683 -71.583
378.958 43.0974 -56.2754
386.036 11.8774 -53.069
407.254 14.8798 -67.3988
376.923 42.7896 -54.2157
361.803 40.3171 -31.2311
369.81 9.44016 -29.5044
384.002 11.5696 -51.0093
360.702 40.142 -28.5347
355.405 39.243 -1.42721
363.737 8.47638 -1.43522
368.708 9.26508 -26.8079
364.78 5.27638 1.35336
369.768 6.0149 26.7095
380.247 -21.0543 23.7838
375.824 -21.6758 1.33202
370.776 6.16072 29.1678
384.943 8.29451 50.6385
393.853 -19.1494 45.2724
381.254 -20.9084 26.2421
386.805 8.55763 52.5164
408.013 11.5978 66.8529
414.599 -16.3597 59.8195
395.715 -18.8863 47.1503
410.44 11.9231 67.8662
435.496 15.1125 72.9502
439.263 -13.0876 65.2231
417.026 -16.0344 60.8329
438.122 15.4416 72.9477
463.224 18.2196 67.844
464.072 -9.82917 60.6953
441.889 -12.7585 65.2206
465.653 18.51 66.8238
486.877 20.7656 52.4087
485.263 -7.06554 46.9554
466.501 -9.53877 59.6751
488.735 20.9866 50.528
502.911 22.5187 29.0409
499.634 -5.19672 26.1111
487.121 -6.84455 45.0747
503.916 22.6377 26.5883
508.885 23.1574 1.30664
505.028 -4.50002 1.32586
500.639 -5.07766 23.6585
508.885 23.1558 -1.34572
503.911 22.5871 -26.6114
500.638 -5.08008 -23.6591
505.028 -4.50161 -1.3265
502.906 22.4664 -29.0631
488.753 20.9422 -50.5156
487.121 -6.84855 -45.0746
499.633 -5.20075 -26.1108
486.895 20.7229 -52.3958
465.673 18.4996 -66.8177
466.502 -9.54085 -59.6746
485.263 -7.06784 -46.9548
463.245 18.2103 -67.838
438.143 15.4381 -72.9447
441.89 -12.7593 -65.2202
464.073 -9.83013 -60.6949
435.517 15.1095 -72.9474
410.459 11.9312 -67.8676
417.027 -16.0346 -60.8327
439.264 -13.088 -65.2228
408.031 11.6072 -66.8543
386.813 8.60489 -52.5245
395.715 -18.8849 -47.1503
414.599 -16.3586 -59.8194
384.951 8.34358 -50.6461
370.758 6.21416 -29.1412
381.254 -20.9052 -26.2415
393.853 -19.1462 -45.2718
369.751 6.0667 -26.6821
364.78 5.278 -1.30936
375.824 -21.6742 -1.33069
380.246 -21.0526 -23.7824
-362.592 699.363 25.4858
-363.245 694.246 -0.278049
-362.545 699.353 -26.0419
-360.665 713.878 -47.8305
-358.021 735.57 -62.3331
-355.213 761.132 -67.4191
-352.754 786.749 -62.3614
-350.84 808.541 -47.8583
-349.573 823.128 -26.0613
-349.13 828.255 -0.3101
-349.596 823.144 25.4434
-350.872 808.567 47.2456
-352.792 786.782 61.7575
-355.256 761.169 66.8276
-358.063 735.604 61.7538
-360.718 713.903 47.2667
382.635 -22.3863 1.76393e-05
387.057 -21.7648 22.4517
399.656 -20.0058 41.4821
418.54 -17.4792 54.1513
440.777 -14.5323 58.5415
462.96 -11.603 54.0162
481.721 -9.1298 41.2965
494.234 -7.48197 22.3329
498.623 -6.90434 0.000247942
494.233 -7.48281 -22.3323
481.721 -9.13061 -41.2962
462.96 -11.6036 -54.016
440.777 -14.5328 -58.5413
418.54 -17.4795 -54.1511
399.656 -20.0059 -41.482
387.057 -21.7648 -22.4517
</DataArray>
</Points>
<Cells>
<DataArray type="Int32" Name="connectivity" format="ascii">
0 1 2 3 
4 5 6 7 
8 9 10 11 
12 13 14 15 
16 17 18 19 
20 21 22 23 
24 25 26 27 
28 29 30 31 
32 33 34 35 
36 37 38 39 
40 41 42 43 
44 45 46 47 
48 49 50 51 
52 53 54 55 
56 57 58 59 
60 61 62 63 
64 65 66 67 
68 69 70 71 
72 73 74 75 
76 77 78 79 
80 81 82 83 
84 85 86 87 
88 89 90 91 
92 93 94 95 
96 97 98 99 
100 101 102 103 
104 105 106 107 
108 109 110 111 
112 113 114 115 
116 117 118 119 
120 121 122 123 
124 125 126 127 
128 129 130 131 
132 133 134 135 
136 137 138 139 
140 141 142 143 
144 145 146 147 
148 149 150 151 
152 153 154 155 
156 157 158 159 
160 161 162 163 
164 165 166 167 
168 169 170 171 
172 173 174 175 
176 177 178 179 
180 181 182 183 
184 185 186 187 
188 189 190 191 
192 193 194 195 
196 197 198 199 
200 201 202 203 
204 205 206 207 
208 209 210 211 
212 213 214 215 
216 217 218 219 
220 221 222 223 
224 225 226 227 
228 229 230 231 
232 233 234 235 
236 237 238 239 
240 241 242 243 
244 245 246 247 
248 249 250 251 
252 253 254 255 
256 257 258 259 
260 261 262 263 
264 265 266 267 
268 269 270 271 
272 273 274 275 
276 277 278 279 
280 281 282 283 
284 285 286 287 
288 289 290 291 
292 293 294 295 
296 297 298 299 
300 301 302 303 
304 305 306 307 
308 309 310 311 
312 313 314 315 
316 317 318 319 
320 321 322 323 
324 325 326 327 
328 329 330 331 
332 333 334 335 
336 337 338 339 
340 341 342 343 
344 345 346 347 
348 349 350 351 
352 353 354 355 
356 357 358 359 
360 361 362 363 
364 365 366 367 
368 369 370 371 
372 373 374 375 
376 377 378 379 
380 381 382 383 
384 385 386 387 
388 389 390 391 
392 393 394 395 
396 397 398 399 
400 401 402 403 
404 405 406 407 
408 409 410 411 
412 413 414 415 
416 417 418 419 
420 421 422 423 
424 425 426 427 
428 429 430 431 
432 433 434 435 
436 437 438 439 
440 441 442 443 
444 445 446 447 
448 449 450 451 
452 453 454 455 
456 457 458 459 
460 461 462 463 
464 465 466 467 
468 469 470 471 
472 473 474 475 
476 477 478 479 
480 481 482 483 
484 485 486 487 
488 489 490 491 
492 493 494 495 
496 497 498 499 
500 501 502 503 
504 505 506 507 
508 509 510 511 
512 513 514 515 
516 517 518 519 
520 521 522 523 
524 525 526 527 
528 529 530 531 
532 533 534 535 
536 537 538 539 
540 541 542 543 
544 545 546 547 
548 549 550 551 
552 553 554 555 
556 557 558 559 
560 561 562 563 
564 565 566 567 
568 569 570 571 
572 573 574 575 
576 577 578 579 
580 581 582 583 
584 585 586 587 
588 589 590 591 
592 593 594 595 
596 597 598 599 
600 601 602 603 
604 605 606 607 
608 609 610 611 
612 613 614 615 
616 617 618 619 
620 621 622 623 
624 625 626 627 
628 629 630 631 
632 633 634 635 
636 637 638 639 
640 641 642 643 
644 645 646 647 
648 649 650 651 
652 653 654 655 
656 657 658 659 
660 661 662 663 
664 665 666 667 
668 669 670 671 
672 673 674 675 
676 677 678 679 
680 681 682 683 
684 685 686 687 
688 689 690 691 
692 693 694 695 
696 697 698 699 
700 701 702 703 
704 705 706 707 
708 709 710 711 
712 713 714 715 
716 717 718 719 
720 721 722 723 
724 725 726 727 
728 729 730 731 
732 733 734 735 
736 737 738 739 
740 741 742 743 
744 745 746 747 
748 749 750 751 
752 753 754 755 
756 757 758 759 
760 761 762 763 
764 765 766 767 
768 769 770 771 
772 773 774 775 
776 777 778 779 
780 781 782 783 
784 785 786 787 
788 789 790 791 
792 793 794 795 
796 797 798 799 
800 801 802 803 
804 805 806 807 
808 809 810 811 
812 813 814 815 
816 817 818 819 
820 821 822 823 
824 825 826 827 
828 829 830 831 
832 833 834 835 
836 837 838 839 
840 841 842 843 
844 845 846 847 
848 849 850 851 
852 853 854 855 
856 857 858 859 
860 861 862 863 
864 865 866 867 
868 869 870 871 
872 873 874 875 
876 877 878 879 
880 881 882 883 
884 885 886 887 
888 889 890 891 
892 893 894 895 
896 897 898 899 
900 901 902 903 
904 905 906 907 
908 909 910 911 
912 913 914 915 
916 917 918 919 
920 921 922 923 
924 925 926 927 
928 929 930 931 
932 933 934 935 
936 937 938 939 
940 941 942 943 
944 945 946 947 
948 949 950 951 
952 953 954 955 
956 957 958 959 
960 961 962 963 
964 965 966 967 
968 969 970 971 
972 973 974 975 
976 977 978 979 
980 981 982 983 
984 985 986 987 
988 989 990 991 
992 993 994 995 
996 997 998 999 
1000 1001 1002 1003 
1004 1005 1006 1007 
1008 1009 1010 1011 
1012 1013 1014 1015 
1016 1017 1018 1019 
1020 1021 1022 1023 
1024 1025 1026 1027 
1028 1029 1030 1031 
1032 1033 1034 1035 
1036 1037 1038 1039 
1040 1041 1042 1043 
1044 1045 1046 1047 
1048 1049 1050 1051 
1052 1053 1054 1055 
1056 1057 1058 1059 
1060 1061 1062 1063 
1064 1065 1066 1067 
1068 1069 1070 1071 
1072 1073 1074 1075 
1076 1077 1078 1079 
1080 1081 1082 1083 
1084 1085 1086 1087 
1088 1089 1090 1091 
1092 1093 1094 1095 
1096 1097 1098 1099 
1100 1101 1102 1103 
1104 1105 1106 1107 
1108 1109 1110 1111 
1112 1113 1114 1115 
1116 1117 1118 1119 
1120 1121 1122 1123 
1124 1125 1126 1127 
1128 1129 1130 1131 
1132 1133 1134 1135 
1136 1137 1138 1139 
1140 1141 1142 1143 
1144 1145 1146 1147 
1148 1149 1150 1151 
1152 1153 1154 1155 
1156 1157 1158 1159 
1160 1161 1162 1163 
1164 1165 1166 1167 
1168 1169 1170 1171 
1172 1173 1174 1175 
1176 1177 1178 1179 
1180 1181 1182 1183 
1184 1185 1186 1187 
1188 1189 1190 1191 
1192 1193 1194 1195 
1196 1197 1198 1199 
1200 1201 1202 1203 
1204 1205 1206 1207 
1208 1209 1210 1211 
1212 1213 1214 1215 
1216 1217 1218 1219 
1220 1221 1222 1223 
1224 1225 1226 1227 
1228 1229 1230 1231 
1232 1233 1234 1235 
1236 1237 1238 1239 
1240 1241 1242 1243 
1244 1245 1246 1247 
1248 1249 1250 1251 
1252 1253 1254 1255 
1256 1257 1258 1259 
1260 1261 1262 1263 
1264 1265 1266 1267 
1268 1269 1270 1271 
1272 1273 1274 1275 
1276 1277 1278 1279 
1280 1281 1282 1283 
1284 1285 1286 1287 
1288 1289 1290 1291 
1292 1293 1294 1295 
1296 1297 1298 1299 
1300 1301 1302 1303 
1304 1305 1306 1307 
1308 1309 1310 1311 
1312 1313 1314 1315 
1316 1317 1318 1319 
1320 1321 1322 1323 
1324 1325 1326 1327 
1328 1329 1330 1331 
1332 1333 1334 1335 
1336 1337 1338 1339 
1340 1341 1342 1343 
1344 1345 1346 1347 
1348 1349 1350 1351 
1352 1353 1354 1355 
1356 1357 1358 1359 
1360 1361 1362 1363 
1364 1365 1366 1367 
1368 1369 1370 1371 
1372 1373 1374 1375 
1376 1377 1378 1379 
1380 1381 1382 1383 
1384 1385 1386 1387 
1388 1389 1390 1391 
1392 1393 1394 1395 
1396 1397 1398 1399 
1400 1401 1402 1403 
1404 1405 1406 1407 
1408 1409 1410 1411 
1412 1413 1414 1415 
1416 1417 1418 1419 
1420 1421 1422 1423 
1424 1425 1426 1427 
1428 1429 1430 1431 
1432 1433 1434 1435 
1436 1437 1438 1439 
1440 1441 1442 1443 
1444 1445 1446 1447 
1448 1449 1450 1451 
1452 1453 1454 1455 
1456 1457 1458 1459 
1460 1461 1462 1463 
1464 1465 1466 1467 
1468 1469 1470 1471 
1472 1473 1474 1475 
1476 1477 1478 1479 
1480 1481 1482 1483 
1484 1485 1486 1487 
1488 1489 1490 1491 
1492 1493 1494 1495 
1496 1497 1498 1499 
1500 1501 1502 1503 
1504 1505 1506 1507 
1508 1509 1510 1511 
1512 1513 1514 1515 
1516 1517 1518 1519 
1520 1521 1522 1523 
1524 1525 1526 1527 
1528 1529 1530 1531 
1532 1533 1534 1535 
1536 1537 1538 1539 
1540 1541 1542 1543 
1544 1545 1546 1547 
1548 1549 1550 1551 
1552 1553 1554 1555 
1556 1557 1558 1559 
1560 1561 1562 1563 
1564 1565 1566 1567 
1568 1569 1570 1571 
1572 1573 1574 1575 
1576 1577 1578 1579 
1580 1581 1582 1583 
1584 1585 1586 1587 
1588 1589 1590 1591 
1592 1593 1594 1595 
1596 1597 1598 1599 
1600 1601 1602 1603 
1604 1605 1606 1607 
1608 1609 1610 1611 
1612 1613 1614 1615 
1616 1617 1618 1619 
1620 1621 1622 1623 
1624 1625 1626 1627 
1628 1629 1630 1631 
1632 1633 1634 1635 
1636 1637 1638 1639 
1640 1641 1642 1643 
1644 1645 1646 1647 
1648 1649 1650 1651 
1652 1653 1654 1655 
1656 1657 1658 1659 
1660 1661 1662 1663 
1664 1665 1666 1667 
1668 1669 1670 1671 
1672 1673 1674 1675 
1676 1677 1678 1679 
1680 1681 1682 1683 
1684 1685 1686 1687 
1688 1689 1690 1691 
1692 1693 1694 1695 
1696 1697 1698 1699 
1700 1701 1702 1703 
1704 1705 1706 1707 
1708 1709 1710 1711 
1712 1713 1714 1715 
1716 1717 1718 1719 
1720 1721 1722 1723 
1724 1725 1726 1727 
1728 1729 1730 1731 
1732 1733 1734 1735 
1736 1737 1738 1739 
1740 1741 1742 1743 
1744 1745 1746 1747 
1748 1749 1750 1751 
1752 1753 1754 1755 
1756 1757 1758 1759 
1760 1761 1762 1763 
1764 1765 1766 1767 
1768 1769 1770 1771 
1772 1773 1774 1775 
1776 1777 1778 1779 
1780 1781 1782 1783 
1784 1785 1786 1787 
1788 1789 1790 1791 
1792 1793 1794 1795 
1796 1797 1798 1799 
1800 1801 1802 1803 
1804 1805 1806 1807 
1808 1809 1810 1811 
1812 1813 1814 1815 
1816 1817 1818 1819 
1820 1821 1822 1823 
1824 1825 1826 1827 
1828 1829 1830 1831 
1832 1833 1834 1835 
1836 1837 1838 1839 
1840 1841 1842 1843 
1844 1845 1846 1847 
1848 1849 1850 1851 
1852 1853 1854 1855 
1856 1857 1858 1859 
1860 1861 1862 1863 
1864 1865 1866 1867 
1868 1869 1870 1871 
1872 1873 1874 1875 
1876 1877 1878 1879 
1880 1881 1882 1883 
1884 1885 1886 1887 
1888 1889 1890 1891 
1892 1893 1894 1895 
1896 1897 1898 1899 
1900 1901 1902 1903 
1904 1905 1906 1907 
1908 1909 1910 1911 
1912 1913 1914 1915 
1916 1917 1918 1919 
1920 1921 1922 1923 
1924 1925 1926 1927 
1928 1929 1930 1931 
1932 1933 1934 1935 
1936 1937 1938 1939 
1940 1941 1942 1943 
1944 1945 1946 1947 
1948 1949 1950 1951 
1952 1953 1954 1955 
1956 1957 1958 1959 
1960 1961 1962 1963 
1964 1965 1966 1967 
1968 1969 1970 1971 
1972 1973 1974 1975 
1976 1977 1978 1979 
1980 1981 1982 1983 
1984 1985 1986 1987 
1988 1989 1990 1991 
1992 1993 1994 1995 
1996 1997 1998 1999 
2000 2001 2002 2003 
2004 2005 2006 2007 
2008 2009 2010 2011 
2012 2013 2014 2015 
2016 2017 2018 2019 
2020 2021 2022 2023 
2024 2025 2026 2027 
2028 2029 2030 2031 
2032 2033 2034 2035 
2036 2037 2038 2039 
2040 2041 2042 2043 
2044 2045 2046 2047 
2048 2049 2050 2051 2052 2053 2054 2055 2056 2057 2058 2059 2060 2061 2062 2063 
2064 2065 2066 2067 2068 2069 2070 2071 2072 2073 2074 2075 2076 2077 2078 2079 
</DataArray>
<DataArray type="Int32" Name="offsets" format="ascii">
4 8 12 16 20 24 28 32 36 40 44 48 52 56 60 64 68 72 76 80 84 88 92 96 100 104 108 112 116 120 124 128 132 136 140 144 148 152 156 160 164 168 172 176 180 184 188 192 196 200 204 208 212 216 220 224 228 232 236 240 244 248 252 256 260 264 268 272 276 280 284 288 292 296 300 304 308 312 316 320 324 328 332 336 340 344 348 352 356 360 364 368 372 376 380 384 388 392 396 400 404 408 412 416 420 424 428 432 436 440 444 448 452 456 460 464 468 472 476 480 484 488 492 496 500 504 508 512 516 520 524 528 532 536 540 544 548 552 556 560 564 568 572 576 580 584 588 592 596 600 604 608 612 616 620 624 628 632 636 640 644 648 652 656 660 664 668 672 676 680 684 688 692 696 700 704 708 712 716 720 724 728 732 736 740 744 748 752 756 760 764 768 772 776 780 784 788 792 796 800 804 808 812 816 820 824 828 832 836 840 844 848 852 856 860 864 868 872 876 880 884 888 892 896 900 904 908 912 916 920 924 928 932 936 940 944 948 952 956 960 964 968 972 976 980 984 988 992 996 1000 1004 1008 1012 1016 1020 1024 1028 1032 1036 1040 1044 1048 1052 1056 1060 1064 1068 1072 1076 1080 1084 1088 1092 1096 1100 1104 1108 1112 1116 1120 1124 1128 1132 1136 1140 1144 1148 1152 1156 1160 1164 1168 1172 1176 1180 1184 1188 1192 1196 1200 1204 1208 1212 1216 1220 1224 1228 1232 1236 1240 1244 1248 1252 1256 1260 1264 1268 1272 1276 1280 1284 1288 1292 1296 1300 1304 1308 1312 1316 1320 1324 1328 1332 1336 1340 1344 1348 1352 1356 1360 1364 1368 1372 1376 1380 1384 1388 1392 1396 1400 1404 1408 1412 1416 1420 1424 1428 1432 1436 1440 1444 1448 1452 1456 1460 1464 1468 1472 1476 1480 1484 1488 1492 1496 1500 1504 1508 1512 1516 1520 1524 1528 1532 1536 1540 1544 1548 1552 1556 1560 1564 1568 1572 1576 1580 1584 1588 1592 1596 1600 1604 1608 1612 1616 1620 1624 1628 1632 1636 1640 1644 1648 1652 1656 1660 1664 1668 1672 1676 1680 1684 1688 1692 1696 1700 1704 1708 1712 1716 1720 1724 1728 1732 1736 1740 1744 1748 1752 1756 1760 1764 1768 1772 1776 1780 1784 1788 1792 1796 1800 1804 1808 1812 1816 1820 1824 1828 1832 1836 1840 1844 1848 1852 1856 1860 1864 1868 1872 1876 1880 1884 1888 1892 1896 1900 1904 1908 1912 1916 1920 1924 1928 1932 1936 1940 1944 1948 1952 1956 1960 1964 1968 1972 1976 1980 1984 1988 1992 1996 2000 2004 2008 2012 2016 2020 2024 2028 2032 2036 2040 2044 2048 2064 2080 
</DataArray>
<DataArray type="UInt8" Name="types" format="ascii">
7 7 7 7 7 7 7 7 7 7 7 7 7 7 7 7 7 7 7 7 7 7 7 7 7 7 7 7 7 7 7 7 7 7 7 7 7 7 7 7 7 7 7 7 7 7 7 7 7 7 7 7 7 7 7 7 7 7 7 7 7 7 7 7 7 7 7 7 7 7 7 7 7 7 7 7 7 7 7 7 7 7 7 7 7 7 7 7 7 7 7 7 7 7 7 7 7 7 7 7 7 7 7 7 7 7 7 7 7 7 7 7 7 7 7 7 7 7 7 7 7 7 7 7 7 7 7 7 7 7 7 7 7 7 7 7 7 7 7 7 7 7 7 7 7 7 7 7 7 7 7 7 7 7 7 7 7 7 7 7 7 7 7 7 7 7 7 7 7 7 7 7 7 7 7 7 7 7 7 7 7 7 7 7 7 7 7 7 7 7 7 7 7 7 7 7 7 7 7 7 7 7 7 7 7 7 7 7 7 7 7 7 7 7 7 7 7 7 7 7 7 7 7 7 7 7 7 7 7 7 7 7 7 7 7 7 7 7 7 7 7 7 7 7 7 7 7 7 7 7 7 7 7 7 7 7 7 7 7 7 7 7 7 7 7 7 7 7 7 7 7 7 7 7 7 7 7 7 7 7 7 7 7 7 7 7 7 7 7 7 7 7 7 7 7 7 7 7 7 7 7 7 7 7 7 7 7 7 7 7 7 7 7 7 7 7 7 7 7 7 7 7 7 7 7 7 7 7 7 7 7 7 7 7 7 7 7 7 7 7 7 7 7 7 7 7 7 7 7 7 7 7 7 7 7 7 7 7 7 7 7 7 7 7 7 7 7 7 7 7 7 7 7 7 7 7 7 7 7 7 7 7 7 7 7 7 7 7 7 7 7 7 7 7 7 7 7 7 7 7 7 7 7 7 7 7 7 7 7 7 7 7 7 7 7 7 7 7 7 7 7 7 7 7 7 7 7 7 7 7 7 7 7 7 7 7 7 7 7 7 7 7 7 7 7 7 7 7 7 7 7 7 7 7 7 7 7 7 7 7 7 7 7 7 7 7 7 7 7 7 7 7 7 7 7 7 7 7 7 7 7 7 7 7 7 7 7 7 7 7 7 7 7 7 7 7 7 7 7 7 7 7 7 7 7 7 7 7 7 7 7 7 7 7 
</DataArray>
</Cells>
<CellData Scalars="cell variable 4" Vectors="cell vector">
<DataArray type="Float64" NumberOfComponents="3" Name="cell vector" format="ascii">
0.127319 0.164151 0.978184
0.335195 0.460995 0.821662
0.380445 0.72868 0.569461
0.0671352 0.979593 0.189447
-0.124134 0.965867 -0.22736
-0.0667909 0.819308 -0.56945
-0.00985885 -0.551686 0.833993
-0.0138269 -0.194182 0.980868
0.0192324 0.195379 0.980539
0.00980899 0.552363 0.833546
-0.0688719 0.819537 0.568873
-0.125437 0.965855 0.226691
0.0642474 0.979749 -0.189643
0.373521 0.73174 -0.570122
-0.320922 -0.466803 0.824078
-0.132128 -0.162188 0.977874
0.0458201 0.191695 0.980384
0.126518 0.544338 0.82927
0.151757 0.818717 0.55378
0.0599309 0.979016 0.194772
0.0549817 0.979023 -0.196193
0.0719233 0.828632 -0.555154
-0.0611132 -0.553414 0.830661
-0.0234056 -0.194194 0.980684
0.0239286 0.194856 0.98054
0.060617 0.55405 0.830274
0.0707549 0.829121 0.554574
0.05413 0.979212 0.195482
0.059221 0.978914 -0.195501
0.151166 0.818396 -0.554417
-0.126296 -0.543733 0.829701
-0.0477252 -0.19075 0.980478
0.0446801 0.191529 0.980469
0.125697 0.543945 0.829653
0.161851 0.816778 0.553785
0.0184417 0.980642 0.194938
0.0646829 0.978743 -0.194624
0.0825816 0.827717 -0.555036
-0.063831 -0.55259 0.831005
-0.023737 -0.193801 0.980754
0.0231474 0.194573 0.980615
0.0634114 0.55321 0.830625
0.0822446 0.828132 0.554466
0.0643168 0.978915 0.193879
0.0181979 0.980492 -0.195716
0.161905 0.816395 -0.554334
-0.125871 -0.543304 0.830046
-0.0457126 -0.190586 0.980606
0.0463498 0.190487 0.980595
0.133245 0.540932 0.830445
0.188385 0.810527 0.554578
-0.392329 0.90477 0.165739
0.987552 -0.156876 0.0114777
0.992598 -0.12131 0.00573598
0.993148 -0.116854 0.00173133
0.993106 -0.117217 0.000495745
0.993108 -0.117202 0.000345091
0.993153 -0.11682 -0.000905845
0.992604 -0.121293 -0.00496131
0.987508 -0.1572 -0.010767
-0.391551 0.90492 -0.166755
0.188642 0.81014 -0.555057
-0.133454 -0.540298 0.830824
-0.047152 -0.189475 0.980753
0.0475116 0.189191 0.98079
0.13706 0.5379 0.831792
0.202146 0.806314 0.555873
-0.138471 0.973195 0.183622
0.977404 -0.211218 0.00827442
0.983765 -0.17941 0.0043362
0.984911 -0.173059 0.000486727
0.984984 -0.172646 4.70359e-06
0.984985 -0.172638 0.000797711
0.984918 -0.173023 0.000328616
0.983781 -0.179341 -0.00352734
0.977373 -0.211388 -0.00753417
-0.131828 0.973891 -0.184816
0.202377 0.805946 -0.556322
-0.137431 -0.537237 0.83216
-0.0483131 -0.188116 0.980958
0.0513215 0.187327 0.980956
0.148421 0.533258 0.832831
0.227898 0.798951 0.556542
0.442927 0.876509 0.188542
0.967832 -0.251512 0.0066289
0.973181 -0.229991 0.00473047
0.974534 -0.224235 0.00132519
0.974698 -0.223525 0.000349345
0.9747 -0.223518 0.000480984
0.974539 -0.224217 -0.000501865
0.973185 -0.229989 -0.00393202
0.967786 -0.251706 -0.00586374
0.359857 0.913 -0.192182
0.227907 0.798653 -0.556966
-0.148941 -0.532544 0.833195
-0.0522095 -0.186177 0.981128
0.0575081 0.184917 0.98107
0.1664 0.526837 0.833519
0.257694 0.789311 0.5573
0.377959 0.905565 0.192611
0.956364 -0.292136 0.00502996
0.960234 -0.279156 0.00470277
0.961627 -0.274353 0.0020568
0.961901 -0.273398 0.000701968
0.961903 -0.273391 0.000174157
0.961629 -0.274352 -0.00120254
0.96021 -0.279253 -0.00390176
0.956236 -0.292566 -0.00424103
0.372078 0.907886 -0.193135
0.2579 0.788977 -0.557676
-0.167059 -0.526073 0.833869
-0.0584591 -0.183702 0.981242
0.0654151 0.181942 0.981131
0.189511 0.518362 0.833898
0.293046 0.776513 0.557809
0.411657 0.890698 0.192862
0.941572 -0.336794 0.00336132
0.94444 -0.328654 0.00436249
0.946044 -0.32403 0.00238885
0.946499 -0.322705 0.000898126
0.946503 -0.322695 -1.35381e-05
0.946051 -0.324015 -0.00153325
0.944424 -0.328711 -0.00356627
0.941472 -0.33708 -0.00257891
0.40861 0.892009 -0.193282
0.293016 0.776283 -0.558145
-0.190116 -0.517599 0.834234
-0.0663997 -0.180655 0.981303
0.0735507 0.178651 0.98116
0.212349 0.509081 0.834113
0.325497 0.76324 0.558137
0.458863 0.867338 0.192796
0.925238 -0.379382 0.00209678
0.926507 -0.376258 0.00378858
0.927945 -0.372708 0.00257837
0.928489 -0.371357 0.00107102
0.928497 -0.371339 -0.000148435
0.927959 -0.372679 -0.00170068
0.926479 -0.376335 -0.0030047
0.92505 -0.379842 -0.00134779
0.455567 0.868988 -0.193179
0.325618 0.76297 -0.558435
-0.212992 -0.508273 0.834442
-0.0744885 -0.177294 0.981335
0.0817194 0.174945 0.981181
0.235264 0.498645 0.834268
0.358632 0.74808 0.558354
0.491724 0.849086 0.193031
0.906236 -0.422771 0.00121986
0.906299 -0.422626 0.00297731
0.907412 -0.420235 0.00241664
0.907955 -0.419067 0.00112112
0.907969 -0.419038 -0.000145152
0.907437 -0.420185 -0.00151183
0.906249 -0.422737 -0.0022268
0.905876 -0.423542 -0.000544084
0.489044 0.850556 -0.193367
0.359093 0.74766 -0.55862
-0.235979 -0.497762 0.834594
-0.0825324 -0.173556 0.98136
0.09 0.170742 0.981197
0.258259 0.486953 0.834373
0.391537 0.731252 0.558542
0.518651 0.832837 0.193348
0.884777 -0.466014 0.000524518
0.883719 -0.468013 0.0021761
0.88444 -0.466649 0.00210993
0.884927 -0.465729 0.0010952
0.884951 -0.465684 -8.19407e-05
0.884491 -0.466555 -0.0011773
0.883663 -0.468122 -0.00146097
0.884077 -0.467342 -7.05263e-06
0.517597 0.833425 -0.193639
0.392822 0.730375 -0.558788
-0.259023 -0.485981 0.834703
-0.0905189 -0.169434 0.981376
0.0985004 0.165899 0.981211
0.281501 0.473749 0.834457
0.423233 0.713285 0.558658
0.545524 0.815428 0.193603
0.861098 -0.50844 -0.000161675
0.85858 -0.512676 0.00164452
0.858991 -0.511987 0.00187002
0.859444 -0.51123 0.00100891
0.859489 -0.511154 -7.80367e-05
0.859121 -0.511772 -0.000931544
0.858663 -0.51254 -0.000864559
0.859932 -0.510408 0.000424062
0.545787 0.815183 -0.193887
0.426119 0.711324 -0.558964
-0.282008 -0.472843 0.8348
-0.0984573 -0.164848 0.981393
0.10703 0.160643 0.981192
0.306368 0.458056 0.83446
0.458839 0.690999 0.558558
0.585293 0.78736 0.193642
0.832675 -0.553762 -0.000731847
0.830325 -0.557277 0.0013391
0.831083 -0.556147 0.00145181
0.831618 -0.555348 0.000684722
0.83167 -0.555271 -0.000243785
0.831337 -0.555768 -0.000884238
0.831134 -0.556072 -0.000565267
0.833708 -0.552204 0.000917337
0.57495 0.794841 -0.194061
0.458164 0.691036 -0.559066
-0.305375 -0.457885 0.834918
-0.106881 -0.159242 0.981437
0.115269 0.155027 0.981163
0.329712 0.441666 0.834398
0.493326 0.667057 0.558268
0.805569 -0.592502 0.000875563
0.802748 -0.596318 -0.000723055
0.80058 -0.599225 0.00100214
0.801193 -0.598405 0.00115524
0.80162 -0.597833 0.00066404
0.801624 -0.597828 3.22778e-05
0.801197 -0.5984 -0.000466428
0.800547 -0.59927 -0.000340087
0.802617 -0.596493 0.00138689
0.598932 0.776901 -0.194181
0.493306 0.666538 -0.558906
-0.329831 -0.440536 0.834949
-0.115311 -0.153059 0.981466
0.122786 0.148993 0.981185
0.351241 0.424719 0.834412
0.527153 0.640849 0.558052
0.771331 -0.636434 0.00042716
0.771007 -0.636826 -0.000288438
0.76962 -0.638502 0.00022718
0.769458 -0.638697 0.000488133
0.769466 -0.638687 0.000490321
0.769419 -0.638745 0.000410209
0.769201 -0.639006 0.000283553
0.768731 -0.639572 0.000306466
0.769888 -0.638178 0.00140538
0.764953 -0.644081 0.00275841
0.527357 0.640296 -0.558494
-0.352539 -0.422791 0.834843
-0.123297 -0.146911 0.981435
0.13009 0.14257 0.981198
0.373268 0.405627 0.834349
0.56429 0.608662 0.55777
0.742177 -0.670204 0.000765097
0.734716 -0.678373 -0.00132487
0.735028 -0.678034 -0.00188766
0.734224 -0.678906 -0.00133099
0.733764 -0.679404 -0.000340709
0.73372 -0.679452 0.000758668
0.734098 -0.679041 0.00174057
0.734959 -0.678107 0.00241867
0.736119 -0.676848 0.00230692
0.740818 -0.671706 0.000243911
0.561606 0.61096 -0.557966
-0.373415 -0.404838 0.834666
-0.130734 -0.140593 0.981398
0.13747 0.135668 0.981171
0.393883 0.386061 0.834154
0.596197 0.577804 0.557398
-0.705579 0.708631 -0.000870199
-0.697666 0.716422 0.000884607
-0.698928 0.71519 0.00201358
-0.697886 0.716207 0.00157408
-0.697258 0.71682 0.000477548
-0.697236 0.716842 -0.000810309
-0.697848 0.716243 -0.00197492
-0.699035 0.715083 -0.00258962
-0.698549 0.715561 -0.00160003
-0.705039 0.709169 0.000273961
0.595082 0.578863 -0.557491
-0.393827 -0.385468 0.834455
-0.137591 -0.134023 0.98138
0.144644 0.128142 0.981151
0.413856 0.364834 0.834038
0.624912 0.546736 0.557283
-0.650845 0.759207 0.00230167
-0.65823 0.752817 -0.000750195
-0.661036 0.750354 0.000502933
-0.660639 0.750703 0.000717066
-0.660182 0.751106 0.000199047
-0.660173 0.751113 -0.000552017
-0.660638 0.750704 -0.00113128
-0.661149 0.750254 -0.00103141
-0.658724 0.752384 0.0001877
-0.650909 0.759151 -0.00270318
0.624622 0.547008 -0.557342
-0.413829 -0.364207 0.834325
-0.144438 -0.126689 0.98137
0.15145 0.120139 0.981137
0.433025 0.342016 0.833975
0.652362 0.513668 0.557287
-0.594603 0.803996 0.00612673
-0.617132 0.78686 -0.000610489
-0.62005 0.784562 0.000372442
-0.620012 0.784592 0.000728955
-0.619639 0.784887 0.000215398
-0.61964 0.784886 -0.000594515
-0.620033 0.784575 -0.00114811
-0.620149 0.784483 -0.000848561
-0.61744 0.786618 0.000134219
-0.595124 0.803608 -0.00639862
0.652347 0.513645 -0.557326
-0.432998 -0.341367 0.834255
-0.151072 -0.118776 0.981361
0.157573 0.11212 0.981122
0.450088 0.319416 0.833903
0.676564 0.481433 0.55721
-0.540662 0.841196 0.00858559
-0.575796 0.817593 -0.000341039
-0.577877 0.816123 0.000566312
-0.577601 0.816319 0.00083388
-0.577141 0.816645 0.000239742
-0.577149 0.816638 -0.000636745
-0.577635 0.816294 -0.0012466
-0.577964 0.816061 -0.000999665
-0.576017 0.817437 -8.44421e-05
-0.541154 0.840877 -0.00884972
0.676653 0.481282 -0.557232
-0.45007 -0.318722 0.834178
-0.157089 -0.110798 0.981349
0.163112 0.104011 0.98111
0.46563 0.296497 0.833833
0.699161 0.448118 0.557104
-0.47982 0.877284 0.0120685
-0.532861 0.846203 -7.79966e-05
-0.534448 0.845201 0.00101402
-0.533711 0.845666 0.00110143
-0.533073 0.846069 0.000305458
-0.533088 0.84606 -0.000716405
-0.533754 0.845639 -0.00150448
-0.534522 0.845153 -0.00141087
-0.53305 0.846084 -0.00031377
-0.4802 0.877072 -0.0123403
0.699307 0.447882 -0.55711
-0.465616 -0.295757 0.834104
-0.16254 -0.102725 0.98134
0.168172 0.0957697 0.981094
0.479857 0.273163 0.833738
0.71993 0.414101 0.556974
-0.410591 0.911663 0.0168735
-0.488639 0.872486 0.000228611
-0.4898 0.871833 0.00161826
-0.488441 0.872596 0.00145261
-0.487579 0.873079 0.000392248
-0.4876 0.873067 -0.000800392
-0.488493 0.872566 -0.00183592
-0.489871 0.871793 -0.00197958
-0.488816 0.872387 -0.00058586
-0.41066 0.911626 -0.0171856
0.720102 0.413817 -0.556964
-0.479842 -0.27238 0.834003
-0.167521 -0.0945246 0.981327
0.17277 0.08745 0.981072
0.492746 0.249629 0.833599
0.738684 0.379892 0.556801
-0.3304 0.94355 0.0234607
-0.443659 0.896195 0.000652732
-0.444039 0.896005 0.00233337
-0.441872 0.897076 0.00179339
-0.440779 0.897616 0.000456071
-0.440806 0.897602 -0.000862712
-0.441931 0.897047 -0.00215363
-0.444102 0.895972 -0.00265709
-0.443845 0.896103 -0.000980482
-0.330139 0.943632 -0.0238097
0.738895 0.379521 -0.556775
-0.492729 -0.248799 0.833857
-0.172038 -0.0862688 0.981306
0.176881 0.0792012 0.98104
0.504219 0.226301 0.833397
0.755314 0.346026 0.556567
-0.234527 0.97156 0.0326859
-0.398618 0.917116 0.00129577
-0.397265 0.917699 0.00310839
-0.394083 0.919073 0.00201582
-0.392798 0.919625 0.000452719
-0.392832 0.91961 -0.000858451
-0.394143 0.919046 -0.00234416
-0.397317 0.917675 -0.0033916
-0.398867 0.917007 -0.00160423
-0.233509 0.971789 -0.0331482
0.755531 0.34562 -0.556525
-0.504198 -0.225424 0.833647
-0.176085 -0.0780782 0.981274
0.180501 0.0711659 0.980997
0.514227 0.203689 0.833116
0.769622 0.313503 0.556235
-0.109508 0.992872 0.0470486
-0.354517 0.935047 0.00229916
-0.349469 0.93694 0.00379284
-0.345113 0.938559 0.00196151
-0.343755 0.939059 0.000330559
-0.343796 0.939044 -0.000734591
-0.34517 0.938537 -0.00224419
-0.349497 0.936929 -0.00401584
-0.354865 0.934914 -0.00258561
-0.104916 0.993315 -0.0481467
0.769824 0.313116 -0.556174
-0.51422 -0.202716 0.833357
-0.179655 -0.0700991 0.981229
0.1837 0.0635227 0.980928
0.523027 0.181927 0.832674
0.78252 0.280699 0.555761
-0.00401369 0.998335 0.05755
-0.310449 0.950582 0.00383987
-0.300122 0.953891 0.00427065
-0.295001 0.955496 0.00164561
-0.293835 0.955856 0.000109931
-0.293888 0.95584 -0.000543865
-0.295044 0.955482 -0.00189572
-0.300037 0.953917 -0.00442434
-0.310606 0.95053 -0.00410415
-0.010241 0.998344 -0.0566123
0.782864 0.279894 -0.555683
-0.523084 -0.180713 0.832902
-0.182827 -0.062577 0.981151
0.186361 0.0573679 0.980805
0.529994 0.164486 0.831896
0.792566 0.25256 0.555026
-0.170808 0.985174 0.0160136
-0.268457 0.963275 0.00567898
-0.249742 0.968303 0.00433999
-0.243813 0.969822 0.00098121
-0.242912 0.970048 -0.000198441
-0.242989 0.970029 -0.000206851
-0.24389 0.969802 -0.00114431
-0.24971 0.968311 -0.004411
-0.268659 0.963218 -0.00585235
-0.190757 0.981561 -0.0122207
0.792953 0.251536 -0.554938
-0.530101 -0.163032 0.832114
-0.185498 -0.0566066 0.981013
0.188396 0.0539692 0.980609
0.534839 0.155099 0.830597
0.799498 0.231797 0.554142
-0.495784 0.866389 -0.0597369
-0.225605 0.974186 0.00805761
-0.196561 0.980482 0.00423174
-0.190086 0.981767 0.000411379
-0.189428 0.981895 -0.000394152
-0.189532 0.981874 0.000112158
-0.19022 0.981741 -0.000421088
-0.196676 0.980459 -0.00420512
-0.22611 0.974068 -0.00814233
-0.494707 0.867025 0.0594281
0.799938 0.23035 -0.55411
-0.53504 -0.153081 0.830842
-0.187597 -0.0533705 0.980795
0.189301 0.054673 0.980396
0.536361 0.158719 0.82893
0.800325 0.232415 0.552687
-0.533385 0.843185 -0.0673685
-0.161864 0.986651 0.0178616
-0.129281 0.991553 0.0104125
-0.123925 0.992279 0.00496721
-0.123498 0.992344 0.00154697
-0.123505 0.992343 -0.0011188
-0.124047 0.992264 -0.00485375
-0.129675 0.991498 -0.0107685
-0.162465 0.986547 -0.0181919
-0.538892 0.839594 0.0683901
0.800927 0.230021 -0.552817
-0.536886 -0.155027 0.829289
-0.188751 -0.0541186 0.980533
0.188431 0.050321 0.980796
0.535442 0.144977 0.832036
0.805369 0.19905 0.558354
0.982292 0.0108311 0.187043
0.977263 0.0789727 -0.196777
0.825404 0.101874 -0.555275
-0.55107 -0.0755203 0.831035
-0.193479 -0.0276952 0.980714
0.193555 0.0271877 0.980713
0.551086 0.0761939 0.830962
0.825404 0.10196 0.555259
0.977252 0.0787966 0.1969
0.982338 0.0100047 -0.186845
0.805954 0.196795 -0.55831
-0.53636 -0.14089 0.832146
-0.188183 -0.0498494 0.980868
0.18879 0.0443789 0.981014
0.537506 0.126393 0.833734
0.811948 0.164638 0.560031
0.978459 0.0766971 0.191666
0.976624 0.0745265 -0.201624
0.825034 0.0887275 -0.558074
-0.550989 -0.0687903 0.831672
-0.193472 -0.0257352 0.980768
0.193742 0.0253116 0.980726
0.551065 0.068899 0.831613
0.824996 0.088326 0.558194
0.976637 0.0737397 0.201846
0.978625 0.0753462 -0.191356
0.81245 0.162817 -0.559836
-0.538486 -0.122649 0.833661
-0.188605 -0.0438989 0.981071
0.1816 0.0569286 0.981723
0.511191 0.178344 0.84076
0.762548 0.280627 0.582897
0.985872 0.0135124 0.166953
0.972995 -0.0218135 -0.229793
0.82104 0.0373928 -0.569644
-0.548175 -0.0459097 0.835103
-0.192446 -0.0180746 0.981141
0.192391 0.0171491 0.981168
0.547749 0.0414692 0.835614
0.820787 0.0343797 0.570198
0.972776 -0.0244709 0.230451
0.986401 0.00415636 -0.164305
0.765942 0.273046 -0.582047
-0.518097 -0.161889 0.839861
-0.182688 -0.0541302 0.98168
0.000235851 0.00674368 0.999977
0.00408152 0.000544941 0.999992
</DataArray>
<DataArray type="Float64" Name="cell vector length" format="ascii">
0.168779 0.167822 0.142528 0.124136 0.16164 0.164354 0.154867 0.148129 0.147728 0.154066 0.164557 0.161723 0.124048 0.141973 0.175267 0.173153 0.422574 0.39295 0.344336 0.343103 0.382335 0.400834 0.398189 0.3904 0.389777 0.396514 0.400687 0.38244 0.343495 0.344933 0.398392 0.424426 0.535122 0.495537 0.416902 0.422321 0.490277 0.507745 0.500674 0.491142 0.49079 0.49952 0.507784 0.490497 0.422742 0.417232 0.498914 0.536023 0.578237 0.526305 0.400551 0.0708158 0.363201 0.563219 0.655281 0.692243 0.692225 0.655324 0.562934 0.362967 0.0712507 0.400718 0.529437 0.579002 0.605838 0.541911 0.380621 0.0288521 0.34218 0.551086 0.647763 0.686163 0.686102 0.647609 0.550822 0.341908 0.0297525 0.38062 0.544976 0.606519 0.621416 0.548581 0.361189 0.00595134 0.339618 0.547853 0.646358 0.68545 0.685398 0.646221 0.547606 0.339144 0.00867312 0.361694 0.551887 0.622133 0.630697 0.552908 0.363746 0.0419347 0.336347 0.54659 0.645724 0.685253 0.685206 0.645594 0.546341 0.336063 0.0428533 0.36363 0.556669 0.631532 0.636675 0.556092 0.358913 0.0502886 0.338127 0.545981 0.645341 0.685185 0.685138 0.645203 0.545716 0.337793 0.0503765 0.358858 0.560432 0.637665 0.640801 0.558454 0.356326 0.0459968 0.339473 0.545649 0.645149 0.685246 0.685192 0.644986 0.54536 0.339168 0.0460151 0.356247 0.563426 0.641961 0.643476 0.559737 0.35426 0.0431916 0.340236 0.545382 0.645012 0.685301 0.685239 0.644818 0.54504 0.339933 0.0430487 0.354194 0.565476 0.64486 0.644856 0.560024 0.352574 0.0401828 0.342337 0.545995 0.645101 0.685336 0.685274 0.644881 0.545547 0.341957 0.0397509 0.352614 0.566789 0.646566 0.645345 0.559286 0.35065 0.0370435 0.345104 0.546981 0.645257 0.685353 0.685336 0.645127 0.546441 0.34415 0.0371183 0.351215 0.567426 0.647441 0.645665 0.558198 0.349673 0.0161439 0.347094 0.547926 0.645568 0.685535 0.68552 0.645488 0.547584 0.346811 0.034183 0.349324 0.567118 0.647847 0.646054 0.556773 0.334275 0.0490021 0.353252 0.54876 0.64615 0.686072 0.686018 0.646021 0.548587 0.348665 0.013177 0.348075 0.566337 0.648232 0.6463 0.555294 0.332911 0.0690038 0.35554 0.55038 0.647312 0.687139 0.687123 0.64722 0.55 0.355223 0.0523843 0.332423 0.565548 0.648835 0.646332 0.554408 0.330846 0.0716992 0.363777 0.556088 0.651746 0.691038 0.691023 0.651608 0.555548 0.362826 0.0716744 0.331456 0.565058 0.649107 0.645964 0.554128 0.329012 0.071337 0.387343 0.574021 0.665782 0.703387 0.703331 0.665564 0.573594 0.386907 0.0711757 0.329286 0.564644 0.648688 0.645368 0.553913 0.334684 0.0421483 0.391485 0.57853 0.669435 0.706629 0.706572 0.669236 0.578196 0.39109 0.0417471 0.334965 0.564589 0.648086 0.644848 0.553468 0.332735 0.0342237 0.391773 0.578943 0.670047 0.707231 0.707183 0.669878 0.578662 0.391352 0.0336321 0.333137 0.564497 0.647641 0.64426 0.552683 0.331245 0.0344765 0.391111 0.578774 0.670307 0.707599 0.707558 0.670158 0.578527 0.390673 0.0337241 0.331753 0.564146 0.647173 0.643284 0.551372 0.329725 0.0344346 0.390468 0.578631 0.670536 0.707932 0.707894 0.670398 0.578403 0.390026 0.0335847 0.330325 0.563287 0.646332 0.641647 0.54958 0.328476 0.0335231 0.389582 0.578574 0.67083 0.708279 0.708243 0.670695 0.578358 0.389147 0.0326109 0.329158 0.561934 0.644834 0.639135 0.547264 0.327625 0.0315377 0.388363 0.578627 0.67122 0.708654 0.708616 0.671083 0.578422 0.387937 0.0305632 0.328386 0.560041 0.642462 0.635463 0.544312 0.327398 0.0281493 0.386838 0.578876 0.671719 0.709033 0.70899 0.671574 0.578681 0.386438 0.0271148 0.328244 0.557494 0.638929 0.63024 0.540519 0.32806 0.022374 0.385415 0.57947 0.672306 0.709364 0.709307 0.672136 0.579286 0.385091 0.0212117 0.328962 0.554088 0.633854 0.622769 0.535803 0.331853 0.0179228 0.383813 0.580492 0.673036 0.709714 0.709643 0.672838 0.580301 0.383474 0.0175004 0.333024 0.549816 0.626584 0.611313 0.529538 0.333425 0.0256817 0.38558 0.582441 0.674167 0.710304 0.710223 0.673952 0.582251 0.385643 0.0292817 0.33351 0.544086 0.615412 0.590817 0.517997 0.343679 0.0247495 0.393911 0.588274 0.677465 0.712634 0.712571 0.677303 0.588172 0.393832 0.0263037 0.344746 0.533258 0.595319 0.541857 0.478633 0.341918 0.0775039 0.441574 0.618577 0.696856 0.729475 0.729998 0.698713 0.618474 0.441521 0.0780028 0.343018 0.495391 0.547103 0.502283 0.446776 0.346533 0.351411 0.424027 0.450746 0.461915 0.452563 0.446224 0.445466 0.44867 0.424266 0.352334 0.347713 0.464817 0.508076 0.453742 0.403948 0.332836 0.3172 0.364536 0.394268 0.41713 0.40797 0.400073 0.395499 0.392312 0.364569 0.317769 0.333995 0.422932 0.459971 0.206924 0.151808 0.0810928 0.0619958 0.128691 0.187917 0.233037 0.233859 0.227843 0.214589 0.18818 0.129377 0.0622716 0.0791869 0.17005 0.212552 0.036953 0.0151589 
</DataArray>
<DataArray type="Float64" Name="cell variable 4" format="ascii">
855.017 864.241 869.184 873.728 882.271 867.834 857.012 852.679 852.202 856.016 867.98 882.169 873.494 867.91 868.502 856.566 1100.78 1095.72 1092.18 1108.07 1116.59 1109.42 1105 1101.01 1099.99 1102.17 1109.32 1116.53 1108.04 1092.38 1104.63 1103.88 1316.68 1310.77 1304 1320.17 1340.58 1338.93 1339.38 1337.28 1336.24 1336.08 1338.95 1340.73 1320.39 1304.22 1319.45 1319.28 1378.68 1373.9 1369.55 1401.04 2231.92 3261.27 4145.94 4652.7 4651.24 4142.9 3259.27 2231.24 1401.27 1369.71 1383.11 1381.32 1400.95 1395.68 1393.08 1402.38 2223.5 3249.54 4144.85 4659.57 4658.53 4142.54 3247.66 2222.61 1403.49 1393.15 1405.39 1403.68 1406.79 1397.49 1390.62 1412.65 2231.35 3238.78 4138.12 4658.88 4658.05 4136.21 3237.08 2229.63 1414.9 1390.59 1408.04 1409.75 1408.87 1395.32 1383.51 1452.09 2222.52 3232.26 4131.92 4656.32 4655.57 4130.19 3230.69 2221.7 1453.51 1383.61 1407.28 1412.22 1409.01 1392.81 1378.48 1478.9 2230.7 3229.56 4126.51 4652.63 4651.91 4124.83 3228.02 2229.9 1479 1378.7 1406.49 1412.86 1408.17 1390.56 1375.33 1481.83 2238.47 3229.15 4122.12 4648.65 4647.93 4120.43 3227.57 2237.68 1481.89 1375.54 1406.13 1412.59 1407.61 1388.34 1371.64 1481.68 2241.26 3227.72 4118.64 4645.25 4644.49 4116.79 3225.97 2240.54 1481.73 1371.93 1405.95 1412.66 1407.19 1386.06 1368 1480.54 2246.88 3230.82 4117.59 4642.55 4641.69 4115.45 3228.62 2246.26 1480.71 1368.56 1405.89 1412.93 1407.32 1383.99 1363.57 1476.8 2251.75 3235.33 4117.96 4640.7 4639.8 4115.52 3232.3 2251.2 1479.06 1365.23 1405.77 1413.53 1407.64 1382.79 1360.84 1444.21 2255.7 3240.18 4118.82 4639.62 4638.99 4116.9 3236.76 2255.06 1474.85 1360.77 1405.28 1414.12 1407.07 1381.79 1360.41 1458.89 2278.66 3245.06 4119.99 4639.45 4639.09 4118.68 3241.45 2258.2 1441.89 1357.76 1405.09 1414.02 1406.37 1380.02 1357.63 1457.01 2280.82 3249.17 4122.43 4641.11 4640.52 4120.57 3245.67 2280.38 1461.14 1357.61 1406.06 1414.06 1405.66 1377.92 1354.78 1458.07 2281.38 3249.79 4123.59 4642.42 4641.64 4121.36 3246.79 2280.74 1459.97 1356.25 1406.61 1414.22 1404.41 1375.49 1352.69 1471.83 2322.74 3320.89 4215.22 4745.3 4744.55 4213.27 3318.61 2321.82 1472.14 1353.11 1405.57 1413.62 1403.45 1373.15 1349.59 1454.24 2311.7 3318.58 4215.65 4746.84 4746.2 4214.06 3316.76 2310.68 1454 1349.91 1404.33 1413.07 1402.41 1371.5 1347.95 1457.24 2311.18 3316.9 4216.83 4749.95 4749.44 4215.56 3315.34 2310.07 1456.65 1348.3 1403.81 1412.42 1401.22 1370.18 1347.23 1459.02 2310.35 3315.49 4218.16 4753.52 4753.09 4217.1 3314.07 2309.17 1458.24 1347.61 1403.63 1411.65 1400.38 1368.97 1346.18 1459.32 2308.52 3314.27 4220.05 4757.7 4757.32 4219.12 3312.96 2307.33 1458.43 1346.58 1403.52 1411.22 1399.69 1367.92 1345.35 1458.19 2305.29 3313.02 4222.73 4762.68 4762.31 4221.85 3311.79 2304.15 1457.24 1345.77 1403.47 1410.93 1399.05 1367.08 1344.9 1455.46 2300.42 3311.84 4226.41 4768.51 4768.12 4225.52 3310.65 2299.29 1454.44 1345.34 1403.53 1410.66 1398.42 1366.47 1344.93 1450.62 2293.75 3311.16 4231.36 4775.08 4774.61 4230.39 3310.05 2292.73 1449.55 1345.37 1403.7 1410.35 1397.91 1366.08 1345.05 1442.67 2285.45 3311.94 4237.81 4781.95 4781.35 4236.7 3310.94 2284.56 1441.5 1345.4 1404 1410.13 1396.76 1365.94 1346.24 1427.38 2275.31 3315.31 4245.65 4788.43 4787.61 4244.26 3314.41 2274.45 1425.65 1346.63 1404.51 1409.25 1393.01 1364.92 1348.43 1420.35 2274.85 3322.89 4254.6 4793.76 4792.66 4252.85 3322.11 2275.86 1422 1349.01 1404.02 1405.71 1377.26 1352.79 1340.07 1397.16 2274.71 3336.85 4264.63 4797.49 4796.12 4262.6 3336.15 2274.7 1396.66 1340.38 1391.7 1389.98 1296.39 1272.21 1256.33 1364.24 2294.76 3368.98 4285.06 4810.02 4808.37 4282.54 3368.24 2294.64 1364.02 1256.21 1308.49 1308.4 1224.95 1198.08 1176.65 1191.68 1197.7 1201.68 1232.76 1229.86 1221.29 1207 1201.75 1197.93 1192.01 1176.6 1232.37 1236.41 1099.28 1071.34 1047.25 1042.66 1049.67 1048.15 1081.13 1075.16 1064.92 1050.34 1047.87 1049.71 1042.76 1047.47 1101.76 1109.64 772.023 758.707 750.22 752.799 773.364 797.938 850.331 865.167 858.659 830.197 799.31 773.785 752.892 748.608 776.78 777.57 612.847 744.351 
</DataArray>
<DataArray type="Float64" Name="cell variable 5" format="ascii">
0.00259695 0.00259695 0.00259695 0.00259695 0.00259695 0.00259695 0.00259695 0.00259695 0.00259695 0.00259695 0.00259695 0.00259695 0.00259695 0.00259695 0.00259695 0.00259695 0.00259695 0.00259695 0.00259695 0.00259695 0.00259695 0.00259695 0.00259695 0.00259695 0.00259695 0.00259695 0.00259695 0.00259695 0.00259695 0.00259695 0.00259695 0.00259695 0.00259695 0.00259695 0.00259695 0.00259695 0.00259695 0.00259695 0.00259695 0.00259695 0.00259695 0.00259695 0.00259695 0.00259695 0.00259695 0.00259695 0.00259695 0.00259695 0.00392486 0.00363343 0.00316309 0.00271468 0.00259695 0.00259695 0.00259695 0.00259695 0.00259695 0.00259695 0.00259695 0.00259695 0.00271468 0.00316309 0.00363343 0.00392486 0.00444079 0.00403624 0.00338297 0.00276027 0.00259695 0.00259695 0.00259695 0.00259695 0.00259695 0.00259695 0.00259695 0.00259695 0.00276027 0.00338297 0.00403624 0.00444079 0.00473973 0.00426997 0.00351051 0.00278682 0.00259695 0.00259695 0.00259695 0.00259695 0.00259695 0.00259695 0.00259695 0.00259695 0.00278682 0.00351051 0.00426997 0.00473973 0.0049573 0.00443906 0.00360342 0.00280644 0.00259695 0.00259695 0.00259695 0.00259695 0.00259695 0.00259695 0.00259695 0.00259695 0.00280644 0.00360342 0.00443906 0.0049573 0.00512696 0.00457179 0.00367556 0.00282145 0.00259695 0.00259695 0.00259695 0.00259695 0.00259695 0.00259695 0.00259695 0.00259695 0.00282145 0.00367556 0.00457179 0.00512696 0.00526374 0.00467856 0.00373384 0.00283357 0.00259695 0.00259695 0.00259695 0.00259695 0.00259695 0.00259695 0.00259695 0.00259695 0.00283357 0.00373384 0.00467856 0.00526374 0.0053757 0.0047657 0.00378174 0.00284338 0.00259695 0.00259695 0.00259695 0.00259695 0.00259695 0.00259695 0.00259695 0.00259695 0.00284338 0.00378174 0.0047657 0.0053757 0.0054663 0.00483668 0.00382041 0.00285146 0.00259695 0.00259695 0.00259695 0.00259695 0.00259695 0.00259695 0.00259695 0.00259695 0.00285146 0.00382041 0.00483668 0.0054663 0.00553902 0.00489382 0.00385157 0.0028578 0.00259695 0.00259695 0.00259695 0.00259695 0.00259695 0.00259695 0.00259695 0.00259695 0.0028578 0.00385157 0.00489382 0.00553902 0.00559557 0.00493768 0.00387523 0.002863 0.00259695 0.00259695 0.00259695 0.00259695 0.00259695 0.00259695 0.00259695 0.00259695 0.002863 0.00387523 0.00493768 0.00559557 0.00563712 0.00496999 0.00389312 0.00286646 0.00259695 0.00259695 0.00259695 0.00259695 0.00259695 0.00259695 0.00259695 0.00259695 0.00286646 0.00389312 0.00496999 0.00563712 0.00566482 0.00499135 0.00390467 0.00286935 0.00259695 0.00259695 0.00259695 0.00259695 0.00259695 0.00259695 0.00259695 0.00259695 0.00286935 0.00390467 0.00499135 0.00566482 0.0056781 0.00500231 0.00391044 0.0028705 0.00259695 0.00259695 0.00259695 0.00259695 0.00259695 0.00259695 0.00259695 0.00259695 0.0028705 0.00391044 0.00500231 0.0056781 0.0056781 0.00500231 0.00391044 0.0028705 0.00259695 0.00259695 0.00259695 0.00259695 0.00259695 0.00259695 0.00259695 0.00259695 0.0028705 0.00391044 0.00500231 0.0056781 0.00566482 0.00499135 0.00390467 0.00286935 0.00259695 0.00259695 0.00259695 0.00259695 0.00259695 0.00259695 0.00259695 0.00259695 0.00286935 0.00390467 0.00499135 0.00566482 0.00563712 0.00496999 0.00389312 0.00286646 0.00259695 0.00259695 0.00259695 0.00259695 0.00259695 0.00259695 0.00259695 0.00259695 0.00286646 0.00389312 0.00496999 0.00563712 0.00559557 0.00493768 0.00387523 0.002863 0.00259695 0.00259695 0.00259695 0.00259695 0.00259695 0.00259695 0.00259695 0.00259695 0.002863 0.00387523 0.00493768 0.00559557 0.00553902 0.00489382 0.00385157 0.0028578 0.00259695 0.00259695 0.00259695 0.00259695 0.00259695 0.00259695 0.00259695 0.00259695 0.0028578 0.00385157 0.00489382 0.00553902 0.0054663 0.00483668 0.00382041 0.00285146 0.00259695 0.00259695 0.00259695 0.00259695 0.00259695 0.00259695 0.00259695 0.00259695 0.00285146 0.00382041 0.00483668 0.0054663 0.0053757 0.0047657 0.00378174 0.00284338 0.00259695 0.00259695 0.00259695 0.00259695 0.00259695 0.00259695 0.00259695 0.00259695 0.00284338 0.00378174 0.0047657 0.0053757 0.00526374 0.00467856 0.00373384 0.00283357 0.00259695 0.00259695 0.00259695 0.00259695 0.00259695 0.00259695 0.00259695 0.00259695 0.00283357 0.00373384 0.00467856 0.00526374 0.00512696 0.00457179 0.00367556 0.00282145 0.00259695 0.00259695 0.00259695 0.00259695 0.00259695 0.00259695 0.00259695 0.00259695 0.00282145 0.00367556 0.00457179 0.00512696 0.0049573 0.00443906 0.00360342 0.00280644 0.00259695 0.00259695 0.00259695 0.00259695 0.00259695 0.00259695 0.00259695 0.00259695 0.00280644 0.00360342 0.00443906 0.0049573 0.00473973 0.00426997 0.00351051 0.00278682 0.00259695 0.00259695 0.00259695 0.00259695 0.00259695 0.00259695 0.00259695 0.00259695 0.00278682 0.00351051 0.00426997 0.00473973 0.00444079 0.00403624 0.00338297 0.00276027 0.00259695 0.00259695 0.00259695 0.00259695 0.00259695 0.00259695 0.00259695 0.00259695 0.00276027 0.00338297 0.00403624 0.00444079 0.00392486 0.00363343 0.00316309 0.00271468 0.00259695 0.00259695 0.00259695 0.00259695 0.00259695 0.00259695 0.00259695 0.00259695 0.00271468 0.00316309 0.00363343 0.00392486 0.00259695 0.00259695 0.00259695 0.00259695 0.00259695 0.00259695 0.00259695 0.00259695 0.00259695 0.00259695 0.00259695 0.00259695 0.00259695 0.00259695 0.00259695 0.00259695 0.00259695 0.00259695 0.00259695 0.00259695 0.00259695 0.00259695 0.00259695 0.00259695 0.00259695 0.00259695 0.00259695 0.00259695 0.00259695 0.00259695 0.00259695 0.00259695 0.00259695 0.00259695 0.00259695 0.00259695 0.00259695 0.00259695 0.00259695 0.00259695 0.00259695 0.00259695 0.00259695 0.00259695 0.00259695 0.00259695 0.00259695 0.00259695 0.00259695 0.00259695 
</DataArray>
<DataArray type="Float64" Name="cell variable 6" format="ascii">
1 1 1 1 1 1 1 1 1 1 1 1 1 1 1 1 1 1 1 1 1 1 1 1 1 1 1 1 1 1 1 1 1 1 1 1 1 1 1 1 1 1 1 1 1 1 1 1 1 1 1 1 1 1 1 1 1 1 1 1 1 1 1 1 1 1 1 1 1 1 1 1 1 1 1 1 1 1 1 1 1 1 1 1 1 1 1 1 1 1 1 1 1 1 1 1 1 1 1 1 1 1 1 1 1 1 1 1 1 1 1 1 1 1 1 1 1 1 1 1 1 1 1 1 1 1 1 1 1 1 1 1 1 1 1 1 1 1 1 1 1 1 1 1 1 1 1 1 1 1 1 1 1 1 1 1 1 1 1 1 1 1 1 1 1 1 1 1 1 1 1 1 1 1 1 1 1 1 1 1 1 1 1 1 1 1 1 1 1 1 1 1 1 1 1 1 1 1 1 1 1 1 1 1 1 1 1 1 1 1 1 1 1 1 1 1 1 1 1 1 1 1 1 1 1 1 1 1 1 1 1 1 1 1 1 1 1 1 1 1 1 1 1 1 1 1 1 1 1 1 1 1 1 1 1 1 1 1 1 1 1 1 1 1 1 1 1 1 1 1 1 1 1 1 1 1 1 1 1 1 1 1 1 1 1 1 1 1 1 1 1 1 1 1 1 1 1 1 1 1 1 1 1 1 1 1 1 1 1 1 1 1 1 1 1 1 1 1 1 1 1 1 1 1 1 1 1 1 1 1 1 1 1 1 1 1 1 1 1 1 1 1 1 1 1 1 1 1 1 1 1 1 1 1 1 1 1 1 1 1 1 1 1 1 1 1 1 1 1 1 1 1 1 1 1 1 1 1 1 1 1 1 1 1 1 1 1 1 1 1 1 1 1 1 1 1 1 1 1 1 1 1 1 1 1 1 1 1 1 1 1 1 1 1 1 1 1 1 1 1 1 1 1 1 1 1 1 1 1 1 1 1 1 1 1 1 1 1 1 1 1 1 1 1 1 1 1 1 1 1 1 1 1 1 1 1 1 1 1 1 1 1 1 1 1 1 1 1 1 1 1 1 1 1 1 1 1 1 1 1 1 1 1 1 1 1 1 1 1 1 1 1 1 1 1 1 1 1 1 1 1 1 1 1 1 1 1 1 1 1 1 1 1 1 
</DataArray>
<DataArray type="Float64" Name="cell variable 7" format="ascii">
0 0 0 0 0 0 0 0 0 0 0 0 0 0 0 0 0 0 0 0 0 0 0 0 0 0 0 0 0 0 0 0 0 0 0 0 0 0 0 0 0 0 0 0 0 0 0 0 0 0 0 0 0 0 0 0 0 0 0 0 0 0 0 0 0 0 0 0 0 0 0 0 0 0 0 0 0 0 0 0 0 0 0 0 0 0 0 0 0 0 0 0 0 0 0 0 0 0 0 0 0 0 0 0 0 0 0 0 0 0 0 0 0 0 0 0 0 0 0 0 0 0 0 0 0 0 0 0 0 0 0 0 0 0 0 0 0 0 0 0 0 0 0 0 0 0 0 0 0 0 0 0 0 0 0 0 0 0 0 0 0 0 0 0 0 0 0 0 0 0 0 0 0 0 0 0 0 0 0 0 0 0 0 0 0 0 0 0 0 0 0 0 0 0 0 0 0 0 0 0 0 0 0 0 0 0 0 0 0 0 0 0 0 0 0 0 0 0 0 0 0 0 0 0 0 0 0 0 0 0 0 0 0 0 0 0 0 0 0 0 0 0 0 0 0 0 0 0 0 0 0 0 0 0 0 0 0 0 0 0 0 0 0 0 0 0 0 0 0 0 0 0 0 0 0 0 0 0 0 0 0 0 0 0 0 0 0 0 0 0 0 0 0 0 0 0 0 0 0 0 0 0 0 0 0 0 0 0 0 0 0 0 0 0 0 0 0 0 0 0 0 0 0 0 0 0 0 0 0 0 0 0 0 0 0 0 0 0 0 0 0 0 0 0 0 0 0 0 0 0 0 0 0 0 0 0 0 0 0 0 0 0 0 0 0 0 0 0 0 0 0 0 0 0 0 0 0 0 0 0 0 0 0 0 0 0 0 0 0 0 0 0 0 0 0 0 0 0 0 0 0 0 0 0 0 0 0 0 0 0 0 0 0 0 0 0 0 0 0 0 0 0 0 0 0 0 0 0 0 0 0 0 0 0 0 0 0 0 0 0 0 0 0 0 0 0 0 0 0 0 0 0 0 0 0 0 0 0 0 0 0 0 0 0 0 0 0 0 0 0 0 0 0 0 0 0 0 0 0 0 0 0 0 0 0 0 0 0 0 0 0 0 0 0 0 0 0 0 0 0 0 0 0 0 0 0 0 0 0 0 0 0 1 1 
</DataArray>
<DataArray type="Float64" Name="cell variable 8" format="ascii">
11.25 33.75 56.25 78.75 101.25 123.75 146.25 168.75 191.25 213.75 236.25 258.75 281.25 303.75 326.25 348.75 11.25 33.75 56.25 78.75 101.25 123.75 146.25 168.75 191.25 213.75 236.25 258.75 281.25 303.75 326.25 348.75 11.25 33.75 56.25 78.75 101.25 123.75 146.25 168.75 191.25 213.75 236.25 258.75 281.25 303.75 326.25 348.75 11.25 33.75 56.25 78.75 101.25 123.75 146.25 168.75 191.25 213.75 236.25 258.75 281.25 303.75 326.25 348.75 11.25 33.75 56.25 78.75 101.25 123.75 146.25 168.75 191.25 213.75 236.25 258.75 281.25 303.75 326.25 348.75 11.25 33.75 56.25 78.75 101.25 123.75 146.25 168.75 191.25 213.75 236.25 258.75 281.25 303.75 326.25 348.75 11.25 33.75 56.25 78.75 101.25 123.75 146.25 168.75 191.25 213.75 236.25 258.75 281.25 303.75 326.25 348.75 11.25 33.75 56.25 78.75 101.25 123.75 146.25 168.75 191.25 213.75 236.25 258.75 281.25 303.75 326.25 348.75 11.25 33.75 56.25 78.75 101.25 123.75 146.25 168.75 191.25 213.75 236.25 258.75 281.25 303.75 326.25 348.75 11.25 33.75 56.25 78.75 101.25 123.75 146.25 168.75 191.25 213.75 236.25 258.75 281.25 303.75 326.25 348.75 11.25 33.75 56.25 78.75 101.25 123.75 146.25 168.75 191.25 213.75 236.25 258.75 281.25 303.75 326.25 348.75 11.25 33.75 56.25 78.75 101.25 123.75 146.25 168.75 191.25 213.75 236.25 258.75 281.25 303.75 326.25 348.75 11.25 33.75 56.25 78.75 101.25 123.75 146.25 168.75 191.25 213.75 236.25 258.75 281.25 303.75 326.25 348.75 11.25 33.75 56.25 78.75 101.25 123.75 146.25 168.75 191.25 213.75 236.25 258.75 281.25 303.75 326.25 348.75 11.25 33.75 56.25 78.75 101.25 123.75 146.25 168.75 191.25 213.75 236.25 258.75 281.25 303.75 326.25 348.75 11.25 33.75 56.25 78.75 101.25 123.75 146.25 168.75 191.25 213.75 236.25 258.75 281.25 303.75 326.25 348.75 11.25 33.75 56.25 78.75 101.25 123.75 146.25 168.75 191.25 213.75 236.25 258.75 281.25 303.75 326.25 348.75 11.25 33.75 56.25 78.75 101.25 123.75 146.25 168.75 191.25 213.75 236.25 258.75 281.25 303.75 326.25 348.75 11.25 33.75 56.25 78.75 101.25 123.75 146.25 168.75 191.25 213.75 236.25 258.75 281.25 303.75 326.25 348.75 11.25 33.75 56.25 78.75 101.25 123.75 146.25 168.75 191.25 213.75 236.25 258.75 281.25 303.75 326.25 348.75 11.25 33.75 56.25 78.75 101.25 123.75 146.25 168.75 191.25 213.75 236.25 258.75 281.25 303.75 326.25 348.75 11.25 33.75 56.25 78.75 101.25 123.75 146.25 168.75 191.25 213.75 236.25 258.75 281.25 303.75 326.25 348.75 11.25 33.75 56.25 78.75 101.25 123.75 146.25 168.75 191.25 213.75 236.25 258.75 281.25 303.75 326.25 348.75 11.25 33.75 56.25 78.75 101.25 123.75 146.25 168.75 191.25 213.75 236.25 258.75 281.25 303.75 326.25 348.75 11.25 33.75 56.25 78.75 101.25 123.75 146.25 168.75 191.25 213.75 236.25 258.75 281.25 303.75 326.25 348.75 11.25 33.75 56.25 78.75 101.25 123.75 146.25 168.75 191.25 213.75 236.25 258.75 281.25 303.75 326.25 348.75 11.25 33.75 56.25 78.75 101.25 123.75 146.25 168.75 191.25 213.75 236.25 258.75 281.25 303.75 326.25 348.75 11.25 33.75 56.25 78.75 101.25 123.75 146.25 168.75 191.25 213.75 236.25 258.75 281.25 303.75 326.25 348.75 11.25 33.75 56.25 78.75 101.25 123.75 146.25 168.75 191.25 213.75 236.25 258.75 281.25 303.75 326.25 348.75 11.25 33.75 56.25 78.75 101.25 123.75 146.25 168.75 191.25 213.75 236.25 258.75 281.25 303.75 326.25 348.75 11.25 33.75 56.25 78.75 101.25 123.75 146.25 168.75 191.25 213.75 236.25 258.75 281.25 303.75 326.25 348.75 11.25 33.75 56.25 78.75 101.25 123.75 146.25 168.75 191.25 213.75 236.25 258.75 281.25 303.75 326.25 348.75 0 0 
</DataArray>
</CellData>
</Piece>
</UnstructuredGrid>
</VTKFile>
