<VTKFile type="UnstructuredGrid" version="0.1">
<UnstructuredGrid>
<Piece  NumberOfPoints="    2080" NumberOfCells="     514">
<Points>
<DataArray type="Float64" NumberOfComponents="3" format="ascii">
-70.6796 1000.53 1.0154
-66.7275 1003.79 26.7809
-52.701 978.321 28.9301
-57.0147 974.81 1.06297
-65.8389 1004.51 29.5337
-54.4698 1013.66 51.3626
-39.479 988.935 55.2567
-51.8124 979.039 31.683
-52.8225 1014.98 53.4655
-35.7531 1028.6 68.0109
-19.3509 1004.98 73.0635
-37.8318 990.252 57.3597
-33.6 1030.32 69.1449
-13.4992 1046.37 74.2113
4.58259 1024.02 79.6725
-17.1979 1006.69 74.1974
-11.1766 1048.23 74.2071
8.83498 1064.35 69.0636
28.5745 1043.32 74.1235
6.90518 1025.88 79.6682
10.9677 1066.09 67.9268
27.8094 1079.95 53.3833
48.929 1060.16 57.2994
30.7073 1045.06 72.9867
29.429 1081.31 51.2824
40.5984 1090.79 29.4968
62.5807 1071.87 31.6084
50.5487 1061.52 55.1985
41.4689 1091.54 26.7434
45.3775 1094.92 0.974264
67.6457 1076.3 0.982642
63.4511 1072.62 28.8551
45.3776 1094.92 -2.00922
41.4717 1091.54 -27.7788
63.4567 1072.61 -29.8649
67.6458 1076.3 -2.00084
40.6022 1090.78 -30.5309
29.4441 1081.27 -52.3122
50.5776 1061.48 -56.1819
62.5873 1071.86 -32.6171
27.8267 1079.91 -54.4115
11.0043 1066 -68.9411
30.759 1044.98 -73.9563
48.9603 1060.12 -58.2812
8.8734 1064.26 -70.0765
-11.1256 1048.12 -75.206
6.97273 1025.78 -80.6252
28.6281 1043.24 -75.0917
-13.4471 1046.26 -75.2088
-33.5411 1030.2 -70.1286
-17.1189 1006.58 -75.1404
4.65131 1023.91 -80.6281
-35.6923 1028.49 -68.9931
-52.732 1014.85 -54.425
-37.7436 990.15 -58.2826
-19.2701 1004.86 -74.0048
-54.3792 1013.54 -52.3195
-65.7534 1004.41 -30.4848
-51.7569 978.965 -32.5577
-39.3908 988.834 -56.177
-66.6469 1003.7 -27.7294
-70.6761 1000.53 -1.96697
-57.0113 974.806 -1.9194
-52.6504 978.253 -29.8023
-55.1788 971.957 1.14113
-50.865 975.468 29.0083
-31.4429 949.388 29.6368
-35.8648 945.82 1.16914
-37.5958 986.115 55.4713
-17.8919 960.191 56.6145
-30.507 950.139 32.5261
-49.9291 976.219 31.8975
-17.3832 1002.22 73.3818
2.73906 976.521 74.8904
-16.1602 961.57 58.8212
-35.864 987.494 57.678
6.6599 1021.34 80.0476
27.2834 995.92 81.712
5.00166 978.316 76.0812
-15.1206 1004.01 74.5726
30.7703 1040.73 74.4999
51.8795 1015.62 76.0552
29.7245 997.868 81.7089
9.10093 1023.29 80.0446
51.2267 1057.66 57.6215
72.5882 1032.96 58.8209
54.1142 1017.44 74.864
33.005 1042.56 73.3087
64.9482 1069.45 31.8254
86.3556 1045.11 32.4634
74.2777 1034.4 56.6148
52.9162 1059.1 55.4154
70.0471 1073.92 1.05923
91.4628 1049.71 1.0773
87.2599 1045.91 29.5697
65.8525 1070.24 28.9317
65.8583 1070.23 -29.9383
87.2678 1045.87 -30.5317
91.463 1049.7 -2.0561
70.0473 1073.92 -2.07416
52.946 1059.06 -56.3939
74.3178 1034.35 -57.5316
86.3653 1045.08 -33.4226
64.9557 1069.43 -32.8291
33.058 1042.48 -74.2725
54.1726 1017.36 -75.7713
72.6312 1032.91 -59.7352
51.2593 1057.62 -58.5975
9.1696 1023.19 -80.9962
29.7953 997.766 -82.6058
51.9396 1015.53 -76.9614
30.8249 1040.65 -75.4626
-15.0405 1003.9 -75.5103
5.07897 978.209 -76.966
27.3554 995.817 -82.6076
6.72971 1021.24 -80.998
-35.776 987.393 -58.5959
-16.0853 961.477 -59.6947
2.81693 976.414 -75.7738
-17.3025 1002.11 -74.3182
-49.8758 976.147 -32.7663
-30.4731 950.07 -33.3435
-17.8189 960.1 -57.4845
-37.5096 986.016 -56.3857
-50.8159 975.401 -29.8731
-55.1767 971.954 -1.9902
-35.8627 945.817 -1.96219
-31.4132 949.324 -30.4503
-33.6623 942.96 1.19137
-29.2405 946.528 29.659
-8.8678 921.04 29.7837
-13.3226 917.471 1.21526
-28.2902 947.284 32.5843
-15.6751 957.337 56.6728
4.78794 931.84 56.8799
-7.91755 921.796 32.709
-13.917 958.725 58.9075
4.98222 973.676 74.9768
25.5949 948.146 75.2296
6.54607 933.228 59.1146
7.28014 975.482 76.1831
29.5619 993.086 81.8139
50.3632 967.491 82.066
27.8928 949.953 76.436
32.0409 995.046 81.8108
54.1959 1012.8 76.157
75.1784 987.128 76.3749
52.8421 969.451 82.0629
56.4503 1014.65 74.9517
74.9243 1030.17 58.9085
95.7751 1004.79 59.0671
77.4327 988.979 75.1695
76.6137 1031.64 56.6751
88.6916 1042.36 32.5236
109.377 1017.35 32.6521
97.4645 1006.26 56.8336
89.5921 1043.18 29.593
93.795 1046.98 1.10057
114.434 1022.11 1.13536
110.278 1018.17 29.7215
93.7957 1046.97 -2.0734
89.6005 1043.14 -30.549
110.295 1018.13 -30.6148
114.435 1022.11 -2.03861
88.7023 1042.32 -33.4769
76.6549 1031.59 -57.5859
97.5077 1006.19 -57.6991
109.397 1017.3 -33.5426
74.9676 1030.11 -59.817
56.509 1014.56 -75.8531
77.4873 988.891 -76.0248
95.8204 1004.72 -59.9302
54.2559 1012.71 -77.0576
32.1116 994.944 -82.7019
52.9065 969.347 -82.9071
75.2341 987.039 -77.2293
29.6334 992.983 -82.7039
7.35698 975.375 -77.0623
27.9612 949.846 -77.2686
50.4283 967.386 -82.9091
5.05905 973.569 -75.8549
-13.8432 958.632 -59.7758
6.6086 933.137 -59.9388
25.6633 948.041 -76.0611
-15.6037 957.245 -57.5376
-28.2579 947.215 -33.3966
-7.89584 921.728 -33.4755
4.84805 931.751 -57.7006
-29.2116 946.463 -30.4671
-33.6611 942.956 -1.97894
-13.3214 917.468 -1.95505
-8.84951 920.976 -30.546
-11.0745 914.647 1.22205
-6.61973 918.215 29.7905
13.5371 892.811 29.8303
9.00835 889.306 1.24347
-5.65772 918.966 32.7224
7.04776 929.009 56.8933
27.396 903.433 56.9313
14.4992 893.561 32.7623
8.82582 930.386 59.1303
27.8746 945.304 75.2453
48.4769 919.487 75.2536
29.1741 904.809 59.1683
30.1968 947.093 76.4499
52.6672 964.631 82.0799
73.5398 938.54 82.0495
50.7991 921.277 76.4583
55.1721 966.572 82.0736
77.5084 984.249 76.3856
98.6667 957.872 76.352
76.0447 940.481 82.0431
79.7941 986.087 75.1695
98.1364 1001.89 59.0671
119.843 974.906 59.0111
100.952 959.71 75.1359
99.8426 1003.36 56.8288
111.755 1014.44 32.6472
133.957 987.005 32.6449
121.55 976.369 56.7728
112.664 1015.26 29.7223
116.82 1019.2 1.13619
139.205 991.611 1.17066
134.866 987.821 29.72
116.821 1019.19 -2.03195
112.682 1015.22 -30.6081
134.884 987.787 -30.5447
139.206 991.609 -1.99748
111.775 1014.4 -33.5319
99.886 1003.29 -57.6884
121.585 976.303 -57.5904
133.978 986.968 -33.4685
98.1812 1001.82 -59.9254
79.8481 985.999 -76.02
101.002 959.619 -75.9433
119.88 974.838 -59.8274
77.5635 984.159 -77.235
55.2359 966.468 -82.9128
76.1028 940.376 -82.8391
98.717 957.779 -77.1583
52.7316 964.526 -82.918
30.2644 946.987 -77.2775
50.8598 921.171 -77.2432
73.5985 938.434 -82.8443
27.9421 945.198 -76.072
8.88738 930.295 -59.9496
29.2279 904.72 -59.946
48.5374 919.383 -76.0377
7.10687 928.92 -57.7092
-5.63702 918.898 -33.4842
14.5141 893.494 -33.4819
27.4474 903.346 -57.7056
-6.60189 918.151 -30.5479
-11.0737 914.643 -1.95693
9.00913 889.303 -1.93551
13.5492 892.748 -30.5457
11.2165 886.472 1.24658
15.7453 889.977 29.8334
35.4072 864.299 29.859
30.813 860.874 1.26817
16.7215 890.713 32.7661
29.6183 900.585 56.9352
49.454 874.687 56.9611
36.3834 865.035 32.7917
31.4205 901.935 59.1713
50.7234 916.613 75.2566
70.8002 890.403 75.2799
51.2562 876.037 59.1972
53.0747 918.37 76.459
75.8153 935.633 82.0502
96.1676 909.059 82.0695
73.1515 892.159 76.4823
78.3521 937.537 82.0419
100.974 954.928 76.3508
121.632 927.948 76.362
98.7043 910.964 82.0612
103.301 956.713 75.1357
122.192 971.91 59.0108
143.273 944.404 59.043
123.959 929.733 75.1469
123.951 973.316 56.7736
136.359 983.952 32.6457
157.82 955.989 32.6731
145.032 945.81 56.8058
137.301 984.734 29.7225
141.64 988.524 1.17322
163.243 960.4 1.19894
158.762 956.771 29.7499
141.641 988.523 -1.9936
137.319 984.701 -30.5408
158.777 956.741 -30.5173
163.244 960.399 -1.96787
136.378 983.915 -33.4636
123.986 973.25 -57.5855
145.063 945.747 -57.5683
157.836 955.955 -33.4401
122.229 971.841 -59.822
103.35 956.623 -75.938
124.005 929.643 -75.9015
143.306 944.338 -59.8048
101.024 954.836 -77.1521
78.4097 937.432 -82.8329
98.7584 910.86 -82.8064
121.679 927.856 -77.1156
75.8734 935.527 -82.8402
53.1348 918.264 -77.2391
73.2069 892.056 -77.2185
96.2221 908.955 -82.8137
50.7832 916.509 -76.0359
31.4736 901.846 -59.9443
51.3042 875.95 -59.9273
70.8553 890.3 -76.0153
29.6691 900.498 -57.7048
16.7358 890.645 -33.4811
36.3943 864.968 -33.4637
49.4997 874.602 -57.6879
15.7571 889.914 -30.544
11.217 886.469 -1.93389
30.8136 860.871 -1.91229
35.4156 864.237 -30.5266
32.9628 858.007 1.27082
37.557 861.432 29.8616
56.6535 835.415 29.8862
51.9982 832.079 1.29231
38.5463 862.15 32.7949
51.6169 871.802 56.9643
70.8825 845.538 56.9955
57.6429 836.133 32.8194
53.4424 873.121 59.2008
72.9864 887.486 75.2836
92.5001 860.866 75.3245
72.7081 846.857 59.2321
75.3674 889.203 76.486
98.3835 906.103 82.0732
118.193 879.066 82.1182
94.8811 862.582 76.5269
100.954 907.962 82.0642
123.882 924.946 76.365
144.015 897.452 76.4005
120.763 880.924 82.1092
126.247 926.678 75.1507
145.561 941.348 59.0469
166.051 913.366 59.0867
146.38 899.184 75.1862
147.361 942.702 56.81
160.148 952.881 32.6773
180.952 924.473 32.7057
167.851 914.719 56.8499
161.117 953.63 29.7531
165.598 957.26 1.20209
186.518 928.694 1.22599
181.92 925.222 29.7815
165.599 957.258 -1.96554
161.132 953.6 -30.515
181.933 925.195 -30.4958
186.519 928.692 -1.94164
160.165 952.848 -33.4389
147.391 942.639 -57.5671
167.878 914.659 -57.5599
180.965 924.442 -33.4198
145.593 941.283 -59.8033
126.292 926.588 -75.9
146.423 899.096 -75.8893
166.08 913.303 -59.7961
123.928 924.854 -77.1135
101.007 907.858 -82.8043
120.814 880.822 -82.8043
144.059 897.362 -77.1028
98.4376 905.999 -82.8125
75.4224 889.1 -77.2172
94.9325 862.482 -77.2145
118.244 878.963 -82.8125
73.0411 887.384 -76.0142
53.49 873.034 -59.9262
72.7522 846.772 -59.9146
92.5511 860.766 -76.0114
51.6622 871.717 -57.6863
38.5567 862.084 -33.4621
57.651 836.068 -33.4438
70.9243 845.455 -57.6747
37.5652 861.37 -30.5245
32.9631 858.003 -1.91018
51.9985 832.076 -1.88869
56.6594 835.354 -30.5062
54.0839 829.174 1.29491
58.7392 832.509 29.8888
77.246 806.134 29.9127
72.5301 802.893 1.31611
59.7415 833.208 32.8227
72.9812 842.614 56.9988
91.6586 815.972 57.0308
78.2483 806.833 32.8466
74.8304 843.898 59.2364
94.6224 857.906 75.3288
113.557 830.878 75.3728
93.5079 817.257 59.2685
97.0344 859.578 76.532
120.346 876.061 82.1233
139.591 848.578 82.1725
115.969 832.549 76.576
122.951 877.869 82.1139
146.203 894.397 76.4051
165.777 866.43 76.4461
142.196 850.386 82.1631
148.605 896.076 75.1907
168.275 910.257 59.0912
188.171 881.818 59.1278
168.179 868.109 75.2316
170.11 911.562 56.8541
183.211 921.316 32.71
203.376 892.486 32.737
190.005 883.122 56.8907
184.202 922.034 29.7846
188.8 925.505 1.22904
209.066 896.527 1.25189
204.367 893.204 29.8116
188.801 925.504 -1.93952
184.215 922.006 -30.4937
204.378 893.178 -30.4751
209.067 896.526 -1.91666
183.225 921.285 -33.4188
170.138 911.502 -57.559
190.03 883.065 -57.5505
203.388 892.457 -33.4003
168.304 910.195 -59.7956
148.647 895.988 -75.8887
168.218 868.024 -75.8852
188.197 881.758 -59.7871
146.247 894.307 -77.1025
123.002 877.768 -82.804
142.243 850.287 -82.8095
165.818 866.343 -77.0989
120.397 875.959 -82.8127
97.0854 859.477 -77.2147
116.017 832.451 -77.2159
139.639 848.478 -82.8183
94.6731 857.807 -76.011
74.8741 843.813 -59.9141
93.5488 817.173 -59.9039
113.604 830.78 -76.0121
73.0227 842.531 -57.6732
59.7493 833.143 -33.4424
78.2542 806.768 -33.424
91.6974 815.891 -57.663
58.745 832.448 -30.5041
54.0841 829.17 -1.88655
72.5304 802.89 -1.86534
77.2499 806.073 -30.4856
74.5498 799.947 1.31863
79.2657 803.188 29.9152
97.1725 776.448 29.9381
92.3956 773.307 1.3394
80.2809 803.867 32.8498
93.6913 813.006 57.034
111.771 785.988 57.0642
98.1878 777.127 32.8727
95.5646 814.253 59.2727
115.613 827.874 75.3771
133.956 800.446 75.4178
113.645 787.235 59.3029
118.057 829.498 76.581
141.68 845.526 82.1776
160.338 817.615 82.2229
136.4 802.069 76.6217
144.32 847.281 82.1679
167.902 863.325 76.4509
186.889 834.912 76.4897
162.979 819.37 82.2132
170.338 864.95 75.2358
190.33 878.66 59.1321
209.618 849.781 59.1644
189.326 836.537 75.2747
192.196 879.917 56.8945
205.567 889.28 32.7407
225.093 860.037 32.7661
211.484 851.038 56.9268
206.578 889.969 29.8145
211.277 893.293 1.25478
230.893 863.912 1.27678
226.104 860.726 29.8398
211.277 893.292 -1.91457
206.588 889.944 -30.4731
226.113 860.702 -30.4545
230.893 863.911 -1.89257
205.578 889.252 -33.3991
192.221 879.86 -57.5494
211.507 850.983 -57.5383
225.104 860.01 -33.3806
190.356 878.6 -59.7864
170.378 864.866 -75.8845
189.362 836.455 -75.8804
209.642 849.723 -59.7754
167.942 863.238 -77.0989
144.367 847.182 -82.8095
163.023 819.274 -82.8125
186.927 834.828 -77.0948
141.727 845.427 -82.8186
118.105 829.4 -77.2162
136.445 801.974 -77.2151
160.383 817.519 -82.8215
115.661 827.777 -76.0117
95.6053 814.17 -59.9035
113.683 787.154 -59.8924
134 800.351 -76.0106
93.7298 812.925 -57.6616
80.2866 803.802 -33.4225
98.1917 777.064 -33.404
111.807 785.908 -57.6505
79.2694 803.128 -30.4835
74.5499 799.944 -1.86321
92.3958 773.304 -1.84243
97.1745 776.389 -30.465
94.3482 770.321 1.34183
99.1251 773.463 29.9406
116.426 746.362 29.9626
111.588 743.323 1.36207
100.154 774.12 32.8757
113.737 782.981 57.0672
131.212 755.591 57.0948
117.455 747.019 32.8977
115.635 784.189 59.3067
135.946 797.4 75.4216
153.686 769.582 75.4574
133.11 756.799 59.3344
138.422 798.973 76.6263
162.361 814.519 82.2274
180.417 786.196 82.2669
156.162 771.154 76.662
165.037 816.217 82.2176
188.947 831.76 76.4941
207.327 802.921 76.5286
183.093 787.895 82.257
191.418 833.331 75.2785
211.71 846.574 59.1682
230.376 817.272 59.1967
209.798 804.492 75.313
213.605 847.786 56.9302
227.214 856.785 32.7694
246.096 827.137 32.793
232.271 818.484 56.9587
228.243 857.447 29.8425
233.031 860.633 1.27948
251.994 830.856 1.30066
247.124 827.799 29.8661
233.032 860.632 -1.89049
228.252 857.423 -30.4525
247.132 827.777 -30.4338
251.994 830.855 -1.86932
227.225 856.758 -33.3792
213.628 847.732 -57.5368
232.292 818.431 -57.5235
246.105 827.111 -33.3605
211.734 846.517 -59.7744
191.454 833.249 -75.8795
209.831 804.413 -75.8726
230.398 817.217 -59.7611
188.984 831.676 -77.0945
165.08 816.122 -82.8122
183.133 787.802 -82.8106
207.361 802.84 -77.0876
162.405 814.422 -82.8214
138.467 798.877 -77.215
156.203 771.062 -77.2103
180.458 786.103 -82.8199
135.99 797.305 -76.01
115.673 784.108 -59.8917
133.146 756.719 -59.8793
153.727 769.49 -76.0052
113.773 782.902 -57.6489
100.157 774.057 -33.4025
117.457 746.957 -33.3842
131.246 755.513 -57.6365
99.127 773.404 -30.4629
94.3483 770.318 -1.84032
111.588 743.32 -1.82008
116.426 746.304 -30.4446
113.473 740.298 1.3644
118.311 743.337 29.9649
135.001 715.88 29.9858
130.101 712.947 1.38404
119.353 743.972 32.9004
133.111 752.544 57.0976
149.974 724.79 57.1227
136.042 716.515 32.9213
135.033 753.711 59.3378
155.608 766.494 75.4608
172.734 738.298 75.492
151.896 725.957 59.3629
158.117 768.014 76.666
182.371 783.056 82.2708
199.81 754.339 82.3046
175.242 739.818 76.6971
185.083 784.697 82.2608
209.317 799.723 76.5325
227.072 770.478 76.5627
202.521 755.98 82.2947
211.821 801.24 75.3164
232.399 814.019 59.2
250.428 784.31 59.2255
229.576 771.994 75.3467
234.321 815.186 56.9616
248.146 823.84 32.7959
266.374 793.795 32.818
252.349 785.477 56.987
249.19 824.476 29.8686
254.06 827.533 1.3032
272.361 797.366 1.32358
267.419 794.432 29.8907
254.06 827.532 -1.86725
249.198 824.453 -30.4318
267.426 794.41 -30.4132
272.362 797.365 -1.84686
248.155 823.814 -33.3589
234.341 815.134 -57.5218
252.368 785.427 -57.5069
266.383 793.771 -33.3403
232.421 813.964 -59.7599
211.854 801.161 -75.8714
229.607 771.918 -75.8618
250.447 784.258 -59.745
209.351 799.642 -77.087
185.123 784.604 -82.8099
202.559 755.89 -82.8042
227.103 770.4 -77.0773
182.412 782.963 -82.8194
158.158 767.922 -77.2098
175.28 739.728 -77.2017
199.848 754.248 -82.8136
155.649 766.402 -76.0042
135.068 753.632 -59.8783
151.929 725.88 -59.8645
172.772 738.208 -75.9961
133.144 752.466 -57.6348
119.354 743.91 -33.3825
136.042 716.454 -33.3643
150.005 724.714 -57.621
118.311 743.279 -30.4425
113.473 740.295 -1.81799
130.101 712.944 -1.79835
134.999 715.823 -30.4243
131.918 709.883 1.38627
136.818 712.816 29.988
152.891 685.011 30.0078
147.93 682.187 1.40526
137.872 713.428 32.9239
151.803 721.703 57.1252
168.048 693.593 57.1479
153.945 685.624 32.9436
153.75 722.829 59.3659
174.587 735.169 75.495
191.09 706.604 75.5221
169.994 694.719 59.3886
177.128 736.635 76.7005
201.695 751.156 82.308
218.504 722.057 82.3371
193.63 708.07 76.7276
204.441 752.738 82.298
228.992 767.236 76.566
246.108 737.6 76.5927
221.25 723.639 82.3271
231.528 768.697 75.3496
252.38 781.013 59.2284
269.759 750.911 59.2515
248.645 739.061 75.3763
254.327 782.136 56.9897
268.352 790.454 32.8207
285.917 760.024 32.8416
271.706 752.034 57.0128
269.411 791.066 29.8931
274.354 794 1.32597
291.986 763.451 1.34557
286.976 760.636 29.9139
274.354 793.998 -1.84481
269.418 791.044 -30.4112
286.983 760.615 -30.3929
291.987 763.45 -1.82521
268.36 790.43 -33.3386
254.346 782.086 -57.5052
271.723 751.986 -57.4895
285.925 760.001 -33.3203
252.399 780.961 -59.7435
231.559 768.621 -75.8603
248.672 738.987 -75.8485
269.777 750.861 -59.7278
229.023 767.158 -77.0763
204.478 752.648 -82.8031
221.284 723.553 -82.794
246.137 737.525 -77.0644
201.733 751.065 -82.8127
177.165 736.545 -77.2008
193.665 707.983 -77.1901
218.539 721.97 -82.8036
174.625 735.08 -75.9949
153.782 722.751 -59.8633
170.025 694.643 -59.8484
191.125 706.518 -75.9842
151.834 721.627 -57.6193
137.872 713.368 -33.3625
153.943 685.564 -33.3445
168.076 693.519 -57.6045
136.816 712.759 -30.4222
131.918 709.88 -1.79629
147.93 682.184 -1.7773
152.887 684.956 -30.4042
149.678 679.085 1.40739
154.639 681.909 30.0099
170.09 653.766 30.0288
165.07 651.052 1.42569
155.706 682.498 32.946
169.809 690.467 57.1502
185.428 662.012 57.171
171.157 654.356 32.9648
171.779 691.55 59.3913
192.874 703.436 75.5247
208.745 674.517 75.5486
187.398 663.095 59.4121
195.445 704.847 76.7305
220.32 718.833 82.34
236.488 689.369 82.3652
211.316 675.927 76.7543
223.099 720.356 82.33
247.957 734.316 76.5956
264.423 704.305 76.6192
239.267 690.891 82.3552
250.525 735.721 75.3789
271.639 747.571 59.2541
288.357 717.092 59.2753
266.99 705.71 75.4025
273.61 748.65 57.0153
287.822 756.64 32.844
304.715 725.836 32.8637
290.329 718.17 57.0364
288.894 757.227 29.9162
293.904 760.043 1.34782
310.861 729.123 1.36665
305.788 726.423 29.9358
293.905 760.042 -1.82319
288.901 757.207 -30.3909
305.794 726.404 -30.373
310.861 729.122 -1.80435
287.829 756.617 -33.3185
273.627 748.603 -57.4877
290.344 718.125 -57.4716
304.722 725.814 -33.3006
271.656 747.521 -59.7263
250.552 735.648 -75.8469
267.015 705.64 -75.8335
288.373 717.043 -59.7101
247.986 734.241 -77.0632
223.133 720.269 -82.7928
239.298 690.807 -82.7813
264.449 704.233 -77.0497
220.354 718.746 -82.8024
195.48 704.76 -77.1888
211.348 675.843 -77.1763
236.519 689.285 -82.7909
192.909 703.35 -75.9827
171.809 691.475 -59.847
187.426 663.022 -59.8317
208.777 674.434 -75.9701
169.837 690.394 -57.6027
155.704 682.439 -33.3427
171.153 654.298 -33.3252
185.454 661.941 -57.5874
154.635 681.854 -30.4022
149.678 679.082 -1.7753
165.069 651.05 -1.757
170.084 653.713 -30.3846
166.748 647.913 1.42772
171.768 650.628 30.0308
186.592 622.157 30.0487
181.514 619.556 1.4453
172.848 651.193 32.967
187.119 658.85 57.1732
202.106 630.062 57.1924
187.672 622.722 32.9849
189.112 659.889 59.4145
210.459 671.311 75.5509
225.69 642.05 75.5721
204.099 631.101 59.4337
213.06 672.665 76.7569
238.232 686.106 82.3678
253.75 656.29 82.3899
228.291 643.404 76.7781
241.044 687.567 82.3577
266.2 700.981 76.6218
282.004 670.611 76.6428
256.562 657.751 82.3798
268.797 702.329 75.4049
290.163 713.711 59.2777
306.21 682.868 59.2972
284.602 671.959 75.4259
292.158 714.745 57.0387
306.545 722.412 32.8659
322.758 691.247 32.8845
308.205 683.903 57.0582
307.63 722.974 29.938
312.704 725.674 1.36878
328.976 694.394 1.38682
323.843 691.809 29.9565
312.704 725.673 -1.80239
307.636 722.955 -30.371
323.849 691.79 -30.3536
328.976 694.393 -1.78434
306.552 722.39 -33.2988
292.173 714.7 -57.4697
308.219 683.859 -57.4535
322.764 691.225 -33.2814
290.179 713.663 -59.7085
268.822 702.259 -75.8319
284.624 671.892 -75.8174
306.225 682.822 -59.6922
266.225 700.909 -77.0483
241.075 687.484 -82.7798
256.59 657.671 -82.7667
282.028 670.542 -77.0338
238.263 686.022 -82.7895
213.092 672.581 -77.1749
228.32 643.323 -77.161
253.779 656.209 -82.7763
210.491 671.228 -75.9686
189.139 659.816 -59.8301
204.124 631.03 -59.8146
225.719 641.97 -75.9547
187.145 658.778 -57.5856
172.844 651.135 -33.3234
187.666 622.667 -33.3063
202.129 629.992 -57.5701
171.763 650.574 -30.3827
166.748 647.911 -1.75505
181.513 619.553 -1.73747
186.585 622.105 -30.3656
183.122 616.381 1.44723
188.201 618.983 30.0507
202.391 590.196 30.0677
197.256 587.709 1.46408
189.293 619.524 32.9869
203.726 626.863 57.1944
218.074 597.754 57.212
203.483 590.737 33.0039
205.742 627.858 59.4358
227.333 638.807 75.5742
241.916 609.218 75.5931
220.089 598.749 59.4535
229.963 640.103 76.7803
255.422 652.989 82.3922
270.282 622.837 82.4117
244.546 610.514 76.7992
258.265 654.388 82.3821
283.708 667.248 76.6451
298.842 636.535 76.664
273.125 624.236 82.4016
286.334 668.539 75.4281
307.942 679.448 59.2994
323.309 648.258 59.3175
301.468 637.826 75.447
309.959 680.439 57.0603
324.512 687.782 32.8866
340.036 656.27 32.9041
325.326 649.249 57.0784
325.61 688.321 29.9586
330.742 690.906 1.38883
346.322 659.279 1.4061
341.134 656.808 29.9761
330.742 690.905 -1.78243
325.615 688.302 -30.3517
341.139 656.79 -30.3348
346.322 659.278 -1.76516
324.518 687.761 -33.2796
309.973 680.395 -57.4517
325.338 649.207 -57.4356
340.042 656.249 -33.2627
307.957 679.402 -59.6905
286.356 668.472 -75.8157
301.488 637.761 -75.8006
323.322 648.214 -59.6744
283.731 667.18 -77.0322
258.293 654.309 -82.7651
273.15 624.159 -82.7509
298.863 636.469 -77.0171
255.451 652.909 -82.7748
229.992 640.023 -77.1595
244.573 610.436 -77.1449
270.307 622.76 -82.7606
227.362 638.727 -75.9531
205.767 627.788 -59.8129
220.113 598.681 -59.7974
241.942 609.141 -75.9385
203.75 626.794 -57.5683
189.287 619.468 -33.3046
203.475 590.683 -33.2881
218.096 597.687 -57.5527
188.193 618.93 -30.3638
183.122 616.378 -1.73559
197.256 587.706 -1.71875
202.382 590.146 -30.3473
198.794 584.5 1.46592
203.929 586.987 30.0695
217.479 557.896 30.0856
212.291 555.525 1.48201
205.032 587.504 33.0058
219.624 594.52 57.2139
233.326 565.102 57.2302
218.583 558.413 33.0219
221.661 595.47 59.4554
243.487 605.939 75.595
257.415 576.035 75.6119
235.363 566.053 59.4717
246.145 607.177 76.8012
271.881 619.5 82.4137
286.073 589.026 82.4309
260.073 577.273 76.8181
274.754 620.836 82.4036
300.471 633.135 76.666
314.926 602.094 76.683
288.946 590.362 82.4208
303.124 634.368 75.449
324.965 644.801 59.3195
339.643 613.279 59.3363
317.58 603.327 75.466
327.004 645.747 57.0804
341.714 652.768 32.9061
356.541 620.922 32.9227
341.681 614.225 57.0972
342.823 653.282 29.978
348.011 655.753 1.408
362.891 623.793 1.42449
357.65 621.436 29.9946
348.011 655.752 -1.76332
342.828 653.264 -30.3329
357.655 621.418 -30.3166
362.891 623.792 -1.74683
341.72 652.747 -33.2609
327.016 645.705 -57.4338
341.692 614.185 -57.418
356.546 620.902 -33.2446
324.978 644.757 -59.6727
303.145 634.304 -75.7989
317.598 603.266 -75.7834
339.655 613.237 -59.6569
300.492 633.07 -77.0155
274.779 620.76 -82.7492
288.969 590.289 -82.7342
314.945 602.031 -77
271.906 619.423 -82.7589
246.171 607.1 -77.1432
260.097 577.199 -77.1282
286.096 588.953 -82.7439
243.513 605.863 -75.9368
221.683 595.403 -59.7957
235.384 565.988 -59.7803
257.439 575.962 -75.9217
219.645 594.454 -57.551
205.024 587.45 -33.2863
218.573 558.361 -33.2704
233.345 565.039 -57.5355
203.92 586.937 -30.3455
198.794 584.497 -1.71694
212.29 555.522 -1.70084
217.469 557.848 -30.3296
213.758 552.283 1.48376
218.946 554.654 30.0874
231.852 525.271 30.1025
226.611 523.017 1.49909
220.061 555.146 33.0236
234.804 561.836 57.232
247.855 532.122 57.2469
232.967 525.763 33.0388
236.861 562.74 59.4735
258.913 572.723 75.6137
272.179 542.518 75.6287
249.912 533.027 59.4885
261.598 573.902 76.8199
287.598 585.655 82.4327
301.116 554.874 82.4479
274.864 543.697 76.8349
290.5 586.927 82.4226
316.48 598.659 76.6848
330.249 567.305 76.7
304.018 556.147 82.4378
319.16 599.833 75.4678
341.223 609.785 59.3381
355.203 577.947 59.3537
332.929 568.48 75.483
343.281 610.687 57.099
358.141 617.384 32.9245
372.265 585.219 32.9401
357.262 578.848 57.1146
359.261 617.873 29.9964
364.502 620.23 1.42628
378.676 587.95 1.44193
373.385 585.709 30.0121
364.503 620.229 -1.74506
359.266 617.856 -30.3149
373.389 585.692 -30.2992
378.676 587.95 -1.72941
358.147 617.364 -33.2429
343.292 610.647 -57.4162
357.272 578.81 -57.4007
372.27 585.2 -33.2272
341.235 609.743 -59.6551
319.178 599.773 -75.7817
332.945 568.422 -75.766
355.214 577.907 -59.6396
316.499 598.597 -76.9983
290.522 586.855 -82.7325
304.038 556.077 -82.717
330.266 567.246 -76.9827
287.621 585.582 -82.7423
261.622 573.828 -77.1265
274.885 543.627 -77.111
301.137 554.804 -82.7267
258.937 572.65 -75.92
236.882 562.676 -59.7786
249.93 532.965 -59.7633
272.2 542.449 -75.9046
234.823 561.772 -57.5338
220.051 555.094 -33.2687
232.955 525.713 -33.2534
247.871 532.061 -57.5186
218.935 554.606 -30.3278
213.757 552.28 -1.6991
226.611 523.014 -1.68377
231.839 525.225 -30.3125
228.006 519.743 1.50074
233.247 521.997 30.1042
245.502 492.335 30.1184
240.212 490.199 1.51524
234.372 522.464 33.0404
249.26 528.824 57.2486
261.653 498.828 57.2622
246.627 492.802 33.0546
251.337 529.682 59.49
273.604 539.174 75.6303
286.202 508.682 75.6435
263.73 499.687 59.5037
276.314 540.293 76.8365
302.567 551.47 82.4494
315.404 520.397 82.4625
288.912 509.801 76.8496
305.496 552.678 82.4394
331.727 563.837 76.7016
344.802 532.186 76.7151
318.333 521.605 82.4525
334.432 564.952 75.4846
356.706 574.42 59.3553
369.983 542.28 59.3697
347.507 533.302 75.4982
358.784 575.276 57.1162
373.787 581.646 32.9418
387.199 549.178 32.9566
372.06 543.136 57.1307
374.917 582.111 30.0137
380.209 584.353 1.44363
393.669 551.769 1.45859
388.33 549.643 30.0285
380.209 584.352 -1.7277
374.922 582.095 -30.2975
388.334 549.627 -30.2825
393.669 551.768 -1.71274
373.792 581.627 -33.2255
358.794 575.238 -57.399
372.069 543.1 -57.3838
387.204 549.16 -33.2105
356.717 574.38 -59.6379
334.448 564.894 -75.7643
347.521 533.247 -75.7485
369.992 542.242 -59.6227
331.743 563.777 -76.9809
305.516 552.609 -82.7152
318.351 521.54 -82.6993
344.817 532.13 -76.9651
302.587 551.4 -82.725
276.335 540.223 -77.1093
288.931 509.735 -77.0937
315.422 520.331 -82.709
273.625 539.104 -75.9029
251.355 529.621 -59.7616
263.746 499.628 -59.7467
286.221 508.616 -75.8873
249.277 528.763 -57.5169
234.361 522.415 -33.2517
246.614 492.755 -33.2371
261.668 498.77 -57.502
233.234 521.951 -30.3109
228.006 519.741 -1.68211
240.211 490.196 -1.66761
245.488 492.291 -30.2962
241.535 486.895 1.51678
246.824 489.031 30.1199
258.424 459.102 30.1332
253.087 457.085 1.53041
247.96 489.472 33.0561
262.986 495.499 57.2637
274.716 465.234 57.2759
259.559 459.543 33.0693
265.081 496.311 59.5051
287.553 505.307 75.6448
299.477 474.542 75.6561
276.811 466.046 59.5173
290.287 506.366 76.851
316.78 516.961 82.4639
328.93 485.612 82.4748
302.211 475.602 76.8622
319.734 518.105 82.4538
346.203 528.686 76.7165
358.579 496.754 76.7282
331.885 486.756 82.4648
348.932 529.742 75.4996
371.408 538.721 59.3712
383.975 506.296 59.3844
361.308 497.81 75.5113
373.504 539.531 57.1322
388.643 545.572 32.9581
401.339 512.815 32.972
386.07 507.107 57.1454
389.783 546.013 30.0301
395.122 548.139 1.46019
407.864 515.264 1.47433
402.479 513.256 30.044
395.122 548.138 -1.71111
389.787 545.997 -30.2809
402.483 513.24 -30.2665
407.864 515.263 -1.69696
388.647 545.554 -33.2088
373.512 539.495 -57.3822
386.078 507.072 -57.3674
401.343 512.798 -33.1945
371.417 538.683 -59.621
348.946 529.687 -75.7468
361.32 497.759 -75.7308
383.983 506.26 -59.6062
346.218 528.63 -76.9633
319.752 518.04 -82.6975
331.9 486.694 -82.681
358.592 496.701 -76.9473
316.797 516.896 -82.7072
290.306 506.3 -77.0919
302.227 475.539 -77.076
328.946 485.55 -82.6908
287.572 505.241 -75.8856
265.097 496.253 -59.745
276.826 465.991 -59.7303
299.493 474.481 -75.8697
263 495.441 -57.5004
247.947 489.426 -33.2355
259.544 459.499 -33.2216
274.729 465.179 -57.4857
246.81 488.987 -30.2947
241.534 486.892 -1.66604
253.086 457.083 -1.65241
258.408 459.06 -30.2808
254.337 453.752 1.53184
259.673 455.769 30.1346
270.612 425.586 30.1468
265.231 423.689 1.5446
260.819 456.185 33.0707
275.975 461.875 57.2772
287.038 431.355 57.288
271.757 426.002 33.0828
278.088 462.641 59.5185
300.754 471.138 75.6573
311.999 440.116 75.6664
289.151 432.121 59.5292
303.511 472.136 76.8633
330.229 482.146 82.4759
341.687 450.536 82.4844
314.755 441.114 76.8724
333.209 483.225 82.4659
359.903 493.224 76.7293
371.573 461.028 76.7389
344.666 451.615 82.4744
362.654 494.22 75.5126
385.321 502.706 59.3857
397.172 470.013 59.3974
374.324 462.024 75.5222
387.434 503.47 57.1468
402.702 509.179 32.9734
414.677 476.149 32.9861
399.285 470.777 57.1585
403.852 509.594 30.0454
409.237 511.603 1.47582
421.255 478.453 1.489
415.827 476.564 30.0581
409.237 511.602 -1.69541
403.856 509.579 -30.265
415.83 476.549 -30.2513
421.255 478.453 -1.68223
402.706 509.162 -33.1929
387.442 503.436 -57.3658
399.292 470.745 -57.3514
414.68 476.132 -33.1792
385.329 502.67 -59.6045
362.666 494.169 -75.729
374.335 461.976 -75.7127
397.179 469.979 -59.5901
359.916 493.171 -76.9455
333.224 483.164 -82.6792
344.68 451.558 -82.662
371.584 460.978 -76.9291
330.245 482.085 -82.6889
303.527 472.074 -77.0742
314.77 441.056 -77.0578
341.701 450.479 -82.6717
300.77 471.076 -75.868
278.102 462.586 -59.7286
289.163 432.069 -59.7142
312.013 440.058 -75.8516
275.988 461.821 -57.4841
260.803 456.141 -33.22
271.741 425.96 -33.2068
287.048 431.304 -57.4697
259.657 455.727 -30.2793
254.336 453.75 -1.65092
265.23 423.687 -1.63816
270.595 425.547 -30.2661
266.407 420.328 1.54592
271.788 422.225 30.1481
282.061 391.801 30.1592
276.638 390.025 1.55776
272.942 422.616 33.084
288.223 427.969 57.2892
298.613 397.207 57.2982
283.216 392.192 33.0951
290.352 428.689 59.5302
313.2 436.683 75.6674
323.761 405.419 75.674
300.742 397.927 59.5393
315.978 437.621 76.8733
342.91 447.043 82.4853
353.671 415.188 82.4909
326.539 406.356 76.8799
345.912 448.057 82.4753
372.819 457.469 76.7398
383.779 425.026 76.747
356.673 416.202 82.4809
375.591 458.405 75.5233
398.439 466.394 59.3985
409.57 433.449 59.4086
386.551 425.962 75.5305
400.569 467.112 57.1598
415.96 472.483 32.9873
427.208 439.196 32.9989
411.699 434.167 57.1699
417.119 472.873 30.0595
422.547 474.762 1.49036
433.836 441.353 1.50272
428.367 439.586 30.0711
422.547 474.762 -1.68076
417.122 472.858 -30.2499
428.37 439.571 -30.2369
433.837 441.352 -1.6684
415.964 472.467 -33.1777
400.576 467.08 -57.3498
411.705 434.137 -57.3356
427.211 439.18 -33.1647
398.446 466.36 -59.5884
375.602 458.357 -75.711
386.56 425.917 -75.694
409.576 433.417 -59.5741
372.83 457.42 -76.9272
345.926 448 -82.6601
356.684 416.149 -82.6418
383.788 424.98 -76.9103
342.924 446.986 -82.6698
315.992 437.564 -77.0559
326.551 406.303 -77.0389
353.682 415.135 -82.6516
313.214 436.626 -75.8499
290.364 428.637 -59.7124
300.752 397.879 -59.6981
323.773 405.365 -75.8329
288.233 427.919 -57.4682
272.925 422.575 -33.2053
283.197 392.153 -33.1928
298.621 397.16 -57.4538
271.77 422.186 -30.2647
266.406 420.326 -1.63676
276.637 390.023 -1.62492
282.042 391.765 -30.2522
277.74 386.638 1.55896
283.163 388.415 30.1604
292.767 357.763 30.1703
287.305 356.106 1.56984
284.326 388.78 33.0961
299.723 393.795 57.2992
309.436 362.805 57.3064
293.93 358.128 33.106
301.868 394.468 59.54
324.887 401.96 75.6747
334.76 370.468 75.6783
311.581 363.478 59.5471
327.685 402.837 76.8804
354.817 411.669 82.4914
364.875 379.586 82.4936
337.558 371.345 76.884
357.84 412.617 82.4815
384.946 421.441 76.7476
395.19 388.768 76.752
367.898 380.535 82.4837
387.738 422.316 75.5314
410.757 429.804 59.4095
421.162 396.625 59.4179
397.982 389.643 75.5357
412.902 430.474 57.171
428.411 435.503 33
438.928 401.973 33.0105
423.307 397.295 57.1794
429.578 435.867 30.0724
435.048 437.634 1.50396
445.605 403.978 1.51547
440.095 402.337 30.0828
435.048 437.633 -1.66699
429.581 435.852 -30.2354
440.098 402.323 -30.223
445.605 403.977 -1.65548
428.414 435.487 -33.1631
412.908 430.444 -57.334
423.313 397.267 -57.3197
438.931 401.958 -33.1506
410.763 429.772 -59.5723
387.748 422.271 -75.6922
397.991 389.601 -75.6742
421.168 396.595 -59.5581
384.956 421.395 -76.9082
357.851 412.565 -82.6398
367.908 380.486 -82.6199
395.199 388.725 -76.8902
354.828 411.616 -82.6495
327.697 402.784 -77.0368
337.568 371.296 -77.0187
364.885 379.538 -82.6296
324.899 401.907 -75.8311
301.878 394.421 -59.6963
311.589 363.434 -59.6819
334.77 370.419 -75.8129
299.732 393.749 -57.4523
284.308 388.742 -33.1913
293.91 358.092 -33.1796
309.443 362.763 -57.4379
283.144 388.379 -30.2509
277.739 386.636 -1.6236
287.304 356.104 -1.61272
292.747 357.729 -30.2391
288.332 352.695 1.57091
293.795 354.351 30.1714
302.725 323.482 30.18
297.226 321.945 1.5808
294.966 354.691 33.1068
310.472 359.369 57.3072
319.504 328.164 57.312
303.896 323.822 33.1154
312.631 359.995 59.5475
335.81 366.984 75.6787
344.991 335.28 75.6786
321.663 328.79 59.5524
338.626 367.801 76.8841
365.943 376.043 82.4937
375.295 343.75 82.4915
347.807 336.096 76.884
368.987 376.925 82.4838
396.279 385.158 76.7521
405.803 352.274 76.753
378.339 344.632 82.4817
399.089 385.973 75.5363
422.269 392.954 59.4184
431.946 359.559 59.4246
408.614 353.088 75.5372
424.429 393.577 57.1803
440.049 398.255 33.0113
449.833 364.499 33.0204
434.105 360.182 57.1865
441.225 398.592 30.0839
446.735 400.233 1.51657
456.557 366.345 1.52718
451.009 364.835 30.093
446.735 400.232 -1.65412
441.228 398.578 -30.2216
451.012 364.822 -30.2096
456.558 366.344 -1.64351
440.053 398.24 -33.1491
424.435 393.548 -57.3181
434.111 360.155 -57.3035
449.836 364.484 -33.137
422.275 392.924 -59.5562
399.098 385.931 -75.6723
408.621 353.05 -75.6526
431.951 359.531 -59.5415
396.287 385.116 -76.888
368.996 376.877 -82.6176
378.347 344.589 -82.5953
405.811 352.235 -76.8682
365.953 375.994 -82.6273
338.636 367.753 -77.0164
347.815 336.053 -76.9965
375.304 343.706 -82.6049
335.82 366.936 -75.811
312.639 359.952 -59.68
321.67 328.751 -59.6653
344.999 335.236 -75.791
310.478 359.326 -57.4365
294.946 354.656 -33.1781
303.875 323.79 -33.167
319.509 328.126 -57.4217
293.774 354.318 -30.2379
288.331 352.693 -1.6115
297.225 321.944 -1.60161
302.703 323.452 -30.2269
298.178 318.51 1.58174
303.678 320.047 30.1809
311.931 288.973 30.1882
306.397 287.554 1.59059
304.856 320.362 33.116
320.464 324.704 57.3126
328.813 293.297 57.3148
313.109 289.287 33.1233
322.637 325.283 59.5524
345.964 331.773 75.6786
354.449 299.872 75.674
330.985 293.876 59.5546
348.797 332.53 76.8836
376.286 340.183 82.4911
384.928 307.699 82.4836
357.283 300.628 76.879
379.348 341.001 82.4814
406.812 348.643 76.7527
415.614 315.568 76.7492
387.99 308.516 82.4738
409.641 349.395 75.5373
432.972 355.866 59.4248
441.916 322.274 59.4282
418.442 316.32 75.5339
435.146 356.44 57.1871
450.873 360.757 33.021
459.921 326.788 33.0287
444.09 322.848 57.1905
452.057 361.065 30.094
457.606 362.575 1.52812
466.692 328.467 1.53785
461.105 327.097 30.1016
457.606 362.574 -1.6422
452.06 361.052 -30.2083
461.108 327.084 -30.1966
466.692 328.466 -1.63247
450.877 360.742 -33.1354
435.151 356.413 -57.3018
444.095 322.823 -57.2862
459.925 326.774 -33.1237
432.977 355.838 -59.5395
409.648 349.358 -75.6506
418.449 316.286 -75.6284
441.921 322.248 -59.5239
406.819 348.604 -76.8657
379.356 340.957 -82.5928
387.997 308.477 -82.5669
415.62 315.532 -76.8436
376.294 340.14 -82.6024
348.806 332.487 -76.9939
357.29 300.59 -76.9714
384.936 307.66 -82.5765
345.972 331.731 -75.789
322.643 325.245 -59.6632
330.991 293.842 -59.6478
354.456 299.834 -75.7664
320.469 324.666 -57.4202
304.835 320.331 -33.1655
313.087 289.259 -33.1551
328.817 293.263 -57.4048
303.656 320.018 -30.2257
298.177 318.509 -1.60047
306.396 287.553 -1.59161
311.908 288.946 -30.2153
307.274 284.097 1.59138
312.808 285.515 30.1889
320.382 254.244 30.1947
314.815 252.943 1.59916
313.994 285.805 33.1236
329.697 289.815 57.3151
337.359 258.217 57.3141
321.567 254.534 33.1293
331.882 290.349 59.5541
355.346 296.344 75.6735
363.134 264.262 75.6633
339.544 258.751 59.5531
358.195 297.041 76.8779
385.841 304.112 82.4825
393.771 271.456 82.4683
365.982 264.959 76.8677
388.919 304.864 82.4729
416.543 311.916 76.7483
424.619 278.672 76.7395
396.849 272.208 82.4586
419.388 312.607 75.5336
442.862 318.56 59.428
451.072 284.791 59.4278
427.464 279.363 75.5248
445.049 319.084 57.1908
460.88 323.024 33.0289
469.191 288.857 33.0348
453.259 285.315 57.1906
462.071 323.304 30.1023
467.658 324.674 1.53861
476.007 290.357 1.54739
470.382 289.137 30.1082
467.658 324.673 -1.63119
462.074 323.29 -30.1953
470.385 289.124 -30.1838
476.007 290.356 -1.62241
460.883 323.01 -33.1219
445.054 319.059 -57.2845
453.264 285.292 -57.2672
469.194 288.843 -33.1104
442.867 318.535 -59.5216
419.394 312.573 -75.6261
427.47 279.333 -75.6006
451.077 284.767 -59.5044
416.549 311.881 -76.8407
388.926 304.826 -82.564
396.856 272.174 -82.5335
424.625 278.641 -76.8152
385.848 304.074 -82.5736
358.202 297.004 -76.9684
365.989 264.926 -76.9423
393.777 271.422 -82.5431
355.353 296.307 -75.7641
331.887 290.315 -59.6454
339.549 258.723 -59.6289
363.14 264.229 -75.738
329.701 289.782 -57.4033
313.971 285.778 -33.1536
321.544 254.51 -33.1438
337.362 258.189 -57.3867
312.786 285.489 -30.2143
307.273 284.096 -1.59056
314.814 252.941 -1.58278
320.358 254.222 -30.2044
315.617 249.464 1.59979
321.184 250.766 30.1953
328.076 219.307 30.1993
322.479 218.119 1.60645
322.376 251.031 33.1293
338.168 254.714 57.3142
345.142 222.937 57.3097
329.268 219.572 33.1333
340.364 255.204 59.5521
363.953 260.714 75.6623
371.041 228.466 75.6457
347.338 223.426 59.5477
366.816 261.353 76.8659
394.604 267.85 82.4665
401.82 235.044 82.4443
373.904 229.105 76.8493
397.698 268.538 82.457
425.468 275.003 76.7379
432.816 241.616 76.7229
404.914 235.732 82.4348
428.328 275.632 75.524
451.936 281.06 59.4269
459.41 247.135 59.4218
435.676 242.245 75.509
454.136 281.531 57.1905
470.068 285.074 33.0346
477.641 250.72 33.0383
461.61 247.606 57.1853
471.266 285.321 30.1088
476.892 286.542 1.54796
484.504 252.025 1.55573
478.84 250.968 30.1125
476.892 286.541 -1.62115
471.27 285.308 -30.1825
478.844 250.955 -30.1709
484.504 252.025 -1.61338
470.072 285.059 -33.1084
454.141 281.508 -57.2652
461.616 247.585 -57.2451
477.645 250.706 -33.0968
451.941 281.036 -59.5018
428.334 275.602 -75.598
435.682 242.218 -75.5684
459.415 247.113 -59.4816
425.474 274.972 -76.8118
397.705 268.505 -82.5301
404.921 235.704 -82.4939
432.822 241.589 -76.7822
394.611 267.817 -82.5396
366.823 261.321 -76.9389
373.911 229.078 -76.9085
401.827 235.015 -82.5033
363.959 260.682 -75.7354
340.368 255.176 -59.6263
347.342 223.404 -59.6083
371.048 228.439 -75.705
338.171 254.687 -57.3851
322.352 251.008 -33.1422
329.244 219.553 -33.1328
345.145 222.915 -57.3672
321.16 250.744 -30.2034
315.616 249.463 -1.5818
322.477 218.118 -1.57514
328.052 219.289 -30.1941
323.205 214.62 1.60691
328.802 215.807 30.1998
335.014 184.166 30.2018
329.389 183.091 1.61244
330 216.049 33.133
345.874 219.414 57.3094
352.16 187.466 57.3013
336.212 184.408 33.135
348.08 219.86 59.546
371.784 224.9 75.6441
378.172 192.501 75.6212
354.367 187.912 59.538
374.659 225.483 76.8467
402.575 231.422 82.4416
409.075 198.49 82.411
381.048 193.084 76.8237
405.683 232.048 82.4324
433.585 237.931 76.7204
440.203 204.431 76.6985
412.183 199.116 82.4017
436.459 238.498 75.5073
460.193 243.389 59.4201
466.928 209.33 59.4076
443.077 204.998 75.4853
462.405 243.804 57.1845
478.436 246.918 33.0375
485.27 212.388 33.0384
469.14 209.745 57.172
479.642 247.131 30.1128
485.306 248.189 1.55607
492.178 213.48 1.56274
486.476 212.601 30.1137
485.306 248.188 -1.61212
479.646 247.119 -30.1697
486.481 212.589 -30.1575
492.179 213.479 -1.60544
478.441 246.905 -33.0945
462.411 243.783 -57.2428
469.147 209.727 -57.2177
485.275 212.375 -33.0823
460.198 243.367 -59.4785
436.465 238.472 -75.5652
443.084 204.975 -75.5311
466.934 209.311 -59.4534
433.591 237.905 -76.7783
405.69 232.02 -82.4899
412.191 199.093 -82.4475
440.21 204.408 -76.7442
402.582 231.394 -82.4992
374.666 225.457 -76.9044
381.055 193.064 -76.8698
409.083 198.467 -82.4568
371.79 224.874 -75.702
348.085 219.838 -59.6053
354.372 187.897 -59.5857
378.179 192.481 -75.6673
345.877 219.392 -57.3655
329.976 216.031 -33.1311
336.188 184.396 -33.1218
352.164 187.451 -57.3458
328.778 215.79 -30.1932
323.204 214.619 -1.57423
329.388 183.09 -1.5687
334.99 184.155 -30.1839
330.041 179.572 1.61266
335.666 180.647 30.202
341.21 148.83 30.1995
335.564 147.864 1.61711
336.869 180.866 33.1342
352.817 183.923 57.3005
358.423 151.813 57.2866
342.413 149.049 33.1317
355.032 184.329 59.5357
378.838 188.918 75.6189
384.527 156.385 75.589
360.638 152.218 59.5218
381.724 189.448 76.8202
409.751 194.854 82.4074
415.532 161.825 82.3671
387.413 156.915 76.7903
412.871 195.421 82.3983
440.891 200.735 76.6951
446.77 167.16 76.6635
418.651 162.392 82.3579
443.777 201.239 75.4826
467.629 205.571 59.4049
473.612 171.398 59.3798
449.657 167.664 75.451
469.853 205.927 57.1703
485.982 208.569 33.0366
492.061 173.866 33.0322
475.836 171.753 57.1453
487.195 208.744 30.1137
492.898 209.623 1.56275
499.012 174.722 1.56804
493.274 174.041 30.1092
492.898 209.622 -1.60414
487.2 208.733 -30.1562
493.281 174.031 -30.1414
499.012 174.721 -1.59885
485.988 208.557 -33.0793
469.859 205.908 -57.2147
475.845 171.738 -57.1798
492.068 173.855 -33.0645
467.635 205.552 -59.4494
443.785 201.217 -75.5271
449.667 167.645 -75.486
473.621 171.382 -59.4145
440.898 200.713 -76.7396
412.879 195.398 -82.4429
418.662 162.373 -82.3929
446.78 167.141 -76.6985
409.759 194.831 -82.452
381.731 189.428 -76.8651
387.423 156.901 -76.8253
415.542 161.806 -82.4021
378.845 188.899 -75.6638
355.037 184.314 -59.5822
360.645 152.212 -59.5583
384.536 156.372 -75.6241
352.821 183.909 -57.3439
336.845 180.854 -33.1198
342.391 149.045 -33.1079
358.428 151.807 -57.32
335.642 180.636 -30.1829
330.04 179.571 -1.56776
335.562 147.864 -1.56331
341.188 148.827 -30.171
336.145 144.327 1.6165
341.792 145.292 30.1989
346.738 113.316 30.1729
341.085 112.459 1.62005
342.998 145.489 33.1289
359.008 148.253 57.2839
363.977 115.996 57.2345
347.944 113.513 33.1029
361.228 148.62 59.5171
385.117 152.787 75.5842
390.123 120.141 75.5176
366.198 116.363 59.4677
388.01 153.268 76.7842
416.129 158.178 82.361
421.176 125.084 82.2836
393.016 120.622 76.7175
419.256 158.689 82.352
447.375 163.458 76.6576
452.472 129.86 76.5886
424.304 125.595 82.2747
450.272 163.897 75.4454
474.228 167.631 59.3742
479.402 133.352 59.3168
455.369 130.3 75.3764
476.461 167.919 57.1415
492.686 170.032 33.0284
497.924 135.149 33.0062
481.636 133.641 57.0841
493.904 170.164 30.1085
499.642 170.845 1.5673
504.899 135.741 1.57044
499.143 135.281 30.0862
499.643 170.844 -1.59718
493.911 170.154 -30.1398
499.152 135.273 -30.1112
504.899 135.741 -1.59404
492.693 170.021 -33.0599
476.47 167.904 -57.1752
481.649 133.629 -57.1113
497.934 135.141 -33.0313
474.237 167.615 -59.408
450.283 163.878 -75.4794
455.384 130.284 -75.4029
479.416 133.34 -59.3441
447.386 163.439 -76.6916
419.267 158.671 -82.386
424.319 125.581 -82.3004
452.487 129.844 -76.615
416.14 158.16 -82.395
388.02 153.255 -76.8182
393.03 120.615 -76.7427
421.192 125.07 -82.3094
385.127 152.774 -75.6183
361.236 148.614 -59.5525
366.21 116.368 -59.4936
390.137 120.134 -75.5428
359.014 148.248 -57.3163
342.976 145.486 -33.1042
347.926 113.521 -33.0698
363.987 116.002 -57.2573
341.77 145.29 -30.1695
336.144 144.327 -1.56172
341.084 112.459 -1.55817
346.72 113.324 -30.1351
341.623 108.911 1.61418
347.276 109.768 30.167
352.003 77.7267 29.9791
346.393 76.9789 1.61576
348.479 109.943 33.0862
364.512 112.427 57.2178
369.128 80.111 56.8887
353.205 77.902 32.8983
366.726 112.757 59.4441
390.651 116.534 75.4939
395.115 83.8437 75.0969
371.342 80.4413 59.1149
393.537 116.971 76.6913
421.698 121.433 82.2574
425.994 88.3288 81.8589
398.001 84.2799 76.2943
424.818 121.895 82.2496
452.986 126.16 76.5635
457.107 92.6286 76.1945
429.114 88.7905 81.851
455.883 126.53 75.3552
479.916 129.582 59.2956
483.968 95.1632 59.0733
460.005 92.9987 74.9862
482.147 129.79 57.0712
498.435 131.298 32.9933
502.366 96.1766 32.8585
486.199 95.371 56.8489
499.651 131.38 30.0815
505.407 131.841 1.56574
509.279 96.4748 1.55741
503.582 96.2589 29.9468
505.407 131.841 -1.58964
499.66 131.373 -30.1068
503.587 96.2544 -29.9792
509.28 96.4746 -1.59797
498.445 131.29 -33.0178
482.16 129.779 -57.0978
486.222 95.3632 -56.8593
502.373 96.1718 -32.8902
479.931 129.57 -59.3216
455.899 126.514 -75.3804
460.029 92.9849 -74.9965
483.992 95.1546 -59.0831
453.001 126.144 -76.5888
424.834 121.88 -82.2741
429.138 88.7802 -81.864
457.131 92.6147 -76.2049
421.714 121.419 -82.2821
393.552 116.964 -76.7155
398.023 84.2794 -76.3092
426.018 88.3191 -81.872
390.666 116.529 -75.5181
366.739 112.763 -59.4689
371.363 80.4589 -59.1281
395.137 83.8443 -75.1118
364.523 112.433 -57.2396
348.461 109.953 -33.0522
353.196 77.9264 -32.8576
369.147 80.1297 -56.8989
347.258 109.777 -30.1285
341.623 108.912 -1.55156
346.392 76.9798 -1.54998
351.993 77.7505 -29.9339
347.055 73.4769 1.57419
352.665 74.2248 29.9375
359.781 42.861 28.6537
354.433 42.1682 1.57236
353.834 74.3832 32.7819
369.757 76.5923 56.7723
376.125 45.0681 54.4228
360.95 43.0194 31.4981
371.912 76.8919 58.9457
395.685 80.2943 74.9276
400.952 48.4864 71.9105
378.28 45.3677 56.5962
398.497 80.6903 76.1011
426.49 84.7392 81.6657
430.495 52.5568 78.4743
403.764 48.8823 73.0839
429.532 85.157 81.6628
457.525 88.9952 76.0063
460.289 56.4515 73.1059
433.536 52.9746 78.4714
460.338 89.324 74.8363
484.302 91.4885 58.9234
485.876 59.1561 56.6545
463.103 56.7803 71.9359
486.474 91.6689 56.7529
502.642 92.4745 32.7626
503.289 60.4864 31.4713
488.048 59.3366 54.4841
503.824 92.5442 29.9118
509.521 92.7601 1.52238
509.815 60.882 1.51207
504.471 60.5561 28.6205
509.521 92.7592 -1.5648
503.829 92.5389 -29.946
504.466 60.5217 -28.663
509.814 60.8811 -1.57511
502.648 92.4686 -32.7937
486.497 91.66 -56.7627
488.075 59.3045 -54.4763
503.285 60.4514 -31.5106
484.327 91.4795 -58.9313
460.364 89.3098 -74.8447
463.132 56.7666 -71.9317
485.905 59.1239 -56.6448
457.55 88.9816 -76.0153
429.557 85.1471 -81.6744
433.565 52.9691 -78.4741
460.319 56.4384 -73.1022
426.515 84.7301 -81.6778
398.52 80.6904 -76.115
403.789 48.8895 -73.0927
430.524 52.5522 -78.4775
395.708 80.2962 -74.9419
371.933 76.9107 -58.9582
378.299 45.4045 -56.6093
400.977 48.4954 -71.9197
369.776 76.6125 -56.7821
353.825 74.4092 -32.7408
360.936 43.0616 -31.4609
376.142 45.1063 -54.4332
352.655 74.2494 -29.8923
347.055 73.4786 -1.5083
354.432 42.1699 -1.51013
359.766 42.9018 -28.6124
355.289 38.7317 1.48849
360.638 39.4246 28.5698
368.687 8.75117 26.831
363.672 8.12018 1.48124
361.743 39.5704 31.2607
376.918 41.619 54.1854
384.018 10.7706 50.975
369.792 8.89697 29.5218
378.957 41.8932 56.2422
401.628 45.0118 71.5565
407.309 13.8632 67.3403
386.057 11.0448 53.0319
404.288 45.371 72.6683
431.019 49.0455 78.0587
435.004 17.5255 73.4573
409.969 14.2225 68.4521
433.896 49.4241 78.0576
460.648 52.901 72.692
462.903 21.0707 68.4078
437.881 17.9042 73.4563
463.307 53.2182 71.5819
486.081 55.594 56.3006
486.805 23.7889 52.9855
465.562 21.3879 67.2977
488.122 55.7965 54.2433
503.363 56.9464 31.2304
503.038 25.3334 29.4377
488.847 23.9914 50.9282
504.47 57.0358 28.5348
509.813 57.3617 1.42636
509.108 25.8153 1.43632
504.145 25.4228 26.7421
509.812 57.3591 -1.48919
504.464 56.9997 -28.5771
504.137 25.3608 -26.7683
509.107 25.8127 -1.47923
503.359 56.9079 -31.2689
488.149 55.761 -54.2346
488.864 23.9356 -50.9172
503.032 25.269 -29.4602
486.109 55.5607 -56.29
463.337 53.2033 -71.5768
465.584 21.3734 -67.2936
486.824 23.7353 -52.9726
460.678 52.8881 -72.6878
433.925 49.4188 -78.0597
437.902 17.9006 -73.457
462.925 21.0582 -68.4045
431.048 49.0413 -78.0613
404.313 45.3786 -72.6766
409.987 14.2322 -68.4575
435.025 17.5231 -73.4587
401.653 45.022 -71.5655
378.975 41.9311 -56.2551
386.065 11.096 -53.0442
407.327 13.8755 -67.3464
376.934 41.6592 -54.1962
361.728 39.6145 -31.2239
369.773 8.95667 -29.4963
384.024 10.8241 -50.9852
360.622 39.4662 -28.5294
355.288 38.7344 -1.42718
363.671 8.12282 -1.43444
368.667 8.80843 -26.8019
364.719 4.95252 1.35152
369.734 5.58352 26.7013
380.244 -21.0745 23.7822
375.821 -21.696 1.33044
370.742 5.71879 29.1575
384.968 7.59242 50.6107
393.851 -19.18 45.2688
381.252 -20.9392 26.2384
386.832 7.84199 52.4886
408.084 10.6604 66.7971
414.598 -16.4002 59.8174
395.715 -18.9305 47.1467
410.516 10.9831 67.8093
435.551 14.2862 72.8145
439.266 -13.1271 65.2214
417.03 -16.0775 60.8296
438.178 14.6297 72.8101
463.201 17.7962 67.7617
464.078 -9.85175 60.6924
441.894 -12.7836 65.217
465.625 18.1016 66.7459
486.868 20.5025 52.4337
485.265 -7.07113 46.9565
466.502 -9.54639 59.6766
488.725 20.7224 50.5591
502.916 22.0645 29.0686
499.636 -5.20177 26.1169
487.122 -6.85122 45.0819
503.923 22.1751 26.6148
508.886 22.5676 1.30898
505.032 -4.51277 1.32833
500.642 -5.09119 23.6631
508.886 22.5657 -1.34817
503.915 22.1138 -26.6372
500.642 -5.09322 -23.6636
505.032 -4.51464 -1.32882
502.909 22.0014 -29.0904
488.741 20.668 -50.5474
487.122 -6.8553 -45.0819
499.635 -5.20564 -26.1168
486.885 20.45 -52.4216
465.644 18.0881 -66.7425
466.502 -9.54866 -59.6763
485.265 -7.07333 -46.9561
463.221 17.7842 -67.7585
438.198 14.6265 -72.8109
441.894 -12.7844 -65.2168
464.079 -9.85262 -60.6922
435.571 14.2836 -72.8155
410.533 10.9928 -67.8144
417.03 -16.0776 -60.8296
439.267 -13.1273 -65.2214
408.1 10.6715 -66.8022
386.838 7.89201 -52.5
395.715 -18.929 -47.1468
414.598 -16.3989 -59.8174
384.974 7.64434 -50.6215
370.722 5.77688 -29.1326
381.252 -20.9357 -26.238
393.851 -19.1767 -45.2683
369.714 5.63989 -26.6756
364.718 4.95428 -1.30816
375.821 -21.6943 -1.32924
380.243 -21.0727 -23.781
-61.9132 1009.75 25.2849
-65.8652 1006.49 -0.480583
-61.836 1009.67 -26.243
-50.4618 1018.79 -48.0778
-33.4221 1032.42 -62.6458
-13.3281 1048.48 -67.7259
6.67097 1064.62 -62.5965
23.4934 1078.53 -48.067
34.6516 1088.04 -26.2857
38.5575 1091.43 -0.516123
34.6489 1088.05 25.253
23.4795 1078.57 47.0387
6.63783 1064.7 61.5822
-13.3738 1048.57 66.7257
-33.4746 1032.52 61.6592
-50.5441 1018.9 47.1137
382.635 -22.3855 1.31945e-05
387.058 -21.764 22.4517
399.656 -20.0048 41.4821
418.539 -17.4746 54.1528
440.776 -14.5241 58.5446
462.96 -11.5923 54.02
481.723 -9.11705 41.3
494.237 -7.4676 22.335
498.627 -6.88918 0.000239176
494.237 -7.46776 -22.3346
481.723 -9.11742 -41.2997
462.96 -11.5927 -54.0199
440.776 -14.5245 -58.5445
418.539 -17.4748 -54.1527
399.656 -20.0049 -41.4821
387.058 -21.764 -22.4517
</DataArray>
</Points>
<Cells>
<DataArray type="Int32" Name="connectivity" format="ascii">
0 1 2 3 
4 5 6 7 
8 9 10 11 
12 13 14 15 
16 17 18 19 
20 21 22 23 
24 25 26 27 
28 29 30 31 
32 33 34 35 
36 37 38 39 
40 41 42 43 
44 45 46 47 
48 49 50 51 
52 53 54 55 
56 57 58 59 
60 61 62 63 
64 65 66 67 
68 69 70 71 
72 73 74 75 
76 77 78 79 
80 81 82 83 
84 85 86 87 
88 89 90 91 
92 93 94 95 
96 97 98 99 
100 101 102 103 
104 105 106 107 
108 109 110 111 
112 113 114 115 
116 117 118 119 
120 121 122 123 
124 125 126 127 
128 129 130 131 
132 133 134 135 
136 137 138 139 
140 141 142 143 
144 145 146 147 
148 149 150 151 
152 153 154 155 
156 157 158 159 
160 161 162 163 
164 165 166 167 
168 169 170 171 
172 173 174 175 
176 177 178 179 
180 181 182 183 
184 185 186 187 
188 189 190 191 
192 193 194 195 
196 197 198 199 
200 201 202 203 
204 205 206 207 
208 209 210 211 
212 213 214 215 
216 217 218 219 
220 221 222 223 
224 225 226 227 
228 229 230 231 
232 233 234 235 
236 237 238 239 
240 241 242 243 
244 245 246 247 
248 249 250 251 
252 253 254 255 
256 257 258 259 
260 261 262 263 
264 265 266 267 
268 269 270 271 
272 273 274 275 
276 277 278 279 
280 281 282 283 
284 285 286 287 
288 289 290 291 
292 293 294 295 
296 297 298 299 
300 301 302 303 
304 305 306 307 
308 309 310 311 
312 313 314 315 
316 317 318 319 
320 321 322 323 
324 325 326 327 
328 329 330 331 
332 333 334 335 
336 337 338 339 
340 341 342 343 
344 345 346 347 
348 349 350 351 
352 353 354 355 
356 357 358 359 
360 361 362 363 
364 365 366 367 
368 369 370 371 
372 373 374 375 
376 377 378 379 
380 381 382 383 
384 385 386 387 
388 389 390 391 
392 393 394 395 
396 397 398 399 
400 401 402 403 
404 405 406 407 
408 409 410 411 
412 413 414 415 
416 417 418 419 
420 421 422 423 
424 425 426 427 
428 429 430 431 
432 433 434 435 
436 437 438 439 
440 441 442 443 
444 445 446 447 
448 449 450 451 
452 453 454 455 
456 457 458 459 
460 461 462 463 
464 465 466 467 
468 469 470 471 
472 473 474 475 
476 477 478 479 
480 481 482 483 
484 485 486 487 
488 489 490 491 
492 493 494 495 
496 497 498 499 
500 501 502 503 
504 505 506 507 
508 509 510 511 
512 513 514 515 
516 517 518 519 
520 521 522 523 
524 525 526 527 
528 529 530 531 
532 533 534 535 
536 537 538 539 
540 541 542 543 
544 545 546 547 
548 549 550 551 
552 553 554 555 
556 557 558 559 
560 561 562 563 
564 565 566 567 
568 569 570 571 
572 573 574 575 
576 577 578 579 
580 581 582 583 
584 585 586 587 
588 589 590 591 
592 593 594 595 
596 597 598 599 
600 601 602 603 
604 605 606 607 
608 609 610 611 
612 613 614 615 
616 617 618 619 
620 621 622 623 
624 625 626 627 
628 629 630 631 
632 633 634 635 
636 637 638 639 
640 641 642 643 
644 645 646 647 
648 649 650 651 
652 653 654 655 
656 657 658 659 
660 661 662 663 
664 665 666 667 
668 669 670 671 
672 673 674 675 
676 677 678 679 
680 681 682 683 
684 685 686 687 
688 689 690 691 
692 693 694 695 
696 697 698 699 
700 701 702 703 
704 705 706 707 
708 709 710 711 
712 713 714 715 
716 717 718 719 
720 721 722 723 
724 725 726 727 
728 729 730 731 
732 733 734 735 
736 737 738 739 
740 741 742 743 
744 745 746 747 
748 749 750 751 
752 753 754 755 
756 757 758 759 
760 761 762 763 
764 765 766 767 
768 769 770 771 
772 773 774 775 
776 777 778 779 
780 781 782 783 
784 785 786 787 
788 789 790 791 
792 793 794 795 
796 797 798 799 
800 801 802 803 
804 805 806 807 
808 809 810 811 
812 813 814 815 
816 817 818 819 
820 821 822 823 
824 825 826 827 
828 829 830 831 
832 833 834 835 
836 837 838 839 
840 841 842 843 
844 845 846 847 
848 849 850 851 
852 853 854 855 
856 857 858 859 
860 861 862 863 
864 865 866 867 
868 869 870 871 
872 873 874 875 
876 877 878 879 
880 881 882 883 
884 885 886 887 
888 889 890 891 
892 893 894 895 
896 897 898 899 
900 901 902 903 
904 905 906 907 
908 909 910 911 
912 913 914 915 
916 917 918 919 
920 921 922 923 
924 925 926 927 
928 929 930 931 
932 933 934 935 
936 937 938 939 
940 941 942 943 
944 945 946 947 
948 949 950 951 
952 953 954 955 
956 957 958 959 
960 961 962 963 
964 965 966 967 
968 969 970 971 
972 973 974 975 
976 977 978 979 
980 981 982 983 
984 985 986 987 
988 989 990 991 
992 993 994 995 
996 997 998 999 
1000 1001 1002 1003 
1004 1005 1006 1007 
1008 1009 1010 1011 
1012 1013 1014 1015 
1016 1017 1018 1019 
1020 1021 1022 1023 
1024 1025 1026 1027 
1028 1029 1030 1031 
1032 1033 1034 1035 
1036 1037 1038 1039 
1040 1041 1042 1043 
1044 1045 1046 1047 
1048 1049 1050 1051 
1052 1053 1054 1055 
1056 1057 1058 1059 
1060 1061 1062 1063 
1064 1065 1066 1067 
1068 1069 1070 1071 
1072 1073 1074 1075 
1076 1077 1078 1079 
1080 1081 1082 1083 
1084 1085 1086 1087 
1088 1089 1090 1091 
1092 1093 1094 1095 
1096 1097 1098 1099 
1100 1101 1102 1103 
1104 1105 1106 1107 
1108 1109 1110 1111 
1112 1113 1114 1115 
1116 1117 1118 1119 
1120 1121 1122 1123 
1124 1125 1126 1127 
1128 1129 1130 1131 
1132 1133 1134 1135 
1136 1137 1138 1139 
1140 1141 1142 1143 
1144 1145 1146 1147 
1148 1149 1150 1151 
1152 1153 1154 1155 
1156 1157 1158 1159 
1160 1161 1162 1163 
1164 1165 1166 1167 
1168 1169 1170 1171 
1172 1173 1174 1175 
1176 1177 1178 1179 
1180 1181 1182 1183 
1184 1185 1186 1187 
1188 1189 1190 1191 
1192 1193 1194 1195 
1196 1197 1198 1199 
1200 1201 1202 1203 
1204 1205 1206 1207 
1208 1209 1210 1211 
1212 1213 1214 1215 
1216 1217 1218 1219 
1220 1221 1222 1223 
1224 1225 1226 1227 
1228 1229 1230 1231 
1232 1233 1234 1235 
1236 1237 1238 1239 
1240 1241 1242 1243 
1244 1245 1246 1247 
1248 1249 1250 1251 
1252 1253 1254 1255 
1256 1257 1258 1259 
1260 1261 1262 1263 
1264 1265 1266 1267 
1268 1269 1270 1271 
1272 1273 1274 1275 
1276 1277 1278 1279 
1280 1281 1282 1283 
1284 1285 1286 1287 
1288 1289 1290 1291 
1292 1293 1294 1295 
1296 1297 1298 1299 
1300 1301 1302 1303 
1304 1305 1306 1307 
1308 1309 1310 1311 
1312 1313 1314 1315 
1316 1317 1318 1319 
1320 1321 1322 1323 
1324 1325 1326 1327 
1328 1329 1330 1331 
1332 1333 1334 1335 
1336 1337 1338 1339 
1340 1341 1342 1343 
1344 1345 1346 1347 
1348 1349 1350 1351 
1352 1353 1354 1355 
1356 1357 1358 1359 
1360 1361 1362 1363 
1364 1365 1366 1367 
1368 1369 1370 1371 
1372 1373 1374 1375 
1376 1377 1378 1379 
1380 1381 1382 1383 
1384 1385 1386 1387 
1388 1389 1390 1391 
1392 1393 1394 1395 
1396 1397 1398 1399 
1400 1401 1402 1403 
1404 1405 1406 1407 
1408 1409 1410 1411 
1412 1413 1414 1415 
1416 1417 1418 1419 
1420 1421 1422 1423 
1424 1425 1426 1427 
1428 1429 1430 1431 
1432 1433 1434 1435 
1436 1437 1438 1439 
1440 1441 1442 1443 
1444 1445 1446 1447 
1448 1449 1450 1451 
1452 1453 1454 1455 
1456 1457 1458 1459 
1460 1461 1462 1463 
1464 1465 1466 1467 
1468 1469 1470 1471 
1472 1473 1474 1475 
1476 1477 1478 1479 
1480 1481 1482 1483 
1484 1485 1486 1487 
1488 1489 1490 1491 
1492 1493 1494 1495 
1496 1497 1498 1499 
1500 1501 1502 1503 
1504 1505 1506 1507 
1508 1509 1510 1511 
1512 1513 1514 1515 
1516 1517 1518 1519 
1520 1521 1522 1523 
1524 1525 1526 1527 
1528 1529 1530 1531 
1532 1533 1534 1535 
1536 1537 1538 1539 
1540 1541 1542 1543 
1544 1545 1546 1547 
1548 1549 1550 1551 
1552 1553 1554 1555 
1556 1557 1558 1559 
1560 1561 1562 1563 
1564 1565 1566 1567 
1568 1569 1570 1571 
1572 1573 1574 1575 
1576 1577 1578 1579 
1580 1581 1582 1583 
1584 1585 1586 1587 
1588 1589 1590 1591 
1592 1593 1594 1595 
1596 1597 1598 1599 
1600 1601 1602 1603 
1604 1605 1606 1607 
1608 1609 1610 1611 
1612 1613 1614 1615 
1616 1617 1618 1619 
1620 1621 1622 1623 
1624 1625 1626 1627 
1628 1629 1630 1631 
1632 1633 1634 1635 
1636 1637 1638 1639 
1640 1641 1642 1643 
1644 1645 1646 1647 
1648 1649 1650 1651 
1652 1653 1654 1655 
1656 1657 1658 1659 
1660 1661 1662 1663 
1664 1665 1666 1667 
1668 1669 1670 1671 
1672 1673 1674 1675 
1676 1677 1678 1679 
1680 1681 1682 1683 
1684 1685 1686 1687 
1688 1689 1690 1691 
1692 1693 1694 1695 
1696 1697 1698 1699 
1700 1701 1702 1703 
1704 1705 1706 1707 
1708 1709 1710 1711 
1712 1713 1714 1715 
1716 1717 1718 1719 
1720 1721 1722 1723 
1724 1725 1726 1727 
1728 1729 1730 1731 
1732 1733 1734 1735 
1736 1737 1738 1739 
1740 1741 1742 1743 
1744 1745 1746 1747 
1748 1749 1750 1751 
1752 1753 1754 1755 
1756 1757 1758 1759 
1760 1761 1762 1763 
1764 1765 1766 1767 
1768 1769 1770 1771 
1772 1773 1774 1775 
1776 1777 1778 1779 
1780 1781 1782 1783 
1784 1785 1786 1787 
1788 1789 1790 1791 
1792 1793 1794 1795 
1796 1797 1798 1799 
1800 1801 1802 1803 
1804 1805 1806 1807 
1808 1809 1810 1811 
1812 1813 1814 1815 
1816 1817 1818 1819 
1820 1821 1822 1823 
1824 1825 1826 1827 
1828 1829 1830 1831 
1832 1833 1834 1835 
1836 1837 1838 1839 
1840 1841 1842 1843 
1844 1845 1846 1847 
1848 1849 1850 1851 
1852 1853 1854 1855 
1856 1857 1858 1859 
1860 1861 1862 1863 
1864 1865 1866 1867 
1868 1869 1870 1871 
1872 1873 1874 1875 
1876 1877 1878 1879 
1880 1881 1882 1883 
1884 1885 1886 1887 
1888 1889 1890 1891 
1892 1893 1894 1895 
1896 1897 1898 1899 
1900 1901 1902 1903 
1904 1905 1906 1907 
1908 1909 1910 1911 
1912 1913 1914 1915 
1916 1917 1918 1919 
1920 1921 1922 1923 
1924 1925 1926 1927 
1928 1929 1930 1931 
1932 1933 1934 1935 
1936 1937 1938 1939 
1940 1941 1942 1943 
1944 1945 1946 1947 
1948 1949 1950 1951 
1952 1953 1954 1955 
1956 1957 1958 1959 
1960 1961 1962 1963 
1964 1965 1966 1967 
1968 1969 1970 1971 
1972 1973 1974 1975 
1976 1977 1978 1979 
1980 1981 1982 1983 
1984 1985 1986 1987 
1988 1989 1990 1991 
1992 1993 1994 1995 
1996 1997 1998 1999 
2000 2001 2002 2003 
2004 2005 2006 2007 
2008 2009 2010 2011 
2012 2013 2014 2015 
2016 2017 2018 2019 
2020 2021 2022 2023 
2024 2025 2026 2027 
2028 2029 2030 2031 
2032 2033 2034 2035 
2036 2037 2038 2039 
2040 2041 2042 2043 
2044 2045 2046 2047 
2048 2049 2050 2051 2052 2053 2054 2055 2056 2057 2058 2059 2060 2061 2062 2063 
2064 2065 2066 2067 2068 2069 2070 2071 2072 2073 2074 2075 2076 2077 2078 2079 
</DataArray>
<DataArray type="Int32" Name="offsets" format="ascii">
4 8 12 16 20 24 28 32 36 40 44 48 52 56 60 64 68 72 76 80 84 88 92 96 100 104 108 112 116 120 124 128 132 136 140 144 148 152 156 160 164 168 172 176 180 184 188 192 196 200 204 208 212 216 220 224 228 232 236 240 244 248 252 256 260 264 268 272 276 280 284 288 292 296 300 304 308 312 316 320 324 328 332 336 340 344 348 352 356 360 364 368 372 376 380 384 388 392 396 400 404 408 412 416 420 424 428 432 436 440 444 448 452 456 460 464 468 472 476 480 484 488 492 496 500 504 508 512 516 520 524 528 532 536 540 544 548 552 556 560 564 568 572 576 580 584 588 592 596 600 604 608 612 616 620 624 628 632 636 640 644 648 652 656 660 664 668 672 676 680 684 688 692 696 700 704 708 712 716 720 724 728 732 736 740 744 748 752 756 760 764 768 772 776 780 784 788 792 796 800 804 808 812 816 820 824 828 832 836 840 844 848 852 856 860 864 868 872 876 880 884 888 892 896 900 904 908 912 916 920 924 928 932 936 940 944 948 952 956 960 964 968 972 976 980 984 988 992 996 1000 1004 1008 1012 1016 1020 1024 1028 1032 1036 1040 1044 1048 1052 1056 1060 1064 1068 1072 1076 1080 1084 1088 1092 1096 1100 1104 1108 1112 1116 1120 1124 1128 1132 1136 1140 1144 1148 1152 1156 1160 1164 1168 1172 1176 1180 1184 1188 1192 1196 1200 1204 1208 1212 1216 1220 1224 1228 1232 1236 1240 1244 1248 1252 1256 1260 1264 1268 1272 1276 1280 1284 1288 1292 1296 1300 1304 1308 1312 1316 1320 1324 1328 1332 1336 1340 1344 1348 1352 1356 1360 1364 1368 1372 1376 1380 1384 1388 1392 1396 1400 1404 1408 1412 1416 1420 1424 1428 1432 1436 1440 1444 1448 1452 1456 1460 1464 1468 1472 1476 1480 1484 1488 1492 1496 1500 1504 1508 1512 1516 1520 1524 1528 1532 1536 1540 1544 1548 1552 1556 1560 1564 1568 1572 1576 1580 1584 1588 1592 1596 1600 1604 1608 1612 1616 1620 1624 1628 1632 1636 1640 1644 1648 1652 1656 1660 1664 1668 1672 1676 1680 1684 1688 1692 1696 1700 1704 1708 1712 1716 1720 1724 1728 1732 1736 1740 1744 1748 1752 1756 1760 1764 1768 1772 1776 1780 1784 1788 1792 1796 1800 1804 1808 1812 1816 1820 1824 1828 1832 1836 1840 1844 1848 1852 1856 1860 1864 1868 1872 1876 1880 1884 1888 1892 1896 1900 1904 1908 1912 1916 1920 1924 1928 1932 1936 1940 1944 1948 1952 1956 1960 1964 1968 1972 1976 1980 1984 1988 1992 1996 2000 2004 2008 2012 2016 2020 2024 2028 2032 2036 2040 2044 2048 2064 2080 
</DataArray>
<DataArray type="UInt8" Name="types" format="ascii">
7 7 7 7 7 7 7 7 7 7 7 7 7 7 7 7 7 7 7 7 7 7 7 7 7 7 7 7 7 7 7 7 7 7 7 7 7 7 7 7 7 7 7 7 7 7 7 7 7 7 7 7 7 7 7 7 7 7 7 7 7 7 7 7 7 7 7 7 7 7 7 7 7 7 7 7 7 7 7 7 7 7 7 7 7 7 7 7 7 7 7 7 7 7 7 7 7 7 7 7 7 7 7 7 7 7 7 7 7 7 7 7 7 7 7 7 7 7 7 7 7 7 7 7 7 7 7 7 7 7 7 7 7 7 7 7 7 7 7 7 7 7 7 7 7 7 7 7 7 7 7 7 7 7 7 7 7 7 7 7 7 7 7 7 7 7 7 7 7 7 7 7 7 7 7 7 7 7 7 7 7 7 7 7 7 7 7 7 7 7 7 7 7 7 7 7 7 7 7 7 7 7 7 7 7 7 7 7 7 7 7 7 7 7 7 7 7 7 7 7 7 7 7 7 7 7 7 7 7 7 7 7 7 7 7 7 7 7 7 7 7 7 7 7 7 7 7 7 7 7 7 7 7 7 7 7 7 7 7 7 7 7 7 7 7 7 7 7 7 7 7 7 7 7 7 7 7 7 7 7 7 7 7 7 7 7 7 7 7 7 7 7 7 7 7 7 7 7 7 7 7 7 7 7 7 7 7 7 7 7 7 7 7 7 7 7 7 7 7 7 7 7 7 7 7 7 7 7 7 7 7 7 7 7 7 7 7 7 7 7 7 7 7 7 7 7 7 7 7 7 7 7 7 7 7 7 7 7 7 7 7 7 7 7 7 7 7 7 7 7 7 7 7 7 7 7 7 7 7 7 7 7 7 7 7 7 7 7 7 7 7 7 7 7 7 7 7 7 7 7 7 7 7 7 7 7 7 7 7 7 7 7 7 7 7 7 7 7 7 7 7 7 7 7 7 7 7 7 7 7 7 7 7 7 7 7 7 7 7 7 7 7 7 7 7 7 7 7 7 7 7 7 7 7 7 7 7 7 7 7 7 7 7 7 7 7 7 7 7 7 7 7 7 7 7 7 7 7 7 7 7 7 7 7 7 7 7 7 7 7 7 7 7 7 7 7 7 7 7 7 7 7 7 7 7 7 7 7 7 7 7 7 7 7 
</DataArray>
</Cells>
<CellData Scalars="cell variable 4" Vectors="cell vector">
<DataArray type="Float64" NumberOfComponents="3" Name="cell vector" format="ascii">
0.176327 0.0776394 0.981265
0.522964 0.174356 0.834331
0.783957 0.239649 0.572695
0.914265 0.32678 0.239448
0.767041 0.611353 -0.194669
0.336256 0.750994 -0.568278
-0.162698 -0.555986 0.815113
-0.0384795 -0.219423 0.974871
0.0456656 0.214051 0.975755
0.147751 0.565683 0.811278
0.329292 0.755185 0.5668
0.764822 0.614097 0.194761
0.912941 0.330769 -0.239021
0.777117 0.259352 -0.573433
-0.50971 -0.203205 0.836005
-0.185832 -0.0604146 0.980723
0.160916 0.111304 0.980672
0.461841 0.310527 0.830828
0.689476 0.465076 0.555273
0.801563 0.564847 0.196075
0.762916 0.616217 -0.19554
0.573782 0.603402 -0.553787
-0.370915 -0.418319 0.829114
-0.130273 -0.147724 0.980412
0.130376 0.148354 0.980303
0.367473 0.422511 0.828522
0.572215 0.605365 0.553265
0.762165 0.61725 0.195207
0.800502 0.566256 -0.196344
0.687827 0.467055 -0.555656
-0.460185 -0.31215 0.831139
-0.163149 -0.107598 0.980717
0.160183 0.113229 0.980572
0.457705 0.318065 0.830265
0.683687 0.475235 0.553827
0.799224 0.56884 0.194068
0.771158 0.605866 -0.195556
0.565465 0.614352 -0.550291
-0.380327 -0.411147 0.828438
-0.13495 -0.143344 0.980429
0.13466 0.144543 0.980293
0.378627 0.413588 0.828002
0.564885 0.615267 0.549866
0.770501 0.606806 0.195231
0.798444 0.569829 -0.194378
0.683016 0.475886 -0.554095
-0.456858 -0.318464 0.830579
-0.161249 -0.110569 0.9807
0.161026 0.112654 0.9805
0.459644 0.316531 0.829781
0.687814 0.470705 0.552584
0.807121 0.55811 0.192531
0.783609 0.589643 -0.195646
0.45196 0.715754 -0.53238
-0.406635 0.85372 -0.325284
-0.617582 0.783578 -0.0678044
-0.617999 0.783535 0.064414
-0.414278 0.853899 0.315009
0.453431 0.71502 0.532115
0.782947 0.590629 0.195321
0.806508 0.558892 -0.192832
0.687551 0.470851 -0.552787
-0.458965 -0.316676 0.830101
-0.161433 -0.110499 0.980678
0.161779 0.111888 0.980463
0.460979 0.315127 0.829574
0.689177 0.469264 0.552111
0.808249 0.5567 0.191882
0.786197 0.586156 -0.195745
0.514972 0.665141 -0.540732
-0.39374 0.863365 -0.315547
-0.597198 0.799387 -0.0658431
-0.597068 0.799534 0.0652386
-0.391656 0.863828 0.316871
0.517022 0.663683 0.540567
0.78591 0.586643 0.195434
0.807933 0.557068 -0.192145
0.689204 0.469037 -0.55227
-0.460565 -0.314912 0.829886
-0.16184 -0.110005 0.980666
0.162496 0.110644 0.980486
0.462635 0.312132 0.829785
0.691606 0.465251 0.552469
0.811919 0.551296 0.191989
0.794432 0.574832 -0.196076
0.562207 0.621756 -0.545292
-0.40204 0.871085 -0.282091
-0.580185 0.812318 -0.0593784
-0.58004 0.812454 0.058917
-0.399689 0.871582 0.28389
0.564191 0.620074 0.545157
0.794269 0.575147 0.195812
0.811766 0.551445 -0.192208
0.691775 0.464844 -0.552601
-0.4624 -0.311667 0.83009
-0.162389 -0.108898 0.980699
0.163504 0.108764 0.980529
0.465335 0.307211 0.830111
0.695777 0.458351 0.553
0.817773 0.542497 0.192208
0.804932 0.559917 -0.196413
0.599937 0.58251 -0.548413
-0.421861 0.876336 -0.232525
-0.564176 0.824124 -0.0502427
-0.564044 0.824244 0.0497633
-0.419868 0.876889 0.234043
0.60168 0.580842 0.548273
0.804859 0.560103 0.196181
0.817733 0.54249 -0.192398
0.696007 0.457861 -0.553115
-0.465209 -0.30659 0.830411
-0.163301 -0.1071 0.980746
0.164812 0.106387 0.980571
0.468984 0.300772 0.830416
0.701414 0.449087 0.553479
0.825226 0.531019 0.192408
0.81613 0.543364 -0.19669
0.631108 0.546392 -0.550599
-0.442169 0.878889 -0.178999
-0.548176 0.835394 -0.0402462
-0.548059 0.835496 0.0397188
-0.440599 0.879455 0.180088
0.632561 0.54486 0.550449
0.81612 0.543455 0.19648
0.825263 0.530899 -0.19258
0.70167 0.44856 -0.553582
-0.468923 -0.300051 0.830711
-0.164542 -0.104779 0.980789
0.166358 0.10363 0.980605
0.473351 0.293166 0.830658
0.708111 0.437978 0.553854
0.833745 0.517481 0.192567
0.827368 0.526015 -0.196903
0.657518 0.512684 -0.55211
-0.456473 0.880078 -0.130751
-0.531778 0.846327 -0.0306981
-0.53168 0.84641 0.0300977
-0.45529 0.880595 0.13139
0.658642 0.51141 0.551951
0.827387 0.526057 0.196709
0.833826 0.517291 -0.192726
0.708374 0.437434 -0.553947
-0.473325 -0.29238 0.83095
-0.166033 -0.102065 0.980824
0.168067 0.100582 0.980631
0.478209 0.284642 0.83084
0.715516 0.425414 0.55413
0.842908 0.502371 0.192687
0.838407 0.508175 -0.197061
0.67997 0.481362 -0.553111
-0.462897 0.88163 -0.0919478
-0.514799 0.857017 -0.0224268
-0.514725 0.85708 0.0217263
-0.462014 0.882066 0.0922059
0.680725 0.480483 0.552946
0.838428 0.508209 0.196881
0.843009 0.502145 -0.192835
0.715775 0.424866 -0.554215
-0.478201 -0.283814 0.831128
-0.167696 -0.0990514 0.98085
0.169875 0.0973092 0.98065
0.483346 0.275427 0.830973
0.723313 0.411746 0.554332
0.852403 0.486053 0.192775
0.849171 0.48993 -0.197173
0.698553 0.453227 -0.553723
-0.462667 0.884357 -0.0620553
-0.49719 0.867498 -0.0158109
-0.497136 0.867542 0.0150252
-0.462023 0.884699 0.0619952
0.699005 0.452728 0.553561
0.849182 0.489979 0.197005
0.852508 0.485813 -0.192914
0.723561 0.411206 -0.554409
-0.483342 -0.274577 0.831257
-0.169461 -0.0958103 0.980869
0.171726 0.0938656 0.980663
0.488593 0.265714 0.831067
0.73125 0.39728 0.554475
0.861992 0.46881 0.192839
0.859621 0.471322 -0.19725
0.714542 0.427081 -0.554104
-0.456523 0.888776 -0.0407875
-0.479005 0.877746 -0.0107954
-0.478968 0.877776 0.00995333
-0.456059 0.889028 0.0404806
0.714761 0.426914 0.553951
0.859618 0.471392 0.197093
0.862091 0.468574 -0.192968
0.731483 0.396753 -0.554544
-0.488585 -0.264851 0.831348
-0.171272 -0.0923984 0.980881
0.173582 0.0902883 0.980672
0.49385 0.255601 0.831132
0.739178 0.382183 0.554574
0.871505 0.450861 0.192884
0.869722 0.45239 -0.197302
0.728388 0.4027 -0.554332
-0.446096 0.894609 -0.0259676
-0.460311 0.887729 -0.00712936
-0.460288 0.887748 0.00624214
-0.445765 0.894787 0.0254848
0.728409 0.402858 0.55419
0.869703 0.452488 0.197155
0.871594 0.450636 -0.193005
0.739395 0.381674 -0.554635
-0.493831 -0.254735 0.831409
-0.173087 -0.0888549 0.98089
0.175415 0.0866037 0.980678
0.499038 0.245171 0.831175
0.746982 0.366594 0.55464
0.880822 0.432361 0.192916
0.879441 0.433176 -0.197336
0.740446 0.379886 -0.55446
-0.432685 0.901409 -0.0156646
-0.441185 0.897405 -0.004482
-0.441169 0.897417 0.0035942
-0.432467 0.901524 0.0150381
0.740365 0.380232 0.554331
0.879412 0.433299 0.197198
0.880899 0.432155 -0.193028
0.747182 0.366107 -0.554694
-0.499006 -0.24431 0.831448
-0.17488 -0.0852069 0.980896
0.177206 0.082835 0.980682
0.504099 0.234498 0.831201
0.754577 0.350631 0.554681
0.889855 0.413441 0.192937
0.888758 0.413715 -0.197354
0.751118 0.358224 -0.554525
-0.417337 0.908715 -0.00823019
-0.421706 0.906729 -0.00252726
-0.421694 0.906736 0.00165812
-0.417207 0.908781 0.00750252
0.750986 0.35868 0.554408
0.88872 0.413859 0.197225
0.88992 0.413253 -0.193041
0.75476 0.350166 -0.554727
-0.50405 -0.233648 0.83147
-0.176629 -0.0814795 0.980899
0.178938 0.0790026 0.980683
0.508986 0.223646 0.831213
0.761895 0.334398 0.554701
0.898536 0.394213 0.192948
0.897654 0.394038 -0.19736
0.76079 0.337157 -0.554548
-0.400919 0.916111 -0.0022755
-0.401949 0.915662 -0.000953285
-0.401945 0.915664 8.54242e-05
-0.400841 0.916146 0.00150418
0.760557 0.337854 0.554443
0.897612 0.394195 0.197238
0.898595 0.394032 -0.193045
0.762064 0.33395 -0.55474
-0.508919 -0.222811 0.831479
-0.178318 -0.077696 0.980901
0.180599 0.0751305 0.980683
0.513665 0.212681 0.831213
0.768888 0.317988 0.554702
0.906815 0.374775 0.192951
0.906111 0.374186 -0.197353
0.769727 0.316238 -0.554539
-0.384088 0.923291 0.00324784
-0.381988 0.924167 0.000557784
-0.381967 0.924175 -0.00129518
-0.384099 0.923283 -0.00412309
0.769636 0.316622 0.554446
0.906088 0.374301 0.19724
0.906864 0.374612 -0.19304
0.769038 0.317571 -0.554733
-0.513577 -0.211867 0.831475
-0.179936 -0.0738758 0.9809
0.182177 0.0712435 0.980681
0.518107 0.20167 0.831201
0.775515 0.301499 0.554685
0.914651 0.355227 0.192947
0.914129 0.354156 -0.197334
0.778419 0.294278 -0.554495
-0.3675 0.929976 0.00937094
-0.361878 0.932223 0.00218372
-0.361855 0.93223 -0.00286766
-0.367627 0.929916 -0.0103832
0.778323 0.294683 0.554414
0.914105 0.354277 0.197231
0.914688 0.355086 -0.193027
0.775649 0.301109 -0.554708
-0.518002 -0.200871 0.831459
-0.181475 -0.0700398 0.980898
0.183668 0.0673632 0.980677
0.522295 0.190678 0.831174
0.781744 0.285035 0.554646
0.922007 0.335679 0.192933
0.921701 0.333975 -0.197302
0.787131 0.270306 -0.5544
-0.35181 0.935915 0.0171094
-0.341687 0.939804 0.00419033
-0.341685 0.939802 -0.00492921
-0.352061 0.935799 -0.0182649
0.786847 0.271264 0.554336
0.921655 0.334157 0.197208
0.922036 0.335558 -0.193004
0.781867 0.284664 -0.554662
-0.522177 -0.189887 0.831429
-0.182931 -0.066209 0.980894
0.185068 0.0635147 0.980671
0.526216 0.17978 0.831129
0.787551 0.268708 0.554581
0.928853 0.316259 0.192906
0.928804 0.313708 -0.197256
0.795854 0.24384 -0.554219
-0.337757 0.940829 0.0275975
-0.321505 0.946882 0.00695205
-0.321501 0.946878 -0.00763463
-0.338166 0.940641 -0.0289574
0.795574 0.244856 0.554172
0.928758 0.3139 0.197171
0.928871 0.316168 -0.192969
0.78766 0.26837 -0.554589
-0.526085 -0.178996 0.831381
-0.184299 -0.0624098 0.980887
0.186375 0.0597287 0.980661
0.529858 0.169073 0.831062
0.792911 0.252672 0.554481
0.935156 0.297129 0.192865
0.935438 0.293381 -0.19719
0.804638 0.213931 -0.553888
-0.326372 0.944288 0.0424441
-0.301411 0.953434 0.0107652
-0.301414 0.953425 -0.0114355
-0.326957 0.944013 -0.0440384
0.804293 0.215273 0.553868
0.935389 0.293587 0.197115
0.935169 0.297055 -0.192917
0.79301 0.25236 -0.554481
-0.52972 -0.168287 0.83131
-0.185575 -0.0586764 0.980877
0.187588 0.0560499 0.980647
0.533214 0.158686 0.830964
0.797802 0.237119 0.554334
0.940889 0.278488 0.192803
0.941601 0.27302 -0.197098
0.813308 0.179945 -0.553309
-0.318754 0.945716 0.0633874
-0.281482 0.959435 0.0159071
-0.281506 0.959415 -0.0166454
-0.319547 0.94532 -0.0652681
0.812851 0.181919 0.553335
0.94154 0.273277 0.197035
0.940899 0.278426 -0.192844
0.797895 0.236824 -0.554326
-0.533073 -0.15788 0.831208
-0.18676 -0.0550499 0.980862
0.188704 0.0525373 0.980628
0.536277 0.14879 0.830824
0.802201 0.22231 0.554123
0.946017 0.260602 0.192713
0.947294 0.252658 -0.196971
0.821488 0.141642 -0.552354
-0.316037 0.94425 0.0922646
-0.261784 0.964862 0.022593
-0.261842 0.964825 -0.0234598
-0.317085 0.943676 -0.094514
0.820955 0.144338 0.552448
0.947214 0.252998 0.196921
0.946024 0.260554 -0.192742
0.802291 0.222026 -0.554106
-0.53614 -0.147938 0.831064
-0.187855 -0.0515873 0.980841
0.189727 0.0492645 0.9806
0.53904 0.139618 0.830628
0.806078 0.208605 0.553824
0.950501 0.243842 0.192584
0.952519 0.23233 -0.196799
0.828693 0.0990125 -0.550875
-0.319043 0.938715 0.130482
-0.242342 0.969701 0.0308164
-0.242457 0.969637 -0.0319243
-0.320375 0.937886 -0.133154
0.828125 0.102613 0.551072
0.952412 0.232799 0.196764
0.950509 0.243797 -0.192601
0.806173 0.208311 -0.553798
-0.538918 -0.138683 0.830864
-0.188862 -0.0483667 0.980812
0.190652 0.0463295 0.980564
0.541493 0.13148 0.830361
0.809403 0.196484 0.553409
0.954293 0.228707 0.192401
0.957266 0.212137 -0.196571
0.83439 0.052069 -0.54871
-0.327381 0.928071 0.177499
-0.223099 0.973967 0.0401982
-0.223298 0.973859 -0.0416819
-0.328965 0.926922 -0.180548
0.833871 0.056625 0.549047
0.957133 0.212755 0.196552
0.954308 0.228638 -0.192407
0.809508 0.196149 -0.553374
-0.541397 -0.130409 0.830592
-0.18978 -0.0454949 0.980772
0.191464 0.0438627 0.980519
0.543602 0.124779 0.830016
0.812126 0.186558 0.552854
0.957331 0.215869 0.192141
0.961479 0.192433 -0.196285
0.838018 0.00011637 -0.545642
-0.338255 0.912831 0.228741
-0.203841 0.977733 0.0498718
-0.204143 0.977568 -0.0518246
-0.339969 0.911383 -0.231953
0.837678 0.00534947 0.546138
0.961336 0.193151 0.19628
0.957361 0.215737 -0.192141
0.812248 0.186143 -0.552815
-0.543547 -0.123503 0.830243
-0.190601 -0.043115 0.98072
0.192109 0.0420179 0.980474
0.545263 0.119995 0.829632
0.814154 0.179545 0.552193
0.959527 0.206217 0.191788
0.964985 0.174344 -0.195978
0.838762 -0.0594067 -0.541248
-0.345253 0.897708 0.273718
-0.183888 0.981213 0.0583687
-0.184294 0.980991 -0.06076
-0.34684 0.896204 -0.276623
0.838713 -0.0540393 0.541887
0.964861 0.175032 0.195977
0.959579 0.205968 -0.191793
0.814297 0.178997 -0.552159
-0.545266 -0.118414 0.829857
-0.191284 -0.0413941 0.980662
0.192439 0.0409219 0.980455
0.546177 0.117536 0.829383
0.815222 0.176182 0.551701
0.960654 0.201194 0.191481
0.967299 0.161272 -0.195763
0.834553 -0.134636 -0.534223
-0.333499 0.896933 0.290327
-0.160512 0.985041 0.0626901
-0.160923 0.984829 -0.0649224
-0.334352 0.896125 -0.291836
0.834821 -0.130433 0.534847
0.967229 0.161709 0.19575
0.960733 0.200794 -0.191505
0.815388 0.175432 -0.551694
-0.546267 -0.115512 0.829608
-0.191716 -0.0404656 0.980616
0.192156 0.040556 0.980526
0.545559 0.117819 0.829749
0.814219 0.178573 0.552411
0.959377 0.206357 0.192388
0.967038 0.16302 -0.195605
0.804278 -0.308601 -0.507841
-0.252208 0.943181 0.216337
-0.120194 0.991346 0.0527866
-0.120023 0.991418 -0.0518106
-0.247393 0.946158 -0.208761
0.804885 -0.30584 0.508549
0.967097 0.162636 0.195635
0.959562 0.205489 -0.192395
0.814447 0.177305 -0.552484
-0.54581 -0.115065 0.829971
-0.191653 -0.0403671 0.980632
0.191061 0.0374526 0.980863
0.543382 0.108721 0.832416
0.813459 0.16365 0.558124
0.9621 0.186648 0.19881
0.970416 0.143104 -0.194457
0.829518 -0.0339104 -0.557449
-0.555577 0.0107202 0.831396
-0.195261 0.00152457 0.98075
0.195379 -0.00211796 0.980726
0.555551 -0.0132366 0.831377
0.829465 -0.0334631 0.557556
0.970379 0.143189 0.194581
0.962271 0.185923 -0.198663
0.813742 0.162364 -0.558087
-0.543873 -0.106084 0.832435
-0.190751 -0.0374939 0.980922
0.191222 0.0345818 0.980938
0.543817 0.100736 0.833136
0.814613 0.151659 0.559826
0.964527 0.171521 0.20067
0.972442 0.127474 -0.195211
0.826818 0.0106827 -0.562367
-0.550204 0.00366922 0.835022
-0.192758 0.000697374 0.981246
0.193059 -0.00135868 0.981186
0.550027 -0.00822758 0.835106
0.826725 0.0110648 0.562498
0.97237 0.127861 0.195314
0.964639 0.1711 -0.200489
0.814861 0.150807 -0.559695
-0.544356 -0.0985033 0.833051
-0.190879 -0.0347568 0.980998
0.187691 0.0401339 0.981408
0.53286 0.121346 0.837458
0.79686 0.194387 0.572038
0.948409 0.228418 0.219875
0.975233 0.0657461 -0.211181
0.804984 -0.0929406 -0.585971
-0.537098 0.0476114 0.842175
-0.188317 0.0147097 0.981998
0.188423 -0.01441 0.981982
0.535252 -0.05867 0.842652
0.804938 -0.0928148 0.586055
0.975169 0.06891 0.210467
0.948569 0.227908 -0.219716
0.79751 0.192518 -0.571765
-0.535441 -0.114665 0.836753
-0.187453 -0.0406774 0.981431
0.00938967 0.00869607 0.999918
0.00257188 0.000343963 0.999997
</DataArray>
<DataArray type="Float64" Name="cell vector length" format="ascii">
0.154525 0.139292 0.128167 0.102601 0.0691593 0.13333 0.189812 0.182744 0.178799 0.183153 0.134977 0.0691093 0.101807 0.126022 0.158535 0.163085 0.40203 0.377055 0.346738 0.312202 0.284755 0.322868 0.402296 0.436296 0.430776 0.387185 0.320661 0.284789 0.31321 0.349762 0.397888 0.409505 0.50379 0.479213 0.444157 0.399416 0.352471 0.399609 0.501732 0.546204 0.542275 0.490404 0.397859 0.352861 0.400667 0.446416 0.495516 0.509185 0.531426 0.505231 0.464903 0.40894 0.332316 0.181065 0.118855 0.213842 0.214369 0.12047 0.18179 0.332914 0.410157 0.466702 0.520028 0.536156 0.547577 0.519 0.471885 0.402342 0.299692 0.144426 0.106126 0.203204 0.202747 0.104971 0.145118 0.300593 0.403608 0.473403 0.532972 0.551912 0.558788 0.527587 0.473682 0.391822 0.272489 0.114183 0.0907141 0.187502 0.187078 0.0896049 0.115225 0.273729 0.393193 0.475047 0.541106 0.562906 0.566936 0.533485 0.474085 0.382987 0.253462 0.0930417 0.0795542 0.174613 0.174258 0.0785207 0.0942346 0.254893 0.384429 0.475368 0.546772 0.570941 0.572766 0.537551 0.474033 0.376386 0.240399 0.0783149 0.0725956 0.164742 0.164435 0.0716098 0.0795938 0.241943 0.377881 0.475286 0.55075 0.576723 0.57688 0.540319 0.473798 0.371594 0.231379 0.0680227 0.0687169 0.157539 0.157267 0.0677669 0.069349 0.232992 0.373138 0.475055 0.553524 0.58083 0.579742 0.54217 0.473487 0.368135 0.225109 0.0612809 0.0664384 0.152526 0.152277 0.0655183 0.0626222 0.226759 0.369725 0.474772 0.555441 0.583712 0.581688 0.543363 0.473168 0.36567 0.220752 0.056272 0.0655047 0.149024 0.148792 0.0646042 0.0576129 0.222419 0.3673 0.474492 0.556738 0.585694 0.582994 0.544107 0.472851 0.363886 0.217678 0.0527324 0.065135 0.146646 0.146427 0.0642512 0.0540569 0.219351 0.365551 0.474217 0.557605 0.587043 0.583853 0.544548 0.472545 0.362581 0.215497 0.0502312 0.0650632 0.145146 0.144938 0.0641953 0.0515314 0.217171 0.364276 0.473953 0.558177 0.587951 0.584392 0.544776 0.472261 0.361629 0.213957 0.0484637 0.0651374 0.144282 0.144083 0.0642837 0.0497355 0.215628 0.36335 0.473707 0.558536 0.588538 0.584694 0.544852 0.472001 0.360943 0.212885 0.0472167 0.065295 0.14389 0.143697 0.0644483 0.048464 0.214554 0.362686 0.473481 0.558742 0.588889 0.584813 0.544814 0.471766 0.360469 0.212177 0.0463547 0.0655109 0.14387 0.14368 0.0646643 0.0475847 0.213846 0.362234 0.473277 0.55883 0.589056 0.584772 0.544679 0.471558 0.360186 0.211783 0.0457728 0.065826 0.144188 0.143983 0.0649396 0.0470107 0.213458 0.361974 0.473098 0.558814 0.58906 0.584568 0.544447 0.47138 0.360098 0.211704 0.0454022 0.0662902 0.144848 0.144633 0.0653735 0.0466514 0.213393 0.361906 0.472938 0.55869 0.588899 0.584174 0.544096 0.471227 0.360232 0.212001 0.0453933 0.0667998 0.145856 0.14565 0.06589 0.0466386 0.213704 0.362059 0.472802 0.558441 0.588546 0.583529 0.543585 0.471101 0.360651 0.212798 0.0458972 0.0673744 0.147318 0.147129 0.0664911 0.0471276 0.214514 0.362493 0.472688 0.558029 0.58794 0.58254 0.542849 0.471002 0.361455 0.214288 0.0471383 0.0680853 0.149403 0.149224 0.0672174 0.0483634 0.216018 0.363305 0.472592 0.557385 0.58699 0.581065 0.541786 0.470928 0.362793 0.216763 0.0494699 0.0690639 0.152351 0.152182 0.0682102 0.0506892 0.218504 0.364643 0.472515 0.556418 0.585556 0.578906 0.540255 0.470874 0.364885 0.220646 0.0533985 0.0705936 0.15651 0.156346 0.0697484 0.0546052 0.222388 0.366721 0.472452 0.554991 0.583446 0.575785 0.538049 0.47083 0.368045 0.22656 0.0596318 0.0732145 0.162331 0.162161 0.0723659 0.0608048 0.228278 0.369842 0.472393 0.552914 0.580389 0.571316 0.534876 0.470759 0.372699 0.235416 0.0691583 0.0778379 0.170371 0.170184 0.076969 0.0702501 0.237066 0.37442 0.472305 0.549916 0.57601 0.564951 0.530292 0.470522 0.379323 0.248527 0.0833552 0.085791 0.18131 0.181092 0.084869 0.0842877 0.25004 0.380923 0.472055 0.545586 0.56978 0.555747 0.523401 0.469429 0.387872 0.267354 0.103872 0.0987437 0.196195 0.195948 0.0977314 0.104516 0.268632 0.389302 0.470964 0.539076 0.560781 0.540781 0.510884 0.463587 0.394303 0.290253 0.130326 0.119786 0.218334 0.218126 0.118751 0.130474 0.291147 0.395509 0.465158 0.527205 0.546139 0.503129 0.473856 0.430636 0.371705 0.291229 0.13537 0.168152 0.268891 0.270085 0.171725 0.135586 0.291876 0.372761 0.432317 0.491702 0.509119 0.479759 0.450652 0.409199 0.357132 0.30378 0.357447 0.474953 0.521848 0.516011 0.458554 0.355264 0.304371 0.358227 0.410982 0.469477 0.486067 0.44327 0.413566 0.372171 0.324213 0.289264 0.326594 0.423692 0.464841 0.457408 0.40224 0.324575 0.289681 0.325241 0.373968 0.433186 0.449851 0.204221 0.17512 0.13297 0.0852041 0.0656523 0.128537 0.239919 0.292844 0.287088 0.222554 0.129178 0.0667049 0.0859407 0.132559 0.1946 0.210274 0.048428 0.0152124 
</DataArray>
<DataArray type="Float64" Name="cell variable 4" format="ascii">
854.83 846.008 843.459 838.805 830.501 859.643 874.655 857.35 853.954 866.277 860.442 830.39 838.222 841.022 860.098 859.783 1105.93 1086.01 1074.29 1067.12 1063.69 1084.78 1120.43 1116.67 1110.3 1100.75 1084.79 1063.69 1066.96 1074.45 1114.72 1115.55 1306.26 1283.27 1268.53 1258.56 1252.75 1277.52 1320.94 1322 1315.61 1300.7 1277.73 1253 1258.68 1268.73 1317.25 1317.17 1349.08 1323.82 1306.1 1293.46 1284.04 1311.7 1467.4 1672.99 1671.22 1463.14 1311.16 1283.92 1293.39 1306.22 1358.76 1360.27 1358.2 1332.88 1315.73 1305.33 1299.25 1313.9 1451.82 1640.06 1638.85 1449.48 1313.15 1299.03 1305.23 1315.82 1367.98 1369.41 1361.34 1335.07 1316.44 1304.91 1298.3 1306.68 1438.53 1611 1610.08 1436.68 1306.24 1298.2 1304.89 1316.53 1370.19 1372.55 1363.43 1336.05 1315.78 1303.02 1296.03 1301.27 1429.86 1588.6 1587.89 1428.3 1300.93 1295.94 1303.01 1315.86 1371.25 1374.66 1364.98 1336.69 1315.09 1301.34 1294.11 1297.47 1424.93 1572.08 1571.51 1423.58 1297.2 1294.03 1301.33 1315.15 1372.03 1376.28 1366.21 1337.15 1314.48 1299.98 1292.61 1294.73 1422.48 1560.36 1559.91 1421.29 1294.52 1292.53 1299.96 1314.52 1372.69 1377.58 1367.15 1337.48 1313.98 1298.93 1291.45 1292.73 1420.97 1552.38 1552.01 1419.92 1292.57 1291.36 1298.89 1314.01 1373.24 1378.63 1367.81 1337.63 1313.58 1298.14 1290.56 1291.25 1420.6 1546.88 1546.57 1419.67 1291.12 1290.47 1298.09 1313.59 1373.64 1379.39 1368.25 1337.68 1313.26 1297.56 1289.9 1290.15 1420.58 1543.2 1542.93 1419.75 1290.04 1289.81 1297.51 1313.26 1373.94 1379.95 1368.57 1337.65 1312.96 1297.09 1289.35 1289.28 1420.75 1540.9 1540.67 1420 1289.19 1289.26 1297.03 1312.96 1374.18 1380.38 1368.76 1337.55 1312.68 1296.7 1288.91 1288.6 1420.99 1539.59 1539.4 1420.32 1288.52 1288.81 1296.63 1312.67 1374.34 1380.69 1368.83 1337.39 1312.4 1296.37 1288.54 1288.04 1421.28 1539.01 1538.85 1420.68 1287.96 1288.44 1296.31 1312.39 1374.44 1380.88 1368.79 1337.17 1312.14 1296.12 1288.25 1287.58 1421.6 1539.01 1538.86 1421.04 1287.5 1288.15 1296.05 1312.13 1374.46 1380.95 1368.63 1336.89 1311.89 1295.92 1288.03 1287.19 1422.03 1539.53 1539.37 1421.45 1287.1 1287.93 1295.86 1311.88 1374.41 1380.9 1368.37 1336.56 1311.65 1295.79 1287.87 1286.84 1422.62 1540.58 1540.43 1422.09 1286.77 1287.77 1295.71 1311.63 1374.29 1380.73 1368.01 1336.17 1311.42 1295.71 1287.77 1286.54 1423.24 1542.16 1542.05 1422.76 1286.47 1287.68 1295.63 1311.4 1374.09 1380.46 1367.54 1335.73 1311.2 1295.69 1287.75 1286.3 1423.87 1544.45 1544.37 1423.46 1286.23 1287.65 1295.62 1311.18 1373.83 1380.07 1366.95 1335.22 1310.99 1295.75 1287.81 1286.17 1424.54 1547.7 1547.67 1424.21 1286.09 1287.71 1295.68 1310.98 1373.49 1379.56 1366.21 1334.64 1310.83 1295.93 1287.98 1286.2 1425.32 1552.33 1552.34 1425.06 1286.12 1287.89 1295.86 1310.81 1373.07 1378.89 1365.29 1333.99 1310.73 1296.27 1288.33 1286.51 1426.42 1558.92 1558.96 1426.2 1286.42 1288.24 1296.2 1310.71 1372.56 1378.04 1364.16 1333.25 1310.72 1296.86 1288.9 1287.26 1428.24 1568.28 1568.32 1428.04 1287.13 1288.82 1296.79 1310.71 1371.95 1376.96 1362.73 1332.4 1310.86 1297.77 1289.79 1288.65 1431.51 1581.44 1581.45 1431.28 1288.44 1289.71 1297.71 1310.86 1371.21 1375.6 1360.82 1331.28 1311.04 1298.95 1290.95 1290.93 1437.39 1599.65 1599.59 1437.04 1290.59 1290.87 1298.91 1311.06 1370.19 1373.73 1357.38 1328.82 1310.09 1299.12 1291.19 1293.83 1447.14 1624.28 1624.05 1446.53 1293.27 1291.1 1299.09 1310.12 1367.76 1370.31 1345.36 1317.36 1299.35 1288.86 1281.06 1292.38 1460.93 1656.58 1656.1 1459.86 1291.4 1280.83 1288.77 1299.38 1356.01 1358.22 1277.98 1249.64 1229.15 1214.38 1202.1 1236.25 1478.55 1702.69 1701.69 1476.2 1235.63 1202.01 1214.3 1229.1 1286.08 1290.15 1222.88 1196.23 1177.31 1164.08 1155.13 1177.82 1234.67 1241.56 1233.02 1209.26 1178.02 1155.44 1164.25 1177.37 1231.13 1234.55 1103.69 1077.78 1057.23 1041.06 1030.22 1041.52 1092.74 1095.56 1085.1 1062.03 1041.35 1030.43 1041.26 1057.59 1109.08 1114.32 774.577 765.743 764.747 769.394 778.403 803.482 853.161 867.042 860.799 833.853 804.879 778.715 769.303 763.243 784.637 780.318 615.561 745.326 
</DataArray>
<DataArray type="Float64" Name="cell variable 5" format="ascii">
0.00364139 0.00364139 0.00364139 0.00364139 0.00364139 0.00364139 0.00364139 0.00364139 0.00364139 0.00364139 0.00364139 0.00364139 0.00364139 0.00364139 0.00364139 0.00364139 0.00364139 0.00364139 0.00364139 0.00364139 0.00364139 0.00364139 0.00364139 0.00364139 0.00364139 0.00364139 0.00364139 0.00364139 0.00364139 0.00364139 0.00364139 0.00364139 0.00364139 0.00364139 0.00364139 0.00364139 0.00364139 0.00364139 0.00364139 0.00364139 0.00364139 0.00364139 0.00364139 0.00364139 0.00364139 0.00364139 0.00364139 0.00364139 0.00550336 0.00509471 0.00443522 0.00380647 0.00364139 0.00364139 0.00364139 0.00364139 0.00364139 0.00364139 0.00364139 0.00364139 0.00380647 0.00443522 0.00509471 0.00550336 0.00622678 0.00565953 0.00474352 0.0038704 0.00364139 0.00364139 0.00364139 0.00364139 0.00364139 0.00364139 0.00364139 0.00364139 0.0038704 0.00474352 0.00565953 0.00622678 0.00664595 0.00598726 0.00492235 0.00390762 0.00364139 0.00364139 0.00364139 0.00364139 0.00364139 0.00364139 0.00364139 0.00364139 0.00390762 0.00492235 0.00598726 0.00664595 0.00695101 0.00622435 0.00505263 0.00393513 0.00364139 0.00364139 0.00364139 0.00364139 0.00364139 0.00364139 0.00364139 0.00364139 0.00393513 0.00505263 0.00622435 0.00695101 0.00718892 0.00641047 0.00515378 0.00395617 0.00364139 0.00364139 0.00364139 0.00364139 0.00364139 0.00364139 0.00364139 0.00364139 0.00395617 0.00515378 0.00641047 0.00718892 0.0073807 0.00656017 0.00523551 0.00397316 0.00364139 0.00364139 0.00364139 0.00364139 0.00364139 0.00364139 0.00364139 0.00364139 0.00397316 0.00523551 0.00656017 0.0073807 0.00753768 0.00668236 0.00530268 0.00398692 0.00364139 0.00364139 0.00364139 0.00364139 0.00364139 0.00364139 0.00364139 0.00364139 0.00398692 0.00530268 0.00668236 0.00753768 0.00766473 0.00678189 0.00535689 0.00399825 0.00364139 0.00364139 0.00364139 0.00364139 0.00364139 0.00364139 0.00364139 0.00364139 0.00399825 0.00535689 0.00678189 0.00766473 0.00776669 0.006862 0.00540059 0.00400715 0.00364139 0.00364139 0.00364139 0.00364139 0.00364139 0.00364139 0.00364139 0.00364139 0.00400715 0.00540059 0.006862 0.00776669 0.00784599 0.0069235 0.00543377 0.00401443 0.00364139 0.00364139 0.00364139 0.00364139 0.00364139 0.00364139 0.00364139 0.00364139 0.00401443 0.00543377 0.0069235 0.00784599 0.00790425 0.00696882 0.00545885 0.00401929 0.00364139 0.00364139 0.00364139 0.00364139 0.00364139 0.00364139 0.00364139 0.00364139 0.00401929 0.00545885 0.00696882 0.00790425 0.00794309 0.00699876 0.00547504 0.00402333 0.00364139 0.00364139 0.00364139 0.00364139 0.00364139 0.00364139 0.00364139 0.00364139 0.00402333 0.00547504 0.00699876 0.00794309 0.0079617 0.00701413 0.00548313 0.00402495 0.00364139 0.00364139 0.00364139 0.00364139 0.00364139 0.00364139 0.00364139 0.00364139 0.00402495 0.00548313 0.00701413 0.0079617 0.0079617 0.00701413 0.00548313 0.00402495 0.00364139 0.00364139 0.00364139 0.00364139 0.00364139 0.00364139 0.00364139 0.00364139 0.00402495 0.00548313 0.00701413 0.0079617 0.00794309 0.00699876 0.00547504 0.00402333 0.00364139 0.00364139 0.00364139 0.00364139 0.00364139 0.00364139 0.00364139 0.00364139 0.00402333 0.00547504 0.00699876 0.00794309 0.00790425 0.00696882 0.00545885 0.00401929 0.00364139 0.00364139 0.00364139 0.00364139 0.00364139 0.00364139 0.00364139 0.00364139 0.00401929 0.00545885 0.00696882 0.00790425 0.00784599 0.0069235 0.00543377 0.00401443 0.00364139 0.00364139 0.00364139 0.00364139 0.00364139 0.00364139 0.00364139 0.00364139 0.00401443 0.00543377 0.0069235 0.00784599 0.00776669 0.006862 0.00540059 0.00400715 0.00364139 0.00364139 0.00364139 0.00364139 0.00364139 0.00364139 0.00364139 0.00364139 0.00400715 0.00540059 0.006862 0.00776669 0.00766473 0.00678189 0.00535689 0.00399825 0.00364139 0.00364139 0.00364139 0.00364139 0.00364139 0.00364139 0.00364139 0.00364139 0.00399825 0.00535689 0.00678189 0.00766473 0.00753768 0.00668236 0.00530268 0.00398692 0.00364139 0.00364139 0.00364139 0.00364139 0.00364139 0.00364139 0.00364139 0.00364139 0.00398692 0.00530268 0.00668236 0.00753768 0.0073807 0.00656017 0.00523551 0.00397316 0.00364139 0.00364139 0.00364139 0.00364139 0.00364139 0.00364139 0.00364139 0.00364139 0.00397316 0.00523551 0.00656017 0.0073807 0.00718892 0.00641047 0.00515378 0.00395617 0.00364139 0.00364139 0.00364139 0.00364139 0.00364139 0.00364139 0.00364139 0.00364139 0.00395617 0.00515378 0.00641047 0.00718892 0.00695101 0.00622435 0.00505263 0.00393513 0.00364139 0.00364139 0.00364139 0.00364139 0.00364139 0.00364139 0.00364139 0.00364139 0.00393513 0.00505263 0.00622435 0.00695101 0.00664595 0.00598726 0.00492235 0.00390762 0.00364139 0.00364139 0.00364139 0.00364139 0.00364139 0.00364139 0.00364139 0.00364139 0.00390762 0.00492235 0.00598726 0.00664595 0.00622678 0.00565953 0.00474352 0.0038704 0.00364139 0.00364139 0.00364139 0.00364139 0.00364139 0.00364139 0.00364139 0.00364139 0.0038704 0.00474352 0.00565953 0.00622678 0.00550336 0.00509471 0.00443522 0.00380647 0.00364139 0.00364139 0.00364139 0.00364139 0.00364139 0.00364139 0.00364139 0.00364139 0.00380647 0.00443522 0.00509471 0.00550336 0.00364139 0.00364139 0.00364139 0.00364139 0.00364139 0.00364139 0.00364139 0.00364139 0.00364139 0.00364139 0.00364139 0.00364139 0.00364139 0.00364139 0.00364139 0.00364139 0.00364139 0.00364139 0.00364139 0.00364139 0.00364139 0.00364139 0.00364139 0.00364139 0.00364139 0.00364139 0.00364139 0.00364139 0.00364139 0.00364139 0.00364139 0.00364139 0.00364139 0.00364139 0.00364139 0.00364139 0.00364139 0.00364139 0.00364139 0.00364139 0.00364139 0.00364139 0.00364139 0.00364139 0.00364139 0.00364139 0.00364139 0.00364139 0.00364139 0.00364139 
</DataArray>
<DataArray type="Float64" Name="cell variable 6" format="ascii">
1 1 1 1 1 1 1 1 1 1 1 1 1 1 1 1 1 1 1 1 1 1 1 1 1 1 1 1 1 1 1 1 1 1 1 1 1 1 1 1 1 1 1 1 1 1 1 1 1 1 1 1 1 1 1 1 1 1 1 1 1 1 1 1 1 1 1 1 1 1 1 1 1 1 1 1 1 1 1 1 1 1 1 1 1 1 1 1 1 1 1 1 1 1 1 1 1 1 1 1 1 1 1 1 1 1 1 1 1 1 1 1 1 1 1 1 1 1 1 1 1 1 1 1 1 1 1 1 1 1 1 1 1 1 1 1 1 1 1 1 1 1 1 1 1 1 1 1 1 1 1 1 1 1 1 1 1 1 1 1 1 1 1 1 1 1 1 1 1 1 1 1 1 1 1 1 1 1 1 1 1 1 1 1 1 1 1 1 1 1 1 1 1 1 1 1 1 1 1 1 1 1 1 1 1 1 1 1 1 1 1 1 1 1 1 1 1 1 1 1 1 1 1 1 1 1 1 1 1 1 1 1 1 1 1 1 1 1 1 1 1 1 1 1 1 1 1 1 1 1 1 1 1 1 1 1 1 1 1 1 1 1 1 1 1 1 1 1 1 1 1 1 1 1 1 1 1 1 1 1 1 1 1 1 1 1 1 1 1 1 1 1 1 1 1 1 1 1 1 1 1 1 1 1 1 1 1 1 1 1 1 1 1 1 1 1 1 1 1 1 1 1 1 1 1 1 1 1 1 1 1 1 1 1 1 1 1 1 1 1 1 1 1 1 1 1 1 1 1 1 1 1 1 1 1 1 1 1 1 1 1 1 1 1 1 1 1 1 1 1 1 1 1 1 1 1 1 1 1 1 1 1 1 1 1 1 1 1 1 1 1 1 1 1 1 1 1 1 1 1 1 1 1 1 1 1 1 1 1 1 1 1 1 1 1 1 1 1 1 1 1 1 1 1 1 1 1 1 1 1 1 1 1 1 1 1 1 1 1 1 1 1 1 1 1 1 1 1 1 1 1 1 1 1 1 1 1 1 1 1 1 1 1 1 1 1 1 1 1 1 1 1 1 1 1 1 1 1 1 1 1 1 1 1 1 1 1 1 1 1 1 1 1 1 1 1 1 1 1 1 1 1 1 1 1 1 1 1 1 1 1 1 1 1 
</DataArray>
<DataArray type="Float64" Name="cell variable 7" format="ascii">
0 0 0 0 0 0 0 0 0 0 0 0 0 0 0 0 0 0 0 0 0 0 0 0 0 0 0 0 0 0 0 0 0 0 0 0 0 0 0 0 0 0 0 0 0 0 0 0 0 0 0 0 0 0 0 0 0 0 0 0 0 0 0 0 0 0 0 0 0 0 0 0 0 0 0 0 0 0 0 0 0 0 0 0 0 0 0 0 0 0 0 0 0 0 0 0 0 0 0 0 0 0 0 0 0 0 0 0 0 0 0 0 0 0 0 0 0 0 0 0 0 0 0 0 0 0 0 0 0 0 0 0 0 0 0 0 0 0 0 0 0 0 0 0 0 0 0 0 0 0 0 0 0 0 0 0 0 0 0 0 0 0 0 0 0 0 0 0 0 0 0 0 0 0 0 0 0 0 0 0 0 0 0 0 0 0 0 0 0 0 0 0 0 0 0 0 0 0 0 0 0 0 0 0 0 0 0 0 0 0 0 0 0 0 0 0 0 0 0 0 0 0 0 0 0 0 0 0 0 0 0 0 0 0 0 0 0 0 0 0 0 0 0 0 0 0 0 0 0 0 0 0 0 0 0 0 0 0 0 0 0 0 0 0 0 0 0 0 0 0 0 0 0 0 0 0 0 0 0 0 0 0 0 0 0 0 0 0 0 0 0 0 0 0 0 0 0 0 0 0 0 0 0 0 0 0 0 0 0 0 0 0 0 0 0 0 0 0 0 0 0 0 0 0 0 0 0 0 0 0 0 0 0 0 0 0 0 0 0 0 0 0 0 0 0 0 0 0 0 0 0 0 0 0 0 0 0 0 0 0 0 0 0 0 0 0 0 0 0 0 0 0 0 0 0 0 0 0 0 0 0 0 0 0 0 0 0 0 0 0 0 0 0 0 0 0 0 0 0 0 0 0 0 0 0 0 0 0 0 0 0 0 0 0 0 0 0 0 0 0 0 0 0 0 0 0 0 0 0 0 0 0 0 0 0 0 0 0 0 0 0 0 0 0 0 0 0 0 0 0 0 0 0 0 0 0 0 0 0 0 0 0 0 0 0 0 0 0 0 0 0 0 0 0 0 0 0 0 0 0 0 0 0 0 0 0 0 0 0 0 0 0 0 0 0 0 0 0 0 0 0 0 0 0 0 0 0 0 0 0 0 0 1 1 
</DataArray>
<DataArray type="Float64" Name="cell variable 8" format="ascii">
11.25 33.75 56.25 78.75 101.25 123.75 146.25 168.75 191.25 213.75 236.25 258.75 281.25 303.75 326.25 348.75 11.25 33.75 56.25 78.75 101.25 123.75 146.25 168.75 191.25 213.75 236.25 258.75 281.25 303.75 326.25 348.75 11.25 33.75 56.25 78.75 101.25 123.75 146.25 168.75 191.25 213.75 236.25 258.75 281.25 303.75 326.25 348.75 11.25 33.75 56.25 78.75 101.25 123.75 146.25 168.75 191.25 213.75 236.25 258.75 281.25 303.75 326.25 348.75 11.25 33.75 56.25 78.75 101.25 123.75 146.25 168.75 191.25 213.75 236.25 258.75 281.25 303.75 326.25 348.75 11.25 33.75 56.25 78.75 101.25 123.75 146.25 168.75 191.25 213.75 236.25 258.75 281.25 303.75 326.25 348.75 11.25 33.75 56.25 78.75 101.25 123.75 146.25 168.75 191.25 213.75 236.25 258.75 281.25 303.75 326.25 348.75 11.25 33.75 56.25 78.75 101.25 123.75 146.25 168.75 191.25 213.75 236.25 258.75 281.25 303.75 326.25 348.75 11.25 33.75 56.25 78.75 101.25 123.75 146.25 168.75 191.25 213.75 236.25 258.75 281.25 303.75 326.25 348.75 11.25 33.75 56.25 78.75 101.25 123.75 146.25 168.75 191.25 213.75 236.25 258.75 281.25 303.75 326.25 348.75 11.25 33.75 56.25 78.75 101.25 123.75 146.25 168.75 191.25 213.75 236.25 258.75 281.25 303.75 326.25 348.75 11.25 33.75 56.25 78.75 101.25 123.75 146.25 168.75 191.25 213.75 236.25 258.75 281.25 303.75 326.25 348.75 11.25 33.75 56.25 78.75 101.25 123.75 146.25 168.75 191.25 213.75 236.25 258.75 281.25 303.75 326.25 348.75 11.25 33.75 56.25 78.75 101.25 123.75 146.25 168.75 191.25 213.75 236.25 258.75 281.25 303.75 326.25 348.75 11.25 33.75 56.25 78.75 101.25 123.75 146.25 168.75 191.25 213.75 236.25 258.75 281.25 303.75 326.25 348.75 11.25 33.75 56.25 78.75 101.25 123.75 146.25 168.75 191.25 213.75 236.25 258.75 281.25 303.75 326.25 348.75 11.25 33.75 56.25 78.75 101.25 123.75 146.25 168.75 191.25 213.75 236.25 258.75 281.25 303.75 326.25 348.75 11.25 33.75 56.25 78.75 101.25 123.75 146.25 168.75 191.25 213.75 236.25 258.75 281.25 303.75 326.25 348.75 11.25 33.75 56.25 78.75 101.25 123.75 146.25 168.75 191.25 213.75 236.25 258.75 281.25 303.75 326.25 348.75 11.25 33.75 56.25 78.75 101.25 123.75 146.25 168.75 191.25 213.75 236.25 258.75 281.25 303.75 326.25 348.75 11.25 33.75 56.25 78.75 101.25 123.75 146.25 168.75 191.25 213.75 236.25 258.75 281.25 303.75 326.25 348.75 11.25 33.75 56.25 78.75 101.25 123.75 146.25 168.75 191.25 213.75 236.25 258.75 281.25 303.75 326.25 348.75 11.25 33.75 56.25 78.75 101.25 123.75 146.25 168.75 191.25 213.75 236.25 258.75 281.25 303.75 326.25 348.75 11.25 33.75 56.25 78.75 101.25 123.75 146.25 168.75 191.25 213.75 236.25 258.75 281.25 303.75 326.25 348.75 11.25 33.75 56.25 78.75 101.25 123.75 146.25 168.75 191.25 213.75 236.25 258.75 281.25 303.75 326.25 348.75 11.25 33.75 56.25 78.75 101.25 123.75 146.25 168.75 191.25 213.75 236.25 258.75 281.25 303.75 326.25 348.75 11.25 33.75 56.25 78.75 101.25 123.75 146.25 168.75 191.25 213.75 236.25 258.75 281.25 303.75 326.25 348.75 11.25 33.75 56.25 78.75 101.25 123.75 146.25 168.75 191.25 213.75 236.25 258.75 281.25 303.75 326.25 348.75 11.25 33.75 56.25 78.75 101.25 123.75 146.25 168.75 191.25 213.75 236.25 258.75 281.25 303.75 326.25 348.75 11.25 33.75 56.25 78.75 101.25 123.75 146.25 168.75 191.25 213.75 236.25 258.75 281.25 303.75 326.25 348.75 11.25 33.75 56.25 78.75 101.25 123.75 146.25 168.75 191.25 213.75 236.25 258.75 281.25 303.75 326.25 348.75 11.25 33.75 56.25 78.75 101.25 123.75 146.25 168.75 191.25 213.75 236.25 258.75 281.25 303.75 326.25 348.75 0 0 
</DataArray>
</CellData>
</Piece>
</UnstructuredGrid>
</VTKFile>
