<VTKFile type="UnstructuredGrid" version="0.1">
<UnstructuredGrid>
<Piece  NumberOfPoints="    2080" NumberOfCells="     514">
<Points>
<DataArray type="Float64" NumberOfComponents="3" format="ascii">
-82.6485 954.678 1.65837
-78.8982 958.132 27.4143
-64.4368 934.432 29.5377
-68.5309 930.698 1.6724
-78.0557 958.899 30.1675
-67.275 968.684 52.0107
-51.9044 945.796 55.8797
-63.5943 935.199 32.2909
-65.7114 970.094 54.1165
-49.4809 984.668 68.6998
-32.789 962.973 73.7235
-50.3407 947.207 57.9855
-47.4309 986.502 69.838
-28.244 1003.64 74.9388
-9.97991 983.316 80.3762
-30.7391 964.808 74.8617
-26.0236 1005.62 74.937
-6.83988 1022.74 69.7946
12.9884 1003.81 74.8412
-7.75953 985.297 80.3745
-4.79211 1024.57 68.6557
11.4098 1039.17 54.0837
32.5696 1021.47 57.9741
15.0362 1005.64 73.7024
12.9694 1040.59 51.9802
23.724 1050.48 30.1816
45.7441 1033.66 32.2751
34.1293 1022.89 55.8706
24.5627 1051.26 27.4286
28.3176 1054.8 1.67423
50.6254 1038.28 1.65384
46.5828 1034.44 29.5221
28.3166 1054.8 -1.30808
24.544 1051.31 -27.0667
46.568 1034.49 -29.1937
50.6244 1038.28 -1.32847
23.7041 1050.53 -29.8195
12.9411 1040.65 -51.6257
34.1134 1022.96 -55.5295
45.7281 1033.71 -31.9464
11.3818 1039.23 -53.7293
-4.81369 1024.63 -68.3043
15.0239 1005.72 -73.3656
32.554 1021.54 -57.633
-6.86076 1022.8 -69.4438
-26.0364 1005.67 -74.5908
-7.76139 985.363 -80.0485
12.9769 1003.88 -74.5051
-28.2556 1003.69 -74.5934
-47.4327 986.538 -69.4978
-30.7255 964.856 -74.5454
-9.98065 983.38 -80.051
-49.4802 984.701 -68.3601
-65.6728 970.092 -53.7722
-50.3093 947.239 -57.6676
-32.773 963.019 -73.4077
-67.2349 968.679 -51.6654
-78.0043 958.88 -29.8276
-63.5734 935.207 -31.9391
-51.8715 945.825 -55.5608
-78.8489 958.112 -27.0727
-82.6467 954.678 -1.32294
-68.5291 930.698 -1.30891
-64.4181 934.439 -29.1843
-66.6338 928.034 1.7471
-62.5397 931.768 29.6124
-42.4561 907.353 30.2147
-46.6503 903.54 1.74025
-49.9627 943.17 56.0912
-29.6137 918.964 57.2085
-41.569 908.158 33.1048
-61.6526 932.572 32.5025
-30.7678 960.416 74.0385
-10.0211 936.505 75.5102
-27.9705 920.443 59.4177
-48.3195 944.649 58.3004
-7.85569 980.846 80.7474
13.3674 957.278 82.3597
-7.86814 938.427 76.7046
-28.6148 962.338 75.2328
15.2248 1001.43 75.2137
36.9248 978.217 76.7186
15.6999 959.354 82.3592
-5.52321 982.922 80.747
34.9062 1019.19 58.2924
56.9305 996.338 59.458
39.0728 980.144 75.5255
17.3728 1003.36 74.0206
48.151 1031.46 32.4894
70.2473 1008.98 33.1013
58.5606 997.835 57.2505
36.5362 1020.68 56.0849
53.0667 1036.12 1.72772
75.1669 1013.77 1.71071
71.1204 1009.8 30.2079
49.0241 1032.28 29.596
49.0094 1032.33 -29.2713
71.1032 1009.83 -29.9087
75.166 1013.77 -1.42307
53.0658 1036.12 -1.40606
36.5209 1020.76 -55.746
58.5514 997.903 -56.9208
70.2294 1009.01 -32.8004
48.1356 1031.5 -32.163
17.3614 1003.44 -73.6853
39.0667 980.221 -75.2056
56.922 996.408 -59.1275
34.8915 1019.26 -57.9527
-5.52425 982.989 -80.4228
15.7013 959.426 -82.051
36.9193 978.294 -76.3997
15.214 1001.51 -74.8794
-28.6005 962.387 -74.9187
-7.85626 938.484 -76.4066
13.37 957.349 -82.0525
-7.85559 980.911 -80.4243
-48.2885 944.683 -57.9848
-27.9506 920.483 -59.1275
-10.008 936.56 -75.2129
-30.7522 960.463 -73.725
-61.6339 932.582 -32.1521
-41.5671 908.166 -32.7734
-29.594 919.001 -56.9164
-49.9319 943.201 -55.7737
-62.5224 931.776 -29.2592
-66.6334 928.035 -1.38385
-46.6498 903.54 -1.3907
-42.4556 907.36 -29.8805
-44.3696 900.862 1.75904
-40.1754 904.675 30.2335
-19.0627 880.835 30.3353
-23.2747 876.997 1.74805
-39.2761 905.49 33.1602
-27.3208 916.296 57.2639
-6.15123 892.507 57.4558
-18.1634 881.65 33.2621
-25.6543 917.792 59.5012
-7.70489 933.853 75.5938
13.5786 910.103 75.8327
-4.48472 894.003 59.6931
-5.51964 935.795 76.8031
15.7159 954.646 82.4582
37.1608 930.893 82.6929
15.7639 912.044 77.042
18.0843 956.74 82.4571
39.3092 975.603 76.8165
60.9252 951.817 77.0112
39.5292 932.988 82.6919
41.4837 977.551 75.6084
59.3415 993.745 59.5409
80.9752 970.057 59.6717
63.0998 953.765 75.8032
60.9763 995.275 57.3078
72.6631 1006.41 33.1585
94.1042 983.1 33.2497
82.6101 971.587 57.4386
73.5318 1007.27 30.2276
77.5783 1011.24 1.7304
98.9518 988.073 1.72673
94.9729 983.955 30.3188
77.5775 1011.24 -1.4449
73.5147 1007.3 -29.9305
94.9571 983.983 -30.0359
98.951 988.075 -1.44857
72.6456 1006.45 -32.8596
60.9675 995.342 -56.98
82.5996 971.649 -57.1339
94.0879 983.131 -32.965
59.3331 993.814 -59.2124
41.4778 977.627 -75.2905
63.0911 953.838 -75.5082
80.9652 970.121 -59.3662
39.3037 975.68 -76.4997
18.0857 956.812 -82.151
39.5268 933.058 -82.4081
60.917 951.89 -76.7174
15.7182 954.716 -82.1532
-5.50807 935.852 -76.5072
15.77 912.101 -76.769
37.1592 930.962 -82.4103
-7.69253 933.909 -75.2989
-25.6352 917.831 -59.2135
-4.47228 894.041 -59.4311
13.5856 910.158 -75.5607
-27.3023 916.333 -56.9744
-39.2754 905.498 -32.8315
-18.1699 881.655 -32.9575
-6.13945 892.543 -57.192
-40.1755 904.682 -29.9016
-44.3698 900.862 -1.41177
-23.2749 876.997 -1.42275
-19.07 880.839 -30.0276
-20.9493 874.359 1.75231
-16.7373 878.198 30.3396
4.07494 854.515 30.3522
-0.23379 850.759 1.73952
-15.8245 879.007 33.2749
-3.81232 889.865 57.4686
17.2569 865.955 57.4885
4.98776 855.324 33.2875
-2.12285 891.349 59.7086
15.9405 907.449 75.8482
37.3523 883.229 75.8466
18.9464 867.439 59.7285
18.1533 909.374 77.055
39.5502 928.223 82.7059
61.3223 903.658 82.6647
39.5652 885.154 77.0534
41.9472 930.297 82.7
63.3433 949.126 77.0194
85.464 924.219 76.9572
63.7193 905.732 82.6589
65.5471 951.056 75.8036
83.4225 967.348 59.6722
105.981 942.002 59.6011
87.6677 926.149 75.7414
85.0787 968.867 57.4298
96.5728 980.379 33.241
119.64 954.57 33.1974
107.638 943.521 57.3588
97.4486 981.228 30.3148
101.427 985.347 1.72273
124.691 959.387 1.71703
120.516 955.419 30.2712
101.427 985.348 -1.44605
97.4328 981.257 -30.0334
120.498 955.451 -30.0127
124.69 959.389 -1.45174
96.5563 980.411 -32.9587
85.068 968.929 -57.1276
107.622 943.585 -57.0844
119.622 954.605 -32.9381
83.4121 967.412 -59.3695
65.5381 951.128 -75.5114
87.6569 926.22 -75.4753
105.966 942.068 -59.3263
63.3348 949.199 -76.7283
41.9446 930.366 -82.419
63.7145 905.8 -82.4035
85.4536 924.29 -76.6921
39.5483 928.292 -82.4259
18.1591 909.431 -76.7847
39.5677 885.21 -76.8093
61.3182 903.725 -82.4104
15.9469 907.505 -75.579
-2.11094 891.387 -59.4494
18.955 867.476 -59.4965
37.3556 883.285 -75.6036
-3.80108 889.9 -57.2077
-15.8315 879.012 -32.9732
4.9788 855.326 -33.0123
17.2648 865.989 -57.2548
-16.7449 878.201 -30.0347
-20.9498 874.359 -1.42978
-0.234234 850.759 -1.44257
4.06546 854.515 -30.0738
2.04449 848.115 1.73903
6.35322 851.871 30.3517
26.6465 827.862 30.3435
22.2489 824.202 1.72709
7.28506 852.661 33.2881
19.5542 863.292 57.4891
40.0859 839.017 57.4799
27.5783 828.652 33.2799
21.2762 864.744 59.7286
39.6822 880.534 75.8467
60.5394 855.884 75.833
41.8079 840.469 59.7194
41.9337 882.418 77.0514
63.6909 900.922 82.6628
84.9058 875.851 82.6437
62.791 857.768 77.0377
66.1276 902.953 82.6546
87.8722 921.441 76.9529
109.448 895.937 76.9274
87.3426 877.882 82.6356
90.1176 923.324 75.7369
108.431 939.177 59.5966
130.391 913.234 59.5851
111.694 897.82 75.7114
110.136 940.646 57.3559
122.138 951.695 33.1946
144.493 925.315 33.1814
132.096 914.703 57.3444
123.049 952.51 30.2694
127.224 956.479 1.71518
149.73 929.936 1.70171
145.404 926.131 30.2562
127.223 956.48 -1.45235
123.031 952.543 -30.0133
145.381 926.165 -30.0282
149.729 929.937 -1.46582
122.119 951.731 -32.938
110.12 940.71 -57.0843
132.078 914.769 -57.0937
144.469 925.354 -32.9529
108.416 939.243 -59.3245
90.1066 923.395 -75.4734
111.682 897.891 -75.4694
130.375 913.302 -59.3339
87.8618 921.512 -76.6905
66.1227 903.022 -82.4019
87.3373 877.95 -82.4055
109.438 896.008 -76.6864
63.6866 900.99 -82.4112
41.936 882.475 -76.8101
62.7922 857.825 -76.8205
84.9012 875.918 -82.4148
39.6851 880.589 -75.6066
21.2846 864.781 -59.4995
41.8149 840.504 -59.5152
60.5413 855.939 -75.617
19.5619 863.326 -57.2583
7.2759 852.663 -33.0158
27.5683 828.652 -33.0319
40.0923 839.05 -57.2741
6.34365 851.87 -30.0761
2.04396 848.114 -1.44486
22.2484 824.202 -1.4568
26.6361 827.86 -30.0922
24.4669 821.519 1.72599
28.8645 825.178 30.3424
48.5823 800.782 30.3336
44.102 797.225 1.71481
29.8142 825.948 33.2791
42.3218 836.312 57.4792
62.2674 811.63 57.4735
49.5319 801.552 33.2704
44.075 837.727 59.7188
62.8065 853.142 75.8324
83.0771 828.05 75.8315
64.0206 813.045 59.7131
65.0965 854.98 77.0369
87.2114 873.063 82.643
107.852 847.503 82.6448
85.3671 829.888 77.036
89.6888 875.044 82.6342
111.794 893.099 76.926
132.81 867.063 76.9232
110.33 849.484 82.636
114.08 894.932 75.7103
132.778 910.346 59.584
154.15 883.862 59.5811
135.096 868.896 75.7075
134.523 911.767 57.3442
146.92 922.379 33.1812
168.615 895.496 33.1723
155.894 885.283 57.3413
147.859 923.163 30.255
152.185 926.968 1.70051
174.005 899.93 1.68282
169.554 896.28 30.2461
152.183 926.97 -1.46794
147.835 923.198 -30.0303
169.528 896.315 -30.0489
174.003 899.932 -1.48563
146.895 922.418 -32.9554
134.505 911.833 -57.0962
155.877 885.35 -57.1138
168.588 895.535 -32.9739
132.761 910.414 -59.3351
114.069 895.003 -75.4706
135.085 868.967 -75.4885
154.134 883.931 -59.3527
111.784 893.17 -76.6874
89.6836 875.113 -82.4065
110.325 849.552 -82.4299
132.8 867.135 -76.7054
87.2068 873.13 -82.4166
65.0978 855.037 -76.8222
85.3686 829.944 -76.844
107.848 847.57 -82.44
62.8083 853.197 -75.6191
44.0819 837.763 -59.5173
64.0275 813.079 -59.5348
83.0791 828.104 -75.6408
42.3281 836.345 -57.276
29.8041 825.948 -33.0338
49.5214 801.551 -33.0477
62.2736 811.662 -57.2935
28.8541 825.176 -30.0937
24.4664 821.518 -1.45828
44.1014 797.225 -1.46945
48.5714 800.779 -30.1076
46.255 794.498 1.71375
50.7353 798.055 30.3326
69.8539 773.253 30.3241
65.2941 769.803 1.70328
51.7021 798.803 33.2697
64.4375 808.881 57.4728
83.779 783.78 57.4689
70.8207 774.001 33.2612
66.2215 810.256 59.7131
85.278 825.261 75.8314
104.946 799.725 75.8347
85.5631 785.155 59.7092
87.6071 827.048 77.0364
110.092 844.663 82.6452
130.138 818.628 82.6523
107.275 801.513 77.0397
112.611 846.591 82.6362
135.092 864.169 76.9234
155.518 837.629 76.9256
132.657 820.555 82.6433
137.418 865.95 75.7073
156.472 880.916 59.5809
177.238 853.917 59.5757
157.844 839.409 75.7095
158.252 882.29 57.341
170.973 892.503 33.172
192.019 865.135 33.1605
179.019 855.291 57.3358
171.935 893.257 30.2448
176.386 896.908 1.68152
197.539 869.395 1.66435
192.981 865.89 30.2333
176.384 896.91 -1.48782
171.909 893.293 -30.0511
192.954 865.924 -30.0669
197.537 869.397 -1.50499
170.945 892.542 -32.9764
158.235 882.357 -57.1162
179.003 855.359 -57.1325
191.991 865.173 -32.9921
156.456 880.985 -59.3548
137.407 866.021 -75.4906
157.835 839.48 -75.5141
177.224 853.986 -59.3711
135.082 864.241 -76.7079
112.607 846.659 -82.4324
132.654 820.623 -82.4609
155.509 837.7 -76.7313
110.088 844.731 -82.4428
87.6086 827.104 -76.8468
107.277 801.568 -76.8718
130.135 818.694 -82.4713
85.2801 825.315 -75.6433
66.2285 810.29 -59.5372
85.5705 785.188 -59.5553
104.949 799.778 -75.6683
64.4438 808.912 -57.2953
51.6916 798.801 -33.0496
70.81 773.999 -33.0624
83.7858 783.81 -57.3133
50.7245 798.052 -30.109
46.2545 794.498 -1.47082
65.2935 769.802 -1.48128
69.8429 773.249 -30.1218
67.38 767.03 1.70227
71.9399 770.481 30.3231
90.4466 745.27 30.3147
85.809 741.929 1.69241
72.9233 771.206 33.2606
85.8817 780.985 57.4683
104.608 755.465 57.4641
91.43 745.995 33.2522
87.6962 782.318 59.7092
107.079 796.888 75.8347
126.131 770.915 75.8369
106.423 756.798 59.705
109.447 798.623 77.0402
132.311 815.738 82.6529
151.742 789.239 82.6582
128.499 772.649 77.0424
134.872 817.608 82.6437
157.733 834.682 76.926
177.544 807.656 76.9269
154.303 791.109 82.6491
160.098 836.407 75.7093
179.492 850.915 59.5754
199.634 823.423 59.568
179.909 809.382 75.7101
181.306 852.244 57.3351
194.306 862.088 33.1598
214.698 834.245 33.1473
201.447 824.751 57.3277
195.289 862.814 30.2319
199.846 866.32 1.66295
220.334 838.342 1.64724
215.681 834.971 30.2193
199.845 866.322 -1.50693
195.262 862.849 -30.0688
215.654 835.004 -30.0827
220.332 838.344 -1.52264
194.278 862.126 -32.9941
181.29 852.311 -57.1345
201.434 824.817 -57.1491
214.671 834.28 -33.0081
179.478 850.984 -59.3732
160.089 836.479 -75.5162
179.902 809.452 -75.5386
199.622 823.491 -59.3878
157.724 834.753 -76.7341
134.869 817.675 -82.4636
154.301 791.175 -82.4902
177.537 807.726 -76.7565
132.308 815.804 -82.4742
109.45 798.677 -76.8747
128.502 772.702 -76.8979
151.741 789.304 -82.5007
107.082 796.941 -75.6707
87.7037 782.351 -59.5577
106.431 756.829 -59.5743
126.135 770.966 -75.6938
85.8885 781.015 -57.3151
72.9127 771.203 -33.0641
91.4192 745.992 -33.0758
104.615 755.493 -57.3317
71.9288 770.477 -30.123
67.3794 767.03 -1.48255
85.8084 741.929 -1.49241
90.4353 745.265 -30.1348
87.8265 739.111 1.69144
92.4641 742.453 30.3138
110.35 716.836 30.3056
105.636 713.607 1.68214
93.464 743.154 33.2516
106.642 752.624 57.4634
124.744 726.69 57.4584
111.35 717.537 33.2434
108.487 753.914 59.7049
128.195 768.03 75.8368
146.618 741.628 75.8364
126.588 727.98 59.6999
130.602 769.709 77.0427
153.845 786.299 82.6585
172.645 759.351 82.6604
149.025 743.307 77.0423
156.449 788.11 82.6492
179.689 804.657 76.927
198.864 777.163 76.9251
175.248 761.162 82.6511
182.093 806.326 75.7096
201.818 820.368 59.5675
221.314 792.399 59.5589
201.269 778.833 75.7077
203.663 821.651 57.3268
216.913 831.144 33.1463
236.641 802.835 33.1341
223.159 793.682 57.3182
217.915 831.844 30.2179
222.568 835.215 1.64585
242.382 806.778 1.63159
237.643 803.535 30.2056
222.566 835.217 -1.52436
217.888 831.877 -30.0844
237.617 803.566 -30.0974
242.381 806.78 -1.53861
216.886 831.18 -33.0098
203.65 821.717 -57.1509
223.148 793.746 -57.1642
236.615 802.869 -33.0227
201.806 820.435 -59.3897
182.086 806.397 -75.5405
201.263 778.901 -75.5598
221.305 792.465 -59.403
179.682 804.727 -76.759
156.447 788.176 -82.4926
175.248 761.226 -82.5152
198.859 777.231 -76.7783
153.844 786.365 -82.5033
130.606 769.763 -76.9005
149.03 743.358 -76.9203
172.645 759.415 -82.5258
128.199 768.082 -75.696
108.495 753.945 -59.5765
126.597 728.009 -59.5914
146.623 741.677 -75.7158
106.649 752.652 -57.3333
93.4532 743.15 -33.0774
111.339 717.533 -33.0883
124.752 726.716 -57.3481
92.4528 742.448 -30.136
87.8259 739.111 -1.49359
105.635 713.606 -1.50289
110.338 716.83 -30.1468
107.584 710.744 1.68121
112.298 713.974 30.3047
129.554 687.957 30.2967
124.765 684.843 1.67251
113.314 714.651 33.2427
126.708 723.804 57.4577
144.175 697.463 57.4519
130.57 688.634 33.2347
128.582 725.05 59.6995
148.612 738.697 75.8361
166.394 711.876 75.8335
146.049 698.709 59.6937
151.058 740.319 77.0423
174.678 756.364 82.6604
192.83 728.979 82.6592
168.84 713.498 77.0397
177.322 758.113 82.6509
200.938 774.114 76.9249
219.458 746.169 76.9209
195.475 730.728 82.6498
203.38 775.726 75.7071
223.426 789.293 59.5583
242.258 760.866 59.5493
221.901 747.781 75.703
225.301 790.53 57.3172
238.783 799.683 33.133
257.833 770.919 33.1214
244.132 762.103 57.3082
239.802 800.358 30.2043
244.541 803.6 1.63027
263.671 774.713 1.61737
258.852 771.593 30.1927
244.54 803.602 -1.54016
239.776 800.388 -30.0989
258.827 771.621 -30.1109
263.67 774.714 -1.55306
238.757 799.716 -33.0242
225.29 790.594 -57.1657
244.124 762.164 -57.1778
257.808 770.95 -33.0362
223.417 789.358 -59.4047
203.375 775.794 -75.5615
221.897 747.846 -75.5779
242.25 760.928 -59.4168
200.933 774.182 -76.7804
177.322 758.177 -82.5173
195.476 730.79 -82.5359
219.455 746.234 -76.7967
174.678 756.427 -82.528
151.063 740.37 -76.9225
168.846 713.546 -76.9392
192.832 729.04 -82.5467
148.617 738.747 -75.7177
128.591 725.079 -59.5932
146.059 698.736 -59.6062
166.4 711.923 -75.7344
126.716 723.83 -57.3495
113.303 714.646 -33.0897
130.558 688.629 -33.0995
144.183 697.487 -57.3625
112.286 713.968 -30.1479
107.583 710.744 -1.50398
124.764 684.842 -1.51269
129.542 687.95 -30.1578
126.643 681.937 1.67162
131.431 685.051 30.2958
148.049 658.643 30.288
143.187 655.646 1.66353
132.463 685.704 33.234
146.068 694.532 57.4511
162.893 667.792 57.4447
149.081 659.296 33.2262
147.972 695.733 59.6932
168.317 708.9 75.833
185.449 681.667 75.8288
164.796 668.993 59.6867
170.8 710.463 77.0394
194.79 725.945 82.6589
212.283 698.135 82.6556
187.932 683.23 77.0352
197.475 727.63 82.6494
221.459 743.071 76.9205
239.309 714.687 76.9151
214.968 699.821 82.646
223.938 744.624 75.7022
244.295 757.709 59.5486
262.447 728.837 59.5397
241.789 716.241 75.6969
246.199 758.901 57.3072
259.9 767.717 33.1204
278.259 738.509 33.1096
264.35 730.029 57.2983
260.935 768.366 30.1915
265.754 771.485 1.61612
284.188 742.156 1.60442
279.293 739.158 30.1807
265.753 771.486 -1.55444
260.91 768.393 -30.1123
279.27 739.184 -30.1235
284.186 742.158 -1.56614
259.875 767.747 -33.0376
246.191 758.962 -57.1791
264.344 730.087 -57.1901
278.235 738.538 -33.0488
244.288 757.771 -59.4183
223.935 744.689 -75.5793
241.787 716.303 -75.5932
262.442 728.896 -59.4293
221.455 743.136 -76.7985
197.477 727.691 -82.5377
214.971 699.879 -82.5531
239.307 714.749 -76.8124
194.792 726.005 -82.5485
170.806 710.511 -76.941
187.939 683.275 -76.955
212.286 698.192 -82.5638
168.323 708.946 -75.7359
147.981 695.76 -59.6077
164.806 669.017 -59.6189
185.456 681.71 -75.7499
146.077 694.556 -57.3637
132.452 685.698 -33.1008
149.069 659.289 -33.1096
162.902 667.814 -57.3749
131.42 685.044 -30.1588
126.642 681.936 -1.51369
143.187 655.645 -1.52178
148.037 658.635 -30.1677
144.994 652.697 1.66269
149.856 655.694 30.2872
165.829 628.905 30.2799
160.895 626.027 1.65526
150.903 656.321 33.2255
164.715 664.818 57.4439
180.888 637.69 57.4373
166.876 629.532 33.2182
166.646 665.973 59.6861
187.299 678.646 75.8283
203.77 651.015 75.823
182.819 638.845 59.6796
189.819 680.149 77.0348
214.17 695.055 82.6551
230.991 666.835 82.6503
206.29 652.518 77.0295
216.894 696.676 82.6455
241.235 711.542 76.9145
258.402 682.738 76.9082
233.715 668.456 82.6407
243.751 713.037 75.696
264.409 725.633 59.5388
281.867 696.332 59.5302
260.917 684.232 75.6897
266.34 726.779 57.2973
280.248 735.258 33.1086
297.904 705.621 33.0986
283.798 697.478 57.2886
281.298 735.882 30.1795
286.192 738.88 1.60326
303.918 709.123 1.59267
298.954 706.245 30.1696
286.191 738.882 -1.56739
281.275 735.908 -30.1247
298.931 706.269 -30.1349
303.917 709.124 -1.57798
280.225 735.287 -33.05
266.334 726.836 -57.1914
283.794 697.532 -57.2013
297.881 705.648 -33.0602
264.404 725.691 -59.4306
243.749 713.098 -75.5945
260.917 684.291 -75.6062
281.864 696.388 -59.4405
241.234 711.604 -76.8139
216.897 696.733 -82.5546
233.719 668.51 -82.5671
258.402 682.796 -76.8255
214.173 695.111 -82.5653
189.826 680.194 -76.9565
206.298 652.56 -76.968
230.995 666.888 -82.5779
187.306 678.69 -75.7512
166.656 665.997 -59.6202
182.83 638.866 -59.6299
203.779 651.055 -75.7627
164.724 664.839 -57.376
150.891 656.315 -33.1107
166.863 629.525 -33.1187
180.897 637.709 -57.3857
149.844 655.686 -30.1686
144.993 652.696 -1.52269
160.895 626.027 -1.53012
165.816 628.896 -30.1766
162.63 623.037 1.65449
167.563 625.915 30.2791
182.883 598.757 30.2725
177.881 596 1.64776
168.625 626.516 33.2175
182.637 634.674 57.4366
198.151 607.171 57.4301
183.945 599.358 33.2108
184.596 635.782 59.6789
205.547 647.952 75.8223
221.348 619.936 75.8165
200.109 608.278 59.6725
208.103 649.394 77.0289
232.803 663.71 82.6497
248.941 635.096 82.6441
223.904 621.378 77.0231
235.565 665.266 82.64
260.252 679.548 76.9075
276.723 650.338 76.9008
251.703 636.651 82.6344
262.802 680.982 75.6889
283.751 693.081 59.5293
300.503 663.368 59.5211
279.273 651.772 75.6821
285.709 694.181 57.2876
299.815 702.324 33.0976
316.755 672.273 33.0885
302.46 664.468 57.2794
300.879 702.922 30.1685
305.844 705.8 1.5916
322.851 675.629 1.58203
317.819 672.871 30.1593
305.843 705.802 -1.5791
300.857 702.946 -30.136
317.797 672.893 -30.1452
322.849 675.63 -1.58867
299.792 702.35 -33.0612
285.705 694.234 -57.2023
302.458 664.519 -57.2112
316.733 672.297 -33.0704
283.749 693.137 -59.4416
262.802 681.039 -75.6073
279.275 651.826 -75.617
300.502 663.421 -59.4504
260.252 679.605 -76.8268
235.569 665.32 -82.5683
251.708 636.701 -82.5786
276.725 650.392 -76.8365
232.807 663.763 -82.5791
208.111 649.435 -76.9692
223.913 621.416 -76.9788
248.946 635.145 -82.5894
205.555 647.992 -75.7638
184.607 635.803 -59.631
200.12 608.297 -59.6394
221.357 619.973 -75.7734
182.647 634.693 -57.3866
168.613 626.508 -33.1197
183.932 599.349 -33.1269
198.16 607.187 -57.395
167.55 625.906 -30.1774
162.629 623.036 -1.53094
177.88 595.999 -1.53767
182.869 598.747 -30.1847
179.543 592.969 1.64706
184.544 595.726 30.2718
199.203 568.211 30.2657
194.135 565.577 1.64106
185.621 596.301 33.2101
199.827 604.114 57.4294
214.671 576.249 57.4233
200.28 568.786 33.204
201.812 605.174 59.6718
223.05 616.832 75.8159
238.172 588.446 75.8099
216.657 577.308 59.6656
225.64 618.211 77.0225
250.677 631.929 82.6434
266.121 602.934 82.6374
240.761 589.825 77.0165
253.476 633.417 82.6336
278.496 647.104 76.9001
294.26 617.506 76.8933
268.92 604.423 82.6276
281.08 648.477 75.6813
302.309 660.073 59.5202
318.342 629.965 59.5125
296.844 618.878 75.6745
304.292 661.126 57.2784
318.586 668.93 33.0875
334.799 638.481 33.0792
320.325 631.018 57.2707
319.664 669.503 30.1583
324.696 672.261 1.58105
340.973 641.691 1.57246
335.878 639.053 30.15
324.695 672.262 -1.58967
319.643 669.525 -30.1462
335.857 639.073 -30.1545
340.972 641.692 -1.59826
318.565 668.954 -33.0714
304.29 661.176 -57.2121
320.325 631.065 -57.2199
334.779 638.503 -33.0797
302.308 660.125 -59.4514
281.081 648.53 -75.618
296.847 618.928 -75.6261
318.343 630.013 -59.4592
278.498 647.158 -76.8375
253.481 633.467 -82.5796
268.927 604.468 -82.5879
294.264 617.555 -76.8456
250.683 631.977 -82.5904
225.649 618.249 -76.9798
240.771 589.86 -76.9876
266.129 602.979 -82.5987
223.06 616.868 -75.7743
201.823 605.192 -59.6403
216.668 577.324 -59.6475
238.182 588.478 -75.7821
199.836 604.13 -57.3958
185.608 596.292 -33.1277
200.266 568.776 -33.1341
214.681 576.262 -57.403
184.531 595.716 -30.1854
179.542 592.968 -1.53841
194.134 565.576 -1.5444
199.189 568.2 -30.1918
195.723 562.508 1.64044
200.791 565.141 30.2651
214.782 537.282 30.2597
209.65 534.773 1.63521
201.881 565.69 33.2034
216.273 573.153 57.4226
230.442 544.939 57.4169
215.872 537.831 33.198
218.284 574.163 59.665
239.799 585.301 75.8092
254.231 556.56 75.8033
232.452 545.95 59.6592
242.421 586.617 77.0158
267.781 599.726 82.6367
282.523 570.367 82.6306
256.854 557.876 77.0099
270.615 601.147 82.6269
295.955 614.23 76.8926
311.003 584.259 76.8859
285.356 571.788 82.6208
298.57 615.54 75.6737
320.068 626.627 59.5118
335.373 596.141 59.5047
313.618 585.57 75.6671
322.076 627.632 57.2699
336.55 635.095 33.0784
352.027 604.264 33.0709
337.38 597.146 57.2628
337.642 635.642 30.1491
342.737 638.28 1.57158
358.274 607.327 1.56394
353.118 604.811 30.1416
342.736 638.281 -1.59915
337.621 635.662 -30.1553
353.098 604.829 -30.1626
358.273 607.328 -1.60679
336.529 635.117 -33.0805
322.075 627.679 -57.2207
337.382 597.189 -57.2275
352.007 604.284 -33.0878
320.069 626.675 -59.46
298.574 615.59 -75.6269
313.623 585.615 -75.6335
335.376 596.185 -59.4667
295.959 614.279 -76.8464
270.622 601.192 -82.5887
285.365 571.829 -82.5953
311.008 584.304 -76.8531
267.788 599.77 -82.5995
242.431 586.651 -76.9884
256.865 557.906 -76.9947
282.531 570.408 -82.6061
239.809 585.333 -75.7829
218.295 574.179 -59.6483
232.464 545.962 -59.6543
254.243 556.588 -75.7892
216.283 573.166 -57.4037
201.868 565.68 -33.1348
215.857 537.82 -33.1403
230.452 544.95 -57.4097
200.777 565.13 -30.1924
195.722 562.507 -1.54505
209.65 534.773 -1.55027
214.767 537.27 -30.1979
211.164 531.667 1.63466
216.295 534.175 30.2591
229.61 505.986 30.2544
224.419 503.604 1.63022
217.398 534.697 33.1974
231.969 541.805 57.4163
245.453 513.257 57.411
230.714 506.508 33.1927
234.003 542.766 59.6586
255.782 553.376 75.8027
269.519 524.294 75.797
247.488 514.218 59.6533
258.436 554.629 77.0092
284.105 567.12 82.6299
298.135 537.413 82.6239
272.172 525.546 77.0035
286.972 568.473 82.6201
312.618 580.943 76.8852
326.94 550.618 76.8789
301.002 538.766 82.614
315.264 582.191 75.6663
337.019 592.762 59.504
351.586 561.915 59.4976
329.586 551.865 75.66
339.049 593.719 57.2621
353.696 600.837 33.0701
368.426 569.642 33.0635
353.616 562.872 57.2557
354.8 601.358 30.1408
359.955 603.874 1.56315
374.744 572.556 1.55647
369.53 570.163 30.1342
359.954 603.875 -1.60757
354.78 601.376 -30.1634
369.511 570.179 -30.1697
374.743 572.557 -1.61425
353.676 600.857 -33.0885
339.051 593.762 -57.2282
353.619 562.912 -57.2338
368.407 569.66 -33.0948
337.021 592.806 -59.4674
315.269 582.236 -75.6342
329.592 551.906 -75.6394
351.59 561.956 -59.473
312.623 580.988 -76.8537
286.98 568.513 -82.596
301.012 538.802 -82.6009
326.947 550.658 -76.8589
284.113 567.16 -82.6067
258.447 554.658 -76.9953
272.184 525.572 -77.0001
298.145 537.449 -82.6117
255.793 553.405 -75.7898
234.014 542.779 -59.6549
247.5 514.228 -59.6597
269.531 524.319 -75.7946
231.979 541.816 -57.4103
217.384 534.686 -33.1409
230.699 506.496 -33.1455
245.464 513.265 -57.4151
216.28 534.163 -30.1985
211.163 531.666 -1.55082
224.418 503.603 -1.55527
229.595 505.973 -30.203
225.857 500.461 1.62975
231.049 502.843 30.254
243.682 474.337 30.2499
238.434 472.083 1.62607
232.164 503.338 33.1922
246.904 510.087 57.4105
259.699 481.218 57.4057
244.798 474.832 33.1882
248.961 510.998 59.6527
270.993 521.074 75.7964
284.026 491.666 75.7909
261.756 482.129 59.6479
273.675 522.262 77.0029
299.639 534.129 82.6232
312.951 504.09 82.6173
286.709 492.853 76.9973
302.537 535.412 82.6133
328.475 547.264 76.8782
342.063 516.6 76.8722
315.85 505.373 82.6074
331.15 548.447 75.6593
353.149 558.497 59.4969
366.97 527.308 59.4912
344.738 517.783 75.6533
355.202 559.406 57.255
370.012 566.176 33.0628
383.989 534.634 33.0571
369.023 528.216 57.2493
371.128 566.671 30.1335
376.342 569.064 1.55578
390.373 537.398 1.55004
385.105 535.129 30.1278
376.341 569.065 -1.61492
371.109 566.687 -30.1704
385.086 535.144 -30.1757
390.372 537.399 -1.62067
369.993 566.194 -33.0955
355.205 559.445 -57.2344
369.027 528.252 -57.239
383.97 534.651 -33.1008
353.154 558.538 -59.4735
331.156 548.488 -75.6399
344.746 517.82 -75.6437
366.976 527.345 -59.4781
328.482 547.304 -76.8594
302.547 535.448 -82.6014
315.861 505.405 -82.6048
342.072 516.636 -76.8632
299.649 534.164 -82.6121
273.687 522.287 -77.0006
286.722 492.875 -77.0039
312.962 504.121 -82.6155
271.005 521.099 -75.7951
248.973 511.008 -59.6602
261.768 482.136 -59.6639
284.039 491.687 -75.7984
246.915 510.095 -57.4156
232.15 503.325 -33.1459
244.783 474.819 -33.1496
259.71 481.223 -57.4193
231.033 502.83 -30.2035
225.856 500.46 -1.55572
238.433 472.083 -1.55941
243.666 474.324 -30.2072
239.796 468.906 1.62568
245.045 471.161 30.2495
256.991 442.353 30.2462
251.688 440.228 1.62274
246.173 471.628 33.1877
261.073 478.014 57.4052
273.172 448.84 57.4008
258.119 442.82 33.1843
263.152 478.874 59.6473
285.422 488.411 75.7903
297.746 458.693 75.7849
275.251 449.7 59.643
288.133 489.533 76.9967
314.375 500.77 82.6166
326.962 470.415 82.6107
300.457 459.815 76.9913
317.304 501.982 82.6067
343.517 513.209 76.8715
356.365 482.225 76.8657
329.891 471.628 82.6008
346.22 514.329 75.6527
368.452 523.853 59.4906
381.519 492.338 59.4855
359.068 483.345 75.6469
370.525 524.713 57.2487
385.491 531.131 33.0565
398.706 499.261 33.0516
383.593 493.198 57.2436
386.618 531.599 30.1272
391.886 533.869 1.54945
405.154 501.874 1.54461
399.834 499.73 30.1223
391.886 533.869 -1.62123
386.6 531.614 -30.1763
399.816 499.742 -30.1806
405.153 501.875 -1.62606
385.473 531.147 -33.1013
370.53 524.749 -57.2395
383.599 493.23 -57.2429
398.688 499.276 -33.1056
368.458 523.89 -59.4785
346.228 514.365 -75.6441
359.077 483.376 -75.6465
381.527 492.372 -59.4819
343.526 513.245 -76.8635
317.315 502.014 -82.6051
329.903 471.655 -82.6068
356.375 482.257 -76.8658
314.386 500.8 -82.6158
288.146 489.555 -77.0042
300.471 459.833 -77.0061
326.975 470.442 -82.6175
285.435 488.431 -75.7987
263.164 478.881 -59.6642
275.263 449.704 -59.6667
297.76 458.71 -75.8006
261.084 478.019 -57.4196
246.157 471.614 -33.15
258.103 442.806 -33.1528
273.183 448.842 -57.4221
245.029 471.147 -30.2076
239.795 468.906 -1.55977
251.687 440.227 -1.56271
256.975 442.339 -30.2104
252.974 437.019 1.62242
258.277 439.143 30.2458
269.531 410.049 30.2431
264.176 408.055 1.62023
259.416 439.583 33.1839
274.469 445.602 57.4004
285.866 416.138 57.3964
270.669 410.488 33.1812
276.568 446.412 59.6424
299.064 455.404 75.7844
310.672 425.392 75.779
287.965 416.948 59.6384
301.801 456.461 76.9907
328.306 467.061 82.61
340.162 436.409 82.6039
313.41 426.449 76.9853
331.263 468.204 82.6001
357.737 478.8 76.8651
369.838 447.514 76.8593
343.119 437.551 82.594
360.466 479.855 75.6463
382.917 488.849 59.4849
395.226 457.029 59.4804
372.567 448.569 75.6406
385.011 489.66 57.2431
400.124 495.723 33.051
412.572 463.544 33.0469
397.319 457.839 57.2386
401.262 496.164 30.1218
406.582 498.309 1.54411
419.079 466.003 1.54017
413.71 463.986 30.1176
406.581 498.309 -1.62652
401.244 496.177 -30.1811
413.692 463.996 -30.1844
419.078 466.004 -1.63046
400.106 495.737 -33.106
385.017 489.692 -57.2433
397.327 457.867 -57.2455
412.555 463.556 -33.1093
382.925 488.882 -59.4821
360.475 479.887 -75.6467
372.578 448.596 -75.6474
395.235 457.058 -59.4843
357.747 478.832 -76.866
331.275 468.23 -82.607
343.132 437.574 -82.6068
369.85 447.541 -76.8666
328.319 467.088 -82.6176
301.815 456.479 -77.0062
313.424 426.463 -77.0063
340.176 436.431 -82.6175
299.077 455.421 -75.8007
276.581 446.416 -59.6668
287.978 416.95 -59.6681
310.687 425.406 -75.8009
274.48 445.605 -57.4224
259.4 439.569 -33.153
270.653 410.474 -33.155
285.877 416.139 -57.4236
258.261 439.129 -30.2106
252.973 437.018 -1.56298
264.175 408.054 -1.56517
269.513 410.034 -30.2126
265.385 404.814 1.61999
270.739 406.808 30.2429
281.295 377.442 30.2408
275.893 375.579 1.61853
271.889 407.22 33.1808
287.085 412.87 57.3961
297.776 383.132 57.3923
282.444 377.853 33.1787
289.204 413.628 59.6379
311.911 422.073 75.7784
322.799 391.784 75.7727
299.894 383.89 59.6341
314.673 423.063 76.9846
341.425 433.023 82.6032
352.545 402.091 82.5965
325.561 392.774 76.9789
344.409 434.094 82.5933
371.128 444.057 76.8587
382.477 412.487 76.8527
355.528 403.162 82.5866
373.881 445.047 75.64
396.54 453.507 59.4798
408.083 421.399 59.4757
385.229 413.477 75.634
398.652 454.267 57.2381
413.904 459.972 33.0464
425.579 427.503 33.043
410.195 422.16 57.234
415.053 460.387 30.1172
420.422 462.404 1.53976
432.143 429.807 1.53668
426.728 427.917 30.1138
420.421 462.405 -1.6308
415.035 460.398 -30.1847
426.711 427.926 -30.187
432.142 429.807 -1.63388
413.887 459.984 -33.1095
398.66 454.295 -57.2457
410.204 422.184 -57.2465
425.563 427.513 -33.1118
396.549 453.535 -59.4844
373.892 445.074 -75.6474
385.242 413.5 -75.6461
408.094 421.424 -59.4852
371.14 444.083 -76.8665
344.422 434.117 -82.6067
355.543 403.181 -82.6043
382.49 412.509 -76.8652
341.439 433.045 -82.6173
314.687 423.077 -77.0062
325.577 392.785 -77.0045
352.56 402.109 -82.6149
311.925 422.086 -75.8009
289.216 413.63 -59.6681
299.907 383.89 -59.668
322.815 391.794 -75.7991
287.096 412.87 -57.4237
271.872 407.205 -33.1551
282.427 377.839 -33.1561
297.787 383.13 -57.4237
270.722 406.794 -30.2128
265.384 404.813 -1.56535
275.892 375.578 -1.56681
281.277 377.427 -30.2138
277.024 372.309 1.61836
282.426 374.172 30.2406
292.28 344.548 30.239
286.833 342.817 1.61762
283.585 374.555 33.1784
298.917 379.834 57.392
308.896 349.837 57.3883
293.439 344.931 33.1768
301.053 380.541 59.6336
323.958 388.434 75.7722
334.122 357.885 75.7658
311.032 350.544 59.6299
326.743 389.358 76.9782
353.727 398.675 82.5957
364.105 367.481 82.5879
336.907 358.809 76.9718
356.735 399.675 82.5858
383.683 409 76.8519
394.275 377.167 76.8452
367.113 368.481 82.578
386.459 409.925 75.6334
409.312 417.847 59.4751
420.086 385.473 59.4711
397.05 378.091 75.6267
411.442 418.557 57.2336
426.826 423.9 33.0426
437.724 391.159 33.0398
422.216 386.183 57.2296
427.984 424.287 30.1134
433.4 426.177 1.53633
444.342 393.304 1.53411
438.882 391.547 30.1106
433.399 426.177 -1.6341
427.967 424.296 -30.1872
438.866 391.553 -30.1882
444.341 393.305 -1.63632
426.81 423.91 -33.1118
411.451 418.581 -57.2466
422.227 386.203 -57.2458
437.709 391.167 -33.1129
409.323 417.871 -59.4851
386.472 409.947 -75.646
397.065 378.109 -75.6423
420.099 385.492 -59.4843
383.697 409.022 -76.8649
356.75 399.693 -82.604
367.129 368.495 -82.5988
394.29 377.184 -76.8612
353.742 398.692 -82.6145
326.759 389.368 -77.0041
336.923 358.816 -77
364.121 367.494 -82.6094
323.974 388.444 -75.7989
301.066 380.54 -59.6678
311.045 350.542 -59.6662
334.138 357.892 -75.7948
298.928 379.832 -57.4236
283.568 374.541 -33.1561
293.421 344.917 -33.1562
308.907 349.834 -57.4221
282.409 374.157 -30.2139
277.023 372.308 -1.56689
286.832 342.817 -1.56764
292.262 344.534 -30.214
287.886 339.52 1.61751
293.333 341.25 30.2389
302.481 311.383 30.2378
296.991 309.785 1.61743
294.501 341.606 33.1765
309.958 346.511 57.388
319.222 316.271 57.3841
303.649 311.739 33.1754
312.111 347.167 59.6293
335.201 354.508 75.7652
344.636 323.715 75.7576
321.375 316.926 59.6254
338.007 355.365 76.9709
365.205 364.037 82.587
374.838 332.599 82.5774
347.442 324.572 76.9633
368.236 364.966 82.5771
395.398 373.651 76.8443
405.228 341.574 76.8363
377.869 333.528 82.5675
398.195 374.51 75.6261
421.23 381.892 59.4705
431.23 349.271 59.4665
408.025 342.433 75.6181
423.376 382.552 57.2292
438.885 387.528 33.0394
449.002 354.534 33.037
433.376 349.932 57.2252
440.052 387.887 30.1103
445.512 389.645 1.53383
455.671 356.516 1.53245
450.169 354.894 30.108
445.511 389.645 -1.63641
440.036 387.893 -30.1883
450.154 354.897 -30.188
455.67 356.516 -1.63778
438.87 387.535 -33.1128
423.388 382.571 -57.2457
433.39 349.946 -57.2431
448.988 354.539 -33.1125
421.243 381.911 -59.484
398.209 374.527 -75.6419
408.041 342.446 -75.6352
431.245 349.286 -59.4814
395.413 373.668 -76.8605
368.252 364.979 -82.5981
377.887 333.538 -82.5896
405.245 341.586 -76.8538
365.222 364.05 -82.6087
338.023 355.372 -76.9993
347.459 324.577 -76.9925
374.856 332.609 -82.6001
335.217 354.514 -75.7943
312.124 347.165 -59.6658
321.389 316.923 -59.6625
344.653 323.719 -75.7875
309.969 346.508 -57.4219
294.484 341.591 -33.156
303.631 311.725 -33.1553
319.234 316.267 -57.4187
293.315 341.236 -30.214
287.885 339.519 -1.56763
296.99 309.785 -1.56771
302.462 311.37 -30.2132
297.966 306.461 1.61738
303.455 308.059 30.2378
311.894 277.963 30.237
306.366 276.498 1.6179
304.632 308.387 33.1751
320.206 312.919 57.3838
328.752 282.449 57.3794
313.071 278.29 33.1743
322.374 313.523 59.6246
345.635 320.311 75.7568
354.339 289.291 75.7474
330.921 283.053 59.6202
348.461 321.102 76.9622
375.856 329.129 82.5763
384.742 297.468 82.5641
357.165 290.081 76.9528
378.908 329.987 82.5664
406.267 338.033 76.8353
415.333 305.733 76.8253
387.793 298.325 82.5542
409.084 338.826 75.6174
432.289 345.665 59.4658
441.513 312.82 59.4614
418.15 306.527 75.6074
434.451 346.274 57.2247
450.076 350.876 33.0366
459.411 317.649 33.0347
443.675 313.429 57.2203
451.252 351.207 30.1078
456.754 352.829 1.53221
466.13 319.46 1.53173
460.587 317.979 30.1059
456.753 352.83 -1.63771
451.237 351.21 -30.188
460.573 317.979 -30.1861
466.129 319.46 -1.6382
450.062 350.88 -33.1121
434.464 346.287 -57.2428
443.69 313.437 -57.2381
459.398 317.649 -33.1103
432.304 345.679 -59.4807
409.1 338.838 -75.6346
418.168 306.534 -75.6243
441.53 312.829 -59.476
406.284 338.045 -76.8528
378.926 329.996 -82.5885
387.813 298.331 -82.5758
415.352 305.741 -76.8425
375.874 329.139 -82.599
348.478 321.106 -76.9914
357.183 290.084 -76.9813
384.761 297.473 -82.5863
345.652 320.315 -75.7868
322.387 313.52 -59.6618
330.934 283.05 -59.6567
354.357 289.293 -75.7767
320.217 312.915 -57.4183
304.614 308.373 -33.1549
313.052 278.278 -33.1532
328.764 282.445 -57.4132
303.437 308.046 -30.2131
297.965 306.461 -1.56762
306.365 276.497 -1.5671
311.875 277.951 -30.2114
307.262 273.149 1.61789
312.79 274.614 30.237
320.518 244.301 30.2363
314.954 242.969 1.61889
313.975 274.913 33.1739
329.656 279.072 57.379
337.484 248.388 57.3736
321.703 244.6 33.1733
331.839 279.625 59.6193
355.257 285.863 75.7465
363.228 254.631 75.7344
339.666 248.941 59.6139
358.101 286.587 76.9514
385.678 293.973 82.5627
393.813 262.107 82.5469
366.072 255.356 76.9394
388.749 294.76 82.5528
416.289 302.168 76.8239
424.588 269.669 76.8112
396.884 262.894 82.537
419.123 302.896 75.6065
442.486 309.189 59.4605
450.933 276.143 59.4554
427.423 270.397 75.5938
444.663 309.746 57.2199
460.399 313.966 33.0342
468.951 280.522 33.0327
453.109 276.7 57.2147
461.583 314.267 30.1057
467.126 315.748 1.53153
475.718 282.152 1.5321
470.135 280.823 30.1042
467.125 315.748 -1.63795
461.569 314.266 -30.1859
470.122 280.817 -30.1824
475.717 282.152 -1.63738
460.386 313.966 -33.1097
444.678 309.754 -57.2375
453.126 276.702 -57.2305
468.939 280.517 -33.1062
442.504 309.198 -59.475
419.141 302.903 -75.6233
427.443 270.399 -75.6088
450.952 276.145 -59.468
416.307 302.175 -76.841
388.768 294.766 -82.5743
396.904 262.896 -82.5567
424.609 269.671 -76.8265
385.697 293.979 -82.5848
358.119 286.59 -76.9798
366.091 255.357 -76.966
393.833 262.11 -82.5672
355.275 285.865 -75.7756
331.852 279.622 -59.6556
339.68 248.938 -59.6485
363.247 254.632 -75.7618
329.668 279.068 -57.4127
313.956 274.901 -33.1527
321.684 244.59 -33.1501
337.496 248.384 -57.4056
312.771 274.602 -30.2113
307.261 273.149 -1.56692
314.953 242.968 -1.56592
320.499 244.291 -30.2087
315.771 239.597 1.6189
321.335 240.929 30.2363
328.352 210.411 30.2355
322.755 209.211 1.62024
322.527 241.2 33.1728
338.309 244.988 57.3732
345.417 214.1 57.3665
329.544 210.682 33.172
340.504 245.49 59.6127
364.065 251.18 75.7333
371.304 219.753 75.7181
347.612 214.602 59.606
366.925 251.84 76.9376
394.666 258.591 82.5451
402.052 226.54 82.5251
374.164 220.413 76.9224
397.755 259.308 82.5353
425.459 266.083 76.8094
432.992 233.408 76.7933
405.14 227.257 82.5152
428.31 266.746 75.5927
451.82 272.492 59.4542
459.487 239.268 59.4477
435.843 234.071 75.5766
454.01 272.995 57.2141
469.852 276.817 33.0321
477.621 243.173 33.0311
461.677 239.772 57.2076
471.044 277.087 30.104
476.627 278.416 1.53194
484.437 244.607 1.53409
478.813 243.443 30.103
476.626 278.416 -1.63692
471.031 277.081 -30.1819
478.802 243.431 -30.1769
484.436 244.607 -1.63477
469.841 276.812 -33.1052
454.028 272.997 -57.2295
461.697 239.767 -57.22
477.612 243.162 -33.1003
451.839 272.493 -59.4666
428.33 266.747 -75.6074
435.865 234.068 -75.5886
459.508 239.263 -59.4571
425.48 266.085 -76.8245
397.775 259.31 -82.5547
405.162 227.257 -82.5321
433.014 233.406 -76.8057
394.687 258.593 -82.5652
366.944 251.841 -76.9639
374.183 220.414 -76.9462
402.073 226.54 -82.5426
364.084 251.181 -75.7604
340.518 245.487 -59.647
347.626 214.601 -59.6378
371.323 219.754 -75.7427
338.321 244.984 -57.4049
322.508 241.19 -33.1494
329.525 210.674 -33.1459
345.429 214.098 -57.3956
321.316 240.919 -30.2084
315.77 239.596 -1.56566
322.754 209.211 -1.56432
328.332 210.403 -30.2049
323.493 205.817 1.62025
329.091 207.016 30.2355
335.399 176.302 30.2338
329.772 175.236 1.62179
330.289 207.259 33.1714
346.162 210.678 57.366
352.552 179.598 57.3575
336.597 176.546 33.1698
348.368 211.13 59.6045
372.06 216.281 75.7166
378.566 184.673 75.6981
354.759 180.05 59.5961
374.935 216.877 76.9202
402.823 223.004 82.5228
409.457 190.791 82.4981
381.44 185.269 76.9017
405.926 223.652 82.513
433.778 229.804 76.7911
440.543 196.982 76.771
412.561 191.439 82.4883
436.644 230.402 75.5752
460.289 235.599 59.4463
467.175 202.226 59.4369
443.409 197.58 75.5551
462.491 236.048 57.2067
478.436 239.449 33.0303
485.422 205.619 33.03
469.378 202.675 57.1973
479.635 239.684 30.103
485.259 240.849 1.53404
492.287 206.836 1.53914
486.621 205.854 30.1027
485.258 240.848 -1.63408
479.625 239.672 -30.1763
486.613 205.835 -30.171
492.287 206.835 -1.62898
478.426 239.437 -33.099
462.511 236.042 -57.2188
469.399 202.661 -57.2067
485.415 205.599 -33.0938
460.31 235.593 -59.4554
436.666 230.398 -75.5869
443.432 197.572 -75.5644
467.198 202.213 -59.4433
433.8 229.801 -76.8032
405.948 223.652 -82.5296
412.583 191.437 -82.5024
440.566 196.975 -76.7808
402.844 223.004 -82.54
374.954 216.878 -76.9437
381.46 185.271 -76.9224
409.48 190.789 -82.5128
372.079 216.282 -75.7409
348.383 211.129 -59.636
354.773 180.052 -59.6244
378.586 184.675 -75.7196
346.174 210.676 -57.3947
330.27 207.252 -33.145
336.578 176.543 -33.1402
352.565 179.6 -57.3831
329.071 207.009 -30.2045
323.492 205.816 -1.56398
329.771 175.236 -1.56245
335.379 176.299 -30.1997
330.433 171.821 1.62168
336.06 172.887 30.2337
341.674 141.989 30.228
336.023 141.058 1.62333
337.264 173.102 33.1688
353.219 176.155 57.3566
358.899 144.893 57.3423
342.878 142.204 33.1632
355.435 176.557 59.5941
379.242 181.181 75.6961
385.018 149.408 75.6711
361.115 145.296 59.5798
382.129 181.715 76.8988
410.145 187.237 82.4952
416.027 154.885 82.4626
387.904 149.941 76.8737
413.262 187.819 82.4854
441.244 193.361 76.7682
447.233 160.423 76.7403
419.144 155.468 82.4528
444.124 193.895 75.553
467.889 198.541 59.4348
473.981 165.046 59.4161
450.113 160.957 75.5251
470.104 198.933 57.1959
486.148 201.877 33.0286
492.337 167.868 33.0268
476.196 165.437 57.1772
487.355 202.074 30.1028
493.021 203.057 1.53921
499.251 168.845 1.54798
493.543 168.066 30.101
493.021 203.055 -1.62801
487.347 202.055 -30.17
493.539 168.04 -30.1633
499.251 168.844 -1.61924
486.142 201.856 -33.092
470.126 198.919 -57.2049
476.22 165.417 -57.1859
492.333 167.842 -33.0853
467.913 198.528 -59.441
444.147 193.887 -75.5621
450.138 160.946 -75.5337
474.006 165.026 -59.4219
441.268 193.354 -76.7777
413.285 187.817 -82.4994
419.168 155.464 -82.4653
447.259 160.413 -76.7493
410.168 187.235 -82.5097
382.149 181.717 -76.9192
387.926 149.945 -76.8914
416.051 154.883 -82.4756
379.262 181.183 -75.7173
355.45 176.56 -59.6221
361.132 145.304 -59.604
385.039 149.412 -75.6894
353.231 176.157 -57.3818
337.245 173.1 -33.1389
342.86 142.209 -33.1295
358.913 144.901 -57.3638
336.04 172.884 -30.1992
330.432 171.821 -1.56195
336.022 141.058 -1.5603
341.655 141.993 -30.1898
336.611 137.624 1.6224
342.262 138.555 30.2271
347.248 107.497 30.1947
341.588 106.707 1.62414
343.469 138.742 33.16
359.491 141.431 57.3391
364.506 110.011 57.2804
348.455 107.684 33.1277
361.713 141.786 59.5748
385.616 145.898 75.666
390.675 113.983 75.5907
366.729 110.365 59.5161
388.51 146.372 76.8676
416.633 151.316 82.4565
421.744 118.856 82.3752
393.57 114.458 76.7923
419.759 151.835 82.447
447.848 156.791 76.7345
453.017 123.775 76.6631
424.87 119.376 82.3656
450.737 157.262 75.5201
474.605 161.351 59.4111
479.833 127.756 59.3529
455.906 124.246 75.4487
476.83 161.68 57.1736
492.971 164.111 33.0232
498.272 129.918 33.0021
482.057 128.085 57.1154
494.184 164.266 30.1006
499.891 165.045 1.54756
505.221 130.626 1.55552
499.485 130.073 30.0795
499.891 165.043 -1.61752
494.179 164.24 -30.1616
499.489 130.045 -30.1333
505.221 130.624 -1.60956
492.968 164.083 -33.0815
476.854 161.658 -57.1821
482.085 128.058 -57.1288
498.277 129.889 -33.0532
474.631 161.33 -59.4171
450.763 157.25 -75.5289
455.934 124.232 -75.4599
479.862 127.73 -59.3639
447.874 156.78 -76.7435
419.783 151.832 -82.4595
424.897 119.372 -82.3779
453.045 123.763 -76.6745
416.657 151.314 -82.4693
388.532 146.376 -76.8851
393.595 114.464 -76.807
421.771 118.853 -82.3878
385.637 145.902 -75.684
361.73 141.794 -59.5987
366.749 110.382 -59.5348
390.7 113.99 -75.6058
359.505 141.44 -57.3602
343.451 138.748 -33.1259
348.441 107.701 -33.089
364.524 110.028 -57.2963
342.243 138.56 -30.1884
336.61 137.625 -1.55891
341.587 106.708 -1.55717
347.233 107.513 -30.1515
342.128 103.265 1.61729
347.788 104.054 30.1879
352.508 72.9566 29.9733
346.887 72.3113 1.61737
348.992 104.213 33.1084
365.043 106.54 57.2612
369.66 75.0779 56.8801
353.712 73.1159 32.8938
367.26 106.847 59.4887
391.207 110.465 75.5633
395.676 78.5074 75.0975
371.877 75.3847 59.1076
394.095 110.882 76.7621
422.27 115.28 82.345
426.576 82.7842 81.8821
398.564 78.9244 76.2963
425.389 115.74 82.3374
453.536 120.14 76.635
457.684 87.1177 76.2295
429.696 83.2436 81.8745
456.423 120.545 75.4256
480.35 124.055 59.3297
484.397 90.349 59.0521
460.571 87.5234 75.0202
482.573 124.311 57.1003
498.788 126.144 32.987
502.752 91.7111 32.8397
486.62 90.6056 56.8226
499.999 126.249 30.0748
505.735 126.802 1.55076
509.648 92.1107 1.54923
503.963 91.8153 29.9274
505.735 126.801 -1.60408
500.003 126.221 -30.1279
503.972 91.789 -29.9766
509.648 92.1094 -1.6056
498.793 126.115 -33.0378
482.601 124.285 -57.1134
486.653 90.5794 -56.8322
502.763 91.6833 -32.8865
480.379 124.029 -59.3407
456.451 120.531 -75.4368
460.602 87.508 -75.0256
484.431 90.3235 -59.0595
453.565 120.127 -76.6461
425.417 115.736 -82.3495
429.727 83.2401 -81.8824
457.716 87.1035 -76.235
422.297 115.278 -82.3573
394.12 110.888 -76.7765
398.593 78.9344 -76.3068
426.607 82.7819 -81.8901
391.232 110.473 -75.5779
367.281 106.864 -59.5069
371.904 75.4126 -59.1176
395.704 78.5188 -75.1082
365.061 106.558 -57.2765
348.978 104.232 -33.0692
353.706 73.1496 -32.851
369.684 75.1067 -56.8873
347.773 104.071 -30.1443
342.127 103.266 -1.54995
346.886 72.3126 -1.54987
352.5 72.989 -29.9261
347.542 68.9216 1.57383
353.163 69.5669 29.9298
360.168 39.2903 28.6368
354.807 38.6649 1.57071
354.333 69.7092 32.7724
370.281 71.6712 56.7586
376.54 41.3212 54.3832
361.339 39.4326 31.4794
372.439 71.9466 58.9313
396.238 75.0692 74.9212
401.391 44.5302 71.8509
378.698 41.5966 56.5559
399.052 75.4436 76.0953
427.064 79.3034 81.6811
430.944 48.4541 78.4097
404.205 44.9046 73.025
430.107 79.7151 81.6795
458.095 83.5892 76.0345
460.726 52.3941 73.0553
433.986 48.8657 78.4081
460.905 83.9496 74.8617
484.732 86.7752 58.8937
486.252 55.5128 56.6079
463.536 52.7544 71.8826
486.894 87.0011 56.725
503.025 88.1066 32.742
503.644 57.1878 31.4563
488.414 55.7388 54.4392
504.206 88.1976 29.893
509.89 88.493 1.51478
510.164 57.6955 1.51146
504.824 57.2789 28.6073
509.89 88.4911 -1.57146
504.215 88.1707 -29.9424
504.823 57.2275 -28.6506
510.164 57.6936 -1.57478
503.036 88.0778 -32.788
486.927 86.9739 -56.7336
488.445 55.6902 -54.4326
503.644 57.1346 -31.4962
484.766 86.749 -58.9
460.937 83.9336 -74.8661
463.567 52.7369 -71.8787
486.284 55.4654 -56.5989
458.126 83.575 -76.0393
430.137 79.7116 -81.6867
434.016 48.8637 -78.4109
460.756 52.3784 -73.0519
427.095 79.3014 -81.6888
399.08 75.4539 -76.1054
404.232 44.9196 -73.0341
430.973 48.4536 -78.4131
396.266 75.0817 -74.9318
372.466 71.9755 -58.9412
378.717 41.6456 -56.57
401.417 44.5473 -71.8605
370.306 71.7017 -56.7658
354.327 69.7446 -32.7295
361.324 39.4865 -31.4434
376.557 41.3717 -54.3946
353.156 69.6003 -29.8827
347.542 68.9238 -1.5065
354.806 38.6671 -1.50962
360.153 39.3422 -28.5966
355.655 35.3583 1.48569
361.017 35.9837 28.5517
369.027 6.58692 26.778
364.01 5.99778 1.4774
362.123 36.1193 31.2386
377.324 38.0079 54.1424
384.357 8.5013 50.8708
370.133 6.72251 29.4648
379.363 38.2666 56.1961
402.056 41.2003 71.4911
407.633 11.465 67.1967
386.396 8.76005 52.9245
404.716 41.5455 72.6012
431.454 45.0949 77.986
435.299 15.0321 73.2995
410.293 11.8102 68.3068
434.33 45.4703 77.9853
461.07 48.9987 72.6325
463.157 18.6063 68.267
438.174 15.4074 73.2988
463.725 49.3353 71.5232
486.441 52.0938 56.2486
486.999 21.5721 52.8777
465.813 18.943 67.1577
488.477 52.3279 54.1952
503.707 53.7769 31.2122
503.216 23.3814 29.3929
489.036 21.8062 50.8243
504.813 53.8858 28.521
510.152 54.3025 1.42514
509.288 23.9618 1.43639
504.322 23.4903 26.7017
510.152 54.299 -1.48736
504.81 53.8329 -28.5632
504.316 23.4123 -26.7252
509.287 23.9583 -1.47612
503.706 53.7208 -31.2508
488.507 52.2764 -54.1872
489.054 21.7363 -50.8124
503.212 23.3003 -29.4128
486.472 52.0452 -56.2388
463.755 49.3168 -71.5186
465.834 18.9271 -67.1542
487.02 21.5052 -52.864
461.099 48.983 -72.6287
434.359 45.4684 -77.9878
438.194 15.4058 -73.2999
463.178 18.5934 -68.2643
431.483 45.0946 -77.989
404.742 41.5606 -72.6101
410.31 11.8237 -68.3127
435.318 15.0319 -73.3011
402.082 41.2184 -71.5007
379.382 38.3166 -56.2102
386.401 8.82395 -52.9392
407.649 11.4816 -67.2033
377.34 38.0606 -54.1545
362.107 36.1753 -31.2033
370.11 6.79701 -29.443
384.36 8.56788 -50.8835
361 36.0367 -28.5128
355.654 35.3616 -1.42579
364.009 6.0011 -1.43408
369.003 6.65832 -26.7525
365.038 3.00187 1.34784
370.056 3.591 26.6485
380.261 -21.1803 23.7801
375.838 -21.8019 1.3284
371.064 3.72238 29.1015
385.287 5.50118 50.5075
393.867 -19.2897 45.2636
381.269 -21.0489 26.2332
387.15 5.74487 52.3833
408.386 8.44979 66.6555
414.613 -16.5158 59.8101
395.73 -19.0461 47.1394
410.817 8.76709 67.6671
435.824 11.989 72.6597
439.281 -13.2481 65.2135
417.044 -16.1985 60.8216
438.45 12.3314 72.6556
463.433 15.5303 67.6238
464.092 -9.97387 60.6847
441.907 -12.9057 65.2093
465.857 15.8431 66.6078
487.043 18.4722 52.3278
485.278 -7.18576 46.9486
466.515 -9.66103 59.6687
488.897 18.705 50.4548
503.078 20.2802 29.0234
499.646 -5.30358 26.1107
487.132 -6.95302 45.0756
504.083 20.3994 26.5738
509.049 20.8709 1.3085
505.041 -4.6059 1.32634
500.651 -5.18431 23.6611
509.049 20.8687 -1.34429
504.077 20.3227 -26.5934
500.651 -5.18675 -23.6613
505.041 -4.60817 -1.32646
503.072 20.2012 -29.0426
488.915 18.6373 -50.4421
487.132 -6.95786 -45.0756
499.646 -5.3082 -26.1105
487.061 18.4068 -52.3149
465.875 15.8288 -66.6051
466.515 -9.66367 -59.6685
485.278 -7.18835 -46.9484
463.452 15.5177 -67.6211
438.468 12.3301 -72.6567
441.908 -12.9065 -65.2091
464.092 -9.97471 -60.6846
435.841 11.9884 -72.661
410.833 8.78026 -67.6726
417.045 -16.1985 -60.8217
439.282 -13.2482 -65.2135
408.401 8.46465 -66.6611
387.153 5.80702 -52.397
395.73 -19.0442 -47.1396
414.613 -16.5141 -59.8102
385.29 5.56551 -50.5207
371.04 3.79463 -29.0801
381.268 -21.0448 -26.2329
393.867 -19.2857 -45.2633
370.032 3.66123 -26.6265
365.038 3.004 -1.30815
375.838 -21.7997 -1.32759
380.26 -21.1782 -23.7793
-74.3677 964.289 25.9234
-78.118 960.835 0.167512
-74.3203 964.27 -25.5823
-63.5509 974.069 -47.4201
-47.3583 988.678 -62.008
-28.1812 1005.83 -67.1036
-9.00564 1022.96 -61.9566
7.18987 1037.55 -47.3816
17.9528 1047.43 -25.5753
21.7254 1050.93 0.183321
17.9705 1047.39 25.9377
7.21592 1037.5 47.7363
-8.98594 1022.9 62.3083
-28.1696 1005.78 67.4508
-47.3566 988.648 62.35
-63.587 974.074 47.7667
382.635 -22.3855 1.31945e-05
387.058 -21.764 22.4517
399.656 -20.0048 41.4821
418.539 -17.4746 54.1528
440.776 -14.5241 58.5446
462.96 -11.5923 54.02
481.723 -9.11705 41.3
494.237 -7.4676 22.335
498.627 -6.88918 0.000239176
494.237 -7.46776 -22.3346
481.723 -9.11742 -41.2997
462.96 -11.5927 -54.0199
440.776 -14.5245 -58.5445
418.539 -17.4748 -54.1527
399.656 -20.0049 -41.4821
387.058 -21.764 -22.4517
</DataArray>
</Points>
<Cells>
<DataArray type="Int32" Name="connectivity" format="ascii">
0 1 2 3 
4 5 6 7 
8 9 10 11 
12 13 14 15 
16 17 18 19 
20 21 22 23 
24 25 26 27 
28 29 30 31 
32 33 34 35 
36 37 38 39 
40 41 42 43 
44 45 46 47 
48 49 50 51 
52 53 54 55 
56 57 58 59 
60 61 62 63 
64 65 66 67 
68 69 70 71 
72 73 74 75 
76 77 78 79 
80 81 82 83 
84 85 86 87 
88 89 90 91 
92 93 94 95 
96 97 98 99 
100 101 102 103 
104 105 106 107 
108 109 110 111 
112 113 114 115 
116 117 118 119 
120 121 122 123 
124 125 126 127 
128 129 130 131 
132 133 134 135 
136 137 138 139 
140 141 142 143 
144 145 146 147 
148 149 150 151 
152 153 154 155 
156 157 158 159 
160 161 162 163 
164 165 166 167 
168 169 170 171 
172 173 174 175 
176 177 178 179 
180 181 182 183 
184 185 186 187 
188 189 190 191 
192 193 194 195 
196 197 198 199 
200 201 202 203 
204 205 206 207 
208 209 210 211 
212 213 214 215 
216 217 218 219 
220 221 222 223 
224 225 226 227 
228 229 230 231 
232 233 234 235 
236 237 238 239 
240 241 242 243 
244 245 246 247 
248 249 250 251 
252 253 254 255 
256 257 258 259 
260 261 262 263 
264 265 266 267 
268 269 270 271 
272 273 274 275 
276 277 278 279 
280 281 282 283 
284 285 286 287 
288 289 290 291 
292 293 294 295 
296 297 298 299 
300 301 302 303 
304 305 306 307 
308 309 310 311 
312 313 314 315 
316 317 318 319 
320 321 322 323 
324 325 326 327 
328 329 330 331 
332 333 334 335 
336 337 338 339 
340 341 342 343 
344 345 346 347 
348 349 350 351 
352 353 354 355 
356 357 358 359 
360 361 362 363 
364 365 366 367 
368 369 370 371 
372 373 374 375 
376 377 378 379 
380 381 382 383 
384 385 386 387 
388 389 390 391 
392 393 394 395 
396 397 398 399 
400 401 402 403 
404 405 406 407 
408 409 410 411 
412 413 414 415 
416 417 418 419 
420 421 422 423 
424 425 426 427 
428 429 430 431 
432 433 434 435 
436 437 438 439 
440 441 442 443 
444 445 446 447 
448 449 450 451 
452 453 454 455 
456 457 458 459 
460 461 462 463 
464 465 466 467 
468 469 470 471 
472 473 474 475 
476 477 478 479 
480 481 482 483 
484 485 486 487 
488 489 490 491 
492 493 494 495 
496 497 498 499 
500 501 502 503 
504 505 506 507 
508 509 510 511 
512 513 514 515 
516 517 518 519 
520 521 522 523 
524 525 526 527 
528 529 530 531 
532 533 534 535 
536 537 538 539 
540 541 542 543 
544 545 546 547 
548 549 550 551 
552 553 554 555 
556 557 558 559 
560 561 562 563 
564 565 566 567 
568 569 570 571 
572 573 574 575 
576 577 578 579 
580 581 582 583 
584 585 586 587 
588 589 590 591 
592 593 594 595 
596 597 598 599 
600 601 602 603 
604 605 606 607 
608 609 610 611 
612 613 614 615 
616 617 618 619 
620 621 622 623 
624 625 626 627 
628 629 630 631 
632 633 634 635 
636 637 638 639 
640 641 642 643 
644 645 646 647 
648 649 650 651 
652 653 654 655 
656 657 658 659 
660 661 662 663 
664 665 666 667 
668 669 670 671 
672 673 674 675 
676 677 678 679 
680 681 682 683 
684 685 686 687 
688 689 690 691 
692 693 694 695 
696 697 698 699 
700 701 702 703 
704 705 706 707 
708 709 710 711 
712 713 714 715 
716 717 718 719 
720 721 722 723 
724 725 726 727 
728 729 730 731 
732 733 734 735 
736 737 738 739 
740 741 742 743 
744 745 746 747 
748 749 750 751 
752 753 754 755 
756 757 758 759 
760 761 762 763 
764 765 766 767 
768 769 770 771 
772 773 774 775 
776 777 778 779 
780 781 782 783 
784 785 786 787 
788 789 790 791 
792 793 794 795 
796 797 798 799 
800 801 802 803 
804 805 806 807 
808 809 810 811 
812 813 814 815 
816 817 818 819 
820 821 822 823 
824 825 826 827 
828 829 830 831 
832 833 834 835 
836 837 838 839 
840 841 842 843 
844 845 846 847 
848 849 850 851 
852 853 854 855 
856 857 858 859 
860 861 862 863 
864 865 866 867 
868 869 870 871 
872 873 874 875 
876 877 878 879 
880 881 882 883 
884 885 886 887 
888 889 890 891 
892 893 894 895 
896 897 898 899 
900 901 902 903 
904 905 906 907 
908 909 910 911 
912 913 914 915 
916 917 918 919 
920 921 922 923 
924 925 926 927 
928 929 930 931 
932 933 934 935 
936 937 938 939 
940 941 942 943 
944 945 946 947 
948 949 950 951 
952 953 954 955 
956 957 958 959 
960 961 962 963 
964 965 966 967 
968 969 970 971 
972 973 974 975 
976 977 978 979 
980 981 982 983 
984 985 986 987 
988 989 990 991 
992 993 994 995 
996 997 998 999 
1000 1001 1002 1003 
1004 1005 1006 1007 
1008 1009 1010 1011 
1012 1013 1014 1015 
1016 1017 1018 1019 
1020 1021 1022 1023 
1024 1025 1026 1027 
1028 1029 1030 1031 
1032 1033 1034 1035 
1036 1037 1038 1039 
1040 1041 1042 1043 
1044 1045 1046 1047 
1048 1049 1050 1051 
1052 1053 1054 1055 
1056 1057 1058 1059 
1060 1061 1062 1063 
1064 1065 1066 1067 
1068 1069 1070 1071 
1072 1073 1074 1075 
1076 1077 1078 1079 
1080 1081 1082 1083 
1084 1085 1086 1087 
1088 1089 1090 1091 
1092 1093 1094 1095 
1096 1097 1098 1099 
1100 1101 1102 1103 
1104 1105 1106 1107 
1108 1109 1110 1111 
1112 1113 1114 1115 
1116 1117 1118 1119 
1120 1121 1122 1123 
1124 1125 1126 1127 
1128 1129 1130 1131 
1132 1133 1134 1135 
1136 1137 1138 1139 
1140 1141 1142 1143 
1144 1145 1146 1147 
1148 1149 1150 1151 
1152 1153 1154 1155 
1156 1157 1158 1159 
1160 1161 1162 1163 
1164 1165 1166 1167 
1168 1169 1170 1171 
1172 1173 1174 1175 
1176 1177 1178 1179 
1180 1181 1182 1183 
1184 1185 1186 1187 
1188 1189 1190 1191 
1192 1193 1194 1195 
1196 1197 1198 1199 
1200 1201 1202 1203 
1204 1205 1206 1207 
1208 1209 1210 1211 
1212 1213 1214 1215 
1216 1217 1218 1219 
1220 1221 1222 1223 
1224 1225 1226 1227 
1228 1229 1230 1231 
1232 1233 1234 1235 
1236 1237 1238 1239 
1240 1241 1242 1243 
1244 1245 1246 1247 
1248 1249 1250 1251 
1252 1253 1254 1255 
1256 1257 1258 1259 
1260 1261 1262 1263 
1264 1265 1266 1267 
1268 1269 1270 1271 
1272 1273 1274 1275 
1276 1277 1278 1279 
1280 1281 1282 1283 
1284 1285 1286 1287 
1288 1289 1290 1291 
1292 1293 1294 1295 
1296 1297 1298 1299 
1300 1301 1302 1303 
1304 1305 1306 1307 
1308 1309 1310 1311 
1312 1313 1314 1315 
1316 1317 1318 1319 
1320 1321 1322 1323 
1324 1325 1326 1327 
1328 1329 1330 1331 
1332 1333 1334 1335 
1336 1337 1338 1339 
1340 1341 1342 1343 
1344 1345 1346 1347 
1348 1349 1350 1351 
1352 1353 1354 1355 
1356 1357 1358 1359 
1360 1361 1362 1363 
1364 1365 1366 1367 
1368 1369 1370 1371 
1372 1373 1374 1375 
1376 1377 1378 1379 
1380 1381 1382 1383 
1384 1385 1386 1387 
1388 1389 1390 1391 
1392 1393 1394 1395 
1396 1397 1398 1399 
1400 1401 1402 1403 
1404 1405 1406 1407 
1408 1409 1410 1411 
1412 1413 1414 1415 
1416 1417 1418 1419 
1420 1421 1422 1423 
1424 1425 1426 1427 
1428 1429 1430 1431 
1432 1433 1434 1435 
1436 1437 1438 1439 
1440 1441 1442 1443 
1444 1445 1446 1447 
1448 1449 1450 1451 
1452 1453 1454 1455 
1456 1457 1458 1459 
1460 1461 1462 1463 
1464 1465 1466 1467 
1468 1469 1470 1471 
1472 1473 1474 1475 
1476 1477 1478 1479 
1480 1481 1482 1483 
1484 1485 1486 1487 
1488 1489 1490 1491 
1492 1493 1494 1495 
1496 1497 1498 1499 
1500 1501 1502 1503 
1504 1505 1506 1507 
1508 1509 1510 1511 
1512 1513 1514 1515 
1516 1517 1518 1519 
1520 1521 1522 1523 
1524 1525 1526 1527 
1528 1529 1530 1531 
1532 1533 1534 1535 
1536 1537 1538 1539 
1540 1541 1542 1543 
1544 1545 1546 1547 
1548 1549 1550 1551 
1552 1553 1554 1555 
1556 1557 1558 1559 
1560 1561 1562 1563 
1564 1565 1566 1567 
1568 1569 1570 1571 
1572 1573 1574 1575 
1576 1577 1578 1579 
1580 1581 1582 1583 
1584 1585 1586 1587 
1588 1589 1590 1591 
1592 1593 1594 1595 
1596 1597 1598 1599 
1600 1601 1602 1603 
1604 1605 1606 1607 
1608 1609 1610 1611 
1612 1613 1614 1615 
1616 1617 1618 1619 
1620 1621 1622 1623 
1624 1625 1626 1627 
1628 1629 1630 1631 
1632 1633 1634 1635 
1636 1637 1638 1639 
1640 1641 1642 1643 
1644 1645 1646 1647 
1648 1649 1650 1651 
1652 1653 1654 1655 
1656 1657 1658 1659 
1660 1661 1662 1663 
1664 1665 1666 1667 
1668 1669 1670 1671 
1672 1673 1674 1675 
1676 1677 1678 1679 
1680 1681 1682 1683 
1684 1685 1686 1687 
1688 1689 1690 1691 
1692 1693 1694 1695 
1696 1697 1698 1699 
1700 1701 1702 1703 
1704 1705 1706 1707 
1708 1709 1710 1711 
1712 1713 1714 1715 
1716 1717 1718 1719 
1720 1721 1722 1723 
1724 1725 1726 1727 
1728 1729 1730 1731 
1732 1733 1734 1735 
1736 1737 1738 1739 
1740 1741 1742 1743 
1744 1745 1746 1747 
1748 1749 1750 1751 
1752 1753 1754 1755 
1756 1757 1758 1759 
1760 1761 1762 1763 
1764 1765 1766 1767 
1768 1769 1770 1771 
1772 1773 1774 1775 
1776 1777 1778 1779 
1780 1781 1782 1783 
1784 1785 1786 1787 
1788 1789 1790 1791 
1792 1793 1794 1795 
1796 1797 1798 1799 
1800 1801 1802 1803 
1804 1805 1806 1807 
1808 1809 1810 1811 
1812 1813 1814 1815 
1816 1817 1818 1819 
1820 1821 1822 1823 
1824 1825 1826 1827 
1828 1829 1830 1831 
1832 1833 1834 1835 
1836 1837 1838 1839 
1840 1841 1842 1843 
1844 1845 1846 1847 
1848 1849 1850 1851 
1852 1853 1854 1855 
1856 1857 1858 1859 
1860 1861 1862 1863 
1864 1865 1866 1867 
1868 1869 1870 1871 
1872 1873 1874 1875 
1876 1877 1878 1879 
1880 1881 1882 1883 
1884 1885 1886 1887 
1888 1889 1890 1891 
1892 1893 1894 1895 
1896 1897 1898 1899 
1900 1901 1902 1903 
1904 1905 1906 1907 
1908 1909 1910 1911 
1912 1913 1914 1915 
1916 1917 1918 1919 
1920 1921 1922 1923 
1924 1925 1926 1927 
1928 1929 1930 1931 
1932 1933 1934 1935 
1936 1937 1938 1939 
1940 1941 1942 1943 
1944 1945 1946 1947 
1948 1949 1950 1951 
1952 1953 1954 1955 
1956 1957 1958 1959 
1960 1961 1962 1963 
1964 1965 1966 1967 
1968 1969 1970 1971 
1972 1973 1974 1975 
1976 1977 1978 1979 
1980 1981 1982 1983 
1984 1985 1986 1987 
1988 1989 1990 1991 
1992 1993 1994 1995 
1996 1997 1998 1999 
2000 2001 2002 2003 
2004 2005 2006 2007 
2008 2009 2010 2011 
2012 2013 2014 2015 
2016 2017 2018 2019 
2020 2021 2022 2023 
2024 2025 2026 2027 
2028 2029 2030 2031 
2032 2033 2034 2035 
2036 2037 2038 2039 
2040 2041 2042 2043 
2044 2045 2046 2047 
2048 2049 2050 2051 2052 2053 2054 2055 2056 2057 2058 2059 2060 2061 2062 2063 
2064 2065 2066 2067 2068 2069 2070 2071 2072 2073 2074 2075 2076 2077 2078 2079 
</DataArray>
<DataArray type="Int32" Name="offsets" format="ascii">
4 8 12 16 20 24 28 32 36 40 44 48 52 56 60 64 68 72 76 80 84 88 92 96 100 104 108 112 116 120 124 128 132 136 140 144 148 152 156 160 164 168 172 176 180 184 188 192 196 200 204 208 212 216 220 224 228 232 236 240 244 248 252 256 260 264 268 272 276 280 284 288 292 296 300 304 308 312 316 320 324 328 332 336 340 344 348 352 356 360 364 368 372 376 380 384 388 392 396 400 404 408 412 416 420 424 428 432 436 440 444 448 452 456 460 464 468 472 476 480 484 488 492 496 500 504 508 512 516 520 524 528 532 536 540 544 548 552 556 560 564 568 572 576 580 584 588 592 596 600 604 608 612 616 620 624 628 632 636 640 644 648 652 656 660 664 668 672 676 680 684 688 692 696 700 704 708 712 716 720 724 728 732 736 740 744 748 752 756 760 764 768 772 776 780 784 788 792 796 800 804 808 812 816 820 824 828 832 836 840 844 848 852 856 860 864 868 872 876 880 884 888 892 896 900 904 908 912 916 920 924 928 932 936 940 944 948 952 956 960 964 968 972 976 980 984 988 992 996 1000 1004 1008 1012 1016 1020 1024 1028 1032 1036 1040 1044 1048 1052 1056 1060 1064 1068 1072 1076 1080 1084 1088 1092 1096 1100 1104 1108 1112 1116 1120 1124 1128 1132 1136 1140 1144 1148 1152 1156 1160 1164 1168 1172 1176 1180 1184 1188 1192 1196 1200 1204 1208 1212 1216 1220 1224 1228 1232 1236 1240 1244 1248 1252 1256 1260 1264 1268 1272 1276 1280 1284 1288 1292 1296 1300 1304 1308 1312 1316 1320 1324 1328 1332 1336 1340 1344 1348 1352 1356 1360 1364 1368 1372 1376 1380 1384 1388 1392 1396 1400 1404 1408 1412 1416 1420 1424 1428 1432 1436 1440 1444 1448 1452 1456 1460 1464 1468 1472 1476 1480 1484 1488 1492 1496 1500 1504 1508 1512 1516 1520 1524 1528 1532 1536 1540 1544 1548 1552 1556 1560 1564 1568 1572 1576 1580 1584 1588 1592 1596 1600 1604 1608 1612 1616 1620 1624 1628 1632 1636 1640 1644 1648 1652 1656 1660 1664 1668 1672 1676 1680 1684 1688 1692 1696 1700 1704 1708 1712 1716 1720 1724 1728 1732 1736 1740 1744 1748 1752 1756 1760 1764 1768 1772 1776 1780 1784 1788 1792 1796 1800 1804 1808 1812 1816 1820 1824 1828 1832 1836 1840 1844 1848 1852 1856 1860 1864 1868 1872 1876 1880 1884 1888 1892 1896 1900 1904 1908 1912 1916 1920 1924 1928 1932 1936 1940 1944 1948 1952 1956 1960 1964 1968 1972 1976 1980 1984 1988 1992 1996 2000 2004 2008 2012 2016 2020 2024 2028 2032 2036 2040 2044 2048 2064 2080 
</DataArray>
<DataArray type="UInt8" Name="types" format="ascii">
7 7 7 7 7 7 7 7 7 7 7 7 7 7 7 7 7 7 7 7 7 7 7 7 7 7 7 7 7 7 7 7 7 7 7 7 7 7 7 7 7 7 7 7 7 7 7 7 7 7 7 7 7 7 7 7 7 7 7 7 7 7 7 7 7 7 7 7 7 7 7 7 7 7 7 7 7 7 7 7 7 7 7 7 7 7 7 7 7 7 7 7 7 7 7 7 7 7 7 7 7 7 7 7 7 7 7 7 7 7 7 7 7 7 7 7 7 7 7 7 7 7 7 7 7 7 7 7 7 7 7 7 7 7 7 7 7 7 7 7 7 7 7 7 7 7 7 7 7 7 7 7 7 7 7 7 7 7 7 7 7 7 7 7 7 7 7 7 7 7 7 7 7 7 7 7 7 7 7 7 7 7 7 7 7 7 7 7 7 7 7 7 7 7 7 7 7 7 7 7 7 7 7 7 7 7 7 7 7 7 7 7 7 7 7 7 7 7 7 7 7 7 7 7 7 7 7 7 7 7 7 7 7 7 7 7 7 7 7 7 7 7 7 7 7 7 7 7 7 7 7 7 7 7 7 7 7 7 7 7 7 7 7 7 7 7 7 7 7 7 7 7 7 7 7 7 7 7 7 7 7 7 7 7 7 7 7 7 7 7 7 7 7 7 7 7 7 7 7 7 7 7 7 7 7 7 7 7 7 7 7 7 7 7 7 7 7 7 7 7 7 7 7 7 7 7 7 7 7 7 7 7 7 7 7 7 7 7 7 7 7 7 7 7 7 7 7 7 7 7 7 7 7 7 7 7 7 7 7 7 7 7 7 7 7 7 7 7 7 7 7 7 7 7 7 7 7 7 7 7 7 7 7 7 7 7 7 7 7 7 7 7 7 7 7 7 7 7 7 7 7 7 7 7 7 7 7 7 7 7 7 7 7 7 7 7 7 7 7 7 7 7 7 7 7 7 7 7 7 7 7 7 7 7 7 7 7 7 7 7 7 7 7 7 7 7 7 7 7 7 7 7 7 7 7 7 7 7 7 7 7 7 7 7 7 7 7 7 7 7 7 7 7 7 7 7 7 7 7 7 7 7 7 7 7 7 7 7 7 7 7 7 7 7 7 7 7 7 7 7 7 7 7 7 7 7 7 7 7 7 7 7 7 7 
</DataArray>
</Cells>
<CellData Scalars="cell variable 4" Vectors="cell vector">
<DataArray type="Float64" NumberOfComponents="3" Name="cell vector" format="ascii">
0.159849 0.10492 0.98155
0.489715 0.240451 0.838071
0.750859 0.320997 0.577211
0.881323 0.407042 0.23997
0.764572 0.617293 -0.185418
0.372604 0.727184 -0.576515
-0.150744 -0.550026 0.82143
-0.0241146 -0.221197 0.974931
0.0405079 0.208538 0.977175
0.132872 0.559044 0.818422
0.358669 0.734116 0.576567
0.755768 0.62718 0.188305
0.878051 0.414626 -0.23898
0.736462 0.353078 -0.577026
-0.472378 -0.27224 0.838299
-0.174924 -0.0806376 0.981274
0.150001 0.124456 0.980821
0.431687 0.349184 0.831695
0.646252 0.522258 0.556422
0.755352 0.625154 0.196535
0.732715 0.652033 -0.194889
0.578205 0.597336 -0.55576
-0.360226 -0.425361 0.830244
-0.123589 -0.152916 0.980481
0.12597 0.150054 0.98062
0.358206 0.426864 0.830347
0.576118 0.599053 0.556078
0.730988 0.653827 0.195362
0.753314 0.627733 -0.196134
0.643686 0.52557 -0.556277
-0.43019 -0.351154 0.831641
-0.152673 -0.121565 0.980772
0.150402 0.124857 0.980709
0.43 0.352898 0.831001
0.643047 0.527727 0.554973
0.754071 0.627217 0.194875
0.737833 0.646161 -0.195135
0.574292 0.602728 -0.553993
-0.359595 -0.429298 0.828489
-0.125942 -0.151734 0.980365
0.127522 0.14979 0.98046
0.358537 0.429956 0.828607
0.573352 0.603295 0.554348
0.736481 0.64759 0.195507
0.75265 0.629015 -0.194571
0.641845 0.529455 -0.554719
-0.429002 -0.354264 0.830936
-0.151371 -0.123613 0.980717
0.151921 0.123593 0.980635
0.4335 0.349765 0.830507
0.648783 0.521921 0.553787
0.762358 0.617586 0.193385
0.748966 0.633067 -0.195644
0.568616 0.608936 -0.553058
-0.214636 -0.564885 0.796766
-0.368843 0.619179 -0.693233
-0.357685 0.610412 0.706724
0.202049 0.57456 0.793131
0.567551 0.609638 0.553379
0.747779 0.634363 0.195984
0.761344 0.618931 -0.19308
0.648162 0.523035 -0.553462
-0.432617 -0.351011 0.830442
-0.15207 -0.122988 0.980688
0.153785 0.121648 0.980588
0.437859 0.34501 0.83021
0.654427 0.515512 0.553149
0.768093 0.610696 0.192573
0.755675 0.62493 -0.196004
0.600517 0.577022 -0.553558
-0.270206 -0.524004 0.807718
0.232881 -0.528013 0.816681
-0.193743 0.491609 0.84899
0.258797 0.533907 0.804964
0.599605 0.577674 0.553866
0.754897 0.625758 0.196361
0.767472 0.611589 -0.192215
0.654134 0.516284 -0.552774
-0.437185 -0.346024 0.830142
-0.153525 -0.121366 0.980663
0.155406 0.119587 0.980586
0.44204 0.339546 0.830246
0.660554 0.50753 0.553247
0.775986 0.600634 0.192576
0.766811 0.611149 -0.196208
0.624916 0.55032 -0.55374
-0.326085 -0.474437 0.817666
0.047676 -0.357656 0.932636
-0.0331845 0.341628 0.939249
0.313513 0.486875 0.815268
0.623886 0.551175 0.554051
0.766213 0.611773 0.1966
0.775593 0.601273 -0.192163
0.660434 0.50813 -0.552839
-0.441523 -0.340379 0.83018
-0.154967 -0.119447 0.980672
0.157199 0.117069 0.980604
0.446971 0.332624 0.830408
0.668026 0.497327 0.553541
0.785588 0.58797 0.192726
0.779213 0.595192 -0.1964
0.644439 0.526945 -0.5541
-0.371371 -0.42847 0.823709
-0.0471436 -0.257109 0.965232
0.0508719 0.252601 0.966232
0.359869 0.441203 0.822091
0.643216 0.528119 0.554404
0.778672 0.595766 0.196808
0.785321 0.588472 -0.192281
0.667992 0.497847 -0.553115
-0.446571 -0.333321 0.830344
-0.156686 -0.116977 0.980697
0.159202 0.114145 0.980625
0.452612 0.324463 0.830582
0.676619 0.485238 0.553833
0.796362 0.573244 0.19287
0.791969 0.578047 -0.196588
0.661038 0.505525 -0.554503
-0.405053 -0.3903 0.8268
-0.0951957 -0.201645 0.974821
0.0974001 0.198954 0.975157
0.396107 0.401198 0.825917
0.659787 0.506839 0.554793
0.791446 0.578626 0.196989
0.796151 0.573689 -0.192419
0.676621 0.485726 -0.553403
-0.452294 -0.325058 0.830522
-0.158655 -0.11406 0.980724
0.161368 0.110901 0.980643
0.458761 0.315337 0.830723
0.685949 0.471685 0.554064
0.807825 0.556936 0.192979
0.804733 0.560084 -0.19675
0.675766 0.485276 -0.55484
-0.429642 -0.359708 0.828262
-0.123447 -0.166653 0.978258
0.125773 0.163745 0.978452
0.423379 0.368008 0.827841
0.674633 0.486537 0.555115
0.80424 0.560656 0.197135
0.807638 0.557359 -0.192537
0.685967 0.472158 -0.553639
-0.458496 -0.315857 0.830672
-0.1608 -0.11081 0.980747
0.163632 0.107415 0.980656
0.465212 0.305457 0.830828
0.695702 0.456976 0.554231
0.819615 0.539408 0.193055
0.817371 0.541427 -0.19688
0.689027 0.465957 -0.55509
-0.448233 -0.334553 0.828952
-0.14142 -0.142847 0.979589
0.143924 0.139596 0.979693
0.444222 0.34031 0.828768
0.688079 0.467053 0.555346
0.816929 0.54196 0.197245
0.819448 0.539814 -0.192628
0.695726 0.457441 -0.553818
-0.46498 -0.305919 0.830787
-0.163042 -0.107311 0.980766
0.16594 0.103737 0.980664
0.471776 0.295005 0.830903
0.705606 0.44138 0.55435
0.831487 0.520904 0.193103
0.829796 0.522149 -0.196977
0.701134 0.447308 -0.555272
-0.462646 -0.313474 0.829272
-0.153318 -0.125991 0.980112
0.155821 0.122629 0.980144
0.46028 0.317163 0.829186
0.70037 0.448212 0.555507
0.829415 0.522623 0.197321
0.831341 0.521288 -0.192695
0.705635 0.441834 -0.553951
-0.471564 -0.295421 0.830875
-0.165326 -0.103621 0.98078
0.168245 0.0999108 0.980669
0.478313 0.284137 0.830953
0.715448 0.425136 0.554431
0.843248 0.50163 0.193133
0.841918 0.502342 -0.197047
0.71246 0.428871 -0.555401
-0.473981 -0.29565 0.829418
-0.16139 -0.113749 0.980314
0.163743 0.110506 0.980294
0.472694 0.297865 0.829359
0.711858 0.429592 0.555615
0.8416 0.502746 0.19737
0.843126 0.501984 -0.192744
0.715485 0.425572 -0.554048
-0.478115 -0.284509 0.83094
-0.167606 -0.0997817 0.980791
0.170512 0.0959702 0.980671
0.484742 0.272929 0.830984
0.725115 0.408361 0.554481
0.854761 0.481743 0.19315
0.853675 0.482069 -0.197099
0.723118 0.410526 -0.555491
-0.483276 -0.279987 0.829489
-0.167079 -0.104494 0.98039
0.169214 0.101507 0.980338
0.482664 0.281218 0.829429
0.722647 0.411092 0.555684
0.853416 0.482405 0.197402
0.854664 0.482063 -0.192779
0.725162 0.408774 -0.554115
-0.484555 -0.27326 0.830985
-0.169848 -0.0958271 0.9808
0.172722 0.0919312 0.980671
0.491009 0.261432 0.831001
0.734523 0.391143 0.554512
0.865937 0.46135 0.193158
0.865012 0.461402 -0.197137
0.733163 0.392219 -0.555551
-0.491205 -0.265711 0.829527
-0.171275 -0.0971651 0.98042
0.173172 0.0944991 0.980348
0.490995 0.266323 0.829455
0.732795 0.39266 0.555725
0.864802 0.461673 0.19742
0.865864 0.461634 -0.192806
0.734582 0.391528 -0.554161
-0.490831 -0.26172 0.831016
-0.172034 -0.0917727 0.980807
0.17486 0.0878104 0.98067
0.497068 0.249696 0.831009
0.743606 0.373564 0.554526
0.876705 0.440544 0.193158
0.875886 0.440397 -0.197164
0.742647 0.373893 -0.555589
-0.498223 -0.252233 0.829549
-0.174566 -0.0909849 0.980433
0.176237 0.088657 0.980347
0.498248 0.252467 0.829463
0.742359 0.374234 0.555745
0.875718 0.440612 0.197428
0.876654 0.44079 -0.192824
0.743679 0.373916 -0.554191
-0.496898 -0.249941 0.831037
-0.174149 -0.0876357 0.980812
0.176912 0.0836228 0.980668
0.502882 0.23777 0.831009
0.752314 0.355699 0.554529
0.887012 0.419406 0.193154
0.886267 0.419105 -0.197183
0.751611 0.355496 -0.555611
-0.504649 -0.239071 0.829563
-0.177347 -0.0853677 0.980439
0.178825 0.0833486 0.980344
0.50482 0.239058 0.829463
0.751386 0.355756 0.555748
0.886134 0.419271 0.197428
0.886983 0.419614 -0.192837
0.752401 0.356014 -0.554208
-0.50272 -0.237971 0.831049
-0.17618 -0.0834332 0.980816
0.178869 0.0793858 0.980665
0.508421 0.225707 0.831002
0.760603 0.337623 0.55452
0.896817 0.398014 0.193144
0.896134 0.397567 -0.197192
0.760097 0.33696 -0.555617
-0.510704 -0.225824 0.829569
-0.179879 -0.079855 0.980442
0.181218 0.0780654 0.98034
0.510998 0.225576 0.829456
0.759918 0.337163 0.555739
0.89603 0.397687 0.19742
0.896807 0.398182 -0.192844
0.760706 0.337898 -0.554213
-0.508268 -0.225861 0.831054
-0.178116 -0.0791834 0.980818
0.18072 0.0751202 0.980662
0.513664 0.21356 0.830988
0.768443 0.319412 0.554501
0.906083 0.376448 0.193131
0.905467 0.375825 -0.197192
0.768162 0.318159 -0.55561
-0.516523 -0.212185 0.829567
-0.182352 -0.0740292 0.980442
0.183603 0.0723679 0.980333
0.516954 0.211628 0.829441
0.768016 0.318323 0.555717
0.905391 0.375898 0.197404
0.906092 0.376574 -0.192846
0.768559 0.319645 -0.554207
-0.513519 -0.213666 0.83105
-0.17995 -0.0749073 0.980819
0.182463 0.0708417 0.980657
0.518595 0.20138 0.830967
0.775806 0.301146 0.554469
0.914783 0.354796 0.193111
0.914252 0.353923 -0.197183
0.775852 0.298964 -0.555585
-0.522227 -0.197788 0.829553
-0.184952 -0.0673564 0.980437
0.186165 0.0657093 0.980319
0.522836 0.196757 0.829415
0.775738 0.299082 0.55568
0.914204 0.353938 0.197381
0.91481 0.354873 -0.192841
0.775934 0.301338 -0.554186
-0.51846 -0.201437 0.831037
-0.181679 -0.0706218 0.980819
0.184095 0.0665666 0.980652
0.523205 0.189221 0.830935
0.782674 0.282911 0.554421
0.922891 0.333154 0.193083
0.922473 0.331918 -0.197164
0.783183 0.279289 -0.555538
-0.52797 -0.182053 0.82952
-0.187893 -0.0590615 0.980412
0.189128 0.057256 0.980282
0.528843 0.180224 0.829364
0.78311 0.279324 0.555623
0.922456 0.331856 0.197347
0.922937 0.333175 -0.192826
0.782814 0.283063 -0.554147
-0.52308 -0.189229 0.831011
-0.183298 -0.0663465 0.980816
0.185615 0.0623174 0.980644
0.527486 0.177154 0.830888
0.789031 0.264815 0.554349
0.930383 0.311643 0.193043
0.930114 0.309883 -0.197132
0.79017 0.259025 -0.555461
-0.533918 -0.164173 0.829445
-0.191436 -0.0479784 0.980332
0.192783 0.0457069 0.980176
0.535186 0.160972 0.829255
0.790154 0.258912 0.555537
0.930134 0.309712 0.197302
0.93045 0.311596 -0.192798
0.78918 0.264929 -0.554082
-0.527372 -0.177112 0.83097
-0.184806 -0.0621077 0.980811
0.187021 0.0581249 0.980635
0.531432 0.16527 0.830822
0.794861 0.247001 0.554245
0.937237 0.290421 0.192984
0.937157 0.287916 -0.197082
0.79683 0.23803 -0.555342
-0.540235 -0.143007 0.829274
-0.19592 -0.0322523 0.980089
0.197535 0.0288954 0.97987
0.542086 0.137468 0.829002
0.796889 0.237668 0.555411
0.937221 0.287598 0.197242
0.937323 0.290297 -0.19275
0.795018 0.247079 -0.553983
-0.53133 -0.165177 0.830906
-0.186201 -0.0579384 0.980802
0.188312 0.0540318 0.980622
0.535037 0.153697 0.83073
0.800146 0.229657 0.554097
0.943427 0.269694 0.192901
0.943587 0.266139 -0.197012
0.80317 0.216128 -0.555164
-0.547057 -0.116956 0.828885
-0.201808 -0.0088067 0.979385
0.204001 0.00297267 0.978966
0.549717 0.107513 0.828404
0.803326 0.215382 0.555228
0.943696 0.265638 0.197164
0.943532 0.269486 -0.192675
0.800311 0.229706 -0.553839
-0.534949 -0.153545 0.830815
-0.187482 -0.0538827 0.980789
0.189487 0.0500948 0.980604
0.538295 0.142606 0.830603
0.80487 0.213045 0.553892
0.948931 0.249725 0.192786
0.949398 0.24468 -0.196913
0.809191 0.193096 -0.554908
-0.55441 -0.0838793 0.828006
-0.209744 0.0277093 0.977364
0.213165 -0.0394849 0.976218
0.558055 0.0681761 0.826999
0.809452 0.191828 0.554969
0.949545 0.243988 0.197062
0.94905 0.249445 -0.192563
0.80504 0.21307 -0.553634
-0.538225 -0.142381 0.830687
-0.188651 -0.0499966 0.980771
0.190542 0.046396 0.980582
0.541191 0.13225 0.830435
0.809007 0.197528 0.553616
0.953728 0.23086 0.19263
0.9546 0.223642 -0.196783
0.814891 0.168575 -0.554559
-0.562042 -0.0411515 0.826084
-0.220558 0.0871142 0.971476
0.226494 -0.113724 0.967351
0.566554 0.016291 0.823863
0.81523 0.166739 0.554615
0.954763 0.222811 0.196933
0.953852 0.230533 -0.192409
0.809183 0.197529 -0.553359
-0.541145 -0.131913 0.830519
-0.189704 -0.0463621 0.980746
0.191455 0.0430517 0.980557
0.543686 0.12298 0.83023
0.812518 0.18361 0.553264
0.957793 0.213554 0.192426
0.959215 0.203091 -0.196624
0.820279 0.141769 -0.554116
-0.569187 0.0140266 0.822089
-0.235032 0.18912 0.953411
0.244375 -0.247171 0.93765
0.573733 -0.049931 0.817519
0.820623 0.139563 0.554167
0.959363 0.20224 0.196776
0.957913 0.213205 -0.192212
0.812699 0.183562 -0.553014
-0.543674 -0.122463 0.830314
-0.190627 -0.0431034 0.980716
0.192178 0.040192 0.980537
0.545689 0.115223 0.830028
0.815332 0.171907 0.552885
0.961084 0.198449 0.192187
0.963226 0.183298 -0.196463
0.825358 0.110824 -0.553627
-0.57428 0.0844744 0.814289
-0.25171 0.380344 0.889933
0.258233 -0.458254 0.850482
0.577216 -0.129732 0.80622
0.825631 0.108587 0.553662
0.963344 0.182532 0.1966
0.961199 0.19807 -0.192002
0.815517 0.171752 -0.552661
-0.545722 -0.114425 0.830117
-0.191385 -0.040375 0.980684
0.192619 0.0378505 0.980543
0.547016 0.109207 0.829968
0.817281 0.162951 0.55272
0.963462 0.186661 0.192089
0.96639 0.165979 -0.196319
0.829961 0.0716666 -0.553198
-0.574216 0.176614 0.799427
-0.244309 0.723072 0.646127
-0.242435 0.749203 -0.616377
0.573738 -0.225274 0.787449
0.830154 0.0695642 0.553177
0.966494 0.165277 0.1964
0.963581 0.186168 -0.191973
0.817465 0.162577 -0.552558
-0.547108 -0.108006 0.830065
-0.191913 -0.0382711 0.980665
0.192637 0.0357876 0.980617
0.547249 0.104708 0.830394
0.817691 0.157789 0.55361
0.964039 0.182468 0.193223
0.967554 0.159664 -0.195823
0.833596 0.00601507 -0.552342
-0.549447 0.377659 0.745307
-0.153785 0.964215 0.215961
-0.150598 0.968693 -0.197369
0.536906 -0.447966 0.714884
0.83376 0.00194192 0.552124
0.967807 0.15802 0.195904
0.964224 0.181564 -0.19315
0.817873 0.156976 -0.553572
-0.547428 -0.102983 0.830492
-0.192104 -0.0367085 0.980688
0.191936 0.0326205 0.980865
0.545875 0.095692 0.832384
0.817489 0.143418 0.557803
0.966356 0.164284 0.197909
0.970851 0.140053 -0.194507
0.828629 0.030805 -0.558949
-0.555227 0.0105651 0.831632
-0.195113 0.00388669 0.980773
0.195077 -0.00180956 0.980786
0.555228 -0.0141365 0.831578
0.828641 0.028483 0.559055
0.971048 0.138268 0.194799
0.966598 0.163103 -0.197703
0.817734 0.142279 -0.557735
-0.546191 -0.0940243 0.832367
-0.191443 -0.0339316 0.980917
0.192331 0.0300443 0.98087
0.546691 0.0887466 0.832618
0.818763 0.133175 0.558472
0.968226 0.151902 0.198656
0.972433 0.127738 -0.195084
0.826269 0.054192 -0.560662
-0.550357 -0.00746649 0.834896
-0.192748 -0.000236607 0.981248
0.192975 0.00162247 0.981202
0.55019 0.00345828 0.835032
0.826211 0.0530032 0.560862
0.972561 0.126223 0.195433
0.968514 0.150472 -0.19834
0.819074 0.131993 -0.558297
-0.547003 -0.0874857 0.832546
-0.191661 -0.0316689 0.98095
0.191991 0.028899 0.980971
0.544926 0.0883207 0.83382
0.817115 0.132901 0.560947
0.969807 0.141754 0.198443
0.974572 0.08573 -0.207024
0.816638 -0.00157945 -0.577148
-0.53917 0.0237445 0.841862
-0.188213 0.0119926 0.982055
0.188648 -0.00840573 0.982009
0.537568 -0.0333099 0.842562
0.81629 -0.00451493 0.577624
0.974628 0.083664 0.207606
0.970249 0.139582 -0.197822
0.817986 0.129922 -0.560374
-0.545764 -0.0860586 0.833508
-0.190453 -0.0327718 0.981149
0.0198911 0.0176215 0.999647
0.00257188 0.000343963 0.999997
</DataArray>
<DataArray type="Float64" Name="cell vector length" format="ascii">
0.117372 0.0988395 0.085678 0.068268 0.0493837 0.0837155 0.140251 0.143011 0.139004 0.133628 0.0866141 0.0494424 0.0668928 0.0832629 0.119381 0.125737 0.39104 0.369621 0.346572 0.324375 0.308523 0.326108 0.388362 0.421125 0.415927 0.373783 0.324381 0.308441 0.325046 0.34917 0.389606 0.398029 0.489058 0.469772 0.445495 0.417682 0.390051 0.402603 0.481096 0.527895 0.524761 0.469565 0.401561 0.390109 0.418476 0.447261 0.485345 0.494132 0.513382 0.49347 0.466303 0.431708 0.386742 0.298775 0.170729 0.0368606 0.0345572 0.162425 0.299498 0.38679 0.432268 0.467433 0.507612 0.517861 0.525048 0.504205 0.47364 0.431466 0.371595 0.27885 0.16402 0.0350778 0.0357571 0.155124 0.279243 0.371653 0.431832 0.474328 0.517629 0.5292 0.532165 0.509926 0.475644 0.426603 0.35713 0.261132 0.158707 0.0431143 0.0438443 0.145604 0.261307 0.357188 0.426823 0.476025 0.522989 0.536155 0.537137 0.513604 0.476264 0.422144 0.346669 0.248361 0.154691 0.0538323 0.0514981 0.137734 0.24822 0.346611 0.422214 0.476431 0.526502 0.541053 0.540558 0.516008 0.476429 0.418791 0.339407 0.239496 0.152313 0.06178 0.0569905 0.132395 0.239035 0.339165 0.418701 0.476441 0.528863 0.544452 0.542879 0.517561 0.476385 0.416352 0.334392 0.233418 0.150947 0.0672791 0.0608795 0.129009 0.232703 0.33395 0.416103 0.476272 0.53044 0.546781 0.544434 0.51854 0.476233 0.414571 0.330924 0.229682 0.15042 0.0708561 0.0634505 0.127149 0.228788 0.330302 0.414175 0.476012 0.531483 0.548361 0.545436 0.519105 0.476032 0.413284 0.32852 0.226846 0.149878 0.0732111 0.0651766 0.125708 0.225843 0.327752 0.412758 0.475717 0.532135 0.549397 0.546076 0.519411 0.475805 0.412325 0.326815 0.224851 0.149492 0.074681 0.0662423 0.124695 0.223781 0.325934 0.411691 0.47541 0.53254 0.550077 0.546486 0.519557 0.475567 0.411586 0.325578 0.223425 0.149159 0.0754615 0.0667475 0.123891 0.22231 0.324612 0.410866 0.475106 0.532792 0.550529 0.546737 0.519596 0.475333 0.411013 0.324666 0.222374 0.148852 0.0757791 0.0668618 0.1232 0.221227 0.323637 0.410225 0.474819 0.532943 0.550825 0.54688 0.519569 0.475114 0.410564 0.32398 0.221569 0.14855 0.0757843 0.0667027 0.122562 0.220396 0.322904 0.409725 0.47456 0.53303 0.551014 0.546946 0.519497 0.474913 0.410214 0.323457 0.220931 0.148234 0.0755607 0.0663396 0.121948 0.21974 0.322345 0.409339 0.474331 0.533076 0.551126 0.546946 0.519392 0.474735 0.409955 0.323066 0.220394 0.147858 0.0751326 0.0657933 0.121317 0.219199 0.321928 0.409054 0.474136 0.533088 0.551173 0.546881 0.519252 0.47458 0.409787 0.322809 0.219906 0.147371 0.0744947 0.0650143 0.120545 0.218688 0.321646 0.408873 0.473975 0.533067 0.551156 0.546734 0.519066 0.474443 0.409724 0.322723 0.219582 0.146879 0.0736435 0.0639841 0.119727 0.218312 0.321537 0.408807 0.473846 0.533001 0.551058 0.546467 0.518803 0.474319 0.409798 0.322887 0.219523 0.14641 0.0724809 0.062597 0.118892 0.218178 0.321679 0.408892 0.473746 0.532865 0.550842 0.546019 0.518419 0.474198 0.41006 0.323426 0.219879 0.145996 0.0708483 0.0606747 0.118071 0.218437 0.322201 0.409185 0.47367 0.532617 0.550449 0.5453 0.517843 0.474063 0.410582 0.324521 0.220876 0.145697 0.0685052 0.0579461 0.117325 0.219318 0.323293 0.409764 0.473606 0.532193 0.549791 0.544182 0.516979 0.473892 0.411466 0.326424 0.222847 0.145624 0.0651198 0.0540469 0.116804 0.221166 0.325223 0.41074 0.473535 0.531503 0.548743 0.542482 0.515686 0.473654 0.412861 0.329489 0.226258 0.145977 0.0602923 0.0485965 0.116845 0.224482 0.328363 0.412265 0.473427 0.530413 0.547126 0.539934 0.513761 0.473302 0.414973 0.334198 0.23173 0.147075 0.0536555 0.0415621 0.118107 0.229946 0.333211 0.414539 0.473233 0.528731 0.544681 0.536121 0.510865 0.472705 0.418023 0.34117 0.239995 0.149302 0.0451383 0.0343062 0.121552 0.238342 0.340377 0.417758 0.472811 0.52614 0.541007 0.530186 0.506158 0.471165 0.421694 0.350773 0.251433 0.152556 0.0359403 0.0302614 0.127758 0.250039 0.35018 0.421574 0.471466 0.521853 0.535271 0.518947 0.496028 0.464544 0.421753 0.360072 0.262683 0.152794 0.0345272 0.0338146 0.134071 0.261434 0.359568 0.421719 0.465081 0.512427 0.524359 0.483354 0.45989 0.429817 0.392244 0.342906 0.240058 0.119234 0.085203 0.0856703 0.109069 0.24034 0.342551 0.392241 0.430561 0.47791 0.48942 0.461166 0.438031 0.409432 0.376161 0.342667 0.356361 0.447818 0.4961 0.49117 0.430314 0.355528 0.342613 0.376279 0.410319 0.457108 0.467582 0.42273 0.398552 0.368849 0.33628 0.311856 0.324964 0.399279 0.435839 0.428818 0.378329 0.324253 0.312077 0.336419 0.36969 0.418659 0.429521 0.19771 0.179091 0.155592 0.128188 0.114512 0.138246 0.215301 0.254314 0.249177 0.198899 0.140513 0.115569 0.127822 0.153853 0.197765 0.203508 0.028102 0.0152124 
</DataArray>
<DataArray type="Float64" Name="cell variable 4" format="ascii">
824.796 814.023 807.783 802.637 797.551 814.183 837.565 828.295 824.914 829.931 815.6 797.581 801.859 805.129 827.058 828.956 1134.49 1113.76 1100.47 1093.06 1090.65 1105.34 1144.98 1145.9 1139.66 1125.43 1105.72 1090.72 1092.71 1100.39 1141.82 1143.62 1340.3 1316.73 1301.04 1291.17 1286.61 1297.89 1349.74 1352.87 1347.13 1326.25 1298.19 1286.73 1291.22 1301.3 1350.33 1350.96 1391.07 1363.68 1341.86 1324.4 1310.76 1307.26 1353.84 1352.47 1350.55 1336.75 1307.17 1310.58 1324.37 1342.15 1398.54 1402.15 1402.67 1375.08 1353.39 1337 1324.7 1316.88 1349.61 1332.5 1334.32 1332.07 1316.67 1324.53 1337.03 1353.67 1410.27 1413.82 1406.29 1377.76 1354.78 1337.41 1324.29 1315.67 1346.39 1326.6 1327.77 1324.33 1315.75 1324.31 1337.52 1355.03 1413.09 1417.48 1408.72 1378.98 1354.35 1335.83 1322.32 1313.69 1344.47 1327.02 1324.19 1318.15 1313.94 1322.45 1336 1354.58 1414.5 1419.98 1410.52 1379.74 1353.71 1334.27 1320.52 1311.96 1343.75 1327.6 1321.54 1313.98 1312.27 1320.73 1334.48 1353.95 1415.51 1421.89 1411.91 1380.26 1353.08 1332.94 1319.05 1310.54 1343.54 1328.07 1319.77 1311.26 1310.85 1319.3 1333.18 1353.33 1416.35 1423.4 1412.96 1380.62 1352.55 1331.88 1317.89 1309.4 1343.48 1328.47 1318.7 1309.44 1309.7 1318.17 1332.15 1352.81 1417.04 1424.6 1413.68 1380.77 1352.13 1331.09 1317 1308.46 1343.43 1328.81 1318.07 1308.15 1308.76 1317.28 1331.37 1352.39 1417.53 1425.46 1414.16 1380.8 1351.81 1330.53 1316.33 1307.7 1343.39 1329.05 1317.69 1307.22 1308 1316.62 1330.81 1352.08 1417.89 1426.09 1414.51 1380.76 1351.5 1330.05 1315.77 1307.06 1343.35 1329.19 1317.4 1306.51 1307.36 1316.07 1330.34 1351.77 1418.18 1426.59 1414.74 1380.66 1351.2 1329.64 1315.3 1306.5 1343.3 1329.26 1317.17 1305.92 1306.81 1315.6 1329.93 1351.46 1418.38 1426.95 1414.83 1380.48 1350.91 1329.31 1314.91 1306.02 1343.25 1329.28 1316.96 1305.43 1306.34 1315.22 1329.59 1351.17 1418.51 1427.18 1414.8 1380.25 1350.63 1329.03 1314.59 1305.61 1343.2 1329.27 1316.75 1304.99 1305.93 1314.9 1329.32 1350.89 1418.56 1427.28 1414.63 1379.94 1350.37 1328.83 1314.35 1305.25 1343.15 1329.23 1316.53 1304.57 1305.59 1314.66 1329.12 1350.63 1418.52 1427.23 1414.34 1379.57 1350.11 1328.69 1314.17 1304.96 1343.1 1329.16 1316.29 1304.18 1305.29 1314.49 1328.98 1350.37 1418.38 1427.05 1413.93 1379.13 1349.85 1328.59 1314.06 1304.71 1343.05 1329.06 1315.99 1303.78 1305.04 1314.38 1328.88 1350.11 1418.16 1426.74 1413.39 1378.62 1349.57 1328.53 1314 1304.51 1342.99 1328.9 1315.6 1303.37 1304.83 1314.32 1328.83 1349.83 1417.85 1426.3 1412.71 1378.02 1349.29 1328.52 1314.01 1304.37 1342.92 1328.66 1315.08 1302.94 1304.68 1314.33 1328.83 1349.56 1417.43 1425.7 1411.86 1377.32 1349 1328.58 1314.11 1304.31 1342.86 1328.31 1314.36 1302.5 1304.61 1314.44 1328.9 1349.28 1416.91 1424.93 1410.81 1376.52 1348.74 1328.76 1314.35 1304.35 1342.81 1327.85 1313.44 1302.15 1304.64 1314.68 1329.08 1349.02 1416.26 1423.95 1409.5 1375.59 1348.53 1329.11 1314.77 1304.5 1342.86 1327.34 1312.42 1302.11 1304.82 1315.11 1329.43 1348.8 1415.47 1422.7 1407.84 1374.51 1348.4 1329.71 1315.41 1304.76 1343.13 1326.97 1311.9 1302.86 1305.13 1315.76 1330.01 1348.66 1414.49 1421.09 1405.58 1373.07 1348.23 1330.43 1316.16 1304.89 1343.72 1327.14 1313.83 1305 1305.34 1316.51 1330.7 1348.46 1413.13 1418.86 1401.48 1369.98 1346.55 1329.73 1315.56 1303.53 1344.03 1328.57 1321.28 1308.28 1303.98 1315.86 1329.97 1346.76 1410.04 1414.78 1387.58 1356.49 1333.54 1317.18 1303.65 1292.05 1337.96 1334.83 1333.49 1308.66 1292.03 1303.73 1317.35 1333.78 1396.26 1400.79 1312.47 1281.59 1257.22 1238.29 1222.42 1215.58 1285.09 1362.68 1361.45 1263.65 1215.63 1222.27 1238.28 1257.29 1318.91 1324.9 1247.53 1220.66 1202.19 1190.67 1184.05 1192.79 1255.97 1264.98 1256.79 1225.72 1193.2 1183.98 1190.54 1202.08 1255.91 1259.31 1117.1 1091.38 1071.71 1057.5 1049.01 1054.87 1106.39 1111.94 1101.76 1076.18 1055.15 1049.08 1057.36 1071.7 1122.63 1127.71 792.521 784.324 784.3 790.101 798.53 812.361 852.046 858.745 852.438 832.877 813.661 798.788 789.913 782.693 803.102 798.201 607.678 745.326 
</DataArray>
<DataArray type="Float64" Name="cell variable 5" format="ascii">
0.0100387 0.0100387 0.0100387 0.0100387 0.0100387 0.0100387 0.0100387 0.0100387 0.0100387 0.0100387 0.0100387 0.0100387 0.0100387 0.0100387 0.0100387 0.0100387 0.0100387 0.0100387 0.0100387 0.0100387 0.0100387 0.0100387 0.0100387 0.0100387 0.0100387 0.0100387 0.0100387 0.0100387 0.0100387 0.0100387 0.0100387 0.0100387 0.0100387 0.0100387 0.0100387 0.0100387 0.0100387 0.0100387 0.0100387 0.0100387 0.0100387 0.0100387 0.0100387 0.0100387 0.0100387 0.0100387 0.0100387 0.0100387 0.0151718 0.0140452 0.0122271 0.0104938 0.0100387 0.0100387 0.0100387 0.0100387 0.0100387 0.0100387 0.0100387 0.0100387 0.0104938 0.0122271 0.0140452 0.0151718 0.0171662 0.0156024 0.0130771 0.01067 0.0100387 0.0100387 0.0100387 0.0100387 0.0100387 0.0100387 0.0100387 0.0100387 0.01067 0.0130771 0.0156024 0.0171662 0.0183217 0.0165058 0.0135701 0.0107726 0.0100387 0.0100387 0.0100387 0.0100387 0.0100387 0.0100387 0.0100387 0.0100387 0.0107726 0.0135701 0.0165058 0.0183217 0.0191627 0.0171595 0.0139292 0.0108485 0.0100387 0.0100387 0.0100387 0.0100387 0.0100387 0.0100387 0.0100387 0.0100387 0.0108485 0.0139292 0.0171595 0.0191627 0.0198186 0.0176726 0.0142081 0.0109065 0.0100387 0.0100387 0.0100387 0.0100387 0.0100387 0.0100387 0.0100387 0.0100387 0.0109065 0.0142081 0.0176726 0.0198186 0.0203473 0.0180853 0.0144334 0.0109533 0.0100387 0.0100387 0.0100387 0.0100387 0.0100387 0.0100387 0.0100387 0.0100387 0.0109533 0.0144334 0.0180853 0.0203473 0.0207801 0.0184221 0.0146186 0.0109912 0.0100387 0.0100387 0.0100387 0.0100387 0.0100387 0.0100387 0.0100387 0.0100387 0.0109912 0.0146186 0.0184221 0.0207801 0.0211303 0.0186965 0.014768 0.0110225 0.0100387 0.0100387 0.0100387 0.0100387 0.0100387 0.0100387 0.0100387 0.0100387 0.0110225 0.014768 0.0186965 0.0211303 0.0214114 0.0189173 0.0148885 0.011047 0.0100387 0.0100387 0.0100387 0.0100387 0.0100387 0.0100387 0.0100387 0.0100387 0.011047 0.0148885 0.0189173 0.0214114 0.02163 0.0190869 0.01498 0.0110671 0.0100387 0.0100387 0.0100387 0.0100387 0.0100387 0.0100387 0.0100387 0.0100387 0.0110671 0.01498 0.0190869 0.02163 0.0217906 0.0192118 0.0150491 0.0110805 0.0100387 0.0100387 0.0100387 0.0100387 0.0100387 0.0100387 0.0100387 0.0100387 0.0110805 0.0150491 0.0192118 0.0217906 0.0218977 0.0192944 0.0150937 0.0110916 0.0100387 0.0100387 0.0100387 0.0100387 0.0100387 0.0100387 0.0100387 0.0100387 0.0110916 0.0150937 0.0192944 0.0218977 0.021949 0.0193367 0.015116 0.0110961 0.0100387 0.0100387 0.0100387 0.0100387 0.0100387 0.0100387 0.0100387 0.0100387 0.0110961 0.015116 0.0193367 0.021949 0.021949 0.0193367 0.015116 0.0110961 0.0100387 0.0100387 0.0100387 0.0100387 0.0100387 0.0100387 0.0100387 0.0100387 0.0110961 0.015116 0.0193367 0.021949 0.0218977 0.0192944 0.0150937 0.0110916 0.0100387 0.0100387 0.0100387 0.0100387 0.0100387 0.0100387 0.0100387 0.0100387 0.0110916 0.0150937 0.0192944 0.0218977 0.0217906 0.0192118 0.0150491 0.0110805 0.0100387 0.0100387 0.0100387 0.0100387 0.0100387 0.0100387 0.0100387 0.0100387 0.0110805 0.0150491 0.0192118 0.0217906 0.02163 0.0190869 0.01498 0.0110671 0.0100387 0.0100387 0.0100387 0.0100387 0.0100387 0.0100387 0.0100387 0.0100387 0.0110671 0.01498 0.0190869 0.02163 0.0214114 0.0189173 0.0148885 0.011047 0.0100387 0.0100387 0.0100387 0.0100387 0.0100387 0.0100387 0.0100387 0.0100387 0.011047 0.0148885 0.0189173 0.0214114 0.0211303 0.0186965 0.014768 0.0110225 0.0100387 0.0100387 0.0100387 0.0100387 0.0100387 0.0100387 0.0100387 0.0100387 0.0110225 0.014768 0.0186965 0.0211303 0.0207801 0.0184221 0.0146186 0.0109912 0.0100387 0.0100387 0.0100387 0.0100387 0.0100387 0.0100387 0.0100387 0.0100387 0.0109912 0.0146186 0.0184221 0.0207801 0.0203473 0.0180853 0.0144334 0.0109533 0.0100387 0.0100387 0.0100387 0.0100387 0.0100387 0.0100387 0.0100387 0.0100387 0.0109533 0.0144334 0.0180853 0.0203473 0.0198186 0.0176726 0.0142081 0.0109065 0.0100387 0.0100387 0.0100387 0.0100387 0.0100387 0.0100387 0.0100387 0.0100387 0.0109065 0.0142081 0.0176726 0.0198186 0.0191627 0.0171595 0.0139292 0.0108485 0.0100387 0.0100387 0.0100387 0.0100387 0.0100387 0.0100387 0.0100387 0.0100387 0.0108485 0.0139292 0.0171595 0.0191627 0.0183217 0.0165058 0.0135701 0.0107726 0.0100387 0.0100387 0.0100387 0.0100387 0.0100387 0.0100387 0.0100387 0.0100387 0.0107726 0.0135701 0.0165058 0.0183217 0.0171662 0.0156024 0.0130771 0.01067 0.0100387 0.0100387 0.0100387 0.0100387 0.0100387 0.0100387 0.0100387 0.0100387 0.01067 0.0130771 0.0156024 0.0171662 0.0151718 0.0140452 0.0122271 0.0104938 0.0100387 0.0100387 0.0100387 0.0100387 0.0100387 0.0100387 0.0100387 0.0100387 0.0104938 0.0122271 0.0140452 0.0151718 0.0100387 0.0100387 0.0100387 0.0100387 0.0100387 0.0100387 0.0100387 0.0100387 0.0100387 0.0100387 0.0100387 0.0100387 0.0100387 0.0100387 0.0100387 0.0100387 0.0100387 0.0100387 0.0100387 0.0100387 0.0100387 0.0100387 0.0100387 0.0100387 0.0100387 0.0100387 0.0100387 0.0100387 0.0100387 0.0100387 0.0100387 0.0100387 0.0100387 0.0100387 0.0100387 0.0100387 0.0100387 0.0100387 0.0100387 0.0100387 0.0100387 0.0100387 0.0100387 0.0100387 0.0100387 0.0100387 0.0100387 0.0100387 0.0100387 0.0100387 
</DataArray>
<DataArray type="Float64" Name="cell variable 6" format="ascii">
1 1 1 1 1 1 1 1 1 1 1 1 1 1 1 1 1 1 1 1 1 1 1 1 1 1 1 1 1 1 1 1 1 1 1 1 1 1 1 1 1 1 1 1 1 1 1 1 1 1 1 1 1 1 1 1 1 1 1 1 1 1 1 1 1 1 1 1 1 1 1 1 1 1 1 1 1 1 1 1 1 1 1 1 1 1 1 1 1 1 1 1 1 1 1 1 1 1 1 1 1 1 1 1 1 1 1 1 1 1 1 1 1 1 1 1 1 1 1 1 1 1 1 1 1 1 1 1 1 1 1 1 1 1 1 1 1 1 1 1 1 1 1 1 1 1 1 1 1 1 1 1 1 1 1 1 1 1 1 1 1 1 1 1 1 1 1 1 1 1 1 1 1 1 1 1 1 1 1 1 1 1 1 1 1 1 1 1 1 1 1 1 1 1 1 1 1 1 1 1 1 1 1 1 1 1 1 1 1 1 1 1 1 1 1 1 1 1 1 1 1 1 1 1 1 1 1 1 1 1 1 1 1 1 1 1 1 1 1 1 1 1 1 1 1 1 1 1 1 1 1 1 1 1 1 1 1 1 1 1 1 1 1 1 1 1 1 1 1 1 1 1 1 1 1 1 1 1 1 1 1 1 1 1 1 1 1 1 1 1 1 1 1 1 1 1 1 1 1 1 1 1 1 1 1 1 1 1 1 1 1 1 1 1 1 1 1 1 1 1 1 1 1 1 1 1 1 1 1 1 1 1 1 1 1 1 1 1 1 1 1 1 1 1 1 1 1 1 1 1 1 1 1 1 1 1 1 1 1 1 1 1 1 1 1 1 1 1 1 1 1 1 1 1 1 1 1 1 1 1 1 1 1 1 1 1 1 1 1 1 1 1 1 1 1 1 1 1 1 1 1 1 1 1 1 1 1 1 1 1 1 1 1 1 1 1 1 1 1 1 1 1 1 1 1 1 1 1 1 1 1 1 1 1 1 1 1 1 1 1 1 1 1 1 1 1 1 1 1 1 1 1 1 1 1 1 1 1 1 1 1 1 1 1 1 1 1 1 1 1 1 1 1 1 1 1 1 1 1 1 1 1 1 1 1 1 1 1 1 1 1 1 1 1 1 1 1 1 1 1 1 1 1 1 1 1 1 1 1 1 1 1 1 1 
</DataArray>
<DataArray type="Float64" Name="cell variable 7" format="ascii">
0 0 0 0 0 0 0 0 0 0 0 0 0 0 0 0 0 0 0 0 0 0 0 0 0 0 0 0 0 0 0 0 0 0 0 0 0 0 0 0 0 0 0 0 0 0 0 0 0 0 0 0 0 0 0 0 0 0 0 0 0 0 0 0 0 0 0 0 0 0 0 0 0 0 0 0 0 0 0 0 0 0 0 0 0 0 0 0 0 0 0 0 0 0 0 0 0 0 0 0 0 0 0 0 0 0 0 0 0 0 0 0 0 0 0 0 0 0 0 0 0 0 0 0 0 0 0 0 0 0 0 0 0 0 0 0 0 0 0 0 0 0 0 0 0 0 0 0 0 0 0 0 0 0 0 0 0 0 0 0 0 0 0 0 0 0 0 0 0 0 0 0 0 0 0 0 0 0 0 0 0 0 0 0 0 0 0 0 0 0 0 0 0 0 0 0 0 0 0 0 0 0 0 0 0 0 0 0 0 0 0 0 0 0 0 0 0 0 0 0 0 0 0 0 0 0 0 0 0 0 0 0 0 0 0 0 0 0 0 0 0 0 0 0 0 0 0 0 0 0 0 0 0 0 0 0 0 0 0 0 0 0 0 0 0 0 0 0 0 0 0 0 0 0 0 0 0 0 0 0 0 0 0 0 0 0 0 0 0 0 0 0 0 0 0 0 0 0 0 0 0 0 0 0 0 0 0 0 0 0 0 0 0 0 0 0 0 0 0 0 0 0 0 0 0 0 0 0 0 0 0 0 0 0 0 0 0 0 0 0 0 0 0 0 0 0 0 0 0 0 0 0 0 0 0 0 0 0 0 0 0 0 0 0 0 0 0 0 0 0 0 0 0 0 0 0 0 0 0 0 0 0 0 0 0 0 0 0 0 0 0 0 0 0 0 0 0 0 0 0 0 0 0 0 0 0 0 0 0 0 0 0 0 0 0 0 0 0 0 0 0 0 0 0 0 0 0 0 0 0 0 0 0 0 0 0 0 0 0 0 0 0 0 0 0 0 0 0 0 0 0 0 0 0 0 0 0 0 0 0 0 0 0 0 0 0 0 0 0 0 0 0 0 0 0 0 0 0 0 0 0 0 0 0 0 0 0 0 0 0 0 0 0 0 0 0 0 0 0 0 0 0 0 0 0 0 0 0 0 0 0 0 1 1 
</DataArray>
<DataArray type="Float64" Name="cell variable 8" format="ascii">
11.25 33.75 56.25 78.75 101.25 123.75 146.25 168.75 191.25 213.75 236.25 258.75 281.25 303.75 326.25 348.75 11.25 33.75 56.25 78.75 101.25 123.75 146.25 168.75 191.25 213.75 236.25 258.75 281.25 303.75 326.25 348.75 11.25 33.75 56.25 78.75 101.25 123.75 146.25 168.75 191.25 213.75 236.25 258.75 281.25 303.75 326.25 348.75 11.25 33.75 56.25 78.75 101.25 123.75 146.25 168.75 191.25 213.75 236.25 258.75 281.25 303.75 326.25 348.75 11.25 33.75 56.25 78.75 101.25 123.75 146.25 168.75 191.25 213.75 236.25 258.75 281.25 303.75 326.25 348.75 11.25 33.75 56.25 78.75 101.25 123.75 146.25 168.75 191.25 213.75 236.25 258.75 281.25 303.75 326.25 348.75 11.25 33.75 56.25 78.75 101.25 123.75 146.25 168.75 191.25 213.75 236.25 258.75 281.25 303.75 326.25 348.75 11.25 33.75 56.25 78.75 101.25 123.75 146.25 168.75 191.25 213.75 236.25 258.75 281.25 303.75 326.25 348.75 11.25 33.75 56.25 78.75 101.25 123.75 146.25 168.75 191.25 213.75 236.25 258.75 281.25 303.75 326.25 348.75 11.25 33.75 56.25 78.75 101.25 123.75 146.25 168.75 191.25 213.75 236.25 258.75 281.25 303.75 326.25 348.75 11.25 33.75 56.25 78.75 101.25 123.75 146.25 168.75 191.25 213.75 236.25 258.75 281.25 303.75 326.25 348.75 11.25 33.75 56.25 78.75 101.25 123.75 146.25 168.75 191.25 213.75 236.25 258.75 281.25 303.75 326.25 348.75 11.25 33.75 56.25 78.75 101.25 123.75 146.25 168.75 191.25 213.75 236.25 258.75 281.25 303.75 326.25 348.75 11.25 33.75 56.25 78.75 101.25 123.75 146.25 168.75 191.25 213.75 236.25 258.75 281.25 303.75 326.25 348.75 11.25 33.75 56.25 78.75 101.25 123.75 146.25 168.75 191.25 213.75 236.25 258.75 281.25 303.75 326.25 348.75 11.25 33.75 56.25 78.75 101.25 123.75 146.25 168.75 191.25 213.75 236.25 258.75 281.25 303.75 326.25 348.75 11.25 33.75 56.25 78.75 101.25 123.75 146.25 168.75 191.25 213.75 236.25 258.75 281.25 303.75 326.25 348.75 11.25 33.75 56.25 78.75 101.25 123.75 146.25 168.75 191.25 213.75 236.25 258.75 281.25 303.75 326.25 348.75 11.25 33.75 56.25 78.75 101.25 123.75 146.25 168.75 191.25 213.75 236.25 258.75 281.25 303.75 326.25 348.75 11.25 33.75 56.25 78.75 101.25 123.75 146.25 168.75 191.25 213.75 236.25 258.75 281.25 303.75 326.25 348.75 11.25 33.75 56.25 78.75 101.25 123.75 146.25 168.75 191.25 213.75 236.25 258.75 281.25 303.75 326.25 348.75 11.25 33.75 56.25 78.75 101.25 123.75 146.25 168.75 191.25 213.75 236.25 258.75 281.25 303.75 326.25 348.75 11.25 33.75 56.25 78.75 101.25 123.75 146.25 168.75 191.25 213.75 236.25 258.75 281.25 303.75 326.25 348.75 11.25 33.75 56.25 78.75 101.25 123.75 146.25 168.75 191.25 213.75 236.25 258.75 281.25 303.75 326.25 348.75 11.25 33.75 56.25 78.75 101.25 123.75 146.25 168.75 191.25 213.75 236.25 258.75 281.25 303.75 326.25 348.75 11.25 33.75 56.25 78.75 101.25 123.75 146.25 168.75 191.25 213.75 236.25 258.75 281.25 303.75 326.25 348.75 11.25 33.75 56.25 78.75 101.25 123.75 146.25 168.75 191.25 213.75 236.25 258.75 281.25 303.75 326.25 348.75 11.25 33.75 56.25 78.75 101.25 123.75 146.25 168.75 191.25 213.75 236.25 258.75 281.25 303.75 326.25 348.75 11.25 33.75 56.25 78.75 101.25 123.75 146.25 168.75 191.25 213.75 236.25 258.75 281.25 303.75 326.25 348.75 11.25 33.75 56.25 78.75 101.25 123.75 146.25 168.75 191.25 213.75 236.25 258.75 281.25 303.75 326.25 348.75 11.25 33.75 56.25 78.75 101.25 123.75 146.25 168.75 191.25 213.75 236.25 258.75 281.25 303.75 326.25 348.75 11.25 33.75 56.25 78.75 101.25 123.75 146.25 168.75 191.25 213.75 236.25 258.75 281.25 303.75 326.25 348.75 0 0 
</DataArray>
</CellData>
</Piece>
</UnstructuredGrid>
</VTKFile>
