<VTKFile type="UnstructuredGrid" version="0.1">
<UnstructuredGrid>
<Piece  NumberOfPoints="    2080" NumberOfCells="     514">
<Points>
<DataArray type="Float64" NumberOfComponents="3" format="ascii">
-71.4617 1002.13 1.00912
-67.5076 1005.39 26.7756
-53.4133 979.853 28.9235
-57.7293 976.343 1.05699
-66.6185 1006.1 29.5284
-55.2444 1015.26 51.3562
-40.1851 990.463 55.2483
-52.5242 980.571 31.6763
-53.5966 1016.57 53.4589
-36.5239 1030.19 68.0015
-20.0512 1006.5 73.0517
-38.5372 991.781 57.351
-34.3707 1031.91 69.1351
-14.2732 1047.96 74.1991
3.88186 1025.55 79.6573
-17.898 1008.22 74.1853
-11.9513 1049.82 74.1947
8.04865 1065.96 69.0521
27.8628 1044.87 74.1084
6.20372 1027.41 79.6529
10.1797 1067.7 67.9156
27.005 1081.59 53.3756
48.1972 1061.74 57.2904
29.9939 1046.61 72.9719
28.6229 1082.95 51.2751
39.779 1092.45 29.4911
61.8302 1073.47 31.6013
49.815 1063.1 55.1898
40.6484 1093.2 26.7378
44.553 1096.59 0.967436
66.8881 1077.91 0.9762
62.6996 1074.22 28.8481
44.5531 1096.59 -2.01613
40.6512 1093.2 -27.7869
62.7051 1074.21 -29.8709
66.8883 1077.91 -2.00737
39.7829 1092.44 -30.5389
28.6382 1082.91 -52.3184
49.8441 1063.06 -56.1862
61.8368 1073.46 -32.6229
27.0227 1081.55 -54.4174
10.2168 1067.61 -68.9433
30.046 1046.52 -73.9543
48.2286 1061.69 -58.2852
8.0875 1065.87 -70.0783
-11.8999 1049.72 -75.2068
6.2717 1027.3 -80.6224
27.9168 1044.78 -75.0894
-14.2206 1047.85 -75.2097
-34.3112 1031.79 -70.1318
-17.8185 1008.1 -75.1405
3.95101 1025.44 -80.6254
-36.4626 1030.08 -68.9965
-53.5054 1016.45 -54.4312
-38.4485 991.677 -58.2861
-19.9699 1006.39 -74.0052
-55.1532 1015.13 -52.3259
-66.5324 1006.01 -30.492
-52.4683 980.496 -32.5631
-40.0962 990.361 -56.1808
-67.4264 1005.3 -27.7367
-71.4582 1002.13 -1.97329
-57.7258 976.339 -1.92542
-53.3622 979.784 -29.8078
-55.8868 973.486 1.13512
-51.5708 976.995 29.0017
-32.0991 950.891 29.6298
-36.5232 947.325 1.16341
-38.2953 987.639 55.4628
-18.5419 961.687 56.6057
-31.1627 951.642 32.5189
-50.6344 977.746 31.8908
-18.0769 1003.74 73.3699
2.09485 978.01 74.8793
-16.8096 963.066 58.8121
-36.5629 989.017 57.6692
5.96586 1022.86 80.0324
26.6392 997.408 81.6989
4.3577 979.805 76.0698
-15.814 1005.53 74.5604
30.0653 1042.27 74.4847
51.2236 1017.12 76.042
29.0796 999.357 81.6958
8.40624 1024.81 80.0292
50.5013 1059.23 57.6124
71.903 1034.5 58.8115
53.4564 1018.95 74.8511
32.2981 1044.1 73.2939
64.2038 1071.05 31.8181
85.649 1046.68 32.4557
73.5903 1035.94 56.6057
52.1886 1060.67 55.4066
69.2954 1075.53 1.05272
90.749 1051.28 1.07114
86.5519 1047.47 29.5622
65.1068 1071.84 28.9246
65.1125 1071.83 -29.944
86.56 1047.44 -30.5364
90.7493 1051.28 -2.06213
69.2957 1075.53 -2.08054
52.2185 1060.63 -56.398
73.6306 1035.89 -57.5347
85.6588 1046.64 -33.4271
64.2113 1071.03 -32.8347
32.3515 1044.02 -74.2705
53.5151 1018.86 -75.7704
71.9461 1034.45 -59.738
50.5341 1059.19 -58.6013
8.47535 1024.71 -80.9932
29.1507 999.254 -82.6044
51.284 1017.03 -76.9601
30.1204 1042.18 -75.4602
-15.7334 1005.42 -75.5103
4.43544 979.697 -76.9662
26.7115 997.304 -82.6063
6.0361 1022.76 -80.9951
-36.4743 988.915 -58.5992
-16.7341 962.971 -59.6972
2.17315 977.902 -75.7743
-17.9957 1003.63 -74.3184
-50.5806 977.673 -32.7716
-31.1284 951.571 -33.3478
-18.4684 961.594 -57.4872
-38.2086 987.538 -56.3892
-51.5212 976.927 -29.8785
-55.8847 973.482 -1.99613
-36.5211 947.321 -1.96784
-32.0689 950.825 -30.4547
-34.3157 944.462 1.18565
-29.8916 948.028 29.652
-9.47788 922.519 29.7764
-13.9356 918.955 1.20988
-28.9408 948.784 32.5772
-16.3201 958.83 56.6639
4.18587 933.309 56.8705
-8.5271 923.275 32.7015
-14.5612 960.217 58.8984
4.34321 975.162 74.9656
25.0009 949.603 75.2183
5.94475 934.696 59.105
6.64152 976.968 76.1718
28.923 994.571 81.8009
49.7716 968.943 82.0534
27.2993 951.409 76.4244
31.4014 996.532 81.7977
53.5455 1014.29 76.1439
74.5767 988.59 76.3623
52.25 970.903 82.0502
55.7972 1016.15 74.9389
74.2438 1031.7 58.8993
95.1309 1006.3 59.0579
76.8284 990.443 75.1573
75.9305 1033.18 56.6659
87.9892 1043.92 32.5159
108.713 1018.89 32.645
96.8176 1007.78 56.8246
88.8885 1044.74 29.5855
93.0856 1048.55 1.09442
113.764 1023.66 1.12957
109.613 1019.71 29.7146
93.0863 1048.55 -2.07936
88.897 1044.71 -30.5537
109.631 1019.67 -30.6192
113.765 1023.65 -2.0442
88.0001 1043.88 -33.4813
75.9719 1033.13 -57.5889
96.8612 1007.71 -57.7013
108.734 1018.84 -33.5469
74.2873 1031.65 -59.8198
55.8563 1016.06 -75.8522
76.8833 990.355 -76.0236
95.1765 1006.23 -59.9323
53.6057 1014.21 -77.0563
31.4725 996.428 -82.7006
52.3148 970.798 -82.9052
74.6328 988.499 -77.2277
28.9949 994.466 -82.7026
6.7188 976.859 -77.0625
27.3681 951.301 -77.2678
49.8372 968.836 -82.9073
4.42048 975.054 -75.8553
-14.4868 960.123 -59.7782
6.00772 934.604 -59.9399
25.0698 949.496 -76.0606
-16.2481 958.737 -57.5402
-28.9081 948.714 -33.4008
-8.50504 923.206 -33.4787
4.24643 933.219 -57.7019
-29.8623 947.963 -30.4714
-34.3145 944.459 -1.98452
-13.9344 918.951 -1.96029
-9.45927 922.455 -30.5493
-11.6829 916.127 1.21665
-7.22513 919.692 29.7831
12.9749 894.261 29.823
8.44404 890.759 1.23844
-6.26266 920.442 32.7148
6.45032 930.475 56.8838
26.8393 904.876 56.9214
13.9374 895.011 32.7547
8.22903 931.851 59.1206
27.2852 946.758 75.2338
47.9252 920.922 75.2414
28.618 906.251 59.1582
29.6078 948.547 76.4383
52.0801 966.08 82.0672
72.9878 939.973 82.036
50.2478 922.711 76.4458
54.5846 968.021 82.0609
76.9112 985.708 76.373
98.1041 959.317 76.3399
75.4923 941.914 82.0296
79.1948 987.549 75.157
97.4972 1003.41 59.0576
119.254 976.392 59.0004
100.388 961.158 75.1239
99.2006 1004.87 56.8198
111.096 1015.98 32.6402
133.351 988.515 32.638
120.958 977.858 56.7625
112.004 1016.8 29.7155
116.155 1020.74 1.13047
138.593 993.129 1.16532
134.258 989.332 29.7133
116.156 1020.74 -2.03753
112.022 1016.76 -30.6125
134.276 989.298 -30.5485
138.594 993.127 -2.00269
111.117 1015.93 -33.5361
99.2443 1004.81 -57.6906
120.994 977.791 -57.5905
133.371 988.477 -33.472
97.5424 1003.34 -59.9271
79.2492 987.46 -76.0184
100.437 961.066 -75.9414
119.292 976.322 -59.827
76.9667 985.617 -77.2333
54.6487 967.916 -82.9109
75.5507 941.807 -82.8356
98.1547 959.223 -77.1564
52.1449 965.973 -82.9161
29.6759 948.439 -77.2766
50.3089 922.604 -77.2408
73.0469 939.865 -82.8408
27.3531 946.651 -76.0712
8.29103 931.759 -59.9505
28.6721 906.161 -59.9458
47.9862 920.816 -76.0353
6.50986 930.385 -57.7103
-6.24161 920.373 -33.4871
13.9525 894.943 -33.4842
26.891 904.787 -57.7056
-7.20697 919.627 -30.5511
-11.6821 916.124 -1.96206
8.44483 890.755 -1.94027
12.9872 894.197 -30.5482
10.657 887.922 1.24158
15.1879 891.424 29.8262
34.8921 865.718 29.8521
30.2968 862.295 1.26353
16.1643 892.159 32.7586
29.0662 902.024 56.9253
48.942 876.101 56.9517
35.8686 866.454 32.7845
30.8688 903.374 59.1612
50.176 918.045 75.2444
70.2904 891.812 75.2683
50.7445 877.451 59.1876
52.5274 919.801 76.4466
75.2675 937.063 82.0367
95.6554 910.47 82.0566
72.6417 893.569 76.4705
77.8036 938.968 82.0284
100.415 956.371 76.3388
121.11 929.371 76.3504
98.1916 912.375 82.0483
102.741 958.159 75.1237
121.608 973.393 59.0002
142.734 945.857 59.033
123.435 931.159 75.1354
123.364 974.801 56.7632
135.758 985.459 32.6387
157.266 957.465 32.6665
144.491 947.265 56.7961
136.699 986.242 29.7159
141.034 990.039 1.16791
162.684 961.884 1.19396
158.207 958.248 29.7436
141.034 990.037 -1.99876
136.717 986.208 -30.5445
158.222 958.217 -30.5208
162.685 961.882 -1.9727
135.777 985.422 -33.467
123.4 974.735 -57.5855
144.522 947.201 -57.5682
157.283 957.43 -33.4433
121.644 973.323 -59.8217
102.79 958.067 -75.9361
123.482 931.068 -75.8994
142.767 945.79 -59.8044
100.466 956.278 -77.1502
77.8616 938.862 -82.8294
98.246 912.27 -82.8028
121.157 929.278 -77.1135
75.326 936.956 -82.8366
52.5879 919.695 -77.2365
72.6976 893.464 -77.2158
95.7104 910.364 -82.8101
50.2362 917.939 -76.0335
30.9222 903.284 -59.9439
50.7928 877.363 -59.9267
70.3459 891.709 -76.0128
29.1173 901.936 -57.7047
16.1788 892.091 -33.4833
35.8796 866.387 -33.4655
48.9879 876.015 -57.6875
15.1999 891.36 -30.5465
10.6575 887.919 -1.9386
30.2973 862.292 -1.91665
34.9006 865.656 -30.5287
32.4511 859.425 1.26623
37.0465 862.848 29.8548
56.1835 836.802 29.8797
51.5277 833.468 1.28805
38.036 863.566 32.7878
51.1093 873.214 56.955
70.4136 846.923 56.9868
57.173 837.52 32.8127
52.935 874.532 59.1913
72.4808 888.893 75.272
92.0311 862.248 75.3139
72.2392 848.241 59.2232
74.8617 890.61 76.4743
97.8754 907.511 82.0604
117.721 880.45 82.1064
94.412 863.964 76.5161
100.445 909.371 82.0513
123.363 926.367 76.3535
143.533 898.848 76.3895
120.29 882.309 82.0973
125.727 928.101 75.1393
145.026 942.798 59.0369
165.557 914.785 59.0776
145.897 900.582 75.1753
146.824 944.154 56.8004
159.6 954.354 32.6708
180.447 925.912 32.6996
167.356 916.141 56.841
160.567 955.104 29.7468
165.045 958.739 1.19714
186.009 930.14 1.22138
181.415 926.663 29.7757
165.045 958.738 -1.97033
160.582 955.073 -30.5184
181.427 926.634 -30.499
186.01 930.138 -1.94609
159.616 954.32 -33.4421
146.855 944.091 -57.567
167.384 916.08 -57.5599
180.461 925.881 -33.4226
145.058 942.732 -59.8029
125.773 928.01 -75.8979
145.94 900.493 -75.8871
165.587 914.721 -59.7958
123.41 926.274 -77.1113
100.499 909.265 -82.8006
120.341 882.206 -82.801
143.577 898.757 -77.1005
97.9299 907.406 -82.8088
74.9171 890.506 -77.2146
94.4638 863.863 -77.2121
117.772 880.347 -82.8092
72.5359 888.79 -76.0116
52.9829 874.445 -59.9256
72.2836 848.155 -59.9139
92.0826 862.147 -76.0091
51.1549 873.128 -57.6859
38.0466 863.499 -33.4639
57.1812 837.455 -33.4453
70.4556 846.839 -57.6742
37.0548 862.785 -30.5266
32.4515 859.422 -1.9145
51.5281 833.464 -1.89268
56.1894 836.741 -30.508
53.6178 830.559 1.29068
58.2736 833.893 29.8823
76.8187 807.487 29.9066
72.1029 804.247 1.31221
59.2759 834.592 32.816
72.5165 843.994 56.9902
91.2309 817.324 57.0228
77.821 808.186 32.8403
74.3656 845.278 59.2276
94.1576 859.285 75.3183
113.127 832.229 75.3633
93.0801 818.608 59.2603
96.5693 860.957 76.5213
119.878 877.443 82.1116
139.157 849.933 82.1618
115.539 833.9 76.5663
122.482 879.252 82.1021
145.725 895.79 76.3943
165.335 867.795 76.4357
141.762 851.742 82.1523
148.126 897.471 75.1799
167.786 911.673 59.0821
187.721 883.202 59.1194
167.736 869.476 75.2213
169.62 912.979 56.8453
182.711 922.751 32.7039
202.917 893.886 32.7313
189.554 884.508 56.8826
183.701 923.47 29.7788
188.296 926.948 1.22447
208.604 897.934 1.24767
203.908 894.605 29.8062
188.297 926.946 -1.94393
183.714 923.442 -30.4968
203.919 894.579 -30.478
208.605 897.933 -1.92073
182.725 922.72 -33.4217
169.648 912.919 -57.559
189.58 884.45 -57.5505
202.929 893.856 -33.4029
167.815 911.61 -59.7953
148.169 897.382 -75.8865
167.776 869.389 -75.8828
187.747 883.141 -59.7868
145.769 895.699 -77.1002
122.533 879.149 -82.8007
141.809 851.641 -82.8065
165.376 867.707 -77.0965
119.929 877.339 -82.8094
96.6208 860.855 -77.2123
115.588 833.801 -77.2138
139.205 849.832 -82.8153
94.2086 859.184 -76.0087
74.4096 845.193 -59.9135
93.1213 818.524 -59.9032
113.175 832.13 -76.0102
72.5582 843.911 -57.6728
59.2838 834.527 -33.4439
77.827 808.121 -33.4252
91.2699 817.242 -57.6625
58.2794 833.832 -30.5058
53.618 830.555 -1.8905
72.1032 804.244 -1.86898
76.8226 807.427 -30.4871
74.1267 801.298 1.31477
78.8425 804.538 29.9091
96.7856 777.766 29.9324
92.0092 774.625 1.33585
79.8577 805.216 32.8435
93.2676 814.354 57.0261
111.383 787.305 57.0568
97.8008 778.444 32.8668
95.1408 815.601 59.2646
115.188 829.222 75.3676
133.565 801.763 75.4091
113.256 788.552 59.2953
117.632 830.846 76.5714
141.25 846.878 82.1669
159.943 818.937 82.2131
136.009 803.387 76.613
143.89 848.633 82.1572
167.463 864.687 76.4406
186.486 836.243 76.4799
162.583 820.693 82.2033
169.899 866.314 75.2257
189.884 880.04 59.1238
209.209 851.127 59.1567
188.922 837.87 75.265
191.75 881.299 56.8864
205.112 890.677 32.7352
224.678 861.397 32.7609
211.075 852.386 56.9194
206.122 891.367 29.8091
210.819 894.696 1.25059
230.475 865.278 1.27293
225.688 862.087 29.8348
210.82 894.694 -1.91861
206.133 891.34 -30.4759
225.698 862.063 -30.4571
230.475 865.277 -1.89628
205.124 890.647 -33.4017
191.775 881.241 -57.5494
211.098 852.33 -57.5382
224.688 861.369 -33.3829
189.911 879.979 -59.7862
169.939 866.228 -75.8822
188.959 837.786 -75.8779
209.234 851.069 -59.7751
167.504 864.599 -77.0965
143.937 848.533 -82.8065
162.627 820.595 -82.8097
186.524 836.158 -77.0922
141.298 846.778 -82.8156
117.68 830.747 -77.2141
136.054 803.291 -77.2133
159.987 818.839 -82.8188
115.236 829.124 -76.0098
95.1817 815.518 -59.9028
113.294 788.47 -59.8917
133.61 801.668 -76.0089
93.3063 814.273 -57.661
79.8634 805.152 -33.4237
97.8048 778.381 -33.405
111.419 787.225 -57.6499
78.8463 804.478 -30.4849
74.1269 801.295 -1.86681
92.0094 774.622 -1.84573
96.7876 777.707 -30.4662
93.9658 771.636 1.33831
98.7422 774.777 29.9349
116.077 747.642 29.9572
111.24 744.604 1.35884
99.7704 775.434 32.8698
113.353 784.294 57.0598
130.862 756.871 57.088
117.106 748.299 32.8922
115.25 785.502 59.2993
135.559 798.714 75.4131
153.332 770.863 75.4496
132.759 758.079 59.3275
138.035 800.287 76.6176
161.969 815.837 82.2177
180.058 787.483 82.2578
155.807 772.436 76.6541
164.644 817.537 82.2078
188.548 833.087 76.4843
206.961 804.216 76.5193
182.734 789.182 82.2479
191.018 834.66 75.2688
211.305 847.917 59.1606
230.006 818.579 59.1896
209.432 805.788 75.3038
213.2 849.13 56.9228
226.803 858.141 32.7643
245.721 828.455 32.7883
231.901 819.792 56.9518
227.831 858.804 29.8376
232.617 861.995 1.27567
251.617 832.179 1.29718
246.749 829.119 29.8616
232.618 861.993 -1.89417
227.84 858.779 -30.455
246.758 829.095 -30.4361
251.617 832.178 -1.87266
226.813 858.113 -33.3815
213.223 849.074 -57.5368
231.922 819.739 -57.5233
245.731 828.429 -33.3626
211.33 847.858 -59.7741
191.055 834.576 -75.877
209.466 805.708 -75.8699
230.029 818.523 -59.7607
188.585 833.002 -77.0919
164.688 817.44 -82.8094
182.775 789.088 -82.8079
206.996 804.133 -77.0848
162.013 815.739 -82.8187
138.079 800.191 -77.2132
155.849 772.343 -77.2086
180.099 787.388 -82.8172
135.603 798.619 -76.0082
115.288 785.42 -59.891
132.795 757.999 -59.8785
153.373 770.77 -76.0036
113.389 784.214 -57.6483
99.7742 775.371 -33.4034
117.108 748.237 -33.3848
130.895 756.793 -57.6358
98.7441 774.718 -30.464
93.9658 771.633 -1.84358
111.24 744.601 -1.82305
116.078 747.584 -30.4454
113.129 741.575 1.36121
117.966 744.613 29.9596
134.688 717.122 29.9808
129.79 714.189 1.38114
119.008 745.248 32.8949
132.763 753.82 57.0908
149.658 726.031 57.1163
135.73 717.757 32.9162
134.685 754.988 59.3309
155.258 767.772 75.453
172.415 739.541 75.4848
151.58 727.199 59.3565
157.766 769.292 76.6581
182.016 784.339 82.2618
199.487 755.587 82.2962
174.923 741.062 76.6898
184.727 785.98 82.2518
208.955 801.014 76.5232
226.743 771.734 76.5538
202.197 757.229 82.2862
211.459 802.531 75.3072
232.033 815.322 59.193
250.095 785.576 59.2189
229.246 773.251 75.3378
233.955 816.49 56.9548
247.775 825.154 32.7913
266.038 795.071 32.8138
252.016 786.744 56.9807
248.819 825.791 29.8642
253.687 828.852 1.29976
272.024 798.645 1.32046
267.082 795.708 29.8866
253.687 828.85 -1.87056
248.827 825.768 -30.434
267.09 795.686 -30.4152
272.024 798.644 -1.84985
247.785 825.128 -33.361
233.975 816.437 -57.5217
252.035 786.693 -57.5066
266.047 795.046 -33.3422
232.055 815.266 -59.7594
211.492 802.451 -75.8687
229.277 773.173 -75.8587
250.115 785.523 -59.7444
208.99 800.932 -77.0841
184.768 785.886 -82.8072
202.235 757.137 -82.8014
226.774 771.654 -77.0742
182.057 784.244 -82.8167
157.807 769.199 -77.2081
174.961 740.971 -77.2
199.525 755.495 -82.8109
155.299 767.679 -76.0026
134.721 754.908 -59.8775
151.613 727.121 -59.8636
172.453 739.451 -75.9945
132.797 753.742 -57.6341
119.009 745.186 -33.3831
135.73 717.696 -33.3646
149.69 725.955 -57.6202
117.966 744.555 -30.4433
113.129 741.572 -1.82094
129.79 714.186 -1.80101
134.687 717.065 -30.4249
131.61 711.121 1.3834
136.509 714.053 29.9831
152.612 686.212 30.0031
147.653 683.388 1.40266
137.563 714.666 32.9187
151.492 722.941 57.1189
167.766 694.794 57.142
153.666 686.825 32.9388
153.438 724.066 59.3595
174.272 736.409 75.4878
190.805 707.808 75.5154
169.712 695.92 59.3826
176.812 737.875 76.6932
201.376 752.4 82.2996
218.215 723.265 82.3292
193.344 709.274 76.7208
204.121 753.983 82.2895
228.666 768.488 76.5571
245.813 738.814 76.5841
220.96 724.848 82.3191
231.202 769.949 75.3408
252.051 782.275 59.2219
269.461 752.135 59.2454
248.349 740.276 75.3678
253.998 783.399 56.9834
268.02 791.725 32.8165
285.618 761.255 32.8377
271.408 753.258 57.0069
269.078 792.337 29.8891
274.02 795.274 1.32288
291.686 764.685 1.34279
286.676 761.867 29.9102
274.02 795.273 -1.84777
269.086 792.315 -30.4131
286.683 761.846 -30.3946
291.686 764.684 -1.82786
268.028 791.7 -33.3404
254.017 783.348 -57.5048
271.426 753.209 -57.4889
285.626 761.231 -33.3219
252.071 782.222 -59.7429
231.233 769.872 -75.8573
248.378 740.202 -75.8452
269.48 752.083 -59.727
228.698 768.409 -77.0731
204.158 753.892 -82.8004
220.995 724.76 -82.7912
245.842 738.738 -77.061
201.413 752.308 -82.81
176.85 737.784 -77.1991
193.38 709.186 -77.1883
218.25 723.176 -82.8008
174.31 736.319 -75.9933
153.47 723.989 -59.8623
169.743 695.844 -59.8473
190.84 707.721 -75.9825
151.523 722.864 -57.6184
137.563 714.605 -33.3629
153.665 686.765 -33.3446
167.795 694.72 -57.6034
136.507 713.997 -30.4228
131.61 711.118 -1.79892
147.653 683.385 -1.77966
152.609 686.157 -30.4045
149.404 680.282 1.40482
154.363 683.106 30.0053
169.843 654.926 30.0244
164.824 652.212 1.42338
155.431 683.695 32.9412
169.531 691.665 57.1443
185.178 663.172 57.1655
170.91 655.515 32.9603
171.5 692.748 59.3853
192.593 704.636 75.5181
208.492 675.679 75.5424
187.148 664.255 59.4065
195.163 706.047 76.7238
220.033 720.037 82.3322
236.231 690.535 82.3578
211.063 677.09 76.7481
222.812 721.56 82.322
247.666 735.526 76.587
264.161 705.477 76.6109
239.01 692.058 82.3476
250.233 736.932 75.3704
271.345 748.791 59.2481
288.093 718.271 59.2696
266.728 706.882 75.3943
273.316 749.87 57.0094
287.525 757.867 32.8402
304.45 727.022 32.8601
290.064 719.35 57.0309
288.598 758.454 29.9125
293.607 761.272 1.34507
310.595 730.311 1.3642
305.522 727.609 29.9325
293.608 761.271 -1.82582
288.605 758.433 -30.3925
305.528 727.589 -30.3744
310.595 730.31 -1.80669
287.533 757.843 -33.32
273.333 749.821 -57.4871
290.08 719.304 -57.4708
304.457 726.999 -33.3019
271.363 748.739 -59.7254
250.261 736.858 -75.8436
266.754 706.811 -75.8299
288.109 718.222 -59.7091
247.695 735.45 -77.0597
222.847 721.472 -82.7899
239.041 691.973 -82.7782
264.187 705.404 -77.046
220.068 719.949 -82.7996
195.198 705.959 -77.1871
211.095 677.005 -77.1744
236.263 690.45 -82.7879
192.628 704.549 -75.981
171.53 692.672 -59.8458
187.176 664.182 -59.8304
208.524 675.595 -75.9683
169.559 691.59 -57.6016
155.428 683.636 -33.3428
170.907 655.457 -33.325
185.204 663.1 -57.5861
154.36 683.051 -30.4024
149.404 680.279 -1.77763
164.824 652.209 -1.75907
169.838 654.872 -30.3847
166.506 649.068 1.42544
171.525 651.783 30.0265
186.376 623.273 30.0447
181.299 620.672 1.44326
172.605 652.348 32.9625
186.873 660.005 57.1677
201.886 631.178 57.1871
187.455 623.839 32.9807
188.865 661.045 59.4089
210.209 672.469 75.5448
225.467 643.169 75.5663
203.879 632.218 59.4284
212.81 673.823 76.7507
237.978 687.268 82.3604
253.524 657.412 82.3828
228.068 644.523 76.7721
240.789 688.729 82.3502
265.941 702.148 76.6135
281.773 671.739 76.6348
256.335 658.874 82.3726
268.538 703.497 75.3967
289.903 714.886 59.272
305.978 684.002 59.2919
284.37 673.087 75.418
291.897 715.921 57.0332
306.283 723.593 32.8624
322.525 692.386 32.8813
307.973 685.037 57.0531
307.368 724.156 29.9347
312.441 726.857 1.36636
328.742 695.535 1.38468
323.61 692.949 29.9535
312.441 726.856 -1.80469
307.374 724.135 -30.3724
323.616 692.929 -30.3547
328.742 695.534 -1.78637
306.29 723.57 -33.3
291.913 715.874 -57.4689
307.987 684.993 -57.4525
322.531 692.364 -33.2823
289.919 714.837 -59.7074
268.563 703.426 -75.8282
284.393 673.019 -75.8135
305.993 683.955 -59.691
265.967 702.076 -77.0445
240.821 688.645 -82.7767
256.364 658.793 -82.7634
281.797 671.668 -77.0298
238.01 687.183 -82.7865
212.842 673.738 -77.1729
228.097 644.441 -77.159
253.552 657.331 -82.7732
210.241 672.385 -75.9667
188.893 660.972 -59.8288
203.904 632.147 -59.813
225.497 643.088 -75.9528
186.898 659.933 -57.5843
172.601 652.29 -33.3232
187.449 623.783 -33.3059
201.91 631.109 -57.5686
171.52 651.729 -30.3827
166.506 649.066 -1.7571
181.298 620.669 -1.73928
186.368 623.221 -30.3654
182.91 617.493 1.44522
187.987 620.094 30.0466
202.202 591.268 30.0639
197.069 588.781 1.46229
189.079 620.635 32.9827
203.51 627.975 57.1892
217.883 598.826 57.2071
203.294 591.809 32.9999
205.525 628.97 59.4305
227.113 639.921 75.5685
241.721 610.292 75.5876
219.898 599.821 59.4485
229.743 641.218 76.7744
255.199 654.107 82.3851
270.084 623.915 82.4049
244.351 611.588 76.7936
258.041 655.507 82.3749
283.48 668.371 76.6371
298.64 637.617 76.6562
272.926 625.314 82.3947
286.105 669.663 75.4202
307.713 680.577 59.2941
323.106 649.345 59.3125
301.266 638.908 75.4393
309.73 681.568 57.0552
324.282 688.917 32.8834
339.833 657.361 32.9013
325.123 650.336 57.0736
325.379 689.455 29.9556
330.512 692.042 1.38672
346.119 660.372 1.40425
340.93 657.9 29.9734
330.512 692.041 -1.78443
325.385 689.436 -30.3527
340.936 657.881 -30.3356
346.119 660.371 -1.76691
324.288 688.895 -33.2805
309.744 681.524 -57.4506
325.136 650.294 -57.4343
339.839 657.34 -33.2634
307.728 680.531 -59.6892
286.128 669.595 -75.8117
301.287 638.843 -75.7964
323.12 649.3 -59.6729
283.503 668.302 -77.0282
258.07 655.426 -82.7618
272.952 625.237 -82.7474
298.662 637.55 -77.0128
255.227 654.026 -82.7716
229.772 641.137 -77.1574
244.378 611.51 -77.1426
270.11 623.837 -82.7572
227.142 639.841 -75.9511
205.55 628.9 -59.8114
219.921 599.753 -59.7956
241.748 610.214 -75.9363
203.534 627.906 -57.5668
189.073 620.58 -33.3041
203.287 591.755 -33.2874
217.904 598.759 -57.5511
187.98 620.042 -30.3635
182.91 617.49 -1.73738
197.069 588.778 -1.72031
202.194 591.217 -30.3468
198.61 585.567 1.46415
203.743 588.054 30.0657
217.317 558.923 30.082
212.13 556.551 1.48046
204.847 588.571 33.0018
219.435 595.588 57.209
233.161 566.13 57.2255
218.421 559.439 33.0182
221.472 596.538 59.4504
243.295 607.009 75.5896
257.247 577.064 75.6067
235.198 567.08 59.467
245.953 608.247 76.7956
271.685 620.573 82.4069
285.902 590.058 82.4244
259.904 578.302 76.8127
274.558 621.91 82.3967
300.272 634.213 76.6582
314.752 603.129 76.6754
288.774 591.394 82.4142
302.925 635.446 75.4413
324.765 645.883 59.3144
339.468 614.318 59.3315
317.405 604.362 75.4585
326.804 646.83 57.0756
341.514 653.854 32.9032
356.366 621.964 32.9201
341.506 615.264 57.0926
342.623 654.369 29.9753
347.811 656.841 1.40617
362.717 624.836 1.4229
357.475 622.479 29.9922
347.811 656.84 -1.76504
342.628 654.35 -30.3338
357.48 622.461 -30.3172
362.717 624.835 -1.74832
341.52 653.833 -33.2616
326.816 646.787 -57.4325
341.517 615.224 -57.4165
356.372 621.944 -33.245
324.779 645.838 -59.6711
302.946 635.381 -75.7946
317.424 604.3 -75.7789
339.48 614.275 -59.6551
300.293 634.146 -77.0111
274.584 621.833 -82.7457
288.797 591.321 -82.7305
314.771 603.065 -76.9954
271.711 620.496 -82.7555
245.979 608.169 -77.141
259.928 578.228 -77.1257
285.925 589.983 -82.7403
243.322 606.932 -75.9346
221.495 596.47 -59.7939
235.218 567.014 -59.7783
257.271 576.99 -75.9193
219.457 595.521 -57.5493
204.839 588.517 -33.2856
218.411 559.387 -33.2695
233.18 566.065 -57.5337
203.734 588.004 -30.345
198.61 585.565 -1.71848
212.13 556.549 -1.70217
217.307 558.874 -30.3288
213.6 553.305 1.48222
218.787 555.676 30.0838
231.714 526.251 30.0992
226.475 523.997 1.49774
219.901 556.168 33.0199
234.642 562.858 57.2273
247.714 533.103 57.2425
232.829 526.743 33.0353
236.699 563.763 59.4687
258.748 573.747 75.6085
272.036 543.501 75.6237
249.771 534.008 59.4839
261.432 574.926 76.8145
287.43 586.682 82.4262
300.97 555.859 82.4415
274.72 544.68 76.8297
290.331 587.955 82.416
316.308 599.689 76.6772
330.1 568.293 76.6926
303.871 557.132 82.4313
318.988 600.864 75.4603
341.05 610.82 59.3333
355.054 578.937 59.3491
332.779 569.467 75.4757
343.109 611.721 57.0945
357.969 618.421 32.9219
372.116 586.212 32.9377
357.112 579.839 57.1102
359.089 618.911 29.994
364.331 621.269 1.42471
378.528 588.944 1.44058
373.236 586.702 30.0098
364.331 621.268 -1.74652
359.094 618.893 -30.3154
373.241 586.684 -30.2996
378.528 588.943 -1.73065
357.975 618.401 -33.2433
343.12 611.681 -57.4147
357.122 579.8 -57.3989
372.121 586.192 -33.2274
341.062 610.777 -59.6533
319.006 600.802 -75.7771
332.796 569.408 -75.7612
355.065 578.896 -59.6376
316.327 599.626 -76.9937
290.354 587.881 -82.7287
303.892 557.062 -82.713
330.117 568.232 -76.9777
287.453 586.608 -82.7386
261.456 574.852 -77.124
274.741 544.609 -77.1083
300.991 555.788 -82.7228
258.771 573.674 -75.9176
236.719 563.698 -59.7766
249.79 533.946 -59.7612
272.057 543.43 -75.902
234.661 562.794 -57.5319
219.892 556.116 -33.2678
232.817 526.694 -33.2523
247.731 533.042 -57.5165
218.776 555.628 -30.3271
213.599 553.302 -1.70041
226.475 523.994 -1.68489
231.702 526.205 -30.3116
227.873 520.719 1.49941
233.111 522.973 30.1009
245.387 493.268 30.1152
240.098 491.132 1.51408
234.237 523.44 33.0369
249.122 529.8 57.2441
261.535 499.761 57.2579
246.512 493.735 33.0513
251.199 530.659 59.4855
273.463 540.151 75.6253
286.081 509.617 75.6386
263.612 500.62 59.4993
276.173 541.271 76.8313
302.423 552.45 82.4431
315.281 521.334 82.4563
288.791 510.736 76.8446
305.352 553.658 82.4329
331.58 564.819 76.6942
344.676 533.125 76.7078
318.209 522.542 82.4461
334.285 565.935 75.4773
356.559 575.405 59.3508
369.857 543.221 59.3654
347.381 534.24 75.491
358.637 576.261 57.1119
373.64 582.634 32.9394
387.075 550.12 32.9544
371.935 544.077 57.1265
374.771 583.099 30.0115
380.063 585.342 1.4423
393.545 552.711 1.45745
388.205 550.585 30.0265
380.063 585.341 -1.72893
374.776 583.082 -30.2979
388.21 550.569 -30.2826
393.545 552.71 -1.71378
373.646 582.615 -33.2257
358.647 576.223 -57.3972
371.944 544.04 -57.3818
387.079 550.101 -33.2105
356.57 575.364 -59.6358
334.301 565.876 -75.7595
347.396 534.185 -75.7434
369.867 543.182 -59.6205
331.597 564.759 -76.976
305.372 553.589 -82.7112
318.227 522.476 -82.695
344.691 533.067 -76.9599
302.443 552.379 -82.7211
276.194 541.2 -77.1066
288.81 510.669 -77.0907
315.299 521.267 -82.7048
273.484 540.081 -75.9003
251.217 530.597 -59.7594
263.628 500.561 -59.7443
286.1 509.55 -75.8844
249.139 529.739 -57.5148
234.225 523.39 -33.2506
246.499 493.688 -33.2358
261.55 499.703 -57.4997
233.099 522.927 -30.3099
227.872 520.716 -1.68321
240.097 491.129 -1.66855
245.372 493.224 -30.2951
241.423 487.823 1.51564
246.711 489.959 30.1168
258.329 459.987 30.1302
252.993 457.97 1.52941
247.847 490.401 33.0528
262.87 496.427 57.2594
274.619 466.119 57.2718
259.464 460.428 33.0662
264.965 497.24 59.5007
287.435 506.237 75.64
299.377 475.429 75.6513
276.714 466.932 59.5131
290.168 507.296 76.846
316.658 517.893 82.4577
328.827 486.5 82.4687
302.111 476.488 76.8573
319.613 519.037 82.4475
346.08 529.62 76.7092
358.474 497.643 76.7209
331.782 487.644 82.4585
348.808 530.676 75.4924
371.284 539.656 59.3668
383.87 507.186 59.3801
361.203 498.7 75.5042
373.38 540.467 57.1281
388.52 546.509 32.956
401.236 513.706 32.97
385.966 507.997 57.1414
389.661 546.95 30.0281
395.001 549.076 1.45907
407.762 516.155 1.47338
402.377 514.146 30.0421
395.001 549.075 -1.71212
389.665 546.933 -30.281
402.381 514.131 -30.2664
407.762 516.154 -1.69781
388.525 546.491 -33.2088
373.389 540.43 -57.3802
385.974 507.962 -57.3652
401.24 513.688 -33.1942
371.294 539.618 -59.6187
348.823 530.62 -75.7416
361.216 498.647 -75.7254
383.879 507.15 -59.6037
346.094 529.563 -76.9581
319.63 518.971 -82.6932
331.797 487.582 -82.6764
358.487 497.59 -76.9418
316.676 517.827 -82.703
290.187 507.229 -77.0889
302.127 476.426 -77.0728
328.843 486.437 -82.6863
287.453 506.17 -75.8827
264.981 497.181 -59.7426
276.728 466.876 -59.7277
299.393 475.367 -75.8666
262.885 496.369 -57.498
247.833 490.354 -33.2342
259.449 460.384 -33.2201
274.631 466.064 -57.4832
246.697 489.915 -30.2935
241.422 487.821 -1.66695
252.993 457.967 -1.65317
258.313 459.945 -30.2795
254.245 454.632 1.53086
259.58 456.649 30.1316
270.535 426.422 30.1439
265.156 424.525 1.54375
260.725 457.065 33.0675
275.88 462.756 57.2731
286.959 432.192 57.2839
271.68 426.838 33.0798
277.992 463.522 59.5143
300.656 472.019 75.6525
311.917 440.954 75.6616
289.071 432.958 59.5251
303.412 473.018 76.8584
330.129 483.03 82.4698
341.603 451.375 82.4783
314.673 441.952 76.8676
333.108 484.109 82.4596
359.8 494.108 76.7221
371.487 461.867 76.7317
344.582 452.454 82.4681
362.551 495.104 75.5055
385.219 503.591 59.3814
397.087 470.852 59.3932
374.239 462.863 75.5151
387.332 504.356 57.1428
402.602 510.064 32.9714
414.594 476.987 32.9842
399.201 471.616 57.1547
403.752 510.48 30.0436
409.137 512.488 1.47488
421.173 479.291 1.48821
415.744 477.402 30.0564
409.138 512.487 -1.69624
403.756 510.464 -30.2649
415.748 477.387 -30.2511
421.173 479.29 -1.68292
402.606 510.047 -33.1926
387.34 504.321 -57.3636
399.208 471.584 -57.3489
414.598 476.97 -33.1788
385.227 503.555 -59.602
362.564 495.052 -75.7236
374.25 462.814 -75.707
397.095 470.817 -59.5874
359.813 494.055 -76.9399
333.123 484.047 -82.6746
344.596 452.396 -82.6571
371.499 461.817 -76.9234
330.144 482.968 -82.6844
303.428 472.956 -77.0709
314.688 441.894 -77.0543
341.617 451.317 -82.667
300.672 471.957 -75.8648
278.006 463.467 -59.726
289.083 432.906 -59.7114
311.931 440.896 -75.8482
275.892 462.702 -57.4816
260.71 457.021 -33.2185
271.664 426.796 -33.2052
286.969 432.141 -57.467
259.564 456.607 -30.278
254.244 454.63 -1.65167
265.155 424.523 -1.63878
270.518 426.383 -30.2646
266.333 421.16 1.54509
271.713 423.057 30.1452
282.001 392.588 30.1564
276.579 390.811 1.55703
272.867 423.447 33.081
288.145 428.801 57.2851
298.55 397.995 57.2942
283.155 392.979 33.0922
290.274 429.521 59.5261
313.12 437.516 75.6626
323.696 406.207 75.6692
300.679 398.714 59.5352
315.898 438.454 76.8684
342.828 447.877 82.4791
353.603 415.978 82.4847
326.474 407.145 76.875
345.83 448.891 82.469
372.735 458.303 76.7326
383.71 425.814 76.7398
356.605 416.991 82.4746
375.507 459.239 75.5162
398.356 467.228 59.3943
409.502 434.236 59.4046
386.482 426.75 75.5234
400.486 467.946 57.1559
415.879 473.316 32.9855
427.143 439.981 32.9972
411.632 434.954 57.1661
417.038 473.706 30.0578
422.467 475.595 1.48958
433.773 442.137 1.50207
428.302 440.371 30.0695
422.468 475.594 -1.68143
417.042 473.691 -30.2496
428.305 440.356 -30.2365
433.773 442.136 -1.66894
415.883 473.3 -33.1773
400.493 467.913 -57.3473
411.638 434.923 -57.3329
427.147 439.965 -33.1641
398.364 467.194 -59.5856
375.518 459.19 -75.7053
386.492 426.704 -75.6881
409.509 434.204 -59.5712
372.746 458.253 -76.9214
345.843 448.833 -82.6552
356.617 416.938 -82.6366
383.72 425.768 -76.9042
342.842 447.819 -82.665
315.912 438.396 -77.0524
326.486 407.091 -77.0351
353.615 415.924 -82.6465
313.134 437.458 -75.8465
290.286 429.469 -59.7096
300.689 398.666 -59.6951
323.708 406.154 -75.8292
288.156 428.75 -57.4654
272.85 423.406 -33.2036
283.137 392.94 -33.1911
298.558 397.948 -57.4509
271.696 423.018 -30.2632
266.332 421.158 -1.63736
276.578 390.809 -1.62541
281.982 392.552 -30.2506
277.683 387.42 1.55825
283.104 389.197 30.1576
292.721 358.499 30.1676
287.259 356.842 1.56922
284.267 389.562 33.0932
299.662 394.578 57.2952
309.387 363.543 57.3024
293.883 358.865 33.1032
301.806 395.251 59.5359
324.823 402.744 75.6699
334.709 371.207 75.6734
311.532 364.216 59.543
327.621 403.621 76.8754
354.751 412.453 82.4852
364.822 380.326 82.4872
337.506 372.084 76.879
357.774 413.401 82.4751
384.879 422.224 76.7404
395.136 389.505 76.7447
367.845 381.274 82.4772
387.671 423.099 75.5243
410.691 430.586 59.4054
421.11 397.359 59.4138
397.928 390.38 75.5286
412.836 431.256 57.1672
428.347 436.283 32.9983
438.878 402.705 33.0088
423.255 398.03 57.1756
429.515 436.646 30.0708
434.986 438.412 1.50331
445.557 404.707 1.51492
440.046 403.068 30.0813
434.986 438.411 -1.66752
429.518 436.632 -30.235
440.049 403.054 -30.2224
445.557 404.707 -1.6559
428.351 436.267 -33.1625
412.843 431.225 -57.3313
423.261 398.001 -57.3169
438.882 402.689 -33.1499
410.698 430.553 -59.5694
387.681 423.054 -75.6863
397.937 390.338 -75.668
421.116 397.329 -59.5549
384.888 422.178 -76.9021
357.786 413.348 -82.6345
367.855 381.225 -82.6143
395.145 389.462 -76.8839
354.762 412.4 -82.6444
327.633 403.567 -77.033
337.516 372.035 -77.0145
364.832 380.277 -82.6241
324.835 402.69 -75.8274
301.816 395.203 -59.6933
311.54 364.172 -59.6787
334.719 371.158 -75.8089
299.67 394.531 -57.4494
284.249 389.524 -33.1895
293.864 358.829 -33.1777
309.394 363.5 -57.4348
283.086 389.161 -30.2493
277.682 387.418 -1.62408
287.258 356.84 -1.61311
292.7 358.466 -30.2374
288.288 353.426 1.57031
293.75 355.083 30.1687
302.69 324.168 30.1774
297.192 322.631 1.58028
294.92 355.423 33.104
310.424 360.102 57.3032
319.467 328.851 57.308
303.861 324.508 33.1127
312.583 360.728 59.5434
335.76 367.718 75.6738
344.951 335.969 75.6735
321.626 329.477 59.5482
338.576 368.535 76.879
365.891 376.777 82.4873
375.254 344.439 82.485
347.767 336.786 76.8788
368.935 377.659 82.4774
396.226 385.891 76.7449
405.761 352.961 76.7458
378.297 345.321 82.4751
399.037 386.704 75.5292
422.218 393.684 59.4143
431.906 360.241 59.4205
408.572 353.774 75.5301
424.379 394.306 57.1765
440.002 398.981 33.0096
449.797 365.175 33.0188
434.067 360.863 57.1826
441.178 399.317 30.0824
446.689 400.957 1.51603
456.523 367.019 1.52673
450.973 365.512 30.0916
446.689 400.956 -1.65454
441.181 399.303 -30.2211
450.976 365.498 -30.2089
456.524 367.018 -1.64384
440.005 398.966 -33.1483
424.384 394.277 -57.3153
434.072 360.836 -57.3004
449.801 365.16 -33.1362
422.224 393.654 -59.553
399.045 386.663 -75.6661
408.58 353.736 -75.6462
431.912 360.213 -59.5381
396.234 385.848 -76.8816
368.944 377.611 -82.6121
378.306 345.277 -82.5893
405.769 352.921 -76.8617
365.901 376.728 -82.6218
338.586 368.486 -77.0123
347.776 336.742 -76.9919
375.263 344.395 -82.5991
335.77 367.67 -75.8069
312.591 360.684 -59.6767
321.633 329.438 -59.6618
344.959 335.925 -75.7866
310.431 360.059 -57.4333
294.9 355.388 -33.1762
303.84 324.476 -33.165
319.472 328.813 -57.4184
293.729 355.05 -30.2362
288.287 353.424 -1.61187
297.191 322.629 -1.60189
302.669 324.138 -30.225
298.146 319.191 1.58122
303.644 320.728 30.1784
311.906 289.607 30.1856
306.372 288.188 1.59014
304.822 321.043 33.1133
320.428 325.386 57.3086
328.785 293.934 57.3107
313.084 289.922 33.1205
322.6 325.966 59.5482
345.925 332.458 75.6735
354.419 300.511 75.6686
330.957 294.514 59.5503
348.759 333.214 76.8784
376.246 340.868 82.4846
384.897 308.338 82.4768
357.252 301.268 76.8735
379.307 341.685 82.4747
406.771 349.324 76.7454
415.582 316.203 76.742
387.958 309.155 82.4669
409.6 350.076 75.5302
432.934 356.543 59.4207
441.888 322.903 59.424
418.41 316.955 75.5268
435.108 357.116 57.1832
450.839 361.428 33.0194
459.896 327.41 33.027
444.062 323.476 57.1866
452.023 361.736 30.0925
457.573 363.243 1.52767
466.669 329.085 1.53746
461.08 327.718 30.1001
457.573 363.243 -1.64252
452.026 361.723 -30.2076
461.084 327.705 -30.1958
466.669 329.084 -1.63273
450.842 361.413 -33.1345
435.113 357.089 -57.2987
444.067 323.451 -57.2829
459.9 327.395 -33.1227
432.939 356.515 -59.5361
409.607 350.038 -75.6442
418.417 316.921 -75.6218
441.893 322.877 -59.5203
406.779 349.285 -76.8592
379.316 341.641 -82.5868
387.966 309.116 -82.5606
415.588 316.168 -76.8369
376.254 340.824 -82.5965
348.767 333.171 -76.9894
357.26 301.229 -76.9664
384.904 308.299 -82.5703
345.934 332.415 -75.7845
322.607 325.928 -59.6597
330.963 294.479 -59.644
354.426 300.473 -75.7616
320.433 325.348 -57.4168
304.801 321.012 -33.1635
313.062 289.894 -33.153
328.789 293.9 -57.4012
303.622 320.699 -30.2239
298.144 319.189 -1.60074
306.371 288.187 -1.59182
311.883 289.581 -30.2134
307.251 284.726 1.59094
312.784 286.145 30.1864
320.363 254.827 30.1922
314.798 253.524 1.59877
313.969 286.435 33.1208
329.67 290.447 57.311
337.338 258.803 57.3099
321.549 255.117 33.1266
331.855 290.981 59.5498
355.317 296.979 75.6681
363.11 264.851 75.6576
339.523 259.338 59.5487
358.165 297.676 76.8724
385.81 304.746 82.4757
393.746 272.046 82.4611
365.959 265.549 76.8618
388.888 305.498 82.466
416.512 312.546 76.741
424.594 279.257 76.7322
396.825 272.798 82.4514
419.357 313.236 75.5265
442.834 319.184 59.4237
451.052 285.367 59.4234
427.439 279.947 75.5177
445.022 319.707 57.1868
460.856 323.64 33.0273
469.175 289.423 33.0331
453.24 285.89 57.1865
462.048 323.919 30.1009
467.637 325.286 1.53823
475.994 290.918 1.54706
470.367 289.701 30.1067
467.637 325.285 -1.63144
462.051 323.906 -30.1945
470.37 289.688 -30.1828
475.994 290.917 -1.6226
460.86 323.626 -33.1209
445.027 319.682 -57.2811
453.244 285.867 -57.2636
469.179 289.408 -33.1092
442.839 319.158 -59.518
419.363 313.202 -75.6195
427.445 279.917 -75.5938
451.057 285.343 -59.5004
416.518 312.511 -76.834
388.896 305.46 -82.5576
396.831 272.764 -82.5266
424.6 279.226 -76.8083
385.817 304.708 -82.5673
358.173 297.638 -76.9634
365.966 265.516 -76.9368
393.753 272.012 -82.5363
355.324 296.941 -75.7592
331.86 290.947 -59.6416
339.528 259.309 -59.6248
363.117 264.819 -75.7326
329.674 290.414 -57.3996
313.947 286.407 -33.1514
321.525 255.093 -33.1415
337.342 258.775 -57.3828
312.761 286.119 -30.2123
307.249 284.724 -1.59075
314.796 253.523 -1.58292
320.34 254.805 -30.2024
315.6 250.04 1.5994
321.166 251.343 30.1928
328.062 219.837 30.1968
322.465 218.648 1.6061
322.357 251.609 33.1266
338.147 255.295 57.3099
345.126 223.472 57.3052
329.253 220.103 33.1306
340.343 255.785 59.5476
363.931 261.299 75.6565
371.023 229.006 75.6394
347.321 223.962 59.543
366.793 261.938 76.8599
394.58 268.435 82.4592
401.8 235.586 82.4365
373.886 229.646 76.8428
397.674 269.123 82.4497
425.444 275.583 76.7306
432.796 242.151 76.7154
404.894 236.274 82.427
428.304 276.211 75.5168
451.917 281.631 59.4225
459.396 247.657 59.4171
435.656 242.779 75.5017
454.118 282.1 57.1863
470.053 285.633 33.0329
477.632 251.229 33.0366
461.597 248.127 57.1809
471.252 285.88 30.1073
476.879 287.097 1.54763
484.497 252.529 1.55545
478.831 251.476 30.111
476.88 287.096 -1.62133
471.256 285.867 -30.1816
478.835 251.463 -30.1698
484.497 252.528 -1.61351
470.057 285.619 -33.1072
454.122 282.077 -57.2615
461.602 248.106 -57.241
477.637 251.215 -33.0955
451.922 281.607 -59.4977
428.31 276.181 -75.5912
435.663 242.752 -75.5614
459.401 247.636 -59.4773
425.45 275.552 -76.8049
397.681 269.09 -82.5232
404.901 236.245 -82.4863
432.803 242.124 -76.7751
394.587 268.402 -82.5327
366.8 261.906 -76.9333
373.892 229.619 -76.9023
401.807 235.557 -82.4958
363.937 261.267 -75.7299
340.348 255.757 -59.6221
347.326 223.939 -59.6039
371.029 228.98 -75.6989
338.15 255.268 -57.3812
322.334 251.586 -33.1399
329.23 220.084 -33.1305
345.128 223.45 -57.3629
321.142 251.321 -30.2014
315.599 250.039 -1.58193
322.464 218.647 -1.57523
328.038 219.819 -30.192
323.192 215.143 1.60656
328.788 216.332 30.1973
335.002 184.643 30.1993
329.378 183.565 1.61212
329.986 216.574 33.1303
345.858 219.944 57.3048
352.146 187.95 57.2965
336.199 184.885 33.1322
348.064 220.391 59.5413
371.766 225.435 75.6377
378.155 192.994 75.6141
354.352 188.397 59.5329
374.641 226.019 76.8401
402.555 231.959 82.4338
409.057 198.985 82.4024
381.031 193.577 76.8165
405.663 232.585 82.4245
433.565 238.462 76.7129
440.185 204.918 76.6908
412.164 199.611 82.3931
436.439 239.027 75.5
460.179 243.906 59.4154
466.917 209.798 59.4025
443.059 205.484 75.4778
462.392 244.32 57.1801
478.428 247.421 33.0358
485.265 212.839 33.0366
469.13 210.212 57.1672
479.634 247.633 30.1113
485.3 248.686 1.55579
492.176 213.924 1.56252
486.472 213.051 30.1122
485.3 248.686 -1.61224
479.638 247.621 -30.1686
486.477 213.039 -30.1562
492.176 213.924 -1.60551
478.432 247.408 -33.0931
462.398 244.299 -57.2387
469.137 210.194 -57.2131
485.27 212.826 -33.0808
460.185 243.884 -59.4741
436.446 239.001 -75.5582
443.067 205.461 -75.5237
466.924 209.779 -59.4485
433.572 238.435 -76.7711
405.67 232.556 -82.4823
412.172 199.587 -82.4391
440.192 204.895 -76.7367
402.562 231.931 -82.4917
374.647 225.993 -76.8982
381.038 193.556 -76.8628
409.065 198.961 -82.4484
371.772 225.41 -75.6959
348.069 220.369 -59.6008
354.357 188.382 -59.5809
378.163 192.973 -75.6605
345.861 219.922 -57.3612
329.962 216.556 -33.1288
336.176 184.873 -33.1194
352.15 187.935 -57.3413
328.765 216.315 -30.1911
323.191 215.142 -1.57431
329.376 183.564 -1.56876
334.978 184.632 -30.1817
330.03 180.04 1.61233
335.654 181.118 30.1995
341.198 149.253 30.197
335.551 148.283 1.6168
336.856 181.338 33.1314
352.803 184.403 57.2957
358.408 152.246 57.2816
342.4 149.472 33.129
355.018 184.809 59.5306
378.821 189.406 75.6117
384.51 156.83 75.5812
360.623 152.652 59.5165
381.707 189.936 76.8129
409.733 195.344 82.3988
415.513 162.275 82.3576
387.396 157.361 76.7824
412.852 195.911 82.3896
440.873 201.218 76.6873
446.751 167.601 76.6555
418.632 162.842 82.3485
443.76 201.72 75.475
467.618 206.034 59.3997
473.603 171.811 59.3744
449.639 168.103 75.4431
469.843 206.388 57.1655
485.978 209.015 33.0349
492.058 174.259 33.0304
475.828 172.165 57.1402
487.191 209.188 30.1122
492.896 210.062 1.56254
499.011 175.107 1.56789
493.271 174.433 30.1078
492.896 210.061 -1.60419
487.196 209.177 -30.1549
493.278 174.423 -30.1401
499.012 175.107 -1.59884
485.983 209.002 -33.0778
469.849 206.37 -57.2101
475.836 172.149 -57.1748
492.065 174.248 -33.0629
467.625 206.016 -59.4444
443.768 201.698 -75.5196
449.649 168.084 -75.4782
473.612 171.795 -59.4092
440.881 201.195 -76.732
412.861 195.888 -82.4344
418.643 162.823 -82.3836
446.762 167.582 -76.6906
409.741 195.321 -82.4436
381.714 189.916 -76.858
387.405 157.347 -76.8175
415.523 162.256 -82.3928
378.828 189.386 -75.6569
355.023 184.794 -59.5773
360.63 152.646 -59.5532
384.519 156.816 -75.6165
352.807 184.388 -57.3393
336.833 181.326 -33.1174
342.378 149.468 -33.1055
358.414 152.24 -57.3152
335.63 181.107 -30.1808
330.028 180.04 -1.56782
335.55 148.282 -1.56335
341.175 149.249 -30.1689
336.133 144.74 1.61619
341.779 145.709 30.1964
346.723 113.683 30.1707
341.07 112.82 1.61974
342.985 145.907 33.1262
358.993 148.681 57.2788
363.96 116.378 57.2298
347.928 113.881 33.1004
361.213 149.049 59.5118
385.1 153.227 75.5765
390.103 120.539 75.5101
366.18 116.747 59.4628
387.993 153.709 76.7762
416.109 158.624 82.3515
421.154 125.492 82.2742
392.995 121.021 76.7099
419.237 159.135 82.3425
447.356 163.894 76.6495
452.45 130.259 76.5807
424.281 126.003 82.2652
450.254 164.331 75.4374
474.218 168.039 59.3687
479.393 133.71 59.3115
455.348 130.696 75.3686
476.452 168.325 57.1364
492.683 170.419 33.0267
497.921 135.482 33.0047
481.627 133.996 57.0792
493.902 170.549 30.1071
499.642 171.224 1.56717
504.897 136.067 1.57037
499.14 135.612 30.0851
499.642 171.224 -1.59717
493.908 170.539 -30.1384
499.149 135.605 -30.11
504.898 136.067 -1.59398
492.69 170.408 -33.0583
476.461 168.31 -57.1702
481.64 133.984 -57.1064
497.93 135.474 -33.0299
474.228 168.024 -59.4026
450.265 164.312 -75.4716
455.363 130.68 -75.3951
479.406 133.698 -59.3388
447.367 163.875 -76.6836
419.248 159.116 -82.3767
424.297 125.988 -82.2911
452.465 130.243 -76.6071
416.12 158.605 -82.3856
388.003 153.696 -76.8104
393.01 121.014 -76.7352
421.169 125.477 -82.3
385.11 153.214 -75.6107
361.221 149.043 -59.5474
366.192 116.751 -59.4888
390.117 120.532 -75.5355
358.999 148.676 -57.3114
342.963 145.904 -33.1017
347.91 113.889 -33.0677
363.97 116.383 -57.2528
341.757 145.707 -30.1673
336.132 144.74 -1.56177
341.069 112.821 -1.55822
346.704 113.691 -30.1333
341.608 109.267 1.6139
347.261 110.129 30.1648
351.985 78.0358 29.9782
346.376 77.2804 1.6155
348.463 110.306 33.0839
364.494 112.803 57.2132
369.107 80.4396 56.8868
353.186 78.2122 32.8973
366.708 113.136 59.4393
390.631 116.928 75.4866
395.092 84.1951 75.0931
371.321 80.7717 59.1128
393.516 117.366 76.6838
421.675 121.836 82.2482
425.968 88.6958 81.8527
397.977 84.633 76.2903
424.795 122.298 82.2403
452.964 126.554 76.5557
457.08 92.9913 76.1877
429.088 89.1577 81.8448
455.862 126.921 75.3474
479.907 129.935 59.2903
483.955 95.4624 59.0717
459.979 93.3583 74.9795
482.138 130.139 57.0665
498.432 131.625 32.992
502.357 96.4497 32.8585
486.186 95.6662 56.8478
499.648 131.706 30.0804
505.405 132.161 1.56572
509.272 96.7409 1.55734
503.573 96.5305 29.947
505.405 132.161 -1.58963
499.657 131.699 -30.1057
503.578 96.5264 -29.9794
509.272 96.7407 -1.598
498.442 131.618 -33.0166
482.151 130.128 -57.0931
486.209 95.6586 -56.8582
502.363 96.4454 -32.8903
479.921 129.923 -59.3164
455.878 126.905 -75.3727
460.003 93.3443 -74.9899
483.979 95.4539 -59.0815
452.979 126.538 -76.581
424.811 122.284 -82.2649
429.112 89.1471 -81.8579
457.105 92.9772 -76.1982
421.691 121.822 -82.2729
393.532 117.359 -76.7081
397.999 84.6319 -76.3053
425.992 88.6857 -81.8659
390.646 116.922 -75.511
366.721 113.141 -59.4643
371.342 80.7888 -59.1262
395.114 84.1953 -75.1081
364.505 112.809 -57.2352
348.445 110.315 -33.0501
353.178 78.2361 -32.8568
369.126 80.4578 -56.8971
347.242 110.138 -30.1267
341.607 109.267 -1.55165
346.375 77.2813 -1.55005
351.975 78.059 -29.9334
347.038 73.7721 1.57404
352.647 74.5274 29.9368
359.766 43.1013 28.6536
354.419 42.4031 1.57226
353.816 74.6871 32.7812
369.736 76.9145 56.7707
376.107 45.3224 54.4232
360.935 43.261 31.498
371.891 77.216 58.944
395.662 80.6393 74.9243
400.931 48.7575 71.9114
378.262 45.6239 56.5965
398.474 81.037 76.0976
426.464 85.0998 81.66
430.472 52.8395 78.4752
403.743 49.1551 73.0847
429.506 85.518 81.657
457.498 89.3516 75.9999
460.266 56.7292 73.106
433.514 53.2578 78.4722
460.312 89.6775 74.8302
484.288 91.7816 58.9224
485.858 59.394 56.6554
463.08 57.0551 71.9363
486.461 91.9581 56.752
502.632 92.7416 32.7627
503.273 60.6964 31.4712
488.03 59.5705 54.4849
503.814 92.8096 29.912
509.513 93.02 1.52231
509.799 61.0833 1.51194
504.455 60.7644 28.6205
509.513 93.0191 -1.56484
503.819 92.8048 -29.9463
504.45 60.7308 -28.6632
509.799 61.0824 -1.57521
502.638 92.7361 -32.7939
486.484 91.9493 -56.7618
488.057 59.539 -54.4773
503.269 60.6621 -31.5108
484.313 91.7728 -58.9304
460.337 89.6631 -74.8388
463.11 57.0413 -71.9322
485.886 59.3624 -56.6459
457.523 89.3379 -76.009
429.531 85.5077 -81.6688
433.543 53.2519 -78.475
460.296 56.716 -73.1025
426.489 85.0904 -81.6723
398.496 81.0365 -76.1116
403.768 49.1617 -73.0936
430.501 52.8345 -78.4785
395.684 80.6407 -74.9387
371.913 77.2343 -58.9567
378.281 45.6598 -56.6097
400.956 48.7659 -71.9207
369.756 76.9342 -56.7806
353.807 74.7126 -32.7403
360.921 43.3023 -31.461
376.124 45.3597 -54.4337
352.637 74.5515 -29.8918
347.037 73.7738 -1.50847
354.418 42.4048 -1.51025
359.751 43.1412 -28.6125
355.275 38.959 1.48849
360.623 39.6572 28.5698
368.669 8.90647 26.834
363.654 8.2718 1.48135
361.728 39.8039 31.2609
376.9 41.8653 54.186
383.999 10.9353 50.9812
369.774 9.05311 29.525
378.939 42.1408 56.2431
401.607 45.2743 71.5579
407.29 14.0395 67.3493
386.038 11.2108 53.0383
404.267 45.6347 72.6697
430.997 49.3191 78.0603
434.987 17.7105 73.4675
409.95 14.3999 68.4611
433.873 49.698 78.0592
460.626 53.1695 72.693
462.889 21.2528 68.417
437.864 18.0894 73.4664
463.285 53.4848 71.5829
486.063 55.8237 56.302
486.796 23.9466 52.9929
465.548 21.5681 67.3069
488.105 56.0234 54.2444
503.347 57.1493 31.2307
503.03 25.4685 29.4408
488.837 24.1463 50.9353
504.453 57.2371 28.5349
509.797 57.556 1.42632
509.1 25.9423 1.43626
504.136 25.5563 26.745
509.797 57.5534 -1.4894
504.448 57.2018 -28.5774
504.129 25.4954 -26.7715
509.099 25.9397 -1.47946
503.343 57.1117 -31.2695
488.131 55.9885 -54.236
488.854 24.0915 -50.9246
503.024 25.4053 -29.4636
486.091 55.791 -56.2916
463.315 53.4699 -71.578
465.569 21.5536 -67.3029
486.814 23.894 -52.9803
460.655 53.1565 -72.6889
433.902 49.6924 -78.0614
437.885 18.0856 -73.4672
462.91 21.2402 -68.4138
431.025 49.3146 -78.0631
404.292 45.6418 -72.6782
409.968 14.4093 -68.4666
435.008 17.7078 -73.4689
401.632 45.2839 -71.567
378.957 42.1778 -56.2561
386.046 11.2609 -53.0504
407.308 14.0514 -67.3554
376.916 41.9045 -54.1969
361.713 39.8471 -31.2242
369.754 9.11163 -29.4994
384.005 10.9877 -50.9913
360.607 39.698 -28.5296
355.274 38.9616 -1.42738
363.653 8.27439 -1.43453
368.648 8.96259 -26.8047
364.701 5.09259 1.35167
369.716 5.72726 26.7043
380.243 -21.0669 23.7823
375.82 -21.6884 1.33057
370.725 5.86288 29.1608
384.95 7.74503 50.6169
393.85 -19.1721 45.2691
381.251 -20.9313 26.2387
386.813 7.99514 52.495
408.066 10.8239 66.806
414.597 -16.3917 59.8178
395.714 -18.922 47.1471
410.498 11.1471 67.8182
435.535 14.4577 72.8246
439.266 -13.1181 65.2219
417.029 -16.0685 60.8301
438.162 14.8013 72.8202
463.187 17.9647 67.7708
464.077 -9.84266 60.6929
441.893 -12.7745 65.2175
465.611 18.2693 66.7551
486.859 20.6478 52.4411
485.264 -7.06277 46.9571
466.501 -9.53803 59.6771
488.716 20.8666 50.5664
502.909 22.1888 29.0719
499.635 -5.19459 26.1174
487.121 -6.84403 45.0823
503.915 22.2986 26.6177
508.878 22.6846 1.30899
505.031 -4.50632 1.32848
500.642 -5.08474 23.6633
508.878 22.6827 -1.34849
503.908 22.2385 -26.6405
500.641 -5.08674 -23.6638
505.031 -4.50816 -1.329
502.902 22.1268 -29.0939
488.732 20.8131 -50.5549
487.121 -6.84806 -45.0824
499.635 -5.1984 -26.1172
486.876 20.5962 -52.4292
465.631 18.2558 -66.7519
466.502 -9.54027 -59.6769
485.264 -7.06495 -46.9567
463.207 17.9525 -67.7677
438.182 14.7979 -72.8211
441.894 -12.7753 -65.2173
464.078 -9.84354 -60.6927
435.554 14.4549 -72.8257
410.515 11.1564 -67.8234
417.03 -16.0687 -60.8301
439.266 -13.1184 -65.2219
408.082 10.8346 -66.8112
386.82 8.04414 -52.5063
395.714 -18.9205 -47.1473
414.597 -16.3905 -59.8179
384.956 7.79591 -50.6276
370.705 5.91983 -29.1357
381.251 -20.9279 -26.2383
393.85 -19.1688 -45.2687
369.696 5.78252 -26.6785
364.701 5.09431 -1.30825
375.82 -21.6867 -1.32935
380.242 -21.0652 -23.7811
-62.6978 1011.35 25.2795
-66.6519 1008.1 -0.486919
-62.6201 1011.27 -26.2503
-51.2409 1020.39 -48.0842
-34.198 1034.02 -62.6496
-14.1074 1050.08 -67.7275
5.88002 1066.23 -62.5991
22.686 1080.16 -48.0732
33.8306 1089.7 -26.2937
37.7325 1093.09 -0.522988
33.8279 1089.71 25.2474
22.6718 1080.2 47.0314
5.84648 1066.31 61.5714
-14.1535 1050.18 66.714
-34.251 1034.12 61.65
-51.3237 1020.5 47.1074
382.635 -22.3855 1.31945e-05
387.058 -21.764 22.4517
399.656 -20.0048 41.4821
418.539 -17.4746 54.1528
440.776 -14.5241 58.5446
462.96 -11.5923 54.02
481.723 -9.11705 41.3
494.237 -7.4676 22.335
498.627 -6.88918 0.000239176
494.237 -7.46776 -22.3346
481.723 -9.11742 -41.2997
462.96 -11.5927 -54.0199
440.776 -14.5245 -58.5445
418.539 -17.4748 -54.1527
399.656 -20.0049 -41.4821
387.058 -21.764 -22.4517
</DataArray>
</Points>
<Cells>
<DataArray type="Int32" Name="connectivity" format="ascii">
0 1 2 3 
4 5 6 7 
8 9 10 11 
12 13 14 15 
16 17 18 19 
20 21 22 23 
24 25 26 27 
28 29 30 31 
32 33 34 35 
36 37 38 39 
40 41 42 43 
44 45 46 47 
48 49 50 51 
52 53 54 55 
56 57 58 59 
60 61 62 63 
64 65 66 67 
68 69 70 71 
72 73 74 75 
76 77 78 79 
80 81 82 83 
84 85 86 87 
88 89 90 91 
92 93 94 95 
96 97 98 99 
100 101 102 103 
104 105 106 107 
108 109 110 111 
112 113 114 115 
116 117 118 119 
120 121 122 123 
124 125 126 127 
128 129 130 131 
132 133 134 135 
136 137 138 139 
140 141 142 143 
144 145 146 147 
148 149 150 151 
152 153 154 155 
156 157 158 159 
160 161 162 163 
164 165 166 167 
168 169 170 171 
172 173 174 175 
176 177 178 179 
180 181 182 183 
184 185 186 187 
188 189 190 191 
192 193 194 195 
196 197 198 199 
200 201 202 203 
204 205 206 207 
208 209 210 211 
212 213 214 215 
216 217 218 219 
220 221 222 223 
224 225 226 227 
228 229 230 231 
232 233 234 235 
236 237 238 239 
240 241 242 243 
244 245 246 247 
248 249 250 251 
252 253 254 255 
256 257 258 259 
260 261 262 263 
264 265 266 267 
268 269 270 271 
272 273 274 275 
276 277 278 279 
280 281 282 283 
284 285 286 287 
288 289 290 291 
292 293 294 295 
296 297 298 299 
300 301 302 303 
304 305 306 307 
308 309 310 311 
312 313 314 315 
316 317 318 319 
320 321 322 323 
324 325 326 327 
328 329 330 331 
332 333 334 335 
336 337 338 339 
340 341 342 343 
344 345 346 347 
348 349 350 351 
352 353 354 355 
356 357 358 359 
360 361 362 363 
364 365 366 367 
368 369 370 371 
372 373 374 375 
376 377 378 379 
380 381 382 383 
384 385 386 387 
388 389 390 391 
392 393 394 395 
396 397 398 399 
400 401 402 403 
404 405 406 407 
408 409 410 411 
412 413 414 415 
416 417 418 419 
420 421 422 423 
424 425 426 427 
428 429 430 431 
432 433 434 435 
436 437 438 439 
440 441 442 443 
444 445 446 447 
448 449 450 451 
452 453 454 455 
456 457 458 459 
460 461 462 463 
464 465 466 467 
468 469 470 471 
472 473 474 475 
476 477 478 479 
480 481 482 483 
484 485 486 487 
488 489 490 491 
492 493 494 495 
496 497 498 499 
500 501 502 503 
504 505 506 507 
508 509 510 511 
512 513 514 515 
516 517 518 519 
520 521 522 523 
524 525 526 527 
528 529 530 531 
532 533 534 535 
536 537 538 539 
540 541 542 543 
544 545 546 547 
548 549 550 551 
552 553 554 555 
556 557 558 559 
560 561 562 563 
564 565 566 567 
568 569 570 571 
572 573 574 575 
576 577 578 579 
580 581 582 583 
584 585 586 587 
588 589 590 591 
592 593 594 595 
596 597 598 599 
600 601 602 603 
604 605 606 607 
608 609 610 611 
612 613 614 615 
616 617 618 619 
620 621 622 623 
624 625 626 627 
628 629 630 631 
632 633 634 635 
636 637 638 639 
640 641 642 643 
644 645 646 647 
648 649 650 651 
652 653 654 655 
656 657 658 659 
660 661 662 663 
664 665 666 667 
668 669 670 671 
672 673 674 675 
676 677 678 679 
680 681 682 683 
684 685 686 687 
688 689 690 691 
692 693 694 695 
696 697 698 699 
700 701 702 703 
704 705 706 707 
708 709 710 711 
712 713 714 715 
716 717 718 719 
720 721 722 723 
724 725 726 727 
728 729 730 731 
732 733 734 735 
736 737 738 739 
740 741 742 743 
744 745 746 747 
748 749 750 751 
752 753 754 755 
756 757 758 759 
760 761 762 763 
764 765 766 767 
768 769 770 771 
772 773 774 775 
776 777 778 779 
780 781 782 783 
784 785 786 787 
788 789 790 791 
792 793 794 795 
796 797 798 799 
800 801 802 803 
804 805 806 807 
808 809 810 811 
812 813 814 815 
816 817 818 819 
820 821 822 823 
824 825 826 827 
828 829 830 831 
832 833 834 835 
836 837 838 839 
840 841 842 843 
844 845 846 847 
848 849 850 851 
852 853 854 855 
856 857 858 859 
860 861 862 863 
864 865 866 867 
868 869 870 871 
872 873 874 875 
876 877 878 879 
880 881 882 883 
884 885 886 887 
888 889 890 891 
892 893 894 895 
896 897 898 899 
900 901 902 903 
904 905 906 907 
908 909 910 911 
912 913 914 915 
916 917 918 919 
920 921 922 923 
924 925 926 927 
928 929 930 931 
932 933 934 935 
936 937 938 939 
940 941 942 943 
944 945 946 947 
948 949 950 951 
952 953 954 955 
956 957 958 959 
960 961 962 963 
964 965 966 967 
968 969 970 971 
972 973 974 975 
976 977 978 979 
980 981 982 983 
984 985 986 987 
988 989 990 991 
992 993 994 995 
996 997 998 999 
1000 1001 1002 1003 
1004 1005 1006 1007 
1008 1009 1010 1011 
1012 1013 1014 1015 
1016 1017 1018 1019 
1020 1021 1022 1023 
1024 1025 1026 1027 
1028 1029 1030 1031 
1032 1033 1034 1035 
1036 1037 1038 1039 
1040 1041 1042 1043 
1044 1045 1046 1047 
1048 1049 1050 1051 
1052 1053 1054 1055 
1056 1057 1058 1059 
1060 1061 1062 1063 
1064 1065 1066 1067 
1068 1069 1070 1071 
1072 1073 1074 1075 
1076 1077 1078 1079 
1080 1081 1082 1083 
1084 1085 1086 1087 
1088 1089 1090 1091 
1092 1093 1094 1095 
1096 1097 1098 1099 
1100 1101 1102 1103 
1104 1105 1106 1107 
1108 1109 1110 1111 
1112 1113 1114 1115 
1116 1117 1118 1119 
1120 1121 1122 1123 
1124 1125 1126 1127 
1128 1129 1130 1131 
1132 1133 1134 1135 
1136 1137 1138 1139 
1140 1141 1142 1143 
1144 1145 1146 1147 
1148 1149 1150 1151 
1152 1153 1154 1155 
1156 1157 1158 1159 
1160 1161 1162 1163 
1164 1165 1166 1167 
1168 1169 1170 1171 
1172 1173 1174 1175 
1176 1177 1178 1179 
1180 1181 1182 1183 
1184 1185 1186 1187 
1188 1189 1190 1191 
1192 1193 1194 1195 
1196 1197 1198 1199 
1200 1201 1202 1203 
1204 1205 1206 1207 
1208 1209 1210 1211 
1212 1213 1214 1215 
1216 1217 1218 1219 
1220 1221 1222 1223 
1224 1225 1226 1227 
1228 1229 1230 1231 
1232 1233 1234 1235 
1236 1237 1238 1239 
1240 1241 1242 1243 
1244 1245 1246 1247 
1248 1249 1250 1251 
1252 1253 1254 1255 
1256 1257 1258 1259 
1260 1261 1262 1263 
1264 1265 1266 1267 
1268 1269 1270 1271 
1272 1273 1274 1275 
1276 1277 1278 1279 
1280 1281 1282 1283 
1284 1285 1286 1287 
1288 1289 1290 1291 
1292 1293 1294 1295 
1296 1297 1298 1299 
1300 1301 1302 1303 
1304 1305 1306 1307 
1308 1309 1310 1311 
1312 1313 1314 1315 
1316 1317 1318 1319 
1320 1321 1322 1323 
1324 1325 1326 1327 
1328 1329 1330 1331 
1332 1333 1334 1335 
1336 1337 1338 1339 
1340 1341 1342 1343 
1344 1345 1346 1347 
1348 1349 1350 1351 
1352 1353 1354 1355 
1356 1357 1358 1359 
1360 1361 1362 1363 
1364 1365 1366 1367 
1368 1369 1370 1371 
1372 1373 1374 1375 
1376 1377 1378 1379 
1380 1381 1382 1383 
1384 1385 1386 1387 
1388 1389 1390 1391 
1392 1393 1394 1395 
1396 1397 1398 1399 
1400 1401 1402 1403 
1404 1405 1406 1407 
1408 1409 1410 1411 
1412 1413 1414 1415 
1416 1417 1418 1419 
1420 1421 1422 1423 
1424 1425 1426 1427 
1428 1429 1430 1431 
1432 1433 1434 1435 
1436 1437 1438 1439 
1440 1441 1442 1443 
1444 1445 1446 1447 
1448 1449 1450 1451 
1452 1453 1454 1455 
1456 1457 1458 1459 
1460 1461 1462 1463 
1464 1465 1466 1467 
1468 1469 1470 1471 
1472 1473 1474 1475 
1476 1477 1478 1479 
1480 1481 1482 1483 
1484 1485 1486 1487 
1488 1489 1490 1491 
1492 1493 1494 1495 
1496 1497 1498 1499 
1500 1501 1502 1503 
1504 1505 1506 1507 
1508 1509 1510 1511 
1512 1513 1514 1515 
1516 1517 1518 1519 
1520 1521 1522 1523 
1524 1525 1526 1527 
1528 1529 1530 1531 
1532 1533 1534 1535 
1536 1537 1538 1539 
1540 1541 1542 1543 
1544 1545 1546 1547 
1548 1549 1550 1551 
1552 1553 1554 1555 
1556 1557 1558 1559 
1560 1561 1562 1563 
1564 1565 1566 1567 
1568 1569 1570 1571 
1572 1573 1574 1575 
1576 1577 1578 1579 
1580 1581 1582 1583 
1584 1585 1586 1587 
1588 1589 1590 1591 
1592 1593 1594 1595 
1596 1597 1598 1599 
1600 1601 1602 1603 
1604 1605 1606 1607 
1608 1609 1610 1611 
1612 1613 1614 1615 
1616 1617 1618 1619 
1620 1621 1622 1623 
1624 1625 1626 1627 
1628 1629 1630 1631 
1632 1633 1634 1635 
1636 1637 1638 1639 
1640 1641 1642 1643 
1644 1645 1646 1647 
1648 1649 1650 1651 
1652 1653 1654 1655 
1656 1657 1658 1659 
1660 1661 1662 1663 
1664 1665 1666 1667 
1668 1669 1670 1671 
1672 1673 1674 1675 
1676 1677 1678 1679 
1680 1681 1682 1683 
1684 1685 1686 1687 
1688 1689 1690 1691 
1692 1693 1694 1695 
1696 1697 1698 1699 
1700 1701 1702 1703 
1704 1705 1706 1707 
1708 1709 1710 1711 
1712 1713 1714 1715 
1716 1717 1718 1719 
1720 1721 1722 1723 
1724 1725 1726 1727 
1728 1729 1730 1731 
1732 1733 1734 1735 
1736 1737 1738 1739 
1740 1741 1742 1743 
1744 1745 1746 1747 
1748 1749 1750 1751 
1752 1753 1754 1755 
1756 1757 1758 1759 
1760 1761 1762 1763 
1764 1765 1766 1767 
1768 1769 1770 1771 
1772 1773 1774 1775 
1776 1777 1778 1779 
1780 1781 1782 1783 
1784 1785 1786 1787 
1788 1789 1790 1791 
1792 1793 1794 1795 
1796 1797 1798 1799 
1800 1801 1802 1803 
1804 1805 1806 1807 
1808 1809 1810 1811 
1812 1813 1814 1815 
1816 1817 1818 1819 
1820 1821 1822 1823 
1824 1825 1826 1827 
1828 1829 1830 1831 
1832 1833 1834 1835 
1836 1837 1838 1839 
1840 1841 1842 1843 
1844 1845 1846 1847 
1848 1849 1850 1851 
1852 1853 1854 1855 
1856 1857 1858 1859 
1860 1861 1862 1863 
1864 1865 1866 1867 
1868 1869 1870 1871 
1872 1873 1874 1875 
1876 1877 1878 1879 
1880 1881 1882 1883 
1884 1885 1886 1887 
1888 1889 1890 1891 
1892 1893 1894 1895 
1896 1897 1898 1899 
1900 1901 1902 1903 
1904 1905 1906 1907 
1908 1909 1910 1911 
1912 1913 1914 1915 
1916 1917 1918 1919 
1920 1921 1922 1923 
1924 1925 1926 1927 
1928 1929 1930 1931 
1932 1933 1934 1935 
1936 1937 1938 1939 
1940 1941 1942 1943 
1944 1945 1946 1947 
1948 1949 1950 1951 
1952 1953 1954 1955 
1956 1957 1958 1959 
1960 1961 1962 1963 
1964 1965 1966 1967 
1968 1969 1970 1971 
1972 1973 1974 1975 
1976 1977 1978 1979 
1980 1981 1982 1983 
1984 1985 1986 1987 
1988 1989 1990 1991 
1992 1993 1994 1995 
1996 1997 1998 1999 
2000 2001 2002 2003 
2004 2005 2006 2007 
2008 2009 2010 2011 
2012 2013 2014 2015 
2016 2017 2018 2019 
2020 2021 2022 2023 
2024 2025 2026 2027 
2028 2029 2030 2031 
2032 2033 2034 2035 
2036 2037 2038 2039 
2040 2041 2042 2043 
2044 2045 2046 2047 
2048 2049 2050 2051 2052 2053 2054 2055 2056 2057 2058 2059 2060 2061 2062 2063 
2064 2065 2066 2067 2068 2069 2070 2071 2072 2073 2074 2075 2076 2077 2078 2079 
</DataArray>
<DataArray type="Int32" Name="offsets" format="ascii">
4 8 12 16 20 24 28 32 36 40 44 48 52 56 60 64 68 72 76 80 84 88 92 96 100 104 108 112 116 120 124 128 132 136 140 144 148 152 156 160 164 168 172 176 180 184 188 192 196 200 204 208 212 216 220 224 228 232 236 240 244 248 252 256 260 264 268 272 276 280 284 288 292 296 300 304 308 312 316 320 324 328 332 336 340 344 348 352 356 360 364 368 372 376 380 384 388 392 396 400 404 408 412 416 420 424 428 432 436 440 444 448 452 456 460 464 468 472 476 480 484 488 492 496 500 504 508 512 516 520 524 528 532 536 540 544 548 552 556 560 564 568 572 576 580 584 588 592 596 600 604 608 612 616 620 624 628 632 636 640 644 648 652 656 660 664 668 672 676 680 684 688 692 696 700 704 708 712 716 720 724 728 732 736 740 744 748 752 756 760 764 768 772 776 780 784 788 792 796 800 804 808 812 816 820 824 828 832 836 840 844 848 852 856 860 864 868 872 876 880 884 888 892 896 900 904 908 912 916 920 924 928 932 936 940 944 948 952 956 960 964 968 972 976 980 984 988 992 996 1000 1004 1008 1012 1016 1020 1024 1028 1032 1036 1040 1044 1048 1052 1056 1060 1064 1068 1072 1076 1080 1084 1088 1092 1096 1100 1104 1108 1112 1116 1120 1124 1128 1132 1136 1140 1144 1148 1152 1156 1160 1164 1168 1172 1176 1180 1184 1188 1192 1196 1200 1204 1208 1212 1216 1220 1224 1228 1232 1236 1240 1244 1248 1252 1256 1260 1264 1268 1272 1276 1280 1284 1288 1292 1296 1300 1304 1308 1312 1316 1320 1324 1328 1332 1336 1340 1344 1348 1352 1356 1360 1364 1368 1372 1376 1380 1384 1388 1392 1396 1400 1404 1408 1412 1416 1420 1424 1428 1432 1436 1440 1444 1448 1452 1456 1460 1464 1468 1472 1476 1480 1484 1488 1492 1496 1500 1504 1508 1512 1516 1520 1524 1528 1532 1536 1540 1544 1548 1552 1556 1560 1564 1568 1572 1576 1580 1584 1588 1592 1596 1600 1604 1608 1612 1616 1620 1624 1628 1632 1636 1640 1644 1648 1652 1656 1660 1664 1668 1672 1676 1680 1684 1688 1692 1696 1700 1704 1708 1712 1716 1720 1724 1728 1732 1736 1740 1744 1748 1752 1756 1760 1764 1768 1772 1776 1780 1784 1788 1792 1796 1800 1804 1808 1812 1816 1820 1824 1828 1832 1836 1840 1844 1848 1852 1856 1860 1864 1868 1872 1876 1880 1884 1888 1892 1896 1900 1904 1908 1912 1916 1920 1924 1928 1932 1936 1940 1944 1948 1952 1956 1960 1964 1968 1972 1976 1980 1984 1988 1992 1996 2000 2004 2008 2012 2016 2020 2024 2028 2032 2036 2040 2044 2048 2064 2080 
</DataArray>
<DataArray type="UInt8" Name="types" format="ascii">
7 7 7 7 7 7 7 7 7 7 7 7 7 7 7 7 7 7 7 7 7 7 7 7 7 7 7 7 7 7 7 7 7 7 7 7 7 7 7 7 7 7 7 7 7 7 7 7 7 7 7 7 7 7 7 7 7 7 7 7 7 7 7 7 7 7 7 7 7 7 7 7 7 7 7 7 7 7 7 7 7 7 7 7 7 7 7 7 7 7 7 7 7 7 7 7 7 7 7 7 7 7 7 7 7 7 7 7 7 7 7 7 7 7 7 7 7 7 7 7 7 7 7 7 7 7 7 7 7 7 7 7 7 7 7 7 7 7 7 7 7 7 7 7 7 7 7 7 7 7 7 7 7 7 7 7 7 7 7 7 7 7 7 7 7 7 7 7 7 7 7 7 7 7 7 7 7 7 7 7 7 7 7 7 7 7 7 7 7 7 7 7 7 7 7 7 7 7 7 7 7 7 7 7 7 7 7 7 7 7 7 7 7 7 7 7 7 7 7 7 7 7 7 7 7 7 7 7 7 7 7 7 7 7 7 7 7 7 7 7 7 7 7 7 7 7 7 7 7 7 7 7 7 7 7 7 7 7 7 7 7 7 7 7 7 7 7 7 7 7 7 7 7 7 7 7 7 7 7 7 7 7 7 7 7 7 7 7 7 7 7 7 7 7 7 7 7 7 7 7 7 7 7 7 7 7 7 7 7 7 7 7 7 7 7 7 7 7 7 7 7 7 7 7 7 7 7 7 7 7 7 7 7 7 7 7 7 7 7 7 7 7 7 7 7 7 7 7 7 7 7 7 7 7 7 7 7 7 7 7 7 7 7 7 7 7 7 7 7 7 7 7 7 7 7 7 7 7 7 7 7 7 7 7 7 7 7 7 7 7 7 7 7 7 7 7 7 7 7 7 7 7 7 7 7 7 7 7 7 7 7 7 7 7 7 7 7 7 7 7 7 7 7 7 7 7 7 7 7 7 7 7 7 7 7 7 7 7 7 7 7 7 7 7 7 7 7 7 7 7 7 7 7 7 7 7 7 7 7 7 7 7 7 7 7 7 7 7 7 7 7 7 7 7 7 7 7 7 7 7 7 7 7 7 7 7 7 7 7 7 7 7 7 7 7 7 7 7 7 7 7 7 7 7 7 7 7 7 7 7 7 7 7 7 
</DataArray>
</Cells>
<CellData Scalars="cell variable 4" Vectors="cell vector">
<DataArray type="Float64" NumberOfComponents="3" Name="cell vector" format="ascii">
0.177296 0.0760318 0.981216
0.524925 0.170582 0.83388
0.785696 0.235092 0.5722
0.915875 0.322095 0.23964
0.764689 0.61412 -0.195214
0.327898 0.755522 -0.567159
-0.160638 -0.557536 0.814463
-0.0379434 -0.219967 0.974769
0.0448513 0.214834 0.97562
0.146135 0.566953 0.810685
0.32125 0.7595 0.565649
0.762468 0.616852 0.195286
0.914616 0.325954 -0.23923
0.77919 0.254064 -0.572988
-0.511805 -0.199265 0.835673
-0.186547 -0.0593026 0.980655
0.16128 0.110885 0.98066
0.462792 0.309344 0.83074
0.690727 0.463353 0.555157
0.80262 0.56335 0.196055
0.762348 0.616914 -0.195557
0.570226 0.607037 -0.553487
-0.369571 -0.419806 0.828963
-0.129969 -0.148108 0.980394
0.130042 0.148784 0.980282
0.366091 0.424037 0.828354
0.568656 0.608999 0.552947
0.761604 0.617941 0.195215
0.801579 0.564735 -0.196329
0.689106 0.465298 -0.555545
-0.461091 -0.311027 0.831058
-0.163467 -0.10723 0.980704
0.160426 0.112959 0.980563
0.458373 0.317264 0.830203
0.684633 0.473986 0.553729
0.800135 0.567576 0.194015
0.770941 0.60614 -0.195563
0.561647 0.618234 -0.549854
-0.379775 -0.411772 0.82838
-0.134875 -0.143454 0.980423
0.134572 0.144679 0.980285
0.378068 0.414227 0.827937
0.561049 0.61917 0.549411
0.770292 0.607071 0.195233
0.799367 0.568551 -0.194327
0.683972 0.474622 -0.554
-0.457509 -0.317677 0.830522
-0.161479 -0.110305 0.980692
0.161217 0.11244 0.980493
0.460201 0.315858 0.829728
0.688678 0.469551 0.55249
0.808108 0.556701 0.192471
0.783709 0.589518 -0.195625
0.429257 0.732973 -0.52772
-0.439412 0.85149 -0.286151
-0.619129 0.782794 -0.0625486
-0.619509 0.782748 0.0592751
-0.44565 0.851246 0.277084
0.430888 0.732195 0.527472
0.78304 0.590514 0.195297
0.807497 0.557483 -0.192773
0.688418 0.469689 -0.552696
-0.459515 -0.316006 0.830052
-0.161625 -0.110276 0.980672
0.161911 0.111743 0.980458
0.461381 0.314645 0.829534
0.689825 0.468399 0.552037
0.809003 0.55562 0.191836
0.785987 0.586451 -0.195704
0.493558 0.684082 -0.537058
-0.427362 0.861277 -0.274889
-0.598634 0.798722 -0.0606676
-0.598527 0.798858 0.0599236
-0.425965 0.861795 0.275432
0.495835 0.682536 0.536928
0.78568 0.586967 0.19539
0.80868 0.555998 -0.192101
0.689853 0.468165 -0.552199
-0.460965 -0.314423 0.829849
-0.161981 -0.109842 0.980662
0.162583 0.110542 0.980483
0.462914 0.311783 0.82976
0.692071 0.46462 0.552419
0.812452 0.550524 0.191952
0.794025 0.575403 -0.196048
0.541338 0.642599 -0.542236
-0.434937 0.867745 -0.240518
-0.581504 0.811719 -0.054467
-0.581385 0.811844 0.0538533
-0.433404 0.86828 0.241352
0.543716 0.640652 0.54216
0.793839 0.575752 0.195779
0.812288 0.550688 -0.192174
0.69224 0.464207 -0.552554
-0.462682 -0.311308 0.830068
-0.162488 -0.108775 0.980697
0.163556 0.108694 0.980528
0.465514 0.306969 0.830101
0.696088 0.457914 0.55297
0.81812 0.541985 0.192175
0.804468 0.560587 -0.196401
0.580164 0.604453 -0.545936
-0.450608 0.871388 -0.193999
-0.565317 0.823593 -0.045941
-0.56521 0.823702 0.0453147
-0.449375 0.871903 0.194545
0.582432 0.602333 0.545864
0.804375 0.560803 0.196164
0.818069 0.541994 -0.19237
0.69632 0.457419 -0.553089
-0.465393 -0.306335 0.830403
-0.163365 -0.107009 0.980745
0.164837 0.106343 0.980571
0.469084 0.300614 0.830416
0.701605 0.448807 0.553465
0.825429 0.530714 0.192377
0.815684 0.544033 -0.196692
0.612985 0.56852 -0.548666
-0.464748 0.873163 -0.146955
-0.549112 0.834941 -0.0367515
-0.549017 0.835032 0.036087
-0.463805 0.873627 0.147175
0.615062 0.566353 0.548583
0.815659 0.544149 0.196477
0.825456 0.530608 -0.192554
0.701861 0.448274 -0.553571
-0.469028 -0.299879 0.830714
-0.164577 -0.104715 0.98079
0.166362 0.103606 0.980607
0.473392 0.293074 0.830667
0.708211 0.437821 0.553851
0.833844 0.517333 0.192537
0.826965 0.526642 -0.196916
0.641587 0.533962 -0.550682
-0.472854 0.874692 -0.106411
-0.532513 0.845957 -0.028051
-0.532435 0.84603 0.0273288
-0.472144 0.875083 0.106346
0.64338 0.531907 0.550579
0.826974 0.526703 0.196718
0.833916 0.517156 -0.1927
0.708475 0.43727 -0.553948
-0.473372 -0.292273 0.830961
-0.166047 -0.102022 0.980826
0.168056 0.100573 0.980634
0.478208 0.284601 0.830855
0.715551 0.425349 0.554135
0.842933 0.502341 0.192657
0.838049 0.508755 -0.197083
0.666753 0.500595 -0.552128
-0.474231 0.877236 -0.0745773
-0.51536 0.856727 -0.0205464
-0.515301 0.856782 0.0197461
-0.473691 0.877552 0.0742956
0.668134 0.49889 0.552002
0.838065 0.508801 0.196899
0.843028 0.502125 -0.192809
0.715811 0.424796 -0.554223
-0.478205 -0.283759 0.831144
-0.167695 -0.0990245 0.980853
0.169854 0.0973113 0.980653
0.483315 0.275425 0.830992
0.723303 0.411751 0.554341
0.852378 0.486108 0.192745
0.848854 0.490467 -0.197202
0.687868 0.470065 -0.553061
-0.470116 0.881162 -0.0504497
-0.497611 0.867278 -0.0145482
-0.497569 0.867317 0.0136839
-0.469709 0.881404 0.0499976
0.688866 0.468767 0.55292
0.848862 0.490522 0.19703
0.852479 0.485875 -0.192886
0.723552 0.411206 -0.554421
-0.483316 -0.274561 0.831277
-0.169449 -0.0957962 0.980872
0.171699 0.0938759 0.980667
0.488543 0.26574 0.831089
0.73121 0.397335 0.554488
0.861936 0.468926 0.192808
0.859341 0.471819 -0.197284
0.706308 0.441102 -0.553677
-0.46128 0.886627 -0.0333543
-0.479318 0.877584 -0.00999479
-0.479289 0.87761 0.00909139
-0.460979 0.886806 0.0327707
0.70696 0.440238 0.553532
0.859337 0.471892 0.197123
0.862032 0.468695 -0.19294
0.731444 0.396804 -0.55456
-0.488539 -0.264864 0.831371
-0.171252 -0.0923942 0.980885
0.173551 0.0903042 0.980676
0.493787 0.255646 0.831155
0.73912 0.382273 0.554589
0.87143 0.451019 0.192852
0.869472 0.452853 -0.197339
0.722352 0.41379 -0.554062
-0.449029 0.89326 -0.0214311
-0.460542 0.887613 -0.00665477
-0.460525 0.887628 0.00572279
-0.448808 0.893387 0.020756
0.722675 0.413417 0.553919
0.869454 0.452953 0.197189
0.871517 0.450797 -0.192976
0.739337 0.38176 -0.554653
-0.493773 -0.254768 0.831433
-0.173062 -0.0888579 0.980894
0.175382 0.0866234 0.980682
0.498968 0.24523 0.8312
0.746914 0.366709 0.554657
0.880737 0.432548 0.192884
0.879219 0.43361 -0.197375
0.736256 0.388193 -0.554287
-0.434381 0.900634 -0.0131063
-0.441354 0.897323 -0.004231
-0.441342 0.897333 0.00330766
-0.434232 0.900716 0.0123539
0.73637 0.388168 0.554153
0.879189 0.433734 0.197234
0.880812 0.432344 -0.192999
0.747114 0.366217 -0.554712
-0.49894 -0.244358 0.831473
-0.174851 -0.0852154 0.9809
0.177171 0.0828576 0.980686
0.504025 0.234567 0.831226
0.754503 0.350763 0.554698
0.889766 0.413648 0.192904
0.888559 0.414123 -0.197395
0.748434 0.363978 -0.554406
-0.418159 0.908346 -0.00706222
-0.421825 0.906674 -0.00243008
-0.421816 0.90668 0.00153166
-0.418069 0.908394 0.00625683
0.748414 0.364207 0.554284
0.888521 0.414268 0.197263
0.889829 0.413462 -0.19301
0.754686 0.350294 -0.554746
-0.50398 -0.233706 0.831496
-0.176599 -0.0814921 0.980904
0.178903 0.0790275 0.980688
0.508911 0.223723 0.831238
0.761819 0.334543 0.554718
0.898446 0.394435 0.192914
0.897477 0.394422 -0.197401
0.759373 0.340484 -0.554457
-0.401049 0.916054 -0.00219494
-0.402024 0.915629 -0.000972119
-0.402021 0.91563 8.47124e-05
-0.400994 0.91608 0.00137527
0.759155 0.34115 0.554347
0.897434 0.394581 0.197278
0.898503 0.394257 -0.193013
0.761988 0.334093 -0.554758
-0.508847 -0.222878 0.831505
-0.178287 -0.0777116 0.980905
0.180564 0.0751572 0.980688
0.51359 0.212765 0.831238
0.768812 0.318145 0.554718
0.906725 0.37501 0.192917
0.905953 0.374545 -0.197395
0.769437 0.317088 -0.554456
-0.38358 0.923505 0.00233674
-0.382019 0.924154 0.000424297
-0.382002 0.924161 -0.00119718
-0.383588 0.923499 -0.00321676
0.769357 0.317448 0.554362
0.905929 0.374665 0.19728
0.906773 0.374849 -0.193008
0.768962 0.317725 -0.554751
-0.513505 -0.211941 0.831501
-0.179905 -0.0738947 0.980905
0.182143 0.0712726 0.980686
0.518033 0.201762 0.831225
0.775438 0.301669 0.5547
0.914562 0.355475 0.192912
0.913993 0.354486 -0.197376
0.779334 0.292028 -0.554399
-0.366276 0.930477 0.00735407
-0.361862 0.93223 0.00192593
-0.361845 0.932235 -0.00264785
-0.366366 0.930434 -0.00831698
0.779182 0.292584 0.55432
0.913966 0.354614 0.197271
0.914598 0.355336 -0.192993
0.775573 0.301276 -0.554725
-0.51793 -0.200954 0.831484
-0.181444 -0.0700622 0.980902
0.183635 0.0673958 0.980681
0.522221 0.190781 0.831196
0.781666 0.285222 0.554659
0.921918 0.335944 0.192897
0.921587 0.334266 -0.197344
0.789428 0.263848 -0.554245
-0.349669 0.936774 0.0136728
-0.341618 0.939831 0.00377377
-0.341618 0.939828 -0.00453228
-0.349848 0.936691 -0.0147207
0.788943 0.265399 0.554195
0.921538 0.334457 0.197248
0.921945 0.335827 -0.192969
0.78179 0.28485 -0.554676
-0.522105 -0.189982 0.831452
-0.1829 -0.0662359 0.980898
0.185035 0.0635521 0.980675
0.526142 0.179899 0.83115
0.787471 0.268921 0.554591
0.928761 0.316552 0.19287
0.928715 0.313946 -0.197296
0.799606 0.231952 -0.553922
-0.33437 0.94218 0.0222178
-0.321367 0.946934 0.00629964
-0.321366 0.946929 -0.00700439
-0.334663 0.942047 -0.0233959
0.799063 0.233853 0.553906
0.928665 0.31415 0.19721
0.928778 0.316462 -0.192933
0.78758 0.268581 -0.5546
-0.526014 -0.179108 0.831402
-0.184268 -0.0624434 0.98089
0.186343 0.0597739 0.980665
0.529784 0.169217 0.83108
0.792826 0.252924 0.554487
0.935058 0.297463 0.192827
0.935377 0.293549 -0.197227
0.809731 0.195425 -0.553303
-0.321229 0.94638 0.0342969
-0.301184 0.953516 0.00977421
-0.301189 0.953507 -0.0104619
-0.321646 0.94619 -0.0356231
0.809063 0.198052 0.553346
0.935323 0.293771 0.197151
0.935071 0.297389 -0.192881
0.792925 0.25261 -0.554488
-0.529648 -0.168424 0.831328
-0.185545 -0.0587193 0.98088
0.187555 0.0561064 0.98065
0.533138 0.158865 0.830979
0.797709 0.23743 0.554336
0.940779 0.278885 0.192765
0.941571 0.273099 -0.19713
0.819276 0.154319 -0.552243
-0.311189 0.948959 0.0513724
-0.281142 0.959557 0.0144527
-0.281166 0.959539 -0.0151908
-0.311752 0.948691 -0.0528785
0.818483 0.157983 0.552382
0.941505 0.273375 0.197066
0.940789 0.278821 -0.192807
0.797802 0.237133 -0.554328
-0.532999 -0.158052 0.831223
-0.18673 -0.055106 0.980865
0.188673 0.0526098 0.98063
0.536198 0.149021 0.830834
0.802094 0.222706 0.554118
0.945889 0.261094 0.192674
0.947296 0.252632 -0.196996
0.827525 0.109626 -0.550621
-0.305286 0.949297 0.0750767
-0.261304 0.965038 0.0205352
-0.261358 0.965005 -0.0213775
-0.306027 0.948919 -0.0768173
0.826728 0.114216 0.550886
0.947211 0.252991 0.196946
0.945898 0.261039 -0.192705
0.802186 0.222418 -0.554101
-0.536064 -0.148163 0.831074
-0.187825 -0.0516621 0.980843
0.189695 0.0493592 0.980602
0.538957 0.13992 0.830631
0.805955 0.209119 0.55381
0.950348 0.244468 0.192545
0.952551 0.232188 -0.196815
0.833894 0.0625162 -0.548373
-0.304432 0.946517 0.106894
-0.241697 0.969947 0.0280317
-0.241801 0.96989 -0.0290774
-0.305376 0.945983 -0.10891
0.833193 0.0679637 0.54879
0.952441 0.232667 0.19678
0.950359 0.244411 -0.192563
0.80605 0.208821 -0.553784
-0.538837 -0.13898 0.830866
-0.188832 -0.048467 0.980813
0.190622 0.0464548 0.980564
0.541406 0.131877 0.830354
0.809258 0.197158 0.553381
0.954106 0.229521 0.19236
0.957322 0.21188 -0.196574
0.838036 0.0135408 -0.545447
-0.308761 0.939697 0.147091
-0.222276 0.974295 0.036631
-0.222454 0.974202 -0.0379997
-0.309897 0.938965 -0.149364
0.837535 0.019643 0.54603
0.957189 0.212495 0.196556
0.954125 0.229435 -0.192367
0.809363 0.19682 -0.553347
-0.541312 -0.130802 0.830585
-0.189752 -0.0456288 0.980771
0.191436 0.0440288 0.980517
0.543512 0.125302 0.829996
0.811954 0.187443 0.552808
0.957098 0.216939 0.192098
0.961547 0.192107 -0.196272
0.839707 -0.0382383 -0.541692
-0.316529 0.928762 0.192901
-0.20285 0.978148 0.0455937
-0.20312 0.978007 -0.0473712
-0.317785 0.92783 -0.195307
0.839498 -0.031934 0.542424
0.961408 0.192807 0.196268
0.957132 0.216787 -0.192098
0.812076 0.187026 -0.552769
-0.543459 -0.124022 0.830224
-0.190574 -0.0432912 0.980718
0.192083 0.0422366 0.980469
0.545168 0.120676 0.829595
0.813948 0.180697 0.552121
0.959233 0.207626 0.191736
0.965037 0.174095 -0.195946
0.838312 -0.0960803 -0.536658
-0.322508 0.916654 0.236082
-0.182777 0.98169 0.053638
-0.183143 0.981501 -0.0558034
-0.3237 0.915664 -0.238283
0.83844 -0.0901532 0.537485
0.964917 0.174755 0.195947
0.95929 0.207361 -0.19174
0.814092 0.180152 -0.552087
-0.545174 -0.11909 0.829821
-0.191259 -0.0416215 0.980657
0.192414 0.0412062 0.980448
0.546071 0.118413 0.829328
0.814968 0.177672 0.551598
0.960274 0.203065 0.191413
0.967277 0.161462 -0.195718
0.831701 -0.169075 -0.528854
-0.312842 0.914482 0.256618
-0.159402 0.985503 0.058091
-0.159777 0.98532 -0.0601237
-0.313457 0.913963 -0.257714
0.832105 -0.164749 0.529584
0.96721 0.161876 0.195706
0.960356 0.202655 -0.191435
0.815134 0.176926 -0.551591
-0.546163 -0.116379 0.829555
-0.191691 -0.0407533 0.980609
0.192116 0.0409393 0.980518
0.545406 0.118986 0.829684
0.813867 0.180556 0.552285
0.95884 0.208915 0.192303
0.966871 0.164053 -0.195571
0.793834 -0.349202 -0.497881
-0.239698 0.950637 0.197064
-0.11926 0.991622 0.0496176
-0.119098 0.991688 -0.0486804
-0.235487 0.953032 -0.190464
0.794555 -0.346417 0.498675
0.96693 0.163663 0.195601
0.959027 0.208049 -0.192309
0.814096 0.179299 -0.552358
-0.545662 -0.11621 0.829908
-0.191615 -0.0407399 0.980624
0.190993 0.0378414 0.980862
0.54316 0.109884 0.832408
0.813055 0.16559 0.558141
0.961605 0.18907 0.198918
0.970288 0.14408 -0.194376
0.829462 -0.0390307 -0.557198
-0.55563 0.0108077 0.831359
-0.195283 0.00139267 0.980746
0.1954 -0.00194367 0.980722
0.555605 -0.013293 0.83134
0.829407 -0.0386386 0.557307
0.970249 0.144174 0.194499
0.961772 0.188369 -0.198774
0.813334 0.164336 -0.558106
-0.543658 -0.107226 0.832429
-0.190687 -0.0378597 0.980921
0.191125 0.0349876 0.980942
0.543525 0.101962 0.833177
0.814143 0.153683 0.559958
0.964041 0.173942 0.200923
0.972365 0.12822 -0.195107
0.826818 0.00716282 -0.562423
-0.550214 0.0043226 0.835012
-0.192764 0.000763315 0.981245
0.193066 -0.00137524 0.981185
0.55004 -0.00883949 0.835091
0.826724 0.00749251 0.562558
0.972296 0.128572 0.195216
0.964153 0.173525 -0.200743
0.814384 0.152866 -0.559831
-0.544072 -0.0997008 0.833094
-0.190786 -0.035145 0.981002
0.187203 0.0414287 0.981447
0.531155 0.125899 0.837869
0.79325 0.204324 0.573591
0.942477 0.247734 0.224421
0.975211 0.0684852 -0.210412
0.803668 -0.101029 -0.586439
-0.537091 0.048521 0.842127
-0.188365 0.014635 0.98199
0.18847 -0.0143737 0.981974
0.535273 -0.0594327 0.842586
0.803657 -0.100701 0.58651
0.975133 0.0718588 0.209648
0.942731 0.246966 -0.224202
0.793885 0.202548 -0.573342
-0.533934 -0.118748 0.837146
-0.186966 -0.0419576 0.98147
0.00894105 0.00835188 0.999925
0.00257188 0.000343963 0.999997
</DataArray>
<DataArray type="Float64" Name="cell vector length" format="ascii">
0.157113 0.142315 0.131507 0.105175 0.0700161 0.137581 0.193611 0.185318 0.181408 0.187058 0.139199 0.0699624 0.104375 0.129345 0.161359 0.16566 0.4031 0.377878 0.346932 0.311221 0.282561 0.322826 0.403783 0.437669 0.432186 0.388812 0.320643 0.282595 0.312218 0.349949 0.39868 0.410577 0.505198 0.480199 0.444183 0.397869 0.349042 0.399637 0.503691 0.547902 0.543998 0.49245 0.397907 0.349436 0.399111 0.446435 0.496471 0.510586 0.533209 0.506474 0.464931 0.406982 0.327487 0.173185 0.131134 0.228438 0.22897 0.132985 0.173865 0.328084 0.408191 0.466728 0.521229 0.537926 0.549778 0.520535 0.471909 0.399861 0.293384 0.134786 0.118955 0.218134 0.217689 0.117767 0.135412 0.29428 0.401121 0.473424 0.534452 0.554092 0.561356 0.529381 0.473691 0.388836 0.265025 0.103059 0.104538 0.202762 0.202348 0.103397 0.104021 0.266256 0.390197 0.475049 0.542831 0.565446 0.569792 0.53548 0.474068 0.379577 0.245164 0.0808047 0.0944744 0.190111 0.189764 0.093427 0.0819157 0.246583 0.381006 0.475339 0.548685 0.573763 0.575842 0.539695 0.473984 0.37264 0.231506 0.0652101 0.0883684 0.180393 0.180093 0.0873841 0.0664125 0.233038 0.374119 0.475218 0.552801 0.579761 0.580118 0.542571 0.473714 0.367591 0.222056 0.0542136 0.085021 0.173275 0.173008 0.0840819 0.0554756 0.223658 0.369116 0.474948 0.555673 0.584026 0.583096 0.544495 0.473372 0.36394 0.215472 0.0469001 0.0830377 0.168297 0.168052 0.0821323 0.0481952 0.217113 0.365508 0.474629 0.557657 0.587021 0.585123 0.545737 0.473024 0.36133 0.21089 0.0414524 0.0822445 0.164803 0.164574 0.0813595 0.0427652 0.212552 0.362938 0.474317 0.558997 0.589081 0.586481 0.54651 0.472679 0.359439 0.207654 0.0375788 0.0819329 0.16242 0.162203 0.0810641 0.0388918 0.209324 0.361082 0.474012 0.559889 0.59048 0.58737 0.546966 0.472349 0.358056 0.205358 0.0348316 0.081879 0.160905 0.160697 0.0810248 0.036134 0.207031 0.359729 0.473721 0.560472 0.591417 0.587921 0.547195 0.472042 0.357046 0.203738 0.0328914 0.0819525 0.160022 0.159824 0.0811111 0.0341751 0.205412 0.358746 0.473451 0.560832 0.592016 0.588223 0.547265 0.47176 0.356319 0.202616 0.0315279 0.0821007 0.159611 0.159418 0.0812656 0.0327939 0.204289 0.358041 0.473203 0.56103 0.592365 0.58833 0.547213 0.471505 0.355818 0.201879 0.0305903 0.0823037 0.159573 0.159382 0.0814675 0.0318444 0.203554 0.357563 0.472979 0.561103 0.59252 0.588266 0.547057 0.471279 0.35552 0.201476 0.0299622 0.0826025 0.159875 0.15967 0.0817269 0.0312265 0.203158 0.357288 0.47278 0.561066 0.592501 0.58803 0.546798 0.471083 0.35543 0.201406 0.0295682 0.0830457 0.16052 0.160304 0.0821401 0.0308465 0.203102 0.357217 0.472604 0.560915 0.592308 0.587593 0.546412 0.470915 0.355576 0.201733 0.0295665 0.0835315 0.161513 0.161306 0.0826313 0.0308428 0.203444 0.357381 0.472452 0.560632 0.591911 0.586891 0.545859 0.470778 0.356025 0.202587 0.0301327 0.084074 0.16296 0.162769 0.0831977 0.0313919 0.20431 0.357845 0.472326 0.560178 0.591249 0.585828 0.545069 0.47067 0.356883 0.204173 0.031532 0.0847319 0.165024 0.164844 0.083869 0.0327757 0.205908 0.35871 0.472223 0.559483 0.590226 0.584258 0.543938 0.470592 0.358308 0.206797 0.0341654 0.0856141 0.167944 0.167772 0.0847629 0.0353821 0.208539 0.360135 0.472143 0.558451 0.588698 0.581974 0.54232 0.47054 0.360531 0.210903 0.0385727 0.0869635 0.172054 0.171886 0.0861168 0.0397459 0.212641 0.362343 0.472084 0.556942 0.586466 0.578692 0.540002 0.470504 0.363879 0.217135 0.0454679 0.0892532 0.177795 0.177621 0.0883957 0.0465711 0.218842 0.365651 0.472037 0.554761 0.58325 0.574014 0.536684 0.470448 0.368794 0.226436 0.0558338 0.093305 0.185701 0.185509 0.0924159 0.056823 0.228071 0.370492 0.471969 0.551627 0.578667 0.567383 0.531915 0.470229 0.375768 0.240173 0.0710766 0.100388 0.196428 0.196205 0.0994337 0.071888 0.241669 0.377348 0.471742 0.547121 0.572176 0.557851 0.524792 0.469153 0.384769 0.259893 0.0929716 0.112281 0.210992 0.210736 0.111233 0.0934988 0.261157 0.386184 0.470674 0.54039 0.562852 0.542507 0.512008 0.463327 0.391736 0.284012 0.121538 0.132652 0.232603 0.232386 0.13161 0.121604 0.284902 0.392932 0.464888 0.528262 0.547838 0.504553 0.474774 0.430401 0.369618 0.286573 0.130826 0.18149 0.281845 0.283024 0.185154 0.130986 0.287224 0.370669 0.432075 0.492554 0.510519 0.480921 0.451324 0.408799 0.355147 0.300003 0.357913 0.477841 0.524811 0.519041 0.461601 0.355782 0.300611 0.356243 0.410577 0.470085 0.487205 0.444417 0.414276 0.371946 0.322762 0.286914 0.326945 0.42652 0.468302 0.46094 0.405251 0.324973 0.287357 0.323797 0.373744 0.433812 0.450966 0.203346 0.173407 0.129806 0.0804587 0.0598112 0.127309 0.242528 0.297146 0.291435 0.225266 0.127995 0.0609273 0.0812337 0.129415 0.192889 0.209401 0.0503946 0.0152124 
</DataArray>
<DataArray type="Float64" Name="cell variable 4" format="ascii">
856.74 848.207 846.088 841.494 832.735 863.402 876.565 859.293 855.928 868.189 864.187 832.617 840.902 843.645 862.302 861.73 1103.6 1083.84 1072.33 1065.2 1061.64 1083.36 1118.57 1114.33 1108 1099.03 1083.35 1061.64 1065.04 1072.48 1112.49 1113.21 1303.53 1280.68 1266.07 1256.09 1250.15 1276.54 1318.66 1319.55 1313.18 1298.54 1276.75 1250.39 1256.21 1266.26 1314.58 1314.42 1345.9 1320.87 1303.48 1291.17 1282.01 1314.75 1490.74 1703.42 1701.66 1486.69 1314.18 1281.91 1291.1 1303.58 1355.7 1357.06 1354.89 1329.8 1312.99 1303.02 1297.42 1316.33 1474.85 1670.09 1668.87 1472.47 1315.54 1297.2 1302.91 1313.07 1364.79 1366.06 1357.99 1331.93 1313.63 1302.53 1296.44 1308.35 1461.79 1640.58 1639.66 1459.9 1307.85 1296.35 1302.51 1313.72 1366.95 1369.16 1360.05 1332.88 1312.93 1300.59 1294.13 1302.36 1453.61 1617.78 1617.07 1452.01 1301.94 1294.05 1300.59 1313.02 1367.97 1371.24 1361.58 1333.5 1312.21 1298.88 1292.18 1298.07 1449.13 1600.91 1600.34 1447.75 1297.72 1292.11 1298.88 1312.29 1368.73 1372.84 1362.8 1333.96 1311.58 1297.5 1290.66 1294.89 1446.98 1588.91 1588.45 1445.77 1294.62 1290.58 1297.48 1311.64 1369.37 1374.14 1363.74 1334.27 1311.07 1296.42 1289.48 1292.51 1445.64 1580.7 1580.32 1444.57 1292.3 1289.4 1296.4 1311.11 1369.92 1375.17 1364.38 1334.42 1310.66 1295.62 1288.58 1290.73 1445.37 1575.02 1574.7 1444.41 1290.57 1288.5 1295.59 1310.69 1370.31 1375.93 1364.83 1334.46 1310.33 1295.03 1287.9 1289.39 1445.4 1571.19 1570.91 1444.53 1289.26 1287.82 1294.99 1310.35 1370.61 1376.49 1365.14 1334.42 1310.03 1294.55 1287.35 1288.34 1445.58 1568.78 1568.55 1444.8 1288.24 1287.26 1294.5 1310.04 1370.84 1376.92 1365.33 1334.32 1309.74 1294.15 1286.9 1287.52 1445.83 1567.4 1567.2 1445.12 1287.43 1286.81 1294.1 1309.74 1371.01 1377.23 1365.4 1334.16 1309.46 1293.82 1286.53 1286.87 1446.11 1566.77 1566.59 1445.47 1286.79 1286.44 1293.77 1309.46 1371.1 1377.42 1365.36 1333.94 1309.2 1293.56 1286.23 1286.34 1446.42 1566.74 1566.57 1445.82 1286.25 1286.14 1293.51 1309.2 1371.13 1377.48 1365.21 1333.66 1308.95 1293.37 1286 1285.88 1446.84 1567.25 1567.07 1446.22 1285.8 1285.92 1293.31 1308.95 1371.08 1377.44 1364.95 1333.33 1308.71 1293.23 1285.84 1285.48 1447.42 1568.3 1568.13 1446.84 1285.43 1285.76 1293.17 1308.7 1370.96 1377.28 1364.59 1332.95 1308.48 1293.16 1285.75 1285.16 1448.03 1569.91 1569.78 1447.5 1285.1 1285.67 1293.1 1308.48 1370.77 1377.01 1364.13 1332.51 1308.27 1293.14 1285.73 1284.93 1448.64 1572.25 1572.15 1448.18 1284.86 1285.65 1293.09 1308.26 1370.52 1376.63 1363.54 1332.01 1308.07 1293.22 1285.8 1284.87 1449.28 1575.58 1575.53 1448.89 1284.8 1285.71 1293.16 1308.07 1370.19 1376.12 1362.81 1331.44 1307.92 1293.41 1285.98 1285.09 1449.99 1580.33 1580.31 1449.67 1285 1285.9 1293.35 1307.92 1369.78 1375.46 1361.91 1330.81 1307.83 1293.78 1286.34 1285.72 1450.97 1587.07 1587.08 1450.69 1285.58 1286.26 1293.72 1307.83 1369.28 1374.62 1360.78 1330.08 1307.86 1294.39 1286.93 1286.9 1452.57 1596.62 1596.64 1452.31 1286.69 1286.86 1294.34 1307.86 1368.69 1373.56 1359.38 1329.25 1308.02 1295.34 1287.85 1288.82 1455.52 1610.02 1610.01 1455.21 1288.51 1287.78 1295.3 1308.04 1367.97 1372.21 1357.49 1328.16 1308.25 1296.58 1289.05 1291.73 1460.93 1628.54 1628.44 1460.5 1291.28 1288.99 1296.54 1308.28 1366.99 1370.37 1354.1 1325.76 1307.36 1296.83 1289.37 1295.47 1470.26 1653.51 1653.25 1469.57 1294.81 1289.29 1296.81 1307.4 1364.6 1367 1342.19 1314.43 1296.78 1286.71 1279.31 1295.49 1484.18 1686.22 1685.7 1483.05 1294.44 1279.1 1286.63 1296.81 1352.98 1355.03 1275.24 1247.1 1226.9 1212.42 1200.34 1241.79 1503.5 1732.76 1731.74 1501.23 1241.13 1200.26 1212.35 1226.85 1283.45 1287.38 1220.66 1194.06 1175.15 1161.81 1152.65 1177.12 1232.84 1239.67 1231.13 1207.41 1177.31 1152.95 1161.99 1175.21 1228.9 1232.31 1102.35 1076.48 1055.94 1039.71 1028.58 1040.4 1091.57 1094.25 1083.8 1060.88 1040.22 1028.78 1039.9 1056.3 1107.73 1112.97 772.587 763.697 762.603 767.112 775.629 801.763 852.259 866.858 860.626 832.956 803.168 775.945 767.014 761.105 782.549 778.323 616.24 745.326 
</DataArray>
<DataArray type="Float64" Name="cell variable 5" format="ascii">
0.00334631 0.00334631 0.00334631 0.00334631 0.00334631 0.00334631 0.00334631 0.00334631 0.00334631 0.00334631 0.00334631 0.00334631 0.00334631 0.00334631 0.00334631 0.00334631 0.00334631 0.00334631 0.00334631 0.00334631 0.00334631 0.00334631 0.00334631 0.00334631 0.00334631 0.00334631 0.00334631 0.00334631 0.00334631 0.00334631 0.00334631 0.00334631 0.00334631 0.00334631 0.00334631 0.00334631 0.00334631 0.00334631 0.00334631 0.00334631 0.00334631 0.00334631 0.00334631 0.00334631 0.00334631 0.00334631 0.00334631 0.00334631 0.0050574 0.00468187 0.00407581 0.00349801 0.00334631 0.00334631 0.00334631 0.00334631 0.00334631 0.00334631 0.00334631 0.00334631 0.00349801 0.00407581 0.00468187 0.0050574 0.0057222 0.00520092 0.00435913 0.00355676 0.00334631 0.00334631 0.00334631 0.00334631 0.00334631 0.00334631 0.00334631 0.00334631 0.00355676 0.00435913 0.00520092 0.0057222 0.00610739 0.00550208 0.00452347 0.00359097 0.00334631 0.00334631 0.00334631 0.00334631 0.00334631 0.00334631 0.00334631 0.00334631 0.00359097 0.00452347 0.00550208 0.00610739 0.00638774 0.00571997 0.0046432 0.00361625 0.00334631 0.00334631 0.00334631 0.00334631 0.00334631 0.00334631 0.00334631 0.00334631 0.00361625 0.0046432 0.00571997 0.00638774 0.00660637 0.005891 0.00473615 0.00363558 0.00334631 0.00334631 0.00334631 0.00334631 0.00334631 0.00334631 0.00334631 0.00334631 0.00363558 0.00473615 0.005891 0.00660637 0.00678261 0.00602857 0.00481126 0.0036512 0.00334631 0.00334631 0.00334631 0.00334631 0.00334631 0.00334631 0.00334631 0.00334631 0.0036512 0.00481126 0.00602857 0.00678261 0.00692687 0.00614086 0.00487298 0.00366384 0.00334631 0.00334631 0.00334631 0.00334631 0.00334631 0.00334631 0.00334631 0.00334631 0.00366384 0.00487298 0.00614086 0.00692687 0.00704362 0.00623232 0.0049228 0.00367425 0.00334631 0.00334631 0.00334631 0.00334631 0.00334631 0.00334631 0.00334631 0.00334631 0.00367425 0.0049228 0.00623232 0.00704362 0.00713732 0.00630594 0.00496296 0.00368243 0.00334631 0.00334631 0.00334631 0.00334631 0.00334631 0.00334631 0.00334631 0.00334631 0.00368243 0.00496296 0.00630594 0.00713732 0.00721019 0.00636246 0.00499344 0.00368913 0.00334631 0.00334631 0.00334631 0.00334631 0.00334631 0.00334631 0.00334631 0.00334631 0.00368913 0.00499344 0.00636246 0.00721019 0.00726373 0.0064041 0.0050165 0.00369359 0.00334631 0.00334631 0.00334631 0.00334631 0.00334631 0.00334631 0.00334631 0.00334631 0.00369359 0.0050165 0.0064041 0.00726373 0.00729943 0.00643162 0.00503137 0.00369731 0.00334631 0.00334631 0.00334631 0.00334631 0.00334631 0.00334631 0.00334631 0.00334631 0.00369731 0.00503137 0.00643162 0.00729943 0.00731653 0.00644574 0.00503881 0.00369879 0.00334631 0.00334631 0.00334631 0.00334631 0.00334631 0.00334631 0.00334631 0.00334631 0.00369879 0.00503881 0.00644574 0.00731653 0.00731653 0.00644574 0.00503881 0.00369879 0.00334631 0.00334631 0.00334631 0.00334631 0.00334631 0.00334631 0.00334631 0.00334631 0.00369879 0.00503881 0.00644574 0.00731653 0.00729943 0.00643162 0.00503137 0.00369731 0.00334631 0.00334631 0.00334631 0.00334631 0.00334631 0.00334631 0.00334631 0.00334631 0.00369731 0.00503137 0.00643162 0.00729943 0.00726373 0.0064041 0.0050165 0.00369359 0.00334631 0.00334631 0.00334631 0.00334631 0.00334631 0.00334631 0.00334631 0.00334631 0.00369359 0.0050165 0.0064041 0.00726373 0.00721019 0.00636246 0.00499344 0.00368913 0.00334631 0.00334631 0.00334631 0.00334631 0.00334631 0.00334631 0.00334631 0.00334631 0.00368913 0.00499344 0.00636246 0.00721019 0.00713732 0.00630594 0.00496296 0.00368243 0.00334631 0.00334631 0.00334631 0.00334631 0.00334631 0.00334631 0.00334631 0.00334631 0.00368243 0.00496296 0.00630594 0.00713732 0.00704362 0.00623232 0.0049228 0.00367425 0.00334631 0.00334631 0.00334631 0.00334631 0.00334631 0.00334631 0.00334631 0.00334631 0.00367425 0.0049228 0.00623232 0.00704362 0.00692687 0.00614086 0.00487298 0.00366384 0.00334631 0.00334631 0.00334631 0.00334631 0.00334631 0.00334631 0.00334631 0.00334631 0.00366384 0.00487298 0.00614086 0.00692687 0.00678261 0.00602857 0.00481126 0.0036512 0.00334631 0.00334631 0.00334631 0.00334631 0.00334631 0.00334631 0.00334631 0.00334631 0.0036512 0.00481126 0.00602857 0.00678261 0.00660637 0.005891 0.00473615 0.00363558 0.00334631 0.00334631 0.00334631 0.00334631 0.00334631 0.00334631 0.00334631 0.00334631 0.00363558 0.00473615 0.005891 0.00660637 0.00638774 0.00571997 0.0046432 0.00361625 0.00334631 0.00334631 0.00334631 0.00334631 0.00334631 0.00334631 0.00334631 0.00334631 0.00361625 0.0046432 0.00571997 0.00638774 0.00610739 0.00550208 0.00452347 0.00359097 0.00334631 0.00334631 0.00334631 0.00334631 0.00334631 0.00334631 0.00334631 0.00334631 0.00359097 0.00452347 0.00550208 0.00610739 0.0057222 0.00520092 0.00435913 0.00355676 0.00334631 0.00334631 0.00334631 0.00334631 0.00334631 0.00334631 0.00334631 0.00334631 0.00355676 0.00435913 0.00520092 0.0057222 0.0050574 0.00468187 0.00407581 0.00349801 0.00334631 0.00334631 0.00334631 0.00334631 0.00334631 0.00334631 0.00334631 0.00334631 0.00349801 0.00407581 0.00468187 0.0050574 0.00334631 0.00334631 0.00334631 0.00334631 0.00334631 0.00334631 0.00334631 0.00334631 0.00334631 0.00334631 0.00334631 0.00334631 0.00334631 0.00334631 0.00334631 0.00334631 0.00334631 0.00334631 0.00334631 0.00334631 0.00334631 0.00334631 0.00334631 0.00334631 0.00334631 0.00334631 0.00334631 0.00334631 0.00334631 0.00334631 0.00334631 0.00334631 0.00334631 0.00334631 0.00334631 0.00334631 0.00334631 0.00334631 0.00334631 0.00334631 0.00334631 0.00334631 0.00334631 0.00334631 0.00334631 0.00334631 0.00334631 0.00334631 0.00334631 0.00334631 
</DataArray>
<DataArray type="Float64" Name="cell variable 6" format="ascii">
1 1 1 1 1 1 1 1 1 1 1 1 1 1 1 1 1 1 1 1 1 1 1 1 1 1 1 1 1 1 1 1 1 1 1 1 1 1 1 1 1 1 1 1 1 1 1 1 1 1 1 1 1 1 1 1 1 1 1 1 1 1 1 1 1 1 1 1 1 1 1 1 1 1 1 1 1 1 1 1 1 1 1 1 1 1 1 1 1 1 1 1 1 1 1 1 1 1 1 1 1 1 1 1 1 1 1 1 1 1 1 1 1 1 1 1 1 1 1 1 1 1 1 1 1 1 1 1 1 1 1 1 1 1 1 1 1 1 1 1 1 1 1 1 1 1 1 1 1 1 1 1 1 1 1 1 1 1 1 1 1 1 1 1 1 1 1 1 1 1 1 1 1 1 1 1 1 1 1 1 1 1 1 1 1 1 1 1 1 1 1 1 1 1 1 1 1 1 1 1 1 1 1 1 1 1 1 1 1 1 1 1 1 1 1 1 1 1 1 1 1 1 1 1 1 1 1 1 1 1 1 1 1 1 1 1 1 1 1 1 1 1 1 1 1 1 1 1 1 1 1 1 1 1 1 1 1 1 1 1 1 1 1 1 1 1 1 1 1 1 1 1 1 1 1 1 1 1 1 1 1 1 1 1 1 1 1 1 1 1 1 1 1 1 1 1 1 1 1 1 1 1 1 1 1 1 1 1 1 1 1 1 1 1 1 1 1 1 1 1 1 1 1 1 1 1 1 1 1 1 1 1 1 1 1 1 1 1 1 1 1 1 1 1 1 1 1 1 1 1 1 1 1 1 1 1 1 1 1 1 1 1 1 1 1 1 1 1 1 1 1 1 1 1 1 1 1 1 1 1 1 1 1 1 1 1 1 1 1 1 1 1 1 1 1 1 1 1 1 1 1 1 1 1 1 1 1 1 1 1 1 1 1 1 1 1 1 1 1 1 1 1 1 1 1 1 1 1 1 1 1 1 1 1 1 1 1 1 1 1 1 1 1 1 1 1 1 1 1 1 1 1 1 1 1 1 1 1 1 1 1 1 1 1 1 1 1 1 1 1 1 1 1 1 1 1 1 1 1 1 1 1 1 1 1 1 1 1 1 1 1 1 1 1 1 1 1 1 1 1 1 1 1 1 1 1 1 1 1 1 1 1 1 1 
</DataArray>
<DataArray type="Float64" Name="cell variable 7" format="ascii">
0 0 0 0 0 0 0 0 0 0 0 0 0 0 0 0 0 0 0 0 0 0 0 0 0 0 0 0 0 0 0 0 0 0 0 0 0 0 0 0 0 0 0 0 0 0 0 0 0 0 0 0 0 0 0 0 0 0 0 0 0 0 0 0 0 0 0 0 0 0 0 0 0 0 0 0 0 0 0 0 0 0 0 0 0 0 0 0 0 0 0 0 0 0 0 0 0 0 0 0 0 0 0 0 0 0 0 0 0 0 0 0 0 0 0 0 0 0 0 0 0 0 0 0 0 0 0 0 0 0 0 0 0 0 0 0 0 0 0 0 0 0 0 0 0 0 0 0 0 0 0 0 0 0 0 0 0 0 0 0 0 0 0 0 0 0 0 0 0 0 0 0 0 0 0 0 0 0 0 0 0 0 0 0 0 0 0 0 0 0 0 0 0 0 0 0 0 0 0 0 0 0 0 0 0 0 0 0 0 0 0 0 0 0 0 0 0 0 0 0 0 0 0 0 0 0 0 0 0 0 0 0 0 0 0 0 0 0 0 0 0 0 0 0 0 0 0 0 0 0 0 0 0 0 0 0 0 0 0 0 0 0 0 0 0 0 0 0 0 0 0 0 0 0 0 0 0 0 0 0 0 0 0 0 0 0 0 0 0 0 0 0 0 0 0 0 0 0 0 0 0 0 0 0 0 0 0 0 0 0 0 0 0 0 0 0 0 0 0 0 0 0 0 0 0 0 0 0 0 0 0 0 0 0 0 0 0 0 0 0 0 0 0 0 0 0 0 0 0 0 0 0 0 0 0 0 0 0 0 0 0 0 0 0 0 0 0 0 0 0 0 0 0 0 0 0 0 0 0 0 0 0 0 0 0 0 0 0 0 0 0 0 0 0 0 0 0 0 0 0 0 0 0 0 0 0 0 0 0 0 0 0 0 0 0 0 0 0 0 0 0 0 0 0 0 0 0 0 0 0 0 0 0 0 0 0 0 0 0 0 0 0 0 0 0 0 0 0 0 0 0 0 0 0 0 0 0 0 0 0 0 0 0 0 0 0 0 0 0 0 0 0 0 0 0 0 0 0 0 0 0 0 0 0 0 0 0 0 0 0 0 0 0 0 0 0 0 0 0 0 0 0 0 0 0 0 0 0 0 0 0 0 1 1 
</DataArray>
<DataArray type="Float64" Name="cell variable 8" format="ascii">
11.25 33.75 56.25 78.75 101.25 123.75 146.25 168.75 191.25 213.75 236.25 258.75 281.25 303.75 326.25 348.75 11.25 33.75 56.25 78.75 101.25 123.75 146.25 168.75 191.25 213.75 236.25 258.75 281.25 303.75 326.25 348.75 11.25 33.75 56.25 78.75 101.25 123.75 146.25 168.75 191.25 213.75 236.25 258.75 281.25 303.75 326.25 348.75 11.25 33.75 56.25 78.75 101.25 123.75 146.25 168.75 191.25 213.75 236.25 258.75 281.25 303.75 326.25 348.75 11.25 33.75 56.25 78.75 101.25 123.75 146.25 168.75 191.25 213.75 236.25 258.75 281.25 303.75 326.25 348.75 11.25 33.75 56.25 78.75 101.25 123.75 146.25 168.75 191.25 213.75 236.25 258.75 281.25 303.75 326.25 348.75 11.25 33.75 56.25 78.75 101.25 123.75 146.25 168.75 191.25 213.75 236.25 258.75 281.25 303.75 326.25 348.75 11.25 33.75 56.25 78.75 101.25 123.75 146.25 168.75 191.25 213.75 236.25 258.75 281.25 303.75 326.25 348.75 11.25 33.75 56.25 78.75 101.25 123.75 146.25 168.75 191.25 213.75 236.25 258.75 281.25 303.75 326.25 348.75 11.25 33.75 56.25 78.75 101.25 123.75 146.25 168.75 191.25 213.75 236.25 258.75 281.25 303.75 326.25 348.75 11.25 33.75 56.25 78.75 101.25 123.75 146.25 168.75 191.25 213.75 236.25 258.75 281.25 303.75 326.25 348.75 11.25 33.75 56.25 78.75 101.25 123.75 146.25 168.75 191.25 213.75 236.25 258.75 281.25 303.75 326.25 348.75 11.25 33.75 56.25 78.75 101.25 123.75 146.25 168.75 191.25 213.75 236.25 258.75 281.25 303.75 326.25 348.75 11.25 33.75 56.25 78.75 101.25 123.75 146.25 168.75 191.25 213.75 236.25 258.75 281.25 303.75 326.25 348.75 11.25 33.75 56.25 78.75 101.25 123.75 146.25 168.75 191.25 213.75 236.25 258.75 281.25 303.75 326.25 348.75 11.25 33.75 56.25 78.75 101.25 123.75 146.25 168.75 191.25 213.75 236.25 258.75 281.25 303.75 326.25 348.75 11.25 33.75 56.25 78.75 101.25 123.75 146.25 168.75 191.25 213.75 236.25 258.75 281.25 303.75 326.25 348.75 11.25 33.75 56.25 78.75 101.25 123.75 146.25 168.75 191.25 213.75 236.25 258.75 281.25 303.75 326.25 348.75 11.25 33.75 56.25 78.75 101.25 123.75 146.25 168.75 191.25 213.75 236.25 258.75 281.25 303.75 326.25 348.75 11.25 33.75 56.25 78.75 101.25 123.75 146.25 168.75 191.25 213.75 236.25 258.75 281.25 303.75 326.25 348.75 11.25 33.75 56.25 78.75 101.25 123.75 146.25 168.75 191.25 213.75 236.25 258.75 281.25 303.75 326.25 348.75 11.25 33.75 56.25 78.75 101.25 123.75 146.25 168.75 191.25 213.75 236.25 258.75 281.25 303.75 326.25 348.75 11.25 33.75 56.25 78.75 101.25 123.75 146.25 168.75 191.25 213.75 236.25 258.75 281.25 303.75 326.25 348.75 11.25 33.75 56.25 78.75 101.25 123.75 146.25 168.75 191.25 213.75 236.25 258.75 281.25 303.75 326.25 348.75 11.25 33.75 56.25 78.75 101.25 123.75 146.25 168.75 191.25 213.75 236.25 258.75 281.25 303.75 326.25 348.75 11.25 33.75 56.25 78.75 101.25 123.75 146.25 168.75 191.25 213.75 236.25 258.75 281.25 303.75 326.25 348.75 11.25 33.75 56.25 78.75 101.25 123.75 146.25 168.75 191.25 213.75 236.25 258.75 281.25 303.75 326.25 348.75 11.25 33.75 56.25 78.75 101.25 123.75 146.25 168.75 191.25 213.75 236.25 258.75 281.25 303.75 326.25 348.75 11.25 33.75 56.25 78.75 101.25 123.75 146.25 168.75 191.25 213.75 236.25 258.75 281.25 303.75 326.25 348.75 11.25 33.75 56.25 78.75 101.25 123.75 146.25 168.75 191.25 213.75 236.25 258.75 281.25 303.75 326.25 348.75 11.25 33.75 56.25 78.75 101.25 123.75 146.25 168.75 191.25 213.75 236.25 258.75 281.25 303.75 326.25 348.75 11.25 33.75 56.25 78.75 101.25 123.75 146.25 168.75 191.25 213.75 236.25 258.75 281.25 303.75 326.25 348.75 0 0 
</DataArray>
</CellData>
</Piece>
</UnstructuredGrid>
</VTKFile>
