<VTKFile type="UnstructuredGrid" version="0.1">
<UnstructuredGrid>
<Piece  NumberOfPoints="    2080" NumberOfCells="     514">
<Points>
<DataArray type="Float64" NumberOfComponents="3" format="ascii">
-316.829 718.88 1.10919
-315.665 723.895 26.873
-289.563 712.911 28.9947
-290.861 707.483 1.13849
-315.401 725.01 29.6244
-312.033 739.257 51.4211
-285.616 729.448 55.3055
-289.298 714.026 31.7461
-311.546 741.314 53.5214
-306.561 762.596 68.0222
-279.684 754.535 73.1002
-285.129 731.505 57.4057
-305.941 765.281 69.1553
-300.26 790.366 74.207
-272.888 784.391 79.7589
-279.064 757.22 74.2333
-299.623 793.275 74.2074
-294.28 818.43 69.1167
-266.533 814.607 74.2809
-272.251 787.3 79.7594
-293.726 821.13 67.982
-289.425 842.565 53.4739
-261.374 840.517 57.3927
-265.978 817.307 73.1462
-289.013 844.637 51.37
-286.175 858.998 29.5712
-257.895 858.107 31.6811
-260.962 842.589 55.2887
-285.953 860.12 26.8181
-284.938 865.154 1.05779
-256.572 864.672 1.06659
-257.672 859.229 28.928
-284.936 865.152 -1.9234
-285.918 860.09 -27.68
-257.63 859.205 -29.7725
-256.57 864.671 -1.91459
-286.138 858.966 -30.4323
-288.963 844.59 -52.2233
-260.901 842.545 -56.1198
-257.85 858.081 -32.5248
-289.373 842.516 -54.3258
-293.669 821.07 -68.8213
-265.916 817.249 -73.9584
-261.311 840.471 -58.2223
-294.223 818.37 -69.9543
-299.561 793.209 -75.0278
-272.183 787.238 -80.5541
-266.47 814.548 -75.0914
-300.198 790.3 -75.0255
-305.882 765.219 -69.9567
-278.997 757.162 -75.0094
-272.82 784.328 -80.5519
-306.503 762.536 -68.8217
-311.482 741.266 -54.3012
-285.084 731.469 -58.1579
-279.618 754.479 -73.8744
-311.969 739.211 -52.1986
-315.345 724.985 -30.3913
-289.283 714.008 -32.4637
-285.572 729.414 -56.0553
-315.613 723.872 -27.6376
-316.827 718.879 -1.87272
-290.859 707.482 -1.84341
-289.551 712.895 -29.7099
-287.718 706.417 1.21537
-286.42 711.844 29.0716
-255.518 703.712 29.716
-256.867 698.192 1.22941
-282.454 728.435 55.5215
-251.386 720.564 56.7285
-255.236 704.881 32.6065
-286.137 713.013 31.9621
-276.49 753.622 73.4235
-245.156 746.175 75.0262
-250.867 722.72 58.936
-281.935 730.591 57.7291
-269.654 783.609 80.1423
-238.077 776.715 81.8964
-244.496 748.991 76.2194
-275.83 756.438 74.6167
-263.27 813.971 74.666
-231.719 807.686 76.2475
-237.411 779.77 81.8985
-268.988 786.664 80.1444
-258.094 840.019 57.718
-226.605 834.242 58.905
-231.147 810.524 75.053
-262.699 816.809 73.4715
-254.602 857.714 31.897
-223.104 852.283 32.542
-226.18 836.419 56.6916
-257.669 842.196 55.5046
-253.269 864.335 1.14283
-221.759 859.025 1.15549
-222.872 853.461 29.6492
-254.37 858.892 29.0042
-254.327 858.868 -29.846
-222.838 853.433 -30.462
-221.757 859.024 -1.9755
-253.267 864.334 -1.98817
-257.608 842.152 -56.3328
-226.124 836.375 -57.4841
-223.067 852.253 -33.3536
-254.557 857.687 -32.7377
-262.636 816.751 -74.2805
-231.084 810.468 -75.8291
-226.548 834.197 -59.6958
-258.032 839.973 -58.5444
-268.92 786.602 -80.9359
-237.343 779.708 -82.6541
-231.655 807.629 -77.0217
-263.207 813.913 -75.4732
-275.763 756.381 -75.3893
-244.43 748.933 -76.9539
-238.009 776.653 -82.65
-269.586 783.547 -80.9318
-281.89 730.556 -58.4775
-250.821 722.678 -59.6521
-245.091 746.118 -75.7586
-276.424 753.566 -74.194
-286.124 712.996 -32.6756
-255.219 704.854 -33.2917
-251.343 720.524 -57.4418
-282.412 728.401 -56.2672
-286.409 711.829 -29.7829
-287.717 706.415 -1.91643
-256.867 698.191 -1.90239
-255.504 703.687 -30.399
-253.422 697.345 1.25214
-252.074 702.865 29.7387
-220.791 695.76 29.8826
-222.183 690.235 1.2669
-251.779 704.044 32.6697
-247.929 719.727 56.7917
-216.484 712.632 57.0647
-220.496 696.939 32.8136
-247.384 721.904 59.0327
-241.673 745.359 75.1229
-209.923 738.287 75.5031
-215.939 714.809 59.3057
-240.985 748.204 76.3338
-234.566 775.928 82.0108
-202.587 768.937 82.3999
-209.234 741.132 76.714
-233.895 779.022 82.0132
-228.203 806.938 76.3622
-196.495 800.185 76.7664
-201.916 772.03 82.4023
-227.647 809.82 75.151
-223.105 833.539 59.003
-191.598 827.016 59.3512
-195.939 803.068 75.5552
-222.688 835.75 56.7575
-219.612 851.614 32.6078
-188.145 845.213 32.8084
-191.181 829.227 57.1057
-219.38 852.809 29.6734
-218.267 858.373 1.17961
-186.797 852.007 1.19757
-187.913 846.408 29.8739
-218.266 858.372 -1.99618
-219.346 852.781 -30.4826
-187.886 846.382 -30.6491
-186.795 852.006 -1.97822
-219.576 851.583 -33.4159
-222.633 835.706 -57.5464
-191.132 829.183 -57.8644
-188.115 845.185 -33.5823
-223.048 833.494 -59.7901
-227.584 809.764 -75.9234
-195.879 803.01 -76.2967
-191.547 826.97 -60.1081
-228.139 806.88 -77.1327
-233.827 778.959 -82.7651
-201.849 771.967 -83.1226
-196.434 800.126 -77.506
-234.498 775.866 -82.7606
-240.919 748.146 -77.0645
-209.17 741.073 -77.4138
-202.52 768.873 -83.1181
-241.609 745.301 -75.8517
-247.338 721.862 -59.7452
-215.889 714.762 -59.9897
-209.859 738.228 -76.201
-247.885 719.686 -57.5018
-251.762 704.017 -33.3517
-220.474 696.905 -33.467
-216.436 712.587 -57.7463
-252.059 702.839 -30.4186
-253.421 697.344 -1.92195
-222.182 690.234 -1.90719
-220.771 695.728 -30.5339
-218.739 689.428 1.27512
-217.347 694.952 29.8908
-186.512 687.503 29.9483
-188.083 682.013 1.28865
-217.027 696.13 32.8333
-213.015 711.823 57.0844
-181.679 704.274 57.1801
-186.192 688.681 32.8908
-212.422 713.997 59.3333
-206.406 737.475 75.5307
-174.341 729.784 75.658
-181.086 706.448 59.429
-205.65 740.32 76.7443
-199.003 768.124 82.4303
-165.842 760.222 82.5444
-173.585 732.629 76.8717
-198.256 771.226 82.4257
-192.835 799.381 76.7898
-158.079 791.237 76.8961
-165.096 763.324 82.5399
-192.214 802.259 75.5718
-187.873 826.206 59.3677
-151.809 817.912 59.492
-157.457 794.115 75.678
-187.406 828.41 57.1177
-184.37 844.396 32.8204
-147.498 835.994 32.9028
-151.343 820.116 57.2419
-184.111 845.586 29.8795
-182.994 851.186 1.20317
-145.85 842.74 1.22311
-147.238 837.184 29.9619
-182.992 851.185 -1.97978
-184.084 845.561 -30.6506
-147.214 837.161 -30.6953
-145.849 842.739 -1.95984
-184.341 844.368 -33.5906
-187.358 828.366 -57.8727
-151.298 820.072 -57.9643
-147.471 835.968 -33.6353
-187.823 826.161 -60.1211
-192.154 802.201 -76.3098
-157.399 794.056 -76.3838
-151.764 817.866 -60.2128
-192.774 799.322 -77.526
-198.19 771.163 -83.1425
-165.03 763.26 -83.2261
-158.019 791.178 -77.6
-198.936 768.061 -83.1451
-205.586 740.26 -77.4408
-173.522 732.568 -77.5397
-165.777 760.158 -83.2286
-206.342 737.416 -76.2254
-212.372 713.95 -60.0141
-181.033 706.399 -60.0831
-174.278 729.724 -76.3243
-212.967 711.778 -57.7629
-217.005 696.097 -33.4836
-186.164 688.644 -33.5144
-181.628 704.227 -57.8319
-217.327 694.921 -30.539
-218.738 689.426 -1.91231
-188.082 682.011 -1.89878
-186.487 687.468 -30.5698
-184.695 681.122 1.29211
-183.124 686.612 29.9517
-152.782 677.969 29.9779
-154.551 672.548 1.30678
-182.764 687.78 32.8979
-178.251 703.373 57.1872
-147.347 694.543 57.2285
-152.422 679.137 32.9241
-177.585 705.528 59.4386
-170.839 728.865 75.6677
-139.082 719.768 75.7112
-146.681 696.698 59.48
-169.978 731.682 76.8811
-162.235 759.275 82.5538
-129.364 749.842 82.6036
-138.221 722.585 76.9246
-161.343 762.343 82.5483
-154.326 790.256 76.9046
-120.008 780.442 76.9296
-128.472 752.909 82.5981
-153.549 793.104 75.6858
-147.901 816.901 59.4997
-112.326 806.769 59.52
-119.231 783.29 75.7108
-147.319 819.084 57.2489
-143.474 834.962 32.9097
-107.1 824.64 32.9345
-111.744 808.952 57.2691
-143.155 836.141 29.9659
-141.767 841.697 1.22712
-105.123 831.313 1.24586
-106.781 825.819 29.9907
-141.766 841.696 -1.95964
-143.131 836.118 -30.6951
-106.76 825.797 -30.6827
-105.122 831.312 -1.9409
-143.448 834.937 -33.6382
-147.275 819.04 -57.9672
-111.703 808.909 -57.9515
-107.077 824.616 -33.6259
-147.856 816.856 -60.2168
-153.491 793.046 -76.3878
-119.175 783.232 -76.3784
-112.284 806.725 -60.201
-154.267 790.196 -77.6049
-161.278 762.278 -83.231
-128.408 752.845 -83.2486
-119.951 780.383 -77.5955
-162.17 759.211 -83.2347
-169.915 731.621 -77.5457
-138.158 722.524 -77.5591
-129.3 749.777 -83.2523
-170.776 728.805 -76.3308
-177.532 705.479 -60.0896
-146.625 696.647 -60.1023
-139.019 719.707 -76.3442
-178.2 703.325 -57.8359
-182.736 687.742 -33.5184
-152.391 679.097 -33.5154
-147.293 694.493 -57.8487
-183.099 686.577 -30.5701
-184.694 681.12 -1.8991
-154.55 672.546 -1.88443
-152.754 677.932 -30.5671
-151.222 671.518 1.30913
-149.453 676.939 29.9803
-119.66 666.963 29.9994
-121.64 661.626 1.3249
-149.049 678.091 32.928
-143.974 693.497 57.2324
-113.575 683.285 57.2624
-119.256 668.115 32.9471
-143.225 695.624 59.4849
-135.626 718.694 75.7161
-104.305 708.141 75.7549
-112.827 685.412 59.5149
-134.653 721.473 76.9295
-125.796 748.73 82.6086
-93.3238 737.767 82.6497
-103.332 710.921 76.9683
-124.763 751.752 82.6022
-116.3 779.285 76.9338
-82.4709 767.878 76.9599
-92.2911 740.79 82.6434
-115.376 782.091 75.7134
-108.471 805.57 59.5226
-73.4307 793.771 59.5383
-81.5474 770.685 75.7395
-107.776 807.721 57.2713
-103.133 823.41 32.9366
-67.3069 811.363 32.9549
-72.736 795.922 57.2871
-102.755 824.573 29.9929
-101.097 830.066 1.24806
-65.0047 817.937 1.26677
-66.9291 812.526 30.0111
-101.096 830.065 -1.93897
-102.734 824.55 -30.6808
-66.9103 812.505 -30.6619
-65.0036 817.936 -1.92026
-103.11 823.385 -33.624
-107.736 807.679 -57.9496
-72.6983 795.88 -57.9291
-67.286 811.34 -33.605
-108.429 805.526 -60.1997
-115.321 782.033 -76.3771
-81.4937 770.628 -76.3684
-73.3913 793.728 -60.1792
-116.243 779.226 -77.5959
-124.699 751.688 -83.2489
-92.2285 740.726 -83.2571
-82.4159 767.82 -77.5872
-125.732 748.666 -83.2537
-134.59 721.412 -77.5606
-103.268 710.859 -77.5681
-93.2608 737.704 -83.2619
-135.563 718.633 -76.3458
-143.169 695.573 -60.1039
-112.77 685.36 -60.1038
-104.242 708.08 -76.3533
-143.919 693.447 -57.8492
-149.017 678.051 -33.516
-119.222 668.073 -33.504
-113.52 683.234 -57.8491
-149.424 676.902 -30.5661
-151.22 671.516 -1.8834
-121.638 661.624 -1.86762
-119.629 666.924 -30.5541
-118.374 660.448 1.32701
-116.394 665.784 30.0016
-87.1919 654.454 30.0192
-89.3924 649.214 1.34358
-115.943 666.917 32.9502
-110.263 682.087 57.2654
-80.4281 670.484 57.2912
-86.7411 655.587 32.9678
-109.428 684.18 59.519
-100.906 706.909 75.759
-70.1081 694.905 75.7948
-79.5925 672.577 59.5447
-99.8152 709.643 76.9726
-89.8073 736.49 82.654
-57.8341 724.01 82.6894
-69.0175 697.639 77.0085
-88.6364 739.46 82.6471
-78.8163 766.549 76.9636
-45.5443 753.565 76.9902
-56.6633 726.98 82.6824
-77.7531 769.306 75.7421
-69.6364 792.392 59.5409
-35.1998 778.961 59.5583
-44.4811 756.322 75.7688
-68.8328 794.505 57.289
-63.4036 809.946 32.9568
-28.1992 796.225 32.9743
-34.3962 781.075 57.3064
-62.9682 811.089 30.0131
-61.0438 816.5 1.26878
-25.5762 802.68 1.28748
-27.7638 797.368 30.0306
-61.0429 816.499 -1.91813
-62.9495 811.068 -30.6598
-27.7469 797.347 -30.6401
-25.5753 802.679 -1.89943
-63.3831 809.923 -33.6029
-68.7953 794.464 -57.927
-34.3612 781.034 -57.9081
-28.1804 796.202 -33.5833
-69.5972 792.349 -60.1778
-77.6996 769.249 -76.367
-44.4297 756.266 -76.3587
-35.1631 778.919 -60.159
-78.7615 766.491 -77.5871
-88.5741 739.397 -83.257
-56.6023 726.917 -83.2587
-45.4917 753.508 -77.5788
-89.7444 736.426 -83.2626
-99.752 709.582 -77.5688
-68.9547 697.577 -77.5724
-57.7726 723.946 -83.2643
-100.843 706.848 -76.3539
-109.37 684.127 -60.1044
-79.534 672.523 -60.0991
-70.0454 694.844 -76.3575
-110.207 682.036 -57.8487
-115.91 666.875 -33.5036
-86.7068 655.543 -33.4887
-80.3711 670.431 -57.8433
-116.364 665.745 -30.5526
-118.372 660.445 -1.86615
-89.3907 649.212 -1.84958
-87.1606 654.413 -30.5377
-86.1953 647.886 1.34563
-83.9949 653.126 30.0212
-55.4274 640.452 30.0386
-57.8541 635.32 1.3627
-83.4958 654.238 32.9704
-77.1828 669.134 57.2938
-47.9675 656.152 57.3169
-54.9283 641.563 32.9878
-76.2572 671.187 59.5483
-66.7728 693.516 75.7983
-36.576 680.076 75.8297
-47.042 658.204 59.5714
-65.5625 696.198 77.0123
-54.3791 722.568 82.6931
-22.9977 708.586 82.7234
-35.3657 682.758 77.0437
-53.0719 725.48 82.6857
-41.953 752.064 76.9935
-9.31339 737.52 77.0181
-21.6905 711.498 82.716
-40.7555 754.766 75.7714
-31.4742 777.405 59.5609
2.28434 762.366 59.5789
-8.11589 740.221 75.796
-30.5653 779.476 57.3085
-24.3683 794.626 32.9763
10.137 779.258 32.9938
3.1932 764.436 57.3265
-23.8765 795.746 30.0326
-21.6889 801.058 1.28948
13.0746 785.577 1.30811
10.6287 780.378 30.0501
-21.6881 801.057 -1.8973
-23.8597 795.725 -30.638
10.6441 780.358 -30.6185
13.0755 785.576 -1.87866
-24.3497 794.603 -33.5812
-30.5305 779.435 -57.9061
3.22582 764.397 -57.8879
10.154 779.236 -33.5617
-31.4377 777.363 -60.1576
-40.7043 754.71 -76.3573
-8.06689 740.166 -76.3468
2.31865 762.325 -60.1394
-41.9005 752.007 -77.5782
-53.0112 725.417 -83.2582
-21.6315 711.435 -83.2546
-9.2631 737.464 -77.5677
-54.3178 722.505 -83.2644
-65.4998 696.136 -77.5725
-35.3038 682.695 -77.5711
-22.9381 708.523 -83.2608
-66.7102 693.454 -76.3575
-76.1988 671.133 -60.099
-46.9835 658.149 -60.0904
-36.5142 680.014 -76.3562
-77.1258 669.081 -57.8424
-83.4615 654.193 -33.4878
-54.8944 641.517 -33.4718
-47.9105 656.097 -57.8338
-83.9636 653.085 -30.5361
-86.1937 647.884 -1.84791
-57.8524 635.318 -1.83084
-55.3965 640.408 -30.5201
-54.7304 633.845 1.36472
-52.3038 638.977 30.0406
-24.419 624.978 30.058
-27.0742 619.966 1.38204
-51.7557 640.063 32.9902
-44.7949 654.652 57.3193
-16.2577 640.31 57.3405
-23.8709 626.065 33.0076
-43.7782 656.659 59.5744
-33.3122 678.531 75.8328
-3.78919 663.678 75.8595
-15.2411 642.318 59.5956
-31.9814 681.154 77.0469
-19.6134 706.982 82.7267
11.0902 691.523 82.7529
-2.45835 666.301 77.0736
-18.1717 709.829 82.7188
-5.79456 735.851 77.021
26.1339 719.77 77.0421
12.532 694.37 82.7451
-4.46731 738.49 75.7983
5.93292 760.635 59.5813
38.9384 744.013 59.5988
27.4612 722.409 75.8195
6.94337 762.657 57.3285
13.8872 777.479 32.9958
47.616 760.495 33.0132
39.9488 746.035 57.346
14.4337 778.574 30.0521
16.8796 783.773 1.31011
50.8606 766.664 1.32863
48.1626 761.59 30.0695
16.8804 783.772 -1.87655
14.449 778.554 -30.6164
48.1765 761.571 -30.597
50.8614 766.663 -1.85804
13.904 777.458 -33.5597
6.97579 762.619 -57.8859
39.9792 745.997 -57.8673
47.6316 760.475 -33.5402
5.96699 760.594 -60.1379
-4.41855 738.436 -76.3452
27.5077 722.355 -76.3313
38.9704 743.973 -60.1193
-5.74449 735.795 -77.5667
-18.1129 709.767 -83.2536
12.5889 694.307 -83.2458
26.1818 719.715 -77.5528
-19.554 706.919 -83.2604
-31.9197 681.091 -77.5707
-2.39789 666.238 -77.5645
11.1478 691.46 -83.2526
-33.2505 678.469 -76.3556
-43.7198 656.604 -60.0899
-15.1833 642.262 -60.079
-3.72875 663.615 -76.3494
-44.7379 654.597 -57.8326
-51.7218 640.017 -33.4706
-23.8382 626.017 -33.4542
-16.2014 640.255 -57.8217
-52.2729 638.933 -30.5183
-54.7288 633.843 -1.82907
-27.0726 619.964 -1.81176
-24.3892 624.932 -30.5019
-24.0293 618.346 1.38404
-21.3742 623.357 30.06
5.77677 608.06 30.0772
2.89343 603.18 1.4014
-20.777 624.417 33.0099
-13.1638 638.663 57.3428
14.6361 622.988 57.3621
6.37396 609.12 33.0271
-12.056 640.62 59.5982
-0.604184 661.98 75.8622
28.1741 645.741 75.8852
15.7438 624.946 59.6176
0.84649 664.538 77.0764
14.3951 689.76 82.7557
44.3362 672.855 82.7786
29.6248 648.299 77.0994
15.969 692.535 82.7476
29.5709 717.935 77.0446
60.705 700.351 77.0633
45.9101 675.63 82.7704
31.024 720.507 75.8216
42.5012 742.111 59.6009
74.6763 723.937 59.6174
62.158 702.923 75.8403
43.6097 744.081 57.3479
51.2769 758.541 33.0151
84.153 739.973 33.0321
75.7849 725.907 57.3644
51.8767 759.607 30.0715
54.5747 764.681 1.33062
87.6955 745.976 1.34902
84.7528 741.039 30.0885
54.5754 764.68 -1.85594
51.8906 759.589 -30.5949
84.7655 741.021 -30.5754
87.6962 745.975 -1.83755
51.2923 758.521 -33.5381
43.64 744.043 -57.8652
75.8133 725.871 -57.8459
84.1673 739.953 -33.5186
42.533 742.071 -60.1174
31.0703 720.454 -76.3294
62.2021 702.87 -76.3132
74.7063 723.899 -60.0981
29.6186 717.88 -77.5515
16.0257 692.473 -83.2445
45.9646 675.568 -83.2334
60.7503 700.297 -77.5352
14.4525 689.697 -83.2517
0.906748 664.475 -77.5635
29.6833 648.236 -77.5536
44.3914 672.793 -83.2406
-0.543891 661.918 -76.3485
-11.9985 640.564 -60.0781
15.8 624.888 -60.0655
28.2327 645.679 -76.3385
-13.1076 638.607 -57.8203
-20.7444 624.369 -33.4527
6.40478 609.069 -33.4361
14.6909 622.931 -57.8077
-21.3444 623.312 -30.5001
-24.0278 618.343 -1.80994
2.89496 603.178 -1.79258
5.80473 608.012 -30.4834
5.85393 601.417 1.40335
8.73728 606.297 30.0792
35.1018 589.73 30.0959
31.9927 584.994 1.42056
9.38315 607.327 33.0292
17.6453 621.196 57.3642
44.651 604.217 57.3819
35.7476 590.76 33.0459
18.8431 623.099 59.6199
31.2734 643.894 75.8875
59.2425 626.3 75.9077
45.8488 606.12 59.6376
32.8422 646.381 77.1018
47.5536 670.936 82.781
76.6631 652.616 82.8008
60.8113 628.787 77.122
49.2567 673.633 82.7726
64.0516 698.354 77.0655
94.3209 679.299 77.0828
78.3662 655.313 82.7924
65.6265 700.853 75.8423
78.1449 721.867 59.6194
109.417 702.178 59.635
95.8958 681.797 75.8596
79.3482 723.781 57.3663
87.7163 737.846 33.034
119.664 717.731 33.0505
110.62 704.091 57.3819
88.3675 738.882 30.0904
91.3102 743.819 1.35097
123.494 723.555 1.36904
120.315 718.767 30.1069
91.3108 743.818 -1.83547
88.3802 738.864 -30.5733
120.327 718.75 -30.5539
123.495 723.554 -1.81741
87.7304 737.827 -33.5165
79.3764 723.745 -57.8438
110.647 704.056 -57.8241
119.677 717.712 -33.4971
78.1746 721.829 -60.0961
65.6704 700.8 -76.3113
95.9373 681.746 -76.2942
109.445 702.141 -60.0765
64.0967 698.3 -77.5336
49.3109 673.571 -83.2318
78.418 655.252 -83.2181
94.3637 679.246 -77.5165
47.6085 670.874 -83.2393
32.9005 646.318 -77.5523
60.8675 628.724 -77.54
76.7156 652.555 -83.2257
31.3318 643.832 -76.3373
18.8991 623.041 -60.0642
45.903 606.062 -60.0503
59.2988 626.238 -76.325
17.6999 621.139 -57.8061
9.41377 607.277 -33.4346
35.776 590.708 -33.4178
44.7038 604.16 -57.7922
8.76512 606.25 -30.4816
5.85535 601.415 -1.79074
31.9941 584.991 -1.77354
35.1273 589.681 -30.4648
34.863 583.092 1.42246
37.9721 587.828 30.0978
63.4968 570.026 30.1142
60.1662 565.445 1.43935
38.6659 588.827 33.0479
47.5693 602.284 57.3839
73.7225 584.037 57.4003
64.1906 571.024 33.0643
48.8556 604.128 59.6397
62.2493 624.308 75.9098
89.3445 605.396 75.9273
75.0088 585.881 59.6561
63.9338 626.716 77.1241
79.7855 650.546 82.8029
107.993 630.85 82.8197
91.029 607.805 77.1417
81.6146 653.158 82.7943
97.5693 677.144 77.0847
126.901 656.657 77.0999
109.822 633.463 82.8112
99.2621 679.564 75.8614
112.783 699.944 59.6367
143.08 678.779 59.651
128.594 659.077 75.8766
114.078 701.797 57.3837
123.121 715.437 33.0523
154.067 693.817 33.068
144.375 680.632 57.398
123.822 716.439 30.1088
127.001 721.227 1.37094
158.176 699.449 1.38856
154.768 694.82 30.1245
127.002 721.227 -1.81535
123.834 716.423 -30.5518
154.779 694.804 -30.5324
158.176 699.448 -1.79773
123.134 715.418 -33.495
114.104 701.762 -57.822
144.399 680.598 -57.8018
154.08 693.799 -33.4756
112.811 699.907 -60.0745
99.3034 679.512 -76.2922
128.633 659.027 -76.2737
143.106 678.744 -60.0543
97.6118 677.091 -77.5147
81.6661 653.097 -83.2163
109.871 633.402 -83.2003
126.941 656.606 -77.4962
79.8378 650.484 -83.2241
63.9896 626.653 -77.5385
91.0825 607.742 -77.524
108.042 630.789 -83.2081
62.3053 624.245 -76.3235
48.9095 604.069 -60.0488
75.0604 585.822 -60.0342
89.3981 605.333 -76.3091
47.6218 602.226 -57.7906
38.694 588.775 -33.4162
64.216 570.971 -33.3997
73.7727 583.979 -57.776
37.9975 587.78 -30.463
34.8643 583.09 -1.7717
60.1675 565.442 -1.75482
63.5196 569.976 -30.4465
62.9405 563.409 1.44121
66.2712 567.99 30.1161
90.9025 548.991 30.132
87.3558 544.576 1.45771
67.0118 568.954 33.0661
76.5436 581.967 57.4022
101.787 562.491 57.4172
91.6431 549.954 33.082
77.9163 583.747 59.658
92.2521 603.262 75.9291
118.411 583.073 75.9436
103.16 564.271 59.673
94.0491 605.587 77.1434
111.013 628.632 82.8215
138.25 607.604 82.8342
120.208 585.398 77.1578
112.964 631.154 82.8127
130.043 654.349 77.1015
158.365 632.477 77.1134
140.201 610.126 82.8255
131.85 656.685 75.8781
146.336 676.387 59.6525
175.586 653.793 59.6646
160.172 634.812 75.89
147.718 678.175 57.3996
157.411 691.36 33.0696
187.284 668.282 33.0839
176.969 655.581 57.4117
158.159 692.328 30.1263
161.567 696.956 1.39037
191.659 673.709 1.40752
188.033 669.25 30.1407
161.568 696.955 -1.7957
158.17 692.312 -30.5304
188.043 669.235 -30.5107
191.66 673.708 -1.77854
157.423 691.342 -33.4734
147.743 678.141 -57.7996
176.992 655.549 -57.7782
187.296 668.265 -33.4537
146.362 676.351 -60.0521
131.888 656.634 -76.2714
160.208 634.763 -76.2505
175.611 653.759 -60.0306
130.083 654.297 -77.4942
113.013 631.094 -83.1983
140.247 610.067 -83.179
158.403 632.426 -77.4732
111.062 628.572 -83.2063
94.1023 605.524 -77.5222
120.259 585.336 -77.5055
138.297 607.544 -83.187
92.3053 603.199 -76.3075
77.9676 583.688 -60.0326
103.208 564.212 -60.0174
118.462 583.011 -76.2907
76.5935 581.909 -57.7743
67.0369 568.901 -33.398
91.6651 549.901 -33.3818
101.834 562.433 -57.7591
66.2937 567.94 -30.4447
62.9417 563.407 -1.75301
87.3569 544.574 -1.7365
90.922 548.94 -30.4285
90.0282 542.411 1.45951
93.5749 546.825 30.1338
117.26 526.67 30.1489
113.503 522.433 1.47559
94.361 547.751 33.0837
104.505 560.289 57.4189
128.783 539.628 57.4315
118.046 527.597 33.0988
105.961 562 59.6745
121.213 580.802 75.945
146.377 559.382 75.9537
130.239 541.339 59.6871
123.119 583.038 77.1589
141.161 605.244 82.8353
167.364 582.931 82.8379
148.283 561.618 77.1676
143.23 607.669 82.8263
161.394 630.02 77.1142
188.637 606.81 77.1154
169.433 585.357 82.8289
163.31 632.266 75.8908
178.724 651.247 59.6654
206.855 627.27 59.6696
190.553 609.056 75.892
180.19 652.966 57.4128
190.506 665.667 33.0851
219.233 641.175 33.0947
208.322 628.989 57.417
191.3 666.597 30.1423
194.927 671.056 1.40914
223.862 646.384 1.42585
220.027 642.106 30.1519
194.927 671.056 -1.77641
191.31 666.582 -30.5085
220.036 642.092 -30.4849
223.863 646.383 -1.7597
190.517 665.65 -33.4511
180.213 652.934 -57.7756
208.343 628.958 -57.7471
219.243 641.16 -33.4275
178.748 651.213 -60.0278
163.346 632.217 -76.2477
190.587 609.008 -76.2169
206.878 627.237 -59.9993
161.431 629.97 -77.4704
143.276 607.61 -83.1762
169.476 585.299 -83.1476
188.672 606.761 -77.4397
141.207 605.184 -83.1846
123.169 582.976 -77.5031
148.331 561.557 -77.4815
167.408 582.873 -83.156
121.263 580.74 -76.2888
106.01 561.941 -60.0155
130.285 541.28 -59.9986
146.425 559.321 -76.2672
104.552 560.23 -57.7574
94.3827 547.698 -33.3801
118.064 527.543 -33.364
128.827 539.569 -57.7405
93.5942 546.774 -30.4267
90.0291 542.408 -1.73472
113.504 522.43 -1.71864
117.276 526.619 -30.4106
116.068 520.142 1.47725
119.824 524.379 30.1506
142.508 503.112 30.163
138.548 499.061 1.49279
120.655 525.266 33.1001
131.392 537.297 57.4328
154.652 515.5 57.4368
143.339 504 33.1126
132.929 538.936 59.6875
149.067 556.98 75.9542
173.187 534.384 75.9427
156.19 517.139 59.6916
151.079 559.121 77.1666
170.159 580.435 82.8368
195.281 556.904 82.7998
175.199 536.526 77.1551
172.34 582.758 82.8263
191.544 604.211 77.1128
217.632 579.705 77.0535
197.462 559.227 82.7893
193.563 606.36 75.889
209.866 624.574 59.6666
236.776 599.23 59.6128
219.651 581.855 75.8297
211.411 626.219 57.4152
222.322 638.406 33.0929
249.781 612.499 33.0677
238.321 600.875 57.3614
223.159 639.296 30.1524
226.994 643.574 1.42634
254.646 617.47 1.44251
250.618 613.389 30.1272
226.995 643.573 -1.75655
223.168 639.282 -30.4818
250.626 613.376 -30.4245
254.647 617.469 -1.74038
222.332 638.39 -33.4221
211.432 626.188 -57.7417
238.341 600.845 -57.6563
249.791 612.484 -33.3648
209.888 624.541 -59.9928
193.597 606.313 -76.2104
219.682 581.809 -76.1201
236.797 599.198 -59.9073
191.579 604.162 -77.4337
172.383 582.7 -83.1416
197.502 559.17 -83.0744
217.665 579.658 -77.3434
170.203 580.376 -83.1516
151.126 559.06 -77.4771
175.243 536.466 -77.4362
195.321 556.847 -83.0845
149.114 556.919 -76.2643
132.975 538.878 -59.9957
156.232 517.081 -59.9712
173.231 534.324 -76.2235
131.435 537.239 -57.7385
120.673 525.213 -33.3619
143.353 503.946 -33.3442
154.693 515.442 -57.7139
119.84 524.328 -30.4088
116.068 520.139 -1.71684
138.549 499.058 -1.70129
142.521 503.061 -30.3911
140.998 496.649 1.49432
144.959 500.7 30.1646
166.585 478.361 30.1766
162.429 474.506 1.50921
145.832 501.547 33.1135
157.145 513.047 57.4377
179.323 490.148 57.4413
167.458 479.208 33.1255
158.762 514.609 59.6911
175.759 531.855 75.9422
198.76 508.115 75.9304
180.939 491.711 59.6947
177.872 533.898 77.1524
197.955 554.275 82.7972
221.93 529.532 82.7607
200.873 510.157 77.1406
200.244 556.488 82.7839
220.414 576.967 77.0481
245.335 551.18 76.9907
224.219 531.746 82.7474
222.53 579.012 75.8235
239.655 596.388 59.6066
265.368 569.716 59.5549
247.451 553.226 75.766
241.275 597.953 57.357
252.735 609.577 33.0634
278.975 582.312 33.0393
266.988 571.281 57.3054
253.612 610.424 30.1267
257.64 614.504 1.442
284.065 587.032 1.45746
279.852 583.159 30.1026
257.64 614.504 -1.73636
253.62 610.41 -30.4204
279.86 583.147 -30.3656
284.065 587.031 -1.7209
252.744 609.562 -33.357
241.295 597.923 -57.6484
267.006 571.253 -57.5665
278.984 582.298 -33.3021
239.676 596.356 -59.8977
222.561 578.967 -76.1105
247.48 553.182 -76.0233
265.387 569.686 -59.8157
220.446 576.92 -77.3347
200.283 556.432 -83.0657
224.256 531.691 -83.0003
245.364 551.135 -77.2475
197.995 554.218 -83.0786
177.916 533.838 -77.4303
200.914 510.099 -77.3904
221.967 529.477 -83.0132
175.803 531.795 -76.2199
158.803 514.552 -59.9677
180.977 491.654 -59.9439
198.8 508.056 -76.18
157.186 512.989 -57.7117
145.846 501.493 -33.3419
167.468 479.154 -33.325
179.36 490.091 -57.6879
144.971 500.649 -30.3893
140.999 496.646 -1.69949
162.429 474.503 -1.68461
166.593 478.311 -30.3723
164.759 471.978 1.51073
168.915 475.833 30.1781
189.426 452.464 30.1914
185.085 448.815 1.52492
169.829 476.636 33.1266
181.694 487.577 57.4424
202.724 463.616 57.4528
190.339 453.267 33.1399
183.384 489.059 59.6949
201.205 505.463 75.9307
223.013 480.614 75.9364
204.415 465.098 59.7053
203.416 507.4 77.1394
224.473 526.775 82.7596
247.198 500.874 82.7603
225.224 482.551 77.1452
226.867 528.873 82.7449
247.982 548.307 76.9882
271.628 521.348 76.9899
249.591 502.971 82.7457
250.194 550.245 75.7632
268.111 566.735 59.5521
292.537 538.881 59.5576
273.84 523.286 75.7649
269.803 568.218 57.3037
281.79 579.249 33.0376
306.737 550.797 33.0474
294.229 540.364 57.3092
282.706 580.052 30.1031
286.919 583.924 1.4579
312.049 555.262 1.47259
307.653 551.599 30.1129
286.92 583.924 -1.718
282.714 580.039 -30.3627
307.66 551.587 -30.3433
312.049 555.261 -1.70331
281.799 579.235 -33.2971
269.821 568.19 -57.5615
294.246 540.337 -57.5382
306.745 550.783 -33.2777
268.13 566.705 -59.8096
250.222 550.201 -76.0172
273.866 523.244 -75.9907
292.554 538.852 -59.7863
248.011 548.262 -77.2418
226.903 528.818 -82.9946
249.625 502.919 -82.9678
271.655 521.305 -77.2153
224.51 526.72 -83.0089
203.456 507.342 -77.3861
225.26 482.495 -77.365
247.231 500.821 -82.9821
201.245 505.405 -76.1772
183.422 489.002 -59.9411
204.449 465.043 -59.9253
223.05 480.557 -76.1561
181.73 487.52 -57.6859
169.839 476.583 -33.323
190.346 453.214 -33.3088
202.757 463.56 -57.6701
168.924 475.783 -30.3707
164.76 471.975 -1.68294
185.086 448.813 -1.66876
189.43 452.414 -30.3564
187.29 446.176 1.52641
191.63 449.824 30.1929
210.976 425.474 30.2056
206.461 422.042 1.53989
192.581 450.582 33.1412
204.967 460.931 57.4541
224.803 435.964 57.4644
211.927 426.232 33.1539
206.727 462.329 59.7063
225.326 477.845 75.9374
245.895 451.953 75.945
226.564 437.362 59.7166
227.628 479.672 77.1458
249.602 497.995 82.7609
271.035 471.01 82.7679
248.197 453.78 77.1534
252.095 499.973 82.7462
274.131 518.349 76.9904
296.434 490.269 77
273.528 472.988 82.7532
276.435 520.177 75.7657
295.132 535.772 59.5584
318.174 506.761 59.57
298.737 492.097 75.7753
296.895 537.17 57.3103
309.402 547.603 33.0485
332.938 517.971 33.0616
319.936 508.16 57.322
310.356 548.36 30.1143
314.752 552.023 1.47402
338.461 522.172 1.48805
333.892 518.728 30.1274
314.752 552.022 -1.70156
310.364 548.348 -30.3415
333.899 518.717 -30.3268
338.462 522.172 -1.68753
309.411 547.59 -33.2757
296.911 537.144 -57.5362
319.951 508.135 -57.5204
332.946 517.959 -33.2609
295.15 535.744 -59.784
276.461 520.136 -75.9884
298.761 492.057 -75.9711
318.19 506.735 -59.7682
274.158 518.306 -77.2128
252.128 499.921 -82.9653
273.558 472.938 -82.9461
296.458 490.228 -77.1955
249.635 497.942 -82.9798
227.664 479.616 -77.3626
248.23 453.725 -77.3447
271.066 470.959 -82.9605
225.362 477.789 -76.1542
206.762 462.274 -59.9234
226.595 437.308 -59.9088
245.928 451.898 -76.1363
204.999 460.875 -57.6685
192.588 450.53 -33.3072
211.93 426.181 -33.2937
224.832 435.91 -57.654
191.635 449.775 -30.3549
187.29 446.173 -1.66722
206.461 422.04 -1.65375
210.977 425.426 -30.3414
208.534 419.298 1.54129
213.049 422.729 30.207
231.186 397.454 30.2187
226.509 394.247 1.55398
214.036 423.44 33.1551
226.912 433.172 57.4656
245.51 407.258 57.4745
232.174 398.164 33.1668
228.739 434.483 59.7175
248.07 449.074 75.9459
267.354 422.202 75.9522
247.336 408.569 59.7264
250.458 450.786 77.1542
273.296 468.016 82.7687
293.388 440.015 82.7751
269.742 423.914 77.1605
275.882 469.87 82.7541
298.788 487.152 77.0009
319.693 458.017 77.0102
295.974 441.869 82.7605
301.178 488.865 75.7764
320.615 503.529 59.5712
342.214 473.429 59.5826
322.083 459.731 75.7857
322.443 504.84 57.3233
335.445 514.652 33.063
357.51 483.905 33.0757
344.043 474.74 57.3348
336.435 515.361 30.1289
341.004 518.805 1.48951
363.232 487.832 1.50272
358.499 484.614 30.1416
341.005 518.805 -1.68598
336.442 515.35 -30.3252
358.506 484.604 -30.3116
363.232 487.831 -1.67277
335.453 514.64 -33.2592
322.458 504.815 -57.5187
344.056 474.717 -57.5043
357.517 483.894 -33.2457
320.63 503.503 -59.7665
301.202 488.826 -75.9694
322.105 459.694 -75.9533
342.229 473.404 -59.7521
298.812 487.111 -77.1936
275.912 469.821 -82.9442
296.001 441.822 -82.9259
319.716 457.979 -77.1776
273.326 467.966 -82.9585
250.491 450.732 -77.3427
269.772 423.863 -77.325
293.416 439.967 -82.9402
248.103 449.019 -76.1345
228.769 434.429 -59.907
247.364 408.517 -59.8925
267.384 422.15 -76.1167
226.941 433.118 -57.6524
214.039 423.389 -33.2921
232.173 398.115 -33.2792
245.535 407.206 -57.6379
213.05 422.681 -30.3399
208.534 419.295 -1.65228
226.509 394.244 -1.63958
231.184 397.407 -30.327
228.446 391.403 1.55528
233.124 394.61 30.22
250.013 368.466 30.2307
245.182 365.49 1.56712
234.145 395.271 33.1679
247.48 404.365 57.4755
264.797 377.564 57.4828
251.034 369.127 33.1786
249.369 405.585 59.7271
269.386 419.219 75.9529
287.34 391.433 75.9568
266.686 378.785 59.7343
271.854 420.814 77.161
295.5 436.914 82.7756
314.205 407.965 82.7798
289.809 393.028 77.165
298.173 438.641 82.7613
321.893 454.789 77.011
341.353 424.672 77.0185
316.878 409.692 82.7655
324.364 456.384 75.7868
344.494 470.082 59.5837
364.602 438.965 59.594
343.824 426.267 75.7944
346.385 471.302 57.336
359.852 480.467 33.0769
380.394 448.679 33.0886
366.493 440.185 57.3463
360.875 481.127 30.1429
365.608 484.345 1.50409
386.302 452.321 1.51639
381.417 449.339 30.1546
365.608 484.344 -1.67131
360.881 481.117 -30.3102
381.423 449.33 -30.2974
386.302 452.32 -1.65901
359.859 480.456 -33.2441
346.399 471.279 -57.5028
366.505 440.164 -57.489
380.4 448.669 -33.2313
344.508 470.058 -59.7504
324.385 456.347 -75.9517
343.843 426.232 -75.9356
364.615 438.943 -59.7366
321.915 454.751 -77.1757
298.2 438.593 -82.924
316.902 409.647 -82.9051
341.373 424.636 -77.1596
295.528 436.866 -82.9382
271.884 420.762 -77.3229
289.835 392.979 -77.3044
314.229 407.92 -82.9193
269.416 419.167 -76.1149
249.396 405.534 -59.8906
266.709 378.736 -59.876
287.367 391.384 -76.0964
247.506 404.313 -57.6364
234.143 395.222 -33.2776
251.028 369.081 -33.2653
264.819 377.515 -57.6218
233.121 394.563 -30.3256
228.446 391.4 -1.63818
245.182 365.488 -1.62634
250.006 368.422 -30.3132
246.979 362.553 1.56829
251.81 365.529 30.2319
267.412 338.576 30.2415
262.441 335.837 1.5792
252.862 366.141 33.1794
266.625 374.577 57.4837
282.623 346.952 57.4891
268.465 339.188 33.1891
268.571 375.705 59.7348
289.225 388.353 75.9573
305.809 359.72 75.9583
284.568 348.08 59.7402
291.768 389.827 77.1652
316.164 404.765 82.7801
333.437 374.941 82.7813
308.352 361.194 77.1662
318.917 406.36 82.766
343.393 421.34 77.0191
361.364 390.315 77.0245
336.191 376.536 82.7672
345.938 422.813 75.7952
366.716 435.511 59.5949
385.287 403.454 59.6038
363.91 391.788 75.8006
368.665 436.637 57.3474
382.566 445.131 33.0897
401.539 412.378 33.1003
387.235 404.58 57.3564
383.621 445.74 30.1559
388.506 448.722 1.51765
407.621 415.725 1.52909
402.594 412.987 30.1665
388.506 448.722 -1.65764
383.626 445.731 -30.296
402.6 412.979 -30.2839
407.621 415.724 -1.64621
382.572 445.121 -33.2299
368.677 436.616 -57.4875
387.247 404.561 -57.4741
401.546 412.369 -33.2177
366.729 435.489 -59.735
345.958 422.779 -75.9339
363.927 391.756 -75.9175
385.299 403.433 -59.7215
343.412 421.304 -77.1576
318.941 406.316 -82.9031
336.213 376.495 -82.8831
361.382 390.282 -77.1412
316.188 404.72 -82.9171
291.794 389.779 -77.3023
308.375 361.148 -77.2825
333.459 374.898 -82.8971
289.251 388.305 -76.0945
268.594 375.657 -59.8741
284.588 348.035 -59.8593
305.832 359.674 -76.0747
266.647 374.529 -57.6202
252.856 366.094 -33.2637
268.456 339.144 -33.2522
282.641 346.906 -57.6054
251.803 365.485 -30.3119
246.979 362.551 -1.62502
262.441 335.835 -1.61411
267.402 338.535 -30.3003
264.094 332.814 1.58025
269.065 335.553 30.2426
283.348 307.85 30.2511
278.248 305.351 1.59011
270.146 336.113 33.1897
284.304 343.878 57.4897
298.947 315.492 57.493
284.429 308.41 33.1982
286.302 344.911 59.7403
307.543 356.551 75.9584
322.72 327.14 75.9559
300.945 316.525 59.7435
310.153 357.902 77.1661
335.239 371.648 82.7812
351.044 341.023 82.7791
325.33 328.491 77.1637
338.066 373.11 82.7675
363.239 386.888 77.0247
379.681 355.033 77.0275
353.871 342.485 82.7653
365.854 388.236 75.8013
387.231 399.901 59.6045
404.224 366.98 59.6117
382.296 356.381 75.8041
389.233 400.93 57.3573
403.537 408.729 33.1013
420.901 375.089 33.1107
406.226 368.009 57.3646
404.62 409.285 30.1676
409.647 412.023 1.53023
427.141 378.13 1.54057
421.985 375.645 30.177
409.647 412.022 -1.64494
404.626 409.277 -30.2826
421.99 375.638 -30.2715
427.142 378.13 -1.6346
403.543 408.72 -33.2163
389.244 400.911 -57.4727
406.236 367.992 -57.4598
420.907 375.081 -33.2052
387.243 399.881 -59.7198
365.871 388.204 -75.9158
382.312 356.351 -75.8989
404.235 366.962 -59.707
363.257 386.855 -77.1391
338.088 373.068 -82.881
353.89 342.447 -82.8596
379.697 355.003 -77.1222
335.261 371.607 -82.8948
310.176 357.857 -77.2802
325.35 328.449 -77.259
351.063 340.985 -82.8733
307.566 356.506 -76.0727
286.321 344.866 -59.8572
300.961 316.483 -59.8422
322.74 327.098 -76.0514
284.322 343.832 -57.6038
270.137 336.07 -33.2506
284.416 308.37 -33.24
298.962 315.45 -57.5888
269.055 335.512 -30.2991
264.094 332.812 -1.61288
278.248 305.349 -1.60302
283.334 307.812 -30.2884
279.753 302.248 1.59102
284.853 304.747 30.252
297.785 276.352 30.2593
292.568 274.096 1.59979
285.96 305.255 33.1987
300.478 312.337 57.4934
313.735 283.253 57.4942
298.891 276.86 33.206
302.523 313.275 59.7433
324.298 323.89 75.9556
338.036 293.771 75.949
315.78 284.192 59.7441
326.97 325.115 77.1631
352.684 337.648 82.7786
366.986 306.3 82.7726
340.707 294.996 77.1565
355.578 338.972 82.7652
381.388 351.52 77.0274
396.266 318.915 77.0274
369.88 307.624 82.7592
384.066 352.739 75.8045
405.994 363.339 59.6121
421.374 329.633 59.6178
398.944 320.134 75.8046
408.044 364.267 57.3654
422.719 371.346 33.1114
438.437 336.898 33.1197
423.424 330.561 57.371
423.829 371.848 30.178
428.986 374.333 1.54159
444.822 339.625 1.55088
439.547 337.4 30.1863
428.986 374.333 -1.63344
423.834 371.841 -30.2704
439.552 337.394 -30.2602
444.822 339.624 -1.62415
422.725 371.339 -33.2038
408.054 364.25 -57.4584
423.434 330.547 -57.446
438.442 336.892 -33.1937
406.004 363.321 -59.7052
384.081 352.71 -75.8971
398.959 320.107 -75.8795
421.384 329.618 -59.6928
381.404 351.49 -77.12
355.597 338.934 -82.8574
369.897 307.59 -82.8342
396.281 318.887 -77.1023
352.703 337.609 -82.8708
326.99 325.073 -77.2565
340.725 294.959 -77.2331
367.003 306.265 -82.8477
324.318 323.848 -76.0492
302.539 313.233 -59.84
315.794 284.154 -59.8245
338.053 293.734 -76.0258
300.493 312.295 -57.5873
285.947 305.215 -33.2384
298.876 276.824 -33.2287
313.748 283.216 -57.5718
284.839 304.709 -30.2873
279.752 302.246 -1.60188
292.567 274.094 -1.59311
297.768 276.317 -30.2776
293.922 270.919 1.60055
299.139 273.175 30.2601
310.693 244.146 30.2662
305.372 242.132 1.60824
300.269 273.632 33.2062
315.113 280.025 57.4943
326.957 250.307 57.4923
311.823 244.602 33.2123
317.2 280.867 59.7434
339.455 290.447 75.9483
351.725 259.694 75.9368
329.044 251.149 59.7413
342.182 291.545 77.1555
368.46 302.849 82.7716
381.23 270.859 82.7614
354.452 260.793 77.144
371.414 304.034 82.7587
397.801 315.325 77.0269
411.086 282.052 77.0238
384.184 272.044 82.7485
400.536 316.411 75.8047
422.965 325.911 59.6179
436.701 291.501 59.6221
413.82 283.138 75.8015
425.06 326.735 57.3717
440.072 333.072 33.1203
454.111 297.896 33.1277
438.796 292.325 57.3759
441.206 333.517 30.1872
446.481 335.742 1.55179
460.626 300.299 1.56011
455.245 298.341 30.1946
446.482 335.742 -1.62311
441.211 333.512 -30.2592
455.25 298.337 -30.2501
460.626 300.299 -1.61479
440.078 333.066 -33.1924
425.069 326.721 -57.4447
438.805 292.313 -57.4329
454.117 297.891 -33.1833
422.975 325.895 -59.691
400.55 316.385 -75.8777
413.834 283.114 -75.8589
436.711 291.488 -59.6792
397.816 315.298 -77.1
371.432 304 -82.8318
384.2 272.013 -82.8065
411.1 282.027 -77.0812
368.478 302.814 -82.8449
342.199 291.508 -77.2303
354.467 260.759 -77.204
381.246 270.828 -82.8195
339.473 290.409 -76.0234
317.214 280.829 -59.8221
329.056 251.116 -59.8057
351.741 259.661 -75.9971
315.125 279.987 -57.5702
300.253 273.595 -33.2271
311.804 244.57 -33.2182
326.967 250.274 -57.5538
299.122 273.141 -30.2765
293.921 270.917 -1.59206
305.371 242.13 -1.58436
310.674 244.115 -30.2676
306.572 238.888 1.60884
311.893 240.901 30.2668
322.046 211.293 30.2715
316.632 209.519 1.61537
313.044 241.306 33.2121
328.178 247.012 57.4922
338.587 216.723 57.4868
323.197 211.697 33.2168
330.302 247.758 59.7401
352.984 256.302 75.9355
363.763 224.99 75.9184
340.711 217.47 59.7348
355.758 257.275 77.1424
382.536 267.341 82.7598
393.749 234.796 82.7447
366.537 225.963 77.1252
385.544 268.386 82.7475
412.445 278.394 77.0228
424.112 244.536 77.0161
396.757 235.841 82.7324
415.231 279.344 75.8013
438.112 287.707 59.6219
450.179 252.672 59.625
426.897 245.486 75.7947
440.245 288.424 57.3764
455.561 293.994 33.1282
467.894 258.172 33.1345
452.312 253.389 57.3795
456.716 294.382 30.1954
462.096 296.34 1.56091
474.521 260.245 1.568
469.049 258.559 30.2016
462.097 296.34 -1.61388
456.721 294.378 -30.2492
469.054 258.558 -30.2415
474.521 260.245 -1.60679
455.566 293.99 -33.1821
440.255 288.412 -57.4317
452.322 253.38 -57.4212
467.899 258.17 -33.1744
438.121 287.694 -59.6773
415.244 279.32 -75.8571
426.911 245.465 -75.8372
450.188 252.662 -59.6668
412.459 278.369 -77.0787
385.559 268.356 -82.8039
396.772 235.813 -82.776
424.126 244.514 -77.0588
382.552 267.31 -82.8164
355.774 257.242 -77.2009
366.551 225.934 -77.1711
393.764 234.768 -82.7885
352.999 256.27 -75.9944
330.314 247.725 -59.8029
340.721 217.442 -59.7853
363.777 224.962 -75.9646
328.187 246.979 -57.5521
313.025 241.275 -33.2166
323.176 211.671 -33.2085
338.595 216.696 -57.5345
311.874 240.871 -30.2667
306.571 238.886 -1.5834
316.631 209.517 -1.57687
322.025 211.267 -30.2586
317.677 206.213 1.61577
323.091 207.987 30.2719
331.827 177.85 30.2745
326.332 176.31 1.6211
324.259 208.341 33.2163
339.649 213.367 57.4863
348.606 182.568 57.4763
332.995 178.204 33.2188
341.806 214.019 59.7329
364.857 221.539 75.9165
374.129 189.745 75.8925
350.762 183.221 59.7229
367.673 222.388 77.123
394.885 231.221 82.7425
404.523 198.212 82.7209
376.944 190.593 77.099
397.939 232.124 82.7309
425.294 240.82 77.0146
435.325 206.462 77.0045
407.577 199.115 82.7093
428.124 241.629 75.7942
451.405 248.815 59.6245
461.782 213.235 59.627
438.155 207.271 75.7841
453.573 249.422 57.3799
469.154 254.205 33.1349
479.756 217.817 33.1397
463.95 213.842 57.3824
470.327 254.533 30.2023
475.799 256.219 1.56867
486.477 219.555 1.57442
480.929 218.145 30.2071
475.8 256.218 -1.60605
470.333 254.531 -30.2407
480.935 218.146 -30.2343
486.477 219.555 -1.6003
469.16 254.203 -33.1735
453.582 249.413 -57.4202
463.96 213.836 -57.4119
479.762 217.818 -33.1671
451.415 248.805 -59.665
428.137 241.609 -75.8354
438.169 207.253 -75.8149
461.793 213.228 -59.6567
425.308 240.798 -77.056
397.954 232.097 -82.7732
407.592 199.091 -82.7413
435.339 206.442 -77.0354
394.9 231.194 -82.7849
367.687 222.36 -77.1676
376.958 190.57 -77.1333
404.538 198.188 -82.7531
364.871 221.512 -75.9615
341.815 213.993 -59.7822
350.771 183.201 -59.762
374.142 189.722 -75.9272
339.657 213.34 -57.5327
324.239 208.315 -33.2067
332.973 178.184 -33.1987
348.613 182.548 -57.5125
323.07 207.962 -30.2577
317.676 206.212 -1.57596
326.33 176.309 -1.57063
331.804 177.831 -30.2497
327.219 172.948 1.62116
332.714 174.487 30.2745
340.03 143.871 30.2705
334.467 142.558 1.62535
333.898 174.792 33.2174
349.508 179.157 57.4749
357.008 147.91 57.4535
341.214 144.176 33.2134
351.692 179.72 59.7199
375.058 186.243 75.8895
382.812 154.047 75.8533
359.191 148.473 59.6984
377.908 186.971 77.0956
405.487 194.589 82.7175
413.537 161.216 82.682
385.662 154.775 77.0594
408.58 195.35 82.707
436.329 202.697 77.0022
444.708 167.917 76.9887
416.63 161.976 82.6714
439.196 203.361 75.7833
462.823 209.325 59.6263
471.484 173.275 59.6271
447.575 168.581 75.7698
465.019 209.817 57.3826
480.824 213.792 33.1399
489.659 176.919 33.1405
473.68 173.767 57.3834
482.012 214.06 30.2076
487.56 215.469 1.57487
496.452 178.318 1.57893
490.846 177.187 30.2082
487.561 215.47 -1.59967
482.018 214.061 -30.2337
490.854 177.191 -30.2265
496.452 178.318 -1.59561
480.831 213.793 -33.1662
465.029 209.811 -57.4111
473.692 173.764 -57.4047
489.666 176.924 -33.1591
462.834 209.318 -59.6549
439.21 203.342 -75.8131
447.59 168.564 -75.7924
471.497 173.271 -59.6485
436.343 202.677 -77.0321
408.595 195.326 -82.738
416.646 161.956 -82.6947
444.723 167.899 -77.0114
405.502 194.566 -82.7487
377.922 186.948 -77.1289
385.676 154.758 -77.0844
413.553 161.195 -82.7054
375.071 186.221 -75.9231
351.701 179.7 -59.7579
359.2 148.462 -59.7278
382.826 154.031 -75.8787
349.515 179.138 -57.5101
333.876 174.773 -33.1963
341.192 144.166 -33.1836
357.015 147.899 -57.4799
332.692 174.469 -30.2487
327.218 172.947 -1.56961
334.465 142.558 -1.56542
340.008 143.861 -30.236
335.201 139.146 1.62421
340.764 140.459 30.2694
346.722 109.424 30.2322
341.112 108.328 1.62726
341.959 140.718 33.2089
357.753 144.452 57.4489
363.835 112.829 57.3701
347.917 109.682 33.1717
359.956 144.929 59.6912
383.577 150.504 75.8461
389.823 118.006 75.7475
366.038 113.307 59.6124
386.452 151.117 77.0518
414.327 157.557 82.6743
420.77 123.926 82.5756
392.698 118.619 76.9532
417.452 158.172 82.6659
445.53 164.113 76.9833
452.211 128.976 76.9405
423.895 124.541 82.5672
448.424 164.624 75.7673
472.334 169.318 59.6245
479.198 132.862 59.5939
455.106 129.487 75.7245
474.55 169.693 57.382
490.528 172.845 33.139
497.487 135.555 33.1147
481.414 133.237 57.3514
491.726 173.052 30.2077
497.332 174.182 1.57846
504.322 136.611 1.57969
498.685 135.761 30.1834
497.332 174.183 -1.59456
491.734 173.056 -30.2255
498.696 135.77 -30.199
504.322 136.612 -1.59333
490.537 172.85 -33.1571
474.563 169.691 -57.4027
481.431 133.238 -57.3698
497.499 135.564 -33.1306
472.347 169.315 -59.6454
448.44 164.608 -75.7893
455.126 129.473 -75.7426
479.216 132.862 -59.6125
445.546 164.096 -77.0053
417.469 158.152 -82.6886
423.915 124.524 -82.5842
452.231 128.961 -76.9586
414.344 157.537 -82.697
386.467 151.1 -77.076
392.717 118.609 -76.9705
420.79 123.909 -82.5926
383.591 150.488 -75.8706
359.966 144.919 -59.7197
366.052 113.308 -59.6325
389.841 117.997 -75.765
357.761 144.442 -57.4745
341.937 140.708 -33.1782
347.898 109.686 -33.1336
363.847 112.831 -57.3873
340.742 140.45 -30.234
335.199 139.146 -1.56339
341.111 108.328 -1.56034
346.703 109.427 -30.1895
341.722 104.88 1.61992
347.332 105.975 30.2248
352.373 74.6786 30.0043
346.787 73.7891 1.62034
348.529 106.191 33.1503
364.447 109.338 57.3487
369.431 77.5026 56.9456
353.57 74.8944 32.9297
366.653 109.738 59.5808
390.438 114.438 75.7158
395.334 81.8281 75.1918
371.637 77.9031 59.1776
393.32 114.941 76.9192
421.392 120.247 82.5416
426.206 86.4642 82.0391
398.216 82.3311 76.3952
424.527 120.709 82.5378
452.843 125.145 76.9112
457.591 89.6719 76.5065
429.341 86.9265 82.0353
455.743 125.493 75.7016
479.835 128.867 59.571
484.468 92.0235 59.2262
460.491 90.0192 75.297
482.054 129.12 57.3347
498.127 131.439 33.098
502.703 93.7514 32.8938
486.687 92.2766 56.99
499.326 131.583 30.1768
504.963 132.433 1.5731
509.524 94.4637 1.56111
503.902 93.8956 29.9726
504.963 132.434 -1.58768
499.337 131.592 -30.1933
503.912 93.9087 -30.0039
509.524 94.4644 -1.59967
498.139 131.448 -33.114
482.071 129.122 -57.3532
486.716 92.2833 -56.9986
502.714 93.7651 -32.9246
479.853 128.868 -59.5888
455.763 125.478 -75.719
460.52 90.0064 -75.3032
484.498 92.0284 -59.2342
452.863 125.13 -76.9284
424.547 120.693 -82.554
429.37 86.913 -82.0434
457.62 89.6582 -76.5126
421.412 120.231 -82.558
393.339 114.931 -76.9358
398.243 82.3279 -76.4052
426.235 86.4511 -82.0473
390.456 114.429 -75.7325
366.667 109.74 -59.6
371.66 77.9186 -59.1869
395.36 81.8262 -75.2019
364.459 109.341 -57.3651
348.511 106.196 -33.1114
353.562 74.9161 -32.8861
369.453 77.5191 -56.952
347.313 105.98 -30.1816
341.721 104.88 -1.55243
346.786 73.7898 -1.552
352.364 74.6999 -29.9562
347.465 70.3725 1.57665
353.051 71.262 29.9606
360.153 40.6253 28.6611
354.833 39.8374 1.57345
354.216 71.4454 32.8079
370.077 74.0537 56.8238
376.426 43.1139 54.4508
361.318 40.8088 31.5084
372.226 74.3946 58.9999
395.924 78.3196 75.0141
401.183 46.8642 71.9585
378.576 43.4549 56.6269
398.73 78.7407 76.1909
426.72 82.8738 81.8348
430.708 50.9768 78.57
403.989 47.2852 73.1353
429.763 83.2487 81.8394
458.013 85.9941 76.3106
460.59 54.2839 73.1834
433.751 51.3518 78.5747
460.842 86.269 75.135
484.82 88.2732 59.0643
486.167 56.7676 56.6285
463.42 54.5588 72.0079
486.989 88.473 56.881
503.005 89.9478 32.7849
503.571 58.4852 31.4537
488.336 56.9674 54.4453
504.179 90.0618 29.933
509.801 90.6299 1.5215
510.094 59.1378 1.50913
504.745 58.5992 28.6018
509.801 90.6296 -1.56271
504.188 90.0739 -29.967
504.743 58.5705 -28.6478
510.094 59.1375 -1.57509
503.016 89.9597 -32.8157
487.018 88.478 -56.8897
488.367 56.9408 -54.4399
503.571 58.4563 -31.4965
484.85 88.2775 -59.0708
460.872 86.2555 -75.1397
463.453 54.5458 -72.0037
486.199 56.7404 -56.6211
458.042 85.9807 -76.3158
429.792 83.2355 -81.8465
433.784 51.3438 -78.5761
460.623 54.2709 -73.1797
426.749 82.8613 -81.8423
398.757 78.7382 -76.2002
404.018 47.2906 -73.1425
430.741 50.9697 -78.5718
395.95 78.3191 -75.0238
372.251 74.4115 -59.0088
378.597 43.4935 -56.6388
401.212 46.8716 -71.9661
370.099 74.0721 -56.83
354.209 71.4691 -32.7641
361.305 40.8525 -31.4711
376.445 43.1541 -54.46
353.043 71.2842 -29.9127
347.465 70.3742 -1.50843
354.832 39.8391 -1.51163
360.139 40.6675 -28.6197
355.686 36.4869 1.48824
361.006 37.2749 28.5759
369.002 7.3754 26.8069
364.011 6.69185 1.48004
362.107 37.4359 31.2673
377.215 39.7411 54.2097
384.27 9.55237 50.9446
370.104 7.53648 29.4983
379.248 40.0386 56.2675
401.855 43.4479 71.599
407.49 12.8167 67.3232
386.302 9.84993 53.0024
404.509 43.8195 72.7128
431.228 47.5111 78.1475
435.151 16.4837 73.4744
410.144 13.1883 68.437
434.103 47.867 78.1483
460.942 50.7992 72.757
463.074 19.7369 68.4177
438.026 16.8396 73.4751
463.605 51.0866 71.6411
486.352 53.2954 56.2618
486.937 22.3241 52.9228
465.737 20.0243 67.3018
488.393 53.5064 54.1988
503.627 55.0242 31.2073
503.142 24.0793 29.3935
488.978 22.5351 50.8599
504.732 55.1388 28.515
510.081 55.6774 1.42238
509.213 24.7104 1.43352
504.247 24.194 26.7012
510.081 55.6749 -1.48816
504.73 55.1079 -28.5609
504.242 24.131 -26.7289
509.212 24.7078 -1.47702
503.627 54.991 -31.2493
488.423 53.4755 -54.1928
488.997 22.4792 -50.8501
503.139 24.0142 -29.4174
486.384 53.2667 -56.2537
463.638 51.072 -71.6363
465.76 20.0109 -67.2981
486.958 22.2704 -52.9111
460.974 50.7864 -72.7529
434.136 47.8593 -78.1492
438.048 16.8343 -73.4748
463.097 19.7253 -68.4147
431.26 47.5044 -78.149
404.538 43.8254 -72.7196
410.164 13.196 -68.441
435.173 16.4794 -73.4746
401.883 43.4567 -71.6066
379.268 40.0785 -56.2793
386.31 9.90602 -53.0149
407.51 12.8273 -67.3279
377.234 39.7836 -54.2196
362.094 37.4819 -31.2306
370.083 7.60241 -29.4747
384.275 9.61106 -50.9552
360.992 37.3182 -28.5356
355.685 36.4898 -1.42758
364.01 6.6947 -1.43579
368.981 7.4387 -26.7797
365.039 3.63489 1.35032
370.03 4.31844 26.6771
380.26 -21.1437 23.7822
375.838 -21.7652 1.33047
371.038 4.45931 29.1335
385.204 6.4752 50.5799
393.866 -19.2438 45.2689
381.268 -21.0028 26.2386
387.065 6.73293 52.4574
408.253 9.69971 66.7782
414.611 -16.4594 59.8157
395.727 -18.9861 47.1464
410.681 10.026 67.7905
435.687 13.3214 72.8279
439.276 -13.1863 65.2182
417.039 -16.1331 60.8279
438.31 13.6568 72.8248
463.359 16.5542 67.7674
464.082 -9.92161 60.6898
441.899 -12.8509 65.2151
465.785 16.8492 66.7496
486.985 19.149 52.3706
485.269 -7.15336 46.9523
466.508 -9.62659 59.672
488.842 19.3717 50.4918
503.006 20.9159 29.0254
499.639 -5.28284 26.1098
487.127 -6.93067 45.0734
504.011 21.0354 26.5738
508.977 21.5518 1.30611
505.033 -4.58577 1.32561
500.644 -5.1634 23.6583
508.977 21.5499 -1.34563
504.007 20.9731 -26.5976
500.643 -5.16614 -23.6587
505.033 -4.58767 -1.32613
503.002 20.8518 -29.0484
488.86 19.3169 -50.4811
487.127 -6.93524 -45.0734
499.639 -5.28743 -26.1096
487.003 19.0961 -52.3596
465.805 16.8367 -66.7467
466.508 -9.629 -59.6717
485.269 -7.15599 -46.9519
463.38 16.543 -67.7645
438.331 13.652 -72.8246
441.9 -12.8519 -65.2148
464.083 -9.92266 -60.6895
435.707 13.3171 -72.8278
410.699 10.0338 -67.7942
417.04 -16.1334 -60.8279
439.277 -13.1867 -65.218
408.27 9.70906 -66.782
387.07 6.78778 -52.469
395.728 -18.9845 -47.1465
414.611 -16.4581 -59.8156
385.208 6.53215 -50.591
371.016 4.5235 -29.1105
381.267 -20.9991 -26.2382
393.866 -19.2401 -45.2685
370.009 4.3808 -26.6535
365.038 3.63681 -1.30963
375.837 -21.7633 -1.32948
380.26 -21.1418 -23.7812
-315.565 731.551 25.3777
-316.729 726.537 -0.386116
-315.514 731.529 -26.151
-312.139 745.755 -47.9583
-307.16 767.025 -62.4787
-301.475 792.106 -67.5475
-296.137 817.266 -62.4741
-291.842 838.711 -47.9786
-289.016 853.088 -26.1875
-288.035 858.15 -0.430946
-289.05 853.116 25.3294
-291.887 838.755 47.1281
-296.188 817.321 61.6361
-301.531 792.165 66.7269
-307.212 767.08 61.6752
-312.197 745.798 47.1744
382.635 -22.3863 1.76393e-05
387.057 -21.7648 22.4517
399.656 -20.0058 41.4821
418.54 -17.4792 54.1513
440.777 -14.5323 58.5415
462.96 -11.603 54.0162
481.721 -9.1298 41.2965
494.234 -7.48197 22.3329
498.623 -6.90434 0.000247942
494.233 -7.48281 -22.3323
481.721 -9.13061 -41.2962
462.96 -11.6036 -54.016
440.777 -14.5328 -58.5413
418.54 -17.4795 -54.1511
399.656 -20.0059 -41.482
387.057 -21.7648 -22.4517
</DataArray>
</Points>
<Cells>
<DataArray type="Int32" Name="connectivity" format="ascii">
0 1 2 3 
4 5 6 7 
8 9 10 11 
12 13 14 15 
16 17 18 19 
20 21 22 23 
24 25 26 27 
28 29 30 31 
32 33 34 35 
36 37 38 39 
40 41 42 43 
44 45 46 47 
48 49 50 51 
52 53 54 55 
56 57 58 59 
60 61 62 63 
64 65 66 67 
68 69 70 71 
72 73 74 75 
76 77 78 79 
80 81 82 83 
84 85 86 87 
88 89 90 91 
92 93 94 95 
96 97 98 99 
100 101 102 103 
104 105 106 107 
108 109 110 111 
112 113 114 115 
116 117 118 119 
120 121 122 123 
124 125 126 127 
128 129 130 131 
132 133 134 135 
136 137 138 139 
140 141 142 143 
144 145 146 147 
148 149 150 151 
152 153 154 155 
156 157 158 159 
160 161 162 163 
164 165 166 167 
168 169 170 171 
172 173 174 175 
176 177 178 179 
180 181 182 183 
184 185 186 187 
188 189 190 191 
192 193 194 195 
196 197 198 199 
200 201 202 203 
204 205 206 207 
208 209 210 211 
212 213 214 215 
216 217 218 219 
220 221 222 223 
224 225 226 227 
228 229 230 231 
232 233 234 235 
236 237 238 239 
240 241 242 243 
244 245 246 247 
248 249 250 251 
252 253 254 255 
256 257 258 259 
260 261 262 263 
264 265 266 267 
268 269 270 271 
272 273 274 275 
276 277 278 279 
280 281 282 283 
284 285 286 287 
288 289 290 291 
292 293 294 295 
296 297 298 299 
300 301 302 303 
304 305 306 307 
308 309 310 311 
312 313 314 315 
316 317 318 319 
320 321 322 323 
324 325 326 327 
328 329 330 331 
332 333 334 335 
336 337 338 339 
340 341 342 343 
344 345 346 347 
348 349 350 351 
352 353 354 355 
356 357 358 359 
360 361 362 363 
364 365 366 367 
368 369 370 371 
372 373 374 375 
376 377 378 379 
380 381 382 383 
384 385 386 387 
388 389 390 391 
392 393 394 395 
396 397 398 399 
400 401 402 403 
404 405 406 407 
408 409 410 411 
412 413 414 415 
416 417 418 419 
420 421 422 423 
424 425 426 427 
428 429 430 431 
432 433 434 435 
436 437 438 439 
440 441 442 443 
444 445 446 447 
448 449 450 451 
452 453 454 455 
456 457 458 459 
460 461 462 463 
464 465 466 467 
468 469 470 471 
472 473 474 475 
476 477 478 479 
480 481 482 483 
484 485 486 487 
488 489 490 491 
492 493 494 495 
496 497 498 499 
500 501 502 503 
504 505 506 507 
508 509 510 511 
512 513 514 515 
516 517 518 519 
520 521 522 523 
524 525 526 527 
528 529 530 531 
532 533 534 535 
536 537 538 539 
540 541 542 543 
544 545 546 547 
548 549 550 551 
552 553 554 555 
556 557 558 559 
560 561 562 563 
564 565 566 567 
568 569 570 571 
572 573 574 575 
576 577 578 579 
580 581 582 583 
584 585 586 587 
588 589 590 591 
592 593 594 595 
596 597 598 599 
600 601 602 603 
604 605 606 607 
608 609 610 611 
612 613 614 615 
616 617 618 619 
620 621 622 623 
624 625 626 627 
628 629 630 631 
632 633 634 635 
636 637 638 639 
640 641 642 643 
644 645 646 647 
648 649 650 651 
652 653 654 655 
656 657 658 659 
660 661 662 663 
664 665 666 667 
668 669 670 671 
672 673 674 675 
676 677 678 679 
680 681 682 683 
684 685 686 687 
688 689 690 691 
692 693 694 695 
696 697 698 699 
700 701 702 703 
704 705 706 707 
708 709 710 711 
712 713 714 715 
716 717 718 719 
720 721 722 723 
724 725 726 727 
728 729 730 731 
732 733 734 735 
736 737 738 739 
740 741 742 743 
744 745 746 747 
748 749 750 751 
752 753 754 755 
756 757 758 759 
760 761 762 763 
764 765 766 767 
768 769 770 771 
772 773 774 775 
776 777 778 779 
780 781 782 783 
784 785 786 787 
788 789 790 791 
792 793 794 795 
796 797 798 799 
800 801 802 803 
804 805 806 807 
808 809 810 811 
812 813 814 815 
816 817 818 819 
820 821 822 823 
824 825 826 827 
828 829 830 831 
832 833 834 835 
836 837 838 839 
840 841 842 843 
844 845 846 847 
848 849 850 851 
852 853 854 855 
856 857 858 859 
860 861 862 863 
864 865 866 867 
868 869 870 871 
872 873 874 875 
876 877 878 879 
880 881 882 883 
884 885 886 887 
888 889 890 891 
892 893 894 895 
896 897 898 899 
900 901 902 903 
904 905 906 907 
908 909 910 911 
912 913 914 915 
916 917 918 919 
920 921 922 923 
924 925 926 927 
928 929 930 931 
932 933 934 935 
936 937 938 939 
940 941 942 943 
944 945 946 947 
948 949 950 951 
952 953 954 955 
956 957 958 959 
960 961 962 963 
964 965 966 967 
968 969 970 971 
972 973 974 975 
976 977 978 979 
980 981 982 983 
984 985 986 987 
988 989 990 991 
992 993 994 995 
996 997 998 999 
1000 1001 1002 1003 
1004 1005 1006 1007 
1008 1009 1010 1011 
1012 1013 1014 1015 
1016 1017 1018 1019 
1020 1021 1022 1023 
1024 1025 1026 1027 
1028 1029 1030 1031 
1032 1033 1034 1035 
1036 1037 1038 1039 
1040 1041 1042 1043 
1044 1045 1046 1047 
1048 1049 1050 1051 
1052 1053 1054 1055 
1056 1057 1058 1059 
1060 1061 1062 1063 
1064 1065 1066 1067 
1068 1069 1070 1071 
1072 1073 1074 1075 
1076 1077 1078 1079 
1080 1081 1082 1083 
1084 1085 1086 1087 
1088 1089 1090 1091 
1092 1093 1094 1095 
1096 1097 1098 1099 
1100 1101 1102 1103 
1104 1105 1106 1107 
1108 1109 1110 1111 
1112 1113 1114 1115 
1116 1117 1118 1119 
1120 1121 1122 1123 
1124 1125 1126 1127 
1128 1129 1130 1131 
1132 1133 1134 1135 
1136 1137 1138 1139 
1140 1141 1142 1143 
1144 1145 1146 1147 
1148 1149 1150 1151 
1152 1153 1154 1155 
1156 1157 1158 1159 
1160 1161 1162 1163 
1164 1165 1166 1167 
1168 1169 1170 1171 
1172 1173 1174 1175 
1176 1177 1178 1179 
1180 1181 1182 1183 
1184 1185 1186 1187 
1188 1189 1190 1191 
1192 1193 1194 1195 
1196 1197 1198 1199 
1200 1201 1202 1203 
1204 1205 1206 1207 
1208 1209 1210 1211 
1212 1213 1214 1215 
1216 1217 1218 1219 
1220 1221 1222 1223 
1224 1225 1226 1227 
1228 1229 1230 1231 
1232 1233 1234 1235 
1236 1237 1238 1239 
1240 1241 1242 1243 
1244 1245 1246 1247 
1248 1249 1250 1251 
1252 1253 1254 1255 
1256 1257 1258 1259 
1260 1261 1262 1263 
1264 1265 1266 1267 
1268 1269 1270 1271 
1272 1273 1274 1275 
1276 1277 1278 1279 
1280 1281 1282 1283 
1284 1285 1286 1287 
1288 1289 1290 1291 
1292 1293 1294 1295 
1296 1297 1298 1299 
1300 1301 1302 1303 
1304 1305 1306 1307 
1308 1309 1310 1311 
1312 1313 1314 1315 
1316 1317 1318 1319 
1320 1321 1322 1323 
1324 1325 1326 1327 
1328 1329 1330 1331 
1332 1333 1334 1335 
1336 1337 1338 1339 
1340 1341 1342 1343 
1344 1345 1346 1347 
1348 1349 1350 1351 
1352 1353 1354 1355 
1356 1357 1358 1359 
1360 1361 1362 1363 
1364 1365 1366 1367 
1368 1369 1370 1371 
1372 1373 1374 1375 
1376 1377 1378 1379 
1380 1381 1382 1383 
1384 1385 1386 1387 
1388 1389 1390 1391 
1392 1393 1394 1395 
1396 1397 1398 1399 
1400 1401 1402 1403 
1404 1405 1406 1407 
1408 1409 1410 1411 
1412 1413 1414 1415 
1416 1417 1418 1419 
1420 1421 1422 1423 
1424 1425 1426 1427 
1428 1429 1430 1431 
1432 1433 1434 1435 
1436 1437 1438 1439 
1440 1441 1442 1443 
1444 1445 1446 1447 
1448 1449 1450 1451 
1452 1453 1454 1455 
1456 1457 1458 1459 
1460 1461 1462 1463 
1464 1465 1466 1467 
1468 1469 1470 1471 
1472 1473 1474 1475 
1476 1477 1478 1479 
1480 1481 1482 1483 
1484 1485 1486 1487 
1488 1489 1490 1491 
1492 1493 1494 1495 
1496 1497 1498 1499 
1500 1501 1502 1503 
1504 1505 1506 1507 
1508 1509 1510 1511 
1512 1513 1514 1515 
1516 1517 1518 1519 
1520 1521 1522 1523 
1524 1525 1526 1527 
1528 1529 1530 1531 
1532 1533 1534 1535 
1536 1537 1538 1539 
1540 1541 1542 1543 
1544 1545 1546 1547 
1548 1549 1550 1551 
1552 1553 1554 1555 
1556 1557 1558 1559 
1560 1561 1562 1563 
1564 1565 1566 1567 
1568 1569 1570 1571 
1572 1573 1574 1575 
1576 1577 1578 1579 
1580 1581 1582 1583 
1584 1585 1586 1587 
1588 1589 1590 1591 
1592 1593 1594 1595 
1596 1597 1598 1599 
1600 1601 1602 1603 
1604 1605 1606 1607 
1608 1609 1610 1611 
1612 1613 1614 1615 
1616 1617 1618 1619 
1620 1621 1622 1623 
1624 1625 1626 1627 
1628 1629 1630 1631 
1632 1633 1634 1635 
1636 1637 1638 1639 
1640 1641 1642 1643 
1644 1645 1646 1647 
1648 1649 1650 1651 
1652 1653 1654 1655 
1656 1657 1658 1659 
1660 1661 1662 1663 
1664 1665 1666 1667 
1668 1669 1670 1671 
1672 1673 1674 1675 
1676 1677 1678 1679 
1680 1681 1682 1683 
1684 1685 1686 1687 
1688 1689 1690 1691 
1692 1693 1694 1695 
1696 1697 1698 1699 
1700 1701 1702 1703 
1704 1705 1706 1707 
1708 1709 1710 1711 
1712 1713 1714 1715 
1716 1717 1718 1719 
1720 1721 1722 1723 
1724 1725 1726 1727 
1728 1729 1730 1731 
1732 1733 1734 1735 
1736 1737 1738 1739 
1740 1741 1742 1743 
1744 1745 1746 1747 
1748 1749 1750 1751 
1752 1753 1754 1755 
1756 1757 1758 1759 
1760 1761 1762 1763 
1764 1765 1766 1767 
1768 1769 1770 1771 
1772 1773 1774 1775 
1776 1777 1778 1779 
1780 1781 1782 1783 
1784 1785 1786 1787 
1788 1789 1790 1791 
1792 1793 1794 1795 
1796 1797 1798 1799 
1800 1801 1802 1803 
1804 1805 1806 1807 
1808 1809 1810 1811 
1812 1813 1814 1815 
1816 1817 1818 1819 
1820 1821 1822 1823 
1824 1825 1826 1827 
1828 1829 1830 1831 
1832 1833 1834 1835 
1836 1837 1838 1839 
1840 1841 1842 1843 
1844 1845 1846 1847 
1848 1849 1850 1851 
1852 1853 1854 1855 
1856 1857 1858 1859 
1860 1861 1862 1863 
1864 1865 1866 1867 
1868 1869 1870 1871 
1872 1873 1874 1875 
1876 1877 1878 1879 
1880 1881 1882 1883 
1884 1885 1886 1887 
1888 1889 1890 1891 
1892 1893 1894 1895 
1896 1897 1898 1899 
1900 1901 1902 1903 
1904 1905 1906 1907 
1908 1909 1910 1911 
1912 1913 1914 1915 
1916 1917 1918 1919 
1920 1921 1922 1923 
1924 1925 1926 1927 
1928 1929 1930 1931 
1932 1933 1934 1935 
1936 1937 1938 1939 
1940 1941 1942 1943 
1944 1945 1946 1947 
1948 1949 1950 1951 
1952 1953 1954 1955 
1956 1957 1958 1959 
1960 1961 1962 1963 
1964 1965 1966 1967 
1968 1969 1970 1971 
1972 1973 1974 1975 
1976 1977 1978 1979 
1980 1981 1982 1983 
1984 1985 1986 1987 
1988 1989 1990 1991 
1992 1993 1994 1995 
1996 1997 1998 1999 
2000 2001 2002 2003 
2004 2005 2006 2007 
2008 2009 2010 2011 
2012 2013 2014 2015 
2016 2017 2018 2019 
2020 2021 2022 2023 
2024 2025 2026 2027 
2028 2029 2030 2031 
2032 2033 2034 2035 
2036 2037 2038 2039 
2040 2041 2042 2043 
2044 2045 2046 2047 
2048 2049 2050 2051 2052 2053 2054 2055 2056 2057 2058 2059 2060 2061 2062 2063 
2064 2065 2066 2067 2068 2069 2070 2071 2072 2073 2074 2075 2076 2077 2078 2079 
</DataArray>
<DataArray type="Int32" Name="offsets" format="ascii">
4 8 12 16 20 24 28 32 36 40 44 48 52 56 60 64 68 72 76 80 84 88 92 96 100 104 108 112 116 120 124 128 132 136 140 144 148 152 156 160 164 168 172 176 180 184 188 192 196 200 204 208 212 216 220 224 228 232 236 240 244 248 252 256 260 264 268 272 276 280 284 288 292 296 300 304 308 312 316 320 324 328 332 336 340 344 348 352 356 360 364 368 372 376 380 384 388 392 396 400 404 408 412 416 420 424 428 432 436 440 444 448 452 456 460 464 468 472 476 480 484 488 492 496 500 504 508 512 516 520 524 528 532 536 540 544 548 552 556 560 564 568 572 576 580 584 588 592 596 600 604 608 612 616 620 624 628 632 636 640 644 648 652 656 660 664 668 672 676 680 684 688 692 696 700 704 708 712 716 720 724 728 732 736 740 744 748 752 756 760 764 768 772 776 780 784 788 792 796 800 804 808 812 816 820 824 828 832 836 840 844 848 852 856 860 864 868 872 876 880 884 888 892 896 900 904 908 912 916 920 924 928 932 936 940 944 948 952 956 960 964 968 972 976 980 984 988 992 996 1000 1004 1008 1012 1016 1020 1024 1028 1032 1036 1040 1044 1048 1052 1056 1060 1064 1068 1072 1076 1080 1084 1088 1092 1096 1100 1104 1108 1112 1116 1120 1124 1128 1132 1136 1140 1144 1148 1152 1156 1160 1164 1168 1172 1176 1180 1184 1188 1192 1196 1200 1204 1208 1212 1216 1220 1224 1228 1232 1236 1240 1244 1248 1252 1256 1260 1264 1268 1272 1276 1280 1284 1288 1292 1296 1300 1304 1308 1312 1316 1320 1324 1328 1332 1336 1340 1344 1348 1352 1356 1360 1364 1368 1372 1376 1380 1384 1388 1392 1396 1400 1404 1408 1412 1416 1420 1424 1428 1432 1436 1440 1444 1448 1452 1456 1460 1464 1468 1472 1476 1480 1484 1488 1492 1496 1500 1504 1508 1512 1516 1520 1524 1528 1532 1536 1540 1544 1548 1552 1556 1560 1564 1568 1572 1576 1580 1584 1588 1592 1596 1600 1604 1608 1612 1616 1620 1624 1628 1632 1636 1640 1644 1648 1652 1656 1660 1664 1668 1672 1676 1680 1684 1688 1692 1696 1700 1704 1708 1712 1716 1720 1724 1728 1732 1736 1740 1744 1748 1752 1756 1760 1764 1768 1772 1776 1780 1784 1788 1792 1796 1800 1804 1808 1812 1816 1820 1824 1828 1832 1836 1840 1844 1848 1852 1856 1860 1864 1868 1872 1876 1880 1884 1888 1892 1896 1900 1904 1908 1912 1916 1920 1924 1928 1932 1936 1940 1944 1948 1952 1956 1960 1964 1968 1972 1976 1980 1984 1988 1992 1996 2000 2004 2008 2012 2016 2020 2024 2028 2032 2036 2040 2044 2048 2064 2080 
</DataArray>
<DataArray type="UInt8" Name="types" format="ascii">
7 7 7 7 7 7 7 7 7 7 7 7 7 7 7 7 7 7 7 7 7 7 7 7 7 7 7 7 7 7 7 7 7 7 7 7 7 7 7 7 7 7 7 7 7 7 7 7 7 7 7 7 7 7 7 7 7 7 7 7 7 7 7 7 7 7 7 7 7 7 7 7 7 7 7 7 7 7 7 7 7 7 7 7 7 7 7 7 7 7 7 7 7 7 7 7 7 7 7 7 7 7 7 7 7 7 7 7 7 7 7 7 7 7 7 7 7 7 7 7 7 7 7 7 7 7 7 7 7 7 7 7 7 7 7 7 7 7 7 7 7 7 7 7 7 7 7 7 7 7 7 7 7 7 7 7 7 7 7 7 7 7 7 7 7 7 7 7 7 7 7 7 7 7 7 7 7 7 7 7 7 7 7 7 7 7 7 7 7 7 7 7 7 7 7 7 7 7 7 7 7 7 7 7 7 7 7 7 7 7 7 7 7 7 7 7 7 7 7 7 7 7 7 7 7 7 7 7 7 7 7 7 7 7 7 7 7 7 7 7 7 7 7 7 7 7 7 7 7 7 7 7 7 7 7 7 7 7 7 7 7 7 7 7 7 7 7 7 7 7 7 7 7 7 7 7 7 7 7 7 7 7 7 7 7 7 7 7 7 7 7 7 7 7 7 7 7 7 7 7 7 7 7 7 7 7 7 7 7 7 7 7 7 7 7 7 7 7 7 7 7 7 7 7 7 7 7 7 7 7 7 7 7 7 7 7 7 7 7 7 7 7 7 7 7 7 7 7 7 7 7 7 7 7 7 7 7 7 7 7 7 7 7 7 7 7 7 7 7 7 7 7 7 7 7 7 7 7 7 7 7 7 7 7 7 7 7 7 7 7 7 7 7 7 7 7 7 7 7 7 7 7 7 7 7 7 7 7 7 7 7 7 7 7 7 7 7 7 7 7 7 7 7 7 7 7 7 7 7 7 7 7 7 7 7 7 7 7 7 7 7 7 7 7 7 7 7 7 7 7 7 7 7 7 7 7 7 7 7 7 7 7 7 7 7 7 7 7 7 7 7 7 7 7 7 7 7 7 7 7 7 7 7 7 7 7 7 7 7 7 7 7 7 7 7 7 7 7 7 7 7 7 7 7 7 7 7 7 7 7 7 7 7 7 
</DataArray>
</Cells>
<CellData Scalars="cell variable 4" Vectors="cell vector">
<DataArray type="Float64" NumberOfComponents="3" Name="cell vector" format="ascii">
0.133165 0.152476 0.979295
0.378721 0.420346 0.824548
0.507564 0.646047 0.570089
0.383481 0.895979 0.223973
-0.0654675 0.969694 -0.23539
-0.0974633 0.812836 -0.574281
0.0372301 -0.547315 0.836099
0.00759032 -0.192572 0.981254
0.000319355 0.193213 0.981157
-0.0372267 0.547991 0.835656
-0.0998618 0.813049 0.573566
-0.066951 0.96974 0.23478
0.380369 0.897327 -0.223883
0.499066 0.651862 -0.570972
-0.357904 -0.432003 0.827815
-0.140612 -0.148745 0.978827
0.0628638 0.185971 0.980542
0.17923 0.527916 0.83017
0.250393 0.793453 0.554739
0.228798 0.953618 0.195614
0.14696 0.969527 -0.196011
0.128508 0.821283 -0.55586
-0.0951301 -0.54791 0.831111
-0.034567 -0.192216 0.980744
0.0354301 0.19274 0.98061
0.0944828 0.548594 0.830733
0.127053 0.821886 0.555302
0.145772 0.969832 0.195389
0.227448 0.953826 -0.19617
0.249239 0.793412 -0.555317
-0.178727 -0.527424 0.830591
-0.065375 -0.184655 0.980627
0.061838 0.186298 0.980545
0.176322 0.528916 0.830156
0.251373 0.793556 0.554148
0.211988 0.957578 0.195205
0.13576 0.971618 -0.193719
0.141035 0.819867 -0.554911
-0.103233 -0.546626 0.830989
-0.037354 -0.191694 0.980744
0.0370368 0.192448 0.980608
0.102786 0.547255 0.830631
0.140571 0.820304 0.554383
0.135143 0.971845 0.193012
0.211214 0.957618 -0.195848
0.251151 0.793288 -0.554633
-0.176303 -0.528328 0.830534
-0.0631857 -0.185138 0.980679
0.0636456 0.185478 0.980585
0.183004 0.526276 0.830387
0.27033 0.787324 0.554115
0.25806 0.946356 0.194462
0.871291 -0.48747 0.0567856
0.967941 -0.250402 0.019709
0.97379 -0.227292 0.00846318
0.974885 -0.22269 0.00281292
0.974898 -0.222647 -0.00166061
0.973818 -0.227208 -0.00739097
0.967951 -0.250433 -0.0187989
0.870364 -0.489202 -0.0561075
0.25711 0.946495 -0.195044
0.270385 0.787017 -0.554524
-0.183039 -0.525699 0.830745
-0.0645803 -0.184303 0.980746
0.0655204 0.184296 0.980684
0.188269 0.523333 0.83107
0.282275 0.782669 0.554753
0.323962 0.925979 0.19394
0.865302 -0.498913 0.0483463
0.952701 -0.303228 0.0203547
0.960297 -0.278851 0.00846566
0.961846 -0.27358 0.00256665
0.96185 -0.273573 -0.00154913
0.960319 -0.278806 -0.00741014
0.952735 -0.303186 -0.0193287
0.864298 -0.500717 -0.0476712
0.323299 0.926108 -0.194426
0.282444 0.782353 -0.555112
-0.188538 -0.522703 0.831405
-0.0663378 -0.183094 0.980855
0.0697194 0.182168 0.980793
0.20055 0.517652 0.831755
0.303528 0.774235 0.555365
0.366221 0.910059 0.194099
0.887194 -0.460359 0.030926
0.938349 -0.345193 0.0185267
0.945828 -0.32455 0.00878373
0.947612 -0.319413 0.00270932
0.947616 -0.319408 -0.00169788
0.945849 -0.324515 -0.0077431
0.938374 -0.345178 -0.0175183
0.886347 -0.462031 -0.0302528
0.36569 0.910184 -0.194514
0.303711 0.773935 -0.555684
-0.200909 -0.516991 0.832079
-0.0705137 -0.180931 0.980965
0.0754759 0.179403 0.980876
0.217096 0.510047 0.832299
0.329267 0.763176 0.556008
0.401324 0.895103 0.194239
0.898336 -0.438978 0.0170518
0.923003 -0.384484 0.0154214
0.92954 -0.368623 0.00854413
0.931444 -0.363875 0.00278148
0.931448 -0.363869 -0.00177208
0.929561 -0.368591 -0.00750828
0.923021 -0.384479 -0.0144209
0.897743 -0.440217 -0.0163068
0.400812 0.895253 -0.194606
0.329413 0.762906 -0.556292
-0.217492 -0.509367 0.832612
-0.0762735 -0.178116 0.981049
0.0820753 0.176148 0.980936
0.235908 0.500949 0.832705
0.357467 0.749982 0.556547
0.435073 0.879177 0.194319
0.895719 -0.444531 0.00890357
0.905998 -0.423107 0.0121229
0.911297 -0.411675 0.00778867
0.913185 -0.407535 0.00271008
0.91319 -0.407531 -0.00171182
0.91132 -0.411644 -0.0067573
0.906021 -0.423086 -0.0111143
0.895311 -0.445367 -0.008085
0.434457 0.879409 -0.194649
0.357556 0.749753 -0.556798
-0.236327 -0.50025 0.833006
-0.0828736 -0.1748 0.98111
0.0891347 0.17244 0.980979
0.25593 0.490524 0.832999
0.387134 0.734802 0.556951
0.469442 0.861302 0.194376
0.883354 -0.468682 0.00481218
0.886993 -0.461692 0.00918521
0.891086 -0.453784 0.00670485
0.892835 -0.450376 0.00250412
0.89284 -0.450371 -0.00150991
0.891108 -0.453756 -0.00568133
0.887013 -0.461672 -0.00818164
0.883022 -0.469315 -0.00395851
0.468789 0.861591 -0.194673
0.387198 0.7346 -0.557171
-0.256357 -0.489806 0.833289
-0.0898961 -0.17104 0.981154
0.0964264 0.168298 0.981009
0.276606 0.478804 0.833208
0.41775 0.717615 0.557238
0.503672 0.84173 0.194436
0.865106 -0.501582 0.00277286
0.865793 -0.500356 0.00684543
0.868882 -0.494988 0.00550739
0.870408 -0.492325 0.00221211
0.870414 -0.49232 -0.00121551
0.868901 -0.494965 -0.00449496
0.865802 -0.500352 -0.00585959
0.864798 -0.502116 -0.00190709
0.503086 0.842019 -0.194702
0.417815 0.717429 -0.557429
-0.277025 -0.478073 0.833489
-0.0971189 -0.166856 0.981187
0.103801 0.163732 0.981029
0.297523 0.465825 0.833359
0.44877 0.698467 0.557449
0.53777 0.820354 0.194482
0.843195 -0.537606 0.00162094
0.842403 -0.538824 0.00502815
0.844678 -0.535258 0.00434948
0.845939 -0.533276 0.00187664
0.845945 -0.53327 -0.000894807
0.844696 -0.535236 -0.0033577
0.842413 -0.538818 -0.00405766
0.84291 -0.538053 -0.000753946
0.537152 0.820702 -0.194719
0.448819 0.698308 -0.55761
-0.29793 -0.46508 0.83363
-0.10442 -0.162249 0.981209
0.111158 0.158746 0.981042
0.318357 0.451648 0.833464
0.479671 0.677494 0.5576
0.572087 0.796796 0.194506
0.817767 -0.575548 0.00112976
0.816888 -0.576785 0.00360697
0.818515 -0.574476 0.0032983
0.819501 -0.573076 0.00153523
0.819508 -0.573068 -0.000566635
0.818533 -0.574455 -0.00232993
0.816885 -0.576794 -0.00267203
0.81744 -0.576014 -0.000291627
0.57156 0.797123 -0.194715
0.479717 0.677353 -0.557731
-0.318737 -0.450896 0.833726
-0.111685 -0.157235 0.981225
0.118422 0.153348 0.981051
0.33893 0.436289 0.833534
0.510239 0.654705 0.55769
0.606209 0.771155 0.194501
0.789159 -0.614189 0.00106747
0.789319 -0.613978 0.00247177
0.790428 -0.61255 0.00235423
0.791139 -0.611636 0.0011976
0.791145 -0.611628 -0.000255362
0.790448 -0.612528 -0.00140882
0.789314 -0.613988 -0.00156195
0.788805 -0.614643 -0.00025389
0.605713 0.771498 -0.194684
0.510283 0.654584 -0.557791
-0.339282 -0.435532 0.833787
-0.118848 -0.15182 0.981237
0.125574 0.147531 0.981053
0.35919 0.419718 0.833558
0.540412 0.630025 0.557695
0.639793 0.743553 0.194405
0.757652 -0.652658 0.00112387
0.759768 -0.650193 0.00134904
0.760348 -0.649514 0.00144381
0.760767 -0.649025 0.000867236
0.760775 -0.649016 5.89588e-05
0.760365 -0.649496 -0.000528804
0.759748 -0.650218 -0.000477493
0.757316 -0.653048 -0.000322386
0.639371 0.743875 -0.194562
0.540479 0.629904 -0.557767
-0.359502 -0.418965 0.833802
-0.125882 -0.146004 0.981242
0.132586 0.141353 0.98104
0.379128 0.402001 0.833461
0.570609 0.603056 0.557431
0.676724 0.71025 0.193878
0.72572 -0.68799 -0.000414513
0.727501 -0.686106 -0.000795552
0.727172 -0.686456 -0.000193275
0.727122 -0.686508 0.000250982
0.727129 -0.6865 0.00064519
0.727187 -0.686439 0.00108083
0.727478 -0.686129 0.0016406
0.725398 -0.688328 0.00119697
0.676321 0.7106 -0.194005
0.570681 0.602948 -0.557474
-0.379392 -0.401263 0.833696
-0.132776 -0.139832 0.981233
0.139273 0.13495 0.981016
0.398027 0.383721 0.833267
0.598697 0.575641 0.556955
0.708878 0.678405 0.193027
-0.692084 0.721817 0.000497549
-0.694031 0.719944 0.00118378
-0.693503 0.720453 0.000690846
-0.693242 0.720705 -3.32654e-05
-0.693248 0.720698 -0.000816451
-0.693519 0.720437 -0.00153847
-0.694014 0.719959 -0.0019977
-0.691813 0.722075 -0.00126064
0.708453 0.67882 -0.193127
0.598765 0.575554 -0.556972
-0.398259 -0.382984 0.833495
-0.139352 -0.133437 0.981211
0.145542 0.128287 0.980999
0.415657 0.364823 0.833147
0.624506 0.547825 0.556669
0.736171 0.648829 0.192544
-0.656212 0.754576 -0.000887451
-0.659412 0.751782 1.9731e-06
-0.659378 0.751811 0.000110394
-0.659193 0.751974 -0.00020463
-0.659201 0.751967 -0.000609937
-0.659392 0.751799 -0.00090984
-0.659388 0.751802 -0.000766277
-0.655945 0.754809 0.000161924
0.735819 0.649205 -0.192623
0.624589 0.547738 -0.556661
-0.415868 -0.364076 0.833368
-0.145507 -0.126798 0.981198
0.151489 0.121254 0.980994
0.432472 0.344807 0.833113
0.649633 0.517857 0.556598
0.765807 0.613592 0.192469
-0.619783 0.784773 -0.000787901
-0.622368 0.782725 0.000110608
-0.622276 0.782798 0.000394775
-0.621947 0.783059 -5.32727e-05
-0.621955 0.783053 -0.000726986
-0.62229 0.782786 -0.00115787
-0.62234 0.782746 -0.000836004
-0.619525 0.784977 9.56481e-05
0.765507 0.613949 -0.192526
0.649727 0.517772 -0.556567
-0.432655 -0.344057 0.833327
-0.15134 -0.119802 0.981195
0.157126 0.113913 0.980987
0.448409 0.323905 0.833076
0.67343 0.486566 0.556548
0.793456 0.577393 0.192472
-0.581558 0.813505 -0.00058158
-0.583997 0.811756 0.000551496
-0.583628 0.812021 0.000858027
-0.583077 0.812417 0.000161337
-0.583085 0.812411 -0.000894173
-0.583644 0.812008 -0.00158039
-0.583978 0.811768 -0.00124152
-0.581284 0.813701 -6.50779e-05
0.793154 0.577796 -0.192507
0.673522 0.486499 -0.556495
-0.448563 -0.323156 0.833284
-0.156873 -0.112499 0.981191
0.162404 0.106348 0.980976
0.463294 0.302398 0.833015
0.695565 0.454451 0.556475
0.818831 0.540802 0.192483
-0.541909 0.840437 -0.000367714
-0.544581 0.838707 0.00122868
-0.543722 0.839264 0.00146562
-0.542862 0.839822 0.000405779
-0.542872 0.839815 -0.00109667
-0.543739 0.839252 -0.00213797
-0.544559 0.83872 -0.00186748
-0.541612 0.840628 -0.000227512
0.818552 0.541219 -0.192497
0.695664 0.454388 -0.556402
-0.463419 -0.301649 0.833217
-0.162047 -0.104988 0.981182
0.167291 0.0986341 0.980961
0.477027 0.280511 0.832922
0.715883 0.42187 0.55636
0.841851 0.504217 0.192488
-0.501289 0.86528 -9.5342e-05
-0.504352 0.863496 0.00218302
-0.502721 0.864446 0.00224834
-0.501437 0.865194 0.000677732
-0.50145 0.865186 -0.00134097
-0.502736 0.864435 -0.00287148
-0.504297 0.863526 -0.00274981
-0.500984 0.865456 -0.000450236
0.841689 0.50449 -0.192483
0.716004 0.421785 -0.556269
-0.477122 -0.279765 0.833119
-0.166825 -0.0973506 0.981169
0.171758 0.0908607 0.98094
0.489549 0.258471 0.832787
0.734308 0.38916 0.55619
0.862482 0.468055 0.192483
-0.460345 0.88774 0.000348693
-0.463554 0.886062 0.00349174
-0.46076 0.887519 0.00322952
-0.458923 0.888475 0.00100168
-0.458939 0.888466 -0.00161446
-0.460779 0.887507 -0.00379469
-0.463498 0.886089 -0.00399732
-0.460002 0.887918 -0.000828327
0.862348 0.46831 -0.192461
0.734423 0.389096 -0.556082
-0.489624 -0.25771 0.832979
-0.171203 -0.0896407 0.981149
0.175805 0.0831009 0.980911
0.50083 0.236536 0.832598
0.75076 0.356768 0.555946
0.88067 0.432872 0.192466
-0.420085 0.907484 0.00114678
-0.422493 0.906351 0.00526585
-0.417952 0.908459 0.004383
-0.415432 0.909623 0.00134259
-0.415454 0.909612 -0.00192295
-0.417969 0.908448 -0.00488673
-0.422402 0.906391 -0.00568776
-0.419739 0.907644 -0.00156768
0.88065 0.432928 -0.19243
0.750885 0.356697 -0.555823
-0.500889 -0.235753 0.832785
-0.175163 -0.0819668 0.981121
0.179432 0.0754616 0.980872
0.510856 0.215037 0.832337
0.765197 0.325236 0.555603
0.896474 0.399128 0.192436
-0.382381 0.924001 0.00265527
-0.38148 0.924346 0.00761089
-0.374379 0.927259 0.00562691
-0.371081 0.928599 0.00165377
-0.371111 0.928586 -0.00221873
-0.37439 0.927252 -0.00606052
-0.381336 0.924402 -0.00793703
-0.382093 0.924119 -0.00303099
0.896583 0.398905 -0.192391
0.765348 0.325114 -0.555467
-0.510909 -0.214208 0.832519
-0.178707 -0.0744388 0.981082
0.182633 0.0681108 0.980819
0.519619 0.194435 0.83198
0.777619 0.295197 0.555128
0.910107 0.367003 0.19239
-0.350692 0.936474 0.0055501
-0.340728 0.940103 0.0105551
-0.330076 0.94393 0.00681351
-0.32598 0.945375 0.00189125
-0.326022 0.945359 -0.00243369
-0.330082 0.943925 -0.00716137
-0.340531 0.940171 -0.0107718
-0.350455 0.936561 -0.00586792
0.910312 0.366523 -0.192338
0.777794 0.29501 -0.554982
-0.519678 -0.193515 0.832158
-0.181842 -0.0672061 0.981028
0.185403 0.0612997 0.980749
0.527103 0.175434 0.831496
0.788055 0.267421 0.554486
0.922041 0.335937 0.192322
-0.330926 0.943593 0.0109918
-0.300127 0.953798 0.0139081
-0.284978 0.958503 0.00771364
-0.280182 0.959945 0.00199654
-0.280239 0.959927 -0.00251664
-0.284979 0.958501 -0.00795563
-0.299873 0.953876 -0.0139996
-0.330842 0.943619 -0.0112647
0.922327 0.33518 -0.192271
0.788259 0.267127 -0.554338
-0.527184 -0.174357 0.831671
-0.184568 -0.0605393 0.980954
0.187717 0.0554698 0.980656
0.53323 0.159245 0.830847
0.796486 0.242989 0.553685
0.933095 0.303937 0.19224
-0.330512 0.943579 0.0205025
-0.258726 0.9658 0.0170878
-0.238666 0.971068 0.00806494
-0.233383 0.972383 0.00194565
-0.233463 0.972363 -0.00242595
-0.238666 0.971067 -0.00816827
-0.258412 0.965885 -0.0170252
-0.330667 0.94352 -0.0207353
0.933453 0.302858 -0.192205
0.796725 0.242505 -0.553552
-0.533354 -0.157885 0.831027
-0.186875 -0.0548941 0.980849
0.18942 0.0515678 0.980541
0.5376 0.148472 0.830025
0.802467 0.224365 0.552908
0.944859 0.26498 0.192426
-0.340967 0.939492 0.033115
-0.212488 0.97698 0.0189573
-0.189044 0.981937 0.00790146
-0.183644 0.982991 0.0019
-0.183748 0.982971 -0.00223726
-0.189055 0.981936 -0.00780201
-0.212156 0.977056 -0.0187307
-0.341287 0.93937 -0.0332859
0.945235 0.263636 -0.192424
0.802743 0.22358 -0.552825
-0.53782 -0.14654 0.830227
-0.188658 -0.0512029 0.980707
0.189904 0.0511375 0.98047
0.538483 0.149034 0.829352
0.802906 0.223955 0.552437
0.958724 0.207529 0.194369
-0.272264 0.961417 0.039353
-0.145462 0.989131 0.0214783
-0.125166 0.992078 0.0107121
-0.120328 0.992728 0.00347845
-0.12031 0.992732 -0.00287348
-0.125114 0.992089 -0.010299
-0.145587 0.989109 -0.0216523
-0.273069 0.961173 -0.0397492
0.959225 0.205225 -0.194345
0.803274 0.222506 -0.552488
-0.53897 -0.145728 0.829623
-0.189394 -0.0509953 0.980576
0.18885 0.0464087 0.980909
0.536859 0.13512 0.832781
0.805817 0.194735 0.559229
0.973234 0.121893 0.194825
0.979391 0.032268 -0.199382
0.827694 0.0640272 -0.557515
-0.552175 -0.0535044 0.83201
-0.193865 -0.0198683 0.980827
0.193819 0.0199444 0.980835
0.552159 0.0537054 0.832007
0.827665 0.0644477 0.55751
0.979362 0.0324881 0.199487
0.973367 0.121107 -0.194654
0.806219 0.193209 -0.559179
-0.537658 -0.131669 0.832819
-0.188532 -0.046676 0.980957
0.189388 0.0405824 0.981063
0.538779 0.1182 0.834114
0.810451 0.167517 0.561345
0.97031 0.139084 0.197875
0.977413 0.0594003 -0.20282
0.825575 0.0608995 -0.560996
-0.550787 -0.0517496 0.83304
-0.193309 -0.0192704 0.980949
0.193508 0.0199653 0.980896
0.550806 0.0512331 0.833059
0.825513 0.0607379 0.561105
0.977397 0.0590924 0.202987
0.970495 0.138139 -0.197629
0.810814 0.166321 -0.561176
-0.539553 -0.115388 0.834007
-0.188941 -0.0413358 0.981118
0.1852 0.0460856 0.98162
0.523784 0.143485 0.83968
0.783922 0.226805 0.577949
0.962219 0.175435 0.208221
0.972708 -0.0206339 -0.231112
0.818064 0.00900937 -0.575056
-0.546191 -0.0302066 0.837116
-0.191547 -0.0116742 0.981414
0.191798 0.0138237 0.981337
0.54572 0.0264035 0.837552
0.817941 0.007952 0.575248
0.972792 -0.0193749 0.230869
0.962642 0.173687 -0.207736
0.78483 0.224485 -0.577623
-0.527068 -0.135547 0.838944
-0.184415 -0.0481005 0.981671
0.00088685 0.00669565 0.999977
0.00408152 0.000544941 0.999992
</DataArray>
<DataArray type="Float64" Name="cell vector length" format="ascii">
0.145855 0.14286 0.127764 0.08826 0.121635 0.147055 0.142411 0.137894 0.137758 0.142122 0.14765 0.121738 0.0877901 0.126432 0.152484 0.151226 0.416706 0.393352 0.355221 0.325655 0.35216 0.389167 0.403772 0.403663 0.402696 0.40106 0.388947 0.352369 0.326149 0.356142 0.40131 0.419381 0.525866 0.497404 0.442059 0.396552 0.443771 0.49641 0.50934 0.507929 0.507214 0.507142 0.496348 0.444114 0.397176 0.442661 0.502812 0.5274 0.564832 0.529397 0.449909 0.259098 0.118678 0.399251 0.537932 0.593144 0.593158 0.538182 0.398806 0.118622 0.259538 0.450258 0.534317 0.56615 0.5888 0.546475 0.447564 0.245628 0.0907387 0.382106 0.527992 0.585682 0.585581 0.52774 0.381655 0.0905021 0.24601 0.447742 0.551237 0.590005 0.60304 0.555129 0.443465 0.227812 0.0847462 0.377522 0.525031 0.583714 0.583623 0.524791 0.377059 0.0843125 0.228211 0.443584 0.560065 0.60427 0.612258 0.560689 0.440861 0.213509 0.0872661 0.376121 0.523369 0.582581 0.582502 0.523149 0.375669 0.0867056 0.213941 0.440979 0.566 0.613584 0.618482 0.564471 0.439103 0.202784 0.0929835 0.376093 0.522223 0.581667 0.581596 0.522016 0.375655 0.0923668 0.203247 0.439246 0.570253 0.619935 0.62274 0.566988 0.437713 0.194873 0.0987749 0.376771 0.521502 0.580953 0.580888 0.521302 0.376343 0.0981156 0.19539 0.437891 0.573288 0.624334 0.625632 0.568566 0.436495 0.190063 0.101979 0.377199 0.521081 0.580486 0.580425 0.520887 0.37678 0.101301 0.190622 0.436715 0.575407 0.627375 0.62754 0.569433 0.435268 0.185308 0.106279 0.378499 0.521091 0.580234 0.580176 0.520898 0.378079 0.105567 0.185927 0.435535 0.576825 0.629437 0.628776 0.569792 0.433943 0.181186 0.110148 0.37993 0.52138 0.580221 0.580165 0.521188 0.379512 0.10941 0.181862 0.434258 0.577737 0.630831 0.629576 0.569786 0.432466 0.177521 0.113554 0.381438 0.521978 0.580518 0.580468 0.521788 0.381025 0.112789 0.17826 0.432833 0.578277 0.631788 0.630124 0.569543 0.430743 0.173737 0.117328 0.3836 0.523305 0.5815 0.581452 0.523113 0.383183 0.116524 0.174544 0.431165 0.578574 0.632494 0.630496 0.569256 0.429166 0.170762 0.128543 0.391159 0.529035 0.586433 0.586383 0.528842 0.390746 0.127726 0.171613 0.429642 0.578812 0.633023 0.630693 0.568974 0.427905 0.163426 0.160631 0.415535 0.547857 0.602891 0.602843 0.547661 0.415125 0.159791 0.164352 0.428429 0.57902 0.633369 0.630702 0.568481 0.426529 0.161525 0.169351 0.421612 0.552707 0.607183 0.607132 0.552494 0.421188 0.168497 0.162495 0.427095 0.578981 0.633518 0.63041 0.5677 0.425002 0.159294 0.170269 0.422338 0.553437 0.607888 0.607832 0.553211 0.4219 0.169381 0.160317 0.425608 0.578632 0.633361 0.629758 0.566724 0.423746 0.158005 0.170168 0.422361 0.553719 0.608255 0.608198 0.553485 0.421913 0.169263 0.159057 0.424386 0.578066 0.632841 0.628755 0.565552 0.42266 0.157389 0.169578 0.422215 0.554005 0.608685 0.608625 0.553762 0.421765 0.168648 0.15848 0.423327 0.577283 0.631967 0.627332 0.564113 0.42168 0.157492 0.168406 0.421955 0.55437 0.609249 0.609187 0.554118 0.421501 0.167474 0.158594 0.422372 0.57621 0.630668 0.625345 0.562295 0.420795 0.15849 0.166487 0.421595 0.554868 0.609969 0.609904 0.554604 0.42114 0.165572 0.159586 0.421514 0.574742 0.628802 0.622569 0.559933 0.420017 0.160698 0.163613 0.421179 0.555558 0.610863 0.610789 0.555276 0.420724 0.162702 0.161805 0.420767 0.572724 0.626151 0.61868 0.556798 0.419387 0.164625 0.159556 0.420825 0.556506 0.611935 0.611849 0.556199 0.420369 0.15869 0.165705 0.420182 0.569943 0.622395 0.613219 0.552584 0.418998 0.171019 0.154181 0.420768 0.557791 0.613177 0.613075 0.55745 0.42031 0.153367 0.172074 0.419858 0.566121 0.61709 0.605473 0.546865 0.419022 0.180816 0.14785 0.421456 0.559533 0.614609 0.614484 0.55915 0.421004 0.147131 0.181812 0.41997 0.560862 0.609543 0.594036 0.538751 0.419517 0.194325 0.142958 0.423974 0.562132 0.6165 0.616352 0.561711 0.423545 0.142367 0.195242 0.420572 0.553322 0.598376 0.574625 0.524459 0.418023 0.205762 0.149686 0.432659 0.568065 0.620931 0.620798 0.567699 0.432341 0.149323 0.20653 0.419189 0.539843 0.579376 0.528187 0.482375 0.391396 0.169598 0.216935 0.476641 0.595058 0.643351 0.643996 0.597431 0.476352 0.216733 0.17028 0.39265 0.499454 0.533698 0.492465 0.449949 0.378343 0.318994 0.37236 0.435866 0.471289 0.473327 0.467324 0.455282 0.434169 0.372853 0.319963 0.379755 0.46845 0.49852 0.444283 0.403244 0.344644 0.299659 0.32333 0.373235 0.420425 0.424682 0.417102 0.399006 0.371782 0.323701 0.300385 0.346063 0.423029 0.450857 0.216362 0.174501 0.117572 0.0764689 0.11291 0.179076 0.242875 0.256414 0.250877 0.225339 0.180188 0.113937 0.0767155 0.116359 0.193054 0.222139 0.043644 0.0151589 
</DataArray>
<DataArray type="Float64" Name="cell variable 4" format="ascii">
835.625 839.179 843.041 837.003 851.007 847.975 838.153 833.374 832.824 836.904 848.35 850.998 836.565 841.13 844.609 837.477 1126.49 1117.81 1111.53 1113.76 1130.78 1131.76 1131.83 1128.55 1127.2 1127.56 1131.84 1130.8 1113.62 1111.52 1130.37 1130.6 1342.17 1332.63 1323.6 1321.2 1355.42 1363.13 1367.4 1364.94 1363.22 1361.73 1363.18 1355.59 1321.46 1323.86 1346.11 1346.16 1402.53 1392.5 1382.56 1370.03 1596.11 2372.67 3082.71 3496.13 3494.63 3079.6 2370.82 1595.65 1370.19 1382.78 1406.74 1406.67 1421.69 1410.79 1401.17 1391.92 1603.16 2362.15 3074.24 3491.28 3490.13 3071.72 2360.34 1602.38 1392.04 1401.34 1425.63 1425.94 1426.7 1412.17 1398.22 1389.87 1613.45 2355.63 3062.86 3481.49 3480.54 3060.71 2353.93 1612.53 1390.02 1398.4 1427.83 1431.16 1428.06 1410.69 1393.63 1384.89 1626.82 2354.58 3053.45 3471.61 3470.79 3051.55 2352.96 1625.82 1385.08 1393.81 1427.54 1432.87 1428.44 1408.88 1389.56 1380.15 1639.89 2356.96 3046.47 3462.49 3461.75 3044.75 2355.4 1638.86 1380.37 1389.76 1427.14 1433.67 1428.56 1407.13 1385.93 1375.82 1650.51 2360.57 3041.74 3454.84 3454.2 3040.18 2359.04 1649.39 1376.06 1386.16 1426.95 1434.28 1428.6 1405.49 1382.66 1371.97 1655.37 2361.98 3038.26 3448.99 3448.41 3036.84 2360.5 1654.24 1372.24 1382.92 1426.9 1434.82 1428.49 1403.85 1379.75 1368.57 1661.89 2365.95 3036.85 3444.6 3444.08 3035.55 2364.48 1660.71 1368.87 1380.03 1426.85 1435.22 1428.28 1402.25 1377.14 1365.56 1667.37 2369.83 3036.55 3441.69 3441.22 3035.34 2368.37 1666.15 1365.87 1377.44 1426.83 1435.54 1428.04 1400.66 1374.6 1362.67 1671.54 2373.12 3037.15 3440.36 3439.93 3036.02 2371.66 1670.26 1362.98 1374.92 1426.8 1435.82 1427.7 1399.01 1371.95 1359.25 1674.55 2375.72 3038.39 3440.39 3440.01 3037.34 2374.24 1673.2 1359.57 1372.28 1426.65 1436 1426.77 1397.11 1369.65 1356.92 1676.43 2377.31 3039.69 3441.02 3440.65 3038.69 2375.85 1675.08 1357.25 1369.98 1426.18 1435.57 1425.34 1395.09 1367.96 1356.34 1706.85 2429.33 3106.16 3515.75 3515.39 3105.17 2427.79 1705.39 1356.68 1368.3 1425.5 1434.63 1424.43 1393.45 1366.18 1354.71 1706.52 2428.26 3105.6 3515.33 3514.93 3104.53 2426.64 1705.02 1355.04 1366.53 1425.11 1434.18 1423.96 1392.14 1364.4 1352.45 1706.61 2428.02 3106.29 3516.77 3516.34 3105.18 2426.35 1705.07 1352.8 1364.75 1424.96 1434.15 1423.38 1390.9 1363.03 1351.16 1706.4 2427.7 3107.3 3519.11 3518.7 3106.22 2426.02 1704.85 1351.52 1363.4 1424.79 1433.98 1422.67 1389.72 1361.97 1350.34 1705.49 2426.98 3108.55 3522.29 3521.9 3107.53 2425.3 1703.88 1350.7 1362.35 1424.62 1433.67 1421.87 1388.62 1361.15 1349.87 1703.49 2425.68 3110.23 3526.5 3526.11 3109.23 2424.01 1701.9 1350.25 1361.55 1424.42 1433.23 1421.03 1387.61 1360.6 1349.77 1700.02 2423.69 3112.53 3531.91 3531.51 3111.53 2422.06 1698.5 1350.17 1361 1424.24 1432.72 1420.16 1386.74 1360.36 1350.1 1694.65 2421.02 3115.77 3538.78 3538.34 3114.73 2419.38 1693.12 1350.49 1360.78 1424.12 1432.16 1419.27 1386.05 1360.53 1350.97 1686.79 2417.89 3120.41 3547.31 3546.8 3119.26 2416.28 1685.39 1351.34 1360.96 1424.09 1431.54 1418.32 1385.6 1361.27 1352.43 1675.91 2414.91 3127.03 3557.57 3556.91 3125.7 2413.35 1674.64 1352.79 1361.69 1424.23 1430.84 1417.05 1385.33 1362.65 1354.36 1661.83 2413.33 3136.23 3569.38 3568.51 3134.64 2411.82 1660.77 1354.69 1363.07 1424.48 1429.8 1413.81 1383.99 1363.75 1355 1645.7 2415.21 3148.41 3582.26 3581.14 3146.52 2413.8 1644.87 1355.28 1364.13 1423.5 1426.73 1398.73 1371.76 1354.93 1342.53 1632.11 2424.05 3163.76 3595.76 3594.35 3161.53 2422.73 1631.54 1342.67 1355.19 1411.12 1411.66 1318.91 1292.13 1272.83 1250.71 1636.71 2453.43 3190.97 3619.19 3617.47 3188.25 2452.18 1636.41 1250.82 1272.88 1328.98 1331.12 1248.22 1220.47 1198.92 1184.54 1213.09 1223.52 1258.61 1257.66 1249.02 1232.62 1223.6 1213.37 1184.82 1198.99 1255.3 1259.86 1115.73 1087.28 1062.82 1049.05 1054.89 1061.55 1101.08 1098.83 1088.56 1070.13 1061.43 1055.01 1049.16 1063.06 1118.1 1126.21 792.738 781.424 776.414 777.817 793.167 812.312 856.053 865.244 858.683 836.064 813.519 793.427 777.78 774.858 799.834 798.332 614.035 744.351 
</DataArray>
<DataArray type="Float64" Name="cell variable 5" format="ascii">
0.0065792 0.0065792 0.0065792 0.0065792 0.0065792 0.0065792 0.0065792 0.0065792 0.0065792 0.0065792 0.0065792 0.0065792 0.0065792 0.0065792 0.0065792 0.0065792 0.0065792 0.0065792 0.0065792 0.0065792 0.0065792 0.0065792 0.0065792 0.0065792 0.0065792 0.0065792 0.0065792 0.0065792 0.0065792 0.0065792 0.0065792 0.0065792 0.0065792 0.0065792 0.0065792 0.0065792 0.0065792 0.0065792 0.0065792 0.0065792 0.0065792 0.0065792 0.0065792 0.0065792 0.0065792 0.0065792 0.0065792 0.0065792 0.00994336 0.00920503 0.00801346 0.00687746 0.0065792 0.0065792 0.0065792 0.0065792 0.0065792 0.0065792 0.0065792 0.0065792 0.00687746 0.00801346 0.00920503 0.00994336 0.0112504 0.0102255 0.0085705 0.00699296 0.0065792 0.0065792 0.0065792 0.0065792 0.0065792 0.0065792 0.0065792 0.0065792 0.00699296 0.0085705 0.0102255 0.0112504 0.0120078 0.0108177 0.00889361 0.00706021 0.0065792 0.0065792 0.0065792 0.0065792 0.0065792 0.0065792 0.0065792 0.0065792 0.00706021 0.00889361 0.0108177 0.0120078 0.012559 0.011246 0.009129 0.00710992 0.0065792 0.0065792 0.0065792 0.0065792 0.0065792 0.0065792 0.0065792 0.0065792 0.00710992 0.009129 0.011246 0.012559 0.0129888 0.0115823 0.00931176 0.00714793 0.0065792 0.0065792 0.0065792 0.0065792 0.0065792 0.0065792 0.0065792 0.0065792 0.00714793 0.00931176 0.0115823 0.0129888 0.0133353 0.0118528 0.00945943 0.00717864 0.0065792 0.0065792 0.0065792 0.0065792 0.0065792 0.0065792 0.0065792 0.0065792 0.00717864 0.00945943 0.0118528 0.0133353 0.0136189 0.0120736 0.00958078 0.00720349 0.0065792 0.0065792 0.0065792 0.0065792 0.0065792 0.0065792 0.0065792 0.0065792 0.00720349 0.00958078 0.0120736 0.0136189 0.0138485 0.0122534 0.00967873 0.00722396 0.0065792 0.0065792 0.0065792 0.0065792 0.0065792 0.0065792 0.0065792 0.0065792 0.00722396 0.00967873 0.0122534 0.0138485 0.0140327 0.0123981 0.00975768 0.00724004 0.0065792 0.0065792 0.0065792 0.0065792 0.0065792 0.0065792 0.0065792 0.0065792 0.00724004 0.00975768 0.0123981 0.0140327 0.014176 0.0125092 0.00981763 0.0072532 0.0065792 0.0065792 0.0065792 0.0065792 0.0065792 0.0065792 0.0065792 0.0065792 0.0072532 0.00981763 0.0125092 0.014176 0.0142812 0.0125911 0.00986295 0.00726197 0.0065792 0.0065792 0.0065792 0.0065792 0.0065792 0.0065792 0.0065792 0.0065792 0.00726197 0.00986295 0.0125911 0.0142812 0.0143514 0.0126452 0.00989219 0.00726928 0.0065792 0.0065792 0.0065792 0.0065792 0.0065792 0.0065792 0.0065792 0.0065792 0.00726928 0.00989219 0.0126452 0.0143514 0.0143851 0.012673 0.00990681 0.00727221 0.0065792 0.0065792 0.0065792 0.0065792 0.0065792 0.0065792 0.0065792 0.0065792 0.00727221 0.00990681 0.012673 0.0143851 0.0143851 0.012673 0.00990681 0.00727221 0.0065792 0.0065792 0.0065792 0.0065792 0.0065792 0.0065792 0.0065792 0.0065792 0.00727221 0.00990681 0.012673 0.0143851 0.0143514 0.0126452 0.00989219 0.00726928 0.0065792 0.0065792 0.0065792 0.0065792 0.0065792 0.0065792 0.0065792 0.0065792 0.00726928 0.00989219 0.0126452 0.0143514 0.0142812 0.0125911 0.00986295 0.00726197 0.0065792 0.0065792 0.0065792 0.0065792 0.0065792 0.0065792 0.0065792 0.0065792 0.00726197 0.00986295 0.0125911 0.0142812 0.014176 0.0125092 0.00981763 0.0072532 0.0065792 0.0065792 0.0065792 0.0065792 0.0065792 0.0065792 0.0065792 0.0065792 0.0072532 0.00981763 0.0125092 0.014176 0.0140327 0.0123981 0.00975768 0.00724004 0.0065792 0.0065792 0.0065792 0.0065792 0.0065792 0.0065792 0.0065792 0.0065792 0.00724004 0.00975768 0.0123981 0.0140327 0.0138485 0.0122534 0.00967873 0.00722396 0.0065792 0.0065792 0.0065792 0.0065792 0.0065792 0.0065792 0.0065792 0.0065792 0.00722396 0.00967873 0.0122534 0.0138485 0.0136189 0.0120736 0.00958078 0.00720349 0.0065792 0.0065792 0.0065792 0.0065792 0.0065792 0.0065792 0.0065792 0.0065792 0.00720349 0.00958078 0.0120736 0.0136189 0.0133353 0.0118528 0.00945943 0.00717864 0.0065792 0.0065792 0.0065792 0.0065792 0.0065792 0.0065792 0.0065792 0.0065792 0.00717864 0.00945943 0.0118528 0.0133353 0.0129888 0.0115823 0.00931176 0.00714793 0.0065792 0.0065792 0.0065792 0.0065792 0.0065792 0.0065792 0.0065792 0.0065792 0.00714793 0.00931176 0.0115823 0.0129888 0.012559 0.011246 0.009129 0.00710992 0.0065792 0.0065792 0.0065792 0.0065792 0.0065792 0.0065792 0.0065792 0.0065792 0.00710992 0.009129 0.011246 0.012559 0.0120078 0.0108177 0.00889361 0.00706021 0.0065792 0.0065792 0.0065792 0.0065792 0.0065792 0.0065792 0.0065792 0.0065792 0.00706021 0.00889361 0.0108177 0.0120078 0.0112504 0.0102255 0.0085705 0.00699296 0.0065792 0.0065792 0.0065792 0.0065792 0.0065792 0.0065792 0.0065792 0.0065792 0.00699296 0.0085705 0.0102255 0.0112504 0.00994336 0.00920503 0.00801346 0.00687746 0.0065792 0.0065792 0.0065792 0.0065792 0.0065792 0.0065792 0.0065792 0.0065792 0.00687746 0.00801346 0.00920503 0.00994336 0.0065792 0.0065792 0.0065792 0.0065792 0.0065792 0.0065792 0.0065792 0.0065792 0.0065792 0.0065792 0.0065792 0.0065792 0.0065792 0.0065792 0.0065792 0.0065792 0.0065792 0.0065792 0.0065792 0.0065792 0.0065792 0.0065792 0.0065792 0.0065792 0.0065792 0.0065792 0.0065792 0.0065792 0.0065792 0.0065792 0.0065792 0.0065792 0.0065792 0.0065792 0.0065792 0.0065792 0.0065792 0.0065792 0.0065792 0.0065792 0.0065792 0.0065792 0.0065792 0.0065792 0.0065792 0.0065792 0.0065792 0.0065792 0.0065792 0.0065792 
</DataArray>
<DataArray type="Float64" Name="cell variable 6" format="ascii">
1 1 1 1 1 1 1 1 1 1 1 1 1 1 1 1 1 1 1 1 1 1 1 1 1 1 1 1 1 1 1 1 1 1 1 1 1 1 1 1 1 1 1 1 1 1 1 1 1 1 1 1 1 1 1 1 1 1 1 1 1 1 1 1 1 1 1 1 1 1 1 1 1 1 1 1 1 1 1 1 1 1 1 1 1 1 1 1 1 1 1 1 1 1 1 1 1 1 1 1 1 1 1 1 1 1 1 1 1 1 1 1 1 1 1 1 1 1 1 1 1 1 1 1 1 1 1 1 1 1 1 1 1 1 1 1 1 1 1 1 1 1 1 1 1 1 1 1 1 1 1 1 1 1 1 1 1 1 1 1 1 1 1 1 1 1 1 1 1 1 1 1 1 1 1 1 1 1 1 1 1 1 1 1 1 1 1 1 1 1 1 1 1 1 1 1 1 1 1 1 1 1 1 1 1 1 1 1 1 1 1 1 1 1 1 1 1 1 1 1 1 1 1 1 1 1 1 1 1 1 1 1 1 1 1 1 1 1 1 1 1 1 1 1 1 1 1 1 1 1 1 1 1 1 1 1 1 1 1 1 1 1 1 1 1 1 1 1 1 1 1 1 1 1 1 1 1 1 1 1 1 1 1 1 1 1 1 1 1 1 1 1 1 1 1 1 1 1 1 1 1 1 1 1 1 1 1 1 1 1 1 1 1 1 1 1 1 1 1 1 1 1 1 1 1 1 1 1 1 1 1 1 1 1 1 1 1 1 1 1 1 1 1 1 1 1 1 1 1 1 1 1 1 1 1 1 1 1 1 1 1 1 1 1 1 1 1 1 1 1 1 1 1 1 1 1 1 1 1 1 1 1 1 1 1 1 1 1 1 1 1 1 1 1 1 1 1 1 1 1 1 1 1 1 1 1 1 1 1 1 1 1 1 1 1 1 1 1 1 1 1 1 1 1 1 1 1 1 1 1 1 1 1 1 1 1 1 1 1 1 1 1 1 1 1 1 1 1 1 1 1 1 1 1 1 1 1 1 1 1 1 1 1 1 1 1 1 1 1 1 1 1 1 1 1 1 1 1 1 1 1 1 1 1 1 1 1 1 1 1 1 1 1 1 1 1 1 1 1 1 1 1 1 1 1 1 1 1 1 1 1 1 1 1 
</DataArray>
<DataArray type="Float64" Name="cell variable 7" format="ascii">
0 0 0 0 0 0 0 0 0 0 0 0 0 0 0 0 0 0 0 0 0 0 0 0 0 0 0 0 0 0 0 0 0 0 0 0 0 0 0 0 0 0 0 0 0 0 0 0 0 0 0 0 0 0 0 0 0 0 0 0 0 0 0 0 0 0 0 0 0 0 0 0 0 0 0 0 0 0 0 0 0 0 0 0 0 0 0 0 0 0 0 0 0 0 0 0 0 0 0 0 0 0 0 0 0 0 0 0 0 0 0 0 0 0 0 0 0 0 0 0 0 0 0 0 0 0 0 0 0 0 0 0 0 0 0 0 0 0 0 0 0 0 0 0 0 0 0 0 0 0 0 0 0 0 0 0 0 0 0 0 0 0 0 0 0 0 0 0 0 0 0 0 0 0 0 0 0 0 0 0 0 0 0 0 0 0 0 0 0 0 0 0 0 0 0 0 0 0 0 0 0 0 0 0 0 0 0 0 0 0 0 0 0 0 0 0 0 0 0 0 0 0 0 0 0 0 0 0 0 0 0 0 0 0 0 0 0 0 0 0 0 0 0 0 0 0 0 0 0 0 0 0 0 0 0 0 0 0 0 0 0 0 0 0 0 0 0 0 0 0 0 0 0 0 0 0 0 0 0 0 0 0 0 0 0 0 0 0 0 0 0 0 0 0 0 0 0 0 0 0 0 0 0 0 0 0 0 0 0 0 0 0 0 0 0 0 0 0 0 0 0 0 0 0 0 0 0 0 0 0 0 0 0 0 0 0 0 0 0 0 0 0 0 0 0 0 0 0 0 0 0 0 0 0 0 0 0 0 0 0 0 0 0 0 0 0 0 0 0 0 0 0 0 0 0 0 0 0 0 0 0 0 0 0 0 0 0 0 0 0 0 0 0 0 0 0 0 0 0 0 0 0 0 0 0 0 0 0 0 0 0 0 0 0 0 0 0 0 0 0 0 0 0 0 0 0 0 0 0 0 0 0 0 0 0 0 0 0 0 0 0 0 0 0 0 0 0 0 0 0 0 0 0 0 0 0 0 0 0 0 0 0 0 0 0 0 0 0 0 0 0 0 0 0 0 0 0 0 0 0 0 0 0 0 0 0 0 0 0 0 0 0 0 0 0 0 0 0 0 0 0 0 0 0 0 0 0 0 0 0 0 0 1 1 
</DataArray>
<DataArray type="Float64" Name="cell variable 8" format="ascii">
11.25 33.75 56.25 78.75 101.25 123.75 146.25 168.75 191.25 213.75 236.25 258.75 281.25 303.75 326.25 348.75 11.25 33.75 56.25 78.75 101.25 123.75 146.25 168.75 191.25 213.75 236.25 258.75 281.25 303.75 326.25 348.75 11.25 33.75 56.25 78.75 101.25 123.75 146.25 168.75 191.25 213.75 236.25 258.75 281.25 303.75 326.25 348.75 11.25 33.75 56.25 78.75 101.25 123.75 146.25 168.75 191.25 213.75 236.25 258.75 281.25 303.75 326.25 348.75 11.25 33.75 56.25 78.75 101.25 123.75 146.25 168.75 191.25 213.75 236.25 258.75 281.25 303.75 326.25 348.75 11.25 33.75 56.25 78.75 101.25 123.75 146.25 168.75 191.25 213.75 236.25 258.75 281.25 303.75 326.25 348.75 11.25 33.75 56.25 78.75 101.25 123.75 146.25 168.75 191.25 213.75 236.25 258.75 281.25 303.75 326.25 348.75 11.25 33.75 56.25 78.75 101.25 123.75 146.25 168.75 191.25 213.75 236.25 258.75 281.25 303.75 326.25 348.75 11.25 33.75 56.25 78.75 101.25 123.75 146.25 168.75 191.25 213.75 236.25 258.75 281.25 303.75 326.25 348.75 11.25 33.75 56.25 78.75 101.25 123.75 146.25 168.75 191.25 213.75 236.25 258.75 281.25 303.75 326.25 348.75 11.25 33.75 56.25 78.75 101.25 123.75 146.25 168.75 191.25 213.75 236.25 258.75 281.25 303.75 326.25 348.75 11.25 33.75 56.25 78.75 101.25 123.75 146.25 168.75 191.25 213.75 236.25 258.75 281.25 303.75 326.25 348.75 11.25 33.75 56.25 78.75 101.25 123.75 146.25 168.75 191.25 213.75 236.25 258.75 281.25 303.75 326.25 348.75 11.25 33.75 56.25 78.75 101.25 123.75 146.25 168.75 191.25 213.75 236.25 258.75 281.25 303.75 326.25 348.75 11.25 33.75 56.25 78.75 101.25 123.75 146.25 168.75 191.25 213.75 236.25 258.75 281.25 303.75 326.25 348.75 11.25 33.75 56.25 78.75 101.25 123.75 146.25 168.75 191.25 213.75 236.25 258.75 281.25 303.75 326.25 348.75 11.25 33.75 56.25 78.75 101.25 123.75 146.25 168.75 191.25 213.75 236.25 258.75 281.25 303.75 326.25 348.75 11.25 33.75 56.25 78.75 101.25 123.75 146.25 168.75 191.25 213.75 236.25 258.75 281.25 303.75 326.25 348.75 11.25 33.75 56.25 78.75 101.25 123.75 146.25 168.75 191.25 213.75 236.25 258.75 281.25 303.75 326.25 348.75 11.25 33.75 56.25 78.75 101.25 123.75 146.25 168.75 191.25 213.75 236.25 258.75 281.25 303.75 326.25 348.75 11.25 33.75 56.25 78.75 101.25 123.75 146.25 168.75 191.25 213.75 236.25 258.75 281.25 303.75 326.25 348.75 11.25 33.75 56.25 78.75 101.25 123.75 146.25 168.75 191.25 213.75 236.25 258.75 281.25 303.75 326.25 348.75 11.25 33.75 56.25 78.75 101.25 123.75 146.25 168.75 191.25 213.75 236.25 258.75 281.25 303.75 326.25 348.75 11.25 33.75 56.25 78.75 101.25 123.75 146.25 168.75 191.25 213.75 236.25 258.75 281.25 303.75 326.25 348.75 11.25 33.75 56.25 78.75 101.25 123.75 146.25 168.75 191.25 213.75 236.25 258.75 281.25 303.75 326.25 348.75 11.25 33.75 56.25 78.75 101.25 123.75 146.25 168.75 191.25 213.75 236.25 258.75 281.25 303.75 326.25 348.75 11.25 33.75 56.25 78.75 101.25 123.75 146.25 168.75 191.25 213.75 236.25 258.75 281.25 303.75 326.25 348.75 11.25 33.75 56.25 78.75 101.25 123.75 146.25 168.75 191.25 213.75 236.25 258.75 281.25 303.75 326.25 348.75 11.25 33.75 56.25 78.75 101.25 123.75 146.25 168.75 191.25 213.75 236.25 258.75 281.25 303.75 326.25 348.75 11.25 33.75 56.25 78.75 101.25 123.75 146.25 168.75 191.25 213.75 236.25 258.75 281.25 303.75 326.25 348.75 11.25 33.75 56.25 78.75 101.25 123.75 146.25 168.75 191.25 213.75 236.25 258.75 281.25 303.75 326.25 348.75 11.25 33.75 56.25 78.75 101.25 123.75 146.25 168.75 191.25 213.75 236.25 258.75 281.25 303.75 326.25 348.75 0 0 
</DataArray>
</CellData>
</Piece>
</UnstructuredGrid>
</VTKFile>
