<VTKFile type="UnstructuredGrid" version="0.1">
<UnstructuredGrid>
<Piece  NumberOfPoints="    2080" NumberOfCells="     514">
<Points>
<DataArray type="Float64" NumberOfComponents="3" format="ascii">
-332.301 713.605 1.12613
-331.27 718.653 26.8899
-304.433 708.361 29.0081
-305.59 702.895 1.15409
-331.036 719.776 29.6409
-328.056 734.118 51.4316
-300.925 725.013 55.311
-304.198 709.484 31.7591
-327.627 736.189 53.531
-323.256 757.609 68.025
-295.705 750.269 73.0996
-300.496 727.084 57.4104
-322.716 760.311 69.1586
-317.805 785.558 74.2154
-289.828 780.329 79.7853
-295.165 752.971 74.2332
-317.258 788.487 74.2168
-312.698 813.801 69.1339
-284.423 810.738 74.3026
-289.282 783.257 79.7867
-312.227 816.517 67.9991
-308.574 838.076 53.4915
-280.048 836.795 57.4105
-283.952 813.454 73.1678
-308.225 840.16 51.3874
-305.811 854.597 29.5881
-277.086 854.481 31.6986
-279.698 838.879 55.3064
-305.621 855.725 26.8351
-304.756 860.787 1.07683
-275.956 861.084 1.08504
-276.897 855.609 28.9456
-304.754 860.785 -1.90413
-305.59 855.7 -27.659
-276.858 855.589 -29.7528
-275.954 861.082 -1.89592
-305.777 854.57 -30.4112
-308.179 840.118 -52.2032
-279.642 838.84 -56.1005
-277.046 854.459 -32.505
-308.527 838.032 -54.3059
-312.172 816.463 -68.8013
-283.893 813.403 -73.9439
-279.991 836.755 -58.2031
-312.643 813.746 -69.9345
-317.198 788.427 -75.0008
-289.217 783.201 -80.5458
-284.364 810.685 -75.0771
-317.744 785.498 -74.9976
-322.658 760.255 -69.9244
-295.1 752.919 -74.9741
-289.763 780.272 -80.5426
-323.198 757.554 -68.7889
-327.562 736.145 -54.2759
-300.45 727.051 -58.1286
-295.64 750.219 -73.8387
-327.992 734.076 -52.1742
-330.979 719.754 -30.3735
-304.181 709.468 -32.4448
-300.88 724.982 -56.0269
-331.217 718.633 -27.6203
-332.3 713.604 -1.85572
-305.588 702.894 -1.82776
-304.419 708.346 -29.6916
-302.378 701.916 1.2308
-301.22 707.382 29.0848
-269.801 700.134 29.7277
-271.011 694.58 1.24355
-297.695 724.087 55.5268
-266.105 717.095 56.7348
-269.548 701.311 32.6178
-300.968 708.558 31.975
-292.444 749.444 73.4226
-260.595 742.88 75.0226
-265.645 719.266 58.9415
-297.235 726.258 57.7335
-286.533 779.636 80.1687
-254.501 773.638 81.9156
-260.021 745.714 76.2166
-291.87 752.279 74.6166
-281.104 810.193 74.6876
-249.121 804.799 76.2493
-253.931 776.714 81.9185
-285.963 782.712 80.1716
-276.716 836.389 57.735
-244.784 831.498 58.9124
-248.637 807.654 75.054
-280.62 813.048 73.4922
-273.743 854.18 31.914
-241.794 849.634 32.5563
-244.423 833.686 56.6993
-276.355 838.577 55.5218
-272.604 860.838 1.16114
-240.639 856.414 1.17382
-241.595 850.819 29.664
-273.544 855.364 29.0217
-273.506 855.343 -29.8263
-241.563 850.794 -30.4402
-240.637 856.413 -1.9568
-272.602 860.837 -1.96947
-276.299 838.538 -56.313
-244.371 833.647 -57.4566
-241.759 849.608 -33.3315
-273.702 854.157 -32.7176
-280.561 812.997 -74.2653
-248.577 807.603 -75.7956
-244.731 831.457 -59.6681
-276.659 836.348 -58.5245
-285.898 782.656 -80.9275
-253.865 776.658 -82.6403
-249.06 804.747 -76.9891
-281.045 810.141 -75.4588
-291.804 752.227 -75.3542
-259.956 745.661 -76.9181
-254.435 773.581 -82.6355
-286.467 779.58 -80.9227
-297.189 726.226 -58.4482
-265.599 719.227 -59.6255
-260.532 742.828 -75.7221
-292.38 749.393 -74.1582
-300.953 708.542 -32.6568
-269.53 701.286 -33.2736
-266.061 717.058 -57.4162
-297.652 724.056 -56.2389
-301.207 707.367 -29.7647
-302.377 701.915 -1.90084
-271.01 694.58 -1.8881
-269.785 700.111 -30.3815
-267.512 693.832 1.26625
-266.302 699.386 29.7504
-234.562 693.178 29.8945
-235.826 687.624 1.28014
-266.036 700.573 32.6814
-262.593 716.356 56.7983
-230.666 710.149 57.0771
-234.297 694.365 32.8255
-262.107 718.548 59.0389
-257.057 742.162 75.12
-224.801 735.974 75.517
-230.18 712.341 59.3177
-256.458 745.026 76.3312
-250.938 772.95 82.0302
-218.581 766.878 82.4285
-224.203 738.839 76.7282
-250.369 776.066 82.0332
-245.559 804.151 76.364
-213.449 798.312 76.7888
-218.012 769.995 82.4314
-245.088 807.05 75.1518
-241.236 830.894 59.0102
-209.283 825.262 59.3686
-212.978 801.21 75.5767
-240.88 833.115 56.7651
-238.251 849.063 32.6221
-206.319 843.539 32.8249
-208.928 827.483 57.1234
-238.052 850.264 29.6881
-237.096 855.86 1.19791
-205.156 850.365 1.21526
-206.12 844.74 29.8908
-237.094 855.859 -1.97753
-238.021 850.24 -30.4609
-206.094 844.716 -30.6307
-205.154 850.364 -1.96017
-238.217 849.036 -33.3938
-240.828 833.076 -57.519
-208.881 827.443 -57.848
-206.29 843.513 -33.5635
-241.183 830.853 -59.7625
-245.028 806.999 -75.8899
-212.92 801.157 -76.2851
-209.235 825.22 -60.0915
-245.498 804.099 -77.1003
-250.303 776.01 -82.7515
-217.947 769.936 -83.1197
-213.39 798.258 -77.4954
-250.872 772.893 -82.7465
-256.394 744.973 -77.0292
-224.14 738.784 -77.397
-218.517 766.82 -83.1148
-256.993 742.109 -75.8161
-262.06 718.509 -59.7195
-230.13 712.298 -59.9715
-224.739 735.92 -76.184
-262.549 716.319 -57.4768
-266.018 700.547 -33.3341
-234.274 694.334 -33.4512
-230.619 710.108 -57.7287
-266.286 699.362 -30.4012
-267.511 693.831 -1.90786
-235.825 687.623 -1.89397
-234.542 693.149 -30.5184
-232.329 686.914 1.28819
-231.065 692.468 29.9025
-199.722 685.871 29.9632
-201.16 680.349 1.30102
-230.774 693.653 32.8453
-227.144 709.438 57.097
-195.31 702.75 57.2048
-199.431 687.056 32.906
-226.608 711.626 59.3468
-221.229 735.26 75.5461
-188.664 728.445 75.7012
-194.774 704.939 59.4546
-220.561 738.129 76.761
-214.94 766.168 82.4613
-181.111 759.147 82.5852
-187.996 731.315 76.9161
-214.293 769.292 82.4569
-209.731 797.609 76.8143
-174.289 790.398 76.9511
-180.465 762.271 82.5808
-209.192 800.503 75.5958
-205.497 824.555 59.3877
-168.75 817.22 59.5284
-173.751 793.292 75.7327
-205.089 826.769 57.1366
-202.481 842.824 32.8381
-164.92 835.391 32.9252
-168.343 819.434 57.2773
-202.253 844.02 29.8967
-201.289 849.646 1.22108
-163.454 842.171 1.24006
-164.692 836.587 29.9837
-201.287 849.645 -1.96209
-202.227 843.997 -30.6326
-164.669 836.566 -30.6837
-163.453 842.17 -1.94312
-202.452 842.799 -33.5732
-205.043 826.729 -57.8576
-168.3 819.394 -57.967
-164.895 835.368 -33.6243
-205.449 824.513 -60.1073
-209.135 800.45 -76.3009
-173.695 793.238 -76.4069
-168.706 817.178 -60.2167
-209.672 797.555 -77.5176
-214.229 769.233 -83.1419
-180.402 762.211 -83.2367
-174.232 790.343 -77.6236
-214.875 766.11 -83.1444
-220.498 738.074 -77.4266
-187.934 731.258 -77.5547
-181.048 759.088 -83.2392
-221.167 735.205 -76.2101
-226.558 711.583 -59.9976
-194.722 704.893 -60.0802
-188.603 728.39 -76.3382
-227.096 709.396 -57.7457
-230.751 693.622 -33.4682
-199.403 687.022 -33.5035
-195.26 702.706 -57.8283
-231.045 692.439 -30.5235
-232.328 686.913 -1.89909
-201.159 680.348 -1.88626
-199.697 685.839 -30.5588
-197.714 679.549 1.30461
-196.276 685.071 29.9668
-165.395 677.211 29.9941
-167.03 671.755 1.31858
-195.945 686.247 32.9138
-191.824 701.941 57.2126
-160.377 693.902 57.259
-165.064 678.386 32.9411
-191.214 704.112 59.4658
-185.104 727.619 75.7124
-152.776 719.332 75.7601
-159.767 696.073 59.5122
-184.323 730.46 76.9266
-177.438 758.293 82.5957
-143.902 749.677 82.6491
-151.994 722.174 76.9743
-176.637 761.386 82.5904
-170.461 789.513 76.9607
-135.432 780.544 76.9854
-143.1 752.77 82.6438
-169.765 792.382 75.7417
-164.764 816.31 59.5374
-128.465 807.056 59.5593
-134.736 783.413 75.7664
-164.24 818.505 57.2848
-160.818 834.462 32.9327
-123.711 825.036 32.9573
-127.941 809.252 57.3067
-160.53 835.648 29.9878
-159.292 841.232 1.24414
-121.911 831.748 1.26191
-123.423 826.221 30.0124
-159.291 841.231 -1.94319
-160.507 835.626 -30.6837
-123.402 826.201 -30.6731
-121.91 831.747 -1.92542
-160.793 834.439 -33.628
-164.198 818.465 -57.9707
-127.902 809.212 -57.9584
-123.688 825.013 -33.6173
-164.72 816.268 -60.2221
-169.709 792.328 -76.4124
-134.682 783.36 -76.4043
-128.424 807.015 -60.2098
-170.404 789.458 -77.6298
-176.574 761.327 -83.2428
-143.039 752.711 -83.2656
-135.377 780.49 -77.6217
-177.375 758.233 -83.2465
-184.261 730.404 -77.562
-151.933 722.117 -77.5811
-143.84 749.618 -83.2692
-185.043 727.563 -76.3464
-191.162 704.067 -60.0884
-159.713 696.027 -60.1075
-152.715 719.276 -76.3655
-191.773 701.896 -57.8331
-195.917 686.212 -33.5084
-165.033 678.35 -33.5079
-160.325 693.856 -57.8523
-196.251 685.039 -30.5594
-197.713 679.547 -1.88686
-167.029 671.753 -1.87289
-165.367 677.176 -30.559
-163.64 670.807 1.32095
-162.004 676.263 29.9965
-131.643 666.996 30.0155
-133.493 661.621 1.33604
-161.628 677.424 32.9452
-156.942 692.94 57.2631
-125.963 683.448 57.2936
-131.268 668.156 32.9643
-156.247 695.085 59.5174
-149.256 718.343 75.7652
-117.32 708.528 75.8015
-125.268 685.593 59.5478
-148.356 721.148 76.9793
-140.263 748.651 82.6541
-107.113 738.44 82.6941
-116.42 711.333 77.0155
-139.314 751.701 82.6479
-131.646 779.476 76.9895
-97.0862 768.84 77.0112
-106.164 741.49 82.6879
-130.8 782.306 75.7688
-124.529 805.949 59.5617
-88.7344 794.949 59.5757
-96.24 771.669 75.7906
-123.891 808.115 57.3088
-119.661 823.899 32.9594
-83.0683 812.671 32.9764
-88.0967 797.116 57.3229
-119.313 825.07 30.0145
-117.802 830.596 1.26402
-80.9373 819.291 1.28176
-82.721 813.842 30.0315
-117.801 830.595 -1.9236
-119.293 825.05 -30.6713
-82.7027 813.822 -30.6531
-80.9363 819.29 -1.90586
-119.638 823.877 -33.6156
-123.852 808.076 -57.9567
-88.0603 797.078 -57.9363
-83.0481 812.65 -33.5974
-124.488 805.908 -60.2084
-130.747 782.253 -76.403
-96.1884 771.617 -76.3916
-88.6964 794.91 -60.1881
-131.592 779.422 -77.6222
-139.253 751.642 -83.2661
-106.104 741.432 -83.2747
-97.0335 768.786 -77.6109
-140.202 748.592 -83.2709
-148.295 721.091 -77.5828
-116.359 711.277 -77.5892
-107.052 738.381 -83.2795
-149.195 718.287 -76.3675
-156.193 695.038 -60.1095
-125.213 685.545 -60.1114
-117.259 708.472 -76.374
-156.889 692.894 -57.8533
-161.597 677.387 -33.5089
-131.235 668.118 -33.4983
-125.909 683.401 -57.8551
-161.976 676.229 -30.5581
-163.638 670.805 -1.87204
-133.491 661.619 -1.85696
-131.613 666.959 -30.5475
-130.163 660.517 1.33811
-128.314 665.892 30.0176
-98.5196 655.2 30.0347
-100.595 649.918 1.35398
-127.89 667.034 32.9673
-122.585 682.326 57.2966
-92.1408 671.374 57.3213
-98.0963 656.343 32.9844
-121.801 684.438 59.5517
-113.853 707.373 75.8054
-82.4113 696.036 75.8375
-91.3566 673.486 59.5763
-112.831 710.134 77.0195
-103.523 737.241 82.6981
-70.8559 725.443 82.7307
-81.3893 698.797 77.0517
-102.43 740.241 82.6912
-93.3523 767.591 77.0145
-59.3328 755.306 77.0373
-69.7625 728.443 82.7238
-92.362 770.374 75.7927
-84.8564 793.654 59.5779
-49.6428 780.947 59.5932
-58.3425 758.089 75.8155
-84.1076 795.785 57.3246
-79.0792 811.34 32.9781
-43.0818 798.359 32.9943
-48.894 783.078 57.3399
-78.6732 812.492 30.0334
-76.8895 817.942 1.28364
-40.6231 804.867 1.30137
-42.6757 799.511 30.0496
-76.8886 817.941 -1.90382
-78.655 812.473 -30.651
-42.6591 799.492 -30.6321
-40.6222 804.866 -1.88609
-79.0592 811.319 -33.5952
-84.0715 795.747 -57.9342
-48.8601 783.041 -57.915
-43.0634 798.338 -33.5763
-84.8186 793.614 -60.1865
-92.3106 770.322 -76.3901
-58.293 758.038 -76.3796
-49.6073 780.908 -60.1674
-93.2997 767.538 -77.6106
-102.37 740.183 -83.2744
-69.7039 728.385 -83.2752
-59.2822 755.254 -77.6001
-103.463 737.183 -83.2801
-112.77 710.078 -77.5898
-81.3286 698.74 -77.5913
-70.7968 725.385 -83.2808
-113.792 707.317 -76.3745
-121.745 684.39 -60.112
-91.3 673.436 -60.107
-82.3509 695.979 -76.3761
-122.531 682.279 -57.8549
-127.857 666.995 -33.498
-98.0628 656.302 -33.484
-92.0857 671.325 -57.85
-128.284 665.855 -30.5461
-130.161 660.515 -1.85561
-100.593 649.916 -1.83973
-98.489 655.162 -30.5321
-97.3313 648.657 1.35596
-95.2561 653.939 30.0367
-66.0778 641.837 30.0532
-68.3856 636.659 1.37231
-94.7831 655.061 32.9869
-88.8277 670.092 57.3238
-58.9817 657.692 57.3452
-65.6048 642.959 33.0035
-87.9505 672.165 59.5795
-79.0053 694.716 75.8407
-48.144 681.873 75.8685
-58.1046 659.765 59.6009
-77.8589 697.426 77.0551
-67.3256 724.072 82.7341
-35.2348 710.702 82.7612
-46.9976 684.583 77.0828
-66.0902 727.016 82.7267
-55.6605 753.879 77.0402
-22.2608 739.962 77.0616
-33.9993 713.646 82.7539
-54.5312 756.608 75.8177
-45.8316 779.466 59.5954
-11.279 765.074 59.6113
-21.1316 742.691 75.8391
-44.9748 781.556 57.3417
-39.1626 796.837 32.9961
-3.84429 782.132 33.0124
-10.4222 767.164 57.3576
-38.6989 797.968 30.0515
-36.6463 803.324 1.30325
-1.06332 788.51 1.32091
-3.38061 783.262 30.0677
-36.6455 803.323 -1.88405
-38.6824 797.949 -30.63
-3.36551 783.244 -30.6112
-1.06249 788.509 -1.86638
-39.1444 796.817 -33.5742
-44.9411 781.519 -57.913
-10.3906 767.128 -57.8946
-3.82752 782.112 -33.5554
-45.7963 779.427 -60.1658
-54.482 756.557 -76.3781
-21.0844 742.641 -76.3661
-11.2457 765.036 -60.1474
-55.6101 753.826 -77.5994
-66.0318 726.958 -83.2745
-33.9426 713.588 -83.2694
-22.2124 739.91 -77.5875
-67.2666 724.014 -83.2807
-77.7984 697.369 -77.5912
-46.938 684.526 -77.588
-35.1775 710.644 -83.2757
-78.9449 694.659 -76.3759
-87.894 672.116 -60.1069
-58.0481 659.714 -60.0982
-48.0845 681.816 -76.3727
-88.7725 670.043 -57.8491
-94.7497 655.02 -33.4831
-65.5717 642.916 -33.4678
-58.9266 657.642 -57.8404
-95.2254 653.901 -30.5305
-97.3297 648.655 -1.83816
-68.384 636.657 -1.82182
-66.0475 641.797 -30.5152
-65.1937 635.243 1.37424
-62.8858 640.421 30.0551
-34.3761 626.93 30.0716
-36.9195 621.869 1.39084
-62.3624 641.519 33.0058
-55.7393 656.252 57.3474
-26.5563 642.428 57.3667
-33.8526 628.028 33.0222
-54.7681 658.282 59.6037
-44.8075 680.39 75.8713
-14.6054 666.066 75.8949
-25.5851 644.457 59.623
-43.5363 683.043 77.0857
-31.7734 709.162 82.7641
-0.348398 694.245 82.7871
-13.3343 668.719 77.1093
-30.3983 712.042 82.7564
-18.6597 738.358 77.0641
14.0378 722.833 77.0826
1.02672 697.125 82.7794
-17.396 741.028 75.8412
-7.54347 763.41 59.6134
26.2675 747.359 59.6289
15.3015 725.503 75.8597
-6.58208 765.454 57.3594
-0.0041194 780.422 33.0142
34.5514 764.021 33.0303
27.2289 749.404 57.3749
0.515857 781.527 30.0696
2.83315 786.776 1.32278
37.648 770.254 1.34034
35.0714 765.127 30.0857
2.83391 786.775 -1.86435
0.530882 781.509 -30.6092
35.0853 765.11 -30.5904
37.6487 770.253 -1.8468
0.012472 780.402 -33.5533
-6.55058 765.418 -57.8925
27.2585 749.369 -57.8738
34.5668 764.002 -33.5345
-7.5104 763.372 -60.1458
-17.3491 740.977 -76.3644
15.3464 725.454 -76.3496
26.2987 747.323 -60.1271
-18.6116 738.307 -77.5863
-30.3417 711.984 -83.2683
1.08142 697.068 -83.259
14.0839 722.783 -77.5715
-31.7162 709.104 -83.275
-43.4768 682.985 -77.5873
-13.2761 668.661 -77.5797
-0.293078 694.188 -83.2658
-44.748 680.333 -76.372
-54.7116 658.231 -60.0975
-25.5293 644.405 -60.0865
-14.5473 666.008 -76.3644
-55.6842 656.202 -57.8392
-62.3293 641.476 -33.4666
-33.8207 627.983 -33.4508
-26.5019 642.376 -57.8282
-62.8556 640.381 -30.5135
-65.1921 635.241 -1.82013
-36.9179 621.866 -1.80354
-34.3469 626.887 -30.4977
-33.805 620.301 1.39275
-31.2617 625.362 30.0735
-3.47645 610.509 30.0897
-6.25523 605.576 1.40941
-30.6875 626.434 33.0243
-23.3912 640.833 57.3688
5.06417 625.611 57.3865
-2.90235 611.581 33.0406
-22.3259 642.814 59.6253
-11.3463 664.423 75.8972
18.1205 648.647 75.9176
6.12947 627.592 59.643
-9.95112 667.012 77.1117
3.03473 692.538 82.7896
33.7048 676.107 82.8095
19.5157 651.236 77.1321
4.54693 695.348 82.7816
17.558 721.056 77.0848
49.4667 703.957 77.1012
35.217 678.917 82.8015
18.9522 723.66 75.8615
29.9181 745.516 59.6308
62.9052 727.84 59.6456
50.8608 706.561 75.8779
30.9809 747.509 57.3767
38.3035 762.127 33.032
72.0142 744.065 33.0478
63.9679 729.833 57.3915
38.8782 763.205 30.0875
41.4548 768.332 1.3422
75.4178 750.136 1.35964
72.5889 745.143 30.1034
41.4555 768.331 -1.84479
38.892 763.188 -30.5883
72.6016 745.127 -30.5695
75.4185 750.135 -1.82735
38.3187 762.108 -33.5325
31.0104 747.475 -57.8718
63.9956 729.799 -57.8526
72.0283 744.047 -33.5136
29.9491 745.48 -60.1252
18.9968 723.61 -76.3478
50.9033 706.512 -76.331
62.9344 727.804 -60.106
17.6039 721.006 -77.5701
4.60141 695.291 -83.2576
35.2694 678.86 -83.2453
49.5104 703.907 -77.5534
3.08986 692.48 -83.2647
-9.89314 666.954 -77.5786
19.5719 651.178 -77.5677
33.7579 676.05 -83.2524
-11.2883 664.365 -76.3633
-22.2703 642.762 -60.0855
6.18375 627.539 -60.0727
18.1768 648.589 -76.3524
-23.337 640.782 -57.8268
-30.6557 626.389 -33.4494
-2.87225 611.534 -33.4332
5.11712 625.558 -57.814
-31.2326 625.32 -30.4959
-33.8035 620.298 -1.80179
-6.25374 605.574 -1.78514
-3.44912 610.465 -30.4798
-3.22441 603.86 1.41127
-0.44563 608.792 30.0916
26.5576 592.608 30.1074
23.5458 587.817 1.42779
0.178745 609.835 33.0425
8.14527 623.865 57.3884
35.8109 607.276 57.4046
27.182 593.651 33.0583
9.30367 625.792 59.6451
21.2947 646.847 75.9197
49.9563 629.651 75.9377
36.9693 609.203 59.6612
22.812 649.365 77.1342
37.0012 674.237 82.8116
66.843 656.324 82.8291
51.4736 632.169 77.1522
38.6474 676.97 82.8034
52.897 702.01 77.1031
83.9424 683.37 77.1184
68.4892 659.056 82.8209
54.4176 704.542 75.8797
66.462 725.82 59.6474
98.5476 706.554 59.6615
85.4629 685.901 75.895
67.6228 727.758 57.3932
75.6691 741.99 33.0496
108.454 722.305 33.065
99.7085 708.492 57.4074
76.297 743.038 30.1052
79.1258 748.031 1.36147
112.155 728.199 1.37862
109.082 723.353 30.1206
79.1265 748.03 -1.82536
76.3096 743.022 -30.5675
109.093 723.337 -30.5489
112.156 728.199 -1.80822
75.6831 741.972 -33.5116
67.6504 727.724 -57.8505
99.7344 708.459 -57.8312
108.467 722.287 -33.4929
66.491 725.785 -60.1041
54.4599 704.493 -76.3291
85.5031 685.853 -76.3117
98.575 706.519 -60.0848
52.9405 701.96 -77.5517
38.6995 676.913 -83.2436
68.539 659 -83.2293
83.9837 683.321 -77.5343
37.054 674.18 -83.251
22.8681 649.308 -77.5663
51.5276 632.111 -77.5534
66.8935 656.267 -83.2367
21.3508 646.789 -76.3511
9.35776 625.739 -60.0714
37.0216 609.149 -60.0576
50.0104 629.593 -76.3382
8.19802 623.812 -57.8125
0.208647 609.788 -33.4317
27.2096 593.602 -33.4155
35.8619 607.223 -57.7987
-0.418411 608.748 -30.478
-3.22302 603.857 -1.78336
23.5472 587.815 -1.76685
26.5826 592.562 -30.4617
26.4867 585.955 1.4296
29.4985 590.746 30.1092
55.6618 573.268 30.1247
52.4213 568.63 1.44583
30.1724 591.757 33.0601
38.8013 605.383 57.4064
65.6141 587.464 57.4215
56.3357 574.279 33.0756
40.0512 607.251 59.6631
53.0382 627.698 75.9395
80.8253 609.121 75.9552
66.864 589.333 59.6782
54.6752 630.14 77.1541
70.0446 654.294 82.831
98.9831 634.939 82.8459
82.4623 611.562 77.1697
71.8213 656.943 82.8226
87.2745 681.257 77.1201
117.379 661.116 77.1337
100.76 637.588 82.8376
88.9174 683.71 75.8966
102.002 704.363 59.6631
133.109 683.549 59.6762
119.022 663.57 75.9101
103.258 706.241 57.409
112.003 720.054 33.0666
143.783 698.789 33.0813
134.365 685.427 57.4221
112.682 721.069 30.1224
115.755 725.916 1.3804
147.772 704.494 1.39714
144.462 699.805 30.1371
115.756 725.915 -1.80625
112.694 721.054 -30.5469
144.473 699.79 -30.5283
147.773 704.493 -1.78952
112.016 720.036 -33.4909
103.283 706.208 -57.8292
134.389 685.395 -57.8095
143.795 698.772 -33.4723
102.029 704.329 -60.0827
88.9573 683.663 -76.3097
119.06 663.523 -76.2912
133.135 683.516 -60.0631
87.3156 681.208 -77.5325
71.8709 656.887 -83.2275
100.807 637.533 -83.2112
117.418 661.068 -77.514
70.0948 654.238 -83.2351
54.729 630.082 -77.5518
82.5138 611.504 -77.5371
99.0309 634.883 -83.2189
53.092 627.64 -76.3368
40.1033 607.197 -60.0561
66.9139 589.278 -60.0417
80.8769 609.063 -76.322
38.852 605.329 -57.7971
30.1998 591.709 -33.4139
56.3605 574.229 -33.3979
65.6626 587.41 -57.7826
29.5234 590.7 -30.46
26.488 585.953 -1.76508
52.4225 568.628 -1.74886
55.684 573.221 -30.4439
55.2659 566.627 1.44759
58.5065 571.265 30.1265
83.7717 552.531 30.1415
80.3079 548.059 1.46346
59.2287 572.241 33.0773
68.5071 585.427 57.4232
94.4052 566.22 57.4369
84.494 553.508 33.0923
69.8463 587.232 59.6798
83.8076 607.02 75.9569
110.654 587.103 75.9696
95.7444 568.025 59.6935
85.5612 609.379 77.1713
102.082 632.755 82.8475
130.045 612.003 82.8588
112.407 589.462 77.184
103.985 635.314 82.839
120.605 658.842 77.1351
149.693 637.248 77.1457
131.948 614.562 82.8503
122.366 661.212 75.9115
136.453 681.192 59.6776
166.505 658.878 59.6886
151.454 639.618 75.9221
137.799 683.005 57.4236
147.218 696.367 33.0828
177.917 673.571 33.0962
167.852 660.691 57.4346
147.946 697.348 30.1388
151.256 702.037 1.39885
182.183 679.072 1.41515
178.646 674.552 30.1522
151.256 702.036 -1.78757
147.957 697.333 -30.5264
178.656 674.538 -30.5074
182.183 679.071 -1.77127
147.23 696.351 -33.4701
137.823 682.973 -57.8074
167.874 660.661 -57.7865
177.928 673.555 -33.4511
136.478 681.158 -60.0609
122.403 661.165 -76.289
151.49 639.572 -76.2684
166.529 658.846 -60.04
120.643 658.795 -77.5119
104.032 635.259 -83.2091
131.992 614.507 -83.19
149.73 637.201 -77.4913
102.13 632.699 -83.217
85.6124 609.321 -77.5353
112.456 589.404 -77.5184
130.09 611.947 -83.1979
83.859 606.962 -76.3204
69.8959 587.177 -60.04
95.7915 567.97 -60.0249
110.702 587.046 -76.3035
68.5553 585.373 -57.781
59.2532 572.192 -33.3962
84.5155 553.457 -33.3804
94.4509 566.166 -57.7659
58.5285 571.218 -30.4422
55.267 566.625 -1.74711
80.309 548.056 -1.73125
83.7907 552.483 -30.4264
83.0499 545.919 1.46516
86.5137 550.392 30.1432
110.824 530.447 30.1575
107.143 526.151 1.48064
87.2831 551.331 33.0939
97.1943 564.044 57.4384
122.118 543.594 57.4498
111.593 531.386 33.1082
98.6202 565.78 59.6948
113.529 584.859 75.9709
139.371 563.65 75.978
123.544 545.33 59.7062
115.396 587.129 77.185
133.033 609.669 82.8597
159.952 587.569 82.8614
141.238 565.92 77.1921
135.059 612.132 82.8509
152.804 634.819 77.1463
180.802 611.82 77.1467
161.977 590.032 82.8527
154.679 637.099 75.9228
169.73 656.359 59.6893
198.651 632.593 59.6924
182.677 614.101 75.9232
171.163 658.103 57.4356
181.229 670.983 33.0972
210.768 646.702 33.1058
200.085 634.337 57.4387
182.005 671.927 30.1537
185.542 676.447 1.41666
215.298 651.984 1.43255
211.544 647.646 30.1623
185.542 676.446 -1.76921
182.015 671.913 -30.5053
211.554 647.632 -30.4823
215.299 651.984 -1.75333
181.24 670.968 -33.4486
171.186 658.073 -57.784
200.106 634.308 -57.756
210.779 646.687 -33.4256
169.753 656.327 -60.0373
154.714 637.053 -76.2656
182.71 614.056 -76.2356
198.673 632.562 -60.0093
152.84 634.772 -77.4886
135.103 612.078 -83.1873
162.018 589.978 -83.1593
180.836 611.775 -77.4585
133.078 609.614 -83.1955
115.444 587.071 -77.516
141.283 565.863 -77.4942
159.994 587.515 -83.1675
113.578 584.801 -76.3016
98.667 565.726 -60.023
123.588 545.275 -60.0062
139.417 563.593 -76.2798
97.2396 563.989 -57.7642
87.3042 551.281 -33.3787
111.611 531.335 -33.363
122.161 543.539 -57.7474
86.5325 550.344 -30.4247
83.0508 545.917 -1.72953
107.144 526.148 -1.71405
110.839 530.398 -30.409
109.776 523.88 1.48224
113.457 528.176 30.1591
136.754 507.065 30.1711
132.863 502.955 1.49721
114.272 529.076 33.1094
124.797 541.284 57.451
148.691 519.642 57.4546
137.569 507.966 33.1214
126.307 542.948 59.7065
142.134 561.268 75.9783
166.918 538.827 75.9661
150.201 521.306 59.7101
144.11 563.444 77.1909
162.824 585.092 82.8602
188.646 561.713 82.8207
168.894 541.003 77.1786
164.965 587.453 82.8499
183.79 609.241 77.1439
210.618 584.884 77.0821
190.788 564.073 82.8104
185.772 611.425 75.92
201.746 629.917 59.6892
229.43 604.716 59.6335
212.599 587.067 75.8582
203.262 631.587 57.4367
213.946 643.952 33.1038
242.202 618.185 33.0774
230.946 606.386 57.3811
214.766 644.855 30.1627
218.52 649.194 1.43293
246.977 623.228 1.44832
243.022 619.088 30.1362
218.521 649.193 -1.75024
214.776 644.842 -30.4792
243.031 619.075 -30.4221
246.977 623.228 -1.73485
213.956 643.937 -33.4202
203.283 631.558 -57.7506
230.966 606.358 -57.6648
242.211 618.171 -33.3632
201.768 629.886 -60.0027
185.805 611.381 -76.2291
212.63 587.024 -76.1378
229.451 604.686 -59.9169
183.824 609.196 -77.4525
165.006 587.399 -83.1533
190.826 564.021 -83.085
210.649 584.84 -77.3612
162.865 585.038 -83.1631
144.155 563.387 -77.4898
168.936 540.947 -77.4495
188.685 561.66 -83.0948
142.179 561.211 -76.277
126.351 542.893 -60.0034
150.241 521.252 -59.9798
166.961 538.771 -76.2367
124.839 541.229 -57.7454
114.289 529.026 -33.3611
137.583 507.915 -33.3441
148.73 519.588 -57.7218
113.472 528.128 -30.4073
109.777 523.877 -1.71231
132.863 502.953 -1.69734
136.766 507.017 -30.3903
135.38 500.558 1.49869
139.272 504.668 30.1726
161.493 482.432 30.1841
157.399 478.518 1.51302
140.131 505.527 33.1223
151.252 517.203 57.4555
174.045 494.405 57.4588
162.352 483.291 33.1338
152.844 518.791 59.7096
169.561 536.312 75.9656
193.208 512.668 75.9532
175.636 495.993 59.7129
171.642 538.388 77.1758
191.395 559.099 82.8179
216.054 534.446 82.7794
195.289 514.744 77.1634
193.649 561.348 82.8048
213.479 582.158 77.0765
239.122 556.453 77.017
218.308 536.695 82.7662
215.562 584.237 75.8517
232.392 601.886 59.627
258.861 575.288 59.5737
241.205 558.532 75.7922
233.986 603.476 57.3765
245.242 615.275 33.0728
272.26 588.079 33.0476
260.454 576.877 57.3232
246.104 616.134 30.1356
250.059 620.275 1.4477
277.27 592.869 1.46243
273.122 588.938 30.1103
250.059 620.274 -1.73088
246.112 616.122 -30.4182
273.13 588.926 -30.3636
277.27 592.868 -1.71615
245.251 615.26 -33.3553
234.005 603.448 -57.657
260.472 576.851 -57.5748
272.269 588.065 -33.3007
232.413 601.857 -59.9072
215.592 584.195 -76.128
241.233 558.49 -76.0402
258.88 575.259 -59.825
213.51 582.115 -77.3524
193.687 561.296 -83.0762
218.343 536.644 -83.0101
239.15 556.41 -77.2645
191.434 559.046 -83.089
171.684 538.332 -77.4436
195.328 514.689 -77.4044
216.09 534.394 -83.0228
169.603 536.256 -76.2333
152.884 518.737 -59.9764
175.673 495.939 -59.9535
193.247 512.613 -76.194
151.291 517.149 -57.7196
140.145 505.476 -33.3419
162.362 483.24 -33.3257
174.08 494.351 -57.6968
139.283 504.619 -30.3885
135.381 500.555 -1.69562
157.4 478.516 -1.68128
161.501 482.384 -30.3723
159.794 475.999 1.51448
163.888 479.912 30.1856
184.97 456.592 30.1983
180.686 452.887 1.52815
164.789 480.728 33.1349
176.482 491.842 57.4598
198.103 467.926 57.4692
185.871 457.408 33.1475
178.15 493.349 59.7131
195.722 510.024 75.9534
218.15 485.213 75.9581
199.771 469.433 59.7225
197.904 511.994 77.1621
218.669 531.695 82.7781
242.05 505.823 82.7788
220.332 487.183 77.1668
221.032 533.828 82.7636
241.845 553.586 77.0143
266.186 526.646 77.0159
244.413 507.956 82.7643
244.028 555.556 75.7893
261.684 572.312 59.5708
286.837 544.467 59.5757
268.368 528.616 75.7908
263.353 573.819 57.3214
275.158 585.02 33.0458
300.853 556.569 33.0547
288.506 545.973 57.3263
276.061 585.835 30.1106
280.209 589.765 1.46278
306.093 561.102 1.47679
301.756 557.384 30.1196
280.209 589.764 -1.71331
276.07 585.823 -30.3607
301.763 557.373 -30.3418
306.094 561.101 -1.69929
275.167 585.007 -33.2958
263.371 573.792 -57.5698
288.522 545.948 -57.5472
300.861 556.557 -33.2769
261.703 572.284 -59.8189
244.056 555.515 -76.0341
268.394 528.576 -76.0088
286.854 544.44 -59.7963
241.874 553.544 -77.2588
221.067 533.778 -83.0044
244.445 507.907 -82.9787
266.212 526.605 -77.2335
218.704 531.644 -83.0186
197.943 511.939 -77.4002
220.368 487.13 -77.3792
242.083 505.774 -82.993
195.76 509.969 -76.1913
178.187 493.295 -59.9508
199.805 469.381 -59.9352
218.185 485.16 -76.1704
176.517 491.788 -57.695
164.799 480.677 -33.3238
185.878 457.358 -33.31
198.135 467.874 -57.6794
163.896 479.864 -30.3707
159.794 475.996 -1.67968
180.686 452.885 -1.66601
184.975 456.545 -30.3569
182.952 450.251 1.52958
187.236 453.955 30.1997
207.128 429.605 30.2117
202.663 426.119 1.54258
188.177 454.726 33.1488
200.409 465.244 57.4704
220.809 440.271 57.4799
208.069 430.375 33.1608
202.15 466.666 59.7233
220.528 482.446 75.9589
241.69 456.539 75.966
222.55 441.693 59.7328
222.806 484.305 77.1673
244.524 502.945 82.7793
266.584 475.933 82.7861
243.967 458.398 77.1744
246.99 504.957 82.7648
268.763 523.646 77.0164
291.728 495.525 77.0257
269.05 477.945 82.7715
271.041 525.505 75.7916
289.509 541.356 59.5764
313.244 512.292 59.5876
294.006 497.384 75.8008
291.251 542.777 57.3273
303.598 553.373 33.0558
327.848 523.679 33.0682
314.987 513.713 57.3385
304.541 554.142 30.1209
308.878 557.86 1.47814
333.308 527.945 1.49152
328.79 524.448 30.1334
308.879 557.859 -1.69761
304.548 554.13 -30.3401
328.797 524.437 -30.326
333.309 527.944 -1.68423
303.607 553.361 -33.2749
291.268 542.752 -57.5452
315.001 513.689 -57.5302
327.856 523.667 -33.2608
289.526 541.329 -59.7941
271.066 525.466 -76.0066
294.029 497.346 -75.9902
313.26 512.267 -59.7791
268.789 523.606 -77.2311
247.022 504.908 -82.9764
269.079 477.898 -82.9581
291.752 495.487 -77.2147
244.556 502.895 -82.9907
222.841 484.252 -77.3769
243.999 458.346 -77.3596
266.614 475.885 -82.9724
220.563 482.393 -76.1685
202.183 466.614 -59.9333
222.58 441.643 -59.9191
241.722 456.488 -76.1511
200.44 465.192 -57.6778
188.183 454.676 -33.3084
208.071 430.326 -33.2952
220.837 440.22 -57.6636
187.241 453.908 -30.3554
182.952 450.248 -1.66452
202.663 426.116 -1.65153
207.129 429.559 -30.3423
204.795 423.371 1.54392
209.26 426.858 30.2131
227.914 401.535 30.2243
223.279 398.276 1.55616
210.238 427.58 33.1619
222.978 437.476 57.4811
242.109 411.508 57.4895
228.892 402.258 33.1731
224.788 438.81 59.7337
243.927 453.655 75.9668
263.771 426.719 75.9729
243.919 412.842 59.7422
246.294 455.398 77.1751
268.911 472.934 82.7868
289.596 444.852 82.7932
266.138 428.462 77.1812
271.474 474.821 82.7724
294.152 492.401 77.0266
315.685 463.169 77.0358
292.159 446.739 82.7789
296.52 494.144 75.802
315.758 509.052 59.5887
338.014 478.839 59.5998
318.053 464.912 75.8112
317.569 510.384 57.3398
330.431 520.35 33.0695
353.17 489.481 33.0817
339.825 480.171 57.3509
331.411 521.071 30.1348
335.928 524.567 1.49292
358.837 493.468 1.50552
354.15 490.201 30.147
335.929 524.567 -1.68275
331.417 521.06 -30.3245
354.156 490.192 -30.3116
358.838 493.468 -1.67015
330.438 520.339 -33.2592
317.584 510.36 -57.5287
339.838 480.149 -57.5151
353.177 489.47 -33.2463
315.774 509.027 -59.7774
296.543 494.106 -75.9885
318.074 464.877 -75.9735
338.028 478.816 -59.7639
294.176 492.363 -77.2129
271.503 474.774 -82.9562
292.185 446.694 -82.9391
315.706 463.133 -77.1979
268.94 472.886 -82.9704
246.326 455.348 -77.3576
266.167 428.413 -77.3407
289.622 444.807 -82.9533
243.959 453.604 -76.1494
224.818 438.759 -59.9174
243.945 412.793 -59.9035
263.8 426.67 -76.1325
223.006 437.425 -57.6621
210.24 427.531 -33.2937
228.89 402.211 -33.2812
242.134 411.459 -57.6482
209.26 426.812 -30.3408
204.795 423.369 -1.65011
223.279 398.273 -1.63787
227.911 401.491 -30.3283
225.272 395.424 1.5574
229.906 398.684 30.2255
247.278 372.45 30.2359
242.486 369.424 1.56882
230.919 399.357 33.1741
244.136 408.607 57.4905
261.952 381.708 57.4976
248.291 373.123 33.1845
246.01 409.85 59.7428
265.862 423.726 75.9736
284.341 395.828 75.9776
263.826 382.95 59.7499
268.313 425.35 77.1817
291.77 441.74 82.7938
311.029 412.661 82.7984
286.791 397.451 77.1858
294.424 443.498 82.7796
317.95 459.928 77.0366
337.997 429.66 77.0444
313.683 414.419 82.7842
320.402 461.55 75.8122
340.363 475.477 59.6009
361.084 444.192 59.611
340.449 431.283 75.82
342.239 476.717 57.3521
355.584 486.027 33.0829
376.757 454.06 33.0941
362.96 445.432 57.3623
356.598 486.698 30.1483
361.286 489.964 1.50683
382.618 457.757 1.51858
377.772 454.73 30.1595
361.286 489.964 -1.66876
356.605 486.688 -30.3102
377.778 454.722 -30.2981
382.618 457.757 -1.65701
355.591 486.017 -33.2448
342.252 476.696 -57.5136
362.972 445.412 -57.5008
376.764 454.05 -33.2327
340.377 475.454 -59.7623
320.423 461.515 -75.9719
340.468 431.25 -75.9572
361.097 444.171 -59.7495
317.971 459.892 -77.1961
294.45 443.453 -82.9373
313.707 414.377 -82.9198
338.016 429.626 -77.1813
291.797 441.695 -82.9513
268.341 425.301 -77.3388
286.816 397.405 -77.3215
311.053 412.619 -82.9339
265.891 423.677 -76.1307
246.036 409.801 -59.9017
263.849 382.904 -59.8879
284.366 395.782 -76.1134
244.161 408.559 -57.6467
230.917 399.31 -33.2797
248.285 373.078 -33.268
261.974 381.661 -57.6329
229.903 398.639 -30.327
225.271 395.422 -1.63652
242.486 369.422 -1.62511
247.271 372.407 -30.3152
244.334 366.475 1.56995
249.126 369.501 30.237
265.176 342.417 30.2464
260.238 339.631 1.58049
250.171 370.123 33.1853
263.833 378.708 57.4985
280.291 350.942 57.504
266.221 343.039 33.1947
265.766 379.856 59.7504
286.28 392.734 75.9781
303.349 363.945 75.9797
282.224 352.091 59.7559
288.808 394.235 77.1862
313.046 409.445 82.7987
330.833 379.444 82.8009
305.876 365.445 77.1878
315.783 411.069 82.7848
340.097 426.31 77.0449
358.611 395.085 77.051
333.57 381.068 82.787
342.628 427.808 75.8209
363.263 440.718 59.6119
382.401 408.44 59.621
361.142 396.583 75.827
365.199 441.862 57.3634
378.996 450.49 33.0952
398.553 417.504 33.1055
384.337 409.584 57.3724
380.043 451.108 30.1607
384.889 454.135 1.5198
404.593 420.901 1.53073
399.6 418.122 30.171
384.889 454.135 -1.65571
380.049 451.1 -30.2968
399.606 418.115 -30.2854
404.593 420.901 -1.64478
379.002 450.48 -33.2313
365.211 441.842 -57.4994
384.348 409.566 -57.4871
398.559 417.495 -33.2199
363.276 440.697 -59.7479
342.647 427.776 -75.9556
361.159 396.553 -75.9408
382.413 408.421 -59.7356
340.117 426.276 -77.1795
315.807 411.027 -82.918
333.591 381.029 -82.8998
358.629 395.053 -77.1647
313.07 409.402 -82.9319
288.833 394.189 -77.3195
305.898 365.402 -77.3012
330.854 379.404 -82.9137
286.306 392.688 -76.1115
265.788 379.81 -59.8861
282.244 352.047 -59.8722
303.371 363.901 -76.0933
263.854 378.662 -57.6314
250.166 370.078 -33.2665
266.211 342.997 -33.2554
280.309 350.899 -57.6176
249.12 369.458 -30.3139
244.334 366.473 -1.62384
260.237 339.628 -1.61329
265.165 342.377 -30.3029
261.938 336.591 1.58151
266.876 339.377 30.2474
281.565 311.506 30.2558
276.494 308.963 1.59103
267.95 339.947 33.1954
282.021 347.851 57.5046
297.083 319.286 57.5083
282.639 312.076 33.2037
284.008 348.903 59.7561
305.132 360.757 75.9799
320.75 331.15 75.9786
299.071 320.338 59.7597
307.73 362.132 77.1878
332.687 376.131 82.8009
348.959 345.287 82.8003
323.348 332.525 77.1865
335.501 377.618 82.7873
360.542 391.635 77.0513
377.479 359.533 77.0553
351.773 346.774 82.7867
363.145 393.005 75.8277
384.404 404.862 59.6217
401.915 371.672 59.6294
380.082 360.903 75.8316
386.396 405.907 57.3734
400.611 413.827 33.1065
418.507 379.904 33.1157
403.906 372.717 57.3811
401.689 414.391 30.1721
406.682 417.17 1.53183
424.712 382.991 1.54174
419.584 380.469 30.1814
406.682 417.17 -1.64358
401.694 414.384 -30.2842
419.589 380.463 -30.2738
424.712 382.991 -1.63368
400.617 413.818 -33.2186
386.407 405.889 -57.4858
403.916 372.701 -57.4742
418.513 379.897 -33.2082
384.416 404.843 -59.7341
363.162 392.975 -75.9392
380.097 360.876 -75.9242
401.926 371.655 -59.7224
360.56 391.604 -77.1628
335.522 377.579 -82.8979
351.792 346.738 -82.8789
377.495 359.505 -77.1478
332.708 376.091 -82.9116
307.752 362.09 -77.2991
323.367 332.485 -77.2798
348.978 345.25 -82.8925
305.154 360.714 -76.0914
284.027 348.86 -59.8703
299.087 320.299 -59.8565
320.769 331.11 -76.0721
282.038 347.808 -57.6161
267.941 339.905 -33.254
282.627 312.037 -33.2439
297.098 319.246 -57.6023
266.865 339.337 -30.3017
261.937 336.589 -1.61211
276.493 308.961 -1.60259
281.551 311.469 -30.2916
278.041 305.84 1.59192
283.112 308.382 30.2567
296.408 279.786 30.2639
291.216 277.49 1.6004
284.214 308.9 33.2042
298.658 316.11 57.5087
312.29 286.813 57.5102
297.509 280.303 33.2115
300.694 317.065 59.7596
322.373 327.876 75.9784
336.505 297.526 75.9736
314.326 287.769 59.7611
325.035 329.124 77.1861
350.647 341.886 82.8
365.366 310.28 82.7962
339.166 298.773 77.1813
353.531 343.233 82.7868
379.237 355.993 77.0553
394.558 323.098 77.057
368.25 311.627 82.783
381.905 357.231 75.8321
403.738 367.999 59.6299
419.581 333.98 59.6363
397.226 324.336 75.8338
405.78 368.941 57.3819
420.38 376.129 33.1165
436.573 341.354 33.1248
421.623 334.923 57.3884
421.485 376.638 30.1824
426.613 379.16 1.54274
442.927 344.121 1.55166
437.677 341.863 30.1907
426.613 379.16 -1.63259
421.49 376.632 -30.2727
437.682 341.858 -30.2633
442.927 344.121 -1.62367
420.386 376.122 -33.2069
405.79 368.925 -57.4729
421.632 334.909 -57.462
436.578 341.348 -33.1975
403.748 367.982 -59.7209
381.92 357.203 -75.9227
397.24 324.311 -75.9074
419.591 333.965 -59.71
379.252 355.964 -77.1459
353.549 343.197 -82.8769
368.267 311.594 -82.8566
394.573 323.072 -77.1306
350.665 341.849 -82.8903
325.055 329.085 -77.2775
339.184 298.737 -77.2566
365.383 310.246 -82.8699
322.393 327.837 -76.0701
300.71 317.026 -59.8545
314.34 287.733 -59.8404
336.522 297.49 -76.0491
298.672 316.07 -57.6008
284.201 308.861 -33.2425
297.493 280.268 -33.2333
312.302 286.777 -57.5867
283.099 308.345 -30.2905
278.041 305.838 -1.6015
291.215 277.488 -1.59302
296.391 279.752 -30.2813
292.608 274.289 1.60114
297.799 276.585 30.2647
309.67 247.325 30.2708
304.371 245.275 1.6086
298.925 277.05 33.2117
313.706 283.56 57.5104
325.877 253.599 57.5094
310.796 247.79 33.2178
315.786 284.417 59.7606
337.964 294.174 75.973
350.578 263.158 75.964
327.957 254.457 59.7595
340.683 295.293 77.1806
366.883 306.8 82.7955
380.017 274.517 82.788
353.296 264.276 77.1715
369.83 308.004 82.7827
396.138 319.476 77.0568
409.81 285.874 77.0559
382.964 275.722 82.7752
398.865 320.578 75.8341
421.219 330.222 59.6366
435.36 295.458 59.642
412.537 286.976 75.8333
423.307 331.058 57.3891
438.257 337.49 33.1255
452.711 301.947 33.133
437.448 296.295 57.3945
439.386 337.942 30.1916
444.636 340.2 1.55256
459.198 304.386 1.56056
453.84 302.399 30.1991
444.636 340.199 -1.62269
439.391 337.936 -30.2623
453.845 302.396 -30.254
459.198 304.386 -1.6147
438.263 337.484 -33.1964
423.316 331.045 -57.4609
437.457 296.283 -57.4508
452.716 301.943 -33.1881
421.229 330.207 -59.7084
398.879 320.553 -75.9059
412.55 286.953 -75.89
435.37 295.446 -59.6984
396.152 319.45 -77.1285
369.847 307.972 -82.8546
382.98 275.693 -82.8324
409.824 285.85 -77.1127
366.9 306.767 -82.8675
340.7 295.258 -77.2542
353.312 264.245 -77.2309
380.033 274.487 -82.8454
337.981 294.139 -76.047
315.8 284.382 -59.8382
327.969 254.426 -59.8233
350.593 263.126 -76.0237
313.718 283.524 -57.5852
298.909 277.015 -33.2318
310.777 247.759 -33.2235
325.887 253.568 -57.5704
297.783 276.552 -30.2803
292.607 274.287 -1.59201
304.37 245.274 -1.58455
309.651 247.295 -30.272
305.604 242.004 1.60918
310.903 244.054 30.2714
321.325 214.189 30.2761
315.93 212.383 1.61551
312.05 244.466 33.2177
327.131 250.276 57.5093
337.816 219.72 57.5051
322.471 214.602 33.2224
329.25 251.036 59.7585
351.87 259.737 75.963
362.939 228.134 75.9488
339.935 220.48 59.7542
354.639 260.726 77.1703
381.36 270.967 82.7867
392.882 238.098 82.7743
365.708 229.123 77.1561
384.362 272.028 82.7745
411.208 282.179 77.0552
423.205 247.957 77.0516
395.885 239.158 82.762
413.988 283.142 75.8333
436.811 291.624 59.6421
449.222 256.2 59.6468
425.984 248.92 75.8297
438.939 292.351 57.3951
454.202 298.004 33.1337
466.885 261.781 33.1403
451.35 256.928 57.3999
455.353 298.397 30.1999
460.711 300.384 1.56136
473.489 263.885 1.56821
468.036 262.174 30.2065
460.712 300.384 -1.61386
455.358 298.394 -30.2532
468.042 262.173 -30.2463
473.489 263.885 -1.60701
454.207 298 -33.1871
438.949 292.34 -57.4498
451.359 256.919 -57.4414
466.891 261.779 -33.1802
436.821 291.612 -59.6969
414.001 283.119 -75.8885
425.998 248.899 -75.8721
449.231 256.191 -59.6884
411.222 282.156 -77.1105
384.378 271.998 -82.8302
395.899 239.132 -82.8054
423.218 247.936 -77.0941
381.376 270.938 -82.8426
354.654 260.695 -77.2282
365.722 229.096 -77.2019
392.897 238.071 -82.8178
351.885 259.705 -76.0213
329.261 251.005 -59.8209
339.944 220.454 -59.8048
362.953 228.107 -75.995
327.14 250.245 -57.5688
312.031 244.435 -33.2219
322.451 214.576 -33.2143
337.824 219.694 -57.5527
310.884 244.025 -30.271
305.603 242.003 -1.58361
315.929 212.382 -1.57728
321.303 214.165 -30.2634
317.001 209.048 1.61589
322.396 210.854 30.2765
331.347 180.442 30.2788
325.869 178.872 1.62106
323.561 211.215 33.2219
338.906 216.333 57.5045
348.085 185.249 57.4949
332.513 180.802 33.2242
341.058 216.997 59.7526
364.062 224.651 75.9472
373.568 192.545 75.9261
350.237 185.913 59.7429
366.874 225.513 77.1542
394.048 234.488 82.7723
403.937 201.126 82.7524
376.38 193.407 77.1331
397.099 235.402 82.7608
424.419 244.2 77.0504
434.719 209.443 77.044
406.988 202.04 82.7409
427.245 245.019 75.8295
450.482 252.3 59.6466
461.137 216.3 59.6509
437.544 210.262 75.8232
452.645 252.915 57.4004
468.181 257.768 33.1408
479.066 220.952 33.146
463.3 216.915 57.4047
469.351 258.101 30.2072
474.803 259.812 1.5689
485.766 222.717 1.57449
480.236 221.285 30.2124
474.803 259.812 -1.60633
469.356 258.1 -30.2456
480.241 221.286 -30.2399
485.767 222.717 -1.60074
468.186 257.766 -33.1794
452.654 252.906 -57.4406
463.31 216.909 -57.4344
479.072 220.953 -33.1738
450.492 252.29 -59.687
427.258 244.999 -75.8706
437.558 210.244 -75.8541
461.148 216.293 -59.6808
424.433 244.179 -77.0916
397.114 235.376 -82.8029
407.003 202.017 -82.773
434.733 209.424 -77.0751
394.063 234.462 -82.8146
366.888 225.487 -77.1987
376.393 193.385 -77.1677
403.952 201.103 -82.7847
364.076 224.625 -75.9921
341.067 216.972 -59.8019
350.246 185.894 -59.7824
373.581 192.524 -75.9611
338.913 216.308 -57.551
323.54 211.189 -33.2125
332.49 180.783 -33.2046
348.092 185.23 -57.5315
322.375 210.83 -30.2625
317 209.047 -1.57638
325.868 178.871 -1.57121
331.325 180.423 -30.2546
326.777 175.479 1.62106
332.256 177.048 30.2788
339.73 146.141 30.274
334.18 144.799 1.62514
333.436 177.359 33.2227
349.009 181.806 57.4934
356.674 150.262 57.4698
340.911 146.453 33.2179
351.189 182.378 59.74
374.519 189.01 75.9231
382.448 156.492 75.8875
358.854 150.834 59.7164
377.367 189.747 77.1299
404.925 197.466 82.7492
413.166 163.711 82.7135
385.296 157.229 77.0942
408.017 198.232 82.7388
435.748 205.635 77.0419
444.332 170.425 77.0325
416.258 164.477 82.7032
438.612 206.304 75.8227
462.205 212.342 59.6505
471.078 175.849 59.6523
447.196 171.094 75.8133
464.397 212.842 57.405
480.162 216.879 33.1464
489.213 179.557 33.1472
473.27 176.348 57.4069
481.347 217.151 30.2129
486.878 218.583 1.57495
495.988 180.979 1.57894
490.398 179.829 30.2137
486.878 218.583 -1.60015
481.353 217.152 -30.2393
490.405 179.833 -30.2326
495.988 180.979 -1.59616
480.169 216.88 -33.1731
464.407 212.836 -57.4338
473.282 176.346 -57.4285
489.221 179.561 -33.1663
462.215 212.336 -59.6794
438.625 206.286 -75.8527
447.211 171.078 -75.8362
471.09 175.845 -59.6742
435.762 205.616 -77.072
408.032 198.209 -82.77
416.274 164.457 -82.7269
444.347 170.407 -77.0555
404.94 197.443 -82.7806
377.381 189.726 -77.1635
385.311 157.212 -77.1198
413.182 163.691 -82.7375
374.532 188.989 -75.9571
351.197 182.359 -59.7784
358.863 150.824 -59.7465
382.462 156.476 -75.9134
349.015 181.787 -57.5289
333.414 177.341 -33.2021
340.888 146.442 -33.1889
356.681 150.252 -57.497
332.233 177.03 -30.2535
326.776 175.478 -1.57015
334.178 144.798 -1.56608
339.707 146.132 -30.2404
334.927 141.354 1.62387
340.478 142.696 30.2728
346.529 111.359 30.2339
340.928 110.23 1.62681
341.671 142.961 33.213
357.434 146.771 57.4649
363.621 114.849 57.3794
347.722 111.624 33.1741
359.634 147.256 59.7088
383.229 152.914 75.8798
389.589 120.095 75.7744
365.821 115.335 59.6233
386.104 153.53 77.0865
413.974 160.013 82.7059
420.55 125.964 82.6088
392.465 120.712 76.9812
417.099 160.626 82.6979
445.172 166.574 77.0272
451.995 130.98 76.9861
423.674 126.578 82.6008
448.065 167.088 75.8109
471.947 171.843 59.65
478.956 134.927 59.6173
454.888 131.494 75.7698
474.16 172.224 57.4054
490.103 175.432 33.1458
497.215 137.679 33.121
481.169 135.308 57.3728
491.298 175.642 30.2132
496.889 176.792 1.57847
504.036 138.756 1.57975
498.41 137.889 30.1885
496.889 176.793 -1.59511
491.305 175.647 -30.2315
498.421 137.897 -30.2045
504.036 138.756 -1.59383
490.111 175.437 -33.1643
474.172 172.222 -57.4265
481.185 135.309 -57.3914
497.226 137.687 -33.1373
471.96 171.839 -59.6712
448.081 167.072 -75.8332
454.907 131.479 -75.7882
478.973 134.927 -59.6361
445.188 166.557 -77.0496
417.115 160.606 -82.721
423.694 126.561 -82.6185
452.014 130.964 -77.0045
413.991 159.993 -82.729
386.119 153.514 -77.1114
392.483 120.701 -76.9993
420.569 125.947 -82.6265
383.243 152.899 -75.9049
359.644 147.247 -59.738
365.834 115.336 -59.6444
389.607 120.086 -75.7929
357.441 146.762 -57.4911
341.649 142.952 -33.1831
347.704 111.627 -33.1372
363.632 114.851 -57.3976
340.455 142.687 -30.2382
334.926 141.354 -1.56396
340.927 110.23 -1.56103
346.51 111.362 -30.1923
341.544 106.747 1.61936
347.146 107.876 30.2265
352.215 76.2632 30.0057
346.632 75.3329 1.61967
348.342 108.099 33.1521
364.24 111.324 57.3574
369.264 79.1874 56.9462
353.411 76.4858 32.9314
366.445 111.732 59.5902
390.213 116.493 75.7414
395.161 83.5826 75.1942
371.469 79.5961 59.179
393.098 116.991 76.947
421.183 122.244 82.5746
426.07 87.9857 82.0853
398.046 84.0813 76.3998
424.317 122.696 82.5714
452.638 127.098 76.9567
457.462 91.1468 76.5305
429.204 88.4378 82.0821
455.537 127.447 75.7459
479.605 130.88 59.5935
484.327 93.5698 59.2348
460.361 91.496 75.3198
481.822 131.14 57.3555
497.868 133.511 33.1038
502.547 95.3538 32.8955
486.543 93.8294 56.9969
499.066 133.658 30.1818
504.691 134.526 1.57305
509.361 96.0842 1.56149
503.745 95.5016 29.9735
504.692 134.526 -1.58802
499.076 133.667 -30.1987
503.754 95.5142 -30.0043
509.362 96.0848 -1.59958
497.88 133.52 -33.1201
481.839 131.142 -57.3741
486.571 93.8356 -57.005
502.557 95.3668 -32.9257
479.623 130.881 -59.6115
455.557 127.432 -75.7636
460.39 91.483 -75.3259
484.355 93.5742 -59.2424
452.658 127.082 -76.9743
424.337 122.679 -82.5882
429.233 88.4239 -82.0905
457.491 91.133 -76.5366
421.203 122.227 -82.5916
393.116 116.982 -76.9644
398.072 84.0777 -76.4107
426.099 87.9722 -82.0939
390.231 116.484 -75.759
366.458 111.735 -59.6105
371.492 79.6113 -59.1896
395.187 83.5803 -75.2053
364.252 111.327 -57.3748
348.324 108.103 -33.1144
353.403 76.5062 -32.8892
369.285 79.2036 -56.9539
347.127 107.88 -30.1843
341.543 106.748 -1.55304
346.631 75.3335 -1.55273
352.206 76.2831 -29.9591
347.313 71.8787 1.57622
352.896 72.809 29.9623
360.022 41.8081 28.6627
354.705 40.9922 1.57319
354.06 72.9987 32.8099
369.914 75.7004 56.8246
376.288 44.3642 54.4529
361.186 41.9978 31.5103
372.063 76.0483 59.0005
395.755 80.0348 75.0157
401.045 48.1565 71.9558
378.437 44.7121 56.6288
398.561 80.4495 76.1935
426.584 84.354 81.879
430.585 52.1804 78.5881
403.85 48.5712 73.1336
429.632 84.7178 81.8844
457.889 87.4268 76.3328
460.483 55.4141 73.1768
433.632 52.5442 78.5934
460.72 87.701 75.1552
484.685 89.7749 59.0702
486.066 57.903 56.6227
463.314 55.6883 71.9992
486.853 89.9786 56.8867
502.857 91.503 32.7853
503.474 59.6407 31.4521
488.235 58.1067 54.4393
504.031 91.6193 29.9336
509.647 92.2018 1.52163
509.999 60.3027 1.50909
504.648 59.757 28.6004
509.647 92.2016 -1.56231
504.04 91.631 -29.9671
504.646 59.7304 -28.6462
509.999 60.3024 -1.57485
502.868 91.5144 -32.8155
486.882 89.9831 -56.8948
488.265 58.0818 -54.4338
503.474 59.6138 -31.4946
484.715 89.7787 -59.0762
460.749 87.6875 -75.1598
463.346 55.6753 -71.995
486.098 57.8774 -56.6153
457.919 87.4132 -76.3379
429.661 84.7042 -81.8918
433.665 52.5356 -78.5953
460.515 55.401 -73.1732
426.613 84.3411 -81.887
398.587 80.4465 -76.2038
403.879 48.5755 -73.1416
430.618 52.1726 -78.5904
395.781 80.0337 -75.0264
372.086 76.0648 -59.0107
378.458 44.7483 -56.6417
401.073 48.1627 -71.9642
369.935 75.7183 -56.8322
354.053 73.021 -32.7674
361.173 42.0386 -31.4739
376.307 44.4019 -54.4631
352.887 72.8299 -29.9158
347.313 71.8802 -1.50941
354.705 40.9938 -1.51243
360.008 41.8474 -28.6222
355.56 37.5987 1.48825
360.877 38.4145 28.5777
368.888 8.09467 26.82
363.897 7.39141 1.4807
361.978 38.5798 31.2699
377.079 40.9462 54.2126
384.156 10.3182 50.9695
369.989 8.25996 29.5121
379.112 41.2484 56.2706
401.719 44.6928 71.5976
407.383 13.617 67.3576
386.188 10.6204 53.0275
404.374 45.063 72.7124
431.109 48.6722 78.1669
435.062 17.2577 73.5284
410.037 13.9873 68.4724
433.987 49.0221 78.1675
460.838 51.892 72.7509
463.01 20.4564 68.4505
437.94 17.6076 73.5291
463.502 52.1758 71.6331
486.255 54.3904 56.2566
486.883 23.0129 52.9366
465.675 20.7402 67.3327
488.296 54.6009 54.1931
503.535 56.1349 31.2059
503.092 24.755 29.398
488.924 23.2234 50.8731
504.64 56.2497 28.5137
509.991 56.7954 1.42239
509.164 25.3845 1.43307
504.197 24.8699 26.7058
509.991 56.793 -1.48806
504.638 56.221 -28.5594
504.192 24.8109 -26.7342
509.163 25.3821 -1.47737
503.535 56.104 -31.2479
488.325 54.572 -54.1871
488.943 23.1707 -50.8638
503.089 24.6939 -29.4227
486.286 54.3634 -56.2485
463.534 52.1613 -71.6283
465.698 20.7266 -67.329
486.904 22.9621 -52.9253
460.869 51.8792 -72.7469
434.019 49.0138 -78.1689
437.962 17.6018 -73.529
463.033 20.4444 -68.4475
431.141 48.6648 -78.1688
404.403 45.0678 -72.7201
410.057 13.9943 -68.4769
435.085 17.2528 -73.5289
401.747 44.7002 -71.606
379.132 41.2858 -56.2834
386.196 10.6729 -53.04
407.402 13.6267 -67.3628
377.098 40.986 -54.2234
361.964 38.6227 -31.2341
369.969 8.32133 -29.4881
384.162 10.3731 -50.98
360.863 38.4549 -28.5384
355.559 37.6013 -1.42856
363.896 7.39407 -1.43611
368.867 8.15356 -26.7924
364.931 4.27766 1.3511
369.922 4.98091 26.6904
380.255 -21.1087 23.7828
375.832 -21.7302 1.33106
370.929 5.12356 29.1475
385.096 7.18183 50.6049
393.861 -19.2071 45.2703
381.262 -20.966 26.24
386.958 7.44161 52.4827
408.152 10.4382 66.8129
414.606 -16.4206 59.8174
395.722 -18.9473 47.1482
410.58 10.7646 67.8257
435.605 14.035 72.8817
439.271 -13.1474 65.2204
417.034 -16.0942 60.8302
438.23 14.3683 72.8787
463.3 17.2171 67.8001
464.078 -9.88478 60.6922
441.895 -12.8141 65.2175
465.727 17.51 66.7813
486.935 19.7827 52.3853
485.266 -7.11868 46.9536
466.505 -9.59191 59.6734
488.793 20.0042 50.5056
502.961 21.5358 29.0305
499.637 -5.24932 26.1104
487.124 -6.89715 45.074
503.966 21.6548 26.5785
508.933 22.1694 1.30581
505.03 -4.55271 1.32571
500.641 -5.13034 23.6584
508.933 22.1676 -1.34622
503.961 21.5964 -26.6031
500.641 -5.13297 -23.6589
505.03 -4.5545 -1.32633
502.957 21.4756 -29.0543
488.811 19.9525 -50.4954
487.124 -6.90155 -45.074
499.636 -5.25374 -26.1101
486.954 19.7328 -52.3747
465.747 17.4972 -66.7784
466.505 -9.59424 -59.6731
485.266 -7.12124 -46.9532
463.321 17.2056 -67.7972
438.25 14.363 -72.8787
441.896 -12.8151 -65.2172
464.079 -9.88584 -60.6919
435.626 14.0302 -72.8818
410.599 10.7716 -67.8298
417.035 -16.0945 -60.8302
439.271 -13.1479 -65.2203
408.17 10.4467 -66.8171
386.964 7.49289 -52.4943
395.722 -18.9458 -47.1483
414.606 -16.4194 -59.8174
385.102 7.23513 -50.6159
370.909 5.18334 -29.1241
381.261 -20.9625 -26.2396
393.86 -19.2036 -45.2699
369.902 5.03895 -26.6662
364.931 4.27946 -1.30995
375.832 -21.7284 -1.32999
380.254 -21.1069 -23.7817
-331.419 726.315 25.3948
-332.45 721.267 -0.368956
-331.367 726.296 -26.1335
-328.38 740.618 -47.9342
-324.017 762.027 -62.4472
-319.103 787.27 -67.5204
-314.548 812.589 -62.4542
-310.903 834.159 -47.9587
-308.502 848.611 -26.1667
-307.666 853.696 -0.41186
-308.531 848.635 25.3464
-310.945 834.198 47.1457
-314.597 812.639 61.6533
-319.157 787.325 66.7362
-324.068 762.078 61.6794
-328.44 740.657 47.1854
382.635 -22.3863 1.76393e-05
387.057 -21.7648 22.4517
399.656 -20.0058 41.4821
418.54 -17.4792 54.1513
440.777 -14.5323 58.5415
462.96 -11.603 54.0162
481.721 -9.1298 41.2965
494.234 -7.48197 22.3329
498.623 -6.90434 0.000247942
494.233 -7.48281 -22.3323
481.721 -9.13061 -41.2962
462.96 -11.6036 -54.016
440.777 -14.5328 -58.5413
418.54 -17.4795 -54.1511
399.656 -20.0059 -41.482
387.057 -21.7648 -22.4517
</DataArray>
</Points>
<Cells>
<DataArray type="Int32" Name="connectivity" format="ascii">
0 1 2 3 
4 5 6 7 
8 9 10 11 
12 13 14 15 
16 17 18 19 
20 21 22 23 
24 25 26 27 
28 29 30 31 
32 33 34 35 
36 37 38 39 
40 41 42 43 
44 45 46 47 
48 49 50 51 
52 53 54 55 
56 57 58 59 
60 61 62 63 
64 65 66 67 
68 69 70 71 
72 73 74 75 
76 77 78 79 
80 81 82 83 
84 85 86 87 
88 89 90 91 
92 93 94 95 
96 97 98 99 
100 101 102 103 
104 105 106 107 
108 109 110 111 
112 113 114 115 
116 117 118 119 
120 121 122 123 
124 125 126 127 
128 129 130 131 
132 133 134 135 
136 137 138 139 
140 141 142 143 
144 145 146 147 
148 149 150 151 
152 153 154 155 
156 157 158 159 
160 161 162 163 
164 165 166 167 
168 169 170 171 
172 173 174 175 
176 177 178 179 
180 181 182 183 
184 185 186 187 
188 189 190 191 
192 193 194 195 
196 197 198 199 
200 201 202 203 
204 205 206 207 
208 209 210 211 
212 213 214 215 
216 217 218 219 
220 221 222 223 
224 225 226 227 
228 229 230 231 
232 233 234 235 
236 237 238 239 
240 241 242 243 
244 245 246 247 
248 249 250 251 
252 253 254 255 
256 257 258 259 
260 261 262 263 
264 265 266 267 
268 269 270 271 
272 273 274 275 
276 277 278 279 
280 281 282 283 
284 285 286 287 
288 289 290 291 
292 293 294 295 
296 297 298 299 
300 301 302 303 
304 305 306 307 
308 309 310 311 
312 313 314 315 
316 317 318 319 
320 321 322 323 
324 325 326 327 
328 329 330 331 
332 333 334 335 
336 337 338 339 
340 341 342 343 
344 345 346 347 
348 349 350 351 
352 353 354 355 
356 357 358 359 
360 361 362 363 
364 365 366 367 
368 369 370 371 
372 373 374 375 
376 377 378 379 
380 381 382 383 
384 385 386 387 
388 389 390 391 
392 393 394 395 
396 397 398 399 
400 401 402 403 
404 405 406 407 
408 409 410 411 
412 413 414 415 
416 417 418 419 
420 421 422 423 
424 425 426 427 
428 429 430 431 
432 433 434 435 
436 437 438 439 
440 441 442 443 
444 445 446 447 
448 449 450 451 
452 453 454 455 
456 457 458 459 
460 461 462 463 
464 465 466 467 
468 469 470 471 
472 473 474 475 
476 477 478 479 
480 481 482 483 
484 485 486 487 
488 489 490 491 
492 493 494 495 
496 497 498 499 
500 501 502 503 
504 505 506 507 
508 509 510 511 
512 513 514 515 
516 517 518 519 
520 521 522 523 
524 525 526 527 
528 529 530 531 
532 533 534 535 
536 537 538 539 
540 541 542 543 
544 545 546 547 
548 549 550 551 
552 553 554 555 
556 557 558 559 
560 561 562 563 
564 565 566 567 
568 569 570 571 
572 573 574 575 
576 577 578 579 
580 581 582 583 
584 585 586 587 
588 589 590 591 
592 593 594 595 
596 597 598 599 
600 601 602 603 
604 605 606 607 
608 609 610 611 
612 613 614 615 
616 617 618 619 
620 621 622 623 
624 625 626 627 
628 629 630 631 
632 633 634 635 
636 637 638 639 
640 641 642 643 
644 645 646 647 
648 649 650 651 
652 653 654 655 
656 657 658 659 
660 661 662 663 
664 665 666 667 
668 669 670 671 
672 673 674 675 
676 677 678 679 
680 681 682 683 
684 685 686 687 
688 689 690 691 
692 693 694 695 
696 697 698 699 
700 701 702 703 
704 705 706 707 
708 709 710 711 
712 713 714 715 
716 717 718 719 
720 721 722 723 
724 725 726 727 
728 729 730 731 
732 733 734 735 
736 737 738 739 
740 741 742 743 
744 745 746 747 
748 749 750 751 
752 753 754 755 
756 757 758 759 
760 761 762 763 
764 765 766 767 
768 769 770 771 
772 773 774 775 
776 777 778 779 
780 781 782 783 
784 785 786 787 
788 789 790 791 
792 793 794 795 
796 797 798 799 
800 801 802 803 
804 805 806 807 
808 809 810 811 
812 813 814 815 
816 817 818 819 
820 821 822 823 
824 825 826 827 
828 829 830 831 
832 833 834 835 
836 837 838 839 
840 841 842 843 
844 845 846 847 
848 849 850 851 
852 853 854 855 
856 857 858 859 
860 861 862 863 
864 865 866 867 
868 869 870 871 
872 873 874 875 
876 877 878 879 
880 881 882 883 
884 885 886 887 
888 889 890 891 
892 893 894 895 
896 897 898 899 
900 901 902 903 
904 905 906 907 
908 909 910 911 
912 913 914 915 
916 917 918 919 
920 921 922 923 
924 925 926 927 
928 929 930 931 
932 933 934 935 
936 937 938 939 
940 941 942 943 
944 945 946 947 
948 949 950 951 
952 953 954 955 
956 957 958 959 
960 961 962 963 
964 965 966 967 
968 969 970 971 
972 973 974 975 
976 977 978 979 
980 981 982 983 
984 985 986 987 
988 989 990 991 
992 993 994 995 
996 997 998 999 
1000 1001 1002 1003 
1004 1005 1006 1007 
1008 1009 1010 1011 
1012 1013 1014 1015 
1016 1017 1018 1019 
1020 1021 1022 1023 
1024 1025 1026 1027 
1028 1029 1030 1031 
1032 1033 1034 1035 
1036 1037 1038 1039 
1040 1041 1042 1043 
1044 1045 1046 1047 
1048 1049 1050 1051 
1052 1053 1054 1055 
1056 1057 1058 1059 
1060 1061 1062 1063 
1064 1065 1066 1067 
1068 1069 1070 1071 
1072 1073 1074 1075 
1076 1077 1078 1079 
1080 1081 1082 1083 
1084 1085 1086 1087 
1088 1089 1090 1091 
1092 1093 1094 1095 
1096 1097 1098 1099 
1100 1101 1102 1103 
1104 1105 1106 1107 
1108 1109 1110 1111 
1112 1113 1114 1115 
1116 1117 1118 1119 
1120 1121 1122 1123 
1124 1125 1126 1127 
1128 1129 1130 1131 
1132 1133 1134 1135 
1136 1137 1138 1139 
1140 1141 1142 1143 
1144 1145 1146 1147 
1148 1149 1150 1151 
1152 1153 1154 1155 
1156 1157 1158 1159 
1160 1161 1162 1163 
1164 1165 1166 1167 
1168 1169 1170 1171 
1172 1173 1174 1175 
1176 1177 1178 1179 
1180 1181 1182 1183 
1184 1185 1186 1187 
1188 1189 1190 1191 
1192 1193 1194 1195 
1196 1197 1198 1199 
1200 1201 1202 1203 
1204 1205 1206 1207 
1208 1209 1210 1211 
1212 1213 1214 1215 
1216 1217 1218 1219 
1220 1221 1222 1223 
1224 1225 1226 1227 
1228 1229 1230 1231 
1232 1233 1234 1235 
1236 1237 1238 1239 
1240 1241 1242 1243 
1244 1245 1246 1247 
1248 1249 1250 1251 
1252 1253 1254 1255 
1256 1257 1258 1259 
1260 1261 1262 1263 
1264 1265 1266 1267 
1268 1269 1270 1271 
1272 1273 1274 1275 
1276 1277 1278 1279 
1280 1281 1282 1283 
1284 1285 1286 1287 
1288 1289 1290 1291 
1292 1293 1294 1295 
1296 1297 1298 1299 
1300 1301 1302 1303 
1304 1305 1306 1307 
1308 1309 1310 1311 
1312 1313 1314 1315 
1316 1317 1318 1319 
1320 1321 1322 1323 
1324 1325 1326 1327 
1328 1329 1330 1331 
1332 1333 1334 1335 
1336 1337 1338 1339 
1340 1341 1342 1343 
1344 1345 1346 1347 
1348 1349 1350 1351 
1352 1353 1354 1355 
1356 1357 1358 1359 
1360 1361 1362 1363 
1364 1365 1366 1367 
1368 1369 1370 1371 
1372 1373 1374 1375 
1376 1377 1378 1379 
1380 1381 1382 1383 
1384 1385 1386 1387 
1388 1389 1390 1391 
1392 1393 1394 1395 
1396 1397 1398 1399 
1400 1401 1402 1403 
1404 1405 1406 1407 
1408 1409 1410 1411 
1412 1413 1414 1415 
1416 1417 1418 1419 
1420 1421 1422 1423 
1424 1425 1426 1427 
1428 1429 1430 1431 
1432 1433 1434 1435 
1436 1437 1438 1439 
1440 1441 1442 1443 
1444 1445 1446 1447 
1448 1449 1450 1451 
1452 1453 1454 1455 
1456 1457 1458 1459 
1460 1461 1462 1463 
1464 1465 1466 1467 
1468 1469 1470 1471 
1472 1473 1474 1475 
1476 1477 1478 1479 
1480 1481 1482 1483 
1484 1485 1486 1487 
1488 1489 1490 1491 
1492 1493 1494 1495 
1496 1497 1498 1499 
1500 1501 1502 1503 
1504 1505 1506 1507 
1508 1509 1510 1511 
1512 1513 1514 1515 
1516 1517 1518 1519 
1520 1521 1522 1523 
1524 1525 1526 1527 
1528 1529 1530 1531 
1532 1533 1534 1535 
1536 1537 1538 1539 
1540 1541 1542 1543 
1544 1545 1546 1547 
1548 1549 1550 1551 
1552 1553 1554 1555 
1556 1557 1558 1559 
1560 1561 1562 1563 
1564 1565 1566 1567 
1568 1569 1570 1571 
1572 1573 1574 1575 
1576 1577 1578 1579 
1580 1581 1582 1583 
1584 1585 1586 1587 
1588 1589 1590 1591 
1592 1593 1594 1595 
1596 1597 1598 1599 
1600 1601 1602 1603 
1604 1605 1606 1607 
1608 1609 1610 1611 
1612 1613 1614 1615 
1616 1617 1618 1619 
1620 1621 1622 1623 
1624 1625 1626 1627 
1628 1629 1630 1631 
1632 1633 1634 1635 
1636 1637 1638 1639 
1640 1641 1642 1643 
1644 1645 1646 1647 
1648 1649 1650 1651 
1652 1653 1654 1655 
1656 1657 1658 1659 
1660 1661 1662 1663 
1664 1665 1666 1667 
1668 1669 1670 1671 
1672 1673 1674 1675 
1676 1677 1678 1679 
1680 1681 1682 1683 
1684 1685 1686 1687 
1688 1689 1690 1691 
1692 1693 1694 1695 
1696 1697 1698 1699 
1700 1701 1702 1703 
1704 1705 1706 1707 
1708 1709 1710 1711 
1712 1713 1714 1715 
1716 1717 1718 1719 
1720 1721 1722 1723 
1724 1725 1726 1727 
1728 1729 1730 1731 
1732 1733 1734 1735 
1736 1737 1738 1739 
1740 1741 1742 1743 
1744 1745 1746 1747 
1748 1749 1750 1751 
1752 1753 1754 1755 
1756 1757 1758 1759 
1760 1761 1762 1763 
1764 1765 1766 1767 
1768 1769 1770 1771 
1772 1773 1774 1775 
1776 1777 1778 1779 
1780 1781 1782 1783 
1784 1785 1786 1787 
1788 1789 1790 1791 
1792 1793 1794 1795 
1796 1797 1798 1799 
1800 1801 1802 1803 
1804 1805 1806 1807 
1808 1809 1810 1811 
1812 1813 1814 1815 
1816 1817 1818 1819 
1820 1821 1822 1823 
1824 1825 1826 1827 
1828 1829 1830 1831 
1832 1833 1834 1835 
1836 1837 1838 1839 
1840 1841 1842 1843 
1844 1845 1846 1847 
1848 1849 1850 1851 
1852 1853 1854 1855 
1856 1857 1858 1859 
1860 1861 1862 1863 
1864 1865 1866 1867 
1868 1869 1870 1871 
1872 1873 1874 1875 
1876 1877 1878 1879 
1880 1881 1882 1883 
1884 1885 1886 1887 
1888 1889 1890 1891 
1892 1893 1894 1895 
1896 1897 1898 1899 
1900 1901 1902 1903 
1904 1905 1906 1907 
1908 1909 1910 1911 
1912 1913 1914 1915 
1916 1917 1918 1919 
1920 1921 1922 1923 
1924 1925 1926 1927 
1928 1929 1930 1931 
1932 1933 1934 1935 
1936 1937 1938 1939 
1940 1941 1942 1943 
1944 1945 1946 1947 
1948 1949 1950 1951 
1952 1953 1954 1955 
1956 1957 1958 1959 
1960 1961 1962 1963 
1964 1965 1966 1967 
1968 1969 1970 1971 
1972 1973 1974 1975 
1976 1977 1978 1979 
1980 1981 1982 1983 
1984 1985 1986 1987 
1988 1989 1990 1991 
1992 1993 1994 1995 
1996 1997 1998 1999 
2000 2001 2002 2003 
2004 2005 2006 2007 
2008 2009 2010 2011 
2012 2013 2014 2015 
2016 2017 2018 2019 
2020 2021 2022 2023 
2024 2025 2026 2027 
2028 2029 2030 2031 
2032 2033 2034 2035 
2036 2037 2038 2039 
2040 2041 2042 2043 
2044 2045 2046 2047 
2048 2049 2050 2051 2052 2053 2054 2055 2056 2057 2058 2059 2060 2061 2062 2063 
2064 2065 2066 2067 2068 2069 2070 2071 2072 2073 2074 2075 2076 2077 2078 2079 
</DataArray>
<DataArray type="Int32" Name="offsets" format="ascii">
4 8 12 16 20 24 28 32 36 40 44 48 52 56 60 64 68 72 76 80 84 88 92 96 100 104 108 112 116 120 124 128 132 136 140 144 148 152 156 160 164 168 172 176 180 184 188 192 196 200 204 208 212 216 220 224 228 232 236 240 244 248 252 256 260 264 268 272 276 280 284 288 292 296 300 304 308 312 316 320 324 328 332 336 340 344 348 352 356 360 364 368 372 376 380 384 388 392 396 400 404 408 412 416 420 424 428 432 436 440 444 448 452 456 460 464 468 472 476 480 484 488 492 496 500 504 508 512 516 520 524 528 532 536 540 544 548 552 556 560 564 568 572 576 580 584 588 592 596 600 604 608 612 616 620 624 628 632 636 640 644 648 652 656 660 664 668 672 676 680 684 688 692 696 700 704 708 712 716 720 724 728 732 736 740 744 748 752 756 760 764 768 772 776 780 784 788 792 796 800 804 808 812 816 820 824 828 832 836 840 844 848 852 856 860 864 868 872 876 880 884 888 892 896 900 904 908 912 916 920 924 928 932 936 940 944 948 952 956 960 964 968 972 976 980 984 988 992 996 1000 1004 1008 1012 1016 1020 1024 1028 1032 1036 1040 1044 1048 1052 1056 1060 1064 1068 1072 1076 1080 1084 1088 1092 1096 1100 1104 1108 1112 1116 1120 1124 1128 1132 1136 1140 1144 1148 1152 1156 1160 1164 1168 1172 1176 1180 1184 1188 1192 1196 1200 1204 1208 1212 1216 1220 1224 1228 1232 1236 1240 1244 1248 1252 1256 1260 1264 1268 1272 1276 1280 1284 1288 1292 1296 1300 1304 1308 1312 1316 1320 1324 1328 1332 1336 1340 1344 1348 1352 1356 1360 1364 1368 1372 1376 1380 1384 1388 1392 1396 1400 1404 1408 1412 1416 1420 1424 1428 1432 1436 1440 1444 1448 1452 1456 1460 1464 1468 1472 1476 1480 1484 1488 1492 1496 1500 1504 1508 1512 1516 1520 1524 1528 1532 1536 1540 1544 1548 1552 1556 1560 1564 1568 1572 1576 1580 1584 1588 1592 1596 1600 1604 1608 1612 1616 1620 1624 1628 1632 1636 1640 1644 1648 1652 1656 1660 1664 1668 1672 1676 1680 1684 1688 1692 1696 1700 1704 1708 1712 1716 1720 1724 1728 1732 1736 1740 1744 1748 1752 1756 1760 1764 1768 1772 1776 1780 1784 1788 1792 1796 1800 1804 1808 1812 1816 1820 1824 1828 1832 1836 1840 1844 1848 1852 1856 1860 1864 1868 1872 1876 1880 1884 1888 1892 1896 1900 1904 1908 1912 1916 1920 1924 1928 1932 1936 1940 1944 1948 1952 1956 1960 1964 1968 1972 1976 1980 1984 1988 1992 1996 2000 2004 2008 2012 2016 2020 2024 2028 2032 2036 2040 2044 2048 2064 2080 
</DataArray>
<DataArray type="UInt8" Name="types" format="ascii">
7 7 7 7 7 7 7 7 7 7 7 7 7 7 7 7 7 7 7 7 7 7 7 7 7 7 7 7 7 7 7 7 7 7 7 7 7 7 7 7 7 7 7 7 7 7 7 7 7 7 7 7 7 7 7 7 7 7 7 7 7 7 7 7 7 7 7 7 7 7 7 7 7 7 7 7 7 7 7 7 7 7 7 7 7 7 7 7 7 7 7 7 7 7 7 7 7 7 7 7 7 7 7 7 7 7 7 7 7 7 7 7 7 7 7 7 7 7 7 7 7 7 7 7 7 7 7 7 7 7 7 7 7 7 7 7 7 7 7 7 7 7 7 7 7 7 7 7 7 7 7 7 7 7 7 7 7 7 7 7 7 7 7 7 7 7 7 7 7 7 7 7 7 7 7 7 7 7 7 7 7 7 7 7 7 7 7 7 7 7 7 7 7 7 7 7 7 7 7 7 7 7 7 7 7 7 7 7 7 7 7 7 7 7 7 7 7 7 7 7 7 7 7 7 7 7 7 7 7 7 7 7 7 7 7 7 7 7 7 7 7 7 7 7 7 7 7 7 7 7 7 7 7 7 7 7 7 7 7 7 7 7 7 7 7 7 7 7 7 7 7 7 7 7 7 7 7 7 7 7 7 7 7 7 7 7 7 7 7 7 7 7 7 7 7 7 7 7 7 7 7 7 7 7 7 7 7 7 7 7 7 7 7 7 7 7 7 7 7 7 7 7 7 7 7 7 7 7 7 7 7 7 7 7 7 7 7 7 7 7 7 7 7 7 7 7 7 7 7 7 7 7 7 7 7 7 7 7 7 7 7 7 7 7 7 7 7 7 7 7 7 7 7 7 7 7 7 7 7 7 7 7 7 7 7 7 7 7 7 7 7 7 7 7 7 7 7 7 7 7 7 7 7 7 7 7 7 7 7 7 7 7 7 7 7 7 7 7 7 7 7 7 7 7 7 7 7 7 7 7 7 7 7 7 7 7 7 7 7 7 7 7 7 7 7 7 7 7 7 7 7 7 7 7 7 7 7 7 7 7 7 7 7 7 7 7 7 7 7 7 7 7 7 7 7 7 7 7 7 7 7 7 7 7 7 7 7 7 7 7 7 7 7 7 7 7 7 7 7 7 7 7 7 7 7 7 7 7 7 7 7 7 7 7 
</DataArray>
</Cells>
<CellData Scalars="cell variable 4" Vectors="cell vector">
<DataArray type="Float64" NumberOfComponents="3" Name="cell vector" format="ascii">
0.130182 0.156334 0.979087
0.361933 0.435183 0.824391
0.463027 0.678543 0.570251
0.275055 0.938 0.210951
-0.0715468 0.970172 -0.23162
-0.0735524 0.81623 -0.573026
0.0110058 -0.548288 0.836217
-0.00323288 -0.192539 0.981284
0.0103172 0.193299 0.981086
-0.0113584 0.548904 0.835808
-0.076009 0.816429 0.572421
-0.0729046 0.97021 0.231037
0.271691 0.938999 -0.210866
0.454809 0.683481 -0.570966
-0.343729 -0.444542 0.827183
-0.136899 -0.153242 0.97866
0.058044 0.187763 0.980498
0.163971 0.533299 0.829883
0.221022 0.802404 0.554343
0.177755 0.96449 0.195349
0.124706 0.972634 -0.196039
0.118137 0.823071 -0.555515
-0.0892987 -0.549184 0.830917
-0.0327004 -0.192677 0.980717
0.0334779 0.193186 0.980591
0.0887363 0.549797 0.830572
0.11678 0.82361 0.555004
0.12365 0.972889 0.195443
0.176642 0.96458 -0.195915
0.220024 0.802298 -0.554894
-0.16357 -0.532813 0.830274
-0.0603453 -0.186633 0.980575
0.0571599 0.187878 0.980528
0.162149 0.533631 0.830028
0.224908 0.801493 0.554099
0.149308 0.969305 0.195333
0.123796 0.973134 -0.194127
0.129975 0.821641 -0.554989
-0.0949723 -0.548119 0.830991
-0.0343934 -0.19225 0.980743
0.033981 0.19296 0.980618
0.0945633 0.548692 0.83066
0.129578 0.822034 0.554499
0.123307 0.973327 0.19347
0.148737 0.969264 -0.195972
0.224735 0.801223 -0.55456
-0.162176 -0.533073 0.830381
-0.0583917 -0.186849 0.980652
0.0589094 0.186985 0.980595
0.169072 0.530805 0.830458
0.246019 0.795024 0.554447
0.163437 0.967241 0.194252
0.952669 -0.303039 0.0242741
0.977734 -0.209514 0.0118101
0.98045 -0.196701 0.00517524
0.98092 -0.194406 0.00178975
0.980927 -0.194374 -0.000745555
0.980468 -0.196636 -0.00418503
0.977747 -0.209505 -0.0109316
0.952445 -0.303802 -0.023514
0.162356 0.967304 -0.194841
0.246073 0.794737 -0.554835
-0.169146 -0.530258 0.830793
-0.0597913 -0.185917 0.980745
0.0604489 0.185808 0.980725
0.173522 0.527969 0.831348
0.258131 0.790594 0.555274
0.277336 0.941003 0.193903
0.942055 -0.334937 0.0186894
0.964502 -0.26382 0.0116621
0.968359 -0.249516 0.00470581
0.969136 -0.246523 0.00145981
0.969138 -0.246517 -0.000512342
0.968373 -0.249478 -0.00372751
0.964527 -0.263768 -0.0107027
0.94185 -0.335559 -0.0178717
0.276414 0.941176 -0.194378
0.258282 0.790305 -0.555615
-0.173833 -0.527372 0.831662
-0.0612482 -0.184703 0.980884
0.0646176 0.183742 0.980848
0.18589 0.522544 0.832101
0.28102 0.782388 0.555786
0.343711 0.918837 0.193913
0.936557 -0.350296 0.0124246
0.950826 -0.309523 0.0111639
0.954899 -0.296883 0.00526652
0.95588 -0.293752 0.00166631
0.955883 -0.293746 -0.000719793
0.954914 -0.296852 -0.00429973
0.950846 -0.309495 -0.010218
0.936375 -0.350811 -0.0115933
0.342811 0.91909 -0.194306
0.281163 0.782121 -0.556088
-0.186288 -0.521918 0.832405
-0.0654126 -0.182599 0.981009
0.070543 0.181081 0.980935
0.203079 0.515237 0.83264
0.308706 0.771501 0.556316
0.390358 0.899993 0.193995
0.928189 -0.372033 0.0075451
0.935638 -0.352826 0.00975908
0.939418 -0.342731 0.00546522
0.940541 -0.339675 0.00183649
0.940545 -0.339669 -0.000890409
0.939433 -0.342703 -0.00450209
0.935653 -0.35281 -0.00881995
0.928032 -0.37244 -0.00669656
0.389385 0.900341 -0.194334
0.308801 0.77127 -0.556583
-0.203506 -0.514594 0.832934
-0.0713471 -0.179886 0.981097
0.0774335 0.177924 0.980993
0.222826 0.506388 0.833018
0.338766 0.758446 0.556774
0.429198 0.882112 0.194081
0.915532 -0.40222 0.00441374
0.918565 -0.395188 0.00802213
0.921801 -0.387629 0.00524726
0.922984 -0.384833 0.00189073
0.922988 -0.384828 -0.000952015
0.921817 -0.387602 -0.00428803
0.918581 -0.39517 -0.00708223
0.915394 -0.402543 -0.00355097
0.428044 0.882606 -0.194382
0.338801 0.758257 -0.557009
-0.223265 -0.505729 0.833302
-0.0782352 -0.176668 0.981156
0.0848366 0.174296 0.981032
0.243887 0.496144 0.833283
0.370111 0.743391 0.557124
0.465432 0.863524 0.194163
0.8988 -0.438352 0.00261576
0.899432 -0.437016 0.00632891
0.902054 -0.431597 0.00472604
0.903212 -0.429191 0.00182874
0.903216 -0.429186 -0.000893997
0.90207 -0.431573 -0.00377341
0.899444 -0.437003 -0.00539529
0.898668 -0.438626 -0.00174626
0.464171 0.864142 -0.194432
0.370116 0.743235 -0.55733
-0.244325 -0.495468 0.833557
-0.0856033 -0.172983 0.981198
0.0924828 0.170211 0.981058
0.265594 0.484551 0.833469
0.40221 0.726331 0.557378
0.499371 0.844331 0.194252
0.878679 -0.47741 0.00161875
0.878134 -0.47839 0.00488234
0.880189 -0.474607 0.00403652
0.881246 -0.472655 0.00168174
0.88125 -0.472649 -0.000747542
0.880203 -0.474587 -0.00309306
0.878139 -0.478389 -0.00396158
0.878546 -0.477656 -0.000749174
0.498148 0.844998 -0.194492
0.402208 0.726197 -0.557554
-0.266017 -0.483862 0.833734
-0.0931857 -0.168849 0.981227
0.100196 0.165685 0.981076
0.287473 0.471666 0.833601
0.434555 0.707307 0.557566
0.532526 0.823804 0.194326
0.855736 -0.517412 0.00104617
0.854666 -0.519165 0.0036925
0.856221 -0.516599 0.00329334
0.857128 -0.515102 0.00147797
0.857132 -0.515096 -0.000557236
0.856236 -0.51658 -0.00236757
0.85467 -0.519165 -0.00278732
0.855599 -0.51764 -0.000186817
0.531252 0.824576 -0.19454
0.434538 0.707201 -0.557712
-0.287876 -0.470964 0.833858
-0.100826 -0.164277 0.981248
0.107863 0.16073 0.981087
0.309187 0.457555 0.833694
0.466676 0.686428 0.557701
0.565825 0.801287 0.194374
0.83007 -0.557659 0.000762393
0.829066 -0.559144 0.00271469
0.830201 -0.557458 0.00256732
0.83093 -0.556375 0.00124506
0.830936 -0.556368 -0.000338098
0.830215 -0.55744 -0.00166268
0.829062 -0.559154 -0.00183773
0.829912 -0.557894 7.47479e-05
0.56465 0.80207 -0.194562
0.46666 0.686343 -0.557819
-0.309563 -0.456846 0.833944
-0.108402 -0.159289 0.981263
0.115408 0.155358 0.981094
0.330564 0.442245 0.833755
0.498376 0.663701 0.557782
0.598995 0.7768 0.19439
0.801827 -0.597556 0.000660282
0.801386 -0.598145 0.00189295
0.802168 -0.597096 0.00187059
0.802703 -0.596379 0.000994456
0.802708 -0.596372 -0.000110701
0.802183 -0.597078 -0.000987534
0.801379 -0.598156 -0.00103973
0.801654 -0.597788 0.000154448
0.597866 0.777628 -0.194554
0.498362 0.663638 -0.557872
-0.330909 -0.441531 0.833996
-0.115847 -0.153893 0.981273
0.122808 0.149568 0.981095
0.351537 0.42573 0.833772
0.529583 0.639079 0.557782
0.631819 0.750363 0.194321
0.771147 -0.636657 0.000519035
0.771671 -0.636021 0.00100322
0.772065 -0.635542 0.00111894
0.772366 -0.635177 0.000716171
0.772372 -0.63517 0.000149934
0.772079 -0.635527 -0.000262114
0.771656 -0.63604 -0.000179685
0.770977 -0.636863 0.000277605
0.630783 0.751197 -0.194461
0.529587 0.639022 -0.557843
-0.351844 -0.425017 0.834006
-0.123134 -0.148095 0.981278
0.130076 0.143384 0.981082
0.372185 0.408007 0.833672
0.560762 0.612152 0.557509
0.670902 0.715784 0.193762
0.739208 -0.673476 -0.00102971
0.739345 -0.673326 -0.00111942
0.738863 -0.673856 -0.000501704
0.738705 -0.674029 0.000111738
0.738711 -0.674022 0.000727324
0.738875 -0.673842 0.00133312
0.739327 -0.673344 0.00191828
0.739036 -0.673663 0.00180321
0.669872 0.716718 -0.193874
0.560774 0.612109 -0.557543
-0.372445 -0.407305 0.833899
-0.130285 -0.14191 0.981268
0.137005 0.136954 0.981057
0.391771 0.389649 0.83348
0.589823 0.584664 0.557026
0.702872 0.684669 0.192869
-0.705121 0.709086 0.00100614
-0.705594 0.708615 0.00141039
-0.704948 0.709258 0.00088722
-0.704619 0.709586 6.0324e-05
-0.704624 0.70958 -0.000858623
-0.70496 0.709245 -0.00168164
-0.705578 0.708629 -0.00217698
-0.704961 0.709244 -0.00175084
0.701795 0.685748 -0.192958
0.589841 0.584638 -0.557034
-0.391997 -0.388948 0.833701
-0.137099 -0.135486 0.981248
0.143513 0.130239 0.981041
0.410094 0.370583 0.833361
0.616606 0.556632 0.556739
0.726384 0.659812 0.192394
-0.66886 0.743388 -0.000449966
-0.670481 0.741927 7.23342e-05
-0.67038 0.742018 0.000134687
-0.670191 0.742188 -0.000175741
-0.670198 0.742182 -0.000587735
-0.670391 0.742008 -0.000885996
-0.670461 0.741944 -0.000795624
-0.668701 0.743531 -0.000258249
0.725505 0.660757 -0.192464
0.616644 0.556606 -0.556723
-0.410299 -0.369871 0.833577
-0.143492 -0.12879 0.981236
0.149712 0.123113 0.981035
0.427611 0.350308 0.833326
0.642652 0.526416 0.556672
0.755363 0.626445 0.192338
-0.631565 0.775323 -0.000474546
-0.632979 0.774169 0.000146282
-0.632822 0.774297 0.00034483
-0.632523 0.774542 -6.38604e-05
-0.632529 0.774536 -0.000667297
-0.632833 0.774287 -0.00106144
-0.632956 0.774187 -0.000833079
-0.631408 0.775451 -0.000200193
0.75461 0.627337 -0.192387
0.642706 0.526391 -0.556635
-0.427786 -0.349595 0.833536
-0.149576 -0.121697 0.981232
0.155572 0.115677 0.981028
0.444165 0.329154 0.833292
0.667274 0.494884 0.556629
0.782262 0.592512 0.192341
-0.592614 0.805487 -0.000337441
-0.594009 0.804459 0.000514137
-0.593614 0.804749 0.000731216
-0.593127 0.805109 0.000110556
-0.593134 0.805103 -0.000799935
-0.593627 0.804739 -0.00140828
-0.593988 0.804473 -0.00116292
-0.592448 0.805609 -0.000295332
0.781583 0.593399 -0.192371
0.667334 0.494869 -0.55657
-0.444309 -0.328442 0.833496
-0.155327 -0.114298 0.981229
0.161051 0.108005 0.981019
0.459619 0.307354 0.833237
0.690192 0.46246 0.556566
0.806653 0.558852 0.192341
-0.552232 0.833691 -0.000171212
-0.553806 0.832645 0.00105177
-0.553019 0.833168 0.00121671
-0.552282 0.833657 0.000305508
-0.55229 0.833651 -0.000955254
-0.553032 0.833158 -0.001847
-0.553783 0.83266 -0.00165232
-0.552056 0.833807 -0.000415543
0.806091 0.559659 -0.192352
0.690265 0.462446 -0.556488
-0.459733 -0.306643 0.833436
-0.160701 -0.106677 0.981221
0.166128 0.100156 0.981005
0.473894 0.285094 0.833154
0.711267 0.429469 0.556467
0.828483 0.525954 0.192321
-0.51073 0.859741 4.22496e-05
-0.512562 0.858648 0.0017737
-0.511183 0.85947 0.00180515
-0.510123 0.860101 0.000510568
-0.510134 0.860094 -0.00113015
-0.511195 0.859462 -0.00238913
-0.512518 0.858673 -0.00231437
-0.510556 0.859844 -0.000583955
0.828175 0.526441 -0.192317
0.711363 0.429434 -0.556371
-0.473979 -0.284384 0.833348
-0.165669 -0.0988988 0.98121
0.170778 0.0922074 0.980986
0.486936 0.262576 0.833035
0.730418 0.396232 0.556318
0.847848 0.494152 0.19227
-0.468553 0.883435 0.000370741
-0.47047 0.882412 0.00272167
-0.468229 0.883603 0.00249681
-0.466772 0.884378 0.000734952
-0.466785 0.88437 -0.00130871
-0.468243 0.883594 -0.00302599
-0.47042 0.882437 -0.00320251
-0.468361 0.883537 -0.000854637
0.847704 0.494405 -0.192253
0.730519 0.396202 -0.556207
-0.486999 -0.261858 0.833224
-0.170224 -0.0910181 0.981193
0.174994 0.0842306 0.98096
0.498709 0.24004 0.832869
0.747575 0.363149 0.556106
0.864943 0.463618 0.192177
-0.426332 0.904566 0.000916813
-0.42774 0.903893 0.00394227
-0.42426 0.905535 0.00324962
-0.422344 0.906435 0.000946629
-0.422363 0.906426 -0.00148708
-0.424273 0.905526 -0.00372151
-0.427665 0.903927 -0.00435035
-0.42614 0.904656 -0.00134609
0.865075 0.463381 -0.192153
0.747695 0.363097 -0.555979
-0.498754 -0.239306 0.833053
-0.174351 -0.0831299 0.981168
0.178771 0.0763381 0.980925
0.509187 0.21781 0.832639
0.762705 0.330691 0.555809
0.880285 0.433841 0.192044
-0.385098 0.922874 0.00186315
-0.384567 0.923081 0.00546282
-0.379361 0.92524 0.00398223
-0.376965 0.926227 0.00110736
-0.37699 0.926216 -0.00162651
-0.37937 0.925235 -0.00439076
-0.384456 0.923125 -0.00579053
-0.384933 0.922942 -0.00224356
0.880687 0.433036 -0.192017
0.762856 0.330578 -0.555669
-0.509222 -0.217041 0.832818
-0.178044 -0.0753477 0.981134
0.182098 0.0687111 0.980877
0.518346 0.196368 0.83232
0.775816 0.299401 0.5554
0.894788 0.403153 0.191891
-0.346479 0.938051 0.00351121
-0.34105 0.940017 0.00723881
-0.333587 0.942708 0.00457192
-0.330756 0.943716 0.00118416
-0.330791 0.943703 -0.00167649
-0.333594 0.942704 -0.00490271
-0.340901 0.94007 -0.00747201
-0.346336 0.938103 -0.00383156
0.895377 0.401857 -0.191864
0.775999 0.299202 -0.555251
-0.518382 -0.19553 0.832495
-0.181302 -0.0678429 0.981084
0.184969 0.0616441 0.980809
0.526147 0.176516 0.831872
0.78693 0.269963 0.554853
0.90989 0.367857 0.191786
-0.312747 0.949816 0.00627912
-0.297046 0.95482 0.00906488
-0.286931 0.957939 0.00485661
-0.283795 0.958884 0.00114112
-0.283844 0.958869 -0.00160589
-0.286935 0.957936 -0.00509242
-0.296856 0.954878 -0.00918991
-0.312657 0.949843 -0.00653812
0.91058 0.366157 -0.191762
0.78715 0.269629 -0.554702
-0.526201 -0.175544 0.832044
-0.184127 -0.0609247 0.981012
0.18737 0.0556709 0.980711
0.532506 0.159715 0.831221
0.795975 0.243552 0.554172
0.927392 0.32113 0.191888
-0.285924 0.958194 0.0105871
-0.251836 0.967713 0.0105234
-0.239102 0.970983 0.00470782
-0.235846 0.97179 0.000985183
-0.235915 0.971773 -0.0014062
-0.239109 0.970981 -0.00481882
-0.251609 0.967772 -0.0105171
-0.285923 0.958192 -0.0107796
0.928092 0.319111 -0.191871
0.796238 0.243 -0.554036
-0.532603 -0.158476 0.831396
-0.186519 -0.0551327 0.980903
0.189184 0.0518477 0.980572
0.537068 0.148967 0.830281
0.802371 0.223334 0.553464
0.949214 0.248759 0.192643
-0.261548 0.965051 0.0164046
-0.202529 0.979212 0.011233
-0.188299 0.982102 0.00441858
-0.185128 0.982714 0.000921611
-0.185219 0.982697 -0.00120939
-0.18832 0.982098 -0.00434645
-0.202303 0.97926 -0.0110847
-0.261666 0.965017 -0.0165334
0.949791 0.246556 -0.192634
0.802673 0.222462 -0.553378
-0.537263 -0.147156 0.830478
-0.18841 -0.0515032 0.980739
0.189769 0.0519847 0.980452
0.538067 0.150949 0.829276
0.802894 0.223349 0.552699
0.978266 0.075195 0.193237
-0.202342 0.978984 0.0254562
-0.13672 0.990488 0.0155514
-0.124317 0.992209 0.00812913
-0.121388 0.992601 0.00271039
-0.121368 0.992605 -0.00213806
-0.124303 0.992214 -0.00780917
-0.136895 0.99046 -0.015779
-0.202908 0.978858 -0.0258135
0.978557 0.0717606 -0.193073
0.803289 0.221813 -0.552744
-0.538541 -0.147713 0.829551
-0.18925 -0.0518083 0.980561
0.188786 0.0474415 0.980872
0.536719 0.137272 0.83252
0.80676 0.192076 0.558789
0.978559 0.0754298 0.19166
0.978674 0.0540103 -0.19819
0.826957 0.0786459 -0.556738
-0.551876 -0.0607521 0.831711
-0.19377 -0.0222014 0.980796
0.193743 0.0222616 0.9808
0.551848 0.0613053 0.831688
0.826915 0.0791312 0.556732
0.97864 0.0542013 0.198309
0.978632 0.0749103 -0.191486
0.807153 0.19059 -0.55873
-0.537502 -0.133864 0.83257
-0.188475 -0.0475956 0.980924
0.189359 0.041219 0.981042
0.538959 0.118804 0.833912
0.812109 0.162144 0.560525
0.973971 0.114848 0.195423
0.977116 0.065408 -0.202402
0.825455 0.0714316 -0.559929
-0.550903 -0.057429 0.832591
-0.193378 -0.0212166 0.980895
0.19359 0.0217548 0.980841
0.550932 0.0573886 0.832575
0.825387 0.0714579 0.560027
0.977095 0.0651988 0.202569
0.974104 0.114113 -0.19519
0.81243 0.161094 -0.560362
-0.539695 -0.116081 0.833819
-0.188954 -0.0417607 0.981098
0.185043 0.0471349 0.981599
0.523519 0.145752 0.839455
0.786428 0.221924 0.576438
0.974443 0.115307 0.192784
0.972119 -0.0296628 -0.232606
0.818778 0.0141871 -0.573934
-0.546642 -0.0329003 0.83672
-0.191725 -0.0126581 0.981367
0.191947 0.0144367 0.981299
0.546229 0.0293728 0.837121
0.818691 0.0135094 0.574076
0.972242 -0.0280203 0.232295
0.974626 0.114269 -0.192475
0.787253 0.21978 -0.576133
-0.526905 -0.137472 0.838733
-0.184503 -0.0485011 0.981635
0.000748359 0.00689157 0.999976
0.00408152 0.000544941 0.999992
</DataArray>
<DataArray type="Float64" Name="cell vector length" format="ascii">
0.154251 0.151592 0.133676 0.101023 0.137323 0.153584 0.147307 0.142159 0.141794 0.146515 0.154011 0.137432 0.100749 0.132671 0.160589 0.159246 0.417776 0.392613 0.351803 0.331931 0.362434 0.392727 0.40145 0.398592 0.397656 0.398849 0.392502 0.362615 0.332434 0.35265 0.39986 0.420205 0.52795 0.496009 0.4336 0.40634 0.460693 0.499515 0.505671 0.501606 0.50097 0.503692 0.499466 0.461009 0.406946 0.434134 0.500853 0.529304 0.567943 0.527207 0.432937 0.185808 0.211086 0.46759 0.586558 0.633883 0.633891 0.586751 0.467214 0.210821 0.186323 0.433247 0.531638 0.569103 0.592788 0.543334 0.423806 0.170291 0.188345 0.45282 0.577822 0.627147 0.627064 0.577613 0.452449 0.187969 0.170723 0.423963 0.547638 0.593842 0.607159 0.550901 0.415957 0.151263 0.187057 0.44914 0.575622 0.625759 0.625686 0.57543 0.448769 0.186591 0.151709 0.416072 0.555415 0.608247 0.616187 0.555645 0.411511 0.136282 0.190687 0.447933 0.574507 0.625125 0.625063 0.574335 0.447576 0.19018 0.136757 0.411636 0.560579 0.617381 0.622148 0.558908 0.408881 0.125085 0.195433 0.447754 0.573747 0.624623 0.624567 0.573585 0.44741 0.194909 0.125596 0.40904 0.564363 0.62348 0.626183 0.561133 0.407076 0.116819 0.199845 0.448123 0.573268 0.624234 0.624183 0.573113 0.447789 0.199299 0.117387 0.407281 0.567155 0.627666 0.628938 0.562572 0.405645 0.111756 0.202183 0.448307 0.572987 0.624002 0.623954 0.572836 0.447978 0.201622 0.112377 0.405901 0.569182 0.630579 0.6308 0.563401 0.404287 0.106682 0.205606 0.449273 0.573038 0.623906 0.62386 0.572887 0.448943 0.205019 0.10737 0.404596 0.570604 0.632604 0.632061 0.563781 0.402864 0.102237 0.208773 0.450401 0.57331 0.623977 0.623933 0.573159 0.450072 0.208164 0.102989 0.403227 0.571572 0.634028 0.632917 0.563827 0.401307 0.0982528 0.211618 0.451634 0.573841 0.624297 0.624257 0.573693 0.451309 0.210985 0.0990697 0.401726 0.572195 0.635046 0.633525 0.563636 0.399507 0.0941188 0.214816 0.453466 0.575025 0.625229 0.625191 0.574876 0.453138 0.214153 0.0950046 0.399981 0.572571 0.635816 0.63398 0.5634 0.397818 0.0907849 0.224871 0.460223 0.580203 0.629733 0.629694 0.580051 0.459896 0.224193 0.091721 0.398348 0.572885 0.63643 0.634283 0.56317 0.396435 0.082502 0.253823 0.482069 0.597117 0.644574 0.644537 0.596964 0.481744 0.25313 0.0835129 0.397015 0.573167 0.636885 0.634357 0.5627 0.394969 0.0804528 0.261718 0.487558 0.601519 0.648492 0.648451 0.601352 0.487221 0.261012 0.0815138 0.39559 0.573175 0.637103 0.634103 0.561924 0.393335 0.0780416 0.262522 0.488204 0.602186 0.649144 0.649099 0.602008 0.487854 0.261789 0.0791526 0.393997 0.572855 0.636988 0.633502 0.560947 0.391969 0.0766134 0.262462 0.488253 0.602447 0.649467 0.649421 0.602261 0.487895 0.261713 0.0777583 0.392668 0.572312 0.636522 0.632552 0.559757 0.390764 0.0759316 0.261999 0.488178 0.602708 0.649829 0.649781 0.602516 0.487818 0.261233 0.0771119 0.391495 0.57153 0.635704 0.631179 0.558287 0.389672 0.0760587 0.261078 0.488034 0.603038 0.650288 0.650238 0.602838 0.487671 0.260311 0.0772499 0.390432 0.570448 0.634458 0.629255 0.55644 0.388691 0.0771819 0.259593 0.487847 0.603472 0.650853 0.6508 0.603262 0.487483 0.258838 0.0783689 0.389483 0.568971 0.632659 0.626579 0.554078 0.387851 0.0796141 0.257425 0.487666 0.60405 0.651525 0.651466 0.603826 0.487304 0.256682 0.0807937 0.38868 0.566974 0.630112 0.622857 0.551016 0.387235 0.0838117 0.254475 0.487597 0.604811 0.652295 0.652225 0.604565 0.487235 0.253769 0.0849487 0.388115 0.564285 0.626527 0.617647 0.547025 0.387047 0.0903709 0.25075 0.487823 0.605794 0.65314 0.653056 0.605521 0.487461 0.250092 0.0914599 0.387997 0.560698 0.621475 0.610217 0.541788 0.387727 0.099907 0.246629 0.488666 0.607072 0.654074 0.653972 0.606767 0.488311 0.246051 0.100923 0.388766 0.555922 0.614243 0.599061 0.534545 0.389937 0.112257 0.243859 0.490925 0.60897 0.655349 0.655228 0.608635 0.490592 0.243385 0.113193 0.39108 0.549236 0.603355 0.579671 0.521581 0.392346 0.12141 0.25029 0.498182 0.613699 0.658887 0.658783 0.61342 0.497947 0.249993 0.122248 0.393586 0.537039 0.58437 0.532801 0.480993 0.372723 0.0818846 0.30973 0.53603 0.63731 0.678852 0.679448 0.639471 0.535805 0.309526 0.0828371 0.374041 0.498067 0.538254 0.496131 0.449372 0.369165 0.329753 0.391045 0.439345 0.465767 0.463852 0.45773 0.449605 0.43762 0.391539 0.330759 0.370596 0.467787 0.502121 0.448342 0.404718 0.343062 0.30815 0.338504 0.379267 0.416723 0.4158 0.408099 0.395218 0.377735 0.338853 0.308909 0.344498 0.424286 0.454816 0.215726 0.169719 0.108678 0.0742954 0.120157 0.181469 0.23708 0.245446 0.239762 0.219321 0.182424 0.121162 0.0746829 0.107564 0.1884 0.221504 0.040968 0.0151589 
</DataArray>
<DataArray type="Float64" Name="cell variable 4" format="ascii">
843.199 848.495 852.969 851.118 864.244 855.92 845.52 840.778 840.189 844.156 856.22 864.207 850.774 851.32 853.629 844.984 1116.47 1108.96 1103.85 1111.65 1125.72 1122.88 1121.59 1117.95 1116.62 1117.5 1122.89 1125.73 1111.59 1103.94 1120.46 1120.28 1332.38 1323.87 1315.6 1320.18 1351.02 1353.07 1356.56 1354.5 1352.95 1351.48 1353.11 1351.21 1320.47 1315.85 1335.94 1335.96 1393.37 1384.94 1376.78 1370.53 1801.89 2675.12 3447.63 3892.91 3891.41 3444.52 2673.18 1801.21 1370.73 1376.95 1397.71 1397.07 1413.88 1404.57 1396.9 1390.69 1806.97 2665.28 3442.18 3891.92 3890.8 3439.71 2663.42 1806.03 1390.82 1397.03 1417.93 1417.69 1419.31 1406.2 1394.02 1388.14 1817.91 2658.59 3432.73 3885.11 3884.2 3430.65 2656.87 1816.89 1388.31 1394.18 1420.41 1423.34 1420.75 1404.66 1389.3 1383.15 1830.71 2656.6 3424.51 3877.58 3876.79 3422.68 2654.98 1829.65 1383.36 1389.47 1420.12 1425.13 1421.08 1402.71 1385.07 1378.47 1842.86 2657.87 3418.17 3870.23 3869.53 3416.51 2656.32 1841.8 1378.71 1385.27 1419.67 1425.91 1421.09 1400.79 1381.31 1374.25 1852.83 2660.57 3413.72 3863.86 3863.24 3412.22 2659.06 1851.7 1374.52 1381.53 1419.4 1426.42 1420.97 1398.97 1377.92 1370.52 1857.23 2661.24 3410.3 3858.87 3858.31 3408.92 2659.78 1856.08 1370.82 1378.17 1419.26 1426.83 1420.69 1397.15 1374.89 1367.24 1863.8 2664.93 3408.92 3855.03 3854.53 3407.66 2663.48 1862.6 1367.56 1375.16 1419.13 1427.08 1420.31 1395.38 1372.14 1364.3 1869.48 2668.73 3408.67 3852.48 3852.02 3407.48 2667.29 1868.24 1364.63 1372.43 1419.03 1427.26 1419.9 1393.63 1369.49 1361.48 1873.92 2672.06 3409.35 3851.41 3850.99 3408.25 2670.62 1872.62 1361.82 1369.8 1418.91 1427.39 1419.38 1391.79 1366.69 1358.1 1877.23 2674.79 3410.73 3851.7 3851.32 3409.69 2673.33 1875.86 1358.44 1367.01 1418.65 1427.41 1418.41 1389.79 1364.25 1355.69 1879.36 2676.52 3412.23 3852.68 3852.32 3411.24 2675.07 1877.97 1356.05 1364.58 1418.15 1426.97 1417.07 1387.78 1362.45 1354.96 1913.78 2735.51 3487.35 3936.99 3936.64 3486.36 2733.97 1912.29 1355.32 1362.8 1417.56 1426.13 1416.15 1386.05 1360.52 1353.34 1913.5 2734.47 3486.93 3936.8 3936.4 3485.84 2732.85 1911.96 1353.71 1360.88 1417.15 1425.69 1415.58 1384.59 1358.62 1351.17 1913.7 2734.31 3487.78 3938.46 3938.02 3486.65 2732.64 1912.11 1351.55 1358.98 1416.92 1425.58 1414.94 1383.28 1357.19 1349.91 1913.52 2734.06 3489 3941.02 3940.6 3487.89 2732.38 1911.92 1350.29 1357.57 1416.74 1425.37 1414.24 1382.07 1356.06 1349.09 1912.56 2733.43 3490.52 3944.44 3944.03 3489.45 2731.74 1910.91 1349.47 1356.45 1416.59 1425.09 1413.52 1380.96 1355.16 1348.62 1910.46 2732.28 3492.49 3948.86 3948.45 3491.44 2730.61 1908.84 1349.01 1355.57 1416.44 1424.74 1412.78 1379.97 1354.53 1348.52 1906.91 2730.56 3495.12 3954.36 3953.93 3494.06 2728.92 1905.35 1348.93 1354.95 1416.32 1424.36 1412.05 1379.14 1354.22 1348.86 1901.53 2728.38 3498.68 3961.09 3960.62 3497.57 2726.74 1899.98 1349.23 1354.65 1416.29 1423.95 1411.31 1378.51 1354.31 1349.64 1893.9 2726.05 3503.57 3969.12 3968.57 3502.35 2724.45 1892.48 1349.99 1354.75 1416.37 1423.5 1410.5 1378.13 1354.94 1350.78 1883.71 2724.27 3510.24 3978.34 3977.64 3508.84 2722.73 1882.45 1351.11 1355.38 1416.61 1422.95 1409.31 1377.93 1356.22 1351.89 1871.09 2724.29 3519.07 3988.41 3987.52 3517.41 2722.81 1870.04 1352.18 1356.65 1416.95 1421.99 1406 1376.62 1357.32 1350.95 1857.32 2727.93 3530.17 3998.79 3997.64 3528.22 2726.56 1856.51 1351.19 1357.71 1416.03 1418.86 1390.6 1364.46 1348.87 1336.9 1846.96 2738.13 3543.46 4009.02 4007.59 3541.2 2736.88 1846.4 1337.07 1349.14 1403.72 1403.47 1310.45 1284.73 1266.72 1247 1859.07 2767.71 3567.94 4029.04 4027.31 3565.19 2766.51 1858.72 1247.28 1266.77 1321.47 1322.61 1239.79 1212.26 1190.66 1181.12 1207.23 1214.9 1248.65 1247.21 1238.58 1222.71 1215 1207.51 1181.43 1190.73 1247.01 1251.4 1109.83 1081.41 1057.09 1046.93 1053.32 1056.22 1093.26 1089.7 1079.44 1062.35 1056.05 1053.42 1047.04 1057.35 1112.21 1120.31 786.167 774.021 767.675 769.635 787.571 808.599 855.85 867.321 860.776 835.773 809.876 787.851 769.622 766.146 792.469 791.77 613.687 744.351 
</DataArray>
<DataArray type="Float64" Name="cell variable 5" format="ascii">
0.00469213 0.00469213 0.00469213 0.00469213 0.00469213 0.00469213 0.00469213 0.00469213 0.00469213 0.00469213 0.00469213 0.00469213 0.00469213 0.00469213 0.00469213 0.00469213 0.00469213 0.00469213 0.00469213 0.00469213 0.00469213 0.00469213 0.00469213 0.00469213 0.00469213 0.00469213 0.00469213 0.00469213 0.00469213 0.00469213 0.00469213 0.00469213 0.00469213 0.00469213 0.00469213 0.00469213 0.00469213 0.00469213 0.00469213 0.00469213 0.00469213 0.00469213 0.00469213 0.00469213 0.00469213 0.00469213 0.00469213 0.00469213 0.00709137 0.00656481 0.00571501 0.00490484 0.00469213 0.00469213 0.00469213 0.00469213 0.00469213 0.00469213 0.00469213 0.00469213 0.00490484 0.00571501 0.00656481 0.00709137 0.00802354 0.00729261 0.00611228 0.00498721 0.00469213 0.00469213 0.00469213 0.00469213 0.00469213 0.00469213 0.00469213 0.00469213 0.00498721 0.00611228 0.00729261 0.00802354 0.00856365 0.0077149 0.00634271 0.00503517 0.00469213 0.00469213 0.00469213 0.00469213 0.00469213 0.00469213 0.00469213 0.00469213 0.00503517 0.00634271 0.0077149 0.00856365 0.00895675 0.00802041 0.00651059 0.00507063 0.00469213 0.00469213 0.00469213 0.00469213 0.00469213 0.00469213 0.00469213 0.00469213 0.00507063 0.00651059 0.00802041 0.00895675 0.0092633 0.00826023 0.00664093 0.00509774 0.00469213 0.00469213 0.00469213 0.00469213 0.00469213 0.00469213 0.00469213 0.00469213 0.00509774 0.00664093 0.00826023 0.0092633 0.00951042 0.00845313 0.00674624 0.00511963 0.00469213 0.00469213 0.00469213 0.00469213 0.00469213 0.00469213 0.00469213 0.00469213 0.00511963 0.00674624 0.00845313 0.00951042 0.0097127 0.00861058 0.00683278 0.00513736 0.00469213 0.00469213 0.00469213 0.00469213 0.00469213 0.00469213 0.00469213 0.00469213 0.00513736 0.00683278 0.00861058 0.0097127 0.00987641 0.00873883 0.00690264 0.00515196 0.00469213 0.00469213 0.00469213 0.00469213 0.00469213 0.00469213 0.00469213 0.00469213 0.00515196 0.00690264 0.00873883 0.00987641 0.0100078 0.00884205 0.00695895 0.00516343 0.00469213 0.00469213 0.00469213 0.00469213 0.00469213 0.00469213 0.00469213 0.00469213 0.00516343 0.00695895 0.00884205 0.0100078 0.01011 0.0089213 0.0070017 0.00517281 0.00469213 0.00469213 0.00469213 0.00469213 0.00469213 0.00469213 0.00469213 0.00469213 0.00517281 0.0070017 0.0089213 0.01011 0.010185 0.00897969 0.00703402 0.00517907 0.00469213 0.00469213 0.00469213 0.00469213 0.00469213 0.00469213 0.00469213 0.00469213 0.00517907 0.00703402 0.00897969 0.010185 0.0102351 0.00901827 0.00705488 0.00518428 0.00469213 0.00469213 0.00469213 0.00469213 0.00469213 0.00469213 0.00469213 0.00469213 0.00518428 0.00705488 0.00901827 0.0102351 0.0102591 0.00903808 0.0070653 0.00518637 0.00469213 0.00469213 0.00469213 0.00469213 0.00469213 0.00469213 0.00469213 0.00469213 0.00518637 0.0070653 0.00903808 0.0102591 0.0102591 0.00903808 0.0070653 0.00518637 0.00469213 0.00469213 0.00469213 0.00469213 0.00469213 0.00469213 0.00469213 0.00469213 0.00518637 0.0070653 0.00903808 0.0102591 0.0102351 0.00901827 0.00705488 0.00518428 0.00469213 0.00469213 0.00469213 0.00469213 0.00469213 0.00469213 0.00469213 0.00469213 0.00518428 0.00705488 0.00901827 0.0102351 0.010185 0.00897969 0.00703402 0.00517907 0.00469213 0.00469213 0.00469213 0.00469213 0.00469213 0.00469213 0.00469213 0.00469213 0.00517907 0.00703402 0.00897969 0.010185 0.01011 0.0089213 0.0070017 0.00517281 0.00469213 0.00469213 0.00469213 0.00469213 0.00469213 0.00469213 0.00469213 0.00469213 0.00517281 0.0070017 0.0089213 0.01011 0.0100078 0.00884205 0.00695895 0.00516343 0.00469213 0.00469213 0.00469213 0.00469213 0.00469213 0.00469213 0.00469213 0.00469213 0.00516343 0.00695895 0.00884205 0.0100078 0.00987641 0.00873883 0.00690264 0.00515196 0.00469213 0.00469213 0.00469213 0.00469213 0.00469213 0.00469213 0.00469213 0.00469213 0.00515196 0.00690264 0.00873883 0.00987641 0.0097127 0.00861058 0.00683278 0.00513736 0.00469213 0.00469213 0.00469213 0.00469213 0.00469213 0.00469213 0.00469213 0.00469213 0.00513736 0.00683278 0.00861058 0.0097127 0.00951042 0.00845313 0.00674624 0.00511963 0.00469213 0.00469213 0.00469213 0.00469213 0.00469213 0.00469213 0.00469213 0.00469213 0.00511963 0.00674624 0.00845313 0.00951042 0.0092633 0.00826023 0.00664093 0.00509774 0.00469213 0.00469213 0.00469213 0.00469213 0.00469213 0.00469213 0.00469213 0.00469213 0.00509774 0.00664093 0.00826023 0.0092633 0.00895675 0.00802041 0.00651059 0.00507063 0.00469213 0.00469213 0.00469213 0.00469213 0.00469213 0.00469213 0.00469213 0.00469213 0.00507063 0.00651059 0.00802041 0.00895675 0.00856365 0.0077149 0.00634271 0.00503517 0.00469213 0.00469213 0.00469213 0.00469213 0.00469213 0.00469213 0.00469213 0.00469213 0.00503517 0.00634271 0.0077149 0.00856365 0.00802354 0.00729261 0.00611228 0.00498721 0.00469213 0.00469213 0.00469213 0.00469213 0.00469213 0.00469213 0.00469213 0.00469213 0.00498721 0.00611228 0.00729261 0.00802354 0.00709137 0.00656481 0.00571501 0.00490484 0.00469213 0.00469213 0.00469213 0.00469213 0.00469213 0.00469213 0.00469213 0.00469213 0.00490484 0.00571501 0.00656481 0.00709137 0.00469213 0.00469213 0.00469213 0.00469213 0.00469213 0.00469213 0.00469213 0.00469213 0.00469213 0.00469213 0.00469213 0.00469213 0.00469213 0.00469213 0.00469213 0.00469213 0.00469213 0.00469213 0.00469213 0.00469213 0.00469213 0.00469213 0.00469213 0.00469213 0.00469213 0.00469213 0.00469213 0.00469213 0.00469213 0.00469213 0.00469213 0.00469213 0.00469213 0.00469213 0.00469213 0.00469213 0.00469213 0.00469213 0.00469213 0.00469213 0.00469213 0.00469213 0.00469213 0.00469213 0.00469213 0.00469213 0.00469213 0.00469213 0.00469213 0.00469213 
</DataArray>
<DataArray type="Float64" Name="cell variable 6" format="ascii">
1 1 1 1 1 1 1 1 1 1 1 1 1 1 1 1 1 1 1 1 1 1 1 1 1 1 1 1 1 1 1 1 1 1 1 1 1 1 1 1 1 1 1 1 1 1 1 1 1 1 1 1 1 1 1 1 1 1 1 1 1 1 1 1 1 1 1 1 1 1 1 1 1 1 1 1 1 1 1 1 1 1 1 1 1 1 1 1 1 1 1 1 1 1 1 1 1 1 1 1 1 1 1 1 1 1 1 1 1 1 1 1 1 1 1 1 1 1 1 1 1 1 1 1 1 1 1 1 1 1 1 1 1 1 1 1 1 1 1 1 1 1 1 1 1 1 1 1 1 1 1 1 1 1 1 1 1 1 1 1 1 1 1 1 1 1 1 1 1 1 1 1 1 1 1 1 1 1 1 1 1 1 1 1 1 1 1 1 1 1 1 1 1 1 1 1 1 1 1 1 1 1 1 1 1 1 1 1 1 1 1 1 1 1 1 1 1 1 1 1 1 1 1 1 1 1 1 1 1 1 1 1 1 1 1 1 1 1 1 1 1 1 1 1 1 1 1 1 1 1 1 1 1 1 1 1 1 1 1 1 1 1 1 1 1 1 1 1 1 1 1 1 1 1 1 1 1 1 1 1 1 1 1 1 1 1 1 1 1 1 1 1 1 1 1 1 1 1 1 1 1 1 1 1 1 1 1 1 1 1 1 1 1 1 1 1 1 1 1 1 1 1 1 1 1 1 1 1 1 1 1 1 1 1 1 1 1 1 1 1 1 1 1 1 1 1 1 1 1 1 1 1 1 1 1 1 1 1 1 1 1 1 1 1 1 1 1 1 1 1 1 1 1 1 1 1 1 1 1 1 1 1 1 1 1 1 1 1 1 1 1 1 1 1 1 1 1 1 1 1 1 1 1 1 1 1 1 1 1 1 1 1 1 1 1 1 1 1 1 1 1 1 1 1 1 1 1 1 1 1 1 1 1 1 1 1 1 1 1 1 1 1 1 1 1 1 1 1 1 1 1 1 1 1 1 1 1 1 1 1 1 1 1 1 1 1 1 1 1 1 1 1 1 1 1 1 1 1 1 1 1 1 1 1 1 1 1 1 1 1 1 1 1 1 1 1 1 1 1 1 1 1 1 1 1 1 1 1 1 1 1 1 1 1 
</DataArray>
<DataArray type="Float64" Name="cell variable 7" format="ascii">
0 0 0 0 0 0 0 0 0 0 0 0 0 0 0 0 0 0 0 0 0 0 0 0 0 0 0 0 0 0 0 0 0 0 0 0 0 0 0 0 0 0 0 0 0 0 0 0 0 0 0 0 0 0 0 0 0 0 0 0 0 0 0 0 0 0 0 0 0 0 0 0 0 0 0 0 0 0 0 0 0 0 0 0 0 0 0 0 0 0 0 0 0 0 0 0 0 0 0 0 0 0 0 0 0 0 0 0 0 0 0 0 0 0 0 0 0 0 0 0 0 0 0 0 0 0 0 0 0 0 0 0 0 0 0 0 0 0 0 0 0 0 0 0 0 0 0 0 0 0 0 0 0 0 0 0 0 0 0 0 0 0 0 0 0 0 0 0 0 0 0 0 0 0 0 0 0 0 0 0 0 0 0 0 0 0 0 0 0 0 0 0 0 0 0 0 0 0 0 0 0 0 0 0 0 0 0 0 0 0 0 0 0 0 0 0 0 0 0 0 0 0 0 0 0 0 0 0 0 0 0 0 0 0 0 0 0 0 0 0 0 0 0 0 0 0 0 0 0 0 0 0 0 0 0 0 0 0 0 0 0 0 0 0 0 0 0 0 0 0 0 0 0 0 0 0 0 0 0 0 0 0 0 0 0 0 0 0 0 0 0 0 0 0 0 0 0 0 0 0 0 0 0 0 0 0 0 0 0 0 0 0 0 0 0 0 0 0 0 0 0 0 0 0 0 0 0 0 0 0 0 0 0 0 0 0 0 0 0 0 0 0 0 0 0 0 0 0 0 0 0 0 0 0 0 0 0 0 0 0 0 0 0 0 0 0 0 0 0 0 0 0 0 0 0 0 0 0 0 0 0 0 0 0 0 0 0 0 0 0 0 0 0 0 0 0 0 0 0 0 0 0 0 0 0 0 0 0 0 0 0 0 0 0 0 0 0 0 0 0 0 0 0 0 0 0 0 0 0 0 0 0 0 0 0 0 0 0 0 0 0 0 0 0 0 0 0 0 0 0 0 0 0 0 0 0 0 0 0 0 0 0 0 0 0 0 0 0 0 0 0 0 0 0 0 0 0 0 0 0 0 0 0 0 0 0 0 0 0 0 0 0 0 0 0 0 0 0 0 0 0 0 0 0 0 0 0 0 0 0 0 0 1 1 
</DataArray>
<DataArray type="Float64" Name="cell variable 8" format="ascii">
11.25 33.75 56.25 78.75 101.25 123.75 146.25 168.75 191.25 213.75 236.25 258.75 281.25 303.75 326.25 348.75 11.25 33.75 56.25 78.75 101.25 123.75 146.25 168.75 191.25 213.75 236.25 258.75 281.25 303.75 326.25 348.75 11.25 33.75 56.25 78.75 101.25 123.75 146.25 168.75 191.25 213.75 236.25 258.75 281.25 303.75 326.25 348.75 11.25 33.75 56.25 78.75 101.25 123.75 146.25 168.75 191.25 213.75 236.25 258.75 281.25 303.75 326.25 348.75 11.25 33.75 56.25 78.75 101.25 123.75 146.25 168.75 191.25 213.75 236.25 258.75 281.25 303.75 326.25 348.75 11.25 33.75 56.25 78.75 101.25 123.75 146.25 168.75 191.25 213.75 236.25 258.75 281.25 303.75 326.25 348.75 11.25 33.75 56.25 78.75 101.25 123.75 146.25 168.75 191.25 213.75 236.25 258.75 281.25 303.75 326.25 348.75 11.25 33.75 56.25 78.75 101.25 123.75 146.25 168.75 191.25 213.75 236.25 258.75 281.25 303.75 326.25 348.75 11.25 33.75 56.25 78.75 101.25 123.75 146.25 168.75 191.25 213.75 236.25 258.75 281.25 303.75 326.25 348.75 11.25 33.75 56.25 78.75 101.25 123.75 146.25 168.75 191.25 213.75 236.25 258.75 281.25 303.75 326.25 348.75 11.25 33.75 56.25 78.75 101.25 123.75 146.25 168.75 191.25 213.75 236.25 258.75 281.25 303.75 326.25 348.75 11.25 33.75 56.25 78.75 101.25 123.75 146.25 168.75 191.25 213.75 236.25 258.75 281.25 303.75 326.25 348.75 11.25 33.75 56.25 78.75 101.25 123.75 146.25 168.75 191.25 213.75 236.25 258.75 281.25 303.75 326.25 348.75 11.25 33.75 56.25 78.75 101.25 123.75 146.25 168.75 191.25 213.75 236.25 258.75 281.25 303.75 326.25 348.75 11.25 33.75 56.25 78.75 101.25 123.75 146.25 168.75 191.25 213.75 236.25 258.75 281.25 303.75 326.25 348.75 11.25 33.75 56.25 78.75 101.25 123.75 146.25 168.75 191.25 213.75 236.25 258.75 281.25 303.75 326.25 348.75 11.25 33.75 56.25 78.75 101.25 123.75 146.25 168.75 191.25 213.75 236.25 258.75 281.25 303.75 326.25 348.75 11.25 33.75 56.25 78.75 101.25 123.75 146.25 168.75 191.25 213.75 236.25 258.75 281.25 303.75 326.25 348.75 11.25 33.75 56.25 78.75 101.25 123.75 146.25 168.75 191.25 213.75 236.25 258.75 281.25 303.75 326.25 348.75 11.25 33.75 56.25 78.75 101.25 123.75 146.25 168.75 191.25 213.75 236.25 258.75 281.25 303.75 326.25 348.75 11.25 33.75 56.25 78.75 101.25 123.75 146.25 168.75 191.25 213.75 236.25 258.75 281.25 303.75 326.25 348.75 11.25 33.75 56.25 78.75 101.25 123.75 146.25 168.75 191.25 213.75 236.25 258.75 281.25 303.75 326.25 348.75 11.25 33.75 56.25 78.75 101.25 123.75 146.25 168.75 191.25 213.75 236.25 258.75 281.25 303.75 326.25 348.75 11.25 33.75 56.25 78.75 101.25 123.75 146.25 168.75 191.25 213.75 236.25 258.75 281.25 303.75 326.25 348.75 11.25 33.75 56.25 78.75 101.25 123.75 146.25 168.75 191.25 213.75 236.25 258.75 281.25 303.75 326.25 348.75 11.25 33.75 56.25 78.75 101.25 123.75 146.25 168.75 191.25 213.75 236.25 258.75 281.25 303.75 326.25 348.75 11.25 33.75 56.25 78.75 101.25 123.75 146.25 168.75 191.25 213.75 236.25 258.75 281.25 303.75 326.25 348.75 11.25 33.75 56.25 78.75 101.25 123.75 146.25 168.75 191.25 213.75 236.25 258.75 281.25 303.75 326.25 348.75 11.25 33.75 56.25 78.75 101.25 123.75 146.25 168.75 191.25 213.75 236.25 258.75 281.25 303.75 326.25 348.75 11.25 33.75 56.25 78.75 101.25 123.75 146.25 168.75 191.25 213.75 236.25 258.75 281.25 303.75 326.25 348.75 11.25 33.75 56.25 78.75 101.25 123.75 146.25 168.75 191.25 213.75 236.25 258.75 281.25 303.75 326.25 348.75 11.25 33.75 56.25 78.75 101.25 123.75 146.25 168.75 191.25 213.75 236.25 258.75 281.25 303.75 326.25 348.75 0 0 
</DataArray>
</CellData>
</Piece>
</UnstructuredGrid>
</VTKFile>
