<VTKFile type="UnstructuredGrid" version="0.1">
<UnstructuredGrid>
<Piece  NumberOfPoints="    2080" NumberOfCells="     514">
<Points>
<DataArray type="Float64" NumberOfComponents="3" format="ascii">
49.6446 -40.7786 1.47321
44.5667 -40.2881 27.1135
49.3653 -24.1698 28.4722
54.711 -24.6873 1.46652
43.4523 -40.1821 29.8166
28.9976 -38.8171 51.5509
33.027 -22.6226 54.0643
48.2508 -24.0638 31.1753
26.9388 -38.623 53.6188
5.30821 -36.5861 68.1388
8.19529 -20.2791 71.4074
30.9683 -22.4284 56.1323
2.61908 -36.3326 69.257
-22.8939 -33.9289 74.3531
-21.3472 -17.4909 77.8734
5.50617 -20.0255 72.5256
-25.8041 -33.655 74.3522
-51.3177 -31.2586 69.2537
-51.1039 -14.6933 72.4954
-24.2574 -17.2169 77.8725
-54.0064 -31.0062 68.1345
-75.6394 -28.9779 53.6154
-76.5534 -12.3073 56.0954
-53.7926 -14.4409 71.3762
-77.6975 -28.7848 51.5479
-92.1532 -27.4256 29.8143
-93.8239 -10.6854 31.1604
-78.6115 -12.1142 54.0279
-93.2671 -27.3205 27.1126
-98.3409 -26.837 1.47416
-100.281 -10.0723 1.47761
-94.9379 -10.5803 28.4587
-98.3406 -26.8363 -1.45038
-93.261 -27.3077 -27.0873
-94.9339 -10.5674 -28.4311
-100.28 -10.0716 -1.44693
-92.1467 -27.4124 -29.7892
-77.6923 -28.776 -51.5221
-78.604 -12.1063 -54.0094
-93.8197 -10.672 -31.133
-75.6343 -28.9703 -53.5899
-54.0046 -31.0124 -68.1114
-53.7874 -14.4487 -71.36
-76.546 -12.3006 -56.0772
-51.3161 -31.2659 -69.2306
-25.8034 -33.6699 -74.3302
-24.2527 -17.233 -77.8539
-51.0989 -14.7023 -72.4793
-22.8932 -33.9445 -74.331
2.61946 -36.3533 -69.2358
5.51 -20.0466 -72.504
-21.3425 -17.5075 -77.8547
5.30857 -36.6075 -68.1177
26.9404 -38.6521 -53.5999
30.9718 -22.4579 -56.1122
8.19911 -20.3008 -71.3859
28.9991 -38.8466 -51.5323
43.4549 -40.2073 -29.7973
48.2506 -24.0889 -31.1646
33.0304 -22.6523 -54.0446
44.5692 -40.3117 -27.0945
49.6446 -40.7799 -1.45279
54.7111 -24.6886 -1.45948
49.3649 -24.1934 -28.4618
55.1193 -22.8824 1.51371
49.7735 -22.3649 28.5194
52.2201 -5.79144 28.8925
57.6414 -6.31854 1.50716
33.3985 -20.8136 54.1997
35.6191 -4.20504 54.8788
51.0688 -5.68142 31.6837
48.6223 -22.2548 31.3106
8.49947 -18.4629 71.6081
10.4094 -1.81148 72.4534
33.4931 -4.00368 57.0121
31.2725 -20.6122 56.333
-21.129 -15.6659 78.107
-19.5603 1.02137 78.984
7.63434 -1.54918 73.6046
5.72439 -18.2006 72.7592
-50.9772 -12.8595 72.7267
-49.7299 3.85641 73.5126
-22.562 1.30409 78.9807
-24.1307 -15.3832 78.1038
-76.5103 -10.4659 56.2904
-75.5283 6.27039 56.8852
-52.5022 4.11644 72.3571
-53.7495 -12.5995 71.5712
-93.8449 -8.83832 31.2907
-93.0439 7.90883 31.616
-77.6504 6.46915 54.753
-78.6324 -10.2671 54.1582
-100.337 -8.22232 1.52374
-99.6043 8.52668 1.52693
-94.1929 8.01683 28.8301
-94.9938 -8.73031 28.5048
-94.9901 -8.71748 -28.4766
-94.1952 8.02513 -28.8008
-99.6043 8.52727 -1.48932
-100.337 -8.22172 -1.49251
-78.625 -10.2595 -54.1401
-77.6417 6.47256 -54.7443
-93.0458 7.91747 -31.5878
-93.8407 -8.82514 -31.2637
-53.744 -12.6075 -71.5558
-52.4934 4.10765 -72.3473
-75.5193 6.27265 -56.8773
-76.5026 -10.4594 -56.273
-24.1256 -15.3993 -78.0857
-22.5534 1.28735 -78.9661
-49.7212 3.84654 -73.5026
-50.9719 -12.8686 -72.7111
5.72862 -18.2217 -72.7379
7.64171 -1.57055 -73.5843
-19.5517 1.00401 -78.969
-21.1239 -15.6826 -78.0886
31.2763 -20.6416 -56.3128
33.498 -4.02906 -56.9879
10.4167 -1.83339 -72.4328
8.50361 -18.4845 -71.5864
48.6219 -22.2797 -31.3002
51.0616 -5.70032 -31.6805
35.6234 -4.23056 -54.8554
33.4017 -20.8431 -54.1802
49.7729 -22.3883 -28.5103
55.1191 -22.8835 -1.50793
57.6412 -6.31966 -1.51448
52.2127 -5.80886 -28.8906
57.895 -4.47861 1.52339
52.4738 -3.9515 28.9088
54.5232 12.6348 29.1287
60.0185 12.093 1.51955
51.3069 -3.83896 31.7285
35.8571 -2.36258 54.9235
37.7228 14.2648 55.2608
53.3563 12.7473 31.9484
33.7058 -2.15704 57.0724
10.6221 0.0351464 72.5138
12.2951 16.7022 72.828
35.5714 14.4704 57.4097
7.82018 0.300858 73.6667
-19.3745 2.87141 79.0461
-17.8238 19.5578 79.2534
9.49326 16.9679 73.9809
-22.399 3.15617 79.0351
-49.5668 5.7085 73.567
-48.0537 22.3974 73.6624
-20.8483 19.8426 79.2424
-52.356 5.96953 72.3986
-75.3821 8.12347 56.9267
-73.8548 24.8064 56.9514
-50.8429 22.6584 72.494
-77.5155 8.32251 54.7791
-92.909 9.76219 31.6421
-91.3548 26.4369 31.6413
-75.9881 25.0054 54.8038
-94.0637 9.87002 28.8392
-99.4752 10.3799 1.536
-97.9077 27.0492 1.5363
-92.5095 26.5447 28.8384
-99.4753 10.3802 -1.49815
-94.0662 9.87802 -28.8096
-92.5092 26.548 -28.8083
-97.9078 27.0495 -1.49786
-92.9108 9.77022 -31.6142
-77.5067 8.32532 -54.7707
-75.9765 25.0043 -54.7965
-91.3539 26.4402 -31.6129
-75.3728 8.12547 -56.9194
-52.3469 5.96047 -72.3894
-50.8313 22.6484 -72.4879
-73.8425 24.8045 -56.9452
-49.5578 5.69855 -73.5574
-22.39 3.13936 -79.021
-20.8366 19.8253 -79.2317
-48.0421 22.3865 -73.656
-19.3656 2.85402 -79.0314
7.82789 0.279456 -73.6467
9.50346 16.9468 -73.9644
-17.8122 19.54 -79.2422
10.6296 0.0134325 -72.4933
33.7108 -2.18223 -57.0484
35.578 14.4489 -57.3888
12.3051 16.6807 -72.8109
35.8613 -2.38748 -54.9005
51.2995 -3.85724 -31.7256
53.3479 12.734 -31.9512
37.7284 14.2436 -55.2409
52.4661 -3.96859 -28.9077
57.8946 -4.47939 -1.53164
60.018 12.0922 -1.53548
54.5145 12.6226 -29.1334
60.2777 13.8488 1.54042
54.7824 14.3906 29.1495
57.4209 29.7359 29.2993
62.8762 28.5764 1.53826
53.5983 14.5732 31.9993
37.9649 16.0907 55.3117
40.7331 33.1961 55.5293
56.2368 29.9185 32.1491
35.7948 16.423 57.4623
12.5186 18.6548 72.8805
15.5434 38.3716 73.047
38.5631 33.5283 57.6799
9.71515 19.081 74.0102
-17.6019 21.6709 79.2827
-14.1797 44.4362 79.3268
12.74 38.7978 74.1767
-20.6035 22.1243 79.2411
-47.8089 24.6791 73.661
-43.903 50.4668 73.5966
-17.1812 44.8896 79.2852
-50.5586 25.0925 72.4723
-73.5704 27.2405 56.9298
-69.206 55.5764 56.826
-46.6528 50.8802 72.4078
-75.6639 27.5543 54.7801
-91.0306 28.9858 31.6176
-86.3418 59.0186 31.5442
-71.2995 55.8903 54.6764
-92.1607 29.1551 28.8284
-97.5589 29.6595 1.5263
-92.7512 60.2851 1.52442
-87.4719 59.1879 28.755
-97.5588 29.6595 -1.48801
-92.1602 29.1581 -28.7984
-87.4669 59.1855 -28.7272
-92.7511 60.2851 -1.4899
-91.0294 28.9886 -31.5892
-75.6519 27.5526 -54.7729
-71.2839 55.8825 -54.6699
-86.336 59.016 -31.518
-73.5579 27.2381 -56.9238
-50.5466 25.0821 -72.4665
-46.6382 50.8674 -72.4045
-69.1898 55.5681 -56.8208
-47.797 24.6681 -73.655
-20.5915 22.1069 -79.2308
-17.1671 44.8717 -79.2791
-43.8886 50.4533 -73.5931
-17.59 21.6531 -79.272
9.72561 19.0598 -73.9941
12.7523 38.7775 -74.1658
-14.1657 44.4178 -79.3203
12.5287 18.6336 -72.8639
35.8016 16.4017 -57.4418
38.5707 33.5101 -57.6632
15.5554 38.3512 -73.0356
37.9705 16.07 -55.2922
53.59 14.5603 -32.0026
56.2274 29.9101 -32.1561
40.7396 33.1783 -55.5136
54.7737 14.3788 -29.1548
60.2772 13.8483 -1.55694
62.8757 28.5759 -1.55909
57.4111 29.7285 -29.3083
63.2452 30.2278 1.54345
57.7898 31.3873 29.3045
61.89 46.3916 29.3427
67.1955 44.6315 1.5422
56.6269 31.7019 32.1619
41.1231 34.9795 55.5422
45.6534 51.6962 55.5961
60.727 46.7063 32.2001
38.9944 35.5538 57.6932
15.9747 40.3971 73.0602
21.159 59.6589 73.0985
43.5246 52.2705 57.747
13.2299 41.1355 74.1837
-13.6898 46.7739 79.3339
-7.7178 69.0123 79.3444
18.4142 60.3972 74.222
-16.6227 47.5608 79.2846
-43.3446 53.138 73.596
-36.5778 78.3332 73.5904
-10.6508 69.7993 79.2951
-46.0277 53.8566 72.4028
-68.5809 58.5528 56.8209
-61.1442 86.2467 56.8141
-39.2609 79.0518 72.3971
-70.6221 59.0988 54.6712
-85.6644 62.2271 31.539
-77.7854 91.589 31.5351
-63.1854 86.7927 54.6643
-86.7659 62.5215 28.7527
-92.0452 63.6187 1.52214
-84.0119 93.5653 1.51947
-78.8869 91.8834 28.7488
-92.045 63.6185 -1.48808
-86.7608 62.5189 -28.7253
-78.8811 91.8777 -28.726
-84.0116 93.5651 -1.49075
-85.6584 62.224 -31.5131
-70.6062 59.0906 -54.665
-63.169 86.78 -54.6613
-77.7787 91.5828 -31.5137
-68.5645 58.544 -56.816
-46.0129 53.8433 -72.3997
-39.2456 79.036 -72.397
-61.1273 86.2334 -56.8123
-43.33 53.1244 -73.5929
-16.6085 47.5427 -79.279
-10.6361 69.7806 -79.2933
-36.5627 78.3171 -73.5902
-13.6757 46.7555 -79.3279
13.2423 41.1151 -74.1734
18.4274 60.3779 -74.2161
-7.70322 68.9934 -79.3422
15.9868 40.3769 -73.0493
39.002 35.5357 -57.6769
43.5328 52.255 -57.7343
21.1719 59.6396 -73.0921
41.1297 34.9622 -55.5268
56.6175 31.6939 -32.1693
60.718 46.702 -32.2102
45.6604 51.6814 -55.5843
57.78 31.3801 -29.3139
63.2447 30.2275 -1.56463
67.1949 44.6312 -1.56589
61.8805 46.3882 -29.3547
67.7291 46.2361 1.54354
62.4237 47.9962 29.3441
68.1186 62.4643 29.3545
73.1956 60.1267 1.54289
61.3016 48.4386 32.2035
46.228 53.4285 55.5995
52.5705 69.5438 55.6173
66.9966 62.9067 32.214
44.1746 54.237 57.7505
21.809 61.6254 73.102
29.1103 80.1923 73.1174
50.5172 70.3524 57.7684
19.1626 62.6662 74.2239
-6.96943 71.2813 79.3463
1.45572 92.716 79.3518
26.4638 81.233 74.2393
-9.7962 72.3915 79.2954
-35.7233 80.9254 73.5906
-26.1799 105.208 73.5895
-1.37105 93.8262 79.3009
-38.3089 81.9399 72.3967
-60.1922 89.1348 56.8137
-49.7069 115.822 56.8117
-28.7656 106.222 72.3956
-62.1596 89.9062 54.6639
-76.7596 94.7025 31.5347
-65.649 122.996 31.5329
-51.6744 116.594 54.6619
-77.8215 95.1186 28.7485
-82.9465 96.8004 1.51916
-71.6171 125.657 1.51619
-66.7109 123.412 28.7467
-82.9462 96.8001 -1.49104
-77.8156 95.1127 -28.7263
-66.7055 123.404 -28.7298
-71.6169 125.657 -1.49401
-76.7529 94.6959 -31.5138
-62.1432 89.8931 -54.6614
-51.6591 116.578 -54.6634
-65.6428 122.987 -31.5174
-60.1754 89.1213 -56.8122
-38.2937 81.9239 -72.397
-28.7511 106.204 -72.3995
-49.6912 115.806 -56.8143
-35.7081 80.9091 -73.5909
-9.78153 72.3727 -79.294
-1.35691 93.8071 -79.3033
-26.1656 105.189 -73.5934
-6.95483 71.2623 -79.3446
19.1758 62.6468 -74.2185
26.4769 81.2147 -74.2376
1.46978 92.6968 -79.3539
21.8219 61.6063 -73.096
44.1828 54.2218 -57.7383
50.5256 70.3394 -57.7592
29.1231 80.1742 -73.1151
46.2351 53.4141 -55.588
61.2927 48.4347 -32.2139
66.9886 62.9059 -32.2262
52.5778 69.5317 -55.6089
62.4142 47.993 -29.3563
67.7286 46.236 -1.56745
73.1951 60.1267 -1.5681
68.1102 62.4642 -29.3686
73.9011 61.663 1.54328
68.8241 64.0005 29.3549
76.0884 77.7445 29.3588
80.8713 74.8587 1.54306
67.7585 64.5649 32.2152
53.3324 71.2021 55.6185
61.4309 86.5105 55.6278
75.0228 78.3089 32.2191
51.382 72.2347 57.7699
29.9751 82.0746 73.1189
39.3056 99.7126 73.1293
59.4804 87.5431 57.7791
27.4612 83.4045 74.2403
2.45311 94.8876 79.3528
13.2224 115.25 79.3575
36.7917 101.043 74.2508
-0.231865 96.3069 79.3012
-25.0407 107.688 73.5897
-12.8431 130.753 73.5895
10.5374 116.669 79.3059
-27.4967 108.986 72.3955
-48.4381 118.586 56.8116
-35.0366 143.933 56.81
-15.299 132.051 72.3953
-50.3071 119.573 54.6617
-64.2817 125.975 31.5328
-50.0795 152.846 31.5309
-36.9056 144.92 54.6602
-65.2907 126.507 28.7464
-70.197 128.753 1.51593
-55.7147 156.159 1.51291
-51.0884 153.378 28.7446
-70.1967 128.752 -1.49438
-65.2853 126.5 -28.7302
-51.0841 153.37 -28.7339
-55.7145 156.159 -1.4974
-64.2756 125.966 -31.5177
-50.2919 119.556 -54.6638
-36.8924 144.902 -54.6665
-50.0744 152.836 -31.5214
-48.4225 118.569 -56.8146
-27.4824 108.968 -72.3998
-15.2863 132.032 -72.4034
-35.0229 143.914 -56.8173
-25.0265 107.67 -73.594
-0.217836 96.2877 -79.304
10.5504 116.65 -79.3122
-12.8304 130.734 -73.5976
2.4671 94.8684 -79.3553
27.4742 83.3863 -74.239
36.8042 101.025 -74.2525
13.2353 115.231 -79.3635
29.9879 82.0567 -73.117
51.3904 72.2219 -57.761
59.4889 87.5323 -57.7729
39.3179 99.6957 -73.1305
53.3398 71.1902 -55.6104
67.7506 64.5644 -32.2276
75.0163 78.3109 -32.2326
61.4384 86.5006 -55.6222
68.8158 64.0006 -29.3691
73.9007 61.663 -1.56862
80.8709 74.8588 -1.56884
76.0815 77.7471 -29.3741
81.7434 76.3065 1.54324
76.9605 79.1923 29.359
85.7151 92.0362 29.3614
90.1438 88.6386 1.54336
75.9648 79.8717 32.2198
62.3729 88.0734 55.6285
72.1323 102.38 55.6362
84.7194 92.7156 32.2222
60.5501 89.3172 57.7802
40.3753 101.487 73.1304
51.62 117.973 73.1407
70.3095 103.624 57.7879
38.0257 103.089 74.2516
14.4563 117.297 79.3584
27.4338 136.33 79.3644
49.2703 119.575 74.2619
11.9467 119.007 79.3062
-11.4338 133.091 73.5898
3.2635 154.651 73.5902
24.9242 138.041 79.3121
-13.7294 134.655 72.3953
-33.4669 146.538 56.81
-17.3202 170.229 56.8091
0.967871 156.215 72.3956
-35.2142 147.727 54.6601
-48.3881 155.654 31.5308
-31.2772 180.769 31.5291
-19.0675 171.419 54.6591
-49.3316 156.296 28.7444
-53.9578 159.076 1.51265
-36.5086 184.692 1.50975
-32.2206 181.411 28.7427
-53.9576 159.076 -1.49777
-49.3273 156.287 -28.7343
-32.2176 181.402 -28.7379
-36.5084 184.691 -1.50067
-48.3832 155.644 -31.5218
-35.2012 147.709 -54.6668
-19.0568 171.4 -54.6698
-31.2735 180.759 -31.5254
-33.4535 146.519 -56.8177
-13.7169 134.636 -72.4038
0.978619 156.196 -72.4075
-17.3091 170.21 -56.8206
-11.4213 133.072 -73.5983
11.9595 118.988 -79.3128
24.9357 138.022 -79.3218
3.27424 154.632 -73.602
14.4692 117.277 -79.3647
38.0381 103.072 -74.2537
49.282 119.559 -74.2666
27.4453 136.312 -79.3737
40.3875 101.47 -73.1319
60.5586 89.3065 -57.7743
70.3181 103.615 -57.7843
51.6314 117.957 -73.1447
62.3805 88.0637 -55.6231
75.9584 79.874 -32.2335
84.7147 92.7197 -32.2366
72.14 102.372 -55.6331
76.9536 79.195 -29.3744
81.743 76.3067 -1.56907
90.1435 88.6388 -1.56895
85.7099 92.0407 -29.3775
91.1723 89.9796 1.54352
86.7435 93.3772 29.3616
96.8812 105.159 29.3642
100.9 101.293 1.54392
85.8305 94.1629 32.2229
73.2434 103.827 55.6368
84.5493 116.944 55.648
95.9681 105.944 32.2255
71.5714 105.267 57.7895
52.8818 119.616 73.1424
65.905 134.735 73.1717
82.8772 118.384 57.8007
50.7255 121.472 74.2641
28.889 138.226 79.3665
43.9105 155.692 79.3986
63.7487 136.591 74.2934
26.5857 140.208 79.3138
4.92494 156.818 73.5918
21.9286 176.61 73.6129
41.6071 157.673 79.3459
2.81795 158.629 72.3963
-15.4701 172.643 56.8098
3.20778 194.393 56.8144
19.8216 178.421 72.4174
-17.0739 174.02 54.6592
-29.2837 183.37 31.5291
-9.48227 206.421 31.5281
1.60398 195.77 54.6638
-30.1495 184.114 28.7424
-34.4374 187.395 1.50951
-14.2408 210.903 1.50679
-10.3481 207.165 28.7414
-34.4373 187.394 -1.50103
-30.1465 184.104 -28.7382
-10.3463 207.155 -28.7421
-14.2407 210.902 -1.50376
-29.2802 183.36 -31.5259
-17.0635 174.001 -54.6703
1.61188 195.751 -54.6783
-9.48004 206.411 -31.5297
-15.4593 172.623 -56.8217
2.82846 158.61 -72.4086
19.8303 178.402 -72.4326
3.21607 194.374 -56.8297
4.93551 156.799 -73.604
26.597 140.189 -79.3238
41.6171 157.655 -79.3583
21.9373 176.591 -73.628
28.9004 138.208 -79.3761
50.737 121.455 -74.269
63.7595 136.576 -74.3005
43.9205 155.674 -79.4107
52.8932 119.6 -73.1466
71.5799 105.258 -57.7862
82.8859 118.376 -57.7994
65.9157 134.721 -73.178
73.2512 103.819 -55.6339
85.8259 94.1672 -32.2374
95.9656 105.95 -32.2403
84.5572 116.938 -55.6472
86.7385 93.3819 -29.3776
91.1721 89.9799 -1.5691
100.899 101.293 -1.5687
96.8781 105.165 -29.3805
102.072 102.51 1.5441
98.0532 106.376 29.3644
109.444 116.951 29.3668
113.003 112.665 1.54476
97.2343 107.258 32.2262
85.8154 118.258 55.6486
98.5119 130.028 55.6584
108.625 117.833 32.2286
84.3148 119.875 57.8028
67.3426 136.226 73.1738
81.965 149.791 73.2007
97.0113 131.645 57.8125
65.4062 138.312 74.2967
45.5679 157.413 79.4019
62.4373 173.084 79.4322
80.0286 151.877 74.3236
43.4992 159.64 79.3487
23.8207 178.577 73.6158
42.9196 196.337 73.6361
60.3685 175.311 79.379
21.9285 180.613 72.4187
5.31469 196.585 56.8157
26.3011 216.109 56.8204
41.0274 198.373 72.4391
3.87489 198.133 54.6639
-7.21136 208.784 31.5283
15.0405 229.478 31.5273
24.8613 217.657 54.6686
-7.98838 209.619 28.7412
-11.8811 213.357 1.50659
10.8143 234.461 1.50409
14.2635 230.313 28.7403
-11.8811 213.357 -1.50411
-7.98669 209.61 -28.7424
14.264 230.304 -28.7459
10.8144 234.461 -1.50661
-7.20934 208.774 -31.5303
3.88258 198.114 -54.6788
24.8666 217.638 -54.6862
15.0413 229.468 -31.5338
5.32273 196.566 -56.8313
21.9369 180.594 -72.4342
41.0341 198.355 -72.4569
26.3068 216.09 -56.8387
23.8293 178.558 -73.6311
43.5091 159.622 -79.3615
60.3771 175.294 -79.3938
42.9264 196.319 -73.6538
45.5779 157.395 -79.4142
65.4168 138.297 -74.304
80.0385 151.863 -74.3326
62.446 173.067 -79.4465
67.3532 136.212 -73.1804
84.3235 119.867 -57.8017
97.0201 131.639 -57.8134
81.9748 149.778 -73.209
85.8235 118.251 -55.6479
97.2318 107.264 -32.2411
108.625 117.839 -32.2433
98.5201 130.023 -55.6596
98.0503 106.382 -29.3806
102.072 102.511 -1.56882
113.003 112.665 -1.56816
109.443 116.958 -29.3828
114.303 113.744 1.54491
110.745 118.03 29.367
123.242 127.27 29.3685
126.3 122.614 1.54578
110.029 118.998 32.2291
99.9164 131.193 55.6588
113.838 141.483 55.6625
122.527 128.237 32.2306
98.6054 132.967 57.8138
83.5591 151.113 73.2019
99.597 162.969 73.206
112.527 143.257 57.8174
81.8671 153.402 74.3253
64.2757 174.609 79.4339
82.789 188.298 79.4357
97.905 165.258 74.3294
62.4681 177.054 79.3804
45.0191 198.08 73.6375
65.9894 213.586 73.6366
80.9813 190.742 79.3822
43.366 200.315 72.4397
28.6397 218.051 56.8211
51.6855 235.094 56.8208
64.3362 215.822 72.4388
27.3823 219.75 54.6687
17.5615 231.572 31.5274
41.9897 249.643 31.526
50.428 236.793 54.6684
16.8828 232.489 28.7401
13.4336 236.637 1.50389
38.3466 255.069 1.50166
41.311 250.56 28.7387
13.4336 236.636 -1.5069
16.8832 232.479 -28.7462
41.3103 250.552 -28.7487
38.3466 255.069 -1.50914
17.562 231.562 -31.5342
27.3874 219.732 -54.6866
50.4309 236.776 -54.6883
41.9892 249.634 -31.5368
28.6452 218.032 -56.8396
43.3724 200.297 -72.4578
64.3412 215.805 -72.4584
51.6887 235.076 -56.8413
45.0258 198.062 -73.6554
62.4765 177.037 -79.3954
80.9887 190.727 -79.3986
65.9945 213.57 -73.656
64.2844 174.592 -79.4484
81.8768 153.388 -74.3346
97.9141 165.246 -74.3401
82.7965 188.282 -79.4516
83.5689 151.099 -73.2105
98.6142 132.96 -57.8148
112.536 143.251 -57.8204
99.6062 162.957 -73.216
99.9247 131.187 -55.6602
110.029 119.004 -32.2439
122.529 128.243 -32.2449
113.847 141.478 -55.6657
110.744 118.037 -29.3828
114.303 113.744 -1.5682
126.3 122.614 -1.56733
123.244 127.276 -29.3839
127.713 123.541 1.5459
124.655 128.197 29.3686
138.104 135.985 29.3698
140.623 131.016 1.54694
124.053 129.238 32.2308
115.363 142.484 55.6627
130.344 151.158 55.6647
137.502 137.026 32.232
114.258 144.393 57.8178
101.328 164.105 73.2063
118.589 174.098 73.2088
129.239 153.067 57.8198
99.9021 166.569 74.3297
84.7862 189.608 79.4359
104.713 201.145 79.4371
117.163 176.562 74.3321
83.2627 192.24 79.3822
68.2708 215.084 73.6366
90.8429 228.152 73.6371
103.189 203.776 79.3834
66.8777 217.489 72.4388
54.227 236.762 56.8208
79.0327 251.123 56.8213
89.4499 230.557 72.4392
53.1674 238.591 54.6684
44.7291 251.441 31.526
71.0236 266.668 31.5249
77.973 252.953 54.6689
44.1571 252.429 28.7385
41.1927 256.938 1.50147
68.0097 272.469 1.49952
70.4517 267.655 28.7375
41.1926 256.937 -1.50938
44.1563 252.42 -28.749
70.45 267.647 -28.7512
68.0096 272.468 -1.51134
44.7283 251.432 -31.537
53.1701 238.575 -54.6886
77.9739 252.938 -54.6903
71.022 266.659 -31.5392
54.2301 236.744 -56.8414
66.8825 217.473 -72.4586
89.4535 230.543 -72.4599
79.0338 251.107 -56.8431
68.2758 215.067 -73.6562
83.27 192.224 -79.3987
103.196 203.762 -79.4007
90.8467 228.137 -73.6575
84.7936 189.593 -79.452
99.9111 166.556 -74.3405
117.171 176.551 -74.344
104.719 201.131 -79.454
101.337 164.093 -73.2165
114.267 144.387 -57.8209
129.249 153.062 -57.8247
118.598 174.087 -73.22
115.372 142.479 -55.666
124.055 129.244 -32.2452
137.506 137.031 -32.2457
130.353 151.154 -55.6698
124.657 128.203 -29.3839
127.713 123.541 -1.5673
140.624 131.017 -1.56626
138.108 135.99 -29.3843
142.131 131.78 1.54707
139.612 136.749 29.3699
153.846 142.987 29.3712
155.795 137.768 1.54826
139.129 137.851 32.2322
131.972 151.982 55.6649
147.827 158.93 55.667
153.363 144.089 32.2335
131.087 154.003 57.82
120.436 175.034 73.2091
138.705 183.038 73.2121
146.942 160.951 57.8221
119.294 177.642 74.3324
106.844 202.224 79.4374
127.935 211.465 79.4402
137.563 185.646 74.3354
105.624 205.009 79.3836
93.2774 229.385 73.6373
117.168 239.851 73.6393
126.715 214.25 79.3864
92.1619 231.931 72.4394
81.7446 252.497 56.8214
107.999 263.998 56.8229
116.053 242.398 72.4413
80.8961 254.433 54.6689
73.9467 268.148 31.5249
101.777 280.342 31.5241
107.15 265.935 54.6703
73.4886 269.193 28.7373
71.0467 274.007 1.49937
99.4305 286.444 1.49772
101.319 281.387 28.7365
71.0466 274.007 -1.51155
73.4869 269.186 -28.7514
101.317 281.38 -28.7532
99.4304 286.443 -1.5132
73.945 268.14 -31.5394
80.8968 254.418 -54.6905
107.15 265.922 -54.6924
101.775 280.334 -31.5412
81.7456 252.481 -56.8433
92.1653 231.916 -72.4601
116.055 242.384 -72.4623
107.999 263.985 -56.8452
93.2811 229.37 -73.6578
105.63 204.996 -79.401
126.72 214.237 -79.404
117.171 239.838 -73.6599
106.85 202.211 -79.4543
119.302 177.63 -74.3443
137.571 185.636 -74.3481
127.941 211.452 -79.4574
120.445 175.023 -73.2204
131.096 153.998 -57.8251
146.951 160.946 -57.8287
138.713 183.028 -73.2242
131.981 151.978 -55.67
139.133 137.855 -32.2459
153.368 144.093 -32.2462
147.836 158.926 -55.6736
139.615 136.754 -29.3843
142.131 131.78 -1.56621
155.795 137.769 -1.56502
153.851 142.991 -29.3846
157.378 138.359 1.5484
155.429 143.578 29.3713
170.269 148.189 29.3728
171.624 142.785 1.54968
155.072 144.727 32.2337
149.536 159.568 55.6672
166.067 164.703 55.6695
169.912 149.337 32.2351
148.882 161.675 57.8224
140.645 183.762 73.2124
159.693 189.677 73.2159
165.413 166.809 57.8248
139.801 186.481 74.3358
130.173 212.3 79.4405
152.164 219.127 79.4442
158.849 192.396 74.3393
129.272 215.203 79.3867
119.725 240.805 73.6396
144.636 248.538 73.6425
151.263 222.031 79.3904
118.901 243.46 72.4416
110.847 265.06 56.8231
138.222 273.558 56.8252
143.812 251.193 72.4446
110.221 267.08 54.6704
104.847 281.487 31.5242
133.865 290.495 31.5236
137.595 275.577 54.6724
104.509 282.576 28.7364
102.62 287.633 1.4976
132.215 296.822 1.49626
133.527 291.585 28.7359
102.62 287.633 -1.51338
104.507 282.57 -28.7534
133.524 291.579 -28.7549
132.215 296.821 -1.51472
104.845 281.48 -31.5414
110.22 267.067 -54.6926
137.593 275.566 -54.6944
133.863 290.489 -31.5429
110.847 265.047 -56.8455
118.904 243.447 -72.4625
143.813 251.182 -72.465
138.22 273.547 -56.8473
119.728 240.792 -73.6603
129.277 215.191 -79.4043
151.268 222.021 -79.4079
144.638 248.527 -73.6628
130.179 212.287 -79.4578
139.809 186.471 -74.3485
158.857 192.386 -74.3525
152.17 219.117 -79.4613
140.653 183.752 -73.2246
148.891 161.67 -57.8291
165.423 166.804 -57.8329
159.701 189.668 -73.2286
149.545 159.564 -55.6739
155.077 144.73 -32.2464
169.919 149.339 -32.2466
166.077 164.698 -55.6776
155.434 143.582 -29.3845
157.378 138.359 -1.56496
171.624 142.785 -1.56368
170.276 148.191 -29.3847
173.263 143.195 1.54984
171.908 148.599 29.3729
187.171 151.524 29.3744
187.914 146.003 1.55115
171.682 149.78 32.2353
167.837 165.145 55.6698
184.838 168.402 55.6723
186.944 152.705 32.2368
167.422 167.311 57.8251
161.702 190.179 73.2163
181.292 193.93 73.2202
184.423 170.568 57.8277
161.167 192.975 74.3398
154.482 219.707 79.4447
177.099 224.037 79.4489
180.757 196.726 74.3436
153.911 222.694 79.3908
147.283 249.201 73.6429
172.902 254.104 73.6464
176.527 227.023 79.395
146.761 251.931 72.4449
141.171 274.295 56.8254
169.323 279.682 56.8278
172.38 256.835 72.4483
140.774 276.372 54.6725
137.044 291.29 31.5237
166.887 297.001 31.5234
168.926 281.759 54.6748
136.83 292.411 28.7358
135.518 297.648 1.49617
165.955 303.472 1.49516
166.672 298.122 28.7354
135.518 297.647 -1.51486
136.827 292.405 -28.755
166.67 298.118 -28.7561
165.955 303.472 -1.51586
137.041 291.284 -31.5431
140.772 276.362 -54.6946
168.924 281.751 -54.6962
166.884 296.996 -31.5442
141.17 274.284 -56.8475
146.763 251.92 -72.4653
172.381 256.826 -72.4679
169.321 279.674 -56.8491
147.285 249.19 -73.6631
153.915 222.683 -79.4082
176.532 227.014 -79.4117
172.904 254.095 -73.6657
154.487 219.697 -79.4617
161.174 192.966 -74.3529
180.764 196.718 -74.3568
177.103 224.028 -79.4652
161.71 190.171 -73.229
167.432 167.307 -57.8333
184.433 170.563 -57.8369
181.299 193.922 -73.2329
167.847 165.141 -55.6779
171.689 149.782 -32.2468
186.952 152.705 -32.247
184.848 168.397 -55.6815
171.915 148.601 -29.3846
173.264 143.195 -1.56362
187.914 146.003 -1.56231
187.178 151.524 -29.3848
189.589 146.228 1.5513
188.845 151.749 29.3746
204.338 152.953 29.3759
204.461 147.384 1.5526
188.752 152.948 32.237
186.646 168.645 55.6725
203.904 169.983 55.6745
204.245 154.152 32.2384
186.475 170.843 57.828
183.344 194.206 73.2205
203.23 195.746 73.2235
203.734 172.182 57.8299
183.124 197.044 74.344
179.466 224.354 79.4493
202.425 226.132 79.4527
203.01 198.584 74.347
179.232 227.386 79.3954
175.607 254.467 73.6468
201.613 256.479 73.6497
202.191 229.163 79.3988
175.393 257.238 72.4486
172.337 280.086 56.8281
200.915 282.295 56.8299
201.399 259.25 72.4515
172.174 282.194 54.6749
170.135 297.436 31.5235
200.429 299.777 31.5232
200.752 284.403 54.6768
170.047 298.574 28.7354
169.329 303.924 1.4951
200.226 306.312 1.49446
200.341 300.915 28.7351
169.329 303.924 -1.51595
170.044 298.569 -28.7562
200.338 300.912 -28.7568
200.226 306.312 -1.51659
170.132 297.431 -31.5443
172.172 282.186 -54.6963
200.75 284.397 -54.6975
200.426 299.774 -31.5449
172.335 280.078 -56.8493
175.394 257.229 -72.4681
201.4 259.243 -72.47
200.913 282.289 -56.8505
175.608 254.458 -73.666
179.237 227.377 -79.412
202.195 229.155 -79.4145
201.615 256.471 -73.6679
179.471 224.345 -79.4656
183.132 197.036 -74.3571
203.018 198.577 -74.3596
202.43 226.124 -79.468
183.352 194.198 -73.2332
186.485 170.838 -57.8373
203.743 172.177 -57.8397
203.238 195.739 -73.2357
186.656 168.64 -55.6817
188.759 152.947 -32.2472
204.253 154.149 -32.247
203.914 169.978 -55.6841
188.852 151.749 -29.3847
189.589 146.228 -1.56223
204.461 147.384 -1.56094
204.345 152.951 -29.3845
206.15 147.42 1.55274
206.027 152.989 29.376
221.557 152.458 29.377
221.058 146.91 1.55409
206.068 154.191 32.2385
205.728 170.023 55.6746
223.028 169.429 55.6744
221.599 153.659 32.2394
205.804 172.227 57.83
205.3 195.791 73.2236
225.234 195.103 73.2224
223.104 171.633 57.8299
205.399 198.635 74.3471
204.813 226.183 79.4528
227.827 225.385 79.4514
225.333 197.947 74.346
204.919 229.221 79.3989
204.342 256.537 73.6498
230.41 255.629 73.6491
227.933 228.423 79.3976
204.439 259.315 72.4516
203.954 282.359 56.83
232.601 281.359 56.8301
230.507 258.407 72.4509
204.028 284.472 54.6768
203.705 299.846 31.5232
234.073 298.785 31.5227
232.675 283.472 54.6769
203.745 300.986 28.735
203.63 306.384 1.49441
234.602 305.302 1.49398
234.112 299.926 28.7345
203.63 306.384 -1.51664
203.742 300.984 -28.7569
234.11 299.924 -28.7568
234.602 305.302 -1.51707
203.702 299.843 -31.5449
204.026 284.467 -54.6975
232.673 283.469 -54.6967
234.07 298.784 -31.5449
203.952 282.354 -56.8505
204.44 259.308 -72.47
230.509 258.402 -72.4681
232.599 281.356 -56.8497
204.343 256.529 -73.6679
204.924 229.214 -79.4145
227.938 228.417 -79.412
230.412 255.624 -73.6661
204.818 226.175 -79.468
205.406 198.628 -74.3596
225.34 197.941 -74.3578
227.832 225.378 -79.4656
205.308 195.784 -73.2358
205.813 172.221 -57.8398
223.113 171.627 -57.8398
225.242 195.097 -73.234
205.737 170.018 -55.6841
206.076 154.189 -32.247
221.606 153.655 -32.2463
223.037 169.424 -55.6842
206.034 152.987 -29.3844
206.15 147.42 -1.56084
221.058 146.91 -1.55949
221.565 152.454 -29.3837
222.74 146.758 1.55421
223.24 152.306 29.3771
238.614 150.045 29.3776
237.497 144.587 1.5557
223.415 153.495 32.2394
224.844 169.265 55.6744
241.971 166.744 55.6719
238.789 151.234 32.2399
225.166 171.446 57.8296
227.297 194.916 73.2222
247.031 192.008 73.2167
242.292 168.926 57.8271
227.712 197.731 74.3456
230.207 225.169 79.451
252.99 221.805 79.4449
247.447 194.823 74.3401
230.651 228.176 79.3972
233.128 255.382 73.6487
258.934 251.566 73.6446
253.434 224.812 79.3911
233.535 258.131 72.4507
235.629 281.083 56.83
263.986 276.887 56.8286
259.341 254.315 72.4465
235.938 283.175 54.6768
237.336 298.488 31.5226
267.396 294.039 31.5217
264.295 278.978 54.6755
237.503 299.617 28.7344
237.992 304.993 1.49392
268.65 300.456 1.49347
267.563 295.168 28.7335
237.992 304.993 -1.51708
237.5 299.615 -28.7568
267.56 295.167 -28.7564
268.65 300.456 -1.51753
237.333 298.486 -31.5448
235.936 283.172 -54.6965
264.294 278.977 -54.6938
267.393 294.038 -31.5443
235.627 281.08 -56.8493
233.536 258.126 -72.4678
259.342 254.312 -72.4621
263.984 276.886 -56.8466
233.13 255.377 -73.6656
230.656 228.17 -79.4115
253.439 224.807 -79.4041
258.936 251.562 -73.6598
230.212 225.163 -79.4651
227.72 197.725 -74.3573
247.454 194.818 -74.3512
252.995 221.8 -79.4576
227.304 194.91 -73.2337
225.176 171.44 -57.8396
242.302 168.92 -57.8375
247.039 192.002 -73.2276
224.854 169.259 -55.6841
223.423 153.491 -32.2462
238.796 151.228 -32.2448
241.98 166.739 -55.682
223.247 152.302 -29.3835
222.741 146.757 -1.55936
237.498 144.586 -1.55787
238.621 150.039 -29.3822
239.152 144.248 1.55582
240.269 149.706 29.3778
255.294 145.742 29.378
253.574 140.441 1.55743
240.576 150.868 32.2398
243.758 166.378 55.6718
260.497 161.961 55.6681
255.601 146.904 32.24
244.321 168.51 57.8266
249.06 191.592 73.2162
268.348 186.496 73.2089
261.06 164.092 57.8229
249.787 194.342 74.3394
255.33 221.324 79.4441
277.597 215.435 79.4365
269.075 189.247 74.3321
256.108 224.262 79.3904
261.608 251.017 73.6439
286.828 244.34 73.6389
278.374 218.373 79.3828
262.319 253.703 72.4462
266.964 276.274 56.8283
294.676 268.934 56.8267
287.539 247.027 72.4412
267.505 278.318 54.6754
270.606 293.378 31.5216
299.982 285.598 31.5206
295.218 270.978 54.6738
270.898 294.481 28.7335
271.985 299.77 1.49339
301.946 291.834 1.49291
300.274 286.701 28.7324
271.985 299.77 -1.51752
270.895 294.481 -28.7564
300.272 286.701 -28.7557
301.946 291.834 -1.518
270.603 293.378 -31.5441
267.503 278.317 -54.6936
295.217 270.979 -54.6902
299.979 285.598 -31.5435
266.962 276.273 -56.846
262.321 253.7 -72.4616
287.541 247.025 -72.4547
294.676 268.936 -56.8427
261.61 251.013 -73.659
256.112 224.258 -79.4032
278.379 218.37 -79.3941
286.831 244.339 -73.6522
255.335 221.319 -79.4568
249.795 194.337 -74.3503
269.083 189.243 -74.3425
277.602 215.432 -79.4477
249.067 191.587 -73.2271
244.331 168.504 -57.8369
261.069 164.087 -57.8338
268.355 186.492 -73.2192
243.767 166.373 -55.6818
240.583 150.862 -32.2446
255.607 146.896 -32.2429
260.506 161.955 -55.6786
240.276 149.7 -29.382
239.153 144.247 -1.55771
253.574 140.441 -1.5561
255.3 145.733 -29.3804
255.181 139.919 1.55753
256.901 145.22 29.3781
271.389 139.6 29.3781
269.086 134.524 1.55921
257.336 146.341 32.2398
262.232 161.398 55.6679
278.373 155.136 55.6633
271.824 140.721 32.2398
263.03 163.452 57.8223
270.317 185.857 73.2083
288.917 178.637 73.1999
279.171 157.191 57.8177
271.347 188.508 74.3312
279.869 214.696 79.4356
301.34 206.355 79.4271
289.947 181.289 74.3229
280.97 217.528 79.3821
289.424 243.496 73.6382
313.742 234.043 73.6328
302.441 209.187 79.3736
290.431 246.085 72.4409
297.568 267.993 56.8263
324.289 257.602 56.8245
314.749 236.632 72.4354
298.334 269.963 54.6736
303.098 284.583 31.5204
331.423 273.568 31.5193
325.055 259.572 54.6718
303.512 285.646 28.7323
305.184 290.78 1.49282
334.072 279.546 1.49235
331.837 274.631 28.7312
305.183 290.78 -1.51799
303.509 285.647 -28.7557
331.835 274.633 -28.7549
334.072 279.546 -1.51847
303.096 284.583 -31.5432
298.333 269.965 -54.69
325.055 259.576 -54.6864
331.421 273.57 -31.5425
297.567 267.994 -56.8421
290.433 246.084 -72.4542
314.752 236.632 -72.4468
324.289 257.606 -56.8386
289.426 243.494 -73.6513
280.975 217.525 -79.3932
302.447 209.185 -79.3832
313.746 234.043 -73.644
279.875 214.693 -79.4467
271.355 188.504 -74.3414
289.955 181.286 -74.3323
301.346 206.353 -79.4366
270.325 185.852 -73.2185
263.039 163.447 -57.8332
279.18 157.185 -57.8291
288.925 178.634 -73.2094
262.241 161.392 -55.6783
257.342 146.332 -32.2427
271.829 140.711 -32.2406
278.382 155.13 -55.6743
256.907 145.211 -29.3802
255.181 139.919 -1.55591
269.086 134.524 -1.55424
271.393 139.59 -29.3782
270.624 133.826 1.5593
272.927 138.902 29.3782
286.695 131.696 29.3778
283.837 126.908 1.56098
273.485 139.967 32.2395
280.034 154.382 55.663
295.375 146.355 55.6574
287.253 132.761 32.2391
281.057 156.335 57.8169
290.802 177.781 73.1991
308.479 168.526 73.1893
296.398 148.307 57.8113
292.123 180.3 74.3219
303.516 205.367 79.4261
323.922 194.677 79.4167
309.799 171.046 74.3121
304.926 208.058 79.3728
316.228 232.913 73.632
339.339 220.801 73.6262
325.332 197.368 79.3634
317.517 235.373 72.435
327.057 256.344 56.8241
352.451 243.032 56.8221
340.629 223.262 72.4293
328.038 258.215 54.6717
334.407 272.211 31.5191
361.325 258.1 31.5179
353.433 244.904 54.6696
334.937 273.222 28.7311
337.172 278.136 1.49226
364.626 263.745 1.49181
361.855 259.111 28.7299
337.171 278.137 -1.51845
334.935 273.223 -28.7549
361.854 259.113 -28.754
364.626 263.745 -1.5189
334.405 272.213 -31.5422
328.039 258.219 -54.6862
353.435 244.909 -54.6824
361.324 258.103 -31.5413
327.057 256.347 -56.8379
317.52 235.374 -72.4462
340.633 223.263 -72.4387
352.453 243.037 -56.8342
316.231 232.913 -73.643
304.932 208.056 -79.3822
325.339 197.368 -79.3713
339.344 220.803 -73.6354
303.522 205.365 -79.4355
292.131 180.297 -74.3312
309.808 171.044 -74.3207
323.929 194.676 -79.4246
290.811 177.777 -73.2086
281.066 156.329 -57.8283
296.406 148.302 -57.823
308.488 168.524 -73.1981
280.043 154.376 -55.6739
273.49 139.957 -32.2403
287.256 132.75 -32.2379
295.383 146.349 -55.6687
272.931 138.892 -29.378
270.624 133.825 -1.55403
283.838 126.907 -1.55234
286.697 131.685 -29.3755
285.288 126.041 1.56105
288.146 130.83 29.3778
301.021 122.127 29.3769
297.643 117.686 1.56268
288.82 131.826 32.2387
296.941 145.42 55.657
311.288 135.725 55.6499
301.694 123.124 32.2378
298.176 147.245 57.8104
310.258 167.464 73.1884
326.79 156.291 73.1768
312.523 137.551 57.8032
311.851 169.82 74.3109
325.974 193.452 79.4156
345.057 180.547 79.4051
328.383 158.647 74.2993
327.676 195.968 79.3625
341.683 219.401 73.6253
363.297 204.781 73.6191
346.759 183.064 79.352
343.239 221.701 72.4288
355.062 241.472 56.8217
378.811 225.405 56.8193
364.854 207.082 72.4226
356.246 243.222 54.6695
364.139 256.418 31.5177
389.314 239.386 31.5164
379.996 227.155 54.6671
364.778 257.363 28.7298
367.549 261.997 1.49171
393.225 244.627 1.49131
389.954 240.331 28.7285
367.549 261.998 -1.51887
364.777 257.366 -28.7539
389.954 240.335 -28.7528
393.225 244.627 -1.51927
364.138 256.421 -31.541
356.248 243.228 -54.6822
380 227.162 -54.6782
389.314 239.39 -31.5399
355.064 241.477 -56.8335
343.244 221.703 -72.438
364.859 207.085 -72.4299
378.816 225.412 -56.8296
341.687 219.402 -73.6343
327.682 195.967 -79.3703
346.767 183.064 -79.3583
363.303 204.784 -73.6263
325.98 193.451 -79.4234
311.86 169.818 -74.3194
328.392 158.646 -74.3072
345.065 180.548 -79.4114
310.266 167.462 -73.1971
298.185 147.24 -57.8221
312.531 137.546 -57.8152
326.799 156.289 -73.1849
296.949 145.414 -55.6682
288.822 131.815 -32.2374
301.695 123.111 -32.2345
311.296 135.72 -55.6614
288.148 130.818 -29.3753
285.288 126.041 -1.5521
297.643 117.686 -1.55047
301.02 122.115 -29.3724
298.987 116.663 1.5627
302.365 121.104 29.377
314.184 111.013 29.3753
310.327 106.975 1.56421
303.146 122.019 32.2373
312.74 134.621 55.6494
325.912 123.382 55.6405
314.965 111.928 32.2357
314.172 136.297 57.8021
328.439 155.037 73.1756
343.618 142.084 73.1619
327.344 125.058 57.7932
330.285 157.199 74.298
346.959 179.1 79.4038
364.481 164.143 79.3919
345.464 144.247 74.2843
348.932 181.41 79.351
365.47 203.127 73.6182
385.316 186.183 73.6114
366.454 166.453 79.3391
367.274 205.239 72.4221
381.231 223.563 56.8188
403.038 204.942 56.8163
387.12 188.295 72.4153
382.604 225.17 54.6669
391.922 237.401 31.5161
415.039 217.661 31.5148
404.411 206.549 54.6644
392.664 238.268 28.7284
395.935 242.564 1.49121
419.512 222.431 1.49088
415.78 218.528 28.727
395.935 242.564 -1.51922
392.664 238.271 -28.7528
415.781 218.532 -28.7515
419.512 222.431 -1.51955
391.922 237.404 -31.5396
382.608 225.176 -54.6779
404.417 206.556 -54.6738
415.04 217.665 -31.5383
381.236 223.57 -56.8289
367.279 205.242 -72.4293
387.127 188.299 -72.4209
403.045 204.949 -56.8248
365.476 203.13 -73.6251
348.94 181.411 -79.3571
366.463 166.454 -79.3438
385.323 186.187 -73.6168
346.967 179.101 -79.4099
330.294 157.198 -74.3057
345.474 144.247 -74.2911
364.49 164.145 -79.3966
328.448 155.035 -73.1837
314.18 136.292 -57.814
327.352 125.054 -57.8051
343.627 142.084 -73.169
312.748 134.615 -55.6607
303.146 122.007 -32.2338
314.963 111.916 -32.2304
325.92 123.377 -55.6518
302.365 121.092 -29.3721
298.987 116.662 -1.5502
310.327 106.974 -1.5487
314.181 111.001 -29.3686
311.548 105.807 1.56416
315.405 109.845 29.3753
326.02 98.4925 29.3725
321.731 94.9069 1.56551
316.285 110.668 32.235
327.232 122.121 55.6398
339.064 109.478 55.6283
326.899 99.3151 32.2322
328.842 123.627 57.7917
345.115 140.654 73.1605
358.75 126.085 73.144
340.674 110.985 57.7803
347.192 142.596 74.2828
366.209 162.492 79.3904
381.949 145.67 79.3772
360.827 128.028 74.2663
368.428 164.567 79.3381
387.29 184.297 73.6103
405.118 165.24 73.6035
384.167 147.745 79.3249
389.318 186.194 72.4148
405.237 202.84 56.8157
424.827 181.897 56.8131
407.146 167.137 72.408
406.781 204.283 54.6641
417.409 215.396 31.5145
438.176 193.193 31.513
426.371 183.341 54.6615
418.242 216.175 28.7269
421.974 220.077 1.49077
443.154 197.433 1.4905
439.01 193.972 28.7253
421.974 220.078 -1.51948
418.244 216.178 -28.7514
439.012 193.976 -28.7499
443.155 197.433 -1.51976
417.41 215.4 -31.538
406.788 204.291 -54.6735
426.38 183.348 -54.6693
438.179 193.197 -31.5365
405.244 202.848 -56.8241
389.326 186.198 -72.4202
407.156 167.141 -72.4118
424.837 181.905 -56.82
387.297 184.301 -73.6155
368.437 164.568 -79.3425
384.177 147.747 -79.3281
405.127 165.244 -73.6071
366.219 162.494 -79.3949
347.202 142.596 -74.2894
360.838 128.028 -74.2722
381.959 145.673 -79.3805
345.125 140.653 -73.1676
328.85 123.623 -57.8037
340.681 110.981 -57.7921
358.76 126.085 -73.1503
327.239 122.116 -55.651
316.282 110.655 -32.2296
326.894 99.3034 -32.2252
339.07 109.474 -55.6395
315.402 109.833 -29.3683
311.548 105.806 -1.54839
321.73 94.9063 -1.54704
326.014 98.481 -29.3639
322.813 93.6096 1.56535
327.102 97.1952 29.3724
336.38 84.7245 29.3674
331.712 81.6358 1.5665
328.069 97.915 32.2312
340.234 108.078 55.6273
350.578 94.1917 55.612
337.347 85.4442 32.2263
342.003 109.395 57.7785
360.079 124.496 73.1423
371.998 108.496 73.1226
352.347 95.5088 57.7632
362.36 126.194 74.2646
383.482 143.837 79.3754
397.24 125.362 79.3614
374.279 110.194 74.2449
385.918 145.65 79.3238
406.868 163.145 73.6024
422.454 142.215 73.5958
399.677 127.175 79.3097
409.097 164.803 72.4074
426.778 179.563 56.8126
443.905 156.56 56.81
424.682 143.873 72.4008
428.474 180.825 54.6612
440.278 190.677 31.5127
458.434 166.289 31.5111
445.601 157.821 54.6586
441.194 191.358 28.7252
445.338 194.818 1.4904
463.856 169.943 1.4902
459.349 166.97 28.7236
445.339 194.819 -1.51967
441.196 191.362 -28.7498
459.353 166.973 -28.7481
463.856 169.943 -1.51987
440.281 190.681 -31.5362
428.482 180.832 -54.669
445.612 157.828 -54.665
458.438 166.292 -31.5344
426.787 179.571 -56.8193
409.106 164.807 -72.4111
424.693 143.877 -72.4029
443.916 156.567 -56.8152
406.878 163.149 -73.6058
385.928 145.652 -79.3269
399.688 127.178 -79.3115
422.465 142.219 -73.5976
383.492 143.839 -79.3787
362.37 126.195 -74.2703
374.29 110.195 -74.2501
397.251 125.364 -79.3633
360.089 124.496 -73.1485
342.01 109.392 -57.7903
352.353 95.5061 -57.775
372.009 108.497 -73.1282
340.24 108.074 -55.6384
328.064 97.9034 -32.2241
337.339 85.4338 -32.2177
350.583 94.1884 -55.6231
327.097 97.1837 -29.3635
322.813 93.609 -1.54666
331.712 81.6352 -1.54551
336.373 84.7142 -29.3572
332.644 80.2255 1.56607
337.312 83.3142 29.367
345.146 69.8858 29.3554
340.158 67.3329 1.56695
338.353 83.9221 32.2247
351.584 92.6696 55.6104
360.314 77.7161 55.5859
346.187 70.4938 32.2131
353.489 93.7812 57.7608
373.141 106.768 73.1202
383.195 89.5384 73.094
362.22 78.8277 57.7363
375.597 108.2 74.2428
398.558 123.369 79.3593
410.162 103.473 79.343
385.652 90.9707 74.2166
401.182 124.898 79.3085
423.959 139.938 73.5946
437.105 117.396 73.5881
412.786 105.002 79.2922
426.359 141.335 72.4003
445.582 154.022 56.8094
460.029 129.245 56.8069
439.505 118.793 72.3938
447.408 155.085 54.6583
460.241 163.553 31.5108
475.555 137.282 31.509
461.855 130.308 54.6559
461.227 164.127 28.7235
465.734 167.101 1.49009
481.351 140.304 1.49004
476.541 137.856 28.7217
465.734 167.101 -1.51976
461.231 164.13 -28.748
476.546 137.858 -28.7459
481.352 140.304 -1.51981
460.246 163.557 -31.5341
447.42 155.092 -54.6646
461.868 130.314 -54.6607
475.56 137.285 -31.5319
445.594 154.029 -56.8145
426.37 141.339 -72.4022
439.517 118.797 -72.3941
460.042 129.251 -56.8106
423.97 139.941 -73.5963
401.193 124.9 -79.3101
412.798 105.005 -79.2926
437.117 117.399 -73.5882
398.569 123.371 -79.3611
375.608 108.202 -74.2478
385.662 90.9724 -74.221
410.174 103.476 -79.3436
373.151 106.769 -73.1258
353.496 93.7786 -57.7726
362.225 78.8262 -57.7481
383.206 89.5399 -73.099
351.589 92.6665 -55.6214
338.346 83.9118 -32.216
346.177 70.4852 -32.2034
360.319 77.7141 -55.597
337.304 83.304 -29.3565
332.643 80.225 -1.5449
340.157 67.3324 -1.54402
345.136 69.8773 -29.3439
340.929 65.8284 1.56562
345.917 68.3813 29.3541
352.246 54.1754 29.3181
347.011 52.1925 1.56611
347.019 68.8697 32.2094
361.146 76.0919 55.5822
368.174 60.2664 55.5235
353.349 54.6637 32.1734
363.162 76.9839 57.7317
384.138 87.6946 73.0894
392.207 69.4552 73.0347
370.191 61.1584 57.6731
386.738 88.843 74.213
411.249 101.346 79.3394
420.55 80.2799 79.3071
394.808 70.6035 74.1584
414.027 102.571 79.2903
438.346 114.964 73.5862
448.881 91.0918 73.573
423.328 81.5051 79.258
440.887 116.084 72.393
461.411 126.536 56.8062
472.988 100.292 56.8006
451.422 92.2113 72.3798
463.345 127.387 54.6555
477.045 134.361 31.5086
489.316 106.532 31.5055
474.922 101.143 54.6499
478.089 134.82 28.7215
482.899 137.268 1.48989
495.413 108.882 1.49005
490.36 106.991 28.7183
482.899 137.268 -1.51963
478.093 134.822 -28.7457
490.365 106.992 -28.7417
495.413 108.882 -1.51947
477.05 134.363 -31.5314
463.358 127.392 -54.6601
474.936 101.146 -54.6527
489.322 106.533 -31.5274
461.425 126.541 -56.8096
440.9 116.087 -72.3932
451.435 92.2132 -72.378
473.003 100.295 -56.8021
438.358 114.967 -73.5862
414.039 102.573 -79.2905
423.34 81.5074 -79.2573
448.893 91.0936 -73.571
411.261 101.348 -79.3399
386.749 88.8447 -74.2174
394.818 70.6057 -74.1625
420.562 80.2821 -79.3066
384.149 87.6962 -73.0944
363.168 76.9826 -57.7435
370.196 61.1584 -57.6845
392.218 69.4572 -73.0395
361.151 76.0901 -55.5932
347.009 68.8612 -32.1996
353.338 54.6576 -32.1629
368.179 60.266 -55.5342
345.907 68.3729 -29.3425
340.928 65.828 -1.54257
347.011 52.1921 -1.54208
352.235 54.1694 -29.3057
347.624 50.6157 1.56144
352.859 52.5986 29.3134
357.761 37.8232 29.1833
352.376 36.4417 1.56125
354.004 52.9604 32.1613
368.83 58.5631 55.5114
374.17 42.0841 55.3047
358.906 38.185 32.0311
370.927 59.2231 57.6584
392.943 67.5199 73.0201
398.965 48.5068 72.814
376.266 42.7441 57.4517
395.65 68.3687 74.1461
421.392 78.0451 79.2948
428.261 56.0683 79.1431
401.672 49.3556 73.94
424.287 78.9501 79.2501
449.84 88.5367 73.565
457.59 63.6197 73.4739
431.156 56.9733 79.0984
452.489 89.3633 72.3754
474.055 97.4438 56.7962
482.565 70.0465 56.7475
460.24 64.4463 72.2843
476.072 98.072 54.6477
490.466 103.461 31.5032
499.486 74.4076 31.4818
484.582 70.6747 54.599
491.554 103.8 28.7177
496.607 105.691 1.48937
505.807 76.0544 1.49007
500.575 74.7464 28.6962
496.608 105.691 -1.51869
491.559 103.8 -28.7409
500.58 74.744 -28.7177
505.807 76.0543 -1.51799
490.471 103.462 -31.525
476.086 98.0747 -54.6503
484.597 70.674 -54.5992
499.492 74.4053 -31.5018
474.07 97.4466 -56.7975
452.502 89.3649 -72.3734
460.252 64.4467 -72.2805
482.58 70.0459 -56.7464
449.852 88.5384 -73.5629
424.299 78.9523 -79.2492
431.167 56.9751 -79.097
457.602 63.6202 -73.47
421.404 78.0473 -79.2943
395.66 68.3709 -74.1502
401.682 49.3579 -73.9441
428.272 56.0702 -79.1421
392.954 67.522 -73.0248
370.932 59.2233 -57.6698
376.272 42.7461 -57.4616
398.975 48.509 -72.8188
368.835 58.5629 -55.522
353.994 52.9546 -32.1507
358.897 38.1826 -32.0197
374.175 42.0857 -55.3138
352.848 52.5927 -29.301
347.623 50.6154 -1.53735
352.375 36.4415 -1.53753
357.752 37.8207 -29.1701
352.866 34.8202 1.54426
358.251 36.2017 29.1663
362.259 21.1176 28.6875
356.864 20.3642 1.54285
359.414 36.4312 31.9849
374.678 40.3302 55.2585
378.73 23.4676 54.4112
363.422 21.3471 31.5061
376.81 40.7477 57.388
399.509 46.5103 72.7503
403.661 26.9962 71.7121
380.862 23.8851 56.5407
402.265 47.0454 73.8727
428.855 53.7581 79.0758
433.174 31.1332 78.0374
406.417 27.5313 72.8345
431.808 54.3274 79.0384
458.243 60.9739 73.4139
462.781 35.2579 72.5252
436.127 31.7025 78
460.95 61.4932 72.2379
483.275 67.0935 56.7012
488.03 38.7708 56.053
465.488 35.7773 71.3492
485.337 67.4881 54.5698
500.241 71.221 31.4526
505.145 41.1581 31.1133
490.092 39.1655 53.9216
501.354 71.4335 28.6864
506.586 72.7415 1.48019
511.548 42.0668 1.48342
506.258 41.3707 28.3471
506.586 72.7412 -1.50779
501.359 71.431 -28.7075
506.269 41.3657 -28.3654
511.548 42.0666 -1.50456
500.247 71.2182 -31.4724
485.352 67.487 -54.5698
490.106 39.161 -53.9246
505.156 41.1529 -31.1304
483.29 67.0927 -56.7
460.962 61.4934 -72.2341
465.498 35.7768 -71.3448
488.045 38.7667 -56.0548
458.254 60.9743 -73.41
431.82 54.3292 -79.0369
436.136 31.7038 -77.9989
462.79 35.2577 -72.5207
428.866 53.76 -79.0748
402.275 47.0477 -73.8768
406.425 27.5333 -72.8389
433.182 31.1346 -78.0368
399.518 46.5126 -72.7549
376.815 40.7497 -57.3978
380.87 23.8893 -56.5454
403.668 26.9983 -71.717
374.683 40.3322 -55.2674
359.405 36.4291 -31.9733
363.421 21.3498 -31.4938
378.737 23.4718 -54.415
358.242 36.1994 -29.1531
352.865 34.8202 -1.5206
356.864 20.3643 -1.52201
362.257 21.1201 -28.6736
357.345 18.814 1.4861
362.74 19.5674 28.6308
367.348 6.30568 27.443
362.221 5.59874 1.48422
363.863 19.7222 31.3533
379.171 21.8427 54.2584
383.057 8.46078 52.1389
368.471 6.46048 30.1656
381.242 22.1251 56.3335
404.04 25.2362 71.505
406.931 11.6877 68.8499
385.127 8.74318 54.214
406.736 25.5994 72.6189
433.493 29.2014 77.8218
435.306 15.4798 75.0533
409.628 12.0509 69.9639
436.402 29.5897 77.8112
463.056 33.1451 72.3364
463.854 19.2696 69.848
438.215 15.8682 75.0427
465.739 33.5012 71.2072
488.281 36.4948 55.911
488.254 22.4991 54.0463
466.537 19.6257 68.7188
490.332 36.7662 53.835
505.385 38.7589 31.0267
504.822 24.6872 30.0303
490.305 22.7706 51.9703
506.495 38.9054 28.3183
511.785 39.6015 1.45462
511.031 25.5024 1.45633
505.933 24.8337 27.3219
511.785 39.6012 -1.47526
506.506 38.9003 -28.3361
505.935 24.8272 -27.3346
511.031 25.5021 -1.47356
505.396 38.7536 -31.0435
490.346 36.7617 -53.8377
490.315 22.7655 -51.968
504.825 24.6805 -30.0419
488.295 36.4905 -55.9127
465.748 33.5006 -71.2028
466.544 19.6251 -68.7157
488.263 22.4943 -54.043
463.065 33.1448 -72.332
436.411 29.591 -77.8101
438.222 15.869 -75.0419
463.861 19.2693 -69.8448
433.501 29.2027 -77.8212
406.744 25.6014 -72.6233
409.634 12.0524 -69.9672
435.312 15.4808 -75.053
404.048 25.2383 -71.5097
381.249 22.1294 -56.3381
385.132 8.74777 -54.2205
406.937 11.6893 -68.8535
379.178 21.847 -54.2622
363.862 19.725 -31.341
368.467 6.46422 -30.1563
383.061 8.46544 -52.1446
362.738 19.57 -28.6171
357.345 18.8142 -1.46553
362.221 5.59891 -1.4674
367.343 6.30919 -27.4324
362.784 4.14554 1.41052
367.911 4.85247 27.3693
373.179 -8.13621 25.9026
368.359 -8.79997 1.40681
368.974 4.99842 29.9593
383.56 6.99872 51.9326
387.983 -6.10367 49.2607
374.243 -7.99026 28.4927
385.526 7.26535 53.9124
407.33 10.2099 68.5483
410.538 -3.07008 65.091
389.949 -5.83703 51.2404
409.897 10.5535 69.6154
435.574 13.9824 74.7049
437.371 0.499804 70.982
413.104 -2.72643 66.1582
438.349 14.3509 74.6996
463.988 17.7523 69.5049
464.381 4.07357 66.072
440.145 0.868341 70.9768
466.548 18.0911 68.4309
488.264 20.9646 53.7585
487.467 7.1246 51.1271
466.941 4.4124 64.9981
490.223 21.2235 51.7793
504.74 23.1401 29.8393
503.139 9.19278 28.4172
489.426 7.3835 49.1479
505.801 23.2797 27.2553
510.899 23.9484 1.38969
509.015 9.96275 1.39376
504.199 9.33242 25.8331
510.899 23.948 -1.4063
505.803 23.2732 -27.2673
504.203 9.32503 -25.8404
509.016 9.96236 -1.40223
504.743 23.1332 -29.8506
490.232 21.2182 -51.7766
489.433 7.37735 -49.1489
503.143 9.18506 -28.4237
488.274 20.9598 -53.7552
466.554 18.0906 -68.4279
466.945 4.41186 -64.9971
487.474 7.11889 -51.1275
463.994 17.752 -69.5019
438.355 14.3518 -74.699
440.148 0.868719 -70.9764
464.385 4.07333 -66.0712
435.581 13.9833 -74.7044
409.902 10.5549 -69.6186
413.108 -2.72573 -66.1592
437.374 0.500247 -70.9819
407.336 10.2115 -68.5517
385.531 7.26993 -53.9187
389.953 -5.83163 -51.242
410.541 -3.06915 -65.0923
383.565 7.00357 -51.9385
368.97 5.00235 -29.9502
374.243 -7.98412 -28.487
387.987 -6.09798 -49.2617
367.906 4.85609 -27.3592
362.784 4.14581 -1.39421
368.359 -8.7997 -1.39792
373.179 -8.13039 -25.8961
369.034 -10.2004 1.30967
373.854 -9.53665 25.8055
380.472 -21.8924 23.7575
376.049 -22.5139 1.30576
374.843 -9.3993 28.2178
388.584 -7.51271 48.9858
394.055 -19.985 45.2034
381.461 -21.755 26.1697
390.414 -7.26342 50.8309
411.003 -4.49646 64.6815
414.768 -17.1978 59.7232
395.886 -19.7357 47.0486
413.395 -4.17707 65.6756
437.661 -0.950829 70.4994
439.399 -13.9271 65.1099
417.159 -16.8784 60.7172
440.245 -0.608219 70.4935
464.482 2.59701 65.5887
464.17 -10.6523 60.5788
441.983 -13.5845 65.1039
466.866 2.91214 64.5869
487.392 5.62433 50.7159
485.32 -7.86143 46.8552
466.554 -10.3372 59.5769
489.214 5.86504 48.8723
502.927 7.67432 28.1415
499.658 -5.97075 26.044
487.142 -7.62072 45.0116
503.912 7.80424 25.7365
508.729 8.43457 1.29717
505.034 -5.26187 1.30105
500.643 -5.84083 23.639
508.729 8.43436 -1.30478
503.916 7.79703 -25.743
500.643 -5.84089 -23.6389
505.034 -5.26208 -1.30089
502.931 7.66691 -28.1479
489.22 5.8592 -48.8731
487.142 -7.62131 -45.0116
499.658 -5.97101 -26.0438
487.398 5.61874 -50.7166
466.869 2.91171 -64.5862
466.554 -10.3376 -59.5769
485.32 -7.86177 -46.8551
464.485 2.59674 -65.588
440.248 -0.607865 -70.4932
441.983 -13.5847 -65.1038
464.17 -10.6525 -60.5787
437.664 -0.950454 -70.4992
413.398 -4.17643 -65.6766
417.159 -16.8786 -60.7171
439.399 -13.9273 -65.1098
411.006 -4.49571 -64.6825
390.418 -7.25818 -50.8321
395.886 -19.7356 -47.0486
414.768 -17.1979 -59.7231
388.587 -7.50725 -48.9868
374.844 -9.39338 -28.2122
381.461 -21.7547 -26.1696
394.055 -19.9847 -45.2033
373.854 -9.53093 -25.7997
369.034 -10.2002 -1.30154
376.049 -22.5137 -1.30545
380.472 -21.8922 -23.7572
37.1621 -40.526 25.6509
42.24 -41.0165 0.0106164
37.1646 -40.5484 -25.6311
22.7088 -39.1877 -47.3661
1.07691 -37.1431 -61.8839
-24.4358 -34.7342 -66.9791
-49.9485 -32.3303 -61.8795
-71.5782 -30.2882 -47.3581
-86.0326 -28.9246 -25.6252
-91.1123 -28.4531 0.011665
-86.0386 -28.9366 25.6501
-71.5829 -30.2958 47.3837
-49.9498 -32.3241 61.9028
-24.4362 -34.7206 67.0013
1.07678 -37.1242 61.9052
22.7074 -39.1611 47.3852
382.635 -22.3839 8.44366e-06
387.058 -21.7623 22.4517
399.652 -19.9923 41.4854
418.534 -17.4544 54.16
440.774 -14.5031 58.5527
462.961 -11.5709 54.0275
481.727 -9.09514 41.3057
494.242 -7.44517 22.3382
498.633 -6.86621 0.000228277
494.242 -7.44501 -22.3378
481.726 -9.09531 -41.3056
462.961 -11.5711 -54.0274
440.774 -14.5033 -58.5526
418.534 -17.4546 -54.1599
399.652 -19.9923 -41.4854
387.058 -21.7623 -22.4517
</DataArray>
</Points>
<Cells>
<DataArray type="Int32" Name="connectivity" format="ascii">
0 1 2 3 
4 5 6 7 
8 9 10 11 
12 13 14 15 
16 17 18 19 
20 21 22 23 
24 25 26 27 
28 29 30 31 
32 33 34 35 
36 37 38 39 
40 41 42 43 
44 45 46 47 
48 49 50 51 
52 53 54 55 
56 57 58 59 
60 61 62 63 
64 65 66 67 
68 69 70 71 
72 73 74 75 
76 77 78 79 
80 81 82 83 
84 85 86 87 
88 89 90 91 
92 93 94 95 
96 97 98 99 
100 101 102 103 
104 105 106 107 
108 109 110 111 
112 113 114 115 
116 117 118 119 
120 121 122 123 
124 125 126 127 
128 129 130 131 
132 133 134 135 
136 137 138 139 
140 141 142 143 
144 145 146 147 
148 149 150 151 
152 153 154 155 
156 157 158 159 
160 161 162 163 
164 165 166 167 
168 169 170 171 
172 173 174 175 
176 177 178 179 
180 181 182 183 
184 185 186 187 
188 189 190 191 
192 193 194 195 
196 197 198 199 
200 201 202 203 
204 205 206 207 
208 209 210 211 
212 213 214 215 
216 217 218 219 
220 221 222 223 
224 225 226 227 
228 229 230 231 
232 233 234 235 
236 237 238 239 
240 241 242 243 
244 245 246 247 
248 249 250 251 
252 253 254 255 
256 257 258 259 
260 261 262 263 
264 265 266 267 
268 269 270 271 
272 273 274 275 
276 277 278 279 
280 281 282 283 
284 285 286 287 
288 289 290 291 
292 293 294 295 
296 297 298 299 
300 301 302 303 
304 305 306 307 
308 309 310 311 
312 313 314 315 
316 317 318 319 
320 321 322 323 
324 325 326 327 
328 329 330 331 
332 333 334 335 
336 337 338 339 
340 341 342 343 
344 345 346 347 
348 349 350 351 
352 353 354 355 
356 357 358 359 
360 361 362 363 
364 365 366 367 
368 369 370 371 
372 373 374 375 
376 377 378 379 
380 381 382 383 
384 385 386 387 
388 389 390 391 
392 393 394 395 
396 397 398 399 
400 401 402 403 
404 405 406 407 
408 409 410 411 
412 413 414 415 
416 417 418 419 
420 421 422 423 
424 425 426 427 
428 429 430 431 
432 433 434 435 
436 437 438 439 
440 441 442 443 
444 445 446 447 
448 449 450 451 
452 453 454 455 
456 457 458 459 
460 461 462 463 
464 465 466 467 
468 469 470 471 
472 473 474 475 
476 477 478 479 
480 481 482 483 
484 485 486 487 
488 489 490 491 
492 493 494 495 
496 497 498 499 
500 501 502 503 
504 505 506 507 
508 509 510 511 
512 513 514 515 
516 517 518 519 
520 521 522 523 
524 525 526 527 
528 529 530 531 
532 533 534 535 
536 537 538 539 
540 541 542 543 
544 545 546 547 
548 549 550 551 
552 553 554 555 
556 557 558 559 
560 561 562 563 
564 565 566 567 
568 569 570 571 
572 573 574 575 
576 577 578 579 
580 581 582 583 
584 585 586 587 
588 589 590 591 
592 593 594 595 
596 597 598 599 
600 601 602 603 
604 605 606 607 
608 609 610 611 
612 613 614 615 
616 617 618 619 
620 621 622 623 
624 625 626 627 
628 629 630 631 
632 633 634 635 
636 637 638 639 
640 641 642 643 
644 645 646 647 
648 649 650 651 
652 653 654 655 
656 657 658 659 
660 661 662 663 
664 665 666 667 
668 669 670 671 
672 673 674 675 
676 677 678 679 
680 681 682 683 
684 685 686 687 
688 689 690 691 
692 693 694 695 
696 697 698 699 
700 701 702 703 
704 705 706 707 
708 709 710 711 
712 713 714 715 
716 717 718 719 
720 721 722 723 
724 725 726 727 
728 729 730 731 
732 733 734 735 
736 737 738 739 
740 741 742 743 
744 745 746 747 
748 749 750 751 
752 753 754 755 
756 757 758 759 
760 761 762 763 
764 765 766 767 
768 769 770 771 
772 773 774 775 
776 777 778 779 
780 781 782 783 
784 785 786 787 
788 789 790 791 
792 793 794 795 
796 797 798 799 
800 801 802 803 
804 805 806 807 
808 809 810 811 
812 813 814 815 
816 817 818 819 
820 821 822 823 
824 825 826 827 
828 829 830 831 
832 833 834 835 
836 837 838 839 
840 841 842 843 
844 845 846 847 
848 849 850 851 
852 853 854 855 
856 857 858 859 
860 861 862 863 
864 865 866 867 
868 869 870 871 
872 873 874 875 
876 877 878 879 
880 881 882 883 
884 885 886 887 
888 889 890 891 
892 893 894 895 
896 897 898 899 
900 901 902 903 
904 905 906 907 
908 909 910 911 
912 913 914 915 
916 917 918 919 
920 921 922 923 
924 925 926 927 
928 929 930 931 
932 933 934 935 
936 937 938 939 
940 941 942 943 
944 945 946 947 
948 949 950 951 
952 953 954 955 
956 957 958 959 
960 961 962 963 
964 965 966 967 
968 969 970 971 
972 973 974 975 
976 977 978 979 
980 981 982 983 
984 985 986 987 
988 989 990 991 
992 993 994 995 
996 997 998 999 
1000 1001 1002 1003 
1004 1005 1006 1007 
1008 1009 1010 1011 
1012 1013 1014 1015 
1016 1017 1018 1019 
1020 1021 1022 1023 
1024 1025 1026 1027 
1028 1029 1030 1031 
1032 1033 1034 1035 
1036 1037 1038 1039 
1040 1041 1042 1043 
1044 1045 1046 1047 
1048 1049 1050 1051 
1052 1053 1054 1055 
1056 1057 1058 1059 
1060 1061 1062 1063 
1064 1065 1066 1067 
1068 1069 1070 1071 
1072 1073 1074 1075 
1076 1077 1078 1079 
1080 1081 1082 1083 
1084 1085 1086 1087 
1088 1089 1090 1091 
1092 1093 1094 1095 
1096 1097 1098 1099 
1100 1101 1102 1103 
1104 1105 1106 1107 
1108 1109 1110 1111 
1112 1113 1114 1115 
1116 1117 1118 1119 
1120 1121 1122 1123 
1124 1125 1126 1127 
1128 1129 1130 1131 
1132 1133 1134 1135 
1136 1137 1138 1139 
1140 1141 1142 1143 
1144 1145 1146 1147 
1148 1149 1150 1151 
1152 1153 1154 1155 
1156 1157 1158 1159 
1160 1161 1162 1163 
1164 1165 1166 1167 
1168 1169 1170 1171 
1172 1173 1174 1175 
1176 1177 1178 1179 
1180 1181 1182 1183 
1184 1185 1186 1187 
1188 1189 1190 1191 
1192 1193 1194 1195 
1196 1197 1198 1199 
1200 1201 1202 1203 
1204 1205 1206 1207 
1208 1209 1210 1211 
1212 1213 1214 1215 
1216 1217 1218 1219 
1220 1221 1222 1223 
1224 1225 1226 1227 
1228 1229 1230 1231 
1232 1233 1234 1235 
1236 1237 1238 1239 
1240 1241 1242 1243 
1244 1245 1246 1247 
1248 1249 1250 1251 
1252 1253 1254 1255 
1256 1257 1258 1259 
1260 1261 1262 1263 
1264 1265 1266 1267 
1268 1269 1270 1271 
1272 1273 1274 1275 
1276 1277 1278 1279 
1280 1281 1282 1283 
1284 1285 1286 1287 
1288 1289 1290 1291 
1292 1293 1294 1295 
1296 1297 1298 1299 
1300 1301 1302 1303 
1304 1305 1306 1307 
1308 1309 1310 1311 
1312 1313 1314 1315 
1316 1317 1318 1319 
1320 1321 1322 1323 
1324 1325 1326 1327 
1328 1329 1330 1331 
1332 1333 1334 1335 
1336 1337 1338 1339 
1340 1341 1342 1343 
1344 1345 1346 1347 
1348 1349 1350 1351 
1352 1353 1354 1355 
1356 1357 1358 1359 
1360 1361 1362 1363 
1364 1365 1366 1367 
1368 1369 1370 1371 
1372 1373 1374 1375 
1376 1377 1378 1379 
1380 1381 1382 1383 
1384 1385 1386 1387 
1388 1389 1390 1391 
1392 1393 1394 1395 
1396 1397 1398 1399 
1400 1401 1402 1403 
1404 1405 1406 1407 
1408 1409 1410 1411 
1412 1413 1414 1415 
1416 1417 1418 1419 
1420 1421 1422 1423 
1424 1425 1426 1427 
1428 1429 1430 1431 
1432 1433 1434 1435 
1436 1437 1438 1439 
1440 1441 1442 1443 
1444 1445 1446 1447 
1448 1449 1450 1451 
1452 1453 1454 1455 
1456 1457 1458 1459 
1460 1461 1462 1463 
1464 1465 1466 1467 
1468 1469 1470 1471 
1472 1473 1474 1475 
1476 1477 1478 1479 
1480 1481 1482 1483 
1484 1485 1486 1487 
1488 1489 1490 1491 
1492 1493 1494 1495 
1496 1497 1498 1499 
1500 1501 1502 1503 
1504 1505 1506 1507 
1508 1509 1510 1511 
1512 1513 1514 1515 
1516 1517 1518 1519 
1520 1521 1522 1523 
1524 1525 1526 1527 
1528 1529 1530 1531 
1532 1533 1534 1535 
1536 1537 1538 1539 
1540 1541 1542 1543 
1544 1545 1546 1547 
1548 1549 1550 1551 
1552 1553 1554 1555 
1556 1557 1558 1559 
1560 1561 1562 1563 
1564 1565 1566 1567 
1568 1569 1570 1571 
1572 1573 1574 1575 
1576 1577 1578 1579 
1580 1581 1582 1583 
1584 1585 1586 1587 
1588 1589 1590 1591 
1592 1593 1594 1595 
1596 1597 1598 1599 
1600 1601 1602 1603 
1604 1605 1606 1607 
1608 1609 1610 1611 
1612 1613 1614 1615 
1616 1617 1618 1619 
1620 1621 1622 1623 
1624 1625 1626 1627 
1628 1629 1630 1631 
1632 1633 1634 1635 
1636 1637 1638 1639 
1640 1641 1642 1643 
1644 1645 1646 1647 
1648 1649 1650 1651 
1652 1653 1654 1655 
1656 1657 1658 1659 
1660 1661 1662 1663 
1664 1665 1666 1667 
1668 1669 1670 1671 
1672 1673 1674 1675 
1676 1677 1678 1679 
1680 1681 1682 1683 
1684 1685 1686 1687 
1688 1689 1690 1691 
1692 1693 1694 1695 
1696 1697 1698 1699 
1700 1701 1702 1703 
1704 1705 1706 1707 
1708 1709 1710 1711 
1712 1713 1714 1715 
1716 1717 1718 1719 
1720 1721 1722 1723 
1724 1725 1726 1727 
1728 1729 1730 1731 
1732 1733 1734 1735 
1736 1737 1738 1739 
1740 1741 1742 1743 
1744 1745 1746 1747 
1748 1749 1750 1751 
1752 1753 1754 1755 
1756 1757 1758 1759 
1760 1761 1762 1763 
1764 1765 1766 1767 
1768 1769 1770 1771 
1772 1773 1774 1775 
1776 1777 1778 1779 
1780 1781 1782 1783 
1784 1785 1786 1787 
1788 1789 1790 1791 
1792 1793 1794 1795 
1796 1797 1798 1799 
1800 1801 1802 1803 
1804 1805 1806 1807 
1808 1809 1810 1811 
1812 1813 1814 1815 
1816 1817 1818 1819 
1820 1821 1822 1823 
1824 1825 1826 1827 
1828 1829 1830 1831 
1832 1833 1834 1835 
1836 1837 1838 1839 
1840 1841 1842 1843 
1844 1845 1846 1847 
1848 1849 1850 1851 
1852 1853 1854 1855 
1856 1857 1858 1859 
1860 1861 1862 1863 
1864 1865 1866 1867 
1868 1869 1870 1871 
1872 1873 1874 1875 
1876 1877 1878 1879 
1880 1881 1882 1883 
1884 1885 1886 1887 
1888 1889 1890 1891 
1892 1893 1894 1895 
1896 1897 1898 1899 
1900 1901 1902 1903 
1904 1905 1906 1907 
1908 1909 1910 1911 
1912 1913 1914 1915 
1916 1917 1918 1919 
1920 1921 1922 1923 
1924 1925 1926 1927 
1928 1929 1930 1931 
1932 1933 1934 1935 
1936 1937 1938 1939 
1940 1941 1942 1943 
1944 1945 1946 1947 
1948 1949 1950 1951 
1952 1953 1954 1955 
1956 1957 1958 1959 
1960 1961 1962 1963 
1964 1965 1966 1967 
1968 1969 1970 1971 
1972 1973 1974 1975 
1976 1977 1978 1979 
1980 1981 1982 1983 
1984 1985 1986 1987 
1988 1989 1990 1991 
1992 1993 1994 1995 
1996 1997 1998 1999 
2000 2001 2002 2003 
2004 2005 2006 2007 
2008 2009 2010 2011 
2012 2013 2014 2015 
2016 2017 2018 2019 
2020 2021 2022 2023 
2024 2025 2026 2027 
2028 2029 2030 2031 
2032 2033 2034 2035 
2036 2037 2038 2039 
2040 2041 2042 2043 
2044 2045 2046 2047 
2048 2049 2050 2051 2052 2053 2054 2055 2056 2057 2058 2059 2060 2061 2062 2063 
2064 2065 2066 2067 2068 2069 2070 2071 2072 2073 2074 2075 2076 2077 2078 2079 
</DataArray>
<DataArray type="Int32" Name="offsets" format="ascii">
4 8 12 16 20 24 28 32 36 40 44 48 52 56 60 64 68 72 76 80 84 88 92 96 100 104 108 112 116 120 124 128 132 136 140 144 148 152 156 160 164 168 172 176 180 184 188 192 196 200 204 208 212 216 220 224 228 232 236 240 244 248 252 256 260 264 268 272 276 280 284 288 292 296 300 304 308 312 316 320 324 328 332 336 340 344 348 352 356 360 364 368 372 376 380 384 388 392 396 400 404 408 412 416 420 424 428 432 436 440 444 448 452 456 460 464 468 472 476 480 484 488 492 496 500 504 508 512 516 520 524 528 532 536 540 544 548 552 556 560 564 568 572 576 580 584 588 592 596 600 604 608 612 616 620 624 628 632 636 640 644 648 652 656 660 664 668 672 676 680 684 688 692 696 700 704 708 712 716 720 724 728 732 736 740 744 748 752 756 760 764 768 772 776 780 784 788 792 796 800 804 808 812 816 820 824 828 832 836 840 844 848 852 856 860 864 868 872 876 880 884 888 892 896 900 904 908 912 916 920 924 928 932 936 940 944 948 952 956 960 964 968 972 976 980 984 988 992 996 1000 1004 1008 1012 1016 1020 1024 1028 1032 1036 1040 1044 1048 1052 1056 1060 1064 1068 1072 1076 1080 1084 1088 1092 1096 1100 1104 1108 1112 1116 1120 1124 1128 1132 1136 1140 1144 1148 1152 1156 1160 1164 1168 1172 1176 1180 1184 1188 1192 1196 1200 1204 1208 1212 1216 1220 1224 1228 1232 1236 1240 1244 1248 1252 1256 1260 1264 1268 1272 1276 1280 1284 1288 1292 1296 1300 1304 1308 1312 1316 1320 1324 1328 1332 1336 1340 1344 1348 1352 1356 1360 1364 1368 1372 1376 1380 1384 1388 1392 1396 1400 1404 1408 1412 1416 1420 1424 1428 1432 1436 1440 1444 1448 1452 1456 1460 1464 1468 1472 1476 1480 1484 1488 1492 1496 1500 1504 1508 1512 1516 1520 1524 1528 1532 1536 1540 1544 1548 1552 1556 1560 1564 1568 1572 1576 1580 1584 1588 1592 1596 1600 1604 1608 1612 1616 1620 1624 1628 1632 1636 1640 1644 1648 1652 1656 1660 1664 1668 1672 1676 1680 1684 1688 1692 1696 1700 1704 1708 1712 1716 1720 1724 1728 1732 1736 1740 1744 1748 1752 1756 1760 1764 1768 1772 1776 1780 1784 1788 1792 1796 1800 1804 1808 1812 1816 1820 1824 1828 1832 1836 1840 1844 1848 1852 1856 1860 1864 1868 1872 1876 1880 1884 1888 1892 1896 1900 1904 1908 1912 1916 1920 1924 1928 1932 1936 1940 1944 1948 1952 1956 1960 1964 1968 1972 1976 1980 1984 1988 1992 1996 2000 2004 2008 2012 2016 2020 2024 2028 2032 2036 2040 2044 2048 2064 2080 
</DataArray>
<DataArray type="UInt8" Name="types" format="ascii">
7 7 7 7 7 7 7 7 7 7 7 7 7 7 7 7 7 7 7 7 7 7 7 7 7 7 7 7 7 7 7 7 7 7 7 7 7 7 7 7 7 7 7 7 7 7 7 7 7 7 7 7 7 7 7 7 7 7 7 7 7 7 7 7 7 7 7 7 7 7 7 7 7 7 7 7 7 7 7 7 7 7 7 7 7 7 7 7 7 7 7 7 7 7 7 7 7 7 7 7 7 7 7 7 7 7 7 7 7 7 7 7 7 7 7 7 7 7 7 7 7 7 7 7 7 7 7 7 7 7 7 7 7 7 7 7 7 7 7 7 7 7 7 7 7 7 7 7 7 7 7 7 7 7 7 7 7 7 7 7 7 7 7 7 7 7 7 7 7 7 7 7 7 7 7 7 7 7 7 7 7 7 7 7 7 7 7 7 7 7 7 7 7 7 7 7 7 7 7 7 7 7 7 7 7 7 7 7 7 7 7 7 7 7 7 7 7 7 7 7 7 7 7 7 7 7 7 7 7 7 7 7 7 7 7 7 7 7 7 7 7 7 7 7 7 7 7 7 7 7 7 7 7 7 7 7 7 7 7 7 7 7 7 7 7 7 7 7 7 7 7 7 7 7 7 7 7 7 7 7 7 7 7 7 7 7 7 7 7 7 7 7 7 7 7 7 7 7 7 7 7 7 7 7 7 7 7 7 7 7 7 7 7 7 7 7 7 7 7 7 7 7 7 7 7 7 7 7 7 7 7 7 7 7 7 7 7 7 7 7 7 7 7 7 7 7 7 7 7 7 7 7 7 7 7 7 7 7 7 7 7 7 7 7 7 7 7 7 7 7 7 7 7 7 7 7 7 7 7 7 7 7 7 7 7 7 7 7 7 7 7 7 7 7 7 7 7 7 7 7 7 7 7 7 7 7 7 7 7 7 7 7 7 7 7 7 7 7 7 7 7 7 7 7 7 7 7 7 7 7 7 7 7 7 7 7 7 7 7 7 7 7 7 7 7 7 7 7 7 7 7 7 7 7 7 7 7 7 7 7 7 7 7 7 7 7 7 7 7 7 7 7 7 7 7 7 7 7 7 7 7 7 7 7 7 7 7 7 7 7 7 7 7 7 7 7 7 7 7 7 7 7 7 7 7 7 7 7 7 7 7 7 7 7 
</DataArray>
</Cells>
<CellData Scalars="cell variable 4" Vectors="cell vector">
<DataArray type="Float64" NumberOfComponents="3" Name="cell vector" format="ascii">
0.27426 0.96005 0.0555441
0.230972 0.963154 0.13779
0.170872 0.968032 0.18362
0.107341 0.973405 0.202385
0.0467762 0.978359 0.201557
-0.0197845 0.983603 0.179256
-0.0827631 0.988685 0.125106
-0.120463 0.991771 0.0433471
-0.11959 0.991674 -0.0477689
-0.083552 0.988751 -0.124057
-0.0228702 0.983855 -0.177502
0.0476238 0.978231 -0.201979
0.108508 0.973298 -0.202278
0.168273 0.968152 -0.185381
0.230414 0.963146 -0.138778
0.27502 0.960031 -0.0520142
-0.192852 0.0272939 0.980848
-0.550759 0.0690896 0.8318
0.82649 -0.0901062 -0.555694
0.976944 -0.0884292 -0.194323
0.977915 -0.0715192 0.196383
0.829269 -0.0519568 0.556429
0.554209 -0.0331155 0.831719
0.19464 -0.0126107 0.980794
-0.194655 0.0101555 0.980819
-0.554104 0.0342253 0.831744
0.829154 -0.054396 -0.556368
0.977924 -0.0717297 -0.196266
0.976932 -0.0882809 0.19445
0.826262 -0.0916696 0.555776
0.550654 -0.0701583 0.83178
0.193188 -0.0256346 0.980827
-0.19354 0.0286325 0.980674
-0.552527 0.073017 0.83029
0.827776 -0.0968477 -0.552637
0.976595 -0.098565 -0.191172
0.976426 -0.0853092 0.19828
0.827807 -0.0660699 0.557108
0.553281 -0.0435676 0.831855
0.194282 -0.0167192 0.980803
-0.194412 0.0135149 0.980827
-0.553181 0.0439354 0.831902
0.827626 -0.0685807 -0.557075
0.976381 -0.0861752 -0.198124
0.976502 -0.0991228 0.19136
0.827504 -0.0983789 0.552773
0.552448 -0.0738901 0.830266
0.194037 -0.0267938 0.980628
-0.192391 0.0394129 0.980527
-0.549524 0.104644 0.828898
0.82336 -0.142484 -0.549343
0.970989 -0.149418 -0.186696
0.970009 -0.134576 0.202415
0.82168 -0.106975 0.55982
0.548758 -0.0702522 0.833024
0.192493 -0.0256617 0.980963
-0.192858 0.0232476 0.980951
-0.548689 0.0701933 0.833074
0.821434 -0.10863 -0.559863
0.969864 -0.135786 -0.202303
0.970812 -0.150348 0.186865
0.823085 -0.143399 0.549515
0.549427 -0.105127 0.828902
0.192919 -0.0382275 0.98047
-0.18881 0.055536 0.980442
-0.539405 0.15313 0.828005
0.80798 -0.218691 -0.547122
0.952188 -0.244017 -0.18383
0.950601 -0.233364 0.204691
0.804988 -0.193109 0.560984
0.537588 -0.128217 0.833402
0.188543 -0.0454964 0.981011
-0.189005 0.0442975 0.980976
-0.537584 0.128016 0.833436
0.804782 -0.193765 -0.561054
0.950344 -0.234462 -0.20463
0.951909 -0.245 0.183968
0.807679 -0.21925 0.547342
0.539331 -0.153161 0.828048
0.189383 -0.0547071 0.980378
-0.182359 0.0739304 0.980449
-0.520974 0.207711 0.827914
0.780354 -0.303695 -0.546641
0.919551 -0.347687 -0.183141
0.918024 -0.339349 0.20512
0.777613 -0.283789 0.561054
0.519549 -0.188671 0.83335
0.182318 -0.0663143 0.981001
-0.182684 0.065919 0.980959
-0.519593 0.188488 0.833364
0.777513 -0.283941 -0.561116
0.917765 -0.340075 -0.205078
0.919231 -0.348466 0.183267
0.780074 -0.303967 0.54689
0.520905 -0.20763 0.827978
0.182892 -0.073472 0.980384
-0.173582 0.0923309 0.980482
-0.49563 0.262046 0.82806
0.742221 -0.387711 -0.546615
0.874586 -0.449065 -0.182868
0.873241 -0.441905 0.205351
0.739998 -0.370892 0.561109
0.494693 -0.246689 0.83332
0.173725 -0.0864433 0.980993
-0.173907 0.0865772 0.980949
-0.494737 0.2466 0.833321
0.740014 -0.370786 -0.561156
0.873063 -0.442279 -0.205306
0.874318 -0.449532 0.183
0.742017 -0.387726 0.546882
0.495556 -0.261948 0.828135
0.174002 -0.0922137 0.980418
-0.162757 0.109964 0.980519
-0.464124 0.313996 0.828248
0.694545 -0.467694 -0.54669
0.818235 -0.545084 -0.18269
0.816898 -0.538909 0.205559
0.692808 -0.452891 0.561166
0.463452 -0.301379 0.833296
0.162792 -0.105653 0.980987
-0.162746 0.106136 0.980943
-0.463464 0.301385 0.833288
0.69294 -0.452647 -0.5612
0.816844 -0.539012 -0.205503
0.818087 -0.545257 0.182837
0.69446 -0.467495 0.546967
0.46404 -0.313909 0.828329
0.163013 -0.110125 0.980459
-0.1499 0.126593 0.980563
-0.427331 0.361831 0.828533
0.638677 -0.541232 -0.546955
0.751436 -0.634028 -0.182623
0.749459 -0.629244 0.205825
0.635484 -0.530112 0.561374
0.425289 -0.353009 0.833375
0.149465 -0.123718 0.980997
-0.149174 0.124416 0.980953
-0.425277 0.35306 0.83336
0.635734 -0.529791 -0.561395
0.749545 -0.629163 -0.205755
0.751437 -0.633981 0.182785
0.638736 -0.540878 0.547236
0.427246 -0.361745 0.828614
0.149965 -0.12695 0.980507
-0.134919 0.142144 0.980608
-0.384282 0.406553 0.82888
-0.574193 0.60884 0.547372
-0.675442 0.714434 0.182653
-0.673507 0.709858 -0.206128
-0.571055 0.598625 -0.561733
0.38227 -0.39881 0.833559
0.134479 -0.13971 0.981018
-0.133936 0.140527 0.980976
-0.382219 0.398903 0.833538
-0.571408 0.598281 0.56174
-0.673724 0.709676 0.206048
-0.675588 0.714252 -0.182825
-0.574391 0.608407 -0.547647
0.384178 -0.406487 0.82896
0.134784 -0.142619 0.980558
-0.117995 0.156304 0.980636
-0.33545 0.447321 0.829082
-0.501773 0.669599 0.547596
-0.591157 0.785607 0.182632
-0.590214 0.780428 -0.206347
-0.500874 0.658303 -0.561928
0.335476 -0.43875 0.833639
0.118212 -0.153663 0.981027
-0.117432 0.154509 0.980988
-0.335375 0.438876 0.833614
-0.50132 0.657968 0.561922
-0.590545 0.780202 0.206258
-0.591432 0.78536 -0.182806
-0.502099 0.66914 -0.547858
0.335315 -0.447276 0.829161
0.117663 -0.156824 0.980593
-0.0995768 0.168581 0.980645
-0.283243 0.481941 0.82916
-0.423903 0.721365 0.547667
-0.499432 0.846895 0.182585
-0.498831 0.84175 -0.206457
-0.422974 0.710822 -0.561984
0.283395 -0.474055 0.833642
0.100192 -0.165991 0.981024
-0.099212 0.16679 0.980988
-0.283272 0.474183 0.833611
-0.423511 0.710516 0.561965
-0.499259 0.841519 0.206364
-0.499818 0.84663 -0.182754
-0.424343 0.720924 -0.547906
0.283094 -0.481898 0.829236
0.0990697 -0.169079 0.980611
-0.0800323 0.17866 0.98065
-0.227607 0.510453 0.829236
-0.340703 0.764115 0.547767
-0.401349 0.897542 0.182583
-0.400823 0.89257 -0.206541
-0.339736 0.754092 -0.562072
0.227734 -0.503109 0.833678
0.080732 -0.176273 0.981025
-0.0795924 0.176973 0.980992
-0.227586 0.503235 0.833642
-0.340345 0.753839 0.562042
-0.401333 0.892363 0.206448
-0.40183 0.897295 -0.182739
-0.341238 0.763726 -0.547978
0.227447 -0.510409 0.829308
0.0793812 -0.179085 0.980626
-0.0595572 0.186448 0.980658
-0.169157 0.532547 0.829325
-0.253156 0.797325 0.547891
-0.298142 0.936892 0.182605
-0.29772 0.932023 -0.20663
-0.252298 0.787588 -0.562183
0.169275 -0.525582 0.833732
0.0602442 -0.18426 0.981029
-0.0589919 0.184824 0.981
-0.169095 0.525704 0.833692
-0.252949 0.787408 0.562143
-0.298298 0.931858 0.206542
-0.298709 0.936685 -0.182741
-0.253766 0.797011 -0.548066
0.16899 -0.532497 0.829391
0.0587902 -0.186762 0.980645
-0.0383678 0.191878 0.980669
-0.108587 0.547962 0.829426
-0.162377 0.820547 0.548029
-0.191171 0.964415 0.182638
-0.190923 0.95959 -0.206724
-0.161807 0.810941 -0.562311
0.108771 -0.541245 0.8338
0.0390006 -0.189862 0.981036
-0.0376762 0.190266 0.981009
-0.108548 0.541358 0.833756
-0.162467 0.810842 0.562263
-0.191561 0.959481 0.206642
-0.191816 0.964266 -0.182753
-0.163049 0.820323 -0.548166
0.108425 -0.547904 0.829485
0.0375041 -0.19206 0.980666
-0.0166775 0.194899 0.980682
-0.0465952 0.556509 0.829534
-0.0695179 0.833469 0.548176
-0.081859 0.979759 0.182677
-0.0818783 0.974947 -0.206819
-0.0694396 0.823911 -0.56245
0.0470073 -0.549944 0.833878
0.0173053 -0.193013 0.981044
-0.0159065 0.193245 0.981022
-0.0467415 0.550035 0.833832
-0.0701166 0.823892 0.562393
-0.0825656 0.974906 0.206741
-0.0825596 0.979683 -0.182773
-0.070252 0.833342 -0.548275
0.0464557 -0.556443 0.829586
0.0157244 -0.194941 0.980689
0.00531922 0.195477 0.980694
0.0161263 0.558076 0.829633
0.0242929 0.835923 0.548309
0.0283944 0.982755 0.182717
0.0279334 0.977962 -0.206906
0.0234911 0.826407 -0.562582
-0.0151195 -0.551628 0.833953
-0.00453414 -0.1937 0.98105
0.00595743 0.193741 0.981035
0.0154006 0.551689 0.833908
0.0228042 0.826472 0.562516
0.0272341 0.977998 0.206828
0.0276853 0.982761 -0.182796
0.0235499 0.835901 -0.548375
-0.0162556 -0.558006 0.829677
-0.00628333 -0.195372 0.980709
0.0272902 0.193594 0.980702
0.07867 0.552627 0.829708
0.117816 0.827867 0.548413
0.138269 0.973388 0.182752
0.137299 0.968665 -0.206969
0.116013 0.81849 -0.562686
-0.0769773 -0.546348 0.834014
-0.0263032 -0.191933 0.981056
0.0276804 0.19179 0.981046
0.0772421 0.546379 0.833968
0.115331 0.818637 0.562612
0.136631 0.968775 0.206896
0.137603 0.973471 -0.18281
0.117133 0.827944 -0.548442
-0.0788081 -0.552553 0.829743
-0.0281673 -0.193347 0.980726
0.048865 0.18928 0.980707
0.140117 0.540241 0.829763
0.209798 0.809405 0.548497
0.246425 0.951768 0.18279
0.245018 0.947161 -0.207009
0.207179 0.800232 -0.562766
-0.137919 -0.534149 0.834064
-0.0477421 -0.187727 0.98106
0.049069 0.187413 0.981055
0.138158 0.534159 0.834019
0.206491 0.800466 0.562687
0.2444 0.947334 0.206945
0.245834 0.951915 -0.182821
0.209185 0.809572 -0.548484
-0.140249 -0.540164 0.829791
-0.0496327 -0.188902 0.980741
0.0697809 0.182594 0.980709
0.199719 0.521089 0.829806
0.299093 0.780778 0.54857
0.351495 0.918163 0.182833
0.34969 0.913704 -0.20703
0.295723 0.771859 -0.562833
-0.197067 -0.51519 0.834112
-0.0685559 -0.18114 0.981065
0.0698086 0.180666 0.981064
0.197286 0.515183 0.834065
0.295049 0.772179 0.562749
0.349128 0.913931 0.206979
0.350987 0.918357 -0.182835
0.298554 0.781024 -0.548513
-0.199832 -0.521015 0.829826
-0.0704308 -0.182103 0.980754
0.0897726 0.173644 0.980708
0.25671 0.495462 0.82983
0.384543 0.742388 0.548623
0.452121 0.873007 0.18288
0.449979 0.868709 -0.207032
0.380529 0.733729 -0.562885
-0.253705 -0.489715 0.834154
-0.0885092 -0.172251 0.981069
0.089643 0.171642 0.981072
0.253909 0.489693 0.834105
0.379904 0.734122 0.562795
0.449484 0.868975 0.206994
0.451698 0.873232 -0.182853
0.384089 0.742695 -0.548525
-0.256799 -0.495396 0.829842
-0.0902899 -0.173065 0.980763
0.108579 0.162582 0.980703
0.310333 0.463776 0.829822
0.465023 0.694797 0.548645
0.547014 0.816892 0.182928
0.54465 0.812714 -0.207008
0.4606 0.68628 -0.56291
-0.307185 -0.458011 0.834184
-0.107374 -0.161152 0.981071
0.108346 0.160449 0.98108
0.307375 0.457975 0.834134
0.460055 0.686723 0.562815
0.544236 0.812998 0.20698
0.546682 0.817126 -0.182876
0.464666 0.695143 -0.548509
-0.3104 -0.463725 0.829826
-0.108948 -0.161949 0.980766
0.125952 0.149617 0.980689
0.359875 0.426585 0.829768
0.539474 0.638732 0.548625
0.634975 0.750549 0.182984
0.632561 0.746352 -0.206945
0.535015 0.63 -0.562902
-0.356908 -0.420391 0.834199
-0.124936 -0.147947 0.981072
0.12571 0.147203 0.981085
0.357082 0.420344 0.834148
0.534575 0.630464 0.562801
0.632245 0.746624 0.206926
0.63474 0.750766 -0.182908
0.539224 0.63909 -0.548454
-0.359924 -0.426552 0.829764
-0.126161 -0.148967 0.980761
0.141664 0.135013 0.980665
0.404685 0.384586 0.829653
0.606931 0.575085 0.548555
0.714904 0.674836 0.183056
0.712656 0.670331 -0.206829
0.602913 0.565416 -0.562851
-0.402301 -0.377185 0.834197
-0.140988 -0.132746 0.981071
0.141541 0.132026 0.981089
0.402459 0.377131 0.834145
0.602593 0.565862 0.562745
0.712452 0.670551 0.206818
0.71477 0.675003 -0.18296
0.606789 0.575428 -0.548352
-0.404725 -0.38457 0.829641
-0.141711 -0.134386 0.980744
0.155521 0.119097 0.980627
0.444197 0.338631 0.829468
0.666529 0.50493 0.548439
0.785785 0.590756 0.183165
0.783934 0.585445 -0.206642
0.66345 0.493096 -0.562752
-0.442801 -0.328745 0.834179
-0.155326 -0.115659 0.981069
0.155646 0.115047 0.98109
0.442948 0.328683 0.834125
0.663265 0.493471 0.562642
0.783847 0.585562 0.206641
0.785745 0.590845 -0.18305
0.666485 0.505236 -0.548209
-0.444238 -0.338624 0.82945
-0.155416 -0.118525 0.980713
0.16735 0.102276 0.980578
0.4779 0.289798 0.829234
0.717451 0.429654 0.548327
0.846625 0.499601 0.183371
0.845383 0.492694 -0.20635
0.715758 0.413735 -0.562596
-0.477818 -0.275485 0.834145
-0.167741 -0.0968106 0.981066
0.167826 0.0964174 0.98109
0.477971 0.275394 0.834088
0.715722 0.413953 0.562481
0.845402 0.492657 0.20636
0.846649 0.499611 -0.183234
0.717488 0.429911 -0.548076
-0.477955 -0.289774 0.82921
-0.167118 -0.101777 0.98067
0.176928 0.0851558 0.980533
0.50516 0.23975 0.829056
0.758714 0.351559 0.548416
0.896245 0.403651 0.183876
0.895824 0.393877 -0.205818
0.758829 0.328579 -0.56233
-0.506686 -0.218115 0.834083
-0.178 -0.0763908 0.981061
0.177858 0.0763881 0.981087
0.50688 0.217914 0.834018
0.758959 0.328482 0.56221
0.8959 0.393685 0.205852
0.896273 0.403665 -0.183713
0.758808 0.351756 -0.548159
-0.50525 -0.239642 0.829032
-0.176615 -0.0847182 0.980627
0.183798 0.0691052 0.980532
0.524794 0.192292 0.829226
0.788654 0.276226 0.549294
0.932817 0.30902 0.185363
0.93359 0.294247 -0.204522
0.791288 0.241646 -0.561667
-0.528539 -0.158994 0.833887
-0.185807 -0.0550597 0.981042
0.185483 0.055703 0.981067
0.528812 0.158476 0.833813
0.791586 0.240945 0.561548
0.933608 0.29414 0.204592
0.932773 0.309261 -0.185179
0.788759 0.276374 -0.549068
-0.524952 -0.191913 0.829214
-0.183517 -0.0686106 0.980619
0.186616 0.0595322 0.980628
0.533213 0.16256 0.830216
0.80257 0.225885 0.552139
0.952203 0.239775 0.189255
0.955782 0.214064 -0.201635
0.81129 0.166361 -0.560476
-0.54222 -0.105371 0.833603
-0.190605 -0.0358629 0.981012
0.190401 0.035868 0.981051
0.542514 0.104422 0.833531
0.811533 0.165701 0.560319
0.95557 0.214951 0.201697
0.951949 0.240897 -0.189108
0.802541 0.226228 -0.552041
-0.533605 -0.161141 0.83024
-0.186685 -0.0583044 0.980688
0.188026 0.0439267 0.981181
0.53917 0.116961 0.834036
0.815043 0.155027 0.558276
0.969505 0.15106 0.192981
0.971996 0.119266 -0.202481
0.822388 0.0832686 -0.562801
-0.548197 -0.04954 0.834881
-0.192366 -0.015643 0.981199
0.192137 0.0145786 0.98126
0.548197 0.0463019 0.835066
0.822498 0.0826277 0.562735
0.971714 0.122345 0.201997
0.969001 0.153784 -0.19336
0.815075 0.154998 -0.558236
-0.539867 -0.11492 0.833869
-0.188385 -0.0426094 0.98117
0.188935 0.0379926 0.981254
0.54378 0.0965628 0.833654
0.821859 0.124919 0.555827
0.974778 0.120199 0.188045
0.973522 0.0944281 -0.208177
0.820958 0.0638223 -0.56741
-0.546019 -0.0381986 0.836901
-0.191586 -0.0147098 0.981366
0.190781 0.00861898 0.981595
0.545839 0.0356846 0.83713
0.821167 0.0666945 0.566777
0.973321 0.0986372 0.207164
0.974146 0.123859 -0.188942
0.821269 0.126865 -0.556258
-0.544219 -0.0953687 0.833505
-0.190541 -0.0341078 0.981087
0.0751636 0.224554 0.971558
0.209782 0.554895 0.805036
-0.456821 0.861326 0.222333
-0.469217 0.832927 0.293372
-0.354582 0.843721 0.402998
-0.156868 0.882803 0.442777
0.0569467 0.931614 0.358961
0.207442 0.969662 0.129321
0.200789 0.966216 -0.161587
0.0517171 0.928835 -0.366866
-0.152007 0.884914 -0.44025
-0.335315 0.852365 -0.401294
-0.438172 0.846159 -0.303348
-0.385725 0.880586 -0.27529
-0.190401 -0.574404 0.79612
-0.159176 -0.0863805 0.983464
0.0254267 -0.00191454 0.999675
5.3769e-09 7.55673e-10 1
</DataArray>
<DataArray type="Float64" Name="cell vector length" format="ascii">
0.362668 0.372377 0.391119 0.399399 0.400834 0.397095 0.390494 0.383915 0.382214 0.385408 0.396921 0.400778 0.399351 0.391427 0.377828 0.364532 0.397475 0.386874 0.361937 0.3498 0.347654 0.351064 0.358114 0.366932 0.371359 0.368329 0.353071 0.347736 0.349824 0.359897 0.376748 0.393065 0.514218 0.49734 0.463833 0.442077 0.43152 0.428645 0.431209 0.437613 0.441727 0.441105 0.430623 0.431836 0.441915 0.461933 0.488476 0.510529 0.570617 0.54622 0.502378 0.468607 0.447775 0.437667 0.435064 0.437994 0.441225 0.443712 0.439874 0.448445 0.468304 0.500714 0.538934 0.567524 0.597173 0.567568 0.515488 0.472109 0.443729 0.429079 0.423833 0.425137 0.427908 0.431714 0.431015 0.444541 0.471812 0.513985 0.561212 0.594579 0.605478 0.572755 0.51654 0.470222 0.441759 0.428852 0.425234 0.427055 0.429462 0.432351 0.430393 0.442492 0.469986 0.515252 0.566967 0.603167 0.609072 0.574571 0.516061 0.468293 0.440306 0.429007 0.426799 0.429093 0.431232 0.433281 0.430204 0.440887 0.468111 0.515004 0.569295 0.606996 0.61115 0.575865 0.516128 0.467401 0.439502 0.429186 0.428274 0.430773 0.432678 0.434159 0.430106 0.43993 0.467256 0.515282 0.571099 0.609297 0.612439 0.577032 0.518507 0.469783 0.44186 0.431589 0.429512 0.43183 0.433505 0.434787 0.432286 0.442157 0.469665 0.517842 0.572785 0.610804 0.613208 0.578753 0.525994 0.479942 0.452487 0.439937 0.431374 0.432194 0.433646 0.435999 0.440442 0.452678 0.479845 0.525498 0.57507 0.611794 0.614117 0.579923 0.528346 0.482217 0.454358 0.441501 0.432161 0.432645 0.43387 0.436129 0.441872 0.454474 0.482135 0.527972 0.576819 0.612941 0.615187 0.581127 0.528966 0.482058 0.453607 0.440821 0.432836 0.43308 0.434065 0.436086 0.441076 0.453667 0.481989 0.528695 0.578621 0.614255 0.6163 0.582158 0.529414 0.481714 0.452827 0.440173 0.433206 0.433222 0.433958 0.435692 0.440322 0.452846 0.481656 0.529232 0.580264 0.615611 0.617429 0.583133 0.529891 0.481513 0.452207 0.439556 0.433442 0.433082 0.43357 0.435144 0.439614 0.4522 0.481465 0.529783 0.581847 0.616976 0.618559 0.584088 0.530416 0.481455 0.451722 0.438953 0.433526 0.432681 0.432937 0.434468 0.438944 0.451705 0.481414 0.530364 0.583371 0.618319 0.619682 0.584993 0.530895 0.4814 0.45125 0.438274 0.433334 0.431997 0.432074 0.433656 0.438237 0.45123 0.481371 0.530882 0.584744 0.619608 0.620782 0.585689 0.53096 0.480809 0.450227 0.437053 0.432567 0.430969 0.430951 0.432473 0.437045 0.450206 0.480807 0.530971 0.585788 0.620818 0.621805 0.585927 0.530067 0.47888 0.447768 0.434641 0.431115 0.429623 0.429464 0.430489 0.434628 0.447743 0.478893 0.530111 0.58644 0.621984 0.622781 0.585934 0.528755 0.476427 0.444769 0.43179 0.429487 0.428148 0.427774 0.428141 0.431725 0.444733 0.476443 0.528846 0.586974 0.623153 0.623706 0.58585 0.527378 0.473981 0.441809 0.42894 0.427827 0.426577 0.425956 0.425686 0.428788 0.441746 0.473996 0.527531 0.587473 0.624299 0.62456 0.585744 0.526123 0.471806 0.439144 0.42626 0.426163 0.424925 0.424049 0.423223 0.426002 0.439037 0.471819 0.52635 0.587955 0.625381 0.625291 0.585644 0.52511 0.470067 0.436917 0.423839 0.424504 0.423181 0.422052 0.420794 0.423464 0.436753 0.47008 0.52542 0.588419 0.626334 0.625808 0.585548 0.524433 0.468895 0.435231 0.421727 0.422831 0.421303 0.419929 0.418401 0.421226 0.435 0.46891 0.524833 0.588843 0.627058 0.625953 0.585413 0.524178 0.468417 0.434175 0.419945 0.421102 0.419212 0.417601 0.416002 0.419309 0.433874 0.468444 0.524672 0.589175 0.627391 0.625419 0.585092 0.524386 0.468759 0.433833 0.418493 0.419234 0.41678 0.414937 0.413509 0.417708 0.433466 0.468809 0.524977 0.589263 0.627023 0.623419 0.584027 0.524815 0.469889 0.434205 0.417302 0.417091 0.413818 0.411731 0.410758 0.416353 0.433793 0.469982 0.525498 0.58855 0.62517 0.617352 0.579887 0.523686 0.470652 0.434548 0.415829 0.414216 0.409869 0.407488 0.407242 0.414724 0.434161 0.47079 0.524421 0.584734 0.619243 0.596993 0.562311 0.510972 0.462214 0.427689 0.408435 0.406362 0.401148 0.398349 0.39854 0.407342 0.427484 0.462353 0.511661 0.567613 0.599082 0.510816 0.474856 0.422434 0.372816 0.337677 0.318523 0.318174 0.312894 0.309512 0.309016 0.317603 0.337771 0.372869 0.423034 0.481665 0.513502 0.436909 0.401992 0.352579 0.307015 0.274292 0.254924 0.255013 0.249051 0.245279 0.2455 0.255102 0.274736 0.306604 0.35271 0.409519 0.439707 0.433195 0.410322 0.378738 0.350169 0.329788 0.317307 0.317915 0.31373 0.311424 0.311595 0.31786 0.330044 0.349448 0.378011 0.41563 0.434983 0.0310392 0.0148287 0.0297038 0.0748748 0.110395 0.131194 0.133368 0.13044 0.12936 0.131977 0.126024 0.107181 0.0725534 0.032915 0.0132682 0.0263004 0.0112826 9.92986e-08 
</DataArray>
<DataArray type="Float64" Name="cell variable 4" format="ascii">
696.897 700.206 702.865 705.128 705.487 704.184 702.64 702.023 702.418 703.541 704.04 705.303 705.238 703.037 699.393 696.537 1241.5 1233.72 1199.92 1188.46 1181.13 1177.4 1178.75 1186.66 1191.53 1194.06 1176.47 1180.86 1188.64 1200.68 1217.56 1236.24 1569.23 1541.66 1463.54 1419.98 1384.81 1359.38 1347.78 1353.19 1360.93 1371.67 1358.27 1384.31 1420.16 1464.36 1514.52 1560.09 1784 1728.65 1603.1 1514.72 1441.87 1388.37 1358.64 1354.97 1362.78 1382.12 1387.84 1441.41 1514.69 1603.09 1697.03 1773.1 1897.27 1821.48 1662.86 1541.83 1441.39 1367.9 1325.53 1315.33 1322.72 1348 1367.53 1441.01 1541.54 1662.35 1788.14 1885.78 1925.6 1842.47 1675.32 1547.5 1443.51 1368.59 1325.57 1314.69 1321.73 1347.28 1368.21 1443.15 1547.06 1674.51 1809.51 1914.3 1932.32 1846.75 1678.59 1549.53 1445.22 1370.32 1327.03 1315.41 1322.04 1347.73 1369.93 1444.86 1549 1677.66 1815.1 1921.59 1933.98 1847.72 1681.07 1552.02 1447.61 1372.41 1329.09 1316.27 1322.41 1348.53 1372 1447.22 1551.47 1680.13 1817.95 1924.04 1934.74 1847.09 1690.43 1562 1457.46 1381.16 1331.15 1317.2 1322.75 1349.02 1380.74 1457.05 1561.44 1689.55 1819.7 1925.74 1935.43 1844.74 1703.7 1575.11 1470.7 1393.83 1332.26 1318.19 1323.09 1348.28 1393.43 1470.29 1574.57 1702.91 1820.2 1927.51 1935.58 1844.13 1711.94 1584.14 1479.49 1401.31 1334.75 1319.13 1323.32 1348.69 1400.94 1479.11 1583.65 1711.25 1822.85 1928.85 1935.26 1844.26 1712.44 1584.99 1480.14 1401.54 1337.62 1320.05 1323.49 1349.24 1401.21 1479.79 1584.55 1711.85 1826.57 1929.79 1934.74 1843.82 1711.93 1584.56 1479.86 1401.45 1340.21 1320.95 1323.6 1349.3 1401.19 1479.58 1584.19 1711.45 1829.95 1930.54 1934.15 1843.2 1711.2 1583.89 1479.43 1401.25 1342.87 1321.82 1323.69 1349.33 1401.06 1479.22 1583.61 1710.82 1833.3 1931.2 1933.55 1842.45 1710.31 1583.09 1478.9 1400.98 1345.46 1322.63 1323.76 1349.33 1400.87 1478.77 1582.89 1710.02 1836.46 1931.77 1932.82 1841.33 1708.93 1581.83 1478 1400.46 1347.6 1323.28 1323.74 1349.16 1400.43 1477.94 1581.74 1708.79 1838.9 1932.1 1931.79 1839.25 1706.17 1579.02 1475.65 1398.82 1348.76 1323.66 1323.52 1348.3 1398.83 1475.67 1579.05 1706.23 1840.06 1932.05 1930.33 1835.87 1701.58 1574.17 1471.33 1395.54 1349.04 1323.79 1323.04 1346.43 1395.62 1471.42 1574.31 1701.81 1840.08 1931.61 1928.44 1831.52 1695.75 1568.02 1465.74 1391.15 1348.92 1323.76 1322.31 1343.83 1391.32 1465.91 1568.24 1696.08 1839.51 1930.85 1926.26 1826.84 1689.75 1561.84 1460.13 1386.65 1348.73 1323.68 1321.45 1341.05 1386.91 1460.38 1562.15 1690.16 1838.77 1929.87 1923.88 1822.16 1684.11 1556.22 1455 1382.4 1348.51 1323.53 1320.53 1338.28 1382.74 1455.33 1556.6 1684.6 1837.95 1928.73 1921.32 1817.68 1679.12 1551.42 1450.57 1378.56 1348.22 1323.31 1319.55 1335.6 1378.96 1450.96 1551.87 1679.69 1837.11 1927.39 1918.56 1813.54 1674.96 1547.56 1446.91 1375.18 1347.87 1322.99 1318.5 1333.05 1375.63 1447.35 1548.06 1675.59 1836.27 1925.79 1915.45 1809.71 1671.63 1544.63 1443.98 1372.26 1347.41 1322.54 1317.37 1330.65 1372.75 1444.47 1545.18 1672.34 1835.35 1923.74 1911.31 1805.74 1668.86 1542.42 1441.65 1369.7 1346.8 1321.92 1316.14 1328.37 1370.22 1442.17 1543 1669.61 1833.83 1920.53 1903.04 1799.24 1665.05 1539.96 1439.34 1367.21 1345.89 1321.02 1314.71 1326.05 1367.76 1439.9 1540.56 1665.77 1829.24 1913.01 1877.71 1779.42 1652.42 1532.29 1434.1 1363.08 1343.61 1319.07 1312.29 1322.68 1363.69 1434.73 1532.82 1652.98 1810.49 1888.11 1785.33 1700.99 1593.1 1490.21 1404.79 1342.03 1328.55 1306.3 1299.3 1306.98 1342.97 1405.49 1490.55 1593.21 1731.1 1795.32 1456.45 1392.82 1313.31 1240.25 1182.88 1143.09 1139.87 1126.16 1120.72 1123.08 1144.13 1183.48 1240.31 1313.07 1416.54 1464.47 1237.98 1194.51 1142.67 1096.48 1060.81 1035.54 1039.48 1029.9 1025.44 1024.72 1037.1 1061.24 1096.29 1141.68 1213.73 1244.3 1165.17 1144.24 1123.14 1105.69 1093.23 1083.88 1094.03 1090.01 1086.68 1082.23 1085.39 1093.46 1105.44 1121.84 1158.47 1169.62 629.089 624.683 635.466 659.387 680.814 697.897 710.753 712.814 708.989 703.144 694.052 679.712 658.742 638.158 630.369 630.355 532.21 787.019 
</DataArray>
<DataArray type="Float64" Name="cell variable 5" format="ascii">
0.45 0.45 0.45 0.45 0.45 0.45 0.45 0.45 0.45 0.45 0.45 0.45 0.45 0.45 0.45 0.45 0.45 0.45 0.45 0.45 0.45 0.45 0.45 0.45 0.45 0.45 0.45 0.45 0.45 0.45 0.45 0.45 0.45 0.45 0.45 0.45 0.45 0.45 0.45 0.45 0.45 0.45 0.45 0.45 0.45 0.45 0.45 0.45 0.6801 0.6296 0.5481 0.4704 0.45 0.45 0.45 0.45 0.45 0.45 0.45 0.45 0.4704 0.5481 0.6296 0.6801 0.7695 0.6994 0.5862 0.4783 0.45 0.45 0.45 0.45 0.45 0.45 0.45 0.45 0.4783 0.5862 0.6994 0.7695 0.8213 0.7399 0.6083 0.4829 0.45 0.45 0.45 0.45 0.45 0.45 0.45 0.45 0.4829 0.6083 0.7399 0.8213 0.859 0.7692 0.6244 0.4863 0.45 0.45 0.45 0.45 0.45 0.45 0.45 0.45 0.4863 0.6244 0.7692 0.859 0.8884 0.7922 0.6369 0.4889 0.45 0.45 0.45 0.45 0.45 0.45 0.45 0.45 0.4889 0.6369 0.7922 0.8884 0.9121 0.8107 0.647 0.491 0.45 0.45 0.45 0.45 0.45 0.45 0.45 0.45 0.491 0.647 0.8107 0.9121 0.9315 0.8258 0.6553 0.4927 0.45 0.45 0.45 0.45 0.45 0.45 0.45 0.45 0.4927 0.6553 0.8258 0.9315 0.9472 0.8381 0.662 0.4941 0.45 0.45 0.45 0.45 0.45 0.45 0.45 0.45 0.4941 0.662 0.8381 0.9472 0.9598 0.848 0.6674 0.4952 0.45 0.45 0.45 0.45 0.45 0.45 0.45 0.45 0.4952 0.6674 0.848 0.9598 0.9696 0.8556 0.6715 0.4961 0.45 0.45 0.45 0.45 0.45 0.45 0.45 0.45 0.4961 0.6715 0.8556 0.9696 0.9768 0.8612 0.6746 0.4967 0.45 0.45 0.45 0.45 0.45 0.45 0.45 0.45 0.4967 0.6746 0.8612 0.9768 0.9816 0.8649 0.6766 0.4972 0.45 0.45 0.45 0.45 0.45 0.45 0.45 0.45 0.4972 0.6766 0.8649 0.9816 0.9839 0.8668 0.6776 0.4974 0.45 0.45 0.45 0.45 0.45 0.45 0.45 0.45 0.4974 0.6776 0.8668 0.9839 0.9839 0.8668 0.6776 0.4974 0.45 0.45 0.45 0.45 0.45 0.45 0.45 0.45 0.4974 0.6776 0.8668 0.9839 0.9816 0.8649 0.6766 0.4972 0.45 0.45 0.45 0.45 0.45 0.45 0.45 0.45 0.4972 0.6766 0.8649 0.9816 0.9768 0.8612 0.6746 0.4967 0.45 0.45 0.45 0.45 0.45 0.45 0.45 0.45 0.4967 0.6746 0.8612 0.9768 0.9696 0.8556 0.6715 0.4961 0.45 0.45 0.45 0.45 0.45 0.45 0.45 0.45 0.4961 0.6715 0.8556 0.9696 0.9598 0.848 0.6674 0.4952 0.45 0.45 0.45 0.45 0.45 0.45 0.45 0.45 0.4952 0.6674 0.848 0.9598 0.9472 0.8381 0.662 0.4941 0.45 0.45 0.45 0.45 0.45 0.45 0.45 0.45 0.4941 0.662 0.8381 0.9472 0.9315 0.8258 0.6553 0.4927 0.45 0.45 0.45 0.45 0.45 0.45 0.45 0.45 0.4927 0.6553 0.8258 0.9315 0.9121 0.8107 0.647 0.491 0.45 0.45 0.45 0.45 0.45 0.45 0.45 0.45 0.491 0.647 0.8107 0.9121 0.8884 0.7922 0.6369 0.4889 0.45 0.45 0.45 0.45 0.45 0.45 0.45 0.45 0.4889 0.6369 0.7922 0.8884 0.859 0.7692 0.6244 0.4863 0.45 0.45 0.45 0.45 0.45 0.45 0.45 0.45 0.4863 0.6244 0.7692 0.859 0.8213 0.7399 0.6083 0.4829 0.45 0.45 0.45 0.45 0.45 0.45 0.45 0.45 0.4829 0.6083 0.7399 0.8213 0.7695 0.6994 0.5862 0.4783 0.45 0.45 0.45 0.45 0.45 0.45 0.45 0.45 0.4783 0.5862 0.6994 0.7695 0.6801 0.6296 0.5481 0.4704 0.45 0.45 0.45 0.45 0.45 0.45 0.45 0.45 0.4704 0.5481 0.6296 0.6801 0.45 0.45 0.45 0.45 0.45 0.45 0.45 0.45 0.45 0.45 0.45 0.45 0.45 0.45 0.45 0.45 0.45 0.45 0.45 0.45 0.45 0.45 0.45 0.45 0.45 0.45 0.45 0.45 0.45 0.45 0.45 0.45 0.45 0.45 0.45 0.45 0.45 0.45 0.45 0.45 0.45 0.45 0.45 0.45 0.45 0.45 0.45 0.45 0.45 0.45 
</DataArray>
<DataArray type="Float64" Name="cell variable 6" format="ascii">
0.25 0.25 0.25 0.25 0.25 0.25 0.25 0.25 0.25 0.25 0.25 0.25 0.25 0.25 0.25 0.25 0.25 0.25 0.25 0.25 0.25 0.25 0.25 0.25 0.25 0.25 0.25 0.25 0.25 0.25 0.25 0.25 0.25 0.25 0.25 0.25 0.25 0.25 0.25 0.25 0.25 0.25 0.25 0.25 0.25 0.25 0.25 0.25 0.1655 0.1784 0.2021 0.2332 0.25 0.25 0.25 0.25 0.25 0.25 0.25 0.25 0.2332 0.2021 0.1784 0.1655 0.1327 0.1505 0.1835 0.2267 0.25 0.25 0.25 0.25 0.25 0.25 0.25 0.25 0.2267 0.1835 0.1505 0.1327 0.1137 0.1344 0.1728 0.2229 0.25 0.25 0.25 0.25 0.25 0.25 0.25 0.25 0.2229 0.1728 0.1344 0.1137 0.0998 0.1227 0.1649 0.2201 0.25 0.25 0.25 0.25 0.25 0.25 0.25 0.25 0.2201 0.1649 0.1227 0.0998 0.089 0.1135 0.1588 0.218 0.25 0.25 0.25 0.25 0.25 0.25 0.25 0.25 0.218 0.1588 0.1135 0.089 0.0803 0.1062 0.1539 0.2162 0.25 0.25 0.25 0.25 0.25 0.25 0.25 0.25 0.2162 0.1539 0.1062 0.0803 0.0732 0.1001 0.1499 0.2148 0.25 0.25 0.25 0.25 0.25 0.25 0.25 0.25 0.2148 0.1499 0.1001 0.0732 0.0674 0.0952 0.1466 0.2137 0.25 0.25 0.25 0.25 0.25 0.25 0.25 0.25 0.2137 0.1466 0.0952 0.0674 0.0628 0.0913 0.144 0.2128 0.25 0.25 0.25 0.25 0.25 0.25 0.25 0.25 0.2128 0.144 0.0913 0.0628 0.0592 0.0882 0.1419 0.212 0.25 0.25 0.25 0.25 0.25 0.25 0.25 0.25 0.212 0.1419 0.0882 0.0592 0.0566 0.086 0.1404 0.2115 0.25 0.25 0.25 0.25 0.25 0.25 0.25 0.25 0.2115 0.1404 0.086 0.0566 0.0548 0.0845 0.1394 0.2112 0.25 0.25 0.25 0.25 0.25 0.25 0.25 0.25 0.2112 0.1394 0.0845 0.0548 0.054 0.0838 0.1389 0.211 0.25 0.25 0.25 0.25 0.25 0.25 0.25 0.25 0.211 0.1389 0.0838 0.054 0.054 0.0838 0.1389 0.211 0.25 0.25 0.25 0.25 0.25 0.25 0.25 0.25 0.211 0.1389 0.0838 0.054 0.0548 0.0845 0.1394 0.2112 0.25 0.25 0.25 0.25 0.25 0.25 0.25 0.25 0.2112 0.1394 0.0845 0.0548 0.0566 0.086 0.1404 0.2115 0.25 0.25 0.25 0.25 0.25 0.25 0.25 0.25 0.2115 0.1404 0.086 0.0566 0.0592 0.0882 0.1419 0.212 0.25 0.25 0.25 0.25 0.25 0.25 0.25 0.25 0.212 0.1419 0.0882 0.0592 0.0628 0.0913 0.144 0.2128 0.25 0.25 0.25 0.25 0.25 0.25 0.25 0.25 0.2128 0.144 0.0913 0.0628 0.0674 0.0952 0.1466 0.2137 0.25 0.25 0.25 0.25 0.25 0.25 0.25 0.25 0.2137 0.1466 0.0952 0.0674 0.0732 0.1001 0.1499 0.2148 0.25 0.25 0.25 0.25 0.25 0.25 0.25 0.25 0.2148 0.1499 0.1001 0.0732 0.0803 0.1062 0.1539 0.2162 0.25 0.25 0.25 0.25 0.25 0.25 0.25 0.25 0.2162 0.1539 0.1062 0.0803 0.089 0.1135 0.1588 0.218 0.25 0.25 0.25 0.25 0.25 0.25 0.25 0.25 0.218 0.1588 0.1135 0.089 0.0998 0.1227 0.1649 0.2201 0.25 0.25 0.25 0.25 0.25 0.25 0.25 0.25 0.2201 0.1649 0.1227 0.0998 0.1137 0.1344 0.1728 0.2229 0.25 0.25 0.25 0.25 0.25 0.25 0.25 0.25 0.2229 0.1728 0.1344 0.1137 0.1327 0.1505 0.1835 0.2267 0.25 0.25 0.25 0.25 0.25 0.25 0.25 0.25 0.2267 0.1835 0.1505 0.1327 0.1655 0.1784 0.2021 0.2332 0.25 0.25 0.25 0.25 0.25 0.25 0.25 0.25 0.2332 0.2021 0.1784 0.1655 0.25 0.25 0.25 0.25 0.25 0.25 0.25 0.25 0.25 0.25 0.25 0.25 0.25 0.25 0.25 0.25 0.25 0.25 0.25 0.25 0.25 0.25 0.25 0.25 0.25 0.25 0.25 0.25 0.25 0.25 0.25 0.25 0.25 0.25 0.25 0.25 0.25 0.25 0.25 0.25 0.25 0.25 0.25 0.25 0.25 0.25 0.25 0.25 0.25 0.25 
</DataArray>
<DataArray type="Float64" Name="cell variable 7" format="ascii">
0 0 0 0 0 0 0 0 0 0 0 0 0 0 0 0 0 0 0 0 0 0 0 0 0 0 0 0 0 0 0 0 0 0 0 0 0 0 0 0 0 0 0 0 0 0 0 0 0 0 0 0 0 0 0 0 0 0 0 0 0 0 0 0 0 0 0 0 0 0 0 0 0 0 0 0 0 0 0 0 0 0 0 0 0 0 0 0 0 0 0 0 0 0 0 0 0 0 0 0 0 0 0 0 0 0 0 0 0 0 0 0 0 0 0 0 0 0 0 0 0 0 0 0 0 0 0 0 0 0 0 0 0 0 0 0 0 0 0 0 0 0 0 0 0 0 0 0 0 0 0 0 0 0 0 0 0 0 0 0 0 0 0 0 0 0 0 0 0 0 0 0 0 0 0 0 0 0 0 0 0 0 0 0 0 0 0 0 0 0 0 0 0 0 0 0 0 0 0 0 0 0 0 0 0 0 0 0 0 0 0 0 0 0 0 0 0 0 0 0 0 0 0 0 0 0 0 0 0 0 0 0 0 0 0 0 0 0 0 0 0 0 0 0 0 0 0 0 0 0 0 0 0 0 0 0 0 0 0 0 0 0 0 0 0 0 0 0 0 0 0 0 0 0 0 0 0 0 0 0 0 0 0 0 0 0 0 0 0 0 0 0 0 0 0 0 0 0 0 0 0 0 0 0 0 0 0 0 0 0 0 0 0 0 0 0 0 0 0 0 0 0 0 0 0 0 0 0 0 0 0 0 0 0 0 0 0 0 0 0 0 0 0 0 0 0 0 0 0 0 0 0 0 0 0 0 0 0 0 0 0 0 0 0 0 0 0 0 0 0 0 0 0 0 0 0 0 0 0 0 0 0 0 0 0 0 0 0 0 0 0 0 0 0 0 0 0 0 0 0 0 0 0 0 0 0 0 0 0 0 0 0 0 0 0 0 0 0 0 0 0 0 0 0 0 0 0 0 0 0 0 0 0 0 0 0 0 0 0 0 0 0 0 0 0 0 0 0 0 0 0 0 0 0 0 0 0 0 0 0 0 0 0 0 0 0 0 0 0 0 0 0 0 0 0 0 0 0 0 0 0 0 0 0 0 0 0 0 0 0 0 0 0 0 0 0 0 0 0 0 0 0 0 0 0 0 0 0 0 0 0 0 1 1 
</DataArray>
<DataArray type="Float64" Name="cell variable 8" format="ascii">
11.25 33.75 56.25 78.75 101.25 123.75 146.25 168.75 191.25 213.75 236.25 258.75 281.25 303.75 326.25 348.75 11.25 33.75 56.25 78.75 101.25 123.75 146.25 168.75 191.25 213.75 236.25 258.75 281.25 303.75 326.25 348.75 11.25 33.75 56.25 78.75 101.25 123.75 146.25 168.75 191.25 213.75 236.25 258.75 281.25 303.75 326.25 348.75 11.25 33.75 56.25 78.75 101.25 123.75 146.25 168.75 191.25 213.75 236.25 258.75 281.25 303.75 326.25 348.75 11.25 33.75 56.25 78.75 101.25 123.75 146.25 168.75 191.25 213.75 236.25 258.75 281.25 303.75 326.25 348.75 11.25 33.75 56.25 78.75 101.25 123.75 146.25 168.75 191.25 213.75 236.25 258.75 281.25 303.75 326.25 348.75 11.25 33.75 56.25 78.75 101.25 123.75 146.25 168.75 191.25 213.75 236.25 258.75 281.25 303.75 326.25 348.75 11.25 33.75 56.25 78.75 101.25 123.75 146.25 168.75 191.25 213.75 236.25 258.75 281.25 303.75 326.25 348.75 11.25 33.75 56.25 78.75 101.25 123.75 146.25 168.75 191.25 213.75 236.25 258.75 281.25 303.75 326.25 348.75 11.25 33.75 56.25 78.75 101.25 123.75 146.25 168.75 191.25 213.75 236.25 258.75 281.25 303.75 326.25 348.75 11.25 33.75 56.25 78.75 101.25 123.75 146.25 168.75 191.25 213.75 236.25 258.75 281.25 303.75 326.25 348.75 11.25 33.75 56.25 78.75 101.25 123.75 146.25 168.75 191.25 213.75 236.25 258.75 281.25 303.75 326.25 348.75 11.25 33.75 56.25 78.75 101.25 123.75 146.25 168.75 191.25 213.75 236.25 258.75 281.25 303.75 326.25 348.75 11.25 33.75 56.25 78.75 101.25 123.75 146.25 168.75 191.25 213.75 236.25 258.75 281.25 303.75 326.25 348.75 11.25 33.75 56.25 78.75 101.25 123.75 146.25 168.75 191.25 213.75 236.25 258.75 281.25 303.75 326.25 348.75 11.25 33.75 56.25 78.75 101.25 123.75 146.25 168.75 191.25 213.75 236.25 258.75 281.25 303.75 326.25 348.75 11.25 33.75 56.25 78.75 101.25 123.75 146.25 168.75 191.25 213.75 236.25 258.75 281.25 303.75 326.25 348.75 11.25 33.75 56.25 78.75 101.25 123.75 146.25 168.75 191.25 213.75 236.25 258.75 281.25 303.75 326.25 348.75 11.25 33.75 56.25 78.75 101.25 123.75 146.25 168.75 191.25 213.75 236.25 258.75 281.25 303.75 326.25 348.75 11.25 33.75 56.25 78.75 101.25 123.75 146.25 168.75 191.25 213.75 236.25 258.75 281.25 303.75 326.25 348.75 11.25 33.75 56.25 78.75 101.25 123.75 146.25 168.75 191.25 213.75 236.25 258.75 281.25 303.75 326.25 348.75 11.25 33.75 56.25 78.75 101.25 123.75 146.25 168.75 191.25 213.75 236.25 258.75 281.25 303.75 326.25 348.75 11.25 33.75 56.25 78.75 101.25 123.75 146.25 168.75 191.25 213.75 236.25 258.75 281.25 303.75 326.25 348.75 11.25 33.75 56.25 78.75 101.25 123.75 146.25 168.75 191.25 213.75 236.25 258.75 281.25 303.75 326.25 348.75 11.25 33.75 56.25 78.75 101.25 123.75 146.25 168.75 191.25 213.75 236.25 258.75 281.25 303.75 326.25 348.75 11.25 33.75 56.25 78.75 101.25 123.75 146.25 168.75 191.25 213.75 236.25 258.75 281.25 303.75 326.25 348.75 11.25 33.75 56.25 78.75 101.25 123.75 146.25 168.75 191.25 213.75 236.25 258.75 281.25 303.75 326.25 348.75 11.25 33.75 56.25 78.75 101.25 123.75 146.25 168.75 191.25 213.75 236.25 258.75 281.25 303.75 326.25 348.75 11.25 33.75 56.25 78.75 101.25 123.75 146.25 168.75 191.25 213.75 236.25 258.75 281.25 303.75 326.25 348.75 11.25 33.75 56.25 78.75 101.25 123.75 146.25 168.75 191.25 213.75 236.25 258.75 281.25 303.75 326.25 348.75 11.25 33.75 56.25 78.75 101.25 123.75 146.25 168.75 191.25 213.75 236.25 258.75 281.25 303.75 326.25 348.75 11.25 33.75 56.25 78.75 101.25 123.75 146.25 168.75 191.25 213.75 236.25 258.75 281.25 303.75 326.25 348.75 0 0 
</DataArray>
</CellData>
</Piece>
</UnstructuredGrid>
</VTKFile>
