<VTKFile type="UnstructuredGrid" version="0.1">
<UnstructuredGrid>
<Piece  NumberOfPoints="    2080" NumberOfCells="     514">
<Points>
<DataArray type="Float64" NumberOfComponents="3" format="ascii">
-310.311 717.876 1.10341
-309.112 722.881 26.8667
-283.335 711.722 28.9916
-284.67 706.306 1.13515
-308.84 723.994 29.6182
-305.366 738.212 51.4174
-279.271 728.224 55.3053
-283.062 712.835 31.7431
-304.864 740.264 53.518
-299.705 761.503 68.0221
-273.142 753.257 73.1026
-278.769 730.276 57.4059
-299.062 764.181 69.1551
-293.152 789.213 74.2047
-266.075 783.044 79.7502
-272.499 755.936 74.2356
-292.487 792.116 74.2046
-286.902 817.216 69.1083
-259.422 813.19 74.273
-265.411 785.947 79.7502
-286.321 819.91 67.9733
-281.816 841.299 53.4624
-254.016 839.044 57.3826
-258.842 815.883 73.138
-281.385 843.367 51.3583
-278.414 857.698 29.5585
-250.375 856.596 31.6698
-253.585 841.112 55.2785
-278.181 858.818 26.8053
-277.117 863.84 1.04401
-248.989 863.146 1.05501
-250.141 857.716 28.9166
-277.115 863.838 -1.93724
-278.14 858.783 -27.6941
-250.093 857.687 -29.784
-248.987 863.144 -1.92624
-278.37 857.66 -30.4464
-281.325 843.31 -52.2368
-253.513 841.058 -56.1313
-250.323 856.564 -32.5363
-281.755 841.24 -54.3392
-286.253 819.839 -68.8353
-258.768 815.813 -73.9682
-253.943 838.988 -58.2337
-286.833 817.144 -69.9683
-292.415 792.039 -75.0447
-265.332 785.871 -80.5604
-259.348 813.118 -75.1012
-293.079 789.136 -75.0426
-298.996 764.109 -69.9735
-272.424 755.866 -75.0253
-265.996 782.968 -80.5584
-299.64 761.432 -68.8384
-304.796 740.208 -54.3125
-278.721 730.232 -58.1687
-273.068 753.189 -73.8902
-305.299 738.157 -52.2093
-308.783 723.965 -30.3977
-283.048 712.813 -32.4685
-279.225 728.181 -56.0655
-309.059 722.854 -27.6437
-310.309 717.875 -1.87849
-284.668 706.304 -1.84675
-283.324 711.703 -29.7145
-281.558 705.216 1.2123
-280.223 710.633 29.0688
-249.566 702.255 29.7158
-250.95 696.743 1.22886
-276.141 727.188 55.5216
-245.32 719.074 56.7306
-249.275 703.422 32.6065
-279.933 711.799 31.9594
-269.979 752.32 73.4262
-238.891 744.631 75.0331
-244.784 721.226 58.9385
-275.606 729.34 57.7295
-262.871 782.238 80.1337
-231.523 775.096 81.8898
-238.207 747.44 76.2259
-269.295 755.13 74.619
-256.187 812.529 74.6583
-224.852 805.998 76.2512
-230.827 778.145 81.8915
-262.176 785.286 80.1355
-250.763 838.521 57.7086
-219.494 832.5 58.9026
-224.253 808.829 75.0569
-255.589 815.361 73.4639
-247.107 856.178 31.8861
-215.835 850.503 32.535
-219.049 834.672 56.6888
-250.317 840.694 55.4948
-245.712 862.783 1.13155
-214.43 857.229 1.1467
-215.592 851.678 29.642
-246.864 857.353 28.9932
-246.816 857.324 -29.8574
-215.554 851.645 -30.4719
-214.428 857.228 -1.98444
-245.71 862.782 -1.99958
-250.246 840.639 -56.3442
-218.984 834.619 -57.4972
-215.793 850.467 -33.3637
-247.055 856.146 -32.7492
-255.515 815.29 -74.2905
-224.177 808.76 -75.8456
-219.427 832.444 -59.709
-250.69 838.465 -58.556
-262.096 785.211 -80.9418
-230.746 778.069 -82.6582
-224.775 805.928 -77.0378
-256.113 812.458 -75.4826
-269.219 755.061 -75.4049
-238.134 747.37 -76.969
-231.442 775.02 -82.6543
-262.792 782.163 -80.938
-275.558 729.295 -58.4882
-244.736 721.175 -59.6599
-238.82 744.561 -75.7738
-269.905 752.252 -74.2097
-279.92 711.777 -32.6802
-249.259 703.389 -33.294
-245.274 719.025 -57.4489
-276.097 727.145 -56.2772
-280.213 710.613 -29.7872
-281.557 705.215 -1.91952
-250.949 696.742 -1.90296
-249.552 702.225 -30.401
-247.53 695.869 1.25176
-246.146 701.38 29.7387
-215.08 694.023 29.8832
-216.503 688.503 1.268
-245.844 702.558 32.6697
-241.889 718.21 56.7938
-210.672 710.871 57.0635
-214.778 695.201 32.8142
-241.329 720.383 59.0349
-235.436 743.788 75.1295
-203.925 736.479 75.4986
-210.112 713.044 59.3046
-234.721 746.627 76.34
-228.036 774.283 82.0039
-196.246 767.041 82.3831
-203.211 739.318 76.709
-227.334 777.368 82.0059
-221.359 805.221 76.3656
-189.853 798.204 76.7562
-195.544 770.126 82.3852
-220.776 808.098 75.1549
-216.017 831.768 59.0006
-184.725 824.992 59.3446
-189.269 801.081 75.5455
-215.581 833.975 56.7549
-212.367 849.806 32.6011
-181.125 843.162 32.8026
-184.289 827.199 57.0989
-212.126 851 29.6664
-210.963 856.55 1.17109
-179.72 849.946 1.19136
-180.884 844.355 29.8679
-210.962 856.549 -2.00484
-212.088 850.966 -30.4923
-180.854 844.327 -30.6552
-179.719 849.944 -1.98457
-212.326 849.77 -33.4257
-215.517 833.922 -57.5592
-184.233 827.149 -57.869
-181.093 843.131 -33.5886
-215.951 831.713 -59.803
-220.7 808.029 -75.9396
-189.191 801.012 -76.2976
-184.667 824.94 -60.1128
-221.282 805.151 -77.1483
-227.253 777.292 -82.7687
-195.463 770.044 -83.1166
-189.773 798.134 -77.5062
-227.956 774.207 -82.7643
-234.648 746.556 -77.079
-203.142 739.242 -77.4153
-196.166 766.96 -83.1123
-235.365 743.718 -75.8662
-241.28 720.331 -59.7523
-210.061 712.985 -59.9912
-203.858 736.404 -76.2026
-241.843 718.16 -57.5085
-245.827 702.524 -33.3536
-214.757 695.16 -33.4668
-210.624 710.814 -57.7474
-246.132 701.349 -30.4203
-247.529 695.867 -1.92226
-216.502 688.501 -1.90602
-215.062 693.985 -30.5335
-213.085 687.669 1.27635
-211.662 693.189 29.8916
-181.07 685.507 29.9465
-182.677 680.02 1.29019
-211.334 694.366 32.8338
-207.229 710.037 57.0831
-176.125 702.257 57.1688
-180.743 686.684 32.8887
-206.621 712.207 59.3311
-200.434 735.641 75.525
-168.595 727.718 75.6306
-175.518 704.426 59.4168
-199.653 738.478 76.7374
-192.688 766.201 82.4115
-159.822 758.076 82.5102
-167.814 730.555 76.843
-191.912 769.294 82.4069
-186.22 797.372 76.7779
-151.774 788.954 76.8611
-159.046 761.169 82.5055
-185.573 800.242 75.5604
-181.028 824.153 59.3595
-145.27 815.582 59.4731
-151.126 791.824 75.6436
-180.543 826.354 57.1103
-177.379 842.317 32.814
-140.811 833.642 32.894
-144.784 817.782 57.224
-177.11 843.505 29.8735
-175.947 849.096 1.19697
-139.107 840.383 1.21796
-140.542 834.831 29.9535
-175.946 849.094 -1.98582
-177.081 843.477 -30.6564
-140.514 834.813 -30.6979
-139.106 840.382 -1.96483
-177.347 842.286 -33.5961
-180.488 826.304 -57.8764
-144.732 817.747 -57.9592
-140.781 833.622 -33.6375
-180.97 824.102 -60.1242
-185.495 800.175 -76.3091
-151.045 791.773 -76.3662
-145.215 815.544 -60.207
-186.141 797.303 -77.5248
-191.831 769.212 -83.1352
-158.97 761.074 -83.2135
-151.691 788.901 -77.582
-192.609 766.118 -83.1377
-199.584 738.401 -77.4408
-167.751 730.468 -77.5236
-159.748 757.98 -83.216
-200.367 735.565 -76.226
-206.57 712.147 -60.0146
-175.467 704.358 -60.0762
-168.534 727.632 -76.3088
-207.18 709.979 -57.7638
-211.313 694.324 -33.4832
-180.717 686.636 -33.5116
-176.077 702.19 -57.8254
-211.643 693.151 -30.5386
-213.084 687.667 -1.91109
-182.676 680.018 -1.89725
-181.047 685.462 -30.567
-179.317 679.104 1.29355
-177.71 684.592 29.9498
-147.622 675.742 29.9754
-149.428 670.324 1.30859
-177.342 685.758 32.8952
-172.725 701.331 57.1753
-142.071 692.291 57.2138
-147.254 676.909 32.9208
-172.043 703.482 59.4253
-165.12 726.774 75.6391
-133.617 717.462 75.6797
-141.389 694.442 59.4638
-164.236 729.584 76.8513
-156.245 757.105 82.5185
-123.648 747.454 82.5634
-132.733 720.272 76.8918
-155.326 760.161 82.5128
-148.053 787.946 76.8683
-114.03 777.902 76.8923
-122.728 750.51 82.5577
-147.252 790.785 75.6505
-141.395 814.543 59.48
-106.133 804.176 59.4983
-113.228 780.741 75.6745
-140.795 816.722 57.2305
-136.821 832.582 32.9005
-100.763 822.022 32.9249
-105.532 806.355 57.2488
-136.493 833.76 29.9575
-135.058 839.312 1.22193
-98.7308 828.691 1.24112
-100.434 823.2 29.9819
-135.057 839.311 -1.96449
-136.465 833.742 -30.6975
-100.409 823.187 -30.6848
-98.7294 828.69 -1.94529
-136.792 832.563 -33.6401
-140.743 816.688 -57.9618
-105.485 806.329 -57.9457
-100.735 822.008 -33.6274
-141.341 814.507 -60.2103
-147.172 790.736 -76.3695
-113.168 780.706 -76.3619
-106.083 804.148 -60.1942
-147.973 787.893 -77.5863
-155.252 760.066 -83.2178
-122.675 750.414 -83.2352
-113.968 777.864 -77.5787
-156.172 757.008 -83.2215
-164.175 729.496 -77.5292
-132.676 720.181 -77.5426
-123.595 747.356 -83.2388
-165.059 726.687 -76.3146
-171.993 703.413 -60.082
-141.338 694.369 -60.0927
-133.561 717.372 -76.328
-172.676 701.264 -57.829
-177.316 685.709 -33.5151
-147.225 676.857 -33.5112
-142.021 692.22 -57.8398
-177.687 684.546 -30.5671
-179.316 679.102 -1.89743
-149.427 670.321 -1.88239
-147.595 675.694 -30.5632
-146.127 669.272 1.31099
-144.321 674.691 29.9778
-114.789 664.533 29.9988
-116.806 659.202 1.32777
-143.909 675.841 32.9247
-138.726 691.223 57.2177
-108.591 680.822 57.2523
-114.377 665.683 32.9457
-137.962 693.346 59.4689
-130.191 716.365 75.6848
-99.1415 705.615 75.7336
-107.828 682.945 59.5035
-129.196 719.137 76.8972
-120.11 746.319 82.5688
-87.9291 735.151 82.6219
-98.1467 708.387 76.946
-119.052 749.329 82.5623
-110.353 776.722 76.8969
-76.8284 765.138 76.9331
-86.8709 738.161 82.6154
-109.407 779.519 75.6774
-102.312 802.954 59.5012
-67.586 790.964 59.5226
-75.8825 767.935 75.7136
-101.6 805.101 57.2511
-96.8305 820.768 32.9273
-61.3251 808.521 32.9482
-66.8741 793.111 57.2725
-96.4434 821.929 29.9842
-94.7403 827.419 1.24344
-58.9713 815.084 1.26325
-60.9381 809.682 30.0051
-94.7391 827.419 -1.94328
-96.4188 821.916 -30.6828
-60.9189 809.664 -30.6629
-58.9702 815.083 -1.92347
-96.8037 820.753 -33.6254
-101.553 805.074 -57.9437
-66.8369 793.074 -57.9226
-61.3037 808.501 -33.6055
-102.264 802.926 -60.1929
-109.348 779.484 -76.3607
-75.8374 767.887 -76.3536
-67.5472 790.926 -60.1718
-110.294 776.684 -77.5792
-119.001 749.235 -83.2356
-86.8243 738.082 -83.2437
-76.7835 765.087 -77.5721
-120.058 746.222 -83.2403
-129.14 719.047 -77.5441
-98.0911 708.306 -77.5527
-87.8819 735.069 -83.2484
-130.134 716.276 -76.3296
-137.911 693.273 -60.0943
-107.774 682.876 -60.0933
-99.0858 705.535 -76.3381
-138.676 691.152 -57.8402
-143.88 675.789 -33.5116
-114.346 665.632 -33.4986
-108.539 680.755 -57.8392
-144.294 674.642 -30.562
-146.126 669.27 -1.88124
-116.805 659.2 -1.86446
-114.76 664.485 -30.5491
-113.57 658.005 1.32998
-111.553 663.336 30.001
-82.6174 651.85 30.0195
-84.8537 646.619 1.34699
-111.094 664.467 32.949
-105.309 679.606 57.2556
-75.7442 667.841 57.2836
-82.1587 652.981 32.9675
-104.458 681.693 59.5082
-95.7724 704.363 75.7383
-65.2548 692.191 75.7788
-74.8939 669.928 59.5362
-94.6618 707.089 76.9513
-84.4442 733.853 82.6272
-52.769 721.201 82.6697
-64.1442 694.917 76.9918
-83.2501 736.812 82.62
-73.2076 763.789 76.9378
-40.2491 750.647 76.9696
-51.5748 724.161 82.6626
-72.1229 766.537 75.7167
-63.8264 789.566 59.5257
-29.711 775.969 59.5442
-39.1644 753.395 75.7485
-63.0066 791.674 57.2747
-57.4575 807.084 32.9503
-22.5796 793.189 32.9676
-28.8912 778.077 57.2932
-57.0134 808.225 30.0072
-55.0466 813.627 1.26534
-19.9083 799.629 1.28334
-22.1354 794.33 30.0244
-55.0457 813.626 -1.92131
-56.9944 808.206 -30.6608
-22.1209 794.308 -30.6416
-19.9074 799.628 -1.90331
-57.4369 807.063 -33.6034
-62.9701 791.637 -57.9205
-28.8617 778.034 -57.902
-22.5633 793.165 -33.5842
-63.7887 789.527 -60.1705
-72.0789 766.488 -76.3523
-39.1254 753.338 -76.3448
-29.6804 775.925 -60.152
-73.1631 763.738 -77.5721
-83.2039 736.733 -83.2437
-51.5279 724.09 -83.2454
-40.2096 750.589 -77.5646
-84.3972 733.772 -83.2492
-94.6064 707.009 -77.5535
-64.0893 694.844 -77.5577
-52.7212 721.129 -83.251
-95.7166 704.284 -76.3387
-104.405 681.625 -60.0939
-74.8394 669.865 -60.0881
-65.1995 692.119 -76.343
-105.256 679.539 -57.8387
-111.063 664.415 -33.4981
-82.1262 652.93 -33.4827
-75.6908 667.779 -57.8329
-111.524 663.288 -30.5475
-113.568 658.003 -1.8629
-84.8522 646.617 -1.84589
-82.5876 651.803 -30.5321
-81.6864 645.276 1.34904
-79.4501 650.506 30.0216
-51.1521 637.703 30.0385
-53.6132 632.583 1.36558
-78.9434 651.615 32.9702
-72.5289 666.475 57.2864
-43.5881 653.36 57.3095
-50.6455 638.812 32.9871
-71.5895 668.522 59.54
-61.9504 690.785 75.7826
-32.0379 677.208 75.8153
-42.6487 655.406 59.5632
-60.7215 693.458 76.996
-49.3463 719.742 82.6739
-18.2653 705.62 82.7066
-30.809 679.881 77.0287
-48.0178 722.644 82.6663
-36.692 749.13 76.9733
-4.36938 734.449 76.9986
-16.9368 708.522 82.6989
-35.4742 751.823 75.7513
-26.0209 774.396 59.547
7.41185 759.213 59.5641
-3.15161 737.141 75.7766
-25.0965 776.46 57.2951
-18.7849 791.572 32.9695
15.3891 776.057 32.9854
8.33618 761.277 57.3123
-18.2848 792.69 30.0263
-16.0577 797.989 1.28522
18.3724 782.359 1.30211
15.8892 777.174 30.0422
-16.057 797.988 -1.90131
-18.2705 792.668 -30.6396
15.901 777.152 -30.6218
18.3731 782.358 -1.88442
-18.7691 791.548 -33.5823
-25.0676 776.417 -57.9
8.36144 761.235 -57.8837
15.4023 776.033 -33.5645
-25.9907 774.352 -60.1508
-35.4357 751.765 -76.3435
-3.1142 737.082 -76.3347
7.43831 759.169 -60.1344
-36.6525 749.072 -77.5641
-47.9708 722.573 -83.245
-16.8894 708.453 -83.2429
-4.33104 734.389 -77.5553
-49.2985 719.671 -83.2512
-60.6666 693.386 -77.5579
-30.7551 679.812 -77.558
-18.217 705.551 -83.2491
-61.8951 690.713 -76.343
-71.535 668.459 -60.0882
-42.5947 655.345 -60.0802
-31.9836 677.139 -76.3432
-72.4755 666.413 -57.832
-78.9109 651.565 -33.4818
-50.6136 638.761 -33.4662
-43.5352 653.299 -57.824
-79.4202 650.459 -30.5304
-81.6848 645.273 -1.84422
-53.6117 632.581 -1.82767
-51.1229 637.656 -30.5148
-50.5195 631.095 1.36751
-48.0584 636.215 30.0404
-20.4443 622.113 30.0567
-23.1324 617.115 1.38368
-47.5032 637.299 32.9895
-40.4458 651.847 57.3119
-12.1849 637.399 57.3322
-19.8891 623.197 33.0058
-39.4161 653.848 59.5662
-28.8053 675.649 75.8184
0.431611 660.687 75.845
-11.1552 639.401 59.5866
-27.4573 678.264 77.0321
-14.9135 704.003 82.7099
15.4898 688.431 82.7364
1.7796 663.301 77.0587
-13.4523 706.839 82.7018
-0.884915 732.766 77.0015
30.7271 716.572 77.0218
16.951 691.268 82.7283
0.461215 735.397 75.7789
11.0247 757.469 59.5665
43.7029 740.729 59.5827
32.0732 719.202 75.7993
12.0497 759.484 57.3142
19.1027 774.264 32.9873
52.4982 757.159 33.0029
44.728 742.745 57.3304
19.6571 775.355 30.044
22.1403 780.54 1.30392
55.7858 763.309 1.32063
53.0526 758.25 30.0596
22.1409 780.539 -1.88251
19.6688 775.333 -30.6199
53.0627 758.23 -30.6023
55.7864 763.308 -1.8658
19.1156 774.24 -33.5627
12.0747 759.442 -57.8818
44.7508 742.704 -57.8652
52.5095 757.136 -33.5451
11.0509 757.424 -60.133
0.4984 735.337 -76.3334
32.1094 719.144 -76.3214
43.727 740.686 -60.1164
-0.846583 732.706 -77.5545
-13.4049 706.771 -83.2421
16.9975 691.2 -83.2365
30.7644 716.512 -77.5426
-14.8653 703.934 -83.2488
-27.4035 678.194 -77.5578
1.83181 663.233 -77.5534
15.537 688.363 -83.2432
-28.7512 675.581 -76.3428
-39.3622 653.787 -60.0799
-11.1028 639.339 -60.0704
0.484111 660.619 -76.3384
-40.393 651.786 -57.8229
-47.4714 637.249 -33.4651
-19.859 623.146 -33.4499
-12.1336 637.339 -57.8135
-48.0293 636.168 -30.5132
-50.518 631.092 -1.826
-23.1309 617.112 -1.80982
-20.4169 622.065 -30.4979
-20.1174 615.484 1.38554
-17.4294 620.483 30.0586
9.45123 605.106 30.0745
6.53675 600.24 1.40158
-16.8255 621.539 33.0079
-9.12129 635.741 57.3343
18.4022 619.986 57.3528
10.0551 606.163 33.0238
-8.00145 637.693 59.5892
3.58536 658.979 75.8476
32.0774 642.657 75.8701
19.522 621.937 59.6076
5.05188 661.527 77.0615
18.762 686.657 82.7392
48.4041 669.666 82.7617
33.5439 645.206 77.084
20.3538 689.422 82.7307
34.1299 714.727 77.0242
64.9497 697.055 77.0419
49.9958 672.431 82.7533
35.6003 717.289 75.8013
47.23 738.816 59.5847
79.0792 720.552 59.6001
66.4201 699.617 75.8189
48.3522 740.779 57.3322
56.1225 755.193 33.0047
88.6657 736.532 33.0203
80.2014 722.515 57.3476
56.7296 756.256 30.0614
59.4628 761.314 1.32245
92.2485 742.515 1.33928
89.2729 737.594 30.077
59.4633 761.313 -1.8639
56.7396 756.235 -30.6004
89.2817 737.575 -30.5826
92.249 742.514 -1.84707
56.1336 755.171 -33.5432
48.3749 740.738 -57.8633
80.2224 722.475 -57.8458
88.6757 736.51 -33.5254
47.2539 738.773 -60.1148
35.6363 717.231 -76.3198
66.4545 699.56 -76.3056
79.1014 720.51 -60.0973
34.1671 714.667 -77.5415
20.4001 689.354 -83.2353
50.0403 672.364 -83.2266
64.9853 696.996 -77.5273
18.8092 686.589 -83.2424
5.10392 661.459 -77.5527
33.5939 645.137 -77.5448
48.4494 669.599 -83.2337
3.63766 658.911 -76.3377
-7.94922 637.631 -60.0697
19.5723 621.875 -60.0587
32.1277 642.589 -76.3298
-9.0702 635.681 -57.8122
-16.7956 621.488 -33.4486
10.0827 606.11 -33.4333
18.4513 619.925 -57.8013
-17.4021 620.434 -30.4963
-20.116 615.481 -1.80815
6.53814 600.238 -1.79211
9.47629 605.056 -30.481
9.46743 598.47 1.4034
12.3819 603.336 30.0763
38.4779 586.714 30.092
35.3397 581.992 1.41938
13.034 604.363 33.0258
21.3811 618.186 57.3547
48.1122 601.151 57.3717
39.13 587.741 33.0415
22.5901 620.083 59.6098
35.1455 640.802 75.8724
62.8303 623.15 75.8922
49.3213 603.047 59.6267
36.7289 643.279 77.0864
51.5891 667.74 82.7641
80.402 649.359 82.7837
64.4137 625.626 77.1062
53.3086 670.426 82.7554
68.2624 695.05 77.044
98.2211 675.932 77.0607
82.1215 652.045 82.775
69.8533 697.539 75.8208
82.5124 718.473 59.6019
113.462 698.72 59.6166
99.8119 678.421 75.8375
83.7283 720.38 57.3494
92.1926 734.396 33.0221
123.81 714.216 33.0374
114.678 700.626 57.3641
92.8506 735.428 30.0788
95.8262 740.349 1.34108
127.678 720.019 1.35784
124.468 715.248 30.0941
95.8267 740.348 -1.84516
92.8594 735.409 -30.5807
124.476 715.229 -30.5627
127.678 720.018 -1.82841
92.2024 734.375 -33.5234
83.7491 720.34 -57.8439
114.697 700.588 -57.826
123.819 714.195 -33.5055
82.5344 718.432 -60.0956
69.8875 697.481 -76.3039
99.8442 678.365 -76.2888
113.482 698.679 -60.0776
68.2978 694.991 -77.5259
53.3529 670.359 -83.2252
82.1636 651.978 -83.2137
98.2545 675.874 -77.5108
51.6341 667.672 -83.2327
36.7787 643.211 -77.5438
64.4612 625.558 -77.5336
80.4449 649.292 -83.2212
35.1955 640.734 -76.3287
22.6402 620.02 -60.0577
49.3692 602.984 -60.0454
62.8781 623.081 -76.3186
21.43 618.125 -57.7999
13.0614 604.31 -33.432
39.155 587.686 -33.4166
48.159 601.089 -57.7877
12.4068 603.286 -30.4793
9.46868 598.468 -1.79042
35.341 581.989 -1.77444
38.5004 586.662 -30.4639
38.1805 580.086 1.42116
41.3187 584.808 30.0938
66.5785 566.972 30.1092
63.2208 562.407 1.43696
42.0183 585.802 33.0433
51.0005 599.213 57.3735
76.8826 580.932 57.3894
67.2781 567.967 33.0588
52.2972 601.049 59.6288
65.8062 621.152 75.8943
92.6208 602.205 75.9116
78.1792 582.769 59.6446
67.5041 623.55 77.1083
83.4924 647.283 82.7857
111.407 627.551 82.8024
94.3186 604.603 77.1256
85.3364 649.885 82.7768
101.436 673.772 77.0626
130.462 653.248 77.0775
113.251 630.152 82.7935
103.143 676.182 75.8392
116.793 696.481 59.6184
146.773 675.278 59.632
132.169 655.658 75.8541
118.099 698.326 57.3658
127.232 711.916 33.0391
157.852 690.257 33.0538
148.079 677.124 57.3794
127.939 712.915 30.0959
131.148 717.686 1.35961
161.995 695.867 1.37613
158.559 691.256 30.1106
131.149 717.685 -1.8265
127.946 712.896 -30.5608
158.566 691.239 -30.5426
161.995 695.866 -1.80998
127.24 711.895 -33.5035
118.119 698.288 -57.824
148.096 677.086 -57.8052
157.86 690.238 -33.4853
116.814 696.44 -60.0758
103.175 676.125 -76.2869
132.199 655.603 -76.2701
146.791 675.239 -60.057
101.469 673.714 -77.5092
85.3783 649.818 -83.2121
113.291 630.087 -83.1981
130.493 653.191 -77.4924
83.535 647.216 -83.2199
67.5514 623.482 -77.5323
94.3635 604.535 -77.5197
111.447 627.484 -83.2058
65.8538 621.083 -76.3173
52.3448 600.986 -60.0442
78.2245 582.705 -60.0311
92.6659 602.137 -76.3047
51.047 599.15 -57.7862
42.043 585.748 -33.4151
67.3 567.912 -33.3998
76.9267 580.869 -57.7731
41.341 584.756 -30.4622
38.1816 580.083 -1.77274
63.2219 562.404 -1.75695
66.5981 566.92 -30.4469
65.9661 560.369 1.4387
69.3238 564.934 30.111
93.6951 545.924 30.126
90.1235 541.525 1.45419
70.0697 565.894 33.0606
79.6742 578.859 57.3911
104.651 559.372 57.4057
94.4411 546.884 33.0756
81.0564 580.632 59.6464
95.4979 600.068 75.9133
121.381 579.867 75.9276
106.034 561.144 59.6609
97.3072 602.383 77.1273
114.396 625.33 82.8041
141.346 604.289 82.8166
123.191 582.182 77.1415
116.361 627.841 82.7951
133.571 650.937 77.079
161.594 629.051 77.0905
143.311 606.8 82.8076
135.391 653.263 75.8556
149.994 672.883 59.6334
178.933 650.276 59.6448
163.413 631.377 75.8671
151.387 674.664 57.3809
161.161 687.797 33.0553
190.715 664.706 33.0688
180.326 652.057 57.3923
161.915 688.761 30.1123
165.35 693.372 1.37784
195.121 670.112 1.39401
191.469 665.67 30.1258
165.351 693.371 -1.80806
161.922 688.743 -30.5407
191.476 665.654 -30.522
195.122 670.111 -1.79189
161.168 687.778 -33.4832
151.404 674.626 -57.8032
180.342 652.021 -57.7829
190.722 664.688 -33.4646
150.013 672.844 -60.0549
135.42 653.207 -76.2681
163.441 631.323 -76.2486
178.95 650.238 -60.0347
133.602 650.88 -77.4905
116.4 627.776 -83.1962
143.347 606.735 -83.1786
161.622 628.996 -77.4711
114.436 625.264 -83.2042
97.3518 602.315 -77.5181
123.233 582.114 -77.503
141.383 604.224 -83.1866
95.5427 600 -76.3033
81.1014 580.569 -60.0296
106.076 561.081 -60.0158
121.424 579.799 -76.2882
79.718 578.797 -57.7716
70.0913 565.839 -33.3983
94.4597 546.828 -33.3833
104.693 559.309 -57.7578
69.3432 564.882 -30.4452
65.9671 560.366 -1.75527
90.1245 541.522 -1.73978
93.7115 545.871 -30.4302
92.7675 539.359 1.45588
96.3391 543.758 30.1277
119.77 523.613 30.1419
115.991 519.391 1.47099
97.1301 544.681 33.0772
107.34 557.169 57.4073
131.359 536.517 57.4194
120.561 524.536 33.0914
108.806 558.873 59.6623
124.153 577.595 75.929
149.049 556.185 75.9376
132.824 538.221 59.6745
126.071 579.821 77.1426
144.226 601.929 82.8177
170.149 579.626 82.8198
150.966 558.411 77.1512
146.307 604.343 82.8083
164.59 626.594 77.0913
191.541 603.394 77.092
172.23 582.041 82.8105
166.518 628.831 75.8678
182.037 647.73 59.6456
209.865 623.764 59.6492
193.469 605.631 75.8685
183.513 649.442 57.3933
193.903 662.091 33.0698
222.318 637.612 33.0788
211.341 625.476 57.397
194.702 663.018 30.1273
198.354 667.459 1.39554
226.976 642.799 1.41138
223.117 638.538 30.1363
198.354 667.458 -1.78986
194.708 663.001 -30.52
223.123 638.522 -30.4974
226.976 642.798 -1.77402
193.909 662.073 -33.4621
183.529 649.406 -57.7805
211.356 625.441 -57.7532
222.325 637.594 -33.4396
182.054 647.692 -60.032
166.545 628.777 -76.246
193.494 605.578 -76.2164
209.881 623.727 -60.0047
164.618 626.539 -77.4685
146.343 604.279 -83.1759
172.264 581.977 -83.1485
191.567 603.34 -77.4389
144.263 601.864 -83.1843
126.112 579.754 -77.5008
151.005 558.344 -77.4807
170.183 579.562 -83.1569
124.195 577.528 -76.2865
108.848 558.81 -60.014
132.863 538.158 -59.9985
149.088 556.118 -76.2664
107.381 557.106 -57.7562
97.1484 544.625 -33.3817
120.576 524.479 -33.3666
131.397 536.455 -57.7406
96.3553 543.705 -30.4285
92.7683 539.356 -1.73812
115.992 519.388 -1.72301
119.783 523.559 -30.4135
118.528 517.102 1.47255
122.307 521.324 30.1435
144.745 500.086 30.1551
140.763 496.05 1.4873
123.142 522.208 33.0926
133.94 534.189 57.4206
156.948 512.42 57.4236
145.58 500.97 33.1042
135.485 535.821 59.6748
151.71 553.785 75.938
175.568 531.219 75.9259
158.493 514.052 59.6779
153.731 555.916 77.1501
172.914 577.132 82.8188
197.763 553.631 82.7821
177.59 533.351 77.1381
175.106 579.444 82.8079
194.417 600.798 77.0894
220.221 576.325 77.0304
199.955 555.943 82.7712
196.446 602.938 75.8655
212.843 621.071 59.6462
239.459 595.761 59.5923
222.251 578.464 75.8065
214.397 622.709 57.3951
225.374 634.844 33.0769
252.532 608.974 33.0513
241.013 597.399 57.3412
226.215 635.731 30.1367
230.074 639.992 1.41179
257.422 613.924 1.42731
253.373 609.86 30.111
230.074 639.991 -1.77096
226.221 635.715 -30.4944
253.378 609.845 -30.4378
257.422 613.923 -1.75544
225.38 634.827 -33.4343
214.412 622.674 -57.7479
241.026 597.366 -57.6636
252.538 608.957 -33.3778
212.859 621.034 -59.9983
196.472 602.885 -76.21
222.274 578.413 -76.1212
239.474 595.726 -59.914
194.443 600.744 -77.433
175.14 579.38 -83.1426
199.986 555.881 -83.0771
220.245 576.272 -77.3442
172.948 577.068 -83.1527
153.77 555.85 -77.4765
177.626 533.285 -77.4364
197.795 553.568 -83.0871
151.749 553.718 -76.2637
135.524 535.758 -59.9957
158.529 513.989 -59.9718
175.604 531.153 -76.2236
133.977 534.127 -57.7386
123.156 522.151 -33.3646
145.591 500.913 -33.3476
156.982 512.358 -57.7147
122.32 521.27 -30.4118
118.528 517.099 -1.7213
140.764 496.047 -1.70654
144.754 500.032 -30.3947
143.187 493.642 1.48876
147.169 497.678 30.1565
168.557 475.387 30.1678
164.382 471.547 1.50311
148.046 498.521 33.105
159.414 509.972 57.4245
181.348 487.122 57.4273
169.434 476.23 33.1163
161.037 511.528 59.6774
178.112 528.694 75.9254
200.861 505.004 75.9131
182.971 488.678 59.6802
180.234 530.727 77.1354
200.408 551.007 82.7795
224.12 526.317 82.7434
202.983 507.037 77.1231
202.706 553.21 82.7659
222.973 573.591 77.025
247.618 547.861 76.9678
226.419 528.52 82.7298
225.098 575.627 75.8002
242.307 592.924 59.586
267.735 566.312 59.5344
249.744 549.897 75.7431
243.934 594.483 57.3368
255.453 606.057 33.0469
281.401 578.854 33.0226
269.362 567.87 57.2852
256.334 606.901 30.1105
260.382 610.964 1.42675
286.513 583.554 1.44183
282.282 579.698 30.0861
260.383 610.964 -1.75149
256.339 606.885 -30.4339
282.287 579.683 -30.3796
286.513 583.553 -1.73642
255.459 606.04 -33.37
243.947 594.449 -57.6558
269.374 567.838 -57.5747
281.406 578.838 -33.3157
242.321 592.889 -59.9044
225.121 575.576 -76.1117
249.765 549.848 -76.0257
267.748 566.278 -59.8233
222.996 573.539 -77.3357
202.737 553.148 -83.0686
226.447 528.46 -83.0046
247.64 547.81 -77.2497
200.439 550.945 -83.0814
180.27 530.661 -77.4306
203.016 506.972 -77.3912
224.149 526.256 -83.0174
178.148 528.628 -76.2201
161.072 511.465 -59.9683
183.004 488.616 -59.9447
200.894 504.94 -76.1807
159.448 509.909 -57.7124
148.056 498.464 -33.3453
169.441 476.174 -33.3287
181.379 487.061 -57.6889
147.178 497.624 -30.3929
143.187 493.639 -1.70481
164.383 471.544 -1.69045
168.563 475.334 -30.3763
166.687 469.025 1.50458
170.862 472.866 30.1693
191.147 449.564 30.1824
186.789 445.93 1.51847
171.779 473.665 33.1174
183.693 484.557 57.4283
204.492 460.665 57.4387
192.064 450.363 33.1304
185.39 486.033 59.6805
203.28 502.359 75.9133
224.847 477.581 75.9192
206.189 462.141 59.6908
205.498 504.287 77.1219
226.635 523.567 82.7422
249.109 497.74 82.7428
227.066 479.509 77.1279
229.037 525.654 82.7273
250.236 544.995 76.9653
273.62 518.114 76.9669
251.511 499.827 82.7279
252.456 546.924 75.7402
270.447 563.339 59.5315
294.602 535.566 59.5372
275.84 520.043 75.7419
272.146 564.815 57.2835
284.185 575.799 33.0209
308.854 547.431 33.0308
296.301 537.042 57.2891
285.104 576.598 30.0866
289.336 580.455 1.44225
314.185 551.877 1.45684
309.773 548.23 30.0964
289.336 580.454 -1.73355
285.109 576.584 -30.3767
309.777 548.216 -30.3575
314.185 551.876 -1.71896
284.19 575.783 -33.3108
272.158 564.783 -57.5697
296.311 537.012 -57.5468
308.858 547.416 -33.2916
270.46 563.305 -59.8173
252.477 546.875 -76.0197
275.859 519.996 -75.9935
294.613 535.534 -59.7943
250.258 544.945 -77.2441
229.065 525.594 -82.999
251.537 499.769 -82.9725
273.64 518.066 -77.2179
226.663 523.506 -83.0132
205.53 504.222 -77.387
227.095 479.446 -77.3667
249.135 497.681 -82.9868
203.312 502.295 -76.1779
185.422 485.971 -59.942
206.218 462.08 -59.9267
224.877 477.518 -76.1576
183.724 484.496 -57.687
171.786 473.609 -33.3268
192.067 450.308 -33.3129
204.52 460.605 -57.6717
170.867 472.812 -30.3747
166.687 469.022 -1.68882
186.79 445.928 -1.67494
191.149 449.511 -30.3608
188.969 443.299 1.51995
193.327 446.933 30.1838
212.459 422.668 30.1965
207.929 419.251 1.53327
194.281 447.687 33.1317
206.71 457.989 57.44
226.327 433.108 57.4504
213.413 423.422 33.1444
208.476 459.38 59.6918
227.135 474.821 75.9202
247.477 449.018 75.9282
228.093 434.5 59.7022
229.443 476.639 77.1285
251.487 494.87 82.7434
272.683 467.978 82.7507
249.786 450.836 77.1365
253.987 496.838 82.7285
276.096 515.125 76.9675
298.151 487.143 76.9774
275.183 469.946 82.7358
278.407 516.944 75.7427
297.168 532.467 59.538
319.953 503.559 59.5499
300.461 488.962 75.7526
298.936 533.859 57.2902
311.489 544.248 33.0319
334.762 514.721 33.0452
321.721 504.951 57.3022
312.446 545.002 30.0979
316.858 548.649 1.45828
340.302 518.905 1.47249
335.719 515.475 30.1112
316.858 548.648 -1.71721
312.451 544.988 -30.3558
335.723 515.462 -30.3409
340.302 518.904 -1.70301
311.494 544.233 -33.2896
298.947 533.829 -57.5448
321.73 504.922 -57.5289
334.766 514.707 -33.2747
297.179 532.435 -59.7921
278.426 516.897 -75.9912
300.478 488.917 -75.974
319.963 503.528 -59.7762
276.115 515.077 -77.2154
254.012 496.78 -82.9701
275.206 469.89 -82.951
298.168 487.097 -77.1982
251.513 494.811 -82.9844
229.473 476.576 -77.3644
249.812 450.775 -77.3468
272.706 467.922 -82.9654
227.164 474.758 -76.1557
208.505 459.32 -59.9249
228.119 434.441 -59.9106
247.503 448.957 -76.1382
206.737 457.929 -57.6701
194.285 447.632 -33.3113
213.413 423.368 -33.298
226.351 433.05 -57.6559
193.328 446.88 -30.3593
188.969 443.297 -1.67343
207.929 419.248 -1.6601
212.457 422.617 -30.3459
209.98 416.516 1.53467
214.509 419.933 30.1979
232.446 394.759 30.2095
227.755 391.566 1.54735
215.499 420.64 33.1456
228.413 430.326 57.4516
246.805 404.515 57.4606
233.436 395.466 33.1573
230.244 431.631 59.7031
249.628 446.149 75.9291
268.698 419.384 75.9356
248.636 405.82 59.7121
252.022 447.853 77.1372
274.919 464.996 82.7515
294.788 437.105 82.7583
271.092 421.088 77.1438
277.511 466.841 82.7367
300.479 484.037 76.9784
321.151 455.02 76.9881
297.38 438.95 82.7435
302.875 485.743 75.7538
322.366 500.339 59.5511
343.724 470.361 59.5629
323.548 456.725 75.7635
324.2 501.644 57.3035
337.241 511.414 33.0466
359.058 480.793 33.0597
345.558 471.666 57.3153
338.234 512.121 30.1127
342.816 515.551 1.47398
364.795 484.704 1.48758
360.051 481.5 30.1258
342.816 515.55 -1.70143
338.237 512.108 -30.3393
360.054 481.488 -30.3254
364.795 484.703 -1.68783
337.245 511.4 -33.273
324.209 501.616 -57.5272
345.566 471.639 -57.5125
359.062 480.78 -33.2591
322.376 500.309 -59.7744
302.891 485.698 -75.9722
323.562 456.682 -75.956
343.733 470.333 -59.7597
300.496 483.991 -77.1963
277.534 466.785 -82.9491
297.401 438.897 -82.9307
321.167 454.976 -77.1801
274.942 464.939 -82.9634
252.048 447.793 -77.3448
271.115 421.03 -77.327
294.809 437.051 -82.945
249.654 446.089 -76.1364
230.27 431.572 -59.9088
248.658 405.763 -59.8942
268.722 419.326 -76.1186
228.437 430.268 -57.6543
215.499 420.586 -33.2964
233.432 395.414 -33.2834
246.826 404.459 -57.6398
214.507 419.882 -30.3445
209.979 416.514 -1.65864
227.755 391.563 -1.64596
232.44 394.71 -30.3315
229.67 388.734 1.54864
234.362 391.927 30.2108
251.064 365.9 30.2216
246.222 362.938 1.5606
235.385 392.585 33.1583
248.754 401.635 57.4617
265.879 374.953 57.4689
252.087 366.558 33.169
250.646 402.849 59.7128
270.708 416.413 75.9364
288.464 388.75 75.9404
267.771 376.167 59.7201
273.181 418 77.1444
296.877 434.017 82.7588
315.374 405.196 82.7631
290.937 390.336 77.1484
299.555 435.735 82.7443
323.326 451.805 76.9889
342.57 421.822 76.9967
318.052 406.914 82.7486
325.802 453.393 75.7646
345.979 467.028 59.564
365.862 436.052 59.5747
345.046 423.41 75.7724
347.874 468.243 57.3166
361.374 477.37 33.061
381.686 445.727 33.0731
367.757 437.267 57.3273
362.4 478.028 30.1272
367.144 481.232 1.48899
387.607 449.354 1.50185
382.712 446.384 30.1394
367.144 481.231 -1.68633
362.403 478.016 -30.3239
382.715 446.374 -30.3106
387.607 449.354 -1.67347
361.378 477.357 -33.2575
347.882 468.217 -57.5109
367.764 437.242 -57.4967
381.69 445.715 -33.2442
345.988 467 -59.758
325.817 453.35 -75.9543
345.059 423.37 -75.9377
365.87 436.026 -59.7437
323.342 451.761 -77.1781
299.575 435.682 -82.9287
318.07 406.864 -82.9093
342.584 421.78 -77.1615
296.898 433.964 -82.9429
273.204 417.942 -77.3249
290.957 390.281 -77.3061
315.392 405.145 -82.9235
270.731 416.356 -76.1167
250.668 402.793 -59.8924
267.79 376.113 -59.8774
288.484 388.695 -76.0979
248.774 401.579 -57.6382
235.381 392.534 -33.2819
252.079 366.509 -33.2694
265.897 374.899 -57.6233
234.356 391.878 -30.3301
229.67 388.732 -1.64455
246.221 362.935 -1.6326
251.055 365.853 -30.3176
247.999 360.014 1.56178
252.841 362.977 30.2228
268.272 336.154 30.2325
263.29 333.428 1.57293
253.895 363.585 33.1699
267.687 371.979 57.4698
283.508 344.487 57.4753
269.326 336.762 33.1797
269.636 373.102 59.7205
290.328 385.684 75.9408
306.73 357.188 75.9418
285.457 345.609 59.726
292.874 387.15 77.1486
317.312 402.01 82.7634
334.395 372.329 82.7646
309.276 358.654 77.1496
320.069 403.598 82.7491
344.587 418.506 76.9973
362.359 387.631 77.0028
337.153 373.917 82.7503
347.137 419.972 75.7733
367.953 432.615 59.5756
386.317 400.714 59.5849
364.909 389.098 75.7789
369.905 433.736 57.3285
383.834 442.196 33.0743
402.597 409.605 33.0855
388.269 401.836 57.3378
384.891 442.802 30.1407
389.786 445.773 1.50317
408.689 412.939 1.51535
403.654 410.212 30.152
389.786 445.772 -1.67203
384.894 442.792 -30.3091
403.657 410.202 -30.2962
408.689 412.938 -1.65986
383.838 442.184 -33.2426
369.912 433.711 -57.4951
388.276 401.813 -57.4808
402.601 409.594 -33.2297
367.961 432.588 -59.742
347.15 419.932 -75.936
364.921 389.06 -75.9186
386.324 400.69 -59.7277
344.601 418.464 -77.1595
320.087 403.548 -82.9072
337.168 373.869 -82.8862
362.372 387.592 -77.1421
317.33 401.96 -82.9212
292.894 387.096 -77.3039
309.293 358.603 -77.2833
334.411 372.281 -82.9002
290.348 385.63 -76.0959
269.654 373.048 -59.8755
285.473 345.559 -59.86
306.747 357.136 -76.0753
267.704 371.926 -57.6217
253.887 363.536 -33.2678
269.314 336.716 -33.2558
283.523 344.437 -57.6063
252.832 362.93 -30.3162
247.998 360.012 -1.63126
263.29 333.425 -1.62011
268.259 336.11 -30.3042
264.925 330.419 1.57401
269.906 333.146 30.2336
284.033 305.585 30.2424
278.924 303.099 1.58427
270.989 333.703 33.1804
285.171 341.428 57.4759
299.655 313.187 57.4793
285.115 306.143 33.1891
287.172 342.456 59.7261
308.444 354.035 75.9419
323.456 324.773 75.9392
301.655 314.215 59.7295
311.058 355.378 77.1495
336.177 369.053 82.7645
351.809 338.584 82.7621
326.069 326.116 77.1469
339.007 370.507 82.7505
364.214 384.222 77.003
380.476 352.532 77.0058
354.64 340.039 82.7481
366.832 385.563 75.7795
388.24 397.18 59.5856
405.046 364.433 59.5933
383.094 353.874 75.7824
390.244 398.205 57.3388
404.572 405.974 33.0866
421.746 372.512 33.0967
407.05 365.458 57.3465
405.658 406.528 30.1532
410.693 409.256 1.51657
427.995 375.543 1.52787
422.831 373.066 30.1634
410.693 409.255 -1.65849
405.661 406.519 -30.2949
422.834 373.058 -30.2827
427.995 375.542 -1.64719
404.576 405.963 -33.2282
390.251 398.182 -57.4793
407.057 365.437 -57.4651
421.749 372.503 -33.216
388.247 397.156 -59.7259
366.844 385.526 -75.9168
383.104 353.839 -75.8984
405.053 364.411 -59.7117
364.226 384.183 -77.1399
339.023 370.46 -82.884
354.654 339.995 -82.861
380.487 352.496 -77.1215
336.192 369.005 -82.8978
311.075 355.327 -77.2808
326.085 326.069 -77.2583
351.823 338.54 -82.8748
308.461 353.984 -76.0732
287.187 342.406 -59.8579
301.668 314.169 -59.8419
323.471 324.726 -76.0506
285.185 341.378 -57.6047
270.977 333.657 -33.2542
285.101 306.1 -33.243
299.666 313.141 -57.5888
269.894 333.102 -30.303
264.924 330.417 -1.61883
278.923 303.096 -1.60857
284.017 305.545 -30.2917
280.413 300.012 1.58523
285.522 302.499 30.2434
298.314 274.258 30.2511
293.09 272.013 1.59454
286.63 303.004 33.1896
301.169 310.049 57.4797
314.284 281.122 57.4806
299.422 274.763 33.1973
303.216 310.982 59.7292
325.017 321.54 75.939
338.608 291.583 75.932
316.332 282.055 59.73
327.691 322.758 77.1463
353.431 335.226 82.7615
367.58 304.047 82.7551
341.282 292.801 77.1393
356.328 336.544 82.7479
382.164 349.038 77.0057
396.882 316.612 77.0056
370.477 305.365 82.7415
384.844 350.251 75.7828
406.796 360.811 59.5937
422.01 327.293 59.5998
399.562 317.825 75.7827
408.849 361.736 57.3474
423.544 368.79 33.0976
439.092 334.535 33.1068
424.062 328.218 57.3535
424.656 369.29 30.1645
429.82 371.766 1.52899
445.486 337.252 1.53943
440.204 335.035 30.1737
429.82 371.766 -1.6459
424.659 369.282 -30.2814
440.207 335.028 -30.2699
445.486 337.252 -1.63547
423.548 368.781 -33.2145
408.855 361.715 -57.4636
424.069 328.2 -57.4495
439.096 334.527 -33.203
406.803 360.789 -59.7098
384.855 350.217 -75.8965
399.572 317.794 -75.8767
422.016 327.274 -59.6957
382.175 349.002 -77.1191
356.342 336.501 -82.8586
370.489 305.325 -82.8332
396.892 316.579 -77.0994
353.445 335.182 -82.8721
327.706 322.711 -77.2556
341.296 292.758 -77.2302
367.593 304.006 -82.8467
325.032 321.493 -76.0483
303.229 310.936 -59.8396
316.342 282.013 -59.8228
338.621 291.539 -76.0229
301.18 310.003 -57.5871
286.615 302.962 -33.2413
299.405 274.724 -33.2308
314.293 281.08 -57.5703
285.506 302.458 -30.2905
280.412 300.01 -1.60737
293.089 272.011 -1.59806
298.296 274.221 -30.28
294.429 268.853 1.59536
299.654 271.098 30.2519
311.087 242.233 30.2585
305.758 240.229 1.60369
300.785 271.552 33.1975
315.647 277.911 57.4807
327.368 248.36 57.4787
312.218 242.687 33.2041
317.736 278.748 59.7293
340.013 288.276 75.9312
352.155 257.694 75.919
329.457 249.197 59.7272
342.741 289.369 77.1382
369.039 300.615 82.754
381.675 268.804 82.7431
354.884 258.787 77.126
371.995 301.795 82.7409
398.4 313.041 77.005
411.545 279.961 77.0016
384.631 269.985 82.73
401.136 314.124 75.7828
423.584 323.592 59.5999
437.176 289.384 59.6045
414.281 281.043 75.7794
425.681 324.414 57.3542
440.71 330.73 33.1075
454.603 295.76 33.1158
439.272 290.206 57.3587
441.846 331.174 30.1747
447.127 333.392 1.54045
461.125 298.156 1.55005
455.738 296.204 30.183
447.127 333.392 -1.63427
441.849 331.167 -30.2687
455.741 296.198 -30.258
461.125 298.156 -1.62468
440.714 330.723 -33.2015
425.687 324.396 -57.448
439.278 290.19 -57.4341
454.607 295.754 -33.1908
423.591 323.573 -59.6937
401.146 314.093 -75.8747
414.291 281.015 -75.8534
437.182 289.367 -59.6798
398.41 313.009 -77.0967
372.007 301.755 -82.8306
384.643 269.948 -82.8025
411.555 279.931 -77.0754
369.052 300.574 -82.8436
342.754 289.326 -77.2272
354.895 258.749 -77.1983
381.687 268.768 -82.8155
340.026 288.233 -76.0203
317.747 278.706 -59.8201
329.466 249.16 -59.8021
352.167 257.656 -75.9914
315.656 277.869 -57.5686
300.767 271.514 -33.2291
312.198 242.652 -33.2193
327.375 248.323 -57.5505
299.636 271.062 -30.2789
294.428 268.852 -1.59693
305.757 240.227 -1.5886
311.066 242.2 -30.2691
306.946 237.004 1.60436
312.275 239.007 30.2591
322.326 209.569 30.2644
316.905 207.805 1.6116
313.427 239.409 33.2039
328.577 245.083 57.4786
338.882 214.968 57.4732
323.478 209.972 33.2092
330.703 245.825 59.7259
353.401 254.322 75.9177
364.073 223.189 75.8994
341.008 215.71 59.7205
356.177 255.29 77.1243
382.968 265.307 82.7414
394.07 232.95 82.7255
366.849 224.157 77.1061
385.977 266.348 82.7289
412.89 276.324 77.0005
424.439 242.671 76.993
397.078 233.991 82.713
415.677 277.271 75.7791
438.571 285.612 59.6042
450.517 250.791 59.6074
427.226 243.619 75.7716
440.707 286.328 57.3593
456.037 291.882 33.1163
468.248 256.276 33.1235
452.652 251.507 57.3624
457.194 292.268 30.1839
462.58 294.22 1.55097
474.882 258.343 1.55939
469.404 256.662 30.1911
462.58 294.22 -1.62361
457.197 292.263 -30.257
469.408 256.659 -30.2476
474.882 258.343 -1.61519
456.041 291.876 -33.1894
440.713 286.312 -57.4327
452.659 251.494 -57.4198
468.252 256.272 -33.1801
438.578 285.596 -59.6776
415.686 277.243 -75.8513
427.235 243.593 -75.8282
450.524 250.777 -59.6647
412.9 276.294 -77.0725
385.989 266.312 -82.7996
397.09 233.958 -82.7687
424.449 242.644 -77.0495
382.98 265.27 -82.8121
356.188 255.252 -77.1949
366.86 224.124 -77.1621
394.081 232.917 -82.7811
353.412 254.284 -75.9885
330.711 245.788 -59.7991
341.015 215.679 -59.7797
364.084 223.156 -75.9557
328.584 245.046 -57.5487
313.406 239.375 -33.2175
323.456 209.943 -33.2085
338.888 214.937 -57.5293
312.254 238.974 -30.268
306.945 237.002 -1.58754
316.904 207.804 -1.58031
322.304 209.542 -30.2591
317.94 204.519 1.61209
323.36 206.283 30.2649
332.015 176.323 30.2682
326.514 174.794 1.61815
324.53 206.635 33.2087
339.934 211.631 57.4727
348.808 181.012 57.4629
333.184 176.675 33.212
342.092 212.28 59.7186
365.157 219.759 75.8975
374.343 188.149 75.8722
350.966 181.661 59.7088
367.974 220.603 77.1037
395.195 229.396 82.7231
404.743 196.584 82.7011
377.16 188.993 77.0784
398.249 230.297 82.7114
425.61 238.977 76.9914
435.546 204.836 76.9799
407.797 197.485 82.6894
428.44 239.786 75.7711
451.732 246.958 59.6068
462.011 211.602 59.6091
438.376 205.644 75.7596
453.901 247.564 57.3629
469.496 252.333 33.124
480 216.171 33.1297
464.181 212.207 57.3652
470.67 252.66 30.1919
476.148 254.34 1.56018
486.728 217.903 1.56727
481.174 216.498 30.1976
476.149 254.34 -1.61427
470.674 252.657 -30.2467
481.179 216.497 -30.2386
486.728 217.902 -1.60719
469.5 252.329 -33.1789
453.908 247.551 -57.4185
464.188 212.198 -57.4077
480.005 216.17 -33.1708
451.739 246.945 -59.6625
428.45 239.76 -75.8261
438.387 205.621 -75.8019
462.02 211.591 -59.6516
425.62 238.951 -77.0464
398.26 230.265 -82.7655
407.809 197.456 -82.7312
435.557 204.812 -77.0222
395.206 229.364 -82.7773
367.985 220.57 -77.1583
377.171 188.966 -77.1208
404.755 196.555 -82.743
365.168 219.726 -75.9522
342.099 212.249 -59.7763
350.973 181.637 -59.7545
374.354 188.122 -75.9148
339.94 211.6 -57.5274
324.508 206.606 -33.2066
333.161 176.653 -33.1978
348.813 180.988 -57.5057
323.338 206.256 -30.2581
317.939 204.517 -1.57931
326.512 174.793 -1.57324
331.991 176.303 -30.2492
327.393 171.452 1.61832
332.895 172.981 30.2684
340.152 142.547 30.2655
334.583 141.245 1.62324
334.079 173.284 33.2108
349.703 177.621 57.4617
357.142 146.555 57.4416
341.336 142.85 33.2079
351.887 178.18 59.7058
375.265 184.668 75.8692
382.956 152.66 75.8327
359.326 147.115 59.6858
378.115 185.393 77.075
405.698 192.983 82.6977
413.681 159.816 82.6627
385.806 153.385 77.0385
408.792 193.743 82.687
436.54 201.094 76.9775
444.847 166.543 76.9623
416.774 160.576 82.652
439.407 201.759 75.7587
463.043 207.716 59.6083
471.632 171.897 59.6093
447.714 167.207 75.7435
465.24 208.208 57.3654
481.059 212.171 33.1299
489.821 175.53 33.1316
473.829 172.389 57.3665
482.248 212.438 30.1982
487.802 213.842 1.56784
496.62 176.922 1.57319
491.009 175.796 30.1998
487.802 213.843 -1.6064
482.253 212.437 -30.2378
491.016 175.799 -30.2292
496.621 176.922 -1.60105
481.064 212.17 -33.1697
465.248 208.198 -57.4066
473.84 172.383 -57.3982
489.828 175.532 -33.1611
463.051 207.706 -59.6495
439.418 201.736 -75.7998
447.728 167.187 -75.7754
471.643 171.891 -59.6411
436.551 201.07 -77.0186
408.804 193.715 -82.7276
416.788 160.552 -82.683
444.86 166.521 -76.9942
405.71 192.955 -82.7383
378.126 185.366 -77.1162
385.819 153.364 -77.0697
413.694 159.792 -82.6937
375.275 184.641 -75.9106
351.895 178.157 -59.7503
359.334 147.1 -59.72
382.968 152.639 -75.8641
349.708 177.598 -57.5032
334.056 173.263 -33.1953
341.314 142.838 -33.1822
357.148 146.541 -57.4729
332.871 172.961 -30.2482
327.392 171.451 -1.57216
334.582 141.245 -1.56724
340.129 142.536 -30.2351
335.312 137.854 1.62224
340.881 139.155 30.2645
346.805 108.306 30.229
341.192 107.225 1.62602
342.077 139.412 33.2036
357.882 143.117 57.4374
363.927 111.675 57.3625
348.001 108.562 33.1681
360.086 143.591 59.6788
383.715 149.137 75.8257
389.922 116.824 75.7301
366.131 112.149 59.6039
386.591 149.749 77.0308
414.465 156.18 82.6551
420.863 122.768 82.5556
392.798 117.436 76.9352
417.59 156.798 82.6464
445.662 162.764 76.9568
452.296 127.866 76.9133
423.987 123.386 82.547
448.558 163.277 75.7409
472.475 167.967 59.6067
479.291 131.746 59.578
455.191 128.379 75.6974
474.692 168.34 57.3652
490.684 171.481 33.1302
497.592 134.425 33.1072
481.508 132.12 57.3364
491.882 171.687 30.1995
497.493 172.812 1.57285
504.431 135.476 1.57531
498.791 134.63 30.1765
497.494 172.813 -1.59986
491.889 171.69 -30.228
498.801 134.638 -30.2005
504.432 135.476 -1.5974
490.691 171.484 -33.159
474.703 168.335 -57.396
481.524 132.119 -57.3628
497.603 134.433 -33.1315
472.487 167.96 -59.6376
448.571 163.257 -75.7719
455.209 128.361 -75.7225
479.307 131.744 -59.6045
445.676 162.743 -76.9877
417.604 156.773 -82.6766
424.005 123.365 -82.5697
452.314 127.847 -76.9383
414.479 156.156 -82.6852
386.604 149.728 -77.0611
392.814 117.422 -76.9568
420.881 122.748 -82.5783
383.728 149.117 -75.856
360.094 143.578 -59.712
366.144 112.147 -59.6272
389.938 116.811 -75.7518
357.889 143.104 -57.4675
342.054 139.401 -33.1769
347.982 108.564 -33.1326
363.938 111.674 -57.3828
340.858 139.145 -30.2331
335.311 137.854 -1.56519
341.191 107.225 -1.56141
346.786 108.308 -30.1888
341.8 103.798 1.6188
347.413 104.879 30.2217
352.448 73.774 30.0017
346.861 72.9041 1.61987
348.611 105.091 33.147
364.537 108.204 57.3414
369.51 76.5492 56.9421
353.646 73.9866 32.927
366.743 108.601 59.573
390.534 113.275 75.6991
395.416 80.8394 75.1857
371.716 76.9459 59.1736
393.416 113.78 76.9012
421.481 119.113 82.5217
426.271 85.5779 82.0084
398.297 81.3442 76.3879
424.615 119.581 82.5175
452.924 124.062 76.8838
457.647 88.8367 76.4882
429.405 86.0464 82.0042
455.823 124.411 75.6749
479.924 127.778 59.5555
484.529 91.1712 59.2169
460.547 89.1857 75.2793
482.143 128.03 57.3201
498.227 130.335 33.0909
502.767 92.8823 32.8887
486.748 91.4228 56.9816
499.427 130.478 30.1701
505.068 131.324 1.56888
509.59 93.5893 1.55796
503.966 93.0253 29.9679
505.068 131.324 -1.59167
499.437 130.486 -30.1948
503.976 93.0375 -30.0053
509.59 93.5899 -1.60259
498.239 130.343 -33.1149
482.159 128.03 -57.3463
486.776 91.4275 -56.9959
502.778 92.8948 -32.9255
479.941 127.776 -59.581
455.842 124.393 -75.699
460.575 89.1699 -75.2905
484.557 91.174 -59.2306
452.942 124.043 -76.9078
424.634 119.561 -82.5392
429.433 86.0297 -82.0162
457.675 88.8199 -76.4992
421.499 119.093 -82.5434
393.433 113.767 -76.9219
398.322 81.3382 -76.4004
426.298 85.5616 -82.0203
390.551 113.263 -75.7198
366.757 108.6 -59.5952
371.739 76.959 -59.1845
395.441 80.8346 -75.1983
364.548 108.204 -57.3607
348.592 105.095 -33.1105
353.638 74.0076 -32.8844
369.531 76.5634 -56.95
347.394 104.882 -30.1808
341.799 103.798 -1.55347
346.86 72.9047 -1.55239
352.439 73.7946 -29.9547
347.538 69.5101 1.57608
353.126 70.38 29.9579
360.219 39.962 28.6588
354.897 39.1871 1.57321
354.291 70.5605 32.805
370.155 73.1231 56.8201
376.495 42.4183 54.4468
361.384 40.1425 31.5059
372.304 73.4606 58.9962
396.004 77.354 75.0083
401.252 46.1471 71.9556
378.645 42.7558 56.623
398.811 77.7777 76.1843
426.784 82.0113 81.8049
430.769 50.2963 78.5528
404.058 46.5707 73.1316
429.825 82.3924 81.8091
458.067 85.1826 76.2931
460.64 53.655 73.181
433.81 50.6774 78.557
460.896 85.4597 75.1187
484.878 87.4452 59.0563
486.211 56.1514 56.6269
463.469 53.9321 72.0066
487.047 87.6443 56.8733
503.066 89.1038 32.7805
503.611 57.8681 31.4512
488.381 56.3505 54.4439
504.24 89.2172 29.9285
509.863 89.7812 1.51856
510.133 58.5189 1.50726
504.785 57.9815 28.5992
509.864 89.7808 -1.56563
504.25 89.2284 -29.9684
504.784 57.951 -28.6489
510.133 58.5186 -1.57693
503.077 89.1146 -32.817
487.075 87.6473 -56.8874
488.411 56.3215 -54.4421
503.611 57.8372 -31.4976
484.907 87.4474 -59.0683
460.925 85.4433 -75.1282
463.501 53.9169 -72.0054
486.243 56.1216 -56.6229
458.096 85.1662 -76.3029
429.853 82.376 -81.8199
433.842 50.6673 -78.5608
460.672 53.6398 -73.1802
426.812 81.9958 -81.8159
398.836 77.7723 -76.196
404.086 46.5744 -73.1402
430.801 50.2871 -78.5568
396.03 77.3508 -75.0204
372.328 73.4751 -59.0066
378.665 42.7937 -56.6356
401.28 46.1528 -71.9645
370.176 73.1394 -56.8277
354.283 70.5835 -32.7621
361.371 40.1865 -31.4688
376.513 42.4579 -54.4567
353.117 70.4017 -29.9109
347.537 69.5118 -1.5086
354.896 39.1888 -1.51147
360.205 40.0047 -28.6176
355.749 35.8622 1.48793
361.071 36.6371 28.5735
369.06 6.98437 26.7999
364.067 6.30977 1.47961
362.172 36.7962 31.2644
377.283 39.0721 54.2054
384.327 9.13963 50.9305
370.161 7.14347 29.4908
379.316 39.3674 56.2629
401.922 42.7587 71.5955
407.545 12.3867 67.3022
386.36 9.43493 52.9881
404.576 43.1305 72.7086
431.287 46.8562 78.1298
435.195 16.0634 73.4418
410.199 12.7586 68.4152
434.161 47.2154 78.1304
460.991 50.193 72.7544
463.105 19.3507 68.3956
438.069 16.4226 73.4425
463.653 50.4835 71.6396
486.395 52.7027 56.26
486.961 21.9631 52.912
465.766 19.6411 67.2809
488.435 52.9149 54.1974
503.665 54.4324 31.2047
503.162 23.7313 29.3888
489.001 22.1752 50.8495
504.77 54.5474 28.5126
510.117 55.0849 1.42058
509.232 24.3654 1.43281
504.267 23.8463 26.6967
510.117 55.0822 -1.48983
504.768 54.5146 -28.5618
504.263 23.781 -26.7258
509.232 24.3627 -1.4776
503.665 54.3972 -31.2501
488.465 52.8815 -54.1946
489.02 22.117 -50.8413
503.159 23.6637 -29.4141
486.427 52.6715 -56.2551
463.684 50.4667 -71.6376
465.788 19.6266 -67.2789
486.982 21.9069 -52.9018
461.022 50.1782 -72.753
434.192 47.2057 -78.1336
438.09 16.4162 -73.4435
463.127 19.3381 -68.3943
431.318 46.8475 -78.1333
404.604 43.1348 -72.7167
410.218 12.7653 -68.4201
435.216 16.058 -73.4433
401.95 42.7658 -71.6043
379.336 39.4068 -56.2755
386.366 9.49169 -53.0013
407.563 12.3964 -67.3077
377.301 39.1142 -54.2159
362.158 36.8427 -31.228
370.139 7.211 -29.4677
384.331 9.1991 -50.9418
361.056 36.681 -28.5335
355.748 35.8651 -1.42733
364.066 6.31267 -1.43564
369.037 7.04925 -26.7731
365.092 3.28472 1.34987
370.084 3.95933 26.6701
380.263 -21.1627 23.7819
375.841 -21.7842 1.33017
371.091 4.09937 29.126
385.258 6.09552 50.5658
393.869 -19.2637 45.2681
381.27 -21.0226 26.2378
387.119 6.35227 52.4431
408.304 9.30405 66.7572
414.614 -16.4803 59.8147
395.73 -19.0069 47.1454
410.731 9.63021 67.7691
435.728 12.935 72.7957
439.278 -13.2073 65.2168
417.041 -16.1541 60.8265
438.351 13.2716 72.7925
463.387 16.1996 67.7457
464.084 -9.94144 60.6883
441.901 -12.8707 65.2136
465.812 16.4962 66.7285
487.006 18.8181 52.3596
485.271 -7.17168 46.9513
466.509 -9.64492 59.6711
488.863 19.0418 50.4812
503.025 20.5979 29.0205
499.64 -5.30019 26.1093
487.128 -6.94802 45.0729
504.03 20.7178 26.5693
508.995 21.2368 1.30544
505.034 -4.6027 1.32546
500.645 -5.18033 23.6581
508.995 21.2348 -1.34603
504.025 20.6532 -26.5942
500.644 -5.18312 -23.6586
505.034 -4.60465 -1.32601
503.021 20.5314 -29.0448
488.882 18.9847 -50.472
487.128 -6.95271 -45.073
499.64 -5.3049 -26.1092
487.025 18.763 -52.35
465.832 16.4827 -66.7271
466.51 -9.64741 -59.6709
485.271 -7.1744 -46.951
463.407 16.1876 -67.7443
438.371 13.2658 -72.7935
441.902 -12.8718 -65.2134
464.085 -9.94253 -60.6881
435.748 12.9297 -72.7968
410.749 9.63704 -67.7736
417.042 -16.1544 -60.8265
439.279 -13.2078 -65.2167
408.32 9.31252 -66.7618
387.123 6.40784 -52.4554
395.73 -19.0053 -47.1455
414.614 -16.479 -59.8147
385.262 6.15326 -50.5776
371.069 4.16516 -29.1035
381.269 -21.0188 -26.2375
393.868 -19.2599 -45.2678
370.062 4.02327 -26.647
365.091 3.28668 -1.30951
375.84 -21.7823 -1.32922
380.262 -21.1607 -23.781
-308.933 730.532 25.3709
-310.131 725.527 -0.392421
-308.881 730.506 -26.1576
-305.397 744.699 -47.9692
-300.241 765.923 -62.4951
-294.325 790.95 -67.5643
-288.743 816.055 -62.4879
-284.246 837.457 -47.9918
-281.29 851.807 -26.2014
-280.265 856.862 -0.444492
-281.328 851.841 25.3168
-284.3 837.509 47.1166
-288.805 816.12 61.6275
-294.39 791.02 66.7238
-300.3 765.988 61.6742
-305.459 744.75 47.1701
382.635 -22.3863 1.76393e-05
387.057 -21.7648 22.4517
399.656 -20.0058 41.4821
418.54 -17.4792 54.1513
440.777 -14.5323 58.5415
462.96 -11.603 54.0162
481.721 -9.1298 41.2965
494.234 -7.48197 22.3329
498.623 -6.90434 0.000247942
494.233 -7.48281 -22.3323
481.721 -9.13061 -41.2962
462.96 -11.6036 -54.016
440.777 -14.5328 -58.5413
418.54 -17.4795 -54.1511
399.656 -20.0059 -41.482
387.057 -21.7648 -22.4517
</DataArray>
</Points>
<Cells>
<DataArray type="Int32" Name="connectivity" format="ascii">
0 1 2 3 
4 5 6 7 
8 9 10 11 
12 13 14 15 
16 17 18 19 
20 21 22 23 
24 25 26 27 
28 29 30 31 
32 33 34 35 
36 37 38 39 
40 41 42 43 
44 45 46 47 
48 49 50 51 
52 53 54 55 
56 57 58 59 
60 61 62 63 
64 65 66 67 
68 69 70 71 
72 73 74 75 
76 77 78 79 
80 81 82 83 
84 85 86 87 
88 89 90 91 
92 93 94 95 
96 97 98 99 
100 101 102 103 
104 105 106 107 
108 109 110 111 
112 113 114 115 
116 117 118 119 
120 121 122 123 
124 125 126 127 
128 129 130 131 
132 133 134 135 
136 137 138 139 
140 141 142 143 
144 145 146 147 
148 149 150 151 
152 153 154 155 
156 157 158 159 
160 161 162 163 
164 165 166 167 
168 169 170 171 
172 173 174 175 
176 177 178 179 
180 181 182 183 
184 185 186 187 
188 189 190 191 
192 193 194 195 
196 197 198 199 
200 201 202 203 
204 205 206 207 
208 209 210 211 
212 213 214 215 
216 217 218 219 
220 221 222 223 
224 225 226 227 
228 229 230 231 
232 233 234 235 
236 237 238 239 
240 241 242 243 
244 245 246 247 
248 249 250 251 
252 253 254 255 
256 257 258 259 
260 261 262 263 
264 265 266 267 
268 269 270 271 
272 273 274 275 
276 277 278 279 
280 281 282 283 
284 285 286 287 
288 289 290 291 
292 293 294 295 
296 297 298 299 
300 301 302 303 
304 305 306 307 
308 309 310 311 
312 313 314 315 
316 317 318 319 
320 321 322 323 
324 325 326 327 
328 329 330 331 
332 333 334 335 
336 337 338 339 
340 341 342 343 
344 345 346 347 
348 349 350 351 
352 353 354 355 
356 357 358 359 
360 361 362 363 
364 365 366 367 
368 369 370 371 
372 373 374 375 
376 377 378 379 
380 381 382 383 
384 385 386 387 
388 389 390 391 
392 393 394 395 
396 397 398 399 
400 401 402 403 
404 405 406 407 
408 409 410 411 
412 413 414 415 
416 417 418 419 
420 421 422 423 
424 425 426 427 
428 429 430 431 
432 433 434 435 
436 437 438 439 
440 441 442 443 
444 445 446 447 
448 449 450 451 
452 453 454 455 
456 457 458 459 
460 461 462 463 
464 465 466 467 
468 469 470 471 
472 473 474 475 
476 477 478 479 
480 481 482 483 
484 485 486 487 
488 489 490 491 
492 493 494 495 
496 497 498 499 
500 501 502 503 
504 505 506 507 
508 509 510 511 
512 513 514 515 
516 517 518 519 
520 521 522 523 
524 525 526 527 
528 529 530 531 
532 533 534 535 
536 537 538 539 
540 541 542 543 
544 545 546 547 
548 549 550 551 
552 553 554 555 
556 557 558 559 
560 561 562 563 
564 565 566 567 
568 569 570 571 
572 573 574 575 
576 577 578 579 
580 581 582 583 
584 585 586 587 
588 589 590 591 
592 593 594 595 
596 597 598 599 
600 601 602 603 
604 605 606 607 
608 609 610 611 
612 613 614 615 
616 617 618 619 
620 621 622 623 
624 625 626 627 
628 629 630 631 
632 633 634 635 
636 637 638 639 
640 641 642 643 
644 645 646 647 
648 649 650 651 
652 653 654 655 
656 657 658 659 
660 661 662 663 
664 665 666 667 
668 669 670 671 
672 673 674 675 
676 677 678 679 
680 681 682 683 
684 685 686 687 
688 689 690 691 
692 693 694 695 
696 697 698 699 
700 701 702 703 
704 705 706 707 
708 709 710 711 
712 713 714 715 
716 717 718 719 
720 721 722 723 
724 725 726 727 
728 729 730 731 
732 733 734 735 
736 737 738 739 
740 741 742 743 
744 745 746 747 
748 749 750 751 
752 753 754 755 
756 757 758 759 
760 761 762 763 
764 765 766 767 
768 769 770 771 
772 773 774 775 
776 777 778 779 
780 781 782 783 
784 785 786 787 
788 789 790 791 
792 793 794 795 
796 797 798 799 
800 801 802 803 
804 805 806 807 
808 809 810 811 
812 813 814 815 
816 817 818 819 
820 821 822 823 
824 825 826 827 
828 829 830 831 
832 833 834 835 
836 837 838 839 
840 841 842 843 
844 845 846 847 
848 849 850 851 
852 853 854 855 
856 857 858 859 
860 861 862 863 
864 865 866 867 
868 869 870 871 
872 873 874 875 
876 877 878 879 
880 881 882 883 
884 885 886 887 
888 889 890 891 
892 893 894 895 
896 897 898 899 
900 901 902 903 
904 905 906 907 
908 909 910 911 
912 913 914 915 
916 917 918 919 
920 921 922 923 
924 925 926 927 
928 929 930 931 
932 933 934 935 
936 937 938 939 
940 941 942 943 
944 945 946 947 
948 949 950 951 
952 953 954 955 
956 957 958 959 
960 961 962 963 
964 965 966 967 
968 969 970 971 
972 973 974 975 
976 977 978 979 
980 981 982 983 
984 985 986 987 
988 989 990 991 
992 993 994 995 
996 997 998 999 
1000 1001 1002 1003 
1004 1005 1006 1007 
1008 1009 1010 1011 
1012 1013 1014 1015 
1016 1017 1018 1019 
1020 1021 1022 1023 
1024 1025 1026 1027 
1028 1029 1030 1031 
1032 1033 1034 1035 
1036 1037 1038 1039 
1040 1041 1042 1043 
1044 1045 1046 1047 
1048 1049 1050 1051 
1052 1053 1054 1055 
1056 1057 1058 1059 
1060 1061 1062 1063 
1064 1065 1066 1067 
1068 1069 1070 1071 
1072 1073 1074 1075 
1076 1077 1078 1079 
1080 1081 1082 1083 
1084 1085 1086 1087 
1088 1089 1090 1091 
1092 1093 1094 1095 
1096 1097 1098 1099 
1100 1101 1102 1103 
1104 1105 1106 1107 
1108 1109 1110 1111 
1112 1113 1114 1115 
1116 1117 1118 1119 
1120 1121 1122 1123 
1124 1125 1126 1127 
1128 1129 1130 1131 
1132 1133 1134 1135 
1136 1137 1138 1139 
1140 1141 1142 1143 
1144 1145 1146 1147 
1148 1149 1150 1151 
1152 1153 1154 1155 
1156 1157 1158 1159 
1160 1161 1162 1163 
1164 1165 1166 1167 
1168 1169 1170 1171 
1172 1173 1174 1175 
1176 1177 1178 1179 
1180 1181 1182 1183 
1184 1185 1186 1187 
1188 1189 1190 1191 
1192 1193 1194 1195 
1196 1197 1198 1199 
1200 1201 1202 1203 
1204 1205 1206 1207 
1208 1209 1210 1211 
1212 1213 1214 1215 
1216 1217 1218 1219 
1220 1221 1222 1223 
1224 1225 1226 1227 
1228 1229 1230 1231 
1232 1233 1234 1235 
1236 1237 1238 1239 
1240 1241 1242 1243 
1244 1245 1246 1247 
1248 1249 1250 1251 
1252 1253 1254 1255 
1256 1257 1258 1259 
1260 1261 1262 1263 
1264 1265 1266 1267 
1268 1269 1270 1271 
1272 1273 1274 1275 
1276 1277 1278 1279 
1280 1281 1282 1283 
1284 1285 1286 1287 
1288 1289 1290 1291 
1292 1293 1294 1295 
1296 1297 1298 1299 
1300 1301 1302 1303 
1304 1305 1306 1307 
1308 1309 1310 1311 
1312 1313 1314 1315 
1316 1317 1318 1319 
1320 1321 1322 1323 
1324 1325 1326 1327 
1328 1329 1330 1331 
1332 1333 1334 1335 
1336 1337 1338 1339 
1340 1341 1342 1343 
1344 1345 1346 1347 
1348 1349 1350 1351 
1352 1353 1354 1355 
1356 1357 1358 1359 
1360 1361 1362 1363 
1364 1365 1366 1367 
1368 1369 1370 1371 
1372 1373 1374 1375 
1376 1377 1378 1379 
1380 1381 1382 1383 
1384 1385 1386 1387 
1388 1389 1390 1391 
1392 1393 1394 1395 
1396 1397 1398 1399 
1400 1401 1402 1403 
1404 1405 1406 1407 
1408 1409 1410 1411 
1412 1413 1414 1415 
1416 1417 1418 1419 
1420 1421 1422 1423 
1424 1425 1426 1427 
1428 1429 1430 1431 
1432 1433 1434 1435 
1436 1437 1438 1439 
1440 1441 1442 1443 
1444 1445 1446 1447 
1448 1449 1450 1451 
1452 1453 1454 1455 
1456 1457 1458 1459 
1460 1461 1462 1463 
1464 1465 1466 1467 
1468 1469 1470 1471 
1472 1473 1474 1475 
1476 1477 1478 1479 
1480 1481 1482 1483 
1484 1485 1486 1487 
1488 1489 1490 1491 
1492 1493 1494 1495 
1496 1497 1498 1499 
1500 1501 1502 1503 
1504 1505 1506 1507 
1508 1509 1510 1511 
1512 1513 1514 1515 
1516 1517 1518 1519 
1520 1521 1522 1523 
1524 1525 1526 1527 
1528 1529 1530 1531 
1532 1533 1534 1535 
1536 1537 1538 1539 
1540 1541 1542 1543 
1544 1545 1546 1547 
1548 1549 1550 1551 
1552 1553 1554 1555 
1556 1557 1558 1559 
1560 1561 1562 1563 
1564 1565 1566 1567 
1568 1569 1570 1571 
1572 1573 1574 1575 
1576 1577 1578 1579 
1580 1581 1582 1583 
1584 1585 1586 1587 
1588 1589 1590 1591 
1592 1593 1594 1595 
1596 1597 1598 1599 
1600 1601 1602 1603 
1604 1605 1606 1607 
1608 1609 1610 1611 
1612 1613 1614 1615 
1616 1617 1618 1619 
1620 1621 1622 1623 
1624 1625 1626 1627 
1628 1629 1630 1631 
1632 1633 1634 1635 
1636 1637 1638 1639 
1640 1641 1642 1643 
1644 1645 1646 1647 
1648 1649 1650 1651 
1652 1653 1654 1655 
1656 1657 1658 1659 
1660 1661 1662 1663 
1664 1665 1666 1667 
1668 1669 1670 1671 
1672 1673 1674 1675 
1676 1677 1678 1679 
1680 1681 1682 1683 
1684 1685 1686 1687 
1688 1689 1690 1691 
1692 1693 1694 1695 
1696 1697 1698 1699 
1700 1701 1702 1703 
1704 1705 1706 1707 
1708 1709 1710 1711 
1712 1713 1714 1715 
1716 1717 1718 1719 
1720 1721 1722 1723 
1724 1725 1726 1727 
1728 1729 1730 1731 
1732 1733 1734 1735 
1736 1737 1738 1739 
1740 1741 1742 1743 
1744 1745 1746 1747 
1748 1749 1750 1751 
1752 1753 1754 1755 
1756 1757 1758 1759 
1760 1761 1762 1763 
1764 1765 1766 1767 
1768 1769 1770 1771 
1772 1773 1774 1775 
1776 1777 1778 1779 
1780 1781 1782 1783 
1784 1785 1786 1787 
1788 1789 1790 1791 
1792 1793 1794 1795 
1796 1797 1798 1799 
1800 1801 1802 1803 
1804 1805 1806 1807 
1808 1809 1810 1811 
1812 1813 1814 1815 
1816 1817 1818 1819 
1820 1821 1822 1823 
1824 1825 1826 1827 
1828 1829 1830 1831 
1832 1833 1834 1835 
1836 1837 1838 1839 
1840 1841 1842 1843 
1844 1845 1846 1847 
1848 1849 1850 1851 
1852 1853 1854 1855 
1856 1857 1858 1859 
1860 1861 1862 1863 
1864 1865 1866 1867 
1868 1869 1870 1871 
1872 1873 1874 1875 
1876 1877 1878 1879 
1880 1881 1882 1883 
1884 1885 1886 1887 
1888 1889 1890 1891 
1892 1893 1894 1895 
1896 1897 1898 1899 
1900 1901 1902 1903 
1904 1905 1906 1907 
1908 1909 1910 1911 
1912 1913 1914 1915 
1916 1917 1918 1919 
1920 1921 1922 1923 
1924 1925 1926 1927 
1928 1929 1930 1931 
1932 1933 1934 1935 
1936 1937 1938 1939 
1940 1941 1942 1943 
1944 1945 1946 1947 
1948 1949 1950 1951 
1952 1953 1954 1955 
1956 1957 1958 1959 
1960 1961 1962 1963 
1964 1965 1966 1967 
1968 1969 1970 1971 
1972 1973 1974 1975 
1976 1977 1978 1979 
1980 1981 1982 1983 
1984 1985 1986 1987 
1988 1989 1990 1991 
1992 1993 1994 1995 
1996 1997 1998 1999 
2000 2001 2002 2003 
2004 2005 2006 2007 
2008 2009 2010 2011 
2012 2013 2014 2015 
2016 2017 2018 2019 
2020 2021 2022 2023 
2024 2025 2026 2027 
2028 2029 2030 2031 
2032 2033 2034 2035 
2036 2037 2038 2039 
2040 2041 2042 2043 
2044 2045 2046 2047 
2048 2049 2050 2051 2052 2053 2054 2055 2056 2057 2058 2059 2060 2061 2062 2063 
2064 2065 2066 2067 2068 2069 2070 2071 2072 2073 2074 2075 2076 2077 2078 2079 
</DataArray>
<DataArray type="Int32" Name="offsets" format="ascii">
4 8 12 16 20 24 28 32 36 40 44 48 52 56 60 64 68 72 76 80 84 88 92 96 100 104 108 112 116 120 124 128 132 136 140 144 148 152 156 160 164 168 172 176 180 184 188 192 196 200 204 208 212 216 220 224 228 232 236 240 244 248 252 256 260 264 268 272 276 280 284 288 292 296 300 304 308 312 316 320 324 328 332 336 340 344 348 352 356 360 364 368 372 376 380 384 388 392 396 400 404 408 412 416 420 424 428 432 436 440 444 448 452 456 460 464 468 472 476 480 484 488 492 496 500 504 508 512 516 520 524 528 532 536 540 544 548 552 556 560 564 568 572 576 580 584 588 592 596 600 604 608 612 616 620 624 628 632 636 640 644 648 652 656 660 664 668 672 676 680 684 688 692 696 700 704 708 712 716 720 724 728 732 736 740 744 748 752 756 760 764 768 772 776 780 784 788 792 796 800 804 808 812 816 820 824 828 832 836 840 844 848 852 856 860 864 868 872 876 880 884 888 892 896 900 904 908 912 916 920 924 928 932 936 940 944 948 952 956 960 964 968 972 976 980 984 988 992 996 1000 1004 1008 1012 1016 1020 1024 1028 1032 1036 1040 1044 1048 1052 1056 1060 1064 1068 1072 1076 1080 1084 1088 1092 1096 1100 1104 1108 1112 1116 1120 1124 1128 1132 1136 1140 1144 1148 1152 1156 1160 1164 1168 1172 1176 1180 1184 1188 1192 1196 1200 1204 1208 1212 1216 1220 1224 1228 1232 1236 1240 1244 1248 1252 1256 1260 1264 1268 1272 1276 1280 1284 1288 1292 1296 1300 1304 1308 1312 1316 1320 1324 1328 1332 1336 1340 1344 1348 1352 1356 1360 1364 1368 1372 1376 1380 1384 1388 1392 1396 1400 1404 1408 1412 1416 1420 1424 1428 1432 1436 1440 1444 1448 1452 1456 1460 1464 1468 1472 1476 1480 1484 1488 1492 1496 1500 1504 1508 1512 1516 1520 1524 1528 1532 1536 1540 1544 1548 1552 1556 1560 1564 1568 1572 1576 1580 1584 1588 1592 1596 1600 1604 1608 1612 1616 1620 1624 1628 1632 1636 1640 1644 1648 1652 1656 1660 1664 1668 1672 1676 1680 1684 1688 1692 1696 1700 1704 1708 1712 1716 1720 1724 1728 1732 1736 1740 1744 1748 1752 1756 1760 1764 1768 1772 1776 1780 1784 1788 1792 1796 1800 1804 1808 1812 1816 1820 1824 1828 1832 1836 1840 1844 1848 1852 1856 1860 1864 1868 1872 1876 1880 1884 1888 1892 1896 1900 1904 1908 1912 1916 1920 1924 1928 1932 1936 1940 1944 1948 1952 1956 1960 1964 1968 1972 1976 1980 1984 1988 1992 1996 2000 2004 2008 2012 2016 2020 2024 2028 2032 2036 2040 2044 2048 2064 2080 
</DataArray>
<DataArray type="UInt8" Name="types" format="ascii">
7 7 7 7 7 7 7 7 7 7 7 7 7 7 7 7 7 7 7 7 7 7 7 7 7 7 7 7 7 7 7 7 7 7 7 7 7 7 7 7 7 7 7 7 7 7 7 7 7 7 7 7 7 7 7 7 7 7 7 7 7 7 7 7 7 7 7 7 7 7 7 7 7 7 7 7 7 7 7 7 7 7 7 7 7 7 7 7 7 7 7 7 7 7 7 7 7 7 7 7 7 7 7 7 7 7 7 7 7 7 7 7 7 7 7 7 7 7 7 7 7 7 7 7 7 7 7 7 7 7 7 7 7 7 7 7 7 7 7 7 7 7 7 7 7 7 7 7 7 7 7 7 7 7 7 7 7 7 7 7 7 7 7 7 7 7 7 7 7 7 7 7 7 7 7 7 7 7 7 7 7 7 7 7 7 7 7 7 7 7 7 7 7 7 7 7 7 7 7 7 7 7 7 7 7 7 7 7 7 7 7 7 7 7 7 7 7 7 7 7 7 7 7 7 7 7 7 7 7 7 7 7 7 7 7 7 7 7 7 7 7 7 7 7 7 7 7 7 7 7 7 7 7 7 7 7 7 7 7 7 7 7 7 7 7 7 7 7 7 7 7 7 7 7 7 7 7 7 7 7 7 7 7 7 7 7 7 7 7 7 7 7 7 7 7 7 7 7 7 7 7 7 7 7 7 7 7 7 7 7 7 7 7 7 7 7 7 7 7 7 7 7 7 7 7 7 7 7 7 7 7 7 7 7 7 7 7 7 7 7 7 7 7 7 7 7 7 7 7 7 7 7 7 7 7 7 7 7 7 7 7 7 7 7 7 7 7 7 7 7 7 7 7 7 7 7 7 7 7 7 7 7 7 7 7 7 7 7 7 7 7 7 7 7 7 7 7 7 7 7 7 7 7 7 7 7 7 7 7 7 7 7 7 7 7 7 7 7 7 7 7 7 7 7 7 7 7 7 7 7 7 7 7 7 7 7 7 7 7 7 7 7 7 7 7 7 7 7 7 7 7 7 7 7 7 7 7 7 7 7 7 7 7 7 7 7 7 7 7 7 7 7 7 7 7 7 7 7 7 7 7 7 7 7 7 7 7 7 7 7 7 7 7 7 7 7 7 7 7 7 7 7 7 7 7 7 7 7 7 7 7 7 7 7 
</DataArray>
</Cells>
<CellData Scalars="cell variable 4" Vectors="cell vector">
<DataArray type="Float64" NumberOfComponents="3" Name="cell vector" format="ascii">
0.133294 0.151534 0.979423
0.386017 0.414005 0.824373
0.527203 0.630439 0.56974
0.432446 0.871716 0.23044
-0.0689712 0.968959 -0.237406
-0.114605 0.810403 -0.574554
0.0533848 -0.546791 0.835565
0.0136557 -0.192742 0.981154
-0.00546927 0.193293 0.981126
-0.0511913 0.547465 0.835262
-0.114144 0.810864 0.573995
-0.0705208 0.968972 0.236897
0.42359 0.876274 -0.229599
0.517992 0.636991 -0.5709
-0.365134 -0.425948 0.827795
-0.144009 -0.146121 0.978729
0.0640078 0.185426 0.980571
0.184075 0.525996 0.830328
0.260924 0.789884 0.554978
0.248155 0.948742 0.195725
0.15233 0.9687 -0.195998
0.128744 0.821105 -0.556068
-0.0949565 -0.54778 0.831216
-0.0346073 -0.192145 0.980756
0.0353727 0.192686 0.980623
0.0950373 0.548349 0.830832
0.129091 0.821407 0.555542
0.150693 0.969087 0.195353
0.244258 0.949648 -0.196232
0.258855 0.790132 -0.555595
-0.183795 -0.525421 0.830754
-0.0673561 -0.183854 0.980643
0.0629999 0.185799 0.980566
0.180526 0.527368 0.830237
0.260643 0.790549 0.554164
0.239238 0.951175 0.195016
0.134089 0.971898 -0.193479
0.141181 0.819872 -0.554867
-0.104153 -0.546426 0.831006
-0.037978 -0.191543 0.980749
0.03727 0.192435 0.980602
0.103936 0.54707 0.830609
0.142898 0.819919 0.554358
0.13246 0.972281 0.192675
0.236319 0.951775 -0.195649
0.260255 0.790342 -0.554641
-0.180807 -0.526728 0.830582
-0.0648024 -0.184577 0.980679
0.0650137 0.184941 0.980597
0.187207 0.524827 0.830368
0.27853 0.784603 0.553913
0.288353 0.937608 0.194278
0.727891 -0.678684 0.097788
0.962946 -0.26845 0.0258775
0.971407 -0.237189 0.0104949
0.972911 -0.231159 0.00316501
0.972883 -0.231284 -0.00261224
0.971312 -0.2376 -0.00996359
0.96317 -0.267794 -0.0242952
0.764704 -0.638447 -0.0872528
0.286602 0.938053 -0.194719
0.279383 0.784113 -0.554177
-0.187615 -0.524275 0.830624
-0.0660745 -0.183899 0.980722
0.0671859 0.183677 0.980688
0.192987 0.521783 0.830962
0.29015 0.779969 0.554492
0.337511 0.921121 0.193966
-0.667214 0.737734 -0.102827
0.946811 -0.320658 0.0269704
0.957459 -0.288366 0.0108498
0.959505 -0.281673 0.00313934
0.959473 -0.281792 -0.00238093
0.957325 -0.288831 -0.0102159
0.94674 -0.32096 -0.0258455
0.806204 -0.587983 -0.0656551
0.338784 0.920623 -0.194108
0.291222 0.779503 -0.554585
-0.193398 -0.521367 0.831128
-0.0678899 -0.1828 0.980803
0.0713057 0.18156 0.980791
0.205157 0.516042 0.831632
0.310569 0.771569 0.555183
0.372851 0.907351 0.194154
0.723595 -0.685357 0.0818257
0.932485 -0.360411 0.0240039
0.942703 -0.333453 0.0109522
0.945027 -0.326977 0.00322969
0.945062 -0.326882 -0.00232759
0.942867 -0.333024 -0.00983803
0.932767 -0.359744 -0.0230254
0.860727 -0.507556 -0.039196
0.372476 0.907481 -0.194266
0.310144 0.771671 -0.555279
-0.205298 -0.515723 0.831795
-0.0720924 -0.180616 0.980908
0.0770279 0.1788 0.980865
0.221432 0.508373 0.832181
0.335484 0.760552 0.555888
0.40505 0.893415 0.194277
0.821796 -0.568018 0.0448081
0.917538 -0.39717 0.0195033
0.926219 -0.37684 0.0104473
0.928655 -0.370929 0.00332831
0.928731 -0.370749 -0.00218894
0.926514 -0.37615 -0.00911636
0.917646 -0.396942 -0.019037
0.864053 -0.502557 -0.0291518
0.404417 0.893649 -0.194522
0.334691 0.760753 -0.55609
-0.221374 -0.50799 0.83243
-0.0776687 -0.177715 0.981012
0.0836978 0.175499 0.980915
0.239994 0.499198 0.832589
0.36301 0.747376 0.556464
0.43757 0.87793 0.194348
0.864853 -0.501615 0.0202915
0.900982 -0.433594 0.0150771
0.907839 -0.419212 0.00948374
0.910201 -0.414154 0.00336685
0.910245 -0.414066 -0.00198794
0.907915 -0.419072 -0.00834142
0.900408 -0.434786 -0.0150428
0.868944 -0.494591 -0.0177713
0.440019 0.876637 -0.194658
0.363277 0.74707 -0.556701
-0.240004 -0.49868 0.832896
-0.0840023 -0.174357 0.981093
0.0906862 0.171777 0.980953
0.259725 0.488721 0.832883
0.39218 0.732169 0.556887
0.471696 0.860063 0.194408
0.86811 -0.496277 0.00972829
0.882328 -0.470499 0.0112935
0.887542 -0.460655 0.00807372
0.88969 -0.456555 0.00305279
0.889712 -0.456519 -0.0018142
0.887544 -0.460669 -0.00706262
0.881924 -0.471267 -0.0108365
0.868621 -0.495405 -0.00849704
0.473365 0.859074 -0.194724
0.39272 0.731716 -0.557103
-0.259934 -0.488078 0.833195
-0.0909696 -0.170532 0.981144
0.0978063 0.167651 0.980983
0.280053 0.47699 0.833097
0.422366 0.714949 0.557185
0.506075 0.840279 0.194471
0.855735 -0.517389 0.0051694
0.861423 -0.50782 0.00830709
0.865306 -0.501201 0.00652291
0.867146 -0.498046 0.00261292
0.867158 -0.498031 -0.00149641
0.8653 -0.501224 -0.00553407
0.86123 -0.50816 -0.00753172
0.855925 -0.517085 -0.00405827
0.506874 0.83973 -0.194762
0.422796 0.714541 -0.557382
-0.280361 -0.476276 0.833402
-0.0981721 -0.166295 0.981177
0.104999 0.16311 0.981005
0.300611 0.464025 0.833255
0.45297 0.695786 0.557405
0.540376 0.818631 0.194519
0.837319 -0.546709 0.00259552
0.838294 -0.545186 0.00600024
0.841106 -0.540846 0.00505755
0.842599 -0.538538 0.00215446
0.842606 -0.538529 -0.00111044
0.841108 -0.540852 -0.00406607
0.838228 -0.545297 -0.00507287
0.837412 -0.54657 -0.00153945
0.540564 0.818445 -0.19478
0.45324 0.695469 -0.557581
-0.300962 -0.463265 0.833551
-0.105427 -0.161655 0.9812
0.112202 0.158143 0.981021
0.321117 0.449864 0.83337
0.483474 0.674813 0.557566
0.574873 0.79478 0.194542
0.813169 -0.582026 0.00159695
0.813004 -0.582243 0.00421955
0.814973 -0.579487 0.00376316
0.816115 -0.577886 0.00172331
0.816123 -0.577878 -0.000706982
0.814983 -0.579478 -0.00277
0.812978 -0.582286 -0.00326319
0.812988 -0.582279 -0.000657281
0.574838 0.794748 -0.194776
0.483647 0.674564 -0.557718
-0.32147 -0.449084 0.833655
-0.112628 -0.156622 0.981216
0.119348 0.152753 0.981031
0.341417 0.434508 0.833449
0.513686 0.652025 0.557665
0.609129 0.768842 0.194534
0.784298 -0.620382 0.00158227
0.785627 -0.618695 0.00282944
0.786932 -0.617034 0.00263757
0.787739 -0.616008 0.00132143
0.787746 -0.616 -0.000331342
0.786951 -0.617013 -0.00164832
0.785623 -0.618703 -0.00186972
0.783924 -0.620857 -0.000722752
0.608953 0.768929 -0.194743
0.513809 0.651822 -0.557789
-0.341758 -0.433714 0.833723
-0.119724 -0.151191 0.981228
0.126416 0.146928 0.981036
0.361469 0.41791 0.833482
0.543576 0.627313 0.557678
0.642779 0.740967 0.194429
0.751444 -0.659794 0.00200841
0.756252 -0.654279 0.00152012
0.756907 -0.653521 0.00161615
0.75738 -0.652974 0.000957577
0.757389 -0.652964 2.55208e-05
0.756926 -0.653501 -0.000646899
0.756236 -0.654299 -0.000594028
0.751012 -0.660288 -0.00118153
0.642587 0.741086 -0.194612
0.543698 0.627122 -0.557773
-0.361777 -0.417118 0.833744
-0.126696 -0.145359 0.981233
0.133333 0.140764 0.981024
0.381179 0.400208 0.833389
0.573524 0.600293 0.557421
0.679357 0.707723 0.193911
0.719798 -0.694184 0.00036209
0.724015 -0.689784 -0.000635993
0.72375 -0.690062 -3.01216e-05
0.723754 -0.690058 0.000335498
0.723763 -0.690048 0.000622977
0.723771 -0.690039 0.000979747
0.724 -0.689799 0.00154064
0.719361 -0.694637 0.000442393
0.679134 0.707896 -0.194064
0.573638 0.600123 -0.557486
-0.381444 -0.399428 0.833641
-0.133509 -0.139196 0.981224
0.139945 0.134372 0.980999
0.399876 0.381951 0.833195
0.601338 0.572885 0.556952
0.711512 0.675625 0.193085
-0.687127 0.726537 -5.40068e-07
-0.690685 0.723155 0.00108729
-0.690195 0.723623 0.000596883
-0.689961 0.723846 -9.20012e-05
-0.68997 0.723838 -0.00082165
-0.690218 0.7236 -0.00151048
-0.690681 0.723157 -0.00196569
-0.686789 0.726857 -0.000798674
0.71124 0.675876 -0.193211
0.601437 0.572745 -0.556989
-0.400111 -0.381172 0.833438
-0.14002 -0.132809 0.981201
0.146148 0.127717 0.980984
0.417306 0.363096 0.833077
0.626838 0.545154 0.55667
0.739249 0.645301 0.192607
-0.651631 0.758535 -0.001292
-0.656323 0.75448 1.58627e-05
-0.656266 0.75453 0.000122789
-0.656061 0.754708 -0.000227156
-0.656071 0.754699 -0.000655908
-0.656287 0.754511 -0.000988678
-0.656309 0.754491 -0.000842307
-0.651289 0.75883 0.000531544
0.73902 0.645532 -0.19271
0.626948 0.545016 -0.556681
-0.417521 -0.362309 0.833312
-0.146111 -0.12618 0.981188
0.152008 0.120724 0.980979
0.433887 0.343184 0.833047
0.65169 0.515262 0.556602
0.768914 0.609677 0.192524
-0.616008 0.787739 -0.00101537
-0.619448 0.785038 0.00013839
-0.619332 0.785129 0.000444111
-0.618967 0.785417 -5.56246e-05
-0.618978 0.785408 -0.000794954
-0.619354 0.785111 -0.00127556
-0.619431 0.785051 -0.000926455
-0.615683 0.787994 0.00028565
0.768718 0.6099 -0.192601
0.651806 0.51513 -0.556588
-0.434076 -0.342395 0.833273
-0.151859 -0.119227 0.981185
0.157575 0.113414 0.980973
0.449641 0.322357 0.833012
0.675268 0.484006 0.556553
0.796592 0.57304 0.192525
-0.578254 0.815856 -0.000725429
-0.581298 0.81369 0.000616298
-0.580882 0.813987 0.000941132
-0.58028 0.814417 0.000178321
-0.580291 0.814409 -0.000979658
-0.580908 0.813967 -0.00173352
-0.581298 0.81369 -0.00137406
-0.577907 0.816102 4.31039e-05
0.796373 0.573327 -0.192578
0.675377 0.483898 -0.556515
-0.449801 -0.32157 0.83323
-0.157324 -0.111956 0.98118
0.162797 0.105877 0.980962
0.46437 0.30092 0.832951
0.6972 0.451933 0.556479
0.822021 0.535921 0.192536
-0.538952 0.842336 -0.000466781
-0.542191 0.840254 0.001375
-0.541223 0.840878 0.0016115
-0.540282 0.841484 0.000447588
-0.540294 0.841475 -0.00120721
-0.54125 0.840858 -0.00235343
-0.542189 0.840254 -0.00208111
-0.538566 0.842583 -0.000159543
0.821807 0.536238 -0.192566
0.697313 0.451833 -0.556419
-0.4645 -0.300136 0.833161
-0.162442 -0.104476 0.981171
0.167631 0.0981984 0.980947
0.477952 0.279131 0.832855
0.717317 0.419428 0.55636
0.845135 0.498673 0.192542
-0.49875 0.866746 -0.000141352
-0.502389 0.864638 0.00247518
-0.50053 0.865716 0.00250617
-0.499107 0.86654 0.000756382
-0.499123 0.86653 -0.00149147
-0.500556 0.865698 -0.00319809
-0.502345 0.864662 -0.00310009
-0.498339 0.866982 -0.000430699
0.845018 0.498867 -0.192551
0.71745 0.419305 -0.556281
-0.478051 -0.278354 0.833059
-0.167165 -0.0968818 0.981157
0.172044 0.0904818 0.980925
0.490322 0.257236 0.832715
0.73554 0.386837 0.556182
0.865889 0.461697 0.19254
-0.458545 0.888671 0.000420434
-0.462179 0.886778 0.00402032
-0.458951 0.888454 0.00366666
-0.456879 0.889528 0.00114145
-0.456898 0.889517 -0.00182297
-0.458982 0.888435 -0.00429931
-0.462138 0.886796 -0.00458541
-0.458072 0.888915 -0.000919224
0.865774 0.461918 -0.192529
0.735661 0.386747 -0.556083
-0.490402 -0.256446 0.832912
-0.171492 -0.0892285 0.981137
0.176037 0.0828025 0.980895
0.501449 0.235514 0.832516
0.751784 0.354638 0.555924
0.884199 0.425588 0.192529
-0.419834 0.9076 0.00150426
-0.421942 0.906602 0.00617416
-0.41661 0.909071 0.0050822
-0.413709 0.910408 0.00156677
-0.413735 0.910395 -0.00221623
-0.41664 0.909054 -0.00565084
-0.42186 0.906637 -0.00664794
-0.419357 0.90782 -0.00194206
0.88417 0.425661 -0.192501
0.75191 0.354554 -0.555809
-0.501514 -0.234701 0.832706
-0.1754 -0.0816369 0.981107
0.179615 0.0752663 0.980853
0.511324 0.214305 0.832239
0.765997 0.323421 0.555561
0.900052 0.390956 0.192512
-0.385645 0.92264 0.00370852
-0.382091 0.92408 0.0091085
-0.373593 0.927569 0.00667506
-0.369713 0.929144 0.00198062
-0.369748 0.929129 -0.00261819
-0.373615 0.927556 -0.00716845
-0.381943 0.924137 -0.00947424
-0.385282 0.92279 -0.00411069
0.900126 0.390803 -0.192472
0.766146 0.323291 -0.555431
-0.511384 -0.213445 0.832423
-0.178894 -0.0742174 0.981065
0.182775 0.0680366 0.980798
0.51995 0.194068 0.831859
0.778173 0.293876 0.555053
0.91353 0.358343 0.19249
-0.362239 0.932048 0.00829248
-0.342944 0.939267 0.0129193
-0.329925 0.943971 0.00828354
-0.324994 0.945713 0.00233139
-0.325042 0.945695 -0.00294817
-0.329942 0.943961 -0.00868505
-0.342733 0.939341 -0.0131646
-0.362009 0.932135 -0.00865106
0.913678 0.357993 -0.192442
0.778343 0.293693 -0.554912
-0.52002 -0.193109 0.832038
-0.181989 -0.0671085 0.981008
0.185515 0.0613399 0.980725
0.527324 0.175463 0.83135
0.788341 0.266841 0.55436
0.924866 0.328001 0.192453
-0.361808 0.932084 0.0177399
-0.304446 0.95237 0.0174469
-0.285505 0.958329 0.00962989
-0.27959 0.960116 0.00254178
-0.279656 0.960095 -0.00313818
-0.285513 0.958323 -0.00991675
-0.304166 0.952457 -0.0175541
-0.362001 0.932002 -0.0181071
0.92508 0.327425 -0.192405
0.788535 0.266566 -0.554216
-0.527418 -0.174336 0.831527
-0.184686 -0.0605586 0.98093
0.187806 0.0555571 0.980634
0.53338 0.159549 0.830692
0.796505 0.243379 0.553485
0.934495 0.299522 0.192371
-0.400965 0.915404 0.0355447
-0.265501 0.963859 0.0219995
-0.23982 0.970762 0.0103424
-0.233163 0.972434 0.00255792
-0.233252 0.972411 -0.00311568
-0.239824 0.97076 -0.0104792
-0.265142 0.96396 -0.0219341
-0.401844 0.915002 -0.0359629
0.934782 0.298644 -0.192339
0.796733 0.24293 -0.553355
-0.53352 -0.158131 0.830874
-0.186971 -0.0549686 0.980826
0.18948 0.0515561 0.98053
0.537709 0.148677 0.829919
0.802296 0.225631 0.552641
0.94361 0.269417 0.192393
-0.45336 0.889516 0.0568041
-0.221169 0.974919 0.0248325
-0.190573 0.98162 0.0102477
-0.18368 0.982983 0.00250237
-0.183795 0.98296 -0.00290955
-0.190584 0.981618 -0.0101663
-0.220776 0.975015 -0.0245848
-0.454385 0.888971 -0.0571465
0.943935 0.268271 -0.192398
0.802558 0.224891 -0.552562
-0.537941 -0.146694 0.830121
-0.188724 -0.0511969 0.980695
0.189953 0.0507024 0.980483
0.53863 0.148212 0.829404
0.802745 0.224894 0.552289
0.952429 0.235068 0.193965
-0.346971 0.936303 0.0542982
-0.152694 0.987929 0.0260736
-0.126359 0.991907 0.0124417
-0.120296 0.99273 0.00392745
-0.120282 0.992734 -0.00334425
-0.126287 0.991921 -0.0120033
-0.15279 0.98791 -0.0262418
-0.348104 0.935854 -0.0547763
0.952907 0.23312 -0.193969
0.803098 0.223496 -0.552344
-0.539119 -0.144907 0.82967
-0.189445 -0.050613 0.980586
0.188906 0.0457858 0.980927
0.536956 0.13392 0.832913
0.805271 0.19633 0.559458
0.969392 0.147289 0.196429
0.979583 0.0182972 -0.200204
0.828015 0.0555398 -0.557948
-0.552283 -0.0498451 0.832166
-0.193894 -0.0188079 0.980842
0.193832 0.0188464 0.980854
0.552268 0.0498252 0.832177
0.827991 0.0559242 0.557946
0.979558 0.0185916 0.200302
0.969565 0.146372 -0.196263
0.805668 0.19482 -0.559415
-0.537745 -0.130522 0.832943
-0.188569 -0.0461742 0.980974
0.189436 0.0401778 0.981071
0.538727 0.117809 0.834203
0.809635 0.170134 0.561735
0.968459 0.150092 0.198897
0.977583 0.0549191 -0.203264
0.825578 0.0537681 -0.561721
-0.55069 -0.048081 0.833324
-0.193262 -0.0180981 0.98098
0.193446 0.0187672 0.980931
0.550695 0.0471635 0.833373
0.825515 0.0534775 0.56184
0.977566 0.0545973 0.203428
0.968666 0.149078 -0.19865
0.81 0.168936 -0.561571
-0.539488 -0.115077 0.834093
-0.188932 -0.0411562 0.981127
0.185654 0.0446981 0.981598
0.524954 0.139921 0.839551
0.785055 0.223384 0.577744
0.95925 0.187681 0.211225
0.972176 -0.0259922 -0.232804
0.816796 -0.00100458 -0.576925
-0.545471 -0.0252125 0.83775
-0.19129 -0.0100743 0.981482
0.191488 0.0119908 0.981422
0.544854 0.0204875 0.838281
0.816634 -0.0023089 0.577151
0.972293 -0.0244285 0.232485
0.959706 0.185893 -0.210734
0.785884 0.221232 -0.577445
-0.527819 -0.133013 0.838877
-0.184499 -0.0476103 0.981679
0.00154184 0.00839981 0.999964
0.00408152 0.000544941 0.999992
</DataArray>
<DataArray type="Float64" Name="cell vector length" format="ascii">
0.141255 0.138304 0.124539 0.0824249 0.113102 0.143221 0.13942 0.134932 0.134786 0.139134 0.143807 0.113787 0.0811462 0.122133 0.147864 0.146847 0.41654 0.394073 0.357002 0.323218 0.347702 0.387652 0.404929 0.40596 0.404744 0.401793 0.387658 0.348632 0.323415 0.357118 0.401716 0.419142 0.525292 0.498508 0.446296 0.392464 0.435437 0.495393 0.511277 0.510861 0.50974 0.508107 0.495563 0.435631 0.392789 0.445879 0.503462 0.526685 0.563897 0.531018 0.458465 0.294176 0.0867237 0.360886 0.51051 0.570325 0.570382 0.511037 0.360996 0.0956785 0.293007 0.457657 0.535508 0.565091 0.587515 0.548629 0.459303 0.28081 0.0529782 0.342146 0.499854 0.562431 0.562308 0.499675 0.34339 0.0755772 0.277225 0.458349 0.553095 0.588645 0.601779 0.55786 0.456844 0.263187 0.0359284 0.33689 0.496402 0.56011 0.560001 0.496202 0.338478 0.0666349 0.258566 0.45569 0.562444 0.602923 0.611169 0.56386 0.455023 0.248951 0.0331004 0.335326 0.494303 0.558587 0.558543 0.494319 0.335215 0.0447791 0.248201 0.453682 0.568558 0.612325 0.617529 0.567883 0.453568 0.238428 0.0375387 0.335304 0.492879 0.557398 0.557403 0.492976 0.335136 0.0381394 0.238448 0.452495 0.572939 0.618746 0.621859 0.570485 0.452309 0.230782 0.0430864 0.33613 0.492035 0.556526 0.556527 0.492006 0.335657 0.0420414 0.231296 0.451742 0.576203 0.623241 0.62481 0.572078 0.451145 0.226166 0.0463519 0.336702 0.491554 0.555932 0.555901 0.491411 0.33616 0.045329 0.226754 0.450939 0.578551 0.626416 0.626769 0.572939 0.449941 0.22159 0.0510033 0.338198 0.491547 0.555581 0.555529 0.491347 0.337661 0.0500834 0.222199 0.449959 0.580124 0.628595 0.628045 0.57329 0.44863 0.217612 0.0552438 0.33981 0.491846 0.555506 0.555446 0.491626 0.339295 0.054381 0.218252 0.448793 0.58112 0.630069 0.628875 0.573275 0.447165 0.21408 0.0589981 0.341481 0.492479 0.55578 0.555722 0.492258 0.34099 0.0581473 0.214774 0.447435 0.581701 0.631081 0.629458 0.573034 0.445462 0.210429 0.0631499 0.343843 0.493888 0.556783 0.556728 0.493665 0.343359 0.0622712 0.211193 0.44582 0.582023 0.631834 0.629848 0.572759 0.443931 0.207597 0.0750151 0.351872 0.499945 0.561967 0.56191 0.499722 0.3514 0.0741269 0.208405 0.444362 0.582282 0.632387 0.630046 0.572493 0.44274 0.200667 0.108865 0.377735 0.519897 0.579381 0.579326 0.519673 0.377268 0.107938 0.201557 0.443231 0.582507 0.632737 0.630083 0.572034 0.441429 0.198868 0.118038 0.38416 0.525017 0.583898 0.583839 0.524774 0.383681 0.117092 0.199804 0.441969 0.582499 0.632916 0.629838 0.571298 0.439969 0.19674 0.119031 0.384945 0.525789 0.584636 0.584572 0.525533 0.38445 0.118044 0.197734 0.440554 0.582189 0.632806 0.629225 0.570371 0.438789 0.195535 0.118917 0.384962 0.526089 0.585031 0.584966 0.525824 0.384456 0.117911 0.196561 0.439411 0.581666 0.632323 0.628261 0.569262 0.437793 0.194978 0.118271 0.384787 0.526392 0.585502 0.585434 0.526116 0.384276 0.117232 0.196049 0.438445 0.580939 0.631488 0.626882 0.5679 0.436909 0.195108 0.116976 0.384469 0.526781 0.586129 0.586059 0.526495 0.383953 0.115931 0.196192 0.437587 0.579936 0.630232 0.624936 0.566164 0.43612 0.196093 0.114833 0.384016 0.527317 0.586942 0.586869 0.527018 0.383497 0.113804 0.197173 0.436826 0.578542 0.628406 0.622182 0.563878 0.435436 0.19825 0.111578 0.383463 0.528073 0.587971 0.587888 0.527753 0.382942 0.110544 0.199353 0.436175 0.576592 0.625776 0.618274 0.560788 0.434887 0.202104 0.106907 0.382934 0.529134 0.589233 0.589137 0.528785 0.382409 0.105917 0.203186 0.435672 0.573849 0.621999 0.612733 0.55655 0.434524 0.208444 0.10062 0.382697 0.530605 0.590728 0.590613 0.530217 0.382165 0.0996783 0.209513 0.435376 0.569996 0.616614 0.604848 0.55067 0.434398 0.218307 0.0932292 0.383289 0.532642 0.592481 0.59234 0.532206 0.38276 0.0923896 0.219329 0.435343 0.564578 0.608929 0.593266 0.542178 0.434265 0.232212 0.0882792 0.385999 0.535694 0.594765 0.594598 0.535213 0.38549 0.0875913 0.233167 0.435326 0.556673 0.59762 0.573853 0.527249 0.431049 0.244759 0.0983137 0.395639 0.542397 0.599751 0.599598 0.541971 0.395244 0.0978982 0.24557 0.432239 0.542588 0.578624 0.527769 0.484497 0.401136 0.211741 0.168855 0.443321 0.571489 0.623702 0.624369 0.573964 0.442966 0.168627 0.212445 0.402444 0.501583 0.533307 0.492712 0.451818 0.383507 0.314369 0.363041 0.433373 0.472787 0.4764 0.47047 0.45691 0.431813 0.363677 0.315455 0.385021 0.47038 0.498803 0.444877 0.404542 0.346283 0.295734 0.315349 0.368951 0.420445 0.426913 0.419411 0.399133 0.367719 0.315939 0.29664 0.347849 0.42447 0.451507 0.220776 0.179786 0.122809 0.0774928 0.108626 0.175307 0.241909 0.257424 0.252004 0.224628 0.176828 0.110007 0.0780428 0.121879 0.198452 0.226601 0.0445866 0.0151589 
</DataArray>
<DataArray type="Float64" Name="cell variable 4" format="ascii">
831.429 834.277 837.745 829.71 843.346 843.371 834.027 829.187 828.592 832.729 843.757 843.61 828.827 835.283 839.622 833.327 1131.75 1122.59 1115.73 1115.07 1133.15 1136.35 1137.17 1134.04 1132.58 1132.64 1136.34 1133.12 1114.43 1115.36 1135.48 1136.02 1347.24 1337.25 1327.94 1322.67 1356.12 1368.46 1373.11 1370.42 1368.54 1366.88 1367.89 1352.22 1322.2 1328.1 1351.46 1351.51 1407.14 1396.35 1385.7 1371.95 1514.48 2230.91 2909.23 3307.65 3306.69 2907.8 2230.54 1511.6 1371.91 1386.39 1411.57 1411.61 1425.4 1413.87 1403.54 1393.77 1519.76 2219.05 2899.17 3300.88 3300.2 2898.8 2224.75 1520.68 1395.51 1404.69 1429.59 1429.88 1430.23 1415.2 1400.62 1391.25 1523.78 2212.32 2886.84 3289.75 3289.25 2886.81 2219.92 1531.53 1393.27 1401.65 1431.62 1434.88 1431.84 1413.89 1396.11 1386.02 1533.95 2212.03 2876.94 3279.01 3278.78 2876.82 2211.14 1531.47 1386.31 1396.58 1431.55 1436.93 1432.45 1412.28 1392.11 1381.09 1546.09 2214.88 2869.83 3269.28 3269.07 2869.25 2213.01 1543.43 1380.96 1392.26 1431.17 1437.92 1432.65 1410.67 1388.56 1376.7 1556.49 2218.82 2865.11 3261.13 3260.77 2864.04 2216.97 1554.5 1377.09 1388.7 1430.83 1438.47 1432.71 1409.1 1385.37 1372.89 1561.44 2220.59 2861.69 3254.86 3254.4 2860.4 2218.88 1559.93 1373.35 1385.57 1430.76 1438.98 1432.63 1407.51 1382.51 1369.52 1567.9 2224.68 2860.28 3250.19 3249.71 2858.99 2223.08 1566.57 1369.92 1382.74 1430.76 1439.42 1432.49 1405.95 1379.92 1366.49 1573.3 2228.61 2859.98 3247.12 3246.65 2858.74 2227.07 1572.02 1366.85 1380.19 1430.79 1439.82 1432.34 1404.43 1377.4 1363.55 1577.34 2231.88 2860.56 3245.68 3245.25 2859.41 2230.38 1576.05 1363.89 1377.7 1430.81 1440.2 1432.08 1402.86 1374.8 1360.09 1580.22 2234.43 2861.77 3245.64 3245.25 2860.71 2232.93 1578.87 1360.41 1375.12 1430.75 1440.47 1431.15 1400.99 1372.54 1357.78 1581.96 2235.95 2863 3246.14 3245.77 2861.99 2234.49 1580.65 1358.12 1372.86 1430.28 1440.04 1429.66 1398.92 1370.85 1357.3 1610.63 2284.83 2925.57 3316.57 3316.21 2924.57 2283.28 1609.19 1357.63 1371.19 1429.53 1439.03 1428.72 1397.29 1369.13 1355.69 1610.26 2283.75 2924.98 3316.09 3315.7 2923.92 2282.12 1608.78 1356.02 1369.48 1429.14 1438.55 1428.3 1396.05 1367.39 1353.38 1610.28 2283.49 2925.64 3317.49 3317.06 2924.53 2281.81 1608.75 1353.73 1367.74 1429.02 1438.56 1427.75 1394.83 1366.02 1352.07 1610.07 2283.17 2926.59 3319.75 3319.35 2925.52 2281.48 1608.53 1352.43 1366.38 1428.86 1438.41 1427.02 1393.64 1364.96 1351.27 1609.21 2282.46 2927.76 3322.84 3322.45 2926.74 2280.76 1607.6 1351.62 1365.34 1428.66 1438.07 1426.17 1392.52 1364.16 1350.82 1607.29 2281.15 2929.32 3326.96 3326.58 2928.34 2279.47 1605.69 1351.2 1364.55 1428.42 1437.57 1425.24 1391.47 1363.62 1350.76 1603.92 2279.11 2931.49 3332.31 3331.91 2930.5 2277.45 1602.39 1351.16 1364.02 1428.17 1436.96 1424.25 1390.54 1363.4 1351.16 1598.64 2276.28 2934.57 3339.21 3338.78 2933.54 2274.59 1597.08 1351.54 1363.82 1427.99 1436.28 1423.23 1389.78 1363.61 1352.12 1590.8 2272.84 2939.08 3347.97 3347.46 2937.94 2271.17 1589.35 1352.5 1364.03 1427.88 1435.53 1422.15 1389.26 1364.39 1353.78 1579.76 2269.33 2945.64 3358.72 3358.07 2944.32 2267.7 1578.44 1354.15 1364.81 1427.92 1434.69 1420.79 1388.91 1365.81 1356.08 1565.37 2267.02 2954.99 3371.38 3370.52 2953.41 2265.43 1564.24 1356.43 1366.22 1428.08 1433.55 1417.57 1387.52 1366.89 1357.38 1549.3 2268.08 2967.7 3385.53 3384.4 2965.79 2266.57 1548.39 1357.66 1367.27 1427.05 1430.49 1402.72 1375.27 1357.81 1345.73 1536.87 2276.35 2984.12 3400.65 3399.23 2981.85 2274.92 1536.25 1345.87 1358.08 1414.64 1415.65 1323.17 1295.78 1275.74 1253.95 1537.2 2305.81 3012.8 3425.7 3423.94 3010.03 2304.43 1536.86 1254.04 1275.8 1332.66 1335.4 1252.41 1224.54 1202.97 1186.68 1216.09 1227.81 1263.4 1262.57 1253.93 1237.43 1227.9 1216.38 1186.96 1203.06 1259.39 1264.07 1118.84 1090.36 1065.71 1049.9 1055.39 1064.2 1104.78 1103.02 1092.77 1073.86 1064.13 1055.56 1050.03 1065.96 1121.18 1129.33 795.598 784.547 779.891 780.995 795.358 813.599 855.441 863.486 856.924 835.544 814.772 795.601 780.959 778.358 802.953 801.195 614.011 744.351 
</DataArray>
<DataArray type="Float64" Name="cell variable 5" format="ascii">
0.00779067 0.00779067 0.00779067 0.00779067 0.00779067 0.00779067 0.00779067 0.00779067 0.00779067 0.00779067 0.00779067 0.00779067 0.00779067 0.00779067 0.00779067 0.00779067 0.00779067 0.00779067 0.00779067 0.00779067 0.00779067 0.00779067 0.00779067 0.00779067 0.00779067 0.00779067 0.00779067 0.00779067 0.00779067 0.00779067 0.00779067 0.00779067 0.00779067 0.00779067 0.00779067 0.00779067 0.00779067 0.00779067 0.00779067 0.00779067 0.00779067 0.00779067 0.00779067 0.00779067 0.00779067 0.00779067 0.00779067 0.00779067 0.0117743 0.0109 0.00948903 0.00814384 0.00779067 0.00779067 0.00779067 0.00779067 0.00779067 0.00779067 0.00779067 0.00779067 0.00814384 0.00948903 0.0109 0.0117743 0.013322 0.0121084 0.0101486 0.00828061 0.00779067 0.00779067 0.00779067 0.00779067 0.00779067 0.00779067 0.00779067 0.00779067 0.00828061 0.0101486 0.0121084 0.013322 0.0142188 0.0128096 0.0105312 0.00836025 0.00779067 0.00779067 0.00779067 0.00779067 0.00779067 0.00779067 0.00779067 0.00779067 0.00836025 0.0105312 0.0128096 0.0142188 0.0148715 0.0133168 0.01081 0.00841911 0.00779067 0.00779067 0.00779067 0.00779067 0.00779067 0.00779067 0.00779067 0.00779067 0.00841911 0.01081 0.0133168 0.0148715 0.0153805 0.013715 0.0110264 0.00846413 0.00779067 0.00779067 0.00779067 0.00779067 0.00779067 0.00779067 0.00779067 0.00779067 0.00846413 0.0110264 0.013715 0.0153805 0.0157908 0.0140353 0.0112012 0.00850048 0.00779067 0.00779067 0.00779067 0.00779067 0.00779067 0.00779067 0.00779067 0.00779067 0.00850048 0.0112012 0.0140353 0.0157908 0.0161267 0.0142967 0.0113449 0.00852991 0.00779067 0.00779067 0.00779067 0.00779067 0.00779067 0.00779067 0.00779067 0.00779067 0.00852991 0.0113449 0.0142967 0.0161267 0.0163985 0.0145097 0.0114609 0.00855415 0.00779067 0.00779067 0.00779067 0.00779067 0.00779067 0.00779067 0.00779067 0.00779067 0.00855415 0.0114609 0.0145097 0.0163985 0.0166166 0.0146811 0.0115544 0.0085732 0.00779067 0.00779067 0.00779067 0.00779067 0.00779067 0.00779067 0.00779067 0.00779067 0.0085732 0.0115544 0.0146811 0.0166166 0.0167863 0.0148127 0.0116254 0.00858878 0.00779067 0.00779067 0.00779067 0.00779067 0.00779067 0.00779067 0.00779067 0.00779067 0.00858878 0.0116254 0.0148127 0.0167863 0.0169109 0.0149096 0.0116791 0.00859916 0.00779067 0.00779067 0.00779067 0.00779067 0.00779067 0.00779067 0.00779067 0.00779067 0.00859916 0.0116791 0.0149096 0.0169109 0.016994 0.0149737 0.0117137 0.00860782 0.00779067 0.00779067 0.00779067 0.00779067 0.00779067 0.00779067 0.00779067 0.00779067 0.00860782 0.0117137 0.0149737 0.016994 0.0170339 0.0150066 0.011731 0.00861128 0.00779067 0.00779067 0.00779067 0.00779067 0.00779067 0.00779067 0.00779067 0.00779067 0.00861128 0.011731 0.0150066 0.0170339 0.0170339 0.0150066 0.011731 0.00861128 0.00779067 0.00779067 0.00779067 0.00779067 0.00779067 0.00779067 0.00779067 0.00779067 0.00861128 0.011731 0.0150066 0.0170339 0.016994 0.0149737 0.0117137 0.00860782 0.00779067 0.00779067 0.00779067 0.00779067 0.00779067 0.00779067 0.00779067 0.00779067 0.00860782 0.0117137 0.0149737 0.016994 0.0169109 0.0149096 0.0116791 0.00859916 0.00779067 0.00779067 0.00779067 0.00779067 0.00779067 0.00779067 0.00779067 0.00779067 0.00859916 0.0116791 0.0149096 0.0169109 0.0167863 0.0148127 0.0116254 0.00858878 0.00779067 0.00779067 0.00779067 0.00779067 0.00779067 0.00779067 0.00779067 0.00779067 0.00858878 0.0116254 0.0148127 0.0167863 0.0166166 0.0146811 0.0115544 0.0085732 0.00779067 0.00779067 0.00779067 0.00779067 0.00779067 0.00779067 0.00779067 0.00779067 0.0085732 0.0115544 0.0146811 0.0166166 0.0163985 0.0145097 0.0114609 0.00855415 0.00779067 0.00779067 0.00779067 0.00779067 0.00779067 0.00779067 0.00779067 0.00779067 0.00855415 0.0114609 0.0145097 0.0163985 0.0161267 0.0142967 0.0113449 0.00852991 0.00779067 0.00779067 0.00779067 0.00779067 0.00779067 0.00779067 0.00779067 0.00779067 0.00852991 0.0113449 0.0142967 0.0161267 0.0157908 0.0140353 0.0112012 0.00850048 0.00779067 0.00779067 0.00779067 0.00779067 0.00779067 0.00779067 0.00779067 0.00779067 0.00850048 0.0112012 0.0140353 0.0157908 0.0153805 0.013715 0.0110264 0.00846413 0.00779067 0.00779067 0.00779067 0.00779067 0.00779067 0.00779067 0.00779067 0.00779067 0.00846413 0.0110264 0.013715 0.0153805 0.0148715 0.0133168 0.01081 0.00841911 0.00779067 0.00779067 0.00779067 0.00779067 0.00779067 0.00779067 0.00779067 0.00779067 0.00841911 0.01081 0.0133168 0.0148715 0.0142188 0.0128096 0.0105312 0.00836025 0.00779067 0.00779067 0.00779067 0.00779067 0.00779067 0.00779067 0.00779067 0.00779067 0.00836025 0.0105312 0.0128096 0.0142188 0.013322 0.0121084 0.0101486 0.00828061 0.00779067 0.00779067 0.00779067 0.00779067 0.00779067 0.00779067 0.00779067 0.00779067 0.00828061 0.0101486 0.0121084 0.013322 0.0117743 0.0109 0.00948903 0.00814384 0.00779067 0.00779067 0.00779067 0.00779067 0.00779067 0.00779067 0.00779067 0.00779067 0.00814384 0.00948903 0.0109 0.0117743 0.00779067 0.00779067 0.00779067 0.00779067 0.00779067 0.00779067 0.00779067 0.00779067 0.00779067 0.00779067 0.00779067 0.00779067 0.00779067 0.00779067 0.00779067 0.00779067 0.00779067 0.00779067 0.00779067 0.00779067 0.00779067 0.00779067 0.00779067 0.00779067 0.00779067 0.00779067 0.00779067 0.00779067 0.00779067 0.00779067 0.00779067 0.00779067 0.00779067 0.00779067 0.00779067 0.00779067 0.00779067 0.00779067 0.00779067 0.00779067 0.00779067 0.00779067 0.00779067 0.00779067 0.00779067 0.00779067 0.00779067 0.00779067 0.00779067 0.00779067 
</DataArray>
<DataArray type="Float64" Name="cell variable 6" format="ascii">
1 1 1 1 1 1 1 1 1 1 1 1 1 1 1 1 1 1 1 1 1 1 1 1 1 1 1 1 1 1 1 1 1 1 1 1 1 1 1 1 1 1 1 1 1 1 1 1 1 1 1 1 1 1 1 1 1 1 1 1 1 1 1 1 1 1 1 1 1 1 1 1 1 1 1 1 1 1 1 1 1 1 1 1 1 1 1 1 1 1 1 1 1 1 1 1 1 1 1 1 1 1 1 1 1 1 1 1 1 1 1 1 1 1 1 1 1 1 1 1 1 1 1 1 1 1 1 1 1 1 1 1 1 1 1 1 1 1 1 1 1 1 1 1 1 1 1 1 1 1 1 1 1 1 1 1 1 1 1 1 1 1 1 1 1 1 1 1 1 1 1 1 1 1 1 1 1 1 1 1 1 1 1 1 1 1 1 1 1 1 1 1 1 1 1 1 1 1 1 1 1 1 1 1 1 1 1 1 1 1 1 1 1 1 1 1 1 1 1 1 1 1 1 1 1 1 1 1 1 1 1 1 1 1 1 1 1 1 1 1 1 1 1 1 1 1 1 1 1 1 1 1 1 1 1 1 1 1 1 1 1 1 1 1 1 1 1 1 1 1 1 1 1 1 1 1 1 1 1 1 1 1 1 1 1 1 1 1 1 1 1 1 1 1 1 1 1 1 1 1 1 1 1 1 1 1 1 1 1 1 1 1 1 1 1 1 1 1 1 1 1 1 1 1 1 1 1 1 1 1 1 1 1 1 1 1 1 1 1 1 1 1 1 1 1 1 1 1 1 1 1 1 1 1 1 1 1 1 1 1 1 1 1 1 1 1 1 1 1 1 1 1 1 1 1 1 1 1 1 1 1 1 1 1 1 1 1 1 1 1 1 1 1 1 1 1 1 1 1 1 1 1 1 1 1 1 1 1 1 1 1 1 1 1 1 1 1 1 1 1 1 1 1 1 1 1 1 1 1 1 1 1 1 1 1 1 1 1 1 1 1 1 1 1 1 1 1 1 1 1 1 1 1 1 1 1 1 1 1 1 1 1 1 1 1 1 1 1 1 1 1 1 1 1 1 1 1 1 1 1 1 1 1 1 1 1 1 1 1 1 1 1 1 1 1 1 1 1 1 1 1 1 1 1 1 1 1 1 1 1 1 1 1 1 
</DataArray>
<DataArray type="Float64" Name="cell variable 7" format="ascii">
0 0 0 0 0 0 0 0 0 0 0 0 0 0 0 0 0 0 0 0 0 0 0 0 0 0 0 0 0 0 0 0 0 0 0 0 0 0 0 0 0 0 0 0 0 0 0 0 0 0 0 0 0 0 0 0 0 0 0 0 0 0 0 0 0 0 0 0 0 0 0 0 0 0 0 0 0 0 0 0 0 0 0 0 0 0 0 0 0 0 0 0 0 0 0 0 0 0 0 0 0 0 0 0 0 0 0 0 0 0 0 0 0 0 0 0 0 0 0 0 0 0 0 0 0 0 0 0 0 0 0 0 0 0 0 0 0 0 0 0 0 0 0 0 0 0 0 0 0 0 0 0 0 0 0 0 0 0 0 0 0 0 0 0 0 0 0 0 0 0 0 0 0 0 0 0 0 0 0 0 0 0 0 0 0 0 0 0 0 0 0 0 0 0 0 0 0 0 0 0 0 0 0 0 0 0 0 0 0 0 0 0 0 0 0 0 0 0 0 0 0 0 0 0 0 0 0 0 0 0 0 0 0 0 0 0 0 0 0 0 0 0 0 0 0 0 0 0 0 0 0 0 0 0 0 0 0 0 0 0 0 0 0 0 0 0 0 0 0 0 0 0 0 0 0 0 0 0 0 0 0 0 0 0 0 0 0 0 0 0 0 0 0 0 0 0 0 0 0 0 0 0 0 0 0 0 0 0 0 0 0 0 0 0 0 0 0 0 0 0 0 0 0 0 0 0 0 0 0 0 0 0 0 0 0 0 0 0 0 0 0 0 0 0 0 0 0 0 0 0 0 0 0 0 0 0 0 0 0 0 0 0 0 0 0 0 0 0 0 0 0 0 0 0 0 0 0 0 0 0 0 0 0 0 0 0 0 0 0 0 0 0 0 0 0 0 0 0 0 0 0 0 0 0 0 0 0 0 0 0 0 0 0 0 0 0 0 0 0 0 0 0 0 0 0 0 0 0 0 0 0 0 0 0 0 0 0 0 0 0 0 0 0 0 0 0 0 0 0 0 0 0 0 0 0 0 0 0 0 0 0 0 0 0 0 0 0 0 0 0 0 0 0 0 0 0 0 0 0 0 0 0 0 0 0 0 0 0 0 0 0 0 0 0 0 0 0 0 0 0 0 0 0 0 0 0 0 0 0 0 0 0 1 1 
</DataArray>
<DataArray type="Float64" Name="cell variable 8" format="ascii">
11.25 33.75 56.25 78.75 101.25 123.75 146.25 168.75 191.25 213.75 236.25 258.75 281.25 303.75 326.25 348.75 11.25 33.75 56.25 78.75 101.25 123.75 146.25 168.75 191.25 213.75 236.25 258.75 281.25 303.75 326.25 348.75 11.25 33.75 56.25 78.75 101.25 123.75 146.25 168.75 191.25 213.75 236.25 258.75 281.25 303.75 326.25 348.75 11.25 33.75 56.25 78.75 101.25 123.75 146.25 168.75 191.25 213.75 236.25 258.75 281.25 303.75 326.25 348.75 11.25 33.75 56.25 78.75 101.25 123.75 146.25 168.75 191.25 213.75 236.25 258.75 281.25 303.75 326.25 348.75 11.25 33.75 56.25 78.75 101.25 123.75 146.25 168.75 191.25 213.75 236.25 258.75 281.25 303.75 326.25 348.75 11.25 33.75 56.25 78.75 101.25 123.75 146.25 168.75 191.25 213.75 236.25 258.75 281.25 303.75 326.25 348.75 11.25 33.75 56.25 78.75 101.25 123.75 146.25 168.75 191.25 213.75 236.25 258.75 281.25 303.75 326.25 348.75 11.25 33.75 56.25 78.75 101.25 123.75 146.25 168.75 191.25 213.75 236.25 258.75 281.25 303.75 326.25 348.75 11.25 33.75 56.25 78.75 101.25 123.75 146.25 168.75 191.25 213.75 236.25 258.75 281.25 303.75 326.25 348.75 11.25 33.75 56.25 78.75 101.25 123.75 146.25 168.75 191.25 213.75 236.25 258.75 281.25 303.75 326.25 348.75 11.25 33.75 56.25 78.75 101.25 123.75 146.25 168.75 191.25 213.75 236.25 258.75 281.25 303.75 326.25 348.75 11.25 33.75 56.25 78.75 101.25 123.75 146.25 168.75 191.25 213.75 236.25 258.75 281.25 303.75 326.25 348.75 11.25 33.75 56.25 78.75 101.25 123.75 146.25 168.75 191.25 213.75 236.25 258.75 281.25 303.75 326.25 348.75 11.25 33.75 56.25 78.75 101.25 123.75 146.25 168.75 191.25 213.75 236.25 258.75 281.25 303.75 326.25 348.75 11.25 33.75 56.25 78.75 101.25 123.75 146.25 168.75 191.25 213.75 236.25 258.75 281.25 303.75 326.25 348.75 11.25 33.75 56.25 78.75 101.25 123.75 146.25 168.75 191.25 213.75 236.25 258.75 281.25 303.75 326.25 348.75 11.25 33.75 56.25 78.75 101.25 123.75 146.25 168.75 191.25 213.75 236.25 258.75 281.25 303.75 326.25 348.75 11.25 33.75 56.25 78.75 101.25 123.75 146.25 168.75 191.25 213.75 236.25 258.75 281.25 303.75 326.25 348.75 11.25 33.75 56.25 78.75 101.25 123.75 146.25 168.75 191.25 213.75 236.25 258.75 281.25 303.75 326.25 348.75 11.25 33.75 56.25 78.75 101.25 123.75 146.25 168.75 191.25 213.75 236.25 258.75 281.25 303.75 326.25 348.75 11.25 33.75 56.25 78.75 101.25 123.75 146.25 168.75 191.25 213.75 236.25 258.75 281.25 303.75 326.25 348.75 11.25 33.75 56.25 78.75 101.25 123.75 146.25 168.75 191.25 213.75 236.25 258.75 281.25 303.75 326.25 348.75 11.25 33.75 56.25 78.75 101.25 123.75 146.25 168.75 191.25 213.75 236.25 258.75 281.25 303.75 326.25 348.75 11.25 33.75 56.25 78.75 101.25 123.75 146.25 168.75 191.25 213.75 236.25 258.75 281.25 303.75 326.25 348.75 11.25 33.75 56.25 78.75 101.25 123.75 146.25 168.75 191.25 213.75 236.25 258.75 281.25 303.75 326.25 348.75 11.25 33.75 56.25 78.75 101.25 123.75 146.25 168.75 191.25 213.75 236.25 258.75 281.25 303.75 326.25 348.75 11.25 33.75 56.25 78.75 101.25 123.75 146.25 168.75 191.25 213.75 236.25 258.75 281.25 303.75 326.25 348.75 11.25 33.75 56.25 78.75 101.25 123.75 146.25 168.75 191.25 213.75 236.25 258.75 281.25 303.75 326.25 348.75 11.25 33.75 56.25 78.75 101.25 123.75 146.25 168.75 191.25 213.75 236.25 258.75 281.25 303.75 326.25 348.75 11.25 33.75 56.25 78.75 101.25 123.75 146.25 168.75 191.25 213.75 236.25 258.75 281.25 303.75 326.25 348.75 11.25 33.75 56.25 78.75 101.25 123.75 146.25 168.75 191.25 213.75 236.25 258.75 281.25 303.75 326.25 348.75 0 0 
</DataArray>
</CellData>
</Piece>
</UnstructuredGrid>
</VTKFile>
