<VTKFile type="UnstructuredGrid" version="0.1">
<UnstructuredGrid>
<Piece  NumberOfPoints="    2080" NumberOfCells="     514">
<Points>
<DataArray type="Float64" NumberOfComponents="3" format="ascii">
-70.0717 998.699 1.02458
-66.1233 1001.96 26.7891
-52.1535 976.562 28.9393
-56.4633 973.048 1.07172
-65.2355 1002.68 29.542
-53.8758 1011.84 51.3718
-38.9429 987.186 55.2677
-51.2656 977.28 31.6923
-52.2297 1013.15 53.4749
-35.1702 1026.79 68.0233
-18.8285 1003.24 73.0778
-37.2968 988.504 57.3709
-33.0182 1028.5 69.1575
-12.9221 1044.56 74.2264
5.09599 1022.29 79.6901
-16.6765 1004.96 74.212
-10.5997 1046.42 74.2223
9.41534 1062.54 69.078
29.0891 1041.59 74.1411
7.41838 1024.15 79.6859
11.5488 1064.28 67.9409
28.3997 1078.13 53.394
49.4551 1058.41 57.3113
31.2226 1043.33 73.0039
30.0205 1079.49 51.2928
41.1981 1088.95 29.5055
63.1193 1070.1 31.6185
51.0759 1059.77 55.21
42.0693 1089.7 26.7522
45.9802 1093.08 0.98419
68.1891 1074.52 0.992078
63.9905 1070.85 28.8651
45.9804 1093.08 -1.99921
42.0719 1089.69 -27.7676
63.9961 1070.83 -29.856
68.1893 1074.52 -1.99132
41.2017 1088.94 -30.5198
30.035 1079.45 -52.3029
51.1045 1059.73 -56.1745
63.1259 1070.08 -32.6082
28.4166 1078.09 -54.4026
11.5848 1064.2 -68.9358
31.2737 1043.25 -73.9549
49.486 1058.37 -58.2742
9.45313 1062.46 -70.0716
-10.5494 1046.31 -75.202
7.48525 1024.05 -80.6247
29.142 1041.51 -75.0907
-12.8706 1044.45 -75.2047
-32.9599 1028.39 -70.1224
-16.5981 1004.85 -75.1371
5.16403 1022.19 -80.6274
-35.1102 1026.67 -68.9865
-52.1399 1013.03 -54.4159
-37.2094 988.405 -58.276
-18.7483 1003.13 -74.0012
-53.7859 1011.71 -52.3102
-65.1506 1002.58 -30.4746
-51.2108 977.208 -32.5493
-38.8554 987.087 -56.1702
-66.0433 1001.87 -27.7192
-70.0683 998.695 -1.95775
-56.4599 973.044 -1.91061
-52.1034 976.495 -29.7939
-54.6326 970.201 1.14988
-50.3228 973.715 29.0175
-30.9392 947.673 29.6463
-35.357 944.1 1.17747
-37.0649 984.373 55.4823
-17.3996 958.489 56.6258
-30.004 948.425 32.5357
-49.3877 974.467 31.9069
-16.8661 1000.49 73.3962
3.21745 974.835 74.9039
-15.6692 959.869 58.8327
-35.3345 985.753 57.6892
7.16775 1019.62 80.0653
27.7522 994.247 81.7273
5.47888 976.632 76.095
-14.6047 1002.28 74.5872
31.2792 1039.01 74.5175
52.3499 1013.94 76.0709
30.1929 996.195 81.7245
9.60843 1021.57 80.0624
51.7474 1055.92 57.6334
73.0789 1031.26 58.8329
54.5857 1015.77 74.8794
33.5149 1040.83 73.3261
65.4818 1067.68 31.8355
86.8615 1043.39 32.4737
74.7698 1032.7 56.6266
53.4383 1057.35 55.4271
70.5856 1072.15 1.06872
91.9735 1047.98 1.0863
87.7667 1044.19 29.58
66.387 1068.48 28.9417
66.3927 1068.46 -29.9294
87.7745 1044.15 -30.5242
91.9738 1047.98 -2.04722
70.5859 1072.15 -2.06479
53.4678 1057.31 -56.3867
74.8096 1032.65 -57.5255
86.871 1043.36 -33.4151
65.4892 1067.67 -32.8204
33.5673 1040.76 -74.2713
54.6435 1015.69 -75.7692
73.1214 1031.21 -59.7294
51.7796 1055.87 -58.5906
9.67643 1021.47 -80.9958
30.263 996.095 -82.6041
52.4094 1013.86 -76.9597
31.3332 1038.93 -75.4618
-14.5252 1002.17 -75.5071
5.55553 976.526 -76.9628
27.8235 994.146 -82.6058
7.23688 1019.52 -80.9975
-35.2472 985.654 -58.5895
-15.5951 959.778 -59.6894
3.29465 974.73 -75.7703
-16.7861 1000.38 -74.3147
-49.3349 974.397 -32.7581
-29.9707 948.356 -33.3365
-17.3274 958.399 -57.479
-36.9796 984.276 -56.379
-50.2741 973.65 -29.8648
-54.6306 970.198 -1.98151
-35.355 944.097 -1.95392
-30.9099 947.609 -30.4432
-33.1583 941.244 1.19968
-28.7405 944.816 29.6685
-8.39792 919.361 29.7934
-12.848 915.787 1.22308
-27.7911 945.574 32.594
-15.1867 955.638 56.684
5.24435 930.179 56.8916
-7.44858 920.119 32.7188
-13.43 957.028 58.919
5.4566 971.995 74.9902
26.0349 946.507 75.2433
7.00105 931.569 59.1265
7.75321 973.803 76.1968
30.0265 991.418 81.8292
50.7912 965.869 82.0811
28.3315 948.315 76.4499
32.505 993.379 81.8262
54.6621 1011.13 76.1725
75.6067 985.509 76.39
53.2697 967.83 82.0781
56.9181 1012.98 74.9669
75.4113 1028.47 58.9204
96.2367 1003.12 59.0788
77.8627 987.358 75.1843
77.1027 1029.94 56.6868
89.1944 1040.64 32.534
109.853 1015.67 32.6618
97.9281 1004.6 56.8452
90.0958 1041.46 29.6032
94.3026 1045.26 1.10955
114.913 1020.42 1.14383
110.754 1016.49 29.7311
94.3033 1045.25 -2.06461
90.1041 1041.43 -30.5415
110.771 1016.45 -30.6077
114.913 1020.42 -2.03033
89.2049 1040.6 -33.4696
77.1435 1029.89 -57.58
97.9708 1004.53 -57.6942
109.872 1015.62 -33.5357
75.4542 1028.42 -59.8112
56.9763 1012.9 -75.851
77.9167 987.273 -76.0233
96.2815 1003.06 -59.9254
54.7215 1011.04 -77.0558
32.5751 993.279 -82.7002
53.3334 967.728 -82.9063
75.6618 985.421 -77.2281
30.0973 991.317 -82.7021
7.8294 973.698 -77.0591
28.3993 948.211 -77.2666
50.8557 965.766 -82.9082
5.53277 971.89 -75.8515
-13.3569 956.937 -59.7706
7.06295 931.48 -59.9351
26.1027 946.403 -76.059
-15.1161 955.549 -57.5322
-27.7593 945.506 -33.3897
-7.42731 920.052 -33.4698
5.30384 930.091 -57.6967
-28.7121 944.753 -30.46
-33.1571 941.24 -1.97076
-12.8468 915.783 -1.94735
-8.38004 919.298 -30.5402
-10.6034 912.966 1.2299
-6.15335 916.54 29.8002
13.9708 891.175 29.8399
9.4457 887.666 1.25081
-5.19217 917.292 32.7324
7.50075 927.352 56.9052
27.8191 901.812 56.9435
14.9319 891.927 32.7721
9.27748 928.731 59.1423
28.3113 943.669 75.2591
48.8872 917.884 75.2683
29.5958 903.19 59.1807
30.6323 945.46 76.4639
53.0919 963.014 82.0951
73.9411 936.951 82.0654
51.2081 919.675 76.473
55.5964 964.956 82.0887
77.9334 982.634 76.4006
99.0694 956.282 76.3665
76.4456 938.892 82.0591
80.2203 984.47 75.1845
98.5943 1000.23 59.079
120.264 973.287 59.0242
101.356 958.118 75.1505
100.303 1001.69 56.8403
112.227 1012.77 32.6569
134.39 985.368 32.6543
121.973 974.747 56.7855
113.136 1013.58 29.7318
117.295 1017.52 1.14456
139.641 989.969 1.17849
135.299 986.182 29.7291
117.296 1017.51 -2.0237
113.154 1013.54 -30.601
135.317 986.15 -30.5383
139.642 989.967 -1.98977
112.247 1012.72 -33.525
100.345 1001.63 -57.6835
122.008 974.683 -57.5878
134.41 985.331 -33.4624
98.6386 1000.17 -59.9209
80.2738 984.384 -76.0189
101.405 958.029 -75.9428
120.301 973.22 -59.8252
77.9879 982.546 -77.2339
55.6595 964.853 -82.9121
76.503 938.789 -82.8402
99.1191 956.191 -77.1578
53.1557 962.911 -82.9173
30.6993 945.355 -77.2758
51.2682 919.572 -77.2433
73.9992 936.847 -82.8454
28.3782 943.565 -76.0701
9.33842 928.641 -59.9461
29.649 903.103 -59.9439
48.9471 917.782 -76.0376
7.55926 927.265 -57.7055
-5.1719 917.225 -33.4787
14.9466 891.86 -33.4773
27.8699 901.726 -57.7033
-6.13591 916.478 -30.5422
-10.6026 912.963 -1.94936
9.44647 887.662 -1.92845
13.9826 891.113 -30.5408
11.6502 884.836 1.25387
16.1752 888.346 29.843
35.8049 862.707 29.868
31.2134 859.279 1.27496
17.1508 889.083 32.7759
30.0379 898.968 56.9473
49.8438 873.107 56.9726
36.7804 863.444 32.801
31.8391 900.319 59.1837
51.1305 915.013 75.2713
71.1805 888.837 75.2938
51.645 874.459 59.209
53.4809 916.771 76.4738
76.2139 934.047 82.0662
96.5417 907.504 82.0848
73.5309 890.595 76.4964
78.7504 935.952 82.0579
101.374 953.341 76.3653
122.008 926.392 76.3761
99.0782 909.409 82.0765
103.702 955.125 75.1501
122.61 970.295 59.0239
143.659 942.828 59.0553
124.336 928.176 75.1609
124.37 971.699 56.7863
136.788 982.319 32.655
158.215 954.398 32.6819
145.419 944.232 56.8177
137.73 983.1 29.7317
142.072 986.886 1.18101
163.64 958.804 1.20625
159.157 955.179 29.7585
142.073 986.885 -1.98596
137.748 983.068 -30.5345
159.172 955.15 -30.5115
163.641 958.802 -1.96071
136.807 982.283 -33.4576
124.404 971.635 -57.583
145.449 944.171 -57.5659
158.231 954.365 -33.4346
122.646 970.228 -59.8199
103.75 955.036 -75.9375
124.381 928.088 -75.9015
143.691 942.764 -59.8028
101.423 953.251 -77.1517
78.8073 935.848 -82.8341
99.1316 909.307 -82.8079
122.054 926.302 -77.1157
76.2713 933.943 -82.8414
53.5404 916.668 -77.2393
73.5858 890.493 -77.219
96.5956 907.402 -82.8152
51.1897 914.911 -76.036
31.8916 900.232 -59.9423
51.6926 874.373 -59.9257
71.2351 888.736 -76.0157
30.0881 898.882 -57.7026
17.1648 889.016 -33.4766
36.791 863.378 -33.4597
49.8891 873.023 -57.686
16.1868 888.284 -30.5392
11.6507 884.833 -1.92689
31.2139 859.275 -1.90579
35.813 862.646 -30.5223
33.3596 856.416 1.27756
37.951 859.845 29.8706
57.0169 833.868 29.8947
52.3634 830.529 1.29858
38.9399 860.564 32.8041
52.0033 870.226 56.9757
71.2403 844.001 57.0062
58.0057 834.587 32.8282
53.8282 871.547 59.2125
73.3637 885.924 75.2974
92.8511 859.34 75.3372
73.0652 845.321 59.243
75.744 887.642 76.5
98.7548 904.552 82.0884
118.54 877.548 82.1323
95.2315 861.057 76.5398
101.325 906.411 82.0793
124.255 923.393 76.3789
144.363 895.934 76.4138
121.11 879.407 82.1232
126.62 925.125 75.1646
145.943 939.777 59.059
166.404 911.835 59.098
146.729 897.665 75.1994
147.744 941.129 56.8219
160.54 951.295 32.6861
181.311 922.93 32.714
168.204 913.187 56.8609
161.509 952.043 29.7616
165.992 955.668 1.20935
186.88 927.146 1.23275
182.28 923.678 29.7895
165.993 955.667 -1.95843
161.523 952.014 -30.5092
182.292 923.651 -30.4905
186.881 927.144 -1.93502
160.555 951.263 -33.4334
147.774 941.069 -57.5648
168.231 913.129 -57.5577
181.325 922.9 -33.4147
145.975 939.714 -59.8013
126.665 925.037 -75.9
146.771 897.579 -75.8896
166.432 911.774 -59.7942
124.301 923.304 -77.1136
101.378 906.309 -82.8058
121.16 879.307 -82.8056
144.406 895.846 -77.1032
98.8082 904.449 -82.814
75.7984 887.541 -77.2177
95.2823 860.959 -77.2149
118.59 877.448 -82.8139
73.4177 885.824 -76.0145
53.8753 871.461 -59.9246
73.1089 845.237 -59.9132
92.9016 859.242 -76.0116
52.0482 870.143 -57.6845
38.9502 860.498 -33.4582
58.0137 834.522 -33.4403
71.2818 843.919 -57.6731
37.9591 859.783 -30.5203
33.36 856.413 -1.90372
52.3637 830.526 -1.88271
57.0226 833.808 -30.5024
54.4457 827.628 1.30111
59.0992 830.967 29.8972
77.577 804.633 29.9206
72.8623 801.389 1.32187
60.1011 831.667 32.8314
73.3358 841.08 57.0094
91.9859 814.479 57.0408
78.5789 805.332 32.8548
75.1845 842.366 59.2472
94.9704 856.384 75.3414
113.879 829.394 75.3844
93.8346 815.764 59.2786
97.382 858.057 76.5447
120.69 874.548 82.1372
139.91 847.101 82.1854
116.291 831.066 76.5877
123.295 876.356 82.1278
146.549 892.883 76.4184
166.098 864.954 76.4587
142.515 848.909 82.1759
148.95 894.561 75.2038
168.625 908.731 59.1023
188.493 880.334 59.1381
168.5 866.632 75.2441
170.461 910.034 56.865
183.568 919.777 32.7181
203.703 890.991 32.7445
190.329 881.637 56.9007
184.559 920.495 29.7925
189.159 923.962 1.23575
209.395 895.029 1.25812
204.695 891.708 29.8189
189.159 923.961 -1.93295
184.571 920.468 -30.4884
204.705 891.683 -30.4702
209.396 895.027 -1.91057
183.581 919.748 -33.4137
170.487 909.976 -57.5568
190.353 881.581 -57.5484
203.715 890.963 -33.3956
168.654 908.67 -59.7936
148.992 894.476 -75.889
168.538 866.549 -75.8857
188.519 880.275 -59.7852
146.591 892.795 -77.1029
123.345 876.257 -82.8053
142.562 848.812 -82.8107
166.138 864.869 -77.0996
120.74 874.447 -82.814
97.4324 857.958 -77.215
116.338 830.97 -77.2161
139.957 847.003 -82.8194
95.0206 856.287 -76.0112
75.2278 842.282 -59.9128
93.8753 815.682 -59.9027
113.926 829.298 -76.0122
73.3769 840.999 -57.6717
60.1088 831.602 -33.4389
78.5847 805.268 -33.4209
92.0243 814.399 -57.6617
59.1048 830.907 -30.5003
54.446 827.625 -1.88061
72.8626 801.386 -1.85986
77.5807 804.573 -30.4823
74.8788 798.448 1.32433
79.5934 801.692 29.923
97.473 774.994 29.9455
92.6968 771.85 1.34467
80.6085 802.371 32.8579
94.0155 811.518 57.0439
112.069 784.54 57.0733
98.4881 775.673 32.8804
95.8885 812.765 59.2827
115.933 826.395 75.3885
134.251 799.006 75.4282
113.942 785.788 59.3122
118.377 828.019 76.5926
141.996 844.054 82.1903
160.631 816.182 82.2347
136.695 800.63 76.6323
144.637 845.809 82.1807
168.219 861.853 76.4634
187.183 833.48 76.5016
163.272 817.937 82.225
170.656 863.478 75.2482
190.65 877.18 59.1423
209.912 848.343 59.1738
189.62 835.105 75.2865
192.516 878.436 56.9044
205.891 887.79 32.7482
225.39 858.592 32.773
211.778 849.599 56.936
206.902 888.479 29.8218
211.602 891.799 1.26095
231.191 862.464 1.28247
226.401 859.281 29.8465
211.603 891.798 -1.90854
206.912 888.454 -30.4682
226.41 859.257 -30.4501
231.191 862.463 -1.88701
205.902 887.763 -33.3945
192.54 878.381 -57.5473
211.8 849.547 -57.5363
225.4 858.566 -33.3763
190.675 877.121 -59.7846
170.695 863.395 -75.8851
189.655 835.024 -75.8813
209.935 848.287 -59.7737
168.259 861.768 -77.0996
144.683 845.712 -82.8107
163.315 817.842 -82.8136
187.219 833.397 -77.0959
142.043 843.956 -82.8197
118.424 827.923 -77.2163
136.739 800.536 -77.2152
160.675 816.087 -82.8226
115.98 826.3 -76.0118
95.9288 812.684 -59.9023
113.98 785.708 -59.8914
134.295 798.913 -76.0107
94.0537 811.437 -57.6602
80.614 802.307 -33.4194
98.4918 775.61 -33.4014
112.105 784.462 -57.6493
79.597 801.632 -30.4802
74.8789 798.445 -1.85776
92.6969 771.847 -1.83743
97.4748 774.935 -30.4622
94.6464 768.87 1.34705
99.4226 772.013 29.9479
116.698 744.956 29.9695
111.86 741.915 1.36686
100.451 772.671 32.8833
114.032 781.538 57.0762
131.483 754.19 57.1033
117.726 745.613 32.9048
115.93 782.747 59.3159
136.238 795.965 75.432
153.954 768.188 75.467
133.38 755.399 59.343
138.714 797.538 76.6367
162.651 813.089 82.2391
180.684 784.808 82.2777
156.43 769.761 76.6717
165.327 814.789 82.2293
189.238 830.332 76.5059
207.594 801.535 76.5399
183.36 786.507 82.2679
191.709 831.903 75.2902
212.002 845.141 59.1775
230.643 815.882 59.2053
210.065 803.106 75.3242
213.897 846.352 56.9393
227.508 855.344 32.7763
246.364 825.742 32.7994
232.538 817.093 56.9671
228.537 856.006 29.8492
233.326 859.19 1.28512
252.262 829.459 1.30584
247.393 826.404 29.8723
233.327 859.189 -1.88498
228.545 855.983 -30.448
247.4 826.382 -30.4298
252.263 829.457 -1.86427
227.518 855.319 -33.3749
213.918 846.299 -57.535
232.558 817.043 -57.5218
246.373 825.717 -33.3567
212.025 845.086 -59.7728
191.745 831.822 -75.8804
210.098 803.028 -75.8739
230.664 815.829 -59.7597
189.274 830.25 -77.0956
165.37 814.695 -82.8133
183.4 786.416 -82.8118
207.628 801.455 -77.089
162.694 812.995 -82.8225
138.758 797.445 -77.2151
156.471 769.67 -77.2104
180.724 784.716 -82.821
136.282 795.872 -76.01
115.967 782.667 -59.8907
133.416 755.321 -59.8785
153.995 768.097 -76.0053
114.068 781.46 -57.6478
100.454 772.608 -33.3999
117.728 745.552 -33.3819
131.516 754.114 -57.6356
99.4244 771.955 -30.4601
94.6465 768.867 -1.83535
111.86 741.912 -1.81554
116.698 744.898 -30.4422
113.742 738.895 1.36915
118.58 741.935 29.9717
135.246 714.523 29.9922
130.346 711.588 1.38839
119.622 742.571 32.9075
133.378 751.148 57.106
150.218 723.437 57.1305
136.287 715.158 32.9279
135.3 752.316 59.3463
155.874 765.105 75.4703
172.976 736.951 75.5007
152.14 724.605 59.3709
158.382 766.625 76.6755
182.636 781.672 82.2815
200.052 752.997 82.3146
175.485 738.472 76.7059
185.347 783.314 82.2716
209.582 798.342 76.5436
227.314 769.139 76.5734
202.763 754.639 82.3047
212.086 799.858 75.3274
232.663 812.634 59.2086
250.669 782.97 59.2335
229.818 770.655 75.3572
234.585 813.801 56.97
248.412 822.449 32.8022
266.616 792.451 32.8238
252.591 784.136 56.9948
249.456 823.086 29.8747
254.325 826.14 1.30832
272.603 796.02 1.32826
267.66 793.087 29.8963
254.326 826.139 -1.86224
249.464 823.064 -30.4278
267.667 793.066 -30.4096
272.603 796.019 -1.84231
248.42 822.425 -33.3551
234.605 813.75 -57.5202
252.608 784.088 -57.5056
266.624 792.428 -33.3369
232.684 812.581 -59.7585
212.118 799.781 -75.8727
229.848 770.581 -75.8633
250.688 782.919 -59.7439
209.615 798.262 -77.0883
185.387 783.223 -82.8111
202.8 754.551 -82.8055
227.345 769.063 -77.079
182.676 781.581 -82.8205
158.423 766.535 -77.2099
175.522 738.383 -77.2019
200.089 752.908 -82.8148
155.914 765.015 -76.0043
135.335 752.238 -59.8775
152.173 724.529 -59.864
173.014 736.863 -75.9963
133.411 751.071 -57.634
119.623 742.509 -33.3803
136.287 715.098 -33.3625
150.249 723.362 -57.6204
118.58 741.878 -30.4401
113.742 738.892 -1.81349
130.346 711.585 -1.79425
135.244 714.466 -30.4223
132.16 708.529 1.39057
137.06 711.464 29.9944
153.11 683.704 30.0138
148.149 680.877 1.40917
138.114 712.076 32.9304
152.045 720.355 57.133
168.267 692.29 57.1552
154.164 684.316 32.9498
153.991 721.482 59.3738
174.828 733.827 75.5036
191.308 705.307 75.5301
170.213 693.416 59.396
177.368 735.294 76.7092
201.935 749.819 82.3179
218.722 720.764 82.3464
193.848 706.773 76.7357
204.681 751.402 82.308
229.232 765.902 76.5766
246.326 736.31 76.6028
221.468 722.347 82.3364
231.768 767.363 75.3601
252.618 779.677 59.2363
269.975 749.62 59.2589
248.862 737.771 75.3863
254.566 780.8 56.9974
268.591 789.115 32.8265
286.134 758.731 32.8468
271.923 750.743 57.02
269.65 789.726 29.8987
274.592 792.659 1.33059
292.202 762.157 1.34976
287.192 759.342 29.919
274.593 792.658 -1.8403
269.657 789.705 -30.4076
287.199 759.322 -30.3897
292.203 762.156 -1.82113
268.599 789.092 -33.3352
254.583 780.752 -57.5039
271.939 750.697 -57.4885
286.141 758.709 -33.3174
252.637 779.627 -59.7425
231.797 767.289 -75.8619
248.89 737.699 -75.8504
269.993 749.572 -59.7271
229.262 765.826 -77.078
204.717 751.314 -82.8045
221.501 722.262 -82.7956
246.354 736.236 -77.0665
201.972 749.731 -82.8139
177.405 735.206 -77.201
193.883 706.688 -77.1905
218.756 720.678 -82.805
174.865 733.74 -75.9951
154.024 721.405 -59.8628
170.243 693.341 -59.8482
191.343 705.222 -75.9845
152.076 720.281 -57.6187
138.114 712.016 -33.3608
154.162 684.257 -33.3431
168.295 692.217 -57.6042
137.058 711.407 -30.4203
132.16 708.526 -1.79223
148.149 680.875 -1.77363
153.106 683.649 -30.4026
149.895 677.78 1.41126
154.855 680.607 30.0158
170.285 652.51 30.0343
165.264 649.794 1.42919
155.923 681.196 32.952
170.025 689.169 57.1574
185.623 660.76 57.1778
171.352 653.099 32.9705
171.995 690.253 59.3986
193.09 702.144 75.5327
208.941 673.269 75.556
187.593 661.843 59.419
195.661 703.555 76.7386
220.535 717.545 82.3492
236.683 688.125 82.3739
211.512 674.68 76.7619
223.314 719.068 82.3393
248.173 733.031 76.6056
264.618 703.065 76.6288
239.462 689.648 82.364
250.74 734.436 75.3888
271.853 746.286 59.2615
288.55 715.851 59.2822
267.185 704.47 75.412
273.824 747.364 57.0224
288.035 755.352 32.8492
304.908 724.595 32.8684
290.522 716.93 57.0431
289.108 755.939 29.9212
294.118 758.754 1.35196
311.053 727.881 1.37039
305.98 725.182 29.9405
294.118 758.753 -1.81915
289.114 755.919 -30.3878
305.986 725.163 -30.3702
311.053 727.88 -1.80073
288.043 755.33 -33.3156
273.841 747.318 -57.4867
290.536 716.886 -57.4709
304.914 724.574 -33.2981
271.87 746.237 -59.7256
250.767 734.364 -75.8489
267.21 704.401 -75.8358
288.566 715.805 -59.7098
248.201 732.958 -77.0652
223.348 718.983 -82.7943
239.493 689.566 -82.783
264.643 702.994 -77.0522
220.569 717.46 -82.8038
195.696 703.469 -77.1893
211.543 674.597 -77.1769
236.714 688.043 -82.7926
193.125 702.059 -75.9831
172.025 690.179 -59.8468
187.621 661.771 -59.8318
208.972 673.187 -75.9707
170.054 689.096 -57.6024
155.921 681.137 -33.3413
171.348 653.041 -33.3241
185.649 660.689 -57.5874
154.852 680.552 -30.4006
149.894 677.778 -1.77166
165.264 649.791 -1.75373
170.28 652.456 -30.3834
166.941 646.66 1.43118
171.961 649.376 30.0363
186.765 620.951 30.0539
181.686 618.349 1.44841
173.041 649.941 32.9726
187.312 657.602 57.1799
202.279 628.86 57.1987
187.844 621.517 32.9902
189.305 658.642 59.4213
210.652 670.068 75.5583
225.864 640.853 75.579
204.272 629.9 59.44
213.254 671.422 76.7644
238.425 684.867 82.3764
253.924 655.097 82.3981
228.465 642.207 76.7851
241.237 686.329 82.3665
266.392 699.746 76.6313
282.178 669.422 76.6519
256.735 656.558 82.3881
268.99 701.094 75.4143
290.355 712.476 59.2845
306.382 681.68 59.3036
284.775 670.77 75.4349
292.349 713.51 57.0453
306.735 721.175 32.8706
322.928 690.058 32.8888
308.377 682.714 57.0644
307.82 721.738 29.9425
312.893 724.437 1.37247
329.145 693.205 1.39013
324.013 690.62 29.9607
312.893 724.436 -1.7988
307.826 721.719 -30.3683
324.019 690.602 -30.3512
329.145 693.204 -1.78114
306.742 721.154 -33.2963
292.364 713.466 -57.4692
308.39 682.672 -57.4533
322.934 690.037 -33.2792
290.37 712.429 -59.7081
269.014 701.026 -75.8342
284.797 670.704 -75.8201
306.396 681.635 -59.6922
266.417 699.676 -77.0507
241.267 686.247 -82.7816
256.763 656.48 -82.7687
282.201 669.354 -77.0366
238.455 684.785 -82.7912
213.285 671.34 -77.1755
228.494 642.127 -77.162
253.952 655.018 -82.7783
210.684 669.986 -75.9692
189.333 658.57 -59.8303
204.297 629.83 -59.815
225.892 640.774 -75.9556
187.338 657.531 -57.5857
173.037 649.884 -33.3224
187.839 621.462 -33.3057
202.303 628.791 -57.5704
171.956 649.322 -30.3815
166.94 646.657 -1.75182
181.686 618.346 -1.73459
186.757 620.899 -30.3648
183.292 615.179 1.45031
188.371 617.782 30.0558
202.542 589.042 30.0724
197.407 586.554 1.46683
189.463 618.323 32.9922
203.898 625.666 57.2006
218.227 596.603 57.2179
203.634 589.584 33.0088
205.913 626.662 59.4422
227.505 637.615 75.5811
242.069 608.072 75.5996
220.242 597.599 59.4594
230.135 638.911 76.7873
255.594 651.801 82.4003
270.434 621.695 82.4194
244.699 609.368 76.8057
258.437 653.201 82.3903
283.879 666.064 76.6541
298.995 635.397 76.6727
273.277 623.095 82.4094
286.505 667.355 75.4371
308.112 678.265 59.3057
323.46 647.122 59.3235
301.621 636.688 75.4556
310.129 679.255 57.0664
324.68 686.599 32.8908
340.185 655.134 32.908
325.477 648.112 57.0842
325.777 687.137 29.9627
330.909 689.722 1.39209
346.47 658.143 1.409
341.283 655.672 29.9799
330.909 689.721 -1.77927
325.783 687.119 -30.3494
341.288 655.655 -30.3328
346.47 658.142 -1.76236
324.686 686.578 -33.2774
310.142 679.213 -57.4515
325.489 648.072 -57.4357
340.191 655.114 -33.2609
308.126 678.22 -59.6906
286.527 667.29 -75.8184
301.641 636.625 -75.8037
323.473 647.079 -59.6748
283.901 665.997 -77.0351
258.464 653.123 -82.7672
273.302 623.02 -82.7532
299.015 635.333 -77.0203
255.621 651.723 -82.7768
230.163 638.832 -77.1604
244.725 609.292 -77.1461
270.46 621.62 -82.7628
227.533 637.536 -75.954
205.938 626.592 -59.8134
220.265 597.532 -59.7981
242.095 607.996 -75.9397
203.921 625.598 -57.5687
189.457 618.268 -33.3039
203.626 589.53 -33.2877
218.248 596.537 -57.5534
188.364 617.73 -30.363
183.292 615.176 -1.73275
197.407 586.551 -1.71623
202.533 588.992 -30.3468
198.943 583.35 1.46864
204.078 585.838 30.0742
217.611 556.795 30.09
212.422 554.422 1.48443
205.182 586.355 33.0107
219.775 593.375 57.2198
233.459 564.005 57.2357
218.715 557.312 33.0265
221.811 594.326 59.4614
243.638 604.799 75.6015
257.549 574.942 75.618
235.496 564.955 59.4773
246.296 606.037 76.8077
272.032 618.364 82.4214
286.207 587.937 82.4383
260.207 576.18 76.8242
274.905 619.7 82.4114
300.622 632.003 76.6746
315.06 601.008 76.6913
289.08 589.273 82.4283
303.275 633.236 75.4575
325.114 643.67 59.3254
339.774 612.195 59.3419
317.713 602.241 75.4742
327.152 644.616 57.0861
341.861 651.637 32.9099
356.671 619.839 32.9262
341.812 613.141 57.1025
342.97 652.151 29.9817
348.157 654.622 1.41086
363.02 622.71 1.42701
357.78 620.353 29.998
348.157 654.621 -1.76056
342.975 652.134 -30.331
357.784 620.336 -30.3151
363.02 622.71 -1.74441
341.866 651.618 -33.2592
327.164 644.575 -57.434
341.823 613.102 -57.4185
356.676 619.82 -33.2432
325.127 643.627 -59.6731
303.295 633.173 -75.802
317.731 602.182 -75.7868
339.786 612.154 -59.6576
300.642 631.938 -77.0187
274.929 619.626 -82.7516
289.102 589.202 -82.7369
315.078 600.947 -77.0036
272.057 618.288 -82.7612
246.322 605.961 -77.1445
260.23 576.107 -77.1297
286.229 587.864 -82.7466
243.664 604.723 -75.938
221.834 594.259 -59.7965
235.517 564.891 -59.7814
257.572 574.869 -75.9232
219.796 593.309 -57.5517
205.174 586.302 -33.286
218.705 557.26 -33.2704
233.478 563.941 -57.5366
204.069 585.788 -30.345
198.943 583.347 -1.71445
212.422 554.42 -1.69865
217.6 556.747 -30.3294
213.887 551.186 1.48614
219.076 553.558 30.0917
231.965 524.223 30.1067
226.724 521.968 1.5012
220.191 554.05 33.0282
234.935 560.743 57.2374
247.97 531.078 57.2522
233.08 524.715 33.0431
236.993 561.648 59.479
259.045 571.635 75.6197
272.295 541.477 75.6345
250.027 531.983 59.4938
261.73 572.814 76.826
287.73 584.57 82.44
301.232 553.837 82.4549
274.98 542.656 76.8407
290.632 585.844 82.43
316.612 597.579 76.6931
330.365 566.272 76.708
304.134 555.11 82.4449
319.292 598.753 75.476
341.353 608.707 59.3437
355.317 576.916 59.3589
333.045 567.447 75.4909
343.411 609.608 57.1043
358.269 616.306 32.928
372.376 584.19 32.9433
357.375 577.818 57.1196
359.389 616.796 29.9998
364.629 619.153 1.42877
378.786 586.922 1.44411
373.496 584.68 30.0151
364.629 619.152 -1.74267
359.394 616.779 -30.3133
373.5 584.664 -30.298
378.787 586.921 -1.72733
358.274 616.287 -33.2415
343.421 609.57 -57.4167
357.385 577.781 -57.4015
372.381 584.172 -33.2262
341.364 608.666 -59.6559
319.309 598.694 -75.7851
333.06 567.39 -75.7698
355.327 576.877 -59.6407
316.63 597.517 -77.0019
290.654 585.772 -82.7353
304.154 555.042 -82.7201
330.381 566.214 -76.9866
287.752 584.499 -82.7449
261.753 572.741 -77.128
275.001 542.587 -77.1129
301.252 553.768 -82.7297
259.068 571.563 -75.9215
237.013 561.584 -59.7797
250.045 531.921 -59.7647
272.316 541.408 -75.9064
234.954 560.68 -57.5349
220.181 553.999 -33.2687
233.069 524.666 -33.2537
247.986 531.017 -57.5199
219.065 553.51 -30.3277
213.886 551.183 -1.69695
226.724 521.965 -1.68189
231.953 524.177 -30.3127
228.118 518.699 1.50282
233.359 520.955 30.1083
245.599 491.34 30.1222
240.308 489.203 1.51706
234.484 521.422 33.0447
249.374 527.784 57.2537
261.752 497.836 57.2671
246.724 491.807 33.0586
251.45 528.643 59.4953
273.718 538.138 75.636
286.301 507.694 75.649
263.828 498.695 59.5087
276.428 539.257 76.8423
302.681 550.438 82.4564
315.504 519.413 82.4693
289.011 508.814 76.8552
305.61 551.647 82.4465
331.841 562.809 76.7096
344.902 531.206 76.7229
318.433 520.622 82.4594
334.546 563.925 75.4925
356.818 573.394 59.3605
370.08 541.303 59.3747
347.606 532.322 75.5058
358.895 574.251 57.1212
373.896 580.623 32.9449
387.294 548.203 32.9595
372.157 542.16 57.1354
375.027 581.088 30.0167
380.317 583.331 1.44577
393.763 550.795 1.46045
388.425 548.668 30.0313
380.317 583.33 -1.72566
375.031 581.072 -30.2964
388.428 548.653 -30.2816
393.763 550.794 -1.71098
373.901 580.605 -33.2245
358.905 574.214 -57.3999
372.166 542.124 -57.385
387.299 548.186 -33.2097
356.828 573.356 -59.639
334.561 563.868 -75.7681
347.62 532.268 -75.7526
370.089 541.266 -59.6241
331.857 562.751 -76.9848
305.63 551.579 -82.7183
318.45 520.557 -82.7027
344.916 531.151 -76.9694
302.701 550.37 -82.728
276.449 539.189 -77.1112
289.03 508.748 -77.0959
315.521 519.348 -82.7123
273.739 538.069 -75.9047
251.469 528.582 -59.7631
263.845 498.637 -59.7484
286.32 507.629 -75.8894
249.39 527.724 -57.5183
234.473 521.373 -33.2521
246.711 491.76 -33.2377
261.766 497.779 -57.5036
233.346 520.909 -30.311
228.117 518.697 -1.68026
240.307 489.201 -1.66602
245.584 491.296 -30.2967
241.629 485.905 1.51857
246.919 488.042 30.1237
258.505 458.161 30.1367
253.168 456.143 1.53197
248.055 488.484 33.0601
263.083 494.512 57.2686
274.799 464.296 57.2806
259.641 458.603 33.0731
265.178 495.325 59.5101
287.651 504.324 75.6503
299.561 473.608 75.6614
276.895 465.108 59.5221
290.385 505.383 76.8566
316.877 515.982 82.4706
329.014 484.681 82.4814
302.295 474.667 76.8676
319.832 517.127 82.4607
346.301 527.711 76.7242
358.664 495.828 76.7358
331.969 485.825 82.4715
349.03 528.768 75.5073
371.504 537.749 59.3761
384.057 505.373 59.3891
361.392 496.884 75.5188
373.599 538.56 57.1369
388.736 544.603 32.961
401.418 511.895 32.9746
386.152 506.184 57.1499
389.876 545.044 30.0328
395.214 547.171 1.46202
407.942 514.346 1.47591
402.559 512.336 30.0464
395.214 547.17 -1.70938
389.88 545.028 -30.28
402.562 512.321 -30.2659
407.942 514.345 -1.69549
388.74 544.586 -33.2081
373.608 538.525 -57.3834
386.16 506.151 -57.3689
401.422 511.879 -33.194
371.513 537.712 -59.6224
349.044 528.714 -75.751
361.404 496.834 -75.7353
384.065 505.338 -59.608
346.316 527.656 -76.9676
319.849 517.063 -82.7009
331.984 485.765 -82.6848
358.676 495.776 -76.9519
316.895 515.918 -82.7106
290.403 505.318 -77.0941
302.312 474.606 -77.0785
329.03 484.62 -82.6944
287.669 504.259 -75.8877
265.194 495.267 -59.7467
276.909 465.053 -59.7323
299.578 473.547 -75.8722
263.097 494.455 -57.502
248.042 488.437 -33.2361
259.626 458.558 -33.2225
274.812 464.242 -57.4876
246.905 487.998 -30.2951
241.628 485.902 -1.66447
253.167 456.141 -1.65108
258.489 458.119 -30.2815
254.416 452.816 1.53338
259.753 454.834 30.1381
270.679 424.699 30.1501
265.298 422.802 1.54593
260.899 455.25 33.0744
276.057 460.943 57.2819
287.107 430.471 57.2925
271.825 425.116 33.0863
278.17 461.709 59.5233
300.837 470.208 75.6626
312.069 439.234 75.6716
289.22 431.237 59.5339
303.593 471.207 76.8687
330.312 481.221 82.4825
341.758 449.659 82.491
314.826 440.233 76.8777
333.292 482.3 82.4726
359.986 492.303 76.7369
371.644 460.155 76.7464
344.737 450.738 82.481
362.737 493.299 75.5201
385.402 501.788 59.3904
397.241 469.144 59.4019
374.395 461.152 75.5296
387.514 502.553 57.1512
402.78 508.264 32.976
414.742 475.284 32.9884
399.353 469.909 57.1628
403.93 508.68 30.0479
409.314 510.69 1.47737
421.319 477.59 1.49032
415.892 475.699 30.0603
409.314 510.689 -1.69396
403.934 508.665 -30.2644
415.895 475.685 -30.251
421.319 477.589 -1.68102
402.784 508.248 -33.1924
387.522 502.52 -57.3673
399.36 469.878 -57.3531
414.746 475.268 -33.1791
385.41 501.754 -59.6063
362.749 493.249 -75.7336
374.406 461.104 -75.7176
397.248 469.111 -59.5921
359.998 492.251 -76.9501
333.307 482.24 -82.683
344.751 450.682 -82.6662
371.655 460.106 -76.9342
330.328 481.16 -82.6926
303.609 471.146 -77.0767
314.84 440.176 -77.0607
341.772 449.602 -82.6758
300.853 470.147 -75.8705
278.184 461.654 -59.7307
289.232 431.186 -59.7165
312.083 439.178 -75.8545
276.069 460.889 -57.4861
260.883 455.206 -33.2209
271.808 425.074 -33.2079
287.118 430.42 -57.4719
259.737 454.792 -30.28
254.415 452.814 -1.64961
265.297 422.8 -1.63706
270.662 424.66 -30.267
266.472 419.447 1.54724
271.854 421.344 30.1514
282.117 390.97 30.1623
276.693 389.192 1.55889
273.009 421.735 33.0875
288.291 427.09 57.2937
298.67 396.377 57.3026
283.271 391.361 33.0984
290.42 427.81 59.5348
313.27 435.807 75.6726
323.82 404.591 75.6791
300.799 397.097 59.5438
316.048 436.745 76.8786
342.98 446.171 82.4918
353.73 414.364 82.4974
326.598 405.529 76.8851
345.982 447.185 82.4819
372.889 456.602 76.7473
383.838 424.207 76.7544
356.732 415.378 82.4875
375.661 457.538 75.5307
398.506 465.531 59.403
409.626 432.635 59.413
386.61 425.143 75.5378
400.636 466.249 57.164
416.024 471.624 32.9897
427.261 438.386 33.0011
411.755 433.353 57.1741
417.183 472.014 30.0617
422.61 473.905 1.49166
433.888 440.545 1.50382
428.42 438.776 30.0731
422.61 473.904 -1.67957
417.186 472 -30.2496
428.423 438.763 -30.2368
433.888 440.545 -1.66741
416.028 471.608 -33.1775
400.642 466.218 -57.3516
411.761 433.324 -57.3376
427.264 438.371 -33.1647
398.513 465.498 -59.5904
375.672 457.491 -75.7159
386.619 425.099 -75.6993
409.632 432.604 -59.5765
372.9 456.554 -76.9323
345.995 447.129 -82.6643
356.743 415.326 -82.6464
383.847 424.162 -76.9156
342.993 446.115 -82.6739
316.062 436.689 -77.0589
326.61 405.476 -77.0422
353.741 414.312 -82.6561
313.283 435.751 -75.8528
290.432 427.759 -59.7147
300.809 397.049 -59.7007
323.832 404.538 -75.8361
288.301 427.04 -57.4704
272.992 421.694 -33.2064
283.253 391.322 -33.1941
298.678 396.331 -57.4563
271.837 421.306 -30.2656
266.471 419.445 -1.63567
276.692 389.19 -1.62402
282.098 390.933 -30.2534
277.794 385.811 1.56007
283.218 387.589 30.1635
292.812 356.986 30.1733
287.349 355.329 1.57079
284.381 387.954 33.0994
299.779 392.971 57.3036
309.483 362.029 57.3107
293.975 357.351 33.1092
301.924 393.643 59.5445
324.945 401.138 75.6798
334.808 369.693 75.6835
311.628 362.702 59.5515
327.743 402.015 76.8856
354.875 410.85 82.4979
364.924 378.816 82.5002
337.606 370.571 76.8893
357.898 411.799 82.4881
385.004 420.627 76.755
395.239 388.003 76.7593
367.947 379.764 82.4903
387.796 421.503 75.5386
410.812 428.995 59.4138
421.208 395.865 59.4221
398.031 388.878 75.543
412.957 429.666 57.1751
428.463 434.699 33.0022
438.97 401.22 33.0125
423.353 396.536 57.1834
429.63 435.063 30.0743
435.098 436.832 1.50503
445.646 403.227 1.51637
440.137 401.584 30.0846
435.099 436.831 -1.66602
429.633 435.049 -30.2354
440.14 401.57 -30.2231
445.646 403.226 -1.65468
428.466 434.684 -33.1632
412.963 429.636 -57.3361
423.358 396.508 -57.3221
438.973 401.205 -33.151
410.818 428.964 -59.5747
387.805 421.459 -75.6975
398.039 388.837 -75.6798
421.214 395.836 -59.5607
385.013 420.582 -76.9137
357.909 411.747 -82.6444
367.957 379.717 -82.6249
395.247 387.961 -76.8959
354.886 410.798 -82.654
327.754 401.963 -77.0402
337.616 370.523 -77.0224
364.933 378.768 -82.6345
324.956 401.085 -75.8343
301.934 393.596 -59.6989
311.636 362.659 -59.6848
334.818 369.646 -75.8165
299.788 392.924 -57.4548
284.362 387.916 -33.1927
293.955 357.316 -33.1811
309.49 361.987 -57.4407
283.199 387.553 -30.2521
277.793 385.81 -1.62272
287.348 355.327 -1.61201
292.792 356.953 -30.2405
288.375 351.923 1.57185
293.838 353.58 30.1743
302.761 322.76 30.1828
297.26 321.223 1.5816
295.009 353.92 33.11
310.517 358.598 57.3115
319.542 327.442 57.3163
303.932 323.1 33.1185
312.677 359.224 59.5519
335.857 366.216 75.6839
345.03 334.559 75.684
321.701 328.068 59.5568
338.673 367.032 76.8894
365.991 375.277 82.5003
375.335 343.032 82.4983
347.846 335.376 76.8894
369.034 376.16 82.4905
396.326 384.398 76.7595
405.843 351.563 76.7604
378.379 343.915 82.4885
399.137 385.213 75.5436
422.314 392.2 59.4227
431.982 358.854 59.4289
408.654 352.377 75.5445
424.474 392.823 57.1843
440.091 397.507 33.0133
449.866 363.802 33.0223
434.142 359.478 57.1905
441.266 397.844 30.0857
446.775 399.488 1.51746
456.588 365.651 1.52792
451.041 364.139 30.0947
446.775 399.487 -1.65335
441.269 397.831 -30.2218
451.044 364.125 -30.21
456.589 365.65 -1.64288
440.094 397.492 -33.1494
424.479 392.796 -57.3205
434.147 359.451 -57.3061
449.869 363.787 -33.1376
422.32 392.171 -59.5588
399.145 385.172 -75.678
408.661 352.34 -75.6586
431.988 358.827 -59.5444
396.334 384.357 -76.8938
369.044 376.113 -82.6227
378.387 343.872 -82.6008
405.85 351.524 -76.8743
366.001 375.23 -82.6323
338.683 366.985 -77.0202
347.855 335.333 -77.0006
375.344 342.989 -82.6104
335.867 366.168 -75.8146
312.685 359.182 -59.6829
321.708 328.03 -59.6684
345.038 334.516 -75.7951
310.524 358.556 -57.4393
294.989 353.885 -33.1796
303.911 323.069 -33.1687
319.547 327.404 -57.4248
293.818 353.547 -30.2393
288.374 351.921 -1.6108
297.259 321.222 -1.60105
302.739 322.731 -30.2284
298.212 317.794 1.58252
303.713 319.331 30.1838
311.96 288.306 30.1909
306.424 286.888 1.59125
304.891 319.646 33.119
320.501 323.988 57.3169
328.843 292.629 57.3191
313.138 288.621 33.1262
322.674 324.567 59.5568
346.003 331.058 75.684
354.482 299.205 75.6796
331.016 293.209 59.559
348.836 331.815 76.889
376.325 339.471 82.4979
384.962 307.034 82.4906
357.315 299.961 76.8846
379.387 340.289 82.4882
406.851 347.936 76.7601
415.647 314.909 76.7567
388.023 307.852 82.4809
409.68 348.69 75.5446
433.008 355.167 59.429
441.946 321.624 59.4326
418.475 315.663 75.5412
435.181 355.741 57.1911
450.905 360.065 33.0229
459.946 326.148 33.0305
444.119 322.199 57.1946
452.089 360.374 30.0957
457.636 361.887 1.52886
466.715 327.831 1.53845
461.129 326.457 30.1032
457.636 361.886 -1.64159
452.092 360.361 -30.2087
461.133 326.444 -30.1972
466.715 327.83 -1.63199
450.909 360.051 -33.136
435.186 355.715 -57.3045
444.124 322.174 -57.2892
459.949 326.133 -33.1245
433.013 355.139 -59.5424
409.687 348.652 -75.6566
418.481 315.629 -75.6347
441.95 321.598 -59.5272
406.858 347.898 -76.8719
379.395 340.246 -82.5983
388.03 307.813 -82.573
415.653 314.874 -76.85
376.333 339.428 -82.6079
348.844 331.772 -76.9981
357.322 299.923 -76.9761
384.969 306.996 -82.5825
346.011 331.016 -75.7931
322.68 324.529 -59.6664
331.021 293.175 -59.6513
354.489 299.167 -75.771
320.506 323.95 -57.4233
304.87 319.615 -33.1673
313.116 288.593 -33.157
328.847 292.596 -57.4082
303.691 319.302 -30.2273
298.211 317.793 -1.59993
306.423 286.887 -1.59119
311.937 288.28 -30.217
307.301 283.437 1.59204
312.836 284.855 30.1917
320.405 253.634 30.1973
314.837 252.333 1.59971
314.022 285.144 33.1265
329.727 289.153 57.3194
337.384 257.604 57.3186
321.591 253.924 33.1321
331.912 289.687 59.5586
355.378 295.682 75.6791
363.161 263.647 75.6693
339.569 258.138 59.5577
358.227 296.379 76.8836
385.873 303.452 82.4895
393.799 270.842 82.4756
366.01 264.344 76.8738
388.952 304.205 82.48
416.575 311.262 76.7558
424.647 278.066 76.7471
396.878 271.595 82.4661
419.42 311.954 75.541
442.89 317.916 59.4323
451.095 284.196 59.4323
427.491 278.758 75.5323
445.077 318.44 57.1948
460.904 322.39 33.0307
469.209 288.274 33.0365
453.282 284.721 57.1948
462.095 322.67 30.104
467.68 324.043 1.53921
476.024 289.779 1.54789
470.4 288.554 30.1098
467.681 324.042 -1.63073
462.098 322.656 -30.1959
470.404 288.541 -30.1845
476.024 289.778 -1.62205
460.908 322.375 -33.1227
445.082 318.416 -57.2875
453.287 284.698 -57.2706
469.213 288.26 -33.1113
442.895 317.89 -59.5249
419.426 311.921 -75.6325
427.497 278.728 -75.6073
451.1 284.173 -59.508
416.582 311.228 -76.8472
388.959 304.167 -82.5701
396.884 271.562 -82.5402
424.653 278.036 -76.822
385.88 303.414 -82.5796
358.234 296.342 -76.9732
366.016 264.312 -76.9477
393.805 270.809 -82.5497
355.385 295.645 -75.7687
331.917 289.654 -59.649
339.574 258.11 -59.6328
363.167 263.615 -75.7432
329.731 289.12 -57.4067
313.999 285.117 -33.1555
321.567 253.9 -33.1458
337.387 257.577 -57.3905
312.813 284.829 -30.216
307.3 283.435 -1.59015
314.836 252.332 -1.58248
320.381 253.612 -30.2063
315.639 248.86 1.60034
321.207 250.161 30.1979
328.096 218.753 30.2019
322.497 217.567 1.60692
322.399 250.426 33.1322
338.192 254.107 57.3186
345.164 222.378 57.3143
329.288 219.018 33.1361
340.389 254.596 59.5567
363.98 260.105 75.6683
371.065 227.903 75.6522
347.36 222.867 59.5525
366.843 260.744 76.872
394.632 267.242 82.4739
401.846 234.481 82.4522
373.928 228.542 76.8559
397.726 267.931 82.4645
425.496 274.402 76.7455
432.841 241.061 76.7306
404.939 235.17 82.4428
428.355 275.032 75.5314
451.959 280.47 59.4314
459.429 246.595 59.4265
435.7 241.692 75.5166
454.159 280.943 57.1946
470.086 284.496 33.0364
477.655 250.195 33.0401
461.629 247.067 57.1897
471.284 284.745 30.1103
476.908 285.97 1.54845
484.515 251.506 1.55613
478.853 250.444 30.114
476.908 285.969 -1.6208
471.288 284.732 -30.1833
478.858 250.431 -30.1718
484.516 251.506 -1.61312
470.09 284.482 -33.1094
454.164 280.92 -57.2686
461.634 247.046 -57.2489
477.659 250.181 -33.0979
451.964 280.447 -59.5055
428.361 275.002 -75.6047
435.707 241.665 -75.5754
459.435 246.573 -59.4857
425.501 274.372 -76.8187
397.733 267.898 -82.5369
404.946 235.142 -82.5013
432.847 241.035 -76.7894
394.639 267.209 -82.5463
366.849 260.712 -76.9443
373.934 228.516 -76.9146
401.852 234.453 -82.5107
363.986 260.074 -75.7406
340.393 254.568 -59.6302
347.364 222.845 -59.6126
371.071 227.877 -75.7109
338.195 254.08 -57.3889
322.375 250.403 -33.1443
329.264 218.999 -33.135
345.166 222.357 -57.3713
321.183 250.139 -30.2053
315.638 248.859 -1.58151
322.496 217.566 -1.57493
328.071 218.735 -30.1961
323.224 214.074 1.60738
328.822 215.259 30.2024
335.032 183.669 30.2043
329.407 182.596 1.61286
330.02 215.5 33.1358
345.896 218.861 57.314
352.181 186.961 57.3062
336.23 183.91 33.1378
348.102 219.307 59.5509
371.808 224.342 75.6506
378.195 191.99 75.6283
354.387 187.407 59.5431
374.683 224.925 76.8533
402.6 230.864 82.4496
409.099 197.977 82.4196
381.07 192.572 76.831
405.708 231.491 82.4404
433.609 237.382 76.7282
440.226 203.927 76.7064
412.207 198.603 82.4104
436.483 237.95 75.5149
460.212 242.854 59.4249
466.945 208.844 59.4127
443.1 204.495 75.4932
462.424 243.271 57.1889
478.45 246.399 33.0393
485.281 211.921 33.0401
469.157 209.262 57.1768
479.656 246.613 30.1144
485.318 247.676 1.55646
492.187 213.02 1.56304
486.487 212.135 30.1152
485.318 247.675 -1.61187
479.66 246.6 -30.1706
486.492 212.123 -30.1586
492.187 213.019 -1.60529
478.454 246.385 -33.0956
462.429 243.25 -57.2466
469.163 209.243 -57.222
485.286 211.908 -33.0836
460.217 242.832 -59.4826
436.489 237.924 -75.5723
443.107 204.473 -75.5385
466.951 208.825 -59.458
433.616 237.356 -76.7856
405.715 231.464 -82.4974
412.215 198.581 -82.4558
440.234 203.904 -76.7517
402.607 230.837 -82.5067
374.689 224.9 -76.9106
381.077 192.553 -76.8767
409.107 197.954 -82.465
371.814 224.317 -75.7079
348.106 219.285 -59.6096
354.392 187.392 -59.5903
378.201 191.97 -75.6741
345.898 218.84 -57.3696
329.996 215.482 -33.1333
336.207 183.898 -33.1241
352.184 186.947 -57.3503
328.798 215.242 -30.1952
323.222 214.073 -1.57402
329.405 182.596 -1.56855
335.009 183.658 -30.1859
330.058 179.083 1.61307
335.684 180.156 30.2045
341.229 148.39 30.202
335.582 147.429 1.61749
336.887 180.374 33.137
352.838 183.425 57.3054
358.444 151.363 57.2917
342.432 148.608 33.1345
355.053 183.829 59.5408
378.86 188.412 75.626
384.55 155.924 75.5967
360.659 151.767 59.5271
381.746 188.941 76.8275
409.776 194.346 82.4162
415.557 161.359 82.3766
387.437 156.453 76.7982
412.895 194.913 82.407
440.914 200.236 76.7031
446.794 166.703 76.6717
418.677 161.926 82.3674
443.801 200.742 75.4904
467.645 205.091 59.4099
473.628 170.968 59.3852
449.68 167.209 75.459
469.869 205.449 57.175
485.993 208.108 33.0384
492.071 173.459 33.0339
475.852 171.326 57.1503
487.206 208.285 30.1152
492.906 209.169 1.56305
499.02 174.322 1.56824
493.284 173.635 30.1107
492.907 209.168 -1.60399
487.211 208.273 -30.1573
493.29 173.625 -30.1427
499.02 174.321 -1.59879
485.999 208.096 -33.0806
469.875 205.431 -57.219
475.861 171.31 -57.1846
492.078 173.447 -33.066
467.652 205.072 -59.4541
443.808 200.72 -75.5345
449.691 167.19 -75.4938
473.637 170.952 -59.4196
440.922 200.214 -76.7472
412.903 194.89 -82.4512
418.687 161.907 -82.4021
446.804 166.685 -76.7065
409.783 194.323 -82.4604
381.754 188.922 -76.872
387.446 156.44 -76.8329
415.567 161.341 -82.4113
378.867 188.393 -75.6706
355.058 183.815 -59.5869
360.666 151.761 -59.5633
384.559 155.911 -75.6315
352.841 183.411 -57.3484
336.863 180.362 -33.1222
342.41 148.605 -33.1103
358.449 151.357 -57.3248
335.66 180.145 -30.185
330.057 179.083 -1.56762
335.581 147.428 -1.56321
341.207 148.388 -30.1731
336.164 143.897 1.61687
341.811 144.859 30.2014
346.76 112.935 30.1751
341.106 112.084 1.6204
343.017 145.054 33.1317
359.029 147.809 57.289
364 115.601 57.2392
347.966 113.131 33.1054
361.249 148.174 59.5224
385.141 152.331 75.592
390.149 119.728 75.525
366.221 115.966 59.4726
388.034 152.811 76.7922
416.154 157.716 82.3705
421.204 124.662 82.293
393.042 120.208 76.7251
419.282 158.228 82.3615
447.399 163.006 76.6658
452.499 129.447 76.5965
424.332 125.174 82.284
450.296 163.447 75.4534
474.244 167.206 59.3796
479.418 132.98 59.322
455.396 129.889 75.3842
476.477 167.498 57.1465
492.695 169.631 33.0301
497.934 134.801 33.0076
481.651 133.272 57.0889
493.914 169.764 30.11
499.65 170.45 1.56749
504.907 135.401 1.57054
499.152 134.934 30.0874
499.65 170.45 -1.59712
493.921 169.753 -30.141
499.162 134.926 -30.1123
504.907 135.401 -1.59406
492.703 169.619 -33.0614
476.486 167.482 -57.1799
481.664 133.259 -57.116
497.944 134.792 -33.0327
474.253 167.19 -59.4131
450.307 163.429 -75.4873
455.411 129.873 -75.4106
479.432 132.967 -59.3492
447.41 162.987 -76.6996
419.292 158.21 -82.3953
424.347 125.16 -82.3096
452.514 129.432 -76.6229
416.165 157.699 -82.4042
388.044 152.798 -76.8259
393.056 120.202 -76.7501
421.22 124.648 -82.3186
385.15 152.319 -75.6258
361.257 148.169 -59.5576
366.233 115.971 -59.4982
390.163 119.722 -75.55
359.034 147.804 -57.321
342.995 145.052 -33.1065
347.947 113.14 -33.0719
364.011 115.606 -57.2617
341.789 144.856 -30.1715
336.163 143.897 -1.56162
341.105 112.084 -1.55809
346.741 112.944 -30.137
341.644 108.542 1.61448
347.298 109.393 30.1692
352.026 77.4074 29.9798
346.415 76.6673 1.61603
348.5 109.567 33.0886
364.535 112.037 57.2223
369.153 79.7716 56.8903
353.228 77.5813 32.8992
366.75 112.365 59.4488
390.677 116.127 75.5011
395.143 83.4806 75.1003
371.368 80.0999 59.1167
393.564 116.562 76.6987
421.726 121.016 82.2666
426.025 87.9496 81.8646
398.029 83.9152 76.2979
424.846 121.477 82.2588
453.013 125.751 76.5713
457.138 92.2531 76.201
429.145 88.411 81.8568
455.91 126.124 75.3629
479.933 129.215 59.3007
483.987 94.8501 59.0747
460.035 92.6262 74.9926
482.162 129.427 57.0759
498.446 130.956 32.9945
502.381 95.8894 32.8585
486.217 95.0618 56.8498
499.661 131.04 30.0827
505.415 131.507 1.5658
509.292 96.1948 1.55752
503.596 95.9732 29.9467
505.415 131.506 -1.58962
499.67 131.032 -30.1078
503.601 95.9683 -29.9789
509.292 96.1946 -1.59789
498.456 130.948 -33.019
482.176 129.415 -57.1023
486.24 95.0539 -56.86
502.387 95.8842 -32.89
479.947 129.202 -59.3266
455.926 126.108 -75.388
460.059 92.6126 -75.0028
484.011 94.8413 -59.0843
453.029 125.735 -76.5965
424.862 121.463 -82.2832
429.169 88.4011 -81.8697
457.163 92.2395 -76.2112
421.742 121.002 -82.2911
393.579 116.556 -76.7226
398.051 83.9152 -76.3126
426.049 87.9404 -81.8776
390.692 116.122 -75.5251
366.762 112.371 -59.4733
371.389 80.118 -59.1297
395.165 83.4819 -75.115
364.546 112.044 -57.2439
348.483 109.578 -33.0541
353.219 77.6064 -32.8581
369.172 79.7908 -56.9003
347.279 109.403 -30.1303
341.643 108.543 -1.55143
346.414 76.6682 -1.54989
352.016 77.4317 -29.9343
347.077 73.172 1.57435
352.688 73.9121 29.9381
359.8 42.6139 28.6536
354.45 41.9265 1.57245
353.857 74.0693 32.7825
369.782 76.2595 56.7736
376.146 44.8066 54.4221
360.969 42.7711 31.4981
371.937 76.5573 58.9471
395.713 79.938 74.9306
400.976 48.2078 71.9091
378.302 45.1044 56.5956
398.525 80.3323 76.1042
426.521 84.3667 81.6709
430.521 52.2662 78.473
403.788 48.602 73.0827
429.563 84.7841 81.6681
457.556 88.6262 76.0123
460.315 56.1654 73.1053
433.562 52.6836 78.4702
460.369 88.9579 74.842
484.321 91.1817 58.924
485.897 58.9088 56.6534
463.128 56.4971 71.935
486.492 91.3661 56.7537
502.656 92.1937 32.7624
503.308 60.267 31.4713
488.068 59.0932 54.4831
503.838 92.2649 29.9116
509.534 92.4865 1.52249
509.833 60.6712 1.51223
504.49 60.3382 28.6205
509.534 92.4856 -1.56472
503.843 92.2593 -29.9457
504.485 60.3031 -28.6627
509.833 60.6703 -1.57498
502.662 92.1872 -32.7933
486.515 91.357 -56.7633
488.095 59.0605 -54.4749
503.305 60.2311 -31.5103
484.346 91.1726 -58.9318
460.394 88.9439 -74.8503
463.158 56.4834 -71.9306
485.926 58.8761 -56.6434
457.581 88.6129 -76.0211
429.587 84.7745 -81.6796
433.591 52.6784 -78.4727
460.344 56.1524 -73.1015
426.545 84.358 -81.6829
398.548 80.3329 -76.1179
403.813 48.6098 -73.0914
430.549 52.2619 -78.476
395.735 79.9405 -74.9447
371.959 76.5767 -58.9594
378.32 45.1421 -56.6086
401.001 48.2174 -71.9182
369.801 76.2804 -56.7832
353.848 74.0959 -32.741
360.955 42.8142 -31.4607
376.163 44.8458 -54.4323
352.678 73.9373 -29.8925
347.076 73.1737 -1.5081
354.45 41.9283 -1.50999
359.784 42.6555 -28.6121
355.307 38.4981 1.48849
360.656 39.1855 28.5697
368.707 8.59281 26.8279
363.692 7.96553 1.48111
361.762 39.3305 31.2603
376.939 41.366 54.1844
384.039 10.6028 50.9685
369.813 8.73775 29.5185
378.978 41.6389 56.2411
401.651 44.7422 71.5546
407.329 13.6837 67.331
386.078 10.8757 53.0252
404.312 45.1002 72.6663
431.044 48.7644 78.0566
435.023 17.3371 73.4468
409.989 14.0417 68.4427
433.921 49.1428 78.0555
460.674 52.6246 72.6907
462.92 20.885 68.3983
437.9 17.7155 73.4457
463.332 52.9437 71.5806
486.101 55.3554 56.299
486.817 23.6268 52.978
465.578 21.2041 67.2882
488.142 55.5607 54.2419
503.382 56.7344 31.2301
503.048 25.1939 29.4346
488.858 23.8321 50.9209
504.489 56.8254 28.5347
509.832 57.1584 1.42642
509.117 25.6839 1.4364
504.154 25.2849 26.7392
509.831 57.1557 -1.48896
504.483 56.7885 -28.5766
504.147 25.2217 -26.7651
509.117 25.6812 -1.47898
503.378 56.6951 -31.2683
488.169 55.5246 -54.2328
488.875 23.7754 -50.9096
503.042 25.1283 -29.4567
486.13 55.3215 -56.288
463.362 52.9288 -71.5753
465.6 21.1896 -67.284
486.836 23.5723 -52.9648
460.703 52.6118 -72.6862
433.95 49.1378 -78.0574
437.921 17.7122 -73.4464
462.941 20.8726 -68.3949
431.073 48.7606 -78.0591
404.337 45.1085 -72.6745
410.008 14.0519 -68.4481
435.044 17.335 -73.4481
401.676 44.753 -71.5635
378.996 41.6777 -56.2539
386.085 10.928 -53.0376
407.347 13.6964 -67.3371
376.955 41.4071 -54.1951
361.747 39.3755 -31.2234
369.793 8.79865 -29.493
384.044 10.6574 -50.9788
360.641 39.2281 -28.5291
355.306 38.5008 -1.42697
363.691 7.96823 -1.43435
368.686 8.65123 -26.7988
364.738 4.80976 1.35136
369.753 5.43704 26.6981
380.245 -21.0823 23.782
375.822 -21.7038 1.33031
370.762 5.57196 29.1541
384.988 7.437 50.6042
393.852 -19.1881 45.2684
381.253 -20.9473 26.238
386.852 7.68604 52.4819
408.103 10.4941 66.7877
414.599 -16.4089 59.8169
395.716 -18.9391 47.1462
410.535 10.8162 67.7999
435.569 14.1117 72.8041
439.267 -13.1362 65.2209
417.03 -16.0867 60.829
438.196 14.4551 72.7997
463.216 17.6246 67.7522
464.079 -9.86101 60.6918
441.894 -12.7928 65.2165
465.64 17.9306 66.7364
486.878 20.3533 52.4262
485.266 -7.07967 46.9559
466.503 -9.55494 59.676
488.735 20.5744 50.5517
502.925 21.9362 29.0653
499.636 -5.20917 26.1165
487.122 -6.85861 45.0814
503.931 22.0475 26.6118
508.895 22.4465 1.30898
505.032 -4.51944 1.32818
500.643 -5.09786 23.663
508.894 22.4446 -1.34784
503.924 21.9851 -26.6339
500.642 -5.09991 -23.6634
505.032 -4.52133 -1.32864
502.918 21.872 -29.0867
488.751 20.5191 -50.5396
487.122 -6.86275 -45.0815
499.636 -5.21309 -26.1163
486.895 20.2999 -52.4137
465.659 17.9172 -66.7329
466.503 -9.55723 -59.6757
485.266 -7.08191 -46.9556
463.236 17.6126 -67.7489
438.216 14.4522 -72.8004
441.895 -12.7937 -65.2163
464.08 -9.86187 -60.6917
435.588 14.1094 -72.805
410.552 10.8263 -67.805
417.031 -16.0868 -60.829
439.268 -13.1365 -65.2208
408.119 10.5055 -66.7929
386.858 7.7371 -52.4934
395.716 -18.9376 -47.1463
414.599 -16.4075 -59.8169
384.993 7.48999 -50.6151
370.741 5.63121 -29.1293
381.253 -20.9438 -26.2376
393.852 -19.1847 -45.268
369.733 5.49454 -26.6725
364.737 4.81155 -1.30807
375.822 -21.702 -1.32912
380.244 -21.0805 -23.7809
-61.3072 1007.91 25.2932
-65.2556 1004.66 -0.471325
-61.2306 1007.83 -26.2327
-49.8659 1016.96 -48.0683
-32.8362 1030.6 -62.6389
-12.7468 1046.67 -67.7213
7.25569 1062.81 -62.5909
24.0875 1076.7 -48.0577
35.2542 1086.2 -26.2746
39.1626 1089.58 -0.506166
35.2516 1086.2 25.2618
24.074 1076.74 47.0491
7.22311 1062.88 61.5959
-12.7919 1046.76 66.7402
-32.888 1030.7 61.6713
-49.9475 1017.07 47.123
382.635 -22.3855 1.31945e-05
387.058 -21.764 22.4517
399.656 -20.0048 41.4821
418.539 -17.4746 54.1528
440.776 -14.5241 58.5446
462.96 -11.5923 54.02
481.723 -9.11705 41.3
494.237 -7.4676 22.335
498.627 -6.88918 0.000239176
494.237 -7.46776 -22.3346
481.723 -9.11742 -41.2997
462.96 -11.5927 -54.0199
440.776 -14.5245 -58.5445
418.539 -17.4748 -54.1527
399.656 -20.0049 -41.4821
387.058 -21.764 -22.4517
</DataArray>
</Points>
<Cells>
<DataArray type="Int32" Name="connectivity" format="ascii">
0 1 2 3 
4 5 6 7 
8 9 10 11 
12 13 14 15 
16 17 18 19 
20 21 22 23 
24 25 26 27 
28 29 30 31 
32 33 34 35 
36 37 38 39 
40 41 42 43 
44 45 46 47 
48 49 50 51 
52 53 54 55 
56 57 58 59 
60 61 62 63 
64 65 66 67 
68 69 70 71 
72 73 74 75 
76 77 78 79 
80 81 82 83 
84 85 86 87 
88 89 90 91 
92 93 94 95 
96 97 98 99 
100 101 102 103 
104 105 106 107 
108 109 110 111 
112 113 114 115 
116 117 118 119 
120 121 122 123 
124 125 126 127 
128 129 130 131 
132 133 134 135 
136 137 138 139 
140 141 142 143 
144 145 146 147 
148 149 150 151 
152 153 154 155 
156 157 158 159 
160 161 162 163 
164 165 166 167 
168 169 170 171 
172 173 174 175 
176 177 178 179 
180 181 182 183 
184 185 186 187 
188 189 190 191 
192 193 194 195 
196 197 198 199 
200 201 202 203 
204 205 206 207 
208 209 210 211 
212 213 214 215 
216 217 218 219 
220 221 222 223 
224 225 226 227 
228 229 230 231 
232 233 234 235 
236 237 238 239 
240 241 242 243 
244 245 246 247 
248 249 250 251 
252 253 254 255 
256 257 258 259 
260 261 262 263 
264 265 266 267 
268 269 270 271 
272 273 274 275 
276 277 278 279 
280 281 282 283 
284 285 286 287 
288 289 290 291 
292 293 294 295 
296 297 298 299 
300 301 302 303 
304 305 306 307 
308 309 310 311 
312 313 314 315 
316 317 318 319 
320 321 322 323 
324 325 326 327 
328 329 330 331 
332 333 334 335 
336 337 338 339 
340 341 342 343 
344 345 346 347 
348 349 350 351 
352 353 354 355 
356 357 358 359 
360 361 362 363 
364 365 366 367 
368 369 370 371 
372 373 374 375 
376 377 378 379 
380 381 382 383 
384 385 386 387 
388 389 390 391 
392 393 394 395 
396 397 398 399 
400 401 402 403 
404 405 406 407 
408 409 410 411 
412 413 414 415 
416 417 418 419 
420 421 422 423 
424 425 426 427 
428 429 430 431 
432 433 434 435 
436 437 438 439 
440 441 442 443 
444 445 446 447 
448 449 450 451 
452 453 454 455 
456 457 458 459 
460 461 462 463 
464 465 466 467 
468 469 470 471 
472 473 474 475 
476 477 478 479 
480 481 482 483 
484 485 486 487 
488 489 490 491 
492 493 494 495 
496 497 498 499 
500 501 502 503 
504 505 506 507 
508 509 510 511 
512 513 514 515 
516 517 518 519 
520 521 522 523 
524 525 526 527 
528 529 530 531 
532 533 534 535 
536 537 538 539 
540 541 542 543 
544 545 546 547 
548 549 550 551 
552 553 554 555 
556 557 558 559 
560 561 562 563 
564 565 566 567 
568 569 570 571 
572 573 574 575 
576 577 578 579 
580 581 582 583 
584 585 586 587 
588 589 590 591 
592 593 594 595 
596 597 598 599 
600 601 602 603 
604 605 606 607 
608 609 610 611 
612 613 614 615 
616 617 618 619 
620 621 622 623 
624 625 626 627 
628 629 630 631 
632 633 634 635 
636 637 638 639 
640 641 642 643 
644 645 646 647 
648 649 650 651 
652 653 654 655 
656 657 658 659 
660 661 662 663 
664 665 666 667 
668 669 670 671 
672 673 674 675 
676 677 678 679 
680 681 682 683 
684 685 686 687 
688 689 690 691 
692 693 694 695 
696 697 698 699 
700 701 702 703 
704 705 706 707 
708 709 710 711 
712 713 714 715 
716 717 718 719 
720 721 722 723 
724 725 726 727 
728 729 730 731 
732 733 734 735 
736 737 738 739 
740 741 742 743 
744 745 746 747 
748 749 750 751 
752 753 754 755 
756 757 758 759 
760 761 762 763 
764 765 766 767 
768 769 770 771 
772 773 774 775 
776 777 778 779 
780 781 782 783 
784 785 786 787 
788 789 790 791 
792 793 794 795 
796 797 798 799 
800 801 802 803 
804 805 806 807 
808 809 810 811 
812 813 814 815 
816 817 818 819 
820 821 822 823 
824 825 826 827 
828 829 830 831 
832 833 834 835 
836 837 838 839 
840 841 842 843 
844 845 846 847 
848 849 850 851 
852 853 854 855 
856 857 858 859 
860 861 862 863 
864 865 866 867 
868 869 870 871 
872 873 874 875 
876 877 878 879 
880 881 882 883 
884 885 886 887 
888 889 890 891 
892 893 894 895 
896 897 898 899 
900 901 902 903 
904 905 906 907 
908 909 910 911 
912 913 914 915 
916 917 918 919 
920 921 922 923 
924 925 926 927 
928 929 930 931 
932 933 934 935 
936 937 938 939 
940 941 942 943 
944 945 946 947 
948 949 950 951 
952 953 954 955 
956 957 958 959 
960 961 962 963 
964 965 966 967 
968 969 970 971 
972 973 974 975 
976 977 978 979 
980 981 982 983 
984 985 986 987 
988 989 990 991 
992 993 994 995 
996 997 998 999 
1000 1001 1002 1003 
1004 1005 1006 1007 
1008 1009 1010 1011 
1012 1013 1014 1015 
1016 1017 1018 1019 
1020 1021 1022 1023 
1024 1025 1026 1027 
1028 1029 1030 1031 
1032 1033 1034 1035 
1036 1037 1038 1039 
1040 1041 1042 1043 
1044 1045 1046 1047 
1048 1049 1050 1051 
1052 1053 1054 1055 
1056 1057 1058 1059 
1060 1061 1062 1063 
1064 1065 1066 1067 
1068 1069 1070 1071 
1072 1073 1074 1075 
1076 1077 1078 1079 
1080 1081 1082 1083 
1084 1085 1086 1087 
1088 1089 1090 1091 
1092 1093 1094 1095 
1096 1097 1098 1099 
1100 1101 1102 1103 
1104 1105 1106 1107 
1108 1109 1110 1111 
1112 1113 1114 1115 
1116 1117 1118 1119 
1120 1121 1122 1123 
1124 1125 1126 1127 
1128 1129 1130 1131 
1132 1133 1134 1135 
1136 1137 1138 1139 
1140 1141 1142 1143 
1144 1145 1146 1147 
1148 1149 1150 1151 
1152 1153 1154 1155 
1156 1157 1158 1159 
1160 1161 1162 1163 
1164 1165 1166 1167 
1168 1169 1170 1171 
1172 1173 1174 1175 
1176 1177 1178 1179 
1180 1181 1182 1183 
1184 1185 1186 1187 
1188 1189 1190 1191 
1192 1193 1194 1195 
1196 1197 1198 1199 
1200 1201 1202 1203 
1204 1205 1206 1207 
1208 1209 1210 1211 
1212 1213 1214 1215 
1216 1217 1218 1219 
1220 1221 1222 1223 
1224 1225 1226 1227 
1228 1229 1230 1231 
1232 1233 1234 1235 
1236 1237 1238 1239 
1240 1241 1242 1243 
1244 1245 1246 1247 
1248 1249 1250 1251 
1252 1253 1254 1255 
1256 1257 1258 1259 
1260 1261 1262 1263 
1264 1265 1266 1267 
1268 1269 1270 1271 
1272 1273 1274 1275 
1276 1277 1278 1279 
1280 1281 1282 1283 
1284 1285 1286 1287 
1288 1289 1290 1291 
1292 1293 1294 1295 
1296 1297 1298 1299 
1300 1301 1302 1303 
1304 1305 1306 1307 
1308 1309 1310 1311 
1312 1313 1314 1315 
1316 1317 1318 1319 
1320 1321 1322 1323 
1324 1325 1326 1327 
1328 1329 1330 1331 
1332 1333 1334 1335 
1336 1337 1338 1339 
1340 1341 1342 1343 
1344 1345 1346 1347 
1348 1349 1350 1351 
1352 1353 1354 1355 
1356 1357 1358 1359 
1360 1361 1362 1363 
1364 1365 1366 1367 
1368 1369 1370 1371 
1372 1373 1374 1375 
1376 1377 1378 1379 
1380 1381 1382 1383 
1384 1385 1386 1387 
1388 1389 1390 1391 
1392 1393 1394 1395 
1396 1397 1398 1399 
1400 1401 1402 1403 
1404 1405 1406 1407 
1408 1409 1410 1411 
1412 1413 1414 1415 
1416 1417 1418 1419 
1420 1421 1422 1423 
1424 1425 1426 1427 
1428 1429 1430 1431 
1432 1433 1434 1435 
1436 1437 1438 1439 
1440 1441 1442 1443 
1444 1445 1446 1447 
1448 1449 1450 1451 
1452 1453 1454 1455 
1456 1457 1458 1459 
1460 1461 1462 1463 
1464 1465 1466 1467 
1468 1469 1470 1471 
1472 1473 1474 1475 
1476 1477 1478 1479 
1480 1481 1482 1483 
1484 1485 1486 1487 
1488 1489 1490 1491 
1492 1493 1494 1495 
1496 1497 1498 1499 
1500 1501 1502 1503 
1504 1505 1506 1507 
1508 1509 1510 1511 
1512 1513 1514 1515 
1516 1517 1518 1519 
1520 1521 1522 1523 
1524 1525 1526 1527 
1528 1529 1530 1531 
1532 1533 1534 1535 
1536 1537 1538 1539 
1540 1541 1542 1543 
1544 1545 1546 1547 
1548 1549 1550 1551 
1552 1553 1554 1555 
1556 1557 1558 1559 
1560 1561 1562 1563 
1564 1565 1566 1567 
1568 1569 1570 1571 
1572 1573 1574 1575 
1576 1577 1578 1579 
1580 1581 1582 1583 
1584 1585 1586 1587 
1588 1589 1590 1591 
1592 1593 1594 1595 
1596 1597 1598 1599 
1600 1601 1602 1603 
1604 1605 1606 1607 
1608 1609 1610 1611 
1612 1613 1614 1615 
1616 1617 1618 1619 
1620 1621 1622 1623 
1624 1625 1626 1627 
1628 1629 1630 1631 
1632 1633 1634 1635 
1636 1637 1638 1639 
1640 1641 1642 1643 
1644 1645 1646 1647 
1648 1649 1650 1651 
1652 1653 1654 1655 
1656 1657 1658 1659 
1660 1661 1662 1663 
1664 1665 1666 1667 
1668 1669 1670 1671 
1672 1673 1674 1675 
1676 1677 1678 1679 
1680 1681 1682 1683 
1684 1685 1686 1687 
1688 1689 1690 1691 
1692 1693 1694 1695 
1696 1697 1698 1699 
1700 1701 1702 1703 
1704 1705 1706 1707 
1708 1709 1710 1711 
1712 1713 1714 1715 
1716 1717 1718 1719 
1720 1721 1722 1723 
1724 1725 1726 1727 
1728 1729 1730 1731 
1732 1733 1734 1735 
1736 1737 1738 1739 
1740 1741 1742 1743 
1744 1745 1746 1747 
1748 1749 1750 1751 
1752 1753 1754 1755 
1756 1757 1758 1759 
1760 1761 1762 1763 
1764 1765 1766 1767 
1768 1769 1770 1771 
1772 1773 1774 1775 
1776 1777 1778 1779 
1780 1781 1782 1783 
1784 1785 1786 1787 
1788 1789 1790 1791 
1792 1793 1794 1795 
1796 1797 1798 1799 
1800 1801 1802 1803 
1804 1805 1806 1807 
1808 1809 1810 1811 
1812 1813 1814 1815 
1816 1817 1818 1819 
1820 1821 1822 1823 
1824 1825 1826 1827 
1828 1829 1830 1831 
1832 1833 1834 1835 
1836 1837 1838 1839 
1840 1841 1842 1843 
1844 1845 1846 1847 
1848 1849 1850 1851 
1852 1853 1854 1855 
1856 1857 1858 1859 
1860 1861 1862 1863 
1864 1865 1866 1867 
1868 1869 1870 1871 
1872 1873 1874 1875 
1876 1877 1878 1879 
1880 1881 1882 1883 
1884 1885 1886 1887 
1888 1889 1890 1891 
1892 1893 1894 1895 
1896 1897 1898 1899 
1900 1901 1902 1903 
1904 1905 1906 1907 
1908 1909 1910 1911 
1912 1913 1914 1915 
1916 1917 1918 1919 
1920 1921 1922 1923 
1924 1925 1926 1927 
1928 1929 1930 1931 
1932 1933 1934 1935 
1936 1937 1938 1939 
1940 1941 1942 1943 
1944 1945 1946 1947 
1948 1949 1950 1951 
1952 1953 1954 1955 
1956 1957 1958 1959 
1960 1961 1962 1963 
1964 1965 1966 1967 
1968 1969 1970 1971 
1972 1973 1974 1975 
1976 1977 1978 1979 
1980 1981 1982 1983 
1984 1985 1986 1987 
1988 1989 1990 1991 
1992 1993 1994 1995 
1996 1997 1998 1999 
2000 2001 2002 2003 
2004 2005 2006 2007 
2008 2009 2010 2011 
2012 2013 2014 2015 
2016 2017 2018 2019 
2020 2021 2022 2023 
2024 2025 2026 2027 
2028 2029 2030 2031 
2032 2033 2034 2035 
2036 2037 2038 2039 
2040 2041 2042 2043 
2044 2045 2046 2047 
2048 2049 2050 2051 2052 2053 2054 2055 2056 2057 2058 2059 2060 2061 2062 2063 
2064 2065 2066 2067 2068 2069 2070 2071 2072 2073 2074 2075 2076 2077 2078 2079 
</DataArray>
<DataArray type="Int32" Name="offsets" format="ascii">
4 8 12 16 20 24 28 32 36 40 44 48 52 56 60 64 68 72 76 80 84 88 92 96 100 104 108 112 116 120 124 128 132 136 140 144 148 152 156 160 164 168 172 176 180 184 188 192 196 200 204 208 212 216 220 224 228 232 236 240 244 248 252 256 260 264 268 272 276 280 284 288 292 296 300 304 308 312 316 320 324 328 332 336 340 344 348 352 356 360 364 368 372 376 380 384 388 392 396 400 404 408 412 416 420 424 428 432 436 440 444 448 452 456 460 464 468 472 476 480 484 488 492 496 500 504 508 512 516 520 524 528 532 536 540 544 548 552 556 560 564 568 572 576 580 584 588 592 596 600 604 608 612 616 620 624 628 632 636 640 644 648 652 656 660 664 668 672 676 680 684 688 692 696 700 704 708 712 716 720 724 728 732 736 740 744 748 752 756 760 764 768 772 776 780 784 788 792 796 800 804 808 812 816 820 824 828 832 836 840 844 848 852 856 860 864 868 872 876 880 884 888 892 896 900 904 908 912 916 920 924 928 932 936 940 944 948 952 956 960 964 968 972 976 980 984 988 992 996 1000 1004 1008 1012 1016 1020 1024 1028 1032 1036 1040 1044 1048 1052 1056 1060 1064 1068 1072 1076 1080 1084 1088 1092 1096 1100 1104 1108 1112 1116 1120 1124 1128 1132 1136 1140 1144 1148 1152 1156 1160 1164 1168 1172 1176 1180 1184 1188 1192 1196 1200 1204 1208 1212 1216 1220 1224 1228 1232 1236 1240 1244 1248 1252 1256 1260 1264 1268 1272 1276 1280 1284 1288 1292 1296 1300 1304 1308 1312 1316 1320 1324 1328 1332 1336 1340 1344 1348 1352 1356 1360 1364 1368 1372 1376 1380 1384 1388 1392 1396 1400 1404 1408 1412 1416 1420 1424 1428 1432 1436 1440 1444 1448 1452 1456 1460 1464 1468 1472 1476 1480 1484 1488 1492 1496 1500 1504 1508 1512 1516 1520 1524 1528 1532 1536 1540 1544 1548 1552 1556 1560 1564 1568 1572 1576 1580 1584 1588 1592 1596 1600 1604 1608 1612 1616 1620 1624 1628 1632 1636 1640 1644 1648 1652 1656 1660 1664 1668 1672 1676 1680 1684 1688 1692 1696 1700 1704 1708 1712 1716 1720 1724 1728 1732 1736 1740 1744 1748 1752 1756 1760 1764 1768 1772 1776 1780 1784 1788 1792 1796 1800 1804 1808 1812 1816 1820 1824 1828 1832 1836 1840 1844 1848 1852 1856 1860 1864 1868 1872 1876 1880 1884 1888 1892 1896 1900 1904 1908 1912 1916 1920 1924 1928 1932 1936 1940 1944 1948 1952 1956 1960 1964 1968 1972 1976 1980 1984 1988 1992 1996 2000 2004 2008 2012 2016 2020 2024 2028 2032 2036 2040 2044 2048 2064 2080 
</DataArray>
<DataArray type="UInt8" Name="types" format="ascii">
7 7 7 7 7 7 7 7 7 7 7 7 7 7 7 7 7 7 7 7 7 7 7 7 7 7 7 7 7 7 7 7 7 7 7 7 7 7 7 7 7 7 7 7 7 7 7 7 7 7 7 7 7 7 7 7 7 7 7 7 7 7 7 7 7 7 7 7 7 7 7 7 7 7 7 7 7 7 7 7 7 7 7 7 7 7 7 7 7 7 7 7 7 7 7 7 7 7 7 7 7 7 7 7 7 7 7 7 7 7 7 7 7 7 7 7 7 7 7 7 7 7 7 7 7 7 7 7 7 7 7 7 7 7 7 7 7 7 7 7 7 7 7 7 7 7 7 7 7 7 7 7 7 7 7 7 7 7 7 7 7 7 7 7 7 7 7 7 7 7 7 7 7 7 7 7 7 7 7 7 7 7 7 7 7 7 7 7 7 7 7 7 7 7 7 7 7 7 7 7 7 7 7 7 7 7 7 7 7 7 7 7 7 7 7 7 7 7 7 7 7 7 7 7 7 7 7 7 7 7 7 7 7 7 7 7 7 7 7 7 7 7 7 7 7 7 7 7 7 7 7 7 7 7 7 7 7 7 7 7 7 7 7 7 7 7 7 7 7 7 7 7 7 7 7 7 7 7 7 7 7 7 7 7 7 7 7 7 7 7 7 7 7 7 7 7 7 7 7 7 7 7 7 7 7 7 7 7 7 7 7 7 7 7 7 7 7 7 7 7 7 7 7 7 7 7 7 7 7 7 7 7 7 7 7 7 7 7 7 7 7 7 7 7 7 7 7 7 7 7 7 7 7 7 7 7 7 7 7 7 7 7 7 7 7 7 7 7 7 7 7 7 7 7 7 7 7 7 7 7 7 7 7 7 7 7 7 7 7 7 7 7 7 7 7 7 7 7 7 7 7 7 7 7 7 7 7 7 7 7 7 7 7 7 7 7 7 7 7 7 7 7 7 7 7 7 7 7 7 7 7 7 7 7 7 7 7 7 7 7 7 7 7 7 7 7 7 7 7 7 7 7 7 7 7 7 7 7 7 7 7 7 7 7 7 7 7 7 7 7 7 7 7 7 7 7 7 7 7 7 7 7 7 7 7 7 7 7 7 7 7 7 7 7 7 7 7 7 7 7 7 7 7 7 7 7 7 7 7 7 7 7 7 7 
</DataArray>
</Cells>
<CellData Scalars="cell variable 4" Vectors="cell vector">
<DataArray type="Float64" NumberOfComponents="3" Name="cell vector" format="ascii">
0.17533 0.0793183 0.981309
0.520935 0.178333 0.83476
0.782115 0.244488 0.573168
0.912523 0.331744 0.239263
0.769022 0.609032 -0.194129
0.344027 0.746669 -0.569325
-0.164518 -0.55449 0.815766
-0.0388607 -0.218931 0.974966
0.0463445 0.213306 0.975886
0.149112 0.564464 0.811878
0.336738 0.751074 0.567886
0.766814 0.611774 0.19424
0.911134 0.335858 -0.23882
0.774911 0.264964 -0.573853
-0.507526 -0.207358 0.836314
-0.1851 -0.0615951 0.980787
0.1605 0.111801 0.980684
0.460739 0.311936 0.830913
0.687996 0.467131 0.555383
0.800233 0.566722 0.196095
0.763164 0.615916 -0.195521
0.576986 0.600082 -0.554066
-0.372014 -0.417056 0.829258
-0.130486 -0.147424 0.980428
0.130622 0.148004 0.980323
0.368614 0.421197 0.828684
0.575426 0.602038 0.553567
0.762408 0.616954 0.195199
0.799151 0.568155 -0.196358
0.686317 0.469148 -0.55576
-0.459126 -0.313504 0.831215
-0.162778 -0.108052 0.980728
0.159883 0.113578 0.98058
0.456876 0.319097 0.830326
0.682502 0.476823 0.553924
0.798036 0.570488 0.194121
0.771071 0.605979 -0.195548
0.568934 0.610765 -0.550709
-0.38063 -0.410765 0.828488
-0.134941 -0.143319 0.980434
0.134666 0.144486 0.9803
0.37894 0.413182 0.828061
0.568373 0.611652 0.550304
0.770406 0.606927 0.195229
0.797242 0.571493 -0.194428
0.681818 0.477494 -0.554187
-0.456043 -0.319486 0.830634
-0.160961 -0.11092 0.980708
0.160778 0.112945 0.980507
0.458925 0.317434 0.829833
0.686715 0.472197 0.552677
0.80587 0.559895 0.192591
0.783239 0.590128 -0.195666
0.472133 0.699636 -0.536283
-0.364716 0.85312 -0.373054
-0.616202 0.784097 -0.0740715
-0.616664 0.784059 0.0705465
-0.374074 0.854033 0.36152
0.473456 0.698952 0.536009
0.782583 0.591104 0.195346
0.805254 0.560678 -0.19289
0.686447 0.472354 -0.552876
-0.458253 -0.317582 0.830148
-0.161182 -0.110808 0.980684
0.161594 0.112107 0.980469
0.460424 0.315829 0.829616
0.688306 0.470453 0.552186
0.807241 0.558144 0.191929
0.786128 0.586236 -0.195781
0.533113 0.648297 -0.5436
-0.349106 0.862262 -0.366919
-0.595905 0.799813 -0.0720838
-0.595744 0.799971 0.0716563
-0.34602 0.862504 0.369266
0.534961 0.646931 0.543412
0.785861 0.586695 0.195477
0.806931 0.558504 -0.192189
0.688328 0.470238 -0.552341
-0.460009 -0.315625 0.829923
-0.161644 -0.110251 0.980671
0.162357 0.110817 0.98049
0.46221 0.312692 0.829811
0.690927 0.466197 0.552522
0.811141 0.552426 0.192028
0.794551 0.574659 -0.1961
0.578798 0.604374 -0.547471
-0.355251 0.871425 -0.338253
-0.578994 0.812706 -0.065389
-0.578815 0.812854 0.0651245
-0.35159 0.871669 0.341434
0.580465 0.602926 0.547302
0.79441 0.574942 0.195843
0.810999 0.552561 -0.192243
0.691093 0.465799 -0.552649
-0.461971 -0.312243 0.830113
-0.162237 -0.109101 0.980702
0.163404 0.108902 0.98053
0.465019 0.307658 0.830123
0.695262 0.459093 0.553032
0.81719 0.543363 0.192243
0.805105 0.559666 -0.19642
0.614574 0.565492 -0.550016
-0.377667 0.879676 -0.289027
-0.563171 0.824469 -0.0555788
-0.563006 0.824601 0.0552929
-0.374284 0.880092 0.292146
0.615938 0.564175 0.549843
0.805051 0.559822 0.196195
0.817161 0.543341 -0.192428
0.69549 0.458613 -0.553143
-0.464887 -0.307055 0.83042
-0.163187 -0.107267 0.980746
0.164743 0.106497 0.98057
0.468755 0.301127 0.830416
0.701032 0.449663 0.553496
0.824796 0.531675 0.192441
0.816288 0.543129 -0.196683
0.643533 0.530526 -0.55173
-0.405165 0.884931 -0.229649
-0.547398 0.835682 -0.0446302
-0.547251 0.835796 0.0442857
-0.402308 0.885524 0.232371
0.644588 0.529428 0.551554
0.816294 0.543195 0.19648
0.824843 0.531541 -0.192608
0.701286 0.449145 -0.553594
-0.468687 -0.300425 0.830709
-0.164459 -0.104917 0.980788
0.166312 0.103718 0.980603
0.47319 0.293446 0.830651
0.707832 0.438422 0.553859
0.833432 0.517973 0.1926
0.827492 0.525826 -0.196885
0.667614 0.498624 -0.552871
-0.428593 0.887106 -0.171322
-0.531228 0.846545 -0.0340471
-0.531104 0.84664 0.0336102
-0.426365 0.887774 0.173408
0.668363 0.497814 0.552696
0.827522 0.525849 0.196698
0.833521 0.517773 -0.192753
0.708093 0.437887 -0.553948
-0.473157 -0.29268 0.83094
-0.165975 -0.102179 0.980822
0.168039 0.100652 0.980628
0.478101 0.284863 0.830827
0.715315 0.425754 0.554128
0.842681 0.50274 0.192719
0.8385 0.50803 -0.197036
0.687757 0.469594 -0.553599
-0.443293 0.888052 -0.12188
-0.514447 0.857163 -0.0248181
-0.514353 0.857236 0.0242526
-0.441629 0.888685 0.1233
0.688202 0.469143 0.553429
0.838529 0.50805 0.196862
0.842789 0.502505 -0.192862
0.715573 0.425216 -0.554209
-0.478085 -0.284055 0.831112
-0.167657 -0.0991457 0.980847
0.169861 0.097365 0.980646
0.483277 0.275603 0.830955
0.72317 0.412007 0.554324
0.852239 0.486327 0.192807
0.849243 0.489818 -0.197142
0.704428 0.443645 -0.55404
-0.449845 0.889302 -0.0823511
-0.496994 0.867579 -0.0174199
-0.496926 0.867632 0.0167415
-0.448655 0.889829 0.0831476
0.70464 0.443508 0.55388
0.849259 0.489856 0.19698
0.85235 0.48608 -0.19294
0.723418 0.411475 -0.554397
-0.483266 -0.274771 0.831237
-0.169437 -0.0958887 0.980865
0.171722 0.0939104 0.980659
0.488552 0.265853 0.831047
0.73115 0.397479 0.554463
0.861875 0.469012 0.192871
0.859678 0.471232 -0.197215
0.718795 0.419609 -0.554312
-0.448469 0.892174 -0.0538579
-0.478926 0.877776 -0.0118157
-0.478877 0.877812 0.0110584
-0.447638 0.892574 0.0541538
0.718845 0.419719 0.554164
0.859679 0.471294 0.197063
0.861978 0.468771 -0.192995
0.731383 0.39696 -0.554528
-0.488538 -0.265008 0.831325
-0.171259 -0.0924638 0.980878
0.173585 0.0903246 0.980668
0.49383 0.255712 0.83111
0.73911 0.382335 0.55456
0.871423 0.451006 0.192916
0.86977 0.452312 -0.197265
0.731331 0.397129 -0.554475
-0.441272 0.896731 -0.0339527
-0.460314 0.887722 -0.00773322
-0.460284 0.887745 0.00690943
-0.440697 0.897016 0.0338837
0.731249 0.39747 0.55434
0.869755 0.452404 0.197122
0.871515 0.450778 -0.193032
0.739326 0.381833 -0.554617
-0.493807 -0.254863 0.831384
-0.173082 -0.0889097 0.980886
0.175424 0.0866331 0.980674
0.499035 0.245259 0.831151
0.746939 0.366707 0.554624
0.880766 0.432461 0.192947
0.879486 0.433104 -0.197297
0.742377 0.37594 -0.554568
-0.430026 0.902591 -0.0201697
-0.441247 0.897373 -0.00480064
-0.441225 0.897388 0.00396477
-0.429655 0.902776 0.0198106
0.742239 0.376394 0.554445
0.879458 0.43322 0.197163
0.880845 0.432252 -0.193056
0.747137 0.366227 -0.554674
-0.498998 -0.244414 0.831422
-0.174882 -0.0852528 0.980892
0.177219 0.0828584 0.980677
0.504108 0.234566 0.831176
0.754552 0.350712 0.554664
0.88982 0.413502 0.192968
0.888801 0.413642 -0.197314
0.752272 0.355653 -0.554615
-0.416183 0.909222 -0.010299
-0.421809 0.906681 -0.00265134
-0.421792 0.906691 0.00182616
-0.415965 0.909329 0.00973357
0.752114 0.356161 0.554503
0.888764 0.413781 0.197188
0.889886 0.413312 -0.193069
0.754734 0.350252 -0.554707
-0.504055 -0.23373 0.831444
-0.176635 -0.0815177 0.980895
0.178954 0.0790202 0.980679
0.509005 0.223697 0.831188
0.761885 0.33445 0.554684
0.898518 0.39424 0.192979
0.897696 0.393963 -0.19732
0.761323 0.335816 -0.55463
-0.400938 0.916102 -0.00245103
-0.402083 0.915603 -0.000932584
-0.402077 0.915606 9.56764e-05
-0.400812 0.916159 0.00177509
0.7611 0.336489 0.554528
0.897656 0.394114 0.197201
0.898578 0.394056 -0.193074
0.762053 0.334007 -0.55472
-0.508934 -0.222875 0.831452
-0.178329 -0.0777272 0.980896
0.180617 0.0751428 0.980679
0.513691 0.212714 0.831188
0.768891 0.318012 0.554685
0.906811 0.374768 0.192983
0.906152 0.374108 -0.197313
0.769725 0.316102 -0.554619
-0.385174 0.922831 0.00478284
-0.382155 0.924098 0.000720532
-0.382126 0.924109 -0.00140582
-0.385192 0.922819 -0.00565384
0.769634 0.316483 0.554528
0.906131 0.374215 0.197203
0.906861 0.374603 -0.19307
0.76904 0.3176 -0.554714
-0.513601 -0.211912 0.831449
-0.17995 -0.0738997 0.980896
0.182198 0.0712501 0.980677
0.51814 0.201684 0.831177
0.775528 0.301493 0.554669
0.91466 0.355184 0.192979
0.914169 0.354077 -0.197294
0.777849 0.295616 -0.554582
-0.369769 0.929036 0.0127909
-0.362079 0.932144 0.00249875
-0.362048 0.932154 -0.00312779
-0.36997 0.92894 -0.0139114
0.777774 0.295966 0.554501
0.914147 0.354189 0.197193
0.914699 0.355042 -0.193057
0.775663 0.301107 -0.554691
-0.518032 -0.200897 0.831434
-0.181491 -0.0700561 0.980894
0.18369 0.0673629 0.980673
0.522334 0.190671 0.831151
0.781768 0.284995 0.554632
0.92203 0.335596 0.192966
0.921737 0.333899 -0.197264
0.785902 0.273642 -0.554507
-0.355585 0.934363 0.0229287
-0.341932 0.939713 0.00470054
-0.341926 0.939711 -0.00540905
-0.355984 0.934176 -0.0243136
0.785693 0.274378 0.554439
0.921693 0.334074 0.197171
0.92206 0.335474 -0.193035
0.781892 0.284626 -0.554646
-0.522213 -0.18989 0.831406
-0.182949 -0.0662168 0.98089
0.185091 0.0635061 0.980667
0.52626 0.179746 0.831109
0.787587 0.268626 0.554569
0.92889 0.316128 0.19294
0.928834 0.313644 -0.197219
0.793887 0.249822 -0.554375
-0.343574 0.938409 0.03668
-0.321813 0.946772 0.00775681
-0.321804 0.946769 -0.00840442
-0.344221 0.938102 -0.0384189
0.793706 0.25052 0.55432
0.92879 0.313826 0.197135
0.928909 0.316036 -0.193001
0.787696 0.268291 -0.554576
-0.526128 -0.178971 0.831359
-0.184319 -0.062407 0.980883
0.1864 0.0597092 0.980658
0.529909 0.169005 0.831044
0.79296 0.252534 0.554473
0.93521 0.296936 0.1929
0.935457 0.293345 -0.197155
0.801894 0.223353 -0.554147
-0.33505 0.940526 0.0561445
-0.301806 0.953294 0.0119966
-0.301805 0.953286 -0.0126364
-0.335975 0.940066 -0.0582908
0.80168 0.224216 0.554109
0.935412 0.293537 0.197081
0.935223 0.296862 -0.192951
0.793059 0.252226 -0.554472
-0.529768 -0.168227 0.831291
-0.185597 -0.0586605 0.980873
0.187613 0.0560158 0.980644
0.533271 0.158572 0.830949
0.797867 0.236908 0.554331
0.940962 0.278214 0.192839
0.941605 0.273028 -0.197066
0.809871 0.193546 -0.553759
-0.331313 0.939824 0.0834461
-0.281995 0.959252 0.0177233
-0.28202 0.959231 -0.0184526
-0.332562 0.939144 -0.0860829
0.809571 0.194826 0.553749
0.941548 0.27327 0.197004
0.940972 0.278154 -0.192879
0.79796 0.236617 -0.554322
-0.533128 -0.157773 0.831193
-0.186784 -0.055017 0.980859
0.188731 0.052484 0.980625
0.53634 0.148615 0.830814
0.802283 0.222001 0.554127
0.946115 0.260218 0.19275
0.94728 0.252734 -0.196945
0.817627 0.159838 -0.553116
-0.333499 0.935014 0.12053
-0.262448 0.964618 0.0251649
-0.262512 0.964577 -0.0260539
-0.33513 0.934007 -0.123769
0.81725 0.161644 0.553149
0.947203 0.25306 0.196896
0.946121 0.260176 -0.192778
0.802374 0.221721 -0.554109
-0.536202 -0.14777 0.831054
-0.18788 -0.0515319 0.980839
0.189754 0.0491856 0.980599
0.53911 0.139362 0.830625
0.806183 0.208164 0.553838
0.95063 0.243309 0.192622
0.952482 0.232497 -0.196781
0.824862 0.121666 -0.552087
-0.341959 0.924547 0.168154
-0.243184 0.969374 0.0342856
-0.243313 0.969299 -0.0354655
-0.343981 0.923083 -0.172031
0.824411 0.124238 0.552187
0.952377 0.232956 0.196746
0.950635 0.243276 -0.192638
0.806277 0.207874 -0.55381
-0.538987 -0.138432 0.830861
-0.188888 -0.0482817 0.980811
0.190679 0.0462166 0.980564
0.54157 0.131118 0.830367
0.809533 0.195869 0.553436
0.95446 0.227974 0.192441
0.957208 0.212405 -0.196564
0.831146 0.0784205 -0.550496
-0.355068 0.90767 0.223745
-0.22413 0.973538 0.0446121
-0.224354 0.97341 -0.0462371
-0.357373 0.905681 -0.228092
0.830669 0.0819475 0.550703
0.957074 0.213025 0.196545
0.954471 0.227924 -0.192446
0.809638 0.195537 -0.5534
-0.541473 -0.130051 0.830598
-0.189807 -0.0453724 0.980773
0.19149 0.0437055 0.980521
0.543686 0.124283 0.830035
0.812287 0.18572 0.5529
0.957546 0.214871 0.192186
0.96141 0.19277 -0.196293
0.835909 0.0289824 -0.548102
-0.368374 0.886612 0.27968
-0.20504 0.977201 0.0551138
-0.205381 0.977004 -0.0572834
-0.37074 0.884217 -0.2841
0.835519 0.0333677 0.548447
0.961263 0.193504 0.196288
0.957572 0.214759 -0.192185
0.812409 0.185305 -0.55286
-0.543629 -0.123009 0.830263
-0.190627 -0.0429464 0.980723
0.192133 0.0418051 0.980478
0.545354 0.119332 0.829668
0.814351 0.178428 0.552264
0.959804 0.204872 0.191841
0.96493 0.174618 -0.196004
0.838265 -0.0292828 -0.544477
-0.374577 0.868957 0.323428
-0.185193 0.98061 0.0640917
-0.185649 0.980346 -0.066758
-0.376672 0.866604 -0.327285
0.838098 -0.0244435 0.544971
0.964802 0.175331 0.196003
0.959853 0.204639 -0.191846
0.814495 0.177877 -0.55223
-0.545355 -0.117755 0.829893
-0.191308 -0.0411712 0.980666
0.192464 0.0406404 0.980462
0.546282 0.116668 0.829436
0.815469 0.174718 0.551801
0.961018 0.199383 0.191549
0.967313 0.16114 -0.195804
0.836215 -0.10404 -0.538442
-0.358808 0.872211 0.332422
-0.161778 0.98447 0.06816
-0.162231 0.984222 -0.0706264
-0.359964 0.870948 -0.33448
0.836367 -0.100007 0.53897
0.96724 0.161596 0.195789
0.961094 0.19899 -0.191574
0.815635 0.173963 -0.551795
-0.546369 -0.114652 0.82966
-0.191741 -0.0401792 0.980623
0.192196 0.0401724 0.980534
0.545713 0.116654 0.829813
0.814565 0.176608 0.552533
0.959894 0.20386 0.192472
0.967189 0.162086 -0.195634
0.81278 -0.269621 -0.516424
-0.267126 0.933403 0.239587
-0.121186 0.991025 0.0564275
-0.121002 0.991105 -0.0553979
-0.261577 0.937179 -0.230809
0.813272 -0.266938 0.517043
0.967248 0.161701 0.195663
0.960077 0.202988 -0.19248
0.814793 0.175328 -0.552606
-0.545959 -0.113918 0.830031
-0.191692 -0.0399924 0.98064
0.19113 0.0370664 0.980865
0.543602 0.107567 0.832422
0.813854 0.161738 0.558106
0.962574 0.1843 0.198708
0.970531 0.142229 -0.194525
0.829556 -0.0287751 -0.557682
-0.555527 0.0106729 0.83143
-0.195241 0.00166474 0.980754
0.195359 -0.00230351 0.980729
0.555501 -0.0132178 0.83141
0.829503 -0.0282687 0.557786
0.970496 0.1423 0.19465
0.962749 0.183545 -0.198558
0.814143 0.160415 -0.558067
-0.544088 -0.104947 0.832439
-0.190817 -0.037128 0.980923
0.191316 0.0341891 0.980933
0.5441 0.0995448 0.833094
0.815064 0.149697 0.559697
0.964987 0.1692 0.200429
0.972509 0.126822 -0.195299
0.826812 0.0142019 -0.5623
-0.550197 0.00298604 0.83503
-0.192753 0.000619662 0.981247
0.193052 -0.0013362 0.981188
0.550018 -0.00757947 0.835118
0.826719 0.0146474 0.562424
0.972434 0.127252 0.195395
0.9651 0.168772 -0.200245
0.815322 0.148802 -0.55956
-0.544635 -0.097329 0.833007
-0.190971 -0.0343735 0.980994
0.188139 0.0389455 0.98137
0.53442 0.117152 0.837061
0.800038 0.185415 0.570579
0.95308 0.212117 0.215972
0.975232 0.0643151 -0.211628
0.806248 -0.0848824 -0.585456
-0.537136 0.0464934 0.842213
-0.188277 0.0147162 0.982006
0.188384 -0.0143735 0.98199
0.535268 -0.0576727 0.842711
0.80617 -0.0849499 0.585554
0.975176 0.0673217 0.210949
0.953173 0.211811 -0.215862
0.800716 0.183418 -0.570274
-0.536844 -0.110841 0.836368
-0.187918 -0.0394577 0.981392
0.00985647 0.00905728 0.99991
0.00257188 0.000343963 0.999997
</DataArray>
<DataArray type="Float64" Name="cell vector length" format="ascii">
0.151871 0.136228 0.124807 0.0999972 0.0682034 0.129129 0.185986 0.180061 0.176086 0.179227 0.130803 0.0681588 0.0992082 0.122682 0.155663 0.160442 0.400974 0.376249 0.346557 0.313177 0.286908 0.322946 0.400878 0.434946 0.429392 0.385639 0.320717 0.286941 0.314195 0.349589 0.397107 0.408445 0.502397 0.478243 0.444139 0.400949 0.355846 0.399634 0.499825 0.54455 0.540597 0.488415 0.397866 0.356232 0.402209 0.446403 0.494571 0.507798 0.529666 0.504008 0.46488 0.410881 0.337102 0.189508 0.107813 0.198843 0.199361 0.109097 0.190273 0.337699 0.412105 0.466683 0.518841 0.534409 0.5454 0.517486 0.471869 0.404807 0.305962 0.15464 0.0944871 0.187842 0.187376 0.0934114 0.155389 0.306868 0.40608 0.47339 0.531508 0.549754 0.556243 0.525812 0.473676 0.39479 0.279914 0.125887 0.0779181 0.171783 0.17135 0.0768958 0.126991 0.281163 0.396169 0.475047 0.539395 0.560387 0.564099 0.531505 0.4741 0.386371 0.261713 0.105837 0.0653049 0.158633 0.158272 0.0643351 0.107085 0.263153 0.387823 0.475395 0.54487 0.568136 0.569705 0.535416 0.474075 0.380095 0.249234 0.091924 0.0570703 0.148592 0.148281 0.0561209 0.0932457 0.250786 0.381604 0.475346 0.548706 0.573699 0.573651 0.538072 0.473866 0.375548 0.240629 0.0822485 0.0523155 0.141295 0.14102 0.0513799 0.0836027 0.242247 0.377109 0.475147 0.551377 0.577643 0.576392 0.539843 0.47358 0.372271 0.234655 0.0759669 0.0495266 0.136242 0.135992 0.0486078 0.0773206 0.236307 0.373879 0.474893 0.553222 0.580406 0.578252 0.54098 0.473282 0.369938 0.230507 0.0712912 0.0483343 0.132731 0.132498 0.0474282 0.0726315 0.232174 0.371588 0.474637 0.55447 0.582304 0.579499 0.541689 0.472983 0.368251 0.227582 0.0679908 0.0478532 0.13036 0.130141 0.0469612 0.0693048 0.229253 0.369935 0.474384 0.555306 0.583598 0.580322 0.542109 0.472694 0.367015 0.225506 0.065658 0.0477417 0.128877 0.128669 0.0468653 0.06694 0.227175 0.36873 0.474138 0.55586 0.58447 0.580841 0.542327 0.472425 0.366112 0.224037 0.0640045 0.0478087 0.128034 0.127836 0.0469466 0.0652532 0.225702 0.367853 0.473909 0.556212 0.58504 0.581138 0.542403 0.47218 0.365459 0.22301 0.0628315 0.047973 0.127662 0.12747 0.0471184 0.0640523 0.224672 0.367222 0.473698 0.556421 0.585386 0.581263 0.542373 0.471959 0.365007 0.222327 0.0620141 0.0482013 0.127659 0.127471 0.0473478 0.0632146 0.223987 0.366791 0.473509 0.556518 0.58556 0.581238 0.542254 0.471765 0.364735 0.221939 0.0614545 0.0485335 0.127993 0.12779 0.0476398 0.0626612 0.223604 0.366541 0.473343 0.556518 0.585581 0.581062 0.542044 0.471599 0.364646 0.221847 0.0610877 0.0490213 0.128668 0.128454 0.048097 0.0623041 0.223525 0.366472 0.473197 0.556416 0.585447 0.580706 0.541723 0.471459 0.364767 0.222111 0.0610616 0.0495599 0.129686 0.129482 0.0486445 0.0622725 0.223804 0.366612 0.473073 0.556197 0.585132 0.580114 0.541252 0.471344 0.365156 0.222851 0.0615167 0.0501766 0.131159 0.130973 0.0492916 0.0627123 0.224556 0.367017 0.472969 0.555822 0.584579 0.579194 0.540566 0.471253 0.365909 0.224252 0.0626575 0.0509619 0.133258 0.133084 0.0500965 0.0638504 0.225971 0.367778 0.47288 0.555227 0.583697 0.577811 0.539568 0.471183 0.367166 0.226589 0.0648071 0.0520834 0.136231 0.136067 0.0512388 0.0660018 0.228323 0.369037 0.472806 0.554321 0.582354 0.575772 0.538121 0.471128 0.369137 0.230271 0.0684338 0.0538916 0.140434 0.140276 0.0530665 0.0696307 0.232009 0.370994 0.47274 0.552973 0.580361 0.572808 0.536024 0.471077 0.37212 0.235892 0.0742046 0.0570317 0.146337 0.146174 0.0562199 0.0753914 0.237611 0.373938 0.47267 0.550998 0.577457 0.568542 0.532992 0.470994 0.376525 0.244325 0.083066 0.0625252 0.154517 0.154338 0.0617151 0.0842021 0.245982 0.378265 0.472563 0.548132 0.573279 0.562438 0.52859 0.47074 0.382809 0.256828 0.0963357 0.0717086 0.16568 0.165472 0.0708649 0.0973405 0.25835 0.384424 0.472289 0.543973 0.567305 0.55356 0.521929 0.46963 0.390913 0.274774 0.115537 0.0859953 0.18091 0.180675 0.0850615 0.116266 0.276058 0.392352 0.471176 0.537681 0.558625 0.538963 0.50967 0.463766 0.396808 0.296454 0.139913 0.10767 0.203606 0.203412 0.106667 0.140133 0.297347 0.398019 0.465345 0.52606 0.544349 0.501592 0.47283 0.430771 0.373712 0.295845 0.140951 0.154883 0.255528 0.256739 0.158326 0.14122 0.296481 0.374767 0.432456 0.490741 0.507608 0.478459 0.44985 0.409485 0.359026 0.307473 0.357085 0.472233 0.519095 0.513189 0.45567 0.354842 0.308039 0.360112 0.411265 0.468739 0.484792 0.441944 0.41269 0.372255 0.325568 0.291537 0.326317 0.421062 0.461625 0.454121 0.399423 0.324239 0.291918 0.326576 0.374042 0.432391 0.448557 0.204739 0.176516 0.135907 0.0898724 0.0712444 0.129786 0.237533 0.288857 0.28305 0.220046 0.130359 0.0722123 0.0905456 0.135454 0.195975 0.210786 0.0465 0.0152124 
</DataArray>
<DataArray type="Float64" Name="cell variable 4" format="ascii">
852.84 843.751 840.792 836.085 828.211 855.919 872.531 855.365 851.94 864.163 856.73 828.109 835.509 838.362 857.828 857.754 1108.28 1088.2 1076.29 1069.07 1065.77 1086.25 1122.35 1119.05 1112.65 1102.53 1086.27 1065.79 1068.92 1076.44 1116.96 1117.89 1309.01 1285.89 1271.03 1261.07 1255.39 1278.64 1323.25 1324.51 1318.08 1302.91 1278.85 1255.63 1261.2 1271.24 1319.95 1319.94 1352.32 1326.83 1308.78 1295.8 1286.09 1309.27 1445.44 1642.84 1641.06 1440.92 1308.75 1285.97 1295.72 1308.91 1361.86 1363.54 1361.57 1336.03 1318.54 1307.7 1301.14 1312.15 1430.12 1610.28 1609.07 1427.86 1311.44 1300.9 1307.59 1318.62 1371.23 1372.81 1364.76 1338.27 1319.31 1307.35 1300.21 1305.73 1416.47 1581.63 1580.72 1414.72 1305.34 1300.1 1307.31 1319.39 1373.49 1375.99 1366.87 1339.28 1318.69 1305.49 1297.97 1300.92 1407.07 1559.61 1558.91 1405.58 1300.62 1297.88 1305.48 1318.76 1374.58 1378.14 1368.45 1339.94 1318.02 1303.85 1296.09 1297.58 1401.4 1543.41 1542.86 1400.11 1297.35 1296 1303.83 1318.08 1375.38 1379.78 1369.69 1340.42 1317.43 1302.52 1294.61 1295.19 1398.41 1531.97 1531.53 1397.27 1295.01 1294.52 1302.48 1317.46 1376.06 1381.1 1370.64 1340.76 1316.94 1301.48 1293.47 1293.46 1396.58 1524.21 1523.86 1395.58 1293.32 1293.37 1301.44 1316.96 1376.63 1382.16 1371.3 1340.92 1316.55 1300.71 1292.6 1292.18 1396.04 1518.9 1518.61 1395.15 1292.06 1292.5 1300.65 1316.56 1377.04 1382.92 1371.75 1340.96 1316.24 1300.14 1291.94 1291.22 1395.95 1515.35 1515.11 1395.15 1291.12 1291.84 1300.08 1316.24 1377.34 1383.49 1372.07 1340.94 1315.95 1299.67 1291.41 1290.46 1396.08 1513.16 1512.96 1395.37 1290.37 1291.3 1299.6 1315.94 1377.58 1383.92 1372.26 1340.85 1315.67 1299.29 1290.96 1289.84 1396.31 1511.93 1511.76 1395.69 1289.76 1290.86 1299.21 1315.65 1377.74 1384.23 1372.34 1340.69 1315.4 1298.97 1290.6 1289.34 1396.6 1511.41 1511.27 1396.05 1289.25 1290.49 1298.89 1315.38 1377.84 1384.42 1372.29 1340.47 1315.14 1298.71 1290.31 1288.91 1396.93 1511.43 1511.31 1396.42 1288.82 1290.2 1298.64 1315.12 1377.87 1384.49 1372.14 1340.19 1314.89 1298.52 1290.09 1288.55 1397.37 1511.96 1511.82 1396.84 1288.45 1289.99 1298.45 1314.87 1377.81 1384.43 1371.87 1339.86 1314.65 1298.39 1289.93 1288.22 1397.97 1512.99 1512.87 1397.49 1288.14 1289.82 1298.3 1314.62 1377.68 1384.27 1371.51 1339.47 1314.42 1298.31 1289.84 1287.94 1398.6 1514.54 1514.45 1398.18 1287.86 1289.73 1298.22 1314.39 1377.48 1383.99 1371.03 1339.01 1314.19 1298.28 1289.81 1287.71 1399.26 1516.77 1516.72 1398.91 1287.63 1289.71 1298.2 1314.16 1377.21 1383.6 1370.43 1338.5 1313.98 1298.33 1289.86 1287.55 1399.97 1519.94 1519.92 1399.7 1287.47 1289.76 1298.25 1313.95 1376.87 1383.07 1369.68 1337.92 1313.8 1298.5 1290.03 1287.51 1400.85 1524.44 1524.47 1400.65 1287.44 1289.93 1298.41 1313.77 1376.43 1382.4 1368.76 1337.25 1313.68 1298.82 1290.36 1287.68 1402.12 1530.87 1530.93 1401.98 1287.6 1290.26 1298.74 1313.65 1375.91 1381.53 1367.61 1336.5 1313.66 1299.38 1290.91 1288.17 1404.26 1540.02 1540.1 1404.15 1288.08 1290.82 1299.3 1313.63 1375.28 1380.45 1366.17 1335.62 1313.76 1300.26 1291.77 1289.18 1408.06 1552.93 1552.98 1407.94 1289.03 1291.68 1300.18 1313.75 1374.52 1379.06 1364.23 1334.47 1313.9 1301.38 1292.9 1290.92 1414.63 1570.85 1570.82 1414.4 1290.66 1292.8 1301.32 1313.91 1373.47 1377.17 1360.74 1331.96 1312.88 1301.47 1293.06 1293.02 1425 1595.14 1594.95 1424.51 1292.54 1292.96 1301.43 1312.9 1370.99 1373.7 1348.59 1320.36 1301.99 1291.06 1282.84 1290.11 1438.65 1627.06 1626.61 1437.65 1289.17 1282.61 1290.97 1302.02 1359.1 1361.49 1280.76 1252.22 1231.43 1216.36 1203.88 1231.58 1454.09 1672.76 1671.78 1451.64 1230.99 1203.76 1216.27 1231.38 1288.74 1292.95 1225.09 1198.4 1179.48 1166.36 1157.62 1178.64 1236.53 1243.48 1234.96 1211.14 1178.86 1157.93 1166.52 1179.53 1233.36 1236.78 1105 1079.06 1058.53 1042.45 1031.85 1042.64 1093.93 1096.9 1086.44 1063.21 1042.49 1032.07 1042.65 1058.87 1110.4 1115.64 776.51 767.737 766.855 771.679 781.034 805.072 853.937 867.113 860.857 834.618 806.459 781.344 771.594 765.345 786.663 782.253 614.887 745.326 
</DataArray>
<DataArray type="Float64" Name="cell variable 5" format="ascii">
0.00396249 0.00396249 0.00396249 0.00396249 0.00396249 0.00396249 0.00396249 0.00396249 0.00396249 0.00396249 0.00396249 0.00396249 0.00396249 0.00396249 0.00396249 0.00396249 0.00396249 0.00396249 0.00396249 0.00396249 0.00396249 0.00396249 0.00396249 0.00396249 0.00396249 0.00396249 0.00396249 0.00396249 0.00396249 0.00396249 0.00396249 0.00396249 0.00396249 0.00396249 0.00396249 0.00396249 0.00396249 0.00396249 0.00396249 0.00396249 0.00396249 0.00396249 0.00396249 0.00396249 0.00396249 0.00396249 0.00396249 0.00396249 0.00598864 0.00554396 0.00482631 0.00414212 0.00396249 0.00396249 0.00396249 0.00396249 0.00396249 0.00396249 0.00396249 0.00396249 0.00414212 0.00482631 0.00554396 0.00598864 0.00677586 0.00615859 0.0051618 0.00421169 0.00396249 0.00396249 0.00396249 0.00396249 0.00396249 0.00396249 0.00396249 0.00396249 0.00421169 0.0051618 0.00615859 0.00677586 0.00723199 0.00651522 0.00535641 0.00425219 0.00396249 0.00396249 0.00396249 0.00396249 0.00396249 0.00396249 0.00396249 0.00396249 0.00425219 0.00535641 0.00651522 0.00723199 0.00756395 0.00677322 0.00549818 0.00428213 0.00396249 0.00396249 0.00396249 0.00396249 0.00396249 0.00396249 0.00396249 0.00396249 0.00428213 0.00549818 0.00677322 0.00756395 0.00782284 0.00697574 0.00560825 0.00430503 0.00396249 0.00396249 0.00396249 0.00396249 0.00396249 0.00396249 0.00396249 0.00396249 0.00430503 0.00560825 0.00697574 0.00782284 0.00803153 0.00713865 0.00569718 0.00432352 0.00396249 0.00396249 0.00396249 0.00396249 0.00396249 0.00396249 0.00396249 0.00396249 0.00432352 0.00569718 0.00713865 0.00803153 0.00820236 0.00727161 0.00577027 0.00433849 0.00396249 0.00396249 0.00396249 0.00396249 0.00396249 0.00396249 0.00396249 0.00396249 0.00433849 0.00577027 0.00727161 0.00820236 0.0083406 0.00737992 0.00582926 0.00435081 0.00396249 0.00396249 0.00396249 0.00396249 0.00396249 0.00396249 0.00396249 0.00396249 0.00435081 0.00582926 0.00737992 0.0083406 0.00845155 0.00746709 0.00587681 0.0043605 0.00396249 0.00396249 0.00396249 0.00396249 0.00396249 0.00396249 0.00396249 0.00396249 0.0043605 0.00587681 0.00746709 0.00845155 0.00853785 0.00753402 0.00591292 0.00436843 0.00396249 0.00396249 0.00396249 0.00396249 0.00396249 0.00396249 0.00396249 0.00396249 0.00436843 0.00591292 0.00753402 0.00853785 0.00860125 0.00758333 0.00594021 0.00437371 0.00396249 0.00396249 0.00396249 0.00396249 0.00396249 0.00396249 0.00396249 0.00396249 0.00437371 0.00594021 0.00758333 0.00860125 0.00864351 0.00761591 0.00595783 0.00437811 0.00396249 0.00396249 0.00396249 0.00396249 0.00396249 0.00396249 0.00396249 0.00396249 0.00437811 0.00595783 0.00761591 0.00864351 0.00866377 0.00763264 0.00596663 0.00437987 0.00396249 0.00396249 0.00396249 0.00396249 0.00396249 0.00396249 0.00396249 0.00396249 0.00437987 0.00596663 0.00763264 0.00866377 0.00866377 0.00763264 0.00596663 0.00437987 0.00396249 0.00396249 0.00396249 0.00396249 0.00396249 0.00396249 0.00396249 0.00396249 0.00437987 0.00596663 0.00763264 0.00866377 0.00864351 0.00761591 0.00595783 0.00437811 0.00396249 0.00396249 0.00396249 0.00396249 0.00396249 0.00396249 0.00396249 0.00396249 0.00437811 0.00595783 0.00761591 0.00864351 0.00860125 0.00758333 0.00594021 0.00437371 0.00396249 0.00396249 0.00396249 0.00396249 0.00396249 0.00396249 0.00396249 0.00396249 0.00437371 0.00594021 0.00758333 0.00860125 0.00853785 0.00753402 0.00591292 0.00436843 0.00396249 0.00396249 0.00396249 0.00396249 0.00396249 0.00396249 0.00396249 0.00396249 0.00436843 0.00591292 0.00753402 0.00853785 0.00845155 0.00746709 0.00587681 0.0043605 0.00396249 0.00396249 0.00396249 0.00396249 0.00396249 0.00396249 0.00396249 0.00396249 0.0043605 0.00587681 0.00746709 0.00845155 0.0083406 0.00737992 0.00582926 0.00435081 0.00396249 0.00396249 0.00396249 0.00396249 0.00396249 0.00396249 0.00396249 0.00396249 0.00435081 0.00582926 0.00737992 0.0083406 0.00820236 0.00727161 0.00577027 0.00433849 0.00396249 0.00396249 0.00396249 0.00396249 0.00396249 0.00396249 0.00396249 0.00396249 0.00433849 0.00577027 0.00727161 0.00820236 0.00803153 0.00713865 0.00569718 0.00432352 0.00396249 0.00396249 0.00396249 0.00396249 0.00396249 0.00396249 0.00396249 0.00396249 0.00432352 0.00569718 0.00713865 0.00803153 0.00782284 0.00697574 0.00560825 0.00430503 0.00396249 0.00396249 0.00396249 0.00396249 0.00396249 0.00396249 0.00396249 0.00396249 0.00430503 0.00560825 0.00697574 0.00782284 0.00756395 0.00677322 0.00549818 0.00428213 0.00396249 0.00396249 0.00396249 0.00396249 0.00396249 0.00396249 0.00396249 0.00396249 0.00428213 0.00549818 0.00677322 0.00756395 0.00723199 0.00651522 0.00535641 0.00425219 0.00396249 0.00396249 0.00396249 0.00396249 0.00396249 0.00396249 0.00396249 0.00396249 0.00425219 0.00535641 0.00651522 0.00723199 0.00677586 0.00615859 0.0051618 0.00421169 0.00396249 0.00396249 0.00396249 0.00396249 0.00396249 0.00396249 0.00396249 0.00396249 0.00421169 0.0051618 0.00615859 0.00677586 0.00598864 0.00554396 0.00482631 0.00414212 0.00396249 0.00396249 0.00396249 0.00396249 0.00396249 0.00396249 0.00396249 0.00396249 0.00414212 0.00482631 0.00554396 0.00598864 0.00396249 0.00396249 0.00396249 0.00396249 0.00396249 0.00396249 0.00396249 0.00396249 0.00396249 0.00396249 0.00396249 0.00396249 0.00396249 0.00396249 0.00396249 0.00396249 0.00396249 0.00396249 0.00396249 0.00396249 0.00396249 0.00396249 0.00396249 0.00396249 0.00396249 0.00396249 0.00396249 0.00396249 0.00396249 0.00396249 0.00396249 0.00396249 0.00396249 0.00396249 0.00396249 0.00396249 0.00396249 0.00396249 0.00396249 0.00396249 0.00396249 0.00396249 0.00396249 0.00396249 0.00396249 0.00396249 0.00396249 0.00396249 0.00396249 0.00396249 
</DataArray>
<DataArray type="Float64" Name="cell variable 6" format="ascii">
1 1 1 1 1 1 1 1 1 1 1 1 1 1 1 1 1 1 1 1 1 1 1 1 1 1 1 1 1 1 1 1 1 1 1 1 1 1 1 1 1 1 1 1 1 1 1 1 1 1 1 1 1 1 1 1 1 1 1 1 1 1 1 1 1 1 1 1 1 1 1 1 1 1 1 1 1 1 1 1 1 1 1 1 1 1 1 1 1 1 1 1 1 1 1 1 1 1 1 1 1 1 1 1 1 1 1 1 1 1 1 1 1 1 1 1 1 1 1 1 1 1 1 1 1 1 1 1 1 1 1 1 1 1 1 1 1 1 1 1 1 1 1 1 1 1 1 1 1 1 1 1 1 1 1 1 1 1 1 1 1 1 1 1 1 1 1 1 1 1 1 1 1 1 1 1 1 1 1 1 1 1 1 1 1 1 1 1 1 1 1 1 1 1 1 1 1 1 1 1 1 1 1 1 1 1 1 1 1 1 1 1 1 1 1 1 1 1 1 1 1 1 1 1 1 1 1 1 1 1 1 1 1 1 1 1 1 1 1 1 1 1 1 1 1 1 1 1 1 1 1 1 1 1 1 1 1 1 1 1 1 1 1 1 1 1 1 1 1 1 1 1 1 1 1 1 1 1 1 1 1 1 1 1 1 1 1 1 1 1 1 1 1 1 1 1 1 1 1 1 1 1 1 1 1 1 1 1 1 1 1 1 1 1 1 1 1 1 1 1 1 1 1 1 1 1 1 1 1 1 1 1 1 1 1 1 1 1 1 1 1 1 1 1 1 1 1 1 1 1 1 1 1 1 1 1 1 1 1 1 1 1 1 1 1 1 1 1 1 1 1 1 1 1 1 1 1 1 1 1 1 1 1 1 1 1 1 1 1 1 1 1 1 1 1 1 1 1 1 1 1 1 1 1 1 1 1 1 1 1 1 1 1 1 1 1 1 1 1 1 1 1 1 1 1 1 1 1 1 1 1 1 1 1 1 1 1 1 1 1 1 1 1 1 1 1 1 1 1 1 1 1 1 1 1 1 1 1 1 1 1 1 1 1 1 1 1 1 1 1 1 1 1 1 1 1 1 1 1 1 1 1 1 1 1 1 1 1 1 1 1 1 1 1 1 1 1 1 1 1 1 1 1 1 1 1 1 1 1 1 1 1 1 1 
</DataArray>
<DataArray type="Float64" Name="cell variable 7" format="ascii">
0 0 0 0 0 0 0 0 0 0 0 0 0 0 0 0 0 0 0 0 0 0 0 0 0 0 0 0 0 0 0 0 0 0 0 0 0 0 0 0 0 0 0 0 0 0 0 0 0 0 0 0 0 0 0 0 0 0 0 0 0 0 0 0 0 0 0 0 0 0 0 0 0 0 0 0 0 0 0 0 0 0 0 0 0 0 0 0 0 0 0 0 0 0 0 0 0 0 0 0 0 0 0 0 0 0 0 0 0 0 0 0 0 0 0 0 0 0 0 0 0 0 0 0 0 0 0 0 0 0 0 0 0 0 0 0 0 0 0 0 0 0 0 0 0 0 0 0 0 0 0 0 0 0 0 0 0 0 0 0 0 0 0 0 0 0 0 0 0 0 0 0 0 0 0 0 0 0 0 0 0 0 0 0 0 0 0 0 0 0 0 0 0 0 0 0 0 0 0 0 0 0 0 0 0 0 0 0 0 0 0 0 0 0 0 0 0 0 0 0 0 0 0 0 0 0 0 0 0 0 0 0 0 0 0 0 0 0 0 0 0 0 0 0 0 0 0 0 0 0 0 0 0 0 0 0 0 0 0 0 0 0 0 0 0 0 0 0 0 0 0 0 0 0 0 0 0 0 0 0 0 0 0 0 0 0 0 0 0 0 0 0 0 0 0 0 0 0 0 0 0 0 0 0 0 0 0 0 0 0 0 0 0 0 0 0 0 0 0 0 0 0 0 0 0 0 0 0 0 0 0 0 0 0 0 0 0 0 0 0 0 0 0 0 0 0 0 0 0 0 0 0 0 0 0 0 0 0 0 0 0 0 0 0 0 0 0 0 0 0 0 0 0 0 0 0 0 0 0 0 0 0 0 0 0 0 0 0 0 0 0 0 0 0 0 0 0 0 0 0 0 0 0 0 0 0 0 0 0 0 0 0 0 0 0 0 0 0 0 0 0 0 0 0 0 0 0 0 0 0 0 0 0 0 0 0 0 0 0 0 0 0 0 0 0 0 0 0 0 0 0 0 0 0 0 0 0 0 0 0 0 0 0 0 0 0 0 0 0 0 0 0 0 0 0 0 0 0 0 0 0 0 0 0 0 0 0 0 0 0 0 0 0 0 0 0 0 0 0 0 0 0 0 0 0 0 0 0 0 0 0 0 1 1 
</DataArray>
<DataArray type="Float64" Name="cell variable 8" format="ascii">
11.25 33.75 56.25 78.75 101.25 123.75 146.25 168.75 191.25 213.75 236.25 258.75 281.25 303.75 326.25 348.75 11.25 33.75 56.25 78.75 101.25 123.75 146.25 168.75 191.25 213.75 236.25 258.75 281.25 303.75 326.25 348.75 11.25 33.75 56.25 78.75 101.25 123.75 146.25 168.75 191.25 213.75 236.25 258.75 281.25 303.75 326.25 348.75 11.25 33.75 56.25 78.75 101.25 123.75 146.25 168.75 191.25 213.75 236.25 258.75 281.25 303.75 326.25 348.75 11.25 33.75 56.25 78.75 101.25 123.75 146.25 168.75 191.25 213.75 236.25 258.75 281.25 303.75 326.25 348.75 11.25 33.75 56.25 78.75 101.25 123.75 146.25 168.75 191.25 213.75 236.25 258.75 281.25 303.75 326.25 348.75 11.25 33.75 56.25 78.75 101.25 123.75 146.25 168.75 191.25 213.75 236.25 258.75 281.25 303.75 326.25 348.75 11.25 33.75 56.25 78.75 101.25 123.75 146.25 168.75 191.25 213.75 236.25 258.75 281.25 303.75 326.25 348.75 11.25 33.75 56.25 78.75 101.25 123.75 146.25 168.75 191.25 213.75 236.25 258.75 281.25 303.75 326.25 348.75 11.25 33.75 56.25 78.75 101.25 123.75 146.25 168.75 191.25 213.75 236.25 258.75 281.25 303.75 326.25 348.75 11.25 33.75 56.25 78.75 101.25 123.75 146.25 168.75 191.25 213.75 236.25 258.75 281.25 303.75 326.25 348.75 11.25 33.75 56.25 78.75 101.25 123.75 146.25 168.75 191.25 213.75 236.25 258.75 281.25 303.75 326.25 348.75 11.25 33.75 56.25 78.75 101.25 123.75 146.25 168.75 191.25 213.75 236.25 258.75 281.25 303.75 326.25 348.75 11.25 33.75 56.25 78.75 101.25 123.75 146.25 168.75 191.25 213.75 236.25 258.75 281.25 303.75 326.25 348.75 11.25 33.75 56.25 78.75 101.25 123.75 146.25 168.75 191.25 213.75 236.25 258.75 281.25 303.75 326.25 348.75 11.25 33.75 56.25 78.75 101.25 123.75 146.25 168.75 191.25 213.75 236.25 258.75 281.25 303.75 326.25 348.75 11.25 33.75 56.25 78.75 101.25 123.75 146.25 168.75 191.25 213.75 236.25 258.75 281.25 303.75 326.25 348.75 11.25 33.75 56.25 78.75 101.25 123.75 146.25 168.75 191.25 213.75 236.25 258.75 281.25 303.75 326.25 348.75 11.25 33.75 56.25 78.75 101.25 123.75 146.25 168.75 191.25 213.75 236.25 258.75 281.25 303.75 326.25 348.75 11.25 33.75 56.25 78.75 101.25 123.75 146.25 168.75 191.25 213.75 236.25 258.75 281.25 303.75 326.25 348.75 11.25 33.75 56.25 78.75 101.25 123.75 146.25 168.75 191.25 213.75 236.25 258.75 281.25 303.75 326.25 348.75 11.25 33.75 56.25 78.75 101.25 123.75 146.25 168.75 191.25 213.75 236.25 258.75 281.25 303.75 326.25 348.75 11.25 33.75 56.25 78.75 101.25 123.75 146.25 168.75 191.25 213.75 236.25 258.75 281.25 303.75 326.25 348.75 11.25 33.75 56.25 78.75 101.25 123.75 146.25 168.75 191.25 213.75 236.25 258.75 281.25 303.75 326.25 348.75 11.25 33.75 56.25 78.75 101.25 123.75 146.25 168.75 191.25 213.75 236.25 258.75 281.25 303.75 326.25 348.75 11.25 33.75 56.25 78.75 101.25 123.75 146.25 168.75 191.25 213.75 236.25 258.75 281.25 303.75 326.25 348.75 11.25 33.75 56.25 78.75 101.25 123.75 146.25 168.75 191.25 213.75 236.25 258.75 281.25 303.75 326.25 348.75 11.25 33.75 56.25 78.75 101.25 123.75 146.25 168.75 191.25 213.75 236.25 258.75 281.25 303.75 326.25 348.75 11.25 33.75 56.25 78.75 101.25 123.75 146.25 168.75 191.25 213.75 236.25 258.75 281.25 303.75 326.25 348.75 11.25 33.75 56.25 78.75 101.25 123.75 146.25 168.75 191.25 213.75 236.25 258.75 281.25 303.75 326.25 348.75 11.25 33.75 56.25 78.75 101.25 123.75 146.25 168.75 191.25 213.75 236.25 258.75 281.25 303.75 326.25 348.75 11.25 33.75 56.25 78.75 101.25 123.75 146.25 168.75 191.25 213.75 236.25 258.75 281.25 303.75 326.25 348.75 0 0 
</DataArray>
</CellData>
</Piece>
</UnstructuredGrid>
</VTKFile>
