<VTKFile type="UnstructuredGrid" version="0.1">
<UnstructuredGrid>
<Piece  NumberOfPoints="    2080" NumberOfCells="     514">
<Points>
<DataArray type="Float64" NumberOfComponents="3" format="ascii">
-297.11 706.942 1.09696
-295.9 711.956 26.854
-270.827 700.781 28.9856
-272.17 695.355 1.13615
-295.625 713.069 29.6047
-292.112 727.277 51.401
-266.732 717.273 55.2926
-270.552 701.894 31.7364
-291.603 729.328 53.5012
-286.348 750.545 68.0034
-260.509 742.276 73.0813
-266.223 719.323 57.3927
-285.69 753.219 69.1348
-279.602 778.213 74.1678
-253.244 772.004 79.6917
-259.851 744.951 74.2127
-278.913 781.11 74.1647
-273.098 806.149 69.037
-246.295 802.061 74.1881
-252.555 774.901 79.6886
-272.492 808.835 67.8995
-267.79 830.162 53.365
-240.645 827.837 57.2787
-245.689 804.747 73.0506
-267.34 832.223 51.2593
-264.246 846.507 29.4482
-236.853 845.327 31.5556
-240.195 829.899 55.1729
-264.003 847.622 26.6944
-262.896 852.613 0.930173
-235.412 851.838 0.94092
-236.61 846.442 28.8017
-262.894 852.609 -2.0508
-263.959 847.543 -27.8027
-236.557 846.367 -29.8893
-235.409 851.834 -2.04005
-264.198 846.421 -30.554
-267.279 832.086 -52.3345
-240.121 829.758 -56.2223
-236.796 845.245 -32.6406
-267.727 830.02 -54.4355
-272.427 808.661 -68.9241
-245.619 804.566 -74.0405
-240.57 827.692 -58.3233
-273.033 805.973 -70.0558
-278.847 780.921 -75.1266
-252.482 774.705 -80.6145
-246.226 801.877 -75.1722
-279.536 778.024 -75.1233
-285.631 753.043 -70.0336
-259.782 744.77 -75.0734
-253.171 771.808 -80.6112
-286.29 750.372 -68.8962
-291.543 729.191 -54.3414
-266.184 719.194 -58.1884
-260.441 742.099 -73.936
-292.054 727.146 -52.2356
-295.575 712.994 -30.406
-270.546 701.827 -32.4689
-266.694 717.149 -56.0827
-295.853 711.888 -27.651
-297.109 706.938 -1.8845
-272.169 695.352 -1.84531
-270.823 700.72 -29.7139
-269.129 694.257 1.21389
-267.785 699.683 29.0633
-237.701 691.176 29.7152
-239.085 685.645 1.23629
-263.673 716.229 55.5092
-233.442 708.003 56.7179
-237.409 692.343 32.6049
-267.493 700.851 31.953
-257.419 741.333 73.405
-226.936 733.541 75.0114
-232.901 710.153 58.925
-263.132 718.38 57.7163
-250.112 771.191 80.0742
-219.35 763.947 81.8195
-226.237 736.347 76.2016
-256.719 744.138 74.5952
-243.13 801.393 74.5725
-212.331 794.758 76.1803
-218.627 766.988 81.8183
-249.389 774.232 80.073
-237.459 827.305 57.6049
-206.737 821.189 58.8078
-211.704 797.581 74.9845
-242.503 804.215 73.3768
-233.653 844.9 31.7721
-202.942 839.135 32.4245
-206.273 823.354 56.5924
-236.995 829.471 55.3895
-232.202 851.466 1.01757
-201.486 845.823 1.0343
-202.689 840.305 29.5307
-233.4 846.07 28.8784
-233.347 845.996 -29.9626
-202.649 840.226 -30.5765
-201.484 845.819 -2.09654
-232.199 851.462 -2.11327
-236.921 829.33 -56.4352
-206.208 823.215 -57.5908
-202.898 839.048 -33.4674
-233.596 844.818 -32.8535
-242.433 804.033 -74.3626
-211.633 797.399 -75.9254
-206.671 821.044 -59.801
-237.383 827.16 -58.6454
-249.316 774.036 -80.9944
-218.552 766.791 -82.6904
-212.259 794.575 -77.1148
-243.059 801.208 -75.552
-256.65 743.957 -75.4511
-226.169 736.164 -77.0042
-219.275 763.75 -82.685
-250.039 770.995 -80.9889
-263.094 718.25 -58.5067
-232.857 710.016 -59.6671
-226.87 733.361 -75.8074
-257.351 741.154 -74.2543
-267.489 700.783 -32.6796
-237.397 692.263 -33.2867
-233.401 707.871 -57.4538
-263.638 716.105 -56.2933
-267.783 699.622 -29.7859
-269.128 694.254 -1.9173
-239.085 685.642 -1.89491
-237.691 691.102 -30.3931
-235.725 684.755 1.25973
-234.341 690.285 29.7387
-203.785 682.784 29.89
-205.192 677.236 1.28158
-234.04 691.464 32.6682
-230.073 707.125 56.7811
-199.407 699.665 57.0495
-203.484 683.963 32.8195
-229.51 709.298 59.0205
-223.546 732.686 75.1069
-192.631 725.282 75.454
-198.845 701.839 59.2888
-222.815 735.523 76.3149
-215.927 763.124 81.9328
-184.658 755.772 82.311
-191.9 728.119 76.662
-215.193 766.199 81.932
-208.897 793.969 76.294
-177.862 786.822 76.6582
-183.924 758.847 82.3102
-208.284 796.837 75.0825
-203.317 820.445 58.9058
-172.541 813.561 59.2421
-177.25 789.689 75.4467
-202.865 822.647 56.6588
-199.534 838.427 32.4908
-168.828 831.695 32.6944
-172.088 815.764 56.9951
-199.284 839.617 29.5554
-198.081 845.135 1.05894
-167.377 838.447 1.08218
-168.578 832.885 29.7589
-198.079 845.131 -2.11668
-199.244 839.538 -30.5967
-168.547 832.809 -30.7555
-167.375 838.443 -2.09345
-199.491 838.341 -33.529
-202.801 822.508 -57.6524
-172.034 815.626 -57.9473
-168.794 831.613 -33.6879
-203.252 820.3 -59.8941
-208.214 796.656 -76.0185
-177.182 789.507 -76.3397
-172.485 813.418 -60.189
-208.826 793.786 -77.2235
-215.119 766.002 -82.7991
-183.851 758.649 -83.1328
-177.794 786.637 -77.5447
-215.853 762.926 -82.7929
-222.746 735.34 -77.1121
-191.832 727.934 -77.4148
-184.585 755.574 -83.1266
-223.479 732.505 -75.8976
-229.467 709.16 -59.7574
-198.794 701.697 -59.9832
-192.564 725.1 -76.2004
-230.032 706.991 -57.5122
-234.027 691.384 -33.3451
-203.464 683.877 -33.4537
-199.358 699.528 -57.7379
-234.331 690.211 -30.4116
-235.725 684.751 -1.91347
-205.191 677.232 -1.89162
-203.768 682.704 -30.5202
-201.834 676.388 1.29103
-200.428 681.936 29.8994
-170.413 674.152 29.9599
-172.015 668.64 1.31147
-200.101 683.116 32.8402
-196.024 698.818 57.0702
-165.467 690.934 57.1554
-170.087 675.333 32.9007
-195.415 700.99 59.3147
-189.202 724.433 75.4799
-157.887 716.404 75.5699
-164.858 693.106 59.3999
-188.407 727.265 76.689
-181.165 754.918 82.3379
-148.962 746.716 82.4426
-157.092 719.236 76.779
-180.356 758.003 82.3309
-174.295 785.978 76.6789
-140.527 777.455 76.7466
-148.153 749.801 82.4355
-173.617 788.839 75.4593
-168.908 812.711 59.2547
-133.791 804.022 59.3627
-139.849 780.316 75.527
-168.407 814.907 57.0058
-165.146 830.838 32.7051
-129.202 822.049 32.79
-133.29 806.218 57.1138
-164.869 832.024 29.7649
-163.668 837.586 1.08814
-127.45 828.76 1.11576
-128.925 823.235 29.8498
-163.666 837.582 -2.09397
-164.839 831.948 -30.7561
-128.898 823.163 -30.7882
-127.449 828.756 -2.06634
-165.114 830.756 -33.6935
-168.353 814.769 -57.9529
-133.24 806.081 -58.0137
-129.173 821.971 -33.7256
-168.852 812.568 -60.1967
-173.549 788.657 -76.3475
-139.783 780.135 -76.3686
-133.739 803.88 -60.2576
-174.226 785.793 -77.5605
-180.283 757.805 -83.1486
-148.081 749.603 -83.2088
-140.46 777.271 -77.5817
-181.092 754.72 -83.1487
-188.339 727.081 -77.4369
-157.024 719.052 -77.4844
-148.89 746.518 -83.2089
-189.134 724.251 -76.2216
-195.364 700.847 -60.0044
-164.802 692.962 -60.0488
-157.819 716.222 -76.269
-195.975 698.68 -57.754
-200.081 683.029 -33.4698
-170.058 675.242 -33.4896
-165.414 690.795 -57.7984
-200.409 681.856 -30.525
-201.833 676.384 -1.89639
-172.014 668.636 -1.87595
-170.387 674.069 -30.5448
-168.72 667.717 1.31553
-167.118 673.229 29.964
-137.606 664.334 29.9964
-139.416 658.892 1.3378
-166.749 674.398 32.9077
-162.129 690 57.1624
-132.033 680.909 57.2086
-137.237 665.503 32.9401
-161.444 692.153 59.4086
-154.472 715.45 75.5786
-123.523 706.083 75.6363
-131.348 683.062 59.4548
-153.579 718.258 76.7877
-145.449 745.738 82.4512
-113.449 736.04 82.494
-122.63 708.891 76.8454
-144.506 748.784 82.4432
-136.88 776.438 76.7543
-103.531 766.334 76.8004
-112.506 739.086 82.4859
-136.048 779.267 75.5343
-129.99 802.972 59.37
-95.3741 792.522 59.4015
-102.699 769.163 75.5804
-129.371 805.146 57.1209
-125.283 820.978 32.7972
-89.8606 810.324 32.8315
-94.7551 794.695 57.1524
-124.945 822.152 29.8546
-123.471 827.677 1.12059
-87.7784 816.958 1.14888
-89.5231 811.498 29.8889
-123.47 827.673 -2.06505
-124.919 822.08 -30.7869
-89.4996 811.427 -30.7653
-87.7771 816.954 -2.03676
-125.254 820.899 -33.7269
-129.322 805.009 -58.0151
-94.7087 794.56 -57.9926
-89.8347 810.246 -33.7053
-129.939 802.83 -60.2594
-135.982 779.086 -76.3704
-102.635 768.983 -76.3648
-95.3257 792.381 -60.2368
-136.813 776.254 -77.5841
-144.434 748.586 -83.2112
-112.435 738.889 -83.2055
-103.465 766.151 -77.5785
-145.377 745.54 -83.2125
-153.511 718.074 -77.488
-122.562 708.707 -77.4999
-113.377 735.843 -83.2068
-154.405 715.269 -76.2729
-161.388 692.008 -60.0527
-131.289 682.917 -60.0546
-123.455 705.902 -76.2847
-162.075 689.86 -57.8007
-166.72 674.308 -33.4919
-137.204 665.411 -33.4797
-131.976 680.769 -57.8026
-167.091 673.146 -30.5441
-168.718 667.712 -1.87523
-139.415 658.887 -1.85295
-137.576 664.249 -30.532
-136.18 657.838 1.34097
-134.37 663.28 29.9996
-105.411 653.124 30.028
-107.439 647.771 1.36504
-133.955 664.433 32.9447
-128.751 679.839 57.2133
-99.1772 669.438 57.2547
-104.997 654.277 32.9732
-127.983 681.963 59.4611
-120.158 704.983 75.6425
-89.6631 694.23 75.6978
-98.4087 671.562 59.5025
-119.155 707.753 76.8512
-109.974 734.903 82.4998
-78.3508 723.734 82.5468
-88.6599 697 76.9065
-108.899 737.902 82.4912
-99.9236 765.15 76.8056
-67.039 753.517 76.8527
-77.2754 726.733 82.5381
-98.9508 767.934 75.5851
-91.6257 791.292 59.4062
-57.546 779.247 59.4374
-66.0663 756.301 75.6321
-90.8944 793.433 57.156
-85.9999 809.061 32.835
-51.1364 796.753 32.8653
-56.8146 781.388 57.1872
-85.6035 810.218 29.8923
-83.8589 815.678 1.15227
-48.73 803.283 1.18204
-50.74 797.91 29.9226
-83.8577 815.674 -2.03373
-85.5802 810.148 -30.7623
-50.7194 797.841 -30.7337
-48.7288 803.279 -2.00396
-85.9742 808.984 -33.7026
-90.8483 793.298 -57.9899
-56.7711 781.254 -57.9643
-51.1134 796.677 -33.6741
-91.5776 791.152 -60.2355
-98.8865 767.754 -76.3634
-66.0024 756.121 -76.3558
-57.5003 779.109 -60.2099
-99.858 764.967 -77.578
-108.827 737.705 -83.205
-77.2038 726.536 -83.2008
-66.9738 753.335 -77.5704
-109.902 734.705 -83.2073
-119.087 707.569 -77.5004
-88.5915 696.817 -77.5072
-78.279 723.537 -83.2031
-120.09 704.802 -76.2858
-127.924 681.818 -60.0557
-98.3488 671.417 -60.0498
-89.5953 694.049 -76.2926
-128.694 679.699 -57.8022
-133.922 664.341 -33.4793
-104.962 654.185 -33.4598
-99.119 669.298 -57.7963
-134.339 663.195 -30.53
-136.178 657.833 -1.85095
-107.437 647.766 -1.82688
-105.379 653.039 -30.5104
-104.266 646.576 1.36813
-102.239 651.93 30.0311
-73.8729 640.485 30.0586
-76.1246 635.233 1.39335
-101.777 653.063 32.9774
-95.9574 668.223 57.2589
-66.9529 656.496 57.2966
-73.4113 641.618 33.0049
-95.1014 670.312 59.5081
-86.3558 692.98 75.7034
-56.3903 680.841 75.7531
-66.097 658.584 59.5458
-85.2366 695.704 76.9122
-74.9274 722.437 82.5525
-43.8016 709.811 82.599
-55.271 683.565 76.9619
-73.7198 725.383 82.5433
-63.4833 752.168 76.8578
-31.1354 739.025 76.9014
-42.5939 712.757 82.5899
-62.3771 754.9 75.6367
-53.8568 777.846 59.442
-20.3741 764.245 59.4755
-30.0292 741.757 75.6803
-53.0181 779.947 57.1908
-47.3398 795.312 32.8689
-13.0984 781.407 32.9002
-19.5354 766.346 57.2243
-46.8863 796.448 29.926
-44.8762 801.821 1.18544
-10.3751 787.813 1.21682
-12.6448 782.543 29.9572
-44.8752 801.818 -2.00061
-46.8658 796.379 -30.7304
-12.6272 782.476 -30.6996
-10.3741 787.81 -1.96924
-47.3172 795.236 -33.6711
-52.9748 779.814 -57.9613
-19.4947 766.215 -57.9357
-13.0787 781.333 -33.6404
-53.8113 777.708 -60.2082
-62.3134 754.72 -76.3541
-29.9643 741.578 -76.3411
-20.3312 764.109 -60.1825
-63.4181 751.985 -77.5696
-73.6481 725.186 -83.2
-42.5214 712.56 -83.1941
-31.069 738.842 -77.5566
-74.8557 722.24 -83.2032
-85.1681 695.52 -77.5072
-55.2046 683.381 -77.5073
-43.729 709.614 -83.1973
-86.288 692.799 -76.2928
-95.0416 670.167 -60.05
-66.0393 658.439 -60.0387
-56.3245 680.66 -76.2929
-95.8993 668.083 -57.7951
-101.742 652.97 -33.4585
-73.378 641.525 -33.4359
-66.897 656.356 -57.7837
-102.207 651.844 -30.508
-104.264 646.572 -1.82447
-76.123 635.228 -1.79925
-73.8426 640.399 -30.4854
-73.0206 633.896 1.39636
-70.7689 639.148 30.0617
-43.0356 626.419 30.0875
-45.5172 621.277 1.42127
-70.2586 640.259 33.0086
-63.8002 655.136 57.3003
-35.4157 642.091 57.3323
-42.5253 627.53 33.0344
-62.8541 657.184 59.5505
-53.1474 679.44 75.7578
-23.7835 665.928 75.7981
-34.4696 644.138 59.5825
-51.9094 682.111 76.9668
-40.4399 708.358 82.604
-9.90616 694.294 82.6434
-22.5455 668.598 77.0072
-39.1004 711.244 82.5945
-27.642 737.512 76.906
4.0894 722.874 76.943
-8.5667 697.181 82.6339
-26.4071 740.187 75.6846
-16.752 762.675 59.4798
16.0642 747.537 59.5119
5.32422 725.549 75.7215
-15.8104 764.731 57.228
-9.37343 779.792 32.9038
24.1756 764.32 32.9354
17.0058 749.594 57.2602
-8.86438 780.905 29.9608
-6.59469 786.175 1.22036
27.2079 770.589 1.25316
24.6846 765.432 29.9923
-6.59387 786.172 -1.96567
-8.84701 780.838 -30.6961
24.6986 765.369 -30.6627
27.2087 770.585 -1.93287
-9.35407 779.719 -33.6372
-15.7701 764.601 -57.9324
17.0429 749.468 -57.9026
24.1915 764.25 -33.6038
-16.7091 762.538 -60.1804
-26.3422 740.007 -76.339
5.39382 725.369 -76.3211
16.1039 747.405 -60.1506
-27.5752 737.329 -77.5553
-39.0276 711.046 -83.1928
-8.49148 696.978 -83.1827
4.1608 722.691 -77.5375
-40.3674 708.16 -83.1967
-51.843 681.927 -77.5068
-22.4862 668.412 -77.4983
-9.83125 694.092 -83.1866
-53.0822 679.259 -76.2922
-62.797 657.039 -60.038
-34.4203 643.991 -60.0219
-23.7255 665.744 -76.2838
-63.7447 654.996 -57.782
-70.2258 640.165 -33.4342
-42.4978 627.434 -33.4108
-35.3681 641.949 -57.7659
-70.7388 639.062 -30.4828
-73.0191 633.891 -1.79667
-45.5158 621.273 -1.77176
-43.0107 626.33 -30.4594
-42.4861 619.799 1.42403
-40.0045 624.941 30.0902
-12.9479 610.945 30.1133
-15.6618 605.925 1.44655
-39.4449 626.027 33.0376
-32.3353 640.588 57.3355
-4.62469 626.243 57.362
-12.3882 612.031 33.0606
-31.2981 642.589 59.5864
-20.612 664.379 75.802
8.0806 649.514 75.8337
-3.58752 628.245 59.6129
-19.2543 666.99 77.0112
-6.61501 692.685 82.6474
23.2455 677.204 82.6796
9.4383 652.124 77.043
-5.14471 695.506 82.6377
7.51139 721.199 76.9468
38.5488 705.091 76.9765
24.7158 680.024 82.6699
8.87084 723.812 75.7252
19.6108 745.8 59.5156
51.6889 729.15 59.5428
39.9083 707.703 75.7548
20.6512 747.808 57.2636
27.821 762.534 32.9389
60.6062 745.521 32.9675
52.7293 731.158 57.2909
28.3839 763.621 29.9958
30.9071 768.777 1.25661
63.9408 751.644 1.28693
61.169 746.608 30.0244
30.9079 768.774 -1.9294
28.3978 763.558 -30.6592
61.1853 746.563 -30.6305
63.9416 751.641 -1.89907
27.837 762.466 -33.6007
20.6884 747.684 -57.8995
52.772 731.062 -57.8769
60.6246 745.47 -33.5719
19.6513 745.67 -60.1485
8.94117 723.633 -76.3191
40.0026 707.551 -76.3087
51.7349 729.048 -60.1259
7.58432 721.015 -77.5366
-5.06795 695.302 -83.1818
24.7883 679.79 -83.1899
38.6458 704.933 -77.5263
-6.54091 692.481 -83.1864
-19.1959 666.801 -77.4981
9.47611 651.92 -77.4976
23.3154 676.969 -83.1945
-20.5554 664.194 -76.283
-31.2503 642.441 -60.0211
-3.55646 628.086 -60.0107
8.11657 649.313 -76.2824
-32.2887 640.445 -57.7642
-39.4185 625.93 -33.409
-12.3716 611.928 -33.3893
-4.5949 626.09 -57.7538
-39.9801 624.852 -30.457
-42.4851 619.794 -1.76931
-15.6608 605.92 -1.74679
-12.9332 610.85 -30.4372
-12.7086 604.308 1.44901
-9.99464 609.328 30.1157
16.3379 594.09 30.1361
13.3922 589.202 1.46917
-9.38569 610.387 33.0633
-1.62219 624.599 57.3647
25.3585 608.978 57.3872
16.9469 595.148 33.0837
-0.494243 626.55 59.616
11.1739 647.818 75.8369
39.1267 631.625 75.8634
26.4864 610.929 59.6384
12.6505 650.363 77.0463
26.4577 675.443 82.683
55.5614 658.572 82.7112
40.6032 634.169 77.0728
28.0572 678.191 82.6731
41.8902 703.257 76.9797
72.1477 685.713 77.0047
57.1609 661.321 82.7013
43.3709 705.802 75.7578
55.1516 727.248 59.5458
86.4172 709.117 59.5699
73.6284 688.258 75.7829
56.2873 729.205 57.2939
64.1641 743.568 32.9705
96.113 725.042 32.9965
87.5529 711.073 57.3179
64.779 744.627 30.0275
67.5508 749.662 1.29008
99.7408 731.006 1.31783
96.7279 726.101 30.0536
67.5518 749.66 -1.89596
64.7955 744.582 -30.6273
96.7485 726.077 -30.6016
99.7418 731.004 -1.86821
64.183 743.519 -33.5693
56.3304 729.112 -57.8743
87.6015 711.014 -57.8545
96.136 725.014 -33.5435
55.1985 727.151 -60.124
43.4663 705.654 -76.3068
73.7194 688.161 -76.2983
86.4697 709.054 -60.1042
41.9864 703.1 -77.5263
28.129 677.957 -83.1899
57.1831 661.076 -83.2025
72.2395 685.607 -77.5178
26.5244 675.205 -83.195
12.6851 650.156 -77.4981
40.6081 633.949 -77.4989
55.5785 658.324 -83.2077
11.2074 647.616 -76.282
-0.465659 626.39 -60.0103
26.4943 610.758 -60.0018
39.1304 631.409 -76.2828
-1.59405 624.444 -57.7523
-9.37074 610.282 -33.3878
16.95 595.037 -33.3705
25.3659 608.813 -57.7438
-9.98061 609.232 -30.4351
-12.7082 604.302 -1.74463
13.3927 589.196 -1.72448
16.3402 593.987 -30.4177
16.2624 587.449 1.47134
19.2081 592.337 30.1382
44.7678 575.884 30.1557
41.5936 571.141 1.48957
19.8658 593.365 33.086
28.2774 607.195 57.3895
54.4768 590.327 57.4071
45.4255 576.913 33.1035
29.495 609.09 59.6409
42.1352 629.787 75.8658
69.2903 612.295 75.8856
55.6944 592.222 59.6586
43.7288 632.258 77.0755
58.6869 656.662 82.7139
86.9671 638.438 82.7353
70.8839 614.767 77.0953
60.4129 659.332 82.7039
75.3997 683.724 77.0073
104.806 664.771 77.0273
88.6931 641.108 82.7253
76.9986 686.197 75.7854
89.7874 707.055 59.5724
120.168 687.469 59.5927
106.405 667.243 75.8054
91.0151 708.955 57.3206
99.5752 722.924 32.9992
130.613 702.915 33.0222
121.396 689.369 57.341
100.24 723.953 30.0564
103.253 728.857 1.3207
134.521 708.703 1.34617
131.278 703.944 30.0794
103.254 728.856 -1.86529
100.261 723.929 -30.5987
131.296 703.929 -30.5719
134.522 708.702 -1.83981
99.5982 722.898 -33.5408
91.0637 708.898 -57.8518
121.436 689.33 -57.8262
130.633 702.898 -33.514
89.8391 706.995 -60.1023
77.0889 686.102 -76.2964
106.472 667.176 -76.2786
120.211 687.427 -60.0767
75.4876 683.62 -77.5172
60.4311 659.09 -83.2019
88.6692 640.88 -83.1933
104.871 664.694 -77.4994
58.7 656.413 -83.2075
43.7296 632.038 -77.4987
70.8576 614.551 -77.4865
86.9381 638.203 -83.1989
42.1363 629.57 -76.2819
29.5002 608.919 -60.0009
55.6816 592.05 -59.986
69.2643 612.083 -76.2697
28.2832 607.029 -57.7423
19.8673 593.254 -33.3689
45.4163 576.799 -33.3513
54.4646 590.161 -57.7274
19.2097 592.234 -30.4157
16.2622 587.443 -1.72247
41.5934 571.135 -1.70424
44.7587 575.779 -30.3981
44.3753 569.256 1.4914
47.5495 573.999 30.1576
72.2872 556.366 30.1715
68.8897 551.781 1.50626
48.2552 574.995 33.1053
57.3065 588.409 57.4089
82.6698 570.327 57.4219
72.9929 557.362 33.1192
58.612 590.244 59.6604
72.208 610.317 75.8874
98.5045 591.565 75.9009
83.9753 572.162 59.6734
73.9159 612.711 77.0972
89.999 636.382 82.7372
117.392 616.841 82.7512
100.212 593.958 77.1107
91.8483 638.967 82.7272
107.961 662.63 77.0292
136.447 642.302 77.0428
119.241 619.426 82.7412
109.675 665.024 75.8073
123.438 685.25 59.5947
152.863 664.248 59.6091
138.16 644.696 75.8209
124.754 687.09 57.3431
133.972 700.636 33.0243
164.027 679.182 33.0412
154.179 666.087 57.3576
134.685 701.632 30.0818
137.928 706.392 1.34856
168.203 684.781 1.36807
164.74 680.179 30.0987
137.929 706.391 -1.83723
134.702 701.618 -30.5693
164.751 680.17 -30.5476
168.204 684.781 -1.81771
133.99 700.62 -33.5114
124.794 687.051 -57.8236
154.204 666.062 -57.8016
164.039 679.172 -33.4898
123.479 685.21 -60.0744
109.74 664.959 -76.2763
138.201 644.65 -76.2567
152.89 664.22 -60.0524
108.023 662.556 -77.4976
91.8208 638.742 -83.1916
119.18 619.222 -83.1759
136.484 642.246 -77.478
89.9665 636.149 -83.1975
73.886 612.496 -77.4851
100.157 593.758 -77.4708
117.326 616.629 -83.1819
72.1795 610.106 -76.2682
58.5968 590.073 -59.9845
83.9436 572 -59.9704
98.451 591.368 -76.2538
57.2927 588.243 -57.7258
48.2445 574.882 -33.3497
72.9724 557.252 -33.3348
82.6395 570.169 -57.7116
47.5399 573.894 -30.3963
44.3746 569.25 -1.70244
68.8889 551.775 -1.68758
72.2679 556.264 -30.3814
71.5776 549.767 1.50764
74.9751 554.352 30.1728
98.8398 535.576 30.1823
95.2254 531.16 1.51796
75.7275 555.313 33.1205
85.4045 568.279 57.4232
109.877 549.021 57.4313
99.5922 536.537 33.13
86.7956 570.049 59.6746
101.325 589.451 75.9021
126.703 569.476 75.9096
111.268 550.792 59.6828
103.144 591.761 77.1118
120.324 614.643 82.7523
146.765 593.825 82.7588
128.522 571.786 77.1193
122.292 617.138 82.7423
139.498 640.014 77.0439
166.996 618.355 77.0496
148.734 596.319 82.7487
141.322 642.324 75.8221
156.025 661.876 59.6103
184.425 639.502 59.6171
168.82 620.665 75.8278
157.426 663.652 57.3589
167.274 676.747 33.0426
196.278 653.894 33.0519
185.826 641.277 57.3657
168.033 677.708 30.1004
171.496 682.311 1.36971
200.712 659.291 1.38206
197.037 654.855 30.1097
171.497 682.311 -1.81582
168.043 677.7 -30.5457
197.042 654.853 -30.5307
200.712 659.291 -1.80347
167.285 676.737 -33.4877
157.45 663.627 -57.7995
185.836 641.266 -57.7828
196.283 653.89 -33.4726
156.049 661.85 -60.0503
141.361 642.28 -76.2546
168.836 620.641 -76.2377
184.435 639.489 -60.0336
139.532 639.961 -77.4762
122.228 616.937 -83.1741
148.64 596.142 -83.1596
167.007 618.322 -77.4593
120.254 614.434 -83.1803
103.086 591.563 -77.4692
128.441 571.606 -77.4575
146.666 593.639 -83.1659
101.269 589.256 -76.2525
86.7617 569.888 -59.9691
111.219 550.642 -59.9593
126.624 569.299 -76.2407
85.3727 568.122 -57.7103
75.7056 555.204 -33.3335
99.5611 536.432 -33.3233
109.83 548.876 -57.7006
74.9553 554.251 -30.38
71.5763 549.762 -1.6862
95.2241 531.155 -1.67588
98.8107 535.479 -30.3698
97.8139 529.023 1.51883
101.428 533.438 30.1832
124.368 513.556 30.1881
120.545 509.322 1.52475
102.226 534.361 33.1307
112.511 546.846 57.4321
136.038 526.453 57.4346
125.166 514.479 33.1356
113.985 548.547 59.6833
129.42 567.232 75.9102
153.823 546.076 75.9095
137.513 528.155 59.6859
131.347 569.452 77.1196
149.59 591.491 82.759
175.02 569.439 82.7536
155.75 548.296 77.1189
151.674 593.889 82.7487
169.936 615.925 77.0495
196.381 592.982 77.0408
177.104 571.837 82.7432
171.866 618.146 75.8277
187.471 636.983 59.617
214.777 613.283 59.6098
198.312 595.203 75.819
188.954 638.69 57.3659
199.406 651.306 33.0522
227.289 627.098 33.0504
216.261 614.99 57.3587
200.209 652.231 30.1104
203.884 656.667 1.38277
231.969 632.282 1.38825
228.093 628.023 30.1086
203.884 656.667 -1.80223
200.213 652.229 -30.5294
228.091 628.026 -30.517
231.969 632.282 -1.79674
199.41 651.304 -33.471
188.962 638.679 -57.7811
216.256 614.991 -57.7632
227.288 627.101 -33.4585
187.479 636.972 -60.0316
171.88 618.124 -76.2357
198.303 595.202 -76.2141
214.773 613.284 -60.0137
169.944 615.894 -77.4573
151.577 593.714 -83.1576
176.979 571.69 -83.1392
196.366 592.973 -77.4356
149.488 591.308 -83.1643
131.263 569.275 -77.4559
155.647 548.14 -77.4445
174.89 569.284 -83.1459
129.339 567.056 -76.2397
113.933 548.399 -59.9582
137.449 528.02 -59.9516
153.724 545.922 -76.2282
112.462 546.701 -57.6997
102.194 534.258 -33.3224
125.126 514.382 -33.3164
135.978 526.322 -57.6931
101.399 533.341 -30.3689
97.8121 529.018 -1.675
120.543 509.317 -1.66908
124.331 513.465 -30.3629
123.028 507.063 1.52515
126.852 511.298 30.1885
148.814 490.349 30.1892
144.789 486.306 1.52781
127.693 512.182 33.1358
138.565 524.155 57.4347
161.094 502.669 57.4301
149.655 491.233 33.1364
140.12 525.784 59.6854
156.43 543.706 75.909
179.804 521.415 75.8941
162.649 504.297 59.6808
158.461 545.831 77.1174
177.731 566.973 82.7521
202.093 543.737 82.7186
181.835 523.54 77.1024
179.926 569.27 82.7402
199.203 590.415 77.0378
224.536 566.24 76.9757
204.289 546.034 82.7068
201.234 592.541 75.8151
217.7 610.621 59.6059
243.823 585.62 59.544
226.567 568.367 75.7531
219.259 612.255 57.3557
230.288 624.363 33.0474
256.939 598.802 33.0098
245.382 587.253 57.2937
231.133 625.248 30.1077
235.009 629.507 1.38736
261.841 603.748 1.38879
257.784 599.687 30.0701
235.009 629.507 -1.79505
231.131 625.251 -30.5153
257.77 599.689 -30.473
261.841 603.748 -1.79361
230.285 624.367 -33.4546
219.253 612.257 -57.7592
245.354 587.255 -57.6887
256.925 598.804 -33.4122
217.693 610.623 -60.0085
201.223 592.542 -76.209
226.517 568.377 -76.1352
243.793 585.621 -59.938
199.185 590.409 -77.431
179.798 569.126 -83.1346
204.142 545.936 -83.0814
224.479 566.244 -77.3572
177.599 566.822 -83.1428
158.356 545.678 -77.4414
181.722 523.416 -77.4135
201.943 543.632 -83.0896
156.329 543.554 -76.2267
140.055 525.652 -59.95
162.579 504.183 -59.9384
179.696 521.292 -76.1988
138.504 524.025 -57.6923
127.652 512.085 -33.3156
149.61 491.145 -33.3109
161.028 502.557 -57.6807
126.814 511.208 -30.3624
123.026 507.059 -1.66856
144.787 486.301 -1.6659
148.772 490.268 -30.3576
147.162 483.932 1.52783
151.186 487.975 30.1892
172.121 466.003 30.187
167.906 462.161 1.52758
152.069 488.817 33.1361
163.508 500.253 57.4298
184.984 477.715 57.4224
173.004 466.845 33.1338
165.14 501.805 59.6796
182.295 518.923 75.8929
204.578 495.54 75.8755
186.615 479.267 59.6722
184.426 520.949 77.0996
204.684 541.145 82.7158
227.914 516.767 82.6806
206.709 497.565 77.0823
206.987 543.334 82.7013
227.234 563.54 76.9702
251.41 538.158 76.9071
230.217 518.955 82.666
229.362 565.566 75.7459
246.617 582.819 59.5368
271.568 556.549 59.4736
253.537 540.183 75.6828
248.249 584.373 57.288
259.805 595.921 33.004
285.264 569.063 32.9638
273.199 558.104 57.2248
260.688 596.763 30.0679
264.746 600.824 1.38654
290.378 573.757 1.38324
286.147 569.904 30.0276
264.745 600.824 -1.79149
260.674 596.765 -30.4709
286.122 569.904 -30.4355
290.377 573.757 -1.79479
259.789 595.923 -33.4063
248.218 584.374 -57.6827
273.149 558.102 -57.6203
285.237 569.062 -33.371
246.585 582.82 -59.9302
229.308 565.576 -76.1275
253.462 540.188 -76.0585
271.515 556.548 -59.8677
227.175 563.546 -77.3503
206.838 543.239 -83.0745
230.074 518.887 -83.0241
251.329 538.158 -77.2813
204.533 541.044 -83.0853
184.313 520.828 -77.4093
206.596 497.472 -77.3851
227.77 516.692 -83.0349
182.186 518.802 -76.1969
165.07 501.694 -59.9364
186.546 479.174 -59.9279
204.47 495.446 -76.1727
163.442 500.143 -57.6799
152.024 488.731 -33.3101
172.958 466.768 -33.3082
184.918 477.623 -57.6714
151.144 487.894 -30.3574
147.159 483.928 -1.66566
167.903 462.157 -1.66592
172.078 465.931 -30.3554
170.161 459.676 1.52735
174.377 463.518 30.1867
194.235 440.564 30.1833
189.838 436.934 1.52509
175.3 464.316 33.1333
187.28 475.187 57.4219
207.649 451.64 57.4158
195.157 441.363 33.1299
188.984 476.658 59.6711
206.947 492.931 75.8744
228.08 468.498 75.8651
209.353 453.112 59.665
209.172 494.852 77.0802
230.378 514.053 82.6785
252.41 488.575 82.6648
230.306 470.418 77.0709
232.783 516.128 82.6625
253.976 535.33 76.9036
276.905 508.809 76.8881
254.815 490.65 82.6488
256.198 537.25 75.6785
274.228 553.616 59.4693
297.92 526.207 59.4555
279.126 510.728 75.6629
275.93 555.088 57.2213
287.995 566.047 32.9602
312.192 538.048 32.9495
299.622 527.68 57.2075
288.915 566.845 30.0259
293.147 570.697 1.38157
317.518 542.489 1.37572
313.112 538.846 30.0153
293.146 570.697 -1.79406
288.89 566.844 -30.4348
313.078 538.841 -30.4341
317.517 542.489 -1.79991
287.966 566.046 -33.368
275.878 555.086 -57.6173
299.553 527.672 -57.6091
312.154 538.044 -33.3673
274.173 553.614 -59.8633
256.12 537.254 -76.0541
279.022 510.733 -76.0364
297.848 526.2 -59.8551
253.894 535.333 -77.2768
232.639 516.061 -83.0195
254.674 490.617 -82.9938
276.796 508.812 -77.2592
230.234 513.981 -83.0317
209.061 494.761 -77.382
230.201 470.35 -77.3694
252.269 488.537 -83.006
206.839 492.839 -76.1714
188.915 476.567 -59.9266
209.288 453.037 -59.9231
227.98 468.429 -76.1588
187.214 475.096 -57.6711
175.254 464.241 -33.3079
195.111 441.296 -33.3087
207.587 451.566 -57.6676
174.334 463.447 -30.3555
170.159 459.673 -1.66598
189.836 436.93 -1.66824
194.192 440.502 -30.3563
191.973 434.343 1.52473
196.369 437.974 30.183
215.098 414.084 30.1791
210.533 410.672 1.52172
197.329 438.727 33.1293
209.821 449.004 57.4153
229.032 424.497 57.4093
216.059 414.837 33.1255
211.594 450.391 59.6642
230.32 465.778 75.8643
250.252 440.347 75.8568
230.805 425.884 59.6582
232.636 467.588 77.0699
254.741 485.745 82.6638
275.522 459.224 82.6573
252.567 442.158 77.0624
257.243 487.702 82.6476
279.332 505.861 76.8869
300.964 478.264 76.8805
278.024 461.181 82.6411
281.643 507.671 75.6618
300.437 523.15 59.4544
322.787 494.639 59.4478
303.275 480.074 75.6554
302.207 524.54 57.2064
314.777 534.908 32.9485
337.607 505.784 32.9422
324.557 496.029 57.1998
315.735 535.66 30.0145
320.141 539.304 1.37492
343.136 509.963 1.36959
338.565 506.536 30.0082
320.139 539.304 -1.80028
315.699 535.656 -30.4344
338.52 506.526 -30.4369
343.134 509.962 -1.80561
314.738 534.903 -33.3671
302.137 524.531 -57.6089
324.472 496.011 -57.6068
337.559 505.773 -33.3696
300.363 523.142 -59.8543
281.536 507.675 -76.0356
303.155 480.059 -76.027
322.698 494.622 -59.8522
279.223 505.864 -77.2573
257.101 487.67 -82.9918
277.908 461.16 -82.9729
300.841 478.248 -77.2486
254.601 485.71 -83.0042
232.534 467.523 -77.3676
252.478 442.109 -77.3574
275.408 459.199 -82.9852
230.221 465.71 -76.158
211.53 450.318 -59.9223
230.749 425.824 -59.9196
250.166 440.296 -76.1479
209.759 448.931 -57.6675
197.283 438.661 -33.3086
216.015 414.779 -33.3103
228.978 424.437 -57.6648
196.326 437.912 -30.3566
191.97 434.34 -1.66847
210.531 410.669 -1.67149
215.057 414.03 -30.3582
212.54 407.981 1.52135
217.105 411.393 30.1788
234.665 386.617 30.1759
229.942 383.431 1.51831
218.101 412.098 33.1251
231.074 421.758 57.4088
249.082 396.343 57.4064
235.661 387.322 33.1222
232.912 423.058 59.6578
252.358 437.521 75.8564
271.036 411.15 75.856
250.92 397.643 59.6553
254.758 439.218 77.0622
277.713 456.284 82.6571
297.184 428.781 82.6639
273.436 412.847 77.0618
280.308 458.119 82.641
303.247 475.201 76.8803
323.543 446.606 76.881
299.779 430.615 82.6478
305.643 476.9 75.6551
325.155 491.465 59.4475
346.12 461.923 59.4471
325.939 448.305 75.6557
326.989 492.769 57.1994
340.04 502.524 32.9418
361.454 472.342 32.9399
347.954 463.226 57.199
341.032 503.229 30.0077
345.603 506.656 1.36912
367.173 476.247 1.36616
362.446 473.048 30.0058
345.601 506.655 -1.80597
340.987 503.219 -30.4373
362.394 473.032 -30.4394
367.171 476.247 -1.80892
339.99 502.512 -33.3697
326.903 492.75 -57.6069
347.857 463.198 -57.6071
361.397 472.326 -33.3718
325.065 491.446 -59.8519
305.522 476.884 -76.0266
325.806 448.273 -76.0249
346.019 461.894 -59.8521
303.126 475.185 -77.2477
280.192 458.096 -82.972
299.685 430.603 -82.9678
323.41 446.575 -77.246
277.601 456.26 -82.9842
254.671 439.17 -77.3563
273.364 412.807 -77.3531
297.093 428.767 -82.98
252.274 437.471 -76.1474
232.857 422.999 -59.9191
250.872 397.593 -59.92
270.966 411.109 -76.1442
231.021 421.699 -57.6648
218.057 412.041 -33.3103
235.618 387.27 -33.3132
249.036 396.292 -57.6657
217.065 411.339 -30.3585
212.538 407.978 -1.67178
229.939 383.428 -1.67482
234.625 386.568 -30.3613
231.817 380.645 1.51796
236.541 383.83 30.1756
252.896 358.225 30.1725
248.024 355.27 1.51489
237.569 384.487 33.1218
250.99 393.507 57.406
267.762 367.245 57.4025
253.924 358.881 33.1188
252.888 394.717 59.655
273.004 408.225 75.8557
290.396 380.983 75.8532
269.66 368.455 59.6515
275.482 409.804 77.062
299.23 425.738 82.664
317.345 397.354 82.668
292.874 382.562 77.0595
301.911 427.448 82.6481
325.676 443.439 76.8813
344.56 413.919 76.8807
320.026 399.064 82.652
328.152 445.022 75.6555
348.333 458.64 59.4469
367.852 428.126 59.4458
347.036 415.503 75.655
350.228 459.853 57.1988
363.728 468.969 32.9397
383.671 437.792 32.9385
369.747 429.339 57.1977
364.753 469.626 30.0056
369.479 472.826 1.36592
389.572 441.416 1.36438
384.695 438.449 30.0044
369.477 472.825 -1.80916
364.7 469.611 -30.4397
384.647 438.435 -30.4419
389.57 441.416 -1.8107
363.671 468.952 -33.372
350.13 459.824 -57.6072
369.657 429.31 -57.6093
383.618 437.777 -33.3742
348.232 458.61 -59.8522
328.019 444.989 -76.025
346.927 415.45 -76.0289
367.759 428.096 -59.8543
325.544 443.405 -77.2462
301.82 427.433 -82.968
319.956 399.019 -82.9771
344.452 413.866 -77.2501
299.142 425.724 -82.9801
275.412 409.765 -77.3532
292.809 382.52 -77.3555
317.278 397.31 -82.9893
272.935 408.184 -76.1442
252.841 394.668 -59.92
269.613 368.406 -59.9241
290.332 380.94 -76.1465
250.944 393.457 -57.666
237.527 384.436 -33.3135
253.879 358.831 -33.3174
267.716 367.196 -57.6701
236.501 383.782 -30.3617
231.815 380.642 -1.67517
248.022 355.268 -1.67824
252.854 358.177 -30.3656
249.765 352.395 1.51458
254.636 355.35 30.1722
269.755 328.972 30.1697
264.746 326.252 1.51319
255.695 355.956 33.1183
269.533 364.32 57.4021
285.037 337.273 57.3958
270.813 329.578 33.1158
271.486 365.438 59.6509
292.223 377.966 75.8525
308.3 349.919 75.8433
286.99 338.391 59.6446
294.773 379.425 77.059
319.244 394.217 82.6676
335.993 364.997 82.6595
310.85 351.379 77.0499
322.004 395.799 82.6518
346.538 410.655 76.8805
363.969 380.253 76.8756
338.753 366.579 82.6437
349.088 412.118 75.6547
369.904 424.741 59.4455
387.925 393.32 59.4425
366.52 381.716 75.6499
371.856 425.861 57.1975
385.779 434.314 32.9383
404.198 402.209 32.9374
389.876 394.441 57.1944
386.835 434.92 30.0043
391.712 437.888 1.36426
410.275 405.543 1.36465
405.253 402.816 30.0034
391.71 437.887 -1.8108
386.787 434.907 -30.442
405.218 402.806 -30.4426
410.273 405.543 -1.8104
385.728 434.299 -33.3743
371.767 425.832 -57.6095
389.809 394.419 -57.6108
404.159 402.198 -33.3749
369.813 424.711 -59.8543
348.981 412.065 -76.0289
366.435 381.684 -76.0285
387.855 393.297 -59.8556
346.431 410.6 -77.2505
321.936 395.753 -82.9776
338.671 366.536 -82.9813
363.885 380.219 -77.2501
319.177 394.172 -82.9895
294.707 379.382 -77.3557
310.782 351.328 -77.3546
335.912 364.955 -82.9933
292.159 377.922 -76.1466
271.439 365.388 -59.9242
286.942 338.337 -59.9253
308.234 349.868 -76.1455
269.487 364.27 -57.6703
255.65 355.906 -33.3176
270.766 329.527 -33.3192
284.99 337.219 -57.6714
254.594 355.302 -30.3658
249.762 352.393 -1.67851
264.743 326.25 -1.6799
269.71 328.923 -30.3674
266.348 323.295 1.51318
271.357 326.014 30.1697
285.205 298.919 30.1712
280.072 296.439 1.5164
272.443 326.569 33.1154
286.667 334.265 57.3954
300.868 306.49 57.3924
286.292 299.475 33.117
288.671 335.289 59.6438
309.981 346.817 75.8426
324.704 318.026 75.8351
302.872 307.514 59.6408
312.597 348.155 77.0489
337.741 361.773 82.6586
353.077 331.783 82.6509
327.32 319.363 77.0415
340.572 363.222 82.6431
365.788 376.897 76.875
381.746 345.698 76.8732
355.909 333.232 82.6355
368.407 378.236 75.6497
389.811 389.84 59.4423
406.309 357.596 59.4463
384.365 347.038 75.648
391.815 390.865 57.1945
406.137 398.633 32.9376
422.999 365.68 32.9438
408.313 358.62 57.1985
407.221 399.188 30.0038
412.242 401.915 1.365
429.231 368.71 1.37261
424.083 366.234 30.01
412.24 401.915 -1.80988
407.186 399.178 -30.4421
424.042 366.217 -30.4314
429.229 368.709 -1.80227
406.098 398.622 -33.3742
391.748 390.843 -57.6101
408.236 358.587 -57.5947
422.954 365.662 -33.3635
389.742 389.818 -59.8546
368.322 378.204 -76.0274
384.259 347.007 -76.0065
406.229 357.562 -59.8392
365.703 376.865 -77.2487
340.49 363.182 -82.9799
355.843 333.214 -82.9464
381.64 345.667 -77.2277
337.66 361.731 -82.9917
312.53 348.105 -77.353
327.272 319.315 -77.3279
353.013 331.763 -82.9581
309.915 346.766 -76.1443
288.624 335.234 -59.9241
302.838 307.46 -59.91
324.658 317.977 -76.1192
286.62 334.21 -57.6709
272.396 326.518 -33.3187
286.25 299.425 -33.3128
300.834 306.436 -57.6567
271.312 325.966 -30.3673
266.345 323.292 -1.6797
280.07 296.437 -1.67648
285.165 298.872 -30.3614
281.533 293.405 1.51682
286.665 295.885 30.1717
299.217 268.129 30.1768
293.973 265.891 1.52355
287.777 296.389 33.117
302.353 303.405 57.3924
315.222 274.961 57.392
300.328 268.633 33.1221
304.404 304.334 59.6402
326.236 314.845 75.8345
339.575 285.373 75.8279
317.273 275.89 59.6399
328.912 316.059 77.0407
354.669 328.478 82.6501
368.561 297.79 82.6435
342.251 286.587 77.0341
357.566 329.792 82.6351
383.403 342.259 76.8728
397.856 310.342 76.8738
371.458 299.105 82.6285
386.083 343.472 75.6482
408.027 354.03 59.4465
422.969 321.037 59.454
400.535 311.555 75.6491
410.079 354.956 57.1992
424.765 362.015 32.9445
440.039 328.29 32.9547
425.021 321.963 57.2066
425.875 362.516 30.011
431.023 364.991 1.37357
446.411 331.005 1.38497
441.149 328.79 30.0212
431.02 364.99 -1.80103
425.834 362.498 -30.4302
441.101 328.766 -30.4163
446.409 331.004 -1.78964
424.72 361.996 -33.3618
410.001 354.921 -57.593
424.933 321.916 -57.5747
439.987 328.264 -33.348
407.946 353.994 -59.8371
385.975 343.439 -76.0044
400.419 311.495 -75.977
422.878 320.989 -59.8187
383.298 342.228 -77.2243
357.501 329.774 -82.943
371.428 299.072 -82.9018
397.741 310.283 -77.197
354.608 328.458 -82.9546
328.867 316.011 -77.3243
342.23 286.539 -77.2935
368.535 297.757 -82.9134
326.191 314.796 -76.1166
304.371 304.28 -59.9074
317.256 275.838 -59.8886
339.554 285.324 -76.0858
302.32 303.351 -57.6552
287.736 296.34 -33.3114
300.294 268.586 -33.3018
315.205 274.91 -57.6364
286.626 295.839 -30.3607
281.531 293.403 -1.67573
293.971 265.889 -1.66901
299.184 268.085 -30.3511
295.288 262.787 1.52427
300.532 265.024 30.1775
311.76 236.66 30.1848
306.416 234.666 1.53302
301.666 265.476 33.1223
316.56 271.805 57.3923
328.073 242.752 57.3926
312.894 237.112 33.1296
318.652 272.638 59.6393
340.954 282.121 75.8274
352.884 252.036 75.8191
330.165 243.585 59.6397
343.684 283.209 77.0332
369.994 294.413 82.6426
382.413 263.105 82.6347
355.614 253.124 77.025
372.949 295.591 82.6281
399.347 306.828 76.8735
412.266 274.274 76.8746
385.368 264.283 82.6202
402.082 307.912 75.6496
424.516 317.394 59.4544
437.877 283.73 59.4634
415.001 275.358 75.6507
426.611 318.218 57.2076
441.629 324.545 32.9557
455.289 290.125 32.9689
439.971 284.554 57.2166
442.762 324.989 30.0225
448.024 327.205 1.38631
461.791 292.519 1.40068
456.422 290.569 30.0357
448.022 327.203 -1.7881
442.715 324.965 -30.4148
456.378 290.543 -30.4001
461.788 292.517 -1.77373
441.577 324.518 -33.3461
426.523 318.171 -57.5728
439.89 284.5 -57.5557
455.241 290.096 -33.3314
424.425 317.344 -59.8162
401.966 307.85 -75.9745
414.897 275.28 -75.9486
437.792 283.674 -59.7991
399.234 306.767 -77.1935
372.921 295.556 -82.8983
385.357 264.23 -82.8651
412.165 274.197 -77.1676
369.97 294.379 -82.9096
343.665 283.161 -77.2897
355.608 253.069 -77.2605
382.407 263.053 -82.8764
340.935 282.072 -76.083
318.637 272.586 -59.8858
330.158 243.532 -59.8674
352.878 251.98 -76.0538
316.544 271.753 -57.6347
301.633 265.43 -33.3001
312.865 237.068 -33.2895
328.065 242.699 -57.6163
300.499 264.981 -30.3501
295.286 262.785 -1.66795
306.415 234.663 -1.6592
311.732 236.619 -30.3394
307.584 231.497 1.53394
312.928 233.491 30.1857
322.813 204.569 30.1943
317.378 202.817 1.54475
314.082 233.891 33.1298
329.26 239.531 57.3928
339.397 209.926 57.3917
323.967 204.969 33.1384
331.389 240.268 59.6389
354.109 248.719 75.8183
364.61 218.091 75.8054
341.526 210.663 59.6377
356.886 249.683 77.0237
383.684 259.663 82.6335
394.61 227.817 82.6209
367.388 219.054 77.0108
386.692 260.704 82.6197
413.589 270.695 76.8741
424.953 237.586 76.8729
397.618 228.857 82.6071
416.373 271.646 75.6512
439.249 280.018 59.4638
451.007 245.76 59.4755
427.737 238.538 75.65
441.383 280.737 57.2179
456.7 286.308 32.9702
468.725 251.269 32.9878
453.14 246.479 57.2296
457.855 286.695 30.0374
463.223 288.645 1.40246
475.342 253.335 1.42198
469.879 251.656 30.0551
463.221 288.643 -1.77179
457.811 286.669 -30.3981
469.84 251.629 -30.3776
475.339 253.333 -1.75227
456.653 286.279 -33.3292
441.302 280.683 -57.5535
453.069 246.42 -57.5292
468.682 251.239 -33.3087
439.166 279.962 -59.7961
416.27 271.568 -75.9457
427.647 238.445 -75.9129
450.933 245.698 -59.7719
413.49 270.616 -77.164
386.682 260.649 -82.8615
397.622 228.784 -82.8207
424.867 237.493 -77.1312
383.68 259.61 -82.8724
356.881 249.626 -77.2565
367.392 218.989 -77.2173
394.619 227.745 -82.8317
354.104 248.663 -76.0505
331.384 240.215 -59.8641
341.525 210.609 -59.8394
364.614 218.027 -76.0113
329.254 239.479 -57.6142
314.054 233.847 -33.2874
323.94 204.928 -33.274
339.395 209.873 -57.5896
312.9 233.45 -30.3381
307.583 231.494 -1.6579
317.377 202.815 -1.64709
322.786 204.531 -30.3247
318.396 199.588 1.54575
323.831 201.341 30.1953
332.357 171.91 30.203
326.84 170.395 1.5579
325.003 201.69 33.1384
340.433 206.646 57.3916
349.181 176.546 57.3841
333.529 172.259 33.1461
342.594 207.29 59.6361
365.678 214.717 75.8038
374.74 183.618 75.7785
351.342 177.19 59.6286
368.496 215.557 77.0085
395.719 224.319 82.6186
405.142 192.024 82.5922
377.558 184.458 76.9833
398.77 225.223 82.6057
426.105 233.952 76.8716
435.887 200.372 76.8618
408.193 192.928 82.5793
428.933 234.767 75.6501
452.203 241.989 59.4756
462.333 207.209 59.4859
438.715 201.188 75.6403
454.37 242.599 57.2311
469.955 247.39 32.9894
480.318 211.807 33.0083
464.501 207.819 57.2414
471.128 247.718 30.0573
476.59 249.396 1.42417
487.036 213.538 1.44679
481.491 212.135 30.0762
476.589 249.395 -1.74984
471.09 247.691 -30.3752
481.463 212.11 -30.3509
487.034 213.536 -1.72721
469.913 247.36 -33.3059
454.3 242.54 -57.5264
464.45 207.761 -57.4982
480.287 211.779 -33.2816
452.13 241.927 -59.7682
428.845 234.673 -75.9092
438.653 201.082 -75.8684
462.28 207.147 -59.74
426.021 233.856 -77.1267
398.776 225.147 -82.8162
408.202 192.829 -82.7674
435.83 200.264 -77.0859
395.728 224.246 -82.8266
368.501 215.491 -77.2122
377.563 184.385 -77.1621
405.154 191.928 -82.7777
365.682 214.652 -76.0069
342.594 207.235 -59.8351
351.341 177.135 -59.8031
374.744 183.546 -75.9568
340.431 206.593 -57.5869
324.976 201.648 -33.2713
333.5 172.221 -33.2547
349.179 176.493 -57.5549
323.804 201.302 -30.3232
318.395 199.586 -1.6455
326.839 170.393 -1.63335
332.328 171.875 -30.3065
327.708 167.113 1.55878
333.224 168.627 30.2039
340.39 138.732 30.2067
334.805 137.451 1.57183
334.412 168.926 33.1452
350.064 173.214 57.3832
357.417 142.672 57.3639
341.578 139.031 33.1481
352.252 173.766 59.6255
375.65 180.194 75.7754
383.26 148.698 75.7315
359.604 143.225 59.6062
378.502 180.914 76.9794
406.086 188.48 82.5883
413.993 155.816 82.5464
386.112 149.418 76.9355
409.174 189.246 82.5765
436.868 196.69 76.859
445.06 162.71 76.8377
417.081 156.581 82.5346
439.731 197.366 75.6397
463.35 203.387 59.4852
471.834 168.158 59.4908
447.923 163.385 75.6184
465.547 203.884 57.2427
481.363 207.872 33.0096
490.033 171.818 33.0252
474.03 168.655 57.2483
482.552 208.14 30.0785
488.098 209.543 1.44904
496.835 173.21 1.47252
491.222 172.086 30.0941
488.097 209.541 -1.72448
482.526 208.115 -30.3482
491.212 172.066 -30.3202
496.834 173.209 -1.701
481.335 207.845 -33.2784
465.498 203.826 -57.495
474.01 168.602 -57.464
490.022 171.796 -33.2504
463.3 203.325 -59.7356
439.673 197.26 -75.864
447.9 163.286 -75.8143
471.812 168.101 -59.7046
436.812 196.582 -77.0804
409.184 189.146 -82.7618
417.08 156.477 -82.7034
445.039 162.607 -77.0307
406.098 188.383 -82.7714
378.506 180.84 -77.1557
386.11 149.342 -77.0895
413.994 155.713 -82.7129
375.654 180.122 -75.951
352.25 173.711 -59.7972
359.599 143.174 -59.7532
383.257 148.625 -75.8848
350.061 173.161 -57.5513
334.383 168.889 -33.2511
341.547 139 -33.2278
357.41 142.623 -57.5072
333.196 168.593 -30.3046
327.706 167.111 -1.63139
334.803 137.45 -1.61834
340.36 138.704 -30.2813
335.526 134.12 1.57185
341.112 135.401 30.2068
346.987 105.101 30.1813
341.36 104.052 1.58589
342.31 135.652 33.1446
358.149 139.293 57.3605
364.141 108.375 57.2959
348.186 105.352 33.1192
360.356 139.759 59.5993
384.012 145.233 75.7246
390.163 113.43 75.6286
366.347 108.841 59.5347
386.889 145.838 76.9278
414.769 152.236 82.5387
421.106 119.337 82.4529
393.04 114.035 76.8317
417.888 152.863 82.5289
445.867 158.991 76.832
452.451 124.696 76.7818
424.225 119.964 82.4431
448.758 159.521 75.6158
472.668 164.293 59.4882
479.442 128.675 59.473
455.342 125.225 75.5656
474.886 164.672 57.2483
490.889 167.836 33.0252
497.759 131.371 33.0216
481.66 129.054 57.2332
492.088 168.042 30.0957
497.701 169.166 1.47419
504.603 132.42 1.49745
498.958 131.577 30.0921
497.701 169.166 -1.69761
492.079 168.022 -30.3168
498.961 131.563 -30.2688
504.602 132.419 -1.67434
490.879 167.814 -33.2458
474.868 164.621 -57.4595
481.661 129.008 -57.4045
497.762 131.355 -33.1978
472.65 164.238 -59.6981
448.738 159.422 -75.8078
455.342 125.14 -75.7237
479.444 128.626 -59.6431
445.847 158.89 -77.022
417.889 152.759 -82.6947
424.224 119.873 -82.5819
452.452 124.608 -76.938
414.77 152.134 -82.7026
386.886 145.762 -77.0792
393.039 113.965 -76.9532
421.105 119.248 -82.5898
384.009 145.16 -75.8749
360.351 139.709 -59.7433
366.345 108.8 -59.6475
390.162 113.363 -75.7489
358.143 139.245 -57.5006
342.28 135.622 -33.2213
348.158 105.334 -33.1663
364.137 108.337 -57.4049
341.081 135.374 -30.2782
335.524 134.119 -1.61523
341.358 104.05 -1.60119
346.96 105.086 -30.2232
341.965 100.687 1.57978
347.593 101.737 30.1752
352.628 71.201 29.9615
347.03 70.3792 1.59207
348.792 101.941 33.0993
364.747 104.964 57.276
369.71 73.8412 56.8859
353.827 71.4054 32.8855
366.956 105.349 59.505
390.772 109.938 75.5988
395.633 78.0035 75.107
371.919 74.2263 59.1149
393.651 110.44 76.7979
421.717 115.742 82.4191
426.458 82.8801 81.8903
398.512 78.5055 76.3061
424.85 116.228 82.4137
453.075 120.959 76.7523
457.788 86.3894 76.3764
429.591 83.3654 81.8849
455.972 121.325 75.544
480.072 124.775 59.4515
484.662 88.7688 59.1343
460.684 86.7552 75.1681
482.291 125.03 57.2188
498.39 127.347 33.0073
502.901 90.4786 32.8236
486.881 89.0235 56.9016
499.59 127.49 30.088
505.235 128.333 1.49328
509.722 91.1804 1.50423
504.101 90.6216 29.9043
505.235 128.332 -1.66617
499.594 127.477 -30.2606
504.106 90.6137 -30.0467
509.722 91.18 -1.65522
498.394 127.332 -33.1789
482.294 124.985 -57.3856
486.9 88.9876 -57.0169
502.907 90.4689 -32.965
480.075 124.727 -59.6169
455.974 121.242 -75.6975
460.7 86.6827 -75.2755
484.682 88.729 -59.2482
453.077 120.874 -76.9045
424.849 116.139 -82.5484
429.602 83.2916 -81.9816
457.804 86.3149 -76.4825
421.716 115.654 -82.5524
393.65 110.372 -76.9157
398.521 78.4497 -76.3904
426.469 82.8072 -81.9855
390.771 109.873 -75.7155
366.955 105.31 -59.6142
371.93 74.2034 -59.1886
395.642 77.9503 -75.1902
364.744 104.928 -57.3815
348.765 101.925 -33.1429
353.812 71.4087 -32.9001
369.719 73.8211 -56.9559
347.565 101.722 -30.214
341.964 100.687 -1.59192
347.028 70.379 -1.57964
352.612 71.2058 -29.9712
347.706 67.0526 1.54883
353.304 67.8744 29.9182
360.376 38.1057 28.6285
355.044 37.3602 1.55612
354.47 68.0469 32.7635
370.353 70.4828 56.7638
376.669 40.4769 54.3992
361.542 38.2782 31.4737
372.504 70.8094 58.9385
396.218 74.5866 74.9306
401.431 44.13 71.8974
378.82 40.8036 56.5738
399.025 75.0108 76.1044
426.971 79.3854 81.6886
430.933 48.3233 78.4554
404.238 44.5541 73.0711
430.009 79.7823 81.6916
458.205 82.8063 76.1831
460.769 51.8586 73.119
433.97 48.7202 78.4584
461.03 83.0971 75.0115
485.008 85.1106 58.9777
486.32 54.4444 56.5749
463.594 52.1494 71.9473
487.177 85.3133 56.7962
503.197 86.7684 32.7182
503.708 56.1893 31.4072
488.489 54.6471 54.3935
504.371 86.8822 29.8671
509.992 87.4411 1.46707
510.225 56.8413 1.47401
504.882 56.3032 28.5561
509.992 87.4397 -1.61612
504.376 86.8735 -30.0076
504.877 56.2544 -28.6704
510.224 56.8399 -1.60918
503.203 86.7573 -32.8551
487.197 85.2761 -56.9071
488.513 54.5854 -54.4535
503.705 56.1383 -31.5179
485.029 85.0713 -59.0861
461.048 83.0249 -75.1133
463.617 52.0932 -72.0051
486.346 54.3806 -56.6325
458.223 82.7336 -76.2848
430.021 79.7102 -81.7838
433.991 48.6677 -78.5144
460.792 51.8018 -73.1765
426.983 79.3144 -81.7801
399.036 74.9569 -76.185
404.255 44.5204 -73.1243
430.953 48.2719 -78.5107
396.228 74.5357 -75.0107
372.515 70.7888 -59.009
378.831 40.8157 -56.6246
401.447 44.0993 -71.9499
370.363 70.4652 -56.831
354.455 68.0528 -32.7752
361.523 38.3104 -31.4706
376.678 40.4922 -54.4465
353.288 67.8804 -29.9256
347.705 67.0536 -1.53398
355.043 37.3612 -1.52668
360.356 38.1379 -28.6209
355.893 34.1108 1.4717
361.226 34.8564 28.5441
369.199 5.92927 26.7702
364.201 5.27314 1.47138
362.328 35.0107 31.2328
377.455 37.2094 54.1583
384.472 8.03231 50.875
370.301 6.08356 29.4589
379.488 37.4982 56.214
402.099 40.8246 71.5375
407.686 11.2287 67.2208
386.505 8.32115 52.9307
404.752 41.195 72.6481
431.447 44.9641 78.0323
435.312 14.9132 73.3319
410.339 11.5991 68.3314
434.318 45.3319 78.0326
461.117 48.4702 72.6932
463.182 18.3014 68.3066
438.183 15.2809 73.3322
463.775 48.772 71.5813
486.501 51.0671 56.2089
487.016 21.0054 52.8553
465.84 18.6032 67.1948
488.539 51.2854 54.1483
503.758 52.8276 31.162
503.208 22.8235 29.3555
489.054 21.2238 50.7946
504.862 52.9447 28.4712
510.205 53.4828 1.38911
509.275 23.4681 1.41795
504.312 22.9405 26.6647
510.205 53.4793 -1.52
504.858 52.8938 -28.5812
504.308 22.8619 -26.7226
509.275 23.4646 -1.49117
503.755 52.773 -31.2681
488.563 51.22 -54.2038
489.073 21.1448 -50.8164
503.205 22.7411 -29.4095
486.526 51.0031 -56.2623
463.798 48.7157 -71.6348
465.859 18.5663 -67.2233
487.036 20.9279 -52.8749
461.14 48.4155 -72.7471
434.338 45.2814 -78.085
438.198 15.2502 -73.3609
463.2 18.2661 -68.3356
431.467 44.9148 -78.0846
404.769 41.1633 -72.6982
410.35 11.5833 -68.3592
435.326 14.8835 -73.3604
402.115 40.7966 -71.5877
379.498 37.513 -56.2624
386.504 8.36444 -52.9628
407.696 11.2166 -67.2487
377.463 37.228 -54.2042
362.308 35.0462 -31.2283
370.273 6.14675 -29.4516
384.469 8.0794 -50.9046
361.206 34.8902 -28.5356
355.892 34.1134 -1.44136
364.2 5.27568 -1.44168
369.171 5.99074 -26.759
365.218 2.33755 1.34263
370.216 2.99367 26.6414
380.27 -21.214 23.7807
375.847 -21.8355 1.32894
371.223 3.13183 29.0958
385.395 5.08057 50.5119
393.876 -19.3169 45.2654
381.277 -21.0758 26.235
387.255 5.33471 52.3881
408.436 8.24227 66.6782
414.621 -16.5361 59.8108
395.737 -19.0627 47.1416
410.863 8.56747 67.689
435.836 11.8816 72.6895
439.285 -13.2641 65.2118
417.048 -16.2109 60.8216
438.459 12.2211 72.686
463.458 15.2416 67.6604
464.09 -9.99525 60.683
441.907 -12.9246 65.2083
465.881 15.5429 66.6443
487.057 17.9452 52.3048
485.275 -7.22062 46.9471
466.513 -9.69385 59.6668
488.912 18.1723 50.4279
503.066 19.772 28.9888
499.643 -5.34565 26.1067
487.131 -6.99348 45.0703
504.07 19.8934 26.539
509.033 20.4209 1.29222
505.036 -4.64669 1.32421
500.647 -5.22432 23.6569
509.033 20.4186 -1.35799
504.066 19.8159 -26.5894
500.647 -5.22745 -23.6586
505.036 -4.64899 -1.326
503.062 19.6922 -29.0387
488.93 18.0959 -50.4456
487.13 -6.99901 -45.0717
499.643 -5.35121 -26.1079
487.075 17.8706 -52.3222
465.897 15.509 -66.6706
466.514 -9.69739 -59.6682
485.275 -7.22438 -46.9483
463.475 15.2089 -67.6866
438.472 12.193 -72.7119
441.908 -12.9267 -65.2095
464.091 -9.99746 -60.6842
435.849 11.854 -72.7154
410.873 8.55377 -67.7142
417.048 -16.2123 -60.8228
439.285 -13.2657 -65.213
408.445 8.23047 -66.7031
387.252 5.37834 -52.4172
395.736 -19.062 -47.1426
414.62 -16.5356 -59.8118
385.391 5.12682 -50.5404
371.196 3.19416 -29.0873
381.276 -21.0724 -26.2355
393.875 -19.3135 -45.2658
370.189 3.05448 -26.6323
365.218 2.33942 -1.31506
375.847 -21.8337 -1.32874
380.269 -21.2121 -23.7805
-295.638 719.594 25.3528
-296.848 714.579 -0.404235
-295.592 719.529 -26.1708
-292.071 733.681 -48.0004
-286.817 754.861 -62.5552
-280.722 779.842 -67.6449
-274.908 804.894 -62.574
-270.209 826.253 -48.0854
-267.128 840.588 -26.3049
-266.064 845.654 -0.552998
-267.17 840.663 25.2112
-270.265 826.379 47.0223
-274.967 805.052 61.5567
-280.782 780.013 66.6844
-286.87 755.019 61.6513
-292.124 733.802 47.1491
382.635 -22.3863 1.76393e-05
387.057 -21.7648 22.4517
399.656 -20.0058 41.4821
418.54 -17.4792 54.1513
440.777 -14.5323 58.5415
462.96 -11.603 54.0162
481.721 -9.1298 41.2965
494.234 -7.48197 22.3329
498.623 -6.90434 0.000247942
494.233 -7.48281 -22.3323
481.721 -9.13061 -41.2962
462.96 -11.6036 -54.016
440.777 -14.5328 -58.5413
418.54 -17.4795 -54.1511
399.656 -20.0059 -41.482
387.057 -21.7648 -22.4517
</DataArray>
</Points>
<Cells>
<DataArray type="Int32" Name="connectivity" format="ascii">
0 1 2 3 
4 5 6 7 
8 9 10 11 
12 13 14 15 
16 17 18 19 
20 21 22 23 
24 25 26 27 
28 29 30 31 
32 33 34 35 
36 37 38 39 
40 41 42 43 
44 45 46 47 
48 49 50 51 
52 53 54 55 
56 57 58 59 
60 61 62 63 
64 65 66 67 
68 69 70 71 
72 73 74 75 
76 77 78 79 
80 81 82 83 
84 85 86 87 
88 89 90 91 
92 93 94 95 
96 97 98 99 
100 101 102 103 
104 105 106 107 
108 109 110 111 
112 113 114 115 
116 117 118 119 
120 121 122 123 
124 125 126 127 
128 129 130 131 
132 133 134 135 
136 137 138 139 
140 141 142 143 
144 145 146 147 
148 149 150 151 
152 153 154 155 
156 157 158 159 
160 161 162 163 
164 165 166 167 
168 169 170 171 
172 173 174 175 
176 177 178 179 
180 181 182 183 
184 185 186 187 
188 189 190 191 
192 193 194 195 
196 197 198 199 
200 201 202 203 
204 205 206 207 
208 209 210 211 
212 213 214 215 
216 217 218 219 
220 221 222 223 
224 225 226 227 
228 229 230 231 
232 233 234 235 
236 237 238 239 
240 241 242 243 
244 245 246 247 
248 249 250 251 
252 253 254 255 
256 257 258 259 
260 261 262 263 
264 265 266 267 
268 269 270 271 
272 273 274 275 
276 277 278 279 
280 281 282 283 
284 285 286 287 
288 289 290 291 
292 293 294 295 
296 297 298 299 
300 301 302 303 
304 305 306 307 
308 309 310 311 
312 313 314 315 
316 317 318 319 
320 321 322 323 
324 325 326 327 
328 329 330 331 
332 333 334 335 
336 337 338 339 
340 341 342 343 
344 345 346 347 
348 349 350 351 
352 353 354 355 
356 357 358 359 
360 361 362 363 
364 365 366 367 
368 369 370 371 
372 373 374 375 
376 377 378 379 
380 381 382 383 
384 385 386 387 
388 389 390 391 
392 393 394 395 
396 397 398 399 
400 401 402 403 
404 405 406 407 
408 409 410 411 
412 413 414 415 
416 417 418 419 
420 421 422 423 
424 425 426 427 
428 429 430 431 
432 433 434 435 
436 437 438 439 
440 441 442 443 
444 445 446 447 
448 449 450 451 
452 453 454 455 
456 457 458 459 
460 461 462 463 
464 465 466 467 
468 469 470 471 
472 473 474 475 
476 477 478 479 
480 481 482 483 
484 485 486 487 
488 489 490 491 
492 493 494 495 
496 497 498 499 
500 501 502 503 
504 505 506 507 
508 509 510 511 
512 513 514 515 
516 517 518 519 
520 521 522 523 
524 525 526 527 
528 529 530 531 
532 533 534 535 
536 537 538 539 
540 541 542 543 
544 545 546 547 
548 549 550 551 
552 553 554 555 
556 557 558 559 
560 561 562 563 
564 565 566 567 
568 569 570 571 
572 573 574 575 
576 577 578 579 
580 581 582 583 
584 585 586 587 
588 589 590 591 
592 593 594 595 
596 597 598 599 
600 601 602 603 
604 605 606 607 
608 609 610 611 
612 613 614 615 
616 617 618 619 
620 621 622 623 
624 625 626 627 
628 629 630 631 
632 633 634 635 
636 637 638 639 
640 641 642 643 
644 645 646 647 
648 649 650 651 
652 653 654 655 
656 657 658 659 
660 661 662 663 
664 665 666 667 
668 669 670 671 
672 673 674 675 
676 677 678 679 
680 681 682 683 
684 685 686 687 
688 689 690 691 
692 693 694 695 
696 697 698 699 
700 701 702 703 
704 705 706 707 
708 709 710 711 
712 713 714 715 
716 717 718 719 
720 721 722 723 
724 725 726 727 
728 729 730 731 
732 733 734 735 
736 737 738 739 
740 741 742 743 
744 745 746 747 
748 749 750 751 
752 753 754 755 
756 757 758 759 
760 761 762 763 
764 765 766 767 
768 769 770 771 
772 773 774 775 
776 777 778 779 
780 781 782 783 
784 785 786 787 
788 789 790 791 
792 793 794 795 
796 797 798 799 
800 801 802 803 
804 805 806 807 
808 809 810 811 
812 813 814 815 
816 817 818 819 
820 821 822 823 
824 825 826 827 
828 829 830 831 
832 833 834 835 
836 837 838 839 
840 841 842 843 
844 845 846 847 
848 849 850 851 
852 853 854 855 
856 857 858 859 
860 861 862 863 
864 865 866 867 
868 869 870 871 
872 873 874 875 
876 877 878 879 
880 881 882 883 
884 885 886 887 
888 889 890 891 
892 893 894 895 
896 897 898 899 
900 901 902 903 
904 905 906 907 
908 909 910 911 
912 913 914 915 
916 917 918 919 
920 921 922 923 
924 925 926 927 
928 929 930 931 
932 933 934 935 
936 937 938 939 
940 941 942 943 
944 945 946 947 
948 949 950 951 
952 953 954 955 
956 957 958 959 
960 961 962 963 
964 965 966 967 
968 969 970 971 
972 973 974 975 
976 977 978 979 
980 981 982 983 
984 985 986 987 
988 989 990 991 
992 993 994 995 
996 997 998 999 
1000 1001 1002 1003 
1004 1005 1006 1007 
1008 1009 1010 1011 
1012 1013 1014 1015 
1016 1017 1018 1019 
1020 1021 1022 1023 
1024 1025 1026 1027 
1028 1029 1030 1031 
1032 1033 1034 1035 
1036 1037 1038 1039 
1040 1041 1042 1043 
1044 1045 1046 1047 
1048 1049 1050 1051 
1052 1053 1054 1055 
1056 1057 1058 1059 
1060 1061 1062 1063 
1064 1065 1066 1067 
1068 1069 1070 1071 
1072 1073 1074 1075 
1076 1077 1078 1079 
1080 1081 1082 1083 
1084 1085 1086 1087 
1088 1089 1090 1091 
1092 1093 1094 1095 
1096 1097 1098 1099 
1100 1101 1102 1103 
1104 1105 1106 1107 
1108 1109 1110 1111 
1112 1113 1114 1115 
1116 1117 1118 1119 
1120 1121 1122 1123 
1124 1125 1126 1127 
1128 1129 1130 1131 
1132 1133 1134 1135 
1136 1137 1138 1139 
1140 1141 1142 1143 
1144 1145 1146 1147 
1148 1149 1150 1151 
1152 1153 1154 1155 
1156 1157 1158 1159 
1160 1161 1162 1163 
1164 1165 1166 1167 
1168 1169 1170 1171 
1172 1173 1174 1175 
1176 1177 1178 1179 
1180 1181 1182 1183 
1184 1185 1186 1187 
1188 1189 1190 1191 
1192 1193 1194 1195 
1196 1197 1198 1199 
1200 1201 1202 1203 
1204 1205 1206 1207 
1208 1209 1210 1211 
1212 1213 1214 1215 
1216 1217 1218 1219 
1220 1221 1222 1223 
1224 1225 1226 1227 
1228 1229 1230 1231 
1232 1233 1234 1235 
1236 1237 1238 1239 
1240 1241 1242 1243 
1244 1245 1246 1247 
1248 1249 1250 1251 
1252 1253 1254 1255 
1256 1257 1258 1259 
1260 1261 1262 1263 
1264 1265 1266 1267 
1268 1269 1270 1271 
1272 1273 1274 1275 
1276 1277 1278 1279 
1280 1281 1282 1283 
1284 1285 1286 1287 
1288 1289 1290 1291 
1292 1293 1294 1295 
1296 1297 1298 1299 
1300 1301 1302 1303 
1304 1305 1306 1307 
1308 1309 1310 1311 
1312 1313 1314 1315 
1316 1317 1318 1319 
1320 1321 1322 1323 
1324 1325 1326 1327 
1328 1329 1330 1331 
1332 1333 1334 1335 
1336 1337 1338 1339 
1340 1341 1342 1343 
1344 1345 1346 1347 
1348 1349 1350 1351 
1352 1353 1354 1355 
1356 1357 1358 1359 
1360 1361 1362 1363 
1364 1365 1366 1367 
1368 1369 1370 1371 
1372 1373 1374 1375 
1376 1377 1378 1379 
1380 1381 1382 1383 
1384 1385 1386 1387 
1388 1389 1390 1391 
1392 1393 1394 1395 
1396 1397 1398 1399 
1400 1401 1402 1403 
1404 1405 1406 1407 
1408 1409 1410 1411 
1412 1413 1414 1415 
1416 1417 1418 1419 
1420 1421 1422 1423 
1424 1425 1426 1427 
1428 1429 1430 1431 
1432 1433 1434 1435 
1436 1437 1438 1439 
1440 1441 1442 1443 
1444 1445 1446 1447 
1448 1449 1450 1451 
1452 1453 1454 1455 
1456 1457 1458 1459 
1460 1461 1462 1463 
1464 1465 1466 1467 
1468 1469 1470 1471 
1472 1473 1474 1475 
1476 1477 1478 1479 
1480 1481 1482 1483 
1484 1485 1486 1487 
1488 1489 1490 1491 
1492 1493 1494 1495 
1496 1497 1498 1499 
1500 1501 1502 1503 
1504 1505 1506 1507 
1508 1509 1510 1511 
1512 1513 1514 1515 
1516 1517 1518 1519 
1520 1521 1522 1523 
1524 1525 1526 1527 
1528 1529 1530 1531 
1532 1533 1534 1535 
1536 1537 1538 1539 
1540 1541 1542 1543 
1544 1545 1546 1547 
1548 1549 1550 1551 
1552 1553 1554 1555 
1556 1557 1558 1559 
1560 1561 1562 1563 
1564 1565 1566 1567 
1568 1569 1570 1571 
1572 1573 1574 1575 
1576 1577 1578 1579 
1580 1581 1582 1583 
1584 1585 1586 1587 
1588 1589 1590 1591 
1592 1593 1594 1595 
1596 1597 1598 1599 
1600 1601 1602 1603 
1604 1605 1606 1607 
1608 1609 1610 1611 
1612 1613 1614 1615 
1616 1617 1618 1619 
1620 1621 1622 1623 
1624 1625 1626 1627 
1628 1629 1630 1631 
1632 1633 1634 1635 
1636 1637 1638 1639 
1640 1641 1642 1643 
1644 1645 1646 1647 
1648 1649 1650 1651 
1652 1653 1654 1655 
1656 1657 1658 1659 
1660 1661 1662 1663 
1664 1665 1666 1667 
1668 1669 1670 1671 
1672 1673 1674 1675 
1676 1677 1678 1679 
1680 1681 1682 1683 
1684 1685 1686 1687 
1688 1689 1690 1691 
1692 1693 1694 1695 
1696 1697 1698 1699 
1700 1701 1702 1703 
1704 1705 1706 1707 
1708 1709 1710 1711 
1712 1713 1714 1715 
1716 1717 1718 1719 
1720 1721 1722 1723 
1724 1725 1726 1727 
1728 1729 1730 1731 
1732 1733 1734 1735 
1736 1737 1738 1739 
1740 1741 1742 1743 
1744 1745 1746 1747 
1748 1749 1750 1751 
1752 1753 1754 1755 
1756 1757 1758 1759 
1760 1761 1762 1763 
1764 1765 1766 1767 
1768 1769 1770 1771 
1772 1773 1774 1775 
1776 1777 1778 1779 
1780 1781 1782 1783 
1784 1785 1786 1787 
1788 1789 1790 1791 
1792 1793 1794 1795 
1796 1797 1798 1799 
1800 1801 1802 1803 
1804 1805 1806 1807 
1808 1809 1810 1811 
1812 1813 1814 1815 
1816 1817 1818 1819 
1820 1821 1822 1823 
1824 1825 1826 1827 
1828 1829 1830 1831 
1832 1833 1834 1835 
1836 1837 1838 1839 
1840 1841 1842 1843 
1844 1845 1846 1847 
1848 1849 1850 1851 
1852 1853 1854 1855 
1856 1857 1858 1859 
1860 1861 1862 1863 
1864 1865 1866 1867 
1868 1869 1870 1871 
1872 1873 1874 1875 
1876 1877 1878 1879 
1880 1881 1882 1883 
1884 1885 1886 1887 
1888 1889 1890 1891 
1892 1893 1894 1895 
1896 1897 1898 1899 
1900 1901 1902 1903 
1904 1905 1906 1907 
1908 1909 1910 1911 
1912 1913 1914 1915 
1916 1917 1918 1919 
1920 1921 1922 1923 
1924 1925 1926 1927 
1928 1929 1930 1931 
1932 1933 1934 1935 
1936 1937 1938 1939 
1940 1941 1942 1943 
1944 1945 1946 1947 
1948 1949 1950 1951 
1952 1953 1954 1955 
1956 1957 1958 1959 
1960 1961 1962 1963 
1964 1965 1966 1967 
1968 1969 1970 1971 
1972 1973 1974 1975 
1976 1977 1978 1979 
1980 1981 1982 1983 
1984 1985 1986 1987 
1988 1989 1990 1991 
1992 1993 1994 1995 
1996 1997 1998 1999 
2000 2001 2002 2003 
2004 2005 2006 2007 
2008 2009 2010 2011 
2012 2013 2014 2015 
2016 2017 2018 2019 
2020 2021 2022 2023 
2024 2025 2026 2027 
2028 2029 2030 2031 
2032 2033 2034 2035 
2036 2037 2038 2039 
2040 2041 2042 2043 
2044 2045 2046 2047 
2048 2049 2050 2051 2052 2053 2054 2055 2056 2057 2058 2059 2060 2061 2062 2063 
2064 2065 2066 2067 2068 2069 2070 2071 2072 2073 2074 2075 2076 2077 2078 2079 
</DataArray>
<DataArray type="Int32" Name="offsets" format="ascii">
4 8 12 16 20 24 28 32 36 40 44 48 52 56 60 64 68 72 76 80 84 88 92 96 100 104 108 112 116 120 124 128 132 136 140 144 148 152 156 160 164 168 172 176 180 184 188 192 196 200 204 208 212 216 220 224 228 232 236 240 244 248 252 256 260 264 268 272 276 280 284 288 292 296 300 304 308 312 316 320 324 328 332 336 340 344 348 352 356 360 364 368 372 376 380 384 388 392 396 400 404 408 412 416 420 424 428 432 436 440 444 448 452 456 460 464 468 472 476 480 484 488 492 496 500 504 508 512 516 520 524 528 532 536 540 544 548 552 556 560 564 568 572 576 580 584 588 592 596 600 604 608 612 616 620 624 628 632 636 640 644 648 652 656 660 664 668 672 676 680 684 688 692 696 700 704 708 712 716 720 724 728 732 736 740 744 748 752 756 760 764 768 772 776 780 784 788 792 796 800 804 808 812 816 820 824 828 832 836 840 844 848 852 856 860 864 868 872 876 880 884 888 892 896 900 904 908 912 916 920 924 928 932 936 940 944 948 952 956 960 964 968 972 976 980 984 988 992 996 1000 1004 1008 1012 1016 1020 1024 1028 1032 1036 1040 1044 1048 1052 1056 1060 1064 1068 1072 1076 1080 1084 1088 1092 1096 1100 1104 1108 1112 1116 1120 1124 1128 1132 1136 1140 1144 1148 1152 1156 1160 1164 1168 1172 1176 1180 1184 1188 1192 1196 1200 1204 1208 1212 1216 1220 1224 1228 1232 1236 1240 1244 1248 1252 1256 1260 1264 1268 1272 1276 1280 1284 1288 1292 1296 1300 1304 1308 1312 1316 1320 1324 1328 1332 1336 1340 1344 1348 1352 1356 1360 1364 1368 1372 1376 1380 1384 1388 1392 1396 1400 1404 1408 1412 1416 1420 1424 1428 1432 1436 1440 1444 1448 1452 1456 1460 1464 1468 1472 1476 1480 1484 1488 1492 1496 1500 1504 1508 1512 1516 1520 1524 1528 1532 1536 1540 1544 1548 1552 1556 1560 1564 1568 1572 1576 1580 1584 1588 1592 1596 1600 1604 1608 1612 1616 1620 1624 1628 1632 1636 1640 1644 1648 1652 1656 1660 1664 1668 1672 1676 1680 1684 1688 1692 1696 1700 1704 1708 1712 1716 1720 1724 1728 1732 1736 1740 1744 1748 1752 1756 1760 1764 1768 1772 1776 1780 1784 1788 1792 1796 1800 1804 1808 1812 1816 1820 1824 1828 1832 1836 1840 1844 1848 1852 1856 1860 1864 1868 1872 1876 1880 1884 1888 1892 1896 1900 1904 1908 1912 1916 1920 1924 1928 1932 1936 1940 1944 1948 1952 1956 1960 1964 1968 1972 1976 1980 1984 1988 1992 1996 2000 2004 2008 2012 2016 2020 2024 2028 2032 2036 2040 2044 2048 2064 2080 
</DataArray>
<DataArray type="UInt8" Name="types" format="ascii">
7 7 7 7 7 7 7 7 7 7 7 7 7 7 7 7 7 7 7 7 7 7 7 7 7 7 7 7 7 7 7 7 7 7 7 7 7 7 7 7 7 7 7 7 7 7 7 7 7 7 7 7 7 7 7 7 7 7 7 7 7 7 7 7 7 7 7 7 7 7 7 7 7 7 7 7 7 7 7 7 7 7 7 7 7 7 7 7 7 7 7 7 7 7 7 7 7 7 7 7 7 7 7 7 7 7 7 7 7 7 7 7 7 7 7 7 7 7 7 7 7 7 7 7 7 7 7 7 7 7 7 7 7 7 7 7 7 7 7 7 7 7 7 7 7 7 7 7 7 7 7 7 7 7 7 7 7 7 7 7 7 7 7 7 7 7 7 7 7 7 7 7 7 7 7 7 7 7 7 7 7 7 7 7 7 7 7 7 7 7 7 7 7 7 7 7 7 7 7 7 7 7 7 7 7 7 7 7 7 7 7 7 7 7 7 7 7 7 7 7 7 7 7 7 7 7 7 7 7 7 7 7 7 7 7 7 7 7 7 7 7 7 7 7 7 7 7 7 7 7 7 7 7 7 7 7 7 7 7 7 7 7 7 7 7 7 7 7 7 7 7 7 7 7 7 7 7 7 7 7 7 7 7 7 7 7 7 7 7 7 7 7 7 7 7 7 7 7 7 7 7 7 7 7 7 7 7 7 7 7 7 7 7 7 7 7 7 7 7 7 7 7 7 7 7 7 7 7 7 7 7 7 7 7 7 7 7 7 7 7 7 7 7 7 7 7 7 7 7 7 7 7 7 7 7 7 7 7 7 7 7 7 7 7 7 7 7 7 7 7 7 7 7 7 7 7 7 7 7 7 7 7 7 7 7 7 7 7 7 7 7 7 7 7 7 7 7 7 7 7 7 7 7 7 7 7 7 7 7 7 7 7 7 7 7 7 7 7 7 7 7 7 7 7 7 7 7 7 7 7 7 7 7 7 7 7 7 7 7 7 7 7 7 7 7 7 7 7 7 7 7 7 7 7 7 7 7 7 7 7 7 7 7 7 7 7 7 7 7 7 7 7 7 7 7 7 7 7 7 7 7 7 7 7 7 7 7 7 7 7 7 7 7 7 7 7 7 7 7 7 7 7 7 7 7 7 7 7 7 7 7 7 7 7 
</DataArray>
</Cells>
<CellData Scalars="cell variable 4" Vectors="cell vector">
<DataArray type="Float64" NumberOfComponents="3" Name="cell vector" format="ascii">
0.136769 0.148803 0.979363
0.398336 0.403422 0.823759
0.556591 0.605047 0.56932
0.507892 0.826865 0.241535
-0.071319 0.968091 -0.240236
-0.154739 0.803528 -0.574803
0.0932854 -0.54455 0.833525
0.0300804 -0.193028 0.980732
-0.0191914 0.193401 0.980932
-0.089347 0.545158 0.833559
-0.155637 0.803571 0.5745
-0.0726427 0.96803 0.240087
0.506676 0.827402 -0.242251
0.546949 0.612031 -0.571197
-0.370186 -0.419735 0.828725
-0.143369 -0.144681 0.979037
0.0646604 0.185078 0.980594
0.184777 0.525241 0.83065
0.26638 0.787718 0.555466
0.26831 0.943249 0.195682
0.160286 0.967451 -0.195822
0.126545 0.821193 -0.556443
-0.0918286 -0.548074 0.831374
-0.0326958 -0.19238 0.980776
0.035284 0.192649 0.980633
0.0924653 0.548574 0.830974
0.12587 0.82167 0.555891
0.159233 0.967742 0.195244
0.266385 0.943657 -0.196343
0.264191 0.787898 -0.556255
-0.182986 -0.524926 0.831245
-0.0659094 -0.183835 0.980745
0.0629511 0.185865 0.980557
0.17932 0.527635 0.830329
0.263374 0.789653 0.55415
0.27757 0.9408 0.194551
0.126808 0.972956 -0.193068
0.138647 0.820498 -0.554581
-0.103248 -0.54672 0.830925
-0.037155 -0.191735 0.980743
0.0386514 0.19222 0.98059
0.104149 0.547149 0.830531
0.138956 0.820812 0.554038
0.126207 0.973165 0.192409
0.27619 0.941044 -0.195334
0.262215 0.789551 -0.554845
-0.178061 -0.527218 0.830864
-0.0629684 -0.184838 0.98075
0.0651227 0.18519 0.980543
0.186363 0.525474 0.830148
0.27865 0.784955 0.553354
0.307636 0.931477 0.194191
-0.107381 0.977369 -0.182263
0.950354 -0.307653 0.0466681
0.968653 -0.24795 0.0152546
0.971221 -0.238147 0.00386982
0.971237 -0.238078 -0.00425913
0.968678 -0.247817 -0.0157742
0.95021 -0.307956 -0.0475745
-0.107849 0.977407 0.181781
0.306474 0.931694 -0.194984
0.277798 0.784801 -0.554
-0.185166 -0.525071 0.830671
-0.0647135 -0.18415 0.980766
0.0682179 0.183859 0.980583
0.19449 0.522021 0.830462
0.290189 0.780507 0.553713
0.326604 0.92503 0.194035
0.0863298 0.977972 -0.190048
0.932566 -0.357832 0.047719
0.953852 -0.299796 0.0170175
0.957326 -0.28898 0.00418939
0.957326 -0.288972 -0.0047812
0.953869 -0.299713 -0.0175166
0.932505 -0.357906 -0.0483576
0.0854512 0.978174 0.189401
0.325507 0.925258 -0.19479
0.28938 0.780374 -0.554324
-0.193522 -0.52156 0.830978
-0.0677708 -0.182744 0.980822
0.0724754 0.18176 0.980668
0.206776 0.516268 0.83109
0.30948 0.772485 0.554516
0.356747 0.913899 0.193702
0.215415 0.957322 -0.192695
0.920905 -0.387877 0.0385564
0.938879 -0.343857 0.0163827
0.942577 -0.333963 0.00417051
0.942573 -0.333967 -0.00480466
0.938913 -0.343745 -0.0168095
0.92096 -0.3877 -0.0390017
0.21297 0.958018 0.191949
0.355339 0.914291 -0.194435
0.308519 0.772446 -0.555107
-0.205977 -0.51574 0.831616
-0.0722088 -0.180501 0.980921
0.0779142 0.17907 0.980746
0.222777 0.50864 0.831658
0.334436 0.761489 0.555236
0.391549 0.89957 0.193555
0.316787 0.928466 -0.193897
0.90896 -0.415919 0.0283417
0.922492 -0.385743 0.0145046
0.926085 -0.377294 0.003832
0.926073 -0.377318 -0.00457651
0.922567 -0.385554 -0.0147979
0.909372 -0.415023 -0.0282561
0.310042 0.930916 0.193055
0.389293 0.90039 -0.19429
0.33312 0.761649 -0.555808
-0.222156 -0.508033 0.832195
-0.0779973 -0.177565 0.981013
0.0840869 0.175945 0.980802
0.241116 0.49951 0.832078
0.363122 0.747826 0.555786
0.42954 0.882074 0.193494
0.415073 0.888758 -0.194483
0.893906 -0.447765 0.0209502
0.904278 -0.426767 0.0122608
0.907624 -0.419771 0.00322671
0.907586 -0.419844 -0.0042817
0.904404 -0.426497 -0.0124211
0.895183 -0.445265 -0.0196541
0.396037 0.897592 0.193609
0.425516 0.883854 -0.194262
0.361287 0.748311 -0.556329
-0.240761 -0.498773 0.832622
-0.0846682 -0.174086 0.981084
0.0906905 0.172405 0.980842
0.260547 0.489184 0.832355
0.39342 0.732051 0.556167
0.470327 0.861021 0.193484
0.659051 0.728064 -0.188613
0.875015 -0.483796 0.0170127
0.884289 -0.466841 0.00963803
0.88722 -0.461342 0.00224917
0.887114 -0.461533 -0.00393794
0.884376 -0.466669 -0.00992995
0.878078 -0.47833 -0.0133663
0.540832 0.818746 0.192758
0.462815 0.864902 -0.194283
0.391367 0.732761 -0.556681
-0.260705 -0.488175 0.832897
-0.0917754 -0.170197 0.981127
0.0978229 0.168179 0.980891
0.280553 0.477526 0.832622
0.422667 0.715254 0.556564
0.507378 0.839657 0.193764
0.584329 0.788048 -0.193752
0.856269 -0.516392 0.0119602
0.863131 -0.504942 0.00613215
0.864943 -0.501869 0.00142227
0.864682 -0.502311 -0.00310354
0.862458 -0.506076 -0.00728453
0.858219 -0.513209 -0.00879623
0.993692 -0.071789 0.0861546
0.500303 0.843761 -0.194333
0.422453 0.715105 -0.556919
-0.281332 -0.476287 0.833068
-0.0989329 -0.166035 0.981144
0.105065 0.163404 0.980949
0.301309 0.464172 0.832921
0.453841 0.695528 0.557018
0.543611 0.816541 0.194287
0.546918 0.81413 -0.195121
0.83343 -0.552547 0.00929281
0.839181 -0.543835 0.00428871
0.840447 -0.541893 0.00099575
0.840156 -0.54234 -0.00240961
0.838355 -0.545098 -0.00536136
0.83536 -0.549672 -0.00596378
0.906009 -0.422401 0.0269401
0.537875 0.820307 -0.194387
0.454126 0.695291 -0.557082
-0.302362 -0.463032 0.833174
-0.10629 -0.161427 0.981144
0.112356 0.158253 0.980985
0.322573 0.449349 0.833086
0.48661 0.672801 0.55727
0.580767 0.790475 0.194572
0.578196 0.792187 -0.195267
0.80619 -0.591594 0.00862472
0.812132 -0.583458 0.00427992
0.81372 -0.581256 0.000969152
0.813585 -0.581442 -0.00194395
0.812104 -0.583498 -0.00417415
0.809711 -0.586812 -0.00443636
0.846396 -0.532424 0.0117945
0.574983 0.794732 -0.194413
0.485713 0.673532 -0.557169
-0.323421 -0.448488 0.833221
-0.113723 -0.156318 0.981138
0.119932 0.152533 0.980994
0.343507 0.433491 0.83312
0.516949 0.649731 0.557327
0.612793 0.76591 0.194595
0.612724 0.76577 -0.195362
0.780595 -0.625016 0.00521604
0.783939 -0.620827 0.00354178
0.785215 -0.619222 0.00128474
0.785193 -0.61925 -0.000988094
0.784027 -0.62072 -0.00283372
0.781779 -0.623546 -0.00342284
0.801802 -0.597562 0.00577438
0.611373 0.767096 -0.194388
0.516744 0.65001 -0.557192
-0.344038 -0.432847 0.833236
-0.12076 -0.150955 0.981137
0.127349 0.146431 0.980989
0.363737 0.416674 0.833114
0.54626 0.625304 0.557311
0.644687 0.739294 0.194482
0.645835 0.738031 -0.195464
0.752951 -0.658073 0.00227136
0.754041 -0.656823 0.00246105
0.754837 -0.65591 0.00147655
0.754918 -0.655819 7.33295e-05
0.754107 -0.656751 -0.00136094
0.751526 -0.659697 -0.00276172
0.763821 -0.645418 0.00349194
0.647335 0.737034 -0.194265
0.547055 0.624758 -0.557143
-0.364038 -0.416186 0.833226
-0.127491 -0.145291 0.981141
0.134332 0.140229 0.980964
0.383232 0.399073 0.832991
0.575671 0.598591 0.557039
0.679181 0.707878 0.193967
0.685296 0.701397 -0.195989
0.721355 -0.692566 -0.000357373
0.720938 -0.692999 0.000821782
0.72124 -0.692684 0.00113403
0.721476 -0.692438 0.00115411
0.721481 -0.692434 0.00097949
0.719742 -0.694241 -0.00045872
0.749961 -0.661406 0.0100182
0.6834 0.703845 -0.193822
0.576424 0.597975 -0.556921
-0.383286 -0.398686 0.833151
-0.134028 -0.139272 0.981142
0.141021 0.133805 0.980923
0.401731 0.380936 0.832767
0.602984 0.571531 0.556563
0.71084 0.676317 0.193135
0.725361 0.659619 -0.19686
-0.688907 0.724849 0.00136538
-0.687705 0.72599 7.98385e-06
-0.687587 0.726101 -0.00107999
-0.687888 0.725815 -0.00186523
-0.68827 0.725452 -0.0020992
-0.686073 0.727532 0.00022436
-0.707922 0.706252 -0.00736091
0.717233 0.669524 -0.193171
0.604091 0.570353 -0.556571
-0.401579 -0.380527 0.833027
-0.140262 -0.132992 0.981142
0.147286 0.127122 0.980891
0.419015 0.362158 0.832627
0.627976 0.544252 0.55627
0.73942 0.645084 0.192678
0.730508 0.653783 -0.197297
-0.655932 0.754819 0.00119837
-0.654281 0.756251 1.36896e-06
-0.653902 0.756578 -0.00123915
-0.654228 0.756294 -0.00206829
-0.654798 0.755801 -0.00221307
-0.652413 0.757863 0.000656256
-0.660943 0.750431 -0.00274503
0.746506 0.636799 -0.192916
0.629305 0.54258 -0.556401
-0.418786 -0.361603 0.832983
-0.14622 -0.126325 0.981153
0.153117 0.120168 0.980875
0.435523 0.342196 0.832599
0.652668 0.514452 0.556204
0.768234 0.610501 0.192626
0.761532 0.617384 -0.197249
-0.620268 0.784387 0.00205489
-0.617492 0.786577 0.000292417
-0.616883 0.787054 -0.00111366
-0.617207 0.786798 -0.00217562
-0.618025 0.786154 -0.00259003
-0.616948 0.787004 -0.000585655
0.803662 0.561764 0.196339
0.774682 0.602158 -0.193062
0.653859 0.512671 -0.556449
-0.435261 -0.341451 0.833042
-0.15195 -0.119185 0.981176
0.158648 0.112905 0.980858
0.451473 0.321 0.832545
0.677062 0.482002 0.556112
0.796589 0.573045 0.192526
0.686983 0.700233 -0.194236
-0.581084 0.813841 0.00193009
-0.578437 0.815727 5.48784e-05
-0.57808 0.815979 -0.000907322
-0.578355 0.815783 -0.00189396
-0.579007 0.815319 -0.00227262
-0.579374 0.81506 -0.00181372
0.809473 0.553267 0.19659
0.800814 0.566918 -0.193138
0.67789 0.48042 -0.556473
-0.451272 -0.319921 0.833069
-0.157545 -0.111571 0.981189
0.163886 0.105312 0.980842
0.466287 0.299395 0.83243
0.699152 0.449587 0.55593
0.822506 0.535262 0.192296
-0.528197 0.849117 -0.00293781
-0.542109 0.840304 0.00252342
-0.538937 0.842346 0.000634784
-0.538217 0.842806 -0.000623044
-0.53832 0.842738 -0.00187559
-0.538783 0.842441 -0.0022264
-0.540019 0.841648 -0.0027211
0.841228 0.503687 0.196557
0.825901 0.529769 -0.192956
0.700488 0.446981 -0.556349
-0.466254 -0.297907 0.832982
-0.162749 -0.103952 0.981176
0.168616 0.0976512 0.980833
0.479634 0.277796 0.832335
0.718771 0.417705 0.55578
0.846272 0.496879 0.192182
-0.491199 0.871045 -0.00215157
-0.504114 0.863627 0.00424343
-0.49942 0.866357 0.00238596
-0.497591 0.867412 -0.000113889
-0.497599 0.867404 -0.00243651
-0.498728 0.866751 -0.00363465
-0.500435 0.865766 -0.00371157
-0.498022 0.867163 -0.00143697
0.850009 0.490281 -0.192639
0.720444 0.414364 -0.556114
-0.479698 -0.276244 0.832814
-0.167498 -0.0964124 0.981147
0.172762 0.0902495 0.98082
0.491751 0.256026 0.832245
0.737201 0.384429 0.555652
0.86918 0.455617 0.192196
-0.449567 0.893245 -0.00184586
-0.463783 0.885932 0.00552787
-0.458618 0.888623 0.00431761
-0.455986 0.889987 0.000857503
-0.456228 0.889858 -0.00298611
-0.459355 0.88823 -0.00638041
-0.4638 0.885916 -0.00648554
-0.458648 0.888617 -0.00138558
0.870768 0.452411 -0.192583
0.737407 0.383593 -0.555956
-0.491655 -0.254726 0.832701
-0.171885 -0.0885519 0.981129
0.176691 0.0826359 0.980791
0.502867 0.233994 0.832089
0.753865 0.35095 0.555447
0.889069 0.415471 0.192198
-0.408182 0.9129 -0.00124996
-0.424044 0.905608 0.00783976
-0.416917 0.908924 0.00616138
-0.413301 0.910593 0.00149312
-0.413594 0.910454 -0.00359591
-0.417876 0.908466 -0.00831275
-0.42403 0.905608 -0.00852578
0.894161 0.402407 0.196326
0.890682 0.411724 -0.192793
0.753702 0.350649 -0.555858
-0.502543 -0.232791 0.832622
-0.175697 -0.0808029 0.981123
0.180308 0.0749891 0.980747
0.512851 0.212194 0.83184
0.768539 0.318077 0.555135
0.906365 0.376262 0.192171
-0.369854 0.92909 0.000139306
-0.385405 0.922677 0.0113952
-0.374606 0.927147 0.00824216
-0.369713 0.929143 0.00211581
-0.369859 0.929079 -0.00395918
-0.374877 0.927023 -0.00975977
-0.384498 0.92305 -0.0118211
0.912285 0.35956 0.196092
0.90765 0.372783 -0.192886
0.768667 0.316988 -0.55558
-0.512538 -0.210715 0.832409
-0.179151 -0.0731633 0.981097
0.183426 0.0677814 0.980694
0.521522 0.191448 0.831482
0.781095 0.28674 0.554681
0.921359 0.33791 0.192133
-0.352344 0.935851 0.00605698
-0.348733 0.937073 0.0167269
-0.331993 0.943219 0.0109052
-0.325515 0.945532 0.00307447
-0.325553 0.945515 -0.00407356
-0.332125 0.94316 -0.0119259
-0.350362 0.936427 -0.018733
0.934729 0.296579 0.195761
0.920991 0.338526 -0.192812
0.781079 0.286002 -0.555084
-0.52135 -0.189513 0.832033
-0.182345 -0.0656449 0.981041
0.186078 0.0611493 0.98063
0.528809 0.17269 0.830987
0.791367 0.258411 0.554042
0.93401 0.301179 0.192137
-0.468987 0.882258 0.0409038
-0.315108 0.948744 0.0243102
-0.289087 0.957204 0.013752
-0.280746 0.959774 0.0038392
-0.280642 0.959803 -0.00431753
-0.288684 0.95732 -0.0141238
-0.317308 0.947943 -0.0268442
0.959124 0.205046 0.195033
0.933158 0.303468 -0.192674
0.791493 0.257302 -0.554377
-0.52881 -0.170282 0.831483
-0.18511 -0.0589457 0.980948
0.188237 0.0555172 0.980553
0.534651 0.157151 0.830333
0.799279 0.234846 0.553173
0.944309 0.267036 0.192282
0.936976 -0.306806 -0.167172
-0.283813 0.958285 0.0337727
-0.245206 0.969335 0.0162662
-0.235041 0.971976 0.00434616
-0.234901 0.972008 -0.00463472
-0.244534 0.969505 -0.0162298
-0.28527 0.95778 -0.0357598
0.98178 -0.00399044 0.189981
0.943488 0.269721 -0.192562
0.799557 0.23343 -0.553371
-0.534853 -0.154355 0.830727
-0.187436 -0.0534716 0.98082
0.189773 0.0513916 0.980482
0.538778 0.146276 0.829652
0.804487 0.21876 0.552218
0.951271 0.240706 0.192727
0.954016 -0.241549 -0.177502
-0.24833 0.967758 0.0421445
-0.197294 0.98019 0.0173912
-0.186002 0.982539 0.00455269
-0.186009 0.982537 -0.00463089
-0.197211 0.980207 -0.0173815
-0.250503 0.967121 -0.0438776
0.957358 -0.226929 0.178798
0.950435 0.243929 -0.192798
0.804636 0.218017 -0.552295
-0.539146 -0.143078 0.82997
-0.1892 -0.049492 0.98069
0.190291 0.0490784 0.9805
0.54004 0.142145 0.829549
0.805241 0.216007 0.552203
0.952509 0.234878 0.193802
0.796818 -0.585859 -0.147821
-0.17412 0.983937 0.0393834
-0.130704 0.991273 0.0171538
-0.12151 0.992576 0.00521781
-0.121485 0.992583 -0.00441733
-0.130805 0.991265 -0.0168545
-0.17606 0.983537 -0.0407216
0.790457 -0.594713 0.146606
0.952102 0.236507 -0.193819
0.805416 0.215052 -0.55232
-0.540633 -0.137974 0.829867
-0.189996 -0.0475513 0.980633
0.189399 0.043339 0.980943
0.538716 0.126029 0.833007
0.807005 0.189101 0.559449
0.960433 0.194365 0.199476
0.979349 -0.00537055 -0.202106
0.828374 0.0453944 -0.558333
-0.552431 -0.0466384 0.832253
-0.193925 -0.0179866 0.980851
0.193865 0.0178647 0.980865
0.552487 0.0453972 0.832285
0.828453 0.043928 0.558334
0.979323 -0.00586242 0.20222
0.960433 0.194409 -0.199432
0.807329 0.187698 -0.559455
-0.539603 -0.122095 0.83302
-0.18932 -0.0426695 0.980988
0.189871 0.0384591 0.981055
0.539995 0.112666 0.834093
0.810058 0.167776 0.561834
0.965859 0.164717 0.199964
0.977681 0.0514815 -0.203691
0.825408 0.0425834 -0.562928
-0.550536 -0.0433613 0.833684
-0.193216 -0.0169033 0.981011
0.193381 0.0170823 0.980975
0.550534 0.0407592 0.833817
0.825364 0.0406726 0.563135
0.977698 0.0501317 0.203946
0.966111 0.163522 -0.199724
0.810534 0.166083 -0.56165
-0.540934 -0.109272 0.833937
-0.189623 -0.0385505 0.9811
0.186885 0.041247 0.981515
0.530595 0.124882 0.838375
0.795375 0.195819 0.573614
0.964437 0.166697 0.205119
0.971249 -0.0324352 -0.235848
0.813146 -0.0248576 -0.581529
-0.543586 -0.0136211 0.839243
-0.190698 -0.00677158 0.981625
0.190603 0.00688145 0.981643
0.542245 0.00414051 0.84021
0.812344 -0.0305472 0.582378
0.970852 -0.0365633 0.236876
0.965683 0.161262 -0.203594
0.797556 0.189931 -0.572565
-0.533999 -0.11661 0.837405
-0.186908 -0.0414272 0.981504
0.00175212 0.00625729 0.999979
0.00408152 0.000544941 0.999992
</DataArray>
<DataArray type="Float64" Name="cell vector length" format="ascii">
0.125145 0.121528 0.109704 0.0676916 0.0904913 0.128863 0.126583 0.122102 0.122552 0.127721 0.129727 0.0905192 0.0669927 0.107961 0.131559 0.130969 0.413326 0.393314 0.360463 0.323816 0.342859 0.384279 0.404936 0.408089 0.407239 0.402593 0.384153 0.343079 0.324175 0.361317 0.40151 0.416081 0.519752 0.49735 0.454644 0.394035 0.424375 0.492188 0.511667 0.513125 0.512398 0.509451 0.492186 0.424795 0.394523 0.455188 0.50289 0.521318 0.556229 0.529556 0.474356 0.374255 0.124953 0.25191 0.432946 0.506095 0.506095 0.433203 0.251245 0.125734 0.374584 0.474568 0.53454 0.55757 0.57783 0.546765 0.478655 0.346941 0.0898543 0.230213 0.419948 0.496534 0.4964 0.419586 0.229459 0.0906546 0.347181 0.478567 0.551518 0.579041 0.590969 0.5554 0.475843 0.323794 0.0601925 0.225428 0.415306 0.493166 0.49306 0.414977 0.224575 0.0611506 0.323985 0.475463 0.560097 0.592115 0.599493 0.560522 0.472832 0.308273 0.0369436 0.225421 0.412701 0.490877 0.490842 0.412511 0.224508 0.0381376 0.308447 0.472048 0.565171 0.600568 0.605069 0.563836 0.470734 0.297773 0.0184529 0.227286 0.410971 0.489051 0.489146 0.411106 0.226413 0.0200524 0.297931 0.469242 0.56829 0.606028 0.608615 0.56604 0.469779 0.290525 0.00395424 0.229149 0.409759 0.487814 0.488049 0.410464 0.229002 0.00566551 0.290174 0.467007 0.570197 0.609468 0.610772 0.56725 0.469331 0.284302 0.012168 0.23065 0.409151 0.487086 0.487351 0.410155 0.230381 0.00214959 0.285237 0.465247 0.571383 0.611629 0.612038 0.567679 0.469083 0.294084 0.0669328 0.227524 0.409379 0.486638 0.486851 0.41029 0.232483 0.00563723 0.281757 0.463736 0.57211 0.613 0.612799 0.567924 0.468931 0.290519 0.0809334 0.229691 0.409732 0.486631 0.486836 0.410817 0.234766 0.0101292 0.278442 0.462336 0.572563 0.613871 0.613381 0.568103 0.468507 0.287761 0.0776327 0.231154 0.410244 0.487043 0.4873 0.411692 0.236998 0.0148711 0.27545 0.46105 0.572916 0.614538 0.613914 0.567996 0.467167 0.284429 0.0730032 0.23418 0.411825 0.488208 0.488498 0.413266 0.23972 0.0198569 0.272471 0.459893 0.57331 0.615202 0.61424 0.567654 0.46555 0.282221 0.0611318 0.243675 0.418815 0.494123 0.494392 0.420077 0.249203 0.0241884 0.269792 0.459075 0.573769 0.615751 0.614276 0.567123 0.46395 0.273092 0.0221382 0.274039 0.442052 0.514271 0.514495 0.443032 0.276555 0.0327134 0.267877 0.45885 0.574244 0.616082 0.614152 0.566271 0.462123 0.271854 0.0124083 0.281567 0.448097 0.519497 0.519663 0.448693 0.283939 0.0242807 0.266082 0.458755 0.574591 0.616306 0.613898 0.565125 0.459933 0.269956 0.0116208 0.282977 0.449263 0.520331 0.520438 0.449461 0.282161 0.00577788 0.271538 0.458496 0.574695 0.616424 0.613456 0.563966 0.457947 0.269309 0.00200209 0.283064 0.449756 0.52072 0.520776 0.44973 0.282662 0.0138658 0.269815 0.457997 0.574712 0.616371 0.612789 0.562804 0.456117 0.260463 0.0328451 0.285895 0.450189 0.521298 0.52123 0.449821 0.282265 0.00361945 0.269605 0.457511 0.574827 0.616159 0.611803 0.561387 0.454411 0.260687 0.0417013 0.285634 0.450867 0.522098 0.521854 0.449829 0.284467 0.0309787 0.261386 0.457086 0.574822 0.615649 0.610385 0.55972 0.453014 0.260957 0.039891 0.285377 0.451646 0.523012 0.522674 0.450254 0.283883 0.0292693 0.261784 0.456677 0.574174 0.614582 0.608347 0.557868 0.45222 0.262375 0.0366628 0.284391 0.45241 0.524141 0.523839 0.451201 0.280345 0.00961887 0.27128 0.456422 0.572752 0.612708 0.60537 0.555611 0.451903 0.265052 0.0319639 0.283138 0.453471 0.525715 0.525471 0.452328 0.279161 0.0252193 0.273668 0.456549 0.570762 0.609806 0.601027 0.552579 0.452108 0.269729 0.0249561 0.281869 0.45504 0.527713 0.527463 0.453868 0.27785 0.0328875 0.278497 0.456842 0.568009 0.605572 0.594537 0.548198 0.453044 0.277747 0.0140716 0.281205 0.457402 0.53018 0.529869 0.456201 0.277384 0.0383695 0.286597 0.457312 0.563933 0.599264 0.584351 0.541218 0.454552 0.292106 0.0182171 0.282491 0.461346 0.533609 0.533222 0.460037 0.280712 0.0345079 0.295458 0.458143 0.557364 0.589329 0.566462 0.52724 0.452297 0.310817 0.0515938 0.29323 0.470242 0.540338 0.539956 0.469074 0.292671 0.0528316 0.311573 0.455213 0.543955 0.571786 0.522312 0.484697 0.419558 0.310924 0.0823364 0.349169 0.505831 0.569207 0.569816 0.508287 0.348898 0.0826019 0.311431 0.421876 0.50284 0.528296 0.490008 0.453351 0.395395 0.316774 0.351022 0.426234 0.469709 0.474983 0.469207 0.453858 0.424138 0.350308 0.317387 0.39736 0.472629 0.496413 0.444649 0.406871 0.351967 0.295203 0.304207 0.358486 0.414496 0.423245 0.415706 0.392724 0.35675 0.303986 0.29558 0.353566 0.427272 0.451493 0.229553 0.191431 0.136304 0.0863307 0.104258 0.163361 0.229333 0.245594 0.24009 0.211569 0.164531 0.104879 0.0860324 0.135001 0.210066 0.235388 0.0430551 0.0151589 
</DataArray>
<DataArray type="Float64" Name="cell variable 4" format="ascii">
817.931 818.915 820.697 809.749 821.602 828.639 820.355 815.506 815.081 819.702 829.132 821.615 809.203 818.387 824.126 819.631 1143.89 1134.34 1126.88 1120.87 1139.81 1147.95 1149.19 1146.23 1145.07 1145.4 1148.22 1139.89 1120.53 1126.59 1147.4 1148.11 1359.25 1349.17 1340.09 1332.06 1358.12 1380.73 1385.82 1382.6 1380.78 1379.8 1380.9 1358.44 1332.2 1340.25 1363.36 1363.4 1420.19 1408.06 1396 1383.6 1411.99 1905.01 2508.52 2870.95 2869.51 2505.5 1903.29 1412.25 1383.67 1396.14 1423.05 1424.53 1438.34 1425.68 1414.09 1405.04 1418.89 1897.98 2498.11 2862.35 2861.21 2495.57 1896.18 1419.02 1405.09 1414.11 1441.27 1442.79 1443.71 1428.16 1412.67 1401.41 1410.66 1898.91 2486.93 2849.81 2848.91 2484.77 1897.07 1410.83 1401.51 1412.59 1444.48 1448.33 1446.09 1427.73 1408.68 1395.4 1400.45 1904.09 2478.72 2838.21 2837.58 2477.01 1902.12 1400.57 1395.55 1408.48 1445.06 1450.99 1447.29 1426.68 1405 1390.09 1391.23 1911.09 2473.09 2828.17 2827.98 2472.16 1908.86 1391.05 1390.19 1404.62 1445.31 1452.6 1447.8 1425.16 1401.79 1386.71 1385.12 1918.37 2468.92 2820.04 2820.59 2469.63 1915.91 1383.3 1385.67 1401.29 1445.63 1453.77 1448.3 1423.59 1398.19 1382.5 1407.68 1922.11 2465.31 2814.4 2815.59 2468.12 1919 1381.7 1381.75 1398.41 1446.13 1454.96 1448.93 1422.2 1394.19 1376.29 1459.52 1909.21 2463.22 2810.82 2812.38 2468.22 1923.24 1385.84 1378.37 1395.83 1446.61 1456.1 1448.91 1420.45 1391.18 1372.89 1489.49 1912.9 2461.98 2808.17 2810.25 2468.99 1927.69 1390.72 1375.68 1393.55 1446.97 1456.79 1448.42 1418.61 1388.98 1371.27 1490.6 1916.55 2461.68 2806.42 2809 2470 1931.47 1394.96 1373.28 1391.4 1447.14 1457.06 1447.98 1417.17 1386.78 1368.1 1487.05 1919.56 2462.63 2806.01 2808.6 2470.86 1934.51 1398.87 1370.82 1389.25 1447.04 1457.07 1447.06 1415.5 1384.84 1365.95 1469.62 1921.46 2463.9 2806.27 2808.58 2471.16 1936.72 1402.76 1368.68 1387.04 1446.46 1456.5 1445.68 1413.56 1383.37 1365.69 1441.11 1964.86 2518.65 2867.81 2869.71 2524.29 1971.57 1415.99 1367.59 1384.96 1445.49 1455.49 1445 1412.22 1381.85 1364.21 1425.6 1964.13 2518.8 2867.79 2868.97 2522.08 1970.57 1418.28 1365.66 1382.86 1444.89 1455.08 1445.07 1411.44 1380.13 1361.33 1422.85 1963.9 2520.52 2869.76 2870.17 2521.3 1961.6 1409.55 1362.43 1380.53 1444.69 1455.38 1444.7 1410.44 1378.98 1360.15 1406.61 1963.68 2522.53 2872.01 2871.89 2521.52 1961.56 1422.35 1360.06 1378.74 1444.48 1455.37 1443.53 1409.11 1378.51 1360.76 1423.49 1973.49 2524.59 2874.3 2873.71 2522.29 1961.45 1407 1359.72 1378.1 1444.17 1454.62 1442.28 1407.91 1377.85 1360.39 1419.96 1972.39 2526.8 2877.62 2876.32 2523.41 1971 1422.59 1361.1 1378.02 1443.62 1453.54 1441.39 1406.88 1376.98 1359.48 1416.09 1970.33 2529.21 2882.58 2880.84 2524.88 1969.24 1420.35 1360.68 1377.25 1443.26 1452.89 1440.56 1405.86 1376.46 1359.54 1411.29 1967.28 2531.9 2889.25 2887.47 2526.79 1955.74 1407.96 1358.61 1375.96 1443.06 1452.5 1439.37 1404.94 1376.47 1360.22 1404.61 1963.29 2535.43 2897.55 2895.63 2529.54 1951.53 1425.04 1358.95 1375.48 1442.49 1451.51 1437.63 1403.97 1377.03 1361.63 1395.01 1958.43 2540.38 2907.68 2905.63 2534.26 1946.74 1426.48 1360.58 1376.03 1441.97 1449.96 1435.13 1402.78 1378.1 1363.75 1381.66 1953.28 2547.6 2919.99 2917.93 2542 1941.86 1418.42 1362.64 1377.4 1441.54 1447.76 1430.42 1400.03 1378.33 1365.24 1375.69 1948.3 2558.16 2934.66 2932.5 2553.4 1944.15 1399.88 1365.24 1378.29 1439.35 1443.25 1414.46 1385.69 1366.39 1353.9 1382.8 1948.45 2573.33 2951.7 2949.51 2569.45 1948.1 1387.95 1354.59 1366.85 1425.08 1427.37 1333.48 1303.98 1281.4 1262.41 1334.39 1966.07 2601.86 2978.88 2976.73 2598.52 1965.74 1335 1262.74 1281.83 1341.13 1345.79 1260.5 1232.29 1211.07 1195.44 1223.53 1236.24 1272.29 1271.87 1263.42 1246.76 1236.35 1223.06 1195.61 1211.42 1267.41 1272.27 1124.47 1096.39 1072.31 1053.42 1057.91 1070.65 1111.81 1110.34 1100.21 1081.12 1070.54 1057.86 1053.45 1072.65 1127.37 1135.02 799.707 789.281 785.233 785.845 798.246 814.111 850.591 855.57 849.07 831.127 815.242 798.473 785.773 783.765 807.718 805.336 612.493 744.351 
</DataArray>
<DataArray type="Float64" Name="cell variable 5" format="ascii">
0.0118872 0.0118872 0.0118872 0.0118872 0.0118872 0.0118872 0.0118872 0.0118872 0.0118872 0.0118872 0.0118872 0.0118872 0.0118872 0.0118872 0.0118872 0.0118872 0.0118872 0.0118872 0.0118872 0.0118872 0.0118872 0.0118872 0.0118872 0.0118872 0.0118872 0.0118872 0.0118872 0.0118872 0.0118872 0.0118872 0.0118872 0.0118872 0.0118872 0.0118872 0.0118872 0.0118872 0.0118872 0.0118872 0.0118872 0.0118872 0.0118872 0.0118872 0.0118872 0.0118872 0.0118872 0.0118872 0.0118872 0.0118872 0.0179655 0.0166315 0.0144786 0.0124261 0.0118872 0.0118872 0.0118872 0.0118872 0.0118872 0.0118872 0.0118872 0.0118872 0.0124261 0.0144786 0.0166315 0.0179655 0.0203271 0.0184753 0.015485 0.0126347 0.0118872 0.0118872 0.0118872 0.0118872 0.0118872 0.0118872 0.0118872 0.0118872 0.0126347 0.015485 0.0184753 0.0203271 0.0216954 0.0195452 0.0160688 0.0127563 0.0118872 0.0118872 0.0118872 0.0118872 0.0118872 0.0118872 0.0118872 0.0118872 0.0127563 0.0160688 0.0195452 0.0216954 0.0226913 0.0203191 0.0164941 0.0128461 0.0118872 0.0118872 0.0118872 0.0118872 0.0118872 0.0118872 0.0118872 0.0118872 0.0128461 0.0164941 0.0203191 0.0226913 0.0234679 0.0209267 0.0168243 0.0129148 0.0118872 0.0118872 0.0118872 0.0118872 0.0118872 0.0118872 0.0118872 0.0118872 0.0129148 0.0168243 0.0209267 0.0234679 0.024094 0.0214154 0.0170911 0.0129702 0.0118872 0.0118872 0.0118872 0.0118872 0.0118872 0.0118872 0.0118872 0.0118872 0.0129702 0.0170911 0.0214154 0.024094 0.0246064 0.0218143 0.0173104 0.0130151 0.0118872 0.0118872 0.0118872 0.0118872 0.0118872 0.0118872 0.0118872 0.0118872 0.0130151 0.0173104 0.0218143 0.0246064 0.0250212 0.0221392 0.0174874 0.0130521 0.0118872 0.0118872 0.0118872 0.0118872 0.0118872 0.0118872 0.0118872 0.0118872 0.0130521 0.0174874 0.0221392 0.0250212 0.025354 0.0224007 0.01763 0.0130812 0.0118872 0.0118872 0.0118872 0.0118872 0.0118872 0.0118872 0.0118872 0.0118872 0.0130812 0.01763 0.0224007 0.025354 0.0256129 0.0226015 0.0177383 0.0131049 0.0118872 0.0118872 0.0118872 0.0118872 0.0118872 0.0118872 0.0118872 0.0118872 0.0131049 0.0177383 0.0226015 0.0256129 0.0258031 0.0227494 0.0178202 0.0131208 0.0118872 0.0118872 0.0118872 0.0118872 0.0118872 0.0118872 0.0118872 0.0118872 0.0131208 0.0178202 0.0227494 0.0258031 0.0259299 0.0228471 0.017873 0.013134 0.0118872 0.0118872 0.0118872 0.0118872 0.0118872 0.0118872 0.0118872 0.0118872 0.013134 0.017873 0.0228471 0.0259299 0.0259906 0.0228973 0.0178994 0.0131393 0.0118872 0.0118872 0.0118872 0.0118872 0.0118872 0.0118872 0.0118872 0.0118872 0.0131393 0.0178994 0.0228973 0.0259906 0.0259906 0.0228973 0.0178994 0.0131393 0.0118872 0.0118872 0.0118872 0.0118872 0.0118872 0.0118872 0.0118872 0.0118872 0.0131393 0.0178994 0.0228973 0.0259906 0.0259299 0.0228471 0.017873 0.013134 0.0118872 0.0118872 0.0118872 0.0118872 0.0118872 0.0118872 0.0118872 0.0118872 0.013134 0.017873 0.0228471 0.0259299 0.0258031 0.0227494 0.0178202 0.0131208 0.0118872 0.0118872 0.0118872 0.0118872 0.0118872 0.0118872 0.0118872 0.0118872 0.0131208 0.0178202 0.0227494 0.0258031 0.0256129 0.0226015 0.0177383 0.0131049 0.0118872 0.0118872 0.0118872 0.0118872 0.0118872 0.0118872 0.0118872 0.0118872 0.0131049 0.0177383 0.0226015 0.0256129 0.025354 0.0224007 0.01763 0.0130812 0.0118872 0.0118872 0.0118872 0.0118872 0.0118872 0.0118872 0.0118872 0.0118872 0.0130812 0.01763 0.0224007 0.025354 0.0250212 0.0221392 0.0174874 0.0130521 0.0118872 0.0118872 0.0118872 0.0118872 0.0118872 0.0118872 0.0118872 0.0118872 0.0130521 0.0174874 0.0221392 0.0250212 0.0246064 0.0218143 0.0173104 0.0130151 0.0118872 0.0118872 0.0118872 0.0118872 0.0118872 0.0118872 0.0118872 0.0118872 0.0130151 0.0173104 0.0218143 0.0246064 0.024094 0.0214154 0.0170911 0.0129702 0.0118872 0.0118872 0.0118872 0.0118872 0.0118872 0.0118872 0.0118872 0.0118872 0.0129702 0.0170911 0.0214154 0.024094 0.0234679 0.0209267 0.0168243 0.0129148 0.0118872 0.0118872 0.0118872 0.0118872 0.0118872 0.0118872 0.0118872 0.0118872 0.0129148 0.0168243 0.0209267 0.0234679 0.0226913 0.0203191 0.0164941 0.0128461 0.0118872 0.0118872 0.0118872 0.0118872 0.0118872 0.0118872 0.0118872 0.0118872 0.0128461 0.0164941 0.0203191 0.0226913 0.0216954 0.0195452 0.0160688 0.0127563 0.0118872 0.0118872 0.0118872 0.0118872 0.0118872 0.0118872 0.0118872 0.0118872 0.0127563 0.0160688 0.0195452 0.0216954 0.0203271 0.0184753 0.015485 0.0126347 0.0118872 0.0118872 0.0118872 0.0118872 0.0118872 0.0118872 0.0118872 0.0118872 0.0126347 0.015485 0.0184753 0.0203271 0.0179655 0.0166315 0.0144786 0.0124261 0.0118872 0.0118872 0.0118872 0.0118872 0.0118872 0.0118872 0.0118872 0.0118872 0.0124261 0.0144786 0.0166315 0.0179655 0.0118872 0.0118872 0.0118872 0.0118872 0.0118872 0.0118872 0.0118872 0.0118872 0.0118872 0.0118872 0.0118872 0.0118872 0.0118872 0.0118872 0.0118872 0.0118872 0.0118872 0.0118872 0.0118872 0.0118872 0.0118872 0.0118872 0.0118872 0.0118872 0.0118872 0.0118872 0.0118872 0.0118872 0.0118872 0.0118872 0.0118872 0.0118872 0.0118872 0.0118872 0.0118872 0.0118872 0.0118872 0.0118872 0.0118872 0.0118872 0.0118872 0.0118872 0.0118872 0.0118872 0.0118872 0.0118872 0.0118872 0.0118872 0.0118872 0.0118872 
</DataArray>
<DataArray type="Float64" Name="cell variable 6" format="ascii">
1 1 1 1 1 1 1 1 1 1 1 1 1 1 1 1 1 1 1 1 1 1 1 1 1 1 1 1 1 1 1 1 1 1 1 1 1 1 1 1 1 1 1 1 1 1 1 1 1 1 1 1 1 1 1 1 1 1 1 1 1 1 1 1 1 1 1 1 1 1 1 1 1 1 1 1 1 1 1 1 1 1 1 1 1 1 1 1 1 1 1 1 1 1 1 1 1 1 1 1 1 1 1 1 1 1 1 1 1 1 1 1 1 1 1 1 1 1 1 1 1 1 1 1 1 1 1 1 1 1 1 1 1 1 1 1 1 1 1 1 1 1 1 1 1 1 1 1 1 1 1 1 1 1 1 1 1 1 1 1 1 1 1 1 1 1 1 1 1 1 1 1 1 1 1 1 1 1 1 1 1 1 1 1 1 1 1 1 1 1 1 1 1 1 1 1 1 1 1 1 1 1 1 1 1 1 1 1 1 1 1 1 1 1 1 1 1 1 1 1 1 1 1 1 1 1 1 1 1 1 1 1 1 1 1 1 1 1 1 1 1 1 1 1 1 1 1 1 1 1 1 1 1 1 1 1 1 1 1 1 1 1 1 1 1 1 1 1 1 1 1 1 1 1 1 1 1 1 1 1 1 1 1 1 1 1 1 1 1 1 1 1 1 1 1 1 1 1 1 1 1 1 1 1 1 1 1 1 1 1 1 1 1 1 1 1 1 1 1 1 1 1 1 1 1 1 1 1 1 1 1 1 1 1 1 1 1 1 1 1 1 1 1 1 1 1 1 1 1 1 1 1 1 1 1 1 1 1 1 1 1 1 1 1 1 1 1 1 1 1 1 1 1 1 1 1 1 1 1 1 1 1 1 1 1 1 1 1 1 1 1 1 1 1 1 1 1 1 1 1 1 1 1 1 1 1 1 1 1 1 1 1 1 1 1 1 1 1 1 1 1 1 1 1 1 1 1 1 1 1 1 1 1 1 1 1 1 1 1 1 1 1 1 1 1 1 1 1 1 1 1 1 1 1 1 1 1 1 1 1 1 1 1 1 1 1 1 1 1 1 1 1 1 1 1 1 1 1 1 1 1 1 1 1 1 1 1 1 1 1 1 1 1 1 1 1 1 1 1 1 1 1 1 1 1 1 1 1 1 1 1 1 1 1 
</DataArray>
<DataArray type="Float64" Name="cell variable 7" format="ascii">
0 0 0 0 0 0 0 0 0 0 0 0 0 0 0 0 0 0 0 0 0 0 0 0 0 0 0 0 0 0 0 0 0 0 0 0 0 0 0 0 0 0 0 0 0 0 0 0 0 0 0 0 0 0 0 0 0 0 0 0 0 0 0 0 0 0 0 0 0 0 0 0 0 0 0 0 0 0 0 0 0 0 0 0 0 0 0 0 0 0 0 0 0 0 0 0 0 0 0 0 0 0 0 0 0 0 0 0 0 0 0 0 0 0 0 0 0 0 0 0 0 0 0 0 0 0 0 0 0 0 0 0 0 0 0 0 0 0 0 0 0 0 0 0 0 0 0 0 0 0 0 0 0 0 0 0 0 0 0 0 0 0 0 0 0 0 0 0 0 0 0 0 0 0 0 0 0 0 0 0 0 0 0 0 0 0 0 0 0 0 0 0 0 0 0 0 0 0 0 0 0 0 0 0 0 0 0 0 0 0 0 0 0 0 0 0 0 0 0 0 0 0 0 0 0 0 0 0 0 0 0 0 0 0 0 0 0 0 0 0 0 0 0 0 0 0 0 0 0 0 0 0 0 0 0 0 0 0 0 0 0 0 0 0 0 0 0 0 0 0 0 0 0 0 0 0 0 0 0 0 0 0 0 0 0 0 0 0 0 0 0 0 0 0 0 0 0 0 0 0 0 0 0 0 0 0 0 0 0 0 0 0 0 0 0 0 0 0 0 0 0 0 0 0 0 0 0 0 0 0 0 0 0 0 0 0 0 0 0 0 0 0 0 0 0 0 0 0 0 0 0 0 0 0 0 0 0 0 0 0 0 0 0 0 0 0 0 0 0 0 0 0 0 0 0 0 0 0 0 0 0 0 0 0 0 0 0 0 0 0 0 0 0 0 0 0 0 0 0 0 0 0 0 0 0 0 0 0 0 0 0 0 0 0 0 0 0 0 0 0 0 0 0 0 0 0 0 0 0 0 0 0 0 0 0 0 0 0 0 0 0 0 0 0 0 0 0 0 0 0 0 0 0 0 0 0 0 0 0 0 0 0 0 0 0 0 0 0 0 0 0 0 0 0 0 0 0 0 0 0 0 0 0 0 0 0 0 0 0 0 0 0 0 0 0 0 0 0 0 0 0 0 0 0 0 0 0 0 0 0 0 0 1 1 
</DataArray>
<DataArray type="Float64" Name="cell variable 8" format="ascii">
11.25 33.75 56.25 78.75 101.25 123.75 146.25 168.75 191.25 213.75 236.25 258.75 281.25 303.75 326.25 348.75 11.25 33.75 56.25 78.75 101.25 123.75 146.25 168.75 191.25 213.75 236.25 258.75 281.25 303.75 326.25 348.75 11.25 33.75 56.25 78.75 101.25 123.75 146.25 168.75 191.25 213.75 236.25 258.75 281.25 303.75 326.25 348.75 11.25 33.75 56.25 78.75 101.25 123.75 146.25 168.75 191.25 213.75 236.25 258.75 281.25 303.75 326.25 348.75 11.25 33.75 56.25 78.75 101.25 123.75 146.25 168.75 191.25 213.75 236.25 258.75 281.25 303.75 326.25 348.75 11.25 33.75 56.25 78.75 101.25 123.75 146.25 168.75 191.25 213.75 236.25 258.75 281.25 303.75 326.25 348.75 11.25 33.75 56.25 78.75 101.25 123.75 146.25 168.75 191.25 213.75 236.25 258.75 281.25 303.75 326.25 348.75 11.25 33.75 56.25 78.75 101.25 123.75 146.25 168.75 191.25 213.75 236.25 258.75 281.25 303.75 326.25 348.75 11.25 33.75 56.25 78.75 101.25 123.75 146.25 168.75 191.25 213.75 236.25 258.75 281.25 303.75 326.25 348.75 11.25 33.75 56.25 78.75 101.25 123.75 146.25 168.75 191.25 213.75 236.25 258.75 281.25 303.75 326.25 348.75 11.25 33.75 56.25 78.75 101.25 123.75 146.25 168.75 191.25 213.75 236.25 258.75 281.25 303.75 326.25 348.75 11.25 33.75 56.25 78.75 101.25 123.75 146.25 168.75 191.25 213.75 236.25 258.75 281.25 303.75 326.25 348.75 11.25 33.75 56.25 78.75 101.25 123.75 146.25 168.75 191.25 213.75 236.25 258.75 281.25 303.75 326.25 348.75 11.25 33.75 56.25 78.75 101.25 123.75 146.25 168.75 191.25 213.75 236.25 258.75 281.25 303.75 326.25 348.75 11.25 33.75 56.25 78.75 101.25 123.75 146.25 168.75 191.25 213.75 236.25 258.75 281.25 303.75 326.25 348.75 11.25 33.75 56.25 78.75 101.25 123.75 146.25 168.75 191.25 213.75 236.25 258.75 281.25 303.75 326.25 348.75 11.25 33.75 56.25 78.75 101.25 123.75 146.25 168.75 191.25 213.75 236.25 258.75 281.25 303.75 326.25 348.75 11.25 33.75 56.25 78.75 101.25 123.75 146.25 168.75 191.25 213.75 236.25 258.75 281.25 303.75 326.25 348.75 11.25 33.75 56.25 78.75 101.25 123.75 146.25 168.75 191.25 213.75 236.25 258.75 281.25 303.75 326.25 348.75 11.25 33.75 56.25 78.75 101.25 123.75 146.25 168.75 191.25 213.75 236.25 258.75 281.25 303.75 326.25 348.75 11.25 33.75 56.25 78.75 101.25 123.75 146.25 168.75 191.25 213.75 236.25 258.75 281.25 303.75 326.25 348.75 11.25 33.75 56.25 78.75 101.25 123.75 146.25 168.75 191.25 213.75 236.25 258.75 281.25 303.75 326.25 348.75 11.25 33.75 56.25 78.75 101.25 123.75 146.25 168.75 191.25 213.75 236.25 258.75 281.25 303.75 326.25 348.75 11.25 33.75 56.25 78.75 101.25 123.75 146.25 168.75 191.25 213.75 236.25 258.75 281.25 303.75 326.25 348.75 11.25 33.75 56.25 78.75 101.25 123.75 146.25 168.75 191.25 213.75 236.25 258.75 281.25 303.75 326.25 348.75 11.25 33.75 56.25 78.75 101.25 123.75 146.25 168.75 191.25 213.75 236.25 258.75 281.25 303.75 326.25 348.75 11.25 33.75 56.25 78.75 101.25 123.75 146.25 168.75 191.25 213.75 236.25 258.75 281.25 303.75 326.25 348.75 11.25 33.75 56.25 78.75 101.25 123.75 146.25 168.75 191.25 213.75 236.25 258.75 281.25 303.75 326.25 348.75 11.25 33.75 56.25 78.75 101.25 123.75 146.25 168.75 191.25 213.75 236.25 258.75 281.25 303.75 326.25 348.75 11.25 33.75 56.25 78.75 101.25 123.75 146.25 168.75 191.25 213.75 236.25 258.75 281.25 303.75 326.25 348.75 11.25 33.75 56.25 78.75 101.25 123.75 146.25 168.75 191.25 213.75 236.25 258.75 281.25 303.75 326.25 348.75 11.25 33.75 56.25 78.75 101.25 123.75 146.25 168.75 191.25 213.75 236.25 258.75 281.25 303.75 326.25 348.75 0 0 
</DataArray>
</CellData>
</Piece>
</UnstructuredGrid>
</VTKFile>
