<VTKFile type="UnstructuredGrid" version="0.1">
<UnstructuredGrid>
<Piece  NumberOfPoints="    2080" NumberOfCells="     514">
<Points>
<DataArray type="Float64" NumberOfComponents="3" format="ascii">
-304.455 714.737 1.13254
-303.241 719.751 26.8926
-277.76 708.527 29.0254
-279.109 703.101 1.17203
-302.965 720.865 29.6436
-299.442 735.077 51.4376
-273.646 725.021 55.3329
-277.484 709.64 31.7764
-298.932 737.128 53.5374
-293.685 758.35 68.034
-267.419 750.033 73.1196
-273.136 727.073 57.4327
-293.03 761.026 69.1654
-286.99 786.029 74.2001
-260.202 779.781 79.7409
-266.764 752.709 74.251
-286.309 788.929 74.1979
-280.577 813.99 69.0818
-253.366 809.876 74.2467
-259.522 782.68 79.7388
-279.981 816.679 67.9451
-275.352 838.029 53.4188
-247.808 835.683 57.3396
-252.77 812.565 73.11
-274.909 840.093 51.3134
-271.858 854.393 29.5045
-244.07 853.194 31.6157
-247.365 837.747 55.2341
-271.618 855.51 26.7506
-270.526 860.509 0.985955
-242.648 859.716 0.997691
-243.83 854.311 28.8618
-270.524 860.505 -1.99529
-271.574 855.44 -27.7493
-243.778 854.245 -29.8374
-242.645 859.712 -1.98355
-271.81 854.318 -30.5009
-274.845 839.973 -52.2832
-247.29 837.624 -56.1753
-244.014 853.123 -32.589
-275.287 837.904 -54.3844
-279.91 816.525 -68.8706
-252.693 812.406 -73.9986
-247.731 835.556 -58.2766
-280.506 813.833 -70.0021
-286.235 788.761 -75.0683
-259.44 782.508 -80.5713
-253.29 809.714 -75.1301
-286.916 785.862 -75.0648
-292.962 760.869 -69.9806
-266.686 752.549 -75.0264
-260.121 779.609 -80.5678
-293.618 758.196 -68.8438
-298.864 737.006 -54.3002
-273.086 726.96 -58.1504
-267.342 749.877 -73.8897
-299.375 734.96 -52.1954
-302.908 720.798 -30.3721
-277.469 709.58 -32.4358
-273.598 724.913 -56.0456
-303.187 719.691 -27.6172
-304.453 714.734 -1.8493
-279.107 703.098 -1.80981
-277.749 708.473 -29.6809
-276.027 702.001 1.24993
-274.677 707.426 29.1033
-244.252 698.928 29.7566
-245.648 693.406 1.27282
-270.545 723.975 55.5499
-239.961 715.746 56.7643
-243.958 700.095 32.6468
-274.383 708.593 31.9934
-264.286 749.086 73.4439
-233.438 741.282 75.058
-239.418 717.896 58.9714
-270.002 726.126 57.7571
-257.027 778.965 80.1247
-225.906 771.706 81.8825
-232.741 744.089 76.2489
-263.589 751.893 74.6348
-250.159 809.205 74.6323
-219.035 802.557 76.2375
-225.192 774.75 81.8822
-256.314 782.009 80.1243
-244.582 835.149 57.6661
-213.53 829.012 58.8675
-218.42 805.383 75.0418
-249.543 812.031 73.4365
-240.829 852.764 31.8324
-209.78 846.975 32.4853
-213.073 831.18 56.6522
-244.124 837.317 55.4508
-239.397 859.341 1.07447
-208.34 853.673 1.09241
-209.531 848.147 29.5915
-240.579 853.936 28.9385
-240.527 853.871 -29.9105
-209.489 848.078 -30.5231
-208.337 853.67 -2.03876
-239.394 859.338 -2.05671
-244.048 837.194 -56.3881
-213.004 831.058 -57.5413
-209.734 846.899 -33.4144
-240.773 852.692 -32.8018
-249.466 811.871 -74.3208
-218.341 805.223 -75.88
-213.46 828.885 -59.752
-244.504 835.021 -58.5988
-256.232 781.836 -80.9521
-225.109 774.576 -82.6599
-218.956 802.395 -77.0701
-250.081 809.043 -75.5109
-263.511 751.733 -75.4052
-232.664 743.928 -76.9653
-225.822 771.532 -82.6544
-256.946 778.792 -80.9466
-269.953 726.012 -58.4693
-239.366 717.776 -59.6345
-233.363 741.124 -75.7687
-264.209 748.929 -74.2086
-274.371 708.534 -32.6467
-243.94 700.025 -33.2542
-239.912 715.63 -57.4217
-270.499 723.866 -56.2565
-274.667 707.373 -29.7529
-276.026 701.998 -1.88183
-245.647 693.402 -1.85894
-244.237 698.864 -30.3604
-242.252 692.517 1.29637
-240.856 698.039 29.7802
-209.998 690.555 29.9306
-211.427 685.021 1.31888
-240.552 699.218 32.7104
-236.555 714.868 56.828
-205.559 707.41 57.0993
-209.693 691.733 32.8608
-235.988 717.041 59.0679
-230.009 740.427 75.1545
-198.734 733.007 75.5158
-204.993 709.583 59.3393
-229.28 743.264 76.3629
-222.444 770.881 81.9966
-190.843 763.519 82.3722
-198.005 735.844 76.7242
-221.723 773.96 81.9966
-215.566 801.767 76.3519
-184.252 794.617 76.7325
-190.122 766.597 82.3722
-214.966 804.638 75.1401
-210.076 828.267 58.9659
-178.994 821.37 59.3077
-183.652 797.488 75.5206
-209.629 830.471 56.7187
-206.336 846.266 32.5518
-175.311 839.509 32.756
-178.547 823.573 57.0605
-206.088 847.456 29.6162
-204.897 852.982 1.11716
-173.873 846.267 1.14147
-175.063 840.699 29.8204
-204.895 852.978 -2.05878
-206.047 847.386 -30.5431
-175.031 840.633 -30.7007
-173.871 846.263 -2.03447
-206.291 846.19 -33.476
-209.561 830.348 -57.6028
-178.485 823.451 -57.9017
-175.275 839.436 -33.6335
-210.006 828.14 -59.8453
-214.887 804.478 -75.9733
-183.574 797.326 -76.3092
-178.931 821.242 -60.1442
-215.486 801.604 -77.1794
-221.639 773.785 -82.7692
-190.039 766.421 -83.0993
-184.173 794.452 -77.5153
-222.361 770.707 -82.7631
-229.203 743.102 -77.074
-197.929 735.681 -77.3901
-190.76 763.343 -83.0932
-229.933 740.268 -75.8599
-235.936 716.919 -59.7257
-204.937 709.458 -59.9532
-198.659 732.847 -76.176
-236.506 714.752 -57.4804
-240.534 699.146 -33.3129
-209.67 691.656 -33.4192
-205.506 707.29 -57.7079
-240.841 697.974 -30.3789
-242.251 692.513 -1.87748
-211.426 685.017 -1.85497
-209.977 690.484 -30.4852
-208.034 684.173 1.32806
-206.604 689.707 29.9397
-176.248 681.913 30
-177.866 676.414 1.34884
-206.274 690.885 32.881
-202.14 706.562 57.1196
-171.261 698.67 57.2061
-175.918 683.091 32.9413
-201.527 708.732 59.3655
-195.267 732.157 75.5421
-163.645 724.12 75.6393
-170.647 700.839 59.4521
-194.473 734.99 76.7519
-187.312 762.665 82.3999
-154.721 754.434 82.5023
-162.85 726.953 76.8492
-186.516 765.752 82.3933
-180.646 793.772 76.7536
-146.481 785.233 76.8288
-153.925 757.521 82.4957
-179.982 796.636 75.5347
-175.323 820.517 59.3218
-139.84 811.821 59.4354
-145.817 788.098 75.61
-174.828 822.714 57.0719
-171.592 838.65 32.7674
-135.293 829.852 32.8535
-139.344 814.018 57.1855
-171.317 839.836 29.8266
-170.126 845.404 1.14761
-133.557 836.565 1.17623
-135.019 831.038 29.9127
-170.125 845.4 -2.03493
-171.285 839.77 -30.7011
-134.99 830.974 -30.7325
-133.555 836.562 -2.00631
-171.557 838.577 -33.6395
-174.767 822.592 -57.9077
-139.288 813.896 -57.9728
-135.262 829.782 -33.6709
-175.261 820.39 -60.1532
-179.904 796.474 -76.3182
-145.739 787.933 -76.3455
-139.781 811.694 -60.2183
-180.567 793.607 -77.5314
-186.432 765.576 -83.1154
-153.841 757.344 -83.1732
-146.401 785.067 -77.5587
-187.228 762.489 -83.116
-194.397 734.827 -77.4129
-162.776 726.789 -77.4678
-154.637 754.256 -83.1738
-195.193 731.996 -76.1975
-201.47 708.607 -59.9747
-170.589 700.713 -60.0199
-163.572 723.958 -76.2524
-202.087 706.442 -57.7234
-206.251 690.808 -33.4347
-175.889 683.012 -33.4535
-171.206 698.547 -57.7685
-206.583 689.637 -30.4896
-208.033 684.169 -1.85936
-177.865 676.41 -1.83857
-176.222 681.84 -30.5084
-174.532 675.488 1.35286
-172.914 680.987 30.004
-143.064 672.052 30.0348
-144.886 666.621 1.37418
-172.543 682.154 32.9482
-167.886 697.733 57.2131
-137.463 688.606 57.2556
-142.692 673.219 32.9791
-167.197 699.884 59.4606
-160.195 723.164 75.6479
-128.927 713.763 75.6938
-136.775 690.757 59.5031
-159.3 725.972 76.8576
-151.17 753.452 82.5107
-118.847 743.717 82.5565
-128.032 716.57 76.9036
-150.236 756.502 82.5032
-142.792 784.214 76.8363
-109.067 774.079 76.8688
-117.912 746.767 82.549
-141.974 787.046 75.617
-135.997 810.77 59.4425
-101.015 800.298 59.4699
-108.249 776.911 75.6496
-135.385 812.945 57.1927
-131.334 828.779 32.8607
-95.5527 818.109 32.8949
-100.403 802.473 57.2201
-131 829.954 29.9176
-129.538 835.481 1.18114
-93.4882 824.748 1.21007
-95.2182 819.284 29.9518
-129.537 835.478 -2.0049
-130.971 829.89 -30.7311
-95.1939 819.222 -30.708
-93.4868 824.745 -1.97597
-131.303 828.709 -33.6721
-135.329 812.823 -57.974
-100.351 802.353 -57.9467
-95.5257 818.041 -33.649
-135.938 810.643 -60.2197
-141.896 786.882 -76.347
-108.168 776.745 -76.3291
-100.96 800.173 -60.1924
-142.712 784.047 -77.561
-150.152 756.324 -83.1755
-117.827 746.586 -83.177
-108.984 773.91 -77.5431
-151.087 753.274 -83.1774
-159.226 725.807 -77.4714
-127.963 716.403 -77.4742
-118.762 743.536 -83.1789
-160.122 723.002 -76.2562
-167.14 699.757 -60.0237
-136.721 690.627 -60.0241
-128.859 713.598 -76.259
-167.831 697.61 -57.7708
-172.514 682.075 -33.4558
-142.663 673.136 -33.4441
-137.411 688.48 -57.7712
-172.888 680.913 -30.5077
-174.531 675.484 -1.83787
-144.885 666.617 -1.81656
-143.037 671.975 -30.4961
-141.612 665.562 1.37707
-139.79 670.992 30.0377
-110.497 660.774 30.0614
-112.534 655.429 1.39752
-139.374 672.143 32.9833
-134.145 687.53 57.2598
-104.245 677.07 57.2943
-110.081 661.926 33.0069
-133.374 689.652 59.5085
-125.526 712.659 75.6992
-94.7149 701.85 75.745
-103.474 679.192 59.543
-124.522 715.428 76.9088
-115.337 742.574 82.5617
-83.4066 731.353 82.6038
-93.7107 704.62 76.9546
-114.267 745.577 82.5535
-105.421 772.889 76.8734
-72.1839 761.209 76.9099
-82.3368 734.356 82.5956
-104.46 775.678 75.6531
-97.2259 799.065 59.4735
-62.7861 786.976 59.4982
-71.2223 763.998 75.6896
-96.5019 801.207 57.2233
-91.6519 816.843 32.898
-56.43 804.499 32.9255
-62.0621 789.119 57.248
-91.2588 818.002 29.955
-89.5288 823.466 1.21334
-54.0417 811.04 1.24132
-56.0369 805.657 29.9825
-89.5276 823.463 -1.97298
-91.2347 817.94 -30.705
-56.0148 805.606 -30.6785
-54.0405 811.037 -1.945
-91.6251 816.776 -33.6462
-96.4504 801.088 -57.9439
-62.0116 789.016 -57.9199
-56.4053 804.442 -33.6197
-97.1712 798.941 -60.1906
-104.379 775.513 -76.3273
-71.1275 763.848 -76.3237
-62.7323 786.869 -60.1666
-105.338 772.721 -77.543
-114.181 745.396 -83.1769
-82.2526 734.156 -83.1896
-72.0868 761.056 -77.5394
-115.252 742.392 -83.1799
-124.453 715.26 -77.4752
-93.6534 704.439 -77.4877
-83.3243 731.152 -83.1926
-125.459 712.493 -76.2601
-133.321 689.521 -60.0251
-103.43 679.052 -60.0238
-94.6594 701.672 -76.2726
-134.093 687.404 -57.771
-139.345 672.06 -33.4439
-110.057 661.836 -33.428
-104.202 676.934 -57.7696
-139.764 670.915 -30.4944
-141.611 665.557 -1.81481
-112.533 655.425 -1.79435
-110.475 660.691 -30.4785
-109.325 654.226 1.40001
-107.288 659.571 30.0639
-78.5922 648.047 30.084
-80.8528 642.798 1.41911
-106.825 660.703 33.0103
-100.989 675.848 57.2977
-71.6614 664.045 57.3259
-78.1293 649.179 33.0305
-100.132 677.935 59.5475
-91.3721 700.593 75.7495
-61.0923 688.382 75.7882
-70.8042 666.131 59.5757
-90.2528 703.316 76.9592
-79.9487 730.049 82.6084
-48.5173 717.358 82.6422
-59.9731 691.105 76.9979
-78.7454 733 82.5997
-68.5925 759.853 76.9139
-35.9123 746.636 76.9455
-47.3139 720.308 82.6335
-67.4944 762.59 75.693
-59.0581 785.568 59.5016
-25.2269 771.893 59.5248
-34.8142 749.373 75.7246
-58.2262 787.672 57.2508
-52.594 803.052 32.9283
-18.001 789.081 32.9525
-24.3949 773.997 57.274
-52.1437 804.19 29.9854
-50.1484 809.573 1.24424
-15.2935 795.507 1.27005
-17.5506 790.219 30.0096
-50.1473 809.571 -1.94208
-52.1216 804.139 -30.6756
-17.5279 790.185 -30.6516
-15.2924 795.505 -1.91627
-52.5693 802.997 -33.6172
-58.1756 787.571 -57.9173
-24.3428 773.926 -57.9002
-17.9757 789.043 -33.5932
-59.0039 785.464 -60.1655
-67.399 762.444 -76.3226
-34.7172 749.264 -76.3243
-25.1711 771.818 -60.1484
-68.4953 759.7 -77.5403
-78.6611 732.799 -83.1904
-47.2552 720.085 -83.208
-35.8134 746.52 -77.542
-79.8681 729.846 -83.1943
-90.1972 703.133 -77.4895
-59.9375 690.904 -77.5051
-48.4623 717.132 -83.2119
-91.3181 700.413 -76.2737
-100.089 677.793 -60.0249
-70.7747 665.975 -60.0239
-61.0584 688.184 -76.2894
-100.947 675.711 -57.7691
-106.801 660.612 -33.4275
-78.1129 649.079 -33.4118
-71.6332 663.894 -57.7681
-107.266 659.488 -30.4767
-109.324 654.222 -1.79253
-80.8519 642.794 -1.77343
-78.5775 647.955 -30.4609
-77.7124 641.451 1.42135
-75.4518 646.699 30.0862
-47.3946 633.873 30.1046
-49.8838 628.734 1.43965
-74.9406 647.809 33.0333
-68.4727 662.675 57.3287
-39.7699 649.536 57.3524
-46.8835 634.983 33.0516
-67.5261 664.722 59.5794
-57.8143 686.972 75.7919
-28.1387 673.369 75.8232
-38.8233 651.582 59.6031
-56.5769 689.643 77.0016
-45.1211 715.896 82.646
-14.2762 701.744 82.6734
-26.9013 676.04 77.0329
-43.7851 718.786 82.6368
-32.3835 745.113 76.9488
-0.324986 730.376 76.9751
-12.9403 704.634 82.6643
-31.1548 747.793 75.7277
-21.5675 770.313 59.5279
11.5866 755.077 59.5501
0.903701 733.056 75.754
-20.6317 772.373 57.2767
-14.2377 787.457 32.9552
19.6533 771.889 32.9781
12.5224 757.137 57.2988
-13.7316 788.572 30.0123
-11.4745 793.86 1.27277
22.6716 778.182 1.29749
20.1594 773.004 30.0352
-11.4734 793.859 -1.9135
-13.7089 788.539 -30.6488
20.1795 772.982 -30.624
22.6727 778.181 -1.88878
-14.2126 787.421 -33.5908
-20.5797 772.304 -57.8979
12.5684 757.087 -57.8771
19.6759 771.864 -33.566
-21.5121 770.241 -60.1474
-31.0582 747.687 -76.3233
0.984074 732.977 -76.3157
11.636 755.024 -60.1266
-32.2871 744.999 -77.5425
-43.7289 718.564 -83.2085
-12.9173 704.407 -83.2117
-0.244832 730.289 -77.5349
-45.0689 715.668 -83.2131
-56.5441 689.44 -77.5063
-26.8905 675.829 -77.5093
-14.2573 701.512 -83.2163
-57.7823 686.773 -76.29
-67.4987 664.564 -60.0245
-38.8105 651.417 -60.0172
-28.1287 673.162 -76.2929
-68.4457 662.523 -57.7672
-74.9254 647.709 -33.411
-46.8763 634.878 -33.3944
-39.7575 649.376 -57.76
-75.4375 646.607 -30.4591
-77.7119 641.446 -1.7716
-49.8833 628.729 -1.75331
-47.3884 633.776 -30.4426
-46.817 627.244 1.44169
-44.3279 632.383 30.1067
-16.9542 618.274 30.1234
-19.6734 613.257 1.4583
-43.7678 633.469 33.0541
-36.6541 648.021 57.3548
-8.63114 633.563 57.376
-16.3941 619.359 33.0708
-35.6171 650.022 59.6062
-24.9324 671.808 75.8263
4.06827 656.831 75.8538
-7.5941 635.564 59.6273
-23.5758 674.419 77.036
-10.9508 700.124 82.6766
19.2143 684.534 82.7015
5.42485 659.442 77.0635
-9.48322 702.948 82.6671
3.13207 728.69 76.9779
34.4874 712.465 77.0006
20.6819 687.357 82.692
4.48674 731.306 75.7567
15.1696 753.328 59.5527
47.5762 736.559 59.5732
35.842 715.082 75.7793
16.205 755.339 57.3013
23.3359 770.091 32.9806
56.4518 752.958 33.0007
48.6116 738.57 57.3218
23.896 771.181 30.0377
26.4082 776.359 1.29997
59.7705 759.1 1.32112
57.0119 754.047 30.0579
26.4091 776.358 -1.88623
23.9158 771.159 -30.6214
57.0262 754.032 -30.6
59.7714 759.099 -1.86508
23.3578 770.068 -33.5637
16.2503 755.29 -57.8748
48.6449 738.533 -57.8561
56.4682 752.94 -33.5423
15.2175 753.276 -60.1251
4.56558 731.23 -76.3142
35.8996 715.022 -76.3022
47.612 736.519 -60.1064
3.20913 728.603 -77.5343
-9.46333 702.722 -83.2112
20.6726 687.138 -83.2078
34.5431 712.395 -77.5223
-10.9348 699.892 -83.2164
-23.568 674.208 -77.5093
5.4097 659.234 -77.5068
19.2011 684.307 -83.2131
-24.9246 671.601 -76.2927
-35.6063 649.857 -60.017
-7.5983 635.398 -60.0082
4.05319 656.626 -76.2902
-36.6431 647.861 -57.7589
-43.7618 633.362 -33.3933
-16.3965 619.251 -33.3779
-8.63501 633.403 -57.7501
-44.3221 632.285 -30.4408
-46.817 627.239 -1.75153
-19.6733 613.252 -1.73492
-16.9568 618.174 -30.4254
-16.6853 611.627 1.46004
-13.9661 616.644 30.1251
12.6752 601.275 30.1383
9.72667 596.392 1.47339
-13.357 617.701 33.0729
-5.59407 631.905 57.378
21.6928 616.153 57.3939
13.2843 602.333 33.086
-4.46658 633.855 59.6299
7.19579 655.122 75.8563
35.454 638.798 75.8771
22.8203 618.103 59.6458
8.67107 657.667 77.0661
22.4606 682.759 82.7041
51.8711 665.76 82.7225
36.9293 641.343 77.0869
24.0576 685.51 82.6943
37.8631 710.617 77.0029
68.4314 692.932 77.019
53.4681 668.51 82.7127
39.3401 713.166 75.7815
51.0743 734.643 59.5753
82.6569 716.369 59.5895
69.9084 695.481 75.7976
52.2055 736.602 57.3238
60.0457 750.99 33.0027
92.3127 732.32 33.0168
83.7882 718.328 57.338
60.6577 752.051 30.0599
63.4164 757.104 1.32311
95.9216 738.298 1.33834
92.9248 733.381 30.074
63.417 757.103 -1.86306
60.6718 752.036 -30.598
92.933 733.372 -30.5821
95.9222 738.297 -1.84782
60.0611 750.973 -33.5404
52.2377 736.566 -57.8542
83.8069 718.305 -57.8396
92.3223 732.31 -33.5245
51.1081 734.605 -60.1049
39.3957 713.107 -76.3007
69.9415 695.44 -76.2894
82.6774 716.343 -60.0902
37.9158 710.549 -77.5214
24.0453 685.292 -83.207
53.422 668.307 -83.2022
68.4616 692.882 -77.5102
22.4442 682.533 -83.2127
8.65282 657.46 -77.5064
36.8866 641.145 -77.5022
51.8209 665.548 -83.2079
7.17854 654.918 -76.2896
-4.47295 633.69 -60.0077
22.7984 617.943 -59.9999
35.4124 638.603 -76.2854
-5.59926 631.745 -57.749
-13.3607 617.593 -33.3768
13.2719 602.225 -33.3643
21.6721 615.997 -57.7411
-13.9691 616.544 -30.4238
-16.6857 611.621 -1.73337
9.72628 596.387 -1.72003
12.6635 601.175 -30.4114
12.6307 594.624 1.47468
15.5792 599.507 30.1396
41.4369 582.905 30.1484
38.2621 578.169 1.48423
16.2368 600.534 33.0875
24.6453 614.355 57.3954
51.1406 597.336 57.4049
42.0945 583.933 33.0962
25.8623 616.249 59.6476
38.496 636.944 75.8788
65.9487 619.302 75.8916
52.3576 599.231 59.6571
40.0886 639.416 77.0887
55.0305 663.833 82.7243
83.6178 645.455 82.7356
67.5413 621.774 77.1015
56.7544 666.505 82.7142
71.7177 690.927 77.0205
101.432 671.811 77.0294
85.3417 648.127 82.7256
73.3131 693.402 75.7989
86.0616 714.29 59.5909
116.75 694.546 59.5971
103.028 674.286 75.8079
87.2852 716.193 57.3392
95.8097 730.185 33.018
127.156 710.018 33.0246
117.974 696.449 57.3454
96.4719 731.216 30.0752
99.4687 736.132 1.33959
131.045 715.819 1.348
127.818 711.048 30.0818
99.469 736.132 -1.84648
96.4798 731.207 -30.5808
127.821 711.046 -30.5709
131.045 715.819 -1.83806
95.8182 730.176 -33.5232
87.3028 716.171 -57.8383
117.978 696.439 -57.828
127.159 710.015 -33.5133
86.08 714.267 -60.0891
73.3442 693.363 -76.2883
103.034 674.268 -76.2799
116.755 694.535 -60.0788
71.7446 690.879 -77.5093
56.705 666.303 -83.2013
85.2558 647.946 -83.196
101.434 671.783 -77.5009
54.977 663.623 -83.2074
40.0427 639.22 -77.5017
67.4724 621.592 -77.4973
83.5278 645.266 -83.2021
38.4523 636.75 -76.2849
25.8383 616.09 -59.9993
52.3199 599.079 -59.993
65.882 619.122 -76.2805
24.6234 614.199 -57.7403
16.2232 600.427 -33.3635
42.0731 583.828 -33.3542
51.1049 597.188 -57.7339
15.5671 599.407 -30.4102
12.6298 594.619 -1.71884
38.2613 578.164 -1.70929
41.417 582.808 -30.4009
41.0764 576.266 1.48515
44.2511 581.002 30.1493
69.2723 563.198 30.156
65.878 558.623 1.49199
44.9563 581.997 33.0972
54.0024 595.401 57.4059
79.6458 577.146 57.4133
69.9775 564.193 33.1039
55.3073 597.235 59.6582
68.8984 617.306 75.8928
95.4759 598.377 75.9032
80.9507 578.981 59.6656
70.6063 619.699 77.1029
86.6827 643.38 82.737
114.373 623.651 82.7515
97.1838 600.771 77.1132
88.5314 645.967 82.7267
104.622 669.652 77.0306
133.422 649.155 77.0377
116.222 626.238 82.7412
106.332 672.049 75.8086
120.054 692.309 59.5979
149.783 671.146 59.5991
135.132 651.553 75.8157
121.366 694.152 57.3459
130.548 707.721 33.0251
160.908 686.104 33.0263
151.095 672.989 57.3472
131.259 708.719 30.0823
134.486 713.489 1.34854
165.066 691.712 1.35155
161.619 687.102 30.0835
134.486 713.489 -1.83734
131.261 708.716 -30.5702
161.613 687.099 -30.5647
165.066 691.712 -1.83434
130.55 707.718 -33.5125
121.369 694.142 -57.8271
151.08 672.98 -57.8193
160.902 686.101 -33.5069
120.056 692.299 -60.0779
106.335 672.032 -76.279
135.098 651.549 -76.2713
149.768 671.137 -60.07
104.62 669.627 -77.5001
88.4415 645.789 -83.1952
116.099 626.098 -83.1889
133.382 649.143 -77.4924
86.5897 643.194 -83.2015
70.5343 619.52 -77.4968
97.0981 600.614 -77.4918
114.247 623.503 -83.1952
68.8301 617.127 -76.28
55.268 597.084 -59.9925
80.9046 578.844 -59.9874
95.3939 598.222 -76.2751
53.9659 595.254 -57.7333
44.9341 581.893 -33.3536
69.9511 564.096 -33.347
79.6024 577.014 -57.7282
44.2309 580.905 -30.4001
41.0752 576.261 -1.70843
65.8768 558.618 -1.70159
69.2479 563.108 -30.3935
68.5969 556.589 1.49273
71.9912 561.165 30.1567
96.1252 542.196 30.1635
92.5199 537.795 1.49809
72.7426 562.124 33.1048
82.4109 575.077 57.4142
107.146 555.624 57.4248
96.8765 543.156 33.1116
83.801 576.847 59.6669
98.3262 596.243 75.9044
123.962 576.068 75.9198
108.536 557.393 59.6775
100.146 598.552 77.1151
117.335 621.432 82.7534
144.039 600.4 82.7805
125.781 578.376 77.1306
119.307 623.93 82.7428
136.507 646.847 77.0393
164.319 625.035 77.0498
146.01 602.897 82.7699
138.328 649.164 75.8163
152.979 668.757 59.5997
181.686 646.227 59.6028
166.14 627.352 75.8268
154.376 670.535 57.3474
164.189 683.65 33.0265
193.499 660.632 33.0275
183.083 648.005 57.3505
164.946 684.613 30.0837
168.393 689.223 1.35173
197.909 666.028 1.35276
194.255 661.595 30.0847
168.392 689.223 -1.83397
164.939 684.61 -30.5643
194.233 661.579 -30.5599
197.908 666.027 -1.83293
164.181 683.646 -33.5062
154.359 670.525 -57.8186
183.037 647.976 -57.8103
193.475 660.616 -33.5019
152.96 668.747 -60.0692
138.29 649.159 -76.2704
166.056 627.33 -76.2612
181.638 646.198 -60.0609
136.463 646.838 -77.4916
119.18 623.793 -83.188
145.879 602.809 -83.18
164.229 625.009 -77.4824
117.208 621.288 -83.1946
100.059 598.399 -77.4911
125.697 578.255 -77.4853
143.907 600.304 -83.1865
98.2438 596.09 -76.2745
83.7544 576.713 -59.9869
108.492 557.281 -59.9827
123.882 575.947 -76.2687
82.3672 574.946 -57.7277
72.7159 562.028 -33.3465
96.8498 543.071 -33.3416
107.104 555.515 -57.7234
71.9667 561.075 -30.3929
68.5956 556.585 -1.70095
92.5186 537.79 -1.6956
96.1006 542.118 -30.388
95.138 535.635 1.49863
98.7434 540.037 30.1641
121.944 519.95 30.1677
118.134 515.731 1.50165
99.5393 540.958 33.1124
109.808 553.426 57.4256
133.591 532.827 57.4308
122.74 520.872 33.116
111.281 555.126 59.6786
126.707 573.801 75.9209
151.356 552.44 75.9278
135.063 534.527 59.6838
128.633 576.019 77.1321
146.89 598.043 82.7821
172.538 575.801 82.7929
153.282 554.658 77.139
148.98 600.448 82.7711
167.288 622.586 77.051
194.002 599.493 77.0471
174.628 578.206 82.782
169.219 624.816 75.8267
184.765 643.691 59.6027
212.361 619.816 59.5962
195.933 601.723 75.8227
186.243 645.399 57.3503
196.66 658.026 33.0272
224.835 633.632 33.0217
213.84 621.525 57.3437
197.46 658.951 30.0846
201.114 663.384 1.35264
229.487 638.804 1.35163
225.636 634.557 30.079
201.112 663.383 -1.83265
197.437 658.935 -30.5596
225.599 634.531 -30.5533
229.486 638.803 -1.83366
196.634 658.008 -33.501
186.196 645.369 -57.8095
213.771 621.477 -57.7963
224.796 633.605 -33.4947
184.714 643.659 -60.0596
169.132 624.791 -76.2598
195.834 601.665 -76.2421
212.289 619.767 -60.0464
167.198 622.56 -77.4809
148.847 600.359 -83.1786
174.525 578.131 -83.163
193.899 599.433 -77.4632
146.76 597.951 -83.1855
128.55 575.902 -77.4842
153.207 554.564 -77.4754
172.438 575.722 -83.1698
126.628 573.683 -76.2681
111.237 555.017 -59.9821
135.022 534.436 -59.9781
151.285 552.345 -76.2593
109.767 553.319 -57.7231
99.5127 540.875 -33.3412
122.713 520.798 -33.3381
133.552 532.738 -57.7191
98.7187 539.959 -30.3875
95.1367 535.631 -1.69517
118.132 515.728 -1.69214
121.919 519.881 -30.3845
120.646 513.45 1.50177
124.456 517.669 30.1678
146.674 496.509 30.1648
142.662 492.478 1.50236
125.295 518.551 33.1159
136.146 530.506 57.4306
158.931 508.815 57.4183
147.513 497.391 33.1128
137.698 532.134 59.6831
153.991 550.046 75.9271
177.618 527.561 75.9006
160.483 510.443 59.6707
156.019 552.172 77.1374
175.276 573.314 82.7913
199.877 549.907 82.7412
179.646 529.686 77.1109
177.475 575.619 82.7788
196.849 596.907 77.0439
222.405 572.527 76.9705
202.077 552.212 82.7286
198.884 599.041 75.8185
215.312 617.133 59.5919
241.684 591.912 59.5194
224.44 574.661 75.7451
216.869 618.767 57.3402
227.864 630.875 33.0181
254.776 605.093 32.9734
243.24 593.546 57.2677
228.706 631.759 30.0775
232.558 636.006 1.35012
259.659 610.028 1.34733
255.618 605.977 30.0329
232.556 636.005 -1.83252
228.669 631.733 -30.5522
255.579 605.953 -30.5131
259.657 610.027 -1.83532
227.824 630.846 -33.4912
216.799 618.719 -57.7928
243.169 593.499 -57.7247
254.734 605.066 -33.4521
215.239 617.083 -60.0416
198.784 598.981 -76.2373
224.347 574.595 -76.1641
241.61 591.863 -59.9735
196.748 596.845 -77.4588
177.374 575.543 -83.1586
201.984 552.133 -83.1061
222.311 572.46 -77.3855
175.176 573.237 -83.1669
155.946 552.079 -77.4725
179.573 529.599 -77.4459
199.786 549.827 -83.1145
153.92 549.953 -76.2579
137.657 532.045 -59.9768
160.439 510.36 -59.9661
177.547 527.474 -76.2313
136.107 530.418 -57.7186
125.268 518.478 -33.3376
147.482 497.322 -33.3343
158.89 508.733 -57.7079
124.431 517.6 -30.3842
120.644 513.447 -1.69189
142.661 492.474 -1.6913
146.645 496.444 -30.3809
145.062 490.08 1.5022
149.074 494.111 30.1646
170.253 471.916 30.1613
166.049 468.081 1.50234
149.955 494.952 33.112
161.373 506.376 57.4174
183.095 483.623 57.4057
171.135 472.758 33.1087
163.002 507.928 59.6687
180.137 525.046 75.8985
202.666 501.455 75.8735
184.723 485.175 59.657
182.265 527.073 77.1068
202.496 547.293 82.7371
225.983 522.704 82.6869
204.794 503.482 77.0818
204.801 549.489 82.7218
225.13 569.804 76.9636
249.537 544.179 76.8928
228.287 524.899 82.6716
227.261 571.834 75.7372
244.505 589.086 59.5115
269.692 562.579 59.4456
251.668 546.21 75.6663
246.134 590.64 57.2614
257.67 602.187 32.9672
283.376 575.089 32.9274
271.322 564.133 57.1955
258.552 603.028 30.0304
262.593 607.079 1.34486
288.48 579.775 1.34432
284.257 575.93 29.9906
262.59 607.078 -1.83323
258.513 603.004 -30.511
284.219 575.907 -30.4722
288.478 579.773 -1.83378
257.628 602.16 -33.4462
246.063 590.593 -57.7188
271.252 564.086 -57.653
283.334 575.064 -33.4074
244.431 589.036 -59.9657
227.168 571.769 -76.1563
251.581 546.142 -76.0859
269.62 562.529 -59.8999
225.036 569.737 -77.3786
204.709 549.41 -83.0992
228.2 524.819 -83.0488
249.449 544.11 -77.3083
202.405 547.214 -83.1103
182.192 526.986 -77.4416
204.721 503.396 -77.4167
225.896 522.622 -83.0599
180.066 524.959 -76.2294
162.958 507.846 -59.9642
184.677 485.095 -59.9547
202.595 501.369 -76.2044
161.331 506.295 -57.7072
149.924 494.884 -33.3336
171.099 472.69 -33.3311
183.05 483.544 -57.6978
149.045 494.047 -30.3808
145.06 490.076 -1.69114
166.047 468.078 -1.69099
170.22 471.853 -30.3782
168.331 465.571 1.50229
172.536 469.406 30.1612
192.622 446.216 30.1615
188.237 442.588 1.50334
173.457 470.204 33.1082
185.417 481.07 57.4053
206.014 457.291 57.4035
193.543 447.014 33.1085
187.118 482.542 59.6558
205.061 498.822 75.8723
226.421 474.158 75.8669
207.715 458.762 59.654
207.284 500.743 77.0792
228.473 519.965 82.6843
250.733 494.255 82.6736
228.644 476.08 77.0738
230.88 522.046 82.6676
252.13 541.326 76.8888
275.29 514.565 76.8779
253.14 496.335 82.6569
254.354 543.249 75.6621
272.378 559.619 59.4413
296.304 531.967 59.4353
277.514 516.489 75.6511
274.08 561.091 57.1923
286.133 572.047 32.9243
310.571 543.801 32.922
298.005 533.44 57.1863
287.053 572.844 29.9895
291.276 576.688 1.34319
315.893 548.233 1.34521
311.49 544.598 29.9872
291.274 576.687 -1.83249
287.015 572.82 -30.4709
311.454 544.575 -30.4646
315.891 548.232 -1.83047
286.092 572.021 -33.404
274.01 561.044 -57.6496
297.939 533.392 -57.6395
310.53 543.776 -33.3977
272.307 559.569 -59.8955
254.267 543.182 -76.0815
277.431 516.42 -76.0676
296.235 531.918 -59.8854
252.042 541.257 -77.3042
230.793 521.965 -83.0447
253.056 496.253 -83.0314
275.206 514.495 -77.2903
228.386 519.884 -83.0572
207.212 500.657 -77.414
228.572 475.994 -77.4068
250.649 494.172 -83.0439
204.99 498.736 -76.2032
187.072 482.461 -59.9535
207.667 458.682 -59.9517
226.351 474.072 -76.196
185.371 480.99 -57.6974
173.421 470.137 -33.3307
193.504 446.947 -33.3298
205.967 457.211 -57.6956
172.502 469.343 -30.3781
168.329 465.567 -1.69088
188.235 442.584 -1.68984
192.585 446.153 -30.3773
190.396 439.97 1.50351
194.781 443.599 30.1617
213.726 419.46 30.1638
209.17 416.047 1.50604
195.74 444.351 33.1086
208.21 454.628 57.4035
227.636 429.874 57.4039
214.685 420.212 33.1107
209.981 456.016 59.6537
228.686 471.411 75.8667
248.831 445.737 75.8651
229.407 431.262 59.6541
230.999 473.223 77.0733
253.087 491.398 82.6731
274.08 464.638 82.6713
251.145 447.549 77.0717
255.592 493.36 82.6563
277.742 511.59 76.8772
299.586 483.743 76.8776
276.585 466.599 82.6545
280.056 513.404 75.6508
298.846 528.883 59.4349
321.415 500.112 59.4376
301.9 485.557 75.6511
300.616 530.271 57.1862
313.181 540.633 32.922
336.235 511.245 32.926
323.185 501.501 57.1889
314.139 541.384 29.9875
318.541 545.019 1.34544
341.766 515.415 1.35014
337.192 511.997 29.9915
318.539 545.018 -1.82996
314.102 541.361 -30.4641
337.157 511.973 -30.4589
341.764 515.414 -1.82526
313.141 540.607 -33.3969
300.55 530.224 -57.6387
323.121 501.453 -57.6327
336.197 511.219 -33.3917
298.777 528.833 -59.8844
279.974 513.335 -76.0666
301.821 485.487 -76.0596
321.348 500.062 -59.8784
277.659 511.52 -77.2891
255.508 493.278 -83.0302
276.504 466.516 -83.0223
299.506 483.672 -77.2821
253.004 491.315 -83.0429
230.928 473.137 -77.4059
251.074 447.462 -77.3994
274 464.553 -83.035
228.616 471.325 -76.1955
209.932 455.935 -59.9512
229.358 431.181 -59.9483
248.763 445.65 -76.1891
208.163 454.548 -57.6954
195.7 444.284 -33.3296
214.642 420.145 -33.3273
227.588 429.794 -57.6924
194.744 443.536 -30.3771
190.394 439.967 -1.68966
209.168 416.043 -1.68713
213.686 419.397 -30.3748
211.2 413.327 1.50637
215.756 416.74 30.1641
233.518 391.704 30.1675
228.802 388.514 1.51055
216.75 417.445 33.1109
229.701 427.107 57.4041
247.914 401.436 57.4052
234.512 392.41 33.1143
231.537 428.408 59.6541
250.961 442.883 75.865
269.848 416.259 75.8642
249.75 402.736 59.6552
253.359 444.581 77.0715
276.295 461.67 82.6712
295.973 433.924 82.6711
272.245 417.958 77.0707
278.891 463.509 82.6546
301.891 480.653 76.8776
322.367 451.784 76.8806
298.569 435.763 82.6545
304.29 482.353 75.6514
323.805 496.909 59.4379
344.961 467.083 59.4433
324.766 453.485 75.6544
325.64 498.21 57.1894
338.691 507.955 32.9265
360.303 477.488 32.9333
346.796 468.385 57.1948
339.683 508.659 29.9922
344.257 512.077 1.35077
366.03 481.386 1.358
361.295 478.193 29.9989
344.255 512.076 -1.82457
339.648 508.636 -30.4582
361.262 478.17 -30.4508
366.028 481.385 -1.81733
338.652 507.929 -33.3909
325.576 498.162 -57.632
346.735 468.337 -57.624
360.266 477.463 -33.3835
323.739 496.858 -59.8775
304.212 482.284 -76.0587
324.691 453.414 -76.0498
344.898 467.033 -59.8696
301.812 480.581 -77.2812
278.81 463.426 -83.0213
298.492 435.679 -83.011
322.291 451.712 -77.2722
276.214 461.586 -83.034
253.289 444.494 -77.3985
272.177 417.87 -77.3892
295.897 433.839 -83.0237
250.893 442.796 -76.1884
231.488 428.327 -59.9475
249.701 402.656 -59.9417
269.781 416.172 -76.1791
229.653 427.027 -57.692
216.708 417.379 -33.3269
234.467 392.343 -33.3225
247.866 401.356 -57.6861
215.716 416.677 -30.3744
211.198 413.324 -1.68676
228.8 388.511 -1.68258
233.476 391.642 -30.3701
230.699 385.699 1.51104
235.415 388.888 30.168
251.954 363.011 30.1727
247.089 360.051 1.51682
236.441 389.545 33.1145
249.844 398.571 57.4055
266.803 372.04 57.4071
252.981 363.668 33.1192
251.74 399.782 59.6552
271.838 413.305 75.8642
289.423 385.794 75.8632
268.699 373.251 59.6568
274.314 414.886 77.0707
298.042 430.853 82.6711
316.363 402.188 82.6708
291.899 387.376 77.0696
300.723 432.565 82.6547
324.521 448.586 76.8808
343.582 418.765 76.8845
319.044 403.901 82.6544
326.999 450.169 75.6549
347.194 463.768 59.4438
366.889 432.958 59.4509
346.06 420.348 75.6586
349.09 464.98 57.1956
362.597 474.083 32.934
382.719 442.61 32.9429
368.785 434.17 57.2026
363.622 474.739 29.9998
368.357 477.932 1.35889
388.63 446.225 1.36851
383.744 443.265 30.0087
368.355 477.931 -1.81637
363.589 474.716 -30.4498
383.713 443.242 -30.4398
388.628 446.224 -1.80674
362.56 474.058 -33.3825
349.03 464.932 -57.623
368.728 434.122 -57.6123
382.684 442.584 -33.3725
347.132 463.718 -59.8685
326.925 450.099 -76.0487
345.99 420.278 -76.0362
366.83 432.908 -59.8578
324.446 448.514 -77.271
300.647 432.481 -83.0097
318.971 403.817 -82.995
343.511 418.693 -77.2584
297.966 430.768 -83.0223
274.247 414.799 -77.3878
291.834 387.289 -77.3744
316.29 402.103 -83.0076
271.772 413.218 -76.178
251.691 399.702 -59.9406
268.651 373.171 -59.9315
289.359 385.708 -76.1646
249.796 398.492 -57.6853
236.397 389.479 -33.3218
252.935 363.603 -33.3153
266.756 371.961 -57.6763
235.373 388.826 -30.3695
230.697 385.695 -1.68199
247.087 360.048 -1.67621
251.911 362.95 -30.363
248.849 357.146 1.51745
253.714 360.105 30.1733
268.996 333.443 30.1792
263.993 330.719 1.52463
254.771 360.712 33.1195
268.594 369.084 57.4075
284.263 341.754 57.4094
270.053 334.05 33.1254
270.546 370.203 59.6568
291.269 382.746 75.8632
307.514 354.414 75.8612
286.215 342.873 59.6587
293.818 384.208 77.0695
318.282 399.02 82.6706
335.204 369.506 82.6692
310.063 355.875 77.0675
321.042 400.603 82.6546
345.58 415.467 76.8846
363.185 384.766 76.8884
337.964 371.089 82.6532
348.132 416.93 75.6592
368.961 429.54 59.4515
387.153 397.82 59.4599
365.736 386.229 75.663
370.913 430.659 57.2035
384.847 439.098 32.9438
403.436 406.691 32.9547
389.106 398.938 57.2119
385.903 439.703 30.0098
390.789 442.663 1.36964
409.518 410.014 1.38161
404.492 407.296 30.0207
390.787 442.662 -1.80549
385.872 439.68 -30.4385
404.463 407.273 -30.4259
409.516 410.013 -1.79352
384.813 439.073 -33.3711
370.856 430.61 -57.611
389.053 398.891 -57.5971
403.404 406.666 -33.3585
368.902 429.489 -59.8563
348.061 416.859 -76.0347
365.671 386.159 -76.0181
387.098 397.77 -59.8424
345.509 415.395 -77.2567
320.969 400.519 -82.9933
337.896 371.005 -82.9736
363.119 384.694 -77.2401
318.21 398.935 -83.0058
293.754 384.121 -77.3726
310.002 355.789 -77.3545
335.136 369.422 -82.9861
291.206 382.66 -76.1631
270.498 370.123 -59.93
286.169 342.794 -59.9178
307.454 354.328 -76.145
268.547 369.006 -57.6752
254.725 360.648 -33.3143
270.006 333.988 -33.306
284.217 341.676 -57.663
253.671 360.045 -30.3622
248.847 357.142 -1.67542
263.991 330.716 -1.66824
268.951 333.385 -30.354
265.612 327.729 1.52539
270.615 330.454 30.18
284.607 303.064 30.1868
279.478 300.579 1.53381
271.7 331.01 33.1258
285.91 338.713 57.4097
300.256 310.644 57.4113
285.692 303.62 33.1326
287.913 339.738 59.6585
309.212 351.28 75.8611
324.083 322.192 75.8571
302.259 311.67 59.6601
311.828 352.618 77.0672
336.969 366.249 82.6689
352.456 335.958 82.6654
326.699 323.531 77.0633
339.801 367.699 82.6532
365.022 381.376 76.8885
381.133 349.872 76.8916
355.288 337.408 82.6497
367.641 382.715 75.6637
389.058 394.306 59.4605
405.709 361.751 59.4696
383.752 351.211 75.6667
391.063 395.329 57.213
405.393 403.081 32.9558
422.41 369.816 32.9682
407.714 362.774 57.2221
406.478 403.634 30.022
411.504 406.352 1.38296
428.651 372.836 1.39693
423.495 370.369 30.0345
411.502 406.351 -1.79201
406.449 403.611 -30.4244
423.469 370.346 -30.4095
428.649 372.835 -1.77805
405.361 403.056 -33.3568
391.01 395.281 -57.5954
407.666 362.727 -57.5787
422.381 369.791 -33.3419
389.003 394.256 -59.8405
367.576 382.645 -76.0162
383.692 351.142 -75.9954
405.659 361.702 -59.8238
364.956 381.305 -77.2379
339.733 367.615 -82.9713
355.226 337.325 -82.9463
381.072 349.801 -77.2171
336.901 366.165 -82.9837
311.767 352.532 -77.3521
326.642 323.447 -77.329
352.394 335.875 -82.9587
309.153 351.194 -76.143
287.867 339.66 -59.9158
302.215 311.593 -59.9004
324.027 322.108 -76.1199
285.864 338.636 -57.6616
271.653 330.947 -33.3047
285.645 303.56 -33.2948
300.213 310.569 -57.6462
270.57 330.395 -30.353
265.61 327.726 -1.66727
279.476 300.576 -1.65884
284.562 303.008 -30.3432
280.953 297.512 1.53466
286.081 299.997 30.1877
298.754 271.936 30.1953
293.512 269.692 1.54413
287.192 300.502 33.133
301.756 307.526 57.4117
314.75 278.78 57.4122
299.865 272.441 33.1406
303.806 308.456 59.6598
325.63 318.978 75.8567
339.096 289.204 75.8495
316.8 279.71 59.6603
328.306 320.193 77.0626
354.063 332.62 82.6648
368.084 301.626 82.6584
341.772 290.418 77.0554
356.961 333.934 82.6496
382.806 346.398 76.8914
397.39 314.168 76.8929
370.982 302.94 82.6432
385.487 347.61 75.6673
407.443 358.151 59.4702
422.521 324.838 59.4796
400.071 315.38 75.6688
409.496 359.074 57.2232
424.192 366.116 32.9694
439.604 332.07 32.9833
424.574 325.761 57.2327
425.303 366.615 30.036
430.459 369.083 1.39846
445.989 334.778 1.41427
440.715 332.568 30.0499
430.458 369.082 -1.77631
425.277 366.593 -30.4078
440.692 332.547 -30.3908
445.988 334.777 -1.76049
424.164 366.092 -33.34
409.449 359.027 -57.5768
424.531 325.716 -57.557
439.578 332.046 -33.323
407.394 358.102 -59.8214
385.427 347.541 -75.993
400.017 315.312 -75.9675
422.476 324.79 -59.8017
382.746 346.328 -77.2142
356.899 333.852 -82.9435
370.925 302.86 -82.9126
397.336 314.099 -77.1887
354.001 332.537 -82.9556
328.25 320.109 -77.3259
341.72 290.337 -77.2967
368.027 301.545 -82.9248
325.575 318.894 -76.1174
303.762 308.38 -59.8979
316.759 279.637 -59.8788
339.045 289.123 -76.0882
301.713 307.451 -57.6446
287.145 300.442 -33.2932
299.818 272.384 -33.2818
314.709 278.708 -57.6255
286.037 299.941 -30.342
280.951 297.509 -1.6577
293.509 269.689 -1.64824
298.709 271.883 -30.3307
294.839 266.553 1.54505
300.082 268.797 30.1962
311.41 240.119 30.2043
306.065 238.117 1.55535
301.215 269.25 33.1408
316.1 275.589 57.4124
327.715 246.227 57.4111
312.544 240.572 33.1489
318.192 276.424 59.6595
340.488 285.918 75.8488
352.523 255.527 75.8366
329.807 247.062 59.6582
343.218 287.007 77.0543
369.53 298.215 82.6574
382.056 266.598 82.6477
355.253 256.617 77.0422
372.486 299.392 82.6428
398.895 310.62 76.8925
411.925 277.745 76.8912
385.012 267.775 82.6332
401.632 311.701 75.6692
424.081 321.159 59.4801
437.556 287.167 59.4896
414.662 278.827 75.668
426.178 321.981 57.234
441.208 328.289 32.9846
454.985 293.538 32.9999
439.653 287.988 57.2435
442.343 328.732 30.0517
447.617 330.942 1.41599
461.501 295.926 1.43347
456.12 293.981 30.0669
447.616 330.941 -1.75855
442.32 328.71 -30.3888
456.1 293.96 -30.37
461.499 295.925 -1.74107
441.183 328.265 -33.3207
426.135 321.935 -57.5547
439.615 287.944 -57.532
454.963 293.515 -33.3018
424.037 321.112 -59.7988
401.578 311.634 -75.9646
414.614 278.761 -75.9337
437.517 287.121 -59.7761
398.841 310.551 -77.1853
372.43 299.312 -82.9092
384.962 267.698 -82.8727
411.877 277.678 -77.1543
369.474 298.134 -82.9211
343.167 286.926 -77.293
355.207 256.538 -77.2564
382.006 266.52 -82.8845
340.438 285.837 -76.085
318.151 276.351 -59.8756
329.77 246.993 -59.8524
352.477 255.45 -76.0485
316.06 275.518 -57.6234
301.168 269.194 -33.2798
312.497 240.519 -33.267
327.678 246.159 -57.6003
300.037 268.744 -30.3294
294.837 266.551 -1.64695
306.062 238.114 -1.63664
311.366 240.07 -30.3166
307.242 234.912 1.55631
312.588 236.915 30.2053
322.551 207.672 30.2138
317.114 205.909 1.56717
313.741 237.316 33.149
328.913 242.971 57.4112
339.13 213.053 57.408
323.705 208.074 33.1576
331.042 243.711 59.657
353.757 252.177 75.8354
364.339 221.242 75.8181
341.258 213.792 59.6539
356.535 253.141 77.0407
383.338 263.122 82.6463
394.346 230.968 82.6342
367.117 222.206 77.0233
386.347 264.161 82.6325
413.259 274.131 76.8905
424.713 240.695 76.8867
397.355 232.008 82.6204
416.046 275.079 75.6682
438.94 283.419 59.4898
450.79 248.824 59.4991
427.499 241.643 75.6644
441.076 284.134 57.2448
456.408 289.684 33.0012
468.525 254.306 33.0172
452.926 249.539 57.254
457.564 290.07 30.0688
462.945 292.015 1.43532
475.155 256.366 1.45386
469.681 254.692 30.0849
462.944 292.014 -1.73896
457.544 290.049 -30.3678
469.664 254.674 -30.3478
475.154 256.365 -1.72043
456.386 289.662 -33.2993
441.039 284.091 -57.5295
452.894 249.498 -57.5048
468.507 254.286 -33.2792
438.902 283.373 -59.7728
415.999 275.014 -75.9304
427.459 241.58 -75.8954
450.758 248.781 -59.7481
413.212 274.064 -77.1504
386.297 264.084 -82.8687
397.312 231.934 -82.8283
424.672 240.63 -77.1154
383.288 263.044 -82.8801
356.489 253.063 -77.252
367.077 222.133 -77.2088
394.303 230.894 -82.8397
353.713 252.099 -76.0446
331.005 243.642 -59.8486
341.225 213.729 -59.8221
364.3 221.169 -76.0015
328.876 242.904 -57.5979
313.695 237.264 -33.2647
323.66 208.026 -33.2512
339.097 212.99 -57.5714
312.543 236.866 -30.3152
307.24 234.91 -1.63523
317.112 205.906 -1.62437
322.508 207.628 -30.3017
318.14 202.644 1.56815
323.577 204.407 30.2148
332.162 174.648 30.2238
326.647 173.12 1.57928
324.748 204.758 33.1576
340.173 209.737 57.408
348.975 179.318 57.4051
333.334 174.999 33.1666
342.333 210.384 59.6524
365.414 217.833 75.8166
374.525 186.427 75.7992
351.135 179.965 59.6495
368.232 218.675 77.0217
395.461 227.437 82.6325
404.929 194.836 82.6223
377.343 187.268 77.0043
398.516 228.337 82.6196
425.874 237.025 76.8859
435.742 203.112 76.8841
407.984 195.736 82.6094
428.705 237.835 75.6647
451.996 245.016 59.4994
462.205 209.895 59.5126
438.572 203.922 75.6629
454.165 245.622 57.2555
469.764 250.389 33.0187
480.198 214.461 33.0364
464.375 210.501 57.2687
470.938 250.715 30.0868
476.413 252.389 1.45584
486.924 216.185 1.47497
481.373 214.788 30.1046
476.412 252.388 -1.71827
470.922 250.697 -30.3456
481.36 214.772 -30.3261
486.924 216.185 -1.69914
469.746 250.369 -33.2767
454.134 245.581 -57.5023
464.35 210.463 -57.4807
480.185 214.444 -33.2572
451.964 244.973 -59.7447
428.666 237.773 -75.892
438.541 203.862 -75.8582
462.18 209.855 -59.7231
425.835 236.96 -77.1112
398.474 228.264 -82.8241
407.95 195.666 -82.7843
435.71 203.05 -77.0774
395.419 227.364 -82.8349
368.193 218.602 -77.2041
377.311 187.201 -77.1598
404.895 194.766 -82.7952
365.376 217.761 -75.9972
342.301 210.321 -59.8178
351.108 179.909 -59.7904
374.493 186.36 -75.953
340.141 209.676 -57.5688
324.704 204.712 -33.2486
333.291 174.959 -33.2347
348.948 179.264 -57.5415
323.534 204.363 -30.3002
318.138 202.642 -1.62287
326.645 173.118 -1.61174
332.121 174.611 -30.2863
327.521 169.8 1.58013
333.036 171.328 30.2246
340.245 141.099 30.2288
334.666 139.8 1.59125
334.222 171.63 33.1661
349.864 175.949 57.4047
357.252 145.086 57.3935
341.431 141.4 33.1703
352.05 176.506 59.6474
375.439 182.968 75.7971
383.077 151.166 75.7694
359.438 145.642 59.6362
378.29 183.691 77.0019
405.877 191.259 82.6199
413.8 158.316 82.5961
385.929 151.889 76.9743
408.971 192.02 82.6082
436.729 199.396 76.8829
444.98 165.091 76.8775
416.895 159.077 82.5844
439.597 200.063 75.6631
463.23 206.036 59.5128
471.766 170.457 59.5261
447.849 165.758 75.6577
465.427 206.527 57.2703
481.251 210.488 33.038
489.961 174.083 33.0531
473.963 170.949 57.2836
482.44 210.754 30.1066
487.992 212.152 1.47697
496.759 175.467 1.49602
491.15 174.349 30.1216
487.991 212.151 -1.69694
482.428 210.738 -30.3239
491.142 174.337 -30.302
496.759 175.467 -1.67789
481.238 210.471 -33.2548
465.404 206.49 -57.4783
473.947 170.916 -57.457
489.952 174.07 -33.2329
463.206 205.996 -59.7196
439.567 200.003 -75.8547
447.827 165.701 -75.8172
471.749 170.422 -59.6983
436.698 199.334 -77.0727
408.938 191.951 -82.7797
416.871 159.013 -82.726
444.958 165.032 -77.0353
405.844 191.189 -82.7896
378.259 183.624 -77.1543
385.906 151.829 -77.0989
413.777 158.251 -82.7359
375.409 182.902 -75.9479
352.024 176.451 -59.7854
359.419 145.597 -59.7487
383.055 151.107 -75.8925
349.837 175.896 -57.5383
334.18 171.591 -33.2316
341.393 141.371 -33.2124
357.232 145.042 -57.5016
332.995 171.292 -30.2846
327.519 169.798 -1.61004
334.663 139.799 -1.59892
340.208 141.072 -30.2654
335.391 136.432 1.59106
340.971 137.73 30.2286
346.872 107.089 30.2007
341.251 106.015 1.6017
342.168 137.985 33.1669
357.988 141.67 57.3902
364.008 110.428 57.3245
348.07 107.343 33.1391
360.193 142.142 59.6302
383.833 147.665 75.7634
390.013 115.555 75.6747
366.213 110.9 59.5645
386.708 148.276 76.9675
414.58 154.704 82.5893
420.948 121.526 82.493
392.888 116.166 76.8788
417.705 155.326 82.5797
445.791 161.339 76.8728
452.377 126.691 76.8357
424.072 122.147 82.4833
448.687 161.855 75.6562
472.604 166.554 59.5246
479.378 130.574 59.5079
455.273 127.207 75.6191
474.821 166.927 57.2837
490.819 170.062 33.0532
497.687 133.242 33.044
481.595 130.948 57.267
492.018 170.266 30.1229
497.627 171.384 1.49724
504.527 134.284 1.51457
498.886 133.446 30.1137
497.627 171.384 -1.67511
492.01 170.254 -30.2992
498.886 133.44 -30.2565
504.526 134.283 -1.65779
490.811 170.049 -33.2292
474.806 166.894 -57.4532
481.59 130.92 -57.4049
497.686 133.234 -33.1865
472.588 166.519 -59.6932
448.666 161.798 -75.8121
455.263 127.153 -75.7446
479.372 130.544 -59.6449
445.769 161.281 -77.0272
417.683 155.261 -82.7179
424.061 122.088 -82.5926
452.366 126.636 -76.9597
414.558 154.64 -82.726
386.687 148.218 -77.0889
392.878 116.116 -76.9729
420.936 121.466 -82.6007
383.812 147.608 -75.8836
360.175 142.098 -59.7398
366.204 110.87 -59.6479
390.002 115.506 -75.7675
357.969 141.627 -57.4956
342.13 137.957 -33.2063
348.039 107.33 -33.1552
363.998 110.4 -57.4037
340.934 137.704 -30.2626
335.389 136.431 -1.59616
341.249 106.014 -1.58552
346.842 107.077 -30.2115
341.858 102.611 1.59529
347.479 103.685 30.1943
352.515 72.7948 29.9809
346.921 71.939 1.60331
348.678 103.895 33.119
364.616 106.98 57.3045
369.586 75.5263 56.9153
353.714 73.0049 32.9056
366.824 107.374 59.5349
390.624 112.029 75.6451
395.498 79.7829 75.1492
371.793 75.9197 59.1457
393.504 112.535 76.8453
421.563 117.895 82.4595
426.338 84.6128 81.9398
398.378 80.2895 76.3494
424.697 118.37 82.4543
453.002 122.914 76.8067
457.703 87.9424 76.4289
429.472 85.0884 81.9346
455.902 123.266 75.5981
480.007 126.633 59.4869
484.588 90.2662 59.1673
460.603 88.2944 75.2203
482.227 126.884 57.2524
498.318 129.178 33.0294
502.828 91.9608 32.843
486.807 90.5166 56.9327
499.518 129.32 30.109
505.159 130.158 1.50982
509.649 92.6587 1.51462
504.027 92.1027 29.9226
505.159 130.158 -1.65037
499.518 129.314 -30.2491
504.029 92.1022 -30.0447
509.649 92.6586 -1.64556
498.318 129.171 -33.1684
482.222 126.857 -57.3869
486.82 90.4968 -57.0266
502.83 91.9594 -32.9641
480.003 126.604 -59.62
455.893 123.213 -75.7197
460.61 88.2456 -75.3035
484.6 90.2435 -59.2598
452.993 122.859 -76.9271
424.687 118.311 -82.5601
429.477 85.0359 -82.0092
457.71 87.892 -76.5109
421.553 117.836 -82.564
393.494 112.486 -76.9363
398.382 80.2504 -76.4138
426.343 84.5607 -82.0131
390.614 111.981 -75.7349
366.816 107.344 -59.6153
371.8 75.9071 -59.1987
395.502 79.7456 -75.2125
364.608 106.953 -57.381
348.648 103.883 -33.1325
353.696 73.0122 -32.8986
369.591 75.5158 -56.9645
347.449 103.674 -30.2028
341.856 102.611 -1.5768
346.92 71.939 -1.56879
352.498 72.803 -29.9689
347.599 68.5705 1.56008
353.193 69.4263 29.9377
360.281 39.252 28.645
354.954 38.4856 1.56337
354.358 69.6042 32.7841
370.23 72.1256 56.7938
376.564 41.6808 54.4277
361.447 39.43 31.4915
372.38 72.4599 58.9694
396.085 76.323 74.9729
401.322 45.3899 71.9329
378.714 42.0151 56.6033
398.892 76.7489 76.1474
426.852 81.0722 81.7378
430.832 49.5706 78.5088
404.129 45.8158 73.1074
429.891 81.4597 81.7412
458.122 84.3137 76.2355
460.689 52.9897 73.1513
433.871 49.9581 78.5122
460.95 84.5941 75.0623
484.934 86.5659 59.0093
486.254 55.5053 56.5986
463.517 53.2701 71.9782
487.104 86.7647 56.8266
503.124 88.2089 32.7369
503.647 57.222 31.422
488.423 55.7041 54.4159
504.298 88.3215 29.8849
509.919 88.8775 1.47693
510.165 57.868 1.47951
504.821 57.3346 28.57
509.919 88.8765 -1.60708
504.3 88.32 -30.0063
504.815 57.2931 -28.6739
510.165 57.867 -1.6045
503.127 88.2059 -32.8546
487.117 86.7434 -56.9172
488.444 55.6552 -54.4649
503.642 57.179 -31.5223
484.949 86.543 -59.0972
460.959 84.5451 -75.141
463.536 53.2293 -72.023
486.275 55.4548 -56.645
458.13 84.2642 -76.3138
429.897 81.4081 -81.8121
433.888 49.9203 -78.5556
460.707 52.9485 -73.1958
426.858 81.0214 -81.8082
398.897 76.7111 -76.2089
404.142 45.7938 -73.1484
430.848 49.5336 -78.5517
396.09 76.2878 -75.0339
372.388 72.4493 -59.0201
378.723 42.0339 -56.6416
401.335 45.3705 -71.9733
370.236 72.1176 -56.841
354.341 69.6139 -32.7751
361.427 39.4642 -31.4753
376.571 41.7022 -54.4625
353.175 69.4357 -29.9242
347.598 68.5716 -1.52406
354.953 38.4867 -1.52077
360.261 39.286 -28.6244
355.805 35.1891 1.47866
361.133 35.9556 28.5603
369.115 6.57473 26.7881
364.12 5.90593 1.47534
362.234 36.1131 31.2505
377.351 38.3639 54.1867
384.386 8.71182 50.9093
370.217 6.73228 29.4783
379.384 38.6572 56.2436
401.992 42.0321 71.5732
407.601 11.9432 67.2702
386.418 9.00515 52.9662
404.645 42.4042 72.685
431.349 46.159 78.0863
435.241 15.6278 73.3952
410.255 12.3153 68.382
434.221 46.5217 78.0867
461.039 49.5533 72.7258
463.134 18.9524 68.3583
438.114 15.9905 73.3955
463.7 49.8473 71.6122
486.436 52.0825 56.2327
486.982 21.5941 52.8873
465.795 19.2463 67.2447
488.476 52.2962 54.1707
503.7 53.814 31.1767
503.181 23.3766 29.3713
489.022 21.8077 50.8253
504.804 53.9292 28.4848
510.148 54.4626 1.39431
509.249 24.0121 1.41999
504.285 23.4918 26.6794
510.147 54.4595 -1.51586
504.797 53.8856 -28.5853
504.278 23.4191 -26.7337
509.248 24.0089 -1.49018
503.694 53.7672 -31.2733
488.496 52.2434 -54.2159
489.037 21.737 -50.8416
503.175 23.3006 -29.4216
486.458 52.0313 -56.2756
463.718 49.8058 -71.6536
465.81 19.2172 -67.2657
486.999 21.525 -52.9013
461.058 49.5134 -72.7675
434.238 46.4852 -78.1273
438.127 15.9677 -73.4166
463.15 18.9248 -68.3796
431.365 46.1236 -78.1269
404.659 42.3838 -72.7235
410.266 12.3064 -68.4029
435.254 15.606 -73.4162
402.005 42.015 -71.6119
379.393 38.6784 -56.2801
386.417 9.05115 -52.9916
407.611 11.9377 -67.2912
377.358 38.3884 -54.2208
362.214 36.1504 -31.2336
370.19 6.79496 -29.4645
384.382 8.76121 -50.9322
361.112 35.991 -28.5396
355.804 35.1917 -1.43592
364.118 5.9085 -1.43925
369.088 6.63548 -26.7704
365.141 2.91518 1.3461
370.137 3.58398 26.6589
380.266 -21.1827 23.7814
375.843 -21.8042 1.32968
371.144 3.72337 29.1142
385.313 5.70291 50.5452
393.872 -19.2843 45.2671
381.273 -21.0433 26.2368
387.174 5.95879 52.4221
408.357 8.89683 66.7261
414.617 -16.5018 59.8132
395.733 -19.0284 47.1439
410.784 9.22282 67.7375
435.77 12.5353 72.7507
439.281 -13.2289 65.2147
417.044 -16.1758 60.8245
438.393 12.8731 72.7473
463.414 15.8349 67.7101
464.087 -9.9619 60.6861
441.904 -12.8912 65.2113
465.838 16.1332 66.6933
487.026 18.4809 52.3359
485.272 -7.19046 46.9496
466.511 -9.66369 59.6693
488.882 18.7056 50.4581
503.041 20.2745 29.0041
499.641 -5.31786 26.1082
487.129 -6.96569 45.0718
504.046 20.3948 26.5534
509.01 20.915 1.29392
505.035 -4.61996 1.32471
500.646 -5.19759 23.6574
509.01 20.9129 -1.35722
504.04 20.323 -26.6007
500.645 -5.20058 -23.659
505.035 -4.62211 -1.32642
503.035 20.2005 -29.0509
488.897 18.6369 -50.4708
487.129 -6.97088 -45.073
499.641 -5.32307 -26.1092
487.041 18.4139 -52.3483
465.852 16.1062 -66.7127
466.511 -9.66685 -59.6703
485.272 -7.19384 -46.9504
463.428 15.8093 -67.7293
438.406 12.8522 -72.7663
441.904 -12.893 -65.2122
464.087 -9.96375 -60.6869
435.783 12.515 -72.7696
410.794 9.21539 -67.7563
417.045 -16.1769 -60.8254
439.281 -13.2302 -65.2155
408.366 8.89118 -66.7448
387.171 6.00469 -52.4451
395.732 -19.0274 -47.1447
414.616 -16.5011 -59.8138
385.31 5.75125 -50.5676
371.117 3.785 -29.0999
381.272 -21.0398 -26.2369
393.871 -19.2809 -45.2672
370.111 3.64401 -26.6438
365.141 2.91703 -1.3127
375.843 -21.8023 -1.32913
380.265 -21.1808 -23.7809
-303.011 727.396 25.3922
-304.225 722.382 -0.367876
-302.96 727.339 -26.1358
-299.426 741.5 -47.9591
-294.181 762.69 -62.5026
-288.135 787.683 -67.5869
-282.406 812.755 -62.5207
-277.783 834.135 -48.0346
-274.748 848.48 -26.2524
-273.698 853.546 -0.498383
-274.79 848.546 25.2662
-277.841 834.246 47.0751
-282.47 812.896 61.6014
-288.202 787.834 66.7175
-294.242 762.831 61.6828
-299.489 741.609 47.1862
382.635 -22.3863 1.76393e-05
387.057 -21.7648 22.4517
399.656 -20.0058 41.4821
418.54 -17.4792 54.1513
440.777 -14.5323 58.5415
462.96 -11.603 54.0162
481.721 -9.1298 41.2965
494.234 -7.48197 22.3329
498.623 -6.90434 0.000247942
494.233 -7.48281 -22.3323
481.721 -9.13061 -41.2962
462.96 -11.6036 -54.016
440.777 -14.5328 -58.5413
418.54 -17.4795 -54.1511
399.656 -20.0059 -41.482
387.057 -21.7648 -22.4517
</DataArray>
</Points>
<Cells>
<DataArray type="Int32" Name="connectivity" format="ascii">
0 1 2 3 
4 5 6 7 
8 9 10 11 
12 13 14 15 
16 17 18 19 
20 21 22 23 
24 25 26 27 
28 29 30 31 
32 33 34 35 
36 37 38 39 
40 41 42 43 
44 45 46 47 
48 49 50 51 
52 53 54 55 
56 57 58 59 
60 61 62 63 
64 65 66 67 
68 69 70 71 
72 73 74 75 
76 77 78 79 
80 81 82 83 
84 85 86 87 
88 89 90 91 
92 93 94 95 
96 97 98 99 
100 101 102 103 
104 105 106 107 
108 109 110 111 
112 113 114 115 
116 117 118 119 
120 121 122 123 
124 125 126 127 
128 129 130 131 
132 133 134 135 
136 137 138 139 
140 141 142 143 
144 145 146 147 
148 149 150 151 
152 153 154 155 
156 157 158 159 
160 161 162 163 
164 165 166 167 
168 169 170 171 
172 173 174 175 
176 177 178 179 
180 181 182 183 
184 185 186 187 
188 189 190 191 
192 193 194 195 
196 197 198 199 
200 201 202 203 
204 205 206 207 
208 209 210 211 
212 213 214 215 
216 217 218 219 
220 221 222 223 
224 225 226 227 
228 229 230 231 
232 233 234 235 
236 237 238 239 
240 241 242 243 
244 245 246 247 
248 249 250 251 
252 253 254 255 
256 257 258 259 
260 261 262 263 
264 265 266 267 
268 269 270 271 
272 273 274 275 
276 277 278 279 
280 281 282 283 
284 285 286 287 
288 289 290 291 
292 293 294 295 
296 297 298 299 
300 301 302 303 
304 305 306 307 
308 309 310 311 
312 313 314 315 
316 317 318 319 
320 321 322 323 
324 325 326 327 
328 329 330 331 
332 333 334 335 
336 337 338 339 
340 341 342 343 
344 345 346 347 
348 349 350 351 
352 353 354 355 
356 357 358 359 
360 361 362 363 
364 365 366 367 
368 369 370 371 
372 373 374 375 
376 377 378 379 
380 381 382 383 
384 385 386 387 
388 389 390 391 
392 393 394 395 
396 397 398 399 
400 401 402 403 
404 405 406 407 
408 409 410 411 
412 413 414 415 
416 417 418 419 
420 421 422 423 
424 425 426 427 
428 429 430 431 
432 433 434 435 
436 437 438 439 
440 441 442 443 
444 445 446 447 
448 449 450 451 
452 453 454 455 
456 457 458 459 
460 461 462 463 
464 465 466 467 
468 469 470 471 
472 473 474 475 
476 477 478 479 
480 481 482 483 
484 485 486 487 
488 489 490 491 
492 493 494 495 
496 497 498 499 
500 501 502 503 
504 505 506 507 
508 509 510 511 
512 513 514 515 
516 517 518 519 
520 521 522 523 
524 525 526 527 
528 529 530 531 
532 533 534 535 
536 537 538 539 
540 541 542 543 
544 545 546 547 
548 549 550 551 
552 553 554 555 
556 557 558 559 
560 561 562 563 
564 565 566 567 
568 569 570 571 
572 573 574 575 
576 577 578 579 
580 581 582 583 
584 585 586 587 
588 589 590 591 
592 593 594 595 
596 597 598 599 
600 601 602 603 
604 605 606 607 
608 609 610 611 
612 613 614 615 
616 617 618 619 
620 621 622 623 
624 625 626 627 
628 629 630 631 
632 633 634 635 
636 637 638 639 
640 641 642 643 
644 645 646 647 
648 649 650 651 
652 653 654 655 
656 657 658 659 
660 661 662 663 
664 665 666 667 
668 669 670 671 
672 673 674 675 
676 677 678 679 
680 681 682 683 
684 685 686 687 
688 689 690 691 
692 693 694 695 
696 697 698 699 
700 701 702 703 
704 705 706 707 
708 709 710 711 
712 713 714 715 
716 717 718 719 
720 721 722 723 
724 725 726 727 
728 729 730 731 
732 733 734 735 
736 737 738 739 
740 741 742 743 
744 745 746 747 
748 749 750 751 
752 753 754 755 
756 757 758 759 
760 761 762 763 
764 765 766 767 
768 769 770 771 
772 773 774 775 
776 777 778 779 
780 781 782 783 
784 785 786 787 
788 789 790 791 
792 793 794 795 
796 797 798 799 
800 801 802 803 
804 805 806 807 
808 809 810 811 
812 813 814 815 
816 817 818 819 
820 821 822 823 
824 825 826 827 
828 829 830 831 
832 833 834 835 
836 837 838 839 
840 841 842 843 
844 845 846 847 
848 849 850 851 
852 853 854 855 
856 857 858 859 
860 861 862 863 
864 865 866 867 
868 869 870 871 
872 873 874 875 
876 877 878 879 
880 881 882 883 
884 885 886 887 
888 889 890 891 
892 893 894 895 
896 897 898 899 
900 901 902 903 
904 905 906 907 
908 909 910 911 
912 913 914 915 
916 917 918 919 
920 921 922 923 
924 925 926 927 
928 929 930 931 
932 933 934 935 
936 937 938 939 
940 941 942 943 
944 945 946 947 
948 949 950 951 
952 953 954 955 
956 957 958 959 
960 961 962 963 
964 965 966 967 
968 969 970 971 
972 973 974 975 
976 977 978 979 
980 981 982 983 
984 985 986 987 
988 989 990 991 
992 993 994 995 
996 997 998 999 
1000 1001 1002 1003 
1004 1005 1006 1007 
1008 1009 1010 1011 
1012 1013 1014 1015 
1016 1017 1018 1019 
1020 1021 1022 1023 
1024 1025 1026 1027 
1028 1029 1030 1031 
1032 1033 1034 1035 
1036 1037 1038 1039 
1040 1041 1042 1043 
1044 1045 1046 1047 
1048 1049 1050 1051 
1052 1053 1054 1055 
1056 1057 1058 1059 
1060 1061 1062 1063 
1064 1065 1066 1067 
1068 1069 1070 1071 
1072 1073 1074 1075 
1076 1077 1078 1079 
1080 1081 1082 1083 
1084 1085 1086 1087 
1088 1089 1090 1091 
1092 1093 1094 1095 
1096 1097 1098 1099 
1100 1101 1102 1103 
1104 1105 1106 1107 
1108 1109 1110 1111 
1112 1113 1114 1115 
1116 1117 1118 1119 
1120 1121 1122 1123 
1124 1125 1126 1127 
1128 1129 1130 1131 
1132 1133 1134 1135 
1136 1137 1138 1139 
1140 1141 1142 1143 
1144 1145 1146 1147 
1148 1149 1150 1151 
1152 1153 1154 1155 
1156 1157 1158 1159 
1160 1161 1162 1163 
1164 1165 1166 1167 
1168 1169 1170 1171 
1172 1173 1174 1175 
1176 1177 1178 1179 
1180 1181 1182 1183 
1184 1185 1186 1187 
1188 1189 1190 1191 
1192 1193 1194 1195 
1196 1197 1198 1199 
1200 1201 1202 1203 
1204 1205 1206 1207 
1208 1209 1210 1211 
1212 1213 1214 1215 
1216 1217 1218 1219 
1220 1221 1222 1223 
1224 1225 1226 1227 
1228 1229 1230 1231 
1232 1233 1234 1235 
1236 1237 1238 1239 
1240 1241 1242 1243 
1244 1245 1246 1247 
1248 1249 1250 1251 
1252 1253 1254 1255 
1256 1257 1258 1259 
1260 1261 1262 1263 
1264 1265 1266 1267 
1268 1269 1270 1271 
1272 1273 1274 1275 
1276 1277 1278 1279 
1280 1281 1282 1283 
1284 1285 1286 1287 
1288 1289 1290 1291 
1292 1293 1294 1295 
1296 1297 1298 1299 
1300 1301 1302 1303 
1304 1305 1306 1307 
1308 1309 1310 1311 
1312 1313 1314 1315 
1316 1317 1318 1319 
1320 1321 1322 1323 
1324 1325 1326 1327 
1328 1329 1330 1331 
1332 1333 1334 1335 
1336 1337 1338 1339 
1340 1341 1342 1343 
1344 1345 1346 1347 
1348 1349 1350 1351 
1352 1353 1354 1355 
1356 1357 1358 1359 
1360 1361 1362 1363 
1364 1365 1366 1367 
1368 1369 1370 1371 
1372 1373 1374 1375 
1376 1377 1378 1379 
1380 1381 1382 1383 
1384 1385 1386 1387 
1388 1389 1390 1391 
1392 1393 1394 1395 
1396 1397 1398 1399 
1400 1401 1402 1403 
1404 1405 1406 1407 
1408 1409 1410 1411 
1412 1413 1414 1415 
1416 1417 1418 1419 
1420 1421 1422 1423 
1424 1425 1426 1427 
1428 1429 1430 1431 
1432 1433 1434 1435 
1436 1437 1438 1439 
1440 1441 1442 1443 
1444 1445 1446 1447 
1448 1449 1450 1451 
1452 1453 1454 1455 
1456 1457 1458 1459 
1460 1461 1462 1463 
1464 1465 1466 1467 
1468 1469 1470 1471 
1472 1473 1474 1475 
1476 1477 1478 1479 
1480 1481 1482 1483 
1484 1485 1486 1487 
1488 1489 1490 1491 
1492 1493 1494 1495 
1496 1497 1498 1499 
1500 1501 1502 1503 
1504 1505 1506 1507 
1508 1509 1510 1511 
1512 1513 1514 1515 
1516 1517 1518 1519 
1520 1521 1522 1523 
1524 1525 1526 1527 
1528 1529 1530 1531 
1532 1533 1534 1535 
1536 1537 1538 1539 
1540 1541 1542 1543 
1544 1545 1546 1547 
1548 1549 1550 1551 
1552 1553 1554 1555 
1556 1557 1558 1559 
1560 1561 1562 1563 
1564 1565 1566 1567 
1568 1569 1570 1571 
1572 1573 1574 1575 
1576 1577 1578 1579 
1580 1581 1582 1583 
1584 1585 1586 1587 
1588 1589 1590 1591 
1592 1593 1594 1595 
1596 1597 1598 1599 
1600 1601 1602 1603 
1604 1605 1606 1607 
1608 1609 1610 1611 
1612 1613 1614 1615 
1616 1617 1618 1619 
1620 1621 1622 1623 
1624 1625 1626 1627 
1628 1629 1630 1631 
1632 1633 1634 1635 
1636 1637 1638 1639 
1640 1641 1642 1643 
1644 1645 1646 1647 
1648 1649 1650 1651 
1652 1653 1654 1655 
1656 1657 1658 1659 
1660 1661 1662 1663 
1664 1665 1666 1667 
1668 1669 1670 1671 
1672 1673 1674 1675 
1676 1677 1678 1679 
1680 1681 1682 1683 
1684 1685 1686 1687 
1688 1689 1690 1691 
1692 1693 1694 1695 
1696 1697 1698 1699 
1700 1701 1702 1703 
1704 1705 1706 1707 
1708 1709 1710 1711 
1712 1713 1714 1715 
1716 1717 1718 1719 
1720 1721 1722 1723 
1724 1725 1726 1727 
1728 1729 1730 1731 
1732 1733 1734 1735 
1736 1737 1738 1739 
1740 1741 1742 1743 
1744 1745 1746 1747 
1748 1749 1750 1751 
1752 1753 1754 1755 
1756 1757 1758 1759 
1760 1761 1762 1763 
1764 1765 1766 1767 
1768 1769 1770 1771 
1772 1773 1774 1775 
1776 1777 1778 1779 
1780 1781 1782 1783 
1784 1785 1786 1787 
1788 1789 1790 1791 
1792 1793 1794 1795 
1796 1797 1798 1799 
1800 1801 1802 1803 
1804 1805 1806 1807 
1808 1809 1810 1811 
1812 1813 1814 1815 
1816 1817 1818 1819 
1820 1821 1822 1823 
1824 1825 1826 1827 
1828 1829 1830 1831 
1832 1833 1834 1835 
1836 1837 1838 1839 
1840 1841 1842 1843 
1844 1845 1846 1847 
1848 1849 1850 1851 
1852 1853 1854 1855 
1856 1857 1858 1859 
1860 1861 1862 1863 
1864 1865 1866 1867 
1868 1869 1870 1871 
1872 1873 1874 1875 
1876 1877 1878 1879 
1880 1881 1882 1883 
1884 1885 1886 1887 
1888 1889 1890 1891 
1892 1893 1894 1895 
1896 1897 1898 1899 
1900 1901 1902 1903 
1904 1905 1906 1907 
1908 1909 1910 1911 
1912 1913 1914 1915 
1916 1917 1918 1919 
1920 1921 1922 1923 
1924 1925 1926 1927 
1928 1929 1930 1931 
1932 1933 1934 1935 
1936 1937 1938 1939 
1940 1941 1942 1943 
1944 1945 1946 1947 
1948 1949 1950 1951 
1952 1953 1954 1955 
1956 1957 1958 1959 
1960 1961 1962 1963 
1964 1965 1966 1967 
1968 1969 1970 1971 
1972 1973 1974 1975 
1976 1977 1978 1979 
1980 1981 1982 1983 
1984 1985 1986 1987 
1988 1989 1990 1991 
1992 1993 1994 1995 
1996 1997 1998 1999 
2000 2001 2002 2003 
2004 2005 2006 2007 
2008 2009 2010 2011 
2012 2013 2014 2015 
2016 2017 2018 2019 
2020 2021 2022 2023 
2024 2025 2026 2027 
2028 2029 2030 2031 
2032 2033 2034 2035 
2036 2037 2038 2039 
2040 2041 2042 2043 
2044 2045 2046 2047 
2048 2049 2050 2051 2052 2053 2054 2055 2056 2057 2058 2059 2060 2061 2062 2063 
2064 2065 2066 2067 2068 2069 2070 2071 2072 2073 2074 2075 2076 2077 2078 2079 
</DataArray>
<DataArray type="Int32" Name="offsets" format="ascii">
4 8 12 16 20 24 28 32 36 40 44 48 52 56 60 64 68 72 76 80 84 88 92 96 100 104 108 112 116 120 124 128 132 136 140 144 148 152 156 160 164 168 172 176 180 184 188 192 196 200 204 208 212 216 220 224 228 232 236 240 244 248 252 256 260 264 268 272 276 280 284 288 292 296 300 304 308 312 316 320 324 328 332 336 340 344 348 352 356 360 364 368 372 376 380 384 388 392 396 400 404 408 412 416 420 424 428 432 436 440 444 448 452 456 460 464 468 472 476 480 484 488 492 496 500 504 508 512 516 520 524 528 532 536 540 544 548 552 556 560 564 568 572 576 580 584 588 592 596 600 604 608 612 616 620 624 628 632 636 640 644 648 652 656 660 664 668 672 676 680 684 688 692 696 700 704 708 712 716 720 724 728 732 736 740 744 748 752 756 760 764 768 772 776 780 784 788 792 796 800 804 808 812 816 820 824 828 832 836 840 844 848 852 856 860 864 868 872 876 880 884 888 892 896 900 904 908 912 916 920 924 928 932 936 940 944 948 952 956 960 964 968 972 976 980 984 988 992 996 1000 1004 1008 1012 1016 1020 1024 1028 1032 1036 1040 1044 1048 1052 1056 1060 1064 1068 1072 1076 1080 1084 1088 1092 1096 1100 1104 1108 1112 1116 1120 1124 1128 1132 1136 1140 1144 1148 1152 1156 1160 1164 1168 1172 1176 1180 1184 1188 1192 1196 1200 1204 1208 1212 1216 1220 1224 1228 1232 1236 1240 1244 1248 1252 1256 1260 1264 1268 1272 1276 1280 1284 1288 1292 1296 1300 1304 1308 1312 1316 1320 1324 1328 1332 1336 1340 1344 1348 1352 1356 1360 1364 1368 1372 1376 1380 1384 1388 1392 1396 1400 1404 1408 1412 1416 1420 1424 1428 1432 1436 1440 1444 1448 1452 1456 1460 1464 1468 1472 1476 1480 1484 1488 1492 1496 1500 1504 1508 1512 1516 1520 1524 1528 1532 1536 1540 1544 1548 1552 1556 1560 1564 1568 1572 1576 1580 1584 1588 1592 1596 1600 1604 1608 1612 1616 1620 1624 1628 1632 1636 1640 1644 1648 1652 1656 1660 1664 1668 1672 1676 1680 1684 1688 1692 1696 1700 1704 1708 1712 1716 1720 1724 1728 1732 1736 1740 1744 1748 1752 1756 1760 1764 1768 1772 1776 1780 1784 1788 1792 1796 1800 1804 1808 1812 1816 1820 1824 1828 1832 1836 1840 1844 1848 1852 1856 1860 1864 1868 1872 1876 1880 1884 1888 1892 1896 1900 1904 1908 1912 1916 1920 1924 1928 1932 1936 1940 1944 1948 1952 1956 1960 1964 1968 1972 1976 1980 1984 1988 1992 1996 2000 2004 2008 2012 2016 2020 2024 2028 2032 2036 2040 2044 2048 2064 2080 
</DataArray>
<DataArray type="UInt8" Name="types" format="ascii">
7 7 7 7 7 7 7 7 7 7 7 7 7 7 7 7 7 7 7 7 7 7 7 7 7 7 7 7 7 7 7 7 7 7 7 7 7 7 7 7 7 7 7 7 7 7 7 7 7 7 7 7 7 7 7 7 7 7 7 7 7 7 7 7 7 7 7 7 7 7 7 7 7 7 7 7 7 7 7 7 7 7 7 7 7 7 7 7 7 7 7 7 7 7 7 7 7 7 7 7 7 7 7 7 7 7 7 7 7 7 7 7 7 7 7 7 7 7 7 7 7 7 7 7 7 7 7 7 7 7 7 7 7 7 7 7 7 7 7 7 7 7 7 7 7 7 7 7 7 7 7 7 7 7 7 7 7 7 7 7 7 7 7 7 7 7 7 7 7 7 7 7 7 7 7 7 7 7 7 7 7 7 7 7 7 7 7 7 7 7 7 7 7 7 7 7 7 7 7 7 7 7 7 7 7 7 7 7 7 7 7 7 7 7 7 7 7 7 7 7 7 7 7 7 7 7 7 7 7 7 7 7 7 7 7 7 7 7 7 7 7 7 7 7 7 7 7 7 7 7 7 7 7 7 7 7 7 7 7 7 7 7 7 7 7 7 7 7 7 7 7 7 7 7 7 7 7 7 7 7 7 7 7 7 7 7 7 7 7 7 7 7 7 7 7 7 7 7 7 7 7 7 7 7 7 7 7 7 7 7 7 7 7 7 7 7 7 7 7 7 7 7 7 7 7 7 7 7 7 7 7 7 7 7 7 7 7 7 7 7 7 7 7 7 7 7 7 7 7 7 7 7 7 7 7 7 7 7 7 7 7 7 7 7 7 7 7 7 7 7 7 7 7 7 7 7 7 7 7 7 7 7 7 7 7 7 7 7 7 7 7 7 7 7 7 7 7 7 7 7 7 7 7 7 7 7 7 7 7 7 7 7 7 7 7 7 7 7 7 7 7 7 7 7 7 7 7 7 7 7 7 7 7 7 7 7 7 7 7 7 7 7 7 7 7 7 7 7 7 7 7 7 7 7 7 7 7 7 7 7 7 7 7 7 7 7 7 7 7 7 7 7 7 7 7 7 7 7 7 7 7 7 7 7 7 7 7 7 7 7 7 7 7 7 7 7 7 7 7 7 7 7 7 7 7 7 7 7 7 7 7 7 7 7 
</DataArray>
</Cells>
<CellData Scalars="cell variable 4" Vectors="cell vector">
<DataArray type="Float64" NumberOfComponents="3" Name="cell vector" format="ascii">
0.136819 0.14913 0.979306
0.395149 0.406823 0.823621
0.545242 0.615434 0.569168
0.471828 0.849505 0.236051
-0.0756316 0.968094 -0.238902
-0.132839 0.807812 -0.574276
0.0709648 -0.546399 0.834513
0.021838 -0.193368 0.980883
-0.0100987 0.192914 0.981164
-0.0669416 0.546306 0.834906
-0.132985 0.807524 0.574648
-0.0773504 0.967794 0.239564
0.46673 0.852413 -0.2357
0.535442 0.622599 -0.570677
-0.370231 -0.421457 0.82783
-0.144281 -0.145289 0.978812
0.0659632 0.184486 0.980619
0.1881 0.52419 0.830568
0.268336 0.787087 0.555419
0.260816 0.94528 0.196014
0.1538 0.968555 -0.195569
0.127786 0.821289 -0.556017
-0.0930313 -0.548245 0.831127
-0.0329127 -0.192716 0.980702
0.036069 0.192174 0.980698
0.0943809 0.548018 0.831125
0.127636 0.82128 0.556065
0.152513 0.968734 0.195691
0.257931 0.946073 -0.196001
0.26551 0.787851 -0.555694
-0.186046 -0.52452 0.830822
-0.0672693 -0.183897 0.980641
0.0644035 0.185145 0.980599
0.183547 0.526124 0.830364
0.267583 0.788141 0.554286
0.262537 0.94502 0.194964
0.126085 0.973126 -0.192687
0.139996 0.820326 -0.554497
-0.102837 -0.546998 0.830794
-0.0367718 -0.192119 0.980682
0.0385587 0.191858 0.980665
0.104475 0.546686 0.830794
0.141152 0.820078 0.55457
0.125407 0.973206 0.192726
0.259902 0.945724 -0.195082
0.265713 0.78865 -0.554462
-0.182098 -0.526328 0.830553
-0.0645711 -0.18473 0.980666
0.066119 0.184518 0.980602
0.190069 0.523877 0.830317
0.284936 0.782483 0.553653
0.311062 0.930363 0.194075
-0.535633 0.833734 -0.134105
0.957874 -0.285347 0.032476
0.969702 -0.243993 0.0120626
0.971725 -0.236099 0.00286355
0.971729 -0.236064 -0.00396876
0.969771 -0.243677 -0.0128406
0.958156 -0.284331 -0.0330539
-0.528202 0.838139 0.136108
0.307216 0.931599 -0.194274
0.283147 0.783045 -0.553777
-0.188859 -0.524048 0.830485
-0.0661779 -0.183979 0.9807
0.0682881 0.183392 0.980665
0.196192 0.520894 0.83077
0.295965 0.778054 0.554109
0.347007 0.917605 0.193873
-0.456907 0.878479 -0.139683
0.940582 -0.337803 0.0345577
0.955446 -0.294899 0.0125522
0.958098 -0.28643 0.00255818
0.958069 -0.286505 -0.00417987
0.955515 -0.29464 -0.0133676
0.941549 -0.335167 -0.0338994
-0.44064 0.886271 0.14269
0.34144 0.919648 -0.194077
0.294117 0.778713 -0.554167
-0.195527 -0.520917 0.830912
-0.0686274 -0.182677 0.980775
0.0723772 0.181258 0.980769
0.207898 0.515235 0.831451
0.314458 0.770173 0.554932
0.37669 0.905787 0.194049
-0.437706 0.888622 -0.136981
0.926718 -0.374527 0.030393
0.94072 -0.338967 0.012117
0.943496 -0.331375 0.00245062
0.943406 -0.331611 -0.00429591
0.940596 -0.339271 -0.0132163
0.927902 -0.371696 -0.0289968
-0.518724 0.845888 0.124088
0.370845 0.908183 -0.194105
0.313422 0.770648 -0.554859
-0.207767 -0.515144 0.83154
-0.0729002 -0.180499 0.98087
0.0778864 0.178382 0.980874
0.223636 0.507518 0.832113
0.338052 0.75945 0.555838
0.405833 0.893057 0.194291
0.0427252 0.982133 -0.183271
0.912658 -0.408004 0.0242522
0.924328 -0.38144 0.0110507
0.927033 -0.374972 0.00240242
0.926883 -0.375327 -0.00419875
0.923967 -0.382274 -0.0123135
0.913761 -0.405629 -0.0224986
0.774804 -0.629487 -0.058519
0.401405 0.895107 -0.194054
0.337791 0.759792 -0.55553
-0.223889 -0.507468 0.832075
-0.0785715 -0.177703 0.980943
0.0840977 0.175062 0.980959
0.241851 0.498237 0.832627
0.365885 0.745912 0.556546
0.44011 0.876638 0.194446
0.301859 0.933646 -0.192838
0.89621 -0.443231 0.018807
0.905736 -0.423727 0.00992963
0.908455 -0.417977 0.00224531
0.908319 -0.418258 -0.0040233
0.905538 -0.424127 -0.0108349
0.898088 -0.439514 -0.0162942
0.871892 -0.489423 -0.016452
0.433444 0.880056 -0.193979
0.364866 0.746788 -0.55604
-0.242259 -0.498312 0.832464
-0.0851788 -0.174359 0.980991
0.0909498 0.171283 0.981015
0.261491 0.487635 0.832967
0.39508 0.730513 0.557012
0.47393 0.858804 0.194538
0.390343 0.900006 -0.193964
0.878308 -0.477904 0.0135227
0.885324 -0.464898 0.00843454
0.887834 -0.460158 0.00212764
0.887743 -0.460326 -0.00348904
0.885311 -0.464916 -0.00887262
0.880186 -0.474493 -0.0113367
0.878574 -0.477585 -0.00444933
0.466047 0.863244 -0.193933
0.393555 0.731782 -0.556426
-0.261855 -0.487805 0.832754
-0.092146 -0.17056 0.981029
0.0982077 0.167022 0.98105
0.281778 0.475791 0.833201
0.424891 0.713335 0.557334
0.507126 0.839616 0.194599
0.467542 0.862285 -0.194598
0.858185 -0.513255 0.00943027
0.863083 -0.505017 0.00680638
0.865212 -0.501401 0.00203202
0.865156 -0.501495 -0.00269634
0.863086 -0.50501 -0.006911
0.859383 -0.511269 -0.00801166
0.865288 -0.501275 -0.000322594
0.501663 0.843053 -0.193897
0.423843 0.714434 -0.556724
-0.282063 -0.476005 0.832983
-0.0991033 -0.16641 0.981064
0.105632 0.162295 0.981072
0.302323 0.462707 0.833369
0.455144 0.694232 0.557571
0.540727 0.818373 0.194627
0.54606 0.81478 -0.194813
0.835522 -0.549417 0.00660166
0.838883 -0.544285 0.00537756
0.840611 -0.541636 0.00194383
0.840594 -0.541663 -0.00185948
0.838864 -0.544316 -0.00518648
0.835974 -0.548738 -0.0058026
0.843098 -0.537759 0.000825089
0.539207 0.819555 -0.193873
0.454984 0.694842 -0.556942
-0.302552 -0.462945 0.833153
-0.10604 -0.161911 0.981091
0.113056 0.157137 0.981084
0.3228 0.448464 0.833475
0.485387 0.673306 0.557727
0.575303 0.794445 0.194634
0.62738 0.754058 -0.194399
0.810503 -0.585716 0.00461895
0.812752 -0.582594 0.00422053
0.814103 -0.580717 0.00193464
0.814138 -0.580671 -0.00096989
0.812687 -0.582689 -0.0037354
0.809806 -0.586679 -0.00475594
0.817116 -0.576472 0.00125247
0.577587 0.792981 -0.19384
0.486276 0.673191 -0.557091
-0.322967 -0.448734 0.833265
-0.112917 -0.157075 0.98111
0.120335 0.151636 0.981084
0.343007 0.433117 0.83352
0.515323 0.650623 0.557792
0.609672 0.768387 0.194631
0.952152 0.261767 -0.157748
0.78344 -0.62146 0.00302246
0.784767 -0.619783 0.00320472
0.785759 -0.618529 0.00198863
0.78589 -0.618367 8.42836e-05
0.784769 -0.619784 -0.00217744
0.780875 -0.624669 -0.00476354
0.788112 -0.61553 0.00123465
0.616875 0.762827 -0.193805
0.516848 0.649952 -0.557163
-0.342914 -0.43357 0.833323
-0.11969 -0.151873 0.981126
0.127349 0.145914 0.981066
0.362949 0.416569 0.83351
0.544983 0.626013 0.557765
0.642919 0.740817 0.194539
0.769765 -0.638313 -0.00420861
0.754455 -0.65635 0.00138923
0.754852 -0.655892 0.00204422
0.75551 -0.655135 0.00166627
0.755862 -0.65473 0.000876553
0.755774 -0.654832 2.50843e-05
0.752772 -0.658274 -0.00292907
0.758974 -0.651119 0.00137551
0.650615 0.734224 -0.193946
0.545111 0.626346 -0.557266
-0.36243 -0.417201 0.833419
-0.126588 -0.145957 0.981159
0.134278 0.139838 0.981027
0.382642 0.39883 0.833378
0.574934 0.59888 0.557489
0.678174 0.708826 0.194027
0.741026 -0.671447 -0.0063033
0.722028 -0.691864 -0.000492087
0.721597 -0.692313 0.000633237
0.721868 -0.69203 0.00116459
0.722251 -0.691629 0.00150406
0.722626 -0.691237 0.00160601
0.720461 -0.693495 -0.000783445
0.741921 -0.670449 0.00718604
0.684843 0.702422 -0.193889
0.574957 0.599081 -0.557249
-0.382007 -0.399209 0.833489
-0.133322 -0.139586 0.981194
0.140986 0.133403 0.980983
0.401391 0.380456 0.83315
0.602776 0.571313 0.557012
0.710534 0.676627 0.193176
-0.692304 0.721604 0.00174211
-0.688582 0.725159 0.000659472
-0.68799 0.72572 -0.000339854
-0.688001 0.725709 -0.00110407
-0.68816 0.725557 -0.00151795
-0.68799 0.72572 -0.0011859
-0.68559 0.727988 0.000596705
-0.695114 0.718889 -0.0039072
0.717713 0.668985 -0.193255
0.604264 0.569846 -0.556902
-0.401072 -0.380313 0.833369
-0.139816 -0.133057 0.981197
0.147034 0.126867 0.980962
0.418716 0.361615 0.833014
0.62824 0.543491 0.556715
0.740146 0.644248 0.192688
-0.649495 0.760364 -0.00164915
-0.65435 0.756191 -0.000398606
-0.654221 0.756303 -0.000607539
-0.654163 0.756353 -0.000953095
-0.654229 0.756296 -0.00102762
-0.654088 0.756418 -0.000648142
-0.652832 0.757502 0.00022702
-0.651802 0.758389 -0.000452539
0.743505 0.640344 -0.192767
0.629472 0.542167 -0.556615
-0.418749 -0.361072 0.833232
-0.146174 -0.126142 0.981184
0.152637 0.120071 0.980961
0.435067 0.341833 0.832987
0.653088 0.513453 0.556635
0.770663 0.607435 0.192619
-0.612757 0.79027 -0.00170873
-0.617485 0.786583 -0.000341325
-0.617436 0.786621 -0.000119716
-0.617173 0.786827 -0.000559324
-0.617203 0.786804 -0.00104485
-0.617343 0.786693 -0.00112319
-0.616834 0.787093 -0.000542531
-0.614233 0.789125 -0.000111612
0.772063 0.605648 -0.192641
0.653805 0.512644 -0.556539
-0.435221 -0.341137 0.833192
-0.152086 -0.119016 0.981175
0.158015 0.112895 0.980962
0.450644 0.321073 0.832966
0.676653 0.482024 0.55659
0.798782 0.569948 0.192629
-0.574607 0.818428 -0.00152904
-0.579442 0.815014 0.000144656
-0.579148 0.815222 0.000491038
-0.578618 0.815599 -0.000197835
-0.578632 0.815588 -0.00120617
-0.579107 0.81525 -0.00174583
-0.579189 0.815192 -0.00129261
-0.574884 0.818235 8.88444e-05
0.799194 0.569376 -0.192613
0.677031 0.48162 -0.556481
-0.450825 -0.320333 0.833153
-0.157628 -0.111648 0.981167
0.163125 0.105415 0.980958
0.465255 0.299633 0.832921
0.698557 0.44977 0.556529
0.824519 0.53203 0.192643
-0.534794 0.844981 -0.0013911
-0.540529 0.841325 0.000966443
-0.539681 0.841869 0.00126557
-0.538776 0.842449 0.00014971
-0.538786 0.842441 -0.00144866
-0.539668 0.841874 -0.00249323
-0.540405 0.841402 -0.00214221
-0.533897 0.845549 0.000309601
0.824462 0.532136 -0.192599
0.698767 0.449605 -0.556399
-0.465428 -0.298898 0.833089
-0.162773 -0.104117 0.981155
0.167892 0.0977518 0.980947
0.478752 0.277805 0.832839
0.71865 0.417055 0.556423
0.847954 0.493823 0.192646
-0.493665 0.869651 -0.00127065
-0.501016 0.865435 0.00218532
-0.499228 0.866467 0.002296
-0.497785 0.8673 0.000526693
-0.497798 0.867291 -0.00176582
-0.499224 0.866466 -0.00346803
-0.500864 0.86552 -0.00326544
-0.491759 0.870731 0.000496498
0.847765 0.494174 -0.192578
0.718794 0.417013 -0.556269
-0.478895 -0.277111 0.832988
-0.167493 -0.0965063 0.981138
0.172258 0.0900448 0.980928
0.491044 0.255883 0.832706
0.736859 0.384217 0.556252
0.869129 0.45553 0.192634
-0.45202 0.892007 -0.00101319
-0.461233 0.88727 0.0039364
-0.457963 0.888963 0.00366753
-0.455776 0.890094 0.00100639
-0.455788 0.890086 -0.00214628
-0.457964 0.888958 -0.00475145
-0.461091 0.887339 -0.00493111
-0.449387 0.893337 0.000486449
0.868789 0.456216 -0.192545
0.736935 0.38433 -0.556074
-0.491165 -0.255217 0.832839
-0.171801 -0.0888665 0.981115
0.176207 0.0824043 0.980898
0.502076 0.23422 0.832503
0.75307 0.351795 0.555991
0.887975 0.417612 0.192614
-0.411999 0.911184 -0.000185646
-0.421693 0.906716 0.00647579
-0.416042 0.909329 0.00541695
-0.412864 0.910791 0.00156666
-0.412879 0.910782 -0.00262314
-0.416034 0.909326 -0.00639104
-0.421493 0.906802 -0.00733526
-0.408968 0.912549 -0.000167792
0.887632 0.418391 -0.192506
0.753112 0.352023 -0.55579
-0.502175 -0.233586 0.832621
-0.175674 -0.0813425 0.981082
0.17974 0.0749676 0.980853
0.511822 0.213257 0.832202
0.767171 0.32055 0.555604
0.904415 0.380707 0.192605
-0.380042 0.924966 0.00253592
-0.383007 0.92369 0.0101111
-0.373582 0.927567 0.0075074
-0.369167 0.929361 0.00216242
-0.369186 0.92935 -0.00314732
-0.373548 0.927573 -0.00834402
-0.382723 0.9238 -0.0108152
-0.377531 0.925993 -0.00291274
0.904095 0.381526 -0.192487
0.767213 0.320835 -0.555382
-0.511911 -0.212625 0.832309
-0.179122 -0.0740671 0.981035
0.182857 0.0678918 0.980793
0.520288 0.193509 0.831778
0.77908 0.291493 0.555037
0.918152 0.346244 0.192647
-0.377874 0.925783 0.0116715
-0.345759 0.938202 0.0151037
-0.330623 0.943712 0.00979999
-0.324783 0.945785 0.00273861
-0.324808 0.945773 -0.00363475
-0.330555 0.943729 -0.0104662
-0.345385 0.938331 -0.0156301
-0.378857 0.925368 -0.012692
0.917753 0.347372 -0.192516
0.779134 0.291796 -0.554803
-0.520391 -0.192804 0.831877
-0.18217 -0.0671671 0.98097
0.185579 0.0612617 0.980718
0.527536 0.175357 0.831237
0.788783 0.265702 0.554278
0.928062 0.318699 0.192695
-0.491962 0.8694 0.0459995
-0.310618 0.950289 0.021604
-0.287062 0.957838 0.0119078
-0.279703 0.960081 0.00313428
-0.279739 0.960068 -0.00397166
-0.286943 0.957867 -0.0123887
-0.310044 0.95047 -0.0218893
-0.496669 0.866625 -0.0477546
0.92782 0.319487 -0.192556
0.788872 0.265928 -0.554042
-0.52766 -0.174538 0.831331
-0.184836 -0.0607815 0.980888
0.187855 0.0554584 0.98063
0.533519 0.159655 0.830583
0.796625 0.24329 0.553352
0.936043 0.294468 0.192646
0.740103 -0.662993 -0.112645
-0.274835 0.961077 0.0282195
-0.241779 0.970244 0.0130136
-0.233433 0.972368 0.00322407
-0.233502 0.972348 -0.0039713
-0.241691 0.970262 -0.0133082
-0.274205 0.961256 -0.028272
0.742865 -0.659692 0.113829
0.935979 0.294748 -0.192528
0.796728 0.243457 -0.55313
-0.533674 -0.158634 0.830678
-0.187092 -0.0552775 0.980786
0.189522 0.0512795 0.980537
0.53784 0.148604 0.829847
0.802249 0.226338 0.55242
0.942999 0.271467 0.192506
0.750427 -0.649386 -0.123112
-0.232663 0.972015 0.032492
-0.192517 0.981209 0.0128699
-0.183949 0.982931 0.00311412
-0.184043 0.982911 -0.00366286
-0.192428 0.981226 -0.0128854
-0.231989 0.972182 -0.0323097
0.759522 -0.638237 0.125616
0.94309 0.27119 -0.192451
0.802388 0.226245 -0.552256
-0.538064 -0.147123 0.829965
-0.188811 -0.0514808 0.980663
0.190043 0.0497889 0.980512
0.538875 0.146912 0.829476
0.802621 0.225753 0.552119
0.947115 0.255985 0.193506
-0.483066 0.871759 0.0817525
-0.162625 0.986157 0.0323509
-0.127832 0.991691 0.0144
-0.120316 0.992726 0.00434406
-0.120266 0.992734 -0.00385072
-0.127583 0.99173 -0.0139677
-0.162317 0.986203 -0.0325168
-0.486154 0.869935 -0.0828746
0.947459 0.254722 -0.193488
0.802842 0.225014 -0.5521
-0.539295 -0.144366 0.82965
-0.189513 -0.0505733 0.980575
0.189104 0.0445308 0.980947
0.537207 0.132184 0.833028
0.804689 0.198083 0.559678
0.964317 0.175555 0.198173
0.979561 0.0015095 -0.201142
0.828378 0.0455451 -0.558315
-0.552467 -0.0460396 0.832262
-0.193997 -0.0177169 0.980842
0.193793 0.0181379 0.980875
0.552347 0.0463325 0.832326
0.828286 0.0466865 0.558357
0.979541 0.00337821 0.201214
0.964379 0.175351 -0.198054
0.804843 0.19756 -0.559641
-0.537752 -0.129942 0.83303
-0.188526 -0.0462217 0.98098
0.189701 0.039009 0.981067
0.538771 0.117161 0.834266
0.808687 0.173221 0.562156
0.966473 0.161136 0.199913
0.977763 0.0494472 -0.203802
0.825563 0.0448525 -0.562525
-0.550633 -0.0436109 0.833608
-0.193267 -0.016672 0.981005
0.193348 0.0175501 0.980973
0.550553 0.042698 0.833708
0.825459 0.0454587 0.562628
0.977688 0.050959 0.203786
0.966406 0.161606 -0.199858
0.808613 0.173681 -0.562121
-0.539046 -0.116263 0.834214
-0.188646 -0.0420881 0.981143
0.187553 0.0399522 0.981442
0.526774 0.134897 0.839233
0.785857 0.220829 0.577636
0.95716 0.19591 0.213222
0.971014 -0.037649 -0.236037
0.814826 -0.015698 -0.579493
-0.544506 -0.0182761 0.838558
-0.191022 -0.00814673 0.981552
0.191005 0.00926668 0.981545
0.543706 0.0129901 0.839175
0.815106 -0.0131906 0.579161
0.972202 -0.0241197 0.2329
0.955162 0.20334 -0.215217
0.783215 0.227124 -0.578782
-0.52592 -0.136925 0.83944
-0.182523 -0.0520023 0.981825
0.00222735 0.00722313 0.999971
0.00408152 0.000544941 0.999992
</DataArray>
<DataArray type="Float64" Name="cell vector length" format="ascii">
0.136408 0.133262 0.11998 0.0758397 0.104485 0.138694 0.135395 0.131102 0.131276 0.135953 0.139655 0.104919 0.0748932 0.117916 0.143012 0.142085 0.416401 0.394492 0.358064 0.321014 0.344497 0.386455 0.405393 0.407656 0.406764 0.402989 0.386609 0.345074 0.321363 0.358563 0.402433 0.419054 0.524621 0.499277 0.449783 0.389071 0.426909 0.494971 0.512081 0.512865 0.512074 0.509869 0.495373 0.427982 0.38958 0.44973 0.504328 0.525983 0.562842 0.532484 0.466384 0.326362 0.0868524 0.320348 0.481066 0.545915 0.546014 0.481494 0.319485 0.0878167 0.326394 0.465522 0.536545 0.563813 0.586173 0.550904 0.470486 0.312013 0.0516173 0.299953 0.469355 0.537414 0.537475 0.46952 0.299178 0.052919 0.311475 0.46854 0.554174 0.586826 0.600491 0.560775 0.469543 0.29328 0.0267445 0.294466 0.465278 0.534696 0.534827 0.465764 0.29383 0.0296229 0.292383 0.466484 0.563594 0.600977 0.609962 0.567031 0.468355 0.282332 0.0195105 0.291096 0.462917 0.532908 0.533071 0.463562 0.292464 0.0268742 0.277699 0.464346 0.569755 0.610398 0.616384 0.571231 0.467495 0.273629 0.0241827 0.290677 0.461311 0.531493 0.531679 0.462109 0.293794 0.0454041 0.265443 0.462322 0.573925 0.61681 0.620813 0.574122 0.466898 0.266688 0.019801 0.291501 0.460195 0.530399 0.530639 0.461316 0.295439 0.060549 0.257384 0.460276 0.57666 0.621202 0.623883 0.575986 0.466104 0.262354 0.0155028 0.292192 0.459499 0.529598 0.529903 0.460921 0.296795 0.0708748 0.250013 0.458235 0.57843 0.624241 0.625904 0.57695 0.464925 0.257258 0.00950751 0.294035 0.459425 0.5291 0.529427 0.46096 0.298973 0.0793582 0.244617 0.4565 0.579649 0.626334 0.627123 0.577202 0.463451 0.252877 0.00438275 0.296037 0.459786 0.528972 0.52924 0.461166 0.301062 0.0861048 0.240354 0.455291 0.580663 0.627787 0.62776 0.57694 0.461782 0.24926 0.000517866 0.298063 0.460584 0.529338 0.529522 0.46152 0.302473 0.0912096 0.237191 0.454816 0.581555 0.628754 0.62812 0.576421 0.459893 0.245884 0.00394135 0.300731 0.462109 0.530392 0.53058 0.462845 0.305223 0.0796509 0.232782 0.454432 0.582107 0.629406 0.628341 0.575865 0.45799 0.243586 0.0161568 0.309292 0.468438 0.535709 0.535949 0.469273 0.308882 0.0308697 0.245835 0.454176 0.582454 0.629881 0.628376 0.575282 0.456195 0.233778 0.055184 0.336952 0.489633 0.554161 0.554371 0.490202 0.336665 0.0516105 0.235373 0.454102 0.583039 0.630251 0.628323 0.574527 0.454432 0.23225 0.065031 0.343929 0.495141 0.558981 0.559073 0.49518 0.342941 0.0617517 0.234074 0.453854 0.583657 0.630633 0.628123 0.573596 0.452694 0.230205 0.0661888 0.344955 0.496024 0.559719 0.559695 0.495747 0.343886 0.0636428 0.23192 0.452961 0.583895 0.630849 0.627631 0.572605 0.451369 0.228936 0.0661981 0.345055 0.496348 0.560079 0.559998 0.495941 0.344022 0.0640306 0.230636 0.452105 0.583764 0.630675 0.626839 0.571549 0.450327 0.228247 0.0656496 0.344886 0.49664 0.560524 0.560417 0.496184 0.343895 0.0636255 0.230001 0.451342 0.583347 0.630118 0.625677 0.57033 0.449466 0.228171 0.0644058 0.34451 0.497007 0.561153 0.561038 0.496535 0.343542 0.0624166 0.23001 0.450664 0.582627 0.629139 0.623985 0.568818 0.448781 0.228912 0.0621922 0.343921 0.497524 0.562008 0.561889 0.497042 0.342962 0.0601959 0.23084 0.450111 0.581531 0.627597 0.621485 0.566826 0.448337 0.230871 0.0585985 0.343126 0.498284 0.563142 0.563014 0.497785 0.342168 0.0565668 0.232884 0.449767 0.579909 0.625233 0.617764 0.564072 0.448248 0.234791 0.0530311 0.342232 0.499402 0.564598 0.564458 0.49888 0.341278 0.0509549 0.236906 0.449761 0.577503 0.621648 0.612279 0.560108 0.448567 0.242092 0.0446598 0.341503 0.501036 0.566409 0.566248 0.500475 0.340563 0.0425538 0.244343 0.450141 0.573918 0.616321 0.60435 0.554293 0.448935 0.254262 0.0328531 0.34191 0.503402 0.568532 0.568341 0.502776 0.340951 0.0317705 0.255956 0.450581 0.568579 0.608602 0.592717 0.545573 0.44851 0.269201 0.0341929 0.344202 0.506955 0.571226 0.571004 0.506278 0.343391 0.0337639 0.270724 0.450296 0.560479 0.597256 0.573364 0.530095 0.443764 0.282002 0.0596982 0.355148 0.514504 0.576852 0.576644 0.513891 0.354274 0.0589979 0.283861 0.445763 0.545918 0.578342 0.527683 0.486659 0.410548 0.251722 0.125086 0.407336 0.546001 0.60257 0.603221 0.548448 0.406583 0.123808 0.253485 0.412911 0.50441 0.533478 0.493329 0.453663 0.388174 0.309513 0.353015 0.43024 0.474051 0.479435 0.473893 0.459213 0.430146 0.355261 0.312314 0.391083 0.473099 0.49973 0.445896 0.405718 0.347069 0.290706 0.306075 0.363641 0.419968 0.429121 0.422138 0.400013 0.364469 0.309014 0.293949 0.350559 0.426889 0.452946 0.225182 0.184019 0.125937 0.0759947 0.102081 0.16948 0.239469 0.257757 0.253191 0.224531 0.174429 0.10715 0.0807841 0.128821 0.205061 0.231821 0.0451772 0.0151589 
</DataArray>
<DataArray type="Float64" Name="cell variable 4" format="ascii">
826.979 829.019 831.652 821.556 835.142 838.242 829.197 824.478 823.996 828.33 838.811 835.34 820.893 829.274 834.354 828.804 1137.19 1127.65 1119.99 1115.92 1135.17 1140.86 1142.15 1139.36 1138.1 1138.16 1141.22 1135.43 1115.6 1119.61 1140.66 1141.41 1352.43 1342.4 1332.77 1324.3 1350.78 1373.36 1378.46 1375.61 1373.78 1372.5 1373.64 1351.4 1324.39 1332.63 1356.44 1356.52 1411.93 1400.87 1389.85 1375.54 1452.57 2098.02 2743.53 3126.79 3125.6 2740.76 2095.47 1452.65 1375.36 1389.56 1415.62 1416.19 1429.38 1417.58 1407.28 1398.31 1451.68 2086.78 2732.26 3118.68 3118.25 2730.89 2083.68 1450.84 1397.44 1406.86 1433.08 1433.84 1434 1418.72 1404.22 1395.28 1454.08 2082.1 2718.9 3106.55 3106.84 2719.36 2078.58 1446.68 1394.18 1404.08 1435.31 1438.79 1435.73 1417.48 1399.15 1388.2 1467.02 2075.61 2708.09 3095.12 3095.96 2710.58 2079.53 1450.6 1388.73 1399.75 1435.33 1440.84 1436.43 1415.79 1394.69 1382.23 1487.39 2076.28 2700.16 3084.84 3086.24 2704.76 2086.85 1467.52 1384.2 1395.98 1435.22 1442 1436.67 1413.98 1390.95 1378.01 1492.99 2080.63 2694.75 3076.17 3078.28 2701.4 2092.87 1478.97 1379.88 1392.65 1435.39 1442.91 1436.85 1412.38 1387.68 1374.03 1492.2 2082.88 2691.04 3069.55 3072.23 2699.19 2096.44 1487.58 1375.77 1389.67 1435.73 1443.76 1436.94 1410.87 1384.79 1370.24 1490.53 2087.36 2689.63 3064.68 3067.63 2698.56 2101.93 1495.38 1372.24 1387 1435.97 1444.42 1436.86 1409.43 1382.26 1366.93 1488.77 2091.71 2689.51 3061.47 3064.3 2698.36 2106.95 1502.13 1369.31 1384.68 1436.09 1444.84 1436.74 1408.08 1379.92 1363.97 1487.06 2095.43 2690.45 3060.01 3062.3 2698.03 2111.18 1508.83 1367.64 1382.52 1435.87 1445 1436.78 1406.88 1377.61 1360.67 1489.27 2098.34 2692.12 3060.21 3061.96 2697.66 2114.54 1516.49 1364.09 1379.49 1435.54 1445.34 1436.33 1405.39 1375.65 1358.62 1490.43 2100.33 2693.86 3061.09 3062.47 2697.05 2096.79 1479.6 1359.16 1376.05 1435.1 1445.37 1434.98 1403.55 1374.28 1358.47 1522.09 2147.53 2753.34 3127.7 3128.47 2754.32 2143.84 1515.04 1358.33 1374.05 1434.12 1444.35 1433.91 1402.03 1372.82 1357.16 1521.64 2147.16 2753.07 3126.89 3126.89 2752.27 2143.68 1517.18 1357.89 1372.76 1433.5 1443.55 1433.41 1400.79 1371.14 1355.01 1521.77 2147.27 2753.82 3127.88 3127.44 2752.24 2144.04 1518.41 1355.61 1371.25 1433.48 1443.5 1432.83 1399.51 1369.72 1353.73 1521.77 2147.17 2754.7 3129.73 3129.13 2752.9 2144.13 1518.82 1354.17 1369.91 1433.4 1443.41 1432.07 1398.25 1368.59 1352.89 1521.19 2146.6 2755.69 3132.39 3131.74 2753.88 2143.65 1518.31 1353.24 1368.86 1433.24 1443.09 1431.14 1397.05 1367.73 1352.38 1519.61 2145.36 2757 3136.09 3135.41 2755.18 2142.44 1516.74 1352.72 1368.04 1432.97 1442.55 1430.07 1395.92 1367.14 1352.24 1516.59 2143.26 2758.82 3141.02 3140.32 2756.98 2140.35 1513.72 1352.6 1367.49 1432.65 1441.81 1428.85 1394.84 1366.9 1352.59 1511.55 2140.14 2761.45 3147.59 3146.85 2759.57 2137.17 1508.59 1352.94 1367.29 1432.34 1440.9 1427.47 1393.87 1367.09 1353.63 1503.58 2136.04 2765.41 3156.18 3155.37 2763.43 2133.07 1500.59 1354 1367.49 1432 1439.79 1426 1393.01 1367.78 1355.71 1491.43 2131.41 2771.42 3167.11 3166.18 2769.3 2128.51 1488.39 1356.07 1368.2 1431.72 1438.56 1424.44 1392.4 1369 1358.32 1475.34 2127.77 2780.49 3180.5 3179.36 2778.12 2124.98 1473.23 1358.7 1369.48 1431.63 1437.23 1421.26 1390.94 1369.89 1359.74 1464.93 2125.2 2793.37 3195.84 3194.44 2790.7 2122.99 1463.66 1360.11 1370.37 1430.54 1434.22 1406.58 1378.57 1360.49 1349.07 1462.2 2133.99 2810.59 3212.33 3210.63 2807.56 2131.09 1460.6 1349.23 1360.88 1418.05 1419.57 1327.22 1299.13 1278.47 1257.94 1450.6 2164.9 2840.74 3238.66 3236.63 2837.19 2162.38 1449.14 1258.13 1278.73 1336.18 1339.52 1256.27 1228.35 1206.95 1189.26 1219.28 1232.18 1268.05 1267.18 1258.6 1242.24 1232.44 1219.71 1189.75 1207.28 1263.36 1267.98 1121.79 1093.37 1068.61 1050.48 1055.43 1066.83 1108.4 1107.03 1096.87 1077.71 1067.05 1055.94 1050.91 1069.12 1124.36 1132.33 798.021 787.18 782.79 783.317 796.733 814.394 854.332 861.206 854.635 834.526 815.439 796.842 783.401 781.559 805.781 803.685 613.822 744.351 
</DataArray>
<DataArray type="Float64" Name="cell variable 5" format="ascii">
0.00922521 0.00922521 0.00922521 0.00922521 0.00922521 0.00922521 0.00922521 0.00922521 0.00922521 0.00922521 0.00922521 0.00922521 0.00922521 0.00922521 0.00922521 0.00922521 0.00922521 0.00922521 0.00922521 0.00922521 0.00922521 0.00922521 0.00922521 0.00922521 0.00922521 0.00922521 0.00922521 0.00922521 0.00922521 0.00922521 0.00922521 0.00922521 0.00922521 0.00922521 0.00922521 0.00922521 0.00922521 0.00922521 0.00922521 0.00922521 0.00922521 0.00922521 0.00922521 0.00922521 0.00922521 0.00922521 0.00922521 0.00922521 0.0139424 0.0129071 0.0112363 0.00964342 0.00922521 0.00922521 0.00922521 0.00922521 0.00922521 0.00922521 0.00922521 0.00922521 0.00964342 0.0112363 0.0129071 0.0139424 0.0157751 0.014338 0.0120174 0.00980537 0.00922521 0.00922521 0.00922521 0.00922521 0.00922521 0.00922521 0.00922521 0.00922521 0.00980537 0.0120174 0.014338 0.0157751 0.016837 0.0151683 0.0124704 0.00989967 0.00922521 0.00922521 0.00922521 0.00922521 0.00922521 0.00922521 0.00922521 0.00922521 0.00989967 0.0124704 0.0151683 0.016837 0.0176099 0.015769 0.0128005 0.00996937 0.00922521 0.00922521 0.00922521 0.00922521 0.00922521 0.00922521 0.00922521 0.00922521 0.00996937 0.0128005 0.015769 0.0176099 0.0182126 0.0162405 0.0130567 0.0100227 0.00922521 0.00922521 0.00922521 0.00922521 0.00922521 0.00922521 0.00922521 0.00922521 0.0100227 0.0130567 0.0162405 0.0182126 0.0186985 0.0166197 0.0132638 0.0100657 0.00922521 0.00922521 0.00922521 0.00922521 0.00922521 0.00922521 0.00922521 0.00922521 0.0100657 0.0132638 0.0166197 0.0186985 0.0190962 0.0169293 0.013434 0.0101006 0.00922521 0.00922521 0.00922521 0.00922521 0.00922521 0.00922521 0.00922521 0.00922521 0.0101006 0.013434 0.0169293 0.0190962 0.019418 0.0171814 0.0135713 0.0101293 0.00922521 0.00922521 0.00922521 0.00922521 0.00922521 0.00922521 0.00922521 0.00922521 0.0101293 0.0135713 0.0171814 0.019418 0.0196763 0.0173844 0.013682 0.0101518 0.00922521 0.00922521 0.00922521 0.00922521 0.00922521 0.00922521 0.00922521 0.00922521 0.0101518 0.013682 0.0173844 0.0196763 0.0198772 0.0175402 0.0137661 0.0101703 0.00922521 0.00922521 0.00922521 0.00922521 0.00922521 0.00922521 0.00922521 0.00922521 0.0101703 0.0137661 0.0175402 0.0198772 0.0200249 0.017655 0.0138296 0.0101826 0.00922521 0.00922521 0.00922521 0.00922521 0.00922521 0.00922521 0.00922521 0.00922521 0.0101826 0.0138296 0.017655 0.0200249 0.0201233 0.0177308 0.0138706 0.0101928 0.00922521 0.00922521 0.00922521 0.00922521 0.00922521 0.00922521 0.00922521 0.00922521 0.0101928 0.0138706 0.0177308 0.0201233 0.0201704 0.0177698 0.0138911 0.0101969 0.00922521 0.00922521 0.00922521 0.00922521 0.00922521 0.00922521 0.00922521 0.00922521 0.0101969 0.0138911 0.0177698 0.0201704 0.0201704 0.0177698 0.0138911 0.0101969 0.00922521 0.00922521 0.00922521 0.00922521 0.00922521 0.00922521 0.00922521 0.00922521 0.0101969 0.0138911 0.0177698 0.0201704 0.0201233 0.0177308 0.0138706 0.0101928 0.00922521 0.00922521 0.00922521 0.00922521 0.00922521 0.00922521 0.00922521 0.00922521 0.0101928 0.0138706 0.0177308 0.0201233 0.0200249 0.017655 0.0138296 0.0101826 0.00922521 0.00922521 0.00922521 0.00922521 0.00922521 0.00922521 0.00922521 0.00922521 0.0101826 0.0138296 0.017655 0.0200249 0.0198772 0.0175402 0.0137661 0.0101703 0.00922521 0.00922521 0.00922521 0.00922521 0.00922521 0.00922521 0.00922521 0.00922521 0.0101703 0.0137661 0.0175402 0.0198772 0.0196763 0.0173844 0.013682 0.0101518 0.00922521 0.00922521 0.00922521 0.00922521 0.00922521 0.00922521 0.00922521 0.00922521 0.0101518 0.013682 0.0173844 0.0196763 0.019418 0.0171814 0.0135713 0.0101293 0.00922521 0.00922521 0.00922521 0.00922521 0.00922521 0.00922521 0.00922521 0.00922521 0.0101293 0.0135713 0.0171814 0.019418 0.0190962 0.0169293 0.013434 0.0101006 0.00922521 0.00922521 0.00922521 0.00922521 0.00922521 0.00922521 0.00922521 0.00922521 0.0101006 0.013434 0.0169293 0.0190962 0.0186985 0.0166197 0.0132638 0.0100657 0.00922521 0.00922521 0.00922521 0.00922521 0.00922521 0.00922521 0.00922521 0.00922521 0.0100657 0.0132638 0.0166197 0.0186985 0.0182126 0.0162405 0.0130567 0.0100227 0.00922521 0.00922521 0.00922521 0.00922521 0.00922521 0.00922521 0.00922521 0.00922521 0.0100227 0.0130567 0.0162405 0.0182126 0.0176099 0.015769 0.0128005 0.00996937 0.00922521 0.00922521 0.00922521 0.00922521 0.00922521 0.00922521 0.00922521 0.00922521 0.00996937 0.0128005 0.015769 0.0176099 0.016837 0.0151683 0.0124704 0.00989967 0.00922521 0.00922521 0.00922521 0.00922521 0.00922521 0.00922521 0.00922521 0.00922521 0.00989967 0.0124704 0.0151683 0.016837 0.0157751 0.014338 0.0120174 0.00980537 0.00922521 0.00922521 0.00922521 0.00922521 0.00922521 0.00922521 0.00922521 0.00922521 0.00980537 0.0120174 0.014338 0.0157751 0.0139424 0.0129071 0.0112363 0.00964342 0.00922521 0.00922521 0.00922521 0.00922521 0.00922521 0.00922521 0.00922521 0.00922521 0.00964342 0.0112363 0.0129071 0.0139424 0.00922521 0.00922521 0.00922521 0.00922521 0.00922521 0.00922521 0.00922521 0.00922521 0.00922521 0.00922521 0.00922521 0.00922521 0.00922521 0.00922521 0.00922521 0.00922521 0.00922521 0.00922521 0.00922521 0.00922521 0.00922521 0.00922521 0.00922521 0.00922521 0.00922521 0.00922521 0.00922521 0.00922521 0.00922521 0.00922521 0.00922521 0.00922521 0.00922521 0.00922521 0.00922521 0.00922521 0.00922521 0.00922521 0.00922521 0.00922521 0.00922521 0.00922521 0.00922521 0.00922521 0.00922521 0.00922521 0.00922521 0.00922521 0.00922521 0.00922521 
</DataArray>
<DataArray type="Float64" Name="cell variable 6" format="ascii">
1 1 1 1 1 1 1 1 1 1 1 1 1 1 1 1 1 1 1 1 1 1 1 1 1 1 1 1 1 1 1 1 1 1 1 1 1 1 1 1 1 1 1 1 1 1 1 1 1 1 1 1 1 1 1 1 1 1 1 1 1 1 1 1 1 1 1 1 1 1 1 1 1 1 1 1 1 1 1 1 1 1 1 1 1 1 1 1 1 1 1 1 1 1 1 1 1 1 1 1 1 1 1 1 1 1 1 1 1 1 1 1 1 1 1 1 1 1 1 1 1 1 1 1 1 1 1 1 1 1 1 1 1 1 1 1 1 1 1 1 1 1 1 1 1 1 1 1 1 1 1 1 1 1 1 1 1 1 1 1 1 1 1 1 1 1 1 1 1 1 1 1 1 1 1 1 1 1 1 1 1 1 1 1 1 1 1 1 1 1 1 1 1 1 1 1 1 1 1 1 1 1 1 1 1 1 1 1 1 1 1 1 1 1 1 1 1 1 1 1 1 1 1 1 1 1 1 1 1 1 1 1 1 1 1 1 1 1 1 1 1 1 1 1 1 1 1 1 1 1 1 1 1 1 1 1 1 1 1 1 1 1 1 1 1 1 1 1 1 1 1 1 1 1 1 1 1 1 1 1 1 1 1 1 1 1 1 1 1 1 1 1 1 1 1 1 1 1 1 1 1 1 1 1 1 1 1 1 1 1 1 1 1 1 1 1 1 1 1 1 1 1 1 1 1 1 1 1 1 1 1 1 1 1 1 1 1 1 1 1 1 1 1 1 1 1 1 1 1 1 1 1 1 1 1 1 1 1 1 1 1 1 1 1 1 1 1 1 1 1 1 1 1 1 1 1 1 1 1 1 1 1 1 1 1 1 1 1 1 1 1 1 1 1 1 1 1 1 1 1 1 1 1 1 1 1 1 1 1 1 1 1 1 1 1 1 1 1 1 1 1 1 1 1 1 1 1 1 1 1 1 1 1 1 1 1 1 1 1 1 1 1 1 1 1 1 1 1 1 1 1 1 1 1 1 1 1 1 1 1 1 1 1 1 1 1 1 1 1 1 1 1 1 1 1 1 1 1 1 1 1 1 1 1 1 1 1 1 1 1 1 1 1 1 1 1 1 1 1 1 1 1 1 1 1 1 1 1 1 1 1 1 1 1 
</DataArray>
<DataArray type="Float64" Name="cell variable 7" format="ascii">
0 0 0 0 0 0 0 0 0 0 0 0 0 0 0 0 0 0 0 0 0 0 0 0 0 0 0 0 0 0 0 0 0 0 0 0 0 0 0 0 0 0 0 0 0 0 0 0 0 0 0 0 0 0 0 0 0 0 0 0 0 0 0 0 0 0 0 0 0 0 0 0 0 0 0 0 0 0 0 0 0 0 0 0 0 0 0 0 0 0 0 0 0 0 0 0 0 0 0 0 0 0 0 0 0 0 0 0 0 0 0 0 0 0 0 0 0 0 0 0 0 0 0 0 0 0 0 0 0 0 0 0 0 0 0 0 0 0 0 0 0 0 0 0 0 0 0 0 0 0 0 0 0 0 0 0 0 0 0 0 0 0 0 0 0 0 0 0 0 0 0 0 0 0 0 0 0 0 0 0 0 0 0 0 0 0 0 0 0 0 0 0 0 0 0 0 0 0 0 0 0 0 0 0 0 0 0 0 0 0 0 0 0 0 0 0 0 0 0 0 0 0 0 0 0 0 0 0 0 0 0 0 0 0 0 0 0 0 0 0 0 0 0 0 0 0 0 0 0 0 0 0 0 0 0 0 0 0 0 0 0 0 0 0 0 0 0 0 0 0 0 0 0 0 0 0 0 0 0 0 0 0 0 0 0 0 0 0 0 0 0 0 0 0 0 0 0 0 0 0 0 0 0 0 0 0 0 0 0 0 0 0 0 0 0 0 0 0 0 0 0 0 0 0 0 0 0 0 0 0 0 0 0 0 0 0 0 0 0 0 0 0 0 0 0 0 0 0 0 0 0 0 0 0 0 0 0 0 0 0 0 0 0 0 0 0 0 0 0 0 0 0 0 0 0 0 0 0 0 0 0 0 0 0 0 0 0 0 0 0 0 0 0 0 0 0 0 0 0 0 0 0 0 0 0 0 0 0 0 0 0 0 0 0 0 0 0 0 0 0 0 0 0 0 0 0 0 0 0 0 0 0 0 0 0 0 0 0 0 0 0 0 0 0 0 0 0 0 0 0 0 0 0 0 0 0 0 0 0 0 0 0 0 0 0 0 0 0 0 0 0 0 0 0 0 0 0 0 0 0 0 0 0 0 0 0 0 0 0 0 0 0 0 0 0 0 0 0 0 0 0 0 0 0 0 0 0 0 0 0 0 0 1 1 
</DataArray>
<DataArray type="Float64" Name="cell variable 8" format="ascii">
11.25 33.75 56.25 78.75 101.25 123.75 146.25 168.75 191.25 213.75 236.25 258.75 281.25 303.75 326.25 348.75 11.25 33.75 56.25 78.75 101.25 123.75 146.25 168.75 191.25 213.75 236.25 258.75 281.25 303.75 326.25 348.75 11.25 33.75 56.25 78.75 101.25 123.75 146.25 168.75 191.25 213.75 236.25 258.75 281.25 303.75 326.25 348.75 11.25 33.75 56.25 78.75 101.25 123.75 146.25 168.75 191.25 213.75 236.25 258.75 281.25 303.75 326.25 348.75 11.25 33.75 56.25 78.75 101.25 123.75 146.25 168.75 191.25 213.75 236.25 258.75 281.25 303.75 326.25 348.75 11.25 33.75 56.25 78.75 101.25 123.75 146.25 168.75 191.25 213.75 236.25 258.75 281.25 303.75 326.25 348.75 11.25 33.75 56.25 78.75 101.25 123.75 146.25 168.75 191.25 213.75 236.25 258.75 281.25 303.75 326.25 348.75 11.25 33.75 56.25 78.75 101.25 123.75 146.25 168.75 191.25 213.75 236.25 258.75 281.25 303.75 326.25 348.75 11.25 33.75 56.25 78.75 101.25 123.75 146.25 168.75 191.25 213.75 236.25 258.75 281.25 303.75 326.25 348.75 11.25 33.75 56.25 78.75 101.25 123.75 146.25 168.75 191.25 213.75 236.25 258.75 281.25 303.75 326.25 348.75 11.25 33.75 56.25 78.75 101.25 123.75 146.25 168.75 191.25 213.75 236.25 258.75 281.25 303.75 326.25 348.75 11.25 33.75 56.25 78.75 101.25 123.75 146.25 168.75 191.25 213.75 236.25 258.75 281.25 303.75 326.25 348.75 11.25 33.75 56.25 78.75 101.25 123.75 146.25 168.75 191.25 213.75 236.25 258.75 281.25 303.75 326.25 348.75 11.25 33.75 56.25 78.75 101.25 123.75 146.25 168.75 191.25 213.75 236.25 258.75 281.25 303.75 326.25 348.75 11.25 33.75 56.25 78.75 101.25 123.75 146.25 168.75 191.25 213.75 236.25 258.75 281.25 303.75 326.25 348.75 11.25 33.75 56.25 78.75 101.25 123.75 146.25 168.75 191.25 213.75 236.25 258.75 281.25 303.75 326.25 348.75 11.25 33.75 56.25 78.75 101.25 123.75 146.25 168.75 191.25 213.75 236.25 258.75 281.25 303.75 326.25 348.75 11.25 33.75 56.25 78.75 101.25 123.75 146.25 168.75 191.25 213.75 236.25 258.75 281.25 303.75 326.25 348.75 11.25 33.75 56.25 78.75 101.25 123.75 146.25 168.75 191.25 213.75 236.25 258.75 281.25 303.75 326.25 348.75 11.25 33.75 56.25 78.75 101.25 123.75 146.25 168.75 191.25 213.75 236.25 258.75 281.25 303.75 326.25 348.75 11.25 33.75 56.25 78.75 101.25 123.75 146.25 168.75 191.25 213.75 236.25 258.75 281.25 303.75 326.25 348.75 11.25 33.75 56.25 78.75 101.25 123.75 146.25 168.75 191.25 213.75 236.25 258.75 281.25 303.75 326.25 348.75 11.25 33.75 56.25 78.75 101.25 123.75 146.25 168.75 191.25 213.75 236.25 258.75 281.25 303.75 326.25 348.75 11.25 33.75 56.25 78.75 101.25 123.75 146.25 168.75 191.25 213.75 236.25 258.75 281.25 303.75 326.25 348.75 11.25 33.75 56.25 78.75 101.25 123.75 146.25 168.75 191.25 213.75 236.25 258.75 281.25 303.75 326.25 348.75 11.25 33.75 56.25 78.75 101.25 123.75 146.25 168.75 191.25 213.75 236.25 258.75 281.25 303.75 326.25 348.75 11.25 33.75 56.25 78.75 101.25 123.75 146.25 168.75 191.25 213.75 236.25 258.75 281.25 303.75 326.25 348.75 11.25 33.75 56.25 78.75 101.25 123.75 146.25 168.75 191.25 213.75 236.25 258.75 281.25 303.75 326.25 348.75 11.25 33.75 56.25 78.75 101.25 123.75 146.25 168.75 191.25 213.75 236.25 258.75 281.25 303.75 326.25 348.75 11.25 33.75 56.25 78.75 101.25 123.75 146.25 168.75 191.25 213.75 236.25 258.75 281.25 303.75 326.25 348.75 11.25 33.75 56.25 78.75 101.25 123.75 146.25 168.75 191.25 213.75 236.25 258.75 281.25 303.75 326.25 348.75 11.25 33.75 56.25 78.75 101.25 123.75 146.25 168.75 191.25 213.75 236.25 258.75 281.25 303.75 326.25 348.75 0 0 
</DataArray>
</CellData>
</Piece>
</UnstructuredGrid>
</VTKFile>
