<VTKFile type="UnstructuredGrid" version="0.1">
<UnstructuredGrid>
<Piece  NumberOfPoints="    2080" NumberOfCells="     514">
<Points>
<DataArray type="Float64" NumberOfComponents="3" format="ascii">
-307.341 716.476 1.0894
-306.135 721.48 26.8521
-280.508 710.279 28.9804
-281.85 704.864 1.12418
-305.861 722.592 29.6035
-302.359 736.802 51.4033
-276.415 726.77 55.2947
-280.233 711.391 31.7319
-301.853 738.853 53.5039
-296.644 760.078 68.009
-270.231 751.787 73.0925
-275.909 728.821 57.3954
-295.994 762.755 69.1418
-290.011 787.77 74.1894
-263.08 781.55 79.7341
-269.581 754.463 74.2253
-289.338 790.671 74.189
-283.67 815.751 69.0881
-256.325 811.67 74.255
-262.406 784.451 79.7337
-283.08 818.442 67.9528
-278.504 839.813 53.4386
-250.832 837.501 57.3606
-255.735 814.361 73.1197
-278.066 841.88 51.3342
-275.048 856.198 29.5329
-247.133 855.036 31.6456
-250.394 839.567 55.2562
-274.811 857.317 26.7795
-273.73 862.332 1.01776
-245.725 861.577 1.03056
-246.896 856.154 28.8923
-273.728 862.33 -1.96349
-274.766 857.276 -27.7198
-246.842 856.119 -29.8077
-245.723 861.575 -1.95068
-274.999 856.154 -30.4721
-277.999 841.812 -52.2615
-250.314 839.501 -56.1541
-247.076 854.997 -32.5599
-278.435 839.743 -54.3639
-283.003 818.357 -68.8598
-255.652 814.276 -73.9909
-250.75 837.433 -58.2565
-283.592 815.665 -69.9927
-289.256 790.579 -75.0694
-262.317 784.36 -80.5797
-256.241 811.584 -75.1238
-289.93 787.678 -75.0673
-295.919 762.669 -69.9958
-269.496 754.379 -75.0454
-262.991 781.459 -80.5776
-296.57 759.994 -68.8604
-301.778 738.786 -54.3301
-275.854 728.766 -58.1842
-270.147 751.704 -73.91
-302.287 736.737 -52.2265
-305.801 722.557 -30.4121
-280.215 711.363 -32.4803
-276.362 726.717 -56.0806
-306.078 721.447 -27.6579
-307.339 716.474 -1.89247
-281.848 704.862 -1.8577
-280.493 710.254 -29.726
-278.753 703.768 1.20169
-277.411 709.183 29.0579
-246.869 700.734 29.7085
-248.259 695.224 1.22157
-273.3 725.727 55.5114
-242.597 717.545 56.724
-246.577 701.9 32.5992
-277.118 710.349 31.9486
-267.082 750.844 73.4165
-236.115 743.085 75.0283
-242.057 719.696 58.9321
-272.761 727.878 57.7194
-259.891 780.738 80.1179
-228.655 773.526 81.876
-235.423 745.893 76.2208
-266.391 753.651 74.609
-253.104 811.003 74.6406
-221.875 804.401 76.2408
-227.95 776.572 81.8774
-259.185 783.784 80.1192
-247.592 836.972 57.687
-216.431 830.879 58.886
-221.266 807.23 75.0463
-252.495 813.832 73.4461
-243.879 854.611 31.8623
-212.718 848.865 32.5143
-215.979 833.05 56.6718
-247.14 839.142 55.4729
-242.461 861.207 1.10735
-211.291 855.583 1.12461
-212.471 850.039 29.6211
-243.632 855.785 28.9691
-243.579 855.75 -29.8808
-212.428 850 -30.4942
-211.288 855.581 -2.00657
-242.459 861.205 -2.02384
-247.06 839.076 -56.3669
-215.906 832.985 -57.5202
-212.67 848.823 -33.3861
-243.821 854.572 -32.7727
-252.412 813.747 -74.3132
-221.18 807.146 -75.8703
-216.356 830.812 -59.732
-247.51 836.903 -58.5787
-259.095 783.693 -80.9609
-227.859 776.48 -82.673
-221.788 804.316 -77.062
-253.019 810.917 -75.505
-266.306 753.567 -75.4246
-235.34 745.809 -76.9874
-228.564 773.435 -82.6689
-259.801 780.647 -80.9568
-272.706 727.823 -58.5035
-242 719.634 -59.6724
-236.033 743.002 -75.7921
-266.999 750.761 -74.2293
-277.102 710.321 -32.6917
-246.556 701.863 -33.3024
-242.543 717.486 -57.4609
-273.249 725.675 -56.292
-277.397 709.158 -29.7985
-278.752 703.766 -1.93014
-248.258 695.222 -1.91025
-246.851 700.7 -30.4092
-244.852 694.341 1.24485
-243.462 699.851 29.7318
-212.499 692.42 29.8797
-213.926 686.9 1.26478
-243.158 701.028 32.6627
-239.178 716.673 56.7875
-208.071 709.265 57.058
-212.195 693.598 32.8106
-238.615 718.845 59.0285
-232.672 742.235 75.1248
-201.278 734.862 75.4891
-207.507 711.437 59.2991
-231.949 745.073 76.3348
-225.181 772.706 81.9901
-193.485 765.395 82.3655
-200.555 737.699 76.6992
-224.469 775.787 81.9918
-218.394 803.616 76.3552
-186.987 796.516 76.7404
-192.772 768.476 82.3672
-217.801 806.49 75.1445
-212.966 830.14 58.9842
-181.778 823.287 59.3273
-186.394 799.39 75.5298
-212.523 832.345 56.7382
-209.262 848.161 32.5807
-178.129 841.445 32.7841
-181.336 825.492 57.0813
-209.017 849.353 29.6457
-207.836 854.896 1.14928
-176.703 848.221 1.1724
-177.883 842.637 29.8492
-207.834 854.894 -2.02671
-208.974 849.314 -30.5144
-177.849 842.601 -30.6735
-176.701 848.219 -2.00358
-209.215 848.118 -33.4478
-212.451 832.28 -57.5819
-181.271 825.428 -57.8849
-178.091 841.406 -33.6069
-212.891 830.072 -59.8255
-217.715 806.406 -75.9638
-186.308 799.303 -76.3075
-181.711 823.22 -60.1285
-218.307 803.531 -77.1717
-224.378 775.695 -82.7827
-192.681 768.383 -83.1167
-186.9 796.428 -77.5155
-225.09 772.614 -82.7781
-231.866 744.988 -77.0966
-200.473 737.613 -77.4204
-193.394 765.302 -83.1122
-232.59 742.152 -75.8838
-238.558 718.783 -59.7641
-207.447 711.371 -59.9958
-201.198 734.776 -76.2076
-239.124 716.614 -57.52
-243.137 700.99 -33.3614
-212.17 693.554 -33.4704
-208.014 709.201 -57.7517
-243.444 699.816 -30.4281
-244.851 694.339 -1.92912
-213.925 686.898 -1.90919
-212.476 692.38 -30.537
-210.52 686.058 1.27358
-209.093 691.579 29.8885
-178.618 683.831 29.9461
-180.232 678.344 1.29108
-208.764 692.755 32.8305
-204.64 708.423 57.078
-173.648 700.576 57.1644
-178.289 685.007 32.8882
-204.029 710.592 59.3254
-197.799 734.016 75.5155
-166.067 726.026 75.6173
-173.036 702.745 59.4118
-197.01 736.851 76.7272
-189.94 764.547 82.3935
-157.208 756.358 82.4937
-165.278 728.861 76.829
-189.153 767.637 82.3886
-183.367 795.676 76.7618
-149.057 787.183 76.8416
-156.421 759.447 82.4888
-182.71 798.543 75.5444
-178.095 822.44 59.342
-142.476 813.792 59.4572
-148.401 790.049 75.6242
-177.603 824.638 57.0929
-174.397 840.591 32.7956
-137.966 831.84 32.8803
-141.984 815.991 57.2081
-174.124 841.779 29.8552
-172.943 847.363 1.17842
-136.243 838.572 1.20498
-137.693 833.028 29.9399
-172.942 847.361 -2.00426
-174.09 841.743 -30.6742
-137.663 832.995 -30.7079
-136.241 838.57 -1.9777
-174.359 840.552 -33.6134
-177.539 824.574 -57.8914
-141.925 815.927 -57.9617
-137.933 831.804 -33.6472
-178.028 822.372 -60.1385
-182.625 798.456 -76.3175
-148.314 789.961 -76.3555
-142.414 813.726 -60.2087
-183.28 795.588 -77.5323
-189.062 767.543 -83.1336
-156.329 759.35 -83.1961
-148.969 787.094 -77.5703
-189.849 764.453 -83.1358
-196.929 736.764 -77.4441
-165.2 728.771 -77.509
-157.117 756.261 -83.1984
-197.719 733.931 -76.2298
-203.969 710.525 -60.018
-172.977 702.675 -60.0695
-165.991 725.937 -76.2948
-204.583 708.358 -57.7675
-208.738 692.711 -33.4862
-178.26 684.958 -33.5092
-173.591 700.508 -57.819
-209.07 691.537 -30.5416
-210.518 686.056 -1.91385
-180.23 678.342 -1.89636
-178.591 683.785 -30.5647
-176.885 677.422 1.2947
-175.272 682.909 29.9498
-145.302 674.008 29.9765
-147.118 668.589 1.31136
-174.901 684.075 32.8949
-170.26 699.644 57.1711
-139.721 690.552 57.2104
-144.932 675.174 32.9216
-169.574 701.794 59.4204
-162.604 725.075 75.6258
-131.217 715.709 75.6685
-139.035 692.702 59.4597
-161.714 727.883 76.8373
-153.644 755.38 82.502
-121.186 745.677 82.5455
-130.327 718.517 76.88
-152.716 758.432 82.4961
-145.353 786.168 76.8489
-111.484 776.066 76.8758
-120.258 748.729 82.5396
-144.542 789.003 75.6312
-138.618 812.745 59.4641
-103.497 802.312 59.4871
-110.673 778.901 75.6581
-138.01 814.923 57.215
-133.992 830.772 32.8873
-98.075 820.145 32.9166
-102.89 804.489 57.238
-133.66 831.949 29.9444
-132.209 837.493 1.20951
-96.0239 826.805 1.23317
-97.743 821.321 29.9737
-132.208 837.491 -1.97676
-133.63 831.917 -30.707
-97.7154 821.298 -30.6908
-96.0224 826.803 -1.95309
-133.959 830.737 -33.649
-137.952 814.86 -57.9635
-102.833 804.442 -57.9455
-98.0445 820.119 -33.6328
-138.556 812.68 -60.2112
-144.456 788.916 -76.3579
-110.577 778.831 -76.3515
-103.437 802.262 -60.1931
-145.264 786.078 -77.5738
-152.624 758.335 -83.1996
-120.169 748.615 -83.2187
-111.386 775.993 -77.5674
-153.553 755.282 -83.2031
-161.637 727.792 -77.5138
-130.258 718.415 -77.5289
-121.098 745.563 -83.2222
-162.529 724.985 -76.2997
-169.515 701.723 -60.0744
-138.98 692.621 -60.0845
-131.15 715.608 -76.3148
-170.203 699.575 -57.822
-174.872 684.025 -33.5122
-144.902 675.117 -33.5068
-139.668 690.472 -57.8321
-175.245 682.862 -30.5645
-176.884 677.42 -1.89618
-147.117 668.586 -1.87951
-145.275 673.955 -30.559
-143.831 667.532 1.31377
-142.015 672.951 29.9789
-112.604 662.755 29.9981
-114.633 657.42 1.33009
-141.6 674.102 32.9254
-136.389 689.479 57.2142
-106.372 679.042 57.2437
-112.189 663.905 32.9446
-135.621 691.601 59.4646
-127.804 714.607 75.6734
-96.8706 703.822 75.7136
-105.604 681.163 59.4941
-126.803 717.378 76.8847
-117.662 744.538 82.5503
-85.5988 733.337 82.5884
-95.8701 706.592 76.9249
-116.598 747.543 82.5436
-107.823 774.88 76.8798
-74.4415 763.223 76.9085
-84.5347 736.343 82.5818
-106.869 777.671 75.661
-99.6923 801.082 59.49
-65.1134 789.023 59.5076
-73.487 766.014 75.6896
-98.9736 803.227 57.2405
-94.1589 818.883 32.9191
-58.8004 806.572 32.9396
-64.3948 791.168 57.2582
-93.7685 820.043 29.9763
-92.0494 825.527 1.23577
-56.4252 813.136 1.25704
-58.4099 807.733 29.9968
-92.048 825.526 -1.95082
-93.741 820.021 -30.6885
-58.3827 807.723 -30.6689
-56.4237 813.136 -1.92956
-94.1286 818.858 -33.6308
-98.9172 803.182 -57.9435
-64.3395 791.146 -57.9262
-58.7702 806.561 -33.6112
-99.6326 801.035 -60.1921
-106.773 777.603 -76.3505
-73.3999 765.978 -76.352
-65.0549 788.999 -60.1748
-107.726 774.807 -77.5685
-116.509 747.43 -83.2198
-84.4704 736.215 -83.2398
-74.3528 763.182 -77.57
-117.575 744.422 -83.2244
-126.736 717.273 -77.5311
-95.8152 706.475 -77.5483
-85.5369 733.207 -83.2444
-127.737 714.505 -76.3167
-135.567 691.518 -60.0864
-105.555 681.069 -60.0897
-96.8168 703.706 -76.334
-136.336 689.399 -57.8326
-141.57 674.044 -33.5073
-112.161 663.84 -33.4956
-106.325 678.95 -57.8359
-141.988 672.898 -30.5578
-143.829 667.529 -1.87832
-114.631 657.417 -1.862
-112.578 662.694 -30.5462
-111.41 656.219 1.33222
-109.381 661.553 30.0003
-80.5695 650.036 30.0183
-82.8191 644.8 1.34948
-108.92 662.684 32.9476
-103.103 677.821 57.2467
-73.6606 666.025 57.2726
-80.1083 651.167 32.9657
-102.248 679.908 59.4982
-93.5147 702.566 75.7177
-63.1173 690.362 75.7545
-72.8058 668.112 59.5241
-92.3982 705.29 76.9293
-82.1268 732.036 82.5928
-50.5643 719.348 82.629
-62.0008 693.086 76.9661
-80.9275 734.988 82.5855
-70.8343 761.868 76.9122
-38.0052 748.673 76.9409
-49.365 722.3 82.6217
-69.7432 764.609 75.6924
-61.3695 787.618 59.5104
-27.3977 773.973 59.5278
-36.914 751.414 75.7211
-60.5434 789.725 57.2602
-54.949 805.129 32.9417
-20.2172 791.188 32.9596
-26.5716 776.079 57.2777
-54.5014 806.269 29.999
-52.5166 811.673 1.25923
-17.5239 797.634 1.27919
-19.7696 792.329 30.017
-52.5153 811.673 -1.92726
-54.4742 806.26 -30.6666
-19.7448 792.324 -30.6454
-17.5225 797.634 -1.9073
-54.9191 805.119 -33.6091
-60.4884 789.704 -57.924
-26.5231 776.066 -57.9043
-20.1897 791.182 -33.5879
-61.312 787.596 -60.1738
-69.657 764.575 -76.3511
-36.8475 751.395 -76.3452
-27.3467 773.959 -60.154
-70.7483 761.829 -77.5707
-80.8659 734.862 -83.2404
-49.3277 722.179 -83.2452
-37.9388 748.648 -77.5648
-82.0669 731.905 -83.2458
-92.3452 705.172 -77.5498
-61.9573 692.967 -77.5552
-50.5288 719.222 -83.2506
-93.4617 702.45 -76.335
-102.2 679.813 -60.0907
-72.7606 668.014 -60.0852
-63.0738 690.245 -76.3404
-103.056 677.729 -57.8355
-108.892 662.619 -33.4952
-80.0811 651.098 -33.4797
-73.6164 665.931 -57.83
-109.356 661.492 -30.5446
-111.409 656.216 -1.86047
-82.8178 644.796 -1.84322
-80.5447 649.972 -30.5291
-79.6657 643.453 1.35165
-77.4161 648.689 30.0205
-49.2449 635.859 30.0404
-51.7183 630.736 1.37008
-76.907 649.798 32.9686
-70.4592 664.656 57.2755
-41.6467 651.509 57.3044
-48.7358 636.967 32.9884
-69.5153 666.702 59.5281
-59.8268 688.952 75.7585
-30.043 675.337 75.8008
-40.7027 653.554 59.557
-58.5915 691.623 76.9707
-47.155 717.885 82.6336
-16.1934 703.713 82.6803
-28.8077 678.008 77.0129
-45.8203 720.779 82.6258
-34.4604 747.151 76.9449
-2.24892 732.453 76.9798
-14.8587 706.607 82.6724
-33.2383 749.838 75.7242
-23.7221 772.396 59.531
9.57664 757.198 59.5541
-1.02676 735.139 75.759
-22.7926 774.459 57.2799
-16.4382 789.568 32.9618
17.5956 774.032 32.9813
10.5061 759.261 57.303
-15.935 790.685 30.0191
-13.6892 795.991 1.28131
20.5972 780.335 1.30049
18.0988 775.149 30.0386
-13.6881 795.99 -1.90506
-15.9104 790.68 -30.6432
18.116 775.137 -30.6229
20.5984 780.335 -1.88588
-16.4115 789.562 -33.5858
-22.7449 774.446 -57.9021
10.5392 759.236 -57.883
17.6149 774.019 -33.5655
-23.673 772.382 -60.1527
-33.1738 749.819 -76.3438
-0.995946 735.11 -76.3327
9.61106 757.172 -60.1336
-34.3974 747.128 -77.5644
-45.7864 720.659 -83.2448
-14.8411 706.514 -83.2412
-2.21958 732.42 -77.5532
-47.1209 717.76 -83.2508
-58.5494 691.506 -77.5554
-28.7679 677.906 -77.554
-16.1756 703.615 -83.2472
-59.7836 688.836 -76.3404
-69.4705 666.605 -60.0852
-40.6569 653.467 -60.0753
-30.0021 675.236 -76.339
-70.4151 664.562 -57.829
-76.8799 649.729 -33.4786
-48.7081 636.902 -33.4612
-41.6016 651.423 -57.8191
-77.3913 648.625 -30.5273
-79.6644 643.45 -1.84142
-51.717 630.733 -1.82299
-49.2195 635.798 -30.5099
-48.6386 629.245 1.37228
-46.1652 634.368 30.0426
-18.6782 620.247 30.0619
-21.3769 615.25 1.39021
-45.6077 635.452 32.9913
-38.5185 649.993 57.3073
-10.3871 635.52 57.3343
-18.1206 621.331 33.0106
-37.4846 651.992 59.561
-26.8248 673.775 75.8047
2.27912 658.782 75.8428
-9.35316 637.52 59.588
-25.4707 676.386 77.0177
-12.8564 702.091 82.685
17.402 686.487 82.7291
3.63325 661.393 77.0557
-11.3882 704.922 82.6768
1.22158 730.767 76.9842
32.7015 714.583 77.0152
18.8702 689.317 82.7209
2.57203 733.394 75.7621
13.1754 755.453 59.5571
45.7221 738.713 59.5791
34.0519 717.209 75.7931
14.2046 757.467 57.3054
21.2941 772.238 32.9837
54.5522 755.127 33.0018
46.7512 740.727 57.3273
21.8512 773.329 30.0407
24.3496 778.515 1.30255
57.8531 761.27 1.31987
55.1093 756.217 30.0587
24.3502 778.514 -1.88379
21.8679 773.316 -30.6208
55.1175 756.196 -30.6024
57.8538 761.269 -1.86647
21.3121 772.224 -33.5634
14.2364 757.44 -57.881
46.7683 740.685 -57.8629
54.5617 755.103 -33.545
13.2077 755.425 -60.132
2.6007 733.363 -76.3311
34.0706 717.153 -76.3168
45.7396 738.67 -60.1139
1.24942 730.735 -77.5522
-11.3721 704.829 -83.2402
18.8957 689.244 -83.2325
32.7193 714.525 -77.538
-12.8387 701.996 -83.2467
-25.431 676.286 -77.5536
3.67427 661.311 -77.5473
17.4291 686.41 -83.2391
-26.7839 673.676 -76.3384
-37.4387 651.906 -60.0747
-9.30604 637.446 -60.0632
2.32135 658.7 -76.3322
-38.4734 649.908 -57.8177
-45.5799 635.387 -33.4599
-18.0928 621.271 -33.4428
-10.3407 635.447 -57.8062
-46.1398 634.308 -30.508
-48.6373 629.242 -1.82111
-21.3755 615.247 -1.80318
-18.6527 620.192 -30.4909
-18.3759 613.618 1.3922
-15.6772 618.615 30.0639
11.0785 603.232 30.0797
8.15378 598.369 1.40815
-15.0711 619.671 33.013
-7.33768 633.861 57.3366
20.0597 618.096 57.3546
11.6845 604.287 33.0288
-6.2138 635.81 59.5911
5.41848 657.072 75.8458
33.7812 640.74 75.8679
21.1835 620.045 59.6091
6.89049 659.617 77.0593
20.6592 684.711 82.7327
50.1644 667.712 82.7575
35.2532 643.285 77.0814
22.2571 687.471 82.7241
36.0884 712.736 77.0184
66.768 695.063 77.0358
51.7622 670.472 82.7489
37.564 715.296 75.7955
49.2341 736.8 59.5815
80.9442 718.531 59.5939
68.2436 697.622 75.8129
50.3603 738.761 57.3292
58.1613 753.16 33.0036
90.5636 734.494 33.0163
82.0703 720.493 57.3417
58.7706 754.222 30.0605
61.5144 759.275 1.32162
94.1579 740.47 1.33604
91.173 735.556 30.0732
61.5148 759.274 -1.86466
58.7785 754.2 -30.6006
91.1777 735.534 -30.5846
94.1582 740.469 -1.85024
58.1698 753.136 -33.5431
50.3764 738.718 -57.861
82.0821 720.45 -57.8446
90.5691 734.47 -33.5272
49.2508 736.755 -60.1122
37.5818 715.239 -76.3152
68.2618 697.562 -76.3008
80.9565 718.487 -60.0958
36.1068 712.678 -77.5367
22.2832 687.397 -83.2312
51.7903 670.401 -83.2219
66.7868 695.001 -77.5223
20.6865 684.635 -83.2382
6.93174 659.536 -77.5465
35.2924 643.21 -77.5378
50.1937 667.64 -83.2289
5.46066 656.991 -76.3313
-6.16673 635.737 -60.0623
21.2284 619.977 -60.0507
33.8213 640.665 -76.3226
-7.29133 633.789 -57.8048
-15.0434 619.612 -33.4414
11.7102 604.231 -33.4259
20.1038 618.029 -57.7932
-15.6518 618.56 -30.4891
-18.3746 613.615 -1.8014
8.15508 598.366 -1.78545
11.1018 603.178 -30.4737
11.0707 596.599 1.40987
13.9954 601.461 30.0815
39.969 584.843 30.0955
36.8207 580.125 1.42453
14.6496 602.487 33.0307
23.0248 616.296 57.3565
49.6319 599.264 57.3717
40.6232 585.869 33.0448
24.2376 618.19 59.6112
36.8352 638.885 75.8701
64.3923 621.235 75.8886
50.8447 601.158 59.6264
38.4235 641.358 77.0838
53.3347 665.785 82.7598
82.0143 647.408 82.7782
65.9806 623.708 77.1023
55.0596 668.467 82.7509
70.0654 693.058 77.0379
99.886 673.945 77.0523
83.7393 650.09 82.7693
71.6613 695.543 75.8145
84.3618 716.453 59.5956
115.172 696.703 59.6081
101.482 676.43 75.8289
85.5816 718.357 57.3431
94.0749 732.359 33.0178
125.551 712.181 33.0306
116.392 698.607 57.3556
94.735 733.39 30.0747
97.7199 738.304 1.33756
129.43 717.977 1.35182
126.211 713.212 30.0875
97.7201 738.303 -1.84859
94.7397 733.368 -30.583
126.215 713.192 -30.5674
129.43 717.976 -1.83432
94.0801 732.335 -33.5255
85.5931 718.315 -57.8429
116.401 698.566 -57.8269
125.555 712.159 -33.5099
84.374 716.408 -60.0942
71.6793 695.483 -76.2992
101.5 676.371 -76.2855
115.182 696.66 -60.0782
70.0844 692.996 -77.521
55.0879 668.396 -83.2205
83.7671 650.02 -83.21
99.9051 673.884 -77.5073
53.3639 665.713 -83.2279
38.4626 641.283 -77.5368
66.0173 623.635 -77.5274
82.0431 647.337 -83.2173
36.8751 638.81 -76.3216
24.2821 618.122 -60.0496
50.8861 601.091 -60.0383
64.4297 621.162 -76.3122
23.0686 616.229 -57.7919
14.675 602.431 -33.4246
40.6453 585.812 -33.4103
49.6725 599.198 -57.7805
14.0186 601.408 -30.472
11.0719 596.596 -1.78382
36.8219 580.122 -1.76917
39.9889 584.789 -30.4577
39.6481 578.22 1.42614
42.7964 582.938 30.0972
67.9362 565.117 30.1108
64.5687 560.555 1.44024
43.498 583.932 33.0465
52.5067 597.327 57.3733
78.2667 579.06 57.3875
68.6377 566.111 33.0601
53.8068 599.161 59.6282
67.3544 619.238 75.8904
94.0433 600.304 75.9063
79.5669 580.895 59.6424
69.0567 621.633 77.1042
85.0903 645.333 82.7801
112.875 625.614 82.7953
95.7456 602.7 77.1201
86.9392 647.931 82.771
103.086 671.785 77.0539
131.977 651.275 77.0668
114.724 628.212 82.7861
104.798 674.192 75.8304
118.488 694.465 59.6096
148.33 673.275 59.6214
133.689 653.682 75.8432
119.798 696.308 57.3571
128.957 709.882 33.0321
159.439 688.236 33.0448
149.639 675.118 57.3689
129.666 710.879 30.089
132.885 715.645 1.35334
163.591 693.839 1.36778
160.148 689.233 30.1017
132.885 715.644 -1.83266
129.669 710.859 -30.5657
160.15 689.214 -30.5496
163.591 693.838 -1.81823
128.961 709.86 -33.5082
119.807 696.267 -57.8252
149.648 675.078 -57.8085
159.441 688.215 -33.4921
118.498 694.422 -60.0766
104.816 674.132 -76.2838
133.706 653.623 -76.2691
148.339 673.233 -60.0598
103.105 671.724 -77.5059
86.967 647.861 -83.2086
114.75 628.143 -83.1963
131.995 651.215 -77.4911
85.119 645.262 -83.2162
69.0931 621.56 -77.5262
95.7795 602.627 -77.5154
112.902 625.544 -83.2039
67.3914 619.165 -76.3111
53.8478 599.095 -60.0371
79.6046 580.828 -60.0258
94.0778 600.232 -76.3002
52.5469 597.261 -57.7792
43.5197 583.875 -33.409
68.6559 566.053 -33.3954
78.3037 578.994 -57.7678
42.8161 582.885 -30.4562
39.6491 578.218 -1.76763
64.5696 560.553 -1.75352
67.9523 565.063 -30.4426
67.3008 558.519 1.4418
70.6683 563.081 30.1124
94.9221 544.094 30.1259
91.3412 539.699 1.4557
71.416 564.04 33.0617
81.0451 576.99 57.389
105.903 557.525 57.4022
95.6699 545.053 33.0752
82.4304 578.76 59.644
96.9068 598.17 75.908
122.667 577.991 75.921
107.288 559.295 59.6571
98.7201 600.481 77.1217
115.849 623.396 82.7968
142.673 602.377 82.8081
124.481 580.303 77.1347
117.819 625.903 82.7875
135.072 648.966 77.0681
162.963 627.103 77.0783
144.642 604.885 82.7987
136.896 651.288 75.8445
151.537 670.882 59.6227
180.341 648.297 59.6328
164.787 629.425 75.8546
152.933 672.66 57.3703
162.732 685.777 33.0461
192.15 662.709 33.0581
181.737 650.076 57.3803
163.488 686.74 30.1032
166.931 691.346 1.36928
196.565 668.107 1.38381
192.906 663.672 30.1152
166.931 691.345 -1.81653
163.49 686.721 -30.5479
192.907 663.653 -30.531
196.565 668.106 -1.802
162.734 685.756 -33.4902
152.941 672.62 -57.8066
181.744 650.037 -57.7882
192.152 662.689 -33.4733
151.545 670.84 -60.058
136.913 651.23 -76.2672
164.803 629.367 -76.2497
180.349 648.256 -60.0396
135.09 648.906 -77.4894
117.845 625.834 -83.1946
144.666 604.816 -83.1789
162.98 627.043 -77.4719
115.876 623.326 -83.2025
98.7537 600.409 -77.514
124.512 580.231 -77.5009
142.698 602.308 -83.1868
96.941 598.097 -76.299
82.4678 578.693 -60.0245
107.322 559.228 -60.0126
122.699 577.919 -76.2859
81.0817 576.924 -57.7665
71.4339 563.982 -33.394
95.6842 544.994 -33.3807
105.936 557.459 -57.7545
70.6842 563.027 -30.4411
67.3015 558.517 -1.75203
91.3419 539.696 -1.73813
94.9346 544.039 -30.4277
93.9723 537.536 1.45722
97.5532 541.931 30.1274
120.87 521.817 30.1403
117.081 517.6 1.47095
98.3459 542.853 33.0766
108.579 555.325 57.4036
132.481 534.705 57.4146
121.662 522.739 33.0895
110.047 557.027 59.6584
125.426 575.723 75.9223
150.202 554.343 75.9301
133.949 536.406 59.6694
127.347 577.946 77.1357
145.539 600.02 82.809
171.338 577.748 82.8101
152.123 556.566 77.1435
147.624 602.431 82.7993
165.946 624.649 77.0789
192.769 601.48 77.0786
173.424 580.159 82.8005
167.877 626.882 75.8553
183.431 645.754 59.6334
211.128 621.819 59.6361
194.701 603.713 75.855
184.909 647.464 57.3813
195.322 660.097 33.059
223.605 635.649 33.0669
212.607 623.529 57.384
196.123 661.022 30.1166
199.782 665.458 1.38518
228.27 640.829 1.39973
224.406 636.574 30.1244
199.782 665.457 -1.80015
196.124 661.004 -30.5291
224.406 636.556 -30.508
228.27 640.828 -1.7856
195.324 660.077 -33.471
184.916 647.425 -57.7859
212.613 623.491 -57.7601
223.606 635.629 -33.4499
183.438 645.713 -60.0371
167.893 626.824 -76.2472
194.715 603.656 -76.2192
211.134 621.78 -60.0113
165.962 624.59 -77.4695
147.648 602.362 -83.1765
173.445 580.091 -83.1508
192.784 601.422 -77.4414
145.564 599.951 -83.1848
127.378 577.874 -77.4989
152.151 556.495 -77.4808
171.361 577.68 -83.159
125.457 575.651 -76.2844
110.081 556.96 -60.011
133.98 536.339 -59.9971
150.231 554.272 -76.2662
108.612 555.259 -57.7531
98.3599 542.795 -33.3793
121.673 522.68 -33.3656
132.511 534.638 -57.7392
97.5656 541.876 -30.4262
93.9729 537.534 -1.73664
117.082 517.597 -1.72291
120.878 521.762 -30.4126
119.606 515.315 1.47237
123.394 519.532 30.1417
145.72 498.332 30.152
141.73 494.301 1.48588
124.23 520.415 33.0906
135.049 532.38 57.4157
157.943 510.65 57.4175
146.556 499.215 33.1009
136.597 534.01 59.6696
152.85 551.947 75.9304
176.592 529.42 75.9172
159.491 512.279 59.6715
154.875 554.076 77.1423
174.09 575.258 82.809
198.82 551.796 82.7718
178.617 531.548 77.1292
176.286 577.566 82.7978
195.632 598.887 77.0759
221.313 574.453 77.0162
201.015 554.105 82.7607
197.664 601.023 75.8518
214.092 619.13 59.633
240.581 593.861 59.5782
223.345 576.59 75.7921
215.648 620.766 57.382
226.646 632.885 33.0649
253.675 607.056 33.0383
242.137 595.497 57.3273
227.489 633.771 30.1247
231.353 638.026 1.40002
258.571 611.999 1.41447
254.517 607.941 30.0981
231.353 638.025 -1.78268
227.49 633.753 -30.5051
254.518 607.924 -30.4497
258.571 611.998 -1.76823
226.647 632.866 -33.4448
215.654 620.728 -57.755
242.142 595.46 -57.672
253.676 607.037 -33.3894
214.098 619.091 -60.005
197.678 600.967 -76.213
223.357 576.535 -76.1257
240.586 593.823 -59.922
195.646 598.829 -77.4358
176.307 577.499 -83.1451
201.034 554.038 -83.0813
221.325 574.397 -77.3485
174.113 575.189 -83.1549
154.903 554.004 -77.4767
178.642 531.478 -77.438
198.84 551.729 -83.0912
152.878 551.876 -76.2637
136.627 533.943 -59.9946
159.519 512.213 -59.9718
176.617 529.35 -76.225
135.078 532.314 -57.7374
124.24 520.356 -33.3638
146.563 499.157 -33.348
157.97 510.584 -57.7147
123.403 519.477 -30.411
119.606 515.312 -1.72135
141.731 494.298 -1.70784
145.725 498.277 -30.3952
144.142 491.898 1.48719
148.132 495.929 30.1533
169.413 473.685 30.1634
165.23 469.849 1.5004
149.01 496.771 33.1015
160.397 508.206 57.4182
182.222 485.403 57.4198
170.291 474.527 33.1116
162.022 509.76 59.6709
179.123 526.9 75.9166
201.76 503.257 75.9033
183.847 486.956 59.6725
181.248 528.929 77.1265
201.451 549.177 82.7691
225.048 524.535 82.7325
203.885 505.286 77.1131
203.753 551.376 82.7553
224.05 571.725 77.0108
248.577 546.043 76.953
227.35 526.734 82.7187
226.179 573.758 75.7858
243.415 591.029 59.5719
268.72 564.466 59.5194
250.706 548.076 75.728
245.045 592.585 57.3228
256.582 604.144 33.0338
282.405 576.992 33.0086
270.349 566.023 57.2703
257.464 604.986 30.0974
261.518 609.044 1.4138
287.523 581.685 1.42793
283.287 577.834 30.0722
261.518 609.043 -1.7644
257.465 604.969 -30.4459
283.287 577.818 -30.3925
287.523 581.684 -1.75027
256.583 604.125 -33.3818
245.049 592.549 -57.6644
270.353 565.987 -57.5843
282.405 576.974 -33.3285
243.42 590.991 -59.9126
226.191 573.703 -76.1164
250.716 548.023 -76.0316
268.724 564.429 -59.8325
224.063 571.668 -77.3402
203.772 551.31 -83.0729
227.367 526.668 -83.0103
248.588 545.988 -77.2554
201.471 549.11 -83.0856
181.273 528.859 -77.4324
203.907 505.217 -77.394
225.066 524.469 -83.023
179.148 526.83 -76.2216
162.05 509.693 -59.9685
183.872 486.89 -59.946
201.783 503.188 -76.1832
160.423 508.14 -57.7126
149.016 496.713 -33.3459
170.294 474.468 -33.3304
182.246 485.338 -57.6901
148.137 495.874 -30.3936
144.142 491.895 -1.70623
165.231 469.846 -1.69302
169.414 473.63 -30.3781
167.524 467.333 1.50175
171.706 471.169 30.1648
191.889 447.92 30.1769
187.525 444.291 1.51462
172.624 471.967 33.1126
184.555 482.843 57.4208
205.25 459.005 57.4303
192.807 448.719 33.1247
186.254 484.317 59.6726
204.167 500.617 75.9034
225.628 475.894 75.9088
206.949 460.478 59.6822
206.387 502.541 77.1119
227.55 521.79 82.7312
249.915 496.018 82.731
227.849 477.818 77.1172
229.955 523.874 82.7161
251.182 543.183 76.9504
274.452 516.359 76.9511
252.32 498.102 82.7158
253.405 545.109 75.7251
271.419 561.499 59.5165
295.457 533.785 59.5213
276.675 518.285 75.7258
273.12 562.974 57.2685
285.175 573.943 33.0068
309.725 545.633 33.0159
297.157 535.259 57.2733
286.096 574.741 30.0725
290.332 578.592 1.42826
315.061 550.073 1.44201
310.645 546.431 30.0816
290.332 578.591 -1.74751
286.096 574.725 -30.3898
310.645 546.416 -30.3715
315.061 550.073 -1.73375
285.176 573.925 -33.3236
273.123 562.938 -57.5794
297.16 535.225 -57.5574
309.725 545.616 -33.3054
271.423 561.462 -59.8266
253.415 545.056 -76.0257
276.684 518.234 -76.0004
295.46 533.749 -59.8046
251.193 543.128 -77.2499
229.972 523.809 -83.0048
252.334 498.039 -82.9793
274.461 516.306 -77.2246
227.567 521.724 -83.0189
206.409 502.473 -77.39
227.868 477.751 -77.3708
249.93 495.955 -82.9934
204.189 500.548 -76.1806
186.278 484.251 -59.9434
206.971 460.414 -59.9293
225.648 475.826 -76.1615
184.578 482.778 -57.6883
172.627 471.909 -33.3286
192.806 448.661 -33.3157
205.271 458.941 -57.6742
171.707 471.113 -30.3766
167.524 467.33 -1.69152
187.525 444.289 -1.67865
191.887 447.866 -30.3637
189.694 441.667 1.516
194.058 445.296 30.1783
213.094 421.091 30.1901
208.558 417.679 1.5285
195.014 446.049 33.1259
207.457 456.335 57.4315
226.977 431.516 57.4413
214.05 421.844 33.1378
209.225 457.725 59.6831
227.904 473.14 75.9096
248.146 447.399 75.917
228.745 432.905 59.6929
230.215 474.954 77.1177
252.281 493.155 82.7315
273.373 466.326 82.7381
250.457 449.213 77.1251
254.784 495.12 82.7163
276.916 513.377 76.9515
298.863 485.46 76.9607
275.876 468.291 82.7228
279.229 515.193 75.7265
298.011 530.693 59.522
320.685 501.851 59.5332
301.176 487.276 75.7357
299.78 532.083 57.2743
312.348 542.458 33.0169
335.508 512.998 33.0296
322.454 503.241 57.2855
313.306 543.21 30.0829
317.721 546.852 1.44337
341.052 517.177 1.45694
336.466 513.751 30.0957
317.721 546.851 -1.73208
313.306 543.195 -30.3699
336.466 513.737 -30.3556
341.052 517.176 -1.71851
312.348 542.441 -33.3034
299.783 532.049 -57.5555
322.456 503.209 -57.5403
335.508 512.982 -33.2892
298.014 530.657 -59.8024
279.237 515.142 -75.9982
301.183 487.227 -75.9817
320.687 501.817 -59.7873
276.925 513.324 -77.2222
254.798 495.057 -82.9769
275.888 468.23 -82.9587
298.871 485.409 -77.2058
252.296 493.091 -82.9911
230.234 474.887 -77.3686
250.473 449.148 -77.352
273.386 466.265 -82.9729
227.924 473.073 -76.1597
209.246 457.66 -59.9275
228.763 432.842 -59.9142
248.163 447.333 -76.1431
207.477 456.271 -57.6728
195.013 445.991 -33.3143
214.045 421.788 -33.3018
226.994 431.453 -57.6594
194.056 445.241 -30.3623
189.694 441.664 -1.67725
208.558 417.676 -1.66475
213.088 421.038 -30.3499
210.598 414.951 1.52982
215.134 418.364 30.1915
232.98 393.257 30.2026
228.284 390.068 1.54191
216.125 419.07 33.1389
229.052 428.741 57.4425
247.352 402.997 57.451
233.972 393.963 33.1501
230.885 430.043 59.6937
250.286 444.537 75.9178
269.262 417.84 75.9239
249.185 404.3 59.7022
252.682 446.238 77.1258
275.598 463.351 82.7388
295.37 435.531 82.745
271.658 419.541 77.1318
278.192 465.193 82.7237
301.179 482.362 76.9616
321.751 453.416 76.9708
297.964 437.373 82.7299
303.577 484.064 75.7368
323.086 498.639 59.5344
344.34 468.735 59.5457
324.149 455.119 75.746
324.921 499.943 57.2869
337.975 509.7 33.0309
359.686 479.154 33.0436
346.176 470.039 57.2982
338.968 510.405 30.0971
343.554 513.831 1.45838
365.426 483.06 1.47164
360.68 479.86 30.1098
343.554 513.83 -1.71698
338.968 510.391 -30.3541
360.679 479.847 -30.3405
365.426 483.06 -1.70373
337.975 509.684 -33.2876
324.923 499.911 -57.5387
346.177 470.009 -57.5243
359.686 479.14 -33.274
323.089 498.606 -59.7855
303.585 484.015 -75.98
324.155 455.072 -75.9642
344.342 468.704 -59.7712
301.187 482.311 -77.2039
278.204 465.132 -82.9568
297.974 437.315 -82.9388
321.758 453.368 -77.188
275.611 463.29 -82.9709
252.698 446.173 -77.35
271.672 419.479 -77.3327
295.381 435.472 -82.9529
250.303 444.472 -76.1414
230.903 429.981 -59.9125
249.2 404.239 -59.8985
269.277 417.778 -76.1241
229.069 428.679 -57.658
216.12 419.014 -33.3004
233.964 393.908 -33.288
247.366 402.937 -57.644
215.128 418.311 -30.3485
210.598 414.949 -1.66337
228.283 390.065 -1.65128
232.971 393.205 -30.3361
230.19 387.244 1.54316
234.886 390.432 30.2039
251.505 364.478 30.2142
246.658 361.52 1.55475
235.911 391.09 33.1511
249.291 400.125 57.4519
266.332 373.516 57.4589
252.529 365.135 33.1615
251.185 401.337 59.7029
271.262 414.878 75.9245
288.93 387.289 75.9281
268.225 374.728 59.7098
273.737 416.461 77.1323
297.449 432.451 82.7455
315.855 403.707 82.7494
291.405 388.873 77.136
300.128 434.166 82.7306
323.916 450.21 76.9715
343.066 420.306 76.979
318.535 405.422 82.7345
326.393 451.795 75.7471
346.584 465.411 59.5468
366.371 434.517 59.5573
345.544 421.892 75.7546
348.48 466.625 57.2995
361.991 475.74 33.0449
382.205 444.181 33.057
368.267 435.73 57.31
363.017 476.397 30.1112
367.764 479.597 1.47304
388.129 447.804 1.48588
383.232 444.837 30.1233
367.764 479.597 -1.70224
363.017 476.384 -30.339
383.231 444.825 -30.3257
388.129 447.803 -1.6894
361.991 475.725 -33.2724
348.482 466.595 -57.5228
368.268 435.702 -57.5084
382.205 444.167 -33.2591
346.586 465.38 -59.7695
326.399 451.748 -75.9625
345.548 421.847 -75.9457
366.372 434.487 -59.7551
323.922 450.162 -77.1861
300.139 434.108 -82.9368
318.544 405.366 -82.9173
343.071 420.26 -77.1694
297.459 432.392 -82.9509
273.751 416.399 -77.3307
291.417 388.813 -77.3119
315.864 403.651 -82.9314
271.276 414.815 -76.1223
251.2 401.277 -59.8967
268.238 374.671 -59.882
288.943 387.229 -76.1035
249.305 400.065 -57.6425
235.902 391.036 -33.2865
252.518 365.084 -33.2743
266.343 373.459 -57.6278
234.877 390.381 -30.3348
230.189 387.241 -1.64992
246.657 361.517 -1.63833
251.493 364.429 -30.3225
248.426 358.605 1.55591
253.273 361.563 30.2154
268.627 334.819 30.225
263.642 332.096 1.56687
254.328 362.171 33.1623
268.13 370.551 57.4597
283.874 343.138 57.4649
269.682 335.426 33.1719
270.08 371.672 59.7102
290.786 384.232 75.9285
307.107 355.816 75.9291
285.824 344.258 59.7154
293.333 385.695 77.1362
317.783 400.53 82.7496
334.784 370.931 82.7504
309.655 357.28 77.1368
320.542 402.115 82.735
345.073 416.999 76.9795
362.76 386.21 76.9848
337.543 372.516 82.7358
347.624 418.463 75.7555
368.452 431.089 59.5581
386.728 399.278 59.5675
365.311 387.675 75.7608
370.405 432.209 57.3111
384.343 440.659 33.0581
403.016 408.159 33.0696
388.681 400.398 57.3205
385.4 441.265 30.1246
390.298 444.232 1.48722
409.111 411.489 1.49966
404.073 408.765 30.1361
390.298 444.231 -1.68794
385.4 441.253 -30.3242
404.073 408.754 -30.311
409.111 411.489 -1.67549
384.343 440.645 -33.2575
370.406 432.181 -57.5068
388.682 400.371 -57.4921
403.016 408.146 -33.2442
368.453 431.059 -59.7533
347.629 418.419 -75.9439
365.315 387.633 -75.926
386.729 399.25 -59.7386
345.078 416.953 -77.1673
320.551 402.059 -82.9152
337.55 372.464 -82.8937
362.764 386.167 -77.1493
317.792 400.474 -82.9291
293.345 385.636 -77.3096
309.665 357.223 -77.2887
334.792 370.878 -82.9075
290.797 384.173 -76.1015
270.093 371.614 -59.88
285.834 344.204 -59.8644
307.117 355.76 -76.0806
268.141 370.494 -57.6262
254.316 362.119 -33.2727
269.668 335.378 -33.2609
283.883 343.084 -57.6107
253.261 361.515 -30.3212
248.425 358.603 -1.63701
263.641 332.094 -1.62605
268.612 334.773 -30.3094
265.268 329.097 1.56793
270.254 331.82 30.226
284.312 304.343 30.2347
279.199 301.86 1.57813
271.337 332.376 33.1725
285.529 340.088 57.4655
299.943 311.931 57.4686
285.395 304.9 33.1812
287.53 341.114 59.7155
308.814 352.672 75.9292
323.754 323.497 75.9261
301.944 312.958 59.7185
311.428 354.013 77.1366
336.557 367.664 82.7502
352.116 337.284 82.7474
326.368 324.837 77.1336
339.389 369.116 82.736
364.606 382.81 76.985
380.791 351.213 76.9877
354.948 338.736 82.7331
367.225 384.151 75.7615
388.641 395.754 59.5682
405.368 363.101 59.576
383.41 352.553 75.7641
390.647 396.777 57.3216
404.982 404.539 33.0706
422.075 371.174 33.0811
407.374 364.125 57.3294
406.068 405.092 30.1373
411.105 407.817 1.50092
428.327 374.202 1.51267
423.161 371.728 30.1479
411.105 407.816 -1.67408
406.068 405.081 -30.3095
423.161 371.717 -30.2968
428.327 374.201 -1.66232
404.982 404.526 -33.2426
390.648 396.751 -57.4905
407.374 364.101 -57.4756
422.075 371.163 -33.2299
388.642 395.726 -59.7367
367.228 384.109 -75.9241
383.413 352.514 -75.9048
405.369 363.076 -59.7218
364.61 382.767 -77.147
339.396 369.064 -82.8914
354.953 338.687 -82.8675
380.794 351.172 -77.1278
336.565 367.612 -82.905
311.437 353.957 -77.2862
326.376 324.785 -77.263
352.122 337.235 -82.8812
308.823 352.616 -76.0784
287.54 341.06 -59.8622
301.951 312.907 -59.846
323.762 323.444 -76.0552
285.537 340.034 -57.6091
271.322 332.328 -33.2592
285.377 304.854 -33.248
299.949 311.881 -57.5929
270.238 331.774 -30.3081
265.267 329.095 -1.62478
279.198 301.858 -1.61459
284.294 304.3 -30.2968
280.68 298.783 1.57908
285.793 301.266 30.2356
298.525 273.113 30.2433
293.297 270.871 1.58843
286.902 301.771 33.1816
301.45 308.803 57.469
314.504 279.965 57.4696
299.634 273.618 33.1893
303.498 309.734 59.7182
325.308 320.273 75.9258
338.836 290.406 75.9183
316.552 280.896 59.7187
327.983 321.489 77.1329
353.73 333.936 82.7468
367.814 302.85 82.7397
341.51 291.623 77.1254
356.628 335.252 82.7329
382.471 347.729 76.9875
397.121 315.4 76.9871
370.711 304.166 82.7259
385.152 348.941 75.7645
407.111 359.49 59.5764
422.254 326.074 59.5826
399.802 316.613 75.7641
409.164 360.414 57.3302
423.865 367.463 33.082
439.343 333.311 33.0916
424.308 326.999 57.3364
424.977 367.963 30.149
430.143 370.437 1.51384
445.738 336.026 1.5249
440.455 333.811 30.1586
430.143 370.436 -1.66097
424.977 367.952 -30.2955
440.455 333.802 -30.2832
445.738 336.026 -1.64992
423.865 367.452 -33.2283
409.165 360.39 -57.474
424.309 326.977 -57.459
439.343 333.301 -33.2161
407.111 359.465 -59.7198
385.155 348.902 -75.9028
399.805 316.577 -75.882
422.255 326.051 -59.7048
382.474 347.689 -77.1253
356.634 335.204 -82.865
370.717 304.121 -82.8385
397.124 315.363 -77.1045
353.736 333.887 -82.8784
327.99 321.437 -77.2602
341.517 291.575 -77.234
367.819 302.804 -82.8518
325.316 320.221 -76.0528
303.505 309.684 -59.8436
316.557 280.85 -59.8263
338.842 290.358 -76.0266
301.456 308.753 -57.5912
286.884 301.726 -33.2463
299.614 273.577 -33.2356
314.508 279.919 -57.5739
285.775 301.223 -30.2956
280.679 298.78 -1.61338
293.296 270.869 -1.60403
298.505 273.074 -30.2849
294.63 267.722 1.58925
299.859 269.964 30.2441
311.24 241.19 30.2507
305.907 239.19 1.59774
300.991 270.417 33.1894
315.86 276.764 57.4697
327.529 247.306 57.4674
312.372 241.644 33.1961
317.95 277.6 59.718
340.234 287.11 75.9175
352.323 256.623 75.9046
329.618 248.142 59.7156
342.963 288.201 77.1242
369.266 299.428 82.7386
381.847 267.715 82.7271
355.052 257.714 77.1114
372.223 300.607 82.7253
398.632 311.841 76.9865
411.719 278.863 76.9827
384.804 268.894 82.7137
401.369 312.923 75.7642
423.822 322.384 59.5827
437.354 288.283 59.5874
414.456 279.945 75.7604
425.919 323.206 57.3372
440.954 329.519 33.0924
454.786 294.657 33.1013
439.451 289.105 57.3418
442.089 329.962 30.1597
447.373 332.178 1.52599
461.31 297.051 1.53639
455.922 295.101 30.1686
447.373 332.177 -1.64864
442.09 329.953 -30.282
455.923 295.093 -30.2703
461.31 297.051 -1.63823
440.954 329.509 -33.2145
425.92 323.184 -57.4574
439.452 289.086 -57.4423
454.787 294.649 -33.2029
423.823 322.362 -59.7027
401.372 312.887 -75.8799
414.459 279.912 -75.8571
437.355 288.263 -59.6875
398.636 311.804 -77.1017
372.228 300.562 -82.8357
384.808 268.852 -82.8061
411.722 278.829 -77.0789
369.272 299.383 -82.8487
342.969 288.153 -77.2308
355.057 257.67 -77.2008
381.852 267.673 -82.8191
340.24 287.062 -76.0239
317.955 277.554 -59.8236
329.622 248.1 -59.8049
352.328 256.579 -75.9938
315.864 276.718 -57.5722
300.97 270.376 -33.2339
312.349 241.607 -33.2238
327.531 247.265 -57.5534
299.838 269.925 -30.2838
294.629 267.72 -1.60288
305.906 239.188 -1.5944
311.217 241.156 -30.2737
307.09 235.975 1.59843
312.422 237.975 30.2514
322.431 208.633 30.2569
317.006 206.872 1.60598
313.575 238.377 33.1959
328.732 244.039 57.4673
338.994 214.021 57.4617
323.583 209.035 33.2014
330.859 244.78 59.7143
353.563 253.261 75.9033
364.191 222.226 75.8844
341.121 214.762 59.7087
356.339 254.227 77.1097
383.135 264.228 82.7254
394.19 231.972 82.709
366.967 223.192 77.0907
386.143 265.268 82.7126
413.059 275.238 76.9816
424.559 241.693 76.9739
397.199 233.012 82.6963
415.846 276.185 75.7602
438.743 284.523 59.5872
450.64 249.815 59.5906
427.346 242.641 75.7525
440.879 285.239 57.3424
456.215 290.791 33.1019
468.376 255.298 33.1099
452.776 250.53 57.3459
457.371 291.177 30.1696
462.76 293.127 1.5374
475.012 257.363 1.54687
469.532 255.684 30.1777
462.76 293.127 -1.63705
457.372 291.17 -30.2692
469.534 255.679 -30.2586
475.012 257.363 -1.62758
456.216 290.783 -33.2013
440.881 285.22 -57.4407
452.778 250.514 -57.4263
468.378 255.292 -33.1908
438.745 284.503 -59.6852
415.849 276.152 -75.8548
427.35 242.61 -75.83
450.643 249.797 -59.6708
413.062 275.204 -77.0759
386.148 265.227 -82.8031
397.204 232.975 -82.7705
424.564 241.662 -77.0511
383.14 264.187 -82.8155
356.344 254.184 -77.1972
366.972 223.154 -77.1628
394.195 231.934 -82.7829
353.568 253.218 -75.9907
330.862 244.739 -59.8018
341.123 214.726 -59.7814
364.196 222.188 -75.9563
328.734 243.999 -57.5516
313.552 238.34 -33.222
323.559 209.004 -33.2125
338.995 213.986 -57.5312
312.399 237.941 -30.2726
307.089 235.973 -1.59331
317.005 206.871 -1.58576
322.406 208.604 -30.2632
318.036 203.597 1.60651
323.461 205.357 30.2574
332.082 175.496 30.2612
326.577 173.97 1.61309
324.631 205.709 33.2009
340.042 210.694 57.4612
348.882 180.174 57.4517
333.252 175.848 33.2047
342.2 211.342 59.7067
365.271 218.806 75.8824
374.423 187.296 75.8567
351.041 180.821 59.6972
368.088 219.649 77.0883
395.311 228.429 82.7066
404.823 195.721 82.6848
377.24 188.139 77.0626
398.365 229.33 82.6947
425.726 238.011 76.9722
435.623 203.982 76.9606
407.878 196.622 82.6729
428.556 238.82 75.7519
451.85 245.994 59.59
462.091 210.754 59.5928
438.454 204.792 75.7402
454.019 246.599 57.3464
469.62 251.368 33.1104
480.086 215.322 33.1172
464.261 211.359 57.3492
470.794 251.695 30.1786
476.274 253.374 1.54778
486.816 217.052 1.55615
481.26 215.649 30.1854
476.274 253.374 -1.62653
470.796 251.69 -30.2576
481.263 215.646 -30.248
486.817 217.052 -1.61815
469.621 251.362 -33.1894
454.022 246.584 -57.4249
464.265 211.347 -57.4122
480.089 215.319 -33.1799
451.853 245.977 -59.6684
428.56 238.79 -75.8277
438.46 204.764 -75.8013
462.096 210.74 -59.6557
425.73 237.98 -77.0478
398.37 229.293 -82.7672
407.884 196.589 -82.7313
435.63 203.954 -77.0214
395.316 228.392 -82.7789
368.093 219.611 -77.1587
377.246 188.107 -77.1193
404.83 195.688 -82.743
365.276 218.769 -75.9527
342.203 211.307 -59.7778
351.044 180.794 -59.7551
374.428 187.264 -75.9133
340.043 210.66 -57.5292
324.606 205.678 -33.2105
333.227 175.823 -33.2011
348.884 180.146 -57.5064
323.436 205.328 -30.2621
318.035 203.595 -1.58472
326.576 173.969 -1.57814
332.057 175.474 -30.2528
327.454 170.639 1.61334
332.959 172.165 30.2615
340.193 141.832 30.2594
334.621 140.534 1.61895
334.144 172.467 33.2035
349.774 176.794 57.4505
357.19 145.827 57.4315
341.378 142.134 33.2015
351.959 177.351 59.6942
375.341 183.826 75.8537
383.008 151.919 75.8173
359.374 146.385 59.6752
378.191 184.55 77.0592
405.775 192.132 82.6814
413.732 159.073 82.6473
385.859 152.643 77.0228
408.868 192.893 82.6705
436.614 200.253 76.9582
444.894 165.82 76.9428
416.825 159.833 82.6364
439.482 200.919 75.7393
463.119 206.881 59.592
471.681 171.181 59.594
447.761 166.486 75.7239
465.317 207.373 57.3496
481.141 211.336 33.1176
489.876 174.812 33.1206
473.879 171.673 57.3515
482.331 211.602 30.1861
487.887 213.005 1.55687
496.678 176.203 1.56376
491.065 175.078 30.1891
487.887 213.005 -1.61719
482.334 211.6 -30.2471
491.07 175.08 -30.2369
496.679 176.203 -1.61031
481.145 211.333 -33.1787
465.321 207.36 -57.411
473.887 171.664 -57.4006
489.882 174.813 -33.1684
463.124 206.867 -59.6533
439.488 200.892 -75.7989
447.771 166.461 -75.7717
471.689 171.171 -59.643
436.621 200.225 -77.0175
408.875 192.86 -82.7274
416.835 159.804 -82.6814
444.904 165.794 -76.9903
405.782 192.099 -82.7381
378.198 184.519 -77.1145
385.867 152.618 -77.0661
413.742 159.044 -82.6921
375.347 183.795 -75.9089
351.962 177.324 -59.7507
359.379 146.367 -59.7197
383.016 151.894 -75.8605
349.775 176.767 -57.5039
334.119 172.444 -33.1985
341.354 142.119 -33.1848
357.193 145.81 -57.4729
332.933 172.143 -30.2516
327.453 170.638 -1.57699
334.62 140.533 -1.57138
340.168 141.818 -30.2379
335.349 137.154 1.61806
340.92 138.451 30.2585
346.834 107.704 30.2243
341.219 106.629 1.62265
342.117 138.706 33.1974
357.928 142.4 57.4274
363.961 111.056 57.355
348.03 107.959 33.1632
360.132 142.873 59.6684
383.766 148.407 75.8105
389.959 116.193 75.7168
366.165 111.529 59.5959
386.641 149.019 77.0153
414.514 155.448 82.6397
420.896 122.15 82.5407
392.834 116.805 76.9216
417.639 156.068 82.6309
445.707 162.054 76.9373
452.323 127.28 76.8941
424.02 122.769 82.5318
448.602 162.569 75.7214
472.522 167.264 59.5914
479.322 131.164 59.5646
455.219 127.794 75.6782
474.74 167.638 57.3504
490.737 170.777 33.1194
497.628 133.84 33.0982
481.539 131.538 57.3236
491.936 170.982 30.189
497.549 172.107 1.5636
504.469 134.889 1.56778
498.827 134.045 30.1678
497.549 172.107 -1.60894
491.941 170.984 -30.2355
498.837 134.051 -30.2064
504.47 134.889 -1.60476
490.743 170.778 -33.1661
474.748 167.63 -57.3983
481.553 131.534 -57.3638
497.638 133.845 -33.137
472.531 167.255 -59.6393
448.612 162.544 -75.768
455.233 127.772 -75.7159
479.336 131.159 -59.6048
445.717 162.029 -76.9836
417.648 156.039 -82.6748
424.035 122.744 -82.5656
452.338 127.257 -76.9315
414.524 155.42 -82.6833
386.65 148.994 -77.0573
392.848 116.787 -76.9526
420.91 122.125 -82.5742
383.774 148.383 -75.8524
360.137 142.856 -59.7116
366.175 111.524 -59.6273
389.972 116.176 -75.7478
357.931 142.384 -57.4675
342.092 138.693 -33.1794
348.01 107.959 -33.1347
363.969 111.052 -57.3832
340.896 138.439 -30.2358
335.347 137.153 -1.56927
341.218 106.628 -1.56468
346.813 107.705 -30.1911
341.826 103.213 1.61555
347.441 104.288 30.2172
352.477 73.2885 29.998
346.888 72.4278 1.61751
348.639 104.499 33.1424
364.57 107.596 57.3342
369.541 76.0401 56.9372
353.675 73.4996 32.9231
366.776 107.991 59.5654
390.57 112.655 75.6862
395.449 80.3128 75.1784
371.748 76.435 59.1684
393.451 113.161 76.8876
421.513 118.507 82.5067
426.295 85.0985 81.9877
398.329 80.8186 76.3799
424.647 118.979 82.5023
452.95 123.489 76.8646
457.667 88.3913 76.474
429.43 85.5705 81.9833
455.85 123.84 75.656
479.953 127.21 59.5424
484.549 90.7226 59.2077
460.566 88.7419 75.2654
482.173 127.461 57.3075
498.262 129.763 33.0821
502.789 92.4281 32.882
486.769 90.9739 56.9729
499.462 129.906 30.1615
505.104 130.75 1.56156
509.613 93.1332 1.55248
503.989 92.5709 29.9614
505.104 130.75 -1.59884
499.471 129.912 -30.2005
503.998 92.5817 -30.0094
509.613 93.1338 -1.60792
498.272 129.769 -33.1204
482.187 127.458 -57.3472
486.795 90.9758 -56.9972
502.799 92.4392 -32.9293
479.968 127.204 -59.5813
455.866 123.818 -75.6924
460.592 88.7223 -75.2856
484.576 90.7226 -59.2313
452.966 123.466 -76.9007
424.662 118.954 -82.5347
429.455 85.5498 -82.0032
457.692 88.3706 -76.4939
421.528 118.482 -82.539
393.465 113.144 -76.9174
398.352 80.8089 -76.3992
426.32 85.0783 -82.0074
390.584 112.639 -75.7159
366.787 107.987 -59.5954
371.769 76.4453 -59.1849
395.472 80.3045 -75.1976
364.579 107.594 -57.3612
348.62 104.501 -33.1127
353.666 73.5193 -32.8855
369.561 76.0516 -56.9507
347.421 104.29 -30.183
341.825 103.214 -1.55666
346.888 72.4284 -1.55469
352.467 73.3079 -29.9558
347.566 69.0463 1.57373
353.155 69.9069 29.9542
360.247 39.6087 28.6559
354.924 38.8399 1.57168
354.32 70.0859 32.8011
370.186 72.6265 56.8151
376.525 42.0498 54.4425
361.412 39.7878 31.5027
372.336 72.9622 58.9912
396.037 76.8401 75.0013
401.281 45.7681 71.9512
378.675 42.3855 56.6186
398.843 77.2648 76.1767
426.81 81.5447 81.7845
430.795 49.934 78.5398
404.088 46.1929 73.1266
429.85 81.929 81.7885
458.086 84.7498 76.2792
460.659 53.323 73.176
433.835 50.3183 78.5438
460.915 85.0287 75.1055
484.898 87.0094 59.0479
486.227 55.8301 56.6228
463.488 53.6018 72.0023
487.067 87.2086 56.8651
503.088 88.6628 32.7742
503.624 57.5487 31.4469
488.397 56.0293 54.44
504.262 88.7761 29.9222
509.885 89.3384 1.51332
510.145 58.1992 1.5038
504.799 57.662 28.595
509.885 89.338 -1.57081
504.27 88.7858 -29.9723
504.797 57.6297 -28.6514
510.145 58.1988 -1.58033
503.098 88.6721 -32.8209
487.094 87.2088 -56.8888
488.426 55.9976 -54.4444
503.624 57.516 -31.5
484.926 87.0088 -59.0694
460.942 85.0085 -75.1237
463.518 53.5836 -72.0068
486.258 55.7976 -56.625
458.113 84.7297 -76.2977
429.875 81.9088 -81.807
433.865 50.3052 -78.5525
460.69 53.3047 -73.1808
426.835 81.5253 -81.8032
398.867 77.2559 -76.1949
404.115 46.1939 -73.1393
430.825 49.9217 -78.5487
396.06 76.8333 -75.0197
372.358 72.974 -59.007
378.694 42.4218 -56.6346
401.308 45.7712 -71.9641
370.206 72.6401 -56.8281
354.311 70.1078 -32.7629
361.398 39.8313 -31.4687
376.542 42.0878 -54.4557
353.145 69.9275 -29.9118
347.565 69.0479 -1.51072
354.923 38.8415 -1.51276
360.232 39.651 -28.6176
355.775 35.5289 1.48645
361.099 36.2978 28.5706
369.085 6.7793 26.7957
364.092 6.10871 1.47879
362.2 36.456 31.2613
377.313 38.718 54.201
384.354 8.92449 50.9225
370.187 6.93748 29.4863
379.345 39.0122 56.2584
401.952 42.3949 71.5909
407.57 12.1634 67.2899
386.386 9.21872 52.9798
404.605 42.7669 72.7035
431.312 46.508 78.1166
435.215 15.8445 73.4232
410.224 12.5354 68.4024
434.185 46.869 78.1172
461.01 49.8736 72.7494
463.117 19.1508 68.3822
438.088 16.2055 73.4238
463.671 50.1659 71.6353
486.411 52.3942 56.2558
486.969 21.7785 52.9046
465.778 19.4431 67.268
488.451 52.6072 54.1935
503.678 54.1267 31.2005
503.169 23.5549 29.385
489.009 21.9915 50.8423
504.783 54.2419 28.5085
510.129 54.7792 1.41729
509.239 24.1908 1.4313
504.274 23.6701 26.693
510.129 54.7765 -1.49301
504.781 54.2074 -28.5641
504.269 23.6032 -26.7249
509.239 24.188 -1.479
503.677 54.0897 -31.2523
488.479 52.5712 -54.1967
489.028 21.9312 -50.837
503.166 23.4855 -29.4131
486.441 52.3603 -56.2569
463.701 50.1463 -71.6386
465.799 19.427 -67.2687
486.99 21.7202 -52.8972
461.04 49.8558 -72.7534
434.215 46.8564 -78.1251
438.109 16.1974 -73.4272
463.138 19.1366 -68.3835
431.342 46.4964 -78.1248
404.632 42.7685 -72.7155
410.242 12.5405 -68.4092
435.235 15.8374 -73.4269
401.978 42.3995 -71.6035
379.364 39.05 -56.2741
386.392 9.27494 -52.9946
407.588 12.1714 -67.2972
377.329 38.7586 -54.2147
362.185 36.5021 -31.2277
370.164 7.00531 -29.4647
384.357 8.98352 -50.9353
361.083 36.3413 -28.5334
355.774 35.5318 -1.4285
364.091 6.11161 -1.43616
369.062 6.84454 -26.7704
365.116 3.10069 1.34912
370.109 3.77128 26.666
380.264 -21.1727 23.7817
375.842 -21.7942 1.32999
371.116 3.91094 29.1217
385.283 5.89795 50.5579
393.87 -19.274 45.2677
381.271 -21.033 26.2374
387.144 6.15423 52.435
408.328 9.09888 66.7451
414.615 -16.4911 59.8141
395.731 -19.0177 47.1448
410.755 9.42496 67.7567
435.747 12.7341 72.7775
439.279 -13.2182 65.216
417.043 -16.165 60.8257
438.37 13.0713 72.7743
463.398 16.0166 67.7326
464.085 -9.95172 60.6874
441.902 -12.881 65.2127
465.823 16.314 66.7156
487.014 18.6493 52.3522
485.271 -7.18109 46.9507
466.51 -9.65432 59.6704
488.871 18.8736 50.4741
503.031 20.437 29.0167
499.641 -5.309 26.109
487.128 -6.95684 45.0726
504.036 20.5571 26.5657
509.001 21.0777 1.30408
505.034 -4.61126 1.32532
500.645 -5.18889 23.658
509.001 21.0757 -1.34723
504.031 20.4909 -26.5931
500.645 -5.19173 -23.6586
505.034 -4.61326 -1.32599
503.027 20.3688 -29.0435
488.889 18.8146 -50.4674
487.128 -6.96162 -45.0728
499.64 -5.31381 -26.109
487.032 18.5923 -52.3452
465.842 16.299 -66.7167
466.51 -9.65691 -59.6704
485.272 -7.1839 -46.9505
463.418 16.003 -67.7337
438.388 13.0638 -72.7774
441.903 -12.8821 -65.2126
464.086 -9.95289 -60.6874
435.765 12.7272 -72.7807
410.772 9.43027 -67.7629
417.044 -16.1654 -60.8258
439.28 -13.2188 -65.216
408.343 9.10585 -66.7513
387.147 6.20935 -52.4487
395.731 -19.0162 -47.145
414.615 -16.4898 -59.8142
385.286 5.95529 -50.5711
371.093 3.97708 -29.1005
381.271 -21.0292 -26.2371
393.87 -19.2702 -45.2674
370.086 3.83558 -26.6442
365.115 3.10266 -1.30998
375.841 -21.7922 -1.32912
380.264 -21.1707 -23.7809
-305.928 729.128 25.3555
-307.134 724.124 -0.407175
-305.873 729.097 -26.1726
-302.359 743.277 -47.987
-297.151 764.485 -62.5173
-291.162 789.495 -67.5888
-285.498 814.581 -62.512
-280.931 835.967 -48.0161
-277.931 850.309 -26.2266
-276.892 855.363 -0.470252
-277.974 850.348 25.2915
-280.992 836.029 47.0928
-285.568 814.658 61.607
-291.235 789.578 66.7079
-297.218 764.563 61.6602
-302.427 743.337 47.1552
382.635 -22.3863 1.76393e-05
387.057 -21.7648 22.4517
399.656 -20.0058 41.4821
418.54 -17.4792 54.1513
440.777 -14.5323 58.5415
462.96 -11.603 54.0162
481.721 -9.1298 41.2965
494.234 -7.48197 22.3329
498.623 -6.90434 0.000247942
494.233 -7.48281 -22.3323
481.721 -9.13061 -41.2962
462.96 -11.6036 -54.016
440.777 -14.5328 -58.5413
418.54 -17.4795 -54.1511
399.656 -20.0059 -41.482
387.057 -21.7648 -22.4517
</DataArray>
</Points>
<Cells>
<DataArray type="Int32" Name="connectivity" format="ascii">
0 1 2 3 
4 5 6 7 
8 9 10 11 
12 13 14 15 
16 17 18 19 
20 21 22 23 
24 25 26 27 
28 29 30 31 
32 33 34 35 
36 37 38 39 
40 41 42 43 
44 45 46 47 
48 49 50 51 
52 53 54 55 
56 57 58 59 
60 61 62 63 
64 65 66 67 
68 69 70 71 
72 73 74 75 
76 77 78 79 
80 81 82 83 
84 85 86 87 
88 89 90 91 
92 93 94 95 
96 97 98 99 
100 101 102 103 
104 105 106 107 
108 109 110 111 
112 113 114 115 
116 117 118 119 
120 121 122 123 
124 125 126 127 
128 129 130 131 
132 133 134 135 
136 137 138 139 
140 141 142 143 
144 145 146 147 
148 149 150 151 
152 153 154 155 
156 157 158 159 
160 161 162 163 
164 165 166 167 
168 169 170 171 
172 173 174 175 
176 177 178 179 
180 181 182 183 
184 185 186 187 
188 189 190 191 
192 193 194 195 
196 197 198 199 
200 201 202 203 
204 205 206 207 
208 209 210 211 
212 213 214 215 
216 217 218 219 
220 221 222 223 
224 225 226 227 
228 229 230 231 
232 233 234 235 
236 237 238 239 
240 241 242 243 
244 245 246 247 
248 249 250 251 
252 253 254 255 
256 257 258 259 
260 261 262 263 
264 265 266 267 
268 269 270 271 
272 273 274 275 
276 277 278 279 
280 281 282 283 
284 285 286 287 
288 289 290 291 
292 293 294 295 
296 297 298 299 
300 301 302 303 
304 305 306 307 
308 309 310 311 
312 313 314 315 
316 317 318 319 
320 321 322 323 
324 325 326 327 
328 329 330 331 
332 333 334 335 
336 337 338 339 
340 341 342 343 
344 345 346 347 
348 349 350 351 
352 353 354 355 
356 357 358 359 
360 361 362 363 
364 365 366 367 
368 369 370 371 
372 373 374 375 
376 377 378 379 
380 381 382 383 
384 385 386 387 
388 389 390 391 
392 393 394 395 
396 397 398 399 
400 401 402 403 
404 405 406 407 
408 409 410 411 
412 413 414 415 
416 417 418 419 
420 421 422 423 
424 425 426 427 
428 429 430 431 
432 433 434 435 
436 437 438 439 
440 441 442 443 
444 445 446 447 
448 449 450 451 
452 453 454 455 
456 457 458 459 
460 461 462 463 
464 465 466 467 
468 469 470 471 
472 473 474 475 
476 477 478 479 
480 481 482 483 
484 485 486 487 
488 489 490 491 
492 493 494 495 
496 497 498 499 
500 501 502 503 
504 505 506 507 
508 509 510 511 
512 513 514 515 
516 517 518 519 
520 521 522 523 
524 525 526 527 
528 529 530 531 
532 533 534 535 
536 537 538 539 
540 541 542 543 
544 545 546 547 
548 549 550 551 
552 553 554 555 
556 557 558 559 
560 561 562 563 
564 565 566 567 
568 569 570 571 
572 573 574 575 
576 577 578 579 
580 581 582 583 
584 585 586 587 
588 589 590 591 
592 593 594 595 
596 597 598 599 
600 601 602 603 
604 605 606 607 
608 609 610 611 
612 613 614 615 
616 617 618 619 
620 621 622 623 
624 625 626 627 
628 629 630 631 
632 633 634 635 
636 637 638 639 
640 641 642 643 
644 645 646 647 
648 649 650 651 
652 653 654 655 
656 657 658 659 
660 661 662 663 
664 665 666 667 
668 669 670 671 
672 673 674 675 
676 677 678 679 
680 681 682 683 
684 685 686 687 
688 689 690 691 
692 693 694 695 
696 697 698 699 
700 701 702 703 
704 705 706 707 
708 709 710 711 
712 713 714 715 
716 717 718 719 
720 721 722 723 
724 725 726 727 
728 729 730 731 
732 733 734 735 
736 737 738 739 
740 741 742 743 
744 745 746 747 
748 749 750 751 
752 753 754 755 
756 757 758 759 
760 761 762 763 
764 765 766 767 
768 769 770 771 
772 773 774 775 
776 777 778 779 
780 781 782 783 
784 785 786 787 
788 789 790 791 
792 793 794 795 
796 797 798 799 
800 801 802 803 
804 805 806 807 
808 809 810 811 
812 813 814 815 
816 817 818 819 
820 821 822 823 
824 825 826 827 
828 829 830 831 
832 833 834 835 
836 837 838 839 
840 841 842 843 
844 845 846 847 
848 849 850 851 
852 853 854 855 
856 857 858 859 
860 861 862 863 
864 865 866 867 
868 869 870 871 
872 873 874 875 
876 877 878 879 
880 881 882 883 
884 885 886 887 
888 889 890 891 
892 893 894 895 
896 897 898 899 
900 901 902 903 
904 905 906 907 
908 909 910 911 
912 913 914 915 
916 917 918 919 
920 921 922 923 
924 925 926 927 
928 929 930 931 
932 933 934 935 
936 937 938 939 
940 941 942 943 
944 945 946 947 
948 949 950 951 
952 953 954 955 
956 957 958 959 
960 961 962 963 
964 965 966 967 
968 969 970 971 
972 973 974 975 
976 977 978 979 
980 981 982 983 
984 985 986 987 
988 989 990 991 
992 993 994 995 
996 997 998 999 
1000 1001 1002 1003 
1004 1005 1006 1007 
1008 1009 1010 1011 
1012 1013 1014 1015 
1016 1017 1018 1019 
1020 1021 1022 1023 
1024 1025 1026 1027 
1028 1029 1030 1031 
1032 1033 1034 1035 
1036 1037 1038 1039 
1040 1041 1042 1043 
1044 1045 1046 1047 
1048 1049 1050 1051 
1052 1053 1054 1055 
1056 1057 1058 1059 
1060 1061 1062 1063 
1064 1065 1066 1067 
1068 1069 1070 1071 
1072 1073 1074 1075 
1076 1077 1078 1079 
1080 1081 1082 1083 
1084 1085 1086 1087 
1088 1089 1090 1091 
1092 1093 1094 1095 
1096 1097 1098 1099 
1100 1101 1102 1103 
1104 1105 1106 1107 
1108 1109 1110 1111 
1112 1113 1114 1115 
1116 1117 1118 1119 
1120 1121 1122 1123 
1124 1125 1126 1127 
1128 1129 1130 1131 
1132 1133 1134 1135 
1136 1137 1138 1139 
1140 1141 1142 1143 
1144 1145 1146 1147 
1148 1149 1150 1151 
1152 1153 1154 1155 
1156 1157 1158 1159 
1160 1161 1162 1163 
1164 1165 1166 1167 
1168 1169 1170 1171 
1172 1173 1174 1175 
1176 1177 1178 1179 
1180 1181 1182 1183 
1184 1185 1186 1187 
1188 1189 1190 1191 
1192 1193 1194 1195 
1196 1197 1198 1199 
1200 1201 1202 1203 
1204 1205 1206 1207 
1208 1209 1210 1211 
1212 1213 1214 1215 
1216 1217 1218 1219 
1220 1221 1222 1223 
1224 1225 1226 1227 
1228 1229 1230 1231 
1232 1233 1234 1235 
1236 1237 1238 1239 
1240 1241 1242 1243 
1244 1245 1246 1247 
1248 1249 1250 1251 
1252 1253 1254 1255 
1256 1257 1258 1259 
1260 1261 1262 1263 
1264 1265 1266 1267 
1268 1269 1270 1271 
1272 1273 1274 1275 
1276 1277 1278 1279 
1280 1281 1282 1283 
1284 1285 1286 1287 
1288 1289 1290 1291 
1292 1293 1294 1295 
1296 1297 1298 1299 
1300 1301 1302 1303 
1304 1305 1306 1307 
1308 1309 1310 1311 
1312 1313 1314 1315 
1316 1317 1318 1319 
1320 1321 1322 1323 
1324 1325 1326 1327 
1328 1329 1330 1331 
1332 1333 1334 1335 
1336 1337 1338 1339 
1340 1341 1342 1343 
1344 1345 1346 1347 
1348 1349 1350 1351 
1352 1353 1354 1355 
1356 1357 1358 1359 
1360 1361 1362 1363 
1364 1365 1366 1367 
1368 1369 1370 1371 
1372 1373 1374 1375 
1376 1377 1378 1379 
1380 1381 1382 1383 
1384 1385 1386 1387 
1388 1389 1390 1391 
1392 1393 1394 1395 
1396 1397 1398 1399 
1400 1401 1402 1403 
1404 1405 1406 1407 
1408 1409 1410 1411 
1412 1413 1414 1415 
1416 1417 1418 1419 
1420 1421 1422 1423 
1424 1425 1426 1427 
1428 1429 1430 1431 
1432 1433 1434 1435 
1436 1437 1438 1439 
1440 1441 1442 1443 
1444 1445 1446 1447 
1448 1449 1450 1451 
1452 1453 1454 1455 
1456 1457 1458 1459 
1460 1461 1462 1463 
1464 1465 1466 1467 
1468 1469 1470 1471 
1472 1473 1474 1475 
1476 1477 1478 1479 
1480 1481 1482 1483 
1484 1485 1486 1487 
1488 1489 1490 1491 
1492 1493 1494 1495 
1496 1497 1498 1499 
1500 1501 1502 1503 
1504 1505 1506 1507 
1508 1509 1510 1511 
1512 1513 1514 1515 
1516 1517 1518 1519 
1520 1521 1522 1523 
1524 1525 1526 1527 
1528 1529 1530 1531 
1532 1533 1534 1535 
1536 1537 1538 1539 
1540 1541 1542 1543 
1544 1545 1546 1547 
1548 1549 1550 1551 
1552 1553 1554 1555 
1556 1557 1558 1559 
1560 1561 1562 1563 
1564 1565 1566 1567 
1568 1569 1570 1571 
1572 1573 1574 1575 
1576 1577 1578 1579 
1580 1581 1582 1583 
1584 1585 1586 1587 
1588 1589 1590 1591 
1592 1593 1594 1595 
1596 1597 1598 1599 
1600 1601 1602 1603 
1604 1605 1606 1607 
1608 1609 1610 1611 
1612 1613 1614 1615 
1616 1617 1618 1619 
1620 1621 1622 1623 
1624 1625 1626 1627 
1628 1629 1630 1631 
1632 1633 1634 1635 
1636 1637 1638 1639 
1640 1641 1642 1643 
1644 1645 1646 1647 
1648 1649 1650 1651 
1652 1653 1654 1655 
1656 1657 1658 1659 
1660 1661 1662 1663 
1664 1665 1666 1667 
1668 1669 1670 1671 
1672 1673 1674 1675 
1676 1677 1678 1679 
1680 1681 1682 1683 
1684 1685 1686 1687 
1688 1689 1690 1691 
1692 1693 1694 1695 
1696 1697 1698 1699 
1700 1701 1702 1703 
1704 1705 1706 1707 
1708 1709 1710 1711 
1712 1713 1714 1715 
1716 1717 1718 1719 
1720 1721 1722 1723 
1724 1725 1726 1727 
1728 1729 1730 1731 
1732 1733 1734 1735 
1736 1737 1738 1739 
1740 1741 1742 1743 
1744 1745 1746 1747 
1748 1749 1750 1751 
1752 1753 1754 1755 
1756 1757 1758 1759 
1760 1761 1762 1763 
1764 1765 1766 1767 
1768 1769 1770 1771 
1772 1773 1774 1775 
1776 1777 1778 1779 
1780 1781 1782 1783 
1784 1785 1786 1787 
1788 1789 1790 1791 
1792 1793 1794 1795 
1796 1797 1798 1799 
1800 1801 1802 1803 
1804 1805 1806 1807 
1808 1809 1810 1811 
1812 1813 1814 1815 
1816 1817 1818 1819 
1820 1821 1822 1823 
1824 1825 1826 1827 
1828 1829 1830 1831 
1832 1833 1834 1835 
1836 1837 1838 1839 
1840 1841 1842 1843 
1844 1845 1846 1847 
1848 1849 1850 1851 
1852 1853 1854 1855 
1856 1857 1858 1859 
1860 1861 1862 1863 
1864 1865 1866 1867 
1868 1869 1870 1871 
1872 1873 1874 1875 
1876 1877 1878 1879 
1880 1881 1882 1883 
1884 1885 1886 1887 
1888 1889 1890 1891 
1892 1893 1894 1895 
1896 1897 1898 1899 
1900 1901 1902 1903 
1904 1905 1906 1907 
1908 1909 1910 1911 
1912 1913 1914 1915 
1916 1917 1918 1919 
1920 1921 1922 1923 
1924 1925 1926 1927 
1928 1929 1930 1931 
1932 1933 1934 1935 
1936 1937 1938 1939 
1940 1941 1942 1943 
1944 1945 1946 1947 
1948 1949 1950 1951 
1952 1953 1954 1955 
1956 1957 1958 1959 
1960 1961 1962 1963 
1964 1965 1966 1967 
1968 1969 1970 1971 
1972 1973 1974 1975 
1976 1977 1978 1979 
1980 1981 1982 1983 
1984 1985 1986 1987 
1988 1989 1990 1991 
1992 1993 1994 1995 
1996 1997 1998 1999 
2000 2001 2002 2003 
2004 2005 2006 2007 
2008 2009 2010 2011 
2012 2013 2014 2015 
2016 2017 2018 2019 
2020 2021 2022 2023 
2024 2025 2026 2027 
2028 2029 2030 2031 
2032 2033 2034 2035 
2036 2037 2038 2039 
2040 2041 2042 2043 
2044 2045 2046 2047 
2048 2049 2050 2051 2052 2053 2054 2055 2056 2057 2058 2059 2060 2061 2062 2063 
2064 2065 2066 2067 2068 2069 2070 2071 2072 2073 2074 2075 2076 2077 2078 2079 
</DataArray>
<DataArray type="Int32" Name="offsets" format="ascii">
4 8 12 16 20 24 28 32 36 40 44 48 52 56 60 64 68 72 76 80 84 88 92 96 100 104 108 112 116 120 124 128 132 136 140 144 148 152 156 160 164 168 172 176 180 184 188 192 196 200 204 208 212 216 220 224 228 232 236 240 244 248 252 256 260 264 268 272 276 280 284 288 292 296 300 304 308 312 316 320 324 328 332 336 340 344 348 352 356 360 364 368 372 376 380 384 388 392 396 400 404 408 412 416 420 424 428 432 436 440 444 448 452 456 460 464 468 472 476 480 484 488 492 496 500 504 508 512 516 520 524 528 532 536 540 544 548 552 556 560 564 568 572 576 580 584 588 592 596 600 604 608 612 616 620 624 628 632 636 640 644 648 652 656 660 664 668 672 676 680 684 688 692 696 700 704 708 712 716 720 724 728 732 736 740 744 748 752 756 760 764 768 772 776 780 784 788 792 796 800 804 808 812 816 820 824 828 832 836 840 844 848 852 856 860 864 868 872 876 880 884 888 892 896 900 904 908 912 916 920 924 928 932 936 940 944 948 952 956 960 964 968 972 976 980 984 988 992 996 1000 1004 1008 1012 1016 1020 1024 1028 1032 1036 1040 1044 1048 1052 1056 1060 1064 1068 1072 1076 1080 1084 1088 1092 1096 1100 1104 1108 1112 1116 1120 1124 1128 1132 1136 1140 1144 1148 1152 1156 1160 1164 1168 1172 1176 1180 1184 1188 1192 1196 1200 1204 1208 1212 1216 1220 1224 1228 1232 1236 1240 1244 1248 1252 1256 1260 1264 1268 1272 1276 1280 1284 1288 1292 1296 1300 1304 1308 1312 1316 1320 1324 1328 1332 1336 1340 1344 1348 1352 1356 1360 1364 1368 1372 1376 1380 1384 1388 1392 1396 1400 1404 1408 1412 1416 1420 1424 1428 1432 1436 1440 1444 1448 1452 1456 1460 1464 1468 1472 1476 1480 1484 1488 1492 1496 1500 1504 1508 1512 1516 1520 1524 1528 1532 1536 1540 1544 1548 1552 1556 1560 1564 1568 1572 1576 1580 1584 1588 1592 1596 1600 1604 1608 1612 1616 1620 1624 1628 1632 1636 1640 1644 1648 1652 1656 1660 1664 1668 1672 1676 1680 1684 1688 1692 1696 1700 1704 1708 1712 1716 1720 1724 1728 1732 1736 1740 1744 1748 1752 1756 1760 1764 1768 1772 1776 1780 1784 1788 1792 1796 1800 1804 1808 1812 1816 1820 1824 1828 1832 1836 1840 1844 1848 1852 1856 1860 1864 1868 1872 1876 1880 1884 1888 1892 1896 1900 1904 1908 1912 1916 1920 1924 1928 1932 1936 1940 1944 1948 1952 1956 1960 1964 1968 1972 1976 1980 1984 1988 1992 1996 2000 2004 2008 2012 2016 2020 2024 2028 2032 2036 2040 2044 2048 2064 2080 
</DataArray>
<DataArray type="UInt8" Name="types" format="ascii">
7 7 7 7 7 7 7 7 7 7 7 7 7 7 7 7 7 7 7 7 7 7 7 7 7 7 7 7 7 7 7 7 7 7 7 7 7 7 7 7 7 7 7 7 7 7 7 7 7 7 7 7 7 7 7 7 7 7 7 7 7 7 7 7 7 7 7 7 7 7 7 7 7 7 7 7 7 7 7 7 7 7 7 7 7 7 7 7 7 7 7 7 7 7 7 7 7 7 7 7 7 7 7 7 7 7 7 7 7 7 7 7 7 7 7 7 7 7 7 7 7 7 7 7 7 7 7 7 7 7 7 7 7 7 7 7 7 7 7 7 7 7 7 7 7 7 7 7 7 7 7 7 7 7 7 7 7 7 7 7 7 7 7 7 7 7 7 7 7 7 7 7 7 7 7 7 7 7 7 7 7 7 7 7 7 7 7 7 7 7 7 7 7 7 7 7 7 7 7 7 7 7 7 7 7 7 7 7 7 7 7 7 7 7 7 7 7 7 7 7 7 7 7 7 7 7 7 7 7 7 7 7 7 7 7 7 7 7 7 7 7 7 7 7 7 7 7 7 7 7 7 7 7 7 7 7 7 7 7 7 7 7 7 7 7 7 7 7 7 7 7 7 7 7 7 7 7 7 7 7 7 7 7 7 7 7 7 7 7 7 7 7 7 7 7 7 7 7 7 7 7 7 7 7 7 7 7 7 7 7 7 7 7 7 7 7 7 7 7 7 7 7 7 7 7 7 7 7 7 7 7 7 7 7 7 7 7 7 7 7 7 7 7 7 7 7 7 7 7 7 7 7 7 7 7 7 7 7 7 7 7 7 7 7 7 7 7 7 7 7 7 7 7 7 7 7 7 7 7 7 7 7 7 7 7 7 7 7 7 7 7 7 7 7 7 7 7 7 7 7 7 7 7 7 7 7 7 7 7 7 7 7 7 7 7 7 7 7 7 7 7 7 7 7 7 7 7 7 7 7 7 7 7 7 7 7 7 7 7 7 7 7 7 7 7 7 7 7 7 7 7 7 7 7 7 7 7 7 7 7 7 7 7 7 7 7 7 7 7 7 7 7 7 7 7 7 7 7 7 7 7 7 7 7 7 7 7 7 7 7 7 7 7 7 7 7 7 7 7 7 7 7 7 7 7 7 7 7 7 7 7 7 7 7 
</DataArray>
</Cells>
<CellData Scalars="cell variable 4" Vectors="cell vector">
<DataArray type="Float64" NumberOfComponents="3" Name="cell vector" format="ascii">
0.134907 0.150447 0.97937
0.390336 0.410547 0.824068
0.535594 0.623462 0.569591
0.449301 0.862516 0.232796
-0.0711533 0.968582 -0.238298
-0.120982 0.80934 -0.574745
0.0601002 -0.546493 0.835305
0.0170636 -0.192835 0.981083
-0.00737977 0.193289 0.981114
-0.0577902 0.547129 0.835051
-0.121928 0.809589 0.574194
-0.073113 0.968526 0.237932
0.44351 0.865615 -0.232399
0.526507 0.630035 -0.570829
-0.367764 -0.423598 0.827837
-0.144287 -0.145546 0.978774
0.0648154 0.18512 0.980576
0.186124 0.525155 0.830403
0.264616 0.788543 0.555138
0.253845 0.947233 0.195736
0.153341 0.968552 -0.195941
0.129748 0.820848 -0.556215
-0.0946731 -0.547738 0.831276
-0.0340725 -0.192209 0.980762
0.0355538 0.192597 0.980634
0.0948277 0.548266 0.830911
0.129053 0.821304 0.555702
0.15181 0.968908 0.195372
0.251016 0.947884 -0.19623
0.262539 0.788808 -0.555747
-0.185406 -0.524698 0.830853
-0.0676989 -0.183626 0.980662
0.0634801 0.185665 0.98056
0.18219 0.526797 0.830236
0.26473 0.78922 0.554121
0.251072 0.948154 0.194849
0.129786 0.972527 -0.193251
0.141422 0.819866 -0.554815
-0.103495 -0.546587 0.830982
-0.0375673 -0.191654 0.980743
0.037535 0.192349 0.980609
0.103848 0.547052 0.830632
0.142287 0.820024 0.55436
0.128882 0.972788 0.192544
0.248425 0.94872 -0.195485
0.263696 0.789207 -0.554632
-0.182073 -0.526225 0.830624
-0.0651511 -0.18438 0.980693
0.0652848 0.184957 0.980576
0.188698 0.524472 0.830254
0.282433 0.783416 0.553616
0.301949 0.933388 0.193942
-0.691663 0.714493 -0.105367
0.960294 -0.277438 0.0294023
0.970392 -0.241248 0.0117941
0.972213 -0.234075 0.00333547
0.972208 -0.234097 -0.00308351
0.970441 -0.241082 -0.0111554
0.960811 -0.275801 -0.0278694
-0.686048 0.719809 0.10589
0.297857 0.934572 -0.194566
0.281877 0.783317 -0.55404
-0.188862 -0.523862 0.830602
-0.0666255 -0.183658 0.98073
0.0676145 0.183678 0.980658
0.1945 0.521465 0.830809
0.292683 0.779223 0.55421
0.342428 0.91935 0.193751
-0.662069 0.742239 -0.10366
0.943956 -0.328631 0.0307976
0.95647 -0.291592 0.0118303
0.95874 -0.284268 0.00312353
0.958687 -0.284448 -0.00301349
0.956344 -0.292018 -0.011469
0.944404 -0.327507 -0.0289862
-0.692803 0.714754 0.0956655
0.340018 0.920156 -0.194167
0.293298 0.778807 -0.554469
-0.19509 -0.520811 0.831081
-0.0686261 -0.182503 0.980807
0.0718949 0.181396 0.980779
0.206547 0.515616 0.831552
0.312244 0.770978 0.555065
0.374285 0.906779 0.194068
-0.526607 0.841107 -0.123385
0.929659 -0.367381 0.0276774
0.941714 -0.336206 0.0118692
0.94419 -0.329385 0.00331484
0.944119 -0.329592 -0.00296999
0.941466 -0.336908 -0.0115794
0.929844 -0.367031 -0.0260573
0.796534 -0.601597 -0.0601198
0.374502 0.906668 -0.19417
0.313531 0.770413 -0.555124
-0.207247 -0.515074 0.831714
-0.072667 -0.180439 0.980898
0.0775083 0.178537 0.980876
0.222787 0.507815 0.83216
0.337591 0.759645 0.555853
0.407614 0.892251 0.194264
-0.394973 0.908259 -0.138064
0.914463 -0.404021 0.0229139
0.925008 -0.37977 0.011574
0.927718 -0.373265 0.00348989
0.927699 -0.373318 -0.00280144
0.924945 -0.379945 -0.0108872
0.914583 -0.403812 -0.0217838
0.865845 -0.499545 -0.0276758
0.408089 0.892051 -0.194185
0.338134 0.759444 -0.555797
-0.223239 -0.507474 0.832246
-0.0782511 -0.177675 0.980973
0.0839832 0.175261 0.980933
0.241292 0.498587 0.83258
0.365181 0.746332 0.556445
0.43968 0.876872 0.194361
-0.628855 0.77254 -0.0878794
0.898345 -0.438946 0.0173771
0.906556 -0.421957 0.0104089
0.909232 -0.416276 0.0034572
0.909305 -0.416124 -0.00239567
0.906847 -0.421361 -0.00914883
0.898525 -0.438602 -0.0167641
0.883616 -0.468067 -0.0116574
0.439767 0.876836 -0.194329
0.36451 0.746672 -0.556429
-0.241352 -0.498363 0.832696
-0.0846915 -0.174299 0.981044
0.0910129 0.171543 0.980964
0.260958 0.488084 0.832872
0.394108 0.731141 0.556878
0.473114 0.859282 0.194416
0.814801 -0.579034 0.0286082
0.880212 -0.474411 0.0126694
0.886266 -0.463092 0.0088076
0.888695 -0.458487 0.00325459
0.88881 -0.458272 -0.00191097
0.886667 -0.462351 -0.00736908
0.880112 -0.4746 -0.012536
0.871773 -0.489856 -0.00723861
0.473394 0.859094 -0.194567
0.393359 0.731459 -0.556988
-0.260835 -0.487773 0.833092
-0.0914547 -0.170443 0.981114
0.0983234 0.167359 0.980981
0.281274 0.476315 0.833072
0.424053 0.713956 0.557177
0.507139 0.839636 0.194478
0.83579 -0.548915 0.0121026
0.859618 -0.510853 0.00923447
0.864028 -0.503392 0.00721715
0.866094 -0.499873 0.00299975
0.866162 -0.499761 -0.00143625
0.864121 -0.503247 -0.00603201
0.858683 -0.512419 -0.00951325
0.847991 -0.529969 -0.00671814
0.510259 0.837684 -0.194733
0.424438 0.713592 -0.55735
-0.28123 -0.475831 0.833363
-0.0983831 -0.166228 0.981167
0.10557 0.162801 0.980995
0.301798 0.463324 0.833216
0.45449 0.694803 0.557394
0.541306 0.818013 0.194529
0.829694 -0.558197 0.00494072
0.83666 -0.547682 0.0066791
0.839837 -0.54281 0.00562201
0.841503 -0.540247 0.00248175
0.841537 -0.540198 -0.00112155
0.839828 -0.542833 -0.00459919
0.836022 -0.548658 -0.00639129
0.833184 -0.55299 -0.0026452
0.54342 0.816545 -0.194803
0.455123 0.694258 -0.557556
-0.301958 -0.462675 0.833518
-0.105616 -0.161549 0.981197
0.112715 0.157854 0.981008
0.322207 0.449167 0.833325
0.484854 0.673833 0.557553
0.57582 0.79409 0.194555
0.808804 -0.588071 0.00273065
0.811504 -0.584328 0.00470297
0.813731 -0.581227 0.00416779
0.815 -0.579457 0.00194573
0.815019 -0.579434 -0.000756389
0.813714 -0.581257 -0.00317586
0.811185 -0.584776 -0.00401058
0.810177 -0.586184 -0.00120555
0.576954 0.793206 -0.194804
0.485343 0.673359 -0.557701
-0.322466 -0.448429 0.833623
-0.112859 -0.156467 0.981214
0.119778 0.15249 0.98102
0.342388 0.433826 0.833406
0.51493 0.651054 0.557653
0.610128 0.768046 0.194546
0.779682 -0.62617 0.00273567
0.784255 -0.620431 0.00314807
0.78573 -0.618563 0.00290385
0.78662 -0.617435 0.00146309
0.786632 -0.617422 -0.000375708
0.785729 -0.618568 -0.00189963
0.784129 -0.620594 -0.00225413
0.780101 -0.625652 -0.00155955
0.610605 0.767611 -0.194768
0.515249 0.650692 -0.55778
-0.342683 -0.433041 0.833693
-0.119984 -0.150999 0.981225
0.126777 0.146682 0.981026
0.362339 0.417232 0.833443
0.544706 0.626339 0.557669
0.643798 0.74008 0.194437
0.744914 -0.667151 0.0036674
0.755011 -0.65571 0.0016987
0.755745 -0.654864 0.00178728
0.75627 -0.654259 0.00105399
0.75628 -0.654248 1.15759e-06
0.755754 -0.654855 -0.000781605
0.754949 -0.655783 -0.000757484
0.744844 -0.667233 -0.00266701
0.64397 0.739879 -0.194631
0.544942 0.626043 -0.557772
-0.362625 -0.416433 0.833719
-0.126966 -0.145141 0.981231
0.133625 0.140546 0.981015
0.381929 0.399561 0.833355
0.574561 0.599304 0.557418
0.680305 0.706809 0.193924
0.714852 -0.699274 0.00150288
0.7228 -0.691058 -0.000482072
0.722604 -0.691262 0.000113101
0.722653 -0.691211 0.000414099
0.722663 -0.6912 0.000610585
0.722623 -0.691242 0.0008903
0.722774 -0.691083 0.00143673
0.714541 -0.699593 -0.000598104
0.680285 0.706783 -0.194086
0.574737 0.599065 -0.557493
-0.382186 -0.398766 0.833618
-0.133758 -0.138978 0.981221
0.140193 0.134169 0.980992
0.400535 0.381326 0.833164
0.602269 0.571903 0.556955
0.712481 0.674595 0.193111
-0.684305 0.729195 -0.000521926
-0.689552 0.724235 0.000988418
-0.689105 0.724661 0.000508316
-0.688895 0.724861 -0.000148786
-0.688905 0.724852 -0.000831163
-0.689129 0.724637 -0.00148559
-0.689552 0.724234 -0.00193133
-0.684003 0.72948 -0.000350828
0.712328 0.674718 -0.193247
0.602404 0.571716 -0.557001
-0.40077 -0.380527 0.833416
-0.140251 -0.132589 0.981198
0.146366 0.127519 0.980977
0.417888 0.362489 0.833049
0.627645 0.544217 0.556678
0.740332 0.64405 0.192637
-0.649268 0.760558 -0.00168248
-0.655334 0.755339 -1.3658e-06
-0.655266 0.755398 0.000102996
-0.655054 0.755582 -0.000260862
-0.655066 0.755572 -0.000691983
-0.65529 0.755376 -0.00103602
-0.655326 0.755346 -0.000891163
-0.648894 0.760878 0.000866685
0.740174 0.644198 -0.19275
0.627776 0.544045 -0.556698
-0.418106 -0.36168 0.833291
-0.146326 -0.125959 0.981184
0.152186 0.120548 0.980973
0.43437 0.34263 0.833023
0.652393 0.514359 0.556613
0.77002 0.608271 0.192549
-0.614411 0.788986 -0.00121401
-0.618532 0.785759 0.000135315
-0.618401 0.785863 0.000448474
-0.618018 0.786164 -7.66619e-05
-0.618031 0.786153 -0.000845067
-0.618427 0.785841 -0.00134943
-0.618521 0.785767 -0.000990357
-0.61403 0.789283 0.000435569
0.769863 0.608443 -0.192636
0.652522 0.514202 -0.556606
-0.434565 -0.34182 0.833254
-0.152041 -0.119025 0.981181
0.157724 0.113252 0.980968
0.450056 0.321832 0.832991
0.675904 0.483103 0.556566
0.797719 0.571461 0.19255
-0.577031 0.816721 -0.00083886
-0.580475 0.814278 0.000637034
-0.580027 0.814597 0.000964428
-0.5794 0.815044 0.000168406
-0.579412 0.815034 -0.00103937
-0.580059 0.814573 -0.00182724
-0.580486 0.814269 -0.00146432
-0.576598 0.817028 0.000116178
0.797517 0.571723 -0.192611
0.676018 0.48298 -0.556534
-0.450222 -0.321025 0.833213
-0.157481 -0.111768 0.981177
0.162926 0.105721 0.980958
0.464734 0.300412 0.832931
0.697776 0.451026 0.556493
0.823173 0.534141 0.192562
-0.537941 0.842982 -0.00053975
-0.541503 0.840698 0.00144373
-0.540464 0.841365 0.00166888
-0.539482 0.841997 0.000451353
-0.539496 0.841987 -0.00127974
-0.540497 0.841342 -0.00247991
-0.541511 0.84069 -0.00221731
-0.537431 0.843308 -0.000117054
0.822963 0.534452 -0.192597
0.697891 0.450916 -0.556437
-0.46487 -0.299611 0.833144
-0.16258 -0.104299 0.981168
0.167743 0.0980529 0.980942
0.478268 0.278649 0.832835
0.717832 0.418528 0.556374
0.846324 0.496643 0.192568
-0.497989 0.867183 -0.000168911
-0.501898 0.864923 0.00262928
-0.499897 0.866081 0.00262574
-0.498401 0.866946 0.000780707
-0.49842 0.866934 -0.0015849
-0.499928 0.86606 -0.00338461
-0.501856 0.864945 -0.0033132
-0.497419 0.86751 -0.000424098
0.846203 0.496843 -0.19258
0.717967 0.418399 -0.556297
-0.478371 -0.277862 0.833039
-0.167285 -0.0967202 0.981153
0.172137 0.0903562 0.98092
0.490587 0.256803 0.832692
0.735992 0.385962 0.556192
0.867127 0.459358 0.192565
-0.458326 0.888784 0.000499973
-0.461973 0.886884 0.00431416
-0.458481 0.888696 0.00388849
-0.456282 0.889835 0.00120123
-0.456303 0.889822 -0.00194773
-0.458517 0.888674 -0.00458526
-0.461937 0.886899 -0.00493744
-0.457655 0.889129 -0.00100932
0.866995 0.45961 -0.192556
0.73611 0.385876 -0.556095
-0.490671 -0.256006 0.832888
-0.171593 -0.0890895 0.981131
0.176111 0.0827101 0.980889
0.501657 0.235167 0.832488
0.752165 0.353824 0.555928
0.885485 0.422893 0.192554
-0.420956 0.907079 0.00186139
-0.422161 0.906496 0.00669721
-0.416348 0.909189 0.00545742
-0.413236 0.910622 0.00167682
-0.413264 0.910608 -0.00238888
-0.416383 0.909169 -0.00608623
-0.422079 0.90653 -0.00722203
-0.420272 0.907395 -0.00230556
0.885431 0.423019 -0.192528
0.752284 0.353754 -0.555812
-0.501726 -0.234351 0.832677
-0.175482 -0.0815351 0.9811
0.179671 0.0752202 0.980847
0.511474 0.214088 0.832202
0.766293 0.32273 0.555554
0.901362 0.38791 0.192541
-0.390212 0.920713 0.00478815
-0.382945 0.923717 0.00999492
-0.37359 0.927566 0.00725925
-0.369378 0.929277 0.00215324
-0.369415 0.92926 -0.00285264
-0.373614 0.927551 -0.00780697
-0.382785 0.923779 -0.0104012
-0.389709 0.920923 -0.00520877
0.901404 0.387832 -0.1925
0.766435 0.322621 -0.555422
-0.511538 -0.213227 0.832384
-0.178957 -0.0741692 0.981057
0.182815 0.0680487 0.98079
0.520043 0.194027 0.83181
0.778367 0.293406 0.555029
0.914795 0.355081 0.192527
-0.375816 0.926626 0.0112735
-0.344713 0.938598 0.0143504
-0.330224 0.943858 0.00912563
-0.324808 0.945776 0.00257456
-0.324859 0.945757 -0.00325103
-0.330243 0.943848 -0.00957499
-0.344483 0.938679 -0.0146271
-0.375608 0.926705 -0.0116819
0.914903 0.354831 -0.192478
0.778528 0.29325 -0.554885
-0.520119 -0.193066 0.831986
-0.182036 -0.0671244 0.980998
0.185543 0.0614082 0.980715
0.527371 0.175622 0.831286
0.788415 0.266728 0.554308
0.925922 0.324977 0.192507
-0.398509 0.916806 0.0256529
-0.307457 0.951359 0.01963
-0.286131 0.95813 0.0107494
-0.279558 0.960125 0.00285136
-0.279627 0.960102 -0.0035053
-0.286138 0.958124 -0.0110758
-0.30715 0.951456 -0.0197584
-0.399283 0.916454 -0.026187
0.926092 0.324521 -0.192456
0.788599 0.266492 -0.554161
-0.527473 -0.174491 0.83146
-0.184722 -0.0606373 0.980918
0.187829 0.0556436 0.980624
0.533403 0.159847 0.830621
0.796454 0.243761 0.553391
0.935007 0.297878 0.192432
-0.483858 0.873508 0.0535237
-0.269992 0.962536 0.0250751
-0.240739 0.970519 0.0116879
-0.233266 0.972409 0.00290928
-0.233359 0.972384 -0.00352201
-0.24074 0.970517 -0.0118544
-0.269592 0.96265 -0.0250171
-0.486188 0.872166 -0.0542985
0.935254 0.297123 -0.192399
0.796669 0.243359 -0.553258
-0.533551 -0.158425 0.830798
-0.187001 -0.0550763 0.980815
0.189495 0.0515761 0.980526
0.537725 0.148907 0.829867
0.802151 0.226481 0.552503
0.943043 0.271398 0.192387
-0.56209 0.823167 0.0803181
-0.226785 0.973527 0.0285385
-0.191629 0.981398 0.0116345
-0.183854 0.982949 0.00284469
-0.183973 0.982926 -0.0032997
-0.191634 0.981398 -0.0115707
-0.226339 0.973638 -0.0282841
-0.564122 0.821718 -0.0809101
0.943338 0.270367 -0.192394
0.802401 0.225796 -0.552421
-0.537963 -0.146929 0.830065
-0.188745 -0.0512563 0.980688
0.189975 0.0504736 0.980491
0.538689 0.147862 0.829428
0.802609 0.225596 0.5522
0.949706 0.246022 0.193729
-0.404714 0.912064 0.0659269
-0.157268 0.987131 0.0289659
-0.127136 0.991794 0.0134567
-0.120363 0.992721 0.00417459
-0.120349 0.992725 -0.00361182
-0.127044 0.991812 -0.0130094
-0.157328 0.987117 -0.0291344
-0.40613 0.911394 -0.066484
0.950163 0.244243 -0.193743
0.802946 0.224264 -0.552253
-0.539175 -0.144604 0.829687
-0.189465 -0.0504644 0.98059
0.188943 0.045439 0.980936
0.537004 0.13333 0.832976
0.80495 0.197303 0.559577
0.967066 0.160842 0.197263
0.979604 0.0103322 -0.200673
0.828166 0.0509277 -0.558164
-0.552338 -0.0479833 0.832238
-0.193912 -0.0182914 0.980848
0.193834 0.0183324 0.980863
0.552317 0.0478794 0.832258
0.828139 0.0513471 0.558166
0.97958 0.0107728 0.200765
0.967253 0.159908 -0.197104
0.805328 0.195866 -0.559538
-0.537772 -0.130033 0.833002
-0.18858 -0.0459677 0.980981
0.189467 0.0399637 0.981074
0.538676 0.117728 0.834247
0.809162 0.171672 0.561948
0.967503 0.155509 0.199389
0.977667 0.0523664 -0.20353
0.825559 0.0496351 -0.562128
-0.550638 -0.0459762 0.833477
-0.193241 -0.0174357 0.980996
0.193411 0.0180933 0.980951
0.550631 0.0448547 0.833543
0.825493 0.0493439 0.562251
0.977647 0.0521609 0.20368
0.967702 0.154562 -0.199155
0.809498 0.170586 -0.561795
-0.539398 -0.11515 0.834141
-0.188899 -0.0411837 0.981132
0.185939 0.0438865 0.981581
0.525449 0.138381 0.839496
0.785491 0.222004 0.577684
0.95831 0.191435 0.212119
0.971719 -0.0306274 -0.234147
0.815887 -0.0078524 -0.578159
-0.544976 -0.0217589 0.838169
-0.191117 -0.00897573 0.981526
0.191271 0.0106918 0.981479
0.544258 0.0164576 0.838757
0.81573 -0.00902539 0.578363
0.971928 -0.0280774 0.233596
0.958601 0.190319 -0.21181
0.786053 0.2205 -0.577495
-0.527892 -0.132503 0.838912
-0.184354 -0.0478178 0.981696
0.00152852 0.00789127 0.999968
0.00408152 0.000544941 0.999992
</DataArray>
<DataArray type="Float64" Name="cell vector length" format="ascii">
0.13886 0.135712 0.121974 0.0789309 0.109102 0.140738 0.13717 0.132923 0.132958 0.137378 0.141586 0.109577 0.0779685 0.119872 0.145394 0.14449 0.416487 0.394193 0.357266 0.321928 0.346287 0.386981 0.404919 0.40672 0.405703 0.402251 0.387051 0.346945 0.322313 0.35771 0.402039 0.419126 0.525021 0.498878 0.447807 0.390556 0.429565 0.495226 0.511404 0.511888 0.510946 0.508849 0.495503 0.430808 0.391084 0.447661 0.503876 0.526393 0.563463 0.53182 0.462332 0.308919 0.089531 0.341739 0.496033 0.558322 0.558444 0.496637 0.341278 0.0900549 0.308631 0.461387 0.536017 0.56453 0.586988 0.549785 0.464679 0.294552 0.0541845 0.322371 0.484836 0.550092 0.550086 0.485004 0.321969 0.0588262 0.294119 0.463175 0.553705 0.587926 0.601302 0.559147 0.462723 0.279232 0.0270199 0.315582 0.481207 0.547514 0.54746 0.481271 0.317035 0.0479066 0.275227 0.461029 0.563365 0.602324 0.61068 0.56518 0.461258 0.265848 0.0139199 0.313756 0.479063 0.545949 0.545858 0.478982 0.315427 0.0510909 0.260982 0.459535 0.569897 0.611852 0.617072 0.569369 0.460319 0.255863 0.00878955 0.313517 0.477449 0.544672 0.544611 0.477438 0.315614 0.0499353 0.250421 0.458475 0.574421 0.618332 0.621521 0.572205 0.459392 0.248312 0.0129957 0.314351 0.476353 0.54357 0.543584 0.476545 0.314443 0.0282882 0.247277 0.457565 0.577509 0.622824 0.624544 0.573944 0.458348 0.24361 0.0168413 0.315005 0.475745 0.542851 0.542903 0.475956 0.314879 0.0183834 0.243525 0.456964 0.579744 0.62595 0.626515 0.574841 0.457182 0.239077 0.0217925 0.316626 0.475738 0.542481 0.542509 0.475762 0.316113 0.0208874 0.239611 0.456454 0.581423 0.628128 0.62781 0.575178 0.455861 0.235164 0.0262617 0.318364 0.476067 0.542385 0.542367 0.475935 0.317766 0.0251881 0.235829 0.4556 0.582599 0.629682 0.628685 0.575148 0.454365 0.231667 0.0302941 0.320143 0.47673 0.542638 0.542596 0.476525 0.31956 0.029325 0.232373 0.454401 0.583327 0.6308 0.629325 0.574906 0.452637 0.228031 0.034752 0.322628 0.478181 0.54364 0.543586 0.477946 0.322067 0.0338144 0.228791 0.452865 0.583755 0.631654 0.629761 0.574642 0.451101 0.225234 0.0469421 0.330914 0.484412 0.548947 0.548887 0.484167 0.330379 0.0459984 0.226036 0.451464 0.584084 0.632279 0.62999 0.574393 0.449929 0.218469 0.0816714 0.357581 0.504975 0.566872 0.566812 0.504728 0.35706 0.0806612 0.219363 0.450388 0.584357 0.632675 0.630066 0.57396 0.448641 0.216703 0.0910737 0.364196 0.510237 0.571504 0.57144 0.509972 0.363668 0.0900448 0.217647 0.449172 0.584393 0.6329 0.629866 0.573256 0.447207 0.214611 0.0921188 0.365015 0.51103 0.572255 0.572186 0.510751 0.364473 0.0910486 0.215621 0.447797 0.584122 0.632839 0.629291 0.572362 0.446062 0.213438 0.0920089 0.365033 0.511338 0.572662 0.572592 0.51105 0.36448 0.0909189 0.214484 0.446699 0.583636 0.632396 0.628361 0.571295 0.445113 0.212904 0.0913431 0.364844 0.511649 0.573153 0.573079 0.511349 0.364286 0.0902138 0.214002 0.445785 0.582952 0.631596 0.627018 0.569981 0.44428 0.213044 0.0899924 0.364498 0.512049 0.573811 0.573736 0.511739 0.363934 0.0888546 0.214158 0.444982 0.581997 0.630377 0.625108 0.568298 0.443544 0.214021 0.0877398 0.363995 0.512604 0.574673 0.574594 0.51228 0.363427 0.0866156 0.215136 0.444278 0.580654 0.628587 0.622378 0.566063 0.442917 0.216153 0.084292 0.363368 0.513394 0.575775 0.575686 0.513047 0.362794 0.0831536 0.217299 0.443687 0.578754 0.62598 0.618468 0.563012 0.442425 0.219972 0.0793061 0.362742 0.514516 0.577141 0.577038 0.514137 0.362161 0.0782074 0.221104 0.443245 0.576046 0.622203 0.612889 0.558777 0.442104 0.226288 0.0725787 0.362401 0.516088 0.578779 0.578656 0.515668 0.361811 0.0715226 0.227417 0.442996 0.572196 0.616779 0.604926 0.55283 0.441949 0.236184 0.0649164 0.36294 0.51829 0.580714 0.580564 0.517818 0.362349 0.0639678 0.237274 0.44294 0.566713 0.609018 0.593254 0.544155 0.441565 0.250278 0.0614453 0.365769 0.5216 0.583222 0.583043 0.52108 0.365196 0.0606918 0.251311 0.44268 0.558635 0.597622 0.573823 0.528901 0.437551 0.263381 0.0761262 0.375965 0.52874 0.588518 0.588352 0.528272 0.375505 0.075688 0.264278 0.43881 0.544247 0.578613 0.52792 0.485807 0.406017 0.232036 0.146092 0.42568 0.559005 0.613326 0.614001 0.561521 0.425264 0.145811 0.232835 0.407428 0.502937 0.533486 0.493202 0.452998 0.386124 0.312189 0.358398 0.432011 0.473388 0.477757 0.471885 0.45764 0.430619 0.359215 0.313449 0.387785 0.471643 0.499327 0.445601 0.405486 0.347151 0.293742 0.31124 0.366598 0.420211 0.427772 0.420339 0.399041 0.365615 0.312099 0.294901 0.348925 0.425557 0.452283 0.223473 0.182698 0.125352 0.0777477 0.106253 0.172958 0.240798 0.257267 0.251957 0.223799 0.174917 0.108054 0.0787503 0.124832 0.201578 0.229376 0.0447508 0.0151589 
</DataArray>
<DataArray type="Float64" Name="cell variable 4" format="ascii">
829.243 831.639 834.587 825.568 839.406 840.703 831.519 826.82 826.29 830.467 841.213 839.609 824.891 832.227 836.994 831.104 1134.53 1125.14 1117.72 1115.16 1133.84 1138.28 1139.58 1136.79 1135.43 1135.34 1138.53 1134.09 1114.85 1117.37 1138.07 1138.77 1349.88 1339.89 1330.34 1323.08 1348.18 1370.55 1375.85 1373.21 1371.28 1369.67 1370.55 1348.69 1323.11 1330.29 1353.96 1354.05 1409.39 1398.49 1387.98 1374.33 1479.98 2167.04 2825.94 3216.21 3215.22 2823.79 2164.5 1478.92 1373.64 1387.97 1413.58 1413.84 1427.29 1415.52 1405.36 1396.52 1483.65 2156.18 2815.08 3208.63 3208.25 2814.48 2153.42 1478.51 1395.9 1405.75 1431.51 1431.96 1432.21 1416.9 1401.96 1392.17 1484.76 2143.62 2802.09 3197.03 3196.88 2802.7 2148.77 1484.24 1393.21 1403 1433.75 1437.04 1433.72 1415.55 1397.18 1386.11 1494.39 2142.06 2791.59 3185.68 3185.59 2792.78 2149.64 1497.74 1388.49 1398.6 1433.49 1438.81 1434.23 1413.83 1393.23 1381.48 1501.41 2145.12 2783.92 3175.38 3175.42 2785.14 2153.49 1512.65 1383.43 1394.4 1433.12 1439.75 1434.63 1412.31 1389.79 1377.2 1510.79 2149.54 2778.98 3167.01 3167.2 2779.74 2149.01 1509.03 1377.51 1390.34 1433.1 1440.69 1434.9 1410.91 1386.68 1373.32 1516.03 2151.74 2775.63 3160.68 3160.77 2775.64 2149.97 1513.22 1373.23 1386.86 1433 1441.38 1434.87 1409.42 1383.89 1369.94 1522.51 2156 2774.33 3155.9 3155.74 2773.63 2154.13 1520.29 1370.39 1384.05 1432.79 1441.71 1434.71 1407.9 1381.36 1366.97 1527.9 2160.01 2774.07 3152.68 3152.36 2773.04 2158.26 1526.18 1367.48 1381.58 1432.76 1442.03 1434.56 1406.39 1378.87 1364.06 1531.95 2163.33 2774.65 3151.11 3150.74 2773.55 2161.69 1530.47 1364.5 1379.13 1432.8 1442.41 1434.32 1404.86 1376.29 1360.6 1534.86 2165.92 2775.84 3150.95 3150.58 2774.76 2164.32 1533.42 1360.97 1376.58 1432.78 1442.71 1433.38 1402.98 1374.04 1358.3 1536.56 2167.4 2777.01 3151.35 3150.97 2775.98 2165.87 1535.19 1358.66 1374.34 1432.32 1442.28 1431.85 1400.86 1372.34 1357.86 1564.42 2214.78 2837.72 3219.7 3219.33 2836.69 2213.17 1562.92 1358.2 1372.66 1431.53 1441.24 1430.9 1399.24 1370.63 1356.26 1564.04 2213.7 2837.1 3219.17 3218.76 2836.01 2212.02 1562.51 1356.59 1370.97 1431.15 1440.75 1430.5 1398.03 1368.91 1353.92 1564.05 2213.44 2837.74 3220.53 3220.09 2836.61 2211.72 1562.47 1354.27 1369.26 1431.06 1440.77 1429.97 1396.82 1367.53 1352.59 1563.84 2213.13 2838.66 3222.75 3222.33 2837.57 2211.4 1562.25 1352.95 1367.88 1430.89 1440.65 1429.23 1395.62 1366.46 1351.79 1563.02 2212.45 2839.79 3225.78 3225.38 2838.75 2210.69 1561.35 1352.14 1366.84 1430.68 1440.29 1428.34 1394.48 1365.66 1351.35 1561.15 2211.15 2841.3 3229.83 3229.44 2840.28 2209.4 1559.5 1351.73 1366.05 1430.41 1439.75 1427.35 1393.41 1365.13 1351.31 1557.86 2209.1 2843.4 3235.13 3234.72 2842.37 2207.36 1556.27 1351.71 1365.53 1430.13 1439.09 1426.3 1392.44 1364.92 1351.74 1552.65 2206.21 2846.4 3242.03 3241.59 2845.33 2204.45 1551.01 1352.13 1365.34 1429.91 1438.34 1425.2 1391.64 1365.14 1352.77 1544.86 2202.63 2850.82 3250.87 3250.35 2849.64 2200.87 1543.31 1353.15 1365.57 1429.74 1437.5 1424.04 1391.07 1365.94 1354.53 1533.82 2198.88 2857.34 3261.85 3261.19 2855.98 2197.15 1532.39 1354.91 1366.36 1429.74 1436.58 1422.62 1390.67 1367.38 1357.02 1519.55 2196.21 2866.75 3274.93 3274.06 2865.11 2194.51 1518.31 1357.38 1367.8 1429.83 1435.38 1419.4 1389.24 1368.45 1358.64 1504.71 2196.88 2879.71 3289.71 3288.57 2877.74 2195.25 1503.72 1358.93 1368.84 1428.77 1432.32 1404.68 1376.98 1359.23 1347.4 1495.07 2204.88 2896.66 3305.65 3304.21 2894.32 2203.32 1494.37 1347.54 1359.5 1416.35 1417.62 1325.3 1297.57 1277.15 1255.72 1491.62 2234.37 2926.1 3331.5 3329.71 2923.24 2232.86 1491.18 1255.81 1277.24 1334.46 1337.53 1254.45 1226.53 1204.97 1187.85 1217.63 1229.96 1265.75 1264.94 1256.31 1239.8 1230.07 1217.94 1188.14 1205.09 1261.4 1266.12 1120.39 1091.92 1067.17 1050.24 1055.54 1065.54 1106.59 1105.04 1094.8 1075.71 1065.51 1055.75 1050.41 1067.45 1122.75 1130.88 796.885 785.951 781.415 782.261 796.203 814.08 854.952 862.419 855.858 835.114 815.23 796.423 782.239 779.921 804.361 802.489 613.883 744.351 
</DataArray>
<DataArray type="Float64" Name="cell variable 5" format="ascii">
0.00847765 0.00847765 0.00847765 0.00847765 0.00847765 0.00847765 0.00847765 0.00847765 0.00847765 0.00847765 0.00847765 0.00847765 0.00847765 0.00847765 0.00847765 0.00847765 0.00847765 0.00847765 0.00847765 0.00847765 0.00847765 0.00847765 0.00847765 0.00847765 0.00847765 0.00847765 0.00847765 0.00847765 0.00847765 0.00847765 0.00847765 0.00847765 0.00847765 0.00847765 0.00847765 0.00847765 0.00847765 0.00847765 0.00847765 0.00847765 0.00847765 0.00847765 0.00847765 0.00847765 0.00847765 0.00847765 0.00847765 0.00847765 0.0128126 0.0118612 0.0103258 0.00886197 0.00847765 0.00847765 0.00847765 0.00847765 0.00847765 0.00847765 0.00847765 0.00847765 0.00886197 0.0103258 0.0118612 0.0128126 0.0144968 0.0131761 0.0110435 0.0090108 0.00847765 0.00847765 0.00847765 0.00847765 0.00847765 0.00847765 0.00847765 0.00847765 0.0090108 0.0110435 0.0131761 0.0144968 0.0154726 0.0139391 0.0114599 0.00909746 0.00847765 0.00847765 0.00847765 0.00847765 0.00847765 0.00847765 0.00847765 0.00847765 0.00909746 0.0114599 0.0139391 0.0154726 0.0161829 0.0144911 0.0117632 0.00916151 0.00847765 0.00847765 0.00847765 0.00847765 0.00847765 0.00847765 0.00847765 0.00847765 0.00916151 0.0117632 0.0144911 0.0161829 0.0167368 0.0149244 0.0119987 0.00921049 0.00847765 0.00847765 0.00847765 0.00847765 0.00847765 0.00847765 0.00847765 0.00847765 0.00921049 0.0119987 0.0149244 0.0167368 0.0171833 0.015273 0.012189 0.00925006 0.00847765 0.00847765 0.00847765 0.00847765 0.00847765 0.00847765 0.00847765 0.00847765 0.00925006 0.012189 0.015273 0.0171833 0.0175487 0.0155574 0.0123453 0.00928208 0.00847765 0.00847765 0.00847765 0.00847765 0.00847765 0.00847765 0.00847765 0.00847765 0.00928208 0.0123453 0.0155574 0.0175487 0.0178445 0.0157891 0.0124716 0.00930846 0.00847765 0.00847765 0.00847765 0.00847765 0.00847765 0.00847765 0.00847765 0.00847765 0.00930846 0.0124716 0.0157891 0.0178445 0.0180819 0.0159757 0.0125733 0.00932918 0.00847765 0.00847765 0.00847765 0.00847765 0.00847765 0.00847765 0.00847765 0.00847765 0.00932918 0.0125733 0.0159757 0.0180819 0.0182665 0.0161188 0.0126505 0.00934614 0.00847765 0.00847765 0.00847765 0.00847765 0.00847765 0.00847765 0.00847765 0.00847765 0.00934614 0.0126505 0.0161188 0.0182665 0.0184021 0.0162243 0.0127089 0.00935744 0.00847765 0.00847765 0.00847765 0.00847765 0.00847765 0.00847765 0.00847765 0.00847765 0.00935744 0.0127089 0.0162243 0.0184021 0.0184926 0.016294 0.0127466 0.00936686 0.00847765 0.00847765 0.00847765 0.00847765 0.00847765 0.00847765 0.00847765 0.00847765 0.00936686 0.0127466 0.016294 0.0184926 0.0185359 0.0163298 0.0127655 0.00937063 0.00847765 0.00847765 0.00847765 0.00847765 0.00847765 0.00847765 0.00847765 0.00847765 0.00937063 0.0127655 0.0163298 0.0185359 0.0185359 0.0163298 0.0127655 0.00937063 0.00847765 0.00847765 0.00847765 0.00847765 0.00847765 0.00847765 0.00847765 0.00847765 0.00937063 0.0127655 0.0163298 0.0185359 0.0184926 0.016294 0.0127466 0.00936686 0.00847765 0.00847765 0.00847765 0.00847765 0.00847765 0.00847765 0.00847765 0.00847765 0.00936686 0.0127466 0.016294 0.0184926 0.0184021 0.0162243 0.0127089 0.00935744 0.00847765 0.00847765 0.00847765 0.00847765 0.00847765 0.00847765 0.00847765 0.00847765 0.00935744 0.0127089 0.0162243 0.0184021 0.0182665 0.0161188 0.0126505 0.00934614 0.00847765 0.00847765 0.00847765 0.00847765 0.00847765 0.00847765 0.00847765 0.00847765 0.00934614 0.0126505 0.0161188 0.0182665 0.0180819 0.0159757 0.0125733 0.00932918 0.00847765 0.00847765 0.00847765 0.00847765 0.00847765 0.00847765 0.00847765 0.00847765 0.00932918 0.0125733 0.0159757 0.0180819 0.0178445 0.0157891 0.0124716 0.00930846 0.00847765 0.00847765 0.00847765 0.00847765 0.00847765 0.00847765 0.00847765 0.00847765 0.00930846 0.0124716 0.0157891 0.0178445 0.0175487 0.0155574 0.0123453 0.00928208 0.00847765 0.00847765 0.00847765 0.00847765 0.00847765 0.00847765 0.00847765 0.00847765 0.00928208 0.0123453 0.0155574 0.0175487 0.0171833 0.015273 0.012189 0.00925006 0.00847765 0.00847765 0.00847765 0.00847765 0.00847765 0.00847765 0.00847765 0.00847765 0.00925006 0.012189 0.015273 0.0171833 0.0167368 0.0149244 0.0119987 0.00921049 0.00847765 0.00847765 0.00847765 0.00847765 0.00847765 0.00847765 0.00847765 0.00847765 0.00921049 0.0119987 0.0149244 0.0167368 0.0161829 0.0144911 0.0117632 0.00916151 0.00847765 0.00847765 0.00847765 0.00847765 0.00847765 0.00847765 0.00847765 0.00847765 0.00916151 0.0117632 0.0144911 0.0161829 0.0154726 0.0139391 0.0114599 0.00909746 0.00847765 0.00847765 0.00847765 0.00847765 0.00847765 0.00847765 0.00847765 0.00847765 0.00909746 0.0114599 0.0139391 0.0154726 0.0144968 0.0131761 0.0110435 0.0090108 0.00847765 0.00847765 0.00847765 0.00847765 0.00847765 0.00847765 0.00847765 0.00847765 0.0090108 0.0110435 0.0131761 0.0144968 0.0128126 0.0118612 0.0103258 0.00886197 0.00847765 0.00847765 0.00847765 0.00847765 0.00847765 0.00847765 0.00847765 0.00847765 0.00886197 0.0103258 0.0118612 0.0128126 0.00847765 0.00847765 0.00847765 0.00847765 0.00847765 0.00847765 0.00847765 0.00847765 0.00847765 0.00847765 0.00847765 0.00847765 0.00847765 0.00847765 0.00847765 0.00847765 0.00847765 0.00847765 0.00847765 0.00847765 0.00847765 0.00847765 0.00847765 0.00847765 0.00847765 0.00847765 0.00847765 0.00847765 0.00847765 0.00847765 0.00847765 0.00847765 0.00847765 0.00847765 0.00847765 0.00847765 0.00847765 0.00847765 0.00847765 0.00847765 0.00847765 0.00847765 0.00847765 0.00847765 0.00847765 0.00847765 0.00847765 0.00847765 0.00847765 0.00847765 
</DataArray>
<DataArray type="Float64" Name="cell variable 6" format="ascii">
1 1 1 1 1 1 1 1 1 1 1 1 1 1 1 1 1 1 1 1 1 1 1 1 1 1 1 1 1 1 1 1 1 1 1 1 1 1 1 1 1 1 1 1 1 1 1 1 1 1 1 1 1 1 1 1 1 1 1 1 1 1 1 1 1 1 1 1 1 1 1 1 1 1 1 1 1 1 1 1 1 1 1 1 1 1 1 1 1 1 1 1 1 1 1 1 1 1 1 1 1 1 1 1 1 1 1 1 1 1 1 1 1 1 1 1 1 1 1 1 1 1 1 1 1 1 1 1 1 1 1 1 1 1 1 1 1 1 1 1 1 1 1 1 1 1 1 1 1 1 1 1 1 1 1 1 1 1 1 1 1 1 1 1 1 1 1 1 1 1 1 1 1 1 1 1 1 1 1 1 1 1 1 1 1 1 1 1 1 1 1 1 1 1 1 1 1 1 1 1 1 1 1 1 1 1 1 1 1 1 1 1 1 1 1 1 1 1 1 1 1 1 1 1 1 1 1 1 1 1 1 1 1 1 1 1 1 1 1 1 1 1 1 1 1 1 1 1 1 1 1 1 1 1 1 1 1 1 1 1 1 1 1 1 1 1 1 1 1 1 1 1 1 1 1 1 1 1 1 1 1 1 1 1 1 1 1 1 1 1 1 1 1 1 1 1 1 1 1 1 1 1 1 1 1 1 1 1 1 1 1 1 1 1 1 1 1 1 1 1 1 1 1 1 1 1 1 1 1 1 1 1 1 1 1 1 1 1 1 1 1 1 1 1 1 1 1 1 1 1 1 1 1 1 1 1 1 1 1 1 1 1 1 1 1 1 1 1 1 1 1 1 1 1 1 1 1 1 1 1 1 1 1 1 1 1 1 1 1 1 1 1 1 1 1 1 1 1 1 1 1 1 1 1 1 1 1 1 1 1 1 1 1 1 1 1 1 1 1 1 1 1 1 1 1 1 1 1 1 1 1 1 1 1 1 1 1 1 1 1 1 1 1 1 1 1 1 1 1 1 1 1 1 1 1 1 1 1 1 1 1 1 1 1 1 1 1 1 1 1 1 1 1 1 1 1 1 1 1 1 1 1 1 1 1 1 1 1 1 1 1 1 1 1 1 1 1 1 1 1 1 1 1 1 1 1 1 1 1 1 1 1 1 1 
</DataArray>
<DataArray type="Float64" Name="cell variable 7" format="ascii">
0 0 0 0 0 0 0 0 0 0 0 0 0 0 0 0 0 0 0 0 0 0 0 0 0 0 0 0 0 0 0 0 0 0 0 0 0 0 0 0 0 0 0 0 0 0 0 0 0 0 0 0 0 0 0 0 0 0 0 0 0 0 0 0 0 0 0 0 0 0 0 0 0 0 0 0 0 0 0 0 0 0 0 0 0 0 0 0 0 0 0 0 0 0 0 0 0 0 0 0 0 0 0 0 0 0 0 0 0 0 0 0 0 0 0 0 0 0 0 0 0 0 0 0 0 0 0 0 0 0 0 0 0 0 0 0 0 0 0 0 0 0 0 0 0 0 0 0 0 0 0 0 0 0 0 0 0 0 0 0 0 0 0 0 0 0 0 0 0 0 0 0 0 0 0 0 0 0 0 0 0 0 0 0 0 0 0 0 0 0 0 0 0 0 0 0 0 0 0 0 0 0 0 0 0 0 0 0 0 0 0 0 0 0 0 0 0 0 0 0 0 0 0 0 0 0 0 0 0 0 0 0 0 0 0 0 0 0 0 0 0 0 0 0 0 0 0 0 0 0 0 0 0 0 0 0 0 0 0 0 0 0 0 0 0 0 0 0 0 0 0 0 0 0 0 0 0 0 0 0 0 0 0 0 0 0 0 0 0 0 0 0 0 0 0 0 0 0 0 0 0 0 0 0 0 0 0 0 0 0 0 0 0 0 0 0 0 0 0 0 0 0 0 0 0 0 0 0 0 0 0 0 0 0 0 0 0 0 0 0 0 0 0 0 0 0 0 0 0 0 0 0 0 0 0 0 0 0 0 0 0 0 0 0 0 0 0 0 0 0 0 0 0 0 0 0 0 0 0 0 0 0 0 0 0 0 0 0 0 0 0 0 0 0 0 0 0 0 0 0 0 0 0 0 0 0 0 0 0 0 0 0 0 0 0 0 0 0 0 0 0 0 0 0 0 0 0 0 0 0 0 0 0 0 0 0 0 0 0 0 0 0 0 0 0 0 0 0 0 0 0 0 0 0 0 0 0 0 0 0 0 0 0 0 0 0 0 0 0 0 0 0 0 0 0 0 0 0 0 0 0 0 0 0 0 0 0 0 0 0 0 0 0 0 0 0 0 0 0 0 0 0 0 0 0 0 0 0 0 0 0 0 1 1 
</DataArray>
<DataArray type="Float64" Name="cell variable 8" format="ascii">
11.25 33.75 56.25 78.75 101.25 123.75 146.25 168.75 191.25 213.75 236.25 258.75 281.25 303.75 326.25 348.75 11.25 33.75 56.25 78.75 101.25 123.75 146.25 168.75 191.25 213.75 236.25 258.75 281.25 303.75 326.25 348.75 11.25 33.75 56.25 78.75 101.25 123.75 146.25 168.75 191.25 213.75 236.25 258.75 281.25 303.75 326.25 348.75 11.25 33.75 56.25 78.75 101.25 123.75 146.25 168.75 191.25 213.75 236.25 258.75 281.25 303.75 326.25 348.75 11.25 33.75 56.25 78.75 101.25 123.75 146.25 168.75 191.25 213.75 236.25 258.75 281.25 303.75 326.25 348.75 11.25 33.75 56.25 78.75 101.25 123.75 146.25 168.75 191.25 213.75 236.25 258.75 281.25 303.75 326.25 348.75 11.25 33.75 56.25 78.75 101.25 123.75 146.25 168.75 191.25 213.75 236.25 258.75 281.25 303.75 326.25 348.75 11.25 33.75 56.25 78.75 101.25 123.75 146.25 168.75 191.25 213.75 236.25 258.75 281.25 303.75 326.25 348.75 11.25 33.75 56.25 78.75 101.25 123.75 146.25 168.75 191.25 213.75 236.25 258.75 281.25 303.75 326.25 348.75 11.25 33.75 56.25 78.75 101.25 123.75 146.25 168.75 191.25 213.75 236.25 258.75 281.25 303.75 326.25 348.75 11.25 33.75 56.25 78.75 101.25 123.75 146.25 168.75 191.25 213.75 236.25 258.75 281.25 303.75 326.25 348.75 11.25 33.75 56.25 78.75 101.25 123.75 146.25 168.75 191.25 213.75 236.25 258.75 281.25 303.75 326.25 348.75 11.25 33.75 56.25 78.75 101.25 123.75 146.25 168.75 191.25 213.75 236.25 258.75 281.25 303.75 326.25 348.75 11.25 33.75 56.25 78.75 101.25 123.75 146.25 168.75 191.25 213.75 236.25 258.75 281.25 303.75 326.25 348.75 11.25 33.75 56.25 78.75 101.25 123.75 146.25 168.75 191.25 213.75 236.25 258.75 281.25 303.75 326.25 348.75 11.25 33.75 56.25 78.75 101.25 123.75 146.25 168.75 191.25 213.75 236.25 258.75 281.25 303.75 326.25 348.75 11.25 33.75 56.25 78.75 101.25 123.75 146.25 168.75 191.25 213.75 236.25 258.75 281.25 303.75 326.25 348.75 11.25 33.75 56.25 78.75 101.25 123.75 146.25 168.75 191.25 213.75 236.25 258.75 281.25 303.75 326.25 348.75 11.25 33.75 56.25 78.75 101.25 123.75 146.25 168.75 191.25 213.75 236.25 258.75 281.25 303.75 326.25 348.75 11.25 33.75 56.25 78.75 101.25 123.75 146.25 168.75 191.25 213.75 236.25 258.75 281.25 303.75 326.25 348.75 11.25 33.75 56.25 78.75 101.25 123.75 146.25 168.75 191.25 213.75 236.25 258.75 281.25 303.75 326.25 348.75 11.25 33.75 56.25 78.75 101.25 123.75 146.25 168.75 191.25 213.75 236.25 258.75 281.25 303.75 326.25 348.75 11.25 33.75 56.25 78.75 101.25 123.75 146.25 168.75 191.25 213.75 236.25 258.75 281.25 303.75 326.25 348.75 11.25 33.75 56.25 78.75 101.25 123.75 146.25 168.75 191.25 213.75 236.25 258.75 281.25 303.75 326.25 348.75 11.25 33.75 56.25 78.75 101.25 123.75 146.25 168.75 191.25 213.75 236.25 258.75 281.25 303.75 326.25 348.75 11.25 33.75 56.25 78.75 101.25 123.75 146.25 168.75 191.25 213.75 236.25 258.75 281.25 303.75 326.25 348.75 11.25 33.75 56.25 78.75 101.25 123.75 146.25 168.75 191.25 213.75 236.25 258.75 281.25 303.75 326.25 348.75 11.25 33.75 56.25 78.75 101.25 123.75 146.25 168.75 191.25 213.75 236.25 258.75 281.25 303.75 326.25 348.75 11.25 33.75 56.25 78.75 101.25 123.75 146.25 168.75 191.25 213.75 236.25 258.75 281.25 303.75 326.25 348.75 11.25 33.75 56.25 78.75 101.25 123.75 146.25 168.75 191.25 213.75 236.25 258.75 281.25 303.75 326.25 348.75 11.25 33.75 56.25 78.75 101.25 123.75 146.25 168.75 191.25 213.75 236.25 258.75 281.25 303.75 326.25 348.75 11.25 33.75 56.25 78.75 101.25 123.75 146.25 168.75 191.25 213.75 236.25 258.75 281.25 303.75 326.25 348.75 0 0 
</DataArray>
</CellData>
</Piece>
</UnstructuredGrid>
</VTKFile>
