<VTKFile type="UnstructuredGrid" version="0.1">
<UnstructuredGrid>
<Piece  NumberOfPoints="    2080" NumberOfCells="     514">
<Points>
<DataArray type="Float64" NumberOfComponents="3" format="ascii">
-299.368 710.214 1.13383
-298.15 715.229 26.8919
-272.952 704.004 29.0255
-274.304 698.578 1.17461
-297.873 716.341 29.6427
-294.338 730.548 51.4373
-268.828 720.493 55.3318
-272.675 705.117 31.7763
-293.826 732.599 53.5371
-288.545 753.811 68.0354
-262.57 745.493 73.1175
-268.316 722.544 57.4316
-287.884 756.485 69.1664
-281.779 781.474 74.1974
-255.281 775.218 79.7262
-261.909 748.167 74.2485
-281.09 784.371 74.1944
-275.272 809.41 69.0687
-248.334 805.279 74.2257
-254.591 778.114 79.7232
-274.665 812.096 67.9314
-269.963 833.424 53.3984
-242.685 831.058 57.3152
-247.727 807.965 73.0883
-269.514 835.486 51.2925
-266.418 849.77 29.4809
-238.891 848.549 31.59
-242.235 833.12 55.2094
-266.175 850.885 26.7269
-265.067 855.876 0.961619
-237.448 855.059 0.973103
-238.648 849.664 28.836
-265.064 855.871 -2.01951
-266.129 850.805 -27.7722
-238.594 849.588 -29.8589
-237.446 855.055 -2.00802
-266.369 849.683 -30.5235
-269.45 835.345 -52.3034
-242.159 832.976 -56.1926
-238.833 848.465 -32.6103
-269.899 833.279 -54.4043
-274.596 811.917 -68.8899
-247.653 807.778 -74.01
-242.607 830.909 -58.2935
-275.202 809.228 -70.0211
-281.018 784.176 -75.0881
-254.513 777.913 -80.5785
-248.259 805.09 -75.1413
-281.708 781.28 -75.0845
-287.82 756.304 -69.995
-261.835 747.98 -75.0363
-255.203 775.016 -80.5749
-288.482 753.633 -68.8577
-293.761 732.458 -54.3053
-268.272 722.41 -58.1526
-262.497 745.31 -73.899
-294.275 730.413 -52.1996
-297.82 716.264 -30.3708
-272.665 705.047 -32.4326
-268.786 720.365 -56.0469
-298.1 715.158 -27.6157
-299.366 710.21 -1.84781
-274.302 698.574 -1.80704
-272.945 703.941 -29.6775
-271.25 697.475 1.25254
-269.897 702.901 29.1034
-239.705 694.358 29.7566
-241.101 688.83 1.27634
-265.756 719.445 55.5487
-235.412 711.178 56.7598
-239.411 695.525 32.6464
-269.603 704.068 31.9932
-259.466 744.544 73.4415
-228.865 736.708 75.0518
-234.868 713.328 58.9668
-265.212 721.595 57.7556
-252.135 774.4 80.1092
-221.252 767.109 81.8587
-228.162 739.513 76.2419
-258.763 747.349 74.6315
-245.154 804.605 74.6105
-214.249 797.926 76.2189
-220.528 770.15 81.8575
-251.412 777.441 80.108
-239.485 830.521 57.6416
-208.656 824.358 58.8443
-213.622 800.749 75.0231
-244.528 807.428 73.4147
-235.677 848.117 31.8066
-204.856 842.304 32.4595
-208.192 826.524 56.6287
-239.021 832.687 55.426
-234.225 854.683 1.04984
-203.398 848.992 1.06774
-204.603 843.475 29.5656
-235.424 849.287 28.9127
-235.37 849.211 -29.9321
-204.561 843.394 -30.5444
-203.395 848.988 -2.06325
-234.222 854.679 -2.08115
-238.945 832.543 -56.4053
-208.124 826.381 -57.5589
-204.81 842.216 -33.4354
-235.619 848.033 -32.823
-244.453 807.241 -74.3321
-213.546 800.562 -75.8936
-208.587 824.209 -59.7691
-239.407 830.372 -58.6156
-251.333 777.239 -80.9585
-220.448 769.947 -82.6568
-214.172 797.737 -77.0828
-245.079 804.415 -75.5213
-258.689 747.162 -75.4142
-228.089 739.325 -76.969
-221.172 766.906 -82.6511
-252.057 774.198 -80.9528
-265.168 721.461 -58.4709
-234.82 713.186 -59.6312
-228.793 736.523 -75.7722
-259.393 744.36 -74.2174
-269.595 703.998 -32.6433
-239.396 695.443 -33.2489
-235.367 711.042 -57.4179
-265.716 719.317 -56.2576
-269.892 702.838 -29.7494
-271.249 697.471 -1.87889
-241.1 688.826 -1.8551
-239.693 694.283 -30.355
-237.729 687.935 1.29992
-236.334 693.463 29.7802
-205.683 685.926 29.9316
-207.105 680.383 1.32311
-236.03 694.642 32.7098
-232.031 710.296 56.8232
-201.261 702.796 57.0915
-205.379 687.105 32.8612
-231.464 712.469 59.0625
-225.462 735.848 75.1476
-194.431 728.398 75.4959
-200.694 704.969 59.3308
-224.727 738.685 76.3553
-217.816 766.281 81.9722
-186.427 758.881 82.3488
-193.696 731.235 76.7037
-217.082 769.356 81.9714
-210.803 797.132 76.3328
-179.68 789.944 76.6988
-185.694 761.957 82.348
-210.192 800.001 75.1211
-205.226 823.61 58.9423
-174.352 816.683 59.2793
-179.069 792.812 75.4871
-204.773 825.812 56.6951
-201.437 841.592 32.5259
-170.628 834.814 32.7301
-173.899 818.885 57.0322
-201.186 842.781 29.5904
-199.98 848.298 1.09248
-169.173 841.564 1.117
-170.377 836.003 29.7945
-199.978 848.294 -2.08324
-201.145 842.7 -30.5644
-170.345 835.926 -30.7214
-169.171 841.56 -2.05872
-201.392 841.503 -33.4968
-204.705 825.668 -57.6203
-173.84 818.742 -57.9137
-170.593 834.729 -33.6538
-205.157 823.461 -59.862
-210.116 799.814 -75.9864
-178.994 792.624 -76.307
-174.291 816.535 -60.1554
-210.726 796.943 -77.1914
-217.002 769.153 -82.7654
-185.614 761.752 -83.0952
-179.605 789.753 -77.5119
-217.736 766.077 -82.759
-224.653 738.496 -77.0769
-193.623 731.045 -77.3785
-186.347 758.677 -83.0887
-225.39 735.662 -75.8624
-231.416 712.326 -59.7215
-200.64 704.823 -59.9446
-194.359 728.212 -76.164
-231.986 710.159 -57.4761
-236.015 694.559 -33.3071
-205.357 687.017 -33.4131
-201.21 702.655 -57.6992
-236.321 693.388 -30.3734
-237.729 687.931 -1.87349
-207.104 680.378 -1.8503
-205.664 685.845 -30.4794
-203.736 679.53 1.33254
-202.314 685.074 29.9411
-172.191 677.246 30.0021
-173.806 671.738 1.35417
-201.985 686.253 32.8818
-197.867 701.944 57.1121
-167.209 694.017 57.1971
-171.862 678.426 32.9428
-197.253 704.115 59.3566
-190.99 727.545 75.5217
-159.583 719.473 75.6114
-166.595 696.188 59.4417
-190.191 730.376 76.7307
-182.922 758.023 82.3758
-150.621 749.775 82.4821
-158.785 722.305 76.8204
-182.114 761.108 82.3686
-176.1 789.095 76.7194
-142.212 780.528 76.787
-149.812 752.861 82.4749
-175.424 791.957 75.5
-170.707 815.827 59.2923
-135.479 807.095 59.4023
-141.536 783.389 75.5676
-170.205 818.023 57.0431
-166.935 833.952 32.7411
-130.883 825.119 32.8276
-134.977 809.291 57.1532
-166.657 835.137 29.8007
-165.452 840.698 1.12313
-129.129 831.826 1.15242
-130.605 826.304 29.8872
-165.451 840.694 -2.05908
-166.625 835.06 -30.7218
-130.577 826.229 -30.7522
-129.127 831.822 -2.02979
-166.9 833.867 -33.6593
-170.147 817.88 -57.9192
-134.922 809.149 -57.9793
-130.852 825.037 -33.6898
-170.647 815.679 -60.1632
-175.35 791.768 -76.3147
-141.462 783.2 -76.3329
-135.422 806.947 -60.2233
-176.025 788.904 -77.5274
-182.034 760.903 -83.1106
-149.733 752.655 -83.1704
-142.137 780.335 -77.5457
-182.843 757.818 -83.1106
-190.118 730.186 -77.4004
-158.712 722.115 -77.446
-150.541 749.57 -83.1704
-190.918 727.357 -76.1849
-197.199 703.969 -59.9654
-166.538 696.04 -60.0075
-159.512 719.286 -76.2305
-197.815 701.803 -57.7148
-201.963 686.165 -33.4287
-171.833 678.335 -33.4467
-167.155 693.875 -57.7568
-202.294 684.993 -30.4839
-203.735 679.526 -1.85478
-173.805 671.734 -1.83316
-172.165 677.162 -30.5019
-170.498 670.809 1.35831
-168.883 676.318 30.0062
-139.265 667.372 30.039
-141.087 661.934 1.38119
-168.512 677.486 32.9498
-163.86 693.078 57.2042
-133.662 683.938 57.2504
-138.894 668.541 32.9826
-163.17 695.229 59.4503
-156.158 718.515 75.6201
-125.115 709.099 75.6766
-132.973 686.09 59.4965
-155.262 721.322 76.8291
-147.098 748.792 82.4908
-115.013 739.047 82.5352
-124.219 711.906 76.8856
-146.154 751.839 82.4827
-138.553 779.506 76.7948
-105.095 769.353 76.8396
-114.069 742.093 82.5271
-137.723 782.335 75.5748
-131.665 806.041 59.4096
-96.9405 795.542 59.4418
-104.264 772.182 75.6196
-131.046 808.214 57.1605
-126.952 824.042 32.8349
-91.4237 813.34 32.871
-96.3213 797.715 57.1927
-126.614 825.216 29.8922
-125.138 830.738 1.15745
-89.34 819.972 1.18774
-91.0858 814.514 29.9283
-125.136 830.735 -2.02828
-126.586 825.142 -30.7507
-91.0619 814.441 -30.7271
-89.3386 819.968 -1.998
-126.922 823.96 -33.6909
-130.992 808.072 -57.9805
-96.2708 797.574 -57.9558
-91.3971 813.26 -33.6672
-131.609 805.893 -60.2247
-137.648 782.145 -76.3344
-104.188 771.991 -76.3254
-96.8875 795.395 -60.2
-138.478 779.313 -77.5479
-146.074 751.633 -83.1727
-113.987 741.886 -83.168
-105.018 769.159 -77.5389
-147.018 748.586 -83.174
-155.189 721.131 -77.4496
-124.148 711.714 -77.4602
-114.931 738.839 -83.1694
-156.087 718.327 -76.2342
-163.113 695.082 -60.0112
-132.917 685.941 -60.012
-125.046 708.91 -76.2448
-163.805 692.935 -57.7589
-168.483 677.395 -33.4488
-138.863 668.448 -33.4358
-133.608 683.794 -57.7598
-168.857 676.234 -30.501
-170.497 670.805 -1.83231
-141.085 661.93 -1.80943
-139.237 667.287 -30.488
-137.839 660.874 1.38433
-136.017 666.313 30.0421
-106.954 656.102 30.0689
-108.993 650.75 1.40725
-135.6 667.465 32.9871
-130.369 682.862 57.255
-100.694 672.407 57.294
-106.538 657.254 33.0139
-129.598 684.985 59.5026
-121.74 707.994 75.6826
-91.1487 697.188 75.7354
-99.9226 674.53 59.5417
-120.733 710.763 76.8913
-111.528 737.904 82.5409
-79.8134 726.683 82.5838
-90.1426 699.958 76.9441
-110.451 740.903 82.5322
-101.477 768.163 76.8447
-68.4906 756.474 76.8896
-78.7365 729.683 82.5751
-100.504 770.947 75.6242
-93.1803 794.307 59.4464
-58.9955 782.205 59.4765
-67.5176 759.258 75.6691
-92.4488 796.447 57.1963
-87.5512 812.072 32.8746
-52.5836 799.71 32.9056
-58.264 784.345 57.2265
-87.1546 813.229 29.9319
-85.4088 818.686 1.1913
-50.1765 806.24 1.22283
-52.187 800.867 29.9628
-85.4076 818.682 -1.99472
-87.1309 813.156 -30.7238
-52.1674 800.798 -30.6925
-50.1754 806.236 -1.96319
-87.525 811.992 -33.6642
-92.3987 796.306 -57.9528
-58.2176 784.211 -57.9239
-52.5614 799.634 -33.6329
-93.1273 794.16 -60.1985
-100.428 770.756 -76.3238
-67.4351 759.069 -76.3174
-58.9462 782.065 -60.1696
-101.399 767.969 -77.5385
-110.369 740.695 -83.1676
-78.6504 729.467 -83.1659
-68.4061 756.281 -77.5321
-111.446 737.696 -83.17
-120.663 710.571 -77.4608
-90.0787 699.76 -77.469
-79.728 726.468 -83.1683
-121.67 707.805 -76.2459
-129.542 684.836 -60.0131
-99.8731 674.376 -60.0078
-91.0865 696.994 -76.254
-130.315 682.718 -57.7593
-135.57 667.372 -33.4353
-106.51 657.157 -33.4167
-100.647 672.258 -57.754
-135.989 666.227 -30.486
-137.837 660.87 -1.80743
-108.991 650.745 -1.78451
-106.929 656.012 -30.4674
-105.809 649.549 1.41003
-103.77 654.9 30.0717
-75.3016 643.396 30.095
-77.5655 638.142 1.43116
-103.307 656.033 33.0177
-97.463 671.186 57.2978
-68.3589 659.4 57.331
-74.8381 644.529 33.041
-96.6043 673.273 59.5469
-87.8305 695.932 75.7406
-57.7689 683.735 75.7858
-67.5002 661.487 59.5801
-86.7086 698.655 76.9493
-76.3795 725.381 82.589
-45.157 712.697 82.6294
-56.647 686.458 76.9944
-75.1701 728.327 82.5798
-64.9242 755.118 76.8943
-32.4769 741.911 76.9329
-43.9477 715.643 82.6202
-63.8172 757.85 75.6734
-55.295 780.797 59.4808
-21.7114 767.133 59.5097
-31.3698 744.643 75.712
-54.456 782.898 57.2299
-48.7756 798.263 32.909
-14.4326 784.299 32.9371
-20.8724 769.234 57.2587
-48.3218 799.399 29.9662
-46.3113 804.772 1.22616
-11.707 790.713 1.25521
-13.9789 785.435 29.9943
-46.3102 804.769 -1.95988
-48.3022 799.331 -30.6892
-13.9584 785.386 -30.6628
-11.7059 790.71 -1.93083
-48.7536 798.189 -33.6301
-54.4098 782.765 -57.9211
-20.823 769.132 -57.9032
-14.4097 784.243 -33.6037
-55.2451 780.659 -60.1685
-63.734 757.663 -76.3163
-31.2663 744.488 -76.3182
-21.6584 767.025 -60.1506
-64.8382 754.924 -77.5325
-75.0824 728.111 -83.1663
-43.8646 715.395 -83.1865
-32.3705 741.75 -77.5345
-76.2949 725.164 -83.1696
-86.6455 698.456 -77.4703
-56.6028 686.24 -77.4861
-45.0771 712.448 -83.1898
-87.7696 695.736 -76.255
-96.5562 673.119 -60.0087
-67.4664 661.319 -60.0078
-57.7269 683.52 -76.2708
-97.4164 671.037 -57.7533
-103.28 655.935 -33.416
-74.8194 644.423 -33.3992
-68.3265 659.237 -57.7524
-103.746 654.811 -30.4653
-105.808 649.544 -1.78244
-77.5644 638.137 -1.76131
-75.2849 643.298 -30.4486
-74.4503 636.798 1.43365
-72.1863 642.052 30.0975
-44.353 629.259 30.1184
-46.8468 624.115 1.4533
-71.6743 643.162 33.0443
-65.1951 658.034 57.3343
-36.7133 644.924 57.362
-43.8409 630.369 33.0652
-64.2467 660.08 59.5843
-54.5153 682.328 75.7901
-25.057 668.75 75.8269
-35.7648 646.97 59.6121
-53.2747 684.997 76.9989
-41.7848 711.237 82.6339
-11.1554 697.106 82.6699
-23.8165 671.42 77.0358
-40.4433 714.123 82.6243
-28.9725 740.39 76.937
2.85728 725.687 76.9693
-9.81396 699.992 82.6603
-27.7368 743.065 75.7157
-18.0783 765.555 59.5134
14.8359 750.351 59.54
4.09298 728.362 75.748
-17.1364 767.612 57.2619
-10.6966 782.677 32.9402
22.9507 767.139 32.9663
15.7779 752.408 57.2885
-10.1872 783.79 29.9974
-7.91537 789.068 1.25828
25.9874 773.422 1.28519
23.4602 768.253 30.0234
-7.91425 789.066 -1.92787
-10.1667 783.742 -30.6598
23.4823 768.224 -30.6357
25.9885 773.42 -1.90096
-10.6735 782.624 -33.6014
-17.0868 767.513 -57.9009
15.8288 752.343 -57.8855
22.9755 767.106 -33.5773
-18.0248 765.452 -60.1497
-27.6328 742.915 -76.3173
4.18445 728.26 -76.3176
14.8908 750.282 -60.1343
-28.8674 740.23 -77.5356
-40.3615 713.876 -83.1877
-9.78277 699.732 -83.2084
2.94986 725.576 -77.5359
-41.7078 710.985 -83.1917
-53.2335 684.776 -77.488
-23.8025 671.183 -77.5003
-11.1291 696.842 -83.2124
-54.4755 682.111 -76.2717
-64.215 659.91 -60.0088
-35.751 646.787 -60.0064
-25.0445 668.518 -76.284
-65.1641 657.869 -57.7516
-71.6569 643.055 -33.3985
-43.8331 630.254 -33.3827
-36.7001 644.747 -57.7492
-72.1701 641.953 -30.4467
-74.4497 636.793 -1.75938
-46.8462 624.109 -1.73973
-44.3463 629.152 -30.4308
-43.8048 622.629 1.45557
-41.3109 627.773 30.1207
-14.1568 613.709 30.1397
-16.882 608.687 1.47409
-40.7496 628.859 33.0679
-33.622 643.413 57.3648
-5.81629 628.999 57.3878
-13.5956 614.794 33.0869
-32.5828 645.414 59.6156
-21.875 667.194 75.8304
6.91015 652.258 75.8594
-4.77706 630.999 59.6386
-20.5151 669.803 77.0395
-7.85396 695.49 82.6736
22.0954 679.939 82.7034
8.27007 654.867 77.0686
-6.38154 698.31 82.6637
6.28969 724.005 76.9727
37.4192 707.828 76.9992
23.5678 682.759 82.6935
7.65026 726.617 75.7511
18.3932 748.606 59.5431
50.5659 731.886 59.5667
38.7798 710.441 75.7776
19.434 750.615 57.2914
26.6069 765.346 32.9692
59.4855 748.26 32.9932
51.6067 733.894 57.315
27.17 766.434 30.0263
29.6972 771.603 1.28805
62.8215 754.392 1.31352
60.0486 749.348 30.0503
29.6982 771.602 -1.89811
27.192 766.406 -30.6329
60.065 749.326 -30.6065
62.8225 754.39 -1.87264
26.6312 765.315 -33.5749
19.4845 750.552 -57.8831
51.6448 733.843 -57.8593
59.5042 748.235 -33.5486
18.4468 748.54 -60.133
7.74043 726.518 -76.3163
38.8441 710.36 -76.303
50.607 731.831 -60.1092
6.37791 723.895 -77.536
-6.35472 698.052 -83.2085
23.5563 682.513 -83.2052
37.4816 707.737 -77.5227
-7.83151 695.225 -83.2132
-20.5049 669.566 -77.501
8.25488 654.634 -77.496
22.0795 679.685 -83.2098
-21.8649 666.961 -76.284
-32.5713 645.23 -60.0064
-4.78178 630.816 -59.9954
6.89496 652.029 -76.279
-33.6103 643.236 -57.7481
-40.7433 628.743 -33.3816
-13.5983 614.676 -33.3646
-5.82074 628.821 -57.7372
-41.3048 627.666 -30.4289
-43.8047 622.623 -1.73783
-16.8819 608.681 -1.71931
-14.1598 613.6 -30.4119
-13.918 607.062 1.47606
-11.1928 612.084 30.1416
15.235 596.774 30.1571
12.2797 591.888 1.49153
-10.5825 613.142 33.0892
-2.80319 627.347 57.3901
24.2712 611.653 57.4078
15.8454 597.832 33.1046
-1.6734 629.296 59.6413
10.0138 650.555 75.8621
38.0586 634.288 75.8839
25.4009 613.603 59.6591
11.4924 653.098 77.0715
25.3177 678.169 82.7063
54.5117 661.227 82.729
39.5372 636.832 77.0933
26.919 680.917 82.6963
40.7704 705.986 77.0019
71.1157 688.365 77.0218
56.113 663.975 82.7189
42.2525 708.531 75.7801
54.0386 729.976 59.5692
85.393 711.765 59.5872
72.5978 690.91 75.7999
55.1747 731.932 57.3174
63.0535 746.298 32.9956
95.089 727.691 33.0141
86.5291 713.721 57.3353
63.6684 747.358 30.0528
66.4413 752.402 1.31599
98.7131 733.657 1.33578
95.7039 728.75 30.0712
66.4419 752.401 -1.8701
63.6844 747.336 -30.604
95.7125 728.733 -30.5834
98.7138 733.656 -1.85031
63.0711 746.274 -33.5461
55.2117 731.882 -57.8569
86.5505 713.681 -57.838
95.0992 727.671 -33.5255
54.0775 729.923 -60.1073
42.3146 708.452 -76.3012
72.6352 690.846 -76.2867
85.4163 711.722 -60.0884
40.8293 705.897 -77.5217
26.904 680.673 -83.2041
56.0647 663.746 -83.1963
71.1498 688.291 -77.5072
25.2984 677.917 -83.2093
11.4738 652.866 -77.4954
39.4932 636.611 -77.4888
54.4591 660.991 -83.2015
9.99629 650.326 -76.2782
-1.68045 629.113 -59.9946
25.3773 613.426 -59.9842
38.0157 634.071 -76.2715
-2.80906 627.169 -57.7358
-10.5866 613.024 -33.3632
15.832 597.716 -33.3486
24.2486 611.482 -57.7254
-11.1963 611.975 -30.4101
-13.9184 607.057 -1.71754
12.2792 591.882 -1.70208
15.2223 596.667 -30.3955
15.1603 590.127 1.49303
18.1157 595.013 30.1586
43.7679 578.486 30.1691
40.5851 573.748 1.50395
18.7747 596.041 33.1063
27.2004 609.862 57.4095
53.4907 592.917 57.4211
44.4269 579.514 33.1168
28.4197 611.756 59.661
41.0774 632.442 75.8858
68.3222 614.873 75.9003
54.7099 594.811 59.6726
42.6728 634.912 77.0953
57.6473 659.308 82.731
86.0173 641.006 82.7461
69.9176 617.344 77.1098
59.3749 661.977 82.7209
74.3776 686.367 77.0237
103.871 667.331 77.0364
87.745 643.675 82.7359
75.9776 688.839 75.8017
88.7728 709.694 59.5889
119.238 690.025 59.6002
105.471 669.802 75.8144
90.0008 711.594 57.3371
98.5608 725.563 33.0158
129.681 705.47 33.0277
120.466 691.925 57.3484
99.2255 726.592 30.073
102.235 731.499 1.33756
133.583 711.258 1.3508
130.346 706.498 30.0849
102.235 731.498 -1.84844
99.2336 726.575 -30.5815
130.346 706.488 -30.5673
133.583 711.257 -1.83521
98.5696 725.545 -33.5237
90.0209 711.555 -57.8362
120.471 691.897 -57.8225
129.682 705.457 -33.5095
88.794 709.653 -60.0869
76.0128 688.776 -76.2852
105.483 669.756 -76.2743
119.244 689.996 -60.0732
74.4086 686.295 -77.5061
59.3235 661.751 -83.1952
87.6626 643.467 -83.1888
103.879 667.275 -77.4953
57.5915 659.073 -83.2008
42.6256 634.693 -77.4881
69.8453 617.139 -77.4826
85.9306 640.79 -83.1944
41.0321 632.225 -76.2708
28.3937 611.58 -59.9835
54.6667 594.644 -59.9761
68.2518 614.671 -76.2653
27.1764 609.692 -57.7243
18.7598 595.926 -33.3475
44.402 579.402 -33.3372
53.4495 592.755 -57.717
18.1024 594.906 -30.3941
15.1594 590.122 -1.70069
40.5842 573.742 -1.68977
43.7447 578.383 -30.3837
43.377 571.854 1.5049
46.5597 576.593 30.17
71.3853 558.882 30.1755
67.9799 554.302 1.51098
47.2665 577.588 33.1178
56.3303 590.991 57.4221
81.7802 572.83 57.4277
72.0921 559.877 33.1232
57.6374 592.825 59.6738
71.2497 612.887 75.9015
97.6323 594.052 75.9087
83.0873 574.663 59.6794
72.9594 615.279 77.1111
89.0591 638.94 82.7473
116.539 619.315 82.7541
99.342 596.444 77.1183
90.9099 641.525 82.737
107.036 665.181 77.0375
135.606 644.767 77.042
118.389 621.9 82.7437
108.75 667.574 75.8154
122.518 687.797 59.6012
152.024 666.71 59.6052
137.321 647.161 75.8198
123.834 689.636 57.3493
133.048 703.181 33.0287
163.183 681.642 33.0335
153.341 668.549 57.3534
133.761 704.177 30.0859
136.998 708.937 1.35183
167.353 687.242 1.35837
163.896 682.639 30.0907
136.998 708.936 -1.83406
133.761 704.167 -30.5662
163.89 682.635 -30.558
167.352 687.241 -1.82752
133.049 703.169 -33.5084
123.837 689.61 -57.8213
153.33 668.535 -57.8124
163.177 681.637 -33.5002
122.521 687.769 -60.0721
108.76 667.529 -76.2733
137.309 647.135 -76.2659
152.013 666.695 -60.0632
107.041 665.127 -77.4944
90.8246 641.319 -83.188
118.274 621.716 -83.1832
135.59 644.732 -77.487
88.9693 638.727 -83.1938
72.884 615.076 -77.482
99.2429 596.258 -77.4781
116.419 619.123 -83.1891
71.1769 612.686 -76.2648
57.5918 592.659 -59.9756
83.0255 574.507 -59.9718
97.5359 593.868 -76.2608
56.2876 590.83 -57.7163
47.2402 577.476 -33.3365
72.056 559.769 -33.3309
81.7213 572.678 -57.7125
46.536 576.489 -30.3828
43.3755 571.849 -1.68889
67.9784 554.297 -1.68281
71.3518 558.782 -30.3773
70.6773 552.279 1.5114
74.0827 556.859 30.1759
98.0293 537.999 30.177
94.4081 533.589 1.51336
74.8361 557.819 33.1236
84.5242 570.772 57.4281
109.078 551.43 57.428
98.7827 538.959 33.1247
85.9169 572.541 59.6798
100.462 591.93 75.9091
125.922 571.868 75.9092
110.47 553.199 59.6797
102.283 594.237 77.1187
119.48 617.109 82.7544
146.005 596.201 82.7522
127.743 574.176 77.1188
121.45 619.602 82.7438
138.667 642.47 77.0421
166.248 620.722 77.0374
147.975 598.695 82.7416
140.492 644.779 75.8199
155.195 664.329 59.6053
183.674 641.869 59.601
168.073 623.031 75.8152
156.596 666.104 57.3535
166.439 679.197 33.0336
195.521 656.259 33.0306
185.076 643.644 57.3492
167.198 680.159 30.091
170.654 684.762 1.3586
199.948 661.657 1.35836
196.28 657.221 30.088
170.654 684.762 -1.82707
167.191 680.155 -30.5575
196.269 657.223 -30.555
199.947 661.657 -1.82732
166.432 679.193 -33.4995
156.584 666.091 -57.8117
185.051 643.644 -57.8064
195.509 656.261 -33.497
155.182 664.315 -60.0624
140.478 644.755 -76.2651
168.037 623.03 -76.259
183.649 641.868 -60.0571
138.648 642.437 -77.4864
121.332 619.421 -83.1826
147.828 598.539 -83.1775
166.206 620.712 -77.4803
119.357 616.919 -83.1886
102.181 594.054 -77.4776
127.621 574.011 -77.474
145.854 596.037 -83.1835
100.363 591.747 -76.2605
85.8531 572.386 -59.9716
110.394 553.056 -59.9705
125.804 571.705 -76.257
84.464 570.621 -57.7123
74.7988 557.712 -33.3306
98.7378 538.856 -33.3289
109.005 551.29 -57.7112
74.0488 556.759 -30.3769
70.6753 552.274 -1.68242
94.4061 533.584 -1.68046
97.9878 537.904 -30.3752
97.0053 531.442 1.51343
100.627 535.852 30.1771
123.641 515.879 30.1762
119.813 511.651 1.51367
101.425 536.774 33.1246
111.72 549.245 57.4279
135.32 528.763 57.4236
124.439 516.802 33.1238
113.196 550.945 59.6793
128.647 569.614 75.9089
153.124 548.367 75.9007
136.796 530.462 59.6751
130.576 571.832 77.1182
148.838 593.857 82.7516
174.35 571.708 82.7405
155.053 550.585 77.1099
150.925 596.254 82.7406
169.197 618.281 77.0365
195.726 595.246 77.0205
176.436 574.105 82.7296
171.128 620.502 75.814
186.73 639.34 59.5998
214.113 615.555 59.5805
197.656 597.467 75.7981
188.212 641.047 57.348
198.657 653.662 33.0294
226.617 629.371 33.0155
215.595 617.262 57.3287
199.46 654.587 30.0873
203.128 659.024 1.35771
231.29 634.554 1.35172
227.42 630.296 30.0734
203.127 659.024 -1.82741
199.449 654.59 -30.5551
227.404 630.301 -30.5536
231.289 634.555 -1.8334
198.645 653.665 -33.4965
188.187 641.048 -57.806
215.559 617.27 -57.7978
226.6 629.376 -33.4951
186.702 639.341 -60.0561
171.09 620.502 -76.258
197.591 597.491 -76.2418
214.075 615.563 -60.0479
169.153 618.274 -77.4791
150.775 596.102 -83.1763
176.257 573.99 -83.1614
195.653 595.263 -77.4629
148.684 593.696 -83.1827
130.452 571.67 -77.4732
154.92 550.447 -77.4665
174.167 571.584 -83.1678
128.528 569.453 -76.2567
113.118 550.804 -59.9701
136.716 530.336 -59.9683
152.996 548.229 -76.25
111.647 549.107 -57.7111
101.379 536.672 -33.3288
124.392 516.708 -33.3281
135.244 528.639 -57.7093
100.585 535.756 -30.3751
97.0031 531.437 -1.68036
119.811 511.647 -1.68012
123.597 515.793 -30.3743
122.304 509.383 1.51373
126.132 513.611 30.1763
148.161 492.565 30.1773
144.138 488.532 1.51508
126.974 514.493 33.1237
137.855 526.454 57.4235
160.443 504.867 57.4239
149.002 493.447 33.1247
139.41 528.081 59.6746
155.738 545.986 75.9002
179.164 523.591 75.8959
161.998 506.493 59.6751
157.771 548.108 77.109
177.068 569.231 82.7396
201.492 545.869 82.7288
181.198 525.713 77.1047
179.268 571.527 82.727
198.558 592.667 77.018
224.003 568.425 76.9642
203.692 548.165 82.7162
200.589 594.797 75.7941
217.045 612.885 59.5765
243.262 587.822 59.5187
226.034 570.555 75.7403
218.603 614.519 57.3251
229.625 626.627 33.0119
256.363 600.996 32.9742
244.82 589.456 57.2674
230.469 627.512 30.0718
234.339 631.771 1.35007
261.249 605.929 1.34854
257.207 601.88 30.034
234.337 631.77 -1.83242
230.452 627.516 -30.5527
257.161 601.859 -30.5107
261.247 605.928 -1.83396
229.606 626.631 -33.4916
218.564 614.525 -57.7943
244.73 589.419 -57.7202
256.314 600.974 -33.4497
217.002 612.892 -60.043
200.519 594.82 -76.2368
225.873 570.547 -76.1568
243.168 587.786 -59.9689
198.48 592.689 -77.458
179.084 571.416 -83.1564
203.514 548.147 -83.09
223.834 568.416 -77.3779
176.885 569.113 -83.1643
157.638 547.975 -77.463
181.091 525.626 -77.4281
201.316 545.843 -83.0978
155.611 545.851 -76.2484
139.331 527.958 -59.9668
161.937 506.402 -59.9512
179.063 523.502 -76.2134
137.779 526.333 -57.7087
126.927 514.402 -33.3275
148.962 493.372 -33.3226
160.385 504.777 -57.6931
126.089 513.525 -30.3741
122.302 509.379 -1.67994
144.136 488.527 -1.67859
148.124 492.495 -30.3692
146.518 486.147 1.51503
150.541 490.18 30.1772
171.54 468.109 30.1745
167.329 464.278 1.51363
151.424 491.021 33.1245
162.864 502.44 57.4237
184.401 479.804 57.4175
172.423 468.949 33.1217
164.496 503.99 59.6744
181.662 521.087 75.8952
203.997 497.609 75.8815
186.032 481.354 59.6682
183.793 523.11 77.1031
204.087 543.266 82.7271
227.335 518.822 82.7023
206.129 499.631 77.0893
206.396 545.457 82.7119
226.708 565.718 76.9599
250.939 540.291 76.8998
229.644 521.013 82.6871
228.839 567.748 75.7331
246.067 585.014 59.5116
271.096 558.671 59.4492
253.07 542.32 75.6731
247.696 586.568 57.2618
259.239 598.108 32.9686
284.777 571.169 32.9281
272.726 560.224 57.1993
260.121 598.948 30.0316
264.163 602.997 1.34618
289.872 575.845 1.34207
285.659 572.009 29.9911
264.16 602.995 -1.83193
260.073 598.925 -30.5087
285.595 571.975 -30.4728
289.87 575.843 -1.83604
259.186 598.082 -33.4436
247.603 586.528 -57.7142
272.608 560.162 -57.6495
284.708 571.132 -33.4077
245.968 584.973 -59.961
228.672 567.734 -76.1489
252.921 542.227 -76.0789
270.973 558.607 -59.8963
226.54 565.706 -77.3704
206.22 545.437 -83.0825
229.555 520.958 -83.0317
250.789 540.199 -77.3004
203.916 543.244 -83.0931
183.691 523.027 -77.4233
206.048 499.571 -77.3979
227.251 518.766 -83.0423
181.563 521.003 -76.2111
164.436 503.902 -59.9489
185.981 481.286 -59.9398
203.919 497.546 -76.1857
162.807 502.353 -57.6923
151.384 490.948 -33.3218
172.386 468.887 -33.3206
184.353 479.736 -57.6832
150.504 490.111 -30.3691
146.516 486.144 -1.67843
167.327 464.274 -1.67983
171.506 468.05 -30.3679
169.592 461.782 1.51317
173.804 465.613 30.174
193.727 442.564 30.1668
189.333 438.939 1.50817
174.726 466.41 33.1209
186.704 477.265 57.4167
207.14 453.628 57.4028
194.65 443.361 33.1136
188.408 478.735 59.6666
206.373 494.99 75.8799
227.571 470.475 75.8587
208.844 455.098 59.6527
208.599 496.909 77.0869
229.805 516.1 82.7
251.903 490.548 82.6702
229.797 472.394 77.0657
232.214 518.179 82.6833
253.51 537.456 76.8959
276.479 510.836 76.8712
254.313 492.627 82.6535
255.736 539.377 75.6686
273.763 555.728 59.4447
297.504 528.221 59.4218
278.706 512.757 75.6438
275.464 557.199 57.1954
287.516 568.144 32.9241
311.774 540.048 32.9088
299.205 529.692 57.1725
288.436 568.94 29.9893
292.649 572.775 1.34017
317.094 544.479 1.33246
312.693 540.844 29.9739
292.646 572.774 -1.8355
288.372 568.906 -30.4722
312.645 540.824 -30.4763
317.091 544.477 -1.84321
287.447 568.107 -33.4051
275.347 557.136 -57.6469
299.116 529.65 -57.648
311.72 540.025 -33.4092
273.642 555.663 -59.8923
255.59 539.283 -76.0748
278.597 512.691 -76.071
297.411 528.176 -59.8934
253.365 537.36 -77.297
232.131 518.119 -83.0283
254.209 492.55 -83.0313
276.372 510.768 -77.2931
229.722 516.042 -83.0402
208.519 496.847 -77.3959
229.707 472.321 -77.3994
251.801 490.472 -83.0432
206.295 494.928 -76.185
188.357 478.668 -59.9392
208.784 455.028 -59.9455
227.483 470.402 -76.1885
186.655 477.198 -57.6833
174.689 466.349 -33.3207
194.606 443.3 -33.3262
207.082 453.559 -57.6897
173.769 465.555 -30.3682
169.59 461.779 -1.68015
189.331 438.936 -1.68515
193.686 442.506 -30.3737
191.474 436.338 1.5076
195.869 439.962 30.1662
214.664 415.977 30.1618
210.097 412.566 1.50428
196.829 440.714 33.1127
209.319 450.982 57.4019
228.594 426.383 57.3955
215.624 416.729 33.1084
211.092 452.368 59.6514
229.819 467.745 75.8573
249.81 442.228 75.8498
230.367 427.769 59.645
232.134 469.555 77.0637
254.24 487.709 82.6683
275.075 461.107 82.6584
252.125 444.038 77.0562
256.746 489.668 82.6515
278.912 507.878 76.8692
300.592 480.191 76.8616
277.581 463.067 82.6416
281.228 509.689 75.6423
300.026 525.153 59.4203
322.43 496.546 59.4188
302.908 482.003 75.6347
301.797 526.54 57.1714
314.365 536.897 32.9077
337.254 507.674 32.9074
324.2 497.933 57.1699
315.323 537.648 29.9733
319.723 541.283 1.33181
342.783 511.845 1.33236
338.211 508.426 29.973
319.721 541.282 -1.84349
315.275 537.629 -30.4766
338.167 508.407 -30.475
342.781 511.844 -1.84294
314.313 536.875 -33.4092
301.709 526.5 -57.648
324.119 497.894 -57.6449
337.205 507.654 -33.4076
299.936 525.11 -59.8932
281.122 509.624 -76.0708
302.808 481.941 -76.0686
322.346 496.504 -59.8901
278.806 507.81 -77.293
256.643 489.592 -83.0311
277.478 462.991 -83.0281
300.492 480.127 -77.2908
254.137 487.632 -83.0432
232.044 469.481 -77.3994
252.034 443.961 -77.3965
274.973 461.031 -83.0402
229.73 467.671 -76.1887
211.031 452.298 -59.9458
230.302 427.696 -59.9474
249.721 442.151 -76.1859
209.26 450.912 -57.6902
196.784 440.653 -33.3266
215.573 416.666 -33.33
228.532 426.31 -57.6918
195.827 439.905 -30.3742
191.472 436.335 -1.68565
210.095 412.563 -1.68897
214.616 415.917 -30.3775
212.111 409.864 1.50399
216.678 413.274 30.1615
234.3 388.402 30.1599
229.574 385.215 1.50327
217.673 413.979 33.1079
230.644 423.634 57.395
248.716 398.126 57.3913
235.296 389.107 33.1063
232.481 424.933 59.6443
251.924 439.392 75.8492
270.667 412.934 75.8438
250.554 399.426 59.6406
254.323 441.089 77.0555
277.272 458.158 82.6576
296.805 430.58 82.653
273.066 414.631 77.0501
279.869 459.995 82.641
302.881 477.119 76.861
323.206 448.421 76.8595
299.402 432.417 82.6363
305.281 478.818 75.6345
324.802 493.361 59.4185
345.806 463.71 59.4205
325.606 450.12 75.633
326.638 494.662 57.17
339.692 504.403 32.9075
361.15 474.113 32.911
347.641 465.011 57.1719
340.684 505.107 29.9732
345.256 508.527 1.33256
366.875 478.012 1.33649
362.143 474.817 29.9767
345.254 508.526 -1.84264
340.64 505.089 -30.4748
362.1 474.799 -30.4706
366.873 478.011 -1.83872
339.644 504.383 -33.4072
326.557 494.622 -57.6445
347.564 464.971 -57.6401
361.104 474.092 -33.403
324.719 493.319 -59.8897
305.181 478.756 -76.0682
325.511 450.059 -76.0629
345.726 463.668 -59.8853
302.781 477.056 -77.2903
279.767 459.92 -83.0276
299.302 432.343 -83.0213
323.11 448.359 -77.285
277.17 458.082 -83.0397
254.232 441.011 -77.396
272.977 414.553 -77.3912
296.706 430.505 -83.0334
251.835 439.315 -76.1857
232.416 424.86 -59.9472
250.488 399.352 -59.9458
270.58 412.856 -76.1809
230.58 423.561 -57.6919
217.622 413.916 -33.3301
235.242 389.044 -33.3304
248.653 398.053 -57.6906
216.63 413.215 -30.3777
212.108 409.861 -1.68919
229.571 385.211 -1.6899
234.25 388.343 -30.3781
231.456 382.417 1.50324
236.183 385.605 30.1599
252.595 359.9 30.1602
247.721 356.942 1.50458
237.211 386.261 33.106
250.631 395.28 57.391
267.462 368.922 57.3888
253.624 360.556 33.1064
252.529 396.49 59.6401
272.642 409.999 75.8434
290.096 382.663 75.8389
269.36 370.132 59.6378
275.12 411.579 77.0496
298.859 427.528 82.6525
317.045 399.04 82.6491
292.574 384.243 77.0452
301.54 429.239 82.6361
325.345 445.243 76.8592
344.269 415.601 76.8598
319.727 400.751 82.6327
327.823 446.825 75.6331
348.023 460.414 59.4207
367.579 429.788 59.4245
346.748 417.184 75.6337
349.919 461.625 57.1723
363.428 470.728 32.9114
383.409 439.44 32.9171
369.475 430.999 57.1762
364.453 471.383 29.9773
369.186 474.578 1.33701
389.318 443.058 1.34329
384.434 440.096 29.9829
369.184 474.577 -1.83812
364.411 471.365 -30.47
384.395 440.077 -30.4634
389.315 443.057 -1.83184
363.382 470.707 -33.4024
349.843 461.586 -57.6394
369.402 430.96 -57.6325
383.365 439.42 -33.3958
347.944 460.372 -59.8846
327.728 446.764 -76.0622
346.657 417.124 -76.0538
367.503 429.747 -59.8776
325.249 445.18 -77.2842
301.441 429.164 -83.0205
319.632 400.678 -83.0104
344.177 415.541 -77.2759
298.76 427.453 -83.0325
275.031 411.501 -77.3904
292.489 384.165 -77.382
316.951 398.966 -83.0225
272.555 409.921 -76.1803
252.464 396.416 -59.9453
269.296 370.059 -59.941
290.013 382.585 -76.1719
250.568 395.207 -57.6903
237.157 386.198 -33.3302
253.569 360.494 -33.3282
267.4 368.849 -57.686
236.132 385.546 -30.378
231.453 382.414 -1.68983
247.718 356.939 -1.68849
252.544 359.842 -30.3761
249.467 354.056 1.50474
254.342 357.013 30.1604
269.511 330.532 30.1624
264.499 327.81 1.50776
255.401 357.62 33.1063
269.239 365.986 57.3887
284.793 338.836 57.3875
270.569 331.139 33.1083
271.193 367.104 59.6374
291.929 379.635 75.8385
308.056 351.484 75.8344
286.747 339.954 59.6363
294.479 381.094 77.0448
318.951 395.892 82.6486
335.753 366.562 82.6453
310.607 352.944 77.0406
321.711 397.473 82.6326
346.253 412.324 76.8596
363.735 381.811 76.861
338.513 368.143 82.6293
348.805 413.786 75.634
369.635 426.39 59.4248
387.702 394.862 59.4303
366.286 383.273 75.6354
371.588 427.509 57.1768
385.522 435.949 32.9177
403.983 403.737 32.9252
389.654 395.981 57.1822
386.578 436.555 29.9837
391.461 439.517 1.34405
410.063 407.063 1.3525
405.039 404.343 29.9912
391.459 439.516 -1.83098
386.539 436.536 -30.4625
405.002 404.325 -30.4535
410.061 407.062 -1.82253
385.479 435.929 -33.3949
371.516 427.47 -57.6315
389.586 395.943 -57.6216
403.943 403.717 -33.3859
369.561 426.349 -59.8766
348.714 413.727 -76.0528
366.201 383.217 -76.0411
387.631 394.823 -59.8666
346.161 412.263 -77.2746
321.616 397.4 -83.0092
338.423 368.073 -82.9948
363.648 381.753 -77.2629
318.856 395.818 -83.0212
294.394 381.017 -77.3807
310.526 352.868 -77.3679
335.663 366.491 -83.0068
291.846 379.557 -76.171
271.129 367.031 -59.94
286.686 339.882 -59.9327
307.977 351.408 -76.1581
269.177 365.913 -57.6855
255.346 357.558 -33.3277
270.514 331.078 -33.3239
284.734 338.764 -57.6782
254.291 356.955 -30.3758
249.465 354.053 -1.68819
264.496 327.807 -1.68517
269.459 330.475 -30.372
266.106 324.841 1.5081
271.118 327.563 30.1627
285.011 300.362 30.1664
279.875 297.879 1.5128
272.204 328.119 33.1083
286.428 335.816 57.3875
300.673 307.935 57.3873
286.097 300.918 33.112
288.433 336.84 59.6359
309.742 348.37 75.8341
324.51 319.471 75.8297
302.678 308.959 59.6357
312.359 349.708 77.0402
337.505 363.326 82.6449
352.886 333.225 82.641
327.126 320.808 77.0358
340.337 364.774 82.6292
365.559 378.442 76.8609
381.561 347.132 76.8627
355.719 334.674 82.6253
368.178 379.78 75.6358
389.593 391.37 59.4307
406.132 359.016 59.437
384.18 348.471 75.6375
391.598 392.393 57.183
405.927 400.149 32.9259
422.83 367.087 32.9348
408.137 360.039 57.1893
407.011 400.703 29.9921
412.035 403.423 1.35345
429.067 370.112 1.36348
423.914 367.64 30.001
412.033 403.422 -1.82145
406.975 400.685 -30.4524
423.881 367.623 -30.4418
429.065 370.111 -1.81141
405.887 400.129 -33.3846
391.531 392.356 -57.6204
408.075 360.003 -57.6082
422.794 367.068 -33.374
389.524 391.331 -59.8652
368.093 379.725 -76.0397
384.101 348.42 -76.0247
406.068 358.978 -59.8531
365.473 378.385 -77.2613
340.248 364.705 -82.9932
355.635 334.608 -82.9742
381.481 347.08 -77.2463
337.416 363.255 -83.0051
312.279 349.632 -77.3661
327.052 320.735 -77.3486
352.803 333.159 -82.986
309.664 348.294 -76.1567
288.372 336.768 -59.9313
302.621 308.888 -59.9212
324.437 319.397 -76.1393
286.369 335.744 -57.6774
272.149 328.058 -33.3231
286.043 300.859 -33.3174
300.618 307.864 -57.6672
271.066 327.506 -30.3714
266.104 324.838 -1.68467
279.872 297.876 -1.67997
284.96 300.307 -30.3658
281.34 294.833 1.51334
286.476 297.316 30.1669
299.065 269.451 30.1727
293.817 267.21 1.52023
287.587 297.82 33.1122
302.163 304.837 57.3875
315.07 276.285 57.388
300.176 269.955 33.1179
304.214 305.766 59.6353
326.046 316.278 75.8293
339.423 286.696 75.8239
317.12 277.214 59.6359
328.722 317.491 77.0352
354.483 329.908 82.6404
368.412 299.11 82.6353
342.099 287.91 77.0298
357.38 331.222 82.6251
383.223 343.681 76.8625
397.713 311.652 76.8645
371.31 300.424 82.62
385.903 344.893 75.6379
407.855 355.437 59.4375
422.834 322.332 59.4451
400.393 312.864 75.6399
409.907 356.362 57.1902
424.6 363.41 32.9357
439.91 329.574 32.9462
424.886 323.257 57.1978
425.711 363.91 30.0021
430.864 366.381 1.3646
446.292 332.287 1.37618
441.021 330.073 30.0127
430.862 366.38 -1.81017
425.678 363.892 -30.4406
440.992 330.055 -30.4288
446.29 332.286 -1.79858
424.564 363.391 -33.3726
409.846 356.326 -57.6068
424.83 323.222 -57.5933
439.879 329.554 -33.3608
407.791 355.4 -59.8514
385.824 344.842 -76.0229
400.319 312.82 -76.0025
422.775 322.296 -59.8378
383.143 343.629 -77.244
357.297 331.157 -82.9719
371.234 300.367 -82.9454
397.637 311.607 -77.2236
354.4 329.842 -82.9836
328.649 317.419 -77.3462
342.036 287.84 -77.3231
368.337 299.052 -82.957
325.974 316.205 -76.1374
304.158 305.695 -59.9192
317.073 277.145 -59.9051
339.361 286.626 -76.1142
302.108 304.767 -57.6661
287.533 297.762 -33.3163
300.126 269.899 -33.3081
315.023 276.217 -57.6519
286.424 297.261 -30.3651
281.337 294.83 -1.67922
293.815 267.207 -1.67233
299.017 269.398 -30.3569
295.136 264.093 1.52103
300.384 266.334 30.1735
311.643 237.858 30.1816
306.296 235.86 1.53093
301.518 266.786 33.1182
316.411 273.117 57.3883
327.955 243.953 57.389
312.777 238.31 33.1263
318.503 273.95 59.6354
340.806 283.432 75.8234
352.767 253.237 75.8152
330.047 244.786 59.636
343.536 284.52 77.029
369.849 295.72 82.6345
382.299 264.301 82.6268
355.497 254.325 77.0208
372.805 296.897 82.6198
399.208 308.126 76.8643
412.159 275.458 76.8661
385.256 265.478 82.6121
401.944 309.208 75.6404
424.385 318.677 59.4456
437.777 284.899 59.4559
414.894 276.541 75.6422
426.48 319.499 57.1989
441.504 325.816 32.9473
455.195 291.283 32.9616
439.872 285.722 57.2092
442.638 326.26 30.0141
447.909 328.474 1.37761
461.702 293.674 1.3935
456.329 291.726 30.0284
447.907 328.473 -1.79695
442.609 326.242 -30.4272
456.294 291.704 -30.4087
461.7 293.673 -1.78106
441.472 325.797 -33.3589
426.424 319.464 -57.5913
439.805 285.679 -57.5672
455.156 291.258 -33.3404
424.326 318.64 -59.8351
401.869 309.164 -75.9998
414.801 276.498 -75.9653
437.707 284.855 -59.811
399.133 308.082 -77.22
372.729 296.843 -82.9417
385.203 265.443 -82.8917
412.065 275.416 -77.1855
369.775 295.663 -82.9531
343.475 284.451 -77.3191
355.459 254.262 -77.2787
382.249 264.264 -82.9031
340.746 283.362 -76.1112
318.458 273.881 -59.9021
330.017 244.722 -59.877
352.73 253.173 -76.0708
316.366 273.049 -57.6501
301.469 266.73 -33.3062
312.735 238.259 -33.2931
327.925 243.89 -57.625
300.336 266.282 -30.3557
295.134 264.091 -1.67121
306.294 235.858 -1.66131
311.603 237.81 -30.3426
307.467 232.679 1.53194
312.814 234.676 30.1826
322.721 205.642 30.1921
317.286 203.885 1.5438
313.968 235.077 33.1266
329.145 240.72 57.3892
339.305 211.004 57.3881
323.876 206.042 33.136
331.274 241.457 59.6352
353.994 249.909 75.8143
364.519 219.171 75.8006
341.434 211.741 59.6341
356.772 250.871 77.0196
383.574 260.847 82.6256
394.524 228.888 82.6134
367.296 220.134 77.0058
386.582 261.887 82.6116
413.485 271.867 76.8656
424.875 238.643 76.8647
397.532 229.928 82.5994
416.27 272.817 75.6427
439.152 281.175 59.4564
450.936 246.802 59.4676
427.66 239.594 75.6419
441.287 281.893 57.2105
456.609 287.454 32.9629
468.658 252.3 32.98
453.07 247.519 57.2218
457.764 287.84 30.0302
463.137 289.787 1.39533
475.275 254.362 1.41438
469.812 252.686 30.0473
463.135 289.786 -1.77895
457.729 287.817 -30.4066
469.771 252.661 -30.3846
475.273 254.36 -1.7599
456.57 287.429 -33.3377
441.219 281.849 -57.5645
452.993 247.467 -57.536
468.612 252.272 -33.3158
439.082 281.13 -59.8075
416.176 272.773 -75.9618
427.558 239.523 -75.9198
450.856 246.748 -59.779
413.393 271.823 -77.1804
386.53 261.851 -82.8866
397.517 229.875 -82.8283
424.775 238.573 -77.1384
383.527 260.81 -82.8976
356.737 250.808 -77.2732
367.285 220.072 -77.2234
394.513 228.834 -82.8393
353.959 249.845 -76.0666
331.247 241.394 -59.8728
341.423 211.683 -59.8416
364.508 219.108 -76.0168
329.118 240.657 -57.6224
313.928 235.026 -33.2905
323.843 205.997 -33.2744
339.294 210.946 -57.5913
312.774 234.629 -30.341
307.465 232.676 -1.65979
317.285 203.883 -1.64794
322.69 205.599 -30.325
318.307 200.644 1.54487
323.742 202.4 30.1931
332.284 172.854 30.2018
326.77 171.335 1.55719
324.914 202.75 33.1361
340.343 207.711 57.3881
349.105 177.499 57.3827
333.456 173.203 33.1448
342.503 208.355 59.6326
365.589 215.785 75.7991
374.662 184.578 75.7768
351.265 178.143 59.6271
368.407 216.624 77.0039
395.635 225.379 82.6115
405.068 192.97 82.5932
377.48 185.417 76.9816
398.688 226.281 82.5984
426.03 234.996 76.8637
435.843 201.302 76.8569
408.121 193.872 82.5801
428.859 235.81 75.6421
452.135 243.019 59.4678
462.292 208.125 59.4791
438.671 202.117 75.6353
454.303 243.627 57.2233
469.89 248.408 32.9815
480.276 212.71 32.9998
464.46 208.733 57.2346
471.064 248.735 30.0494
476.526 250.41 1.41647
486.991 214.437 1.43742
481.449 213.038 30.0677
476.524 250.409 -1.75755
471.022 248.709 -30.3823
481.414 213.013 -30.3602
486.989 214.436 -1.7366
469.845 248.379 -33.3129
454.226 243.574 -57.5332
464.394 208.679 -57.5071
480.237 212.683 -33.2909
452.055 242.963 -59.7749
428.758 235.738 -75.9157
438.587 202.028 -75.8736
462.224 208.068 -59.7487
425.933 234.923 -77.133
398.674 226.224 -82.823
408.122 193.796 -82.7732
435.762 201.213 -77.0909
395.626 225.324 -82.8333
368.398 216.562 -77.2175
377.482 185.351 -77.166
405.074 192.895 -82.7836
365.579 215.723 -76.0119
342.495 208.298 -59.8367
351.264 178.09 -59.8044
374.663 184.512 -75.9604
340.333 207.655 -57.5883
324.882 202.705 -33.2715
333.428 173.165 -33.2548
349.102 177.447 -57.5559
323.711 202.359 -30.3233
318.305 200.642 -1.64624
326.768 171.333 -1.63392
332.256 172.818 -30.3066
327.639 168.039 1.55811
333.153 169.558 30.2028
340.331 139.546 30.2065
334.749 138.259 1.57084
334.34 169.858 33.1441
349.989 174.154 57.382
357.35 143.501 57.3657
341.517 139.846 33.1478
352.176 174.707 59.6244
375.572 181.142 75.774
383.187 149.542 75.7347
359.537 144.054 59.608
378.424 181.861 76.9784
406.013 189.414 82.59
413.918 156.66 82.5578
386.039 150.262 76.9391
409.104 190.178 82.578
436.825 197.609 76.8548
445.039 163.526 76.8378
417.009 157.424 82.5459
439.691 198.282 75.6349
463.312 204.291 59.4787
471.816 168.947 59.488
447.905 164.199 75.6179
465.508 204.786 57.236
481.324 208.763 33.0013
490.01 172.594 33.0181
474.012 169.442 57.2453
482.512 209.03 30.0699
488.054 210.429 1.43964
496.804 173.981 1.46297
491.198 172.86 30.0868
488.053 210.428 -1.734
482.478 209.006 -30.3576
491.177 172.84 -30.3302
496.803 173.98 -1.71066
481.286 208.736 -33.2878
465.444 204.731 -57.504
473.97 169.389 -57.4737
489.985 172.571 -33.2604
463.246 204.233 -59.7443
439.609 198.193 -75.8691
447.852 164.1 -75.8198
471.772 168.89 -59.714
436.747 197.518 -77.0854
409.107 190.1 -82.7677
417.015 157.328 -82.7117
444.99 163.425 -77.0361
406.02 189.338 -82.7772
378.427 181.794 -77.1596
386.043 150.192 -77.0927
413.928 156.566 -82.7212
375.575 181.076 -75.9545
352.175 174.654 -59.7985
359.537 144.006 -59.7555
383.191 149.474 -75.8877
349.986 174.102 -57.5523
334.313 169.82 -33.2512
341.49 139.816 -33.229
357.348 143.454 -57.5093
333.126 169.523 -30.3047
327.638 168.038 -1.63199
334.747 138.258 -1.61926
340.303 139.518 -30.2825
335.471 134.915 1.57083
341.053 136.202 30.2065
346.937 105.783 30.1808
341.313 104.725 1.58409
342.251 136.454 33.1444
358.083 140.109 57.3623
364.083 109.08 57.298
348.135 106.035 33.1187
360.289 140.577 59.6014
383.94 146.065 75.7281
390.1 114.161 75.6349
366.289 109.547 59.537
386.816 146.672 76.9317
414.695 153.07 82.5505
421.038 120.095 82.4602
392.976 114.768 76.8385
417.817 153.696 82.5405
445.847 159.797 76.8324
452.431 125.387 76.7873
424.16 120.72 82.4502
448.741 160.322 75.6157
472.652 165.069 59.4858
479.425 129.331 59.4711
455.324 125.912 75.5705
474.869 165.446 57.2455
490.867 168.598 33.0183
497.737 132.016 33.0146
481.642 129.708 57.2308
492.065 168.803 30.0885
497.671 169.924 1.46467
504.576 133.061 1.4879
498.936 132.221 30.0847
497.671 169.923 -1.70731
492.044 168.783 -30.3268
498.932 132.207 -30.2796
504.575 133.06 -1.68408
490.844 168.576 -33.256
474.829 165.394 -57.4693
481.631 129.662 -57.4173
497.732 131.999 -33.2087
472.611 165.013 -59.7078
448.691 160.223 -75.8137
455.309 125.819 -75.7389
479.413 129.281 -59.6559
445.8 159.695 -77.0278
417.825 153.598 -82.7033
424.162 120.625 -82.5926
452.417 125.291 -76.953
414.704 152.975 -82.7111
386.82 146.601 -77.0827
392.978 114.699 -76.9641
421.042 120.002 -82.6004
383.943 145.997 -75.8781
360.29 140.529 -59.7459
366.291 109.509 -59.6534
390.102 114.095 -75.7595
358.082 140.063 -57.5029
342.224 136.425 -33.2226
348.109 106.018 -33.1692
364.083 109.043 -57.4104
341.026 136.175 -30.2795
335.47 134.914 -1.61625
341.311 104.724 -1.60298
346.911 105.768 -30.226
341.918 101.347 1.57798
347.542 102.405 30.1746
352.58 71.7463 29.9625
346.984 70.9121 1.58995
348.742 102.611 33.0989
364.69 105.656 57.2781
369.658 74.4195 56.8906
353.78 71.9527 32.8868
366.899 106.044 59.5075
390.709 110.657 75.6054
395.577 78.6187 75.116
371.866 74.8076 59.12
393.588 111.162 76.8048
421.65 116.489 82.4265
426.404 83.4979 81.8976
398.456 79.1231 76.3154
424.784 116.971 82.421
453.055 121.638 76.758
457.759 86.9397 76.3854
429.539 83.9805 81.892
455.953 121.999 75.5494
480.055 125.418 59.45
484.639 89.2918 59.1356
460.657 87.3002 75.1768
482.274 125.671 57.2166
498.368 127.979 33.0004
502.877 90.9938 32.8193
486.858 89.5446 56.9022
499.568 128.121 30.0807
505.208 128.96 1.48383
509.697 91.6927 1.49641
504.077 91.1362 29.8996
505.208 128.96 -1.67588
499.565 128.107 -30.2714
504.079 91.1279 -30.0573
509.696 91.6922 -1.6633
498.365 127.963 -33.1899
482.264 125.626 -57.3985
486.871 89.5067 -57.0311
502.879 90.9836 -32.9759
480.045 125.368 -59.6302
455.941 121.907 -75.7132
460.669 87.22 -75.2967
484.652 89.2496 -59.2628
453.043 121.544 -76.9202
424.788 116.878 -82.5599
429.549 83.8972 -81.9983
457.771 86.857 -76.5037
421.654 116.397 -82.5636
393.59 111.094 -76.9274
398.465 79.0647 -76.4066
426.415 83.4161 -82.0021
390.711 110.592 -75.7267
366.9 106.006 -59.6206
371.877 74.7844 -59.1989
395.586 78.5633 -75.2059
364.691 105.621 -57.3874
348.717 102.596 -33.1461
353.765 71.9559 -32.9058
369.668 74.3992 -56.9657
347.517 102.391 -30.2169
341.917 101.347 -1.59386
346.983 70.9118 -1.58189
352.565 71.7509 -29.9766
347.661 67.5709 1.54689
353.257 68.4051 29.9194
360.339 38.4963 28.6303
355.008 37.7427 1.55455
354.423 68.5797 32.7651
370.302 71.0465 56.769
376.629 40.8891 54.4052
361.505 38.6709 31.476
372.453 71.3761 58.9439
396.163 75.1871 74.9399
401.389 44.5654 71.9056
378.779 41.2187 56.5802
398.97 75.6128 76.1138
426.919 79.9877 81.6959
430.894 48.7621 78.4666
404.197 44.991 73.0794
429.957 80.3819 81.699
458.177 83.3411 76.1923
460.739 52.2573 73.1241
433.932 49.1564 78.4696
461.003 83.6277 75.0202
484.984 85.6193 58.979
486.296 54.8145 56.5766
463.565 52.5438 71.9519
487.154 85.8202 56.797
503.173 87.2693 32.7141
503.686 56.5471 31.4053
488.465 55.0154 54.3947
504.347 87.3826 29.8627
509.967 87.939 1.45948
510.203 57.1954 1.46868
504.86 56.6603 28.5538
509.967 87.9376 -1.624
504.349 87.3733 -30.018
504.854 56.6111 -28.6788
510.203 57.194 -1.6148
503.176 87.2577 -32.8658
487.168 85.7808 -56.921
488.487 54.9514 -54.4642
503.682 56.4955 -31.5265
485 85.5775 -59.1004
461.017 83.5479 -75.1343
463.586 52.4823 -72.0185
486.319 54.7481 -56.6436
458.19 83.2604 -76.3061
429.968 80.3006 -81.8007
433.951 49.0975 -78.5335
460.76 52.1948 -73.1903
426.93 79.9076 -81.7968
398.98 75.5561 -76.2013
404.212 44.9535 -73.138
430.912 48.7046 -78.5296
396.172 75.1338 -75.0267
372.464 71.3549 -59.0196
378.789 41.2288 -56.6353
401.404 44.5312 -71.9634
370.312 71.0286 -56.8412
354.409 68.5853 -32.7813
361.485 38.7018 -31.4767
376.637 40.9024 -54.4568
353.242 68.411 -29.9312
347.66 67.5719 -1.53641
355.007 37.7437 -1.52875
360.319 38.5275 -28.6265
355.859 34.4771 1.47024
361.19 35.2307 28.546
369.168 6.14699 26.7747
364.171 5.48595 1.47087
362.292 35.3863 31.2353
377.415 37.6045 54.1644
384.441 8.26267 50.8852
370.27 6.30251 29.464
379.448 37.8951 56.2206
402.058 41.2418 71.5459
407.656 11.4731 67.2355
386.474 8.55328 52.9413
404.712 41.6132 72.6568
431.409 45.3843 78.044
435.286 15.1605 73.3491
410.309 11.8444 68.3463
434.281 45.7505 78.0442
461.087 48.8514 72.6986
463.164 18.5274 68.3206
438.158 15.5267 73.3493
463.746 49.1503 71.5862
486.477 51.421 56.211
487.003 21.2086 52.8633
465.823 18.8264 67.2082
488.516 51.6375 54.1498
503.737 53.1691 31.1604
503.198 23.0132 29.358
489.042 21.4251 50.8022
504.841 53.2854 28.4693
510.184 53.8205 1.38408
509.266 23.6537 1.41543
504.302 23.1295 26.6668
510.184 53.817 -1.5254
504.835 53.2341 -28.5894
504.297 23.051 -26.7298
509.265 23.6502 -1.49406
503.732 53.114 -31.2766
488.538 51.5699 -54.2143
489.06 21.3451 -50.8286
503.194 22.9309 -29.4171
486.501 51.3546 -56.2733
463.768 49.0888 -71.6482
465.841 18.7863 -67.2412
487.022 21.1297 -52.8875
461.108 48.7913 -72.761
434.3 45.694 -78.1041
438.172 15.4924 -73.3822
463.181 18.4888 -68.354
431.427 45.3289 -78.1037
404.727 41.5779 -72.712
410.319 11.8261 -68.3769
435.3 15.1273 -73.3817
402.073 41.2103 -71.6012
379.458 37.9078 -56.2731
386.472 8.59446 -52.9753
407.665 11.4585 -67.2661
377.423 37.6211 -54.2145
362.271 35.4205 -31.2343
370.243 6.3641 -29.4583
384.437 8.30774 -50.9167
361.169 35.2634 -28.5411
355.858 34.4796 -1.44338
364.17 5.48842 -1.44275
369.14 6.20697 -26.7651
365.19 2.53159 1.34215
370.187 3.19263 26.646
380.268 -21.2034 23.7808
375.846 -21.825 1.32912
371.194 3.33125 29.1007
385.366 5.29141 50.522
393.874 -19.3058 45.2659
381.276 -21.0648 26.2356
387.226 5.54622 52.3984
408.408 8.46598 66.6926
414.619 -16.5244 59.8116
395.735 -19.051 47.1423
410.835 8.79157 67.7035
435.812 12.1076 72.7063
439.283 -13.252 65.2127
417.047 -16.1988 60.8224
438.435 12.4466 72.7027
463.441 15.4473 67.674
464.089 -9.98371 60.6838
441.906 -12.913 65.2091
465.865 15.7476 66.6577
487.045 18.1298 52.3128
485.274 -7.21019 46.9478
466.512 -9.68343 59.6675
488.901 18.3561 50.4357
503.057 19.9441 28.9914
499.642 -5.3361 26.1071
487.13 -6.98393 45.0706
504.061 20.0651 26.5413
509.025 20.5893 1.28993
505.036 -4.63756 1.32424
500.647 -5.21519 23.6569
509.025 20.587 -1.36061
504.056 19.9878 -26.5964
500.646 -5.21832 -23.6589
505.036 -4.63985 -1.3263
503.052 19.8644 -29.046
488.918 18.2786 -50.4575
487.13 -6.98949 -45.0723
499.642 -5.34169 -26.1085
487.062 18.054 -52.3344
465.881 15.7106 -66.6881
466.513 -9.68707 -59.6691
485.274 -7.21406 -46.9492
463.457 15.4116 -67.7043
438.448 12.4152 -72.7325
441.907 -12.9153 -65.2106
464.09 -9.98608 -60.6853
435.825 12.0768 -72.7359
410.844 8.77557 -67.7312
417.047 -16.2004 -60.8238
439.284 -13.2538 -65.214
408.416 8.45193 -66.7199
387.223 5.58788 -52.4292
395.735 -19.0504 -47.1435
414.619 -16.5241 -59.8126
385.361 5.33571 -50.5521
371.167 3.39207 -29.0937
381.274 -21.0615 -26.2361
393.873 -19.3026 -45.2664
370.16 3.25197 -26.6383
365.189 2.53342 -1.31594
375.845 -21.8232 -1.32897
380.268 -21.2016 -23.7807
-297.889 722.868 25.3903
-299.107 717.853 -0.36779
-297.841 722.802 -26.1357
-294.295 736.95 -47.9645
-289.016 758.125 -62.517
-282.904 783.101 -67.6064
-277.088 808.153 -62.5395
-272.39 829.515 -48.054
-269.309 843.852 -26.2741
-268.244 848.919 -0.521405
-269.352 843.928 25.2439
-272.448 829.644 47.0555
-277.15 808.316 61.5885
-282.968 783.277 66.7141
-289.073 758.288 61.6831
-294.353 737.075 47.1849
382.635 -22.3863 1.76393e-05
387.057 -21.7648 22.4517
399.656 -20.0058 41.4821
418.54 -17.4792 54.1513
440.777 -14.5323 58.5415
462.96 -11.603 54.0162
481.721 -9.1298 41.2965
494.234 -7.48197 22.3329
498.623 -6.90434 0.000247942
494.233 -7.48281 -22.3323
481.721 -9.13061 -41.2962
462.96 -11.6036 -54.016
440.777 -14.5328 -58.5413
418.54 -17.4795 -54.1511
399.656 -20.0059 -41.482
387.057 -21.7648 -22.4517
</DataArray>
</Points>
<Cells>
<DataArray type="Int32" Name="connectivity" format="ascii">
0 1 2 3 
4 5 6 7 
8 9 10 11 
12 13 14 15 
16 17 18 19 
20 21 22 23 
24 25 26 27 
28 29 30 31 
32 33 34 35 
36 37 38 39 
40 41 42 43 
44 45 46 47 
48 49 50 51 
52 53 54 55 
56 57 58 59 
60 61 62 63 
64 65 66 67 
68 69 70 71 
72 73 74 75 
76 77 78 79 
80 81 82 83 
84 85 86 87 
88 89 90 91 
92 93 94 95 
96 97 98 99 
100 101 102 103 
104 105 106 107 
108 109 110 111 
112 113 114 115 
116 117 118 119 
120 121 122 123 
124 125 126 127 
128 129 130 131 
132 133 134 135 
136 137 138 139 
140 141 142 143 
144 145 146 147 
148 149 150 151 
152 153 154 155 
156 157 158 159 
160 161 162 163 
164 165 166 167 
168 169 170 171 
172 173 174 175 
176 177 178 179 
180 181 182 183 
184 185 186 187 
188 189 190 191 
192 193 194 195 
196 197 198 199 
200 201 202 203 
204 205 206 207 
208 209 210 211 
212 213 214 215 
216 217 218 219 
220 221 222 223 
224 225 226 227 
228 229 230 231 
232 233 234 235 
236 237 238 239 
240 241 242 243 
244 245 246 247 
248 249 250 251 
252 253 254 255 
256 257 258 259 
260 261 262 263 
264 265 266 267 
268 269 270 271 
272 273 274 275 
276 277 278 279 
280 281 282 283 
284 285 286 287 
288 289 290 291 
292 293 294 295 
296 297 298 299 
300 301 302 303 
304 305 306 307 
308 309 310 311 
312 313 314 315 
316 317 318 319 
320 321 322 323 
324 325 326 327 
328 329 330 331 
332 333 334 335 
336 337 338 339 
340 341 342 343 
344 345 346 347 
348 349 350 351 
352 353 354 355 
356 357 358 359 
360 361 362 363 
364 365 366 367 
368 369 370 371 
372 373 374 375 
376 377 378 379 
380 381 382 383 
384 385 386 387 
388 389 390 391 
392 393 394 395 
396 397 398 399 
400 401 402 403 
404 405 406 407 
408 409 410 411 
412 413 414 415 
416 417 418 419 
420 421 422 423 
424 425 426 427 
428 429 430 431 
432 433 434 435 
436 437 438 439 
440 441 442 443 
444 445 446 447 
448 449 450 451 
452 453 454 455 
456 457 458 459 
460 461 462 463 
464 465 466 467 
468 469 470 471 
472 473 474 475 
476 477 478 479 
480 481 482 483 
484 485 486 487 
488 489 490 491 
492 493 494 495 
496 497 498 499 
500 501 502 503 
504 505 506 507 
508 509 510 511 
512 513 514 515 
516 517 518 519 
520 521 522 523 
524 525 526 527 
528 529 530 531 
532 533 534 535 
536 537 538 539 
540 541 542 543 
544 545 546 547 
548 549 550 551 
552 553 554 555 
556 557 558 559 
560 561 562 563 
564 565 566 567 
568 569 570 571 
572 573 574 575 
576 577 578 579 
580 581 582 583 
584 585 586 587 
588 589 590 591 
592 593 594 595 
596 597 598 599 
600 601 602 603 
604 605 606 607 
608 609 610 611 
612 613 614 615 
616 617 618 619 
620 621 622 623 
624 625 626 627 
628 629 630 631 
632 633 634 635 
636 637 638 639 
640 641 642 643 
644 645 646 647 
648 649 650 651 
652 653 654 655 
656 657 658 659 
660 661 662 663 
664 665 666 667 
668 669 670 671 
672 673 674 675 
676 677 678 679 
680 681 682 683 
684 685 686 687 
688 689 690 691 
692 693 694 695 
696 697 698 699 
700 701 702 703 
704 705 706 707 
708 709 710 711 
712 713 714 715 
716 717 718 719 
720 721 722 723 
724 725 726 727 
728 729 730 731 
732 733 734 735 
736 737 738 739 
740 741 742 743 
744 745 746 747 
748 749 750 751 
752 753 754 755 
756 757 758 759 
760 761 762 763 
764 765 766 767 
768 769 770 771 
772 773 774 775 
776 777 778 779 
780 781 782 783 
784 785 786 787 
788 789 790 791 
792 793 794 795 
796 797 798 799 
800 801 802 803 
804 805 806 807 
808 809 810 811 
812 813 814 815 
816 817 818 819 
820 821 822 823 
824 825 826 827 
828 829 830 831 
832 833 834 835 
836 837 838 839 
840 841 842 843 
844 845 846 847 
848 849 850 851 
852 853 854 855 
856 857 858 859 
860 861 862 863 
864 865 866 867 
868 869 870 871 
872 873 874 875 
876 877 878 879 
880 881 882 883 
884 885 886 887 
888 889 890 891 
892 893 894 895 
896 897 898 899 
900 901 902 903 
904 905 906 907 
908 909 910 911 
912 913 914 915 
916 917 918 919 
920 921 922 923 
924 925 926 927 
928 929 930 931 
932 933 934 935 
936 937 938 939 
940 941 942 943 
944 945 946 947 
948 949 950 951 
952 953 954 955 
956 957 958 959 
960 961 962 963 
964 965 966 967 
968 969 970 971 
972 973 974 975 
976 977 978 979 
980 981 982 983 
984 985 986 987 
988 989 990 991 
992 993 994 995 
996 997 998 999 
1000 1001 1002 1003 
1004 1005 1006 1007 
1008 1009 1010 1011 
1012 1013 1014 1015 
1016 1017 1018 1019 
1020 1021 1022 1023 
1024 1025 1026 1027 
1028 1029 1030 1031 
1032 1033 1034 1035 
1036 1037 1038 1039 
1040 1041 1042 1043 
1044 1045 1046 1047 
1048 1049 1050 1051 
1052 1053 1054 1055 
1056 1057 1058 1059 
1060 1061 1062 1063 
1064 1065 1066 1067 
1068 1069 1070 1071 
1072 1073 1074 1075 
1076 1077 1078 1079 
1080 1081 1082 1083 
1084 1085 1086 1087 
1088 1089 1090 1091 
1092 1093 1094 1095 
1096 1097 1098 1099 
1100 1101 1102 1103 
1104 1105 1106 1107 
1108 1109 1110 1111 
1112 1113 1114 1115 
1116 1117 1118 1119 
1120 1121 1122 1123 
1124 1125 1126 1127 
1128 1129 1130 1131 
1132 1133 1134 1135 
1136 1137 1138 1139 
1140 1141 1142 1143 
1144 1145 1146 1147 
1148 1149 1150 1151 
1152 1153 1154 1155 
1156 1157 1158 1159 
1160 1161 1162 1163 
1164 1165 1166 1167 
1168 1169 1170 1171 
1172 1173 1174 1175 
1176 1177 1178 1179 
1180 1181 1182 1183 
1184 1185 1186 1187 
1188 1189 1190 1191 
1192 1193 1194 1195 
1196 1197 1198 1199 
1200 1201 1202 1203 
1204 1205 1206 1207 
1208 1209 1210 1211 
1212 1213 1214 1215 
1216 1217 1218 1219 
1220 1221 1222 1223 
1224 1225 1226 1227 
1228 1229 1230 1231 
1232 1233 1234 1235 
1236 1237 1238 1239 
1240 1241 1242 1243 
1244 1245 1246 1247 
1248 1249 1250 1251 
1252 1253 1254 1255 
1256 1257 1258 1259 
1260 1261 1262 1263 
1264 1265 1266 1267 
1268 1269 1270 1271 
1272 1273 1274 1275 
1276 1277 1278 1279 
1280 1281 1282 1283 
1284 1285 1286 1287 
1288 1289 1290 1291 
1292 1293 1294 1295 
1296 1297 1298 1299 
1300 1301 1302 1303 
1304 1305 1306 1307 
1308 1309 1310 1311 
1312 1313 1314 1315 
1316 1317 1318 1319 
1320 1321 1322 1323 
1324 1325 1326 1327 
1328 1329 1330 1331 
1332 1333 1334 1335 
1336 1337 1338 1339 
1340 1341 1342 1343 
1344 1345 1346 1347 
1348 1349 1350 1351 
1352 1353 1354 1355 
1356 1357 1358 1359 
1360 1361 1362 1363 
1364 1365 1366 1367 
1368 1369 1370 1371 
1372 1373 1374 1375 
1376 1377 1378 1379 
1380 1381 1382 1383 
1384 1385 1386 1387 
1388 1389 1390 1391 
1392 1393 1394 1395 
1396 1397 1398 1399 
1400 1401 1402 1403 
1404 1405 1406 1407 
1408 1409 1410 1411 
1412 1413 1414 1415 
1416 1417 1418 1419 
1420 1421 1422 1423 
1424 1425 1426 1427 
1428 1429 1430 1431 
1432 1433 1434 1435 
1436 1437 1438 1439 
1440 1441 1442 1443 
1444 1445 1446 1447 
1448 1449 1450 1451 
1452 1453 1454 1455 
1456 1457 1458 1459 
1460 1461 1462 1463 
1464 1465 1466 1467 
1468 1469 1470 1471 
1472 1473 1474 1475 
1476 1477 1478 1479 
1480 1481 1482 1483 
1484 1485 1486 1487 
1488 1489 1490 1491 
1492 1493 1494 1495 
1496 1497 1498 1499 
1500 1501 1502 1503 
1504 1505 1506 1507 
1508 1509 1510 1511 
1512 1513 1514 1515 
1516 1517 1518 1519 
1520 1521 1522 1523 
1524 1525 1526 1527 
1528 1529 1530 1531 
1532 1533 1534 1535 
1536 1537 1538 1539 
1540 1541 1542 1543 
1544 1545 1546 1547 
1548 1549 1550 1551 
1552 1553 1554 1555 
1556 1557 1558 1559 
1560 1561 1562 1563 
1564 1565 1566 1567 
1568 1569 1570 1571 
1572 1573 1574 1575 
1576 1577 1578 1579 
1580 1581 1582 1583 
1584 1585 1586 1587 
1588 1589 1590 1591 
1592 1593 1594 1595 
1596 1597 1598 1599 
1600 1601 1602 1603 
1604 1605 1606 1607 
1608 1609 1610 1611 
1612 1613 1614 1615 
1616 1617 1618 1619 
1620 1621 1622 1623 
1624 1625 1626 1627 
1628 1629 1630 1631 
1632 1633 1634 1635 
1636 1637 1638 1639 
1640 1641 1642 1643 
1644 1645 1646 1647 
1648 1649 1650 1651 
1652 1653 1654 1655 
1656 1657 1658 1659 
1660 1661 1662 1663 
1664 1665 1666 1667 
1668 1669 1670 1671 
1672 1673 1674 1675 
1676 1677 1678 1679 
1680 1681 1682 1683 
1684 1685 1686 1687 
1688 1689 1690 1691 
1692 1693 1694 1695 
1696 1697 1698 1699 
1700 1701 1702 1703 
1704 1705 1706 1707 
1708 1709 1710 1711 
1712 1713 1714 1715 
1716 1717 1718 1719 
1720 1721 1722 1723 
1724 1725 1726 1727 
1728 1729 1730 1731 
1732 1733 1734 1735 
1736 1737 1738 1739 
1740 1741 1742 1743 
1744 1745 1746 1747 
1748 1749 1750 1751 
1752 1753 1754 1755 
1756 1757 1758 1759 
1760 1761 1762 1763 
1764 1765 1766 1767 
1768 1769 1770 1771 
1772 1773 1774 1775 
1776 1777 1778 1779 
1780 1781 1782 1783 
1784 1785 1786 1787 
1788 1789 1790 1791 
1792 1793 1794 1795 
1796 1797 1798 1799 
1800 1801 1802 1803 
1804 1805 1806 1807 
1808 1809 1810 1811 
1812 1813 1814 1815 
1816 1817 1818 1819 
1820 1821 1822 1823 
1824 1825 1826 1827 
1828 1829 1830 1831 
1832 1833 1834 1835 
1836 1837 1838 1839 
1840 1841 1842 1843 
1844 1845 1846 1847 
1848 1849 1850 1851 
1852 1853 1854 1855 
1856 1857 1858 1859 
1860 1861 1862 1863 
1864 1865 1866 1867 
1868 1869 1870 1871 
1872 1873 1874 1875 
1876 1877 1878 1879 
1880 1881 1882 1883 
1884 1885 1886 1887 
1888 1889 1890 1891 
1892 1893 1894 1895 
1896 1897 1898 1899 
1900 1901 1902 1903 
1904 1905 1906 1907 
1908 1909 1910 1911 
1912 1913 1914 1915 
1916 1917 1918 1919 
1920 1921 1922 1923 
1924 1925 1926 1927 
1928 1929 1930 1931 
1932 1933 1934 1935 
1936 1937 1938 1939 
1940 1941 1942 1943 
1944 1945 1946 1947 
1948 1949 1950 1951 
1952 1953 1954 1955 
1956 1957 1958 1959 
1960 1961 1962 1963 
1964 1965 1966 1967 
1968 1969 1970 1971 
1972 1973 1974 1975 
1976 1977 1978 1979 
1980 1981 1982 1983 
1984 1985 1986 1987 
1988 1989 1990 1991 
1992 1993 1994 1995 
1996 1997 1998 1999 
2000 2001 2002 2003 
2004 2005 2006 2007 
2008 2009 2010 2011 
2012 2013 2014 2015 
2016 2017 2018 2019 
2020 2021 2022 2023 
2024 2025 2026 2027 
2028 2029 2030 2031 
2032 2033 2034 2035 
2036 2037 2038 2039 
2040 2041 2042 2043 
2044 2045 2046 2047 
2048 2049 2050 2051 2052 2053 2054 2055 2056 2057 2058 2059 2060 2061 2062 2063 
2064 2065 2066 2067 2068 2069 2070 2071 2072 2073 2074 2075 2076 2077 2078 2079 
</DataArray>
<DataArray type="Int32" Name="offsets" format="ascii">
4 8 12 16 20 24 28 32 36 40 44 48 52 56 60 64 68 72 76 80 84 88 92 96 100 104 108 112 116 120 124 128 132 136 140 144 148 152 156 160 164 168 172 176 180 184 188 192 196 200 204 208 212 216 220 224 228 232 236 240 244 248 252 256 260 264 268 272 276 280 284 288 292 296 300 304 308 312 316 320 324 328 332 336 340 344 348 352 356 360 364 368 372 376 380 384 388 392 396 400 404 408 412 416 420 424 428 432 436 440 444 448 452 456 460 464 468 472 476 480 484 488 492 496 500 504 508 512 516 520 524 528 532 536 540 544 548 552 556 560 564 568 572 576 580 584 588 592 596 600 604 608 612 616 620 624 628 632 636 640 644 648 652 656 660 664 668 672 676 680 684 688 692 696 700 704 708 712 716 720 724 728 732 736 740 744 748 752 756 760 764 768 772 776 780 784 788 792 796 800 804 808 812 816 820 824 828 832 836 840 844 848 852 856 860 864 868 872 876 880 884 888 892 896 900 904 908 912 916 920 924 928 932 936 940 944 948 952 956 960 964 968 972 976 980 984 988 992 996 1000 1004 1008 1012 1016 1020 1024 1028 1032 1036 1040 1044 1048 1052 1056 1060 1064 1068 1072 1076 1080 1084 1088 1092 1096 1100 1104 1108 1112 1116 1120 1124 1128 1132 1136 1140 1144 1148 1152 1156 1160 1164 1168 1172 1176 1180 1184 1188 1192 1196 1200 1204 1208 1212 1216 1220 1224 1228 1232 1236 1240 1244 1248 1252 1256 1260 1264 1268 1272 1276 1280 1284 1288 1292 1296 1300 1304 1308 1312 1316 1320 1324 1328 1332 1336 1340 1344 1348 1352 1356 1360 1364 1368 1372 1376 1380 1384 1388 1392 1396 1400 1404 1408 1412 1416 1420 1424 1428 1432 1436 1440 1444 1448 1452 1456 1460 1464 1468 1472 1476 1480 1484 1488 1492 1496 1500 1504 1508 1512 1516 1520 1524 1528 1532 1536 1540 1544 1548 1552 1556 1560 1564 1568 1572 1576 1580 1584 1588 1592 1596 1600 1604 1608 1612 1616 1620 1624 1628 1632 1636 1640 1644 1648 1652 1656 1660 1664 1668 1672 1676 1680 1684 1688 1692 1696 1700 1704 1708 1712 1716 1720 1724 1728 1732 1736 1740 1744 1748 1752 1756 1760 1764 1768 1772 1776 1780 1784 1788 1792 1796 1800 1804 1808 1812 1816 1820 1824 1828 1832 1836 1840 1844 1848 1852 1856 1860 1864 1868 1872 1876 1880 1884 1888 1892 1896 1900 1904 1908 1912 1916 1920 1924 1928 1932 1936 1940 1944 1948 1952 1956 1960 1964 1968 1972 1976 1980 1984 1988 1992 1996 2000 2004 2008 2012 2016 2020 2024 2028 2032 2036 2040 2044 2048 2064 2080 
</DataArray>
<DataArray type="UInt8" Name="types" format="ascii">
7 7 7 7 7 7 7 7 7 7 7 7 7 7 7 7 7 7 7 7 7 7 7 7 7 7 7 7 7 7 7 7 7 7 7 7 7 7 7 7 7 7 7 7 7 7 7 7 7 7 7 7 7 7 7 7 7 7 7 7 7 7 7 7 7 7 7 7 7 7 7 7 7 7 7 7 7 7 7 7 7 7 7 7 7 7 7 7 7 7 7 7 7 7 7 7 7 7 7 7 7 7 7 7 7 7 7 7 7 7 7 7 7 7 7 7 7 7 7 7 7 7 7 7 7 7 7 7 7 7 7 7 7 7 7 7 7 7 7 7 7 7 7 7 7 7 7 7 7 7 7 7 7 7 7 7 7 7 7 7 7 7 7 7 7 7 7 7 7 7 7 7 7 7 7 7 7 7 7 7 7 7 7 7 7 7 7 7 7 7 7 7 7 7 7 7 7 7 7 7 7 7 7 7 7 7 7 7 7 7 7 7 7 7 7 7 7 7 7 7 7 7 7 7 7 7 7 7 7 7 7 7 7 7 7 7 7 7 7 7 7 7 7 7 7 7 7 7 7 7 7 7 7 7 7 7 7 7 7 7 7 7 7 7 7 7 7 7 7 7 7 7 7 7 7 7 7 7 7 7 7 7 7 7 7 7 7 7 7 7 7 7 7 7 7 7 7 7 7 7 7 7 7 7 7 7 7 7 7 7 7 7 7 7 7 7 7 7 7 7 7 7 7 7 7 7 7 7 7 7 7 7 7 7 7 7 7 7 7 7 7 7 7 7 7 7 7 7 7 7 7 7 7 7 7 7 7 7 7 7 7 7 7 7 7 7 7 7 7 7 7 7 7 7 7 7 7 7 7 7 7 7 7 7 7 7 7 7 7 7 7 7 7 7 7 7 7 7 7 7 7 7 7 7 7 7 7 7 7 7 7 7 7 7 7 7 7 7 7 7 7 7 7 7 7 7 7 7 7 7 7 7 7 7 7 7 7 7 7 7 7 7 7 7 7 7 7 7 7 7 7 7 7 7 7 7 7 7 7 7 7 7 7 7 7 7 7 7 7 7 7 7 7 7 7 7 7 7 7 7 7 7 7 7 7 7 7 7 7 7 7 7 7 7 7 7 7 7 7 7 7 7 7 7 7 7 7 7 7 7 7 7 7 7 
</DataArray>
</Cells>
<CellData Scalars="cell variable 4" Vectors="cell vector">
<DataArray type="Float64" NumberOfComponents="3" Name="cell vector" format="ascii">
0.137761 0.148383 0.979288
0.399963 0.402739 0.823305
0.557601 0.604635 0.568768
0.505873 0.828304 0.240844
-0.0781281 0.967533 -0.240367
-0.151542 0.804485 -0.574316
0.0886926 -0.545258 0.833563
0.0286627 -0.193333 0.980714
-0.0165309 0.193176 0.981025
-0.0838646 0.545452 0.833936
-0.151599 0.804321 0.57453
-0.0797734 0.967288 0.24081
0.502457 0.830276 -0.241204
0.547773 0.611741 -0.570717
-0.372782 -0.418556 0.828157
-0.144578 -0.14434 0.978909
0.0658375 0.184621 0.980602
0.187826 0.52423 0.830605
0.270387 0.786354 0.555462
0.270207 0.942674 0.195841
0.156509 0.968106 -0.195644
0.125824 0.821437 -0.556245
-0.0916067 -0.548308 0.831244
-0.0323664 -0.192639 0.980736
0.0357795 0.192392 0.980666
0.093063 0.548349 0.831055
0.125699 0.821608 0.556021
0.15533 0.968334 0.195451
0.267558 0.943357 -0.196191
0.267543 0.786914 -0.556045
-0.185504 -0.524319 0.83107
-0.0667344 -0.183765 0.980702
0.0639678 0.185444 0.980571
0.182087 0.526701 0.830319
0.267419 0.788299 0.55414
0.279576 0.940187 0.19464
0.122435 0.973588 -0.192707
0.138761 0.820575 -0.554438
-0.103075 -0.546915 0.830818
-0.0368575 -0.191973 0.980708
0.0390312 0.19198 0.980622
0.104835 0.54687 0.830628
0.139801 0.820541 0.554227
0.121771 0.973723 0.192446
0.277309 0.940757 -0.195132
0.265554 0.78859 -0.554623
-0.180358 -0.52667 0.830716
-0.0637032 -0.184777 0.980714
0.0658839 0.184828 0.98056
0.188799 0.524577 0.830165
0.282876 0.78344 0.553356
0.312934 0.929707 0.194209
-0.201847 0.963705 -0.174731
0.952696 -0.301097 0.0413688
0.968693 -0.247867 0.0140146
0.971111 -0.238605 0.00324354
0.971118 -0.238555 -0.00452602
0.968751 -0.247574 -0.0150837
0.952829 -0.30052 -0.0424809
-0.200613 0.963902 0.175062
0.310304 0.930475 -0.194753
0.281099 0.783771 -0.553792
-0.187237 -0.524533 0.830547
-0.0654479 -0.184054 0.980735
0.0685556 0.183615 0.980605
0.196228 0.521273 0.830523
0.294016 0.779021 0.553788
0.333305 0.922622 0.194105
0.00108793 0.982595 -0.185757
0.934701 -0.352778 0.0433679
0.95393 -0.299621 0.0156562
0.957227 -0.289319 0.00334674
0.957204 -0.28937 -0.00512058
0.954006 -0.299325 -0.0166684
0.935498 -0.350669 -0.0433044
0.00327274 0.98259 0.185761
0.329336 0.923931 -0.194653
0.291923 0.779538 -0.554167
-0.195092 -0.521114 0.830891
-0.0684548 -0.18262 0.980798
0.0724562 0.18161 0.980698
0.207801 0.51571 0.831181
0.312773 0.771068 0.554642
0.364779 0.910704 0.19379
0.134095 0.97258 -0.190019
0.921261 -0.387153 0.0372908
0.938952 -0.343717 0.0150886
0.9425 -0.334193 0.00304007
0.942427 -0.334369 -0.0053759
0.938985 -0.343574 -0.0162512
0.923233 -0.382611 -0.0353437
0.134303 0.972622 0.189654
0.357738 0.913374 -0.194347
0.310547 0.771732 -0.554968
-0.207251 -0.515354 0.831539
-0.0728635 -0.180378 0.980895
0.0778147 0.17883 0.980798
0.222932 0.508287 0.831832
0.335434 0.760843 0.55552
0.398525 0.896441 0.193834
0.295876 0.935416 -0.193531
0.909467 -0.414855 0.0276464
0.923025 -0.384539 0.0124538
0.926118 -0.377226 0.00257468
0.92594 -0.377638 -0.00499289
0.922604 -0.385487 -0.0142327
0.910949 -0.411719 -0.0256769
0.205779 0.95984 0.190688
0.391033 0.899661 -0.194174
0.334628 0.761083 -0.555677
-0.22303 -0.507795 0.832107
-0.0783957 -0.177606 0.980974
0.0840369 0.175456 0.980894
0.240901 0.499064 0.832407
0.362744 0.747625 0.556304
0.433296 0.880082 0.19419
0.413027 0.889732 -0.194387
0.894724 -0.446164 0.0201586
0.904996 -0.425301 0.0100549
0.907666 -0.419687 0.00218327
0.907452 -0.420133 -0.00442638
0.904443 -0.426431 -0.0117617
0.896364 -0.442965 -0.0177282
0.842732 -0.537639 -0.027331
0.426854 0.883239 -0.194123
0.362302 0.747911 -0.556208
-0.241311 -0.498671 0.832524
-0.0848503 -0.174326 0.981025
0.0908309 0.17166 0.98096
0.260896 0.488259 0.832788
0.393795 0.731349 0.556825
0.4709 0.860491 0.194443
0.463705 0.864342 -0.194653
0.875924 -0.482201 0.0154974
0.884346 -0.46675 0.00873485
0.887008 -0.46175 0.00193967
0.886882 -0.461979 -0.00388783
0.884307 -0.46681 -0.0094827
0.878776 -0.477078 -0.0122033
0.897881 -0.440218 0.0040954
0.463764 0.864424 -0.194151
0.392184 0.732395 -0.556587
-0.26121 -0.488053 0.832811
-0.0919276 -0.1705 0.98106
0.0982302 0.167349 0.980992
0.281772 0.476154 0.832996
0.424686 0.713621 0.557124
0.505298 0.840734 0.194527
0.506848 0.839714 -0.194898
0.856359 -0.516274 0.0104883
0.862042 -0.506786 0.00714882
0.864344 -0.502897 0.00195563
0.864286 -0.502992 -0.00297258
0.862139 -0.506619 -0.0072899
0.858194 -0.513254 -0.00852561
0.877993 -0.478646 0.00505706
0.50132 0.843187 -0.194203
0.423391 0.714604 -0.55685
-0.281901 -0.476055 0.833008
-0.0990741 -0.166274 0.98109
0.105744 0.162609 0.981008
0.302646 0.462919 0.833133
0.45546 0.694215 0.557334
0.540426 0.818589 0.194554
0.544647 0.815658 -0.195092
0.834264 -0.551322 0.0069235
0.837908 -0.545783 0.00552289
0.839735 -0.542993 0.00186309
0.839716 -0.543022 -0.00206053
0.837964 -0.545699 -0.00537866
0.835051 -0.550141 -0.005964
0.85118 -0.524858 0.0040606
0.53898 0.819616 -0.194242
0.455017 0.694745 -0.557036
-0.302776 -0.462802 0.833151
-0.106186 -0.161675 0.981115
0.113207 0.157444 0.981018
0.32333 0.448546 0.833225
0.486046 0.673042 0.557471
0.57576 0.794129 0.194576
0.580023 0.790861 -0.195224
0.809485 -0.587122 0.00467554
0.811833 -0.583874 0.00421158
0.813226 -0.581946 0.00177079
0.81324 -0.581927 -0.00122206
0.811801 -0.583921 -0.0038657
0.809292 -0.58739 -0.00445549
0.822907 -0.568166 0.00345422
0.576498 0.793673 -0.194249
0.486521 0.672954 -0.557163
-0.323518 -0.448367 0.833248
-0.113234 -0.156711 0.981132
0.120566 0.151854 0.981022
0.343709 0.433041 0.83327
0.516192 0.650159 0.557529
0.610492 0.767748 0.194581
0.613751 0.764963 -0.195299
0.782449 -0.622707 0.00309319
0.783844 -0.620949 0.00320257
0.784856 -0.619675 0.00178949
0.784925 -0.619591 -0.000332687
0.783737 -0.621087 -0.00257841
0.780758 -0.62482 -0.00402289
0.792686 -0.609622 0.0029852
0.614065 0.764991 -0.194199
0.517597 0.649297 -0.557231
-0.343863 -0.432861 0.833301
-0.120123 -0.151429 0.981142
0.127733 0.145945 0.981012
0.363739 0.416385 0.833257
0.545878 0.625474 0.557493
0.643969 0.739916 0.194495
0.646997 0.73704 -0.195364
0.753609 -0.657322 0.00142188
0.753916 -0.656967 0.00228104
0.754567 -0.65622 0.00190006
0.75476 -0.656 0.000780443
0.753947 -0.656935 -0.000988436
0.749447 -0.662049 -0.0044283
0.759872 -0.650069 0.00243704
0.652031 0.732931 -0.194081
0.547644 0.62419 -0.557201
-0.363566 -0.416445 0.833303
-0.126867 -0.145755 0.981152
0.134476 0.140018 0.980975
0.383263 0.398776 0.833119
0.575704 0.5984 0.557209
0.679224 0.70783 0.19399
0.691204 0.69561 -0.195866
0.721418 -0.6925 -0.000690232
0.720812 -0.693131 0.000567522
0.721078 -0.692853 0.00116348
0.72154 -0.692371 0.00164798
0.722228 -0.691652 0.00210482
0.720166 -0.693802 -0.000616852
0.744342 -0.667752 0.00794699
0.685476 0.701807 -0.193881
0.575391 0.598802 -0.557101
-0.382663 -0.398953 0.83331
-0.133679 -0.139366 0.981176
0.141139 0.133682 0.980922
0.401931 0.380458 0.832889
0.603491 0.570829 0.556734
0.711635 0.675477 0.193149
0.747604 -0.663901 -0.0179816
-0.688107 0.725609 0.000936173
-0.687349 0.726327 -0.000123484
-0.687359 0.726317 -0.00103573
-0.687745 0.72595 -0.00184574
-0.688361 0.725364 -0.00229436
-0.686112 0.727495 0.000366933
0.837511 0.511489 0.192236
0.717878 0.66872 -0.193558
0.603698 0.570424 -0.556925
-0.401309 -0.380205 0.833304
-0.14007 -0.132752 0.981202
0.147429 0.126952 0.980891
0.419368 0.361491 0.832739
0.628945 0.542963 0.556434
0.74121 0.643028 0.192672
-0.640292 0.768121 -0.00393825
-0.65389 0.75659 -0.000304643
-0.65359 0.756849 -0.00072602
-0.653506 0.756921 -0.0013023
-0.653588 0.756849 -0.00145085
-0.653174 0.757207 -0.000619674
-0.649922 0.759999 0.00174741
-0.646447 0.762959 0.000521979
0.747501 0.635543 -0.193203
0.630939 0.540385 -0.556686
-0.419225 -0.360564 0.833213
-0.146186 -0.125972 0.981204
0.153016 0.120187 0.980888
0.435708 0.341717 0.832699
0.653714 0.512967 0.556349
0.771488 0.606388 0.192612
-0.603751 0.797164 -0.00394032
-0.617058 0.786917 -0.000320487
-0.616878 0.787059 -0.000194351
-0.616579 0.787293 -0.000720213
-0.616611 0.787267 -0.00119815
-0.616677 0.787215 -0.00111632
-0.61601 0.787738 -0.000487023
-0.621019 0.783793 -0.00215246
0.7736 0.603562 -0.193017
0.65495 0.511167 -0.556551
-0.435897 -0.340434 0.833126
-0.152227 -0.118715 0.98119
0.158313 0.113084 0.980892
0.45118 0.321057 0.832682
0.677157 0.481643 0.556307
0.799479 0.56897 0.192632
-0.566983 0.823723 -0.00340577
-0.579235 0.815161 0.000250895
-0.578738 0.815513 0.000522943
-0.578126 0.815947 -0.000279642
-0.57814 0.815936 -0.0013795
-0.578652 0.815572 -0.00194981
-0.578956 0.815357 -0.00163482
-0.580229 0.814452 -0.00147356
0.800553 0.567346 -0.192958
0.677882 0.480402 -0.556498
-0.451418 -0.319688 0.83308
-0.157806 -0.111312 0.981176
0.163376 0.105629 0.980893
0.465692 0.299711 0.832649
0.698914 0.449551 0.556258
0.825075 0.531163 0.192657
-0.527047 0.849829 -0.00329447
-0.540699 0.841215 0.00126054
-0.539456 0.842013 0.00142243
-0.538394 0.842693 9.2986e-05
-0.538409 0.842682 -0.00170281
-0.539413 0.842036 -0.00288205
-0.540559 0.841302 -0.00271044
-0.537406 0.843323 -0.000745045
0.825826 0.529894 -0.192935
0.699475 0.448476 -0.556421
-0.465927 -0.298321 0.833017
-0.162932 -0.103806 0.981161
0.16814 0.0979141 0.980888
0.479128 0.277914 0.832587
0.718852 0.417044 0.55617
0.848274 0.493261 0.192678
-0.482825 0.875708 -0.00389571
-0.501802 0.864978 0.00282462
-0.499226 0.866468 0.0026125
-0.497515 0.867455 0.000454817
-0.497547 0.867434 -0.00214112
-0.499185 0.866486 -0.00405102
-0.501379 0.865219 -0.00402407
-0.491922 0.870639 0.000265722
0.84919 0.491592 -0.192908
0.719437 0.415856 -0.556304
-0.479322 -0.276564 0.832924
-0.167612 -0.0962508 0.981143
0.172544 0.0900458 0.980877
0.49144 0.255838 0.832486
0.736956 0.384359 0.556025
0.868989 0.455772 0.192693
-0.433203 0.90128 -0.00542483
-0.463039 0.886323 0.00519336
-0.458198 0.888841 0.00414651
-0.455603 0.890183 0.000857494
-0.455665 0.890147 -0.00268952
-0.458156 0.888854 -0.00554901
-0.462004 0.886859 -0.00588846
-0.443423 0.896311 0.00167222
0.870269 0.453248 -0.192867
0.73759 0.382981 -0.556135
-0.491573 -0.25457 0.832797
-0.171883 -0.0886429 0.981121
0.176572 0.0821417 0.980854
0.502641 0.23361 0.832333
0.753306 0.351573 0.555812
0.887005 0.419642 0.192674
-0.383838 0.923377 -0.00655019
-0.425006 0.905149 0.00871177
-0.416373 0.909175 0.0058698
-0.412726 0.910855 0.00121379
-0.412865 0.910786 -0.00335892
-0.416444 0.909132 -0.00737086
-0.422769 0.906198 -0.00843244
-0.391049 0.920363 0.00366322
0.889203 0.414902 -0.192809
0.753893 0.350177 -0.555897
-0.502627 -0.2326 0.832625
-0.175739 -0.081033 0.981096
0.180164 0.0746011 0.980804
0.512678 0.211796 0.832048
0.768259 0.318225 0.555437
0.904225 0.381203 0.192513
-0.364684 0.931131 -0.000659485
-0.385516 0.92262 0.0122163
-0.373319 0.927673 0.00749872
-0.368944 0.92945 0.00174433
-0.369252 0.929321 -0.00382541
-0.374164 0.927315 -0.00935376
-0.384489 0.923051 -0.012076
-0.391145 0.92031 -0.00586578
0.905917 0.377048 -0.192743
0.76824 0.31807 -0.555552
-0.512454 -0.211044 0.832377
-0.179203 -0.0734461 0.981067
0.183363 0.0675053 0.980725
0.521337 0.191494 0.831588
0.780674 0.287598 0.554829
0.918997 0.344237 0.192209
-0.345083 0.93856 0.00481998
-0.348482 0.937156 0.0172564
-0.330703 0.943681 0.0100806
-0.324786 0.945784 0.00250763
-0.32508 0.945677 -0.0042812
-0.331552 0.943364 -0.0117211
-0.34831 0.937215 -0.0175511
0.966643 0.167739 0.193559
0.920305 0.340458 -0.192685
0.780484 0.287681 -0.555053
-0.521005 -0.190559 0.83201
-0.182227 -0.06624 0.981023
0.186074 0.061048 0.980637
0.528494 0.173523 0.831014
0.790475 0.261084 0.554062
0.931841 0.307854 0.192087
-0.364402 0.931064 0.018188
-0.31508 0.94875 0.0244634
-0.28849 0.95739 0.0133464
-0.280287 0.95991 0.00339435
-0.280369 0.959881 -0.0046501
-0.288464 0.957386 -0.014152
-0.314764 0.948838 -0.0251067
0.977542 0.0866602 0.192099
0.932387 0.305834 -0.192668
0.790585 0.260148 -0.554345
-0.52828 -0.171928 0.831482
-0.184856 -0.0597483 0.980948
0.188225 0.0556376 0.980549
0.534267 0.158498 0.830324
0.798324 0.238203 0.553116
0.942653 0.272818 0.192291
-0.604466 0.792556 0.080469
-0.280929 0.959198 0.0319068
-0.244487 0.969526 0.0156426
-0.234635 0.972075 0.00409274
-0.234561 0.97209 -0.00464388
-0.243949 0.969661 -0.0157317
-0.281876 0.958866 -0.0334926
0.980657 -0.0563469 0.187448
0.942277 0.273802 -0.192736
0.798572 0.236795 -0.553363
-0.53429 -0.156104 0.830762
-0.187149 -0.0542332 0.980833
0.189764 0.0515489 0.980476
0.538439 0.14764 0.82963
0.803583 0.222253 0.55214
0.948975 0.249645 0.192674
0.88038 -0.448005 -0.15564
-0.242903 0.969291 0.0383876
-0.196264 0.980417 0.0162435
-0.185527 0.98263 0.00423796
-0.185422 0.982649 -0.00434417
-0.195603 0.980554 -0.0159317
-0.243727 0.96903 -0.0397329
0.944235 -0.279259 0.174454
0.948417 0.25159 -0.192893
0.803892 0.220694 -0.552315
-0.538699 -0.144538 0.830007
-0.188958 -0.0501887 0.980702
0.190215 0.0496077 0.980488
0.539605 0.144159 0.829485
0.804259 0.219856 0.552115
0.950606 0.242531 0.193717
0.700261 -0.702524 -0.126862
-0.169582 0.984845 0.0363701
-0.129866 0.991398 0.0162463
-0.121199 0.992615 0.00510577
-0.12105 0.992638 -0.00403131
-0.129572 0.991446 -0.0156801
-0.171509 0.984448 -0.0380243
0.71514 -0.686699 0.130458
0.949869 0.245396 -0.193727
0.804517 0.218545 -0.552259
-0.540181 -0.139928 0.829834
-0.189807 -0.0483311 0.980631
0.189239 0.0440793 0.980941
0.538132 0.128428 0.833019
0.80616 0.192392 0.559546
0.961369 0.190034 0.19914
0.979409 -0.00544259 -0.201811
0.828344 0.0459073 -0.558335
-0.552442 -0.04662 0.832247
-0.193962 -0.0175584 0.980852
0.193831 0.0184527 0.980861
0.552429 0.0460046 0.832289
0.828427 0.0436401 0.558395
0.979379 -0.00534698 0.201962
0.960966 0.192018 -0.199183
0.806386 0.19142 -0.559553
-0.539 -0.124565 0.833044
-0.189094 -0.043563 0.980992
0.189717 0.039024 0.981063
0.539485 0.114549 0.834167
0.809477 0.170075 0.561981
0.96588 0.164515 0.200027
0.977754 0.0494827 -0.203834
0.825453 0.042722 -0.562852
-0.550572 -0.0431992 0.833669
-0.193227 -0.0164751 0.981016
0.193389 0.0174992 0.980966
0.550549 0.0410944 0.833791
0.8254 0.040709 0.563078
0.977741 0.0488817 0.204042
0.965787 0.16512 -0.199979
0.80969 0.169413 -0.561874
-0.540311 -0.111568 0.834037
-0.189371 -0.0394281 0.981114
0.18674 0.0416998 0.981524
0.529029 0.128927 0.838753
0.792126 0.204503 0.575079
0.96205 0.176732 0.207908
0.97098 -0.036301 -0.23639
0.813519 -0.0232988 -0.581071
-0.543772 -0.0142454 0.839112
-0.190691 -0.00644743 0.981629
0.190802 0.00804574 0.981596
0.542679 0.00652225 0.839915
0.813009 -0.0270211 0.581624
0.970976 -0.0362086 0.236422
0.961816 0.177731 -0.208141
0.792755 0.202758 -0.574829
-0.53153 -0.122862 0.838082
-0.185782 -0.0441256 0.9816
0.00229307 0.00683657 0.999974
0.00408152 0.000544941 0.999992
</DataArray>
<DataArray type="Float64" Name="cell vector length" format="ascii">
0.129796 0.126572 0.114403 0.0702457 0.0949981 0.133186 0.130494 0.12598 0.126345 0.131488 0.134165 0.0952862 0.0693376 0.112398 0.136451 0.135581 0.414946 0.394285 0.359905 0.32146 0.342362 0.38525 0.405626 0.408527 0.407674 0.403316 0.385328 0.342808 0.321781 0.360516 0.402327 0.417635 0.522023 0.49874 0.45378 0.390245 0.423842 0.49382 0.51245 0.513648 0.512882 0.510249 0.494107 0.424681 0.390698 0.45393 0.503943 0.52344 0.559152 0.531518 0.473355 0.365006 0.110126 0.275358 0.449555 0.519821 0.519892 0.449921 0.27445 0.11162 0.365154 0.472866 0.535831 0.560213 0.581501 0.549461 0.477905 0.33906 0.0725446 0.254071 0.436887 0.510543 0.510582 0.436919 0.25304 0.0748147 0.339266 0.476558 0.553028 0.582247 0.595174 0.558841 0.475865 0.314547 0.0409261 0.24884 0.432102 0.507351 0.507512 0.432611 0.248205 0.0432676 0.314385 0.473239 0.561782 0.595693 0.603965 0.564392 0.473686 0.297768 0.0298961 0.248208 0.429357 0.505253 0.505463 0.430186 0.247932 0.0176228 0.297701 0.469697 0.567042 0.604389 0.609639 0.567688 0.472189 0.296535 0.0597009 0.245985 0.427817 0.503549 0.503741 0.428634 0.249738 0.0042811 0.286006 0.466875 0.570369 0.610065 0.613295 0.569792 0.471284 0.2903 0.0684046 0.247517 0.426873 0.50235 0.502566 0.427896 0.251871 0.0169194 0.278689 0.46457 0.572432 0.613722 0.615708 0.571209 0.470584 0.285305 0.0645928 0.24819 0.426167 0.501606 0.50192 0.427675 0.253394 0.0240949 0.273325 0.462606 0.573708 0.616097 0.617307 0.571957 0.46956 0.281127 0.0590672 0.25024 0.426102 0.501133 0.501537 0.427913 0.255723 0.0307265 0.269133 0.461006 0.574567 0.61771 0.618318 0.572115 0.468249 0.277561 0.0544212 0.252462 0.42652 0.501015 0.501418 0.428338 0.258016 0.0365331 0.265529 0.459705 0.575291 0.618889 0.618904 0.571814 0.46668 0.274387 0.0505384 0.254711 0.427419 0.501369 0.501668 0.42891 0.26015 0.0418005 0.262262 0.458783 0.576043 0.619811 0.619227 0.57125 0.46481 0.271157 0.0464816 0.257734 0.429233 0.502647 0.502838 0.430116 0.262176 0.0464917 0.259541 0.458424 0.576783 0.620505 0.619414 0.570714 0.463029 0.268935 0.0345752 0.266873 0.436031 0.508402 0.50861 0.436767 0.271654 0.0350118 0.256 0.458165 0.577244 0.620964 0.619495 0.570239 0.461448 0.259662 0.00522229 0.296135 0.458392 0.52778 0.528054 0.459299 0.294046 0.00421298 0.266879 0.458124 0.577544 0.621275 0.619449 0.56956 0.45981 0.258244 0.0153344 0.30344 0.464175 0.532863 0.533083 0.464692 0.303239 0.00564815 0.259131 0.458132 0.578064 0.621576 0.619233 0.568639 0.458141 0.256351 0.0164548 0.304543 0.465208 0.533794 0.533853 0.465096 0.30343 0.0136105 0.257839 0.457868 0.578557 0.62182 0.618787 0.567647 0.456849 0.25521 0.0164084 0.304665 0.465593 0.534195 0.53414 0.465248 0.303747 0.0145611 0.256429 0.457176 0.578665 0.621791 0.618053 0.566586 0.455818 0.254618 0.0157312 0.304466 0.465927 0.534683 0.534578 0.4655 0.303679 0.0142864 0.255785 0.456529 0.578431 0.621382 0.616961 0.565326 0.454897 0.254609 0.014216 0.304025 0.466361 0.535382 0.535236 0.465856 0.303322 0.0131149 0.255774 0.455974 0.577907 0.620571 0.615405 0.563714 0.453936 0.255303 0.0115524 0.303398 0.467016 0.536328 0.536119 0.466337 0.302679 0.0109309 0.256444 0.455499 0.577058 0.619294 0.613247 0.561655 0.452773 0.256702 0.00784884 0.302904 0.46799 0.537504 0.537232 0.467021 0.301766 0.00742416 0.25798 0.455104 0.575758 0.617384 0.610173 0.559153 0.451769 0.260034 0.0126795 0.301811 0.469164 0.538997 0.53873 0.468109 0.300694 0.00206404 0.260898 0.454892 0.573766 0.614458 0.605611 0.5559 0.451313 0.256685 0.0406697 0.30362 0.470691 0.540916 0.540709 0.469796 0.299706 0.00622121 0.266101 0.455042 0.570762 0.609976 0.59869 0.551079 0.451766 0.266415 0.0387345 0.30307 0.473117 0.543272 0.543079 0.472241 0.299492 0.0184884 0.275027 0.45574 0.566272 0.603196 0.587893 0.543396 0.452841 0.282008 0.0258415 0.304937 0.477116 0.546507 0.546235 0.476052 0.301521 0.034634 0.290074 0.456758 0.559191 0.592694 0.569321 0.52871 0.450163 0.304206 0.0481055 0.315295 0.485717 0.552948 0.552626 0.484596 0.313665 0.0564678 0.30747 0.453675 0.545392 0.574584 0.524611 0.485751 0.417173 0.295244 0.0897011 0.368822 0.519878 0.580748 0.581328 0.522104 0.368075 0.0885932 0.296635 0.420315 0.504171 0.530652 0.491675 0.453865 0.39331 0.31343 0.35269 0.427905 0.471154 0.476478 0.471012 0.456143 0.426229 0.352141 0.314442 0.396115 0.473603 0.498223 0.445733 0.40699 0.350625 0.293356 0.304549 0.360415 0.416487 0.425338 0.418068 0.395359 0.359016 0.304347 0.294197 0.353054 0.427943 0.452774 0.229317 0.189957 0.133446 0.0828645 0.103566 0.165782 0.233151 0.250046 0.244785 0.215959 0.16728 0.104403 0.0834159 0.133425 0.209559 0.235529 0.0446338 0.0151589 
</DataArray>
<DataArray type="Float64" Name="cell variable 4" format="ascii">
821.45 822.847 824.959 813.588 826.124 832.429 823.808 818.966 818.523 823.113 832.986 826.257 812.947 822.548 828.094 823.201 1141.83 1132.32 1124.77 1118.57 1138.12 1145.86 1147.04 1144.08 1142.89 1143.21 1146.22 1138.32 1118.22 1124.38 1145.38 1146.04 1356.85 1346.86 1337.69 1329.17 1356.45 1378.44 1383.36 1380.17 1378.33 1377.34 1378.73 1356.99 1329.26 1337.65 1360.97 1360.94 1416.98 1405.2 1393.56 1381.13 1420.14 1966.5 2584.44 2953.89 2952.61 2581.55 1964.21 1420.83 1381.14 1393.38 1419.99 1421.22 1434.72 1422.48 1411.45 1402.74 1424.73 1957.82 2573.44 2945.08 2944.44 2571.59 1955.05 1425.28 1402.64 1411.01 1437.82 1439.09 1439.69 1424.5 1410 1400.03 1418.72 1958.3 2560.91 2932.06 2932.19 2560.74 1955.11 1417.1 1398.99 1409.41 1440.9 1444.41 1441.9 1423.69 1405.56 1394.03 1430.76 1962.8 2550.99 2920.24 2921.06 2552.99 1960.16 1405.04 1393.18 1405.59 1441.62 1447.09 1443.48 1422.56 1400.72 1386.52 1467.65 1956.41 2543.99 2910.57 2911.84 2548.16 1967.7 1399.26 1388.09 1401.98 1442.1 1449.08 1444.35 1421.1 1396.67 1381.24 1491.83 1960.49 2539.33 2902.77 2904.67 2545.61 1973.98 1410.03 1383.62 1398.64 1442.57 1450.56 1444.62 1419.51 1393.61 1377.95 1494.13 1963.49 2535.97 2896.69 2899.29 2544 1977.35 1416.22 1379.76 1395.61 1442.97 1451.54 1444.67 1418.05 1390.93 1374.58 1492.57 1968.24 2534.85 2892.25 2895.24 2543.76 1982.34 1422.42 1376.5 1392.93 1443.18 1452.17 1444.59 1416.57 1388.44 1371.51 1490.71 1972.53 2534.91 2889.38 2892.42 2544.03 1986.91 1427.85 1373.63 1390.55 1443.32 1452.62 1444.4 1415.09 1386.02 1368.66 1488.63 1976.06 2535.85 2888.04 2890.8 2544.45 1990.84 1432.88 1371 1388.39 1443.38 1452.91 1444.14 1413.76 1383.68 1365.37 1485.03 1978.95 2537.53 2888.09 2890.16 2544.42 1994.09 1438.42 1369.32 1386.23 1442.99 1452.87 1443.53 1412.26 1381.77 1363.23 1467.87 1980.89 2539.21 2888.86 2890.41 2543.94 1996.25 1444.54 1366.23 1383.35 1442.32 1452.58 1442.47 1410.49 1380.39 1362.94 1447.13 2025.37 2595.5 2952.31 2953.63 2598.03 2015.43 1429.47 1362.31 1380.28 1441.61 1452.06 1441.54 1409.08 1378.99 1361.64 1446.58 2024.96 2595.31 2951.79 2952.38 2595.71 2021.93 1441.94 1361.37 1378.56 1440.88 1451.37 1440.91 1407.87 1377.42 1359.6 1446.67 2025.11 2596.13 2952.78 2952.64 2595.19 2022.48 1443.96 1360.72 1377.48 1440.57 1450.98 1440.24 1406.54 1376 1358.4 1446.62 2025.02 2597.02 2954.56 2954.19 2595.82 2022.78 1444.56 1359.03 1376.25 1440.56 1450.84 1439.44 1405.21 1374.83 1357.61 1445.96 2024.44 2598.02 2957.19 2956.73 2596.81 2022.46 1444.17 1358.02 1375.2 1440.43 1450.54 1438.54 1403.96 1373.89 1357.09 1444.21 2023.15 2599.39 2960.92 2960.36 2598.11 2021.4 1442.76 1357.43 1374.33 1440.19 1450.05 1437.59 1402.8 1373.09 1356.79 1440.8 2020.95 2601.41 2965.95 2965.18 2599.79 2019.42 1440.01 1357.14 1373.63 1439.87 1449.44 1436.63 1401.88 1372.53 1356.27 1434.85 2017.74 2604.54 2972.63 2971.48 2602.05 2016.28 1435.38 1357.15 1373.17 1439.5 1448.68 1435.3 1401.06 1372.82 1357.08 1425.62 2013.59 2609.01 2980.95 2979.46 2605.33 2012.07 1428.3 1357.69 1373.06 1439 1447.49 1433.43 1400.18 1374.13 1359.96 1436.42 2019.46 2615.26 2991.2 2989.54 2610.42 2007.04 1426.29 1358.96 1373.5 1438.44 1445.85 1431.2 1399.33 1375.61 1362.43 1418.91 2014.12 2623.91 3004.11 3002.22 2618.31 2001.99 1427.1 1360.89 1374.55 1437.89 1443.79 1427.08 1396.95 1375.78 1363.65 1399.3 2009.7 2635.63 3019.58 3017.39 2629.96 1998.96 1423.62 1362.75 1375.03 1435.89 1439.81 1411.64 1383.16 1364.28 1352.38 1397.98 2010.16 2651.41 3036.96 3034.56 2646.34 2005.87 1415.94 1352.38 1364.13 1422.17 1424.43 1331.4 1302.35 1280.22 1260.63 1364.11 2028.05 2680.18 3064.05 3061.59 2675.82 2026.9 1367.64 1261.29 1280.51 1339.21 1343.59 1259.22 1231.08 1209.72 1193.16 1224.78 1234.87 1270.78 1270.28 1261.88 1245.46 1235.44 1225.51 1193.63 1210.22 1266.18 1270.95 1123.72 1095.49 1071.17 1052.46 1057.28 1069.64 1110.74 1109.25 1099.2 1080.22 1069.66 1057.21 1052.58 1071.71 1126.59 1134.32 799.348 788.771 784.61 785.167 798.028 814.518 852.092 857.689 851.212 832.599 815.627 798.111 785.102 783.271 807.327 805.02 613.221 744.351 
</DataArray>
<DataArray type="Float64" Name="cell variable 5" format="ascii">
0.0109239 0.0109239 0.0109239 0.0109239 0.0109239 0.0109239 0.0109239 0.0109239 0.0109239 0.0109239 0.0109239 0.0109239 0.0109239 0.0109239 0.0109239 0.0109239 0.0109239 0.0109239 0.0109239 0.0109239 0.0109239 0.0109239 0.0109239 0.0109239 0.0109239 0.0109239 0.0109239 0.0109239 0.0109239 0.0109239 0.0109239 0.0109239 0.0109239 0.0109239 0.0109239 0.0109239 0.0109239 0.0109239 0.0109239 0.0109239 0.0109239 0.0109239 0.0109239 0.0109239 0.0109239 0.0109239 0.0109239 0.0109239 0.0165097 0.0152838 0.0133053 0.0114191 0.0109239 0.0109239 0.0109239 0.0109239 0.0109239 0.0109239 0.0109239 0.0109239 0.0114191 0.0133053 0.0152838 0.0165097 0.0186799 0.0169782 0.0142302 0.0116109 0.0109239 0.0109239 0.0109239 0.0109239 0.0109239 0.0109239 0.0109239 0.0109239 0.0116109 0.0142302 0.0169782 0.0186799 0.0199373 0.0179613 0.0147667 0.0117226 0.0109239 0.0109239 0.0109239 0.0109239 0.0109239 0.0109239 0.0109239 0.0109239 0.0117226 0.0147667 0.0179613 0.0199373 0.0208525 0.0186726 0.0151575 0.0118051 0.0109239 0.0109239 0.0109239 0.0109239 0.0109239 0.0109239 0.0109239 0.0109239 0.0118051 0.0151575 0.0186726 0.0208525 0.0215662 0.0192309 0.015461 0.0118682 0.0109239 0.0109239 0.0109239 0.0109239 0.0109239 0.0109239 0.0109239 0.0109239 0.0118682 0.015461 0.0192309 0.0215662 0.0221415 0.01968 0.0157061 0.0119192 0.0109239 0.0109239 0.0109239 0.0109239 0.0109239 0.0109239 0.0109239 0.0109239 0.0119192 0.0157061 0.01968 0.0221415 0.0226125 0.0200466 0.0159076 0.0119605 0.0109239 0.0109239 0.0109239 0.0109239 0.0109239 0.0109239 0.0109239 0.0109239 0.0119605 0.0159076 0.0200466 0.0226125 0.0229936 0.0203452 0.0160703 0.0119944 0.0109239 0.0109239 0.0109239 0.0109239 0.0109239 0.0109239 0.0109239 0.0109239 0.0119944 0.0160703 0.0203452 0.0229936 0.0232995 0.0205855 0.0162014 0.0120211 0.0109239 0.0109239 0.0109239 0.0109239 0.0109239 0.0109239 0.0109239 0.0109239 0.0120211 0.0162014 0.0205855 0.0232995 0.0235374 0.02077 0.0163009 0.012043 0.0109239 0.0109239 0.0109239 0.0109239 0.0109239 0.0109239 0.0109239 0.0109239 0.012043 0.0163009 0.02077 0.0235374 0.0237121 0.0209059 0.0163761 0.0120576 0.0109239 0.0109239 0.0109239 0.0109239 0.0109239 0.0109239 0.0109239 0.0109239 0.0120576 0.0163761 0.0209059 0.0237121 0.0238287 0.0209957 0.0164247 0.0120697 0.0109239 0.0109239 0.0109239 0.0109239 0.0109239 0.0109239 0.0109239 0.0109239 0.0120697 0.0164247 0.0209957 0.0238287 0.0238845 0.0210419 0.016449 0.0120746 0.0109239 0.0109239 0.0109239 0.0109239 0.0109239 0.0109239 0.0109239 0.0109239 0.0120746 0.016449 0.0210419 0.0238845 0.0238845 0.0210419 0.016449 0.0120746 0.0109239 0.0109239 0.0109239 0.0109239 0.0109239 0.0109239 0.0109239 0.0109239 0.0120746 0.016449 0.0210419 0.0238845 0.0238287 0.0209957 0.0164247 0.0120697 0.0109239 0.0109239 0.0109239 0.0109239 0.0109239 0.0109239 0.0109239 0.0109239 0.0120697 0.0164247 0.0209957 0.0238287 0.0237121 0.0209059 0.0163761 0.0120576 0.0109239 0.0109239 0.0109239 0.0109239 0.0109239 0.0109239 0.0109239 0.0109239 0.0120576 0.0163761 0.0209059 0.0237121 0.0235374 0.02077 0.0163009 0.012043 0.0109239 0.0109239 0.0109239 0.0109239 0.0109239 0.0109239 0.0109239 0.0109239 0.012043 0.0163009 0.02077 0.0235374 0.0232995 0.0205855 0.0162014 0.0120211 0.0109239 0.0109239 0.0109239 0.0109239 0.0109239 0.0109239 0.0109239 0.0109239 0.0120211 0.0162014 0.0205855 0.0232995 0.0229936 0.0203452 0.0160703 0.0119944 0.0109239 0.0109239 0.0109239 0.0109239 0.0109239 0.0109239 0.0109239 0.0109239 0.0119944 0.0160703 0.0203452 0.0229936 0.0226125 0.0200466 0.0159076 0.0119605 0.0109239 0.0109239 0.0109239 0.0109239 0.0109239 0.0109239 0.0109239 0.0109239 0.0119605 0.0159076 0.0200466 0.0226125 0.0221415 0.01968 0.0157061 0.0119192 0.0109239 0.0109239 0.0109239 0.0109239 0.0109239 0.0109239 0.0109239 0.0109239 0.0119192 0.0157061 0.01968 0.0221415 0.0215662 0.0192309 0.015461 0.0118682 0.0109239 0.0109239 0.0109239 0.0109239 0.0109239 0.0109239 0.0109239 0.0109239 0.0118682 0.015461 0.0192309 0.0215662 0.0208525 0.0186726 0.0151575 0.0118051 0.0109239 0.0109239 0.0109239 0.0109239 0.0109239 0.0109239 0.0109239 0.0109239 0.0118051 0.0151575 0.0186726 0.0208525 0.0199373 0.0179613 0.0147667 0.0117226 0.0109239 0.0109239 0.0109239 0.0109239 0.0109239 0.0109239 0.0109239 0.0109239 0.0117226 0.0147667 0.0179613 0.0199373 0.0186799 0.0169782 0.0142302 0.0116109 0.0109239 0.0109239 0.0109239 0.0109239 0.0109239 0.0109239 0.0109239 0.0109239 0.0116109 0.0142302 0.0169782 0.0186799 0.0165097 0.0152838 0.0133053 0.0114191 0.0109239 0.0109239 0.0109239 0.0109239 0.0109239 0.0109239 0.0109239 0.0109239 0.0114191 0.0133053 0.0152838 0.0165097 0.0109239 0.0109239 0.0109239 0.0109239 0.0109239 0.0109239 0.0109239 0.0109239 0.0109239 0.0109239 0.0109239 0.0109239 0.0109239 0.0109239 0.0109239 0.0109239 0.0109239 0.0109239 0.0109239 0.0109239 0.0109239 0.0109239 0.0109239 0.0109239 0.0109239 0.0109239 0.0109239 0.0109239 0.0109239 0.0109239 0.0109239 0.0109239 0.0109239 0.0109239 0.0109239 0.0109239 0.0109239 0.0109239 0.0109239 0.0109239 0.0109239 0.0109239 0.0109239 0.0109239 0.0109239 0.0109239 0.0109239 0.0109239 0.0109239 0.0109239 
</DataArray>
<DataArray type="Float64" Name="cell variable 6" format="ascii">
1 1 1 1 1 1 1 1 1 1 1 1 1 1 1 1 1 1 1 1 1 1 1 1 1 1 1 1 1 1 1 1 1 1 1 1 1 1 1 1 1 1 1 1 1 1 1 1 1 1 1 1 1 1 1 1 1 1 1 1 1 1 1 1 1 1 1 1 1 1 1 1 1 1 1 1 1 1 1 1 1 1 1 1 1 1 1 1 1 1 1 1 1 1 1 1 1 1 1 1 1 1 1 1 1 1 1 1 1 1 1 1 1 1 1 1 1 1 1 1 1 1 1 1 1 1 1 1 1 1 1 1 1 1 1 1 1 1 1 1 1 1 1 1 1 1 1 1 1 1 1 1 1 1 1 1 1 1 1 1 1 1 1 1 1 1 1 1 1 1 1 1 1 1 1 1 1 1 1 1 1 1 1 1 1 1 1 1 1 1 1 1 1 1 1 1 1 1 1 1 1 1 1 1 1 1 1 1 1 1 1 1 1 1 1 1 1 1 1 1 1 1 1 1 1 1 1 1 1 1 1 1 1 1 1 1 1 1 1 1 1 1 1 1 1 1 1 1 1 1 1 1 1 1 1 1 1 1 1 1 1 1 1 1 1 1 1 1 1 1 1 1 1 1 1 1 1 1 1 1 1 1 1 1 1 1 1 1 1 1 1 1 1 1 1 1 1 1 1 1 1 1 1 1 1 1 1 1 1 1 1 1 1 1 1 1 1 1 1 1 1 1 1 1 1 1 1 1 1 1 1 1 1 1 1 1 1 1 1 1 1 1 1 1 1 1 1 1 1 1 1 1 1 1 1 1 1 1 1 1 1 1 1 1 1 1 1 1 1 1 1 1 1 1 1 1 1 1 1 1 1 1 1 1 1 1 1 1 1 1 1 1 1 1 1 1 1 1 1 1 1 1 1 1 1 1 1 1 1 1 1 1 1 1 1 1 1 1 1 1 1 1 1 1 1 1 1 1 1 1 1 1 1 1 1 1 1 1 1 1 1 1 1 1 1 1 1 1 1 1 1 1 1 1 1 1 1 1 1 1 1 1 1 1 1 1 1 1 1 1 1 1 1 1 1 1 1 1 1 1 1 1 1 1 1 1 1 1 1 1 1 1 1 1 1 1 1 1 1 1 1 1 1 1 1 1 1 1 1 1 1 1 1 1 
</DataArray>
<DataArray type="Float64" Name="cell variable 7" format="ascii">
0 0 0 0 0 0 0 0 0 0 0 0 0 0 0 0 0 0 0 0 0 0 0 0 0 0 0 0 0 0 0 0 0 0 0 0 0 0 0 0 0 0 0 0 0 0 0 0 0 0 0 0 0 0 0 0 0 0 0 0 0 0 0 0 0 0 0 0 0 0 0 0 0 0 0 0 0 0 0 0 0 0 0 0 0 0 0 0 0 0 0 0 0 0 0 0 0 0 0 0 0 0 0 0 0 0 0 0 0 0 0 0 0 0 0 0 0 0 0 0 0 0 0 0 0 0 0 0 0 0 0 0 0 0 0 0 0 0 0 0 0 0 0 0 0 0 0 0 0 0 0 0 0 0 0 0 0 0 0 0 0 0 0 0 0 0 0 0 0 0 0 0 0 0 0 0 0 0 0 0 0 0 0 0 0 0 0 0 0 0 0 0 0 0 0 0 0 0 0 0 0 0 0 0 0 0 0 0 0 0 0 0 0 0 0 0 0 0 0 0 0 0 0 0 0 0 0 0 0 0 0 0 0 0 0 0 0 0 0 0 0 0 0 0 0 0 0 0 0 0 0 0 0 0 0 0 0 0 0 0 0 0 0 0 0 0 0 0 0 0 0 0 0 0 0 0 0 0 0 0 0 0 0 0 0 0 0 0 0 0 0 0 0 0 0 0 0 0 0 0 0 0 0 0 0 0 0 0 0 0 0 0 0 0 0 0 0 0 0 0 0 0 0 0 0 0 0 0 0 0 0 0 0 0 0 0 0 0 0 0 0 0 0 0 0 0 0 0 0 0 0 0 0 0 0 0 0 0 0 0 0 0 0 0 0 0 0 0 0 0 0 0 0 0 0 0 0 0 0 0 0 0 0 0 0 0 0 0 0 0 0 0 0 0 0 0 0 0 0 0 0 0 0 0 0 0 0 0 0 0 0 0 0 0 0 0 0 0 0 0 0 0 0 0 0 0 0 0 0 0 0 0 0 0 0 0 0 0 0 0 0 0 0 0 0 0 0 0 0 0 0 0 0 0 0 0 0 0 0 0 0 0 0 0 0 0 0 0 0 0 0 0 0 0 0 0 0 0 0 0 0 0 0 0 0 0 0 0 0 0 0 0 0 0 0 0 0 0 0 0 0 0 0 0 0 0 0 0 0 0 0 0 1 1 
</DataArray>
<DataArray type="Float64" Name="cell variable 8" format="ascii">
11.25 33.75 56.25 78.75 101.25 123.75 146.25 168.75 191.25 213.75 236.25 258.75 281.25 303.75 326.25 348.75 11.25 33.75 56.25 78.75 101.25 123.75 146.25 168.75 191.25 213.75 236.25 258.75 281.25 303.75 326.25 348.75 11.25 33.75 56.25 78.75 101.25 123.75 146.25 168.75 191.25 213.75 236.25 258.75 281.25 303.75 326.25 348.75 11.25 33.75 56.25 78.75 101.25 123.75 146.25 168.75 191.25 213.75 236.25 258.75 281.25 303.75 326.25 348.75 11.25 33.75 56.25 78.75 101.25 123.75 146.25 168.75 191.25 213.75 236.25 258.75 281.25 303.75 326.25 348.75 11.25 33.75 56.25 78.75 101.25 123.75 146.25 168.75 191.25 213.75 236.25 258.75 281.25 303.75 326.25 348.75 11.25 33.75 56.25 78.75 101.25 123.75 146.25 168.75 191.25 213.75 236.25 258.75 281.25 303.75 326.25 348.75 11.25 33.75 56.25 78.75 101.25 123.75 146.25 168.75 191.25 213.75 236.25 258.75 281.25 303.75 326.25 348.75 11.25 33.75 56.25 78.75 101.25 123.75 146.25 168.75 191.25 213.75 236.25 258.75 281.25 303.75 326.25 348.75 11.25 33.75 56.25 78.75 101.25 123.75 146.25 168.75 191.25 213.75 236.25 258.75 281.25 303.75 326.25 348.75 11.25 33.75 56.25 78.75 101.25 123.75 146.25 168.75 191.25 213.75 236.25 258.75 281.25 303.75 326.25 348.75 11.25 33.75 56.25 78.75 101.25 123.75 146.25 168.75 191.25 213.75 236.25 258.75 281.25 303.75 326.25 348.75 11.25 33.75 56.25 78.75 101.25 123.75 146.25 168.75 191.25 213.75 236.25 258.75 281.25 303.75 326.25 348.75 11.25 33.75 56.25 78.75 101.25 123.75 146.25 168.75 191.25 213.75 236.25 258.75 281.25 303.75 326.25 348.75 11.25 33.75 56.25 78.75 101.25 123.75 146.25 168.75 191.25 213.75 236.25 258.75 281.25 303.75 326.25 348.75 11.25 33.75 56.25 78.75 101.25 123.75 146.25 168.75 191.25 213.75 236.25 258.75 281.25 303.75 326.25 348.75 11.25 33.75 56.25 78.75 101.25 123.75 146.25 168.75 191.25 213.75 236.25 258.75 281.25 303.75 326.25 348.75 11.25 33.75 56.25 78.75 101.25 123.75 146.25 168.75 191.25 213.75 236.25 258.75 281.25 303.75 326.25 348.75 11.25 33.75 56.25 78.75 101.25 123.75 146.25 168.75 191.25 213.75 236.25 258.75 281.25 303.75 326.25 348.75 11.25 33.75 56.25 78.75 101.25 123.75 146.25 168.75 191.25 213.75 236.25 258.75 281.25 303.75 326.25 348.75 11.25 33.75 56.25 78.75 101.25 123.75 146.25 168.75 191.25 213.75 236.25 258.75 281.25 303.75 326.25 348.75 11.25 33.75 56.25 78.75 101.25 123.75 146.25 168.75 191.25 213.75 236.25 258.75 281.25 303.75 326.25 348.75 11.25 33.75 56.25 78.75 101.25 123.75 146.25 168.75 191.25 213.75 236.25 258.75 281.25 303.75 326.25 348.75 11.25 33.75 56.25 78.75 101.25 123.75 146.25 168.75 191.25 213.75 236.25 258.75 281.25 303.75 326.25 348.75 11.25 33.75 56.25 78.75 101.25 123.75 146.25 168.75 191.25 213.75 236.25 258.75 281.25 303.75 326.25 348.75 11.25 33.75 56.25 78.75 101.25 123.75 146.25 168.75 191.25 213.75 236.25 258.75 281.25 303.75 326.25 348.75 11.25 33.75 56.25 78.75 101.25 123.75 146.25 168.75 191.25 213.75 236.25 258.75 281.25 303.75 326.25 348.75 11.25 33.75 56.25 78.75 101.25 123.75 146.25 168.75 191.25 213.75 236.25 258.75 281.25 303.75 326.25 348.75 11.25 33.75 56.25 78.75 101.25 123.75 146.25 168.75 191.25 213.75 236.25 258.75 281.25 303.75 326.25 348.75 11.25 33.75 56.25 78.75 101.25 123.75 146.25 168.75 191.25 213.75 236.25 258.75 281.25 303.75 326.25 348.75 11.25 33.75 56.25 78.75 101.25 123.75 146.25 168.75 191.25 213.75 236.25 258.75 281.25 303.75 326.25 348.75 11.25 33.75 56.25 78.75 101.25 123.75 146.25 168.75 191.25 213.75 236.25 258.75 281.25 303.75 326.25 348.75 0 0 
</DataArray>
</CellData>
</Piece>
</UnstructuredGrid>
</VTKFile>
