<VTKFile type="UnstructuredGrid" version="0.1">
<UnstructuredGrid>
<Piece  NumberOfPoints="    2080" NumberOfCells="     514">
<Points>
<DataArray type="Float64" NumberOfComponents="3" format="ascii">
-375.8 669.302 1.19023
-375.359 674.445 26.9532
-346.58 667.468 29.0561
-347.107 661.889 1.2126
-375.257 675.59 29.7031
-373.99 690.202 51.4791
-345.033 684.451 55.3374
-346.478 668.613 31.806
-373.813 692.311 53.5772
-372.098 714.106 68.0621
-342.921 710.17 73.1233
-344.856 686.56 57.4355
-371.9 716.854 69.1978
-370.227 742.517 74.2785
-340.938 740.747 79.88
-342.723 712.918 74.259
-370.055 745.492 74.2826
-368.711 771.193 69.2146
-339.404 771.604 74.3878
-340.767 743.722 79.8842
-368.579 773.947 68.079
-367.585 795.793 53.5619
-338.23 797.993 57.4798
-339.273 774.359 73.2522
-367.489 797.903 51.4569
-366.822 812.514 29.6519
-337.399 815.894 31.7634
-338.135 800.103 55.3748
-366.769 813.656 26.899
-366.515 818.78 1.14735
-337.062 822.577 1.15383
-337.345 817.035 29.0105
-366.514 818.779 -1.83286
-366.744 813.639 -27.5818
-337.316 817.022 -29.6799
-337.06 822.577 -1.82638
-366.796 812.495 -30.334
-367.453 797.873 -52.1325
-338.091 800.077 -56.0337
-337.368 815.879 -32.4321
-367.547 795.762 -54.2364
-368.535 773.908 -68.7428
-339.225 774.322 -73.8958
-338.186 797.966 -58.1375
-368.666 771.153 -69.877
-370.006 745.449 -74.9307
-340.714 743.682 -80.5123
-339.356 771.567 -75.0299
-370.176 742.474 -74.925
-371.851 716.813 -69.8302
-342.669 712.882 -74.8705
-340.885 740.707 -80.5066
-372.049 714.066 -68.6929
-373.755 692.282 -54.191
-344.817 686.537 -58.0272
-342.867 710.135 -73.7332
-373.933 690.174 -52.0911
-375.204 675.579 -30.3064
-346.462 668.602 -32.3722
-344.995 684.429 -55.9273
-375.31 674.435 -27.5546
-375.798 669.301 -1.79117
-347.105 661.889 -1.7688
-346.567 667.458 -29.6205
-343.723 661.31 1.28854
-343.196 666.888 29.132
-310.625 663.569 29.7696
-311.206 657.912 1.29625
-341.636 683.926 55.5522
-308.9 680.854 56.7621
-310.51 664.768 32.6584
-343.081 668.088 32.0208
-339.504 709.748 73.4454
-306.556 707.125 75.0457
-308.702 683.066 58.9675
-341.438 686.138 57.7576
-337.507 740.46 80.2626
-304.585 738.427 81.9684
-306.344 710.009 76.2418
-339.292 712.632 74.6416
-335.973 771.47 74.7711
-303.151 770.023 76.2798
-304.414 741.554 81.9733
-337.336 743.587 80.2675
-334.801 797.998 57.8017
-302.016 797.05 58.9504
-303.021 772.916 75.0828
-335.843 774.363 73.5741
-333.966 816.003 31.9774
-301.16 815.408 32.6082
-301.918 799.265 56.7375
-334.702 800.212 55.5887
-333.625 822.743 1.22946
-300.805 822.274 1.2404
-301.103 816.606 29.717
-333.908 817.201 29.0862
-333.879 817.188 -29.7535
-301.077 816.59 -30.361
-300.803 822.273 -1.88896
-333.623 822.743 -1.89991
-334.658 800.186 -56.2455
-301.876 799.237 -57.3687
-301.133 815.39 -33.2514
-333.935 815.988 -32.6439
-335.795 774.327 -74.2153
-302.973 772.878 -75.7
-301.974 797.021 -59.5803
-334.756 797.97 -58.4571
-337.282 743.547 -80.8931
-304.36 741.512 -82.5726
-303.102 769.984 -76.8953
-335.925 771.433 -75.4107
-339.237 712.596 -75.2505
-306.291 709.97 -76.8229
-304.531 738.385 -82.566
-337.454 740.421 -80.8865
-341.399 686.115 -58.3465
-308.662 683.038 -59.5328
-306.503 707.086 -75.6249
-339.45 709.713 -74.0525
-343.067 668.077 -32.584
-310.493 664.75 -33.2043
-308.862 680.827 -57.3254
-341.6 683.904 -56.1391
-343.184 666.878 -29.6938
-343.722 661.309 -1.84212
-311.205 657.911 -1.83442
-310.61 663.552 -30.3141
-307.59 657.6 1.31883
-307.01 663.257 29.7922
-274.305 660.994 29.9404
-274.964 655.346 1.32916
-306.879 664.466 32.7231
-305.269 680.552 56.8268
-272.315 678.282 57.1309
-274.174 662.203 32.8712
-305.044 682.786 59.0665
-302.898 706.844 75.1447
-269.596 704.63 75.5683
-272.09 680.515 59.3706
-302.677 709.759 76.3565
-300.918 738.178 82.0831
-267.836 736.13 82.5115
-269.376 707.545 76.7801
-300.761 741.349 82.0872
-299.498 769.817 76.3937
-266.583 767.966 76.861
-267.678 739.301 82.5156
-299.378 772.752 75.1798
-298.373 796.886 59.0474
-265.515 795.206 59.4269
-266.463 770.9 75.6471
-298.276 799.132 56.8027
-297.519 815.274 32.6734
-264.632 813.681 32.8798
-265.417 797.452 57.1822
-297.459 816.489 29.7407
-297.161 822.157 1.26411
-264.254 820.586 1.27755
-264.572 814.896 29.9471
-297.159 822.156 -1.90995
-297.433 816.472 -30.382
-264.55 814.879 -30.5624
-264.253 820.585 -1.89651
-297.491 815.256 -33.3139
-298.235 799.103 -57.4312
-265.379 797.421 -57.7865
-264.608 813.663 -33.4943
-298.331 796.856 -59.6746
-299.33 772.714 -75.7942
-266.416 770.86 -76.2377
-265.475 795.174 -60.0299
-299.449 769.779 -77.0065
-300.707 741.307 -82.6838
-267.626 739.257 -83.0888
-266.535 767.925 -77.45
-300.865 738.136 -82.6779
-302.624 709.72 -76.9348
-269.324 707.503 -77.336
-267.783 736.086 -83.083
-302.845 706.805 -75.7214
-305.004 682.757 -59.6293
-272.047 680.483 -59.9133
-269.545 704.589 -76.1226
-305.231 680.524 -57.3878
-306.862 664.448 -33.2667
-274.153 662.181 -33.3948
-272.274 678.251 -57.6719
-306.995 663.24 -30.3346
-307.59 657.599 -1.85497
-274.963 655.345 -1.84465
-274.287 660.973 -30.4627
-271.353 655.067 1.33705
-270.694 660.714 29.9483
-238.26 657.926 30.0177
-239.096 652.301 1.34685
-270.535 661.922 32.8926
-268.676 678.001 57.1522
-235.729 675.153 57.2955
-238.1 659.134 32.962
-268.395 680.236 59.4046
-265.901 704.351 75.6023
-232.079 701.442 75.8194
-235.448 677.389 59.5479
-265.605 707.287 76.8193
-264.065 735.873 82.5507
-228.553 732.916 82.7242
-231.783 704.378 77.0364
-263.825 739.051 82.5469
-262.73 767.716 76.8923
-225.547 764.758 77.109
-228.314 736.094 82.7203
-262.534 770.652 75.6724
-261.585 794.958 59.4522
-223.064 792.001 59.6408
-225.351 767.694 75.8892
-261.428 797.201 57.1984
-260.643 813.431 32.896
-221.274 810.443 33.0006
-222.908 794.244 57.387
-260.551 814.642 29.9534
-260.233 820.332 1.28383
-220.575 817.325 1.29819
-221.181 811.654 30.0579
-260.232 820.332 -1.89978
-260.529 814.625 -30.5656
-221.163 811.638 -30.6425
-220.574 817.324 -1.88543
-260.62 813.412 -33.5077
-261.391 797.171 -57.7999
-222.873 794.213 -57.963
-221.253 810.425 -33.5845
-261.546 794.926 -60.0526
-262.487 770.612 -76.2603
-225.305 767.653 -76.4523
-223.028 791.969 -60.2157
-262.683 767.675 -77.4786
-263.773 739.007 -83.1175
-228.262 736.049 -83.2679
-225.5 764.716 -77.6706
-264.013 735.828 -83.1197
-265.553 707.246 -77.3728
-231.731 704.336 -77.5689
-228.501 732.871 -83.2701
-265.849 704.31 -76.1544
-268.352 680.204 -59.9451
-235.403 677.354 -60.0693
-232.028 701.4 -76.3505
-268.635 677.97 -57.6911
-270.514 661.9 -33.414
-238.075 659.109 -33.4641
-235.686 675.12 -57.8153
-270.676 660.693 -30.4684
-271.352 655.065 -1.85034
-239.095 652.3 -1.84054
-238.237 657.902 -30.5185
-235.521 651.909 1.35054
-234.685 657.534 30.0214
-202.562 653.233 30.0464
-203.61 647.658 1.36157
-234.483 658.735 32.9712
-232.111 674.755 57.3047
-199.367 670.325 57.353
-202.36 654.434 32.9962
-231.746 676.979 59.5624
-228.378 701.033 75.8339
-194.614 696.427 75.9052
-199.002 672.549 59.6107
-227.938 703.952 77.0505
-224.709 732.49 82.7383
-189.389 727.685 82.7953
-194.175 699.347 77.1219
-224.287 735.658 82.7336
-221.521 764.321 77.1223
-184.579 759.329 77.1497
-188.967 730.852 82.7906
-221.159 767.248 75.9019
-218.872 791.555 59.6534
-180.589 786.414 59.6808
-184.217 762.256 75.9292
-218.594 793.791 57.3963
-216.961 809.989 33.01
-177.82 804.75 33.0334
-180.311 788.65 57.4237
-216.805 811.195 30.0622
-216.198 816.866 1.30245
-176.765 811.59 1.31621
-177.664 805.956 30.0856
-216.197 816.865 -1.88662
-216.786 811.179 -30.6437
-177.648 805.94 -30.6398
-176.764 811.589 -1.87286
-216.94 809.971 -33.591
-218.56 793.76 -57.9694
-180.279 788.619 -57.97
-177.802 804.732 -33.587
-218.836 791.523 -60.2255
-221.113 767.207 -76.4621
-184.173 762.215 -76.4637
-180.555 786.382 -60.226
-221.474 764.279 -77.6812
-224.236 735.612 -83.2784
-188.917 730.807 -83.311
-184.534 759.287 -77.6827
-224.657 732.445 -83.2817
-227.887 703.91 -77.5805
-194.123 699.305 -77.6294
-189.338 727.64 -83.3143
-228.326 700.991 -76.3627
-231.701 676.945 -60.0814
-198.955 672.514 -60.1084
-194.563 696.386 -76.4116
-232.068 674.722 -57.8222
-234.458 658.71 -33.471
-202.332 654.408 -33.4742
-199.322 670.291 -57.8493
-234.662 657.51 -30.5199
-235.519 651.908 -1.84193
-203.608 647.657 -1.83089
-202.536 653.208 -30.523
-200.074 647.091 1.36376
-199.026 652.666 30.0486
-167.281 646.7 30.0665
-168.563 641.191 1.37592
-198.775 653.856 33.0006
-195.783 669.746 57.3573
-163.35 663.603 57.3914
-167.03 647.89 33.0185
-195.322 671.951 59.6168
-190.934 695.829 75.9114
-157.405 689.437 75.9559
-162.889 665.807 59.6509
-190.35 698.722 77.1281
-185.564 727.061 82.8016
-150.537 720.432 82.8587
-156.822 692.331 77.1726
-184.969 730.203 82.7953
-180.581 758.68 77.1544
-143.97 751.759 77.1818
-149.942 723.574 82.8525
-180.056 761.583 75.932
-176.428 785.741 59.6835
-138.482 778.578 59.7006
-143.445 754.663 75.9593
-176.028 787.959 57.4259
-173.537 804.059 33.0356
-134.732 796.737 33.0501
-138.083 780.796 57.443
-173.318 805.255 30.0874
-172.419 810.89 1.31797
-133.319 803.512 1.33183
-134.513 797.933 30.1019
-172.418 810.889 -1.87157
-173.301 805.239 -30.6385
-134.497 797.918 -30.6255
-133.318 803.511 -1.85771
-173.519 804.041 -33.5862
-175.996 787.928 -57.9691
-138.053 780.766 -57.9594
-134.715 796.72 -33.5732
-176.395 785.71 -60.2258
-180.012 761.543 -76.4635
-143.403 754.623 -76.465
-138.451 778.547 -60.2161
-180.536 758.638 -77.6847
-184.919 730.159 -83.3129
-149.892 723.53 -83.3455
-143.927 751.718 -77.6862
-185.513 727.016 -83.3179
-190.299 698.681 -77.6331
-156.769 692.289 -77.6543
-150.486 720.387 -83.3505
-190.883 695.787 -76.4153
-195.275 671.916 -60.1121
-162.84 665.772 -60.1239
-157.353 689.396 -76.4366
-195.737 669.712 -57.8511
-198.747 653.83 -33.476
-167 647.862 -33.4701
-163.302 663.568 -57.8629
-199.001 652.641 -30.5226
-200.073 647.09 -1.83051
-168.562 641.19 -1.81835
-167.253 646.673 -30.5167
-165.074 640.44 1.37776
-163.791 645.949 30.0684
-132.484 638.324 30.0825
-134.017 632.891 1.39066
-163.487 647.124 33.0215
-159.807 662.838 57.3944
-127.77 655.002 57.4171
-132.18 639.499 33.0357
-159.245 665.016 59.6549
-153.761 688.645 75.9599
-120.595 680.503 75.9894
-127.208 657.18 59.6775
-153.033 691.507 77.1773
-146.749 719.608 82.8634
-112.121 711.13 82.9012
-119.867 683.365 77.2068
-145.984 722.716 82.8564
-140.012 750.901 77.1857
-103.829 742.048 77.2042
-111.356 714.238 82.8942
-139.327 753.771 75.9614
-134.364 777.686 59.7027
-96.8626 768.519 59.7145
-103.143 744.918 75.9799
-133.843 779.878 57.4445
-130.493 795.819 33.0516
-92.1332 786.447 33.0638
-96.3421 770.711 57.4562
-130.209 797.002 30.1034
-129.016 802.581 1.3333
-90.3615 793.137 1.34725
-91.85 787.63 30.1155
-129.015 802.58 -1.85611
-130.194 796.987 -30.6239
-91.8361 787.615 -30.6084
-90.3608 793.137 -1.84216
-130.476 795.802 -33.5716
-133.814 779.849 -57.9579
-96.3141 770.683 -57.9428
-92.1179 786.431 -33.5562
-134.333 777.655 -60.2152
-139.284 753.731 -76.4641
-103.102 744.879 -76.4568
-96.8332 768.489 -60.2002
-139.969 750.86 -77.6873
-145.934 722.671 -83.3466
-111.307 714.195 -83.3599
-103.787 742.009 -77.68
-146.698 719.563 -83.3524
-152.981 691.465 -77.6563
-119.815 683.323 -77.662
-112.071 711.086 -83.3657
-153.709 688.604 -76.438
-159.196 664.98 -60.1253
-127.158 657.143 -60.1249
-120.543 680.461 -76.4436
-159.76 662.803 -57.8633
-163.457 647.096 -33.4706
-132.149 639.469 -33.4598
-127.722 654.965 -57.8629
-163.764 645.922 -30.5158
-165.072 640.439 -1.81743
-134.016 632.889 -1.80454
-132.455 638.295 -30.505
-130.581 631.957 1.3923
-129.047 637.39 30.0842
-98.2448 628.128 30.0966
-100.04 622.782 1.40575
-128.688 638.549 33.0379
-124.278 654.051 57.4193
-92.7226 644.541 57.4352
-97.8849 629.286 33.0503
-123.611 656.198 59.6803
-116.998 679.521 75.9921
-84.2853 669.642 76.0114
-92.0551 646.687 59.6962
-116.126 682.342 77.2097
-108.38 710.107 82.9041
-74.2301 699.787 82.9229
-83.4138 672.463 77.229
-107.449 713.171 82.8966
-99.9217 740.98 77.2066
-64.2632 730.209 77.2169
-73.2996 702.85 82.9154
-99.0785 743.808 75.9813
-92.7981 767.409 59.7159
-55.8467 756.256 59.7241
-63.4199 733.037 75.9916
-92.1581 769.57 57.4574
-87.9492 785.306 33.0649
-50.1477 773.903 33.0762
-55.2067 758.417 57.4656
-87.6024 786.471 30.1169
-86.114 791.979 1.34865
-48.0186 780.49 1.36269
-49.8009 775.069 30.1282
-86.1133 791.978 -1.84046
-87.5886 786.457 -30.6067
-49.7881 775.055 -30.5901
-48.0179 780.49 -1.82642
-87.934 785.29 -33.5543
-92.1302 769.541 -57.9409
-55.1802 758.389 -57.9218
-50.1335 773.888 -33.5377
-92.7689 767.38 -60.1986
-99.0378 743.769 -76.4553
-63.3807 732.999 -76.4391
-55.8189 756.228 -60.1795
-99.88 740.941 -77.6796
-107.4 713.127 -83.3594
-73.2521 702.807 -83.3527
-64.223 730.17 -77.6634
-108.33 710.064 -83.3659
-116.074 682.3 -77.6622
-83.3629 672.42 -77.6569
-74.182 699.743 -83.3592
-116.946 679.479 -76.4437
-123.561 656.161 -60.125
-92.0054 646.649 -60.1171
-84.2343 669.599 -76.4385
-124.23 654.014 -57.8624
-128.657 638.518 -33.4592
-97.854 629.254 -33.4456
-92.674 644.503 -57.8545
-129.019 637.361 -30.5038
-130.579 631.956 -1.8033
-100.038 622.78 -1.78985
-98.2163 628.097 -30.4902
-96.6638 621.668 1.40733
-94.869 627.014 30.0982
-64.6459 616.132 30.1112
-66.7063 610.888 1.42112
-94.4522 628.152 33.0521
-89.2899 643.407 57.437
-58.3041 632.235 57.4518
-64.2291 617.271 33.0652
-88.5154 645.516 59.6983
-80.7456 668.471 76.0135
-48.5957 656.862 76.0298
-57.5296 634.344 59.7131
-79.73 671.242 77.2309
-70.5463 698.566 82.9248
-36.9772 686.438 82.9397
-47.5801 659.633 77.2473
-69.4539 701.575 82.917
-60.4175 728.934 77.2185
-25.3809 716.277 77.2299
-35.8848 689.447 82.9319
-59.4208 731.712 75.9928
-51.8475 754.931 59.7252
-15.5489 741.824 59.7351
-24.3842 719.054 76.0042
-51.0901 757.054 57.4667
-46.0311 772.54 33.0773
-8.89668 759.136 33.0891
-14.7915 743.946 57.4766
-45.6215 773.686 30.1296
-43.8392 779.107 1.36409
-6.41429 765.6 1.37817
-8.48708 760.281 30.1414
-43.8386 779.106 -1.8247
-45.6087 773.672 -30.5884
-8.47518 760.268 -30.5723
-6.41364 765.599 -1.81063
-46.017 772.525 -33.5358
-51.0637 757.026 -57.9199
-14.7665 743.919 -57.9024
-8.88347 759.121 -33.5196
-51.8199 754.903 -60.1777
-59.3818 731.674 -76.4373
-24.3467 719.017 -76.422
-15.5227 741.796 -60.1602
-60.3774 728.895 -77.6621
-69.4065 701.532 -83.3514
-35.8389 689.403 -83.3405
-25.3423 716.238 -77.6468
-70.4984 698.522 -83.3583
-79.6793 671.199 -77.6561
-47.5304 659.59 -77.6475
-36.9307 686.394 -83.3474
-80.6947 668.428 -76.4378
-88.4657 645.477 -60.1165
-57.4804 634.304 -60.1071
-48.5458 656.818 -76.4293
-89.2412 643.368 -57.8535
-94.4213 628.119 -33.4447
-64.1989 617.236 -33.4312
-58.2559 632.195 -57.8442
-94.8406 626.983 -30.4888
-96.6623 621.666 -1.78845
-66.7048 610.886 -1.77467
-64.6183 616.099 -30.4753
-63.3993 609.596 1.4227
-61.3389 614.841 30.1128
-31.7709 602.367 30.126
-34.0977 597.238 1.43666
-60.8647 615.956 33.0669
-54.9397 630.92 57.4535
-24.6097 618.113 57.4672
-31.2967 603.483 33.0801
-54.0581 632.986 59.7148
-45.1242 655.503 76.0316
-13.64 642.195 76.0465
-23.7281 620.179 59.7285
-43.9658 658.218 77.249
-33.3628 685.022 82.9414
-0.482091 671.117 82.9551
-12.4816 644.91 77.2639
-32.1118 687.968 82.9333
-21.6078 714.799 77.2313
12.7022 700.288 77.2426
0.768954 674.064 82.947
-20.4617 717.518 76.0054
-11.6264 740.287 59.7364
23.915 725.26 59.747
13.8484 703.008 76.0167
-10.7541 742.365 57.4779
-4.85929 757.555 33.0903
31.5016 742.184 33.1025
24.7874 727.337 57.4885
-4.38798 758.677 30.1428
-2.31519 763.995 1.37961
34.3308 748.505 1.39368
31.973 743.306 30.155
-2.31458 763.994 -1.80895
-4.37612 758.663 -30.5706
31.984 743.293 -30.5549
34.3314 748.504 -1.79488
-4.8462 757.54 -33.5178
-10.7292 742.338 -57.9005
24.8109 727.311 -57.8838
31.5139 742.169 -33.502
-11.6003 740.259 -60.1584
-20.4243 717.48 -76.4202
13.8841 702.97 -76.4048
23.9398 725.232 -60.1416
-21.5695 714.76 -77.6453
-32.066 687.925 -83.339
0.813037 674.02 -83.3267
12.739 700.25 -77.6299
-33.3165 684.978 -83.3463
-43.9161 658.174 -77.6463
-12.4333 644.865 -77.6361
-0.437408 671.074 -83.334
-45.0744 655.46 -76.4283
-54.009 632.946 -60.1062
-23.6799 620.138 -60.0954
-13.5915 642.151 -76.418
-54.8916 630.88 -57.843
-60.8346 615.921 -33.4301
-31.2681 603.445 -33.4164
-24.5625 618.072 -57.8323
-61.3113 614.808 -30.4739
-63.3978 609.594 -1.77323
-34.0963 597.237 -1.75927
-31.7448 602.332 -30.4602
-30.8677 595.773 1.43822
-28.5409 600.902 30.1276
0.295705 586.869 30.1406
-2.2955 581.871 1.45218
-28.0095 601.99 33.0817
-21.3226 616.621 57.4687
8.26868 602.212 57.4814
0.827095 587.958 33.0947
-20.3347 618.637 59.7301
-10.2466 640.653 76.0481
20.4839 625.678 76.0613
9.25653 604.229 59.7428
-8.94744 643.303 77.2654
3.05204 669.51 82.9567
35.1514 653.863 82.9698
21.783 628.328 77.2786
4.45819 672.386 82.9484
16.3915 698.61 77.244
49.8817 682.282 77.255
36.5576 656.738 82.9616
17.6831 701.264 76.0179
27.7497 723.515 59.7483
62.4348 706.606 59.7588
51.1733 684.936 76.0289
28.734 725.543 57.4898
35.4483 740.389 33.1038
70.9309 723.093 33.116
63.4191 708.633 57.5004
35.9799 741.484 30.1565
38.3377 746.683 1.39513
74.0986 729.252 1.40906
71.4625 724.188 30.1687
38.3383 746.682 -1.79323
35.991 741.471 -30.5532
71.4728 724.175 -30.5377
74.0992 729.251 -1.7793
35.4605 740.375 -33.5003
28.7574 725.516 -57.882
63.4413 708.608 -57.8654
70.9423 723.079 -33.4848
27.7743 723.488 -60.1399
17.7187 701.226 -76.403
51.2073 684.899 -76.3876
62.4582 706.579 -60.1233
16.428 698.572 -77.6284
4.50209 672.342 -83.3252
36.5997 656.695 -83.3125
49.9166 682.244 -77.6129
3.09654 669.467 -83.3327
-8.89932 643.258 -77.6348
21.8296 628.283 -77.6229
35.1942 653.819 -83.32
-10.1983 640.609 -76.4169
-20.2867 618.596 -60.0943
9.30315 604.186 -60.0828
20.5306 625.634 -76.405
-21.2755 616.58 -57.8311
-27.9811 601.953 -33.4152
0.853647 587.919 -33.4015
8.31429 602.17 -57.8195
-28.5148 600.866 -30.4588
-30.8664 595.771 -1.75778
-2.29416 581.869 -1.74383
0.319859 586.832 -30.445
0.849169 580.235 1.45371
3.44037 585.233 30.1422
31.4693 569.681 30.1551
28.6178 564.827 1.46754
4.02816 586.292 33.0962
11.4697 600.546 57.4829
40.24 584.576 57.4948
32.0571 570.739 33.1091
12.5622 602.508 59.7442
23.7895 623.957 76.0627
53.6765 607.357 76.0743
41.3325 586.537 59.7561
25.2267 626.534 77.28
38.5951 652.069 82.9712
69.8183 634.721 82.9829
55.1137 609.934 77.2916
40.1525 654.865 82.9629
53.4766 680.409 77.2562
86.0499 662.307 77.2664
71.3757 637.516 82.9745
54.9094 682.988 76.0301
66.171 704.659 59.76
99.9008 685.914 59.7702
87.4827 664.887 76.0402
67.2639 706.63 57.5016
74.7756 721.089 33.1173
109.278 701.916 33.129
100.994 687.885 57.5118
75.3658 722.154 30.1701
78.002 727.218 1.4105
112.775 707.895 1.42417
109.868 702.98 30.1819
78.0025 727.217 -1.77767
75.3761 722.141 -30.5361
109.878 702.968 -30.5206
112.775 707.894 -1.76401
74.7869 721.076 -33.483
67.2859 706.604 -57.8637
101.015 687.86 -57.847
109.289 701.903 -33.4676
66.1941 704.632 -60.1216
54.9432 682.951 -76.3858
87.5149 664.85 -76.3695
99.9228 685.888 -60.1048
53.5113 680.371 -77.6112
40.1944 654.821 -83.3109
71.4158 637.473 -83.2971
86.083 662.27 -77.595
38.6377 652.025 -83.3186
25.2731 626.489 -77.6215
55.1583 609.889 -77.6083
69.859 634.677 -83.3048
23.8361 623.912 -76.4037
12.6086 602.465 -60.0815
41.3771 586.494 -60.0691
53.7213 607.312 -76.3905
11.5151 600.504 -57.8182
4.0545 586.253 -33.4001
32.081 570.698 -33.3864
40.2836 584.533 -57.8059
3.4644 585.196 -30.4435
0.850383 580.233 -1.74233
28.619 564.825 -1.7285
31.4909 569.642 -30.4298
31.6688 563.026 1.46902
34.5203 567.879 30.1566
61.6654 550.849 30.1687
58.5595 546.155 1.48225
35.1633 568.905 33.1105
43.3462 582.741 57.4962
71.2146 565.253 57.5066
62.3084 551.875 33.1226
44.541 584.641 59.7574
56.885 605.461 76.0756
85.8413 587.282 76.0854
72.4093 567.153 59.7677
58.4569 607.958 77.2928
73.1614 632.744 82.9841
103.416 613.744 82.994
87.4131 589.778 77.3026
74.8657 635.453 82.9756
89.54 660.244 77.2675
121.101 640.419 77.2764
105.12 616.453 82.9855
91.1095 662.742 76.0413
103.528 683.769 59.7713
136.205 663.241 59.7807
122.671 642.917 76.0502
104.725 685.678 57.513
113.01 699.709 33.1302
146.434 678.712 33.1415
137.403 665.15 57.5224
113.657 700.74 30.1833
116.563 705.655 1.42556
150.249 684.494 1.43896
147.081 679.743 30.1945
116.564 705.654 -1.76241
113.666 700.728 -30.519
147.09 679.731 -30.5037
150.249 684.493 -1.74901
113.021 699.696 -33.4658
104.746 685.653 -57.8452
137.423 665.126 -57.8285
146.444 678.699 -33.4505
103.549 683.743 -60.103
91.1415 662.706 -76.3677
122.701 642.881 -76.3511
136.226 663.216 -60.0864
89.5729 660.206 -77.5933
74.9056 635.41 -83.2954
105.158 616.41 -83.2804
121.132 640.382 -77.5767
73.2019 632.701 -83.3033
58.5012 607.912 -77.6067
87.4553 589.733 -77.5926
103.454 613.701 -83.2883
56.9296 605.416 -76.3891
44.5854 584.598 -60.0677
72.4516 567.109 -60.0551
85.8837 587.237 -76.3749
43.3895 582.698 -57.8045
35.187 568.864 -33.385
62.3292 551.832 -33.3719
71.2558 565.209 -57.7918
34.5418 567.84 -30.4284
31.6699 563.023 -1.72703
58.5605 546.153 -1.7138
61.684 550.808 -30.4152
61.5085 544.192 1.48366
64.6144 548.886 30.1701
90.8018 530.427 30.182
87.4491 525.907 1.49683
65.3112 549.876 33.1239
74.2174 563.255 57.5078
101.106 544.298 57.5172
91.4986 531.417 33.1358
75.5115 565.088 59.7688
88.9435 585.217 76.0865
116.885 565.511 76.0947
102.4 546.131 59.7782
90.6459 587.625 77.3036
106.648 611.591 82.995
135.844 590.994 83.0036
118.587 567.919 77.3119
108.495 614.204 82.9865
124.476 638.171 77.2773
154.933 616.679 77.2857
137.691 593.607 82.9951
126.178 640.581 76.0512
139.712 660.905 59.7817
171.244 638.652 59.7906
156.634 619.09 76.0595
141.011 662.746 57.5235
150.042 676.308 33.1426
182.292 653.547 33.1533
172.543 640.494 57.5324
150.744 677.302 30.1959
153.912 682.053 1.44031
186.413 659.114 1.45347
182.994 654.541 30.2065
153.912 682.052 -1.74742
150.753 677.291 -30.5021
183.002 654.53 -30.4866
186.414 659.113 -1.73426
150.052 676.295 -33.4487
141.031 662.722 -57.8267
172.562 640.47 -57.81
182.302 653.534 -33.4331
139.733 660.879 -60.0845
126.208 640.545 -76.3493
156.662 619.054 -76.3326
171.263 638.627 -60.0677
124.507 638.134 -77.5749
108.533 614.161 -83.2787
137.726 593.564 -83.2627
154.962 616.643 -77.5582
106.687 611.548 -83.2866
90.6878 587.58 -77.5909
118.627 567.874 -77.5753
135.881 590.95 -83.2707
88.9856 585.172 -76.3734
75.5535 565.044 -60.0536
102.44 546.087 -60.0402
116.925 565.465 -76.3579
74.2583 563.211 -57.7904
65.3317 549.834 -33.3705
91.5161 531.374 -33.3572
101.144 544.254 -57.777
64.6329 548.846 -30.4137
61.5094 544.19 -1.71235
87.45 525.904 -1.69918
90.8173 530.386 -30.4004
90.2884 523.789 1.49828
93.6411 528.31 30.1835
118.803 508.48 30.197
115.212 504.147 1.51151
94.3899 529.261 33.1371
103.997 542.142 57.5186
129.835 521.777 57.5302
119.551 509.431 33.1506
105.387 543.903 59.7793
119.872 563.282 76.0958
146.723 542.112 76.1044
131.225 523.538 59.791
121.7 565.596 77.3128
138.958 588.671 83.0045
167.014 566.541 83.0122
148.552 544.425 77.3214
140.941 591.181 82.996
158.183 614.254 77.2866
187.45 591.162 77.2936
168.998 569.051 83.0036
160.011 616.568 76.0604
174.621 636.131 59.7914
204.919 612.22 59.7984
189.278 593.477 76.0674
176.018 637.899 57.5334
185.766 650.953 33.1543
216.752 626.493 33.1634
206.315 613.988 57.5404
186.521 651.908 30.2078
189.94 656.48 1.45474
221.166 631.829 1.46756
217.506 627.448 30.2169
189.94 656.48 -1.73265
186.529 651.896 -30.485
217.514 627.437 -30.4685
221.167 631.828 -1.71983
185.776 650.94 -33.4313
176.036 637.876 -57.8081
206.332 613.965 -57.7898
216.761 626.481 -33.4149
174.64 636.106 -60.0658
160.039 616.533 -76.3307
189.305 593.442 -76.3128
204.937 612.196 -60.0475
158.212 614.217 -77.5564
140.976 591.138 -83.2609
169.031 569.009 -83.2444
187.477 591.126 -77.5385
138.993 588.628 -83.269
121.74 565.551 -77.5736
148.589 544.38 -77.5588
167.048 566.498 -83.2525
119.912 563.237 -76.3564
105.427 543.859 -60.0386
131.262 523.493 -60.0271
146.761 542.066 -76.3415
104.035 542.098 -57.7757
94.4071 529.218 -33.3558
119.565 509.387 -33.3438
129.87 521.732 -57.7641
93.6564 528.269 -30.399
90.2891 523.787 -1.69776
115.212 504.144 -1.68454
118.815 508.438 -30.3871
117.933 501.881 1.51297
121.524 506.215 30.1984
145.587 485.067 30.2112
141.767 480.933 1.52546
122.323 507.124 33.152
132.606 519.469 57.5316
157.318 497.749 57.5428
146.386 485.976 33.1648
134.089 521.153 59.792
149.587 539.727 76.1054
175.271 517.149 76.1103
158.801 499.432 59.8032
151.537 541.939 77.322
169.999 564.055 83.0127
196.832 540.453 83.011
177.22 519.361 77.3268
172.113 566.454 83.0039
190.566 588.565 77.2939
218.553 563.934 77.2917
198.947 542.853 83.0023
192.515 590.778 76.0678
208.156 609.521 59.7988
237.123 584.01 59.7984
220.502 566.146 76.0656
209.645 611.211 57.541
220.082 623.716 33.1639
249.702 597.616 33.1684
238.613 585.7 57.5407
220.886 624.628 30.2179
224.546 629.009 1.46864
254.396 602.702 1.481
250.507 598.528 30.2225
224.547 629.008 -1.71812
220.894 624.617 -30.4668
250.514 598.518 -30.4468
254.396 602.702 -1.70576
220.09 623.704 -33.4127
209.662 611.188 -57.7876
238.629 585.678 -57.7632
249.711 597.605 -33.3926
208.174 609.497 -60.0451
192.542 590.743 -76.3104
220.527 566.113 -76.2848
237.14 583.987 -60.0208
190.593 588.53 -77.5362
172.146 566.412 -83.2421
198.978 542.812 -83.2173
218.578 563.899 -77.5105
170.032 564.012 -83.2505
151.574 541.894 -77.5567
177.254 519.316 -77.5391
196.864 540.412 -83.2257
149.625 539.682 -76.34
134.125 521.108 -60.0256
158.834 499.388 -60.0153
175.306 517.104 -76.3224
132.642 519.425 -57.7629
122.337 507.08 -33.3426
146.396 485.931 -33.3317
157.351 497.704 -57.7526
121.536 506.173 -30.3857
117.934 501.879 -1.68321
141.768 480.931 -1.67072
145.595 485.024 -30.3748
144.363 478.525 1.52673
148.183 482.658 30.2125
171.069 460.242 30.2202
167.027 456.319 1.53866
149.03 483.523 33.1656
159.962 495.296 57.5436
183.476 472.279 57.5403
171.916 461.107 33.1733
161.533 496.898 59.8029
178.003 514.614 76.11
202.45 490.697 76.0868
185.047 473.881 59.7995
180.067 516.718 77.3245
199.679 537.811 83.0088
225.197 512.793 82.9473
204.513 492.802 77.3013
201.917 540.092 82.9984
221.523 561.173 77.2879
248.115 535.038 77.2131
227.436 515.075 82.9369
223.587 563.275 76.0617
240.208 581.139 59.7945
267.71 554.05 59.7317
250.179 537.14 75.987
241.785 582.744 57.5382
252.875 594.66 33.166
280.984 566.933 33.1353
269.287 555.655 57.4753
253.726 595.526 30.2224
257.615 599.7 1.48094
285.937 571.75 1.49285
281.836 567.8 30.1917
257.615 599.7 -1.70302
253.733 595.516 -30.4441
281.843 567.79 -30.3897
285.938 571.749 -1.69111
252.883 594.649 -33.3875
241.8 582.721 -57.7581
269.301 555.634 -57.6719
280.992 566.922 -33.3331
240.225 581.115 -60.0143
223.611 563.241 -76.2783
250.201 537.108 -76.1807
267.726 554.028 -59.9281
221.548 561.138 -77.5041
201.948 540.051 -83.2109
227.464 515.034 -83.1273
248.138 535.005 -77.4065
199.71 537.769 -83.2209
180.101 516.674 -77.5343
204.545 492.758 -77.4896
225.226 512.753 -83.1373
178.038 514.569 -76.3197
161.567 496.853 -60.0126
185.078 473.836 -59.9884
202.482 490.653 -76.2749
159.994 495.251 -57.751
149.04 483.478 -33.33
171.922 461.063 -33.3149
183.505 472.234 -57.7268
148.191 482.615 -30.3734
144.363 478.522 -1.66933
167.027 456.317 -1.65739
171.074 460.2 -30.3582
169.488 453.773 1.53973
173.53 457.696 30.2213
195.16 434.064 30.2282
190.907 430.362 1.5512
174.423 458.514 33.1735
185.983 469.686 57.5405
208.21 445.418 57.5356
196.054 434.882 33.1805
187.64 471.201 59.7981
205.042 488.018 76.0854
228.168 462.784 76.0609
209.866 446.933 59.7932
207.216 490.007 77.2967
227.9 509.999 82.9427
252.062 483.582 82.8836
230.341 464.773 77.2722
230.255 512.153 82.9295
250.934 532.116 77.2056
276.123 504.513 77.1342
254.417 485.736 82.8704
253.105 534.1 75.9794
270.637 551.009 59.7242
296.695 522.396 59.6647
278.294 506.497 75.908
272.296 552.524 57.4702
283.993 563.802 33.1302
310.631 534.514 33.1014
298.354 523.91 57.4107
284.889 564.619 30.1907
288.991 568.569 1.49183
315.832 539.045 1.50331
311.527 535.331 30.1619
288.991 568.569 -1.68749
284.896 564.61 -30.3861
311.533 535.322 -30.3345
315.832 539.044 -1.67601
284.001 563.791 -33.3255
272.31 552.503 -57.6643
298.367 523.89 -57.5823
310.638 534.503 -33.2738
270.652 550.987 -59.918
253.128 534.067 -76.1706
278.315 506.466 -76.0772
296.709 522.375 -59.836
250.957 532.083 -77.3965
230.283 512.113 -83.1173
254.443 485.697 -83.0369
276.144 504.481 -77.3031
227.929 509.958 -83.1303
207.247 489.964 -77.4826
230.37 464.73 -77.4373
252.088 483.543 -83.0499
205.074 487.974 -76.2712
187.67 471.157 -59.9847
209.894 446.89 -59.9597
228.197 462.741 -76.2259
186.012 469.642 -57.7246
174.429 458.47 -33.3127
196.056 434.838 -33.2977
208.236 445.374 -57.6996
173.535 457.654 -30.3568
169.488 453.77 -1.65591
190.908 430.36 -1.64444
195.161 434.022 -30.3417
193.226 427.685 1.55228
197.479 431.386 30.2293
217.781 406.596 30.239
213.333 403.131 1.56318
198.416 432.156 33.181
210.572 442.691 57.5361
231.428 417.227 57.5422
218.718 407.366 33.1906
212.309 444.115 59.7926
230.61 459.965 76.0602
252.3 433.482 76.0601
233.165 418.651 59.7986
232.888 461.832 77.2698
254.609 480.641 82.8812
277.289 452.945 82.8799
254.578 435.349 77.2697
257.076 482.662 82.8668
278.782 501.439 77.1306
302.452 472.526 77.1316
279.756 454.965 82.8654
281.057 503.3 75.9045
299.458 519.198 59.6611
323.969 489.248 59.6649
304.727 474.386 75.9055
301.195 520.618 57.4085
313.473 531.221 33.0992
338.543 500.577 33.1057
325.706 490.667 57.4123
314.411 531.987 30.1619
318.716 535.701 1.50331
343.981 504.814 1.51412
339.481 501.343 30.1684
318.716 535.701 -1.67353
314.417 531.978 -30.332
339.487 501.335 -30.317
343.981 504.814 -1.66272
313.48 531.211 -33.2692
301.209 520.598 -57.5777
325.718 490.649 -57.5603
338.549 500.568 -33.2542
299.472 519.178 -59.8301
281.077 503.269 -76.0713
304.746 474.356 -76.0516
323.982 489.228 -59.8127
278.803 501.407 -77.2972
257.102 482.623 -83.0309
279.78 454.928 -83.0093
302.471 472.495 -77.2774
254.635 480.602 -83.0452
232.917 461.789 -77.4326
254.604 435.308 -77.4129
277.313 452.907 -83.0236
230.638 459.922 -76.2231
212.336 444.071 -59.9568
233.189 418.609 -59.9436
252.326 433.441 -76.2033
210.598 442.648 -57.6978
198.418 432.112 -33.2959
218.716 407.323 -33.2847
231.451 417.185 -57.6846
197.48 431.345 -30.3404
193.226 427.683 -1.64308
213.333 403.129 -1.63219
217.778 406.556 -30.3292
215.501 400.329 1.56428
219.95 403.795 30.2401
238.867 377.92 30.2492
234.236 374.7 1.57446
220.927 404.512 33.1915
233.637 414.374 57.543
253.071 387.797 57.549
239.844 378.638 33.2006
235.448 415.701 59.799
254.583 430.533 76.0605
274.792 402.898 76.0632
254.882 389.125 59.805
256.96 432.273 77.2699
279.67 449.869 82.8801
300.8 420.975 82.8846
277.168 404.638 77.2726
282.244 451.751 82.8658
304.94 469.312 77.1319
326.995 439.151 77.1391
303.374 422.857 82.8703
307.313 471.044 75.9061
326.555 485.906 59.6655
349.398 454.665 59.6743
329.368 440.884 75.9133
328.367 487.228 57.413
341.204 497.138 33.1065
364.573 465.174 33.1159
351.211 455.986 57.4219
342.183 497.851 30.1694
346.683 501.322 1.51513
370.236 469.105 1.52526
365.552 465.887 30.1789
346.683 501.322 -1.66141
342.188 497.843 -30.3157
365.557 465.879 -30.305
370.236 469.104 -1.65128
341.21 497.129 -33.2527
328.379 487.21 -57.5587
351.222 455.969 -57.5478
364.579 465.165 -33.242
326.567 485.887 -59.811
307.332 471.015 -76.0499
329.385 440.856 -76.0376
349.41 454.647 -59.8001
304.959 469.282 -77.2756
282.268 451.715 -83.0074
303.395 422.822 -82.9929
327.013 439.123 -77.2633
279.694 449.831 -83.0216
256.986 432.232 -77.4109
277.191 404.599 -77.3952
300.822 420.939 -83.0071
254.609 430.492 -76.2016
235.472 415.659 -59.9419
254.903 389.085 -59.9298
274.815 402.858 -76.1859
233.659 414.332 -57.6833
220.925 404.47 -33.2834
239.839 378.597 -33.273
253.09 387.757 -57.6713
219.947 403.755 -30.328
215.501 400.327 -1.63099
234.236 374.698 -1.62081
238.861 377.881 -30.3176
236.249 371.783 1.57547
240.879 375.003 30.2502
258.358 348.118 30.2585
253.559 345.151 1.58488
241.894 375.667 33.2014
255.12 384.826 57.5497
273.075 357.217 57.5543
259.373 348.781 33.2097
257.001 386.054 59.8053
276.911 399.827 76.0636
295.579 371.125 76.0649
274.956 358.445 59.8099
279.377 401.436 77.2729
303.01 417.773 82.8849
322.527 387.77 82.8879
298.046 372.734 77.2743
305.682 419.513 82.8709
329.303 435.807 77.1397
349.676 404.489 77.146
325.199 389.51 82.8739
331.768 437.407 75.9141
351.798 451.187 59.6751
372.902 418.743 59.6835
352.141 406.089 75.9204
353.681 452.407 57.4228
367.043 461.594 33.1168
388.633 428.398 33.1259
374.784 419.963 57.4313
368.059 462.253 30.1799
372.743 465.47 1.52631
394.504 432.011 1.53576
389.65 429.056 30.189
372.743 465.47 -1.65017
368.065 462.245 -30.3039
389.655 429.05 -30.2942
394.504 432.01 -1.64072
367.049 461.586 -33.2408
353.692 452.39 -57.5466
374.795 419.948 -57.5366
388.639 428.391 -33.2312
351.81 451.17 -59.7988
331.785 437.379 -76.0363
352.156 406.063 -76.0246
372.913 418.727 -59.7888
329.321 435.778 -77.2618
305.703 419.478 -82.9914
325.218 389.477 -82.9768
349.692 404.462 -77.2501
303.031 417.737 -83.0054
279.401 401.397 -77.3935
298.066 372.698 -77.3778
322.546 387.736 -82.9907
276.934 399.788 -76.1843
257.021 386.014 -59.9283
274.973 358.407 -59.9162
295.599 371.089 -76.1686
255.139 384.786 -57.67
241.888 375.626 -33.2717
259.364 348.743 -33.2619
273.091 357.179 -57.6579
240.873 374.964 -30.3165
236.248 371.781 -1.61969
253.558 345.149 -1.61027
258.348 348.081 -30.3067
255.409 342.127 1.58578
260.209 345.093 30.2594
276.198 317.273 30.2667
271.244 314.567 1.59422
261.257 345.701 33.2102
274.96 354.137 57.5549
291.384 325.576 57.5577
277.247 317.882 33.2175
276.904 355.262 59.8101
297.527 367.943 76.0651
314.6 338.262 76.0642
293.328 326.702 59.8129
300.077 369.417 77.2744
324.558 384.452 82.888
342.406 353.433 82.8886
317.15 339.737 77.2735
327.321 386.044 82.8743
351.798 401.023 77.1464
370.429 368.644 77.1511
345.169 355.025 82.8748
354.347 402.486 75.9211
375.108 415.14 59.6843
394.409 381.591 59.6918
372.978 370.106 75.9257
377.055 416.254 57.4322
390.904 424.689 33.1268
410.652 390.358 33.1352
396.356 382.704 57.4397
391.955 425.29 30.19
396.81 428.244 1.53674
416.713 393.641 1.54534
411.703 390.959 30.1983
396.81 428.244 -1.6397
391.961 425.283 -30.2932
411.708 390.954 -30.2845
416.713 393.641 -1.6311
390.91 424.682 -33.2301
377.065 416.239 -57.5355
396.366 382.691 -57.5263
410.657 390.352 -33.2214
375.119 415.124 -59.7876
354.362 402.46 -76.0234
372.992 370.082 -76.0116
394.419 381.576 -59.7784
351.814 400.997 -77.2486
327.34 386.012 -82.9753
345.186 354.995 -82.9598
370.444 368.619 -77.2368
324.577 384.419 -82.989
300.097 369.381 -77.376
317.168 339.703 -77.3597
342.423 353.402 -82.9736
297.547 367.906 -76.1669
276.921 355.225 -59.9145
293.342 326.667 -59.9024
314.618 338.229 -76.1506
274.976 354.1 -57.6566
261.248 345.663 -33.2606
277.234 317.846 -33.2517
291.397 325.542 -57.6445
260.198 345.056 -30.3056
255.409 342.125 -1.60922
271.244 314.565 -1.60078
276.185 317.239 -30.2967
272.927 311.443 1.59497
277.881 314.149 30.2674
292.335 285.473 30.2735
287.241 283.029 1.60246
278.961 314.701 33.2178
293.098 322.396 57.558
307.943 292.968 57.5586
293.415 286.025 33.2239
295.099 323.417 59.8127
316.372 334.977 76.064
331.801 304.41 76.0604
309.944 293.988 59.8133
318.997 336.313 77.2733
344.252 350.01 82.8884
360.378 318.072 82.8859
334.426 305.746 77.2697
347.098 351.45 82.875
372.358 365.068 77.1512
389.193 331.725 77.1542
363.224 319.512 82.8725
374.984 366.388 75.9263
396.415 377.873 59.6924
413.858 343.318 59.6991
391.819 333.045 75.9293
398.421 378.876 57.4405
412.717 386.53 33.136
430.563 351.168 33.1437
415.864 344.321 57.4473
413.8 387.072 30.1992
418.81 389.754 1.54624
436.797 354.111 1.55402
431.646 351.71 30.207
418.81 389.754 -1.63019
413.805 387.067 -30.2836
431.651 351.706 -30.2759
436.797 354.111 -1.6224
412.722 386.524 -33.2204
398.431 378.863 -57.5253
415.873 344.309 -57.517
430.568 351.163 -33.2127
396.425 377.858 -59.7772
374.998 366.364 -76.0104
391.832 333.023 -75.9986
413.867 343.305 -59.7688
372.373 365.044 -77.2353
347.115 351.42 -82.9583
363.239 319.484 -82.9417
389.207 331.703 -77.2235
344.27 349.979 -82.9717
319.015 336.28 -77.3578
334.441 305.716 -77.3403
360.394 318.043 -82.9551
316.389 334.944 -76.1488
295.114 323.382 -59.9006
309.956 293.957 -59.888
331.816 304.38 -76.1313
293.111 322.362 -57.6432
278.948 314.666 -33.2504
293.399 285.992 -33.2422
307.953 292.936 -57.6305
277.868 314.115 -30.2957
272.927 311.441 -1.5998
287.241 283.027 -1.59232
292.318 285.441 -30.2875
288.752 279.814 1.60307
293.846 282.257 30.2741
306.721 252.8 30.2791
301.504 250.62 1.60963
294.954 282.753 33.224
309.482 289.696 57.5586
322.706 259.485 57.5565
307.829 253.295 33.2289
311.534 290.611 59.8128
333.391 301.032 76.06
347.13 269.673 76.0532
324.758 260.4 59.8107
336.083 302.227 77.2691
362.036 314.554 82.8854
376.395 281.798 82.8796
349.823 270.868 77.2624
364.955 315.838 82.8724
390.925 328.051 77.1541
405.918 293.845 77.1555
379.315 283.082 82.8667
393.62 329.223 75.9297
415.658 339.496 59.6996
431.194 304.038 59.706
408.612 295.017 75.9312
417.717 340.386 57.4481
432.417 347.233 33.1445
448.311 310.945 33.1518
433.253 304.928 57.4545
433.528 347.714 30.2078
438.679 350.115 1.55486
454.698 313.539 1.56185
449.422 311.426 30.2151
438.679 350.114 -1.6216
433.533 347.709 -30.2751
449.427 311.422 -30.2685
454.698 313.538 -1.61461
432.422 347.228 -33.2119
417.726 340.374 -57.5161
433.261 304.918 -57.509
448.316 310.941 -33.2053
415.668 339.483 -59.7677
393.633 329.201 -75.9975
408.625 294.997 -75.9858
431.203 304.027 -59.7605
390.938 328.028 -77.2218
364.971 315.81 -82.94
379.329 283.056 -82.9218
405.93 293.824 -77.2102
362.051 314.525 -82.9531
336.099 302.198 -77.3383
349.837 270.841 -77.3193
376.409 281.771 -82.9348
333.406 301.002 -76.1294
311.546 290.58 -59.8861
324.767 260.372 -59.8723
347.144 269.646 -76.1104
309.492 289.665 -57.6291
294.937 282.72 -33.2408
307.811 253.267 -33.2332
322.714 259.457 -57.6153
293.829 282.227 -30.2866
288.751 279.812 -1.5914
301.503 250.618 -1.58483
306.702 252.773 -30.2789
302.838 247.322 1.61008
308.056 249.502 30.2795
319.318 219.34 30.2831
313.99 217.42 1.61568
309.189 249.941 33.2286
324.065 256.131 57.5563
335.631 225.224 57.5505
320.45 219.779 33.2322
326.162 256.94 59.8098
348.534 266.213 76.0523
360.547 234.162 76.0415
337.728 226.033 59.804
351.286 267.266 77.2615
377.858 278.196 82.8787
390.412 244.725 82.8687
363.299 235.215 77.2507
380.843 279.32 82.8662
407.446 290.083 77.1551
420.557 255.117 77.1555
393.398 245.849 82.8563
410.202 291.103 75.9315
432.784 300.124 59.7063
446.369 263.867 59.7129
423.313 256.137 75.9319
434.889 300.897 57.4552
449.947 306.914 33.1525
463.844 269.808 33.1595
448.475 264.64 57.4618
451.084 307.332 30.2159
456.359 309.445 1.56263
470.364 272.046 1.56868
464.981 270.226 30.2228
456.359 309.445 -1.61394
451.089 307.329 -30.2679
464.986 270.225 -30.2629
470.364 272.046 -1.60789
449.953 306.91 -33.2047
434.898 300.887 -57.5083
448.483 264.632 -57.5034
463.85 269.806 -33.1997
432.793 300.113 -59.7595
410.215 291.083 -75.9848
423.325 256.118 -75.974
446.378 263.858 -59.7545
407.459 290.063 -77.2084
380.858 279.294 -82.92
393.411 245.826 -82.8992
420.569 255.098 -77.1976
377.872 278.17 -82.9326
351.3 267.24 -77.3171
363.312 235.192 -77.2959
390.426 244.701 -82.9118
348.547 266.187 -76.1083
326.171 256.913 -59.8701
337.736 226.011 -59.8541
360.559 234.139 -76.087
324.072 256.104 -57.6138
309.17 249.913 -33.2316
320.429 219.755 -33.2245
335.637 225.201 -57.5978
308.036 249.475 -30.2781
302.837 247.321 -1.58395
313.989 217.418 -1.57835
319.296 219.317 -30.2709
315.144 214.047 1.61594
320.472 215.968 30.2834
330.09 185.174 30.2851
324.666 183.505 1.62061
321.626 216.352 33.2315
336.806 221.796 57.5497
346.686 190.282 57.5379
331.244 185.558 33.2332
338.942 222.501 59.8024
361.761 230.63 76.0399
372.018 197.995 76.0221
348.822 190.988 59.7906
364.565 231.541 77.2492
391.678 241.051 82.8672
402.397 206.972 82.851
374.821 198.906 77.2313
394.72 242.011 82.8555
421.879 251.279 77.1547
433.076 215.653 77.1555
405.439 207.932 82.8393
424.688 252.142 75.9323
447.744 259.872 59.7133
459.343 222.922 59.7206
435.885 216.516 75.933
449.89 260.525 57.4626
465.26 265.693 33.1602
477.119 227.881 33.1665
461.489 223.575 57.4699
466.417 266.048 30.2235
471.8 267.868 1.56938
483.751 229.76 1.57439
478.277 228.235 30.2297
471.801 267.868 -1.60737
466.422 266.046 -30.2624
478.283 228.236 -30.2589
483.751 229.76 -1.60237
465.265 265.692 -33.1993
449.898 260.518 -57.503
461.498 223.57 -57.5009
477.125 227.881 -33.1958
447.753 259.863 -59.7537
424.7 252.123 -75.9732
435.897 216.499 -75.9649
459.353 222.916 -59.7517
421.892 251.26 -77.1958
394.733 241.988 -82.8974
405.453 207.911 -82.8723
433.089 215.636 -77.1875
391.691 241.028 -82.9092
364.577 231.518 -77.2933
374.833 198.886 -77.2667
402.411 206.951 -82.8842
361.773 230.607 -76.0844
338.95 222.479 -59.8515
348.829 190.971 -59.8309
372.03 197.976 -76.0578
336.812 221.774 -57.596
321.605 216.328 -33.2226
331.221 185.539 -33.2152
346.691 190.266 -57.5754
320.45 215.945 -30.27
315.143 214.046 -1.57746
324.664 183.504 -1.57279
330.067 185.157 -30.2626
325.637 180.066 1.62052
331.061 181.735 30.285
339.017 150.381 30.2806
333.511 148.948 1.6243
332.233 182.066 33.2314
347.676 186.791 57.5362
355.852 154.76 57.5098
340.189 150.712 33.227
349.843 187.396 59.7875
373.039 194.403 76.0189
381.521 161.303 75.9797
358.02 155.365 59.7611
375.886 195.171 77.2286
403.462 203.238 82.8482
412.324 168.655 82.8202
384.368 162.071 77.1893
406.552 204.03 82.8381
434.189 211.75 77.1543
443.443 175.563 77.1551
415.414 169.447 82.81
437.041 212.451 75.9334
460.5 218.857 59.721
470.076 181.319 59.7256
446.296 176.264 75.9342
462.678 219.389 57.4706
478.309 223.694 33.1671
488.089 185.286 33.1694
472.254 181.851 57.4752
479.484 223.984 30.2302
484.957 225.509 1.57491
494.809 186.804 1.57859
489.264 185.577 30.2325
484.958 225.509 -1.60194
479.489 223.986 -30.2584
489.271 185.581 -30.2537
494.809 186.804 -1.59826
478.315 223.695 -33.1955
462.688 219.384 -57.5006
472.266 181.848 -57.4988
488.096 185.29 -33.1908
460.51 218.851 -59.7512
437.054 212.435 -75.9644
446.31 176.249 -75.9587
470.088 181.316 -59.7493
434.202 211.733 -77.1853
406.566 204.008 -82.8702
415.429 169.427 -82.8354
443.458 175.547 -77.1797
403.476 203.217 -82.8805
375.898 195.152 -77.263
384.381 162.056 -77.2165
412.339 168.636 -82.8457
373.051 194.384 -76.0537
349.85 187.38 -59.8269
358.028 155.356 -59.793
381.534 161.288 -76.0072
347.681 186.775 -57.5728
332.21 182.048 -33.2125
340.167 150.702 -33.2005
355.858 154.751 -57.5388
331.038 181.718 -30.2615
325.636 180.065 -1.57174
333.51 148.947 -1.56796
338.994 150.371 -30.2495
334.301 145.45 1.62294
339.808 146.883 30.2793
346.148 115.049 30.24
340.578 113.832 1.62574
340.994 147.166 33.2217
356.657 151.214 57.5045
363.159 118.768 57.4132
347.334 115.331 33.1824
358.849 151.726 59.7522
382.35 157.663 75.9708
389.068 124.236 75.8369
365.352 119.28 59.661
385.231 158.29 77.1816
413.187 164.874 82.8125
420.17 129.881 82.7303
391.949 124.863 77.0477
416.314 165.49 82.8059
444.343 171.606 77.1509
451.603 134.946 77.1122
423.296 130.496 82.7237
447.228 172.141 75.9322
471.008 177.196 59.7237
478.48 139.168 59.6855
454.488 135.481 75.8935
473.211 177.604 57.4738
489.045 181.04 33.1679
496.649 142.14 33.1424
480.682 139.576 57.4357
490.233 181.266 30.232
495.778 182.493 1.57814
503.43 143.297 1.57945
497.837 142.366 30.2065
495.778 182.493 -1.59727
490.24 181.27 -30.2527
497.847 142.373 -30.2247
503.43 143.297 -1.59596
489.053 181.044 -33.1888
473.222 177.602 -57.4968
480.698 139.577 -57.4559
496.66 142.147 -33.1608
471.02 177.193 -59.7468
447.243 172.126 -75.9562
454.506 135.466 -75.9136
478.496 139.168 -59.7059
444.358 171.59 -77.1749
416.329 165.471 -82.8306
423.314 130.479 -82.7433
451.621 134.931 -77.1322
413.203 164.855 -82.8373
385.245 158.275 -77.2081
391.965 124.852 -77.0679
420.188 129.864 -82.75
382.363 157.649 -75.9976
358.857 151.717 -59.7833
365.363 119.281 -59.6845
389.084 124.226 -75.8574
356.662 151.206 -57.5327
340.971 147.156 -33.1943
347.315 115.333 -33.1484
363.169 118.77 -57.4338
339.785 146.874 -30.2473
334.3 145.45 -1.5658
340.576 113.832 -1.56301
346.128 115.05 -30.2014
341.214 110.291 1.61795
346.785 111.508 30.2322
351.949 79.3547 30.0037
346.379 78.3302 1.61815
347.976 111.748 33.1588
363.802 115.184 57.3896
368.965 82.5052 56.9418
353.141 79.5941 32.9303
366.003 115.612 59.6244
389.719 120.568 75.8003
394.852 86.989 75.1855
371.167 82.9332 59.1766
392.614 121.05 77.0107
420.835 126.068 82.6933
425.899 90.7257 82.1727
397.747 87.4711 76.3958
423.972 126.496 82.6919
452.279 130.946 77.0804
457.301 93.8638 76.5778
429.036 91.1534 82.1713
455.174 131.31 75.8663
479.166 134.997 59.6583
484.125 96.5335 59.2491
460.196 94.2281 75.3636
481.376 135.281 57.4164
497.343 137.844 33.1231
502.3 98.5065 32.8938
486.336 96.8167 57.0072
498.536 138.006 30.1993
504.129 138.937 1.5722
509.091 99.3024 1.56185
503.493 98.6677 29.9699
504.129 138.937 -1.58947
498.546 138.014 -30.2182
503.501 98.6787 -30.0005
509.092 99.3031 -1.59983
497.354 137.853 -33.1413
481.392 135.282 -57.4365
486.362 96.8216 -57.0151
502.309 98.518 -32.9236
479.182 134.997 -59.6778
455.193 131.296 -75.8854
460.223 94.2155 -75.3699
484.152 96.5367 -59.2564
452.297 130.931 -77.0996
423.991 126.479 -82.7107
429.063 91.1389 -82.1808
457.328 93.8503 -76.5841
420.854 126.052 -82.7122
392.631 121.04 -77.0301
397.772 87.4653 -76.4091
425.926 90.7115 -82.1823
389.736 120.559 -75.82
366.015 115.614 -59.6471
371.188 82.9469 -59.19
394.877 86.9844 -75.199
363.812 115.187 -57.4095
347.958 111.75 -33.124
353.132 79.6109 -32.8912
368.985 82.5199 -56.9523
346.765 111.51 -30.1931
341.214 110.292 -1.55472
346.378 78.3307 -1.55451
351.939 79.371 -29.9603
347.067 74.8113 1.57479
352.637 75.8358 29.9603
359.801 44.1964 28.6567
354.493 43.3136 1.57228
353.8 76.0398 32.8078
369.624 78.9509 56.8193
376.049 46.907 54.4373
360.964 44.4004 31.5042
371.772 79.3117 58.9939
395.457 83.3675 75.0028
400.798 50.7596 71.9348
378.196 47.2678 56.612
398.263 83.7592 76.1821
426.415 87.0138 81.959
430.387 54.4611 78.5751
403.603 51.1513 73.1142
429.473 87.3487 81.9657
457.738 90.0591 76.3721
460.31 57.5765 73.1358
433.445 54.7961 78.5817
460.568 90.3397 75.1913
484.497 92.6451 59.0767
485.898 60.1541 56.5956
463.14 57.8571 71.955
486.663 92.8644 56.8932
502.627 94.5542 32.7798
503.307 61.9915 31.4403
488.063 60.3734 54.4121
503.799 94.6798 29.9292
509.397 95.3146 1.52111
509.83 62.6958 1.50851
504.479 62.1171 28.5897
509.397 95.3145 -1.56147
503.806 94.6901 -29.9621
504.476 62.0954 -28.6354
509.83 62.6956 -1.57407
502.636 94.5643 -32.8096
486.689 92.8679 -56.901
488.091 60.3528 -54.4069
503.306 61.9697 -31.4828
484.525 92.6479 -59.0826
460.596 90.3267 -75.1961
463.171 57.8447 -71.9514
485.927 60.1327 -56.5885
457.766 90.0459 -76.3774
429.501 87.3345 -81.9741
433.476 54.7864 -78.5843
460.34 57.564 -73.1327
426.443 87.0001 -81.968
398.288 83.7539 -76.1947
403.631 51.1526 -73.1239
430.418 54.452 -78.5782
395.482 83.364 -75.0158
371.794 79.3265 -59.0068
378.217 47.2981 -56.6264
400.825 50.7627 -71.945
369.644 78.9671 -56.8296
353.791 76.0581 -32.7685
360.952 44.434 -31.4697
376.068 46.9386 -54.4492
352.627 75.8529 -29.917
347.066 74.8126 -1.51125
354.493 43.3149 -1.51376
359.788 44.2287 -28.6183
355.35 39.8427 1.48786
360.657 40.7256 28.5723
368.666 9.63712 26.8416
363.679 8.88428 1.48166
361.758 40.9009 31.2652
376.843 43.4074 54.1984
383.933 11.9727 51.0092
369.766 9.81241 29.5345
378.875 43.719 56.2566
401.477 47.2109 71.5794
407.173 15.332 67.4158
385.965 12.2843 53.0673
404.132 47.5719 72.6952
430.915 50.8817 78.1561
434.901 18.8438 73.6171
409.829 15.6931 68.5315
433.799 51.2154 78.1564
460.664 53.9958 72.7105
462.896 21.9413 68.503
437.785 19.1775 73.6174
463.332 54.277 71.5899
486.09 56.574 56.2306
486.791 24.4878 52.9619
465.564 22.2224 67.3825
488.131 56.7893 54.1668
503.375 58.4074 31.195
503.01 26.2468 29.4075
488.833 24.7031 50.8981
504.48 58.5262 28.5033
509.831 59.1048 1.4221
509.083 26.891 1.43173
504.114 26.3656 26.7158
509.831 59.1028 -1.48771
504.476 58.5027 -28.549
504.109 26.3165 -26.7462
509.083 26.8891 -1.47808
503.373 58.3821 -31.237
488.158 56.7652 -54.1611
488.851 24.6588 -50.8901
503.006 26.1959 -29.4342
486.119 56.5514 -56.2228
463.362 54.2634 -71.5857
465.587 22.2091 -67.3789
486.812 24.445 -52.9518
460.695 53.9835 -72.7069
433.83 51.206 -78.1585
437.808 19.1707 -73.6176
462.919 21.9292 -68.5001
430.946 50.8731 -78.1588
404.16 47.5736 -72.7045
409.849 15.6978 -68.5365
434.924 18.8378 -73.6179
401.504 47.2149 -71.5894
378.895 43.7503 -56.2708
385.975 12.3279 -53.0788
407.193 15.3391 -67.4214
376.861 43.4408 -54.2106
361.745 40.9361 -31.2312
369.75 9.86297 -29.5093
383.941 12.0184 -51.0186
360.644 40.7588 -28.5347
355.349 39.8449 -1.43021
363.678 8.88647 -1.43642
368.649 9.68559 -26.8129
364.724 5.65593 1.35264
369.711 6.40877 26.7126
380.244 -21.0336 23.784
375.821 -21.6551 1.33223
370.719 6.55577 29.1711
384.885 8.71608 50.6458
393.851 -19.1276 45.2729
381.252 -20.8866 26.2425
386.747 8.98018 52.5239
407.955 12.0279 66.8724
414.596 -16.3368 59.8203
395.712 -18.8635 47.151
410.383 12.3523 67.886
435.455 15.503 72.9716
439.26 -13.0656 65.2241
417.023 -16.0125 60.8339
438.083 15.8306 72.9689
463.194 18.5944 67.8545
464.07 -9.8087 60.6961
441.887 -12.738 65.2214
465.624 18.8847 66.8337
486.851 21.1501 52.4132
485.261 -7.0452 46.9556
466.5 -9.51843 59.6754
488.71 21.3716 50.5321
502.886 22.9153 29.0415
499.632 -5.17582 26.111
487.12 -6.82365 45.0746
503.891 23.0348 26.5889
508.86 23.5603 1.30483
505.026 -4.47866 1.32573
500.637 -5.0563 23.6584
508.86 23.5587 -1.34749
503.887 22.9862 -26.6156
500.637 -5.05867 -23.6592
505.026 -4.4802 -1.32659
502.882 22.8651 -29.0673
488.727 21.3279 -50.5232
487.12 -6.82757 -45.0747
499.632 -5.17977 -26.1109
486.869 21.108 -52.4037
465.644 18.8721 -66.8308
466.5 -9.52055 -59.6751
485.261 -7.04754 -46.9552
463.215 18.5828 -67.8517
438.104 15.8243 -72.9691
441.888 -12.739 -65.2212
464.071 -9.80979 -60.6959
435.476 15.4971 -72.972
410.402 12.3572 -67.8906
417.024 -16.0129 -60.8338
439.261 -13.0662 -65.224
407.974 12.0341 -66.877
386.755 9.02288 -52.5345
395.712 -18.8623 -47.1512
414.596 -16.3359 -59.8203
384.893 8.76056 -50.6558
370.702 6.60508 -29.1465
381.251 -20.8835 -26.2421
393.85 -19.1246 -45.2725
369.694 6.45656 -26.687
364.723 5.65745 -1.31054
375.821 -21.6536 -1.33095
380.243 -21.0321 -23.7827
-376.497 682.036 25.459
-376.938 676.893 -0.303982
-376.449 682.027 -26.0674
-375.177 696.622 -47.8522
-373.472 718.407 -62.3541
-371.797 744.067 -67.4488
-370.457 769.771 -62.3951
-369.47 791.625 -47.8887
-368.813 806.247 -26.0901
-368.582 811.388 -0.341164
-368.836 806.264 25.4105
-369.503 791.652 47.2155
-370.497 769.807 61.7326
-371.842 744.107 66.8006
-373.515 718.444 61.7199
-375.23 696.648 47.235
382.635 -22.3863 1.76393e-05
387.057 -21.7648 22.4517
399.656 -20.0058 41.4821
418.54 -17.4792 54.1513
440.777 -14.5323 58.5415
462.96 -11.603 54.0162
481.721 -9.1298 41.2965
494.234 -7.48197 22.3329
498.623 -6.90434 0.000247942
494.233 -7.48281 -22.3323
481.721 -9.13061 -41.2962
462.96 -11.6036 -54.016
440.777 -14.5328 -58.5413
418.54 -17.4795 -54.1511
399.656 -20.0059 -41.482
387.057 -21.7648 -22.4517
</DataArray>
</Points>
<Cells>
<DataArray type="Int32" Name="connectivity" format="ascii">
0 1 2 3 
4 5 6 7 
8 9 10 11 
12 13 14 15 
16 17 18 19 
20 21 22 23 
24 25 26 27 
28 29 30 31 
32 33 34 35 
36 37 38 39 
40 41 42 43 
44 45 46 47 
48 49 50 51 
52 53 54 55 
56 57 58 59 
60 61 62 63 
64 65 66 67 
68 69 70 71 
72 73 74 75 
76 77 78 79 
80 81 82 83 
84 85 86 87 
88 89 90 91 
92 93 94 95 
96 97 98 99 
100 101 102 103 
104 105 106 107 
108 109 110 111 
112 113 114 115 
116 117 118 119 
120 121 122 123 
124 125 126 127 
128 129 130 131 
132 133 134 135 
136 137 138 139 
140 141 142 143 
144 145 146 147 
148 149 150 151 
152 153 154 155 
156 157 158 159 
160 161 162 163 
164 165 166 167 
168 169 170 171 
172 173 174 175 
176 177 178 179 
180 181 182 183 
184 185 186 187 
188 189 190 191 
192 193 194 195 
196 197 198 199 
200 201 202 203 
204 205 206 207 
208 209 210 211 
212 213 214 215 
216 217 218 219 
220 221 222 223 
224 225 226 227 
228 229 230 231 
232 233 234 235 
236 237 238 239 
240 241 242 243 
244 245 246 247 
248 249 250 251 
252 253 254 255 
256 257 258 259 
260 261 262 263 
264 265 266 267 
268 269 270 271 
272 273 274 275 
276 277 278 279 
280 281 282 283 
284 285 286 287 
288 289 290 291 
292 293 294 295 
296 297 298 299 
300 301 302 303 
304 305 306 307 
308 309 310 311 
312 313 314 315 
316 317 318 319 
320 321 322 323 
324 325 326 327 
328 329 330 331 
332 333 334 335 
336 337 338 339 
340 341 342 343 
344 345 346 347 
348 349 350 351 
352 353 354 355 
356 357 358 359 
360 361 362 363 
364 365 366 367 
368 369 370 371 
372 373 374 375 
376 377 378 379 
380 381 382 383 
384 385 386 387 
388 389 390 391 
392 393 394 395 
396 397 398 399 
400 401 402 403 
404 405 406 407 
408 409 410 411 
412 413 414 415 
416 417 418 419 
420 421 422 423 
424 425 426 427 
428 429 430 431 
432 433 434 435 
436 437 438 439 
440 441 442 443 
444 445 446 447 
448 449 450 451 
452 453 454 455 
456 457 458 459 
460 461 462 463 
464 465 466 467 
468 469 470 471 
472 473 474 475 
476 477 478 479 
480 481 482 483 
484 485 486 487 
488 489 490 491 
492 493 494 495 
496 497 498 499 
500 501 502 503 
504 505 506 507 
508 509 510 511 
512 513 514 515 
516 517 518 519 
520 521 522 523 
524 525 526 527 
528 529 530 531 
532 533 534 535 
536 537 538 539 
540 541 542 543 
544 545 546 547 
548 549 550 551 
552 553 554 555 
556 557 558 559 
560 561 562 563 
564 565 566 567 
568 569 570 571 
572 573 574 575 
576 577 578 579 
580 581 582 583 
584 585 586 587 
588 589 590 591 
592 593 594 595 
596 597 598 599 
600 601 602 603 
604 605 606 607 
608 609 610 611 
612 613 614 615 
616 617 618 619 
620 621 622 623 
624 625 626 627 
628 629 630 631 
632 633 634 635 
636 637 638 639 
640 641 642 643 
644 645 646 647 
648 649 650 651 
652 653 654 655 
656 657 658 659 
660 661 662 663 
664 665 666 667 
668 669 670 671 
672 673 674 675 
676 677 678 679 
680 681 682 683 
684 685 686 687 
688 689 690 691 
692 693 694 695 
696 697 698 699 
700 701 702 703 
704 705 706 707 
708 709 710 711 
712 713 714 715 
716 717 718 719 
720 721 722 723 
724 725 726 727 
728 729 730 731 
732 733 734 735 
736 737 738 739 
740 741 742 743 
744 745 746 747 
748 749 750 751 
752 753 754 755 
756 757 758 759 
760 761 762 763 
764 765 766 767 
768 769 770 771 
772 773 774 775 
776 777 778 779 
780 781 782 783 
784 785 786 787 
788 789 790 791 
792 793 794 795 
796 797 798 799 
800 801 802 803 
804 805 806 807 
808 809 810 811 
812 813 814 815 
816 817 818 819 
820 821 822 823 
824 825 826 827 
828 829 830 831 
832 833 834 835 
836 837 838 839 
840 841 842 843 
844 845 846 847 
848 849 850 851 
852 853 854 855 
856 857 858 859 
860 861 862 863 
864 865 866 867 
868 869 870 871 
872 873 874 875 
876 877 878 879 
880 881 882 883 
884 885 886 887 
888 889 890 891 
892 893 894 895 
896 897 898 899 
900 901 902 903 
904 905 906 907 
908 909 910 911 
912 913 914 915 
916 917 918 919 
920 921 922 923 
924 925 926 927 
928 929 930 931 
932 933 934 935 
936 937 938 939 
940 941 942 943 
944 945 946 947 
948 949 950 951 
952 953 954 955 
956 957 958 959 
960 961 962 963 
964 965 966 967 
968 969 970 971 
972 973 974 975 
976 977 978 979 
980 981 982 983 
984 985 986 987 
988 989 990 991 
992 993 994 995 
996 997 998 999 
1000 1001 1002 1003 
1004 1005 1006 1007 
1008 1009 1010 1011 
1012 1013 1014 1015 
1016 1017 1018 1019 
1020 1021 1022 1023 
1024 1025 1026 1027 
1028 1029 1030 1031 
1032 1033 1034 1035 
1036 1037 1038 1039 
1040 1041 1042 1043 
1044 1045 1046 1047 
1048 1049 1050 1051 
1052 1053 1054 1055 
1056 1057 1058 1059 
1060 1061 1062 1063 
1064 1065 1066 1067 
1068 1069 1070 1071 
1072 1073 1074 1075 
1076 1077 1078 1079 
1080 1081 1082 1083 
1084 1085 1086 1087 
1088 1089 1090 1091 
1092 1093 1094 1095 
1096 1097 1098 1099 
1100 1101 1102 1103 
1104 1105 1106 1107 
1108 1109 1110 1111 
1112 1113 1114 1115 
1116 1117 1118 1119 
1120 1121 1122 1123 
1124 1125 1126 1127 
1128 1129 1130 1131 
1132 1133 1134 1135 
1136 1137 1138 1139 
1140 1141 1142 1143 
1144 1145 1146 1147 
1148 1149 1150 1151 
1152 1153 1154 1155 
1156 1157 1158 1159 
1160 1161 1162 1163 
1164 1165 1166 1167 
1168 1169 1170 1171 
1172 1173 1174 1175 
1176 1177 1178 1179 
1180 1181 1182 1183 
1184 1185 1186 1187 
1188 1189 1190 1191 
1192 1193 1194 1195 
1196 1197 1198 1199 
1200 1201 1202 1203 
1204 1205 1206 1207 
1208 1209 1210 1211 
1212 1213 1214 1215 
1216 1217 1218 1219 
1220 1221 1222 1223 
1224 1225 1226 1227 
1228 1229 1230 1231 
1232 1233 1234 1235 
1236 1237 1238 1239 
1240 1241 1242 1243 
1244 1245 1246 1247 
1248 1249 1250 1251 
1252 1253 1254 1255 
1256 1257 1258 1259 
1260 1261 1262 1263 
1264 1265 1266 1267 
1268 1269 1270 1271 
1272 1273 1274 1275 
1276 1277 1278 1279 
1280 1281 1282 1283 
1284 1285 1286 1287 
1288 1289 1290 1291 
1292 1293 1294 1295 
1296 1297 1298 1299 
1300 1301 1302 1303 
1304 1305 1306 1307 
1308 1309 1310 1311 
1312 1313 1314 1315 
1316 1317 1318 1319 
1320 1321 1322 1323 
1324 1325 1326 1327 
1328 1329 1330 1331 
1332 1333 1334 1335 
1336 1337 1338 1339 
1340 1341 1342 1343 
1344 1345 1346 1347 
1348 1349 1350 1351 
1352 1353 1354 1355 
1356 1357 1358 1359 
1360 1361 1362 1363 
1364 1365 1366 1367 
1368 1369 1370 1371 
1372 1373 1374 1375 
1376 1377 1378 1379 
1380 1381 1382 1383 
1384 1385 1386 1387 
1388 1389 1390 1391 
1392 1393 1394 1395 
1396 1397 1398 1399 
1400 1401 1402 1403 
1404 1405 1406 1407 
1408 1409 1410 1411 
1412 1413 1414 1415 
1416 1417 1418 1419 
1420 1421 1422 1423 
1424 1425 1426 1427 
1428 1429 1430 1431 
1432 1433 1434 1435 
1436 1437 1438 1439 
1440 1441 1442 1443 
1444 1445 1446 1447 
1448 1449 1450 1451 
1452 1453 1454 1455 
1456 1457 1458 1459 
1460 1461 1462 1463 
1464 1465 1466 1467 
1468 1469 1470 1471 
1472 1473 1474 1475 
1476 1477 1478 1479 
1480 1481 1482 1483 
1484 1485 1486 1487 
1488 1489 1490 1491 
1492 1493 1494 1495 
1496 1497 1498 1499 
1500 1501 1502 1503 
1504 1505 1506 1507 
1508 1509 1510 1511 
1512 1513 1514 1515 
1516 1517 1518 1519 
1520 1521 1522 1523 
1524 1525 1526 1527 
1528 1529 1530 1531 
1532 1533 1534 1535 
1536 1537 1538 1539 
1540 1541 1542 1543 
1544 1545 1546 1547 
1548 1549 1550 1551 
1552 1553 1554 1555 
1556 1557 1558 1559 
1560 1561 1562 1563 
1564 1565 1566 1567 
1568 1569 1570 1571 
1572 1573 1574 1575 
1576 1577 1578 1579 
1580 1581 1582 1583 
1584 1585 1586 1587 
1588 1589 1590 1591 
1592 1593 1594 1595 
1596 1597 1598 1599 
1600 1601 1602 1603 
1604 1605 1606 1607 
1608 1609 1610 1611 
1612 1613 1614 1615 
1616 1617 1618 1619 
1620 1621 1622 1623 
1624 1625 1626 1627 
1628 1629 1630 1631 
1632 1633 1634 1635 
1636 1637 1638 1639 
1640 1641 1642 1643 
1644 1645 1646 1647 
1648 1649 1650 1651 
1652 1653 1654 1655 
1656 1657 1658 1659 
1660 1661 1662 1663 
1664 1665 1666 1667 
1668 1669 1670 1671 
1672 1673 1674 1675 
1676 1677 1678 1679 
1680 1681 1682 1683 
1684 1685 1686 1687 
1688 1689 1690 1691 
1692 1693 1694 1695 
1696 1697 1698 1699 
1700 1701 1702 1703 
1704 1705 1706 1707 
1708 1709 1710 1711 
1712 1713 1714 1715 
1716 1717 1718 1719 
1720 1721 1722 1723 
1724 1725 1726 1727 
1728 1729 1730 1731 
1732 1733 1734 1735 
1736 1737 1738 1739 
1740 1741 1742 1743 
1744 1745 1746 1747 
1748 1749 1750 1751 
1752 1753 1754 1755 
1756 1757 1758 1759 
1760 1761 1762 1763 
1764 1765 1766 1767 
1768 1769 1770 1771 
1772 1773 1774 1775 
1776 1777 1778 1779 
1780 1781 1782 1783 
1784 1785 1786 1787 
1788 1789 1790 1791 
1792 1793 1794 1795 
1796 1797 1798 1799 
1800 1801 1802 1803 
1804 1805 1806 1807 
1808 1809 1810 1811 
1812 1813 1814 1815 
1816 1817 1818 1819 
1820 1821 1822 1823 
1824 1825 1826 1827 
1828 1829 1830 1831 
1832 1833 1834 1835 
1836 1837 1838 1839 
1840 1841 1842 1843 
1844 1845 1846 1847 
1848 1849 1850 1851 
1852 1853 1854 1855 
1856 1857 1858 1859 
1860 1861 1862 1863 
1864 1865 1866 1867 
1868 1869 1870 1871 
1872 1873 1874 1875 
1876 1877 1878 1879 
1880 1881 1882 1883 
1884 1885 1886 1887 
1888 1889 1890 1891 
1892 1893 1894 1895 
1896 1897 1898 1899 
1900 1901 1902 1903 
1904 1905 1906 1907 
1908 1909 1910 1911 
1912 1913 1914 1915 
1916 1917 1918 1919 
1920 1921 1922 1923 
1924 1925 1926 1927 
1928 1929 1930 1931 
1932 1933 1934 1935 
1936 1937 1938 1939 
1940 1941 1942 1943 
1944 1945 1946 1947 
1948 1949 1950 1951 
1952 1953 1954 1955 
1956 1957 1958 1959 
1960 1961 1962 1963 
1964 1965 1966 1967 
1968 1969 1970 1971 
1972 1973 1974 1975 
1976 1977 1978 1979 
1980 1981 1982 1983 
1984 1985 1986 1987 
1988 1989 1990 1991 
1992 1993 1994 1995 
1996 1997 1998 1999 
2000 2001 2002 2003 
2004 2005 2006 2007 
2008 2009 2010 2011 
2012 2013 2014 2015 
2016 2017 2018 2019 
2020 2021 2022 2023 
2024 2025 2026 2027 
2028 2029 2030 2031 
2032 2033 2034 2035 
2036 2037 2038 2039 
2040 2041 2042 2043 
2044 2045 2046 2047 
2048 2049 2050 2051 2052 2053 2054 2055 2056 2057 2058 2059 2060 2061 2062 2063 
2064 2065 2066 2067 2068 2069 2070 2071 2072 2073 2074 2075 2076 2077 2078 2079 
</DataArray>
<DataArray type="Int32" Name="offsets" format="ascii">
4 8 12 16 20 24 28 32 36 40 44 48 52 56 60 64 68 72 76 80 84 88 92 96 100 104 108 112 116 120 124 128 132 136 140 144 148 152 156 160 164 168 172 176 180 184 188 192 196 200 204 208 212 216 220 224 228 232 236 240 244 248 252 256 260 264 268 272 276 280 284 288 292 296 300 304 308 312 316 320 324 328 332 336 340 344 348 352 356 360 364 368 372 376 380 384 388 392 396 400 404 408 412 416 420 424 428 432 436 440 444 448 452 456 460 464 468 472 476 480 484 488 492 496 500 504 508 512 516 520 524 528 532 536 540 544 548 552 556 560 564 568 572 576 580 584 588 592 596 600 604 608 612 616 620 624 628 632 636 640 644 648 652 656 660 664 668 672 676 680 684 688 692 696 700 704 708 712 716 720 724 728 732 736 740 744 748 752 756 760 764 768 772 776 780 784 788 792 796 800 804 808 812 816 820 824 828 832 836 840 844 848 852 856 860 864 868 872 876 880 884 888 892 896 900 904 908 912 916 920 924 928 932 936 940 944 948 952 956 960 964 968 972 976 980 984 988 992 996 1000 1004 1008 1012 1016 1020 1024 1028 1032 1036 1040 1044 1048 1052 1056 1060 1064 1068 1072 1076 1080 1084 1088 1092 1096 1100 1104 1108 1112 1116 1120 1124 1128 1132 1136 1140 1144 1148 1152 1156 1160 1164 1168 1172 1176 1180 1184 1188 1192 1196 1200 1204 1208 1212 1216 1220 1224 1228 1232 1236 1240 1244 1248 1252 1256 1260 1264 1268 1272 1276 1280 1284 1288 1292 1296 1300 1304 1308 1312 1316 1320 1324 1328 1332 1336 1340 1344 1348 1352 1356 1360 1364 1368 1372 1376 1380 1384 1388 1392 1396 1400 1404 1408 1412 1416 1420 1424 1428 1432 1436 1440 1444 1448 1452 1456 1460 1464 1468 1472 1476 1480 1484 1488 1492 1496 1500 1504 1508 1512 1516 1520 1524 1528 1532 1536 1540 1544 1548 1552 1556 1560 1564 1568 1572 1576 1580 1584 1588 1592 1596 1600 1604 1608 1612 1616 1620 1624 1628 1632 1636 1640 1644 1648 1652 1656 1660 1664 1668 1672 1676 1680 1684 1688 1692 1696 1700 1704 1708 1712 1716 1720 1724 1728 1732 1736 1740 1744 1748 1752 1756 1760 1764 1768 1772 1776 1780 1784 1788 1792 1796 1800 1804 1808 1812 1816 1820 1824 1828 1832 1836 1840 1844 1848 1852 1856 1860 1864 1868 1872 1876 1880 1884 1888 1892 1896 1900 1904 1908 1912 1916 1920 1924 1928 1932 1936 1940 1944 1948 1952 1956 1960 1964 1968 1972 1976 1980 1984 1988 1992 1996 2000 2004 2008 2012 2016 2020 2024 2028 2032 2036 2040 2044 2048 2064 2080 
</DataArray>
<DataArray type="UInt8" Name="types" format="ascii">
7 7 7 7 7 7 7 7 7 7 7 7 7 7 7 7 7 7 7 7 7 7 7 7 7 7 7 7 7 7 7 7 7 7 7 7 7 7 7 7 7 7 7 7 7 7 7 7 7 7 7 7 7 7 7 7 7 7 7 7 7 7 7 7 7 7 7 7 7 7 7 7 7 7 7 7 7 7 7 7 7 7 7 7 7 7 7 7 7 7 7 7 7 7 7 7 7 7 7 7 7 7 7 7 7 7 7 7 7 7 7 7 7 7 7 7 7 7 7 7 7 7 7 7 7 7 7 7 7 7 7 7 7 7 7 7 7 7 7 7 7 7 7 7 7 7 7 7 7 7 7 7 7 7 7 7 7 7 7 7 7 7 7 7 7 7 7 7 7 7 7 7 7 7 7 7 7 7 7 7 7 7 7 7 7 7 7 7 7 7 7 7 7 7 7 7 7 7 7 7 7 7 7 7 7 7 7 7 7 7 7 7 7 7 7 7 7 7 7 7 7 7 7 7 7 7 7 7 7 7 7 7 7 7 7 7 7 7 7 7 7 7 7 7 7 7 7 7 7 7 7 7 7 7 7 7 7 7 7 7 7 7 7 7 7 7 7 7 7 7 7 7 7 7 7 7 7 7 7 7 7 7 7 7 7 7 7 7 7 7 7 7 7 7 7 7 7 7 7 7 7 7 7 7 7 7 7 7 7 7 7 7 7 7 7 7 7 7 7 7 7 7 7 7 7 7 7 7 7 7 7 7 7 7 7 7 7 7 7 7 7 7 7 7 7 7 7 7 7 7 7 7 7 7 7 7 7 7 7 7 7 7 7 7 7 7 7 7 7 7 7 7 7 7 7 7 7 7 7 7 7 7 7 7 7 7 7 7 7 7 7 7 7 7 7 7 7 7 7 7 7 7 7 7 7 7 7 7 7 7 7 7 7 7 7 7 7 7 7 7 7 7 7 7 7 7 7 7 7 7 7 7 7 7 7 7 7 7 7 7 7 7 7 7 7 7 7 7 7 7 7 7 7 7 7 7 7 7 7 7 7 7 7 7 7 7 7 7 7 7 7 7 7 7 7 7 7 7 7 7 7 7 7 7 7 7 7 7 7 7 7 7 7 7 7 7 7 7 7 7 7 7 7 7 7 7 7 7 7 7 7 7 7 7 
</DataArray>
</Cells>
<CellData Scalars="cell variable 4" Vectors="cell vector">
<DataArray type="Float64" NumberOfComponents="3" Name="cell vector" format="ascii">
0.12372 0.168839 0.977848
0.314841 0.475863 0.821237
0.334441 0.750893 0.569481
-0.0200909 0.983161 0.181632
-0.153286 0.962172 -0.225228
-0.0719591 0.820454 -0.567166
-0.0137554 -0.554544 0.832041
-0.0170354 -0.195955 0.980465
0.0215944 0.197068 0.980152
0.0139792 0.555074 0.831684
-0.0734906 0.820603 0.566754
-0.154287 0.962132 0.224718
-0.0226798 0.983088 -0.181727
0.327282 0.753666 -0.569978
-0.302682 -0.480257 0.823247
-0.127327 -0.167607 0.977597
0.0378507 0.19353 0.980364
0.10223 0.549628 0.829131
0.10816 0.82552 0.553911
0.00889125 0.980855 0.194534
0.0174424 0.980468 -0.195903
0.0444896 0.830758 -0.554853
-0.044328 -0.555335 0.830445
-0.0178712 -0.195018 0.980637
0.0182842 0.195507 0.980532
0.043879 0.555786 0.830167
0.0435212 0.831094 0.554427
0.0168308 0.980587 0.195363
0.00841101 0.980746 -0.195104
0.107686 0.825246 -0.554412
-0.101962 -0.549186 0.829457
-0.0394943 -0.192893 0.980425
0.0368759 0.193119 0.980482
0.102007 0.548765 0.82973
0.113134 0.824612 0.55427
-0.027337 0.980421 0.195006
0.0285517 0.980459 -0.194642
0.0545085 0.830109 -0.554931
-0.0460898 -0.554503 0.830904
-0.0177478 -0.194579 0.980726
0.0170884 0.195134 0.980628
0.0456837 0.554948 0.83063
0.0542989 0.830403 0.554511
0.0284195 0.980574 0.194079
-0.0273413 0.980301 -0.19561
0.113038 0.824341 -0.554693
-0.102143 -0.548301 0.83002
-0.0377368 -0.192444 0.980582
0.0384541 0.191926 0.980656
0.110502 0.545516 0.830784
0.153226 0.817865 0.554634
0.803334 -0.587383 -0.0981642
0.994527 -0.103971 0.0102615
0.997093 -0.0760785 0.00422027
0.997251 -0.0740926 0.000490259
0.997141 -0.0755684 -3.697e-05
0.997141 -0.0755638 0.000746352
0.997253 -0.0740743 0.000226604
0.997098 -0.0760423 -0.00351921
0.994525 -0.104054 -0.00960222
0.802716 -0.588066 0.0991237
0.153209 0.817632 -0.554982
-0.110667 -0.545059 0.831062
-0.0391433 -0.191174 0.980775
0.0397313 0.190524 0.980878
0.115271 0.542274 0.832257
0.176178 0.812255 0.556061
-0.70439 0.700158 0.116673
0.987002 -0.160577 0.00655763
0.990797 -0.135339 0.00208582
0.991259 -0.131927 -0.0010084
0.991156 -0.132698 -0.000554532
0.991157 -0.132692 0.00126166
0.991261 -0.131903 0.00172184
0.990804 -0.135299 -0.00137882
0.986992 -0.160662 -0.00588403
-0.703311 0.701073 -0.117688
0.176272 0.812031 -0.556357
-0.115613 -0.5418 0.832518
-0.0404275 -0.189727 0.981004
0.0447417 0.188599 0.981034
0.130145 0.537425 0.833209
0.203064 0.805248 0.557083
0.737954 -0.66722 -0.101197
0.978062 -0.208252 0.00508185
0.9818 -0.189897 0.0029029
0.982611 -0.185675 4.77134e-05
0.982619 -0.185631 -0.00013684
0.982621 -0.185622 0.000857967
0.982616 -0.185648 0.000671788
0.981807 -0.189867 -0.00219683
0.97804 -0.208369 -0.00440753
0.72901 -0.676535 0.104135
0.203109 0.805052 -0.557349
-0.130535 -0.536938 0.833462
-0.0454744 -0.187762 0.981161
0.0516268 0.18631 0.981134
0.149893 0.53128 0.833831
0.233578 0.796498 0.557703
0.975593 -0.219541 0.00455111
0.967212 -0.253944 0.00368951
0.970123 -0.242591 0.00340608
0.971181 -0.23834 0.0010816
0.971341 -0.237691 0.000307704
0.971343 -0.237682 0.000421555
0.971188 -0.238315 -0.000353839
0.970129 -0.242573 -0.00269557
0.96718 -0.254074 -0.00300871
0.973031 -0.230668 -0.00159845
0.233529 0.796343 -0.557944
-0.150292 -0.53078 0.834077
-0.0523829 -0.185418 0.981263
0.0594034 0.183638 0.981197
0.17202 0.523882 0.83424
0.266698 0.785749 0.558096
0.983478 -0.17958 0.0228339
0.954007 -0.299774 0.00256798
0.955873 -0.293762 0.00338118
0.956997 -0.290093 0.00171354
0.957286 -0.289143 0.00062265
0.957288 -0.289136 0.0001099
0.957005 -0.290071 -0.000980145
0.955878 -0.293753 -0.00266589
0.953965 -0.299911 -0.00187943
0.982734 -0.183792 -0.021321
0.266555 0.785644 -0.558312
-0.172423 -0.523366 0.834481
-0.0601678 -0.18268 0.98133
0.067685 0.180525 0.981239
0.195581 0.515111 0.834511
0.301921 0.772692 0.558382
0.971285 -0.236931 0.0216812
0.938074 -0.346432 0.00175664
0.939064 -0.343729 0.00301132
0.940114 -0.340855 0.00195026
0.940483 -0.339841 0.000787691
0.940485 -0.339834 -5.33706e-05
0.940122 -0.340836 -0.00121539
0.939067 -0.343727 -0.00229503
0.938028 -0.346558 -0.0010605
0.970474 -0.240348 -0.0203039
0.30169 0.772645 -0.558572
-0.195984 -0.514576 0.834747
-0.0684384 -0.179494 0.981376
0.0762965 0.176917 0.981264
0.22008 0.50484 0.834687
0.337943 0.757458 0.558616
0.953993 -0.2992 0.0194006
0.919227 -0.393727 0.00122334
0.919652 -0.392727 0.00251651
0.920566 -0.390582 0.00189735
0.920963 -0.389649 0.00083798
0.920966 -0.389643 -0.00010172
0.920574 -0.390567 -0.00116384
0.919651 -0.392733 -0.00180255
0.919178 -0.393841 -0.000522264
0.952971 -0.302526 -0.0180179
0.33766 0.757463 -0.55878
-0.220474 -0.504285 0.834918
-0.0770097 -0.175816 0.981406
0.0850319 0.172803 0.981279
0.244856 0.493098 0.834805
0.37386 0.740253 0.558797
0.929513 -0.368466 0.0154306
0.897576 -0.440859 0.000879818
0.897646 -0.440714 0.00201201
0.89839 -0.439196 0.00168533
0.898769 -0.438422 0.000813849
0.898772 -0.438416 -8.17702e-05
0.898397 -0.439183 -0.000959286
0.897641 -0.440725 -0.00130749
0.897521 -0.440973 -0.000183863
0.928232 -0.371736 -0.0140346
0.373555 0.740305 -0.558933
-0.245241 -0.49252 0.835034
-0.0856787 -0.171641 0.981427
0.0937365 0.16819 0.981288
0.269459 0.479956 0.834885
0.409691 0.720944 0.558921
0.89939 -0.437004 0.0111838
0.873239 -0.487293 0.000618977
0.873086 -0.487563 0.00152912
0.873643 -0.486566 0.00140469
0.873973 -0.485974 0.000739763
0.873978 -0.485966 -1.52073e-05
0.873653 -0.486549 -0.000685372
0.87308 -0.487577 -0.000833733
0.87315 -0.487451 5.97163e-05
0.897981 -0.439925 -0.00984273
0.409527 0.720951 -0.559032
-0.26983 -0.479355 0.835111
-0.0942666 -0.166996 0.981441
0.102264 0.163123 0.981291
0.293731 0.465411 0.834934
0.445309 0.699436 0.559007
0.865228 -0.501324 0.00733696
0.846255 -0.532778 0.000430057
0.846021 -0.533149 0.00109103
0.846397 -0.532551 0.00108621
0.846653 -0.532144 0.000629288
0.846655 -0.532141 6.86191e-05
0.846401 -0.532545 -0.000391598
0.846017 -0.533156 -0.000406792
0.846207 -0.532854 0.000247472
0.863533 -0.504256 -0.0059806
0.444954 0.699592 -0.559094
-0.294026 -0.464829 0.835155
-0.102759 -0.161851 0.98145
0.110607 0.157588 0.981291
0.317339 0.449602 0.834958
0.479973 0.676068 0.559069
0.827881 -0.560889 0.00400409
0.816824 -0.576886 0.000284534
0.816533 -0.577298 0.000707285
0.816724 -0.577028 0.000774424
0.816889 -0.576795 0.00051611
0.816892 -0.576791 0.000177805
0.81673 -0.57702 -8.7372e-05
0.816522 -0.577314 -4.20628e-05
0.816768 -0.576967 0.000380637
0.825912 -0.563793 -0.00262672
0.479635 0.676262 -0.559125
-0.317653 -0.448979 0.835173
-0.111 -0.156275 0.981457
0.11879 0.151516 0.981291
0.340371 0.432407 0.834968
0.513431 0.651006 0.559088
0.786306 -0.617837 0.000617555
0.785089 -0.619384 0.000170823
0.784801 -0.619747 0.000309503
0.784779 -0.619775 0.000366523
0.784795 -0.619756 0.000349128
0.784801 -0.619747 0.000339828
0.784795 -0.619755 0.000318615
0.784788 -0.619765 0.000341139
0.784962 -0.619544 0.000465018
0.783867 -0.620929 0.000837534
0.513305 0.651078 -0.55912
-0.34071 -0.431726 0.835182
-0.119047 -0.150202 0.981462
0.12686 0.144819 0.981292
0.363296 0.413327 0.834971
0.546654 0.623431 0.55902
0.740176 -0.672406 -0.00312695
0.75082 -0.660507 -9.53895e-05
0.750616 -0.660738 -0.000189927
0.750341 -0.661051 -9.58904e-05
0.750167 -0.661249 0.000165236
0.750171 -0.661244 0.000491251
0.75035 -0.66104 0.000745343
0.750608 -0.660747 0.000817068
0.750744 -0.660593 0.000715936
0.73733 -0.675517 0.00460983
0.546363 0.623679 -0.559028
-0.363541 -0.412685 0.835182
-0.127058 -0.143447 0.981468
0.134719 0.137665 0.981274
0.385824 0.39267 0.834835
0.581289 0.591639 0.558629
0.708099 -0.706106 -0.00303496
0.713529 -0.700623 -0.00189714
0.712788 -0.701377 -0.00188986
0.712135 -0.702041 -0.00128705
0.711767 -0.702416 -0.000260794
0.711773 -0.702409 0.000901199
0.712145 -0.702029 0.00191506
0.712779 -0.701384 0.00249762
0.713423 -0.700729 0.00249198
0.705491 -0.708705 0.00438485
0.581227 0.591717 -0.55861
-0.386006 -0.392053 0.835041
-0.134751 -0.136333 0.981456
0.142064 0.130357 0.981236
0.406613 0.371727 0.834557
0.612249 0.560194 0.557973
-0.669897 0.74245 0.00265752
-0.674293 0.738462 0.00178828
-0.673826 0.738887 0.00193541
-0.673124 0.739529 0.00139224
-0.67269 0.739925 0.000314233
-0.672696 0.739918 -0.000933665
-0.673134 0.739518 -0.00199449
-0.673811 0.7389 -0.00251314
-0.674185 0.738559 -0.00235953
-0.668306 0.743877 -0.003677
0.612232 0.560249 -0.557936
-0.406765 -0.371105 0.834759
-0.14197 -0.129045 0.981423
0.148849 0.122742 0.981213
0.425582 0.350264 0.834383
0.639257 0.529588 0.557572
-0.62186 0.783123 0.00294099
-0.633468 0.773769 1.06816e-05
-0.634051 0.773291 0.000586862
-0.633544 0.773706 0.000588966
-0.633131 0.774045 5.45915e-05
-0.633138 0.774038 -0.000639748
-0.633556 0.773696 -0.00115566
-0.634031 0.773306 -0.00112486
-0.63336 0.773857 -0.000546404
-0.620574 0.784138 -0.00382782
0.639185 0.529732 -0.557518
-0.425721 -0.349617 0.834584
-0.148654 -0.121441 0.981404
0.15517 0.114726 0.981203
0.443491 0.327443 0.834324
0.666088 0.495539 0.557465
-0.575975 0.81746 0.00331211
-0.590442 0.80708 -0.000106612
-0.591278 0.806468 0.000691586
-0.590669 0.806914 0.000737621
-0.590174 0.807276 0.000123737
-0.590182 0.80727 -0.000673245
-0.59068 0.806905 -0.00126617
-0.591256 0.806483 -0.00119226
-0.590336 0.807158 -0.000394751
-0.574781 0.818297 -0.0041266
0.666021 0.495713 -0.55739
-0.443596 -0.326797 0.834522
-0.154865 -0.113459 0.981399
0.161076 0.106389 0.981191
0.460195 0.30372 0.834251
0.690886 0.46044 0.557379
-0.527209 0.849726 0.00410099
-0.545909 0.837844 2.50416e-05
-0.546736 0.837304 0.00100432
-0.54586 0.837876 0.000961338
-0.545245 0.838277 0.000199216
-0.545253 0.838271 -0.000716915
-0.54587 0.837869 -0.00145096
-0.546707 0.837323 -0.00146306
-0.545811 0.837908 -0.00049159
-0.526111 0.850402 -0.0048439
0.690861 0.46059 -0.557286
-0.460264 -0.303082 0.834445
-0.160655 -0.105183 0.98139
0.166507 0.0978487 0.981173
0.475501 0.279464 0.834145
0.713415 0.424853 0.557259
-0.475454 0.879726 0.00519399
-0.500154 0.865936 0.000253874
-0.500728 0.865604 0.00141516
-0.499436 0.86635 0.00118759
-0.498682 0.866785 0.000260565
-0.498693 0.866779 -0.000738796
-0.499446 0.866343 -0.00163063
-0.500693 0.865623 -0.00182495
-0.50006 0.865991 -0.000676931
-0.474458 0.880259 -0.00585985
0.713431 0.424971 -0.557149
-0.47554 -0.278831 0.834335
-0.165975 -0.096719 0.981375
0.171422 0.0892363 0.981148
0.489288 0.255054 0.833993
0.733588 0.389228 0.557091
-0.421436 0.906835 0.00643606
-0.453544 0.891233 0.00060562
-0.45341 0.8913 0.00189903
-0.451546 0.892247 0.00136621
-0.450664 0.892694 0.000283592
-0.450677 0.892687 -0.000728532
-0.451556 0.892241 -0.00176147
-0.453363 0.891323 -0.00225449
-0.453454 0.891279 -0.00098469
-0.420659 0.907192 -0.00700208
0.733662 0.389265 -0.556967
-0.489304 -0.254414 0.834179
-0.170786 -0.0882037 0.981352
0.175788 0.0807493 0.981111
0.50145 0.231031 0.83377
0.751296 0.354192 0.556868
-0.367409 0.93003 0.00739678
-0.406577 0.913616 0.00114562
-0.404895 0.91436 0.00240764
-0.402306 0.915504 0.00141896
-0.401347 0.915926 0.000238058
-0.401365 0.915918 -0.000654429
-0.402313 0.915501 -0.0017613
-0.404829 0.914388 -0.00270409
-0.406507 0.913647 -0.00148257
-0.367064 0.930163 -0.00782033
0.751405 0.354175 -0.556731
-0.501454 -0.230368 0.833951
-0.175064 -0.0798155 0.981317
0.179596 0.0726349 0.981055
0.511909 0.208176 0.833434
0.766249 0.321097 0.55656
-0.320294 0.947294 0.00672693
-0.359843 0.933011 0.00194265
-0.355196 0.934788 0.00282372
-0.351802 0.936074 0.00123056
-0.350883 0.936419 8.82429e-05
-0.350907 0.93641 -0.000475534
-0.351806 0.936072 -0.0015107
-0.355106 0.934821 -0.00304861
-0.35978 0.933034 -0.00222598
-0.320903 0.947087 -0.00689983
0.766373 0.32106 -0.556412
-0.511924 -0.207426 0.833612
-0.178801 -0.071805 0.981262
0.18287 0.0651961 0.980973
0.520681 0.187456 0.832918
0.778296 0.291603 0.556078
-0.296134 0.955146 0.00131468
-0.313801 0.949484 0.00302802
-0.304177 0.952611 0.00293323
-0.300082 0.953913 0.000669891
-0.299396 0.954129 -0.000201578
-0.299431 0.954118 -0.000158597
-0.300088 0.953911 -0.000877133
-0.304065 0.952646 -0.00307723
-0.313752 0.949499 -0.00325445
-0.297841 0.954615 -0.00121461
0.778489 0.291383 -0.555923
-0.520734 -0.186515 0.833096
-0.182022 -0.0644964 0.981177
0.185652 0.0588583 0.980851
0.527888 0.170049 0.832116
0.787683 0.266956 0.555239
-0.326705 0.945007 -0.0150561
-0.268089 0.963384 0.00436131
-0.251407 0.967878 0.00250851
-0.247021 0.96901 -0.000295501
-0.246798 0.969067 -0.000616821
-0.24685 0.969054 0.000295334
-0.247036 0.969006 0.000185397
-0.251287 0.967909 -0.00255635
-0.268081 0.963386 -0.00452663
-0.329647 0.943978 0.0154565
0.787997 0.266304 -0.555106
-0.528005 -0.168769 0.832302
-0.184791 -0.0583147 0.981046
0.187908 0.0545381 0.980671
0.533443 0.158207 0.830908
0.794751 0.248313 0.553815
-0.420667 0.906175 -0.0434283
-0.219357 0.975624 0.00635696
-0.195252 0.980751 0.00205842
-0.191334 0.981524 -0.00102224
-0.191729 0.981448 -0.000879412
-0.191799 0.981434 0.000662068
-0.191368 0.981518 0.00105336
-0.195153 0.980771 -0.00200228
-0.219415 0.97561 -0.0064657
-0.424462 0.904373 0.0440546
0.795165 0.247136 -0.553748
-0.533669 -0.156313 0.831122
-0.187117 -0.0541655 0.980843
0.188969 0.0551744 0.980432
0.535442 0.160772 0.829129
0.797673 0.242572 0.552156
-0.366052 0.930094 -0.0305158
-0.154088 0.987912 0.0169133
-0.127487 0.991797 0.00926522
-0.124157 0.992254 0.00401424
-0.124659 0.992199 0.00118884
-0.124636 0.992202 -0.000701393
-0.124199 0.99225 -0.00386147
-0.127725 0.991763 -0.00958022
-0.154453 0.987849 -0.0172526
-0.367981 0.929328 0.0306412
0.798254 0.240464 -0.552238
-0.535965 -0.157362 0.829445
-0.188433 -0.0548812 0.980551
0.188268 0.051174 0.980783
0.535211 0.146267 0.831959
0.810102 0.180319 0.557871
0.982275 0.00755821 0.187292
0.976693 0.086698 -0.196353
0.824793 0.109046 -0.554821
-0.550716 -0.0808966 0.830763
-0.193386 -0.0296294 0.980675
0.193401 0.029704 0.98067
0.55065 0.0823631 0.830663
0.824726 0.109638 0.554803
0.976646 0.0869308 0.196481
0.982298 0.0078225 -0.18716
0.810518 0.178692 -0.557791
-0.536046 -0.14265 0.832049
-0.187974 -0.0510572 0.980846
0.188893 0.0443938 0.980994
0.538044 0.125359 0.833543
0.814077 0.155584 0.559529
0.979279 0.0683541 0.190631
0.976278 0.0807918 -0.200885
0.824783 0.0954039 -0.557343
-0.550943 -0.0729608 0.831347
-0.193489 -0.0270884 0.980728
0.193736 0.0273121 0.980674
0.550978 0.0741025 0.831223
0.824692 0.0958131 0.557407
0.976242 0.0808595 0.201031
0.979321 0.0682399 -0.190455
0.814337 0.154732 -0.559386
-0.538809 -0.12245 0.833481
-0.188582 -0.0444786 0.98105
0.181644 0.0574129 0.981687
0.509403 0.183802 0.84067
0.757841 0.291438 0.58373
0.987481 -0.0426399 0.151866
0.973706 -0.0127059 -0.227453
0.821804 0.047623 -0.567776
-0.548692 -0.0513039 0.834449
-0.192605 -0.0194662 0.981083
0.192762 0.0202869 0.981036
0.548556 0.0497097 0.834635
0.821784 0.047797 0.567791
0.973843 -0.0102761 0.22699
0.98748 -0.0395836 -0.152697
0.758109 0.290847 -0.583676
-0.51542 -0.169533 0.84
-0.181687 -0.057206 0.981691
-6.27376e-06 0.00657669 0.999978
0.00408152 0.000544941 0.999992
</DataArray>
<DataArray type="Float64" Name="cell vector length" format="ascii">
0.172562 0.173 0.145786 0.134671 0.170274 0.16851 0.157571 0.149701 0.149362 0.156969 0.168617 0.170335 0.13465 0.145491 0.179708 0.176802 0.423117 0.392502 0.343658 0.348881 0.390354 0.404402 0.396723 0.386581 0.386166 0.395635 0.404305 0.39046 0.349287 0.344152 0.396848 0.424663 0.536101 0.493166 0.414102 0.432521 0.500448 0.511815 0.498641 0.486205 0.48601 0.497936 0.51187 0.500656 0.432969 0.414397 0.495721 0.536755 0.579803 0.521453 0.364395 0.0773367 0.416238 0.596374 0.67974 0.713313 0.713281 0.679714 0.596133 0.416046 0.0774814 0.364358 0.523905 0.580363 0.607678 0.536607 0.355885 0.0327319 0.396004 0.585414 0.672529 0.707205 0.707152 0.672396 0.585193 0.395778 0.0329355 0.355793 0.539085 0.608189 0.623578 0.543853 0.344098 0.011218 0.390707 0.582605 0.671388 0.70666 0.706622 0.671286 0.582408 0.390452 0.0113596 0.344047 0.546619 0.624147 0.633765 0.548449 0.335391 0.0115113 0.389506 0.581184 0.671028 0.706826 0.706796 0.670942 0.581005 0.389238 0.0111104 0.335422 0.551741 0.634463 0.640637 0.551543 0.329376 0.0209249 0.390039 0.580384 0.670769 0.706975 0.706948 0.67069 0.580216 0.389765 0.0203856 0.329486 0.555495 0.6415 0.645298 0.553708 0.325664 0.0268748 0.391155 0.580043 0.670573 0.707051 0.707027 0.670499 0.579881 0.390869 0.0262841 0.325849 0.558342 0.646329 0.64841 0.555194 0.324155 0.0284877 0.391563 0.579711 0.670436 0.707121 0.707098 0.670364 0.579552 0.391268 0.0278673 0.324408 0.560512 0.649612 0.650427 0.556053 0.322133 0.0312681 0.39309 0.580032 0.670492 0.707207 0.707184 0.670416 0.579868 0.392785 0.0306434 0.322447 0.562063 0.651805 0.651658 0.556378 0.3202 0.0339311 0.394719 0.580558 0.670674 0.70735 0.70733 0.670604 0.580398 0.39439 0.0332839 0.320588 0.563086 0.653217 0.652284 0.556283 0.31845 0.0363708 0.396257 0.581213 0.670995 0.707594 0.707576 0.670925 0.581053 0.395919 0.0357602 0.318868 0.563667 0.654013 0.652408 0.555812 0.316684 0.0388092 0.397688 0.581945 0.671443 0.707967 0.707945 0.671361 0.581772 0.397333 0.0381347 0.317209 0.563836 0.654299 0.652283 0.555037 0.31488 0.0413303 0.399172 0.582866 0.672108 0.708546 0.708526 0.67203 0.582694 0.398803 0.0407464 0.315378 0.563707 0.654353 0.652242 0.554067 0.312685 0.0445614 0.401404 0.584453 0.673295 0.709546 0.709527 0.673216 0.584276 0.400998 0.0439199 0.31326 0.563388 0.654492 0.652201 0.553049 0.310835 0.0555232 0.408585 0.589652 0.677442 0.713246 0.713222 0.677345 0.589459 0.40817 0.0548172 0.311439 0.562999 0.654621 0.651938 0.551911 0.303628 0.0903274 0.431687 0.605734 0.690151 0.72459 0.724565 0.690053 0.605541 0.431256 0.0893524 0.304515 0.562462 0.654521 0.651407 0.550591 0.301819 0.0993613 0.437219 0.60983 0.693537 0.727662 0.727636 0.693436 0.609632 0.43677 0.0983602 0.302724 0.561692 0.654146 0.650484 0.54898 0.299745 0.0999572 0.437637 0.610423 0.694136 0.728204 0.728178 0.694032 0.610221 0.437173 0.0989319 0.300681 0.560591 0.653373 0.649069 0.547209 0.298235 0.0992838 0.437161 0.610511 0.694428 0.728509 0.728481 0.694318 0.610306 0.436693 0.0982372 0.29921 0.559296 0.6521 0.647093 0.545191 0.297132 0.0978699 0.436395 0.610566 0.694727 0.728811 0.72878 0.69461 0.610357 0.435933 0.0968089 0.298154 0.557728 0.650264 0.644351 0.54281 0.296552 0.0955235 0.435428 0.610701 0.695084 0.729118 0.729084 0.694958 0.610494 0.434977 0.0944451 0.297634 0.555781 0.647663 0.640467 0.539932 0.296936 0.091775 0.434356 0.611017 0.69551 0.729405 0.729364 0.695371 0.610811 0.433933 0.0906817 0.298103 0.553325 0.643925 0.634847 0.536337 0.299271 0.085846 0.433427 0.611636 0.696001 0.729628 0.729578 0.695843 0.61143 0.433042 0.0847219 0.30056 0.550144 0.638466 0.626581 0.531583 0.303986 0.077848 0.433193 0.612722 0.696553 0.72976 0.729697 0.696374 0.612519 0.432864 0.0769763 0.305083 0.545825 0.630401 0.614078 0.524677 0.311858 0.0700513 0.434978 0.614676 0.697351 0.729973 0.729898 0.697154 0.614488 0.434718 0.0692876 0.313051 0.539463 0.618177 0.592865 0.511843 0.320229 0.0763167 0.443657 0.619815 0.700117 0.731901 0.731846 0.699975 0.619701 0.443499 0.0758652 0.321463 0.527401 0.597391 0.543223 0.471708 0.293239 0.150932 0.488849 0.64737 0.718168 0.747881 0.748371 0.719891 0.647239 0.48871 0.150646 0.294413 0.488834 0.548518 0.502418 0.441892 0.340787 0.360744 0.435798 0.454794 0.459502 0.446643 0.440331 0.443277 0.45304 0.436255 0.361804 0.342402 0.460229 0.508267 0.453613 0.401664 0.330546 0.324606 0.37502 0.399371 0.416067 0.403408 0.395571 0.394755 0.397754 0.375366 0.325482 0.33209 0.420856 0.459892 0.199754 0.141804 0.0695831 0.0616419 0.132599 0.188457 0.227922 0.225116 0.219132 0.209626 0.189125 0.133641 0.0622823 0.0687368 0.160858 0.205622 0.0342452 0.0151589 
</DataArray>
<DataArray type="Float64" Name="cell variable 4" format="ascii">
858.63 868.94 876.47 883.012 888.198 872.182 861.338 857.129 856.753 860.664 872.26 888.079 882.819 875.355 873.108 859.951 1093.74 1090.42 1089.56 1106.39 1112.55 1104.3 1098.3 1094.14 1093.34 1096.27 1104.16 1112.48 1106.38 1089.85 1097.82 1096.45 1310.59 1306.05 1300.55 1324.41 1337.61 1334.67 1332.77 1330.1 1329.33 1330.46 1334.67 1337.73 1324.57 1300.76 1312.95 1312.68 1374.94 1371.47 1366.85 1485.27 2437.59 3534.41 4470.95 5006.89 5005.5 4468.06 3532.49 2436.9 1485.22 1366.92 1378.97 1377.09 1398.84 1393.82 1390.46 1486.57 2418.52 3520.97 4472.54 5018.63 5017.68 4470.41 3519.24 2417.66 1486.49 1390.51 1401.97 1401.1 1404.17 1394.91 1388.08 1489.04 2411.59 3508.22 4467.45 5021.41 5020.67 4465.71 3506.7 2410.68 1488.96 1388.18 1403.97 1406.66 1404.93 1392.83 1383.29 1500.26 2414.02 3500.29 4461.59 5020.8 5020.17 4460.11 3498.9 2413.07 1499.81 1383.43 1403.3 1407.82 1404.73 1390.37 1378.6 1513.56 2420.42 3496.68 4456.25 5018.19 5017.64 4454.93 3495.38 2419.47 1513.04 1378.77 1402.59 1408.11 1404.4 1387.95 1374.18 1521.71 2426.53 3495.72 4452.07 5015.01 5014.52 4450.88 3494.47 2425.54 1521.13 1374.38 1402.05 1408.34 1404 1385.63 1370.2 1523.89 2428.09 3493.38 4448.49 5012.19 5011.74 4447.39 3492.17 2427.09 1523.26 1370.43 1401.65 1408.52 1403.48 1383.39 1366.65 1527.88 2433.38 3495.42 4447.02 5009.79 5009.38 4445.99 3494.23 2432.34 1527.2 1366.91 1401.37 1408.61 1402.96 1381.29 1363.39 1531.27 2438.45 3498.31 4446.76 5008.24 5007.85 4445.77 3497.1 2437.38 1530.57 1363.7 1401.18 1408.67 1402.41 1379.28 1360.38 1533.77 2442.58 3501.32 4447.61 5007.93 5007.58 4446.69 3500.12 2441.5 1533.1 1360.71 1401.03 1408.71 1401.71 1377.19 1357.54 1535.77 2445.93 3504.38 4449.43 5008.97 5008.66 4448.58 3503.18 2444.7 1534.8 1357.79 1400.78 1408.64 1401.45 1375.32 1354.64 1536.93 2448.4 3507.45 4452.24 5011.59 5011.29 4451.41 3506.23 2447.23 1536.14 1354.97 1400.68 1408.96 1401.69 1373.91 1351.73 1537.59 2449.36 3509.04 4454.38 5014.28 5013.99 4453.53 3507.73 2448.07 1536.7 1352.11 1401.04 1409.81 1400.81 1372.11 1349.58 1537.66 2449.5 3510.5 4457.08 5017.78 5017.42 4456.1 3509.08 2448.11 1536.69 1349.95 1400.92 1409.53 1398.71 1369.66 1348.19 1566.74 2503.12 3587.6 4554.25 5126.54 5126.14 4553.19 3586.07 2501.57 1565.38 1348.57 1399.94 1407.94 1397.26 1367.55 1346.21 1566.39 2501.58 3586.77 4554.87 5128.12 5127.71 4553.78 3585.19 2499.97 1565.05 1346.62 1399.21 1407 1396.59 1366.02 1344.19 1566.05 2499.83 3586.23 4556.84 5131.76 5131.35 4555.75 3584.62 2498.18 1564.68 1344.62 1398.98 1406.82 1395.94 1364.75 1342.93 1565.08 2497.35 3585.47 4559.33 5136.25 5135.83 4558.23 3583.87 2495.71 1563.69 1343.38 1398.88 1406.63 1395.26 1363.67 1342.11 1563.11 2493.82 3584.61 4562.4 5141.34 5140.89 4561.27 3583.03 2492.24 1561.71 1342.58 1398.87 1406.37 1394.55 1362.8 1341.73 1559.67 2489.06 3583.93 4566.27 5146.95 5146.45 4565.07 3582.36 2487.52 1558.25 1342.21 1398.96 1406.03 1393.74 1362.17 1341.92 1553.97 2483.04 3583.99 4571.19 5152.87 5152.27 4569.87 3582.47 2481.64 1552.56 1342.41 1399.17 1405.56 1392.84 1361.84 1342.89 1544.66 2476.23 3585.73 4577.34 5158.63 5157.9 4575.86 3584.29 2475.02 1543.2 1343.37 1399.56 1404.96 1391.77 1361.79 1344.65 1531.4 2470.01 3590.51 4584.71 5163.47 5162.53 4582.99 3589.17 2469.08 1530.36 1345.1 1400.14 1404.16 1389.13 1360.91 1346 1514.63 2467.32 3599.98 4592.86 5166.27 5165.08 4590.86 3598.79 2466.68 1513.69 1346.4 1399.72 1401.75 1374.6 1349.72 1336.86 1499.8 2474.22 3616.18 4601.11 5166.12 5164.66 4598.83 3615.12 2473.83 1499.12 1337.11 1388.45 1387.27 1292.94 1269.12 1251.8 1499.86 2510.57 3650.37 4619.2 5174.07 5172.32 4616.41 3649.34 2510.31 1499.42 1251.82 1305.36 1304.92 1219.29 1192.48 1169.73 1188.47 1194.4 1196.96 1226.43 1222.5 1213.97 1200.83 1197.09 1194.66 1188.74 1169.81 1226.73 1230.72 1094.2 1066.24 1043.43 1041.4 1046.75 1044.35 1076.11 1069.34 1059.14 1045.48 1044.1 1046.79 1041.49 1043.73 1096.65 1104.55 764.642 750.862 742.141 746.488 766.108 791.94 846.089 862.21 855.719 825.957 793.292 766.436 746.463 740.788 769.002 770.222 612.048 744.351 
</DataArray>
<DataArray type="Float64" Name="cell variable 5" format="ascii">
0.0020154 0.0020154 0.0020154 0.0020154 0.0020154 0.0020154 0.0020154 0.0020154 0.0020154 0.0020154 0.0020154 0.0020154 0.0020154 0.0020154 0.0020154 0.0020154 0.0020154 0.0020154 0.0020154 0.0020154 0.0020154 0.0020154 0.0020154 0.0020154 0.0020154 0.0020154 0.0020154 0.0020154 0.0020154 0.0020154 0.0020154 0.0020154 0.0020154 0.0020154 0.0020154 0.0020154 0.0020154 0.0020154 0.0020154 0.0020154 0.0020154 0.0020154 0.0020154 0.0020154 0.0020154 0.0020154 0.0020154 0.0020154 0.00304595 0.00281977 0.00245476 0.00210677 0.0020154 0.0020154 0.0020154 0.0020154 0.0020154 0.0020154 0.0020154 0.0020154 0.00210677 0.00245476 0.00281977 0.00304595 0.00344634 0.00313238 0.0026254 0.00214215 0.0020154 0.0020154 0.0020154 0.0020154 0.0020154 0.0020154 0.0020154 0.0020154 0.00214215 0.0026254 0.00313238 0.00344634 0.00367833 0.00331377 0.00272438 0.00216275 0.0020154 0.0020154 0.0020154 0.0020154 0.0020154 0.0020154 0.0020154 0.0020154 0.00216275 0.00272438 0.00331377 0.00367833 0.00384718 0.003445 0.00279648 0.00217798 0.0020154 0.0020154 0.0020154 0.0020154 0.0020154 0.0020154 0.0020154 0.0020154 0.00217798 0.00279648 0.003445 0.00384718 0.00397885 0.00354801 0.00285247 0.00218962 0.0020154 0.0020154 0.0020154 0.0020154 0.0020154 0.0020154 0.0020154 0.0020154 0.00218962 0.00285247 0.00354801 0.00397885 0.004085 0.00363086 0.0028977 0.00219903 0.0020154 0.0020154 0.0020154 0.0020154 0.0020154 0.0020154 0.0020154 0.0020154 0.00219903 0.0028977 0.00363086 0.004085 0.00417188 0.00369849 0.00293487 0.00220664 0.0020154 0.0020154 0.0020154 0.0020154 0.0020154 0.0020154 0.0020154 0.0020154 0.00220664 0.00293487 0.00369849 0.00417188 0.0042422 0.00375358 0.00296488 0.00221291 0.0020154 0.0020154 0.0020154 0.0020154 0.0020154 0.0020154 0.0020154 0.0020154 0.00221291 0.00296488 0.00375358 0.0042422 0.00429863 0.00379792 0.00298907 0.00221784 0.0020154 0.0020154 0.0020154 0.0020154 0.0020154 0.0020154 0.0020154 0.0020154 0.00221784 0.00298907 0.00379792 0.00429863 0.00434252 0.00383195 0.00300743 0.00222187 0.0020154 0.0020154 0.0020154 0.0020154 0.0020154 0.0020154 0.0020154 0.0020154 0.00222187 0.00300743 0.00383195 0.00434252 0.00437477 0.00385703 0.00302131 0.00222456 0.0020154 0.0020154 0.0020154 0.0020154 0.0020154 0.0020154 0.0020154 0.0020154 0.00222456 0.00302131 0.00385703 0.00437477 0.00439627 0.0038736 0.00303027 0.0022268 0.0020154 0.0020154 0.0020154 0.0020154 0.0020154 0.0020154 0.0020154 0.0020154 0.0022268 0.00303027 0.0038736 0.00439627 0.00440657 0.00388211 0.00303475 0.00222769 0.0020154 0.0020154 0.0020154 0.0020154 0.0020154 0.0020154 0.0020154 0.0020154 0.00222769 0.00303475 0.00388211 0.00440657 0.00440657 0.00388211 0.00303475 0.00222769 0.0020154 0.0020154 0.0020154 0.0020154 0.0020154 0.0020154 0.0020154 0.0020154 0.00222769 0.00303475 0.00388211 0.00440657 0.00439627 0.0038736 0.00303027 0.0022268 0.0020154 0.0020154 0.0020154 0.0020154 0.0020154 0.0020154 0.0020154 0.0020154 0.0022268 0.00303027 0.0038736 0.00439627 0.00437477 0.00385703 0.00302131 0.00222456 0.0020154 0.0020154 0.0020154 0.0020154 0.0020154 0.0020154 0.0020154 0.0020154 0.00222456 0.00302131 0.00385703 0.00437477 0.00434252 0.00383195 0.00300743 0.00222187 0.0020154 0.0020154 0.0020154 0.0020154 0.0020154 0.0020154 0.0020154 0.0020154 0.00222187 0.00300743 0.00383195 0.00434252 0.00429863 0.00379792 0.00298907 0.00221784 0.0020154 0.0020154 0.0020154 0.0020154 0.0020154 0.0020154 0.0020154 0.0020154 0.00221784 0.00298907 0.00379792 0.00429863 0.0042422 0.00375358 0.00296488 0.00221291 0.0020154 0.0020154 0.0020154 0.0020154 0.0020154 0.0020154 0.0020154 0.0020154 0.00221291 0.00296488 0.00375358 0.0042422 0.00417188 0.00369849 0.00293487 0.00220664 0.0020154 0.0020154 0.0020154 0.0020154 0.0020154 0.0020154 0.0020154 0.0020154 0.00220664 0.00293487 0.00369849 0.00417188 0.004085 0.00363086 0.0028977 0.00219903 0.0020154 0.0020154 0.0020154 0.0020154 0.0020154 0.0020154 0.0020154 0.0020154 0.00219903 0.0028977 0.00363086 0.004085 0.00397885 0.00354801 0.00285247 0.00218962 0.0020154 0.0020154 0.0020154 0.0020154 0.0020154 0.0020154 0.0020154 0.0020154 0.00218962 0.00285247 0.00354801 0.00397885 0.00384718 0.003445 0.00279648 0.00217798 0.0020154 0.0020154 0.0020154 0.0020154 0.0020154 0.0020154 0.0020154 0.0020154 0.00217798 0.00279648 0.003445 0.00384718 0.00367833 0.00331377 0.00272438 0.00216275 0.0020154 0.0020154 0.0020154 0.0020154 0.0020154 0.0020154 0.0020154 0.0020154 0.00216275 0.00272438 0.00331377 0.00367833 0.00344634 0.00313238 0.0026254 0.00214215 0.0020154 0.0020154 0.0020154 0.0020154 0.0020154 0.0020154 0.0020154 0.0020154 0.00214215 0.0026254 0.00313238 0.00344634 0.00304595 0.00281977 0.00245476 0.00210677 0.0020154 0.0020154 0.0020154 0.0020154 0.0020154 0.0020154 0.0020154 0.0020154 0.00210677 0.00245476 0.00281977 0.00304595 0.0020154 0.0020154 0.0020154 0.0020154 0.0020154 0.0020154 0.0020154 0.0020154 0.0020154 0.0020154 0.0020154 0.0020154 0.0020154 0.0020154 0.0020154 0.0020154 0.0020154 0.0020154 0.0020154 0.0020154 0.0020154 0.0020154 0.0020154 0.0020154 0.0020154 0.0020154 0.0020154 0.0020154 0.0020154 0.0020154 0.0020154 0.0020154 0.0020154 0.0020154 0.0020154 0.0020154 0.0020154 0.0020154 0.0020154 0.0020154 0.0020154 0.0020154 0.0020154 0.0020154 0.0020154 0.0020154 0.0020154 0.0020154 0.0020154 0.0020154 
</DataArray>
<DataArray type="Float64" Name="cell variable 6" format="ascii">
1 1 1 1 1 1 1 1 1 1 1 1 1 1 1 1 1 1 1 1 1 1 1 1 1 1 1 1 1 1 1 1 1 1 1 1 1 1 1 1 1 1 1 1 1 1 1 1 1 1 1 1 1 1 1 1 1 1 1 1 1 1 1 1 1 1 1 1 1 1 1 1 1 1 1 1 1 1 1 1 1 1 1 1 1 1 1 1 1 1 1 1 1 1 1 1 1 1 1 1 1 1 1 1 1 1 1 1 1 1 1 1 1 1 1 1 1 1 1 1 1 1 1 1 1 1 1 1 1 1 1 1 1 1 1 1 1 1 1 1 1 1 1 1 1 1 1 1 1 1 1 1 1 1 1 1 1 1 1 1 1 1 1 1 1 1 1 1 1 1 1 1 1 1 1 1 1 1 1 1 1 1 1 1 1 1 1 1 1 1 1 1 1 1 1 1 1 1 1 1 1 1 1 1 1 1 1 1 1 1 1 1 1 1 1 1 1 1 1 1 1 1 1 1 1 1 1 1 1 1 1 1 1 1 1 1 1 1 1 1 1 1 1 1 1 1 1 1 1 1 1 1 1 1 1 1 1 1 1 1 1 1 1 1 1 1 1 1 1 1 1 1 1 1 1 1 1 1 1 1 1 1 1 1 1 1 1 1 1 1 1 1 1 1 1 1 1 1 1 1 1 1 1 1 1 1 1 1 1 1 1 1 1 1 1 1 1 1 1 1 1 1 1 1 1 1 1 1 1 1 1 1 1 1 1 1 1 1 1 1 1 1 1 1 1 1 1 1 1 1 1 1 1 1 1 1 1 1 1 1 1 1 1 1 1 1 1 1 1 1 1 1 1 1 1 1 1 1 1 1 1 1 1 1 1 1 1 1 1 1 1 1 1 1 1 1 1 1 1 1 1 1 1 1 1 1 1 1 1 1 1 1 1 1 1 1 1 1 1 1 1 1 1 1 1 1 1 1 1 1 1 1 1 1 1 1 1 1 1 1 1 1 1 1 1 1 1 1 1 1 1 1 1 1 1 1 1 1 1 1 1 1 1 1 1 1 1 1 1 1 1 1 1 1 1 1 1 1 1 1 1 1 1 1 1 1 1 1 1 1 1 1 1 1 1 1 1 1 1 1 1 1 1 1 1 1 1 1 1 1 1 1 1 1 
</DataArray>
<DataArray type="Float64" Name="cell variable 7" format="ascii">
0 0 0 0 0 0 0 0 0 0 0 0 0 0 0 0 0 0 0 0 0 0 0 0 0 0 0 0 0 0 0 0 0 0 0 0 0 0 0 0 0 0 0 0 0 0 0 0 0 0 0 0 0 0 0 0 0 0 0 0 0 0 0 0 0 0 0 0 0 0 0 0 0 0 0 0 0 0 0 0 0 0 0 0 0 0 0 0 0 0 0 0 0 0 0 0 0 0 0 0 0 0 0 0 0 0 0 0 0 0 0 0 0 0 0 0 0 0 0 0 0 0 0 0 0 0 0 0 0 0 0 0 0 0 0 0 0 0 0 0 0 0 0 0 0 0 0 0 0 0 0 0 0 0 0 0 0 0 0 0 0 0 0 0 0 0 0 0 0 0 0 0 0 0 0 0 0 0 0 0 0 0 0 0 0 0 0 0 0 0 0 0 0 0 0 0 0 0 0 0 0 0 0 0 0 0 0 0 0 0 0 0 0 0 0 0 0 0 0 0 0 0 0 0 0 0 0 0 0 0 0 0 0 0 0 0 0 0 0 0 0 0 0 0 0 0 0 0 0 0 0 0 0 0 0 0 0 0 0 0 0 0 0 0 0 0 0 0 0 0 0 0 0 0 0 0 0 0 0 0 0 0 0 0 0 0 0 0 0 0 0 0 0 0 0 0 0 0 0 0 0 0 0 0 0 0 0 0 0 0 0 0 0 0 0 0 0 0 0 0 0 0 0 0 0 0 0 0 0 0 0 0 0 0 0 0 0 0 0 0 0 0 0 0 0 0 0 0 0 0 0 0 0 0 0 0 0 0 0 0 0 0 0 0 0 0 0 0 0 0 0 0 0 0 0 0 0 0 0 0 0 0 0 0 0 0 0 0 0 0 0 0 0 0 0 0 0 0 0 0 0 0 0 0 0 0 0 0 0 0 0 0 0 0 0 0 0 0 0 0 0 0 0 0 0 0 0 0 0 0 0 0 0 0 0 0 0 0 0 0 0 0 0 0 0 0 0 0 0 0 0 0 0 0 0 0 0 0 0 0 0 0 0 0 0 0 0 0 0 0 0 0 0 0 0 0 0 0 0 0 0 0 0 0 0 0 0 0 0 0 0 0 0 0 0 0 0 0 0 0 0 0 0 0 0 0 0 0 0 0 0 0 1 1 
</DataArray>
<DataArray type="Float64" Name="cell variable 8" format="ascii">
11.25 33.75 56.25 78.75 101.25 123.75 146.25 168.75 191.25 213.75 236.25 258.75 281.25 303.75 326.25 348.75 11.25 33.75 56.25 78.75 101.25 123.75 146.25 168.75 191.25 213.75 236.25 258.75 281.25 303.75 326.25 348.75 11.25 33.75 56.25 78.75 101.25 123.75 146.25 168.75 191.25 213.75 236.25 258.75 281.25 303.75 326.25 348.75 11.25 33.75 56.25 78.75 101.25 123.75 146.25 168.75 191.25 213.75 236.25 258.75 281.25 303.75 326.25 348.75 11.25 33.75 56.25 78.75 101.25 123.75 146.25 168.75 191.25 213.75 236.25 258.75 281.25 303.75 326.25 348.75 11.25 33.75 56.25 78.75 101.25 123.75 146.25 168.75 191.25 213.75 236.25 258.75 281.25 303.75 326.25 348.75 11.25 33.75 56.25 78.75 101.25 123.75 146.25 168.75 191.25 213.75 236.25 258.75 281.25 303.75 326.25 348.75 11.25 33.75 56.25 78.75 101.25 123.75 146.25 168.75 191.25 213.75 236.25 258.75 281.25 303.75 326.25 348.75 11.25 33.75 56.25 78.75 101.25 123.75 146.25 168.75 191.25 213.75 236.25 258.75 281.25 303.75 326.25 348.75 11.25 33.75 56.25 78.75 101.25 123.75 146.25 168.75 191.25 213.75 236.25 258.75 281.25 303.75 326.25 348.75 11.25 33.75 56.25 78.75 101.25 123.75 146.25 168.75 191.25 213.75 236.25 258.75 281.25 303.75 326.25 348.75 11.25 33.75 56.25 78.75 101.25 123.75 146.25 168.75 191.25 213.75 236.25 258.75 281.25 303.75 326.25 348.75 11.25 33.75 56.25 78.75 101.25 123.75 146.25 168.75 191.25 213.75 236.25 258.75 281.25 303.75 326.25 348.75 11.25 33.75 56.25 78.75 101.25 123.75 146.25 168.75 191.25 213.75 236.25 258.75 281.25 303.75 326.25 348.75 11.25 33.75 56.25 78.75 101.25 123.75 146.25 168.75 191.25 213.75 236.25 258.75 281.25 303.75 326.25 348.75 11.25 33.75 56.25 78.75 101.25 123.75 146.25 168.75 191.25 213.75 236.25 258.75 281.25 303.75 326.25 348.75 11.25 33.75 56.25 78.75 101.25 123.75 146.25 168.75 191.25 213.75 236.25 258.75 281.25 303.75 326.25 348.75 11.25 33.75 56.25 78.75 101.25 123.75 146.25 168.75 191.25 213.75 236.25 258.75 281.25 303.75 326.25 348.75 11.25 33.75 56.25 78.75 101.25 123.75 146.25 168.75 191.25 213.75 236.25 258.75 281.25 303.75 326.25 348.75 11.25 33.75 56.25 78.75 101.25 123.75 146.25 168.75 191.25 213.75 236.25 258.75 281.25 303.75 326.25 348.75 11.25 33.75 56.25 78.75 101.25 123.75 146.25 168.75 191.25 213.75 236.25 258.75 281.25 303.75 326.25 348.75 11.25 33.75 56.25 78.75 101.25 123.75 146.25 168.75 191.25 213.75 236.25 258.75 281.25 303.75 326.25 348.75 11.25 33.75 56.25 78.75 101.25 123.75 146.25 168.75 191.25 213.75 236.25 258.75 281.25 303.75 326.25 348.75 11.25 33.75 56.25 78.75 101.25 123.75 146.25 168.75 191.25 213.75 236.25 258.75 281.25 303.75 326.25 348.75 11.25 33.75 56.25 78.75 101.25 123.75 146.25 168.75 191.25 213.75 236.25 258.75 281.25 303.75 326.25 348.75 11.25 33.75 56.25 78.75 101.25 123.75 146.25 168.75 191.25 213.75 236.25 258.75 281.25 303.75 326.25 348.75 11.25 33.75 56.25 78.75 101.25 123.75 146.25 168.75 191.25 213.75 236.25 258.75 281.25 303.75 326.25 348.75 11.25 33.75 56.25 78.75 101.25 123.75 146.25 168.75 191.25 213.75 236.25 258.75 281.25 303.75 326.25 348.75 11.25 33.75 56.25 78.75 101.25 123.75 146.25 168.75 191.25 213.75 236.25 258.75 281.25 303.75 326.25 348.75 11.25 33.75 56.25 78.75 101.25 123.75 146.25 168.75 191.25 213.75 236.25 258.75 281.25 303.75 326.25 348.75 11.25 33.75 56.25 78.75 101.25 123.75 146.25 168.75 191.25 213.75 236.25 258.75 281.25 303.75 326.25 348.75 11.25 33.75 56.25 78.75 101.25 123.75 146.25 168.75 191.25 213.75 236.25 258.75 281.25 303.75 326.25 348.75 0 0 
</DataArray>
</CellData>
</Piece>
</UnstructuredGrid>
</VTKFile>
